{
    "header": {
        "PPQ": 480,
        "timeSignature": [
            4,
            4
        ],
        "bpm": 69.99998833333528,
        "name": "Klaviersonate a-Moll, Opus 143 2. Satz"
    },
    "startTime": 0,
    "duration": 226.28575199999955,
    "tracks": [
        {
            "startTime": 0,
            "duration": 0,
            "length": 0,
            "notes": [],
            "controlChanges": {},
            "id": 0,
            "name": "Klaviersonate a-Moll, Opus 143 2. Satz"
        },
        {
            "startTime": 0.0017857145833333333,
            "duration": 226.28575199999898,
            "length": 806,
            "notes": [
                {
                    "name": "A3",
                    "midi": 57,
                    "time": 0.0017857145833333333,
                    "velocity": 0.3937007874015748,
                    "duration": 1.7125002854166667
                },
                {
                    "name": "C4",
                    "midi": 60,
                    "time": 0.0017857145833333333,
                    "velocity": 0.3937007874015748,
                    "duration": 1.7125002854166667
                },
                {
                    "name": "F4",
                    "midi": 65,
                    "time": 1.2857144999999999,
                    "velocity": 0.33070866141732286,
                    "duration": 0.4285715000000001
                },
                {
                    "name": "A4",
                    "midi": 69,
                    "time": 1.714286,
                    "velocity": 0.3937007874015748,
                    "duration": 0.8571430000000002
                },
                {
                    "name": "D5",
                    "midi": 74,
                    "time": 2.571429,
                    "velocity": 0.4251968503937008,
                    "duration": 0.8571429999999998
                },
                {
                    "name": "D4",
                    "midi": 62,
                    "time": 2.571429,
                    "velocity": 0.4251968503937008,
                    "duration": 0.8571429999999998
                },
                {
                    "name": "C5",
                    "midi": 72,
                    "time": 3.428572,
                    "velocity": 0.3937007874015748,
                    "duration": 1.2857145
                },
                {
                    "name": "G4",
                    "midi": 67,
                    "time": 3.428572,
                    "velocity": 0.3937007874015748,
                    "duration": 1.7142860000000004
                },
                {
                    "name": "C4",
                    "midi": 60,
                    "time": 3.428572,
                    "velocity": 0.3937007874015748,
                    "duration": 1.2857145
                },
                {
                    "name": "A#3",
                    "midi": 58,
                    "time": 4.7142865,
                    "velocity": 0.3543307086614173,
                    "duration": 0.4285715000000003
                },
                {
                    "name": "A#4",
                    "midi": 70,
                    "time": 4.7142865,
                    "velocity": 0.3543307086614173,
                    "duration": 0.4285715000000003
                },
                {
                    "name": "G3",
                    "midi": 55,
                    "time": 5.142858,
                    "velocity": 0.3937007874015748,
                    "duration": 0.8571429999999998
                },
                {
                    "name": "G4",
                    "midi": 67,
                    "time": 5.142858,
                    "velocity": 0.3937007874015748,
                    "duration": 0.8571429999999998
                },
                {
                    "name": "A4",
                    "midi": 69,
                    "time": 6.000001,
                    "velocity": 0.3543307086614173,
                    "duration": 0.8571429999999998
                },
                {
                    "name": "A3",
                    "midi": 57,
                    "time": 6.000001,
                    "velocity": 0.3543307086614173,
                    "duration": 0.8571429999999998
                },
                {
                    "name": "F4",
                    "midi": 65,
                    "time": 6.857144,
                    "velocity": 0.3543307086614173,
                    "duration": 1.7142859999999995
                },
                {
                    "name": "F3",
                    "midi": 53,
                    "time": 6.857144,
                    "velocity": 0.3543307086614173,
                    "duration": 1.7142859999999995
                },
                {
                    "name": "A3",
                    "midi": 57,
                    "time": 6.857144,
                    "velocity": 0.3543307086614173,
                    "duration": 1.7142859999999995
                },
                {
                    "name": "G4",
                    "midi": 67,
                    "time": 8.57143,
                    "velocity": 0.29133858267716534,
                    "duration": 1.7142859999999995
                },
                {
                    "name": "A#4",
                    "midi": 70,
                    "time": 8.57143,
                    "velocity": 0.29133858267716534,
                    "duration": 1.7142859999999995
                },
                {
                    "name": "C4",
                    "midi": 60,
                    "time": 8.57143,
                    "velocity": 0.29133858267716534,
                    "duration": 1.7142859999999995
                },
                {
                    "name": "A#3",
                    "midi": 58,
                    "time": 8.57143,
                    "velocity": 0.29133858267716534,
                    "duration": 1.7142859999999995
                },
                {
                    "name": "C4",
                    "midi": 60,
                    "time": 10.285715999999999,
                    "velocity": 0.2204724409448819,
                    "duration": 0.4285715000000003
                },
                {
                    "name": "A3",
                    "midi": 57,
                    "time": 10.285715999999999,
                    "velocity": 0.2204724409448819,
                    "duration": 0.4285715000000003
                },
                {
                    "name": "A4",
                    "midi": 69,
                    "time": 10.285715999999999,
                    "velocity": 0.2204724409448819,
                    "duration": 0.4285715000000003
                },
                {
                    "name": "F4",
                    "midi": 65,
                    "time": 10.285715999999999,
                    "velocity": 0.2204724409448819,
                    "duration": 0.4285715000000003
                },
                {
                    "name": "C4",
                    "midi": 60,
                    "time": 11.142859,
                    "velocity": 0.16535433070866143,
                    "duration": 0.6428572500000005
                },
                {
                    "name": "C#4",
                    "midi": 61,
                    "time": 11.78571625,
                    "velocity": 0.14173228346456693,
                    "duration": 0.1071428749999992
                },
                {
                    "name": "C4",
                    "midi": 60,
                    "time": 11.892859125,
                    "velocity": 0.14173228346456693,
                    "duration": 0.1071428749999992
                },
                {
                    "name": "B3",
                    "midi": 59,
                    "time": 12.000001999999999,
                    "velocity": 0.1968503937007874,
                    "duration": 0.6428572500000005
                },
                {
                    "name": "C4",
                    "midi": 60,
                    "time": 12.642859249999999,
                    "velocity": 0.14173228346456693,
                    "duration": 0.1071428749999992
                },
                {
                    "name": "C#4",
                    "midi": 61,
                    "time": 12.750002124999998,
                    "velocity": 0.14173228346456693,
                    "duration": 0.1071428749999992
                },
                {
                    "name": "C4",
                    "midi": 60,
                    "time": 12.857144999999997,
                    "velocity": 0.16535433070866143,
                    "duration": 0.21428575000000016
                },
                {
                    "name": "A3",
                    "midi": 57,
                    "time": 13.714287999999998,
                    "velocity": 0.36220472440944884,
                    "duration": 1.7089288562499991
                },
                {
                    "name": "C4",
                    "midi": 60,
                    "time": 13.714287999999998,
                    "velocity": 0.36220472440944884,
                    "duration": 1.7142859999999995
                },
                {
                    "name": "F4",
                    "midi": 65,
                    "time": 15.000002499999997,
                    "velocity": 0.36220472440944884,
                    "duration": 0.4285715000000003
                },
                {
                    "name": "A4",
                    "midi": 69,
                    "time": 15.428573999999998,
                    "velocity": 0.3937007874015748,
                    "duration": 0.8571430000000007
                },
                {
                    "name": "D5",
                    "midi": 74,
                    "time": 16.285716999999998,
                    "velocity": 0.48031496062992124,
                    "duration": 0.8571430000000007
                },
                {
                    "name": "A4",
                    "midi": 69,
                    "time": 16.285716999999998,
                    "velocity": 0.48031496062992124,
                    "duration": 0.8571430000000007
                },
                {
                    "name": "D4",
                    "midi": 62,
                    "time": 16.285716999999998,
                    "velocity": 0.48031496062992124,
                    "duration": 0.8571430000000007
                },
                {
                    "name": "D5",
                    "midi": 74,
                    "time": 17.14286,
                    "velocity": 0.47244094488188976,
                    "duration": 1.7142860000000013
                },
                {
                    "name": "A4",
                    "midi": 69,
                    "time": 17.14286,
                    "velocity": 0.47244094488188976,
                    "duration": 1.7142860000000013
                },
                {
                    "name": "D4",
                    "midi": 62,
                    "time": 17.14286,
                    "velocity": 0.47244094488188976,
                    "duration": 1.7142860000000013
                },
                {
                    "name": "F4",
                    "midi": 65,
                    "time": 18.4285745,
                    "velocity": 0.5118110236220472,
                    "duration": 0.4285715000000003
                },
                {
                    "name": "F5",
                    "midi": 77,
                    "time": 18.4285745,
                    "velocity": 0.5118110236220472,
                    "duration": 0.4285715000000003
                },
                {
                    "name": "A5",
                    "midi": 81,
                    "time": 18.857146,
                    "velocity": 0.5433070866141733,
                    "duration": 0.8571430000000007
                },
                {
                    "name": "A4",
                    "midi": 69,
                    "time": 18.857146,
                    "velocity": 0.5433070866141733,
                    "duration": 0.8571430000000007
                },
                {
                    "name": "A#4",
                    "midi": 70,
                    "time": 19.714289,
                    "velocity": 0.5826771653543307,
                    "duration": 0.8571430000000007
                },
                {
                    "name": "C#5",
                    "midi": 73,
                    "time": 19.714289,
                    "velocity": 0.5826771653543307,
                    "duration": 0.8571430000000007
                },
                {
                    "name": "A#5",
                    "midi": 82,
                    "time": 19.714289,
                    "velocity": 0.5826771653543307,
                    "duration": 0.8571430000000007
                },
                {
                    "name": "C#5",
                    "midi": 73,
                    "time": 20.571432,
                    "velocity": 0.5590551181102362,
                    "duration": 1.7142860000000013
                },
                {
                    "name": "A#5",
                    "midi": 82,
                    "time": 20.571432,
                    "velocity": 0.5590551181102362,
                    "duration": 1.7142860000000013
                },
                {
                    "name": "A#4",
                    "midi": 70,
                    "time": 20.571432,
                    "velocity": 0.5590551181102362,
                    "duration": 1.7142860000000013
                },
                {
                    "name": "A5",
                    "midi": 81,
                    "time": 22.285718000000003,
                    "velocity": 0.4094488188976378,
                    "duration": 0.8571430000000007
                },
                {
                    "name": "A4",
                    "midi": 69,
                    "time": 22.285718000000003,
                    "velocity": 0.4094488188976378,
                    "duration": 0.8571430000000007
                },
                {
                    "name": "C5",
                    "midi": 72,
                    "time": 22.285718000000003,
                    "velocity": 0.4094488188976378,
                    "duration": 0.8571430000000007
                },
                {
                    "name": "G5",
                    "midi": 79,
                    "time": 23.142861000000003,
                    "velocity": 0.36220472440944884,
                    "duration": 0.8571430000000007
                },
                {
                    "name": "C5",
                    "midi": 72,
                    "time": 23.142861000000003,
                    "velocity": 0.36220472440944884,
                    "duration": 1.285714500000001
                },
                {
                    "name": "A#4",
                    "midi": 70,
                    "time": 23.142861000000003,
                    "velocity": 0.36220472440944884,
                    "duration": 0.8571430000000007
                },
                {
                    "name": "A4",
                    "midi": 69,
                    "time": 24.000004000000004,
                    "velocity": 0.33070866141732286,
                    "duration": 0.4285715000000003
                },
                {
                    "name": "F5",
                    "midi": 77,
                    "time": 24.000004000000004,
                    "velocity": 0.33070866141732286,
                    "duration": 0.4285715000000003
                },
                {
                    "name": "C4",
                    "midi": 60,
                    "time": 24.857147000000005,
                    "velocity": 0.16535433070866143,
                    "duration": 0.6428572499999987
                },
                {
                    "name": "C#4",
                    "midi": 61,
                    "time": 25.500004250000003,
                    "velocity": 0.14173228346456693,
                    "duration": 0.10714287500000097
                },
                {
                    "name": "C4",
                    "midi": 60,
                    "time": 25.607147125000004,
                    "velocity": 0.14173228346456693,
                    "duration": 0.10714287500000097
                },
                {
                    "name": "B3",
                    "midi": 59,
                    "time": 25.714290000000005,
                    "velocity": 0.1968503937007874,
                    "duration": 0.6428572499999987
                },
                {
                    "name": "C4",
                    "midi": 60,
                    "time": 26.357147250000004,
                    "velocity": 0.14173228346456693,
                    "duration": 0.10714287500000097
                },
                {
                    "name": "C#4",
                    "midi": 61,
                    "time": 26.464290125000005,
                    "velocity": 0.14173228346456693,
                    "duration": 0.10714287500000097
                },
                {
                    "name": "C4",
                    "midi": 60,
                    "time": 26.571433000000006,
                    "velocity": 0.16535433070866143,
                    "duration": 0.2142857499999984
                },
                {
                    "name": "G3",
                    "midi": 55,
                    "time": 27.428576000000003,
                    "velocity": 0.36220472440944884,
                    "duration": 1.708928856250001
                },
                {
                    "name": "C4",
                    "midi": 60,
                    "time": 27.428576000000003,
                    "velocity": 0.36220472440944884,
                    "duration": 1.285714500000001
                },
                {
                    "name": "E4",
                    "midi": 64,
                    "time": 28.714290500000004,
                    "velocity": 0.36220472440944884,
                    "duration": 0.4285715000000003
                },
                {
                    "name": "G4",
                    "midi": 67,
                    "time": 29.142862000000004,
                    "velocity": 0.3937007874015748,
                    "duration": 0.8571430000000007
                },
                {
                    "name": "A#3",
                    "midi": 58,
                    "time": 30.000005000000005,
                    "velocity": 0.48031496062992124,
                    "duration": 0.8571430000000007
                },
                {
                    "name": "C#4",
                    "midi": 61,
                    "time": 30.000005000000005,
                    "velocity": 0.48031496062992124,
                    "duration": 0.8571430000000007
                },
                {
                    "name": "A#4",
                    "midi": 70,
                    "time": 30.000005000000005,
                    "velocity": 0.48031496062992124,
                    "duration": 0.8571430000000007
                },
                {
                    "name": "A#3",
                    "midi": 58,
                    "time": 30.857148000000006,
                    "velocity": 0.4409448818897638,
                    "duration": 1.708928856250001
                },
                {
                    "name": "D4",
                    "midi": 62,
                    "time": 30.857148000000006,
                    "velocity": 0.4409448818897638,
                    "duration": 1.7142859999999978
                },
                {
                    "name": "F4",
                    "midi": 65,
                    "time": 32.14286250000001,
                    "velocity": 0.4409448818897638,
                    "duration": 0.4285714999999968
                },
                {
                    "name": "A#4",
                    "midi": 70,
                    "time": 32.571434,
                    "velocity": 0.5590551181102362,
                    "duration": 0.8571430000000007
                },
                {
                    "name": "A#4",
                    "midi": 70,
                    "time": 33.428577000000004,
                    "velocity": 0.5748031496062992,
                    "duration": 0.8571430000000007
                },
                {
                    "name": "D5",
                    "midi": 74,
                    "time": 33.428577000000004,
                    "velocity": 0.5748031496062992,
                    "duration": 0.8571430000000007
                },
                {
                    "name": "F4",
                    "midi": 65,
                    "time": 33.428577000000004,
                    "velocity": 0.5748031496062992,
                    "duration": 0.8571430000000007
                },
                {
                    "name": "D4",
                    "midi": 62,
                    "time": 33.428577000000004,
                    "velocity": 0.5748031496062992,
                    "duration": 0.8571430000000007
                },
                {
                    "name": "D#4",
                    "midi": 63,
                    "time": 34.285720000000005,
                    "velocity": 0.6062992125984252,
                    "duration": 1.7142860000000013
                },
                {
                    "name": "F#4",
                    "midi": 66,
                    "time": 34.285720000000005,
                    "velocity": 0.6062992125984252,
                    "duration": 1.7142860000000013
                },
                {
                    "name": "D#5",
                    "midi": 75,
                    "time": 34.285720000000005,
                    "velocity": 0.6062992125984252,
                    "duration": 1.7142860000000013
                },
                {
                    "name": "D5",
                    "midi": 74,
                    "time": 36.000006000000006,
                    "velocity": 0.5511811023622047,
                    "duration": 0.8571430000000007
                },
                {
                    "name": "F4",
                    "midi": 65,
                    "time": 36.000006000000006,
                    "velocity": 0.5511811023622047,
                    "duration": 0.8571430000000007
                },
                {
                    "name": "D4",
                    "midi": 62,
                    "time": 36.000006000000006,
                    "velocity": 0.5511811023622047,
                    "duration": 0.8571430000000007
                },
                {
                    "name": "C4",
                    "midi": 60,
                    "time": 36.85714900000001,
                    "velocity": 0.5590551181102362,
                    "duration": 0.8571430000000007
                },
                {
                    "name": "F4",
                    "midi": 65,
                    "time": 36.85714900000001,
                    "velocity": 0.5590551181102362,
                    "duration": 0.8571430000000007
                },
                {
                    "name": "C5",
                    "midi": 72,
                    "time": 36.85714900000001,
                    "velocity": 0.5590551181102362,
                    "duration": 0.8571430000000007
                },
                {
                    "name": "C#4",
                    "midi": 61,
                    "time": 37.71429200000001,
                    "velocity": 0.6062992125984252,
                    "duration": 1.7142860000000013
                },
                {
                    "name": "E4",
                    "midi": 64,
                    "time": 37.71429200000001,
                    "velocity": 0.6062992125984252,
                    "duration": 1.7142860000000013
                },
                {
                    "name": "C#5",
                    "midi": 73,
                    "time": 37.71429200000001,
                    "velocity": 0.6062992125984252,
                    "duration": 1.7142860000000013
                },
                {
                    "name": "C5",
                    "midi": 72,
                    "time": 39.42857800000001,
                    "velocity": 0.5275590551181102,
                    "duration": 0.8571430000000007
                },
                {
                    "name": "F4",
                    "midi": 65,
                    "time": 39.42857800000001,
                    "velocity": 0.5275590551181102,
                    "duration": 0.8571430000000007
                },
                {
                    "name": "C4",
                    "midi": 60,
                    "time": 39.42857800000001,
                    "velocity": 0.5275590551181102,
                    "duration": 0.8571430000000007
                },
                {
                    "name": "A3",
                    "midi": 57,
                    "time": 40.28572100000001,
                    "velocity": 0.4015748031496063,
                    "duration": 0.8571430000000007
                },
                {
                    "name": "A4",
                    "midi": 69,
                    "time": 40.28572100000001,
                    "velocity": 0.4015748031496063,
                    "duration": 0.8571430000000007
                },
                {
                    "name": "F4",
                    "midi": 65,
                    "time": 40.28572100000001,
                    "velocity": 0.4015748031496063,
                    "duration": 0.8571430000000007
                },
                {
                    "name": "C4",
                    "midi": 60,
                    "time": 41.14286400000001,
                    "velocity": 0.3937007874015748,
                    "duration": 1.2857144999999974
                },
                {
                    "name": "C5",
                    "midi": 72,
                    "time": 41.14286400000001,
                    "velocity": 0.3937007874015748,
                    "duration": 1.2857144999999974
                },
                {
                    "name": "G4",
                    "midi": 67,
                    "time": 41.14286400000001,
                    "velocity": 0.3937007874015748,
                    "duration": 1.7142859999999942
                },
                {
                    "name": "A#3",
                    "midi": 58,
                    "time": 42.42857850000001,
                    "velocity": 0.3543307086614173,
                    "duration": 0.4285714999999968
                },
                {
                    "name": "A#4",
                    "midi": 70,
                    "time": 42.42857850000001,
                    "velocity": 0.3543307086614173,
                    "duration": 0.4285714999999968
                },
                {
                    "name": "G3",
                    "midi": 55,
                    "time": 42.857150000000004,
                    "velocity": 0.3937007874015748,
                    "duration": 0.8571430000000007
                },
                {
                    "name": "G4",
                    "midi": 67,
                    "time": 42.857150000000004,
                    "velocity": 0.3937007874015748,
                    "duration": 0.8571430000000007
                },
                {
                    "name": "A4",
                    "midi": 69,
                    "time": 43.714293000000005,
                    "velocity": 0.3543307086614173,
                    "duration": 0.8571430000000007
                },
                {
                    "name": "A3",
                    "midi": 57,
                    "time": 43.714293000000005,
                    "velocity": 0.3543307086614173,
                    "duration": 0.8571430000000007
                },
                {
                    "name": "F4",
                    "midi": 65,
                    "time": 44.571436000000006,
                    "velocity": 0.3543307086614173,
                    "duration": 1.7142860000000013
                },
                {
                    "name": "F3",
                    "midi": 53,
                    "time": 44.571436000000006,
                    "velocity": 0.3543307086614173,
                    "duration": 1.7142860000000013
                },
                {
                    "name": "A3",
                    "midi": 57,
                    "time": 44.571436000000006,
                    "velocity": 0.3543307086614173,
                    "duration": 1.7142860000000013
                },
                {
                    "name": "G4",
                    "midi": 67,
                    "time": 46.28572200000001,
                    "velocity": 0.30708661417322836,
                    "duration": 1.7142860000000013
                },
                {
                    "name": "A#3",
                    "midi": 58,
                    "time": 46.28572200000001,
                    "velocity": 0.30708661417322836,
                    "duration": 1.7142860000000013
                },
                {
                    "name": "E4",
                    "midi": 64,
                    "time": 46.28572200000001,
                    "velocity": 0.30708661417322836,
                    "duration": 1.7142860000000013
                },
                {
                    "name": "A4",
                    "midi": 69,
                    "time": 48.00000800000001,
                    "velocity": 0.25196850393700787,
                    "duration": 0.4285714999999968
                },
                {
                    "name": "A3",
                    "midi": 57,
                    "time": 48.00000800000001,
                    "velocity": 0.25196850393700787,
                    "duration": 0.4285714999999968
                },
                {
                    "name": "F4",
                    "midi": 65,
                    "time": 48.00000800000001,
                    "velocity": 0.25196850393700787,
                    "duration": 0.4285714999999968
                },
                {
                    "name": "C4",
                    "midi": 60,
                    "time": 48.857151,
                    "velocity": 0.16535433070866143,
                    "duration": 0.6428572499999987
                },
                {
                    "name": "C#4",
                    "midi": 61,
                    "time": 49.50000825,
                    "velocity": 0.14173228346456693,
                    "duration": 0.10714287500000097
                },
                {
                    "name": "C4",
                    "midi": 60,
                    "time": 49.607151125,
                    "velocity": 0.14173228346456693,
                    "duration": 0.10714287500000097
                },
                {
                    "name": "B3",
                    "midi": 59,
                    "time": 49.714294,
                    "velocity": 0.1968503937007874,
                    "duration": 0.6428572499999987
                },
                {
                    "name": "C4",
                    "midi": 60,
                    "time": 50.35715125,
                    "velocity": 0.14173228346456693,
                    "duration": 0.10714287500000097
                },
                {
                    "name": "C#4",
                    "midi": 61,
                    "time": 50.464294125,
                    "velocity": 0.14173228346456693,
                    "duration": 0.10714287500000097
                },
                {
                    "name": "C4",
                    "midi": 60,
                    "time": 50.571437,
                    "velocity": 0.16535433070866143,
                    "duration": 0.21428575000000194
                },
                {
                    "name": "C5",
                    "midi": 72,
                    "time": 51.428580000000004,
                    "velocity": 0.3937007874015748,
                    "duration": 1.2857144999999974
                },
                {
                    "name": "C6",
                    "midi": 84,
                    "time": 51.428580000000004,
                    "velocity": 0.3937007874015748,
                    "duration": 1.2857144999999974
                },
                {
                    "name": "G5",
                    "midi": 79,
                    "time": 51.428580000000004,
                    "velocity": 0.3937007874015748,
                    "duration": 1.7142859999999942
                },
                {
                    "name": "A#4",
                    "midi": 70,
                    "time": 52.7142945,
                    "velocity": 0.3543307086614173,
                    "duration": 0.4285714999999968
                },
                {
                    "name": "A#5",
                    "midi": 82,
                    "time": 52.7142945,
                    "velocity": 0.3543307086614173,
                    "duration": 0.4285714999999968
                },
                {
                    "name": "G4",
                    "midi": 67,
                    "time": 53.142866,
                    "velocity": 0.3937007874015748,
                    "duration": 0.8571430000000007
                },
                {
                    "name": "G5",
                    "midi": 79,
                    "time": 53.142866,
                    "velocity": 0.3937007874015748,
                    "duration": 0.8571430000000007
                },
                {
                    "name": "A5",
                    "midi": 81,
                    "time": 54.000009,
                    "velocity": 0.3543307086614173,
                    "duration": 0.8571430000000007
                },
                {
                    "name": "A4",
                    "midi": 69,
                    "time": 54.000009,
                    "velocity": 0.3543307086614173,
                    "duration": 0.8571430000000007
                },
                {
                    "name": "F5",
                    "midi": 77,
                    "time": 54.857152,
                    "velocity": 0.3543307086614173,
                    "duration": 1.7142860000000013
                },
                {
                    "name": "F4",
                    "midi": 65,
                    "time": 54.857152,
                    "velocity": 0.3543307086614173,
                    "duration": 1.7142860000000013
                },
                {
                    "name": "A4",
                    "midi": 69,
                    "time": 54.857152,
                    "velocity": 0.3543307086614173,
                    "duration": 1.7142860000000013
                },
                {
                    "name": "G5",
                    "midi": 79,
                    "time": 56.571438,
                    "velocity": 0.30708661417322836,
                    "duration": 1.7142860000000013
                },
                {
                    "name": "G4",
                    "midi": 67,
                    "time": 56.571438,
                    "velocity": 0.30708661417322836,
                    "duration": 1.7142860000000013
                },
                {
                    "name": "E5",
                    "midi": 76,
                    "time": 56.571438,
                    "velocity": 0.30708661417322836,
                    "duration": 1.7142860000000013
                },
                {
                    "name": "F4",
                    "midi": 65,
                    "time": 58.285724,
                    "velocity": 0.25196850393700787,
                    "duration": 0.4285714999999968
                },
                {
                    "name": "F5",
                    "midi": 77,
                    "time": 58.285724,
                    "velocity": 0.25196850393700787,
                    "duration": 0.4285714999999968
                },
                {
                    "name": "C5",
                    "midi": 72,
                    "time": 59.142866999999995,
                    "velocity": 0.16535433070866143,
                    "duration": 0.6428572499999987
                },
                {
                    "name": "C#5",
                    "midi": 73,
                    "time": 59.785724249999994,
                    "velocity": 0.14173228346456693,
                    "duration": 0.10714287500000097
                },
                {
                    "name": "C5",
                    "midi": 72,
                    "time": 59.892867124999995,
                    "velocity": 0.14173228346456693,
                    "duration": 0.10714287500000097
                },
                {
                    "name": "B4",
                    "midi": 71,
                    "time": 60.000009999999996,
                    "velocity": 0.1968503937007874,
                    "duration": 0.6428572499999987
                },
                {
                    "name": "C5",
                    "midi": 72,
                    "time": 60.642867249999995,
                    "velocity": 0.14173228346456693,
                    "duration": 0.10714287500000097
                },
                {
                    "name": "C#5",
                    "midi": 73,
                    "time": 60.750010124999996,
                    "velocity": 0.14173228346456693,
                    "duration": 0.10714287500000097
                },
                {
                    "name": "C5",
                    "midi": 72,
                    "time": 60.857153,
                    "velocity": 0.16535433070866143,
                    "duration": 0.21428575000000194
                },
                {
                    "name": "F4",
                    "midi": 65,
                    "time": 62.571439,
                    "velocity": 0.31496062992125984,
                    "duration": 0.6428572499999987
                },
                {
                    "name": "F#4",
                    "midi": 66,
                    "time": 63.21429625,
                    "velocity": 0.2677165354330709,
                    "duration": 0.10714287500000097
                },
                {
                    "name": "F4",
                    "midi": 65,
                    "time": 63.321439125,
                    "velocity": 0.2677165354330709,
                    "duration": 0.10714287500000097
                },
                {
                    "name": "E4",
                    "midi": 64,
                    "time": 63.428582,
                    "velocity": 0.3779527559055118,
                    "duration": 0.6428572499999987
                },
                {
                    "name": "F4",
                    "midi": 65,
                    "time": 64.07143925,
                    "velocity": 0.2992125984251969,
                    "duration": 0.10714287499999386
                },
                {
                    "name": "F#4",
                    "midi": 66,
                    "time": 64.17858212499999,
                    "velocity": 0.30708661417322836,
                    "duration": 0.10714287499999386
                },
                {
                    "name": "F4",
                    "midi": 65,
                    "time": 64.28572499999999,
                    "velocity": 0.4015748031496063,
                    "duration": 0.6428572500000058
                },
                {
                    "name": "D#4",
                    "midi": 63,
                    "time": 64.92858224999999,
                    "velocity": 0.3543307086614173,
                    "duration": 0.10714287499999386
                },
                {
                    "name": "C#4",
                    "midi": 61,
                    "time": 65.03572512499998,
                    "velocity": 0.4094488188976378,
                    "duration": 0.10714287499999386
                },
                {
                    "name": "C4",
                    "midi": 60,
                    "time": 65.14286799999998,
                    "velocity": 0.49606299212598426,
                    "duration": 0.6428572500000058
                },
                {
                    "name": "C#4",
                    "midi": 61,
                    "time": 65.78572524999998,
                    "velocity": 0.41732283464566927,
                    "duration": 0.10714287499999386
                },
                {
                    "name": "D#4",
                    "midi": 63,
                    "time": 65.89286812499998,
                    "velocity": 0.4330708661417323,
                    "duration": 0.10714287499999386
                },
                {
                    "name": "C#4",
                    "midi": 61,
                    "time": 66.00001099999997,
                    "velocity": 0.5590551181102362,
                    "duration": 0.6428572500000058
                },
                {
                    "name": "C4",
                    "midi": 60,
                    "time": 66.64286824999998,
                    "velocity": 0.4645669291338583,
                    "duration": 0.10714287499999386
                },
                {
                    "name": "A#3",
                    "midi": 58,
                    "time": 66.75001112499997,
                    "velocity": 0.5275590551181102,
                    "duration": 0.10714287499999386
                },
                {
                    "name": "A3",
                    "midi": 57,
                    "time": 66.85715399999997,
                    "velocity": 0.5905511811023622,
                    "duration": 0.6428572500000058
                },
                {
                    "name": "A#3",
                    "midi": 58,
                    "time": 67.50001124999997,
                    "velocity": 0.5590551181102362,
                    "duration": 0.10714287499999386
                },
                {
                    "name": "C4",
                    "midi": 60,
                    "time": 67.60715412499997,
                    "velocity": 0.5590551181102362,
                    "duration": 0.10714287499999386
                },
                {
                    "name": "A#3",
                    "midi": 58,
                    "time": 67.71429699999996,
                    "velocity": 0.6850393700787402,
                    "duration": 0.6428572500000058
                },
                {
                    "name": "G#3",
                    "midi": 56,
                    "time": 68.35715424999997,
                    "velocity": 0.5984251968503937,
                    "duration": 0.10714287499999386
                },
                {
                    "name": "F#3",
                    "midi": 54,
                    "time": 68.46429712499996,
                    "velocity": 0.6771653543307087,
                    "duration": 0.10714287499999386
                },
                {
                    "name": "F3",
                    "midi": 53,
                    "time": 68.57143999999995,
                    "velocity": 0.5433070866141733,
                    "duration": 1.7142860000000013
                },
                {
                    "name": "G#3",
                    "midi": 56,
                    "time": 68.57143999999995,
                    "velocity": 0.6456692913385826,
                    "duration": 1.7142860000000013
                },
                {
                    "name": "C#4",
                    "midi": 61,
                    "time": 68.57143999999995,
                    "velocity": 0.6456692913385826,
                    "duration": 1.7142860000000013
                },
                {
                    "name": "F3",
                    "midi": 53,
                    "time": 70.28572599999995,
                    "velocity": 0.48031496062992124,
                    "duration": 0.2857143333333312
                },
                {
                    "name": "C#4",
                    "midi": 61,
                    "time": 70.28572599999995,
                    "velocity": 0.5669291338582677,
                    "duration": 0.2857143333333312
                },
                {
                    "name": "G#3",
                    "midi": 56,
                    "time": 70.28572599999995,
                    "velocity": 0.5669291338582677,
                    "duration": 0.2857143333333312
                },
                {
                    "name": "C#4",
                    "midi": 61,
                    "time": 70.57144033333329,
                    "velocity": 0.5118110236220472,
                    "duration": 0.2857143333333312
                },
                {
                    "name": "G#3",
                    "midi": 56,
                    "time": 70.57144033333329,
                    "velocity": 0.4330708661417323,
                    "duration": 0.2857143333333312
                },
                {
                    "name": "F4",
                    "midi": 65,
                    "time": 70.57144033333329,
                    "velocity": 0.5118110236220472,
                    "duration": 0.2857143333333312
                },
                {
                    "name": "C#4",
                    "midi": 61,
                    "time": 70.85715466666662,
                    "velocity": 0.5196850393700787,
                    "duration": 0.21428575000000194
                },
                {
                    "name": "G#3",
                    "midi": 56,
                    "time": 70.85715466666662,
                    "velocity": 0.4409448818897638,
                    "duration": 0.21428575000000194
                },
                {
                    "name": "F4",
                    "midi": 65,
                    "time": 70.85715466666662,
                    "velocity": 0.5196850393700787,
                    "duration": 0.21428575000000194
                },
                {
                    "name": "F4",
                    "midi": 65,
                    "time": 71.14286899999995,
                    "velocity": 0.5433070866141733,
                    "duration": 0.2857143333333312
                },
                {
                    "name": "C#4",
                    "midi": 61,
                    "time": 71.14286899999995,
                    "velocity": 0.4566929133858268,
                    "duration": 0.2857143333333312
                },
                {
                    "name": "G#4",
                    "midi": 68,
                    "time": 71.14286899999995,
                    "velocity": 0.5433070866141733,
                    "duration": 0.2857143333333312
                },
                {
                    "name": "G#4",
                    "midi": 68,
                    "time": 71.42858333333328,
                    "velocity": 0.48031496062992124,
                    "duration": 0.2857143333333312
                },
                {
                    "name": "F4",
                    "midi": 65,
                    "time": 71.42858333333328,
                    "velocity": 0.4015748031496063,
                    "duration": 0.2857143333333312
                },
                {
                    "name": "C#5",
                    "midi": 73,
                    "time": 71.42858333333328,
                    "velocity": 0.48031496062992124,
                    "duration": 0.2857143333333312
                },
                {
                    "name": "G#4",
                    "midi": 68,
                    "time": 71.71429766666661,
                    "velocity": 0.4881889763779528,
                    "duration": 0.21428575000000194
                },
                {
                    "name": "F4",
                    "midi": 65,
                    "time": 71.71429766666661,
                    "velocity": 0.4094488188976378,
                    "duration": 0.21428575000000194
                },
                {
                    "name": "C#5",
                    "midi": 73,
                    "time": 71.71429766666661,
                    "velocity": 0.4881889763779528,
                    "duration": 0.21428575000000194
                },
                {
                    "name": "G#4",
                    "midi": 68,
                    "time": 72.00001199999994,
                    "velocity": 0.5433070866141733,
                    "duration": 1.714285999999987
                },
                {
                    "name": "D#4",
                    "midi": 63,
                    "time": 72.00001199999994,
                    "velocity": 0.4566929133858268,
                    "duration": 1.714285999999987
                },
                {
                    "name": "C#5",
                    "midi": 73,
                    "time": 72.00001199999994,
                    "velocity": 0.5433070866141733,
                    "duration": 0.8571429999999935
                },
                {
                    "name": "C5",
                    "midi": 72,
                    "time": 72.85715499999993,
                    "velocity": 0.4881889763779528,
                    "duration": 0.8571429999999935
                },
                {
                    "name": "F3",
                    "midi": 53,
                    "time": 73.71429799999993,
                    "velocity": 0.5354330708661418,
                    "duration": 0.2857143333333312
                },
                {
                    "name": "A#3",
                    "midi": 58,
                    "time": 73.71429799999993,
                    "velocity": 0.5354330708661418,
                    "duration": 0.2857143333333312
                },
                {
                    "name": "C#4",
                    "midi": 61,
                    "time": 73.71429799999993,
                    "velocity": 0.5354330708661418,
                    "duration": 0.2857143333333312
                },
                {
                    "name": "A#3",
                    "midi": 58,
                    "time": 74.00001233333326,
                    "velocity": 0.47244094488188976,
                    "duration": 0.2857143333333312
                },
                {
                    "name": "F4",
                    "midi": 65,
                    "time": 74.00001233333326,
                    "velocity": 0.47244094488188976,
                    "duration": 0.2857143333333312
                },
                {
                    "name": "C#4",
                    "midi": 61,
                    "time": 74.00001233333326,
                    "velocity": 0.47244094488188976,
                    "duration": 0.2857143333333312
                },
                {
                    "name": "C#4",
                    "midi": 61,
                    "time": 74.28572666666659,
                    "velocity": 0.47244094488188976,
                    "duration": 0.21428575000000194
                },
                {
                    "name": "F4",
                    "midi": 65,
                    "time": 74.28572666666659,
                    "velocity": 0.47244094488188976,
                    "duration": 0.21428575000000194
                },
                {
                    "name": "A#3",
                    "midi": 58,
                    "time": 74.28572666666659,
                    "velocity": 0.47244094488188976,
                    "duration": 0.21428575000000194
                },
                {
                    "name": "F4",
                    "midi": 65,
                    "time": 74.57144099999992,
                    "velocity": 0.5275590551181102,
                    "duration": 0.2857143333333312
                },
                {
                    "name": "A#3",
                    "midi": 58,
                    "time": 74.57144099999992,
                    "velocity": 0.5275590551181102,
                    "duration": 0.2857143333333312
                },
                {
                    "name": "C#4",
                    "midi": 61,
                    "time": 74.57144099999992,
                    "velocity": 0.5275590551181102,
                    "duration": 0.2857143333333312
                },
                {
                    "name": "A#4",
                    "midi": 70,
                    "time": 74.85715533333325,
                    "velocity": 0.4566929133858268,
                    "duration": 0.2857143333333312
                },
                {
                    "name": "C#4",
                    "midi": 61,
                    "time": 74.85715533333325,
                    "velocity": 0.4566929133858268,
                    "duration": 0.2857143333333312
                },
                {
                    "name": "F4",
                    "midi": 65,
                    "time": 74.85715533333325,
                    "velocity": 0.4566929133858268,
                    "duration": 0.2857143333333312
                },
                {
                    "name": "A#4",
                    "midi": 70,
                    "time": 75.14286966666658,
                    "velocity": 0.4566929133858268,
                    "duration": 0.21428575000000194
                },
                {
                    "name": "C#4",
                    "midi": 61,
                    "time": 75.14286966666658,
                    "velocity": 0.4566929133858268,
                    "duration": 0.21428575000000194
                },
                {
                    "name": "F4",
                    "midi": 65,
                    "time": 75.14286966666658,
                    "velocity": 0.4566929133858268,
                    "duration": 0.21428575000000194
                },
                {
                    "name": "A#4",
                    "midi": 70,
                    "time": 75.42858399999992,
                    "velocity": 0.5196850393700787,
                    "duration": 0.8571429999999935
                },
                {
                    "name": "C4",
                    "midi": 60,
                    "time": 75.42858399999992,
                    "velocity": 0.5196850393700787,
                    "duration": 1.714285999999987
                },
                {
                    "name": "F4",
                    "midi": 65,
                    "time": 75.42858399999992,
                    "velocity": 0.5196850393700787,
                    "duration": 1.714285999999987
                },
                {
                    "name": "G#4",
                    "midi": 68,
                    "time": 76.28572699999991,
                    "velocity": 0.4881889763779528,
                    "duration": 0.8571429999999935
                },
                {
                    "name": "A#3",
                    "midi": 58,
                    "time": 77.1428699999999,
                    "velocity": 0.5354330708661418,
                    "duration": 0.2857143333333312
                },
                {
                    "name": "C#3",
                    "midi": 49,
                    "time": 77.1428699999999,
                    "velocity": 0.44881889763779526,
                    "duration": 0.2857143333333312
                },
                {
                    "name": "F#3",
                    "midi": 54,
                    "time": 77.1428699999999,
                    "velocity": 0.44881889763779526,
                    "duration": 0.2857143333333312
                },
                {
                    "name": "C#4",
                    "midi": 61,
                    "time": 77.42858433333323,
                    "velocity": 0.47244094488188976,
                    "duration": 0.2857143333333312
                },
                {
                    "name": "A#3",
                    "midi": 58,
                    "time": 77.42858433333323,
                    "velocity": 0.4015748031496063,
                    "duration": 0.2857143333333312
                },
                {
                    "name": "F#3",
                    "midi": 54,
                    "time": 77.42858433333323,
                    "velocity": 0.4015748031496063,
                    "duration": 0.2857143333333312
                },
                {
                    "name": "C#4",
                    "midi": 61,
                    "time": 77.71429866666656,
                    "velocity": 0.47244094488188976,
                    "duration": 0.21428575000000194
                },
                {
                    "name": "A#3",
                    "midi": 58,
                    "time": 77.71429866666656,
                    "velocity": 0.4015748031496063,
                    "duration": 0.21428575000000194
                },
                {
                    "name": "F#3",
                    "midi": 54,
                    "time": 77.71429866666656,
                    "velocity": 0.4015748031496063,
                    "duration": 0.21428575000000194
                },
                {
                    "name": "C#4",
                    "midi": 61,
                    "time": 78.0000129999999,
                    "velocity": 0.5275590551181102,
                    "duration": 0.2857143333333312
                },
                {
                    "name": "F#3",
                    "midi": 54,
                    "time": 78.0000129999999,
                    "velocity": 0.4409448818897638,
                    "duration": 0.2857143333333312
                },
                {
                    "name": "A#3",
                    "midi": 58,
                    "time": 78.0000129999999,
                    "velocity": 0.4409448818897638,
                    "duration": 0.2857143333333312
                },
                {
                    "name": "A#3",
                    "midi": 58,
                    "time": 78.28572733333323,
                    "velocity": 0.3858267716535433,
                    "duration": 0.2857143333333312
                },
                {
                    "name": "C#4",
                    "midi": 61,
                    "time": 78.28572733333323,
                    "velocity": 0.3858267716535433,
                    "duration": 0.2857143333333312
                },
                {
                    "name": "F#4",
                    "midi": 66,
                    "time": 78.28572733333323,
                    "velocity": 0.4566929133858268,
                    "duration": 0.2857143333333312
                },
                {
                    "name": "A#3",
                    "midi": 58,
                    "time": 78.57144166666656,
                    "velocity": 0.3858267716535433,
                    "duration": 0.21428575000000194
                },
                {
                    "name": "C#4",
                    "midi": 61,
                    "time": 78.57144166666656,
                    "velocity": 0.3858267716535433,
                    "duration": 0.21428575000000194
                },
                {
                    "name": "F#4",
                    "midi": 66,
                    "time": 78.57144166666656,
                    "velocity": 0.4566929133858268,
                    "duration": 0.21428575000000194
                },
                {
                    "name": "F#4",
                    "midi": 66,
                    "time": 78.85715599999989,
                    "velocity": 0.5511811023622047,
                    "duration": 0.2857143333333312
                },
                {
                    "name": "A#3",
                    "midi": 58,
                    "time": 78.85715599999989,
                    "velocity": 0.4645669291338583,
                    "duration": 0.2857143333333312
                },
                {
                    "name": "C#4",
                    "midi": 61,
                    "time": 78.85715599999989,
                    "velocity": 0.4645669291338583,
                    "duration": 0.2857143333333312
                },
                {
                    "name": "A#4",
                    "midi": 70,
                    "time": 79.14287033333322,
                    "velocity": 0.5196850393700787,
                    "duration": 0.2857143333333312
                },
                {
                    "name": "C#4",
                    "midi": 61,
                    "time": 79.14287033333322,
                    "velocity": 0.4409448818897638,
                    "duration": 0.2857143333333312
                },
                {
                    "name": "F#4",
                    "midi": 66,
                    "time": 79.14287033333322,
                    "velocity": 0.4409448818897638,
                    "duration": 0.2857143333333312
                },
                {
                    "name": "A#4",
                    "midi": 70,
                    "time": 79.42858466666655,
                    "velocity": 0.5196850393700787,
                    "duration": 0.21428575000000194
                },
                {
                    "name": "C#4",
                    "midi": 61,
                    "time": 79.42858466666655,
                    "velocity": 0.4409448818897638,
                    "duration": 0.21428575000000194
                },
                {
                    "name": "F#4",
                    "midi": 66,
                    "time": 79.42858466666655,
                    "velocity": 0.4409448818897638,
                    "duration": 0.21428575000000194
                },
                {
                    "name": "F#4",
                    "midi": 66,
                    "time": 79.71429899999988,
                    "velocity": 0.49606299212598426,
                    "duration": 0.2857143333333312
                },
                {
                    "name": "A#4",
                    "midi": 70,
                    "time": 79.71429899999988,
                    "velocity": 0.5905511811023622,
                    "duration": 0.2857143333333312
                },
                {
                    "name": "C#4",
                    "midi": 61,
                    "time": 79.71429899999988,
                    "velocity": 0.49606299212598426,
                    "duration": 0.2857143333333312
                },
                {
                    "name": "A#4",
                    "midi": 70,
                    "time": 80.00001333333321,
                    "velocity": 0.47244094488188976,
                    "duration": 0.2857143333333312
                },
                {
                    "name": "C#5",
                    "midi": 73,
                    "time": 80.00001333333321,
                    "velocity": 0.5590551181102362,
                    "duration": 0.2857143333333312
                },
                {
                    "name": "F#4",
                    "midi": 66,
                    "time": 80.00001333333321,
                    "velocity": 0.47244094488188976,
                    "duration": 0.2857143333333312
                },
                {
                    "name": "A#4",
                    "midi": 70,
                    "time": 80.28572766666655,
                    "velocity": 0.4881889763779528,
                    "duration": 0.21428575000000194
                },
                {
                    "name": "C#5",
                    "midi": 73,
                    "time": 80.28572766666655,
                    "velocity": 0.5826771653543307,
                    "duration": 0.21428575000000194
                },
                {
                    "name": "F#4",
                    "midi": 66,
                    "time": 80.28572766666655,
                    "velocity": 0.4881889763779528,
                    "duration": 0.21428575000000194
                },
                {
                    "name": "A#4",
                    "midi": 70,
                    "time": 80.57144199999988,
                    "velocity": 0.5354330708661418,
                    "duration": 0.2857143333333312
                },
                {
                    "name": "C#5",
                    "midi": 73,
                    "time": 80.57144199999988,
                    "velocity": 0.6377952755905512,
                    "duration": 0.2857143333333312
                },
                {
                    "name": "F#4",
                    "midi": 66,
                    "time": 80.57144199999988,
                    "velocity": 0.5354330708661418,
                    "duration": 0.2857143333333312
                },
                {
                    "name": "C#5",
                    "midi": 73,
                    "time": 80.85715633333321,
                    "velocity": 0.48031496062992124,
                    "duration": 0.2857143333333312
                },
                {
                    "name": "F#5",
                    "midi": 78,
                    "time": 80.85715633333321,
                    "velocity": 0.5669291338582677,
                    "duration": 0.2857143333333312
                },
                {
                    "name": "A#4",
                    "midi": 70,
                    "time": 80.85715633333321,
                    "velocity": 0.48031496062992124,
                    "duration": 0.2857143333333312
                },
                {
                    "name": "C#5",
                    "midi": 73,
                    "time": 81.14287066666654,
                    "velocity": 0.49606299212598426,
                    "duration": 0.21428575000000194
                },
                {
                    "name": "F#5",
                    "midi": 78,
                    "time": 81.14287066666654,
                    "velocity": 0.5905511811023622,
                    "duration": 0.21428575000000194
                },
                {
                    "name": "A#4",
                    "midi": 70,
                    "time": 81.14287066666654,
                    "velocity": 0.49606299212598426,
                    "duration": 0.21428575000000194
                },
                {
                    "name": "A#4",
                    "midi": 70,
                    "time": 81.42858499999987,
                    "velocity": 0.5590551181102362,
                    "duration": 0.2857143333333312
                },
                {
                    "name": "C#5",
                    "midi": 73,
                    "time": 81.42858499999987,
                    "velocity": 0.5590551181102362,
                    "duration": 0.2857143333333312
                },
                {
                    "name": "F#5",
                    "midi": 78,
                    "time": 81.42858499999987,
                    "velocity": 0.6614173228346457,
                    "duration": 0.2857143333333312
                },
                {
                    "name": "A#5",
                    "midi": 82,
                    "time": 81.7142993333332,
                    "velocity": 0.6141732283464567,
                    "duration": 0.2857143333333312
                },
                {
                    "name": "A#4",
                    "midi": 70,
                    "time": 81.7142993333332,
                    "velocity": 0.5196850393700787,
                    "duration": 0.2857143333333312
                },
                {
                    "name": "C#5",
                    "midi": 73,
                    "time": 81.7142993333332,
                    "velocity": 0.5196850393700787,
                    "duration": 0.2857143333333312
                },
                {
                    "name": "F#5",
                    "midi": 78,
                    "time": 81.7142993333332,
                    "velocity": 0.6141732283464567,
                    "duration": 0.2857143333333312
                },
                {
                    "name": "F#5",
                    "midi": 78,
                    "time": 82.00001366666653,
                    "velocity": 0.6141732283464567,
                    "duration": 0.21428575000000194
                },
                {
                    "name": "A#4",
                    "midi": 70,
                    "time": 82.00001366666653,
                    "velocity": 0.5196850393700787,
                    "duration": 0.21428575000000194
                },
                {
                    "name": "C#5",
                    "midi": 73,
                    "time": 82.00001366666653,
                    "velocity": 0.5196850393700787,
                    "duration": 0.21428575000000194
                },
                {
                    "name": "A#5",
                    "midi": 82,
                    "time": 82.00001366666653,
                    "velocity": 0.6141732283464567,
                    "duration": 0.21428575000000194
                },
                {
                    "name": "G#5",
                    "midi": 80,
                    "time": 82.28572799999986,
                    "velocity": 0.7480314960629921,
                    "duration": 0.8571429999999935
                },
                {
                    "name": "C#5",
                    "midi": 73,
                    "time": 82.28572799999986,
                    "velocity": 0.6299212598425197,
                    "duration": 0.8571429999999935
                },
                {
                    "name": "C#6",
                    "midi": 85,
                    "time": 82.28572799999986,
                    "velocity": 0.7480314960629921,
                    "duration": 0.8571429999999935
                },
                {
                    "name": "C#5",
                    "midi": 73,
                    "time": 83.14287099999986,
                    "velocity": 0.5826771653543307,
                    "duration": 0.2857143333333312
                },
                {
                    "name": "B5",
                    "midi": 83,
                    "time": 83.14287099999986,
                    "velocity": 0.6929133858267716,
                    "duration": 0.2857143333333312
                },
                {
                    "name": "B4",
                    "midi": 71,
                    "time": 83.14287099999986,
                    "velocity": 0.5826771653543307,
                    "duration": 0.2857143333333312
                },
                {
                    "name": "G#5",
                    "midi": 80,
                    "time": 83.14287099999986,
                    "velocity": 0.6929133858267716,
                    "duration": 0.2857143333333312
                },
                {
                    "name": "C#5",
                    "midi": 73,
                    "time": 83.42858533333319,
                    "velocity": 0.5196850393700787,
                    "duration": 0.2857143333333312
                },
                {
                    "name": "A#4",
                    "midi": 70,
                    "time": 83.42858533333319,
                    "velocity": 0.5196850393700787,
                    "duration": 0.2857143333333312
                },
                {
                    "name": "A#5",
                    "midi": 82,
                    "time": 83.42858533333319,
                    "velocity": 0.6141732283464567,
                    "duration": 0.2857143333333312
                },
                {
                    "name": "F#5",
                    "midi": 78,
                    "time": 83.42858533333319,
                    "velocity": 0.6141732283464567,
                    "duration": 0.2857143333333312
                },
                {
                    "name": "A#4",
                    "midi": 70,
                    "time": 83.71429966666652,
                    "velocity": 0.5196850393700787,
                    "duration": 0.21428575000000194
                },
                {
                    "name": "F#5",
                    "midi": 78,
                    "time": 83.71429966666652,
                    "velocity": 0.6141732283464567,
                    "duration": 0.21428575000000194
                },
                {
                    "name": "C#5",
                    "midi": 73,
                    "time": 83.71429966666652,
                    "velocity": 0.5196850393700787,
                    "duration": 0.21428575000000194
                },
                {
                    "name": "A#5",
                    "midi": 82,
                    "time": 83.71429966666652,
                    "velocity": 0.6141732283464567,
                    "duration": 0.21428575000000194
                },
                {
                    "name": "C#6",
                    "midi": 85,
                    "time": 84.00001399999985,
                    "velocity": 0.7480314960629921,
                    "duration": 0.8571429999999935
                },
                {
                    "name": "C#5",
                    "midi": 73,
                    "time": 84.00001399999985,
                    "velocity": 0.6299212598425197,
                    "duration": 0.8571429999999935
                },
                {
                    "name": "G#5",
                    "midi": 80,
                    "time": 84.00001399999985,
                    "velocity": 0.7480314960629921,
                    "duration": 0.8571429999999935
                },
                {
                    "name": "B5",
                    "midi": 83,
                    "time": 84.85715699999984,
                    "velocity": 0.6929133858267716,
                    "duration": 0.2857143333333312
                },
                {
                    "name": "B4",
                    "midi": 71,
                    "time": 84.85715699999984,
                    "velocity": 0.5826771653543307,
                    "duration": 0.2857143333333312
                },
                {
                    "name": "C#5",
                    "midi": 73,
                    "time": 84.85715699999984,
                    "velocity": 0.5826771653543307,
                    "duration": 0.2857143333333312
                },
                {
                    "name": "G#5",
                    "midi": 80,
                    "time": 84.85715699999984,
                    "velocity": 0.6929133858267716,
                    "duration": 0.2857143333333312
                },
                {
                    "name": "C#5",
                    "midi": 73,
                    "time": 85.14287133333318,
                    "velocity": 0.5196850393700787,
                    "duration": 0.2857143333333312
                },
                {
                    "name": "F#5",
                    "midi": 78,
                    "time": 85.14287133333318,
                    "velocity": 0.6141732283464567,
                    "duration": 0.2857143333333312
                },
                {
                    "name": "A#5",
                    "midi": 82,
                    "time": 85.14287133333318,
                    "velocity": 0.6141732283464567,
                    "duration": 0.2857143333333312
                },
                {
                    "name": "A#4",
                    "midi": 70,
                    "time": 85.14287133333318,
                    "velocity": 0.5196850393700787,
                    "duration": 0.2857143333333312
                },
                {
                    "name": "A#4",
                    "midi": 70,
                    "time": 85.4285856666665,
                    "velocity": 0.5196850393700787,
                    "duration": 0.21428575000000194
                },
                {
                    "name": "F#5",
                    "midi": 78,
                    "time": 85.4285856666665,
                    "velocity": 0.6141732283464567,
                    "duration": 0.21428575000000194
                },
                {
                    "name": "A#5",
                    "midi": 82,
                    "time": 85.4285856666665,
                    "velocity": 0.6141732283464567,
                    "duration": 0.21428575000000194
                },
                {
                    "name": "C#5",
                    "midi": 73,
                    "time": 85.4285856666665,
                    "velocity": 0.5196850393700787,
                    "duration": 0.21428575000000194
                },
                {
                    "name": "E6",
                    "midi": 88,
                    "time": 85.71429999999984,
                    "velocity": 0.7952755905511811,
                    "duration": 0.8571429999999935
                },
                {
                    "name": "A#5",
                    "midi": 82,
                    "time": 85.71429999999984,
                    "velocity": 0.7952755905511811,
                    "duration": 0.8571429999999935
                },
                {
                    "name": "E5",
                    "midi": 76,
                    "time": 85.71429999999984,
                    "velocity": 0.6692913385826772,
                    "duration": 0.8571429999999935
                },
                {
                    "name": "D6",
                    "midi": 86,
                    "time": 86.57144299999983,
                    "velocity": 0.7716535433070866,
                    "duration": 0.2857143333333312
                },
                {
                    "name": "D5",
                    "midi": 74,
                    "time": 86.57144299999983,
                    "velocity": 0.6535433070866141,
                    "duration": 0.2857143333333312
                },
                {
                    "name": "A#5",
                    "midi": 82,
                    "time": 86.57144299999983,
                    "velocity": 0.7716535433070866,
                    "duration": 0.2857143333333312
                },
                {
                    "name": "A#5",
                    "midi": 82,
                    "time": 86.85715733333316,
                    "velocity": 0.7244094488188977,
                    "duration": 0.2857143333333312
                },
                {
                    "name": "D#5",
                    "midi": 75,
                    "time": 86.85715733333316,
                    "velocity": 0.6141732283464567,
                    "duration": 0.2857143333333312
                },
                {
                    "name": "D#6",
                    "midi": 87,
                    "time": 86.85715733333316,
                    "velocity": 0.7244094488188977,
                    "duration": 0.2857143333333312
                },
                {
                    "name": "A#5",
                    "midi": 82,
                    "time": 87.1428716666665,
                    "velocity": 0.7244094488188977,
                    "duration": 0.21428575000000194
                },
                {
                    "name": "D#5",
                    "midi": 75,
                    "time": 87.1428716666665,
                    "velocity": 0.6141732283464567,
                    "duration": 0.21428575000000194
                },
                {
                    "name": "D#6",
                    "midi": 87,
                    "time": 87.1428716666665,
                    "velocity": 0.7244094488188977,
                    "duration": 0.21428575000000194
                },
                {
                    "name": "E6",
                    "midi": 88,
                    "time": 87.42858599999983,
                    "velocity": 0.7952755905511811,
                    "duration": 0.8571429999999935
                },
                {
                    "name": "A#5",
                    "midi": 82,
                    "time": 87.42858599999983,
                    "velocity": 0.7952755905511811,
                    "duration": 0.8571429999999935
                },
                {
                    "name": "E5",
                    "midi": 76,
                    "time": 87.42858599999983,
                    "velocity": 0.6692913385826772,
                    "duration": 0.8571429999999935
                },
                {
                    "name": "D6",
                    "midi": 86,
                    "time": 88.28572899999982,
                    "velocity": 0.7716535433070866,
                    "duration": 0.2857143333333312
                },
                {
                    "name": "D5",
                    "midi": 74,
                    "time": 88.28572899999982,
                    "velocity": 0.6535433070866141,
                    "duration": 0.2857143333333312
                },
                {
                    "name": "A#5",
                    "midi": 82,
                    "time": 88.28572899999982,
                    "velocity": 0.7716535433070866,
                    "duration": 0.2857143333333312
                },
                {
                    "name": "A#5",
                    "midi": 82,
                    "time": 88.57144333333315,
                    "velocity": 0.7244094488188977,
                    "duration": 0.2857143333333312
                },
                {
                    "name": "D#5",
                    "midi": 75,
                    "time": 88.57144333333315,
                    "velocity": 0.6141732283464567,
                    "duration": 0.2857143333333312
                },
                {
                    "name": "D#6",
                    "midi": 87,
                    "time": 88.57144333333315,
                    "velocity": 0.7244094488188977,
                    "duration": 0.2857143333333312
                },
                {
                    "name": "A#5",
                    "midi": 82,
                    "time": 88.85715766666648,
                    "velocity": 0.7244094488188977,
                    "duration": 0.21428575000000194
                },
                {
                    "name": "D#5",
                    "midi": 75,
                    "time": 88.85715766666648,
                    "velocity": 0.6141732283464567,
                    "duration": 0.21428575000000194
                },
                {
                    "name": "D#6",
                    "midi": 87,
                    "time": 88.85715766666648,
                    "velocity": 0.7244094488188977,
                    "duration": 0.21428575000000194
                },
                {
                    "name": "A#5",
                    "midi": 82,
                    "time": 89.14287199999981,
                    "velocity": 0.7244094488188977,
                    "duration": 0.8571429999999935
                },
                {
                    "name": "E5",
                    "midi": 76,
                    "time": 89.14287199999981,
                    "velocity": 0.6141732283464567,
                    "duration": 0.8571429999999935
                },
                {
                    "name": "E6",
                    "midi": 88,
                    "time": 89.14287199999981,
                    "velocity": 0.7244094488188977,
                    "duration": 0.8571429999999935
                },
                {
                    "name": "E5",
                    "midi": 76,
                    "time": 90.0000149999998,
                    "velocity": 0.6220472440944882,
                    "duration": 0.8571429999999935
                },
                {
                    "name": "E6",
                    "midi": 88,
                    "time": 90.0000149999998,
                    "velocity": 0.7401574803149606,
                    "duration": 0.8571429999999935
                },
                {
                    "name": "A#5",
                    "midi": 82,
                    "time": 90.0000149999998,
                    "velocity": 0.7401574803149606,
                    "duration": 0.8571429999999935
                },
                {
                    "name": "E5",
                    "midi": 76,
                    "time": 90.8571579999998,
                    "velocity": 0.6456692913385826,
                    "duration": 0.8571429999999935
                },
                {
                    "name": "E6",
                    "midi": 88,
                    "time": 90.8571579999998,
                    "velocity": 0.7637795275590551,
                    "duration": 0.8571429999999935
                },
                {
                    "name": "A#5",
                    "midi": 82,
                    "time": 90.8571579999998,
                    "velocity": 0.7637795275590551,
                    "duration": 0.8571429999999935
                },
                {
                    "name": "E5",
                    "midi": 76,
                    "time": 91.7143009999998,
                    "velocity": 0.6692913385826772,
                    "duration": 0.8571429999999935
                },
                {
                    "name": "E6",
                    "midi": 88,
                    "time": 91.7143009999998,
                    "velocity": 0.7874015748031497,
                    "duration": 0.8571429999999935
                },
                {
                    "name": "A#5",
                    "midi": 82,
                    "time": 91.7143009999998,
                    "velocity": 0.7874015748031497,
                    "duration": 0.8571429999999935
                },
                {
                    "name": "B5",
                    "midi": 83,
                    "time": 92.57144399999979,
                    "velocity": 0.7086614173228346,
                    "duration": 0.8571429999999935
                },
                {
                    "name": "F5",
                    "midi": 77,
                    "time": 92.57144399999979,
                    "velocity": 0.7086614173228346,
                    "duration": 0.8571429999999935
                },
                {
                    "name": "D6",
                    "midi": 86,
                    "time": 92.57144399999979,
                    "velocity": 0.8346456692913385,
                    "duration": 0.8571429999999935
                },
                {
                    "name": "F6",
                    "midi": 89,
                    "time": 92.57144399999979,
                    "velocity": 0.8346456692913385,
                    "duration": 0.8571429999999935
                },
                {
                    "name": "D6",
                    "midi": 86,
                    "time": 93.42858699999978,
                    "velocity": 0.8346456692913385,
                    "duration": 0.8571429999999935
                },
                {
                    "name": "F6",
                    "midi": 89,
                    "time": 93.42858699999978,
                    "velocity": 0.8346456692913385,
                    "duration": 0.8571429999999935
                },
                {
                    "name": "B5",
                    "midi": 83,
                    "time": 93.42858699999978,
                    "velocity": 0.7086614173228346,
                    "duration": 0.8571429999999935
                },
                {
                    "name": "F5",
                    "midi": 77,
                    "time": 93.42858699999978,
                    "velocity": 0.7086614173228346,
                    "duration": 0.8571429999999935
                },
                {
                    "name": "F#6",
                    "midi": 90,
                    "time": 94.28572999999977,
                    "velocity": 0.8740157480314961,
                    "duration": 0.8571429999999935
                },
                {
                    "name": "A5",
                    "midi": 81,
                    "time": 94.28572999999977,
                    "velocity": 0.7401574803149606,
                    "duration": 0.8571429999999935
                },
                {
                    "name": "D#6",
                    "midi": 87,
                    "time": 94.28572999999977,
                    "velocity": 0.8740157480314961,
                    "duration": 0.8571429999999935
                },
                {
                    "name": "C6",
                    "midi": 84,
                    "time": 94.28572999999977,
                    "velocity": 0.7401574803149606,
                    "duration": 0.8571429999999935
                },
                {
                    "name": "F#5",
                    "midi": 78,
                    "time": 94.28572999999977,
                    "velocity": 0.7401574803149606,
                    "duration": 0.8571429999999935
                },
                {
                    "name": "D#6",
                    "midi": 87,
                    "time": 95.14287299999977,
                    "velocity": 0.8818897637795275,
                    "duration": 0.8571429999999935
                },
                {
                    "name": "C6",
                    "midi": 84,
                    "time": 95.14287299999977,
                    "velocity": 0.7480314960629921,
                    "duration": 0.8571429999999935
                },
                {
                    "name": "F#5",
                    "midi": 78,
                    "time": 95.14287299999977,
                    "velocity": 0.7480314960629921,
                    "duration": 0.8571429999999935
                },
                {
                    "name": "A5",
                    "midi": 81,
                    "time": 95.14287299999977,
                    "velocity": 0.7480314960629921,
                    "duration": 0.8571429999999935
                },
                {
                    "name": "F#6",
                    "midi": 90,
                    "time": 95.14287299999977,
                    "velocity": 0.8818897637795275,
                    "duration": 0.8571429999999935
                },
                {
                    "name": "G6",
                    "midi": 91,
                    "time": 96.00001599999976,
                    "velocity": 0.889763779527559,
                    "duration": 0.21428575000000194
                },
                {
                    "name": "G5",
                    "midi": 79,
                    "time": 96.00001599999976,
                    "velocity": 0.7559055118110236,
                    "duration": 0.21428575000000194
                },
                {
                    "name": "D6",
                    "midi": 86,
                    "time": 96.00001599999976,
                    "velocity": 0.889763779527559,
                    "duration": 0.21428575000000194
                },
                {
                    "name": "B5",
                    "midi": 83,
                    "time": 96.00001599999976,
                    "velocity": 0.7559055118110236,
                    "duration": 0.21428575000000194
                },
                {
                    "name": "G5",
                    "midi": 79,
                    "time": 96.28573033333309,
                    "velocity": 0.6771653543307087,
                    "duration": 0.21428575000000194
                },
                {
                    "name": "G5",
                    "midi": 79,
                    "time": 96.57144466666642,
                    "velocity": 0.5669291338582677,
                    "duration": 0.21428575000000194
                },
                {
                    "name": "G4",
                    "midi": 67,
                    "time": 96.85715899999975,
                    "velocity": 0.6377952755905512,
                    "duration": 0.2857143333333312
                },
                {
                    "name": "G5",
                    "midi": 79,
                    "time": 97.14287333333309,
                    "velocity": 0.5433070866141733,
                    "duration": 0.2857143333333312
                },
                {
                    "name": "G5",
                    "midi": 79,
                    "time": 97.42858766666642,
                    "velocity": 0.48031496062992124,
                    "duration": 0.21428575000000194
                },
                {
                    "name": "G4",
                    "midi": 67,
                    "time": 97.71430199999975,
                    "velocity": 0.48031496062992124,
                    "duration": 0.2857143333333312
                },
                {
                    "name": "G5",
                    "midi": 79,
                    "time": 98.00001633333308,
                    "velocity": 0.4251968503937008,
                    "duration": 0.2857143333333312
                },
                {
                    "name": "G5",
                    "midi": 79,
                    "time": 98.28573066666641,
                    "velocity": 0.3543307086614173,
                    "duration": 0.21428575000000194
                },
                {
                    "name": "G4",
                    "midi": 67,
                    "time": 98.57144499999974,
                    "velocity": 0.4645669291338583,
                    "duration": 0.2857143333333312
                },
                {
                    "name": "G5",
                    "midi": 79,
                    "time": 98.85715933333307,
                    "velocity": 0.3937007874015748,
                    "duration": 0.2857143333333312
                },
                {
                    "name": "G5",
                    "midi": 79,
                    "time": 99.1428736666664,
                    "velocity": 0.3543307086614173,
                    "duration": 0.21428575000000194
                },
                {
                    "name": "G4",
                    "midi": 67,
                    "time": 99.42858799999973,
                    "velocity": 0.4409448818897638,
                    "duration": 0.2857143333333312
                },
                {
                    "name": "G5",
                    "midi": 79,
                    "time": 99.71430233333307,
                    "velocity": 0.3543307086614173,
                    "duration": 0.2857143333333312
                },
                {
                    "name": "G5",
                    "midi": 79,
                    "time": 100.0000166666664,
                    "velocity": 0.3543307086614173,
                    "duration": 0.21428575000000194
                },
                {
                    "name": "G4",
                    "midi": 67,
                    "time": 100.28573099999973,
                    "velocity": 0.4251968503937008,
                    "duration": 0.2857143333333312
                },
                {
                    "name": "G5",
                    "midi": 79,
                    "time": 100.57144533333306,
                    "velocity": 0.33070866141732286,
                    "duration": 0.2857143333333312
                },
                {
                    "name": "G5",
                    "midi": 79,
                    "time": 100.85715966666639,
                    "velocity": 0.33858267716535434,
                    "duration": 0.21428575000000194
                },
                {
                    "name": "G4",
                    "midi": 67,
                    "time": 101.14287399999972,
                    "velocity": 0.3937007874015748,
                    "duration": 0.2857143333333312
                },
                {
                    "name": "G5",
                    "midi": 79,
                    "time": 101.42858833333305,
                    "velocity": 0.30708661417322836,
                    "duration": 0.2857143333333312
                },
                {
                    "name": "G5",
                    "midi": 79,
                    "time": 101.71430266666638,
                    "velocity": 0.30708661417322836,
                    "duration": 0.21428575000000194
                },
                {
                    "name": "G4",
                    "midi": 67,
                    "time": 102.00001699999972,
                    "velocity": 0.3937007874015748,
                    "duration": 0.2857143333333312
                },
                {
                    "name": "G5",
                    "midi": 79,
                    "time": 102.28573133333305,
                    "velocity": 0.31496062992125984,
                    "duration": 0.2857143333333312
                },
                {
                    "name": "G5",
                    "midi": 79,
                    "time": 102.57144566666638,
                    "velocity": 0.30708661417322836,
                    "duration": 0.21428575000000194
                },
                {
                    "name": "E5",
                    "midi": 76,
                    "time": 102.85715999999971,
                    "velocity": 0.3779527559055118,
                    "duration": 0.2857143333333312
                },
                {
                    "name": "G5",
                    "midi": 79,
                    "time": 103.14287433333304,
                    "velocity": 0.31496062992125984,
                    "duration": 0.2857143333333312
                },
                {
                    "name": "G5",
                    "midi": 79,
                    "time": 103.42858866666637,
                    "velocity": 0.31496062992125984,
                    "duration": 0.21428575000000194
                },
                {
                    "name": "G5",
                    "midi": 79,
                    "time": 103.7143029999997,
                    "velocity": 0.3937007874015748,
                    "duration": 0.2857143333333312
                },
                {
                    "name": "C6",
                    "midi": 84,
                    "time": 104.00001733333303,
                    "velocity": 0.30708661417322836,
                    "duration": 0.2857143333333312
                },
                {
                    "name": "C6",
                    "midi": 84,
                    "time": 104.28573166666636,
                    "velocity": 0.30708661417322836,
                    "duration": 0.21428575000000194
                },
                {
                    "name": "C6",
                    "midi": 84,
                    "time": 104.5714459999997,
                    "velocity": 0.3779527559055118,
                    "duration": 0.2857143333333312
                },
                {
                    "name": "E6",
                    "midi": 88,
                    "time": 104.85716033333303,
                    "velocity": 0.30708661417322836,
                    "duration": 0.2857143333333312
                },
                {
                    "name": "E6",
                    "midi": 88,
                    "time": 105.14287466666636,
                    "velocity": 0.30708661417322836,
                    "duration": 0.21428575000000194
                },
                {
                    "name": "E6",
                    "midi": 88,
                    "time": 105.42858899999969,
                    "velocity": 0.4251968503937008,
                    "duration": 0.2857143333333312
                },
                {
                    "name": "A6",
                    "midi": 93,
                    "time": 105.71430333333302,
                    "velocity": 0.33858267716535434,
                    "duration": 0.2857143333333312
                },
                {
                    "name": "A6",
                    "midi": 93,
                    "time": 106.00001766666635,
                    "velocity": 0.33070866141732286,
                    "duration": 0.21428575000000194
                },
                {
                    "name": "A6",
                    "midi": 93,
                    "time": 106.28573199999968,
                    "velocity": 0.4251968503937008,
                    "duration": 0.2857143333333312
                },
                {
                    "name": "G6",
                    "midi": 91,
                    "time": 106.57144633333301,
                    "velocity": 0.3464566929133858,
                    "duration": 0.2857143333333312
                },
                {
                    "name": "G6",
                    "midi": 91,
                    "time": 106.85716066666635,
                    "velocity": 0.3228346456692913,
                    "duration": 0.21428575000000194
                },
                {
                    "name": "G6",
                    "midi": 91,
                    "time": 107.14287499999968,
                    "velocity": 0.4015748031496063,
                    "duration": 0.2857143333333312
                },
                {
                    "name": "F6",
                    "midi": 89,
                    "time": 107.42858933333301,
                    "velocity": 0.33070866141732286,
                    "duration": 0.2857143333333312
                },
                {
                    "name": "F6",
                    "midi": 89,
                    "time": 107.71430366666634,
                    "velocity": 0.33070866141732286,
                    "duration": 0.21428575000000194
                },
                {
                    "name": "F6",
                    "midi": 89,
                    "time": 108.00001799999967,
                    "velocity": 0.3937007874015748,
                    "duration": 0.2857143333333312
                },
                {
                    "name": "D6",
                    "midi": 86,
                    "time": 108.285732333333,
                    "velocity": 0.33070866141732286,
                    "duration": 0.2857143333333312
                },
                {
                    "name": "D6",
                    "midi": 86,
                    "time": 108.57144666666633,
                    "velocity": 0.33070866141732286,
                    "duration": 0.21428575000000194
                },
                {
                    "name": "D6",
                    "midi": 86,
                    "time": 108.85716099999966,
                    "velocity": 0.3779527559055118,
                    "duration": 0.2857143333333312
                },
                {
                    "name": "E6",
                    "midi": 88,
                    "time": 109.142875333333,
                    "velocity": 0.33070866141732286,
                    "duration": 0.2857143333333312
                },
                {
                    "name": "E6",
                    "midi": 88,
                    "time": 109.42858966666633,
                    "velocity": 0.33070866141732286,
                    "duration": 0.21428575000000194
                },
                {
                    "name": "E5",
                    "midi": 76,
                    "time": 109.71430399999966,
                    "velocity": 0.3779527559055118,
                    "duration": 0.2857143333333312
                },
                {
                    "name": "C6",
                    "midi": 84,
                    "time": 110.00001833333299,
                    "velocity": 0.33858267716535434,
                    "duration": 0.2857143333333312
                },
                {
                    "name": "C6",
                    "midi": 84,
                    "time": 110.28573266666632,
                    "velocity": 0.33858267716535434,
                    "duration": 0.21428575000000194
                },
                {
                    "name": "D6",
                    "midi": 86,
                    "time": 110.57144699999965,
                    "velocity": 0.3779527559055118,
                    "duration": 0.2857143333333312
                },
                {
                    "name": "C6",
                    "midi": 84,
                    "time": 110.85716133333298,
                    "velocity": 0.33070866141732286,
                    "duration": 0.2857143333333312
                },
                {
                    "name": "C6",
                    "midi": 84,
                    "time": 111.14287566666631,
                    "velocity": 0.33070866141732286,
                    "duration": 0.21428575000000194
                },
                {
                    "name": "B5",
                    "midi": 83,
                    "time": 111.42858999999964,
                    "velocity": 0.3779527559055118,
                    "duration": 0.2857143333333312
                },
                {
                    "name": "F6",
                    "midi": 89,
                    "time": 111.71430433333298,
                    "velocity": 0.33858267716535434,
                    "duration": 0.2857143333333312
                },
                {
                    "name": "F6",
                    "midi": 89,
                    "time": 112.0000186666663,
                    "velocity": 0.3464566929133858,
                    "duration": 0.21428575000000194
                },
                {
                    "name": "G6",
                    "midi": 91,
                    "time": 112.28573299999964,
                    "velocity": 0.3779527559055118,
                    "duration": 0.2857143333333312
                },
                {
                    "name": "F6",
                    "midi": 89,
                    "time": 112.57144733333297,
                    "velocity": 0.33070866141732286,
                    "duration": 0.2857143333333312
                },
                {
                    "name": "F6",
                    "midi": 89,
                    "time": 112.8571616666663,
                    "velocity": 0.3228346456692913,
                    "duration": 0.21428575000000194
                },
                {
                    "name": "E6",
                    "midi": 88,
                    "time": 113.14287599999963,
                    "velocity": 0.31496062992125984,
                    "duration": 0.21428575000000194
                },
                {
                    "name": "C5",
                    "midi": 72,
                    "time": 114.00001899999964,
                    "velocity": 0.2047244094488189,
                    "duration": 1.928571749999989
                },
                {
                    "name": "E5",
                    "midi": 76,
                    "time": 114.00001899999964,
                    "velocity": 0.2047244094488189,
                    "duration": 0.6428572500000058
                },
                {
                    "name": "F5",
                    "midi": 77,
                    "time": 114.64287624999965,
                    "velocity": 0.18110236220472442,
                    "duration": 0.10714287499999386
                },
                {
                    "name": "E5",
                    "midi": 76,
                    "time": 114.75001912499964,
                    "velocity": 0.18110236220472442,
                    "duration": 0.10714287499999386
                },
                {
                    "name": "D#5",
                    "midi": 75,
                    "time": 114.85716199999963,
                    "velocity": 0.2283464566929134,
                    "duration": 0.6428572500000058
                },
                {
                    "name": "E5",
                    "midi": 76,
                    "time": 115.50001924999964,
                    "velocity": 0.1732283464566929,
                    "duration": 0.10714287499999386
                },
                {
                    "name": "F5",
                    "midi": 77,
                    "time": 115.60716212499963,
                    "velocity": 0.1732283464566929,
                    "duration": 0.10714287499999386
                },
                {
                    "name": "E5",
                    "midi": 76,
                    "time": 115.71430499999963,
                    "velocity": 0.2047244094488189,
                    "duration": 0.21428575000000194
                },
                {
                    "name": "E5",
                    "midi": 76,
                    "time": 116.57144799999963,
                    "velocity": 0.3779527559055118,
                    "duration": 0.2857143333333312
                },
                {
                    "name": "G5",
                    "midi": 79,
                    "time": 116.85716233333297,
                    "velocity": 0.31496062992125984,
                    "duration": 0.2857143333333312
                },
                {
                    "name": "G5",
                    "midi": 79,
                    "time": 117.1428766666663,
                    "velocity": 0.31496062992125984,
                    "duration": 0.21428575000000194
                },
                {
                    "name": "G5",
                    "midi": 79,
                    "time": 117.42859099999963,
                    "velocity": 0.3937007874015748,
                    "duration": 0.2857143333333312
                },
                {
                    "name": "C6",
                    "midi": 84,
                    "time": 117.71430533333296,
                    "velocity": 0.30708661417322836,
                    "duration": 0.2857143333333312
                },
                {
                    "name": "C6",
                    "midi": 84,
                    "time": 118.00001966666629,
                    "velocity": 0.30708661417322836,
                    "duration": 0.21428575000000194
                },
                {
                    "name": "C6",
                    "midi": 84,
                    "time": 118.28573399999962,
                    "velocity": 0.4094488188976378,
                    "duration": 0.2857143333333312
                },
                {
                    "name": "E6",
                    "midi": 88,
                    "time": 118.57144833333295,
                    "velocity": 0.33858267716535434,
                    "duration": 0.2857143333333312
                },
                {
                    "name": "E6",
                    "midi": 88,
                    "time": 118.85716266666628,
                    "velocity": 0.33858267716535434,
                    "duration": 0.21428575000000194
                },
                {
                    "name": "E6",
                    "midi": 88,
                    "time": 119.14287699999961,
                    "velocity": 0.4409448818897638,
                    "duration": 0.2857143333333312
                },
                {
                    "name": "A6",
                    "midi": 93,
                    "time": 119.42859133333295,
                    "velocity": 0.36220472440944884,
                    "duration": 0.2857143333333312
                },
                {
                    "name": "A6",
                    "midi": 93,
                    "time": 119.71430566666628,
                    "velocity": 0.36220472440944884,
                    "duration": 0.21428575000000194
                },
                {
                    "name": "E5",
                    "midi": 76,
                    "time": 120.00001999999961,
                    "velocity": 0.47244094488188976,
                    "duration": 0.2857143333333312
                },
                {
                    "name": "A5",
                    "midi": 81,
                    "time": 120.28573433333294,
                    "velocity": 0.4409448818897638,
                    "duration": 0.2857143333333312
                },
                {
                    "name": "A5",
                    "midi": 81,
                    "time": 120.57144866666627,
                    "velocity": 0.4094488188976378,
                    "duration": 0.21428575000000194
                },
                {
                    "name": "A5",
                    "midi": 81,
                    "time": 120.8571629999996,
                    "velocity": 0.48031496062992124,
                    "duration": 0.2857143333333312
                },
                {
                    "name": "C6",
                    "midi": 84,
                    "time": 121.14287733333293,
                    "velocity": 0.4330708661417323,
                    "duration": 0.2857143333333312
                },
                {
                    "name": "C6",
                    "midi": 84,
                    "time": 121.42859166666626,
                    "velocity": 0.4330708661417323,
                    "duration": 0.21428575000000194
                },
                {
                    "name": "C6",
                    "midi": 84,
                    "time": 121.7143059999996,
                    "velocity": 0.5354330708661418,
                    "duration": 0.2857143333333312
                },
                {
                    "name": "E6",
                    "midi": 88,
                    "time": 122.00002033333293,
                    "velocity": 0.49606299212598426,
                    "duration": 0.2857143333333312
                },
                {
                    "name": "E6",
                    "midi": 88,
                    "time": 122.28573466666626,
                    "velocity": 0.5039370078740157,
                    "duration": 0.21428575000000194
                },
                {
                    "name": "E6",
                    "midi": 88,
                    "time": 122.57144899999959,
                    "velocity": 0.6850393700787402,
                    "duration": 0.2857143333333312
                },
                {
                    "name": "G#5",
                    "midi": 80,
                    "time": 122.85716333333292,
                    "velocity": 0.5669291338582677,
                    "duration": 0.2857143333333312
                },
                {
                    "name": "F6",
                    "midi": 89,
                    "time": 122.85716333333292,
                    "velocity": 0.5669291338582677,
                    "duration": 0.2857143333333312
                },
                {
                    "name": "F5",
                    "midi": 77,
                    "time": 122.85716333333292,
                    "velocity": 0.5669291338582677,
                    "duration": 0.2857143333333312
                },
                {
                    "name": "G#5",
                    "midi": 80,
                    "time": 123.14287766666625,
                    "velocity": 0.5669291338582677,
                    "duration": 0.21428575000000194
                },
                {
                    "name": "F5",
                    "midi": 77,
                    "time": 123.14287766666625,
                    "velocity": 0.5669291338582677,
                    "duration": 0.21428575000000194
                },
                {
                    "name": "F6",
                    "midi": 89,
                    "time": 123.14287766666625,
                    "velocity": 0.5669291338582677,
                    "duration": 0.21428575000000194
                },
                {
                    "name": "F6",
                    "midi": 89,
                    "time": 123.42859199999958,
                    "velocity": 0.5984251968503937,
                    "duration": 1.7142860000000013
                },
                {
                    "name": "F5",
                    "midi": 77,
                    "time": 123.42859199999958,
                    "velocity": 0.5984251968503937,
                    "duration": 1.7142860000000013
                },
                {
                    "name": "G#5",
                    "midi": 80,
                    "time": 123.42859199999958,
                    "velocity": 0.5984251968503937,
                    "duration": 1.7142860000000013
                },
                {
                    "name": "G5",
                    "midi": 79,
                    "time": 125.14287799999958,
                    "velocity": 0.5118110236220472,
                    "duration": 0.2857143333333312
                },
                {
                    "name": "F6",
                    "midi": 89,
                    "time": 125.42859233333292,
                    "velocity": 0.4566929133858268,
                    "duration": 0.1428571666666727
                },
                {
                    "name": "E6",
                    "midi": 88,
                    "time": 125.71430666666626,
                    "velocity": 0.3858267716535433,
                    "duration": 0.1428571666666727
                },
                {
                    "name": "F5",
                    "midi": 77,
                    "time": 126.0000209999996,
                    "velocity": 0.4566929133858268,
                    "duration": 0.2857143333333312
                },
                {
                    "name": "E6",
                    "midi": 88,
                    "time": 126.28573533333294,
                    "velocity": 0.4015748031496063,
                    "duration": 0.1428571666666727
                },
                {
                    "name": "D6",
                    "midi": 86,
                    "time": 126.57144966666628,
                    "velocity": 0.3779527559055118,
                    "duration": 0.1428571666666727
                },
                {
                    "name": "C6",
                    "midi": 84,
                    "time": 126.85716399999963,
                    "velocity": 0.3937007874015748,
                    "duration": 0.4285715000000039
                },
                {
                    "name": "E5",
                    "midi": 76,
                    "time": 126.85716399999963,
                    "velocity": 0.3937007874015748,
                    "duration": 0.4285715000000039
                },
                {
                    "name": "C5",
                    "midi": 72,
                    "time": 127.71430699999964,
                    "velocity": 0.16535433070866143,
                    "duration": 1.9285717499999606
                },
                {
                    "name": "E5",
                    "midi": 76,
                    "time": 127.71430699999964,
                    "velocity": 0.2047244094488189,
                    "duration": 0.6428572500000058
                },
                {
                    "name": "F5",
                    "midi": 77,
                    "time": 128.35716424999964,
                    "velocity": 0.18110236220472442,
                    "duration": 0.10714287499999386
                },
                {
                    "name": "E5",
                    "midi": 76,
                    "time": 128.46430712499964,
                    "velocity": 0.18110236220472442,
                    "duration": 0.10714287499999386
                },
                {
                    "name": "D#5",
                    "midi": 75,
                    "time": 128.57144999999963,
                    "velocity": 0.2283464566929134,
                    "duration": 0.6428572499999916
                },
                {
                    "name": "E5",
                    "midi": 76,
                    "time": 129.21430724999962,
                    "velocity": 0.1732283464566929,
                    "duration": 0.10714287499999386
                },
                {
                    "name": "F5",
                    "midi": 77,
                    "time": 129.32145012499961,
                    "velocity": 0.1732283464566929,
                    "duration": 0.10714287499999386
                },
                {
                    "name": "E5",
                    "midi": 76,
                    "time": 129.4285929999996,
                    "velocity": 0.2047244094488189,
                    "duration": 0.21428574999998773
                },
                {
                    "name": "G4",
                    "midi": 67,
                    "time": 130.2857359999996,
                    "velocity": 0.3779527559055118,
                    "duration": 0.2857143333333454
                },
                {
                    "name": "C5",
                    "midi": 72,
                    "time": 130.57145033333293,
                    "velocity": 0.31496062992125984,
                    "duration": 0.2857143333333454
                },
                {
                    "name": "C5",
                    "midi": 72,
                    "time": 130.85716466666628,
                    "velocity": 0.31496062992125984,
                    "duration": 0.21428574999998773
                },
                {
                    "name": "C5",
                    "midi": 72,
                    "time": 131.1428789999996,
                    "velocity": 0.3937007874015748,
                    "duration": 0.2857143333333454
                },
                {
                    "name": "E5",
                    "midi": 76,
                    "time": 131.42859333333294,
                    "velocity": 0.30708661417322836,
                    "duration": 0.2857143333333454
                },
                {
                    "name": "E5",
                    "midi": 76,
                    "time": 131.7143076666663,
                    "velocity": 0.30708661417322836,
                    "duration": 0.21428574999998773
                },
                {
                    "name": "E5",
                    "midi": 76,
                    "time": 132.0000219999996,
                    "velocity": 0.4094488188976378,
                    "duration": 0.2857143333333454
                },
                {
                    "name": "G5",
                    "midi": 79,
                    "time": 132.28573633333295,
                    "velocity": 0.33858267716535434,
                    "duration": 0.2857143333333454
                },
                {
                    "name": "G5",
                    "midi": 79,
                    "time": 132.5714506666663,
                    "velocity": 0.33858267716535434,
                    "duration": 0.21428574999998773
                },
                {
                    "name": "C#5",
                    "midi": 73,
                    "time": 132.8571649999996,
                    "velocity": 0.4409448818897638,
                    "duration": 0.64285725000002
                },
                {
                    "name": "A#4",
                    "midi": 70,
                    "time": 132.8571649999996,
                    "velocity": 0.4409448818897638,
                    "duration": 0.64285725000002
                },
                {
                    "name": "G5",
                    "midi": 79,
                    "time": 132.8571649999996,
                    "velocity": 0.4409448818897638,
                    "duration": 0.2857143333333454
                },
                {
                    "name": "A#5",
                    "midi": 82,
                    "time": 133.14287933333296,
                    "velocity": 0.36220472440944884,
                    "duration": 0.2857143333333454
                },
                {
                    "name": "A#5",
                    "midi": 82,
                    "time": 133.4285936666663,
                    "velocity": 0.36220472440944884,
                    "duration": 0.21428574999998773
                },
                {
                    "name": "A#4",
                    "midi": 70,
                    "time": 133.50002224999963,
                    "velocity": 0.4330708661417323,
                    "duration": 0.21428574999998773
                },
                {
                    "name": "C#5",
                    "midi": 73,
                    "time": 133.50002224999963,
                    "velocity": 0.4330708661417323,
                    "duration": 0.21428574999998773
                },
                {
                    "name": "A#4",
                    "midi": 70,
                    "time": 133.71430799999962,
                    "velocity": 0.5275590551181102,
                    "duration": 0.2857143333333454
                },
                {
                    "name": "D5",
                    "midi": 74,
                    "time": 134.00002233333296,
                    "velocity": 0.4409448818897638,
                    "duration": 0.2857143333333454
                },
                {
                    "name": "D5",
                    "midi": 74,
                    "time": 134.2857366666663,
                    "velocity": 0.4094488188976378,
                    "duration": 0.21428574999998773
                },
                {
                    "name": "D5",
                    "midi": 74,
                    "time": 134.57145099999963,
                    "velocity": 0.48031496062992124,
                    "duration": 0.2857143333333454
                },
                {
                    "name": "F5",
                    "midi": 77,
                    "time": 134.85716533333297,
                    "velocity": 0.4330708661417323,
                    "duration": 0.2857143333333454
                },
                {
                    "name": "F5",
                    "midi": 77,
                    "time": 135.14287966666632,
                    "velocity": 0.4330708661417323,
                    "duration": 0.21428574999998773
                },
                {
                    "name": "F5",
                    "midi": 77,
                    "time": 135.42859399999963,
                    "velocity": 0.5354330708661418,
                    "duration": 0.2857143333333454
                },
                {
                    "name": "A#5",
                    "midi": 82,
                    "time": 135.71430833333298,
                    "velocity": 0.49606299212598426,
                    "duration": 0.2857143333333454
                },
                {
                    "name": "A#5",
                    "midi": 82,
                    "time": 136.00002266666633,
                    "velocity": 0.5039370078740157,
                    "duration": 0.21428574999998773
                },
                {
                    "name": "A#5",
                    "midi": 82,
                    "time": 136.28573699999964,
                    "velocity": 0.6929133858267716,
                    "duration": 0.2857143333333454
                },
                {
                    "name": "D6",
                    "midi": 86,
                    "time": 136.571451333333,
                    "velocity": 0.6220472440944882,
                    "duration": 0.2857143333333454
                },
                {
                    "name": "F5",
                    "midi": 77,
                    "time": 136.571451333333,
                    "velocity": 0.6220472440944882,
                    "duration": 0.2857143333333454
                },
                {
                    "name": "D5",
                    "midi": 74,
                    "time": 136.571451333333,
                    "velocity": 0.6220472440944882,
                    "duration": 0.2857143333333454
                },
                {
                    "name": "D5",
                    "midi": 74,
                    "time": 136.85716566666633,
                    "velocity": 0.6220472440944882,
                    "duration": 0.21428574999998773
                },
                {
                    "name": "F5",
                    "midi": 77,
                    "time": 136.85716566666633,
                    "velocity": 0.6220472440944882,
                    "duration": 0.21428574999998773
                },
                {
                    "name": "D6",
                    "midi": 86,
                    "time": 136.85716566666633,
                    "velocity": 0.6220472440944882,
                    "duration": 0.21428574999998773
                },
                {
                    "name": "D#6",
                    "midi": 87,
                    "time": 137.14287999999965,
                    "velocity": 0.7559055118110236,
                    "duration": 1.714285999999987
                },
                {
                    "name": "D#5",
                    "midi": 75,
                    "time": 137.14287999999965,
                    "velocity": 0.7559055118110236,
                    "duration": 1.714285999999987
                },
                {
                    "name": "F#5",
                    "midi": 78,
                    "time": 137.14287999999965,
                    "velocity": 0.7559055118110236,
                    "duration": 1.714285999999987
                },
                {
                    "name": "F5",
                    "midi": 77,
                    "time": 138.85716599999964,
                    "velocity": 0.5118110236220472,
                    "duration": 0.2857143333333454
                },
                {
                    "name": "D#6",
                    "midi": 87,
                    "time": 139.14288033333298,
                    "velocity": 0.4566929133858268,
                    "duration": 0.14285716666665849
                },
                {
                    "name": "D6",
                    "midi": 86,
                    "time": 139.4285946666663,
                    "velocity": 0.3858267716535433,
                    "duration": 0.14285716666665849
                },
                {
                    "name": "F5",
                    "midi": 77,
                    "time": 139.71430899999962,
                    "velocity": 0.4566929133858268,
                    "duration": 0.2857143333333454
                },
                {
                    "name": "D6",
                    "midi": 86,
                    "time": 140.00002333333296,
                    "velocity": 0.4015748031496063,
                    "duration": 0.14285716666665849
                },
                {
                    "name": "C6",
                    "midi": 84,
                    "time": 140.28573766666628,
                    "velocity": 0.3779527559055118,
                    "duration": 0.14285716666665849
                },
                {
                    "name": "C#6",
                    "midi": 85,
                    "time": 140.5714519999996,
                    "velocity": 0.7322834645669292,
                    "duration": 1.714285999999987
                },
                {
                    "name": "C#5",
                    "midi": 73,
                    "time": 140.5714519999996,
                    "velocity": 0.7322834645669292,
                    "duration": 1.714285999999987
                },
                {
                    "name": "E5",
                    "midi": 76,
                    "time": 140.5714519999996,
                    "velocity": 0.7322834645669292,
                    "duration": 1.714285999999987
                },
                {
                    "name": "C5",
                    "midi": 72,
                    "time": 142.28573799999958,
                    "velocity": 0.5118110236220472,
                    "duration": 0.2857143333333454
                },
                {
                    "name": "C#6",
                    "midi": 85,
                    "time": 142.57145233333293,
                    "velocity": 0.4566929133858268,
                    "duration": 0.14285716666665849
                },
                {
                    "name": "C6",
                    "midi": 84,
                    "time": 142.85716666666625,
                    "velocity": 0.3858267716535433,
                    "duration": 0.14285716666665849
                },
                {
                    "name": "C5",
                    "midi": 72,
                    "time": 143.14288099999956,
                    "velocity": 0.4566929133858268,
                    "duration": 0.2857143333333454
                },
                {
                    "name": "A#5",
                    "midi": 82,
                    "time": 143.4285953333329,
                    "velocity": 0.4015748031496063,
                    "duration": 0.14285716666665849
                },
                {
                    "name": "A5",
                    "midi": 81,
                    "time": 143.71430966666622,
                    "velocity": 0.3779527559055118,
                    "duration": 0.14285716666665849
                },
                {
                    "name": "D6",
                    "midi": 86,
                    "time": 144.00002399999954,
                    "velocity": 0.4251968503937008,
                    "duration": 0.2857143333333454
                },
                {
                    "name": "C6",
                    "midi": 84,
                    "time": 144.2857383333329,
                    "velocity": 0.3464566929133858,
                    "duration": 0.2857143333333454
                },
                {
                    "name": "C6",
                    "midi": 84,
                    "time": 144.57145266666623,
                    "velocity": 0.3228346456692913,
                    "duration": 0.21428574999998773
                },
                {
                    "name": "C6",
                    "midi": 84,
                    "time": 144.85716699999955,
                    "velocity": 0.4015748031496063,
                    "duration": 0.2857143333333454
                },
                {
                    "name": "A#5",
                    "midi": 82,
                    "time": 145.1428813333329,
                    "velocity": 0.33070866141732286,
                    "duration": 0.2857143333333454
                },
                {
                    "name": "A#5",
                    "midi": 82,
                    "time": 145.42859566666624,
                    "velocity": 0.33070866141732286,
                    "duration": 0.21428574999998773
                },
                {
                    "name": "A#5",
                    "midi": 82,
                    "time": 145.71430999999956,
                    "velocity": 0.3937007874015748,
                    "duration": 0.2857143333333454
                },
                {
                    "name": "G5",
                    "midi": 79,
                    "time": 146.0000243333329,
                    "velocity": 0.33070866141732286,
                    "duration": 0.2857143333333454
                },
                {
                    "name": "G5",
                    "midi": 79,
                    "time": 146.28573866666625,
                    "velocity": 0.33070866141732286,
                    "duration": 0.21428574999998773
                },
                {
                    "name": "G5",
                    "midi": 79,
                    "time": 146.57145299999956,
                    "velocity": 0.3779527559055118,
                    "duration": 0.2857143333333454
                },
                {
                    "name": "A5",
                    "midi": 81,
                    "time": 146.8571673333329,
                    "velocity": 0.33070866141732286,
                    "duration": 0.2857143333333454
                },
                {
                    "name": "A5",
                    "midi": 81,
                    "time": 147.14288166666626,
                    "velocity": 0.33070866141732286,
                    "duration": 0.21428574999998773
                },
                {
                    "name": "A4",
                    "midi": 69,
                    "time": 147.42859599999957,
                    "velocity": 0.3779527559055118,
                    "duration": 0.2857143333333454
                },
                {
                    "name": "F5",
                    "midi": 77,
                    "time": 147.71431033333292,
                    "velocity": 0.33858267716535434,
                    "duration": 0.2857143333333454
                },
                {
                    "name": "F5",
                    "midi": 77,
                    "time": 148.00002466666626,
                    "velocity": 0.33858267716535434,
                    "duration": 0.21428574999998773
                },
                {
                    "name": "G5",
                    "midi": 79,
                    "time": 148.28573899999958,
                    "velocity": 0.3779527559055118,
                    "duration": 0.2857143333333454
                },
                {
                    "name": "F5",
                    "midi": 77,
                    "time": 148.57145333333293,
                    "velocity": 0.33070866141732286,
                    "duration": 0.2857143333333454
                },
                {
                    "name": "F5",
                    "midi": 77,
                    "time": 148.85716766666627,
                    "velocity": 0.33070866141732286,
                    "duration": 0.21428574999998773
                },
                {
                    "name": "E5",
                    "midi": 76,
                    "time": 149.1428819999996,
                    "velocity": 0.3779527559055118,
                    "duration": 0.2857143333333454
                },
                {
                    "name": "A#5",
                    "midi": 82,
                    "time": 149.42859633333293,
                    "velocity": 0.33858267716535434,
                    "duration": 0.2857143333333454
                },
                {
                    "name": "A#5",
                    "midi": 82,
                    "time": 149.71431066666628,
                    "velocity": 0.3464566929133858,
                    "duration": 0.21428574999998773
                },
                {
                    "name": "C6",
                    "midi": 84,
                    "time": 150.0000249999996,
                    "velocity": 0.3779527559055118,
                    "duration": 0.2857143333333454
                },
                {
                    "name": "A#5",
                    "midi": 82,
                    "time": 150.28573933333294,
                    "velocity": 0.33070866141732286,
                    "duration": 0.2857143333333454
                },
                {
                    "name": "A#5",
                    "midi": 82,
                    "time": 150.5714536666663,
                    "velocity": 0.3228346456692913,
                    "duration": 0.21428574999998773
                },
                {
                    "name": "A5",
                    "midi": 81,
                    "time": 150.8571679999996,
                    "velocity": 0.31496062992125984,
                    "duration": 0.21428574999998773
                },
                {
                    "name": "A4",
                    "midi": 69,
                    "time": 151.71431099999958,
                    "velocity": 0.2047244094488189,
                    "duration": 0.6428572499999916
                },
                {
                    "name": "F4",
                    "midi": 65,
                    "time": 151.71431099999958,
                    "velocity": 0.16535433070866143,
                    "duration": 1.9285717499999464
                },
                {
                    "name": "A#4",
                    "midi": 70,
                    "time": 152.35716824999957,
                    "velocity": 0.18110236220472442,
                    "duration": 0.10714287499999386
                },
                {
                    "name": "A4",
                    "midi": 69,
                    "time": 152.46431112499957,
                    "velocity": 0.18110236220472442,
                    "duration": 0.10714287499999386
                },
                {
                    "name": "G#4",
                    "midi": 68,
                    "time": 152.57145399999956,
                    "velocity": 0.2283464566929134,
                    "duration": 0.6428572499999916
                },
                {
                    "name": "A4",
                    "midi": 69,
                    "time": 153.21431124999955,
                    "velocity": 0.1732283464566929,
                    "duration": 0.10714287499999386
                },
                {
                    "name": "A#4",
                    "midi": 70,
                    "time": 153.32145412499955,
                    "velocity": 0.1732283464566929,
                    "duration": 0.10714287499999386
                },
                {
                    "name": "A4",
                    "midi": 69,
                    "time": 153.42859699999954,
                    "velocity": 0.2047244094488189,
                    "duration": 0.21428574999998773
                },
                {
                    "name": "D7",
                    "midi": 98,
                    "time": 154.28573999999952,
                    "velocity": 0.4251968503937008,
                    "duration": 0.2857143333333454
                },
                {
                    "name": "C7",
                    "midi": 96,
                    "time": 154.57145433333287,
                    "velocity": 0.3464566929133858,
                    "duration": 0.2857143333333454
                },
                {
                    "name": "C7",
                    "midi": 96,
                    "time": 154.8571686666662,
                    "velocity": 0.3228346456692913,
                    "duration": 0.21428574999998773
                },
                {
                    "name": "C7",
                    "midi": 96,
                    "time": 155.14288299999953,
                    "velocity": 0.4015748031496063,
                    "duration": 0.2857143333333454
                },
                {
                    "name": "A#6",
                    "midi": 94,
                    "time": 155.42859733333287,
                    "velocity": 0.33070866141732286,
                    "duration": 0.2857143333333454
                },
                {
                    "name": "A#6",
                    "midi": 94,
                    "time": 155.71431166666622,
                    "velocity": 0.33070866141732286,
                    "duration": 0.21428574999998773
                },
                {
                    "name": "A#6",
                    "midi": 94,
                    "time": 156.00002599999954,
                    "velocity": 0.3937007874015748,
                    "duration": 0.2857143333333454
                },
                {
                    "name": "G6",
                    "midi": 91,
                    "time": 156.28574033333288,
                    "velocity": 0.33070866141732286,
                    "duration": 0.2857143333333454
                },
                {
                    "name": "G6",
                    "midi": 91,
                    "time": 156.57145466666623,
                    "velocity": 0.33070866141732286,
                    "duration": 0.21428574999998773
                },
                {
                    "name": "G6",
                    "midi": 91,
                    "time": 156.85716899999954,
                    "velocity": 0.3779527559055118,
                    "duration": 0.2857143333333454
                },
                {
                    "name": "A6",
                    "midi": 93,
                    "time": 157.1428833333329,
                    "velocity": 0.33070866141732286,
                    "duration": 0.2857143333333454
                },
                {
                    "name": "A6",
                    "midi": 93,
                    "time": 157.42859766666623,
                    "velocity": 0.33070866141732286,
                    "duration": 0.21428574999998773
                },
                {
                    "name": "A5",
                    "midi": 81,
                    "time": 157.71431199999955,
                    "velocity": 0.3779527559055118,
                    "duration": 0.2857143333333454
                },
                {
                    "name": "F6",
                    "midi": 89,
                    "time": 158.0000263333329,
                    "velocity": 0.33858267716535434,
                    "duration": 0.2857143333333454
                },
                {
                    "name": "F6",
                    "midi": 89,
                    "time": 158.28574066666624,
                    "velocity": 0.33858267716535434,
                    "duration": 0.21428574999998773
                },
                {
                    "name": "G6",
                    "midi": 91,
                    "time": 158.57145499999956,
                    "velocity": 0.3779527559055118,
                    "duration": 0.2857143333333454
                },
                {
                    "name": "F6",
                    "midi": 89,
                    "time": 158.8571693333329,
                    "velocity": 0.33070866141732286,
                    "duration": 0.2857143333333454
                },
                {
                    "name": "F6",
                    "midi": 89,
                    "time": 159.14288366666625,
                    "velocity": 0.33070866141732286,
                    "duration": 0.21428574999998773
                },
                {
                    "name": "A#5",
                    "midi": 82,
                    "time": 159.42859799999957,
                    "velocity": 0.3779527559055118,
                    "duration": 0.2857143333333454
                },
                {
                    "name": "G6",
                    "midi": 91,
                    "time": 159.7143123333329,
                    "velocity": 0.33858267716535434,
                    "duration": 0.2857143333333454
                },
                {
                    "name": "G6",
                    "midi": 91,
                    "time": 160.00002666666626,
                    "velocity": 0.3464566929133858,
                    "duration": 0.21428574999998773
                },
                {
                    "name": "A#6",
                    "midi": 94,
                    "time": 160.28574099999958,
                    "velocity": 0.3779527559055118,
                    "duration": 0.2857143333333454
                },
                {
                    "name": "A6",
                    "midi": 93,
                    "time": 160.57145533333292,
                    "velocity": 0.33070866141732286,
                    "duration": 0.2857143333333454
                },
                {
                    "name": "G6",
                    "midi": 91,
                    "time": 160.85716966666627,
                    "velocity": 0.3228346456692913,
                    "duration": 0.21428574999998773
                },
                {
                    "name": "F6",
                    "midi": 89,
                    "time": 161.14288399999958,
                    "velocity": 0.31496062992125984,
                    "duration": 0.21428574999998773
                },
                {
                    "name": "F4",
                    "midi": 65,
                    "time": 162.00002699999956,
                    "velocity": 0.16535433070866143,
                    "duration": 1.9285717499999464
                },
                {
                    "name": "A4",
                    "midi": 69,
                    "time": 162.00002699999956,
                    "velocity": 0.2047244094488189,
                    "duration": 0.6428572499999916
                },
                {
                    "name": "A#4",
                    "midi": 70,
                    "time": 162.64288424999955,
                    "velocity": 0.18110236220472442,
                    "duration": 0.10714287499999386
                },
                {
                    "name": "A4",
                    "midi": 69,
                    "time": 162.75002712499955,
                    "velocity": 0.18110236220472442,
                    "duration": 0.10714287499999386
                },
                {
                    "name": "G#4",
                    "midi": 68,
                    "time": 162.85716999999954,
                    "velocity": 0.2283464566929134,
                    "duration": 0.6428572499999916
                },
                {
                    "name": "A4",
                    "midi": 69,
                    "time": 163.50002724999953,
                    "velocity": 0.1732283464566929,
                    "duration": 0.10714287499999386
                },
                {
                    "name": "A#4",
                    "midi": 70,
                    "time": 163.60717012499953,
                    "velocity": 0.1732283464566929,
                    "duration": 0.10714287499999386
                },
                {
                    "name": "A4",
                    "midi": 69,
                    "time": 163.71431299999952,
                    "velocity": 0.2047244094488189,
                    "duration": 0.21428574999998773
                },
                {
                    "name": "C5",
                    "midi": 72,
                    "time": 165.4285989999995,
                    "velocity": 0.25196850393700787,
                    "duration": 0.6428572499999916
                },
                {
                    "name": "C#5",
                    "midi": 73,
                    "time": 166.0714562499995,
                    "velocity": 0.2125984251968504,
                    "duration": 0.10714287499999386
                },
                {
                    "name": "C5",
                    "midi": 72,
                    "time": 166.1785991249995,
                    "velocity": 0.2125984251968504,
                    "duration": 0.10714287499999386
                },
                {
                    "name": "B4",
                    "midi": 71,
                    "time": 166.2857419999995,
                    "velocity": 0.2992125984251969,
                    "duration": 0.6428572499999916
                },
                {
                    "name": "C5",
                    "midi": 72,
                    "time": 166.92859924999948,
                    "velocity": 0.2125984251968504,
                    "duration": 0.10714287499999386
                },
                {
                    "name": "C#5",
                    "midi": 73,
                    "time": 167.03574212499947,
                    "velocity": 0.2125984251968504,
                    "duration": 0.10714287499999386
                },
                {
                    "name": "C5",
                    "midi": 72,
                    "time": 167.14288499999947,
                    "velocity": 0.25196850393700787,
                    "duration": 0.21428574999998773
                },
                {
                    "name": "B4",
                    "midi": 71,
                    "time": 168.00002799999945,
                    "velocity": 0.3937007874015748,
                    "duration": 0.6428572499999916
                },
                {
                    "name": "C5",
                    "midi": 72,
                    "time": 168.64288524999944,
                    "velocity": 0.36220472440944884,
                    "duration": 0.10714287499999386
                },
                {
                    "name": "C#5",
                    "midi": 73,
                    "time": 168.75002812499943,
                    "velocity": 0.36220472440944884,
                    "duration": 0.10714287499999386
                },
                {
                    "name": "C5",
                    "midi": 72,
                    "time": 168.85717099999943,
                    "velocity": 0.5354330708661418,
                    "duration": 0.6428572499999916
                },
                {
                    "name": "A#4",
                    "midi": 70,
                    "time": 169.50002824999942,
                    "velocity": 0.4409448818897638,
                    "duration": 0.10714287499999386
                },
                {
                    "name": "G#4",
                    "midi": 68,
                    "time": 169.6071711249994,
                    "velocity": 0.44881889763779526,
                    "duration": 0.10714287499999386
                },
                {
                    "name": "G4",
                    "midi": 67,
                    "time": 169.7143139999994,
                    "velocity": 0.5748031496062992,
                    "duration": 0.6428572499999916
                },
                {
                    "name": "G#4",
                    "midi": 68,
                    "time": 170.3571712499994,
                    "velocity": 0.47244094488188976,
                    "duration": 0.10714287499999386
                },
                {
                    "name": "A#4",
                    "midi": 70,
                    "time": 170.4643141249994,
                    "velocity": 0.47244094488188976,
                    "duration": 0.10714287499999386
                },
                {
                    "name": "G#4",
                    "midi": 68,
                    "time": 170.57145699999938,
                    "velocity": 0.5511811023622047,
                    "duration": 0.6428572499999916
                },
                {
                    "name": "G4",
                    "midi": 67,
                    "time": 171.21431424999938,
                    "velocity": 0.5196850393700787,
                    "duration": 0.10714287499999386
                },
                {
                    "name": "F4",
                    "midi": 65,
                    "time": 171.32145712499937,
                    "velocity": 0.4566929133858268,
                    "duration": 0.10714287499999386
                },
                {
                    "name": "C4",
                    "midi": 60,
                    "time": 171.42859999999936,
                    "velocity": 0.3937007874015748,
                    "duration": 1.714285999999987
                },
                {
                    "name": "C5",
                    "midi": 72,
                    "time": 173.14288599999935,
                    "velocity": 0.4566929133858268,
                    "duration": 0.6428572499999916
                },
                {
                    "name": "D5",
                    "midi": 74,
                    "time": 173.78574324999934,
                    "velocity": 0.41732283464566927,
                    "duration": 0.10714287499999386
                },
                {
                    "name": "E5",
                    "midi": 76,
                    "time": 173.89288612499934,
                    "velocity": 0.41732283464566927,
                    "duration": 0.10714287499999386
                },
                {
                    "name": "F5",
                    "midi": 77,
                    "time": 174.00002899999933,
                    "velocity": 0.49606299212598426,
                    "duration": 0.6428572499999916
                },
                {
                    "name": "G5",
                    "midi": 79,
                    "time": 174.64288624999932,
                    "velocity": 0.4566929133858268,
                    "duration": 0.10714287499999386
                },
                {
                    "name": "A5",
                    "midi": 81,
                    "time": 174.75002912499932,
                    "velocity": 0.5039370078740157,
                    "duration": 0.10714287499999386
                },
                {
                    "name": "C#5",
                    "midi": 73,
                    "time": 174.8571719999993,
                    "velocity": 0.5984251968503937,
                    "duration": 1.714285999999987
                },
                {
                    "name": "A#4",
                    "midi": 70,
                    "time": 174.8571719999993,
                    "velocity": 0.5984251968503937,
                    "duration": 1.714285999999987
                },
                {
                    "name": "A#5",
                    "midi": 82,
                    "time": 174.8571719999993,
                    "velocity": 0.5984251968503937,
                    "duration": 1.714285999999987
                },
                {
                    "name": "A#5",
                    "midi": 82,
                    "time": 176.5714579999993,
                    "velocity": 0.29133858267716534,
                    "duration": 0.08928572916667576
                },
                {
                    "name": "C#5",
                    "midi": 73,
                    "time": 176.5714579999993,
                    "velocity": 0.25196850393700787,
                    "duration": 1.714285999999987
                },
                {
                    "name": "C6",
                    "midi": 84,
                    "time": 176.66074372916597,
                    "velocity": 0.25196850393700787,
                    "duration": 0.08928572916667576
                },
                {
                    "name": "A#5",
                    "midi": 82,
                    "time": 176.75002945833265,
                    "velocity": 0.28346456692913385,
                    "duration": 0.08928572916667576
                },
                {
                    "name": "C6",
                    "midi": 84,
                    "time": 176.83931518749932,
                    "velocity": 0.25196850393700787,
                    "duration": 0.08928572916667576
                },
                {
                    "name": "A#5",
                    "midi": 82,
                    "time": 176.928600916666,
                    "velocity": 0.28346456692913385,
                    "duration": 0.07142858333332924
                },
                {
                    "name": "C6",
                    "midi": 84,
                    "time": 177.00002949999933,
                    "velocity": 0.25196850393700787,
                    "duration": 0.07142858333332924
                },
                {
                    "name": "A#5",
                    "midi": 82,
                    "time": 177.07145808333266,
                    "velocity": 0.28346456692913385,
                    "duration": 0.07142858333332924
                },
                {
                    "name": "C6",
                    "midi": 84,
                    "time": 177.142886666666,
                    "velocity": 0.25196850393700787,
                    "duration": 0.07142858333332924
                },
                {
                    "name": "A5",
                    "midi": 81,
                    "time": 177.21431524999932,
                    "velocity": 0.28346456692913385,
                    "duration": 0.10714287499999386
                },
                {
                    "name": "A#5",
                    "midi": 82,
                    "time": 177.3214581249993,
                    "velocity": 0.25196850393700787,
                    "duration": 0.10714287499999386
                },
                {
                    "name": "E6",
                    "midi": 88,
                    "time": 177.4286009999993,
                    "velocity": 0.3543307086614173,
                    "duration": 0.4285715000000039
                },
                {
                    "name": "A#5",
                    "midi": 82,
                    "time": 177.8571724999993,
                    "velocity": 0.31496062992125984,
                    "duration": 0.21428574999998773
                },
                {
                    "name": "A5",
                    "midi": 81,
                    "time": 178.28574399999928,
                    "velocity": 0.29133858267716534,
                    "duration": 0.08928572916667576
                },
                {
                    "name": "C5",
                    "midi": 72,
                    "time": 178.28574399999928,
                    "velocity": 0.29133858267716534,
                    "duration": 1.714285999999987
                },
                {
                    "name": "A#5",
                    "midi": 82,
                    "time": 178.37502972916596,
                    "velocity": 0.25196850393700787,
                    "duration": 0.08928572916667576
                },
                {
                    "name": "A5",
                    "midi": 81,
                    "time": 178.46431545833263,
                    "velocity": 0.28346456692913385,
                    "duration": 0.08928572916667576
                },
                {
                    "name": "A#5",
                    "midi": 82,
                    "time": 178.5536011874993,
                    "velocity": 0.25196850393700787,
                    "duration": 0.08928572916667576
                },
                {
                    "name": "A5",
                    "midi": 81,
                    "time": 178.642886916666,
                    "velocity": 0.28346456692913385,
                    "duration": 0.07142858333332924
                },
                {
                    "name": "A#5",
                    "midi": 82,
                    "time": 178.71431549999932,
                    "velocity": 0.25196850393700787,
                    "duration": 0.07142858333332924
                },
                {
                    "name": "A5",
                    "midi": 81,
                    "time": 178.78574408333265,
                    "velocity": 0.28346456692913385,
                    "duration": 0.07142858333332924
                },
                {
                    "name": "A#5",
                    "midi": 82,
                    "time": 178.85717266666597,
                    "velocity": 0.25196850393700787,
                    "duration": 0.07142858333332924
                },
                {
                    "name": "G#5",
                    "midi": 80,
                    "time": 178.9286012499993,
                    "velocity": 0.28346456692913385,
                    "duration": 0.10714287499999386
                },
                {
                    "name": "A5",
                    "midi": 81,
                    "time": 179.0357441249993,
                    "velocity": 0.25196850393700787,
                    "duration": 0.10714287499999386
                },
                {
                    "name": "C6",
                    "midi": 84,
                    "time": 179.1428869999993,
                    "velocity": 0.3543307086614173,
                    "duration": 0.4285715000000039
                },
                {
                    "name": "A5",
                    "midi": 81,
                    "time": 179.5714584999993,
                    "velocity": 0.31496062992125984,
                    "duration": 0.21428574999998773
                },
                {
                    "name": "C5",
                    "midi": 72,
                    "time": 180.00002999999927,
                    "velocity": 0.29133858267716534,
                    "duration": 1.714285999999987
                },
                {
                    "name": "G5",
                    "midi": 79,
                    "time": 180.00002999999927,
                    "velocity": 0.29133858267716534,
                    "duration": 0.08928572916667576
                },
                {
                    "name": "A5",
                    "midi": 81,
                    "time": 180.08931572916595,
                    "velocity": 0.25196850393700787,
                    "duration": 0.08928572916667576
                },
                {
                    "name": "G5",
                    "midi": 79,
                    "time": 180.17860145833262,
                    "velocity": 0.28346456692913385,
                    "duration": 0.08928572916667576
                },
                {
                    "name": "A5",
                    "midi": 81,
                    "time": 180.2678871874993,
                    "velocity": 0.25196850393700787,
                    "duration": 0.08928572916667576
                },
                {
                    "name": "G5",
                    "midi": 79,
                    "time": 180.35717291666597,
                    "velocity": 0.28346456692913385,
                    "duration": 0.07142858333332924
                },
                {
                    "name": "A5",
                    "midi": 81,
                    "time": 180.4286014999993,
                    "velocity": 0.25196850393700787,
                    "duration": 0.07142858333332924
                },
                {
                    "name": "G5",
                    "midi": 79,
                    "time": 180.50003008333263,
                    "velocity": 0.28346456692913385,
                    "duration": 0.07142858333332924
                },
                {
                    "name": "A5",
                    "midi": 81,
                    "time": 180.57145866666596,
                    "velocity": 0.25196850393700787,
                    "duration": 0.07142858333332924
                },
                {
                    "name": "F#5",
                    "midi": 78,
                    "time": 180.6428872499993,
                    "velocity": 0.28346456692913385,
                    "duration": 0.10714287499999386
                },
                {
                    "name": "G5",
                    "midi": 79,
                    "time": 180.75003012499928,
                    "velocity": 0.25196850393700787,
                    "duration": 0.10714287499999386
                },
                {
                    "name": "A#5",
                    "midi": 82,
                    "time": 180.85717299999928,
                    "velocity": 0.3543307086614173,
                    "duration": 0.4285715000000039
                },
                {
                    "name": "G5",
                    "midi": 79,
                    "time": 181.28574449999928,
                    "velocity": 0.31496062992125984,
                    "duration": 0.21428574999998773
                },
                {
                    "name": "C5",
                    "midi": 72,
                    "time": 182.57145899999927,
                    "velocity": 0.25196850393700787,
                    "duration": 0.6428572499999916
                },
                {
                    "name": "C#5",
                    "midi": 73,
                    "time": 183.21431624999926,
                    "velocity": 0.2125984251968504,
                    "duration": 0.10714287499999386
                },
                {
                    "name": "C5",
                    "midi": 72,
                    "time": 183.32145912499925,
                    "velocity": 0.2125984251968504,
                    "duration": 0.10714287499999386
                },
                {
                    "name": "B4",
                    "midi": 71,
                    "time": 183.42860199999924,
                    "velocity": 0.2992125984251969,
                    "duration": 0.6428572499999916
                },
                {
                    "name": "C5",
                    "midi": 72,
                    "time": 184.07145924999924,
                    "velocity": 0.2125984251968504,
                    "duration": 0.10714287499999386
                },
                {
                    "name": "C#5",
                    "midi": 73,
                    "time": 184.17860212499923,
                    "velocity": 0.2125984251968504,
                    "duration": 0.10714287499999386
                },
                {
                    "name": "C5",
                    "midi": 72,
                    "time": 184.28574499999922,
                    "velocity": 0.25196850393700787,
                    "duration": 0.21428574999998773
                },
                {
                    "name": "B4",
                    "midi": 71,
                    "time": 185.1428879999992,
                    "velocity": 0.3937007874015748,
                    "duration": 0.6428572499999916
                },
                {
                    "name": "C5",
                    "midi": 72,
                    "time": 185.7857452499992,
                    "velocity": 0.36220472440944884,
                    "duration": 0.10714287499999386
                },
                {
                    "name": "C#5",
                    "midi": 73,
                    "time": 185.8928881249992,
                    "velocity": 0.36220472440944884,
                    "duration": 0.10714287499999386
                },
                {
                    "name": "C5",
                    "midi": 72,
                    "time": 186.00003099999918,
                    "velocity": 0.5354330708661418,
                    "duration": 0.6428572499999916
                },
                {
                    "name": "A#4",
                    "midi": 70,
                    "time": 186.64288824999917,
                    "velocity": 0.4409448818897638,
                    "duration": 0.10714287499999386
                },
                {
                    "name": "G#4",
                    "midi": 68,
                    "time": 186.75003112499917,
                    "velocity": 0.44881889763779526,
                    "duration": 0.10714287499999386
                },
                {
                    "name": "G4",
                    "midi": 67,
                    "time": 186.85717399999916,
                    "velocity": 0.5748031496062992,
                    "duration": 0.6428572499999916
                },
                {
                    "name": "G#4",
                    "midi": 68,
                    "time": 187.50003124999915,
                    "velocity": 0.47244094488188976,
                    "duration": 0.10714287499999386
                },
                {
                    "name": "A#4",
                    "midi": 70,
                    "time": 187.60717412499915,
                    "velocity": 0.47244094488188976,
                    "duration": 0.10714287499999386
                },
                {
                    "name": "G#4",
                    "midi": 68,
                    "time": 187.71431699999914,
                    "velocity": 0.5511811023622047,
                    "duration": 0.6428572499999916
                },
                {
                    "name": "G4",
                    "midi": 67,
                    "time": 188.35717424999913,
                    "velocity": 0.5196850393700787,
                    "duration": 0.10714287499999386
                },
                {
                    "name": "F4",
                    "midi": 65,
                    "time": 188.46431712499913,
                    "velocity": 0.4566929133858268,
                    "duration": 0.10714287499999386
                },
                {
                    "name": "D#4",
                    "midi": 63,
                    "time": 188.57145999999912,
                    "velocity": 0.6062992125984252,
                    "duration": 1.714285999999987
                },
                {
                    "name": "D#5",
                    "midi": 75,
                    "time": 190.2857459999991,
                    "velocity": 0.5275590551181102,
                    "duration": 0.6428572499999916
                },
                {
                    "name": "F5",
                    "midi": 77,
                    "time": 190.9286032499991,
                    "velocity": 0.4645669291338583,
                    "duration": 0.10714287499999386
                },
                {
                    "name": "G5",
                    "midi": 79,
                    "time": 191.0357461249991,
                    "velocity": 0.4645669291338583,
                    "duration": 0.10714287499999386
                },
                {
                    "name": "G#5",
                    "midi": 80,
                    "time": 191.1428889999991,
                    "velocity": 0.5433070866141733,
                    "duration": 0.6428572499999916
                },
                {
                    "name": "A#5",
                    "midi": 82,
                    "time": 191.78574624999908,
                    "velocity": 0.5511811023622047,
                    "duration": 0.10714287499999386
                },
                {
                    "name": "C6",
                    "midi": 84,
                    "time": 191.89288912499907,
                    "velocity": 0.5984251968503937,
                    "duration": 0.10714287499999386
                },
                {
                    "name": "C#6",
                    "midi": 85,
                    "time": 192.00003199999907,
                    "velocity": 0.6535433070866141,
                    "duration": 1.714285999999987
                },
                {
                    "name": "E5",
                    "midi": 76,
                    "time": 192.00003199999907,
                    "velocity": 0.6535433070866141,
                    "duration": 1.714285999999987
                },
                {
                    "name": "C#5",
                    "midi": 73,
                    "time": 192.00003199999907,
                    "velocity": 0.6535433070866141,
                    "duration": 1.714285999999987
                },
                {
                    "name": "E5",
                    "midi": 76,
                    "time": 193.71431799999905,
                    "velocity": 0.31496062992125984,
                    "duration": 1.714285999999987
                },
                {
                    "name": "C#6",
                    "midi": 85,
                    "time": 193.71431799999905,
                    "velocity": 0.3700787401574803,
                    "duration": 0.08928572916667576
                },
                {
                    "name": "D#6",
                    "midi": 87,
                    "time": 193.80360372916573,
                    "velocity": 0.31496062992125984,
                    "duration": 0.08928572916667576
                },
                {
                    "name": "C#6",
                    "midi": 85,
                    "time": 193.8928894583324,
                    "velocity": 0.36220472440944884,
                    "duration": 0.08928572916667576
                },
                {
                    "name": "D#6",
                    "midi": 87,
                    "time": 193.98217518749908,
                    "velocity": 0.31496062992125984,
                    "duration": 0.08928572916667576
                },
                {
                    "name": "C#6",
                    "midi": 85,
                    "time": 194.07146091666576,
                    "velocity": 0.3543307086614173,
                    "duration": 0.07142858333332924
                },
                {
                    "name": "D#6",
                    "midi": 87,
                    "time": 194.1428894999991,
                    "velocity": 0.31496062992125984,
                    "duration": 0.07142858333332924
                },
                {
                    "name": "C#6",
                    "midi": 85,
                    "time": 194.21431808333242,
                    "velocity": 0.3543307086614173,
                    "duration": 0.07142858333332924
                },
                {
                    "name": "D#6",
                    "midi": 87,
                    "time": 194.28574666666574,
                    "velocity": 0.31496062992125984,
                    "duration": 0.07142858333332924
                },
                {
                    "name": "C6",
                    "midi": 84,
                    "time": 194.35717524999907,
                    "velocity": 0.3543307086614173,
                    "duration": 0.10714287499999386
                },
                {
                    "name": "C#6",
                    "midi": 85,
                    "time": 194.46431812499907,
                    "velocity": 0.31496062992125984,
                    "duration": 0.10714287499999386
                },
                {
                    "name": "G6",
                    "midi": 91,
                    "time": 194.57146099999906,
                    "velocity": 0.41732283464566927,
                    "duration": 0.4285715000000039
                },
                {
                    "name": "C#6",
                    "midi": 85,
                    "time": 195.00003249999907,
                    "velocity": 0.3937007874015748,
                    "duration": 0.21428574999998773
                },
                {
                    "name": "C6",
                    "midi": 84,
                    "time": 195.42860399999904,
                    "velocity": 0.3700787401574803,
                    "duration": 0.08928572916667576
                },
                {
                    "name": "D#5",
                    "midi": 75,
                    "time": 195.42860399999904,
                    "velocity": 0.31496062992125984,
                    "duration": 1.714285999999987
                },
                {
                    "name": "C#6",
                    "midi": 85,
                    "time": 195.51788972916572,
                    "velocity": 0.31496062992125984,
                    "duration": 0.08928572916667576
                },
                {
                    "name": "C6",
                    "midi": 84,
                    "time": 195.6071754583324,
                    "velocity": 0.36220472440944884,
                    "duration": 0.08928572916667576
                },
                {
                    "name": "C#6",
                    "midi": 85,
                    "time": 195.69646118749907,
                    "velocity": 0.31496062992125984,
                    "duration": 0.08928572916667576
                },
                {
                    "name": "C6",
                    "midi": 84,
                    "time": 195.78574691666574,
                    "velocity": 0.3543307086614173,
                    "duration": 0.07142858333332924
                },
                {
                    "name": "C#6",
                    "midi": 85,
                    "time": 195.85717549999907,
                    "velocity": 0.31496062992125984,
                    "duration": 0.07142858333332924
                },
                {
                    "name": "C6",
                    "midi": 84,
                    "time": 195.9286040833324,
                    "velocity": 0.3543307086614173,
                    "duration": 0.07142858333332924
                },
                {
                    "name": "C#6",
                    "midi": 85,
                    "time": 196.00003266666573,
                    "velocity": 0.31496062992125984,
                    "duration": 0.07142858333332924
                },
                {
                    "name": "B5",
                    "midi": 83,
                    "time": 196.07146124999906,
                    "velocity": 0.3543307086614173,
                    "duration": 0.10714287499999386
                },
                {
                    "name": "C6",
                    "midi": 84,
                    "time": 196.17860412499905,
                    "velocity": 0.31496062992125984,
                    "duration": 0.10714287499999386
                },
                {
                    "name": "D#6",
                    "midi": 87,
                    "time": 196.28574699999905,
                    "velocity": 0.41732283464566927,
                    "duration": 0.4285715000000039
                },
                {
                    "name": "C6",
                    "midi": 84,
                    "time": 196.71431849999905,
                    "velocity": 0.3937007874015748,
                    "duration": 0.21428574999998773
                },
                {
                    "name": "D#5",
                    "midi": 75,
                    "time": 197.14288999999903,
                    "velocity": 0.31496062992125984,
                    "duration": 1.714285999999987
                },
                {
                    "name": "A#5",
                    "midi": 82,
                    "time": 197.14288999999903,
                    "velocity": 0.3700787401574803,
                    "duration": 0.08928572916667576
                },
                {
                    "name": "C6",
                    "midi": 84,
                    "time": 197.2321757291657,
                    "velocity": 0.31496062992125984,
                    "duration": 0.08928572916667576
                },
                {
                    "name": "A#5",
                    "midi": 82,
                    "time": 197.32146145833238,
                    "velocity": 0.36220472440944884,
                    "duration": 0.08928572916667576
                },
                {
                    "name": "C6",
                    "midi": 84,
                    "time": 197.41074718749906,
                    "velocity": 0.31496062992125984,
                    "duration": 0.08928572916667576
                },
                {
                    "name": "A#5",
                    "midi": 82,
                    "time": 197.50003291666573,
                    "velocity": 0.3543307086614173,
                    "duration": 0.07142858333332924
                },
                {
                    "name": "C6",
                    "midi": 84,
                    "time": 197.57146149999906,
                    "velocity": 0.31496062992125984,
                    "duration": 0.07142858333332924
                },
                {
                    "name": "A#5",
                    "midi": 82,
                    "time": 197.6428900833324,
                    "velocity": 0.3543307086614173,
                    "duration": 0.07142858333332924
                },
                {
                    "name": "C6",
                    "midi": 84,
                    "time": 197.71431866666572,
                    "velocity": 0.31496062992125984,
                    "duration": 0.07142858333332924
                },
                {
                    "name": "A5",
                    "midi": 81,
                    "time": 197.78574724999905,
                    "velocity": 0.3543307086614173,
                    "duration": 0.10714287499999386
                },
                {
                    "name": "A#5",
                    "midi": 82,
                    "time": 197.89289012499904,
                    "velocity": 0.31496062992125984,
                    "duration": 0.10714287499999386
                },
                {
                    "name": "C#6",
                    "midi": 85,
                    "time": 198.00003299999904,
                    "velocity": 0.41732283464566927,
                    "duration": 0.4285715000000039
                },
                {
                    "name": "A#5",
                    "midi": 82,
                    "time": 198.42860449999904,
                    "velocity": 0.3937007874015748,
                    "duration": 0.21428574999998773
                },
                {
                    "name": "A#4",
                    "midi": 70,
                    "time": 199.71431899999902,
                    "velocity": 0.2047244094488189,
                    "duration": 0.6428572499999916
                },
                {
                    "name": "G4",
                    "midi": 67,
                    "time": 199.71431899999902,
                    "velocity": 0.16535433070866143,
                    "duration": 1.9285717499999464
                },
                {
                    "name": "C5",
                    "midi": 72,
                    "time": 200.35717624999901,
                    "velocity": 0.18110236220472442,
                    "duration": 0.10714287499999386
                },
                {
                    "name": "A#4",
                    "midi": 70,
                    "time": 200.464319124999,
                    "velocity": 0.18110236220472442,
                    "duration": 0.10714287499999386
                },
                {
                    "name": "A4",
                    "midi": 69,
                    "time": 200.571461999999,
                    "velocity": 0.2283464566929134,
                    "duration": 0.6428572499999916
                },
                {
                    "name": "A#4",
                    "midi": 70,
                    "time": 201.214319249999,
                    "velocity": 0.1732283464566929,
                    "duration": 0.10714287499999386
                },
                {
                    "name": "C5",
                    "midi": 72,
                    "time": 201.321462124999,
                    "velocity": 0.1732283464566929,
                    "duration": 0.10714287499999386
                },
                {
                    "name": "A#4",
                    "midi": 70,
                    "time": 201.42860499999898,
                    "velocity": 0.2047244094488189,
                    "duration": 0.21428574999998773
                },
                {
                    "name": "A#3",
                    "midi": 58,
                    "time": 202.28574799999896,
                    "velocity": 0.5590551181102362,
                    "duration": 1.714285999999987
                },
                {
                    "name": "C#4",
                    "midi": 61,
                    "time": 202.28574799999896,
                    "velocity": 0.5590551181102362,
                    "duration": 1.714285999999987
                },
                {
                    "name": "A#4",
                    "midi": 70,
                    "time": 202.28574799999896,
                    "velocity": 0.6614173228346457,
                    "duration": 1.714285999999987
                },
                {
                    "name": "C#4",
                    "midi": 61,
                    "time": 204.00003399999895,
                    "velocity": 0.2992125984251969,
                    "duration": 1.714285999999987
                },
                {
                    "name": "A#4",
                    "midi": 70,
                    "time": 204.00003399999895,
                    "velocity": 0.3464566929133858,
                    "duration": 0.08928572916667576
                },
                {
                    "name": "C5",
                    "midi": 72,
                    "time": 204.08931972916562,
                    "velocity": 0.2992125984251969,
                    "duration": 0.08928572916667576
                },
                {
                    "name": "A#4",
                    "midi": 70,
                    "time": 204.1786054583323,
                    "velocity": 0.33858267716535434,
                    "duration": 0.08928572916667576
                },
                {
                    "name": "C5",
                    "midi": 72,
                    "time": 204.26789118749898,
                    "velocity": 0.2992125984251969,
                    "duration": 0.08928572916667576
                },
                {
                    "name": "A#4",
                    "midi": 70,
                    "time": 204.35717691666565,
                    "velocity": 0.33858267716535434,
                    "duration": 0.07142858333332924
                },
                {
                    "name": "C5",
                    "midi": 72,
                    "time": 204.42860549999898,
                    "velocity": 0.2992125984251969,
                    "duration": 0.07142858333332924
                },
                {
                    "name": "A#4",
                    "midi": 70,
                    "time": 204.5000340833323,
                    "velocity": 0.33858267716535434,
                    "duration": 0.07142858333332924
                },
                {
                    "name": "C5",
                    "midi": 72,
                    "time": 204.57146266666564,
                    "velocity": 0.2992125984251969,
                    "duration": 0.07142858333332924
                },
                {
                    "name": "A4",
                    "midi": 69,
                    "time": 204.64289124999897,
                    "velocity": 0.33858267716535434,
                    "duration": 0.10714287499999386
                },
                {
                    "name": "A#4",
                    "midi": 70,
                    "time": 204.75003412499896,
                    "velocity": 0.2992125984251969,
                    "duration": 0.10714287499999386
                },
                {
                    "name": "E5",
                    "midi": 76,
                    "time": 204.85717699999896,
                    "velocity": 0.4251968503937008,
                    "duration": 0.4285715000000039
                },
                {
                    "name": "A#4",
                    "midi": 70,
                    "time": 205.28574849999896,
                    "velocity": 0.3779527559055118,
                    "duration": 0.21428574999998773
                },
                {
                    "name": "C4",
                    "midi": 60,
                    "time": 205.71431999999893,
                    "velocity": 0.3464566929133858,
                    "duration": 1.714285999999987
                },
                {
                    "name": "A4",
                    "midi": 69,
                    "time": 205.71431999999893,
                    "velocity": 0.3464566929133858,
                    "duration": 0.08928572916667576
                },
                {
                    "name": "A#4",
                    "midi": 70,
                    "time": 205.8036057291656,
                    "velocity": 0.2992125984251969,
                    "duration": 0.08928572916667576
                },
                {
                    "name": "A4",
                    "midi": 69,
                    "time": 205.8928914583323,
                    "velocity": 0.33858267716535434,
                    "duration": 0.08928572916667576
                },
                {
                    "name": "A#4",
                    "midi": 70,
                    "time": 205.98217718749896,
                    "velocity": 0.2992125984251969,
                    "duration": 0.08928572916667576
                },
                {
                    "name": "A4",
                    "midi": 69,
                    "time": 206.07146291666564,
                    "velocity": 0.33858267716535434,
                    "duration": 0.07142858333332924
                },
                {
                    "name": "A#4",
                    "midi": 70,
                    "time": 206.14289149999897,
                    "velocity": 0.2992125984251969,
                    "duration": 0.07142858333332924
                },
                {
                    "name": "A4",
                    "midi": 69,
                    "time": 206.2143200833323,
                    "velocity": 0.33858267716535434,
                    "duration": 0.07142858333332924
                },
                {
                    "name": "A#4",
                    "midi": 70,
                    "time": 206.28574866666563,
                    "velocity": 0.2992125984251969,
                    "duration": 0.07142858333332924
                },
                {
                    "name": "G#4",
                    "midi": 68,
                    "time": 206.35717724999895,
                    "velocity": 0.33858267716535434,
                    "duration": 0.10714287499999386
                },
                {
                    "name": "A4",
                    "midi": 69,
                    "time": 206.46432012499895,
                    "velocity": 0.2992125984251969,
                    "duration": 0.10714287499999386
                },
                {
                    "name": "C5",
                    "midi": 72,
                    "time": 206.57146299999894,
                    "velocity": 0.4251968503937008,
                    "duration": 0.4285715000000039
                },
                {
                    "name": "A4",
                    "midi": 69,
                    "time": 207.00003449999895,
                    "velocity": 0.3779527559055118,
                    "duration": 0.21428574999998773
                },
                {
                    "name": "C4",
                    "midi": 60,
                    "time": 207.42860599999892,
                    "velocity": 0.3464566929133858,
                    "duration": 1.5000002499999994
                },
                {
                    "name": "G4",
                    "midi": 67,
                    "time": 207.42860599999892,
                    "velocity": 0.3464566929133858,
                    "duration": 0.08928572916667576
                },
                {
                    "name": "A4",
                    "midi": 69,
                    "time": 207.5178917291656,
                    "velocity": 0.2992125984251969,
                    "duration": 0.08928572916667576
                },
                {
                    "name": "G4",
                    "midi": 67,
                    "time": 207.60717745833227,
                    "velocity": 0.33858267716535434,
                    "duration": 0.08928572916667576
                },
                {
                    "name": "A4",
                    "midi": 69,
                    "time": 207.69646318749895,
                    "velocity": 0.2992125984251969,
                    "duration": 0.08928572916667576
                },
                {
                    "name": "G4",
                    "midi": 67,
                    "time": 207.78574891666563,
                    "velocity": 0.33858267716535434,
                    "duration": 0.07142858333332924
                },
                {
                    "name": "A4",
                    "midi": 69,
                    "time": 207.85717749999895,
                    "velocity": 0.2992125984251969,
                    "duration": 0.07142858333332924
                },
                {
                    "name": "G4",
                    "midi": 67,
                    "time": 207.92860608333228,
                    "velocity": 0.33858267716535434,
                    "duration": 0.07142858333332924
                },
                {
                    "name": "A4",
                    "midi": 69,
                    "time": 208.0000346666656,
                    "velocity": 0.2992125984251969,
                    "duration": 0.07142858333332924
                },
                {
                    "name": "F#4",
                    "midi": 66,
                    "time": 208.07146324999894,
                    "velocity": 0.33858267716535434,
                    "duration": 0.10714287499999386
                },
                {
                    "name": "G4",
                    "midi": 67,
                    "time": 208.17860612499894,
                    "velocity": 0.2992125984251969,
                    "duration": 0.10714287499999386
                },
                {
                    "name": "A#4",
                    "midi": 70,
                    "time": 208.28574899999893,
                    "velocity": 0.4251968503937008,
                    "duration": 0.4285715000000039
                },
                {
                    "name": "G4",
                    "midi": 67,
                    "time": 208.71432049999893,
                    "velocity": 0.3779527559055118,
                    "duration": 0.21428574999998773
                },
                {
                    "name": "C4",
                    "midi": 60,
                    "time": 209.1428919999989,
                    "velocity": 0.31496062992125984,
                    "duration": 1.7142860000000155
                },
                {
                    "name": "A3",
                    "midi": 57,
                    "time": 209.1428919999989,
                    "velocity": 0.31496062992125984,
                    "duration": 1.696428854166669
                },
                {
                    "name": "F4",
                    "midi": 65,
                    "time": 210.42860649999892,
                    "velocity": 0.25984251968503935,
                    "duration": 0.4285715000000039
                },
                {
                    "name": "A4",
                    "midi": 69,
                    "time": 210.85717799999892,
                    "velocity": 0.31496062992125984,
                    "duration": 0.8571430000000078
                },
                {
                    "name": "D5",
                    "midi": 74,
                    "time": 211.71432099999893,
                    "velocity": 0.33858267716535434,
                    "duration": 0.8571430000000078
                },
                {
                    "name": "D4",
                    "midi": 62,
                    "time": 211.71432099999893,
                    "velocity": 0.33858267716535434,
                    "duration": 0.8571430000000078
                },
                {
                    "name": "C5",
                    "midi": 72,
                    "time": 212.57146399999894,
                    "velocity": 0.31496062992125984,
                    "duration": 1.2857145000000116
                },
                {
                    "name": "E4",
                    "midi": 64,
                    "time": 212.57146399999894,
                    "velocity": 0.31496062992125984,
                    "duration": 1.7142860000000155
                },
                {
                    "name": "C4",
                    "midi": 60,
                    "time": 212.57146399999894,
                    "velocity": 0.31496062992125984,
                    "duration": 1.2857145000000116
                },
                {
                    "name": "A#3",
                    "midi": 58,
                    "time": 213.85717849999895,
                    "velocity": 0.28346456692913385,
                    "duration": 0.4285715000000039
                },
                {
                    "name": "A#4",
                    "midi": 70,
                    "time": 213.85717849999895,
                    "velocity": 0.28346456692913385,
                    "duration": 0.4285715000000039
                },
                {
                    "name": "G3",
                    "midi": 55,
                    "time": 214.28574999999896,
                    "velocity": 0.31496062992125984,
                    "duration": 0.8571430000000078
                },
                {
                    "name": "G4",
                    "midi": 67,
                    "time": 214.28574999999896,
                    "velocity": 0.31496062992125984,
                    "duration": 0.8571430000000078
                },
                {
                    "name": "A4",
                    "midi": 69,
                    "time": 215.14289299999896,
                    "velocity": 0.28346456692913385,
                    "duration": 0.8571430000000078
                },
                {
                    "name": "A3",
                    "midi": 57,
                    "time": 215.14289299999896,
                    "velocity": 0.28346456692913385,
                    "duration": 0.8571430000000078
                },
                {
                    "name": "F4",
                    "midi": 65,
                    "time": 216.00003599999897,
                    "velocity": 0.28346456692913385,
                    "duration": 1.714285999999987
                },
                {
                    "name": "F3",
                    "midi": 53,
                    "time": 216.00003599999897,
                    "velocity": 0.28346456692913385,
                    "duration": 1.714285999999987
                },
                {
                    "name": "A3",
                    "midi": 57,
                    "time": 216.00003599999897,
                    "velocity": 0.28346456692913385,
                    "duration": 1.714285999999987
                },
                {
                    "name": "G4",
                    "midi": 67,
                    "time": 217.71432199999896,
                    "velocity": 0.2283464566929134,
                    "duration": 1.714285999999987
                },
                {
                    "name": "A#3",
                    "midi": 58,
                    "time": 217.71432199999896,
                    "velocity": 0.2283464566929134,
                    "duration": 1.714285999999987
                },
                {
                    "name": "E4",
                    "midi": 64,
                    "time": 217.71432199999896,
                    "velocity": 0.2283464566929134,
                    "duration": 1.714285999999987
                },
                {
                    "name": "A3",
                    "midi": 57,
                    "time": 219.42860799999895,
                    "velocity": 0.1732283464566929,
                    "duration": 0.4285715000000039
                },
                {
                    "name": "F4",
                    "midi": 65,
                    "time": 219.42860799999895,
                    "velocity": 0.1732283464566929,
                    "duration": 0.4285715000000039
                },
                {
                    "name": "A3",
                    "midi": 57,
                    "time": 221.14289399999896,
                    "velocity": 0.1732283464566929,
                    "duration": 0.4285715000000039
                },
                {
                    "name": "F4",
                    "midi": 65,
                    "time": 221.14289399999896,
                    "velocity": 0.1732283464566929,
                    "duration": 0.4285715000000039
                },
                {
                    "name": "F4",
                    "midi": 65,
                    "time": 222.85717999999898,
                    "velocity": 0.15748031496062992,
                    "duration": 3.4285720000000026
                },
                {
                    "name": "A3",
                    "midi": 57,
                    "time": 222.85717999999898,
                    "velocity": 0.15748031496062992,
                    "duration": 3.4285720000000026
                }
            ],
            "controlChanges": {
                "7": [
                    {
                        "number": 7,
                        "time": 0,
                        "value": 0.7874015748031497
                    }
                ],
                "10": [
                    {
                        "number": 10,
                        "time": 0,
                        "value": 0.5039370078740157
                    }
                ],
                "91": [
                    {
                        "number": 91,
                        "time": 0,
                        "value": 1
                    },
                    {
                        "number": 91,
                        "time": 0,
                        "value": 1
                    }
                ]
            },
            "id": 1,
            "name": "Piano right",
            "instrumentNumber": 0,
            "instrument": "acoustic grand piano",
            "instrumentFamily": "piano",
            "channelNumber": 0,
            "isPercussion": false
        },
        {
            "startTime": 0.0017857145833333333,
            "duration": 226.28575199999955,
            "length": 509,
            "notes": [
                {
                    "name": "F2",
                    "midi": 41,
                    "time": 0.0017857145833333333,
                    "velocity": 0.3228346456692913,
                    "duration": 1.7125002854166667
                },
                {
                    "name": "C3",
                    "midi": 48,
                    "time": 0.0017857145833333333,
                    "velocity": 0.3228346456692913,
                    "duration": 1.7125002854166667
                },
                {
                    "name": "F3",
                    "midi": 53,
                    "time": 1.2857145,
                    "velocity": 0.2755905511811024,
                    "duration": 0.4285714999999999
                },
                {
                    "name": "A3",
                    "midi": 57,
                    "time": 1.714286,
                    "velocity": 0.3228346456692913,
                    "duration": 0.8571429999999998
                },
                {
                    "name": "E2",
                    "midi": 40,
                    "time": 3.4285719999999995,
                    "velocity": 0.2992125984251969,
                    "duration": 1.714286
                },
                {
                    "name": "C3",
                    "midi": 48,
                    "time": 3.4285719999999995,
                    "velocity": 0.2992125984251969,
                    "duration": 1.714286
                },
                {
                    "name": "G3",
                    "midi": 55,
                    "time": 3.4285719999999995,
                    "velocity": 0.2992125984251969,
                    "duration": 1.6607145625000004
                },
                {
                    "name": "A2",
                    "midi": 45,
                    "time": 6.857143999999999,
                    "velocity": 0.2755905511811024,
                    "duration": 1.7142860000000004
                },
                {
                    "name": "D3",
                    "midi": 50,
                    "time": 6.857143999999999,
                    "velocity": 0.2755905511811024,
                    "duration": 1.7142860000000004
                },
                {
                    "name": "D2",
                    "midi": 38,
                    "time": 6.857143999999999,
                    "velocity": 0.2755905511811024,
                    "duration": 1.7142860000000004
                },
                {
                    "name": "E2",
                    "midi": 40,
                    "time": 8.57143,
                    "velocity": 0.2440944881889764,
                    "duration": 1.7142859999999995
                },
                {
                    "name": "E3",
                    "midi": 52,
                    "time": 8.57143,
                    "velocity": 0.2440944881889764,
                    "duration": 1.7142859999999995
                },
                {
                    "name": "C3",
                    "midi": 48,
                    "time": 8.57143,
                    "velocity": 0.2440944881889764,
                    "duration": 1.7142859999999995
                },
                {
                    "name": "C3",
                    "midi": 48,
                    "time": 10.285715999999999,
                    "velocity": 0.1968503937007874,
                    "duration": 0.4285715000000003
                },
                {
                    "name": "F3",
                    "midi": 53,
                    "time": 10.285715999999999,
                    "velocity": 0.1968503937007874,
                    "duration": 0.4285715000000003
                },
                {
                    "name": "F2",
                    "midi": 41,
                    "time": 10.285715999999999,
                    "velocity": 0.1968503937007874,
                    "duration": 0.4285715000000003
                },
                {
                    "name": "C3",
                    "midi": 48,
                    "time": 11.142859,
                    "velocity": 0.13385826771653545,
                    "duration": 0.6428572500000005
                },
                {
                    "name": "C#3",
                    "midi": 49,
                    "time": 11.78571625,
                    "velocity": 0.11811023622047244,
                    "duration": 0.1071428749999992
                },
                {
                    "name": "C3",
                    "midi": 48,
                    "time": 11.892859125,
                    "velocity": 0.12598425196850394,
                    "duration": 0.1071428749999992
                },
                {
                    "name": "B2",
                    "midi": 47,
                    "time": 12.000001999999999,
                    "velocity": 0.15748031496062992,
                    "duration": 0.6428572500000023
                },
                {
                    "name": "C3",
                    "midi": 48,
                    "time": 12.64285925,
                    "velocity": 0.12598425196850394,
                    "duration": 0.1071428749999992
                },
                {
                    "name": "C#3",
                    "midi": 49,
                    "time": 12.750002125,
                    "velocity": 0.12598425196850394,
                    "duration": 0.1071428749999992
                },
                {
                    "name": "C3",
                    "midi": 48,
                    "time": 12.857145,
                    "velocity": 0.14173228346456693,
                    "duration": 0.21428575000000016
                },
                {
                    "name": "F2",
                    "midi": 41,
                    "time": 13.714288,
                    "velocity": 0.2992125984251969,
                    "duration": 1.7142860000000013
                },
                {
                    "name": "C3",
                    "midi": 48,
                    "time": 13.714288,
                    "velocity": 0.2992125984251969,
                    "duration": 1.7142860000000013
                },
                {
                    "name": "F3",
                    "midi": 53,
                    "time": 15.0000025,
                    "velocity": 0.2992125984251969,
                    "duration": 0.4285715000000003
                },
                {
                    "name": "A3",
                    "midi": 57,
                    "time": 15.428574000000001,
                    "velocity": 0.3228346456692913,
                    "duration": 0.8571430000000007
                },
                {
                    "name": "F2",
                    "midi": 41,
                    "time": 16.285717,
                    "velocity": 0.31496062992125984,
                    "duration": 0.8571430000000007
                },
                {
                    "name": "D3",
                    "midi": 50,
                    "time": 16.285717,
                    "velocity": 0.31496062992125984,
                    "duration": 0.8571430000000007
                },
                {
                    "name": "A3",
                    "midi": 57,
                    "time": 16.285717,
                    "velocity": 0.31496062992125984,
                    "duration": 0.8571430000000007
                },
                {
                    "name": "F2",
                    "midi": 41,
                    "time": 17.142860000000002,
                    "velocity": 0.33070866141732286,
                    "duration": 1.7142859999999978
                },
                {
                    "name": "D3",
                    "midi": 50,
                    "time": 17.142860000000002,
                    "velocity": 0.33070866141732286,
                    "duration": 1.7142859999999978
                },
                {
                    "name": "A3",
                    "midi": 57,
                    "time": 17.142860000000002,
                    "velocity": 0.33070866141732286,
                    "duration": 1.7142859999999978
                },
                {
                    "name": "G4",
                    "midi": 67,
                    "time": 19.714289,
                    "velocity": 0.4566929133858268,
                    "duration": 0.8571430000000042
                },
                {
                    "name": "A3",
                    "midi": 57,
                    "time": 19.714289,
                    "velocity": 0.4566929133858268,
                    "duration": 0.8571430000000042
                },
                {
                    "name": "E4",
                    "midi": 64,
                    "time": 19.714289,
                    "velocity": 0.4566929133858268,
                    "duration": 0.8571430000000042
                },
                {
                    "name": "E4",
                    "midi": 64,
                    "time": 20.571432000000005,
                    "velocity": 0.41732283464566927,
                    "duration": 1.7142860000000013
                },
                {
                    "name": "A3",
                    "midi": 57,
                    "time": 20.571432000000005,
                    "velocity": 0.41732283464566927,
                    "duration": 1.7142860000000013
                },
                {
                    "name": "G4",
                    "midi": 67,
                    "time": 20.571432000000005,
                    "velocity": 0.41732283464566927,
                    "duration": 1.7142860000000013
                },
                {
                    "name": "A3",
                    "midi": 57,
                    "time": 22.285718000000006,
                    "velocity": 0.3228346456692913,
                    "duration": 0.8571430000000007
                },
                {
                    "name": "F4",
                    "midi": 65,
                    "time": 22.285718000000006,
                    "velocity": 0.3228346456692913,
                    "duration": 0.8571430000000007
                },
                {
                    "name": "E4",
                    "midi": 64,
                    "time": 23.142861000000007,
                    "velocity": 0.2755905511811024,
                    "duration": 0.8571430000000007
                },
                {
                    "name": "C4",
                    "midi": 60,
                    "time": 23.142861000000007,
                    "velocity": 0.2755905511811024,
                    "duration": 1.285714500000001
                },
                {
                    "name": "F4",
                    "midi": 65,
                    "time": 24.000004000000008,
                    "velocity": 0.2440944881889764,
                    "duration": 0.4285715000000003
                },
                {
                    "name": "F3",
                    "midi": 53,
                    "time": 24.000004000000008,
                    "velocity": 0.2440944881889764,
                    "duration": 0.4285715000000003
                },
                {
                    "name": "C3",
                    "midi": 48,
                    "time": 24.85714700000001,
                    "velocity": 0.13385826771653545,
                    "duration": 0.6428572499999987
                },
                {
                    "name": "C#3",
                    "midi": 49,
                    "time": 25.500004250000007,
                    "velocity": 0.11811023622047244,
                    "duration": 0.10714287500000097
                },
                {
                    "name": "C3",
                    "midi": 48,
                    "time": 25.607147125000008,
                    "velocity": 0.12598425196850394,
                    "duration": 0.10714287500000097
                },
                {
                    "name": "B2",
                    "midi": 47,
                    "time": 25.71429000000001,
                    "velocity": 0.15748031496062992,
                    "duration": 0.6428572499999987
                },
                {
                    "name": "C3",
                    "midi": 48,
                    "time": 26.357147250000008,
                    "velocity": 0.12598425196850394,
                    "duration": 0.10714287500000097
                },
                {
                    "name": "C#3",
                    "midi": 49,
                    "time": 26.46429012500001,
                    "velocity": 0.12598425196850394,
                    "duration": 0.10714287500000097
                },
                {
                    "name": "C3",
                    "midi": 48,
                    "time": 26.57143300000001,
                    "velocity": 0.14173228346456693,
                    "duration": 0.21428575000000194
                },
                {
                    "name": "C3",
                    "midi": 48,
                    "time": 27.42857600000001,
                    "velocity": 0.2992125984251969,
                    "duration": 1.7142859999999978
                },
                {
                    "name": "E2",
                    "midi": 40,
                    "time": 27.42857600000001,
                    "velocity": 0.2992125984251969,
                    "duration": 1.7142859999999978
                },
                {
                    "name": "E3",
                    "midi": 52,
                    "time": 28.714290500000008,
                    "velocity": 0.2992125984251969,
                    "duration": 0.4285715000000003
                },
                {
                    "name": "G3",
                    "midi": 55,
                    "time": 29.142862000000008,
                    "velocity": 0.3228346456692913,
                    "duration": 0.8571430000000007
                },
                {
                    "name": "E2",
                    "midi": 40,
                    "time": 30.00000500000001,
                    "velocity": 0.3464566929133858,
                    "duration": 0.8571429999999971
                },
                {
                    "name": "C#3",
                    "midi": 49,
                    "time": 30.00000500000001,
                    "velocity": 0.3464566929133858,
                    "duration": 0.8571429999999971
                },
                {
                    "name": "G3",
                    "midi": 55,
                    "time": 30.00000500000001,
                    "velocity": 0.3464566929133858,
                    "duration": 0.8571429999999971
                },
                {
                    "name": "F2",
                    "midi": 41,
                    "time": 30.857148000000006,
                    "velocity": 0.33070866141732286,
                    "duration": 1.7142859999999978
                },
                {
                    "name": "D3",
                    "midi": 50,
                    "time": 30.857148000000006,
                    "velocity": 0.33070866141732286,
                    "duration": 1.285714500000001
                },
                {
                    "name": "F3",
                    "midi": 53,
                    "time": 32.14286250000001,
                    "velocity": 0.3464566929133858,
                    "duration": 0.4285714999999968
                },
                {
                    "name": "A#3",
                    "midi": 58,
                    "time": 32.571434,
                    "velocity": 0.4015748031496063,
                    "duration": 0.8571430000000007
                },
                {
                    "name": "D3",
                    "midi": 50,
                    "time": 33.428577000000004,
                    "velocity": 0.4566929133858268,
                    "duration": 0.8571429999999935
                },
                {
                    "name": "A#3",
                    "midi": 58,
                    "time": 33.428577000000004,
                    "velocity": 0.4566929133858268,
                    "duration": 0.8571429999999935
                },
                {
                    "name": "D3",
                    "midi": 50,
                    "time": 34.28572,
                    "velocity": 0.4881889763779528,
                    "duration": 2.571428999999995
                },
                {
                    "name": "C4",
                    "midi": 60,
                    "time": 34.28572,
                    "velocity": 0.4881889763779528,
                    "duration": 1.7142859999999942
                },
                {
                    "name": "A3",
                    "midi": 57,
                    "time": 34.28572,
                    "velocity": 0.4881889763779528,
                    "duration": 1.7142859999999942
                },
                {
                    "name": "A#3",
                    "midi": 58,
                    "time": 36.00000599999999,
                    "velocity": 0.4330708661417323,
                    "duration": 0.8571430000000007
                },
                {
                    "name": "A2",
                    "midi": 45,
                    "time": 36.85714899999999,
                    "velocity": 0.4251968503937008,
                    "duration": 0.8571430000000007
                },
                {
                    "name": "A3",
                    "midi": 57,
                    "time": 36.85714899999999,
                    "velocity": 0.4251968503937008,
                    "duration": 0.8571430000000007
                },
                {
                    "name": "G3",
                    "midi": 55,
                    "time": 37.71429199999999,
                    "velocity": 0.4566929133858268,
                    "duration": 1.7142859999999942
                },
                {
                    "name": "A#3",
                    "midi": 58,
                    "time": 37.71429199999999,
                    "velocity": 0.4566929133858268,
                    "duration": 1.7142859999999942
                },
                {
                    "name": "A2",
                    "midi": 45,
                    "time": 37.71429199999999,
                    "velocity": 0.4566929133858268,
                    "duration": 2.571428999999995
                },
                {
                    "name": "A3",
                    "midi": 57,
                    "time": 39.42857799999999,
                    "velocity": 0.3700787401574803,
                    "duration": 0.8535715708333314
                },
                {
                    "name": "F3",
                    "midi": 53,
                    "time": 40.28572099999999,
                    "velocity": 0.25984251968503935,
                    "duration": 0.8571429999999935
                },
                {
                    "name": "C3",
                    "midi": 48,
                    "time": 40.28572099999999,
                    "velocity": 0.25984251968503935,
                    "duration": 0.8571429999999935
                },
                {
                    "name": "F2",
                    "midi": 41,
                    "time": 40.28572099999999,
                    "velocity": 0.25984251968503935,
                    "duration": 0.8571429999999935
                },
                {
                    "name": "E2",
                    "midi": 40,
                    "time": 41.14286399999998,
                    "velocity": 0.2992125984251969,
                    "duration": 1.7142860000000013
                },
                {
                    "name": "C3",
                    "midi": 48,
                    "time": 41.14286399999998,
                    "velocity": 0.2992125984251969,
                    "duration": 1.7142860000000013
                },
                {
                    "name": "G3",
                    "midi": 55,
                    "time": 41.14286399999998,
                    "velocity": 0.2992125984251969,
                    "duration": 1.6607145625000044
                },
                {
                    "name": "A2",
                    "midi": 45,
                    "time": 44.571435999999984,
                    "velocity": 0.2755905511811024,
                    "duration": 1.7142859999999942
                },
                {
                    "name": "D3",
                    "midi": 50,
                    "time": 44.571435999999984,
                    "velocity": 0.2755905511811024,
                    "duration": 1.7142859999999942
                },
                {
                    "name": "D2",
                    "midi": 38,
                    "time": 44.571435999999984,
                    "velocity": 0.2755905511811024,
                    "duration": 1.7142859999999942
                },
                {
                    "name": "C2",
                    "midi": 36,
                    "time": 46.28572199999998,
                    "velocity": 0.25984251968503935,
                    "duration": 1.7142860000000013
                },
                {
                    "name": "C3",
                    "midi": 48,
                    "time": 46.28572199999998,
                    "velocity": 0.25984251968503935,
                    "duration": 2.142857500000005
                },
                {
                    "name": "F2",
                    "midi": 41,
                    "time": 48.00000799999998,
                    "velocity": 0.2047244094488189,
                    "duration": 0.4285715000000039
                },
                {
                    "name": "C3",
                    "midi": 48,
                    "time": 48.85715099999998,
                    "velocity": 0.13385826771653545,
                    "duration": 0.6428572499999987
                },
                {
                    "name": "C#3",
                    "midi": 49,
                    "time": 49.50000824999998,
                    "velocity": 0.11811023622047244,
                    "duration": 0.10714287500000097
                },
                {
                    "name": "C3",
                    "midi": 48,
                    "time": 49.60715112499998,
                    "velocity": 0.12598425196850394,
                    "duration": 0.10714287500000097
                },
                {
                    "name": "B2",
                    "midi": 47,
                    "time": 49.71429399999998,
                    "velocity": 0.15748031496062992,
                    "duration": 0.6428572499999987
                },
                {
                    "name": "C3",
                    "midi": 48,
                    "time": 50.35715124999998,
                    "velocity": 0.12598425196850394,
                    "duration": 0.10714287500000097
                },
                {
                    "name": "C#3",
                    "midi": 49,
                    "time": 50.46429412499998,
                    "velocity": 0.12598425196850394,
                    "duration": 0.10714287500000097
                },
                {
                    "name": "C3",
                    "midi": 48,
                    "time": 50.57143699999998,
                    "velocity": 0.14173228346456693,
                    "duration": 0.21428575000000194
                },
                {
                    "name": "C4",
                    "midi": 60,
                    "time": 51.42857999999998,
                    "velocity": 0.2992125984251969,
                    "duration": 1.7142859999999942
                },
                {
                    "name": "G4",
                    "midi": 67,
                    "time": 51.42857999999998,
                    "velocity": 0.2992125984251969,
                    "duration": 1.6607145624999973
                },
                {
                    "name": "E3",
                    "midi": 52,
                    "time": 51.42857999999998,
                    "velocity": 0.2992125984251969,
                    "duration": 1.7142859999999942
                },
                {
                    "name": "A3",
                    "midi": 57,
                    "time": 54.85715199999998,
                    "velocity": 0.2755905511811024,
                    "duration": 1.7142860000000084
                },
                {
                    "name": "D4",
                    "midi": 62,
                    "time": 54.85715199999998,
                    "velocity": 0.2755905511811024,
                    "duration": 1.7142860000000084
                },
                {
                    "name": "D3",
                    "midi": 50,
                    "time": 54.85715199999998,
                    "velocity": 0.2755905511811024,
                    "duration": 1.7142860000000084
                },
                {
                    "name": "C3",
                    "midi": 48,
                    "time": 56.571437999999986,
                    "velocity": 0.25984251968503935,
                    "duration": 1.7142860000000013
                },
                {
                    "name": "C4",
                    "midi": 60,
                    "time": 56.571437999999986,
                    "velocity": 0.25984251968503935,
                    "duration": 2.142857500000005
                },
                {
                    "name": "A#3",
                    "midi": 58,
                    "time": 56.571437999999986,
                    "velocity": 0.25984251968503935,
                    "duration": 1.7142860000000013
                },
                {
                    "name": "A3",
                    "midi": 57,
                    "time": 58.28572399999999,
                    "velocity": 0.2047244094488189,
                    "duration": 0.4285715000000039
                },
                {
                    "name": "F3",
                    "midi": 53,
                    "time": 58.28572399999999,
                    "velocity": 0.2047244094488189,
                    "duration": 0.4285715000000039
                },
                {
                    "name": "C4",
                    "midi": 60,
                    "time": 59.14286699999999,
                    "velocity": 0.13385826771653545,
                    "duration": 0.6428572499999987
                },
                {
                    "name": "C#4",
                    "midi": 61,
                    "time": 59.78572424999999,
                    "velocity": 0.11811023622047244,
                    "duration": 0.10714287500000097
                },
                {
                    "name": "C4",
                    "midi": 60,
                    "time": 59.89286712499999,
                    "velocity": 0.12598425196850394,
                    "duration": 0.10714287500000097
                },
                {
                    "name": "B3",
                    "midi": 59,
                    "time": 60.00000999999999,
                    "velocity": 0.15748031496062992,
                    "duration": 0.6428572499999987
                },
                {
                    "name": "C4",
                    "midi": 60,
                    "time": 60.64286724999999,
                    "velocity": 0.12598425196850394,
                    "duration": 0.10714287500000097
                },
                {
                    "name": "C#4",
                    "midi": 61,
                    "time": 60.75001012499999,
                    "velocity": 0.12598425196850394,
                    "duration": 0.10714287500000097
                },
                {
                    "name": "C4",
                    "midi": 60,
                    "time": 60.85715299999999,
                    "velocity": 0.14173228346456693,
                    "duration": 0.21428575000000194
                },
                {
                    "name": "F3",
                    "midi": 53,
                    "time": 62.57143899999999,
                    "velocity": 0.25984251968503935,
                    "duration": 0.6428572499999987
                },
                {
                    "name": "F#3",
                    "midi": 54,
                    "time": 63.21429624999999,
                    "velocity": 0.2204724409448819,
                    "duration": 0.10714287500000097
                },
                {
                    "name": "F3",
                    "midi": 53,
                    "time": 63.32143912499999,
                    "velocity": 0.23622047244094488,
                    "duration": 0.10714287500000097
                },
                {
                    "name": "E3",
                    "midi": 52,
                    "time": 63.42858199999999,
                    "velocity": 0.30708661417322836,
                    "duration": 0.6428572499999916
                },
                {
                    "name": "F3",
                    "midi": 53,
                    "time": 64.07143924999998,
                    "velocity": 0.2755905511811024,
                    "duration": 0.10714287499999386
                },
                {
                    "name": "F#3",
                    "midi": 54,
                    "time": 64.17858212499998,
                    "velocity": 0.2992125984251969,
                    "duration": 0.10714287499999386
                },
                {
                    "name": "F3",
                    "midi": 53,
                    "time": 64.28572499999997,
                    "velocity": 0.33858267716535434,
                    "duration": 0.6428572500000058
                },
                {
                    "name": "D#3",
                    "midi": 51,
                    "time": 64.92858224999998,
                    "velocity": 0.3228346456692913,
                    "duration": 0.10714287499999386
                },
                {
                    "name": "C#3",
                    "midi": 49,
                    "time": 65.03572512499997,
                    "velocity": 0.36220472440944884,
                    "duration": 0.10714287499999386
                },
                {
                    "name": "C3",
                    "midi": 48,
                    "time": 65.14286799999996,
                    "velocity": 0.4330708661417323,
                    "duration": 0.6428572500000058
                },
                {
                    "name": "C#3",
                    "midi": 49,
                    "time": 65.78572524999997,
                    "velocity": 0.31496062992125984,
                    "duration": 0.10714287499999386
                },
                {
                    "name": "D#3",
                    "midi": 51,
                    "time": 65.89286812499996,
                    "velocity": 0.3228346456692913,
                    "duration": 0.10714287499999386
                },
                {
                    "name": "C#3",
                    "midi": 49,
                    "time": 66.00001099999996,
                    "velocity": 0.4566929133858268,
                    "duration": 0.6428572500000058
                },
                {
                    "name": "C3",
                    "midi": 48,
                    "time": 66.64286824999996,
                    "velocity": 0.4566929133858268,
                    "duration": 0.10714287499999386
                },
                {
                    "name": "A#2",
                    "midi": 46,
                    "time": 66.75001112499996,
                    "velocity": 0.4566929133858268,
                    "duration": 0.10714287499999386
                },
                {
                    "name": "A2",
                    "midi": 45,
                    "time": 66.85715399999995,
                    "velocity": 0.5354330708661418,
                    "duration": 0.6428572500000058
                },
                {
                    "name": "A#2",
                    "midi": 46,
                    "time": 67.50001124999996,
                    "velocity": 0.49606299212598426,
                    "duration": 0.10714287499999386
                },
                {
                    "name": "C3",
                    "midi": 48,
                    "time": 67.60715412499995,
                    "velocity": 0.49606299212598426,
                    "duration": 0.10714287499999386
                },
                {
                    "name": "A#2",
                    "midi": 46,
                    "time": 67.71429699999995,
                    "velocity": 0.5984251968503937,
                    "duration": 0.6428572499999916
                },
                {
                    "name": "G#2",
                    "midi": 44,
                    "time": 68.35715424999994,
                    "velocity": 0.5196850393700787,
                    "duration": 0.10714287499999386
                },
                {
                    "name": "F#2",
                    "midi": 42,
                    "time": 68.46429712499993,
                    "velocity": 0.5748031496062992,
                    "duration": 0.10714287499999386
                },
                {
                    "name": "G#2",
                    "midi": 44,
                    "time": 68.57143999999992,
                    "velocity": 0.49606299212598426,
                    "duration": 1.7142860000000013
                },
                {
                    "name": "C#3",
                    "midi": 49,
                    "time": 68.57143999999992,
                    "velocity": 0.49606299212598426,
                    "duration": 1.7142860000000013
                },
                {
                    "name": "F2",
                    "midi": 41,
                    "time": 68.57143999999992,
                    "velocity": 0.41732283464566927,
                    "duration": 1.7142860000000013
                },
                {
                    "name": "C#2",
                    "midi": 37,
                    "time": 70.28572599999993,
                    "velocity": 0.49606299212598426,
                    "duration": 1.7142860000000013
                },
                {
                    "name": "G#1",
                    "midi": 32,
                    "time": 72.00001199999993,
                    "velocity": 0.49606299212598426,
                    "duration": 0.28571433333331697
                },
                {
                    "name": "D#2",
                    "midi": 39,
                    "time": 72.28572633333324,
                    "velocity": 0.4330708661417323,
                    "duration": 0.2857143333333312
                },
                {
                    "name": "D#2",
                    "midi": 39,
                    "time": 72.57144066666658,
                    "velocity": 0.4330708661417323,
                    "duration": 0.21428575000000194
                },
                {
                    "name": "D#2",
                    "midi": 39,
                    "time": 72.8571549999999,
                    "velocity": 0.48031496062992124,
                    "duration": 0.2857143333333312
                },
                {
                    "name": "G#2",
                    "midi": 44,
                    "time": 73.14286933333324,
                    "velocity": 0.4330708661417323,
                    "duration": 0.2857143333333312
                },
                {
                    "name": "G#2",
                    "midi": 44,
                    "time": 73.42858366666657,
                    "velocity": 0.4330708661417323,
                    "duration": 0.21428575000000194
                },
                {
                    "name": "A#2",
                    "midi": 46,
                    "time": 73.7142979999999,
                    "velocity": 0.47244094488188976,
                    "duration": 1.714285999999987
                },
                {
                    "name": "F1",
                    "midi": 29,
                    "time": 75.42858399999989,
                    "velocity": 0.4645669291338583,
                    "duration": 0.2857143333333312
                },
                {
                    "name": "C2",
                    "midi": 36,
                    "time": 75.71429833333322,
                    "velocity": 0.4251968503937008,
                    "duration": 0.2857143333333312
                },
                {
                    "name": "C2",
                    "midi": 36,
                    "time": 76.00001266666655,
                    "velocity": 0.4251968503937008,
                    "duration": 0.21428575000000194
                },
                {
                    "name": "C2",
                    "midi": 36,
                    "time": 76.28572699999988,
                    "velocity": 0.4566929133858268,
                    "duration": 0.2857143333333312
                },
                {
                    "name": "F2",
                    "midi": 41,
                    "time": 76.57144133333321,
                    "velocity": 0.41732283464566927,
                    "duration": 0.2857143333333312
                },
                {
                    "name": "F2",
                    "midi": 41,
                    "time": 76.85715566666654,
                    "velocity": 0.41732283464566927,
                    "duration": 0.21428575000000194
                },
                {
                    "name": "F#2",
                    "midi": 42,
                    "time": 77.14286999999987,
                    "velocity": 0.4645669291338583,
                    "duration": 1.7142860000000013
                },
                {
                    "name": "F#2",
                    "midi": 42,
                    "time": 78.85715599999988,
                    "velocity": 0.2755905511811024,
                    "duration": 0.07142858333332924
                },
                {
                    "name": "G#2",
                    "midi": 44,
                    "time": 78.9285845833332,
                    "velocity": 0.3543307086614173,
                    "duration": 0.07142858333334345
                },
                {
                    "name": "F#2",
                    "midi": 42,
                    "time": 79.00001316666655,
                    "velocity": 0.2992125984251969,
                    "duration": 0.07142858333332924
                },
                {
                    "name": "G#2",
                    "midi": 44,
                    "time": 79.07144174999988,
                    "velocity": 0.3543307086614173,
                    "duration": 0.07142858333332924
                },
                {
                    "name": "F#2",
                    "midi": 42,
                    "time": 79.1428703333332,
                    "velocity": 0.2992125984251969,
                    "duration": 0.07142858333332924
                },
                {
                    "name": "G#2",
                    "midi": 44,
                    "time": 79.21429891666654,
                    "velocity": 0.36220472440944884,
                    "duration": 0.07142858333332924
                },
                {
                    "name": "F#2",
                    "midi": 42,
                    "time": 79.28572749999987,
                    "velocity": 0.29133858267716534,
                    "duration": 0.07142858333332924
                },
                {
                    "name": "G#2",
                    "midi": 44,
                    "time": 79.3571560833332,
                    "velocity": 0.3700787401574803,
                    "duration": 0.07142858333332924
                },
                {
                    "name": "F#2",
                    "midi": 42,
                    "time": 79.42858466666652,
                    "velocity": 0.31496062992125984,
                    "duration": 0.07142858333332924
                },
                {
                    "name": "G#2",
                    "midi": 44,
                    "time": 79.50001324999985,
                    "velocity": 0.3779527559055118,
                    "duration": 0.07142858333332924
                },
                {
                    "name": "F#2",
                    "midi": 42,
                    "time": 79.57144183333318,
                    "velocity": 0.31496062992125984,
                    "duration": 0.07142858333332924
                },
                {
                    "name": "G#2",
                    "midi": 44,
                    "time": 79.64287041666651,
                    "velocity": 0.3858267716535433,
                    "duration": 0.07142858333332924
                },
                {
                    "name": "F#2",
                    "midi": 42,
                    "time": 79.71429899999984,
                    "velocity": 0.31496062992125984,
                    "duration": 0.07142858333332924
                },
                {
                    "name": "G#2",
                    "midi": 44,
                    "time": 79.78572758333317,
                    "velocity": 0.3937007874015748,
                    "duration": 0.07142858333332924
                },
                {
                    "name": "F#2",
                    "midi": 42,
                    "time": 79.8571561666665,
                    "velocity": 0.33858267716535434,
                    "duration": 0.07142858333332924
                },
                {
                    "name": "G#2",
                    "midi": 44,
                    "time": 79.92858474999983,
                    "velocity": 0.4094488188976378,
                    "duration": 0.07142858333332924
                },
                {
                    "name": "F#2",
                    "midi": 42,
                    "time": 80.00001333333316,
                    "velocity": 0.33858267716535434,
                    "duration": 0.07142858333332924
                },
                {
                    "name": "G#2",
                    "midi": 44,
                    "time": 80.07144191666649,
                    "velocity": 0.41732283464566927,
                    "duration": 0.07142858333332924
                },
                {
                    "name": "F#2",
                    "midi": 42,
                    "time": 80.14287049999982,
                    "velocity": 0.33858267716535434,
                    "duration": 0.07142858333332924
                },
                {
                    "name": "G#2",
                    "midi": 44,
                    "time": 80.21429908333315,
                    "velocity": 0.4251968503937008,
                    "duration": 0.07142858333332924
                },
                {
                    "name": "F#2",
                    "midi": 42,
                    "time": 80.28572766666647,
                    "velocity": 0.36220472440944884,
                    "duration": 0.07142858333332924
                },
                {
                    "name": "G#2",
                    "midi": 44,
                    "time": 80.3571562499998,
                    "velocity": 0.4251968503937008,
                    "duration": 0.07142858333332924
                },
                {
                    "name": "F#2",
                    "midi": 42,
                    "time": 80.42858483333313,
                    "velocity": 0.3700787401574803,
                    "duration": 0.07142858333332924
                },
                {
                    "name": "G#2",
                    "midi": 44,
                    "time": 80.50001341666646,
                    "velocity": 0.4330708661417323,
                    "duration": 0.07142858333332924
                },
                {
                    "name": "F#2",
                    "midi": 42,
                    "time": 80.57144199999979,
                    "velocity": 0.36220472440944884,
                    "duration": 0.07142858333332924
                },
                {
                    "name": "G#2",
                    "midi": 44,
                    "time": 80.64287058333312,
                    "velocity": 0.44881889763779526,
                    "duration": 0.07142858333332924
                },
                {
                    "name": "F#2",
                    "midi": 42,
                    "time": 80.71429916666645,
                    "velocity": 0.3779527559055118,
                    "duration": 0.07142858333332924
                },
                {
                    "name": "G#2",
                    "midi": 44,
                    "time": 80.78572774999978,
                    "velocity": 0.4566929133858268,
                    "duration": 0.07142858333332924
                },
                {
                    "name": "F#2",
                    "midi": 42,
                    "time": 80.85715633333311,
                    "velocity": 0.3858267716535433,
                    "duration": 0.07142858333332924
                },
                {
                    "name": "G#2",
                    "midi": 44,
                    "time": 80.92858491666644,
                    "velocity": 0.4645669291338583,
                    "duration": 0.07142858333332924
                },
                {
                    "name": "F#2",
                    "midi": 42,
                    "time": 81.00001349999977,
                    "velocity": 0.3858267716535433,
                    "duration": 0.07142858333332924
                },
                {
                    "name": "G#2",
                    "midi": 44,
                    "time": 81.0714420833331,
                    "velocity": 0.48031496062992124,
                    "duration": 0.07142858333332924
                },
                {
                    "name": "F#2",
                    "midi": 42,
                    "time": 81.14287066666643,
                    "velocity": 0.4015748031496063,
                    "duration": 0.07142858333332924
                },
                {
                    "name": "G#2",
                    "midi": 44,
                    "time": 81.21429924999975,
                    "velocity": 0.48031496062992124,
                    "duration": 0.07142858333332924
                },
                {
                    "name": "F#2",
                    "midi": 42,
                    "time": 81.28572783333308,
                    "velocity": 0.4094488188976378,
                    "duration": 0.07142858333332924
                },
                {
                    "name": "G#2",
                    "midi": 44,
                    "time": 81.35715641666641,
                    "velocity": 0.49606299212598426,
                    "duration": 0.07142858333332924
                },
                {
                    "name": "F#2",
                    "midi": 42,
                    "time": 81.42858499999974,
                    "velocity": 0.4015748031496063,
                    "duration": 0.07142858333332924
                },
                {
                    "name": "G#2",
                    "midi": 44,
                    "time": 81.50001358333307,
                    "velocity": 0.5039370078740157,
                    "duration": 0.07142858333332924
                },
                {
                    "name": "F#2",
                    "midi": 42,
                    "time": 81.5714421666664,
                    "velocity": 0.4251968503937008,
                    "duration": 0.07142858333332924
                },
                {
                    "name": "G#2",
                    "midi": 44,
                    "time": 81.64287074999973,
                    "velocity": 0.5039370078740157,
                    "duration": 0.07142858333332924
                },
                {
                    "name": "F#2",
                    "midi": 42,
                    "time": 81.71429933333306,
                    "velocity": 0.4251968503937008,
                    "duration": 0.07142858333332924
                },
                {
                    "name": "G#2",
                    "midi": 44,
                    "time": 81.78572791666639,
                    "velocity": 0.5196850393700787,
                    "duration": 0.07142858333332924
                },
                {
                    "name": "F#2",
                    "midi": 42,
                    "time": 81.85715649999972,
                    "velocity": 0.4251968503937008,
                    "duration": 0.07142858333332924
                },
                {
                    "name": "G#2",
                    "midi": 44,
                    "time": 81.92858508333305,
                    "velocity": 0.5275590551181102,
                    "duration": 0.07142858333332924
                },
                {
                    "name": "F#2",
                    "midi": 42,
                    "time": 82.00001366666638,
                    "velocity": 0.4566929133858268,
                    "duration": 0.07142858333332924
                },
                {
                    "name": "G#2",
                    "midi": 44,
                    "time": 82.0714422499997,
                    "velocity": 0.5433070866141733,
                    "duration": 0.07142858333332924
                },
                {
                    "name": "F#2",
                    "midi": 42,
                    "time": 82.14287083333303,
                    "velocity": 0.4566929133858268,
                    "duration": 0.07142858333332924
                },
                {
                    "name": "G#2",
                    "midi": 44,
                    "time": 82.21429941666636,
                    "velocity": 0.3464566929133858,
                    "duration": 0.07142858333332924
                },
                {
                    "name": "F#2",
                    "midi": 42,
                    "time": 82.2857279999997,
                    "velocity": 0.6456692913385826,
                    "duration": 0.2857143333333312
                },
                {
                    "name": "F#1",
                    "midi": 30,
                    "time": 82.2857279999997,
                    "velocity": 0.5433070866141733,
                    "duration": 0.2857143333333312
                },
                {
                    "name": "F1",
                    "midi": 29,
                    "time": 82.57144233333302,
                    "velocity": 0.4881889763779528,
                    "duration": 0.2857143333333312
                },
                {
                    "name": "F2",
                    "midi": 41,
                    "time": 82.57144233333302,
                    "velocity": 0.5748031496062992,
                    "duration": 0.2857143333333312
                },
                {
                    "name": "F1",
                    "midi": 29,
                    "time": 82.85715666666636,
                    "velocity": 0.4881889763779528,
                    "duration": 0.21428575000000194
                },
                {
                    "name": "F2",
                    "midi": 41,
                    "time": 82.85715666666636,
                    "velocity": 0.5826771653543307,
                    "duration": 0.21428575000000194
                },
                {
                    "name": "F#2",
                    "midi": 42,
                    "time": 83.14287099999969,
                    "velocity": 0.6456692913385826,
                    "duration": 0.8571430000000078
                },
                {
                    "name": "F#1",
                    "midi": 30,
                    "time": 83.14287099999969,
                    "velocity": 0.5433070866141733,
                    "duration": 0.8571430000000078
                },
                {
                    "name": "F#2",
                    "midi": 42,
                    "time": 84.0000139999997,
                    "velocity": 0.6456692913385826,
                    "duration": 0.2857143333333312
                },
                {
                    "name": "F#1",
                    "midi": 30,
                    "time": 84.0000139999997,
                    "velocity": 0.5433070866141733,
                    "duration": 0.2857143333333312
                },
                {
                    "name": "F2",
                    "midi": 41,
                    "time": 84.28572833333303,
                    "velocity": 0.5748031496062992,
                    "duration": 0.2857143333333312
                },
                {
                    "name": "F1",
                    "midi": 29,
                    "time": 84.28572833333303,
                    "velocity": 0.4881889763779528,
                    "duration": 0.2857143333333312
                },
                {
                    "name": "F1",
                    "midi": 29,
                    "time": 84.57144266666636,
                    "velocity": 0.4881889763779528,
                    "duration": 0.21428575000000194
                },
                {
                    "name": "F2",
                    "midi": 41,
                    "time": 84.57144266666636,
                    "velocity": 0.5826771653543307,
                    "duration": 0.21428575000000194
                },
                {
                    "name": "F#2",
                    "midi": 42,
                    "time": 84.85715699999969,
                    "velocity": 0.6456692913385826,
                    "duration": 0.8571429999999935
                },
                {
                    "name": "F#1",
                    "midi": 30,
                    "time": 84.85715699999969,
                    "velocity": 0.5433070866141733,
                    "duration": 0.8571429999999935
                },
                {
                    "name": "G#1",
                    "midi": 32,
                    "time": 85.71429999999968,
                    "velocity": 0.5433070866141733,
                    "duration": 0.2857143333333312
                },
                {
                    "name": "G#2",
                    "midi": 44,
                    "time": 85.71429999999968,
                    "velocity": 0.6456692913385826,
                    "duration": 0.2857143333333312
                },
                {
                    "name": "G2",
                    "midi": 43,
                    "time": 86.00001433333301,
                    "velocity": 0.5748031496062992,
                    "duration": 0.2857143333333312
                },
                {
                    "name": "G1",
                    "midi": 31,
                    "time": 86.00001433333301,
                    "velocity": 0.4881889763779528,
                    "duration": 0.2857143333333312
                },
                {
                    "name": "G1",
                    "midi": 31,
                    "time": 86.28572866666634,
                    "velocity": 0.4881889763779528,
                    "duration": 0.21428575000000194
                },
                {
                    "name": "G2",
                    "midi": 43,
                    "time": 86.28572866666634,
                    "velocity": 0.5826771653543307,
                    "duration": 0.21428575000000194
                },
                {
                    "name": "G3",
                    "midi": 55,
                    "time": 86.57144299999968,
                    "velocity": 0.6456692913385826,
                    "duration": 0.8571429999999935
                },
                {
                    "name": "G2",
                    "midi": 43,
                    "time": 86.57144299999968,
                    "velocity": 0.5433070866141733,
                    "duration": 0.8571429999999935
                },
                {
                    "name": "G#2",
                    "midi": 44,
                    "time": 87.42858599999967,
                    "velocity": 0.6456692913385826,
                    "duration": 0.2857143333333312
                },
                {
                    "name": "G#1",
                    "midi": 32,
                    "time": 87.42858599999967,
                    "velocity": 0.5433070866141733,
                    "duration": 0.2857143333333312
                },
                {
                    "name": "G2",
                    "midi": 43,
                    "time": 87.714300333333,
                    "velocity": 0.5748031496062992,
                    "duration": 0.2857143333333312
                },
                {
                    "name": "G1",
                    "midi": 31,
                    "time": 87.714300333333,
                    "velocity": 0.4881889763779528,
                    "duration": 0.2857143333333312
                },
                {
                    "name": "G1",
                    "midi": 31,
                    "time": 88.00001466666633,
                    "velocity": 0.4881889763779528,
                    "duration": 0.21428575000000194
                },
                {
                    "name": "G2",
                    "midi": 43,
                    "time": 88.00001466666633,
                    "velocity": 0.5826771653543307,
                    "duration": 0.21428575000000194
                },
                {
                    "name": "G2",
                    "midi": 43,
                    "time": 88.28572899999966,
                    "velocity": 0.5433070866141733,
                    "duration": 0.8571430000000078
                },
                {
                    "name": "G3",
                    "midi": 55,
                    "time": 88.28572899999966,
                    "velocity": 0.6456692913385826,
                    "duration": 0.8571430000000078
                },
                {
                    "name": "G2",
                    "midi": 43,
                    "time": 89.14287199999967,
                    "velocity": 0.5433070866141733,
                    "duration": 0.2857143333333312
                },
                {
                    "name": "G1",
                    "midi": 31,
                    "time": 89.14287199999967,
                    "velocity": 0.4566929133858268,
                    "duration": 0.2857143333333312
                },
                {
                    "name": "G3",
                    "midi": 55,
                    "time": 89.428586333333,
                    "velocity": 0.4409448818897638,
                    "duration": 0.2857143333333312
                },
                {
                    "name": "G2",
                    "midi": 43,
                    "time": 89.428586333333,
                    "velocity": 0.3700787401574803,
                    "duration": 0.2857143333333312
                },
                {
                    "name": "G2",
                    "midi": 43,
                    "time": 89.71430066666633,
                    "velocity": 0.3779527559055118,
                    "duration": 0.21428575000000194
                },
                {
                    "name": "G3",
                    "midi": 55,
                    "time": 89.71430066666633,
                    "velocity": 0.44881889763779526,
                    "duration": 0.21428575000000194
                },
                {
                    "name": "G2",
                    "midi": 43,
                    "time": 90.00001499999966,
                    "velocity": 0.5590551181102362,
                    "duration": 0.2857143333333312
                },
                {
                    "name": "G1",
                    "midi": 31,
                    "time": 90.00001499999966,
                    "velocity": 0.47244094488188976,
                    "duration": 0.2857143333333312
                },
                {
                    "name": "G3",
                    "midi": 55,
                    "time": 90.285729333333,
                    "velocity": 0.4645669291338583,
                    "duration": 0.2857143333333312
                },
                {
                    "name": "G2",
                    "midi": 43,
                    "time": 90.285729333333,
                    "velocity": 0.3937007874015748,
                    "duration": 0.2857143333333312
                },
                {
                    "name": "G3",
                    "midi": 55,
                    "time": 90.57144366666633,
                    "velocity": 0.4645669291338583,
                    "duration": 0.21428575000000194
                },
                {
                    "name": "G2",
                    "midi": 43,
                    "time": 90.57144366666633,
                    "velocity": 0.3937007874015748,
                    "duration": 0.21428575000000194
                },
                {
                    "name": "G1",
                    "midi": 31,
                    "time": 90.85715799999966,
                    "velocity": 0.4881889763779528,
                    "duration": 0.2857143333333312
                },
                {
                    "name": "G2",
                    "midi": 43,
                    "time": 90.85715799999966,
                    "velocity": 0.5826771653543307,
                    "duration": 0.2857143333333312
                },
                {
                    "name": "G3",
                    "midi": 55,
                    "time": 91.14287233333299,
                    "velocity": 0.5039370078740157,
                    "duration": 0.2857143333333312
                },
                {
                    "name": "G2",
                    "midi": 43,
                    "time": 91.14287233333299,
                    "velocity": 0.4251968503937008,
                    "duration": 0.2857143333333312
                },
                {
                    "name": "G2",
                    "midi": 43,
                    "time": 91.42858666666632,
                    "velocity": 0.4251968503937008,
                    "duration": 0.21428575000000194
                },
                {
                    "name": "G3",
                    "midi": 55,
                    "time": 91.42858666666632,
                    "velocity": 0.5039370078740157,
                    "duration": 0.21428575000000194
                },
                {
                    "name": "G1",
                    "midi": 31,
                    "time": 91.71430099999965,
                    "velocity": 0.5118110236220472,
                    "duration": 0.2857143333333312
                },
                {
                    "name": "G2",
                    "midi": 43,
                    "time": 91.71430099999965,
                    "velocity": 0.6062992125984252,
                    "duration": 0.2857143333333312
                },
                {
                    "name": "G2",
                    "midi": 43,
                    "time": 92.00001533333298,
                    "velocity": 0.44881889763779526,
                    "duration": 0.2857143333333312
                },
                {
                    "name": "G3",
                    "midi": 55,
                    "time": 92.00001533333298,
                    "velocity": 0.5354330708661418,
                    "duration": 0.2857143333333312
                },
                {
                    "name": "G2",
                    "midi": 43,
                    "time": 92.28572966666631,
                    "velocity": 0.44881889763779526,
                    "duration": 0.21428575000000194
                },
                {
                    "name": "G3",
                    "midi": 55,
                    "time": 92.28572966666631,
                    "velocity": 0.5354330708661418,
                    "duration": 0.21428575000000194
                },
                {
                    "name": "G2",
                    "midi": 43,
                    "time": 92.57144399999964,
                    "velocity": 0.6535433070866141,
                    "duration": 0.2857143333333312
                },
                {
                    "name": "G1",
                    "midi": 31,
                    "time": 92.57144399999964,
                    "velocity": 0.5511811023622047,
                    "duration": 0.2857143333333312
                },
                {
                    "name": "G2",
                    "midi": 43,
                    "time": 92.85715833333298,
                    "velocity": 0.4881889763779528,
                    "duration": 0.2857143333333312
                },
                {
                    "name": "G3",
                    "midi": 55,
                    "time": 92.85715833333298,
                    "velocity": 0.5826771653543307,
                    "duration": 0.2857143333333312
                },
                {
                    "name": "G2",
                    "midi": 43,
                    "time": 93.1428726666663,
                    "velocity": 0.4881889763779528,
                    "duration": 0.21428575000000194
                },
                {
                    "name": "G3",
                    "midi": 55,
                    "time": 93.1428726666663,
                    "velocity": 0.5826771653543307,
                    "duration": 0.21428575000000194
                },
                {
                    "name": "G2",
                    "midi": 43,
                    "time": 93.42858699999964,
                    "velocity": 0.6771653543307087,
                    "duration": 0.2857143333333312
                },
                {
                    "name": "G1",
                    "midi": 31,
                    "time": 93.42858699999964,
                    "velocity": 0.5748031496062992,
                    "duration": 0.2857143333333312
                },
                {
                    "name": "G3",
                    "midi": 55,
                    "time": 93.71430133333297,
                    "velocity": 0.5905511811023622,
                    "duration": 0.2857143333333312
                },
                {
                    "name": "G2",
                    "midi": 43,
                    "time": 93.71430133333297,
                    "velocity": 0.49606299212598426,
                    "duration": 0.2857143333333312
                },
                {
                    "name": "G3",
                    "midi": 55,
                    "time": 94.0000156666663,
                    "velocity": 0.5905511811023622,
                    "duration": 0.21428575000000194
                },
                {
                    "name": "G2",
                    "midi": 43,
                    "time": 94.0000156666663,
                    "velocity": 0.49606299212598426,
                    "duration": 0.21428575000000194
                },
                {
                    "name": "G1",
                    "midi": 31,
                    "time": 94.28572999999963,
                    "velocity": 0.6456692913385826,
                    "duration": 0.28571433333331697
                },
                {
                    "name": "G2",
                    "midi": 43,
                    "time": 94.28572999999963,
                    "velocity": 0.7637795275590551,
                    "duration": 0.28571433333331697
                },
                {
                    "name": "G3",
                    "midi": 55,
                    "time": 94.57144433333295,
                    "velocity": 0.6062992125984252,
                    "duration": 0.2857143333333312
                },
                {
                    "name": "G2",
                    "midi": 43,
                    "time": 94.57144433333295,
                    "velocity": 0.5118110236220472,
                    "duration": 0.2857143333333312
                },
                {
                    "name": "G2",
                    "midi": 43,
                    "time": 94.85715866666628,
                    "velocity": 0.5118110236220472,
                    "duration": 0.21428575000000194
                },
                {
                    "name": "G3",
                    "midi": 55,
                    "time": 94.85715866666628,
                    "velocity": 0.6062992125984252,
                    "duration": 0.21428575000000194
                },
                {
                    "name": "G2",
                    "midi": 43,
                    "time": 95.14287299999961,
                    "velocity": 0.8267716535433071,
                    "duration": 0.2857143333333312
                },
                {
                    "name": "G1",
                    "midi": 31,
                    "time": 95.14287299999961,
                    "velocity": 0.7007874015748031,
                    "duration": 0.2857143333333312
                },
                {
                    "name": "G3",
                    "midi": 55,
                    "time": 95.42858733333294,
                    "velocity": 0.6456692913385826,
                    "duration": 0.2857143333333312
                },
                {
                    "name": "G2",
                    "midi": 43,
                    "time": 95.42858733333294,
                    "velocity": 0.5433070866141733,
                    "duration": 0.2857143333333312
                },
                {
                    "name": "G2",
                    "midi": 43,
                    "time": 95.71430166666627,
                    "velocity": 0.5433070866141733,
                    "duration": 0.21428575000000194
                },
                {
                    "name": "G3",
                    "midi": 55,
                    "time": 95.71430166666627,
                    "velocity": 0.6456692913385826,
                    "duration": 0.21428575000000194
                },
                {
                    "name": "G1",
                    "midi": 31,
                    "time": 96.0000159999996,
                    "velocity": 0.7086614173228346,
                    "duration": 0.4285715000000039
                },
                {
                    "name": "G2",
                    "midi": 43,
                    "time": 96.0000159999996,
                    "velocity": 0.84251968503937,
                    "duration": 0.4285715000000039
                },
                {
                    "name": "D4",
                    "midi": 62,
                    "time": 99.4285879999996,
                    "velocity": 0.4251968503937008,
                    "duration": 1.7142860000000013
                },
                {
                    "name": "F4",
                    "midi": 65,
                    "time": 99.4285879999996,
                    "velocity": 0.4251968503937008,
                    "duration": 1.7142860000000013
                },
                {
                    "name": "E4",
                    "midi": 64,
                    "time": 101.14287399999961,
                    "velocity": 0.31496062992125984,
                    "duration": 0.8571430000000078
                },
                {
                    "name": "C4",
                    "midi": 60,
                    "time": 101.14287399999961,
                    "velocity": 0.31496062992125984,
                    "duration": 0.8571430000000078
                },
                {
                    "name": "G3",
                    "midi": 55,
                    "time": 102.00001699999962,
                    "velocity": 0.2755905511811024,
                    "duration": 0.8571429999999935
                },
                {
                    "name": "D4",
                    "midi": 62,
                    "time": 102.00001699999962,
                    "velocity": 0.2755905511811024,
                    "duration": 0.8571429999999935
                },
                {
                    "name": "C3",
                    "midi": 48,
                    "time": 102.85715999999961,
                    "velocity": 0.3543307086614173,
                    "duration": 1.7142860000000013
                },
                {
                    "name": "G3",
                    "midi": 55,
                    "time": 102.85715999999961,
                    "velocity": 0.3543307086614173,
                    "duration": 1.7142860000000013
                },
                {
                    "name": "E3",
                    "midi": 52,
                    "time": 102.85715999999961,
                    "velocity": 0.3543307086614173,
                    "duration": 1.7142860000000013
                },
                {
                    "name": "C4",
                    "midi": 60,
                    "time": 104.1428744999996,
                    "velocity": 0.29133858267716534,
                    "duration": 0.4285715000000039
                },
                {
                    "name": "E4",
                    "midi": 64,
                    "time": 104.57144599999961,
                    "velocity": 0.3543307086614173,
                    "duration": 0.8571430000000078
                },
                {
                    "name": "A4",
                    "midi": 69,
                    "time": 105.42858899999962,
                    "velocity": 0.3779527559055118,
                    "duration": 0.8571429999999935
                },
                {
                    "name": "B2",
                    "midi": 47,
                    "time": 106.14287483333295,
                    "velocity": 0.2755905511811024,
                    "duration": 1.8571431666666598
                },
                {
                    "name": "G3",
                    "midi": 55,
                    "time": 106.21430341666628,
                    "velocity": 0.31496062992125984,
                    "duration": 1.7857145833333306
                },
                {
                    "name": "G4",
                    "midi": 67,
                    "time": 106.28573199999961,
                    "velocity": 0.3543307086614173,
                    "duration": 1.2857144999999974
                },
                {
                    "name": "F4",
                    "midi": 65,
                    "time": 107.57144649999961,
                    "velocity": 0.31496062992125984,
                    "duration": 0.4285715000000039
                },
                {
                    "name": "D4",
                    "midi": 62,
                    "time": 108.00001799999961,
                    "velocity": 0.3543307086614173,
                    "duration": 0.8571429999999935
                },
                {
                    "name": "E4",
                    "midi": 64,
                    "time": 108.8571609999996,
                    "velocity": 0.31496062992125984,
                    "duration": 0.8571429999999935
                },
                {
                    "name": "A2",
                    "midi": 45,
                    "time": 109.57144683333294,
                    "velocity": 0.2992125984251969,
                    "duration": 1.714285999999987
                },
                {
                    "name": "E3",
                    "midi": 52,
                    "time": 109.64287541666627,
                    "velocity": 0.31496062992125984,
                    "duration": 1.714285999999987
                },
                {
                    "name": "C4",
                    "midi": 60,
                    "time": 109.7143039999996,
                    "velocity": 0.3543307086614173,
                    "duration": 1.714285999999987
                },
                {
                    "name": "B2",
                    "midi": 47,
                    "time": 111.28573283333293,
                    "velocity": 0.2755905511811024,
                    "duration": 1.7142860000000013
                },
                {
                    "name": "G3",
                    "midi": 55,
                    "time": 111.35716141666626,
                    "velocity": 0.29133858267716534,
                    "duration": 1.7142860000000013
                },
                {
                    "name": "F4",
                    "midi": 65,
                    "time": 111.42858999999959,
                    "velocity": 0.31496062992125984,
                    "duration": 1.7142860000000013
                },
                {
                    "name": "C3",
                    "midi": 48,
                    "time": 113.00001883333293,
                    "velocity": 0.2440944881889764,
                    "duration": 0.3571429166666604
                },
                {
                    "name": "G3",
                    "midi": 55,
                    "time": 113.07144741666626,
                    "velocity": 0.2440944881889764,
                    "duration": 0.2857143333333312
                },
                {
                    "name": "E4",
                    "midi": 64,
                    "time": 113.14287599999959,
                    "velocity": 0.28346456692913385,
                    "duration": 0.21428575000000194
                },
                {
                    "name": "C4",
                    "midi": 60,
                    "time": 114.00001899999958,
                    "velocity": 0.16535433070866143,
                    "duration": 1.9285717500000032
                },
                {
                    "name": "G4",
                    "midi": 67,
                    "time": 114.00001899999958,
                    "velocity": 0.16535433070866143,
                    "duration": 0.8571429999999935
                },
                {
                    "name": "A4",
                    "midi": 69,
                    "time": 114.85716199999958,
                    "velocity": 0.13385826771653545,
                    "duration": 0.8571430000000078
                },
                {
                    "name": "F#4",
                    "midi": 66,
                    "time": 114.85716199999958,
                    "velocity": 0.13385826771653545,
                    "duration": 0.8571430000000078
                },
                {
                    "name": "G4",
                    "midi": 67,
                    "time": 115.71430499999958,
                    "velocity": 0.16535433070866143,
                    "duration": 0.21428575000000194
                },
                {
                    "name": "G3",
                    "midi": 55,
                    "time": 116.57144799999959,
                    "velocity": 0.3543307086614173,
                    "duration": 1.7142860000000013
                },
                {
                    "name": "E3",
                    "midi": 52,
                    "time": 116.57144799999959,
                    "velocity": 0.3543307086614173,
                    "duration": 1.7142860000000013
                },
                {
                    "name": "C3",
                    "midi": 48,
                    "time": 116.57144799999959,
                    "velocity": 0.3543307086614173,
                    "duration": 1.7142860000000013
                },
                {
                    "name": "C4",
                    "midi": 60,
                    "time": 117.85716249999959,
                    "velocity": 0.29133858267716534,
                    "duration": 0.4285715000000039
                },
                {
                    "name": "E4",
                    "midi": 64,
                    "time": 118.2857339999996,
                    "velocity": 0.3543307086614173,
                    "duration": 0.8571430000000078
                },
                {
                    "name": "C3",
                    "midi": 48,
                    "time": 119.00001983333293,
                    "velocity": 0.2755905511811024,
                    "duration": 1.0000001666666805
                },
                {
                    "name": "C4",
                    "midi": 60,
                    "time": 119.07144841666626,
                    "velocity": 0.31496062992125984,
                    "duration": 0.9285715833333512
                },
                {
                    "name": "A4",
                    "midi": 69,
                    "time": 119.1428769999996,
                    "velocity": 0.3779527559055118,
                    "duration": 0.8571430000000078
                },
                {
                    "name": "C3",
                    "midi": 48,
                    "time": 120.00001999999961,
                    "velocity": 0.41732283464566927,
                    "duration": 1.7142860000000013
                },
                {
                    "name": "A3",
                    "midi": 57,
                    "time": 120.00001999999961,
                    "velocity": 0.41732283464566927,
                    "duration": 1.7142860000000013
                },
                {
                    "name": "E3",
                    "midi": 52,
                    "time": 120.00001999999961,
                    "velocity": 0.41732283464566927,
                    "duration": 1.7142860000000013
                },
                {
                    "name": "C4",
                    "midi": 60,
                    "time": 121.2857344999996,
                    "velocity": 0.3779527559055118,
                    "duration": 0.4285715000000039
                },
                {
                    "name": "E4",
                    "midi": 64,
                    "time": 121.71430599999961,
                    "velocity": 0.4251968503937008,
                    "duration": 0.8571429999999935
                },
                {
                    "name": "E3",
                    "midi": 52,
                    "time": 122.5714489999996,
                    "velocity": 0.49606299212598426,
                    "duration": 0.2857143333333312
                },
                {
                    "name": "D4",
                    "midi": 62,
                    "time": 122.5714489999996,
                    "velocity": 0.49606299212598426,
                    "duration": 0.2857143333333312
                },
                {
                    "name": "B3",
                    "midi": 59,
                    "time": 122.5714489999996,
                    "velocity": 0.49606299212598426,
                    "duration": 0.2857143333333312
                },
                {
                    "name": "D4",
                    "midi": 62,
                    "time": 122.85716333333293,
                    "velocity": 0.4251968503937008,
                    "duration": 0.2857143333333312
                },
                {
                    "name": "E3",
                    "midi": 52,
                    "time": 122.85716333333293,
                    "velocity": 0.4251968503937008,
                    "duration": 0.2857143333333312
                },
                {
                    "name": "B3",
                    "midi": 59,
                    "time": 122.85716333333293,
                    "velocity": 0.4251968503937008,
                    "duration": 0.2857143333333312
                },
                {
                    "name": "B3",
                    "midi": 59,
                    "time": 123.14287766666627,
                    "velocity": 0.4251968503937008,
                    "duration": 0.2857143333333312
                },
                {
                    "name": "E3",
                    "midi": 52,
                    "time": 123.14287766666627,
                    "velocity": 0.4251968503937008,
                    "duration": 0.2857143333333312
                },
                {
                    "name": "D4",
                    "midi": 62,
                    "time": 123.14287766666627,
                    "velocity": 0.4251968503937008,
                    "duration": 0.2857143333333312
                },
                {
                    "name": "E3",
                    "midi": 52,
                    "time": 123.4285919999996,
                    "velocity": 0.47244094488188976,
                    "duration": 1.714285999999987
                },
                {
                    "name": "B3",
                    "midi": 59,
                    "time": 123.4285919999996,
                    "velocity": 0.47244094488188976,
                    "duration": 1.714285999999987
                },
                {
                    "name": "D4",
                    "midi": 62,
                    "time": 123.4285919999996,
                    "velocity": 0.47244094488188976,
                    "duration": 1.714285999999987
                },
                {
                    "name": "E3",
                    "midi": 52,
                    "time": 125.14287799999958,
                    "velocity": 0.36220472440944884,
                    "duration": 0.8571430000000078
                },
                {
                    "name": "C4",
                    "midi": 60,
                    "time": 125.14287799999958,
                    "velocity": 0.36220472440944884,
                    "duration": 0.8571430000000078
                },
                {
                    "name": "G3",
                    "midi": 55,
                    "time": 126.00002099999959,
                    "velocity": 0.2992125984251969,
                    "duration": 0.8571430000000078
                },
                {
                    "name": "B3",
                    "midi": 59,
                    "time": 126.00002099999959,
                    "velocity": 0.2992125984251969,
                    "duration": 0.8571430000000078
                },
                {
                    "name": "C4",
                    "midi": 60,
                    "time": 126.8571639999996,
                    "velocity": 0.29133858267716534,
                    "duration": 0.4285715000000039
                },
                {
                    "name": "C4",
                    "midi": 60,
                    "time": 127.71430699999961,
                    "velocity": 0.16535433070866143,
                    "duration": 1.9285717499999606
                },
                {
                    "name": "G4",
                    "midi": 67,
                    "time": 127.71430699999961,
                    "velocity": 0.16535433070866143,
                    "duration": 0.8571429999999935
                },
                {
                    "name": "F#4",
                    "midi": 66,
                    "time": 128.5714499999996,
                    "velocity": 0.13385826771653545,
                    "duration": 0.8571429999999793
                },
                {
                    "name": "A4",
                    "midi": 69,
                    "time": 128.5714499999996,
                    "velocity": 0.13385826771653545,
                    "duration": 0.8571429999999793
                },
                {
                    "name": "G4",
                    "midi": 67,
                    "time": 129.42859299999958,
                    "velocity": 0.16535433070866143,
                    "duration": 0.21428574999998773
                },
                {
                    "name": "C3",
                    "midi": 48,
                    "time": 130.28573599999956,
                    "velocity": 0.3543307086614173,
                    "duration": 1.7142860000000155
                },
                {
                    "name": "E2",
                    "midi": 40,
                    "time": 130.28573599999956,
                    "velocity": 0.3543307086614173,
                    "duration": 1.7142860000000155
                },
                {
                    "name": "E3",
                    "midi": 52,
                    "time": 131.57145049999957,
                    "velocity": 0.29133858267716534,
                    "duration": 0.4285715000000039
                },
                {
                    "name": "G3",
                    "midi": 55,
                    "time": 132.00002199999957,
                    "velocity": 0.3543307086614173,
                    "duration": 0.8571430000000078
                },
                {
                    "name": "E2",
                    "midi": 40,
                    "time": 132.71430783333292,
                    "velocity": 0.2755905511811024,
                    "duration": 1.0000001666666662
                },
                {
                    "name": "C#3",
                    "midi": 49,
                    "time": 132.78573641666625,
                    "velocity": 0.31496062992125984,
                    "duration": 0.928571583333337
                },
                {
                    "name": "A#3",
                    "midi": 58,
                    "time": 132.85716499999958,
                    "velocity": 0.3779527559055118,
                    "duration": 0.8571430000000078
                },
                {
                    "name": "D3",
                    "midi": 50,
                    "time": 133.7143079999996,
                    "velocity": 0.4566929133858268,
                    "duration": 1.7142860000000155
                },
                {
                    "name": "F2",
                    "midi": 41,
                    "time": 133.7143079999996,
                    "velocity": 0.4566929133858268,
                    "duration": 1.7142860000000155
                },
                {
                    "name": "F3",
                    "midi": 53,
                    "time": 135.0000224999996,
                    "velocity": 0.3779527559055118,
                    "duration": 0.4285715000000039
                },
                {
                    "name": "A#3",
                    "midi": 58,
                    "time": 135.4285939999996,
                    "velocity": 0.4251968503937008,
                    "duration": 0.8571430000000078
                },
                {
                    "name": "D3",
                    "midi": 50,
                    "time": 136.2857369999996,
                    "velocity": 0.5118110236220472,
                    "duration": 0.2857143333333454
                },
                {
                    "name": "A#3",
                    "midi": 58,
                    "time": 136.2857369999996,
                    "velocity": 0.5118110236220472,
                    "duration": 0.2857143333333454
                },
                {
                    "name": "A#3",
                    "midi": 58,
                    "time": 136.57145133333296,
                    "velocity": 0.4409448818897638,
                    "duration": 0.2857143333333454
                },
                {
                    "name": "D3",
                    "midi": 50,
                    "time": 136.57145133333296,
                    "velocity": 0.4409448818897638,
                    "duration": 0.2857143333333454
                },
                {
                    "name": "D3",
                    "midi": 50,
                    "time": 136.8571656666663,
                    "velocity": 0.4409448818897638,
                    "duration": 0.2857143333333454
                },
                {
                    "name": "A#3",
                    "midi": 58,
                    "time": 136.8571656666663,
                    "velocity": 0.4409448818897638,
                    "duration": 0.2857143333333454
                },
                {
                    "name": "D3",
                    "midi": 50,
                    "time": 137.14287999999965,
                    "velocity": 0.49606299212598426,
                    "duration": 1.7142860000000155
                },
                {
                    "name": "A3",
                    "midi": 57,
                    "time": 137.14287999999965,
                    "velocity": 0.49606299212598426,
                    "duration": 1.7142860000000155
                },
                {
                    "name": "C4",
                    "midi": 60,
                    "time": 137.14287999999965,
                    "velocity": 0.49606299212598426,
                    "duration": 1.7142860000000155
                },
                {
                    "name": "A#3",
                    "midi": 58,
                    "time": 138.85716599999967,
                    "velocity": 0.36220472440944884,
                    "duration": 0.8571430000000078
                },
                {
                    "name": "D3",
                    "midi": 50,
                    "time": 138.85716599999967,
                    "velocity": 0.36220472440944884,
                    "duration": 0.8571430000000078
                },
                {
                    "name": "A3",
                    "midi": 57,
                    "time": 139.71430899999967,
                    "velocity": 0.2992125984251969,
                    "duration": 0.8571429999999793
                },
                {
                    "name": "A2",
                    "midi": 45,
                    "time": 139.71430899999967,
                    "velocity": 0.2992125984251969,
                    "duration": 0.8571429999999793
                },
                {
                    "name": "F3",
                    "midi": 53,
                    "time": 139.71430899999967,
                    "velocity": 0.2992125984251969,
                    "duration": 0.8571429999999793
                },
                {
                    "name": "A2",
                    "midi": 45,
                    "time": 140.57145199999965,
                    "velocity": 0.5196850393700787,
                    "duration": 1.714285999999987
                },
                {
                    "name": "A#3",
                    "midi": 58,
                    "time": 140.57145199999965,
                    "velocity": 0.5196850393700787,
                    "duration": 1.714285999999987
                },
                {
                    "name": "G3",
                    "midi": 55,
                    "time": 140.57145199999965,
                    "velocity": 0.5196850393700787,
                    "duration": 1.714285999999987
                },
                {
                    "name": "F3",
                    "midi": 53,
                    "time": 142.28573799999964,
                    "velocity": 0.4251968503937008,
                    "duration": 0.8571430000000078
                },
                {
                    "name": "A3",
                    "midi": 57,
                    "time": 142.28573799999964,
                    "velocity": 0.4251968503937008,
                    "duration": 0.8571430000000078
                },
                {
                    "name": "A2",
                    "midi": 45,
                    "time": 142.28573799999964,
                    "velocity": 0.4251968503937008,
                    "duration": 0.8571430000000078
                },
                {
                    "name": "F2",
                    "midi": 41,
                    "time": 143.14288099999965,
                    "velocity": 0.2992125984251969,
                    "duration": 0.8571429999999793
                },
                {
                    "name": "F3",
                    "midi": 53,
                    "time": 143.14288099999965,
                    "velocity": 0.2992125984251969,
                    "duration": 0.8571429999999793
                },
                {
                    "name": "C3",
                    "midi": 48,
                    "time": 143.14288099999965,
                    "velocity": 0.2992125984251969,
                    "duration": 0.8571429999999793
                },
                {
                    "name": "E2",
                    "midi": 40,
                    "time": 143.85716683333297,
                    "velocity": 0.2755905511811024,
                    "duration": 1.857143166666674
                },
                {
                    "name": "C3",
                    "midi": 48,
                    "time": 143.9285954166663,
                    "velocity": 0.31496062992125984,
                    "duration": 1.7857145833333448
                },
                {
                    "name": "C4",
                    "midi": 60,
                    "time": 144.00002399999963,
                    "velocity": 0.3543307086614173,
                    "duration": 1.2857145000000116
                },
                {
                    "name": "A#3",
                    "midi": 58,
                    "time": 145.28573849999964,
                    "velocity": 0.31496062992125984,
                    "duration": 0.4285715000000039
                },
                {
                    "name": "G3",
                    "midi": 55,
                    "time": 145.71430999999964,
                    "velocity": 0.3543307086614173,
                    "duration": 0.8571429999999793
                },
                {
                    "name": "A3",
                    "midi": 57,
                    "time": 146.57145299999962,
                    "velocity": 0.31496062992125984,
                    "duration": 0.8571429999999793
                },
                {
                    "name": "D2",
                    "midi": 38,
                    "time": 147.28573883333294,
                    "velocity": 0.2992125984251969,
                    "duration": 1.714285999999987
                },
                {
                    "name": "A2",
                    "midi": 45,
                    "time": 147.35716741666627,
                    "velocity": 0.31496062992125984,
                    "duration": 1.714285999999987
                },
                {
                    "name": "F3",
                    "midi": 53,
                    "time": 147.4285959999996,
                    "velocity": 0.3543307086614173,
                    "duration": 1.714285999999987
                },
                {
                    "name": "E2",
                    "midi": 40,
                    "time": 149.00002483333293,
                    "velocity": 0.2755905511811024,
                    "duration": 1.714285999999987
                },
                {
                    "name": "C3",
                    "midi": 48,
                    "time": 149.07145341666626,
                    "velocity": 0.29133858267716534,
                    "duration": 1.714285999999987
                },
                {
                    "name": "G3",
                    "midi": 55,
                    "time": 149.1428819999996,
                    "velocity": 0.31496062992125984,
                    "duration": 1.714285999999987
                },
                {
                    "name": "F2",
                    "midi": 41,
                    "time": 150.71431083333292,
                    "velocity": 0.2440944881889764,
                    "duration": 0.3571429166666462
                },
                {
                    "name": "C3",
                    "midi": 48,
                    "time": 150.78573941666625,
                    "velocity": 0.2440944881889764,
                    "duration": 0.28571433333331697
                },
                {
                    "name": "A3",
                    "midi": 57,
                    "time": 150.85716799999958,
                    "velocity": 0.28346456692913385,
                    "duration": 0.21428574999998773
                },
                {
                    "name": "C4",
                    "midi": 60,
                    "time": 151.71431099999955,
                    "velocity": 0.16535433070866143,
                    "duration": 0.8571430000000078
                },
                {
                    "name": "F3",
                    "midi": 53,
                    "time": 151.71431099999955,
                    "velocity": 0.16535433070866143,
                    "duration": 1.9285717500000032
                },
                {
                    "name": "B3",
                    "midi": 59,
                    "time": 152.57145399999956,
                    "velocity": 0.13385826771653545,
                    "duration": 0.8571430000000078
                },
                {
                    "name": "D4",
                    "midi": 62,
                    "time": 152.57145399999956,
                    "velocity": 0.13385826771653545,
                    "duration": 0.8571430000000078
                },
                {
                    "name": "C4",
                    "midi": 60,
                    "time": 153.42859699999957,
                    "velocity": 0.16535433070866143,
                    "duration": 0.21428574999998773
                },
                {
                    "name": "E3",
                    "midi": 52,
                    "time": 154.1428828333329,
                    "velocity": 0.2755905511811024,
                    "duration": 1.857143166666674
                },
                {
                    "name": "C4",
                    "midi": 60,
                    "time": 154.21431141666622,
                    "velocity": 0.31496062992125984,
                    "duration": 1.7857145833333448
                },
                {
                    "name": "C5",
                    "midi": 72,
                    "time": 154.28573999999955,
                    "velocity": 0.3543307086614173,
                    "duration": 1.2857145000000116
                },
                {
                    "name": "A#4",
                    "midi": 70,
                    "time": 155.57145449999956,
                    "velocity": 0.31496062992125984,
                    "duration": 0.4285715000000039
                },
                {
                    "name": "G4",
                    "midi": 67,
                    "time": 156.00002599999956,
                    "velocity": 0.3543307086614173,
                    "duration": 0.8571429999999793
                },
                {
                    "name": "A4",
                    "midi": 69,
                    "time": 156.85716899999954,
                    "velocity": 0.31496062992125984,
                    "duration": 0.8571430000000078
                },
                {
                    "name": "D3",
                    "midi": 50,
                    "time": 157.5714548333329,
                    "velocity": 0.2992125984251969,
                    "duration": 1.714285999999987
                },
                {
                    "name": "A3",
                    "midi": 57,
                    "time": 157.64288341666622,
                    "velocity": 0.31496062992125984,
                    "duration": 1.714285999999987
                },
                {
                    "name": "F4",
                    "midi": 65,
                    "time": 157.71431199999955,
                    "velocity": 0.3543307086614173,
                    "duration": 1.714285999999987
                },
                {
                    "name": "C3",
                    "midi": 48,
                    "time": 159.28574083333288,
                    "velocity": 0.2755905511811024,
                    "duration": 1.857143166666674
                },
                {
                    "name": "A#3",
                    "midi": 58,
                    "time": 159.3571694166662,
                    "velocity": 0.29133858267716534,
                    "duration": 1.7857145833333448
                },
                {
                    "name": "E4",
                    "midi": 64,
                    "time": 159.42859799999954,
                    "velocity": 0.31496062992125984,
                    "duration": 1.7142860000000155
                },
                {
                    "name": "F4",
                    "midi": 65,
                    "time": 161.14288399999955,
                    "velocity": 0.28346456692913385,
                    "duration": 0.21428574999998773
                },
                {
                    "name": "A3",
                    "midi": 57,
                    "time": 161.14288399999955,
                    "velocity": 0.2440944881889764,
                    "duration": 0.21428574999998773
                },
                {
                    "name": "F3",
                    "midi": 53,
                    "time": 161.14288399999955,
                    "velocity": 0.2440944881889764,
                    "duration": 0.21428574999998773
                },
                {
                    "name": "F3",
                    "midi": 53,
                    "time": 162.00002699999953,
                    "velocity": 0.16535433070866143,
                    "duration": 1.9285717500000317
                },
                {
                    "name": "C4",
                    "midi": 60,
                    "time": 162.00002699999953,
                    "velocity": 0.16535433070866143,
                    "duration": 0.8571430000000078
                },
                {
                    "name": "D4",
                    "midi": 62,
                    "time": 162.85716999999954,
                    "velocity": 0.13385826771653545,
                    "duration": 0.8571430000000078
                },
                {
                    "name": "B3",
                    "midi": 59,
                    "time": 162.85716999999954,
                    "velocity": 0.13385826771653545,
                    "duration": 0.8571430000000078
                },
                {
                    "name": "C4",
                    "midi": 60,
                    "time": 163.71431299999955,
                    "velocity": 0.16535433070866143,
                    "duration": 0.21428575000001615
                },
                {
                    "name": "C4",
                    "midi": 60,
                    "time": 165.42859899999956,
                    "velocity": 0.2047244094488189,
                    "duration": 0.6428572499999916
                },
                {
                    "name": "C#4",
                    "midi": 61,
                    "time": 166.07145624999956,
                    "velocity": 0.1732283464566929,
                    "duration": 0.10714287499999386
                },
                {
                    "name": "C4",
                    "midi": 60,
                    "time": 166.17859912499955,
                    "velocity": 0.1889763779527559,
                    "duration": 0.10714287499999386
                },
                {
                    "name": "B3",
                    "midi": 59,
                    "time": 166.28574199999954,
                    "velocity": 0.2440944881889764,
                    "duration": 0.64285725000002
                },
                {
                    "name": "C4",
                    "midi": 60,
                    "time": 166.92859924999956,
                    "velocity": 0.1889763779527559,
                    "duration": 0.10714287499999386
                },
                {
                    "name": "C#4",
                    "midi": 61,
                    "time": 167.03574212499956,
                    "velocity": 0.1889763779527559,
                    "duration": 0.10714287499999386
                },
                {
                    "name": "C4",
                    "midi": 60,
                    "time": 167.14288499999955,
                    "velocity": 0.2125984251968504,
                    "duration": 0.21428575000001615
                },
                {
                    "name": "B3",
                    "midi": 59,
                    "time": 168.00002799999956,
                    "velocity": 0.31496062992125984,
                    "duration": 0.6428572499999916
                },
                {
                    "name": "C4",
                    "midi": 60,
                    "time": 168.64288524999955,
                    "velocity": 0.2992125984251969,
                    "duration": 0.10714287499999386
                },
                {
                    "name": "C#4",
                    "midi": 61,
                    "time": 168.75002812499955,
                    "velocity": 0.33070866141732286,
                    "duration": 0.10714287499999386
                },
                {
                    "name": "C4",
                    "midi": 60,
                    "time": 168.85717099999954,
                    "velocity": 0.4330708661417323,
                    "duration": 0.64285725000002
                },
                {
                    "name": "A#3",
                    "midi": 58,
                    "time": 169.50002824999956,
                    "velocity": 0.3858267716535433,
                    "duration": 0.10714287499999386
                },
                {
                    "name": "G#3",
                    "midi": 56,
                    "time": 169.60717112499955,
                    "velocity": 0.3937007874015748,
                    "duration": 0.10714287499999386
                },
                {
                    "name": "G3",
                    "midi": 55,
                    "time": 169.71431399999955,
                    "velocity": 0.48031496062992124,
                    "duration": 0.6428572499999916
                },
                {
                    "name": "G#3",
                    "midi": 56,
                    "time": 170.35717124999954,
                    "velocity": 0.3779527559055118,
                    "duration": 0.10714287499999386
                },
                {
                    "name": "A#3",
                    "midi": 58,
                    "time": 170.46431412499953,
                    "velocity": 0.41732283464566927,
                    "duration": 0.10714287499999386
                },
                {
                    "name": "G#3",
                    "midi": 56,
                    "time": 170.57145699999953,
                    "velocity": 0.47244094488188976,
                    "duration": 0.64285725000002
                },
                {
                    "name": "G3",
                    "midi": 55,
                    "time": 171.21431424999955,
                    "velocity": 0.4251968503937008,
                    "duration": 0.10714287499999386
                },
                {
                    "name": "F3",
                    "midi": 53,
                    "time": 171.32145712499954,
                    "velocity": 0.3937007874015748,
                    "duration": 0.10714287499999386
                },
                {
                    "name": "F3",
                    "midi": 53,
                    "time": 171.42859999999953,
                    "velocity": 0.2677165354330709,
                    "duration": 3.4285720000000026
                },
                {
                    "name": "C3",
                    "midi": 48,
                    "time": 171.42859999999953,
                    "velocity": 0.2677165354330709,
                    "duration": 3.4285720000000026
                },
                {
                    "name": "A3",
                    "midi": 57,
                    "time": 171.42859999999953,
                    "velocity": 0.2677165354330709,
                    "duration": 3.4285720000000026
                },
                {
                    "name": "G3",
                    "midi": 55,
                    "time": 174.85717199999954,
                    "velocity": 0.4094488188976378,
                    "duration": 3.4285720000000595
                },
                {
                    "name": "E3",
                    "midi": 52,
                    "time": 174.85717199999954,
                    "velocity": 0.4094488188976378,
                    "duration": 3.4285720000000595
                },
                {
                    "name": "A2",
                    "midi": 45,
                    "time": 174.85717199999954,
                    "velocity": 0.4094488188976378,
                    "duration": 3.4285720000000595
                },
                {
                    "name": "A2",
                    "midi": 45,
                    "time": 178.2857439999996,
                    "velocity": 0.3228346456692913,
                    "duration": 1.7142860000000155
                },
                {
                    "name": "F3",
                    "midi": 53,
                    "time": 178.2857439999996,
                    "velocity": 0.3228346456692913,
                    "duration": 1.7142860000000155
                },
                {
                    "name": "C3",
                    "midi": 48,
                    "time": 180.0000299999996,
                    "velocity": 0.3228346456692913,
                    "duration": 1.7142860000000155
                },
                {
                    "name": "A#3",
                    "midi": 58,
                    "time": 180.0000299999996,
                    "velocity": 0.3228346456692913,
                    "duration": 1.7142860000000155
                },
                {
                    "name": "G3",
                    "midi": 55,
                    "time": 180.0000299999996,
                    "velocity": 0.3228346456692913,
                    "duration": 1.7142860000000155
                },
                {
                    "name": "C4",
                    "midi": 60,
                    "time": 182.57145899999963,
                    "velocity": 0.2047244094488189,
                    "duration": 0.6428572499999916
                },
                {
                    "name": "C#4",
                    "midi": 61,
                    "time": 183.21431624999963,
                    "velocity": 0.1732283464566929,
                    "duration": 0.10714287499999386
                },
                {
                    "name": "C4",
                    "midi": 60,
                    "time": 183.32145912499962,
                    "velocity": 0.1889763779527559,
                    "duration": 0.10714287499999386
                },
                {
                    "name": "B3",
                    "midi": 59,
                    "time": 183.42860199999961,
                    "velocity": 0.2440944881889764,
                    "duration": 0.6428572499999916
                },
                {
                    "name": "C4",
                    "midi": 60,
                    "time": 184.0714592499996,
                    "velocity": 0.1889763779527559,
                    "duration": 0.10714287499999386
                },
                {
                    "name": "C#4",
                    "midi": 61,
                    "time": 184.1786021249996,
                    "velocity": 0.1889763779527559,
                    "duration": 0.10714287499999386
                },
                {
                    "name": "C4",
                    "midi": 60,
                    "time": 184.2857449999996,
                    "velocity": 0.2125984251968504,
                    "duration": 0.21428575000001615
                },
                {
                    "name": "B3",
                    "midi": 59,
                    "time": 185.1428879999996,
                    "velocity": 0.31496062992125984,
                    "duration": 0.6428572499999916
                },
                {
                    "name": "C4",
                    "midi": 60,
                    "time": 185.7857452499996,
                    "velocity": 0.2992125984251969,
                    "duration": 0.10714287499999386
                },
                {
                    "name": "C#4",
                    "midi": 61,
                    "time": 185.8928881249996,
                    "velocity": 0.33070866141732286,
                    "duration": 0.10714287499999386
                },
                {
                    "name": "C4",
                    "midi": 60,
                    "time": 186.00003099999958,
                    "velocity": 0.4330708661417323,
                    "duration": 0.6428572499999916
                },
                {
                    "name": "A#3",
                    "midi": 58,
                    "time": 186.64288824999957,
                    "velocity": 0.3858267716535433,
                    "duration": 0.10714287499999386
                },
                {
                    "name": "G#3",
                    "midi": 56,
                    "time": 186.75003112499957,
                    "velocity": 0.3937007874015748,
                    "duration": 0.10714287499999386
                },
                {
                    "name": "G3",
                    "midi": 55,
                    "time": 186.85717399999956,
                    "velocity": 0.48031496062992124,
                    "duration": 0.6428572499999916
                },
                {
                    "name": "G#3",
                    "midi": 56,
                    "time": 187.50003124999955,
                    "velocity": 0.3779527559055118,
                    "duration": 0.10714287499999386
                },
                {
                    "name": "A#3",
                    "midi": 58,
                    "time": 187.60717412499955,
                    "velocity": 0.41732283464566927,
                    "duration": 0.10714287499999386
                },
                {
                    "name": "G#3",
                    "midi": 56,
                    "time": 187.71431699999954,
                    "velocity": 0.47244094488188976,
                    "duration": 0.6428572499999916
                },
                {
                    "name": "G3",
                    "midi": 55,
                    "time": 188.35717424999953,
                    "velocity": 0.4251968503937008,
                    "duration": 0.10714287499999386
                },
                {
                    "name": "F3",
                    "midi": 53,
                    "time": 188.46431712499952,
                    "velocity": 0.3937007874015748,
                    "duration": 0.10714287499999386
                },
                {
                    "name": "C4",
                    "midi": 60,
                    "time": 188.57145999999952,
                    "velocity": 0.3543307086614173,
                    "duration": 3.4285720000000026
                },
                {
                    "name": "G#3",
                    "midi": 56,
                    "time": 188.57145999999952,
                    "velocity": 0.3543307086614173,
                    "duration": 3.4285720000000026
                },
                {
                    "name": "D#3",
                    "midi": 51,
                    "time": 188.57145999999952,
                    "velocity": 0.3543307086614173,
                    "duration": 3.4285720000000026
                },
                {
                    "name": "C3",
                    "midi": 48,
                    "time": 192.00003199999952,
                    "velocity": 0.4094488188976378,
                    "duration": 3.428571999999974
                },
                {
                    "name": "G3",
                    "midi": 55,
                    "time": 192.00003199999952,
                    "velocity": 0.5039370078740157,
                    "duration": 3.428571999999974
                },
                {
                    "name": "A#3",
                    "midi": 58,
                    "time": 192.00003199999952,
                    "velocity": 0.5039370078740157,
                    "duration": 3.428571999999974
                },
                {
                    "name": "G#3",
                    "midi": 56,
                    "time": 195.4286039999995,
                    "velocity": 0.3228346456692913,
                    "duration": 1.714285999999987
                },
                {
                    "name": "C3",
                    "midi": 48,
                    "time": 195.4286039999995,
                    "velocity": 0.3228346456692913,
                    "duration": 1.714285999999987
                },
                {
                    "name": "C#4",
                    "midi": 61,
                    "time": 197.14288999999948,
                    "velocity": 0.3228346456692913,
                    "duration": 1.7142859999999587
                },
                {
                    "name": "D#3",
                    "midi": 51,
                    "time": 197.14288999999948,
                    "velocity": 0.3228346456692913,
                    "duration": 1.7142859999999587
                },
                {
                    "name": "G3",
                    "midi": 55,
                    "time": 197.14288999999948,
                    "velocity": 0.3228346456692913,
                    "duration": 1.7142859999999587
                },
                {
                    "name": "C#4",
                    "midi": 61,
                    "time": 199.71431899999945,
                    "velocity": 0.16535433070866143,
                    "duration": 1.9285717500000032
                },
                {
                    "name": "E3",
                    "midi": 52,
                    "time": 199.71431899999945,
                    "velocity": 0.16535433070866143,
                    "duration": 1.9285717500000032
                },
                {
                    "name": "A2",
                    "midi": 45,
                    "time": 202.28574799999944,
                    "velocity": 0.4645669291338583,
                    "duration": 3.4285720000000026
                },
                {
                    "name": "E3",
                    "midi": 52,
                    "time": 202.28574799999944,
                    "velocity": 0.4645669291338583,
                    "duration": 3.4285720000000026
                },
                {
                    "name": "G3",
                    "midi": 55,
                    "time": 202.28574799999944,
                    "velocity": 0.4645669291338583,
                    "duration": 3.4285720000000026
                },
                {
                    "name": "A2",
                    "midi": 45,
                    "time": 205.71431999999945,
                    "velocity": 0.3228346456692913,
                    "duration": 1.714285999999987
                },
                {
                    "name": "F3",
                    "midi": 53,
                    "time": 205.71431999999945,
                    "velocity": 0.3228346456692913,
                    "duration": 1.714285999999987
                },
                {
                    "name": "A#3",
                    "midi": 58,
                    "time": 207.42860599999943,
                    "velocity": 0.3228346456692913,
                    "duration": 1.5000002499999994
                },
                {
                    "name": "G3",
                    "midi": 55,
                    "time": 207.42860599999943,
                    "velocity": 0.3228346456692913,
                    "duration": 1.5000002499999994
                },
                {
                    "name": "C3",
                    "midi": 48,
                    "time": 207.42860599999943,
                    "velocity": 0.3228346456692913,
                    "duration": 1.5000002499999994
                },
                {
                    "name": "C3",
                    "midi": 48,
                    "time": 209.14289199999942,
                    "velocity": 0.25196850393700787,
                    "duration": 1.7142860000000155
                },
                {
                    "name": "F2",
                    "midi": 41,
                    "time": 209.14289199999942,
                    "velocity": 0.25196850393700787,
                    "duration": 1.7142860000000155
                },
                {
                    "name": "F3",
                    "midi": 53,
                    "time": 210.42860649999943,
                    "velocity": 0.2204724409448819,
                    "duration": 0.4285715000000039
                },
                {
                    "name": "A3",
                    "midi": 57,
                    "time": 210.85717799999944,
                    "velocity": 0.25196850393700787,
                    "duration": 0.8571430000000362
                },
                {
                    "name": "C2",
                    "midi": 36,
                    "time": 212.4286068333328,
                    "velocity": 0.1889763779527559,
                    "duration": 1.8571431666667024
                },
                {
                    "name": "A#2",
                    "midi": 46,
                    "time": 212.50003541666615,
                    "velocity": 0.1889763779527559,
                    "duration": 1.7857145833333448
                },
                {
                    "name": "G3",
                    "midi": 55,
                    "time": 212.57146399999948,
                    "velocity": 0.23622047244094488,
                    "duration": 1.6607145625000044
                },
                {
                    "name": "D2",
                    "midi": 38,
                    "time": 216.0000359999995,
                    "velocity": 0.2204724409448819,
                    "duration": 1.7142860000000155
                },
                {
                    "name": "D3",
                    "midi": 50,
                    "time": 216.0000359999995,
                    "velocity": 0.2204724409448819,
                    "duration": 1.7142860000000155
                },
                {
                    "name": "A2",
                    "midi": 45,
                    "time": 216.0000359999995,
                    "velocity": 0.2204724409448819,
                    "duration": 1.7142860000000155
                },
                {
                    "name": "C3",
                    "midi": 48,
                    "time": 217.71432199999953,
                    "velocity": 0.1889763779527559,
                    "duration": 2.142857499999991
                },
                {
                    "name": "C2",
                    "midi": 36,
                    "time": 217.71432199999953,
                    "velocity": 0.1889763779527559,
                    "duration": 1.714285999999987
                },
                {
                    "name": "F2",
                    "midi": 41,
                    "time": 219.4286079999995,
                    "velocity": 0.15748031496062992,
                    "duration": 0.4285715000000039
                },
                {
                    "name": "C3",
                    "midi": 48,
                    "time": 221.14289399999953,
                    "velocity": 0.15748031496062992,
                    "duration": 0.4285715000000039
                },
                {
                    "name": "F2",
                    "midi": 41,
                    "time": 221.14289399999953,
                    "velocity": 0.15748031496062992,
                    "duration": 0.4285715000000039
                },
                {
                    "name": "F2",
                    "midi": 41,
                    "time": 222.85717999999954,
                    "velocity": 0.15748031496062992,
                    "duration": 3.4285720000000026
                },
                {
                    "name": "C3",
                    "midi": 48,
                    "time": 222.85717999999954,
                    "velocity": 0.15748031496062992,
                    "duration": 3.4285720000000026
                }
            ],
            "controlChanges": {
                "7": [
                    {
                        "number": 7,
                        "time": 0,
                        "value": 0.7874015748031497
                    }
                ],
                "10": [
                    {
                        "number": 10,
                        "time": 0,
                        "value": 0.5039370078740157
                    }
                ],
                "64": [
                    {
                        "number": 64,
                        "time": 0,
                        "value": 0
                    },
                    {
                        "number": 64,
                        "time": 0.1517857395833333,
                        "value": 1
                    },
                    {
                        "number": 64,
                        "time": 1.7482145770833333,
                        "value": 0
                    },
                    {
                        "number": 64,
                        "time": 2.0357146249999998,
                        "value": 1
                    },
                    {
                        "number": 64,
                        "time": 2.5910718604166663,
                        "value": 0
                    },
                    {
                        "number": 64,
                        "time": 2.7857147499999995,
                        "value": 1
                    },
                    {
                        "number": 64,
                        "time": 3.4285719999999995,
                        "value": 0
                    },
                    {
                        "number": 64,
                        "time": 3.7053577604166663,
                        "value": 1
                    },
                    {
                        "number": 64,
                        "time": 5.178572291666666,
                        "value": 0
                    },
                    {
                        "number": 64,
                        "time": 5.464286624999999,
                        "value": 1
                    },
                    {
                        "number": 64,
                        "time": 6.035715291666666,
                        "value": 0
                    },
                    {
                        "number": 64,
                        "time": 6.535715374999999,
                        "value": 1
                    },
                    {
                        "number": 64,
                        "time": 6.869644002083333,
                        "value": 0
                    },
                    {
                        "number": 64,
                        "time": 7.392858374999999,
                        "value": 1
                    },
                    {
                        "number": 64,
                        "time": 8.591072860416666,
                        "value": 0
                    },
                    {
                        "number": 64,
                        "time": 9.107144374999999,
                        "value": 1
                    },
                    {
                        "number": 64,
                        "time": 10.285715999999999,
                        "value": 0
                    },
                    {
                        "number": 64,
                        "time": 10.3821445875,
                        "value": 1
                    },
                    {
                        "number": 64,
                        "time": 10.62321605625,
                        "value": 0
                    },
                    {
                        "number": 64,
                        "time": 11.183930435416666,
                        "value": 1
                    },
                    {
                        "number": 64,
                        "time": 12.0107162875,
                        "value": 0
                    },
                    {
                        "number": 64,
                        "time": 12.11250201875,
                        "value": 1
                    },
                    {
                        "number": 64,
                        "time": 12.857145,
                        "value": 0
                    },
                    {
                        "number": 64,
                        "time": 13.866073739583333,
                        "value": 1
                    },
                    {
                        "number": 64,
                        "time": 15.464288291666668,
                        "value": 0
                    },
                    {
                        "number": 64,
                        "time": 15.757145483333334,
                        "value": 1
                    },
                    {
                        "number": 64,
                        "time": 16.31250271875,
                        "value": 0
                    },
                    {
                        "number": 64,
                        "time": 16.587502764583334,
                        "value": 1
                    },
                    {
                        "number": 64,
                        "time": 17.142860000000002,
                        "value": 0
                    },
                    {
                        "number": 64,
                        "time": 17.546431495833335,
                        "value": 1
                    },
                    {
                        "number": 64,
                        "time": 18.885717433333333,
                        "value": 0
                    },
                    {
                        "number": 64,
                        "time": 19.260717495833333,
                        "value": 1
                    },
                    {
                        "number": 64,
                        "time": 19.735717575000002,
                        "value": 0
                    },
                    {
                        "number": 64,
                        "time": 20.016074764583337,
                        "value": 1
                    },
                    {
                        "number": 64,
                        "time": 22.29821800208334,
                        "value": 0
                    },
                    {
                        "number": 64,
                        "time": 22.69464663958334,
                        "value": 1
                    },
                    {
                        "number": 64,
                        "time": 23.017860979166674,
                        "value": 0
                    },
                    {
                        "number": 64,
                        "time": 23.387503897916673,
                        "value": 1
                    },
                    {
                        "number": 64,
                        "time": 24.025004004166675,
                        "value": 0
                    },
                    {
                        "number": 64,
                        "time": 24.100004016666674,
                        "value": 1
                    },
                    {
                        "number": 64,
                        "time": 24.40357549583334,
                        "value": 0
                    },
                    {
                        "number": 64,
                        "time": 24.898218435416673,
                        "value": 1
                    },
                    {
                        "number": 64,
                        "time": 25.717861429166675,
                        "value": 0
                    },
                    {
                        "number": 64,
                        "time": 25.826790018750007,
                        "value": 1
                    },
                    {
                        "number": 64,
                        "time": 26.58214728750001,
                        "value": 0
                    },
                    {
                        "number": 64,
                        "time": 27.580361739583342,
                        "value": 1
                    },
                    {
                        "number": 64,
                        "time": 29.173219147916676,
                        "value": 0
                    },
                    {
                        "number": 64,
                        "time": 29.369647752083342,
                        "value": 1
                    },
                    {
                        "number": 64,
                        "time": 30.02321928958334,
                        "value": 0
                    },
                    {
                        "number": 64,
                        "time": 30.251790756250006,
                        "value": 1
                    },
                    {
                        "number": 64,
                        "time": 30.867862287500007,
                        "value": 0
                    },
                    {
                        "number": 64,
                        "time": 31.235719491666675,
                        "value": 1
                    },
                    {
                        "number": 64,
                        "time": 32.571434,
                        "value": 0
                    },
                    {
                        "number": 64,
                        "time": 32.578576858333335,
                        "value": 0
                    },
                    {
                        "number": 64,
                        "time": 32.823219756250005,
                        "value": 1
                    },
                    {
                        "number": 64,
                        "time": 33.45357700416667,
                        "value": 0
                    },
                    {
                        "number": 64,
                        "time": 33.73036276458333,
                        "value": 1
                    },
                    {
                        "number": 64,
                        "time": 34.301791431249995,
                        "value": 0
                    },
                    {
                        "number": 64,
                        "time": 34.69464863958333,
                        "value": 1
                    },
                    {
                        "number": 64,
                        "time": 36.01607743124999,
                        "value": 0
                    },
                    {
                        "number": 64,
                        "time": 36.28572033333332,
                        "value": 1
                    },
                    {
                        "number": 64,
                        "time": 36.878577574999994,
                        "value": 0
                    },
                    {
                        "number": 64,
                        "time": 37.22500620416666,
                        "value": 1
                    },
                    {
                        "number": 64,
                        "time": 37.721434858333325,
                        "value": 0
                    },
                    {
                        "number": 64,
                        "time": 38.085720633333324,
                        "value": 1
                    },
                    {
                        "number": 64,
                        "time": 39.448220860416654,
                        "value": 0
                    },
                    {
                        "number": 64,
                        "time": 39.723220906249985,
                        "value": 1
                    },
                    {
                        "number": 64,
                        "time": 40.30357814583332,
                        "value": 0
                    },
                    {
                        "number": 64,
                        "time": 40.53036389791665,
                        "value": 1
                    },
                    {
                        "number": 64,
                        "time": 41.16250686041665,
                        "value": 0
                    },
                    {
                        "number": 64,
                        "time": 41.84822126041665,
                        "value": 1
                    },
                    {
                        "number": 64,
                        "time": 42.88393571874998,
                        "value": 0
                    },
                    {
                        "number": 64,
                        "time": 43.41250723541665,
                        "value": 1
                    },
                    {
                        "number": 64,
                        "time": 43.732150145833316,
                        "value": 0
                    },
                    {
                        "number": 64,
                        "time": 44.09286449166665,
                        "value": 1
                    },
                    {
                        "number": 64,
                        "time": 44.59822171874998,
                        "value": 0
                    },
                    {
                        "number": 64,
                        "time": 45.14286466666665,
                        "value": 1
                    },
                    {
                        "number": 64,
                        "time": 46.30357914583331,
                        "value": 0
                    },
                    {
                        "number": 64,
                        "time": 47.000007833333314,
                        "value": 1
                    },
                    {
                        "number": 64,
                        "time": 48.00000799999998,
                        "value": 0
                    },
                    {
                        "number": 64,
                        "time": 48.09643658749998,
                        "value": 1
                    },
                    {
                        "number": 64,
                        "time": 48.33750805624998,
                        "value": 0
                    },
                    {
                        "number": 64,
                        "time": 48.89822243541665,
                        "value": 1
                    },
                    {
                        "number": 64,
                        "time": 49.71965114374998,
                        "value": 0
                    },
                    {
                        "number": 64,
                        "time": 49.82679401874998,
                        "value": 1
                    },
                    {
                        "number": 64,
                        "time": 50.60179414791665,
                        "value": 0
                    },
                    {
                        "number": 64,
                        "time": 51.70536576041665,
                        "value": 1
                    },
                    {
                        "number": 64,
                        "time": 53.16072314583331,
                        "value": 0
                    },
                    {
                        "number": 64,
                        "time": 53.54643749583331,
                        "value": 1
                    },
                    {
                        "number": 64,
                        "time": 54.01786614583331,
                        "value": 0
                    },
                    {
                        "number": 64,
                        "time": 54.453580504166645,
                        "value": 1
                    },
                    {
                        "number": 64,
                        "time": 54.87858057499998,
                        "value": 0
                    },
                    {
                        "number": 64,
                        "time": 55.191080627083316,
                        "value": 1
                    },
                    {
                        "number": 64,
                        "time": 56.60000943333332,
                        "value": 0
                    },
                    {
                        "number": 64,
                        "time": 57.142866666666656,
                        "value": 1
                    },
                    {
                        "number": 64,
                        "time": 58.28572399999999,
                        "value": 0
                    },
                    {
                        "number": 64,
                        "time": 58.38215258749999,
                        "value": 1
                    },
                    {
                        "number": 64,
                        "time": 58.62322405624999,
                        "value": 0
                    },
                    {
                        "number": 64,
                        "time": 59.18393843541666,
                        "value": 1
                    },
                    {
                        "number": 64,
                        "time": 60.012510002083324,
                        "value": 0
                    },
                    {
                        "number": 64,
                        "time": 60.250010041666656,
                        "value": 1
                    },
                    {
                        "number": 64,
                        "time": 60.86786728749999,
                        "value": 0
                    },
                    {
                        "number": 64,
                        "time": 62.61251043541666,
                        "value": 1
                    },
                    {
                        "number": 64,
                        "time": 63.44822486041666,
                        "value": 0
                    },
                    {
                        "number": 64,
                        "time": 63.62679631874999,
                        "value": 1
                    },
                    {
                        "number": 64,
                        "time": 64.30179643124997,
                        "value": 0
                    },
                    {
                        "number": 64,
                        "time": 64.50001074999997,
                        "value": 1
                    },
                    {
                        "number": 64,
                        "time": 65.15179657291664,
                        "value": 0
                    },
                    {
                        "number": 64,
                        "time": 65.33215374583331,
                        "value": 1
                    },
                    {
                        "number": 64,
                        "time": 66.00536814374996,
                        "value": 0
                    },
                    {
                        "number": 64,
                        "time": 66.15358245416662,
                        "value": 1
                    },
                    {
                        "number": 64,
                        "time": 66.86251114374996,
                        "value": 0
                    },
                    {
                        "number": 64,
                        "time": 67.00536831041663,
                        "value": 1
                    },
                    {
                        "number": 64,
                        "time": 67.73036843124994,
                        "value": 0
                    },
                    {
                        "number": 64,
                        "time": 67.89822560208327,
                        "value": 1
                    },
                    {
                        "number": 64,
                        "time": 68.57143999999992,
                        "value": 0
                    },
                    {
                        "number": 64,
                        "time": 68.91786862916659,
                        "value": 1
                    },
                    {
                        "number": 64,
                        "time": 70.2892974291666,
                        "value": 0
                    },
                    {
                        "number": 64,
                        "time": 70.48036888958326,
                        "value": 1
                    },
                    {
                        "number": 64,
                        "time": 72.01251200208326,
                        "value": 0
                    },
                    {
                        "number": 64,
                        "time": 72.10179773124992,
                        "value": 1
                    },
                    {
                        "number": 64,
                        "time": 73.7303694312499,
                        "value": 0
                    },
                    {
                        "number": 64,
                        "time": 73.83751230624989,
                        "value": 1
                    },
                    {
                        "number": 64,
                        "time": 75.44286971666655,
                        "value": 0
                    },
                    {
                        "number": 64,
                        "time": 75.62322688958322,
                        "value": 1
                    },
                    {
                        "number": 64,
                        "time": 77.16251286041654,
                        "value": 0
                    },
                    {
                        "number": 64,
                        "time": 77.34465574791655,
                        "value": 1
                    },
                    {
                        "number": 64,
                        "time": 78.88037028958321,
                        "value": 0
                    },
                    {
                        "number": 64,
                        "time": 78.93394172708321,
                        "value": 1
                    },
                    {
                        "number": 64,
                        "time": 82.30894228958303,
                        "value": 0
                    },
                    {
                        "number": 64,
                        "time": 82.40537087708303,
                        "value": 1
                    },
                    {
                        "number": 64,
                        "time": 83.16429957499969,
                        "value": 0
                    },
                    {
                        "number": 64,
                        "time": 83.30001388333302,
                        "value": 1
                    },
                    {
                        "number": 64,
                        "time": 84.01251400208302,
                        "value": 0
                    },
                    {
                        "number": 64,
                        "time": 84.15179973958303,
                        "value": 1
                    },
                    {
                        "number": 64,
                        "time": 84.87679986041636,
                        "value": 0
                    },
                    {
                        "number": 64,
                        "time": 84.98394273541635,
                        "value": 1
                    },
                    {
                        "number": 64,
                        "time": 85.72680000208301,
                        "value": 0
                    },
                    {
                        "number": 64,
                        "time": 85.82858573333301,
                        "value": 1
                    },
                    {
                        "number": 64,
                        "time": 86.583943002083,
                        "value": 0
                    },
                    {
                        "number": 64,
                        "time": 86.73037159791633,
                        "value": 1
                    },
                    {
                        "number": 64,
                        "time": 87.44822886041634,
                        "value": 0
                    },
                    {
                        "number": 64,
                        "time": 87.542871733333,
                        "value": 1
                    },
                    {
                        "number": 64,
                        "time": 88.31072900416633,
                        "value": 0
                    },
                    {
                        "number": 64,
                        "time": 88.44465759791633,
                        "value": 1
                    },
                    {
                        "number": 64,
                        "time": 89.160729145833,
                        "value": 0
                    },
                    {
                        "number": 64,
                        "time": 89.230372014583,
                        "value": 1
                    },
                    {
                        "number": 64,
                        "time": 92.58572971666631,
                        "value": 0
                    },
                    {
                        "number": 64,
                        "time": 92.67144401666631,
                        "value": 1
                    },
                    {
                        "number": 64,
                        "time": 94.3000157166663,
                        "value": 0
                    },
                    {
                        "number": 64,
                        "time": 94.36787287083295,
                        "value": 1
                    },
                    {
                        "number": 64,
                        "time": 96.00715885833294,
                        "value": 0
                    },
                    {
                        "number": 64,
                        "time": 96.18394460208295,
                        "value": 1
                    },
                    {
                        "number": 64,
                        "time": 96.88751614791627,
                        "value": 0
                    },
                    {
                        "number": 64,
                        "time": 96.98930187916628,
                        "value": 1
                    },
                    {
                        "number": 64,
                        "time": 99.44287371666627,
                        "value": 0
                    },
                    {
                        "number": 64,
                        "time": 99.56787373749961,
                        "value": 1
                    },
                    {
                        "number": 64,
                        "time": 101.16787400416628,
                        "value": 0
                    },
                    {
                        "number": 64,
                        "time": 101.30715974166628,
                        "value": 1
                    },
                    {
                        "number": 64,
                        "time": 102.01608843124961,
                        "value": 0
                    },
                    {
                        "number": 64,
                        "time": 102.16965988541628,
                        "value": 1
                    },
                    {
                        "number": 64,
                        "time": 102.87323143124961,
                        "value": 0
                    },
                    {
                        "number": 64,
                        "time": 103.00537431041627,
                        "value": 1
                    },
                    {
                        "number": 64,
                        "time": 104.58037457291628,
                        "value": 0
                    },
                    {
                        "number": 64,
                        "time": 104.64644601249962,
                        "value": 1
                    },
                    {
                        "number": 64,
                        "time": 105.45001757499962,
                        "value": 0
                    },
                    {
                        "number": 64,
                        "time": 105.55180330624962,
                        "value": 1
                    },
                    {
                        "number": 64,
                        "time": 106.17323198124961,
                        "value": 0
                    },
                    {
                        "number": 64,
                        "time": 106.28573199999961,
                        "value": 1
                    },
                    {
                        "number": 64,
                        "time": 108.01073228749961,
                        "value": 0
                    },
                    {
                        "number": 64,
                        "time": 108.10001801666627,
                        "value": 1
                    },
                    {
                        "number": 64,
                        "time": 108.79466098958294,
                        "value": 0
                    },
                    {
                        "number": 64,
                        "time": 108.91966101041628,
                        "value": 1
                    },
                    {
                        "number": 64,
                        "time": 109.58216112083294,
                        "value": 0
                    },
                    {
                        "number": 64,
                        "time": 109.7143039999996,
                        "value": 1
                    },
                    {
                        "number": 64,
                        "time": 111.3268042687496,
                        "value": 0
                    },
                    {
                        "number": 64,
                        "time": 111.47501857916626,
                        "value": 1
                    },
                    {
                        "number": 64,
                        "time": 112.97501882916626,
                        "value": 0
                    },
                    {
                        "number": 64,
                        "time": 113.05537598541626,
                        "value": 1
                    },
                    {
                        "number": 64,
                        "time": 113.38930461249959,
                        "value": 0
                    },
                    {
                        "number": 64,
                        "time": 114.01966186041625,
                        "value": 1
                    },
                    {
                        "number": 64,
                        "time": 114.88037628958291,
                        "value": 0
                    },
                    {
                        "number": 64,
                        "time": 115.07859060833292,
                        "value": 1
                    },
                    {
                        "number": 64,
                        "time": 115.73930500416625,
                        "value": 0
                    },
                    {
                        "number": 64,
                        "time": 116.64644801249959,
                        "value": 1
                    },
                    {
                        "number": 64,
                        "time": 118.30359114583293,
                        "value": 0
                    },
                    {
                        "number": 64,
                        "time": 118.36073401249959,
                        "value": 1
                    },
                    {
                        "number": 64,
                        "time": 119.08037698958293,
                        "value": 0
                    },
                    {
                        "number": 64,
                        "time": 119.20537701041627,
                        "value": 1
                    },
                    {
                        "number": 64,
                        "time": 120.01787714583294,
                        "value": 0
                    },
                    {
                        "number": 64,
                        "time": 120.15180573958294,
                        "value": 1
                    },
                    {
                        "number": 64,
                        "time": 121.73573457499961,
                        "value": 0
                    },
                    {
                        "number": 64,
                        "time": 121.78930601249961,
                        "value": 1
                    },
                    {
                        "number": 64,
                        "time": 122.59109186041627,
                        "value": 0
                    },
                    {
                        "number": 64,
                        "time": 122.67144901666627,
                        "value": 1
                    },
                    {
                        "number": 64,
                        "time": 123.44287771666626,
                        "value": 0
                    },
                    {
                        "number": 64,
                        "time": 123.59287774166626,
                        "value": 1
                    },
                    {
                        "number": 64,
                        "time": 125.16787800416625,
                        "value": 0
                    },
                    {
                        "number": 64,
                        "time": 125.28216373749959,
                        "value": 1
                    },
                    {
                        "number": 64,
                        "time": 126.01609243124959,
                        "value": 0
                    },
                    {
                        "number": 64,
                        "time": 126.11966387708293,
                        "value": 1
                    },
                    {
                        "number": 64,
                        "time": 126.8571639999996,
                        "value": 0
                    },
                    {
                        "number": 64,
                        "time": 127.7893070124996,
                        "value": 1
                    },
                    {
                        "number": 64,
                        "time": 128.5982357187496,
                        "value": 0
                    },
                    {
                        "number": 64,
                        "time": 128.79287860833293,
                        "value": 1
                    },
                    {
                        "number": 64,
                        "time": 129.44823586041625,
                        "value": 0
                    },
                    {
                        "number": 64,
                        "time": 130.36073601249956,
                        "value": 1
                    },
                    {
                        "number": 64,
                        "time": 132.02502200416623,
                        "value": 0
                    },
                    {
                        "number": 64,
                        "time": 132.13752202291624,
                        "value": 1
                    },
                    {
                        "number": 64,
                        "time": 132.7946649895829,
                        "value": 0
                    },
                    {
                        "number": 64,
                        "time": 132.91966501041625,
                        "value": 1
                    },
                    {
                        "number": 64,
                        "time": 133.72859371666627,
                        "value": 0
                    },
                    {
                        "number": 64,
                        "time": 133.90895088958294,
                        "value": 1
                    },
                    {
                        "number": 64,
                        "time": 135.44823686041627,
                        "value": 0
                    },
                    {
                        "number": 64,
                        "time": 135.59287974166628,
                        "value": 1
                    },
                    {
                        "number": 64,
                        "time": 136.30359414583296,
                        "value": 0
                    },
                    {
                        "number": 64,
                        "time": 136.43752273958296,
                        "value": 1
                    },
                    {
                        "number": 64,
                        "time": 137.15359428749966,
                        "value": 0
                    },
                    {
                        "number": 64,
                        "time": 137.30002288333299,
                        "value": 1
                    },
                    {
                        "number": 64,
                        "time": 138.864308858333,
                        "value": 0
                    },
                    {
                        "number": 64,
                        "time": 138.98930887916634,
                        "value": 1
                    },
                    {
                        "number": 64,
                        "time": 139.726809002083,
                        "value": 0
                    },
                    {
                        "number": 64,
                        "time": 139.84645187916632,
                        "value": 1
                    },
                    {
                        "number": 64,
                        "time": 140.58216628749966,
                        "value": 0
                    },
                    {
                        "number": 64,
                        "time": 140.76073774583298,
                        "value": 1
                    },
                    {
                        "number": 64,
                        "time": 142.29823800208297,
                        "value": 0
                    },
                    {
                        "number": 64,
                        "time": 142.4125237354163,
                        "value": 1
                    },
                    {
                        "number": 64,
                        "time": 143.16430957499963,
                        "value": 0
                    },
                    {
                        "number": 64,
                        "time": 143.28216673749964,
                        "value": 1
                    },
                    {
                        "number": 64,
                        "time": 143.8803811229163,
                        "value": 0
                    },
                    {
                        "number": 64,
                        "time": 144.00002399999963,
                        "value": 1
                    },
                    {
                        "number": 64,
                        "time": 145.7339528604163,
                        "value": 0
                    },
                    {
                        "number": 64,
                        "time": 145.8143100166663,
                        "value": 1
                    },
                    {
                        "number": 64,
                        "time": 146.5910958604163,
                        "value": 0
                    },
                    {
                        "number": 64,
                        "time": 146.74823874374962,
                        "value": 1
                    },
                    {
                        "number": 64,
                        "time": 147.23395311041628,
                        "value": 0
                    },
                    {
                        "number": 64,
                        "time": 147.37859599166626,
                        "value": 1
                    },
                    {
                        "number": 64,
                        "time": 149.02323912291627,
                        "value": 0
                    },
                    {
                        "number": 64,
                        "time": 149.20538201041626,
                        "value": 1
                    },
                    {
                        "number": 64,
                        "time": 150.72502512083292,
                        "value": 0
                    },
                    {
                        "number": 64,
                        "time": 150.85716799999958,
                        "value": 1
                    },
                    {
                        "number": 64,
                        "time": 151.10359661249956,
                        "value": 0
                    },
                    {
                        "number": 64,
                        "time": 151.73395386041622,
                        "value": 1
                    },
                    {
                        "number": 64,
                        "time": 152.6053825770829,
                        "value": 0
                    },
                    {
                        "number": 64,
                        "time": 152.79288260833292,
                        "value": 1
                    },
                    {
                        "number": 64,
                        "time": 153.4410970020829,
                        "value": 0
                    },
                    {
                        "number": 64,
                        "time": 156.01609743124956,
                        "value": 0
                    },
                    {
                        "number": 64,
                        "time": 156.10002601666622,
                        "value": 1
                    },
                    {
                        "number": 64,
                        "time": 156.8750261458329,
                        "value": 0
                    },
                    {
                        "number": 64,
                        "time": 156.98395473541623,
                        "value": 1
                    },
                    {
                        "number": 64,
                        "time": 157.5875262645829,
                        "value": 0
                    },
                    {
                        "number": 64,
                        "time": 157.71431199999955,
                        "value": 1
                    },
                    {
                        "number": 64,
                        "time": 159.2643122583329,
                        "value": 0
                    },
                    {
                        "number": 64,
                        "time": 159.51074087083288,
                        "value": 1
                    },
                    {
                        "number": 64,
                        "time": 161.14288399999955,
                        "value": 0
                    },
                    {
                        "number": 64,
                        "time": 161.25002687499955,
                        "value": 1
                    },
                    {
                        "number": 64,
                        "time": 161.38931261249954,
                        "value": 0
                    },
                    {
                        "number": 64,
                        "time": 162.0196698604162,
                        "value": 1
                    },
                    {
                        "number": 64,
                        "time": 162.88752714791622,
                        "value": 0
                    },
                    {
                        "number": 64,
                        "time": 163.0785986083329,
                        "value": 1
                    },
                    {
                        "number": 64,
                        "time": 163.7214558583329,
                        "value": 0
                    },
                    {
                        "number": 64,
                        "time": 165.46967043541622,
                        "value": 1
                    },
                    {
                        "number": 64,
                        "time": 166.3035991458329,
                        "value": 0
                    },
                    {
                        "number": 64,
                        "time": 166.39824201874956,
                        "value": 1
                    },
                    {
                        "number": 64,
                        "time": 167.15359928749956,
                        "value": 0
                    },
                    {
                        "number": 64,
                        "time": 168.0410994354162,
                        "value": 1
                    },
                    {
                        "number": 64,
                        "time": 168.87145671666622,
                        "value": 0
                    },
                    {
                        "number": 64,
                        "time": 168.96967101874955,
                        "value": 1
                    },
                    {
                        "number": 64,
                        "time": 169.7393140041662,
                        "value": 0
                    },
                    {
                        "number": 64,
                        "time": 169.96967118541622,
                        "value": 1
                    },
                    {
                        "number": 64,
                        "time": 170.58217128749953,
                        "value": 0
                    },
                    {
                        "number": 64,
                        "time": 170.68395701874954,
                        "value": 1
                    },
                    {
                        "number": 64,
                        "time": 171.45538571874954,
                        "value": 0
                    },
                    {
                        "number": 64,
                        "time": 171.78217148749954,
                        "value": 1
                    },
                    {
                        "number": 64,
                        "time": 173.17145743333288,
                        "value": 0
                    },
                    {
                        "number": 64,
                        "time": 173.32502888749954,
                        "value": 1
                    },
                    {
                        "number": 64,
                        "time": 174.02145757499954,
                        "value": 0
                    },
                    {
                        "number": 64,
                        "time": 174.19467188958288,
                        "value": 1
                    },
                    {
                        "number": 64,
                        "time": 174.86967200208286,
                        "value": 0
                    },
                    {
                        "number": 64,
                        "time": 175.28574349999954,
                        "value": 1
                    },
                    {
                        "number": 64,
                        "time": 176.58752943124955,
                        "value": 0
                    },
                    {
                        "number": 64,
                        "time": 176.75181517291622,
                        "value": 1
                    },
                    {
                        "number": 64,
                        "time": 177.4625295770829,
                        "value": 0
                    },
                    {
                        "number": 64,
                        "time": 177.57502959583292,
                        "value": 1
                    },
                    {
                        "number": 64,
                        "time": 178.3018154312496,
                        "value": 0
                    },
                    {
                        "number": 64,
                        "time": 178.36252972708292,
                        "value": 1
                    },
                    {
                        "number": 64,
                        "time": 179.16788700416626,
                        "value": 0
                    },
                    {
                        "number": 64,
                        "time": 179.26967273541626,
                        "value": 1
                    },
                    {
                        "number": 64,
                        "time": 180.01788714583296,
                        "value": 0
                    },
                    {
                        "number": 64,
                        "time": 180.12324430624963,
                        "value": 1
                    },
                    {
                        "number": 64,
                        "time": 180.89110157708296,
                        "value": 0
                    },
                    {
                        "number": 64,
                        "time": 181.03038731458295,
                        "value": 1
                    },
                    {
                        "number": 64,
                        "time": 181.59645883749963,
                        "value": 0
                    },
                    {
                        "number": 64,
                        "time": 182.6125304354163,
                        "value": 1
                    },
                    {
                        "number": 64,
                        "time": 183.4339591437496,
                        "value": 0
                    },
                    {
                        "number": 64,
                        "time": 183.5411020187496,
                        "value": 1
                    },
                    {
                        "number": 64,
                        "time": 184.2964592874996,
                        "value": 0
                    },
                    {
                        "number": 64,
                        "time": 185.18395943541626,
                        "value": 1
                    },
                    {
                        "number": 64,
                        "time": 186.01610243124958,
                        "value": 0
                    },
                    {
                        "number": 64,
                        "time": 186.11253101874956,
                        "value": 1
                    },
                    {
                        "number": 64,
                        "time": 186.86788828749957,
                        "value": 0
                    },
                    {
                        "number": 64,
                        "time": 187.11253118541623,
                        "value": 1
                    },
                    {
                        "number": 64,
                        "time": 187.73038843124954,
                        "value": 0
                    },
                    {
                        "number": 64,
                        "time": 187.82681701874952,
                        "value": 1
                    },
                    {
                        "number": 64,
                        "time": 188.5857457166662,
                        "value": 0
                    },
                    {
                        "number": 64,
                        "time": 188.98038863958286,
                        "value": 1
                    },
                    {
                        "number": 64,
                        "time": 190.3107460041662,
                        "value": 0
                    },
                    {
                        "number": 64,
                        "time": 190.42503173749952,
                        "value": 1
                    },
                    {
                        "number": 64,
                        "time": 191.1678890041662,
                        "value": 0
                    },
                    {
                        "number": 64,
                        "time": 191.3071747416662,
                        "value": 1
                    },
                    {
                        "number": 64,
                        "time": 192.01074628749953,
                        "value": 0
                    },
                    {
                        "number": 64,
                        "time": 192.42860349999953,
                        "value": 1
                    },
                    {
                        "number": 64,
                        "time": 193.73574657499952,
                        "value": 0
                    },
                    {
                        "number": 64,
                        "time": 193.89824660208285,
                        "value": 1
                    },
                    {
                        "number": 64,
                        "time": 194.60717529166618,
                        "value": 0
                    },
                    {
                        "number": 64,
                        "time": 194.75003245833284,
                        "value": 1
                    },
                    {
                        "number": 64,
                        "time": 195.44646114583284,
                        "value": 0
                    },
                    {
                        "number": 64,
                        "time": 195.5464611624995,
                        "value": 1
                    },
                    {
                        "number": 64,
                        "time": 196.30360414583282,
                        "value": 0
                    },
                    {
                        "number": 64,
                        "time": 196.3821755874995,
                        "value": 1
                    },
                    {
                        "number": 64,
                        "time": 197.15896143124948,
                        "value": 0
                    },
                    {
                        "number": 64,
                        "time": 197.26074716249948,
                        "value": 1
                    },
                    {
                        "number": 64,
                        "time": 198.03039014791614,
                        "value": 0
                    },
                    {
                        "number": 64,
                        "time": 198.15360445416613,
                        "value": 1
                    },
                    {
                        "number": 64,
                        "time": 198.61967596041612,
                        "value": 0
                    },
                    {
                        "number": 64,
                        "time": 199.73396186041612,
                        "value": 1
                    },
                    {
                        "number": 64,
                        "time": 200.60360486249945,
                        "value": 0
                    },
                    {
                        "number": 64,
                        "time": 200.79289060833278,
                        "value": 1
                    },
                    {
                        "number": 64,
                        "time": 201.45360500416612,
                        "value": 0
                    },
                    {
                        "number": 64,
                        "time": 202.71431949999945,
                        "value": 1
                    },
                    {
                        "number": 64,
                        "time": 204.01789114583278,
                        "value": 0
                    },
                    {
                        "number": 64,
                        "time": 204.11789116249943,
                        "value": 1
                    },
                    {
                        "number": 64,
                        "time": 204.8928912916661,
                        "value": 0
                    },
                    {
                        "number": 64,
                        "time": 204.98753416458277,
                        "value": 1
                    },
                    {
                        "number": 64,
                        "time": 205.72682000208277,
                        "value": 0
                    },
                    {
                        "number": 64,
                        "time": 205.83217716249945,
                        "value": 1
                    },
                    {
                        "number": 64,
                        "time": 206.58932014583277,
                        "value": 0
                    },
                    {
                        "number": 64,
                        "time": 206.69467730624945,
                        "value": 1
                    },
                    {
                        "number": 64,
                        "time": 207.4482488604161,
                        "value": 0
                    },
                    {
                        "number": 64,
                        "time": 207.49467743958277,
                        "value": 1
                    },
                    {
                        "number": 64,
                        "time": 208.30003471666612,
                        "value": 0
                    },
                    {
                        "number": 64,
                        "time": 208.38753473124945,
                        "value": 1
                    },
                    {
                        "number": 64,
                        "time": 208.92860624999943,
                        "value": 0
                    },
                    {
                        "number": 64,
                        "time": 209.3821777541661,
                        "value": 1
                    },
                    {
                        "number": 64,
                        "time": 210.89467800624945,
                        "value": 0
                    },
                    {
                        "number": 64,
                        "time": 210.98396373541613,
                        "value": 1
                    },
                    {
                        "number": 64,
                        "time": 211.74646386249947,
                        "value": 0
                    },
                    {
                        "number": 64,
                        "time": 211.91610674791613,
                        "value": 1
                    },
                    {
                        "number": 64,
                        "time": 212.4661068395828,
                        "value": 0
                    },
                    {
                        "number": 64,
                        "time": 212.84824976041614,
                        "value": 1
                    },
                    {
                        "number": 64,
                        "time": 214.31967857708284,
                        "value": 0
                    },
                    {
                        "number": 64,
                        "time": 214.6643214916662,
                        "value": 1
                    },
                    {
                        "number": 64,
                        "time": 215.1696787187495,
                        "value": 0
                    },
                    {
                        "number": 64,
                        "time": 215.5714644999995,
                        "value": 1
                    },
                    {
                        "number": 64,
                        "time": 216.01789314583286,
                        "value": 0
                    },
                    {
                        "number": 64,
                        "time": 216.33396462708285,
                        "value": 1
                    },
                    {
                        "number": 64,
                        "time": 217.7446791479162,
                        "value": 0
                    },
                    {
                        "number": 64,
                        "time": 218.38039353958285,
                        "value": 1
                    },
                    {
                        "number": 64,
                        "time": 219.4286079999995,
                        "value": 0
                    },
                    {
                        "number": 64,
                        "time": 223.28575149999955,
                        "value": 1
                    },
                    {
                        "number": 64,
                        "time": 227.42860933333287,
                        "value": 0
                    }
                ],
                "91": [
                    {
                        "number": 91,
                        "time": 0,
                        "value": 1
                    }
                ]
            },
            "id": 2,
            "name": "Piano left",
            "instrumentNumber": 0,
            "instrument": "acoustic grand piano",
            "instrumentFamily": "piano",
            "channelNumber": 0,
            "isPercussion": false
        },
        {
            "startTime": 0,
            "duration": 0,
            "length": 0,
            "notes": [],
            "controlChanges": {},
            "id": 3,
            "name": "Schubert: Piano sonata in G minor, Op. 143, 2. Movement"
        },
        {
            "startTime": 0,
            "duration": 0,
            "length": 0,
            "notes": [],
            "controlChanges": {},
            "id": 4,
            "name": "Copyright  2004 by Bernd Krger"
        },
        {
            "startTime": 0,
            "duration": 0,
            "length": 0,
            "notes": [],
            "controlChanges": {},
            "id": 5,
            "name": "http://www.piano-midi.de"
        },
        {
            "startTime": 0,
            "duration": 0,
            "length": 0,
            "notes": [],
            "controlChanges": {},
            "id": 6,
            "name": "Edition: 2014-03-17"
        }
    ]
}