{
    "header": {
        "PPQ": 480,
        "timeSignature": [
            9,
            8
        ],
        "bpm": 64.99999458333379,
        "name": "Nr. 2 in As-Dur"
    },
    "startTime": 0,
    "duration": 378.0000315000018,
    "tracks": [
        {
            "startTime": 0,
            "duration": 0,
            "length": 0,
            "notes": [],
            "controlChanges": {},
            "id": 0,
            "name": "Nr. 2 in As-Dur"
        },
        {
            "startTime": 2.7692309999999996,
            "duration": 378.00003150000026,
            "length": 872,
            "notes": [
                {
                    "name": "G#4",
                    "midi": 68,
                    "time": 2.7692309999999996,
                    "velocity": 0.33070866141732286,
                    "duration": 0.7115385208333334
                },
                {
                    "name": "C5",
                    "midi": 72,
                    "time": 2.7692309999999996,
                    "velocity": 0.36220472440944884,
                    "duration": 0.7115385208333334
                },
                {
                    "name": "C4",
                    "midi": 60,
                    "time": 2.7692309999999996,
                    "velocity": 0.33070866141732286,
                    "duration": 0.7115385208333334
                },
                {
                    "name": "G4",
                    "midi": 67,
                    "time": 3.4615387499999994,
                    "velocity": 0.33070866141732286,
                    "duration": 0.2500000208333337
                },
                {
                    "name": "C#4",
                    "midi": 61,
                    "time": 3.4615387499999994,
                    "velocity": 0.33070866141732286,
                    "duration": 0.2500000208333337
                },
                {
                    "name": "C#5",
                    "midi": 73,
                    "time": 3.4615387499999994,
                    "velocity": 0.36220472440944884,
                    "duration": 0.2500000208333337
                },
                {
                    "name": "G#4",
                    "midi": 68,
                    "time": 3.6923079999999997,
                    "velocity": 0.33070866141732286,
                    "duration": 0.4615385000000005
                },
                {
                    "name": "C5",
                    "midi": 72,
                    "time": 3.6923079999999997,
                    "velocity": 0.36220472440944884,
                    "duration": 0.4615385000000005
                },
                {
                    "name": "C4",
                    "midi": 60,
                    "time": 3.6923079999999997,
                    "velocity": 0.33070866141732286,
                    "duration": 0.4615385000000005
                },
                {
                    "name": "C#5",
                    "midi": 73,
                    "time": 4.1538465,
                    "velocity": 0.29133858267716534,
                    "duration": 2.7692309999999996
                },
                {
                    "name": "C#4",
                    "midi": 61,
                    "time": 4.1538465,
                    "velocity": 0.2677165354330709,
                    "duration": 2.7692309999999996
                },
                {
                    "name": "G4",
                    "midi": 67,
                    "time": 4.1538465,
                    "velocity": 0.2677165354330709,
                    "duration": 2.7692309999999996
                },
                {
                    "name": "C5",
                    "midi": 72,
                    "time": 6.9230775,
                    "velocity": 0.36220472440944884,
                    "duration": 0.7115385208333329
                },
                {
                    "name": "C4",
                    "midi": 60,
                    "time": 6.9230775,
                    "velocity": 0.33070866141732286,
                    "duration": 0.7115385208333329
                },
                {
                    "name": "G#4",
                    "midi": 68,
                    "time": 6.9230775,
                    "velocity": 0.33070866141732286,
                    "duration": 0.7115385208333329
                },
                {
                    "name": "C#4",
                    "midi": 61,
                    "time": 7.615385249999999,
                    "velocity": 0.33070866141732286,
                    "duration": 0.2500000208333333
                },
                {
                    "name": "G4",
                    "midi": 67,
                    "time": 7.615385249999999,
                    "velocity": 0.33070866141732286,
                    "duration": 0.2500000208333333
                },
                {
                    "name": "C#5",
                    "midi": 73,
                    "time": 7.615385249999999,
                    "velocity": 0.36220472440944884,
                    "duration": 0.2500000208333333
                },
                {
                    "name": "C4",
                    "midi": 60,
                    "time": 7.846154499999999,
                    "velocity": 0.33070866141732286,
                    "duration": 0.46153849999999963
                },
                {
                    "name": "C5",
                    "midi": 72,
                    "time": 7.846154499999999,
                    "velocity": 0.36220472440944884,
                    "duration": 0.46153849999999963
                },
                {
                    "name": "G#4",
                    "midi": 68,
                    "time": 7.846154499999999,
                    "velocity": 0.33070866141732286,
                    "duration": 0.46153849999999963
                },
                {
                    "name": "G4",
                    "midi": 67,
                    "time": 8.307692999999999,
                    "velocity": 0.2755905511811024,
                    "duration": 2.7692309999999996
                },
                {
                    "name": "A#3",
                    "midi": 58,
                    "time": 8.307692999999999,
                    "velocity": 0.2755905511811024,
                    "duration": 2.7692309999999996
                },
                {
                    "name": "A#4",
                    "midi": 70,
                    "time": 8.307692999999999,
                    "velocity": 0.31496062992125984,
                    "duration": 2.7692309999999996
                },
                {
                    "name": "G#4",
                    "midi": 68,
                    "time": 11.076923999999998,
                    "velocity": 0.33070866141732286,
                    "duration": 0.7115385208333329
                },
                {
                    "name": "C4",
                    "midi": 60,
                    "time": 11.076923999999998,
                    "velocity": 0.33070866141732286,
                    "duration": 0.7115385208333329
                },
                {
                    "name": "C5",
                    "midi": 72,
                    "time": 11.076923999999998,
                    "velocity": 0.36220472440944884,
                    "duration": 0.7115385208333329
                },
                {
                    "name": "G4",
                    "midi": 67,
                    "time": 11.769231749999998,
                    "velocity": 0.33070866141732286,
                    "duration": 0.2500000208333333
                },
                {
                    "name": "C#5",
                    "midi": 73,
                    "time": 11.769231749999998,
                    "velocity": 0.36220472440944884,
                    "duration": 0.2500000208333333
                },
                {
                    "name": "C#4",
                    "midi": 61,
                    "time": 11.769231749999998,
                    "velocity": 0.33070866141732286,
                    "duration": 0.2500000208333333
                },
                {
                    "name": "C5",
                    "midi": 72,
                    "time": 12.000000999999997,
                    "velocity": 0.36220472440944884,
                    "duration": 0.46153849999999963
                },
                {
                    "name": "C4",
                    "midi": 60,
                    "time": 12.000000999999997,
                    "velocity": 0.33070866141732286,
                    "duration": 0.46153849999999963
                },
                {
                    "name": "G#4",
                    "midi": 68,
                    "time": 12.000000999999997,
                    "velocity": 0.33070866141732286,
                    "duration": 0.46153849999999963
                },
                {
                    "name": "C5",
                    "midi": 72,
                    "time": 12.461539499999997,
                    "velocity": 0.33070866141732286,
                    "duration": 0.7115385208333329
                },
                {
                    "name": "C4",
                    "midi": 60,
                    "time": 12.461539499999997,
                    "velocity": 0.28346456692913385,
                    "duration": 0.7115385208333329
                },
                {
                    "name": "G#4",
                    "midi": 68,
                    "time": 12.461539499999997,
                    "velocity": 0.28346456692913385,
                    "duration": 0.7115385208333329
                },
                {
                    "name": "C#4",
                    "midi": 61,
                    "time": 13.153847249999997,
                    "velocity": 0.3543307086614173,
                    "duration": 0.2500000208333333
                },
                {
                    "name": "G4",
                    "midi": 67,
                    "time": 13.153847249999997,
                    "velocity": 0.3543307086614173,
                    "duration": 0.2500000208333333
                },
                {
                    "name": "C#5",
                    "midi": 73,
                    "time": 13.153847249999997,
                    "velocity": 0.4015748031496063,
                    "duration": 0.2500000208333333
                },
                {
                    "name": "C4",
                    "midi": 60,
                    "time": 13.384616499999996,
                    "velocity": 0.3700787401574803,
                    "duration": 0.46153849999999963
                },
                {
                    "name": "C5",
                    "midi": 72,
                    "time": 13.384616499999996,
                    "velocity": 0.4251968503937008,
                    "duration": 0.46153849999999963
                },
                {
                    "name": "G#4",
                    "midi": 68,
                    "time": 13.384616499999996,
                    "velocity": 0.3700787401574803,
                    "duration": 0.46153849999999963
                },
                {
                    "name": "G#4",
                    "midi": 68,
                    "time": 13.846154999999996,
                    "velocity": 0.4566929133858268,
                    "duration": 1.1538462500000009
                },
                {
                    "name": "D#4",
                    "midi": 63,
                    "time": 13.846154999999996,
                    "velocity": 0.4566929133858268,
                    "duration": 1.1538462500000009
                },
                {
                    "name": "D#5",
                    "midi": 75,
                    "time": 13.846154999999996,
                    "velocity": 0.5039370078740157,
                    "duration": 1.1538462500000009
                },
                {
                    "name": "D#5",
                    "midi": 75,
                    "time": 15.000001249999997,
                    "velocity": 0.33858267716535434,
                    "duration": 0.23076924999999981
                },
                {
                    "name": "D#4",
                    "midi": 63,
                    "time": 15.000001249999997,
                    "velocity": 0.29133858267716534,
                    "duration": 0.23076924999999981
                },
                {
                    "name": "C#5",
                    "midi": 73,
                    "time": 15.230770499999997,
                    "velocity": 0.33858267716535434,
                    "duration": 1.153846249999999
                },
                {
                    "name": "G4",
                    "midi": 67,
                    "time": 15.230770499999997,
                    "velocity": 0.29133858267716534,
                    "duration": 1.153846249999999
                },
                {
                    "name": "C#4",
                    "midi": 61,
                    "time": 15.230770499999997,
                    "velocity": 0.29133858267716534,
                    "duration": 1.153846249999999
                },
                {
                    "name": "C4",
                    "midi": 60,
                    "time": 16.384616749999996,
                    "velocity": 0.2755905511811024,
                    "duration": 0.2307692500000016
                },
                {
                    "name": "G#4",
                    "midi": 68,
                    "time": 16.384616749999996,
                    "velocity": 0.2755905511811024,
                    "duration": 0.2307692500000016
                },
                {
                    "name": "C5",
                    "midi": 72,
                    "time": 16.384616749999996,
                    "velocity": 0.30708661417322836,
                    "duration": 0.2307692500000016
                },
                {
                    "name": "C4",
                    "midi": 60,
                    "time": 16.615385999999997,
                    "velocity": 0.25196850393700787,
                    "duration": 2.7692310000000013
                },
                {
                    "name": "C5",
                    "midi": 72,
                    "time": 16.615385999999997,
                    "velocity": 0.28346456692913385,
                    "duration": 2.7692310000000013
                },
                {
                    "name": "G#4",
                    "midi": 68,
                    "time": 16.615385999999997,
                    "velocity": 0.25196850393700787,
                    "duration": 2.7692310000000013
                },
                {
                    "name": "G4",
                    "midi": 67,
                    "time": 19.384617,
                    "velocity": 0.2755905511811024,
                    "duration": 0.7115385208333329
                },
                {
                    "name": "A#3",
                    "midi": 58,
                    "time": 19.384617,
                    "velocity": 0.2755905511811024,
                    "duration": 0.7115385208333329
                },
                {
                    "name": "A#4",
                    "midi": 70,
                    "time": 19.384617,
                    "velocity": 0.30708661417322836,
                    "duration": 0.7115385208333329
                },
                {
                    "name": "B4",
                    "midi": 71,
                    "time": 20.07692475,
                    "velocity": 0.30708661417322836,
                    "duration": 0.25000002083332973
                },
                {
                    "name": "B3",
                    "midi": 59,
                    "time": 20.07692475,
                    "velocity": 0.2755905511811024,
                    "duration": 0.25000002083332973
                },
                {
                    "name": "G#4",
                    "midi": 68,
                    "time": 20.07692475,
                    "velocity": 0.2755905511811024,
                    "duration": 0.25000002083332973
                },
                {
                    "name": "G4",
                    "midi": 67,
                    "time": 20.307693999999998,
                    "velocity": 0.2755905511811024,
                    "duration": 0.46153849999999963
                },
                {
                    "name": "A#4",
                    "midi": 70,
                    "time": 20.307693999999998,
                    "velocity": 0.30708661417322836,
                    "duration": 0.46153849999999963
                },
                {
                    "name": "A#3",
                    "midi": 58,
                    "time": 20.307693999999998,
                    "velocity": 0.2755905511811024,
                    "duration": 0.46153849999999963
                },
                {
                    "name": "A#4",
                    "midi": 70,
                    "time": 20.769232499999998,
                    "velocity": 0.30708661417322836,
                    "duration": 0.7115385208333329
                },
                {
                    "name": "A#3",
                    "midi": 58,
                    "time": 20.769232499999998,
                    "velocity": 0.2755905511811024,
                    "duration": 0.7115385208333329
                },
                {
                    "name": "G4",
                    "midi": 67,
                    "time": 20.769232499999998,
                    "velocity": 0.2755905511811024,
                    "duration": 0.7115385208333329
                },
                {
                    "name": "G#4",
                    "midi": 68,
                    "time": 21.46154025,
                    "velocity": 0.2755905511811024,
                    "duration": 0.25000002083332973
                },
                {
                    "name": "B3",
                    "midi": 59,
                    "time": 21.46154025,
                    "velocity": 0.2755905511811024,
                    "duration": 0.25000002083332973
                },
                {
                    "name": "B4",
                    "midi": 71,
                    "time": 21.46154025,
                    "velocity": 0.30708661417322836,
                    "duration": 0.25000002083332973
                },
                {
                    "name": "A#3",
                    "midi": 58,
                    "time": 21.692309499999997,
                    "velocity": 0.2755905511811024,
                    "duration": 0.46153849999999963
                },
                {
                    "name": "G4",
                    "midi": 67,
                    "time": 21.692309499999997,
                    "velocity": 0.2755905511811024,
                    "duration": 0.46153849999999963
                },
                {
                    "name": "A#4",
                    "midi": 70,
                    "time": 21.692309499999997,
                    "velocity": 0.30708661417322836,
                    "duration": 0.46153849999999963
                },
                {
                    "name": "B4",
                    "midi": 71,
                    "time": 22.153847999999996,
                    "velocity": 0.48031496062992124,
                    "duration": 4.153846499999997
                },
                {
                    "name": "F4",
                    "midi": 65,
                    "time": 22.153847999999996,
                    "velocity": 0.4409448818897638,
                    "duration": 2.7692309999999978
                },
                {
                    "name": "G#4",
                    "midi": 68,
                    "time": 22.153847999999996,
                    "velocity": 0.4409448818897638,
                    "duration": 4.153846499999997
                },
                {
                    "name": "D#4",
                    "midi": 63,
                    "time": 24.923078999999994,
                    "velocity": 0.2125984251968504,
                    "duration": 1.8461539999999985
                },
                {
                    "name": "G4",
                    "midi": 67,
                    "time": 26.307694499999993,
                    "velocity": 0.1889763779527559,
                    "duration": 0.46153849999999963
                },
                {
                    "name": "A#4",
                    "midi": 70,
                    "time": 26.307694499999993,
                    "velocity": 0.2125984251968504,
                    "duration": 0.46153849999999963
                },
                {
                    "name": "A#3",
                    "midi": 58,
                    "time": 27.692309999999992,
                    "velocity": 0.3228346456692913,
                    "duration": 0.7115385208333329
                },
                {
                    "name": "F#4",
                    "midi": 66,
                    "time": 27.692309999999992,
                    "velocity": 0.3228346456692913,
                    "duration": 0.7115385208333329
                },
                {
                    "name": "A#4",
                    "midi": 70,
                    "time": 27.692309999999992,
                    "velocity": 0.3543307086614173,
                    "duration": 0.7115385208333329
                },
                {
                    "name": "B4",
                    "midi": 71,
                    "time": 28.384617749999993,
                    "velocity": 0.3543307086614173,
                    "duration": 0.25000002083332973
                },
                {
                    "name": "G#4",
                    "midi": 68,
                    "time": 28.384617749999993,
                    "velocity": 0.3228346456692913,
                    "duration": 0.25000002083332973
                },
                {
                    "name": "B3",
                    "midi": 59,
                    "time": 28.384617749999993,
                    "velocity": 0.3228346456692913,
                    "duration": 0.25000002083332973
                },
                {
                    "name": "A#4",
                    "midi": 70,
                    "time": 28.61538699999999,
                    "velocity": 0.3543307086614173,
                    "duration": 0.46153849999999963
                },
                {
                    "name": "F#4",
                    "midi": 66,
                    "time": 28.61538699999999,
                    "velocity": 0.3228346456692913,
                    "duration": 0.46153849999999963
                },
                {
                    "name": "A#3",
                    "midi": 58,
                    "time": 28.61538699999999,
                    "velocity": 0.3228346456692913,
                    "duration": 0.46153849999999963
                },
                {
                    "name": "A#4",
                    "midi": 70,
                    "time": 29.07692549999999,
                    "velocity": 0.3543307086614173,
                    "duration": 0.46153849999999963
                },
                {
                    "name": "A#3",
                    "midi": 58,
                    "time": 29.07692549999999,
                    "velocity": 0.31496062992125984,
                    "duration": 0.46153849999999963
                },
                {
                    "name": "F#4",
                    "midi": 66,
                    "time": 29.07692549999999,
                    "velocity": 0.31496062992125984,
                    "duration": 0.46153849999999963
                },
                {
                    "name": "D#4",
                    "midi": 63,
                    "time": 29.53846399999999,
                    "velocity": 0.3779527559055118,
                    "duration": 0.46153849999999963
                },
                {
                    "name": "A#4",
                    "midi": 70,
                    "time": 29.53846399999999,
                    "velocity": 0.3779527559055118,
                    "duration": 0.46153849999999963
                },
                {
                    "name": "D#5",
                    "midi": 75,
                    "time": 29.53846399999999,
                    "velocity": 0.41732283464566927,
                    "duration": 0.46153849999999963
                },
                {
                    "name": "F4",
                    "midi": 65,
                    "time": 30.00000249999999,
                    "velocity": 0.47244094488188976,
                    "duration": 0.46153849999999963
                },
                {
                    "name": "F5",
                    "midi": 77,
                    "time": 30.00000249999999,
                    "velocity": 0.5275590551181102,
                    "duration": 0.46153849999999963
                },
                {
                    "name": "D#5",
                    "midi": 75,
                    "time": 30.00000249999999,
                    "velocity": 0.47244094488188976,
                    "duration": 0.46153849999999963
                },
                {
                    "name": "D#5",
                    "midi": 75,
                    "time": 30.46154099999999,
                    "velocity": 0.5039370078740157,
                    "duration": 1.1538462500000009
                },
                {
                    "name": "F#4",
                    "midi": 66,
                    "time": 30.46154099999999,
                    "velocity": 0.5039370078740157,
                    "duration": 1.1538462500000009
                },
                {
                    "name": "F#5",
                    "midi": 78,
                    "time": 30.46154099999999,
                    "velocity": 0.5748031496062992,
                    "duration": 1.1538462500000009
                },
                {
                    "name": "F#5",
                    "midi": 78,
                    "time": 31.61538724999999,
                    "velocity": 0.4251968503937008,
                    "duration": 0.2307692500000016
                },
                {
                    "name": "F#4",
                    "midi": 66,
                    "time": 31.61538724999999,
                    "velocity": 0.3858267716535433,
                    "duration": 0.2307692500000016
                },
                {
                    "name": "F5",
                    "midi": 77,
                    "time": 31.846156499999992,
                    "velocity": 0.3543307086614173,
                    "duration": 1.1538462500000009
                },
                {
                    "name": "F4",
                    "midi": 65,
                    "time": 31.846156499999992,
                    "velocity": 0.3228346456692913,
                    "duration": 1.1538462500000009
                },
                {
                    "name": "D5",
                    "midi": 74,
                    "time": 31.846156499999992,
                    "velocity": 0.3228346456692913,
                    "duration": 1.1538462500000009
                },
                {
                    "name": "D#4",
                    "midi": 63,
                    "time": 33.00000274999999,
                    "velocity": 0.2125984251968504,
                    "duration": 0.2307692500000016
                },
                {
                    "name": "D#5",
                    "midi": 75,
                    "time": 33.00000274999999,
                    "velocity": 0.2440944881889764,
                    "duration": 0.2307692500000016
                },
                {
                    "name": "D#5",
                    "midi": 75,
                    "time": 33.230771999999995,
                    "velocity": 0.2440944881889764,
                    "duration": 2.7692309999999978
                },
                {
                    "name": "D#4",
                    "midi": 63,
                    "time": 33.230771999999995,
                    "velocity": 0.2125984251968504,
                    "duration": 2.7692309999999978
                },
                {
                    "name": "C5",
                    "midi": 72,
                    "time": 36.00000299999999,
                    "velocity": 0.2755905511811024,
                    "duration": 0.7115385208333294
                },
                {
                    "name": "C4",
                    "midi": 60,
                    "time": 36.00000299999999,
                    "velocity": 0.23622047244094488,
                    "duration": 0.7115385208333294
                },
                {
                    "name": "G#4",
                    "midi": 68,
                    "time": 36.00000299999999,
                    "velocity": 0.23622047244094488,
                    "duration": 0.7115385208333294
                },
                {
                    "name": "C#4",
                    "midi": 61,
                    "time": 36.69231074999999,
                    "velocity": 0.23622047244094488,
                    "duration": 0.2500000208333333
                },
                {
                    "name": "G4",
                    "midi": 67,
                    "time": 36.69231074999999,
                    "velocity": 0.23622047244094488,
                    "duration": 0.2500000208333333
                },
                {
                    "name": "C#5",
                    "midi": 73,
                    "time": 36.69231074999999,
                    "velocity": 0.2755905511811024,
                    "duration": 0.2500000208333333
                },
                {
                    "name": "C4",
                    "midi": 60,
                    "time": 36.92307999999999,
                    "velocity": 0.23622047244094488,
                    "duration": 0.4615384999999961
                },
                {
                    "name": "C5",
                    "midi": 72,
                    "time": 36.92307999999999,
                    "velocity": 0.2755905511811024,
                    "duration": 0.4615384999999961
                },
                {
                    "name": "G#4",
                    "midi": 68,
                    "time": 36.92307999999999,
                    "velocity": 0.23622047244094488,
                    "duration": 0.4615384999999961
                },
                {
                    "name": "G4",
                    "midi": 67,
                    "time": 37.38461849999999,
                    "velocity": 0.1968503937007874,
                    "duration": 2.7692309999999978
                },
                {
                    "name": "C#4",
                    "midi": 61,
                    "time": 37.38461849999999,
                    "velocity": 0.1968503937007874,
                    "duration": 2.7692309999999978
                },
                {
                    "name": "C#5",
                    "midi": 73,
                    "time": 37.38461849999999,
                    "velocity": 0.2204724409448819,
                    "duration": 2.7692309999999978
                },
                {
                    "name": "G#4",
                    "midi": 68,
                    "time": 40.153849499999986,
                    "velocity": 0.23622047244094488,
                    "duration": 0.7115385208333294
                },
                {
                    "name": "C4",
                    "midi": 60,
                    "time": 40.153849499999986,
                    "velocity": 0.23622047244094488,
                    "duration": 0.7115385208333294
                },
                {
                    "name": "C5",
                    "midi": 72,
                    "time": 40.153849499999986,
                    "velocity": 0.2755905511811024,
                    "duration": 0.7115385208333294
                },
                {
                    "name": "D#5",
                    "midi": 75,
                    "time": 40.84615724999998,
                    "velocity": 0.28346456692913385,
                    "duration": 0.2500000208333333
                },
                {
                    "name": "D#4",
                    "midi": 63,
                    "time": 40.84615724999998,
                    "velocity": 0.2440944881889764,
                    "duration": 0.2500000208333333
                },
                {
                    "name": "C4",
                    "midi": 60,
                    "time": 41.076926499999985,
                    "velocity": 0.23622047244094488,
                    "duration": 0.4615384999999961
                },
                {
                    "name": "G#4",
                    "midi": 68,
                    "time": 41.076926499999985,
                    "velocity": 0.23622047244094488,
                    "duration": 0.4615384999999961
                },
                {
                    "name": "C5",
                    "midi": 72,
                    "time": 41.076926499999985,
                    "velocity": 0.2755905511811024,
                    "duration": 0.4615384999999961
                },
                {
                    "name": "A#3",
                    "midi": 58,
                    "time": 41.53846499999998,
                    "velocity": 0.1968503937007874,
                    "duration": 2.7692309999999978
                },
                {
                    "name": "A#4",
                    "midi": 70,
                    "time": 41.53846499999998,
                    "velocity": 0.2204724409448819,
                    "duration": 2.7692309999999978
                },
                {
                    "name": "G4",
                    "midi": 67,
                    "time": 41.53846499999998,
                    "velocity": 0.1968503937007874,
                    "duration": 2.7692309999999978
                },
                {
                    "name": "G#4",
                    "midi": 68,
                    "time": 44.30769599999998,
                    "velocity": 0.2283464566929134,
                    "duration": 0.7115385208333294
                },
                {
                    "name": "C4",
                    "midi": 60,
                    "time": 44.30769599999998,
                    "velocity": 0.2283464566929134,
                    "duration": 0.7115385208333294
                },
                {
                    "name": "C5",
                    "midi": 72,
                    "time": 44.30769599999998,
                    "velocity": 0.2677165354330709,
                    "duration": 0.7115385208333294
                },
                {
                    "name": "G4",
                    "midi": 67,
                    "time": 45.000003749999976,
                    "velocity": 0.2283464566929134,
                    "duration": 0.2500000208333333
                },
                {
                    "name": "C#4",
                    "midi": 61,
                    "time": 45.000003749999976,
                    "velocity": 0.2283464566929134,
                    "duration": 0.2500000208333333
                },
                {
                    "name": "C#5",
                    "midi": 73,
                    "time": 45.000003749999976,
                    "velocity": 0.2677165354330709,
                    "duration": 0.2500000208333333
                },
                {
                    "name": "G#4",
                    "midi": 68,
                    "time": 45.23077299999998,
                    "velocity": 0.2283464566929134,
                    "duration": 0.4615384999999961
                },
                {
                    "name": "C5",
                    "midi": 72,
                    "time": 45.23077299999998,
                    "velocity": 0.2677165354330709,
                    "duration": 0.4615384999999961
                },
                {
                    "name": "C4",
                    "midi": 60,
                    "time": 45.23077299999998,
                    "velocity": 0.2283464566929134,
                    "duration": 0.4615384999999961
                },
                {
                    "name": "C5",
                    "midi": 72,
                    "time": 45.692311499999974,
                    "velocity": 0.23622047244094488,
                    "duration": 0.7115385208333294
                },
                {
                    "name": "C4",
                    "midi": 60,
                    "time": 45.692311499999974,
                    "velocity": 0.2125984251968504,
                    "duration": 0.7115385208333294
                },
                {
                    "name": "G#4",
                    "midi": 68,
                    "time": 45.692311499999974,
                    "velocity": 0.2125984251968504,
                    "duration": 0.7115385208333294
                },
                {
                    "name": "F5",
                    "midi": 77,
                    "time": 46.38461924999997,
                    "velocity": 0.3464566929133858,
                    "duration": 0.2500000208333333
                },
                {
                    "name": "F4",
                    "midi": 65,
                    "time": 46.38461924999997,
                    "velocity": 0.30708661417322836,
                    "duration": 0.2500000208333333
                },
                {
                    "name": "G#4",
                    "midi": 68,
                    "time": 46.38461924999997,
                    "velocity": 0.30708661417322836,
                    "duration": 0.2307692500000016
                },
                {
                    "name": "D#4",
                    "midi": 63,
                    "time": 46.61538849999997,
                    "velocity": 0.3228346456692913,
                    "duration": 0.4615384999999961
                },
                {
                    "name": "D#5",
                    "midi": 75,
                    "time": 46.61538849999997,
                    "velocity": 0.3700787401574803,
                    "duration": 0.4615384999999961
                },
                {
                    "name": "G#4",
                    "midi": 68,
                    "time": 46.61538849999997,
                    "velocity": 0.3228346456692913,
                    "duration": 0.4615384999999961
                },
                {
                    "name": "D#4",
                    "midi": 63,
                    "time": 47.07692699999997,
                    "velocity": 0.36220472440944884,
                    "duration": 1.1538462500000009
                },
                {
                    "name": "D#5",
                    "midi": 75,
                    "time": 47.07692699999997,
                    "velocity": 0.4015748031496063,
                    "duration": 1.1538462500000009
                },
                {
                    "name": "G#4",
                    "midi": 68,
                    "time": 47.07692699999997,
                    "velocity": 0.36220472440944884,
                    "duration": 1.1538462500000009
                },
                {
                    "name": "D#5",
                    "midi": 75,
                    "time": 48.23077324999997,
                    "velocity": 0.4094488188976378,
                    "duration": 0.2307692500000016
                },
                {
                    "name": "D#4",
                    "midi": 63,
                    "time": 48.23077324999997,
                    "velocity": 0.3700787401574803,
                    "duration": 0.2307692500000016
                },
                {
                    "name": "C#5",
                    "midi": 73,
                    "time": 48.46154249999997,
                    "velocity": 0.4094488188976378,
                    "duration": 1.1538462500000009
                },
                {
                    "name": "C#4",
                    "midi": 61,
                    "time": 48.46154249999997,
                    "velocity": 0.3700787401574803,
                    "duration": 1.1538462500000009
                },
                {
                    "name": "G4",
                    "midi": 67,
                    "time": 48.46154249999997,
                    "velocity": 0.3700787401574803,
                    "duration": 1.1538462500000009
                },
                {
                    "name": "C5",
                    "midi": 72,
                    "time": 49.61538874999997,
                    "velocity": 0.2125984251968504,
                    "duration": 0.2307692500000016
                },
                {
                    "name": "C4",
                    "midi": 60,
                    "time": 49.61538874999997,
                    "velocity": 0.1889763779527559,
                    "duration": 0.2307692500000016
                },
                {
                    "name": "G#4",
                    "midi": 68,
                    "time": 49.61538874999997,
                    "velocity": 0.1889763779527559,
                    "duration": 0.2307692500000016
                },
                {
                    "name": "C4",
                    "midi": 60,
                    "time": 49.846157999999974,
                    "velocity": 0.1889763779527559,
                    "duration": 2.7692309999999978
                },
                {
                    "name": "G#4",
                    "midi": 68,
                    "time": 49.846157999999974,
                    "velocity": 0.1889763779527559,
                    "duration": 2.7692309999999978
                },
                {
                    "name": "C5",
                    "midi": 72,
                    "time": 49.846157999999974,
                    "velocity": 0.2125984251968504,
                    "duration": 2.7692309999999978
                },
                {
                    "name": "A#3",
                    "midi": 58,
                    "time": 52.61538899999997,
                    "velocity": 0.30708661417322836,
                    "duration": 0.7115385208333294
                },
                {
                    "name": "A#4",
                    "midi": 70,
                    "time": 52.61538899999997,
                    "velocity": 0.3464566929133858,
                    "duration": 0.7115385208333294
                },
                {
                    "name": "G4",
                    "midi": 67,
                    "time": 52.61538899999997,
                    "velocity": 0.30708661417322836,
                    "duration": 0.7115385208333294
                },
                {
                    "name": "B4",
                    "midi": 71,
                    "time": 53.30769674999997,
                    "velocity": 0.3464566929133858,
                    "duration": 0.2500000208333333
                },
                {
                    "name": "B3",
                    "midi": 59,
                    "time": 53.30769674999997,
                    "velocity": 0.30708661417322836,
                    "duration": 0.2500000208333333
                },
                {
                    "name": "G#4",
                    "midi": 68,
                    "time": 53.30769674999997,
                    "velocity": 0.30708661417322836,
                    "duration": 0.2500000208333333
                },
                {
                    "name": "G4",
                    "midi": 67,
                    "time": 53.53846599999997,
                    "velocity": 0.30708661417322836,
                    "duration": 0.4615384999999961
                },
                {
                    "name": "A#3",
                    "midi": 58,
                    "time": 53.53846599999997,
                    "velocity": 0.30708661417322836,
                    "duration": 0.4615384999999961
                },
                {
                    "name": "A#4",
                    "midi": 70,
                    "time": 53.53846599999997,
                    "velocity": 0.3464566929133858,
                    "duration": 0.4615384999999961
                },
                {
                    "name": "G4",
                    "midi": 67,
                    "time": 54.00000449999997,
                    "velocity": 0.30708661417322836,
                    "duration": 0.7115385208333294
                },
                {
                    "name": "A#4",
                    "midi": 70,
                    "time": 54.00000449999997,
                    "velocity": 0.3464566929133858,
                    "duration": 0.7115385208333294
                },
                {
                    "name": "A#3",
                    "midi": 58,
                    "time": 54.00000449999997,
                    "velocity": 0.30708661417322836,
                    "duration": 0.7115385208333294
                },
                {
                    "name": "G#4",
                    "midi": 68,
                    "time": 54.692312249999965,
                    "velocity": 0.30708661417322836,
                    "duration": 0.2500000208333333
                },
                {
                    "name": "B3",
                    "midi": 59,
                    "time": 54.692312249999965,
                    "velocity": 0.30708661417322836,
                    "duration": 0.2500000208333333
                },
                {
                    "name": "B4",
                    "midi": 71,
                    "time": 54.692312249999965,
                    "velocity": 0.3464566929133858,
                    "duration": 0.2500000208333333
                },
                {
                    "name": "A#4",
                    "midi": 70,
                    "time": 54.92308149999997,
                    "velocity": 0.3464566929133858,
                    "duration": 0.4615384999999961
                },
                {
                    "name": "A#3",
                    "midi": 58,
                    "time": 54.92308149999997,
                    "velocity": 0.30708661417322836,
                    "duration": 0.4615384999999961
                },
                {
                    "name": "G4",
                    "midi": 67,
                    "time": 54.92308149999997,
                    "velocity": 0.30708661417322836,
                    "duration": 0.4615384999999961
                },
                {
                    "name": "F4",
                    "midi": 65,
                    "time": 55.38461999999996,
                    "velocity": 0.48031496062992124,
                    "duration": 1.3846155000000024
                },
                {
                    "name": "G#4",
                    "midi": 68,
                    "time": 55.38461999999996,
                    "velocity": 0.48031496062992124,
                    "duration": 1.3846155000000024
                },
                {
                    "name": "B4",
                    "midi": 71,
                    "time": 55.38461999999996,
                    "velocity": 0.5354330708661418,
                    "duration": 1.3846155000000024
                },
                {
                    "name": "F5",
                    "midi": 77,
                    "time": 56.769235499999965,
                    "velocity": 0.5275590551181102,
                    "duration": 1.1538462500000009
                },
                {
                    "name": "G#4",
                    "midi": 68,
                    "time": 56.769235499999965,
                    "velocity": 0.47244094488188976,
                    "duration": 0.9230769999999993
                },
                {
                    "name": "B4",
                    "midi": 71,
                    "time": 56.769235499999965,
                    "velocity": 0.47244094488188976,
                    "duration": 0.9230769999999993
                },
                {
                    "name": "D#5",
                    "midi": 75,
                    "time": 57.923081749999966,
                    "velocity": 0.33070866141732286,
                    "duration": 0.2307692500000016
                },
                {
                    "name": "D#5",
                    "midi": 75,
                    "time": 58.15385099999997,
                    "velocity": 0.33070866141732286,
                    "duration": 1.8461540000000056
                },
                {
                    "name": "G#4",
                    "midi": 68,
                    "time": 58.15385099999997,
                    "velocity": 0.2992125984251969,
                    "duration": 1.3846155000000024
                },
                {
                    "name": "B4",
                    "midi": 71,
                    "time": 58.15385099999997,
                    "velocity": 0.2992125984251969,
                    "duration": 1.3846155000000024
                },
                {
                    "name": "G4",
                    "midi": 67,
                    "time": 59.53846649999997,
                    "velocity": 0.1968503937007874,
                    "duration": 0.4615385000000032
                },
                {
                    "name": "A#4",
                    "midi": 70,
                    "time": 59.53846649999997,
                    "velocity": 0.2204724409448819,
                    "duration": 0.4615385000000032
                },
                {
                    "name": "C4",
                    "midi": 60,
                    "time": 60.92308199999997,
                    "velocity": 0.23622047244094488,
                    "duration": 0.9230769999999993
                },
                {
                    "name": "F#4",
                    "midi": 66,
                    "time": 60.92308199999997,
                    "velocity": 0.23622047244094488,
                    "duration": 0.9230769999999993
                },
                {
                    "name": "D#5",
                    "midi": 75,
                    "time": 60.92308199999997,
                    "velocity": 0.2755905511811024,
                    "duration": 0.7115385208333294
                },
                {
                    "name": "A4",
                    "midi": 69,
                    "time": 60.92308199999997,
                    "velocity": 0.23622047244094488,
                    "duration": 0.9230769999999993
                },
                {
                    "name": "F5",
                    "midi": 77,
                    "time": 61.61538974999997,
                    "velocity": 0.2755905511811024,
                    "duration": 0.2500000208333333
                },
                {
                    "name": "D#5",
                    "midi": 75,
                    "time": 61.84615899999997,
                    "velocity": 0.2755905511811024,
                    "duration": 0.4615384999999961
                },
                {
                    "name": "A4",
                    "midi": 69,
                    "time": 61.84615899999997,
                    "velocity": 0.23622047244094488,
                    "duration": 0.4615384999999961
                },
                {
                    "name": "C4",
                    "midi": 60,
                    "time": 61.84615899999997,
                    "velocity": 0.23622047244094488,
                    "duration": 0.4615384999999961
                },
                {
                    "name": "F#4",
                    "midi": 66,
                    "time": 61.84615899999997,
                    "velocity": 0.23622047244094488,
                    "duration": 0.4615384999999961
                },
                {
                    "name": "G#4",
                    "midi": 68,
                    "time": 62.30769749999997,
                    "velocity": 0.23622047244094488,
                    "duration": 0.9230769999999993
                },
                {
                    "name": "F#4",
                    "midi": 66,
                    "time": 62.30769749999997,
                    "velocity": 0.23622047244094488,
                    "duration": 1.3846155000000024
                },
                {
                    "name": "D#5",
                    "midi": 75,
                    "time": 62.30769749999997,
                    "velocity": 0.2755905511811024,
                    "duration": 0.9230769999999993
                },
                {
                    "name": "C#4",
                    "midi": 61,
                    "time": 62.30769749999997,
                    "velocity": 0.23622047244094488,
                    "duration": 1.8461540000000056
                },
                {
                    "name": "C5",
                    "midi": 72,
                    "time": 63.23077449999997,
                    "velocity": 0.2755905511811024,
                    "duration": 0.4615385000000032
                },
                {
                    "name": "C#5",
                    "midi": 73,
                    "time": 63.69231299999997,
                    "velocity": 0.2755905511811024,
                    "duration": 0.4615385000000032
                },
                {
                    "name": "F4",
                    "midi": 65,
                    "time": 63.69231299999997,
                    "velocity": 0.23622047244094488,
                    "duration": 0.4615385000000032
                },
                {
                    "name": "G#4",
                    "midi": 68,
                    "time": 63.69231299999997,
                    "velocity": 0.23622047244094488,
                    "duration": 0.4615385000000032
                },
                {
                    "name": "G#4",
                    "midi": 68,
                    "time": 65.07692849999998,
                    "velocity": 0.4409448818897638,
                    "duration": 0.9230769999999922
                },
                {
                    "name": "C#5",
                    "midi": 73,
                    "time": 65.07692849999998,
                    "velocity": 0.4881889763779528,
                    "duration": 0.7115385208333294
                },
                {
                    "name": "F4",
                    "midi": 65,
                    "time": 65.07692849999998,
                    "velocity": 0.4409448818897638,
                    "duration": 0.9230769999999922
                },
                {
                    "name": "D#5",
                    "midi": 75,
                    "time": 65.76923624999998,
                    "velocity": 0.4881889763779528,
                    "duration": 0.2500000208333262
                },
                {
                    "name": "F4",
                    "midi": 65,
                    "time": 66.00000549999997,
                    "velocity": 0.4409448818897638,
                    "duration": 0.4615385000000032
                },
                {
                    "name": "G#4",
                    "midi": 68,
                    "time": 66.00000549999997,
                    "velocity": 0.4409448818897638,
                    "duration": 0.4615385000000032
                },
                {
                    "name": "C#5",
                    "midi": 73,
                    "time": 66.00000549999997,
                    "velocity": 0.4881889763779528,
                    "duration": 0.4615385000000032
                },
                {
                    "name": "D#5",
                    "midi": 75,
                    "time": 66.46154399999998,
                    "velocity": 0.4881889763779528,
                    "duration": 0.7115385208333294
                },
                {
                    "name": "F#4",
                    "midi": 66,
                    "time": 66.46154399999998,
                    "velocity": 0.4409448818897638,
                    "duration": 0.9230769999999922
                },
                {
                    "name": "C#5",
                    "midi": 73,
                    "time": 67.15385174999997,
                    "velocity": 0.49606299212598426,
                    "duration": 0.23076924999999449
                },
                {
                    "name": "F#4",
                    "midi": 66,
                    "time": 67.38462099999997,
                    "velocity": 0.44881889763779526,
                    "duration": 0.4615385000000032
                },
                {
                    "name": "C#5",
                    "midi": 73,
                    "time": 67.38462099999997,
                    "velocity": 0.49606299212598426,
                    "duration": 0.11538462500000435
                },
                {
                    "name": "C#5",
                    "midi": 73,
                    "time": 67.61539024999998,
                    "velocity": 0.5590551181102362,
                    "duration": 0.23076924999999449
                },
                {
                    "name": "F#5",
                    "midi": 78,
                    "time": 67.84615949999997,
                    "velocity": 0.6062992125984252,
                    "duration": 0.9230770000000064
                },
                {
                    "name": "F#4",
                    "midi": 66,
                    "time": 67.84615949999997,
                    "velocity": 0.5275590551181102,
                    "duration": 1.3846154999999953
                },
                {
                    "name": "C#5",
                    "midi": 73,
                    "time": 67.84615949999997,
                    "velocity": 0.5275590551181102,
                    "duration": 1.3846154999999953
                },
                {
                    "name": "F5",
                    "midi": 77,
                    "time": 68.76923649999998,
                    "velocity": 0.4881889763779528,
                    "duration": 0.23076924999999449
                },
                {
                    "name": "F5",
                    "midi": 77,
                    "time": 69.00000574999997,
                    "velocity": 0.3937007874015748,
                    "duration": 0.23076924999999449
                },
                {
                    "name": "C5",
                    "midi": 72,
                    "time": 69.23077499999997,
                    "velocity": 0.3543307086614173,
                    "duration": 1.1538462500000009
                },
                {
                    "name": "F#4",
                    "midi": 66,
                    "time": 69.23077499999997,
                    "velocity": 0.3543307086614173,
                    "duration": 1.1538462500000009
                },
                {
                    "name": "D#5",
                    "midi": 75,
                    "time": 69.23077499999997,
                    "velocity": 0.4015748031496063,
                    "duration": 1.1538462500000009
                },
                {
                    "name": "F4",
                    "midi": 65,
                    "time": 70.38462124999997,
                    "velocity": 0.30708661417322836,
                    "duration": 0.23076924999999449
                },
                {
                    "name": "C#5",
                    "midi": 73,
                    "time": 70.38462124999997,
                    "velocity": 0.33070866141732286,
                    "duration": 0.23076924999999449
                },
                {
                    "name": "F4",
                    "midi": 65,
                    "time": 70.61539049999996,
                    "velocity": 0.30708661417322836,
                    "duration": 4.1538465
                },
                {
                    "name": "C#5",
                    "midi": 73,
                    "time": 70.61539049999996,
                    "velocity": 0.33070866141732286,
                    "duration": 4.1538465
                },
                {
                    "name": "C#5",
                    "midi": 73,
                    "time": 74.76923699999996,
                    "velocity": 0.28346456692913385,
                    "duration": 1.3846154999999953
                },
                {
                    "name": "C#5",
                    "midi": 73,
                    "time": 76.15385249999996,
                    "velocity": 0.2755905511811024,
                    "duration": 1.3846154999999953
                },
                {
                    "name": "C#5",
                    "midi": 73,
                    "time": 77.53846799999995,
                    "velocity": 0.2677165354330709,
                    "duration": 1.3846154999999953
                },
                {
                    "name": "D5",
                    "midi": 74,
                    "time": 78.92308349999995,
                    "velocity": 0.36220472440944884,
                    "duration": 4.1538465
                },
                {
                    "name": "E5",
                    "midi": 76,
                    "time": 83.07692999999995,
                    "velocity": 0.3228346456692913,
                    "duration": 0.9230770000000064
                },
                {
                    "name": "D5",
                    "midi": 74,
                    "time": 84.00000699999995,
                    "velocity": 0.31496062992125984,
                    "duration": 0.4615385000000032
                },
                {
                    "name": "D5",
                    "midi": 74,
                    "time": 84.46154549999996,
                    "velocity": 0.3464566929133858,
                    "duration": 0.9230770000000064
                },
                {
                    "name": "C#5",
                    "midi": 73,
                    "time": 85.38462249999996,
                    "velocity": 0.30708661417322836,
                    "duration": 0.4615385000000032
                },
                {
                    "name": "C#5",
                    "midi": 73,
                    "time": 85.84616099999997,
                    "velocity": 0.3228346456692913,
                    "duration": 0.9230770000000064
                },
                {
                    "name": "B4",
                    "midi": 71,
                    "time": 86.76923799999997,
                    "velocity": 0.30708661417322836,
                    "duration": 0.4615385000000032
                },
                {
                    "name": "C#5",
                    "midi": 73,
                    "time": 87.23077649999998,
                    "velocity": 0.33070866141732286,
                    "duration": 2.769231000000005
                },
                {
                    "name": "C#5",
                    "midi": 73,
                    "time": 90.00000749999998,
                    "velocity": 0.28346456692913385,
                    "duration": 0.9230770000000064
                },
                {
                    "name": "A4",
                    "midi": 69,
                    "time": 90.92308449999999,
                    "velocity": 0.3464566929133858,
                    "duration": 0.4615385000000032
                },
                {
                    "name": "G#4",
                    "midi": 68,
                    "time": 91.38462299999999,
                    "velocity": 0.4094488188976378,
                    "duration": 2.769231000000005
                },
                {
                    "name": "F#5",
                    "midi": 78,
                    "time": 94.153854,
                    "velocity": 0.48031496062992124,
                    "duration": 0.9230770000000064
                },
                {
                    "name": "A4",
                    "midi": 69,
                    "time": 95.076931,
                    "velocity": 0.4094488188976378,
                    "duration": 0.4615385000000032
                },
                {
                    "name": "G#4",
                    "midi": 68,
                    "time": 95.5384695,
                    "velocity": 0.33070866141732286,
                    "duration": 1.8461539999999985
                },
                {
                    "name": "B4",
                    "midi": 71,
                    "time": 97.3846235,
                    "velocity": 0.2755905511811024,
                    "duration": 0.4615385000000032
                },
                {
                    "name": "A4",
                    "midi": 69,
                    "time": 97.846162,
                    "velocity": 0.2677165354330709,
                    "duration": 0.4615385000000032
                },
                {
                    "name": "G#4",
                    "midi": 68,
                    "time": 98.30770050000001,
                    "velocity": 0.2204724409448819,
                    "duration": 0.4615385000000032
                },
                {
                    "name": "A4",
                    "midi": 69,
                    "time": 98.76923900000001,
                    "velocity": 0.2047244094488189,
                    "duration": 0.4615385000000032
                },
                {
                    "name": "B4",
                    "midi": 71,
                    "time": 99.23077750000002,
                    "velocity": 0.1968503937007874,
                    "duration": 0.4615385000000032
                },
                {
                    "name": "C#5",
                    "midi": 73,
                    "time": 99.69231600000002,
                    "velocity": 0.28346456692913385,
                    "duration": 1.3846154999999953
                },
                {
                    "name": "C#5",
                    "midi": 73,
                    "time": 101.07693150000001,
                    "velocity": 0.3700787401574803,
                    "duration": 1.3846154999999953
                },
                {
                    "name": "C#5",
                    "midi": 73,
                    "time": 102.46154700000001,
                    "velocity": 0.44881889763779526,
                    "duration": 1.3846154999999953
                },
                {
                    "name": "D5",
                    "midi": 74,
                    "time": 103.8461625,
                    "velocity": 0.5196850393700787,
                    "duration": 4.1538465
                },
                {
                    "name": "D5",
                    "midi": 74,
                    "time": 107.76923975000001,
                    "velocity": 0.41732283464566927,
                    "duration": 0.23076924999999449
                },
                {
                    "name": "F#5",
                    "midi": 78,
                    "time": 108.000009,
                    "velocity": 0.3937007874015748,
                    "duration": 0.9230770000000064
                },
                {
                    "name": "D5",
                    "midi": 74,
                    "time": 108.92308600000001,
                    "velocity": 0.3779527559055118,
                    "duration": 0.4615385000000032
                },
                {
                    "name": "D5",
                    "midi": 74,
                    "time": 109.38462450000002,
                    "velocity": 0.3779527559055118,
                    "duration": 0.9230770000000064
                },
                {
                    "name": "C#5",
                    "midi": 73,
                    "time": 110.30770150000002,
                    "velocity": 0.3464566929133858,
                    "duration": 0.4615385000000032
                },
                {
                    "name": "C#5",
                    "midi": 73,
                    "time": 110.76924000000002,
                    "velocity": 0.3464566929133858,
                    "duration": 0.9230770000000064
                },
                {
                    "name": "B4",
                    "midi": 71,
                    "time": 111.69231700000003,
                    "velocity": 0.2992125984251969,
                    "duration": 0.4615385000000032
                },
                {
                    "name": "C#5",
                    "midi": 73,
                    "time": 112.15385550000003,
                    "velocity": 0.3464566929133858,
                    "duration": 2.769231000000005
                },
                {
                    "name": "C#5",
                    "midi": 73,
                    "time": 114.92308650000004,
                    "velocity": 0.4094488188976378,
                    "duration": 0.9230770000000064
                },
                {
                    "name": "A4",
                    "midi": 69,
                    "time": 115.84616350000005,
                    "velocity": 0.4094488188976378,
                    "duration": 0.4615385000000032
                },
                {
                    "name": "G#4",
                    "midi": 68,
                    "time": 116.30770200000005,
                    "velocity": 0.4094488188976378,
                    "duration": 2.769231000000005
                },
                {
                    "name": "B4",
                    "midi": 71,
                    "time": 119.07693300000005,
                    "velocity": 0.3700787401574803,
                    "duration": 0.4615385000000032
                },
                {
                    "name": "A4",
                    "midi": 69,
                    "time": 119.53847150000006,
                    "velocity": 0.3464566929133858,
                    "duration": 0.4615385000000032
                },
                {
                    "name": "G#4",
                    "midi": 68,
                    "time": 120.00001000000006,
                    "velocity": 0.28346456692913385,
                    "duration": 0.4615385000000032
                },
                {
                    "name": "C#5",
                    "midi": 73,
                    "time": 120.46154850000006,
                    "velocity": 0.3543307086614173,
                    "duration": 2.538461749999996
                },
                {
                    "name": "C#5",
                    "midi": 73,
                    "time": 123.00001025000006,
                    "velocity": 0.4094488188976378,
                    "duration": 0.23076924999999449
                },
                {
                    "name": "F#5",
                    "midi": 78,
                    "time": 123.23077950000005,
                    "velocity": 0.5511811023622047,
                    "duration": 0.9230770000000064
                },
                {
                    "name": "A4",
                    "midi": 69,
                    "time": 124.15385650000006,
                    "velocity": 0.47244094488188976,
                    "duration": 0.4615385000000032
                },
                {
                    "name": "G#4",
                    "midi": 68,
                    "time": 124.61539500000006,
                    "velocity": 0.47244094488188976,
                    "duration": 1.8461539999999985
                },
                {
                    "name": "A4",
                    "midi": 69,
                    "time": 126.46154900000006,
                    "velocity": 0.4094488188976378,
                    "duration": 0.4615385000000032
                },
                {
                    "name": "G#4",
                    "midi": 68,
                    "time": 126.92308750000007,
                    "velocity": 0.4094488188976378,
                    "duration": 0.4615385000000032
                },
                {
                    "name": "B4",
                    "midi": 71,
                    "time": 127.38462600000007,
                    "velocity": 0.4094488188976378,
                    "duration": 0.4615385000000032
                },
                {
                    "name": "A4",
                    "midi": 69,
                    "time": 127.84616450000007,
                    "velocity": 0.3858267716535433,
                    "duration": 0.46153849999998897
                },
                {
                    "name": "G#4",
                    "midi": 68,
                    "time": 128.30770300000006,
                    "velocity": 0.3779527559055118,
                    "duration": 0.46153849999998897
                },
                {
                    "name": "F#4",
                    "midi": 66,
                    "time": 128.76924150000005,
                    "velocity": 0.4015748031496063,
                    "duration": 2.7692309999999907
                },
                {
                    "name": "C#5",
                    "midi": 73,
                    "time": 132.92308800000004,
                    "velocity": 0.4094488188976378,
                    "duration": 1.3846154999999953
                },
                {
                    "name": "C#5",
                    "midi": 73,
                    "time": 134.30770350000003,
                    "velocity": 0.4094488188976378,
                    "duration": 1.3846154999999953
                },
                {
                    "name": "C#5",
                    "midi": 73,
                    "time": 135.69231900000003,
                    "velocity": 0.4094488188976378,
                    "duration": 1.3846154999999953
                },
                {
                    "name": "C#5",
                    "midi": 73,
                    "time": 137.07693450000002,
                    "velocity": 0.36220472440944884,
                    "duration": 1.3846154999999953
                },
                {
                    "name": "C#5",
                    "midi": 73,
                    "time": 138.46155000000002,
                    "velocity": 0.3464566929133858,
                    "duration": 1.3846154999999953
                },
                {
                    "name": "C#5",
                    "midi": 73,
                    "time": 139.8461655,
                    "velocity": 0.3464566929133858,
                    "duration": 1.1538462499999866
                },
                {
                    "name": "C#5",
                    "midi": 73,
                    "time": 141.00001175,
                    "velocity": 0.2755905511811024,
                    "duration": 0.2307692500000087
                },
                {
                    "name": "E5",
                    "midi": 76,
                    "time": 141.230781,
                    "velocity": 0.47244094488188976,
                    "duration": 0.9230770000000064
                },
                {
                    "name": "D#5",
                    "midi": 75,
                    "time": 142.153858,
                    "velocity": 0.4094488188976378,
                    "duration": 0.46153849999998897
                },
                {
                    "name": "D#5",
                    "midi": 75,
                    "time": 142.6153965,
                    "velocity": 0.4015748031496063,
                    "duration": 0.46153849999998897
                },
                {
                    "name": "D#5",
                    "midi": 75,
                    "time": 143.076935,
                    "velocity": 0.3937007874015748,
                    "duration": 0.46153849999998897
                },
                {
                    "name": "D#5",
                    "midi": 75,
                    "time": 143.53847349999998,
                    "velocity": 0.3858267716535433,
                    "duration": 0.46153849999998897
                },
                {
                    "name": "D#5",
                    "midi": 75,
                    "time": 144.00001199999997,
                    "velocity": 0.3779527559055118,
                    "duration": 0.46153849999998897
                },
                {
                    "name": "D#5",
                    "midi": 75,
                    "time": 144.46155049999996,
                    "velocity": 0.3779527559055118,
                    "duration": 0.46153849999998897
                },
                {
                    "name": "D#5",
                    "midi": 75,
                    "time": 144.92308899999995,
                    "velocity": 0.3700787401574803,
                    "duration": 0.46153849999998897
                },
                {
                    "name": "D#5",
                    "midi": 75,
                    "time": 145.38462749999994,
                    "velocity": 0.36220472440944884,
                    "duration": 2.7692309999999907
                },
                {
                    "name": "C5",
                    "midi": 72,
                    "time": 148.15385849999993,
                    "velocity": 0.33858267716535434,
                    "duration": 0.7115385208333294
                },
                {
                    "name": "C4",
                    "midi": 60,
                    "time": 148.15385849999993,
                    "velocity": 0.29133858267716534,
                    "duration": 0.7115385208333294
                },
                {
                    "name": "G#4",
                    "midi": 68,
                    "time": 148.15385849999993,
                    "velocity": 0.29133858267716534,
                    "duration": 0.7115385208333294
                },
                {
                    "name": "C#5",
                    "midi": 73,
                    "time": 148.84616624999992,
                    "velocity": 0.33858267716535434,
                    "duration": 0.2500000208333404
                },
                {
                    "name": "C#4",
                    "midi": 61,
                    "time": 148.84616624999992,
                    "velocity": 0.29133858267716534,
                    "duration": 0.2500000208333404
                },
                {
                    "name": "G4",
                    "midi": 67,
                    "time": 148.84616624999992,
                    "velocity": 0.29133858267716534,
                    "duration": 0.2500000208333404
                },
                {
                    "name": "C5",
                    "midi": 72,
                    "time": 149.07693549999993,
                    "velocity": 0.33858267716535434,
                    "duration": 0.46153849999998897
                },
                {
                    "name": "C4",
                    "midi": 60,
                    "time": 149.07693549999993,
                    "velocity": 0.29133858267716534,
                    "duration": 0.46153849999998897
                },
                {
                    "name": "G#4",
                    "midi": 68,
                    "time": 149.07693549999993,
                    "velocity": 0.29133858267716534,
                    "duration": 0.46153849999998897
                },
                {
                    "name": "C#4",
                    "midi": 61,
                    "time": 149.53847399999992,
                    "velocity": 0.23622047244094488,
                    "duration": 2.7692309999999907
                },
                {
                    "name": "G4",
                    "midi": 67,
                    "time": 149.53847399999992,
                    "velocity": 0.23622047244094488,
                    "duration": 2.7692309999999907
                },
                {
                    "name": "C#5",
                    "midi": 73,
                    "time": 149.53847399999992,
                    "velocity": 0.2677165354330709,
                    "duration": 2.7692309999999907
                },
                {
                    "name": "C4",
                    "midi": 60,
                    "time": 152.3077049999999,
                    "velocity": 0.29133858267716534,
                    "duration": 0.7115385208333294
                },
                {
                    "name": "C5",
                    "midi": 72,
                    "time": 152.3077049999999,
                    "velocity": 0.33858267716535434,
                    "duration": 0.7115385208333294
                },
                {
                    "name": "G#4",
                    "midi": 68,
                    "time": 152.3077049999999,
                    "velocity": 0.29133858267716534,
                    "duration": 0.7115385208333294
                },
                {
                    "name": "G4",
                    "midi": 67,
                    "time": 153.0000127499999,
                    "velocity": 0.29133858267716534,
                    "duration": 0.2500000208333404
                },
                {
                    "name": "C#4",
                    "midi": 61,
                    "time": 153.0000127499999,
                    "velocity": 0.29133858267716534,
                    "duration": 0.2500000208333404
                },
                {
                    "name": "C#5",
                    "midi": 73,
                    "time": 153.0000127499999,
                    "velocity": 0.33858267716535434,
                    "duration": 0.2500000208333404
                },
                {
                    "name": "G#4",
                    "midi": 68,
                    "time": 153.23078199999992,
                    "velocity": 0.29133858267716534,
                    "duration": 0.46153849999998897
                },
                {
                    "name": "C4",
                    "midi": 60,
                    "time": 153.23078199999992,
                    "velocity": 0.29133858267716534,
                    "duration": 0.46153849999998897
                },
                {
                    "name": "C5",
                    "midi": 72,
                    "time": 153.23078199999992,
                    "velocity": 0.33858267716535434,
                    "duration": 0.46153849999998897
                },
                {
                    "name": "G4",
                    "midi": 67,
                    "time": 153.6923204999999,
                    "velocity": 0.2440944881889764,
                    "duration": 2.7692309999999907
                },
                {
                    "name": "A#4",
                    "midi": 70,
                    "time": 153.6923204999999,
                    "velocity": 0.2755905511811024,
                    "duration": 2.7692309999999907
                },
                {
                    "name": "A#3",
                    "midi": 58,
                    "time": 153.6923204999999,
                    "velocity": 0.2440944881889764,
                    "duration": 2.7692309999999907
                },
                {
                    "name": "C5",
                    "midi": 72,
                    "time": 156.4615514999999,
                    "velocity": 0.36220472440944884,
                    "duration": 0.7115385208333294
                },
                {
                    "name": "C4",
                    "midi": 60,
                    "time": 156.4615514999999,
                    "velocity": 0.33070866141732286,
                    "duration": 0.7115385208333294
                },
                {
                    "name": "G#4",
                    "midi": 68,
                    "time": 156.4615514999999,
                    "velocity": 0.33070866141732286,
                    "duration": 0.7115385208333294
                },
                {
                    "name": "C#5",
                    "midi": 73,
                    "time": 157.1538592499999,
                    "velocity": 0.36220472440944884,
                    "duration": 0.2500000208333404
                },
                {
                    "name": "C#4",
                    "midi": 61,
                    "time": 157.1538592499999,
                    "velocity": 0.33070866141732286,
                    "duration": 0.2500000208333404
                },
                {
                    "name": "G4",
                    "midi": 67,
                    "time": 157.1538592499999,
                    "velocity": 0.33070866141732286,
                    "duration": 0.2500000208333404
                },
                {
                    "name": "C4",
                    "midi": 60,
                    "time": 157.3846284999999,
                    "velocity": 0.33070866141732286,
                    "duration": 0.46153849999998897
                },
                {
                    "name": "G#4",
                    "midi": 68,
                    "time": 157.3846284999999,
                    "velocity": 0.33070866141732286,
                    "duration": 0.46153849999998897
                },
                {
                    "name": "C5",
                    "midi": 72,
                    "time": 157.3846284999999,
                    "velocity": 0.36220472440944884,
                    "duration": 0.46153849999998897
                },
                {
                    "name": "C4",
                    "midi": 60,
                    "time": 157.8461669999999,
                    "velocity": 0.28346456692913385,
                    "duration": 0.7115385208333294
                },
                {
                    "name": "C5",
                    "midi": 72,
                    "time": 157.8461669999999,
                    "velocity": 0.33070866141732286,
                    "duration": 0.7115385208333294
                },
                {
                    "name": "G#4",
                    "midi": 68,
                    "time": 157.8461669999999,
                    "velocity": 0.28346456692913385,
                    "duration": 0.6923077499999977
                },
                {
                    "name": "G#4",
                    "midi": 68,
                    "time": 158.5384747499999,
                    "velocity": 0.3858267716535433,
                    "duration": 0.2500000208333404
                },
                {
                    "name": "F4",
                    "midi": 65,
                    "time": 158.5384747499999,
                    "velocity": 0.3858267716535433,
                    "duration": 0.2500000208333404
                },
                {
                    "name": "F5",
                    "midi": 77,
                    "time": 158.5384747499999,
                    "velocity": 0.4409448818897638,
                    "duration": 0.2500000208333404
                },
                {
                    "name": "D#5",
                    "midi": 75,
                    "time": 158.7692439999999,
                    "velocity": 0.4645669291338583,
                    "duration": 0.46153849999998897
                },
                {
                    "name": "D#4",
                    "midi": 63,
                    "time": 158.7692439999999,
                    "velocity": 0.4015748031496063,
                    "duration": 0.46153849999998897
                },
                {
                    "name": "G#4",
                    "midi": 68,
                    "time": 158.7692439999999,
                    "velocity": 0.4015748031496063,
                    "duration": 0.46153849999998897
                },
                {
                    "name": "G#4",
                    "midi": 68,
                    "time": 159.2307824999999,
                    "velocity": 0.4566929133858268,
                    "duration": 1.1538462499999866
                },
                {
                    "name": "D#5",
                    "midi": 75,
                    "time": 159.2307824999999,
                    "velocity": 0.5039370078740157,
                    "duration": 1.1538462499999866
                },
                {
                    "name": "D#4",
                    "midi": 63,
                    "time": 159.2307824999999,
                    "velocity": 0.4566929133858268,
                    "duration": 1.1538462499999866
                },
                {
                    "name": "D#4",
                    "midi": 63,
                    "time": 160.38462874999988,
                    "velocity": 0.29133858267716534,
                    "duration": 0.2307692500000087
                },
                {
                    "name": "D#5",
                    "midi": 75,
                    "time": 160.38462874999988,
                    "velocity": 0.29133858267716534,
                    "duration": 0.2307692500000087
                },
                {
                    "name": "G4",
                    "midi": 67,
                    "time": 160.61539799999989,
                    "velocity": 0.29133858267716534,
                    "duration": 1.1538462499999866
                },
                {
                    "name": "C#5",
                    "midi": 73,
                    "time": 160.61539799999989,
                    "velocity": 0.33858267716535434,
                    "duration": 1.1538462499999866
                },
                {
                    "name": "C#4",
                    "midi": 61,
                    "time": 160.61539799999989,
                    "velocity": 0.29133858267716534,
                    "duration": 1.1538462499999866
                },
                {
                    "name": "G#4",
                    "midi": 68,
                    "time": 161.76924424999987,
                    "velocity": 0.2125984251968504,
                    "duration": 0.2307692500000087
                },
                {
                    "name": "C4",
                    "midi": 60,
                    "time": 161.76924424999987,
                    "velocity": 0.2125984251968504,
                    "duration": 0.2307692500000087
                },
                {
                    "name": "C5",
                    "midi": 72,
                    "time": 161.76924424999987,
                    "velocity": 0.2440944881889764,
                    "duration": 0.2307692500000087
                },
                {
                    "name": "G#4",
                    "midi": 68,
                    "time": 162.00001349999988,
                    "velocity": 0.2125984251968504,
                    "duration": 2.7692309999999907
                },
                {
                    "name": "C4",
                    "midi": 60,
                    "time": 162.00001349999988,
                    "velocity": 0.2125984251968504,
                    "duration": 2.7692309999999907
                },
                {
                    "name": "C5",
                    "midi": 72,
                    "time": 162.00001349999988,
                    "velocity": 0.2440944881889764,
                    "duration": 2.7692309999999907
                },
                {
                    "name": "G4",
                    "midi": 67,
                    "time": 164.76924449999987,
                    "velocity": 0.30708661417322836,
                    "duration": 0.7115385208333294
                },
                {
                    "name": "A#4",
                    "midi": 70,
                    "time": 164.76924449999987,
                    "velocity": 0.3464566929133858,
                    "duration": 0.7115385208333294
                },
                {
                    "name": "A#3",
                    "midi": 58,
                    "time": 164.76924449999987,
                    "velocity": 0.30708661417322836,
                    "duration": 0.7115385208333294
                },
                {
                    "name": "G#4",
                    "midi": 68,
                    "time": 165.46155224999987,
                    "velocity": 0.30708661417322836,
                    "duration": 0.2500000208333404
                },
                {
                    "name": "B3",
                    "midi": 59,
                    "time": 165.46155224999987,
                    "velocity": 0.30708661417322836,
                    "duration": 0.2500000208333404
                },
                {
                    "name": "B4",
                    "midi": 71,
                    "time": 165.46155224999987,
                    "velocity": 0.3464566929133858,
                    "duration": 0.2500000208333404
                },
                {
                    "name": "A#4",
                    "midi": 70,
                    "time": 165.69232149999988,
                    "velocity": 0.3464566929133858,
                    "duration": 0.46153849999998897
                },
                {
                    "name": "A#3",
                    "midi": 58,
                    "time": 165.69232149999988,
                    "velocity": 0.30708661417322836,
                    "duration": 0.46153849999998897
                },
                {
                    "name": "G4",
                    "midi": 67,
                    "time": 165.69232149999988,
                    "velocity": 0.30708661417322836,
                    "duration": 0.46153849999998897
                },
                {
                    "name": "A#3",
                    "midi": 58,
                    "time": 166.15385999999987,
                    "velocity": 0.30708661417322836,
                    "duration": 0.7115385208333294
                },
                {
                    "name": "G4",
                    "midi": 67,
                    "time": 166.15385999999987,
                    "velocity": 0.30708661417322836,
                    "duration": 0.7115385208333294
                },
                {
                    "name": "A#4",
                    "midi": 70,
                    "time": 166.15385999999987,
                    "velocity": 0.3464566929133858,
                    "duration": 0.7115385208333294
                },
                {
                    "name": "B3",
                    "midi": 59,
                    "time": 166.84616774999986,
                    "velocity": 0.30708661417322836,
                    "duration": 0.2500000208333404
                },
                {
                    "name": "G#4",
                    "midi": 68,
                    "time": 166.84616774999986,
                    "velocity": 0.30708661417322836,
                    "duration": 0.2500000208333404
                },
                {
                    "name": "B4",
                    "midi": 71,
                    "time": 166.84616774999986,
                    "velocity": 0.3464566929133858,
                    "duration": 0.2500000208333404
                },
                {
                    "name": "G4",
                    "midi": 67,
                    "time": 167.07693699999987,
                    "velocity": 0.30708661417322836,
                    "duration": 0.46153849999998897
                },
                {
                    "name": "A#3",
                    "midi": 58,
                    "time": 167.07693699999987,
                    "velocity": 0.30708661417322836,
                    "duration": 0.46153849999998897
                },
                {
                    "name": "A#4",
                    "midi": 70,
                    "time": 167.07693699999987,
                    "velocity": 0.3464566929133858,
                    "duration": 0.46153849999998897
                },
                {
                    "name": "G#4",
                    "midi": 68,
                    "time": 167.53847549999986,
                    "velocity": 0.4881889763779528,
                    "duration": 4.153846499999986
                },
                {
                    "name": "B4",
                    "midi": 71,
                    "time": 167.53847549999986,
                    "velocity": 0.5433070866141733,
                    "duration": 4.153846499999986
                },
                {
                    "name": "F4",
                    "midi": 65,
                    "time": 167.53847549999986,
                    "velocity": 0.4881889763779528,
                    "duration": 2.7692309999999907
                },
                {
                    "name": "D#4",
                    "midi": 63,
                    "time": 170.30770649999985,
                    "velocity": 0.23622047244094488,
                    "duration": 1.8461539999999843
                },
                {
                    "name": "A#4",
                    "midi": 70,
                    "time": 171.69232199999985,
                    "velocity": 0.1889763779527559,
                    "duration": 0.46153849999998897
                },
                {
                    "name": "G4",
                    "midi": 67,
                    "time": 171.69232199999985,
                    "velocity": 0.1889763779527559,
                    "duration": 0.46153849999998897
                },
                {
                    "name": "F#4",
                    "midi": 66,
                    "time": 173.07693749999984,
                    "velocity": 0.3700787401574803,
                    "duration": 0.9230770000000064
                },
                {
                    "name": "B4",
                    "midi": 71,
                    "time": 173.07693749999984,
                    "velocity": 0.4094488188976378,
                    "duration": 0.7115385208333294
                },
                {
                    "name": "D#4",
                    "midi": 63,
                    "time": 173.07693749999984,
                    "velocity": 0.3700787401574803,
                    "duration": 0.9230770000000064
                },
                {
                    "name": "C#5",
                    "midi": 73,
                    "time": 173.76924524999984,
                    "velocity": 0.41732283464566927,
                    "duration": 0.2307692500000087
                },
                {
                    "name": "D#4",
                    "midi": 63,
                    "time": 174.00001449999985,
                    "velocity": 0.3779527559055118,
                    "duration": 0.46153849999998897
                },
                {
                    "name": "F#4",
                    "midi": 66,
                    "time": 174.00001449999985,
                    "velocity": 0.3779527559055118,
                    "duration": 0.46153849999998897
                },
                {
                    "name": "B4",
                    "midi": 71,
                    "time": 174.00001449999985,
                    "velocity": 0.41732283464566927,
                    "duration": 0.46153849999998897
                },
                {
                    "name": "F4",
                    "midi": 65,
                    "time": 174.46155299999984,
                    "velocity": 0.3779527559055118,
                    "duration": 1.3846154999999953
                },
                {
                    "name": "C#5",
                    "midi": 73,
                    "time": 174.46155299999984,
                    "velocity": 0.4566929133858268,
                    "duration": 0.9230770000000064
                },
                {
                    "name": "B4",
                    "midi": 71,
                    "time": 174.46155299999984,
                    "velocity": 0.3779527559055118,
                    "duration": 1.3846154999999953
                },
                {
                    "name": "D5",
                    "midi": 74,
                    "time": 175.38462999999985,
                    "velocity": 0.48031496062992124,
                    "duration": 0.46153849999998897
                },
                {
                    "name": "B4",
                    "midi": 71,
                    "time": 175.84616849999983,
                    "velocity": 0.3858267716535433,
                    "duration": 0.46153849999998897
                },
                {
                    "name": "D#5",
                    "midi": 75,
                    "time": 175.84616849999983,
                    "velocity": 0.4330708661417323,
                    "duration": 0.46153849999998897
                },
                {
                    "name": "F#4",
                    "midi": 66,
                    "time": 175.84616849999983,
                    "velocity": 0.3858267716535433,
                    "duration": 0.46153849999998897
                },
                {
                    "name": "E5",
                    "midi": 76,
                    "time": 176.30770699999982,
                    "velocity": 0.5196850393700787,
                    "duration": 0.46153849999998897
                },
                {
                    "name": "E4",
                    "midi": 64,
                    "time": 176.30770699999982,
                    "velocity": 0.4645669291338583,
                    "duration": 0.46153849999998897
                },
                {
                    "name": "B4",
                    "midi": 71,
                    "time": 176.30770699999982,
                    "velocity": 0.4645669291338583,
                    "duration": 0.46153849999998897
                },
                {
                    "name": "F#5",
                    "midi": 78,
                    "time": 176.7692454999998,
                    "velocity": 0.5511811023622047,
                    "duration": 0.46153849999998897
                },
                {
                    "name": "F#4",
                    "midi": 66,
                    "time": 176.7692454999998,
                    "velocity": 0.49606299212598426,
                    "duration": 0.46153849999998897
                },
                {
                    "name": "B4",
                    "midi": 71,
                    "time": 176.7692454999998,
                    "velocity": 0.49606299212598426,
                    "duration": 0.46153849999998897
                },
                {
                    "name": "G#5",
                    "midi": 80,
                    "time": 177.2307839999998,
                    "velocity": 0.6062992125984252,
                    "duration": 0.46153849999998897
                },
                {
                    "name": "G#4",
                    "midi": 68,
                    "time": 177.2307839999998,
                    "velocity": 0.48031496062992124,
                    "duration": 0.9230769999999779
                },
                {
                    "name": "B4",
                    "midi": 71,
                    "time": 177.2307839999998,
                    "velocity": 0.5354330708661418,
                    "duration": 0.9230769999999779
                },
                {
                    "name": "E5",
                    "midi": 76,
                    "time": 177.6923224999998,
                    "velocity": 0.5196850393700787,
                    "duration": 0.46153849999998897
                },
                {
                    "name": "G#4",
                    "midi": 68,
                    "time": 178.15386099999978,
                    "velocity": 0.4015748031496063,
                    "duration": 0.46153849999998897
                },
                {
                    "name": "D#5",
                    "midi": 75,
                    "time": 178.15386099999978,
                    "velocity": 0.4645669291338583,
                    "duration": 0.46153849999998897
                },
                {
                    "name": "F4",
                    "midi": 65,
                    "time": 178.15386099999978,
                    "velocity": 0.4015748031496063,
                    "duration": 0.46153849999998897
                },
                {
                    "name": "F#4",
                    "midi": 66,
                    "time": 178.61539949999977,
                    "velocity": 0.3700787401574803,
                    "duration": 1.8461539999999843
                },
                {
                    "name": "B4",
                    "midi": 71,
                    "time": 178.61539949999977,
                    "velocity": 0.3700787401574803,
                    "duration": 1.3846154999999953
                },
                {
                    "name": "D#5",
                    "midi": 75,
                    "time": 178.61539949999977,
                    "velocity": 0.4094488188976378,
                    "duration": 1.3846154999999953
                },
                {
                    "name": "A#4",
                    "midi": 70,
                    "time": 180.00001499999976,
                    "velocity": 0.23622047244094488,
                    "duration": 0.46153849999998897
                },
                {
                    "name": "C#5",
                    "midi": 73,
                    "time": 180.00001499999976,
                    "velocity": 0.2755905511811024,
                    "duration": 0.46153849999998897
                },
                {
                    "name": "B4",
                    "midi": 71,
                    "time": 181.38463049999976,
                    "velocity": 0.2283464566929134,
                    "duration": 0.9230769999999779
                },
                {
                    "name": "G#5",
                    "midi": 80,
                    "time": 181.38463049999976,
                    "velocity": 0.2677165354330709,
                    "duration": 0.46153849999998897
                },
                {
                    "name": "G#4",
                    "midi": 68,
                    "time": 181.38463049999976,
                    "velocity": 0.2283464566929134,
                    "duration": 0.9230769999999779
                },
                {
                    "name": "E5",
                    "midi": 76,
                    "time": 181.84616899999975,
                    "velocity": 0.2755905511811024,
                    "duration": 0.46153849999998897
                },
                {
                    "name": "G#4",
                    "midi": 68,
                    "time": 182.30770749999974,
                    "velocity": 0.23622047244094488,
                    "duration": 0.46153849999998897
                },
                {
                    "name": "F4",
                    "midi": 65,
                    "time": 182.30770749999974,
                    "velocity": 0.23622047244094488,
                    "duration": 0.46153849999998897
                },
                {
                    "name": "D#5",
                    "midi": 75,
                    "time": 182.30770749999974,
                    "velocity": 0.2755905511811024,
                    "duration": 0.46153849999998897
                },
                {
                    "name": "B4",
                    "midi": 71,
                    "time": 182.76924599999973,
                    "velocity": 0.2440944881889764,
                    "duration": 1.3846154999999953
                },
                {
                    "name": "D#5",
                    "midi": 75,
                    "time": 182.76924599999973,
                    "velocity": 0.28346456692913385,
                    "duration": 1.3846154999999953
                },
                {
                    "name": "F#4",
                    "midi": 66,
                    "time": 182.76924599999973,
                    "velocity": 0.2440944881889764,
                    "duration": 1.8461539999999843
                },
                {
                    "name": "A#4",
                    "midi": 70,
                    "time": 184.15386149999972,
                    "velocity": 0.2047244094488189,
                    "duration": 0.46153849999998897
                },
                {
                    "name": "C#5",
                    "midi": 73,
                    "time": 184.15386149999972,
                    "velocity": 0.2283464566929134,
                    "duration": 0.46153849999998897
                },
                {
                    "name": "C#5",
                    "midi": 73,
                    "time": 185.53847699999972,
                    "velocity": 0.41732283464566927,
                    "duration": 0.7115385208333294
                },
                {
                    "name": "D#4",
                    "midi": 63,
                    "time": 185.53847699999972,
                    "velocity": 0.3779527559055118,
                    "duration": 1.3846154999999953
                },
                {
                    "name": "D#5",
                    "midi": 75,
                    "time": 186.2307847499997,
                    "velocity": 0.4094488188976378,
                    "duration": 0.2307692500000087
                },
                {
                    "name": "A#4",
                    "midi": 70,
                    "time": 186.46155399999972,
                    "velocity": 0.4094488188976378,
                    "duration": 0.46153849999998897
                },
                {
                    "name": "C#5",
                    "midi": 73,
                    "time": 186.9230924999997,
                    "velocity": 0.4094488188976378,
                    "duration": 1.3846154999999953
                },
                {
                    "name": "D#4",
                    "midi": 63,
                    "time": 186.9230924999997,
                    "velocity": 0.3700787401574803,
                    "duration": 2.7692309999999907
                },
                {
                    "name": "C5",
                    "midi": 72,
                    "time": 188.3077079999997,
                    "velocity": 0.4330708661417323,
                    "duration": 0.9230770000000064
                },
                {
                    "name": "C#5",
                    "midi": 73,
                    "time": 189.2307849999997,
                    "velocity": 0.5433070866141733,
                    "duration": 0.46153849999998897
                },
                {
                    "name": "D#5",
                    "midi": 75,
                    "time": 189.6923234999997,
                    "velocity": 0.5905511811023622,
                    "duration": 0.46153849999998897
                },
                {
                    "name": "D#4",
                    "midi": 63,
                    "time": 189.6923234999997,
                    "velocity": 0.5196850393700787,
                    "duration": 0.46153849999998897
                },
                {
                    "name": "C#5",
                    "midi": 73,
                    "time": 190.1538619999997,
                    "velocity": 0.49606299212598426,
                    "duration": 0.46153849999998897
                },
                {
                    "name": "G4",
                    "midi": 67,
                    "time": 190.1538619999997,
                    "velocity": 0.44881889763779526,
                    "duration": 0.46153849999998897
                },
                {
                    "name": "G#4",
                    "midi": 68,
                    "time": 190.61540049999968,
                    "velocity": 0.3937007874015748,
                    "duration": 0.46153849999998897
                },
                {
                    "name": "C5",
                    "midi": 72,
                    "time": 190.61540049999968,
                    "velocity": 0.44881889763779526,
                    "duration": 0.46153849999998897
                },
                {
                    "name": "F4",
                    "midi": 65,
                    "time": 191.07693899999967,
                    "velocity": 0.3700787401574803,
                    "duration": 0.9230769999999779
                },
                {
                    "name": "C5",
                    "midi": 72,
                    "time": 191.07693899999967,
                    "velocity": 0.4094488188976378,
                    "duration": 0.46153849999998897
                },
                {
                    "name": "A#4",
                    "midi": 70,
                    "time": 191.53847749999966,
                    "velocity": 0.4094488188976378,
                    "duration": 0.46153849999998897
                },
                {
                    "name": "C#5",
                    "midi": 73,
                    "time": 192.00001599999965,
                    "velocity": 0.4094488188976378,
                    "duration": 0.46153849999998897
                },
                {
                    "name": "E4",
                    "midi": 64,
                    "time": 192.00001599999965,
                    "velocity": 0.3700787401574803,
                    "duration": 0.46153849999998897
                },
                {
                    "name": "G#4",
                    "midi": 68,
                    "time": 192.46155449999964,
                    "velocity": 0.3543307086614173,
                    "duration": 1.1538462499999866
                },
                {
                    "name": "D#4",
                    "midi": 63,
                    "time": 192.46155449999964,
                    "velocity": 0.30708661417322836,
                    "duration": 1.1538462499999866
                },
                {
                    "name": "C#4",
                    "midi": 61,
                    "time": 193.61540074999962,
                    "velocity": 0.2755905511811024,
                    "duration": 0.2307692500000087
                },
                {
                    "name": "G4",
                    "midi": 67,
                    "time": 193.61540074999962,
                    "velocity": 0.30708661417322836,
                    "duration": 0.2307692500000087
                },
                {
                    "name": "G4",
                    "midi": 67,
                    "time": 193.84616999999963,
                    "velocity": 0.30708661417322836,
                    "duration": 1.1538462499999866
                },
                {
                    "name": "C#4",
                    "midi": 61,
                    "time": 193.84616999999963,
                    "velocity": 0.2755905511811024,
                    "duration": 1.1538462499999866
                },
                {
                    "name": "C4",
                    "midi": 60,
                    "time": 195.00001624999962,
                    "velocity": 0.25984251968503935,
                    "duration": 0.2307692500000087
                },
                {
                    "name": "G#4",
                    "midi": 68,
                    "time": 195.00001624999962,
                    "velocity": 0.29133858267716534,
                    "duration": 0.2307692500000087
                },
                {
                    "name": "G#4",
                    "midi": 68,
                    "time": 195.23078549999963,
                    "velocity": 0.29133858267716534,
                    "duration": 1.3846154999999953
                },
                {
                    "name": "C4",
                    "midi": 60,
                    "time": 195.23078549999963,
                    "velocity": 0.25984251968503935,
                    "duration": 1.3846154999999953
                },
                {
                    "name": "C5",
                    "midi": 72,
                    "time": 197.7692472499996,
                    "velocity": 0.2755905511811024,
                    "duration": 0.2307692500000087
                },
                {
                    "name": "C4",
                    "midi": 60,
                    "time": 197.7692472499996,
                    "velocity": 0.23622047244094488,
                    "duration": 0.2307692500000087
                },
                {
                    "name": "G#4",
                    "midi": 68,
                    "time": 197.7692472499996,
                    "velocity": 0.23622047244094488,
                    "duration": 0.2307692500000087
                },
                {
                    "name": "C4",
                    "midi": 60,
                    "time": 198.00001649999962,
                    "velocity": 0.23622047244094488,
                    "duration": 0.7115385208333294
                },
                {
                    "name": "G#4",
                    "midi": 68,
                    "time": 198.00001649999962,
                    "velocity": 0.23622047244094488,
                    "duration": 0.7115385208333294
                },
                {
                    "name": "C5",
                    "midi": 72,
                    "time": 198.00001649999962,
                    "velocity": 0.2755905511811024,
                    "duration": 0.7115385208333294
                },
                {
                    "name": "C#4",
                    "midi": 61,
                    "time": 198.69232424999961,
                    "velocity": 0.23622047244094488,
                    "duration": 0.2500000208333404
                },
                {
                    "name": "C#5",
                    "midi": 73,
                    "time": 198.69232424999961,
                    "velocity": 0.2755905511811024,
                    "duration": 0.2500000208333404
                },
                {
                    "name": "G4",
                    "midi": 67,
                    "time": 198.69232424999961,
                    "velocity": 0.23622047244094488,
                    "duration": 0.2500000208333404
                },
                {
                    "name": "G#4",
                    "midi": 68,
                    "time": 198.92309349999962,
                    "velocity": 0.23622047244094488,
                    "duration": 0.46153849999998897
                },
                {
                    "name": "C4",
                    "midi": 60,
                    "time": 198.92309349999962,
                    "velocity": 0.23622047244094488,
                    "duration": 0.46153849999998897
                },
                {
                    "name": "C5",
                    "midi": 72,
                    "time": 198.92309349999962,
                    "velocity": 0.2755905511811024,
                    "duration": 0.46153849999998897
                },
                {
                    "name": "G4",
                    "midi": 67,
                    "time": 199.3846319999996,
                    "velocity": 0.2125984251968504,
                    "duration": 2.5384617500000104
                },
                {
                    "name": "C#4",
                    "midi": 61,
                    "time": 199.3846319999996,
                    "velocity": 0.2125984251968504,
                    "duration": 2.5384617500000104
                },
                {
                    "name": "C#5",
                    "midi": 73,
                    "time": 199.3846319999996,
                    "velocity": 0.23622047244094488,
                    "duration": 2.5384617500000104
                },
                {
                    "name": "G4",
                    "midi": 67,
                    "time": 201.92309374999962,
                    "velocity": 0.23622047244094488,
                    "duration": 0.2307692500000087
                },
                {
                    "name": "A#4",
                    "midi": 70,
                    "time": 201.92309374999962,
                    "velocity": 0.2755905511811024,
                    "duration": 0.2307692500000087
                },
                {
                    "name": "A#3",
                    "midi": 58,
                    "time": 201.92309374999962,
                    "velocity": 0.23622047244094488,
                    "duration": 0.2307692500000087
                },
                {
                    "name": "A#4",
                    "midi": 70,
                    "time": 202.15386299999963,
                    "velocity": 0.2755905511811024,
                    "duration": 0.7115385208333294
                },
                {
                    "name": "A#3",
                    "midi": 58,
                    "time": 202.15386299999963,
                    "velocity": 0.23622047244094488,
                    "duration": 0.7115385208333294
                },
                {
                    "name": "G4",
                    "midi": 67,
                    "time": 202.15386299999963,
                    "velocity": 0.23622047244094488,
                    "duration": 0.7115385208333294
                },
                {
                    "name": "C5",
                    "midi": 72,
                    "time": 202.84617074999963,
                    "velocity": 0.2755905511811024,
                    "duration": 0.2500000208333404
                },
                {
                    "name": "C4",
                    "midi": 60,
                    "time": 202.84617074999963,
                    "velocity": 0.23622047244094488,
                    "duration": 0.2500000208333404
                },
                {
                    "name": "G#4",
                    "midi": 68,
                    "time": 202.84617074999963,
                    "velocity": 0.23622047244094488,
                    "duration": 0.2500000208333404
                },
                {
                    "name": "A#3",
                    "midi": 58,
                    "time": 203.07693999999964,
                    "velocity": 0.23622047244094488,
                    "duration": 0.46153849999998897
                },
                {
                    "name": "G4",
                    "midi": 67,
                    "time": 203.07693999999964,
                    "velocity": 0.23622047244094488,
                    "duration": 0.46153849999998897
                },
                {
                    "name": "A#4",
                    "midi": 70,
                    "time": 203.07693999999964,
                    "velocity": 0.2755905511811024,
                    "duration": 0.46153849999998897
                },
                {
                    "name": "C4",
                    "midi": 60,
                    "time": 203.53847849999963,
                    "velocity": 0.2125984251968504,
                    "duration": 2.5384617500000104
                },
                {
                    "name": "C5",
                    "midi": 72,
                    "time": 203.53847849999963,
                    "velocity": 0.23622047244094488,
                    "duration": 2.5384617500000104
                },
                {
                    "name": "G#4",
                    "midi": 68,
                    "time": 203.53847849999963,
                    "velocity": 0.2125984251968504,
                    "duration": 2.5384617500000104
                },
                {
                    "name": "D#4",
                    "midi": 63,
                    "time": 206.07694024999964,
                    "velocity": 0.2755905511811024,
                    "duration": 0.2307692500000087
                },
                {
                    "name": "D#4",
                    "midi": 63,
                    "time": 206.30770949999965,
                    "velocity": 0.2755905511811024,
                    "duration": 0.7115385208333294
                },
                {
                    "name": "F4",
                    "midi": 65,
                    "time": 207.00001724999964,
                    "velocity": 0.33070866141732286,
                    "duration": 0.2500000208333404
                },
                {
                    "name": "D#4",
                    "midi": 63,
                    "time": 207.23078649999965,
                    "velocity": 0.3464566929133858,
                    "duration": 0.46153849999998897
                },
                {
                    "name": "F4",
                    "midi": 65,
                    "time": 207.69232499999964,
                    "velocity": 0.3543307086614173,
                    "duration": 0.7115385208333294
                },
                {
                    "name": "D#4",
                    "midi": 63,
                    "time": 208.38463274999964,
                    "velocity": 0.3464566929133858,
                    "duration": 0.2307692500000087
                },
                {
                    "name": "D#4",
                    "midi": 63,
                    "time": 208.61540199999965,
                    "velocity": 0.3464566929133858,
                    "duration": 0.46153849999998897
                },
                {
                    "name": "G#4",
                    "midi": 68,
                    "time": 209.07694049999964,
                    "velocity": 0.3464566929133858,
                    "duration": 1.3846154999999953
                },
                {
                    "name": "C4",
                    "midi": 60,
                    "time": 209.07694049999964,
                    "velocity": 0.30708661417322836,
                    "duration": 1.3846154999999953
                },
                {
                    "name": "A#4",
                    "midi": 70,
                    "time": 210.46155599999963,
                    "velocity": 0.3464566929133858,
                    "duration": 1.1538462499999866
                },
                {
                    "name": "C#4",
                    "midi": 61,
                    "time": 210.46155599999963,
                    "velocity": 0.30708661417322836,
                    "duration": 1.1538462499999866
                },
                {
                    "name": "G4",
                    "midi": 67,
                    "time": 210.46155599999963,
                    "velocity": 0.30708661417322836,
                    "duration": 1.1538462499999866
                },
                {
                    "name": "G#4",
                    "midi": 68,
                    "time": 211.61540224999962,
                    "velocity": 0.2755905511811024,
                    "duration": 0.2307692500000087
                },
                {
                    "name": "C4",
                    "midi": 60,
                    "time": 211.61540224999962,
                    "velocity": 0.23622047244094488,
                    "duration": 0.2307692500000087
                },
                {
                    "name": "G#4",
                    "midi": 68,
                    "time": 211.84617149999963,
                    "velocity": 0.2755905511811024,
                    "duration": 1.3846154999999953
                },
                {
                    "name": "C4",
                    "midi": 60,
                    "time": 211.84617149999963,
                    "velocity": 0.23622047244094488,
                    "duration": 1.3846154999999953
                },
                {
                    "name": "D#5",
                    "midi": 75,
                    "time": 213.0000177499996,
                    "velocity": 0.2283464566929134,
                    "duration": 0.2307692500000087
                },
                {
                    "name": "D#5",
                    "midi": 75,
                    "time": 213.23078699999962,
                    "velocity": 0.2283464566929134,
                    "duration": 3.9230772499999773
                },
                {
                    "name": "D#4",
                    "midi": 63,
                    "time": 214.3846332499996,
                    "velocity": 0.23622047244094488,
                    "duration": 0.2307692500000087
                },
                {
                    "name": "G#4",
                    "midi": 68,
                    "time": 214.3846332499996,
                    "velocity": 0.2755905511811024,
                    "duration": 0.2307692500000087
                },
                {
                    "name": "G#4",
                    "midi": 68,
                    "time": 214.61540249999962,
                    "velocity": 0.2755905511811024,
                    "duration": 0.7115385208333294
                },
                {
                    "name": "D#4",
                    "midi": 63,
                    "time": 214.61540249999962,
                    "velocity": 0.23622047244094488,
                    "duration": 0.7115385208333294
                },
                {
                    "name": "F4",
                    "midi": 65,
                    "time": 215.30771024999962,
                    "velocity": 0.23622047244094488,
                    "duration": 0.2500000208333404
                },
                {
                    "name": "A#4",
                    "midi": 70,
                    "time": 215.30771024999962,
                    "velocity": 0.2755905511811024,
                    "duration": 0.2500000208333404
                },
                {
                    "name": "D#4",
                    "midi": 63,
                    "time": 215.53847949999962,
                    "velocity": 0.23622047244094488,
                    "duration": 0.46153849999998897
                },
                {
                    "name": "G#4",
                    "midi": 68,
                    "time": 215.53847949999962,
                    "velocity": 0.2755905511811024,
                    "duration": 0.46153849999998897
                },
                {
                    "name": "A#4",
                    "midi": 70,
                    "time": 216.0000179999996,
                    "velocity": 0.23622047244094488,
                    "duration": 2.538461749999982
                },
                {
                    "name": "F4",
                    "midi": 65,
                    "time": 216.0000179999996,
                    "velocity": 0.2125984251968504,
                    "duration": 2.538461749999982
                },
                {
                    "name": "D#5",
                    "midi": 75,
                    "time": 217.1538642499996,
                    "velocity": 0.2125984251968504,
                    "duration": 0.2307692500000087
                },
                {
                    "name": "D#5",
                    "midi": 75,
                    "time": 217.3846334999996,
                    "velocity": 0.2125984251968504,
                    "duration": 3.9230772499999773
                },
                {
                    "name": "G4",
                    "midi": 67,
                    "time": 218.5384797499996,
                    "velocity": 0.2755905511811024,
                    "duration": 0.2307692500000087
                },
                {
                    "name": "C#4",
                    "midi": 61,
                    "time": 218.5384797499996,
                    "velocity": 0.23622047244094488,
                    "duration": 0.2307692500000087
                },
                {
                    "name": "C#4",
                    "midi": 61,
                    "time": 218.7692489999996,
                    "velocity": 0.23622047244094488,
                    "duration": 0.7115385208333294
                },
                {
                    "name": "G4",
                    "midi": 67,
                    "time": 218.7692489999996,
                    "velocity": 0.2755905511811024,
                    "duration": 0.7115385208333294
                },
                {
                    "name": "G#4",
                    "midi": 68,
                    "time": 219.4615567499996,
                    "velocity": 0.2755905511811024,
                    "duration": 0.2500000208333404
                },
                {
                    "name": "D#4",
                    "midi": 63,
                    "time": 219.4615567499996,
                    "velocity": 0.23622047244094488,
                    "duration": 0.2500000208333404
                },
                {
                    "name": "A#4",
                    "midi": 70,
                    "time": 219.6923259999996,
                    "velocity": 0.2755905511811024,
                    "duration": 0.46153849999998897
                },
                {
                    "name": "F4",
                    "midi": 65,
                    "time": 219.6923259999996,
                    "velocity": 0.23622047244094488,
                    "duration": 0.46153849999998897
                },
                {
                    "name": "G#4",
                    "midi": 68,
                    "time": 220.1538644999996,
                    "velocity": 0.23622047244094488,
                    "duration": 2.538461749999982
                },
                {
                    "name": "D#4",
                    "midi": 63,
                    "time": 220.1538644999996,
                    "velocity": 0.2125984251968504,
                    "duration": 2.538461749999982
                },
                {
                    "name": "D#5",
                    "midi": 75,
                    "time": 221.3077107499996,
                    "velocity": 0.30708661417322836,
                    "duration": 0.2307692500000087
                },
                {
                    "name": "D#5",
                    "midi": 75,
                    "time": 221.5384799999996,
                    "velocity": 0.30708661417322836,
                    "duration": 4.153846499999986
                },
                {
                    "name": "D#4",
                    "midi": 63,
                    "time": 222.69232624999958,
                    "velocity": 0.2755905511811024,
                    "duration": 0.2307692500000087
                },
                {
                    "name": "D#4",
                    "midi": 63,
                    "time": 222.9230954999996,
                    "velocity": 0.2755905511811024,
                    "duration": 0.7115385208333294
                },
                {
                    "name": "F4",
                    "midi": 65,
                    "time": 223.6154032499996,
                    "velocity": 0.33070866141732286,
                    "duration": 0.2500000208333404
                },
                {
                    "name": "D#4",
                    "midi": 63,
                    "time": 223.8461724999996,
                    "velocity": 0.3464566929133858,
                    "duration": 0.46153849999998897
                },
                {
                    "name": "F4",
                    "midi": 65,
                    "time": 224.30771099999959,
                    "velocity": 0.30708661417322836,
                    "duration": 0.7115385208333294
                },
                {
                    "name": "G#4",
                    "midi": 68,
                    "time": 224.30771099999959,
                    "velocity": 0.3543307086614173,
                    "duration": 0.7115385208333294
                },
                {
                    "name": "D#4",
                    "midi": 63,
                    "time": 225.00001874999958,
                    "velocity": 0.3464566929133858,
                    "duration": 0.2307692500000087
                },
                {
                    "name": "D#4",
                    "midi": 63,
                    "time": 225.2307879999996,
                    "velocity": 0.3464566929133858,
                    "duration": 0.46153849999998897
                },
                {
                    "name": "C5",
                    "midi": 72,
                    "time": 225.69232649999958,
                    "velocity": 0.3464566929133858,
                    "duration": 1.3846154999999953
                },
                {
                    "name": "D#5",
                    "midi": 75,
                    "time": 225.69232649999958,
                    "velocity": 0.4015748031496063,
                    "duration": 1.3846154999999953
                },
                {
                    "name": "A#4",
                    "midi": 70,
                    "time": 227.07694199999958,
                    "velocity": 0.3543307086614173,
                    "duration": 1.1538462499999866
                },
                {
                    "name": "G5",
                    "midi": 79,
                    "time": 227.07694199999958,
                    "velocity": 0.4015748031496063,
                    "duration": 1.1538462499999866
                },
                {
                    "name": "D#5",
                    "midi": 75,
                    "time": 227.07694199999958,
                    "velocity": 0.3543307086614173,
                    "duration": 1.1538462499999866
                },
                {
                    "name": "G#5",
                    "midi": 80,
                    "time": 228.23078824999956,
                    "velocity": 0.3858267716535433,
                    "duration": 0.2307692500000087
                },
                {
                    "name": "G#4",
                    "midi": 68,
                    "time": 228.23078824999956,
                    "velocity": 0.3543307086614173,
                    "duration": 0.2307692500000087
                },
                {
                    "name": "D#5",
                    "midi": 75,
                    "time": 228.23078824999956,
                    "velocity": 0.3543307086614173,
                    "duration": 0.2307692500000087
                },
                {
                    "name": "D#5",
                    "midi": 75,
                    "time": 228.46155749999957,
                    "velocity": 0.3543307086614173,
                    "duration": 3.9230772500000057
                },
                {
                    "name": "G#4",
                    "midi": 68,
                    "time": 228.46155749999957,
                    "velocity": 0.3543307086614173,
                    "duration": 3.9230772500000057
                },
                {
                    "name": "G#5",
                    "midi": 80,
                    "time": 228.46155749999957,
                    "velocity": 0.3937007874015748,
                    "duration": 3.9230772500000057
                },
                {
                    "name": "F#5",
                    "midi": 78,
                    "time": 232.38463474999958,
                    "velocity": 0.5511811023622047,
                    "duration": 0.2307692500000087
                },
                {
                    "name": "A5",
                    "midi": 81,
                    "time": 232.38463474999958,
                    "velocity": 0.6929133858267716,
                    "duration": 0.2307692500000087
                },
                {
                    "name": "A4",
                    "midi": 69,
                    "time": 232.38463474999958,
                    "velocity": 0.5511811023622047,
                    "duration": 0.2307692500000087
                },
                {
                    "name": "A5",
                    "midi": 81,
                    "time": 232.6154039999996,
                    "velocity": 0.7637795275590551,
                    "duration": 1.3846154999999953
                },
                {
                    "name": "A4",
                    "midi": 69,
                    "time": 232.6154039999996,
                    "velocity": 0.6062992125984252,
                    "duration": 1.3846154999999953
                },
                {
                    "name": "F#5",
                    "midi": 78,
                    "time": 232.6154039999996,
                    "velocity": 0.6062992125984252,
                    "duration": 1.3846154999999953
                },
                {
                    "name": "F#5",
                    "midi": 78,
                    "time": 234.00001949999958,
                    "velocity": 0.5984251968503937,
                    "duration": 1.3846154999999953
                },
                {
                    "name": "A5",
                    "midi": 81,
                    "time": 234.00001949999958,
                    "velocity": 0.7559055118110236,
                    "duration": 1.3846154999999953
                },
                {
                    "name": "A4",
                    "midi": 69,
                    "time": 234.00001949999958,
                    "velocity": 0.5984251968503937,
                    "duration": 1.3846154999999953
                },
                {
                    "name": "A#5",
                    "midi": 82,
                    "time": 235.38463499999958,
                    "velocity": 0.7559055118110236,
                    "duration": 1.3846154999999953
                },
                {
                    "name": "A#4",
                    "midi": 70,
                    "time": 235.38463499999958,
                    "velocity": 0.5984251968503937,
                    "duration": 1.3846154999999953
                },
                {
                    "name": "E5",
                    "midi": 76,
                    "time": 235.38463499999958,
                    "velocity": 0.5984251968503937,
                    "duration": 1.3846154999999953
                },
                {
                    "name": "B5",
                    "midi": 83,
                    "time": 236.76925049999957,
                    "velocity": 0.6929133858267716,
                    "duration": 3.9230772500000057
                },
                {
                    "name": "B4",
                    "midi": 71,
                    "time": 236.76925049999957,
                    "velocity": 0.5511811023622047,
                    "duration": 3.9230772500000057
                },
                {
                    "name": "D5",
                    "midi": 74,
                    "time": 236.76925049999957,
                    "velocity": 0.5511811023622047,
                    "duration": 3.9230772500000057
                },
                {
                    "name": "D5",
                    "midi": 74,
                    "time": 240.69232774999958,
                    "velocity": 0.5511811023622047,
                    "duration": 0.2307692500000087
                },
                {
                    "name": "B5",
                    "midi": 83,
                    "time": 240.69232774999958,
                    "velocity": 0.6929133858267716,
                    "duration": 0.2307692500000087
                },
                {
                    "name": "B4",
                    "midi": 71,
                    "time": 240.69232774999958,
                    "velocity": 0.5511811023622047,
                    "duration": 0.2307692500000087
                },
                {
                    "name": "C#5",
                    "midi": 73,
                    "time": 240.9230969999996,
                    "velocity": 0.5984251968503937,
                    "duration": 1.1538462499999866
                },
                {
                    "name": "C#6",
                    "midi": 85,
                    "time": 240.9230969999996,
                    "velocity": 0.7559055118110236,
                    "duration": 1.1538462499999866
                },
                {
                    "name": "E5",
                    "midi": 76,
                    "time": 240.9230969999996,
                    "velocity": 0.5984251968503937,
                    "duration": 1.1538462499999866
                },
                {
                    "name": "D5",
                    "midi": 74,
                    "time": 242.07694324999957,
                    "velocity": 0.5511811023622047,
                    "duration": 0.2307692500000087
                },
                {
                    "name": "B4",
                    "midi": 71,
                    "time": 242.07694324999957,
                    "velocity": 0.5511811023622047,
                    "duration": 0.2307692500000087
                },
                {
                    "name": "B5",
                    "midi": 83,
                    "time": 242.07694324999957,
                    "velocity": 0.6929133858267716,
                    "duration": 0.2307692500000087
                },
                {
                    "name": "D5",
                    "midi": 74,
                    "time": 242.30771249999958,
                    "velocity": 0.5984251968503937,
                    "duration": 1.1538462499999866
                },
                {
                    "name": "B4",
                    "midi": 71,
                    "time": 242.30771249999958,
                    "velocity": 0.5984251968503937,
                    "duration": 1.1538462499999866
                },
                {
                    "name": "B5",
                    "midi": 83,
                    "time": 242.30771249999958,
                    "velocity": 0.7559055118110236,
                    "duration": 1.1538462499999866
                },
                {
                    "name": "C#5",
                    "midi": 73,
                    "time": 243.46155874999957,
                    "velocity": 0.5511811023622047,
                    "duration": 0.2307692500000087
                },
                {
                    "name": "A5",
                    "midi": 81,
                    "time": 243.46155874999957,
                    "velocity": 0.6929133858267716,
                    "duration": 0.2307692500000087
                },
                {
                    "name": "A4",
                    "midi": 69,
                    "time": 243.46155874999957,
                    "velocity": 0.5511811023622047,
                    "duration": 0.2307692500000087
                },
                {
                    "name": "A5",
                    "midi": 81,
                    "time": 243.69232799999958,
                    "velocity": 0.7559055118110236,
                    "duration": 1.1538462499999866
                },
                {
                    "name": "A4",
                    "midi": 69,
                    "time": 243.69232799999958,
                    "velocity": 0.5984251968503937,
                    "duration": 1.1538462499999866
                },
                {
                    "name": "C#5",
                    "midi": 73,
                    "time": 243.69232799999958,
                    "velocity": 0.5984251968503937,
                    "duration": 1.1538462499999866
                },
                {
                    "name": "G#5",
                    "midi": 80,
                    "time": 244.84617424999956,
                    "velocity": 0.6220472440944882,
                    "duration": 0.2307692500000087
                },
                {
                    "name": "G#4",
                    "midi": 68,
                    "time": 244.84617424999956,
                    "velocity": 0.49606299212598426,
                    "duration": 0.2307692500000087
                },
                {
                    "name": "B4",
                    "midi": 71,
                    "time": 244.84617424999956,
                    "velocity": 0.49606299212598426,
                    "duration": 0.2307692500000087
                },
                {
                    "name": "A4",
                    "midi": 69,
                    "time": 245.07694349999957,
                    "velocity": 0.5196850393700787,
                    "duration": 2.7692309999999907
                },
                {
                    "name": "C#5",
                    "midi": 73,
                    "time": 245.07694349999957,
                    "velocity": 0.5196850393700787,
                    "duration": 2.7692309999999907
                },
                {
                    "name": "A5",
                    "midi": 81,
                    "time": 245.07694349999957,
                    "velocity": 0.6535433070866141,
                    "duration": 2.7692309999999907
                },
                {
                    "name": "C#5",
                    "midi": 73,
                    "time": 247.84617449999956,
                    "velocity": 0.6062992125984252,
                    "duration": 1.1538462499999866
                },
                {
                    "name": "C#6",
                    "midi": 85,
                    "time": 247.84617449999956,
                    "velocity": 0.7637795275590551,
                    "duration": 1.1538462499999866
                },
                {
                    "name": "A5",
                    "midi": 81,
                    "time": 249.00002074999955,
                    "velocity": 0.6141732283464567,
                    "duration": 0.2307692500000087
                },
                {
                    "name": "F#5",
                    "midi": 78,
                    "time": 249.00002074999955,
                    "velocity": 0.4881889763779528,
                    "duration": 0.2307692500000087
                },
                {
                    "name": "A4",
                    "midi": 69,
                    "time": 249.00002074999955,
                    "velocity": 0.4881889763779528,
                    "duration": 0.2307692500000087
                },
                {
                    "name": "G#5",
                    "midi": 80,
                    "time": 249.23078999999956,
                    "velocity": 0.6141732283464567,
                    "duration": 2.7692309999999907
                },
                {
                    "name": "G#4",
                    "midi": 68,
                    "time": 249.23078999999956,
                    "velocity": 0.4881889763779528,
                    "duration": 2.7692309999999907
                },
                {
                    "name": "F5",
                    "midi": 77,
                    "time": 249.23078999999956,
                    "velocity": 0.4881889763779528,
                    "duration": 2.7692309999999907
                },
                {
                    "name": "F#6",
                    "midi": 90,
                    "time": 252.00002099999955,
                    "velocity": 0.7795275590551181,
                    "duration": 1.1538462499999866
                },
                {
                    "name": "F#5",
                    "midi": 78,
                    "time": 252.00002099999955,
                    "velocity": 0.6220472440944882,
                    "duration": 1.1538462499999866
                },
                {
                    "name": "A5",
                    "midi": 81,
                    "time": 252.00002099999955,
                    "velocity": 0.6220472440944882,
                    "duration": 1.1538462499999866
                },
                {
                    "name": "A4",
                    "midi": 69,
                    "time": 253.15386724999954,
                    "velocity": 0.4409448818897638,
                    "duration": 0.2307692500000087
                },
                {
                    "name": "A5",
                    "midi": 81,
                    "time": 253.15386724999954,
                    "velocity": 0.5511811023622047,
                    "duration": 0.2307692500000087
                },
                {
                    "name": "F#5",
                    "midi": 78,
                    "time": 253.15386724999954,
                    "velocity": 0.4409448818897638,
                    "duration": 0.2307692500000087
                },
                {
                    "name": "G#4",
                    "midi": 68,
                    "time": 253.38463649999954,
                    "velocity": 0.4409448818897638,
                    "duration": 1.8461540000000127
                },
                {
                    "name": "G#5",
                    "midi": 80,
                    "time": 253.38463649999954,
                    "velocity": 0.5511811023622047,
                    "duration": 1.8461540000000127
                },
                {
                    "name": "F5",
                    "midi": 77,
                    "time": 253.38463649999954,
                    "velocity": 0.4409448818897638,
                    "duration": 1.8461540000000127
                },
                {
                    "name": "B4",
                    "midi": 71,
                    "time": 255.23079049999956,
                    "velocity": 0.5511811023622047,
                    "duration": 0.46153849999998897
                },
                {
                    "name": "A4",
                    "midi": 69,
                    "time": 255.69232899999955,
                    "velocity": 0.49606299212598426,
                    "duration": 0.46153849999998897
                },
                {
                    "name": "G#4",
                    "midi": 68,
                    "time": 256.15386749999954,
                    "velocity": 0.4566929133858268,
                    "duration": 0.4615385000000174
                },
                {
                    "name": "A4",
                    "midi": 69,
                    "time": 256.61540599999955,
                    "velocity": 0.4330708661417323,
                    "duration": 0.4615385000000174
                },
                {
                    "name": "B4",
                    "midi": 71,
                    "time": 257.07694449999957,
                    "velocity": 0.41732283464566927,
                    "duration": 0.4615385000000174
                },
                {
                    "name": "C#5",
                    "midi": 73,
                    "time": 257.5384829999996,
                    "velocity": 0.4015748031496063,
                    "duration": 1.3846154999999953
                },
                {
                    "name": "C#5",
                    "midi": 73,
                    "time": 258.9230984999996,
                    "velocity": 0.4015748031496063,
                    "duration": 1.3846154999999953
                },
                {
                    "name": "C#5",
                    "midi": 73,
                    "time": 260.3077139999996,
                    "velocity": 0.4094488188976378,
                    "duration": 1.3846154999999953
                },
                {
                    "name": "D5",
                    "midi": 74,
                    "time": 261.6923294999996,
                    "velocity": 0.47244094488188976,
                    "duration": 4.153846499999986
                },
                {
                    "name": "D5",
                    "midi": 74,
                    "time": 265.6154067499996,
                    "velocity": 0.3228346456692913,
                    "duration": 0.23076924999998027
                },
                {
                    "name": "F#5",
                    "midi": 78,
                    "time": 265.84617599999956,
                    "velocity": 0.3228346456692913,
                    "duration": 0.9230769999999779
                },
                {
                    "name": "D5",
                    "midi": 74,
                    "time": 266.76925299999954,
                    "velocity": 0.3228346456692913,
                    "duration": 0.4615385000000174
                },
                {
                    "name": "D5",
                    "midi": 74,
                    "time": 267.23079149999955,
                    "velocity": 0.3228346456692913,
                    "duration": 0.9230769999999779
                },
                {
                    "name": "C#5",
                    "midi": 73,
                    "time": 268.15386849999953,
                    "velocity": 0.3228346456692913,
                    "duration": 0.4615385000000174
                },
                {
                    "name": "C#5",
                    "midi": 73,
                    "time": 268.61540699999955,
                    "velocity": 0.3228346456692913,
                    "duration": 0.9230769999999779
                },
                {
                    "name": "B4",
                    "midi": 71,
                    "time": 269.5384839999995,
                    "velocity": 0.3464566929133858,
                    "duration": 0.4615385000000174
                },
                {
                    "name": "C#5",
                    "midi": 73,
                    "time": 270.00002249999955,
                    "velocity": 0.3464566929133858,
                    "duration": 2.7692309999999907
                },
                {
                    "name": "C#5",
                    "midi": 73,
                    "time": 272.76925349999954,
                    "velocity": 0.4094488188976378,
                    "duration": 0.9230769999999779
                },
                {
                    "name": "A4",
                    "midi": 69,
                    "time": 273.6923304999995,
                    "velocity": 0.4094488188976378,
                    "duration": 0.4615385000000174
                },
                {
                    "name": "G#4",
                    "midi": 68,
                    "time": 274.15386899999953,
                    "velocity": 0.4094488188976378,
                    "duration": 2.7692309999999907
                },
                {
                    "name": "B4",
                    "midi": 71,
                    "time": 276.9230999999995,
                    "velocity": 0.3700787401574803,
                    "duration": 0.4615385000000174
                },
                {
                    "name": "A4",
                    "midi": 69,
                    "time": 277.38463849999954,
                    "velocity": 0.3464566929133858,
                    "duration": 0.4615385000000174
                },
                {
                    "name": "G#4",
                    "midi": 68,
                    "time": 277.84617699999956,
                    "velocity": 0.28346456692913385,
                    "duration": 0.4615385000000174
                },
                {
                    "name": "C#5",
                    "midi": 73,
                    "time": 278.3077154999996,
                    "velocity": 0.3543307086614173,
                    "duration": 2.5384617500000104
                },
                {
                    "name": "C#5",
                    "midi": 73,
                    "time": 280.8461772499996,
                    "velocity": 0.4094488188976378,
                    "duration": 0.23076924999998027
                },
                {
                    "name": "F#5",
                    "midi": 78,
                    "time": 281.07694649999956,
                    "velocity": 0.5511811023622047,
                    "duration": 0.9230769999999779
                },
                {
                    "name": "A#4",
                    "midi": 70,
                    "time": 282.00002349999954,
                    "velocity": 0.4881889763779528,
                    "duration": 0.4615385000000174
                },
                {
                    "name": "G#4",
                    "midi": 68,
                    "time": 282.46156199999956,
                    "velocity": 0.4881889763779528,
                    "duration": 1.8461540000000127
                },
                {
                    "name": "A#4",
                    "midi": 70,
                    "time": 284.3077159999996,
                    "velocity": 0.48031496062992124,
                    "duration": 0.4615385000000174
                },
                {
                    "name": "G#4",
                    "midi": 68,
                    "time": 284.7692544999996,
                    "velocity": 0.48031496062992124,
                    "duration": 0.4615385000000174
                },
                {
                    "name": "B4",
                    "midi": 71,
                    "time": 285.2307929999996,
                    "velocity": 0.47244094488188976,
                    "duration": 0.4615385000000174
                },
                {
                    "name": "A#4",
                    "midi": 70,
                    "time": 285.6923314999996,
                    "velocity": 0.44881889763779526,
                    "duration": 0.4615385000000174
                },
                {
                    "name": "G#4",
                    "midi": 68,
                    "time": 286.15386999999964,
                    "velocity": 0.44881889763779526,
                    "duration": 0.4615385000000174
                },
                {
                    "name": "F#4",
                    "midi": 66,
                    "time": 286.61540849999966,
                    "velocity": 0.4881889763779528,
                    "duration": 2.7692309999999907
                },
                {
                    "name": "C#5",
                    "midi": 73,
                    "time": 290.76925499999965,
                    "velocity": 0.3543307086614173,
                    "duration": 1.3846154999999953
                },
                {
                    "name": "C#5",
                    "midi": 73,
                    "time": 292.15387049999964,
                    "velocity": 0.3543307086614173,
                    "duration": 1.3846154999999953
                },
                {
                    "name": "C#5",
                    "midi": 73,
                    "time": 293.53848599999964,
                    "velocity": 0.3464566929133858,
                    "duration": 1.3846154999999953
                },
                {
                    "name": "C#5",
                    "midi": 73,
                    "time": 294.92310149999963,
                    "velocity": 0.36220472440944884,
                    "duration": 1.3846154999999953
                },
                {
                    "name": "C#5",
                    "midi": 73,
                    "time": 296.3077169999996,
                    "velocity": 0.3464566929133858,
                    "duration": 1.3846154999999953
                },
                {
                    "name": "C#5",
                    "midi": 73,
                    "time": 297.6923324999996,
                    "velocity": 0.3464566929133858,
                    "duration": 1.153846250000015
                },
                {
                    "name": "C#5",
                    "midi": 73,
                    "time": 298.84617874999964,
                    "velocity": 0.2755905511811024,
                    "duration": 0.23076924999998027
                },
                {
                    "name": "E5",
                    "midi": 76,
                    "time": 299.0769479999996,
                    "velocity": 0.4094488188976378,
                    "duration": 0.9230769999999779
                },
                {
                    "name": "D#5",
                    "midi": 75,
                    "time": 300.0000249999996,
                    "velocity": 0.3700787401574803,
                    "duration": 0.4615385000000174
                },
                {
                    "name": "D#5",
                    "midi": 75,
                    "time": 300.4615634999996,
                    "velocity": 0.36220472440944884,
                    "duration": 0.4615385000000174
                },
                {
                    "name": "D#5",
                    "midi": 75,
                    "time": 300.92310199999963,
                    "velocity": 0.3543307086614173,
                    "duration": 0.4615385000000174
                },
                {
                    "name": "D#5",
                    "midi": 75,
                    "time": 301.38464049999965,
                    "velocity": 0.3464566929133858,
                    "duration": 0.4615385000000174
                },
                {
                    "name": "D#5",
                    "midi": 75,
                    "time": 301.84617899999967,
                    "velocity": 0.33070866141732286,
                    "duration": 0.4615385000000174
                },
                {
                    "name": "D#5",
                    "midi": 75,
                    "time": 302.3077174999997,
                    "velocity": 0.3228346456692913,
                    "duration": 0.4615385000000174
                },
                {
                    "name": "D#5",
                    "midi": 75,
                    "time": 302.7692559999997,
                    "velocity": 0.31496062992125984,
                    "duration": 0.4615385000000174
                },
                {
                    "name": "D#5",
                    "midi": 75,
                    "time": 303.2307944999997,
                    "velocity": 0.30708661417322836,
                    "duration": 2.7692309999999907
                },
                {
                    "name": "C5",
                    "midi": 72,
                    "time": 306.0000254999997,
                    "velocity": 0.23622047244094488,
                    "duration": 0.7115385208333578
                },
                {
                    "name": "G#4",
                    "midi": 68,
                    "time": 306.0000254999997,
                    "velocity": 0.2125984251968504,
                    "duration": 0.7115385208333578
                },
                {
                    "name": "C4",
                    "midi": 60,
                    "time": 306.0000254999997,
                    "velocity": 0.2125984251968504,
                    "duration": 0.7115385208333578
                },
                {
                    "name": "G4",
                    "midi": 67,
                    "time": 306.6923332499997,
                    "velocity": 0.2125984251968504,
                    "duration": 0.25000002083339723
                },
                {
                    "name": "C#5",
                    "midi": 73,
                    "time": 306.6923332499997,
                    "velocity": 0.23622047244094488,
                    "duration": 0.25000002083339723
                },
                {
                    "name": "C#4",
                    "midi": 61,
                    "time": 306.6923332499997,
                    "velocity": 0.2125984251968504,
                    "duration": 0.25000002083339723
                },
                {
                    "name": "C5",
                    "midi": 72,
                    "time": 306.92310249999974,
                    "velocity": 0.23622047244094488,
                    "duration": 0.4615385000000174
                },
                {
                    "name": "C4",
                    "midi": 60,
                    "time": 306.92310249999974,
                    "velocity": 0.2125984251968504,
                    "duration": 0.4615385000000174
                },
                {
                    "name": "G#4",
                    "midi": 68,
                    "time": 306.92310249999974,
                    "velocity": 0.2125984251968504,
                    "duration": 0.4615385000000174
                },
                {
                    "name": "C#5",
                    "midi": 73,
                    "time": 307.38464099999976,
                    "velocity": 0.1732283464566929,
                    "duration": 2.7692309999999907
                },
                {
                    "name": "C#4",
                    "midi": 61,
                    "time": 307.38464099999976,
                    "velocity": 0.14960629921259844,
                    "duration": 2.7692309999999907
                },
                {
                    "name": "G4",
                    "midi": 67,
                    "time": 307.38464099999976,
                    "velocity": 0.14960629921259844,
                    "duration": 2.7692309999999907
                },
                {
                    "name": "C4",
                    "midi": 60,
                    "time": 310.15387199999975,
                    "velocity": 0.23622047244094488,
                    "duration": 0.7115385208333578
                },
                {
                    "name": "G#4",
                    "midi": 68,
                    "time": 310.15387199999975,
                    "velocity": 0.23622047244094488,
                    "duration": 0.7115385208333578
                },
                {
                    "name": "C5",
                    "midi": 72,
                    "time": 310.15387199999975,
                    "velocity": 0.2755905511811024,
                    "duration": 0.7115385208333578
                },
                {
                    "name": "D#4",
                    "midi": 63,
                    "time": 310.84617974999975,
                    "velocity": 0.2755905511811024,
                    "duration": 0.25000002083339723
                },
                {
                    "name": "D#5",
                    "midi": 75,
                    "time": 310.84617974999975,
                    "velocity": 0.30708661417322836,
                    "duration": 0.25000002083339723
                },
                {
                    "name": "G#4",
                    "midi": 68,
                    "time": 311.0769489999998,
                    "velocity": 0.23622047244094488,
                    "duration": 0.4615385000000174
                },
                {
                    "name": "C5",
                    "midi": 72,
                    "time": 311.0769489999998,
                    "velocity": 0.2755905511811024,
                    "duration": 0.4615385000000174
                },
                {
                    "name": "C4",
                    "midi": 60,
                    "time": 311.0769489999998,
                    "velocity": 0.23622047244094488,
                    "duration": 0.4615385000000174
                },
                {
                    "name": "A#4",
                    "midi": 70,
                    "time": 311.5384874999998,
                    "velocity": 0.2204724409448819,
                    "duration": 2.7692309999999907
                },
                {
                    "name": "A#3",
                    "midi": 58,
                    "time": 311.5384874999998,
                    "velocity": 0.1968503937007874,
                    "duration": 2.7692309999999907
                },
                {
                    "name": "G4",
                    "midi": 67,
                    "time": 311.5384874999998,
                    "velocity": 0.1968503937007874,
                    "duration": 2.7692309999999907
                },
                {
                    "name": "C5",
                    "midi": 72,
                    "time": 314.3077184999998,
                    "velocity": 0.2677165354330709,
                    "duration": 0.7115385208333578
                },
                {
                    "name": "C4",
                    "midi": 60,
                    "time": 314.3077184999998,
                    "velocity": 0.2283464566929134,
                    "duration": 0.7115385208333578
                },
                {
                    "name": "G#4",
                    "midi": 68,
                    "time": 314.3077184999998,
                    "velocity": 0.2283464566929134,
                    "duration": 0.7115385208333578
                },
                {
                    "name": "C#4",
                    "midi": 61,
                    "time": 315.0000262499998,
                    "velocity": 0.2283464566929134,
                    "duration": 0.25000002083339723
                },
                {
                    "name": "G4",
                    "midi": 67,
                    "time": 315.0000262499998,
                    "velocity": 0.2283464566929134,
                    "duration": 0.25000002083339723
                },
                {
                    "name": "C#5",
                    "midi": 73,
                    "time": 315.0000262499998,
                    "velocity": 0.2677165354330709,
                    "duration": 0.25000002083339723
                },
                {
                    "name": "C4",
                    "midi": 60,
                    "time": 315.23079549999983,
                    "velocity": 0.2283464566929134,
                    "duration": 0.4615385000000174
                },
                {
                    "name": "C5",
                    "midi": 72,
                    "time": 315.23079549999983,
                    "velocity": 0.2677165354330709,
                    "duration": 0.4615385000000174
                },
                {
                    "name": "G#4",
                    "midi": 68,
                    "time": 315.23079549999983,
                    "velocity": 0.2283464566929134,
                    "duration": 0.4615385000000174
                },
                {
                    "name": "G#4",
                    "midi": 68,
                    "time": 315.69233399999985,
                    "velocity": 0.2125984251968504,
                    "duration": 0.7115385208333578
                },
                {
                    "name": "C4",
                    "midi": 60,
                    "time": 315.69233399999985,
                    "velocity": 0.2125984251968504,
                    "duration": 0.7115385208333578
                },
                {
                    "name": "C5",
                    "midi": 72,
                    "time": 315.69233399999985,
                    "velocity": 0.23622047244094488,
                    "duration": 0.7115385208333578
                },
                {
                    "name": "G#4",
                    "midi": 68,
                    "time": 316.38464174999984,
                    "velocity": 0.33070866141732286,
                    "duration": 0.25000002083339723
                },
                {
                    "name": "F4",
                    "midi": 65,
                    "time": 316.38464174999984,
                    "velocity": 0.33070866141732286,
                    "duration": 0.25000002083339723
                },
                {
                    "name": "F5",
                    "midi": 77,
                    "time": 316.38464174999984,
                    "velocity": 0.3779527559055118,
                    "duration": 0.25000002083339723
                },
                {
                    "name": "D#5",
                    "midi": 75,
                    "time": 316.6154109999999,
                    "velocity": 0.4015748031496063,
                    "duration": 0.4615385000000174
                },
                {
                    "name": "G#4",
                    "midi": 68,
                    "time": 316.6154109999999,
                    "velocity": 0.3543307086614173,
                    "duration": 0.4615385000000174
                },
                {
                    "name": "D#4",
                    "midi": 63,
                    "time": 316.6154109999999,
                    "velocity": 0.3543307086614173,
                    "duration": 0.4615385000000174
                },
                {
                    "name": "D#5",
                    "midi": 75,
                    "time": 317.0769494999999,
                    "velocity": 0.4409448818897638,
                    "duration": 1.153846250000015
                },
                {
                    "name": "D#4",
                    "midi": 63,
                    "time": 317.0769494999999,
                    "velocity": 0.3937007874015748,
                    "duration": 1.153846250000015
                },
                {
                    "name": "G#4",
                    "midi": 68,
                    "time": 317.0769494999999,
                    "velocity": 0.3937007874015748,
                    "duration": 1.153846250000015
                },
                {
                    "name": "D#5",
                    "midi": 75,
                    "time": 318.2307957499999,
                    "velocity": 0.4094488188976378,
                    "duration": 0.23076924999998027
                },
                {
                    "name": "D#4",
                    "midi": 63,
                    "time": 318.2307957499999,
                    "velocity": 0.3700787401574803,
                    "duration": 0.23076924999998027
                },
                {
                    "name": "G4",
                    "midi": 67,
                    "time": 318.4615649999999,
                    "velocity": 0.3700787401574803,
                    "duration": 1.153846250000015
                },
                {
                    "name": "C#4",
                    "midi": 61,
                    "time": 318.4615649999999,
                    "velocity": 0.3700787401574803,
                    "duration": 1.153846250000015
                },
                {
                    "name": "C#5",
                    "midi": 73,
                    "time": 318.4615649999999,
                    "velocity": 0.4094488188976378,
                    "duration": 1.153846250000015
                },
                {
                    "name": "G#4",
                    "midi": 68,
                    "time": 319.6154112499999,
                    "velocity": 0.1889763779527559,
                    "duration": 0.23076924999998027
                },
                {
                    "name": "C4",
                    "midi": 60,
                    "time": 319.6154112499999,
                    "velocity": 0.1889763779527559,
                    "duration": 0.23076924999998027
                },
                {
                    "name": "C5",
                    "midi": 72,
                    "time": 319.6154112499999,
                    "velocity": 0.2125984251968504,
                    "duration": 0.23076924999998027
                },
                {
                    "name": "G#4",
                    "midi": 68,
                    "time": 319.8461804999999,
                    "velocity": 0.1889763779527559,
                    "duration": 2.7692309999999907
                },
                {
                    "name": "C5",
                    "midi": 72,
                    "time": 319.8461804999999,
                    "velocity": 0.2125984251968504,
                    "duration": 2.7692309999999907
                },
                {
                    "name": "C4",
                    "midi": 60,
                    "time": 319.8461804999999,
                    "velocity": 0.1889763779527559,
                    "duration": 2.7692309999999907
                },
                {
                    "name": "A#4",
                    "midi": 70,
                    "time": 322.6154114999999,
                    "velocity": 0.3464566929133858,
                    "duration": 0.7115385208333578
                },
                {
                    "name": "A#3",
                    "midi": 58,
                    "time": 322.6154114999999,
                    "velocity": 0.30708661417322836,
                    "duration": 0.7115385208333578
                },
                {
                    "name": "G4",
                    "midi": 67,
                    "time": 322.6154114999999,
                    "velocity": 0.30708661417322836,
                    "duration": 0.7115385208333578
                },
                {
                    "name": "G#4",
                    "midi": 68,
                    "time": 323.3077192499999,
                    "velocity": 0.30708661417322836,
                    "duration": 0.25000002083339723
                },
                {
                    "name": "B3",
                    "midi": 59,
                    "time": 323.3077192499999,
                    "velocity": 0.30708661417322836,
                    "duration": 0.25000002083339723
                },
                {
                    "name": "B4",
                    "midi": 71,
                    "time": 323.3077192499999,
                    "velocity": 0.3464566929133858,
                    "duration": 0.25000002083339723
                },
                {
                    "name": "A#3",
                    "midi": 58,
                    "time": 323.5384884999999,
                    "velocity": 0.30708661417322836,
                    "duration": 0.4615385000000174
                },
                {
                    "name": "G4",
                    "midi": 67,
                    "time": 323.5384884999999,
                    "velocity": 0.30708661417322836,
                    "duration": 0.4615385000000174
                },
                {
                    "name": "A#4",
                    "midi": 70,
                    "time": 323.5384884999999,
                    "velocity": 0.3464566929133858,
                    "duration": 0.4615385000000174
                },
                {
                    "name": "A#3",
                    "midi": 58,
                    "time": 324.00002699999993,
                    "velocity": 0.30708661417322836,
                    "duration": 0.7115385208333578
                },
                {
                    "name": "A#4",
                    "midi": 70,
                    "time": 324.00002699999993,
                    "velocity": 0.3464566929133858,
                    "duration": 0.7115385208333578
                },
                {
                    "name": "G4",
                    "midi": 67,
                    "time": 324.00002699999993,
                    "velocity": 0.30708661417322836,
                    "duration": 0.7115385208333578
                },
                {
                    "name": "B4",
                    "midi": 71,
                    "time": 324.69233474999993,
                    "velocity": 0.3464566929133858,
                    "duration": 0.25000002083339723
                },
                {
                    "name": "B3",
                    "midi": 59,
                    "time": 324.69233474999993,
                    "velocity": 0.30708661417322836,
                    "duration": 0.25000002083339723
                },
                {
                    "name": "G#4",
                    "midi": 68,
                    "time": 324.69233474999993,
                    "velocity": 0.30708661417322836,
                    "duration": 0.25000002083339723
                },
                {
                    "name": "G4",
                    "midi": 67,
                    "time": 324.92310399999997,
                    "velocity": 0.30708661417322836,
                    "duration": 0.4615385000000174
                },
                {
                    "name": "A#3",
                    "midi": 58,
                    "time": 324.92310399999997,
                    "velocity": 0.30708661417322836,
                    "duration": 0.4615385000000174
                },
                {
                    "name": "A#4",
                    "midi": 70,
                    "time": 324.92310399999997,
                    "velocity": 0.3464566929133858,
                    "duration": 0.4615385000000174
                },
                {
                    "name": "G#4",
                    "midi": 68,
                    "time": 325.3846425,
                    "velocity": 0.48031496062992124,
                    "duration": 1.3846154999999953
                },
                {
                    "name": "B4",
                    "midi": 71,
                    "time": 325.3846425,
                    "velocity": 0.5354330708661418,
                    "duration": 1.3846154999999953
                },
                {
                    "name": "F4",
                    "midi": 65,
                    "time": 325.3846425,
                    "velocity": 0.48031496062992124,
                    "duration": 1.3846154999999953
                },
                {
                    "name": "G#4",
                    "midi": 68,
                    "time": 326.769258,
                    "velocity": 0.4881889763779528,
                    "duration": 0.9230769999999779
                },
                {
                    "name": "F5",
                    "midi": 77,
                    "time": 326.769258,
                    "velocity": 0.5433070866141733,
                    "duration": 1.1538462499999582
                },
                {
                    "name": "B4",
                    "midi": 71,
                    "time": 326.769258,
                    "velocity": 0.4881889763779528,
                    "duration": 0.9230769999999779
                },
                {
                    "name": "D#5",
                    "midi": 75,
                    "time": 327.92310424999994,
                    "velocity": 0.33070866141732286,
                    "duration": 0.23076924999998027
                },
                {
                    "name": "G#4",
                    "midi": 68,
                    "time": 328.1538734999999,
                    "velocity": 0.2992125984251969,
                    "duration": 1.3846154999999953
                },
                {
                    "name": "B4",
                    "midi": 71,
                    "time": 328.1538734999999,
                    "velocity": 0.2992125984251969,
                    "duration": 1.3846154999999953
                },
                {
                    "name": "D#5",
                    "midi": 75,
                    "time": 328.1538734999999,
                    "velocity": 0.33070866141732286,
                    "duration": 1.8461540000000127
                },
                {
                    "name": "G4",
                    "midi": 67,
                    "time": 329.5384889999999,
                    "velocity": 0.1968503937007874,
                    "duration": 0.4615385000000174
                },
                {
                    "name": "A#4",
                    "midi": 70,
                    "time": 329.5384889999999,
                    "velocity": 0.2204724409448819,
                    "duration": 0.4615385000000174
                },
                {
                    "name": "D#5",
                    "midi": 75,
                    "time": 330.9231044999999,
                    "velocity": 0.2755905511811024,
                    "duration": 0.7115385208333578
                },
                {
                    "name": "A4",
                    "midi": 69,
                    "time": 330.9231044999999,
                    "velocity": 0.23622047244094488,
                    "duration": 0.9230770000000348
                },
                {
                    "name": "C4",
                    "midi": 60,
                    "time": 330.9231044999999,
                    "velocity": 0.23622047244094488,
                    "duration": 0.9230770000000348
                },
                {
                    "name": "F#4",
                    "midi": 66,
                    "time": 330.9231044999999,
                    "velocity": 0.23622047244094488,
                    "duration": 0.9230770000000348
                },
                {
                    "name": "F5",
                    "midi": 77,
                    "time": 331.6154122499999,
                    "velocity": 0.2755905511811024,
                    "duration": 0.25000002083339723
                },
                {
                    "name": "F#4",
                    "midi": 66,
                    "time": 331.84618149999994,
                    "velocity": 0.23622047244094488,
                    "duration": 0.4615385000000174
                },
                {
                    "name": "D#5",
                    "midi": 75,
                    "time": 331.84618149999994,
                    "velocity": 0.2755905511811024,
                    "duration": 0.4615385000000174
                },
                {
                    "name": "C4",
                    "midi": 60,
                    "time": 331.84618149999994,
                    "velocity": 0.23622047244094488,
                    "duration": 0.4615385000000174
                },
                {
                    "name": "A4",
                    "midi": 69,
                    "time": 331.84618149999994,
                    "velocity": 0.23622047244094488,
                    "duration": 0.4615385000000174
                },
                {
                    "name": "D#5",
                    "midi": 75,
                    "time": 332.30771999999996,
                    "velocity": 0.2755905511811024,
                    "duration": 0.9230769999999779
                },
                {
                    "name": "C#4",
                    "midi": 61,
                    "time": 332.30771999999996,
                    "velocity": 0.23622047244094488,
                    "duration": 1.8461540000000127
                },
                {
                    "name": "G#4",
                    "midi": 68,
                    "time": 332.30771999999996,
                    "velocity": 0.23622047244094488,
                    "duration": 0.9230769999999779
                },
                {
                    "name": "F#4",
                    "midi": 66,
                    "time": 332.30771999999996,
                    "velocity": 0.23622047244094488,
                    "duration": 1.3846154999999953
                },
                {
                    "name": "C5",
                    "midi": 72,
                    "time": 333.23079699999994,
                    "velocity": 0.2755905511811024,
                    "duration": 0.4615385000000174
                },
                {
                    "name": "G#4",
                    "midi": 68,
                    "time": 333.69233549999996,
                    "velocity": 0.23622047244094488,
                    "duration": 0.4615385000000174
                },
                {
                    "name": "F4",
                    "midi": 65,
                    "time": 333.69233549999996,
                    "velocity": 0.23622047244094488,
                    "duration": 0.4615385000000174
                },
                {
                    "name": "C#5",
                    "midi": 73,
                    "time": 333.69233549999996,
                    "velocity": 0.2755905511811024,
                    "duration": 0.4615385000000174
                },
                {
                    "name": "D#5",
                    "midi": 75,
                    "time": 335.07695099999995,
                    "velocity": 0.5354330708661418,
                    "duration": 0.9230770000000348
                },
                {
                    "name": "C5",
                    "midi": 72,
                    "time": 335.07695099999995,
                    "velocity": 0.5354330708661418,
                    "duration": 0.9230770000000348
                },
                {
                    "name": "G#5",
                    "midi": 80,
                    "time": 335.07695099999995,
                    "velocity": 0.6062992125984252,
                    "duration": 0.7115385208333578
                },
                {
                    "name": "A#5",
                    "midi": 82,
                    "time": 335.76925874999995,
                    "velocity": 0.6062992125984252,
                    "duration": 0.25000002083339723
                },
                {
                    "name": "C5",
                    "midi": 72,
                    "time": 336.000028,
                    "velocity": 0.5354330708661418,
                    "duration": 0.4615385000000174
                },
                {
                    "name": "G#5",
                    "midi": 80,
                    "time": 336.000028,
                    "velocity": 0.6062992125984252,
                    "duration": 0.4615385000000174
                },
                {
                    "name": "D#5",
                    "midi": 75,
                    "time": 336.000028,
                    "velocity": 0.5354330708661418,
                    "duration": 0.4615385000000174
                },
                {
                    "name": "A#5",
                    "midi": 82,
                    "time": 336.4615665,
                    "velocity": 0.6062992125984252,
                    "duration": 0.7115385208333578
                },
                {
                    "name": "C#5",
                    "midi": 73,
                    "time": 336.4615665,
                    "velocity": 0.5354330708661418,
                    "duration": 0.9230770000000348
                },
                {
                    "name": "G#5",
                    "midi": 80,
                    "time": 337.15387425,
                    "velocity": 0.6062992125984252,
                    "duration": 0.23076925000003712
                },
                {
                    "name": "G#5",
                    "midi": 80,
                    "time": 337.38464350000004,
                    "velocity": 0.6062992125984252,
                    "duration": 0.11538462499999014
                },
                {
                    "name": "C#5",
                    "midi": 73,
                    "time": 337.38464350000004,
                    "velocity": 0.5354330708661418,
                    "duration": 0.46153849999996055
                },
                {
                    "name": "G#5",
                    "midi": 80,
                    "time": 337.61541275,
                    "velocity": 0.6062992125984252,
                    "duration": 0.23076924999998027
                },
                {
                    "name": "G#5",
                    "midi": 80,
                    "time": 337.846182,
                    "velocity": 0.6377952755905512,
                    "duration": 1.3846154999999385
                },
                {
                    "name": "C#6",
                    "midi": 85,
                    "time": 337.846182,
                    "velocity": 0.7165354330708661,
                    "duration": 0.9230769999999779
                },
                {
                    "name": "C#5",
                    "midi": 73,
                    "time": 337.846182,
                    "velocity": 0.6377952755905512,
                    "duration": 1.3846154999999385
                },
                {
                    "name": "C6",
                    "midi": 84,
                    "time": 338.769259,
                    "velocity": 0.6062992125984252,
                    "duration": 0.23076924999998027
                },
                {
                    "name": "C6",
                    "midi": 84,
                    "time": 339.00002824999996,
                    "velocity": 0.44881889763779526,
                    "duration": 0.23076924999998027
                },
                {
                    "name": "A#5",
                    "midi": 82,
                    "time": 339.23079749999994,
                    "velocity": 0.44881889763779526,
                    "duration": 1.153846250000015
                },
                {
                    "name": "G5",
                    "midi": 79,
                    "time": 339.23079749999994,
                    "velocity": 0.4015748031496063,
                    "duration": 1.153846250000015
                },
                {
                    "name": "C#5",
                    "midi": 73,
                    "time": 339.23079749999994,
                    "velocity": 0.4015748031496063,
                    "duration": 1.153846250000015
                },
                {
                    "name": "G#5",
                    "midi": 80,
                    "time": 340.38464374999995,
                    "velocity": 0.3937007874015748,
                    "duration": 0.23076924999998027
                },
                {
                    "name": "C5",
                    "midi": 72,
                    "time": 340.38464374999995,
                    "velocity": 0.3543307086614173,
                    "duration": 0.23076924999998027
                },
                {
                    "name": "G#5",
                    "midi": 80,
                    "time": 340.61541299999993,
                    "velocity": 0.3937007874015748,
                    "duration": 1.3846154999999953
                },
                {
                    "name": "C5",
                    "midi": 72,
                    "time": 340.61541299999993,
                    "velocity": 0.29133858267716534,
                    "duration": 1.3846154999999953
                },
                {
                    "name": "C4",
                    "midi": 60,
                    "time": 343.15387474999994,
                    "velocity": 0.23622047244094488,
                    "duration": 0.23076924999998027
                },
                {
                    "name": "C5",
                    "midi": 72,
                    "time": 343.15387474999994,
                    "velocity": 0.2755905511811024,
                    "duration": 0.23076924999998027
                },
                {
                    "name": "G#4",
                    "midi": 68,
                    "time": 343.15387474999994,
                    "velocity": 0.23622047244094488,
                    "duration": 0.23076924999998027
                },
                {
                    "name": "G#4",
                    "midi": 68,
                    "time": 343.3846439999999,
                    "velocity": 0.23622047244094488,
                    "duration": 0.7115385208333578
                },
                {
                    "name": "C4",
                    "midi": 60,
                    "time": 343.3846439999999,
                    "velocity": 0.23622047244094488,
                    "duration": 0.7115385208333578
                },
                {
                    "name": "C5",
                    "midi": 72,
                    "time": 343.3846439999999,
                    "velocity": 0.2755905511811024,
                    "duration": 0.7115385208333578
                },
                {
                    "name": "G4",
                    "midi": 67,
                    "time": 344.0769517499999,
                    "velocity": 0.23622047244094488,
                    "duration": 0.25000002083339723
                },
                {
                    "name": "C#4",
                    "midi": 61,
                    "time": 344.0769517499999,
                    "velocity": 0.23622047244094488,
                    "duration": 0.25000002083339723
                },
                {
                    "name": "C#5",
                    "midi": 73,
                    "time": 344.0769517499999,
                    "velocity": 0.2755905511811024,
                    "duration": 0.25000002083339723
                },
                {
                    "name": "G#4",
                    "midi": 68,
                    "time": 344.30772099999996,
                    "velocity": 0.23622047244094488,
                    "duration": 0.4615385000000174
                },
                {
                    "name": "C5",
                    "midi": 72,
                    "time": 344.30772099999996,
                    "velocity": 0.2755905511811024,
                    "duration": 0.4615385000000174
                },
                {
                    "name": "C4",
                    "midi": 60,
                    "time": 344.30772099999996,
                    "velocity": 0.23622047244094488,
                    "duration": 0.4615385000000174
                },
                {
                    "name": "C#5",
                    "midi": 73,
                    "time": 344.7692595,
                    "velocity": 0.23622047244094488,
                    "duration": 2.5384617500000104
                },
                {
                    "name": "C#4",
                    "midi": 61,
                    "time": 344.7692595,
                    "velocity": 0.2125984251968504,
                    "duration": 2.5384617500000104
                },
                {
                    "name": "G4",
                    "midi": 67,
                    "time": 344.7692595,
                    "velocity": 0.2125984251968504,
                    "duration": 2.5384617500000104
                },
                {
                    "name": "A#4",
                    "midi": 70,
                    "time": 347.30772125,
                    "velocity": 0.2755905511811024,
                    "duration": 0.23076924999998027
                },
                {
                    "name": "A#3",
                    "midi": 58,
                    "time": 347.30772125,
                    "velocity": 0.23622047244094488,
                    "duration": 0.23076924999998027
                },
                {
                    "name": "G4",
                    "midi": 67,
                    "time": 347.30772125,
                    "velocity": 0.23622047244094488,
                    "duration": 0.23076924999998027
                },
                {
                    "name": "A#3",
                    "midi": 58,
                    "time": 347.53849049999997,
                    "velocity": 0.23622047244094488,
                    "duration": 0.7115385208333578
                },
                {
                    "name": "G4",
                    "midi": 67,
                    "time": 347.53849049999997,
                    "velocity": 0.23622047244094488,
                    "duration": 0.7115385208333578
                },
                {
                    "name": "A#4",
                    "midi": 70,
                    "time": 347.53849049999997,
                    "velocity": 0.2755905511811024,
                    "duration": 0.7115385208333578
                },
                {
                    "name": "C4",
                    "midi": 60,
                    "time": 348.23079824999996,
                    "velocity": 0.23622047244094488,
                    "duration": 0.25000002083339723
                },
                {
                    "name": "C5",
                    "midi": 72,
                    "time": 348.23079824999996,
                    "velocity": 0.2755905511811024,
                    "duration": 0.25000002083339723
                },
                {
                    "name": "G#4",
                    "midi": 68,
                    "time": 348.23079824999996,
                    "velocity": 0.23622047244094488,
                    "duration": 0.25000002083339723
                },
                {
                    "name": "G4",
                    "midi": 67,
                    "time": 348.4615675,
                    "velocity": 0.23622047244094488,
                    "duration": 0.4615385000000174
                },
                {
                    "name": "A#3",
                    "midi": 58,
                    "time": 348.4615675,
                    "velocity": 0.23622047244094488,
                    "duration": 0.4615385000000174
                },
                {
                    "name": "A#4",
                    "midi": 70,
                    "time": 348.4615675,
                    "velocity": 0.2755905511811024,
                    "duration": 0.4615385000000174
                },
                {
                    "name": "G#4",
                    "midi": 68,
                    "time": 348.923106,
                    "velocity": 0.2125984251968504,
                    "duration": 2.5384617500000104
                },
                {
                    "name": "C4",
                    "midi": 60,
                    "time": 348.923106,
                    "velocity": 0.2125984251968504,
                    "duration": 2.5384617500000104
                },
                {
                    "name": "C5",
                    "midi": 72,
                    "time": 348.923106,
                    "velocity": 0.23622047244094488,
                    "duration": 2.5384617500000104
                },
                {
                    "name": "D#4",
                    "midi": 63,
                    "time": 351.46156775000003,
                    "velocity": 0.2755905511811024,
                    "duration": 0.23076924999998027
                },
                {
                    "name": "D#4",
                    "midi": 63,
                    "time": 351.692337,
                    "velocity": 0.2755905511811024,
                    "duration": 0.7115385208333578
                },
                {
                    "name": "F4",
                    "midi": 65,
                    "time": 352.38464475,
                    "velocity": 0.33070866141732286,
                    "duration": 0.25000002083339723
                },
                {
                    "name": "D#4",
                    "midi": 63,
                    "time": 352.61541400000004,
                    "velocity": 0.3464566929133858,
                    "duration": 0.4615385000000174
                },
                {
                    "name": "F4",
                    "midi": 65,
                    "time": 353.07695250000006,
                    "velocity": 0.3543307086614173,
                    "duration": 0.7115385208333578
                },
                {
                    "name": "D#4",
                    "midi": 63,
                    "time": 353.76926025000006,
                    "velocity": 0.3464566929133858,
                    "duration": 0.23076925000003712
                },
                {
                    "name": "D#4",
                    "midi": 63,
                    "time": 354.0000295000001,
                    "velocity": 0.3464566929133858,
                    "duration": 0.4615385000000174
                },
                {
                    "name": "G#4",
                    "midi": 68,
                    "time": 354.4615680000001,
                    "velocity": 0.3464566929133858,
                    "duration": 1.3846154999999953
                },
                {
                    "name": "C4",
                    "midi": 60,
                    "time": 354.4615680000001,
                    "velocity": 0.30708661417322836,
                    "duration": 1.3846154999999953
                },
                {
                    "name": "C#4",
                    "midi": 61,
                    "time": 355.8461835000001,
                    "velocity": 0.30708661417322836,
                    "duration": 1.153846250000015
                },
                {
                    "name": "G4",
                    "midi": 67,
                    "time": 355.8461835000001,
                    "velocity": 0.30708661417322836,
                    "duration": 1.153846250000015
                },
                {
                    "name": "A#4",
                    "midi": 70,
                    "time": 355.8461835000001,
                    "velocity": 0.3464566929133858,
                    "duration": 1.153846250000015
                },
                {
                    "name": "C4",
                    "midi": 60,
                    "time": 357.0000297500001,
                    "velocity": 0.23622047244094488,
                    "duration": 0.23076924999998027
                },
                {
                    "name": "G#4",
                    "midi": 68,
                    "time": 357.0000297500001,
                    "velocity": 0.2755905511811024,
                    "duration": 0.23076924999998027
                },
                {
                    "name": "G#4",
                    "midi": 68,
                    "time": 357.2307990000001,
                    "velocity": 0.2755905511811024,
                    "duration": 1.3846154999999953
                },
                {
                    "name": "C4",
                    "midi": 60,
                    "time": 357.2307990000001,
                    "velocity": 0.23622047244094488,
                    "duration": 1.3846154999999953
                },
                {
                    "name": "D#5",
                    "midi": 75,
                    "time": 358.3846452500001,
                    "velocity": 0.2283464566929134,
                    "duration": 0.23076924999998027
                },
                {
                    "name": "D#5",
                    "midi": 75,
                    "time": 358.6154145000001,
                    "velocity": 0.2283464566929134,
                    "duration": 3.9230772500000626
                },
                {
                    "name": "D#4",
                    "midi": 63,
                    "time": 359.7692607500001,
                    "velocity": 0.23622047244094488,
                    "duration": 0.23076924999998027
                },
                {
                    "name": "G#4",
                    "midi": 68,
                    "time": 359.7692607500001,
                    "velocity": 0.2755905511811024,
                    "duration": 0.23076924999998027
                },
                {
                    "name": "G#4",
                    "midi": 68,
                    "time": 360.0000300000001,
                    "velocity": 0.2755905511811024,
                    "duration": 0.7115385208333578
                },
                {
                    "name": "D#4",
                    "midi": 63,
                    "time": 360.0000300000001,
                    "velocity": 0.23622047244094488,
                    "duration": 0.7115385208333578
                },
                {
                    "name": "A#4",
                    "midi": 70,
                    "time": 360.6923377500001,
                    "velocity": 0.2755905511811024,
                    "duration": 0.25000002083339723
                },
                {
                    "name": "F4",
                    "midi": 65,
                    "time": 360.6923377500001,
                    "velocity": 0.23622047244094488,
                    "duration": 0.25000002083339723
                },
                {
                    "name": "D#4",
                    "midi": 63,
                    "time": 360.92310700000013,
                    "velocity": 0.23622047244094488,
                    "duration": 0.4615385000000174
                },
                {
                    "name": "G#4",
                    "midi": 68,
                    "time": 360.92310700000013,
                    "velocity": 0.2755905511811024,
                    "duration": 0.4615385000000174
                },
                {
                    "name": "F4",
                    "midi": 65,
                    "time": 361.38464550000015,
                    "velocity": 0.2125984251968504,
                    "duration": 2.5384617500000104
                },
                {
                    "name": "A#4",
                    "midi": 70,
                    "time": 361.38464550000015,
                    "velocity": 0.23622047244094488,
                    "duration": 2.5384617500000104
                },
                {
                    "name": "D#5",
                    "midi": 75,
                    "time": 362.53849175000016,
                    "velocity": 0.2125984251968504,
                    "duration": 0.23076924999998027
                },
                {
                    "name": "D#5",
                    "midi": 75,
                    "time": 362.76926100000014,
                    "velocity": 0.2125984251968504,
                    "duration": 3.9230772500000626
                },
                {
                    "name": "C#4",
                    "midi": 61,
                    "time": 363.92310725000016,
                    "velocity": 0.23622047244094488,
                    "duration": 0.23076924999998027
                },
                {
                    "name": "G4",
                    "midi": 67,
                    "time": 363.92310725000016,
                    "velocity": 0.2755905511811024,
                    "duration": 0.23076924999998027
                },
                {
                    "name": "G4",
                    "midi": 67,
                    "time": 364.15387650000014,
                    "velocity": 0.2755905511811024,
                    "duration": 0.7115385208333578
                },
                {
                    "name": "C#4",
                    "midi": 61,
                    "time": 364.15387650000014,
                    "velocity": 0.23622047244094488,
                    "duration": 0.7115385208333578
                },
                {
                    "name": "D#4",
                    "midi": 63,
                    "time": 364.84618425000014,
                    "velocity": 0.23622047244094488,
                    "duration": 0.25000002083339723
                },
                {
                    "name": "G#4",
                    "midi": 68,
                    "time": 364.84618425000014,
                    "velocity": 0.2755905511811024,
                    "duration": 0.25000002083339723
                },
                {
                    "name": "A#4",
                    "midi": 70,
                    "time": 365.0769535000002,
                    "velocity": 0.2755905511811024,
                    "duration": 0.4615385000000174
                },
                {
                    "name": "F4",
                    "midi": 65,
                    "time": 365.0769535000002,
                    "velocity": 0.23622047244094488,
                    "duration": 0.4615385000000174
                },
                {
                    "name": "G#4",
                    "midi": 68,
                    "time": 365.5384920000002,
                    "velocity": 0.23622047244094488,
                    "duration": 2.5384617500000104
                },
                {
                    "name": "D#4",
                    "midi": 63,
                    "time": 365.5384920000002,
                    "velocity": 0.2125984251968504,
                    "duration": 2.5384617500000104
                },
                {
                    "name": "D#5",
                    "midi": 75,
                    "time": 366.6923382500002,
                    "velocity": 0.2125984251968504,
                    "duration": 0.23076924999998027
                },
                {
                    "name": "D#5",
                    "midi": 75,
                    "time": 366.9231075000002,
                    "velocity": 0.2125984251968504,
                    "duration": 4.1538465000001
                },
                {
                    "name": "D#4",
                    "midi": 63,
                    "time": 368.0769537500002,
                    "velocity": 0.2755905511811024,
                    "duration": 0.23076924999998027
                },
                {
                    "name": "D#4",
                    "midi": 63,
                    "time": 368.3077230000002,
                    "velocity": 0.2755905511811024,
                    "duration": 0.7115385208333578
                },
                {
                    "name": "F4",
                    "midi": 65,
                    "time": 369.0000307500002,
                    "velocity": 0.33070866141732286,
                    "duration": 0.25000002083339723
                },
                {
                    "name": "D#4",
                    "midi": 63,
                    "time": 369.2308000000002,
                    "velocity": 0.3464566929133858,
                    "duration": 0.4615385000000174
                },
                {
                    "name": "G#4",
                    "midi": 68,
                    "time": 369.69233850000023,
                    "velocity": 0.3543307086614173,
                    "duration": 0.7115385208333578
                },
                {
                    "name": "F4",
                    "midi": 65,
                    "time": 369.69233850000023,
                    "velocity": 0.30708661417322836,
                    "duration": 0.7115385208333578
                },
                {
                    "name": "D#4",
                    "midi": 63,
                    "time": 370.38464625000023,
                    "velocity": 0.3464566929133858,
                    "duration": 0.23076925000003712
                },
                {
                    "name": "D#4",
                    "midi": 63,
                    "time": 370.61541550000027,
                    "velocity": 0.3464566929133858,
                    "duration": 0.4615385000000174
                },
                {
                    "name": "C5",
                    "midi": 72,
                    "time": 371.0769540000003,
                    "velocity": 0.4645669291338583,
                    "duration": 1.3846154999999953
                },
                {
                    "name": "D#5",
                    "midi": 75,
                    "time": 371.0769540000003,
                    "velocity": 0.5275590551181102,
                    "duration": 1.3846154999999953
                },
                {
                    "name": "D#5",
                    "midi": 75,
                    "time": 372.4615695000003,
                    "velocity": 0.49606299212598426,
                    "duration": 1.153846250000015
                },
                {
                    "name": "A#4",
                    "midi": 70,
                    "time": 372.4615695000003,
                    "velocity": 0.49606299212598426,
                    "duration": 1.153846250000015
                },
                {
                    "name": "G5",
                    "midi": 79,
                    "time": 372.4615695000003,
                    "velocity": 0.5590551181102362,
                    "duration": 1.153846250000015
                },
                {
                    "name": "G#5",
                    "midi": 80,
                    "time": 373.6154157500003,
                    "velocity": 0.6062992125984252,
                    "duration": 0.23076924999998027
                },
                {
                    "name": "D#5",
                    "midi": 75,
                    "time": 373.6154157500003,
                    "velocity": 0.5354330708661418,
                    "duration": 0.23076924999998027
                },
                {
                    "name": "G#4",
                    "midi": 68,
                    "time": 373.6154157500003,
                    "velocity": 0.5354330708661418,
                    "duration": 0.23076924999998027
                },
                {
                    "name": "G#5",
                    "midi": 80,
                    "time": 373.8461850000003,
                    "velocity": 0.6062992125984252,
                    "duration": 4.153846499999986
                },
                {
                    "name": "G#4",
                    "midi": 68,
                    "time": 373.8461850000003,
                    "velocity": 0.5354330708661418,
                    "duration": 4.153846499999986
                },
                {
                    "name": "D#5",
                    "midi": 75,
                    "time": 373.8461850000003,
                    "velocity": 0.5354330708661418,
                    "duration": 4.153846499999986
                }
            ],
            "controlChanges": {
                "7": [
                    {
                        "number": 7,
                        "time": 0,
                        "value": 0.7874015748031497
                    }
                ],
                "10": [
                    {
                        "number": 10,
                        "time": 0,
                        "value": 0.5039370078740157
                    }
                ],
                "91": [
                    {
                        "number": 91,
                        "time": 0,
                        "value": 1
                    },
                    {
                        "number": 91,
                        "time": 2.7692309999999996,
                        "value": 1
                    },
                    {
                        "number": 91,
                        "time": 74.76923699999996,
                        "value": 1
                    },
                    {
                        "number": 91,
                        "time": 99.69231600000002,
                        "value": 1
                    },
                    {
                        "number": 91,
                        "time": 148.15385849999993,
                        "value": 1
                    },
                    {
                        "number": 91,
                        "time": 232.6154039999996,
                        "value": 1
                    },
                    {
                        "number": 91,
                        "time": 257.5384829999996,
                        "value": 1
                    },
                    {
                        "number": 91,
                        "time": 306.0000254999997,
                        "value": 1
                    }
                ]
            },
            "id": 1,
            "name": "Piano right",
            "instrumentNumber": 0,
            "instrument": "acoustic grand piano",
            "instrumentFamily": "piano",
            "channelNumber": 0,
            "isPercussion": false
        },
        {
            "startTime": 2.769231,
            "duration": 378.0000315000018,
            "length": 781,
            "notes": [
                {
                    "name": "G#2",
                    "midi": 44,
                    "time": 2.769231,
                    "velocity": 0.25984251968503935,
                    "duration": 0.7115385208333334
                },
                {
                    "name": "D#3",
                    "midi": 51,
                    "time": 2.769231,
                    "velocity": 0.30708661417322836,
                    "duration": 0.6923077499999999
                },
                {
                    "name": "A#2",
                    "midi": 46,
                    "time": 3.46153875,
                    "velocity": 0.25984251968503935,
                    "duration": 0.2500000208333337
                },
                {
                    "name": "D#3",
                    "midi": 51,
                    "time": 3.46153875,
                    "velocity": 0.30708661417322836,
                    "duration": 0.23076925000000026
                },
                {
                    "name": "G#2",
                    "midi": 44,
                    "time": 3.692308,
                    "velocity": 0.25984251968503935,
                    "duration": 0.4615385000000001
                },
                {
                    "name": "D#3",
                    "midi": 51,
                    "time": 3.692308,
                    "velocity": 0.30708661417322836,
                    "duration": 0.4615385000000001
                },
                {
                    "name": "D#3",
                    "midi": 51,
                    "time": 4.1538465,
                    "velocity": 0.25984251968503935,
                    "duration": 2.7692309999999996
                },
                {
                    "name": "A#2",
                    "midi": 46,
                    "time": 4.1538465,
                    "velocity": 0.2125984251968504,
                    "duration": 2.7692309999999996
                },
                {
                    "name": "G#2",
                    "midi": 44,
                    "time": 6.9230775,
                    "velocity": 0.25984251968503935,
                    "duration": 0.7115385208333329
                },
                {
                    "name": "D#3",
                    "midi": 51,
                    "time": 6.9230775,
                    "velocity": 0.30708661417322836,
                    "duration": 0.6923077499999994
                },
                {
                    "name": "D#3",
                    "midi": 51,
                    "time": 7.615385249999999,
                    "velocity": 0.30708661417322836,
                    "duration": 0.23076924999999981
                },
                {
                    "name": "A#2",
                    "midi": 46,
                    "time": 7.615385249999999,
                    "velocity": 0.25984251968503935,
                    "duration": 0.2500000208333333
                },
                {
                    "name": "G#2",
                    "midi": 44,
                    "time": 7.846154499999999,
                    "velocity": 0.25984251968503935,
                    "duration": 0.46153849999999963
                },
                {
                    "name": "D#3",
                    "midi": 51,
                    "time": 7.846154499999999,
                    "velocity": 0.30708661417322836,
                    "duration": 0.46153849999999963
                },
                {
                    "name": "D#3",
                    "midi": 51,
                    "time": 8.307692999999999,
                    "velocity": 0.25984251968503935,
                    "duration": 2.7692309999999996
                },
                {
                    "name": "D#2",
                    "midi": 39,
                    "time": 8.307692999999999,
                    "velocity": 0.2125984251968504,
                    "duration": 2.7692309999999996
                },
                {
                    "name": "G#2",
                    "midi": 44,
                    "time": 11.076923999999998,
                    "velocity": 0.25984251968503935,
                    "duration": 0.7115385208333329
                },
                {
                    "name": "D#3",
                    "midi": 51,
                    "time": 11.076923999999998,
                    "velocity": 0.30708661417322836,
                    "duration": 0.6923077499999994
                },
                {
                    "name": "A#2",
                    "midi": 46,
                    "time": 11.769231749999998,
                    "velocity": 0.25984251968503935,
                    "duration": 0.2500000208333333
                },
                {
                    "name": "D#3",
                    "midi": 51,
                    "time": 11.769231749999998,
                    "velocity": 0.30708661417322836,
                    "duration": 0.23076924999999981
                },
                {
                    "name": "D#3",
                    "midi": 51,
                    "time": 12.000000999999997,
                    "velocity": 0.30708661417322836,
                    "duration": 0.46153849999999963
                },
                {
                    "name": "G#2",
                    "midi": 44,
                    "time": 12.000000999999997,
                    "velocity": 0.25984251968503935,
                    "duration": 0.46153849999999963
                },
                {
                    "name": "G#2",
                    "midi": 44,
                    "time": 12.461539499999997,
                    "velocity": 0.2283464566929134,
                    "duration": 0.7115385208333329
                },
                {
                    "name": "D#3",
                    "midi": 51,
                    "time": 12.461539499999997,
                    "velocity": 0.2755905511811024,
                    "duration": 0.6923077499999994
                },
                {
                    "name": "D#3",
                    "midi": 51,
                    "time": 13.153847249999997,
                    "velocity": 0.31496062992125984,
                    "duration": 0.23076924999999981
                },
                {
                    "name": "A#2",
                    "midi": 46,
                    "time": 13.153847249999997,
                    "velocity": 0.2677165354330709,
                    "duration": 0.2500000208333333
                },
                {
                    "name": "G#2",
                    "midi": 44,
                    "time": 13.384616499999996,
                    "velocity": 0.28346456692913385,
                    "duration": 0.46153849999999963
                },
                {
                    "name": "D#3",
                    "midi": 51,
                    "time": 13.384616499999996,
                    "velocity": 0.3464566929133858,
                    "duration": 0.46153849999999963
                },
                {
                    "name": "D#3",
                    "midi": 51,
                    "time": 13.846154999999996,
                    "velocity": 0.3858267716535433,
                    "duration": 1.3846154999999989
                },
                {
                    "name": "C3",
                    "midi": 48,
                    "time": 13.846154999999996,
                    "velocity": 0.3228346456692913,
                    "duration": 1.3846154999999989
                },
                {
                    "name": "A#2",
                    "midi": 46,
                    "time": 15.230770499999995,
                    "velocity": 0.2125984251968504,
                    "duration": 1.1538462500000009
                },
                {
                    "name": "D#3",
                    "midi": 51,
                    "time": 15.230770499999995,
                    "velocity": 0.25984251968503935,
                    "duration": 1.1538462500000009
                },
                {
                    "name": "G#2",
                    "midi": 44,
                    "time": 16.384616749999996,
                    "velocity": 0.1968503937007874,
                    "duration": 0.2307692500000016
                },
                {
                    "name": "D#3",
                    "midi": 51,
                    "time": 16.384616749999996,
                    "velocity": 0.2283464566929134,
                    "duration": 0.2307692500000016
                },
                {
                    "name": "D#3",
                    "midi": 51,
                    "time": 16.615385999999997,
                    "velocity": 0.2283464566929134,
                    "duration": 2.7692310000000013
                },
                {
                    "name": "G#2",
                    "midi": 44,
                    "time": 16.615385999999997,
                    "velocity": 0.1968503937007874,
                    "duration": 2.7692310000000013
                },
                {
                    "name": "D#2",
                    "midi": 39,
                    "time": 19.384617,
                    "velocity": 0.2125984251968504,
                    "duration": 0.7115385208333329
                },
                {
                    "name": "D#3",
                    "midi": 51,
                    "time": 19.384617,
                    "velocity": 0.25196850393700787,
                    "duration": 0.6923077500000012
                },
                {
                    "name": "D#3",
                    "midi": 51,
                    "time": 20.07692475,
                    "velocity": 0.25984251968503935,
                    "duration": 0.23076924999999804
                },
                {
                    "name": "G#2",
                    "midi": 44,
                    "time": 20.07692475,
                    "velocity": 0.2125984251968504,
                    "duration": 0.25000002083332973
                },
                {
                    "name": "D#2",
                    "midi": 39,
                    "time": 20.307693999999998,
                    "velocity": 0.2125984251968504,
                    "duration": 0.46153849999999963
                },
                {
                    "name": "D#3",
                    "midi": 51,
                    "time": 20.307693999999998,
                    "velocity": 0.25984251968503935,
                    "duration": 0.46153849999999963
                },
                {
                    "name": "D#3",
                    "midi": 51,
                    "time": 20.769232499999998,
                    "velocity": 0.25984251968503935,
                    "duration": 0.6923077500000012
                },
                {
                    "name": "D#2",
                    "midi": 39,
                    "time": 20.769232499999998,
                    "velocity": 0.2125984251968504,
                    "duration": 0.7115385208333329
                },
                {
                    "name": "G#2",
                    "midi": 44,
                    "time": 21.46154025,
                    "velocity": 0.2125984251968504,
                    "duration": 0.25000002083332973
                },
                {
                    "name": "D#3",
                    "midi": 51,
                    "time": 21.46154025,
                    "velocity": 0.25196850393700787,
                    "duration": 0.23076924999999804
                },
                {
                    "name": "D#2",
                    "midi": 39,
                    "time": 21.692309499999997,
                    "velocity": 0.2125984251968504,
                    "duration": 0.46153849999999963
                },
                {
                    "name": "D#3",
                    "midi": 51,
                    "time": 21.692309499999997,
                    "velocity": 0.25196850393700787,
                    "duration": 0.46153849999999963
                },
                {
                    "name": "D3",
                    "midi": 50,
                    "time": 22.153847999999996,
                    "velocity": 0.4015748031496063,
                    "duration": 2.7692309999999978
                },
                {
                    "name": "D2",
                    "midi": 38,
                    "time": 22.153847999999996,
                    "velocity": 0.3464566929133858,
                    "duration": 2.7692309999999978
                },
                {
                    "name": "D#2",
                    "midi": 39,
                    "time": 24.923078999999994,
                    "velocity": 0.16535433070866143,
                    "duration": 1.8461539999999985
                },
                {
                    "name": "D#3",
                    "midi": 51,
                    "time": 24.923078999999994,
                    "velocity": 0.2047244094488189,
                    "duration": 1.8461539999999985
                },
                {
                    "name": "D#3",
                    "midi": 51,
                    "time": 27.692309999999992,
                    "velocity": 0.30708661417322836,
                    "duration": 0.6923077500000012
                },
                {
                    "name": "D#2",
                    "midi": 39,
                    "time": 27.692309999999992,
                    "velocity": 0.25984251968503935,
                    "duration": 0.7115385208333329
                },
                {
                    "name": "G#2",
                    "midi": 44,
                    "time": 28.384617749999993,
                    "velocity": 0.25984251968503935,
                    "duration": 0.25000002083332973
                },
                {
                    "name": "D#3",
                    "midi": 51,
                    "time": 28.384617749999993,
                    "velocity": 0.30708661417322836,
                    "duration": 0.23076924999999804
                },
                {
                    "name": "D#3",
                    "midi": 51,
                    "time": 28.61538699999999,
                    "velocity": 0.30708661417322836,
                    "duration": 0.46153849999999963
                },
                {
                    "name": "D#2",
                    "midi": 39,
                    "time": 28.61538699999999,
                    "velocity": 0.25984251968503935,
                    "duration": 0.46153849999999963
                },
                {
                    "name": "D#2",
                    "midi": 39,
                    "time": 29.07692549999999,
                    "velocity": 0.25984251968503935,
                    "duration": 0.46153849999999963
                },
                {
                    "name": "D#3",
                    "midi": 51,
                    "time": 29.07692549999999,
                    "velocity": 0.30708661417322836,
                    "duration": 0.46153849999999963
                },
                {
                    "name": "D#3",
                    "midi": 51,
                    "time": 29.53846399999999,
                    "velocity": 0.36220472440944884,
                    "duration": 0.46153849999999963
                },
                {
                    "name": "F#2",
                    "midi": 42,
                    "time": 29.53846399999999,
                    "velocity": 0.2992125984251969,
                    "duration": 0.46153849999999963
                },
                {
                    "name": "B2",
                    "midi": 47,
                    "time": 30.00000249999999,
                    "velocity": 0.3779527559055118,
                    "duration": 0.46153849999999963
                },
                {
                    "name": "D#3",
                    "midi": 51,
                    "time": 30.00000249999999,
                    "velocity": 0.44881889763779526,
                    "duration": 0.46153849999999963
                },
                {
                    "name": "D#3",
                    "midi": 51,
                    "time": 30.46154099999999,
                    "velocity": 0.49606299212598426,
                    "duration": 1.3846154999999989
                },
                {
                    "name": "A#2",
                    "midi": 46,
                    "time": 30.46154099999999,
                    "velocity": 0.4251968503937008,
                    "duration": 1.3846154999999989
                },
                {
                    "name": "A#2",
                    "midi": 46,
                    "time": 31.84615649999999,
                    "velocity": 0.2440944881889764,
                    "duration": 1.1538462499999973
                },
                {
                    "name": "G#3",
                    "midi": 56,
                    "time": 31.84615649999999,
                    "velocity": 0.29133858267716534,
                    "duration": 1.1538462499999973
                },
                {
                    "name": "D#3",
                    "midi": 51,
                    "time": 33.000002749999986,
                    "velocity": 0.16535433070866143,
                    "duration": 0.2307692500000016
                },
                {
                    "name": "G3",
                    "midi": 55,
                    "time": 33.000002749999986,
                    "velocity": 0.2047244094488189,
                    "duration": 0.2307692500000016
                },
                {
                    "name": "G3",
                    "midi": 55,
                    "time": 33.23077199999999,
                    "velocity": 0.2047244094488189,
                    "duration": 2.7692309999999978
                },
                {
                    "name": "D#3",
                    "midi": 51,
                    "time": 33.23077199999999,
                    "velocity": 0.16535433070866143,
                    "duration": 2.7692309999999978
                },
                {
                    "name": "G#2",
                    "midi": 44,
                    "time": 36.000002999999985,
                    "velocity": 0.1889763779527559,
                    "duration": 0.7115385208333294
                },
                {
                    "name": "D#3",
                    "midi": 51,
                    "time": 36.000002999999985,
                    "velocity": 0.2283464566929134,
                    "duration": 0.6923077499999977
                },
                {
                    "name": "D#3",
                    "midi": 51,
                    "time": 36.69231074999998,
                    "velocity": 0.2283464566929134,
                    "duration": 0.2307692500000016
                },
                {
                    "name": "A#2",
                    "midi": 46,
                    "time": 36.69231074999998,
                    "velocity": 0.1889763779527559,
                    "duration": 0.2500000208333333
                },
                {
                    "name": "G#2",
                    "midi": 44,
                    "time": 36.923079999999985,
                    "velocity": 0.18110236220472442,
                    "duration": 0.4615384999999961
                },
                {
                    "name": "D#3",
                    "midi": 51,
                    "time": 36.923079999999985,
                    "velocity": 0.2204724409448819,
                    "duration": 0.4615384999999961
                },
                {
                    "name": "D#3",
                    "midi": 51,
                    "time": 37.38461849999998,
                    "velocity": 0.18110236220472442,
                    "duration": 2.7692309999999978
                },
                {
                    "name": "A#2",
                    "midi": 46,
                    "time": 37.38461849999998,
                    "velocity": 0.14960629921259844,
                    "duration": 2.7692309999999978
                },
                {
                    "name": "G#2",
                    "midi": 44,
                    "time": 40.15384949999998,
                    "velocity": 0.1889763779527559,
                    "duration": 0.7115385208333294
                },
                {
                    "name": "D#3",
                    "midi": 51,
                    "time": 40.15384949999998,
                    "velocity": 0.2283464566929134,
                    "duration": 0.6923077499999977
                },
                {
                    "name": "C3",
                    "midi": 48,
                    "time": 40.846157249999976,
                    "velocity": 0.1889763779527559,
                    "duration": 0.2500000208333333
                },
                {
                    "name": "D#3",
                    "midi": 51,
                    "time": 40.846157249999976,
                    "velocity": 0.2283464566929134,
                    "duration": 0.2307692500000016
                },
                {
                    "name": "D#3",
                    "midi": 51,
                    "time": 41.07692649999998,
                    "velocity": 0.2283464566929134,
                    "duration": 0.4615384999999961
                },
                {
                    "name": "G#2",
                    "midi": 44,
                    "time": 41.07692649999998,
                    "velocity": 0.1889763779527559,
                    "duration": 0.4615384999999961
                },
                {
                    "name": "D#2",
                    "midi": 39,
                    "time": 41.538464999999974,
                    "velocity": 0.14960629921259844,
                    "duration": 2.7692309999999978
                },
                {
                    "name": "D#3",
                    "midi": 51,
                    "time": 41.538464999999974,
                    "velocity": 0.18110236220472442,
                    "duration": 2.7692309999999978
                },
                {
                    "name": "D#3",
                    "midi": 51,
                    "time": 44.30769599999997,
                    "velocity": 0.2204724409448819,
                    "duration": 0.6923077499999977
                },
                {
                    "name": "G#2",
                    "midi": 44,
                    "time": 44.30769599999997,
                    "velocity": 0.18110236220472442,
                    "duration": 0.7115385208333294
                },
                {
                    "name": "A#2",
                    "midi": 46,
                    "time": 45.00000374999997,
                    "velocity": 0.1889763779527559,
                    "duration": 0.2500000208333333
                },
                {
                    "name": "D#3",
                    "midi": 51,
                    "time": 45.00000374999997,
                    "velocity": 0.2283464566929134,
                    "duration": 0.2307692500000016
                },
                {
                    "name": "D#3",
                    "midi": 51,
                    "time": 45.23077299999997,
                    "velocity": 0.2283464566929134,
                    "duration": 0.4615384999999961
                },
                {
                    "name": "G#2",
                    "midi": 44,
                    "time": 45.23077299999997,
                    "velocity": 0.1889763779527559,
                    "duration": 0.4615384999999961
                },
                {
                    "name": "G#2",
                    "midi": 44,
                    "time": 45.69231149999997,
                    "velocity": 0.16535433070866143,
                    "duration": 0.7115385208333294
                },
                {
                    "name": "D#3",
                    "midi": 51,
                    "time": 45.69231149999997,
                    "velocity": 0.1968503937007874,
                    "duration": 0.6923077499999977
                },
                {
                    "name": "C#3",
                    "midi": 49,
                    "time": 46.384619249999965,
                    "velocity": 0.2204724409448819,
                    "duration": 0.2500000208333333
                },
                {
                    "name": "D#3",
                    "midi": 51,
                    "time": 46.384619249999965,
                    "velocity": 0.25984251968503935,
                    "duration": 0.2307692500000016
                },
                {
                    "name": "D#3",
                    "midi": 51,
                    "time": 46.615388499999966,
                    "velocity": 0.29133858267716534,
                    "duration": 0.4615384999999961
                },
                {
                    "name": "C3",
                    "midi": 48,
                    "time": 46.615388499999966,
                    "velocity": 0.2440944881889764,
                    "duration": 0.4615384999999961
                },
                {
                    "name": "C3",
                    "midi": 48,
                    "time": 47.07692699999996,
                    "velocity": 0.2755905511811024,
                    "duration": 1.3846155000000024
                },
                {
                    "name": "D#3",
                    "midi": 51,
                    "time": 47.07692699999996,
                    "velocity": 0.33070866141732286,
                    "duration": 1.3846155000000024
                },
                {
                    "name": "D#3",
                    "midi": 51,
                    "time": 48.461542499999965,
                    "velocity": 0.3464566929133858,
                    "duration": 1.1538462500000009
                },
                {
                    "name": "A#2",
                    "midi": 46,
                    "time": 48.461542499999965,
                    "velocity": 0.29133858267716534,
                    "duration": 1.1538462500000009
                },
                {
                    "name": "G#2",
                    "midi": 44,
                    "time": 49.615388749999966,
                    "velocity": 0.14960629921259844,
                    "duration": 0.2307692500000016
                },
                {
                    "name": "D#3",
                    "midi": 51,
                    "time": 49.615388749999966,
                    "velocity": 0.18110236220472442,
                    "duration": 0.2307692500000016
                },
                {
                    "name": "D#3",
                    "midi": 51,
                    "time": 49.84615799999997,
                    "velocity": 0.1732283464566929,
                    "duration": 2.7692309999999978
                },
                {
                    "name": "G#2",
                    "midi": 44,
                    "time": 49.84615799999997,
                    "velocity": 0.14173228346456693,
                    "duration": 2.7692309999999978
                },
                {
                    "name": "D#2",
                    "midi": 39,
                    "time": 52.615388999999965,
                    "velocity": 0.23622047244094488,
                    "duration": 0.7115385208333294
                },
                {
                    "name": "D#3",
                    "midi": 51,
                    "time": 52.615388999999965,
                    "velocity": 0.28346456692913385,
                    "duration": 0.6923077499999977
                },
                {
                    "name": "G#2",
                    "midi": 44,
                    "time": 53.30769674999996,
                    "velocity": 0.2440944881889764,
                    "duration": 0.2500000208333333
                },
                {
                    "name": "D#3",
                    "midi": 51,
                    "time": 53.30769674999996,
                    "velocity": 0.29133858267716534,
                    "duration": 0.2307692500000016
                },
                {
                    "name": "D#3",
                    "midi": 51,
                    "time": 53.538465999999964,
                    "velocity": 0.29133858267716534,
                    "duration": 0.4615384999999961
                },
                {
                    "name": "D#2",
                    "midi": 39,
                    "time": 53.538465999999964,
                    "velocity": 0.2440944881889764,
                    "duration": 0.4615384999999961
                },
                {
                    "name": "D#3",
                    "midi": 51,
                    "time": 54.00000449999996,
                    "velocity": 0.29133858267716534,
                    "duration": 0.6923077499999977
                },
                {
                    "name": "D#2",
                    "midi": 39,
                    "time": 54.00000449999996,
                    "velocity": 0.2440944881889764,
                    "duration": 0.7115385208333294
                },
                {
                    "name": "G#2",
                    "midi": 44,
                    "time": 54.69231224999996,
                    "velocity": 0.23622047244094488,
                    "duration": 0.2500000208333333
                },
                {
                    "name": "D#3",
                    "midi": 51,
                    "time": 54.69231224999996,
                    "velocity": 0.28346456692913385,
                    "duration": 0.2307692500000016
                },
                {
                    "name": "D#2",
                    "midi": 39,
                    "time": 54.92308149999996,
                    "velocity": 0.23622047244094488,
                    "duration": 0.4615384999999961
                },
                {
                    "name": "D#3",
                    "midi": 51,
                    "time": 54.92308149999996,
                    "velocity": 0.28346456692913385,
                    "duration": 0.4615384999999961
                },
                {
                    "name": "D3",
                    "midi": 50,
                    "time": 55.384619999999956,
                    "velocity": 0.4409448818897638,
                    "duration": 2.7692309999999978
                },
                {
                    "name": "D2",
                    "midi": 38,
                    "time": 55.384619999999956,
                    "velocity": 0.3700787401574803,
                    "duration": 2.7692309999999978
                },
                {
                    "name": "D#2",
                    "midi": 39,
                    "time": 58.15385099999995,
                    "velocity": 0.23622047244094488,
                    "duration": 1.8461539999999985
                },
                {
                    "name": "D#3",
                    "midi": 51,
                    "time": 58.15385099999995,
                    "velocity": 0.28346456692913385,
                    "duration": 1.8461539999999985
                },
                {
                    "name": "B2",
                    "midi": 47,
                    "time": 65.07692849999995,
                    "velocity": 0.3937007874015748,
                    "duration": 0.9230770000000064
                },
                {
                    "name": "B1",
                    "midi": 35,
                    "time": 65.07692849999995,
                    "velocity": 0.33070866141732286,
                    "duration": 0.9230770000000064
                },
                {
                    "name": "B1",
                    "midi": 35,
                    "time": 66.00000549999996,
                    "velocity": 0.33070866141732286,
                    "duration": 0.4615385000000032
                },
                {
                    "name": "B2",
                    "midi": 47,
                    "time": 66.00000549999996,
                    "velocity": 0.3937007874015748,
                    "duration": 0.4615385000000032
                },
                {
                    "name": "A#2",
                    "midi": 46,
                    "time": 66.46154399999996,
                    "velocity": 0.3779527559055118,
                    "duration": 0.9230770000000064
                },
                {
                    "name": "A#1",
                    "midi": 34,
                    "time": 66.46154399999996,
                    "velocity": 0.31496062992125984,
                    "duration": 0.9230770000000064
                },
                {
                    "name": "A1",
                    "midi": 33,
                    "time": 67.38462099999997,
                    "velocity": 0.4015748031496063,
                    "duration": 0.4615385000000032
                },
                {
                    "name": "A2",
                    "midi": 45,
                    "time": 67.38462099999997,
                    "velocity": 0.48031496062992124,
                    "duration": 0.4615385000000032
                },
                {
                    "name": "G#1",
                    "midi": 32,
                    "time": 67.84615949999997,
                    "velocity": 0.47244094488188976,
                    "duration": 1.3846154999999953
                },
                {
                    "name": "G#2",
                    "midi": 44,
                    "time": 67.84615949999997,
                    "velocity": 0.5669291338582677,
                    "duration": 1.3846154999999953
                },
                {
                    "name": "G#2",
                    "midi": 44,
                    "time": 69.23077499999997,
                    "velocity": 0.2755905511811024,
                    "duration": 1.1538462500000009
                },
                {
                    "name": "G#3",
                    "midi": 56,
                    "time": 69.23077499999997,
                    "velocity": 0.33070866141732286,
                    "duration": 1.1538462500000009
                },
                {
                    "name": "C#3",
                    "midi": 49,
                    "time": 70.38462124999997,
                    "velocity": 0.23622047244094488,
                    "duration": 0.23076924999999449
                },
                {
                    "name": "G#3",
                    "midi": 56,
                    "time": 70.38462124999997,
                    "velocity": 0.28346456692913385,
                    "duration": 0.23076924999999449
                },
                {
                    "name": "G#3",
                    "midi": 56,
                    "time": 70.61539049999996,
                    "velocity": 0.28346456692913385,
                    "duration": 4.1538465
                },
                {
                    "name": "C#3",
                    "midi": 49,
                    "time": 70.61539049999996,
                    "velocity": 0.23622047244094488,
                    "duration": 4.1538465
                },
                {
                    "name": "F#2",
                    "midi": 42,
                    "time": 74.76923699999996,
                    "velocity": 0.2755905511811024,
                    "duration": 0.23076924999999449
                },
                {
                    "name": "C#3",
                    "midi": 49,
                    "time": 75.23077549999995,
                    "velocity": 0.2047244094488189,
                    "duration": 0.4615385000000032
                },
                {
                    "name": "A3",
                    "midi": 57,
                    "time": 75.69231399999995,
                    "velocity": 0.2047244094488189,
                    "duration": 0.4615385000000032
                },
                {
                    "name": "F#2",
                    "midi": 42,
                    "time": 76.15385249999996,
                    "velocity": 0.2755905511811024,
                    "duration": 0.23076924999999449
                },
                {
                    "name": "C#3",
                    "midi": 49,
                    "time": 76.61539099999995,
                    "velocity": 0.2047244094488189,
                    "duration": 0.4615385000000032
                },
                {
                    "name": "A3",
                    "midi": 57,
                    "time": 77.07692949999995,
                    "velocity": 0.2047244094488189,
                    "duration": 0.4615385000000032
                },
                {
                    "name": "F#2",
                    "midi": 42,
                    "time": 77.53846799999995,
                    "velocity": 0.2755905511811024,
                    "duration": 0.23076924999999449
                },
                {
                    "name": "C#3",
                    "midi": 49,
                    "time": 78.00000649999994,
                    "velocity": 0.2047244094488189,
                    "duration": 0.4615385000000032
                },
                {
                    "name": "A3",
                    "midi": 57,
                    "time": 78.46154499999994,
                    "velocity": 0.2047244094488189,
                    "duration": 0.4615385000000032
                },
                {
                    "name": "F#2",
                    "midi": 42,
                    "time": 78.92308349999995,
                    "velocity": 0.28346456692913385,
                    "duration": 0.23076924999999449
                },
                {
                    "name": "D3",
                    "midi": 50,
                    "time": 79.38462199999994,
                    "velocity": 0.2047244094488189,
                    "duration": 0.4615385000000032
                },
                {
                    "name": "B3",
                    "midi": 59,
                    "time": 79.84616049999994,
                    "velocity": 0.2204724409448819,
                    "duration": 0.4615385000000032
                },
                {
                    "name": "F#2",
                    "midi": 42,
                    "time": 80.30769899999994,
                    "velocity": 0.2755905511811024,
                    "duration": 0.23076924999999449
                },
                {
                    "name": "D3",
                    "midi": 50,
                    "time": 80.76923749999993,
                    "velocity": 0.2047244094488189,
                    "duration": 0.4615385000000032
                },
                {
                    "name": "B3",
                    "midi": 59,
                    "time": 81.23077599999993,
                    "velocity": 0.2047244094488189,
                    "duration": 0.4615385000000032
                },
                {
                    "name": "F#2",
                    "midi": 42,
                    "time": 81.69231449999994,
                    "velocity": 0.2755905511811024,
                    "duration": 0.23076924999999449
                },
                {
                    "name": "D3",
                    "midi": 50,
                    "time": 82.15385299999993,
                    "velocity": 0.2125984251968504,
                    "duration": 0.4615385000000032
                },
                {
                    "name": "B3",
                    "midi": 59,
                    "time": 82.61539149999993,
                    "velocity": 0.2125984251968504,
                    "duration": 0.4615385000000032
                },
                {
                    "name": "F#2",
                    "midi": 42,
                    "time": 83.07692999999993,
                    "velocity": 0.2755905511811024,
                    "duration": 0.23076924999999449
                },
                {
                    "name": "B2",
                    "midi": 47,
                    "time": 83.53846849999992,
                    "velocity": 0.2204724409448819,
                    "duration": 0.4615385000000032
                },
                {
                    "name": "G#3",
                    "midi": 56,
                    "time": 84.00000699999993,
                    "velocity": 0.2204724409448819,
                    "duration": 0.4615385000000032
                },
                {
                    "name": "F#2",
                    "midi": 42,
                    "time": 84.46154549999993,
                    "velocity": 0.2755905511811024,
                    "duration": 0.23076924999999449
                },
                {
                    "name": "C#3",
                    "midi": 49,
                    "time": 84.92308399999992,
                    "velocity": 0.2283464566929134,
                    "duration": 0.4615385000000032
                },
                {
                    "name": "A3",
                    "midi": 57,
                    "time": 85.38462249999992,
                    "velocity": 0.2283464566929134,
                    "duration": 0.4615385000000032
                },
                {
                    "name": "F#2",
                    "midi": 42,
                    "time": 85.84616099999992,
                    "velocity": 0.2755905511811024,
                    "duration": 0.23076924999999449
                },
                {
                    "name": "D3",
                    "midi": 50,
                    "time": 86.30769949999991,
                    "velocity": 0.2125984251968504,
                    "duration": 0.4615385000000032
                },
                {
                    "name": "B3",
                    "midi": 59,
                    "time": 86.76923799999992,
                    "velocity": 0.2125984251968504,
                    "duration": 0.4615385000000032
                },
                {
                    "name": "F#2",
                    "midi": 42,
                    "time": 87.23077649999992,
                    "velocity": 0.2755905511811024,
                    "duration": 0.23076924999999449
                },
                {
                    "name": "C#3",
                    "midi": 49,
                    "time": 87.69231499999991,
                    "velocity": 0.23622047244094488,
                    "duration": 0.4615385000000032
                },
                {
                    "name": "A3",
                    "midi": 57,
                    "time": 88.15385349999991,
                    "velocity": 0.23622047244094488,
                    "duration": 0.4615385000000032
                },
                {
                    "name": "F#2",
                    "midi": 42,
                    "time": 88.61539199999991,
                    "velocity": 0.2755905511811024,
                    "duration": 0.23076924999999449
                },
                {
                    "name": "C#3",
                    "midi": 49,
                    "time": 89.0769304999999,
                    "velocity": 0.2125984251968504,
                    "duration": 0.4615385000000032
                },
                {
                    "name": "A3",
                    "midi": 57,
                    "time": 89.5384689999999,
                    "velocity": 0.2204724409448819,
                    "duration": 0.4615385000000032
                },
                {
                    "name": "F#2",
                    "midi": 42,
                    "time": 90.00000749999991,
                    "velocity": 0.2755905511811024,
                    "duration": 0.23076924999999449
                },
                {
                    "name": "C#3",
                    "midi": 49,
                    "time": 90.4615459999999,
                    "velocity": 0.2283464566929134,
                    "duration": 0.4615385000000032
                },
                {
                    "name": "F#3",
                    "midi": 54,
                    "time": 90.9230844999999,
                    "velocity": 0.2283464566929134,
                    "duration": 0.4615385000000032
                },
                {
                    "name": "C#3",
                    "midi": 49,
                    "time": 91.3846229999999,
                    "velocity": 0.2755905511811024,
                    "duration": 0.46153849999998897
                },
                {
                    "name": "F3",
                    "midi": 53,
                    "time": 91.8461614999999,
                    "velocity": 0.2755905511811024,
                    "duration": 0.4615385000000032
                },
                {
                    "name": "G#3",
                    "midi": 56,
                    "time": 92.3076999999999,
                    "velocity": 0.2755905511811024,
                    "duration": 0.4615385000000032
                },
                {
                    "name": "C#3",
                    "midi": 49,
                    "time": 92.7692384999999,
                    "velocity": 0.2755905511811024,
                    "duration": 0.4615385000000032
                },
                {
                    "name": "F3",
                    "midi": 53,
                    "time": 93.2307769999999,
                    "velocity": 0.2755905511811024,
                    "duration": 0.4615385000000032
                },
                {
                    "name": "G#3",
                    "midi": 56,
                    "time": 93.6923154999999,
                    "velocity": 0.2755905511811024,
                    "duration": 0.4615385000000032
                },
                {
                    "name": "A2",
                    "midi": 45,
                    "time": 94.15385399999991,
                    "velocity": 0.2755905511811024,
                    "duration": 0.4615385000000032
                },
                {
                    "name": "C#3",
                    "midi": 49,
                    "time": 94.61539249999991,
                    "velocity": 0.2755905511811024,
                    "duration": 0.4615385000000032
                },
                {
                    "name": "F#3",
                    "midi": 54,
                    "time": 95.07693099999992,
                    "velocity": 0.2755905511811024,
                    "duration": 0.4615385000000032
                },
                {
                    "name": "C#3",
                    "midi": 49,
                    "time": 95.53846949999992,
                    "velocity": 0.2755905511811024,
                    "duration": 0.4615385000000032
                },
                {
                    "name": "F3",
                    "midi": 53,
                    "time": 96.00000799999992,
                    "velocity": 0.2755905511811024,
                    "duration": 0.4615385000000032
                },
                {
                    "name": "G#3",
                    "midi": 56,
                    "time": 96.46154649999993,
                    "velocity": 0.2755905511811024,
                    "duration": 0.4615385000000032
                },
                {
                    "name": "D3",
                    "midi": 50,
                    "time": 96.92308499999993,
                    "velocity": 0.2755905511811024,
                    "duration": 2.307692500000016
                },
                {
                    "name": "G#3",
                    "midi": 56,
                    "time": 97.38462349999993,
                    "velocity": 0.2755905511811024,
                    "duration": 0.4615385000000032
                },
                {
                    "name": "F#3",
                    "midi": 54,
                    "time": 97.84616199999994,
                    "velocity": 0.2755905511811024,
                    "duration": 0.4615385000000032
                },
                {
                    "name": "F3",
                    "midi": 53,
                    "time": 98.30770049999994,
                    "velocity": 0.25984251968503935,
                    "duration": 0.4615385000000032
                },
                {
                    "name": "F#3",
                    "midi": 54,
                    "time": 98.76923899999994,
                    "velocity": 0.23622047244094488,
                    "duration": 0.4615385000000032
                },
                {
                    "name": "G#3",
                    "midi": 56,
                    "time": 99.23077749999995,
                    "velocity": 0.2125984251968504,
                    "duration": 0.4615385000000032
                },
                {
                    "name": "C#3",
                    "midi": 49,
                    "time": 99.23077749999995,
                    "velocity": 0.2125984251968504,
                    "duration": 0.4615385000000032
                },
                {
                    "name": "F#2",
                    "midi": 42,
                    "time": 99.69231599999995,
                    "velocity": 0.2755905511811024,
                    "duration": 0.4615385000000032
                },
                {
                    "name": "C#3",
                    "midi": 49,
                    "time": 100.15385449999995,
                    "velocity": 0.23622047244094488,
                    "duration": 0.4615385000000032
                },
                {
                    "name": "A3",
                    "midi": 57,
                    "time": 100.61539299999995,
                    "velocity": 0.2440944881889764,
                    "duration": 0.4615385000000032
                },
                {
                    "name": "F#2",
                    "midi": 42,
                    "time": 101.07693149999996,
                    "velocity": 0.29133858267716534,
                    "duration": 0.46153849999998897
                },
                {
                    "name": "B2",
                    "midi": 47,
                    "time": 101.53846999999995,
                    "velocity": 0.25984251968503935,
                    "duration": 0.4615385000000032
                },
                {
                    "name": "G#3",
                    "midi": 56,
                    "time": 102.00000849999995,
                    "velocity": 0.25984251968503935,
                    "duration": 0.4615385000000032
                },
                {
                    "name": "F#2",
                    "midi": 42,
                    "time": 102.46154699999995,
                    "velocity": 0.33070866141732286,
                    "duration": 0.4615385000000032
                },
                {
                    "name": "A2",
                    "midi": 45,
                    "time": 102.92308549999996,
                    "velocity": 0.29133858267716534,
                    "duration": 0.4615385000000032
                },
                {
                    "name": "F#3",
                    "midi": 54,
                    "time": 103.38462399999996,
                    "velocity": 0.29133858267716534,
                    "duration": 0.4615385000000032
                },
                {
                    "name": "E2",
                    "midi": 40,
                    "time": 103.84616249999996,
                    "velocity": 0.3543307086614173,
                    "duration": 0.46153849999998897
                },
                {
                    "name": "B2",
                    "midi": 47,
                    "time": 104.30770099999995,
                    "velocity": 0.31496062992125984,
                    "duration": 0.4615385000000032
                },
                {
                    "name": "G#3",
                    "midi": 56,
                    "time": 104.76923949999996,
                    "velocity": 0.31496062992125984,
                    "duration": 0.4615385000000032
                },
                {
                    "name": "E2",
                    "midi": 40,
                    "time": 105.23077799999996,
                    "velocity": 0.30708661417322836,
                    "duration": 0.4615385000000032
                },
                {
                    "name": "B2",
                    "midi": 47,
                    "time": 105.69231649999996,
                    "velocity": 0.28346456692913385,
                    "duration": 0.4615385000000032
                },
                {
                    "name": "G#3",
                    "midi": 56,
                    "time": 106.15385499999996,
                    "velocity": 0.28346456692913385,
                    "duration": 0.4615385000000032
                },
                {
                    "name": "E2",
                    "midi": 40,
                    "time": 106.61539349999997,
                    "velocity": 0.2677165354330709,
                    "duration": 0.4615385000000032
                },
                {
                    "name": "B2",
                    "midi": 47,
                    "time": 107.07693199999997,
                    "velocity": 0.2677165354330709,
                    "duration": 0.4615385000000032
                },
                {
                    "name": "G#3",
                    "midi": 56,
                    "time": 107.53847049999997,
                    "velocity": 0.2677165354330709,
                    "duration": 0.4615385000000032
                },
                {
                    "name": "E2",
                    "midi": 40,
                    "time": 108.00000899999998,
                    "velocity": 0.3543307086614173,
                    "duration": 0.4615385000000032
                },
                {
                    "name": "B2",
                    "midi": 47,
                    "time": 108.46154749999998,
                    "velocity": 0.30708661417322836,
                    "duration": 0.4615385000000032
                },
                {
                    "name": "G#3",
                    "midi": 56,
                    "time": 108.92308599999998,
                    "velocity": 0.31496062992125984,
                    "duration": 0.4615385000000032
                },
                {
                    "name": "E2",
                    "midi": 40,
                    "time": 109.38462449999999,
                    "velocity": 0.31496062992125984,
                    "duration": 0.4615385000000032
                },
                {
                    "name": "C#3",
                    "midi": 49,
                    "time": 109.84616299999999,
                    "velocity": 0.2992125984251969,
                    "duration": 0.4615385000000032
                },
                {
                    "name": "A3",
                    "midi": 57,
                    "time": 110.3077015,
                    "velocity": 0.28346456692913385,
                    "duration": 0.4615385000000032
                },
                {
                    "name": "E2",
                    "midi": 40,
                    "time": 110.76924,
                    "velocity": 0.2755905511811024,
                    "duration": 0.4615385000000032
                },
                {
                    "name": "D3",
                    "midi": 50,
                    "time": 111.2307785,
                    "velocity": 0.25984251968503935,
                    "duration": 0.4615385000000032
                },
                {
                    "name": "G#3",
                    "midi": 56,
                    "time": 111.692317,
                    "velocity": 0.25984251968503935,
                    "duration": 0.4615385000000032
                },
                {
                    "name": "A2",
                    "midi": 45,
                    "time": 112.1538555,
                    "velocity": 0.2992125984251969,
                    "duration": 0.4615385000000032
                },
                {
                    "name": "C#3",
                    "midi": 49,
                    "time": 112.61539400000001,
                    "velocity": 0.2755905511811024,
                    "duration": 0.4615385000000032
                },
                {
                    "name": "A3",
                    "midi": 57,
                    "time": 113.07693250000001,
                    "velocity": 0.29133858267716534,
                    "duration": 0.4615385000000032
                },
                {
                    "name": "A2",
                    "midi": 45,
                    "time": 113.53847100000002,
                    "velocity": 0.30708661417322836,
                    "duration": 0.4615385000000032
                },
                {
                    "name": "C#3",
                    "midi": 49,
                    "time": 114.00000950000002,
                    "velocity": 0.33070866141732286,
                    "duration": 0.4615385000000032
                },
                {
                    "name": "G#3",
                    "midi": 56,
                    "time": 114.46154800000002,
                    "velocity": 0.36220472440944884,
                    "duration": 0.4615385000000032
                },
                {
                    "name": "A2",
                    "midi": 45,
                    "time": 114.92308650000003,
                    "velocity": 0.3700787401574803,
                    "duration": 0.4615385000000032
                },
                {
                    "name": "C#3",
                    "midi": 49,
                    "time": 115.38462500000003,
                    "velocity": 0.3543307086614173,
                    "duration": 0.4615385000000032
                },
                {
                    "name": "F#3",
                    "midi": 54,
                    "time": 115.84616350000003,
                    "velocity": 0.33070866141732286,
                    "duration": 0.4615385000000032
                },
                {
                    "name": "B2",
                    "midi": 47,
                    "time": 116.30770200000003,
                    "velocity": 0.3464566929133858,
                    "duration": 0.46153849999998897
                },
                {
                    "name": "D3",
                    "midi": 50,
                    "time": 116.76924050000002,
                    "velocity": 0.31496062992125984,
                    "duration": 0.4615385000000032
                },
                {
                    "name": "F#3",
                    "midi": 54,
                    "time": 117.23077900000003,
                    "velocity": 0.31496062992125984,
                    "duration": 0.4615385000000032
                },
                {
                    "name": "D3",
                    "midi": 50,
                    "time": 117.69231750000003,
                    "velocity": 0.3464566929133858,
                    "duration": 0.4615385000000032
                },
                {
                    "name": "F#3",
                    "midi": 54,
                    "time": 118.15385600000003,
                    "velocity": 0.31496062992125984,
                    "duration": 0.4615385000000032
                },
                {
                    "name": "B3",
                    "midi": 59,
                    "time": 118.61539450000004,
                    "velocity": 0.31496062992125984,
                    "duration": 0.4615385000000032
                },
                {
                    "name": "C#3",
                    "midi": 49,
                    "time": 119.07693300000004,
                    "velocity": 0.30708661417322836,
                    "duration": 0.4615385000000032
                },
                {
                    "name": "F3",
                    "midi": 53,
                    "time": 119.53847150000004,
                    "velocity": 0.2992125984251969,
                    "duration": 0.4615385000000032
                },
                {
                    "name": "B2",
                    "midi": 47,
                    "time": 120.00001000000005,
                    "velocity": 0.23622047244094488,
                    "duration": 0.4615385000000032
                },
                {
                    "name": "A2",
                    "midi": 45,
                    "time": 120.46154850000005,
                    "velocity": 0.33070866141732286,
                    "duration": 0.4615385000000032
                },
                {
                    "name": "C#3",
                    "midi": 49,
                    "time": 120.92308700000005,
                    "velocity": 0.30708661417322836,
                    "duration": 0.4615385000000032
                },
                {
                    "name": "F#3",
                    "midi": 54,
                    "time": 121.38462550000006,
                    "velocity": 0.30708661417322836,
                    "duration": 0.4615385000000032
                },
                {
                    "name": "G#2",
                    "midi": 44,
                    "time": 121.84616400000006,
                    "velocity": 0.33070866141732286,
                    "duration": 0.46153849999998897
                },
                {
                    "name": "B2",
                    "midi": 47,
                    "time": 122.30770250000005,
                    "velocity": 0.30708661417322836,
                    "duration": 0.4615385000000032
                },
                {
                    "name": "F#3",
                    "midi": 54,
                    "time": 122.76924100000005,
                    "velocity": 0.30708661417322836,
                    "duration": 0.4615385000000032
                },
                {
                    "name": "A2",
                    "midi": 45,
                    "time": 123.23077950000005,
                    "velocity": 0.4094488188976378,
                    "duration": 0.4615385000000032
                },
                {
                    "name": "C#3",
                    "midi": 49,
                    "time": 123.69231800000006,
                    "velocity": 0.3779527559055118,
                    "duration": 0.4615385000000032
                },
                {
                    "name": "F#3",
                    "midi": 54,
                    "time": 124.15385650000006,
                    "velocity": 0.3779527559055118,
                    "duration": 0.4615385000000032
                },
                {
                    "name": "B2",
                    "midi": 47,
                    "time": 124.61539500000006,
                    "velocity": 0.4094488188976378,
                    "duration": 0.46153849999998897
                },
                {
                    "name": "D3",
                    "midi": 50,
                    "time": 125.07693350000005,
                    "velocity": 0.3779527559055118,
                    "duration": 0.4615385000000032
                },
                {
                    "name": "F#3",
                    "midi": 54,
                    "time": 125.53847200000006,
                    "velocity": 0.3858267716535433,
                    "duration": 0.4615385000000032
                },
                {
                    "name": "D3",
                    "midi": 50,
                    "time": 126.00001050000006,
                    "velocity": 0.4094488188976378,
                    "duration": 0.4615385000000032
                },
                {
                    "name": "F#3",
                    "midi": 54,
                    "time": 126.46154900000006,
                    "velocity": 0.3858267716535433,
                    "duration": 0.4615385000000032
                },
                {
                    "name": "B3",
                    "midi": 59,
                    "time": 126.92308750000007,
                    "velocity": 0.3464566929133858,
                    "duration": 0.4615385000000032
                },
                {
                    "name": "C#3",
                    "midi": 49,
                    "time": 127.38462600000007,
                    "velocity": 0.3779527559055118,
                    "duration": 0.4615385000000032
                },
                {
                    "name": "F3",
                    "midi": 53,
                    "time": 127.84616450000007,
                    "velocity": 0.33070866141732286,
                    "duration": 0.46153849999998897
                },
                {
                    "name": "B3",
                    "midi": 59,
                    "time": 128.30770300000006,
                    "velocity": 0.30708661417322836,
                    "duration": 0.46153849999998897
                },
                {
                    "name": "F#3",
                    "midi": 54,
                    "time": 128.76924150000005,
                    "velocity": 0.29133858267716534,
                    "duration": 0.46153849999998897
                },
                {
                    "name": "A3",
                    "midi": 57,
                    "time": 128.76924150000005,
                    "velocity": 0.29133858267716534,
                    "duration": 0.46153849999998897
                },
                {
                    "name": "F#2",
                    "midi": 42,
                    "time": 129.23078000000004,
                    "velocity": 0.2992125984251969,
                    "duration": 0.46153849999998897
                },
                {
                    "name": "A2",
                    "midi": 45,
                    "time": 129.69231850000003,
                    "velocity": 0.30708661417322836,
                    "duration": 0.46153849999998897
                },
                {
                    "name": "C#3",
                    "midi": 49,
                    "time": 130.15385700000002,
                    "velocity": 0.3228346456692913,
                    "duration": 0.46153849999998897
                },
                {
                    "name": "F#3",
                    "midi": 54,
                    "time": 130.6153955,
                    "velocity": 0.3464566929133858,
                    "duration": 0.46153849999998897
                },
                {
                    "name": "G#3",
                    "midi": 56,
                    "time": 131.076934,
                    "velocity": 0.3543307086614173,
                    "duration": 0.46153849999998897
                },
                {
                    "name": "A3",
                    "midi": 57,
                    "time": 131.53847249999998,
                    "velocity": 0.3700787401574803,
                    "duration": 0.46153849999998897
                },
                {
                    "name": "C#4",
                    "midi": 61,
                    "time": 132.00001099999997,
                    "velocity": 0.3779527559055118,
                    "duration": 0.46153849999998897
                },
                {
                    "name": "F#3",
                    "midi": 54,
                    "time": 132.46154949999996,
                    "velocity": 0.3937007874015748,
                    "duration": 0.46153849999998897
                },
                {
                    "name": "F3",
                    "midi": 53,
                    "time": 132.92308799999995,
                    "velocity": 0.4094488188976378,
                    "duration": 0.46153849999998897
                },
                {
                    "name": "G#3",
                    "midi": 56,
                    "time": 133.38462649999994,
                    "velocity": 0.3858267716535433,
                    "duration": 0.46153849999998897
                },
                {
                    "name": "C#4",
                    "midi": 61,
                    "time": 133.84616499999993,
                    "velocity": 0.3858267716535433,
                    "duration": 0.46153849999998897
                },
                {
                    "name": "F3",
                    "midi": 53,
                    "time": 134.30770349999992,
                    "velocity": 0.4094488188976378,
                    "duration": 0.46153849999998897
                },
                {
                    "name": "G#3",
                    "midi": 56,
                    "time": 134.7692419999999,
                    "velocity": 0.36220472440944884,
                    "duration": 0.46153849999998897
                },
                {
                    "name": "C#4",
                    "midi": 61,
                    "time": 135.2307804999999,
                    "velocity": 0.36220472440944884,
                    "duration": 0.46153849999998897
                },
                {
                    "name": "F3",
                    "midi": 53,
                    "time": 135.69231899999988,
                    "velocity": 0.4094488188976378,
                    "duration": 0.46153849999998897
                },
                {
                    "name": "G#3",
                    "midi": 56,
                    "time": 136.15385749999987,
                    "velocity": 0.3700787401574803,
                    "duration": 0.46153849999998897
                },
                {
                    "name": "C#4",
                    "midi": 61,
                    "time": 136.61539599999986,
                    "velocity": 0.3700787401574803,
                    "duration": 0.46153849999998897
                },
                {
                    "name": "E3",
                    "midi": 52,
                    "time": 137.07693449999985,
                    "velocity": 0.3543307086614173,
                    "duration": 0.4615385000000174
                },
                {
                    "name": "G#3",
                    "midi": 56,
                    "time": 137.53847299999987,
                    "velocity": 0.3228346456692913,
                    "duration": 0.46153849999998897
                },
                {
                    "name": "C#4",
                    "midi": 61,
                    "time": 138.00001149999986,
                    "velocity": 0.3228346456692913,
                    "duration": 0.46153849999998897
                },
                {
                    "name": "E3",
                    "midi": 52,
                    "time": 138.46154999999985,
                    "velocity": 0.3543307086614173,
                    "duration": 0.46153849999998897
                },
                {
                    "name": "G#3",
                    "midi": 56,
                    "time": 138.92308849999984,
                    "velocity": 0.3228346456692913,
                    "duration": 0.46153849999998897
                },
                {
                    "name": "C#4",
                    "midi": 61,
                    "time": 139.38462699999982,
                    "velocity": 0.3228346456692913,
                    "duration": 0.46153849999998897
                },
                {
                    "name": "E3",
                    "midi": 52,
                    "time": 139.8461654999998,
                    "velocity": 0.3543307086614173,
                    "duration": 0.46153849999998897
                },
                {
                    "name": "G#3",
                    "midi": 56,
                    "time": 140.3077039999998,
                    "velocity": 0.36220472440944884,
                    "duration": 0.46153849999998897
                },
                {
                    "name": "C#4",
                    "midi": 61,
                    "time": 140.7692424999998,
                    "velocity": 0.4094488188976378,
                    "duration": 0.46153849999998897
                },
                {
                    "name": "D#3",
                    "midi": 51,
                    "time": 141.23078099999978,
                    "velocity": 0.4094488188976378,
                    "duration": 0.4615385000000174
                },
                {
                    "name": "G3",
                    "midi": 55,
                    "time": 141.6923194999998,
                    "velocity": 0.4094488188976378,
                    "duration": 0.46153849999998897
                },
                {
                    "name": "C#4",
                    "midi": 61,
                    "time": 142.1538579999998,
                    "velocity": 0.3937007874015748,
                    "duration": 0.46153849999998897
                },
                {
                    "name": "D#3",
                    "midi": 51,
                    "time": 142.61539649999978,
                    "velocity": 0.3937007874015748,
                    "duration": 0.46153849999998897
                },
                {
                    "name": "G3",
                    "midi": 55,
                    "time": 143.07693499999976,
                    "velocity": 0.3858267716535433,
                    "duration": 0.46153849999998897
                },
                {
                    "name": "C#4",
                    "midi": 61,
                    "time": 143.53847349999975,
                    "velocity": 0.3779527559055118,
                    "duration": 0.46153849999998897
                },
                {
                    "name": "D#3",
                    "midi": 51,
                    "time": 144.00001199999974,
                    "velocity": 0.3779527559055118,
                    "duration": 0.46153849999998897
                },
                {
                    "name": "G3",
                    "midi": 55,
                    "time": 144.46155049999973,
                    "velocity": 0.3779527559055118,
                    "duration": 0.46153849999998897
                },
                {
                    "name": "C#4",
                    "midi": 61,
                    "time": 144.92308899999972,
                    "velocity": 0.3700787401574803,
                    "duration": 0.46153849999998897
                },
                {
                    "name": "D#3",
                    "midi": 51,
                    "time": 145.3846274999997,
                    "velocity": 0.3543307086614173,
                    "duration": 2.7692309999999907
                },
                {
                    "name": "G3",
                    "midi": 55,
                    "time": 145.3846274999997,
                    "velocity": 0.3543307086614173,
                    "duration": 2.7692309999999907
                },
                {
                    "name": "A#3",
                    "midi": 58,
                    "time": 145.84616599999973,
                    "velocity": 0.31496062992125984,
                    "duration": 0.46153849999998897
                },
                {
                    "name": "C4",
                    "midi": 60,
                    "time": 146.30770449999972,
                    "velocity": 0.28346456692913385,
                    "duration": 0.46153849999998897
                },
                {
                    "name": "C#4",
                    "midi": 61,
                    "time": 146.7692429999997,
                    "velocity": 0.2440944881889764,
                    "duration": 1.3846154999999953
                },
                {
                    "name": "G#2",
                    "midi": 44,
                    "time": 148.1538584999997,
                    "velocity": 0.23622047244094488,
                    "duration": 0.7115385208333294
                },
                {
                    "name": "D#3",
                    "midi": 51,
                    "time": 148.1538584999997,
                    "velocity": 0.28346456692913385,
                    "duration": 0.6923077499999977
                },
                {
                    "name": "D#3",
                    "midi": 51,
                    "time": 148.8461662499997,
                    "velocity": 0.28346456692913385,
                    "duration": 0.2307692500000087
                },
                {
                    "name": "A#2",
                    "midi": 46,
                    "time": 148.8461662499997,
                    "velocity": 0.23622047244094488,
                    "duration": 0.2500000208333404
                },
                {
                    "name": "G#2",
                    "midi": 44,
                    "time": 149.0769354999997,
                    "velocity": 0.23622047244094488,
                    "duration": 0.46153849999998897
                },
                {
                    "name": "D#3",
                    "midi": 51,
                    "time": 149.0769354999997,
                    "velocity": 0.28346456692913385,
                    "duration": 0.46153849999998897
                },
                {
                    "name": "D#3",
                    "midi": 51,
                    "time": 149.5384739999997,
                    "velocity": 0.2125984251968504,
                    "duration": 2.7692309999999907
                },
                {
                    "name": "A#2",
                    "midi": 46,
                    "time": 149.5384739999997,
                    "velocity": 0.18110236220472442,
                    "duration": 2.7692309999999907
                },
                {
                    "name": "G#2",
                    "midi": 44,
                    "time": 152.3077049999997,
                    "velocity": 0.23622047244094488,
                    "duration": 0.7115385208333294
                },
                {
                    "name": "D#3",
                    "midi": 51,
                    "time": 152.3077049999997,
                    "velocity": 0.28346456692913385,
                    "duration": 0.6923077499999977
                },
                {
                    "name": "D#3",
                    "midi": 51,
                    "time": 153.00001274999968,
                    "velocity": 0.28346456692913385,
                    "duration": 0.2307692500000087
                },
                {
                    "name": "A#2",
                    "midi": 46,
                    "time": 153.00001274999968,
                    "velocity": 0.23622047244094488,
                    "duration": 0.2500000208333404
                },
                {
                    "name": "G#2",
                    "midi": 44,
                    "time": 153.2307819999997,
                    "velocity": 0.23622047244094488,
                    "duration": 0.46153849999998897
                },
                {
                    "name": "D#3",
                    "midi": 51,
                    "time": 153.2307819999997,
                    "velocity": 0.28346456692913385,
                    "duration": 0.46153849999998897
                },
                {
                    "name": "D#2",
                    "midi": 39,
                    "time": 153.69232049999968,
                    "velocity": 0.1732283464566929,
                    "duration": 2.7692309999999907
                },
                {
                    "name": "D#3",
                    "midi": 51,
                    "time": 153.69232049999968,
                    "velocity": 0.2125984251968504,
                    "duration": 2.7692309999999907
                },
                {
                    "name": "D#3",
                    "midi": 51,
                    "time": 156.46155149999967,
                    "velocity": 0.30708661417322836,
                    "duration": 0.6923077499999977
                },
                {
                    "name": "G#2",
                    "midi": 44,
                    "time": 156.46155149999967,
                    "velocity": 0.25984251968503935,
                    "duration": 0.7115385208333294
                },
                {
                    "name": "A#2",
                    "midi": 46,
                    "time": 157.15385924999967,
                    "velocity": 0.25984251968503935,
                    "duration": 0.2500000208333404
                },
                {
                    "name": "D#3",
                    "midi": 51,
                    "time": 157.15385924999967,
                    "velocity": 0.30708661417322836,
                    "duration": 0.2307692500000087
                },
                {
                    "name": "D#3",
                    "midi": 51,
                    "time": 157.38462849999968,
                    "velocity": 0.30708661417322836,
                    "duration": 0.46153849999998897
                },
                {
                    "name": "G#2",
                    "midi": 44,
                    "time": 157.38462849999968,
                    "velocity": 0.25984251968503935,
                    "duration": 0.46153849999998897
                },
                {
                    "name": "G#2",
                    "midi": 44,
                    "time": 157.84616699999967,
                    "velocity": 0.2283464566929134,
                    "duration": 0.7115385208333294
                },
                {
                    "name": "D#3",
                    "midi": 51,
                    "time": 157.84616699999967,
                    "velocity": 0.2755905511811024,
                    "duration": 0.6923077499999977
                },
                {
                    "name": "D#3",
                    "midi": 51,
                    "time": 158.53847474999966,
                    "velocity": 0.3464566929133858,
                    "duration": 0.2307692500000087
                },
                {
                    "name": "C#3",
                    "midi": 49,
                    "time": 158.53847474999966,
                    "velocity": 0.29133858267716534,
                    "duration": 0.2500000208333404
                },
                {
                    "name": "C3",
                    "midi": 48,
                    "time": 158.76924399999967,
                    "velocity": 0.30708661417322836,
                    "duration": 0.46153849999998897
                },
                {
                    "name": "D#3",
                    "midi": 51,
                    "time": 158.76924399999967,
                    "velocity": 0.3779527559055118,
                    "duration": 0.46153849999998897
                },
                {
                    "name": "C3",
                    "midi": 48,
                    "time": 159.23078249999966,
                    "velocity": 0.3228346456692913,
                    "duration": 1.3846154999999953
                },
                {
                    "name": "D#3",
                    "midi": 51,
                    "time": 159.23078249999966,
                    "velocity": 0.3858267716535433,
                    "duration": 1.3846154999999953
                },
                {
                    "name": "D#3",
                    "midi": 51,
                    "time": 160.61539799999966,
                    "velocity": 0.25984251968503935,
                    "duration": 1.1538462499999866
                },
                {
                    "name": "A#2",
                    "midi": 46,
                    "time": 160.61539799999966,
                    "velocity": 0.2125984251968504,
                    "duration": 1.1538462499999866
                },
                {
                    "name": "G#2",
                    "midi": 44,
                    "time": 161.76924424999964,
                    "velocity": 0.16535433070866143,
                    "duration": 0.2307692500000087
                },
                {
                    "name": "D#3",
                    "midi": 51,
                    "time": 161.76924424999964,
                    "velocity": 0.2047244094488189,
                    "duration": 0.2307692500000087
                },
                {
                    "name": "D#3",
                    "midi": 51,
                    "time": 162.00001349999965,
                    "velocity": 0.2047244094488189,
                    "duration": 2.7692309999999907
                },
                {
                    "name": "G#2",
                    "midi": 44,
                    "time": 162.00001349999965,
                    "velocity": 0.16535433070866143,
                    "duration": 2.7692309999999907
                },
                {
                    "name": "D#2",
                    "midi": 39,
                    "time": 164.76924449999964,
                    "velocity": 0.23622047244094488,
                    "duration": 0.7115385208333294
                },
                {
                    "name": "D#3",
                    "midi": 51,
                    "time": 164.76924449999964,
                    "velocity": 0.28346456692913385,
                    "duration": 0.6923077499999977
                },
                {
                    "name": "D#3",
                    "midi": 51,
                    "time": 165.46155224999964,
                    "velocity": 0.29133858267716534,
                    "duration": 0.2307692500000087
                },
                {
                    "name": "G#2",
                    "midi": 44,
                    "time": 165.46155224999964,
                    "velocity": 0.2440944881889764,
                    "duration": 0.2500000208333404
                },
                {
                    "name": "D#2",
                    "midi": 39,
                    "time": 165.69232149999965,
                    "velocity": 0.2440944881889764,
                    "duration": 0.46153849999998897
                },
                {
                    "name": "D#3",
                    "midi": 51,
                    "time": 165.69232149999965,
                    "velocity": 0.29133858267716534,
                    "duration": 0.46153849999998897
                },
                {
                    "name": "D#3",
                    "midi": 51,
                    "time": 166.15385999999964,
                    "velocity": 0.29133858267716534,
                    "duration": 0.6923077499999977
                },
                {
                    "name": "D#2",
                    "midi": 39,
                    "time": 166.15385999999964,
                    "velocity": 0.2440944881889764,
                    "duration": 0.7115385208333294
                },
                {
                    "name": "G#2",
                    "midi": 44,
                    "time": 166.84616774999964,
                    "velocity": 0.23622047244094488,
                    "duration": 0.2500000208333404
                },
                {
                    "name": "D#3",
                    "midi": 51,
                    "time": 166.84616774999964,
                    "velocity": 0.28346456692913385,
                    "duration": 0.2307692500000087
                },
                {
                    "name": "D#3",
                    "midi": 51,
                    "time": 167.07693699999965,
                    "velocity": 0.28346456692913385,
                    "duration": 0.46153849999998897
                },
                {
                    "name": "D#2",
                    "midi": 39,
                    "time": 167.07693699999965,
                    "velocity": 0.23622047244094488,
                    "duration": 0.46153849999998897
                },
                {
                    "name": "D2",
                    "midi": 38,
                    "time": 167.53847549999963,
                    "velocity": 0.3858267716535433,
                    "duration": 2.7692309999999907
                },
                {
                    "name": "D3",
                    "midi": 50,
                    "time": 167.53847549999963,
                    "velocity": 0.4566929133858268,
                    "duration": 2.7692309999999907
                },
                {
                    "name": "D#2",
                    "midi": 39,
                    "time": 170.30770649999963,
                    "velocity": 0.1889763779527559,
                    "duration": 1.8461540000000127
                },
                {
                    "name": "D#3",
                    "midi": 51,
                    "time": 170.30770649999963,
                    "velocity": 0.2283464566929134,
                    "duration": 1.8461540000000127
                },
                {
                    "name": "D#3",
                    "midi": 51,
                    "time": 174.00001449999965,
                    "velocity": 0.3543307086614173,
                    "duration": 0.46153849999998897
                },
                {
                    "name": "G#3",
                    "midi": 56,
                    "time": 174.46155299999964,
                    "velocity": 0.3464566929133858,
                    "duration": 0.7115385208333294
                },
                {
                    "name": "A#3",
                    "midi": 58,
                    "time": 175.15386074999964,
                    "velocity": 0.3464566929133858,
                    "duration": 0.2307692500000087
                },
                {
                    "name": "G#3",
                    "midi": 56,
                    "time": 175.38462999999965,
                    "velocity": 0.3464566929133858,
                    "duration": 0.46153849999998897
                },
                {
                    "name": "B3",
                    "midi": 59,
                    "time": 175.84616849999964,
                    "velocity": 0.3464566929133858,
                    "duration": 0.9230769999999779
                },
                {
                    "name": "A3",
                    "midi": 57,
                    "time": 175.84616849999964,
                    "velocity": 0.3464566929133858,
                    "duration": 0.46153849999998897
                },
                {
                    "name": "G#3",
                    "midi": 56,
                    "time": 176.30770699999962,
                    "velocity": 0.4094488188976378,
                    "duration": 0.46153849999998897
                },
                {
                    "name": "F#3",
                    "midi": 54,
                    "time": 176.7692454999996,
                    "velocity": 0.47244094488188976,
                    "duration": 0.46153849999998897
                },
                {
                    "name": "D#4",
                    "midi": 63,
                    "time": 176.7692454999996,
                    "velocity": 0.47244094488188976,
                    "duration": 0.46153849999998897
                },
                {
                    "name": "E4",
                    "midi": 64,
                    "time": 177.2307839999996,
                    "velocity": 0.5039370078740157,
                    "duration": 0.9230769999999779
                },
                {
                    "name": "E3",
                    "midi": 52,
                    "time": 177.2307839999996,
                    "velocity": 0.5039370078740157,
                    "duration": 0.46153849999998897
                },
                {
                    "name": "G#3",
                    "midi": 56,
                    "time": 177.6923224999996,
                    "velocity": 0.4566929133858268,
                    "duration": 0.46153849999998897
                },
                {
                    "name": "D#4",
                    "midi": 63,
                    "time": 178.15386099999958,
                    "velocity": 0.3779527559055118,
                    "duration": 0.46153849999998897
                },
                {
                    "name": "B3",
                    "midi": 59,
                    "time": 178.15386099999958,
                    "velocity": 0.3779527559055118,
                    "duration": 0.46153849999998897
                },
                {
                    "name": "D#4",
                    "midi": 63,
                    "time": 178.61539949999957,
                    "velocity": 0.3228346456692913,
                    "duration": 1.3846154999999953
                },
                {
                    "name": "B3",
                    "midi": 59,
                    "time": 178.61539949999957,
                    "velocity": 0.2677165354330709,
                    "duration": 1.3846154999999953
                },
                {
                    "name": "F#3",
                    "midi": 54,
                    "time": 178.61539949999957,
                    "velocity": 0.2677165354330709,
                    "duration": 1.8461539999999843
                },
                {
                    "name": "A#3",
                    "midi": 58,
                    "time": 180.00001499999956,
                    "velocity": 0.2283464566929134,
                    "duration": 0.46153849999998897
                },
                {
                    "name": "C#4",
                    "midi": 61,
                    "time": 180.00001499999956,
                    "velocity": 0.2283464566929134,
                    "duration": 0.46153849999998897
                },
                {
                    "name": "E4",
                    "midi": 64,
                    "time": 181.38463049999956,
                    "velocity": 0.2283464566929134,
                    "duration": 0.9230769999999779
                },
                {
                    "name": "E3",
                    "midi": 52,
                    "time": 181.38463049999956,
                    "velocity": 0.2283464566929134,
                    "duration": 0.46153849999998897
                },
                {
                    "name": "G#3",
                    "midi": 56,
                    "time": 181.84616899999955,
                    "velocity": 0.2283464566929134,
                    "duration": 0.46153849999998897
                },
                {
                    "name": "B3",
                    "midi": 59,
                    "time": 182.30770749999954,
                    "velocity": 0.23622047244094488,
                    "duration": 0.46153849999998897
                },
                {
                    "name": "D#4",
                    "midi": 63,
                    "time": 182.30770749999954,
                    "velocity": 0.23622047244094488,
                    "duration": 0.46153849999998897
                },
                {
                    "name": "F#3",
                    "midi": 54,
                    "time": 182.76924599999953,
                    "velocity": 0.1968503937007874,
                    "duration": 1.8461539999999843
                },
                {
                    "name": "B3",
                    "midi": 59,
                    "time": 182.76924599999953,
                    "velocity": 0.1968503937007874,
                    "duration": 1.3846154999999953
                },
                {
                    "name": "D#4",
                    "midi": 63,
                    "time": 182.76924599999953,
                    "velocity": 0.23622047244094488,
                    "duration": 1.3846154999999953
                },
                {
                    "name": "A#3",
                    "midi": 58,
                    "time": 184.15386149999952,
                    "velocity": 0.1889763779527559,
                    "duration": 0.46153849999998897
                },
                {
                    "name": "C#4",
                    "midi": 61,
                    "time": 184.15386149999952,
                    "velocity": 0.1889763779527559,
                    "duration": 0.46153849999998897
                },
                {
                    "name": "D#3",
                    "midi": 51,
                    "time": 185.53847699999952,
                    "velocity": 0.3464566929133858,
                    "duration": 1.3846154999999953
                },
                {
                    "name": "G2",
                    "midi": 43,
                    "time": 185.53847699999952,
                    "velocity": 0.3464566929133858,
                    "duration": 1.3846154999999953
                },
                {
                    "name": "G#2",
                    "midi": 44,
                    "time": 186.9230924999995,
                    "velocity": 0.3464566929133858,
                    "duration": 2.3076925000000017
                },
                {
                    "name": "D#3",
                    "midi": 51,
                    "time": 186.9230924999995,
                    "velocity": 0.3464566929133858,
                    "duration": 2.7692309999999907
                },
                {
                    "name": "A#2",
                    "midi": 46,
                    "time": 189.2307849999995,
                    "velocity": 0.44881889763779526,
                    "duration": 0.46153849999998897
                },
                {
                    "name": "C3",
                    "midi": 48,
                    "time": 189.6923234999995,
                    "velocity": 0.5196850393700787,
                    "duration": 0.46153849999998897
                },
                {
                    "name": "D#3",
                    "midi": 51,
                    "time": 189.6923234999995,
                    "velocity": 0.5196850393700787,
                    "duration": 1.384615499999967
                },
                {
                    "name": "A#2",
                    "midi": 46,
                    "time": 190.1538619999995,
                    "velocity": 0.4409448818897638,
                    "duration": 0.46153849999998897
                },
                {
                    "name": "G#2",
                    "midi": 44,
                    "time": 190.61540049999948,
                    "velocity": 0.3858267716535433,
                    "duration": 0.46153849999998897
                },
                {
                    "name": "C#3",
                    "midi": 49,
                    "time": 191.07693899999947,
                    "velocity": 0.36220472440944884,
                    "duration": 1.3846154999999953
                },
                {
                    "name": "A#3",
                    "midi": 58,
                    "time": 192.00001599999948,
                    "velocity": 0.29133858267716534,
                    "duration": 0.46153849999998897
                },
                {
                    "name": "D#3",
                    "midi": 51,
                    "time": 192.46155449999947,
                    "velocity": 0.30708661417322836,
                    "duration": 1.1538462499999866
                },
                {
                    "name": "C4",
                    "midi": 60,
                    "time": 192.46155449999947,
                    "velocity": 0.30708661417322836,
                    "duration": 1.1538462499999866
                },
                {
                    "name": "A#3",
                    "midi": 58,
                    "time": 193.61540074999945,
                    "velocity": 0.25984251968503935,
                    "duration": 0.2307692500000087
                },
                {
                    "name": "D#3",
                    "midi": 51,
                    "time": 193.61540074999945,
                    "velocity": 0.25984251968503935,
                    "duration": 0.2307692500000087
                },
                {
                    "name": "A#3",
                    "midi": 58,
                    "time": 193.84616999999946,
                    "velocity": 0.2677165354330709,
                    "duration": 1.1538462499999866
                },
                {
                    "name": "D#3",
                    "midi": 51,
                    "time": 193.84616999999946,
                    "velocity": 0.2677165354330709,
                    "duration": 1.1538462499999866
                },
                {
                    "name": "G#2",
                    "midi": 44,
                    "time": 195.00001624999945,
                    "velocity": 0.2283464566929134,
                    "duration": 0.2307692500000087
                },
                {
                    "name": "G#3",
                    "midi": 56,
                    "time": 195.00001624999945,
                    "velocity": 0.2283464566929134,
                    "duration": 0.2307692500000087
                },
                {
                    "name": "G#3",
                    "midi": 56,
                    "time": 195.23078549999946,
                    "velocity": 0.2283464566929134,
                    "duration": 0.9230770000000064
                },
                {
                    "name": "G#2",
                    "midi": 44,
                    "time": 195.23078549999946,
                    "velocity": 0.2283464566929134,
                    "duration": 0.9230770000000064
                },
                {
                    "name": "D#3",
                    "midi": 51,
                    "time": 196.38463174999947,
                    "velocity": 0.1889763779527559,
                    "duration": 0.2307692500000087
                },
                {
                    "name": "D#3",
                    "midi": 51,
                    "time": 196.61540099999948,
                    "velocity": 0.1889763779527559,
                    "duration": 3.9230772499999773
                },
                {
                    "name": "G#2",
                    "midi": 44,
                    "time": 197.76924724999947,
                    "velocity": 0.2283464566929134,
                    "duration": 0.2307692500000087
                },
                {
                    "name": "G#2",
                    "midi": 44,
                    "time": 198.00001649999948,
                    "velocity": 0.2283464566929134,
                    "duration": 0.7115385208333294
                },
                {
                    "name": "A#2",
                    "midi": 46,
                    "time": 198.69232424999947,
                    "velocity": 0.2283464566929134,
                    "duration": 0.2500000208333404
                },
                {
                    "name": "G#2",
                    "midi": 44,
                    "time": 198.92309349999948,
                    "velocity": 0.2283464566929134,
                    "duration": 0.46153849999998897
                },
                {
                    "name": "A#2",
                    "midi": 46,
                    "time": 199.38463199999947,
                    "velocity": 0.1968503937007874,
                    "duration": 2.538461749999982
                },
                {
                    "name": "D#3",
                    "midi": 51,
                    "time": 200.53847824999946,
                    "velocity": 0.1968503937007874,
                    "duration": 0.2307692500000087
                },
                {
                    "name": "D#3",
                    "midi": 51,
                    "time": 200.76924749999947,
                    "velocity": 0.1968503937007874,
                    "duration": 3.692307999999997
                },
                {
                    "name": "D#2",
                    "midi": 39,
                    "time": 201.92309374999945,
                    "velocity": 0.2283464566929134,
                    "duration": 0.2307692500000087
                },
                {
                    "name": "D#2",
                    "midi": 39,
                    "time": 202.15386299999946,
                    "velocity": 0.2283464566929134,
                    "duration": 0.7115385208333294
                },
                {
                    "name": "G#2",
                    "midi": 44,
                    "time": 202.84617074999946,
                    "velocity": 0.2283464566929134,
                    "duration": 0.2500000208333404
                },
                {
                    "name": "D#2",
                    "midi": 39,
                    "time": 203.07693999999947,
                    "velocity": 0.2283464566929134,
                    "duration": 0.46153849999998897
                },
                {
                    "name": "G#2",
                    "midi": 44,
                    "time": 203.53847849999946,
                    "velocity": 0.1889763779527559,
                    "duration": 2.538461750000039
                },
                {
                    "name": "D#3",
                    "midi": 51,
                    "time": 204.69232474999947,
                    "velocity": 0.1968503937007874,
                    "duration": 0.2307692500000087
                },
                {
                    "name": "D#3",
                    "midi": 51,
                    "time": 204.92309399999948,
                    "velocity": 0.1968503937007874,
                    "duration": 4.153846500000014
                },
                {
                    "name": "C3",
                    "midi": 48,
                    "time": 206.0769402499995,
                    "velocity": 0.2283464566929134,
                    "duration": 0.2307692500000087
                },
                {
                    "name": "C3",
                    "midi": 48,
                    "time": 206.3077094999995,
                    "velocity": 0.2283464566929134,
                    "duration": 0.7115385208333294
                },
                {
                    "name": "C#3",
                    "midi": 49,
                    "time": 207.0000172499995,
                    "velocity": 0.2204724409448819,
                    "duration": 0.2500000208333404
                },
                {
                    "name": "C3",
                    "midi": 48,
                    "time": 207.2307864999995,
                    "velocity": 0.23622047244094488,
                    "duration": 0.46153849999998897
                },
                {
                    "name": "C#3",
                    "midi": 49,
                    "time": 207.6923249999995,
                    "velocity": 0.28346456692913385,
                    "duration": 0.7115385208333294
                },
                {
                    "name": "C3",
                    "midi": 48,
                    "time": 208.3846327499995,
                    "velocity": 0.29133858267716534,
                    "duration": 0.2307692500000087
                },
                {
                    "name": "C3",
                    "midi": 48,
                    "time": 208.6154019999995,
                    "velocity": 0.29133858267716534,
                    "duration": 0.46153849999998897
                },
                {
                    "name": "D#3",
                    "midi": 51,
                    "time": 209.0769404999995,
                    "velocity": 0.29133858267716534,
                    "duration": 1.3846154999999953
                },
                {
                    "name": "D#3",
                    "midi": 51,
                    "time": 210.4615559999995,
                    "velocity": 0.29133858267716534,
                    "duration": 1.1538462499999866
                },
                {
                    "name": "D#2",
                    "midi": 39,
                    "time": 210.4615559999995,
                    "velocity": 0.29133858267716534,
                    "duration": 1.1538462499999866
                },
                {
                    "name": "G#2",
                    "midi": 44,
                    "time": 211.61540224999948,
                    "velocity": 0.2283464566929134,
                    "duration": 0.2307692500000087
                },
                {
                    "name": "D#3",
                    "midi": 51,
                    "time": 211.61540224999948,
                    "velocity": 0.2283464566929134,
                    "duration": 0.2307692500000087
                },
                {
                    "name": "G#2",
                    "midi": 44,
                    "time": 211.84617149999949,
                    "velocity": 0.2283464566929134,
                    "duration": 1.3846154999999953
                },
                {
                    "name": "D#3",
                    "midi": 51,
                    "time": 211.84617149999949,
                    "velocity": 0.2283464566929134,
                    "duration": 1.3846154999999953
                },
                {
                    "name": "C4",
                    "midi": 60,
                    "time": 214.38463324999947,
                    "velocity": 0.2283464566929134,
                    "duration": 0.2307692500000087
                },
                {
                    "name": "D#3",
                    "midi": 51,
                    "time": 214.38463324999947,
                    "velocity": 0.2283464566929134,
                    "duration": 0.2307692500000087
                },
                {
                    "name": "D#3",
                    "midi": 51,
                    "time": 214.61540249999948,
                    "velocity": 0.29133858267716534,
                    "duration": 0.6923077499999977
                },
                {
                    "name": "C4",
                    "midi": 60,
                    "time": 214.61540249999948,
                    "velocity": 0.2283464566929134,
                    "duration": 0.7115385208333294
                },
                {
                    "name": "C#4",
                    "midi": 61,
                    "time": 215.30771024999947,
                    "velocity": 0.2283464566929134,
                    "duration": 0.2500000208333404
                },
                {
                    "name": "D#3",
                    "midi": 51,
                    "time": 215.30771024999947,
                    "velocity": 0.2283464566929134,
                    "duration": 0.2307692500000087
                },
                {
                    "name": "D#3",
                    "midi": 51,
                    "time": 215.53847949999948,
                    "velocity": 0.2283464566929134,
                    "duration": 0.46153849999998897
                },
                {
                    "name": "C4",
                    "midi": 60,
                    "time": 215.53847949999948,
                    "velocity": 0.2283464566929134,
                    "duration": 0.46153849999998897
                },
                {
                    "name": "C#4",
                    "midi": 61,
                    "time": 216.00001799999947,
                    "velocity": 0.1968503937007874,
                    "duration": 2.5384617500000104
                },
                {
                    "name": "D#3",
                    "midi": 51,
                    "time": 216.00001799999947,
                    "velocity": 0.1968503937007874,
                    "duration": 2.5384617500000104
                },
                {
                    "name": "D#3",
                    "midi": 51,
                    "time": 218.53847974999948,
                    "velocity": 0.2283464566929134,
                    "duration": 0.2307692500000087
                },
                {
                    "name": "A#3",
                    "midi": 58,
                    "time": 218.53847974999948,
                    "velocity": 0.2283464566929134,
                    "duration": 0.2307692500000087
                },
                {
                    "name": "A#3",
                    "midi": 58,
                    "time": 218.7692489999995,
                    "velocity": 0.2283464566929134,
                    "duration": 0.7115385208333294
                },
                {
                    "name": "D#3",
                    "midi": 51,
                    "time": 218.7692489999995,
                    "velocity": 0.2283464566929134,
                    "duration": 0.6923077499999977
                },
                {
                    "name": "C4",
                    "midi": 60,
                    "time": 219.4615567499995,
                    "velocity": 0.2283464566929134,
                    "duration": 0.2500000208333404
                },
                {
                    "name": "D#3",
                    "midi": 51,
                    "time": 219.4615567499995,
                    "velocity": 0.2283464566929134,
                    "duration": 0.2307692500000087
                },
                {
                    "name": "C#4",
                    "midi": 61,
                    "time": 219.6923259999995,
                    "velocity": 0.2283464566929134,
                    "duration": 0.46153849999998897
                },
                {
                    "name": "D#3",
                    "midi": 51,
                    "time": 219.6923259999995,
                    "velocity": 0.2283464566929134,
                    "duration": 0.46153849999998897
                },
                {
                    "name": "D#3",
                    "midi": 51,
                    "time": 220.1538644999995,
                    "velocity": 0.1889763779527559,
                    "duration": 2.5384617500000104
                },
                {
                    "name": "C4",
                    "midi": 60,
                    "time": 220.1538644999995,
                    "velocity": 0.1889763779527559,
                    "duration": 2.5384617500000104
                },
                {
                    "name": "D#3",
                    "midi": 51,
                    "time": 222.6923262499995,
                    "velocity": 0.2283464566929134,
                    "duration": 0.2307692500000087
                },
                {
                    "name": "C4",
                    "midi": 60,
                    "time": 222.6923262499995,
                    "velocity": 0.2283464566929134,
                    "duration": 0.2307692500000087
                },
                {
                    "name": "D#3",
                    "midi": 51,
                    "time": 222.9230954999995,
                    "velocity": 0.2283464566929134,
                    "duration": 0.6923077499999977
                },
                {
                    "name": "C4",
                    "midi": 60,
                    "time": 222.9230954999995,
                    "velocity": 0.2283464566929134,
                    "duration": 0.7115385208333294
                },
                {
                    "name": "D#3",
                    "midi": 51,
                    "time": 223.6154032499995,
                    "velocity": 0.2283464566929134,
                    "duration": 0.2307692500000087
                },
                {
                    "name": "C#4",
                    "midi": 61,
                    "time": 223.6154032499995,
                    "velocity": 0.2204724409448819,
                    "duration": 0.2500000208333404
                },
                {
                    "name": "C4",
                    "midi": 60,
                    "time": 223.8461724999995,
                    "velocity": 0.23622047244094488,
                    "duration": 0.46153849999998897
                },
                {
                    "name": "D#3",
                    "midi": 51,
                    "time": 223.8461724999995,
                    "velocity": 0.23622047244094488,
                    "duration": 0.46153849999998897
                },
                {
                    "name": "D#3",
                    "midi": 51,
                    "time": 224.3077109999995,
                    "velocity": 0.28346456692913385,
                    "duration": 0.6923077499999977
                },
                {
                    "name": "C#4",
                    "midi": 61,
                    "time": 224.3077109999995,
                    "velocity": 0.28346456692913385,
                    "duration": 0.7115385208333294
                },
                {
                    "name": "C4",
                    "midi": 60,
                    "time": 225.0000187499995,
                    "velocity": 0.29133858267716534,
                    "duration": 0.2307692500000087
                },
                {
                    "name": "D#3",
                    "midi": 51,
                    "time": 225.0000187499995,
                    "velocity": 0.29133858267716534,
                    "duration": 0.2307692500000087
                },
                {
                    "name": "D#3",
                    "midi": 51,
                    "time": 225.2307879999995,
                    "velocity": 0.29133858267716534,
                    "duration": 0.46153849999998897
                },
                {
                    "name": "C4",
                    "midi": 60,
                    "time": 225.2307879999995,
                    "velocity": 0.29133858267716534,
                    "duration": 0.46153849999998897
                },
                {
                    "name": "D#4",
                    "midi": 63,
                    "time": 225.6923264999995,
                    "velocity": 0.3228346456692913,
                    "duration": 1.3846154999999953
                },
                {
                    "name": "D#3",
                    "midi": 51,
                    "time": 225.6923264999995,
                    "velocity": 0.3228346456692913,
                    "duration": 1.3846154999999953
                },
                {
                    "name": "D#4",
                    "midi": 63,
                    "time": 227.0769419999995,
                    "velocity": 0.33070866141732286,
                    "duration": 1.1538462499999866
                },
                {
                    "name": "D#3",
                    "midi": 51,
                    "time": 227.0769419999995,
                    "velocity": 0.33070866141732286,
                    "duration": 1.1538462499999866
                },
                {
                    "name": "C#4",
                    "midi": 61,
                    "time": 227.0769419999995,
                    "velocity": 0.33070866141732286,
                    "duration": 1.1538462499999866
                },
                {
                    "name": "G#3",
                    "midi": 56,
                    "time": 228.23078824999948,
                    "velocity": 0.2677165354330709,
                    "duration": 0.2307692500000087
                },
                {
                    "name": "D#4",
                    "midi": 63,
                    "time": 228.23078824999948,
                    "velocity": 0.3228346456692913,
                    "duration": 0.2307692500000087
                },
                {
                    "name": "C4",
                    "midi": 60,
                    "time": 228.23078824999948,
                    "velocity": 0.2677165354330709,
                    "duration": 0.2307692500000087
                },
                {
                    "name": "G#3",
                    "midi": 56,
                    "time": 228.4615574999995,
                    "velocity": 0.2677165354330709,
                    "duration": 3.9230772500000057
                },
                {
                    "name": "D#4",
                    "midi": 63,
                    "time": 228.4615574999995,
                    "velocity": 0.3228346456692913,
                    "duration": 3.9230772500000057
                },
                {
                    "name": "C4",
                    "midi": 60,
                    "time": 228.4615574999995,
                    "velocity": 0.2677165354330709,
                    "duration": 3.9230772500000057
                },
                {
                    "name": "F#2",
                    "midi": 42,
                    "time": 232.3846347499995,
                    "velocity": 0.5748031496062992,
                    "duration": 0.2307692500000087
                },
                {
                    "name": "F#2",
                    "midi": 42,
                    "time": 232.6154039999995,
                    "velocity": 0.6220472440944882,
                    "duration": 0.2307692500000087
                },
                {
                    "name": "C#3",
                    "midi": 49,
                    "time": 233.07694249999952,
                    "velocity": 0.5511811023622047,
                    "duration": 0.46153849999998897
                },
                {
                    "name": "A3",
                    "midi": 57,
                    "time": 233.5384809999995,
                    "velocity": 0.5275590551181102,
                    "duration": 0.46153849999998897
                },
                {
                    "name": "F#2",
                    "midi": 42,
                    "time": 234.0000194999995,
                    "velocity": 0.6220472440944882,
                    "duration": 0.2307692500000087
                },
                {
                    "name": "C#3",
                    "midi": 49,
                    "time": 234.4615579999995,
                    "velocity": 0.5433070866141733,
                    "duration": 0.46153849999998897
                },
                {
                    "name": "A3",
                    "midi": 57,
                    "time": 234.9230964999995,
                    "velocity": 0.5196850393700787,
                    "duration": 0.46153849999998897
                },
                {
                    "name": "F#2",
                    "midi": 42,
                    "time": 235.3846349999995,
                    "velocity": 0.6220472440944882,
                    "duration": 0.2307692500000087
                },
                {
                    "name": "C#3",
                    "midi": 49,
                    "time": 235.8461734999995,
                    "velocity": 0.5511811023622047,
                    "duration": 0.46153849999998897
                },
                {
                    "name": "F#3",
                    "midi": 54,
                    "time": 236.3077119999995,
                    "velocity": 0.5196850393700787,
                    "duration": 0.46153849999998897
                },
                {
                    "name": "F#2",
                    "midi": 42,
                    "time": 236.7692504999995,
                    "velocity": 0.6220472440944882,
                    "duration": 0.2307692500000087
                },
                {
                    "name": "D3",
                    "midi": 50,
                    "time": 237.2307889999995,
                    "velocity": 0.5590551181102362,
                    "duration": 0.46153849999998897
                },
                {
                    "name": "B3",
                    "midi": 59,
                    "time": 237.6923274999995,
                    "velocity": 0.5354330708661418,
                    "duration": 0.46153849999998897
                },
                {
                    "name": "F#2",
                    "midi": 42,
                    "time": 238.15386599999948,
                    "velocity": 0.6220472440944882,
                    "duration": 0.2307692500000087
                },
                {
                    "name": "D3",
                    "midi": 50,
                    "time": 238.6154044999995,
                    "velocity": 0.5590551181102362,
                    "duration": 0.46153849999998897
                },
                {
                    "name": "B3",
                    "midi": 59,
                    "time": 239.0769429999995,
                    "velocity": 0.5354330708661418,
                    "duration": 0.46153849999998897
                },
                {
                    "name": "F#2",
                    "midi": 42,
                    "time": 239.53848149999948,
                    "velocity": 0.6220472440944882,
                    "duration": 0.2307692500000087
                },
                {
                    "name": "D3",
                    "midi": 50,
                    "time": 240.0000199999995,
                    "velocity": 0.5748031496062992,
                    "duration": 0.46153849999998897
                },
                {
                    "name": "B3",
                    "midi": 59,
                    "time": 240.46155849999948,
                    "velocity": 0.5354330708661418,
                    "duration": 0.46153849999998897
                },
                {
                    "name": "F#2",
                    "midi": 42,
                    "time": 240.92309699999947,
                    "velocity": 0.6220472440944882,
                    "duration": 0.2307692500000087
                },
                {
                    "name": "B2",
                    "midi": 47,
                    "time": 241.3846354999995,
                    "velocity": 0.5511811023622047,
                    "duration": 0.46153849999998897
                },
                {
                    "name": "G#3",
                    "midi": 56,
                    "time": 241.84617399999948,
                    "velocity": 0.5669291338582677,
                    "duration": 0.46153849999998897
                },
                {
                    "name": "F#2",
                    "midi": 42,
                    "time": 242.30771249999947,
                    "velocity": 0.6220472440944882,
                    "duration": 0.2307692500000087
                },
                {
                    "name": "C#3",
                    "midi": 49,
                    "time": 242.76925099999949,
                    "velocity": 0.5590551181102362,
                    "duration": 0.46153849999998897
                },
                {
                    "name": "A3",
                    "midi": 57,
                    "time": 243.23078949999947,
                    "velocity": 0.5748031496062992,
                    "duration": 0.46153849999998897
                },
                {
                    "name": "F#2",
                    "midi": 42,
                    "time": 243.69232799999946,
                    "velocity": 0.6220472440944882,
                    "duration": 0.2307692500000087
                },
                {
                    "name": "D3",
                    "midi": 50,
                    "time": 244.15386649999948,
                    "velocity": 0.5511811023622047,
                    "duration": 0.46153849999998897
                },
                {
                    "name": "B3",
                    "midi": 59,
                    "time": 244.61540499999947,
                    "velocity": 0.5669291338582677,
                    "duration": 0.46153849999998897
                },
                {
                    "name": "F#2",
                    "midi": 42,
                    "time": 245.07694349999946,
                    "velocity": 0.5511811023622047,
                    "duration": 0.2307692500000087
                },
                {
                    "name": "C#3",
                    "midi": 49,
                    "time": 245.53848199999948,
                    "velocity": 0.5039370078740157,
                    "duration": 0.46153849999998897
                },
                {
                    "name": "A3",
                    "midi": 57,
                    "time": 246.00002049999947,
                    "velocity": 0.5118110236220472,
                    "duration": 0.46153849999998897
                },
                {
                    "name": "F#2",
                    "midi": 42,
                    "time": 246.46155899999945,
                    "velocity": 0.5511811023622047,
                    "duration": 0.2307692500000087
                },
                {
                    "name": "C#3",
                    "midi": 49,
                    "time": 246.92309749999947,
                    "velocity": 0.5118110236220472,
                    "duration": 0.46153849999998897
                },
                {
                    "name": "A3",
                    "midi": 57,
                    "time": 247.38463599999946,
                    "velocity": 0.5118110236220472,
                    "duration": 0.46153849999998897
                },
                {
                    "name": "A2",
                    "midi": 45,
                    "time": 247.84617449999945,
                    "velocity": 0.6220472440944882,
                    "duration": 0.2307692500000087
                },
                {
                    "name": "C#3",
                    "midi": 49,
                    "time": 248.30771299999947,
                    "velocity": 0.5590551181102362,
                    "duration": 0.46153849999998897
                },
                {
                    "name": "F#3",
                    "midi": 54,
                    "time": 248.76925149999946,
                    "velocity": 0.5590551181102362,
                    "duration": 0.46153849999998897
                },
                {
                    "name": "C#3",
                    "midi": 49,
                    "time": 249.23078999999944,
                    "velocity": 0.49606299212598426,
                    "duration": 0.4615385000000174
                },
                {
                    "name": "F3",
                    "midi": 53,
                    "time": 249.69232849999946,
                    "velocity": 0.4251968503937008,
                    "duration": 0.46153849999998897
                },
                {
                    "name": "G#3",
                    "midi": 56,
                    "time": 250.15386699999945,
                    "velocity": 0.4409448818897638,
                    "duration": 0.46153849999998897
                },
                {
                    "name": "C#3",
                    "midi": 49,
                    "time": 250.61540549999944,
                    "velocity": 0.49606299212598426,
                    "duration": 0.46153849999998897
                },
                {
                    "name": "F3",
                    "midi": 53,
                    "time": 251.07694399999943,
                    "velocity": 0.4251968503937008,
                    "duration": 0.46153849999998897
                },
                {
                    "name": "G#3",
                    "midi": 56,
                    "time": 251.53848249999942,
                    "velocity": 0.44881889763779526,
                    "duration": 0.46153849999998897
                },
                {
                    "name": "A2",
                    "midi": 45,
                    "time": 252.0000209999994,
                    "velocity": 0.6220472440944882,
                    "duration": 0.4615385000000174
                },
                {
                    "name": "C#3",
                    "midi": 49,
                    "time": 252.46155949999942,
                    "velocity": 0.49606299212598426,
                    "duration": 0.46153849999998897
                },
                {
                    "name": "F#3",
                    "midi": 54,
                    "time": 252.9230979999994,
                    "velocity": 0.49606299212598426,
                    "duration": 0.46153849999998897
                },
                {
                    "name": "C#3",
                    "midi": 49,
                    "time": 253.3846364999994,
                    "velocity": 0.5511811023622047,
                    "duration": 0.4615385000000174
                },
                {
                    "name": "F3",
                    "midi": 53,
                    "time": 253.84617499999942,
                    "velocity": 0.4881889763779528,
                    "duration": 0.46153849999998897
                },
                {
                    "name": "G#3",
                    "midi": 56,
                    "time": 254.3077134999994,
                    "velocity": 0.4566929133858268,
                    "duration": 0.46153849999998897
                },
                {
                    "name": "D3",
                    "midi": 50,
                    "time": 254.7692519999994,
                    "velocity": 0.4881889763779528,
                    "duration": 2.0769232500000214
                },
                {
                    "name": "G#3",
                    "midi": 56,
                    "time": 255.23079049999942,
                    "velocity": 0.4645669291338583,
                    "duration": 0.46153849999998897
                },
                {
                    "name": "F#3",
                    "midi": 54,
                    "time": 255.6923289999994,
                    "velocity": 0.4645669291338583,
                    "duration": 0.4615385000000174
                },
                {
                    "name": "F3",
                    "midi": 53,
                    "time": 256.1538674999994,
                    "velocity": 0.47244094488188976,
                    "duration": 0.4615385000000174
                },
                {
                    "name": "F#3",
                    "midi": 54,
                    "time": 256.61540599999944,
                    "velocity": 0.4330708661417323,
                    "duration": 0.46153849999996055
                },
                {
                    "name": "G#3",
                    "midi": 56,
                    "time": 257.0769444999994,
                    "velocity": 0.3937007874015748,
                    "duration": 0.4615385000000174
                },
                {
                    "name": "C#3",
                    "midi": 49,
                    "time": 257.0769444999994,
                    "velocity": 0.3937007874015748,
                    "duration": 0.4615385000000174
                },
                {
                    "name": "F#2",
                    "midi": 42,
                    "time": 257.5384829999994,
                    "velocity": 0.3464566929133858,
                    "duration": 0.4615385000000174
                },
                {
                    "name": "C#3",
                    "midi": 49,
                    "time": 258.00002149999943,
                    "velocity": 0.31496062992125984,
                    "duration": 0.4615385000000174
                },
                {
                    "name": "A3",
                    "midi": 57,
                    "time": 258.46155999999945,
                    "velocity": 0.31496062992125984,
                    "duration": 0.4615385000000174
                },
                {
                    "name": "F#2",
                    "midi": 42,
                    "time": 258.92309849999947,
                    "velocity": 0.33070866141732286,
                    "duration": 0.4615385000000174
                },
                {
                    "name": "B2",
                    "midi": 47,
                    "time": 259.3846369999995,
                    "velocity": 0.30708661417322836,
                    "duration": 0.4615385000000174
                },
                {
                    "name": "G#3",
                    "midi": 56,
                    "time": 259.8461754999995,
                    "velocity": 0.30708661417322836,
                    "duration": 0.4615385000000174
                },
                {
                    "name": "F#2",
                    "midi": 42,
                    "time": 260.3077139999995,
                    "velocity": 0.3228346456692913,
                    "duration": 0.4615385000000174
                },
                {
                    "name": "A2",
                    "midi": 45,
                    "time": 260.76925249999954,
                    "velocity": 0.2992125984251969,
                    "duration": 0.4615385000000174
                },
                {
                    "name": "F#3",
                    "midi": 54,
                    "time": 261.23079099999956,
                    "velocity": 0.2992125984251969,
                    "duration": 0.4615385000000174
                },
                {
                    "name": "E2",
                    "midi": 40,
                    "time": 261.6923294999996,
                    "velocity": 0.3228346456692913,
                    "duration": 0.4615385000000174
                },
                {
                    "name": "B2",
                    "midi": 47,
                    "time": 262.1538679999996,
                    "velocity": 0.31496062992125984,
                    "duration": 0.4615385000000174
                },
                {
                    "name": "G#3",
                    "midi": 56,
                    "time": 262.6154064999996,
                    "velocity": 0.31496062992125984,
                    "duration": 0.4615385000000174
                },
                {
                    "name": "E2",
                    "midi": 40,
                    "time": 263.0769449999996,
                    "velocity": 0.3464566929133858,
                    "duration": 0.4615385000000174
                },
                {
                    "name": "B2",
                    "midi": 47,
                    "time": 263.53848349999964,
                    "velocity": 0.31496062992125984,
                    "duration": 0.4615385000000174
                },
                {
                    "name": "G#3",
                    "midi": 56,
                    "time": 264.00002199999966,
                    "velocity": 0.3464566929133858,
                    "duration": 0.4615385000000174
                },
                {
                    "name": "E2",
                    "midi": 40,
                    "time": 264.4615604999997,
                    "velocity": 0.3464566929133858,
                    "duration": 0.4615385000000174
                },
                {
                    "name": "B2",
                    "midi": 47,
                    "time": 264.9230989999997,
                    "velocity": 0.3228346456692913,
                    "duration": 0.4615385000000174
                },
                {
                    "name": "G#3",
                    "midi": 56,
                    "time": 265.3846374999997,
                    "velocity": 0.30708661417322836,
                    "duration": 0.4615385000000174
                },
                {
                    "name": "E2",
                    "midi": 40,
                    "time": 265.84617599999973,
                    "velocity": 0.2755905511811024,
                    "duration": 0.4615385000000174
                },
                {
                    "name": "B2",
                    "midi": 47,
                    "time": 266.30771449999975,
                    "velocity": 0.2677165354330709,
                    "duration": 0.4615385000000174
                },
                {
                    "name": "G#3",
                    "midi": 56,
                    "time": 266.76925299999976,
                    "velocity": 0.2677165354330709,
                    "duration": 0.4615385000000174
                },
                {
                    "name": "E2",
                    "midi": 40,
                    "time": 267.2307914999998,
                    "velocity": 0.2677165354330709,
                    "duration": 0.46153850000007424
                },
                {
                    "name": "C#3",
                    "midi": 49,
                    "time": 267.69232999999986,
                    "velocity": 0.25984251968503935,
                    "duration": 0.4615385000000174
                },
                {
                    "name": "A3",
                    "midi": 57,
                    "time": 268.1538684999999,
                    "velocity": 0.2677165354330709,
                    "duration": 0.4615385000000174
                },
                {
                    "name": "E2",
                    "midi": 40,
                    "time": 268.6154069999999,
                    "velocity": 0.2677165354330709,
                    "duration": 0.4615385000000174
                },
                {
                    "name": "D3",
                    "midi": 50,
                    "time": 269.0769454999999,
                    "velocity": 0.25984251968503935,
                    "duration": 0.4615385000000174
                },
                {
                    "name": "G#3",
                    "midi": 56,
                    "time": 269.5384839999999,
                    "velocity": 0.25984251968503935,
                    "duration": 0.4615385000000174
                },
                {
                    "name": "A2",
                    "midi": 45,
                    "time": 270.00002249999994,
                    "velocity": 0.2677165354330709,
                    "duration": 0.46153849999996055
                },
                {
                    "name": "C#3",
                    "midi": 49,
                    "time": 270.4615609999999,
                    "velocity": 0.2677165354330709,
                    "duration": 0.4615385000000174
                },
                {
                    "name": "A3",
                    "midi": 57,
                    "time": 270.9230994999999,
                    "velocity": 0.2677165354330709,
                    "duration": 0.4615385000000174
                },
                {
                    "name": "A2",
                    "midi": 45,
                    "time": 271.38463799999994,
                    "velocity": 0.2755905511811024,
                    "duration": 0.4615385000000174
                },
                {
                    "name": "C#3",
                    "midi": 49,
                    "time": 271.84617649999996,
                    "velocity": 0.2677165354330709,
                    "duration": 0.4615385000000174
                },
                {
                    "name": "G#3",
                    "midi": 56,
                    "time": 272.307715,
                    "velocity": 0.25984251968503935,
                    "duration": 0.4615385000000174
                },
                {
                    "name": "A2",
                    "midi": 45,
                    "time": 272.7692535,
                    "velocity": 0.33070866141732286,
                    "duration": 0.46153850000007424
                },
                {
                    "name": "C#3",
                    "midi": 49,
                    "time": 273.23079200000006,
                    "velocity": 0.2992125984251969,
                    "duration": 0.4615385000000174
                },
                {
                    "name": "F#3",
                    "midi": 54,
                    "time": 273.6923305000001,
                    "velocity": 0.29133858267716534,
                    "duration": 0.4615385000000174
                },
                {
                    "name": "B2",
                    "midi": 47,
                    "time": 274.1538690000001,
                    "velocity": 0.33070866141732286,
                    "duration": 0.4615385000000174
                },
                {
                    "name": "D3",
                    "midi": 50,
                    "time": 274.6154075000001,
                    "velocity": 0.30708661417322836,
                    "duration": 0.4615385000000174
                },
                {
                    "name": "F#3",
                    "midi": 54,
                    "time": 275.07694600000013,
                    "velocity": 0.30708661417322836,
                    "duration": 0.4615385000000174
                },
                {
                    "name": "D3",
                    "midi": 50,
                    "time": 275.53848450000015,
                    "velocity": 0.3464566929133858,
                    "duration": 0.4615385000000174
                },
                {
                    "name": "F#3",
                    "midi": 54,
                    "time": 276.00002300000017,
                    "velocity": 0.31496062992125984,
                    "duration": 0.4615385000000174
                },
                {
                    "name": "B3",
                    "midi": 59,
                    "time": 276.4615615000002,
                    "velocity": 0.31496062992125984,
                    "duration": 0.4615385000000174
                },
                {
                    "name": "C#3",
                    "midi": 49,
                    "time": 276.9231000000002,
                    "velocity": 0.30708661417322836,
                    "duration": 0.46153849999996055
                },
                {
                    "name": "F3",
                    "midi": 53,
                    "time": 277.38463850000016,
                    "velocity": 0.2992125984251969,
                    "duration": 0.4615385000000174
                },
                {
                    "name": "B3",
                    "midi": 59,
                    "time": 277.8461770000002,
                    "velocity": 0.23622047244094488,
                    "duration": 0.4615385000000174
                },
                {
                    "name": "A2",
                    "midi": 45,
                    "time": 278.3077155000002,
                    "velocity": 0.33070866141732286,
                    "duration": 0.4615385000000174
                },
                {
                    "name": "C#3",
                    "midi": 49,
                    "time": 278.7692540000002,
                    "velocity": 0.28346456692913385,
                    "duration": 0.4615385000000174
                },
                {
                    "name": "F#3",
                    "midi": 54,
                    "time": 279.23079250000023,
                    "velocity": 0.29133858267716534,
                    "duration": 0.4615385000000174
                },
                {
                    "name": "G#2",
                    "midi": 44,
                    "time": 279.69233100000025,
                    "velocity": 0.29133858267716534,
                    "duration": 0.46153850000007424
                },
                {
                    "name": "B2",
                    "midi": 47,
                    "time": 280.1538695000003,
                    "velocity": 0.29133858267716534,
                    "duration": 0.4615385000000174
                },
                {
                    "name": "F#3",
                    "midi": 54,
                    "time": 280.61540800000034,
                    "velocity": 0.29133858267716534,
                    "duration": 0.4615385000000174
                },
                {
                    "name": "A#2",
                    "midi": 46,
                    "time": 281.07694650000036,
                    "velocity": 0.3464566929133858,
                    "duration": 0.4615385000000174
                },
                {
                    "name": "C#3",
                    "midi": 49,
                    "time": 281.5384850000004,
                    "velocity": 0.31496062992125984,
                    "duration": 0.4615385000000174
                },
                {
                    "name": "F#3",
                    "midi": 54,
                    "time": 282.0000235000004,
                    "velocity": 0.31496062992125984,
                    "duration": 0.4615385000000174
                },
                {
                    "name": "B2",
                    "midi": 47,
                    "time": 282.4615620000004,
                    "velocity": 0.3464566929133858,
                    "duration": 0.46153849999996055
                },
                {
                    "name": "D#3",
                    "midi": 51,
                    "time": 282.9231005000004,
                    "velocity": 0.3228346456692913,
                    "duration": 0.4615385000000174
                },
                {
                    "name": "F#3",
                    "midi": 54,
                    "time": 283.3846390000004,
                    "velocity": 0.31496062992125984,
                    "duration": 0.4615385000000174
                },
                {
                    "name": "C3",
                    "midi": 48,
                    "time": 283.8461775000004,
                    "velocity": 0.3464566929133858,
                    "duration": 0.4615385000000174
                },
                {
                    "name": "F#3",
                    "midi": 54,
                    "time": 284.3077160000004,
                    "velocity": 0.3228346456692913,
                    "duration": 0.4615385000000174
                },
                {
                    "name": "G#3",
                    "midi": 56,
                    "time": 284.76925450000044,
                    "velocity": 0.31496062992125984,
                    "duration": 0.4615385000000174
                },
                {
                    "name": "C#3",
                    "midi": 49,
                    "time": 285.23079300000046,
                    "velocity": 0.30708661417322836,
                    "duration": 0.4615385000000174
                },
                {
                    "name": "F3",
                    "midi": 53,
                    "time": 285.6923315000005,
                    "velocity": 0.30708661417322836,
                    "duration": 0.4615385000000174
                },
                {
                    "name": "B3",
                    "midi": 59,
                    "time": 286.1538700000005,
                    "velocity": 0.29133858267716534,
                    "duration": 0.4615385000000174
                },
                {
                    "name": "A#3",
                    "midi": 58,
                    "time": 286.6154085000005,
                    "velocity": 0.2677165354330709,
                    "duration": 0.4615385000000174
                },
                {
                    "name": "F#3",
                    "midi": 54,
                    "time": 286.6154085000005,
                    "velocity": 0.2677165354330709,
                    "duration": 0.4615385000000174
                },
                {
                    "name": "F#2",
                    "midi": 42,
                    "time": 287.07694700000053,
                    "velocity": 0.2440944881889764,
                    "duration": 0.4615385000000174
                },
                {
                    "name": "A#2",
                    "midi": 46,
                    "time": 287.53848550000055,
                    "velocity": 0.2677165354330709,
                    "duration": 0.4615385000000174
                },
                {
                    "name": "C#3",
                    "midi": 49,
                    "time": 288.00002400000056,
                    "velocity": 0.2755905511811024,
                    "duration": 0.4615385000000174
                },
                {
                    "name": "F#3",
                    "midi": 54,
                    "time": 288.4615625000006,
                    "velocity": 0.29133858267716534,
                    "duration": 0.4615385000000174
                },
                {
                    "name": "G#3",
                    "midi": 56,
                    "time": 288.9231010000006,
                    "velocity": 0.30708661417322836,
                    "duration": 0.4615385000000174
                },
                {
                    "name": "A#3",
                    "midi": 58,
                    "time": 289.3846395000006,
                    "velocity": 0.3228346456692913,
                    "duration": 0.4615385000000174
                },
                {
                    "name": "C#4",
                    "midi": 61,
                    "time": 289.84617800000063,
                    "velocity": 0.3543307086614173,
                    "duration": 0.4615385000000174
                },
                {
                    "name": "F#3",
                    "midi": 54,
                    "time": 290.30771650000065,
                    "velocity": 0.3543307086614173,
                    "duration": 0.4615385000000174
                },
                {
                    "name": "F3",
                    "midi": 53,
                    "time": 290.76925500000067,
                    "velocity": 0.3464566929133858,
                    "duration": 0.4615385000000174
                },
                {
                    "name": "G#3",
                    "midi": 56,
                    "time": 291.2307935000007,
                    "velocity": 0.2755905511811024,
                    "duration": 0.4615385000000174
                },
                {
                    "name": "C#4",
                    "midi": 61,
                    "time": 291.6923320000007,
                    "velocity": 0.2755905511811024,
                    "duration": 0.4615385000000174
                },
                {
                    "name": "F3",
                    "midi": 53,
                    "time": 292.1538705000007,
                    "velocity": 0.28346456692913385,
                    "duration": 0.4615385000000174
                },
                {
                    "name": "G#3",
                    "midi": 56,
                    "time": 292.61540900000074,
                    "velocity": 0.28346456692913385,
                    "duration": 0.4615385000000174
                },
                {
                    "name": "C#4",
                    "midi": 61,
                    "time": 293.07694750000076,
                    "velocity": 0.28346456692913385,
                    "duration": 0.4615385000000174
                },
                {
                    "name": "F3",
                    "midi": 53,
                    "time": 293.5384860000008,
                    "velocity": 0.28346456692913385,
                    "duration": 0.4615385000000174
                },
                {
                    "name": "G#3",
                    "midi": 56,
                    "time": 294.0000245000008,
                    "velocity": 0.28346456692913385,
                    "duration": 0.4615385000000174
                },
                {
                    "name": "C#4",
                    "midi": 61,
                    "time": 294.4615630000008,
                    "velocity": 0.28346456692913385,
                    "duration": 0.4615385000000174
                },
                {
                    "name": "E3",
                    "midi": 52,
                    "time": 294.9231015000008,
                    "velocity": 0.28346456692913385,
                    "duration": 0.4615385000000174
                },
                {
                    "name": "G#3",
                    "midi": 56,
                    "time": 295.38464000000084,
                    "velocity": 0.2677165354330709,
                    "duration": 0.4615385000000174
                },
                {
                    "name": "C#4",
                    "midi": 61,
                    "time": 295.84617850000086,
                    "velocity": 0.2755905511811024,
                    "duration": 0.4615385000000174
                },
                {
                    "name": "E3",
                    "midi": 52,
                    "time": 296.3077170000009,
                    "velocity": 0.2755905511811024,
                    "duration": 0.4615385000000174
                },
                {
                    "name": "G#3",
                    "midi": 56,
                    "time": 296.7692555000009,
                    "velocity": 0.2677165354330709,
                    "duration": 0.4615385000000174
                },
                {
                    "name": "C#4",
                    "midi": 61,
                    "time": 297.2307940000009,
                    "velocity": 0.2677165354330709,
                    "duration": 0.4615385000000174
                },
                {
                    "name": "E3",
                    "midi": 52,
                    "time": 297.69233250000093,
                    "velocity": 0.2755905511811024,
                    "duration": 0.4615385000000174
                },
                {
                    "name": "G#3",
                    "midi": 56,
                    "time": 298.15387100000095,
                    "velocity": 0.28346456692913385,
                    "duration": 0.4615385000000174
                },
                {
                    "name": "C#4",
                    "midi": 61,
                    "time": 298.61540950000096,
                    "velocity": 0.2992125984251969,
                    "duration": 0.4615385000000174
                },
                {
                    "name": "D#3",
                    "midi": 51,
                    "time": 299.076948000001,
                    "velocity": 0.33070866141732286,
                    "duration": 0.4615385000000174
                },
                {
                    "name": "G3",
                    "midi": 55,
                    "time": 299.538486500001,
                    "velocity": 0.3228346456692913,
                    "duration": 0.4615385000000174
                },
                {
                    "name": "C#4",
                    "midi": 61,
                    "time": 300.000025000001,
                    "velocity": 0.33070866141732286,
                    "duration": 0.4615385000000174
                },
                {
                    "name": "D#3",
                    "midi": 51,
                    "time": 300.46156350000103,
                    "velocity": 0.3228346456692913,
                    "duration": 0.4615385000000174
                },
                {
                    "name": "G3",
                    "midi": 55,
                    "time": 300.92310200000105,
                    "velocity": 0.31496062992125984,
                    "duration": 0.4615385000000174
                },
                {
                    "name": "C#4",
                    "midi": 61,
                    "time": 301.38464050000107,
                    "velocity": 0.30708661417322836,
                    "duration": 0.4615385000000174
                },
                {
                    "name": "D#3",
                    "midi": 51,
                    "time": 301.8461790000011,
                    "velocity": 0.2992125984251969,
                    "duration": 0.4615385000000174
                },
                {
                    "name": "G3",
                    "midi": 55,
                    "time": 302.3077175000011,
                    "velocity": 0.28346456692913385,
                    "duration": 0.4615385000000174
                },
                {
                    "name": "C#4",
                    "midi": 61,
                    "time": 302.7692560000011,
                    "velocity": 0.2755905511811024,
                    "duration": 0.4615385000000174
                },
                {
                    "name": "G3",
                    "midi": 55,
                    "time": 303.23079450000114,
                    "velocity": 0.25984251968503935,
                    "duration": 2.7692309999999907
                },
                {
                    "name": "D#3",
                    "midi": 51,
                    "time": 303.23079450000114,
                    "velocity": 0.25984251968503935,
                    "duration": 2.7692309999999907
                },
                {
                    "name": "A#3",
                    "midi": 58,
                    "time": 303.6923330000011,
                    "velocity": 0.2283464566929134,
                    "duration": 0.4615385000000174
                },
                {
                    "name": "C4",
                    "midi": 60,
                    "time": 304.1538715000011,
                    "velocity": 0.2047244094488189,
                    "duration": 0.4615385000000174
                },
                {
                    "name": "C#4",
                    "midi": 61,
                    "time": 304.61541000000113,
                    "velocity": 0.1732283464566929,
                    "duration": 1.3846154999999953
                },
                {
                    "name": "D#3",
                    "midi": 51,
                    "time": 306.00002550000113,
                    "velocity": 0.1889763779527559,
                    "duration": 0.6923077499999977
                },
                {
                    "name": "G#2",
                    "midi": 44,
                    "time": 306.00002550000113,
                    "velocity": 0.15748031496062992,
                    "duration": 0.7115385208333578
                },
                {
                    "name": "A#2",
                    "midi": 46,
                    "time": 306.6923332500011,
                    "velocity": 0.15748031496062992,
                    "duration": 0.25000002083339723
                },
                {
                    "name": "D#3",
                    "midi": 51,
                    "time": 306.6923332500011,
                    "velocity": 0.1889763779527559,
                    "duration": 0.23076925000003712
                },
                {
                    "name": "D#3",
                    "midi": 51,
                    "time": 306.92310250000116,
                    "velocity": 0.1889763779527559,
                    "duration": 0.4615385000000174
                },
                {
                    "name": "G#2",
                    "midi": 44,
                    "time": 306.92310250000116,
                    "velocity": 0.15748031496062992,
                    "duration": 0.4615385000000174
                },
                {
                    "name": "A#2",
                    "midi": 46,
                    "time": 307.3846410000012,
                    "velocity": 0.11811023622047244,
                    "duration": 2.7692309999999907
                },
                {
                    "name": "D#3",
                    "midi": 51,
                    "time": 307.3846410000012,
                    "velocity": 0.14173228346456693,
                    "duration": 2.7692309999999907
                },
                {
                    "name": "D#3",
                    "midi": 51,
                    "time": 310.1538720000012,
                    "velocity": 0.2283464566929134,
                    "duration": 0.6923077499999977
                },
                {
                    "name": "G#2",
                    "midi": 44,
                    "time": 310.1538720000012,
                    "velocity": 0.1889763779527559,
                    "duration": 0.7115385208333578
                },
                {
                    "name": "C3",
                    "midi": 48,
                    "time": 310.84617975000117,
                    "velocity": 0.1889763779527559,
                    "duration": 0.25000002083339723
                },
                {
                    "name": "D#3",
                    "midi": 51,
                    "time": 310.84617975000117,
                    "velocity": 0.2283464566929134,
                    "duration": 0.23076925000003712
                },
                {
                    "name": "G#2",
                    "midi": 44,
                    "time": 311.0769490000012,
                    "velocity": 0.1889763779527559,
                    "duration": 0.4615385000000174
                },
                {
                    "name": "D#3",
                    "midi": 51,
                    "time": 311.0769490000012,
                    "velocity": 0.2283464566929134,
                    "duration": 0.4615385000000174
                },
                {
                    "name": "D#3",
                    "midi": 51,
                    "time": 311.5384875000012,
                    "velocity": 0.18110236220472442,
                    "duration": 2.7692309999999907
                },
                {
                    "name": "D#2",
                    "midi": 39,
                    "time": 311.5384875000012,
                    "velocity": 0.14960629921259844,
                    "duration": 2.7692309999999907
                },
                {
                    "name": "G#2",
                    "midi": 44,
                    "time": 314.3077185000012,
                    "velocity": 0.18110236220472442,
                    "duration": 0.7115385208333578
                },
                {
                    "name": "D#3",
                    "midi": 51,
                    "time": 314.3077185000012,
                    "velocity": 0.2204724409448819,
                    "duration": 0.6923077499999977
                },
                {
                    "name": "D#3",
                    "midi": 51,
                    "time": 315.0000262500012,
                    "velocity": 0.2283464566929134,
                    "duration": 0.23076925000003712
                },
                {
                    "name": "A#2",
                    "midi": 46,
                    "time": 315.0000262500012,
                    "velocity": 0.1889763779527559,
                    "duration": 0.25000002083339723
                },
                {
                    "name": "G#2",
                    "midi": 44,
                    "time": 315.23079550000125,
                    "velocity": 0.1889763779527559,
                    "duration": 0.4615385000000174
                },
                {
                    "name": "D#3",
                    "midi": 51,
                    "time": 315.23079550000125,
                    "velocity": 0.2283464566929134,
                    "duration": 0.4615385000000174
                },
                {
                    "name": "D#3",
                    "midi": 51,
                    "time": 315.69233400000127,
                    "velocity": 0.1968503937007874,
                    "duration": 0.6923077499999977
                },
                {
                    "name": "G#2",
                    "midi": 44,
                    "time": 315.69233400000127,
                    "velocity": 0.16535433070866143,
                    "duration": 0.7115385208333578
                },
                {
                    "name": "C#3",
                    "midi": 49,
                    "time": 316.38464175000126,
                    "velocity": 0.23622047244094488,
                    "duration": 0.25000002083339723
                },
                {
                    "name": "D#3",
                    "midi": 51,
                    "time": 316.38464175000126,
                    "velocity": 0.28346456692913385,
                    "duration": 0.23076925000003712
                },
                {
                    "name": "C3",
                    "midi": 48,
                    "time": 316.6154110000013,
                    "velocity": 0.2677165354330709,
                    "duration": 0.4615385000000174
                },
                {
                    "name": "D#3",
                    "midi": 51,
                    "time": 316.6154110000013,
                    "velocity": 0.31496062992125984,
                    "duration": 0.4615385000000174
                },
                {
                    "name": "D#3",
                    "midi": 51,
                    "time": 317.0769495000013,
                    "velocity": 0.36220472440944884,
                    "duration": 1.3846154999999953
                },
                {
                    "name": "C3",
                    "midi": 48,
                    "time": 317.0769495000013,
                    "velocity": 0.2992125984251969,
                    "duration": 1.3846154999999953
                },
                {
                    "name": "A#2",
                    "midi": 46,
                    "time": 318.4615650000013,
                    "velocity": 0.29133858267716534,
                    "duration": 1.153846250000015
                },
                {
                    "name": "D#3",
                    "midi": 51,
                    "time": 318.4615650000013,
                    "velocity": 0.3464566929133858,
                    "duration": 1.153846250000015
                },
                {
                    "name": "D#3",
                    "midi": 51,
                    "time": 319.61541125000133,
                    "velocity": 0.18110236220472442,
                    "duration": 0.23076924999998027
                },
                {
                    "name": "G#2",
                    "midi": 44,
                    "time": 319.61541125000133,
                    "velocity": 0.14960629921259844,
                    "duration": 0.23076924999998027
                },
                {
                    "name": "G#2",
                    "midi": 44,
                    "time": 319.8461805000013,
                    "velocity": 0.14173228346456693,
                    "duration": 2.7692309999999907
                },
                {
                    "name": "D#3",
                    "midi": 51,
                    "time": 319.8461805000013,
                    "velocity": 0.1732283464566929,
                    "duration": 2.7692309999999907
                },
                {
                    "name": "D#3",
                    "midi": 51,
                    "time": 322.6154115000013,
                    "velocity": 0.28346456692913385,
                    "duration": 0.6923077499999977
                },
                {
                    "name": "D#2",
                    "midi": 39,
                    "time": 322.6154115000013,
                    "velocity": 0.23622047244094488,
                    "duration": 0.7115385208333578
                },
                {
                    "name": "G#2",
                    "midi": 44,
                    "time": 323.3077192500013,
                    "velocity": 0.2440944881889764,
                    "duration": 0.25000002083339723
                },
                {
                    "name": "D#3",
                    "midi": 51,
                    "time": 323.3077192500013,
                    "velocity": 0.29133858267716534,
                    "duration": 0.23076925000003712
                },
                {
                    "name": "D#3",
                    "midi": 51,
                    "time": 323.53848850000134,
                    "velocity": 0.29133858267716534,
                    "duration": 0.4615385000000174
                },
                {
                    "name": "D#2",
                    "midi": 39,
                    "time": 323.53848850000134,
                    "velocity": 0.2440944881889764,
                    "duration": 0.4615385000000174
                },
                {
                    "name": "D#2",
                    "midi": 39,
                    "time": 324.00002700000135,
                    "velocity": 0.2440944881889764,
                    "duration": 0.7115385208333578
                },
                {
                    "name": "D#3",
                    "midi": 51,
                    "time": 324.00002700000135,
                    "velocity": 0.29133858267716534,
                    "duration": 0.6923077499999977
                },
                {
                    "name": "D#3",
                    "midi": 51,
                    "time": 324.69233475000135,
                    "velocity": 0.28346456692913385,
                    "duration": 0.23076925000003712
                },
                {
                    "name": "G#2",
                    "midi": 44,
                    "time": 324.69233475000135,
                    "velocity": 0.23622047244094488,
                    "duration": 0.25000002083339723
                },
                {
                    "name": "D#2",
                    "midi": 39,
                    "time": 324.9231040000014,
                    "velocity": 0.23622047244094488,
                    "duration": 0.4615385000000174
                },
                {
                    "name": "D#3",
                    "midi": 51,
                    "time": 324.9231040000014,
                    "velocity": 0.28346456692913385,
                    "duration": 0.4615385000000174
                },
                {
                    "name": "D2",
                    "midi": 38,
                    "time": 325.3846425000014,
                    "velocity": 0.3700787401574803,
                    "duration": 2.7692309999999907
                },
                {
                    "name": "D3",
                    "midi": 50,
                    "time": 325.3846425000014,
                    "velocity": 0.4409448818897638,
                    "duration": 2.7692309999999907
                },
                {
                    "name": "D#3",
                    "midi": 51,
                    "time": 328.1538735000014,
                    "velocity": 0.28346456692913385,
                    "duration": 1.8461540000000127
                },
                {
                    "name": "D#2",
                    "midi": 39,
                    "time": 328.1538735000014,
                    "velocity": 0.23622047244094488,
                    "duration": 1.8461540000000127
                },
                {
                    "name": "F#2",
                    "midi": 42,
                    "time": 335.07695100000143,
                    "velocity": 0.33858267716535434,
                    "duration": 0.9230769999999779
                },
                {
                    "name": "F#3",
                    "midi": 54,
                    "time": 335.07695100000143,
                    "velocity": 0.47244094488188976,
                    "duration": 0.9230769999999779
                },
                {
                    "name": "F#3",
                    "midi": 54,
                    "time": 336.0000280000014,
                    "velocity": 0.4645669291338583,
                    "duration": 0.4615385000000174
                },
                {
                    "name": "F#2",
                    "midi": 42,
                    "time": 336.0000280000014,
                    "velocity": 0.33070866141732286,
                    "duration": 0.4615385000000174
                },
                {
                    "name": "F2",
                    "midi": 41,
                    "time": 336.4615665000014,
                    "velocity": 0.33070866141732286,
                    "duration": 0.9230769999999779
                },
                {
                    "name": "F3",
                    "midi": 53,
                    "time": 336.4615665000014,
                    "velocity": 0.4645669291338583,
                    "duration": 0.9230769999999779
                },
                {
                    "name": "E3",
                    "midi": 52,
                    "time": 337.3846435000014,
                    "velocity": 0.5275590551181102,
                    "duration": 0.4615385000000174
                },
                {
                    "name": "E2",
                    "midi": 40,
                    "time": 337.3846435000014,
                    "velocity": 0.3700787401574803,
                    "duration": 0.4615385000000174
                },
                {
                    "name": "D#2",
                    "midi": 39,
                    "time": 337.8461820000014,
                    "velocity": 0.4094488188976378,
                    "duration": 1.3846154999999953
                },
                {
                    "name": "D#3",
                    "midi": 51,
                    "time": 337.8461820000014,
                    "velocity": 0.5826771653543307,
                    "duration": 1.3846154999999953
                },
                {
                    "name": "D#3",
                    "midi": 51,
                    "time": 339.2307975000014,
                    "velocity": 0.3464566929133858,
                    "duration": 1.153846250000015
                },
                {
                    "name": "D#2",
                    "midi": 39,
                    "time": 339.2307975000014,
                    "velocity": 0.2440944881889764,
                    "duration": 1.153846250000015
                },
                {
                    "name": "G#2",
                    "midi": 44,
                    "time": 340.38464375000143,
                    "velocity": 0.33070866141732286,
                    "duration": 0.23076924999998027
                },
                {
                    "name": "D#3",
                    "midi": 51,
                    "time": 340.38464375000143,
                    "velocity": 0.33070866141732286,
                    "duration": 0.23076924999998027
                },
                {
                    "name": "D#3",
                    "midi": 51,
                    "time": 340.6154130000014,
                    "velocity": 0.33070866141732286,
                    "duration": 1.153846250000015
                },
                {
                    "name": "G#2",
                    "midi": 44,
                    "time": 340.6154130000014,
                    "velocity": 0.33070866141732286,
                    "duration": 1.3846154999999953
                },
                {
                    "name": "D#3",
                    "midi": 51,
                    "time": 341.7692592500014,
                    "velocity": 0.1889763779527559,
                    "duration": 0.23076924999998027
                },
                {
                    "name": "D#3",
                    "midi": 51,
                    "time": 342.0000285000014,
                    "velocity": 0.1889763779527559,
                    "duration": 3.9230772500000057
                },
                {
                    "name": "G#2",
                    "midi": 44,
                    "time": 343.15387475000136,
                    "velocity": 0.2283464566929134,
                    "duration": 0.23076924999998027
                },
                {
                    "name": "G#2",
                    "midi": 44,
                    "time": 343.38464400000134,
                    "velocity": 0.2283464566929134,
                    "duration": 0.7115385208333578
                },
                {
                    "name": "A#2",
                    "midi": 46,
                    "time": 344.07695175000134,
                    "velocity": 0.2283464566929134,
                    "duration": 0.25000002083339723
                },
                {
                    "name": "G#2",
                    "midi": 44,
                    "time": 344.3077210000014,
                    "velocity": 0.2283464566929134,
                    "duration": 0.4615385000000174
                },
                {
                    "name": "A#2",
                    "midi": 46,
                    "time": 344.7692595000014,
                    "velocity": 0.1968503937007874,
                    "duration": 2.5384617500000104
                },
                {
                    "name": "D#3",
                    "midi": 51,
                    "time": 345.9231057500014,
                    "velocity": 0.1968503937007874,
                    "duration": 0.23076924999998027
                },
                {
                    "name": "D#3",
                    "midi": 51,
                    "time": 346.1538750000014,
                    "velocity": 0.1968503937007874,
                    "duration": 3.6923080000000255
                },
                {
                    "name": "D#2",
                    "midi": 39,
                    "time": 347.3077212500014,
                    "velocity": 0.2283464566929134,
                    "duration": 0.23076924999998027
                },
                {
                    "name": "D#2",
                    "midi": 39,
                    "time": 347.5384905000014,
                    "velocity": 0.2283464566929134,
                    "duration": 0.7115385208333578
                },
                {
                    "name": "G#2",
                    "midi": 44,
                    "time": 348.2307982500014,
                    "velocity": 0.2283464566929134,
                    "duration": 0.25000002083339723
                },
                {
                    "name": "D#2",
                    "midi": 39,
                    "time": 348.4615675000014,
                    "velocity": 0.2283464566929134,
                    "duration": 0.4615385000000174
                },
                {
                    "name": "G#2",
                    "midi": 44,
                    "time": 348.92310600000144,
                    "velocity": 0.1889763779527559,
                    "duration": 2.5384617499999536
                },
                {
                    "name": "D#3",
                    "midi": 51,
                    "time": 350.0769522500014,
                    "velocity": 0.1968503937007874,
                    "duration": 0.23076924999998027
                },
                {
                    "name": "D#3",
                    "midi": 51,
                    "time": 350.3077215000014,
                    "velocity": 0.1968503937007874,
                    "duration": 4.1538465000001
                },
                {
                    "name": "C3",
                    "midi": 48,
                    "time": 351.4615677500014,
                    "velocity": 0.2283464566929134,
                    "duration": 0.23076924999998027
                },
                {
                    "name": "C3",
                    "midi": 48,
                    "time": 351.6923370000014,
                    "velocity": 0.2283464566929134,
                    "duration": 0.7115385208333578
                },
                {
                    "name": "C#3",
                    "midi": 49,
                    "time": 352.38464475000137,
                    "velocity": 0.2204724409448819,
                    "duration": 0.25000002083339723
                },
                {
                    "name": "C3",
                    "midi": 48,
                    "time": 352.6154140000014,
                    "velocity": 0.23622047244094488,
                    "duration": 0.4615385000000174
                },
                {
                    "name": "C#3",
                    "midi": 49,
                    "time": 353.0769525000014,
                    "velocity": 0.28346456692913385,
                    "duration": 0.7115385208333578
                },
                {
                    "name": "C3",
                    "midi": 48,
                    "time": 353.7692602500014,
                    "velocity": 0.29133858267716534,
                    "duration": 0.23076925000003712
                },
                {
                    "name": "C3",
                    "midi": 48,
                    "time": 354.00002950000146,
                    "velocity": 0.29133858267716534,
                    "duration": 0.4615385000000174
                },
                {
                    "name": "D#3",
                    "midi": 51,
                    "time": 354.4615680000015,
                    "velocity": 0.29133858267716534,
                    "duration": 1.3846154999999953
                },
                {
                    "name": "D#2",
                    "midi": 39,
                    "time": 355.8461835000015,
                    "velocity": 0.3464566929133858,
                    "duration": 1.153846250000015
                },
                {
                    "name": "D#3",
                    "midi": 51,
                    "time": 355.8461835000015,
                    "velocity": 0.29133858267716534,
                    "duration": 1.153846250000015
                },
                {
                    "name": "D#3",
                    "midi": 51,
                    "time": 357.0000297500015,
                    "velocity": 0.2283464566929134,
                    "duration": 0.23076924999998027
                },
                {
                    "name": "G#2",
                    "midi": 44,
                    "time": 357.0000297500015,
                    "velocity": 0.2283464566929134,
                    "duration": 0.23076924999998027
                },
                {
                    "name": "G#2",
                    "midi": 44,
                    "time": 357.23079900000147,
                    "velocity": 0.2283464566929134,
                    "duration": 1.3846155000000522
                },
                {
                    "name": "D#3",
                    "midi": 51,
                    "time": 357.23079900000147,
                    "velocity": 0.2283464566929134,
                    "duration": 1.3846155000000522
                },
                {
                    "name": "C4",
                    "midi": 60,
                    "time": 359.76926075000154,
                    "velocity": 0.2283464566929134,
                    "duration": 0.23076925000003712
                },
                {
                    "name": "D#3",
                    "midi": 51,
                    "time": 359.76926075000154,
                    "velocity": 0.2283464566929134,
                    "duration": 0.23076925000003712
                },
                {
                    "name": "D#3",
                    "midi": 51,
                    "time": 360.0000300000016,
                    "velocity": 0.29133858267716534,
                    "duration": 0.6923077499999977
                },
                {
                    "name": "C4",
                    "midi": 60,
                    "time": 360.0000300000016,
                    "velocity": 0.2283464566929134,
                    "duration": 0.7115385208333578
                },
                {
                    "name": "C#4",
                    "midi": 61,
                    "time": 360.69233775000157,
                    "velocity": 0.2283464566929134,
                    "duration": 0.25000002083339723
                },
                {
                    "name": "D#3",
                    "midi": 51,
                    "time": 360.69233775000157,
                    "velocity": 0.2283464566929134,
                    "duration": 0.23076925000003712
                },
                {
                    "name": "D#3",
                    "midi": 51,
                    "time": 360.9231070000016,
                    "velocity": 0.2283464566929134,
                    "duration": 0.4615385000000174
                },
                {
                    "name": "C4",
                    "midi": 60,
                    "time": 360.9231070000016,
                    "velocity": 0.2283464566929134,
                    "duration": 0.4615385000000174
                },
                {
                    "name": "D#3",
                    "midi": 51,
                    "time": 361.3846455000016,
                    "velocity": 0.1968503937007874,
                    "duration": 2.5384617500000104
                },
                {
                    "name": "C#4",
                    "midi": 61,
                    "time": 361.3846455000016,
                    "velocity": 0.1968503937007874,
                    "duration": 2.5384617500000104
                },
                {
                    "name": "A#3",
                    "midi": 58,
                    "time": 363.92310725000164,
                    "velocity": 0.2283464566929134,
                    "duration": 0.23076924999998027
                },
                {
                    "name": "D#3",
                    "midi": 51,
                    "time": 363.92310725000164,
                    "velocity": 0.2283464566929134,
                    "duration": 0.23076924999998027
                },
                {
                    "name": "A#3",
                    "midi": 58,
                    "time": 364.1538765000016,
                    "velocity": 0.2283464566929134,
                    "duration": 0.7115385208333578
                },
                {
                    "name": "D#3",
                    "midi": 51,
                    "time": 364.1538765000016,
                    "velocity": 0.2283464566929134,
                    "duration": 0.6923077499999977
                },
                {
                    "name": "C4",
                    "midi": 60,
                    "time": 364.8461842500016,
                    "velocity": 0.2283464566929134,
                    "duration": 0.25000002083339723
                },
                {
                    "name": "D#3",
                    "midi": 51,
                    "time": 364.8461842500016,
                    "velocity": 0.2283464566929134,
                    "duration": 0.23076925000003712
                },
                {
                    "name": "D#3",
                    "midi": 51,
                    "time": 365.07695350000165,
                    "velocity": 0.2283464566929134,
                    "duration": 0.4615385000000174
                },
                {
                    "name": "C#4",
                    "midi": 61,
                    "time": 365.07695350000165,
                    "velocity": 0.2283464566929134,
                    "duration": 0.4615385000000174
                },
                {
                    "name": "C4",
                    "midi": 60,
                    "time": 365.53849200000167,
                    "velocity": 0.1889763779527559,
                    "duration": 2.5384617500000104
                },
                {
                    "name": "D#3",
                    "midi": 51,
                    "time": 365.53849200000167,
                    "velocity": 0.1889763779527559,
                    "duration": 2.5384617500000104
                },
                {
                    "name": "D#3",
                    "midi": 51,
                    "time": 368.0769537500017,
                    "velocity": 0.2283464566929134,
                    "duration": 0.23076925000003712
                },
                {
                    "name": "C4",
                    "midi": 60,
                    "time": 368.0769537500017,
                    "velocity": 0.2283464566929134,
                    "duration": 0.23076925000003712
                },
                {
                    "name": "C4",
                    "midi": 60,
                    "time": 368.3077230000017,
                    "velocity": 0.2283464566929134,
                    "duration": 0.7115385208333578
                },
                {
                    "name": "D#3",
                    "midi": 51,
                    "time": 368.3077230000017,
                    "velocity": 0.2283464566929134,
                    "duration": 0.6923077499999977
                },
                {
                    "name": "C#4",
                    "midi": 61,
                    "time": 369.0000307500017,
                    "velocity": 0.2677165354330709,
                    "duration": 0.25000002083339723
                },
                {
                    "name": "D#3",
                    "midi": 51,
                    "time": 369.0000307500017,
                    "velocity": 0.2283464566929134,
                    "duration": 0.23076925000003712
                },
                {
                    "name": "D#3",
                    "midi": 51,
                    "time": 369.23080000000175,
                    "velocity": 0.23622047244094488,
                    "duration": 0.4615385000000174
                },
                {
                    "name": "C4",
                    "midi": 60,
                    "time": 369.23080000000175,
                    "velocity": 0.23622047244094488,
                    "duration": 0.4615385000000174
                },
                {
                    "name": "C#4",
                    "midi": 61,
                    "time": 369.69233850000177,
                    "velocity": 0.33070866141732286,
                    "duration": 0.7115385208333578
                },
                {
                    "name": "D#3",
                    "midi": 51,
                    "time": 369.69233850000177,
                    "velocity": 0.28346456692913385,
                    "duration": 0.6923077499999977
                },
                {
                    "name": "D#3",
                    "midi": 51,
                    "time": 370.38464625000177,
                    "velocity": 0.29133858267716534,
                    "duration": 0.23076925000003712
                },
                {
                    "name": "C4",
                    "midi": 60,
                    "time": 370.38464625000177,
                    "velocity": 0.29133858267716534,
                    "duration": 0.23076925000003712
                },
                {
                    "name": "C4",
                    "midi": 60,
                    "time": 370.6154155000018,
                    "velocity": 0.29133858267716534,
                    "duration": 0.4615385000000174
                },
                {
                    "name": "D#3",
                    "midi": 51,
                    "time": 370.6154155000018,
                    "velocity": 0.29133858267716534,
                    "duration": 0.4615385000000174
                },
                {
                    "name": "D#4",
                    "midi": 63,
                    "time": 371.0769540000018,
                    "velocity": 0.3228346456692913,
                    "duration": 1.3846154999999953
                },
                {
                    "name": "D#3",
                    "midi": 51,
                    "time": 371.0769540000018,
                    "velocity": 0.3228346456692913,
                    "duration": 1.3846154999999953
                },
                {
                    "name": "C#4",
                    "midi": 61,
                    "time": 372.4615695000018,
                    "velocity": 0.3700787401574803,
                    "duration": 1.153846250000015
                },
                {
                    "name": "D#4",
                    "midi": 63,
                    "time": 372.4615695000018,
                    "velocity": 0.4409448818897638,
                    "duration": 1.153846250000015
                },
                {
                    "name": "D#3",
                    "midi": 51,
                    "time": 372.4615695000018,
                    "velocity": 0.3700787401574803,
                    "duration": 1.153846250000015
                },
                {
                    "name": "C4",
                    "midi": 60,
                    "time": 373.61541575000183,
                    "velocity": 0.41732283464566927,
                    "duration": 0.23076924999998027
                },
                {
                    "name": "D#4",
                    "midi": 63,
                    "time": 373.61541575000183,
                    "velocity": 0.49606299212598426,
                    "duration": 0.23076924999998027
                },
                {
                    "name": "G#3",
                    "midi": 56,
                    "time": 373.61541575000183,
                    "velocity": 0.41732283464566927,
                    "duration": 0.23076924999998027
                },
                {
                    "name": "C4",
                    "midi": 60,
                    "time": 373.8461850000018,
                    "velocity": 0.4251968503937008,
                    "duration": 4.153846499999986
                },
                {
                    "name": "D#4",
                    "midi": 63,
                    "time": 373.8461850000018,
                    "velocity": 0.5039370078740157,
                    "duration": 4.153846499999986
                },
                {
                    "name": "G#3",
                    "midi": 56,
                    "time": 373.8461850000018,
                    "velocity": 0.4251968503937008,
                    "duration": 4.153846499999986
                }
            ],
            "controlChanges": {
                "7": [
                    {
                        "number": 7,
                        "time": 0,
                        "value": 0.7874015748031497
                    }
                ],
                "10": [
                    {
                        "number": 10,
                        "time": 0,
                        "value": 0.5039370078740157
                    }
                ],
                "64": [
                    {
                        "number": 64,
                        "time": 0,
                        "value": 0
                    },
                    {
                        "number": 64,
                        "time": 2.715384841666667,
                        "value": 0
                    },
                    {
                        "number": 64,
                        "time": 74.78462161666663,
                        "value": 1
                    },
                    {
                        "number": 64,
                        "time": 78.97692965833328,
                        "value": 0
                    },
                    {
                        "number": 64,
                        "time": 79.14039121041661,
                        "value": 1
                    },
                    {
                        "number": 64,
                        "time": 83.0865453854166,
                        "value": 0
                    },
                    {
                        "number": 64,
                        "time": 83.2942377104166,
                        "value": 1
                    },
                    {
                        "number": 64,
                        "time": 84.49231473333326,
                        "value": 0
                    },
                    {
                        "number": 64,
                        "time": 84.67885321041659,
                        "value": 0.9921259842519685
                    },
                    {
                        "number": 64,
                        "time": 85.85962253958326,
                        "value": 0
                    },
                    {
                        "number": 64,
                        "time": 86.03654563124992,
                        "value": 0.9921259842519685
                    },
                    {
                        "number": 64,
                        "time": 87.24039188541659,
                        "value": 0
                    },
                    {
                        "number": 64,
                        "time": 87.43462267083325,
                        "value": 1
                    },
                    {
                        "number": 64,
                        "time": 91.39423838541657,
                        "value": 0
                    },
                    {
                        "number": 64,
                        "time": 91.80193072708323,
                        "value": 1
                    },
                    {
                        "number": 64,
                        "time": 94.17500784791658,
                        "value": 0
                    },
                    {
                        "number": 64,
                        "time": 94.35193093958324,
                        "value": 1
                    },
                    {
                        "number": 64,
                        "time": 95.54423873124992,
                        "value": 0
                    },
                    {
                        "number": 64,
                        "time": 95.84616183333326,
                        "value": 0.9921259842519685
                    },
                    {
                        "number": 64,
                        "time": 96.95385423333326,
                        "value": 0.007874015748031496
                    },
                    {
                        "number": 64,
                        "time": 99.85577755208328,
                        "value": 1
                    },
                    {
                        "number": 64,
                        "time": 101.10193150208329,
                        "value": 0
                    },
                    {
                        "number": 64,
                        "time": 101.51154692083328,
                        "value": 0.984251968503937
                    },
                    {
                        "number": 64,
                        "time": 102.48462392499995,
                        "value": 0
                    },
                    {
                        "number": 64,
                        "time": 102.76154702499996,
                        "value": 0.9921259842519685
                    },
                    {
                        "number": 64,
                        "time": 103.8596240395833,
                        "value": 0
                    },
                    {
                        "number": 64,
                        "time": 104.09039328958329,
                        "value": 1
                    },
                    {
                        "number": 64,
                        "time": 108.00770130833331,
                        "value": 0
                    },
                    {
                        "number": 64,
                        "time": 108.35385518333331,
                        "value": 0.9921259842519685
                    },
                    {
                        "number": 64,
                        "time": 109.40962450208332,
                        "value": 0
                    },
                    {
                        "number": 64,
                        "time": 109.73847068333332,
                        "value": 0.9921259842519685
                    },
                    {
                        "number": 64,
                        "time": 110.78270153958333,
                        "value": 0
                    },
                    {
                        "number": 64,
                        "time": 111.04039386875,
                        "value": 0.9921259842519685
                    },
                    {
                        "number": 64,
                        "time": 112.16347088541667,
                        "value": 0
                    },
                    {
                        "number": 64,
                        "time": 112.50770168333334,
                        "value": 1
                    },
                    {
                        "number": 64,
                        "time": 113.56731715625001,
                        "value": 0
                    },
                    {
                        "number": 64,
                        "time": 113.86539410416668,
                        "value": 1
                    },
                    {
                        "number": 64,
                        "time": 114.94616342500002,
                        "value": 0.007874015748031496
                    },
                    {
                        "number": 64,
                        "time": 115.25000960416669,
                        "value": 0.984251968503937
                    },
                    {
                        "number": 64,
                        "time": 116.31539430833337,
                        "value": 0
                    },
                    {
                        "number": 64,
                        "time": 116.72500972708336,
                        "value": 1
                    },
                    {
                        "number": 64,
                        "time": 119.10193300208337,
                        "value": 0
                    },
                    {
                        "number": 64,
                        "time": 120.59808697291672,
                        "value": 0.9921259842519685
                    },
                    {
                        "number": 64,
                        "time": 121.87693323333339,
                        "value": 0
                    },
                    {
                        "number": 64,
                        "time": 122.07693325000005,
                        "value": 1
                    },
                    {
                        "number": 64,
                        "time": 123.24424103958339,
                        "value": 0
                    },
                    {
                        "number": 64,
                        "time": 123.43462567083338,
                        "value": 1
                    },
                    {
                        "number": 64,
                        "time": 124.62501038541673,
                        "value": 0
                    },
                    {
                        "number": 64,
                        "time": 124.85770271250006,
                        "value": 1
                    },
                    {
                        "number": 64,
                        "time": 127.39039523125007,
                        "value": 0
                    },
                    {
                        "number": 64,
                        "time": 133.0769341666666,
                        "value": 1
                    },
                    {
                        "number": 64,
                        "time": 137.0903960395832,
                        "value": 0
                    },
                    {
                        "number": 64,
                        "time": 137.2807806708332,
                        "value": 0.9921259842519685
                    },
                    {
                        "number": 64,
                        "time": 141.2365502312498,
                        "value": 0
                    },
                    {
                        "number": 64,
                        "time": 141.62693487916647,
                        "value": 1
                    },
                    {
                        "number": 64,
                        "time": 145.39039673124972,
                        "value": 0
                    },
                    {
                        "number": 64,
                        "time": 196.3692471333328,
                        "value": 0.9921259842519685
                    },
                    {
                        "number": 64,
                        "time": 197.79617032916613,
                        "value": 0
                    },
                    {
                        "number": 64,
                        "time": 200.53847824999946,
                        "value": 1
                    },
                    {
                        "number": 64,
                        "time": 201.8961706708328,
                        "value": 0
                    },
                    {
                        "number": 64,
                        "time": 204.70770936666614,
                        "value": 1
                    },
                    {
                        "number": 64,
                        "time": 206.03655563124948,
                        "value": 0
                    },
                    {
                        "number": 64,
                        "time": 213.01347928958282,
                        "value": 1
                    },
                    {
                        "number": 64,
                        "time": 214.3577101708328,
                        "value": 0
                    },
                    {
                        "number": 64,
                        "time": 217.18078732916615,
                        "value": 1
                    },
                    {
                        "number": 64,
                        "time": 218.51155667083282,
                        "value": 0
                    },
                    {
                        "number": 64,
                        "time": 221.32117228958282,
                        "value": 1
                    },
                    {
                        "number": 64,
                        "time": 222.62501855208282,
                        "value": 0
                    },
                    {
                        "number": 64,
                        "time": 232.62309630833283,
                        "value": 0.9921259842519685
                    },
                    {
                        "number": 64,
                        "time": 236.7692504999995,
                        "value": 0
                    },
                    {
                        "number": 64,
                        "time": 236.98655821041615,
                        "value": 1
                    },
                    {
                        "number": 64,
                        "time": 240.9288662312495,
                        "value": 0
                    },
                    {
                        "number": 64,
                        "time": 241.12694317083282,
                        "value": 1
                    },
                    {
                        "number": 64,
                        "time": 242.32117403958281,
                        "value": 0
                    },
                    {
                        "number": 64,
                        "time": 242.4711740520828,
                        "value": 1
                    },
                    {
                        "number": 64,
                        "time": 243.7173280020828,
                        "value": 0
                    },
                    {
                        "number": 64,
                        "time": 243.95002032916614,
                        "value": 0.9921259842519685
                    },
                    {
                        "number": 64,
                        "time": 245.08848196249946,
                        "value": 0
                    },
                    {
                        "number": 64,
                        "time": 245.33463582916613,
                        "value": 1
                    },
                    {
                        "number": 64,
                        "time": 249.24040538541612,
                        "value": 0
                    },
                    {
                        "number": 64,
                        "time": 249.48848232916612,
                        "value": 0.9921259842519685
                    },
                    {
                        "number": 64,
                        "time": 252.0096363854161,
                        "value": 0
                    },
                    {
                        "number": 64,
                        "time": 252.19040563124943,
                        "value": 0.9921259842519685
                    },
                    {
                        "number": 64,
                        "time": 253.39232880833273,
                        "value": 0
                    },
                    {
                        "number": 64,
                        "time": 253.64232882916608,
                        "value": 0.9921259842519685
                    },
                    {
                        "number": 64,
                        "time": 254.78271353958274,
                        "value": 0
                    },
                    {
                        "number": 64,
                        "time": 257.7557907104161,
                        "value": 1
                    },
                    {
                        "number": 64,
                        "time": 258.9480985020828,
                        "value": 0
                    },
                    {
                        "number": 64,
                        "time": 259.19425236874946,
                        "value": 0.984251968503937
                    },
                    {
                        "number": 64,
                        "time": 260.3346370791662,
                        "value": 0
                    },
                    {
                        "number": 64,
                        "time": 260.6615601833329,
                        "value": 0.9921259842519685
                    },
                    {
                        "number": 64,
                        "time": 261.70771411666624,
                        "value": 0
                    },
                    {
                        "number": 64,
                        "time": 261.9365602895829,
                        "value": 1
                    },
                    {
                        "number": 64,
                        "time": 265.85386830833306,
                        "value": 0
                    },
                    {
                        "number": 64,
                        "time": 266.1730991041664,
                        "value": 0.9921259842519685
                    },
                    {
                        "number": 64,
                        "time": 267.25002227083314,
                        "value": 0
                    },
                    {
                        "number": 64,
                        "time": 267.50194536874983,
                        "value": 0.9921259842519685
                    },
                    {
                        "number": 64,
                        "time": 268.64040700208324,
                        "value": 0
                    },
                    {
                        "number": 64,
                        "time": 268.9154070249999,
                        "value": 0.9921259842519685
                    },
                    {
                        "number": 64,
                        "time": 270.01348403958326,
                        "value": 0
                    },
                    {
                        "number": 64,
                        "time": 270.3000225249999,
                        "value": 1
                    },
                    {
                        "number": 64,
                        "time": 271.40771492499994,
                        "value": 0
                    },
                    {
                        "number": 64,
                        "time": 271.76540726249993,
                        "value": 1
                    },
                    {
                        "number": 64,
                        "time": 272.7961765791667,
                        "value": 0
                    },
                    {
                        "number": 64,
                        "time": 273.2038689208334,
                        "value": 0.984251968503937
                    },
                    {
                        "number": 64,
                        "time": 274.1634843854168,
                        "value": 0
                    },
                    {
                        "number": 64,
                        "time": 274.46156133333346,
                        "value": 1
                    },
                    {
                        "number": 64,
                        "time": 276.9365615395835,
                        "value": 0
                    },
                    {
                        "number": 64,
                        "time": 278.4981001312502,
                        "value": 0.9921259842519685
                    },
                    {
                        "number": 64,
                        "time": 279.71925407916694,
                        "value": 0
                    },
                    {
                        "number": 64,
                        "time": 279.90963871041697,
                        "value": 1
                    },
                    {
                        "number": 64,
                        "time": 281.092331116667,
                        "value": 0
                    },
                    {
                        "number": 64,
                        "time": 281.2404080520837,
                        "value": 1
                    },
                    {
                        "number": 64,
                        "time": 282.47502353958373,
                        "value": 0
                    },
                    {
                        "number": 64,
                        "time": 282.9231005000004,
                        "value": 1
                    },
                    {
                        "number": 64,
                        "time": 285.25386992500046,
                        "value": 0
                    },
                    {
                        "number": 64,
                        "time": 291.0327165604173,
                        "value": 1
                    },
                    {
                        "number": 64,
                        "time": 294.93079380833416,
                        "value": 0
                    },
                    {
                        "number": 64,
                        "time": 295.11348613125085,
                        "value": 0.9921259842519685
                    },
                    {
                        "number": 64,
                        "time": 299.08271723125097,
                        "value": 0
                    },
                    {
                        "number": 64,
                        "time": 299.428871106251,
                        "value": 1
                    },
                    {
                        "number": 64,
                        "time": 303.2750252729178,
                        "value": 0
                    },
                    {
                        "number": 64,
                        "time": 341.75387463333476,
                        "value": 0.9921259842519685
                    },
                    {
                        "number": 64,
                        "time": 343.14041321041805,
                        "value": 0
                    },
                    {
                        "number": 64,
                        "time": 345.9231057500014,
                        "value": 1
                    },
                    {
                        "number": 64,
                        "time": 347.2807981708347,
                        "value": 0
                    },
                    {
                        "number": 64,
                        "time": 350.09233686666806,
                        "value": 1
                    },
                    {
                        "number": 64,
                        "time": 351.4750292895847,
                        "value": 0
                    },
                    {
                        "number": 64,
                        "time": 358.4250298687515,
                        "value": 1
                    },
                    {
                        "number": 64,
                        "time": 359.80964536875155,
                        "value": 0
                    },
                    {
                        "number": 64,
                        "time": 362.51156867083495,
                        "value": 1
                    },
                    {
                        "number": 64,
                        "time": 363.8827226312516,
                        "value": 0
                    },
                    {
                        "number": 64,
                        "time": 366.7192613291683,
                        "value": 1
                    },
                    {
                        "number": 64,
                        "time": 368.0884922125017,
                        "value": 0
                    }
                ],
                "91": [
                    {
                        "number": 91,
                        "time": 2.769231,
                        "value": 1
                    },
                    {
                        "number": 91,
                        "time": 74.76923699999996,
                        "value": 1
                    },
                    {
                        "number": 91,
                        "time": 99.69231599999995,
                        "value": 1
                    },
                    {
                        "number": 91,
                        "time": 148.1538584999997,
                        "value": 1
                    },
                    {
                        "number": 91,
                        "time": 232.6154039999995,
                        "value": 1
                    },
                    {
                        "number": 91,
                        "time": 257.5384829999994,
                        "value": 1
                    },
                    {
                        "number": 91,
                        "time": 306.00002550000113,
                        "value": 1
                    }
                ]
            },
            "id": 2,
            "name": "Piano Left",
            "instrumentNumber": 0,
            "instrument": "acoustic grand piano",
            "instrumentFamily": "piano",
            "channelNumber": 0,
            "isPercussion": false
        },
        {
            "startTime": 0,
            "duration": 0,
            "length": 0,
            "notes": [],
            "controlChanges": {},
            "id": 3,
            "name": "Schubert: Moment Musicau No.2 in Ab, Op. 94 - D 780"
        },
        {
            "startTime": 0,
            "duration": 0,
            "length": 0,
            "notes": [],
            "controlChanges": {},
            "id": 4,
            "name": "Copyright  1997 by Bernd Krueger"
        },
        {
            "startTime": 0,
            "duration": 0,
            "length": 0,
            "notes": [],
            "controlChanges": {},
            "id": 5,
            "name": "http://www.piano-midi.de"
        },
        {
            "startTime": 0,
            "duration": 0,
            "length": 0,
            "notes": [],
            "controlChanges": {},
            "id": 6,
            "name": "Edition: 2014-03-16"
        }
    ]
}