{
    "header": {
        "PPQ": 480,
        "timeSignature": [
            4,
            4
        ],
        "bpm": 145.50004728751537,
        "name": "Wandererfantasie D760, 4 Satz"
    },
    "startTime": 0,
    "duration": 202.0617900000015,
    "tracks": [
        {
            "startTime": 0,
            "duration": 0,
            "length": 0,
            "notes": [],
            "controlChanges": {},
            "id": 0,
            "name": "Wandererfantasie D760, 4 Satz"
        },
        {
            "startTime": 13.195872,
            "duration": 202.0617900000015,
            "length": 2027,
            "notes": [
                {
                    "name": "G3",
                    "midi": 55,
                    "time": 13.195872,
                    "velocity": 0.5590551181102362,
                    "duration": 0.41237100000000027
                },
                {
                    "name": "G4",
                    "midi": 67,
                    "time": 13.195872,
                    "velocity": 0.6614173228346457,
                    "duration": 0.41237100000000027
                },
                {
                    "name": "G3",
                    "midi": 55,
                    "time": 13.608243,
                    "velocity": 0.5275590551181102,
                    "duration": 0.0773195624999996
                },
                {
                    "name": "G4",
                    "midi": 67,
                    "time": 13.608243,
                    "velocity": 0.6220472440944882,
                    "duration": 0.0773195624999996
                },
                {
                    "name": "G3",
                    "midi": 55,
                    "time": 13.8144285,
                    "velocity": 0.5275590551181102,
                    "duration": 0.0773195624999996
                },
                {
                    "name": "G4",
                    "midi": 67,
                    "time": 13.8144285,
                    "velocity": 0.6220472440944882,
                    "duration": 0.0773195624999996
                },
                {
                    "name": "G3",
                    "midi": 55,
                    "time": 14.020614,
                    "velocity": 0.5275590551181102,
                    "duration": 0.41237100000000027
                },
                {
                    "name": "G4",
                    "midi": 67,
                    "time": 14.020614,
                    "velocity": 0.6220472440944882,
                    "duration": 0.41237100000000027
                },
                {
                    "name": "G3",
                    "midi": 55,
                    "time": 14.432985,
                    "velocity": 0.5354330708661418,
                    "duration": 0.0773195624999996
                },
                {
                    "name": "G4",
                    "midi": 67,
                    "time": 14.432985,
                    "velocity": 0.6299212598425197,
                    "duration": 0.0773195624999996
                },
                {
                    "name": "G3",
                    "midi": 55,
                    "time": 14.6391705,
                    "velocity": 0.5433070866141733,
                    "duration": 0.0773195624999996
                },
                {
                    "name": "G4",
                    "midi": 67,
                    "time": 14.6391705,
                    "velocity": 0.6377952755905512,
                    "duration": 0.0773195624999996
                },
                {
                    "name": "G#3",
                    "midi": 56,
                    "time": 14.845356,
                    "velocity": 0.5984251968503937,
                    "duration": 0.0773195624999996
                },
                {
                    "name": "G#4",
                    "midi": 68,
                    "time": 14.845356,
                    "velocity": 0.7086614173228346,
                    "duration": 0.0773195624999996
                },
                {
                    "name": "A3",
                    "midi": 57,
                    "time": 15.257727000000001,
                    "velocity": 0.5905511811023622,
                    "duration": 0.6185565000000004
                },
                {
                    "name": "A4",
                    "midi": 69,
                    "time": 15.257727000000001,
                    "velocity": 0.7007874015748031,
                    "duration": 0.6185565000000004
                },
                {
                    "name": "B3",
                    "midi": 59,
                    "time": 15.876283500000001,
                    "velocity": 0.5354330708661418,
                    "duration": 0.0773195624999996
                },
                {
                    "name": "B4",
                    "midi": 71,
                    "time": 15.876283500000001,
                    "velocity": 0.6299212598425197,
                    "duration": 0.0773195624999996
                },
                {
                    "name": "C4",
                    "midi": 60,
                    "time": 16.082469,
                    "velocity": 0.5275590551181102,
                    "duration": 0.07731956250000138
                },
                {
                    "name": "C5",
                    "midi": 72,
                    "time": 16.082469,
                    "velocity": 0.6220472440944882,
                    "duration": 0.07731956250000138
                },
                {
                    "name": "B3",
                    "midi": 59,
                    "time": 16.2886545,
                    "velocity": 0.5354330708661418,
                    "duration": 0.07731956250000138
                },
                {
                    "name": "B4",
                    "midi": 71,
                    "time": 16.2886545,
                    "velocity": 0.6299212598425197,
                    "duration": 0.07731956250000138
                },
                {
                    "name": "A3",
                    "midi": 57,
                    "time": 16.49484,
                    "velocity": 0.5590551181102362,
                    "duration": 0.41237100000000027
                },
                {
                    "name": "A4",
                    "midi": 69,
                    "time": 16.49484,
                    "velocity": 0.6614173228346457,
                    "duration": 0.41237100000000027
                },
                {
                    "name": "A3",
                    "midi": 57,
                    "time": 16.907211,
                    "velocity": 0.5590551181102362,
                    "duration": 0.07731956250000138
                },
                {
                    "name": "A4",
                    "midi": 69,
                    "time": 16.907211,
                    "velocity": 0.6614173228346457,
                    "duration": 0.07731956250000138
                },
                {
                    "name": "A3",
                    "midi": 57,
                    "time": 17.1133965,
                    "velocity": 0.5354330708661418,
                    "duration": 0.07731956250000138
                },
                {
                    "name": "A4",
                    "midi": 69,
                    "time": 17.1133965,
                    "velocity": 0.6299212598425197,
                    "duration": 0.07731956250000138
                },
                {
                    "name": "A3",
                    "midi": 57,
                    "time": 17.319582,
                    "velocity": 0.5354330708661418,
                    "duration": 0.41237100000000027
                },
                {
                    "name": "A4",
                    "midi": 69,
                    "time": 17.319582,
                    "velocity": 0.6299212598425197,
                    "duration": 0.41237100000000027
                },
                {
                    "name": "A3",
                    "midi": 57,
                    "time": 17.731953,
                    "velocity": 0.5433070866141733,
                    "duration": 0.07731956250000138
                },
                {
                    "name": "A4",
                    "midi": 69,
                    "time": 17.731953,
                    "velocity": 0.6377952755905512,
                    "duration": 0.07731956250000138
                },
                {
                    "name": "A3",
                    "midi": 57,
                    "time": 17.9381385,
                    "velocity": 0.5433070866141733,
                    "duration": 0.07731956250000138
                },
                {
                    "name": "A4",
                    "midi": 69,
                    "time": 17.9381385,
                    "velocity": 0.6377952755905512,
                    "duration": 0.07731956250000138
                },
                {
                    "name": "A#3",
                    "midi": 58,
                    "time": 18.144324,
                    "velocity": 0.5984251968503937,
                    "duration": 0.07731956250000138
                },
                {
                    "name": "A#4",
                    "midi": 70,
                    "time": 18.144324,
                    "velocity": 0.7086614173228346,
                    "duration": 0.07731956250000138
                },
                {
                    "name": "B3",
                    "midi": 59,
                    "time": 18.556695,
                    "velocity": 0.5905511811023622,
                    "duration": 0.6185565000000004
                },
                {
                    "name": "B4",
                    "midi": 71,
                    "time": 18.556695,
                    "velocity": 0.7007874015748031,
                    "duration": 0.6185565000000004
                },
                {
                    "name": "C#4",
                    "midi": 61,
                    "time": 19.1752515,
                    "velocity": 0.5984251968503937,
                    "duration": 0.07731956250000138
                },
                {
                    "name": "C#5",
                    "midi": 73,
                    "time": 19.1752515,
                    "velocity": 0.5984251968503937,
                    "duration": 0.07731956250000138
                },
                {
                    "name": "D4",
                    "midi": 62,
                    "time": 19.381437000000002,
                    "velocity": 0.49606299212598426,
                    "duration": 0.07731956250000138
                },
                {
                    "name": "D5",
                    "midi": 74,
                    "time": 19.381437000000002,
                    "velocity": 0.5905511811023622,
                    "duration": 0.07731956250000138
                },
                {
                    "name": "E4",
                    "midi": 64,
                    "time": 19.587622500000002,
                    "velocity": 0.5039370078740157,
                    "duration": 0.07731956250000138
                },
                {
                    "name": "E5",
                    "midi": 76,
                    "time": 19.587622500000002,
                    "velocity": 0.5984251968503937,
                    "duration": 0.07731956250000138
                },
                {
                    "name": "F4",
                    "midi": 65,
                    "time": 19.793808000000002,
                    "velocity": 0.5669291338582677,
                    "duration": 0.41237100000000027
                },
                {
                    "name": "F5",
                    "midi": 77,
                    "time": 19.793808000000002,
                    "velocity": 0.6692913385826772,
                    "duration": 0.41237100000000027
                },
                {
                    "name": "F4",
                    "midi": 65,
                    "time": 20.206179000000002,
                    "velocity": 0.5039370078740157,
                    "duration": 0.07731956250000138
                },
                {
                    "name": "F5",
                    "midi": 77,
                    "time": 20.206179000000002,
                    "velocity": 0.5984251968503937,
                    "duration": 0.07731956250000138
                },
                {
                    "name": "F4",
                    "midi": 65,
                    "time": 20.412364500000002,
                    "velocity": 0.5039370078740157,
                    "duration": 0.07731956250000138
                },
                {
                    "name": "F5",
                    "midi": 77,
                    "time": 20.412364500000002,
                    "velocity": 0.5984251968503937,
                    "duration": 0.07731956250000138
                },
                {
                    "name": "G#3",
                    "midi": 56,
                    "time": 20.618550000000003,
                    "velocity": 0.5984251968503937,
                    "duration": 0.6185565000000004
                },
                {
                    "name": "G#4",
                    "midi": 68,
                    "time": 20.618550000000003,
                    "velocity": 0.7086614173228346,
                    "duration": 0.6185565000000004
                },
                {
                    "name": "G#3",
                    "midi": 56,
                    "time": 21.237106500000003,
                    "velocity": 0.5511811023622047,
                    "duration": 0.07731956250000138
                },
                {
                    "name": "G#4",
                    "midi": 68,
                    "time": 21.237106500000003,
                    "velocity": 0.6456692913385826,
                    "duration": 0.07731956250000138
                },
                {
                    "name": "E4",
                    "midi": 64,
                    "time": 21.443292000000003,
                    "velocity": 0.5669291338582677,
                    "duration": 0.41237100000000027
                },
                {
                    "name": "E5",
                    "midi": 76,
                    "time": 21.443292000000003,
                    "velocity": 0.6692913385826772,
                    "duration": 0.41237100000000027
                },
                {
                    "name": "E4",
                    "midi": 64,
                    "time": 21.855663000000003,
                    "velocity": 0.5039370078740157,
                    "duration": 0.07731956250000138
                },
                {
                    "name": "E5",
                    "midi": 76,
                    "time": 21.855663000000003,
                    "velocity": 0.5984251968503937,
                    "duration": 0.07731956250000138
                },
                {
                    "name": "E4",
                    "midi": 64,
                    "time": 22.061848500000004,
                    "velocity": 0.5118110236220472,
                    "duration": 0.07731956250000138
                },
                {
                    "name": "E5",
                    "midi": 76,
                    "time": 22.061848500000004,
                    "velocity": 0.6062992125984252,
                    "duration": 0.07731956250000138
                },
                {
                    "name": "G3",
                    "midi": 55,
                    "time": 22.268034000000004,
                    "velocity": 0.5984251968503937,
                    "duration": 0.6185565000000004
                },
                {
                    "name": "G4",
                    "midi": 67,
                    "time": 22.268034000000004,
                    "velocity": 0.7086614173228346,
                    "duration": 0.6185565000000004
                },
                {
                    "name": "G3",
                    "midi": 55,
                    "time": 22.886590500000004,
                    "velocity": 0.5433070866141733,
                    "duration": 0.07731956250000138
                },
                {
                    "name": "G4",
                    "midi": 67,
                    "time": 22.886590500000004,
                    "velocity": 0.6377952755905512,
                    "duration": 0.07731956250000138
                },
                {
                    "name": "F#3",
                    "midi": 54,
                    "time": 23.092776000000004,
                    "velocity": 0.5433070866141733,
                    "duration": 0.07731956250000138
                },
                {
                    "name": "F#4",
                    "midi": 66,
                    "time": 23.092776000000004,
                    "velocity": 0.6377952755905512,
                    "duration": 0.07731956250000138
                },
                {
                    "name": "A3",
                    "midi": 57,
                    "time": 23.298961500000004,
                    "velocity": 0.5511811023622047,
                    "duration": 0.07731956250000138
                },
                {
                    "name": "A4",
                    "midi": 69,
                    "time": 23.298961500000004,
                    "velocity": 0.6456692913385826,
                    "duration": 0.07731956250000138
                },
                {
                    "name": "D4",
                    "midi": 62,
                    "time": 23.505147000000004,
                    "velocity": 0.5748031496062992,
                    "duration": 0.07731956250000138
                },
                {
                    "name": "D5",
                    "midi": 74,
                    "time": 23.505147000000004,
                    "velocity": 0.6850393700787402,
                    "duration": 0.07731956250000138
                },
                {
                    "name": "C4",
                    "midi": 60,
                    "time": 23.711332500000005,
                    "velocity": 0.5511811023622047,
                    "duration": 0.07731956250000138
                },
                {
                    "name": "C5",
                    "midi": 72,
                    "time": 23.711332500000005,
                    "velocity": 0.6456692913385826,
                    "duration": 0.07731956250000138
                },
                {
                    "name": "B3",
                    "midi": 59,
                    "time": 23.917518000000005,
                    "velocity": 0.5590551181102362,
                    "duration": 0.07731956250000138
                },
                {
                    "name": "B4",
                    "midi": 71,
                    "time": 23.917518000000005,
                    "velocity": 0.6614173228346457,
                    "duration": 0.07731956250000138
                },
                {
                    "name": "G3",
                    "midi": 55,
                    "time": 24.123703500000005,
                    "velocity": 0.5433070866141733,
                    "duration": 0.07731956250000138
                },
                {
                    "name": "G4",
                    "midi": 67,
                    "time": 24.123703500000005,
                    "velocity": 0.6377952755905512,
                    "duration": 0.07731956250000138
                },
                {
                    "name": "F#3",
                    "midi": 54,
                    "time": 24.329889000000005,
                    "velocity": 0.5433070866141733,
                    "duration": 0.07731956250000138
                },
                {
                    "name": "F#4",
                    "midi": 66,
                    "time": 24.329889000000005,
                    "velocity": 0.6377952755905512,
                    "duration": 0.07731956250000138
                },
                {
                    "name": "E3",
                    "midi": 52,
                    "time": 24.536074500000005,
                    "velocity": 0.5433070866141733,
                    "duration": 0.07731956250000138
                },
                {
                    "name": "E4",
                    "midi": 64,
                    "time": 24.536074500000005,
                    "velocity": 0.6377952755905512,
                    "duration": 0.07731956250000138
                },
                {
                    "name": "C4",
                    "midi": 60,
                    "time": 24.742260000000005,
                    "velocity": 0.5590551181102362,
                    "duration": 0.41237100000000027
                },
                {
                    "name": "C5",
                    "midi": 72,
                    "time": 24.742260000000005,
                    "velocity": 0.6614173228346457,
                    "duration": 0.41237100000000027
                },
                {
                    "name": "B3",
                    "midi": 59,
                    "time": 25.154631000000006,
                    "velocity": 0.5433070866141733,
                    "duration": 0.41237100000000027
                },
                {
                    "name": "B4",
                    "midi": 71,
                    "time": 25.154631000000006,
                    "velocity": 0.6377952755905512,
                    "duration": 0.41237100000000027
                },
                {
                    "name": "A3",
                    "midi": 57,
                    "time": 25.567002000000006,
                    "velocity": 0.5590551181102362,
                    "duration": 0.8247420000000005
                },
                {
                    "name": "A4",
                    "midi": 69,
                    "time": 25.567002000000006,
                    "velocity": 0.6614173228346457,
                    "duration": 0.8247420000000005
                },
                {
                    "name": "B3",
                    "midi": 59,
                    "time": 26.391744000000006,
                    "velocity": 0.5433070866141733,
                    "duration": 0.07731956250000138
                },
                {
                    "name": "B4",
                    "midi": 71,
                    "time": 26.391744000000006,
                    "velocity": 0.6377952755905512,
                    "duration": 0.07731956250000138
                },
                {
                    "name": "G3",
                    "midi": 55,
                    "time": 26.597929500000006,
                    "velocity": 0.5039370078740157,
                    "duration": 0.07731956250000138
                },
                {
                    "name": "G4",
                    "midi": 67,
                    "time": 26.597929500000006,
                    "velocity": 0.5905511811023622,
                    "duration": 0.07731956250000138
                },
                {
                    "name": "C4",
                    "midi": 60,
                    "time": 26.804115000000007,
                    "velocity": 0.5354330708661418,
                    "duration": 0.8247420000000005
                },
                {
                    "name": "C5",
                    "midi": 72,
                    "time": 26.804115000000007,
                    "velocity": 0.6299212598425197,
                    "duration": 0.8247420000000005
                },
                {
                    "name": "B3",
                    "midi": 59,
                    "time": 27.628857000000007,
                    "velocity": 0.5118110236220472,
                    "duration": 0.41237100000000027
                },
                {
                    "name": "B4",
                    "midi": 71,
                    "time": 27.628857000000007,
                    "velocity": 0.6062992125984252,
                    "duration": 0.41237100000000027
                },
                {
                    "name": "C4",
                    "midi": 60,
                    "time": 28.041228000000007,
                    "velocity": 0.5590551181102362,
                    "duration": 0.41237100000000027
                },
                {
                    "name": "C5",
                    "midi": 72,
                    "time": 28.041228000000007,
                    "velocity": 0.6614173228346457,
                    "duration": 0.41237100000000027
                },
                {
                    "name": "C4",
                    "midi": 60,
                    "time": 28.453599000000008,
                    "velocity": 0.5275590551181102,
                    "duration": 0.07731956250000138
                },
                {
                    "name": "C5",
                    "midi": 72,
                    "time": 28.453599000000008,
                    "velocity": 0.6220472440944882,
                    "duration": 0.07731956250000138
                },
                {
                    "name": "C4",
                    "midi": 60,
                    "time": 28.659784500000008,
                    "velocity": 0.5275590551181102,
                    "duration": 0.07731956250000138
                },
                {
                    "name": "C5",
                    "midi": 72,
                    "time": 28.659784500000008,
                    "velocity": 0.6220472440944882,
                    "duration": 0.07731956250000138
                },
                {
                    "name": "C4",
                    "midi": 60,
                    "time": 28.865970000000008,
                    "velocity": 0.5275590551181102,
                    "duration": 0.41237100000000027
                },
                {
                    "name": "C5",
                    "midi": 72,
                    "time": 28.865970000000008,
                    "velocity": 0.6220472440944882,
                    "duration": 0.41237100000000027
                },
                {
                    "name": "C4",
                    "midi": 60,
                    "time": 29.278341000000008,
                    "velocity": 0.5354330708661418,
                    "duration": 0.07731956250000138
                },
                {
                    "name": "C5",
                    "midi": 72,
                    "time": 29.278341000000008,
                    "velocity": 0.6299212598425197,
                    "duration": 0.07731956250000138
                },
                {
                    "name": "C4",
                    "midi": 60,
                    "time": 29.48452650000001,
                    "velocity": 0.5433070866141733,
                    "duration": 0.07731956250000138
                },
                {
                    "name": "C5",
                    "midi": 72,
                    "time": 29.48452650000001,
                    "velocity": 0.6377952755905512,
                    "duration": 0.07731956250000138
                },
                {
                    "name": "C#4",
                    "midi": 61,
                    "time": 29.69071200000001,
                    "velocity": 0.5984251968503937,
                    "duration": 0.07731956250000138
                },
                {
                    "name": "C#5",
                    "midi": 73,
                    "time": 29.69071200000001,
                    "velocity": 0.7086614173228346,
                    "duration": 0.07731956250000138
                },
                {
                    "name": "D4",
                    "midi": 62,
                    "time": 30.10308300000001,
                    "velocity": 0.5905511811023622,
                    "duration": 0.6185565000000004
                },
                {
                    "name": "D5",
                    "midi": 74,
                    "time": 30.10308300000001,
                    "velocity": 0.7007874015748031,
                    "duration": 0.6185565000000004
                },
                {
                    "name": "E4",
                    "midi": 64,
                    "time": 30.72163950000001,
                    "velocity": 0.5354330708661418,
                    "duration": 0.07731956250000138
                },
                {
                    "name": "E5",
                    "midi": 76,
                    "time": 30.72163950000001,
                    "velocity": 0.6299212598425197,
                    "duration": 0.07731956250000138
                },
                {
                    "name": "F4",
                    "midi": 65,
                    "time": 30.92782500000001,
                    "velocity": 0.5275590551181102,
                    "duration": 0.07731956250000138
                },
                {
                    "name": "F5",
                    "midi": 77,
                    "time": 30.92782500000001,
                    "velocity": 0.6220472440944882,
                    "duration": 0.07731956250000138
                },
                {
                    "name": "E4",
                    "midi": 64,
                    "time": 31.13401050000001,
                    "velocity": 0.5354330708661418,
                    "duration": 0.07731956250000138
                },
                {
                    "name": "E5",
                    "midi": 76,
                    "time": 31.13401050000001,
                    "velocity": 0.6299212598425197,
                    "duration": 0.07731956250000138
                },
                {
                    "name": "D4",
                    "midi": 62,
                    "time": 31.34019600000001,
                    "velocity": 0.5590551181102362,
                    "duration": 0.41237100000000027
                },
                {
                    "name": "D5",
                    "midi": 74,
                    "time": 31.34019600000001,
                    "velocity": 0.6614173228346457,
                    "duration": 0.41237100000000027
                },
                {
                    "name": "D4",
                    "midi": 62,
                    "time": 31.75256700000001,
                    "velocity": 0.5590551181102362,
                    "duration": 0.07731956250000138
                },
                {
                    "name": "D5",
                    "midi": 74,
                    "time": 31.75256700000001,
                    "velocity": 0.6614173228346457,
                    "duration": 0.07731956250000138
                },
                {
                    "name": "D4",
                    "midi": 62,
                    "time": 31.95875250000001,
                    "velocity": 0.5354330708661418,
                    "duration": 0.07731956250000138
                },
                {
                    "name": "D5",
                    "midi": 74,
                    "time": 31.95875250000001,
                    "velocity": 0.6299212598425197,
                    "duration": 0.07731956250000138
                },
                {
                    "name": "D4",
                    "midi": 62,
                    "time": 32.164938000000014,
                    "velocity": 0.5354330708661418,
                    "duration": 0.41237100000000027
                },
                {
                    "name": "D5",
                    "midi": 74,
                    "time": 32.164938000000014,
                    "velocity": 0.6299212598425197,
                    "duration": 0.41237100000000027
                },
                {
                    "name": "D4",
                    "midi": 62,
                    "time": 32.577309000000014,
                    "velocity": 0.5433070866141733,
                    "duration": 0.07731956250000138
                },
                {
                    "name": "D5",
                    "midi": 74,
                    "time": 32.577309000000014,
                    "velocity": 0.6377952755905512,
                    "duration": 0.07731956250000138
                },
                {
                    "name": "D4",
                    "midi": 62,
                    "time": 32.78349450000002,
                    "velocity": 0.5433070866141733,
                    "duration": 0.07731956250000138
                },
                {
                    "name": "D5",
                    "midi": 74,
                    "time": 32.78349450000002,
                    "velocity": 0.6377952755905512,
                    "duration": 0.07731956250000138
                },
                {
                    "name": "D#4",
                    "midi": 63,
                    "time": 32.98968000000002,
                    "velocity": 0.5984251968503937,
                    "duration": 0.07731956250000138
                },
                {
                    "name": "D#5",
                    "midi": 75,
                    "time": 32.98968000000002,
                    "velocity": 0.7086614173228346,
                    "duration": 0.07731956250000138
                },
                {
                    "name": "E4",
                    "midi": 64,
                    "time": 33.40205100000002,
                    "velocity": 0.5905511811023622,
                    "duration": 0.6185564999999968
                },
                {
                    "name": "E5",
                    "midi": 76,
                    "time": 33.40205100000002,
                    "velocity": 0.7007874015748031,
                    "duration": 0.6185564999999968
                },
                {
                    "name": "F#4",
                    "midi": 66,
                    "time": 34.02060750000002,
                    "velocity": 0.5669291338582677,
                    "duration": 0.07731956250000138
                },
                {
                    "name": "F#5",
                    "midi": 78,
                    "time": 34.02060750000002,
                    "velocity": 0.5669291338582677,
                    "duration": 0.07731956250000138
                },
                {
                    "name": "G4",
                    "midi": 67,
                    "time": 34.22679300000002,
                    "velocity": 0.4645669291338583,
                    "duration": 0.07731956250000138
                },
                {
                    "name": "G5",
                    "midi": 79,
                    "time": 34.22679300000002,
                    "velocity": 0.5590551181102362,
                    "duration": 0.07731956250000138
                },
                {
                    "name": "A4",
                    "midi": 69,
                    "time": 34.432978500000026,
                    "velocity": 0.47244094488188976,
                    "duration": 0.07731956250000138
                },
                {
                    "name": "A5",
                    "midi": 81,
                    "time": 34.432978500000026,
                    "velocity": 0.5669291338582677,
                    "duration": 0.07731956250000138
                },
                {
                    "name": "A#4",
                    "midi": 70,
                    "time": 34.63916400000003,
                    "velocity": 0.5354330708661418,
                    "duration": 0.41237100000000027
                },
                {
                    "name": "A#5",
                    "midi": 82,
                    "time": 34.63916400000003,
                    "velocity": 0.6299212598425197,
                    "duration": 0.41237100000000027
                },
                {
                    "name": "A#4",
                    "midi": 70,
                    "time": 35.05153500000003,
                    "velocity": 0.47244094488188976,
                    "duration": 0.07731956250000138
                },
                {
                    "name": "A#5",
                    "midi": 82,
                    "time": 35.05153500000003,
                    "velocity": 0.5669291338582677,
                    "duration": 0.07731956250000138
                },
                {
                    "name": "A#4",
                    "midi": 70,
                    "time": 35.25772050000003,
                    "velocity": 0.47244094488188976,
                    "duration": 0.07731956250000138
                },
                {
                    "name": "A#5",
                    "midi": 82,
                    "time": 35.25772050000003,
                    "velocity": 0.5669291338582677,
                    "duration": 0.07731956250000138
                },
                {
                    "name": "C#4",
                    "midi": 61,
                    "time": 35.46390600000004,
                    "velocity": 0.5590551181102362,
                    "duration": 0.6185564999999968
                },
                {
                    "name": "C#5",
                    "midi": 73,
                    "time": 35.46390600000004,
                    "velocity": 0.6614173228346457,
                    "duration": 0.6185564999999968
                },
                {
                    "name": "C#4",
                    "midi": 61,
                    "time": 36.082462500000034,
                    "velocity": 0.5196850393700787,
                    "duration": 0.07731956250000138
                },
                {
                    "name": "C#5",
                    "midi": 73,
                    "time": 36.082462500000034,
                    "velocity": 0.6062992125984252,
                    "duration": 0.07731956250000138
                },
                {
                    "name": "A4",
                    "midi": 69,
                    "time": 36.28864800000004,
                    "velocity": 0.5354330708661418,
                    "duration": 0.41237100000000027
                },
                {
                    "name": "A5",
                    "midi": 81,
                    "time": 36.28864800000004,
                    "velocity": 0.6299212598425197,
                    "duration": 0.41237100000000027
                },
                {
                    "name": "A4",
                    "midi": 69,
                    "time": 36.70101900000004,
                    "velocity": 0.47244094488188976,
                    "duration": 0.07731956250000138
                },
                {
                    "name": "A5",
                    "midi": 81,
                    "time": 36.70101900000004,
                    "velocity": 0.5669291338582677,
                    "duration": 0.07731956250000138
                },
                {
                    "name": "A4",
                    "midi": 69,
                    "time": 36.90720450000004,
                    "velocity": 0.48031496062992124,
                    "duration": 0.07731956250000138
                },
                {
                    "name": "A5",
                    "midi": 81,
                    "time": 36.90720450000004,
                    "velocity": 0.5748031496062992,
                    "duration": 0.07731956250000138
                },
                {
                    "name": "C4",
                    "midi": 60,
                    "time": 37.113390000000045,
                    "velocity": 0.5590551181102362,
                    "duration": 0.6185564999999968
                },
                {
                    "name": "C5",
                    "midi": 72,
                    "time": 37.113390000000045,
                    "velocity": 0.6614173228346457,
                    "duration": 0.6185564999999968
                },
                {
                    "name": "C4",
                    "midi": 60,
                    "time": 37.73194650000004,
                    "velocity": 0.48031496062992124,
                    "duration": 0.07731956250000138
                },
                {
                    "name": "C5",
                    "midi": 72,
                    "time": 37.73194650000004,
                    "velocity": 0.5748031496062992,
                    "duration": 0.07731956250000138
                },
                {
                    "name": "B3",
                    "midi": 59,
                    "time": 37.938132000000046,
                    "velocity": 0.49606299212598426,
                    "duration": 0.07731956250000138
                },
                {
                    "name": "B4",
                    "midi": 71,
                    "time": 37.938132000000046,
                    "velocity": 0.5748031496062992,
                    "duration": 0.07731956250000138
                },
                {
                    "name": "D4",
                    "midi": 62,
                    "time": 38.14431750000005,
                    "velocity": 0.5039370078740157,
                    "duration": 0.07731956250000138
                },
                {
                    "name": "D5",
                    "midi": 74,
                    "time": 38.14431750000005,
                    "velocity": 0.5905511811023622,
                    "duration": 0.07731956250000138
                },
                {
                    "name": "G4",
                    "midi": 67,
                    "time": 38.35050300000005,
                    "velocity": 0.5354330708661418,
                    "duration": 0.07731956250000138
                },
                {
                    "name": "G5",
                    "midi": 79,
                    "time": 38.35050300000005,
                    "velocity": 0.6299212598425197,
                    "duration": 0.07731956250000138
                },
                {
                    "name": "F4",
                    "midi": 65,
                    "time": 38.55668850000006,
                    "velocity": 0.5118110236220472,
                    "duration": 0.07731956250000138
                },
                {
                    "name": "F5",
                    "midi": 77,
                    "time": 38.55668850000006,
                    "velocity": 0.6062992125984252,
                    "duration": 0.07731956250000138
                },
                {
                    "name": "E4",
                    "midi": 64,
                    "time": 38.76287400000006,
                    "velocity": 0.5275590551181102,
                    "duration": 0.07731956250000138
                },
                {
                    "name": "E5",
                    "midi": 76,
                    "time": 38.76287400000006,
                    "velocity": 0.6220472440944882,
                    "duration": 0.07731956250000138
                },
                {
                    "name": "C4",
                    "midi": 60,
                    "time": 38.969059500000064,
                    "velocity": 0.5196850393700787,
                    "duration": 0.07731956250000138
                },
                {
                    "name": "C5",
                    "midi": 72,
                    "time": 38.969059500000064,
                    "velocity": 0.6062992125984252,
                    "duration": 0.07731956250000138
                },
                {
                    "name": "B3",
                    "midi": 59,
                    "time": 39.17524500000007,
                    "velocity": 0.5275590551181102,
                    "duration": 0.07731956250000138
                },
                {
                    "name": "B4",
                    "midi": 71,
                    "time": 39.17524500000007,
                    "velocity": 0.6141732283464567,
                    "duration": 0.07731956250000138
                },
                {
                    "name": "A3",
                    "midi": 57,
                    "time": 39.38143050000007,
                    "velocity": 0.5275590551181102,
                    "duration": 0.07731956250000138
                },
                {
                    "name": "A4",
                    "midi": 69,
                    "time": 39.38143050000007,
                    "velocity": 0.6220472440944882,
                    "duration": 0.07731956250000138
                },
                {
                    "name": "F4",
                    "midi": 65,
                    "time": 39.587616000000075,
                    "velocity": 0.5590551181102362,
                    "duration": 0.41237100000000027
                },
                {
                    "name": "F5",
                    "midi": 77,
                    "time": 39.587616000000075,
                    "velocity": 0.6614173228346457,
                    "duration": 0.41237100000000027
                },
                {
                    "name": "E4",
                    "midi": 64,
                    "time": 39.999987000000075,
                    "velocity": 0.5433070866141733,
                    "duration": 0.41237100000000027
                },
                {
                    "name": "E5",
                    "midi": 76,
                    "time": 39.999987000000075,
                    "velocity": 0.6377952755905512,
                    "duration": 0.41237100000000027
                },
                {
                    "name": "D4",
                    "midi": 62,
                    "time": 40.412358000000076,
                    "velocity": 0.5590551181102362,
                    "duration": 0.8247420000000005
                },
                {
                    "name": "D5",
                    "midi": 74,
                    "time": 40.412358000000076,
                    "velocity": 0.6614173228346457,
                    "duration": 0.8247420000000005
                },
                {
                    "name": "E5",
                    "midi": 76,
                    "time": 41.237100000000076,
                    "velocity": 0.5826771653543307,
                    "duration": 1.030927499999997
                },
                {
                    "name": "C5",
                    "midi": 72,
                    "time": 41.237100000000076,
                    "velocity": 0.5826771653543307,
                    "duration": 1.030927499999997
                },
                {
                    "name": "C6",
                    "midi": 84,
                    "time": 41.237100000000076,
                    "velocity": 0.7007874015748031,
                    "duration": 1.030927499999997
                },
                {
                    "name": "G4",
                    "midi": 67,
                    "time": 42.26802750000007,
                    "velocity": 0.5511811023622047,
                    "duration": 0.07731956250000138
                },
                {
                    "name": "E5",
                    "midi": 76,
                    "time": 42.26802750000007,
                    "velocity": 0.5511811023622047,
                    "duration": 0.07731956250000138
                },
                {
                    "name": "G5",
                    "midi": 79,
                    "time": 42.26802750000007,
                    "velocity": 0.6614173228346457,
                    "duration": 0.07731956250000138
                },
                {
                    "name": "A4",
                    "midi": 69,
                    "time": 42.47421300000008,
                    "velocity": 0.5511811023622047,
                    "duration": 0.07731956250000138
                },
                {
                    "name": "F5",
                    "midi": 77,
                    "time": 42.47421300000008,
                    "velocity": 0.5511811023622047,
                    "duration": 0.07731956250000138
                },
                {
                    "name": "A5",
                    "midi": 81,
                    "time": 42.47421300000008,
                    "velocity": 0.6614173228346457,
                    "duration": 0.07731956250000138
                },
                {
                    "name": "A#4",
                    "midi": 70,
                    "time": 42.68039850000008,
                    "velocity": 0.5511811023622047,
                    "duration": 0.07731956250000138
                },
                {
                    "name": "G5",
                    "midi": 79,
                    "time": 42.68039850000008,
                    "velocity": 0.5511811023622047,
                    "duration": 0.07731956250000138
                },
                {
                    "name": "A#5",
                    "midi": 82,
                    "time": 42.68039850000008,
                    "velocity": 0.6614173228346457,
                    "duration": 0.07731956250000138
                },
                {
                    "name": "A4",
                    "midi": 69,
                    "time": 42.886584000000084,
                    "velocity": 0.5826771653543307,
                    "duration": 0.07731956250000138
                },
                {
                    "name": "F5",
                    "midi": 77,
                    "time": 42.886584000000084,
                    "velocity": 0.5826771653543307,
                    "duration": 0.07731956250000138
                },
                {
                    "name": "A5",
                    "midi": 81,
                    "time": 42.886584000000084,
                    "velocity": 0.7007874015748031,
                    "duration": 0.07731956250000138
                },
                {
                    "name": "G4",
                    "midi": 67,
                    "time": 43.09276950000009,
                    "velocity": 0.5511811023622047,
                    "duration": 0.07731956250000138
                },
                {
                    "name": "E5",
                    "midi": 76,
                    "time": 43.09276950000009,
                    "velocity": 0.5511811023622047,
                    "duration": 0.07731956250000138
                },
                {
                    "name": "G5",
                    "midi": 79,
                    "time": 43.09276950000009,
                    "velocity": 0.6535433070866141,
                    "duration": 0.07731956250000138
                },
                {
                    "name": "F4",
                    "midi": 65,
                    "time": 43.29895500000009,
                    "velocity": 0.5511811023622047,
                    "duration": 0.07731956250000138
                },
                {
                    "name": "D5",
                    "midi": 74,
                    "time": 43.29895500000009,
                    "velocity": 0.5511811023622047,
                    "duration": 0.07731956250000138
                },
                {
                    "name": "F5",
                    "midi": 77,
                    "time": 43.29895500000009,
                    "velocity": 0.6535433070866141,
                    "duration": 0.07731956250000138
                },
                {
                    "name": "E4",
                    "midi": 64,
                    "time": 43.505140500000095,
                    "velocity": 0.5511811023622047,
                    "duration": 0.07731956250000138
                },
                {
                    "name": "A4",
                    "midi": 69,
                    "time": 43.505140500000095,
                    "velocity": 0.5511811023622047,
                    "duration": 0.07731956250000138
                },
                {
                    "name": "E5",
                    "midi": 76,
                    "time": 43.505140500000095,
                    "velocity": 0.6535433070866141,
                    "duration": 0.07731956250000138
                },
                {
                    "name": "D4",
                    "midi": 62,
                    "time": 43.7113260000001,
                    "velocity": 0.5905511811023622,
                    "duration": 0.6185564999999968
                },
                {
                    "name": "F4",
                    "midi": 65,
                    "time": 43.7113260000001,
                    "velocity": 0.5905511811023622,
                    "duration": 0.6185564999999968
                },
                {
                    "name": "D5",
                    "midi": 74,
                    "time": 43.7113260000001,
                    "velocity": 0.7007874015748031,
                    "duration": 0.6185564999999968
                },
                {
                    "name": "C#5",
                    "midi": 73,
                    "time": 44.329882500000096,
                    "velocity": 0.5748031496062992,
                    "duration": 0.07731956250000138
                },
                {
                    "name": "E5",
                    "midi": 76,
                    "time": 44.329882500000096,
                    "velocity": 0.5748031496062992,
                    "duration": 0.07731956250000138
                },
                {
                    "name": "C#6",
                    "midi": 85,
                    "time": 44.329882500000096,
                    "velocity": 0.6771653543307087,
                    "duration": 0.07731956250000138
                },
                {
                    "name": "D5",
                    "midi": 74,
                    "time": 44.5360680000001,
                    "velocity": 0.5826771653543307,
                    "duration": 1.030927499999997
                },
                {
                    "name": "F5",
                    "midi": 77,
                    "time": 44.5360680000001,
                    "velocity": 0.5826771653543307,
                    "duration": 1.030927499999997
                },
                {
                    "name": "D6",
                    "midi": 86,
                    "time": 44.5360680000001,
                    "velocity": 0.7007874015748031,
                    "duration": 1.030927499999997
                },
                {
                    "name": "A4",
                    "midi": 69,
                    "time": 45.5669955000001,
                    "velocity": 0.5511811023622047,
                    "duration": 0.07731956250000138
                },
                {
                    "name": "F5",
                    "midi": 77,
                    "time": 45.5669955000001,
                    "velocity": 0.5511811023622047,
                    "duration": 0.07731956250000138
                },
                {
                    "name": "A5",
                    "midi": 81,
                    "time": 45.5669955000001,
                    "velocity": 0.6614173228346457,
                    "duration": 0.07731956250000138
                },
                {
                    "name": "G5",
                    "midi": 79,
                    "time": 45.7731810000001,
                    "velocity": 0.5511811023622047,
                    "duration": 0.07731956250000138
                },
                {
                    "name": "B4",
                    "midi": 71,
                    "time": 45.7731810000001,
                    "velocity": 0.5511811023622047,
                    "duration": 0.07731956250000138
                },
                {
                    "name": "B5",
                    "midi": 83,
                    "time": 45.7731810000001,
                    "velocity": 0.6614173228346457,
                    "duration": 0.07731956250000138
                },
                {
                    "name": "C5",
                    "midi": 72,
                    "time": 45.979366500000104,
                    "velocity": 0.5511811023622047,
                    "duration": 0.07731956250000138
                },
                {
                    "name": "A5",
                    "midi": 81,
                    "time": 45.979366500000104,
                    "velocity": 0.5511811023622047,
                    "duration": 0.07731956250000138
                },
                {
                    "name": "C6",
                    "midi": 84,
                    "time": 45.979366500000104,
                    "velocity": 0.6614173228346457,
                    "duration": 0.07731956250000138
                },
                {
                    "name": "B4",
                    "midi": 71,
                    "time": 46.18555200000011,
                    "velocity": 0.5826771653543307,
                    "duration": 0.07731956250000138
                },
                {
                    "name": "G5",
                    "midi": 79,
                    "time": 46.18555200000011,
                    "velocity": 0.5826771653543307,
                    "duration": 0.07731956250000138
                },
                {
                    "name": "B5",
                    "midi": 83,
                    "time": 46.18555200000011,
                    "velocity": 0.7007874015748031,
                    "duration": 0.07731956250000138
                },
                {
                    "name": "A4",
                    "midi": 69,
                    "time": 46.39173750000011,
                    "velocity": 0.5511811023622047,
                    "duration": 0.07731956250000138
                },
                {
                    "name": "F#5",
                    "midi": 78,
                    "time": 46.39173750000011,
                    "velocity": 0.5511811023622047,
                    "duration": 0.07731956250000138
                },
                {
                    "name": "A5",
                    "midi": 81,
                    "time": 46.39173750000011,
                    "velocity": 0.6535433070866141,
                    "duration": 0.07731956250000138
                },
                {
                    "name": "G4",
                    "midi": 67,
                    "time": 46.597923000000115,
                    "velocity": 0.5511811023622047,
                    "duration": 0.07731956250000138
                },
                {
                    "name": "E5",
                    "midi": 76,
                    "time": 46.597923000000115,
                    "velocity": 0.5511811023622047,
                    "duration": 0.07731956250000138
                },
                {
                    "name": "G5",
                    "midi": 79,
                    "time": 46.597923000000115,
                    "velocity": 0.6535433070866141,
                    "duration": 0.07731956250000138
                },
                {
                    "name": "F#4",
                    "midi": 66,
                    "time": 46.80410850000012,
                    "velocity": 0.5511811023622047,
                    "duration": 0.07731956250000138
                },
                {
                    "name": "B4",
                    "midi": 71,
                    "time": 46.80410850000012,
                    "velocity": 0.5511811023622047,
                    "duration": 0.07731956250000138
                },
                {
                    "name": "F#5",
                    "midi": 78,
                    "time": 46.80410850000012,
                    "velocity": 0.6535433070866141,
                    "duration": 0.07731956250000138
                },
                {
                    "name": "E4",
                    "midi": 64,
                    "time": 47.01029400000012,
                    "velocity": 0.5905511811023622,
                    "duration": 0.6185564999999968
                },
                {
                    "name": "G4",
                    "midi": 67,
                    "time": 47.01029400000012,
                    "velocity": 0.5905511811023622,
                    "duration": 0.6185564999999968
                },
                {
                    "name": "E5",
                    "midi": 76,
                    "time": 47.01029400000012,
                    "velocity": 0.7007874015748031,
                    "duration": 0.6185564999999968
                },
                {
                    "name": "D4",
                    "midi": 62,
                    "time": 47.62885050000012,
                    "velocity": 0.5748031496062992,
                    "duration": 0.07731956250000138
                },
                {
                    "name": "F4",
                    "midi": 65,
                    "time": 47.62885050000012,
                    "velocity": 0.5748031496062992,
                    "duration": 0.07731956250000138
                },
                {
                    "name": "D5",
                    "midi": 74,
                    "time": 47.62885050000012,
                    "velocity": 0.6771653543307087,
                    "duration": 0.07731956250000138
                },
                {
                    "name": "C#4",
                    "midi": 61,
                    "time": 47.83503600000012,
                    "velocity": 0.5826771653543307,
                    "duration": 0.07731956250000138
                },
                {
                    "name": "E4",
                    "midi": 64,
                    "time": 47.83503600000012,
                    "velocity": 0.5826771653543307,
                    "duration": 0.07731956250000138
                },
                {
                    "name": "C#5",
                    "midi": 73,
                    "time": 47.83503600000012,
                    "velocity": 0.7007874015748031,
                    "duration": 0.07731956250000138
                },
                {
                    "name": "E4",
                    "midi": 64,
                    "time": 48.04122150000013,
                    "velocity": 0.5433070866141733,
                    "duration": 0.07731956250000138
                },
                {
                    "name": "G4",
                    "midi": 67,
                    "time": 48.04122150000013,
                    "velocity": 0.5433070866141733,
                    "duration": 0.07731956250000138
                },
                {
                    "name": "E5",
                    "midi": 76,
                    "time": 48.04122150000013,
                    "velocity": 0.6456692913385826,
                    "duration": 0.07731956250000138
                },
                {
                    "name": "C#4",
                    "midi": 61,
                    "time": 48.24740700000013,
                    "velocity": 0.5826771653543307,
                    "duration": 0.07731956250000138
                },
                {
                    "name": "E4",
                    "midi": 64,
                    "time": 48.24740700000013,
                    "velocity": 0.5826771653543307,
                    "duration": 0.07731956250000138
                },
                {
                    "name": "C#5",
                    "midi": 73,
                    "time": 48.24740700000013,
                    "velocity": 0.7007874015748031,
                    "duration": 0.07731956250000138
                },
                {
                    "name": "E4",
                    "midi": 64,
                    "time": 48.453592500000134,
                    "velocity": 0.5275590551181102,
                    "duration": 0.07731956250000138
                },
                {
                    "name": "G4",
                    "midi": 67,
                    "time": 48.453592500000134,
                    "velocity": 0.5275590551181102,
                    "duration": 0.07731956250000138
                },
                {
                    "name": "E5",
                    "midi": 76,
                    "time": 48.453592500000134,
                    "velocity": 0.6299212598425197,
                    "duration": 0.07731956250000138
                },
                {
                    "name": "A#4",
                    "midi": 70,
                    "time": 48.65977800000014,
                    "velocity": 0.5826771653543307,
                    "duration": 0.07731956250000138
                },
                {
                    "name": "G5",
                    "midi": 79,
                    "time": 48.65977800000014,
                    "velocity": 0.5826771653543307,
                    "duration": 0.07731956250000138
                },
                {
                    "name": "A#5",
                    "midi": 82,
                    "time": 48.65977800000014,
                    "velocity": 0.7007874015748031,
                    "duration": 0.07731956250000138
                },
                {
                    "name": "A#4",
                    "midi": 70,
                    "time": 48.86596350000014,
                    "velocity": 0.5748031496062992,
                    "duration": 0.6185564999999968
                },
                {
                    "name": "G5",
                    "midi": 79,
                    "time": 48.86596350000014,
                    "velocity": 0.5748031496062992,
                    "duration": 0.6185564999999968
                },
                {
                    "name": "A#5",
                    "midi": 82,
                    "time": 48.86596350000014,
                    "velocity": 0.6771653543307087,
                    "duration": 0.6185564999999968
                },
                {
                    "name": "C4",
                    "midi": 60,
                    "time": 49.48452000000014,
                    "velocity": 0.5669291338582677,
                    "duration": 0.07731956250000138
                },
                {
                    "name": "D#4",
                    "midi": 63,
                    "time": 49.48452000000014,
                    "velocity": 0.5669291338582677,
                    "duration": 0.07731956250000138
                },
                {
                    "name": "C5",
                    "midi": 72,
                    "time": 49.48452000000014,
                    "velocity": 0.6850393700787402,
                    "duration": 0.07731956250000138
                },
                {
                    "name": "D#4",
                    "midi": 63,
                    "time": 49.69070550000014,
                    "velocity": 0.5275590551181102,
                    "duration": 0.07731956250000138
                },
                {
                    "name": "F#4",
                    "midi": 66,
                    "time": 49.69070550000014,
                    "velocity": 0.5275590551181102,
                    "duration": 0.07731956250000138
                },
                {
                    "name": "D#5",
                    "midi": 75,
                    "time": 49.69070550000014,
                    "velocity": 0.6299212598425197,
                    "duration": 0.07731956250000138
                },
                {
                    "name": "C4",
                    "midi": 60,
                    "time": 49.896891000000146,
                    "velocity": 0.5669291338582677,
                    "duration": 0.07731956250000138
                },
                {
                    "name": "D#4",
                    "midi": 63,
                    "time": 49.896891000000146,
                    "velocity": 0.5669291338582677,
                    "duration": 0.07731956250000138
                },
                {
                    "name": "C5",
                    "midi": 72,
                    "time": 49.896891000000146,
                    "velocity": 0.6850393700787402,
                    "duration": 0.07731956250000138
                },
                {
                    "name": "D#4",
                    "midi": 63,
                    "time": 50.10307650000015,
                    "velocity": 0.5118110236220472,
                    "duration": 0.07731956250000138
                },
                {
                    "name": "F#4",
                    "midi": 66,
                    "time": 50.10307650000015,
                    "velocity": 0.5118110236220472,
                    "duration": 0.07731956250000138
                },
                {
                    "name": "D#5",
                    "midi": 75,
                    "time": 50.10307650000015,
                    "velocity": 0.6141732283464567,
                    "duration": 0.07731956250000138
                },
                {
                    "name": "A4",
                    "midi": 69,
                    "time": 50.30926200000015,
                    "velocity": 0.5669291338582677,
                    "duration": 0.07731956250000138
                },
                {
                    "name": "F#5",
                    "midi": 78,
                    "time": 50.30926200000015,
                    "velocity": 0.5669291338582677,
                    "duration": 0.07731956250000138
                },
                {
                    "name": "A5",
                    "midi": 81,
                    "time": 50.30926200000015,
                    "velocity": 0.6850393700787402,
                    "duration": 0.07731956250000138
                },
                {
                    "name": "A4",
                    "midi": 69,
                    "time": 50.51544750000016,
                    "velocity": 0.5590551181102362,
                    "duration": 0.6185564999999968
                },
                {
                    "name": "F#5",
                    "midi": 78,
                    "time": 50.51544750000016,
                    "velocity": 0.5590551181102362,
                    "duration": 0.6185564999999968
                },
                {
                    "name": "A5",
                    "midi": 81,
                    "time": 50.51544750000016,
                    "velocity": 0.6614173228346457,
                    "duration": 0.6185564999999968
                },
                {
                    "name": "G4",
                    "midi": 67,
                    "time": 51.134004000000154,
                    "velocity": 0.6614173228346457,
                    "duration": 0.41237100000000027
                },
                {
                    "name": "G5",
                    "midi": 79,
                    "time": 51.134004000000154,
                    "velocity": 0.7086614173228346,
                    "duration": 0.41237100000000027
                },
                {
                    "name": "D4",
                    "midi": 62,
                    "time": 51.546375000000154,
                    "velocity": 0.5354330708661418,
                    "duration": 0.41237100000000027
                },
                {
                    "name": "B4",
                    "midi": 71,
                    "time": 51.546375000000154,
                    "velocity": 0.5354330708661418,
                    "duration": 0.41237100000000027
                },
                {
                    "name": "D5",
                    "midi": 74,
                    "time": 51.546375000000154,
                    "velocity": 0.6377952755905512,
                    "duration": 0.41237100000000027
                },
                {
                    "name": "E4",
                    "midi": 64,
                    "time": 51.958746000000154,
                    "velocity": 0.5275590551181102,
                    "duration": 0.07731956250000138
                },
                {
                    "name": "C5",
                    "midi": 72,
                    "time": 51.958746000000154,
                    "velocity": 0.5275590551181102,
                    "duration": 0.07731956250000138
                },
                {
                    "name": "E5",
                    "midi": 76,
                    "time": 51.958746000000154,
                    "velocity": 0.6220472440944882,
                    "duration": 0.07731956250000138
                },
                {
                    "name": "F4",
                    "midi": 65,
                    "time": 52.16493150000016,
                    "velocity": 0.5354330708661418,
                    "duration": 0.07731956250000138
                },
                {
                    "name": "D5",
                    "midi": 74,
                    "time": 52.16493150000016,
                    "velocity": 0.5354330708661418,
                    "duration": 0.07731956250000138
                },
                {
                    "name": "F5",
                    "midi": 77,
                    "time": 52.16493150000016,
                    "velocity": 0.6377952755905512,
                    "duration": 0.07731956250000138
                },
                {
                    "name": "G4",
                    "midi": 67,
                    "time": 52.37111700000016,
                    "velocity": 0.5511811023622047,
                    "duration": 0.07731956250000138
                },
                {
                    "name": "E5",
                    "midi": 76,
                    "time": 52.37111700000016,
                    "velocity": 0.5511811023622047,
                    "duration": 0.07731956250000138
                },
                {
                    "name": "G5",
                    "midi": 79,
                    "time": 52.37111700000016,
                    "velocity": 0.6614173228346457,
                    "duration": 0.07731956250000138
                },
                {
                    "name": "A4",
                    "midi": 69,
                    "time": 52.577302500000165,
                    "velocity": 0.5748031496062992,
                    "duration": 0.07731956250000138
                },
                {
                    "name": "F5",
                    "midi": 77,
                    "time": 52.577302500000165,
                    "velocity": 0.5748031496062992,
                    "duration": 0.07731956250000138
                },
                {
                    "name": "A5",
                    "midi": 81,
                    "time": 52.577302500000165,
                    "velocity": 0.6771653543307087,
                    "duration": 0.07731956250000138
                },
                {
                    "name": "B4",
                    "midi": 71,
                    "time": 52.78348800000017,
                    "velocity": 0.5826771653543307,
                    "duration": 0.41237100000000027
                },
                {
                    "name": "D5",
                    "midi": 74,
                    "time": 52.78348800000017,
                    "velocity": 0.5826771653543307,
                    "duration": 0.41237100000000027
                },
                {
                    "name": "G5",
                    "midi": 79,
                    "time": 52.78348800000017,
                    "velocity": 0.7007874015748031,
                    "duration": 0.41237100000000027
                },
                {
                    "name": "C5",
                    "midi": 72,
                    "time": 53.19585900000017,
                    "velocity": 0.5826771653543307,
                    "duration": 0.41237100000000027
                },
                {
                    "name": "G5",
                    "midi": 79,
                    "time": 53.19585900000017,
                    "velocity": 0.5826771653543307,
                    "duration": 0.41237100000000027
                },
                {
                    "name": "C6",
                    "midi": 84,
                    "time": 53.19585900000017,
                    "velocity": 0.6929133858267716,
                    "duration": 0.41237100000000027
                },
                {
                    "name": "B5",
                    "midi": 83,
                    "time": 53.60823000000017,
                    "velocity": 0.6456692913385826,
                    "duration": 0.41237100000000027
                },
                {
                    "name": "F5",
                    "midi": 77,
                    "time": 53.60823000000017,
                    "velocity": 0.6456692913385826,
                    "duration": 0.8247420000000005
                },
                {
                    "name": "F6",
                    "midi": 89,
                    "time": 53.60823000000017,
                    "velocity": 0.7637795275590551,
                    "duration": 0.8247420000000005
                },
                {
                    "name": "B5",
                    "midi": 83,
                    "time": 54.02060100000017,
                    "velocity": 0.7401574803149606,
                    "duration": 0.41237100000000027
                },
                {
                    "name": "G4",
                    "midi": 67,
                    "time": 54.53606475000017,
                    "velocity": 0.5826771653543307,
                    "duration": 0.10309275000000184
                },
                {
                    "name": "A#4",
                    "midi": 70,
                    "time": 54.639157500000174,
                    "velocity": 0.5905511811023622,
                    "duration": 0.10309275000000184
                },
                {
                    "name": "C#5",
                    "midi": 73,
                    "time": 54.742250250000176,
                    "velocity": 0.5905511811023622,
                    "duration": 0.10309275000000184
                },
                {
                    "name": "E5",
                    "midi": 76,
                    "time": 54.84534300000018,
                    "velocity": 0.5984251968503937,
                    "duration": 0.12027487499999978
                },
                {
                    "name": "G5",
                    "midi": 79,
                    "time": 54.94843575000018,
                    "velocity": 0.6062992125984252,
                    "duration": 0.12027487499999268
                },
                {
                    "name": "A#5",
                    "midi": 82,
                    "time": 55.051528500000174,
                    "velocity": 0.6141732283464567,
                    "duration": 0.12027487499999268
                },
                {
                    "name": "C#6",
                    "midi": 85,
                    "time": 55.15462125000017,
                    "velocity": 0.6220472440944882,
                    "duration": 0.12027487499999268
                },
                {
                    "name": "G6",
                    "midi": 91,
                    "time": 55.25771400000016,
                    "velocity": 0.6220472440944882,
                    "duration": 0.10309274999999474
                },
                {
                    "name": "E6",
                    "midi": 88,
                    "time": 55.36080675000016,
                    "velocity": 0.6141732283464567,
                    "duration": 0.10309275000000184
                },
                {
                    "name": "C#6",
                    "midi": 85,
                    "time": 55.46389950000016,
                    "velocity": 0.6062992125984252,
                    "duration": 0.10309275000000184
                },
                {
                    "name": "A#5",
                    "midi": 82,
                    "time": 55.56699225000016,
                    "velocity": 0.5984251968503937,
                    "duration": 0.10309275000000184
                },
                {
                    "name": "G5",
                    "midi": 79,
                    "time": 55.670085000000164,
                    "velocity": 0.5905511811023622,
                    "duration": 0.10309275000000184
                },
                {
                    "name": "E5",
                    "midi": 76,
                    "time": 55.773177750000166,
                    "velocity": 0.5826771653543307,
                    "duration": 0.10309275000000184
                },
                {
                    "name": "C#5",
                    "midi": 73,
                    "time": 55.87627050000017,
                    "velocity": 0.5748031496062992,
                    "duration": 0.10309275000000184
                },
                {
                    "name": "A#4",
                    "midi": 70,
                    "time": 55.97936325000017,
                    "velocity": 0.5669291338582677,
                    "duration": 0.10309275000000184
                },
                {
                    "name": "G4",
                    "midi": 67,
                    "time": 56.18554875000017,
                    "velocity": 0.5826771653543307,
                    "duration": 0.10309275000000184
                },
                {
                    "name": "B4",
                    "midi": 71,
                    "time": 56.288641500000175,
                    "velocity": 0.5905511811023622,
                    "duration": 0.10309275000000184
                },
                {
                    "name": "F5",
                    "midi": 77,
                    "time": 56.39173425000018,
                    "velocity": 0.5905511811023622,
                    "duration": 0.10309275000000184
                },
                {
                    "name": "G5",
                    "midi": 79,
                    "time": 56.49482700000018,
                    "velocity": 0.5984251968503937,
                    "duration": 0.12027487499999978
                },
                {
                    "name": "B5",
                    "midi": 83,
                    "time": 56.59791975000018,
                    "velocity": 0.6062992125984252,
                    "duration": 0.12027487499999268
                },
                {
                    "name": "F6",
                    "midi": 89,
                    "time": 56.701012500000175,
                    "velocity": 0.6141732283464567,
                    "duration": 0.12027487499999268
                },
                {
                    "name": "B5",
                    "midi": 83,
                    "time": 56.80410525000017,
                    "velocity": 0.6220472440944882,
                    "duration": 0.12027487499999268
                },
                {
                    "name": "G6",
                    "midi": 91,
                    "time": 56.907198000000164,
                    "velocity": 0.6220472440944882,
                    "duration": 0.10309274999999474
                },
                {
                    "name": "D6",
                    "midi": 86,
                    "time": 57.01029075000016,
                    "velocity": 0.6141732283464567,
                    "duration": 0.10309275000000184
                },
                {
                    "name": "B5",
                    "midi": 83,
                    "time": 57.11338350000016,
                    "velocity": 0.6062992125984252,
                    "duration": 0.10309275000000184
                },
                {
                    "name": "G5",
                    "midi": 79,
                    "time": 57.21647625000016,
                    "velocity": 0.5984251968503937,
                    "duration": 0.10309275000000184
                },
                {
                    "name": "D5",
                    "midi": 74,
                    "time": 57.319569000000165,
                    "velocity": 0.5905511811023622,
                    "duration": 0.10309275000000184
                },
                {
                    "name": "B4",
                    "midi": 71,
                    "time": 57.42266175000017,
                    "velocity": 0.5826771653543307,
                    "duration": 0.10309275000000184
                },
                {
                    "name": "G4",
                    "midi": 67,
                    "time": 57.52575450000017,
                    "velocity": 0.5748031496062992,
                    "duration": 0.10309275000000184
                },
                {
                    "name": "B4",
                    "midi": 71,
                    "time": 57.62884725000017,
                    "velocity": 0.5669291338582677,
                    "duration": 0.10309275000000184
                },
                {
                    "name": "G4",
                    "midi": 67,
                    "time": 57.835032750000174,
                    "velocity": 0.5826771653543307,
                    "duration": 0.10309275000000184
                },
                {
                    "name": "A#4",
                    "midi": 70,
                    "time": 57.938125500000176,
                    "velocity": 0.5905511811023622,
                    "duration": 0.10309275000000184
                },
                {
                    "name": "C#5",
                    "midi": 73,
                    "time": 58.04121825000018,
                    "velocity": 0.5905511811023622,
                    "duration": 0.10309275000000184
                },
                {
                    "name": "E5",
                    "midi": 76,
                    "time": 58.14431100000018,
                    "velocity": 0.5984251968503937,
                    "duration": 0.12027487499999978
                },
                {
                    "name": "G5",
                    "midi": 79,
                    "time": 58.24740375000018,
                    "velocity": 0.6062992125984252,
                    "duration": 0.12027487499999268
                },
                {
                    "name": "A#5",
                    "midi": 82,
                    "time": 58.350496500000176,
                    "velocity": 0.6141732283464567,
                    "duration": 0.12027487499999268
                },
                {
                    "name": "C#6",
                    "midi": 85,
                    "time": 58.45358925000017,
                    "velocity": 0.6220472440944882,
                    "duration": 0.12027487499999268
                },
                {
                    "name": "G6",
                    "midi": 91,
                    "time": 58.556682000000166,
                    "velocity": 0.6220472440944882,
                    "duration": 0.10309274999999474
                },
                {
                    "name": "E6",
                    "midi": 88,
                    "time": 58.65977475000016,
                    "velocity": 0.6141732283464567,
                    "duration": 0.10309275000000184
                },
                {
                    "name": "C#6",
                    "midi": 85,
                    "time": 58.76286750000016,
                    "velocity": 0.6062992125984252,
                    "duration": 0.10309275000000184
                },
                {
                    "name": "A#5",
                    "midi": 82,
                    "time": 58.865960250000164,
                    "velocity": 0.5984251968503937,
                    "duration": 0.10309275000000184
                },
                {
                    "name": "G5",
                    "midi": 79,
                    "time": 58.969053000000166,
                    "velocity": 0.5905511811023622,
                    "duration": 0.10309275000000184
                },
                {
                    "name": "E5",
                    "midi": 76,
                    "time": 59.07214575000017,
                    "velocity": 0.5826771653543307,
                    "duration": 0.10309275000000184
                },
                {
                    "name": "C#5",
                    "midi": 73,
                    "time": 59.17523850000017,
                    "velocity": 0.5748031496062992,
                    "duration": 0.10309275000000184
                },
                {
                    "name": "A#4",
                    "midi": 70,
                    "time": 59.27833125000017,
                    "velocity": 0.5669291338582677,
                    "duration": 0.10309275000000184
                },
                {
                    "name": "G4",
                    "midi": 67,
                    "time": 59.484516750000175,
                    "velocity": 0.5826771653543307,
                    "duration": 0.10309275000000184
                },
                {
                    "name": "B4",
                    "midi": 71,
                    "time": 59.58760950000018,
                    "velocity": 0.5905511811023622,
                    "duration": 0.10309275000000184
                },
                {
                    "name": "F5",
                    "midi": 77,
                    "time": 59.69070225000018,
                    "velocity": 0.5905511811023622,
                    "duration": 0.10309275000000184
                },
                {
                    "name": "G5",
                    "midi": 79,
                    "time": 59.79379500000018,
                    "velocity": 0.5984251968503937,
                    "duration": 0.12027487499999978
                },
                {
                    "name": "B5",
                    "midi": 83,
                    "time": 59.89688775000018,
                    "velocity": 0.6062992125984252,
                    "duration": 0.12027487499999268
                },
                {
                    "name": "F6",
                    "midi": 89,
                    "time": 59.99998050000018,
                    "velocity": 0.6141732283464567,
                    "duration": 0.12027487499999268
                },
                {
                    "name": "B5",
                    "midi": 83,
                    "time": 60.10307325000017,
                    "velocity": 0.6220472440944882,
                    "duration": 0.12027487499999268
                },
                {
                    "name": "G6",
                    "midi": 91,
                    "time": 60.20616600000017,
                    "velocity": 0.6220472440944882,
                    "duration": 0.10309274999999474
                },
                {
                    "name": "D6",
                    "midi": 86,
                    "time": 60.30925875000016,
                    "velocity": 0.6141732283464567,
                    "duration": 0.10309275000000184
                },
                {
                    "name": "B5",
                    "midi": 83,
                    "time": 60.41235150000016,
                    "velocity": 0.6062992125984252,
                    "duration": 0.10309275000000184
                },
                {
                    "name": "G5",
                    "midi": 79,
                    "time": 60.515444250000165,
                    "velocity": 0.5984251968503937,
                    "duration": 0.10309275000000184
                },
                {
                    "name": "D5",
                    "midi": 74,
                    "time": 60.61853700000017,
                    "velocity": 0.5905511811023622,
                    "duration": 0.10309275000000184
                },
                {
                    "name": "B4",
                    "midi": 71,
                    "time": 60.72162975000017,
                    "velocity": 0.5826771653543307,
                    "duration": 0.10309275000000184
                },
                {
                    "name": "G4",
                    "midi": 67,
                    "time": 60.82472250000017,
                    "velocity": 0.5748031496062992,
                    "duration": 0.10309275000000184
                },
                {
                    "name": "B4",
                    "midi": 71,
                    "time": 60.92781525000017,
                    "velocity": 0.5669291338582677,
                    "duration": 0.10309275000000184
                },
                {
                    "name": "C#5",
                    "midi": 73,
                    "time": 61.030908000000174,
                    "velocity": 0.5590551181102362,
                    "duration": 0.12027487499999978
                },
                {
                    "name": "G5",
                    "midi": 79,
                    "time": 61.134000750000176,
                    "velocity": 0.5118110236220472,
                    "duration": 0.12027487499999268
                },
                {
                    "name": "A#5",
                    "midi": 82,
                    "time": 61.23709350000017,
                    "velocity": 0.5118110236220472,
                    "duration": 0.12027487499999268
                },
                {
                    "name": "C#6",
                    "midi": 85,
                    "time": 61.340186250000166,
                    "velocity": 0.5118110236220472,
                    "duration": 0.12027487499999268
                },
                {
                    "name": "D5",
                    "midi": 74,
                    "time": 61.44327900000016,
                    "velocity": 0.5826771653543307,
                    "duration": 0.12027487499999268
                },
                {
                    "name": "G5",
                    "midi": 79,
                    "time": 61.546371750000155,
                    "velocity": 0.5511811023622047,
                    "duration": 0.12027487499999268
                },
                {
                    "name": "B5",
                    "midi": 83,
                    "time": 61.64946450000015,
                    "velocity": 0.5511811023622047,
                    "duration": 0.12027487499999268
                },
                {
                    "name": "D6",
                    "midi": 86,
                    "time": 61.752557250000145,
                    "velocity": 0.5511811023622047,
                    "duration": 0.12027487499999268
                },
                {
                    "name": "E5",
                    "midi": 76,
                    "time": 61.85565000000014,
                    "velocity": 0.6220472440944882,
                    "duration": 0.12027487499999268
                },
                {
                    "name": "G5",
                    "midi": 79,
                    "time": 61.958742750000134,
                    "velocity": 0.5669291338582677,
                    "duration": 0.12027487499999268
                },
                {
                    "name": "A#5",
                    "midi": 82,
                    "time": 62.06183550000013,
                    "velocity": 0.5669291338582677,
                    "duration": 0.12027487499999268
                },
                {
                    "name": "E6",
                    "midi": 88,
                    "time": 62.16492825000012,
                    "velocity": 0.5669291338582677,
                    "duration": 0.12027487499999268
                },
                {
                    "name": "F#5",
                    "midi": 78,
                    "time": 62.26802100000012,
                    "velocity": 0.6535433070866141,
                    "duration": 0.12027487499999268
                },
                {
                    "name": "A5",
                    "midi": 81,
                    "time": 62.37111375000011,
                    "velocity": 0.5748031496062992,
                    "duration": 0.12027487499999268
                },
                {
                    "name": "C6",
                    "midi": 84,
                    "time": 62.47420650000011,
                    "velocity": 0.5748031496062992,
                    "duration": 0.12027487499999268
                },
                {
                    "name": "F#6",
                    "midi": 90,
                    "time": 62.5772992500001,
                    "velocity": 0.5748031496062992,
                    "duration": 0.12027487499999978
                },
                {
                    "name": "G4",
                    "midi": 67,
                    "time": 62.7834847500001,
                    "velocity": 0.5826771653543307,
                    "duration": 0.10309275000000184
                },
                {
                    "name": "B4",
                    "midi": 71,
                    "time": 62.8865775000001,
                    "velocity": 0.5905511811023622,
                    "duration": 0.10309275000000184
                },
                {
                    "name": "E5",
                    "midi": 76,
                    "time": 62.9896702500001,
                    "velocity": 0.5905511811023622,
                    "duration": 0.10309275000000184
                },
                {
                    "name": "G5",
                    "midi": 79,
                    "time": 63.092763000000105,
                    "velocity": 0.5984251968503937,
                    "duration": 0.10309275000000184
                },
                {
                    "name": "B5",
                    "midi": 83,
                    "time": 63.195855750000106,
                    "velocity": 0.6062992125984252,
                    "duration": 0.10309275000000184
                },
                {
                    "name": "E6",
                    "midi": 88,
                    "time": 63.29894850000011,
                    "velocity": 0.6141732283464567,
                    "duration": 0.10309275000000184
                },
                {
                    "name": "G6",
                    "midi": 91,
                    "time": 63.40204125000011,
                    "velocity": 0.6220472440944882,
                    "duration": 0.10309275000000184
                },
                {
                    "name": "B6",
                    "midi": 95,
                    "time": 63.50513400000011,
                    "velocity": 0.6220472440944882,
                    "duration": 0.10309275000000184
                },
                {
                    "name": "G6",
                    "midi": 91,
                    "time": 63.608226750000114,
                    "velocity": 0.6141732283464567,
                    "duration": 0.10309275000000184
                },
                {
                    "name": "E6",
                    "midi": 88,
                    "time": 63.711319500000116,
                    "velocity": 0.6062992125984252,
                    "duration": 0.10309275000000184
                },
                {
                    "name": "B5",
                    "midi": 83,
                    "time": 63.81441225000012,
                    "velocity": 0.5984251968503937,
                    "duration": 0.10309275000000184
                },
                {
                    "name": "G5",
                    "midi": 79,
                    "time": 63.91750500000012,
                    "velocity": 0.5905511811023622,
                    "duration": 0.10309275000000184
                },
                {
                    "name": "E5",
                    "midi": 76,
                    "time": 64.02059775000012,
                    "velocity": 0.5826771653543307,
                    "duration": 0.10309275000000184
                },
                {
                    "name": "B4",
                    "midi": 71,
                    "time": 64.12369050000012,
                    "velocity": 0.5748031496062992,
                    "duration": 0.10309275000000184
                },
                {
                    "name": "G4",
                    "midi": 67,
                    "time": 64.22678325000012,
                    "velocity": 0.5669291338582677,
                    "duration": 0.10309275000000184
                },
                {
                    "name": "G4",
                    "midi": 67,
                    "time": 64.43296875000013,
                    "velocity": 0.5826771653543307,
                    "duration": 0.10309275000000184
                },
                {
                    "name": "B4",
                    "midi": 71,
                    "time": 64.53606150000013,
                    "velocity": 0.5905511811023622,
                    "duration": 0.10309275000000184
                },
                {
                    "name": "D#5",
                    "midi": 75,
                    "time": 64.63915425000013,
                    "velocity": 0.5905511811023622,
                    "duration": 0.10309275000000184
                },
                {
                    "name": "G5",
                    "midi": 79,
                    "time": 64.74224700000013,
                    "velocity": 0.5984251968503937,
                    "duration": 0.10309275000000184
                },
                {
                    "name": "B5",
                    "midi": 83,
                    "time": 64.84533975000014,
                    "velocity": 0.6062992125984252,
                    "duration": 0.10309275000000184
                },
                {
                    "name": "D#6",
                    "midi": 87,
                    "time": 64.94843250000014,
                    "velocity": 0.6141732283464567,
                    "duration": 0.10309275000000184
                },
                {
                    "name": "G6",
                    "midi": 91,
                    "time": 65.05152525000014,
                    "velocity": 0.6220472440944882,
                    "duration": 0.10309275000000184
                },
                {
                    "name": "B6",
                    "midi": 95,
                    "time": 65.15461800000014,
                    "velocity": 0.6220472440944882,
                    "duration": 0.10309275000000184
                },
                {
                    "name": "G6",
                    "midi": 91,
                    "time": 65.25771075000014,
                    "velocity": 0.6141732283464567,
                    "duration": 0.10309275000000184
                },
                {
                    "name": "D#6",
                    "midi": 87,
                    "time": 65.36080350000015,
                    "velocity": 0.6062992125984252,
                    "duration": 0.10309275000000184
                },
                {
                    "name": "B5",
                    "midi": 83,
                    "time": 65.46389625000015,
                    "velocity": 0.5984251968503937,
                    "duration": 0.10309275000000184
                },
                {
                    "name": "G5",
                    "midi": 79,
                    "time": 65.56698900000015,
                    "velocity": 0.5905511811023622,
                    "duration": 0.10309275000000184
                },
                {
                    "name": "D#5",
                    "midi": 75,
                    "time": 65.67008175000015,
                    "velocity": 0.5826771653543307,
                    "duration": 0.10309275000000184
                },
                {
                    "name": "B4",
                    "midi": 71,
                    "time": 65.77317450000015,
                    "velocity": 0.5748031496062992,
                    "duration": 0.10309275000000184
                },
                {
                    "name": "G4",
                    "midi": 67,
                    "time": 65.87626725000015,
                    "velocity": 0.5669291338582677,
                    "duration": 0.10309275000000184
                },
                {
                    "name": "G4",
                    "midi": 67,
                    "time": 66.08245275000016,
                    "velocity": 0.5826771653543307,
                    "duration": 0.10309275000000184
                },
                {
                    "name": "B4",
                    "midi": 71,
                    "time": 66.18554550000016,
                    "velocity": 0.5905511811023622,
                    "duration": 0.10309275000000184
                },
                {
                    "name": "E5",
                    "midi": 76,
                    "time": 66.28863825000016,
                    "velocity": 0.5905511811023622,
                    "duration": 0.10309275000000184
                },
                {
                    "name": "G5",
                    "midi": 79,
                    "time": 66.39173100000016,
                    "velocity": 0.5984251968503937,
                    "duration": 0.10309275000000184
                },
                {
                    "name": "B5",
                    "midi": 83,
                    "time": 66.49482375000017,
                    "velocity": 0.6062992125984252,
                    "duration": 0.10309275000000184
                },
                {
                    "name": "E6",
                    "midi": 88,
                    "time": 66.59791650000017,
                    "velocity": 0.6141732283464567,
                    "duration": 0.10309275000000184
                },
                {
                    "name": "G6",
                    "midi": 91,
                    "time": 66.70100925000017,
                    "velocity": 0.6220472440944882,
                    "duration": 0.10309275000000184
                },
                {
                    "name": "B6",
                    "midi": 95,
                    "time": 66.80410200000017,
                    "velocity": 0.6220472440944882,
                    "duration": 0.10309275000000184
                },
                {
                    "name": "G6",
                    "midi": 91,
                    "time": 66.90719475000017,
                    "velocity": 0.6141732283464567,
                    "duration": 0.10309275000000184
                },
                {
                    "name": "E6",
                    "midi": 88,
                    "time": 67.01028750000017,
                    "velocity": 0.6062992125984252,
                    "duration": 0.10309275000000184
                },
                {
                    "name": "B5",
                    "midi": 83,
                    "time": 67.11338025000018,
                    "velocity": 0.5984251968503937,
                    "duration": 0.10309275000000184
                },
                {
                    "name": "G5",
                    "midi": 79,
                    "time": 67.21647300000018,
                    "velocity": 0.5905511811023622,
                    "duration": 0.10309275000000184
                },
                {
                    "name": "E5",
                    "midi": 76,
                    "time": 67.31956575000018,
                    "velocity": 0.5826771653543307,
                    "duration": 0.10309275000000184
                },
                {
                    "name": "B4",
                    "midi": 71,
                    "time": 67.42265850000018,
                    "velocity": 0.5748031496062992,
                    "duration": 0.10309275000000184
                },
                {
                    "name": "G4",
                    "midi": 67,
                    "time": 67.52575125000018,
                    "velocity": 0.5669291338582677,
                    "duration": 0.10309275000000184
                },
                {
                    "name": "G4",
                    "midi": 67,
                    "time": 67.73193675000019,
                    "velocity": 0.6062992125984252,
                    "duration": 0.10309275000000184
                },
                {
                    "name": "B4",
                    "midi": 71,
                    "time": 67.83502950000019,
                    "velocity": 0.6141732283464567,
                    "duration": 0.10309275000000184
                },
                {
                    "name": "D5",
                    "midi": 74,
                    "time": 67.93812225000019,
                    "velocity": 0.6141732283464567,
                    "duration": 0.10309275000000184
                },
                {
                    "name": "F5",
                    "midi": 77,
                    "time": 68.0412150000002,
                    "velocity": 0.6220472440944882,
                    "duration": 0.10309275000000184
                },
                {
                    "name": "B5",
                    "midi": 83,
                    "time": 68.1443077500002,
                    "velocity": 0.6299212598425197,
                    "duration": 0.10309275000000184
                },
                {
                    "name": "D6",
                    "midi": 86,
                    "time": 68.2474005000002,
                    "velocity": 0.6377952755905512,
                    "duration": 0.10309275000000184
                },
                {
                    "name": "F6",
                    "midi": 89,
                    "time": 68.3504932500002,
                    "velocity": 0.6456692913385826,
                    "duration": 0.10309275000000184
                },
                {
                    "name": "B6",
                    "midi": 95,
                    "time": 68.4535860000002,
                    "velocity": 0.6456692913385826,
                    "duration": 0.10309275000000184
                },
                {
                    "name": "F6",
                    "midi": 89,
                    "time": 68.5566787500002,
                    "velocity": 0.6377952755905512,
                    "duration": 0.10309275000000184
                },
                {
                    "name": "D6",
                    "midi": 86,
                    "time": 68.6597715000002,
                    "velocity": 0.6299212598425197,
                    "duration": 0.10309275000000184
                },
                {
                    "name": "B5",
                    "midi": 83,
                    "time": 68.7628642500002,
                    "velocity": 0.6220472440944882,
                    "duration": 0.10309275000000184
                },
                {
                    "name": "F5",
                    "midi": 77,
                    "time": 68.86595700000021,
                    "velocity": 0.6141732283464567,
                    "duration": 0.10309275000000184
                },
                {
                    "name": "D5",
                    "midi": 74,
                    "time": 68.96904975000021,
                    "velocity": 0.6062992125984252,
                    "duration": 0.10309275000000184
                },
                {
                    "name": "B4",
                    "midi": 71,
                    "time": 69.07214250000021,
                    "velocity": 0.5984251968503937,
                    "duration": 0.10309275000000184
                },
                {
                    "name": "F4",
                    "midi": 65,
                    "time": 69.17523525000021,
                    "velocity": 0.5905511811023622,
                    "duration": 0.10309275000000184
                },
                {
                    "name": "F5",
                    "midi": 77,
                    "time": 69.27832800000022,
                    "velocity": 0.6299212598425197,
                    "duration": 0.10309275000000184
                },
                {
                    "name": "B5",
                    "midi": 83,
                    "time": 69.38142075000022,
                    "velocity": 0.5748031496062992,
                    "duration": 0.10309275000000184
                },
                {
                    "name": "D6",
                    "midi": 86,
                    "time": 69.48451350000022,
                    "velocity": 0.5748031496062992,
                    "duration": 0.10309275000000184
                },
                {
                    "name": "F6",
                    "midi": 89,
                    "time": 69.58760625000022,
                    "velocity": 0.5748031496062992,
                    "duration": 0.10309275000000184
                },
                {
                    "name": "F#5",
                    "midi": 78,
                    "time": 69.69069900000022,
                    "velocity": 0.6141732283464567,
                    "duration": 0.10309275000000184
                },
                {
                    "name": "B5",
                    "midi": 83,
                    "time": 69.79379175000022,
                    "velocity": 0.5826771653543307,
                    "duration": 0.10309275000000184
                },
                {
                    "name": "D6",
                    "midi": 86,
                    "time": 69.89688450000023,
                    "velocity": 0.5826771653543307,
                    "duration": 0.10309275000000184
                },
                {
                    "name": "F#6",
                    "midi": 90,
                    "time": 69.99997725000023,
                    "velocity": 0.5905511811023622,
                    "duration": 0.10309275000000184
                },
                {
                    "name": "G#5",
                    "midi": 80,
                    "time": 70.10307000000023,
                    "velocity": 0.6692913385826772,
                    "duration": 0.10309275000000184
                },
                {
                    "name": "B5",
                    "midi": 83,
                    "time": 70.20616275000023,
                    "velocity": 0.6141732283464567,
                    "duration": 0.10309275000000184
                },
                {
                    "name": "D6",
                    "midi": 86,
                    "time": 70.30925550000023,
                    "velocity": 0.6220472440944882,
                    "duration": 0.10309275000000184
                },
                {
                    "name": "G#6",
                    "midi": 92,
                    "time": 70.41234825000024,
                    "velocity": 0.6220472440944882,
                    "duration": 0.10309275000000184
                },
                {
                    "name": "A#5",
                    "midi": 82,
                    "time": 70.51544100000024,
                    "velocity": 0.7165354330708661,
                    "duration": 0.10309275000000184
                },
                {
                    "name": "C#6",
                    "midi": 85,
                    "time": 70.61853375000024,
                    "velocity": 0.6377952755905512,
                    "duration": 0.10309275000000184
                },
                {
                    "name": "E6",
                    "midi": 88,
                    "time": 70.72162650000024,
                    "velocity": 0.6377952755905512,
                    "duration": 0.10309275000000184
                },
                {
                    "name": "A#6",
                    "midi": 94,
                    "time": 70.82471925000024,
                    "velocity": 0.6377952755905512,
                    "duration": 0.10309275000000184
                },
                {
                    "name": "D5",
                    "midi": 74,
                    "time": 70.92781200000024,
                    "velocity": 0.6062992125984252,
                    "duration": 0.41237099999999316
                },
                {
                    "name": "F#5",
                    "midi": 78,
                    "time": 70.92781200000024,
                    "velocity": 0.6062992125984252,
                    "duration": 0.41237099999999316
                },
                {
                    "name": "B5",
                    "midi": 83,
                    "time": 70.92781200000024,
                    "velocity": 0.6062992125984252,
                    "duration": 0.41237099999999316
                },
                {
                    "name": "D6",
                    "midi": 86,
                    "time": 70.92781200000024,
                    "velocity": 0.7244094488188977,
                    "duration": 0.41237099999999316
                },
                {
                    "name": "D5",
                    "midi": 74,
                    "time": 71.34018300000024,
                    "velocity": 0.6062992125984252,
                    "duration": 0.20618550000000369
                },
                {
                    "name": "F#5",
                    "midi": 78,
                    "time": 71.34018300000024,
                    "velocity": 0.6062992125984252,
                    "duration": 0.20618550000000369
                },
                {
                    "name": "B5",
                    "midi": 83,
                    "time": 71.34018300000024,
                    "velocity": 0.6062992125984252,
                    "duration": 0.20618550000000369
                },
                {
                    "name": "D6",
                    "midi": 86,
                    "time": 71.34018300000024,
                    "velocity": 0.7244094488188977,
                    "duration": 0.20618550000000369
                },
                {
                    "name": "D5",
                    "midi": 74,
                    "time": 71.54636850000024,
                    "velocity": 0.5826771653543307,
                    "duration": 0.20618550000000369
                },
                {
                    "name": "F#5",
                    "midi": 78,
                    "time": 71.54636850000024,
                    "velocity": 0.5826771653543307,
                    "duration": 0.20618550000000369
                },
                {
                    "name": "B5",
                    "midi": 83,
                    "time": 71.54636850000024,
                    "velocity": 0.5826771653543307,
                    "duration": 0.20618550000000369
                },
                {
                    "name": "D6",
                    "midi": 86,
                    "time": 71.54636850000024,
                    "velocity": 0.6929133858267716,
                    "duration": 0.20618550000000369
                },
                {
                    "name": "F#5",
                    "midi": 78,
                    "time": 71.75255400000025,
                    "velocity": 0.6062992125984252,
                    "duration": 0.8247420000000005
                },
                {
                    "name": "A#5",
                    "midi": 82,
                    "time": 71.75255400000025,
                    "velocity": 0.6062992125984252,
                    "duration": 0.8247420000000005
                },
                {
                    "name": "C#6",
                    "midi": 85,
                    "time": 71.75255400000025,
                    "velocity": 0.6062992125984252,
                    "duration": 0.8247420000000005
                },
                {
                    "name": "F#6",
                    "midi": 90,
                    "time": 71.75255400000025,
                    "velocity": 0.7244094488188977,
                    "duration": 0.8247420000000005
                },
                {
                    "name": "C#5",
                    "midi": 73,
                    "time": 72.57729600000025,
                    "velocity": 0.6062992125984252,
                    "duration": 0.41237099999999316
                },
                {
                    "name": "E5",
                    "midi": 76,
                    "time": 72.57729600000025,
                    "velocity": 0.6062992125984252,
                    "duration": 0.41237099999999316
                },
                {
                    "name": "A5",
                    "midi": 81,
                    "time": 72.57729600000025,
                    "velocity": 0.6062992125984252,
                    "duration": 0.41237099999999316
                },
                {
                    "name": "C#6",
                    "midi": 85,
                    "time": 72.57729600000025,
                    "velocity": 0.7244094488188977,
                    "duration": 0.41237099999999316
                },
                {
                    "name": "C#5",
                    "midi": 73,
                    "time": 72.98966700000024,
                    "velocity": 0.6062992125984252,
                    "duration": 0.20618550000000369
                },
                {
                    "name": "E5",
                    "midi": 76,
                    "time": 72.98966700000024,
                    "velocity": 0.6062992125984252,
                    "duration": 0.20618550000000369
                },
                {
                    "name": "A5",
                    "midi": 81,
                    "time": 72.98966700000024,
                    "velocity": 0.6062992125984252,
                    "duration": 0.20618550000000369
                },
                {
                    "name": "C#6",
                    "midi": 85,
                    "time": 72.98966700000024,
                    "velocity": 0.7244094488188977,
                    "duration": 0.20618550000000369
                },
                {
                    "name": "C#5",
                    "midi": 73,
                    "time": 73.19585250000024,
                    "velocity": 0.5826771653543307,
                    "duration": 0.20618550000000369
                },
                {
                    "name": "E5",
                    "midi": 76,
                    "time": 73.19585250000024,
                    "velocity": 0.5826771653543307,
                    "duration": 0.20618550000000369
                },
                {
                    "name": "A5",
                    "midi": 81,
                    "time": 73.19585250000024,
                    "velocity": 0.5826771653543307,
                    "duration": 0.20618550000000369
                },
                {
                    "name": "C#6",
                    "midi": 85,
                    "time": 73.19585250000024,
                    "velocity": 0.6929133858267716,
                    "duration": 0.20618550000000369
                },
                {
                    "name": "E5",
                    "midi": 76,
                    "time": 73.40203800000025,
                    "velocity": 0.6062992125984252,
                    "duration": 0.8247420000000005
                },
                {
                    "name": "G#5",
                    "midi": 80,
                    "time": 73.40203800000025,
                    "velocity": 0.6062992125984252,
                    "duration": 0.8247420000000005
                },
                {
                    "name": "B5",
                    "midi": 83,
                    "time": 73.40203800000025,
                    "velocity": 0.6062992125984252,
                    "duration": 0.8247420000000005
                },
                {
                    "name": "E6",
                    "midi": 88,
                    "time": 73.40203800000025,
                    "velocity": 0.7244094488188977,
                    "duration": 0.8247420000000005
                },
                {
                    "name": "B4",
                    "midi": 71,
                    "time": 74.22678000000025,
                    "velocity": 0.5511811023622047,
                    "duration": 0.41237099999999316
                },
                {
                    "name": "D5",
                    "midi": 74,
                    "time": 74.22678000000025,
                    "velocity": 0.5511811023622047,
                    "duration": 0.41237099999999316
                },
                {
                    "name": "G5",
                    "midi": 79,
                    "time": 74.22678000000025,
                    "velocity": 0.5511811023622047,
                    "duration": 0.41237099999999316
                },
                {
                    "name": "B5",
                    "midi": 83,
                    "time": 74.22678000000025,
                    "velocity": 0.6535433070866141,
                    "duration": 0.41237099999999316
                },
                {
                    "name": "B4",
                    "midi": 71,
                    "time": 74.63915100000024,
                    "velocity": 0.5433070866141733,
                    "duration": 0.20618550000000369
                },
                {
                    "name": "D5",
                    "midi": 74,
                    "time": 74.63915100000024,
                    "velocity": 0.5433070866141733,
                    "duration": 0.20618550000000369
                },
                {
                    "name": "G5",
                    "midi": 79,
                    "time": 74.63915100000024,
                    "velocity": 0.5433070866141733,
                    "duration": 0.20618550000000369
                },
                {
                    "name": "B5",
                    "midi": 83,
                    "time": 74.63915100000024,
                    "velocity": 0.6456692913385826,
                    "duration": 0.20618550000000369
                },
                {
                    "name": "B4",
                    "midi": 71,
                    "time": 74.84533650000024,
                    "velocity": 0.5196850393700787,
                    "duration": 0.20618550000000369
                },
                {
                    "name": "D5",
                    "midi": 74,
                    "time": 74.84533650000024,
                    "velocity": 0.5196850393700787,
                    "duration": 0.20618550000000369
                },
                {
                    "name": "G5",
                    "midi": 79,
                    "time": 74.84533650000024,
                    "velocity": 0.5196850393700787,
                    "duration": 0.20618550000000369
                },
                {
                    "name": "B5",
                    "midi": 83,
                    "time": 74.84533650000024,
                    "velocity": 0.6141732283464567,
                    "duration": 0.20618550000000369
                },
                {
                    "name": "D5",
                    "midi": 74,
                    "time": 75.05152200000025,
                    "velocity": 0.5354330708661418,
                    "duration": 0.41237099999999316
                },
                {
                    "name": "F#5",
                    "midi": 78,
                    "time": 75.05152200000025,
                    "velocity": 0.5354330708661418,
                    "duration": 0.41237099999999316
                },
                {
                    "name": "A5",
                    "midi": 81,
                    "time": 75.05152200000025,
                    "velocity": 0.5354330708661418,
                    "duration": 0.41237099999999316
                },
                {
                    "name": "D6",
                    "midi": 86,
                    "time": 75.05152200000025,
                    "velocity": 0.6299212598425197,
                    "duration": 0.41237099999999316
                },
                {
                    "name": "B4",
                    "midi": 71,
                    "time": 75.46389300000024,
                    "velocity": 0.49606299212598426,
                    "duration": 0.41237099999999316
                },
                {
                    "name": "D5",
                    "midi": 74,
                    "time": 75.46389300000024,
                    "velocity": 0.49606299212598426,
                    "duration": 0.41237099999999316
                },
                {
                    "name": "G5",
                    "midi": 79,
                    "time": 75.46389300000024,
                    "velocity": 0.49606299212598426,
                    "duration": 0.41237099999999316
                },
                {
                    "name": "B5",
                    "midi": 83,
                    "time": 75.46389300000024,
                    "velocity": 0.5984251968503937,
                    "duration": 0.41237099999999316
                },
                {
                    "name": "A4",
                    "midi": 69,
                    "time": 75.87626400000023,
                    "velocity": 0.5118110236220472,
                    "duration": 0.41237099999999316
                },
                {
                    "name": "D5",
                    "midi": 74,
                    "time": 75.87626400000023,
                    "velocity": 0.5118110236220472,
                    "duration": 0.41237099999999316
                },
                {
                    "name": "G5",
                    "midi": 79,
                    "time": 75.87626400000023,
                    "velocity": 0.5118110236220472,
                    "duration": 0.41237099999999316
                },
                {
                    "name": "A5",
                    "midi": 81,
                    "time": 75.87626400000023,
                    "velocity": 0.6062992125984252,
                    "duration": 0.41237099999999316
                },
                {
                    "name": "A4",
                    "midi": 69,
                    "time": 76.28863500000023,
                    "velocity": 0.49606299212598426,
                    "duration": 0.41237099999999316
                },
                {
                    "name": "D5",
                    "midi": 74,
                    "time": 76.28863500000023,
                    "velocity": 0.49606299212598426,
                    "duration": 0.41237099999999316
                },
                {
                    "name": "F#5",
                    "midi": 78,
                    "time": 76.28863500000023,
                    "velocity": 0.49606299212598426,
                    "duration": 0.41237099999999316
                },
                {
                    "name": "A5",
                    "midi": 81,
                    "time": 76.28863500000023,
                    "velocity": 0.5905511811023622,
                    "duration": 0.41237099999999316
                },
                {
                    "name": "B4",
                    "midi": 71,
                    "time": 76.70100600000022,
                    "velocity": 0.4881889763779528,
                    "duration": 0.8247420000000005
                },
                {
                    "name": "D5",
                    "midi": 74,
                    "time": 76.70100600000022,
                    "velocity": 0.4881889763779528,
                    "duration": 0.8247420000000005
                },
                {
                    "name": "G5",
                    "midi": 79,
                    "time": 76.70100600000022,
                    "velocity": 0.4881889763779528,
                    "duration": 0.8247420000000005
                },
                {
                    "name": "B5",
                    "midi": 83,
                    "time": 76.70100600000022,
                    "velocity": 0.5748031496062992,
                    "duration": 0.8247420000000005
                },
                {
                    "name": "B4",
                    "midi": 71,
                    "time": 77.52574800000022,
                    "velocity": 0.4881889763779528,
                    "duration": 0.41237099999999316
                },
                {
                    "name": "D5",
                    "midi": 74,
                    "time": 77.52574800000022,
                    "velocity": 0.4881889763779528,
                    "duration": 0.41237099999999316
                },
                {
                    "name": "G5",
                    "midi": 79,
                    "time": 77.52574800000022,
                    "velocity": 0.4881889763779528,
                    "duration": 0.41237099999999316
                },
                {
                    "name": "B5",
                    "midi": 83,
                    "time": 77.52574800000022,
                    "velocity": 0.5826771653543307,
                    "duration": 0.41237099999999316
                },
                {
                    "name": "B4",
                    "midi": 71,
                    "time": 77.93811900000021,
                    "velocity": 0.4881889763779528,
                    "duration": 0.20618550000000369
                },
                {
                    "name": "D5",
                    "midi": 74,
                    "time": 77.93811900000021,
                    "velocity": 0.4881889763779528,
                    "duration": 0.20618550000000369
                },
                {
                    "name": "G5",
                    "midi": 79,
                    "time": 77.93811900000021,
                    "velocity": 0.4881889763779528,
                    "duration": 0.20618550000000369
                },
                {
                    "name": "B5",
                    "midi": 83,
                    "time": 77.93811900000021,
                    "velocity": 0.5826771653543307,
                    "duration": 0.20618550000000369
                },
                {
                    "name": "B4",
                    "midi": 71,
                    "time": 78.14430450000022,
                    "velocity": 0.47244094488188976,
                    "duration": 0.20618550000000369
                },
                {
                    "name": "D5",
                    "midi": 74,
                    "time": 78.14430450000022,
                    "velocity": 0.47244094488188976,
                    "duration": 0.20618550000000369
                },
                {
                    "name": "G5",
                    "midi": 79,
                    "time": 78.14430450000022,
                    "velocity": 0.47244094488188976,
                    "duration": 0.20618550000000369
                },
                {
                    "name": "B5",
                    "midi": 83,
                    "time": 78.14430450000022,
                    "velocity": 0.5590551181102362,
                    "duration": 0.20618550000000369
                },
                {
                    "name": "D5",
                    "midi": 74,
                    "time": 78.35049000000022,
                    "velocity": 0.4881889763779528,
                    "duration": 0.8247420000000005
                },
                {
                    "name": "F#5",
                    "midi": 78,
                    "time": 78.35049000000022,
                    "velocity": 0.4881889763779528,
                    "duration": 0.8247420000000005
                },
                {
                    "name": "A5",
                    "midi": 81,
                    "time": 78.35049000000022,
                    "velocity": 0.4881889763779528,
                    "duration": 0.8247420000000005
                },
                {
                    "name": "D6",
                    "midi": 86,
                    "time": 78.35049000000022,
                    "velocity": 0.5826771653543307,
                    "duration": 0.8247420000000005
                },
                {
                    "name": "A4",
                    "midi": 69,
                    "time": 79.17523200000022,
                    "velocity": 0.4881889763779528,
                    "duration": 0.41237099999999316
                },
                {
                    "name": "C5",
                    "midi": 72,
                    "time": 79.17523200000022,
                    "velocity": 0.4881889763779528,
                    "duration": 0.41237099999999316
                },
                {
                    "name": "F5",
                    "midi": 77,
                    "time": 79.17523200000022,
                    "velocity": 0.4881889763779528,
                    "duration": 0.41237099999999316
                },
                {
                    "name": "A5",
                    "midi": 81,
                    "time": 79.17523200000022,
                    "velocity": 0.5826771653543307,
                    "duration": 0.41237099999999316
                },
                {
                    "name": "A4",
                    "midi": 69,
                    "time": 79.58760300000021,
                    "velocity": 0.4881889763779528,
                    "duration": 0.20618550000000369
                },
                {
                    "name": "C5",
                    "midi": 72,
                    "time": 79.58760300000021,
                    "velocity": 0.4881889763779528,
                    "duration": 0.20618550000000369
                },
                {
                    "name": "F5",
                    "midi": 77,
                    "time": 79.58760300000021,
                    "velocity": 0.4881889763779528,
                    "duration": 0.20618550000000369
                },
                {
                    "name": "A5",
                    "midi": 81,
                    "time": 79.58760300000021,
                    "velocity": 0.5826771653543307,
                    "duration": 0.20618550000000369
                },
                {
                    "name": "A4",
                    "midi": 69,
                    "time": 79.79378850000022,
                    "velocity": 0.47244094488188976,
                    "duration": 0.20618550000000369
                },
                {
                    "name": "C5",
                    "midi": 72,
                    "time": 79.79378850000022,
                    "velocity": 0.47244094488188976,
                    "duration": 0.20618550000000369
                },
                {
                    "name": "F5",
                    "midi": 77,
                    "time": 79.79378850000022,
                    "velocity": 0.47244094488188976,
                    "duration": 0.20618550000000369
                },
                {
                    "name": "A5",
                    "midi": 81,
                    "time": 79.79378850000022,
                    "velocity": 0.5590551181102362,
                    "duration": 0.20618550000000369
                },
                {
                    "name": "C5",
                    "midi": 72,
                    "time": 79.99997400000022,
                    "velocity": 0.4881889763779528,
                    "duration": 0.8247420000000005
                },
                {
                    "name": "E5",
                    "midi": 76,
                    "time": 79.99997400000022,
                    "velocity": 0.4881889763779528,
                    "duration": 0.8247420000000005
                },
                {
                    "name": "G5",
                    "midi": 79,
                    "time": 79.99997400000022,
                    "velocity": 0.4881889763779528,
                    "duration": 0.8247420000000005
                },
                {
                    "name": "C6",
                    "midi": 84,
                    "time": 79.99997400000022,
                    "velocity": 0.5826771653543307,
                    "duration": 0.8247420000000005
                },
                {
                    "name": "G4",
                    "midi": 67,
                    "time": 80.82471600000022,
                    "velocity": 0.4645669291338583,
                    "duration": 0.41237099999999316
                },
                {
                    "name": "B4",
                    "midi": 71,
                    "time": 80.82471600000022,
                    "velocity": 0.4645669291338583,
                    "duration": 0.41237099999999316
                },
                {
                    "name": "E5",
                    "midi": 76,
                    "time": 80.82471600000022,
                    "velocity": 0.4645669291338583,
                    "duration": 0.41237099999999316
                },
                {
                    "name": "G5",
                    "midi": 79,
                    "time": 80.82471600000022,
                    "velocity": 0.5511811023622047,
                    "duration": 0.41237099999999316
                },
                {
                    "name": "G4",
                    "midi": 67,
                    "time": 81.23708700000022,
                    "velocity": 0.4566929133858268,
                    "duration": 0.20618550000000369
                },
                {
                    "name": "B4",
                    "midi": 71,
                    "time": 81.23708700000022,
                    "velocity": 0.4566929133858268,
                    "duration": 0.20618550000000369
                },
                {
                    "name": "E5",
                    "midi": 76,
                    "time": 81.23708700000022,
                    "velocity": 0.4566929133858268,
                    "duration": 0.20618550000000369
                },
                {
                    "name": "G5",
                    "midi": 79,
                    "time": 81.23708700000022,
                    "velocity": 0.5433070866141733,
                    "duration": 0.20618550000000369
                },
                {
                    "name": "G4",
                    "midi": 67,
                    "time": 81.44327250000022,
                    "velocity": 0.4409448818897638,
                    "duration": 0.20618550000000369
                },
                {
                    "name": "B4",
                    "midi": 71,
                    "time": 81.44327250000022,
                    "velocity": 0.4409448818897638,
                    "duration": 0.20618550000000369
                },
                {
                    "name": "E5",
                    "midi": 76,
                    "time": 81.44327250000022,
                    "velocity": 0.4409448818897638,
                    "duration": 0.20618550000000369
                },
                {
                    "name": "G5",
                    "midi": 79,
                    "time": 81.44327250000022,
                    "velocity": 0.5196850393700787,
                    "duration": 0.20618550000000369
                },
                {
                    "name": "B4",
                    "midi": 71,
                    "time": 81.64945800000022,
                    "velocity": 0.44881889763779526,
                    "duration": 0.41237099999999316
                },
                {
                    "name": "D#5",
                    "midi": 75,
                    "time": 81.64945800000022,
                    "velocity": 0.44881889763779526,
                    "duration": 0.41237099999999316
                },
                {
                    "name": "F#5",
                    "midi": 78,
                    "time": 81.64945800000022,
                    "velocity": 0.44881889763779526,
                    "duration": 0.41237099999999316
                },
                {
                    "name": "B5",
                    "midi": 83,
                    "time": 81.64945800000022,
                    "velocity": 0.5354330708661418,
                    "duration": 0.41237099999999316
                },
                {
                    "name": "G4",
                    "midi": 67,
                    "time": 82.06182900000022,
                    "velocity": 0.41732283464566927,
                    "duration": 0.41237099999999316
                },
                {
                    "name": "B4",
                    "midi": 71,
                    "time": 82.06182900000022,
                    "velocity": 0.41732283464566927,
                    "duration": 0.41237099999999316
                },
                {
                    "name": "E5",
                    "midi": 76,
                    "time": 82.06182900000022,
                    "velocity": 0.41732283464566927,
                    "duration": 0.41237099999999316
                },
                {
                    "name": "G5",
                    "midi": 79,
                    "time": 82.06182900000022,
                    "velocity": 0.5039370078740157,
                    "duration": 0.41237099999999316
                },
                {
                    "name": "F#4",
                    "midi": 66,
                    "time": 82.47420000000021,
                    "velocity": 0.4330708661417323,
                    "duration": 0.41237099999999316
                },
                {
                    "name": "B4",
                    "midi": 71,
                    "time": 82.47420000000021,
                    "velocity": 0.4330708661417323,
                    "duration": 0.41237099999999316
                },
                {
                    "name": "E5",
                    "midi": 76,
                    "time": 82.47420000000021,
                    "velocity": 0.4330708661417323,
                    "duration": 0.41237099999999316
                },
                {
                    "name": "F#5",
                    "midi": 78,
                    "time": 82.47420000000021,
                    "velocity": 0.5118110236220472,
                    "duration": 0.41237099999999316
                },
                {
                    "name": "F#4",
                    "midi": 66,
                    "time": 82.8865710000002,
                    "velocity": 0.41732283464566927,
                    "duration": 0.41237099999999316
                },
                {
                    "name": "B4",
                    "midi": 71,
                    "time": 82.8865710000002,
                    "velocity": 0.41732283464566927,
                    "duration": 0.41237099999999316
                },
                {
                    "name": "D#5",
                    "midi": 75,
                    "time": 82.8865710000002,
                    "velocity": 0.41732283464566927,
                    "duration": 0.41237099999999316
                },
                {
                    "name": "F#5",
                    "midi": 78,
                    "time": 82.8865710000002,
                    "velocity": 0.49606299212598426,
                    "duration": 0.41237099999999316
                },
                {
                    "name": "G4",
                    "midi": 67,
                    "time": 83.2989420000002,
                    "velocity": 0.4094488188976378,
                    "duration": 0.8247420000000005
                },
                {
                    "name": "B4",
                    "midi": 71,
                    "time": 83.2989420000002,
                    "velocity": 0.4094488188976378,
                    "duration": 0.8247420000000005
                },
                {
                    "name": "E5",
                    "midi": 76,
                    "time": 83.2989420000002,
                    "velocity": 0.4094488188976378,
                    "duration": 0.8247420000000005
                },
                {
                    "name": "G5",
                    "midi": 79,
                    "time": 83.2989420000002,
                    "velocity": 0.4881889763779528,
                    "duration": 0.8247420000000005
                },
                {
                    "name": "G#4",
                    "midi": 68,
                    "time": 84.1236840000002,
                    "velocity": 0.4251968503937008,
                    "duration": 0.07731956249999428
                },
                {
                    "name": "G#5",
                    "midi": 80,
                    "time": 84.1236840000002,
                    "velocity": 0.5039370078740157,
                    "duration": 0.07731956249999428
                },
                {
                    "name": "A4",
                    "midi": 69,
                    "time": 84.53605500000019,
                    "velocity": 0.44881889763779526,
                    "duration": 0.6185564999999968
                },
                {
                    "name": "A5",
                    "midi": 81,
                    "time": 84.53605500000019,
                    "velocity": 0.5354330708661418,
                    "duration": 0.6185564999999968
                },
                {
                    "name": "B4",
                    "midi": 71,
                    "time": 85.15461150000019,
                    "velocity": 0.4094488188976378,
                    "duration": 0.07731956249999428
                },
                {
                    "name": "B5",
                    "midi": 83,
                    "time": 85.15461150000019,
                    "velocity": 0.48031496062992124,
                    "duration": 0.07731956249999428
                },
                {
                    "name": "C5",
                    "midi": 72,
                    "time": 85.36079700000018,
                    "velocity": 0.4015748031496063,
                    "duration": 0.07731956249999428
                },
                {
                    "name": "C6",
                    "midi": 84,
                    "time": 85.36079700000018,
                    "velocity": 0.47244094488188976,
                    "duration": 0.07731956249999428
                },
                {
                    "name": "B4",
                    "midi": 71,
                    "time": 85.56698250000017,
                    "velocity": 0.4094488188976378,
                    "duration": 0.07731956249999428
                },
                {
                    "name": "B5",
                    "midi": 83,
                    "time": 85.56698250000017,
                    "velocity": 0.48031496062992124,
                    "duration": 0.07731956249999428
                },
                {
                    "name": "A#4",
                    "midi": 70,
                    "time": 85.77316800000015,
                    "velocity": 0.4251968503937008,
                    "duration": 0.07731956249999428
                },
                {
                    "name": "A#5",
                    "midi": 82,
                    "time": 85.77316800000015,
                    "velocity": 0.5039370078740157,
                    "duration": 0.07731956249999428
                },
                {
                    "name": "B4",
                    "midi": 71,
                    "time": 86.18553900000015,
                    "velocity": 0.44881889763779526,
                    "duration": 0.6185564999999968
                },
                {
                    "name": "B5",
                    "midi": 83,
                    "time": 86.18553900000015,
                    "velocity": 0.5354330708661418,
                    "duration": 0.6185564999999968
                },
                {
                    "name": "C#5",
                    "midi": 73,
                    "time": 86.80409550000014,
                    "velocity": 0.48031496062992124,
                    "duration": 0.07731956249999428
                },
                {
                    "name": "C#6",
                    "midi": 85,
                    "time": 86.80409550000014,
                    "velocity": 0.48031496062992124,
                    "duration": 0.07731956249999428
                },
                {
                    "name": "D5",
                    "midi": 74,
                    "time": 87.01028100000013,
                    "velocity": 0.4015748031496063,
                    "duration": 0.07731956249999428
                },
                {
                    "name": "D6",
                    "midi": 86,
                    "time": 87.01028100000013,
                    "velocity": 0.47244094488188976,
                    "duration": 0.07731956249999428
                },
                {
                    "name": "E5",
                    "midi": 76,
                    "time": 87.21646650000012,
                    "velocity": 0.4094488188976378,
                    "duration": 0.07731956249999428
                },
                {
                    "name": "E6",
                    "midi": 88,
                    "time": 87.21646650000012,
                    "velocity": 0.48031496062992124,
                    "duration": 0.07731956249999428
                },
                {
                    "name": "F5",
                    "midi": 77,
                    "time": 87.42265200000011,
                    "velocity": 0.4251968503937008,
                    "duration": 0.41237099999999316
                },
                {
                    "name": "F6",
                    "midi": 89,
                    "time": 87.42265200000011,
                    "velocity": 0.5039370078740157,
                    "duration": 0.41237099999999316
                },
                {
                    "name": "F5",
                    "midi": 77,
                    "time": 87.8350230000001,
                    "velocity": 0.4094488188976378,
                    "duration": 0.07731956249999428
                },
                {
                    "name": "F6",
                    "midi": 89,
                    "time": 87.8350230000001,
                    "velocity": 0.48031496062992124,
                    "duration": 0.07731956249999428
                },
                {
                    "name": "F5",
                    "midi": 77,
                    "time": 88.0412085000001,
                    "velocity": 0.4094488188976378,
                    "duration": 0.07731956249999428
                },
                {
                    "name": "F6",
                    "midi": 89,
                    "time": 88.0412085000001,
                    "velocity": 0.48031496062992124,
                    "duration": 0.07731956249999428
                },
                {
                    "name": "G#4",
                    "midi": 68,
                    "time": 88.24739400000009,
                    "velocity": 0.5039370078740157,
                    "duration": 0.07731956249999428
                },
                {
                    "name": "G#5",
                    "midi": 80,
                    "time": 88.24739400000009,
                    "velocity": 0.6062992125984252,
                    "duration": 0.07731956249999428
                },
                {
                    "name": "B4",
                    "midi": 71,
                    "time": 88.45357950000007,
                    "velocity": 0.44881889763779526,
                    "duration": 0.07731956249999428
                },
                {
                    "name": "B5",
                    "midi": 83,
                    "time": 88.45357950000007,
                    "velocity": 0.5275590551181102,
                    "duration": 0.07731956249999428
                },
                {
                    "name": "G#4",
                    "midi": 68,
                    "time": 88.65976500000006,
                    "velocity": 0.44881889763779526,
                    "duration": 0.07731956249999428
                },
                {
                    "name": "G#5",
                    "midi": 80,
                    "time": 88.65976500000006,
                    "velocity": 0.5275590551181102,
                    "duration": 0.07731956249999428
                },
                {
                    "name": "B4",
                    "midi": 71,
                    "time": 88.86595050000005,
                    "velocity": 0.44881889763779526,
                    "duration": 0.07731956249999428
                },
                {
                    "name": "B5",
                    "midi": 83,
                    "time": 88.86595050000005,
                    "velocity": 0.5275590551181102,
                    "duration": 0.07731956249999428
                },
                {
                    "name": "E5",
                    "midi": 76,
                    "time": 89.07213600000004,
                    "velocity": 0.4251968503937008,
                    "duration": 0.41237099999999316
                },
                {
                    "name": "E6",
                    "midi": 88,
                    "time": 89.07213600000004,
                    "velocity": 0.5039370078740157,
                    "duration": 0.41237099999999316
                },
                {
                    "name": "E5",
                    "midi": 76,
                    "time": 89.48450700000004,
                    "velocity": 0.4094488188976378,
                    "duration": 0.07731956249999428
                },
                {
                    "name": "E6",
                    "midi": 88,
                    "time": 89.48450700000004,
                    "velocity": 0.48031496062992124,
                    "duration": 0.07731956249999428
                },
                {
                    "name": "E5",
                    "midi": 76,
                    "time": 89.69069250000003,
                    "velocity": 0.4094488188976378,
                    "duration": 0.07731956249999428
                },
                {
                    "name": "E6",
                    "midi": 88,
                    "time": 89.69069250000003,
                    "velocity": 0.4881889763779528,
                    "duration": 0.07731956249999428
                },
                {
                    "name": "G4",
                    "midi": 67,
                    "time": 89.89687800000002,
                    "velocity": 0.48031496062992124,
                    "duration": 0.07731956249999428
                },
                {
                    "name": "G5",
                    "midi": 79,
                    "time": 89.89687800000002,
                    "velocity": 0.5748031496062992,
                    "duration": 0.07731956249999428
                },
                {
                    "name": "A#4",
                    "midi": 70,
                    "time": 90.1030635,
                    "velocity": 0.4409448818897638,
                    "duration": 0.07731956249999428
                },
                {
                    "name": "A#5",
                    "midi": 82,
                    "time": 90.1030635,
                    "velocity": 0.5275590551181102,
                    "duration": 0.07731956249999428
                },
                {
                    "name": "G4",
                    "midi": 67,
                    "time": 90.309249,
                    "velocity": 0.4409448818897638,
                    "duration": 0.07731956249999428
                },
                {
                    "name": "G5",
                    "midi": 79,
                    "time": 90.309249,
                    "velocity": 0.5275590551181102,
                    "duration": 0.07731956249999428
                },
                {
                    "name": "A#4",
                    "midi": 70,
                    "time": 90.51543449999998,
                    "velocity": 0.44881889763779526,
                    "duration": 0.07731956249999428
                },
                {
                    "name": "A#5",
                    "midi": 82,
                    "time": 90.51543449999998,
                    "velocity": 0.5354330708661418,
                    "duration": 0.07731956249999428
                },
                {
                    "name": "D#5",
                    "midi": 75,
                    "time": 90.72161999999997,
                    "velocity": 0.4251968503937008,
                    "duration": 0.41237099999999316
                },
                {
                    "name": "D#6",
                    "midi": 87,
                    "time": 90.72161999999997,
                    "velocity": 0.5039370078740157,
                    "duration": 0.41237099999999316
                },
                {
                    "name": "F#4",
                    "midi": 66,
                    "time": 91.13399099999997,
                    "velocity": 0.4094488188976378,
                    "duration": 0.07731956249999428
                },
                {
                    "name": "F#5",
                    "midi": 78,
                    "time": 91.13399099999997,
                    "velocity": 0.48031496062992124,
                    "duration": 0.07731956249999428
                },
                {
                    "name": "A4",
                    "midi": 69,
                    "time": 91.34017649999996,
                    "velocity": 0.4094488188976378,
                    "duration": 0.07731956249999428
                },
                {
                    "name": "A5",
                    "midi": 81,
                    "time": 91.34017649999996,
                    "velocity": 0.4881889763779528,
                    "duration": 0.07731956249999428
                },
                {
                    "name": "D5",
                    "midi": 74,
                    "time": 91.54636199999995,
                    "velocity": 0.4251968503937008,
                    "duration": 0.41237099999999316
                },
                {
                    "name": "D6",
                    "midi": 86,
                    "time": 91.54636199999995,
                    "velocity": 0.5039370078740157,
                    "duration": 0.41237099999999316
                },
                {
                    "name": "F4",
                    "midi": 65,
                    "time": 91.95873299999994,
                    "velocity": 0.4094488188976378,
                    "duration": 0.07731956249999428
                },
                {
                    "name": "F5",
                    "midi": 77,
                    "time": 91.95873299999994,
                    "velocity": 0.48031496062992124,
                    "duration": 0.07731956249999428
                },
                {
                    "name": "G#4",
                    "midi": 68,
                    "time": 92.16491849999993,
                    "velocity": 0.4094488188976378,
                    "duration": 0.07731956249999428
                },
                {
                    "name": "G#5",
                    "midi": 80,
                    "time": 92.16491849999993,
                    "velocity": 0.4881889763779528,
                    "duration": 0.07731956249999428
                },
                {
                    "name": "C#5",
                    "midi": 73,
                    "time": 92.37110399999992,
                    "velocity": 0.4015748031496063,
                    "duration": 0.41237099999999316
                },
                {
                    "name": "C#6",
                    "midi": 85,
                    "time": 92.37110399999992,
                    "velocity": 0.47244094488188976,
                    "duration": 0.41237099999999316
                },
                {
                    "name": "E4",
                    "midi": 64,
                    "time": 92.78347499999991,
                    "velocity": 0.3700787401574803,
                    "duration": 0.07731956249999428
                },
                {
                    "name": "E5",
                    "midi": 76,
                    "time": 92.78347499999991,
                    "velocity": 0.4409448818897638,
                    "duration": 0.07731956249999428
                },
                {
                    "name": "G4",
                    "midi": 67,
                    "time": 92.9896604999999,
                    "velocity": 0.36220472440944884,
                    "duration": 0.07731956249999428
                },
                {
                    "name": "G5",
                    "midi": 79,
                    "time": 92.9896604999999,
                    "velocity": 0.4330708661417323,
                    "duration": 0.07731956249999428
                },
                {
                    "name": "C5",
                    "midi": 72,
                    "time": 93.19584599999989,
                    "velocity": 0.3700787401574803,
                    "duration": 0.41237099999999316
                },
                {
                    "name": "C6",
                    "midi": 84,
                    "time": 93.19584599999989,
                    "velocity": 0.4409448818897638,
                    "duration": 0.41237099999999316
                },
                {
                    "name": "D#4",
                    "midi": 63,
                    "time": 93.60821699999988,
                    "velocity": 0.33858267716535434,
                    "duration": 0.07731956249999428
                },
                {
                    "name": "D#5",
                    "midi": 75,
                    "time": 93.60821699999988,
                    "velocity": 0.4015748031496063,
                    "duration": 0.07731956249999428
                },
                {
                    "name": "F#4",
                    "midi": 66,
                    "time": 93.81440249999987,
                    "velocity": 0.33070866141732286,
                    "duration": 0.07731956249999428
                },
                {
                    "name": "F#5",
                    "midi": 78,
                    "time": 93.81440249999987,
                    "velocity": 0.3937007874015748,
                    "duration": 0.07731956249999428
                },
                {
                    "name": "C4",
                    "midi": 60,
                    "time": 94.02058799999986,
                    "velocity": 0.2755905511811024,
                    "duration": 0.10309275000000184
                },
                {
                    "name": "F#4",
                    "midi": 66,
                    "time": 94.02058799999986,
                    "velocity": 0.33070866141732286,
                    "duration": 0.10309275000000184
                },
                {
                    "name": "C5",
                    "midi": 72,
                    "time": 94.12368074999986,
                    "velocity": 0.2992125984251969,
                    "duration": 0.10309275000000184
                },
                {
                    "name": "C4",
                    "midi": 60,
                    "time": 94.22677349999987,
                    "velocity": 0.2755905511811024,
                    "duration": 0.10309275000000184
                },
                {
                    "name": "F#4",
                    "midi": 66,
                    "time": 94.22677349999987,
                    "velocity": 0.33070866141732286,
                    "duration": 0.10309275000000184
                },
                {
                    "name": "C5",
                    "midi": 72,
                    "time": 94.32986624999987,
                    "velocity": 0.31496062992125984,
                    "duration": 0.10309275000000184
                },
                {
                    "name": "C4",
                    "midi": 60,
                    "time": 94.43295899999987,
                    "velocity": 0.2992125984251969,
                    "duration": 0.10309275000000184
                },
                {
                    "name": "F#4",
                    "midi": 66,
                    "time": 94.43295899999987,
                    "velocity": 0.3543307086614173,
                    "duration": 0.10309275000000184
                },
                {
                    "name": "C5",
                    "midi": 72,
                    "time": 94.53605174999987,
                    "velocity": 0.3228346456692913,
                    "duration": 0.10309275000000184
                },
                {
                    "name": "C4",
                    "midi": 60,
                    "time": 94.63914449999987,
                    "velocity": 0.31496062992125984,
                    "duration": 0.10309275000000184
                },
                {
                    "name": "F#4",
                    "midi": 66,
                    "time": 94.63914449999987,
                    "velocity": 0.3700787401574803,
                    "duration": 0.10309275000000184
                },
                {
                    "name": "C5",
                    "midi": 72,
                    "time": 94.74223724999987,
                    "velocity": 0.33858267716535434,
                    "duration": 0.10309275000000184
                },
                {
                    "name": "C4",
                    "midi": 60,
                    "time": 94.84532999999988,
                    "velocity": 0.3228346456692913,
                    "duration": 0.10309275000000184
                },
                {
                    "name": "F#4",
                    "midi": 66,
                    "time": 94.84532999999988,
                    "velocity": 0.3858267716535433,
                    "duration": 0.10309275000000184
                },
                {
                    "name": "C5",
                    "midi": 72,
                    "time": 94.94842274999988,
                    "velocity": 0.3543307086614173,
                    "duration": 0.10309275000000184
                },
                {
                    "name": "C4",
                    "midi": 60,
                    "time": 95.05151549999988,
                    "velocity": 0.33858267716535434,
                    "duration": 0.10309275000000184
                },
                {
                    "name": "F#4",
                    "midi": 66,
                    "time": 95.05151549999988,
                    "velocity": 0.4015748031496063,
                    "duration": 0.10309275000000184
                },
                {
                    "name": "C5",
                    "midi": 72,
                    "time": 95.15460824999988,
                    "velocity": 0.36220472440944884,
                    "duration": 0.10309275000000184
                },
                {
                    "name": "C4",
                    "midi": 60,
                    "time": 95.25770099999988,
                    "velocity": 0.33858267716535434,
                    "duration": 0.10309275000000184
                },
                {
                    "name": "F#4",
                    "midi": 66,
                    "time": 95.25770099999988,
                    "velocity": 0.4094488188976378,
                    "duration": 0.10309275000000184
                },
                {
                    "name": "C5",
                    "midi": 72,
                    "time": 95.36079374999989,
                    "velocity": 0.3779527559055118,
                    "duration": 0.10309275000000184
                },
                {
                    "name": "C4",
                    "midi": 60,
                    "time": 95.46388649999989,
                    "velocity": 0.3543307086614173,
                    "duration": 0.10309275000000184
                },
                {
                    "name": "F#4",
                    "midi": 66,
                    "time": 95.46388649999989,
                    "velocity": 0.41732283464566927,
                    "duration": 0.10309275000000184
                },
                {
                    "name": "C5",
                    "midi": 72,
                    "time": 95.56697924999989,
                    "velocity": 0.4094488188976378,
                    "duration": 0.10309275000000184
                },
                {
                    "name": "C5",
                    "midi": 72,
                    "time": 95.67007199999989,
                    "velocity": 0.4015748031496063,
                    "duration": 0.10309275000000184
                },
                {
                    "name": "F#5",
                    "midi": 78,
                    "time": 95.67007199999989,
                    "velocity": 0.48031496062992124,
                    "duration": 0.10309275000000184
                },
                {
                    "name": "C6",
                    "midi": 84,
                    "time": 95.77316474999989,
                    "velocity": 0.4409448818897638,
                    "duration": 0.10309275000000184
                },
                {
                    "name": "C5",
                    "midi": 72,
                    "time": 95.8762574999999,
                    "velocity": 0.4094488188976378,
                    "duration": 0.10309275000000184
                },
                {
                    "name": "F#5",
                    "midi": 78,
                    "time": 95.8762574999999,
                    "velocity": 0.4881889763779528,
                    "duration": 0.10309275000000184
                },
                {
                    "name": "C6",
                    "midi": 84,
                    "time": 95.9793502499999,
                    "velocity": 0.4645669291338583,
                    "duration": 0.10309275000000184
                },
                {
                    "name": "C5",
                    "midi": 72,
                    "time": 96.0824429999999,
                    "velocity": 0.4409448818897638,
                    "duration": 0.10309275000000184
                },
                {
                    "name": "F#5",
                    "midi": 78,
                    "time": 96.0824429999999,
                    "velocity": 0.5275590551181102,
                    "duration": 0.10309275000000184
                },
                {
                    "name": "C6",
                    "midi": 84,
                    "time": 96.1855357499999,
                    "velocity": 0.4881889763779528,
                    "duration": 0.10309275000000184
                },
                {
                    "name": "C5",
                    "midi": 72,
                    "time": 96.2886284999999,
                    "velocity": 0.4645669291338583,
                    "duration": 0.10309275000000184
                },
                {
                    "name": "F#5",
                    "midi": 78,
                    "time": 96.2886284999999,
                    "velocity": 0.5511811023622047,
                    "duration": 0.10309275000000184
                },
                {
                    "name": "C6",
                    "midi": 84,
                    "time": 96.3917212499999,
                    "velocity": 0.5196850393700787,
                    "duration": 0.10309275000000184
                },
                {
                    "name": "C5",
                    "midi": 72,
                    "time": 96.4948139999999,
                    "velocity": 0.4881889763779528,
                    "duration": 0.10309275000000184
                },
                {
                    "name": "F#5",
                    "midi": 78,
                    "time": 96.4948139999999,
                    "velocity": 0.5826771653543307,
                    "duration": 0.10309275000000184
                },
                {
                    "name": "C6",
                    "midi": 84,
                    "time": 96.59790674999991,
                    "velocity": 0.5433070866141733,
                    "duration": 0.10309275000000184
                },
                {
                    "name": "C5",
                    "midi": 72,
                    "time": 96.70099949999991,
                    "velocity": 0.5039370078740157,
                    "duration": 0.10309275000000184
                },
                {
                    "name": "F#5",
                    "midi": 78,
                    "time": 96.70099949999991,
                    "velocity": 0.5984251968503937,
                    "duration": 0.10309275000000184
                },
                {
                    "name": "C6",
                    "midi": 84,
                    "time": 96.80409224999991,
                    "velocity": 0.5511811023622047,
                    "duration": 0.10309275000000184
                },
                {
                    "name": "C6",
                    "midi": 84,
                    "time": 96.90718499999991,
                    "velocity": 0.6141732283464567,
                    "duration": 0.10309275000000184
                },
                {
                    "name": "C5",
                    "midi": 72,
                    "time": 96.90718499999991,
                    "velocity": 0.5196850393700787,
                    "duration": 0.10309275000000184
                },
                {
                    "name": "F#5",
                    "midi": 78,
                    "time": 96.90718499999991,
                    "velocity": 0.5196850393700787,
                    "duration": 0.10309275000000184
                },
                {
                    "name": "C6",
                    "midi": 84,
                    "time": 97.11337049999992,
                    "velocity": 0.6062992125984252,
                    "duration": 0.10309275000000184
                },
                {
                    "name": "C5",
                    "midi": 72,
                    "time": 97.11337049999992,
                    "velocity": 0.5118110236220472,
                    "duration": 0.10309275000000184
                },
                {
                    "name": "F#5",
                    "midi": 78,
                    "time": 97.11337049999992,
                    "velocity": 0.5118110236220472,
                    "duration": 0.10309275000000184
                },
                {
                    "name": "C5",
                    "midi": 72,
                    "time": 97.31955599999992,
                    "velocity": 0.5905511811023622,
                    "duration": 0.10309275000000184
                },
                {
                    "name": "F#5",
                    "midi": 78,
                    "time": 97.31955599999992,
                    "velocity": 0.5905511811023622,
                    "duration": 0.10309275000000184
                },
                {
                    "name": "C6",
                    "midi": 84,
                    "time": 97.31955599999992,
                    "velocity": 0.7007874015748031,
                    "duration": 0.10309275000000184
                },
                {
                    "name": "D5",
                    "midi": 74,
                    "time": 97.52574149999992,
                    "velocity": 0.5984251968503937,
                    "duration": 0.20618550000000369
                },
                {
                    "name": "F#5",
                    "midi": 78,
                    "time": 97.52574149999992,
                    "velocity": 0.5984251968503937,
                    "duration": 0.20618550000000369
                },
                {
                    "name": "C6",
                    "midi": 84,
                    "time": 97.52574149999992,
                    "velocity": 0.7086614173228346,
                    "duration": 0.20618550000000369
                },
                {
                    "name": "D6",
                    "midi": 86,
                    "time": 97.52574149999992,
                    "velocity": 0.7086614173228346,
                    "duration": 0.20618550000000369
                },
                {
                    "name": "D5",
                    "midi": 74,
                    "time": 97.73192699999993,
                    "velocity": 0.6141732283464567,
                    "duration": 0.20618550000000369
                },
                {
                    "name": "F#5",
                    "midi": 78,
                    "time": 97.73192699999993,
                    "velocity": 0.6141732283464567,
                    "duration": 0.20618550000000369
                },
                {
                    "name": "C6",
                    "midi": 84,
                    "time": 97.73192699999993,
                    "velocity": 0.7244094488188977,
                    "duration": 0.20618550000000369
                },
                {
                    "name": "D6",
                    "midi": 86,
                    "time": 97.73192699999993,
                    "velocity": 0.7244094488188977,
                    "duration": 0.20618550000000369
                },
                {
                    "name": "D5",
                    "midi": 74,
                    "time": 97.93811249999993,
                    "velocity": 0.6299212598425197,
                    "duration": 0.20618550000000369
                },
                {
                    "name": "F#5",
                    "midi": 78,
                    "time": 97.93811249999993,
                    "velocity": 0.6299212598425197,
                    "duration": 0.20618550000000369
                },
                {
                    "name": "C6",
                    "midi": 84,
                    "time": 97.93811249999993,
                    "velocity": 0.7401574803149606,
                    "duration": 0.20618550000000369
                },
                {
                    "name": "D6",
                    "midi": 86,
                    "time": 97.93811249999993,
                    "velocity": 0.7401574803149606,
                    "duration": 0.20618550000000369
                },
                {
                    "name": "D5",
                    "midi": 74,
                    "time": 98.14429799999994,
                    "velocity": 0.6456692913385826,
                    "duration": 0.20618550000000369
                },
                {
                    "name": "F#5",
                    "midi": 78,
                    "time": 98.14429799999994,
                    "velocity": 0.6456692913385826,
                    "duration": 0.20618550000000369
                },
                {
                    "name": "C6",
                    "midi": 84,
                    "time": 98.14429799999994,
                    "velocity": 0.7637795275590551,
                    "duration": 0.20618550000000369
                },
                {
                    "name": "D6",
                    "midi": 86,
                    "time": 98.14429799999994,
                    "velocity": 0.7637795275590551,
                    "duration": 0.20618550000000369
                },
                {
                    "name": "D5",
                    "midi": 74,
                    "time": 98.35048349999994,
                    "velocity": 0.6456692913385826,
                    "duration": 0.20618550000000369
                },
                {
                    "name": "F#5",
                    "midi": 78,
                    "time": 98.35048349999994,
                    "velocity": 0.6456692913385826,
                    "duration": 0.20618550000000369
                },
                {
                    "name": "C6",
                    "midi": 84,
                    "time": 98.35048349999994,
                    "velocity": 0.7637795275590551,
                    "duration": 0.20618550000000369
                },
                {
                    "name": "D6",
                    "midi": 86,
                    "time": 98.35048349999994,
                    "velocity": 0.7637795275590551,
                    "duration": 0.20618550000000369
                },
                {
                    "name": "D5",
                    "midi": 74,
                    "time": 98.55666899999994,
                    "velocity": 0.6614173228346457,
                    "duration": 0.10309275000000184
                },
                {
                    "name": "F#5",
                    "midi": 78,
                    "time": 98.55666899999994,
                    "velocity": 0.6614173228346457,
                    "duration": 0.10309275000000184
                },
                {
                    "name": "C6",
                    "midi": 84,
                    "time": 98.55666899999994,
                    "velocity": 0.7795275590551181,
                    "duration": 0.10309275000000184
                },
                {
                    "name": "D6",
                    "midi": 86,
                    "time": 98.55666899999994,
                    "velocity": 0.7795275590551181,
                    "duration": 0.10309275000000184
                },
                {
                    "name": "D5",
                    "midi": 74,
                    "time": 98.76285449999995,
                    "velocity": 0.6771653543307087,
                    "duration": 0.10309275000000184
                },
                {
                    "name": "F#5",
                    "midi": 78,
                    "time": 98.76285449999995,
                    "velocity": 0.6771653543307087,
                    "duration": 0.10309275000000184
                },
                {
                    "name": "C6",
                    "midi": 84,
                    "time": 98.76285449999995,
                    "velocity": 0.7952755905511811,
                    "duration": 0.10309275000000184
                },
                {
                    "name": "D6",
                    "midi": 86,
                    "time": 98.76285449999995,
                    "velocity": 0.7952755905511811,
                    "duration": 0.10309275000000184
                },
                {
                    "name": "E5",
                    "midi": 76,
                    "time": 98.96903999999995,
                    "velocity": 0.6929133858267716,
                    "duration": 0.19587622500000634
                },
                {
                    "name": "G5",
                    "midi": 79,
                    "time": 98.96903999999995,
                    "velocity": 0.6929133858267716,
                    "duration": 0.19587622500000634
                },
                {
                    "name": "C6",
                    "midi": 84,
                    "time": 98.96903999999995,
                    "velocity": 0.6929133858267716,
                    "duration": 0.19587622500000634
                },
                {
                    "name": "E6",
                    "midi": 88,
                    "time": 98.96903999999995,
                    "velocity": 0.8188976377952756,
                    "duration": 0.19587622500000634
                },
                {
                    "name": "F5",
                    "midi": 77,
                    "time": 99.17522549999995,
                    "velocity": 0.6377952755905512,
                    "duration": 0.19587622500000634
                },
                {
                    "name": "B5",
                    "midi": 83,
                    "time": 99.17522549999995,
                    "velocity": 0.6377952755905512,
                    "duration": 0.19587622500000634
                },
                {
                    "name": "D6",
                    "midi": 86,
                    "time": 99.17522549999995,
                    "velocity": 0.6377952755905512,
                    "duration": 0.19587622500000634
                },
                {
                    "name": "G6",
                    "midi": 91,
                    "time": 99.17522549999995,
                    "velocity": 0.7637795275590551,
                    "duration": 0.19587622500000634
                },
                {
                    "name": "F5",
                    "midi": 77,
                    "time": 99.38141099999996,
                    "velocity": 0.6535433070866141,
                    "duration": 0.19587622500000634
                },
                {
                    "name": "B5",
                    "midi": 83,
                    "time": 99.38141099999996,
                    "velocity": 0.6535433070866141,
                    "duration": 0.19587622500000634
                },
                {
                    "name": "D6",
                    "midi": 86,
                    "time": 99.38141099999996,
                    "velocity": 0.6535433070866141,
                    "duration": 0.19587622500000634
                },
                {
                    "name": "G6",
                    "midi": 91,
                    "time": 99.38141099999996,
                    "velocity": 0.7716535433070866,
                    "duration": 0.19587622500000634
                },
                {
                    "name": "F5",
                    "midi": 77,
                    "time": 99.58759649999996,
                    "velocity": 0.6535433070866141,
                    "duration": 0.19587622500000634
                },
                {
                    "name": "B5",
                    "midi": 83,
                    "time": 99.58759649999996,
                    "velocity": 0.6535433070866141,
                    "duration": 0.19587622500000634
                },
                {
                    "name": "D6",
                    "midi": 86,
                    "time": 99.58759649999996,
                    "velocity": 0.6535433070866141,
                    "duration": 0.19587622500000634
                },
                {
                    "name": "G6",
                    "midi": 91,
                    "time": 99.58759649999996,
                    "velocity": 0.7716535433070866,
                    "duration": 0.19587622500000634
                },
                {
                    "name": "F5",
                    "midi": 77,
                    "time": 99.79378199999996,
                    "velocity": 0.6535433070866141,
                    "duration": 0.19587622500000634
                },
                {
                    "name": "B5",
                    "midi": 83,
                    "time": 99.79378199999996,
                    "velocity": 0.6535433070866141,
                    "duration": 0.19587622500000634
                },
                {
                    "name": "D6",
                    "midi": 86,
                    "time": 99.79378199999996,
                    "velocity": 0.6535433070866141,
                    "duration": 0.19587622500000634
                },
                {
                    "name": "G6",
                    "midi": 91,
                    "time": 99.79378199999996,
                    "velocity": 0.7716535433070866,
                    "duration": 0.19587622500000634
                },
                {
                    "name": "F5",
                    "midi": 77,
                    "time": 99.99996749999997,
                    "velocity": 0.6377952755905512,
                    "duration": 0.19587622500000634
                },
                {
                    "name": "B5",
                    "midi": 83,
                    "time": 99.99996749999997,
                    "velocity": 0.6377952755905512,
                    "duration": 0.19587622500000634
                },
                {
                    "name": "D6",
                    "midi": 86,
                    "time": 99.99996749999997,
                    "velocity": 0.6377952755905512,
                    "duration": 0.19587622500000634
                },
                {
                    "name": "G6",
                    "midi": 91,
                    "time": 99.99996749999997,
                    "velocity": 0.7637795275590551,
                    "duration": 0.19587622500000634
                },
                {
                    "name": "F5",
                    "midi": 77,
                    "time": 100.20615299999997,
                    "velocity": 0.6377952755905512,
                    "duration": 0.19587622500000634
                },
                {
                    "name": "B5",
                    "midi": 83,
                    "time": 100.20615299999997,
                    "velocity": 0.6377952755905512,
                    "duration": 0.19587622500000634
                },
                {
                    "name": "D6",
                    "midi": 86,
                    "time": 100.20615299999997,
                    "velocity": 0.6377952755905512,
                    "duration": 0.19587622500000634
                },
                {
                    "name": "G6",
                    "midi": 91,
                    "time": 100.20615299999997,
                    "velocity": 0.7637795275590551,
                    "duration": 0.19587622500000634
                },
                {
                    "name": "F5",
                    "midi": 77,
                    "time": 100.41233849999998,
                    "velocity": 0.6377952755905512,
                    "duration": 0.19587622500000634
                },
                {
                    "name": "B5",
                    "midi": 83,
                    "time": 100.41233849999998,
                    "velocity": 0.6377952755905512,
                    "duration": 0.19587622500000634
                },
                {
                    "name": "D6",
                    "midi": 86,
                    "time": 100.41233849999998,
                    "velocity": 0.6377952755905512,
                    "duration": 0.19587622500000634
                },
                {
                    "name": "G6",
                    "midi": 91,
                    "time": 100.41233849999998,
                    "velocity": 0.7637795275590551,
                    "duration": 0.19587622500000634
                },
                {
                    "name": "C6",
                    "midi": 84,
                    "time": 100.61852399999998,
                    "velocity": 0.5984251968503937,
                    "duration": 0.10309275000000184
                },
                {
                    "name": "E6",
                    "midi": 88,
                    "time": 100.61852399999998,
                    "velocity": 0.7086614173228346,
                    "duration": 0.10309275000000184
                },
                {
                    "name": "C7",
                    "midi": 96,
                    "time": 100.72161674999998,
                    "velocity": 0.7480314960629921,
                    "duration": 0.10309275000000184
                },
                {
                    "name": "G6",
                    "midi": 91,
                    "time": 100.82470949999998,
                    "velocity": 0.7480314960629921,
                    "duration": 0.10309275000000184
                },
                {
                    "name": "E6",
                    "midi": 88,
                    "time": 100.92780224999998,
                    "velocity": 0.7401574803149606,
                    "duration": 0.10309275000000184
                },
                {
                    "name": "C6",
                    "midi": 84,
                    "time": 101.03089499999999,
                    "velocity": 0.7322834645669292,
                    "duration": 0.10309275000000184
                },
                {
                    "name": "G5",
                    "midi": 79,
                    "time": 101.13398774999999,
                    "velocity": 0.7244094488188977,
                    "duration": 0.10309275000000184
                },
                {
                    "name": "E5",
                    "midi": 76,
                    "time": 101.23708049999999,
                    "velocity": 0.7165354330708661,
                    "duration": 0.10309275000000184
                },
                {
                    "name": "G5",
                    "midi": 79,
                    "time": 101.34017324999999,
                    "velocity": 0.7086614173228346,
                    "duration": 0.10309275000000184
                },
                {
                    "name": "C5",
                    "midi": 72,
                    "time": 101.443266,
                    "velocity": 0.7086614173228346,
                    "duration": 0.20618550000000369
                },
                {
                    "name": "E6",
                    "midi": 88,
                    "time": 101.6494515,
                    "velocity": 0.5984251968503937,
                    "duration": 0.10309275000000184
                },
                {
                    "name": "G6",
                    "midi": 91,
                    "time": 101.6494515,
                    "velocity": 0.7086614173228346,
                    "duration": 0.10309275000000184
                },
                {
                    "name": "G5",
                    "midi": 79,
                    "time": 101.75254425,
                    "velocity": 0.6771653543307087,
                    "duration": 0.10309275000000184
                },
                {
                    "name": "F6",
                    "midi": 89,
                    "time": 101.855637,
                    "velocity": 0.6220472440944882,
                    "duration": 0.10309275000000184
                },
                {
                    "name": "A6",
                    "midi": 93,
                    "time": 101.855637,
                    "velocity": 0.7322834645669292,
                    "duration": 0.10309275000000184
                },
                {
                    "name": "A5",
                    "midi": 81,
                    "time": 101.95872975,
                    "velocity": 0.6771653543307087,
                    "duration": 0.10309275000000184
                },
                {
                    "name": "G6",
                    "midi": 91,
                    "time": 102.0618225,
                    "velocity": 0.6220472440944882,
                    "duration": 0.10309275000000184
                },
                {
                    "name": "A#6",
                    "midi": 94,
                    "time": 102.0618225,
                    "velocity": 0.7322834645669292,
                    "duration": 0.10309275000000184
                },
                {
                    "name": "A#5",
                    "midi": 82,
                    "time": 102.16491525,
                    "velocity": 0.7007874015748031,
                    "duration": 0.10309275000000184
                },
                {
                    "name": "F6",
                    "midi": 89,
                    "time": 102.26800800000001,
                    "velocity": 0.6535433070866141,
                    "duration": 0.10309275000000184
                },
                {
                    "name": "A6",
                    "midi": 93,
                    "time": 102.26800800000001,
                    "velocity": 0.7716535433070866,
                    "duration": 0.10309275000000184
                },
                {
                    "name": "A5",
                    "midi": 81,
                    "time": 102.37110075000001,
                    "velocity": 0.7007874015748031,
                    "duration": 0.10309275000000184
                },
                {
                    "name": "E6",
                    "midi": 88,
                    "time": 102.47419350000001,
                    "velocity": 0.6220472440944882,
                    "duration": 0.10309275000000184
                },
                {
                    "name": "G6",
                    "midi": 91,
                    "time": 102.47419350000001,
                    "velocity": 0.7401574803149606,
                    "duration": 0.10309275000000184
                },
                {
                    "name": "G5",
                    "midi": 79,
                    "time": 102.57728625000001,
                    "velocity": 0.6850393700787402,
                    "duration": 0.10309275000000184
                },
                {
                    "name": "D6",
                    "midi": 86,
                    "time": 102.68037900000002,
                    "velocity": 0.6220472440944882,
                    "duration": 0.10309275000000184
                },
                {
                    "name": "F6",
                    "midi": 89,
                    "time": 102.68037900000002,
                    "velocity": 0.7322834645669292,
                    "duration": 0.10309275000000184
                },
                {
                    "name": "F5",
                    "midi": 77,
                    "time": 102.78347175000002,
                    "velocity": 0.6771653543307087,
                    "duration": 0.10309275000000184
                },
                {
                    "name": "A5",
                    "midi": 81,
                    "time": 102.88656450000002,
                    "velocity": 0.6062992125984252,
                    "duration": 0.10309275000000184
                },
                {
                    "name": "E6",
                    "midi": 88,
                    "time": 102.88656450000002,
                    "velocity": 0.7165354330708661,
                    "duration": 0.10309275000000184
                },
                {
                    "name": "E5",
                    "midi": 76,
                    "time": 102.98965725000002,
                    "velocity": 0.6062992125984252,
                    "duration": 0.10309275000000184
                },
                {
                    "name": "F5",
                    "midi": 77,
                    "time": 103.09275000000002,
                    "velocity": 0.5748031496062992,
                    "duration": 0.10309275000000184
                },
                {
                    "name": "D6",
                    "midi": 86,
                    "time": 103.09275000000002,
                    "velocity": 0.6771653543307087,
                    "duration": 0.10309275000000184
                },
                {
                    "name": "D5",
                    "midi": 74,
                    "time": 103.19584275000003,
                    "velocity": 0.5984251968503937,
                    "duration": 0.10309275000000184
                },
                {
                    "name": "A5",
                    "midi": 81,
                    "time": 103.29893550000003,
                    "velocity": 0.5748031496062992,
                    "duration": 0.10309275000000184
                },
                {
                    "name": "C#6",
                    "midi": 85,
                    "time": 103.29893550000003,
                    "velocity": 0.6850393700787402,
                    "duration": 0.10309275000000184
                },
                {
                    "name": "C#5",
                    "midi": 73,
                    "time": 103.40202825000003,
                    "velocity": 0.6220472440944882,
                    "duration": 0.10309275000000184
                },
                {
                    "name": "A5",
                    "midi": 81,
                    "time": 103.50512100000003,
                    "velocity": 0.6141732283464567,
                    "duration": 0.10309275000000184
                },
                {
                    "name": "D6",
                    "midi": 86,
                    "time": 103.50512100000003,
                    "velocity": 0.7244094488188977,
                    "duration": 0.10309275000000184
                },
                {
                    "name": "D5",
                    "midi": 74,
                    "time": 103.60821375000003,
                    "velocity": 0.6377952755905512,
                    "duration": 0.10309275000000184
                },
                {
                    "name": "E6",
                    "midi": 88,
                    "time": 103.71130650000003,
                    "velocity": 0.6299212598425197,
                    "duration": 0.10309275000000184
                },
                {
                    "name": "C#7",
                    "midi": 97,
                    "time": 103.71130650000003,
                    "velocity": 0.7480314960629921,
                    "duration": 0.10309275000000184
                },
                {
                    "name": "C#6",
                    "midi": 85,
                    "time": 103.81439925000004,
                    "velocity": 0.6771653543307087,
                    "duration": 0.10309275000000184
                },
                {
                    "name": "D6",
                    "midi": 86,
                    "time": 103.91749200000004,
                    "velocity": 0.7086614173228346,
                    "duration": 0.10309275000000184
                },
                {
                    "name": "D7",
                    "midi": 98,
                    "time": 104.02058475000004,
                    "velocity": 0.7480314960629921,
                    "duration": 0.10309275000000184
                },
                {
                    "name": "A6",
                    "midi": 93,
                    "time": 104.12367750000004,
                    "velocity": 0.7480314960629921,
                    "duration": 0.10309275000000184
                },
                {
                    "name": "F6",
                    "midi": 89,
                    "time": 104.22677025000004,
                    "velocity": 0.7401574803149606,
                    "duration": 0.10309275000000184
                },
                {
                    "name": "D6",
                    "midi": 86,
                    "time": 104.32986300000005,
                    "velocity": 0.7322834645669292,
                    "duration": 0.10309275000000184
                },
                {
                    "name": "A5",
                    "midi": 81,
                    "time": 104.43295575000005,
                    "velocity": 0.7244094488188977,
                    "duration": 0.10309275000000184
                },
                {
                    "name": "F5",
                    "midi": 77,
                    "time": 104.53604850000005,
                    "velocity": 0.7165354330708661,
                    "duration": 0.10309275000000184
                },
                {
                    "name": "A5",
                    "midi": 81,
                    "time": 104.63914125000005,
                    "velocity": 0.7086614173228346,
                    "duration": 0.10309275000000184
                },
                {
                    "name": "D5",
                    "midi": 74,
                    "time": 104.74223400000005,
                    "velocity": 0.7086614173228346,
                    "duration": 0.20618550000000369
                },
                {
                    "name": "F6",
                    "midi": 89,
                    "time": 104.94841950000006,
                    "velocity": 0.5984251968503937,
                    "duration": 0.10309275000000184
                },
                {
                    "name": "A6",
                    "midi": 93,
                    "time": 104.94841950000006,
                    "velocity": 0.7086614173228346,
                    "duration": 0.10309275000000184
                },
                {
                    "name": "A5",
                    "midi": 81,
                    "time": 105.05151225000006,
                    "velocity": 0.6771653543307087,
                    "duration": 0.10309275000000184
                },
                {
                    "name": "G6",
                    "midi": 91,
                    "time": 105.15460500000006,
                    "velocity": 0.6220472440944882,
                    "duration": 0.10309275000000184
                },
                {
                    "name": "B6",
                    "midi": 95,
                    "time": 105.15460500000006,
                    "velocity": 0.7322834645669292,
                    "duration": 0.10309275000000184
                },
                {
                    "name": "B5",
                    "midi": 83,
                    "time": 105.25769775000006,
                    "velocity": 0.6771653543307087,
                    "duration": 0.10309275000000184
                },
                {
                    "name": "A6",
                    "midi": 93,
                    "time": 105.36079050000006,
                    "velocity": 0.6220472440944882,
                    "duration": 0.10309275000000184
                },
                {
                    "name": "C7",
                    "midi": 96,
                    "time": 105.36079050000006,
                    "velocity": 0.7322834645669292,
                    "duration": 0.10309275000000184
                },
                {
                    "name": "C6",
                    "midi": 84,
                    "time": 105.46388325000007,
                    "velocity": 0.7007874015748031,
                    "duration": 0.10309275000000184
                },
                {
                    "name": "G6",
                    "midi": 91,
                    "time": 105.56697600000007,
                    "velocity": 0.6535433070866141,
                    "duration": 0.10309275000000184
                },
                {
                    "name": "B6",
                    "midi": 95,
                    "time": 105.56697600000007,
                    "velocity": 0.7716535433070866,
                    "duration": 0.10309275000000184
                },
                {
                    "name": "B5",
                    "midi": 83,
                    "time": 105.67006875000007,
                    "velocity": 0.7007874015748031,
                    "duration": 0.10309275000000184
                },
                {
                    "name": "F#6",
                    "midi": 90,
                    "time": 105.77316150000007,
                    "velocity": 0.6220472440944882,
                    "duration": 0.10309275000000184
                },
                {
                    "name": "A6",
                    "midi": 93,
                    "time": 105.77316150000007,
                    "velocity": 0.7401574803149606,
                    "duration": 0.10309275000000184
                },
                {
                    "name": "A5",
                    "midi": 81,
                    "time": 105.87625425000007,
                    "velocity": 0.6850393700787402,
                    "duration": 0.10309275000000184
                },
                {
                    "name": "E6",
                    "midi": 88,
                    "time": 105.97934700000008,
                    "velocity": 0.6220472440944882,
                    "duration": 0.10309275000000184
                },
                {
                    "name": "G6",
                    "midi": 91,
                    "time": 105.97934700000008,
                    "velocity": 0.7322834645669292,
                    "duration": 0.10309275000000184
                },
                {
                    "name": "G5",
                    "midi": 79,
                    "time": 106.08243975000008,
                    "velocity": 0.6771653543307087,
                    "duration": 0.10309275000000184
                },
                {
                    "name": "B5",
                    "midi": 83,
                    "time": 106.18553250000008,
                    "velocity": 0.6062992125984252,
                    "duration": 0.10309275000000184
                },
                {
                    "name": "F#6",
                    "midi": 90,
                    "time": 106.18553250000008,
                    "velocity": 0.7165354330708661,
                    "duration": 0.10309275000000184
                },
                {
                    "name": "F#5",
                    "midi": 78,
                    "time": 106.28862525000008,
                    "velocity": 0.6062992125984252,
                    "duration": 0.10309275000000184
                },
                {
                    "name": "G5",
                    "midi": 79,
                    "time": 106.39171800000008,
                    "velocity": 0.5748031496062992,
                    "duration": 0.10309275000000184
                },
                {
                    "name": "E6",
                    "midi": 88,
                    "time": 106.39171800000008,
                    "velocity": 0.6771653543307087,
                    "duration": 0.10309275000000184
                },
                {
                    "name": "E5",
                    "midi": 76,
                    "time": 106.49481075000008,
                    "velocity": 0.5984251968503937,
                    "duration": 0.10309275000000184
                },
                {
                    "name": "B5",
                    "midi": 83,
                    "time": 106.59790350000009,
                    "velocity": 0.5748031496062992,
                    "duration": 0.10309275000000184
                },
                {
                    "name": "D#6",
                    "midi": 87,
                    "time": 106.59790350000009,
                    "velocity": 0.6850393700787402,
                    "duration": 0.10309275000000184
                },
                {
                    "name": "D#5",
                    "midi": 75,
                    "time": 106.70099625000009,
                    "velocity": 0.6220472440944882,
                    "duration": 0.10309275000000184
                },
                {
                    "name": "B5",
                    "midi": 83,
                    "time": 106.80408900000009,
                    "velocity": 0.6141732283464567,
                    "duration": 0.10309275000000184
                },
                {
                    "name": "E6",
                    "midi": 88,
                    "time": 106.80408900000009,
                    "velocity": 0.7244094488188977,
                    "duration": 0.10309275000000184
                },
                {
                    "name": "E5",
                    "midi": 76,
                    "time": 106.90718175000009,
                    "velocity": 0.6377952755905512,
                    "duration": 0.10309275000000184
                },
                {
                    "name": "F5",
                    "midi": 77,
                    "time": 107.0102745000001,
                    "velocity": 0.6299212598425197,
                    "duration": 0.10309275000000184
                },
                {
                    "name": "D6",
                    "midi": 86,
                    "time": 107.0102745000001,
                    "velocity": 0.7480314960629921,
                    "duration": 0.10309275000000184
                },
                {
                    "name": "D5",
                    "midi": 74,
                    "time": 107.1133672500001,
                    "velocity": 0.6771653543307087,
                    "duration": 0.10309275000000184
                },
                {
                    "name": "C#5",
                    "midi": 73,
                    "time": 107.2164600000001,
                    "velocity": 0.7322834645669292,
                    "duration": 0.10309275000000184
                },
                {
                    "name": "E5",
                    "midi": 76,
                    "time": 107.2164600000001,
                    "velocity": 0.7322834645669292,
                    "duration": 0.10309275000000184
                },
                {
                    "name": "C#6",
                    "midi": 85,
                    "time": 107.3195527500001,
                    "velocity": 0.6850393700787402,
                    "duration": 0.10309275000000184
                },
                {
                    "name": "E5",
                    "midi": 76,
                    "time": 107.4226455000001,
                    "velocity": 0.6850393700787402,
                    "duration": 0.10309275000000184
                },
                {
                    "name": "G5",
                    "midi": 79,
                    "time": 107.4226455000001,
                    "velocity": 0.6850393700787402,
                    "duration": 0.10309275000000184
                },
                {
                    "name": "E6",
                    "midi": 88,
                    "time": 107.5257382500001,
                    "velocity": 0.6850393700787402,
                    "duration": 0.10309275000000184
                },
                {
                    "name": "C#5",
                    "midi": 73,
                    "time": 107.6288310000001,
                    "velocity": 0.7322834645669292,
                    "duration": 0.10309275000000184
                },
                {
                    "name": "E5",
                    "midi": 76,
                    "time": 107.6288310000001,
                    "velocity": 0.7322834645669292,
                    "duration": 0.10309275000000184
                },
                {
                    "name": "C#6",
                    "midi": 85,
                    "time": 107.7319237500001,
                    "velocity": 0.6771653543307087,
                    "duration": 0.10309275000000184
                },
                {
                    "name": "E5",
                    "midi": 76,
                    "time": 107.83501650000011,
                    "velocity": 0.6929133858267716,
                    "duration": 0.10309275000000184
                },
                {
                    "name": "G5",
                    "midi": 79,
                    "time": 107.83501650000011,
                    "velocity": 0.6929133858267716,
                    "duration": 0.10309275000000184
                },
                {
                    "name": "E6",
                    "midi": 88,
                    "time": 107.93810925000011,
                    "velocity": 0.6929133858267716,
                    "duration": 0.10309275000000184
                },
                {
                    "name": "A#5",
                    "midi": 82,
                    "time": 108.04120200000011,
                    "velocity": 0.7480314960629921,
                    "duration": 0.10309275000000184
                },
                {
                    "name": "A#6",
                    "midi": 94,
                    "time": 108.14429475000011,
                    "velocity": 0.7086614173228346,
                    "duration": 0.10309275000000184
                },
                {
                    "name": "G6",
                    "midi": 91,
                    "time": 108.24738750000012,
                    "velocity": 0.6929133858267716,
                    "duration": 0.10309275000000184
                },
                {
                    "name": "E6",
                    "midi": 88,
                    "time": 108.35048025000012,
                    "velocity": 0.6771653543307087,
                    "duration": 0.10309275000000184
                },
                {
                    "name": "A#5",
                    "midi": 82,
                    "time": 108.45357300000012,
                    "velocity": 0.6692913385826772,
                    "duration": 0.10309275000000184
                },
                {
                    "name": "G5",
                    "midi": 79,
                    "time": 108.55666575000012,
                    "velocity": 0.6692913385826772,
                    "duration": 0.10309275000000184
                },
                {
                    "name": "E5",
                    "midi": 76,
                    "time": 108.65975850000012,
                    "velocity": 0.6614173228346457,
                    "duration": 0.10309275000000184
                },
                {
                    "name": "A#4",
                    "midi": 70,
                    "time": 108.76285125000012,
                    "velocity": 0.6535433070866141,
                    "duration": 0.10309275000000184
                },
                {
                    "name": "C5",
                    "midi": 72,
                    "time": 108.86594400000013,
                    "velocity": 0.7165354330708661,
                    "duration": 0.10309275000000184
                },
                {
                    "name": "D#5",
                    "midi": 75,
                    "time": 108.86594400000013,
                    "velocity": 0.7165354330708661,
                    "duration": 0.10309275000000184
                },
                {
                    "name": "C6",
                    "midi": 84,
                    "time": 108.96903675000013,
                    "velocity": 0.6692913385826772,
                    "duration": 0.10309275000000184
                },
                {
                    "name": "D#5",
                    "midi": 75,
                    "time": 109.07212950000013,
                    "velocity": 0.6692913385826772,
                    "duration": 0.10309275000000184
                },
                {
                    "name": "F#5",
                    "midi": 78,
                    "time": 109.07212950000013,
                    "velocity": 0.6692913385826772,
                    "duration": 0.10309275000000184
                },
                {
                    "name": "D#6",
                    "midi": 87,
                    "time": 109.17522225000013,
                    "velocity": 0.6692913385826772,
                    "duration": 0.10309275000000184
                },
                {
                    "name": "C5",
                    "midi": 72,
                    "time": 109.27831500000013,
                    "velocity": 0.7165354330708661,
                    "duration": 0.10309275000000184
                },
                {
                    "name": "D#5",
                    "midi": 75,
                    "time": 109.27831500000013,
                    "velocity": 0.7165354330708661,
                    "duration": 0.10309275000000184
                },
                {
                    "name": "C6",
                    "midi": 84,
                    "time": 109.38140775000014,
                    "velocity": 0.6614173228346457,
                    "duration": 0.10309275000000184
                },
                {
                    "name": "D#5",
                    "midi": 75,
                    "time": 109.48450050000014,
                    "velocity": 0.6771653543307087,
                    "duration": 0.10309275000000184
                },
                {
                    "name": "F#5",
                    "midi": 78,
                    "time": 109.48450050000014,
                    "velocity": 0.6771653543307087,
                    "duration": 0.10309275000000184
                },
                {
                    "name": "D#6",
                    "midi": 87,
                    "time": 109.58759325000014,
                    "velocity": 0.6771653543307087,
                    "duration": 0.10309275000000184
                },
                {
                    "name": "A5",
                    "midi": 81,
                    "time": 109.69068600000014,
                    "velocity": 0.7322834645669292,
                    "duration": 0.10309275000000184
                },
                {
                    "name": "A6",
                    "midi": 93,
                    "time": 109.79377875000014,
                    "velocity": 0.6929133858267716,
                    "duration": 0.10309275000000184
                },
                {
                    "name": "F#6",
                    "midi": 90,
                    "time": 109.89687150000015,
                    "velocity": 0.6771653543307087,
                    "duration": 0.10309275000000184
                },
                {
                    "name": "D#6",
                    "midi": 87,
                    "time": 109.99996425000015,
                    "velocity": 0.6614173228346457,
                    "duration": 0.10309275000000184
                },
                {
                    "name": "A5",
                    "midi": 81,
                    "time": 110.10305700000015,
                    "velocity": 0.6535433070866141,
                    "duration": 0.10309275000000184
                },
                {
                    "name": "F#5",
                    "midi": 78,
                    "time": 110.20614975000015,
                    "velocity": 0.6535433070866141,
                    "duration": 0.10309275000000184
                },
                {
                    "name": "D#5",
                    "midi": 75,
                    "time": 110.30924250000015,
                    "velocity": 0.6456692913385826,
                    "duration": 0.10309275000000184
                },
                {
                    "name": "A4",
                    "midi": 69,
                    "time": 110.41233525000015,
                    "velocity": 0.6377952755905512,
                    "duration": 0.10309275000000184
                },
                {
                    "name": "G4",
                    "midi": 67,
                    "time": 110.51542800000016,
                    "velocity": 0.6614173228346457,
                    "duration": 0.10309275000000184
                },
                {
                    "name": "G5",
                    "midi": 79,
                    "time": 110.61852075000016,
                    "velocity": 0.5905511811023622,
                    "duration": 0.10309275000000184
                },
                {
                    "name": "D5",
                    "midi": 74,
                    "time": 110.72161350000016,
                    "velocity": 0.5905511811023622,
                    "duration": 0.10309275000000184
                },
                {
                    "name": "B4",
                    "midi": 71,
                    "time": 110.82470625000016,
                    "velocity": 0.5826771653543307,
                    "duration": 0.10309275000000184
                },
                {
                    "name": "D5",
                    "midi": 74,
                    "time": 110.92779900000016,
                    "velocity": 0.6299212598425197,
                    "duration": 0.10309275000000184
                },
                {
                    "name": "D6",
                    "midi": 86,
                    "time": 111.03089175000017,
                    "velocity": 0.5905511811023622,
                    "duration": 0.10309275000000184
                },
                {
                    "name": "B5",
                    "midi": 83,
                    "time": 111.13398450000017,
                    "velocity": 0.5905511811023622,
                    "duration": 0.10309275000000184
                },
                {
                    "name": "G5",
                    "midi": 79,
                    "time": 111.23707725000017,
                    "velocity": 0.5905511811023622,
                    "duration": 0.10309275000000184
                },
                {
                    "name": "C6",
                    "midi": 84,
                    "time": 111.34017000000017,
                    "velocity": 0.4881889763779528,
                    "duration": 0.10309275000000184
                },
                {
                    "name": "E6",
                    "midi": 88,
                    "time": 111.34017000000017,
                    "velocity": 0.5748031496062992,
                    "duration": 0.10309275000000184
                },
                {
                    "name": "E5",
                    "midi": 76,
                    "time": 111.44326275000017,
                    "velocity": 0.5826771653543307,
                    "duration": 0.10309275000000184
                },
                {
                    "name": "D6",
                    "midi": 86,
                    "time": 111.54635550000017,
                    "velocity": 0.5039370078740157,
                    "duration": 0.10309275000000184
                },
                {
                    "name": "F6",
                    "midi": 89,
                    "time": 111.54635550000017,
                    "velocity": 0.5984251968503937,
                    "duration": 0.10309275000000184
                },
                {
                    "name": "F5",
                    "midi": 77,
                    "time": 111.64944825000018,
                    "velocity": 0.6141732283464567,
                    "duration": 0.10309275000000184
                },
                {
                    "name": "E6",
                    "midi": 88,
                    "time": 111.75254100000018,
                    "velocity": 0.5275590551181102,
                    "duration": 0.10309275000000184
                },
                {
                    "name": "G6",
                    "midi": 91,
                    "time": 111.75254100000018,
                    "velocity": 0.6220472440944882,
                    "duration": 0.10309275000000184
                },
                {
                    "name": "G5",
                    "midi": 79,
                    "time": 111.85563375000018,
                    "velocity": 0.6377952755905512,
                    "duration": 0.10309275000000184
                },
                {
                    "name": "F6",
                    "midi": 89,
                    "time": 111.95872650000018,
                    "velocity": 0.5511811023622047,
                    "duration": 0.10309275000000184
                },
                {
                    "name": "A6",
                    "midi": 93,
                    "time": 111.95872650000018,
                    "velocity": 0.6535433070866141,
                    "duration": 0.10309275000000184
                },
                {
                    "name": "A5",
                    "midi": 81,
                    "time": 112.06181925000018,
                    "velocity": 0.6614173228346457,
                    "duration": 0.10309275000000184
                },
                {
                    "name": "D6",
                    "midi": 86,
                    "time": 112.16491200000019,
                    "velocity": 0.5669291338582677,
                    "duration": 0.10309275000000184
                },
                {
                    "name": "G6",
                    "midi": 91,
                    "time": 112.16491200000019,
                    "velocity": 0.5669291338582677,
                    "duration": 0.10309275000000184
                },
                {
                    "name": "B6",
                    "midi": 95,
                    "time": 112.16491200000019,
                    "velocity": 0.6692913385826772,
                    "duration": 0.10309275000000184
                },
                {
                    "name": "B5",
                    "midi": 83,
                    "time": 112.26800475000019,
                    "velocity": 0.6771653543307087,
                    "duration": 0.10309275000000184
                },
                {
                    "name": "D6",
                    "midi": 86,
                    "time": 112.37109750000019,
                    "velocity": 0.5748031496062992,
                    "duration": 0.10309275000000184
                },
                {
                    "name": "G6",
                    "midi": 91,
                    "time": 112.37109750000019,
                    "velocity": 0.5748031496062992,
                    "duration": 0.10309275000000184
                },
                {
                    "name": "B6",
                    "midi": 95,
                    "time": 112.37109750000019,
                    "velocity": 0.6850393700787402,
                    "duration": 0.10309275000000184
                },
                {
                    "name": "B5",
                    "midi": 83,
                    "time": 112.47419025000019,
                    "velocity": 0.7007874015748031,
                    "duration": 0.10309275000000184
                },
                {
                    "name": "C7",
                    "midi": 96,
                    "time": 112.5772830000002,
                    "velocity": 0.7086614173228346,
                    "duration": 0.10309275000000184
                },
                {
                    "name": "G6",
                    "midi": 91,
                    "time": 112.5772830000002,
                    "velocity": 0.5984251968503937,
                    "duration": 0.10309275000000184
                },
                {
                    "name": "C6",
                    "midi": 84,
                    "time": 112.6803757500002,
                    "velocity": 0.7244094488188977,
                    "duration": 0.10309275000000184
                },
                {
                    "name": "C7",
                    "midi": 96,
                    "time": 112.7834685000002,
                    "velocity": 0.7322834645669292,
                    "duration": 0.10309275000000184
                },
                {
                    "name": "G6",
                    "midi": 91,
                    "time": 112.7834685000002,
                    "velocity": 0.6220472440944882,
                    "duration": 0.10309275000000184
                },
                {
                    "name": "C6",
                    "midi": 84,
                    "time": 112.8865612500002,
                    "velocity": 0.7401574803149606,
                    "duration": 0.10309275000000184
                },
                {
                    "name": "F7",
                    "midi": 101,
                    "time": 112.9896540000002,
                    "velocity": 0.7401574803149606,
                    "duration": 0.10309275000000184
                },
                {
                    "name": "C7",
                    "midi": 96,
                    "time": 112.9896540000002,
                    "velocity": 0.6220472440944882,
                    "duration": 0.10309275000000184
                },
                {
                    "name": "F6",
                    "midi": 89,
                    "time": 113.0927467500002,
                    "velocity": 0.7401574803149606,
                    "duration": 0.10309275000000184
                },
                {
                    "name": "F7",
                    "midi": 101,
                    "time": 113.1958395000002,
                    "velocity": 0.7401574803149606,
                    "duration": 0.10309275000000184
                },
                {
                    "name": "C7",
                    "midi": 96,
                    "time": 113.1958395000002,
                    "velocity": 0.6220472440944882,
                    "duration": 0.10309275000000184
                },
                {
                    "name": "F6",
                    "midi": 89,
                    "time": 113.2989322500002,
                    "velocity": 0.7401574803149606,
                    "duration": 0.10309275000000184
                },
                {
                    "name": "B6",
                    "midi": 95,
                    "time": 113.40202500000021,
                    "velocity": 0.6220472440944882,
                    "duration": 0.10309275000000184
                },
                {
                    "name": "F7",
                    "midi": 101,
                    "time": 113.40202500000021,
                    "velocity": 0.7401574803149606,
                    "duration": 0.10309275000000184
                },
                {
                    "name": "F6",
                    "midi": 89,
                    "time": 113.50511775000021,
                    "velocity": 0.7401574803149606,
                    "duration": 0.10309275000000184
                },
                {
                    "name": "B6",
                    "midi": 95,
                    "time": 113.60821050000021,
                    "velocity": 0.6220472440944882,
                    "duration": 0.10309275000000184
                },
                {
                    "name": "F7",
                    "midi": 101,
                    "time": 113.60821050000021,
                    "velocity": 0.7401574803149606,
                    "duration": 0.10309275000000184
                },
                {
                    "name": "F6",
                    "midi": 89,
                    "time": 113.71130325000021,
                    "velocity": 0.7401574803149606,
                    "duration": 0.10309275000000184
                },
                {
                    "name": "E6",
                    "midi": 88,
                    "time": 113.81439600000022,
                    "velocity": 0.6299212598425197,
                    "duration": 0.28350506249999796
                },
                {
                    "name": "B6",
                    "midi": 95,
                    "time": 113.81439600000022,
                    "velocity": 0.6614173228346457,
                    "duration": 0.28350506249999796
                },
                {
                    "name": "E7",
                    "midi": 100,
                    "time": 113.81439600000022,
                    "velocity": 0.7795275590551181,
                    "duration": 0.28350506249999796
                },
                {
                    "name": "E3",
                    "midi": 52,
                    "time": 114.1236742500002,
                    "velocity": 0.6220472440944882,
                    "duration": 0.07731956249999428
                },
                {
                    "name": "B3",
                    "midi": 59,
                    "time": 114.1236742500002,
                    "velocity": 0.6220472440944882,
                    "duration": 0.07731956249999428
                },
                {
                    "name": "E4",
                    "midi": 64,
                    "time": 114.1236742500002,
                    "velocity": 0.7401574803149606,
                    "duration": 0.07731956249999428
                },
                {
                    "name": "E4",
                    "midi": 64,
                    "time": 114.2267670000002,
                    "velocity": 0.6929133858267716,
                    "duration": 0.8247420000000005
                },
                {
                    "name": "E3",
                    "midi": 52,
                    "time": 114.2267670000002,
                    "velocity": 0.5826771653543307,
                    "duration": 1.2371129999999937
                },
                {
                    "name": "B3",
                    "midi": 59,
                    "time": 114.2267670000002,
                    "velocity": 0.5826771653543307,
                    "duration": 1.2371129999999937
                },
                {
                    "name": "D4",
                    "midi": 62,
                    "time": 115.0515090000002,
                    "velocity": 0.5118110236220472,
                    "duration": 0.41237099999999316
                },
                {
                    "name": "A#3",
                    "midi": 58,
                    "time": 115.46388000000019,
                    "velocity": 0.2755905511811024,
                    "duration": 0.10309275000000184
                },
                {
                    "name": "C#4",
                    "midi": 61,
                    "time": 115.46388000000019,
                    "velocity": 0.33070866141732286,
                    "duration": 0.10309275000000184
                },
                {
                    "name": "E3",
                    "midi": 52,
                    "time": 115.56697275000019,
                    "velocity": 0.33070866141732286,
                    "duration": 0.10309275000000184
                },
                {
                    "name": "A#3",
                    "midi": 58,
                    "time": 115.67006550000019,
                    "velocity": 0.28346456692913385,
                    "duration": 0.10309275000000184
                },
                {
                    "name": "C#4",
                    "midi": 61,
                    "time": 115.67006550000019,
                    "velocity": 0.33858267716535434,
                    "duration": 0.10309275000000184
                },
                {
                    "name": "E3",
                    "midi": 52,
                    "time": 115.7731582500002,
                    "velocity": 0.33858267716535434,
                    "duration": 0.10309275000000184
                },
                {
                    "name": "C#4",
                    "midi": 61,
                    "time": 115.8762510000002,
                    "velocity": 0.3464566929133858,
                    "duration": 0.10309275000000184
                },
                {
                    "name": "A#3",
                    "midi": 58,
                    "time": 115.8762510000002,
                    "velocity": 0.29133858267716534,
                    "duration": 0.10309275000000184
                },
                {
                    "name": "E3",
                    "midi": 52,
                    "time": 115.9793437500002,
                    "velocity": 0.3543307086614173,
                    "duration": 0.10309275000000184
                },
                {
                    "name": "A#3",
                    "midi": 58,
                    "time": 116.0824365000002,
                    "velocity": 0.2992125984251969,
                    "duration": 0.10309275000000184
                },
                {
                    "name": "C#4",
                    "midi": 61,
                    "time": 116.0824365000002,
                    "velocity": 0.3543307086614173,
                    "duration": 0.10309275000000184
                },
                {
                    "name": "E3",
                    "midi": 52,
                    "time": 116.1855292500002,
                    "velocity": 0.36220472440944884,
                    "duration": 0.10309275000000184
                },
                {
                    "name": "C#4",
                    "midi": 61,
                    "time": 116.2886220000002,
                    "velocity": 0.30708661417322836,
                    "duration": 0.10309275000000184
                },
                {
                    "name": "E4",
                    "midi": 64,
                    "time": 116.2886220000002,
                    "velocity": 0.36220472440944884,
                    "duration": 0.10309275000000184
                },
                {
                    "name": "A#3",
                    "midi": 58,
                    "time": 116.3917147500002,
                    "velocity": 0.3700787401574803,
                    "duration": 0.10309275000000184
                },
                {
                    "name": "C#4",
                    "midi": 61,
                    "time": 116.4948075000002,
                    "velocity": 0.30708661417322836,
                    "duration": 0.10309275000000184
                },
                {
                    "name": "E4",
                    "midi": 64,
                    "time": 116.4948075000002,
                    "velocity": 0.3700787401574803,
                    "duration": 0.10309275000000184
                },
                {
                    "name": "A#3",
                    "midi": 58,
                    "time": 116.59790025000021,
                    "velocity": 0.3779527559055118,
                    "duration": 0.10309275000000184
                },
                {
                    "name": "C#4",
                    "midi": 61,
                    "time": 116.70099300000021,
                    "velocity": 0.31496062992125984,
                    "duration": 0.10309275000000184
                },
                {
                    "name": "E4",
                    "midi": 64,
                    "time": 116.70099300000021,
                    "velocity": 0.3779527559055118,
                    "duration": 0.10309275000000184
                },
                {
                    "name": "A#3",
                    "midi": 58,
                    "time": 116.80408575000021,
                    "velocity": 0.3858267716535433,
                    "duration": 0.10309275000000184
                },
                {
                    "name": "C#4",
                    "midi": 61,
                    "time": 116.90717850000021,
                    "velocity": 0.33070866141732286,
                    "duration": 0.10309275000000184
                },
                {
                    "name": "E4",
                    "midi": 64,
                    "time": 116.90717850000021,
                    "velocity": 0.3937007874015748,
                    "duration": 0.10309275000000184
                },
                {
                    "name": "A#3",
                    "midi": 58,
                    "time": 117.01027125000022,
                    "velocity": 0.3937007874015748,
                    "duration": 0.10309275000000184
                },
                {
                    "name": "E4",
                    "midi": 64,
                    "time": 117.11336400000022,
                    "velocity": 0.33070866141732286,
                    "duration": 0.10309275000000184
                },
                {
                    "name": "A#4",
                    "midi": 70,
                    "time": 117.11336400000022,
                    "velocity": 0.3937007874015748,
                    "duration": 0.10309275000000184
                },
                {
                    "name": "C#4",
                    "midi": 61,
                    "time": 117.21645675000022,
                    "velocity": 0.4094488188976378,
                    "duration": 0.10309275000000184
                },
                {
                    "name": "E4",
                    "midi": 64,
                    "time": 117.31954950000022,
                    "velocity": 0.3543307086614173,
                    "duration": 0.10309275000000184
                },
                {
                    "name": "A#4",
                    "midi": 70,
                    "time": 117.31954950000022,
                    "velocity": 0.4251968503937008,
                    "duration": 0.10309275000000184
                },
                {
                    "name": "C#4",
                    "midi": 61,
                    "time": 117.42264225000022,
                    "velocity": 0.4409448818897638,
                    "duration": 0.10309275000000184
                },
                {
                    "name": "A#4",
                    "midi": 70,
                    "time": 117.52573500000022,
                    "velocity": 0.4015748031496063,
                    "duration": 0.10309275000000184
                },
                {
                    "name": "C#5",
                    "midi": 73,
                    "time": 117.52573500000022,
                    "velocity": 0.48031496062992124,
                    "duration": 0.10309275000000184
                },
                {
                    "name": "E4",
                    "midi": 64,
                    "time": 117.62882775000023,
                    "velocity": 0.5039370078740157,
                    "duration": 0.10309275000000184
                },
                {
                    "name": "A#4",
                    "midi": 70,
                    "time": 117.73192050000023,
                    "velocity": 0.4409448818897638,
                    "duration": 0.10309275000000184
                },
                {
                    "name": "C#5",
                    "midi": 73,
                    "time": 117.73192050000023,
                    "velocity": 0.5196850393700787,
                    "duration": 0.10309275000000184
                },
                {
                    "name": "E4",
                    "midi": 64,
                    "time": 117.83501325000023,
                    "velocity": 0.5511811023622047,
                    "duration": 0.10309275000000184
                },
                {
                    "name": "C#5",
                    "midi": 73,
                    "time": 117.93810600000023,
                    "velocity": 0.48031496062992124,
                    "duration": 0.10309275000000184
                },
                {
                    "name": "E5",
                    "midi": 76,
                    "time": 117.93810600000023,
                    "velocity": 0.5669291338582677,
                    "duration": 0.10309275000000184
                },
                {
                    "name": "A#4",
                    "midi": 70,
                    "time": 118.04119875000023,
                    "velocity": 0.5905511811023622,
                    "duration": 0.10309275000000184
                },
                {
                    "name": "E5",
                    "midi": 76,
                    "time": 118.14429150000024,
                    "velocity": 0.5118110236220472,
                    "duration": 0.10309275000000184
                },
                {
                    "name": "A#5",
                    "midi": 82,
                    "time": 118.14429150000024,
                    "velocity": 0.6141732283464567,
                    "duration": 0.10309275000000184
                },
                {
                    "name": "C#5",
                    "midi": 73,
                    "time": 118.24738425000024,
                    "velocity": 0.6377952755905512,
                    "duration": 0.10309275000000184
                },
                {
                    "name": "A#5",
                    "midi": 82,
                    "time": 118.35047700000024,
                    "velocity": 0.5511811023622047,
                    "duration": 0.10309275000000184
                },
                {
                    "name": "C#6",
                    "midi": 85,
                    "time": 118.35047700000024,
                    "velocity": 0.6535433070866141,
                    "duration": 0.10309275000000184
                },
                {
                    "name": "E5",
                    "midi": 76,
                    "time": 118.45356975000024,
                    "velocity": 0.6850393700787402,
                    "duration": 0.10309275000000184
                },
                {
                    "name": "E6",
                    "midi": 88,
                    "time": 118.55666250000024,
                    "velocity": 0.7007874015748031,
                    "duration": 0.10309275000000184
                },
                {
                    "name": "C#6",
                    "midi": 85,
                    "time": 118.55666250000024,
                    "velocity": 0.5905511811023622,
                    "duration": 0.10309275000000184
                },
                {
                    "name": "A#5",
                    "midi": 82,
                    "time": 118.65975525000025,
                    "velocity": 0.7244094488188977,
                    "duration": 0.10309275000000184
                },
                {
                    "name": "F6",
                    "midi": 89,
                    "time": 118.76284800000025,
                    "velocity": 0.8188976377952756,
                    "duration": 0.41237099999999316
                },
                {
                    "name": "D6",
                    "midi": 86,
                    "time": 118.76284800000025,
                    "velocity": 0.6929133858267716,
                    "duration": 0.41237099999999316
                },
                {
                    "name": "A5",
                    "midi": 81,
                    "time": 118.76284800000025,
                    "velocity": 0.6929133858267716,
                    "duration": 0.41237099999999316
                },
                {
                    "name": "A6",
                    "midi": 93,
                    "time": 119.17521900000024,
                    "velocity": 0.7795275590551181,
                    "duration": 0.41237099999999316
                },
                {
                    "name": "F6",
                    "midi": 89,
                    "time": 119.17521900000024,
                    "velocity": 0.6535433070866141,
                    "duration": 0.41237099999999316
                },
                {
                    "name": "D6",
                    "midi": 86,
                    "time": 119.17521900000024,
                    "velocity": 0.6535433070866141,
                    "duration": 0.41237099999999316
                },
                {
                    "name": "A5",
                    "midi": 81,
                    "time": 119.17521900000024,
                    "velocity": 0.6535433070866141,
                    "duration": 0.41237099999999316
                },
                {
                    "name": "E6",
                    "midi": 88,
                    "time": 119.58759000000023,
                    "velocity": 0.8188976377952756,
                    "duration": 0.41237099999999316
                },
                {
                    "name": "C6",
                    "midi": 84,
                    "time": 119.58759000000023,
                    "velocity": 0.6929133858267716,
                    "duration": 0.41237099999999316
                },
                {
                    "name": "G5",
                    "midi": 79,
                    "time": 119.58759000000023,
                    "velocity": 0.6929133858267716,
                    "duration": 0.41237099999999316
                },
                {
                    "name": "E5",
                    "midi": 76,
                    "time": 119.58759000000023,
                    "velocity": 0.6929133858267716,
                    "duration": 0.41237099999999316
                },
                {
                    "name": "D6",
                    "midi": 86,
                    "time": 119.99996100000023,
                    "velocity": 0.7952755905511811,
                    "duration": 0.41237099999999316
                },
                {
                    "name": "B5",
                    "midi": 83,
                    "time": 119.99996100000023,
                    "velocity": 0.6614173228346457,
                    "duration": 0.41237099999999316
                },
                {
                    "name": "G5",
                    "midi": 79,
                    "time": 119.99996100000023,
                    "velocity": 0.6614173228346457,
                    "duration": 0.41237099999999316
                },
                {
                    "name": "D5",
                    "midi": 74,
                    "time": 119.99996100000023,
                    "velocity": 0.6614173228346457,
                    "duration": 0.41237099999999316
                },
                {
                    "name": "E5",
                    "midi": 76,
                    "time": 120.41233200000022,
                    "velocity": 0.7007874015748031,
                    "duration": 0.28350506249999796
                },
                {
                    "name": "B5",
                    "midi": 83,
                    "time": 120.41233200000022,
                    "velocity": 0.7244094488188977,
                    "duration": 0.28350506249999796
                },
                {
                    "name": "E6",
                    "midi": 88,
                    "time": 120.41233200000022,
                    "velocity": 0.8503937007874016,
                    "duration": 0.28350506249999796
                },
                {
                    "name": "E3",
                    "midi": 52,
                    "time": 120.72161025000021,
                    "velocity": 0.6692913385826772,
                    "duration": 0.07731956249999428
                },
                {
                    "name": "B3",
                    "midi": 59,
                    "time": 120.72161025000021,
                    "velocity": 0.6692913385826772,
                    "duration": 0.07731956249999428
                },
                {
                    "name": "E4",
                    "midi": 64,
                    "time": 120.72161025000021,
                    "velocity": 0.7874015748031497,
                    "duration": 0.07731956249999428
                },
                {
                    "name": "E4",
                    "midi": 64,
                    "time": 120.8247030000002,
                    "velocity": 0.7401574803149606,
                    "duration": 0.8247420000000005
                },
                {
                    "name": "E3",
                    "midi": 52,
                    "time": 120.8247030000002,
                    "velocity": 0.6220472440944882,
                    "duration": 1.2371129999999937
                },
                {
                    "name": "B3",
                    "midi": 59,
                    "time": 120.8247030000002,
                    "velocity": 0.6220472440944882,
                    "duration": 1.2371129999999937
                },
                {
                    "name": "D4",
                    "midi": 62,
                    "time": 121.6494450000002,
                    "velocity": 0.5118110236220472,
                    "duration": 0.41237099999999316
                },
                {
                    "name": "A#3",
                    "midi": 58,
                    "time": 122.06181600000019,
                    "velocity": 0.2755905511811024,
                    "duration": 0.10309275000000184
                },
                {
                    "name": "C#4",
                    "midi": 61,
                    "time": 122.06181600000019,
                    "velocity": 0.33070866141732286,
                    "duration": 0.10309275000000184
                },
                {
                    "name": "E3",
                    "midi": 52,
                    "time": 122.1649087500002,
                    "velocity": 0.33070866141732286,
                    "duration": 0.10309275000000184
                },
                {
                    "name": "A#3",
                    "midi": 58,
                    "time": 122.2680015000002,
                    "velocity": 0.28346456692913385,
                    "duration": 0.10309275000000184
                },
                {
                    "name": "C#4",
                    "midi": 61,
                    "time": 122.2680015000002,
                    "velocity": 0.33858267716535434,
                    "duration": 0.10309275000000184
                },
                {
                    "name": "E3",
                    "midi": 52,
                    "time": 122.3710942500002,
                    "velocity": 0.33858267716535434,
                    "duration": 0.10309275000000184
                },
                {
                    "name": "C#4",
                    "midi": 61,
                    "time": 122.4741870000002,
                    "velocity": 0.3464566929133858,
                    "duration": 0.10309275000000184
                },
                {
                    "name": "A#3",
                    "midi": 58,
                    "time": 122.4741870000002,
                    "velocity": 0.29133858267716534,
                    "duration": 0.10309275000000184
                },
                {
                    "name": "E3",
                    "midi": 52,
                    "time": 122.5772797500002,
                    "velocity": 0.3543307086614173,
                    "duration": 0.10309275000000184
                },
                {
                    "name": "A#3",
                    "midi": 58,
                    "time": 122.6803725000002,
                    "velocity": 0.2992125984251969,
                    "duration": 0.10309275000000184
                },
                {
                    "name": "C#4",
                    "midi": 61,
                    "time": 122.6803725000002,
                    "velocity": 0.3543307086614173,
                    "duration": 0.10309275000000184
                },
                {
                    "name": "E3",
                    "midi": 52,
                    "time": 122.7834652500002,
                    "velocity": 0.36220472440944884,
                    "duration": 0.10309275000000184
                },
                {
                    "name": "C#4",
                    "midi": 61,
                    "time": 122.8865580000002,
                    "velocity": 0.30708661417322836,
                    "duration": 0.10309275000000184
                },
                {
                    "name": "E4",
                    "midi": 64,
                    "time": 122.8865580000002,
                    "velocity": 0.36220472440944884,
                    "duration": 0.10309275000000184
                },
                {
                    "name": "A#3",
                    "midi": 58,
                    "time": 122.98965075000021,
                    "velocity": 0.3700787401574803,
                    "duration": 0.10309275000000184
                },
                {
                    "name": "C#4",
                    "midi": 61,
                    "time": 123.09274350000021,
                    "velocity": 0.30708661417322836,
                    "duration": 0.10309275000000184
                },
                {
                    "name": "E4",
                    "midi": 64,
                    "time": 123.09274350000021,
                    "velocity": 0.3700787401574803,
                    "duration": 0.10309275000000184
                },
                {
                    "name": "A#3",
                    "midi": 58,
                    "time": 123.19583625000021,
                    "velocity": 0.3779527559055118,
                    "duration": 0.10309275000000184
                },
                {
                    "name": "C#4",
                    "midi": 61,
                    "time": 123.29892900000021,
                    "velocity": 0.31496062992125984,
                    "duration": 0.10309275000000184
                },
                {
                    "name": "E4",
                    "midi": 64,
                    "time": 123.29892900000021,
                    "velocity": 0.3779527559055118,
                    "duration": 0.10309275000000184
                },
                {
                    "name": "A#3",
                    "midi": 58,
                    "time": 123.40202175000022,
                    "velocity": 0.3858267716535433,
                    "duration": 0.10309275000000184
                },
                {
                    "name": "C#4",
                    "midi": 61,
                    "time": 123.50511450000022,
                    "velocity": 0.33070866141732286,
                    "duration": 0.10309275000000184
                },
                {
                    "name": "E4",
                    "midi": 64,
                    "time": 123.50511450000022,
                    "velocity": 0.3937007874015748,
                    "duration": 0.10309275000000184
                },
                {
                    "name": "A#3",
                    "midi": 58,
                    "time": 123.60820725000022,
                    "velocity": 0.3937007874015748,
                    "duration": 0.10309275000000184
                },
                {
                    "name": "E4",
                    "midi": 64,
                    "time": 123.71130000000022,
                    "velocity": 0.33070866141732286,
                    "duration": 0.10309275000000184
                },
                {
                    "name": "A#4",
                    "midi": 70,
                    "time": 123.71130000000022,
                    "velocity": 0.3937007874015748,
                    "duration": 0.10309275000000184
                },
                {
                    "name": "C#4",
                    "midi": 61,
                    "time": 123.81439275000022,
                    "velocity": 0.4094488188976378,
                    "duration": 0.10309275000000184
                },
                {
                    "name": "E4",
                    "midi": 64,
                    "time": 123.91748550000023,
                    "velocity": 0.3543307086614173,
                    "duration": 0.10309275000000184
                },
                {
                    "name": "A#4",
                    "midi": 70,
                    "time": 123.91748550000023,
                    "velocity": 0.4251968503937008,
                    "duration": 0.10309275000000184
                },
                {
                    "name": "C#4",
                    "midi": 61,
                    "time": 124.02057825000023,
                    "velocity": 0.4409448818897638,
                    "duration": 0.10309275000000184
                },
                {
                    "name": "A#4",
                    "midi": 70,
                    "time": 124.12367100000023,
                    "velocity": 0.4015748031496063,
                    "duration": 0.10309275000000184
                },
                {
                    "name": "C#5",
                    "midi": 73,
                    "time": 124.12367100000023,
                    "velocity": 0.48031496062992124,
                    "duration": 0.10309275000000184
                },
                {
                    "name": "E4",
                    "midi": 64,
                    "time": 124.22676375000023,
                    "velocity": 0.5039370078740157,
                    "duration": 0.10309275000000184
                },
                {
                    "name": "A#4",
                    "midi": 70,
                    "time": 124.32985650000023,
                    "velocity": 0.4409448818897638,
                    "duration": 0.10309275000000184
                },
                {
                    "name": "C#5",
                    "midi": 73,
                    "time": 124.32985650000023,
                    "velocity": 0.5196850393700787,
                    "duration": 0.10309275000000184
                },
                {
                    "name": "E4",
                    "midi": 64,
                    "time": 124.43294925000023,
                    "velocity": 0.5511811023622047,
                    "duration": 0.10309275000000184
                },
                {
                    "name": "C#5",
                    "midi": 73,
                    "time": 124.53604200000024,
                    "velocity": 0.48031496062992124,
                    "duration": 0.10309275000000184
                },
                {
                    "name": "E5",
                    "midi": 76,
                    "time": 124.53604200000024,
                    "velocity": 0.5669291338582677,
                    "duration": 0.10309275000000184
                },
                {
                    "name": "A#4",
                    "midi": 70,
                    "time": 124.63913475000024,
                    "velocity": 0.5905511811023622,
                    "duration": 0.10309275000000184
                },
                {
                    "name": "E5",
                    "midi": 76,
                    "time": 124.74222750000024,
                    "velocity": 0.5118110236220472,
                    "duration": 0.10309275000000184
                },
                {
                    "name": "A#5",
                    "midi": 82,
                    "time": 124.74222750000024,
                    "velocity": 0.6141732283464567,
                    "duration": 0.10309275000000184
                },
                {
                    "name": "C#5",
                    "midi": 73,
                    "time": 124.84532025000024,
                    "velocity": 0.6377952755905512,
                    "duration": 0.10309275000000184
                },
                {
                    "name": "A#5",
                    "midi": 82,
                    "time": 124.94841300000024,
                    "velocity": 0.5511811023622047,
                    "duration": 0.10309275000000184
                },
                {
                    "name": "C#6",
                    "midi": 85,
                    "time": 124.94841300000024,
                    "velocity": 0.6535433070866141,
                    "duration": 0.10309275000000184
                },
                {
                    "name": "E5",
                    "midi": 76,
                    "time": 125.05150575000025,
                    "velocity": 0.6850393700787402,
                    "duration": 0.10309275000000184
                },
                {
                    "name": "E6",
                    "midi": 88,
                    "time": 125.15459850000025,
                    "velocity": 0.7007874015748031,
                    "duration": 0.10309275000000184
                },
                {
                    "name": "C#6",
                    "midi": 85,
                    "time": 125.15459850000025,
                    "velocity": 0.5905511811023622,
                    "duration": 0.10309275000000184
                },
                {
                    "name": "A#5",
                    "midi": 82,
                    "time": 125.25769125000025,
                    "velocity": 0.7244094488188977,
                    "duration": 0.10309275000000184
                },
                {
                    "name": "A#5",
                    "midi": 82,
                    "time": 125.36078400000025,
                    "velocity": 0.6456692913385826,
                    "duration": 0.30927825000000553
                },
                {
                    "name": "F5",
                    "midi": 77,
                    "time": 125.36078400000025,
                    "velocity": 0.6456692913385826,
                    "duration": 0.30927825000000553
                },
                {
                    "name": "D6",
                    "midi": 86,
                    "time": 125.36078400000025,
                    "velocity": 0.6456692913385826,
                    "duration": 0.30927825000000553
                },
                {
                    "name": "F6",
                    "midi": 89,
                    "time": 125.36078400000025,
                    "velocity": 0.7716535433070866,
                    "duration": 0.30927825000000553
                },
                {
                    "name": "A#4",
                    "midi": 70,
                    "time": 125.67006225000026,
                    "velocity": 0.5590551181102362,
                    "duration": 0.07731956249999428
                },
                {
                    "name": "F4",
                    "midi": 65,
                    "time": 125.67006225000026,
                    "velocity": 0.5590551181102362,
                    "duration": 0.07731956249999428
                },
                {
                    "name": "D5",
                    "midi": 74,
                    "time": 125.67006225000026,
                    "velocity": 0.6614173228346457,
                    "duration": 0.07731956249999428
                },
                {
                    "name": "F5",
                    "midi": 77,
                    "time": 125.67006225000026,
                    "velocity": 0.6614173228346457,
                    "duration": 0.07731956249999428
                },
                {
                    "name": "F4",
                    "midi": 65,
                    "time": 125.77315500000024,
                    "velocity": 0.5826771653543307,
                    "duration": 0.41237099999999316
                },
                {
                    "name": "A#4",
                    "midi": 70,
                    "time": 125.77315500000024,
                    "velocity": 0.5826771653543307,
                    "duration": 0.41237099999999316
                },
                {
                    "name": "F5",
                    "midi": 77,
                    "time": 125.77315500000024,
                    "velocity": 0.6929133858267716,
                    "duration": 0.41237099999999316
                },
                {
                    "name": "D5",
                    "midi": 74,
                    "time": 125.77315500000024,
                    "velocity": 0.6929133858267716,
                    "duration": 0.41237099999999316
                },
                {
                    "name": "A#5",
                    "midi": 82,
                    "time": 126.18552600000024,
                    "velocity": 0.6456692913385826,
                    "duration": 0.30927825000000553
                },
                {
                    "name": "E5",
                    "midi": 76,
                    "time": 126.18552600000024,
                    "velocity": 0.6456692913385826,
                    "duration": 0.30927825000000553
                },
                {
                    "name": "C#6",
                    "midi": 85,
                    "time": 126.18552600000024,
                    "velocity": 0.6456692913385826,
                    "duration": 0.30927825000000553
                },
                {
                    "name": "E6",
                    "midi": 88,
                    "time": 126.18552600000024,
                    "velocity": 0.7637795275590551,
                    "duration": 0.30927825000000553
                },
                {
                    "name": "A#4",
                    "midi": 70,
                    "time": 126.49480425000024,
                    "velocity": 0.5826771653543307,
                    "duration": 0.07731956249999428
                },
                {
                    "name": "E4",
                    "midi": 64,
                    "time": 126.49480425000024,
                    "velocity": 0.5826771653543307,
                    "duration": 0.07731956249999428
                },
                {
                    "name": "C#5",
                    "midi": 73,
                    "time": 126.49480425000024,
                    "velocity": 0.5826771653543307,
                    "duration": 0.07731956249999428
                },
                {
                    "name": "E5",
                    "midi": 76,
                    "time": 126.49480425000024,
                    "velocity": 0.6929133858267716,
                    "duration": 0.07731956249999428
                },
                {
                    "name": "E4",
                    "midi": 64,
                    "time": 126.59789700000023,
                    "velocity": 0.5984251968503937,
                    "duration": 0.41237099999999316
                },
                {
                    "name": "A#4",
                    "midi": 70,
                    "time": 126.59789700000023,
                    "velocity": 0.5984251968503937,
                    "duration": 0.41237099999999316
                },
                {
                    "name": "E5",
                    "midi": 76,
                    "time": 126.59789700000023,
                    "velocity": 0.7165354330708661,
                    "duration": 0.41237099999999316
                },
                {
                    "name": "C#5",
                    "midi": 73,
                    "time": 126.59789700000023,
                    "velocity": 0.5984251968503937,
                    "duration": 0.41237099999999316
                },
                {
                    "name": "F#5",
                    "midi": 78,
                    "time": 127.01026800000022,
                    "velocity": 0.6850393700787402,
                    "duration": 0.30927825000000553
                },
                {
                    "name": "D#5",
                    "midi": 75,
                    "time": 127.01026800000022,
                    "velocity": 0.6850393700787402,
                    "duration": 0.30927825000000553
                },
                {
                    "name": "C6",
                    "midi": 84,
                    "time": 127.01026800000022,
                    "velocity": 0.6850393700787402,
                    "duration": 0.30927825000000553
                },
                {
                    "name": "D#6",
                    "midi": 87,
                    "time": 127.01026800000022,
                    "velocity": 0.8031496062992126,
                    "duration": 0.30927825000000553
                },
                {
                    "name": "F#4",
                    "midi": 66,
                    "time": 127.31954625000023,
                    "velocity": 0.6062992125984252,
                    "duration": 0.07731956249999428
                },
                {
                    "name": "D#4",
                    "midi": 63,
                    "time": 127.31954625000023,
                    "velocity": 0.6062992125984252,
                    "duration": 0.07731956249999428
                },
                {
                    "name": "C5",
                    "midi": 72,
                    "time": 127.31954625000023,
                    "velocity": 0.6062992125984252,
                    "duration": 0.07731956249999428
                },
                {
                    "name": "D#5",
                    "midi": 75,
                    "time": 127.31954625000023,
                    "velocity": 0.7244094488188977,
                    "duration": 0.07731956249999428
                },
                {
                    "name": "D#4",
                    "midi": 63,
                    "time": 127.42263900000022,
                    "velocity": 0.6062992125984252,
                    "duration": 0.41237099999999316
                },
                {
                    "name": "F#4",
                    "midi": 66,
                    "time": 127.42263900000022,
                    "velocity": 0.6062992125984252,
                    "duration": 0.41237099999999316
                },
                {
                    "name": "D#5",
                    "midi": 75,
                    "time": 127.42263900000022,
                    "velocity": 0.7244094488188977,
                    "duration": 0.41237099999999316
                },
                {
                    "name": "C5",
                    "midi": 72,
                    "time": 127.42263900000022,
                    "velocity": 0.6062992125984252,
                    "duration": 0.41237099999999316
                },
                {
                    "name": "F5",
                    "midi": 77,
                    "time": 127.83501000000021,
                    "velocity": 0.7007874015748031,
                    "duration": 0.30927825000000553
                },
                {
                    "name": "D5",
                    "midi": 74,
                    "time": 127.83501000000021,
                    "velocity": 0.7007874015748031,
                    "duration": 0.30927825000000553
                },
                {
                    "name": "A#5",
                    "midi": 82,
                    "time": 127.83501000000021,
                    "velocity": 0.7007874015748031,
                    "duration": 0.30927825000000553
                },
                {
                    "name": "D6",
                    "midi": 86,
                    "time": 127.83501000000021,
                    "velocity": 0.8346456692913385,
                    "duration": 0.30927825000000553
                },
                {
                    "name": "F4",
                    "midi": 65,
                    "time": 128.14428825000022,
                    "velocity": 0.6299212598425197,
                    "duration": 0.07731956250000849
                },
                {
                    "name": "D4",
                    "midi": 62,
                    "time": 128.14428825000022,
                    "velocity": 0.6299212598425197,
                    "duration": 0.07731956250000849
                },
                {
                    "name": "A#4",
                    "midi": 70,
                    "time": 128.14428825000022,
                    "velocity": 0.6299212598425197,
                    "duration": 0.07731956250000849
                },
                {
                    "name": "D5",
                    "midi": 74,
                    "time": 128.14428825000022,
                    "velocity": 0.7480314960629921,
                    "duration": 0.07731956250000849
                },
                {
                    "name": "D4",
                    "midi": 62,
                    "time": 128.24738100000022,
                    "velocity": 0.6299212598425197,
                    "duration": 0.41237100000000737
                },
                {
                    "name": "F4",
                    "midi": 65,
                    "time": 128.24738100000022,
                    "velocity": 0.6299212598425197,
                    "duration": 0.41237100000000737
                },
                {
                    "name": "D5",
                    "midi": 74,
                    "time": 128.24738100000022,
                    "velocity": 0.7480314960629921,
                    "duration": 0.41237100000000737
                },
                {
                    "name": "A#4",
                    "midi": 70,
                    "time": 128.24738100000022,
                    "velocity": 0.6299212598425197,
                    "duration": 0.41237100000000737
                },
                {
                    "name": "F#4",
                    "midi": 66,
                    "time": 128.65975200000022,
                    "velocity": 0.6771653543307087,
                    "duration": 0.30927825000000553
                },
                {
                    "name": "D4",
                    "midi": 62,
                    "time": 128.65975200000022,
                    "velocity": 0.6771653543307087,
                    "duration": 0.30927825000000553
                },
                {
                    "name": "C5",
                    "midi": 72,
                    "time": 128.65975200000022,
                    "velocity": 0.6771653543307087,
                    "duration": 0.30927825000000553
                },
                {
                    "name": "D5",
                    "midi": 74,
                    "time": 128.65975200000022,
                    "velocity": 0.7952755905511811,
                    "duration": 0.30927825000000553
                },
                {
                    "name": "F#5",
                    "midi": 78,
                    "time": 128.96903025000023,
                    "velocity": 0.6062992125984252,
                    "duration": 0.07731956250000849
                },
                {
                    "name": "D5",
                    "midi": 74,
                    "time": 128.96903025000023,
                    "velocity": 0.6062992125984252,
                    "duration": 0.07731956250000849
                },
                {
                    "name": "C6",
                    "midi": 84,
                    "time": 128.96903025000023,
                    "velocity": 0.6062992125984252,
                    "duration": 0.07731956250000849
                },
                {
                    "name": "D6",
                    "midi": 86,
                    "time": 128.96903025000023,
                    "velocity": 0.7244094488188977,
                    "duration": 0.07731956250000849
                },
                {
                    "name": "D5",
                    "midi": 74,
                    "time": 129.07212300000023,
                    "velocity": 0.6850393700787402,
                    "duration": 0.41237100000000737
                },
                {
                    "name": "F#5",
                    "midi": 78,
                    "time": 129.07212300000023,
                    "velocity": 0.6850393700787402,
                    "duration": 0.41237100000000737
                },
                {
                    "name": "D6",
                    "midi": 86,
                    "time": 129.07212300000023,
                    "velocity": 0.8110236220472441,
                    "duration": 0.41237100000000737
                },
                {
                    "name": "C6",
                    "midi": 84,
                    "time": 129.07212300000023,
                    "velocity": 0.6850393700787402,
                    "duration": 0.41237100000000737
                },
                {
                    "name": "G4",
                    "midi": 67,
                    "time": 129.48449400000024,
                    "velocity": 0.6456692913385826,
                    "duration": 0.30927825000000553
                },
                {
                    "name": "D4",
                    "midi": 62,
                    "time": 129.48449400000024,
                    "velocity": 0.6456692913385826,
                    "duration": 0.30927825000000553
                },
                {
                    "name": "B4",
                    "midi": 71,
                    "time": 129.48449400000024,
                    "velocity": 0.6456692913385826,
                    "duration": 0.30927825000000553
                },
                {
                    "name": "D5",
                    "midi": 74,
                    "time": 129.48449400000024,
                    "velocity": 0.7637795275590551,
                    "duration": 0.30927825000000553
                },
                {
                    "name": "G5",
                    "midi": 79,
                    "time": 129.79377225000025,
                    "velocity": 0.6220472440944882,
                    "duration": 0.07731956250000849
                },
                {
                    "name": "D5",
                    "midi": 74,
                    "time": 129.79377225000025,
                    "velocity": 0.6220472440944882,
                    "duration": 0.07731956250000849
                },
                {
                    "name": "B5",
                    "midi": 83,
                    "time": 129.79377225000025,
                    "velocity": 0.6220472440944882,
                    "duration": 0.07731956250000849
                },
                {
                    "name": "D6",
                    "midi": 86,
                    "time": 129.79377225000025,
                    "velocity": 0.7480314960629921,
                    "duration": 0.07731956250000849
                },
                {
                    "name": "D5",
                    "midi": 74,
                    "time": 129.89686500000025,
                    "velocity": 0.6614173228346457,
                    "duration": 0.41237100000000737
                },
                {
                    "name": "G5",
                    "midi": 79,
                    "time": 129.89686500000025,
                    "velocity": 0.6614173228346457,
                    "duration": 0.41237100000000737
                },
                {
                    "name": "D6",
                    "midi": 86,
                    "time": 129.89686500000025,
                    "velocity": 0.7795275590551181,
                    "duration": 0.41237100000000737
                },
                {
                    "name": "B5",
                    "midi": 83,
                    "time": 129.89686500000025,
                    "velocity": 0.6614173228346457,
                    "duration": 0.41237100000000737
                },
                {
                    "name": "G4",
                    "midi": 67,
                    "time": 130.30923600000025,
                    "velocity": 0.6456692913385826,
                    "duration": 0.30927825000000553
                },
                {
                    "name": "E4",
                    "midi": 64,
                    "time": 130.30923600000025,
                    "velocity": 0.6456692913385826,
                    "duration": 0.30927825000000553
                },
                {
                    "name": "C5",
                    "midi": 72,
                    "time": 130.30923600000025,
                    "velocity": 0.6456692913385826,
                    "duration": 0.30927825000000553
                },
                {
                    "name": "E5",
                    "midi": 76,
                    "time": 130.30923600000025,
                    "velocity": 0.7716535433070866,
                    "duration": 0.30927825000000553
                },
                {
                    "name": "G5",
                    "midi": 79,
                    "time": 130.61851425000026,
                    "velocity": 0.5905511811023622,
                    "duration": 0.07731956250000849
                },
                {
                    "name": "E5",
                    "midi": 76,
                    "time": 130.61851425000026,
                    "velocity": 0.5905511811023622,
                    "duration": 0.07731956250000849
                },
                {
                    "name": "C6",
                    "midi": 84,
                    "time": 130.61851425000026,
                    "velocity": 0.5905511811023622,
                    "duration": 0.07731956250000849
                },
                {
                    "name": "E6",
                    "midi": 88,
                    "time": 130.61851425000026,
                    "velocity": 0.7007874015748031,
                    "duration": 0.07731956250000849
                },
                {
                    "name": "E5",
                    "midi": 76,
                    "time": 130.72160700000026,
                    "velocity": 0.6771653543307087,
                    "duration": 0.41237100000000737
                },
                {
                    "name": "G5",
                    "midi": 79,
                    "time": 130.72160700000026,
                    "velocity": 0.6771653543307087,
                    "duration": 0.41237100000000737
                },
                {
                    "name": "E6",
                    "midi": 88,
                    "time": 130.72160700000026,
                    "velocity": 0.8031496062992126,
                    "duration": 0.41237100000000737
                },
                {
                    "name": "C6",
                    "midi": 84,
                    "time": 130.72160700000026,
                    "velocity": 0.6771653543307087,
                    "duration": 0.41237100000000737
                },
                {
                    "name": "B4",
                    "midi": 71,
                    "time": 131.13397800000027,
                    "velocity": 0.6771653543307087,
                    "duration": 0.30927825000000553
                },
                {
                    "name": "G4",
                    "midi": 67,
                    "time": 131.13397800000027,
                    "velocity": 0.6771653543307087,
                    "duration": 0.30927825000000553
                },
                {
                    "name": "F5",
                    "midi": 77,
                    "time": 131.13397800000027,
                    "velocity": 0.6771653543307087,
                    "duration": 0.30927825000000553
                },
                {
                    "name": "G5",
                    "midi": 79,
                    "time": 131.13397800000027,
                    "velocity": 0.7952755905511811,
                    "duration": 0.30927825000000553
                },
                {
                    "name": "B5",
                    "midi": 83,
                    "time": 131.44325625000027,
                    "velocity": 0.6299212598425197,
                    "duration": 0.07731956250000849
                },
                {
                    "name": "G5",
                    "midi": 79,
                    "time": 131.44325625000027,
                    "velocity": 0.6299212598425197,
                    "duration": 0.07731956250000849
                },
                {
                    "name": "F6",
                    "midi": 89,
                    "time": 131.44325625000027,
                    "velocity": 0.6299212598425197,
                    "duration": 0.07731956250000849
                },
                {
                    "name": "G6",
                    "midi": 91,
                    "time": 131.44325625000027,
                    "velocity": 0.7559055118110236,
                    "duration": 0.07731956250000849
                },
                {
                    "name": "G5",
                    "midi": 79,
                    "time": 131.54634900000028,
                    "velocity": 0.6771653543307087,
                    "duration": 0.41237100000000737
                },
                {
                    "name": "B5",
                    "midi": 83,
                    "time": 131.54634900000028,
                    "velocity": 0.6771653543307087,
                    "duration": 0.41237100000000737
                },
                {
                    "name": "G6",
                    "midi": 91,
                    "time": 131.54634900000028,
                    "velocity": 0.8110236220472441,
                    "duration": 0.41237100000000737
                },
                {
                    "name": "F6",
                    "midi": 89,
                    "time": 131.54634900000028,
                    "velocity": 0.6771653543307087,
                    "duration": 0.41237100000000737
                },
                {
                    "name": "G3",
                    "midi": 55,
                    "time": 131.95872000000028,
                    "velocity": 0.3937007874015748,
                    "duration": 0.12027487500000689
                },
                {
                    "name": "G4",
                    "midi": 67,
                    "time": 132.06181275000029,
                    "velocity": 0.36220472440944884,
                    "duration": 0.12027487500000689
                },
                {
                    "name": "D4",
                    "midi": 62,
                    "time": 132.1649055000003,
                    "velocity": 0.36220472440944884,
                    "duration": 0.12027487500000689
                },
                {
                    "name": "B3",
                    "midi": 59,
                    "time": 132.2679982500003,
                    "velocity": 0.36220472440944884,
                    "duration": 0.12027487500000689
                },
                {
                    "name": "D4",
                    "midi": 62,
                    "time": 132.3710910000003,
                    "velocity": 0.3937007874015748,
                    "duration": 0.12027487500000689
                },
                {
                    "name": "D5",
                    "midi": 74,
                    "time": 132.4741837500003,
                    "velocity": 0.36220472440944884,
                    "duration": 0.12027487500000689
                },
                {
                    "name": "B4",
                    "midi": 71,
                    "time": 132.5772765000003,
                    "velocity": 0.36220472440944884,
                    "duration": 0.12027487500000689
                },
                {
                    "name": "G4",
                    "midi": 67,
                    "time": 132.6803692500003,
                    "velocity": 0.36220472440944884,
                    "duration": 0.12027487500000689
                },
                {
                    "name": "C5",
                    "midi": 72,
                    "time": 132.7834620000003,
                    "velocity": 0.4015748031496063,
                    "duration": 0.12027487500000689
                },
                {
                    "name": "E5",
                    "midi": 76,
                    "time": 132.7834620000003,
                    "velocity": 0.4015748031496063,
                    "duration": 0.12027487500000689
                },
                {
                    "name": "E4",
                    "midi": 64,
                    "time": 132.8865547500003,
                    "velocity": 0.3700787401574803,
                    "duration": 0.12027487500000689
                },
                {
                    "name": "D5",
                    "midi": 74,
                    "time": 132.9896475000003,
                    "velocity": 0.4015748031496063,
                    "duration": 0.12027487500000689
                },
                {
                    "name": "F5",
                    "midi": 77,
                    "time": 132.9896475000003,
                    "velocity": 0.4015748031496063,
                    "duration": 0.12027487500000689
                },
                {
                    "name": "F4",
                    "midi": 65,
                    "time": 133.0927402500003,
                    "velocity": 0.3700787401574803,
                    "duration": 0.12027487500000689
                },
                {
                    "name": "E5",
                    "midi": 76,
                    "time": 133.1958330000003,
                    "velocity": 0.41732283464566927,
                    "duration": 0.12027487500000689
                },
                {
                    "name": "G5",
                    "midi": 79,
                    "time": 133.1958330000003,
                    "velocity": 0.41732283464566927,
                    "duration": 0.12027487500000689
                },
                {
                    "name": "G4",
                    "midi": 67,
                    "time": 133.2989257500003,
                    "velocity": 0.3700787401574803,
                    "duration": 0.12027487500000689
                },
                {
                    "name": "F5",
                    "midi": 77,
                    "time": 133.4020185000003,
                    "velocity": 0.41732283464566927,
                    "duration": 0.12027487500000689
                },
                {
                    "name": "A5",
                    "midi": 81,
                    "time": 133.4020185000003,
                    "velocity": 0.41732283464566927,
                    "duration": 0.12027487500000689
                },
                {
                    "name": "A4",
                    "midi": 69,
                    "time": 133.5051112500003,
                    "velocity": 0.3779527559055118,
                    "duration": 0.12027487500000689
                },
                {
                    "name": "D5",
                    "midi": 74,
                    "time": 133.6082040000003,
                    "velocity": 0.4015748031496063,
                    "duration": 0.10309275000000184
                },
                {
                    "name": "G5",
                    "midi": 79,
                    "time": 133.6082040000003,
                    "velocity": 0.4015748031496063,
                    "duration": 0.10309275000000184
                },
                {
                    "name": "B5",
                    "midi": 83,
                    "time": 133.6082040000003,
                    "velocity": 0.4015748031496063,
                    "duration": 0.10309275000000184
                },
                {
                    "name": "B4",
                    "midi": 71,
                    "time": 133.71129675000032,
                    "velocity": 0.41732283464566927,
                    "duration": 0.10309275000000184
                },
                {
                    "name": "D5",
                    "midi": 74,
                    "time": 133.81438950000032,
                    "velocity": 0.4330708661417323,
                    "duration": 0.10309275000000184
                },
                {
                    "name": "G5",
                    "midi": 79,
                    "time": 133.81438950000032,
                    "velocity": 0.4330708661417323,
                    "duration": 0.10309275000000184
                },
                {
                    "name": "B5",
                    "midi": 83,
                    "time": 133.81438950000032,
                    "velocity": 0.4330708661417323,
                    "duration": 0.10309275000000184
                },
                {
                    "name": "B4",
                    "midi": 71,
                    "time": 133.91748225000032,
                    "velocity": 0.4409448818897638,
                    "duration": 0.10309275000000184
                },
                {
                    "name": "G5",
                    "midi": 79,
                    "time": 134.02057500000032,
                    "velocity": 0.4566929133858268,
                    "duration": 0.10309275000000184
                },
                {
                    "name": "C6",
                    "midi": 84,
                    "time": 134.02057500000032,
                    "velocity": 0.4566929133858268,
                    "duration": 0.10309275000000184
                },
                {
                    "name": "C5",
                    "midi": 72,
                    "time": 134.12366775000032,
                    "velocity": 0.47244094488188976,
                    "duration": 0.10309275000000184
                },
                {
                    "name": "C6",
                    "midi": 84,
                    "time": 134.22676050000032,
                    "velocity": 0.4881889763779528,
                    "duration": 0.10309275000000184
                },
                {
                    "name": "G5",
                    "midi": 79,
                    "time": 134.22676050000032,
                    "velocity": 0.4881889763779528,
                    "duration": 0.10309275000000184
                },
                {
                    "name": "C5",
                    "midi": 72,
                    "time": 134.32985325000033,
                    "velocity": 0.49606299212598426,
                    "duration": 0.10309275000000184
                },
                {
                    "name": "F6",
                    "midi": 89,
                    "time": 134.43294600000033,
                    "velocity": 0.5118110236220472,
                    "duration": 0.10309275000000184
                },
                {
                    "name": "C6",
                    "midi": 84,
                    "time": 134.43294600000033,
                    "velocity": 0.5118110236220472,
                    "duration": 0.10309275000000184
                },
                {
                    "name": "F5",
                    "midi": 77,
                    "time": 134.53603875000033,
                    "velocity": 0.5118110236220472,
                    "duration": 0.10309275000000184
                },
                {
                    "name": "F6",
                    "midi": 89,
                    "time": 134.63913150000033,
                    "velocity": 0.5196850393700787,
                    "duration": 0.10309275000000184
                },
                {
                    "name": "C6",
                    "midi": 84,
                    "time": 134.63913150000033,
                    "velocity": 0.5196850393700787,
                    "duration": 0.10309275000000184
                },
                {
                    "name": "F5",
                    "midi": 77,
                    "time": 134.74222425000033,
                    "velocity": 0.5196850393700787,
                    "duration": 0.10309275000000184
                },
                {
                    "name": "F6",
                    "midi": 89,
                    "time": 134.84531700000034,
                    "velocity": 0.5275590551181102,
                    "duration": 0.10309275000000184
                },
                {
                    "name": "B5",
                    "midi": 83,
                    "time": 134.84531700000034,
                    "velocity": 0.5275590551181102,
                    "duration": 0.10309275000000184
                },
                {
                    "name": "F5",
                    "midi": 77,
                    "time": 134.94840975000034,
                    "velocity": 0.5275590551181102,
                    "duration": 0.10309275000000184
                },
                {
                    "name": "F6",
                    "midi": 89,
                    "time": 135.05150250000034,
                    "velocity": 0.5354330708661418,
                    "duration": 0.10309275000000184
                },
                {
                    "name": "B5",
                    "midi": 83,
                    "time": 135.05150250000034,
                    "velocity": 0.5354330708661418,
                    "duration": 0.10309275000000184
                },
                {
                    "name": "F5",
                    "midi": 77,
                    "time": 135.15459525000034,
                    "velocity": 0.5354330708661418,
                    "duration": 0.10309275000000184
                },
                {
                    "name": "A3",
                    "midi": 57,
                    "time": 135.25768800000034,
                    "velocity": 0.47244094488188976,
                    "duration": 0.12027487500000689
                },
                {
                    "name": "A4",
                    "midi": 69,
                    "time": 135.36078075000034,
                    "velocity": 0.4330708661417323,
                    "duration": 0.12027487500000689
                },
                {
                    "name": "E4",
                    "midi": 64,
                    "time": 135.46387350000035,
                    "velocity": 0.4330708661417323,
                    "duration": 0.12027487500000689
                },
                {
                    "name": "C#4",
                    "midi": 61,
                    "time": 135.56696625000035,
                    "velocity": 0.4330708661417323,
                    "duration": 0.12027487500000689
                },
                {
                    "name": "E4",
                    "midi": 64,
                    "time": 135.67005900000035,
                    "velocity": 0.47244094488188976,
                    "duration": 0.12027487500000689
                },
                {
                    "name": "E5",
                    "midi": 76,
                    "time": 135.77315175000035,
                    "velocity": 0.4330708661417323,
                    "duration": 0.12027487500000689
                },
                {
                    "name": "C#5",
                    "midi": 73,
                    "time": 135.87624450000035,
                    "velocity": 0.4330708661417323,
                    "duration": 0.12027487500000689
                },
                {
                    "name": "A4",
                    "midi": 69,
                    "time": 135.97933725000036,
                    "velocity": 0.4330708661417323,
                    "duration": 0.12027487500000689
                },
                {
                    "name": "D5",
                    "midi": 74,
                    "time": 136.08243000000036,
                    "velocity": 0.4015748031496063,
                    "duration": 0.12027487500000689
                },
                {
                    "name": "F5",
                    "midi": 77,
                    "time": 136.08243000000036,
                    "velocity": 0.48031496062992124,
                    "duration": 0.12027487500000689
                },
                {
                    "name": "F4",
                    "midi": 65,
                    "time": 136.18552275000036,
                    "velocity": 0.4409448818897638,
                    "duration": 0.12027487500000689
                },
                {
                    "name": "E5",
                    "midi": 76,
                    "time": 136.28861550000036,
                    "velocity": 0.4015748031496063,
                    "duration": 0.12027487500000689
                },
                {
                    "name": "G5",
                    "midi": 79,
                    "time": 136.28861550000036,
                    "velocity": 0.48031496062992124,
                    "duration": 0.12027487500000689
                },
                {
                    "name": "G4",
                    "midi": 67,
                    "time": 136.39170825000036,
                    "velocity": 0.4409448818897638,
                    "duration": 0.12027487500000689
                },
                {
                    "name": "F5",
                    "midi": 77,
                    "time": 136.49480100000036,
                    "velocity": 0.41732283464566927,
                    "duration": 0.12027487500000689
                },
                {
                    "name": "A5",
                    "midi": 81,
                    "time": 136.49480100000036,
                    "velocity": 0.49606299212598426,
                    "duration": 0.12027487500000689
                },
                {
                    "name": "A4",
                    "midi": 69,
                    "time": 136.59789375000037,
                    "velocity": 0.4409448818897638,
                    "duration": 0.12027487500000689
                },
                {
                    "name": "G5",
                    "midi": 79,
                    "time": 136.70098650000037,
                    "velocity": 0.41732283464566927,
                    "duration": 0.12027487500000689
                },
                {
                    "name": "A#5",
                    "midi": 82,
                    "time": 136.70098650000037,
                    "velocity": 0.49606299212598426,
                    "duration": 0.12027487500000689
                },
                {
                    "name": "A#4",
                    "midi": 70,
                    "time": 136.80407925000037,
                    "velocity": 0.44881889763779526,
                    "duration": 0.12027487500000689
                },
                {
                    "name": "E5",
                    "midi": 76,
                    "time": 136.90717200000037,
                    "velocity": 0.4015748031496063,
                    "duration": 0.10309275000000184
                },
                {
                    "name": "A5",
                    "midi": 81,
                    "time": 136.90717200000037,
                    "velocity": 0.4015748031496063,
                    "duration": 0.10309275000000184
                },
                {
                    "name": "C#6",
                    "midi": 85,
                    "time": 136.90717200000037,
                    "velocity": 0.48031496062992124,
                    "duration": 0.10309275000000184
                },
                {
                    "name": "C#5",
                    "midi": 73,
                    "time": 137.01026475000037,
                    "velocity": 0.4881889763779528,
                    "duration": 0.10309275000000184
                },
                {
                    "name": "E5",
                    "midi": 76,
                    "time": 137.11335750000038,
                    "velocity": 0.4251968503937008,
                    "duration": 0.10309275000000184
                },
                {
                    "name": "A5",
                    "midi": 81,
                    "time": 137.11335750000038,
                    "velocity": 0.4251968503937008,
                    "duration": 0.10309275000000184
                },
                {
                    "name": "C#6",
                    "midi": 85,
                    "time": 137.11335750000038,
                    "velocity": 0.5039370078740157,
                    "duration": 0.10309275000000184
                },
                {
                    "name": "C#5",
                    "midi": 73,
                    "time": 137.21645025000038,
                    "velocity": 0.5196850393700787,
                    "duration": 0.10309275000000184
                },
                {
                    "name": "A5",
                    "midi": 81,
                    "time": 137.31954300000038,
                    "velocity": 0.4409448818897638,
                    "duration": 0.10309275000000184
                },
                {
                    "name": "D6",
                    "midi": 86,
                    "time": 137.31954300000038,
                    "velocity": 0.5275590551181102,
                    "duration": 0.10309275000000184
                },
                {
                    "name": "D5",
                    "midi": 74,
                    "time": 137.42263575000038,
                    "velocity": 0.5433070866141733,
                    "duration": 0.10309275000000184
                },
                {
                    "name": "D6",
                    "midi": 86,
                    "time": 137.52572850000038,
                    "velocity": 0.5511811023622047,
                    "duration": 0.10309275000000184
                },
                {
                    "name": "A5",
                    "midi": 81,
                    "time": 137.52572850000038,
                    "velocity": 0.4645669291338583,
                    "duration": 0.10309275000000184
                },
                {
                    "name": "D5",
                    "midi": 74,
                    "time": 137.62882125000039,
                    "velocity": 0.5669291338582677,
                    "duration": 0.10309275000000184
                },
                {
                    "name": "G6",
                    "midi": 91,
                    "time": 137.7319140000004,
                    "velocity": 0.5826771653543307,
                    "duration": 0.10309275000000184
                },
                {
                    "name": "D6",
                    "midi": 86,
                    "time": 137.7319140000004,
                    "velocity": 0.4881889763779528,
                    "duration": 0.10309275000000184
                },
                {
                    "name": "G5",
                    "midi": 79,
                    "time": 137.8350067500004,
                    "velocity": 0.5511811023622047,
                    "duration": 0.10309275000000184
                },
                {
                    "name": "G6",
                    "midi": 91,
                    "time": 137.9380995000004,
                    "velocity": 0.5826771653543307,
                    "duration": 0.10309275000000184
                },
                {
                    "name": "D6",
                    "midi": 86,
                    "time": 137.9380995000004,
                    "velocity": 0.4881889763779528,
                    "duration": 0.10309275000000184
                },
                {
                    "name": "G5",
                    "midi": 79,
                    "time": 138.0411922500004,
                    "velocity": 0.5511811023622047,
                    "duration": 0.10309275000000184
                },
                {
                    "name": "G6",
                    "midi": 91,
                    "time": 138.1442850000004,
                    "velocity": 0.5826771653543307,
                    "duration": 0.10309275000000184
                },
                {
                    "name": "C#6",
                    "midi": 85,
                    "time": 138.1442850000004,
                    "velocity": 0.4881889763779528,
                    "duration": 0.10309275000000184
                },
                {
                    "name": "G5",
                    "midi": 79,
                    "time": 138.2473777500004,
                    "velocity": 0.5511811023622047,
                    "duration": 0.10309275000000184
                },
                {
                    "name": "G6",
                    "midi": 91,
                    "time": 138.3504705000004,
                    "velocity": 0.5826771653543307,
                    "duration": 0.10309275000000184
                },
                {
                    "name": "C#6",
                    "midi": 85,
                    "time": 138.3504705000004,
                    "velocity": 0.4881889763779528,
                    "duration": 0.10309275000000184
                },
                {
                    "name": "G5",
                    "midi": 79,
                    "time": 138.4535632500004,
                    "velocity": 0.5511811023622047,
                    "duration": 0.10309275000000184
                },
                {
                    "name": "D4",
                    "midi": 62,
                    "time": 138.5566560000004,
                    "velocity": 0.6220472440944882,
                    "duration": 0.10309275000000184
                },
                {
                    "name": "D5",
                    "midi": 74,
                    "time": 138.6597487500004,
                    "velocity": 0.5511811023622047,
                    "duration": 0.10309275000000184
                },
                {
                    "name": "A4",
                    "midi": 69,
                    "time": 138.7628415000004,
                    "velocity": 0.5511811023622047,
                    "duration": 0.10309275000000184
                },
                {
                    "name": "F#4",
                    "midi": 66,
                    "time": 138.8659342500004,
                    "velocity": 0.5511811023622047,
                    "duration": 0.10309275000000184
                },
                {
                    "name": "A4",
                    "midi": 69,
                    "time": 138.9690270000004,
                    "velocity": 0.6220472440944882,
                    "duration": 0.10309275000000184
                },
                {
                    "name": "A5",
                    "midi": 81,
                    "time": 139.0721197500004,
                    "velocity": 0.5511811023622047,
                    "duration": 0.10309275000000184
                },
                {
                    "name": "F#5",
                    "midi": 78,
                    "time": 139.1752125000004,
                    "velocity": 0.5511811023622047,
                    "duration": 0.10309275000000184
                },
                {
                    "name": "D5",
                    "midi": 74,
                    "time": 139.27830525000041,
                    "velocity": 0.5590551181102362,
                    "duration": 0.10309275000000184
                },
                {
                    "name": "G5",
                    "midi": 79,
                    "time": 139.38139800000042,
                    "velocity": 0.5275590551181102,
                    "duration": 0.10309275000000184
                },
                {
                    "name": "B5",
                    "midi": 83,
                    "time": 139.38139800000042,
                    "velocity": 0.6220472440944882,
                    "duration": 0.10309275000000184
                },
                {
                    "name": "B4",
                    "midi": 71,
                    "time": 139.48449075000042,
                    "velocity": 0.5669291338582677,
                    "duration": 0.10309275000000184
                },
                {
                    "name": "A5",
                    "midi": 81,
                    "time": 139.58758350000042,
                    "velocity": 0.5275590551181102,
                    "duration": 0.10309275000000184
                },
                {
                    "name": "C6",
                    "midi": 84,
                    "time": 139.58758350000042,
                    "velocity": 0.6220472440944882,
                    "duration": 0.10309275000000184
                },
                {
                    "name": "C5",
                    "midi": 72,
                    "time": 139.69067625000042,
                    "velocity": 0.5748031496062992,
                    "duration": 0.10309275000000184
                },
                {
                    "name": "B5",
                    "midi": 83,
                    "time": 139.79376900000042,
                    "velocity": 0.5354330708661418,
                    "duration": 0.10309275000000184
                },
                {
                    "name": "D6",
                    "midi": 86,
                    "time": 139.79376900000042,
                    "velocity": 0.6299212598425197,
                    "duration": 0.10309275000000184
                },
                {
                    "name": "D5",
                    "midi": 74,
                    "time": 139.89686175000043,
                    "velocity": 0.5590551181102362,
                    "duration": 0.10309275000000184
                },
                {
                    "name": "C6",
                    "midi": 84,
                    "time": 139.99995450000043,
                    "velocity": 0.5275590551181102,
                    "duration": 0.10309275000000184
                },
                {
                    "name": "E6",
                    "midi": 88,
                    "time": 139.99995450000043,
                    "velocity": 0.6220472440944882,
                    "duration": 0.10309275000000184
                },
                {
                    "name": "E5",
                    "midi": 76,
                    "time": 140.10304725000043,
                    "velocity": 0.5669291338582677,
                    "duration": 0.10309275000000184
                },
                {
                    "name": "A5",
                    "midi": 81,
                    "time": 140.20614000000043,
                    "velocity": 0.47244094488188976,
                    "duration": 0.10309275000000184
                },
                {
                    "name": "D6",
                    "midi": 86,
                    "time": 140.20614000000043,
                    "velocity": 0.47244094488188976,
                    "duration": 0.10309275000000184
                },
                {
                    "name": "F#6",
                    "midi": 90,
                    "time": 140.20614000000043,
                    "velocity": 0.5590551181102362,
                    "duration": 0.10309275000000184
                },
                {
                    "name": "F#5",
                    "midi": 78,
                    "time": 140.30923275000043,
                    "velocity": 0.5669291338582677,
                    "duration": 0.10309275000000184
                },
                {
                    "name": "A5",
                    "midi": 81,
                    "time": 140.41232550000043,
                    "velocity": 0.4881889763779528,
                    "duration": 0.10309275000000184
                },
                {
                    "name": "D6",
                    "midi": 86,
                    "time": 140.41232550000043,
                    "velocity": 0.4881889763779528,
                    "duration": 0.10309275000000184
                },
                {
                    "name": "F#6",
                    "midi": 90,
                    "time": 140.41232550000043,
                    "velocity": 0.5748031496062992,
                    "duration": 0.10309275000000184
                },
                {
                    "name": "F#5",
                    "midi": 78,
                    "time": 140.51541825000044,
                    "velocity": 0.5826771653543307,
                    "duration": 0.10309275000000184
                },
                {
                    "name": "D6",
                    "midi": 86,
                    "time": 140.61851100000044,
                    "velocity": 0.49606299212598426,
                    "duration": 0.10309275000000184
                },
                {
                    "name": "G6",
                    "midi": 91,
                    "time": 140.61851100000044,
                    "velocity": 0.5905511811023622,
                    "duration": 0.10309275000000184
                },
                {
                    "name": "G5",
                    "midi": 79,
                    "time": 140.72160375000044,
                    "velocity": 0.5984251968503937,
                    "duration": 0.10309275000000184
                },
                {
                    "name": "G6",
                    "midi": 91,
                    "time": 140.82469650000044,
                    "velocity": 0.6062992125984252,
                    "duration": 0.10309275000000184
                },
                {
                    "name": "D6",
                    "midi": 86,
                    "time": 140.82469650000044,
                    "velocity": 0.5118110236220472,
                    "duration": 0.10309275000000184
                },
                {
                    "name": "G5",
                    "midi": 79,
                    "time": 140.92778925000044,
                    "velocity": 0.6141732283464567,
                    "duration": 0.10309275000000184
                },
                {
                    "name": "C7",
                    "midi": 96,
                    "time": 141.03088200000045,
                    "velocity": 0.6456692913385826,
                    "duration": 0.10309275000000184
                },
                {
                    "name": "G6",
                    "midi": 91,
                    "time": 141.03088200000045,
                    "velocity": 0.5433070866141733,
                    "duration": 0.10309275000000184
                },
                {
                    "name": "C6",
                    "midi": 84,
                    "time": 141.13397475000045,
                    "velocity": 0.5905511811023622,
                    "duration": 0.10309275000000184
                },
                {
                    "name": "C7",
                    "midi": 96,
                    "time": 141.23706750000045,
                    "velocity": 0.6299212598425197,
                    "duration": 0.10309275000000184
                },
                {
                    "name": "G6",
                    "midi": 91,
                    "time": 141.23706750000045,
                    "velocity": 0.5354330708661418,
                    "duration": 0.10309275000000184
                },
                {
                    "name": "C6",
                    "midi": 84,
                    "time": 141.34016025000045,
                    "velocity": 0.5826771653543307,
                    "duration": 0.10309275000000184
                },
                {
                    "name": "C7",
                    "midi": 96,
                    "time": 141.44325300000045,
                    "velocity": 0.6299212598425197,
                    "duration": 0.10309275000000184
                },
                {
                    "name": "F#6",
                    "midi": 90,
                    "time": 141.44325300000045,
                    "velocity": 0.5354330708661418,
                    "duration": 0.10309275000000184
                },
                {
                    "name": "C6",
                    "midi": 84,
                    "time": 141.54634575000046,
                    "velocity": 0.5905511811023622,
                    "duration": 0.10309275000000184
                },
                {
                    "name": "C7",
                    "midi": 96,
                    "time": 141.64943850000046,
                    "velocity": 0.6220472440944882,
                    "duration": 0.10309275000000184
                },
                {
                    "name": "F#6",
                    "midi": 90,
                    "time": 141.64943850000046,
                    "velocity": 0.5275590551181102,
                    "duration": 0.10309275000000184
                },
                {
                    "name": "C6",
                    "midi": 84,
                    "time": 141.75253125000046,
                    "velocity": 0.5826771653543307,
                    "duration": 0.10309275000000184
                },
                {
                    "name": "G4",
                    "midi": 67,
                    "time": 141.85562400000046,
                    "velocity": 0.6220472440944882,
                    "duration": 0.10309275000000184
                },
                {
                    "name": "G5",
                    "midi": 79,
                    "time": 141.95871675000046,
                    "velocity": 0.5511811023622047,
                    "duration": 0.10309275000000184
                },
                {
                    "name": "D5",
                    "midi": 74,
                    "time": 142.06180950000046,
                    "velocity": 0.5511811023622047,
                    "duration": 0.10309275000000184
                },
                {
                    "name": "B4",
                    "midi": 71,
                    "time": 142.16490225000047,
                    "velocity": 0.5511811023622047,
                    "duration": 0.10309275000000184
                },
                {
                    "name": "D5",
                    "midi": 74,
                    "time": 142.26799500000047,
                    "velocity": 0.6220472440944882,
                    "duration": 0.10309275000000184
                },
                {
                    "name": "D6",
                    "midi": 86,
                    "time": 142.37108775000047,
                    "velocity": 0.5511811023622047,
                    "duration": 0.10309275000000184
                },
                {
                    "name": "B5",
                    "midi": 83,
                    "time": 142.47418050000047,
                    "velocity": 0.5511811023622047,
                    "duration": 0.10309275000000184
                },
                {
                    "name": "G5",
                    "midi": 79,
                    "time": 142.57727325000047,
                    "velocity": 0.5590551181102362,
                    "duration": 0.10309275000000184
                },
                {
                    "name": "C6",
                    "midi": 84,
                    "time": 142.68036600000048,
                    "velocity": 0.5275590551181102,
                    "duration": 0.10309275000000184
                },
                {
                    "name": "E6",
                    "midi": 88,
                    "time": 142.68036600000048,
                    "velocity": 0.6220472440944882,
                    "duration": 0.10309275000000184
                },
                {
                    "name": "E5",
                    "midi": 76,
                    "time": 142.78345875000048,
                    "velocity": 0.5669291338582677,
                    "duration": 0.10309275000000184
                },
                {
                    "name": "D6",
                    "midi": 86,
                    "time": 142.88655150000048,
                    "velocity": 0.5275590551181102,
                    "duration": 0.10309275000000184
                },
                {
                    "name": "F6",
                    "midi": 89,
                    "time": 142.88655150000048,
                    "velocity": 0.6220472440944882,
                    "duration": 0.10309275000000184
                },
                {
                    "name": "F5",
                    "midi": 77,
                    "time": 142.98964425000048,
                    "velocity": 0.5748031496062992,
                    "duration": 0.10309275000000184
                },
                {
                    "name": "E6",
                    "midi": 88,
                    "time": 143.09273700000048,
                    "velocity": 0.5354330708661418,
                    "duration": 0.10309275000000184
                },
                {
                    "name": "G6",
                    "midi": 91,
                    "time": 143.09273700000048,
                    "velocity": 0.6299212598425197,
                    "duration": 0.10309275000000184
                },
                {
                    "name": "G5",
                    "midi": 79,
                    "time": 143.19582975000048,
                    "velocity": 0.5590551181102362,
                    "duration": 0.10309275000000184
                },
                {
                    "name": "F6",
                    "midi": 89,
                    "time": 143.2989225000005,
                    "velocity": 0.5275590551181102,
                    "duration": 0.10309275000000184
                },
                {
                    "name": "A6",
                    "midi": 93,
                    "time": 143.2989225000005,
                    "velocity": 0.6220472440944882,
                    "duration": 0.10309275000000184
                },
                {
                    "name": "A5",
                    "midi": 81,
                    "time": 143.4020152500005,
                    "velocity": 0.5669291338582677,
                    "duration": 0.10309275000000184
                },
                {
                    "name": "D6",
                    "midi": 86,
                    "time": 143.5051080000005,
                    "velocity": 0.47244094488188976,
                    "duration": 0.10309275000000184
                },
                {
                    "name": "G6",
                    "midi": 91,
                    "time": 143.5051080000005,
                    "velocity": 0.47244094488188976,
                    "duration": 0.10309275000000184
                },
                {
                    "name": "B6",
                    "midi": 95,
                    "time": 143.5051080000005,
                    "velocity": 0.5590551181102362,
                    "duration": 0.10309275000000184
                },
                {
                    "name": "B5",
                    "midi": 83,
                    "time": 143.6082007500005,
                    "velocity": 0.5669291338582677,
                    "duration": 0.10309275000000184
                },
                {
                    "name": "D6",
                    "midi": 86,
                    "time": 143.7112935000005,
                    "velocity": 0.4881889763779528,
                    "duration": 0.10309275000000184
                },
                {
                    "name": "G6",
                    "midi": 91,
                    "time": 143.7112935000005,
                    "velocity": 0.4881889763779528,
                    "duration": 0.10309275000000184
                },
                {
                    "name": "B6",
                    "midi": 95,
                    "time": 143.7112935000005,
                    "velocity": 0.5748031496062992,
                    "duration": 0.10309275000000184
                },
                {
                    "name": "B5",
                    "midi": 83,
                    "time": 143.8143862500005,
                    "velocity": 0.5826771653543307,
                    "duration": 0.10309275000000184
                },
                {
                    "name": "G6",
                    "midi": 91,
                    "time": 143.9174790000005,
                    "velocity": 0.49606299212598426,
                    "duration": 0.10309275000000184
                },
                {
                    "name": "C7",
                    "midi": 96,
                    "time": 143.9174790000005,
                    "velocity": 0.5905511811023622,
                    "duration": 0.10309275000000184
                },
                {
                    "name": "C6",
                    "midi": 84,
                    "time": 144.0205717500005,
                    "velocity": 0.5984251968503937,
                    "duration": 0.10309275000000184
                },
                {
                    "name": "C7",
                    "midi": 96,
                    "time": 144.1236645000005,
                    "velocity": 0.6062992125984252,
                    "duration": 0.10309275000000184
                },
                {
                    "name": "G6",
                    "midi": 91,
                    "time": 144.1236645000005,
                    "velocity": 0.5118110236220472,
                    "duration": 0.10309275000000184
                },
                {
                    "name": "C6",
                    "midi": 84,
                    "time": 144.2267572500005,
                    "velocity": 0.6141732283464567,
                    "duration": 0.10309275000000184
                },
                {
                    "name": "F7",
                    "midi": 101,
                    "time": 144.3298500000005,
                    "velocity": 0.6456692913385826,
                    "duration": 0.10309275000000184
                },
                {
                    "name": "C7",
                    "midi": 96,
                    "time": 144.3298500000005,
                    "velocity": 0.5433070866141733,
                    "duration": 0.10309275000000184
                },
                {
                    "name": "F6",
                    "midi": 89,
                    "time": 144.4329427500005,
                    "velocity": 0.5905511811023622,
                    "duration": 0.10309275000000184
                },
                {
                    "name": "F7",
                    "midi": 101,
                    "time": 144.5360355000005,
                    "velocity": 0.6456692913385826,
                    "duration": 0.10309275000000184
                },
                {
                    "name": "C7",
                    "midi": 96,
                    "time": 144.5360355000005,
                    "velocity": 0.5511811023622047,
                    "duration": 0.10309275000000184
                },
                {
                    "name": "F6",
                    "midi": 89,
                    "time": 144.6391282500005,
                    "velocity": 0.6062992125984252,
                    "duration": 0.10309275000000184
                },
                {
                    "name": "F7",
                    "midi": 101,
                    "time": 144.7422210000005,
                    "velocity": 0.6692913385826772,
                    "duration": 0.10309275000000184
                },
                {
                    "name": "B6",
                    "midi": 95,
                    "time": 144.7422210000005,
                    "velocity": 0.5669291338582677,
                    "duration": 0.10309275000000184
                },
                {
                    "name": "F6",
                    "midi": 89,
                    "time": 144.8453137500005,
                    "velocity": 0.6377952755905512,
                    "duration": 0.10309275000000184
                },
                {
                    "name": "F7",
                    "midi": 101,
                    "time": 144.94840650000052,
                    "velocity": 0.6771653543307087,
                    "duration": 0.10309275000000184
                },
                {
                    "name": "B6",
                    "midi": 95,
                    "time": 144.94840650000052,
                    "velocity": 0.5748031496062992,
                    "duration": 0.10309275000000184
                },
                {
                    "name": "F6",
                    "midi": 89,
                    "time": 145.05149925000052,
                    "velocity": 0.6456692913385826,
                    "duration": 0.10309275000000184
                },
                {
                    "name": "E7",
                    "midi": 100,
                    "time": 145.15459200000052,
                    "velocity": 0.6141732283464567,
                    "duration": 0.10309275000000184
                },
                {
                    "name": "B6",
                    "midi": 95,
                    "time": 145.15459200000052,
                    "velocity": 0.5196850393700787,
                    "duration": 0.10309275000000184
                },
                {
                    "name": "E6",
                    "midi": 88,
                    "time": 145.25768475000052,
                    "velocity": 0.5511811023622047,
                    "duration": 0.10309275000000184
                },
                {
                    "name": "E7",
                    "midi": 100,
                    "time": 145.36077750000052,
                    "velocity": 0.6062992125984252,
                    "duration": 0.10309275000000184
                },
                {
                    "name": "B6",
                    "midi": 95,
                    "time": 145.36077750000052,
                    "velocity": 0.5118110236220472,
                    "duration": 0.10309275000000184
                },
                {
                    "name": "E6",
                    "midi": 88,
                    "time": 145.46387025000053,
                    "velocity": 0.5511811023622047,
                    "duration": 0.10309275000000184
                },
                {
                    "name": "E7",
                    "midi": 100,
                    "time": 145.56696300000053,
                    "velocity": 0.5905511811023622,
                    "duration": 0.10309275000000184
                },
                {
                    "name": "A6",
                    "midi": 93,
                    "time": 145.56696300000053,
                    "velocity": 0.5039370078740157,
                    "duration": 0.10309275000000184
                },
                {
                    "name": "E6",
                    "midi": 88,
                    "time": 145.67005575000053,
                    "velocity": 0.5354330708661418,
                    "duration": 0.10309275000000184
                },
                {
                    "name": "E7",
                    "midi": 100,
                    "time": 145.77314850000053,
                    "velocity": 0.5669291338582677,
                    "duration": 0.10309275000000184
                },
                {
                    "name": "A6",
                    "midi": 93,
                    "time": 145.77314850000053,
                    "velocity": 0.47244094488188976,
                    "duration": 0.10309275000000184
                },
                {
                    "name": "E6",
                    "midi": 88,
                    "time": 145.87624125000053,
                    "velocity": 0.5275590551181102,
                    "duration": 0.10309275000000184
                },
                {
                    "name": "D7",
                    "midi": 98,
                    "time": 145.97933400000053,
                    "velocity": 0.5826771653543307,
                    "duration": 0.10309275000000184
                },
                {
                    "name": "A6",
                    "midi": 93,
                    "time": 145.97933400000053,
                    "velocity": 0.49606299212598426,
                    "duration": 0.10309275000000184
                },
                {
                    "name": "D6",
                    "midi": 86,
                    "time": 146.08242675000054,
                    "velocity": 0.5354330708661418,
                    "duration": 0.10309275000000184
                },
                {
                    "name": "D7",
                    "midi": 98,
                    "time": 146.18551950000054,
                    "velocity": 0.5826771653543307,
                    "duration": 0.10309275000000184
                },
                {
                    "name": "A6",
                    "midi": 93,
                    "time": 146.18551950000054,
                    "velocity": 0.49606299212598426,
                    "duration": 0.10309275000000184
                },
                {
                    "name": "D6",
                    "midi": 86,
                    "time": 146.28861225000054,
                    "velocity": 0.5275590551181102,
                    "duration": 0.10309275000000184
                },
                {
                    "name": "D7",
                    "midi": 98,
                    "time": 146.39170500000054,
                    "velocity": 0.5826771653543307,
                    "duration": 0.10309275000000184
                },
                {
                    "name": "G#6",
                    "midi": 92,
                    "time": 146.39170500000054,
                    "velocity": 0.49606299212598426,
                    "duration": 0.10309275000000184
                },
                {
                    "name": "D6",
                    "midi": 86,
                    "time": 146.49479775000054,
                    "velocity": 0.5196850393700787,
                    "duration": 0.10309275000000184
                },
                {
                    "name": "D7",
                    "midi": 98,
                    "time": 146.59789050000055,
                    "velocity": 0.5826771653543307,
                    "duration": 0.10309275000000184
                },
                {
                    "name": "G#6",
                    "midi": 92,
                    "time": 146.59789050000055,
                    "velocity": 0.49606299212598426,
                    "duration": 0.10309275000000184
                },
                {
                    "name": "D6",
                    "midi": 86,
                    "time": 146.70098325000055,
                    "velocity": 0.5354330708661418,
                    "duration": 0.10309275000000184
                },
                {
                    "name": "C7",
                    "midi": 96,
                    "time": 146.80407600000055,
                    "velocity": 0.5826771653543307,
                    "duration": 0.10309275000000184
                },
                {
                    "name": "A6",
                    "midi": 93,
                    "time": 146.80407600000055,
                    "velocity": 0.49606299212598426,
                    "duration": 0.10309275000000184
                },
                {
                    "name": "C6",
                    "midi": 84,
                    "time": 146.90716875000055,
                    "velocity": 0.5354330708661418,
                    "duration": 0.10309275000000184
                },
                {
                    "name": "C7",
                    "midi": 96,
                    "time": 147.01026150000055,
                    "velocity": 0.5826771653543307,
                    "duration": 0.10309275000000184
                },
                {
                    "name": "A6",
                    "midi": 93,
                    "time": 147.01026150000055,
                    "velocity": 0.49606299212598426,
                    "duration": 0.10309275000000184
                },
                {
                    "name": "C6",
                    "midi": 84,
                    "time": 147.11335425000055,
                    "velocity": 0.5275590551181102,
                    "duration": 0.10309275000000184
                },
                {
                    "name": "F6",
                    "midi": 89,
                    "time": 147.21644700000056,
                    "velocity": 0.5118110236220472,
                    "duration": 0.10309275000000184
                },
                {
                    "name": "A6",
                    "midi": 93,
                    "time": 147.21644700000056,
                    "velocity": 0.5118110236220472,
                    "duration": 0.10309275000000184
                },
                {
                    "name": "D7",
                    "midi": 98,
                    "time": 147.21644700000056,
                    "velocity": 0.6062992125984252,
                    "duration": 0.10309275000000184
                },
                {
                    "name": "D6",
                    "midi": 86,
                    "time": 147.31953975000056,
                    "velocity": 0.5511811023622047,
                    "duration": 0.10309275000000184
                },
                {
                    "name": "D7",
                    "midi": 98,
                    "time": 147.42263250000056,
                    "velocity": 0.5984251968503937,
                    "duration": 0.10309275000000184
                },
                {
                    "name": "A6",
                    "midi": 93,
                    "time": 147.42263250000056,
                    "velocity": 0.5118110236220472,
                    "duration": 0.10309275000000184
                },
                {
                    "name": "F6",
                    "midi": 89,
                    "time": 147.42263250000056,
                    "velocity": 0.5118110236220472,
                    "duration": 0.10309275000000184
                },
                {
                    "name": "D6",
                    "midi": 86,
                    "time": 147.52572525000056,
                    "velocity": 0.5511811023622047,
                    "duration": 0.10309275000000184
                },
                {
                    "name": "C7",
                    "midi": 96,
                    "time": 147.62881800000056,
                    "velocity": 0.5826771653543307,
                    "duration": 0.10309275000000184
                },
                {
                    "name": "G6",
                    "midi": 91,
                    "time": 147.62881800000056,
                    "velocity": 0.49606299212598426,
                    "duration": 0.10309275000000184
                },
                {
                    "name": "E6",
                    "midi": 88,
                    "time": 147.62881800000056,
                    "velocity": 0.49606299212598426,
                    "duration": 0.10309275000000184
                },
                {
                    "name": "C6",
                    "midi": 84,
                    "time": 147.73191075000057,
                    "velocity": 0.5354330708661418,
                    "duration": 0.10309275000000184
                },
                {
                    "name": "C7",
                    "midi": 96,
                    "time": 147.83500350000057,
                    "velocity": 0.5826771653543307,
                    "duration": 0.10309275000000184
                },
                {
                    "name": "G6",
                    "midi": 91,
                    "time": 147.83500350000057,
                    "velocity": 0.49606299212598426,
                    "duration": 0.10309275000000184
                },
                {
                    "name": "E6",
                    "midi": 88,
                    "time": 147.83500350000057,
                    "velocity": 0.49606299212598426,
                    "duration": 0.10309275000000184
                },
                {
                    "name": "C6",
                    "midi": 84,
                    "time": 147.93809625000057,
                    "velocity": 0.5354330708661418,
                    "duration": 0.10309275000000184
                },
                {
                    "name": "B6",
                    "midi": 95,
                    "time": 148.04118900000057,
                    "velocity": 0.5826771653543307,
                    "duration": 0.10309275000000184
                },
                {
                    "name": "G6",
                    "midi": 91,
                    "time": 148.04118900000057,
                    "velocity": 0.49606299212598426,
                    "duration": 0.10309275000000184
                },
                {
                    "name": "D6",
                    "midi": 86,
                    "time": 148.04118900000057,
                    "velocity": 0.49606299212598426,
                    "duration": 0.10309275000000184
                },
                {
                    "name": "B5",
                    "midi": 83,
                    "time": 148.14428175000057,
                    "velocity": 0.5433070866141733,
                    "duration": 0.10309275000000184
                },
                {
                    "name": "B6",
                    "midi": 95,
                    "time": 148.24737450000057,
                    "velocity": 0.5826771653543307,
                    "duration": 0.10309275000000184
                },
                {
                    "name": "G6",
                    "midi": 91,
                    "time": 148.24737450000057,
                    "velocity": 0.49606299212598426,
                    "duration": 0.10309275000000184
                },
                {
                    "name": "D6",
                    "midi": 86,
                    "time": 148.24737450000057,
                    "velocity": 0.49606299212598426,
                    "duration": 0.10309275000000184
                },
                {
                    "name": "B5",
                    "midi": 83,
                    "time": 148.35046725000058,
                    "velocity": 0.5354330708661418,
                    "duration": 0.10309275000000184
                },
                {
                    "name": "C6",
                    "midi": 84,
                    "time": 148.45356000000058,
                    "velocity": 0.49606299212598426,
                    "duration": 0.10309275000000184
                },
                {
                    "name": "E6",
                    "midi": 88,
                    "time": 148.45356000000058,
                    "velocity": 0.49606299212598426,
                    "duration": 0.10309275000000184
                },
                {
                    "name": "G6",
                    "midi": 91,
                    "time": 148.45356000000058,
                    "velocity": 0.5826771653543307,
                    "duration": 0.10309275000000184
                },
                {
                    "name": "G5",
                    "midi": 79,
                    "time": 148.55665275000058,
                    "velocity": 0.5196850393700787,
                    "duration": 0.10309275000000184
                },
                {
                    "name": "G6",
                    "midi": 91,
                    "time": 148.65974550000058,
                    "velocity": 0.5826771653543307,
                    "duration": 0.10309275000000184
                },
                {
                    "name": "E6",
                    "midi": 88,
                    "time": 148.65974550000058,
                    "velocity": 0.49606299212598426,
                    "duration": 0.10309275000000184
                },
                {
                    "name": "C6",
                    "midi": 84,
                    "time": 148.65974550000058,
                    "velocity": 0.49606299212598426,
                    "duration": 0.10309275000000184
                },
                {
                    "name": "G5",
                    "midi": 79,
                    "time": 148.76283825000058,
                    "velocity": 0.5196850393700787,
                    "duration": 0.10309275000000184
                },
                {
                    "name": "A5",
                    "midi": 81,
                    "time": 148.8659310000006,
                    "velocity": 0.5118110236220472,
                    "duration": 0.10309275000000184
                },
                {
                    "name": "D6",
                    "midi": 86,
                    "time": 148.8659310000006,
                    "velocity": 0.5118110236220472,
                    "duration": 0.10309275000000184
                },
                {
                    "name": "F6",
                    "midi": 89,
                    "time": 148.8659310000006,
                    "velocity": 0.6062992125984252,
                    "duration": 0.10309275000000184
                },
                {
                    "name": "F5",
                    "midi": 77,
                    "time": 148.9690237500006,
                    "velocity": 0.5433070866141733,
                    "duration": 0.10309275000000184
                },
                {
                    "name": "F6",
                    "midi": 89,
                    "time": 149.0721165000006,
                    "velocity": 0.5984251968503937,
                    "duration": 0.10309275000000184
                },
                {
                    "name": "D6",
                    "midi": 86,
                    "time": 149.0721165000006,
                    "velocity": 0.5118110236220472,
                    "duration": 0.10309275000000184
                },
                {
                    "name": "A5",
                    "midi": 81,
                    "time": 149.0721165000006,
                    "velocity": 0.5118110236220472,
                    "duration": 0.10309275000000184
                },
                {
                    "name": "F5",
                    "midi": 77,
                    "time": 149.1752092500006,
                    "velocity": 0.5511811023622047,
                    "duration": 0.10309275000000184
                },
                {
                    "name": "G5",
                    "midi": 79,
                    "time": 149.2783020000006,
                    "velocity": 0.5196850393700787,
                    "duration": 0.10309275000000184
                },
                {
                    "name": "C6",
                    "midi": 84,
                    "time": 149.2783020000006,
                    "velocity": 0.5196850393700787,
                    "duration": 0.10309275000000184
                },
                {
                    "name": "E6",
                    "midi": 88,
                    "time": 149.2783020000006,
                    "velocity": 0.6141732283464567,
                    "duration": 0.10309275000000184
                },
                {
                    "name": "E5",
                    "midi": 76,
                    "time": 149.3813947500006,
                    "velocity": 0.5590551181102362,
                    "duration": 0.10309275000000184
                },
                {
                    "name": "G5",
                    "midi": 79,
                    "time": 149.4844875000006,
                    "velocity": 0.5275590551181102,
                    "duration": 0.10309275000000184
                },
                {
                    "name": "C6",
                    "midi": 84,
                    "time": 149.4844875000006,
                    "velocity": 0.5275590551181102,
                    "duration": 0.10309275000000184
                },
                {
                    "name": "E6",
                    "midi": 88,
                    "time": 149.4844875000006,
                    "velocity": 0.6220472440944882,
                    "duration": 0.10309275000000184
                },
                {
                    "name": "E5",
                    "midi": 76,
                    "time": 149.5875802500006,
                    "velocity": 0.5511811023622047,
                    "duration": 0.10309275000000184
                },
                {
                    "name": "G5",
                    "midi": 79,
                    "time": 149.6906730000006,
                    "velocity": 0.5275590551181102,
                    "duration": 0.10309275000000184
                },
                {
                    "name": "B5",
                    "midi": 83,
                    "time": 149.6906730000006,
                    "velocity": 0.5275590551181102,
                    "duration": 0.10309275000000184
                },
                {
                    "name": "D6",
                    "midi": 86,
                    "time": 149.6906730000006,
                    "velocity": 0.6220472440944882,
                    "duration": 0.10309275000000184
                },
                {
                    "name": "D5",
                    "midi": 74,
                    "time": 149.7937657500006,
                    "velocity": 0.5826771653543307,
                    "duration": 0.10309275000000184
                },
                {
                    "name": "G5",
                    "midi": 79,
                    "time": 149.8968585000006,
                    "velocity": 0.5354330708661418,
                    "duration": 0.10309275000000184
                },
                {
                    "name": "B5",
                    "midi": 83,
                    "time": 149.8968585000006,
                    "velocity": 0.5354330708661418,
                    "duration": 0.10309275000000184
                },
                {
                    "name": "D6",
                    "midi": 86,
                    "time": 149.8968585000006,
                    "velocity": 0.6299212598425197,
                    "duration": 0.10309275000000184
                },
                {
                    "name": "D5",
                    "midi": 74,
                    "time": 149.9999512500006,
                    "velocity": 0.5826771653543307,
                    "duration": 0.10309275000000184
                },
                {
                    "name": "E6",
                    "midi": 88,
                    "time": 150.1030440000006,
                    "velocity": 0.6141732283464567,
                    "duration": 0.10309275000000184
                },
                {
                    "name": "C7",
                    "midi": 96,
                    "time": 150.2061367500006,
                    "velocity": 0.5984251968503937,
                    "duration": 0.10309275000000184
                },
                {
                    "name": "G6",
                    "midi": 91,
                    "time": 150.3092295000006,
                    "velocity": 0.5984251968503937,
                    "duration": 0.10309275000000184
                },
                {
                    "name": "E6",
                    "midi": 88,
                    "time": 150.4123222500006,
                    "velocity": 0.5905511811023622,
                    "duration": 0.10309275000000184
                },
                {
                    "name": "C6",
                    "midi": 84,
                    "time": 150.51541500000062,
                    "velocity": 0.5826771653543307,
                    "duration": 0.12027487500000689
                },
                {
                    "name": "G5",
                    "midi": 79,
                    "time": 150.61850775000062,
                    "velocity": 0.5748031496062992,
                    "duration": 0.12027487500000689
                },
                {
                    "name": "E5",
                    "midi": 76,
                    "time": 150.72160050000062,
                    "velocity": 0.5669291338582677,
                    "duration": 0.12027487500000689
                },
                {
                    "name": "C5",
                    "midi": 72,
                    "time": 150.82469325000062,
                    "velocity": 0.5669291338582677,
                    "duration": 0.12027487500000689
                },
                {
                    "name": "D6",
                    "midi": 86,
                    "time": 150.92778600000062,
                    "velocity": 0.5669291338582677,
                    "duration": 0.10309275000000184
                },
                {
                    "name": "B6",
                    "midi": 95,
                    "time": 151.03087875000062,
                    "velocity": 0.5984251968503937,
                    "duration": 0.10309275000000184
                },
                {
                    "name": "G6",
                    "midi": 91,
                    "time": 151.13397150000063,
                    "velocity": 0.5669291338582677,
                    "duration": 0.10309275000000184
                },
                {
                    "name": "F6",
                    "midi": 89,
                    "time": 151.23706425000063,
                    "velocity": 0.5354330708661418,
                    "duration": 0.10309275000000184
                },
                {
                    "name": "B5",
                    "midi": 83,
                    "time": 151.34015700000063,
                    "velocity": 0.5826771653543307,
                    "duration": 0.12027487500000689
                },
                {
                    "name": "G5",
                    "midi": 79,
                    "time": 151.44324975000063,
                    "velocity": 0.5354330708661418,
                    "duration": 0.12027487500000689
                },
                {
                    "name": "F5",
                    "midi": 77,
                    "time": 151.54634250000063,
                    "velocity": 0.5826771653543307,
                    "duration": 0.12027487500000689
                },
                {
                    "name": "B4",
                    "midi": 71,
                    "time": 151.64943525000064,
                    "velocity": 0.5590551181102362,
                    "duration": 0.12027487500000689
                },
                {
                    "name": "D6",
                    "midi": 86,
                    "time": 151.75252800000064,
                    "velocity": 0.5669291338582677,
                    "duration": 0.10309275000000184
                },
                {
                    "name": "D7",
                    "midi": 98,
                    "time": 151.85562075000064,
                    "velocity": 0.5984251968503937,
                    "duration": 0.10309275000000184
                },
                {
                    "name": "A6",
                    "midi": 93,
                    "time": 151.95871350000064,
                    "velocity": 0.5984251968503937,
                    "duration": 0.10309275000000184
                },
                {
                    "name": "F6",
                    "midi": 89,
                    "time": 152.06180625000064,
                    "velocity": 0.5905511811023622,
                    "duration": 0.10309275000000184
                },
                {
                    "name": "D6",
                    "midi": 86,
                    "time": 152.16489900000064,
                    "velocity": 0.5826771653543307,
                    "duration": 0.12027487500000689
                },
                {
                    "name": "A5",
                    "midi": 81,
                    "time": 152.26799175000065,
                    "velocity": 0.5748031496062992,
                    "duration": 0.12027487500000689
                },
                {
                    "name": "F5",
                    "midi": 77,
                    "time": 152.37108450000065,
                    "velocity": 0.5669291338582677,
                    "duration": 0.12027487500000689
                },
                {
                    "name": "D5",
                    "midi": 74,
                    "time": 152.47417725000065,
                    "velocity": 0.5669291338582677,
                    "duration": 0.12027487500000689
                },
                {
                    "name": "C#6",
                    "midi": 85,
                    "time": 152.57727000000065,
                    "velocity": 0.5669291338582677,
                    "duration": 0.10309275000000184
                },
                {
                    "name": "C#7",
                    "midi": 97,
                    "time": 152.68036275000065,
                    "velocity": 0.5984251968503937,
                    "duration": 0.10309275000000184
                },
                {
                    "name": "A6",
                    "midi": 93,
                    "time": 152.78345550000066,
                    "velocity": 0.5669291338582677,
                    "duration": 0.10309275000000184
                },
                {
                    "name": "G6",
                    "midi": 91,
                    "time": 152.88654825000066,
                    "velocity": 0.5354330708661418,
                    "duration": 0.10309275000000184
                },
                {
                    "name": "C#6",
                    "midi": 85,
                    "time": 152.98964100000066,
                    "velocity": 0.5826771653543307,
                    "duration": 0.12027487500000689
                },
                {
                    "name": "A5",
                    "midi": 81,
                    "time": 153.09273375000066,
                    "velocity": 0.5354330708661418,
                    "duration": 0.12027487500000689
                },
                {
                    "name": "G5",
                    "midi": 79,
                    "time": 153.19582650000066,
                    "velocity": 0.5826771653543307,
                    "duration": 0.12027487500000689
                },
                {
                    "name": "C#5",
                    "midi": 73,
                    "time": 153.29891925000067,
                    "velocity": 0.5590551181102362,
                    "duration": 0.12027487500000689
                },
                {
                    "name": "F6",
                    "midi": 89,
                    "time": 153.40201200000067,
                    "velocity": 0.5669291338582677,
                    "duration": 0.10309275000000184
                },
                {
                    "name": "F7",
                    "midi": 101,
                    "time": 153.50510475000067,
                    "velocity": 0.5984251968503937,
                    "duration": 0.10309275000000184
                },
                {
                    "name": "C7",
                    "midi": 96,
                    "time": 153.60819750000067,
                    "velocity": 0.5984251968503937,
                    "duration": 0.10309275000000184
                },
                {
                    "name": "A6",
                    "midi": 93,
                    "time": 153.71129025000067,
                    "velocity": 0.5905511811023622,
                    "duration": 0.10309275000000184
                },
                {
                    "name": "F6",
                    "midi": 89,
                    "time": 153.81438300000067,
                    "velocity": 0.5826771653543307,
                    "duration": 0.12027487500000689
                },
                {
                    "name": "C6",
                    "midi": 84,
                    "time": 153.91747575000068,
                    "velocity": 0.5748031496062992,
                    "duration": 0.12027487500000689
                },
                {
                    "name": "A5",
                    "midi": 81,
                    "time": 154.02056850000068,
                    "velocity": 0.5669291338582677,
                    "duration": 0.12027487500000689
                },
                {
                    "name": "F5",
                    "midi": 77,
                    "time": 154.12366125000068,
                    "velocity": 0.5669291338582677,
                    "duration": 0.12027487500000689
                },
                {
                    "name": "E6",
                    "midi": 88,
                    "time": 154.22675400000068,
                    "velocity": 0.5669291338582677,
                    "duration": 0.10309275000000184
                },
                {
                    "name": "E7",
                    "midi": 100,
                    "time": 154.32984675000068,
                    "velocity": 0.5984251968503937,
                    "duration": 0.10309275000000184
                },
                {
                    "name": "C7",
                    "midi": 96,
                    "time": 154.43293950000069,
                    "velocity": 0.5669291338582677,
                    "duration": 0.10309275000000184
                },
                {
                    "name": "G6",
                    "midi": 91,
                    "time": 154.5360322500007,
                    "velocity": 0.5354330708661418,
                    "duration": 0.10309275000000184
                },
                {
                    "name": "E6",
                    "midi": 88,
                    "time": 154.6391250000007,
                    "velocity": 0.5826771653543307,
                    "duration": 0.12027487500000689
                },
                {
                    "name": "C6",
                    "midi": 84,
                    "time": 154.7422177500007,
                    "velocity": 0.5354330708661418,
                    "duration": 0.12027487500000689
                },
                {
                    "name": "G5",
                    "midi": 79,
                    "time": 154.8453105000007,
                    "velocity": 0.5826771653543307,
                    "duration": 0.12027487500000689
                },
                {
                    "name": "E5",
                    "midi": 76,
                    "time": 154.9484032500007,
                    "velocity": 0.5590551181102362,
                    "duration": 0.12027487500000689
                },
                {
                    "name": "C#6",
                    "midi": 85,
                    "time": 155.0514960000007,
                    "velocity": 0.5748031496062992,
                    "duration": 0.41237100000000737
                },
                {
                    "name": "A#5",
                    "midi": 82,
                    "time": 155.0514960000007,
                    "velocity": 0.5748031496062992,
                    "duration": 0.41237100000000737
                },
                {
                    "name": "G5",
                    "midi": 79,
                    "time": 155.0514960000007,
                    "velocity": 0.5748031496062992,
                    "duration": 0.41237100000000737
                },
                {
                    "name": "G6",
                    "midi": 91,
                    "time": 155.0514960000007,
                    "velocity": 0.6850393700787402,
                    "duration": 0.41237100000000737
                },
                {
                    "name": "C#5",
                    "midi": 73,
                    "time": 155.4638670000007,
                    "velocity": 0.47244094488188976,
                    "duration": 0.20618550000000369
                },
                {
                    "name": "A#4",
                    "midi": 70,
                    "time": 155.4638670000007,
                    "velocity": 0.47244094488188976,
                    "duration": 0.20618550000000369
                },
                {
                    "name": "G4",
                    "midi": 67,
                    "time": 155.4638670000007,
                    "velocity": 0.47244094488188976,
                    "duration": 0.20618550000000369
                },
                {
                    "name": "G5",
                    "midi": 79,
                    "time": 155.4638670000007,
                    "velocity": 0.5669291338582677,
                    "duration": 0.20618550000000369
                },
                {
                    "name": "C#5",
                    "midi": 73,
                    "time": 155.6700525000007,
                    "velocity": 0.47244094488188976,
                    "duration": 0.20618550000000369
                },
                {
                    "name": "A#4",
                    "midi": 70,
                    "time": 155.6700525000007,
                    "velocity": 0.47244094488188976,
                    "duration": 0.20618550000000369
                },
                {
                    "name": "G4",
                    "midi": 67,
                    "time": 155.6700525000007,
                    "velocity": 0.47244094488188976,
                    "duration": 0.20618550000000369
                },
                {
                    "name": "G5",
                    "midi": 79,
                    "time": 155.6700525000007,
                    "velocity": 0.5669291338582677,
                    "duration": 0.20618550000000369
                },
                {
                    "name": "D6",
                    "midi": 86,
                    "time": 155.8762380000007,
                    "velocity": 0.5433070866141733,
                    "duration": 0.41237100000000737
                },
                {
                    "name": "B5",
                    "midi": 83,
                    "time": 155.8762380000007,
                    "velocity": 0.5433070866141733,
                    "duration": 0.41237100000000737
                },
                {
                    "name": "G5",
                    "midi": 79,
                    "time": 155.8762380000007,
                    "velocity": 0.5433070866141733,
                    "duration": 0.41237100000000737
                },
                {
                    "name": "G6",
                    "midi": 91,
                    "time": 155.8762380000007,
                    "velocity": 0.6456692913385826,
                    "duration": 0.41237100000000737
                },
                {
                    "name": "D5",
                    "midi": 74,
                    "time": 156.28860900000072,
                    "velocity": 0.4881889763779528,
                    "duration": 0.20618550000000369
                },
                {
                    "name": "B4",
                    "midi": 71,
                    "time": 156.28860900000072,
                    "velocity": 0.4881889763779528,
                    "duration": 0.20618550000000369
                },
                {
                    "name": "G4",
                    "midi": 67,
                    "time": 156.28860900000072,
                    "velocity": 0.4881889763779528,
                    "duration": 0.20618550000000369
                },
                {
                    "name": "G5",
                    "midi": 79,
                    "time": 156.28860900000072,
                    "velocity": 0.5748031496062992,
                    "duration": 0.20618550000000369
                },
                {
                    "name": "D5",
                    "midi": 74,
                    "time": 156.49479450000072,
                    "velocity": 0.49606299212598426,
                    "duration": 0.20618550000000369
                },
                {
                    "name": "B4",
                    "midi": 71,
                    "time": 156.49479450000072,
                    "velocity": 0.49606299212598426,
                    "duration": 0.20618550000000369
                },
                {
                    "name": "G4",
                    "midi": 67,
                    "time": 156.49479450000072,
                    "velocity": 0.49606299212598426,
                    "duration": 0.20618550000000369
                },
                {
                    "name": "G5",
                    "midi": 79,
                    "time": 156.49479450000072,
                    "velocity": 0.5826771653543307,
                    "duration": 0.20618550000000369
                },
                {
                    "name": "C#6",
                    "midi": 85,
                    "time": 156.70098000000073,
                    "velocity": 0.5748031496062992,
                    "duration": 0.41237100000000737
                },
                {
                    "name": "A#5",
                    "midi": 82,
                    "time": 156.70098000000073,
                    "velocity": 0.5748031496062992,
                    "duration": 0.41237100000000737
                },
                {
                    "name": "G5",
                    "midi": 79,
                    "time": 156.70098000000073,
                    "velocity": 0.5748031496062992,
                    "duration": 0.41237100000000737
                },
                {
                    "name": "G6",
                    "midi": 91,
                    "time": 156.70098000000073,
                    "velocity": 0.6850393700787402,
                    "duration": 0.41237100000000737
                },
                {
                    "name": "C#5",
                    "midi": 73,
                    "time": 157.11335100000073,
                    "velocity": 0.47244094488188976,
                    "duration": 0.20618550000000369
                },
                {
                    "name": "A#4",
                    "midi": 70,
                    "time": 157.11335100000073,
                    "velocity": 0.47244094488188976,
                    "duration": 0.20618550000000369
                },
                {
                    "name": "G4",
                    "midi": 67,
                    "time": 157.11335100000073,
                    "velocity": 0.47244094488188976,
                    "duration": 0.20618550000000369
                },
                {
                    "name": "G5",
                    "midi": 79,
                    "time": 157.11335100000073,
                    "velocity": 0.5669291338582677,
                    "duration": 0.20618550000000369
                },
                {
                    "name": "C#5",
                    "midi": 73,
                    "time": 157.31953650000074,
                    "velocity": 0.47244094488188976,
                    "duration": 0.20618550000000369
                },
                {
                    "name": "A#4",
                    "midi": 70,
                    "time": 157.31953650000074,
                    "velocity": 0.47244094488188976,
                    "duration": 0.20618550000000369
                },
                {
                    "name": "G4",
                    "midi": 67,
                    "time": 157.31953650000074,
                    "velocity": 0.47244094488188976,
                    "duration": 0.20618550000000369
                },
                {
                    "name": "G5",
                    "midi": 79,
                    "time": 157.31953650000074,
                    "velocity": 0.5669291338582677,
                    "duration": 0.20618550000000369
                },
                {
                    "name": "D6",
                    "midi": 86,
                    "time": 157.52572200000074,
                    "velocity": 0.5433070866141733,
                    "duration": 0.41237100000000737
                },
                {
                    "name": "B5",
                    "midi": 83,
                    "time": 157.52572200000074,
                    "velocity": 0.5433070866141733,
                    "duration": 0.41237100000000737
                },
                {
                    "name": "G5",
                    "midi": 79,
                    "time": 157.52572200000074,
                    "velocity": 0.5433070866141733,
                    "duration": 0.41237100000000737
                },
                {
                    "name": "G6",
                    "midi": 91,
                    "time": 157.52572200000074,
                    "velocity": 0.6456692913385826,
                    "duration": 0.41237100000000737
                },
                {
                    "name": "D5",
                    "midi": 74,
                    "time": 157.93809300000075,
                    "velocity": 0.4881889763779528,
                    "duration": 0.20618550000000369
                },
                {
                    "name": "B4",
                    "midi": 71,
                    "time": 157.93809300000075,
                    "velocity": 0.4881889763779528,
                    "duration": 0.20618550000000369
                },
                {
                    "name": "G4",
                    "midi": 67,
                    "time": 157.93809300000075,
                    "velocity": 0.4881889763779528,
                    "duration": 0.20618550000000369
                },
                {
                    "name": "G5",
                    "midi": 79,
                    "time": 157.93809300000075,
                    "velocity": 0.5748031496062992,
                    "duration": 0.20618550000000369
                },
                {
                    "name": "D5",
                    "midi": 74,
                    "time": 158.14427850000075,
                    "velocity": 0.49606299212598426,
                    "duration": 0.20618550000000369
                },
                {
                    "name": "B4",
                    "midi": 71,
                    "time": 158.14427850000075,
                    "velocity": 0.49606299212598426,
                    "duration": 0.20618550000000369
                },
                {
                    "name": "G4",
                    "midi": 67,
                    "time": 158.14427850000075,
                    "velocity": 0.49606299212598426,
                    "duration": 0.20618550000000369
                },
                {
                    "name": "G5",
                    "midi": 79,
                    "time": 158.14427850000075,
                    "velocity": 0.5826771653543307,
                    "duration": 0.20618550000000369
                },
                {
                    "name": "G6",
                    "midi": 91,
                    "time": 158.35046400000076,
                    "velocity": 0.5039370078740157,
                    "duration": 0.10309275000000184
                },
                {
                    "name": "C7",
                    "midi": 96,
                    "time": 158.35046400000076,
                    "velocity": 0.5984251968503937,
                    "duration": 0.10309275000000184
                },
                {
                    "name": "C6",
                    "midi": 84,
                    "time": 158.45355675000076,
                    "velocity": 0.5590551181102362,
                    "duration": 0.10309275000000184
                },
                {
                    "name": "C7",
                    "midi": 96,
                    "time": 158.55664950000076,
                    "velocity": 0.5984251968503937,
                    "duration": 0.10309275000000184
                },
                {
                    "name": "G6",
                    "midi": 91,
                    "time": 158.55664950000076,
                    "velocity": 0.5039370078740157,
                    "duration": 0.10309275000000184
                },
                {
                    "name": "C6",
                    "midi": 84,
                    "time": 158.65974225000076,
                    "velocity": 0.5433070866141733,
                    "duration": 0.10309275000000184
                },
                {
                    "name": "C6",
                    "midi": 84,
                    "time": 158.76283500000076,
                    "velocity": 0.49606299212598426,
                    "duration": 0.10309275000000184
                },
                {
                    "name": "F6",
                    "midi": 89,
                    "time": 158.76283500000076,
                    "velocity": 0.49606299212598426,
                    "duration": 0.10309275000000184
                },
                {
                    "name": "A6",
                    "midi": 93,
                    "time": 158.76283500000076,
                    "velocity": 0.5905511811023622,
                    "duration": 0.10309275000000184
                },
                {
                    "name": "A5",
                    "midi": 81,
                    "time": 158.86592775000076,
                    "velocity": 0.5354330708661418,
                    "duration": 0.10309275000000184
                },
                {
                    "name": "A6",
                    "midi": 93,
                    "time": 158.96902050000077,
                    "velocity": 0.5826771653543307,
                    "duration": 0.10309275000000184
                },
                {
                    "name": "F6",
                    "midi": 89,
                    "time": 158.96902050000077,
                    "velocity": 0.4881889763779528,
                    "duration": 0.10309275000000184
                },
                {
                    "name": "C6",
                    "midi": 84,
                    "time": 158.96902050000077,
                    "velocity": 0.4881889763779528,
                    "duration": 0.10309275000000184
                },
                {
                    "name": "A5",
                    "midi": 81,
                    "time": 159.07211325000077,
                    "velocity": 0.5275590551181102,
                    "duration": 0.10309275000000184
                },
                {
                    "name": "C6",
                    "midi": 84,
                    "time": 159.17520600000077,
                    "velocity": 0.4881889763779528,
                    "duration": 0.10309275000000184
                },
                {
                    "name": "E6",
                    "midi": 88,
                    "time": 159.17520600000077,
                    "velocity": 0.4881889763779528,
                    "duration": 0.10309275000000184
                },
                {
                    "name": "G6",
                    "midi": 91,
                    "time": 159.17520600000077,
                    "velocity": 0.5748031496062992,
                    "duration": 0.10309275000000184
                },
                {
                    "name": "G5",
                    "midi": 79,
                    "time": 159.27829875000077,
                    "velocity": 0.5275590551181102,
                    "duration": 0.10309275000000184
                },
                {
                    "name": "C6",
                    "midi": 84,
                    "time": 159.38139150000077,
                    "velocity": 0.4881889763779528,
                    "duration": 0.10309275000000184
                },
                {
                    "name": "E6",
                    "midi": 88,
                    "time": 159.38139150000077,
                    "velocity": 0.4881889763779528,
                    "duration": 0.10309275000000184
                },
                {
                    "name": "G6",
                    "midi": 91,
                    "time": 159.38139150000077,
                    "velocity": 0.5748031496062992,
                    "duration": 0.10309275000000184
                },
                {
                    "name": "G5",
                    "midi": 79,
                    "time": 159.48448425000078,
                    "velocity": 0.5196850393700787,
                    "duration": 0.10309275000000184
                },
                {
                    "name": "B5",
                    "midi": 83,
                    "time": 159.58757700000078,
                    "velocity": 0.48031496062992124,
                    "duration": 0.10309275000000184
                },
                {
                    "name": "D6",
                    "midi": 86,
                    "time": 159.58757700000078,
                    "velocity": 0.48031496062992124,
                    "duration": 0.10309275000000184
                },
                {
                    "name": "G6",
                    "midi": 91,
                    "time": 159.58757700000078,
                    "velocity": 0.5669291338582677,
                    "duration": 0.10309275000000184
                },
                {
                    "name": "G5",
                    "midi": 79,
                    "time": 159.69066975000078,
                    "velocity": 0.5118110236220472,
                    "duration": 0.10309275000000184
                },
                {
                    "name": "B5",
                    "midi": 83,
                    "time": 159.79376250000078,
                    "velocity": 0.47244094488188976,
                    "duration": 0.10309275000000184
                },
                {
                    "name": "D6",
                    "midi": 86,
                    "time": 159.79376250000078,
                    "velocity": 0.47244094488188976,
                    "duration": 0.10309275000000184
                },
                {
                    "name": "G6",
                    "midi": 91,
                    "time": 159.79376250000078,
                    "velocity": 0.5590551181102362,
                    "duration": 0.10309275000000184
                },
                {
                    "name": "G5",
                    "midi": 79,
                    "time": 159.89685525000078,
                    "velocity": 0.5118110236220472,
                    "duration": 0.10309275000000184
                },
                {
                    "name": "E6",
                    "midi": 88,
                    "time": 159.99994800000078,
                    "velocity": 0.36220472440944884,
                    "duration": 0.10309275000000184
                },
                {
                    "name": "C7",
                    "midi": 96,
                    "time": 160.1030407500008,
                    "velocity": 0.3858267716535433,
                    "duration": 0.10309275000000184
                },
                {
                    "name": "G6",
                    "midi": 91,
                    "time": 160.2061335000008,
                    "velocity": 0.3858267716535433,
                    "duration": 0.10309275000000184
                },
                {
                    "name": "E6",
                    "midi": 88,
                    "time": 160.3092262500008,
                    "velocity": 0.3779527559055118,
                    "duration": 0.10309275000000184
                },
                {
                    "name": "C6",
                    "midi": 84,
                    "time": 160.4123190000008,
                    "velocity": 0.3779527559055118,
                    "duration": 0.12027487500000689
                },
                {
                    "name": "G5",
                    "midi": 79,
                    "time": 160.5154117500008,
                    "velocity": 0.3700787401574803,
                    "duration": 0.12027487500000689
                },
                {
                    "name": "E5",
                    "midi": 76,
                    "time": 160.6185045000008,
                    "velocity": 0.36220472440944884,
                    "duration": 0.12027487500000689
                },
                {
                    "name": "C5",
                    "midi": 72,
                    "time": 160.7215972500008,
                    "velocity": 0.36220472440944884,
                    "duration": 0.12027487500000689
                },
                {
                    "name": "D6",
                    "midi": 86,
                    "time": 160.8246900000008,
                    "velocity": 0.36220472440944884,
                    "duration": 0.10309275000000184
                },
                {
                    "name": "B6",
                    "midi": 95,
                    "time": 160.9277827500008,
                    "velocity": 0.3858267716535433,
                    "duration": 0.10309275000000184
                },
                {
                    "name": "G6",
                    "midi": 91,
                    "time": 161.0308755000008,
                    "velocity": 0.36220472440944884,
                    "duration": 0.10309275000000184
                },
                {
                    "name": "F6",
                    "midi": 89,
                    "time": 161.1339682500008,
                    "velocity": 0.3464566929133858,
                    "duration": 0.10309275000000184
                },
                {
                    "name": "B5",
                    "midi": 83,
                    "time": 161.2370610000008,
                    "velocity": 0.3779527559055118,
                    "duration": 0.12027487500000689
                },
                {
                    "name": "G5",
                    "midi": 79,
                    "time": 161.3401537500008,
                    "velocity": 0.3464566929133858,
                    "duration": 0.12027487500000689
                },
                {
                    "name": "F5",
                    "midi": 77,
                    "time": 161.4432465000008,
                    "velocity": 0.3779527559055118,
                    "duration": 0.12027487500000689
                },
                {
                    "name": "B4",
                    "midi": 71,
                    "time": 161.5463392500008,
                    "velocity": 0.36220472440944884,
                    "duration": 0.12027487500000689
                },
                {
                    "name": "D6",
                    "midi": 86,
                    "time": 161.64943200000081,
                    "velocity": 0.36220472440944884,
                    "duration": 0.10309275000000184
                },
                {
                    "name": "D7",
                    "midi": 98,
                    "time": 161.75252475000082,
                    "velocity": 0.3858267716535433,
                    "duration": 0.10309275000000184
                },
                {
                    "name": "A6",
                    "midi": 93,
                    "time": 161.85561750000082,
                    "velocity": 0.3858267716535433,
                    "duration": 0.10309275000000184
                },
                {
                    "name": "F6",
                    "midi": 89,
                    "time": 161.95871025000082,
                    "velocity": 0.3779527559055118,
                    "duration": 0.10309275000000184
                },
                {
                    "name": "D6",
                    "midi": 86,
                    "time": 162.06180300000082,
                    "velocity": 0.3779527559055118,
                    "duration": 0.12027487500000689
                },
                {
                    "name": "A5",
                    "midi": 81,
                    "time": 162.16489575000082,
                    "velocity": 0.3700787401574803,
                    "duration": 0.12027487500000689
                },
                {
                    "name": "F5",
                    "midi": 77,
                    "time": 162.26798850000083,
                    "velocity": 0.36220472440944884,
                    "duration": 0.12027487500000689
                },
                {
                    "name": "D5",
                    "midi": 74,
                    "time": 162.37108125000083,
                    "velocity": 0.36220472440944884,
                    "duration": 0.12027487500000689
                },
                {
                    "name": "C#6",
                    "midi": 85,
                    "time": 162.47417400000083,
                    "velocity": 0.36220472440944884,
                    "duration": 0.10309275000000184
                },
                {
                    "name": "C#7",
                    "midi": 97,
                    "time": 162.57726675000083,
                    "velocity": 0.3858267716535433,
                    "duration": 0.10309275000000184
                },
                {
                    "name": "A6",
                    "midi": 93,
                    "time": 162.68035950000083,
                    "velocity": 0.36220472440944884,
                    "duration": 0.10309275000000184
                },
                {
                    "name": "G6",
                    "midi": 91,
                    "time": 162.78345225000083,
                    "velocity": 0.3464566929133858,
                    "duration": 0.10309275000000184
                },
                {
                    "name": "C#6",
                    "midi": 85,
                    "time": 162.88654500000084,
                    "velocity": 0.3779527559055118,
                    "duration": 0.12027487500000689
                },
                {
                    "name": "A5",
                    "midi": 81,
                    "time": 162.98963775000084,
                    "velocity": 0.3464566929133858,
                    "duration": 0.12027487500000689
                },
                {
                    "name": "G5",
                    "midi": 79,
                    "time": 163.09273050000084,
                    "velocity": 0.3779527559055118,
                    "duration": 0.12027487500000689
                },
                {
                    "name": "C#5",
                    "midi": 73,
                    "time": 163.19582325000084,
                    "velocity": 0.36220472440944884,
                    "duration": 0.12027487500000689
                },
                {
                    "name": "F6",
                    "midi": 89,
                    "time": 163.29891600000084,
                    "velocity": 0.3937007874015748,
                    "duration": 0.10309275000000184
                },
                {
                    "name": "F7",
                    "midi": 101,
                    "time": 163.40200875000085,
                    "velocity": 0.4330708661417323,
                    "duration": 0.10309275000000184
                },
                {
                    "name": "C7",
                    "midi": 96,
                    "time": 163.50510150000085,
                    "velocity": 0.4409448818897638,
                    "duration": 0.10309275000000184
                },
                {
                    "name": "A6",
                    "midi": 93,
                    "time": 163.60819425000085,
                    "velocity": 0.44881889763779526,
                    "duration": 0.10309275000000184
                },
                {
                    "name": "F6",
                    "midi": 89,
                    "time": 163.71128700000085,
                    "velocity": 0.4566929133858268,
                    "duration": 0.12027487500000689
                },
                {
                    "name": "C6",
                    "midi": 84,
                    "time": 163.81437975000085,
                    "velocity": 0.4566929133858268,
                    "duration": 0.12027487500000689
                },
                {
                    "name": "A5",
                    "midi": 81,
                    "time": 163.91747250000086,
                    "velocity": 0.4566929133858268,
                    "duration": 0.12027487500000689
                },
                {
                    "name": "F5",
                    "midi": 77,
                    "time": 164.02056525000086,
                    "velocity": 0.47244094488188976,
                    "duration": 0.12027487500000689
                },
                {
                    "name": "E6",
                    "midi": 88,
                    "time": 164.12365800000086,
                    "velocity": 0.4881889763779528,
                    "duration": 0.10309275000000184
                },
                {
                    "name": "E7",
                    "midi": 100,
                    "time": 164.22675075000086,
                    "velocity": 0.5275590551181102,
                    "duration": 0.10309275000000184
                },
                {
                    "name": "C7",
                    "midi": 96,
                    "time": 164.32984350000086,
                    "velocity": 0.5039370078740157,
                    "duration": 0.10309275000000184
                },
                {
                    "name": "G6",
                    "midi": 91,
                    "time": 164.43293625000086,
                    "velocity": 0.49606299212598426,
                    "duration": 0.10309275000000184
                },
                {
                    "name": "E6",
                    "midi": 88,
                    "time": 164.53602900000087,
                    "velocity": 0.5511811023622047,
                    "duration": 0.12027487500000689
                },
                {
                    "name": "C6",
                    "midi": 84,
                    "time": 164.63912175000087,
                    "velocity": 0.5196850393700787,
                    "duration": 0.12027487500000689
                },
                {
                    "name": "G5",
                    "midi": 79,
                    "time": 164.74221450000087,
                    "velocity": 0.5748031496062992,
                    "duration": 0.12027487500000689
                },
                {
                    "name": "E5",
                    "midi": 76,
                    "time": 164.84530725000087,
                    "velocity": 0.5590551181102362,
                    "duration": 0.12027487500000689
                },
                {
                    "name": "C#6",
                    "midi": 85,
                    "time": 164.94840000000087,
                    "velocity": 0.5748031496062992,
                    "duration": 0.41237100000000737
                },
                {
                    "name": "A#5",
                    "midi": 82,
                    "time": 164.94840000000087,
                    "velocity": 0.5748031496062992,
                    "duration": 0.41237100000000737
                },
                {
                    "name": "G5",
                    "midi": 79,
                    "time": 164.94840000000087,
                    "velocity": 0.5748031496062992,
                    "duration": 0.41237100000000737
                },
                {
                    "name": "G6",
                    "midi": 91,
                    "time": 164.94840000000087,
                    "velocity": 0.6850393700787402,
                    "duration": 0.41237100000000737
                },
                {
                    "name": "C#5",
                    "midi": 73,
                    "time": 165.36077100000088,
                    "velocity": 0.47244094488188976,
                    "duration": 0.20618550000000369
                },
                {
                    "name": "A#4",
                    "midi": 70,
                    "time": 165.36077100000088,
                    "velocity": 0.47244094488188976,
                    "duration": 0.20618550000000369
                },
                {
                    "name": "G4",
                    "midi": 67,
                    "time": 165.36077100000088,
                    "velocity": 0.47244094488188976,
                    "duration": 0.20618550000000369
                },
                {
                    "name": "G5",
                    "midi": 79,
                    "time": 165.36077100000088,
                    "velocity": 0.5669291338582677,
                    "duration": 0.20618550000000369
                },
                {
                    "name": "C#5",
                    "midi": 73,
                    "time": 165.56695650000088,
                    "velocity": 0.47244094488188976,
                    "duration": 0.20618550000000369
                },
                {
                    "name": "A#4",
                    "midi": 70,
                    "time": 165.56695650000088,
                    "velocity": 0.47244094488188976,
                    "duration": 0.20618550000000369
                },
                {
                    "name": "G4",
                    "midi": 67,
                    "time": 165.56695650000088,
                    "velocity": 0.47244094488188976,
                    "duration": 0.20618550000000369
                },
                {
                    "name": "G5",
                    "midi": 79,
                    "time": 165.56695650000088,
                    "velocity": 0.5669291338582677,
                    "duration": 0.20618550000000369
                },
                {
                    "name": "D6",
                    "midi": 86,
                    "time": 165.7731420000009,
                    "velocity": 0.5669291338582677,
                    "duration": 0.41237100000000737
                },
                {
                    "name": "B5",
                    "midi": 83,
                    "time": 165.7731420000009,
                    "velocity": 0.5669291338582677,
                    "duration": 0.41237100000000737
                },
                {
                    "name": "G#5",
                    "midi": 80,
                    "time": 165.7731420000009,
                    "velocity": 0.5669291338582677,
                    "duration": 0.41237100000000737
                },
                {
                    "name": "G#6",
                    "midi": 92,
                    "time": 165.7731420000009,
                    "velocity": 0.6771653543307087,
                    "duration": 0.41237100000000737
                },
                {
                    "name": "D5",
                    "midi": 74,
                    "time": 166.1855130000009,
                    "velocity": 0.4881889763779528,
                    "duration": 0.20618550000000369
                },
                {
                    "name": "B4",
                    "midi": 71,
                    "time": 166.1855130000009,
                    "velocity": 0.4881889763779528,
                    "duration": 0.20618550000000369
                },
                {
                    "name": "G#4",
                    "midi": 68,
                    "time": 166.1855130000009,
                    "velocity": 0.4881889763779528,
                    "duration": 0.20618550000000369
                },
                {
                    "name": "G#5",
                    "midi": 80,
                    "time": 166.1855130000009,
                    "velocity": 0.5748031496062992,
                    "duration": 0.20618550000000369
                },
                {
                    "name": "D5",
                    "midi": 74,
                    "time": 166.3916985000009,
                    "velocity": 0.49606299212598426,
                    "duration": 0.20618550000000369
                },
                {
                    "name": "B4",
                    "midi": 71,
                    "time": 166.3916985000009,
                    "velocity": 0.49606299212598426,
                    "duration": 0.20618550000000369
                },
                {
                    "name": "G#4",
                    "midi": 68,
                    "time": 166.3916985000009,
                    "velocity": 0.49606299212598426,
                    "duration": 0.20618550000000369
                },
                {
                    "name": "G#5",
                    "midi": 80,
                    "time": 166.3916985000009,
                    "velocity": 0.5826771653543307,
                    "duration": 0.20618550000000369
                },
                {
                    "name": "D#6",
                    "midi": 87,
                    "time": 166.5978840000009,
                    "velocity": 0.5748031496062992,
                    "duration": 0.41237100000000737
                },
                {
                    "name": "C6",
                    "midi": 84,
                    "time": 166.5978840000009,
                    "velocity": 0.5748031496062992,
                    "duration": 0.41237100000000737
                },
                {
                    "name": "A5",
                    "midi": 81,
                    "time": 166.5978840000009,
                    "velocity": 0.5748031496062992,
                    "duration": 0.41237100000000737
                },
                {
                    "name": "A6",
                    "midi": 93,
                    "time": 166.5978840000009,
                    "velocity": 0.6850393700787402,
                    "duration": 0.41237100000000737
                },
                {
                    "name": "D#5",
                    "midi": 75,
                    "time": 167.0102550000009,
                    "velocity": 0.47244094488188976,
                    "duration": 0.20618550000000369
                },
                {
                    "name": "C5",
                    "midi": 72,
                    "time": 167.0102550000009,
                    "velocity": 0.47244094488188976,
                    "duration": 0.20618550000000369
                },
                {
                    "name": "A4",
                    "midi": 69,
                    "time": 167.0102550000009,
                    "velocity": 0.47244094488188976,
                    "duration": 0.20618550000000369
                },
                {
                    "name": "A5",
                    "midi": 81,
                    "time": 167.0102550000009,
                    "velocity": 0.5669291338582677,
                    "duration": 0.20618550000000369
                },
                {
                    "name": "D#5",
                    "midi": 75,
                    "time": 167.2164405000009,
                    "velocity": 0.47244094488188976,
                    "duration": 0.20618550000000369
                },
                {
                    "name": "C5",
                    "midi": 72,
                    "time": 167.2164405000009,
                    "velocity": 0.47244094488188976,
                    "duration": 0.20618550000000369
                },
                {
                    "name": "A4",
                    "midi": 69,
                    "time": 167.2164405000009,
                    "velocity": 0.47244094488188976,
                    "duration": 0.20618550000000369
                },
                {
                    "name": "A5",
                    "midi": 81,
                    "time": 167.2164405000009,
                    "velocity": 0.5669291338582677,
                    "duration": 0.20618550000000369
                },
                {
                    "name": "E6",
                    "midi": 88,
                    "time": 167.42262600000092,
                    "velocity": 0.5826771653543307,
                    "duration": 0.41237100000000737
                },
                {
                    "name": "C#6",
                    "midi": 85,
                    "time": 167.42262600000092,
                    "velocity": 0.5826771653543307,
                    "duration": 0.41237100000000737
                },
                {
                    "name": "A#5",
                    "midi": 82,
                    "time": 167.42262600000092,
                    "velocity": 0.5826771653543307,
                    "duration": 0.41237100000000737
                },
                {
                    "name": "A#6",
                    "midi": 94,
                    "time": 167.42262600000092,
                    "velocity": 0.6929133858267716,
                    "duration": 0.41237100000000737
                },
                {
                    "name": "E5",
                    "midi": 76,
                    "time": 167.83499700000093,
                    "velocity": 0.49606299212598426,
                    "duration": 0.20618550000000369
                },
                {
                    "name": "C#5",
                    "midi": 73,
                    "time": 167.83499700000093,
                    "velocity": 0.49606299212598426,
                    "duration": 0.20618550000000369
                },
                {
                    "name": "A#4",
                    "midi": 70,
                    "time": 167.83499700000093,
                    "velocity": 0.49606299212598426,
                    "duration": 0.20618550000000369
                },
                {
                    "name": "A#5",
                    "midi": 82,
                    "time": 167.83499700000093,
                    "velocity": 0.5826771653543307,
                    "duration": 0.20618550000000369
                },
                {
                    "name": "E5",
                    "midi": 76,
                    "time": 168.04118250000093,
                    "velocity": 0.5039370078740157,
                    "duration": 0.20618550000000369
                },
                {
                    "name": "C#5",
                    "midi": 73,
                    "time": 168.04118250000093,
                    "velocity": 0.5039370078740157,
                    "duration": 0.20618550000000369
                },
                {
                    "name": "A#4",
                    "midi": 70,
                    "time": 168.04118250000093,
                    "velocity": 0.5039370078740157,
                    "duration": 0.20618550000000369
                },
                {
                    "name": "A#5",
                    "midi": 82,
                    "time": 168.04118250000093,
                    "velocity": 0.5905511811023622,
                    "duration": 0.20618550000000369
                },
                {
                    "name": "F5",
                    "midi": 77,
                    "time": 168.24736800000093,
                    "velocity": 0.5590551181102362,
                    "duration": 0.41237100000000737
                },
                {
                    "name": "D5",
                    "midi": 74,
                    "time": 168.24736800000093,
                    "velocity": 0.5590551181102362,
                    "duration": 0.41237100000000737
                },
                {
                    "name": "B4",
                    "midi": 71,
                    "time": 168.24736800000093,
                    "velocity": 0.5590551181102362,
                    "duration": 0.41237100000000737
                },
                {
                    "name": "B5",
                    "midi": 83,
                    "time": 168.24736800000093,
                    "velocity": 0.6692913385826772,
                    "duration": 0.41237100000000737
                },
                {
                    "name": "F#5",
                    "midi": 78,
                    "time": 168.65973900000094,
                    "velocity": 0.48031496062992124,
                    "duration": 0.20618550000000369
                },
                {
                    "name": "D#5",
                    "midi": 75,
                    "time": 168.65973900000094,
                    "velocity": 0.48031496062992124,
                    "duration": 0.20618550000000369
                },
                {
                    "name": "C5",
                    "midi": 72,
                    "time": 168.65973900000094,
                    "velocity": 0.48031496062992124,
                    "duration": 0.20618550000000369
                },
                {
                    "name": "C6",
                    "midi": 84,
                    "time": 168.65973900000094,
                    "velocity": 0.5748031496062992,
                    "duration": 0.20618550000000369
                },
                {
                    "name": "D#5",
                    "midi": 75,
                    "time": 168.86592450000094,
                    "velocity": 0.49606299212598426,
                    "duration": 0.20618550000000369
                },
                {
                    "name": "F#5",
                    "midi": 78,
                    "time": 168.86592450000094,
                    "velocity": 0.49606299212598426,
                    "duration": 0.20618550000000369
                },
                {
                    "name": "C5",
                    "midi": 72,
                    "time": 168.86592450000094,
                    "velocity": 0.49606299212598426,
                    "duration": 0.20618550000000369
                },
                {
                    "name": "C6",
                    "midi": 84,
                    "time": 168.86592450000094,
                    "velocity": 0.5905511811023622,
                    "duration": 0.20618550000000369
                },
                {
                    "name": "G5",
                    "midi": 79,
                    "time": 169.07211000000095,
                    "velocity": 0.5669291338582677,
                    "duration": 0.41237100000000737
                },
                {
                    "name": "E5",
                    "midi": 76,
                    "time": 169.07211000000095,
                    "velocity": 0.5669291338582677,
                    "duration": 0.41237100000000737
                },
                {
                    "name": "C#5",
                    "midi": 73,
                    "time": 169.07211000000095,
                    "velocity": 0.5669291338582677,
                    "duration": 0.41237100000000737
                },
                {
                    "name": "C#6",
                    "midi": 85,
                    "time": 169.07211000000095,
                    "velocity": 0.6771653543307087,
                    "duration": 0.41237100000000737
                },
                {
                    "name": "G#5",
                    "midi": 80,
                    "time": 169.48448100000095,
                    "velocity": 0.4881889763779528,
                    "duration": 0.20618550000000369
                },
                {
                    "name": "F5",
                    "midi": 77,
                    "time": 169.48448100000095,
                    "velocity": 0.4881889763779528,
                    "duration": 0.20618550000000369
                },
                {
                    "name": "D5",
                    "midi": 74,
                    "time": 169.48448100000095,
                    "velocity": 0.4881889763779528,
                    "duration": 0.20618550000000369
                },
                {
                    "name": "D6",
                    "midi": 86,
                    "time": 169.48448100000095,
                    "velocity": 0.5748031496062992,
                    "duration": 0.20618550000000369
                },
                {
                    "name": "G#5",
                    "midi": 80,
                    "time": 169.69066650000096,
                    "velocity": 0.5039370078740157,
                    "duration": 0.20618550000000369
                },
                {
                    "name": "F5",
                    "midi": 77,
                    "time": 169.69066650000096,
                    "velocity": 0.5039370078740157,
                    "duration": 0.20618550000000369
                },
                {
                    "name": "D5",
                    "midi": 74,
                    "time": 169.69066650000096,
                    "velocity": 0.5039370078740157,
                    "duration": 0.20618550000000369
                },
                {
                    "name": "D6",
                    "midi": 86,
                    "time": 169.69066650000096,
                    "velocity": 0.5984251968503937,
                    "duration": 0.20618550000000369
                },
                {
                    "name": "D#5",
                    "midi": 75,
                    "time": 169.89685200000096,
                    "velocity": 0.5590551181102362,
                    "duration": 0.20618550000000369
                },
                {
                    "name": "F#5",
                    "midi": 78,
                    "time": 169.89685200000096,
                    "velocity": 0.5590551181102362,
                    "duration": 0.20618550000000369
                },
                {
                    "name": "A5",
                    "midi": 81,
                    "time": 169.89685200000096,
                    "velocity": 0.5590551181102362,
                    "duration": 0.20618550000000369
                },
                {
                    "name": "D#6",
                    "midi": 87,
                    "time": 169.89685200000096,
                    "velocity": 0.6456692913385826,
                    "duration": 0.20618550000000369
                },
                {
                    "name": "D#5",
                    "midi": 75,
                    "time": 170.10303750000097,
                    "velocity": 0.5590551181102362,
                    "duration": 0.20618550000000369
                },
                {
                    "name": "F#5",
                    "midi": 78,
                    "time": 170.10303750000097,
                    "velocity": 0.5590551181102362,
                    "duration": 0.20618550000000369
                },
                {
                    "name": "A5",
                    "midi": 81,
                    "time": 170.10303750000097,
                    "velocity": 0.5590551181102362,
                    "duration": 0.20618550000000369
                },
                {
                    "name": "D#6",
                    "midi": 87,
                    "time": 170.10303750000097,
                    "velocity": 0.6535433070866141,
                    "duration": 0.20618550000000369
                },
                {
                    "name": "E5",
                    "midi": 76,
                    "time": 170.30922300000097,
                    "velocity": 0.5748031496062992,
                    "duration": 0.20618550000000369
                },
                {
                    "name": "G5",
                    "midi": 79,
                    "time": 170.30922300000097,
                    "velocity": 0.5748031496062992,
                    "duration": 0.20618550000000369
                },
                {
                    "name": "A#5",
                    "midi": 82,
                    "time": 170.30922300000097,
                    "velocity": 0.5748031496062992,
                    "duration": 0.20618550000000369
                },
                {
                    "name": "E6",
                    "midi": 88,
                    "time": 170.30922300000097,
                    "velocity": 0.6614173228346457,
                    "duration": 0.20618550000000369
                },
                {
                    "name": "E5",
                    "midi": 76,
                    "time": 170.51540850000097,
                    "velocity": 0.5826771653543307,
                    "duration": 0.20618550000000369
                },
                {
                    "name": "G5",
                    "midi": 79,
                    "time": 170.51540850000097,
                    "velocity": 0.5826771653543307,
                    "duration": 0.20618550000000369
                },
                {
                    "name": "A#5",
                    "midi": 82,
                    "time": 170.51540850000097,
                    "velocity": 0.5826771653543307,
                    "duration": 0.20618550000000369
                },
                {
                    "name": "E6",
                    "midi": 88,
                    "time": 170.51540850000097,
                    "velocity": 0.6771653543307087,
                    "duration": 0.20618550000000369
                },
                {
                    "name": "F5",
                    "midi": 77,
                    "time": 170.72159400000098,
                    "velocity": 0.5905511811023622,
                    "duration": 0.20618550000000369
                },
                {
                    "name": "G#5",
                    "midi": 80,
                    "time": 170.72159400000098,
                    "velocity": 0.5905511811023622,
                    "duration": 0.20618550000000369
                },
                {
                    "name": "B5",
                    "midi": 83,
                    "time": 170.72159400000098,
                    "velocity": 0.5905511811023622,
                    "duration": 0.20618550000000369
                },
                {
                    "name": "F6",
                    "midi": 89,
                    "time": 170.72159400000098,
                    "velocity": 0.6850393700787402,
                    "duration": 0.20618550000000369
                },
                {
                    "name": "F5",
                    "midi": 77,
                    "time": 170.92777950000098,
                    "velocity": 0.5984251968503937,
                    "duration": 0.20618550000000369
                },
                {
                    "name": "G#5",
                    "midi": 80,
                    "time": 170.92777950000098,
                    "velocity": 0.5984251968503937,
                    "duration": 0.20618550000000369
                },
                {
                    "name": "B5",
                    "midi": 83,
                    "time": 170.92777950000098,
                    "velocity": 0.5984251968503937,
                    "duration": 0.20618550000000369
                },
                {
                    "name": "F6",
                    "midi": 89,
                    "time": 170.92777950000098,
                    "velocity": 0.7007874015748031,
                    "duration": 0.20618550000000369
                },
                {
                    "name": "F5",
                    "midi": 77,
                    "time": 171.13396500000098,
                    "velocity": 0.6141732283464567,
                    "duration": 0.20618550000000369
                },
                {
                    "name": "G#5",
                    "midi": 80,
                    "time": 171.13396500000098,
                    "velocity": 0.6141732283464567,
                    "duration": 0.20618550000000369
                },
                {
                    "name": "B5",
                    "midi": 83,
                    "time": 171.13396500000098,
                    "velocity": 0.6141732283464567,
                    "duration": 0.20618550000000369
                },
                {
                    "name": "F6",
                    "midi": 89,
                    "time": 171.13396500000098,
                    "velocity": 0.7086614173228346,
                    "duration": 0.20618550000000369
                },
                {
                    "name": "F5",
                    "midi": 77,
                    "time": 171.340150500001,
                    "velocity": 0.6220472440944882,
                    "duration": 0.20618550000000369
                },
                {
                    "name": "G#5",
                    "midi": 80,
                    "time": 171.340150500001,
                    "velocity": 0.6220472440944882,
                    "duration": 0.20618550000000369
                },
                {
                    "name": "B5",
                    "midi": 83,
                    "time": 171.340150500001,
                    "velocity": 0.6220472440944882,
                    "duration": 0.20618550000000369
                },
                {
                    "name": "F6",
                    "midi": 89,
                    "time": 171.340150500001,
                    "velocity": 0.7244094488188977,
                    "duration": 0.20618550000000369
                },
                {
                    "name": "F5",
                    "midi": 77,
                    "time": 171.546336000001,
                    "velocity": 0.6692913385826772,
                    "duration": 0.41237100000000737
                },
                {
                    "name": "B5",
                    "midi": 83,
                    "time": 171.546336000001,
                    "velocity": 0.6692913385826772,
                    "duration": 0.41237100000000737
                },
                {
                    "name": "D6",
                    "midi": 86,
                    "time": 171.546336000001,
                    "velocity": 0.6692913385826772,
                    "duration": 0.41237100000000737
                },
                {
                    "name": "F6",
                    "midi": 89,
                    "time": 171.546336000001,
                    "velocity": 0.7716535433070866,
                    "duration": 0.41237100000000737
                },
                {
                    "name": "E5",
                    "midi": 76,
                    "time": 172.371078000001,
                    "velocity": 0.6692913385826772,
                    "duration": 0.41237100000000737
                },
                {
                    "name": "A5",
                    "midi": 81,
                    "time": 172.371078000001,
                    "velocity": 0.6692913385826772,
                    "duration": 0.41237100000000737
                },
                {
                    "name": "C6",
                    "midi": 84,
                    "time": 172.371078000001,
                    "velocity": 0.6692913385826772,
                    "duration": 0.41237100000000737
                },
                {
                    "name": "E6",
                    "midi": 88,
                    "time": 172.371078000001,
                    "velocity": 0.7716535433070866,
                    "duration": 0.41237100000000737
                },
                {
                    "name": "D5",
                    "midi": 74,
                    "time": 173.19582000000102,
                    "velocity": 0.6692913385826772,
                    "duration": 0.41237100000000737
                },
                {
                    "name": "A5",
                    "midi": 81,
                    "time": 173.19582000000102,
                    "velocity": 0.6692913385826772,
                    "duration": 0.41237100000000737
                },
                {
                    "name": "C6",
                    "midi": 84,
                    "time": 173.19582000000102,
                    "velocity": 0.6692913385826772,
                    "duration": 0.41237100000000737
                },
                {
                    "name": "D6",
                    "midi": 86,
                    "time": 173.19582000000102,
                    "velocity": 0.7716535433070866,
                    "duration": 0.41237100000000737
                },
                {
                    "name": "D5",
                    "midi": 74,
                    "time": 174.02056200000104,
                    "velocity": 0.6692913385826772,
                    "duration": 0.41237100000000737
                },
                {
                    "name": "G5",
                    "midi": 79,
                    "time": 174.02056200000104,
                    "velocity": 0.6692913385826772,
                    "duration": 0.41237100000000737
                },
                {
                    "name": "B5",
                    "midi": 83,
                    "time": 174.02056200000104,
                    "velocity": 0.6692913385826772,
                    "duration": 0.41237100000000737
                },
                {
                    "name": "D6",
                    "midi": 86,
                    "time": 174.02056200000104,
                    "velocity": 0.7716535433070866,
                    "duration": 0.41237100000000737
                },
                {
                    "name": "E3",
                    "midi": 52,
                    "time": 174.84530400000105,
                    "velocity": 0.3937007874015748,
                    "duration": 0.10309275000000184
                },
                {
                    "name": "E4",
                    "midi": 64,
                    "time": 174.94839675000105,
                    "velocity": 0.25196850393700787,
                    "duration": 0.10309275000000184
                },
                {
                    "name": "C4",
                    "midi": 60,
                    "time": 175.05148950000105,
                    "velocity": 0.25196850393700787,
                    "duration": 0.10309275000000184
                },
                {
                    "name": "G3",
                    "midi": 55,
                    "time": 175.05148950000105,
                    "velocity": 0.25196850393700787,
                    "duration": 0.10309275000000184
                },
                {
                    "name": "E4",
                    "midi": 64,
                    "time": 175.15458225000106,
                    "velocity": 0.25196850393700787,
                    "duration": 0.10309275000000184
                },
                {
                    "name": "F#3",
                    "midi": 54,
                    "time": 175.25767500000106,
                    "velocity": 0.3937007874015748,
                    "duration": 0.10309275000000184
                },
                {
                    "name": "F#4",
                    "midi": 66,
                    "time": 175.36076775000106,
                    "velocity": 0.25196850393700787,
                    "duration": 0.10309275000000184
                },
                {
                    "name": "C4",
                    "midi": 60,
                    "time": 175.46386050000106,
                    "velocity": 0.25196850393700787,
                    "duration": 0.10309275000000184
                },
                {
                    "name": "D#4",
                    "midi": 63,
                    "time": 175.46386050000106,
                    "velocity": 0.25196850393700787,
                    "duration": 0.10309275000000184
                },
                {
                    "name": "F#4",
                    "midi": 66,
                    "time": 175.56695325000106,
                    "velocity": 0.25196850393700787,
                    "duration": 0.10309275000000184
                },
                {
                    "name": "G3",
                    "midi": 55,
                    "time": 175.67004600000107,
                    "velocity": 0.4015748031496063,
                    "duration": 0.10309275000000184
                },
                {
                    "name": "G4",
                    "midi": 67,
                    "time": 175.77313875000107,
                    "velocity": 0.25196850393700787,
                    "duration": 0.10309275000000184
                },
                {
                    "name": "C4",
                    "midi": 60,
                    "time": 175.87623150000107,
                    "velocity": 0.25196850393700787,
                    "duration": 0.10309275000000184
                },
                {
                    "name": "E4",
                    "midi": 64,
                    "time": 175.87623150000107,
                    "velocity": 0.25196850393700787,
                    "duration": 0.10309275000000184
                },
                {
                    "name": "G4",
                    "midi": 67,
                    "time": 175.97932425000107,
                    "velocity": 0.25196850393700787,
                    "duration": 0.10309275000000184
                },
                {
                    "name": "G3",
                    "midi": 55,
                    "time": 176.08241700000107,
                    "velocity": 0.3937007874015748,
                    "duration": 0.10309275000000184
                },
                {
                    "name": "G4",
                    "midi": 67,
                    "time": 176.18550975000107,
                    "velocity": 0.25984251968503935,
                    "duration": 0.10309275000000184
                },
                {
                    "name": "B3",
                    "midi": 59,
                    "time": 176.28860250000108,
                    "velocity": 0.25984251968503935,
                    "duration": 0.10309275000000184
                },
                {
                    "name": "D4",
                    "midi": 62,
                    "time": 176.28860250000108,
                    "velocity": 0.25984251968503935,
                    "duration": 0.10309275000000184
                },
                {
                    "name": "G4",
                    "midi": 67,
                    "time": 176.39169525000108,
                    "velocity": 0.25984251968503935,
                    "duration": 0.10309275000000184
                },
                {
                    "name": "C4",
                    "midi": 60,
                    "time": 176.49478800000108,
                    "velocity": 0.4645669291338583,
                    "duration": 0.10309275000000184
                },
                {
                    "name": "C5",
                    "midi": 72,
                    "time": 176.59788075000108,
                    "velocity": 0.25984251968503935,
                    "duration": 0.10309275000000184
                },
                {
                    "name": "G4",
                    "midi": 67,
                    "time": 176.70097350000108,
                    "velocity": 0.25984251968503935,
                    "duration": 0.10309275000000184
                },
                {
                    "name": "E4",
                    "midi": 64,
                    "time": 176.70097350000108,
                    "velocity": 0.25984251968503935,
                    "duration": 0.10309275000000184
                },
                {
                    "name": "C5",
                    "midi": 72,
                    "time": 176.80406625000109,
                    "velocity": 0.25984251968503935,
                    "duration": 0.10309275000000184
                },
                {
                    "name": "C4",
                    "midi": 60,
                    "time": 176.9071590000011,
                    "velocity": 0.4330708661417323,
                    "duration": 0.10309275000000184
                },
                {
                    "name": "C5",
                    "midi": 72,
                    "time": 177.0102517500011,
                    "velocity": 0.25984251968503935,
                    "duration": 0.10309275000000184
                },
                {
                    "name": "D#4",
                    "midi": 63,
                    "time": 177.1133445000011,
                    "velocity": 0.25984251968503935,
                    "duration": 0.10309275000000184
                },
                {
                    "name": "F#4",
                    "midi": 66,
                    "time": 177.1133445000011,
                    "velocity": 0.25984251968503935,
                    "duration": 0.10309275000000184
                },
                {
                    "name": "C5",
                    "midi": 72,
                    "time": 177.2164372500011,
                    "velocity": 0.2677165354330709,
                    "duration": 0.10309275000000184
                },
                {
                    "name": "C4",
                    "midi": 60,
                    "time": 177.3195300000011,
                    "velocity": 0.4330708661417323,
                    "duration": 0.10309275000000184
                },
                {
                    "name": "C5",
                    "midi": 72,
                    "time": 177.4226227500011,
                    "velocity": 0.2677165354330709,
                    "duration": 0.10309275000000184
                },
                {
                    "name": "E4",
                    "midi": 64,
                    "time": 177.5257155000011,
                    "velocity": 0.2677165354330709,
                    "duration": 0.10309275000000184
                },
                {
                    "name": "G4",
                    "midi": 67,
                    "time": 177.5257155000011,
                    "velocity": 0.2677165354330709,
                    "duration": 0.10309275000000184
                },
                {
                    "name": "C5",
                    "midi": 72,
                    "time": 177.6288082500011,
                    "velocity": 0.2677165354330709,
                    "duration": 0.10309275000000184
                },
                {
                    "name": "B3",
                    "midi": 59,
                    "time": 177.7319010000011,
                    "velocity": 0.41732283464566927,
                    "duration": 0.10309275000000184
                },
                {
                    "name": "B4",
                    "midi": 71,
                    "time": 177.8349937500011,
                    "velocity": 0.2677165354330709,
                    "duration": 0.10309275000000184
                },
                {
                    "name": "D4",
                    "midi": 62,
                    "time": 177.9380865000011,
                    "velocity": 0.2677165354330709,
                    "duration": 0.10309275000000184
                },
                {
                    "name": "G4",
                    "midi": 67,
                    "time": 177.9380865000011,
                    "velocity": 0.2677165354330709,
                    "duration": 0.10309275000000184
                },
                {
                    "name": "B4",
                    "midi": 71,
                    "time": 178.0411792500011,
                    "velocity": 0.2677165354330709,
                    "duration": 0.10309275000000184
                },
                {
                    "name": "E4",
                    "midi": 64,
                    "time": 178.1442720000011,
                    "velocity": 0.48031496062992124,
                    "duration": 0.10309275000000184
                },
                {
                    "name": "E5",
                    "midi": 76,
                    "time": 178.2473647500011,
                    "velocity": 0.3228346456692913,
                    "duration": 0.10309275000000184
                },
                {
                    "name": "C5",
                    "midi": 72,
                    "time": 178.3504575000011,
                    "velocity": 0.3228346456692913,
                    "duration": 0.10309275000000184
                },
                {
                    "name": "G4",
                    "midi": 67,
                    "time": 178.3504575000011,
                    "velocity": 0.3228346456692913,
                    "duration": 0.10309275000000184
                },
                {
                    "name": "E5",
                    "midi": 76,
                    "time": 178.45355025000111,
                    "velocity": 0.3228346456692913,
                    "duration": 0.10309275000000184
                },
                {
                    "name": "F#4",
                    "midi": 66,
                    "time": 178.55664300000112,
                    "velocity": 0.49606299212598426,
                    "duration": 0.10309275000000184
                },
                {
                    "name": "F#5",
                    "midi": 78,
                    "time": 178.65973575000112,
                    "velocity": 0.33070866141732286,
                    "duration": 0.10309275000000184
                },
                {
                    "name": "C5",
                    "midi": 72,
                    "time": 178.76282850000112,
                    "velocity": 0.33070866141732286,
                    "duration": 0.10309275000000184
                },
                {
                    "name": "D#5",
                    "midi": 75,
                    "time": 178.76282850000112,
                    "velocity": 0.33070866141732286,
                    "duration": 0.10309275000000184
                },
                {
                    "name": "F#5",
                    "midi": 78,
                    "time": 178.86592125000112,
                    "velocity": 0.33070866141732286,
                    "duration": 0.10309275000000184
                },
                {
                    "name": "G4",
                    "midi": 67,
                    "time": 178.96901400000112,
                    "velocity": 0.5196850393700787,
                    "duration": 0.10309275000000184
                },
                {
                    "name": "G5",
                    "midi": 79,
                    "time": 179.07210675000113,
                    "velocity": 0.33858267716535434,
                    "duration": 0.10309275000000184
                },
                {
                    "name": "C5",
                    "midi": 72,
                    "time": 179.17519950000113,
                    "velocity": 0.33858267716535434,
                    "duration": 0.10309275000000184
                },
                {
                    "name": "E5",
                    "midi": 76,
                    "time": 179.17519950000113,
                    "velocity": 0.33858267716535434,
                    "duration": 0.10309275000000184
                },
                {
                    "name": "G5",
                    "midi": 79,
                    "time": 179.27829225000113,
                    "velocity": 0.3464566929133858,
                    "duration": 0.10309275000000184
                },
                {
                    "name": "G4",
                    "midi": 67,
                    "time": 179.38138500000113,
                    "velocity": 0.5275590551181102,
                    "duration": 0.10309275000000184
                },
                {
                    "name": "G5",
                    "midi": 79,
                    "time": 179.48447775000113,
                    "velocity": 0.3464566929133858,
                    "duration": 0.10309275000000184
                },
                {
                    "name": "B4",
                    "midi": 71,
                    "time": 179.58757050000114,
                    "velocity": 0.3543307086614173,
                    "duration": 0.10309275000000184
                },
                {
                    "name": "D5",
                    "midi": 74,
                    "time": 179.58757050000114,
                    "velocity": 0.3543307086614173,
                    "duration": 0.10309275000000184
                },
                {
                    "name": "G5",
                    "midi": 79,
                    "time": 179.69066325000114,
                    "velocity": 0.36220472440944884,
                    "duration": 0.10309275000000184
                },
                {
                    "name": "C5",
                    "midi": 72,
                    "time": 179.79375600000114,
                    "velocity": 0.5748031496062992,
                    "duration": 0.10309275000000184
                },
                {
                    "name": "C6",
                    "midi": 84,
                    "time": 179.89684875000114,
                    "velocity": 0.3700787401574803,
                    "duration": 0.10309275000000184
                },
                {
                    "name": "G5",
                    "midi": 79,
                    "time": 179.99994150000114,
                    "velocity": 0.3700787401574803,
                    "duration": 0.10309275000000184
                },
                {
                    "name": "E5",
                    "midi": 76,
                    "time": 179.99994150000114,
                    "velocity": 0.3700787401574803,
                    "duration": 0.10309275000000184
                },
                {
                    "name": "C6",
                    "midi": 84,
                    "time": 180.10303425000114,
                    "velocity": 0.3700787401574803,
                    "duration": 0.10309275000000184
                },
                {
                    "name": "C5",
                    "midi": 72,
                    "time": 180.20612700000115,
                    "velocity": 0.5669291338582677,
                    "duration": 0.10309275000000184
                },
                {
                    "name": "C6",
                    "midi": 84,
                    "time": 180.30921975000115,
                    "velocity": 0.3779527559055118,
                    "duration": 0.10309275000000184
                },
                {
                    "name": "D#5",
                    "midi": 75,
                    "time": 180.41231250000115,
                    "velocity": 0.3779527559055118,
                    "duration": 0.10309275000000184
                },
                {
                    "name": "F#5",
                    "midi": 78,
                    "time": 180.41231250000115,
                    "velocity": 0.3779527559055118,
                    "duration": 0.10309275000000184
                },
                {
                    "name": "C6",
                    "midi": 84,
                    "time": 180.51540525000115,
                    "velocity": 0.3779527559055118,
                    "duration": 0.10309275000000184
                },
                {
                    "name": "C5",
                    "midi": 72,
                    "time": 180.61849800000115,
                    "velocity": 0.5826771653543307,
                    "duration": 0.10309275000000184
                },
                {
                    "name": "C6",
                    "midi": 84,
                    "time": 180.72159075000116,
                    "velocity": 0.3858267716535433,
                    "duration": 0.10309275000000184
                },
                {
                    "name": "E5",
                    "midi": 76,
                    "time": 180.82468350000116,
                    "velocity": 0.3858267716535433,
                    "duration": 0.10309275000000184
                },
                {
                    "name": "G5",
                    "midi": 79,
                    "time": 180.82468350000116,
                    "velocity": 0.3858267716535433,
                    "duration": 0.10309275000000184
                },
                {
                    "name": "C6",
                    "midi": 84,
                    "time": 180.92777625000116,
                    "velocity": 0.3937007874015748,
                    "duration": 0.10309275000000184
                },
                {
                    "name": "B4",
                    "midi": 71,
                    "time": 181.03086900000116,
                    "velocity": 0.5433070866141733,
                    "duration": 0.10309275000000184
                },
                {
                    "name": "B5",
                    "midi": 83,
                    "time": 181.13396175000116,
                    "velocity": 0.3937007874015748,
                    "duration": 0.10309275000000184
                },
                {
                    "name": "D5",
                    "midi": 74,
                    "time": 181.23705450000116,
                    "velocity": 0.4015748031496063,
                    "duration": 0.10309275000000184
                },
                {
                    "name": "G5",
                    "midi": 79,
                    "time": 181.23705450000116,
                    "velocity": 0.4015748031496063,
                    "duration": 0.10309275000000184
                },
                {
                    "name": "B5",
                    "midi": 83,
                    "time": 181.34014725000117,
                    "velocity": 0.4094488188976378,
                    "duration": 0.10309275000000184
                },
                {
                    "name": "E5",
                    "midi": 76,
                    "time": 181.44324000000117,
                    "velocity": 0.5590551181102362,
                    "duration": 0.10309275000000184
                },
                {
                    "name": "E6",
                    "midi": 88,
                    "time": 181.54633275000117,
                    "velocity": 0.3858267716535433,
                    "duration": 0.10309275000000184
                },
                {
                    "name": "C6",
                    "midi": 84,
                    "time": 181.64942550000117,
                    "velocity": 0.3858267716535433,
                    "duration": 0.10309275000000184
                },
                {
                    "name": "G5",
                    "midi": 79,
                    "time": 181.64942550000117,
                    "velocity": 0.3858267716535433,
                    "duration": 0.10309275000000184
                },
                {
                    "name": "E6",
                    "midi": 88,
                    "time": 181.75251825000117,
                    "velocity": 0.3937007874015748,
                    "duration": 0.10309275000000184
                },
                {
                    "name": "F#5",
                    "midi": 78,
                    "time": 181.85561100000118,
                    "velocity": 0.5669291338582677,
                    "duration": 0.10309275000000184
                },
                {
                    "name": "F#6",
                    "midi": 90,
                    "time": 181.95870375000118,
                    "velocity": 0.3937007874015748,
                    "duration": 0.10309275000000184
                },
                {
                    "name": "C6",
                    "midi": 84,
                    "time": 182.06179650000118,
                    "velocity": 0.3937007874015748,
                    "duration": 0.10309275000000184
                },
                {
                    "name": "D#6",
                    "midi": 87,
                    "time": 182.06179650000118,
                    "velocity": 0.3937007874015748,
                    "duration": 0.10309275000000184
                },
                {
                    "name": "F#6",
                    "midi": 90,
                    "time": 182.16488925000118,
                    "velocity": 0.3937007874015748,
                    "duration": 0.10309275000000184
                },
                {
                    "name": "G5",
                    "midi": 79,
                    "time": 182.26798200000118,
                    "velocity": 0.5826771653543307,
                    "duration": 0.10309275000000184
                },
                {
                    "name": "G6",
                    "midi": 91,
                    "time": 182.37107475000118,
                    "velocity": 0.4015748031496063,
                    "duration": 0.10309275000000184
                },
                {
                    "name": "C6",
                    "midi": 84,
                    "time": 182.4741675000012,
                    "velocity": 0.4015748031496063,
                    "duration": 0.10309275000000184
                },
                {
                    "name": "E6",
                    "midi": 88,
                    "time": 182.4741675000012,
                    "velocity": 0.4015748031496063,
                    "duration": 0.10309275000000184
                },
                {
                    "name": "G6",
                    "midi": 91,
                    "time": 182.5772602500012,
                    "velocity": 0.4094488188976378,
                    "duration": 0.10309275000000184
                },
                {
                    "name": "G5",
                    "midi": 79,
                    "time": 182.6803530000012,
                    "velocity": 0.5905511811023622,
                    "duration": 0.10309275000000184
                },
                {
                    "name": "G6",
                    "midi": 91,
                    "time": 182.7834457500012,
                    "velocity": 0.4094488188976378,
                    "duration": 0.10309275000000184
                },
                {
                    "name": "B5",
                    "midi": 83,
                    "time": 182.8865385000012,
                    "velocity": 0.41732283464566927,
                    "duration": 0.10309275000000184
                },
                {
                    "name": "D6",
                    "midi": 86,
                    "time": 182.8865385000012,
                    "velocity": 0.41732283464566927,
                    "duration": 0.10309275000000184
                },
                {
                    "name": "G6",
                    "midi": 91,
                    "time": 182.9896312500012,
                    "velocity": 0.4251968503937008,
                    "duration": 0.10309275000000184
                },
                {
                    "name": "G5",
                    "midi": 79,
                    "time": 183.0927240000012,
                    "velocity": 0.6220472440944882,
                    "duration": 0.10309275000000184
                },
                {
                    "name": "G6",
                    "midi": 91,
                    "time": 183.1958167500012,
                    "velocity": 0.47244094488188976,
                    "duration": 0.10309275000000184
                },
                {
                    "name": "E6",
                    "midi": 88,
                    "time": 183.2989095000012,
                    "velocity": 0.48031496062992124,
                    "duration": 0.10309275000000184
                },
                {
                    "name": "C6",
                    "midi": 84,
                    "time": 183.2989095000012,
                    "velocity": 0.48031496062992124,
                    "duration": 0.10309275000000184
                },
                {
                    "name": "G6",
                    "midi": 91,
                    "time": 183.4020022500012,
                    "velocity": 0.4881889763779528,
                    "duration": 0.10309275000000184
                },
                {
                    "name": "G5",
                    "midi": 79,
                    "time": 183.5050950000012,
                    "velocity": 0.6614173228346457,
                    "duration": 0.10309275000000184
                },
                {
                    "name": "G6",
                    "midi": 91,
                    "time": 183.6081877500012,
                    "velocity": 0.49606299212598426,
                    "duration": 0.10309275000000184
                },
                {
                    "name": "B5",
                    "midi": 83,
                    "time": 183.7112805000012,
                    "velocity": 0.49606299212598426,
                    "duration": 0.10309275000000184
                },
                {
                    "name": "D6",
                    "midi": 86,
                    "time": 183.7112805000012,
                    "velocity": 0.49606299212598426,
                    "duration": 0.10309275000000184
                },
                {
                    "name": "G6",
                    "midi": 91,
                    "time": 183.8143732500012,
                    "velocity": 0.5039370078740157,
                    "duration": 0.10309275000000184
                },
                {
                    "name": "G5",
                    "midi": 79,
                    "time": 183.9174660000012,
                    "velocity": 0.7086614173228346,
                    "duration": 0.10309275000000184
                },
                {
                    "name": "G6",
                    "midi": 91,
                    "time": 184.02055875000121,
                    "velocity": 0.5196850393700787,
                    "duration": 0.10309275000000184
                },
                {
                    "name": "C6",
                    "midi": 84,
                    "time": 184.12365150000122,
                    "velocity": 0.5275590551181102,
                    "duration": 0.10309275000000184
                },
                {
                    "name": "E6",
                    "midi": 88,
                    "time": 184.12365150000122,
                    "velocity": 0.5275590551181102,
                    "duration": 0.10309275000000184
                },
                {
                    "name": "G6",
                    "midi": 91,
                    "time": 184.22674425000122,
                    "velocity": 0.5433070866141733,
                    "duration": 0.10309275000000184
                },
                {
                    "name": "G5",
                    "midi": 79,
                    "time": 184.32983700000122,
                    "velocity": 0.7322834645669292,
                    "duration": 0.10309275000000184
                },
                {
                    "name": "G6",
                    "midi": 91,
                    "time": 184.43292975000122,
                    "velocity": 0.5511811023622047,
                    "duration": 0.10309275000000184
                },
                {
                    "name": "B5",
                    "midi": 83,
                    "time": 184.53602250000122,
                    "velocity": 0.5590551181102362,
                    "duration": 0.10309275000000184
                },
                {
                    "name": "D6",
                    "midi": 86,
                    "time": 184.53602250000122,
                    "velocity": 0.5590551181102362,
                    "duration": 0.10309275000000184
                },
                {
                    "name": "G6",
                    "midi": 91,
                    "time": 184.63911525000123,
                    "velocity": 0.5826771653543307,
                    "duration": 0.10309275000000184
                },
                {
                    "name": "E6",
                    "midi": 88,
                    "time": 184.74220800000123,
                    "velocity": 0.7637795275590551,
                    "duration": 0.10309275000000184
                },
                {
                    "name": "C6",
                    "midi": 84,
                    "time": 184.74220800000123,
                    "velocity": 0.6456692913385826,
                    "duration": 0.10309275000000184
                },
                {
                    "name": "G5",
                    "midi": 79,
                    "time": 184.74220800000123,
                    "velocity": 0.6456692913385826,
                    "duration": 0.10309275000000184
                },
                {
                    "name": "G6",
                    "midi": 91,
                    "time": 184.84530075000123,
                    "velocity": 0.7007874015748031,
                    "duration": 0.10309275000000184
                },
                {
                    "name": "D6",
                    "midi": 86,
                    "time": 184.94839350000123,
                    "velocity": 0.7716535433070866,
                    "duration": 0.10309275000000184
                },
                {
                    "name": "B5",
                    "midi": 83,
                    "time": 184.94839350000123,
                    "velocity": 0.6456692913385826,
                    "duration": 0.10309275000000184
                },
                {
                    "name": "G5",
                    "midi": 79,
                    "time": 184.94839350000123,
                    "velocity": 0.6456692913385826,
                    "duration": 0.10309275000000184
                },
                {
                    "name": "G6",
                    "midi": 91,
                    "time": 185.05148625000123,
                    "velocity": 0.7165354330708661,
                    "duration": 0.10309275000000184
                },
                {
                    "name": "E6",
                    "midi": 88,
                    "time": 185.15457900000123,
                    "velocity": 0.7795275590551181,
                    "duration": 0.10309275000000184
                },
                {
                    "name": "C6",
                    "midi": 84,
                    "time": 185.15457900000123,
                    "velocity": 0.6692913385826772,
                    "duration": 0.10309275000000184
                },
                {
                    "name": "G5",
                    "midi": 79,
                    "time": 185.15457900000123,
                    "velocity": 0.6692913385826772,
                    "duration": 0.10309275000000184
                },
                {
                    "name": "G6",
                    "midi": 91,
                    "time": 185.25767175000124,
                    "velocity": 0.7322834645669292,
                    "duration": 0.10309275000000184
                },
                {
                    "name": "D6",
                    "midi": 86,
                    "time": 185.36076450000124,
                    "velocity": 0.7952755905511811,
                    "duration": 0.10309275000000184
                },
                {
                    "name": "B5",
                    "midi": 83,
                    "time": 185.36076450000124,
                    "velocity": 0.6771653543307087,
                    "duration": 0.10309275000000184
                },
                {
                    "name": "G5",
                    "midi": 79,
                    "time": 185.36076450000124,
                    "velocity": 0.6771653543307087,
                    "duration": 0.10309275000000184
                },
                {
                    "name": "G6",
                    "midi": 91,
                    "time": 185.46385725000124,
                    "velocity": 0.7401574803149606,
                    "duration": 0.10309275000000184
                },
                {
                    "name": "E6",
                    "midi": 88,
                    "time": 185.56695000000124,
                    "velocity": 0.8110236220472441,
                    "duration": 0.10309275000000184
                },
                {
                    "name": "C6",
                    "midi": 84,
                    "time": 185.56695000000124,
                    "velocity": 0.6850393700787402,
                    "duration": 0.10309275000000184
                },
                {
                    "name": "G5",
                    "midi": 79,
                    "time": 185.56695000000124,
                    "velocity": 0.6850393700787402,
                    "duration": 0.10309275000000184
                },
                {
                    "name": "G6",
                    "midi": 91,
                    "time": 185.67004275000124,
                    "velocity": 0.7559055118110236,
                    "duration": 0.10309275000000184
                },
                {
                    "name": "D6",
                    "midi": 86,
                    "time": 185.77313550000125,
                    "velocity": 0.8267716535433071,
                    "duration": 0.10309275000000184
                },
                {
                    "name": "B5",
                    "midi": 83,
                    "time": 185.77313550000125,
                    "velocity": 0.7007874015748031,
                    "duration": 0.10309275000000184
                },
                {
                    "name": "G5",
                    "midi": 79,
                    "time": 185.77313550000125,
                    "velocity": 0.7007874015748031,
                    "duration": 0.10309275000000184
                },
                {
                    "name": "G6",
                    "midi": 91,
                    "time": 185.87622825000125,
                    "velocity": 0.7952755905511811,
                    "duration": 0.10309275000000184
                },
                {
                    "name": "E6",
                    "midi": 88,
                    "time": 185.97932100000125,
                    "velocity": 0.84251968503937,
                    "duration": 0.10309275000000184
                },
                {
                    "name": "C6",
                    "midi": 84,
                    "time": 185.97932100000125,
                    "velocity": 0.7086614173228346,
                    "duration": 0.10309275000000184
                },
                {
                    "name": "G5",
                    "midi": 79,
                    "time": 185.97932100000125,
                    "velocity": 0.7086614173228346,
                    "duration": 0.10309275000000184
                },
                {
                    "name": "G6",
                    "midi": 91,
                    "time": 186.08241375000125,
                    "velocity": 0.7795275590551181,
                    "duration": 0.10309275000000184
                },
                {
                    "name": "D6",
                    "midi": 86,
                    "time": 186.18550650000125,
                    "velocity": 0.8503937007874016,
                    "duration": 0.10309275000000184
                },
                {
                    "name": "B5",
                    "midi": 83,
                    "time": 186.18550650000125,
                    "velocity": 0.7165354330708661,
                    "duration": 0.10309275000000184
                },
                {
                    "name": "G5",
                    "midi": 79,
                    "time": 186.18550650000125,
                    "velocity": 0.7165354330708661,
                    "duration": 0.10309275000000184
                },
                {
                    "name": "G6",
                    "midi": 91,
                    "time": 186.28859925000125,
                    "velocity": 0.7874015748031497,
                    "duration": 0.10309275000000184
                },
                {
                    "name": "C5",
                    "midi": 72,
                    "time": 186.39169200000126,
                    "velocity": 0.6535433070866141,
                    "duration": 0.10309275000000184
                },
                {
                    "name": "E5",
                    "midi": 76,
                    "time": 186.39169200000126,
                    "velocity": 0.6535433070866141,
                    "duration": 0.10309275000000184
                },
                {
                    "name": "G5",
                    "midi": 79,
                    "time": 186.39169200000126,
                    "velocity": 0.7322834645669292,
                    "duration": 0.10309275000000184
                },
                {
                    "name": "C6",
                    "midi": 84,
                    "time": 186.39169200000126,
                    "velocity": 0.8661417322834646,
                    "duration": 0.10309275000000184
                },
                {
                    "name": "C6",
                    "midi": 84,
                    "time": 186.59787750000126,
                    "velocity": 0.6535433070866141,
                    "duration": 0.10309275000000184
                },
                {
                    "name": "G5",
                    "midi": 79,
                    "time": 186.70097025000126,
                    "velocity": 0.6377952755905512,
                    "duration": 0.10309275000000184
                },
                {
                    "name": "E5",
                    "midi": 76,
                    "time": 186.80406300000126,
                    "velocity": 0.6377952755905512,
                    "duration": 0.10309275000000184
                },
                {
                    "name": "C5",
                    "midi": 72,
                    "time": 186.90715575000127,
                    "velocity": 0.6299212598425197,
                    "duration": 0.10309275000000184
                },
                {
                    "name": "G4",
                    "midi": 67,
                    "time": 187.01024850000127,
                    "velocity": 0.6141732283464567,
                    "duration": 0.10309275000000184
                },
                {
                    "name": "E4",
                    "midi": 64,
                    "time": 187.11334125000127,
                    "velocity": 0.5984251968503937,
                    "duration": 0.10309275000000184
                },
                {
                    "name": "C4",
                    "midi": 60,
                    "time": 187.21643400000127,
                    "velocity": 0.5748031496062992,
                    "duration": 0.10309275000000184
                },
                {
                    "name": "G3",
                    "midi": 55,
                    "time": 187.31952675000127,
                    "velocity": 0.5826771653543307,
                    "duration": 0.10309275000000184
                },
                {
                    "name": "C4",
                    "midi": 60,
                    "time": 187.42261950000128,
                    "velocity": 0.5905511811023622,
                    "duration": 0.10309275000000184
                },
                {
                    "name": "E4",
                    "midi": 64,
                    "time": 187.52571225000128,
                    "velocity": 0.5984251968503937,
                    "duration": 0.10309275000000184
                },
                {
                    "name": "G4",
                    "midi": 67,
                    "time": 187.62880500000128,
                    "velocity": 0.6062992125984252,
                    "duration": 0.10309275000000184
                },
                {
                    "name": "C5",
                    "midi": 72,
                    "time": 187.73189775000128,
                    "velocity": 0.6141732283464567,
                    "duration": 0.10309275000000184
                },
                {
                    "name": "E5",
                    "midi": 76,
                    "time": 187.83499050000128,
                    "velocity": 0.6220472440944882,
                    "duration": 0.10309275000000184
                },
                {
                    "name": "G5",
                    "midi": 79,
                    "time": 187.93808325000128,
                    "velocity": 0.6299212598425197,
                    "duration": 0.10309275000000184
                },
                {
                    "name": "C5",
                    "midi": 72,
                    "time": 188.0411760000013,
                    "velocity": 0.6692913385826772,
                    "duration": 0.10309275000000184
                },
                {
                    "name": "E5",
                    "midi": 76,
                    "time": 188.0411760000013,
                    "velocity": 0.6692913385826772,
                    "duration": 0.10309275000000184
                },
                {
                    "name": "G5",
                    "midi": 79,
                    "time": 188.0411760000013,
                    "velocity": 0.6692913385826772,
                    "duration": 0.10309275000000184
                },
                {
                    "name": "C6",
                    "midi": 84,
                    "time": 188.0411760000013,
                    "velocity": 0.7952755905511811,
                    "duration": 0.10309275000000184
                },
                {
                    "name": "E6",
                    "midi": 88,
                    "time": 188.2473615000013,
                    "velocity": 0.6535433070866141,
                    "duration": 0.10309275000000184
                },
                {
                    "name": "C6",
                    "midi": 84,
                    "time": 188.3504542500013,
                    "velocity": 0.6377952755905512,
                    "duration": 0.10309275000000184
                },
                {
                    "name": "G5",
                    "midi": 79,
                    "time": 188.4535470000013,
                    "velocity": 0.6377952755905512,
                    "duration": 0.10309275000000184
                },
                {
                    "name": "E5",
                    "midi": 76,
                    "time": 188.5566397500013,
                    "velocity": 0.6299212598425197,
                    "duration": 0.10309275000000184
                },
                {
                    "name": "C5",
                    "midi": 72,
                    "time": 188.6597325000013,
                    "velocity": 0.6141732283464567,
                    "duration": 0.10309275000000184
                },
                {
                    "name": "G4",
                    "midi": 67,
                    "time": 188.7628252500013,
                    "velocity": 0.5984251968503937,
                    "duration": 0.10309275000000184
                },
                {
                    "name": "E4",
                    "midi": 64,
                    "time": 188.8659180000013,
                    "velocity": 0.5748031496062992,
                    "duration": 0.10309275000000184
                },
                {
                    "name": "C4",
                    "midi": 60,
                    "time": 188.9690107500013,
                    "velocity": 0.5826771653543307,
                    "duration": 0.10309275000000184
                },
                {
                    "name": "E4",
                    "midi": 64,
                    "time": 189.0721035000013,
                    "velocity": 0.5905511811023622,
                    "duration": 0.10309275000000184
                },
                {
                    "name": "G4",
                    "midi": 67,
                    "time": 189.1751962500013,
                    "velocity": 0.5984251968503937,
                    "duration": 0.10309275000000184
                },
                {
                    "name": "C5",
                    "midi": 72,
                    "time": 189.2782890000013,
                    "velocity": 0.6062992125984252,
                    "duration": 0.10309275000000184
                },
                {
                    "name": "E5",
                    "midi": 76,
                    "time": 189.3813817500013,
                    "velocity": 0.6141732283464567,
                    "duration": 0.10309275000000184
                },
                {
                    "name": "G5",
                    "midi": 79,
                    "time": 189.4844745000013,
                    "velocity": 0.6220472440944882,
                    "duration": 0.10309275000000184
                },
                {
                    "name": "C6",
                    "midi": 84,
                    "time": 189.5875672500013,
                    "velocity": 0.6299212598425197,
                    "duration": 0.10309275000000184
                },
                {
                    "name": "E5",
                    "midi": 76,
                    "time": 189.69066000000132,
                    "velocity": 0.6692913385826772,
                    "duration": 0.10309275000000184
                },
                {
                    "name": "G5",
                    "midi": 79,
                    "time": 189.69066000000132,
                    "velocity": 0.6692913385826772,
                    "duration": 0.10309275000000184
                },
                {
                    "name": "C6",
                    "midi": 84,
                    "time": 189.69066000000132,
                    "velocity": 0.6692913385826772,
                    "duration": 0.10309275000000184
                },
                {
                    "name": "E6",
                    "midi": 88,
                    "time": 189.69066000000132,
                    "velocity": 0.7952755905511811,
                    "duration": 0.10309275000000184
                },
                {
                    "name": "G6",
                    "midi": 91,
                    "time": 189.89684550000132,
                    "velocity": 0.6535433070866141,
                    "duration": 0.10309275000000184
                },
                {
                    "name": "E6",
                    "midi": 88,
                    "time": 189.99993825000132,
                    "velocity": 0.6377952755905512,
                    "duration": 0.10309275000000184
                },
                {
                    "name": "C6",
                    "midi": 84,
                    "time": 190.10303100000132,
                    "velocity": 0.6377952755905512,
                    "duration": 0.10309275000000184
                },
                {
                    "name": "G5",
                    "midi": 79,
                    "time": 190.20612375000132,
                    "velocity": 0.6299212598425197,
                    "duration": 0.10309275000000184
                },
                {
                    "name": "E5",
                    "midi": 76,
                    "time": 190.30921650000133,
                    "velocity": 0.6141732283464567,
                    "duration": 0.10309275000000184
                },
                {
                    "name": "C5",
                    "midi": 72,
                    "time": 190.41230925000133,
                    "velocity": 0.5984251968503937,
                    "duration": 0.10309275000000184
                },
                {
                    "name": "G4",
                    "midi": 67,
                    "time": 190.51540200000133,
                    "velocity": 0.5748031496062992,
                    "duration": 0.10309275000000184
                },
                {
                    "name": "E4",
                    "midi": 64,
                    "time": 190.61849475000133,
                    "velocity": 0.5826771653543307,
                    "duration": 0.10309275000000184
                },
                {
                    "name": "G4",
                    "midi": 67,
                    "time": 190.72158750000133,
                    "velocity": 0.5905511811023622,
                    "duration": 0.10309275000000184
                },
                {
                    "name": "C5",
                    "midi": 72,
                    "time": 190.82468025000134,
                    "velocity": 0.5984251968503937,
                    "duration": 0.10309275000000184
                },
                {
                    "name": "E5",
                    "midi": 76,
                    "time": 190.92777300000134,
                    "velocity": 0.6062992125984252,
                    "duration": 0.10309275000000184
                },
                {
                    "name": "G5",
                    "midi": 79,
                    "time": 191.03086575000134,
                    "velocity": 0.6141732283464567,
                    "duration": 0.10309275000000184
                },
                {
                    "name": "C6",
                    "midi": 84,
                    "time": 191.13395850000134,
                    "velocity": 0.6220472440944882,
                    "duration": 0.10309275000000184
                },
                {
                    "name": "E6",
                    "midi": 88,
                    "time": 191.23705125000134,
                    "velocity": 0.6299212598425197,
                    "duration": 0.10309275000000184
                },
                {
                    "name": "G5",
                    "midi": 79,
                    "time": 191.34014400000135,
                    "velocity": 0.6692913385826772,
                    "duration": 0.10309275000000184
                },
                {
                    "name": "C6",
                    "midi": 84,
                    "time": 191.34014400000135,
                    "velocity": 0.6692913385826772,
                    "duration": 0.10309275000000184
                },
                {
                    "name": "E6",
                    "midi": 88,
                    "time": 191.34014400000135,
                    "velocity": 0.6692913385826772,
                    "duration": 0.10309275000000184
                },
                {
                    "name": "G6",
                    "midi": 91,
                    "time": 191.34014400000135,
                    "velocity": 0.7952755905511811,
                    "duration": 0.10309275000000184
                },
                {
                    "name": "C7",
                    "midi": 96,
                    "time": 191.54632950000135,
                    "velocity": 0.6535433070866141,
                    "duration": 0.10309275000000184
                },
                {
                    "name": "G6",
                    "midi": 91,
                    "time": 191.64942225000135,
                    "velocity": 0.6377952755905512,
                    "duration": 0.10309275000000184
                },
                {
                    "name": "E6",
                    "midi": 88,
                    "time": 191.75251500000135,
                    "velocity": 0.6377952755905512,
                    "duration": 0.10309275000000184
                },
                {
                    "name": "C6",
                    "midi": 84,
                    "time": 191.85560775000135,
                    "velocity": 0.6299212598425197,
                    "duration": 0.10309275000000184
                },
                {
                    "name": "G5",
                    "midi": 79,
                    "time": 191.95870050000136,
                    "velocity": 0.6141732283464567,
                    "duration": 0.10309275000000184
                },
                {
                    "name": "E5",
                    "midi": 76,
                    "time": 192.06179325000136,
                    "velocity": 0.5984251968503937,
                    "duration": 0.10309275000000184
                },
                {
                    "name": "C5",
                    "midi": 72,
                    "time": 192.16488600000136,
                    "velocity": 0.5748031496062992,
                    "duration": 0.10309275000000184
                },
                {
                    "name": "G4",
                    "midi": 67,
                    "time": 192.26797875000136,
                    "velocity": 0.5826771653543307,
                    "duration": 0.10309275000000184
                },
                {
                    "name": "C5",
                    "midi": 72,
                    "time": 192.37107150000136,
                    "velocity": 0.5905511811023622,
                    "duration": 0.10309275000000184
                },
                {
                    "name": "E5",
                    "midi": 76,
                    "time": 192.47416425000137,
                    "velocity": 0.5984251968503937,
                    "duration": 0.10309275000000184
                },
                {
                    "name": "G5",
                    "midi": 79,
                    "time": 192.57725700000137,
                    "velocity": 0.6062992125984252,
                    "duration": 0.10309275000000184
                },
                {
                    "name": "C6",
                    "midi": 84,
                    "time": 192.68034975000137,
                    "velocity": 0.6141732283464567,
                    "duration": 0.10309275000000184
                },
                {
                    "name": "E6",
                    "midi": 88,
                    "time": 192.78344250000137,
                    "velocity": 0.6220472440944882,
                    "duration": 0.10309275000000184
                },
                {
                    "name": "G6",
                    "midi": 91,
                    "time": 192.88653525000137,
                    "velocity": 0.6299212598425197,
                    "duration": 0.10309275000000184
                },
                {
                    "name": "C6",
                    "midi": 84,
                    "time": 192.98962800000137,
                    "velocity": 0.6692913385826772,
                    "duration": 0.10309275000000184
                },
                {
                    "name": "E6",
                    "midi": 88,
                    "time": 192.98962800000137,
                    "velocity": 0.6692913385826772,
                    "duration": 0.10309275000000184
                },
                {
                    "name": "G6",
                    "midi": 91,
                    "time": 192.98962800000137,
                    "velocity": 0.6692913385826772,
                    "duration": 0.10309275000000184
                },
                {
                    "name": "C7",
                    "midi": 96,
                    "time": 192.98962800000137,
                    "velocity": 0.7952755905511811,
                    "duration": 0.10309275000000184
                },
                {
                    "name": "E7",
                    "midi": 100,
                    "time": 193.19581350000138,
                    "velocity": 0.7007874015748031,
                    "duration": 0.10309275000000184
                },
                {
                    "name": "C7",
                    "midi": 96,
                    "time": 193.29890625000138,
                    "velocity": 0.6850393700787402,
                    "duration": 0.10309275000000184
                },
                {
                    "name": "G6",
                    "midi": 91,
                    "time": 193.40199900000138,
                    "velocity": 0.6614173228346457,
                    "duration": 0.10309275000000184
                },
                {
                    "name": "E6",
                    "midi": 88,
                    "time": 193.50509175000138,
                    "velocity": 0.6377952755905512,
                    "duration": 0.10309275000000184
                },
                {
                    "name": "C6",
                    "midi": 84,
                    "time": 193.60818450000139,
                    "velocity": 0.6220472440944882,
                    "duration": 0.10309275000000184
                },
                {
                    "name": "G5",
                    "midi": 79,
                    "time": 193.7112772500014,
                    "velocity": 0.5984251968503937,
                    "duration": 0.10309275000000184
                },
                {
                    "name": "E5",
                    "midi": 76,
                    "time": 193.8143700000014,
                    "velocity": 0.5748031496062992,
                    "duration": 0.10309275000000184
                },
                {
                    "name": "C5",
                    "midi": 72,
                    "time": 193.9174627500014,
                    "velocity": 0.5826771653543307,
                    "duration": 0.10309275000000184
                },
                {
                    "name": "E5",
                    "midi": 76,
                    "time": 194.0205555000014,
                    "velocity": 0.5905511811023622,
                    "duration": 0.10309275000000184
                },
                {
                    "name": "G5",
                    "midi": 79,
                    "time": 194.1236482500014,
                    "velocity": 0.5984251968503937,
                    "duration": 0.10309275000000184
                },
                {
                    "name": "C6",
                    "midi": 84,
                    "time": 194.2267410000014,
                    "velocity": 0.6062992125984252,
                    "duration": 0.10309275000000184
                },
                {
                    "name": "E6",
                    "midi": 88,
                    "time": 194.3298337500014,
                    "velocity": 0.6141732283464567,
                    "duration": 0.10309275000000184
                },
                {
                    "name": "G6",
                    "midi": 91,
                    "time": 194.4329265000014,
                    "velocity": 0.6220472440944882,
                    "duration": 0.10309275000000184
                },
                {
                    "name": "C7",
                    "midi": 96,
                    "time": 194.5360192500014,
                    "velocity": 0.6299212598425197,
                    "duration": 0.10309275000000184
                },
                {
                    "name": "E6",
                    "midi": 88,
                    "time": 194.6391120000014,
                    "velocity": 0.6850393700787402,
                    "duration": 0.41237100000000737
                },
                {
                    "name": "G6",
                    "midi": 91,
                    "time": 194.6391120000014,
                    "velocity": 0.6850393700787402,
                    "duration": 0.41237100000000737
                },
                {
                    "name": "C7",
                    "midi": 96,
                    "time": 194.6391120000014,
                    "velocity": 0.6850393700787402,
                    "duration": 0.41237100000000737
                },
                {
                    "name": "E7",
                    "midi": 100,
                    "time": 194.6391120000014,
                    "velocity": 0.8110236220472441,
                    "duration": 0.41237100000000737
                },
                {
                    "name": "G5",
                    "midi": 79,
                    "time": 195.46385400000142,
                    "velocity": 0.7007874015748031,
                    "duration": 0.41237100000000737
                },
                {
                    "name": "B5",
                    "midi": 83,
                    "time": 195.46385400000142,
                    "velocity": 0.7007874015748031,
                    "duration": 0.41237100000000737
                },
                {
                    "name": "D6",
                    "midi": 86,
                    "time": 195.46385400000142,
                    "velocity": 0.7007874015748031,
                    "duration": 0.41237100000000737
                },
                {
                    "name": "G6",
                    "midi": 91,
                    "time": 195.46385400000142,
                    "velocity": 0.8346456692913385,
                    "duration": 0.41237100000000737
                },
                {
                    "name": "E5",
                    "midi": 76,
                    "time": 196.28859600000143,
                    "velocity": 0.7007874015748031,
                    "duration": 0.41237100000000737
                },
                {
                    "name": "G5",
                    "midi": 79,
                    "time": 196.28859600000143,
                    "velocity": 0.7007874015748031,
                    "duration": 0.41237100000000737
                },
                {
                    "name": "C6",
                    "midi": 84,
                    "time": 196.28859600000143,
                    "velocity": 0.7007874015748031,
                    "duration": 0.41237100000000737
                },
                {
                    "name": "E6",
                    "midi": 88,
                    "time": 196.28859600000143,
                    "velocity": 0.8346456692913385,
                    "duration": 0.41237100000000737
                },
                {
                    "name": "G5",
                    "midi": 79,
                    "time": 197.11333800000145,
                    "velocity": 0.7007874015748031,
                    "duration": 0.41237100000000737
                },
                {
                    "name": "B5",
                    "midi": 83,
                    "time": 197.11333800000145,
                    "velocity": 0.7007874015748031,
                    "duration": 0.41237100000000737
                },
                {
                    "name": "D6",
                    "midi": 86,
                    "time": 197.11333800000145,
                    "velocity": 0.7007874015748031,
                    "duration": 0.41237100000000737
                },
                {
                    "name": "G6",
                    "midi": 91,
                    "time": 197.11333800000145,
                    "velocity": 0.8346456692913385,
                    "duration": 0.41237100000000737
                },
                {
                    "name": "C5",
                    "midi": 72,
                    "time": 197.93808000000146,
                    "velocity": 0.4409448818897638,
                    "duration": 0.10309275000000184
                },
                {
                    "name": "C6",
                    "midi": 84,
                    "time": 198.04117275000146,
                    "velocity": 0.44881889763779526,
                    "duration": 0.10309275000000184
                },
                {
                    "name": "F#5",
                    "midi": 78,
                    "time": 198.14426550000147,
                    "velocity": 0.47244094488188976,
                    "duration": 0.10309275000000184
                },
                {
                    "name": "D#5",
                    "midi": 75,
                    "time": 198.14426550000147,
                    "velocity": 0.3937007874015748,
                    "duration": 0.10309275000000184
                },
                {
                    "name": "C5",
                    "midi": 72,
                    "time": 198.14426550000147,
                    "velocity": 0.3937007874015748,
                    "duration": 0.10309275000000184
                },
                {
                    "name": "C6",
                    "midi": 84,
                    "time": 198.24735825000147,
                    "velocity": 0.49606299212598426,
                    "duration": 0.10309275000000184
                },
                {
                    "name": "C5",
                    "midi": 72,
                    "time": 198.35045100000147,
                    "velocity": 0.4251968503937008,
                    "duration": 0.10309275000000184
                },
                {
                    "name": "E5",
                    "midi": 76,
                    "time": 198.35045100000147,
                    "velocity": 0.4251968503937008,
                    "duration": 0.10309275000000184
                },
                {
                    "name": "G5",
                    "midi": 79,
                    "time": 198.35045100000147,
                    "velocity": 0.5118110236220472,
                    "duration": 0.10309275000000184
                },
                {
                    "name": "C6",
                    "midi": 84,
                    "time": 198.45354375000147,
                    "velocity": 0.5275590551181102,
                    "duration": 0.10309275000000184
                },
                {
                    "name": "F#5",
                    "midi": 78,
                    "time": 198.55663650000147,
                    "velocity": 0.5511811023622047,
                    "duration": 0.10309275000000184
                },
                {
                    "name": "D#5",
                    "midi": 75,
                    "time": 198.55663650000147,
                    "velocity": 0.4645669291338583,
                    "duration": 0.10309275000000184
                },
                {
                    "name": "C5",
                    "midi": 72,
                    "time": 198.55663650000147,
                    "velocity": 0.4645669291338583,
                    "duration": 0.10309275000000184
                },
                {
                    "name": "C6",
                    "midi": 84,
                    "time": 198.65972925000148,
                    "velocity": 0.5669291338582677,
                    "duration": 0.10309275000000184
                },
                {
                    "name": "C5",
                    "midi": 72,
                    "time": 198.76282200000148,
                    "velocity": 0.4881889763779528,
                    "duration": 0.10309275000000184
                },
                {
                    "name": "E5",
                    "midi": 76,
                    "time": 198.76282200000148,
                    "velocity": 0.4881889763779528,
                    "duration": 0.10309275000000184
                },
                {
                    "name": "G5",
                    "midi": 79,
                    "time": 198.76282200000148,
                    "velocity": 0.5826771653543307,
                    "duration": 0.10309275000000184
                },
                {
                    "name": "C6",
                    "midi": 84,
                    "time": 198.86591475000148,
                    "velocity": 0.6062992125984252,
                    "duration": 0.10309275000000184
                },
                {
                    "name": "F#5",
                    "midi": 78,
                    "time": 198.96900750000148,
                    "velocity": 0.6299212598425197,
                    "duration": 0.10309275000000184
                },
                {
                    "name": "D#5",
                    "midi": 75,
                    "time": 198.96900750000148,
                    "velocity": 0.5275590551181102,
                    "duration": 0.10309275000000184
                },
                {
                    "name": "C5",
                    "midi": 72,
                    "time": 198.96900750000148,
                    "velocity": 0.5275590551181102,
                    "duration": 0.10309275000000184
                },
                {
                    "name": "C6",
                    "midi": 84,
                    "time": 199.07210025000148,
                    "velocity": 0.6535433070866141,
                    "duration": 0.10309275000000184
                },
                {
                    "name": "C5",
                    "midi": 72,
                    "time": 199.17519300000149,
                    "velocity": 0.5590551181102362,
                    "duration": 0.10309275000000184
                },
                {
                    "name": "E5",
                    "midi": 76,
                    "time": 199.17519300000149,
                    "velocity": 0.5590551181102362,
                    "duration": 0.10309275000000184
                },
                {
                    "name": "G5",
                    "midi": 79,
                    "time": 199.17519300000149,
                    "velocity": 0.6692913385826772,
                    "duration": 0.10309275000000184
                },
                {
                    "name": "C6",
                    "midi": 84,
                    "time": 199.2782857500015,
                    "velocity": 0.6456692913385826,
                    "duration": 0.10309275000000184
                },
                {
                    "name": "F#5",
                    "midi": 78,
                    "time": 199.3813785000015,
                    "velocity": 0.6299212598425197,
                    "duration": 0.10309275000000184
                },
                {
                    "name": "D#5",
                    "midi": 75,
                    "time": 199.3813785000015,
                    "velocity": 0.5354330708661418,
                    "duration": 0.10309275000000184
                },
                {
                    "name": "C5",
                    "midi": 72,
                    "time": 199.3813785000015,
                    "velocity": 0.5354330708661418,
                    "duration": 0.10309275000000184
                },
                {
                    "name": "C6",
                    "midi": 84,
                    "time": 199.4844712500015,
                    "velocity": 0.6141732283464567,
                    "duration": 0.10309275000000184
                },
                {
                    "name": "C5",
                    "midi": 72,
                    "time": 199.5875640000015,
                    "velocity": 0.6377952755905512,
                    "duration": 0.41237100000000737
                },
                {
                    "name": "E5",
                    "midi": 76,
                    "time": 199.5875640000015,
                    "velocity": 0.6377952755905512,
                    "duration": 0.41237100000000737
                },
                {
                    "name": "G5",
                    "midi": 79,
                    "time": 199.5875640000015,
                    "velocity": 0.6377952755905512,
                    "duration": 0.41237100000000737
                },
                {
                    "name": "C6",
                    "midi": 84,
                    "time": 199.5875640000015,
                    "velocity": 0.7637795275590551,
                    "duration": 0.41237100000000737
                },
                {
                    "name": "C6",
                    "midi": 84,
                    "time": 200.4123060000015,
                    "velocity": 0.7007874015748031,
                    "duration": 0.41237100000000737
                },
                {
                    "name": "E6",
                    "midi": 88,
                    "time": 200.4123060000015,
                    "velocity": 0.7007874015748031,
                    "duration": 0.41237100000000737
                },
                {
                    "name": "G6",
                    "midi": 91,
                    "time": 200.4123060000015,
                    "velocity": 0.7007874015748031,
                    "duration": 0.41237100000000737
                },
                {
                    "name": "C7",
                    "midi": 96,
                    "time": 200.4123060000015,
                    "velocity": 0.8346456692913385,
                    "duration": 0.41237100000000737
                },
                {
                    "name": "E3",
                    "midi": 52,
                    "time": 201.23704800000152,
                    "velocity": 0.7007874015748031,
                    "duration": 0.8247419999999863
                },
                {
                    "name": "G3",
                    "midi": 55,
                    "time": 201.23704800000152,
                    "velocity": 0.7007874015748031,
                    "duration": 0.8247419999999863
                },
                {
                    "name": "C4",
                    "midi": 60,
                    "time": 201.23704800000152,
                    "velocity": 0.8346456692913385,
                    "duration": 0.8247419999999863
                }
            ],
            "controlChanges": {
                "7": [
                    {
                        "number": 7,
                        "time": 0,
                        "value": 0.7874015748031497
                    }
                ],
                "10": [
                    {
                        "number": 10,
                        "time": 0,
                        "value": 0.5039370078740157
                    }
                ],
                "91": [
                    {
                        "number": 91,
                        "time": 0,
                        "value": 1
                    },
                    {
                        "number": 91,
                        "time": 3.298968,
                        "value": 1
                    },
                    {
                        "number": 91,
                        "time": 100.61852399999998,
                        "value": 1
                    },
                    {
                        "number": 91,
                        "time": 103.91749200000004,
                        "value": 1
                    },
                    {
                        "number": 91,
                        "time": 150.1030440000006,
                        "value": 1
                    },
                    {
                        "number": 91,
                        "time": 151.75252800000064,
                        "value": 1
                    },
                    {
                        "number": 91,
                        "time": 153.40201200000067,
                        "value": 1
                    },
                    {
                        "number": 91,
                        "time": 159.99994800000078,
                        "value": 1
                    },
                    {
                        "number": 91,
                        "time": 161.64943200000081,
                        "value": 1
                    },
                    {
                        "number": 91,
                        "time": 163.29891600000084,
                        "value": 1
                    }
                ]
            },
            "id": 1,
            "name": "Piano right",
            "instrumentNumber": 0,
            "instrument": "acoustic grand piano",
            "instrumentFamily": "piano",
            "channelNumber": 0,
            "isPercussion": false
        },
        {
            "startTime": 0,
            "duration": 202.06179000000046,
            "length": 1588,
            "notes": [
                {
                    "name": "C2",
                    "midi": 36,
                    "time": 0,
                    "velocity": 0.5590551181102362,
                    "duration": 0.412371
                },
                {
                    "name": "C3",
                    "midi": 48,
                    "time": 0,
                    "velocity": 0.6614173228346457,
                    "duration": 0.412371
                },
                {
                    "name": "C2",
                    "midi": 36,
                    "time": 0.412371,
                    "velocity": 0.5275590551181102,
                    "duration": 0.0773195625
                },
                {
                    "name": "C3",
                    "midi": 48,
                    "time": 0.412371,
                    "velocity": 0.6220472440944882,
                    "duration": 0.0773195625
                },
                {
                    "name": "C2",
                    "midi": 36,
                    "time": 0.6185565,
                    "velocity": 0.5275590551181102,
                    "duration": 0.07731956250000005
                },
                {
                    "name": "C3",
                    "midi": 48,
                    "time": 0.6185565,
                    "velocity": 0.6220472440944882,
                    "duration": 0.07731956250000005
                },
                {
                    "name": "C2",
                    "midi": 36,
                    "time": 0.824742,
                    "velocity": 0.5275590551181102,
                    "duration": 0.41237099999999993
                },
                {
                    "name": "C3",
                    "midi": 48,
                    "time": 0.824742,
                    "velocity": 0.6220472440944882,
                    "duration": 0.41237099999999993
                },
                {
                    "name": "C2",
                    "midi": 36,
                    "time": 1.237113,
                    "velocity": 0.5354330708661418,
                    "duration": 0.07731956250000005
                },
                {
                    "name": "C3",
                    "midi": 48,
                    "time": 1.237113,
                    "velocity": 0.6299212598425197,
                    "duration": 0.07731956250000005
                },
                {
                    "name": "C2",
                    "midi": 36,
                    "time": 1.4432985,
                    "velocity": 0.5433070866141733,
                    "duration": 0.07731956250000005
                },
                {
                    "name": "C3",
                    "midi": 48,
                    "time": 1.4432985,
                    "velocity": 0.6377952755905512,
                    "duration": 0.07731956250000005
                },
                {
                    "name": "C#2",
                    "midi": 37,
                    "time": 1.6494840000000002,
                    "velocity": 0.5984251968503937,
                    "duration": 0.07731956250000005
                },
                {
                    "name": "C#3",
                    "midi": 49,
                    "time": 1.6494840000000002,
                    "velocity": 0.7086614173228346,
                    "duration": 0.07731956250000005
                },
                {
                    "name": "D2",
                    "midi": 38,
                    "time": 2.0618550000000004,
                    "velocity": 0.5905511811023622,
                    "duration": 0.6185565
                },
                {
                    "name": "D3",
                    "midi": 50,
                    "time": 2.0618550000000004,
                    "velocity": 0.7007874015748031,
                    "duration": 0.6185565
                },
                {
                    "name": "E2",
                    "midi": 40,
                    "time": 2.6804115000000004,
                    "velocity": 0.5354330708661418,
                    "duration": 0.07731956250000005
                },
                {
                    "name": "E3",
                    "midi": 52,
                    "time": 2.6804115000000004,
                    "velocity": 0.6299212598425197,
                    "duration": 0.07731956250000005
                },
                {
                    "name": "F2",
                    "midi": 41,
                    "time": 2.8865970000000005,
                    "velocity": 0.5275590551181102,
                    "duration": 0.07731956250000005
                },
                {
                    "name": "F3",
                    "midi": 53,
                    "time": 2.8865970000000005,
                    "velocity": 0.6220472440944882,
                    "duration": 0.07731956250000005
                },
                {
                    "name": "E2",
                    "midi": 40,
                    "time": 3.0927825000000007,
                    "velocity": 0.5354330708661418,
                    "duration": 0.07731956250000005
                },
                {
                    "name": "E3",
                    "midi": 52,
                    "time": 3.0927825000000007,
                    "velocity": 0.6299212598425197,
                    "duration": 0.07731956250000005
                },
                {
                    "name": "D2",
                    "midi": 38,
                    "time": 3.298968000000001,
                    "velocity": 0.5590551181102362,
                    "duration": 0.4123709999999998
                },
                {
                    "name": "D3",
                    "midi": 50,
                    "time": 3.298968000000001,
                    "velocity": 0.6614173228346457,
                    "duration": 0.4123709999999998
                },
                {
                    "name": "D2",
                    "midi": 38,
                    "time": 3.7113390000000006,
                    "velocity": 0.5590551181102362,
                    "duration": 0.07731956250000005
                },
                {
                    "name": "D3",
                    "midi": 50,
                    "time": 3.7113390000000006,
                    "velocity": 0.6614173228346457,
                    "duration": 0.07731956250000005
                },
                {
                    "name": "D2",
                    "midi": 38,
                    "time": 3.9175245000000007,
                    "velocity": 0.5354330708661418,
                    "duration": 0.07731956250000005
                },
                {
                    "name": "D3",
                    "midi": 50,
                    "time": 3.9175245000000007,
                    "velocity": 0.6299212598425197,
                    "duration": 0.07731956250000005
                },
                {
                    "name": "D2",
                    "midi": 38,
                    "time": 4.123710000000001,
                    "velocity": 0.5354330708661418,
                    "duration": 0.41237100000000027
                },
                {
                    "name": "D3",
                    "midi": 50,
                    "time": 4.123710000000001,
                    "velocity": 0.6299212598425197,
                    "duration": 0.41237100000000027
                },
                {
                    "name": "D2",
                    "midi": 38,
                    "time": 4.536081000000001,
                    "velocity": 0.5433070866141733,
                    "duration": 0.0773195624999996
                },
                {
                    "name": "D3",
                    "midi": 50,
                    "time": 4.536081000000001,
                    "velocity": 0.6377952755905512,
                    "duration": 0.0773195624999996
                },
                {
                    "name": "D2",
                    "midi": 38,
                    "time": 4.7422665,
                    "velocity": 0.5433070866141733,
                    "duration": 0.0773195624999996
                },
                {
                    "name": "D3",
                    "midi": 50,
                    "time": 4.7422665,
                    "velocity": 0.6377952755905512,
                    "duration": 0.0773195624999996
                },
                {
                    "name": "D#2",
                    "midi": 39,
                    "time": 4.948452,
                    "velocity": 0.5984251968503937,
                    "duration": 0.0773195624999996
                },
                {
                    "name": "D#3",
                    "midi": 51,
                    "time": 4.948452,
                    "velocity": 0.7086614173228346,
                    "duration": 0.0773195624999996
                },
                {
                    "name": "E2",
                    "midi": 40,
                    "time": 5.360822999999999,
                    "velocity": 0.5905511811023622,
                    "duration": 0.6185564999999995
                },
                {
                    "name": "E3",
                    "midi": 52,
                    "time": 5.360822999999999,
                    "velocity": 0.7007874015748031,
                    "duration": 0.6185564999999995
                },
                {
                    "name": "F#2",
                    "midi": 42,
                    "time": 5.9793794999999985,
                    "velocity": 0.6299212598425197,
                    "duration": 0.0773195624999996
                },
                {
                    "name": "F#3",
                    "midi": 54,
                    "time": 5.9793794999999985,
                    "velocity": 0.6299212598425197,
                    "duration": 0.0773195624999996
                },
                {
                    "name": "G2",
                    "midi": 43,
                    "time": 6.185564999999998,
                    "velocity": 0.5354330708661418,
                    "duration": 0.0773195624999996
                },
                {
                    "name": "G3",
                    "midi": 55,
                    "time": 6.185564999999998,
                    "velocity": 0.6299212598425197,
                    "duration": 0.0773195624999996
                },
                {
                    "name": "A2",
                    "midi": 45,
                    "time": 6.391750499999997,
                    "velocity": 0.5433070866141733,
                    "duration": 0.0773195624999996
                },
                {
                    "name": "A3",
                    "midi": 57,
                    "time": 6.391750499999997,
                    "velocity": 0.6456692913385826,
                    "duration": 0.0773195624999996
                },
                {
                    "name": "A#2",
                    "midi": 46,
                    "time": 6.597935999999996,
                    "velocity": 0.6141732283464567,
                    "duration": 0.41237100000000027
                },
                {
                    "name": "A#3",
                    "midi": 58,
                    "time": 6.597935999999996,
                    "velocity": 0.7322834645669292,
                    "duration": 0.41237100000000027
                },
                {
                    "name": "A#2",
                    "midi": 46,
                    "time": 7.0103069999999965,
                    "velocity": 0.5590551181102362,
                    "duration": 0.0773195624999996
                },
                {
                    "name": "A#3",
                    "midi": 58,
                    "time": 7.0103069999999965,
                    "velocity": 0.6614173228346457,
                    "duration": 0.0773195624999996
                },
                {
                    "name": "A#2",
                    "midi": 46,
                    "time": 7.216492499999996,
                    "velocity": 0.5590551181102362,
                    "duration": 0.0773195624999996
                },
                {
                    "name": "A#3",
                    "midi": 58,
                    "time": 7.216492499999996,
                    "velocity": 0.6614173228346457,
                    "duration": 0.0773195624999996
                },
                {
                    "name": "C#2",
                    "midi": 37,
                    "time": 7.422677999999995,
                    "velocity": 0.6220472440944882,
                    "duration": 0.6185564999999995
                },
                {
                    "name": "C#3",
                    "midi": 49,
                    "time": 7.422677999999995,
                    "velocity": 0.7401574803149606,
                    "duration": 0.6185564999999995
                },
                {
                    "name": "C#2",
                    "midi": 37,
                    "time": 8.041234499999995,
                    "velocity": 0.5748031496062992,
                    "duration": 0.0773195624999996
                },
                {
                    "name": "C#3",
                    "midi": 49,
                    "time": 8.041234499999995,
                    "velocity": 0.6771653543307087,
                    "duration": 0.0773195624999996
                },
                {
                    "name": "A2",
                    "midi": 45,
                    "time": 8.247419999999995,
                    "velocity": 0.6220472440944882,
                    "duration": 0.41237100000000027
                },
                {
                    "name": "A3",
                    "midi": 57,
                    "time": 8.247419999999995,
                    "velocity": 0.7401574803149606,
                    "duration": 0.41237100000000027
                },
                {
                    "name": "A2",
                    "midi": 45,
                    "time": 8.659790999999995,
                    "velocity": 0.5590551181102362,
                    "duration": 0.0773195624999996
                },
                {
                    "name": "A3",
                    "midi": 57,
                    "time": 8.659790999999995,
                    "velocity": 0.6614173228346457,
                    "duration": 0.0773195624999996
                },
                {
                    "name": "A2",
                    "midi": 45,
                    "time": 8.865976499999995,
                    "velocity": 0.5669291338582677,
                    "duration": 0.0773195624999996
                },
                {
                    "name": "A3",
                    "midi": 57,
                    "time": 8.865976499999995,
                    "velocity": 0.6692913385826772,
                    "duration": 0.0773195624999996
                },
                {
                    "name": "C2",
                    "midi": 36,
                    "time": 9.072161999999995,
                    "velocity": 0.6220472440944882,
                    "duration": 0.6185565000000004
                },
                {
                    "name": "C3",
                    "midi": 48,
                    "time": 9.072161999999995,
                    "velocity": 0.7401574803149606,
                    "duration": 0.6185565000000004
                },
                {
                    "name": "C2",
                    "midi": 36,
                    "time": 9.690718499999996,
                    "velocity": 0.5669291338582677,
                    "duration": 0.0773195624999996
                },
                {
                    "name": "C3",
                    "midi": 48,
                    "time": 9.690718499999996,
                    "velocity": 0.6692913385826772,
                    "duration": 0.0773195624999996
                },
                {
                    "name": "B1",
                    "midi": 35,
                    "time": 9.896903999999996,
                    "velocity": 0.5669291338582677,
                    "duration": 0.0773195624999996
                },
                {
                    "name": "B2",
                    "midi": 47,
                    "time": 9.896903999999996,
                    "velocity": 0.6692913385826772,
                    "duration": 0.0773195624999996
                },
                {
                    "name": "D2",
                    "midi": 38,
                    "time": 10.103089499999996,
                    "velocity": 0.5669291338582677,
                    "duration": 0.0773195624999996
                },
                {
                    "name": "D3",
                    "midi": 50,
                    "time": 10.103089499999996,
                    "velocity": 0.6771653543307087,
                    "duration": 0.0773195624999996
                },
                {
                    "name": "G2",
                    "midi": 43,
                    "time": 10.309274999999996,
                    "velocity": 0.5905511811023622,
                    "duration": 0.0773195624999996
                },
                {
                    "name": "G3",
                    "midi": 55,
                    "time": 10.309274999999996,
                    "velocity": 0.7086614173228346,
                    "duration": 0.0773195624999996
                },
                {
                    "name": "F2",
                    "midi": 41,
                    "time": 10.515460499999996,
                    "velocity": 0.5669291338582677,
                    "duration": 0.0773195624999996
                },
                {
                    "name": "F3",
                    "midi": 53,
                    "time": 10.515460499999996,
                    "velocity": 0.6692913385826772,
                    "duration": 0.0773195624999996
                },
                {
                    "name": "E2",
                    "midi": 40,
                    "time": 10.721645999999996,
                    "velocity": 0.5748031496062992,
                    "duration": 0.0773195624999996
                },
                {
                    "name": "E3",
                    "midi": 52,
                    "time": 10.721645999999996,
                    "velocity": 0.6771653543307087,
                    "duration": 0.0773195624999996
                },
                {
                    "name": "C2",
                    "midi": 36,
                    "time": 10.927831499999996,
                    "velocity": 0.5511811023622047,
                    "duration": 0.0773195624999996
                },
                {
                    "name": "C3",
                    "midi": 48,
                    "time": 10.927831499999996,
                    "velocity": 0.6456692913385826,
                    "duration": 0.0773195624999996
                },
                {
                    "name": "B1",
                    "midi": 35,
                    "time": 11.134016999999997,
                    "velocity": 0.5511811023622047,
                    "duration": 0.0773195624999996
                },
                {
                    "name": "B2",
                    "midi": 47,
                    "time": 11.134016999999997,
                    "velocity": 0.6456692913385826,
                    "duration": 0.0773195624999996
                },
                {
                    "name": "A1",
                    "midi": 33,
                    "time": 11.340202499999997,
                    "velocity": 0.5433070866141733,
                    "duration": 0.0773195624999996
                },
                {
                    "name": "A2",
                    "midi": 45,
                    "time": 11.340202499999997,
                    "velocity": 0.6377952755905512,
                    "duration": 0.0773195624999996
                },
                {
                    "name": "F2",
                    "midi": 41,
                    "time": 11.546387999999997,
                    "velocity": 0.5590551181102362,
                    "duration": 0.41237100000000027
                },
                {
                    "name": "F3",
                    "midi": 53,
                    "time": 11.546387999999997,
                    "velocity": 0.6614173228346457,
                    "duration": 0.41237100000000027
                },
                {
                    "name": "E2",
                    "midi": 40,
                    "time": 11.958758999999997,
                    "velocity": 0.5433070866141733,
                    "duration": 0.41237100000000027
                },
                {
                    "name": "E3",
                    "midi": 52,
                    "time": 11.958758999999997,
                    "velocity": 0.6377952755905512,
                    "duration": 0.41237100000000027
                },
                {
                    "name": "D2",
                    "midi": 38,
                    "time": 12.371129999999997,
                    "velocity": 0.5590551181102362,
                    "duration": 0.8247420000000005
                },
                {
                    "name": "D3",
                    "midi": 50,
                    "time": 12.371129999999997,
                    "velocity": 0.6614173228346457,
                    "duration": 0.8247420000000005
                },
                {
                    "name": "C2",
                    "midi": 36,
                    "time": 13.195871999999998,
                    "velocity": 0.5118110236220472,
                    "duration": 1.0309275000000007
                },
                {
                    "name": "C3",
                    "midi": 48,
                    "time": 13.195871999999998,
                    "velocity": 0.6062992125984252,
                    "duration": 1.0309275000000007
                },
                {
                    "name": "D2",
                    "midi": 38,
                    "time": 14.226799499999998,
                    "velocity": 0.48031496062992124,
                    "duration": 0.0773195624999996
                },
                {
                    "name": "D3",
                    "midi": 50,
                    "time": 14.226799499999998,
                    "velocity": 0.5748031496062992,
                    "duration": 0.0773195624999996
                },
                {
                    "name": "E2",
                    "midi": 40,
                    "time": 14.432984999999999,
                    "velocity": 0.48031496062992124,
                    "duration": 0.0773195624999996
                },
                {
                    "name": "E3",
                    "midi": 52,
                    "time": 14.432984999999999,
                    "velocity": 0.5748031496062992,
                    "duration": 0.0773195624999996
                },
                {
                    "name": "F2",
                    "midi": 41,
                    "time": 14.639170499999999,
                    "velocity": 0.48031496062992124,
                    "duration": 0.0773195624999996
                },
                {
                    "name": "F3",
                    "midi": 53,
                    "time": 14.639170499999999,
                    "velocity": 0.5748031496062992,
                    "duration": 0.0773195624999996
                },
                {
                    "name": "E2",
                    "midi": 40,
                    "time": 14.845355999999999,
                    "velocity": 0.5118110236220472,
                    "duration": 0.0773195624999996
                },
                {
                    "name": "E3",
                    "midi": 52,
                    "time": 14.845355999999999,
                    "velocity": 0.6062992125984252,
                    "duration": 0.0773195624999996
                },
                {
                    "name": "D2",
                    "midi": 38,
                    "time": 15.051541499999999,
                    "velocity": 0.49606299212598426,
                    "duration": 0.0773195624999996
                },
                {
                    "name": "D3",
                    "midi": 50,
                    "time": 15.051541499999999,
                    "velocity": 0.5826771653543307,
                    "duration": 0.0773195624999996
                },
                {
                    "name": "C2",
                    "midi": 36,
                    "time": 15.257727,
                    "velocity": 0.49606299212598426,
                    "duration": 0.0773195624999996
                },
                {
                    "name": "C3",
                    "midi": 48,
                    "time": 15.257727,
                    "velocity": 0.5826771653543307,
                    "duration": 0.0773195624999996
                },
                {
                    "name": "B1",
                    "midi": 35,
                    "time": 15.4639125,
                    "velocity": 0.49606299212598426,
                    "duration": 0.0773195624999996
                },
                {
                    "name": "B2",
                    "midi": 47,
                    "time": 15.4639125,
                    "velocity": 0.5826771653543307,
                    "duration": 0.0773195624999996
                },
                {
                    "name": "A1",
                    "midi": 33,
                    "time": 15.670098,
                    "velocity": 0.5275590551181102,
                    "duration": 0.6185565000000004
                },
                {
                    "name": "A2",
                    "midi": 45,
                    "time": 15.670098,
                    "velocity": 0.6220472440944882,
                    "duration": 0.6185565000000004
                },
                {
                    "name": "E2",
                    "midi": 40,
                    "time": 16.2886545,
                    "velocity": 0.5039370078740157,
                    "duration": 0.07731956250000138
                },
                {
                    "name": "E3",
                    "midi": 52,
                    "time": 16.2886545,
                    "velocity": 0.5905511811023622,
                    "duration": 0.07731956250000138
                },
                {
                    "name": "F2",
                    "midi": 41,
                    "time": 16.49484,
                    "velocity": 0.5118110236220472,
                    "duration": 1.0309275000000007
                },
                {
                    "name": "F3",
                    "midi": 53,
                    "time": 16.49484,
                    "velocity": 0.6062992125984252,
                    "duration": 1.0309275000000007
                },
                {
                    "name": "E2",
                    "midi": 40,
                    "time": 17.5257675,
                    "velocity": 0.48031496062992124,
                    "duration": 0.07731956250000138
                },
                {
                    "name": "E3",
                    "midi": 52,
                    "time": 17.5257675,
                    "velocity": 0.5748031496062992,
                    "duration": 0.07731956250000138
                },
                {
                    "name": "F2",
                    "midi": 41,
                    "time": 17.731953,
                    "velocity": 0.48031496062992124,
                    "duration": 0.07731956250000138
                },
                {
                    "name": "F3",
                    "midi": 53,
                    "time": 17.731953,
                    "velocity": 0.5748031496062992,
                    "duration": 0.07731956250000138
                },
                {
                    "name": "G2",
                    "midi": 43,
                    "time": 17.9381385,
                    "velocity": 0.48031496062992124,
                    "duration": 0.07731956250000138
                },
                {
                    "name": "G3",
                    "midi": 55,
                    "time": 17.9381385,
                    "velocity": 0.5748031496062992,
                    "duration": 0.07731956250000138
                },
                {
                    "name": "F#2",
                    "midi": 42,
                    "time": 18.144324,
                    "velocity": 0.5118110236220472,
                    "duration": 0.07731956250000138
                },
                {
                    "name": "F#3",
                    "midi": 54,
                    "time": 18.144324,
                    "velocity": 0.6062992125984252,
                    "duration": 0.07731956250000138
                },
                {
                    "name": "E2",
                    "midi": 40,
                    "time": 18.3505095,
                    "velocity": 0.49606299212598426,
                    "duration": 0.07731956250000138
                },
                {
                    "name": "E3",
                    "midi": 52,
                    "time": 18.3505095,
                    "velocity": 0.5826771653543307,
                    "duration": 0.07731956250000138
                },
                {
                    "name": "D2",
                    "midi": 38,
                    "time": 18.556695,
                    "velocity": 0.49606299212598426,
                    "duration": 0.07731956250000138
                },
                {
                    "name": "D3",
                    "midi": 50,
                    "time": 18.556695,
                    "velocity": 0.5826771653543307,
                    "duration": 0.07731956250000138
                },
                {
                    "name": "C#2",
                    "midi": 37,
                    "time": 18.7628805,
                    "velocity": 0.49606299212598426,
                    "duration": 0.07731956250000138
                },
                {
                    "name": "C#3",
                    "midi": 49,
                    "time": 18.7628805,
                    "velocity": 0.5826771653543307,
                    "duration": 0.07731956250000138
                },
                {
                    "name": "B1",
                    "midi": 35,
                    "time": 18.969066,
                    "velocity": 0.5275590551181102,
                    "duration": 0.6185565000000004
                },
                {
                    "name": "B2",
                    "midi": 47,
                    "time": 18.969066,
                    "velocity": 0.6220472440944882,
                    "duration": 0.6185565000000004
                },
                {
                    "name": "A1",
                    "midi": 33,
                    "time": 19.587622500000002,
                    "velocity": 0.4645669291338583,
                    "duration": 0.07731956250000138
                },
                {
                    "name": "A2",
                    "midi": 45,
                    "time": 19.587622500000002,
                    "velocity": 0.5590551181102362,
                    "duration": 0.07731956250000138
                },
                {
                    "name": "G#1",
                    "midi": 32,
                    "time": 19.793808000000002,
                    "velocity": 0.47244094488188976,
                    "duration": 0.07731956250000138
                },
                {
                    "name": "G#2",
                    "midi": 44,
                    "time": 19.793808000000002,
                    "velocity": 0.5748031496062992,
                    "duration": 0.07731956250000138
                },
                {
                    "name": "B1",
                    "midi": 35,
                    "time": 19.999993500000002,
                    "velocity": 0.44881889763779526,
                    "duration": 0.07731956250000138
                },
                {
                    "name": "B2",
                    "midi": 47,
                    "time": 19.999993500000002,
                    "velocity": 0.5354330708661418,
                    "duration": 0.07731956250000138
                },
                {
                    "name": "G#1",
                    "midi": 32,
                    "time": 20.206179000000002,
                    "velocity": 0.47244094488188976,
                    "duration": 0.07731956250000138
                },
                {
                    "name": "G#2",
                    "midi": 44,
                    "time": 20.206179000000002,
                    "velocity": 0.5748031496062992,
                    "duration": 0.07731956250000138
                },
                {
                    "name": "B1",
                    "midi": 35,
                    "time": 20.412364500000002,
                    "velocity": 0.4330708661417323,
                    "duration": 0.07731956250000138
                },
                {
                    "name": "B2",
                    "midi": 47,
                    "time": 20.412364500000002,
                    "velocity": 0.5196850393700787,
                    "duration": 0.07731956250000138
                },
                {
                    "name": "F2",
                    "midi": 41,
                    "time": 20.618550000000003,
                    "velocity": 0.5118110236220472,
                    "duration": 0.07731956250000138
                },
                {
                    "name": "F3",
                    "midi": 53,
                    "time": 20.618550000000003,
                    "velocity": 0.6062992125984252,
                    "duration": 0.07731956250000138
                },
                {
                    "name": "F2",
                    "midi": 41,
                    "time": 20.824735500000003,
                    "velocity": 0.5039370078740157,
                    "duration": 0.6185565000000004
                },
                {
                    "name": "F3",
                    "midi": 53,
                    "time": 20.824735500000003,
                    "velocity": 0.5905511811023622,
                    "duration": 0.6185565000000004
                },
                {
                    "name": "G1",
                    "midi": 31,
                    "time": 21.443292000000003,
                    "velocity": 0.47244094488188976,
                    "duration": 0.07731956250000138
                },
                {
                    "name": "G2",
                    "midi": 43,
                    "time": 21.443292000000003,
                    "velocity": 0.5748031496062992,
                    "duration": 0.07731956250000138
                },
                {
                    "name": "A#1",
                    "midi": 34,
                    "time": 21.649477500000003,
                    "velocity": 0.44881889763779526,
                    "duration": 0.07731956250000138
                },
                {
                    "name": "A#2",
                    "midi": 46,
                    "time": 21.649477500000003,
                    "velocity": 0.5354330708661418,
                    "duration": 0.07731956250000138
                },
                {
                    "name": "G1",
                    "midi": 31,
                    "time": 21.855663000000003,
                    "velocity": 0.47244094488188976,
                    "duration": 0.07731956250000138
                },
                {
                    "name": "G2",
                    "midi": 43,
                    "time": 21.855663000000003,
                    "velocity": 0.5748031496062992,
                    "duration": 0.07731956250000138
                },
                {
                    "name": "A#1",
                    "midi": 34,
                    "time": 22.061848500000004,
                    "velocity": 0.4330708661417323,
                    "duration": 0.07731956250000138
                },
                {
                    "name": "A#2",
                    "midi": 46,
                    "time": 22.061848500000004,
                    "velocity": 0.5196850393700787,
                    "duration": 0.07731956250000138
                },
                {
                    "name": "E2",
                    "midi": 40,
                    "time": 22.268034000000004,
                    "velocity": 0.5118110236220472,
                    "duration": 0.07731956250000138
                },
                {
                    "name": "E3",
                    "midi": 52,
                    "time": 22.268034000000004,
                    "velocity": 0.6062992125984252,
                    "duration": 0.07731956250000138
                },
                {
                    "name": "E2",
                    "midi": 40,
                    "time": 22.474219500000004,
                    "velocity": 0.5039370078740157,
                    "duration": 0.6185565000000004
                },
                {
                    "name": "E3",
                    "midi": 52,
                    "time": 22.474219500000004,
                    "velocity": 0.5905511811023622,
                    "duration": 0.6185565000000004
                },
                {
                    "name": "D2",
                    "midi": 38,
                    "time": 23.092776000000004,
                    "velocity": 0.5039370078740157,
                    "duration": 0.41237100000000027
                },
                {
                    "name": "D3",
                    "midi": 50,
                    "time": 23.092776000000004,
                    "velocity": 0.5905511811023622,
                    "duration": 0.41237100000000027
                },
                {
                    "name": "F#1",
                    "midi": 30,
                    "time": 23.505147000000004,
                    "velocity": 0.4645669291338583,
                    "duration": 0.41237100000000027
                },
                {
                    "name": "F#2",
                    "midi": 42,
                    "time": 23.505147000000004,
                    "velocity": 0.5590551181102362,
                    "duration": 0.41237100000000027
                },
                {
                    "name": "G1",
                    "midi": 31,
                    "time": 23.917518000000005,
                    "velocity": 0.4566929133858268,
                    "duration": 0.07731956250000138
                },
                {
                    "name": "G2",
                    "midi": 43,
                    "time": 23.917518000000005,
                    "velocity": 0.5433070866141733,
                    "duration": 0.07731956250000138
                },
                {
                    "name": "A1",
                    "midi": 33,
                    "time": 24.123703500000005,
                    "velocity": 0.4645669291338583,
                    "duration": 0.07731956250000138
                },
                {
                    "name": "A2",
                    "midi": 45,
                    "time": 24.123703500000005,
                    "velocity": 0.5590551181102362,
                    "duration": 0.07731956250000138
                },
                {
                    "name": "B1",
                    "midi": 35,
                    "time": 24.329889000000005,
                    "velocity": 0.48031496062992124,
                    "duration": 0.07731956250000138
                },
                {
                    "name": "B2",
                    "midi": 47,
                    "time": 24.329889000000005,
                    "velocity": 0.5748031496062992,
                    "duration": 0.07731956250000138
                },
                {
                    "name": "C2",
                    "midi": 36,
                    "time": 24.536074500000005,
                    "velocity": 0.5039370078740157,
                    "duration": 0.07731956250000138
                },
                {
                    "name": "C3",
                    "midi": 48,
                    "time": 24.536074500000005,
                    "velocity": 0.5905511811023622,
                    "duration": 0.07731956250000138
                },
                {
                    "name": "D2",
                    "midi": 38,
                    "time": 24.742260000000005,
                    "velocity": 0.5118110236220472,
                    "duration": 0.07731956250000138
                },
                {
                    "name": "D3",
                    "midi": 50,
                    "time": 24.742260000000005,
                    "velocity": 0.6062992125984252,
                    "duration": 0.07731956250000138
                },
                {
                    "name": "F#2",
                    "midi": 42,
                    "time": 24.948445500000005,
                    "velocity": 0.5039370078740157,
                    "duration": 0.07731956250000138
                },
                {
                    "name": "F#3",
                    "midi": 54,
                    "time": 24.948445500000005,
                    "velocity": 0.5905511811023622,
                    "duration": 0.07731956250000138
                },
                {
                    "name": "G2",
                    "midi": 43,
                    "time": 25.154631000000006,
                    "velocity": 0.5118110236220472,
                    "duration": 0.8247420000000005
                },
                {
                    "name": "G3",
                    "midi": 55,
                    "time": 25.154631000000006,
                    "velocity": 0.5984251968503937,
                    "duration": 0.8247420000000005
                },
                {
                    "name": "F#2",
                    "midi": 42,
                    "time": 25.979373000000006,
                    "velocity": 0.5039370078740157,
                    "duration": 0.41237100000000027
                },
                {
                    "name": "F#3",
                    "midi": 54,
                    "time": 25.979373000000006,
                    "velocity": 0.5905511811023622,
                    "duration": 0.41237100000000027
                },
                {
                    "name": "F2",
                    "midi": 41,
                    "time": 26.391744000000006,
                    "velocity": 0.5039370078740157,
                    "duration": 0.41237100000000027
                },
                {
                    "name": "F3",
                    "midi": 53,
                    "time": 26.391744000000006,
                    "velocity": 0.5905511811023622,
                    "duration": 0.41237100000000027
                },
                {
                    "name": "E2",
                    "midi": 40,
                    "time": 26.804115000000007,
                    "velocity": 0.49606299212598426,
                    "duration": 0.41237100000000027
                },
                {
                    "name": "E3",
                    "midi": 52,
                    "time": 26.804115000000007,
                    "velocity": 0.5826771653543307,
                    "duration": 0.41237100000000027
                },
                {
                    "name": "D2",
                    "midi": 38,
                    "time": 27.216486000000007,
                    "velocity": 0.47244094488188976,
                    "duration": 0.8247420000000005
                },
                {
                    "name": "D3",
                    "midi": 50,
                    "time": 27.216486000000007,
                    "velocity": 0.5669291338582677,
                    "duration": 0.8247420000000005
                },
                {
                    "name": "C3",
                    "midi": 48,
                    "time": 28.041228000000007,
                    "velocity": 0.5118110236220472,
                    "duration": 1.0309275000000007
                },
                {
                    "name": "E3",
                    "midi": 52,
                    "time": 28.041228000000007,
                    "velocity": 0.6062992125984252,
                    "duration": 1.0309275000000007
                },
                {
                    "name": "E3",
                    "midi": 52,
                    "time": 29.072155500000008,
                    "velocity": 0.48031496062992124,
                    "duration": 0.07731956250000138
                },
                {
                    "name": "G3",
                    "midi": 55,
                    "time": 29.072155500000008,
                    "velocity": 0.5748031496062992,
                    "duration": 0.07731956250000138
                },
                {
                    "name": "F3",
                    "midi": 53,
                    "time": 29.278341000000008,
                    "velocity": 0.48031496062992124,
                    "duration": 0.07731956250000138
                },
                {
                    "name": "A3",
                    "midi": 57,
                    "time": 29.278341000000008,
                    "velocity": 0.5748031496062992,
                    "duration": 0.07731956250000138
                },
                {
                    "name": "G3",
                    "midi": 55,
                    "time": 29.48452650000001,
                    "velocity": 0.48031496062992124,
                    "duration": 0.07731956250000138
                },
                {
                    "name": "A#3",
                    "midi": 58,
                    "time": 29.48452650000001,
                    "velocity": 0.5748031496062992,
                    "duration": 0.07731956250000138
                },
                {
                    "name": "F3",
                    "midi": 53,
                    "time": 29.69071200000001,
                    "velocity": 0.5118110236220472,
                    "duration": 0.07731956250000138
                },
                {
                    "name": "A3",
                    "midi": 57,
                    "time": 29.69071200000001,
                    "velocity": 0.6062992125984252,
                    "duration": 0.07731956250000138
                },
                {
                    "name": "E3",
                    "midi": 52,
                    "time": 29.89689750000001,
                    "velocity": 0.49606299212598426,
                    "duration": 0.07731956250000138
                },
                {
                    "name": "G3",
                    "midi": 55,
                    "time": 29.89689750000001,
                    "velocity": 0.5826771653543307,
                    "duration": 0.07731956250000138
                },
                {
                    "name": "D3",
                    "midi": 50,
                    "time": 30.10308300000001,
                    "velocity": 0.49606299212598426,
                    "duration": 0.07731956250000138
                },
                {
                    "name": "F3",
                    "midi": 53,
                    "time": 30.10308300000001,
                    "velocity": 0.5826771653543307,
                    "duration": 0.07731956250000138
                },
                {
                    "name": "A2",
                    "midi": 45,
                    "time": 30.30926850000001,
                    "velocity": 0.49606299212598426,
                    "duration": 0.07731956250000138
                },
                {
                    "name": "E3",
                    "midi": 52,
                    "time": 30.30926850000001,
                    "velocity": 0.5826771653543307,
                    "duration": 0.07731956250000138
                },
                {
                    "name": "F2",
                    "midi": 41,
                    "time": 30.51545400000001,
                    "velocity": 0.5275590551181102,
                    "duration": 0.6185565000000004
                },
                {
                    "name": "D3",
                    "midi": 50,
                    "time": 30.51545400000001,
                    "velocity": 0.6220472440944882,
                    "duration": 0.6185565000000004
                },
                {
                    "name": "A2",
                    "midi": 45,
                    "time": 31.13401050000001,
                    "velocity": 0.5039370078740157,
                    "duration": 0.07731956250000138
                },
                {
                    "name": "C#3",
                    "midi": 49,
                    "time": 31.13401050000001,
                    "velocity": 0.5905511811023622,
                    "duration": 0.07731956250000138
                },
                {
                    "name": "A#2",
                    "midi": 46,
                    "time": 31.34019600000001,
                    "velocity": 0.5118110236220472,
                    "duration": 1.0309275000000007
                },
                {
                    "name": "D3",
                    "midi": 50,
                    "time": 31.34019600000001,
                    "velocity": 0.6062992125984252,
                    "duration": 1.0309275000000007
                },
                {
                    "name": "D3",
                    "midi": 50,
                    "time": 32.37112350000001,
                    "velocity": 0.48031496062992124,
                    "duration": 0.07731956250000138
                },
                {
                    "name": "A#3",
                    "midi": 58,
                    "time": 32.37112350000001,
                    "velocity": 0.5748031496062992,
                    "duration": 0.07731956250000138
                },
                {
                    "name": "A#3",
                    "midi": 58,
                    "time": 32.577309000000014,
                    "velocity": 0.48031496062992124,
                    "duration": 0.07731956250000138
                },
                {
                    "name": "D4",
                    "midi": 62,
                    "time": 32.577309000000014,
                    "velocity": 0.5748031496062992,
                    "duration": 0.07731956250000138
                },
                {
                    "name": "A3",
                    "midi": 57,
                    "time": 32.78349450000002,
                    "velocity": 0.48031496062992124,
                    "duration": 0.07731956250000138
                },
                {
                    "name": "C4",
                    "midi": 60,
                    "time": 32.78349450000002,
                    "velocity": 0.5748031496062992,
                    "duration": 0.07731956250000138
                },
                {
                    "name": "G3",
                    "midi": 55,
                    "time": 32.98968000000002,
                    "velocity": 0.5118110236220472,
                    "duration": 0.07731956250000138
                },
                {
                    "name": "B3",
                    "midi": 59,
                    "time": 32.98968000000002,
                    "velocity": 0.6062992125984252,
                    "duration": 0.07731956250000138
                },
                {
                    "name": "F#3",
                    "midi": 54,
                    "time": 33.195865500000025,
                    "velocity": 0.49606299212598426,
                    "duration": 0.07731956250000138
                },
                {
                    "name": "A3",
                    "midi": 57,
                    "time": 33.195865500000025,
                    "velocity": 0.5826771653543307,
                    "duration": 0.07731956250000138
                },
                {
                    "name": "E3",
                    "midi": 52,
                    "time": 33.40205100000003,
                    "velocity": 0.49606299212598426,
                    "duration": 0.07731956250000138
                },
                {
                    "name": "G3",
                    "midi": 55,
                    "time": 33.40205100000003,
                    "velocity": 0.5826771653543307,
                    "duration": 0.07731956250000138
                },
                {
                    "name": "B2",
                    "midi": 47,
                    "time": 33.60823650000003,
                    "velocity": 0.49606299212598426,
                    "duration": 0.07731956250000138
                },
                {
                    "name": "F#3",
                    "midi": 54,
                    "time": 33.60823650000003,
                    "velocity": 0.5826771653543307,
                    "duration": 0.07731956250000138
                },
                {
                    "name": "G2",
                    "midi": 43,
                    "time": 33.814422000000036,
                    "velocity": 0.5275590551181102,
                    "duration": 0.6185564999999968
                },
                {
                    "name": "E3",
                    "midi": 52,
                    "time": 33.814422000000036,
                    "velocity": 0.6220472440944882,
                    "duration": 0.6185564999999968
                },
                {
                    "name": "F2",
                    "midi": 41,
                    "time": 34.43297850000003,
                    "velocity": 0.4409448818897638,
                    "duration": 0.07731956250000138
                },
                {
                    "name": "D3",
                    "midi": 50,
                    "time": 34.43297850000003,
                    "velocity": 0.5275590551181102,
                    "duration": 0.07731956250000138
                },
                {
                    "name": "E2",
                    "midi": 40,
                    "time": 34.63916400000004,
                    "velocity": 0.44881889763779526,
                    "duration": 0.07731956250000138
                },
                {
                    "name": "C#3",
                    "midi": 49,
                    "time": 34.63916400000004,
                    "velocity": 0.5433070866141733,
                    "duration": 0.07731956250000138
                },
                {
                    "name": "G2",
                    "midi": 43,
                    "time": 34.84534950000004,
                    "velocity": 0.4251968503937008,
                    "duration": 0.07731956250000138
                },
                {
                    "name": "E3",
                    "midi": 52,
                    "time": 34.84534950000004,
                    "velocity": 0.5118110236220472,
                    "duration": 0.07731956250000138
                },
                {
                    "name": "E2",
                    "midi": 40,
                    "time": 35.051535000000044,
                    "velocity": 0.44881889763779526,
                    "duration": 0.07731956250000138
                },
                {
                    "name": "C#3",
                    "midi": 49,
                    "time": 35.051535000000044,
                    "velocity": 0.5433070866141733,
                    "duration": 0.07731956250000138
                },
                {
                    "name": "G2",
                    "midi": 43,
                    "time": 35.25772050000005,
                    "velocity": 0.4094488188976378,
                    "duration": 0.07731956250000138
                },
                {
                    "name": "E3",
                    "midi": 52,
                    "time": 35.25772050000005,
                    "velocity": 0.49606299212598426,
                    "duration": 0.07731956250000138
                },
                {
                    "name": "G3",
                    "midi": 55,
                    "time": 35.46390600000005,
                    "velocity": 0.4645669291338583,
                    "duration": 0.07731956250000138
                },
                {
                    "name": "A#3",
                    "midi": 58,
                    "time": 35.46390600000005,
                    "velocity": 0.5669291338582677,
                    "duration": 0.07731956250000138
                },
                {
                    "name": "G3",
                    "midi": 55,
                    "time": 35.670091500000055,
                    "velocity": 0.4566929133858268,
                    "duration": 0.6185564999999968
                },
                {
                    "name": "A#3",
                    "midi": 58,
                    "time": 35.670091500000055,
                    "velocity": 0.5511811023622047,
                    "duration": 0.6185564999999968
                },
                {
                    "name": "D#2",
                    "midi": 39,
                    "time": 36.28864800000005,
                    "velocity": 0.44881889763779526,
                    "duration": 0.07731956250000138
                },
                {
                    "name": "C3",
                    "midi": 48,
                    "time": 36.28864800000005,
                    "velocity": 0.5433070866141733,
                    "duration": 0.07731956250000138
                },
                {
                    "name": "F#2",
                    "midi": 42,
                    "time": 36.494833500000055,
                    "velocity": 0.4251968503937008,
                    "duration": 0.07731956250000138
                },
                {
                    "name": "D#3",
                    "midi": 51,
                    "time": 36.494833500000055,
                    "velocity": 0.5118110236220472,
                    "duration": 0.07731956250000138
                },
                {
                    "name": "D#2",
                    "midi": 39,
                    "time": 36.70101900000006,
                    "velocity": 0.44881889763779526,
                    "duration": 0.07731956250000138
                },
                {
                    "name": "C3",
                    "midi": 48,
                    "time": 36.70101900000006,
                    "velocity": 0.5433070866141733,
                    "duration": 0.07731956250000138
                },
                {
                    "name": "F#2",
                    "midi": 42,
                    "time": 36.90720450000006,
                    "velocity": 0.4094488188976378,
                    "duration": 0.07731956250000138
                },
                {
                    "name": "D#3",
                    "midi": 51,
                    "time": 36.90720450000006,
                    "velocity": 0.49606299212598426,
                    "duration": 0.07731956250000138
                },
                {
                    "name": "F#3",
                    "midi": 54,
                    "time": 37.11339000000007,
                    "velocity": 0.4645669291338583,
                    "duration": 0.07731956250000138
                },
                {
                    "name": "A3",
                    "midi": 57,
                    "time": 37.11339000000007,
                    "velocity": 0.5669291338582677,
                    "duration": 0.07731956250000138
                },
                {
                    "name": "F#3",
                    "midi": 54,
                    "time": 37.31957550000007,
                    "velocity": 0.4566929133858268,
                    "duration": 0.6185564999999968
                },
                {
                    "name": "A3",
                    "midi": 57,
                    "time": 37.31957550000007,
                    "velocity": 0.5511811023622047,
                    "duration": 0.6185564999999968
                },
                {
                    "name": "G3",
                    "midi": 55,
                    "time": 37.93813200000007,
                    "velocity": 0.5590551181102362,
                    "duration": 0.41237100000000027
                },
                {
                    "name": "B2",
                    "midi": 47,
                    "time": 38.35050300000007,
                    "velocity": 0.4330708661417323,
                    "duration": 0.41237100000000027
                },
                {
                    "name": "D3",
                    "midi": 50,
                    "time": 38.35050300000007,
                    "velocity": 0.5196850393700787,
                    "duration": 0.41237100000000027
                },
                {
                    "name": "C3",
                    "midi": 48,
                    "time": 38.76287400000007,
                    "velocity": 0.4330708661417323,
                    "duration": 0.07731956250000138
                },
                {
                    "name": "E3",
                    "midi": 52,
                    "time": 38.76287400000007,
                    "velocity": 0.5118110236220472,
                    "duration": 0.07731956250000138
                },
                {
                    "name": "D3",
                    "midi": 50,
                    "time": 38.96905950000007,
                    "velocity": 0.4409448818897638,
                    "duration": 0.07731956250000138
                },
                {
                    "name": "F3",
                    "midi": 53,
                    "time": 38.96905950000007,
                    "velocity": 0.5354330708661418,
                    "duration": 0.07731956250000138
                },
                {
                    "name": "E3",
                    "midi": 52,
                    "time": 39.175245000000075,
                    "velocity": 0.4645669291338583,
                    "duration": 0.07731956250000138
                },
                {
                    "name": "G3",
                    "midi": 55,
                    "time": 39.175245000000075,
                    "velocity": 0.5511811023622047,
                    "duration": 0.07731956250000138
                },
                {
                    "name": "F3",
                    "midi": 53,
                    "time": 39.38143050000008,
                    "velocity": 0.48031496062992124,
                    "duration": 0.07731956250000138
                },
                {
                    "name": "A3",
                    "midi": 57,
                    "time": 39.38143050000008,
                    "velocity": 0.5748031496062992,
                    "duration": 0.07731956250000138
                },
                {
                    "name": "D3",
                    "midi": 50,
                    "time": 39.58761600000008,
                    "velocity": 0.5118110236220472,
                    "duration": 0.41237100000000737
                },
                {
                    "name": "G3",
                    "midi": 55,
                    "time": 39.58761600000008,
                    "velocity": 0.6062992125984252,
                    "duration": 0.07731956250000138
                },
                {
                    "name": "B3",
                    "midi": 59,
                    "time": 39.793801500000086,
                    "velocity": 0.5905511811023622,
                    "duration": 0.07731956250000138
                },
                {
                    "name": "C3",
                    "midi": 48,
                    "time": 39.99998700000009,
                    "velocity": 0.6062992125984252,
                    "duration": 0.07731956250000138
                },
                {
                    "name": "C4",
                    "midi": 60,
                    "time": 39.99998700000009,
                    "velocity": 0.5984251968503937,
                    "duration": 0.8247420000000076
                },
                {
                    "name": "E3",
                    "midi": 52,
                    "time": 40.20617250000009,
                    "velocity": 0.5905511811023622,
                    "duration": 0.07731956250000138
                },
                {
                    "name": "G3",
                    "midi": 55,
                    "time": 40.4123580000001,
                    "velocity": 0.5118110236220472,
                    "duration": 0.8247420000000005
                },
                {
                    "name": "B3",
                    "midi": 59,
                    "time": 40.8247290000001,
                    "velocity": 0.5905511811023622,
                    "duration": 0.41237100000000027
                },
                {
                    "name": "C2",
                    "midi": 36,
                    "time": 41.2371000000001,
                    "velocity": 0.6377952755905512,
                    "duration": 0.41237100000000027
                },
                {
                    "name": "C3",
                    "midi": 48,
                    "time": 41.2371000000001,
                    "velocity": 0.7559055118110236,
                    "duration": 0.41237100000000027
                },
                {
                    "name": "C2",
                    "midi": 36,
                    "time": 41.6494710000001,
                    "velocity": 0.6062992125984252,
                    "duration": 0.07731956250000138
                },
                {
                    "name": "C3",
                    "midi": 48,
                    "time": 41.6494710000001,
                    "velocity": 0.7165354330708661,
                    "duration": 0.07731956250000138
                },
                {
                    "name": "C2",
                    "midi": 36,
                    "time": 41.8556565000001,
                    "velocity": 0.6062992125984252,
                    "duration": 0.07731956250000138
                },
                {
                    "name": "C3",
                    "midi": 48,
                    "time": 41.8556565000001,
                    "velocity": 0.7165354330708661,
                    "duration": 0.07731956250000138
                },
                {
                    "name": "C2",
                    "midi": 36,
                    "time": 42.061842000000105,
                    "velocity": 0.6062992125984252,
                    "duration": 0.41237100000000027
                },
                {
                    "name": "C3",
                    "midi": 48,
                    "time": 42.061842000000105,
                    "velocity": 0.7165354330708661,
                    "duration": 0.41237100000000027
                },
                {
                    "name": "C2",
                    "midi": 36,
                    "time": 42.474213000000105,
                    "velocity": 0.6141732283464567,
                    "duration": 0.07731956250000138
                },
                {
                    "name": "C3",
                    "midi": 48,
                    "time": 42.474213000000105,
                    "velocity": 0.7244094488188977,
                    "duration": 0.07731956250000138
                },
                {
                    "name": "C2",
                    "midi": 36,
                    "time": 42.68039850000011,
                    "velocity": 0.6220472440944882,
                    "duration": 0.07731956250000138
                },
                {
                    "name": "C3",
                    "midi": 48,
                    "time": 42.68039850000011,
                    "velocity": 0.7322834645669292,
                    "duration": 0.07731956250000138
                },
                {
                    "name": "C#2",
                    "midi": 37,
                    "time": 42.88658400000011,
                    "velocity": 0.6692913385826772,
                    "duration": 0.07731956250000138
                },
                {
                    "name": "C#3",
                    "midi": 49,
                    "time": 42.88658400000011,
                    "velocity": 0.7874015748031497,
                    "duration": 0.07731956250000138
                },
                {
                    "name": "D2",
                    "midi": 38,
                    "time": 43.29895500000011,
                    "velocity": 0.6377952755905512,
                    "duration": 0.6185564999999968
                },
                {
                    "name": "D3",
                    "midi": 50,
                    "time": 43.29895500000011,
                    "velocity": 0.7795275590551181,
                    "duration": 0.6185564999999968
                },
                {
                    "name": "E2",
                    "midi": 40,
                    "time": 43.91751150000011,
                    "velocity": 0.6141732283464567,
                    "duration": 0.07731956250000138
                },
                {
                    "name": "E3",
                    "midi": 52,
                    "time": 43.91751150000011,
                    "velocity": 0.7244094488188977,
                    "duration": 0.07731956250000138
                },
                {
                    "name": "F2",
                    "midi": 41,
                    "time": 44.123697000000114,
                    "velocity": 0.6062992125984252,
                    "duration": 0.07731956250000138
                },
                {
                    "name": "F3",
                    "midi": 53,
                    "time": 44.123697000000114,
                    "velocity": 0.7165354330708661,
                    "duration": 0.07731956250000138
                },
                {
                    "name": "E2",
                    "midi": 40,
                    "time": 44.32988250000012,
                    "velocity": 0.6141732283464567,
                    "duration": 0.07731956250000138
                },
                {
                    "name": "E3",
                    "midi": 52,
                    "time": 44.32988250000012,
                    "velocity": 0.7244094488188977,
                    "duration": 0.07731956250000138
                },
                {
                    "name": "D2",
                    "midi": 38,
                    "time": 44.53606800000012,
                    "velocity": 0.6377952755905512,
                    "duration": 0.41237100000000027
                },
                {
                    "name": "D3",
                    "midi": 50,
                    "time": 44.53606800000012,
                    "velocity": 0.7559055118110236,
                    "duration": 0.41237100000000027
                },
                {
                    "name": "D2",
                    "midi": 38,
                    "time": 44.94843900000012,
                    "velocity": 0.6377952755905512,
                    "duration": 0.07731956250000138
                },
                {
                    "name": "D3",
                    "midi": 50,
                    "time": 44.94843900000012,
                    "velocity": 0.7559055118110236,
                    "duration": 0.07731956250000138
                },
                {
                    "name": "D2",
                    "midi": 38,
                    "time": 45.154624500000125,
                    "velocity": 0.6141732283464567,
                    "duration": 0.07731956250000138
                },
                {
                    "name": "D3",
                    "midi": 50,
                    "time": 45.154624500000125,
                    "velocity": 0.7244094488188977,
                    "duration": 0.07731956250000138
                },
                {
                    "name": "D2",
                    "midi": 38,
                    "time": 45.36081000000013,
                    "velocity": 0.6141732283464567,
                    "duration": 0.41237100000000027
                },
                {
                    "name": "D3",
                    "midi": 50,
                    "time": 45.36081000000013,
                    "velocity": 0.7244094488188977,
                    "duration": 0.41237100000000027
                },
                {
                    "name": "D2",
                    "midi": 38,
                    "time": 45.77318100000013,
                    "velocity": 0.6220472440944882,
                    "duration": 0.07731956250000138
                },
                {
                    "name": "D3",
                    "midi": 50,
                    "time": 45.77318100000013,
                    "velocity": 0.7322834645669292,
                    "duration": 0.07731956250000138
                },
                {
                    "name": "D2",
                    "midi": 38,
                    "time": 45.97936650000013,
                    "velocity": 0.6220472440944882,
                    "duration": 0.07731956250000138
                },
                {
                    "name": "D3",
                    "midi": 50,
                    "time": 45.97936650000013,
                    "velocity": 0.7322834645669292,
                    "duration": 0.07731956250000138
                },
                {
                    "name": "D#2",
                    "midi": 39,
                    "time": 46.185552000000136,
                    "velocity": 0.6692913385826772,
                    "duration": 0.07731956250000138
                },
                {
                    "name": "D#3",
                    "midi": 51,
                    "time": 46.185552000000136,
                    "velocity": 0.7874015748031497,
                    "duration": 0.07731956250000138
                },
                {
                    "name": "E2",
                    "midi": 40,
                    "time": 46.59792300000014,
                    "velocity": 0.6299212598425197,
                    "duration": 0.6185564999999968
                },
                {
                    "name": "E3",
                    "midi": 52,
                    "time": 46.59792300000014,
                    "velocity": 0.7795275590551181,
                    "duration": 0.6185564999999968
                },
                {
                    "name": "F#2",
                    "midi": 42,
                    "time": 47.21647950000013,
                    "velocity": 0.7244094488188977,
                    "duration": 0.07731956250000138
                },
                {
                    "name": "F#3",
                    "midi": 54,
                    "time": 47.21647950000013,
                    "velocity": 0.7244094488188977,
                    "duration": 0.07731956250000138
                },
                {
                    "name": "G2",
                    "midi": 43,
                    "time": 47.42266500000014,
                    "velocity": 0.6062992125984252,
                    "duration": 0.07731956250000138
                },
                {
                    "name": "G3",
                    "midi": 55,
                    "time": 47.42266500000014,
                    "velocity": 0.7165354330708661,
                    "duration": 0.07731956250000138
                },
                {
                    "name": "A2",
                    "midi": 45,
                    "time": 47.62885050000014,
                    "velocity": 0.6141732283464567,
                    "duration": 0.07731956250000138
                },
                {
                    "name": "A3",
                    "midi": 57,
                    "time": 47.62885050000014,
                    "velocity": 0.7244094488188977,
                    "duration": 0.07731956250000138
                },
                {
                    "name": "A#2",
                    "midi": 46,
                    "time": 47.835036000000144,
                    "velocity": 0.6850393700787402,
                    "duration": 0.41237100000000027
                },
                {
                    "name": "A#3",
                    "midi": 58,
                    "time": 47.835036000000144,
                    "velocity": 0.8110236220472441,
                    "duration": 0.41237100000000027
                },
                {
                    "name": "A#2",
                    "midi": 46,
                    "time": 48.247407000000145,
                    "velocity": 0.6141732283464567,
                    "duration": 0.07731956250000138
                },
                {
                    "name": "A#3",
                    "midi": 58,
                    "time": 48.247407000000145,
                    "velocity": 0.7244094488188977,
                    "duration": 0.07731956250000138
                },
                {
                    "name": "A#2",
                    "midi": 46,
                    "time": 48.45359250000015,
                    "velocity": 0.6141732283464567,
                    "duration": 0.07731956250000138
                },
                {
                    "name": "A#3",
                    "midi": 58,
                    "time": 48.45359250000015,
                    "velocity": 0.7244094488188977,
                    "duration": 0.07731956250000138
                },
                {
                    "name": "C#2",
                    "midi": 37,
                    "time": 48.65977800000015,
                    "velocity": 0.6692913385826772,
                    "duration": 0.6185564999999968
                },
                {
                    "name": "C#3",
                    "midi": 49,
                    "time": 48.65977800000015,
                    "velocity": 0.7874015748031497,
                    "duration": 0.6185564999999968
                },
                {
                    "name": "C#2",
                    "midi": 37,
                    "time": 49.27833450000015,
                    "velocity": 0.6299212598425197,
                    "duration": 0.07731956250000138
                },
                {
                    "name": "C#3",
                    "midi": 49,
                    "time": 49.27833450000015,
                    "velocity": 0.7401574803149606,
                    "duration": 0.07731956250000138
                },
                {
                    "name": "A2",
                    "midi": 45,
                    "time": 49.48452000000015,
                    "velocity": 0.6692913385826772,
                    "duration": 0.41237100000000027
                },
                {
                    "name": "A3",
                    "midi": 57,
                    "time": 49.48452000000015,
                    "velocity": 0.7874015748031497,
                    "duration": 0.41237100000000027
                },
                {
                    "name": "A2",
                    "midi": 45,
                    "time": 49.89689100000015,
                    "velocity": 0.5984251968503937,
                    "duration": 0.07731956250000138
                },
                {
                    "name": "A3",
                    "midi": 57,
                    "time": 49.89689100000015,
                    "velocity": 0.7086614173228346,
                    "duration": 0.07731956250000138
                },
                {
                    "name": "A2",
                    "midi": 45,
                    "time": 50.10307650000016,
                    "velocity": 0.6062992125984252,
                    "duration": 0.07731956250000138
                },
                {
                    "name": "A3",
                    "midi": 57,
                    "time": 50.10307650000016,
                    "velocity": 0.7165354330708661,
                    "duration": 0.07731956250000138
                },
                {
                    "name": "C2",
                    "midi": 36,
                    "time": 50.30926200000016,
                    "velocity": 0.6535433070866141,
                    "duration": 0.6185564999999968
                },
                {
                    "name": "C3",
                    "midi": 48,
                    "time": 50.30926200000016,
                    "velocity": 0.7716535433070866,
                    "duration": 0.6185564999999968
                },
                {
                    "name": "C2",
                    "midi": 36,
                    "time": 50.92781850000016,
                    "velocity": 0.6062992125984252,
                    "duration": 0.07731956250000138
                },
                {
                    "name": "C3",
                    "midi": 48,
                    "time": 50.92781850000016,
                    "velocity": 0.7165354330708661,
                    "duration": 0.07731956250000138
                },
                {
                    "name": "B1",
                    "midi": 35,
                    "time": 51.13400400000016,
                    "velocity": 0.6220472440944882,
                    "duration": 0.07731956250000138
                },
                {
                    "name": "B2",
                    "midi": 47,
                    "time": 51.13400400000016,
                    "velocity": 0.7322834645669292,
                    "duration": 0.07731956250000138
                },
                {
                    "name": "D2",
                    "midi": 38,
                    "time": 51.340189500000164,
                    "velocity": 0.6299212598425197,
                    "duration": 0.07731956250000138
                },
                {
                    "name": "D3",
                    "midi": 50,
                    "time": 51.340189500000164,
                    "velocity": 0.7401574803149606,
                    "duration": 0.07731956250000138
                },
                {
                    "name": "G2",
                    "midi": 43,
                    "time": 51.54637500000017,
                    "velocity": 0.6614173228346457,
                    "duration": 0.07731956250000138
                },
                {
                    "name": "G3",
                    "midi": 55,
                    "time": 51.54637500000017,
                    "velocity": 0.7874015748031497,
                    "duration": 0.07731956250000138
                },
                {
                    "name": "F2",
                    "midi": 41,
                    "time": 51.75256050000017,
                    "velocity": 0.6299212598425197,
                    "duration": 0.07731956250000138
                },
                {
                    "name": "F3",
                    "midi": 53,
                    "time": 51.75256050000017,
                    "velocity": 0.7401574803149606,
                    "duration": 0.07731956250000138
                },
                {
                    "name": "E2",
                    "midi": 40,
                    "time": 51.958746000000176,
                    "velocity": 0.6377952755905512,
                    "duration": 0.07731956250000138
                },
                {
                    "name": "E3",
                    "midi": 52,
                    "time": 51.958746000000176,
                    "velocity": 0.7559055118110236,
                    "duration": 0.07731956250000138
                },
                {
                    "name": "C2",
                    "midi": 36,
                    "time": 52.16493150000018,
                    "velocity": 0.6220472440944882,
                    "duration": 0.07731956250000138
                },
                {
                    "name": "C3",
                    "midi": 48,
                    "time": 52.16493150000018,
                    "velocity": 0.7322834645669292,
                    "duration": 0.07731956250000138
                },
                {
                    "name": "B1",
                    "midi": 35,
                    "time": 52.37111700000018,
                    "velocity": 0.6220472440944882,
                    "duration": 0.07731956250000138
                },
                {
                    "name": "B2",
                    "midi": 47,
                    "time": 52.37111700000018,
                    "velocity": 0.7322834645669292,
                    "duration": 0.07731956250000138
                },
                {
                    "name": "A1",
                    "midi": 33,
                    "time": 52.57730250000019,
                    "velocity": 0.6220472440944882,
                    "duration": 0.07731956250000138
                },
                {
                    "name": "A2",
                    "midi": 45,
                    "time": 52.57730250000019,
                    "velocity": 0.7322834645669292,
                    "duration": 0.07731956250000138
                },
                {
                    "name": "F2",
                    "midi": 41,
                    "time": 52.78348800000019,
                    "velocity": 0.6377952755905512,
                    "duration": 0.41237100000000027
                },
                {
                    "name": "F3",
                    "midi": 53,
                    "time": 52.78348800000019,
                    "velocity": 0.7559055118110236,
                    "duration": 0.41237100000000027
                },
                {
                    "name": "E2",
                    "midi": 40,
                    "time": 53.19585900000019,
                    "velocity": 0.6220472440944882,
                    "duration": 0.41237100000000027
                },
                {
                    "name": "E3",
                    "midi": 52,
                    "time": 53.19585900000019,
                    "velocity": 0.7322834645669292,
                    "duration": 0.41237100000000027
                },
                {
                    "name": "D2",
                    "midi": 38,
                    "time": 53.60823000000019,
                    "velocity": 0.6377952755905512,
                    "duration": 0.8247420000000005
                },
                {
                    "name": "D3",
                    "midi": 50,
                    "time": 53.60823000000019,
                    "velocity": 0.7559055118110236,
                    "duration": 0.8247420000000005
                },
                {
                    "name": "C#3",
                    "midi": 49,
                    "time": 54.43297200000019,
                    "velocity": 0.6299212598425197,
                    "duration": 0.41237100000000027
                },
                {
                    "name": "C#4",
                    "midi": 61,
                    "time": 54.43297200000019,
                    "velocity": 0.7559055118110236,
                    "duration": 0.41237100000000027
                },
                {
                    "name": "C#3",
                    "midi": 49,
                    "time": 54.84534300000019,
                    "velocity": 0.6062992125984252,
                    "duration": 0.10309275000000184
                },
                {
                    "name": "C#4",
                    "midi": 61,
                    "time": 54.84534300000019,
                    "velocity": 0.7244094488188977,
                    "duration": 0.10309275000000184
                },
                {
                    "name": "C#3",
                    "midi": 49,
                    "time": 55.051528500000195,
                    "velocity": 0.5826771653543307,
                    "duration": 0.10309275000000184
                },
                {
                    "name": "C#4",
                    "midi": 61,
                    "time": 55.051528500000195,
                    "velocity": 0.6929133858267716,
                    "duration": 0.10309275000000184
                },
                {
                    "name": "E2",
                    "midi": 40,
                    "time": 55.2577140000002,
                    "velocity": 0.6062992125984252,
                    "duration": 0.8247420000000005
                },
                {
                    "name": "E3",
                    "midi": 52,
                    "time": 55.2577140000002,
                    "velocity": 0.7244094488188977,
                    "duration": 0.8247420000000005
                },
                {
                    "name": "D4",
                    "midi": 62,
                    "time": 56.0824560000002,
                    "velocity": 0.7559055118110236,
                    "duration": 0.41237100000000027
                },
                {
                    "name": "D3",
                    "midi": 50,
                    "time": 56.0824560000002,
                    "velocity": 0.6299212598425197,
                    "duration": 0.41237100000000027
                },
                {
                    "name": "D3",
                    "midi": 50,
                    "time": 56.4948270000002,
                    "velocity": 0.6062992125984252,
                    "duration": 0.10309275000000184
                },
                {
                    "name": "D4",
                    "midi": 62,
                    "time": 56.4948270000002,
                    "velocity": 0.7244094488188977,
                    "duration": 0.10309275000000184
                },
                {
                    "name": "D3",
                    "midi": 50,
                    "time": 56.7010125000002,
                    "velocity": 0.5826771653543307,
                    "duration": 0.10309275000000184
                },
                {
                    "name": "D4",
                    "midi": 62,
                    "time": 56.7010125000002,
                    "velocity": 0.6929133858267716,
                    "duration": 0.10309275000000184
                },
                {
                    "name": "F2",
                    "midi": 41,
                    "time": 56.90719800000021,
                    "velocity": 0.6062992125984252,
                    "duration": 0.8247420000000005
                },
                {
                    "name": "F3",
                    "midi": 53,
                    "time": 56.90719800000021,
                    "velocity": 0.7244094488188977,
                    "duration": 0.8247420000000005
                },
                {
                    "name": "C#3",
                    "midi": 49,
                    "time": 57.73194000000021,
                    "velocity": 0.6299212598425197,
                    "duration": 0.41237100000000027
                },
                {
                    "name": "C#4",
                    "midi": 61,
                    "time": 57.73194000000021,
                    "velocity": 0.7559055118110236,
                    "duration": 0.41237100000000027
                },
                {
                    "name": "C#3",
                    "midi": 49,
                    "time": 58.14431100000021,
                    "velocity": 0.6062992125984252,
                    "duration": 0.10309274999999474
                },
                {
                    "name": "C#4",
                    "midi": 61,
                    "time": 58.14431100000021,
                    "velocity": 0.7244094488188977,
                    "duration": 0.10309274999999474
                },
                {
                    "name": "C#3",
                    "midi": 49,
                    "time": 58.350496500000204,
                    "velocity": 0.5826771653543307,
                    "duration": 0.10309275000000184
                },
                {
                    "name": "C#4",
                    "midi": 61,
                    "time": 58.350496500000204,
                    "velocity": 0.6929133858267716,
                    "duration": 0.10309275000000184
                },
                {
                    "name": "E2",
                    "midi": 40,
                    "time": 58.55668200000021,
                    "velocity": 0.6062992125984252,
                    "duration": 0.8247420000000005
                },
                {
                    "name": "E3",
                    "midi": 52,
                    "time": 58.55668200000021,
                    "velocity": 0.7244094488188977,
                    "duration": 0.8247420000000005
                },
                {
                    "name": "D4",
                    "midi": 62,
                    "time": 59.38142400000021,
                    "velocity": 0.7559055118110236,
                    "duration": 0.41237100000000027
                },
                {
                    "name": "D3",
                    "midi": 50,
                    "time": 59.38142400000021,
                    "velocity": 0.6299212598425197,
                    "duration": 0.41237100000000027
                },
                {
                    "name": "D3",
                    "midi": 50,
                    "time": 59.79379500000021,
                    "velocity": 0.6062992125984252,
                    "duration": 0.07731956250000138
                },
                {
                    "name": "D4",
                    "midi": 62,
                    "time": 59.79379500000021,
                    "velocity": 0.7244094488188977,
                    "duration": 0.07731956250000138
                },
                {
                    "name": "D3",
                    "midi": 50,
                    "time": 59.99998050000021,
                    "velocity": 0.5826771653543307,
                    "duration": 0.07731956250000138
                },
                {
                    "name": "D4",
                    "midi": 62,
                    "time": 59.99998050000021,
                    "velocity": 0.6929133858267716,
                    "duration": 0.07731956250000138
                },
                {
                    "name": "F2",
                    "midi": 41,
                    "time": 60.206166000000216,
                    "velocity": 0.6062992125984252,
                    "duration": 0.8247420000000005
                },
                {
                    "name": "F3",
                    "midi": 53,
                    "time": 60.206166000000216,
                    "velocity": 0.7244094488188977,
                    "duration": 0.8247420000000005
                },
                {
                    "name": "E2",
                    "midi": 40,
                    "time": 61.03090800000022,
                    "velocity": 0.4566929133858268,
                    "duration": 0.41237100000000737
                },
                {
                    "name": "E3",
                    "midi": 52,
                    "time": 61.03090800000022,
                    "velocity": 0.5433070866141733,
                    "duration": 0.41237100000000737
                },
                {
                    "name": "D2",
                    "midi": 38,
                    "time": 61.443279000000224,
                    "velocity": 0.4881889763779528,
                    "duration": 0.41237100000000027
                },
                {
                    "name": "D3",
                    "midi": 50,
                    "time": 61.443279000000224,
                    "velocity": 0.5748031496062992,
                    "duration": 0.41237100000000027
                },
                {
                    "name": "C#2",
                    "midi": 37,
                    "time": 61.855650000000225,
                    "velocity": 0.5196850393700787,
                    "duration": 0.41237100000000027
                },
                {
                    "name": "C#3",
                    "midi": 49,
                    "time": 61.855650000000225,
                    "velocity": 0.6220472440944882,
                    "duration": 0.41237100000000027
                },
                {
                    "name": "D2",
                    "midi": 38,
                    "time": 62.268021000000225,
                    "velocity": 0.5511811023622047,
                    "duration": 0.41237100000000737
                },
                {
                    "name": "D3",
                    "midi": 50,
                    "time": 62.268021000000225,
                    "velocity": 0.6614173228346457,
                    "duration": 0.41237100000000737
                },
                {
                    "name": "B3",
                    "midi": 59,
                    "time": 62.68039200000023,
                    "velocity": 0.6929133858267716,
                    "duration": 0.41237100000000027
                },
                {
                    "name": "G3",
                    "midi": 55,
                    "time": 62.68039200000023,
                    "velocity": 0.5826771653543307,
                    "duration": 0.41237100000000027
                },
                {
                    "name": "G3",
                    "midi": 55,
                    "time": 63.09276300000023,
                    "velocity": 0.5826771653543307,
                    "duration": 0.20618549999999658
                },
                {
                    "name": "B3",
                    "midi": 59,
                    "time": 63.09276300000023,
                    "velocity": 0.6929133858267716,
                    "duration": 0.20618549999999658
                },
                {
                    "name": "G3",
                    "midi": 55,
                    "time": 63.29894850000023,
                    "velocity": 0.5590551181102362,
                    "duration": 0.20618549999999658
                },
                {
                    "name": "B3",
                    "midi": 59,
                    "time": 63.29894850000023,
                    "velocity": 0.6614173228346457,
                    "duration": 0.20618549999999658
                },
                {
                    "name": "G2",
                    "midi": 43,
                    "time": 63.505134000000226,
                    "velocity": 0.5826771653543307,
                    "duration": 0.8247420000000005
                },
                {
                    "name": "E3",
                    "midi": 52,
                    "time": 63.505134000000226,
                    "velocity": 0.6929133858267716,
                    "duration": 0.8247420000000005
                },
                {
                    "name": "B3",
                    "midi": 59,
                    "time": 64.32987600000023,
                    "velocity": 0.6929133858267716,
                    "duration": 0.41237099999999316
                },
                {
                    "name": "G3",
                    "midi": 55,
                    "time": 64.32987600000023,
                    "velocity": 0.5826771653543307,
                    "duration": 0.41237099999999316
                },
                {
                    "name": "G3",
                    "midi": 55,
                    "time": 64.74224700000022,
                    "velocity": 0.5826771653543307,
                    "duration": 0.20618550000000369
                },
                {
                    "name": "B3",
                    "midi": 59,
                    "time": 64.74224700000022,
                    "velocity": 0.6929133858267716,
                    "duration": 0.20618550000000369
                },
                {
                    "name": "G3",
                    "midi": 55,
                    "time": 64.94843250000022,
                    "velocity": 0.5590551181102362,
                    "duration": 0.20618550000000369
                },
                {
                    "name": "B3",
                    "midi": 59,
                    "time": 64.94843250000022,
                    "velocity": 0.6614173228346457,
                    "duration": 0.20618550000000369
                },
                {
                    "name": "G2",
                    "midi": 43,
                    "time": 65.15461800000023,
                    "velocity": 0.5826771653543307,
                    "duration": 0.8247420000000147
                },
                {
                    "name": "D#3",
                    "midi": 51,
                    "time": 65.15461800000023,
                    "velocity": 0.6929133858267716,
                    "duration": 0.8247420000000147
                },
                {
                    "name": "B3",
                    "midi": 59,
                    "time": 65.97936000000024,
                    "velocity": 0.6929133858267716,
                    "duration": 0.41237099999999316
                },
                {
                    "name": "G3",
                    "midi": 55,
                    "time": 65.97936000000024,
                    "velocity": 0.5826771653543307,
                    "duration": 0.41237099999999316
                },
                {
                    "name": "G3",
                    "midi": 55,
                    "time": 66.39173100000023,
                    "velocity": 0.5826771653543307,
                    "duration": 0.20618550000000369
                },
                {
                    "name": "B3",
                    "midi": 59,
                    "time": 66.39173100000023,
                    "velocity": 0.6929133858267716,
                    "duration": 0.20618550000000369
                },
                {
                    "name": "G3",
                    "midi": 55,
                    "time": 66.59791650000024,
                    "velocity": 0.5590551181102362,
                    "duration": 0.20618550000000369
                },
                {
                    "name": "B3",
                    "midi": 59,
                    "time": 66.59791650000024,
                    "velocity": 0.6614173228346457,
                    "duration": 0.20618550000000369
                },
                {
                    "name": "G2",
                    "midi": 43,
                    "time": 66.80410200000024,
                    "velocity": 0.5826771653543307,
                    "duration": 0.8247420000000147
                },
                {
                    "name": "E3",
                    "midi": 52,
                    "time": 66.80410200000024,
                    "velocity": 0.6929133858267716,
                    "duration": 0.8247420000000147
                },
                {
                    "name": "B3",
                    "midi": 59,
                    "time": 67.62884400000026,
                    "velocity": 0.7244094488188977,
                    "duration": 0.41237099999999316
                },
                {
                    "name": "G3",
                    "midi": 55,
                    "time": 67.62884400000026,
                    "velocity": 0.6062992125984252,
                    "duration": 0.41237099999999316
                },
                {
                    "name": "G3",
                    "midi": 55,
                    "time": 68.04121500000025,
                    "velocity": 0.6062992125984252,
                    "duration": 0.20618550000000369
                },
                {
                    "name": "B3",
                    "midi": 59,
                    "time": 68.04121500000025,
                    "velocity": 0.7244094488188977,
                    "duration": 0.20618550000000369
                },
                {
                    "name": "G3",
                    "midi": 55,
                    "time": 68.24740050000025,
                    "velocity": 0.5826771653543307,
                    "duration": 0.20618550000000369
                },
                {
                    "name": "B3",
                    "midi": 59,
                    "time": 68.24740050000025,
                    "velocity": 0.6929133858267716,
                    "duration": 0.20618550000000369
                },
                {
                    "name": "G2",
                    "midi": 43,
                    "time": 68.45358600000026,
                    "velocity": 0.6062992125984252,
                    "duration": 0.8247420000000147
                },
                {
                    "name": "F3",
                    "midi": 53,
                    "time": 68.45358600000026,
                    "velocity": 0.7244094488188977,
                    "duration": 0.8247420000000147
                },
                {
                    "name": "G2",
                    "midi": 43,
                    "time": 69.27832800000027,
                    "velocity": 0.5590551181102362,
                    "duration": 0.41237099999999316
                },
                {
                    "name": "G3",
                    "midi": 55,
                    "time": 69.27832800000027,
                    "velocity": 0.6614173228346457,
                    "duration": 0.41237099999999316
                },
                {
                    "name": "F#2",
                    "midi": 42,
                    "time": 69.69069900000027,
                    "velocity": 0.5039370078740157,
                    "duration": 0.41237100000000737
                },
                {
                    "name": "F#3",
                    "midi": 54,
                    "time": 69.69069900000027,
                    "velocity": 0.6062992125984252,
                    "duration": 0.41237100000000737
                },
                {
                    "name": "F2",
                    "midi": 41,
                    "time": 70.10307000000027,
                    "velocity": 0.6062992125984252,
                    "duration": 0.41237100000000737
                },
                {
                    "name": "F3",
                    "midi": 53,
                    "time": 70.10307000000027,
                    "velocity": 0.7086614173228346,
                    "duration": 0.41237100000000737
                },
                {
                    "name": "F#2",
                    "midi": 42,
                    "time": 70.51544100000028,
                    "velocity": 0.5669291338582677,
                    "duration": 0.41237100000000737
                },
                {
                    "name": "F#3",
                    "midi": 54,
                    "time": 70.51544100000028,
                    "velocity": 0.6771653543307087,
                    "duration": 0.41237100000000737
                },
                {
                    "name": "B2",
                    "midi": 47,
                    "time": 70.92781200000029,
                    "velocity": 0.6141732283464567,
                    "duration": 0.10309275000000184
                },
                {
                    "name": "B3",
                    "midi": 59,
                    "time": 71.03090475000029,
                    "velocity": 0.5354330708661418,
                    "duration": 0.10309275000000184
                },
                {
                    "name": "D4",
                    "midi": 62,
                    "time": 71.13399750000029,
                    "velocity": 0.5433070866141733,
                    "duration": 0.10309275000000184
                },
                {
                    "name": "B3",
                    "midi": 59,
                    "time": 71.23709025000029,
                    "velocity": 0.5433070866141733,
                    "duration": 0.10309275000000184
                },
                {
                    "name": "F#3",
                    "midi": 54,
                    "time": 71.3401830000003,
                    "velocity": 0.6220472440944882,
                    "duration": 0.10309275000000184
                },
                {
                    "name": "B3",
                    "midi": 59,
                    "time": 71.4432757500003,
                    "velocity": 0.5590551181102362,
                    "duration": 0.10309275000000184
                },
                {
                    "name": "D3",
                    "midi": 50,
                    "time": 71.5463685000003,
                    "velocity": 0.5905511811023622,
                    "duration": 0.10309275000000184
                },
                {
                    "name": "F#3",
                    "midi": 54,
                    "time": 71.6494612500003,
                    "velocity": 0.5590551181102362,
                    "duration": 0.10309275000000184
                },
                {
                    "name": "F#2",
                    "midi": 42,
                    "time": 71.7525540000003,
                    "velocity": 0.6141732283464567,
                    "duration": 0.10309274999998763
                },
                {
                    "name": "F#3",
                    "midi": 54,
                    "time": 71.85564675000029,
                    "velocity": 0.5354330708661418,
                    "duration": 0.10309275000000184
                },
                {
                    "name": "A#3",
                    "midi": 58,
                    "time": 71.95873950000029,
                    "velocity": 0.5748031496062992,
                    "duration": 0.10309275000000184
                },
                {
                    "name": "F#3",
                    "midi": 54,
                    "time": 72.0618322500003,
                    "velocity": 0.5275590551181102,
                    "duration": 0.10309275000000184
                },
                {
                    "name": "C#3",
                    "midi": 49,
                    "time": 72.1649250000003,
                    "velocity": 0.5826771653543307,
                    "duration": 0.10309275000000184
                },
                {
                    "name": "F#3",
                    "midi": 54,
                    "time": 72.2680177500003,
                    "velocity": 0.5118110236220472,
                    "duration": 0.10309275000000184
                },
                {
                    "name": "A#2",
                    "midi": 46,
                    "time": 72.3711105000003,
                    "velocity": 0.5590551181102362,
                    "duration": 0.10309275000000184
                },
                {
                    "name": "C#3",
                    "midi": 49,
                    "time": 72.4742032500003,
                    "velocity": 0.5118110236220472,
                    "duration": 0.10309275000000184
                },
                {
                    "name": "A2",
                    "midi": 45,
                    "time": 72.5772960000003,
                    "velocity": 0.6141732283464567,
                    "duration": 0.10309274999998763
                },
                {
                    "name": "A3",
                    "midi": 57,
                    "time": 72.68038875000029,
                    "velocity": 0.5354330708661418,
                    "duration": 0.10309275000000184
                },
                {
                    "name": "C#4",
                    "midi": 61,
                    "time": 72.78348150000029,
                    "velocity": 0.5433070866141733,
                    "duration": 0.10309275000000184
                },
                {
                    "name": "A3",
                    "midi": 57,
                    "time": 72.8865742500003,
                    "velocity": 0.5433070866141733,
                    "duration": 0.10309275000000184
                },
                {
                    "name": "E3",
                    "midi": 52,
                    "time": 72.9896670000003,
                    "velocity": 0.6220472440944882,
                    "duration": 0.10309275000000184
                },
                {
                    "name": "A3",
                    "midi": 57,
                    "time": 73.0927597500003,
                    "velocity": 0.5590551181102362,
                    "duration": 0.10309275000000184
                },
                {
                    "name": "C#3",
                    "midi": 49,
                    "time": 73.1958525000003,
                    "velocity": 0.5905511811023622,
                    "duration": 0.10309275000000184
                },
                {
                    "name": "E3",
                    "midi": 52,
                    "time": 73.2989452500003,
                    "velocity": 0.5590551181102362,
                    "duration": 0.10309275000000184
                },
                {
                    "name": "E2",
                    "midi": 40,
                    "time": 73.4020380000003,
                    "velocity": 0.6141732283464567,
                    "duration": 0.10309275000000184
                },
                {
                    "name": "E3",
                    "midi": 52,
                    "time": 73.5051307500003,
                    "velocity": 0.5354330708661418,
                    "duration": 0.10309275000000184
                },
                {
                    "name": "G#3",
                    "midi": 56,
                    "time": 73.6082235000003,
                    "velocity": 0.5748031496062992,
                    "duration": 0.10309275000000184
                },
                {
                    "name": "E3",
                    "midi": 52,
                    "time": 73.71131625000031,
                    "velocity": 0.5275590551181102,
                    "duration": 0.10309275000000184
                },
                {
                    "name": "B2",
                    "midi": 47,
                    "time": 73.81440900000031,
                    "velocity": 0.5826771653543307,
                    "duration": 0.10309275000000184
                },
                {
                    "name": "E3",
                    "midi": 52,
                    "time": 73.91750175000031,
                    "velocity": 0.5118110236220472,
                    "duration": 0.10309275000000184
                },
                {
                    "name": "G#2",
                    "midi": 44,
                    "time": 74.02059450000031,
                    "velocity": 0.5590551181102362,
                    "duration": 0.10309275000000184
                },
                {
                    "name": "B2",
                    "midi": 47,
                    "time": 74.12368725000032,
                    "velocity": 0.5118110236220472,
                    "duration": 0.10309275000000184
                },
                {
                    "name": "G2",
                    "midi": 43,
                    "time": 74.22678000000032,
                    "velocity": 0.5590551181102362,
                    "duration": 0.10309275000000184
                },
                {
                    "name": "G3",
                    "midi": 55,
                    "time": 74.32987275000032,
                    "velocity": 0.48031496062992124,
                    "duration": 0.10309275000000184
                },
                {
                    "name": "B3",
                    "midi": 59,
                    "time": 74.43296550000032,
                    "velocity": 0.4881889763779528,
                    "duration": 0.10309275000000184
                },
                {
                    "name": "G3",
                    "midi": 55,
                    "time": 74.53605825000032,
                    "velocity": 0.4881889763779528,
                    "duration": 0.10309275000000184
                },
                {
                    "name": "D3",
                    "midi": 50,
                    "time": 74.63915100000033,
                    "velocity": 0.5590551181102362,
                    "duration": 0.10309275000000184
                },
                {
                    "name": "G3",
                    "midi": 55,
                    "time": 74.74224375000033,
                    "velocity": 0.49606299212598426,
                    "duration": 0.10309275000000184
                },
                {
                    "name": "B2",
                    "midi": 47,
                    "time": 74.84533650000033,
                    "velocity": 0.5196850393700787,
                    "duration": 0.10309275000000184
                },
                {
                    "name": "D3",
                    "midi": 50,
                    "time": 74.94842925000033,
                    "velocity": 0.4881889763779528,
                    "duration": 0.10309275000000184
                },
                {
                    "name": "D2",
                    "midi": 38,
                    "time": 75.05152200000033,
                    "velocity": 0.5433070866141733,
                    "duration": 0.10309275000000184
                },
                {
                    "name": "D3",
                    "midi": 50,
                    "time": 75.15461475000033,
                    "velocity": 0.4645669291338583,
                    "duration": 0.10309275000000184
                },
                {
                    "name": "F#3",
                    "midi": 54,
                    "time": 75.25770750000034,
                    "velocity": 0.4566929133858268,
                    "duration": 0.10309275000000184
                },
                {
                    "name": "A3",
                    "midi": 57,
                    "time": 75.36080025000034,
                    "velocity": 0.44881889763779526,
                    "duration": 0.10309275000000184
                },
                {
                    "name": "G2",
                    "midi": 43,
                    "time": 75.46389300000034,
                    "velocity": 0.49606299212598426,
                    "duration": 0.10309275000000184
                },
                {
                    "name": "B2",
                    "midi": 47,
                    "time": 75.56698575000034,
                    "velocity": 0.4330708661417323,
                    "duration": 0.10309275000000184
                },
                {
                    "name": "G3",
                    "midi": 55,
                    "time": 75.67007850000034,
                    "velocity": 0.4330708661417323,
                    "duration": 0.10309275000000184
                },
                {
                    "name": "B3",
                    "midi": 59,
                    "time": 75.77317125000035,
                    "velocity": 0.4251968503937008,
                    "duration": 0.10309275000000184
                },
                {
                    "name": "D2",
                    "midi": 38,
                    "time": 75.87626400000035,
                    "velocity": 0.5196850393700787,
                    "duration": 0.10309275000000184
                },
                {
                    "name": "D3",
                    "midi": 50,
                    "time": 75.97935675000035,
                    "velocity": 0.44881889763779526,
                    "duration": 0.10309275000000184
                },
                {
                    "name": "G3",
                    "midi": 55,
                    "time": 76.08244950000035,
                    "velocity": 0.44881889763779526,
                    "duration": 0.10309275000000184
                },
                {
                    "name": "A3",
                    "midi": 57,
                    "time": 76.18554225000035,
                    "velocity": 0.44881889763779526,
                    "duration": 0.10309275000000184
                },
                {
                    "name": "D2",
                    "midi": 38,
                    "time": 76.28863500000035,
                    "velocity": 0.5118110236220472,
                    "duration": 0.10309275000000184
                },
                {
                    "name": "D3",
                    "midi": 50,
                    "time": 76.39172775000036,
                    "velocity": 0.4566929133858268,
                    "duration": 0.10309275000000184
                },
                {
                    "name": "F#3",
                    "midi": 54,
                    "time": 76.49482050000036,
                    "velocity": 0.48031496062992124,
                    "duration": 0.10309275000000184
                },
                {
                    "name": "A3",
                    "midi": 57,
                    "time": 76.59791325000036,
                    "velocity": 0.44881889763779526,
                    "duration": 0.10309275000000184
                },
                {
                    "name": "G1",
                    "midi": 31,
                    "time": 76.70100600000036,
                    "velocity": 0.49606299212598426,
                    "duration": 0.10309275000000184
                },
                {
                    "name": "G2",
                    "midi": 43,
                    "time": 76.80409875000036,
                    "velocity": 0.4251968503937008,
                    "duration": 0.10309275000000184
                },
                {
                    "name": "B2",
                    "midi": 47,
                    "time": 76.90719150000037,
                    "velocity": 0.41732283464566927,
                    "duration": 0.10309275000000184
                },
                {
                    "name": "D3",
                    "midi": 50,
                    "time": 77.01028425000037,
                    "velocity": 0.41732283464566927,
                    "duration": 0.10309275000000184
                },
                {
                    "name": "G3",
                    "midi": 55,
                    "time": 77.11337700000037,
                    "velocity": 0.4566929133858268,
                    "duration": 0.10309275000000184
                },
                {
                    "name": "D3",
                    "midi": 50,
                    "time": 77.21646975000037,
                    "velocity": 0.3937007874015748,
                    "duration": 0.10309275000000184
                },
                {
                    "name": "B2",
                    "midi": 47,
                    "time": 77.31956250000037,
                    "velocity": 0.3937007874015748,
                    "duration": 0.10309275000000184
                },
                {
                    "name": "G2",
                    "midi": 43,
                    "time": 77.42265525000037,
                    "velocity": 0.3937007874015748,
                    "duration": 0.10309275000000184
                },
                {
                    "name": "G1",
                    "midi": 31,
                    "time": 77.52574800000038,
                    "velocity": 0.49606299212598426,
                    "duration": 0.10309274999998763
                },
                {
                    "name": "G3",
                    "midi": 55,
                    "time": 77.62884075000036,
                    "velocity": 0.4330708661417323,
                    "duration": 0.10309275000000184
                },
                {
                    "name": "B3",
                    "midi": 59,
                    "time": 77.73193350000037,
                    "velocity": 0.4409448818897638,
                    "duration": 0.10309275000000184
                },
                {
                    "name": "G3",
                    "midi": 55,
                    "time": 77.83502625000037,
                    "velocity": 0.4409448818897638,
                    "duration": 0.10309275000000184
                },
                {
                    "name": "D3",
                    "midi": 50,
                    "time": 77.93811900000037,
                    "velocity": 0.5039370078740157,
                    "duration": 0.10309275000000184
                },
                {
                    "name": "G3",
                    "midi": 55,
                    "time": 78.04121175000037,
                    "velocity": 0.44881889763779526,
                    "duration": 0.10309275000000184
                },
                {
                    "name": "B2",
                    "midi": 47,
                    "time": 78.14430450000037,
                    "velocity": 0.48031496062992124,
                    "duration": 0.10309275000000184
                },
                {
                    "name": "D3",
                    "midi": 50,
                    "time": 78.24739725000038,
                    "velocity": 0.44881889763779526,
                    "duration": 0.10309275000000184
                },
                {
                    "name": "D2",
                    "midi": 38,
                    "time": 78.35049000000038,
                    "velocity": 0.49606299212598426,
                    "duration": 0.10309275000000184
                },
                {
                    "name": "D3",
                    "midi": 50,
                    "time": 78.45358275000038,
                    "velocity": 0.4330708661417323,
                    "duration": 0.10309275000000184
                },
                {
                    "name": "F#3",
                    "midi": 54,
                    "time": 78.55667550000038,
                    "velocity": 0.4645669291338583,
                    "duration": 0.10309275000000184
                },
                {
                    "name": "D3",
                    "midi": 50,
                    "time": 78.65976825000038,
                    "velocity": 0.4251968503937008,
                    "duration": 0.10309275000000184
                },
                {
                    "name": "A2",
                    "midi": 45,
                    "time": 78.76286100000038,
                    "velocity": 0.47244094488188976,
                    "duration": 0.10309275000000184
                },
                {
                    "name": "D3",
                    "midi": 50,
                    "time": 78.86595375000039,
                    "velocity": 0.4094488188976378,
                    "duration": 0.10309275000000184
                },
                {
                    "name": "F#2",
                    "midi": 42,
                    "time": 78.96904650000039,
                    "velocity": 0.44881889763779526,
                    "duration": 0.10309275000000184
                },
                {
                    "name": "A2",
                    "midi": 45,
                    "time": 79.07213925000039,
                    "velocity": 0.4094488188976378,
                    "duration": 0.10309275000000184
                },
                {
                    "name": "F2",
                    "midi": 41,
                    "time": 79.17523200000039,
                    "velocity": 0.49606299212598426,
                    "duration": 0.10309275000000184
                },
                {
                    "name": "F3",
                    "midi": 53,
                    "time": 79.2783247500004,
                    "velocity": 0.4330708661417323,
                    "duration": 0.10309275000000184
                },
                {
                    "name": "A3",
                    "midi": 57,
                    "time": 79.3814175000004,
                    "velocity": 0.4409448818897638,
                    "duration": 0.10309275000000184
                },
                {
                    "name": "F3",
                    "midi": 53,
                    "time": 79.4845102500004,
                    "velocity": 0.4409448818897638,
                    "duration": 0.10309275000000184
                },
                {
                    "name": "C3",
                    "midi": 48,
                    "time": 79.5876030000004,
                    "velocity": 0.5039370078740157,
                    "duration": 0.10309275000000184
                },
                {
                    "name": "F3",
                    "midi": 53,
                    "time": 79.6906957500004,
                    "velocity": 0.44881889763779526,
                    "duration": 0.10309275000000184
                },
                {
                    "name": "A2",
                    "midi": 45,
                    "time": 79.7937885000004,
                    "velocity": 0.48031496062992124,
                    "duration": 0.10309275000000184
                },
                {
                    "name": "C3",
                    "midi": 48,
                    "time": 79.8968812500004,
                    "velocity": 0.44881889763779526,
                    "duration": 0.10309275000000184
                },
                {
                    "name": "C2",
                    "midi": 36,
                    "time": 79.9999740000004,
                    "velocity": 0.49606299212598426,
                    "duration": 0.10309275000000184
                },
                {
                    "name": "C3",
                    "midi": 48,
                    "time": 80.10306675000041,
                    "velocity": 0.4330708661417323,
                    "duration": 0.10309275000000184
                },
                {
                    "name": "E3",
                    "midi": 52,
                    "time": 80.20615950000041,
                    "velocity": 0.4645669291338583,
                    "duration": 0.10309275000000184
                },
                {
                    "name": "C3",
                    "midi": 48,
                    "time": 80.30925225000041,
                    "velocity": 0.4251968503937008,
                    "duration": 0.10309275000000184
                },
                {
                    "name": "G2",
                    "midi": 43,
                    "time": 80.41234500000041,
                    "velocity": 0.47244094488188976,
                    "duration": 0.10309275000000184
                },
                {
                    "name": "C3",
                    "midi": 48,
                    "time": 80.51543775000042,
                    "velocity": 0.4094488188976378,
                    "duration": 0.10309275000000184
                },
                {
                    "name": "E2",
                    "midi": 40,
                    "time": 80.61853050000042,
                    "velocity": 0.44881889763779526,
                    "duration": 0.10309275000000184
                },
                {
                    "name": "G2",
                    "midi": 43,
                    "time": 80.72162325000042,
                    "velocity": 0.4094488188976378,
                    "duration": 0.10309275000000184
                },
                {
                    "name": "E2",
                    "midi": 40,
                    "time": 80.82471600000042,
                    "velocity": 0.47244094488188976,
                    "duration": 0.10309275000000184
                },
                {
                    "name": "E3",
                    "midi": 52,
                    "time": 80.92780875000042,
                    "velocity": 0.4015748031496063,
                    "duration": 0.10309275000000184
                },
                {
                    "name": "G3",
                    "midi": 55,
                    "time": 81.03090150000043,
                    "velocity": 0.4094488188976378,
                    "duration": 0.10309275000000184
                },
                {
                    "name": "E3",
                    "midi": 52,
                    "time": 81.13399425000043,
                    "velocity": 0.4094488188976378,
                    "duration": 0.10309275000000184
                },
                {
                    "name": "B2",
                    "midi": 47,
                    "time": 81.23708700000043,
                    "velocity": 0.47244094488188976,
                    "duration": 0.10309275000000184
                },
                {
                    "name": "E3",
                    "midi": 52,
                    "time": 81.34017975000043,
                    "velocity": 0.41732283464566927,
                    "duration": 0.10309275000000184
                },
                {
                    "name": "G2",
                    "midi": 43,
                    "time": 81.44327250000043,
                    "velocity": 0.4409448818897638,
                    "duration": 0.10309275000000184
                },
                {
                    "name": "B2",
                    "midi": 47,
                    "time": 81.54636525000043,
                    "velocity": 0.4094488188976378,
                    "duration": 0.10309275000000184
                },
                {
                    "name": "B1",
                    "midi": 35,
                    "time": 81.64945800000044,
                    "velocity": 0.4566929133858268,
                    "duration": 0.10309275000000184
                },
                {
                    "name": "B2",
                    "midi": 47,
                    "time": 81.75255075000044,
                    "velocity": 0.3937007874015748,
                    "duration": 0.10309275000000184
                },
                {
                    "name": "D#3",
                    "midi": 51,
                    "time": 81.85564350000044,
                    "velocity": 0.3858267716535433,
                    "duration": 0.10309275000000184
                },
                {
                    "name": "F#3",
                    "midi": 54,
                    "time": 81.95873625000044,
                    "velocity": 0.3779527559055118,
                    "duration": 0.10309275000000184
                },
                {
                    "name": "E2",
                    "midi": 40,
                    "time": 82.06182900000044,
                    "velocity": 0.41732283464566927,
                    "duration": 0.10309275000000184
                },
                {
                    "name": "B2",
                    "midi": 47,
                    "time": 82.16492175000045,
                    "velocity": 0.36220472440944884,
                    "duration": 0.10309275000000184
                },
                {
                    "name": "E3",
                    "midi": 52,
                    "time": 82.26801450000045,
                    "velocity": 0.36220472440944884,
                    "duration": 0.10309275000000184
                },
                {
                    "name": "G3",
                    "midi": 55,
                    "time": 82.37110725000045,
                    "velocity": 0.3543307086614173,
                    "duration": 0.10309275000000184
                },
                {
                    "name": "B1",
                    "midi": 35,
                    "time": 82.47420000000045,
                    "velocity": 0.4409448818897638,
                    "duration": 0.10309275000000184
                },
                {
                    "name": "B2",
                    "midi": 47,
                    "time": 82.57729275000045,
                    "velocity": 0.3779527559055118,
                    "duration": 0.10309275000000184
                },
                {
                    "name": "E3",
                    "midi": 52,
                    "time": 82.68038550000045,
                    "velocity": 0.3779527559055118,
                    "duration": 0.10309275000000184
                },
                {
                    "name": "F#3",
                    "midi": 54,
                    "time": 82.78347825000046,
                    "velocity": 0.3779527559055118,
                    "duration": 0.10309275000000184
                },
                {
                    "name": "B1",
                    "midi": 35,
                    "time": 82.88657100000046,
                    "velocity": 0.4330708661417323,
                    "duration": 0.10309275000000184
                },
                {
                    "name": "B2",
                    "midi": 47,
                    "time": 82.98966375000046,
                    "velocity": 0.3858267716535433,
                    "duration": 0.10309275000000184
                },
                {
                    "name": "D#3",
                    "midi": 51,
                    "time": 83.09275650000046,
                    "velocity": 0.4015748031496063,
                    "duration": 0.10309275000000184
                },
                {
                    "name": "F#3",
                    "midi": 54,
                    "time": 83.19584925000046,
                    "velocity": 0.3779527559055118,
                    "duration": 0.10309275000000184
                },
                {
                    "name": "E2",
                    "midi": 40,
                    "time": 83.29894200000047,
                    "velocity": 0.41732283464566927,
                    "duration": 0.10309275000000184
                },
                {
                    "name": "E3",
                    "midi": 52,
                    "time": 83.40203475000047,
                    "velocity": 0.3543307086614173,
                    "duration": 0.10309275000000184
                },
                {
                    "name": "G3",
                    "midi": 55,
                    "time": 83.50512750000047,
                    "velocity": 0.3543307086614173,
                    "duration": 0.10309275000000184
                },
                {
                    "name": "B3",
                    "midi": 59,
                    "time": 83.60822025000047,
                    "velocity": 0.3543307086614173,
                    "duration": 0.10309275000000184
                },
                {
                    "name": "E4",
                    "midi": 64,
                    "time": 83.71131300000047,
                    "velocity": 0.3858267716535433,
                    "duration": 0.10309275000000184
                },
                {
                    "name": "B3",
                    "midi": 59,
                    "time": 83.81440575000047,
                    "velocity": 0.33070866141732286,
                    "duration": 0.10309275000000184
                },
                {
                    "name": "G3",
                    "midi": 55,
                    "time": 83.91749850000048,
                    "velocity": 0.33070866141732286,
                    "duration": 0.10309275000000184
                },
                {
                    "name": "E3",
                    "midi": 52,
                    "time": 84.02059125000048,
                    "velocity": 0.33070866141732286,
                    "duration": 0.10309275000000184
                },
                {
                    "name": "C4",
                    "midi": 60,
                    "time": 84.12368400000048,
                    "velocity": 0.3858267716535433,
                    "duration": 0.07731956249999428
                },
                {
                    "name": "E4",
                    "midi": 64,
                    "time": 84.12368400000048,
                    "velocity": 0.4645669291338583,
                    "duration": 0.07731956249999428
                },
                {
                    "name": "B3",
                    "midi": 59,
                    "time": 84.32986950000047,
                    "velocity": 0.3779527559055118,
                    "duration": 0.07731956249999428
                },
                {
                    "name": "D4",
                    "midi": 62,
                    "time": 84.32986950000047,
                    "velocity": 0.4409448818897638,
                    "duration": 0.07731956249999428
                },
                {
                    "name": "A3",
                    "midi": 57,
                    "time": 84.53605500000046,
                    "velocity": 0.3779527559055118,
                    "duration": 0.07731956249999428
                },
                {
                    "name": "C4",
                    "midi": 60,
                    "time": 84.53605500000046,
                    "velocity": 0.4409448818897638,
                    "duration": 0.07731956249999428
                },
                {
                    "name": "E3",
                    "midi": 52,
                    "time": 84.74224050000045,
                    "velocity": 0.3779527559055118,
                    "duration": 0.07731956249999428
                },
                {
                    "name": "B3",
                    "midi": 59,
                    "time": 84.74224050000045,
                    "velocity": 0.4409448818897638,
                    "duration": 0.07731956249999428
                },
                {
                    "name": "C3",
                    "midi": 48,
                    "time": 84.94842600000044,
                    "velocity": 0.4015748031496063,
                    "duration": 0.6185564999999968
                },
                {
                    "name": "A3",
                    "midi": 57,
                    "time": 84.94842600000044,
                    "velocity": 0.47244094488188976,
                    "duration": 0.6185564999999968
                },
                {
                    "name": "G3",
                    "midi": 55,
                    "time": 85.56698250000044,
                    "velocity": 0.3779527559055118,
                    "duration": 0.07731956249999428
                },
                {
                    "name": "F4",
                    "midi": 65,
                    "time": 85.56698250000044,
                    "velocity": 0.44881889763779526,
                    "duration": 0.07731956249999428
                },
                {
                    "name": "F#3",
                    "midi": 54,
                    "time": 85.77316800000042,
                    "velocity": 0.3858267716535433,
                    "duration": 0.07731956249999428
                },
                {
                    "name": "F#4",
                    "midi": 66,
                    "time": 85.77316800000042,
                    "velocity": 0.4645669291338583,
                    "duration": 0.07731956249999428
                },
                {
                    "name": "C#4",
                    "midi": 61,
                    "time": 85.97935350000041,
                    "velocity": 0.3779527559055118,
                    "duration": 0.07731956249999428
                },
                {
                    "name": "E4",
                    "midi": 64,
                    "time": 85.97935350000041,
                    "velocity": 0.4409448818897638,
                    "duration": 0.07731956249999428
                },
                {
                    "name": "B3",
                    "midi": 59,
                    "time": 86.1855390000004,
                    "velocity": 0.3779527559055118,
                    "duration": 0.07731956249999428
                },
                {
                    "name": "D4",
                    "midi": 62,
                    "time": 86.1855390000004,
                    "velocity": 0.4409448818897638,
                    "duration": 0.07731956249999428
                },
                {
                    "name": "F#3",
                    "midi": 54,
                    "time": 86.3917245000004,
                    "velocity": 0.3779527559055118,
                    "duration": 0.07731956249999428
                },
                {
                    "name": "C#4",
                    "midi": 61,
                    "time": 86.3917245000004,
                    "velocity": 0.4409448818897638,
                    "duration": 0.07731956249999428
                },
                {
                    "name": "D3",
                    "midi": 50,
                    "time": 86.59791000000038,
                    "velocity": 0.4015748031496063,
                    "duration": 0.6185564999999968
                },
                {
                    "name": "B3",
                    "midi": 59,
                    "time": 86.59791000000038,
                    "velocity": 0.47244094488188976,
                    "duration": 0.6185564999999968
                },
                {
                    "name": "C3",
                    "midi": 48,
                    "time": 87.21646650000038,
                    "velocity": 0.3779527559055118,
                    "duration": 0.07731956249999428
                },
                {
                    "name": "A3",
                    "midi": 57,
                    "time": 87.21646650000038,
                    "velocity": 0.44881889763779526,
                    "duration": 0.07731956249999428
                },
                {
                    "name": "B2",
                    "midi": 47,
                    "time": 87.42265200000037,
                    "velocity": 0.3858267716535433,
                    "duration": 0.07731956249999428
                },
                {
                    "name": "G#3",
                    "midi": 56,
                    "time": 87.42265200000037,
                    "velocity": 0.4645669291338583,
                    "duration": 0.07731956249999428
                },
                {
                    "name": "D3",
                    "midi": 50,
                    "time": 87.62883750000036,
                    "velocity": 0.36220472440944884,
                    "duration": 0.07731956249999428
                },
                {
                    "name": "B3",
                    "midi": 59,
                    "time": 87.62883750000036,
                    "velocity": 0.4330708661417323,
                    "duration": 0.07731956249999428
                },
                {
                    "name": "B2",
                    "midi": 47,
                    "time": 87.83502300000035,
                    "velocity": 0.3858267716535433,
                    "duration": 0.07731956249999428
                },
                {
                    "name": "G#3",
                    "midi": 56,
                    "time": 87.83502300000035,
                    "velocity": 0.4645669291338583,
                    "duration": 0.07731956249999428
                },
                {
                    "name": "D3",
                    "midi": 50,
                    "time": 88.04120850000034,
                    "velocity": 0.3464566929133858,
                    "duration": 0.07731956249999428
                },
                {
                    "name": "B3",
                    "midi": 59,
                    "time": 88.04120850000034,
                    "velocity": 0.41732283464566927,
                    "duration": 0.07731956249999428
                },
                {
                    "name": "D4",
                    "midi": 62,
                    "time": 88.24739400000033,
                    "velocity": 0.4645669291338583,
                    "duration": 0.07731956249999428
                },
                {
                    "name": "F4",
                    "midi": 65,
                    "time": 88.24739400000033,
                    "velocity": 0.5511811023622047,
                    "duration": 0.07731956249999428
                },
                {
                    "name": "D4",
                    "midi": 62,
                    "time": 88.45357950000032,
                    "velocity": 0.44881889763779526,
                    "duration": 0.6185564999999968
                },
                {
                    "name": "F4",
                    "midi": 65,
                    "time": 88.45357950000032,
                    "velocity": 0.5354330708661418,
                    "duration": 0.6185564999999968
                },
                {
                    "name": "A#2",
                    "midi": 46,
                    "time": 89.07213600000031,
                    "velocity": 0.3858267716535433,
                    "duration": 0.07731956249999428
                },
                {
                    "name": "G3",
                    "midi": 55,
                    "time": 89.07213600000031,
                    "velocity": 0.4645669291338583,
                    "duration": 0.07731956249999428
                },
                {
                    "name": "C#3",
                    "midi": 49,
                    "time": 89.2783215000003,
                    "velocity": 0.36220472440944884,
                    "duration": 0.07731956249999428
                },
                {
                    "name": "A#3",
                    "midi": 58,
                    "time": 89.2783215000003,
                    "velocity": 0.4330708661417323,
                    "duration": 0.07731956249999428
                },
                {
                    "name": "A#2",
                    "midi": 46,
                    "time": 89.48450700000029,
                    "velocity": 0.3858267716535433,
                    "duration": 0.07731956249999428
                },
                {
                    "name": "G3",
                    "midi": 55,
                    "time": 89.48450700000029,
                    "velocity": 0.4645669291338583,
                    "duration": 0.07731956249999428
                },
                {
                    "name": "C#3",
                    "midi": 49,
                    "time": 89.69069250000028,
                    "velocity": 0.3464566929133858,
                    "duration": 0.07731956249999428
                },
                {
                    "name": "A#3",
                    "midi": 58,
                    "time": 89.69069250000028,
                    "velocity": 0.41732283464566927,
                    "duration": 0.07731956249999428
                },
                {
                    "name": "C#4",
                    "midi": 61,
                    "time": 89.89687800000027,
                    "velocity": 0.4645669291338583,
                    "duration": 0.07731956249999428
                },
                {
                    "name": "E4",
                    "midi": 64,
                    "time": 89.89687800000027,
                    "velocity": 0.5511811023622047,
                    "duration": 0.07731956249999428
                },
                {
                    "name": "C#4",
                    "midi": 61,
                    "time": 90.10306350000026,
                    "velocity": 0.4409448818897638,
                    "duration": 0.6185564999999968
                },
                {
                    "name": "E4",
                    "midi": 64,
                    "time": 90.10306350000026,
                    "velocity": 0.5275590551181102,
                    "duration": 0.6185564999999968
                },
                {
                    "name": "A2",
                    "midi": 45,
                    "time": 90.72162000000026,
                    "velocity": 0.3858267716535433,
                    "duration": 0.07731956249999428
                },
                {
                    "name": "F#3",
                    "midi": 54,
                    "time": 90.72162000000026,
                    "velocity": 0.4645669291338583,
                    "duration": 0.07731956249999428
                },
                {
                    "name": "C3",
                    "midi": 48,
                    "time": 90.92780550000025,
                    "velocity": 0.36220472440944884,
                    "duration": 0.07731956249999428
                },
                {
                    "name": "A3",
                    "midi": 57,
                    "time": 90.92780550000025,
                    "velocity": 0.4330708661417323,
                    "duration": 0.07731956249999428
                },
                {
                    "name": "C4",
                    "midi": 60,
                    "time": 91.13399100000024,
                    "velocity": 0.4094488188976378,
                    "duration": 0.41237099999999316
                },
                {
                    "name": "D#4",
                    "midi": 63,
                    "time": 91.13399100000024,
                    "velocity": 0.4645669291338583,
                    "duration": 0.41237099999999316
                },
                {
                    "name": "G#2",
                    "midi": 44,
                    "time": 91.54636200000023,
                    "velocity": 0.3858267716535433,
                    "duration": 0.07731956249999428
                },
                {
                    "name": "F3",
                    "midi": 53,
                    "time": 91.54636200000023,
                    "velocity": 0.4645669291338583,
                    "duration": 0.07731956249999428
                },
                {
                    "name": "B2",
                    "midi": 47,
                    "time": 91.75254750000022,
                    "velocity": 0.36220472440944884,
                    "duration": 0.07731956249999428
                },
                {
                    "name": "G#3",
                    "midi": 56,
                    "time": 91.75254750000022,
                    "velocity": 0.4330708661417323,
                    "duration": 0.07731956249999428
                },
                {
                    "name": "B3",
                    "midi": 59,
                    "time": 91.95873300000021,
                    "velocity": 0.4094488188976378,
                    "duration": 0.41237099999999316
                },
                {
                    "name": "D4",
                    "midi": 62,
                    "time": 91.95873300000021,
                    "velocity": 0.4645669291338583,
                    "duration": 0.41237099999999316
                },
                {
                    "name": "G2",
                    "midi": 43,
                    "time": 92.3711040000002,
                    "velocity": 0.36220472440944884,
                    "duration": 0.07731956249999428
                },
                {
                    "name": "E3",
                    "midi": 52,
                    "time": 92.3711040000002,
                    "velocity": 0.4409448818897638,
                    "duration": 0.07731956249999428
                },
                {
                    "name": "A#2",
                    "midi": 46,
                    "time": 92.57728950000019,
                    "velocity": 0.33858267716535434,
                    "duration": 0.07731956249999428
                },
                {
                    "name": "G3",
                    "midi": 55,
                    "time": 92.57728950000019,
                    "velocity": 0.4015748031496063,
                    "duration": 0.07731956249999428
                },
                {
                    "name": "A#3",
                    "midi": 58,
                    "time": 92.78347500000018,
                    "velocity": 0.3700787401574803,
                    "duration": 0.41237099999999316
                },
                {
                    "name": "C#4",
                    "midi": 61,
                    "time": 92.78347500000018,
                    "velocity": 0.4251968503937008,
                    "duration": 0.41237099999999316
                },
                {
                    "name": "F#2",
                    "midi": 42,
                    "time": 93.19584600000017,
                    "velocity": 0.33858267716535434,
                    "duration": 0.07731956249999428
                },
                {
                    "name": "D#3",
                    "midi": 51,
                    "time": 93.19584600000017,
                    "velocity": 0.4015748031496063,
                    "duration": 0.07731956249999428
                },
                {
                    "name": "A2",
                    "midi": 45,
                    "time": 93.40203150000016,
                    "velocity": 0.30708661417322836,
                    "duration": 0.07731956249999428
                },
                {
                    "name": "F#3",
                    "midi": 54,
                    "time": 93.40203150000016,
                    "velocity": 0.3700787401574803,
                    "duration": 0.07731956249999428
                },
                {
                    "name": "A3",
                    "midi": 57,
                    "time": 93.60821700000015,
                    "velocity": 0.33858267716535434,
                    "duration": 0.41237099999999316
                },
                {
                    "name": "C4",
                    "midi": 60,
                    "time": 93.60821700000015,
                    "velocity": 0.3858267716535433,
                    "duration": 0.41237099999999316
                },
                {
                    "name": "G#1",
                    "midi": 32,
                    "time": 94.02058800000015,
                    "velocity": 0.2992125984251969,
                    "duration": 0.10309275000000184
                },
                {
                    "name": "G#2",
                    "midi": 44,
                    "time": 94.12368075000015,
                    "velocity": 0.28346456692913385,
                    "duration": 0.10309275000000184
                },
                {
                    "name": "G#1",
                    "midi": 32,
                    "time": 94.22677350000015,
                    "velocity": 0.30708661417322836,
                    "duration": 0.10309275000000184
                },
                {
                    "name": "G#2",
                    "midi": 44,
                    "time": 94.32986625000015,
                    "velocity": 0.28346456692913385,
                    "duration": 0.10309275000000184
                },
                {
                    "name": "G#1",
                    "midi": 32,
                    "time": 94.43295900000015,
                    "velocity": 0.3228346456692913,
                    "duration": 0.10309275000000184
                },
                {
                    "name": "G#2",
                    "midi": 44,
                    "time": 94.53605175000015,
                    "velocity": 0.2992125984251969,
                    "duration": 0.10309275000000184
                },
                {
                    "name": "G#1",
                    "midi": 32,
                    "time": 94.63914450000016,
                    "velocity": 0.33070866141732286,
                    "duration": 0.10309275000000184
                },
                {
                    "name": "G#2",
                    "midi": 44,
                    "time": 94.74223725000016,
                    "velocity": 0.30708661417322836,
                    "duration": 0.10309275000000184
                },
                {
                    "name": "G#1",
                    "midi": 32,
                    "time": 94.84533000000016,
                    "velocity": 0.3464566929133858,
                    "duration": 0.10309275000000184
                },
                {
                    "name": "G#2",
                    "midi": 44,
                    "time": 94.94842275000016,
                    "velocity": 0.3228346456692913,
                    "duration": 0.10309275000000184
                },
                {
                    "name": "G#1",
                    "midi": 32,
                    "time": 95.05151550000016,
                    "velocity": 0.3543307086614173,
                    "duration": 0.10309275000000184
                },
                {
                    "name": "G#2",
                    "midi": 44,
                    "time": 95.15460825000017,
                    "velocity": 0.3464566929133858,
                    "duration": 0.10309275000000184
                },
                {
                    "name": "G#1",
                    "midi": 32,
                    "time": 95.25770100000017,
                    "velocity": 0.3700787401574803,
                    "duration": 0.10309275000000184
                },
                {
                    "name": "G#2",
                    "midi": 44,
                    "time": 95.36079375000017,
                    "velocity": 0.3464566929133858,
                    "duration": 0.10309275000000184
                },
                {
                    "name": "G#1",
                    "midi": 32,
                    "time": 95.46388650000017,
                    "velocity": 0.3779527559055118,
                    "duration": 0.10309275000000184
                },
                {
                    "name": "G#2",
                    "midi": 44,
                    "time": 95.56697925000017,
                    "velocity": 0.3700787401574803,
                    "duration": 0.10309275000000184
                },
                {
                    "name": "A2",
                    "midi": 45,
                    "time": 95.67007200000018,
                    "velocity": 0.4409448818897638,
                    "duration": 0.10309275000000184
                },
                {
                    "name": "A#2",
                    "midi": 46,
                    "time": 95.77316475000018,
                    "velocity": 0.41732283464566927,
                    "duration": 0.10309275000000184
                },
                {
                    "name": "B2",
                    "midi": 47,
                    "time": 95.87625750000018,
                    "velocity": 0.4251968503937008,
                    "duration": 0.10309275000000184
                },
                {
                    "name": "C3",
                    "midi": 48,
                    "time": 95.97935025000018,
                    "velocity": 0.4330708661417323,
                    "duration": 0.10309275000000184
                },
                {
                    "name": "C#3",
                    "midi": 49,
                    "time": 96.08244300000018,
                    "velocity": 0.44881889763779526,
                    "duration": 0.10309275000000184
                },
                {
                    "name": "D3",
                    "midi": 50,
                    "time": 96.18553575000018,
                    "velocity": 0.4645669291338583,
                    "duration": 0.10309275000000184
                },
                {
                    "name": "D#3",
                    "midi": 51,
                    "time": 96.28862850000019,
                    "velocity": 0.47244094488188976,
                    "duration": 0.10309275000000184
                },
                {
                    "name": "E3",
                    "midi": 52,
                    "time": 96.39172125000019,
                    "velocity": 0.48031496062992124,
                    "duration": 0.10309275000000184
                },
                {
                    "name": "F3",
                    "midi": 53,
                    "time": 96.49481400000019,
                    "velocity": 0.49606299212598426,
                    "duration": 0.10309275000000184
                },
                {
                    "name": "F#3",
                    "midi": 54,
                    "time": 96.59790675000019,
                    "velocity": 0.5118110236220472,
                    "duration": 0.10309275000000184
                },
                {
                    "name": "G3",
                    "midi": 55,
                    "time": 96.7009995000002,
                    "velocity": 0.5275590551181102,
                    "duration": 0.10309275000000184
                },
                {
                    "name": "G#3",
                    "midi": 56,
                    "time": 96.8040922500002,
                    "velocity": 0.5354330708661418,
                    "duration": 0.10309275000000184
                },
                {
                    "name": "G#2",
                    "midi": 44,
                    "time": 96.9071850000002,
                    "velocity": 0.48031496062992124,
                    "duration": 0.10309274999998763
                },
                {
                    "name": "G#3",
                    "midi": 56,
                    "time": 96.9071850000002,
                    "velocity": 0.5669291338582677,
                    "duration": 0.10309274999998763
                },
                {
                    "name": "G#2",
                    "midi": 44,
                    "time": 97.11337050000019,
                    "velocity": 0.4881889763779528,
                    "duration": 0.10309275000000184
                },
                {
                    "name": "G#3",
                    "midi": 56,
                    "time": 97.11337050000019,
                    "velocity": 0.5748031496062992,
                    "duration": 0.10309275000000184
                },
                {
                    "name": "G#2",
                    "midi": 44,
                    "time": 97.31955600000019,
                    "velocity": 0.49606299212598426,
                    "duration": 0.10309275000000184
                },
                {
                    "name": "G#3",
                    "midi": 56,
                    "time": 97.31955600000019,
                    "velocity": 0.5905511811023622,
                    "duration": 0.10309275000000184
                },
                {
                    "name": "G#3",
                    "midi": 56,
                    "time": 97.5257415000002,
                    "velocity": 0.5118110236220472,
                    "duration": 0.20618550000000369
                },
                {
                    "name": "G#4",
                    "midi": 68,
                    "time": 97.5257415000002,
                    "velocity": 0.6062992125984252,
                    "duration": 0.20618550000000369
                },
                {
                    "name": "G#3",
                    "midi": 56,
                    "time": 97.7319270000002,
                    "velocity": 0.5354330708661418,
                    "duration": 0.20618550000000369
                },
                {
                    "name": "G#4",
                    "midi": 68,
                    "time": 97.7319270000002,
                    "velocity": 0.6299212598425197,
                    "duration": 0.20618550000000369
                },
                {
                    "name": "G#3",
                    "midi": 56,
                    "time": 97.9381125000002,
                    "velocity": 0.5511811023622047,
                    "duration": 0.20618550000000369
                },
                {
                    "name": "G#4",
                    "midi": 68,
                    "time": 97.9381125000002,
                    "velocity": 0.6535433070866141,
                    "duration": 0.20618550000000369
                },
                {
                    "name": "G#3",
                    "midi": 56,
                    "time": 98.1442980000002,
                    "velocity": 0.5748031496062992,
                    "duration": 0.20618550000000369
                },
                {
                    "name": "G#4",
                    "midi": 68,
                    "time": 98.1442980000002,
                    "velocity": 0.6850393700787402,
                    "duration": 0.20618550000000369
                },
                {
                    "name": "G#3",
                    "midi": 56,
                    "time": 98.35048350000021,
                    "velocity": 0.5905511811023622,
                    "duration": 0.20618550000000369
                },
                {
                    "name": "G#4",
                    "midi": 68,
                    "time": 98.35048350000021,
                    "velocity": 0.7086614173228346,
                    "duration": 0.20618550000000369
                },
                {
                    "name": "G#3",
                    "midi": 56,
                    "time": 98.55666900000021,
                    "velocity": 0.6141732283464567,
                    "duration": 0.10309275000000184
                },
                {
                    "name": "G#4",
                    "midi": 68,
                    "time": 98.55666900000021,
                    "velocity": 0.7322834645669292,
                    "duration": 0.10309275000000184
                },
                {
                    "name": "G#3",
                    "midi": 56,
                    "time": 98.76285450000022,
                    "velocity": 0.6377952755905512,
                    "duration": 0.10309275000000184
                },
                {
                    "name": "G#4",
                    "midi": 68,
                    "time": 98.76285450000022,
                    "velocity": 0.7559055118110236,
                    "duration": 0.10309275000000184
                },
                {
                    "name": "G3",
                    "midi": 55,
                    "time": 98.96904000000022,
                    "velocity": 0.6850393700787402,
                    "duration": 0.19587622499999213
                },
                {
                    "name": "G4",
                    "midi": 67,
                    "time": 98.96904000000022,
                    "velocity": 0.8031496062992126,
                    "duration": 0.19587622499999213
                },
                {
                    "name": "G1",
                    "midi": 31,
                    "time": 99.17522550000021,
                    "velocity": 0.6377952755905512,
                    "duration": 0.19587622500000634
                },
                {
                    "name": "G2",
                    "midi": 43,
                    "time": 99.17522550000021,
                    "velocity": 0.7637795275590551,
                    "duration": 0.19587622500000634
                },
                {
                    "name": "G1",
                    "midi": 31,
                    "time": 99.38141100000021,
                    "velocity": 0.6377952755905512,
                    "duration": 0.19587622500000634
                },
                {
                    "name": "G2",
                    "midi": 43,
                    "time": 99.38141100000021,
                    "velocity": 0.7637795275590551,
                    "duration": 0.19587622500000634
                },
                {
                    "name": "G1",
                    "midi": 31,
                    "time": 99.58759650000022,
                    "velocity": 0.6377952755905512,
                    "duration": 0.19587622500000634
                },
                {
                    "name": "G2",
                    "midi": 43,
                    "time": 99.58759650000022,
                    "velocity": 0.7637795275590551,
                    "duration": 0.19587622500000634
                },
                {
                    "name": "G1",
                    "midi": 31,
                    "time": 99.79378200000022,
                    "velocity": 0.6377952755905512,
                    "duration": 0.19587622500000634
                },
                {
                    "name": "G2",
                    "midi": 43,
                    "time": 99.79378200000022,
                    "velocity": 0.7637795275590551,
                    "duration": 0.19587622500000634
                },
                {
                    "name": "G1",
                    "midi": 31,
                    "time": 99.99996750000022,
                    "velocity": 0.6377952755905512,
                    "duration": 0.19587622500000634
                },
                {
                    "name": "G2",
                    "midi": 43,
                    "time": 99.99996750000022,
                    "velocity": 0.7637795275590551,
                    "duration": 0.19587622500000634
                },
                {
                    "name": "G1",
                    "midi": 31,
                    "time": 100.20615300000023,
                    "velocity": 0.6377952755905512,
                    "duration": 0.19587622500000634
                },
                {
                    "name": "G2",
                    "midi": 43,
                    "time": 100.20615300000023,
                    "velocity": 0.7637795275590551,
                    "duration": 0.19587622500000634
                },
                {
                    "name": "G1",
                    "midi": 31,
                    "time": 100.41233850000023,
                    "velocity": 0.6377952755905512,
                    "duration": 0.19587622500000634
                },
                {
                    "name": "G2",
                    "midi": 43,
                    "time": 100.41233850000023,
                    "velocity": 0.7637795275590551,
                    "duration": 0.19587622500000634
                },
                {
                    "name": "C2",
                    "midi": 36,
                    "time": 100.61852400000024,
                    "velocity": 0.6692913385826772,
                    "duration": 0.41237099999999316
                },
                {
                    "name": "C3",
                    "midi": 48,
                    "time": 100.61852400000024,
                    "velocity": 0.7874015748031497,
                    "duration": 0.41237099999999316
                },
                {
                    "name": "C2",
                    "midi": 36,
                    "time": 101.03089500000023,
                    "velocity": 0.6220472440944882,
                    "duration": 0.07731956249999428
                },
                {
                    "name": "C3",
                    "midi": 48,
                    "time": 101.03089500000023,
                    "velocity": 0.7480314960629921,
                    "duration": 0.07731956249999428
                },
                {
                    "name": "C2",
                    "midi": 36,
                    "time": 101.23708050000022,
                    "velocity": 0.6220472440944882,
                    "duration": 0.07731956249999428
                },
                {
                    "name": "C3",
                    "midi": 48,
                    "time": 101.23708050000022,
                    "velocity": 0.7480314960629921,
                    "duration": 0.07731956249999428
                },
                {
                    "name": "C2",
                    "midi": 36,
                    "time": 101.44326600000021,
                    "velocity": 0.6220472440944882,
                    "duration": 0.41237099999999316
                },
                {
                    "name": "C3",
                    "midi": 48,
                    "time": 101.44326600000021,
                    "velocity": 0.7480314960629921,
                    "duration": 0.41237099999999316
                },
                {
                    "name": "C2",
                    "midi": 36,
                    "time": 101.8556370000002,
                    "velocity": 0.6377952755905512,
                    "duration": 0.07731956249999428
                },
                {
                    "name": "C3",
                    "midi": 48,
                    "time": 101.8556370000002,
                    "velocity": 0.7559055118110236,
                    "duration": 0.07731956249999428
                },
                {
                    "name": "C2",
                    "midi": 36,
                    "time": 102.06182250000019,
                    "velocity": 0.6456692913385826,
                    "duration": 0.07731956249999428
                },
                {
                    "name": "C3",
                    "midi": 48,
                    "time": 102.06182250000019,
                    "velocity": 0.7637795275590551,
                    "duration": 0.07731956249999428
                },
                {
                    "name": "C#2",
                    "midi": 37,
                    "time": 102.26800800000018,
                    "velocity": 0.7007874015748031,
                    "duration": 0.07731956250000849
                },
                {
                    "name": "C#3",
                    "midi": 49,
                    "time": 102.26800800000018,
                    "velocity": 0.8267716535433071,
                    "duration": 0.07731956250000849
                },
                {
                    "name": "D2",
                    "midi": 38,
                    "time": 102.68037900000019,
                    "velocity": 0.6771653543307087,
                    "duration": 0.6185565000000111
                },
                {
                    "name": "D3",
                    "midi": 50,
                    "time": 102.68037900000019,
                    "velocity": 0.8031496062992126,
                    "duration": 0.6185565000000111
                },
                {
                    "name": "E2",
                    "midi": 40,
                    "time": 103.2989355000002,
                    "velocity": 0.6377952755905512,
                    "duration": 0.07731956250000849
                },
                {
                    "name": "E3",
                    "midi": 52,
                    "time": 103.2989355000002,
                    "velocity": 0.7559055118110236,
                    "duration": 0.07731956250000849
                },
                {
                    "name": "F2",
                    "midi": 41,
                    "time": 103.5051210000002,
                    "velocity": 0.6220472440944882,
                    "duration": 0.07731956250000849
                },
                {
                    "name": "F3",
                    "midi": 53,
                    "time": 103.5051210000002,
                    "velocity": 0.7480314960629921,
                    "duration": 0.07731956250000849
                },
                {
                    "name": "E2",
                    "midi": 40,
                    "time": 103.7113065000002,
                    "velocity": 0.6377952755905512,
                    "duration": 0.07731956249999428
                },
                {
                    "name": "E3",
                    "midi": 52,
                    "time": 103.7113065000002,
                    "velocity": 0.7559055118110236,
                    "duration": 0.07731956249999428
                },
                {
                    "name": "D2",
                    "midi": 38,
                    "time": 103.9174920000002,
                    "velocity": 0.6692913385826772,
                    "duration": 0.41237100000000737
                },
                {
                    "name": "D3",
                    "midi": 50,
                    "time": 103.9174920000002,
                    "velocity": 0.7874015748031497,
                    "duration": 0.41237100000000737
                },
                {
                    "name": "D2",
                    "midi": 38,
                    "time": 104.3298630000002,
                    "velocity": 0.6692913385826772,
                    "duration": 0.07731956249999428
                },
                {
                    "name": "D3",
                    "midi": 50,
                    "time": 104.3298630000002,
                    "velocity": 0.7874015748031497,
                    "duration": 0.07731956249999428
                },
                {
                    "name": "D2",
                    "midi": 38,
                    "time": 104.53604850000019,
                    "velocity": 0.6377952755905512,
                    "duration": 0.07731956249999428
                },
                {
                    "name": "D3",
                    "midi": 50,
                    "time": 104.53604850000019,
                    "velocity": 0.7559055118110236,
                    "duration": 0.07731956249999428
                },
                {
                    "name": "D2",
                    "midi": 38,
                    "time": 104.74223400000018,
                    "velocity": 0.6377952755905512,
                    "duration": 0.41237099999999316
                },
                {
                    "name": "D3",
                    "midi": 50,
                    "time": 104.74223400000018,
                    "velocity": 0.7559055118110236,
                    "duration": 0.41237099999999316
                },
                {
                    "name": "D2",
                    "midi": 38,
                    "time": 105.15460500000017,
                    "velocity": 0.6456692913385826,
                    "duration": 0.07731956249999428
                },
                {
                    "name": "D3",
                    "midi": 50,
                    "time": 105.15460500000017,
                    "velocity": 0.7637795275590551,
                    "duration": 0.07731956249999428
                },
                {
                    "name": "D2",
                    "midi": 38,
                    "time": 105.36079050000016,
                    "velocity": 0.6456692913385826,
                    "duration": 0.07731956249999428
                },
                {
                    "name": "D3",
                    "midi": 50,
                    "time": 105.36079050000016,
                    "velocity": 0.7637795275590551,
                    "duration": 0.07731956249999428
                },
                {
                    "name": "D#2",
                    "midi": 39,
                    "time": 105.56697600000015,
                    "velocity": 0.7007874015748031,
                    "duration": 0.07731956250000849
                },
                {
                    "name": "D#3",
                    "midi": 51,
                    "time": 105.56697600000015,
                    "velocity": 0.8267716535433071,
                    "duration": 0.07731956250000849
                },
                {
                    "name": "E2",
                    "midi": 40,
                    "time": 105.97934700000016,
                    "velocity": 0.6771653543307087,
                    "duration": 0.6185564999999968
                },
                {
                    "name": "E3",
                    "midi": 52,
                    "time": 105.97934700000016,
                    "velocity": 0.8031496062992126,
                    "duration": 0.6185564999999968
                },
                {
                    "name": "F#2",
                    "midi": 42,
                    "time": 106.59790350000016,
                    "velocity": 0.7322834645669292,
                    "duration": 0.07731956250000849
                },
                {
                    "name": "F#3",
                    "midi": 54,
                    "time": 106.59790350000016,
                    "velocity": 0.7322834645669292,
                    "duration": 0.07731956250000849
                },
                {
                    "name": "G2",
                    "midi": 43,
                    "time": 106.80408900000016,
                    "velocity": 0.6062992125984252,
                    "duration": 0.07731956249999428
                },
                {
                    "name": "G3",
                    "midi": 55,
                    "time": 106.80408900000016,
                    "velocity": 0.7244094488188977,
                    "duration": 0.07731956249999428
                },
                {
                    "name": "A2",
                    "midi": 45,
                    "time": 107.01027450000015,
                    "velocity": 0.6220472440944882,
                    "duration": 0.07731956249999428
                },
                {
                    "name": "A3",
                    "midi": 57,
                    "time": 107.01027450000015,
                    "velocity": 0.7322834645669292,
                    "duration": 0.07731956249999428
                },
                {
                    "name": "A#2",
                    "midi": 46,
                    "time": 107.21646000000014,
                    "velocity": 0.6771653543307087,
                    "duration": 0.41237099999999316
                },
                {
                    "name": "A#3",
                    "midi": 58,
                    "time": 107.21646000000014,
                    "velocity": 0.7952755905511811,
                    "duration": 0.41237099999999316
                },
                {
                    "name": "A#2",
                    "midi": 46,
                    "time": 107.62883100000013,
                    "velocity": 0.6220472440944882,
                    "duration": 0.07731956250000849
                },
                {
                    "name": "A#3",
                    "midi": 58,
                    "time": 107.62883100000013,
                    "velocity": 0.7322834645669292,
                    "duration": 0.07731956250000849
                },
                {
                    "name": "A#2",
                    "midi": 46,
                    "time": 107.83501650000014,
                    "velocity": 0.6220472440944882,
                    "duration": 0.07731956249999428
                },
                {
                    "name": "A#3",
                    "midi": 58,
                    "time": 107.83501650000014,
                    "velocity": 0.7322834645669292,
                    "duration": 0.07731956249999428
                },
                {
                    "name": "C#2",
                    "midi": 37,
                    "time": 108.04120200000013,
                    "velocity": 0.6456692913385826,
                    "duration": 0.8247420000000005
                },
                {
                    "name": "C#3",
                    "midi": 49,
                    "time": 108.04120200000013,
                    "velocity": 0.7637795275590551,
                    "duration": 0.8247420000000005
                },
                {
                    "name": "A2",
                    "midi": 45,
                    "time": 108.86594400000013,
                    "velocity": 0.6614173228346457,
                    "duration": 0.41237100000000737
                },
                {
                    "name": "A3",
                    "midi": 57,
                    "time": 108.86594400000013,
                    "velocity": 0.7716535433070866,
                    "duration": 0.41237100000000737
                },
                {
                    "name": "A2",
                    "midi": 45,
                    "time": 109.27831500000013,
                    "velocity": 0.6062992125984252,
                    "duration": 0.07731956250000849
                },
                {
                    "name": "A3",
                    "midi": 57,
                    "time": 109.27831500000013,
                    "velocity": 0.7165354330708661,
                    "duration": 0.07731956250000849
                },
                {
                    "name": "A2",
                    "midi": 45,
                    "time": 109.48450050000014,
                    "velocity": 0.6141732283464567,
                    "duration": 0.07731956249999428
                },
                {
                    "name": "A3",
                    "midi": 57,
                    "time": 109.48450050000014,
                    "velocity": 0.7244094488188977,
                    "duration": 0.07731956249999428
                },
                {
                    "name": "C2",
                    "midi": 36,
                    "time": 109.69068600000013,
                    "velocity": 0.6299212598425197,
                    "duration": 0.8247420000000005
                },
                {
                    "name": "C3",
                    "midi": 48,
                    "time": 109.69068600000013,
                    "velocity": 0.7480314960629921,
                    "duration": 0.8247420000000005
                },
                {
                    "name": "B1",
                    "midi": 35,
                    "time": 110.51542800000013,
                    "velocity": 0.6220472440944882,
                    "duration": 0.07731956249999428
                },
                {
                    "name": "B2",
                    "midi": 47,
                    "time": 110.51542800000013,
                    "velocity": 0.7322834645669292,
                    "duration": 0.07731956249999428
                },
                {
                    "name": "D2",
                    "midi": 38,
                    "time": 110.72161350000012,
                    "velocity": 0.6299212598425197,
                    "duration": 0.07731956249999428
                },
                {
                    "name": "D3",
                    "midi": 50,
                    "time": 110.72161350000012,
                    "velocity": 0.7401574803149606,
                    "duration": 0.07731956249999428
                },
                {
                    "name": "G2",
                    "midi": 43,
                    "time": 110.9277990000001,
                    "velocity": 0.6614173228346457,
                    "duration": 0.07731956249999428
                },
                {
                    "name": "G3",
                    "midi": 55,
                    "time": 110.9277990000001,
                    "velocity": 0.7795275590551181,
                    "duration": 0.07731956249999428
                },
                {
                    "name": "F2",
                    "midi": 41,
                    "time": 111.1339845000001,
                    "velocity": 0.6299212598425197,
                    "duration": 0.07731956249999428
                },
                {
                    "name": "F3",
                    "midi": 53,
                    "time": 111.1339845000001,
                    "velocity": 0.7401574803149606,
                    "duration": 0.07731956249999428
                },
                {
                    "name": "E2",
                    "midi": 40,
                    "time": 111.34017000000009,
                    "velocity": 0.6377952755905512,
                    "duration": 0.07731956250000849
                },
                {
                    "name": "E3",
                    "midi": 52,
                    "time": 111.34017000000009,
                    "velocity": 0.7559055118110236,
                    "duration": 0.07731956250000849
                },
                {
                    "name": "C2",
                    "midi": 36,
                    "time": 111.54635550000009,
                    "velocity": 0.6220472440944882,
                    "duration": 0.07731956249999428
                },
                {
                    "name": "C3",
                    "midi": 48,
                    "time": 111.54635550000009,
                    "velocity": 0.7322834645669292,
                    "duration": 0.07731956249999428
                },
                {
                    "name": "B1",
                    "midi": 35,
                    "time": 111.75254100000008,
                    "velocity": 0.6220472440944882,
                    "duration": 0.07731956250000849
                },
                {
                    "name": "B2",
                    "midi": 47,
                    "time": 111.75254100000008,
                    "velocity": 0.7322834645669292,
                    "duration": 0.07731956250000849
                },
                {
                    "name": "A1",
                    "midi": 33,
                    "time": 111.95872650000008,
                    "velocity": 0.6220472440944882,
                    "duration": 0.07731956249999428
                },
                {
                    "name": "A2",
                    "midi": 45,
                    "time": 111.95872650000008,
                    "velocity": 0.7322834645669292,
                    "duration": 0.07731956249999428
                },
                {
                    "name": "F2",
                    "midi": 41,
                    "time": 112.16491200000007,
                    "velocity": 0.6850393700787402,
                    "duration": 0.07731956250000849
                },
                {
                    "name": "F3",
                    "midi": 53,
                    "time": 112.26800475000007,
                    "velocity": 0.6929133858267716,
                    "duration": 0.07731956249999428
                },
                {
                    "name": "F2",
                    "midi": 41,
                    "time": 112.37109750000006,
                    "velocity": 0.7007874015748031,
                    "duration": 0.07731956249999428
                },
                {
                    "name": "F3",
                    "midi": 53,
                    "time": 112.47419025000005,
                    "velocity": 0.7165354330708661,
                    "duration": 0.07731956249999428
                },
                {
                    "name": "E2",
                    "midi": 40,
                    "time": 112.57728300000004,
                    "velocity": 0.7244094488188977,
                    "duration": 0.07731956250000849
                },
                {
                    "name": "E3",
                    "midi": 52,
                    "time": 112.68037575000004,
                    "velocity": 0.7322834645669292,
                    "duration": 0.07731956249999428
                },
                {
                    "name": "E2",
                    "midi": 40,
                    "time": 112.78346850000003,
                    "velocity": 0.7401574803149606,
                    "duration": 0.07731956249999428
                },
                {
                    "name": "E3",
                    "midi": 52,
                    "time": 112.88656125000001,
                    "velocity": 0.7559055118110236,
                    "duration": 0.07731956249999428
                },
                {
                    "name": "D2",
                    "midi": 38,
                    "time": 112.989654,
                    "velocity": 0.7637795275590551,
                    "duration": 0.07731956250000849
                },
                {
                    "name": "D3",
                    "midi": 50,
                    "time": 113.09274675,
                    "velocity": 0.7401574803149606,
                    "duration": 0.07731956249999428
                },
                {
                    "name": "D2",
                    "midi": 38,
                    "time": 113.19583949999999,
                    "velocity": 0.7637795275590551,
                    "duration": 0.07731956249999428
                },
                {
                    "name": "D3",
                    "midi": 50,
                    "time": 113.29893224999998,
                    "velocity": 0.7244094488188977,
                    "duration": 0.07731956249999428
                },
                {
                    "name": "G2",
                    "midi": 43,
                    "time": 113.40202499999997,
                    "velocity": 0.7637795275590551,
                    "duration": 0.07731956250000849
                },
                {
                    "name": "G3",
                    "midi": 55,
                    "time": 113.50511774999997,
                    "velocity": 0.7244094488188977,
                    "duration": 0.07731956249999428
                },
                {
                    "name": "G2",
                    "midi": 43,
                    "time": 113.60821049999996,
                    "velocity": 0.7244094488188977,
                    "duration": 0.07731956249999428
                },
                {
                    "name": "G3",
                    "midi": 55,
                    "time": 113.71130324999994,
                    "velocity": 0.7244094488188977,
                    "duration": 0.07731956249999428
                },
                {
                    "name": "G#2",
                    "midi": 44,
                    "time": 113.81439599999993,
                    "velocity": 0.6456692913385826,
                    "duration": 0.28350506249999796
                },
                {
                    "name": "G#3",
                    "midi": 56,
                    "time": 113.81439599999993,
                    "velocity": 0.7952755905511811,
                    "duration": 0.28350506249999796
                },
                {
                    "name": "G#1",
                    "midi": 32,
                    "time": 114.12367424999992,
                    "velocity": 0.6141732283464567,
                    "duration": 0.07731956249999428
                },
                {
                    "name": "G#2",
                    "midi": 44,
                    "time": 114.12367424999992,
                    "velocity": 0.7244094488188977,
                    "duration": 0.07731956249999428
                },
                {
                    "name": "G#1",
                    "midi": 32,
                    "time": 114.22676699999991,
                    "velocity": 0.5748031496062992,
                    "duration": 1.2371129999999937
                },
                {
                    "name": "G#2",
                    "midi": 44,
                    "time": 114.22676699999991,
                    "velocity": 0.6771653543307087,
                    "duration": 1.2371129999999937
                },
                {
                    "name": "G1",
                    "midi": 31,
                    "time": 115.4638799999999,
                    "velocity": 0.2677165354330709,
                    "duration": 0.10309275000000184
                },
                {
                    "name": "G2",
                    "midi": 43,
                    "time": 115.5669727499999,
                    "velocity": 0.2677165354330709,
                    "duration": 0.10309275000000184
                },
                {
                    "name": "G1",
                    "midi": 31,
                    "time": 115.67006549999991,
                    "velocity": 0.2755905511811024,
                    "duration": 0.10309275000000184
                },
                {
                    "name": "G2",
                    "midi": 43,
                    "time": 115.77315824999991,
                    "velocity": 0.2755905511811024,
                    "duration": 0.10309275000000184
                },
                {
                    "name": "G1",
                    "midi": 31,
                    "time": 115.87625099999991,
                    "velocity": 0.28346456692913385,
                    "duration": 0.10309275000000184
                },
                {
                    "name": "G2",
                    "midi": 43,
                    "time": 115.97934374999991,
                    "velocity": 0.28346456692913385,
                    "duration": 0.10309275000000184
                },
                {
                    "name": "G1",
                    "midi": 31,
                    "time": 116.08243649999991,
                    "velocity": 0.29133858267716534,
                    "duration": 0.10309275000000184
                },
                {
                    "name": "G2",
                    "midi": 43,
                    "time": 116.18552924999992,
                    "velocity": 0.29133858267716534,
                    "duration": 0.10309275000000184
                },
                {
                    "name": "G1",
                    "midi": 31,
                    "time": 116.28862199999992,
                    "velocity": 0.2992125984251969,
                    "duration": 0.10309275000000184
                },
                {
                    "name": "G2",
                    "midi": 43,
                    "time": 116.39171474999992,
                    "velocity": 0.2992125984251969,
                    "duration": 0.10309275000000184
                },
                {
                    "name": "G1",
                    "midi": 31,
                    "time": 116.49480749999992,
                    "velocity": 0.30708661417322836,
                    "duration": 0.10309275000000184
                },
                {
                    "name": "G2",
                    "midi": 43,
                    "time": 116.59790024999992,
                    "velocity": 0.30708661417322836,
                    "duration": 0.10309275000000184
                },
                {
                    "name": "G1",
                    "midi": 31,
                    "time": 116.70099299999993,
                    "velocity": 0.31496062992125984,
                    "duration": 0.10309275000000184
                },
                {
                    "name": "G2",
                    "midi": 43,
                    "time": 116.80408574999993,
                    "velocity": 0.31496062992125984,
                    "duration": 0.10309275000000184
                },
                {
                    "name": "G1",
                    "midi": 31,
                    "time": 116.90717849999993,
                    "velocity": 0.3228346456692913,
                    "duration": 0.10309275000000184
                },
                {
                    "name": "G2",
                    "midi": 43,
                    "time": 117.01027124999993,
                    "velocity": 0.3228346456692913,
                    "duration": 0.10309275000000184
                },
                {
                    "name": "G2",
                    "midi": 43,
                    "time": 117.11336399999993,
                    "velocity": 0.36220472440944884,
                    "duration": 0.10309275000000184
                },
                {
                    "name": "G3",
                    "midi": 55,
                    "time": 117.21645674999994,
                    "velocity": 0.33858267716535434,
                    "duration": 0.10309275000000184
                },
                {
                    "name": "G2",
                    "midi": 43,
                    "time": 117.31954949999994,
                    "velocity": 0.3543307086614173,
                    "duration": 0.10309275000000184
                },
                {
                    "name": "G3",
                    "midi": 55,
                    "time": 117.42264224999994,
                    "velocity": 0.3700787401574803,
                    "duration": 0.10309275000000184
                },
                {
                    "name": "G2",
                    "midi": 43,
                    "time": 117.52573499999994,
                    "velocity": 0.3858267716535433,
                    "duration": 0.10309275000000184
                },
                {
                    "name": "G3",
                    "midi": 55,
                    "time": 117.62882774999994,
                    "velocity": 0.4015748031496063,
                    "duration": 0.10309275000000184
                },
                {
                    "name": "G2",
                    "midi": 43,
                    "time": 117.73192049999994,
                    "velocity": 0.41732283464566927,
                    "duration": 0.10309275000000184
                },
                {
                    "name": "G3",
                    "midi": 55,
                    "time": 117.83501324999995,
                    "velocity": 0.4409448818897638,
                    "duration": 0.10309275000000184
                },
                {
                    "name": "G3",
                    "midi": 55,
                    "time": 117.93810599999995,
                    "velocity": 0.44881889763779526,
                    "duration": 0.10309275000000184
                },
                {
                    "name": "G4",
                    "midi": 67,
                    "time": 118.04119874999995,
                    "velocity": 0.4645669291338583,
                    "duration": 0.10309275000000184
                },
                {
                    "name": "G3",
                    "midi": 55,
                    "time": 118.14429149999995,
                    "velocity": 0.48031496062992124,
                    "duration": 0.10309275000000184
                },
                {
                    "name": "G4",
                    "midi": 67,
                    "time": 118.24738424999995,
                    "velocity": 0.49606299212598426,
                    "duration": 0.10309275000000184
                },
                {
                    "name": "G3",
                    "midi": 55,
                    "time": 118.35047699999996,
                    "velocity": 0.5118110236220472,
                    "duration": 0.10309275000000184
                },
                {
                    "name": "G4",
                    "midi": 67,
                    "time": 118.45356974999996,
                    "velocity": 0.5354330708661418,
                    "duration": 0.10309275000000184
                },
                {
                    "name": "G3",
                    "midi": 55,
                    "time": 118.55666249999996,
                    "velocity": 0.5511811023622047,
                    "duration": 0.10309275000000184
                },
                {
                    "name": "G4",
                    "midi": 67,
                    "time": 118.65975524999996,
                    "velocity": 0.5669291338582677,
                    "duration": 0.10309275000000184
                },
                {
                    "name": "F4",
                    "midi": 65,
                    "time": 118.76284799999996,
                    "velocity": 0.6692913385826772,
                    "duration": 0.41237099999999316
                },
                {
                    "name": "F3",
                    "midi": 53,
                    "time": 118.76284799999996,
                    "velocity": 0.5669291338582677,
                    "duration": 0.41237099999999316
                },
                {
                    "name": "D4",
                    "midi": 62,
                    "time": 119.17521899999996,
                    "velocity": 0.6535433070866141,
                    "duration": 0.41237099999999316
                },
                {
                    "name": "D3",
                    "midi": 50,
                    "time": 119.17521899999996,
                    "velocity": 0.5590551181102362,
                    "duration": 0.41237099999999316
                },
                {
                    "name": "G4",
                    "midi": 67,
                    "time": 119.58758999999995,
                    "velocity": 0.6771653543307087,
                    "duration": 0.41237099999999316
                },
                {
                    "name": "G3",
                    "midi": 55,
                    "time": 119.58758999999995,
                    "velocity": 0.5748031496062992,
                    "duration": 0.41237099999999316
                },
                {
                    "name": "G2",
                    "midi": 43,
                    "time": 119.99996099999994,
                    "velocity": 0.5511811023622047,
                    "duration": 0.41237099999999316
                },
                {
                    "name": "G3",
                    "midi": 55,
                    "time": 119.99996099999994,
                    "velocity": 0.6456692913385826,
                    "duration": 0.41237099999999316
                },
                {
                    "name": "G#2",
                    "midi": 44,
                    "time": 120.41233199999994,
                    "velocity": 0.6456692913385826,
                    "duration": 0.28350506249999796
                },
                {
                    "name": "G#3",
                    "midi": 56,
                    "time": 120.41233199999994,
                    "velocity": 0.7795275590551181,
                    "duration": 0.28350506249999796
                },
                {
                    "name": "G#1",
                    "midi": 32,
                    "time": 120.72161024999993,
                    "velocity": 0.6220472440944882,
                    "duration": 0.07731956249999428
                },
                {
                    "name": "G#2",
                    "midi": 44,
                    "time": 120.72161024999993,
                    "velocity": 0.7401574803149606,
                    "duration": 0.07731956249999428
                },
                {
                    "name": "G#1",
                    "midi": 32,
                    "time": 120.82470299999991,
                    "velocity": 0.5511811023622047,
                    "duration": 1.2371129999999937
                },
                {
                    "name": "G#2",
                    "midi": 44,
                    "time": 120.82470299999991,
                    "velocity": 0.6535433070866141,
                    "duration": 1.2371129999999937
                },
                {
                    "name": "G1",
                    "midi": 31,
                    "time": 122.06181599999991,
                    "velocity": 0.2677165354330709,
                    "duration": 0.10309275000000184
                },
                {
                    "name": "G2",
                    "midi": 43,
                    "time": 122.16490874999991,
                    "velocity": 0.2677165354330709,
                    "duration": 0.10309275000000184
                },
                {
                    "name": "G1",
                    "midi": 31,
                    "time": 122.26800149999991,
                    "velocity": 0.2755905511811024,
                    "duration": 0.10309275000000184
                },
                {
                    "name": "G2",
                    "midi": 43,
                    "time": 122.37109424999991,
                    "velocity": 0.2755905511811024,
                    "duration": 0.10309275000000184
                },
                {
                    "name": "G1",
                    "midi": 31,
                    "time": 122.47418699999992,
                    "velocity": 0.28346456692913385,
                    "duration": 0.10309275000000184
                },
                {
                    "name": "G2",
                    "midi": 43,
                    "time": 122.57727974999992,
                    "velocity": 0.28346456692913385,
                    "duration": 0.10309275000000184
                },
                {
                    "name": "G1",
                    "midi": 31,
                    "time": 122.68037249999992,
                    "velocity": 0.29133858267716534,
                    "duration": 0.10309275000000184
                },
                {
                    "name": "G2",
                    "midi": 43,
                    "time": 122.78346524999992,
                    "velocity": 0.29133858267716534,
                    "duration": 0.10309275000000184
                },
                {
                    "name": "G1",
                    "midi": 31,
                    "time": 122.88655799999992,
                    "velocity": 0.2992125984251969,
                    "duration": 0.10309275000000184
                },
                {
                    "name": "G2",
                    "midi": 43,
                    "time": 122.98965074999992,
                    "velocity": 0.2992125984251969,
                    "duration": 0.10309275000000184
                },
                {
                    "name": "G1",
                    "midi": 31,
                    "time": 123.09274349999993,
                    "velocity": 0.30708661417322836,
                    "duration": 0.10309275000000184
                },
                {
                    "name": "G2",
                    "midi": 43,
                    "time": 123.19583624999993,
                    "velocity": 0.30708661417322836,
                    "duration": 0.10309275000000184
                },
                {
                    "name": "G1",
                    "midi": 31,
                    "time": 123.29892899999993,
                    "velocity": 0.31496062992125984,
                    "duration": 0.10309275000000184
                },
                {
                    "name": "G2",
                    "midi": 43,
                    "time": 123.40202174999993,
                    "velocity": 0.31496062992125984,
                    "duration": 0.10309275000000184
                },
                {
                    "name": "G1",
                    "midi": 31,
                    "time": 123.50511449999993,
                    "velocity": 0.3228346456692913,
                    "duration": 0.10309275000000184
                },
                {
                    "name": "G2",
                    "midi": 43,
                    "time": 123.60820724999994,
                    "velocity": 0.3228346456692913,
                    "duration": 0.10309275000000184
                },
                {
                    "name": "G2",
                    "midi": 43,
                    "time": 123.71129999999994,
                    "velocity": 0.36220472440944884,
                    "duration": 0.10309275000000184
                },
                {
                    "name": "G3",
                    "midi": 55,
                    "time": 123.81439274999994,
                    "velocity": 0.33858267716535434,
                    "duration": 0.10309275000000184
                },
                {
                    "name": "G2",
                    "midi": 43,
                    "time": 123.91748549999994,
                    "velocity": 0.3543307086614173,
                    "duration": 0.10309275000000184
                },
                {
                    "name": "G3",
                    "midi": 55,
                    "time": 124.02057824999994,
                    "velocity": 0.3700787401574803,
                    "duration": 0.10309275000000184
                },
                {
                    "name": "G2",
                    "midi": 43,
                    "time": 124.12367099999994,
                    "velocity": 0.3858267716535433,
                    "duration": 0.10309275000000184
                },
                {
                    "name": "G3",
                    "midi": 55,
                    "time": 124.22676374999995,
                    "velocity": 0.4015748031496063,
                    "duration": 0.10309275000000184
                },
                {
                    "name": "G2",
                    "midi": 43,
                    "time": 124.32985649999995,
                    "velocity": 0.41732283464566927,
                    "duration": 0.10309275000000184
                },
                {
                    "name": "G3",
                    "midi": 55,
                    "time": 124.43294924999995,
                    "velocity": 0.4409448818897638,
                    "duration": 0.10309275000000184
                },
                {
                    "name": "G3",
                    "midi": 55,
                    "time": 124.53604199999995,
                    "velocity": 0.44881889763779526,
                    "duration": 0.10309274999998763
                },
                {
                    "name": "G4",
                    "midi": 67,
                    "time": 124.63913474999994,
                    "velocity": 0.4645669291338583,
                    "duration": 0.10309275000000184
                },
                {
                    "name": "G3",
                    "midi": 55,
                    "time": 124.74222749999994,
                    "velocity": 0.48031496062992124,
                    "duration": 0.10309275000000184
                },
                {
                    "name": "G4",
                    "midi": 67,
                    "time": 124.84532024999994,
                    "velocity": 0.49606299212598426,
                    "duration": 0.10309275000000184
                },
                {
                    "name": "G3",
                    "midi": 55,
                    "time": 124.94841299999995,
                    "velocity": 0.5118110236220472,
                    "duration": 0.10309275000000184
                },
                {
                    "name": "G4",
                    "midi": 67,
                    "time": 125.05150574999995,
                    "velocity": 0.5354330708661418,
                    "duration": 0.10309275000000184
                },
                {
                    "name": "G3",
                    "midi": 55,
                    "time": 125.15459849999995,
                    "velocity": 0.5511811023622047,
                    "duration": 0.10309275000000184
                },
                {
                    "name": "G4",
                    "midi": 67,
                    "time": 125.25769124999995,
                    "velocity": 0.5669291338582677,
                    "duration": 0.10309275000000184
                },
                {
                    "name": "F1",
                    "midi": 29,
                    "time": 125.36078399999995,
                    "velocity": 0.5669291338582677,
                    "duration": 0.3092782499999913
                },
                {
                    "name": "F2",
                    "midi": 41,
                    "time": 125.36078399999995,
                    "velocity": 0.6771653543307087,
                    "duration": 0.3092782499999913
                },
                {
                    "name": "F2",
                    "midi": 41,
                    "time": 125.67006224999994,
                    "velocity": 0.5039370078740157,
                    "duration": 0.07731956249999428
                },
                {
                    "name": "F3",
                    "midi": 53,
                    "time": 125.67006224999994,
                    "velocity": 0.5905511811023622,
                    "duration": 0.07731956249999428
                },
                {
                    "name": "F2",
                    "midi": 41,
                    "time": 125.77315499999993,
                    "velocity": 0.5118110236220472,
                    "duration": 0.41237099999999316
                },
                {
                    "name": "F3",
                    "midi": 53,
                    "time": 125.77315499999993,
                    "velocity": 0.5984251968503937,
                    "duration": 0.41237099999999316
                },
                {
                    "name": "G1",
                    "midi": 31,
                    "time": 126.18552599999992,
                    "velocity": 0.5669291338582677,
                    "duration": 0.30927825000000553
                },
                {
                    "name": "G2",
                    "midi": 43,
                    "time": 126.18552599999992,
                    "velocity": 0.6771653543307087,
                    "duration": 0.30927825000000553
                },
                {
                    "name": "G2",
                    "midi": 43,
                    "time": 126.49480424999993,
                    "velocity": 0.49606299212598426,
                    "duration": 0.07731956249999428
                },
                {
                    "name": "G3",
                    "midi": 55,
                    "time": 126.49480424999993,
                    "velocity": 0.5826771653543307,
                    "duration": 0.07731956249999428
                },
                {
                    "name": "G2",
                    "midi": 43,
                    "time": 126.59789699999992,
                    "velocity": 0.49606299212598426,
                    "duration": 0.41237099999999316
                },
                {
                    "name": "G3",
                    "midi": 55,
                    "time": 126.59789699999992,
                    "velocity": 0.5826771653543307,
                    "duration": 0.41237099999999316
                },
                {
                    "name": "A1",
                    "midi": 33,
                    "time": 127.01026799999991,
                    "velocity": 0.5984251968503937,
                    "duration": 0.30927825000000553
                },
                {
                    "name": "A2",
                    "midi": 45,
                    "time": 127.01026799999991,
                    "velocity": 0.7086614173228346,
                    "duration": 0.30927825000000553
                },
                {
                    "name": "A2",
                    "midi": 45,
                    "time": 127.31954624999992,
                    "velocity": 0.5118110236220472,
                    "duration": 0.07731956249999428
                },
                {
                    "name": "A3",
                    "midi": 57,
                    "time": 127.31954624999992,
                    "velocity": 0.5984251968503937,
                    "duration": 0.07731956249999428
                },
                {
                    "name": "A2",
                    "midi": 45,
                    "time": 127.4226389999999,
                    "velocity": 0.5118110236220472,
                    "duration": 0.41237100000000737
                },
                {
                    "name": "A3",
                    "midi": 57,
                    "time": 127.4226389999999,
                    "velocity": 0.5984251968503937,
                    "duration": 0.41237100000000737
                },
                {
                    "name": "A#1",
                    "midi": 34,
                    "time": 127.83500999999991,
                    "velocity": 0.5984251968503937,
                    "duration": 0.3092782499999913
                },
                {
                    "name": "A#2",
                    "midi": 46,
                    "time": 127.83500999999991,
                    "velocity": 0.7165354330708661,
                    "duration": 0.3092782499999913
                },
                {
                    "name": "A#2",
                    "midi": 46,
                    "time": 128.1442882499999,
                    "velocity": 0.5118110236220472,
                    "duration": 0.07731956250000849
                },
                {
                    "name": "A#3",
                    "midi": 58,
                    "time": 128.1442882499999,
                    "velocity": 0.6062992125984252,
                    "duration": 0.07731956250000849
                },
                {
                    "name": "A#2",
                    "midi": 46,
                    "time": 128.2473809999999,
                    "velocity": 0.5275590551181102,
                    "duration": 0.41237100000000737
                },
                {
                    "name": "A#3",
                    "midi": 58,
                    "time": 128.2473809999999,
                    "velocity": 0.6220472440944882,
                    "duration": 0.41237100000000737
                },
                {
                    "name": "G#2",
                    "midi": 44,
                    "time": 128.6597519999999,
                    "velocity": 0.5905511811023622,
                    "duration": 0.3092782499999771
                },
                {
                    "name": "G#3",
                    "midi": 56,
                    "time": 128.6597519999999,
                    "velocity": 0.7007874015748031,
                    "duration": 0.3092782499999771
                },
                {
                    "name": "G#1",
                    "midi": 32,
                    "time": 128.9690302499999,
                    "velocity": 0.5039370078740157,
                    "duration": 0.07731956250000849
                },
                {
                    "name": "G#2",
                    "midi": 44,
                    "time": 128.9690302499999,
                    "velocity": 0.5905511811023622,
                    "duration": 0.07731956250000849
                },
                {
                    "name": "G#1",
                    "midi": 32,
                    "time": 129.0721229999999,
                    "velocity": 0.5748031496062992,
                    "duration": 0.41237100000000737
                },
                {
                    "name": "G#2",
                    "midi": 44,
                    "time": 129.0721229999999,
                    "velocity": 0.6850393700787402,
                    "duration": 0.41237100000000737
                },
                {
                    "name": "G2",
                    "midi": 43,
                    "time": 129.4844939999999,
                    "velocity": 0.5669291338582677,
                    "duration": 0.30927825000000553
                },
                {
                    "name": "G3",
                    "midi": 55,
                    "time": 129.4844939999999,
                    "velocity": 0.6771653543307087,
                    "duration": 0.30927825000000553
                },
                {
                    "name": "G1",
                    "midi": 31,
                    "time": 129.7937722499999,
                    "velocity": 0.49606299212598426,
                    "duration": 0.07731956250000849
                },
                {
                    "name": "G2",
                    "midi": 43,
                    "time": 129.7937722499999,
                    "velocity": 0.5826771653543307,
                    "duration": 0.07731956250000849
                },
                {
                    "name": "G1",
                    "midi": 31,
                    "time": 129.8968649999999,
                    "velocity": 0.5669291338582677,
                    "duration": 0.41237099999997895
                },
                {
                    "name": "G2",
                    "midi": 43,
                    "time": 129.8968649999999,
                    "velocity": 0.6771653543307087,
                    "duration": 0.41237099999997895
                },
                {
                    "name": "G2",
                    "midi": 43,
                    "time": 130.30923599999988,
                    "velocity": 0.5511811023622047,
                    "duration": 0.30927825000000553
                },
                {
                    "name": "G3",
                    "midi": 55,
                    "time": 130.30923599999988,
                    "velocity": 0.6456692913385826,
                    "duration": 0.30927825000000553
                },
                {
                    "name": "G1",
                    "midi": 31,
                    "time": 130.6185142499999,
                    "velocity": 0.5039370078740157,
                    "duration": 0.07731956250000849
                },
                {
                    "name": "G2",
                    "midi": 43,
                    "time": 130.6185142499999,
                    "velocity": 0.5984251968503937,
                    "duration": 0.07731956250000849
                },
                {
                    "name": "G1",
                    "midi": 31,
                    "time": 130.7216069999999,
                    "velocity": 0.5826771653543307,
                    "duration": 0.41237100000000737
                },
                {
                    "name": "G2",
                    "midi": 43,
                    "time": 130.7216069999999,
                    "velocity": 0.6929133858267716,
                    "duration": 0.41237100000000737
                },
                {
                    "name": "G2",
                    "midi": 43,
                    "time": 131.1339779999999,
                    "velocity": 0.5669291338582677,
                    "duration": 0.30927825000000553
                },
                {
                    "name": "G3",
                    "midi": 55,
                    "time": 131.1339779999999,
                    "velocity": 0.6692913385826772,
                    "duration": 0.30927825000000553
                },
                {
                    "name": "G1",
                    "midi": 31,
                    "time": 131.4432562499999,
                    "velocity": 0.5196850393700787,
                    "duration": 0.07731956250000849
                },
                {
                    "name": "G2",
                    "midi": 43,
                    "time": 131.4432562499999,
                    "velocity": 0.6141732283464567,
                    "duration": 0.07731956250000849
                },
                {
                    "name": "G1",
                    "midi": 31,
                    "time": 131.5463489999999,
                    "velocity": 0.6062992125984252,
                    "duration": 0.41237100000000737
                },
                {
                    "name": "G2",
                    "midi": 43,
                    "time": 131.5463489999999,
                    "velocity": 0.7244094488188977,
                    "duration": 0.41237100000000737
                },
                {
                    "name": "B1",
                    "midi": 35,
                    "time": 131.95871999999991,
                    "velocity": 0.33070866141732286,
                    "duration": 0.07731956250000849
                },
                {
                    "name": "B2",
                    "midi": 47,
                    "time": 131.95871999999991,
                    "velocity": 0.3937007874015748,
                    "duration": 0.07731956250000849
                },
                {
                    "name": "D2",
                    "midi": 38,
                    "time": 132.16490549999992,
                    "velocity": 0.33858267716535434,
                    "duration": 0.07731956250000849
                },
                {
                    "name": "D3",
                    "midi": 50,
                    "time": 132.16490549999992,
                    "velocity": 0.4015748031496063,
                    "duration": 0.07731956250000849
                },
                {
                    "name": "G2",
                    "midi": 43,
                    "time": 132.37109099999992,
                    "velocity": 0.3543307086614173,
                    "duration": 0.07731956250000849
                },
                {
                    "name": "G3",
                    "midi": 55,
                    "time": 132.37109099999992,
                    "velocity": 0.41732283464566927,
                    "duration": 0.07731956250000849
                },
                {
                    "name": "F2",
                    "midi": 41,
                    "time": 132.57727649999993,
                    "velocity": 0.33858267716535434,
                    "duration": 0.07731956250000849
                },
                {
                    "name": "F3",
                    "midi": 53,
                    "time": 132.57727649999993,
                    "velocity": 0.4015748031496063,
                    "duration": 0.07731956250000849
                },
                {
                    "name": "E2",
                    "midi": 40,
                    "time": 132.78346199999993,
                    "velocity": 0.3464566929133858,
                    "duration": 0.07731956250000849
                },
                {
                    "name": "E3",
                    "midi": 52,
                    "time": 132.78346199999993,
                    "velocity": 0.4094488188976378,
                    "duration": 0.07731956250000849
                },
                {
                    "name": "C2",
                    "midi": 36,
                    "time": 132.98964749999993,
                    "velocity": 0.33070866141732286,
                    "duration": 0.07731956250000849
                },
                {
                    "name": "C3",
                    "midi": 48,
                    "time": 132.98964749999993,
                    "velocity": 0.3937007874015748,
                    "duration": 0.07731956250000849
                },
                {
                    "name": "B1",
                    "midi": 35,
                    "time": 133.19583299999994,
                    "velocity": 0.33070866141732286,
                    "duration": 0.07731956250000849
                },
                {
                    "name": "B2",
                    "midi": 47,
                    "time": 133.19583299999994,
                    "velocity": 0.3937007874015748,
                    "duration": 0.07731956250000849
                },
                {
                    "name": "A1",
                    "midi": 33,
                    "time": 133.40201849999994,
                    "velocity": 0.33070866141732286,
                    "duration": 0.07731956250000849
                },
                {
                    "name": "A2",
                    "midi": 45,
                    "time": 133.40201849999994,
                    "velocity": 0.3937007874015748,
                    "duration": 0.07731956250000849
                },
                {
                    "name": "F2",
                    "midi": 41,
                    "time": 133.60820399999994,
                    "velocity": 0.4251968503937008,
                    "duration": 0.10309275000000184
                },
                {
                    "name": "F3",
                    "midi": 53,
                    "time": 133.71129674999995,
                    "velocity": 0.4409448818897638,
                    "duration": 0.10309275000000184
                },
                {
                    "name": "F2",
                    "midi": 41,
                    "time": 133.81438949999995,
                    "velocity": 0.44881889763779526,
                    "duration": 0.10309275000000184
                },
                {
                    "name": "F3",
                    "midi": 53,
                    "time": 133.91748224999995,
                    "velocity": 0.4645669291338583,
                    "duration": 0.10309275000000184
                },
                {
                    "name": "E2",
                    "midi": 40,
                    "time": 134.02057499999995,
                    "velocity": 0.47244094488188976,
                    "duration": 0.10309275000000184
                },
                {
                    "name": "E3",
                    "midi": 52,
                    "time": 134.12366774999995,
                    "velocity": 0.4881889763779528,
                    "duration": 0.10309275000000184
                },
                {
                    "name": "E2",
                    "midi": 40,
                    "time": 134.22676049999995,
                    "velocity": 0.49606299212598426,
                    "duration": 0.10309275000000184
                },
                {
                    "name": "E3",
                    "midi": 52,
                    "time": 134.32985324999996,
                    "velocity": 0.5118110236220472,
                    "duration": 0.10309275000000184
                },
                {
                    "name": "D2",
                    "midi": 38,
                    "time": 134.43294599999996,
                    "velocity": 0.5196850393700787,
                    "duration": 0.10309275000000184
                },
                {
                    "name": "D3",
                    "midi": 50,
                    "time": 134.53603874999996,
                    "velocity": 0.5196850393700787,
                    "duration": 0.10309275000000184
                },
                {
                    "name": "D2",
                    "midi": 38,
                    "time": 134.63913149999996,
                    "velocity": 0.5275590551181102,
                    "duration": 0.10309275000000184
                },
                {
                    "name": "D3",
                    "midi": 50,
                    "time": 134.74222424999996,
                    "velocity": 0.5354330708661418,
                    "duration": 0.10309275000000184
                },
                {
                    "name": "G#1",
                    "midi": 32,
                    "time": 134.84531699999997,
                    "velocity": 0.5433070866141733,
                    "duration": 0.10309275000000184
                },
                {
                    "name": "G#2",
                    "midi": 44,
                    "time": 134.94840974999997,
                    "velocity": 0.5433070866141733,
                    "duration": 0.10309275000000184
                },
                {
                    "name": "G#1",
                    "midi": 32,
                    "time": 135.05150249999997,
                    "velocity": 0.5511811023622047,
                    "duration": 0.10309275000000184
                },
                {
                    "name": "G#2",
                    "midi": 44,
                    "time": 135.15459524999997,
                    "velocity": 0.5590551181102362,
                    "duration": 0.10309275000000184
                },
                {
                    "name": "A1",
                    "midi": 33,
                    "time": 135.25768799999997,
                    "velocity": 0.3937007874015748,
                    "duration": 0.07731956250000849
                },
                {
                    "name": "A2",
                    "midi": 45,
                    "time": 135.25768799999997,
                    "velocity": 0.47244094488188976,
                    "duration": 0.07731956250000849
                },
                {
                    "name": "E2",
                    "midi": 40,
                    "time": 135.46387349999998,
                    "velocity": 0.4015748031496063,
                    "duration": 0.07731956250000849
                },
                {
                    "name": "E3",
                    "midi": 52,
                    "time": 135.46387349999998,
                    "velocity": 0.48031496062992124,
                    "duration": 0.07731956250000849
                },
                {
                    "name": "A2",
                    "midi": 45,
                    "time": 135.67005899999998,
                    "velocity": 0.4251968503937008,
                    "duration": 0.07731956250000849
                },
                {
                    "name": "A3",
                    "midi": 57,
                    "time": 135.67005899999998,
                    "velocity": 0.49606299212598426,
                    "duration": 0.07731956250000849
                },
                {
                    "name": "G2",
                    "midi": 43,
                    "time": 135.87624449999998,
                    "velocity": 0.4015748031496063,
                    "duration": 0.07731956250000849
                },
                {
                    "name": "G3",
                    "midi": 55,
                    "time": 135.87624449999998,
                    "velocity": 0.48031496062992124,
                    "duration": 0.07731956250000849
                },
                {
                    "name": "F2",
                    "midi": 41,
                    "time": 136.08243,
                    "velocity": 0.4094488188976378,
                    "duration": 0.07731956250000849
                },
                {
                    "name": "F3",
                    "midi": 53,
                    "time": 136.08243,
                    "velocity": 0.4881889763779528,
                    "duration": 0.07731956250000849
                },
                {
                    "name": "D2",
                    "midi": 38,
                    "time": 136.2886155,
                    "velocity": 0.3937007874015748,
                    "duration": 0.07731956250000849
                },
                {
                    "name": "D3",
                    "midi": 50,
                    "time": 136.2886155,
                    "velocity": 0.47244094488188976,
                    "duration": 0.07731956250000849
                },
                {
                    "name": "C2",
                    "midi": 36,
                    "time": 136.494801,
                    "velocity": 0.3937007874015748,
                    "duration": 0.07731956250000849
                },
                {
                    "name": "C3",
                    "midi": 48,
                    "time": 136.494801,
                    "velocity": 0.47244094488188976,
                    "duration": 0.07731956250000849
                },
                {
                    "name": "A#1",
                    "midi": 34,
                    "time": 136.7009865,
                    "velocity": 0.3937007874015748,
                    "duration": 0.07731956250000849
                },
                {
                    "name": "A#2",
                    "midi": 46,
                    "time": 136.7009865,
                    "velocity": 0.47244094488188976,
                    "duration": 0.07731956250000849
                },
                {
                    "name": "G2",
                    "midi": 43,
                    "time": 136.907172,
                    "velocity": 0.48031496062992124,
                    "duration": 0.10309275000000184
                },
                {
                    "name": "G3",
                    "midi": 55,
                    "time": 137.01026475,
                    "velocity": 0.4881889763779528,
                    "duration": 0.10309275000000184
                },
                {
                    "name": "G2",
                    "midi": 43,
                    "time": 137.1133575,
                    "velocity": 0.5039370078740157,
                    "duration": 0.10309275000000184
                },
                {
                    "name": "G3",
                    "midi": 55,
                    "time": 137.21645025,
                    "velocity": 0.5196850393700787,
                    "duration": 0.10309275000000184
                },
                {
                    "name": "F2",
                    "midi": 41,
                    "time": 137.319543,
                    "velocity": 0.5275590551181102,
                    "duration": 0.10309275000000184
                },
                {
                    "name": "F3",
                    "midi": 53,
                    "time": 137.42263575,
                    "velocity": 0.5433070866141733,
                    "duration": 0.10309275000000184
                },
                {
                    "name": "F2",
                    "midi": 41,
                    "time": 137.5257285,
                    "velocity": 0.5590551181102362,
                    "duration": 0.10309275000000184
                },
                {
                    "name": "F3",
                    "midi": 53,
                    "time": 137.62882125000002,
                    "velocity": 0.5748031496062992,
                    "duration": 0.10309275000000184
                },
                {
                    "name": "E2",
                    "midi": 40,
                    "time": 137.73191400000002,
                    "velocity": 0.5984251968503937,
                    "duration": 0.10309275000000184
                },
                {
                    "name": "E3",
                    "midi": 52,
                    "time": 137.83500675000002,
                    "velocity": 0.5669291338582677,
                    "duration": 0.10309275000000184
                },
                {
                    "name": "E2",
                    "midi": 40,
                    "time": 137.93809950000002,
                    "velocity": 0.5984251968503937,
                    "duration": 0.10309275000000184
                },
                {
                    "name": "E3",
                    "midi": 52,
                    "time": 138.04119225000002,
                    "velocity": 0.5590551181102362,
                    "duration": 0.10309275000000184
                },
                {
                    "name": "A1",
                    "midi": 33,
                    "time": 138.14428500000002,
                    "velocity": 0.5984251968503937,
                    "duration": 0.10309275000000184
                },
                {
                    "name": "A2",
                    "midi": 45,
                    "time": 138.24737775000003,
                    "velocity": 0.5669291338582677,
                    "duration": 0.10309275000000184
                },
                {
                    "name": "A1",
                    "midi": 33,
                    "time": 138.35047050000003,
                    "velocity": 0.5984251968503937,
                    "duration": 0.10309275000000184
                },
                {
                    "name": "A2",
                    "midi": 45,
                    "time": 138.45356325000003,
                    "velocity": 0.5590551181102362,
                    "duration": 0.10309275000000184
                },
                {
                    "name": "D2",
                    "midi": 38,
                    "time": 138.55665600000003,
                    "velocity": 0.5590551181102362,
                    "duration": 0.20618550000000369
                },
                {
                    "name": "D3",
                    "midi": 50,
                    "time": 138.55665600000003,
                    "velocity": 0.6614173228346457,
                    "duration": 0.20618550000000369
                },
                {
                    "name": "A2",
                    "midi": 45,
                    "time": 138.76284150000004,
                    "velocity": 0.5118110236220472,
                    "duration": 0.20618550000000369
                },
                {
                    "name": "A3",
                    "midi": 57,
                    "time": 138.76284150000004,
                    "velocity": 0.6062992125984252,
                    "duration": 0.20618550000000369
                },
                {
                    "name": "D3",
                    "midi": 50,
                    "time": 138.96902700000004,
                    "velocity": 0.5669291338582677,
                    "duration": 0.07731956250000849
                },
                {
                    "name": "D4",
                    "midi": 62,
                    "time": 138.96902700000004,
                    "velocity": 0.6692913385826772,
                    "duration": 0.07731956250000849
                },
                {
                    "name": "C3",
                    "midi": 48,
                    "time": 139.17521250000004,
                    "velocity": 0.5039370078740157,
                    "duration": 0.07731956250000849
                },
                {
                    "name": "C4",
                    "midi": 60,
                    "time": 139.17521250000004,
                    "velocity": 0.5984251968503937,
                    "duration": 0.07731956250000849
                },
                {
                    "name": "B2",
                    "midi": 47,
                    "time": 139.38139800000005,
                    "velocity": 0.5433070866141733,
                    "duration": 0.20618550000000369
                },
                {
                    "name": "B3",
                    "midi": 59,
                    "time": 139.38139800000005,
                    "velocity": 0.6456692913385826,
                    "duration": 0.20618550000000369
                },
                {
                    "name": "G2",
                    "midi": 43,
                    "time": 139.58758350000005,
                    "velocity": 0.4881889763779528,
                    "duration": 0.20618550000000369
                },
                {
                    "name": "G3",
                    "midi": 55,
                    "time": 139.58758350000005,
                    "velocity": 0.5826771653543307,
                    "duration": 0.20618550000000369
                },
                {
                    "name": "F#2",
                    "midi": 42,
                    "time": 139.79376900000005,
                    "velocity": 0.49606299212598426,
                    "duration": 0.07731956250000849
                },
                {
                    "name": "F#3",
                    "midi": 54,
                    "time": 139.79376900000005,
                    "velocity": 0.5905511811023622,
                    "duration": 0.07731956250000849
                },
                {
                    "name": "E2",
                    "midi": 40,
                    "time": 139.99995450000006,
                    "velocity": 0.49606299212598426,
                    "duration": 0.07731956250000849
                },
                {
                    "name": "E3",
                    "midi": 52,
                    "time": 139.99995450000006,
                    "velocity": 0.5905511811023622,
                    "duration": 0.07731956250000849
                },
                {
                    "name": "C3",
                    "midi": 48,
                    "time": 140.20614000000006,
                    "velocity": 0.5196850393700787,
                    "duration": 0.10309275000000184
                },
                {
                    "name": "C4",
                    "midi": 60,
                    "time": 140.30923275000006,
                    "velocity": 0.5275590551181102,
                    "duration": 0.10309275000000184
                },
                {
                    "name": "C3",
                    "midi": 48,
                    "time": 140.41232550000007,
                    "velocity": 0.5354330708661418,
                    "duration": 0.10309275000000184
                },
                {
                    "name": "C4",
                    "midi": 60,
                    "time": 140.51541825000007,
                    "velocity": 0.5433070866141733,
                    "duration": 0.10309275000000184
                },
                {
                    "name": "B2",
                    "midi": 47,
                    "time": 140.61851100000007,
                    "velocity": 0.5590551181102362,
                    "duration": 0.10309275000000184
                },
                {
                    "name": "B3",
                    "midi": 59,
                    "time": 140.72160375000007,
                    "velocity": 0.5669291338582677,
                    "duration": 0.10309275000000184
                },
                {
                    "name": "B2",
                    "midi": 47,
                    "time": 140.82469650000007,
                    "velocity": 0.5748031496062992,
                    "duration": 0.10309275000000184
                },
                {
                    "name": "B3",
                    "midi": 59,
                    "time": 140.92778925000007,
                    "velocity": 0.5826771653543307,
                    "duration": 0.10309275000000184
                },
                {
                    "name": "A2",
                    "midi": 45,
                    "time": 141.03088200000008,
                    "velocity": 0.5905511811023622,
                    "duration": 0.10309275000000184
                },
                {
                    "name": "A3",
                    "midi": 57,
                    "time": 141.13397475000008,
                    "velocity": 0.5748031496062992,
                    "duration": 0.10309275000000184
                },
                {
                    "name": "A2",
                    "midi": 45,
                    "time": 141.23706750000008,
                    "velocity": 0.6141732283464567,
                    "duration": 0.10309275000000184
                },
                {
                    "name": "A3",
                    "midi": 57,
                    "time": 141.34016025000008,
                    "velocity": 0.5590551181102362,
                    "duration": 0.10309275000000184
                },
                {
                    "name": "D2",
                    "midi": 38,
                    "time": 141.44325300000008,
                    "velocity": 0.6141732283464567,
                    "duration": 0.10309275000000184
                },
                {
                    "name": "D3",
                    "midi": 50,
                    "time": 141.54634575000009,
                    "velocity": 0.5511811023622047,
                    "duration": 0.10309275000000184
                },
                {
                    "name": "D2",
                    "midi": 38,
                    "time": 141.6494385000001,
                    "velocity": 0.5984251968503937,
                    "duration": 0.10309275000000184
                },
                {
                    "name": "D3",
                    "midi": 50,
                    "time": 141.7525312500001,
                    "velocity": 0.5511811023622047,
                    "duration": 0.10309275000000184
                },
                {
                    "name": "G2",
                    "midi": 43,
                    "time": 141.8556240000001,
                    "velocity": 0.5590551181102362,
                    "duration": 0.20618550000000369
                },
                {
                    "name": "G3",
                    "midi": 55,
                    "time": 141.8556240000001,
                    "velocity": 0.6614173228346457,
                    "duration": 0.20618550000000369
                },
                {
                    "name": "D3",
                    "midi": 50,
                    "time": 142.0618095000001,
                    "velocity": 0.5118110236220472,
                    "duration": 0.20618550000000369
                },
                {
                    "name": "D4",
                    "midi": 62,
                    "time": 142.0618095000001,
                    "velocity": 0.6062992125984252,
                    "duration": 0.20618550000000369
                },
                {
                    "name": "G3",
                    "midi": 55,
                    "time": 142.2679950000001,
                    "velocity": 0.5669291338582677,
                    "duration": 0.20618550000000369
                },
                {
                    "name": "G4",
                    "midi": 67,
                    "time": 142.2679950000001,
                    "velocity": 0.6692913385826772,
                    "duration": 0.20618550000000369
                },
                {
                    "name": "F3",
                    "midi": 53,
                    "time": 142.4741805000001,
                    "velocity": 0.5039370078740157,
                    "duration": 0.20618550000000369
                },
                {
                    "name": "F4",
                    "midi": 65,
                    "time": 142.4741805000001,
                    "velocity": 0.5984251968503937,
                    "duration": 0.20618550000000369
                },
                {
                    "name": "E3",
                    "midi": 52,
                    "time": 142.6803660000001,
                    "velocity": 0.5433070866141733,
                    "duration": 0.20618550000000369
                },
                {
                    "name": "E4",
                    "midi": 64,
                    "time": 142.6803660000001,
                    "velocity": 0.6456692913385826,
                    "duration": 0.20618550000000369
                },
                {
                    "name": "C3",
                    "midi": 48,
                    "time": 142.8865515000001,
                    "velocity": 0.4881889763779528,
                    "duration": 0.20618550000000369
                },
                {
                    "name": "C4",
                    "midi": 60,
                    "time": 142.8865515000001,
                    "velocity": 0.5826771653543307,
                    "duration": 0.20618550000000369
                },
                {
                    "name": "B2",
                    "midi": 47,
                    "time": 143.0927370000001,
                    "velocity": 0.49606299212598426,
                    "duration": 0.20618550000000369
                },
                {
                    "name": "B3",
                    "midi": 59,
                    "time": 143.0927370000001,
                    "velocity": 0.5905511811023622,
                    "duration": 0.20618550000000369
                },
                {
                    "name": "A2",
                    "midi": 45,
                    "time": 143.29892250000012,
                    "velocity": 0.49606299212598426,
                    "duration": 0.20618550000000369
                },
                {
                    "name": "A3",
                    "midi": 57,
                    "time": 143.29892250000012,
                    "velocity": 0.5905511811023622,
                    "duration": 0.20618550000000369
                },
                {
                    "name": "F3",
                    "midi": 53,
                    "time": 143.50510800000012,
                    "velocity": 0.5196850393700787,
                    "duration": 0.10309275000000184
                },
                {
                    "name": "F4",
                    "midi": 65,
                    "time": 143.60820075000012,
                    "velocity": 0.5275590551181102,
                    "duration": 0.10309275000000184
                },
                {
                    "name": "F3",
                    "midi": 53,
                    "time": 143.71129350000012,
                    "velocity": 0.5354330708661418,
                    "duration": 0.10309275000000184
                },
                {
                    "name": "F4",
                    "midi": 65,
                    "time": 143.81438625000013,
                    "velocity": 0.5433070866141733,
                    "duration": 0.10309275000000184
                },
                {
                    "name": "E3",
                    "midi": 52,
                    "time": 143.91747900000013,
                    "velocity": 0.5590551181102362,
                    "duration": 0.10309275000000184
                },
                {
                    "name": "E4",
                    "midi": 64,
                    "time": 144.02057175000013,
                    "velocity": 0.5669291338582677,
                    "duration": 0.10309275000000184
                },
                {
                    "name": "E3",
                    "midi": 52,
                    "time": 144.12366450000013,
                    "velocity": 0.5748031496062992,
                    "duration": 0.10309275000000184
                },
                {
                    "name": "E4",
                    "midi": 64,
                    "time": 144.22675725000013,
                    "velocity": 0.5826771653543307,
                    "duration": 0.10309275000000184
                },
                {
                    "name": "D3",
                    "midi": 50,
                    "time": 144.32985000000014,
                    "velocity": 0.5905511811023622,
                    "duration": 0.10309275000000184
                },
                {
                    "name": "D4",
                    "midi": 62,
                    "time": 144.43294275000014,
                    "velocity": 0.5748031496062992,
                    "duration": 0.10309275000000184
                },
                {
                    "name": "D3",
                    "midi": 50,
                    "time": 144.53603550000014,
                    "velocity": 0.6299212598425197,
                    "duration": 0.10309275000000184
                },
                {
                    "name": "D4",
                    "midi": 62,
                    "time": 144.63912825000014,
                    "velocity": 0.5826771653543307,
                    "duration": 0.10309275000000184
                },
                {
                    "name": "G2",
                    "midi": 43,
                    "time": 144.74222100000014,
                    "velocity": 0.6535433070866141,
                    "duration": 0.10309275000000184
                },
                {
                    "name": "G3",
                    "midi": 55,
                    "time": 144.84531375000014,
                    "velocity": 0.5905511811023622,
                    "duration": 0.10309275000000184
                },
                {
                    "name": "G2",
                    "midi": 43,
                    "time": 144.94840650000015,
                    "velocity": 0.6535433070866141,
                    "duration": 0.10309275000000184
                },
                {
                    "name": "G3",
                    "midi": 55,
                    "time": 145.05149925000015,
                    "velocity": 0.6141732283464567,
                    "duration": 0.10309275000000184
                },
                {
                    "name": "C3",
                    "midi": 48,
                    "time": 145.15459200000015,
                    "velocity": 0.5039370078740157,
                    "duration": 0.10309275000000184
                },
                {
                    "name": "C4",
                    "midi": 60,
                    "time": 145.25768475000015,
                    "velocity": 0.4251968503937008,
                    "duration": 0.10309275000000184
                },
                {
                    "name": "C3",
                    "midi": 48,
                    "time": 145.36077750000015,
                    "velocity": 0.5039370078740157,
                    "duration": 0.10309275000000184
                },
                {
                    "name": "C4",
                    "midi": 60,
                    "time": 145.46387025000016,
                    "velocity": 0.41732283464566927,
                    "duration": 0.10309275000000184
                },
                {
                    "name": "F2",
                    "midi": 41,
                    "time": 145.56696300000016,
                    "velocity": 0.5039370078740157,
                    "duration": 0.10309275000000184
                },
                {
                    "name": "F3",
                    "midi": 53,
                    "time": 145.67005575000016,
                    "velocity": 0.4330708661417323,
                    "duration": 0.10309275000000184
                },
                {
                    "name": "F2",
                    "midi": 41,
                    "time": 145.77314850000016,
                    "velocity": 0.5039370078740157,
                    "duration": 0.10309275000000184
                },
                {
                    "name": "F3",
                    "midi": 53,
                    "time": 145.87624125000016,
                    "velocity": 0.4251968503937008,
                    "duration": 0.10309275000000184
                },
                {
                    "name": "B2",
                    "midi": 47,
                    "time": 145.97933400000016,
                    "velocity": 0.5039370078740157,
                    "duration": 0.10309274999997342
                },
                {
                    "name": "B3",
                    "midi": 59,
                    "time": 146.08242675000014,
                    "velocity": 0.4251968503937008,
                    "duration": 0.10309275000000184
                },
                {
                    "name": "B2",
                    "midi": 47,
                    "time": 146.18551950000014,
                    "velocity": 0.5039370078740157,
                    "duration": 0.10309275000000184
                },
                {
                    "name": "B3",
                    "midi": 59,
                    "time": 146.28861225000014,
                    "velocity": 0.4251968503937008,
                    "duration": 0.10309275000000184
                },
                {
                    "name": "E2",
                    "midi": 40,
                    "time": 146.39170500000014,
                    "velocity": 0.5039370078740157,
                    "duration": 0.10309275000000184
                },
                {
                    "name": "E3",
                    "midi": 52,
                    "time": 146.49479775000015,
                    "velocity": 0.41732283464566927,
                    "duration": 0.10309275000000184
                },
                {
                    "name": "E2",
                    "midi": 40,
                    "time": 146.59789050000015,
                    "velocity": 0.5039370078740157,
                    "duration": 0.10309275000000184
                },
                {
                    "name": "E3",
                    "midi": 52,
                    "time": 146.70098325000015,
                    "velocity": 0.4330708661417323,
                    "duration": 0.10309275000000184
                },
                {
                    "name": "F2",
                    "midi": 41,
                    "time": 146.80407600000015,
                    "velocity": 0.5039370078740157,
                    "duration": 0.10309275000000184
                },
                {
                    "name": "F3",
                    "midi": 53,
                    "time": 146.90716875000015,
                    "velocity": 0.4409448818897638,
                    "duration": 0.10309275000000184
                },
                {
                    "name": "F2",
                    "midi": 41,
                    "time": 147.01026150000015,
                    "velocity": 0.5039370078740157,
                    "duration": 0.10309275000000184
                },
                {
                    "name": "F3",
                    "midi": 53,
                    "time": 147.11335425000016,
                    "velocity": 0.4251968503937008,
                    "duration": 0.10309275000000184
                },
                {
                    "name": "D3",
                    "midi": 50,
                    "time": 147.21644700000016,
                    "velocity": 0.5275590551181102,
                    "duration": 0.10309275000000184
                },
                {
                    "name": "A2",
                    "midi": 45,
                    "time": 147.21644700000016,
                    "velocity": 0.4409448818897638,
                    "duration": 0.10309275000000184
                },
                {
                    "name": "F2",
                    "midi": 41,
                    "time": 147.21644700000016,
                    "velocity": 0.4409448818897638,
                    "duration": 0.10309275000000184
                },
                {
                    "name": "F3",
                    "midi": 53,
                    "time": 147.31953975000016,
                    "velocity": 0.4645669291338583,
                    "duration": 0.10309275000000184
                },
                {
                    "name": "F2",
                    "midi": 41,
                    "time": 147.42263250000016,
                    "velocity": 0.4409448818897638,
                    "duration": 0.10309275000000184
                },
                {
                    "name": "A2",
                    "midi": 45,
                    "time": 147.42263250000016,
                    "velocity": 0.4409448818897638,
                    "duration": 0.10309275000000184
                },
                {
                    "name": "D3",
                    "midi": 50,
                    "time": 147.42263250000016,
                    "velocity": 0.5275590551181102,
                    "duration": 0.10309275000000184
                },
                {
                    "name": "F3",
                    "midi": 53,
                    "time": 147.52572525000016,
                    "velocity": 0.44881889763779526,
                    "duration": 0.10309275000000184
                },
                {
                    "name": "G2",
                    "midi": 43,
                    "time": 147.62881800000017,
                    "velocity": 0.41732283464566927,
                    "duration": 0.10309274999997342
                },
                {
                    "name": "C3",
                    "midi": 48,
                    "time": 147.62881800000017,
                    "velocity": 0.41732283464566927,
                    "duration": 0.10309274999997342
                },
                {
                    "name": "E3",
                    "midi": 52,
                    "time": 147.62881800000017,
                    "velocity": 0.5039370078740157,
                    "duration": 0.10309274999997342
                },
                {
                    "name": "G3",
                    "midi": 55,
                    "time": 147.73191075000014,
                    "velocity": 0.44881889763779526,
                    "duration": 0.10309275000000184
                },
                {
                    "name": "G2",
                    "midi": 43,
                    "time": 147.83500350000014,
                    "velocity": 0.41732283464566927,
                    "duration": 0.10309275000000184
                },
                {
                    "name": "C3",
                    "midi": 48,
                    "time": 147.83500350000014,
                    "velocity": 0.41732283464566927,
                    "duration": 0.10309275000000184
                },
                {
                    "name": "E3",
                    "midi": 52,
                    "time": 147.83500350000014,
                    "velocity": 0.5039370078740157,
                    "duration": 0.10309275000000184
                },
                {
                    "name": "G3",
                    "midi": 55,
                    "time": 147.93809625000014,
                    "velocity": 0.4409448818897638,
                    "duration": 0.10309275000000184
                },
                {
                    "name": "G2",
                    "midi": 43,
                    "time": 148.04118900000014,
                    "velocity": 0.41732283464566927,
                    "duration": 0.10309275000000184
                },
                {
                    "name": "B2",
                    "midi": 47,
                    "time": 148.04118900000014,
                    "velocity": 0.41732283464566927,
                    "duration": 0.10309275000000184
                },
                {
                    "name": "D3",
                    "midi": 50,
                    "time": 148.04118900000014,
                    "velocity": 0.5039370078740157,
                    "duration": 0.10309275000000184
                },
                {
                    "name": "G3",
                    "midi": 55,
                    "time": 148.14428175000015,
                    "velocity": 0.44881889763779526,
                    "duration": 0.10309275000000184
                },
                {
                    "name": "G2",
                    "midi": 43,
                    "time": 148.24737450000015,
                    "velocity": 0.41732283464566927,
                    "duration": 0.10309275000000184
                },
                {
                    "name": "B2",
                    "midi": 47,
                    "time": 148.24737450000015,
                    "velocity": 0.41732283464566927,
                    "duration": 0.10309275000000184
                },
                {
                    "name": "D3",
                    "midi": 50,
                    "time": 148.24737450000015,
                    "velocity": 0.5039370078740157,
                    "duration": 0.10309275000000184
                },
                {
                    "name": "G3",
                    "midi": 55,
                    "time": 148.35046725000015,
                    "velocity": 0.44881889763779526,
                    "duration": 0.10309275000000184
                },
                {
                    "name": "C4",
                    "midi": 60,
                    "time": 148.45356000000015,
                    "velocity": 0.5039370078740157,
                    "duration": 0.10309274999997342
                },
                {
                    "name": "G3",
                    "midi": 55,
                    "time": 148.45356000000015,
                    "velocity": 0.41732283464566927,
                    "duration": 0.10309274999997342
                },
                {
                    "name": "E3",
                    "midi": 52,
                    "time": 148.45356000000015,
                    "velocity": 0.41732283464566927,
                    "duration": 0.10309274999997342
                },
                {
                    "name": "E4",
                    "midi": 64,
                    "time": 148.55665275000013,
                    "velocity": 0.4330708661417323,
                    "duration": 0.10309275000000184
                },
                {
                    "name": "C4",
                    "midi": 60,
                    "time": 148.65974550000013,
                    "velocity": 0.5039370078740157,
                    "duration": 0.10309275000000184
                },
                {
                    "name": "G3",
                    "midi": 55,
                    "time": 148.65974550000013,
                    "velocity": 0.41732283464566927,
                    "duration": 0.10309275000000184
                },
                {
                    "name": "E3",
                    "midi": 52,
                    "time": 148.65974550000013,
                    "velocity": 0.41732283464566927,
                    "duration": 0.10309275000000184
                },
                {
                    "name": "E4",
                    "midi": 64,
                    "time": 148.76283825000013,
                    "velocity": 0.4330708661417323,
                    "duration": 0.10309275000000184
                },
                {
                    "name": "D4",
                    "midi": 62,
                    "time": 148.86593100000013,
                    "velocity": 0.5275590551181102,
                    "duration": 0.10309274999997342
                },
                {
                    "name": "A3",
                    "midi": 57,
                    "time": 148.86593100000013,
                    "velocity": 0.4409448818897638,
                    "duration": 0.10309274999997342
                },
                {
                    "name": "F3",
                    "midi": 53,
                    "time": 148.86593100000013,
                    "velocity": 0.4409448818897638,
                    "duration": 0.10309274999997342
                },
                {
                    "name": "F4",
                    "midi": 65,
                    "time": 148.9690237500001,
                    "velocity": 0.4566929133858268,
                    "duration": 0.10309275000000184
                },
                {
                    "name": "D4",
                    "midi": 62,
                    "time": 149.0721165000001,
                    "velocity": 0.5275590551181102,
                    "duration": 0.10309275000000184
                },
                {
                    "name": "A3",
                    "midi": 57,
                    "time": 149.0721165000001,
                    "velocity": 0.4409448818897638,
                    "duration": 0.10309275000000184
                },
                {
                    "name": "F3",
                    "midi": 53,
                    "time": 149.0721165000001,
                    "velocity": 0.4409448818897638,
                    "duration": 0.10309275000000184
                },
                {
                    "name": "F4",
                    "midi": 65,
                    "time": 149.1752092500001,
                    "velocity": 0.4409448818897638,
                    "duration": 0.10309275000000184
                },
                {
                    "name": "E4",
                    "midi": 64,
                    "time": 149.2783020000001,
                    "velocity": 0.5590551181102362,
                    "duration": 0.10309275000000184
                },
                {
                    "name": "C4",
                    "midi": 60,
                    "time": 149.2783020000001,
                    "velocity": 0.4645669291338583,
                    "duration": 0.10309275000000184
                },
                {
                    "name": "G3",
                    "midi": 55,
                    "time": 149.2783020000001,
                    "velocity": 0.4645669291338583,
                    "duration": 0.10309275000000184
                },
                {
                    "name": "G4",
                    "midi": 67,
                    "time": 149.3813947500001,
                    "velocity": 0.48031496062992124,
                    "duration": 0.10309275000000184
                },
                {
                    "name": "E4",
                    "midi": 64,
                    "time": 149.4844875000001,
                    "velocity": 0.5511811023622047,
                    "duration": 0.10309275000000184
                },
                {
                    "name": "C4",
                    "midi": 60,
                    "time": 149.4844875000001,
                    "velocity": 0.4566929133858268,
                    "duration": 0.10309275000000184
                },
                {
                    "name": "G3",
                    "midi": 55,
                    "time": 149.4844875000001,
                    "velocity": 0.4566929133858268,
                    "duration": 0.10309275000000184
                },
                {
                    "name": "G4",
                    "midi": 67,
                    "time": 149.58758025000012,
                    "velocity": 0.4645669291338583,
                    "duration": 0.10309275000000184
                },
                {
                    "name": "F4",
                    "midi": 65,
                    "time": 149.69067300000012,
                    "velocity": 0.5590551181102362,
                    "duration": 0.10309274999997342
                },
                {
                    "name": "D4",
                    "midi": 62,
                    "time": 149.69067300000012,
                    "velocity": 0.4645669291338583,
                    "duration": 0.10309274999997342
                },
                {
                    "name": "G3",
                    "midi": 55,
                    "time": 149.69067300000012,
                    "velocity": 0.4645669291338583,
                    "duration": 0.10309274999997342
                },
                {
                    "name": "G4",
                    "midi": 67,
                    "time": 149.7937657500001,
                    "velocity": 0.5039370078740157,
                    "duration": 0.10309275000000184
                },
                {
                    "name": "F4",
                    "midi": 65,
                    "time": 149.8968585000001,
                    "velocity": 0.5826771653543307,
                    "duration": 0.10309275000000184
                },
                {
                    "name": "D4",
                    "midi": 62,
                    "time": 149.8968585000001,
                    "velocity": 0.49606299212598426,
                    "duration": 0.10309275000000184
                },
                {
                    "name": "G3",
                    "midi": 55,
                    "time": 149.8968585000001,
                    "velocity": 0.49606299212598426,
                    "duration": 0.10309275000000184
                },
                {
                    "name": "G4",
                    "midi": 67,
                    "time": 149.9999512500001,
                    "velocity": 0.49606299212598426,
                    "duration": 0.10309275000000184
                },
                {
                    "name": "C2",
                    "midi": 36,
                    "time": 150.1030440000001,
                    "velocity": 0.5511811023622047,
                    "duration": 0.41237100000000737
                },
                {
                    "name": "C3",
                    "midi": 48,
                    "time": 150.1030440000001,
                    "velocity": 0.6456692913385826,
                    "duration": 0.41237100000000737
                },
                {
                    "name": "E2",
                    "midi": 40,
                    "time": 150.5154150000001,
                    "velocity": 0.47244094488188976,
                    "duration": 0.07731956250000849
                },
                {
                    "name": "E3",
                    "midi": 52,
                    "time": 150.5154150000001,
                    "velocity": 0.5669291338582677,
                    "duration": 0.07731956250000849
                },
                {
                    "name": "E2",
                    "midi": 40,
                    "time": 150.7216005000001,
                    "velocity": 0.47244094488188976,
                    "duration": 0.07731956250000849
                },
                {
                    "name": "E3",
                    "midi": 52,
                    "time": 150.7216005000001,
                    "velocity": 0.5669291338582677,
                    "duration": 0.07731956250000849
                },
                {
                    "name": "G2",
                    "midi": 43,
                    "time": 150.9277860000001,
                    "velocity": 0.5196850393700787,
                    "duration": 0.41237099999997895
                },
                {
                    "name": "G3",
                    "midi": 55,
                    "time": 150.9277860000001,
                    "velocity": 0.6141732283464567,
                    "duration": 0.41237099999997895
                },
                {
                    "name": "G1",
                    "midi": 31,
                    "time": 151.3401570000001,
                    "velocity": 0.4881889763779528,
                    "duration": 0.07731956249998007
                },
                {
                    "name": "G2",
                    "midi": 43,
                    "time": 151.3401570000001,
                    "velocity": 0.5748031496062992,
                    "duration": 0.07731956249998007
                },
                {
                    "name": "G1",
                    "midi": 31,
                    "time": 151.54634250000007,
                    "velocity": 0.49606299212598426,
                    "duration": 0.07731956250000849
                },
                {
                    "name": "G2",
                    "midi": 43,
                    "time": 151.54634250000007,
                    "velocity": 0.5826771653543307,
                    "duration": 0.07731956250000849
                },
                {
                    "name": "D2",
                    "midi": 38,
                    "time": 151.75252800000007,
                    "velocity": 0.5275590551181102,
                    "duration": 0.41237100000000737
                },
                {
                    "name": "D3",
                    "midi": 50,
                    "time": 151.75252800000007,
                    "velocity": 0.6220472440944882,
                    "duration": 0.41237100000000737
                },
                {
                    "name": "F2",
                    "midi": 41,
                    "time": 152.16489900000008,
                    "velocity": 0.47244094488188976,
                    "duration": 0.07731956250000849
                },
                {
                    "name": "F3",
                    "midi": 53,
                    "time": 152.16489900000008,
                    "velocity": 0.5669291338582677,
                    "duration": 0.07731956250000849
                },
                {
                    "name": "F2",
                    "midi": 41,
                    "time": 152.37108450000008,
                    "velocity": 0.47244094488188976,
                    "duration": 0.07731956250000849
                },
                {
                    "name": "F3",
                    "midi": 53,
                    "time": 152.37108450000008,
                    "velocity": 0.5669291338582677,
                    "duration": 0.07731956250000849
                },
                {
                    "name": "A2",
                    "midi": 45,
                    "time": 152.57727000000008,
                    "velocity": 0.5196850393700787,
                    "duration": 0.41237099999997895
                },
                {
                    "name": "A3",
                    "midi": 57,
                    "time": 152.57727000000008,
                    "velocity": 0.6141732283464567,
                    "duration": 0.41237099999997895
                },
                {
                    "name": "A1",
                    "midi": 33,
                    "time": 152.98964100000006,
                    "velocity": 0.4881889763779528,
                    "duration": 0.07731956249998007
                },
                {
                    "name": "A2",
                    "midi": 45,
                    "time": 152.98964100000006,
                    "velocity": 0.5748031496062992,
                    "duration": 0.07731956249998007
                },
                {
                    "name": "A1",
                    "midi": 33,
                    "time": 153.19582650000004,
                    "velocity": 0.49606299212598426,
                    "duration": 0.07731956250000849
                },
                {
                    "name": "A2",
                    "midi": 45,
                    "time": 153.19582650000004,
                    "velocity": 0.5826771653543307,
                    "duration": 0.07731956250000849
                },
                {
                    "name": "F2",
                    "midi": 41,
                    "time": 153.40201200000004,
                    "velocity": 0.5275590551181102,
                    "duration": 0.41237100000000737
                },
                {
                    "name": "F3",
                    "midi": 53,
                    "time": 153.40201200000004,
                    "velocity": 0.6220472440944882,
                    "duration": 0.41237100000000737
                },
                {
                    "name": "A2",
                    "midi": 45,
                    "time": 153.81438300000005,
                    "velocity": 0.47244094488188976,
                    "duration": 0.07731956250000849
                },
                {
                    "name": "A3",
                    "midi": 57,
                    "time": 153.81438300000005,
                    "velocity": 0.5669291338582677,
                    "duration": 0.07731956250000849
                },
                {
                    "name": "A2",
                    "midi": 45,
                    "time": 154.02056850000005,
                    "velocity": 0.47244094488188976,
                    "duration": 0.07731956250000849
                },
                {
                    "name": "A3",
                    "midi": 57,
                    "time": 154.02056850000005,
                    "velocity": 0.5669291338582677,
                    "duration": 0.07731956250000849
                },
                {
                    "name": "C3",
                    "midi": 48,
                    "time": 154.22675400000006,
                    "velocity": 0.5196850393700787,
                    "duration": 0.41237099999997895
                },
                {
                    "name": "C4",
                    "midi": 60,
                    "time": 154.22675400000006,
                    "velocity": 0.6141732283464567,
                    "duration": 0.41237099999997895
                },
                {
                    "name": "C2",
                    "midi": 36,
                    "time": 154.63912500000004,
                    "velocity": 0.4881889763779528,
                    "duration": 0.07731956250000849
                },
                {
                    "name": "C3",
                    "midi": 48,
                    "time": 154.63912500000004,
                    "velocity": 0.5748031496062992,
                    "duration": 0.07731956250000849
                },
                {
                    "name": "C2",
                    "midi": 36,
                    "time": 154.84531050000004,
                    "velocity": 0.49606299212598426,
                    "duration": 0.07731956250000849
                },
                {
                    "name": "C3",
                    "midi": 48,
                    "time": 154.84531050000004,
                    "velocity": 0.5826771653543307,
                    "duration": 0.07731956250000849
                },
                {
                    "name": "E2",
                    "midi": 40,
                    "time": 155.05149600000004,
                    "velocity": 0.5590551181102362,
                    "duration": 0.12027487500000689
                },
                {
                    "name": "A#2",
                    "midi": 46,
                    "time": 155.15458875000004,
                    "velocity": 0.5039370078740157,
                    "duration": 0.12027487500000689
                },
                {
                    "name": "C#3",
                    "midi": 49,
                    "time": 155.25768150000005,
                    "velocity": 0.5039370078740157,
                    "duration": 0.12027487500000689
                },
                {
                    "name": "E3",
                    "midi": 52,
                    "time": 155.36077425000005,
                    "velocity": 0.5039370078740157,
                    "duration": 0.12027487500000689
                },
                {
                    "name": "E3",
                    "midi": 52,
                    "time": 155.46386700000005,
                    "velocity": 0.5590551181102362,
                    "duration": 0.12027487500000689
                },
                {
                    "name": "A#3",
                    "midi": 58,
                    "time": 155.56695975000005,
                    "velocity": 0.5196850393700787,
                    "duration": 0.12027487500000689
                },
                {
                    "name": "C#4",
                    "midi": 61,
                    "time": 155.67005250000005,
                    "velocity": 0.5196850393700787,
                    "duration": 0.12027487500000689
                },
                {
                    "name": "E4",
                    "midi": 64,
                    "time": 155.77314525000006,
                    "velocity": 0.5196850393700787,
                    "duration": 0.12027487500000689
                },
                {
                    "name": "F2",
                    "midi": 41,
                    "time": 155.87623800000006,
                    "velocity": 0.5590551181102362,
                    "duration": 0.12027487500000689
                },
                {
                    "name": "B2",
                    "midi": 47,
                    "time": 155.97933075000006,
                    "velocity": 0.5118110236220472,
                    "duration": 0.12027487500000689
                },
                {
                    "name": "D3",
                    "midi": 50,
                    "time": 156.08242350000006,
                    "velocity": 0.5196850393700787,
                    "duration": 0.12027487500000689
                },
                {
                    "name": "F3",
                    "midi": 53,
                    "time": 156.18551625000006,
                    "velocity": 0.5196850393700787,
                    "duration": 0.12027487500000689
                },
                {
                    "name": "F3",
                    "midi": 53,
                    "time": 156.28860900000006,
                    "velocity": 0.5590551181102362,
                    "duration": 0.12027487500000689
                },
                {
                    "name": "B3",
                    "midi": 59,
                    "time": 156.39170175000007,
                    "velocity": 0.5118110236220472,
                    "duration": 0.12027487500000689
                },
                {
                    "name": "D4",
                    "midi": 62,
                    "time": 156.49479450000007,
                    "velocity": 0.5118110236220472,
                    "duration": 0.12027487500000689
                },
                {
                    "name": "F4",
                    "midi": 65,
                    "time": 156.59788725000007,
                    "velocity": 0.5118110236220472,
                    "duration": 0.12027487500000689
                },
                {
                    "name": "E2",
                    "midi": 40,
                    "time": 156.70098000000007,
                    "velocity": 0.5590551181102362,
                    "duration": 0.12027487500003531
                },
                {
                    "name": "A#2",
                    "midi": 46,
                    "time": 156.8040727500001,
                    "velocity": 0.5039370078740157,
                    "duration": 0.12027487500000689
                },
                {
                    "name": "C#3",
                    "midi": 49,
                    "time": 156.9071655000001,
                    "velocity": 0.5039370078740157,
                    "duration": 0.12027487500000689
                },
                {
                    "name": "E3",
                    "midi": 52,
                    "time": 157.0102582500001,
                    "velocity": 0.5039370078740157,
                    "duration": 0.12027487500000689
                },
                {
                    "name": "E3",
                    "midi": 52,
                    "time": 157.1133510000001,
                    "velocity": 0.5590551181102362,
                    "duration": 0.12027487500000689
                },
                {
                    "name": "A#3",
                    "midi": 58,
                    "time": 157.2164437500001,
                    "velocity": 0.5196850393700787,
                    "duration": 0.12027487500000689
                },
                {
                    "name": "C#4",
                    "midi": 61,
                    "time": 157.3195365000001,
                    "velocity": 0.5196850393700787,
                    "duration": 0.12027487500000689
                },
                {
                    "name": "E4",
                    "midi": 64,
                    "time": 157.4226292500001,
                    "velocity": 0.5196850393700787,
                    "duration": 0.12027487500000689
                },
                {
                    "name": "F2",
                    "midi": 41,
                    "time": 157.52572200000012,
                    "velocity": 0.5590551181102362,
                    "duration": 0.12027487500000689
                },
                {
                    "name": "B2",
                    "midi": 47,
                    "time": 157.62881475000012,
                    "velocity": 0.5118110236220472,
                    "duration": 0.12027487500000689
                },
                {
                    "name": "D3",
                    "midi": 50,
                    "time": 157.73190750000012,
                    "velocity": 0.5196850393700787,
                    "duration": 0.12027487500000689
                },
                {
                    "name": "F3",
                    "midi": 53,
                    "time": 157.83500025000012,
                    "velocity": 0.5196850393700787,
                    "duration": 0.12027487500000689
                },
                {
                    "name": "F3",
                    "midi": 53,
                    "time": 157.93809300000012,
                    "velocity": 0.5590551181102362,
                    "duration": 0.12027487500000689
                },
                {
                    "name": "B3",
                    "midi": 59,
                    "time": 158.04118575000012,
                    "velocity": 0.5118110236220472,
                    "duration": 0.12027487500000689
                },
                {
                    "name": "D4",
                    "midi": 62,
                    "time": 158.14427850000013,
                    "velocity": 0.5118110236220472,
                    "duration": 0.12027487500000689
                },
                {
                    "name": "F4",
                    "midi": 65,
                    "time": 158.24737125000013,
                    "velocity": 0.5118110236220472,
                    "duration": 0.12027487499997846
                },
                {
                    "name": "C4",
                    "midi": 60,
                    "time": 158.35046400000013,
                    "velocity": 0.5275590551181102,
                    "duration": 0.10309274999997342
                },
                {
                    "name": "G3",
                    "midi": 55,
                    "time": 158.35046400000013,
                    "velocity": 0.4409448818897638,
                    "duration": 0.10309274999997342
                },
                {
                    "name": "E3",
                    "midi": 52,
                    "time": 158.35046400000013,
                    "velocity": 0.4409448818897638,
                    "duration": 0.10309274999997342
                },
                {
                    "name": "E4",
                    "midi": 64,
                    "time": 158.4535567500001,
                    "velocity": 0.4566929133858268,
                    "duration": 0.10309275000000184
                },
                {
                    "name": "C4",
                    "midi": 60,
                    "time": 158.5566495000001,
                    "velocity": 0.5275590551181102,
                    "duration": 0.10309275000000184
                },
                {
                    "name": "G3",
                    "midi": 55,
                    "time": 158.5566495000001,
                    "velocity": 0.4409448818897638,
                    "duration": 0.10309275000000184
                },
                {
                    "name": "E3",
                    "midi": 52,
                    "time": 158.5566495000001,
                    "velocity": 0.4409448818897638,
                    "duration": 0.10309275000000184
                },
                {
                    "name": "E4",
                    "midi": 64,
                    "time": 158.6597422500001,
                    "velocity": 0.44881889763779526,
                    "duration": 0.10309275000000184
                },
                {
                    "name": "C4",
                    "midi": 60,
                    "time": 158.7628350000001,
                    "velocity": 0.5196850393700787,
                    "duration": 0.10309274999997342
                },
                {
                    "name": "A3",
                    "midi": 57,
                    "time": 158.7628350000001,
                    "velocity": 0.4409448818897638,
                    "duration": 0.10309274999997342
                },
                {
                    "name": "F3",
                    "midi": 53,
                    "time": 158.7628350000001,
                    "velocity": 0.4409448818897638,
                    "duration": 0.10309274999997342
                },
                {
                    "name": "F4",
                    "midi": 65,
                    "time": 158.86592775000008,
                    "velocity": 0.44881889763779526,
                    "duration": 0.10309275000000184
                },
                {
                    "name": "C4",
                    "midi": 60,
                    "time": 158.96902050000008,
                    "velocity": 0.5196850393700787,
                    "duration": 0.10309275000000184
                },
                {
                    "name": "A3",
                    "midi": 57,
                    "time": 158.96902050000008,
                    "velocity": 0.4409448818897638,
                    "duration": 0.10309275000000184
                },
                {
                    "name": "F3",
                    "midi": 53,
                    "time": 158.96902050000008,
                    "velocity": 0.4409448818897638,
                    "duration": 0.10309275000000184
                },
                {
                    "name": "F4",
                    "midi": 65,
                    "time": 159.0721132500001,
                    "velocity": 0.4330708661417323,
                    "duration": 0.10309275000000184
                },
                {
                    "name": "E4",
                    "midi": 64,
                    "time": 159.1752060000001,
                    "velocity": 0.5118110236220472,
                    "duration": 0.10309275000000184
                },
                {
                    "name": "C4",
                    "midi": 60,
                    "time": 159.1752060000001,
                    "velocity": 0.4330708661417323,
                    "duration": 0.10309275000000184
                },
                {
                    "name": "G3",
                    "midi": 55,
                    "time": 159.1752060000001,
                    "velocity": 0.4330708661417323,
                    "duration": 0.10309275000000184
                },
                {
                    "name": "G4",
                    "midi": 67,
                    "time": 159.2782987500001,
                    "velocity": 0.4330708661417323,
                    "duration": 0.10309275000000184
                },
                {
                    "name": "E4",
                    "midi": 64,
                    "time": 159.3813915000001,
                    "velocity": 0.5118110236220472,
                    "duration": 0.10309275000000184
                },
                {
                    "name": "C4",
                    "midi": 60,
                    "time": 159.3813915000001,
                    "velocity": 0.4330708661417323,
                    "duration": 0.10309275000000184
                },
                {
                    "name": "G3",
                    "midi": 55,
                    "time": 159.3813915000001,
                    "velocity": 0.4330708661417323,
                    "duration": 0.10309275000000184
                },
                {
                    "name": "G4",
                    "midi": 67,
                    "time": 159.4844842500001,
                    "velocity": 0.4409448818897638,
                    "duration": 0.10309275000000184
                },
                {
                    "name": "F4",
                    "midi": 65,
                    "time": 159.5875770000001,
                    "velocity": 0.5039370078740157,
                    "duration": 0.10309274999997342
                },
                {
                    "name": "D4",
                    "midi": 62,
                    "time": 159.5875770000001,
                    "velocity": 0.4251968503937008,
                    "duration": 0.10309274999997342
                },
                {
                    "name": "G3",
                    "midi": 55,
                    "time": 159.5875770000001,
                    "velocity": 0.4251968503937008,
                    "duration": 0.10309274999997342
                },
                {
                    "name": "G4",
                    "midi": 67,
                    "time": 159.69066975000007,
                    "velocity": 0.4330708661417323,
                    "duration": 0.10309275000000184
                },
                {
                    "name": "F4",
                    "midi": 65,
                    "time": 159.79376250000007,
                    "velocity": 0.49606299212598426,
                    "duration": 0.10309275000000184
                },
                {
                    "name": "D4",
                    "midi": 62,
                    "time": 159.79376250000007,
                    "velocity": 0.41732283464566927,
                    "duration": 0.10309275000000184
                },
                {
                    "name": "G3",
                    "midi": 55,
                    "time": 159.79376250000007,
                    "velocity": 0.41732283464566927,
                    "duration": 0.10309275000000184
                },
                {
                    "name": "G4",
                    "midi": 67,
                    "time": 159.89685525000007,
                    "velocity": 0.4251968503937008,
                    "duration": 0.10309275000000184
                },
                {
                    "name": "C2",
                    "midi": 36,
                    "time": 159.99994800000007,
                    "velocity": 0.3858267716535433,
                    "duration": 0.41237100000000737
                },
                {
                    "name": "E3",
                    "midi": 52,
                    "time": 160.41231900000008,
                    "velocity": 0.30708661417322836,
                    "duration": 0.07731956250000849
                },
                {
                    "name": "C4",
                    "midi": 60,
                    "time": 160.41231900000008,
                    "velocity": 0.36220472440944884,
                    "duration": 0.07731956250000849
                },
                {
                    "name": "E3",
                    "midi": 52,
                    "time": 160.61850450000009,
                    "velocity": 0.30708661417322836,
                    "duration": 0.07731956250000849
                },
                {
                    "name": "C4",
                    "midi": 60,
                    "time": 160.61850450000009,
                    "velocity": 0.36220472440944884,
                    "duration": 0.07731956250000849
                },
                {
                    "name": "G3",
                    "midi": 55,
                    "time": 160.8246900000001,
                    "velocity": 0.30708661417322836,
                    "duration": 0.41237099999997895
                },
                {
                    "name": "D4",
                    "midi": 62,
                    "time": 160.8246900000001,
                    "velocity": 0.36220472440944884,
                    "duration": 0.41237099999997895
                },
                {
                    "name": "G2",
                    "midi": 43,
                    "time": 161.23706100000007,
                    "velocity": 0.3700787401574803,
                    "duration": 0.07731956250000849
                },
                {
                    "name": "G2",
                    "midi": 43,
                    "time": 161.44324650000007,
                    "velocity": 0.3779527559055118,
                    "duration": 0.07731956250000849
                },
                {
                    "name": "D2",
                    "midi": 38,
                    "time": 161.64943200000008,
                    "velocity": 0.3858267716535433,
                    "duration": 0.41237100000000737
                },
                {
                    "name": "F3",
                    "midi": 53,
                    "time": 162.06180300000008,
                    "velocity": 0.30708661417322836,
                    "duration": 0.07731956250000849
                },
                {
                    "name": "D4",
                    "midi": 62,
                    "time": 162.06180300000008,
                    "velocity": 0.36220472440944884,
                    "duration": 0.07731956250000849
                },
                {
                    "name": "F3",
                    "midi": 53,
                    "time": 162.2679885000001,
                    "velocity": 0.30708661417322836,
                    "duration": 0.07731956250000849
                },
                {
                    "name": "D4",
                    "midi": 62,
                    "time": 162.2679885000001,
                    "velocity": 0.36220472440944884,
                    "duration": 0.07731956250000849
                },
                {
                    "name": "A3",
                    "midi": 57,
                    "time": 162.4741740000001,
                    "velocity": 0.30708661417322836,
                    "duration": 0.41237099999997895
                },
                {
                    "name": "E4",
                    "midi": 64,
                    "time": 162.4741740000001,
                    "velocity": 0.36220472440944884,
                    "duration": 0.41237099999997895
                },
                {
                    "name": "A2",
                    "midi": 45,
                    "time": 162.88654500000007,
                    "velocity": 0.3700787401574803,
                    "duration": 0.07731956250000849
                },
                {
                    "name": "A2",
                    "midi": 45,
                    "time": 163.09273050000007,
                    "velocity": 0.3779527559055118,
                    "duration": 0.07731956250000849
                },
                {
                    "name": "F2",
                    "midi": 41,
                    "time": 163.29891600000008,
                    "velocity": 0.41732283464566927,
                    "duration": 0.41237100000000737
                },
                {
                    "name": "A3",
                    "midi": 57,
                    "time": 163.71128700000008,
                    "velocity": 0.3700787401574803,
                    "duration": 0.07731956250000849
                },
                {
                    "name": "F4",
                    "midi": 65,
                    "time": 163.71128700000008,
                    "velocity": 0.4409448818897638,
                    "duration": 0.07731956250000849
                },
                {
                    "name": "A3",
                    "midi": 57,
                    "time": 163.9174725000001,
                    "velocity": 0.3858267716535433,
                    "duration": 0.07731956250000849
                },
                {
                    "name": "F4",
                    "midi": 65,
                    "time": 163.9174725000001,
                    "velocity": 0.4566929133858268,
                    "duration": 0.07731956250000849
                },
                {
                    "name": "C4",
                    "midi": 60,
                    "time": 164.1236580000001,
                    "velocity": 0.4094488188976378,
                    "duration": 0.41237099999997895
                },
                {
                    "name": "G4",
                    "midi": 67,
                    "time": 164.1236580000001,
                    "velocity": 0.4881889763779528,
                    "duration": 0.41237099999997895
                },
                {
                    "name": "C3",
                    "midi": 48,
                    "time": 164.53602900000007,
                    "velocity": 0.5433070866141733,
                    "duration": 0.07731956250000849
                },
                {
                    "name": "C3",
                    "midi": 48,
                    "time": 164.74221450000007,
                    "velocity": 0.5748031496062992,
                    "duration": 0.07731956250000849
                },
                {
                    "name": "E2",
                    "midi": 40,
                    "time": 164.94840000000008,
                    "velocity": 0.5590551181102362,
                    "duration": 0.10309275000000184
                },
                {
                    "name": "A#2",
                    "midi": 46,
                    "time": 165.05149275000008,
                    "velocity": 0.5039370078740157,
                    "duration": 0.10309275000000184
                },
                {
                    "name": "C#3",
                    "midi": 49,
                    "time": 165.15458550000008,
                    "velocity": 0.5039370078740157,
                    "duration": 0.10309275000000184
                },
                {
                    "name": "E3",
                    "midi": 52,
                    "time": 165.25767825000008,
                    "velocity": 0.5039370078740157,
                    "duration": 0.10309275000000184
                },
                {
                    "name": "E3",
                    "midi": 52,
                    "time": 165.36077100000008,
                    "velocity": 0.5590551181102362,
                    "duration": 0.10309275000000184
                },
                {
                    "name": "A#3",
                    "midi": 58,
                    "time": 165.4638637500001,
                    "velocity": 0.5196850393700787,
                    "duration": 0.10309275000000184
                },
                {
                    "name": "C#4",
                    "midi": 61,
                    "time": 165.5669565000001,
                    "velocity": 0.5196850393700787,
                    "duration": 0.10309275000000184
                },
                {
                    "name": "E4",
                    "midi": 64,
                    "time": 165.6700492500001,
                    "velocity": 0.5196850393700787,
                    "duration": 0.10309275000000184
                },
                {
                    "name": "F2",
                    "midi": 41,
                    "time": 165.7731420000001,
                    "velocity": 0.5590551181102362,
                    "duration": 0.10309275000000184
                },
                {
                    "name": "B2",
                    "midi": 47,
                    "time": 165.8762347500001,
                    "velocity": 0.5118110236220472,
                    "duration": 0.10309275000000184
                },
                {
                    "name": "D3",
                    "midi": 50,
                    "time": 165.9793275000001,
                    "velocity": 0.5196850393700787,
                    "duration": 0.10309275000000184
                },
                {
                    "name": "F3",
                    "midi": 53,
                    "time": 166.0824202500001,
                    "velocity": 0.5196850393700787,
                    "duration": 0.10309275000000184
                },
                {
                    "name": "F3",
                    "midi": 53,
                    "time": 166.1855130000001,
                    "velocity": 0.5590551181102362,
                    "duration": 0.10309275000000184
                },
                {
                    "name": "B3",
                    "midi": 59,
                    "time": 166.2886057500001,
                    "velocity": 0.5118110236220472,
                    "duration": 0.10309275000000184
                },
                {
                    "name": "D4",
                    "midi": 62,
                    "time": 166.3916985000001,
                    "velocity": 0.5118110236220472,
                    "duration": 0.10309275000000184
                },
                {
                    "name": "F4",
                    "midi": 65,
                    "time": 166.4947912500001,
                    "velocity": 0.5118110236220472,
                    "duration": 0.10309275000000184
                },
                {
                    "name": "F#2",
                    "midi": 42,
                    "time": 166.5978840000001,
                    "velocity": 0.5590551181102362,
                    "duration": 0.10309275000000184
                },
                {
                    "name": "C3",
                    "midi": 48,
                    "time": 166.7009767500001,
                    "velocity": 0.5039370078740157,
                    "duration": 0.10309275000000184
                },
                {
                    "name": "D#3",
                    "midi": 51,
                    "time": 166.8040695000001,
                    "velocity": 0.5039370078740157,
                    "duration": 0.10309275000000184
                },
                {
                    "name": "F#3",
                    "midi": 54,
                    "time": 166.9071622500001,
                    "velocity": 0.5039370078740157,
                    "duration": 0.10309275000000184
                },
                {
                    "name": "F#3",
                    "midi": 54,
                    "time": 167.01025500000011,
                    "velocity": 0.5590551181102362,
                    "duration": 0.10309275000000184
                },
                {
                    "name": "C4",
                    "midi": 60,
                    "time": 167.11334775000012,
                    "velocity": 0.5196850393700787,
                    "duration": 0.10309275000000184
                },
                {
                    "name": "D#4",
                    "midi": 63,
                    "time": 167.21644050000012,
                    "velocity": 0.5196850393700787,
                    "duration": 0.10309275000000184
                },
                {
                    "name": "F#4",
                    "midi": 66,
                    "time": 167.31953325000012,
                    "velocity": 0.5196850393700787,
                    "duration": 0.10309275000000184
                },
                {
                    "name": "G2",
                    "midi": 43,
                    "time": 167.42262600000012,
                    "velocity": 0.5590551181102362,
                    "duration": 0.10309275000000184
                },
                {
                    "name": "C#3",
                    "midi": 49,
                    "time": 167.52571875000012,
                    "velocity": 0.5118110236220472,
                    "duration": 0.10309275000000184
                },
                {
                    "name": "E3",
                    "midi": 52,
                    "time": 167.62881150000013,
                    "velocity": 0.5196850393700787,
                    "duration": 0.10309275000000184
                },
                {
                    "name": "G3",
                    "midi": 55,
                    "time": 167.73190425000013,
                    "velocity": 0.5196850393700787,
                    "duration": 0.10309275000000184
                },
                {
                    "name": "G3",
                    "midi": 55,
                    "time": 167.83499700000013,
                    "velocity": 0.5590551181102362,
                    "duration": 0.10309275000000184
                },
                {
                    "name": "C#4",
                    "midi": 61,
                    "time": 167.93808975000013,
                    "velocity": 0.5118110236220472,
                    "duration": 0.10309275000000184
                },
                {
                    "name": "E4",
                    "midi": 64,
                    "time": 168.04118250000013,
                    "velocity": 0.5118110236220472,
                    "duration": 0.10309275000000184
                },
                {
                    "name": "G4",
                    "midi": 67,
                    "time": 168.14427525000013,
                    "velocity": 0.5118110236220472,
                    "duration": 0.10309275000000184
                },
                {
                    "name": "G#2",
                    "midi": 44,
                    "time": 168.24736800000014,
                    "velocity": 0.49606299212598426,
                    "duration": 0.10309275000000184
                },
                {
                    "name": "D3",
                    "midi": 50,
                    "time": 168.35046075000014,
                    "velocity": 0.44881889763779526,
                    "duration": 0.10309275000000184
                },
                {
                    "name": "F3",
                    "midi": 53,
                    "time": 168.45355350000014,
                    "velocity": 0.4566929133858268,
                    "duration": 0.10309275000000184
                },
                {
                    "name": "G#3",
                    "midi": 56,
                    "time": 168.55664625000014,
                    "velocity": 0.4566929133858268,
                    "duration": 0.10309275000000184
                },
                {
                    "name": "A3",
                    "midi": 57,
                    "time": 168.65973900000014,
                    "velocity": 0.5196850393700787,
                    "duration": 0.10309275000000184
                },
                {
                    "name": "D#4",
                    "midi": 63,
                    "time": 168.76283175000015,
                    "velocity": 0.4881889763779528,
                    "duration": 0.10309275000000184
                },
                {
                    "name": "F#4",
                    "midi": 66,
                    "time": 168.86592450000015,
                    "velocity": 0.4881889763779528,
                    "duration": 0.10309275000000184
                },
                {
                    "name": "A4",
                    "midi": 69,
                    "time": 168.96901725000015,
                    "velocity": 0.49606299212598426,
                    "duration": 0.10309275000000184
                },
                {
                    "name": "A#2",
                    "midi": 46,
                    "time": 169.07211000000015,
                    "velocity": 0.5354330708661418,
                    "duration": 0.10309275000000184
                },
                {
                    "name": "E3",
                    "midi": 52,
                    "time": 169.17520275000015,
                    "velocity": 0.49606299212598426,
                    "duration": 0.10309275000000184
                },
                {
                    "name": "G3",
                    "midi": 55,
                    "time": 169.27829550000016,
                    "velocity": 0.5118110236220472,
                    "duration": 0.10309275000000184
                },
                {
                    "name": "A#3",
                    "midi": 58,
                    "time": 169.38138825000016,
                    "velocity": 0.5196850393700787,
                    "duration": 0.10309275000000184
                },
                {
                    "name": "B3",
                    "midi": 59,
                    "time": 169.48448100000016,
                    "velocity": 0.5590551181102362,
                    "duration": 0.10309275000000184
                },
                {
                    "name": "F4",
                    "midi": 65,
                    "time": 169.58757375000016,
                    "velocity": 0.5196850393700787,
                    "duration": 0.10309275000000184
                },
                {
                    "name": "G#4",
                    "midi": 68,
                    "time": 169.69066650000016,
                    "velocity": 0.5196850393700787,
                    "duration": 0.10309275000000184
                },
                {
                    "name": "B4",
                    "midi": 71,
                    "time": 169.79375925000016,
                    "velocity": 0.5275590551181102,
                    "duration": 0.10309275000000184
                },
                {
                    "name": "C3",
                    "midi": 48,
                    "time": 169.89685200000017,
                    "velocity": 0.5826771653543307,
                    "duration": 0.10309275000000184
                },
                {
                    "name": "F#3",
                    "midi": 54,
                    "time": 169.99994475000017,
                    "velocity": 0.5275590551181102,
                    "duration": 0.10309275000000184
                },
                {
                    "name": "A3",
                    "midi": 57,
                    "time": 170.10303750000017,
                    "velocity": 0.5275590551181102,
                    "duration": 0.10309275000000184
                },
                {
                    "name": "C4",
                    "midi": 60,
                    "time": 170.20613025000017,
                    "velocity": 0.5354330708661418,
                    "duration": 0.10309275000000184
                },
                {
                    "name": "C#3",
                    "midi": 49,
                    "time": 170.30922300000017,
                    "velocity": 0.5984251968503937,
                    "duration": 0.10309275000000184
                },
                {
                    "name": "G3",
                    "midi": 55,
                    "time": 170.41231575000018,
                    "velocity": 0.5590551181102362,
                    "duration": 0.10309275000000184
                },
                {
                    "name": "A#3",
                    "midi": 58,
                    "time": 170.51540850000018,
                    "velocity": 0.5669291338582677,
                    "duration": 0.10309275000000184
                },
                {
                    "name": "C#4",
                    "midi": 61,
                    "time": 170.61850125000018,
                    "velocity": 0.5748031496062992,
                    "duration": 0.10309275000000184
                },
                {
                    "name": "D3",
                    "midi": 50,
                    "time": 170.72159400000018,
                    "velocity": 0.6220472440944882,
                    "duration": 0.10309275000000184
                },
                {
                    "name": "G#3",
                    "midi": 56,
                    "time": 170.82468675000018,
                    "velocity": 0.5748031496062992,
                    "duration": 0.10309275000000184
                },
                {
                    "name": "B3",
                    "midi": 59,
                    "time": 170.92777950000018,
                    "velocity": 0.5905511811023622,
                    "duration": 0.10309275000000184
                },
                {
                    "name": "D4",
                    "midi": 62,
                    "time": 171.0308722500002,
                    "velocity": 0.5905511811023622,
                    "duration": 0.10309275000000184
                },
                {
                    "name": "F4",
                    "midi": 65,
                    "time": 171.1339650000002,
                    "velocity": 0.6456692913385826,
                    "duration": 0.10309275000000184
                },
                {
                    "name": "B3",
                    "midi": 59,
                    "time": 171.2370577500002,
                    "velocity": 0.5984251968503937,
                    "duration": 0.10309275000000184
                },
                {
                    "name": "D4",
                    "midi": 62,
                    "time": 171.3401505000002,
                    "velocity": 0.5984251968503937,
                    "duration": 0.10309275000000184
                },
                {
                    "name": "F4",
                    "midi": 65,
                    "time": 171.4432432500002,
                    "velocity": 0.6062992125984252,
                    "duration": 0.10309275000000184
                },
                {
                    "name": "G#3",
                    "midi": 56,
                    "time": 171.5463360000002,
                    "velocity": 0.5118110236220472,
                    "duration": 0.41237100000000737
                },
                {
                    "name": "G#4",
                    "midi": 68,
                    "time": 171.5463360000002,
                    "velocity": 0.6141732283464567,
                    "duration": 0.41237100000000737
                },
                {
                    "name": "A3",
                    "midi": 57,
                    "time": 172.3710780000002,
                    "velocity": 0.5118110236220472,
                    "duration": 0.41237100000000737
                },
                {
                    "name": "A4",
                    "midi": 69,
                    "time": 172.3710780000002,
                    "velocity": 0.6141732283464567,
                    "duration": 0.41237100000000737
                },
                {
                    "name": "F2",
                    "midi": 41,
                    "time": 173.19582000000023,
                    "velocity": 0.5118110236220472,
                    "duration": 0.41237100000000737
                },
                {
                    "name": "A2",
                    "midi": 45,
                    "time": 173.19582000000023,
                    "velocity": 0.5118110236220472,
                    "duration": 0.41237100000000737
                },
                {
                    "name": "D3",
                    "midi": 50,
                    "time": 173.19582000000023,
                    "velocity": 0.5118110236220472,
                    "duration": 0.41237100000000737
                },
                {
                    "name": "F3",
                    "midi": 53,
                    "time": 173.19582000000023,
                    "velocity": 0.6141732283464567,
                    "duration": 0.41237100000000737
                },
                {
                    "name": "G2",
                    "midi": 43,
                    "time": 174.02056200000024,
                    "velocity": 0.5118110236220472,
                    "duration": 0.41237100000000737
                },
                {
                    "name": "B2",
                    "midi": 47,
                    "time": 174.02056200000024,
                    "velocity": 0.5118110236220472,
                    "duration": 0.41237100000000737
                },
                {
                    "name": "D3",
                    "midi": 50,
                    "time": 174.02056200000024,
                    "velocity": 0.5118110236220472,
                    "duration": 0.41237100000000737
                },
                {
                    "name": "G3",
                    "midi": 55,
                    "time": 174.02056200000024,
                    "velocity": 0.6141732283464567,
                    "duration": 0.41237100000000737
                },
                {
                    "name": "C2",
                    "midi": 36,
                    "time": 174.84530400000025,
                    "velocity": 0.25196850393700787,
                    "duration": 0.10309275000000184
                },
                {
                    "name": "C3",
                    "midi": 48,
                    "time": 174.94839675000026,
                    "velocity": 0.2047244094488189,
                    "duration": 0.10309275000000184
                },
                {
                    "name": "G2",
                    "midi": 43,
                    "time": 175.05148950000026,
                    "velocity": 0.2047244094488189,
                    "duration": 0.10309275000000184
                },
                {
                    "name": "C3",
                    "midi": 48,
                    "time": 175.15458225000026,
                    "velocity": 0.2047244094488189,
                    "duration": 0.10309275000000184
                },
                {
                    "name": "G#2",
                    "midi": 44,
                    "time": 175.25767500000026,
                    "velocity": 0.25196850393700787,
                    "duration": 0.10309275000000184
                },
                {
                    "name": "D#3",
                    "midi": 51,
                    "time": 175.36076775000026,
                    "velocity": 0.2047244094488189,
                    "duration": 0.10309275000000184
                },
                {
                    "name": "C3",
                    "midi": 48,
                    "time": 175.46386050000027,
                    "velocity": 0.1968503937007874,
                    "duration": 0.10309275000000184
                },
                {
                    "name": "D#3",
                    "midi": 51,
                    "time": 175.56695325000027,
                    "velocity": 0.1968503937007874,
                    "duration": 0.10309275000000184
                },
                {
                    "name": "G2",
                    "midi": 43,
                    "time": 175.67004600000027,
                    "velocity": 0.25196850393700787,
                    "duration": 0.10309275000000184
                },
                {
                    "name": "E3",
                    "midi": 52,
                    "time": 175.77313875000027,
                    "velocity": 0.2047244094488189,
                    "duration": 0.10309275000000184
                },
                {
                    "name": "C3",
                    "midi": 48,
                    "time": 175.87623150000027,
                    "velocity": 0.2047244094488189,
                    "duration": 0.10309275000000184
                },
                {
                    "name": "E3",
                    "midi": 52,
                    "time": 175.97932425000027,
                    "velocity": 0.2125984251968504,
                    "duration": 0.10309275000000184
                },
                {
                    "name": "G2",
                    "midi": 43,
                    "time": 176.08241700000028,
                    "velocity": 0.25984251968503935,
                    "duration": 0.10309275000000184
                },
                {
                    "name": "F3",
                    "midi": 53,
                    "time": 176.18550975000028,
                    "velocity": 0.2125984251968504,
                    "duration": 0.10309275000000184
                },
                {
                    "name": "D3",
                    "midi": 50,
                    "time": 176.28860250000028,
                    "velocity": 0.2125984251968504,
                    "duration": 0.10309275000000184
                },
                {
                    "name": "F3",
                    "midi": 53,
                    "time": 176.39169525000028,
                    "velocity": 0.2125984251968504,
                    "duration": 0.10309275000000184
                },
                {
                    "name": "C3",
                    "midi": 48,
                    "time": 176.49478800000028,
                    "velocity": 0.25984251968503935,
                    "duration": 0.10309275000000184
                },
                {
                    "name": "G3",
                    "midi": 55,
                    "time": 176.5978807500003,
                    "velocity": 0.2125984251968504,
                    "duration": 0.10309275000000184
                },
                {
                    "name": "E3",
                    "midi": 52,
                    "time": 176.7009735000003,
                    "velocity": 0.2125984251968504,
                    "duration": 0.10309275000000184
                },
                {
                    "name": "G3",
                    "midi": 55,
                    "time": 176.8040662500003,
                    "velocity": 0.2125984251968504,
                    "duration": 0.10309275000000184
                },
                {
                    "name": "G#2",
                    "midi": 44,
                    "time": 176.9071590000003,
                    "velocity": 0.25984251968503935,
                    "duration": 0.10309275000000184
                },
                {
                    "name": "F#3",
                    "midi": 54,
                    "time": 177.0102517500003,
                    "velocity": 0.2125984251968504,
                    "duration": 0.10309275000000184
                },
                {
                    "name": "D#3",
                    "midi": 51,
                    "time": 177.1133445000003,
                    "velocity": 0.2047244094488189,
                    "duration": 0.10309275000000184
                },
                {
                    "name": "F#3",
                    "midi": 54,
                    "time": 177.2164372500003,
                    "velocity": 0.2047244094488189,
                    "duration": 0.10309275000000184
                },
                {
                    "name": "G2",
                    "midi": 43,
                    "time": 177.3195300000003,
                    "velocity": 0.2677165354330709,
                    "duration": 0.10309275000000184
                },
                {
                    "name": "G3",
                    "midi": 55,
                    "time": 177.4226227500003,
                    "velocity": 0.2125984251968504,
                    "duration": 0.10309275000000184
                },
                {
                    "name": "C3",
                    "midi": 48,
                    "time": 177.5257155000003,
                    "velocity": 0.2204724409448819,
                    "duration": 0.10309275000000184
                },
                {
                    "name": "E3",
                    "midi": 52,
                    "time": 177.5257155000003,
                    "velocity": 0.2204724409448819,
                    "duration": 0.10309275000000184
                },
                {
                    "name": "G3",
                    "midi": 55,
                    "time": 177.6288082500003,
                    "velocity": 0.2283464566929134,
                    "duration": 0.10309275000000184
                },
                {
                    "name": "G2",
                    "midi": 43,
                    "time": 177.7319010000003,
                    "velocity": 0.2755905511811024,
                    "duration": 0.10309275000000184
                },
                {
                    "name": "G3",
                    "midi": 55,
                    "time": 177.8349937500003,
                    "velocity": 0.2204724409448819,
                    "duration": 0.10309275000000184
                },
                {
                    "name": "B2",
                    "midi": 47,
                    "time": 177.9380865000003,
                    "velocity": 0.2204724409448819,
                    "duration": 0.10309275000000184
                },
                {
                    "name": "D3",
                    "midi": 50,
                    "time": 177.9380865000003,
                    "velocity": 0.2204724409448819,
                    "duration": 0.10309275000000184
                },
                {
                    "name": "G3",
                    "midi": 55,
                    "time": 178.0411792500003,
                    "velocity": 0.2204724409448819,
                    "duration": 0.10309275000000184
                },
                {
                    "name": "C3",
                    "midi": 48,
                    "time": 178.1442720000003,
                    "velocity": 0.3228346456692913,
                    "duration": 0.10309275000000184
                },
                {
                    "name": "C4",
                    "midi": 60,
                    "time": 178.24736475000032,
                    "velocity": 0.25984251968503935,
                    "duration": 0.10309275000000184
                },
                {
                    "name": "G3",
                    "midi": 55,
                    "time": 178.35045750000032,
                    "velocity": 0.25984251968503935,
                    "duration": 0.10309275000000184
                },
                {
                    "name": "C4",
                    "midi": 60,
                    "time": 178.45355025000032,
                    "velocity": 0.25984251968503935,
                    "duration": 0.10309275000000184
                },
                {
                    "name": "G#3",
                    "midi": 56,
                    "time": 178.55664300000032,
                    "velocity": 0.33070866141732286,
                    "duration": 0.10309275000000184
                },
                {
                    "name": "D#4",
                    "midi": 63,
                    "time": 178.65973575000032,
                    "velocity": 0.2677165354330709,
                    "duration": 0.10309275000000184
                },
                {
                    "name": "C4",
                    "midi": 60,
                    "time": 178.76282850000032,
                    "velocity": 0.25984251968503935,
                    "duration": 0.10309275000000184
                },
                {
                    "name": "D#4",
                    "midi": 63,
                    "time": 178.86592125000033,
                    "velocity": 0.25984251968503935,
                    "duration": 0.10309275000000184
                },
                {
                    "name": "G3",
                    "midi": 55,
                    "time": 178.96901400000033,
                    "velocity": 0.33858267716535434,
                    "duration": 0.10309275000000184
                },
                {
                    "name": "E4",
                    "midi": 64,
                    "time": 179.07210675000033,
                    "velocity": 0.2755905511811024,
                    "duration": 0.10309275000000184
                },
                {
                    "name": "C4",
                    "midi": 60,
                    "time": 179.17519950000033,
                    "velocity": 0.2755905511811024,
                    "duration": 0.10309275000000184
                },
                {
                    "name": "E4",
                    "midi": 64,
                    "time": 179.27829225000033,
                    "velocity": 0.29133858267716534,
                    "duration": 0.10309275000000184
                },
                {
                    "name": "G3",
                    "midi": 55,
                    "time": 179.38138500000034,
                    "velocity": 0.36220472440944884,
                    "duration": 0.10309275000000184
                },
                {
                    "name": "F4",
                    "midi": 65,
                    "time": 179.48447775000034,
                    "velocity": 0.28346456692913385,
                    "duration": 0.10309275000000184
                },
                {
                    "name": "D4",
                    "midi": 62,
                    "time": 179.58757050000034,
                    "velocity": 0.29133858267716534,
                    "duration": 0.10309275000000184
                },
                {
                    "name": "F4",
                    "midi": 65,
                    "time": 179.69066325000034,
                    "velocity": 0.29133858267716534,
                    "duration": 0.10309275000000184
                },
                {
                    "name": "C4",
                    "midi": 60,
                    "time": 179.79375600000034,
                    "velocity": 0.3700787401574803,
                    "duration": 0.10309275000000184
                },
                {
                    "name": "G4",
                    "midi": 67,
                    "time": 179.89684875000034,
                    "velocity": 0.29133858267716534,
                    "duration": 0.10309275000000184
                },
                {
                    "name": "E4",
                    "midi": 64,
                    "time": 179.99994150000035,
                    "velocity": 0.2992125984251969,
                    "duration": 0.10309275000000184
                },
                {
                    "name": "G4",
                    "midi": 67,
                    "time": 180.10303425000035,
                    "velocity": 0.2992125984251969,
                    "duration": 0.10309275000000184
                },
                {
                    "name": "G#3",
                    "midi": 56,
                    "time": 180.20612700000035,
                    "velocity": 0.3779527559055118,
                    "duration": 0.10309275000000184
                },
                {
                    "name": "F#4",
                    "midi": 66,
                    "time": 180.30921975000035,
                    "velocity": 0.30708661417322836,
                    "duration": 0.10309275000000184
                },
                {
                    "name": "D#4",
                    "midi": 63,
                    "time": 180.41231250000035,
                    "velocity": 0.2992125984251969,
                    "duration": 0.10309275000000184
                },
                {
                    "name": "F#4",
                    "midi": 66,
                    "time": 180.51540525000036,
                    "velocity": 0.2992125984251969,
                    "duration": 0.10309275000000184
                },
                {
                    "name": "G3",
                    "midi": 55,
                    "time": 180.61849800000036,
                    "velocity": 0.3937007874015748,
                    "duration": 0.10309275000000184
                },
                {
                    "name": "G4",
                    "midi": 67,
                    "time": 180.72159075000036,
                    "velocity": 0.31496062992125984,
                    "duration": 0.10309275000000184
                },
                {
                    "name": "C4",
                    "midi": 60,
                    "time": 180.82468350000036,
                    "velocity": 0.31496062992125984,
                    "duration": 0.10309275000000184
                },
                {
                    "name": "E4",
                    "midi": 64,
                    "time": 180.82468350000036,
                    "velocity": 0.31496062992125984,
                    "duration": 0.10309275000000184
                },
                {
                    "name": "G4",
                    "midi": 67,
                    "time": 180.92777625000036,
                    "velocity": 0.33070866141732286,
                    "duration": 0.10309275000000184
                },
                {
                    "name": "G3",
                    "midi": 55,
                    "time": 181.03086900000037,
                    "velocity": 0.4094488188976378,
                    "duration": 0.10309275000000184
                },
                {
                    "name": "G4",
                    "midi": 67,
                    "time": 181.13396175000037,
                    "velocity": 0.3228346456692913,
                    "duration": 0.10309275000000184
                },
                {
                    "name": "B3",
                    "midi": 59,
                    "time": 181.23705450000037,
                    "velocity": 0.33070866141732286,
                    "duration": 0.10309275000000184
                },
                {
                    "name": "D4",
                    "midi": 62,
                    "time": 181.23705450000037,
                    "velocity": 0.33070866141732286,
                    "duration": 0.10309275000000184
                },
                {
                    "name": "G4",
                    "midi": 67,
                    "time": 181.34014725000037,
                    "velocity": 0.33070866141732286,
                    "duration": 0.10309275000000184
                },
                {
                    "name": "C4",
                    "midi": 60,
                    "time": 181.44324000000037,
                    "velocity": 0.3858267716535433,
                    "duration": 0.10309275000000184
                },
                {
                    "name": "C5",
                    "midi": 72,
                    "time": 181.54633275000037,
                    "velocity": 0.30708661417322836,
                    "duration": 0.10309275000000184
                },
                {
                    "name": "G4",
                    "midi": 67,
                    "time": 181.64942550000038,
                    "velocity": 0.30708661417322836,
                    "duration": 0.10309275000000184
                },
                {
                    "name": "C5",
                    "midi": 72,
                    "time": 181.75251825000038,
                    "velocity": 0.31496062992125984,
                    "duration": 0.10309275000000184
                },
                {
                    "name": "G#4",
                    "midi": 68,
                    "time": 181.85561100000038,
                    "velocity": 0.3937007874015748,
                    "duration": 0.10309275000000184
                },
                {
                    "name": "D#5",
                    "midi": 75,
                    "time": 181.95870375000038,
                    "velocity": 0.31496062992125984,
                    "duration": 0.10309275000000184
                },
                {
                    "name": "C5",
                    "midi": 72,
                    "time": 182.06179650000038,
                    "velocity": 0.31496062992125984,
                    "duration": 0.10309275000000184
                },
                {
                    "name": "D#5",
                    "midi": 75,
                    "time": 182.16488925000039,
                    "velocity": 0.31496062992125984,
                    "duration": 0.10309275000000184
                },
                {
                    "name": "G4",
                    "midi": 67,
                    "time": 182.2679820000004,
                    "velocity": 0.4094488188976378,
                    "duration": 0.10309275000000184
                },
                {
                    "name": "E5",
                    "midi": 76,
                    "time": 182.3710747500004,
                    "velocity": 0.33070866141732286,
                    "duration": 0.10309275000000184
                },
                {
                    "name": "C5",
                    "midi": 72,
                    "time": 182.4741675000004,
                    "velocity": 0.33070866141732286,
                    "duration": 0.10309275000000184
                },
                {
                    "name": "E5",
                    "midi": 76,
                    "time": 182.5772602500004,
                    "velocity": 0.3464566929133858,
                    "duration": 0.10309275000000184
                },
                {
                    "name": "G4",
                    "midi": 67,
                    "time": 182.6803530000004,
                    "velocity": 0.4330708661417323,
                    "duration": 0.10309275000000184
                },
                {
                    "name": "D5",
                    "midi": 74,
                    "time": 182.7834457500004,
                    "velocity": 0.33858267716535434,
                    "duration": 0.10309275000000184
                },
                {
                    "name": "B4",
                    "midi": 71,
                    "time": 182.8865385000004,
                    "velocity": 0.33858267716535434,
                    "duration": 0.10309275000000184
                },
                {
                    "name": "D5",
                    "midi": 74,
                    "time": 182.9896312500004,
                    "velocity": 0.3464566929133858,
                    "duration": 0.10309275000000184
                },
                {
                    "name": "G3",
                    "midi": 55,
                    "time": 183.0927240000004,
                    "velocity": 0.47244094488188976,
                    "duration": 0.10309275000000184
                },
                {
                    "name": "G4",
                    "midi": 67,
                    "time": 183.1958167500004,
                    "velocity": 0.3779527559055118,
                    "duration": 0.10309275000000184
                },
                {
                    "name": "C4",
                    "midi": 60,
                    "time": 183.2989095000004,
                    "velocity": 0.3779527559055118,
                    "duration": 0.10309275000000184
                },
                {
                    "name": "E4",
                    "midi": 64,
                    "time": 183.2989095000004,
                    "velocity": 0.3779527559055118,
                    "duration": 0.10309275000000184
                },
                {
                    "name": "G4",
                    "midi": 67,
                    "time": 183.4020022500004,
                    "velocity": 0.3858267716535433,
                    "duration": 0.10309275000000184
                },
                {
                    "name": "G3",
                    "midi": 55,
                    "time": 183.5050950000004,
                    "velocity": 0.4881889763779528,
                    "duration": 0.10309275000000184
                },
                {
                    "name": "G4",
                    "midi": 67,
                    "time": 183.6081877500004,
                    "velocity": 0.3937007874015748,
                    "duration": 0.10309275000000184
                },
                {
                    "name": "B3",
                    "midi": 59,
                    "time": 183.7112805000004,
                    "velocity": 0.3858267716535433,
                    "duration": 0.10309275000000184
                },
                {
                    "name": "D4",
                    "midi": 62,
                    "time": 183.7112805000004,
                    "velocity": 0.3858267716535433,
                    "duration": 0.10309275000000184
                },
                {
                    "name": "G4",
                    "midi": 67,
                    "time": 183.81437325000041,
                    "velocity": 0.4094488188976378,
                    "duration": 0.10309275000000184
                },
                {
                    "name": "G2",
                    "midi": 43,
                    "time": 183.91746600000042,
                    "velocity": 0.5275590551181102,
                    "duration": 0.10309275000000184
                },
                {
                    "name": "G3",
                    "midi": 55,
                    "time": 184.02055875000042,
                    "velocity": 0.4330708661417323,
                    "duration": 0.10309275000000184
                },
                {
                    "name": "C3",
                    "midi": 48,
                    "time": 184.12365150000042,
                    "velocity": 0.4330708661417323,
                    "duration": 0.10309275000000184
                },
                {
                    "name": "E3",
                    "midi": 52,
                    "time": 184.12365150000042,
                    "velocity": 0.4330708661417323,
                    "duration": 0.10309275000000184
                },
                {
                    "name": "G3",
                    "midi": 55,
                    "time": 184.22674425000042,
                    "velocity": 0.44881889763779526,
                    "duration": 0.10309275000000184
                },
                {
                    "name": "G2",
                    "midi": 43,
                    "time": 184.32983700000042,
                    "velocity": 0.5748031496062992,
                    "duration": 0.10309275000000184
                },
                {
                    "name": "G3",
                    "midi": 55,
                    "time": 184.43292975000043,
                    "velocity": 0.4566929133858268,
                    "duration": 0.10309275000000184
                },
                {
                    "name": "B2",
                    "midi": 47,
                    "time": 184.53602250000043,
                    "velocity": 0.4566929133858268,
                    "duration": 0.10309275000000184
                },
                {
                    "name": "D3",
                    "midi": 50,
                    "time": 184.53602250000043,
                    "velocity": 0.4566929133858268,
                    "duration": 0.10309275000000184
                },
                {
                    "name": "G3",
                    "midi": 55,
                    "time": 184.63911525000043,
                    "velocity": 0.47244094488188976,
                    "duration": 0.10309275000000184
                },
                {
                    "name": "C2",
                    "midi": 36,
                    "time": 184.74220800000043,
                    "velocity": 0.5039370078740157,
                    "duration": 0.20618550000000369
                },
                {
                    "name": "C3",
                    "midi": 48,
                    "time": 184.74220800000043,
                    "velocity": 0.5984251968503937,
                    "duration": 0.20618550000000369
                },
                {
                    "name": "G1",
                    "midi": 31,
                    "time": 184.94839350000044,
                    "velocity": 0.4566929133858268,
                    "duration": 0.20618550000000369
                },
                {
                    "name": "G2",
                    "midi": 43,
                    "time": 184.94839350000044,
                    "velocity": 0.5511811023622047,
                    "duration": 0.20618550000000369
                },
                {
                    "name": "C2",
                    "midi": 36,
                    "time": 185.15457900000044,
                    "velocity": 0.5196850393700787,
                    "duration": 0.20618550000000369
                },
                {
                    "name": "C3",
                    "midi": 48,
                    "time": 185.15457900000044,
                    "velocity": 0.6220472440944882,
                    "duration": 0.20618550000000369
                },
                {
                    "name": "G1",
                    "midi": 31,
                    "time": 185.36076450000044,
                    "velocity": 0.47244094488188976,
                    "duration": 0.20618550000000369
                },
                {
                    "name": "G2",
                    "midi": 43,
                    "time": 185.36076450000044,
                    "velocity": 0.5748031496062992,
                    "duration": 0.20618550000000369
                },
                {
                    "name": "C2",
                    "midi": 36,
                    "time": 185.56695000000045,
                    "velocity": 0.5433070866141733,
                    "duration": 0.20618550000000369
                },
                {
                    "name": "C3",
                    "midi": 48,
                    "time": 185.56695000000045,
                    "velocity": 0.6377952755905512,
                    "duration": 0.20618550000000369
                },
                {
                    "name": "G1",
                    "midi": 31,
                    "time": 185.77313550000045,
                    "velocity": 0.49606299212598426,
                    "duration": 0.20618550000000369
                },
                {
                    "name": "G2",
                    "midi": 43,
                    "time": 185.77313550000045,
                    "velocity": 0.5905511811023622,
                    "duration": 0.20618550000000369
                },
                {
                    "name": "C2",
                    "midi": 36,
                    "time": 185.97932100000045,
                    "velocity": 0.5590551181102362,
                    "duration": 0.20618550000000369
                },
                {
                    "name": "C3",
                    "midi": 48,
                    "time": 185.97932100000045,
                    "velocity": 0.6692913385826772,
                    "duration": 0.20618550000000369
                },
                {
                    "name": "G1",
                    "midi": 31,
                    "time": 186.18550650000046,
                    "velocity": 0.5039370078740157,
                    "duration": 0.20618550000000369
                },
                {
                    "name": "G2",
                    "midi": 43,
                    "time": 186.18550650000046,
                    "velocity": 0.5984251968503937,
                    "duration": 0.20618550000000369
                },
                {
                    "name": "C2",
                    "midi": 36,
                    "time": 186.39169200000046,
                    "velocity": 0.5354330708661418,
                    "duration": 0.10309274999997342
                },
                {
                    "name": "E2",
                    "midi": 40,
                    "time": 186.39169200000046,
                    "velocity": 0.5984251968503937,
                    "duration": 0.10309274999997342
                },
                {
                    "name": "G2",
                    "midi": 43,
                    "time": 186.39169200000046,
                    "velocity": 0.5984251968503937,
                    "duration": 0.10309274999997342
                },
                {
                    "name": "C3",
                    "midi": 48,
                    "time": 186.39169200000046,
                    "velocity": 0.7086614173228346,
                    "duration": 0.10309274999997342
                },
                {
                    "name": "C5",
                    "midi": 72,
                    "time": 186.59787750000044,
                    "velocity": 0.5354330708661418,
                    "duration": 0.10309275000000184
                },
                {
                    "name": "G4",
                    "midi": 67,
                    "time": 186.70097025000044,
                    "velocity": 0.5275590551181102,
                    "duration": 0.10309275000000184
                },
                {
                    "name": "E4",
                    "midi": 64,
                    "time": 186.80406300000044,
                    "velocity": 0.5118110236220472,
                    "duration": 0.10309275000000184
                },
                {
                    "name": "C4",
                    "midi": 60,
                    "time": 186.90715575000044,
                    "velocity": 0.5039370078740157,
                    "duration": 0.10309275000000184
                },
                {
                    "name": "G3",
                    "midi": 55,
                    "time": 187.01024850000044,
                    "velocity": 0.49606299212598426,
                    "duration": 0.10309275000000184
                },
                {
                    "name": "E3",
                    "midi": 52,
                    "time": 187.11334125000045,
                    "velocity": 0.49606299212598426,
                    "duration": 0.10309275000000184
                },
                {
                    "name": "C3",
                    "midi": 48,
                    "time": 187.21643400000045,
                    "velocity": 0.47244094488188976,
                    "duration": 0.10309275000000184
                },
                {
                    "name": "G2",
                    "midi": 43,
                    "time": 187.31952675000045,
                    "velocity": 0.48031496062992124,
                    "duration": 0.10309275000000184
                },
                {
                    "name": "C3",
                    "midi": 48,
                    "time": 187.42261950000045,
                    "velocity": 0.4881889763779528,
                    "duration": 0.10309275000000184
                },
                {
                    "name": "E3",
                    "midi": 52,
                    "time": 187.52571225000045,
                    "velocity": 0.49606299212598426,
                    "duration": 0.10309275000000184
                },
                {
                    "name": "G3",
                    "midi": 55,
                    "time": 187.62880500000045,
                    "velocity": 0.5039370078740157,
                    "duration": 0.10309275000000184
                },
                {
                    "name": "C4",
                    "midi": 60,
                    "time": 187.73189775000046,
                    "velocity": 0.5118110236220472,
                    "duration": 0.10309275000000184
                },
                {
                    "name": "E4",
                    "midi": 64,
                    "time": 187.83499050000046,
                    "velocity": 0.5196850393700787,
                    "duration": 0.10309275000000184
                },
                {
                    "name": "G4",
                    "midi": 67,
                    "time": 187.93808325000046,
                    "velocity": 0.5275590551181102,
                    "duration": 0.10309275000000184
                },
                {
                    "name": "C4",
                    "midi": 60,
                    "time": 188.04117600000046,
                    "velocity": 0.5354330708661418,
                    "duration": 0.10309274999997342
                },
                {
                    "name": "E4",
                    "midi": 64,
                    "time": 188.04117600000046,
                    "velocity": 0.5354330708661418,
                    "duration": 0.10309274999997342
                },
                {
                    "name": "G4",
                    "midi": 67,
                    "time": 188.04117600000046,
                    "velocity": 0.5354330708661418,
                    "duration": 0.10309274999997342
                },
                {
                    "name": "C5",
                    "midi": 72,
                    "time": 188.04117600000046,
                    "velocity": 0.6299212598425197,
                    "duration": 0.10309274999997342
                },
                {
                    "name": "E5",
                    "midi": 76,
                    "time": 188.24736150000044,
                    "velocity": 0.5354330708661418,
                    "duration": 0.10309275000000184
                },
                {
                    "name": "C5",
                    "midi": 72,
                    "time": 188.35045425000044,
                    "velocity": 0.5275590551181102,
                    "duration": 0.10309275000000184
                },
                {
                    "name": "G4",
                    "midi": 67,
                    "time": 188.45354700000044,
                    "velocity": 0.5118110236220472,
                    "duration": 0.10309275000000184
                },
                {
                    "name": "E4",
                    "midi": 64,
                    "time": 188.55663975000044,
                    "velocity": 0.5039370078740157,
                    "duration": 0.10309275000000184
                },
                {
                    "name": "C4",
                    "midi": 60,
                    "time": 188.65973250000044,
                    "velocity": 0.49606299212598426,
                    "duration": 0.10309275000000184
                },
                {
                    "name": "G3",
                    "midi": 55,
                    "time": 188.76282525000045,
                    "velocity": 0.49606299212598426,
                    "duration": 0.10309275000000184
                },
                {
                    "name": "E3",
                    "midi": 52,
                    "time": 188.86591800000045,
                    "velocity": 0.47244094488188976,
                    "duration": 0.10309275000000184
                },
                {
                    "name": "C3",
                    "midi": 48,
                    "time": 188.96901075000045,
                    "velocity": 0.48031496062992124,
                    "duration": 0.10309275000000184
                },
                {
                    "name": "E3",
                    "midi": 52,
                    "time": 189.07210350000045,
                    "velocity": 0.4881889763779528,
                    "duration": 0.10309275000000184
                },
                {
                    "name": "G3",
                    "midi": 55,
                    "time": 189.17519625000045,
                    "velocity": 0.49606299212598426,
                    "duration": 0.10309275000000184
                },
                {
                    "name": "C4",
                    "midi": 60,
                    "time": 189.27828900000046,
                    "velocity": 0.5039370078740157,
                    "duration": 0.10309275000000184
                },
                {
                    "name": "E4",
                    "midi": 64,
                    "time": 189.38138175000046,
                    "velocity": 0.5118110236220472,
                    "duration": 0.10309275000000184
                },
                {
                    "name": "G4",
                    "midi": 67,
                    "time": 189.48447450000046,
                    "velocity": 0.5196850393700787,
                    "duration": 0.10309275000000184
                },
                {
                    "name": "C5",
                    "midi": 72,
                    "time": 189.58756725000046,
                    "velocity": 0.5275590551181102,
                    "duration": 0.10309275000000184
                },
                {
                    "name": "E4",
                    "midi": 64,
                    "time": 189.69066000000046,
                    "velocity": 0.5354330708661418,
                    "duration": 0.10309274999997342
                },
                {
                    "name": "G4",
                    "midi": 67,
                    "time": 189.69066000000046,
                    "velocity": 0.5354330708661418,
                    "duration": 0.10309274999997342
                },
                {
                    "name": "C5",
                    "midi": 72,
                    "time": 189.69066000000046,
                    "velocity": 0.5354330708661418,
                    "duration": 0.10309274999997342
                },
                {
                    "name": "E5",
                    "midi": 76,
                    "time": 189.69066000000046,
                    "velocity": 0.6299212598425197,
                    "duration": 0.10309274999997342
                },
                {
                    "name": "G5",
                    "midi": 79,
                    "time": 189.89684550000044,
                    "velocity": 0.5354330708661418,
                    "duration": 0.10309275000000184
                },
                {
                    "name": "E5",
                    "midi": 76,
                    "time": 189.99993825000044,
                    "velocity": 0.5275590551181102,
                    "duration": 0.10309275000000184
                },
                {
                    "name": "C5",
                    "midi": 72,
                    "time": 190.10303100000044,
                    "velocity": 0.5118110236220472,
                    "duration": 0.10309275000000184
                },
                {
                    "name": "G4",
                    "midi": 67,
                    "time": 190.20612375000044,
                    "velocity": 0.5039370078740157,
                    "duration": 0.10309275000000184
                },
                {
                    "name": "E4",
                    "midi": 64,
                    "time": 190.30921650000045,
                    "velocity": 0.49606299212598426,
                    "duration": 0.10309275000000184
                },
                {
                    "name": "C4",
                    "midi": 60,
                    "time": 190.41230925000045,
                    "velocity": 0.49606299212598426,
                    "duration": 0.10309275000000184
                },
                {
                    "name": "G3",
                    "midi": 55,
                    "time": 190.51540200000045,
                    "velocity": 0.47244094488188976,
                    "duration": 0.10309275000000184
                },
                {
                    "name": "E3",
                    "midi": 52,
                    "time": 190.61849475000045,
                    "velocity": 0.48031496062992124,
                    "duration": 0.10309275000000184
                },
                {
                    "name": "G3",
                    "midi": 55,
                    "time": 190.72158750000045,
                    "velocity": 0.4881889763779528,
                    "duration": 0.10309275000000184
                },
                {
                    "name": "C4",
                    "midi": 60,
                    "time": 190.82468025000045,
                    "velocity": 0.49606299212598426,
                    "duration": 0.10309275000000184
                },
                {
                    "name": "E4",
                    "midi": 64,
                    "time": 190.92777300000046,
                    "velocity": 0.5039370078740157,
                    "duration": 0.10309275000000184
                },
                {
                    "name": "G4",
                    "midi": 67,
                    "time": 191.03086575000046,
                    "velocity": 0.5118110236220472,
                    "duration": 0.10309275000000184
                },
                {
                    "name": "C5",
                    "midi": 72,
                    "time": 191.13395850000046,
                    "velocity": 0.5196850393700787,
                    "duration": 0.10309275000000184
                },
                {
                    "name": "E5",
                    "midi": 76,
                    "time": 191.23705125000046,
                    "velocity": 0.5275590551181102,
                    "duration": 0.10309275000000184
                },
                {
                    "name": "G4",
                    "midi": 67,
                    "time": 191.34014400000046,
                    "velocity": 0.5354330708661418,
                    "duration": 0.10309274999997342
                },
                {
                    "name": "C5",
                    "midi": 72,
                    "time": 191.34014400000046,
                    "velocity": 0.5354330708661418,
                    "duration": 0.10309274999997342
                },
                {
                    "name": "E5",
                    "midi": 76,
                    "time": 191.34014400000046,
                    "velocity": 0.5354330708661418,
                    "duration": 0.10309274999997342
                },
                {
                    "name": "G5",
                    "midi": 79,
                    "time": 191.34014400000046,
                    "velocity": 0.6299212598425197,
                    "duration": 0.10309274999997342
                },
                {
                    "name": "C6",
                    "midi": 84,
                    "time": 191.54632950000044,
                    "velocity": 0.5354330708661418,
                    "duration": 0.10309275000000184
                },
                {
                    "name": "G5",
                    "midi": 79,
                    "time": 191.64942225000044,
                    "velocity": 0.5275590551181102,
                    "duration": 0.10309275000000184
                },
                {
                    "name": "E5",
                    "midi": 76,
                    "time": 191.75251500000044,
                    "velocity": 0.5118110236220472,
                    "duration": 0.10309275000000184
                },
                {
                    "name": "C5",
                    "midi": 72,
                    "time": 191.85560775000044,
                    "velocity": 0.5039370078740157,
                    "duration": 0.10309275000000184
                },
                {
                    "name": "G4",
                    "midi": 67,
                    "time": 191.95870050000045,
                    "velocity": 0.49606299212598426,
                    "duration": 0.10309275000000184
                },
                {
                    "name": "E4",
                    "midi": 64,
                    "time": 192.06179325000045,
                    "velocity": 0.49606299212598426,
                    "duration": 0.10309275000000184
                },
                {
                    "name": "C4",
                    "midi": 60,
                    "time": 192.16488600000045,
                    "velocity": 0.47244094488188976,
                    "duration": 0.10309275000000184
                },
                {
                    "name": "G3",
                    "midi": 55,
                    "time": 192.26797875000045,
                    "velocity": 0.48031496062992124,
                    "duration": 0.10309275000000184
                },
                {
                    "name": "C4",
                    "midi": 60,
                    "time": 192.37107150000045,
                    "velocity": 0.4881889763779528,
                    "duration": 0.10309275000000184
                },
                {
                    "name": "E4",
                    "midi": 64,
                    "time": 192.47416425000046,
                    "velocity": 0.49606299212598426,
                    "duration": 0.10309275000000184
                },
                {
                    "name": "G4",
                    "midi": 67,
                    "time": 192.57725700000046,
                    "velocity": 0.5039370078740157,
                    "duration": 0.10309275000000184
                },
                {
                    "name": "C5",
                    "midi": 72,
                    "time": 192.68034975000046,
                    "velocity": 0.5118110236220472,
                    "duration": 0.10309275000000184
                },
                {
                    "name": "E5",
                    "midi": 76,
                    "time": 192.78344250000046,
                    "velocity": 0.5196850393700787,
                    "duration": 0.10309275000000184
                },
                {
                    "name": "G5",
                    "midi": 79,
                    "time": 192.88653525000046,
                    "velocity": 0.5275590551181102,
                    "duration": 0.10309275000000184
                },
                {
                    "name": "C5",
                    "midi": 72,
                    "time": 192.98962800000047,
                    "velocity": 0.5354330708661418,
                    "duration": 0.10309274999997342
                },
                {
                    "name": "E5",
                    "midi": 76,
                    "time": 192.98962800000047,
                    "velocity": 0.5354330708661418,
                    "duration": 0.10309274999997342
                },
                {
                    "name": "G5",
                    "midi": 79,
                    "time": 192.98962800000047,
                    "velocity": 0.5354330708661418,
                    "duration": 0.10309274999997342
                },
                {
                    "name": "C6",
                    "midi": 84,
                    "time": 192.98962800000047,
                    "velocity": 0.6299212598425197,
                    "duration": 0.10309274999997342
                },
                {
                    "name": "C4",
                    "midi": 60,
                    "time": 193.19581350000044,
                    "velocity": 0.5748031496062992,
                    "duration": 0.10309275000000184
                },
                {
                    "name": "G3",
                    "midi": 55,
                    "time": 193.29890625000044,
                    "velocity": 0.5590551181102362,
                    "duration": 0.10309275000000184
                },
                {
                    "name": "E3",
                    "midi": 52,
                    "time": 193.40199900000044,
                    "velocity": 0.5433070866141733,
                    "duration": 0.10309275000000184
                },
                {
                    "name": "C3",
                    "midi": 48,
                    "time": 193.50509175000045,
                    "velocity": 0.5275590551181102,
                    "duration": 0.10309275000000184
                },
                {
                    "name": "G2",
                    "midi": 43,
                    "time": 193.60818450000045,
                    "velocity": 0.5118110236220472,
                    "duration": 0.10309275000000184
                },
                {
                    "name": "E2",
                    "midi": 40,
                    "time": 193.71127725000045,
                    "velocity": 0.49606299212598426,
                    "duration": 0.10309275000000184
                },
                {
                    "name": "C2",
                    "midi": 36,
                    "time": 193.81437000000045,
                    "velocity": 0.47244094488188976,
                    "duration": 0.10309275000000184
                },
                {
                    "name": "G1",
                    "midi": 31,
                    "time": 193.91746275000045,
                    "velocity": 0.48031496062992124,
                    "duration": 0.10309275000000184
                },
                {
                    "name": "C2",
                    "midi": 36,
                    "time": 194.02055550000046,
                    "velocity": 0.4881889763779528,
                    "duration": 0.10309275000000184
                },
                {
                    "name": "E2",
                    "midi": 40,
                    "time": 194.12364825000046,
                    "velocity": 0.49606299212598426,
                    "duration": 0.10309275000000184
                },
                {
                    "name": "G2",
                    "midi": 43,
                    "time": 194.22674100000046,
                    "velocity": 0.5039370078740157,
                    "duration": 0.10309275000000184
                },
                {
                    "name": "C3",
                    "midi": 48,
                    "time": 194.32983375000046,
                    "velocity": 0.5118110236220472,
                    "duration": 0.10309275000000184
                },
                {
                    "name": "E3",
                    "midi": 52,
                    "time": 194.43292650000046,
                    "velocity": 0.5196850393700787,
                    "duration": 0.10309275000000184
                },
                {
                    "name": "G3",
                    "midi": 55,
                    "time": 194.53601925000046,
                    "velocity": 0.5275590551181102,
                    "duration": 0.10309275000000184
                },
                {
                    "name": "C3",
                    "midi": 48,
                    "time": 194.63911200000047,
                    "velocity": 0.5590551181102362,
                    "duration": 0.41237100000000737
                },
                {
                    "name": "E3",
                    "midi": 52,
                    "time": 194.63911200000047,
                    "velocity": 0.5590551181102362,
                    "duration": 0.41237100000000737
                },
                {
                    "name": "G3",
                    "midi": 55,
                    "time": 194.63911200000047,
                    "velocity": 0.5590551181102362,
                    "duration": 0.41237100000000737
                },
                {
                    "name": "C4",
                    "midi": 60,
                    "time": 194.63911200000047,
                    "velocity": 0.6614173228346457,
                    "duration": 0.41237100000000737
                },
                {
                    "name": "G2",
                    "midi": 43,
                    "time": 195.46385400000048,
                    "velocity": 0.5590551181102362,
                    "duration": 0.41237100000000737
                },
                {
                    "name": "B2",
                    "midi": 47,
                    "time": 195.46385400000048,
                    "velocity": 0.5590551181102362,
                    "duration": 0.41237100000000737
                },
                {
                    "name": "D3",
                    "midi": 50,
                    "time": 195.46385400000048,
                    "velocity": 0.5590551181102362,
                    "duration": 0.41237100000000737
                },
                {
                    "name": "G3",
                    "midi": 55,
                    "time": 195.46385400000048,
                    "velocity": 0.6614173228346457,
                    "duration": 0.41237100000000737
                },
                {
                    "name": "C3",
                    "midi": 48,
                    "time": 196.2885960000005,
                    "velocity": 0.5590551181102362,
                    "duration": 0.41237100000000737
                },
                {
                    "name": "E3",
                    "midi": 52,
                    "time": 196.2885960000005,
                    "velocity": 0.5590551181102362,
                    "duration": 0.41237100000000737
                },
                {
                    "name": "G3",
                    "midi": 55,
                    "time": 196.2885960000005,
                    "velocity": 0.5590551181102362,
                    "duration": 0.41237100000000737
                },
                {
                    "name": "C4",
                    "midi": 60,
                    "time": 196.2885960000005,
                    "velocity": 0.6614173228346457,
                    "duration": 0.41237100000000737
                },
                {
                    "name": "G2",
                    "midi": 43,
                    "time": 197.11333800000048,
                    "velocity": 0.5590551181102362,
                    "duration": 0.41237100000000737
                },
                {
                    "name": "B2",
                    "midi": 47,
                    "time": 197.11333800000048,
                    "velocity": 0.5590551181102362,
                    "duration": 0.41237100000000737
                },
                {
                    "name": "D3",
                    "midi": 50,
                    "time": 197.11333800000048,
                    "velocity": 0.5590551181102362,
                    "duration": 0.41237100000000737
                },
                {
                    "name": "G3",
                    "midi": 55,
                    "time": 197.11333800000048,
                    "velocity": 0.6614173228346457,
                    "duration": 0.41237100000000737
                },
                {
                    "name": "C3",
                    "midi": 48,
                    "time": 197.93808000000047,
                    "velocity": 0.3543307086614173,
                    "duration": 0.10309275000000184
                },
                {
                    "name": "C4",
                    "midi": 60,
                    "time": 198.04117275000047,
                    "velocity": 0.3779527559055118,
                    "duration": 0.10309275000000184
                },
                {
                    "name": "F#3",
                    "midi": 54,
                    "time": 198.14426550000047,
                    "velocity": 0.3937007874015748,
                    "duration": 0.10309275000000184
                },
                {
                    "name": "D#3",
                    "midi": 51,
                    "time": 198.14426550000047,
                    "velocity": 0.33858267716535434,
                    "duration": 0.10309275000000184
                },
                {
                    "name": "C3",
                    "midi": 48,
                    "time": 198.14426550000047,
                    "velocity": 0.33858267716535434,
                    "duration": 0.10309275000000184
                },
                {
                    "name": "C4",
                    "midi": 60,
                    "time": 198.24735825000047,
                    "velocity": 0.41732283464566927,
                    "duration": 0.10309275000000184
                },
                {
                    "name": "C3",
                    "midi": 48,
                    "time": 198.35045100000048,
                    "velocity": 0.3700787401574803,
                    "duration": 0.10309275000000184
                },
                {
                    "name": "E3",
                    "midi": 52,
                    "time": 198.35045100000048,
                    "velocity": 0.3700787401574803,
                    "duration": 0.10309275000000184
                },
                {
                    "name": "G3",
                    "midi": 55,
                    "time": 198.35045100000048,
                    "velocity": 0.4330708661417323,
                    "duration": 0.10309275000000184
                },
                {
                    "name": "C4",
                    "midi": 60,
                    "time": 198.45354375000048,
                    "velocity": 0.4645669291338583,
                    "duration": 0.10309275000000184
                },
                {
                    "name": "F#3",
                    "midi": 54,
                    "time": 198.55663650000048,
                    "velocity": 0.4881889763779528,
                    "duration": 0.10309275000000184
                },
                {
                    "name": "D#3",
                    "midi": 51,
                    "time": 198.55663650000048,
                    "velocity": 0.4094488188976378,
                    "duration": 0.10309275000000184
                },
                {
                    "name": "C3",
                    "midi": 48,
                    "time": 198.55663650000048,
                    "velocity": 0.4094488188976378,
                    "duration": 0.10309275000000184
                },
                {
                    "name": "C4",
                    "midi": 60,
                    "time": 198.65972925000048,
                    "velocity": 0.5039370078740157,
                    "duration": 0.10309275000000184
                },
                {
                    "name": "C3",
                    "midi": 48,
                    "time": 198.76282200000048,
                    "velocity": 0.4409448818897638,
                    "duration": 0.10309275000000184
                },
                {
                    "name": "E3",
                    "midi": 52,
                    "time": 198.76282200000048,
                    "velocity": 0.4409448818897638,
                    "duration": 0.10309275000000184
                },
                {
                    "name": "G3",
                    "midi": 55,
                    "time": 198.76282200000048,
                    "velocity": 0.5196850393700787,
                    "duration": 0.10309275000000184
                },
                {
                    "name": "C4",
                    "midi": 60,
                    "time": 198.86591475000048,
                    "velocity": 0.5511811023622047,
                    "duration": 0.10309275000000184
                },
                {
                    "name": "F#3",
                    "midi": 54,
                    "time": 198.9690075000005,
                    "velocity": 0.5748031496062992,
                    "duration": 0.10309275000000184
                },
                {
                    "name": "D#3",
                    "midi": 51,
                    "time": 198.9690075000005,
                    "velocity": 0.48031496062992124,
                    "duration": 0.10309275000000184
                },
                {
                    "name": "C3",
                    "midi": 48,
                    "time": 198.9690075000005,
                    "velocity": 0.48031496062992124,
                    "duration": 0.10309275000000184
                },
                {
                    "name": "C4",
                    "midi": 60,
                    "time": 199.0721002500005,
                    "velocity": 0.5905511811023622,
                    "duration": 0.10309275000000184
                },
                {
                    "name": "C3",
                    "midi": 48,
                    "time": 199.1751930000005,
                    "velocity": 0.5118110236220472,
                    "duration": 0.10309274999997342
                },
                {
                    "name": "E3",
                    "midi": 52,
                    "time": 199.1751930000005,
                    "velocity": 0.5118110236220472,
                    "duration": 0.10309274999997342
                },
                {
                    "name": "G3",
                    "midi": 55,
                    "time": 199.1751930000005,
                    "velocity": 0.5984251968503937,
                    "duration": 0.10309274999997342
                },
                {
                    "name": "C4",
                    "midi": 60,
                    "time": 199.27828575000046,
                    "velocity": 0.5826771653543307,
                    "duration": 0.10309275000000184
                },
                {
                    "name": "F#3",
                    "midi": 54,
                    "time": 199.38137850000047,
                    "velocity": 0.5669291338582677,
                    "duration": 0.10309275000000184
                },
                {
                    "name": "D#3",
                    "midi": 51,
                    "time": 199.38137850000047,
                    "velocity": 0.47244094488188976,
                    "duration": 0.10309275000000184
                },
                {
                    "name": "C3",
                    "midi": 48,
                    "time": 199.38137850000047,
                    "velocity": 0.47244094488188976,
                    "duration": 0.10309275000000184
                },
                {
                    "name": "C4",
                    "midi": 60,
                    "time": 199.48447125000047,
                    "velocity": 0.5511811023622047,
                    "duration": 0.10309275000000184
                },
                {
                    "name": "C3",
                    "midi": 48,
                    "time": 199.58756400000047,
                    "velocity": 0.5039370078740157,
                    "duration": 0.41237099999997895
                },
                {
                    "name": "E3",
                    "midi": 52,
                    "time": 199.58756400000047,
                    "velocity": 0.5039370078740157,
                    "duration": 0.41237099999997895
                },
                {
                    "name": "G3",
                    "midi": 55,
                    "time": 199.58756400000047,
                    "velocity": 0.5039370078740157,
                    "duration": 0.41237099999997895
                },
                {
                    "name": "C4",
                    "midi": 60,
                    "time": 199.58756400000047,
                    "velocity": 0.6062992125984252,
                    "duration": 0.41237099999997895
                },
                {
                    "name": "C4",
                    "midi": 60,
                    "time": 200.41230600000046,
                    "velocity": 0.5590551181102362,
                    "duration": 0.41237100000000737
                },
                {
                    "name": "E4",
                    "midi": 64,
                    "time": 200.41230600000046,
                    "velocity": 0.5590551181102362,
                    "duration": 0.41237100000000737
                },
                {
                    "name": "G4",
                    "midi": 67,
                    "time": 200.41230600000046,
                    "velocity": 0.5590551181102362,
                    "duration": 0.41237100000000737
                },
                {
                    "name": "C5",
                    "midi": 72,
                    "time": 200.41230600000046,
                    "velocity": 0.6614173228346457,
                    "duration": 0.41237100000000737
                },
                {
                    "name": "C2",
                    "midi": 36,
                    "time": 201.23704800000047,
                    "velocity": 0.5590551181102362,
                    "duration": 0.8247419999999863
                },
                {
                    "name": "E2",
                    "midi": 40,
                    "time": 201.23704800000047,
                    "velocity": 0.5590551181102362,
                    "duration": 0.8247419999999863
                },
                {
                    "name": "G2",
                    "midi": 43,
                    "time": 201.23704800000047,
                    "velocity": 0.5590551181102362,
                    "duration": 0.8247419999999863
                },
                {
                    "name": "C3",
                    "midi": 48,
                    "time": 201.23704800000047,
                    "velocity": 0.6614173228346457,
                    "duration": 0.8247419999999863
                }
            ],
            "controlChanges": {
                "7": [
                    {
                        "number": 7,
                        "time": 0,
                        "value": 0.7874015748031497
                    }
                ],
                "10": [
                    {
                        "number": 10,
                        "time": 0,
                        "value": 0.5039370078740157
                    }
                ],
                "64": [
                    {
                        "number": 64,
                        "time": 54.48194105625019,
                        "value": 1
                    },
                    {
                        "number": 64,
                        "time": 54.85221585000019,
                        "value": 0
                    },
                    {
                        "number": 64,
                        "time": 55.2920782500002,
                        "value": 1
                    },
                    {
                        "number": 64,
                        "time": 56.0867515312502,
                        "value": 0
                    },
                    {
                        "number": 64,
                        "time": 56.1314250562502,
                        "value": 1
                    },
                    {
                        "number": 64,
                        "time": 56.4999816375002,
                        "value": 0
                    },
                    {
                        "number": 64,
                        "time": 56.94156225000021,
                        "value": 1
                    },
                    {
                        "number": 64,
                        "time": 57.78090905625021,
                        "value": 1
                    },
                    {
                        "number": 64,
                        "time": 58.147747425000205,
                        "value": 0
                    },
                    {
                        "number": 64,
                        "time": 58.59104625000021,
                        "value": 1
                    },
                    {
                        "number": 64,
                        "time": 59.38571953125021,
                        "value": 0
                    },
                    {
                        "number": 64,
                        "time": 59.43039305625021,
                        "value": 1
                    },
                    {
                        "number": 64,
                        "time": 59.79894963750021,
                        "value": 0
                    },
                    {
                        "number": 64,
                        "time": 60.24053025000022,
                        "value": 1
                    },
                    {
                        "number": 64,
                        "time": 61.03949906250022,
                        "value": 0
                    },
                    {
                        "number": 64,
                        "time": 61.09018633125022,
                        "value": 1
                    },
                    {
                        "number": 64,
                        "time": 61.45187006250023,
                        "value": 0
                    },
                    {
                        "number": 64,
                        "time": 61.492248056250226,
                        "value": 1
                    },
                    {
                        "number": 64,
                        "time": 61.86424106250023,
                        "value": 0
                    },
                    {
                        "number": 64,
                        "time": 61.904619056250226,
                        "value": 1
                    },
                    {
                        "number": 64,
                        "time": 62.27661206250023,
                        "value": 0
                    },
                    {
                        "number": 64,
                        "time": 62.34190413750023,
                        "value": 1
                    },
                    {
                        "number": 64,
                        "time": 62.68468753125023,
                        "value": 0
                    },
                    {
                        "number": 64,
                        "time": 62.729361056250234,
                        "value": 1
                    },
                    {
                        "number": 64,
                        "time": 63.51372506250023,
                        "value": 0
                    },
                    {
                        "number": 64,
                        "time": 63.566130543750226,
                        "value": 1
                    },
                    {
                        "number": 64,
                        "time": 64.33417153125022,
                        "value": 0
                    },
                    {
                        "number": 64,
                        "time": 64.37884505625021,
                        "value": 1
                    },
                    {
                        "number": 64,
                        "time": 65.16320906250023,
                        "value": 0
                    },
                    {
                        "number": 64,
                        "time": 65.21561454375023,
                        "value": 1
                    },
                    {
                        "number": 64,
                        "time": 65.98365553125024,
                        "value": 0
                    },
                    {
                        "number": 64,
                        "time": 66.02832905625023,
                        "value": 1
                    },
                    {
                        "number": 64,
                        "time": 66.81269306250024,
                        "value": 0
                    },
                    {
                        "number": 64,
                        "time": 66.86509854375025,
                        "value": 1
                    },
                    {
                        "number": 64,
                        "time": 67.63313953125025,
                        "value": 0
                    },
                    {
                        "number": 64,
                        "time": 67.67781305625024,
                        "value": 1
                    },
                    {
                        "number": 64,
                        "time": 68.46217706250026,
                        "value": 0
                    },
                    {
                        "number": 64,
                        "time": 68.51458254375027,
                        "value": 1
                    },
                    {
                        "number": 64,
                        "time": 69.28691906250027,
                        "value": 0
                    },
                    {
                        "number": 64,
                        "time": 69.33760633125027,
                        "value": 1
                    },
                    {
                        "number": 64,
                        "time": 69.69929006250027,
                        "value": 0
                    },
                    {
                        "number": 64,
                        "time": 69.73966805625027,
                        "value": 1
                    },
                    {
                        "number": 64,
                        "time": 70.11166106250027,
                        "value": 0
                    },
                    {
                        "number": 64,
                        "time": 70.15203905625027,
                        "value": 1
                    },
                    {
                        "number": 64,
                        "time": 70.52403206250028,
                        "value": 0
                    },
                    {
                        "number": 64,
                        "time": 70.58932413750028,
                        "value": 1
                    },
                    {
                        "number": 64,
                        "time": 70.95272608125029,
                        "value": 0
                    },
                    {
                        "number": 64,
                        "time": 70.98193569375029,
                        "value": 1
                    },
                    {
                        "number": 64,
                        "time": 71.7568495312503,
                        "value": 0
                    },
                    {
                        "number": 64,
                        "time": 71.8161278625003,
                        "value": 1
                    },
                    {
                        "number": 64,
                        "time": 72.5824506375003,
                        "value": 0
                    },
                    {
                        "number": 64,
                        "time": 72.6408698625003,
                        "value": 1
                    },
                    {
                        "number": 64,
                        "time": 73.4063335312503,
                        "value": 0
                    },
                    {
                        "number": 64,
                        "time": 73.4905259437503,
                        "value": 1
                    },
                    {
                        "number": 64,
                        "time": 74.23451195625032,
                        "value": 0
                    },
                    {
                        "number": 64,
                        "time": 74.29980403125032,
                        "value": 1
                    },
                    {
                        "number": 64,
                        "time": 75.06011306250033,
                        "value": 0
                    },
                    {
                        "number": 64,
                        "time": 75.13485530625033,
                        "value": 1
                    },
                    {
                        "number": 64,
                        "time": 75.47162495625034,
                        "value": 0
                    },
                    {
                        "number": 64,
                        "time": 75.54293077500034,
                        "value": 1
                    },
                    {
                        "number": 64,
                        "time": 75.88485506250035,
                        "value": 0
                    },
                    {
                        "number": 64,
                        "time": 75.91406467500035,
                        "value": 1
                    },
                    {
                        "number": 64,
                        "time": 76.29894427500035,
                        "value": 0
                    },
                    {
                        "number": 64,
                        "time": 76.34791333125035,
                        "value": 1
                    },
                    {
                        "number": 64,
                        "time": 76.70959706250036,
                        "value": 0
                    },
                    {
                        "number": 64,
                        "time": 76.75942522500037,
                        "value": 1
                    },
                    {
                        "number": 64,
                        "time": 77.53004353125037,
                        "value": 0
                    },
                    {
                        "number": 64,
                        "time": 77.60478577500037,
                        "value": 1
                    },
                    {
                        "number": 64,
                        "time": 78.36079927500037,
                        "value": 0
                    },
                    {
                        "number": 64,
                        "time": 78.43897794375037,
                        "value": 1
                    },
                    {
                        "number": 64,
                        "time": 79.1786684250004,
                        "value": 0
                    },
                    {
                        "number": 64,
                        "time": 79.27231100625039,
                        "value": 1
                    },
                    {
                        "number": 64,
                        "time": 80.00942416875041,
                        "value": 0
                    },
                    {
                        "number": 64,
                        "time": 80.08502551875041,
                        "value": 1
                    },
                    {
                        "number": 64,
                        "time": 80.82901153125042,
                        "value": 0
                    },
                    {
                        "number": 64,
                        "time": 80.88914896875042,
                        "value": 1
                    },
                    {
                        "number": 64,
                        "time": 81.65547174375044,
                        "value": 0
                    },
                    {
                        "number": 64,
                        "time": 81.73279130625043,
                        "value": 1
                    },
                    {
                        "number": 64,
                        "time": 82.07127916875045,
                        "value": 0
                    },
                    {
                        "number": 64,
                        "time": 82.13571213750045,
                        "value": 1
                    },
                    {
                        "number": 64,
                        "time": 82.48279106250045,
                        "value": 0
                    },
                    {
                        "number": 64,
                        "time": 82.55323777500045,
                        "value": 1
                    },
                    {
                        "number": 64,
                        "time": 82.89516206250046,
                        "value": 0
                    },
                    {
                        "number": 64,
                        "time": 82.96560877500046,
                        "value": 1
                    },
                    {
                        "number": 64,
                        "time": 83.30753306250047,
                        "value": 0
                    },
                    {
                        "number": 64,
                        "time": 83.40203475000047,
                        "value": 1
                    },
                    {
                        "number": 64,
                        "time": 84.12368400000048,
                        "value": 0
                    },
                    {
                        "number": 64,
                        "time": 94.06440241875015,
                        "value": 1
                    },
                    {
                        "number": 64,
                        "time": 95.67007200000018,
                        "value": 0
                    },
                    {
                        "number": 64,
                        "time": 95.71388641875018,
                        "value": 1
                    },
                    {
                        "number": 64,
                        "time": 96.91405785000019,
                        "value": 0
                    },
                    {
                        "number": 64,
                        "time": 97.5351916687502,
                        "value": 1
                    },
                    {
                        "number": 64,
                        "time": 98.56440095625021,
                        "value": 0
                    },
                    {
                        "number": 64,
                        "time": 99.01714995000022,
                        "value": 1
                    },
                    {
                        "number": 64,
                        "time": 100.61852400000024,
                        "value": 0
                    },
                    {
                        "number": 64,
                        "time": 100.67780233125023,
                        "value": 1
                    },
                    {
                        "number": 64,
                        "time": 101.8582143187502,
                        "value": 0
                    },
                    {
                        "number": 64,
                        "time": 102.28776744375018,
                        "value": 1
                    },
                    {
                        "number": 64,
                        "time": 102.6898291687502,
                        "value": 0
                    },
                    {
                        "number": 64,
                        "time": 102.7396573312502,
                        "value": 1
                    },
                    {
                        "number": 64,
                        "time": 103.3427499187502,
                        "value": 0
                    },
                    {
                        "number": 64,
                        "time": 103.5489354187502,
                        "value": 1
                    },
                    {
                        "number": 64,
                        "time": 103.9174920000002,
                        "value": 0
                    },
                    {
                        "number": 64,
                        "time": 103.9724748000002,
                        "value": 1
                    },
                    {
                        "number": 64,
                        "time": 105.22161528750017,
                        "value": 0
                    },
                    {
                        "number": 64,
                        "time": 105.59189008125016,
                        "value": 1
                    },
                    {
                        "number": 64,
                        "time": 105.98793806250016,
                        "value": 0
                    },
                    {
                        "number": 64,
                        "time": 106.03862533125016,
                        "value": 1
                    },
                    {
                        "number": 64,
                        "time": 106.62281758125016,
                        "value": 0
                    },
                    {
                        "number": 64,
                        "time": 106.84360788750016,
                        "value": 1
                    },
                    {
                        "number": 64,
                        "time": 107.21646000000014,
                        "value": 0
                    },
                    {
                        "number": 64,
                        "time": 107.27745654375013,
                        "value": 1
                    },
                    {
                        "number": 64,
                        "time": 107.64343580625014,
                        "value": 0
                    },
                    {
                        "number": 64,
                        "time": 108.08501641875013,
                        "value": 1
                    },
                    {
                        "number": 64,
                        "time": 108.86594400000013,
                        "value": 0
                    },
                    {
                        "number": 64,
                        "time": 108.91749037500013,
                        "value": 1
                    },
                    {
                        "number": 64,
                        "time": 109.30322908125014,
                        "value": 0
                    },
                    {
                        "number": 64,
                        "time": 109.73020488750012,
                        "value": 1
                    },
                    {
                        "number": 64,
                        "time": 110.51542800000013,
                        "value": 0
                    },
                    {
                        "number": 64,
                        "time": 111.39515280000009,
                        "value": 1
                    },
                    {
                        "number": 64,
                        "time": 111.55065103125008,
                        "value": 0
                    },
                    {
                        "number": 64,
                        "time": 111.63140701875008,
                        "value": 1
                    },
                    {
                        "number": 64,
                        "time": 111.76972312500008,
                        "value": 0
                    },
                    {
                        "number": 64,
                        "time": 111.86164749375008,
                        "value": 1
                    },
                    {
                        "number": 64,
                        "time": 111.96388113750008,
                        "value": 0
                    },
                    {
                        "number": 64,
                        "time": 112.03175053125008,
                        "value": 1
                    },
                    {
                        "number": 64,
                        "time": 112.16491200000007,
                        "value": 0
                    },
                    {
                        "number": 64,
                        "time": 112.21989480000008,
                        "value": 1
                    },
                    {
                        "number": 64,
                        "time": 112.58673316875004,
                        "value": 0
                    },
                    {
                        "number": 64,
                        "time": 112.66233451875004,
                        "value": 1
                    },
                    {
                        "number": 64,
                        "time": 112.99566774375,
                        "value": 0
                    },
                    {
                        "number": 64,
                        "time": 113.07470551875001,
                        "value": 1
                    },
                    {
                        "number": 64,
                        "time": 113.41061606249997,
                        "value": 0
                    },
                    {
                        "number": 64,
                        "time": 113.44412120624997,
                        "value": 1
                    },
                    {
                        "number": 64,
                        "time": 113.81439599999993,
                        "value": 0
                    },
                    {
                        "number": 64,
                        "time": 115.5308902874999,
                        "value": 1
                    },
                    {
                        "number": 64,
                        "time": 117.12109595624993,
                        "value": 0
                    },
                    {
                        "number": 64,
                        "time": 117.14085539999994,
                        "value": 1
                    },
                    {
                        "number": 64,
                        "time": 117.96044276249995,
                        "value": 0
                    },
                    {
                        "number": 64,
                        "time": 117.98020220624996,
                        "value": 1
                    },
                    {
                        "number": 64,
                        "time": 118.76800263749996,
                        "value": 0
                    },
                    {
                        "number": 64,
                        "time": 118.92350086874995,
                        "value": 1
                    },
                    {
                        "number": 64,
                        "time": 119.18209184999995,
                        "value": 0
                    },
                    {
                        "number": 64,
                        "time": 119.35820863124995,
                        "value": 1
                    },
                    {
                        "number": 64,
                        "time": 119.59532195624995,
                        "value": 0
                    },
                    {
                        "number": 64,
                        "time": 119.72504699999995,
                        "value": 1
                    },
                    {
                        "number": 64,
                        "time": 120.00855206249994,
                        "value": 0
                    },
                    {
                        "number": 64,
                        "time": 120.13741799999994,
                        "value": 1
                    },
                    {
                        "number": 64,
                        "time": 120.41233199999994,
                        "value": 0
                    },
                    {
                        "number": 64,
                        "time": 122.1288262874999,
                        "value": 1
                    },
                    {
                        "number": 64,
                        "time": 123.71989106249994,
                        "value": 0
                    },
                    {
                        "number": 64,
                        "time": 123.73707318749994,
                        "value": 1
                    },
                    {
                        "number": 64,
                        "time": 124.55666054999995,
                        "value": 0
                    },
                    {
                        "number": 64,
                        "time": 124.57813820624995,
                        "value": 1
                    },
                    {
                        "number": 64,
                        "time": 125.36078399999995,
                        "value": 0
                    },
                    {
                        "number": 64,
                        "time": 125.41404858749995,
                        "value": 1
                    },
                    {
                        "number": 64,
                        "time": 125.91920306249993,
                        "value": 0
                    },
                    {
                        "number": 64,
                        "time": 126.29205517499993,
                        "value": 1
                    },
                    {
                        "number": 64,
                        "time": 126.83243300624991,
                        "value": 0
                    },
                    {
                        "number": 64,
                        "time": 127.08844666874991,
                        "value": 1
                    },
                    {
                        "number": 64,
                        "time": 127.62366986249991,
                        "value": 0
                    },
                    {
                        "number": 64,
                        "time": 127.94325738749991,
                        "value": 1
                    },
                    {
                        "number": 64,
                        "time": 128.4681713062499,
                        "value": 0
                    },
                    {
                        "number": 64,
                        "time": 128.7061437374999,
                        "value": 1
                    },
                    {
                        "number": 64,
                        "time": 129.2886177749999,
                        "value": 0
                    },
                    {
                        "number": 64,
                        "time": 129.5661090937499,
                        "value": 1
                    },
                    {
                        "number": 64,
                        "time": 130.1597515124999,
                        "value": 0
                    },
                    {
                        "number": 64,
                        "time": 130.4071741124999,
                        "value": 1
                    },
                    {
                        "number": 64,
                        "time": 130.9003010999999,
                        "value": 0
                    },
                    {
                        "number": 64,
                        "time": 131.2370707499999,
                        "value": 1
                    },
                    {
                        "number": 64,
                        "time": 131.7087200812499,
                        "value": 0
                    },
                    {
                        "number": 64,
                        "time": 133.65201841874995,
                        "value": 1
                    },
                    {
                        "number": 64,
                        "time": 134.02916606249994,
                        "value": 0
                    },
                    {
                        "number": 64,
                        "time": 134.06954405624995,
                        "value": 1
                    },
                    {
                        "number": 64,
                        "time": 134.44153706249995,
                        "value": 0
                    },
                    {
                        "number": 64,
                        "time": 134.50167449999995,
                        "value": 1
                    },
                    {
                        "number": 64,
                        "time": 135.25768799999997,
                        "value": 0
                    },
                    {
                        "number": 64,
                        "time": 136.95098641875,
                        "value": 1
                    },
                    {
                        "number": 64,
                        "time": 137.3281340625,
                        "value": 0
                    },
                    {
                        "number": 64,
                        "time": 137.36851205625,
                        "value": 1
                    },
                    {
                        "number": 64,
                        "time": 137.7405050625,
                        "value": 0
                    },
                    {
                        "number": 64,
                        "time": 137.8006425,
                        "value": 1
                    },
                    {
                        "number": 64,
                        "time": 138.55665600000003,
                        "value": 0
                    },
                    {
                        "number": 64,
                        "time": 138.62022986250003,
                        "value": 1
                    },
                    {
                        "number": 64,
                        "time": 138.95957683125005,
                        "value": 0
                    },
                    {
                        "number": 64,
                        "time": 139.39084816875004,
                        "value": 1
                    },
                    {
                        "number": 64,
                        "time": 139.78861436250006,
                        "value": 0
                    },
                    {
                        "number": 64,
                        "time": 140.24995441875006,
                        "value": 1
                    },
                    {
                        "number": 64,
                        "time": 140.62710206250006,
                        "value": 0
                    },
                    {
                        "number": 64,
                        "time": 140.66748005625007,
                        "value": 1
                    },
                    {
                        "number": 64,
                        "time": 141.03947306250006,
                        "value": 0
                    },
                    {
                        "number": 64,
                        "time": 141.09961050000007,
                        "value": 1
                    },
                    {
                        "number": 64,
                        "time": 141.8556240000001,
                        "value": 0
                    },
                    {
                        "number": 64,
                        "time": 141.91919786250008,
                        "value": 1
                    },
                    {
                        "number": 64,
                        "time": 142.2765860625001,
                        "value": 0
                    },
                    {
                        "number": 64,
                        "time": 142.3100912062501,
                        "value": 1
                    },
                    {
                        "number": 64,
                        "time": 142.6863797437501,
                        "value": 0
                    },
                    {
                        "number": 64,
                        "time": 142.7164484625001,
                        "value": 1
                    },
                    {
                        "number": 64,
                        "time": 143.08758236250011,
                        "value": 0
                    },
                    {
                        "number": 64,
                        "time": 143.14771980000012,
                        "value": 1
                    },
                    {
                        "number": 64,
                        "time": 143.51283995625013,
                        "value": 0
                    },
                    {
                        "number": 64,
                        "time": 143.57813203125014,
                        "value": 1
                    },
                    {
                        "number": 64,
                        "time": 143.92607006250012,
                        "value": 0
                    },
                    {
                        "number": 64,
                        "time": 143.96558895000013,
                        "value": 1
                    },
                    {
                        "number": 64,
                        "time": 144.33844106250012,
                        "value": 0
                    },
                    {
                        "number": 64,
                        "time": 144.39857850000013,
                        "value": 1
                    },
                    {
                        "number": 64,
                        "time": 145.15545110625015,
                        "value": 0
                    },
                    {
                        "number": 64,
                        "time": 145.18895625000016,
                        "value": 1
                    },
                    {
                        "number": 64,
                        "time": 145.57555406250015,
                        "value": 0
                    },
                    {
                        "number": 64,
                        "time": 145.64084613750015,
                        "value": 1
                    },
                    {
                        "number": 64,
                        "time": 145.98878416875016,
                        "value": 0
                    },
                    {
                        "number": 64,
                        "time": 146.01885288750015,
                        "value": 1
                    },
                    {
                        "number": 64,
                        "time": 146.40029606250013,
                        "value": 0
                    },
                    {
                        "number": 64,
                        "time": 146.45527886250014,
                        "value": 1
                    },
                    {
                        "number": 64,
                        "time": 146.81180795625016,
                        "value": 0
                    },
                    {
                        "number": 64,
                        "time": 146.87710003125017,
                        "value": 1
                    },
                    {
                        "number": 64,
                        "time": 147.22503806250015,
                        "value": 0
                    },
                    {
                        "number": 64,
                        "time": 147.29548477500015,
                        "value": 1
                    },
                    {
                        "number": 64,
                        "time": 147.63740906250015,
                        "value": 0
                    },
                    {
                        "number": 64,
                        "time": 147.69582828750015,
                        "value": 1
                    },
                    {
                        "number": 64,
                        "time": 148.04978006250013,
                        "value": 0
                    },
                    {
                        "number": 64,
                        "time": 148.12624051875014,
                        "value": 1
                    },
                    {
                        "number": 64,
                        "time": 148.46215106250014,
                        "value": 0
                    },
                    {
                        "number": 64,
                        "time": 148.52057028750014,
                        "value": 1
                    },
                    {
                        "number": 64,
                        "time": 148.87452206250012,
                        "value": 0
                    },
                    {
                        "number": 64,
                        "time": 148.93895503125012,
                        "value": 1
                    },
                    {
                        "number": 64,
                        "time": 149.2868930625001,
                        "value": 0
                    },
                    {
                        "number": 64,
                        "time": 149.3573397750001,
                        "value": 1
                    },
                    {
                        "number": 64,
                        "time": 149.6992640625001,
                        "value": 0
                    },
                    {
                        "number": 64,
                        "time": 149.7636970312501,
                        "value": 1
                    },
                    {
                        "number": 64,
                        "time": 150.1030440000001,
                        "value": 0
                    },
                    {
                        "number": 64,
                        "time": 150.1030440000001,
                        "value": 0
                    },
                    {
                        "number": 64,
                        "time": 150.1623223312501,
                        "value": 1
                    },
                    {
                        "number": 64,
                        "time": 150.5334562312501,
                        "value": 0
                    },
                    {
                        "number": 64,
                        "time": 151.0008100312501,
                        "value": 1
                    },
                    {
                        "number": 64,
                        "time": 151.37108482500008,
                        "value": 0
                    },
                    {
                        "number": 64,
                        "time": 151.81180633125007,
                        "value": 1
                    },
                    {
                        "number": 64,
                        "time": 152.1829402312501,
                        "value": 0
                    },
                    {
                        "number": 64,
                        "time": 152.65029403125007,
                        "value": 1
                    },
                    {
                        "number": 64,
                        "time": 153.00940044375005,
                        "value": 0
                    },
                    {
                        "number": 64,
                        "time": 153.46129033125004,
                        "value": 1
                    },
                    {
                        "number": 64,
                        "time": 153.83242423125006,
                        "value": 0
                    },
                    {
                        "number": 64,
                        "time": 154.29977803125004,
                        "value": 1
                    },
                    {
                        "number": 64,
                        "time": 154.63912500000004,
                        "value": 0
                    },
                    {
                        "number": 64,
                        "time": 155.10046505625004,
                        "value": 1
                    },
                    {
                        "number": 64,
                        "time": 155.88568816875005,
                        "value": 0
                    },
                    {
                        "number": 64,
                        "time": 155.94496650000005,
                        "value": 1
                    },
                    {
                        "number": 64,
                        "time": 156.67606591875008,
                        "value": 0
                    },
                    {
                        "number": 64,
                        "time": 156.7748631375001,
                        "value": 1
                    },
                    {
                        "number": 64,
                        "time": 157.5351721687501,
                        "value": 0
                    },
                    {
                        "number": 64,
                        "time": 157.6064779875001,
                        "value": 1
                    },
                    {
                        "number": 64,
                        "time": 158.32554991875014,
                        "value": 0
                    },
                    {
                        "number": 64,
                        "time": 158.35905506250012,
                        "value": 0
                    },
                    {
                        "number": 64,
                        "time": 158.4174742875001,
                        "value": 1
                    },
                    {
                        "number": 64,
                        "time": 158.7714260625001,
                        "value": 0
                    },
                    {
                        "number": 64,
                        "time": 158.8358590312501,
                        "value": 1
                    },
                    {
                        "number": 64,
                        "time": 159.18379706250008,
                        "value": 0
                    },
                    {
                        "number": 64,
                        "time": 159.25424377500008,
                        "value": 1
                    },
                    {
                        "number": 64,
                        "time": 159.59616806250008,
                        "value": 0
                    },
                    {
                        "number": 64,
                        "time": 159.66060103125008,
                        "value": 1
                    },
                    {
                        "number": 64,
                        "time": 159.95183805000008,
                        "value": 0
                    },
                    {
                        "number": 64,
                        "time": 160.05922633125007,
                        "value": 1
                    },
                    {
                        "number": 64,
                        "time": 160.4303602312501,
                        "value": 0
                    },
                    {
                        "number": 64,
                        "time": 160.89771403125008,
                        "value": 1
                    },
                    {
                        "number": 64,
                        "time": 161.23706100000007,
                        "value": 0
                    },
                    {
                        "number": 64,
                        "time": 161.70871033125007,
                        "value": 1
                    },
                    {
                        "number": 64,
                        "time": 162.0798442312501,
                        "value": 0
                    },
                    {
                        "number": 64,
                        "time": 162.54719803125008,
                        "value": 1
                    },
                    {
                        "number": 64,
                        "time": 162.88654500000007,
                        "value": 0
                    },
                    {
                        "number": 64,
                        "time": 163.35819433125008,
                        "value": 1
                    },
                    {
                        "number": 64,
                        "time": 163.7293282312501,
                        "value": 0
                    },
                    {
                        "number": 64,
                        "time": 164.19668203125008,
                        "value": 1
                    },
                    {
                        "number": 64,
                        "time": 164.53602900000007,
                        "value": 0
                    },
                    {
                        "number": 64,
                        "time": 164.99736905625008,
                        "value": 1
                    },
                    {
                        "number": 64,
                        "time": 165.78259216875009,
                        "value": 0
                    },
                    {
                        "number": 64,
                        "time": 165.84187050000008,
                        "value": 1
                    },
                    {
                        "number": 64,
                        "time": 166.57296991875012,
                        "value": 0
                    },
                    {
                        "number": 64,
                        "time": 166.6468530562501,
                        "value": 1
                    },
                    {
                        "number": 64,
                        "time": 167.43207616875011,
                        "value": 0
                    },
                    {
                        "number": 64,
                        "time": 167.4913545000001,
                        "value": 1
                    },
                    {
                        "number": 64,
                        "time": 168.22245391875015,
                        "value": 0
                    },
                    {
                        "number": 64,
                        "time": 168.29633705625014,
                        "value": 1
                    },
                    {
                        "number": 64,
                        "time": 169.08156016875014,
                        "value": 0
                    },
                    {
                        "number": 64,
                        "time": 169.14083850000014,
                        "value": 1
                    },
                    {
                        "number": 64,
                        "time": 169.90544306250015,
                        "value": 0
                    },
                    {
                        "number": 64,
                        "time": 169.94582105625017,
                        "value": 1
                    },
                    {
                        "number": 64,
                        "time": 170.31867316875017,
                        "value": 0
                    },
                    {
                        "number": 64,
                        "time": 170.35819205625018,
                        "value": 1
                    },
                    {
                        "number": 64,
                        "time": 170.7293259562502,
                        "value": 0
                    },
                    {
                        "number": 64,
                        "time": 170.78688607500018,
                        "value": 1
                    },
                    {
                        "number": 64,
                        "time": 171.5463360000002,
                        "value": 0
                    },
                    {
                        "number": 64,
                        "time": 174.89427305625026,
                        "value": 1
                    },
                    {
                        "number": 64,
                        "time": 175.26712516875025,
                        "value": 0
                    },
                    {
                        "number": 64,
                        "time": 175.30148941875026,
                        "value": 1
                    },
                    {
                        "number": 64,
                        "time": 175.67863706250026,
                        "value": 0
                    },
                    {
                        "number": 64,
                        "time": 175.72416969375027,
                        "value": 1
                    },
                    {
                        "number": 64,
                        "time": 176.09100806250026,
                        "value": 0
                    },
                    {
                        "number": 64,
                        "time": 176.14169533125028,
                        "value": 1
                    },
                    {
                        "number": 64,
                        "time": 176.49478800000028,
                        "value": 0
                    },
                    {
                        "number": 64,
                        "time": 176.54375705625029,
                        "value": 1
                    },
                    {
                        "number": 64,
                        "time": 176.91660916875028,
                        "value": 0
                    },
                    {
                        "number": 64,
                        "time": 176.9509734187503,
                        "value": 1
                    },
                    {
                        "number": 64,
                        "time": 177.3281210625003,
                        "value": 0
                    },
                    {
                        "number": 64,
                        "time": 177.3667808437503,
                        "value": 1
                    },
                    {
                        "number": 64,
                        "time": 177.7404920625003,
                        "value": 0
                    },
                    {
                        "number": 64,
                        "time": 177.7911793312503,
                        "value": 1
                    },
                    {
                        "number": 64,
                        "time": 178.1442720000003,
                        "value": 0
                    },
                    {
                        "number": 64,
                        "time": 178.19324105625032,
                        "value": 1
                    },
                    {
                        "number": 64,
                        "time": 178.5660931687503,
                        "value": 0
                    },
                    {
                        "number": 64,
                        "time": 178.60045741875032,
                        "value": 1
                    },
                    {
                        "number": 64,
                        "time": 178.97760506250032,
                        "value": 0
                    },
                    {
                        "number": 64,
                        "time": 179.02313769375033,
                        "value": 1
                    },
                    {
                        "number": 64,
                        "time": 179.38997606250032,
                        "value": 0
                    },
                    {
                        "number": 64,
                        "time": 179.44066333125033,
                        "value": 1
                    },
                    {
                        "number": 64,
                        "time": 179.79375600000034,
                        "value": 0
                    },
                    {
                        "number": 64,
                        "time": 179.84272505625034,
                        "value": 1
                    },
                    {
                        "number": 64,
                        "time": 180.21557716875034,
                        "value": 0
                    },
                    {
                        "number": 64,
                        "time": 180.24994141875035,
                        "value": 1
                    },
                    {
                        "number": 64,
                        "time": 180.62708906250035,
                        "value": 0
                    },
                    {
                        "number": 64,
                        "time": 180.66574884375035,
                        "value": 1
                    },
                    {
                        "number": 64,
                        "time": 181.03946006250035,
                        "value": 0
                    },
                    {
                        "number": 64,
                        "time": 181.09014733125036,
                        "value": 1
                    },
                    {
                        "number": 64,
                        "time": 181.44324000000037,
                        "value": 0
                    },
                    {
                        "number": 64,
                        "time": 181.49220905625037,
                        "value": 1
                    },
                    {
                        "number": 64,
                        "time": 181.86506116875037,
                        "value": 0
                    },
                    {
                        "number": 64,
                        "time": 181.89942541875038,
                        "value": 1
                    },
                    {
                        "number": 64,
                        "time": 182.27657306250038,
                        "value": 0
                    },
                    {
                        "number": 64,
                        "time": 182.3221056937504,
                        "value": 1
                    },
                    {
                        "number": 64,
                        "time": 182.68894406250038,
                        "value": 0
                    },
                    {
                        "number": 64,
                        "time": 182.7396313312504,
                        "value": 1
                    },
                    {
                        "number": 64,
                        "time": 183.0927240000004,
                        "value": 0
                    },
                    {
                        "number": 64,
                        "time": 183.1416930562504,
                        "value": 1
                    },
                    {
                        "number": 64,
                        "time": 183.5145451687504,
                        "value": 0
                    },
                    {
                        "number": 64,
                        "time": 183.5489094187504,
                        "value": 1
                    },
                    {
                        "number": 64,
                        "time": 183.9260570625004,
                        "value": 0
                    },
                    {
                        "number": 64,
                        "time": 183.9647168437504,
                        "value": 1
                    },
                    {
                        "number": 64,
                        "time": 184.3384280625004,
                        "value": 0
                    },
                    {
                        "number": 64,
                        "time": 184.38911533125042,
                        "value": 1
                    },
                    {
                        "number": 64,
                        "time": 184.74220800000043,
                        "value": 0
                    },
                    {
                        "number": 64,
                        "time": 184.80320454375044,
                        "value": 1
                    },
                    {
                        "number": 64,
                        "time": 184.96042098750044,
                        "value": 0
                    },
                    {
                        "number": 64,
                        "time": 185.03344501875043,
                        "value": 1
                    },
                    {
                        "number": 64,
                        "time": 185.17176112500044,
                        "value": 0
                    },
                    {
                        "number": 64,
                        "time": 185.24564426250043,
                        "value": 1
                    },
                    {
                        "number": 64,
                        "time": 185.37279198750045,
                        "value": 0
                    },
                    {
                        "number": 64,
                        "time": 185.45182976250044,
                        "value": 1
                    },
                    {
                        "number": 64,
                        "time": 185.57897748750045,
                        "value": 0
                    },
                    {
                        "number": 64,
                        "time": 185.61505995000044,
                        "value": 1
                    },
                    {
                        "number": 64,
                        "time": 185.77914924375045,
                        "value": 0
                    },
                    {
                        "number": 64,
                        "time": 185.86420076250045,
                        "value": 1
                    },
                    {
                        "number": 64,
                        "time": 185.98533474375046,
                        "value": 0
                    },
                    {
                        "number": 64,
                        "time": 186.05234503125047,
                        "value": 1
                    },
                    {
                        "number": 64,
                        "time": 186.19753398750046,
                        "value": 0
                    },
                    {
                        "number": 64,
                        "time": 186.27055801875045,
                        "value": 1
                    },
                    {
                        "number": 64,
                        "time": 186.39169200000046,
                        "value": 0
                    },
                    {
                        "number": 64,
                        "time": 186.46471603125045,
                        "value": 1
                    },
                    {
                        "number": 64,
                        "time": 188.04117600000046,
                        "value": 0
                    },
                    {
                        "number": 64,
                        "time": 188.11420003125045,
                        "value": 1
                    },
                    {
                        "number": 64,
                        "time": 189.69066000000046,
                        "value": 0
                    },
                    {
                        "number": 64,
                        "time": 189.76368403125045,
                        "value": 1
                    },
                    {
                        "number": 64,
                        "time": 191.34014400000046,
                        "value": 0
                    },
                    {
                        "number": 64,
                        "time": 191.41316803125045,
                        "value": 1
                    },
                    {
                        "number": 64,
                        "time": 192.98962800000047,
                        "value": 0
                    },
                    {
                        "number": 64,
                        "time": 193.06265203125045,
                        "value": 1
                    },
                    {
                        "number": 64,
                        "time": 194.63911200000047,
                        "value": 0
                    },
                    {
                        "number": 64,
                        "time": 194.82210163125046,
                        "value": 1
                    },
                    {
                        "number": 64,
                        "time": 195.07467886875048,
                        "value": 0
                    },
                    {
                        "number": 64,
                        "time": 195.67003950000048,
                        "value": 1
                    },
                    {
                        "number": 64,
                        "time": 195.8994208687505,
                        "value": 0
                    },
                    {
                        "number": 64,
                        "time": 196.3805203687505,
                        "value": 1
                    },
                    {
                        "number": 64,
                        "time": 196.7696955000005,
                        "value": 0
                    },
                    {
                        "number": 64,
                        "time": 197.31952350000049,
                        "value": 1
                    },
                    {
                        "number": 64,
                        "time": 197.68636186875048,
                        "value": 0
                    },
                    {
                        "number": 64,
                        "time": 197.96643050625048,
                        "value": 1
                    },
                    {
                        "number": 64,
                        "time": 198.35904206250046,
                        "value": 0
                    },
                    {
                        "number": 64,
                        "time": 198.40371558750047,
                        "value": 1
                    },
                    {
                        "number": 64,
                        "time": 198.7696948500005,
                        "value": 0
                    },
                    {
                        "number": 64,
                        "time": 198.7980453562505,
                        "value": 1
                    },
                    {
                        "number": 64,
                        "time": 199.17862942500048,
                        "value": 0
                    },
                    {
                        "number": 64,
                        "time": 199.19323423125047,
                        "value": 1
                    },
                    {
                        "number": 64,
                        "time": 199.58756400000047,
                        "value": 0
                    },
                    {
                        "number": 64,
                        "time": 199.83928213125046,
                        "value": 1
                    },
                    {
                        "number": 64,
                        "time": 200.14770127500046,
                        "value": 0
                    },
                    {
                        "number": 64,
                        "time": 200.59529563125045,
                        "value": 1
                    },
                    {
                        "number": 64,
                        "time": 200.95440204375046,
                        "value": 0
                    },
                    {
                        "number": 64,
                        "time": 201.39770086875046,
                        "value": 1
                    },
                    {
                        "number": 64,
                        "time": 202.22244286875045,
                        "value": 0
                    }
                ]
            },
            "id": 2,
            "name": "Piano left",
            "instrumentNumber": 0,
            "instrument": "acoustic grand piano",
            "instrumentFamily": "piano",
            "channelNumber": 0,
            "isPercussion": false
        },
        {
            "startTime": 0,
            "duration": 0,
            "length": 0,
            "notes": [],
            "controlChanges": {},
            "id": 3,
            "name": "Schubert Wandererfantasie D760  4. Satz"
        },
        {
            "startTime": 0,
            "duration": 0,
            "length": 0,
            "notes": [],
            "controlChanges": {},
            "id": 4,
            "name": "Copyright  2004 by Bernd Krger"
        },
        {
            "startTime": 0,
            "duration": 0,
            "length": 0,
            "notes": [],
            "controlChanges": {},
            "id": 5,
            "name": "http://www.piano-midi.de"
        },
        {
            "startTime": 0,
            "duration": 0,
            "length": 0,
            "notes": [],
            "controlChanges": {},
            "id": 6,
            "name": "Edition:  2014-03-15"
        },
        {
            "startTime": 0,
            "duration": 0,
            "length": 0,
            "notes": [],
            "controlChanges": {},
            "id": 7,
            "name": "Spur 7"
        }
    ]
}