{
    "header": {
        "PPQ": 480,
        "timeSignature": [
            2,
            4
        ],
        "bpm": 225.99040294088843,
        "name": "Nr. 5 in f-moll"
    },
    "startTime": 0,
    "duration": 117.35011599999874,
    "tracks": [
        {
            "startTime": 0,
            "duration": 0,
            "length": 0,
            "notes": [],
            "controlChanges": {},
            "id": 0,
            "name": "Nr. 5 in f-moll"
        },
        {
            "startTime": 0,
            "duration": 117.3501159999981,
            "length": 1372,
            "notes": [
                {
                    "name": "G#4",
                    "midi": 68,
                    "time": 0,
                    "velocity": 0.5669291338582677,
                    "duration": 0.265498
                },
                {
                    "name": "C5",
                    "midi": 72,
                    "time": 0,
                    "velocity": 0.5669291338582677,
                    "duration": 0.265498
                },
                {
                    "name": "G#5",
                    "midi": 80,
                    "time": 0,
                    "velocity": 0.6377952755905512,
                    "duration": 0.265498
                },
                {
                    "name": "G5",
                    "midi": 79,
                    "time": 0.265498,
                    "velocity": 0.6062992125984252,
                    "duration": 0.0663745
                },
                {
                    "name": "G#4",
                    "midi": 68,
                    "time": 0.265498,
                    "velocity": 0.5433070866141733,
                    "duration": 0.0663745
                },
                {
                    "name": "C5",
                    "midi": 72,
                    "time": 0.265498,
                    "velocity": 0.5433070866141733,
                    "duration": 0.0663745
                },
                {
                    "name": "F5",
                    "midi": 77,
                    "time": 0.398247,
                    "velocity": 0.6062992125984252,
                    "duration": 0.0663745
                },
                {
                    "name": "C5",
                    "midi": 72,
                    "time": 0.398247,
                    "velocity": 0.5433070866141733,
                    "duration": 0.0663745
                },
                {
                    "name": "G#4",
                    "midi": 68,
                    "time": 0.398247,
                    "velocity": 0.5433070866141733,
                    "duration": 0.0663745
                },
                {
                    "name": "G#4",
                    "midi": 68,
                    "time": 0.530996,
                    "velocity": 0.5669291338582677,
                    "duration": 0.265498
                },
                {
                    "name": "F5",
                    "midi": 77,
                    "time": 0.530996,
                    "velocity": 0.6377952755905512,
                    "duration": 0.265498
                },
                {
                    "name": "C5",
                    "midi": 72,
                    "time": 0.530996,
                    "velocity": 0.5669291338582677,
                    "duration": 0.265498
                },
                {
                    "name": "G#4",
                    "midi": 68,
                    "time": 0.796494,
                    "velocity": 0.5511811023622047,
                    "duration": 0.0663745
                },
                {
                    "name": "C5",
                    "midi": 72,
                    "time": 0.796494,
                    "velocity": 0.6141732283464567,
                    "duration": 0.0663745
                },
                {
                    "name": "C5",
                    "midi": 72,
                    "time": 0.929243,
                    "velocity": 0.6141732283464567,
                    "duration": 0.0663745
                },
                {
                    "name": "G#4",
                    "midi": 68,
                    "time": 0.929243,
                    "velocity": 0.5511811023622047,
                    "duration": 0.0663745
                },
                {
                    "name": "F5",
                    "midi": 77,
                    "time": 1.061992,
                    "velocity": 0.6377952755905512,
                    "duration": 0.265498
                },
                {
                    "name": "C#5",
                    "midi": 73,
                    "time": 1.061992,
                    "velocity": 0.5669291338582677,
                    "duration": 0.265498
                },
                {
                    "name": "A#4",
                    "midi": 70,
                    "time": 1.061992,
                    "velocity": 0.5669291338582677,
                    "duration": 0.265498
                },
                {
                    "name": "C#5",
                    "midi": 73,
                    "time": 1.32749,
                    "velocity": 0.6062992125984252,
                    "duration": 0.0663745
                },
                {
                    "name": "A#4",
                    "midi": 70,
                    "time": 1.32749,
                    "velocity": 0.5433070866141733,
                    "duration": 0.0663745
                },
                {
                    "name": "A#4",
                    "midi": 70,
                    "time": 1.460239,
                    "velocity": 0.5354330708661418,
                    "duration": 0.0663745
                },
                {
                    "name": "C#5",
                    "midi": 73,
                    "time": 1.460239,
                    "velocity": 0.5984251968503937,
                    "duration": 0.0663745
                },
                {
                    "name": "F5",
                    "midi": 77,
                    "time": 1.592988,
                    "velocity": 0.6377952755905512,
                    "duration": 0.2599667916666666
                },
                {
                    "name": "G#4",
                    "midi": 68,
                    "time": 1.592988,
                    "velocity": 0.5669291338582677,
                    "duration": 0.2599667916666666
                },
                {
                    "name": "C5",
                    "midi": 72,
                    "time": 1.592988,
                    "velocity": 0.5669291338582677,
                    "duration": 0.2599667916666666
                },
                {
                    "name": "G#4",
                    "midi": 68,
                    "time": 1.858486,
                    "velocity": 0.3858267716535433,
                    "duration": 0.0663745
                },
                {
                    "name": "C5",
                    "midi": 72,
                    "time": 1.858486,
                    "velocity": 0.4330708661417323,
                    "duration": 0.0663745
                },
                {
                    "name": "G#4",
                    "midi": 68,
                    "time": 1.991235,
                    "velocity": 0.3858267716535433,
                    "duration": 0.06637449999999978
                },
                {
                    "name": "C5",
                    "midi": 72,
                    "time": 1.991235,
                    "velocity": 0.4330708661417323,
                    "duration": 0.06637449999999978
                },
                {
                    "name": "C5",
                    "midi": 72,
                    "time": 2.123984,
                    "velocity": 0.3779527559055118,
                    "duration": 0.265498
                },
                {
                    "name": "G#4",
                    "midi": 68,
                    "time": 2.123984,
                    "velocity": 0.33858267716535434,
                    "duration": 0.265498
                },
                {
                    "name": "G4",
                    "midi": 67,
                    "time": 2.389482,
                    "velocity": 0.33858267716535434,
                    "duration": 0.06637450000000022
                },
                {
                    "name": "G#4",
                    "midi": 68,
                    "time": 2.389482,
                    "velocity": 0.33858267716535434,
                    "duration": 0.06637450000000022
                },
                {
                    "name": "C5",
                    "midi": 72,
                    "time": 2.389482,
                    "velocity": 0.3779527559055118,
                    "duration": 0.06637450000000022
                },
                {
                    "name": "G#4",
                    "midi": 68,
                    "time": 2.5222310000000006,
                    "velocity": 0.31496062992125984,
                    "duration": 0.06637450000000022
                },
                {
                    "name": "F4",
                    "midi": 65,
                    "time": 2.5222310000000006,
                    "velocity": 0.31496062992125984,
                    "duration": 0.06637450000000022
                },
                {
                    "name": "C5",
                    "midi": 72,
                    "time": 2.5222310000000006,
                    "velocity": 0.3543307086614173,
                    "duration": 0.06637450000000022
                },
                {
                    "name": "F4",
                    "midi": 65,
                    "time": 2.654980000000001,
                    "velocity": 0.31496062992125984,
                    "duration": 0.265498
                },
                {
                    "name": "C5",
                    "midi": 72,
                    "time": 2.654980000000001,
                    "velocity": 0.3543307086614173,
                    "duration": 0.265498
                },
                {
                    "name": "G#4",
                    "midi": 68,
                    "time": 2.654980000000001,
                    "velocity": 0.31496062992125984,
                    "duration": 0.265498
                },
                {
                    "name": "G#4",
                    "midi": 68,
                    "time": 2.920478000000001,
                    "velocity": 0.33858267716535434,
                    "duration": 0.06637450000000022
                },
                {
                    "name": "C4",
                    "midi": 60,
                    "time": 2.920478000000001,
                    "velocity": 0.33858267716535434,
                    "duration": 0.06637450000000022
                },
                {
                    "name": "C5",
                    "midi": 72,
                    "time": 2.920478000000001,
                    "velocity": 0.3779527559055118,
                    "duration": 0.06637450000000022
                },
                {
                    "name": "C4",
                    "midi": 60,
                    "time": 3.0532270000000015,
                    "velocity": 0.31496062992125984,
                    "duration": 0.06637450000000022
                },
                {
                    "name": "C5",
                    "midi": 72,
                    "time": 3.0532270000000015,
                    "velocity": 0.3543307086614173,
                    "duration": 0.06637450000000022
                },
                {
                    "name": "G#4",
                    "midi": 68,
                    "time": 3.0532270000000015,
                    "velocity": 0.31496062992125984,
                    "duration": 0.06637450000000022
                },
                {
                    "name": "C#5",
                    "midi": 73,
                    "time": 3.185976000000002,
                    "velocity": 0.3543307086614173,
                    "duration": 0.265498
                },
                {
                    "name": "A#4",
                    "midi": 70,
                    "time": 3.185976000000002,
                    "velocity": 0.31496062992125984,
                    "duration": 0.265498
                },
                {
                    "name": "F4",
                    "midi": 65,
                    "time": 3.185976000000002,
                    "velocity": 0.31496062992125984,
                    "duration": 0.265498
                },
                {
                    "name": "C#5",
                    "midi": 73,
                    "time": 3.451474000000002,
                    "velocity": 0.3779527559055118,
                    "duration": 0.06637450000000022
                },
                {
                    "name": "C#4",
                    "midi": 61,
                    "time": 3.451474000000002,
                    "velocity": 0.33858267716535434,
                    "duration": 0.06637450000000022
                },
                {
                    "name": "A#4",
                    "midi": 70,
                    "time": 3.451474000000002,
                    "velocity": 0.33858267716535434,
                    "duration": 0.06637450000000022
                },
                {
                    "name": "C#4",
                    "midi": 61,
                    "time": 3.5842230000000024,
                    "velocity": 0.31496062992125984,
                    "duration": 0.06637450000000022
                },
                {
                    "name": "A#4",
                    "midi": 70,
                    "time": 3.5842230000000024,
                    "velocity": 0.31496062992125984,
                    "duration": 0.06637450000000022
                },
                {
                    "name": "C#5",
                    "midi": 73,
                    "time": 3.5842230000000024,
                    "velocity": 0.3543307086614173,
                    "duration": 0.06637450000000022
                },
                {
                    "name": "G#4",
                    "midi": 68,
                    "time": 3.716972000000003,
                    "velocity": 0.31496062992125984,
                    "duration": 0.265498
                },
                {
                    "name": "F4",
                    "midi": 65,
                    "time": 3.716972000000003,
                    "velocity": 0.31496062992125984,
                    "duration": 0.265498
                },
                {
                    "name": "C5",
                    "midi": 72,
                    "time": 3.716972000000003,
                    "velocity": 0.3543307086614173,
                    "duration": 0.265498
                },
                {
                    "name": "C4",
                    "midi": 60,
                    "time": 3.982470000000003,
                    "velocity": 0.31496062992125984,
                    "duration": 0.06637450000000022
                },
                {
                    "name": "C5",
                    "midi": 72,
                    "time": 3.982470000000003,
                    "velocity": 0.3543307086614173,
                    "duration": 0.06637450000000022
                },
                {
                    "name": "G#4",
                    "midi": 68,
                    "time": 3.982470000000003,
                    "velocity": 0.31496062992125984,
                    "duration": 0.06637450000000022
                },
                {
                    "name": "C4",
                    "midi": 60,
                    "time": 4.115219000000003,
                    "velocity": 0.31496062992125984,
                    "duration": 0.06637450000000022
                },
                {
                    "name": "G#4",
                    "midi": 68,
                    "time": 4.115219000000003,
                    "velocity": 0.31496062992125984,
                    "duration": 0.06637450000000022
                },
                {
                    "name": "C5",
                    "midi": 72,
                    "time": 4.115219000000003,
                    "velocity": 0.3543307086614173,
                    "duration": 0.06637450000000022
                },
                {
                    "name": "F4",
                    "midi": 65,
                    "time": 4.247968000000004,
                    "velocity": 0.5511811023622047,
                    "duration": 0.265498
                },
                {
                    "name": "B4",
                    "midi": 71,
                    "time": 4.247968000000004,
                    "velocity": 0.6141732283464567,
                    "duration": 0.265498
                },
                {
                    "name": "G#4",
                    "midi": 68,
                    "time": 4.247968000000004,
                    "velocity": 0.5511811023622047,
                    "duration": 0.265498
                },
                {
                    "name": "B4",
                    "midi": 71,
                    "time": 4.513466000000004,
                    "velocity": 0.5826771653543307,
                    "duration": 0.06637450000000022
                },
                {
                    "name": "G#4",
                    "midi": 68,
                    "time": 4.513466000000004,
                    "velocity": 0.5196850393700787,
                    "duration": 0.06637450000000022
                },
                {
                    "name": "D4",
                    "midi": 62,
                    "time": 4.513466000000004,
                    "velocity": 0.5196850393700787,
                    "duration": 0.06637450000000022
                },
                {
                    "name": "G#4",
                    "midi": 68,
                    "time": 4.646215000000004,
                    "velocity": 0.5196850393700787,
                    "duration": 0.06637450000000022
                },
                {
                    "name": "B4",
                    "midi": 71,
                    "time": 4.646215000000004,
                    "velocity": 0.5826771653543307,
                    "duration": 0.06637450000000022
                },
                {
                    "name": "D4",
                    "midi": 62,
                    "time": 4.646215000000004,
                    "velocity": 0.5196850393700787,
                    "duration": 0.06637450000000022
                },
                {
                    "name": "D#4",
                    "midi": 63,
                    "time": 4.778964000000005,
                    "velocity": 0.5905511811023622,
                    "duration": 0.265498
                },
                {
                    "name": "C5",
                    "midi": 72,
                    "time": 4.778964000000005,
                    "velocity": 0.6614173228346457,
                    "duration": 0.265498
                },
                {
                    "name": "G4",
                    "midi": 67,
                    "time": 4.778964000000005,
                    "velocity": 0.5905511811023622,
                    "duration": 0.265498
                },
                {
                    "name": "C4",
                    "midi": 60,
                    "time": 5.044462000000005,
                    "velocity": 0.5511811023622047,
                    "duration": 0.06637450000000022
                },
                {
                    "name": "G4",
                    "midi": 67,
                    "time": 5.044462000000005,
                    "velocity": 0.5511811023622047,
                    "duration": 0.06637450000000022
                },
                {
                    "name": "C5",
                    "midi": 72,
                    "time": 5.044462000000005,
                    "velocity": 0.6141732283464567,
                    "duration": 0.06637450000000022
                },
                {
                    "name": "C5",
                    "midi": 72,
                    "time": 5.177211000000005,
                    "velocity": 0.6141732283464567,
                    "duration": 0.06637450000000022
                },
                {
                    "name": "G4",
                    "midi": 67,
                    "time": 5.177211000000005,
                    "velocity": 0.5511811023622047,
                    "duration": 0.06637450000000022
                },
                {
                    "name": "C4",
                    "midi": 60,
                    "time": 5.177211000000005,
                    "velocity": 0.5511811023622047,
                    "duration": 0.06637450000000022
                },
                {
                    "name": "D4",
                    "midi": 62,
                    "time": 5.309960000000006,
                    "velocity": 0.5826771653543307,
                    "duration": 0.265498
                },
                {
                    "name": "D5",
                    "midi": 74,
                    "time": 5.309960000000006,
                    "velocity": 0.6535433070866141,
                    "duration": 0.265498
                },
                {
                    "name": "G4",
                    "midi": 67,
                    "time": 5.309960000000006,
                    "velocity": 0.5826771653543307,
                    "duration": 0.265498
                },
                {
                    "name": "D4",
                    "midi": 62,
                    "time": 5.575458000000006,
                    "velocity": 0.5511811023622047,
                    "duration": 0.06637450000000022
                },
                {
                    "name": "B4",
                    "midi": 71,
                    "time": 5.575458000000006,
                    "velocity": 0.6141732283464567,
                    "duration": 0.06637450000000022
                },
                {
                    "name": "G4",
                    "midi": 67,
                    "time": 5.575458000000006,
                    "velocity": 0.5511811023622047,
                    "duration": 0.06637450000000022
                },
                {
                    "name": "B4",
                    "midi": 71,
                    "time": 5.708207000000006,
                    "velocity": 0.6141732283464567,
                    "duration": 0.06637450000000022
                },
                {
                    "name": "G4",
                    "midi": 67,
                    "time": 5.708207000000006,
                    "velocity": 0.5511811023622047,
                    "duration": 0.06637450000000022
                },
                {
                    "name": "D4",
                    "midi": 62,
                    "time": 5.708207000000006,
                    "velocity": 0.5511811023622047,
                    "duration": 0.06637450000000022
                },
                {
                    "name": "G4",
                    "midi": 67,
                    "time": 5.8409560000000065,
                    "velocity": 0.5826771653543307,
                    "duration": 0.265498
                },
                {
                    "name": "D#4",
                    "midi": 63,
                    "time": 5.8409560000000065,
                    "velocity": 0.5826771653543307,
                    "duration": 0.265498
                },
                {
                    "name": "D#5",
                    "midi": 75,
                    "time": 5.8409560000000065,
                    "velocity": 0.6535433070866141,
                    "duration": 0.265498
                },
                {
                    "name": "D#4",
                    "midi": 63,
                    "time": 6.1064540000000065,
                    "velocity": 0.5669291338582677,
                    "duration": 0.06637450000000022
                },
                {
                    "name": "C5",
                    "midi": 72,
                    "time": 6.1064540000000065,
                    "velocity": 0.6377952755905512,
                    "duration": 0.06637450000000022
                },
                {
                    "name": "G4",
                    "midi": 67,
                    "time": 6.1064540000000065,
                    "velocity": 0.5669291338582677,
                    "duration": 0.06637450000000022
                },
                {
                    "name": "D#4",
                    "midi": 63,
                    "time": 6.239203000000007,
                    "velocity": 0.5669291338582677,
                    "duration": 0.06637450000000022
                },
                {
                    "name": "G4",
                    "midi": 67,
                    "time": 6.239203000000007,
                    "velocity": 0.5669291338582677,
                    "duration": 0.06637450000000022
                },
                {
                    "name": "C5",
                    "midi": 72,
                    "time": 6.239203000000007,
                    "velocity": 0.6377952755905512,
                    "duration": 0.06637450000000022
                },
                {
                    "name": "G4",
                    "midi": 67,
                    "time": 6.371952000000007,
                    "velocity": 0.6377952755905512,
                    "duration": 0.265498
                },
                {
                    "name": "F5",
                    "midi": 77,
                    "time": 6.371952000000007,
                    "velocity": 0.7086614173228346,
                    "duration": 0.265498
                },
                {
                    "name": "G5",
                    "midi": 79,
                    "time": 6.637450000000007,
                    "velocity": 0.6850393700787402,
                    "duration": 0.06637450000000022
                },
                {
                    "name": "G4",
                    "midi": 67,
                    "time": 6.637450000000007,
                    "velocity": 0.6141732283464567,
                    "duration": 0.06637450000000022
                },
                {
                    "name": "G5",
                    "midi": 79,
                    "time": 6.770199000000008,
                    "velocity": 0.6850393700787402,
                    "duration": 0.06637450000000022
                },
                {
                    "name": "G4",
                    "midi": 67,
                    "time": 6.770199000000008,
                    "velocity": 0.6141732283464567,
                    "duration": 0.06637450000000022
                },
                {
                    "name": "G4",
                    "midi": 67,
                    "time": 6.902948000000008,
                    "velocity": 0.6456692913385826,
                    "duration": 0.265498
                },
                {
                    "name": "F#5",
                    "midi": 78,
                    "time": 6.902948000000008,
                    "velocity": 0.7244094488188977,
                    "duration": 0.265498
                },
                {
                    "name": "G5",
                    "midi": 79,
                    "time": 7.168446000000008,
                    "velocity": 0.7086614173228346,
                    "duration": 0.06637450000000022
                },
                {
                    "name": "G4",
                    "midi": 67,
                    "time": 7.168446000000008,
                    "velocity": 0.6377952755905512,
                    "duration": 0.06637450000000022
                },
                {
                    "name": "G4",
                    "midi": 67,
                    "time": 7.301195000000009,
                    "velocity": 0.6377952755905512,
                    "duration": 0.06637450000000022
                },
                {
                    "name": "G5",
                    "midi": 79,
                    "time": 7.301195000000009,
                    "velocity": 0.7086614173228346,
                    "duration": 0.06637450000000022
                },
                {
                    "name": "G5",
                    "midi": 79,
                    "time": 7.433944000000009,
                    "velocity": 0.7637795275590551,
                    "duration": 0.2599667916666668
                },
                {
                    "name": "G4",
                    "midi": 67,
                    "time": 7.433944000000009,
                    "velocity": 0.6850393700787402,
                    "duration": 0.2599667916666668
                },
                {
                    "name": "G#5",
                    "midi": 80,
                    "time": 7.699442000000009,
                    "velocity": 0.7637795275590551,
                    "duration": 0.13274899999999956
                },
                {
                    "name": "G#4",
                    "midi": 68,
                    "time": 7.699442000000009,
                    "velocity": 0.6850393700787402,
                    "duration": 0.13274899999999956
                },
                {
                    "name": "F5",
                    "midi": 77,
                    "time": 7.699442000000009,
                    "velocity": 0.6850393700787402,
                    "duration": 0.13274899999999956
                },
                {
                    "name": "G#5",
                    "midi": 80,
                    "time": 7.964940000000009,
                    "velocity": 0.7637795275590551,
                    "duration": 0.13274900000000045
                },
                {
                    "name": "F5",
                    "midi": 77,
                    "time": 7.964940000000009,
                    "velocity": 0.6850393700787402,
                    "duration": 0.13274900000000045
                },
                {
                    "name": "G#4",
                    "midi": 68,
                    "time": 7.964940000000009,
                    "velocity": 0.6850393700787402,
                    "duration": 0.13274900000000045
                },
                {
                    "name": "G#4",
                    "midi": 68,
                    "time": 8.23043800000001,
                    "velocity": 0.6850393700787402,
                    "duration": 0.13274900000000045
                },
                {
                    "name": "F5",
                    "midi": 77,
                    "time": 8.23043800000001,
                    "velocity": 0.6850393700787402,
                    "duration": 0.13274900000000045
                },
                {
                    "name": "G#5",
                    "midi": 80,
                    "time": 8.23043800000001,
                    "velocity": 0.7637795275590551,
                    "duration": 0.13274900000000045
                },
                {
                    "name": "G#5",
                    "midi": 80,
                    "time": 8.495936000000011,
                    "velocity": 0.7637795275590551,
                    "duration": 0.13274900000000045
                },
                {
                    "name": "F5",
                    "midi": 77,
                    "time": 8.495936000000011,
                    "velocity": 0.6850393700787402,
                    "duration": 0.13274900000000045
                },
                {
                    "name": "G#4",
                    "midi": 68,
                    "time": 8.495936000000011,
                    "velocity": 0.6850393700787402,
                    "duration": 0.13274900000000045
                },
                {
                    "name": "C#5",
                    "midi": 73,
                    "time": 8.761434000000012,
                    "velocity": 0.6850393700787402,
                    "duration": 0.13274900000000045
                },
                {
                    "name": "C#6",
                    "midi": 85,
                    "time": 8.761434000000012,
                    "velocity": 0.7637795275590551,
                    "duration": 0.13274900000000045
                },
                {
                    "name": "G#5",
                    "midi": 80,
                    "time": 8.761434000000012,
                    "velocity": 0.6850393700787402,
                    "duration": 0.13274900000000045
                },
                {
                    "name": "C#6",
                    "midi": 85,
                    "time": 9.026932000000013,
                    "velocity": 0.7086614173228346,
                    "duration": 0.2654980000000009
                },
                {
                    "name": "G#5",
                    "midi": 80,
                    "time": 9.026932000000013,
                    "velocity": 0.6377952755905512,
                    "duration": 0.2654980000000009
                },
                {
                    "name": "C#5",
                    "midi": 73,
                    "time": 9.026932000000013,
                    "velocity": 0.6377952755905512,
                    "duration": 0.2654980000000009
                },
                {
                    "name": "G#5",
                    "midi": 80,
                    "time": 9.292430000000014,
                    "velocity": 0.6692913385826772,
                    "duration": 0.06637450000000022
                },
                {
                    "name": "C#6",
                    "midi": 85,
                    "time": 9.292430000000014,
                    "velocity": 0.7480314960629921,
                    "duration": 0.06637450000000022
                },
                {
                    "name": "C#5",
                    "midi": 73,
                    "time": 9.292430000000014,
                    "velocity": 0.6692913385826772,
                    "duration": 0.06637450000000022
                },
                {
                    "name": "C#6",
                    "midi": 85,
                    "time": 9.425179000000014,
                    "velocity": 0.7637795275590551,
                    "duration": 0.06637450000000022
                },
                {
                    "name": "C#5",
                    "midi": 73,
                    "time": 9.425179000000014,
                    "velocity": 0.6850393700787402,
                    "duration": 0.06637450000000022
                },
                {
                    "name": "G#5",
                    "midi": 80,
                    "time": 9.425179000000014,
                    "velocity": 0.6850393700787402,
                    "duration": 0.06637450000000022
                },
                {
                    "name": "D#6",
                    "midi": 87,
                    "time": 9.557928000000015,
                    "velocity": 0.7795275590551181,
                    "duration": 0.2654980000000009
                },
                {
                    "name": "C6",
                    "midi": 84,
                    "time": 9.557928000000015,
                    "velocity": 0.7007874015748031,
                    "duration": 0.2654980000000009
                },
                {
                    "name": "D#5",
                    "midi": 75,
                    "time": 9.557928000000015,
                    "velocity": 0.7007874015748031,
                    "duration": 0.2654980000000009
                },
                {
                    "name": "D#5",
                    "midi": 75,
                    "time": 9.823426000000016,
                    "velocity": 0.6614173228346457,
                    "duration": 0.06637450000000022
                },
                {
                    "name": "D#6",
                    "midi": 87,
                    "time": 9.823426000000016,
                    "velocity": 0.7401574803149606,
                    "duration": 0.06637450000000022
                },
                {
                    "name": "C6",
                    "midi": 84,
                    "time": 9.823426000000016,
                    "velocity": 0.6614173228346457,
                    "duration": 0.06637450000000022
                },
                {
                    "name": "D#6",
                    "midi": 87,
                    "time": 9.956175000000016,
                    "velocity": 0.7165354330708661,
                    "duration": 0.06637450000000022
                },
                {
                    "name": "C6",
                    "midi": 84,
                    "time": 9.956175000000016,
                    "velocity": 0.6377952755905512,
                    "duration": 0.06637450000000022
                },
                {
                    "name": "D#5",
                    "midi": 75,
                    "time": 9.956175000000016,
                    "velocity": 0.6377952755905512,
                    "duration": 0.06637450000000022
                },
                {
                    "name": "C#5",
                    "midi": 73,
                    "time": 10.088924000000016,
                    "velocity": 0.6299212598425197,
                    "duration": 0.13274900000000045
                },
                {
                    "name": "C#6",
                    "midi": 85,
                    "time": 10.088924000000016,
                    "velocity": 0.7007874015748031,
                    "duration": 0.13274900000000045
                },
                {
                    "name": "B5",
                    "midi": 83,
                    "time": 10.354422000000017,
                    "velocity": 0.7244094488188977,
                    "duration": 0.13274900000000045
                },
                {
                    "name": "G#5",
                    "midi": 80,
                    "time": 10.354422000000017,
                    "velocity": 0.6456692913385826,
                    "duration": 0.13274900000000045
                },
                {
                    "name": "B4",
                    "midi": 71,
                    "time": 10.354422000000017,
                    "velocity": 0.6456692913385826,
                    "duration": 0.13274900000000045
                },
                {
                    "name": "F5",
                    "midi": 77,
                    "time": 10.354422000000017,
                    "velocity": 0.6456692913385826,
                    "duration": 0.13274900000000045
                },
                {
                    "name": "C6",
                    "midi": 84,
                    "time": 10.619920000000018,
                    "velocity": 0.7244094488188977,
                    "duration": 0.13274900000000045
                },
                {
                    "name": "G#5",
                    "midi": 80,
                    "time": 10.619920000000018,
                    "velocity": 0.6456692913385826,
                    "duration": 0.13274900000000045
                },
                {
                    "name": "F5",
                    "midi": 77,
                    "time": 10.619920000000018,
                    "velocity": 0.6456692913385826,
                    "duration": 0.13274900000000045
                },
                {
                    "name": "C5",
                    "midi": 72,
                    "time": 10.619920000000018,
                    "velocity": 0.6456692913385826,
                    "duration": 0.13274900000000045
                },
                {
                    "name": "G5",
                    "midi": 79,
                    "time": 10.88541800000002,
                    "velocity": 0.6456692913385826,
                    "duration": 0.13274900000000045
                },
                {
                    "name": "C5",
                    "midi": 72,
                    "time": 10.88541800000002,
                    "velocity": 0.6456692913385826,
                    "duration": 0.13274900000000045
                },
                {
                    "name": "E5",
                    "midi": 76,
                    "time": 10.88541800000002,
                    "velocity": 0.6456692913385826,
                    "duration": 0.13274900000000045
                },
                {
                    "name": "C6",
                    "midi": 84,
                    "time": 10.88541800000002,
                    "velocity": 0.7244094488188977,
                    "duration": 0.13274900000000045
                },
                {
                    "name": "C5",
                    "midi": 72,
                    "time": 11.15091600000002,
                    "velocity": 0.5196850393700787,
                    "duration": 0.2654980000000009
                },
                {
                    "name": "G#4",
                    "midi": 68,
                    "time": 11.15091600000002,
                    "velocity": 0.5196850393700787,
                    "duration": 0.2654980000000009
                },
                {
                    "name": "G#5",
                    "midi": 80,
                    "time": 11.15091600000002,
                    "velocity": 0.5826771653543307,
                    "duration": 0.2654980000000009
                },
                {
                    "name": "G5",
                    "midi": 79,
                    "time": 11.416414000000021,
                    "velocity": 0.5590551181102362,
                    "duration": 0.06637450000000022
                },
                {
                    "name": "C5",
                    "midi": 72,
                    "time": 11.416414000000021,
                    "velocity": 0.49606299212598426,
                    "duration": 0.06637450000000022
                },
                {
                    "name": "G#4",
                    "midi": 68,
                    "time": 11.416414000000021,
                    "velocity": 0.49606299212598426,
                    "duration": 0.06637450000000022
                },
                {
                    "name": "F5",
                    "midi": 77,
                    "time": 11.549163000000021,
                    "velocity": 0.5511811023622047,
                    "duration": 0.06637450000000022
                },
                {
                    "name": "C5",
                    "midi": 72,
                    "time": 11.549163000000021,
                    "velocity": 0.49606299212598426,
                    "duration": 0.06637450000000022
                },
                {
                    "name": "G#4",
                    "midi": 68,
                    "time": 11.549163000000021,
                    "velocity": 0.49606299212598426,
                    "duration": 0.06637450000000022
                },
                {
                    "name": "F5",
                    "midi": 77,
                    "time": 11.681912000000022,
                    "velocity": 0.5826771653543307,
                    "duration": 0.2654980000000009
                },
                {
                    "name": "C5",
                    "midi": 72,
                    "time": 11.681912000000022,
                    "velocity": 0.5196850393700787,
                    "duration": 0.2654980000000009
                },
                {
                    "name": "G#4",
                    "midi": 68,
                    "time": 11.681912000000022,
                    "velocity": 0.5196850393700787,
                    "duration": 0.2654980000000009
                },
                {
                    "name": "G#4",
                    "midi": 68,
                    "time": 11.947410000000023,
                    "velocity": 0.5039370078740157,
                    "duration": 0.06637450000000022
                },
                {
                    "name": "C5",
                    "midi": 72,
                    "time": 11.947410000000023,
                    "velocity": 0.5669291338582677,
                    "duration": 0.06637450000000022
                },
                {
                    "name": "G#4",
                    "midi": 68,
                    "time": 12.080159000000023,
                    "velocity": 0.5039370078740157,
                    "duration": 0.06637450000000022
                },
                {
                    "name": "C5",
                    "midi": 72,
                    "time": 12.080159000000023,
                    "velocity": 0.5669291338582677,
                    "duration": 0.06637450000000022
                },
                {
                    "name": "F5",
                    "midi": 77,
                    "time": 12.212908000000024,
                    "velocity": 0.5905511811023622,
                    "duration": 0.2654980000000009
                },
                {
                    "name": "C#5",
                    "midi": 73,
                    "time": 12.212908000000024,
                    "velocity": 0.5275590551181102,
                    "duration": 0.2654980000000009
                },
                {
                    "name": "A#4",
                    "midi": 70,
                    "time": 12.212908000000024,
                    "velocity": 0.5275590551181102,
                    "duration": 0.2654980000000009
                },
                {
                    "name": "A#4",
                    "midi": 70,
                    "time": 12.478406000000025,
                    "velocity": 0.5039370078740157,
                    "duration": 0.06637450000000022
                },
                {
                    "name": "C#5",
                    "midi": 73,
                    "time": 12.478406000000025,
                    "velocity": 0.5669291338582677,
                    "duration": 0.06637450000000022
                },
                {
                    "name": "A#4",
                    "midi": 70,
                    "time": 12.611155000000025,
                    "velocity": 0.5039370078740157,
                    "duration": 0.06637450000000022
                },
                {
                    "name": "C#5",
                    "midi": 73,
                    "time": 12.611155000000025,
                    "velocity": 0.5669291338582677,
                    "duration": 0.06637450000000022
                },
                {
                    "name": "F5",
                    "midi": 77,
                    "time": 12.743904000000025,
                    "velocity": 0.5984251968503937,
                    "duration": 0.2599667916666668
                },
                {
                    "name": "C5",
                    "midi": 72,
                    "time": 12.743904000000025,
                    "velocity": 0.5354330708661418,
                    "duration": 0.2599667916666668
                },
                {
                    "name": "G#4",
                    "midi": 68,
                    "time": 12.743904000000025,
                    "velocity": 0.5354330708661418,
                    "duration": 0.2599667916666668
                },
                {
                    "name": "G#4",
                    "midi": 68,
                    "time": 13.009402000000026,
                    "velocity": 0.3779527559055118,
                    "duration": 0.06637450000000022
                },
                {
                    "name": "C5",
                    "midi": 72,
                    "time": 13.009402000000026,
                    "velocity": 0.4251968503937008,
                    "duration": 0.06637450000000022
                },
                {
                    "name": "G#4",
                    "midi": 68,
                    "time": 13.142151000000027,
                    "velocity": 0.3779527559055118,
                    "duration": 0.06637450000000022
                },
                {
                    "name": "C5",
                    "midi": 72,
                    "time": 13.142151000000027,
                    "velocity": 0.4251968503937008,
                    "duration": 0.06637450000000022
                },
                {
                    "name": "G#4",
                    "midi": 68,
                    "time": 13.274900000000027,
                    "velocity": 0.33858267716535434,
                    "duration": 0.2654980000000009
                },
                {
                    "name": "C5",
                    "midi": 72,
                    "time": 13.274900000000027,
                    "velocity": 0.3779527559055118,
                    "duration": 0.2654980000000009
                },
                {
                    "name": "G4",
                    "midi": 67,
                    "time": 13.540398000000028,
                    "velocity": 0.33858267716535434,
                    "duration": 0.06637450000000022
                },
                {
                    "name": "G#4",
                    "midi": 68,
                    "time": 13.540398000000028,
                    "velocity": 0.33858267716535434,
                    "duration": 0.06637450000000022
                },
                {
                    "name": "C5",
                    "midi": 72,
                    "time": 13.540398000000028,
                    "velocity": 0.3779527559055118,
                    "duration": 0.06637450000000022
                },
                {
                    "name": "F4",
                    "midi": 65,
                    "time": 13.673147000000029,
                    "velocity": 0.31496062992125984,
                    "duration": 0.06637450000000022
                },
                {
                    "name": "G#4",
                    "midi": 68,
                    "time": 13.673147000000029,
                    "velocity": 0.31496062992125984,
                    "duration": 0.06637450000000022
                },
                {
                    "name": "C5",
                    "midi": 72,
                    "time": 13.673147000000029,
                    "velocity": 0.3543307086614173,
                    "duration": 0.06637450000000022
                },
                {
                    "name": "F4",
                    "midi": 65,
                    "time": 13.805896000000029,
                    "velocity": 0.31496062992125984,
                    "duration": 0.2654980000000009
                },
                {
                    "name": "G#4",
                    "midi": 68,
                    "time": 13.805896000000029,
                    "velocity": 0.31496062992125984,
                    "duration": 0.2654980000000009
                },
                {
                    "name": "C5",
                    "midi": 72,
                    "time": 13.805896000000029,
                    "velocity": 0.3543307086614173,
                    "duration": 0.2654980000000009
                },
                {
                    "name": "C4",
                    "midi": 60,
                    "time": 14.07139400000003,
                    "velocity": 0.33858267716535434,
                    "duration": 0.06637450000000022
                },
                {
                    "name": "G#4",
                    "midi": 68,
                    "time": 14.07139400000003,
                    "velocity": 0.33858267716535434,
                    "duration": 0.06637450000000022
                },
                {
                    "name": "C5",
                    "midi": 72,
                    "time": 14.07139400000003,
                    "velocity": 0.3779527559055118,
                    "duration": 0.06637450000000022
                },
                {
                    "name": "C4",
                    "midi": 60,
                    "time": 14.20414300000003,
                    "velocity": 0.31496062992125984,
                    "duration": 0.06637450000000022
                },
                {
                    "name": "G#4",
                    "midi": 68,
                    "time": 14.20414300000003,
                    "velocity": 0.31496062992125984,
                    "duration": 0.06637450000000022
                },
                {
                    "name": "C5",
                    "midi": 72,
                    "time": 14.20414300000003,
                    "velocity": 0.3543307086614173,
                    "duration": 0.06637450000000022
                },
                {
                    "name": "C#5",
                    "midi": 73,
                    "time": 14.33689200000003,
                    "velocity": 0.3543307086614173,
                    "duration": 0.2654980000000009
                },
                {
                    "name": "A#4",
                    "midi": 70,
                    "time": 14.33689200000003,
                    "velocity": 0.31496062992125984,
                    "duration": 0.2654980000000009
                },
                {
                    "name": "F4",
                    "midi": 65,
                    "time": 14.33689200000003,
                    "velocity": 0.31496062992125984,
                    "duration": 0.2654980000000009
                },
                {
                    "name": "C#4",
                    "midi": 61,
                    "time": 14.602390000000032,
                    "velocity": 0.33858267716535434,
                    "duration": 0.06637450000000022
                },
                {
                    "name": "A#4",
                    "midi": 70,
                    "time": 14.602390000000032,
                    "velocity": 0.33858267716535434,
                    "duration": 0.06637450000000022
                },
                {
                    "name": "C#5",
                    "midi": 73,
                    "time": 14.602390000000032,
                    "velocity": 0.3779527559055118,
                    "duration": 0.06637450000000022
                },
                {
                    "name": "C#4",
                    "midi": 61,
                    "time": 14.735139000000032,
                    "velocity": 0.31496062992125984,
                    "duration": 0.06637450000000022
                },
                {
                    "name": "A#4",
                    "midi": 70,
                    "time": 14.735139000000032,
                    "velocity": 0.31496062992125984,
                    "duration": 0.06637450000000022
                },
                {
                    "name": "C#5",
                    "midi": 73,
                    "time": 14.735139000000032,
                    "velocity": 0.3543307086614173,
                    "duration": 0.06637450000000022
                },
                {
                    "name": "F4",
                    "midi": 65,
                    "time": 14.867888000000033,
                    "velocity": 0.31496062992125984,
                    "duration": 0.2654980000000009
                },
                {
                    "name": "G#4",
                    "midi": 68,
                    "time": 14.867888000000033,
                    "velocity": 0.31496062992125984,
                    "duration": 0.2654980000000009
                },
                {
                    "name": "C5",
                    "midi": 72,
                    "time": 14.867888000000033,
                    "velocity": 0.3543307086614173,
                    "duration": 0.2654980000000009
                },
                {
                    "name": "C4",
                    "midi": 60,
                    "time": 15.133386000000034,
                    "velocity": 0.31496062992125984,
                    "duration": 0.06637450000000022
                },
                {
                    "name": "G#4",
                    "midi": 68,
                    "time": 15.133386000000034,
                    "velocity": 0.31496062992125984,
                    "duration": 0.06637450000000022
                },
                {
                    "name": "C5",
                    "midi": 72,
                    "time": 15.133386000000034,
                    "velocity": 0.3543307086614173,
                    "duration": 0.06637450000000022
                },
                {
                    "name": "C4",
                    "midi": 60,
                    "time": 15.266135000000034,
                    "velocity": 0.31496062992125984,
                    "duration": 0.06637450000000022
                },
                {
                    "name": "G#4",
                    "midi": 68,
                    "time": 15.266135000000034,
                    "velocity": 0.31496062992125984,
                    "duration": 0.06637450000000022
                },
                {
                    "name": "C5",
                    "midi": 72,
                    "time": 15.266135000000034,
                    "velocity": 0.3543307086614173,
                    "duration": 0.06637450000000022
                },
                {
                    "name": "B4",
                    "midi": 71,
                    "time": 15.398884000000034,
                    "velocity": 0.6141732283464567,
                    "duration": 0.2654980000000009
                },
                {
                    "name": "G#4",
                    "midi": 68,
                    "time": 15.398884000000034,
                    "velocity": 0.5511811023622047,
                    "duration": 0.2654980000000009
                },
                {
                    "name": "F4",
                    "midi": 65,
                    "time": 15.398884000000034,
                    "velocity": 0.5511811023622047,
                    "duration": 0.2654980000000009
                },
                {
                    "name": "B4",
                    "midi": 71,
                    "time": 15.664382000000035,
                    "velocity": 0.5826771653543307,
                    "duration": 0.06637450000000022
                },
                {
                    "name": "G#4",
                    "midi": 68,
                    "time": 15.664382000000035,
                    "velocity": 0.5196850393700787,
                    "duration": 0.06637450000000022
                },
                {
                    "name": "D4",
                    "midi": 62,
                    "time": 15.664382000000035,
                    "velocity": 0.5196850393700787,
                    "duration": 0.06637450000000022
                },
                {
                    "name": "B4",
                    "midi": 71,
                    "time": 15.797131000000036,
                    "velocity": 0.5826771653543307,
                    "duration": 0.06637450000000022
                },
                {
                    "name": "G#4",
                    "midi": 68,
                    "time": 15.797131000000036,
                    "velocity": 0.5196850393700787,
                    "duration": 0.06637450000000022
                },
                {
                    "name": "D4",
                    "midi": 62,
                    "time": 15.797131000000036,
                    "velocity": 0.5196850393700787,
                    "duration": 0.06637450000000022
                },
                {
                    "name": "D#4",
                    "midi": 63,
                    "time": 15.929880000000036,
                    "velocity": 0.5905511811023622,
                    "duration": 0.2654980000000009
                },
                {
                    "name": "G4",
                    "midi": 67,
                    "time": 15.929880000000036,
                    "velocity": 0.5905511811023622,
                    "duration": 0.2654980000000009
                },
                {
                    "name": "C5",
                    "midi": 72,
                    "time": 15.929880000000036,
                    "velocity": 0.6614173228346457,
                    "duration": 0.2654980000000009
                },
                {
                    "name": "C4",
                    "midi": 60,
                    "time": 16.195378000000037,
                    "velocity": 0.5511811023622047,
                    "duration": 0.06637449999999845
                },
                {
                    "name": "G4",
                    "midi": 67,
                    "time": 16.195378000000037,
                    "velocity": 0.5511811023622047,
                    "duration": 0.06637449999999845
                },
                {
                    "name": "C5",
                    "midi": 72,
                    "time": 16.195378000000037,
                    "velocity": 0.6141732283464567,
                    "duration": 0.06637449999999845
                },
                {
                    "name": "C4",
                    "midi": 60,
                    "time": 16.328127000000034,
                    "velocity": 0.5511811023622047,
                    "duration": 0.06637449999999845
                },
                {
                    "name": "G4",
                    "midi": 67,
                    "time": 16.328127000000034,
                    "velocity": 0.5511811023622047,
                    "duration": 0.06637449999999845
                },
                {
                    "name": "C5",
                    "midi": 72,
                    "time": 16.328127000000034,
                    "velocity": 0.6141732283464567,
                    "duration": 0.06637449999999845
                },
                {
                    "name": "D4",
                    "midi": 62,
                    "time": 16.46087600000003,
                    "velocity": 0.5826771653543307,
                    "duration": 0.2654980000000009
                },
                {
                    "name": "D5",
                    "midi": 74,
                    "time": 16.46087600000003,
                    "velocity": 0.6535433070866141,
                    "duration": 0.2654980000000009
                },
                {
                    "name": "G4",
                    "midi": 67,
                    "time": 16.46087600000003,
                    "velocity": 0.5826771653543307,
                    "duration": 0.2654980000000009
                },
                {
                    "name": "B4",
                    "midi": 71,
                    "time": 16.726374000000032,
                    "velocity": 0.6141732283464567,
                    "duration": 0.06637449999999845
                },
                {
                    "name": "G4",
                    "midi": 67,
                    "time": 16.726374000000032,
                    "velocity": 0.5511811023622047,
                    "duration": 0.06637449999999845
                },
                {
                    "name": "D4",
                    "midi": 62,
                    "time": 16.726374000000032,
                    "velocity": 0.5511811023622047,
                    "duration": 0.06637449999999845
                },
                {
                    "name": "B4",
                    "midi": 71,
                    "time": 16.85912300000003,
                    "velocity": 0.6141732283464567,
                    "duration": 0.06637449999999845
                },
                {
                    "name": "G4",
                    "midi": 67,
                    "time": 16.85912300000003,
                    "velocity": 0.5511811023622047,
                    "duration": 0.06637449999999845
                },
                {
                    "name": "D4",
                    "midi": 62,
                    "time": 16.85912300000003,
                    "velocity": 0.5511811023622047,
                    "duration": 0.06637449999999845
                },
                {
                    "name": "D#4",
                    "midi": 63,
                    "time": 16.991872000000026,
                    "velocity": 0.5826771653543307,
                    "duration": 0.2654980000000009
                },
                {
                    "name": "G4",
                    "midi": 67,
                    "time": 16.991872000000026,
                    "velocity": 0.5826771653543307,
                    "duration": 0.2654980000000009
                },
                {
                    "name": "D#5",
                    "midi": 75,
                    "time": 16.991872000000026,
                    "velocity": 0.6535433070866141,
                    "duration": 0.2654980000000009
                },
                {
                    "name": "D#4",
                    "midi": 63,
                    "time": 17.257370000000027,
                    "velocity": 0.5669291338582677,
                    "duration": 0.06637449999999845
                },
                {
                    "name": "G4",
                    "midi": 67,
                    "time": 17.257370000000027,
                    "velocity": 0.5669291338582677,
                    "duration": 0.06637449999999845
                },
                {
                    "name": "C5",
                    "midi": 72,
                    "time": 17.257370000000027,
                    "velocity": 0.6377952755905512,
                    "duration": 0.06637449999999845
                },
                {
                    "name": "D#4",
                    "midi": 63,
                    "time": 17.390119000000023,
                    "velocity": 0.5669291338582677,
                    "duration": 0.06637449999999845
                },
                {
                    "name": "G4",
                    "midi": 67,
                    "time": 17.390119000000023,
                    "velocity": 0.5669291338582677,
                    "duration": 0.06637449999999845
                },
                {
                    "name": "C5",
                    "midi": 72,
                    "time": 17.390119000000023,
                    "velocity": 0.6377952755905512,
                    "duration": 0.06637449999999845
                },
                {
                    "name": "F5",
                    "midi": 77,
                    "time": 17.52286800000002,
                    "velocity": 0.7086614173228346,
                    "duration": 0.2654980000000009
                },
                {
                    "name": "G4",
                    "midi": 67,
                    "time": 17.52286800000002,
                    "velocity": 0.6377952755905512,
                    "duration": 0.2654980000000009
                },
                {
                    "name": "G5",
                    "midi": 79,
                    "time": 17.78836600000002,
                    "velocity": 0.6850393700787402,
                    "duration": 0.06637449999999845
                },
                {
                    "name": "G4",
                    "midi": 67,
                    "time": 17.78836600000002,
                    "velocity": 0.6141732283464567,
                    "duration": 0.06637449999999845
                },
                {
                    "name": "G5",
                    "midi": 79,
                    "time": 17.921115000000018,
                    "velocity": 0.6850393700787402,
                    "duration": 0.06637449999999845
                },
                {
                    "name": "G4",
                    "midi": 67,
                    "time": 17.921115000000018,
                    "velocity": 0.6141732283464567,
                    "duration": 0.06637449999999845
                },
                {
                    "name": "F#5",
                    "midi": 78,
                    "time": 18.053864000000015,
                    "velocity": 0.7244094488188977,
                    "duration": 0.2654980000000009
                },
                {
                    "name": "G4",
                    "midi": 67,
                    "time": 18.053864000000015,
                    "velocity": 0.6456692913385826,
                    "duration": 0.2654980000000009
                },
                {
                    "name": "G5",
                    "midi": 79,
                    "time": 18.319362000000016,
                    "velocity": 0.7086614173228346,
                    "duration": 0.06637449999999845
                },
                {
                    "name": "G4",
                    "midi": 67,
                    "time": 18.319362000000016,
                    "velocity": 0.6377952755905512,
                    "duration": 0.06637449999999845
                },
                {
                    "name": "G5",
                    "midi": 79,
                    "time": 18.452111000000013,
                    "velocity": 0.7086614173228346,
                    "duration": 0.06637449999999845
                },
                {
                    "name": "G4",
                    "midi": 67,
                    "time": 18.452111000000013,
                    "velocity": 0.6377952755905512,
                    "duration": 0.06637449999999845
                },
                {
                    "name": "G5",
                    "midi": 79,
                    "time": 18.58486000000001,
                    "velocity": 0.7637795275590551,
                    "duration": 0.2599667916666668
                },
                {
                    "name": "G4",
                    "midi": 67,
                    "time": 18.58486000000001,
                    "velocity": 0.6850393700787402,
                    "duration": 0.2599667916666668
                },
                {
                    "name": "G#5",
                    "midi": 80,
                    "time": 18.85035800000001,
                    "velocity": 0.7637795275590551,
                    "duration": 0.13274900000000045
                },
                {
                    "name": "F5",
                    "midi": 77,
                    "time": 18.85035800000001,
                    "velocity": 0.6850393700787402,
                    "duration": 0.13274900000000045
                },
                {
                    "name": "G#4",
                    "midi": 68,
                    "time": 18.85035800000001,
                    "velocity": 0.6850393700787402,
                    "duration": 0.13274900000000045
                },
                {
                    "name": "G#5",
                    "midi": 80,
                    "time": 19.11585600000001,
                    "velocity": 0.7637795275590551,
                    "duration": 0.13274900000000045
                },
                {
                    "name": "F5",
                    "midi": 77,
                    "time": 19.11585600000001,
                    "velocity": 0.6850393700787402,
                    "duration": 0.13274900000000045
                },
                {
                    "name": "G#4",
                    "midi": 68,
                    "time": 19.11585600000001,
                    "velocity": 0.6850393700787402,
                    "duration": 0.13274900000000045
                },
                {
                    "name": "G#5",
                    "midi": 80,
                    "time": 19.381354000000012,
                    "velocity": 0.7637795275590551,
                    "duration": 0.13274900000000045
                },
                {
                    "name": "F5",
                    "midi": 77,
                    "time": 19.381354000000012,
                    "velocity": 0.6850393700787402,
                    "duration": 0.13274900000000045
                },
                {
                    "name": "G#4",
                    "midi": 68,
                    "time": 19.381354000000012,
                    "velocity": 0.6850393700787402,
                    "duration": 0.13274900000000045
                },
                {
                    "name": "G#5",
                    "midi": 80,
                    "time": 19.646852000000013,
                    "velocity": 0.7637795275590551,
                    "duration": 0.13274900000000045
                },
                {
                    "name": "F5",
                    "midi": 77,
                    "time": 19.646852000000013,
                    "velocity": 0.6850393700787402,
                    "duration": 0.13274900000000045
                },
                {
                    "name": "G#4",
                    "midi": 68,
                    "time": 19.646852000000013,
                    "velocity": 0.6850393700787402,
                    "duration": 0.13274900000000045
                },
                {
                    "name": "C#6",
                    "midi": 85,
                    "time": 19.912350000000014,
                    "velocity": 0.7637795275590551,
                    "duration": 0.13274900000000045
                },
                {
                    "name": "G#5",
                    "midi": 80,
                    "time": 19.912350000000014,
                    "velocity": 0.6850393700787402,
                    "duration": 0.13274900000000045
                },
                {
                    "name": "C#5",
                    "midi": 73,
                    "time": 19.912350000000014,
                    "velocity": 0.6850393700787402,
                    "duration": 0.13274900000000045
                },
                {
                    "name": "C#6",
                    "midi": 85,
                    "time": 20.177848000000015,
                    "velocity": 0.7086614173228346,
                    "duration": 0.2654980000000009
                },
                {
                    "name": "G#5",
                    "midi": 80,
                    "time": 20.177848000000015,
                    "velocity": 0.6377952755905512,
                    "duration": 0.2654980000000009
                },
                {
                    "name": "C#5",
                    "midi": 73,
                    "time": 20.177848000000015,
                    "velocity": 0.6377952755905512,
                    "duration": 0.2654980000000009
                },
                {
                    "name": "C#6",
                    "midi": 85,
                    "time": 20.443346000000016,
                    "velocity": 0.7480314960629921,
                    "duration": 0.06637449999999845
                },
                {
                    "name": "G#5",
                    "midi": 80,
                    "time": 20.443346000000016,
                    "velocity": 0.6692913385826772,
                    "duration": 0.06637449999999845
                },
                {
                    "name": "C#5",
                    "midi": 73,
                    "time": 20.443346000000016,
                    "velocity": 0.6692913385826772,
                    "duration": 0.06637449999999845
                },
                {
                    "name": "C#6",
                    "midi": 85,
                    "time": 20.576095000000013,
                    "velocity": 0.7637795275590551,
                    "duration": 0.06637449999999845
                },
                {
                    "name": "G#5",
                    "midi": 80,
                    "time": 20.576095000000013,
                    "velocity": 0.6850393700787402,
                    "duration": 0.06637449999999845
                },
                {
                    "name": "C#5",
                    "midi": 73,
                    "time": 20.576095000000013,
                    "velocity": 0.6850393700787402,
                    "duration": 0.06637449999999845
                },
                {
                    "name": "D#6",
                    "midi": 87,
                    "time": 20.70884400000001,
                    "velocity": 0.7795275590551181,
                    "duration": 0.2654980000000009
                },
                {
                    "name": "C6",
                    "midi": 84,
                    "time": 20.70884400000001,
                    "velocity": 0.7007874015748031,
                    "duration": 0.2654980000000009
                },
                {
                    "name": "D#5",
                    "midi": 75,
                    "time": 20.70884400000001,
                    "velocity": 0.7007874015748031,
                    "duration": 0.2654980000000009
                },
                {
                    "name": "D#6",
                    "midi": 87,
                    "time": 20.97434200000001,
                    "velocity": 0.7401574803149606,
                    "duration": 0.06637449999999845
                },
                {
                    "name": "C6",
                    "midi": 84,
                    "time": 20.97434200000001,
                    "velocity": 0.6614173228346457,
                    "duration": 0.06637449999999845
                },
                {
                    "name": "D#5",
                    "midi": 75,
                    "time": 20.97434200000001,
                    "velocity": 0.6614173228346457,
                    "duration": 0.06637449999999845
                },
                {
                    "name": "D#6",
                    "midi": 87,
                    "time": 21.107091000000008,
                    "velocity": 0.7165354330708661,
                    "duration": 0.06637449999999845
                },
                {
                    "name": "C6",
                    "midi": 84,
                    "time": 21.107091000000008,
                    "velocity": 0.6377952755905512,
                    "duration": 0.06637449999999845
                },
                {
                    "name": "D#5",
                    "midi": 75,
                    "time": 21.107091000000008,
                    "velocity": 0.6377952755905512,
                    "duration": 0.06637449999999845
                },
                {
                    "name": "C#6",
                    "midi": 85,
                    "time": 21.239840000000004,
                    "velocity": 0.7007874015748031,
                    "duration": 0.13274900000000045
                },
                {
                    "name": "C#5",
                    "midi": 73,
                    "time": 21.239840000000004,
                    "velocity": 0.6299212598425197,
                    "duration": 0.13274900000000045
                },
                {
                    "name": "B5",
                    "midi": 83,
                    "time": 21.505338000000005,
                    "velocity": 0.7244094488188977,
                    "duration": 0.13274900000000045
                },
                {
                    "name": "G#5",
                    "midi": 80,
                    "time": 21.505338000000005,
                    "velocity": 0.6456692913385826,
                    "duration": 0.13274900000000045
                },
                {
                    "name": "F5",
                    "midi": 77,
                    "time": 21.505338000000005,
                    "velocity": 0.6456692913385826,
                    "duration": 0.13274900000000045
                },
                {
                    "name": "B4",
                    "midi": 71,
                    "time": 21.505338000000005,
                    "velocity": 0.6456692913385826,
                    "duration": 0.13274900000000045
                },
                {
                    "name": "C6",
                    "midi": 84,
                    "time": 21.770836000000006,
                    "velocity": 0.7244094488188977,
                    "duration": 0.13274900000000045
                },
                {
                    "name": "G#5",
                    "midi": 80,
                    "time": 21.770836000000006,
                    "velocity": 0.6456692913385826,
                    "duration": 0.13274900000000045
                },
                {
                    "name": "F5",
                    "midi": 77,
                    "time": 21.770836000000006,
                    "velocity": 0.6456692913385826,
                    "duration": 0.13274900000000045
                },
                {
                    "name": "C5",
                    "midi": 72,
                    "time": 21.770836000000006,
                    "velocity": 0.6456692913385826,
                    "duration": 0.13274900000000045
                },
                {
                    "name": "C6",
                    "midi": 84,
                    "time": 22.036334000000007,
                    "velocity": 0.7244094488188977,
                    "duration": 0.13274900000000045
                },
                {
                    "name": "G5",
                    "midi": 79,
                    "time": 22.036334000000007,
                    "velocity": 0.6456692913385826,
                    "duration": 0.13274900000000045
                },
                {
                    "name": "E5",
                    "midi": 76,
                    "time": 22.036334000000007,
                    "velocity": 0.6456692913385826,
                    "duration": 0.13274900000000045
                },
                {
                    "name": "C5",
                    "midi": 72,
                    "time": 22.036334000000007,
                    "velocity": 0.6456692913385826,
                    "duration": 0.13274900000000045
                },
                {
                    "name": "A#4",
                    "midi": 70,
                    "time": 22.301832000000008,
                    "velocity": 0.33858267716535434,
                    "duration": 0.2654980000000009
                },
                {
                    "name": "C5",
                    "midi": 72,
                    "time": 22.301832000000008,
                    "velocity": 0.3779527559055118,
                    "duration": 0.2654980000000009
                },
                {
                    "name": "G4",
                    "midi": 67,
                    "time": 22.56733000000001,
                    "velocity": 0.31496062992125984,
                    "duration": 0.06637449999999845
                },
                {
                    "name": "C5",
                    "midi": 72,
                    "time": 22.56733000000001,
                    "velocity": 0.3543307086614173,
                    "duration": 0.06637449999999845
                },
                {
                    "name": "G4",
                    "midi": 67,
                    "time": 22.700079000000006,
                    "velocity": 0.31496062992125984,
                    "duration": 0.06637449999999845
                },
                {
                    "name": "C5",
                    "midi": 72,
                    "time": 22.700079000000006,
                    "velocity": 0.3543307086614173,
                    "duration": 0.06637449999999845
                },
                {
                    "name": "G#4",
                    "midi": 68,
                    "time": 22.832828000000003,
                    "velocity": 0.33858267716535434,
                    "duration": 0.2654980000000009
                },
                {
                    "name": "C5",
                    "midi": 72,
                    "time": 22.832828000000003,
                    "velocity": 0.3779527559055118,
                    "duration": 0.2654980000000009
                },
                {
                    "name": "F4",
                    "midi": 65,
                    "time": 23.098326000000004,
                    "velocity": 0.31496062992125984,
                    "duration": 0.06637449999999845
                },
                {
                    "name": "C5",
                    "midi": 72,
                    "time": 23.098326000000004,
                    "velocity": 0.3543307086614173,
                    "duration": 0.06637449999999845
                },
                {
                    "name": "F4",
                    "midi": 65,
                    "time": 23.231075,
                    "velocity": 0.31496062992125984,
                    "duration": 0.06637449999999845
                },
                {
                    "name": "C5",
                    "midi": 72,
                    "time": 23.231075,
                    "velocity": 0.3543307086614173,
                    "duration": 0.06637449999999845
                },
                {
                    "name": "F#4",
                    "midi": 66,
                    "time": 23.363823999999997,
                    "velocity": 0.33858267716535434,
                    "duration": 0.2654980000000009
                },
                {
                    "name": "G#4",
                    "midi": 68,
                    "time": 23.363823999999997,
                    "velocity": 0.3779527559055118,
                    "duration": 0.2654980000000009
                },
                {
                    "name": "C4",
                    "midi": 60,
                    "time": 23.629322,
                    "velocity": 0.31496062992125984,
                    "duration": 0.06637449999999845
                },
                {
                    "name": "G#4",
                    "midi": 68,
                    "time": 23.629322,
                    "velocity": 0.3543307086614173,
                    "duration": 0.06637449999999845
                },
                {
                    "name": "C4",
                    "midi": 60,
                    "time": 23.762070999999995,
                    "velocity": 0.31496062992125984,
                    "duration": 0.06637449999999845
                },
                {
                    "name": "G#4",
                    "midi": 68,
                    "time": 23.762070999999995,
                    "velocity": 0.3543307086614173,
                    "duration": 0.06637449999999845
                },
                {
                    "name": "F4",
                    "midi": 65,
                    "time": 23.894819999999992,
                    "velocity": 0.6299212598425197,
                    "duration": 0.06637449999999845
                },
                {
                    "name": "G#4",
                    "midi": 68,
                    "time": 23.894819999999992,
                    "velocity": 0.6299212598425197,
                    "duration": 0.06637449999999845
                },
                {
                    "name": "F5",
                    "midi": 77,
                    "time": 23.894819999999992,
                    "velocity": 0.7007874015748031,
                    "duration": 0.06637449999999845
                },
                {
                    "name": "F4",
                    "midi": 65,
                    "time": 24.155893033333324,
                    "velocity": 0.6299212598425197,
                    "duration": 0.06637449999999845
                },
                {
                    "name": "G#4",
                    "midi": 68,
                    "time": 24.155893033333324,
                    "velocity": 0.6299212598425197,
                    "duration": 0.06637449999999845
                },
                {
                    "name": "C#5",
                    "midi": 73,
                    "time": 24.155893033333324,
                    "velocity": 0.7007874015748031,
                    "duration": 0.06637449999999845
                },
                {
                    "name": "F#4",
                    "midi": 66,
                    "time": 24.42581599999999,
                    "velocity": 0.33858267716535434,
                    "duration": 0.2654980000000009
                },
                {
                    "name": "G#4",
                    "midi": 68,
                    "time": 24.42581599999999,
                    "velocity": 0.3779527559055118,
                    "duration": 0.2654980000000009
                },
                {
                    "name": "C4",
                    "midi": 60,
                    "time": 24.69131399999999,
                    "velocity": 0.31496062992125984,
                    "duration": 0.06637449999999845
                },
                {
                    "name": "G#4",
                    "midi": 68,
                    "time": 24.69131399999999,
                    "velocity": 0.3543307086614173,
                    "duration": 0.06637449999999845
                },
                {
                    "name": "C4",
                    "midi": 60,
                    "time": 24.824062999999988,
                    "velocity": 0.31496062992125984,
                    "duration": 0.06637449999999845
                },
                {
                    "name": "G#4",
                    "midi": 68,
                    "time": 24.824062999999988,
                    "velocity": 0.3543307086614173,
                    "duration": 0.06637449999999845
                },
                {
                    "name": "F4",
                    "midi": 65,
                    "time": 24.956811999999985,
                    "velocity": 0.6299212598425197,
                    "duration": 0.06582137916666753
                },
                {
                    "name": "G#4",
                    "midi": 68,
                    "time": 24.956811999999985,
                    "velocity": 0.6299212598425197,
                    "duration": 0.06582137916666753
                },
                {
                    "name": "F5",
                    "midi": 77,
                    "time": 24.956811999999985,
                    "velocity": 0.7007874015748031,
                    "duration": 0.06582137916666753
                },
                {
                    "name": "F4",
                    "midi": 65,
                    "time": 25.21788503333332,
                    "velocity": 0.6299212598425197,
                    "duration": 0.06582137916666753
                },
                {
                    "name": "G#4",
                    "midi": 68,
                    "time": 25.21788503333332,
                    "velocity": 0.6299212598425197,
                    "duration": 0.06582137916666753
                },
                {
                    "name": "C#5",
                    "midi": 73,
                    "time": 25.21788503333332,
                    "velocity": 0.7007874015748031,
                    "duration": 0.06582137916666753
                },
                {
                    "name": "D#5",
                    "midi": 75,
                    "time": 25.487807999999987,
                    "velocity": 0.33858267716535434,
                    "duration": 0.2654980000000009
                },
                {
                    "name": "F5",
                    "midi": 77,
                    "time": 25.487807999999987,
                    "velocity": 0.3779527559055118,
                    "duration": 0.2654980000000009
                },
                {
                    "name": "C5",
                    "midi": 72,
                    "time": 25.753305999999988,
                    "velocity": 0.31496062992125984,
                    "duration": 0.06637449999999845
                },
                {
                    "name": "F5",
                    "midi": 77,
                    "time": 25.753305999999988,
                    "velocity": 0.3543307086614173,
                    "duration": 0.06637449999999845
                },
                {
                    "name": "C5",
                    "midi": 72,
                    "time": 25.886054999999985,
                    "velocity": 0.31496062992125984,
                    "duration": 0.06637449999999845
                },
                {
                    "name": "F5",
                    "midi": 77,
                    "time": 25.886054999999985,
                    "velocity": 0.3543307086614173,
                    "duration": 0.06637449999999845
                },
                {
                    "name": "C#5",
                    "midi": 73,
                    "time": 26.01880399999998,
                    "velocity": 0.33858267716535434,
                    "duration": 0.2654980000000009
                },
                {
                    "name": "F5",
                    "midi": 77,
                    "time": 26.01880399999998,
                    "velocity": 0.3779527559055118,
                    "duration": 0.2654980000000009
                },
                {
                    "name": "A#4",
                    "midi": 70,
                    "time": 26.284301999999983,
                    "velocity": 0.31496062992125984,
                    "duration": 0.06637449999999845
                },
                {
                    "name": "F5",
                    "midi": 77,
                    "time": 26.284301999999983,
                    "velocity": 0.3543307086614173,
                    "duration": 0.06637449999999845
                },
                {
                    "name": "A#4",
                    "midi": 70,
                    "time": 26.41705099999998,
                    "velocity": 0.31496062992125984,
                    "duration": 0.06637449999999845
                },
                {
                    "name": "F5",
                    "midi": 77,
                    "time": 26.41705099999998,
                    "velocity": 0.3543307086614173,
                    "duration": 0.06637449999999845
                },
                {
                    "name": "B4",
                    "midi": 71,
                    "time": 26.549799999999976,
                    "velocity": 0.33858267716535434,
                    "duration": 0.2654980000000009
                },
                {
                    "name": "C#5",
                    "midi": 73,
                    "time": 26.549799999999976,
                    "velocity": 0.3779527559055118,
                    "duration": 0.2654980000000009
                },
                {
                    "name": "F4",
                    "midi": 65,
                    "time": 26.815297999999977,
                    "velocity": 0.31496062992125984,
                    "duration": 0.06637449999999845
                },
                {
                    "name": "C#5",
                    "midi": 73,
                    "time": 26.815297999999977,
                    "velocity": 0.3543307086614173,
                    "duration": 0.06637449999999845
                },
                {
                    "name": "F4",
                    "midi": 65,
                    "time": 26.948046999999974,
                    "velocity": 0.31496062992125984,
                    "duration": 0.06637449999999845
                },
                {
                    "name": "C#5",
                    "midi": 73,
                    "time": 26.948046999999974,
                    "velocity": 0.3543307086614173,
                    "duration": 0.06637449999999845
                },
                {
                    "name": "A#4",
                    "midi": 70,
                    "time": 27.08079599999997,
                    "velocity": 0.6692913385826772,
                    "duration": 0.06582137916666753
                },
                {
                    "name": "C#5",
                    "midi": 73,
                    "time": 27.08079599999997,
                    "velocity": 0.6692913385826772,
                    "duration": 0.06582137916666753
                },
                {
                    "name": "A#5",
                    "midi": 82,
                    "time": 27.08079599999997,
                    "velocity": 0.7480314960629921,
                    "duration": 0.06582137916666753
                },
                {
                    "name": "A#4",
                    "midi": 70,
                    "time": 27.341869033333307,
                    "velocity": 0.6614173228346457,
                    "duration": 0.06582137916666753
                },
                {
                    "name": "C#5",
                    "midi": 73,
                    "time": 27.341869033333307,
                    "velocity": 0.6614173228346457,
                    "duration": 0.06582137916666753
                },
                {
                    "name": "F#5",
                    "midi": 78,
                    "time": 27.341869033333307,
                    "velocity": 0.7401574803149606,
                    "duration": 0.06582137916666753
                },
                {
                    "name": "B4",
                    "midi": 71,
                    "time": 27.611791999999973,
                    "velocity": 0.33858267716535434,
                    "duration": 0.2654980000000009
                },
                {
                    "name": "C#5",
                    "midi": 73,
                    "time": 27.611791999999973,
                    "velocity": 0.3779527559055118,
                    "duration": 0.2654980000000009
                },
                {
                    "name": "F4",
                    "midi": 65,
                    "time": 27.877289999999974,
                    "velocity": 0.31496062992125984,
                    "duration": 0.06637449999999845
                },
                {
                    "name": "C#5",
                    "midi": 73,
                    "time": 27.877289999999974,
                    "velocity": 0.3543307086614173,
                    "duration": 0.06637449999999845
                },
                {
                    "name": "F4",
                    "midi": 65,
                    "time": 28.01003899999997,
                    "velocity": 0.31496062992125984,
                    "duration": 0.06637449999999845
                },
                {
                    "name": "C#5",
                    "midi": 73,
                    "time": 28.01003899999997,
                    "velocity": 0.3543307086614173,
                    "duration": 0.06637449999999845
                },
                {
                    "name": "A#4",
                    "midi": 70,
                    "time": 28.142787999999967,
                    "velocity": 0.6692913385826772,
                    "duration": 0.06582137916666753
                },
                {
                    "name": "C#5",
                    "midi": 73,
                    "time": 28.142787999999967,
                    "velocity": 0.6692913385826772,
                    "duration": 0.06582137916666753
                },
                {
                    "name": "A#5",
                    "midi": 82,
                    "time": 28.142787999999967,
                    "velocity": 0.7480314960629921,
                    "duration": 0.06582137916666753
                },
                {
                    "name": "A#4",
                    "midi": 70,
                    "time": 28.403861033333303,
                    "velocity": 0.6692913385826772,
                    "duration": 0.06582137916666753
                },
                {
                    "name": "C#5",
                    "midi": 73,
                    "time": 28.403861033333303,
                    "velocity": 0.6692913385826772,
                    "duration": 0.06582137916666753
                },
                {
                    "name": "F#5",
                    "midi": 78,
                    "time": 28.403861033333303,
                    "velocity": 0.7480314960629921,
                    "duration": 0.06582137916666753
                },
                {
                    "name": "A#5",
                    "midi": 82,
                    "time": 28.67378399999997,
                    "velocity": 0.36220472440944884,
                    "duration": 0.06637449999999845
                },
                {
                    "name": "A#4",
                    "midi": 70,
                    "time": 28.806532999999966,
                    "velocity": 0.31496062992125984,
                    "duration": 0.06637449999999845
                },
                {
                    "name": "F#5",
                    "midi": 78,
                    "time": 28.939281999999963,
                    "velocity": 0.31496062992125984,
                    "duration": 0.06637449999999845
                },
                {
                    "name": "C#5",
                    "midi": 73,
                    "time": 28.939281999999963,
                    "velocity": 0.28346456692913385,
                    "duration": 0.06637449999999845
                },
                {
                    "name": "A#4",
                    "midi": 70,
                    "time": 29.07203099999996,
                    "velocity": 0.31496062992125984,
                    "duration": 0.06637449999999845
                },
                {
                    "name": "F#5",
                    "midi": 78,
                    "time": 29.204779999999957,
                    "velocity": 0.3464566929133858,
                    "duration": 0.06637449999999845
                },
                {
                    "name": "F#4",
                    "midi": 66,
                    "time": 29.337528999999954,
                    "velocity": 0.30708661417322836,
                    "duration": 0.06637449999999845
                },
                {
                    "name": "B4",
                    "midi": 71,
                    "time": 29.47027799999995,
                    "velocity": 0.2677165354330709,
                    "duration": 0.06637449999999845
                },
                {
                    "name": "D5",
                    "midi": 74,
                    "time": 29.47027799999995,
                    "velocity": 0.2992125984251969,
                    "duration": 0.06637449999999845
                },
                {
                    "name": "F#4",
                    "midi": 66,
                    "time": 29.603026999999948,
                    "velocity": 0.2992125984251969,
                    "duration": 0.06637449999999845
                },
                {
                    "name": "E5",
                    "midi": 76,
                    "time": 29.735775999999944,
                    "velocity": 0.3228346456692913,
                    "duration": 0.06637449999999845
                },
                {
                    "name": "G4",
                    "midi": 67,
                    "time": 29.86852499999994,
                    "velocity": 0.28346456692913385,
                    "duration": 0.06637449999999845
                },
                {
                    "name": "A#4",
                    "midi": 70,
                    "time": 30.00127399999994,
                    "velocity": 0.25196850393700787,
                    "duration": 0.06637449999999845
                },
                {
                    "name": "C#5",
                    "midi": 73,
                    "time": 30.00127399999994,
                    "velocity": 0.28346456692913385,
                    "duration": 0.06637449999999845
                },
                {
                    "name": "G4",
                    "midi": 67,
                    "time": 30.134022999999935,
                    "velocity": 0.28346456692913385,
                    "duration": 0.06637449999999845
                },
                {
                    "name": "C#5",
                    "midi": 73,
                    "time": 30.266771999999932,
                    "velocity": 0.2992125984251969,
                    "duration": 0.06637449999999845
                },
                {
                    "name": "B4",
                    "midi": 71,
                    "time": 30.266771999999932,
                    "velocity": 0.2677165354330709,
                    "duration": 0.06637449999999845
                },
                {
                    "name": "F#4",
                    "midi": 66,
                    "time": 30.39952099999993,
                    "velocity": 0.25196850393700787,
                    "duration": 0.06637449999999845
                },
                {
                    "name": "B4",
                    "midi": 71,
                    "time": 30.532269999999926,
                    "velocity": 0.2204724409448819,
                    "duration": 0.06637449999999845
                },
                {
                    "name": "D5",
                    "midi": 74,
                    "time": 30.532269999999926,
                    "velocity": 0.25196850393700787,
                    "duration": 0.06637449999999845
                },
                {
                    "name": "F#4",
                    "midi": 66,
                    "time": 30.665018999999923,
                    "velocity": 0.25196850393700787,
                    "duration": 0.06637449999999845
                },
                {
                    "name": "G5",
                    "midi": 79,
                    "time": 30.79776799999992,
                    "velocity": 0.31496062992125984,
                    "duration": 0.06637449999999845
                },
                {
                    "name": "A#4",
                    "midi": 70,
                    "time": 30.930516999999917,
                    "velocity": 0.28346456692913385,
                    "duration": 0.06637449999999845
                },
                {
                    "name": "C#5",
                    "midi": 73,
                    "time": 31.063265999999913,
                    "velocity": 0.25196850393700787,
                    "duration": 0.06637449999999845
                },
                {
                    "name": "E5",
                    "midi": 76,
                    "time": 31.063265999999913,
                    "velocity": 0.28346456692913385,
                    "duration": 0.06637449999999845
                },
                {
                    "name": "A#4",
                    "midi": 70,
                    "time": 31.19601499999991,
                    "velocity": 0.28346456692913385,
                    "duration": 0.06637449999999845
                },
                {
                    "name": "C#5",
                    "midi": 73,
                    "time": 31.328763999999907,
                    "velocity": 0.2755905511811024,
                    "duration": 0.06637449999999845
                },
                {
                    "name": "F#5",
                    "midi": 78,
                    "time": 31.328763999999907,
                    "velocity": 0.30708661417322836,
                    "duration": 0.06637449999999845
                },
                {
                    "name": "A#4",
                    "midi": 70,
                    "time": 31.461512999999904,
                    "velocity": 0.25196850393700787,
                    "duration": 0.06637449999999845
                },
                {
                    "name": "D5",
                    "midi": 74,
                    "time": 31.5942619999999,
                    "velocity": 0.2204724409448819,
                    "duration": 0.06637449999999845
                },
                {
                    "name": "F#5",
                    "midi": 78,
                    "time": 31.5942619999999,
                    "velocity": 0.25196850393700787,
                    "duration": 0.06637449999999845
                },
                {
                    "name": "B4",
                    "midi": 71,
                    "time": 31.727010999999898,
                    "velocity": 0.25196850393700787,
                    "duration": 0.06637449999999845
                },
                {
                    "name": "B5",
                    "midi": 83,
                    "time": 31.859759999999895,
                    "velocity": 0.36220472440944884,
                    "duration": 0.06637449999999845
                },
                {
                    "name": "B4",
                    "midi": 71,
                    "time": 31.99250899999989,
                    "velocity": 0.31496062992125984,
                    "duration": 0.066374500000002
                },
                {
                    "name": "D5",
                    "midi": 74,
                    "time": 32.125257999999896,
                    "velocity": 0.28346456692913385,
                    "duration": 0.066374500000002
                },
                {
                    "name": "G5",
                    "midi": 79,
                    "time": 32.125257999999896,
                    "velocity": 0.31496062992125984,
                    "duration": 0.066374500000002
                },
                {
                    "name": "B4",
                    "midi": 71,
                    "time": 32.2580069999999,
                    "velocity": 0.31496062992125984,
                    "duration": 0.066374500000002
                },
                {
                    "name": "G5",
                    "midi": 79,
                    "time": 32.390755999999904,
                    "velocity": 0.3464566929133858,
                    "duration": 0.066374500000002
                },
                {
                    "name": "G4",
                    "midi": 67,
                    "time": 32.52350499999991,
                    "velocity": 0.25984251968503935,
                    "duration": 0.066374500000002
                },
                {
                    "name": "C5",
                    "midi": 72,
                    "time": 32.65625399999991,
                    "velocity": 0.2677165354330709,
                    "duration": 0.066374500000002
                },
                {
                    "name": "D#5",
                    "midi": 75,
                    "time": 32.65625399999991,
                    "velocity": 0.2992125984251969,
                    "duration": 0.066374500000002
                },
                {
                    "name": "G4",
                    "midi": 67,
                    "time": 32.789002999999916,
                    "velocity": 0.2992125984251969,
                    "duration": 0.066374500000002
                },
                {
                    "name": "F5",
                    "midi": 77,
                    "time": 32.92175199999992,
                    "velocity": 0.3228346456692913,
                    "duration": 0.066374500000002
                },
                {
                    "name": "G#4",
                    "midi": 68,
                    "time": 33.054500999999924,
                    "velocity": 0.29133858267716534,
                    "duration": 0.066374500000002
                },
                {
                    "name": "B4",
                    "midi": 71,
                    "time": 33.18724999999993,
                    "velocity": 0.25984251968503935,
                    "duration": 0.066374500000002
                },
                {
                    "name": "D5",
                    "midi": 74,
                    "time": 33.18724999999993,
                    "velocity": 0.29133858267716534,
                    "duration": 0.066374500000002
                },
                {
                    "name": "G#4",
                    "midi": 68,
                    "time": 33.31999899999993,
                    "velocity": 0.29133858267716534,
                    "duration": 0.066374500000002
                },
                {
                    "name": "D5",
                    "midi": 74,
                    "time": 33.452747999999936,
                    "velocity": 0.31496062992125984,
                    "duration": 0.066374500000002
                },
                {
                    "name": "C5",
                    "midi": 72,
                    "time": 33.452747999999936,
                    "velocity": 0.28346456692913385,
                    "duration": 0.066374500000002
                },
                {
                    "name": "G4",
                    "midi": 67,
                    "time": 33.58549699999994,
                    "velocity": 0.25984251968503935,
                    "duration": 0.066374500000002
                },
                {
                    "name": "C5",
                    "midi": 72,
                    "time": 33.718245999999944,
                    "velocity": 0.2283464566929134,
                    "duration": 0.066374500000002
                },
                {
                    "name": "D#5",
                    "midi": 75,
                    "time": 33.718245999999944,
                    "velocity": 0.25984251968503935,
                    "duration": 0.066374500000002
                },
                {
                    "name": "G4",
                    "midi": 67,
                    "time": 33.85099499999995,
                    "velocity": 0.25984251968503935,
                    "duration": 0.066374500000002
                },
                {
                    "name": "G#5",
                    "midi": 80,
                    "time": 33.98374399999995,
                    "velocity": 0.3464566929133858,
                    "duration": 0.066374500000002
                },
                {
                    "name": "B4",
                    "midi": 71,
                    "time": 34.116492999999956,
                    "velocity": 0.29133858267716534,
                    "duration": 0.066374500000002
                },
                {
                    "name": "D5",
                    "midi": 74,
                    "time": 34.24924199999996,
                    "velocity": 0.25984251968503935,
                    "duration": 0.066374500000002
                },
                {
                    "name": "F5",
                    "midi": 77,
                    "time": 34.24924199999996,
                    "velocity": 0.29133858267716534,
                    "duration": 0.066374500000002
                },
                {
                    "name": "B4",
                    "midi": 71,
                    "time": 34.381990999999964,
                    "velocity": 0.2755905511811024,
                    "duration": 0.066374500000002
                },
                {
                    "name": "D5",
                    "midi": 74,
                    "time": 34.51473999999997,
                    "velocity": 0.28346456692913385,
                    "duration": 0.066374500000002
                },
                {
                    "name": "G5",
                    "midi": 79,
                    "time": 34.51473999999997,
                    "velocity": 0.31496062992125984,
                    "duration": 0.066374500000002
                },
                {
                    "name": "B4",
                    "midi": 71,
                    "time": 34.64748899999997,
                    "velocity": 0.28346456692913385,
                    "duration": 0.066374500000002
                },
                {
                    "name": "D#5",
                    "midi": 75,
                    "time": 34.780237999999976,
                    "velocity": 0.25196850393700787,
                    "duration": 0.066374500000002
                },
                {
                    "name": "G5",
                    "midi": 79,
                    "time": 34.780237999999976,
                    "velocity": 0.28346456692913385,
                    "duration": 0.066374500000002
                },
                {
                    "name": "C5",
                    "midi": 72,
                    "time": 34.91298699999998,
                    "velocity": 0.28346456692913385,
                    "duration": 0.066374500000002
                },
                {
                    "name": "A#4",
                    "midi": 70,
                    "time": 35.045735999999984,
                    "velocity": 0.3543307086614173,
                    "duration": 0.066374500000002
                },
                {
                    "name": "D#5",
                    "midi": 75,
                    "time": 35.17848499999999,
                    "velocity": 0.3228346456692913,
                    "duration": 0.066374500000002
                },
                {
                    "name": "D5",
                    "midi": 74,
                    "time": 35.31123399999999,
                    "velocity": 0.3228346456692913,
                    "duration": 0.066374500000002
                },
                {
                    "name": "D#5",
                    "midi": 75,
                    "time": 35.443982999999996,
                    "velocity": 0.3228346456692913,
                    "duration": 0.066374500000002
                },
                {
                    "name": "D#5",
                    "midi": 75,
                    "time": 35.576732,
                    "velocity": 0.3779527559055118,
                    "duration": 0.066374500000002
                },
                {
                    "name": "G#5",
                    "midi": 80,
                    "time": 35.709481000000004,
                    "velocity": 0.3543307086614173,
                    "duration": 0.066374500000002
                },
                {
                    "name": "G5",
                    "midi": 79,
                    "time": 35.84223000000001,
                    "velocity": 0.3543307086614173,
                    "duration": 0.066374500000002
                },
                {
                    "name": "G#5",
                    "midi": 80,
                    "time": 35.97497900000001,
                    "velocity": 0.3543307086614173,
                    "duration": 0.066374500000002
                },
                {
                    "name": "D#6",
                    "midi": 87,
                    "time": 36.107728000000016,
                    "velocity": 0.4251968503937008,
                    "duration": 0.066374500000002
                },
                {
                    "name": "D#5",
                    "midi": 75,
                    "time": 36.24047700000002,
                    "velocity": 0.3543307086614173,
                    "duration": 0.066374500000002
                },
                {
                    "name": "G5",
                    "midi": 79,
                    "time": 36.373226000000024,
                    "velocity": 0.3543307086614173,
                    "duration": 0.066374500000002
                },
                {
                    "name": "D#5",
                    "midi": 75,
                    "time": 36.50597500000003,
                    "velocity": 0.3543307086614173,
                    "duration": 0.066374500000002
                },
                {
                    "name": "D#5",
                    "midi": 75,
                    "time": 36.63872400000003,
                    "velocity": 0.3937007874015748,
                    "duration": 0.066374500000002
                },
                {
                    "name": "G#5",
                    "midi": 80,
                    "time": 36.771473000000036,
                    "velocity": 0.3228346456692913,
                    "duration": 0.066374500000002
                },
                {
                    "name": "G5",
                    "midi": 79,
                    "time": 36.90422200000004,
                    "velocity": 0.3228346456692913,
                    "duration": 0.066374500000002
                },
                {
                    "name": "G#5",
                    "midi": 80,
                    "time": 37.036971000000044,
                    "velocity": 0.3228346456692913,
                    "duration": 0.066374500000002
                },
                {
                    "name": "F#5",
                    "midi": 78,
                    "time": 37.16972000000005,
                    "velocity": 0.3779527559055118,
                    "duration": 0.066374500000002
                },
                {
                    "name": "F#4",
                    "midi": 66,
                    "time": 37.30246900000005,
                    "velocity": 0.33070866141732286,
                    "duration": 0.066374500000002
                },
                {
                    "name": "A#4",
                    "midi": 70,
                    "time": 37.435218000000056,
                    "velocity": 0.33070866141732286,
                    "duration": 0.066374500000002
                },
                {
                    "name": "F#4",
                    "midi": 66,
                    "time": 37.56796700000006,
                    "velocity": 0.33070866141732286,
                    "duration": 0.066374500000002
                },
                {
                    "name": "F#4",
                    "midi": 66,
                    "time": 37.700716000000064,
                    "velocity": 0.3700787401574803,
                    "duration": 0.066374500000002
                },
                {
                    "name": "B4",
                    "midi": 71,
                    "time": 37.83346500000007,
                    "velocity": 0.33858267716535434,
                    "duration": 0.066374500000002
                },
                {
                    "name": "A#4",
                    "midi": 70,
                    "time": 37.96621400000007,
                    "velocity": 0.33858267716535434,
                    "duration": 0.066374500000002
                },
                {
                    "name": "B4",
                    "midi": 71,
                    "time": 38.098963000000076,
                    "velocity": 0.3464566929133858,
                    "duration": 0.066374500000002
                },
                {
                    "name": "B4",
                    "midi": 71,
                    "time": 38.23171200000008,
                    "velocity": 0.4015748031496063,
                    "duration": 0.066374500000002
                },
                {
                    "name": "E5",
                    "midi": 76,
                    "time": 38.364461000000084,
                    "velocity": 0.3700787401574803,
                    "duration": 0.066374500000002
                },
                {
                    "name": "D#5",
                    "midi": 75,
                    "time": 38.49721000000009,
                    "velocity": 0.3700787401574803,
                    "duration": 0.066374500000002
                },
                {
                    "name": "E5",
                    "midi": 76,
                    "time": 38.62995900000009,
                    "velocity": 0.3779527559055118,
                    "duration": 0.066374500000002
                },
                {
                    "name": "E5",
                    "midi": 76,
                    "time": 38.762708000000096,
                    "velocity": 0.4645669291338583,
                    "duration": 0.066374500000002
                },
                {
                    "name": "A5",
                    "midi": 81,
                    "time": 38.8954570000001,
                    "velocity": 0.4251968503937008,
                    "duration": 0.066374500000002
                },
                {
                    "name": "G#5",
                    "midi": 80,
                    "time": 39.028206000000104,
                    "velocity": 0.4251968503937008,
                    "duration": 0.066374500000002
                },
                {
                    "name": "A5",
                    "midi": 81,
                    "time": 39.16095500000011,
                    "velocity": 0.4251968503937008,
                    "duration": 0.066374500000002
                },
                {
                    "name": "E6",
                    "midi": 88,
                    "time": 39.29370400000011,
                    "velocity": 0.5590551181102362,
                    "duration": 0.066374500000002
                },
                {
                    "name": "E5",
                    "midi": 76,
                    "time": 39.426453000000116,
                    "velocity": 0.47244094488188976,
                    "duration": 0.066374500000002
                },
                {
                    "name": "G#5",
                    "midi": 80,
                    "time": 39.55920200000012,
                    "velocity": 0.48031496062992124,
                    "duration": 0.066374500000002
                },
                {
                    "name": "E5",
                    "midi": 76,
                    "time": 39.691951000000124,
                    "velocity": 0.48031496062992124,
                    "duration": 0.066374500000002
                },
                {
                    "name": "E5",
                    "midi": 76,
                    "time": 39.82470000000013,
                    "velocity": 0.5118110236220472,
                    "duration": 0.066374500000002
                },
                {
                    "name": "A5",
                    "midi": 81,
                    "time": 39.95744900000013,
                    "velocity": 0.47244094488188976,
                    "duration": 0.066374500000002
                },
                {
                    "name": "G#5",
                    "midi": 80,
                    "time": 40.090198000000136,
                    "velocity": 0.47244094488188976,
                    "duration": 0.066374500000002
                },
                {
                    "name": "A5",
                    "midi": 81,
                    "time": 40.22294700000014,
                    "velocity": 0.47244094488188976,
                    "duration": 0.066374500000002
                },
                {
                    "name": "G5",
                    "midi": 79,
                    "time": 40.355696000000144,
                    "velocity": 0.5433070866141733,
                    "duration": 0.066374500000002
                },
                {
                    "name": "G4",
                    "midi": 67,
                    "time": 40.48844500000015,
                    "velocity": 0.4881889763779528,
                    "duration": 0.066374500000002
                },
                {
                    "name": "B4",
                    "midi": 71,
                    "time": 40.62119400000015,
                    "velocity": 0.4881889763779528,
                    "duration": 0.066374500000002
                },
                {
                    "name": "G4",
                    "midi": 67,
                    "time": 40.753943000000156,
                    "velocity": 0.4881889763779528,
                    "duration": 0.066374500000002
                },
                {
                    "name": "G4",
                    "midi": 67,
                    "time": 40.88669200000016,
                    "velocity": 0.5275590551181102,
                    "duration": 0.066374500000002
                },
                {
                    "name": "C5",
                    "midi": 72,
                    "time": 41.019441000000164,
                    "velocity": 0.4566929133858268,
                    "duration": 0.066374500000002
                },
                {
                    "name": "B4",
                    "midi": 71,
                    "time": 41.15219000000017,
                    "velocity": 0.4566929133858268,
                    "duration": 0.066374500000002
                },
                {
                    "name": "C5",
                    "midi": 72,
                    "time": 41.28493900000017,
                    "velocity": 0.4566929133858268,
                    "duration": 0.06360889583333318
                },
                {
                    "name": "C#5",
                    "midi": 73,
                    "time": 41.41768800000017,
                    "velocity": 0.6377952755905512,
                    "duration": 0.2654980000000009
                },
                {
                    "name": "C5",
                    "midi": 72,
                    "time": 41.68318600000017,
                    "velocity": 0.5433070866141733,
                    "duration": 0.09956174999999945
                },
                {
                    "name": "C#5",
                    "midi": 73,
                    "time": 41.68318600000017,
                    "velocity": 0.6062992125984252,
                    "duration": 0.09956174999999945
                },
                {
                    "name": "A#4",
                    "midi": 70,
                    "time": 41.81593500000017,
                    "velocity": 0.5433070866141733,
                    "duration": 0.09956174999999945
                },
                {
                    "name": "C#5",
                    "midi": 73,
                    "time": 41.81593500000017,
                    "velocity": 0.6062992125984252,
                    "duration": 0.09956174999999945
                },
                {
                    "name": "A#4",
                    "midi": 70,
                    "time": 41.94868400000016,
                    "velocity": 0.5669291338582677,
                    "duration": 0.2654980000000009
                },
                {
                    "name": "C#5",
                    "midi": 73,
                    "time": 41.94868400000016,
                    "velocity": 0.6377952755905512,
                    "duration": 0.2654980000000009
                },
                {
                    "name": "G#4",
                    "midi": 68,
                    "time": 42.214182000000164,
                    "velocity": 0.5511811023622047,
                    "duration": 0.09956174999999945
                },
                {
                    "name": "C#5",
                    "midi": 73,
                    "time": 42.214182000000164,
                    "velocity": 0.6141732283464567,
                    "duration": 0.09956174999999945
                },
                {
                    "name": "G4",
                    "midi": 67,
                    "time": 42.34693100000016,
                    "velocity": 0.5511811023622047,
                    "duration": 0.09956174999999945
                },
                {
                    "name": "C#5",
                    "midi": 73,
                    "time": 42.34693100000016,
                    "velocity": 0.6141732283464567,
                    "duration": 0.09956174999999945
                },
                {
                    "name": "G4",
                    "midi": 67,
                    "time": 42.47968000000016,
                    "velocity": 0.5669291338582677,
                    "duration": 0.2654980000000009
                },
                {
                    "name": "A#4",
                    "midi": 70,
                    "time": 42.47968000000016,
                    "velocity": 0.5669291338582677,
                    "duration": 0.2654980000000009
                },
                {
                    "name": "C#5",
                    "midi": 73,
                    "time": 42.47968000000016,
                    "velocity": 0.6377952755905512,
                    "duration": 0.2654980000000009
                },
                {
                    "name": "F4",
                    "midi": 65,
                    "time": 42.74517800000016,
                    "velocity": 0.5433070866141733,
                    "duration": 0.09956174999999945
                },
                {
                    "name": "G#4",
                    "midi": 68,
                    "time": 42.74517800000016,
                    "velocity": 0.5433070866141733,
                    "duration": 0.09956174999999945
                },
                {
                    "name": "C#5",
                    "midi": 73,
                    "time": 42.74517800000016,
                    "velocity": 0.6062992125984252,
                    "duration": 0.09956174999999945
                },
                {
                    "name": "E4",
                    "midi": 64,
                    "time": 42.877927000000156,
                    "velocity": 0.5433070866141733,
                    "duration": 0.09568990416666878
                },
                {
                    "name": "G4",
                    "midi": 67,
                    "time": 42.877927000000156,
                    "velocity": 0.5433070866141733,
                    "duration": 0.09568990416666878
                },
                {
                    "name": "C#5",
                    "midi": 73,
                    "time": 42.877927000000156,
                    "velocity": 0.6062992125984252,
                    "duration": 0.09568990416666878
                },
                {
                    "name": "C6",
                    "midi": 84,
                    "time": 43.01067600000016,
                    "velocity": 0.7874015748031497,
                    "duration": 0.2654980000000009
                },
                {
                    "name": "A#5",
                    "midi": 82,
                    "time": 43.01067600000016,
                    "velocity": 0.7086614173228346,
                    "duration": 0.2654980000000009
                },
                {
                    "name": "G5",
                    "midi": 79,
                    "time": 43.01067600000016,
                    "velocity": 0.7086614173228346,
                    "duration": 0.2654980000000009
                },
                {
                    "name": "F5",
                    "midi": 77,
                    "time": 43.27617400000016,
                    "velocity": 0.6614173228346457,
                    "duration": 0.09956174999999945
                },
                {
                    "name": "G#5",
                    "midi": 80,
                    "time": 43.27617400000016,
                    "velocity": 0.6614173228346457,
                    "duration": 0.09956174999999945
                },
                {
                    "name": "C6",
                    "midi": 84,
                    "time": 43.27617400000016,
                    "velocity": 0.7401574803149606,
                    "duration": 0.09956174999999945
                },
                {
                    "name": "E5",
                    "midi": 76,
                    "time": 43.40892300000016,
                    "velocity": 0.6614173228346457,
                    "duration": 0.09568990416666878
                },
                {
                    "name": "G5",
                    "midi": 79,
                    "time": 43.40892300000016,
                    "velocity": 0.6614173228346457,
                    "duration": 0.09568990416666878
                },
                {
                    "name": "C6",
                    "midi": 84,
                    "time": 43.40892300000016,
                    "velocity": 0.7401574803149606,
                    "duration": 0.09568990416666878
                },
                {
                    "name": "C#5",
                    "midi": 73,
                    "time": 43.54167200000016,
                    "velocity": 0.6377952755905512,
                    "duration": 0.2654980000000009
                },
                {
                    "name": "C5",
                    "midi": 72,
                    "time": 43.80717000000016,
                    "velocity": 0.5433070866141733,
                    "duration": 0.09956174999999945
                },
                {
                    "name": "C#5",
                    "midi": 73,
                    "time": 43.80717000000016,
                    "velocity": 0.6062992125984252,
                    "duration": 0.09956174999999945
                },
                {
                    "name": "A#4",
                    "midi": 70,
                    "time": 43.93991900000016,
                    "velocity": 0.5433070866141733,
                    "duration": 0.09956174999999945
                },
                {
                    "name": "C#5",
                    "midi": 73,
                    "time": 43.93991900000016,
                    "velocity": 0.6062992125984252,
                    "duration": 0.09956174999999945
                },
                {
                    "name": "A#4",
                    "midi": 70,
                    "time": 44.07266800000016,
                    "velocity": 0.5669291338582677,
                    "duration": 0.2654980000000009
                },
                {
                    "name": "C#5",
                    "midi": 73,
                    "time": 44.07266800000016,
                    "velocity": 0.6377952755905512,
                    "duration": 0.2654980000000009
                },
                {
                    "name": "G#4",
                    "midi": 68,
                    "time": 44.33816600000016,
                    "velocity": 0.5511811023622047,
                    "duration": 0.09956174999999945
                },
                {
                    "name": "C#5",
                    "midi": 73,
                    "time": 44.33816600000016,
                    "velocity": 0.6141732283464567,
                    "duration": 0.09956174999999945
                },
                {
                    "name": "G4",
                    "midi": 67,
                    "time": 44.470915000000154,
                    "velocity": 0.5511811023622047,
                    "duration": 0.09956174999999945
                },
                {
                    "name": "C#5",
                    "midi": 73,
                    "time": 44.470915000000154,
                    "velocity": 0.6141732283464567,
                    "duration": 0.09956174999999945
                },
                {
                    "name": "G4",
                    "midi": 67,
                    "time": 44.60366400000015,
                    "velocity": 0.5669291338582677,
                    "duration": 0.2654980000000009
                },
                {
                    "name": "A#4",
                    "midi": 70,
                    "time": 44.60366400000015,
                    "velocity": 0.5669291338582677,
                    "duration": 0.2654980000000009
                },
                {
                    "name": "C#5",
                    "midi": 73,
                    "time": 44.60366400000015,
                    "velocity": 0.6377952755905512,
                    "duration": 0.2654980000000009
                },
                {
                    "name": "F4",
                    "midi": 65,
                    "time": 44.86916200000015,
                    "velocity": 0.5433070866141733,
                    "duration": 0.09956174999999945
                },
                {
                    "name": "G#4",
                    "midi": 68,
                    "time": 44.86916200000015,
                    "velocity": 0.5433070866141733,
                    "duration": 0.09956174999999945
                },
                {
                    "name": "C#5",
                    "midi": 73,
                    "time": 44.86916200000015,
                    "velocity": 0.6062992125984252,
                    "duration": 0.09956174999999945
                },
                {
                    "name": "E4",
                    "midi": 64,
                    "time": 45.00191100000015,
                    "velocity": 0.5433070866141733,
                    "duration": 0.09568990416666878
                },
                {
                    "name": "G4",
                    "midi": 67,
                    "time": 45.00191100000015,
                    "velocity": 0.5433070866141733,
                    "duration": 0.09568990416666878
                },
                {
                    "name": "C#5",
                    "midi": 73,
                    "time": 45.00191100000015,
                    "velocity": 0.6062992125984252,
                    "duration": 0.09568990416666878
                },
                {
                    "name": "C6",
                    "midi": 84,
                    "time": 45.13466000000015,
                    "velocity": 0.7795275590551181,
                    "duration": 0.2654980000000009
                },
                {
                    "name": "A#5",
                    "midi": 82,
                    "time": 45.13466000000015,
                    "velocity": 0.7007874015748031,
                    "duration": 0.2654980000000009
                },
                {
                    "name": "G5",
                    "midi": 79,
                    "time": 45.13466000000015,
                    "velocity": 0.7007874015748031,
                    "duration": 0.2654980000000009
                },
                {
                    "name": "F5",
                    "midi": 77,
                    "time": 45.400158000000154,
                    "velocity": 0.6456692913385826,
                    "duration": 0.09956174999999945
                },
                {
                    "name": "G#5",
                    "midi": 80,
                    "time": 45.400158000000154,
                    "velocity": 0.6456692913385826,
                    "duration": 0.09956174999999945
                },
                {
                    "name": "C6",
                    "midi": 84,
                    "time": 45.400158000000154,
                    "velocity": 0.7244094488188977,
                    "duration": 0.09956174999999945
                },
                {
                    "name": "E5",
                    "midi": 76,
                    "time": 45.53290700000015,
                    "velocity": 0.6456692913385826,
                    "duration": 0.09568990416666878
                },
                {
                    "name": "G5",
                    "midi": 79,
                    "time": 45.53290700000015,
                    "velocity": 0.6456692913385826,
                    "duration": 0.09568990416666878
                },
                {
                    "name": "C6",
                    "midi": 84,
                    "time": 45.53290700000015,
                    "velocity": 0.7244094488188977,
                    "duration": 0.09568990416666878
                },
                {
                    "name": "G4",
                    "midi": 67,
                    "time": 45.665656000000155,
                    "velocity": 0.3937007874015748,
                    "duration": 0.2654980000000009
                },
                {
                    "name": "A#4",
                    "midi": 70,
                    "time": 45.665656000000155,
                    "velocity": 0.3937007874015748,
                    "duration": 0.2654980000000009
                },
                {
                    "name": "C#5",
                    "midi": 73,
                    "time": 45.665656000000155,
                    "velocity": 0.4409448818897638,
                    "duration": 0.2654980000000009
                },
                {
                    "name": "F4",
                    "midi": 65,
                    "time": 45.931154000000156,
                    "velocity": 0.3464566929133858,
                    "duration": 0.09956174999999945
                },
                {
                    "name": "G#4",
                    "midi": 68,
                    "time": 45.931154000000156,
                    "velocity": 0.3464566929133858,
                    "duration": 0.09956174999999945
                },
                {
                    "name": "C#5",
                    "midi": 73,
                    "time": 45.931154000000156,
                    "velocity": 0.3858267716535433,
                    "duration": 0.09956174999999945
                },
                {
                    "name": "E4",
                    "midi": 64,
                    "time": 46.06390300000015,
                    "velocity": 0.3464566929133858,
                    "duration": 0.09956174999999945
                },
                {
                    "name": "G4",
                    "midi": 67,
                    "time": 46.06390300000015,
                    "velocity": 0.3464566929133858,
                    "duration": 0.09956174999999945
                },
                {
                    "name": "C#5",
                    "midi": 73,
                    "time": 46.06390300000015,
                    "velocity": 0.3858267716535433,
                    "duration": 0.09956174999999945
                },
                {
                    "name": "C6",
                    "midi": 84,
                    "time": 46.19665200000015,
                    "velocity": 0.7637795275590551,
                    "duration": 0.2654980000000009
                },
                {
                    "name": "A#5",
                    "midi": 82,
                    "time": 46.19665200000015,
                    "velocity": 0.6850393700787402,
                    "duration": 0.2654980000000009
                },
                {
                    "name": "G5",
                    "midi": 79,
                    "time": 46.19665200000015,
                    "velocity": 0.6850393700787402,
                    "duration": 0.2654980000000009
                },
                {
                    "name": "F5",
                    "midi": 77,
                    "time": 46.46215000000015,
                    "velocity": 0.6220472440944882,
                    "duration": 0.09956174999999945
                },
                {
                    "name": "G#5",
                    "midi": 80,
                    "time": 46.46215000000015,
                    "velocity": 0.6220472440944882,
                    "duration": 0.09956174999999945
                },
                {
                    "name": "C6",
                    "midi": 84,
                    "time": 46.46215000000015,
                    "velocity": 0.6929133858267716,
                    "duration": 0.09956174999999945
                },
                {
                    "name": "E5",
                    "midi": 76,
                    "time": 46.59489900000015,
                    "velocity": 0.6377952755905512,
                    "duration": 0.09956174999999945
                },
                {
                    "name": "G5",
                    "midi": 79,
                    "time": 46.59489900000015,
                    "velocity": 0.6377952755905512,
                    "duration": 0.09956174999999945
                },
                {
                    "name": "C6",
                    "midi": 84,
                    "time": 46.59489900000015,
                    "velocity": 0.7165354330708661,
                    "duration": 0.09956174999999945
                },
                {
                    "name": "C4",
                    "midi": 60,
                    "time": 46.727648000000144,
                    "velocity": 0.3779527559055118,
                    "duration": 0.1327489999999969
                },
                {
                    "name": "C#4",
                    "midi": 61,
                    "time": 46.99314600000014,
                    "velocity": 0.3543307086614173,
                    "duration": 0.066374500000002
                },
                {
                    "name": "C4",
                    "midi": 60,
                    "time": 47.12589500000014,
                    "velocity": 0.3543307086614173,
                    "duration": 0.066374500000002
                },
                {
                    "name": "C#4",
                    "midi": 61,
                    "time": 47.258644000000146,
                    "velocity": 0.3779527559055118,
                    "duration": 0.1327489999999969
                },
                {
                    "name": "C4",
                    "midi": 60,
                    "time": 47.52414200000014,
                    "velocity": 0.3543307086614173,
                    "duration": 0.066374500000002
                },
                {
                    "name": "D4",
                    "midi": 62,
                    "time": 47.656891000000144,
                    "velocity": 0.3543307086614173,
                    "duration": 0.066374500000002
                },
                {
                    "name": "E4",
                    "midi": 64,
                    "time": 47.78964000000015,
                    "velocity": 0.3779527559055118,
                    "duration": 0.1327489999999969
                },
                {
                    "name": "F4",
                    "midi": 65,
                    "time": 48.05513800000014,
                    "velocity": 0.3543307086614173,
                    "duration": 0.066374500000002
                },
                {
                    "name": "E4",
                    "midi": 64,
                    "time": 48.187887000000146,
                    "velocity": 0.3543307086614173,
                    "duration": 0.066374500000002
                },
                {
                    "name": "F4",
                    "midi": 65,
                    "time": 48.32063600000015,
                    "velocity": 0.3779527559055118,
                    "duration": 0.1327489999999969
                },
                {
                    "name": "E4",
                    "midi": 64,
                    "time": 48.58613400000014,
                    "velocity": 0.3937007874015748,
                    "duration": 0.066374500000002
                },
                {
                    "name": "F#4",
                    "midi": 66,
                    "time": 48.71888300000015,
                    "velocity": 0.4094488188976378,
                    "duration": 0.066374500000002
                },
                {
                    "name": "G4",
                    "midi": 67,
                    "time": 48.85163200000015,
                    "velocity": 0.4251968503937008,
                    "duration": 0.2654980000000009
                },
                {
                    "name": "G#4",
                    "midi": 68,
                    "time": 49.11713000000015,
                    "velocity": 0.4409448818897638,
                    "duration": 0.1327489999999969
                },
                {
                    "name": "G4",
                    "midi": 67,
                    "time": 49.24987900000015,
                    "velocity": 0.4566929133858268,
                    "duration": 0.1327489999999969
                },
                {
                    "name": "A#4",
                    "midi": 70,
                    "time": 49.382628000000146,
                    "velocity": 0.47244094488188976,
                    "duration": 0.2654980000000009
                },
                {
                    "name": "G#4",
                    "midi": 68,
                    "time": 49.64812600000015,
                    "velocity": 0.49606299212598426,
                    "duration": 0.1327489999999969
                },
                {
                    "name": "C#5",
                    "midi": 73,
                    "time": 49.780875000000144,
                    "velocity": 0.5039370078740157,
                    "duration": 0.1327489999999969
                },
                {
                    "name": "C5",
                    "midi": 72,
                    "time": 49.91362400000014,
                    "velocity": 0.5196850393700787,
                    "duration": 0.2654980000000009
                },
                {
                    "name": "D5",
                    "midi": 74,
                    "time": 50.17912200000014,
                    "velocity": 0.5511811023622047,
                    "duration": 0.1327489999999969
                },
                {
                    "name": "D#5",
                    "midi": 75,
                    "time": 50.31187100000014,
                    "velocity": 0.5669291338582677,
                    "duration": 0.1327489999999969
                },
                {
                    "name": "E5",
                    "midi": 76,
                    "time": 50.444620000000135,
                    "velocity": 0.5669291338582677,
                    "duration": 0.2654980000000009
                },
                {
                    "name": "F5",
                    "midi": 77,
                    "time": 50.710118000000136,
                    "velocity": 0.5984251968503937,
                    "duration": 0.1327489999999969
                },
                {
                    "name": "G5",
                    "midi": 79,
                    "time": 50.84286700000013,
                    "velocity": 0.6141732283464567,
                    "duration": 0.1327489999999969
                },
                {
                    "name": "C5",
                    "midi": 72,
                    "time": 50.97561600000013,
                    "velocity": 0.5669291338582677,
                    "duration": 0.2654980000000009
                },
                {
                    "name": "G#4",
                    "midi": 68,
                    "time": 50.97561600000013,
                    "velocity": 0.5669291338582677,
                    "duration": 0.2654980000000009
                },
                {
                    "name": "G#5",
                    "midi": 80,
                    "time": 50.97561600000013,
                    "velocity": 0.6377952755905512,
                    "duration": 0.2654980000000009
                },
                {
                    "name": "G5",
                    "midi": 79,
                    "time": 51.24111400000013,
                    "velocity": 0.6062992125984252,
                    "duration": 0.066374500000002
                },
                {
                    "name": "C5",
                    "midi": 72,
                    "time": 51.24111400000013,
                    "velocity": 0.5433070866141733,
                    "duration": 0.066374500000002
                },
                {
                    "name": "G#4",
                    "midi": 68,
                    "time": 51.24111400000013,
                    "velocity": 0.5433070866141733,
                    "duration": 0.066374500000002
                },
                {
                    "name": "F5",
                    "midi": 77,
                    "time": 51.373863000000135,
                    "velocity": 0.6062992125984252,
                    "duration": 0.066374500000002
                },
                {
                    "name": "C5",
                    "midi": 72,
                    "time": 51.373863000000135,
                    "velocity": 0.5433070866141733,
                    "duration": 0.066374500000002
                },
                {
                    "name": "G#4",
                    "midi": 68,
                    "time": 51.373863000000135,
                    "velocity": 0.5433070866141733,
                    "duration": 0.066374500000002
                },
                {
                    "name": "F5",
                    "midi": 77,
                    "time": 51.50661200000014,
                    "velocity": 0.6377952755905512,
                    "duration": 0.2654980000000009
                },
                {
                    "name": "C5",
                    "midi": 72,
                    "time": 51.50661200000014,
                    "velocity": 0.5669291338582677,
                    "duration": 0.2654980000000009
                },
                {
                    "name": "G#4",
                    "midi": 68,
                    "time": 51.50661200000014,
                    "velocity": 0.5669291338582677,
                    "duration": 0.2654980000000009
                },
                {
                    "name": "G#4",
                    "midi": 68,
                    "time": 51.77211000000014,
                    "velocity": 0.5511811023622047,
                    "duration": 0.066374500000002
                },
                {
                    "name": "C5",
                    "midi": 72,
                    "time": 51.77211000000014,
                    "velocity": 0.6141732283464567,
                    "duration": 0.066374500000002
                },
                {
                    "name": "G#4",
                    "midi": 68,
                    "time": 51.904859000000144,
                    "velocity": 0.5511811023622047,
                    "duration": 0.066374500000002
                },
                {
                    "name": "C5",
                    "midi": 72,
                    "time": 51.904859000000144,
                    "velocity": 0.6141732283464567,
                    "duration": 0.066374500000002
                },
                {
                    "name": "F5",
                    "midi": 77,
                    "time": 52.03760800000015,
                    "velocity": 0.6377952755905512,
                    "duration": 0.2654980000000009
                },
                {
                    "name": "C#5",
                    "midi": 73,
                    "time": 52.03760800000015,
                    "velocity": 0.5669291338582677,
                    "duration": 0.2654980000000009
                },
                {
                    "name": "A#4",
                    "midi": 70,
                    "time": 52.03760800000015,
                    "velocity": 0.5669291338582677,
                    "duration": 0.2654980000000009
                },
                {
                    "name": "A#4",
                    "midi": 70,
                    "time": 52.30310600000015,
                    "velocity": 0.5433070866141733,
                    "duration": 0.066374500000002
                },
                {
                    "name": "C#5",
                    "midi": 73,
                    "time": 52.30310600000015,
                    "velocity": 0.6062992125984252,
                    "duration": 0.066374500000002
                },
                {
                    "name": "A#4",
                    "midi": 70,
                    "time": 52.43585500000015,
                    "velocity": 0.5354330708661418,
                    "duration": 0.066374500000002
                },
                {
                    "name": "C#5",
                    "midi": 73,
                    "time": 52.43585500000015,
                    "velocity": 0.5984251968503937,
                    "duration": 0.066374500000002
                },
                {
                    "name": "F5",
                    "midi": 77,
                    "time": 52.56860400000016,
                    "velocity": 0.6377952755905512,
                    "duration": 0.25996679166666326
                },
                {
                    "name": "C5",
                    "midi": 72,
                    "time": 52.56860400000016,
                    "velocity": 0.5669291338582677,
                    "duration": 0.25996679166666326
                },
                {
                    "name": "G#4",
                    "midi": 68,
                    "time": 52.56860400000016,
                    "velocity": 0.5669291338582677,
                    "duration": 0.25996679166666326
                },
                {
                    "name": "G#4",
                    "midi": 68,
                    "time": 52.83410200000015,
                    "velocity": 0.3779527559055118,
                    "duration": 0.066374500000002
                },
                {
                    "name": "C5",
                    "midi": 72,
                    "time": 52.83410200000015,
                    "velocity": 0.4251968503937008,
                    "duration": 0.066374500000002
                },
                {
                    "name": "G#4",
                    "midi": 68,
                    "time": 52.966851000000155,
                    "velocity": 0.3779527559055118,
                    "duration": 0.066374500000002
                },
                {
                    "name": "C5",
                    "midi": 72,
                    "time": 52.966851000000155,
                    "velocity": 0.4251968503937008,
                    "duration": 0.066374500000002
                },
                {
                    "name": "G#4",
                    "midi": 68,
                    "time": 53.09960000000016,
                    "velocity": 0.33858267716535434,
                    "duration": 0.2654980000000009
                },
                {
                    "name": "C5",
                    "midi": 72,
                    "time": 53.09960000000016,
                    "velocity": 0.3779527559055118,
                    "duration": 0.2654980000000009
                },
                {
                    "name": "G4",
                    "midi": 67,
                    "time": 53.36509800000016,
                    "velocity": 0.3779527559055118,
                    "duration": 0.066374500000002
                },
                {
                    "name": "G#4",
                    "midi": 68,
                    "time": 53.36509800000016,
                    "velocity": 0.33858267716535434,
                    "duration": 0.066374500000002
                },
                {
                    "name": "C5",
                    "midi": 72,
                    "time": 53.36509800000016,
                    "velocity": 0.3779527559055118,
                    "duration": 0.066374500000002
                },
                {
                    "name": "F4",
                    "midi": 65,
                    "time": 53.497847000000164,
                    "velocity": 0.31496062992125984,
                    "duration": 0.066374500000002
                },
                {
                    "name": "G#4",
                    "midi": 68,
                    "time": 53.497847000000164,
                    "velocity": 0.31496062992125984,
                    "duration": 0.066374500000002
                },
                {
                    "name": "C5",
                    "midi": 72,
                    "time": 53.497847000000164,
                    "velocity": 0.3543307086614173,
                    "duration": 0.066374500000002
                },
                {
                    "name": "F4",
                    "midi": 65,
                    "time": 53.63059600000017,
                    "velocity": 0.31496062992125984,
                    "duration": 0.2654980000000009
                },
                {
                    "name": "G#4",
                    "midi": 68,
                    "time": 53.63059600000017,
                    "velocity": 0.31496062992125984,
                    "duration": 0.2654980000000009
                },
                {
                    "name": "C5",
                    "midi": 72,
                    "time": 53.63059600000017,
                    "velocity": 0.3543307086614173,
                    "duration": 0.2654980000000009
                },
                {
                    "name": "C4",
                    "midi": 60,
                    "time": 53.89609400000017,
                    "velocity": 0.33858267716535434,
                    "duration": 0.066374500000002
                },
                {
                    "name": "G#4",
                    "midi": 68,
                    "time": 53.89609400000017,
                    "velocity": 0.33858267716535434,
                    "duration": 0.066374500000002
                },
                {
                    "name": "C5",
                    "midi": 72,
                    "time": 53.89609400000017,
                    "velocity": 0.3779527559055118,
                    "duration": 0.066374500000002
                },
                {
                    "name": "C4",
                    "midi": 60,
                    "time": 54.02884300000017,
                    "velocity": 0.31496062992125984,
                    "duration": 0.066374500000002
                },
                {
                    "name": "G#4",
                    "midi": 68,
                    "time": 54.02884300000017,
                    "velocity": 0.31496062992125984,
                    "duration": 0.066374500000002
                },
                {
                    "name": "C5",
                    "midi": 72,
                    "time": 54.02884300000017,
                    "velocity": 0.3543307086614173,
                    "duration": 0.066374500000002
                },
                {
                    "name": "C#5",
                    "midi": 73,
                    "time": 54.16159200000018,
                    "velocity": 0.3543307086614173,
                    "duration": 0.2654980000000009
                },
                {
                    "name": "A#4",
                    "midi": 70,
                    "time": 54.16159200000018,
                    "velocity": 0.31496062992125984,
                    "duration": 0.2654980000000009
                },
                {
                    "name": "F4",
                    "midi": 65,
                    "time": 54.16159200000018,
                    "velocity": 0.31496062992125984,
                    "duration": 0.2654980000000009
                },
                {
                    "name": "C#4",
                    "midi": 61,
                    "time": 54.42709000000018,
                    "velocity": 0.33858267716535434,
                    "duration": 0.066374500000002
                },
                {
                    "name": "A#4",
                    "midi": 70,
                    "time": 54.42709000000018,
                    "velocity": 0.33858267716535434,
                    "duration": 0.066374500000002
                },
                {
                    "name": "C#5",
                    "midi": 73,
                    "time": 54.42709000000018,
                    "velocity": 0.3779527559055118,
                    "duration": 0.066374500000002
                },
                {
                    "name": "C#4",
                    "midi": 61,
                    "time": 54.55983900000018,
                    "velocity": 0.31496062992125984,
                    "duration": 0.066374500000002
                },
                {
                    "name": "A#4",
                    "midi": 70,
                    "time": 54.55983900000018,
                    "velocity": 0.31496062992125984,
                    "duration": 0.066374500000002
                },
                {
                    "name": "C#5",
                    "midi": 73,
                    "time": 54.55983900000018,
                    "velocity": 0.3543307086614173,
                    "duration": 0.066374500000002
                },
                {
                    "name": "F4",
                    "midi": 65,
                    "time": 54.692588000000185,
                    "velocity": 0.31496062992125984,
                    "duration": 0.2654980000000009
                },
                {
                    "name": "G#4",
                    "midi": 68,
                    "time": 54.692588000000185,
                    "velocity": 0.31496062992125984,
                    "duration": 0.2654980000000009
                },
                {
                    "name": "C5",
                    "midi": 72,
                    "time": 54.692588000000185,
                    "velocity": 0.3543307086614173,
                    "duration": 0.2654980000000009
                },
                {
                    "name": "C4",
                    "midi": 60,
                    "time": 54.958086000000186,
                    "velocity": 0.31496062992125984,
                    "duration": 0.066374500000002
                },
                {
                    "name": "G#4",
                    "midi": 68,
                    "time": 54.958086000000186,
                    "velocity": 0.31496062992125984,
                    "duration": 0.066374500000002
                },
                {
                    "name": "C5",
                    "midi": 72,
                    "time": 54.958086000000186,
                    "velocity": 0.3543307086614173,
                    "duration": 0.066374500000002
                },
                {
                    "name": "C4",
                    "midi": 60,
                    "time": 55.09083500000019,
                    "velocity": 0.31496062992125984,
                    "duration": 0.066374500000002
                },
                {
                    "name": "G#4",
                    "midi": 68,
                    "time": 55.09083500000019,
                    "velocity": 0.31496062992125984,
                    "duration": 0.066374500000002
                },
                {
                    "name": "C5",
                    "midi": 72,
                    "time": 55.09083500000019,
                    "velocity": 0.3543307086614173,
                    "duration": 0.066374500000002
                },
                {
                    "name": "E5",
                    "midi": 76,
                    "time": 55.223584000000194,
                    "velocity": 0.4330708661417323,
                    "duration": 0.2654980000000009
                },
                {
                    "name": "C#5",
                    "midi": 73,
                    "time": 55.223584000000194,
                    "velocity": 0.3858267716535433,
                    "duration": 0.2654980000000009
                },
                {
                    "name": "A#4",
                    "midi": 70,
                    "time": 55.223584000000194,
                    "velocity": 0.3858267716535433,
                    "duration": 0.2654980000000009
                },
                {
                    "name": "E5",
                    "midi": 76,
                    "time": 55.489082000000195,
                    "velocity": 0.4094488188976378,
                    "duration": 0.066374500000002
                },
                {
                    "name": "C#5",
                    "midi": 73,
                    "time": 55.489082000000195,
                    "velocity": 0.36220472440944884,
                    "duration": 0.066374500000002
                },
                {
                    "name": "G4",
                    "midi": 67,
                    "time": 55.489082000000195,
                    "velocity": 0.36220472440944884,
                    "duration": 0.066374500000002
                },
                {
                    "name": "E5",
                    "midi": 76,
                    "time": 55.6218310000002,
                    "velocity": 0.4094488188976378,
                    "duration": 0.066374500000002
                },
                {
                    "name": "C#5",
                    "midi": 73,
                    "time": 55.6218310000002,
                    "velocity": 0.36220472440944884,
                    "duration": 0.066374500000002
                },
                {
                    "name": "G4",
                    "midi": 67,
                    "time": 55.6218310000002,
                    "velocity": 0.36220472440944884,
                    "duration": 0.066374500000002
                },
                {
                    "name": "G#4",
                    "midi": 68,
                    "time": 55.7545800000002,
                    "velocity": 0.4251968503937008,
                    "duration": 0.2654980000000009
                },
                {
                    "name": "C5",
                    "midi": 72,
                    "time": 55.7545800000002,
                    "velocity": 0.4251968503937008,
                    "duration": 0.2654980000000009
                },
                {
                    "name": "F5",
                    "midi": 77,
                    "time": 55.7545800000002,
                    "velocity": 0.48031496062992124,
                    "duration": 0.2654980000000009
                },
                {
                    "name": "F4",
                    "midi": 65,
                    "time": 56.020078000000204,
                    "velocity": 0.4094488188976378,
                    "duration": 0.066374500000002
                },
                {
                    "name": "C5",
                    "midi": 72,
                    "time": 56.020078000000204,
                    "velocity": 0.4094488188976378,
                    "duration": 0.066374500000002
                },
                {
                    "name": "F5",
                    "midi": 77,
                    "time": 56.020078000000204,
                    "velocity": 0.4566929133858268,
                    "duration": 0.066374500000002
                },
                {
                    "name": "F4",
                    "midi": 65,
                    "time": 56.15282700000021,
                    "velocity": 0.4094488188976378,
                    "duration": 0.066374500000002
                },
                {
                    "name": "C5",
                    "midi": 72,
                    "time": 56.15282700000021,
                    "velocity": 0.4094488188976378,
                    "duration": 0.066374500000002
                },
                {
                    "name": "F5",
                    "midi": 77,
                    "time": 56.15282700000021,
                    "velocity": 0.4566929133858268,
                    "duration": 0.066374500000002
                },
                {
                    "name": "G4",
                    "midi": 67,
                    "time": 56.28557600000021,
                    "velocity": 0.47244094488188976,
                    "duration": 0.2654980000000009
                },
                {
                    "name": "G5",
                    "midi": 79,
                    "time": 56.28557600000021,
                    "velocity": 0.5275590551181102,
                    "duration": 0.2654980000000009
                },
                {
                    "name": "C5",
                    "midi": 72,
                    "time": 56.28557600000021,
                    "velocity": 0.47244094488188976,
                    "duration": 0.2654980000000009
                },
                {
                    "name": "E5",
                    "midi": 76,
                    "time": 56.55107400000021,
                    "velocity": 0.47244094488188976,
                    "duration": 0.066374500000002
                },
                {
                    "name": "C5",
                    "midi": 72,
                    "time": 56.55107400000021,
                    "velocity": 0.4251968503937008,
                    "duration": 0.066374500000002
                },
                {
                    "name": "G4",
                    "midi": 67,
                    "time": 56.55107400000021,
                    "velocity": 0.4251968503937008,
                    "duration": 0.066374500000002
                },
                {
                    "name": "E5",
                    "midi": 76,
                    "time": 56.68382300000022,
                    "velocity": 0.47244094488188976,
                    "duration": 0.066374500000002
                },
                {
                    "name": "C5",
                    "midi": 72,
                    "time": 56.68382300000022,
                    "velocity": 0.4251968503937008,
                    "duration": 0.066374500000002
                },
                {
                    "name": "G4",
                    "midi": 67,
                    "time": 56.68382300000022,
                    "velocity": 0.4251968503937008,
                    "duration": 0.066374500000002
                },
                {
                    "name": "G#4",
                    "midi": 68,
                    "time": 56.81657200000022,
                    "velocity": 0.5118110236220472,
                    "duration": 0.2654980000000009
                },
                {
                    "name": "C5",
                    "midi": 72,
                    "time": 56.81657200000022,
                    "velocity": 0.5118110236220472,
                    "duration": 0.2654980000000009
                },
                {
                    "name": "G#5",
                    "midi": 80,
                    "time": 56.81657200000022,
                    "velocity": 0.5748031496062992,
                    "duration": 0.2654980000000009
                },
                {
                    "name": "G#4",
                    "midi": 68,
                    "time": 57.08207000000022,
                    "velocity": 0.48031496062992124,
                    "duration": 0.066374500000002
                },
                {
                    "name": "C5",
                    "midi": 72,
                    "time": 57.08207000000022,
                    "velocity": 0.48031496062992124,
                    "duration": 0.066374500000002
                },
                {
                    "name": "F5",
                    "midi": 77,
                    "time": 57.08207000000022,
                    "velocity": 0.5354330708661418,
                    "duration": 0.066374500000002
                },
                {
                    "name": "G#4",
                    "midi": 68,
                    "time": 57.214819000000226,
                    "velocity": 0.48031496062992124,
                    "duration": 0.066374500000002
                },
                {
                    "name": "C5",
                    "midi": 72,
                    "time": 57.214819000000226,
                    "velocity": 0.48031496062992124,
                    "duration": 0.066374500000002
                },
                {
                    "name": "F5",
                    "midi": 77,
                    "time": 57.214819000000226,
                    "velocity": 0.5354330708661418,
                    "duration": 0.066374500000002
                },
                {
                    "name": "A#5",
                    "midi": 82,
                    "time": 57.34756800000023,
                    "velocity": 0.6614173228346457,
                    "duration": 0.2654980000000009
                },
                {
                    "name": "C5",
                    "midi": 72,
                    "time": 57.34756800000023,
                    "velocity": 0.5905511811023622,
                    "duration": 0.2654980000000009
                },
                {
                    "name": "C6",
                    "midi": 84,
                    "time": 57.61306600000023,
                    "velocity": 0.6062992125984252,
                    "duration": 0.066374500000002
                },
                {
                    "name": "C5",
                    "midi": 72,
                    "time": 57.61306600000023,
                    "velocity": 0.5433070866141733,
                    "duration": 0.066374500000002
                },
                {
                    "name": "C6",
                    "midi": 84,
                    "time": 57.745815000000235,
                    "velocity": 0.6062992125984252,
                    "duration": 0.066374500000002
                },
                {
                    "name": "C5",
                    "midi": 72,
                    "time": 57.745815000000235,
                    "velocity": 0.5433070866141733,
                    "duration": 0.066374500000002
                },
                {
                    "name": "B5",
                    "midi": 83,
                    "time": 57.87856400000024,
                    "velocity": 0.7007874015748031,
                    "duration": 0.2654980000000009
                },
                {
                    "name": "C5",
                    "midi": 72,
                    "time": 57.87856400000024,
                    "velocity": 0.6299212598425197,
                    "duration": 0.2654980000000009
                },
                {
                    "name": "C6",
                    "midi": 84,
                    "time": 58.14406200000024,
                    "velocity": 0.6692913385826772,
                    "duration": 0.066374500000002
                },
                {
                    "name": "C5",
                    "midi": 72,
                    "time": 58.14406200000024,
                    "velocity": 0.5984251968503937,
                    "duration": 0.066374500000002
                },
                {
                    "name": "C6",
                    "midi": 84,
                    "time": 58.276811000000244,
                    "velocity": 0.6692913385826772,
                    "duration": 0.066374500000002
                },
                {
                    "name": "C5",
                    "midi": 72,
                    "time": 58.276811000000244,
                    "velocity": 0.5984251968503937,
                    "duration": 0.066374500000002
                },
                {
                    "name": "C6",
                    "midi": 84,
                    "time": 58.40956000000025,
                    "velocity": 0.7637795275590551,
                    "duration": 0.25996679166666326
                },
                {
                    "name": "C5",
                    "midi": 72,
                    "time": 58.40956000000025,
                    "velocity": 0.6850393700787402,
                    "duration": 0.25996679166666326
                },
                {
                    "name": "C#6",
                    "midi": 85,
                    "time": 58.67505800000024,
                    "velocity": 0.7637795275590551,
                    "duration": 0.1327489999999969
                },
                {
                    "name": "A#5",
                    "midi": 82,
                    "time": 58.67505800000024,
                    "velocity": 0.6850393700787402,
                    "duration": 0.1327489999999969
                },
                {
                    "name": "C#5",
                    "midi": 73,
                    "time": 58.67505800000024,
                    "velocity": 0.6850393700787402,
                    "duration": 0.1327489999999969
                },
                {
                    "name": "C#6",
                    "midi": 85,
                    "time": 58.940556000000235,
                    "velocity": 0.7637795275590551,
                    "duration": 0.1327489999999969
                },
                {
                    "name": "A#5",
                    "midi": 82,
                    "time": 58.940556000000235,
                    "velocity": 0.6850393700787402,
                    "duration": 0.1327489999999969
                },
                {
                    "name": "C#5",
                    "midi": 73,
                    "time": 58.940556000000235,
                    "velocity": 0.6850393700787402,
                    "duration": 0.1327489999999969
                },
                {
                    "name": "C#6",
                    "midi": 85,
                    "time": 59.20605400000023,
                    "velocity": 0.7637795275590551,
                    "duration": 0.1327489999999969
                },
                {
                    "name": "A#5",
                    "midi": 82,
                    "time": 59.20605400000023,
                    "velocity": 0.6850393700787402,
                    "duration": 0.1327489999999969
                },
                {
                    "name": "C#5",
                    "midi": 73,
                    "time": 59.20605400000023,
                    "velocity": 0.6850393700787402,
                    "duration": 0.1327489999999969
                },
                {
                    "name": "C#6",
                    "midi": 85,
                    "time": 59.47155200000022,
                    "velocity": 0.7637795275590551,
                    "duration": 0.1327489999999969
                },
                {
                    "name": "A#5",
                    "midi": 82,
                    "time": 59.47155200000022,
                    "velocity": 0.6850393700787402,
                    "duration": 0.1327489999999969
                },
                {
                    "name": "C#5",
                    "midi": 73,
                    "time": 59.47155200000022,
                    "velocity": 0.6850393700787402,
                    "duration": 0.1327489999999969
                },
                {
                    "name": "F#6",
                    "midi": 90,
                    "time": 59.73705000000022,
                    "velocity": 0.7637795275590551,
                    "duration": 0.1327489999999969
                },
                {
                    "name": "C#6",
                    "midi": 85,
                    "time": 59.73705000000022,
                    "velocity": 0.6850393700787402,
                    "duration": 0.1327489999999969
                },
                {
                    "name": "F#5",
                    "midi": 78,
                    "time": 59.73705000000022,
                    "velocity": 0.6850393700787402,
                    "duration": 0.1327489999999969
                },
                {
                    "name": "F#6",
                    "midi": 90,
                    "time": 60.00254800000021,
                    "velocity": 0.7086614173228346,
                    "duration": 0.2654980000000009
                },
                {
                    "name": "C#6",
                    "midi": 85,
                    "time": 60.00254800000021,
                    "velocity": 0.6377952755905512,
                    "duration": 0.2654980000000009
                },
                {
                    "name": "F#5",
                    "midi": 78,
                    "time": 60.00254800000021,
                    "velocity": 0.6377952755905512,
                    "duration": 0.2654980000000009
                },
                {
                    "name": "F#6",
                    "midi": 90,
                    "time": 60.26804600000021,
                    "velocity": 0.7480314960629921,
                    "duration": 0.066374500000002
                },
                {
                    "name": "C#6",
                    "midi": 85,
                    "time": 60.26804600000021,
                    "velocity": 0.6692913385826772,
                    "duration": 0.066374500000002
                },
                {
                    "name": "F#5",
                    "midi": 78,
                    "time": 60.26804600000021,
                    "velocity": 0.6692913385826772,
                    "duration": 0.066374500000002
                },
                {
                    "name": "F#6",
                    "midi": 90,
                    "time": 60.400795000000215,
                    "velocity": 0.7637795275590551,
                    "duration": 0.066374500000002
                },
                {
                    "name": "C#6",
                    "midi": 85,
                    "time": 60.400795000000215,
                    "velocity": 0.6850393700787402,
                    "duration": 0.066374500000002
                },
                {
                    "name": "F#5",
                    "midi": 78,
                    "time": 60.400795000000215,
                    "velocity": 0.6850393700787402,
                    "duration": 0.066374500000002
                },
                {
                    "name": "G#6",
                    "midi": 92,
                    "time": 60.53354400000022,
                    "velocity": 0.7795275590551181,
                    "duration": 0.2654980000000009
                },
                {
                    "name": "F6",
                    "midi": 89,
                    "time": 60.53354400000022,
                    "velocity": 0.7007874015748031,
                    "duration": 0.2654980000000009
                },
                {
                    "name": "G#5",
                    "midi": 80,
                    "time": 60.53354400000022,
                    "velocity": 0.7007874015748031,
                    "duration": 0.2654980000000009
                },
                {
                    "name": "G#6",
                    "midi": 92,
                    "time": 60.79904200000022,
                    "velocity": 0.7401574803149606,
                    "duration": 0.066374500000002
                },
                {
                    "name": "F6",
                    "midi": 89,
                    "time": 60.79904200000022,
                    "velocity": 0.6614173228346457,
                    "duration": 0.066374500000002
                },
                {
                    "name": "G#5",
                    "midi": 80,
                    "time": 60.79904200000022,
                    "velocity": 0.6614173228346457,
                    "duration": 0.066374500000002
                },
                {
                    "name": "G#6",
                    "midi": 92,
                    "time": 60.931791000000224,
                    "velocity": 0.7165354330708661,
                    "duration": 0.066374500000002
                },
                {
                    "name": "F6",
                    "midi": 89,
                    "time": 60.931791000000224,
                    "velocity": 0.6377952755905512,
                    "duration": 0.066374500000002
                },
                {
                    "name": "G#5",
                    "midi": 80,
                    "time": 60.931791000000224,
                    "velocity": 0.6377952755905512,
                    "duration": 0.066374500000002
                },
                {
                    "name": "F#6",
                    "midi": 90,
                    "time": 61.06454000000023,
                    "velocity": 0.7007874015748031,
                    "duration": 0.1327489999999969
                },
                {
                    "name": "F#5",
                    "midi": 78,
                    "time": 61.06454000000023,
                    "velocity": 0.6299212598425197,
                    "duration": 0.1327489999999969
                },
                {
                    "name": "B5",
                    "midi": 83,
                    "time": 61.33003800000022,
                    "velocity": 0.7244094488188977,
                    "duration": 0.1327489999999969
                },
                {
                    "name": "G#5",
                    "midi": 80,
                    "time": 61.33003800000022,
                    "velocity": 0.6456692913385826,
                    "duration": 0.1327489999999969
                },
                {
                    "name": "F5",
                    "midi": 77,
                    "time": 61.33003800000022,
                    "velocity": 0.6456692913385826,
                    "duration": 0.1327489999999969
                },
                {
                    "name": "B4",
                    "midi": 71,
                    "time": 61.33003800000022,
                    "velocity": 0.6456692913385826,
                    "duration": 0.1327489999999969
                },
                {
                    "name": "C6",
                    "midi": 84,
                    "time": 61.595536000000216,
                    "velocity": 0.7244094488188977,
                    "duration": 0.1327489999999969
                },
                {
                    "name": "G#5",
                    "midi": 80,
                    "time": 61.595536000000216,
                    "velocity": 0.6456692913385826,
                    "duration": 0.1327489999999969
                },
                {
                    "name": "F5",
                    "midi": 77,
                    "time": 61.595536000000216,
                    "velocity": 0.6456692913385826,
                    "duration": 0.1327489999999969
                },
                {
                    "name": "C5",
                    "midi": 72,
                    "time": 61.595536000000216,
                    "velocity": 0.6456692913385826,
                    "duration": 0.1327489999999969
                },
                {
                    "name": "C6",
                    "midi": 84,
                    "time": 61.86103400000021,
                    "velocity": 0.7244094488188977,
                    "duration": 0.1327489999999969
                },
                {
                    "name": "G5",
                    "midi": 79,
                    "time": 61.86103400000021,
                    "velocity": 0.6456692913385826,
                    "duration": 0.1327489999999969
                },
                {
                    "name": "E5",
                    "midi": 76,
                    "time": 61.86103400000021,
                    "velocity": 0.6456692913385826,
                    "duration": 0.1327489999999969
                },
                {
                    "name": "C5",
                    "midi": 72,
                    "time": 61.86103400000021,
                    "velocity": 0.6456692913385826,
                    "duration": 0.1327489999999969
                },
                {
                    "name": "F4",
                    "midi": 65,
                    "time": 62.1265320000002,
                    "velocity": 0.6456692913385826,
                    "duration": 0.2654980000000009
                },
                {
                    "name": "F5",
                    "midi": 77,
                    "time": 62.1265320000002,
                    "velocity": 0.7244094488188977,
                    "duration": 0.2654980000000009
                },
                {
                    "name": "F4",
                    "midi": 65,
                    "time": 62.392030000000204,
                    "velocity": 0.3779527559055118,
                    "duration": 0.1327489999999969
                },
                {
                    "name": "G4",
                    "midi": 67,
                    "time": 62.5247790000002,
                    "velocity": 0.3779527559055118,
                    "duration": 0.1327489999999969
                },
                {
                    "name": "A4",
                    "midi": 69,
                    "time": 62.6575280000002,
                    "velocity": 0.3779527559055118,
                    "duration": 0.2654980000000009
                },
                {
                    "name": "A#4",
                    "midi": 70,
                    "time": 62.9230260000002,
                    "velocity": 0.3779527559055118,
                    "duration": 0.066374500000002
                },
                {
                    "name": "C5",
                    "midi": 72,
                    "time": 63.0557750000002,
                    "velocity": 0.3779527559055118,
                    "duration": 0.066374500000002
                },
                {
                    "name": "C5",
                    "midi": 72,
                    "time": 63.18852400000021,
                    "velocity": 0.33858267716535434,
                    "duration": 0.2654980000000009
                },
                {
                    "name": "D5",
                    "midi": 74,
                    "time": 63.18852400000021,
                    "velocity": 0.3779527559055118,
                    "duration": 0.2654980000000009
                },
                {
                    "name": "A#4",
                    "midi": 70,
                    "time": 63.45402200000021,
                    "velocity": 0.31496062992125984,
                    "duration": 0.066374500000002
                },
                {
                    "name": "E5",
                    "midi": 76,
                    "time": 63.45402200000021,
                    "velocity": 0.3543307086614173,
                    "duration": 0.066374500000002
                },
                {
                    "name": "A#4",
                    "midi": 70,
                    "time": 63.58677100000021,
                    "velocity": 0.31496062992125984,
                    "duration": 0.066374500000002
                },
                {
                    "name": "E5",
                    "midi": 76,
                    "time": 63.58677100000021,
                    "velocity": 0.3543307086614173,
                    "duration": 0.066374500000002
                },
                {
                    "name": "A#4",
                    "midi": 70,
                    "time": 63.719520000000216,
                    "velocity": 0.33858267716535434,
                    "duration": 0.2654980000000009
                },
                {
                    "name": "E5",
                    "midi": 76,
                    "time": 63.719520000000216,
                    "velocity": 0.3779527559055118,
                    "duration": 0.2654980000000009
                },
                {
                    "name": "A4",
                    "midi": 69,
                    "time": 63.98501800000022,
                    "velocity": 0.31496062992125984,
                    "duration": 0.066374500000002
                },
                {
                    "name": "F5",
                    "midi": 77,
                    "time": 63.98501800000022,
                    "velocity": 0.3543307086614173,
                    "duration": 0.066374500000002
                },
                {
                    "name": "A4",
                    "midi": 69,
                    "time": 64.11776700000021,
                    "velocity": 0.31496062992125984,
                    "duration": 0.0663744999999949
                },
                {
                    "name": "F5",
                    "midi": 77,
                    "time": 64.11776700000021,
                    "velocity": 0.3543307086614173,
                    "duration": 0.0663744999999949
                },
                {
                    "name": "A4",
                    "midi": 69,
                    "time": 64.2505160000002,
                    "velocity": 0.33858267716535434,
                    "duration": 0.2654979999999938
                },
                {
                    "name": "C5",
                    "midi": 72,
                    "time": 64.2505160000002,
                    "velocity": 0.3779527559055118,
                    "duration": 0.2654979999999938
                },
                {
                    "name": "G4",
                    "midi": 67,
                    "time": 64.5160140000002,
                    "velocity": 0.31496062992125984,
                    "duration": 0.0663744999999949
                },
                {
                    "name": "A#4",
                    "midi": 70,
                    "time": 64.5160140000002,
                    "velocity": 0.3543307086614173,
                    "duration": 0.0663744999999949
                },
                {
                    "name": "G4",
                    "midi": 67,
                    "time": 64.64876300000019,
                    "velocity": 0.31496062992125984,
                    "duration": 0.0663744999999949
                },
                {
                    "name": "A#4",
                    "midi": 70,
                    "time": 64.64876300000019,
                    "velocity": 0.3543307086614173,
                    "duration": 0.0663744999999949
                },
                {
                    "name": "A4",
                    "midi": 69,
                    "time": 64.78151200000018,
                    "velocity": 0.6299212598425197,
                    "duration": 0.06582137916666397
                },
                {
                    "name": "C5",
                    "midi": 72,
                    "time": 64.78151200000018,
                    "velocity": 0.6299212598425197,
                    "duration": 0.06582137916666397
                },
                {
                    "name": "A5",
                    "midi": 81,
                    "time": 64.78151200000018,
                    "velocity": 0.7007874015748031,
                    "duration": 0.06582137916666397
                },
                {
                    "name": "A4",
                    "midi": 69,
                    "time": 65.04701000000017,
                    "velocity": 0.6299212598425197,
                    "duration": 0.06582137916666397
                },
                {
                    "name": "C5",
                    "midi": 72,
                    "time": 65.04701000000017,
                    "velocity": 0.6299212598425197,
                    "duration": 0.06582137916666397
                },
                {
                    "name": "F5",
                    "midi": 77,
                    "time": 65.04701000000017,
                    "velocity": 0.7007874015748031,
                    "duration": 0.06582137916666397
                },
                {
                    "name": "C5",
                    "midi": 72,
                    "time": 65.31250800000016,
                    "velocity": 0.3779527559055118,
                    "duration": 0.2654979999999938
                },
                {
                    "name": "C5",
                    "midi": 72,
                    "time": 65.57800600000016,
                    "velocity": 0.31496062992125984,
                    "duration": 0.0663744999999949
                },
                {
                    "name": "D5",
                    "midi": 74,
                    "time": 65.57800600000016,
                    "velocity": 0.3543307086614173,
                    "duration": 0.0663744999999949
                },
                {
                    "name": "C5",
                    "midi": 72,
                    "time": 65.71075500000015,
                    "velocity": 0.31496062992125984,
                    "duration": 0.0663744999999949
                },
                {
                    "name": "D5",
                    "midi": 74,
                    "time": 65.71075500000015,
                    "velocity": 0.3543307086614173,
                    "duration": 0.0663744999999949
                },
                {
                    "name": "A#4",
                    "midi": 70,
                    "time": 65.84350400000014,
                    "velocity": 0.33858267716535434,
                    "duration": 0.2654979999999938
                },
                {
                    "name": "E5",
                    "midi": 76,
                    "time": 65.84350400000014,
                    "velocity": 0.3779527559055118,
                    "duration": 0.2654979999999938
                },
                {
                    "name": "A4",
                    "midi": 69,
                    "time": 66.10900200000013,
                    "velocity": 0.31496062992125984,
                    "duration": 0.0663744999999949
                },
                {
                    "name": "F5",
                    "midi": 77,
                    "time": 66.10900200000013,
                    "velocity": 0.3543307086614173,
                    "duration": 0.0663744999999949
                },
                {
                    "name": "A4",
                    "midi": 69,
                    "time": 66.24175100000012,
                    "velocity": 0.31496062992125984,
                    "duration": 0.0663744999999949
                },
                {
                    "name": "F5",
                    "midi": 77,
                    "time": 66.24175100000012,
                    "velocity": 0.3543307086614173,
                    "duration": 0.0663744999999949
                },
                {
                    "name": "A4",
                    "midi": 69,
                    "time": 66.37450000000011,
                    "velocity": 0.33858267716535434,
                    "duration": 0.2654979999999938
                },
                {
                    "name": "C5",
                    "midi": 72,
                    "time": 66.37450000000011,
                    "velocity": 0.3779527559055118,
                    "duration": 0.2654979999999938
                },
                {
                    "name": "G4",
                    "midi": 67,
                    "time": 66.6399980000001,
                    "velocity": 0.31496062992125984,
                    "duration": 0.0663744999999949
                },
                {
                    "name": "A#4",
                    "midi": 70,
                    "time": 66.6399980000001,
                    "velocity": 0.3543307086614173,
                    "duration": 0.0663744999999949
                },
                {
                    "name": "G4",
                    "midi": 67,
                    "time": 66.7727470000001,
                    "velocity": 0.31496062992125984,
                    "duration": 0.0663744999999949
                },
                {
                    "name": "A#4",
                    "midi": 70,
                    "time": 66.7727470000001,
                    "velocity": 0.3543307086614173,
                    "duration": 0.0663744999999949
                },
                {
                    "name": "A4",
                    "midi": 69,
                    "time": 66.90549600000008,
                    "velocity": 0.6614173228346457,
                    "duration": 0.06582137916666397
                },
                {
                    "name": "C5",
                    "midi": 72,
                    "time": 66.90549600000008,
                    "velocity": 0.6614173228346457,
                    "duration": 0.06582137916666397
                },
                {
                    "name": "A5",
                    "midi": 81,
                    "time": 66.90549600000008,
                    "velocity": 0.7401574803149606,
                    "duration": 0.06582137916666397
                },
                {
                    "name": "A4",
                    "midi": 69,
                    "time": 67.17099400000008,
                    "velocity": 0.6692913385826772,
                    "duration": 0.06582137916666397
                },
                {
                    "name": "C5",
                    "midi": 72,
                    "time": 67.17099400000008,
                    "velocity": 0.6692913385826772,
                    "duration": 0.06582137916666397
                },
                {
                    "name": "F5",
                    "midi": 77,
                    "time": 67.17099400000008,
                    "velocity": 0.7480314960629921,
                    "duration": 0.06582137916666397
                },
                {
                    "name": "A4",
                    "midi": 69,
                    "time": 67.43649200000007,
                    "velocity": 0.33858267716535434,
                    "duration": 0.2654979999999938
                },
                {
                    "name": "C5",
                    "midi": 72,
                    "time": 67.43649200000007,
                    "velocity": 0.3779527559055118,
                    "duration": 0.2654979999999938
                },
                {
                    "name": "G4",
                    "midi": 67,
                    "time": 67.70199000000007,
                    "velocity": 0.31496062992125984,
                    "duration": 0.0663744999999949
                },
                {
                    "name": "A#4",
                    "midi": 70,
                    "time": 67.70199000000007,
                    "velocity": 0.3543307086614173,
                    "duration": 0.0663744999999949
                },
                {
                    "name": "G4",
                    "midi": 67,
                    "time": 67.83473900000006,
                    "velocity": 0.31496062992125984,
                    "duration": 0.0663744999999949
                },
                {
                    "name": "A#4",
                    "midi": 70,
                    "time": 67.83473900000006,
                    "velocity": 0.3543307086614173,
                    "duration": 0.0663744999999949
                },
                {
                    "name": "A4",
                    "midi": 69,
                    "time": 67.96748800000005,
                    "velocity": 0.6850393700787402,
                    "duration": 0.06582137916666397
                },
                {
                    "name": "C5",
                    "midi": 72,
                    "time": 67.96748800000005,
                    "velocity": 0.6850393700787402,
                    "duration": 0.06582137916666397
                },
                {
                    "name": "A5",
                    "midi": 81,
                    "time": 67.96748800000005,
                    "velocity": 0.7637795275590551,
                    "duration": 0.06582137916666397
                },
                {
                    "name": "A4",
                    "midi": 69,
                    "time": 68.23298600000004,
                    "velocity": 0.6850393700787402,
                    "duration": 0.06582137916666397
                },
                {
                    "name": "C5",
                    "midi": 72,
                    "time": 68.23298600000004,
                    "velocity": 0.6850393700787402,
                    "duration": 0.06582137916666397
                },
                {
                    "name": "F5",
                    "midi": 77,
                    "time": 68.23298600000004,
                    "velocity": 0.7637795275590551,
                    "duration": 0.06582137916666397
                },
                {
                    "name": "A4",
                    "midi": 69,
                    "time": 68.49848400000003,
                    "velocity": 0.33858267716535434,
                    "duration": 0.2654979999999938
                },
                {
                    "name": "C5",
                    "midi": 72,
                    "time": 68.49848400000003,
                    "velocity": 0.3779527559055118,
                    "duration": 0.2654979999999938
                },
                {
                    "name": "G4",
                    "midi": 67,
                    "time": 68.76398200000003,
                    "velocity": 0.31496062992125984,
                    "duration": 0.0663744999999949
                },
                {
                    "name": "A#4",
                    "midi": 70,
                    "time": 68.76398200000003,
                    "velocity": 0.3543307086614173,
                    "duration": 0.0663744999999949
                },
                {
                    "name": "G4",
                    "midi": 67,
                    "time": 68.89673100000002,
                    "velocity": 0.31496062992125984,
                    "duration": 0.0663744999999949
                },
                {
                    "name": "A#4",
                    "midi": 70,
                    "time": 68.89673100000002,
                    "velocity": 0.3543307086614173,
                    "duration": 0.0663744999999949
                },
                {
                    "name": "F5",
                    "midi": 77,
                    "time": 69.02948,
                    "velocity": 0.7007874015748031,
                    "duration": 0.23894819999999584
                },
                {
                    "name": "A5",
                    "midi": 81,
                    "time": 69.02948,
                    "velocity": 0.7007874015748031,
                    "duration": 0.23894819999999584
                },
                {
                    "name": "C6",
                    "midi": 84,
                    "time": 69.02948,
                    "velocity": 0.7007874015748031,
                    "duration": 0.23894819999999584
                },
                {
                    "name": "F6",
                    "midi": 89,
                    "time": 69.02948,
                    "velocity": 0.7795275590551181,
                    "duration": 0.23894819999999584
                },
                {
                    "name": "F4",
                    "midi": 65,
                    "time": 69.294978,
                    "velocity": 0.7795275590551181,
                    "duration": 0.2654979999999938
                },
                {
                    "name": "F5",
                    "midi": 77,
                    "time": 69.294978,
                    "velocity": 0.7795275590551181,
                    "duration": 0.2654979999999938
                },
                {
                    "name": "A#4",
                    "midi": 70,
                    "time": 70.091472,
                    "velocity": 0.33858267716535434,
                    "duration": 0.2654979999999938
                },
                {
                    "name": "C5",
                    "midi": 72,
                    "time": 70.091472,
                    "velocity": 0.3779527559055118,
                    "duration": 0.2654979999999938
                },
                {
                    "name": "G4",
                    "midi": 67,
                    "time": 70.35696999999999,
                    "velocity": 0.31496062992125984,
                    "duration": 0.0663744999999949
                },
                {
                    "name": "C5",
                    "midi": 72,
                    "time": 70.35696999999999,
                    "velocity": 0.3543307086614173,
                    "duration": 0.0663744999999949
                },
                {
                    "name": "G4",
                    "midi": 67,
                    "time": 70.48971899999998,
                    "velocity": 0.31496062992125984,
                    "duration": 0.0663744999999949
                },
                {
                    "name": "C5",
                    "midi": 72,
                    "time": 70.48971899999998,
                    "velocity": 0.3543307086614173,
                    "duration": 0.0663744999999949
                },
                {
                    "name": "G#4",
                    "midi": 68,
                    "time": 70.62246799999997,
                    "velocity": 0.33858267716535434,
                    "duration": 0.2654979999999938
                },
                {
                    "name": "C5",
                    "midi": 72,
                    "time": 70.62246799999997,
                    "velocity": 0.3779527559055118,
                    "duration": 0.2654979999999938
                },
                {
                    "name": "F4",
                    "midi": 65,
                    "time": 70.88796599999996,
                    "velocity": 0.31496062992125984,
                    "duration": 0.0663744999999949
                },
                {
                    "name": "C5",
                    "midi": 72,
                    "time": 70.88796599999996,
                    "velocity": 0.3543307086614173,
                    "duration": 0.0663744999999949
                },
                {
                    "name": "F4",
                    "midi": 65,
                    "time": 71.02071499999995,
                    "velocity": 0.31496062992125984,
                    "duration": 0.0663744999999949
                },
                {
                    "name": "C5",
                    "midi": 72,
                    "time": 71.02071499999995,
                    "velocity": 0.3543307086614173,
                    "duration": 0.0663744999999949
                },
                {
                    "name": "F#4",
                    "midi": 66,
                    "time": 71.15346399999994,
                    "velocity": 0.33858267716535434,
                    "duration": 0.2654979999999938
                },
                {
                    "name": "G#4",
                    "midi": 68,
                    "time": 71.15346399999994,
                    "velocity": 0.3779527559055118,
                    "duration": 0.2654979999999938
                },
                {
                    "name": "C4",
                    "midi": 60,
                    "time": 71.41896199999994,
                    "velocity": 0.31496062992125984,
                    "duration": 0.0663744999999949
                },
                {
                    "name": "G#4",
                    "midi": 68,
                    "time": 71.41896199999994,
                    "velocity": 0.3543307086614173,
                    "duration": 0.0663744999999949
                },
                {
                    "name": "C4",
                    "midi": 60,
                    "time": 71.55171099999993,
                    "velocity": 0.31496062992125984,
                    "duration": 0.0663744999999949
                },
                {
                    "name": "G#4",
                    "midi": 68,
                    "time": 71.55171099999993,
                    "velocity": 0.3543307086614173,
                    "duration": 0.0663744999999949
                },
                {
                    "name": "F4",
                    "midi": 65,
                    "time": 71.68445999999992,
                    "velocity": 0.6299212598425197,
                    "duration": 0.06582137916666397
                },
                {
                    "name": "G#4",
                    "midi": 68,
                    "time": 71.68445999999992,
                    "velocity": 0.6299212598425197,
                    "duration": 0.06582137916666397
                },
                {
                    "name": "F5",
                    "midi": 77,
                    "time": 71.68445999999992,
                    "velocity": 0.7007874015748031,
                    "duration": 0.06582137916666397
                },
                {
                    "name": "F4",
                    "midi": 65,
                    "time": 71.94553303333325,
                    "velocity": 0.6299212598425197,
                    "duration": 0.06582137916666397
                },
                {
                    "name": "G#4",
                    "midi": 68,
                    "time": 71.94553303333325,
                    "velocity": 0.6299212598425197,
                    "duration": 0.06582137916666397
                },
                {
                    "name": "C#5",
                    "midi": 73,
                    "time": 71.94553303333325,
                    "velocity": 0.7007874015748031,
                    "duration": 0.06582137916666397
                },
                {
                    "name": "F#4",
                    "midi": 66,
                    "time": 72.21545599999992,
                    "velocity": 0.33858267716535434,
                    "duration": 0.2654979999999938
                },
                {
                    "name": "G#4",
                    "midi": 68,
                    "time": 72.21545599999992,
                    "velocity": 0.3779527559055118,
                    "duration": 0.2654979999999938
                },
                {
                    "name": "C4",
                    "midi": 60,
                    "time": 72.48095399999991,
                    "velocity": 0.31496062992125984,
                    "duration": 0.0663744999999949
                },
                {
                    "name": "G#4",
                    "midi": 68,
                    "time": 72.48095399999991,
                    "velocity": 0.3543307086614173,
                    "duration": 0.0663744999999949
                },
                {
                    "name": "C4",
                    "midi": 60,
                    "time": 72.6137029999999,
                    "velocity": 0.31496062992125984,
                    "duration": 0.0663744999999949
                },
                {
                    "name": "G#4",
                    "midi": 68,
                    "time": 72.6137029999999,
                    "velocity": 0.3543307086614173,
                    "duration": 0.0663744999999949
                },
                {
                    "name": "F4",
                    "midi": 65,
                    "time": 72.74645199999989,
                    "velocity": 0.6299212598425197,
                    "duration": 0.06582137916666397
                },
                {
                    "name": "G#4",
                    "midi": 68,
                    "time": 72.74645199999989,
                    "velocity": 0.6299212598425197,
                    "duration": 0.06582137916666397
                },
                {
                    "name": "F5",
                    "midi": 77,
                    "time": 72.74645199999989,
                    "velocity": 0.7007874015748031,
                    "duration": 0.06582137916666397
                },
                {
                    "name": "F4",
                    "midi": 65,
                    "time": 73.00752503333322,
                    "velocity": 0.6299212598425197,
                    "duration": 0.06582137916666397
                },
                {
                    "name": "G#4",
                    "midi": 68,
                    "time": 73.00752503333322,
                    "velocity": 0.6299212598425197,
                    "duration": 0.06582137916666397
                },
                {
                    "name": "C#5",
                    "midi": 73,
                    "time": 73.00752503333322,
                    "velocity": 0.7007874015748031,
                    "duration": 0.06582137916666397
                },
                {
                    "name": "D#5",
                    "midi": 75,
                    "time": 73.2774479999999,
                    "velocity": 0.33858267716535434,
                    "duration": 0.2654979999999938
                },
                {
                    "name": "F5",
                    "midi": 77,
                    "time": 73.2774479999999,
                    "velocity": 0.3779527559055118,
                    "duration": 0.2654979999999938
                },
                {
                    "name": "C5",
                    "midi": 72,
                    "time": 73.54294599999989,
                    "velocity": 0.31496062992125984,
                    "duration": 0.0663744999999949
                },
                {
                    "name": "F5",
                    "midi": 77,
                    "time": 73.54294599999989,
                    "velocity": 0.3543307086614173,
                    "duration": 0.0663744999999949
                },
                {
                    "name": "C5",
                    "midi": 72,
                    "time": 73.67569499999988,
                    "velocity": 0.31496062992125984,
                    "duration": 0.0663744999999949
                },
                {
                    "name": "F5",
                    "midi": 77,
                    "time": 73.67569499999988,
                    "velocity": 0.3543307086614173,
                    "duration": 0.0663744999999949
                },
                {
                    "name": "C#5",
                    "midi": 73,
                    "time": 73.80844399999987,
                    "velocity": 0.33858267716535434,
                    "duration": 0.2654979999999938
                },
                {
                    "name": "F5",
                    "midi": 77,
                    "time": 73.80844399999987,
                    "velocity": 0.3779527559055118,
                    "duration": 0.2654979999999938
                },
                {
                    "name": "A#4",
                    "midi": 70,
                    "time": 74.07394199999986,
                    "velocity": 0.31496062992125984,
                    "duration": 0.0663744999999949
                },
                {
                    "name": "F5",
                    "midi": 77,
                    "time": 74.07394199999986,
                    "velocity": 0.3543307086614173,
                    "duration": 0.0663744999999949
                },
                {
                    "name": "A#4",
                    "midi": 70,
                    "time": 74.20669099999985,
                    "velocity": 0.31496062992125984,
                    "duration": 0.0663744999999949
                },
                {
                    "name": "F5",
                    "midi": 77,
                    "time": 74.20669099999985,
                    "velocity": 0.3543307086614173,
                    "duration": 0.0663744999999949
                },
                {
                    "name": "B4",
                    "midi": 71,
                    "time": 74.33943999999984,
                    "velocity": 0.33858267716535434,
                    "duration": 0.2654979999999938
                },
                {
                    "name": "C#5",
                    "midi": 73,
                    "time": 74.33943999999984,
                    "velocity": 0.3779527559055118,
                    "duration": 0.2654979999999938
                },
                {
                    "name": "F4",
                    "midi": 65,
                    "time": 74.60493799999983,
                    "velocity": 0.31496062992125984,
                    "duration": 0.0663744999999949
                },
                {
                    "name": "C#5",
                    "midi": 73,
                    "time": 74.60493799999983,
                    "velocity": 0.3543307086614173,
                    "duration": 0.0663744999999949
                },
                {
                    "name": "F4",
                    "midi": 65,
                    "time": 74.73768699999982,
                    "velocity": 0.31496062992125984,
                    "duration": 0.0663744999999949
                },
                {
                    "name": "C#5",
                    "midi": 73,
                    "time": 74.73768699999982,
                    "velocity": 0.3543307086614173,
                    "duration": 0.0663744999999949
                },
                {
                    "name": "A#4",
                    "midi": 70,
                    "time": 74.87043599999981,
                    "velocity": 0.6692913385826772,
                    "duration": 0.06582137916666397
                },
                {
                    "name": "C#5",
                    "midi": 73,
                    "time": 74.87043599999981,
                    "velocity": 0.6692913385826772,
                    "duration": 0.06582137916666397
                },
                {
                    "name": "A#5",
                    "midi": 82,
                    "time": 74.87043599999981,
                    "velocity": 0.7480314960629921,
                    "duration": 0.06582137916666397
                },
                {
                    "name": "A#4",
                    "midi": 70,
                    "time": 75.13150903333315,
                    "velocity": 0.6614173228346457,
                    "duration": 0.06582137916666397
                },
                {
                    "name": "C#5",
                    "midi": 73,
                    "time": 75.13150903333315,
                    "velocity": 0.6614173228346457,
                    "duration": 0.06582137916666397
                },
                {
                    "name": "F#5",
                    "midi": 78,
                    "time": 75.13150903333315,
                    "velocity": 0.7401574803149606,
                    "duration": 0.06582137916666397
                },
                {
                    "name": "B4",
                    "midi": 71,
                    "time": 75.40143199999982,
                    "velocity": 0.33858267716535434,
                    "duration": 0.2654979999999938
                },
                {
                    "name": "C#5",
                    "midi": 73,
                    "time": 75.40143199999982,
                    "velocity": 0.3779527559055118,
                    "duration": 0.2654979999999938
                },
                {
                    "name": "F4",
                    "midi": 65,
                    "time": 75.66692999999981,
                    "velocity": 0.31496062992125984,
                    "duration": 0.0663744999999949
                },
                {
                    "name": "C#5",
                    "midi": 73,
                    "time": 75.66692999999981,
                    "velocity": 0.3543307086614173,
                    "duration": 0.0663744999999949
                },
                {
                    "name": "F4",
                    "midi": 65,
                    "time": 75.7996789999998,
                    "velocity": 0.31496062992125984,
                    "duration": 0.0663744999999949
                },
                {
                    "name": "C#5",
                    "midi": 73,
                    "time": 75.7996789999998,
                    "velocity": 0.3543307086614173,
                    "duration": 0.0663744999999949
                },
                {
                    "name": "A#4",
                    "midi": 70,
                    "time": 75.93242799999979,
                    "velocity": 0.6692913385826772,
                    "duration": 0.06582137916666397
                },
                {
                    "name": "C#5",
                    "midi": 73,
                    "time": 75.93242799999979,
                    "velocity": 0.6692913385826772,
                    "duration": 0.06582137916666397
                },
                {
                    "name": "A#5",
                    "midi": 82,
                    "time": 75.93242799999979,
                    "velocity": 0.7480314960629921,
                    "duration": 0.06582137916666397
                },
                {
                    "name": "A#4",
                    "midi": 70,
                    "time": 76.19350103333312,
                    "velocity": 0.6692913385826772,
                    "duration": 0.06582137916666397
                },
                {
                    "name": "C#5",
                    "midi": 73,
                    "time": 76.19350103333312,
                    "velocity": 0.6692913385826772,
                    "duration": 0.06582137916666397
                },
                {
                    "name": "F#5",
                    "midi": 78,
                    "time": 76.19350103333312,
                    "velocity": 0.7480314960629921,
                    "duration": 0.06582137916666397
                },
                {
                    "name": "A#5",
                    "midi": 82,
                    "time": 76.46342399999979,
                    "velocity": 0.36220472440944884,
                    "duration": 0.0663744999999949
                },
                {
                    "name": "A#4",
                    "midi": 70,
                    "time": 76.59617299999978,
                    "velocity": 0.31496062992125984,
                    "duration": 0.0663744999999949
                },
                {
                    "name": "F#5",
                    "midi": 78,
                    "time": 76.72892199999977,
                    "velocity": 0.31496062992125984,
                    "duration": 0.0663744999999949
                },
                {
                    "name": "C#5",
                    "midi": 73,
                    "time": 76.72892199999977,
                    "velocity": 0.28346456692913385,
                    "duration": 0.0663744999999949
                },
                {
                    "name": "A#4",
                    "midi": 70,
                    "time": 76.86167099999976,
                    "velocity": 0.31496062992125984,
                    "duration": 0.0663744999999949
                },
                {
                    "name": "F#5",
                    "midi": 78,
                    "time": 76.99441999999975,
                    "velocity": 0.3464566929133858,
                    "duration": 0.0663744999999949
                },
                {
                    "name": "F#4",
                    "midi": 66,
                    "time": 77.12716899999974,
                    "velocity": 0.30708661417322836,
                    "duration": 0.0663744999999949
                },
                {
                    "name": "B4",
                    "midi": 71,
                    "time": 77.25991799999973,
                    "velocity": 0.2677165354330709,
                    "duration": 0.0663744999999949
                },
                {
                    "name": "D5",
                    "midi": 74,
                    "time": 77.25991799999973,
                    "velocity": 0.2992125984251969,
                    "duration": 0.0663744999999949
                },
                {
                    "name": "F#4",
                    "midi": 66,
                    "time": 77.39266699999972,
                    "velocity": 0.2992125984251969,
                    "duration": 0.0663744999999949
                },
                {
                    "name": "E5",
                    "midi": 76,
                    "time": 77.52541599999971,
                    "velocity": 0.3228346456692913,
                    "duration": 0.0663744999999949
                },
                {
                    "name": "G4",
                    "midi": 67,
                    "time": 77.6581649999997,
                    "velocity": 0.28346456692913385,
                    "duration": 0.0663744999999949
                },
                {
                    "name": "A#4",
                    "midi": 70,
                    "time": 77.79091399999969,
                    "velocity": 0.25196850393700787,
                    "duration": 0.0663744999999949
                },
                {
                    "name": "C#5",
                    "midi": 73,
                    "time": 77.79091399999969,
                    "velocity": 0.28346456692913385,
                    "duration": 0.0663744999999949
                },
                {
                    "name": "G4",
                    "midi": 67,
                    "time": 77.92366299999968,
                    "velocity": 0.28346456692913385,
                    "duration": 0.0663744999999949
                },
                {
                    "name": "C#5",
                    "midi": 73,
                    "time": 78.05641199999967,
                    "velocity": 0.2992125984251969,
                    "duration": 0.0663744999999949
                },
                {
                    "name": "B4",
                    "midi": 71,
                    "time": 78.05641199999967,
                    "velocity": 0.2677165354330709,
                    "duration": 0.0663744999999949
                },
                {
                    "name": "F#4",
                    "midi": 66,
                    "time": 78.18916099999966,
                    "velocity": 0.25196850393700787,
                    "duration": 0.0663744999999949
                },
                {
                    "name": "B4",
                    "midi": 71,
                    "time": 78.32190999999965,
                    "velocity": 0.2204724409448819,
                    "duration": 0.0663744999999949
                },
                {
                    "name": "D5",
                    "midi": 74,
                    "time": 78.32190999999965,
                    "velocity": 0.25196850393700787,
                    "duration": 0.0663744999999949
                },
                {
                    "name": "F#4",
                    "midi": 66,
                    "time": 78.45465899999964,
                    "velocity": 0.25196850393700787,
                    "duration": 0.0663744999999949
                },
                {
                    "name": "G5",
                    "midi": 79,
                    "time": 78.58740799999963,
                    "velocity": 0.31496062992125984,
                    "duration": 0.0663744999999949
                },
                {
                    "name": "A#4",
                    "midi": 70,
                    "time": 78.72015699999962,
                    "velocity": 0.28346456692913385,
                    "duration": 0.0663744999999949
                },
                {
                    "name": "C#5",
                    "midi": 73,
                    "time": 78.8529059999996,
                    "velocity": 0.25196850393700787,
                    "duration": 0.0663744999999949
                },
                {
                    "name": "E5",
                    "midi": 76,
                    "time": 78.8529059999996,
                    "velocity": 0.28346456692913385,
                    "duration": 0.0663744999999949
                },
                {
                    "name": "A#4",
                    "midi": 70,
                    "time": 78.9856549999996,
                    "velocity": 0.28346456692913385,
                    "duration": 0.0663744999999949
                },
                {
                    "name": "C#5",
                    "midi": 73,
                    "time": 79.11840399999959,
                    "velocity": 0.2755905511811024,
                    "duration": 0.0663744999999949
                },
                {
                    "name": "F#5",
                    "midi": 78,
                    "time": 79.11840399999959,
                    "velocity": 0.30708661417322836,
                    "duration": 0.0663744999999949
                },
                {
                    "name": "A#4",
                    "midi": 70,
                    "time": 79.25115299999958,
                    "velocity": 0.25196850393700787,
                    "duration": 0.0663744999999949
                },
                {
                    "name": "D5",
                    "midi": 74,
                    "time": 79.38390199999957,
                    "velocity": 0.2204724409448819,
                    "duration": 0.0663744999999949
                },
                {
                    "name": "F#5",
                    "midi": 78,
                    "time": 79.38390199999957,
                    "velocity": 0.25196850393700787,
                    "duration": 0.0663744999999949
                },
                {
                    "name": "B4",
                    "midi": 71,
                    "time": 79.51665099999956,
                    "velocity": 0.25196850393700787,
                    "duration": 0.0663744999999949
                },
                {
                    "name": "B5",
                    "midi": 83,
                    "time": 79.64939999999955,
                    "velocity": 0.36220472440944884,
                    "duration": 0.0663744999999949
                },
                {
                    "name": "B4",
                    "midi": 71,
                    "time": 79.78214899999954,
                    "velocity": 0.31496062992125984,
                    "duration": 0.0663744999999949
                },
                {
                    "name": "D5",
                    "midi": 74,
                    "time": 79.91489799999952,
                    "velocity": 0.28346456692913385,
                    "duration": 0.0663744999999949
                },
                {
                    "name": "G5",
                    "midi": 79,
                    "time": 79.91489799999952,
                    "velocity": 0.31496062992125984,
                    "duration": 0.0663744999999949
                },
                {
                    "name": "B4",
                    "midi": 71,
                    "time": 80.04764699999951,
                    "velocity": 0.31496062992125984,
                    "duration": 0.0663744999999949
                },
                {
                    "name": "G5",
                    "midi": 79,
                    "time": 80.1803959999995,
                    "velocity": 0.3464566929133858,
                    "duration": 0.0663744999999949
                },
                {
                    "name": "G4",
                    "midi": 67,
                    "time": 80.3131449999995,
                    "velocity": 0.25984251968503935,
                    "duration": 0.0663744999999949
                },
                {
                    "name": "C5",
                    "midi": 72,
                    "time": 80.44589399999948,
                    "velocity": 0.2677165354330709,
                    "duration": 0.0663744999999949
                },
                {
                    "name": "D#5",
                    "midi": 75,
                    "time": 80.44589399999948,
                    "velocity": 0.2992125984251969,
                    "duration": 0.0663744999999949
                },
                {
                    "name": "G4",
                    "midi": 67,
                    "time": 80.57864299999947,
                    "velocity": 0.2992125984251969,
                    "duration": 0.0663744999999949
                },
                {
                    "name": "F5",
                    "midi": 77,
                    "time": 80.71139199999946,
                    "velocity": 0.3228346456692913,
                    "duration": 0.0663744999999949
                },
                {
                    "name": "G#4",
                    "midi": 68,
                    "time": 80.84414099999945,
                    "velocity": 0.29133858267716534,
                    "duration": 0.0663744999999949
                },
                {
                    "name": "B4",
                    "midi": 71,
                    "time": 80.97688999999944,
                    "velocity": 0.25984251968503935,
                    "duration": 0.0663744999999949
                },
                {
                    "name": "D5",
                    "midi": 74,
                    "time": 80.97688999999944,
                    "velocity": 0.29133858267716534,
                    "duration": 0.0663744999999949
                },
                {
                    "name": "G#4",
                    "midi": 68,
                    "time": 81.10963899999943,
                    "velocity": 0.29133858267716534,
                    "duration": 0.0663744999999949
                },
                {
                    "name": "D5",
                    "midi": 74,
                    "time": 81.24238799999942,
                    "velocity": 0.31496062992125984,
                    "duration": 0.0663744999999949
                },
                {
                    "name": "C5",
                    "midi": 72,
                    "time": 81.24238799999942,
                    "velocity": 0.28346456692913385,
                    "duration": 0.0663744999999949
                },
                {
                    "name": "G4",
                    "midi": 67,
                    "time": 81.37513699999941,
                    "velocity": 0.25984251968503935,
                    "duration": 0.0663744999999949
                },
                {
                    "name": "C5",
                    "midi": 72,
                    "time": 81.5078859999994,
                    "velocity": 0.2283464566929134,
                    "duration": 0.0663744999999949
                },
                {
                    "name": "D#5",
                    "midi": 75,
                    "time": 81.5078859999994,
                    "velocity": 0.25984251968503935,
                    "duration": 0.0663744999999949
                },
                {
                    "name": "G4",
                    "midi": 67,
                    "time": 81.64063499999939,
                    "velocity": 0.25984251968503935,
                    "duration": 0.0663744999999949
                },
                {
                    "name": "G#5",
                    "midi": 80,
                    "time": 81.77338399999938,
                    "velocity": 0.3464566929133858,
                    "duration": 0.0663744999999949
                },
                {
                    "name": "B4",
                    "midi": 71,
                    "time": 81.90613299999937,
                    "velocity": 0.29133858267716534,
                    "duration": 0.0663744999999949
                },
                {
                    "name": "D5",
                    "midi": 74,
                    "time": 82.03888199999936,
                    "velocity": 0.25984251968503935,
                    "duration": 0.0663744999999949
                },
                {
                    "name": "F5",
                    "midi": 77,
                    "time": 82.03888199999936,
                    "velocity": 0.29133858267716534,
                    "duration": 0.0663744999999949
                },
                {
                    "name": "B4",
                    "midi": 71,
                    "time": 82.17163099999935,
                    "velocity": 0.2755905511811024,
                    "duration": 0.0663744999999949
                },
                {
                    "name": "D5",
                    "midi": 74,
                    "time": 82.30437999999934,
                    "velocity": 0.28346456692913385,
                    "duration": 0.0663744999999949
                },
                {
                    "name": "G5",
                    "midi": 79,
                    "time": 82.30437999999934,
                    "velocity": 0.31496062992125984,
                    "duration": 0.0663744999999949
                },
                {
                    "name": "B4",
                    "midi": 71,
                    "time": 82.43712899999933,
                    "velocity": 0.28346456692913385,
                    "duration": 0.0663744999999949
                },
                {
                    "name": "D#5",
                    "midi": 75,
                    "time": 82.56987799999932,
                    "velocity": 0.25196850393700787,
                    "duration": 0.0663744999999949
                },
                {
                    "name": "G5",
                    "midi": 79,
                    "time": 82.56987799999932,
                    "velocity": 0.28346456692913385,
                    "duration": 0.0663744999999949
                },
                {
                    "name": "C5",
                    "midi": 72,
                    "time": 82.70262699999931,
                    "velocity": 0.28346456692913385,
                    "duration": 0.0663744999999949
                },
                {
                    "name": "A#4",
                    "midi": 70,
                    "time": 82.8353759999993,
                    "velocity": 0.3543307086614173,
                    "duration": 0.0663744999999949
                },
                {
                    "name": "D#5",
                    "midi": 75,
                    "time": 82.96812499999929,
                    "velocity": 0.3228346456692913,
                    "duration": 0.0663744999999949
                },
                {
                    "name": "D5",
                    "midi": 74,
                    "time": 83.10087399999928,
                    "velocity": 0.3228346456692913,
                    "duration": 0.0663744999999949
                },
                {
                    "name": "D#5",
                    "midi": 75,
                    "time": 83.23362299999927,
                    "velocity": 0.3228346456692913,
                    "duration": 0.0663744999999949
                },
                {
                    "name": "D#5",
                    "midi": 75,
                    "time": 83.36637199999926,
                    "velocity": 0.3779527559055118,
                    "duration": 0.0663744999999949
                },
                {
                    "name": "G#5",
                    "midi": 80,
                    "time": 83.49912099999925,
                    "velocity": 0.3543307086614173,
                    "duration": 0.0663744999999949
                },
                {
                    "name": "G5",
                    "midi": 79,
                    "time": 83.63186999999924,
                    "velocity": 0.3543307086614173,
                    "duration": 0.0663744999999949
                },
                {
                    "name": "G#5",
                    "midi": 80,
                    "time": 83.76461899999923,
                    "velocity": 0.3543307086614173,
                    "duration": 0.0663744999999949
                },
                {
                    "name": "D#6",
                    "midi": 87,
                    "time": 83.89736799999922,
                    "velocity": 0.4251968503937008,
                    "duration": 0.0663744999999949
                },
                {
                    "name": "D#5",
                    "midi": 75,
                    "time": 84.03011699999921,
                    "velocity": 0.3543307086614173,
                    "duration": 0.0663744999999949
                },
                {
                    "name": "G5",
                    "midi": 79,
                    "time": 84.1628659999992,
                    "velocity": 0.3543307086614173,
                    "duration": 0.0663744999999949
                },
                {
                    "name": "D#5",
                    "midi": 75,
                    "time": 84.29561499999919,
                    "velocity": 0.3543307086614173,
                    "duration": 0.0663744999999949
                },
                {
                    "name": "D#5",
                    "midi": 75,
                    "time": 84.42836399999918,
                    "velocity": 0.3937007874015748,
                    "duration": 0.0663744999999949
                },
                {
                    "name": "G#5",
                    "midi": 80,
                    "time": 84.56111299999917,
                    "velocity": 0.3228346456692913,
                    "duration": 0.0663744999999949
                },
                {
                    "name": "G5",
                    "midi": 79,
                    "time": 84.69386199999916,
                    "velocity": 0.3228346456692913,
                    "duration": 0.0663744999999949
                },
                {
                    "name": "G#5",
                    "midi": 80,
                    "time": 84.82661099999915,
                    "velocity": 0.3228346456692913,
                    "duration": 0.0663744999999949
                },
                {
                    "name": "F#5",
                    "midi": 78,
                    "time": 84.95935999999914,
                    "velocity": 0.3779527559055118,
                    "duration": 0.0663744999999949
                },
                {
                    "name": "F#4",
                    "midi": 66,
                    "time": 85.09210899999913,
                    "velocity": 0.33070866141732286,
                    "duration": 0.0663744999999949
                },
                {
                    "name": "A#4",
                    "midi": 70,
                    "time": 85.22485799999912,
                    "velocity": 0.33070866141732286,
                    "duration": 0.0663744999999949
                },
                {
                    "name": "F#4",
                    "midi": 66,
                    "time": 85.3576069999991,
                    "velocity": 0.33070866141732286,
                    "duration": 0.0663744999999949
                },
                {
                    "name": "F#4",
                    "midi": 66,
                    "time": 85.4903559999991,
                    "velocity": 0.3700787401574803,
                    "duration": 0.0663744999999949
                },
                {
                    "name": "B4",
                    "midi": 71,
                    "time": 85.62310499999909,
                    "velocity": 0.33858267716535434,
                    "duration": 0.0663744999999949
                },
                {
                    "name": "A#4",
                    "midi": 70,
                    "time": 85.75585399999908,
                    "velocity": 0.33858267716535434,
                    "duration": 0.0663744999999949
                },
                {
                    "name": "B4",
                    "midi": 71,
                    "time": 85.88860299999907,
                    "velocity": 0.3464566929133858,
                    "duration": 0.0663744999999949
                },
                {
                    "name": "B4",
                    "midi": 71,
                    "time": 86.02135199999906,
                    "velocity": 0.4015748031496063,
                    "duration": 0.0663744999999949
                },
                {
                    "name": "E5",
                    "midi": 76,
                    "time": 86.15410099999905,
                    "velocity": 0.3700787401574803,
                    "duration": 0.0663744999999949
                },
                {
                    "name": "D#5",
                    "midi": 75,
                    "time": 86.28684999999903,
                    "velocity": 0.3700787401574803,
                    "duration": 0.0663744999999949
                },
                {
                    "name": "E5",
                    "midi": 76,
                    "time": 86.41959899999902,
                    "velocity": 0.3779527559055118,
                    "duration": 0.0663744999999949
                },
                {
                    "name": "E5",
                    "midi": 76,
                    "time": 86.55234799999901,
                    "velocity": 0.4645669291338583,
                    "duration": 0.0663744999999949
                },
                {
                    "name": "A5",
                    "midi": 81,
                    "time": 86.685096999999,
                    "velocity": 0.4251968503937008,
                    "duration": 0.0663744999999949
                },
                {
                    "name": "G#5",
                    "midi": 80,
                    "time": 86.817845999999,
                    "velocity": 0.4251968503937008,
                    "duration": 0.0663744999999949
                },
                {
                    "name": "A5",
                    "midi": 81,
                    "time": 86.95059499999898,
                    "velocity": 0.4251968503937008,
                    "duration": 0.0663744999999949
                },
                {
                    "name": "E6",
                    "midi": 88,
                    "time": 87.08334399999897,
                    "velocity": 0.5590551181102362,
                    "duration": 0.0663744999999949
                },
                {
                    "name": "E5",
                    "midi": 76,
                    "time": 87.21609299999896,
                    "velocity": 0.47244094488188976,
                    "duration": 0.0663744999999949
                },
                {
                    "name": "G#5",
                    "midi": 80,
                    "time": 87.34884199999895,
                    "velocity": 0.48031496062992124,
                    "duration": 0.0663744999999949
                },
                {
                    "name": "E5",
                    "midi": 76,
                    "time": 87.48159099999894,
                    "velocity": 0.48031496062992124,
                    "duration": 0.0663744999999949
                },
                {
                    "name": "E5",
                    "midi": 76,
                    "time": 87.61433999999893,
                    "velocity": 0.5118110236220472,
                    "duration": 0.0663744999999949
                },
                {
                    "name": "A5",
                    "midi": 81,
                    "time": 87.74708899999892,
                    "velocity": 0.47244094488188976,
                    "duration": 0.0663744999999949
                },
                {
                    "name": "G#5",
                    "midi": 80,
                    "time": 87.87983799999891,
                    "velocity": 0.47244094488188976,
                    "duration": 0.0663744999999949
                },
                {
                    "name": "A5",
                    "midi": 81,
                    "time": 88.0125869999989,
                    "velocity": 0.47244094488188976,
                    "duration": 0.0663744999999949
                },
                {
                    "name": "G5",
                    "midi": 79,
                    "time": 88.14533599999889,
                    "velocity": 0.5433070866141733,
                    "duration": 0.0663744999999949
                },
                {
                    "name": "G4",
                    "midi": 67,
                    "time": 88.27808499999888,
                    "velocity": 0.4881889763779528,
                    "duration": 0.0663744999999949
                },
                {
                    "name": "B4",
                    "midi": 71,
                    "time": 88.41083399999887,
                    "velocity": 0.4881889763779528,
                    "duration": 0.0663744999999949
                },
                {
                    "name": "G4",
                    "midi": 67,
                    "time": 88.54358299999886,
                    "velocity": 0.4881889763779528,
                    "duration": 0.0663744999999949
                },
                {
                    "name": "G4",
                    "midi": 67,
                    "time": 88.67633199999885,
                    "velocity": 0.5275590551181102,
                    "duration": 0.0663744999999949
                },
                {
                    "name": "C5",
                    "midi": 72,
                    "time": 88.80908099999884,
                    "velocity": 0.4566929133858268,
                    "duration": 0.0663744999999949
                },
                {
                    "name": "B4",
                    "midi": 71,
                    "time": 88.94182999999883,
                    "velocity": 0.4566929133858268,
                    "duration": 0.0663744999999949
                },
                {
                    "name": "C5",
                    "midi": 72,
                    "time": 89.07457899999882,
                    "velocity": 0.4566929133858268,
                    "duration": 0.06360889583334028
                },
                {
                    "name": "C#5",
                    "midi": 73,
                    "time": 89.20732799999882,
                    "velocity": 0.6377952755905512,
                    "duration": 0.2654979999999938
                },
                {
                    "name": "C5",
                    "midi": 72,
                    "time": 89.47282599999882,
                    "velocity": 0.5433070866141733,
                    "duration": 0.09956175000000655
                },
                {
                    "name": "C#5",
                    "midi": 73,
                    "time": 89.47282599999882,
                    "velocity": 0.6062992125984252,
                    "duration": 0.09956175000000655
                },
                {
                    "name": "A#4",
                    "midi": 70,
                    "time": 89.60557499999882,
                    "velocity": 0.5433070866141733,
                    "duration": 0.09956175000000655
                },
                {
                    "name": "C#5",
                    "midi": 73,
                    "time": 89.60557499999882,
                    "velocity": 0.6062992125984252,
                    "duration": 0.09956175000000655
                },
                {
                    "name": "A#4",
                    "midi": 70,
                    "time": 89.73832399999883,
                    "velocity": 0.5669291338582677,
                    "duration": 0.2654979999999938
                },
                {
                    "name": "C#5",
                    "midi": 73,
                    "time": 89.73832399999883,
                    "velocity": 0.6377952755905512,
                    "duration": 0.2654979999999938
                },
                {
                    "name": "G#4",
                    "midi": 68,
                    "time": 90.00382199999882,
                    "velocity": 0.5511811023622047,
                    "duration": 0.09956175000000655
                },
                {
                    "name": "C#5",
                    "midi": 73,
                    "time": 90.00382199999882,
                    "velocity": 0.6141732283464567,
                    "duration": 0.09956175000000655
                },
                {
                    "name": "G4",
                    "midi": 67,
                    "time": 90.13657099999882,
                    "velocity": 0.5511811023622047,
                    "duration": 0.09956175000000655
                },
                {
                    "name": "C#5",
                    "midi": 73,
                    "time": 90.13657099999882,
                    "velocity": 0.6141732283464567,
                    "duration": 0.09956175000000655
                },
                {
                    "name": "G4",
                    "midi": 67,
                    "time": 90.26931999999883,
                    "velocity": 0.5669291338582677,
                    "duration": 0.2654979999999938
                },
                {
                    "name": "A#4",
                    "midi": 70,
                    "time": 90.26931999999883,
                    "velocity": 0.5669291338582677,
                    "duration": 0.2654979999999938
                },
                {
                    "name": "C#5",
                    "midi": 73,
                    "time": 90.26931999999883,
                    "velocity": 0.6377952755905512,
                    "duration": 0.2654979999999938
                },
                {
                    "name": "F4",
                    "midi": 65,
                    "time": 90.53481799999882,
                    "velocity": 0.5433070866141733,
                    "duration": 0.09956175000000655
                },
                {
                    "name": "G#4",
                    "midi": 68,
                    "time": 90.53481799999882,
                    "velocity": 0.5433070866141733,
                    "duration": 0.09956175000000655
                },
                {
                    "name": "C#5",
                    "midi": 73,
                    "time": 90.53481799999882,
                    "velocity": 0.6062992125984252,
                    "duration": 0.09956175000000655
                },
                {
                    "name": "E4",
                    "midi": 64,
                    "time": 90.66756699999883,
                    "velocity": 0.5433070866141733,
                    "duration": 0.09568990416666168
                },
                {
                    "name": "G4",
                    "midi": 67,
                    "time": 90.66756699999883,
                    "velocity": 0.5433070866141733,
                    "duration": 0.09568990416666168
                },
                {
                    "name": "C#5",
                    "midi": 73,
                    "time": 90.66756699999883,
                    "velocity": 0.6062992125984252,
                    "duration": 0.09568990416666168
                },
                {
                    "name": "C6",
                    "midi": 84,
                    "time": 90.80031599999882,
                    "velocity": 0.7637795275590551,
                    "duration": 0.2654979999999938
                },
                {
                    "name": "A#5",
                    "midi": 82,
                    "time": 90.80031599999882,
                    "velocity": 0.6850393700787402,
                    "duration": 0.2654979999999938
                },
                {
                    "name": "G5",
                    "midi": 79,
                    "time": 90.80031599999882,
                    "velocity": 0.6850393700787402,
                    "duration": 0.2654979999999938
                },
                {
                    "name": "F5",
                    "midi": 77,
                    "time": 91.06581399999881,
                    "velocity": 0.6220472440944882,
                    "duration": 0.09956175000000655
                },
                {
                    "name": "G#5",
                    "midi": 80,
                    "time": 91.06581399999881,
                    "velocity": 0.6220472440944882,
                    "duration": 0.09956175000000655
                },
                {
                    "name": "C6",
                    "midi": 84,
                    "time": 91.06581399999881,
                    "velocity": 0.6929133858267716,
                    "duration": 0.09956175000000655
                },
                {
                    "name": "E5",
                    "midi": 76,
                    "time": 91.19856299999881,
                    "velocity": 0.6377952755905512,
                    "duration": 0.09568990416666168
                },
                {
                    "name": "G5",
                    "midi": 79,
                    "time": 91.19856299999881,
                    "velocity": 0.6377952755905512,
                    "duration": 0.09568990416666168
                },
                {
                    "name": "C6",
                    "midi": 84,
                    "time": 91.19856299999881,
                    "velocity": 0.7165354330708661,
                    "duration": 0.09568990416666168
                },
                {
                    "name": "C#5",
                    "midi": 73,
                    "time": 91.3313119999988,
                    "velocity": 0.6377952755905512,
                    "duration": 0.2654979999999938
                },
                {
                    "name": "C5",
                    "midi": 72,
                    "time": 91.5968099999988,
                    "velocity": 0.5433070866141733,
                    "duration": 0.09956175000000655
                },
                {
                    "name": "C#5",
                    "midi": 73,
                    "time": 91.5968099999988,
                    "velocity": 0.6062992125984252,
                    "duration": 0.09956175000000655
                },
                {
                    "name": "A#4",
                    "midi": 70,
                    "time": 91.7295589999988,
                    "velocity": 0.5433070866141733,
                    "duration": 0.09956175000000655
                },
                {
                    "name": "C#5",
                    "midi": 73,
                    "time": 91.7295589999988,
                    "velocity": 0.6062992125984252,
                    "duration": 0.09956175000000655
                },
                {
                    "name": "A#4",
                    "midi": 70,
                    "time": 91.8623079999988,
                    "velocity": 0.5669291338582677,
                    "duration": 0.2654979999999938
                },
                {
                    "name": "C#5",
                    "midi": 73,
                    "time": 91.8623079999988,
                    "velocity": 0.6377952755905512,
                    "duration": 0.2654979999999938
                },
                {
                    "name": "G#4",
                    "midi": 68,
                    "time": 92.1278059999988,
                    "velocity": 0.5511811023622047,
                    "duration": 0.09956175000000655
                },
                {
                    "name": "C#5",
                    "midi": 73,
                    "time": 92.1278059999988,
                    "velocity": 0.6141732283464567,
                    "duration": 0.09956175000000655
                },
                {
                    "name": "G4",
                    "midi": 67,
                    "time": 92.2605549999988,
                    "velocity": 0.5511811023622047,
                    "duration": 0.09956175000000655
                },
                {
                    "name": "C#5",
                    "midi": 73,
                    "time": 92.2605549999988,
                    "velocity": 0.6141732283464567,
                    "duration": 0.09956175000000655
                },
                {
                    "name": "G4",
                    "midi": 67,
                    "time": 92.3933039999988,
                    "velocity": 0.5669291338582677,
                    "duration": 0.2654979999999938
                },
                {
                    "name": "A#4",
                    "midi": 70,
                    "time": 92.3933039999988,
                    "velocity": 0.5669291338582677,
                    "duration": 0.2654979999999938
                },
                {
                    "name": "C#5",
                    "midi": 73,
                    "time": 92.3933039999988,
                    "velocity": 0.6377952755905512,
                    "duration": 0.2654979999999938
                },
                {
                    "name": "F4",
                    "midi": 65,
                    "time": 92.6588019999988,
                    "velocity": 0.5433070866141733,
                    "duration": 0.09956175000000655
                },
                {
                    "name": "G#4",
                    "midi": 68,
                    "time": 92.6588019999988,
                    "velocity": 0.5433070866141733,
                    "duration": 0.09956175000000655
                },
                {
                    "name": "C#5",
                    "midi": 73,
                    "time": 92.6588019999988,
                    "velocity": 0.6062992125984252,
                    "duration": 0.09956175000000655
                },
                {
                    "name": "E4",
                    "midi": 64,
                    "time": 92.7915509999988,
                    "velocity": 0.5433070866141733,
                    "duration": 0.09568990416666168
                },
                {
                    "name": "G4",
                    "midi": 67,
                    "time": 92.7915509999988,
                    "velocity": 0.5433070866141733,
                    "duration": 0.09568990416666168
                },
                {
                    "name": "C#5",
                    "midi": 73,
                    "time": 92.7915509999988,
                    "velocity": 0.6062992125984252,
                    "duration": 0.09568990416666168
                },
                {
                    "name": "C6",
                    "midi": 84,
                    "time": 92.9242999999988,
                    "velocity": 0.8031496062992126,
                    "duration": 0.2654979999999938
                },
                {
                    "name": "A#5",
                    "midi": 82,
                    "time": 92.9242999999988,
                    "velocity": 0.7165354330708661,
                    "duration": 0.2654979999999938
                },
                {
                    "name": "G5",
                    "midi": 79,
                    "time": 92.9242999999988,
                    "velocity": 0.7165354330708661,
                    "duration": 0.2654979999999938
                },
                {
                    "name": "F5",
                    "midi": 77,
                    "time": 93.18979799999879,
                    "velocity": 0.6456692913385826,
                    "duration": 0.09956175000000655
                },
                {
                    "name": "G#5",
                    "midi": 80,
                    "time": 93.18979799999879,
                    "velocity": 0.6456692913385826,
                    "duration": 0.09956175000000655
                },
                {
                    "name": "C6",
                    "midi": 84,
                    "time": 93.18979799999879,
                    "velocity": 0.7244094488188977,
                    "duration": 0.09956175000000655
                },
                {
                    "name": "E5",
                    "midi": 76,
                    "time": 93.32254699999879,
                    "velocity": 0.6456692913385826,
                    "duration": 0.09568990416666168
                },
                {
                    "name": "G5",
                    "midi": 79,
                    "time": 93.32254699999879,
                    "velocity": 0.6456692913385826,
                    "duration": 0.09568990416666168
                },
                {
                    "name": "C6",
                    "midi": 84,
                    "time": 93.32254699999879,
                    "velocity": 0.7244094488188977,
                    "duration": 0.09568990416666168
                },
                {
                    "name": "G4",
                    "midi": 67,
                    "time": 93.45529599999878,
                    "velocity": 0.3937007874015748,
                    "duration": 0.2654979999999938
                },
                {
                    "name": "A#4",
                    "midi": 70,
                    "time": 93.45529599999878,
                    "velocity": 0.3937007874015748,
                    "duration": 0.2654979999999938
                },
                {
                    "name": "C#5",
                    "midi": 73,
                    "time": 93.45529599999878,
                    "velocity": 0.4409448818897638,
                    "duration": 0.2654979999999938
                },
                {
                    "name": "F4",
                    "midi": 65,
                    "time": 93.72079399999878,
                    "velocity": 0.3464566929133858,
                    "duration": 0.09956175000000655
                },
                {
                    "name": "G#4",
                    "midi": 68,
                    "time": 93.72079399999878,
                    "velocity": 0.3464566929133858,
                    "duration": 0.09956175000000655
                },
                {
                    "name": "C#5",
                    "midi": 73,
                    "time": 93.72079399999878,
                    "velocity": 0.3858267716535433,
                    "duration": 0.09956175000000655
                },
                {
                    "name": "E4",
                    "midi": 64,
                    "time": 93.85354299999878,
                    "velocity": 0.3464566929133858,
                    "duration": 0.09568990416666168
                },
                {
                    "name": "G4",
                    "midi": 67,
                    "time": 93.85354299999878,
                    "velocity": 0.3464566929133858,
                    "duration": 0.09568990416666168
                },
                {
                    "name": "C#5",
                    "midi": 73,
                    "time": 93.85354299999878,
                    "velocity": 0.3858267716535433,
                    "duration": 0.09568990416666168
                },
                {
                    "name": "C6",
                    "midi": 84,
                    "time": 93.98629199999877,
                    "velocity": 0.7874015748031497,
                    "duration": 0.2654979999999938
                },
                {
                    "name": "A#5",
                    "midi": 82,
                    "time": 93.98629199999877,
                    "velocity": 0.7086614173228346,
                    "duration": 0.2654979999999938
                },
                {
                    "name": "G5",
                    "midi": 79,
                    "time": 93.98629199999877,
                    "velocity": 0.7086614173228346,
                    "duration": 0.2654979999999938
                },
                {
                    "name": "F5",
                    "midi": 77,
                    "time": 94.25178999999876,
                    "velocity": 0.6456692913385826,
                    "duration": 0.09956175000000655
                },
                {
                    "name": "G#5",
                    "midi": 80,
                    "time": 94.25178999999876,
                    "velocity": 0.6456692913385826,
                    "duration": 0.09956175000000655
                },
                {
                    "name": "C6",
                    "midi": 84,
                    "time": 94.25178999999876,
                    "velocity": 0.7244094488188977,
                    "duration": 0.09956175000000655
                },
                {
                    "name": "E5",
                    "midi": 76,
                    "time": 94.38453899999877,
                    "velocity": 0.6456692913385826,
                    "duration": 0.09568990416666168
                },
                {
                    "name": "G5",
                    "midi": 79,
                    "time": 94.38453899999877,
                    "velocity": 0.6456692913385826,
                    "duration": 0.09568990416666168
                },
                {
                    "name": "C6",
                    "midi": 84,
                    "time": 94.38453899999877,
                    "velocity": 0.7244094488188977,
                    "duration": 0.09568990416666168
                },
                {
                    "name": "C4",
                    "midi": 60,
                    "time": 94.51728799999876,
                    "velocity": 0.3779527559055118,
                    "duration": 0.132749000000004
                },
                {
                    "name": "C#4",
                    "midi": 61,
                    "time": 94.78278599999877,
                    "velocity": 0.3543307086614173,
                    "duration": 0.0663744999999949
                },
                {
                    "name": "C4",
                    "midi": 60,
                    "time": 94.91553499999875,
                    "velocity": 0.3543307086614173,
                    "duration": 0.0663744999999949
                },
                {
                    "name": "C#4",
                    "midi": 61,
                    "time": 95.04828399999874,
                    "velocity": 0.3779527559055118,
                    "duration": 0.132749000000004
                },
                {
                    "name": "C4",
                    "midi": 60,
                    "time": 95.31378199999875,
                    "velocity": 0.3543307086614173,
                    "duration": 0.0663744999999949
                },
                {
                    "name": "D4",
                    "midi": 62,
                    "time": 95.44653099999874,
                    "velocity": 0.3543307086614173,
                    "duration": 0.0663744999999949
                },
                {
                    "name": "E4",
                    "midi": 64,
                    "time": 95.57927999999873,
                    "velocity": 0.3779527559055118,
                    "duration": 0.132749000000004
                },
                {
                    "name": "F4",
                    "midi": 65,
                    "time": 95.84477799999874,
                    "velocity": 0.3543307086614173,
                    "duration": 0.0663744999999949
                },
                {
                    "name": "E4",
                    "midi": 64,
                    "time": 95.97752699999873,
                    "velocity": 0.3543307086614173,
                    "duration": 0.0663744999999949
                },
                {
                    "name": "F4",
                    "midi": 65,
                    "time": 96.11027599999872,
                    "velocity": 0.3779527559055118,
                    "duration": 0.132749000000004
                },
                {
                    "name": "E4",
                    "midi": 64,
                    "time": 96.37577399999873,
                    "velocity": 0.3937007874015748,
                    "duration": 0.0663744999999949
                },
                {
                    "name": "F#4",
                    "midi": 66,
                    "time": 96.50852299999872,
                    "velocity": 0.4094488188976378,
                    "duration": 0.0663744999999949
                },
                {
                    "name": "G4",
                    "midi": 67,
                    "time": 96.64127199999871,
                    "velocity": 0.4251968503937008,
                    "duration": 0.2654979999999938
                },
                {
                    "name": "G#4",
                    "midi": 68,
                    "time": 96.9067699999987,
                    "velocity": 0.4409448818897638,
                    "duration": 0.132749000000004
                },
                {
                    "name": "G4",
                    "midi": 67,
                    "time": 97.0395189999987,
                    "velocity": 0.4566929133858268,
                    "duration": 0.132749000000004
                },
                {
                    "name": "A#4",
                    "midi": 70,
                    "time": 97.17226799999871,
                    "velocity": 0.47244094488188976,
                    "duration": 0.2654979999999938
                },
                {
                    "name": "G#4",
                    "midi": 68,
                    "time": 97.4377659999987,
                    "velocity": 0.49606299212598426,
                    "duration": 0.132749000000004
                },
                {
                    "name": "C#5",
                    "midi": 73,
                    "time": 97.57051499999871,
                    "velocity": 0.5039370078740157,
                    "duration": 0.132749000000004
                },
                {
                    "name": "C5",
                    "midi": 72,
                    "time": 97.70326399999871,
                    "velocity": 0.5196850393700787,
                    "duration": 0.2654979999999938
                },
                {
                    "name": "D5",
                    "midi": 74,
                    "time": 97.9687619999987,
                    "velocity": 0.5511811023622047,
                    "duration": 0.132749000000004
                },
                {
                    "name": "D#5",
                    "midi": 75,
                    "time": 98.10151099999871,
                    "velocity": 0.5669291338582677,
                    "duration": 0.132749000000004
                },
                {
                    "name": "E5",
                    "midi": 76,
                    "time": 98.23425999999871,
                    "velocity": 0.5669291338582677,
                    "duration": 0.2654979999999938
                },
                {
                    "name": "F5",
                    "midi": 77,
                    "time": 98.4997579999987,
                    "velocity": 0.5984251968503937,
                    "duration": 0.132749000000004
                },
                {
                    "name": "G5",
                    "midi": 79,
                    "time": 98.63250699999871,
                    "velocity": 0.6141732283464567,
                    "duration": 0.132749000000004
                },
                {
                    "name": "C5",
                    "midi": 72,
                    "time": 98.76525599999871,
                    "velocity": 0.5669291338582677,
                    "duration": 0.2654979999999938
                },
                {
                    "name": "G#4",
                    "midi": 68,
                    "time": 98.76525599999871,
                    "velocity": 0.5669291338582677,
                    "duration": 0.2654979999999938
                },
                {
                    "name": "G#5",
                    "midi": 80,
                    "time": 98.76525599999871,
                    "velocity": 0.6377952755905512,
                    "duration": 0.2654979999999938
                },
                {
                    "name": "G5",
                    "midi": 79,
                    "time": 99.03075399999871,
                    "velocity": 0.6062992125984252,
                    "duration": 0.0663744999999949
                },
                {
                    "name": "C5",
                    "midi": 72,
                    "time": 99.03075399999871,
                    "velocity": 0.5433070866141733,
                    "duration": 0.0663744999999949
                },
                {
                    "name": "G#4",
                    "midi": 68,
                    "time": 99.03075399999871,
                    "velocity": 0.5433070866141733,
                    "duration": 0.0663744999999949
                },
                {
                    "name": "F5",
                    "midi": 77,
                    "time": 99.1635029999987,
                    "velocity": 0.6062992125984252,
                    "duration": 0.0663744999999949
                },
                {
                    "name": "C5",
                    "midi": 72,
                    "time": 99.1635029999987,
                    "velocity": 0.5433070866141733,
                    "duration": 0.0663744999999949
                },
                {
                    "name": "G#4",
                    "midi": 68,
                    "time": 99.1635029999987,
                    "velocity": 0.5433070866141733,
                    "duration": 0.0663744999999949
                },
                {
                    "name": "F5",
                    "midi": 77,
                    "time": 99.29625199999869,
                    "velocity": 0.6377952755905512,
                    "duration": 0.2654979999999938
                },
                {
                    "name": "C5",
                    "midi": 72,
                    "time": 99.29625199999869,
                    "velocity": 0.5669291338582677,
                    "duration": 0.2654979999999938
                },
                {
                    "name": "G#4",
                    "midi": 68,
                    "time": 99.29625199999869,
                    "velocity": 0.5669291338582677,
                    "duration": 0.2654979999999938
                },
                {
                    "name": "G#4",
                    "midi": 68,
                    "time": 99.56174999999868,
                    "velocity": 0.5511811023622047,
                    "duration": 0.0663744999999949
                },
                {
                    "name": "C5",
                    "midi": 72,
                    "time": 99.56174999999868,
                    "velocity": 0.6141732283464567,
                    "duration": 0.0663744999999949
                },
                {
                    "name": "G#4",
                    "midi": 68,
                    "time": 99.69449899999867,
                    "velocity": 0.5511811023622047,
                    "duration": 0.0663744999999949
                },
                {
                    "name": "C5",
                    "midi": 72,
                    "time": 99.69449899999867,
                    "velocity": 0.6141732283464567,
                    "duration": 0.0663744999999949
                },
                {
                    "name": "F5",
                    "midi": 77,
                    "time": 99.82724799999866,
                    "velocity": 0.6377952755905512,
                    "duration": 0.2654979999999938
                },
                {
                    "name": "C#5",
                    "midi": 73,
                    "time": 99.82724799999866,
                    "velocity": 0.5669291338582677,
                    "duration": 0.2654979999999938
                },
                {
                    "name": "A#4",
                    "midi": 70,
                    "time": 99.82724799999866,
                    "velocity": 0.5669291338582677,
                    "duration": 0.2654979999999938
                },
                {
                    "name": "A#4",
                    "midi": 70,
                    "time": 100.09274599999866,
                    "velocity": 0.5433070866141733,
                    "duration": 0.0663744999999949
                },
                {
                    "name": "C#5",
                    "midi": 73,
                    "time": 100.09274599999866,
                    "velocity": 0.6062992125984252,
                    "duration": 0.0663744999999949
                },
                {
                    "name": "A#4",
                    "midi": 70,
                    "time": 100.22549499999865,
                    "velocity": 0.5354330708661418,
                    "duration": 0.132749000000004
                },
                {
                    "name": "C#5",
                    "midi": 73,
                    "time": 100.22549499999865,
                    "velocity": 0.5984251968503937,
                    "duration": 0.132749000000004
                },
                {
                    "name": "F5",
                    "midi": 77,
                    "time": 100.35824399999865,
                    "velocity": 0.6377952755905512,
                    "duration": 0.25996679166667036
                },
                {
                    "name": "C5",
                    "midi": 72,
                    "time": 100.35824399999865,
                    "velocity": 0.5669291338582677,
                    "duration": 0.25996679166667036
                },
                {
                    "name": "G#4",
                    "midi": 68,
                    "time": 100.35824399999865,
                    "velocity": 0.5669291338582677,
                    "duration": 0.25996679166667036
                },
                {
                    "name": "G#4",
                    "midi": 68,
                    "time": 100.62374199999866,
                    "velocity": 0.3858267716535433,
                    "duration": 0.0663744999999949
                },
                {
                    "name": "C5",
                    "midi": 72,
                    "time": 100.62374199999866,
                    "velocity": 0.4330708661417323,
                    "duration": 0.0663744999999949
                },
                {
                    "name": "G#4",
                    "midi": 68,
                    "time": 100.75649099999865,
                    "velocity": 0.3858267716535433,
                    "duration": 0.0663744999999949
                },
                {
                    "name": "C5",
                    "midi": 72,
                    "time": 100.75649099999865,
                    "velocity": 0.4330708661417323,
                    "duration": 0.0663744999999949
                },
                {
                    "name": "G#4",
                    "midi": 68,
                    "time": 100.88923999999864,
                    "velocity": 0.33858267716535434,
                    "duration": 0.2654979999999938
                },
                {
                    "name": "C5",
                    "midi": 72,
                    "time": 100.88923999999864,
                    "velocity": 0.3779527559055118,
                    "duration": 0.2654979999999938
                },
                {
                    "name": "G4",
                    "midi": 67,
                    "time": 101.15473799999863,
                    "velocity": 0.33858267716535434,
                    "duration": 0.0663744999999949
                },
                {
                    "name": "G#4",
                    "midi": 68,
                    "time": 101.15473799999863,
                    "velocity": 0.33858267716535434,
                    "duration": 0.0663744999999949
                },
                {
                    "name": "C5",
                    "midi": 72,
                    "time": 101.15473799999863,
                    "velocity": 0.3779527559055118,
                    "duration": 0.0663744999999949
                },
                {
                    "name": "F4",
                    "midi": 65,
                    "time": 101.28748699999862,
                    "velocity": 0.31496062992125984,
                    "duration": 0.0663744999999949
                },
                {
                    "name": "G#4",
                    "midi": 68,
                    "time": 101.28748699999862,
                    "velocity": 0.31496062992125984,
                    "duration": 0.0663744999999949
                },
                {
                    "name": "C5",
                    "midi": 72,
                    "time": 101.28748699999862,
                    "velocity": 0.3543307086614173,
                    "duration": 0.0663744999999949
                },
                {
                    "name": "F4",
                    "midi": 65,
                    "time": 101.42023599999861,
                    "velocity": 0.31496062992125984,
                    "duration": 0.2654979999999938
                },
                {
                    "name": "G#4",
                    "midi": 68,
                    "time": 101.42023599999861,
                    "velocity": 0.31496062992125984,
                    "duration": 0.2654979999999938
                },
                {
                    "name": "C5",
                    "midi": 72,
                    "time": 101.42023599999861,
                    "velocity": 0.3543307086614173,
                    "duration": 0.2654979999999938
                },
                {
                    "name": "C4",
                    "midi": 60,
                    "time": 101.6857339999986,
                    "velocity": 0.33858267716535434,
                    "duration": 0.0663744999999949
                },
                {
                    "name": "G#4",
                    "midi": 68,
                    "time": 101.6857339999986,
                    "velocity": 0.33858267716535434,
                    "duration": 0.0663744999999949
                },
                {
                    "name": "C5",
                    "midi": 72,
                    "time": 101.6857339999986,
                    "velocity": 0.3779527559055118,
                    "duration": 0.0663744999999949
                },
                {
                    "name": "C4",
                    "midi": 60,
                    "time": 101.8184829999986,
                    "velocity": 0.31496062992125984,
                    "duration": 0.0663744999999949
                },
                {
                    "name": "G#4",
                    "midi": 68,
                    "time": 101.8184829999986,
                    "velocity": 0.31496062992125984,
                    "duration": 0.0663744999999949
                },
                {
                    "name": "C5",
                    "midi": 72,
                    "time": 101.8184829999986,
                    "velocity": 0.3543307086614173,
                    "duration": 0.0663744999999949
                },
                {
                    "name": "C#5",
                    "midi": 73,
                    "time": 101.95123199999858,
                    "velocity": 0.3543307086614173,
                    "duration": 0.2654979999999938
                },
                {
                    "name": "A#4",
                    "midi": 70,
                    "time": 101.95123199999858,
                    "velocity": 0.31496062992125984,
                    "duration": 0.2654979999999938
                },
                {
                    "name": "F4",
                    "midi": 65,
                    "time": 101.95123199999858,
                    "velocity": 0.31496062992125984,
                    "duration": 0.2654979999999938
                },
                {
                    "name": "C#4",
                    "midi": 61,
                    "time": 102.21672999999858,
                    "velocity": 0.33858267716535434,
                    "duration": 0.0663744999999949
                },
                {
                    "name": "A#4",
                    "midi": 70,
                    "time": 102.21672999999858,
                    "velocity": 0.33858267716535434,
                    "duration": 0.0663744999999949
                },
                {
                    "name": "C#5",
                    "midi": 73,
                    "time": 102.21672999999858,
                    "velocity": 0.3779527559055118,
                    "duration": 0.0663744999999949
                },
                {
                    "name": "C#4",
                    "midi": 61,
                    "time": 102.34947899999857,
                    "velocity": 0.31496062992125984,
                    "duration": 0.0663744999999949
                },
                {
                    "name": "A#4",
                    "midi": 70,
                    "time": 102.34947899999857,
                    "velocity": 0.31496062992125984,
                    "duration": 0.0663744999999949
                },
                {
                    "name": "C#5",
                    "midi": 73,
                    "time": 102.34947899999857,
                    "velocity": 0.3543307086614173,
                    "duration": 0.0663744999999949
                },
                {
                    "name": "F4",
                    "midi": 65,
                    "time": 102.48222799999856,
                    "velocity": 0.31496062992125984,
                    "duration": 0.2654979999999938
                },
                {
                    "name": "G#4",
                    "midi": 68,
                    "time": 102.48222799999856,
                    "velocity": 0.31496062992125984,
                    "duration": 0.2654979999999938
                },
                {
                    "name": "C5",
                    "midi": 72,
                    "time": 102.48222799999856,
                    "velocity": 0.3543307086614173,
                    "duration": 0.2654979999999938
                },
                {
                    "name": "C4",
                    "midi": 60,
                    "time": 102.74772599999855,
                    "velocity": 0.31496062992125984,
                    "duration": 0.0663744999999949
                },
                {
                    "name": "G#4",
                    "midi": 68,
                    "time": 102.74772599999855,
                    "velocity": 0.31496062992125984,
                    "duration": 0.0663744999999949
                },
                {
                    "name": "C5",
                    "midi": 72,
                    "time": 102.74772599999855,
                    "velocity": 0.3543307086614173,
                    "duration": 0.0663744999999949
                },
                {
                    "name": "C4",
                    "midi": 60,
                    "time": 102.88047499999854,
                    "velocity": 0.31496062992125984,
                    "duration": 0.0663744999999949
                },
                {
                    "name": "G#4",
                    "midi": 68,
                    "time": 102.88047499999854,
                    "velocity": 0.31496062992125984,
                    "duration": 0.0663744999999949
                },
                {
                    "name": "C5",
                    "midi": 72,
                    "time": 102.88047499999854,
                    "velocity": 0.3543307086614173,
                    "duration": 0.0663744999999949
                },
                {
                    "name": "E5",
                    "midi": 76,
                    "time": 103.01322399999853,
                    "velocity": 0.4330708661417323,
                    "duration": 0.2654979999999938
                },
                {
                    "name": "C#5",
                    "midi": 73,
                    "time": 103.01322399999853,
                    "velocity": 0.3858267716535433,
                    "duration": 0.2654979999999938
                },
                {
                    "name": "A#4",
                    "midi": 70,
                    "time": 103.01322399999853,
                    "velocity": 0.3858267716535433,
                    "duration": 0.2654979999999938
                },
                {
                    "name": "E5",
                    "midi": 76,
                    "time": 103.27872199999852,
                    "velocity": 0.4094488188976378,
                    "duration": 0.0663744999999949
                },
                {
                    "name": "C#5",
                    "midi": 73,
                    "time": 103.27872199999852,
                    "velocity": 0.36220472440944884,
                    "duration": 0.0663744999999949
                },
                {
                    "name": "G4",
                    "midi": 67,
                    "time": 103.27872199999852,
                    "velocity": 0.36220472440944884,
                    "duration": 0.0663744999999949
                },
                {
                    "name": "E5",
                    "midi": 76,
                    "time": 103.41147099999851,
                    "velocity": 0.4094488188976378,
                    "duration": 0.0663744999999949
                },
                {
                    "name": "C#5",
                    "midi": 73,
                    "time": 103.41147099999851,
                    "velocity": 0.36220472440944884,
                    "duration": 0.0663744999999949
                },
                {
                    "name": "G4",
                    "midi": 67,
                    "time": 103.41147099999851,
                    "velocity": 0.36220472440944884,
                    "duration": 0.0663744999999949
                },
                {
                    "name": "G#4",
                    "midi": 68,
                    "time": 103.5442199999985,
                    "velocity": 0.4251968503937008,
                    "duration": 0.2654979999999938
                },
                {
                    "name": "C5",
                    "midi": 72,
                    "time": 103.5442199999985,
                    "velocity": 0.4251968503937008,
                    "duration": 0.2654979999999938
                },
                {
                    "name": "F5",
                    "midi": 77,
                    "time": 103.5442199999985,
                    "velocity": 0.48031496062992124,
                    "duration": 0.2654979999999938
                },
                {
                    "name": "F4",
                    "midi": 65,
                    "time": 103.8097179999985,
                    "velocity": 0.4094488188976378,
                    "duration": 0.0663744999999949
                },
                {
                    "name": "C5",
                    "midi": 72,
                    "time": 103.8097179999985,
                    "velocity": 0.4094488188976378,
                    "duration": 0.0663744999999949
                },
                {
                    "name": "F5",
                    "midi": 77,
                    "time": 103.8097179999985,
                    "velocity": 0.4566929133858268,
                    "duration": 0.0663744999999949
                },
                {
                    "name": "F4",
                    "midi": 65,
                    "time": 103.94246699999849,
                    "velocity": 0.4094488188976378,
                    "duration": 0.0663744999999949
                },
                {
                    "name": "C5",
                    "midi": 72,
                    "time": 103.94246699999849,
                    "velocity": 0.4094488188976378,
                    "duration": 0.0663744999999949
                },
                {
                    "name": "F5",
                    "midi": 77,
                    "time": 103.94246699999849,
                    "velocity": 0.4566929133858268,
                    "duration": 0.0663744999999949
                },
                {
                    "name": "G4",
                    "midi": 67,
                    "time": 104.07521599999848,
                    "velocity": 0.47244094488188976,
                    "duration": 0.2654979999999938
                },
                {
                    "name": "G5",
                    "midi": 79,
                    "time": 104.07521599999848,
                    "velocity": 0.5275590551181102,
                    "duration": 0.2654979999999938
                },
                {
                    "name": "C5",
                    "midi": 72,
                    "time": 104.07521599999848,
                    "velocity": 0.47244094488188976,
                    "duration": 0.2654979999999938
                },
                {
                    "name": "E5",
                    "midi": 76,
                    "time": 104.34071399999847,
                    "velocity": 0.47244094488188976,
                    "duration": 0.0663744999999949
                },
                {
                    "name": "C5",
                    "midi": 72,
                    "time": 104.34071399999847,
                    "velocity": 0.4251968503937008,
                    "duration": 0.0663744999999949
                },
                {
                    "name": "G4",
                    "midi": 67,
                    "time": 104.34071399999847,
                    "velocity": 0.4251968503937008,
                    "duration": 0.0663744999999949
                },
                {
                    "name": "E5",
                    "midi": 76,
                    "time": 104.47346299999846,
                    "velocity": 0.47244094488188976,
                    "duration": 0.0663744999999949
                },
                {
                    "name": "C5",
                    "midi": 72,
                    "time": 104.47346299999846,
                    "velocity": 0.4251968503937008,
                    "duration": 0.0663744999999949
                },
                {
                    "name": "G4",
                    "midi": 67,
                    "time": 104.47346299999846,
                    "velocity": 0.4251968503937008,
                    "duration": 0.0663744999999949
                },
                {
                    "name": "G#4",
                    "midi": 68,
                    "time": 104.60621199999845,
                    "velocity": 0.5118110236220472,
                    "duration": 0.2654979999999938
                },
                {
                    "name": "C5",
                    "midi": 72,
                    "time": 104.60621199999845,
                    "velocity": 0.5118110236220472,
                    "duration": 0.2654979999999938
                },
                {
                    "name": "G#5",
                    "midi": 80,
                    "time": 104.60621199999845,
                    "velocity": 0.5748031496062992,
                    "duration": 0.2654979999999938
                },
                {
                    "name": "G#4",
                    "midi": 68,
                    "time": 104.87170999999844,
                    "velocity": 0.48031496062992124,
                    "duration": 0.0663744999999949
                },
                {
                    "name": "C5",
                    "midi": 72,
                    "time": 104.87170999999844,
                    "velocity": 0.48031496062992124,
                    "duration": 0.0663744999999949
                },
                {
                    "name": "F5",
                    "midi": 77,
                    "time": 104.87170999999844,
                    "velocity": 0.5354330708661418,
                    "duration": 0.0663744999999949
                },
                {
                    "name": "G#4",
                    "midi": 68,
                    "time": 105.00445899999843,
                    "velocity": 0.48031496062992124,
                    "duration": 0.0663744999999949
                },
                {
                    "name": "C5",
                    "midi": 72,
                    "time": 105.00445899999843,
                    "velocity": 0.48031496062992124,
                    "duration": 0.0663744999999949
                },
                {
                    "name": "F5",
                    "midi": 77,
                    "time": 105.00445899999843,
                    "velocity": 0.5354330708661418,
                    "duration": 0.0663744999999949
                },
                {
                    "name": "A#5",
                    "midi": 82,
                    "time": 105.13720799999842,
                    "velocity": 0.6614173228346457,
                    "duration": 0.2654979999999938
                },
                {
                    "name": "C5",
                    "midi": 72,
                    "time": 105.13720799999842,
                    "velocity": 0.5905511811023622,
                    "duration": 0.2654979999999938
                },
                {
                    "name": "C6",
                    "midi": 84,
                    "time": 105.40270599999842,
                    "velocity": 0.6062992125984252,
                    "duration": 0.0663744999999949
                },
                {
                    "name": "C5",
                    "midi": 72,
                    "time": 105.40270599999842,
                    "velocity": 0.5433070866141733,
                    "duration": 0.0663744999999949
                },
                {
                    "name": "C6",
                    "midi": 84,
                    "time": 105.53545499999841,
                    "velocity": 0.6062992125984252,
                    "duration": 0.0663744999999949
                },
                {
                    "name": "C5",
                    "midi": 72,
                    "time": 105.53545499999841,
                    "velocity": 0.5433070866141733,
                    "duration": 0.0663744999999949
                },
                {
                    "name": "B5",
                    "midi": 83,
                    "time": 105.6682039999984,
                    "velocity": 0.7007874015748031,
                    "duration": 0.2654979999999938
                },
                {
                    "name": "C5",
                    "midi": 72,
                    "time": 105.6682039999984,
                    "velocity": 0.6299212598425197,
                    "duration": 0.2654979999999938
                },
                {
                    "name": "C6",
                    "midi": 84,
                    "time": 105.93370199999839,
                    "velocity": 0.6692913385826772,
                    "duration": 0.0663744999999949
                },
                {
                    "name": "C5",
                    "midi": 72,
                    "time": 105.93370199999839,
                    "velocity": 0.5984251968503937,
                    "duration": 0.0663744999999949
                },
                {
                    "name": "C6",
                    "midi": 84,
                    "time": 106.06645099999838,
                    "velocity": 0.6692913385826772,
                    "duration": 0.0663744999999949
                },
                {
                    "name": "C5",
                    "midi": 72,
                    "time": 106.06645099999838,
                    "velocity": 0.5984251968503937,
                    "duration": 0.0663744999999949
                },
                {
                    "name": "C6",
                    "midi": 84,
                    "time": 106.19919999999837,
                    "velocity": 0.7637795275590551,
                    "duration": 0.2654979999999938
                },
                {
                    "name": "C5",
                    "midi": 72,
                    "time": 106.19919999999837,
                    "velocity": 0.6850393700787402,
                    "duration": 0.2654979999999938
                },
                {
                    "name": "C#6",
                    "midi": 85,
                    "time": 106.46469799999836,
                    "velocity": 0.7637795275590551,
                    "duration": 0.132749000000004
                },
                {
                    "name": "A#5",
                    "midi": 82,
                    "time": 106.46469799999836,
                    "velocity": 0.6850393700787402,
                    "duration": 0.132749000000004
                },
                {
                    "name": "C#5",
                    "midi": 73,
                    "time": 106.46469799999836,
                    "velocity": 0.6850393700787402,
                    "duration": 0.132749000000004
                },
                {
                    "name": "C#6",
                    "midi": 85,
                    "time": 106.73019599999837,
                    "velocity": 0.7637795275590551,
                    "duration": 0.132749000000004
                },
                {
                    "name": "A#5",
                    "midi": 82,
                    "time": 106.73019599999837,
                    "velocity": 0.6850393700787402,
                    "duration": 0.132749000000004
                },
                {
                    "name": "C#5",
                    "midi": 73,
                    "time": 106.73019599999837,
                    "velocity": 0.6850393700787402,
                    "duration": 0.132749000000004
                },
                {
                    "name": "C#6",
                    "midi": 85,
                    "time": 106.99569399999838,
                    "velocity": 0.7637795275590551,
                    "duration": 0.132749000000004
                },
                {
                    "name": "A#5",
                    "midi": 82,
                    "time": 106.99569399999838,
                    "velocity": 0.6850393700787402,
                    "duration": 0.132749000000004
                },
                {
                    "name": "C#5",
                    "midi": 73,
                    "time": 106.99569399999838,
                    "velocity": 0.6850393700787402,
                    "duration": 0.132749000000004
                },
                {
                    "name": "C#6",
                    "midi": 85,
                    "time": 107.26119199999839,
                    "velocity": 0.7637795275590551,
                    "duration": 0.132749000000004
                },
                {
                    "name": "A#5",
                    "midi": 82,
                    "time": 107.26119199999839,
                    "velocity": 0.6850393700787402,
                    "duration": 0.132749000000004
                },
                {
                    "name": "C#5",
                    "midi": 73,
                    "time": 107.26119199999839,
                    "velocity": 0.6850393700787402,
                    "duration": 0.132749000000004
                },
                {
                    "name": "F#6",
                    "midi": 90,
                    "time": 107.5266899999984,
                    "velocity": 0.7637795275590551,
                    "duration": 0.132749000000004
                },
                {
                    "name": "C#6",
                    "midi": 85,
                    "time": 107.5266899999984,
                    "velocity": 0.6850393700787402,
                    "duration": 0.132749000000004
                },
                {
                    "name": "F#5",
                    "midi": 78,
                    "time": 107.5266899999984,
                    "velocity": 0.6850393700787402,
                    "duration": 0.132749000000004
                },
                {
                    "name": "F#6",
                    "midi": 90,
                    "time": 107.7921879999984,
                    "velocity": 0.7086614173228346,
                    "duration": 0.2654979999999938
                },
                {
                    "name": "C#6",
                    "midi": 85,
                    "time": 107.7921879999984,
                    "velocity": 0.6377952755905512,
                    "duration": 0.2654979999999938
                },
                {
                    "name": "F#5",
                    "midi": 78,
                    "time": 107.7921879999984,
                    "velocity": 0.6377952755905512,
                    "duration": 0.2654979999999938
                },
                {
                    "name": "F#6",
                    "midi": 90,
                    "time": 108.0576859999984,
                    "velocity": 0.7480314960629921,
                    "duration": 0.0663744999999949
                },
                {
                    "name": "C#6",
                    "midi": 85,
                    "time": 108.0576859999984,
                    "velocity": 0.6692913385826772,
                    "duration": 0.0663744999999949
                },
                {
                    "name": "F#5",
                    "midi": 78,
                    "time": 108.0576859999984,
                    "velocity": 0.6692913385826772,
                    "duration": 0.0663744999999949
                },
                {
                    "name": "F#6",
                    "midi": 90,
                    "time": 108.19043499999839,
                    "velocity": 0.7637795275590551,
                    "duration": 0.0663744999999949
                },
                {
                    "name": "C#6",
                    "midi": 85,
                    "time": 108.19043499999839,
                    "velocity": 0.6850393700787402,
                    "duration": 0.0663744999999949
                },
                {
                    "name": "F#5",
                    "midi": 78,
                    "time": 108.19043499999839,
                    "velocity": 0.6850393700787402,
                    "duration": 0.0663744999999949
                },
                {
                    "name": "G#6",
                    "midi": 92,
                    "time": 108.32318399999838,
                    "velocity": 0.7795275590551181,
                    "duration": 0.2654979999999938
                },
                {
                    "name": "F6",
                    "midi": 89,
                    "time": 108.32318399999838,
                    "velocity": 0.7007874015748031,
                    "duration": 0.2654979999999938
                },
                {
                    "name": "G#5",
                    "midi": 80,
                    "time": 108.32318399999838,
                    "velocity": 0.7007874015748031,
                    "duration": 0.2654979999999938
                },
                {
                    "name": "G#6",
                    "midi": 92,
                    "time": 108.58868199999837,
                    "velocity": 0.7401574803149606,
                    "duration": 0.0663744999999949
                },
                {
                    "name": "F6",
                    "midi": 89,
                    "time": 108.58868199999837,
                    "velocity": 0.6614173228346457,
                    "duration": 0.0663744999999949
                },
                {
                    "name": "G#5",
                    "midi": 80,
                    "time": 108.58868199999837,
                    "velocity": 0.6614173228346457,
                    "duration": 0.0663744999999949
                },
                {
                    "name": "G#6",
                    "midi": 92,
                    "time": 108.72143099999836,
                    "velocity": 0.7165354330708661,
                    "duration": 0.0663744999999949
                },
                {
                    "name": "F6",
                    "midi": 89,
                    "time": 108.72143099999836,
                    "velocity": 0.6377952755905512,
                    "duration": 0.0663744999999949
                },
                {
                    "name": "G#5",
                    "midi": 80,
                    "time": 108.72143099999836,
                    "velocity": 0.6377952755905512,
                    "duration": 0.0663744999999949
                },
                {
                    "name": "F#6",
                    "midi": 90,
                    "time": 108.85417999999835,
                    "velocity": 0.7007874015748031,
                    "duration": 0.132749000000004
                },
                {
                    "name": "F#5",
                    "midi": 78,
                    "time": 108.85417999999835,
                    "velocity": 0.6299212598425197,
                    "duration": 0.132749000000004
                },
                {
                    "name": "B5",
                    "midi": 83,
                    "time": 109.11967799999836,
                    "velocity": 0.7244094488188977,
                    "duration": 0.132749000000004
                },
                {
                    "name": "G#5",
                    "midi": 80,
                    "time": 109.11967799999836,
                    "velocity": 0.6456692913385826,
                    "duration": 0.132749000000004
                },
                {
                    "name": "F5",
                    "midi": 77,
                    "time": 109.11967799999836,
                    "velocity": 0.6456692913385826,
                    "duration": 0.132749000000004
                },
                {
                    "name": "B4",
                    "midi": 71,
                    "time": 109.11967799999836,
                    "velocity": 0.6456692913385826,
                    "duration": 0.132749000000004
                },
                {
                    "name": "C6",
                    "midi": 84,
                    "time": 109.38517599999837,
                    "velocity": 0.7244094488188977,
                    "duration": 0.132749000000004
                },
                {
                    "name": "G#5",
                    "midi": 80,
                    "time": 109.38517599999837,
                    "velocity": 0.6456692913385826,
                    "duration": 0.132749000000004
                },
                {
                    "name": "F5",
                    "midi": 77,
                    "time": 109.38517599999837,
                    "velocity": 0.6456692913385826,
                    "duration": 0.132749000000004
                },
                {
                    "name": "C5",
                    "midi": 72,
                    "time": 109.38517599999837,
                    "velocity": 0.6456692913385826,
                    "duration": 0.132749000000004
                },
                {
                    "name": "C6",
                    "midi": 84,
                    "time": 109.65067399999838,
                    "velocity": 0.7244094488188977,
                    "duration": 0.132749000000004
                },
                {
                    "name": "G5",
                    "midi": 79,
                    "time": 109.65067399999838,
                    "velocity": 0.6456692913385826,
                    "duration": 0.132749000000004
                },
                {
                    "name": "E5",
                    "midi": 76,
                    "time": 109.65067399999838,
                    "velocity": 0.6456692913385826,
                    "duration": 0.132749000000004
                },
                {
                    "name": "C5",
                    "midi": 72,
                    "time": 109.65067399999838,
                    "velocity": 0.6456692913385826,
                    "duration": 0.132749000000004
                },
                {
                    "name": "F4",
                    "midi": 65,
                    "time": 109.91617199999838,
                    "velocity": 0.6456692913385826,
                    "duration": 0.2654979999999938
                },
                {
                    "name": "F5",
                    "midi": 77,
                    "time": 109.91617199999838,
                    "velocity": 0.7244094488188977,
                    "duration": 0.2654979999999938
                },
                {
                    "name": "F4",
                    "midi": 65,
                    "time": 110.18166999999838,
                    "velocity": 0.3779527559055118,
                    "duration": 0.132749000000004
                },
                {
                    "name": "G4",
                    "midi": 67,
                    "time": 110.31441899999838,
                    "velocity": 0.3779527559055118,
                    "duration": 0.132749000000004
                },
                {
                    "name": "A4",
                    "midi": 69,
                    "time": 110.44716799999838,
                    "velocity": 0.3779527559055118,
                    "duration": 0.2654979999999938
                },
                {
                    "name": "A#4",
                    "midi": 70,
                    "time": 110.71266599999838,
                    "velocity": 0.3779527559055118,
                    "duration": 0.0663744999999949
                },
                {
                    "name": "C5",
                    "midi": 72,
                    "time": 110.84541499999837,
                    "velocity": 0.3779527559055118,
                    "duration": 0.0663744999999949
                },
                {
                    "name": "C5",
                    "midi": 72,
                    "time": 110.97816399999836,
                    "velocity": 0.3779527559055118,
                    "duration": 0.2654979999999938
                },
                {
                    "name": "D5",
                    "midi": 74,
                    "time": 110.97816399999836,
                    "velocity": 0.3779527559055118,
                    "duration": 0.2654979999999938
                },
                {
                    "name": "A#4",
                    "midi": 70,
                    "time": 111.24366199999835,
                    "velocity": 0.31496062992125984,
                    "duration": 0.0663744999999949
                },
                {
                    "name": "E5",
                    "midi": 76,
                    "time": 111.24366199999835,
                    "velocity": 0.3543307086614173,
                    "duration": 0.0663744999999949
                },
                {
                    "name": "A#4",
                    "midi": 70,
                    "time": 111.37641099999834,
                    "velocity": 0.31496062992125984,
                    "duration": 0.0663744999999949
                },
                {
                    "name": "E5",
                    "midi": 76,
                    "time": 111.37641099999834,
                    "velocity": 0.3543307086614173,
                    "duration": 0.0663744999999949
                },
                {
                    "name": "A#4",
                    "midi": 70,
                    "time": 111.50915999999833,
                    "velocity": 0.33858267716535434,
                    "duration": 0.2654979999999938
                },
                {
                    "name": "E5",
                    "midi": 76,
                    "time": 111.50915999999833,
                    "velocity": 0.3779527559055118,
                    "duration": 0.2654979999999938
                },
                {
                    "name": "A4",
                    "midi": 69,
                    "time": 111.77465799999833,
                    "velocity": 0.31496062992125984,
                    "duration": 0.0663744999999949
                },
                {
                    "name": "F5",
                    "midi": 77,
                    "time": 111.77465799999833,
                    "velocity": 0.3543307086614173,
                    "duration": 0.0663744999999949
                },
                {
                    "name": "A4",
                    "midi": 69,
                    "time": 111.90740699999832,
                    "velocity": 0.31496062992125984,
                    "duration": 0.0663744999999949
                },
                {
                    "name": "F5",
                    "midi": 77,
                    "time": 111.90740699999832,
                    "velocity": 0.3543307086614173,
                    "duration": 0.0663744999999949
                },
                {
                    "name": "A4",
                    "midi": 69,
                    "time": 112.0401559999983,
                    "velocity": 0.33858267716535434,
                    "duration": 0.2654979999999938
                },
                {
                    "name": "C5",
                    "midi": 72,
                    "time": 112.0401559999983,
                    "velocity": 0.3779527559055118,
                    "duration": 0.2654979999999938
                },
                {
                    "name": "G4",
                    "midi": 67,
                    "time": 112.3056539999983,
                    "velocity": 0.31496062992125984,
                    "duration": 0.0663744999999949
                },
                {
                    "name": "A#4",
                    "midi": 70,
                    "time": 112.3056539999983,
                    "velocity": 0.3543307086614173,
                    "duration": 0.0663744999999949
                },
                {
                    "name": "G4",
                    "midi": 67,
                    "time": 112.43840299999829,
                    "velocity": 0.31496062992125984,
                    "duration": 0.0663744999999949
                },
                {
                    "name": "A#4",
                    "midi": 70,
                    "time": 112.43840299999829,
                    "velocity": 0.3543307086614173,
                    "duration": 0.0663744999999949
                },
                {
                    "name": "A4",
                    "midi": 69,
                    "time": 112.57115199999828,
                    "velocity": 0.6299212598425197,
                    "duration": 0.06582137916666397
                },
                {
                    "name": "C5",
                    "midi": 72,
                    "time": 112.57115199999828,
                    "velocity": 0.6299212598425197,
                    "duration": 0.06582137916666397
                },
                {
                    "name": "A5",
                    "midi": 81,
                    "time": 112.57115199999828,
                    "velocity": 0.7007874015748031,
                    "duration": 0.06582137916666397
                },
                {
                    "name": "A4",
                    "midi": 69,
                    "time": 112.83664999999827,
                    "velocity": 0.6299212598425197,
                    "duration": 0.06582137916666397
                },
                {
                    "name": "C5",
                    "midi": 72,
                    "time": 112.83664999999827,
                    "velocity": 0.6299212598425197,
                    "duration": 0.06582137916666397
                },
                {
                    "name": "F5",
                    "midi": 77,
                    "time": 112.83664999999827,
                    "velocity": 0.7007874015748031,
                    "duration": 0.06582137916666397
                },
                {
                    "name": "C5",
                    "midi": 72,
                    "time": 113.10214799999827,
                    "velocity": 0.3779527559055118,
                    "duration": 0.2654979999999938
                },
                {
                    "name": "C5",
                    "midi": 72,
                    "time": 113.36764599999826,
                    "velocity": 0.31496062992125984,
                    "duration": 0.0663744999999949
                },
                {
                    "name": "D5",
                    "midi": 74,
                    "time": 113.36764599999826,
                    "velocity": 0.3543307086614173,
                    "duration": 0.0663744999999949
                },
                {
                    "name": "C5",
                    "midi": 72,
                    "time": 113.50039499999825,
                    "velocity": 0.31496062992125984,
                    "duration": 0.0663744999999949
                },
                {
                    "name": "D5",
                    "midi": 74,
                    "time": 113.50039499999825,
                    "velocity": 0.3543307086614173,
                    "duration": 0.0663744999999949
                },
                {
                    "name": "A#4",
                    "midi": 70,
                    "time": 113.63314399999824,
                    "velocity": 0.33858267716535434,
                    "duration": 0.2654979999999938
                },
                {
                    "name": "E5",
                    "midi": 76,
                    "time": 113.63314399999824,
                    "velocity": 0.3779527559055118,
                    "duration": 0.2654979999999938
                },
                {
                    "name": "A4",
                    "midi": 69,
                    "time": 113.89864199999823,
                    "velocity": 0.31496062992125984,
                    "duration": 0.0663744999999949
                },
                {
                    "name": "F5",
                    "midi": 77,
                    "time": 113.89864199999823,
                    "velocity": 0.3543307086614173,
                    "duration": 0.0663744999999949
                },
                {
                    "name": "A4",
                    "midi": 69,
                    "time": 114.03139099999822,
                    "velocity": 0.31496062992125984,
                    "duration": 0.0663744999999949
                },
                {
                    "name": "F5",
                    "midi": 77,
                    "time": 114.03139099999822,
                    "velocity": 0.3543307086614173,
                    "duration": 0.0663744999999949
                },
                {
                    "name": "A4",
                    "midi": 69,
                    "time": 114.16413999999821,
                    "velocity": 0.33858267716535434,
                    "duration": 0.2654979999999938
                },
                {
                    "name": "C5",
                    "midi": 72,
                    "time": 114.16413999999821,
                    "velocity": 0.3779527559055118,
                    "duration": 0.2654979999999938
                },
                {
                    "name": "G4",
                    "midi": 67,
                    "time": 114.4296379999982,
                    "velocity": 0.31496062992125984,
                    "duration": 0.0663744999999949
                },
                {
                    "name": "A#4",
                    "midi": 70,
                    "time": 114.4296379999982,
                    "velocity": 0.3543307086614173,
                    "duration": 0.0663744999999949
                },
                {
                    "name": "G4",
                    "midi": 67,
                    "time": 114.5623869999982,
                    "velocity": 0.31496062992125984,
                    "duration": 0.0663744999999949
                },
                {
                    "name": "A#4",
                    "midi": 70,
                    "time": 114.5623869999982,
                    "velocity": 0.3543307086614173,
                    "duration": 0.0663744999999949
                },
                {
                    "name": "A4",
                    "midi": 69,
                    "time": 114.69513599999819,
                    "velocity": 0.6614173228346457,
                    "duration": 0.06582137916666397
                },
                {
                    "name": "C5",
                    "midi": 72,
                    "time": 114.69513599999819,
                    "velocity": 0.6614173228346457,
                    "duration": 0.06582137916666397
                },
                {
                    "name": "A5",
                    "midi": 81,
                    "time": 114.69513599999819,
                    "velocity": 0.7401574803149606,
                    "duration": 0.06582137916666397
                },
                {
                    "name": "A4",
                    "midi": 69,
                    "time": 114.96063399999818,
                    "velocity": 0.6692913385826772,
                    "duration": 0.06582137916666397
                },
                {
                    "name": "C5",
                    "midi": 72,
                    "time": 114.96063399999818,
                    "velocity": 0.6692913385826772,
                    "duration": 0.06582137916666397
                },
                {
                    "name": "F5",
                    "midi": 77,
                    "time": 114.96063399999818,
                    "velocity": 0.7480314960629921,
                    "duration": 0.06582137916666397
                },
                {
                    "name": "A4",
                    "midi": 69,
                    "time": 115.22613199999817,
                    "velocity": 0.33858267716535434,
                    "duration": 0.2654979999999938
                },
                {
                    "name": "C5",
                    "midi": 72,
                    "time": 115.22613199999817,
                    "velocity": 0.3779527559055118,
                    "duration": 0.2654979999999938
                },
                {
                    "name": "G4",
                    "midi": 67,
                    "time": 115.49162999999817,
                    "velocity": 0.31496062992125984,
                    "duration": 0.0663744999999949
                },
                {
                    "name": "A#4",
                    "midi": 70,
                    "time": 115.49162999999817,
                    "velocity": 0.3543307086614173,
                    "duration": 0.0663744999999949
                },
                {
                    "name": "G4",
                    "midi": 67,
                    "time": 115.62437899999816,
                    "velocity": 0.31496062992125984,
                    "duration": 0.0663744999999949
                },
                {
                    "name": "A#4",
                    "midi": 70,
                    "time": 115.62437899999816,
                    "velocity": 0.3543307086614173,
                    "duration": 0.0663744999999949
                },
                {
                    "name": "A4",
                    "midi": 69,
                    "time": 115.75712799999815,
                    "velocity": 0.6850393700787402,
                    "duration": 0.06582137916666397
                },
                {
                    "name": "C5",
                    "midi": 72,
                    "time": 115.75712799999815,
                    "velocity": 0.6850393700787402,
                    "duration": 0.06582137916666397
                },
                {
                    "name": "A5",
                    "midi": 81,
                    "time": 115.75712799999815,
                    "velocity": 0.7637795275590551,
                    "duration": 0.06582137916666397
                },
                {
                    "name": "A4",
                    "midi": 69,
                    "time": 116.02262599999814,
                    "velocity": 0.6850393700787402,
                    "duration": 0.06582137916666397
                },
                {
                    "name": "C5",
                    "midi": 72,
                    "time": 116.02262599999814,
                    "velocity": 0.6850393700787402,
                    "duration": 0.06582137916666397
                },
                {
                    "name": "F5",
                    "midi": 77,
                    "time": 116.02262599999814,
                    "velocity": 0.7637795275590551,
                    "duration": 0.06582137916666397
                },
                {
                    "name": "A4",
                    "midi": 69,
                    "time": 116.28812399999813,
                    "velocity": 0.33858267716535434,
                    "duration": 0.2654979999999938
                },
                {
                    "name": "C5",
                    "midi": 72,
                    "time": 116.28812399999813,
                    "velocity": 0.3779527559055118,
                    "duration": 0.2654979999999938
                },
                {
                    "name": "G4",
                    "midi": 67,
                    "time": 116.55362199999813,
                    "velocity": 0.31496062992125984,
                    "duration": 0.0663744999999949
                },
                {
                    "name": "A#4",
                    "midi": 70,
                    "time": 116.55362199999813,
                    "velocity": 0.3543307086614173,
                    "duration": 0.0663744999999949
                },
                {
                    "name": "G4",
                    "midi": 67,
                    "time": 116.68637099999812,
                    "velocity": 0.31496062992125984,
                    "duration": 0.0663744999999949
                },
                {
                    "name": "A#4",
                    "midi": 70,
                    "time": 116.68637099999812,
                    "velocity": 0.3543307086614173,
                    "duration": 0.0663744999999949
                },
                {
                    "name": "F5",
                    "midi": 77,
                    "time": 116.81911999999811,
                    "velocity": 0.7007874015748031,
                    "duration": 0.23894819999999584
                },
                {
                    "name": "A5",
                    "midi": 81,
                    "time": 116.81911999999811,
                    "velocity": 0.7007874015748031,
                    "duration": 0.23894819999999584
                },
                {
                    "name": "C6",
                    "midi": 84,
                    "time": 116.81911999999811,
                    "velocity": 0.7007874015748031,
                    "duration": 0.23894819999999584
                },
                {
                    "name": "F6",
                    "midi": 89,
                    "time": 116.81911999999811,
                    "velocity": 0.7795275590551181,
                    "duration": 0.23894819999999584
                },
                {
                    "name": "F4",
                    "midi": 65,
                    "time": 117.0846179999981,
                    "velocity": 0.7007874015748031,
                    "duration": 0.2654979999999938
                },
                {
                    "name": "F5",
                    "midi": 77,
                    "time": 117.0846179999981,
                    "velocity": 0.7795275590551181,
                    "duration": 0.2654979999999938
                }
            ],
            "controlChanges": {
                "7": [
                    {
                        "number": 7,
                        "time": 0,
                        "value": 0.7874015748031497
                    }
                ],
                "10": [
                    {
                        "number": 10,
                        "time": 0,
                        "value": 0.5039370078740157
                    }
                ],
                "91": [
                    {
                        "number": 91,
                        "time": 0,
                        "value": 1
                    }
                ]
            },
            "id": 1,
            "name": "Piano right",
            "instrumentNumber": 0,
            "instrument": "acoustic grand piano",
            "instrumentFamily": "piano",
            "channelNumber": 0,
            "isPercussion": false
        },
        {
            "startTime": 0,
            "duration": 117.35011599999874,
            "length": 952,
            "notes": [
                {
                    "name": "F2",
                    "midi": 41,
                    "time": 0,
                    "velocity": 0.48031496062992124,
                    "duration": 0.265498
                },
                {
                    "name": "F3",
                    "midi": 53,
                    "time": 0,
                    "velocity": 0.5354330708661418,
                    "duration": 0.265498
                },
                {
                    "name": "F3",
                    "midi": 53,
                    "time": 0.265498,
                    "velocity": 0.5196850393700787,
                    "duration": 0.0663745
                },
                {
                    "name": "F3",
                    "midi": 53,
                    "time": 0.398247,
                    "velocity": 0.5196850393700787,
                    "duration": 0.0663745
                },
                {
                    "name": "F2",
                    "midi": 41,
                    "time": 0.530996,
                    "velocity": 0.48031496062992124,
                    "duration": 0.265498
                },
                {
                    "name": "F3",
                    "midi": 53,
                    "time": 0.530996,
                    "velocity": 0.5354330708661418,
                    "duration": 0.265498
                },
                {
                    "name": "F3",
                    "midi": 53,
                    "time": 0.796494,
                    "velocity": 0.5196850393700787,
                    "duration": 0.0663745
                },
                {
                    "name": "F3",
                    "midi": 53,
                    "time": 0.929243,
                    "velocity": 0.5118110236220472,
                    "duration": 0.0663745
                },
                {
                    "name": "F3",
                    "midi": 53,
                    "time": 1.061992,
                    "velocity": 0.5354330708661418,
                    "duration": 0.265498
                },
                {
                    "name": "F2",
                    "midi": 41,
                    "time": 1.061992,
                    "velocity": 0.48031496062992124,
                    "duration": 0.265498
                },
                {
                    "name": "F3",
                    "midi": 53,
                    "time": 1.32749,
                    "velocity": 0.5196850393700787,
                    "duration": 0.0663745
                },
                {
                    "name": "F3",
                    "midi": 53,
                    "time": 1.460239,
                    "velocity": 0.5196850393700787,
                    "duration": 0.0663745
                },
                {
                    "name": "F2",
                    "midi": 41,
                    "time": 1.592988,
                    "velocity": 0.48031496062992124,
                    "duration": 0.2599667916666666
                },
                {
                    "name": "F3",
                    "midi": 53,
                    "time": 1.592988,
                    "velocity": 0.5354330708661418,
                    "duration": 0.2599667916666666
                },
                {
                    "name": "F3",
                    "midi": 53,
                    "time": 1.858486,
                    "velocity": 0.3543307086614173,
                    "duration": 0.0663745
                },
                {
                    "name": "F3",
                    "midi": 53,
                    "time": 1.991235,
                    "velocity": 0.3543307086614173,
                    "duration": 0.06637449999999978
                },
                {
                    "name": "F2",
                    "midi": 41,
                    "time": 2.123984,
                    "velocity": 0.31496062992125984,
                    "duration": 0.265498
                },
                {
                    "name": "F1",
                    "midi": 29,
                    "time": 2.123984,
                    "velocity": 0.28346456692913385,
                    "duration": 0.265498
                },
                {
                    "name": "F2",
                    "midi": 41,
                    "time": 2.389482,
                    "velocity": 0.2992125984251969,
                    "duration": 0.06637449999999978
                },
                {
                    "name": "F2",
                    "midi": 41,
                    "time": 2.5222309999999997,
                    "velocity": 0.2992125984251969,
                    "duration": 0.06637450000000022
                },
                {
                    "name": "F1",
                    "midi": 29,
                    "time": 2.65498,
                    "velocity": 0.28346456692913385,
                    "duration": 0.265498
                },
                {
                    "name": "F2",
                    "midi": 41,
                    "time": 2.65498,
                    "velocity": 0.31496062992125984,
                    "duration": 0.265498
                },
                {
                    "name": "F2",
                    "midi": 41,
                    "time": 2.920478,
                    "velocity": 0.2992125984251969,
                    "duration": 0.06637449999999978
                },
                {
                    "name": "F2",
                    "midi": 41,
                    "time": 3.0532269999999997,
                    "velocity": 0.2992125984251969,
                    "duration": 0.06637450000000022
                },
                {
                    "name": "F1",
                    "midi": 29,
                    "time": 3.185976,
                    "velocity": 0.28346456692913385,
                    "duration": 0.265498
                },
                {
                    "name": "F2",
                    "midi": 41,
                    "time": 3.185976,
                    "velocity": 0.31496062992125984,
                    "duration": 0.265498
                },
                {
                    "name": "F2",
                    "midi": 41,
                    "time": 3.451474,
                    "velocity": 0.2992125984251969,
                    "duration": 0.06637449999999978
                },
                {
                    "name": "F2",
                    "midi": 41,
                    "time": 3.5842229999999997,
                    "velocity": 0.2992125984251969,
                    "duration": 0.06637450000000022
                },
                {
                    "name": "F2",
                    "midi": 41,
                    "time": 3.716972,
                    "velocity": 0.31496062992125984,
                    "duration": 0.265498
                },
                {
                    "name": "F1",
                    "midi": 29,
                    "time": 3.716972,
                    "velocity": 0.28346456692913385,
                    "duration": 0.265498
                },
                {
                    "name": "F2",
                    "midi": 41,
                    "time": 3.98247,
                    "velocity": 0.2992125984251969,
                    "duration": 0.06637450000000022
                },
                {
                    "name": "F2",
                    "midi": 41,
                    "time": 4.115219000000001,
                    "velocity": 0.2992125984251969,
                    "duration": 0.06637450000000022
                },
                {
                    "name": "F3",
                    "midi": 53,
                    "time": 4.247968000000001,
                    "velocity": 0.5275590551181102,
                    "duration": 0.265498
                },
                {
                    "name": "D3",
                    "midi": 50,
                    "time": 4.513466000000001,
                    "velocity": 0.4881889763779528,
                    "duration": 0.06637449999999934
                },
                {
                    "name": "D3",
                    "midi": 50,
                    "time": 4.646215000000001,
                    "velocity": 0.4881889763779528,
                    "duration": 0.06637450000000022
                },
                {
                    "name": "D#3",
                    "midi": 51,
                    "time": 4.778964000000001,
                    "velocity": 0.5433070866141733,
                    "duration": 0.265498
                },
                {
                    "name": "C3",
                    "midi": 48,
                    "time": 5.044462000000001,
                    "velocity": 0.5118110236220472,
                    "duration": 0.06637450000000022
                },
                {
                    "name": "C3",
                    "midi": 48,
                    "time": 5.177211000000002,
                    "velocity": 0.5118110236220472,
                    "duration": 0.06637450000000022
                },
                {
                    "name": "B2",
                    "midi": 47,
                    "time": 5.309960000000002,
                    "velocity": 0.5433070866141733,
                    "duration": 0.265498
                },
                {
                    "name": "G2",
                    "midi": 43,
                    "time": 5.575458000000002,
                    "velocity": 0.5196850393700787,
                    "duration": 0.06637450000000022
                },
                {
                    "name": "G2",
                    "midi": 43,
                    "time": 5.7082070000000025,
                    "velocity": 0.5196850393700787,
                    "duration": 0.06637450000000022
                },
                {
                    "name": "C3",
                    "midi": 48,
                    "time": 5.840956000000003,
                    "velocity": 0.5511811023622047,
                    "duration": 0.265498
                },
                {
                    "name": "G2",
                    "midi": 43,
                    "time": 6.106454000000003,
                    "velocity": 0.5511811023622047,
                    "duration": 0.06637450000000022
                },
                {
                    "name": "G2",
                    "midi": 43,
                    "time": 6.239203000000003,
                    "velocity": 0.5511811023622047,
                    "duration": 0.06637450000000022
                },
                {
                    "name": "D3",
                    "midi": 50,
                    "time": 6.371952000000004,
                    "velocity": 0.5984251968503937,
                    "duration": 0.265498
                },
                {
                    "name": "G2",
                    "midi": 43,
                    "time": 6.637450000000004,
                    "velocity": 0.5748031496062992,
                    "duration": 0.06637449999999934
                },
                {
                    "name": "G2",
                    "midi": 43,
                    "time": 6.770199000000003,
                    "velocity": 0.5748031496062992,
                    "duration": 0.06637450000000022
                },
                {
                    "name": "D#3",
                    "midi": 51,
                    "time": 6.902948000000004,
                    "velocity": 0.6141732283464567,
                    "duration": 0.265498
                },
                {
                    "name": "G2",
                    "midi": 43,
                    "time": 7.168446000000004,
                    "velocity": 0.5905511811023622,
                    "duration": 0.06637450000000022
                },
                {
                    "name": "G2",
                    "midi": 43,
                    "time": 7.301195000000004,
                    "velocity": 0.5905511811023622,
                    "duration": 0.06637450000000022
                },
                {
                    "name": "D#3",
                    "midi": 51,
                    "time": 7.433944000000005,
                    "velocity": 0.6456692913385826,
                    "duration": 0.2599667916666668
                },
                {
                    "name": "C#3",
                    "midi": 49,
                    "time": 7.699442000000005,
                    "velocity": 0.6456692913385826,
                    "duration": 0.13274900000000045
                },
                {
                    "name": "C#2",
                    "midi": 37,
                    "time": 7.699442000000005,
                    "velocity": 0.5748031496062992,
                    "duration": 0.13274900000000045
                },
                {
                    "name": "C#3",
                    "midi": 49,
                    "time": 7.964940000000006,
                    "velocity": 0.6456692913385826,
                    "duration": 0.13274900000000045
                },
                {
                    "name": "C#2",
                    "midi": 37,
                    "time": 7.964940000000006,
                    "velocity": 0.5748031496062992,
                    "duration": 0.13274900000000045
                },
                {
                    "name": "C#2",
                    "midi": 37,
                    "time": 8.230438000000007,
                    "velocity": 0.5748031496062992,
                    "duration": 0.13274900000000045
                },
                {
                    "name": "C#3",
                    "midi": 49,
                    "time": 8.230438000000007,
                    "velocity": 0.6456692913385826,
                    "duration": 0.13274900000000045
                },
                {
                    "name": "C#2",
                    "midi": 37,
                    "time": 8.495936000000007,
                    "velocity": 0.5748031496062992,
                    "duration": 0.13274900000000045
                },
                {
                    "name": "C#3",
                    "midi": 49,
                    "time": 8.495936000000007,
                    "velocity": 0.6456692913385826,
                    "duration": 0.13274900000000045
                },
                {
                    "name": "F3",
                    "midi": 53,
                    "time": 8.761434000000008,
                    "velocity": 0.6456692913385826,
                    "duration": 0.13274899999999867
                },
                {
                    "name": "F2",
                    "midi": 41,
                    "time": 8.761434000000008,
                    "velocity": 0.5748031496062992,
                    "duration": 0.13274899999999867
                },
                {
                    "name": "F3",
                    "midi": 53,
                    "time": 9.026932000000008,
                    "velocity": 0.5275590551181102,
                    "duration": 0.2654979999999991
                },
                {
                    "name": "G#2",
                    "midi": 44,
                    "time": 9.026932000000008,
                    "velocity": 0.5275590551181102,
                    "duration": 0.2654979999999991
                },
                {
                    "name": "G#3",
                    "midi": 56,
                    "time": 9.026932000000008,
                    "velocity": 0.5905511811023622,
                    "duration": 0.2654979999999991
                },
                {
                    "name": "F3",
                    "midi": 53,
                    "time": 9.292430000000007,
                    "velocity": 0.5669291338582677,
                    "duration": 0.06637449999999845
                },
                {
                    "name": "G#3",
                    "midi": 56,
                    "time": 9.292430000000007,
                    "velocity": 0.6299212598425197,
                    "duration": 0.06637449999999845
                },
                {
                    "name": "G#2",
                    "midi": 44,
                    "time": 9.292430000000007,
                    "velocity": 0.5669291338582677,
                    "duration": 0.06637449999999845
                },
                {
                    "name": "F3",
                    "midi": 53,
                    "time": 9.425179000000005,
                    "velocity": 0.5748031496062992,
                    "duration": 0.06637450000000022
                },
                {
                    "name": "G#3",
                    "midi": 56,
                    "time": 9.425179000000005,
                    "velocity": 0.6456692913385826,
                    "duration": 0.06637450000000022
                },
                {
                    "name": "G#2",
                    "midi": 44,
                    "time": 9.425179000000005,
                    "velocity": 0.5748031496062992,
                    "duration": 0.06637450000000022
                },
                {
                    "name": "G#2",
                    "midi": 44,
                    "time": 9.557928000000006,
                    "velocity": 0.5905511811023622,
                    "duration": 0.2654980000000009
                },
                {
                    "name": "F#3",
                    "midi": 54,
                    "time": 9.557928000000006,
                    "velocity": 0.5905511811023622,
                    "duration": 0.2654980000000009
                },
                {
                    "name": "G#3",
                    "midi": 56,
                    "time": 9.557928000000006,
                    "velocity": 0.6614173228346457,
                    "duration": 0.2654980000000009
                },
                {
                    "name": "F#3",
                    "midi": 54,
                    "time": 9.823426000000007,
                    "velocity": 0.5669291338582677,
                    "duration": 0.06637450000000022
                },
                {
                    "name": "G#3",
                    "midi": 56,
                    "time": 9.823426000000007,
                    "velocity": 0.6299212598425197,
                    "duration": 0.06637450000000022
                },
                {
                    "name": "G#2",
                    "midi": 44,
                    "time": 9.823426000000007,
                    "velocity": 0.5669291338582677,
                    "duration": 0.06637450000000022
                },
                {
                    "name": "F#3",
                    "midi": 54,
                    "time": 9.956175000000007,
                    "velocity": 0.5511811023622047,
                    "duration": 0.06637450000000022
                },
                {
                    "name": "G#3",
                    "midi": 56,
                    "time": 9.956175000000007,
                    "velocity": 0.6141732283464567,
                    "duration": 0.06637450000000022
                },
                {
                    "name": "G#2",
                    "midi": 44,
                    "time": 9.956175000000007,
                    "velocity": 0.5511811023622047,
                    "duration": 0.06637450000000022
                },
                {
                    "name": "C#3",
                    "midi": 49,
                    "time": 10.088924000000008,
                    "velocity": 0.5275590551181102,
                    "duration": 0.13274899999999867
                },
                {
                    "name": "F3",
                    "midi": 53,
                    "time": 10.088924000000008,
                    "velocity": 0.5275590551181102,
                    "duration": 0.13274899999999867
                },
                {
                    "name": "G#3",
                    "midi": 56,
                    "time": 10.088924000000008,
                    "velocity": 0.5905511811023622,
                    "duration": 0.13274899999999867
                },
                {
                    "name": "C#2",
                    "midi": 37,
                    "time": 10.354422000000007,
                    "velocity": 0.5433070866141733,
                    "duration": 0.13274900000000045
                },
                {
                    "name": "C#3",
                    "midi": 49,
                    "time": 10.354422000000007,
                    "velocity": 0.6062992125984252,
                    "duration": 0.13274900000000045
                },
                {
                    "name": "C2",
                    "midi": 36,
                    "time": 10.619920000000008,
                    "velocity": 0.5433070866141733,
                    "duration": 0.13274900000000045
                },
                {
                    "name": "C3",
                    "midi": 48,
                    "time": 10.619920000000008,
                    "velocity": 0.6062992125984252,
                    "duration": 0.13274900000000045
                },
                {
                    "name": "C3",
                    "midi": 48,
                    "time": 10.885418000000008,
                    "velocity": 0.6062992125984252,
                    "duration": 0.13274900000000045
                },
                {
                    "name": "C2",
                    "midi": 36,
                    "time": 10.885418000000008,
                    "velocity": 0.5433070866141733,
                    "duration": 0.13274900000000045
                },
                {
                    "name": "F2",
                    "midi": 41,
                    "time": 11.15091600000001,
                    "velocity": 0.4330708661417323,
                    "duration": 0.2654979999999991
                },
                {
                    "name": "F3",
                    "midi": 53,
                    "time": 11.15091600000001,
                    "velocity": 0.4881889763779528,
                    "duration": 0.2654979999999991
                },
                {
                    "name": "F3",
                    "midi": 53,
                    "time": 11.416414000000008,
                    "velocity": 0.48031496062992124,
                    "duration": 0.06637450000000022
                },
                {
                    "name": "F3",
                    "midi": 53,
                    "time": 11.549163000000009,
                    "velocity": 0.48031496062992124,
                    "duration": 0.06637450000000022
                },
                {
                    "name": "F2",
                    "midi": 41,
                    "time": 11.68191200000001,
                    "velocity": 0.4330708661417323,
                    "duration": 0.2654979999999991
                },
                {
                    "name": "F3",
                    "midi": 53,
                    "time": 11.68191200000001,
                    "velocity": 0.4881889763779528,
                    "duration": 0.2654979999999991
                },
                {
                    "name": "F3",
                    "midi": 53,
                    "time": 11.947410000000009,
                    "velocity": 0.48031496062992124,
                    "duration": 0.06637449999999845
                },
                {
                    "name": "F3",
                    "midi": 53,
                    "time": 12.080159000000007,
                    "velocity": 0.48031496062992124,
                    "duration": 0.06637450000000022
                },
                {
                    "name": "F2",
                    "midi": 41,
                    "time": 12.212908000000008,
                    "velocity": 0.44881889763779526,
                    "duration": 0.2654980000000009
                },
                {
                    "name": "F3",
                    "midi": 53,
                    "time": 12.212908000000008,
                    "velocity": 0.5039370078740157,
                    "duration": 0.2654980000000009
                },
                {
                    "name": "F3",
                    "midi": 53,
                    "time": 12.478406000000009,
                    "velocity": 0.4881889763779528,
                    "duration": 0.06637450000000022
                },
                {
                    "name": "F3",
                    "midi": 53,
                    "time": 12.611155000000009,
                    "velocity": 0.4881889763779528,
                    "duration": 0.06637450000000022
                },
                {
                    "name": "F2",
                    "midi": 41,
                    "time": 12.74390400000001,
                    "velocity": 0.4566929133858268,
                    "duration": 0.2599667916666668
                },
                {
                    "name": "F3",
                    "midi": 53,
                    "time": 12.74390400000001,
                    "velocity": 0.5118110236220472,
                    "duration": 0.2599667916666668
                },
                {
                    "name": "F3",
                    "midi": 53,
                    "time": 13.00940200000001,
                    "velocity": 0.3543307086614173,
                    "duration": 0.06637450000000022
                },
                {
                    "name": "F3",
                    "midi": 53,
                    "time": 13.14215100000001,
                    "velocity": 0.36220472440944884,
                    "duration": 0.06637450000000022
                },
                {
                    "name": "F1",
                    "midi": 29,
                    "time": 13.274900000000011,
                    "velocity": 0.28346456692913385,
                    "duration": 0.2654979999999991
                },
                {
                    "name": "F2",
                    "midi": 41,
                    "time": 13.274900000000011,
                    "velocity": 0.31496062992125984,
                    "duration": 0.2654979999999991
                },
                {
                    "name": "F2",
                    "midi": 41,
                    "time": 13.54039800000001,
                    "velocity": 0.2992125984251969,
                    "duration": 0.06637450000000022
                },
                {
                    "name": "F2",
                    "midi": 41,
                    "time": 13.67314700000001,
                    "velocity": 0.2992125984251969,
                    "duration": 0.06637450000000022
                },
                {
                    "name": "F1",
                    "midi": 29,
                    "time": 13.805896000000011,
                    "velocity": 0.28346456692913385,
                    "duration": 0.2654980000000009
                },
                {
                    "name": "F2",
                    "midi": 41,
                    "time": 13.805896000000011,
                    "velocity": 0.31496062992125984,
                    "duration": 0.2654980000000009
                },
                {
                    "name": "F2",
                    "midi": 41,
                    "time": 14.071394000000012,
                    "velocity": 0.2992125984251969,
                    "duration": 0.06637450000000022
                },
                {
                    "name": "F2",
                    "midi": 41,
                    "time": 14.204143000000013,
                    "velocity": 0.2992125984251969,
                    "duration": 0.06637450000000022
                },
                {
                    "name": "F1",
                    "midi": 29,
                    "time": 14.336892000000013,
                    "velocity": 0.28346456692913385,
                    "duration": 0.2654980000000009
                },
                {
                    "name": "F2",
                    "midi": 41,
                    "time": 14.336892000000013,
                    "velocity": 0.31496062992125984,
                    "duration": 0.2654980000000009
                },
                {
                    "name": "F2",
                    "midi": 41,
                    "time": 14.602390000000014,
                    "velocity": 0.2992125984251969,
                    "duration": 0.06637450000000022
                },
                {
                    "name": "F2",
                    "midi": 41,
                    "time": 14.735139000000014,
                    "velocity": 0.2992125984251969,
                    "duration": 0.06637450000000022
                },
                {
                    "name": "F1",
                    "midi": 29,
                    "time": 14.867888000000015,
                    "velocity": 0.28346456692913385,
                    "duration": 0.2654980000000009
                },
                {
                    "name": "F2",
                    "midi": 41,
                    "time": 14.867888000000015,
                    "velocity": 0.31496062992125984,
                    "duration": 0.2654980000000009
                },
                {
                    "name": "F2",
                    "midi": 41,
                    "time": 15.133386000000016,
                    "velocity": 0.2992125984251969,
                    "duration": 0.06637449999999845
                },
                {
                    "name": "F2",
                    "midi": 41,
                    "time": 15.266135000000014,
                    "velocity": 0.2992125984251969,
                    "duration": 0.06637450000000022
                },
                {
                    "name": "F3",
                    "midi": 53,
                    "time": 15.398884000000015,
                    "velocity": 0.5275590551181102,
                    "duration": 0.2654979999999991
                },
                {
                    "name": "D3",
                    "midi": 50,
                    "time": 15.664382000000014,
                    "velocity": 0.4881889763779528,
                    "duration": 0.06637450000000022
                },
                {
                    "name": "D3",
                    "midi": 50,
                    "time": 15.797131000000014,
                    "velocity": 0.4881889763779528,
                    "duration": 0.06637450000000022
                },
                {
                    "name": "D#3",
                    "midi": 51,
                    "time": 15.929880000000015,
                    "velocity": 0.5433070866141733,
                    "duration": 0.26549799999999735
                },
                {
                    "name": "C3",
                    "midi": 48,
                    "time": 16.195378000000012,
                    "velocity": 0.5118110236220472,
                    "duration": 0.066374500000002
                },
                {
                    "name": "C3",
                    "midi": 48,
                    "time": 16.328127000000013,
                    "velocity": 0.5118110236220472,
                    "duration": 0.06637449999999845
                },
                {
                    "name": "B2",
                    "midi": 47,
                    "time": 16.46087600000001,
                    "velocity": 0.5433070866141733,
                    "duration": 0.2654980000000009
                },
                {
                    "name": "G2",
                    "midi": 43,
                    "time": 16.72637400000001,
                    "velocity": 0.5196850393700787,
                    "duration": 0.066374500000002
                },
                {
                    "name": "G2",
                    "midi": 43,
                    "time": 16.85912300000001,
                    "velocity": 0.5196850393700787,
                    "duration": 0.06637449999999845
                },
                {
                    "name": "C3",
                    "midi": 48,
                    "time": 16.991872000000008,
                    "velocity": 0.5511811023622047,
                    "duration": 0.26549799999999735
                },
                {
                    "name": "G2",
                    "midi": 43,
                    "time": 17.257370000000005,
                    "velocity": 0.5511811023622047,
                    "duration": 0.066374500000002
                },
                {
                    "name": "G2",
                    "midi": 43,
                    "time": 17.390119000000006,
                    "velocity": 0.5511811023622047,
                    "duration": 0.06637449999999845
                },
                {
                    "name": "D3",
                    "midi": 50,
                    "time": 17.522868000000003,
                    "velocity": 0.5984251968503937,
                    "duration": 0.2654980000000009
                },
                {
                    "name": "G2",
                    "midi": 43,
                    "time": 17.788366000000003,
                    "velocity": 0.5748031496062992,
                    "duration": 0.06637449999999845
                },
                {
                    "name": "G2",
                    "midi": 43,
                    "time": 17.921115,
                    "velocity": 0.5748031496062992,
                    "duration": 0.06637449999999845
                },
                {
                    "name": "D#3",
                    "midi": 51,
                    "time": 18.053863999999997,
                    "velocity": 0.6141732283464567,
                    "duration": 0.2654980000000009
                },
                {
                    "name": "G2",
                    "midi": 43,
                    "time": 18.319361999999998,
                    "velocity": 0.5905511811023622,
                    "duration": 0.06637449999999845
                },
                {
                    "name": "G2",
                    "midi": 43,
                    "time": 18.452110999999995,
                    "velocity": 0.5905511811023622,
                    "duration": 0.06637449999999845
                },
                {
                    "name": "D#3",
                    "midi": 51,
                    "time": 18.584859999999992,
                    "velocity": 0.6456692913385826,
                    "duration": 0.2599667916666668
                },
                {
                    "name": "C#2",
                    "midi": 37,
                    "time": 18.850357999999993,
                    "velocity": 0.5748031496062992,
                    "duration": 0.13274900000000045
                },
                {
                    "name": "C#3",
                    "midi": 49,
                    "time": 18.850357999999993,
                    "velocity": 0.6456692913385826,
                    "duration": 0.13274900000000045
                },
                {
                    "name": "C#2",
                    "midi": 37,
                    "time": 19.115855999999994,
                    "velocity": 0.5748031496062992,
                    "duration": 0.13274900000000045
                },
                {
                    "name": "C#3",
                    "midi": 49,
                    "time": 19.115855999999994,
                    "velocity": 0.6456692913385826,
                    "duration": 0.13274900000000045
                },
                {
                    "name": "C#2",
                    "midi": 37,
                    "time": 19.381353999999995,
                    "velocity": 0.5748031496062992,
                    "duration": 0.13274900000000045
                },
                {
                    "name": "C#3",
                    "midi": 49,
                    "time": 19.381353999999995,
                    "velocity": 0.6456692913385826,
                    "duration": 0.13274900000000045
                },
                {
                    "name": "C#2",
                    "midi": 37,
                    "time": 19.646851999999996,
                    "velocity": 0.5748031496062992,
                    "duration": 0.13274900000000045
                },
                {
                    "name": "C#3",
                    "midi": 49,
                    "time": 19.646851999999996,
                    "velocity": 0.6456692913385826,
                    "duration": 0.13274900000000045
                },
                {
                    "name": "F2",
                    "midi": 41,
                    "time": 19.912349999999996,
                    "velocity": 0.5748031496062992,
                    "duration": 0.13274900000000045
                },
                {
                    "name": "F3",
                    "midi": 53,
                    "time": 19.912349999999996,
                    "velocity": 0.6456692913385826,
                    "duration": 0.13274900000000045
                },
                {
                    "name": "G#3",
                    "midi": 56,
                    "time": 20.177847999999997,
                    "velocity": 0.5905511811023622,
                    "duration": 0.2654980000000009
                },
                {
                    "name": "F3",
                    "midi": 53,
                    "time": 20.177847999999997,
                    "velocity": 0.5275590551181102,
                    "duration": 0.2654980000000009
                },
                {
                    "name": "G#2",
                    "midi": 44,
                    "time": 20.177847999999997,
                    "velocity": 0.5275590551181102,
                    "duration": 0.2654980000000009
                },
                {
                    "name": "G#2",
                    "midi": 44,
                    "time": 20.443346,
                    "velocity": 0.5669291338582677,
                    "duration": 0.06637449999999845
                },
                {
                    "name": "F3",
                    "midi": 53,
                    "time": 20.443346,
                    "velocity": 0.5669291338582677,
                    "duration": 0.06637449999999845
                },
                {
                    "name": "G#3",
                    "midi": 56,
                    "time": 20.443346,
                    "velocity": 0.6299212598425197,
                    "duration": 0.06637449999999845
                },
                {
                    "name": "G#2",
                    "midi": 44,
                    "time": 20.576094999999995,
                    "velocity": 0.5748031496062992,
                    "duration": 0.06637449999999845
                },
                {
                    "name": "F3",
                    "midi": 53,
                    "time": 20.576094999999995,
                    "velocity": 0.5748031496062992,
                    "duration": 0.06637449999999845
                },
                {
                    "name": "G#3",
                    "midi": 56,
                    "time": 20.576094999999995,
                    "velocity": 0.6456692913385826,
                    "duration": 0.06637449999999845
                },
                {
                    "name": "G#2",
                    "midi": 44,
                    "time": 20.708843999999992,
                    "velocity": 0.5905511811023622,
                    "duration": 0.2654980000000009
                },
                {
                    "name": "G#3",
                    "midi": 56,
                    "time": 20.708843999999992,
                    "velocity": 0.6614173228346457,
                    "duration": 0.2654980000000009
                },
                {
                    "name": "F#3",
                    "midi": 54,
                    "time": 20.708843999999992,
                    "velocity": 0.5905511811023622,
                    "duration": 0.2654980000000009
                },
                {
                    "name": "F#3",
                    "midi": 54,
                    "time": 20.974341999999993,
                    "velocity": 0.5669291338582677,
                    "duration": 0.06637449999999845
                },
                {
                    "name": "G#3",
                    "midi": 56,
                    "time": 20.974341999999993,
                    "velocity": 0.6299212598425197,
                    "duration": 0.06637449999999845
                },
                {
                    "name": "G#2",
                    "midi": 44,
                    "time": 20.974341999999993,
                    "velocity": 0.5669291338582677,
                    "duration": 0.06637449999999845
                },
                {
                    "name": "F#3",
                    "midi": 54,
                    "time": 21.10709099999999,
                    "velocity": 0.5511811023622047,
                    "duration": 0.06637449999999845
                },
                {
                    "name": "G#3",
                    "midi": 56,
                    "time": 21.10709099999999,
                    "velocity": 0.6141732283464567,
                    "duration": 0.06637449999999845
                },
                {
                    "name": "G#2",
                    "midi": 44,
                    "time": 21.10709099999999,
                    "velocity": 0.5511811023622047,
                    "duration": 0.06637449999999845
                },
                {
                    "name": "C#3",
                    "midi": 49,
                    "time": 21.239839999999987,
                    "velocity": 0.5275590551181102,
                    "duration": 0.13274900000000045
                },
                {
                    "name": "F3",
                    "midi": 53,
                    "time": 21.239839999999987,
                    "velocity": 0.5275590551181102,
                    "duration": 0.13274900000000045
                },
                {
                    "name": "G#3",
                    "midi": 56,
                    "time": 21.239839999999987,
                    "velocity": 0.5905511811023622,
                    "duration": 0.13274900000000045
                },
                {
                    "name": "C#2",
                    "midi": 37,
                    "time": 21.505337999999988,
                    "velocity": 0.5433070866141733,
                    "duration": 0.13274900000000045
                },
                {
                    "name": "C#3",
                    "midi": 49,
                    "time": 21.505337999999988,
                    "velocity": 0.6062992125984252,
                    "duration": 0.13274900000000045
                },
                {
                    "name": "C2",
                    "midi": 36,
                    "time": 21.77083599999999,
                    "velocity": 0.5433070866141733,
                    "duration": 0.13274900000000045
                },
                {
                    "name": "C3",
                    "midi": 48,
                    "time": 21.77083599999999,
                    "velocity": 0.6062992125984252,
                    "duration": 0.13274900000000045
                },
                {
                    "name": "C2",
                    "midi": 36,
                    "time": 22.03633399999999,
                    "velocity": 0.5433070866141733,
                    "duration": 0.13274900000000045
                },
                {
                    "name": "C3",
                    "midi": 48,
                    "time": 22.03633399999999,
                    "velocity": 0.6062992125984252,
                    "duration": 0.13274900000000045
                },
                {
                    "name": "A#3",
                    "midi": 58,
                    "time": 22.30183199999999,
                    "velocity": 0.28346456692913385,
                    "duration": 0.2654980000000009
                },
                {
                    "name": "C4",
                    "midi": 60,
                    "time": 22.30183199999999,
                    "velocity": 0.31496062992125984,
                    "duration": 0.2654980000000009
                },
                {
                    "name": "G3",
                    "midi": 55,
                    "time": 22.56732999999999,
                    "velocity": 0.2755905511811024,
                    "duration": 0.06637449999999845
                },
                {
                    "name": "C4",
                    "midi": 60,
                    "time": 22.56732999999999,
                    "velocity": 0.30708661417322836,
                    "duration": 0.06637449999999845
                },
                {
                    "name": "G3",
                    "midi": 55,
                    "time": 22.700078999999988,
                    "velocity": 0.2755905511811024,
                    "duration": 0.06637449999999845
                },
                {
                    "name": "C4",
                    "midi": 60,
                    "time": 22.700078999999988,
                    "velocity": 0.30708661417322836,
                    "duration": 0.06637449999999845
                },
                {
                    "name": "G#3",
                    "midi": 56,
                    "time": 22.832827999999985,
                    "velocity": 0.28346456692913385,
                    "duration": 0.2654980000000009
                },
                {
                    "name": "C4",
                    "midi": 60,
                    "time": 22.832827999999985,
                    "velocity": 0.31496062992125984,
                    "duration": 0.2654980000000009
                },
                {
                    "name": "F3",
                    "midi": 53,
                    "time": 23.098325999999986,
                    "velocity": 0.2677165354330709,
                    "duration": 0.066374500000002
                },
                {
                    "name": "C4",
                    "midi": 60,
                    "time": 23.098325999999986,
                    "velocity": 0.2992125984251969,
                    "duration": 0.066374500000002
                },
                {
                    "name": "F3",
                    "midi": 53,
                    "time": 23.231074999999986,
                    "velocity": 0.2677165354330709,
                    "duration": 0.06637449999999845
                },
                {
                    "name": "C4",
                    "midi": 60,
                    "time": 23.231074999999986,
                    "velocity": 0.2992125984251969,
                    "duration": 0.06637449999999845
                },
                {
                    "name": "F#3",
                    "midi": 54,
                    "time": 23.363823999999983,
                    "velocity": 0.28346456692913385,
                    "duration": 0.2654980000000009
                },
                {
                    "name": "G#3",
                    "midi": 56,
                    "time": 23.363823999999983,
                    "velocity": 0.31496062992125984,
                    "duration": 0.2654980000000009
                },
                {
                    "name": "C3",
                    "midi": 48,
                    "time": 23.629321999999984,
                    "velocity": 0.2677165354330709,
                    "duration": 0.06637449999999845
                },
                {
                    "name": "G#3",
                    "midi": 56,
                    "time": 23.629321999999984,
                    "velocity": 0.2992125984251969,
                    "duration": 0.06637449999999845
                },
                {
                    "name": "C3",
                    "midi": 48,
                    "time": 23.76207099999998,
                    "velocity": 0.2677165354330709,
                    "duration": 0.06637449999999845
                },
                {
                    "name": "G#3",
                    "midi": 56,
                    "time": 23.76207099999998,
                    "velocity": 0.2992125984251969,
                    "duration": 0.06637449999999845
                },
                {
                    "name": "C#2",
                    "midi": 37,
                    "time": 23.894819999999978,
                    "velocity": 0.5354330708661418,
                    "duration": 0.06637449999999845
                },
                {
                    "name": "C#3",
                    "midi": 49,
                    "time": 23.894819999999978,
                    "velocity": 0.5984251968503937,
                    "duration": 0.06637449999999845
                },
                {
                    "name": "C#3",
                    "midi": 49,
                    "time": 24.15589303333331,
                    "velocity": 0.5354330708661418,
                    "duration": 0.06637449999999845
                },
                {
                    "name": "G#3",
                    "midi": 56,
                    "time": 24.15589303333331,
                    "velocity": 0.5984251968503937,
                    "duration": 0.06637449999999845
                },
                {
                    "name": "F#3",
                    "midi": 54,
                    "time": 24.425815999999976,
                    "velocity": 0.28346456692913385,
                    "duration": 0.2654980000000009
                },
                {
                    "name": "G#3",
                    "midi": 56,
                    "time": 24.425815999999976,
                    "velocity": 0.31496062992125984,
                    "duration": 0.2654980000000009
                },
                {
                    "name": "C3",
                    "midi": 48,
                    "time": 24.691313999999977,
                    "velocity": 0.2677165354330709,
                    "duration": 0.06637449999999845
                },
                {
                    "name": "G#3",
                    "midi": 56,
                    "time": 24.691313999999977,
                    "velocity": 0.2992125984251969,
                    "duration": 0.06637449999999845
                },
                {
                    "name": "C3",
                    "midi": 48,
                    "time": 24.824062999999974,
                    "velocity": 0.2677165354330709,
                    "duration": 0.06637449999999845
                },
                {
                    "name": "G#3",
                    "midi": 56,
                    "time": 24.824062999999974,
                    "velocity": 0.2992125984251969,
                    "duration": 0.06637449999999845
                },
                {
                    "name": "C#2",
                    "midi": 37,
                    "time": 24.95681199999997,
                    "velocity": 0.5275590551181102,
                    "duration": 0.06582137916666753
                },
                {
                    "name": "C#3",
                    "midi": 49,
                    "time": 24.95681199999997,
                    "velocity": 0.5905511811023622,
                    "duration": 0.06582137916666753
                },
                {
                    "name": "C#3",
                    "midi": 49,
                    "time": 25.217885033333307,
                    "velocity": 0.5275590551181102,
                    "duration": 0.06582137916666753
                },
                {
                    "name": "G#3",
                    "midi": 56,
                    "time": 25.217885033333307,
                    "velocity": 0.5905511811023622,
                    "duration": 0.06582137916666753
                },
                {
                    "name": "D#4",
                    "midi": 63,
                    "time": 25.487807999999973,
                    "velocity": 0.28346456692913385,
                    "duration": 0.2654980000000009
                },
                {
                    "name": "F4",
                    "midi": 65,
                    "time": 25.487807999999973,
                    "velocity": 0.31496062992125984,
                    "duration": 0.2654980000000009
                },
                {
                    "name": "C4",
                    "midi": 60,
                    "time": 25.753305999999974,
                    "velocity": 0.2755905511811024,
                    "duration": 0.06637449999999845
                },
                {
                    "name": "F4",
                    "midi": 65,
                    "time": 25.753305999999974,
                    "velocity": 0.30708661417322836,
                    "duration": 0.06637449999999845
                },
                {
                    "name": "C4",
                    "midi": 60,
                    "time": 25.88605499999997,
                    "velocity": 0.2755905511811024,
                    "duration": 0.06637449999999845
                },
                {
                    "name": "F4",
                    "midi": 65,
                    "time": 25.88605499999997,
                    "velocity": 0.30708661417322836,
                    "duration": 0.06637449999999845
                },
                {
                    "name": "C#4",
                    "midi": 61,
                    "time": 26.018803999999967,
                    "velocity": 0.28346456692913385,
                    "duration": 0.2654980000000009
                },
                {
                    "name": "F4",
                    "midi": 65,
                    "time": 26.018803999999967,
                    "velocity": 0.31496062992125984,
                    "duration": 0.2654980000000009
                },
                {
                    "name": "A#3",
                    "midi": 58,
                    "time": 26.28430199999997,
                    "velocity": 0.2677165354330709,
                    "duration": 0.06637449999999845
                },
                {
                    "name": "F4",
                    "midi": 65,
                    "time": 26.28430199999997,
                    "velocity": 0.2992125984251969,
                    "duration": 0.06637449999999845
                },
                {
                    "name": "A#3",
                    "midi": 58,
                    "time": 26.417050999999965,
                    "velocity": 0.2677165354330709,
                    "duration": 0.06637449999999845
                },
                {
                    "name": "F4",
                    "midi": 65,
                    "time": 26.417050999999965,
                    "velocity": 0.2992125984251969,
                    "duration": 0.06637449999999845
                },
                {
                    "name": "B3",
                    "midi": 59,
                    "time": 26.549799999999962,
                    "velocity": 0.28346456692913385,
                    "duration": 0.26549799999999735
                },
                {
                    "name": "C#4",
                    "midi": 61,
                    "time": 26.549799999999962,
                    "velocity": 0.31496062992125984,
                    "duration": 0.26549799999999735
                },
                {
                    "name": "F3",
                    "midi": 53,
                    "time": 26.81529799999996,
                    "velocity": 0.2677165354330709,
                    "duration": 0.06637449999999845
                },
                {
                    "name": "C#4",
                    "midi": 61,
                    "time": 26.81529799999996,
                    "velocity": 0.2992125984251969,
                    "duration": 0.06637449999999845
                },
                {
                    "name": "F3",
                    "midi": 53,
                    "time": 26.948046999999956,
                    "velocity": 0.2677165354330709,
                    "duration": 0.06637449999999845
                },
                {
                    "name": "C#4",
                    "midi": 61,
                    "time": 26.948046999999956,
                    "velocity": 0.2992125984251969,
                    "duration": 0.06637449999999845
                },
                {
                    "name": "F#2",
                    "midi": 42,
                    "time": 27.080795999999953,
                    "velocity": 0.5669291338582677,
                    "duration": 0.06582137916666753
                },
                {
                    "name": "F#3",
                    "midi": 54,
                    "time": 27.080795999999953,
                    "velocity": 0.6299212598425197,
                    "duration": 0.06582137916666753
                },
                {
                    "name": "F#3",
                    "midi": 54,
                    "time": 27.34186903333329,
                    "velocity": 0.5669291338582677,
                    "duration": 0.06582137916666753
                },
                {
                    "name": "C#4",
                    "midi": 61,
                    "time": 27.34186903333329,
                    "velocity": 0.6299212598425197,
                    "duration": 0.06582137916666753
                },
                {
                    "name": "B3",
                    "midi": 59,
                    "time": 27.611791999999955,
                    "velocity": 0.28346456692913385,
                    "duration": 0.2654980000000009
                },
                {
                    "name": "C#4",
                    "midi": 61,
                    "time": 27.611791999999955,
                    "velocity": 0.31496062992125984,
                    "duration": 0.2654980000000009
                },
                {
                    "name": "F3",
                    "midi": 53,
                    "time": 27.877289999999956,
                    "velocity": 0.2677165354330709,
                    "duration": 0.06637449999999845
                },
                {
                    "name": "C#4",
                    "midi": 61,
                    "time": 27.877289999999956,
                    "velocity": 0.2992125984251969,
                    "duration": 0.06637449999999845
                },
                {
                    "name": "F3",
                    "midi": 53,
                    "time": 28.010038999999953,
                    "velocity": 0.2677165354330709,
                    "duration": 0.06637449999999845
                },
                {
                    "name": "C#4",
                    "midi": 61,
                    "time": 28.010038999999953,
                    "velocity": 0.2992125984251969,
                    "duration": 0.06637449999999845
                },
                {
                    "name": "F#2",
                    "midi": 42,
                    "time": 28.14278799999995,
                    "velocity": 0.5511811023622047,
                    "duration": 0.06582137916666753
                },
                {
                    "name": "F#3",
                    "midi": 54,
                    "time": 28.14278799999995,
                    "velocity": 0.6141732283464567,
                    "duration": 0.06582137916666753
                },
                {
                    "name": "F#3",
                    "midi": 54,
                    "time": 28.403861033333285,
                    "velocity": 0.5511811023622047,
                    "duration": 0.06582137916666753
                },
                {
                    "name": "C#4",
                    "midi": 61,
                    "time": 28.403861033333285,
                    "velocity": 0.6141732283464567,
                    "duration": 0.06582137916666753
                },
                {
                    "name": "C#3",
                    "midi": 49,
                    "time": 28.67378399999995,
                    "velocity": 0.3464566929133858,
                    "duration": 0.06637449999999845
                },
                {
                    "name": "F#3",
                    "midi": 54,
                    "time": 28.93928199999995,
                    "velocity": 0.2992125984251969,
                    "duration": 0.06637449999999845
                },
                {
                    "name": "F#3",
                    "midi": 54,
                    "time": 29.204779999999946,
                    "velocity": 0.31496062992125984,
                    "duration": 0.06637449999999845
                },
                {
                    "name": "B3",
                    "midi": 59,
                    "time": 29.470277999999944,
                    "velocity": 0.29133858267716534,
                    "duration": 0.06637449999999845
                },
                {
                    "name": "F#2",
                    "midi": 42,
                    "time": 29.73577599999994,
                    "velocity": 0.30708661417322836,
                    "duration": 0.06637449999999845
                },
                {
                    "name": "F#3",
                    "midi": 54,
                    "time": 30.00127399999994,
                    "velocity": 0.28346456692913385,
                    "duration": 0.06637449999999845
                },
                {
                    "name": "F#2",
                    "midi": 42,
                    "time": 30.266771999999936,
                    "velocity": 0.2677165354330709,
                    "duration": 0.06637449999999845
                },
                {
                    "name": "F#3",
                    "midi": 54,
                    "time": 30.266771999999936,
                    "velocity": 0.2992125984251969,
                    "duration": 0.06637449999999845
                },
                {
                    "name": "B2",
                    "midi": 47,
                    "time": 30.532269999999933,
                    "velocity": 0.2204724409448819,
                    "duration": 0.06637449999999845
                },
                {
                    "name": "F#3",
                    "midi": 54,
                    "time": 30.532269999999933,
                    "velocity": 0.25196850393700787,
                    "duration": 0.06637449999999845
                },
                {
                    "name": "F#3",
                    "midi": 54,
                    "time": 30.79776799999993,
                    "velocity": 0.31496062992125984,
                    "duration": 0.06637449999999845
                },
                {
                    "name": "G4",
                    "midi": 67,
                    "time": 31.063265999999928,
                    "velocity": 0.28346456692913385,
                    "duration": 0.06637449999999845
                },
                {
                    "name": "F#3",
                    "midi": 54,
                    "time": 31.328763999999925,
                    "velocity": 0.2755905511811024,
                    "duration": 0.06637449999999845
                },
                {
                    "name": "F#4",
                    "midi": 66,
                    "time": 31.328763999999925,
                    "velocity": 0.30708661417322836,
                    "duration": 0.06637449999999845
                },
                {
                    "name": "B3",
                    "midi": 59,
                    "time": 31.594261999999922,
                    "velocity": 0.2204724409448819,
                    "duration": 0.06637449999999845
                },
                {
                    "name": "F#4",
                    "midi": 66,
                    "time": 31.594261999999922,
                    "velocity": 0.25196850393700787,
                    "duration": 0.06637449999999845
                },
                {
                    "name": "D3",
                    "midi": 50,
                    "time": 31.85975999999992,
                    "velocity": 0.3543307086614173,
                    "duration": 0.06637449999999845
                },
                {
                    "name": "G3",
                    "midi": 55,
                    "time": 32.12525799999992,
                    "velocity": 0.31496062992125984,
                    "duration": 0.066374500000002
                },
                {
                    "name": "G3",
                    "midi": 55,
                    "time": 32.39075599999992,
                    "velocity": 0.3228346456692913,
                    "duration": 0.066374500000002
                },
                {
                    "name": "C4",
                    "midi": 60,
                    "time": 32.65625399999992,
                    "velocity": 0.30708661417322836,
                    "duration": 0.066374500000002
                },
                {
                    "name": "G2",
                    "midi": 43,
                    "time": 32.92175199999992,
                    "velocity": 0.31496062992125984,
                    "duration": 0.066374500000002
                },
                {
                    "name": "G3",
                    "midi": 55,
                    "time": 33.18724999999992,
                    "velocity": 0.28346456692913385,
                    "duration": 0.066374500000002
                },
                {
                    "name": "G2",
                    "midi": 43,
                    "time": 33.45274799999992,
                    "velocity": 0.2677165354330709,
                    "duration": 0.066374500000002
                },
                {
                    "name": "G3",
                    "midi": 55,
                    "time": 33.45274799999992,
                    "velocity": 0.2992125984251969,
                    "duration": 0.066374500000002
                },
                {
                    "name": "C3",
                    "midi": 48,
                    "time": 33.71824599999992,
                    "velocity": 0.2283464566929134,
                    "duration": 0.066374500000002
                },
                {
                    "name": "G3",
                    "midi": 55,
                    "time": 33.71824599999992,
                    "velocity": 0.25984251968503935,
                    "duration": 0.066374500000002
                },
                {
                    "name": "G3",
                    "midi": 55,
                    "time": 33.98374399999992,
                    "velocity": 0.3228346456692913,
                    "duration": 0.066374500000002
                },
                {
                    "name": "G#4",
                    "midi": 68,
                    "time": 34.249241999999924,
                    "velocity": 0.2992125984251969,
                    "duration": 0.066374500000002
                },
                {
                    "name": "G3",
                    "midi": 55,
                    "time": 34.514739999999925,
                    "velocity": 0.28346456692913385,
                    "duration": 0.066374500000002
                },
                {
                    "name": "G4",
                    "midi": 67,
                    "time": 34.514739999999925,
                    "velocity": 0.31496062992125984,
                    "duration": 0.066374500000002
                },
                {
                    "name": "C4",
                    "midi": 60,
                    "time": 34.780237999999926,
                    "velocity": 0.25196850393700787,
                    "duration": 0.066374500000002
                },
                {
                    "name": "G4",
                    "midi": 67,
                    "time": 34.780237999999926,
                    "velocity": 0.28346456692913385,
                    "duration": 0.066374500000002
                },
                {
                    "name": "G4",
                    "midi": 67,
                    "time": 35.04573599999993,
                    "velocity": 0.3543307086614173,
                    "duration": 0.066374500000002
                },
                {
                    "name": "D#4",
                    "midi": 63,
                    "time": 35.31123399999993,
                    "velocity": 0.3228346456692913,
                    "duration": 0.066374500000002
                },
                {
                    "name": "D#4",
                    "midi": 63,
                    "time": 35.57673199999993,
                    "velocity": 0.3700787401574803,
                    "duration": 0.066374500000002
                },
                {
                    "name": "B3",
                    "midi": 59,
                    "time": 35.84222999999993,
                    "velocity": 0.31496062992125984,
                    "duration": 0.066374500000002
                },
                {
                    "name": "D#4",
                    "midi": 63,
                    "time": 35.84222999999993,
                    "velocity": 0.3543307086614173,
                    "duration": 0.066374500000002
                },
                {
                    "name": "C#4",
                    "midi": 61,
                    "time": 36.10772799999993,
                    "velocity": 0.33858267716535434,
                    "duration": 0.066374500000002
                },
                {
                    "name": "D#4",
                    "midi": 63,
                    "time": 36.10772799999993,
                    "velocity": 0.3779527559055118,
                    "duration": 0.066374500000002
                },
                {
                    "name": "A#3",
                    "midi": 58,
                    "time": 36.37322599999993,
                    "velocity": 0.31496062992125984,
                    "duration": 0.066374500000002
                },
                {
                    "name": "D#4",
                    "midi": 63,
                    "time": 36.37322599999993,
                    "velocity": 0.3543307086614173,
                    "duration": 0.066374500000002
                },
                {
                    "name": "A#3",
                    "midi": 58,
                    "time": 36.63872399999993,
                    "velocity": 0.3779527559055118,
                    "duration": 0.066374500000002
                },
                {
                    "name": "D#4",
                    "midi": 63,
                    "time": 36.63872399999993,
                    "velocity": 0.3779527559055118,
                    "duration": 0.066374500000002
                },
                {
                    "name": "B3",
                    "midi": 59,
                    "time": 36.90422199999993,
                    "velocity": 0.3228346456692913,
                    "duration": 0.066374500000002
                },
                {
                    "name": "D#4",
                    "midi": 63,
                    "time": 36.90422199999993,
                    "velocity": 0.3228346456692913,
                    "duration": 0.066374500000002
                },
                {
                    "name": "E4",
                    "midi": 64,
                    "time": 37.169719999999934,
                    "velocity": 0.3543307086614173,
                    "duration": 0.066374500000002
                },
                {
                    "name": "C#4",
                    "midi": 61,
                    "time": 37.435217999999935,
                    "velocity": 0.3228346456692913,
                    "duration": 0.066374500000002
                },
                {
                    "name": "C#4",
                    "midi": 61,
                    "time": 37.700715999999936,
                    "velocity": 0.3543307086614173,
                    "duration": 0.066374500000002
                },
                {
                    "name": "D#4",
                    "midi": 63,
                    "time": 37.96621399999994,
                    "velocity": 0.3228346456692913,
                    "duration": 0.066374500000002
                },
                {
                    "name": "G#4",
                    "midi": 68,
                    "time": 38.23171199999994,
                    "velocity": 0.3779527559055118,
                    "duration": 0.066374500000002
                },
                {
                    "name": "E4",
                    "midi": 64,
                    "time": 38.49720999999994,
                    "velocity": 0.3543307086614173,
                    "duration": 0.066374500000002
                },
                {
                    "name": "E4",
                    "midi": 64,
                    "time": 38.76270799999994,
                    "velocity": 0.4251968503937008,
                    "duration": 0.066374500000002
                },
                {
                    "name": "C4",
                    "midi": 60,
                    "time": 39.02820599999994,
                    "velocity": 0.3779527559055118,
                    "duration": 0.066374500000002
                },
                {
                    "name": "E4",
                    "midi": 64,
                    "time": 39.02820599999994,
                    "velocity": 0.3779527559055118,
                    "duration": 0.066374500000002
                },
                {
                    "name": "D4",
                    "midi": 62,
                    "time": 39.29370399999994,
                    "velocity": 0.41732283464566927,
                    "duration": 0.066374500000002
                },
                {
                    "name": "E4",
                    "midi": 64,
                    "time": 39.29370399999994,
                    "velocity": 0.4645669291338583,
                    "duration": 0.066374500000002
                },
                {
                    "name": "B3",
                    "midi": 59,
                    "time": 39.55920199999994,
                    "velocity": 0.3779527559055118,
                    "duration": 0.066374500000002
                },
                {
                    "name": "E4",
                    "midi": 64,
                    "time": 39.55920199999994,
                    "velocity": 0.4251968503937008,
                    "duration": 0.066374500000002
                },
                {
                    "name": "B3",
                    "midi": 59,
                    "time": 39.82469999999994,
                    "velocity": 0.4094488188976378,
                    "duration": 0.066374500000002
                },
                {
                    "name": "E4",
                    "midi": 64,
                    "time": 39.82469999999994,
                    "velocity": 0.4566929133858268,
                    "duration": 0.066374500000002
                },
                {
                    "name": "C4",
                    "midi": 60,
                    "time": 40.090197999999944,
                    "velocity": 0.3779527559055118,
                    "duration": 0.066374500000002
                },
                {
                    "name": "E4",
                    "midi": 64,
                    "time": 40.090197999999944,
                    "velocity": 0.4251968503937008,
                    "duration": 0.066374500000002
                },
                {
                    "name": "F4",
                    "midi": 65,
                    "time": 40.355695999999945,
                    "velocity": 0.4645669291338583,
                    "duration": 0.066374500000002
                },
                {
                    "name": "D4",
                    "midi": 62,
                    "time": 40.621193999999946,
                    "velocity": 0.3937007874015748,
                    "duration": 0.066374500000002
                },
                {
                    "name": "D4",
                    "midi": 62,
                    "time": 40.88669199999995,
                    "velocity": 0.4566929133858268,
                    "duration": 0.066374500000002
                },
                {
                    "name": "E4",
                    "midi": 64,
                    "time": 41.15218999999995,
                    "velocity": 0.3937007874015748,
                    "duration": 0.06526825833333305
                },
                {
                    "name": "C#4",
                    "midi": 61,
                    "time": 41.41768799999995,
                    "velocity": 0.5354330708661418,
                    "duration": 0.2654980000000009
                },
                {
                    "name": "C4",
                    "midi": 60,
                    "time": 41.68318599999995,
                    "velocity": 0.4566929133858268,
                    "duration": 0.09956174999999945
                },
                {
                    "name": "C#4",
                    "midi": 61,
                    "time": 41.68318599999995,
                    "velocity": 0.5118110236220472,
                    "duration": 0.09956174999999945
                },
                {
                    "name": "A#3",
                    "midi": 58,
                    "time": 41.815934999999946,
                    "velocity": 0.4566929133858268,
                    "duration": 0.09956174999999945
                },
                {
                    "name": "C#4",
                    "midi": 61,
                    "time": 41.815934999999946,
                    "velocity": 0.5118110236220472,
                    "duration": 0.09956174999999945
                },
                {
                    "name": "A#3",
                    "midi": 58,
                    "time": 41.94868399999994,
                    "velocity": 0.48031496062992124,
                    "duration": 0.2654980000000009
                },
                {
                    "name": "C#4",
                    "midi": 61,
                    "time": 41.94868399999994,
                    "velocity": 0.5354330708661418,
                    "duration": 0.2654980000000009
                },
                {
                    "name": "G#3",
                    "midi": 56,
                    "time": 42.214181999999944,
                    "velocity": 0.4566929133858268,
                    "duration": 0.09956174999999945
                },
                {
                    "name": "C#4",
                    "midi": 61,
                    "time": 42.214181999999944,
                    "velocity": 0.5118110236220472,
                    "duration": 0.09956174999999945
                },
                {
                    "name": "G3",
                    "midi": 55,
                    "time": 42.34693099999994,
                    "velocity": 0.4566929133858268,
                    "duration": 0.09956174999999945
                },
                {
                    "name": "C#4",
                    "midi": 61,
                    "time": 42.34693099999994,
                    "velocity": 0.5118110236220472,
                    "duration": 0.09956174999999945
                },
                {
                    "name": "G3",
                    "midi": 55,
                    "time": 42.47967999999994,
                    "velocity": 0.48031496062992124,
                    "duration": 0.2654980000000009
                },
                {
                    "name": "C#4",
                    "midi": 61,
                    "time": 42.47967999999994,
                    "velocity": 0.5354330708661418,
                    "duration": 0.2654980000000009
                },
                {
                    "name": "F3",
                    "midi": 53,
                    "time": 42.74517799999994,
                    "velocity": 0.4566929133858268,
                    "duration": 0.09956174999999945
                },
                {
                    "name": "C#4",
                    "midi": 61,
                    "time": 42.74517799999994,
                    "velocity": 0.5118110236220472,
                    "duration": 0.09956174999999945
                },
                {
                    "name": "E3",
                    "midi": 52,
                    "time": 42.877926999999936,
                    "velocity": 0.4566929133858268,
                    "duration": 0.09568990416666878
                },
                {
                    "name": "C#4",
                    "midi": 61,
                    "time": 42.877926999999936,
                    "velocity": 0.5118110236220472,
                    "duration": 0.09568990416666878
                },
                {
                    "name": "C2",
                    "midi": 36,
                    "time": 43.01067599999994,
                    "velocity": 0.5748031496062992,
                    "duration": 0.2654980000000009
                },
                {
                    "name": "C3",
                    "midi": 48,
                    "time": 43.01067599999994,
                    "velocity": 0.6456692913385826,
                    "duration": 0.2654980000000009
                },
                {
                    "name": "C3",
                    "midi": 48,
                    "time": 43.27617399999994,
                    "velocity": 0.6220472440944882,
                    "duration": 0.09956174999999945
                },
                {
                    "name": "C3",
                    "midi": 48,
                    "time": 43.40892299999994,
                    "velocity": 0.6220472440944882,
                    "duration": 0.09568990416666878
                },
                {
                    "name": "C#4",
                    "midi": 61,
                    "time": 43.54167199999994,
                    "velocity": 0.5354330708661418,
                    "duration": 0.2654980000000009
                },
                {
                    "name": "C4",
                    "midi": 60,
                    "time": 43.80716999999994,
                    "velocity": 0.4566929133858268,
                    "duration": 0.09956174999999945
                },
                {
                    "name": "C#4",
                    "midi": 61,
                    "time": 43.80716999999994,
                    "velocity": 0.5118110236220472,
                    "duration": 0.09956174999999945
                },
                {
                    "name": "A#3",
                    "midi": 58,
                    "time": 43.93991899999994,
                    "velocity": 0.4566929133858268,
                    "duration": 0.09956174999999945
                },
                {
                    "name": "C#4",
                    "midi": 61,
                    "time": 43.93991899999994,
                    "velocity": 0.5118110236220472,
                    "duration": 0.09956174999999945
                },
                {
                    "name": "A#3",
                    "midi": 58,
                    "time": 44.072667999999936,
                    "velocity": 0.48031496062992124,
                    "duration": 0.2654980000000009
                },
                {
                    "name": "C#4",
                    "midi": 61,
                    "time": 44.072667999999936,
                    "velocity": 0.5354330708661418,
                    "duration": 0.2654980000000009
                },
                {
                    "name": "G#3",
                    "midi": 56,
                    "time": 44.33816599999994,
                    "velocity": 0.4566929133858268,
                    "duration": 0.09956174999999945
                },
                {
                    "name": "C#4",
                    "midi": 61,
                    "time": 44.33816599999994,
                    "velocity": 0.5118110236220472,
                    "duration": 0.09956174999999945
                },
                {
                    "name": "G3",
                    "midi": 55,
                    "time": 44.470914999999934,
                    "velocity": 0.4566929133858268,
                    "duration": 0.09956174999999945
                },
                {
                    "name": "C#4",
                    "midi": 61,
                    "time": 44.470914999999934,
                    "velocity": 0.5118110236220472,
                    "duration": 0.09956174999999945
                },
                {
                    "name": "G3",
                    "midi": 55,
                    "time": 44.60366399999993,
                    "velocity": 0.48031496062992124,
                    "duration": 0.2654980000000009
                },
                {
                    "name": "C#4",
                    "midi": 61,
                    "time": 44.60366399999993,
                    "velocity": 0.5354330708661418,
                    "duration": 0.2654980000000009
                },
                {
                    "name": "F3",
                    "midi": 53,
                    "time": 44.86916199999993,
                    "velocity": 0.4566929133858268,
                    "duration": 0.09956174999999945
                },
                {
                    "name": "C#4",
                    "midi": 61,
                    "time": 44.86916199999993,
                    "velocity": 0.5118110236220472,
                    "duration": 0.09956174999999945
                },
                {
                    "name": "E3",
                    "midi": 52,
                    "time": 45.00191099999993,
                    "velocity": 0.4566929133858268,
                    "duration": 0.09568990416666878
                },
                {
                    "name": "C#4",
                    "midi": 61,
                    "time": 45.00191099999993,
                    "velocity": 0.5118110236220472,
                    "duration": 0.09568990416666878
                },
                {
                    "name": "C2",
                    "midi": 36,
                    "time": 45.13465999999993,
                    "velocity": 0.5905511811023622,
                    "duration": 0.2654980000000009
                },
                {
                    "name": "C3",
                    "midi": 48,
                    "time": 45.13465999999993,
                    "velocity": 0.6614173228346457,
                    "duration": 0.2654980000000009
                },
                {
                    "name": "C3",
                    "midi": 48,
                    "time": 45.400157999999934,
                    "velocity": 0.6220472440944882,
                    "duration": 0.09956174999999945
                },
                {
                    "name": "C3",
                    "midi": 48,
                    "time": 45.53290699999993,
                    "velocity": 0.6220472440944882,
                    "duration": 0.09568990416666878
                },
                {
                    "name": "G3",
                    "midi": 55,
                    "time": 45.665655999999935,
                    "velocity": 0.31496062992125984,
                    "duration": 0.2654980000000009
                },
                {
                    "name": "C#4",
                    "midi": 61,
                    "time": 45.665655999999935,
                    "velocity": 0.3543307086614173,
                    "duration": 0.2654980000000009
                },
                {
                    "name": "F3",
                    "midi": 53,
                    "time": 45.931153999999935,
                    "velocity": 0.28346456692913385,
                    "duration": 0.09956174999999945
                },
                {
                    "name": "C#4",
                    "midi": 61,
                    "time": 45.931153999999935,
                    "velocity": 0.31496062992125984,
                    "duration": 0.09956174999999945
                },
                {
                    "name": "E3",
                    "midi": 52,
                    "time": 46.06390299999993,
                    "velocity": 0.28346456692913385,
                    "duration": 0.09956174999999945
                },
                {
                    "name": "C#4",
                    "midi": 61,
                    "time": 46.06390299999993,
                    "velocity": 0.31496062992125984,
                    "duration": 0.09956174999999945
                },
                {
                    "name": "C2",
                    "midi": 36,
                    "time": 46.19665199999993,
                    "velocity": 0.5748031496062992,
                    "duration": 0.2654980000000009
                },
                {
                    "name": "C3",
                    "midi": 48,
                    "time": 46.19665199999993,
                    "velocity": 0.6456692913385826,
                    "duration": 0.2654980000000009
                },
                {
                    "name": "C3",
                    "midi": 48,
                    "time": 46.46214999999993,
                    "velocity": 0.6220472440944882,
                    "duration": 0.09956174999999945
                },
                {
                    "name": "C3",
                    "midi": 48,
                    "time": 46.59489899999993,
                    "velocity": 0.6220472440944882,
                    "duration": 0.09956174999999945
                },
                {
                    "name": "C3",
                    "midi": 48,
                    "time": 46.727647999999924,
                    "velocity": 0.31496062992125984,
                    "duration": 0.1327489999999969
                },
                {
                    "name": "C#3",
                    "midi": 49,
                    "time": 46.99314599999992,
                    "velocity": 0.2992125984251969,
                    "duration": 0.066374500000002
                },
                {
                    "name": "C3",
                    "midi": 48,
                    "time": 47.12589499999992,
                    "velocity": 0.2992125984251969,
                    "duration": 0.066374500000002
                },
                {
                    "name": "C#3",
                    "midi": 49,
                    "time": 47.258643999999926,
                    "velocity": 0.31496062992125984,
                    "duration": 0.1327489999999969
                },
                {
                    "name": "C3",
                    "midi": 48,
                    "time": 47.52414199999992,
                    "velocity": 0.2992125984251969,
                    "duration": 0.066374500000002
                },
                {
                    "name": "D3",
                    "midi": 50,
                    "time": 47.65689099999992,
                    "velocity": 0.2992125984251969,
                    "duration": 0.066374500000002
                },
                {
                    "name": "E3",
                    "midi": 52,
                    "time": 47.78963999999993,
                    "velocity": 0.31496062992125984,
                    "duration": 0.1327489999999969
                },
                {
                    "name": "F3",
                    "midi": 53,
                    "time": 48.05513799999992,
                    "velocity": 0.2992125984251969,
                    "duration": 0.066374500000002
                },
                {
                    "name": "E3",
                    "midi": 52,
                    "time": 48.187886999999925,
                    "velocity": 0.2992125984251969,
                    "duration": 0.066374500000002
                },
                {
                    "name": "F3",
                    "midi": 53,
                    "time": 48.32063599999993,
                    "velocity": 0.30708661417322836,
                    "duration": 0.1327489999999969
                },
                {
                    "name": "E3",
                    "midi": 52,
                    "time": 48.58613399999992,
                    "velocity": 0.33070866141732286,
                    "duration": 0.066374500000002
                },
                {
                    "name": "F#3",
                    "midi": 54,
                    "time": 48.71888299999993,
                    "velocity": 0.3464566929133858,
                    "duration": 0.066374500000002
                },
                {
                    "name": "G3",
                    "midi": 55,
                    "time": 48.85163199999993,
                    "velocity": 0.3543307086614173,
                    "duration": 0.2654980000000009
                },
                {
                    "name": "G#3",
                    "midi": 56,
                    "time": 49.11712999999993,
                    "velocity": 0.3700787401574803,
                    "duration": 0.1327489999999969
                },
                {
                    "name": "G3",
                    "midi": 55,
                    "time": 49.24987899999993,
                    "velocity": 0.3858267716535433,
                    "duration": 0.1327489999999969
                },
                {
                    "name": "A#3",
                    "midi": 58,
                    "time": 49.382627999999926,
                    "velocity": 0.4015748031496063,
                    "duration": 0.2654980000000009
                },
                {
                    "name": "G#3",
                    "midi": 56,
                    "time": 49.64812599999993,
                    "velocity": 0.4251968503937008,
                    "duration": 0.1327489999999969
                },
                {
                    "name": "C#4",
                    "midi": 61,
                    "time": 49.780874999999924,
                    "velocity": 0.4330708661417323,
                    "duration": 0.1327489999999969
                },
                {
                    "name": "C4",
                    "midi": 60,
                    "time": 49.91362399999992,
                    "velocity": 0.4409448818897638,
                    "duration": 0.2654980000000009
                },
                {
                    "name": "D4",
                    "midi": 62,
                    "time": 50.17912199999992,
                    "velocity": 0.47244094488188976,
                    "duration": 0.1327489999999969
                },
                {
                    "name": "D#4",
                    "midi": 63,
                    "time": 50.31187099999992,
                    "velocity": 0.48031496062992124,
                    "duration": 0.1327489999999969
                },
                {
                    "name": "E4",
                    "midi": 64,
                    "time": 50.444619999999915,
                    "velocity": 0.4881889763779528,
                    "duration": 0.2654980000000009
                },
                {
                    "name": "F4",
                    "midi": 65,
                    "time": 50.710117999999916,
                    "velocity": 0.5118110236220472,
                    "duration": 0.1327489999999969
                },
                {
                    "name": "G4",
                    "midi": 67,
                    "time": 50.84286699999991,
                    "velocity": 0.5275590551181102,
                    "duration": 0.1327489999999969
                },
                {
                    "name": "F2",
                    "midi": 41,
                    "time": 50.97561599999991,
                    "velocity": 0.5354330708661418,
                    "duration": 0.2654980000000009
                },
                {
                    "name": "F3",
                    "midi": 53,
                    "time": 50.97561599999991,
                    "velocity": 0.5354330708661418,
                    "duration": 0.2654980000000009
                },
                {
                    "name": "F3",
                    "midi": 53,
                    "time": 51.24111399999991,
                    "velocity": 0.5196850393700787,
                    "duration": 0.0663744999999949
                },
                {
                    "name": "F3",
                    "midi": 53,
                    "time": 51.37386299999991,
                    "velocity": 0.5196850393700787,
                    "duration": 0.066374500000002
                },
                {
                    "name": "F2",
                    "midi": 41,
                    "time": 51.50661199999991,
                    "velocity": 0.48031496062992124,
                    "duration": 0.2654980000000009
                },
                {
                    "name": "F3",
                    "midi": 53,
                    "time": 51.50661199999991,
                    "velocity": 0.5354330708661418,
                    "duration": 0.2654980000000009
                },
                {
                    "name": "F3",
                    "midi": 53,
                    "time": 51.77210999999991,
                    "velocity": 0.5196850393700787,
                    "duration": 0.066374500000002
                },
                {
                    "name": "F3",
                    "midi": 53,
                    "time": 51.90485899999992,
                    "velocity": 0.5118110236220472,
                    "duration": 0.066374500000002
                },
                {
                    "name": "F2",
                    "midi": 41,
                    "time": 52.03760799999992,
                    "velocity": 0.48031496062992124,
                    "duration": 0.2654979999999938
                },
                {
                    "name": "F3",
                    "midi": 53,
                    "time": 52.03760799999992,
                    "velocity": 0.5354330708661418,
                    "duration": 0.2654979999999938
                },
                {
                    "name": "F3",
                    "midi": 53,
                    "time": 52.303105999999914,
                    "velocity": 0.5196850393700787,
                    "duration": 0.066374500000002
                },
                {
                    "name": "F3",
                    "midi": 53,
                    "time": 52.43585499999992,
                    "velocity": 0.5196850393700787,
                    "duration": 0.066374500000002
                },
                {
                    "name": "F2",
                    "midi": 41,
                    "time": 52.56860399999992,
                    "velocity": 0.48031496062992124,
                    "duration": 0.25996679166666326
                },
                {
                    "name": "F3",
                    "midi": 53,
                    "time": 52.56860399999992,
                    "velocity": 0.5354330708661418,
                    "duration": 0.25996679166666326
                },
                {
                    "name": "F3",
                    "midi": 53,
                    "time": 52.834101999999916,
                    "velocity": 0.36220472440944884,
                    "duration": 0.0663744999999949
                },
                {
                    "name": "F3",
                    "midi": 53,
                    "time": 52.96685099999991,
                    "velocity": 0.36220472440944884,
                    "duration": 0.066374500000002
                },
                {
                    "name": "F1",
                    "midi": 29,
                    "time": 53.09959999999992,
                    "velocity": 0.28346456692913385,
                    "duration": 0.2654980000000009
                },
                {
                    "name": "F2",
                    "midi": 41,
                    "time": 53.09959999999992,
                    "velocity": 0.31496062992125984,
                    "duration": 0.2654980000000009
                },
                {
                    "name": "F2",
                    "midi": 41,
                    "time": 53.36509799999992,
                    "velocity": 0.2992125984251969,
                    "duration": 0.066374500000002
                },
                {
                    "name": "F2",
                    "midi": 41,
                    "time": 53.49784699999992,
                    "velocity": 0.2992125984251969,
                    "duration": 0.066374500000002
                },
                {
                    "name": "F1",
                    "midi": 29,
                    "time": 53.630595999999926,
                    "velocity": 0.28346456692913385,
                    "duration": 0.2654980000000009
                },
                {
                    "name": "F2",
                    "midi": 41,
                    "time": 53.630595999999926,
                    "velocity": 0.31496062992125984,
                    "duration": 0.2654980000000009
                },
                {
                    "name": "F2",
                    "midi": 41,
                    "time": 53.89609399999993,
                    "velocity": 0.2992125984251969,
                    "duration": 0.0663744999999949
                },
                {
                    "name": "F2",
                    "midi": 41,
                    "time": 54.028842999999924,
                    "velocity": 0.2992125984251969,
                    "duration": 0.066374500000002
                },
                {
                    "name": "F1",
                    "midi": 29,
                    "time": 54.16159199999993,
                    "velocity": 0.28346456692913385,
                    "duration": 0.2654980000000009
                },
                {
                    "name": "F2",
                    "midi": 41,
                    "time": 54.16159199999993,
                    "velocity": 0.31496062992125984,
                    "duration": 0.2654980000000009
                },
                {
                    "name": "F2",
                    "midi": 41,
                    "time": 54.42708999999993,
                    "velocity": 0.2992125984251969,
                    "duration": 0.066374500000002
                },
                {
                    "name": "F2",
                    "midi": 41,
                    "time": 54.55983899999993,
                    "velocity": 0.2992125984251969,
                    "duration": 0.066374500000002
                },
                {
                    "name": "F1",
                    "midi": 29,
                    "time": 54.69258799999994,
                    "velocity": 0.28346456692913385,
                    "duration": 0.2654980000000009
                },
                {
                    "name": "F2",
                    "midi": 41,
                    "time": 54.69258799999994,
                    "velocity": 0.31496062992125984,
                    "duration": 0.2654980000000009
                },
                {
                    "name": "F2",
                    "midi": 41,
                    "time": 54.95808599999994,
                    "velocity": 0.2992125984251969,
                    "duration": 0.0663744999999949
                },
                {
                    "name": "F2",
                    "midi": 41,
                    "time": 55.090834999999934,
                    "velocity": 0.2992125984251969,
                    "duration": 0.066374500000002
                },
                {
                    "name": "A#3",
                    "midi": 58,
                    "time": 55.22358399999994,
                    "velocity": 0.3700787401574803,
                    "duration": 0.2654980000000009
                },
                {
                    "name": "G3",
                    "midi": 55,
                    "time": 55.48908199999994,
                    "velocity": 0.3464566929133858,
                    "duration": 0.066374500000002
                },
                {
                    "name": "G3",
                    "midi": 55,
                    "time": 55.62183099999994,
                    "velocity": 0.3464566929133858,
                    "duration": 0.066374500000002
                },
                {
                    "name": "G#3",
                    "midi": 56,
                    "time": 55.75457999999995,
                    "velocity": 0.41732283464566927,
                    "duration": 0.2654979999999938
                },
                {
                    "name": "F3",
                    "midi": 53,
                    "time": 56.02007799999994,
                    "velocity": 0.4015748031496063,
                    "duration": 0.0663744999999949
                },
                {
                    "name": "F3",
                    "midi": 53,
                    "time": 56.15282699999994,
                    "velocity": 0.4015748031496063,
                    "duration": 0.066374500000002
                },
                {
                    "name": "E3",
                    "midi": 52,
                    "time": 56.28557599999994,
                    "velocity": 0.44881889763779526,
                    "duration": 0.2654980000000009
                },
                {
                    "name": "C3",
                    "midi": 48,
                    "time": 56.55107399999994,
                    "velocity": 0.3937007874015748,
                    "duration": 0.066374500000002
                },
                {
                    "name": "C3",
                    "midi": 48,
                    "time": 56.68382299999995,
                    "velocity": 0.4015748031496063,
                    "duration": 0.066374500000002
                },
                {
                    "name": "F3",
                    "midi": 53,
                    "time": 56.81657199999995,
                    "velocity": 0.49606299212598426,
                    "duration": 0.2654980000000009
                },
                {
                    "name": "C3",
                    "midi": 48,
                    "time": 57.08206999999995,
                    "velocity": 0.4409448818897638,
                    "duration": 0.0663744999999949
                },
                {
                    "name": "C3",
                    "midi": 48,
                    "time": 57.21481899999995,
                    "velocity": 0.4409448818897638,
                    "duration": 0.066374500000002
                },
                {
                    "name": "G3",
                    "midi": 55,
                    "time": 57.34756799999995,
                    "velocity": 0.5669291338582677,
                    "duration": 0.2654980000000009
                },
                {
                    "name": "C3",
                    "midi": 48,
                    "time": 57.613065999999954,
                    "velocity": 0.5118110236220472,
                    "duration": 0.066374500000002
                },
                {
                    "name": "C3",
                    "midi": 48,
                    "time": 57.74581499999996,
                    "velocity": 0.5118110236220472,
                    "duration": 0.066374500000002
                },
                {
                    "name": "G#3",
                    "midi": 56,
                    "time": 57.87856399999996,
                    "velocity": 0.5984251968503937,
                    "duration": 0.2654980000000009
                },
                {
                    "name": "C3",
                    "midi": 48,
                    "time": 58.14406199999996,
                    "velocity": 0.5669291338582677,
                    "duration": 0.066374500000002
                },
                {
                    "name": "C3",
                    "midi": 48,
                    "time": 58.27681099999997,
                    "velocity": 0.5669291338582677,
                    "duration": 0.066374500000002
                },
                {
                    "name": "G#3",
                    "midi": 56,
                    "time": 58.40955999999997,
                    "velocity": 0.6456692913385826,
                    "duration": 0.25996679166666326
                },
                {
                    "name": "F#2",
                    "midi": 42,
                    "time": 58.675057999999964,
                    "velocity": 0.5748031496062992,
                    "duration": 0.1327489999999969
                },
                {
                    "name": "F#3",
                    "midi": 54,
                    "time": 58.675057999999964,
                    "velocity": 0.6456692913385826,
                    "duration": 0.1327489999999969
                },
                {
                    "name": "F#2",
                    "midi": 42,
                    "time": 58.94055599999996,
                    "velocity": 0.5748031496062992,
                    "duration": 0.1327489999999969
                },
                {
                    "name": "F#3",
                    "midi": 54,
                    "time": 58.94055599999996,
                    "velocity": 0.6456692913385826,
                    "duration": 0.1327489999999969
                },
                {
                    "name": "F#2",
                    "midi": 42,
                    "time": 59.20605399999995,
                    "velocity": 0.5748031496062992,
                    "duration": 0.1327489999999969
                },
                {
                    "name": "F#3",
                    "midi": 54,
                    "time": 59.20605399999995,
                    "velocity": 0.6456692913385826,
                    "duration": 0.1327489999999969
                },
                {
                    "name": "F#2",
                    "midi": 42,
                    "time": 59.471551999999946,
                    "velocity": 0.5748031496062992,
                    "duration": 0.1327489999999969
                },
                {
                    "name": "F#3",
                    "midi": 54,
                    "time": 59.471551999999946,
                    "velocity": 0.6456692913385826,
                    "duration": 0.1327489999999969
                },
                {
                    "name": "A#2",
                    "midi": 46,
                    "time": 59.73704999999994,
                    "velocity": 0.5748031496062992,
                    "duration": 0.1327489999999969
                },
                {
                    "name": "A#3",
                    "midi": 58,
                    "time": 59.73704999999994,
                    "velocity": 0.6456692913385826,
                    "duration": 0.1327489999999969
                },
                {
                    "name": "C#4",
                    "midi": 61,
                    "time": 60.00254799999993,
                    "velocity": 0.5905511811023622,
                    "duration": 0.2654980000000009
                },
                {
                    "name": "A#3",
                    "midi": 58,
                    "time": 60.00254799999993,
                    "velocity": 0.5275590551181102,
                    "duration": 0.2654980000000009
                },
                {
                    "name": "C#3",
                    "midi": 49,
                    "time": 60.00254799999993,
                    "velocity": 0.5275590551181102,
                    "duration": 0.2654980000000009
                },
                {
                    "name": "C#3",
                    "midi": 49,
                    "time": 60.268045999999934,
                    "velocity": 0.5669291338582677,
                    "duration": 0.0663744999999949
                },
                {
                    "name": "A#3",
                    "midi": 58,
                    "time": 60.268045999999934,
                    "velocity": 0.5669291338582677,
                    "duration": 0.0663744999999949
                },
                {
                    "name": "C#4",
                    "midi": 61,
                    "time": 60.268045999999934,
                    "velocity": 0.6299212598425197,
                    "duration": 0.0663744999999949
                },
                {
                    "name": "C#3",
                    "midi": 49,
                    "time": 60.40079499999993,
                    "velocity": 0.5748031496062992,
                    "duration": 0.066374500000002
                },
                {
                    "name": "A#3",
                    "midi": 58,
                    "time": 60.40079499999993,
                    "velocity": 0.5748031496062992,
                    "duration": 0.066374500000002
                },
                {
                    "name": "C#4",
                    "midi": 61,
                    "time": 60.40079499999993,
                    "velocity": 0.6456692913385826,
                    "duration": 0.066374500000002
                },
                {
                    "name": "C#3",
                    "midi": 49,
                    "time": 60.533543999999935,
                    "velocity": 0.5905511811023622,
                    "duration": 0.2654980000000009
                },
                {
                    "name": "C#4",
                    "midi": 61,
                    "time": 60.533543999999935,
                    "velocity": 0.6614173228346457,
                    "duration": 0.2654980000000009
                },
                {
                    "name": "B3",
                    "midi": 59,
                    "time": 60.533543999999935,
                    "velocity": 0.5905511811023622,
                    "duration": 0.2654980000000009
                },
                {
                    "name": "B3",
                    "midi": 59,
                    "time": 60.799041999999936,
                    "velocity": 0.5669291338582677,
                    "duration": 0.066374500000002
                },
                {
                    "name": "C#4",
                    "midi": 61,
                    "time": 60.799041999999936,
                    "velocity": 0.6299212598425197,
                    "duration": 0.066374500000002
                },
                {
                    "name": "C#3",
                    "midi": 49,
                    "time": 60.799041999999936,
                    "velocity": 0.5669291338582677,
                    "duration": 0.066374500000002
                },
                {
                    "name": "B3",
                    "midi": 59,
                    "time": 60.93179099999994,
                    "velocity": 0.5511811023622047,
                    "duration": 0.066374500000002
                },
                {
                    "name": "C#4",
                    "midi": 61,
                    "time": 60.93179099999994,
                    "velocity": 0.6141732283464567,
                    "duration": 0.066374500000002
                },
                {
                    "name": "C#3",
                    "midi": 49,
                    "time": 60.93179099999994,
                    "velocity": 0.5511811023622047,
                    "duration": 0.066374500000002
                },
                {
                    "name": "F#3",
                    "midi": 54,
                    "time": 61.064539999999944,
                    "velocity": 0.5275590551181102,
                    "duration": 0.1327489999999969
                },
                {
                    "name": "A#3",
                    "midi": 58,
                    "time": 61.064539999999944,
                    "velocity": 0.5275590551181102,
                    "duration": 0.1327489999999969
                },
                {
                    "name": "C#4",
                    "midi": 61,
                    "time": 61.064539999999944,
                    "velocity": 0.5905511811023622,
                    "duration": 0.1327489999999969
                },
                {
                    "name": "C#2",
                    "midi": 37,
                    "time": 61.33003799999994,
                    "velocity": 0.5433070866141733,
                    "duration": 0.1327489999999969
                },
                {
                    "name": "C#3",
                    "midi": 49,
                    "time": 61.33003799999994,
                    "velocity": 0.6062992125984252,
                    "duration": 0.1327489999999969
                },
                {
                    "name": "C2",
                    "midi": 36,
                    "time": 61.59553599999993,
                    "velocity": 0.5433070866141733,
                    "duration": 0.1327489999999969
                },
                {
                    "name": "C3",
                    "midi": 48,
                    "time": 61.59553599999993,
                    "velocity": 0.6062992125984252,
                    "duration": 0.1327489999999969
                },
                {
                    "name": "C2",
                    "midi": 36,
                    "time": 61.861033999999925,
                    "velocity": 0.5433070866141733,
                    "duration": 0.1327489999999969
                },
                {
                    "name": "C3",
                    "midi": 48,
                    "time": 61.861033999999925,
                    "velocity": 0.6062992125984252,
                    "duration": 0.1327489999999969
                },
                {
                    "name": "F2",
                    "midi": 41,
                    "time": 62.12653199999992,
                    "velocity": 0.5511811023622047,
                    "duration": 0.2654980000000009
                },
                {
                    "name": "F3",
                    "midi": 53,
                    "time": 62.12653199999992,
                    "velocity": 0.6141732283464567,
                    "duration": 0.2654980000000009
                },
                {
                    "name": "F3",
                    "midi": 53,
                    "time": 62.39202999999992,
                    "velocity": 0.31496062992125984,
                    "duration": 0.1327489999999969
                },
                {
                    "name": "G3",
                    "midi": 55,
                    "time": 62.52477899999992,
                    "velocity": 0.31496062992125984,
                    "duration": 0.1327489999999969
                },
                {
                    "name": "A3",
                    "midi": 57,
                    "time": 62.657527999999914,
                    "velocity": 0.31496062992125984,
                    "duration": 0.2654980000000009
                },
                {
                    "name": "A#3",
                    "midi": 58,
                    "time": 62.923025999999915,
                    "velocity": 0.31496062992125984,
                    "duration": 0.066374500000002
                },
                {
                    "name": "C4",
                    "midi": 60,
                    "time": 63.05577499999992,
                    "velocity": 0.31496062992125984,
                    "duration": 0.066374500000002
                },
                {
                    "name": "C3",
                    "midi": 48,
                    "time": 63.18852399999992,
                    "velocity": 0.28346456692913385,
                    "duration": 0.2654980000000009
                },
                {
                    "name": "A3",
                    "midi": 57,
                    "time": 63.18852399999992,
                    "velocity": 0.28346456692913385,
                    "duration": 0.2654980000000009
                },
                {
                    "name": "C4",
                    "midi": 60,
                    "time": 63.18852399999992,
                    "velocity": 0.31496062992125984,
                    "duration": 0.2654980000000009
                },
                {
                    "name": "C3",
                    "midi": 48,
                    "time": 63.454021999999924,
                    "velocity": 0.2755905511811024,
                    "duration": 0.0663744999999949
                },
                {
                    "name": "G3",
                    "midi": 55,
                    "time": 63.454021999999924,
                    "velocity": 0.2755905511811024,
                    "duration": 0.0663744999999949
                },
                {
                    "name": "C4",
                    "midi": 60,
                    "time": 63.454021999999924,
                    "velocity": 0.30708661417322836,
                    "duration": 0.0663744999999949
                },
                {
                    "name": "C3",
                    "midi": 48,
                    "time": 63.58677099999992,
                    "velocity": 0.2755905511811024,
                    "duration": 0.066374500000002
                },
                {
                    "name": "G3",
                    "midi": 55,
                    "time": 63.58677099999992,
                    "velocity": 0.2755905511811024,
                    "duration": 0.066374500000002
                },
                {
                    "name": "C4",
                    "midi": 60,
                    "time": 63.58677099999992,
                    "velocity": 0.30708661417322836,
                    "duration": 0.066374500000002
                },
                {
                    "name": "C3",
                    "midi": 48,
                    "time": 63.719519999999925,
                    "velocity": 0.28346456692913385,
                    "duration": 0.2654980000000009
                },
                {
                    "name": "G3",
                    "midi": 55,
                    "time": 63.719519999999925,
                    "velocity": 0.28346456692913385,
                    "duration": 0.2654980000000009
                },
                {
                    "name": "C4",
                    "midi": 60,
                    "time": 63.719519999999925,
                    "velocity": 0.31496062992125984,
                    "duration": 0.2654980000000009
                },
                {
                    "name": "C3",
                    "midi": 48,
                    "time": 63.985017999999926,
                    "velocity": 0.2677165354330709,
                    "duration": 0.0663745000000091
                },
                {
                    "name": "F3",
                    "midi": 53,
                    "time": 63.985017999999926,
                    "velocity": 0.2677165354330709,
                    "duration": 0.0663745000000091
                },
                {
                    "name": "C4",
                    "midi": 60,
                    "time": 63.985017999999926,
                    "velocity": 0.2992125984251969,
                    "duration": 0.0663745000000091
                },
                {
                    "name": "C3",
                    "midi": 48,
                    "time": 64.11776699999993,
                    "velocity": 0.2677165354330709,
                    "duration": 0.0663744999999949
                },
                {
                    "name": "F3",
                    "midi": 53,
                    "time": 64.11776699999993,
                    "velocity": 0.2677165354330709,
                    "duration": 0.0663744999999949
                },
                {
                    "name": "C4",
                    "midi": 60,
                    "time": 64.11776699999993,
                    "velocity": 0.2992125984251969,
                    "duration": 0.0663744999999949
                },
                {
                    "name": "C3",
                    "midi": 48,
                    "time": 64.25051599999992,
                    "velocity": 0.28346456692913385,
                    "duration": 0.2654979999999938
                },
                {
                    "name": "D3",
                    "midi": 50,
                    "time": 64.25051599999992,
                    "velocity": 0.28346456692913385,
                    "duration": 0.2654979999999938
                },
                {
                    "name": "C4",
                    "midi": 60,
                    "time": 64.25051599999992,
                    "velocity": 0.31496062992125984,
                    "duration": 0.2654979999999938
                },
                {
                    "name": "E3",
                    "midi": 52,
                    "time": 64.51601399999991,
                    "velocity": 0.2677165354330709,
                    "duration": 0.0663744999999949
                },
                {
                    "name": "C3",
                    "midi": 48,
                    "time": 64.51601399999991,
                    "velocity": 0.2677165354330709,
                    "duration": 0.0663744999999949
                },
                {
                    "name": "C4",
                    "midi": 60,
                    "time": 64.51601399999991,
                    "velocity": 0.2992125984251969,
                    "duration": 0.0663744999999949
                },
                {
                    "name": "E3",
                    "midi": 52,
                    "time": 64.6487629999999,
                    "velocity": 0.2677165354330709,
                    "duration": 0.0663744999999949
                },
                {
                    "name": "C3",
                    "midi": 48,
                    "time": 64.6487629999999,
                    "velocity": 0.2677165354330709,
                    "duration": 0.0663744999999949
                },
                {
                    "name": "C4",
                    "midi": 60,
                    "time": 64.6487629999999,
                    "velocity": 0.2992125984251969,
                    "duration": 0.0663744999999949
                },
                {
                    "name": "F2",
                    "midi": 41,
                    "time": 64.78151199999989,
                    "velocity": 0.5354330708661418,
                    "duration": 0.06582137916666397
                },
                {
                    "name": "F3",
                    "midi": 53,
                    "time": 64.78151199999989,
                    "velocity": 0.5984251968503937,
                    "duration": 0.06582137916666397
                },
                {
                    "name": "F3",
                    "midi": 53,
                    "time": 65.04700999999989,
                    "velocity": 0.5354330708661418,
                    "duration": 0.06582137916666397
                },
                {
                    "name": "C4",
                    "midi": 60,
                    "time": 65.04700999999989,
                    "velocity": 0.5984251968503937,
                    "duration": 0.06582137916666397
                },
                {
                    "name": "C3",
                    "midi": 48,
                    "time": 65.31250799999988,
                    "velocity": 0.28346456692913385,
                    "duration": 0.265498000000008
                },
                {
                    "name": "A3",
                    "midi": 57,
                    "time": 65.31250799999988,
                    "velocity": 0.28346456692913385,
                    "duration": 0.265498000000008
                },
                {
                    "name": "C4",
                    "midi": 60,
                    "time": 65.31250799999988,
                    "velocity": 0.31496062992125984,
                    "duration": 0.265498000000008
                },
                {
                    "name": "C3",
                    "midi": 48,
                    "time": 65.57800599999989,
                    "velocity": 0.2755905511811024,
                    "duration": 0.0663744999999949
                },
                {
                    "name": "A3",
                    "midi": 57,
                    "time": 65.57800599999989,
                    "velocity": 0.2755905511811024,
                    "duration": 0.0663744999999949
                },
                {
                    "name": "C4",
                    "midi": 60,
                    "time": 65.57800599999989,
                    "velocity": 0.30708661417322836,
                    "duration": 0.0663744999999949
                },
                {
                    "name": "C3",
                    "midi": 48,
                    "time": 65.71075499999988,
                    "velocity": 0.2755905511811024,
                    "duration": 0.0663744999999949
                },
                {
                    "name": "A3",
                    "midi": 57,
                    "time": 65.71075499999988,
                    "velocity": 0.2755905511811024,
                    "duration": 0.0663744999999949
                },
                {
                    "name": "C4",
                    "midi": 60,
                    "time": 65.71075499999988,
                    "velocity": 0.30708661417322836,
                    "duration": 0.0663744999999949
                },
                {
                    "name": "C3",
                    "midi": 48,
                    "time": 65.84350399999987,
                    "velocity": 0.28346456692913385,
                    "duration": 0.2654979999999938
                },
                {
                    "name": "G3",
                    "midi": 55,
                    "time": 65.84350399999987,
                    "velocity": 0.28346456692913385,
                    "duration": 0.2654979999999938
                },
                {
                    "name": "C4",
                    "midi": 60,
                    "time": 65.84350399999987,
                    "velocity": 0.31496062992125984,
                    "duration": 0.2654979999999938
                },
                {
                    "name": "C3",
                    "midi": 48,
                    "time": 66.10900199999986,
                    "velocity": 0.2677165354330709,
                    "duration": 0.0663744999999949
                },
                {
                    "name": "F3",
                    "midi": 53,
                    "time": 66.10900199999986,
                    "velocity": 0.2677165354330709,
                    "duration": 0.0663744999999949
                },
                {
                    "name": "C4",
                    "midi": 60,
                    "time": 66.10900199999986,
                    "velocity": 0.2992125984251969,
                    "duration": 0.0663744999999949
                },
                {
                    "name": "C3",
                    "midi": 48,
                    "time": 66.24175099999985,
                    "velocity": 0.2677165354330709,
                    "duration": 0.0663744999999949
                },
                {
                    "name": "F3",
                    "midi": 53,
                    "time": 66.24175099999985,
                    "velocity": 0.2677165354330709,
                    "duration": 0.0663744999999949
                },
                {
                    "name": "C4",
                    "midi": 60,
                    "time": 66.24175099999985,
                    "velocity": 0.2992125984251969,
                    "duration": 0.0663744999999949
                },
                {
                    "name": "C3",
                    "midi": 48,
                    "time": 66.37449999999984,
                    "velocity": 0.28346456692913385,
                    "duration": 0.2654979999999938
                },
                {
                    "name": "D3",
                    "midi": 50,
                    "time": 66.37449999999984,
                    "velocity": 0.28346456692913385,
                    "duration": 0.2654979999999938
                },
                {
                    "name": "C4",
                    "midi": 60,
                    "time": 66.37449999999984,
                    "velocity": 0.31496062992125984,
                    "duration": 0.2654979999999938
                },
                {
                    "name": "E3",
                    "midi": 52,
                    "time": 66.63999799999984,
                    "velocity": 0.2677165354330709,
                    "duration": 0.0663744999999949
                },
                {
                    "name": "C3",
                    "midi": 48,
                    "time": 66.63999799999984,
                    "velocity": 0.2677165354330709,
                    "duration": 0.0663744999999949
                },
                {
                    "name": "C4",
                    "midi": 60,
                    "time": 66.63999799999984,
                    "velocity": 0.2992125984251969,
                    "duration": 0.0663744999999949
                },
                {
                    "name": "E3",
                    "midi": 52,
                    "time": 66.77274699999982,
                    "velocity": 0.2677165354330709,
                    "duration": 0.0663744999999949
                },
                {
                    "name": "C3",
                    "midi": 48,
                    "time": 66.77274699999982,
                    "velocity": 0.2677165354330709,
                    "duration": 0.0663744999999949
                },
                {
                    "name": "C4",
                    "midi": 60,
                    "time": 66.77274699999982,
                    "velocity": 0.2992125984251969,
                    "duration": 0.0663744999999949
                },
                {
                    "name": "F2",
                    "midi": 41,
                    "time": 66.90549599999981,
                    "velocity": 0.5590551181102362,
                    "duration": 0.06582137916666397
                },
                {
                    "name": "F3",
                    "midi": 53,
                    "time": 66.90549599999981,
                    "velocity": 0.6220472440944882,
                    "duration": 0.06582137916666397
                },
                {
                    "name": "F3",
                    "midi": 53,
                    "time": 67.17099399999981,
                    "velocity": 0.5590551181102362,
                    "duration": 0.06582137916666397
                },
                {
                    "name": "C4",
                    "midi": 60,
                    "time": 67.17099399999981,
                    "velocity": 0.6220472440944882,
                    "duration": 0.06582137916666397
                },
                {
                    "name": "C3",
                    "midi": 48,
                    "time": 67.4364919999998,
                    "velocity": 0.28346456692913385,
                    "duration": 0.2654979999999938
                },
                {
                    "name": "D3",
                    "midi": 50,
                    "time": 67.4364919999998,
                    "velocity": 0.28346456692913385,
                    "duration": 0.2654979999999938
                },
                {
                    "name": "C4",
                    "midi": 60,
                    "time": 67.4364919999998,
                    "velocity": 0.31496062992125984,
                    "duration": 0.2654979999999938
                },
                {
                    "name": "E3",
                    "midi": 52,
                    "time": 67.7019899999998,
                    "velocity": 0.2677165354330709,
                    "duration": 0.0663744999999949
                },
                {
                    "name": "C3",
                    "midi": 48,
                    "time": 67.7019899999998,
                    "velocity": 0.2677165354330709,
                    "duration": 0.0663744999999949
                },
                {
                    "name": "C4",
                    "midi": 60,
                    "time": 67.7019899999998,
                    "velocity": 0.2992125984251969,
                    "duration": 0.0663744999999949
                },
                {
                    "name": "E3",
                    "midi": 52,
                    "time": 67.83473899999979,
                    "velocity": 0.2677165354330709,
                    "duration": 0.0663744999999949
                },
                {
                    "name": "C3",
                    "midi": 48,
                    "time": 67.83473899999979,
                    "velocity": 0.2677165354330709,
                    "duration": 0.0663744999999949
                },
                {
                    "name": "C4",
                    "midi": 60,
                    "time": 67.83473899999979,
                    "velocity": 0.2992125984251969,
                    "duration": 0.0663744999999949
                },
                {
                    "name": "F2",
                    "midi": 41,
                    "time": 67.96748799999978,
                    "velocity": 0.5748031496062992,
                    "duration": 0.06582137916666397
                },
                {
                    "name": "F3",
                    "midi": 53,
                    "time": 67.96748799999978,
                    "velocity": 0.6456692913385826,
                    "duration": 0.06582137916666397
                },
                {
                    "name": "F3",
                    "midi": 53,
                    "time": 68.23298599999977,
                    "velocity": 0.5748031496062992,
                    "duration": 0.06582137916666397
                },
                {
                    "name": "C4",
                    "midi": 60,
                    "time": 68.23298599999977,
                    "velocity": 0.6456692913385826,
                    "duration": 0.06582137916666397
                },
                {
                    "name": "C3",
                    "midi": 48,
                    "time": 68.49848399999976,
                    "velocity": 0.28346456692913385,
                    "duration": 0.2654979999999938
                },
                {
                    "name": "D3",
                    "midi": 50,
                    "time": 68.49848399999976,
                    "velocity": 0.28346456692913385,
                    "duration": 0.2654979999999938
                },
                {
                    "name": "C4",
                    "midi": 60,
                    "time": 68.49848399999976,
                    "velocity": 0.31496062992125984,
                    "duration": 0.2654979999999938
                },
                {
                    "name": "E3",
                    "midi": 52,
                    "time": 68.76398199999976,
                    "velocity": 0.2677165354330709,
                    "duration": 0.0663744999999949
                },
                {
                    "name": "C3",
                    "midi": 48,
                    "time": 68.76398199999976,
                    "velocity": 0.2677165354330709,
                    "duration": 0.0663744999999949
                },
                {
                    "name": "C4",
                    "midi": 60,
                    "time": 68.76398199999976,
                    "velocity": 0.2992125984251969,
                    "duration": 0.0663744999999949
                },
                {
                    "name": "E3",
                    "midi": 52,
                    "time": 68.89673099999975,
                    "velocity": 0.2677165354330709,
                    "duration": 0.0663744999999949
                },
                {
                    "name": "C3",
                    "midi": 48,
                    "time": 68.89673099999975,
                    "velocity": 0.2677165354330709,
                    "duration": 0.0663744999999949
                },
                {
                    "name": "C4",
                    "midi": 60,
                    "time": 68.89673099999975,
                    "velocity": 0.2992125984251969,
                    "duration": 0.0663744999999949
                },
                {
                    "name": "F2",
                    "midi": 41,
                    "time": 69.02947999999974,
                    "velocity": 0.5905511811023622,
                    "duration": 0.23894819999999584
                },
                {
                    "name": "F3",
                    "midi": 53,
                    "time": 69.02947999999974,
                    "velocity": 0.6614173228346457,
                    "duration": 0.23894819999999584
                },
                {
                    "name": "F3",
                    "midi": 53,
                    "time": 69.29497799999973,
                    "velocity": 0.5905511811023622,
                    "duration": 0.2654979999999938
                },
                {
                    "name": "A#3",
                    "midi": 58,
                    "time": 70.09147199999973,
                    "velocity": 0.28346456692913385,
                    "duration": 0.2654979999999938
                },
                {
                    "name": "C4",
                    "midi": 60,
                    "time": 70.09147199999973,
                    "velocity": 0.31496062992125984,
                    "duration": 0.2654979999999938
                },
                {
                    "name": "G3",
                    "midi": 55,
                    "time": 70.35696999999972,
                    "velocity": 0.2755905511811024,
                    "duration": 0.0663744999999949
                },
                {
                    "name": "C4",
                    "midi": 60,
                    "time": 70.35696999999972,
                    "velocity": 0.30708661417322836,
                    "duration": 0.0663744999999949
                },
                {
                    "name": "G3",
                    "midi": 55,
                    "time": 70.48971899999971,
                    "velocity": 0.2755905511811024,
                    "duration": 0.0663744999999949
                },
                {
                    "name": "C4",
                    "midi": 60,
                    "time": 70.48971899999971,
                    "velocity": 0.30708661417322836,
                    "duration": 0.0663744999999949
                },
                {
                    "name": "G#3",
                    "midi": 56,
                    "time": 70.6224679999997,
                    "velocity": 0.28346456692913385,
                    "duration": 0.2654979999999938
                },
                {
                    "name": "C4",
                    "midi": 60,
                    "time": 70.6224679999997,
                    "velocity": 0.31496062992125984,
                    "duration": 0.2654979999999938
                },
                {
                    "name": "F3",
                    "midi": 53,
                    "time": 70.8879659999997,
                    "velocity": 0.2677165354330709,
                    "duration": 0.0663744999999949
                },
                {
                    "name": "C4",
                    "midi": 60,
                    "time": 70.8879659999997,
                    "velocity": 0.2992125984251969,
                    "duration": 0.0663744999999949
                },
                {
                    "name": "F3",
                    "midi": 53,
                    "time": 71.02071499999968,
                    "velocity": 0.2677165354330709,
                    "duration": 0.0663744999999949
                },
                {
                    "name": "C4",
                    "midi": 60,
                    "time": 71.02071499999968,
                    "velocity": 0.2992125984251969,
                    "duration": 0.0663744999999949
                },
                {
                    "name": "F#3",
                    "midi": 54,
                    "time": 71.15346399999967,
                    "velocity": 0.28346456692913385,
                    "duration": 0.265498000000008
                },
                {
                    "name": "G#3",
                    "midi": 56,
                    "time": 71.15346399999967,
                    "velocity": 0.31496062992125984,
                    "duration": 0.265498000000008
                },
                {
                    "name": "C3",
                    "midi": 48,
                    "time": 71.41896199999968,
                    "velocity": 0.2677165354330709,
                    "duration": 0.0663744999999949
                },
                {
                    "name": "G#3",
                    "midi": 56,
                    "time": 71.41896199999968,
                    "velocity": 0.2992125984251969,
                    "duration": 0.0663744999999949
                },
                {
                    "name": "C3",
                    "midi": 48,
                    "time": 71.55171099999967,
                    "velocity": 0.2677165354330709,
                    "duration": 0.0663744999999949
                },
                {
                    "name": "G#3",
                    "midi": 56,
                    "time": 71.55171099999967,
                    "velocity": 0.2992125984251969,
                    "duration": 0.0663744999999949
                },
                {
                    "name": "C#2",
                    "midi": 37,
                    "time": 71.68445999999966,
                    "velocity": 0.5354330708661418,
                    "duration": 0.06582137916666397
                },
                {
                    "name": "C#3",
                    "midi": 49,
                    "time": 71.68445999999966,
                    "velocity": 0.5984251968503937,
                    "duration": 0.06582137916666397
                },
                {
                    "name": "C#3",
                    "midi": 49,
                    "time": 71.94553303333299,
                    "velocity": 0.5354330708661418,
                    "duration": 0.06582137916666397
                },
                {
                    "name": "G#3",
                    "midi": 56,
                    "time": 71.94553303333299,
                    "velocity": 0.5984251968503937,
                    "duration": 0.06582137916666397
                },
                {
                    "name": "F#3",
                    "midi": 54,
                    "time": 72.21545599999966,
                    "velocity": 0.28346456692913385,
                    "duration": 0.2654979999999938
                },
                {
                    "name": "G#3",
                    "midi": 56,
                    "time": 72.21545599999966,
                    "velocity": 0.31496062992125984,
                    "duration": 0.2654979999999938
                },
                {
                    "name": "C3",
                    "midi": 48,
                    "time": 72.48095399999966,
                    "velocity": 0.2677165354330709,
                    "duration": 0.0663745000000091
                },
                {
                    "name": "G#3",
                    "midi": 56,
                    "time": 72.48095399999966,
                    "velocity": 0.2992125984251969,
                    "duration": 0.0663745000000091
                },
                {
                    "name": "C3",
                    "midi": 48,
                    "time": 72.61370299999966,
                    "velocity": 0.2677165354330709,
                    "duration": 0.0663744999999949
                },
                {
                    "name": "G#3",
                    "midi": 56,
                    "time": 72.61370299999966,
                    "velocity": 0.2992125984251969,
                    "duration": 0.0663744999999949
                },
                {
                    "name": "C#2",
                    "midi": 37,
                    "time": 72.74645199999965,
                    "velocity": 0.5275590551181102,
                    "duration": 0.06582137916666397
                },
                {
                    "name": "C#3",
                    "midi": 49,
                    "time": 72.74645199999965,
                    "velocity": 0.5905511811023622,
                    "duration": 0.06582137916666397
                },
                {
                    "name": "C#3",
                    "midi": 49,
                    "time": 73.00752503333298,
                    "velocity": 0.5275590551181102,
                    "duration": 0.06582137916666397
                },
                {
                    "name": "G#3",
                    "midi": 56,
                    "time": 73.00752503333298,
                    "velocity": 0.5905511811023622,
                    "duration": 0.06582137916666397
                },
                {
                    "name": "D#4",
                    "midi": 63,
                    "time": 73.27744799999965,
                    "velocity": 0.28346456692913385,
                    "duration": 0.2654979999999938
                },
                {
                    "name": "F4",
                    "midi": 65,
                    "time": 73.27744799999965,
                    "velocity": 0.31496062992125984,
                    "duration": 0.2654979999999938
                },
                {
                    "name": "C4",
                    "midi": 60,
                    "time": 73.54294599999965,
                    "velocity": 0.2755905511811024,
                    "duration": 0.0663744999999949
                },
                {
                    "name": "F4",
                    "midi": 65,
                    "time": 73.54294599999965,
                    "velocity": 0.30708661417322836,
                    "duration": 0.0663744999999949
                },
                {
                    "name": "C4",
                    "midi": 60,
                    "time": 73.67569499999964,
                    "velocity": 0.2755905511811024,
                    "duration": 0.0663744999999949
                },
                {
                    "name": "F4",
                    "midi": 65,
                    "time": 73.67569499999964,
                    "velocity": 0.30708661417322836,
                    "duration": 0.0663744999999949
                },
                {
                    "name": "C#4",
                    "midi": 61,
                    "time": 73.80844399999962,
                    "velocity": 0.28346456692913385,
                    "duration": 0.2654979999999938
                },
                {
                    "name": "F4",
                    "midi": 65,
                    "time": 73.80844399999962,
                    "velocity": 0.31496062992125984,
                    "duration": 0.2654979999999938
                },
                {
                    "name": "A#3",
                    "midi": 58,
                    "time": 74.07394199999962,
                    "velocity": 0.2677165354330709,
                    "duration": 0.0663744999999949
                },
                {
                    "name": "F4",
                    "midi": 65,
                    "time": 74.07394199999962,
                    "velocity": 0.2992125984251969,
                    "duration": 0.0663744999999949
                },
                {
                    "name": "A#3",
                    "midi": 58,
                    "time": 74.20669099999961,
                    "velocity": 0.2677165354330709,
                    "duration": 0.0663744999999949
                },
                {
                    "name": "F4",
                    "midi": 65,
                    "time": 74.20669099999961,
                    "velocity": 0.2992125984251969,
                    "duration": 0.0663744999999949
                },
                {
                    "name": "B3",
                    "midi": 59,
                    "time": 74.3394399999996,
                    "velocity": 0.28346456692913385,
                    "duration": 0.2654979999999938
                },
                {
                    "name": "C#4",
                    "midi": 61,
                    "time": 74.3394399999996,
                    "velocity": 0.31496062992125984,
                    "duration": 0.2654979999999938
                },
                {
                    "name": "F3",
                    "midi": 53,
                    "time": 74.60493799999959,
                    "velocity": 0.2677165354330709,
                    "duration": 0.0663744999999949
                },
                {
                    "name": "C#4",
                    "midi": 61,
                    "time": 74.60493799999959,
                    "velocity": 0.2992125984251969,
                    "duration": 0.0663744999999949
                },
                {
                    "name": "F3",
                    "midi": 53,
                    "time": 74.73768699999958,
                    "velocity": 0.2677165354330709,
                    "duration": 0.0663744999999949
                },
                {
                    "name": "C#4",
                    "midi": 61,
                    "time": 74.73768699999958,
                    "velocity": 0.2992125984251969,
                    "duration": 0.0663744999999949
                },
                {
                    "name": "F#2",
                    "midi": 42,
                    "time": 74.87043599999957,
                    "velocity": 0.5669291338582677,
                    "duration": 0.06582137916666397
                },
                {
                    "name": "F#3",
                    "midi": 54,
                    "time": 74.87043599999957,
                    "velocity": 0.6299212598425197,
                    "duration": 0.06582137916666397
                },
                {
                    "name": "F#3",
                    "midi": 54,
                    "time": 75.1315090333329,
                    "velocity": 0.5669291338582677,
                    "duration": 0.06582137916666397
                },
                {
                    "name": "C#4",
                    "midi": 61,
                    "time": 75.1315090333329,
                    "velocity": 0.6299212598425197,
                    "duration": 0.06582137916666397
                },
                {
                    "name": "B3",
                    "midi": 59,
                    "time": 75.40143199999957,
                    "velocity": 0.28346456692913385,
                    "duration": 0.2654979999999938
                },
                {
                    "name": "C#4",
                    "midi": 61,
                    "time": 75.40143199999957,
                    "velocity": 0.31496062992125984,
                    "duration": 0.2654979999999938
                },
                {
                    "name": "F3",
                    "midi": 53,
                    "time": 75.66692999999957,
                    "velocity": 0.2677165354330709,
                    "duration": 0.0663744999999949
                },
                {
                    "name": "C#4",
                    "midi": 61,
                    "time": 75.66692999999957,
                    "velocity": 0.2992125984251969,
                    "duration": 0.0663744999999949
                },
                {
                    "name": "F3",
                    "midi": 53,
                    "time": 75.79967899999956,
                    "velocity": 0.2677165354330709,
                    "duration": 0.0663744999999949
                },
                {
                    "name": "C#4",
                    "midi": 61,
                    "time": 75.79967899999956,
                    "velocity": 0.2992125984251969,
                    "duration": 0.0663744999999949
                },
                {
                    "name": "F#2",
                    "midi": 42,
                    "time": 75.93242799999955,
                    "velocity": 0.5511811023622047,
                    "duration": 0.06582137916666397
                },
                {
                    "name": "F#3",
                    "midi": 54,
                    "time": 75.93242799999955,
                    "velocity": 0.6141732283464567,
                    "duration": 0.06582137916666397
                },
                {
                    "name": "F#3",
                    "midi": 54,
                    "time": 76.19350103333288,
                    "velocity": 0.5511811023622047,
                    "duration": 0.06582137916666397
                },
                {
                    "name": "C#4",
                    "midi": 61,
                    "time": 76.19350103333288,
                    "velocity": 0.6141732283464567,
                    "duration": 0.06582137916666397
                },
                {
                    "name": "C#3",
                    "midi": 49,
                    "time": 76.46342399999955,
                    "velocity": 0.3464566929133858,
                    "duration": 0.0663744999999949
                },
                {
                    "name": "F#3",
                    "midi": 54,
                    "time": 76.72892199999954,
                    "velocity": 0.2992125984251969,
                    "duration": 0.0663744999999949
                },
                {
                    "name": "F#3",
                    "midi": 54,
                    "time": 76.99441999999954,
                    "velocity": 0.31496062992125984,
                    "duration": 0.0663744999999949
                },
                {
                    "name": "B3",
                    "midi": 59,
                    "time": 77.25991799999953,
                    "velocity": 0.29133858267716534,
                    "duration": 0.0663744999999949
                },
                {
                    "name": "F#2",
                    "midi": 42,
                    "time": 77.52541599999952,
                    "velocity": 0.30708661417322836,
                    "duration": 0.0663744999999949
                },
                {
                    "name": "F#3",
                    "midi": 54,
                    "time": 77.79091399999952,
                    "velocity": 0.28346456692913385,
                    "duration": 0.0663744999999949
                },
                {
                    "name": "F#2",
                    "midi": 42,
                    "time": 78.05641199999951,
                    "velocity": 0.2677165354330709,
                    "duration": 0.0663744999999949
                },
                {
                    "name": "F#3",
                    "midi": 54,
                    "time": 78.05641199999951,
                    "velocity": 0.2992125984251969,
                    "duration": 0.0663744999999949
                },
                {
                    "name": "B2",
                    "midi": 47,
                    "time": 78.3219099999995,
                    "velocity": 0.2204724409448819,
                    "duration": 0.0663744999999949
                },
                {
                    "name": "F#3",
                    "midi": 54,
                    "time": 78.3219099999995,
                    "velocity": 0.25196850393700787,
                    "duration": 0.0663744999999949
                },
                {
                    "name": "F#3",
                    "midi": 54,
                    "time": 78.5874079999995,
                    "velocity": 0.31496062992125984,
                    "duration": 0.0663744999999949
                },
                {
                    "name": "G4",
                    "midi": 67,
                    "time": 78.85290599999949,
                    "velocity": 0.28346456692913385,
                    "duration": 0.0663744999999949
                },
                {
                    "name": "F#3",
                    "midi": 54,
                    "time": 79.11840399999949,
                    "velocity": 0.2755905511811024,
                    "duration": 0.0663744999999949
                },
                {
                    "name": "F#4",
                    "midi": 66,
                    "time": 79.11840399999949,
                    "velocity": 0.30708661417322836,
                    "duration": 0.0663744999999949
                },
                {
                    "name": "B3",
                    "midi": 59,
                    "time": 79.38390199999948,
                    "velocity": 0.2204724409448819,
                    "duration": 0.0663744999999949
                },
                {
                    "name": "F#4",
                    "midi": 66,
                    "time": 79.38390199999948,
                    "velocity": 0.25196850393700787,
                    "duration": 0.0663744999999949
                },
                {
                    "name": "D3",
                    "midi": 50,
                    "time": 79.64939999999947,
                    "velocity": 0.3543307086614173,
                    "duration": 0.0663744999999949
                },
                {
                    "name": "G3",
                    "midi": 55,
                    "time": 79.91489799999947,
                    "velocity": 0.31496062992125984,
                    "duration": 0.0663744999999949
                },
                {
                    "name": "G3",
                    "midi": 55,
                    "time": 80.18039599999946,
                    "velocity": 0.3228346456692913,
                    "duration": 0.0663744999999949
                },
                {
                    "name": "C4",
                    "midi": 60,
                    "time": 80.44589399999946,
                    "velocity": 0.30708661417322836,
                    "duration": 0.0663744999999949
                },
                {
                    "name": "G2",
                    "midi": 43,
                    "time": 80.71139199999945,
                    "velocity": 0.31496062992125984,
                    "duration": 0.0663744999999949
                },
                {
                    "name": "G3",
                    "midi": 55,
                    "time": 80.97688999999944,
                    "velocity": 0.28346456692913385,
                    "duration": 0.0663744999999949
                },
                {
                    "name": "G2",
                    "midi": 43,
                    "time": 81.24238799999944,
                    "velocity": 0.2677165354330709,
                    "duration": 0.0663744999999949
                },
                {
                    "name": "G3",
                    "midi": 55,
                    "time": 81.24238799999944,
                    "velocity": 0.2992125984251969,
                    "duration": 0.0663744999999949
                },
                {
                    "name": "C3",
                    "midi": 48,
                    "time": 81.50788599999943,
                    "velocity": 0.2283464566929134,
                    "duration": 0.0663744999999949
                },
                {
                    "name": "G3",
                    "midi": 55,
                    "time": 81.50788599999943,
                    "velocity": 0.25984251968503935,
                    "duration": 0.0663744999999949
                },
                {
                    "name": "G3",
                    "midi": 55,
                    "time": 81.77338399999942,
                    "velocity": 0.3228346456692913,
                    "duration": 0.0663744999999949
                },
                {
                    "name": "G#4",
                    "midi": 68,
                    "time": 82.03888199999942,
                    "velocity": 0.2992125984251969,
                    "duration": 0.0663744999999949
                },
                {
                    "name": "G3",
                    "midi": 55,
                    "time": 82.30437999999941,
                    "velocity": 0.28346456692913385,
                    "duration": 0.0663744999999949
                },
                {
                    "name": "G4",
                    "midi": 67,
                    "time": 82.30437999999941,
                    "velocity": 0.31496062992125984,
                    "duration": 0.0663744999999949
                },
                {
                    "name": "C4",
                    "midi": 60,
                    "time": 82.5698779999994,
                    "velocity": 0.25196850393700787,
                    "duration": 0.0663744999999949
                },
                {
                    "name": "G4",
                    "midi": 67,
                    "time": 82.5698779999994,
                    "velocity": 0.28346456692913385,
                    "duration": 0.0663744999999949
                },
                {
                    "name": "G4",
                    "midi": 67,
                    "time": 82.8353759999994,
                    "velocity": 0.3543307086614173,
                    "duration": 0.0663744999999949
                },
                {
                    "name": "D#4",
                    "midi": 63,
                    "time": 83.1008739999994,
                    "velocity": 0.3228346456692913,
                    "duration": 0.0663744999999949
                },
                {
                    "name": "D#4",
                    "midi": 63,
                    "time": 83.36637199999939,
                    "velocity": 0.3700787401574803,
                    "duration": 0.0663744999999949
                },
                {
                    "name": "B3",
                    "midi": 59,
                    "time": 83.63186999999938,
                    "velocity": 0.31496062992125984,
                    "duration": 0.0663744999999949
                },
                {
                    "name": "D#4",
                    "midi": 63,
                    "time": 83.63186999999938,
                    "velocity": 0.3543307086614173,
                    "duration": 0.0663744999999949
                },
                {
                    "name": "C#4",
                    "midi": 61,
                    "time": 83.89736799999937,
                    "velocity": 0.33858267716535434,
                    "duration": 0.0663744999999949
                },
                {
                    "name": "D#4",
                    "midi": 63,
                    "time": 83.89736799999937,
                    "velocity": 0.3779527559055118,
                    "duration": 0.0663744999999949
                },
                {
                    "name": "A#3",
                    "midi": 58,
                    "time": 84.16286599999937,
                    "velocity": 0.31496062992125984,
                    "duration": 0.0663744999999949
                },
                {
                    "name": "D#4",
                    "midi": 63,
                    "time": 84.16286599999937,
                    "velocity": 0.3543307086614173,
                    "duration": 0.0663744999999949
                },
                {
                    "name": "A#3",
                    "midi": 58,
                    "time": 84.42836399999936,
                    "velocity": 0.33858267716535434,
                    "duration": 0.0663744999999949
                },
                {
                    "name": "D#4",
                    "midi": 63,
                    "time": 84.42836399999936,
                    "velocity": 0.3779527559055118,
                    "duration": 0.0663744999999949
                },
                {
                    "name": "B3",
                    "midi": 59,
                    "time": 84.69386199999936,
                    "velocity": 0.28346456692913385,
                    "duration": 0.0663744999999949
                },
                {
                    "name": "D#4",
                    "midi": 63,
                    "time": 84.69386199999936,
                    "velocity": 0.3228346456692913,
                    "duration": 0.0663744999999949
                },
                {
                    "name": "E4",
                    "midi": 64,
                    "time": 84.95935999999935,
                    "velocity": 0.3543307086614173,
                    "duration": 0.0663744999999949
                },
                {
                    "name": "C#4",
                    "midi": 61,
                    "time": 85.22485799999934,
                    "velocity": 0.3228346456692913,
                    "duration": 0.0663744999999949
                },
                {
                    "name": "C#4",
                    "midi": 61,
                    "time": 85.49035599999934,
                    "velocity": 0.3543307086614173,
                    "duration": 0.0663744999999949
                },
                {
                    "name": "D#4",
                    "midi": 63,
                    "time": 85.75585399999933,
                    "velocity": 0.3228346456692913,
                    "duration": 0.0663744999999949
                },
                {
                    "name": "G#4",
                    "midi": 68,
                    "time": 86.02135199999933,
                    "velocity": 0.3779527559055118,
                    "duration": 0.0663744999999949
                },
                {
                    "name": "E4",
                    "midi": 64,
                    "time": 86.28684999999932,
                    "velocity": 0.3543307086614173,
                    "duration": 0.0663744999999949
                },
                {
                    "name": "E4",
                    "midi": 64,
                    "time": 86.55234799999931,
                    "velocity": 0.4251968503937008,
                    "duration": 0.0663744999999949
                },
                {
                    "name": "C4",
                    "midi": 60,
                    "time": 86.8178459999993,
                    "velocity": 0.33858267716535434,
                    "duration": 0.0663744999999949
                },
                {
                    "name": "E4",
                    "midi": 64,
                    "time": 86.8178459999993,
                    "velocity": 0.3779527559055118,
                    "duration": 0.0663744999999949
                },
                {
                    "name": "D4",
                    "midi": 62,
                    "time": 87.0833439999993,
                    "velocity": 0.41732283464566927,
                    "duration": 0.0663744999999949
                },
                {
                    "name": "E4",
                    "midi": 64,
                    "time": 87.0833439999993,
                    "velocity": 0.4645669291338583,
                    "duration": 0.0663744999999949
                },
                {
                    "name": "B3",
                    "midi": 59,
                    "time": 87.3488419999993,
                    "velocity": 0.3779527559055118,
                    "duration": 0.0663744999999949
                },
                {
                    "name": "E4",
                    "midi": 64,
                    "time": 87.3488419999993,
                    "velocity": 0.4251968503937008,
                    "duration": 0.0663744999999949
                },
                {
                    "name": "B3",
                    "midi": 59,
                    "time": 87.61433999999929,
                    "velocity": 0.4094488188976378,
                    "duration": 0.0663744999999949
                },
                {
                    "name": "E4",
                    "midi": 64,
                    "time": 87.61433999999929,
                    "velocity": 0.4566929133858268,
                    "duration": 0.0663744999999949
                },
                {
                    "name": "C4",
                    "midi": 60,
                    "time": 87.87983799999928,
                    "velocity": 0.3779527559055118,
                    "duration": 0.0663744999999949
                },
                {
                    "name": "E4",
                    "midi": 64,
                    "time": 87.87983799999928,
                    "velocity": 0.4251968503937008,
                    "duration": 0.0663744999999949
                },
                {
                    "name": "F4",
                    "midi": 65,
                    "time": 88.14533599999928,
                    "velocity": 0.4645669291338583,
                    "duration": 0.0663744999999949
                },
                {
                    "name": "D4",
                    "midi": 62,
                    "time": 88.41083399999927,
                    "velocity": 0.3937007874015748,
                    "duration": 0.0663744999999949
                },
                {
                    "name": "D4",
                    "midi": 62,
                    "time": 88.67633199999926,
                    "velocity": 0.4566929133858268,
                    "duration": 0.0663744999999949
                },
                {
                    "name": "E4",
                    "midi": 64,
                    "time": 88.94182999999926,
                    "velocity": 0.3937007874015748,
                    "duration": 0.06526825833333305
                },
                {
                    "name": "C#4",
                    "midi": 61,
                    "time": 89.20732799999925,
                    "velocity": 0.5354330708661418,
                    "duration": 0.2654979999999938
                },
                {
                    "name": "C4",
                    "midi": 60,
                    "time": 89.47282599999924,
                    "velocity": 0.4566929133858268,
                    "duration": 0.09956175000000655
                },
                {
                    "name": "C#4",
                    "midi": 61,
                    "time": 89.47282599999924,
                    "velocity": 0.5118110236220472,
                    "duration": 0.09956175000000655
                },
                {
                    "name": "A#3",
                    "midi": 58,
                    "time": 89.60557499999925,
                    "velocity": 0.5118110236220472,
                    "duration": 0.09956175000000655
                },
                {
                    "name": "C#4",
                    "midi": 61,
                    "time": 89.60557499999925,
                    "velocity": 0.5118110236220472,
                    "duration": 0.09956175000000655
                },
                {
                    "name": "A#3",
                    "midi": 58,
                    "time": 89.73832399999925,
                    "velocity": 0.48031496062992124,
                    "duration": 0.2654979999999938
                },
                {
                    "name": "C#4",
                    "midi": 61,
                    "time": 89.73832399999925,
                    "velocity": 0.5354330708661418,
                    "duration": 0.2654979999999938
                },
                {
                    "name": "G#3",
                    "midi": 56,
                    "time": 90.00382199999925,
                    "velocity": 0.4566929133858268,
                    "duration": 0.09956175000000655
                },
                {
                    "name": "C#4",
                    "midi": 61,
                    "time": 90.00382199999925,
                    "velocity": 0.5118110236220472,
                    "duration": 0.09956175000000655
                },
                {
                    "name": "G3",
                    "midi": 55,
                    "time": 90.13657099999925,
                    "velocity": 0.4566929133858268,
                    "duration": 0.09956175000000655
                },
                {
                    "name": "C#4",
                    "midi": 61,
                    "time": 90.13657099999925,
                    "velocity": 0.5118110236220472,
                    "duration": 0.09956175000000655
                },
                {
                    "name": "G3",
                    "midi": 55,
                    "time": 90.26931999999925,
                    "velocity": 0.48031496062992124,
                    "duration": 0.2654979999999938
                },
                {
                    "name": "C#4",
                    "midi": 61,
                    "time": 90.26931999999925,
                    "velocity": 0.5354330708661418,
                    "duration": 0.2654979999999938
                },
                {
                    "name": "F3",
                    "midi": 53,
                    "time": 90.53481799999925,
                    "velocity": 0.4566929133858268,
                    "duration": 0.09956175000000655
                },
                {
                    "name": "C#4",
                    "midi": 61,
                    "time": 90.53481799999925,
                    "velocity": 0.5118110236220472,
                    "duration": 0.09956175000000655
                },
                {
                    "name": "E3",
                    "midi": 52,
                    "time": 90.66756699999925,
                    "velocity": 0.4566929133858268,
                    "duration": 0.09568990416666168
                },
                {
                    "name": "C#4",
                    "midi": 61,
                    "time": 90.66756699999925,
                    "velocity": 0.5118110236220472,
                    "duration": 0.09568990416666168
                },
                {
                    "name": "C2",
                    "midi": 36,
                    "time": 90.80031599999924,
                    "velocity": 0.6456692913385826,
                    "duration": 0.265498000000008
                },
                {
                    "name": "C3",
                    "midi": 48,
                    "time": 90.80031599999924,
                    "velocity": 0.6456692913385826,
                    "duration": 0.265498000000008
                },
                {
                    "name": "C3",
                    "midi": 48,
                    "time": 91.06581399999925,
                    "velocity": 0.6220472440944882,
                    "duration": 0.09956175000000655
                },
                {
                    "name": "C3",
                    "midi": 48,
                    "time": 91.19856299999925,
                    "velocity": 0.6220472440944882,
                    "duration": 0.09568990416666168
                },
                {
                    "name": "C#4",
                    "midi": 61,
                    "time": 91.33131199999924,
                    "velocity": 0.5354330708661418,
                    "duration": 0.2654979999999938
                },
                {
                    "name": "C4",
                    "midi": 60,
                    "time": 91.59680999999924,
                    "velocity": 0.4566929133858268,
                    "duration": 0.09956175000000655
                },
                {
                    "name": "C#4",
                    "midi": 61,
                    "time": 91.59680999999924,
                    "velocity": 0.5118110236220472,
                    "duration": 0.09956175000000655
                },
                {
                    "name": "A#3",
                    "midi": 58,
                    "time": 91.72955899999924,
                    "velocity": 0.4566929133858268,
                    "duration": 0.09956175000000655
                },
                {
                    "name": "C#4",
                    "midi": 61,
                    "time": 91.72955899999924,
                    "velocity": 0.5118110236220472,
                    "duration": 0.09956175000000655
                },
                {
                    "name": "A#3",
                    "midi": 58,
                    "time": 91.86230799999925,
                    "velocity": 0.48031496062992124,
                    "duration": 0.2654979999999938
                },
                {
                    "name": "C#4",
                    "midi": 61,
                    "time": 91.86230799999925,
                    "velocity": 0.5354330708661418,
                    "duration": 0.2654979999999938
                },
                {
                    "name": "G#3",
                    "midi": 56,
                    "time": 92.12780599999924,
                    "velocity": 0.4566929133858268,
                    "duration": 0.09956175000000655
                },
                {
                    "name": "C#4",
                    "midi": 61,
                    "time": 92.12780599999924,
                    "velocity": 0.5118110236220472,
                    "duration": 0.09956175000000655
                },
                {
                    "name": "G3",
                    "midi": 55,
                    "time": 92.26055499999924,
                    "velocity": 0.4566929133858268,
                    "duration": 0.09956175000000655
                },
                {
                    "name": "C#4",
                    "midi": 61,
                    "time": 92.26055499999924,
                    "velocity": 0.5118110236220472,
                    "duration": 0.09956175000000655
                },
                {
                    "name": "G3",
                    "midi": 55,
                    "time": 92.39330399999925,
                    "velocity": 0.48031496062992124,
                    "duration": 0.2654979999999938
                },
                {
                    "name": "C#4",
                    "midi": 61,
                    "time": 92.39330399999925,
                    "velocity": 0.5354330708661418,
                    "duration": 0.2654979999999938
                },
                {
                    "name": "F3",
                    "midi": 53,
                    "time": 92.65880199999924,
                    "velocity": 0.4566929133858268,
                    "duration": 0.09956175000000655
                },
                {
                    "name": "C#4",
                    "midi": 61,
                    "time": 92.65880199999924,
                    "velocity": 0.5118110236220472,
                    "duration": 0.09956175000000655
                },
                {
                    "name": "E3",
                    "midi": 52,
                    "time": 92.79155099999925,
                    "velocity": 0.4566929133858268,
                    "duration": 0.09568990416666168
                },
                {
                    "name": "C#4",
                    "midi": 61,
                    "time": 92.79155099999925,
                    "velocity": 0.5118110236220472,
                    "duration": 0.09568990416666168
                },
                {
                    "name": "C2",
                    "midi": 36,
                    "time": 92.92429999999923,
                    "velocity": 0.5984251968503937,
                    "duration": 0.2654979999999938
                },
                {
                    "name": "C3",
                    "midi": 48,
                    "time": 92.92429999999923,
                    "velocity": 0.6692913385826772,
                    "duration": 0.2654979999999938
                },
                {
                    "name": "C3",
                    "midi": 48,
                    "time": 93.18979799999923,
                    "velocity": 0.6220472440944882,
                    "duration": 0.09956175000000655
                },
                {
                    "name": "C3",
                    "midi": 48,
                    "time": 93.32254699999923,
                    "velocity": 0.6220472440944882,
                    "duration": 0.09568990416666168
                },
                {
                    "name": "G3",
                    "midi": 55,
                    "time": 93.45529599999922,
                    "velocity": 0.31496062992125984,
                    "duration": 0.2654979999999938
                },
                {
                    "name": "C#4",
                    "midi": 61,
                    "time": 93.45529599999922,
                    "velocity": 0.3543307086614173,
                    "duration": 0.2654979999999938
                },
                {
                    "name": "F3",
                    "midi": 53,
                    "time": 93.72079399999922,
                    "velocity": 0.28346456692913385,
                    "duration": 0.09956175000000655
                },
                {
                    "name": "C#4",
                    "midi": 61,
                    "time": 93.72079399999922,
                    "velocity": 0.31496062992125984,
                    "duration": 0.09956175000000655
                },
                {
                    "name": "E3",
                    "midi": 52,
                    "time": 93.85354299999922,
                    "velocity": 0.28346456692913385,
                    "duration": 0.09568990416666168
                },
                {
                    "name": "C#4",
                    "midi": 61,
                    "time": 93.85354299999922,
                    "velocity": 0.31496062992125984,
                    "duration": 0.09568990416666168
                },
                {
                    "name": "C2",
                    "midi": 36,
                    "time": 93.98629199999921,
                    "velocity": 0.5984251968503937,
                    "duration": 0.2654979999999938
                },
                {
                    "name": "C3",
                    "midi": 48,
                    "time": 93.98629199999921,
                    "velocity": 0.6692913385826772,
                    "duration": 0.2654979999999938
                },
                {
                    "name": "C3",
                    "midi": 48,
                    "time": 94.2517899999992,
                    "velocity": 0.6220472440944882,
                    "duration": 0.09956174999999234
                },
                {
                    "name": "C3",
                    "midi": 48,
                    "time": 94.3845389999992,
                    "velocity": 0.6220472440944882,
                    "duration": 0.09568990416666168
                },
                {
                    "name": "C3",
                    "midi": 48,
                    "time": 94.51728799999918,
                    "velocity": 0.31496062992125984,
                    "duration": 0.132749000000004
                },
                {
                    "name": "C#3",
                    "midi": 49,
                    "time": 94.78278599999919,
                    "velocity": 0.2992125984251969,
                    "duration": 0.0663744999999949
                },
                {
                    "name": "C3",
                    "midi": 48,
                    "time": 94.91553499999918,
                    "velocity": 0.2992125984251969,
                    "duration": 0.0663744999999949
                },
                {
                    "name": "C#3",
                    "midi": 49,
                    "time": 95.04828399999917,
                    "velocity": 0.31496062992125984,
                    "duration": 0.132749000000004
                },
                {
                    "name": "C3",
                    "midi": 48,
                    "time": 95.31378199999918,
                    "velocity": 0.2992125984251969,
                    "duration": 0.0663744999999949
                },
                {
                    "name": "D3",
                    "midi": 50,
                    "time": 95.44653099999917,
                    "velocity": 0.2992125984251969,
                    "duration": 0.0663744999999949
                },
                {
                    "name": "E3",
                    "midi": 52,
                    "time": 95.57927999999916,
                    "velocity": 0.31496062992125984,
                    "duration": 0.132749000000004
                },
                {
                    "name": "F3",
                    "midi": 53,
                    "time": 95.84477799999917,
                    "velocity": 0.2992125984251969,
                    "duration": 0.0663744999999949
                },
                {
                    "name": "E3",
                    "midi": 52,
                    "time": 95.97752699999916,
                    "velocity": 0.2992125984251969,
                    "duration": 0.0663744999999949
                },
                {
                    "name": "F3",
                    "midi": 53,
                    "time": 96.11027599999915,
                    "velocity": 0.30708661417322836,
                    "duration": 0.132749000000004
                },
                {
                    "name": "E3",
                    "midi": 52,
                    "time": 96.37577399999915,
                    "velocity": 0.33070866141732286,
                    "duration": 0.0663744999999949
                },
                {
                    "name": "F#3",
                    "midi": 54,
                    "time": 96.50852299999914,
                    "velocity": 0.3464566929133858,
                    "duration": 0.0663744999999949
                },
                {
                    "name": "G3",
                    "midi": 55,
                    "time": 96.64127199999913,
                    "velocity": 0.3543307086614173,
                    "duration": 0.2654979999999938
                },
                {
                    "name": "G#3",
                    "midi": 56,
                    "time": 96.90676999999913,
                    "velocity": 0.3700787401574803,
                    "duration": 0.132749000000004
                },
                {
                    "name": "G3",
                    "midi": 55,
                    "time": 97.03951899999913,
                    "velocity": 0.3858267716535433,
                    "duration": 0.132749000000004
                },
                {
                    "name": "A#3",
                    "midi": 58,
                    "time": 97.17226799999914,
                    "velocity": 0.4015748031496063,
                    "duration": 0.2654979999999938
                },
                {
                    "name": "G#3",
                    "midi": 56,
                    "time": 97.43776599999913,
                    "velocity": 0.4251968503937008,
                    "duration": 0.132749000000004
                },
                {
                    "name": "C#4",
                    "midi": 61,
                    "time": 97.57051499999913,
                    "velocity": 0.4330708661417323,
                    "duration": 0.132749000000004
                },
                {
                    "name": "C4",
                    "midi": 60,
                    "time": 97.70326399999914,
                    "velocity": 0.4409448818897638,
                    "duration": 0.2654979999999938
                },
                {
                    "name": "D4",
                    "midi": 62,
                    "time": 97.96876199999913,
                    "velocity": 0.47244094488188976,
                    "duration": 0.132749000000004
                },
                {
                    "name": "D#4",
                    "midi": 63,
                    "time": 98.10151099999914,
                    "velocity": 0.48031496062992124,
                    "duration": 0.132749000000004
                },
                {
                    "name": "E4",
                    "midi": 64,
                    "time": 98.23425999999914,
                    "velocity": 0.4881889763779528,
                    "duration": 0.2654979999999938
                },
                {
                    "name": "F4",
                    "midi": 65,
                    "time": 98.49975799999913,
                    "velocity": 0.5118110236220472,
                    "duration": 0.132749000000004
                },
                {
                    "name": "G4",
                    "midi": 67,
                    "time": 98.63250699999914,
                    "velocity": 0.5275590551181102,
                    "duration": 0.132749000000004
                },
                {
                    "name": "F2",
                    "midi": 41,
                    "time": 98.76525599999914,
                    "velocity": 0.48031496062992124,
                    "duration": 0.265498000000008
                },
                {
                    "name": "F3",
                    "midi": 53,
                    "time": 98.76525599999914,
                    "velocity": 0.5354330708661418,
                    "duration": 0.265498000000008
                },
                {
                    "name": "F3",
                    "midi": 53,
                    "time": 99.03075399999915,
                    "velocity": 0.5196850393700787,
                    "duration": 0.0663744999999949
                },
                {
                    "name": "F3",
                    "midi": 53,
                    "time": 99.16350299999914,
                    "velocity": 0.5196850393700787,
                    "duration": 0.0663744999999949
                },
                {
                    "name": "F2",
                    "midi": 41,
                    "time": 99.29625199999913,
                    "velocity": 0.48031496062992124,
                    "duration": 0.2654979999999938
                },
                {
                    "name": "F3",
                    "midi": 53,
                    "time": 99.29625199999913,
                    "velocity": 0.5354330708661418,
                    "duration": 0.2654979999999938
                },
                {
                    "name": "F3",
                    "midi": 53,
                    "time": 99.56174999999912,
                    "velocity": 0.5196850393700787,
                    "duration": 0.0663744999999949
                },
                {
                    "name": "F3",
                    "midi": 53,
                    "time": 99.69449899999911,
                    "velocity": 0.5118110236220472,
                    "duration": 0.0663744999999949
                },
                {
                    "name": "F2",
                    "midi": 41,
                    "time": 99.8272479999991,
                    "velocity": 0.48031496062992124,
                    "duration": 0.265498000000008
                },
                {
                    "name": "F3",
                    "midi": 53,
                    "time": 99.8272479999991,
                    "velocity": 0.5354330708661418,
                    "duration": 0.265498000000008
                },
                {
                    "name": "F3",
                    "midi": 53,
                    "time": 100.09274599999911,
                    "velocity": 0.5196850393700787,
                    "duration": 0.0663745000000091
                },
                {
                    "name": "F3",
                    "midi": 53,
                    "time": 100.22549499999911,
                    "velocity": 0.5196850393700787,
                    "duration": 0.132749000000004
                },
                {
                    "name": "F2",
                    "midi": 41,
                    "time": 100.35824399999912,
                    "velocity": 0.48031496062992124,
                    "duration": 0.25996679166667036
                },
                {
                    "name": "F3",
                    "midi": 53,
                    "time": 100.35824399999912,
                    "velocity": 0.5354330708661418,
                    "duration": 0.25996679166667036
                },
                {
                    "name": "F3",
                    "midi": 53,
                    "time": 100.62374199999913,
                    "velocity": 0.3543307086614173,
                    "duration": 0.0663745000000091
                },
                {
                    "name": "F3",
                    "midi": 53,
                    "time": 100.75649099999913,
                    "velocity": 0.3543307086614173,
                    "duration": 0.0663744999999949
                },
                {
                    "name": "F1",
                    "midi": 29,
                    "time": 100.88923999999912,
                    "velocity": 0.28346456692913385,
                    "duration": 0.2654979999999938
                },
                {
                    "name": "F2",
                    "midi": 41,
                    "time": 100.88923999999912,
                    "velocity": 0.31496062992125984,
                    "duration": 0.2654979999999938
                },
                {
                    "name": "F2",
                    "midi": 41,
                    "time": 101.15473799999911,
                    "velocity": 0.2992125984251969,
                    "duration": 0.0663744999999949
                },
                {
                    "name": "F2",
                    "midi": 41,
                    "time": 101.2874869999991,
                    "velocity": 0.2992125984251969,
                    "duration": 0.0663744999999949
                },
                {
                    "name": "F1",
                    "midi": 29,
                    "time": 101.4202359999991,
                    "velocity": 0.28346456692913385,
                    "duration": 0.265498000000008
                },
                {
                    "name": "F2",
                    "midi": 41,
                    "time": 101.4202359999991,
                    "velocity": 0.31496062992125984,
                    "duration": 0.265498000000008
                },
                {
                    "name": "F2",
                    "midi": 41,
                    "time": 101.6857339999991,
                    "velocity": 0.2992125984251969,
                    "duration": 0.0663744999999949
                },
                {
                    "name": "F2",
                    "midi": 41,
                    "time": 101.81848299999909,
                    "velocity": 0.2992125984251969,
                    "duration": 0.0663744999999949
                },
                {
                    "name": "F1",
                    "midi": 29,
                    "time": 101.95123199999908,
                    "velocity": 0.28346456692913385,
                    "duration": 0.265498000000008
                },
                {
                    "name": "F2",
                    "midi": 41,
                    "time": 101.95123199999908,
                    "velocity": 0.31496062992125984,
                    "duration": 0.265498000000008
                },
                {
                    "name": "F2",
                    "midi": 41,
                    "time": 102.21672999999909,
                    "velocity": 0.2992125984251969,
                    "duration": 0.0663744999999949
                },
                {
                    "name": "F2",
                    "midi": 41,
                    "time": 102.34947899999908,
                    "velocity": 0.2992125984251969,
                    "duration": 0.0663744999999949
                },
                {
                    "name": "F1",
                    "midi": 29,
                    "time": 102.48222799999907,
                    "velocity": 0.28346456692913385,
                    "duration": 0.265498000000008
                },
                {
                    "name": "F2",
                    "midi": 41,
                    "time": 102.48222799999907,
                    "velocity": 0.31496062992125984,
                    "duration": 0.265498000000008
                },
                {
                    "name": "F2",
                    "midi": 41,
                    "time": 102.74772599999908,
                    "velocity": 0.2992125984251969,
                    "duration": 0.0663744999999949
                },
                {
                    "name": "F2",
                    "midi": 41,
                    "time": 102.88047499999907,
                    "velocity": 0.2992125984251969,
                    "duration": 0.0663744999999949
                },
                {
                    "name": "A#3",
                    "midi": 58,
                    "time": 103.01322399999906,
                    "velocity": 0.3700787401574803,
                    "duration": 0.265498000000008
                },
                {
                    "name": "G3",
                    "midi": 55,
                    "time": 103.27872199999906,
                    "velocity": 0.3464566929133858,
                    "duration": 0.0663744999999949
                },
                {
                    "name": "G3",
                    "midi": 55,
                    "time": 103.41147099999905,
                    "velocity": 0.3464566929133858,
                    "duration": 0.0663744999999949
                },
                {
                    "name": "G#3",
                    "midi": 56,
                    "time": 103.54421999999904,
                    "velocity": 0.41732283464566927,
                    "duration": 0.265498000000008
                },
                {
                    "name": "F3",
                    "midi": 53,
                    "time": 103.80971799999905,
                    "velocity": 0.4015748031496063,
                    "duration": 0.0663744999999949
                },
                {
                    "name": "F3",
                    "midi": 53,
                    "time": 103.94246699999904,
                    "velocity": 0.4015748031496063,
                    "duration": 0.0663744999999949
                },
                {
                    "name": "E3",
                    "midi": 52,
                    "time": 104.07521599999903,
                    "velocity": 0.44881889763779526,
                    "duration": 0.265498000000008
                },
                {
                    "name": "C3",
                    "midi": 48,
                    "time": 104.34071399999904,
                    "velocity": 0.3937007874015748,
                    "duration": 0.0663744999999949
                },
                {
                    "name": "C3",
                    "midi": 48,
                    "time": 104.47346299999903,
                    "velocity": 0.4015748031496063,
                    "duration": 0.0663744999999949
                },
                {
                    "name": "F3",
                    "midi": 53,
                    "time": 104.60621199999902,
                    "velocity": 0.49606299212598426,
                    "duration": 0.2654979999999938
                },
                {
                    "name": "C3",
                    "midi": 48,
                    "time": 104.87170999999901,
                    "velocity": 0.4409448818897638,
                    "duration": 0.0663744999999949
                },
                {
                    "name": "C3",
                    "midi": 48,
                    "time": 105.004458999999,
                    "velocity": 0.4409448818897638,
                    "duration": 0.0663744999999949
                },
                {
                    "name": "G3",
                    "midi": 55,
                    "time": 105.13720799999899,
                    "velocity": 0.5669291338582677,
                    "duration": 0.2654979999999938
                },
                {
                    "name": "C3",
                    "midi": 48,
                    "time": 105.40270599999899,
                    "velocity": 0.5118110236220472,
                    "duration": 0.0663744999999949
                },
                {
                    "name": "C3",
                    "midi": 48,
                    "time": 105.53545499999898,
                    "velocity": 0.5118110236220472,
                    "duration": 0.0663744999999949
                },
                {
                    "name": "G#3",
                    "midi": 56,
                    "time": 105.66820399999897,
                    "velocity": 0.5984251968503937,
                    "duration": 0.265498000000008
                },
                {
                    "name": "C3",
                    "midi": 48,
                    "time": 105.93370199999897,
                    "velocity": 0.5669291338582677,
                    "duration": 0.0663744999999949
                },
                {
                    "name": "C3",
                    "midi": 48,
                    "time": 106.06645099999896,
                    "velocity": 0.5669291338582677,
                    "duration": 0.0663744999999949
                },
                {
                    "name": "G#3",
                    "midi": 56,
                    "time": 106.19919999999895,
                    "velocity": 0.6456692913385826,
                    "duration": 0.2654979999999938
                },
                {
                    "name": "F#2",
                    "midi": 42,
                    "time": 106.46469799999895,
                    "velocity": 0.5748031496062992,
                    "duration": 0.132749000000004
                },
                {
                    "name": "F#3",
                    "midi": 54,
                    "time": 106.46469799999895,
                    "velocity": 0.6456692913385826,
                    "duration": 0.132749000000004
                },
                {
                    "name": "F#2",
                    "midi": 42,
                    "time": 106.73019599999895,
                    "velocity": 0.5748031496062992,
                    "duration": 0.132749000000004
                },
                {
                    "name": "F#3",
                    "midi": 54,
                    "time": 106.73019599999895,
                    "velocity": 0.6456692913385826,
                    "duration": 0.132749000000004
                },
                {
                    "name": "F#2",
                    "midi": 42,
                    "time": 106.99569399999896,
                    "velocity": 0.5748031496062992,
                    "duration": 0.132749000000004
                },
                {
                    "name": "F#3",
                    "midi": 54,
                    "time": 106.99569399999896,
                    "velocity": 0.6456692913385826,
                    "duration": 0.132749000000004
                },
                {
                    "name": "F#2",
                    "midi": 42,
                    "time": 107.26119199999897,
                    "velocity": 0.5748031496062992,
                    "duration": 0.132749000000004
                },
                {
                    "name": "F#3",
                    "midi": 54,
                    "time": 107.26119199999897,
                    "velocity": 0.6456692913385826,
                    "duration": 0.132749000000004
                },
                {
                    "name": "A#2",
                    "midi": 46,
                    "time": 107.52668999999898,
                    "velocity": 0.5748031496062992,
                    "duration": 0.132749000000004
                },
                {
                    "name": "A#3",
                    "midi": 58,
                    "time": 107.52668999999898,
                    "velocity": 0.6456692913385826,
                    "duration": 0.132749000000004
                },
                {
                    "name": "C#4",
                    "midi": 61,
                    "time": 107.79218799999899,
                    "velocity": 0.5905511811023622,
                    "duration": 0.2654979999999938
                },
                {
                    "name": "A#3",
                    "midi": 58,
                    "time": 107.79218799999899,
                    "velocity": 0.5275590551181102,
                    "duration": 0.2654979999999938
                },
                {
                    "name": "C#3",
                    "midi": 49,
                    "time": 107.79218799999899,
                    "velocity": 0.5275590551181102,
                    "duration": 0.2654979999999938
                },
                {
                    "name": "C#3",
                    "midi": 49,
                    "time": 108.05768599999898,
                    "velocity": 0.5669291338582677,
                    "duration": 0.0663745000000091
                },
                {
                    "name": "A#3",
                    "midi": 58,
                    "time": 108.05768599999898,
                    "velocity": 0.5669291338582677,
                    "duration": 0.0663745000000091
                },
                {
                    "name": "C#4",
                    "midi": 61,
                    "time": 108.05768599999898,
                    "velocity": 0.6299212598425197,
                    "duration": 0.0663745000000091
                },
                {
                    "name": "C#3",
                    "midi": 49,
                    "time": 108.19043499999898,
                    "velocity": 0.5748031496062992,
                    "duration": 0.0663744999999949
                },
                {
                    "name": "A#3",
                    "midi": 58,
                    "time": 108.19043499999898,
                    "velocity": 0.5748031496062992,
                    "duration": 0.0663744999999949
                },
                {
                    "name": "C#4",
                    "midi": 61,
                    "time": 108.19043499999898,
                    "velocity": 0.6456692913385826,
                    "duration": 0.0663744999999949
                },
                {
                    "name": "C#3",
                    "midi": 49,
                    "time": 108.32318399999897,
                    "velocity": 0.5905511811023622,
                    "duration": 0.2654979999999938
                },
                {
                    "name": "C#4",
                    "midi": 61,
                    "time": 108.32318399999897,
                    "velocity": 0.6614173228346457,
                    "duration": 0.2654979999999938
                },
                {
                    "name": "B3",
                    "midi": 59,
                    "time": 108.32318399999897,
                    "velocity": 0.5905511811023622,
                    "duration": 0.2654979999999938
                },
                {
                    "name": "B3",
                    "midi": 59,
                    "time": 108.58868199999897,
                    "velocity": 0.5669291338582677,
                    "duration": 0.0663744999999949
                },
                {
                    "name": "C#4",
                    "midi": 61,
                    "time": 108.58868199999897,
                    "velocity": 0.6299212598425197,
                    "duration": 0.0663744999999949
                },
                {
                    "name": "C#3",
                    "midi": 49,
                    "time": 108.58868199999897,
                    "velocity": 0.5669291338582677,
                    "duration": 0.0663744999999949
                },
                {
                    "name": "B3",
                    "midi": 59,
                    "time": 108.72143099999896,
                    "velocity": 0.5511811023622047,
                    "duration": 0.0663744999999949
                },
                {
                    "name": "C#4",
                    "midi": 61,
                    "time": 108.72143099999896,
                    "velocity": 0.6141732283464567,
                    "duration": 0.0663744999999949
                },
                {
                    "name": "C#3",
                    "midi": 49,
                    "time": 108.72143099999896,
                    "velocity": 0.5511811023622047,
                    "duration": 0.0663744999999949
                },
                {
                    "name": "F#3",
                    "midi": 54,
                    "time": 108.85417999999895,
                    "velocity": 0.5275590551181102,
                    "duration": 0.132749000000004
                },
                {
                    "name": "A#3",
                    "midi": 58,
                    "time": 108.85417999999895,
                    "velocity": 0.5275590551181102,
                    "duration": 0.132749000000004
                },
                {
                    "name": "C#4",
                    "midi": 61,
                    "time": 108.85417999999895,
                    "velocity": 0.5905511811023622,
                    "duration": 0.132749000000004
                },
                {
                    "name": "C#2",
                    "midi": 37,
                    "time": 109.11967799999896,
                    "velocity": 0.5433070866141733,
                    "duration": 0.132749000000004
                },
                {
                    "name": "C#3",
                    "midi": 49,
                    "time": 109.11967799999896,
                    "velocity": 0.6062992125984252,
                    "duration": 0.132749000000004
                },
                {
                    "name": "C2",
                    "midi": 36,
                    "time": 109.38517599999896,
                    "velocity": 0.5433070866141733,
                    "duration": 0.132749000000004
                },
                {
                    "name": "C3",
                    "midi": 48,
                    "time": 109.38517599999896,
                    "velocity": 0.6062992125984252,
                    "duration": 0.132749000000004
                },
                {
                    "name": "C2",
                    "midi": 36,
                    "time": 109.65067399999897,
                    "velocity": 0.5433070866141733,
                    "duration": 0.132749000000004
                },
                {
                    "name": "C3",
                    "midi": 48,
                    "time": 109.65067399999897,
                    "velocity": 0.6062992125984252,
                    "duration": 0.132749000000004
                },
                {
                    "name": "F2",
                    "midi": 41,
                    "time": 109.91617199999898,
                    "velocity": 0.6141732283464567,
                    "duration": 0.2654979999999938
                },
                {
                    "name": "F3",
                    "midi": 53,
                    "time": 109.91617199999898,
                    "velocity": 0.6141732283464567,
                    "duration": 0.2654979999999938
                },
                {
                    "name": "F3",
                    "midi": 53,
                    "time": 110.18166999999897,
                    "velocity": 0.31496062992125984,
                    "duration": 0.132749000000004
                },
                {
                    "name": "G3",
                    "midi": 55,
                    "time": 110.31441899999898,
                    "velocity": 0.31496062992125984,
                    "duration": 0.132749000000004
                },
                {
                    "name": "A3",
                    "midi": 57,
                    "time": 110.44716799999898,
                    "velocity": 0.31496062992125984,
                    "duration": 0.2654979999999938
                },
                {
                    "name": "A#3",
                    "midi": 58,
                    "time": 110.71266599999898,
                    "velocity": 0.31496062992125984,
                    "duration": 0.0663744999999949
                },
                {
                    "name": "C4",
                    "midi": 60,
                    "time": 110.84541499999897,
                    "velocity": 0.31496062992125984,
                    "duration": 0.0663744999999949
                },
                {
                    "name": "C3",
                    "midi": 48,
                    "time": 110.97816399999896,
                    "velocity": 0.28346456692913385,
                    "duration": 0.2654979999999938
                },
                {
                    "name": "A3",
                    "midi": 57,
                    "time": 110.97816399999896,
                    "velocity": 0.28346456692913385,
                    "duration": 0.2654979999999938
                },
                {
                    "name": "C4",
                    "midi": 60,
                    "time": 110.97816399999896,
                    "velocity": 0.31496062992125984,
                    "duration": 0.2654979999999938
                },
                {
                    "name": "C3",
                    "midi": 48,
                    "time": 111.24366199999895,
                    "velocity": 0.2755905511811024,
                    "duration": 0.0663745000000091
                },
                {
                    "name": "G3",
                    "midi": 55,
                    "time": 111.24366199999895,
                    "velocity": 0.2755905511811024,
                    "duration": 0.0663745000000091
                },
                {
                    "name": "C4",
                    "midi": 60,
                    "time": 111.24366199999895,
                    "velocity": 0.30708661417322836,
                    "duration": 0.0663745000000091
                },
                {
                    "name": "C3",
                    "midi": 48,
                    "time": 111.37641099999895,
                    "velocity": 0.2755905511811024,
                    "duration": 0.0663744999999949
                },
                {
                    "name": "G3",
                    "midi": 55,
                    "time": 111.37641099999895,
                    "velocity": 0.2755905511811024,
                    "duration": 0.0663744999999949
                },
                {
                    "name": "C4",
                    "midi": 60,
                    "time": 111.37641099999895,
                    "velocity": 0.30708661417322836,
                    "duration": 0.0663744999999949
                },
                {
                    "name": "C3",
                    "midi": 48,
                    "time": 111.50915999999894,
                    "velocity": 0.28346456692913385,
                    "duration": 0.2654979999999938
                },
                {
                    "name": "G3",
                    "midi": 55,
                    "time": 111.50915999999894,
                    "velocity": 0.28346456692913385,
                    "duration": 0.2654979999999938
                },
                {
                    "name": "C4",
                    "midi": 60,
                    "time": 111.50915999999894,
                    "velocity": 0.31496062992125984,
                    "duration": 0.2654979999999938
                },
                {
                    "name": "C3",
                    "midi": 48,
                    "time": 111.77465799999894,
                    "velocity": 0.2677165354330709,
                    "duration": 0.0663744999999949
                },
                {
                    "name": "F3",
                    "midi": 53,
                    "time": 111.77465799999894,
                    "velocity": 0.2677165354330709,
                    "duration": 0.0663744999999949
                },
                {
                    "name": "C4",
                    "midi": 60,
                    "time": 111.77465799999894,
                    "velocity": 0.2992125984251969,
                    "duration": 0.0663744999999949
                },
                {
                    "name": "C3",
                    "midi": 48,
                    "time": 111.90740699999893,
                    "velocity": 0.2677165354330709,
                    "duration": 0.0663744999999949
                },
                {
                    "name": "F3",
                    "midi": 53,
                    "time": 111.90740699999893,
                    "velocity": 0.2677165354330709,
                    "duration": 0.0663744999999949
                },
                {
                    "name": "C4",
                    "midi": 60,
                    "time": 111.90740699999893,
                    "velocity": 0.2992125984251969,
                    "duration": 0.0663744999999949
                },
                {
                    "name": "C3",
                    "midi": 48,
                    "time": 112.04015599999892,
                    "velocity": 0.28346456692913385,
                    "duration": 0.2654979999999938
                },
                {
                    "name": "D3",
                    "midi": 50,
                    "time": 112.04015599999892,
                    "velocity": 0.28346456692913385,
                    "duration": 0.2654979999999938
                },
                {
                    "name": "C4",
                    "midi": 60,
                    "time": 112.04015599999892,
                    "velocity": 0.31496062992125984,
                    "duration": 0.2654979999999938
                },
                {
                    "name": "E3",
                    "midi": 52,
                    "time": 112.30565399999891,
                    "velocity": 0.2677165354330709,
                    "duration": 0.0663745000000091
                },
                {
                    "name": "C3",
                    "midi": 48,
                    "time": 112.30565399999891,
                    "velocity": 0.2677165354330709,
                    "duration": 0.0663745000000091
                },
                {
                    "name": "C4",
                    "midi": 60,
                    "time": 112.30565399999891,
                    "velocity": 0.2992125984251969,
                    "duration": 0.0663745000000091
                },
                {
                    "name": "E3",
                    "midi": 52,
                    "time": 112.43840299999891,
                    "velocity": 0.2677165354330709,
                    "duration": 0.0663744999999949
                },
                {
                    "name": "C3",
                    "midi": 48,
                    "time": 112.43840299999891,
                    "velocity": 0.2677165354330709,
                    "duration": 0.0663744999999949
                },
                {
                    "name": "C4",
                    "midi": 60,
                    "time": 112.43840299999891,
                    "velocity": 0.2992125984251969,
                    "duration": 0.0663744999999949
                },
                {
                    "name": "F2",
                    "midi": 41,
                    "time": 112.5711519999989,
                    "velocity": 0.5354330708661418,
                    "duration": 0.06582137916666397
                },
                {
                    "name": "F3",
                    "midi": 53,
                    "time": 112.5711519999989,
                    "velocity": 0.5984251968503937,
                    "duration": 0.06582137916666397
                },
                {
                    "name": "F3",
                    "midi": 53,
                    "time": 112.8366499999989,
                    "velocity": 0.5354330708661418,
                    "duration": 0.06582137916666397
                },
                {
                    "name": "C4",
                    "midi": 60,
                    "time": 112.8366499999989,
                    "velocity": 0.5984251968503937,
                    "duration": 0.06582137916666397
                },
                {
                    "name": "C3",
                    "midi": 48,
                    "time": 113.10214799999889,
                    "velocity": 0.28346456692913385,
                    "duration": 0.2654979999999938
                },
                {
                    "name": "A3",
                    "midi": 57,
                    "time": 113.10214799999889,
                    "velocity": 0.28346456692913385,
                    "duration": 0.2654979999999938
                },
                {
                    "name": "C4",
                    "midi": 60,
                    "time": 113.10214799999889,
                    "velocity": 0.31496062992125984,
                    "duration": 0.2654979999999938
                },
                {
                    "name": "C3",
                    "midi": 48,
                    "time": 113.36764599999889,
                    "velocity": 0.2755905511811024,
                    "duration": 0.0663745000000091
                },
                {
                    "name": "A3",
                    "midi": 57,
                    "time": 113.36764599999889,
                    "velocity": 0.2755905511811024,
                    "duration": 0.0663745000000091
                },
                {
                    "name": "C4",
                    "midi": 60,
                    "time": 113.36764599999889,
                    "velocity": 0.30708661417322836,
                    "duration": 0.0663745000000091
                },
                {
                    "name": "C3",
                    "midi": 48,
                    "time": 113.50039499999889,
                    "velocity": 0.2755905511811024,
                    "duration": 0.0663744999999949
                },
                {
                    "name": "A3",
                    "midi": 57,
                    "time": 113.50039499999889,
                    "velocity": 0.2755905511811024,
                    "duration": 0.0663744999999949
                },
                {
                    "name": "C4",
                    "midi": 60,
                    "time": 113.50039499999889,
                    "velocity": 0.30708661417322836,
                    "duration": 0.0663744999999949
                },
                {
                    "name": "C3",
                    "midi": 48,
                    "time": 113.63314399999888,
                    "velocity": 0.28346456692913385,
                    "duration": 0.2654979999999938
                },
                {
                    "name": "G3",
                    "midi": 55,
                    "time": 113.63314399999888,
                    "velocity": 0.28346456692913385,
                    "duration": 0.2654979999999938
                },
                {
                    "name": "C4",
                    "midi": 60,
                    "time": 113.63314399999888,
                    "velocity": 0.31496062992125984,
                    "duration": 0.2654979999999938
                },
                {
                    "name": "C3",
                    "midi": 48,
                    "time": 113.89864199999887,
                    "velocity": 0.2677165354330709,
                    "duration": 0.0663744999999949
                },
                {
                    "name": "F3",
                    "midi": 53,
                    "time": 113.89864199999887,
                    "velocity": 0.2677165354330709,
                    "duration": 0.0663744999999949
                },
                {
                    "name": "C4",
                    "midi": 60,
                    "time": 113.89864199999887,
                    "velocity": 0.2992125984251969,
                    "duration": 0.0663744999999949
                },
                {
                    "name": "C3",
                    "midi": 48,
                    "time": 114.03139099999886,
                    "velocity": 0.2677165354330709,
                    "duration": 0.0663744999999949
                },
                {
                    "name": "F3",
                    "midi": 53,
                    "time": 114.03139099999886,
                    "velocity": 0.2677165354330709,
                    "duration": 0.0663744999999949
                },
                {
                    "name": "C4",
                    "midi": 60,
                    "time": 114.03139099999886,
                    "velocity": 0.2992125984251969,
                    "duration": 0.0663744999999949
                },
                {
                    "name": "C3",
                    "midi": 48,
                    "time": 114.16413999999885,
                    "velocity": 0.28346456692913385,
                    "duration": 0.2654979999999938
                },
                {
                    "name": "D3",
                    "midi": 50,
                    "time": 114.16413999999885,
                    "velocity": 0.28346456692913385,
                    "duration": 0.2654979999999938
                },
                {
                    "name": "C4",
                    "midi": 60,
                    "time": 114.16413999999885,
                    "velocity": 0.31496062992125984,
                    "duration": 0.2654979999999938
                },
                {
                    "name": "E3",
                    "midi": 52,
                    "time": 114.42963799999885,
                    "velocity": 0.2677165354330709,
                    "duration": 0.0663744999999949
                },
                {
                    "name": "C3",
                    "midi": 48,
                    "time": 114.42963799999885,
                    "velocity": 0.2677165354330709,
                    "duration": 0.0663744999999949
                },
                {
                    "name": "C4",
                    "midi": 60,
                    "time": 114.42963799999885,
                    "velocity": 0.2992125984251969,
                    "duration": 0.0663744999999949
                },
                {
                    "name": "E3",
                    "midi": 52,
                    "time": 114.56238699999884,
                    "velocity": 0.2677165354330709,
                    "duration": 0.0663744999999949
                },
                {
                    "name": "C3",
                    "midi": 48,
                    "time": 114.56238699999884,
                    "velocity": 0.2677165354330709,
                    "duration": 0.0663744999999949
                },
                {
                    "name": "C4",
                    "midi": 60,
                    "time": 114.56238699999884,
                    "velocity": 0.2992125984251969,
                    "duration": 0.0663744999999949
                },
                {
                    "name": "F2",
                    "midi": 41,
                    "time": 114.69513599999883,
                    "velocity": 0.5590551181102362,
                    "duration": 0.06582137916666397
                },
                {
                    "name": "F3",
                    "midi": 53,
                    "time": 114.69513599999883,
                    "velocity": 0.6220472440944882,
                    "duration": 0.06582137916666397
                },
                {
                    "name": "F3",
                    "midi": 53,
                    "time": 114.96063399999882,
                    "velocity": 0.5590551181102362,
                    "duration": 0.06582137916666397
                },
                {
                    "name": "C4",
                    "midi": 60,
                    "time": 114.96063399999882,
                    "velocity": 0.6220472440944882,
                    "duration": 0.06582137916666397
                },
                {
                    "name": "C3",
                    "midi": 48,
                    "time": 115.22613199999881,
                    "velocity": 0.28346456692913385,
                    "duration": 0.2654979999999938
                },
                {
                    "name": "D3",
                    "midi": 50,
                    "time": 115.22613199999881,
                    "velocity": 0.28346456692913385,
                    "duration": 0.2654979999999938
                },
                {
                    "name": "C4",
                    "midi": 60,
                    "time": 115.22613199999881,
                    "velocity": 0.31496062992125984,
                    "duration": 0.2654979999999938
                },
                {
                    "name": "E3",
                    "midi": 52,
                    "time": 115.4916299999988,
                    "velocity": 0.2677165354330709,
                    "duration": 0.0663744999999949
                },
                {
                    "name": "C3",
                    "midi": 48,
                    "time": 115.4916299999988,
                    "velocity": 0.2677165354330709,
                    "duration": 0.0663744999999949
                },
                {
                    "name": "C4",
                    "midi": 60,
                    "time": 115.4916299999988,
                    "velocity": 0.2992125984251969,
                    "duration": 0.0663744999999949
                },
                {
                    "name": "E3",
                    "midi": 52,
                    "time": 115.6243789999988,
                    "velocity": 0.2677165354330709,
                    "duration": 0.0663744999999949
                },
                {
                    "name": "C3",
                    "midi": 48,
                    "time": 115.6243789999988,
                    "velocity": 0.2677165354330709,
                    "duration": 0.0663744999999949
                },
                {
                    "name": "C4",
                    "midi": 60,
                    "time": 115.6243789999988,
                    "velocity": 0.2992125984251969,
                    "duration": 0.0663744999999949
                },
                {
                    "name": "F2",
                    "midi": 41,
                    "time": 115.75712799999879,
                    "velocity": 0.5748031496062992,
                    "duration": 0.06582137916666397
                },
                {
                    "name": "F3",
                    "midi": 53,
                    "time": 115.75712799999879,
                    "velocity": 0.6456692913385826,
                    "duration": 0.06582137916666397
                },
                {
                    "name": "F3",
                    "midi": 53,
                    "time": 116.02262599999878,
                    "velocity": 0.5748031496062992,
                    "duration": 0.06582137916666397
                },
                {
                    "name": "C4",
                    "midi": 60,
                    "time": 116.02262599999878,
                    "velocity": 0.6456692913385826,
                    "duration": 0.06582137916666397
                },
                {
                    "name": "C3",
                    "midi": 48,
                    "time": 116.28812399999877,
                    "velocity": 0.28346456692913385,
                    "duration": 0.2654979999999938
                },
                {
                    "name": "D3",
                    "midi": 50,
                    "time": 116.28812399999877,
                    "velocity": 0.28346456692913385,
                    "duration": 0.2654979999999938
                },
                {
                    "name": "C4",
                    "midi": 60,
                    "time": 116.28812399999877,
                    "velocity": 0.31496062992125984,
                    "duration": 0.2654979999999938
                },
                {
                    "name": "E3",
                    "midi": 52,
                    "time": 116.55362199999877,
                    "velocity": 0.2677165354330709,
                    "duration": 0.0663744999999949
                },
                {
                    "name": "C3",
                    "midi": 48,
                    "time": 116.55362199999877,
                    "velocity": 0.2677165354330709,
                    "duration": 0.0663744999999949
                },
                {
                    "name": "C4",
                    "midi": 60,
                    "time": 116.55362199999877,
                    "velocity": 0.2992125984251969,
                    "duration": 0.0663744999999949
                },
                {
                    "name": "E3",
                    "midi": 52,
                    "time": 116.68637099999876,
                    "velocity": 0.2677165354330709,
                    "duration": 0.0663744999999949
                },
                {
                    "name": "C3",
                    "midi": 48,
                    "time": 116.68637099999876,
                    "velocity": 0.2677165354330709,
                    "duration": 0.0663744999999949
                },
                {
                    "name": "C4",
                    "midi": 60,
                    "time": 116.68637099999876,
                    "velocity": 0.2992125984251969,
                    "duration": 0.0663744999999949
                },
                {
                    "name": "F2",
                    "midi": 41,
                    "time": 116.81911999999875,
                    "velocity": 0.5905511811023622,
                    "duration": 0.23894819999999584
                },
                {
                    "name": "F3",
                    "midi": 53,
                    "time": 116.81911999999875,
                    "velocity": 0.6614173228346457,
                    "duration": 0.23894819999999584
                },
                {
                    "name": "F3",
                    "midi": 53,
                    "time": 117.08461799999874,
                    "velocity": 0.6614173228346457,
                    "duration": 0.2654979999999938
                }
            ],
            "controlChanges": {
                "7": [
                    {
                        "number": 7,
                        "time": 0,
                        "value": 0.7874015748031497
                    }
                ],
                "10": [
                    {
                        "number": 10,
                        "time": 0,
                        "value": 0.5039370078740157
                    }
                ],
                "64": [
                    {
                        "number": 64,
                        "time": 0,
                        "value": 1
                    },
                    {
                        "number": 64,
                        "time": 0.26826360416666667,
                        "value": 0
                    },
                    {
                        "number": 64,
                        "time": 0.5934986541666667,
                        "value": 1
                    },
                    {
                        "number": 64,
                        "time": 0.7992596041666667,
                        "value": 0
                    },
                    {
                        "number": 64,
                        "time": 1.1637662333333334,
                        "value": 1
                    },
                    {
                        "number": 64,
                        "time": 1.3512741958333334,
                        "value": 0
                    },
                    {
                        "number": 64,
                        "time": 1.7179933083333334,
                        "value": 1
                    },
                    {
                        "number": 64,
                        "time": 1.861804725,
                        "value": 0
                    },
                    {
                        "number": 64,
                        "time": 2.1627024583333334,
                        "value": 1
                    },
                    {
                        "number": 64,
                        "time": 2.39611945,
                        "value": 0
                    },
                    {
                        "number": 64,
                        "time": 2.7058671166666666,
                        "value": 1
                    },
                    {
                        "number": 64,
                        "time": 2.92711545,
                        "value": 0
                    },
                    {
                        "number": 64,
                        "time": 3.248478654166667,
                        "value": 1
                    },
                    {
                        "number": 64,
                        "time": 3.459217691666667,
                        "value": 0
                    },
                    {
                        "number": 64,
                        "time": 3.7717309625,
                        "value": 1
                    },
                    {
                        "number": 64,
                        "time": 3.990213691666667,
                        "value": 0
                    },
                    {
                        "number": 64,
                        "time": 4.271199075000001,
                        "value": 1
                    },
                    {
                        "number": 64,
                        "time": 4.516784725000001,
                        "value": 0
                    },
                    {
                        "number": 64,
                        "time": 4.822107425000001,
                        "value": 1
                    },
                    {
                        "number": 64,
                        "time": 5.052205691666668,
                        "value": 0
                    },
                    {
                        "number": 64,
                        "time": 5.3354035583333355,
                        "value": 1
                    },
                    {
                        "number": 64,
                        "time": 5.584861054166669,
                        "value": 0
                    },
                    {
                        "number": 64,
                        "time": 5.88022757916667,
                        "value": 1
                    },
                    {
                        "number": 64,
                        "time": 6.116963295833337,
                        "value": 0
                    },
                    {
                        "number": 64,
                        "time": 6.418967270833337,
                        "value": 1
                    },
                    {
                        "number": 64,
                        "time": 6.64851241666667,
                        "value": 0
                    },
                    {
                        "number": 64,
                        "time": 6.938347733333337,
                        "value": 1
                    },
                    {
                        "number": 64,
                        "time": 7.178955295833338,
                        "value": 0
                    },
                    {
                        "number": 64,
                        "time": 7.738713579166672,
                        "value": 1
                    },
                    {
                        "number": 64,
                        "time": 8.769730812500008,
                        "value": 0
                    },
                    {
                        "number": 64,
                        "time": 8.86320823333334,
                        "value": 1
                    },
                    {
                        "number": 64,
                        "time": 9.29464248333334,
                        "value": 0
                    },
                    {
                        "number": 64,
                        "time": 9.63149307083334,
                        "value": 1
                    },
                    {
                        "number": 64,
                        "time": 9.826744725000006,
                        "value": 0
                    },
                    {
                        "number": 64,
                        "time": 10.153086016666673,
                        "value": 1
                    },
                    {
                        "number": 64,
                        "time": 10.226651087500006,
                        "value": 0
                    },
                    {
                        "number": 64,
                        "time": 11.264305770833342,
                        "value": 1
                    },
                    {
                        "number": 64,
                        "time": 11.424157691666675,
                        "value": 0
                    },
                    {
                        "number": 64,
                        "time": 11.752158345833342,
                        "value": 1
                    },
                    {
                        "number": 64,
                        "time": 11.949622483333341,
                        "value": 0
                    },
                    {
                        "number": 64,
                        "time": 12.271538808333341,
                        "value": 1
                    },
                    {
                        "number": 64,
                        "time": 12.49002153750001,
                        "value": 0
                    },
                    {
                        "number": 64,
                        "time": 12.81027850000001,
                        "value": 1
                    },
                    {
                        "number": 64,
                        "time": 13.021017537500011,
                        "value": 0
                    },
                    {
                        "number": 64,
                        "time": 13.330765204166678,
                        "value": 1
                    },
                    {
                        "number": 64,
                        "time": 13.553672900000011,
                        "value": 0
                    },
                    {
                        "number": 64,
                        "time": 13.880014191666678,
                        "value": 1
                    },
                    {
                        "number": 64,
                        "time": 14.082456416666679,
                        "value": 0
                    },
                    {
                        "number": 64,
                        "time": 14.438666233333347,
                        "value": 1
                    },
                    {
                        "number": 64,
                        "time": 14.606261845833348,
                        "value": 0
                    },
                    {
                        "number": 64,
                        "time": 14.977405925000015,
                        "value": 1
                    },
                    {
                        "number": 64,
                        "time": 15.135598483333348,
                        "value": 0
                    },
                    {
                        "number": 64,
                        "time": 15.467470983333348,
                        "value": 1
                    },
                    {
                        "number": 64,
                        "time": 15.668253845833348,
                        "value": 0
                    },
                    {
                        "number": 64,
                        "time": 16.039397925000014,
                        "value": 1
                    },
                    {
                        "number": 64,
                        "time": 16.199249845833346,
                        "value": 0
                    },
                    {
                        "number": 64,
                        "time": 16.543291004166676,
                        "value": 1
                    },
                    {
                        "number": 64,
                        "time": 16.733564570833344,
                        "value": 0
                    },
                    {
                        "number": 64,
                        "time": 17.042759116666673,
                        "value": 1
                    },
                    {
                        "number": 64,
                        "time": 17.26124184583334,
                        "value": 0
                    },
                    {
                        "number": 64,
                        "time": 17.609154850000003,
                        "value": 1
                    },
                    {
                        "number": 64,
                        "time": 17.793344087500003,
                        "value": 0
                    },
                    {
                        "number": 64,
                        "time": 18.093135579166663,
                        "value": 1
                    },
                    {
                        "number": 64,
                        "time": 18.324340087499998,
                        "value": 0
                    },
                    {
                        "number": 64,
                        "time": 18.96761961666666,
                        "value": 1
                    },
                    {
                        "number": 64,
                        "time": 19.918987449999996,
                        "value": 0
                    },
                    {
                        "number": 64,
                        "time": 20.01412423333333,
                        "value": 1
                    },
                    {
                        "number": 64,
                        "time": 20.446111604166664,
                        "value": 0
                    },
                    {
                        "number": 64,
                        "time": 20.792918366666658,
                        "value": 1
                    },
                    {
                        "number": 64,
                        "time": 20.977660724999993,
                        "value": 0
                    },
                    {
                        "number": 64,
                        "time": 21.281324062499987,
                        "value": 1
                    },
                    {
                        "number": 64,
                        "time": 21.400245041666654,
                        "value": 0
                    },
                    {
                        "number": 64,
                        "time": 22.35659096249999,
                        "value": 1
                    },
                    {
                        "number": 64,
                        "time": 22.570095604166656,
                        "value": 0
                    },
                    {
                        "number": 64,
                        "time": 22.910818037499986,
                        "value": 1
                    },
                    {
                        "number": 64,
                        "time": 23.106069691666654,
                        "value": 0
                    },
                    {
                        "number": 64,
                        "time": 23.392586283333316,
                        "value": 1
                    },
                    {
                        "number": 64,
                        "time": 23.62213142916665,
                        "value": 0
                    },
                    {
                        "number": 64,
                        "time": 24.461768854166642,
                        "value": 1
                    },
                    {
                        "number": 64,
                        "time": 24.697398329166642,
                        "value": 0
                    },
                    {
                        "number": 64,
                        "time": 25.51878276666664,
                        "value": 1
                    },
                    {
                        "number": 64,
                        "time": 25.756624724999973,
                        "value": 0
                    },
                    {
                        "number": 64,
                        "time": 26.065819270833302,
                        "value": 1
                    },
                    {
                        "number": 64,
                        "time": 26.287620724999968,
                        "value": 0
                    },
                    {
                        "number": 64,
                        "time": 26.57137171249996,
                        "value": 1
                    },
                    {
                        "number": 64,
                        "time": 26.82193544999996,
                        "value": 0
                    },
                    {
                        "number": 64,
                        "time": 27.65106357916662,
                        "value": 1
                    },
                    {
                        "number": 64,
                        "time": 27.883927449999955,
                        "value": 0
                    },
                    {
                        "number": 64,
                        "time": 43.03999140416661,
                        "value": 1
                    },
                    {
                        "number": 64,
                        "time": 43.28778953749994,
                        "value": 0
                    },
                    {
                        "number": 64,
                        "time": 45.17171909583327,
                        "value": 1
                    },
                    {
                        "number": 64,
                        "time": 45.4095610541666,
                        "value": 0
                    },
                    {
                        "number": 64,
                        "time": 46.22983924999993,
                        "value": 1
                    },
                    {
                        "number": 64,
                        "time": 46.47542489999993,
                        "value": 0
                    },
                    {
                        "number": 64,
                        "time": 51.022631270833244,
                        "value": 1
                    },
                    {
                        "number": 64,
                        "time": 51.24498584583324,
                        "value": 0
                    },
                    {
                        "number": 64,
                        "time": 51.576858345833244,
                        "value": 1
                    },
                    {
                        "number": 64,
                        "time": 51.77985369166658,
                        "value": 0
                    },
                    {
                        "number": 64,
                        "time": 52.111726191666584,
                        "value": 1
                    },
                    {
                        "number": 64,
                        "time": 52.31084969166658,
                        "value": 0
                    },
                    {
                        "number": 64,
                        "time": 52.67037823333325,
                        "value": 1
                    },
                    {
                        "number": 64,
                        "time": 52.84295193333325,
                        "value": 0
                    },
                    {
                        "number": 64,
                        "time": 53.13831845833325,
                        "value": 1
                    },
                    {
                        "number": 64,
                        "time": 53.37671353749992,
                        "value": 0
                    },
                    {
                        "number": 64,
                        "time": 53.68922680833326,
                        "value": 1
                    },
                    {
                        "number": 64,
                        "time": 53.90328457083326,
                        "value": 0
                    },
                    {
                        "number": 64,
                        "time": 54.20860727083326,
                        "value": 1
                    },
                    {
                        "number": 64,
                        "time": 54.43040872499993,
                        "value": 0
                    },
                    {
                        "number": 64,
                        "time": 54.77887484999994,
                        "value": 1
                    },
                    {
                        "number": 64,
                        "time": 54.96361720833327,
                        "value": 0
                    },
                    {
                        "number": 64,
                        "time": 55.262302458333274,
                        "value": 1
                    },
                    {
                        "number": 64,
                        "time": 55.49406008749994,
                        "value": 0
                    },
                    {
                        "number": 64,
                        "time": 55.85635423333328,
                        "value": 1
                    },
                    {
                        "number": 64,
                        "time": 56.02394984583327,
                        "value": 0
                    },
                    {
                        "number": 64,
                        "time": 56.355269224999944,
                        "value": 1
                    },
                    {
                        "number": 64,
                        "time": 56.55715832916661,
                        "value": 0
                    },
                    {
                        "number": 64,
                        "time": 56.90285884999995,
                        "value": 1
                    },
                    {
                        "number": 64,
                        "time": 57.09257929583328,
                        "value": 0
                    },
                    {
                        "number": 64,
                        "time": 57.429429883333285,
                        "value": 1
                    },
                    {
                        "number": 64,
                        "time": 57.62246905416662,
                        "value": 0
                    },
                    {
                        "number": 64,
                        "time": 57.925579270833296,
                        "value": 1
                    },
                    {
                        "number": 64,
                        "time": 58.15069944999996,
                        "value": 0
                    },
                    {
                        "number": 64,
                        "time": 58.763557333333296,
                        "value": 1
                    },
                    {
                        "number": 64,
                        "time": 59.74479369166661,
                        "value": 0
                    },
                    {
                        "number": 64,
                        "time": 59.83827111249994,
                        "value": 1
                    },
                    {
                        "number": 64,
                        "time": 60.275236570833265,
                        "value": 0
                    },
                    {
                        "number": 64,
                        "time": 60.5512438666666,
                        "value": 1
                    },
                    {
                        "number": 64,
                        "time": 60.800148241666605,
                        "value": 0
                    },
                    {
                        "number": 64,
                        "time": 61.08279298749994,
                        "value": 1
                    },
                    {
                        "number": 64,
                        "time": 61.174611045833274,
                        "value": 0
                    },
                    {
                        "number": 64,
                        "time": 63.18852399999992,
                        "value": 1
                    },
                    {
                        "number": 64,
                        "time": 63.457893845833254,
                        "value": 0
                    },
                    {
                        "number": 64,
                        "time": 63.77427896249993,
                        "value": 1
                    },
                    {
                        "number": 64,
                        "time": 63.987783604166594,
                        "value": 0
                    },
                    {
                        "number": 64,
                        "time": 64.31301865416658,
                        "value": 1
                    },
                    {
                        "number": 64,
                        "time": 64.51988584583324,
                        "value": 0
                    },
                    {
                        "number": 64,
                        "time": 65.35454518333322,
                        "value": 1
                    },
                    {
                        "number": 64,
                        "time": 65.57468727499989,
                        "value": 0
                    },
                    {
                        "number": 64,
                        "time": 65.9021348083332,
                        "value": 1
                    },
                    {
                        "number": 64,
                        "time": 66.11287384583319,
                        "value": 0
                    },
                    {
                        "number": 64,
                        "time": 66.41377157916651,
                        "value": 1
                    },
                    {
                        "number": 64,
                        "time": 66.6361261541665,
                        "value": 0
                    },
                    {
                        "number": 64,
                        "time": 67.47576357916647,
                        "value": 1
                    },
                    {
                        "number": 64,
                        "time": 67.70807432916646,
                        "value": 0
                    },
                    {
                        "number": 64,
                        "time": 68.49848399999976,
                        "value": 1
                    },
                    {
                        "number": 64,
                        "time": 68.77172569166642,
                        "value": 0
                    },
                    {
                        "number": 64,
                        "time": 69.02947999999974,
                        "value": 1
                    },
                    {
                        "number": 64,
                        "time": 69.56047599999972,
                        "value": 0
                    },
                    {
                        "number": 64,
                        "time": 70.09147199999973,
                        "value": 1
                    },
                    {
                        "number": 64,
                        "time": 70.36084184583305,
                        "value": 0
                    },
                    {
                        "number": 64,
                        "time": 70.66948327083303,
                        "value": 1
                    },
                    {
                        "number": 64,
                        "time": 70.8912847249997,
                        "value": 0
                    },
                    {
                        "number": 64,
                        "time": 71.18222628333301,
                        "value": 1
                    },
                    {
                        "number": 64,
                        "time": 71.42615257083301,
                        "value": 0
                    },
                    {
                        "number": 64,
                        "time": 72.21545599999966,
                        "value": 1
                    },
                    {
                        "number": 64,
                        "time": 72.48593208749966,
                        "value": 0
                    },
                    {
                        "number": 64,
                        "time": 73.27744799999965,
                        "value": 1
                    },
                    {
                        "number": 64,
                        "time": 73.54681784583298,
                        "value": 0
                    },
                    {
                        "number": 64,
                        "time": 73.85545927083295,
                        "value": 1
                    },
                    {
                        "number": 64,
                        "time": 74.07726072499962,
                        "value": 0
                    },
                    {
                        "number": 64,
                        "time": 74.37539285416626,
                        "value": 1
                    },
                    {
                        "number": 64,
                        "time": 74.61212857083292,
                        "value": 0
                    },
                    {
                        "number": 64,
                        "time": 75.44457542499957,
                        "value": 1
                    },
                    {
                        "number": 64,
                        "time": 75.67467369166623,
                        "value": 0
                    },
                    {
                        "number": 64,
                        "time": 90.82575955833258,
                        "value": 1
                    },
                    {
                        "number": 64,
                        "time": 91.07189832916592,
                        "value": 0
                    },
                    {
                        "number": 64,
                        "time": 92.9519560416659,
                        "value": 1
                    },
                    {
                        "number": 64,
                        "time": 93.1958823291659,
                        "value": 0
                    },
                    {
                        "number": 64,
                        "time": 94.01394804166587,
                        "value": 1
                    },
                    {
                        "number": 64,
                        "time": 94.25566184583253,
                        "value": 0
                    },
                    {
                        "number": 64,
                        "time": 98.83550234583248,
                        "value": 1
                    },
                    {
                        "number": 64,
                        "time": 99.03462584583248,
                        "value": 0
                    },
                    {
                        "number": 64,
                        "time": 99.33939542499913,
                        "value": 1
                    },
                    {
                        "number": 64,
                        "time": 99.56783432916579,
                        "value": 0
                    },
                    {
                        "number": 64,
                        "time": 99.89749434583244,
                        "value": 1
                    },
                    {
                        "number": 64,
                        "time": 100.09827720833245,
                        "value": 0
                    },
                    {
                        "number": 64,
                        "time": 100.42849034583246,
                        "value": 1
                    },
                    {
                        "number": 64,
                        "time": 100.63535753749913,
                        "value": 0
                    },
                    {
                        "number": 64,
                        "time": 100.94178647916578,
                        "value": 1
                    },
                    {
                        "number": 64,
                        "time": 101.16137544999911,
                        "value": 0
                    },
                    {
                        "number": 64,
                        "time": 101.47112311666577,
                        "value": 1
                    },
                    {
                        "number": 64,
                        "time": 101.69347769166576,
                        "value": 0
                    },
                    {
                        "number": 64,
                        "time": 102.00211911666575,
                        "value": 1
                    },
                    {
                        "number": 64,
                        "time": 102.22060184583242,
                        "value": 0
                    },
                    {
                        "number": 64,
                        "time": 102.55634619166574,
                        "value": 1
                    },
                    {
                        "number": 64,
                        "time": 102.75381032916574,
                        "value": 0
                    },
                    {
                        "number": 64,
                        "time": 103.04807061249906,
                        "value": 1
                    },
                    {
                        "number": 64,
                        "time": 103.28204072499906,
                        "value": 0
                    },
                    {
                        "number": 64,
                        "time": 103.59897896249905,
                        "value": 1
                    },
                    {
                        "number": 64,
                        "time": 103.81580232916572,
                        "value": 0
                    },
                    {
                        "number": 64,
                        "time": 104.10397828333237,
                        "value": 1
                    },
                    {
                        "number": 64,
                        "time": 104.35011705416571,
                        "value": 0
                    },
                    {
                        "number": 64,
                        "time": 104.65322727083235,
                        "value": 1
                    },
                    {
                        "number": 64,
                        "time": 104.88221929583234,
                        "value": 0
                    },
                    {
                        "number": 64,
                        "time": 105.13720799999899,
                        "value": 1
                    },
                    {
                        "number": 64,
                        "time": 105.40657784583232,
                        "value": 0
                    },
                    {
                        "number": 64,
                        "time": 105.69973188749897,
                        "value": 1
                    },
                    {
                        "number": 64,
                        "time": 105.94144569166563,
                        "value": 0
                    },
                    {
                        "number": 64,
                        "time": 106.49622588749895,
                        "value": 1
                    },
                    {
                        "number": 64,
                        "time": 107.53277432916565,
                        "value": 0
                    },
                    {
                        "number": 64,
                        "time": 107.62791111249898,
                        "value": 1
                    },
                    {
                        "number": 64,
                        "time": 108.05989848333232,
                        "value": 0
                    },
                    {
                        "number": 64,
                        "time": 108.32318399999897,
                        "value": 1
                    },
                    {
                        "number": 64,
                        "time": 108.59476632916564,
                        "value": 0
                    },
                    {
                        "number": 64,
                        "time": 108.90008902916561,
                        "value": 1
                    },
                    {
                        "number": 64,
                        "time": 108.98692899999895,
                        "value": 0
                    },
                    {
                        "number": 64,
                        "time": 110.97816399999896,
                        "value": 1
                    },
                    {
                        "number": 64,
                        "time": 111.24919320833229,
                        "value": 0
                    },
                    {
                        "number": 64,
                        "time": 111.50915999999894,
                        "value": 1
                    },
                    {
                        "number": 64,
                        "time": 111.7790829666656,
                        "value": 0
                    },
                    {
                        "number": 64,
                        "time": 112.04015599999892,
                        "value": 1
                    },
                    {
                        "number": 64,
                        "time": 112.31063208749892,
                        "value": 0
                    },
                    {
                        "number": 64,
                        "time": 113.10214799999889,
                        "value": 1
                    },
                    {
                        "number": 64,
                        "time": 113.37262408749889,
                        "value": 0
                    },
                    {
                        "number": 64,
                        "time": 113.63314399999888,
                        "value": 1
                    },
                    {
                        "number": 64,
                        "time": 113.9091512958322,
                        "value": 0
                    },
                    {
                        "number": 64,
                        "time": 114.16413999999885,
                        "value": 1
                    },
                    {
                        "number": 64,
                        "time": 114.43738169166551,
                        "value": 0
                    },
                    {
                        "number": 64,
                        "time": 115.26540357916548,
                        "value": 1
                    },
                    {
                        "number": 64,
                        "time": 115.49937369166547,
                        "value": 0
                    },
                    {
                        "number": 64,
                        "time": 116.28812399999877,
                        "value": 1
                    },
                    {
                        "number": 64,
                        "time": 116.56357817499877,
                        "value": 0
                    },
                    {
                        "number": 64,
                        "time": 116.87830392916541,
                        "value": 1
                    },
                    {
                        "number": 64,
                        "time": 117.2881664666654,
                        "value": 0
                    }
                ],
                "91": [
                    {
                        "number": 91,
                        "time": 0,
                        "value": 1
                    }
                ]
            },
            "id": 2,
            "name": "Piano left",
            "instrumentNumber": 0,
            "instrument": "acoustic grand piano",
            "instrumentFamily": "piano",
            "channelNumber": 0,
            "isPercussion": false
        },
        {
            "startTime": 0,
            "duration": 0,
            "length": 0,
            "notes": [],
            "controlChanges": {},
            "id": 3,
            "name": "Schubert: Moment Musicau No.5 in F-, Op. 94 - D 780"
        },
        {
            "startTime": 0,
            "duration": 0,
            "length": 0,
            "notes": [],
            "controlChanges": {},
            "id": 4,
            "name": "Copyright  1997 by Bernd Krueger"
        },
        {
            "startTime": 0,
            "duration": 0,
            "length": 0,
            "notes": [],
            "controlChanges": {},
            "id": 5,
            "name": "http://www.piano-midi.de"
        },
        {
            "startTime": 0,
            "duration": 0,
            "length": 0,
            "notes": [],
            "controlChanges": {},
            "id": 6,
            "name": "Edition: 2014-03-16"
        }
    ]
}