{
    "header": {
        "PPQ": 480,
        "timeSignature": [
            3,
            4
        ],
        "bpm": 154.99990958338608,
        "name": "Schubert: Sonata D850, 3. movement"
    },
    "startTime": 0,
    "duration": 546.1938670000122,
    "tracks": [
        {
            "startTime": 0,
            "duration": 0,
            "length": 0,
            "notes": [],
            "controlChanges": {},
            "id": 0,
            "name": "Schubert: Sonata D850, 3. movement"
        },
        {
            "startTime": 0.29032274999999996,
            "duration": 546.1938670000085,
            "length": 3868,
            "notes": [
                {
                    "name": "A3",
                    "midi": 57,
                    "time": 0.29032274999999996,
                    "velocity": 0.4645669291338583,
                    "duration": 0.048387124999999975
                },
                {
                    "name": "C#4",
                    "midi": 61,
                    "time": 0.29032274999999996,
                    "velocity": 0.5511811023622047,
                    "duration": 0.048387124999999975
                },
                {
                    "name": "G3",
                    "midi": 55,
                    "time": 0.29032274999999996,
                    "velocity": 0.4645669291338583,
                    "duration": 0.048387124999999975
                },
                {
                    "name": "C#4",
                    "midi": 61,
                    "time": 0.3870969999999999,
                    "velocity": 0.5984251968503937,
                    "duration": 0.29032274999999996
                },
                {
                    "name": "G3",
                    "midi": 55,
                    "time": 0.3870969999999999,
                    "velocity": 0.5039370078740157,
                    "duration": 0.29032274999999996
                },
                {
                    "name": "A3",
                    "midi": 57,
                    "time": 0.3870969999999999,
                    "velocity": 0.5039370078740157,
                    "duration": 0.29032274999999996
                },
                {
                    "name": "G3",
                    "midi": 55,
                    "time": 0.6774197499999999,
                    "velocity": 0.4645669291338583,
                    "duration": 0.048387124999999975
                },
                {
                    "name": "C#4",
                    "midi": 61,
                    "time": 0.6774197499999999,
                    "velocity": 0.5511811023622047,
                    "duration": 0.048387124999999975
                },
                {
                    "name": "A3",
                    "midi": 57,
                    "time": 0.6774197499999999,
                    "velocity": 0.4645669291338583,
                    "duration": 0.048387124999999975
                },
                {
                    "name": "G3",
                    "midi": 55,
                    "time": 0.7741939999999998,
                    "velocity": 0.49606299212598426,
                    "duration": 0.29032274999999985
                },
                {
                    "name": "D4",
                    "midi": 62,
                    "time": 0.7741939999999998,
                    "velocity": 0.5905511811023622,
                    "duration": 0.29032274999999985
                },
                {
                    "name": "A3",
                    "midi": 57,
                    "time": 0.7741939999999998,
                    "velocity": 0.49606299212598426,
                    "duration": 0.29032274999999985
                },
                {
                    "name": "A3",
                    "midi": 57,
                    "time": 1.0645167499999997,
                    "velocity": 0.4645669291338583,
                    "duration": 0.048387125000000086
                },
                {
                    "name": "G3",
                    "midi": 55,
                    "time": 1.0645167499999997,
                    "velocity": 0.4645669291338583,
                    "duration": 0.048387125000000086
                },
                {
                    "name": "E4",
                    "midi": 64,
                    "time": 1.0645167499999997,
                    "velocity": 0.5511811023622047,
                    "duration": 0.048387125000000086
                },
                {
                    "name": "F#3",
                    "midi": 54,
                    "time": 1.1612909999999999,
                    "velocity": 0.5354330708661418,
                    "duration": 0.7508068895833333
                },
                {
                    "name": "A3",
                    "midi": 57,
                    "time": 1.1612909999999999,
                    "velocity": 0.5354330708661418,
                    "duration": 0.7508068895833333
                },
                {
                    "name": "F#4",
                    "midi": 66,
                    "time": 1.1612909999999999,
                    "velocity": 0.6299212598425197,
                    "duration": 0.7508068895833333
                },
                {
                    "name": "D4",
                    "midi": 62,
                    "time": 1.1612909999999999,
                    "velocity": 0.5354330708661418,
                    "duration": 0.7508068895833333
                },
                {
                    "name": "A3",
                    "midi": 57,
                    "time": 1.935485,
                    "velocity": 0.5354330708661418,
                    "duration": 0.6572584479166665
                },
                {
                    "name": "F#3",
                    "midi": 54,
                    "time": 1.935485,
                    "velocity": 0.5354330708661418,
                    "duration": 0.6572584479166665
                },
                {
                    "name": "F#4",
                    "midi": 66,
                    "time": 1.935485,
                    "velocity": 0.6299212598425197,
                    "duration": 0.6572584479166665
                },
                {
                    "name": "D4",
                    "midi": 62,
                    "time": 1.935485,
                    "velocity": 0.5354330708661418,
                    "duration": 0.6572584479166665
                },
                {
                    "name": "F#4",
                    "midi": 66,
                    "time": 2.6129047499999998,
                    "velocity": 0.5275590551181102,
                    "duration": 0.09677425000000017
                },
                {
                    "name": "G4",
                    "midi": 67,
                    "time": 2.709679,
                    "velocity": 0.5905511811023622,
                    "duration": 0.2903227500000001
                },
                {
                    "name": "A3",
                    "midi": 57,
                    "time": 2.709679,
                    "velocity": 0.5196850393700787,
                    "duration": 0.3758066708333332
                },
                {
                    "name": "F#4",
                    "midi": 66,
                    "time": 3.00000175,
                    "velocity": 0.5511811023622047,
                    "duration": 0.09677424999999973
                },
                {
                    "name": "E4",
                    "midi": 64,
                    "time": 3.0967759999999998,
                    "velocity": 0.5826771653543307,
                    "duration": 0.09677425000000017
                },
                {
                    "name": "A3",
                    "midi": 57,
                    "time": 3.0967759999999998,
                    "velocity": 0.5196850393700787,
                    "duration": 0.37580667083333363
                },
                {
                    "name": "F#4",
                    "midi": 66,
                    "time": 3.19355025,
                    "velocity": 0.5196850393700787,
                    "duration": 0.09677425000000017
                },
                {
                    "name": "E4",
                    "midi": 64,
                    "time": 3.2903245,
                    "velocity": 0.5196850393700787,
                    "duration": 0.09677425000000017
                },
                {
                    "name": "D4",
                    "midi": 62,
                    "time": 3.3870987500000003,
                    "velocity": 0.5511811023622047,
                    "duration": 0.09677424999999973
                },
                {
                    "name": "A4",
                    "midi": 69,
                    "time": 3.483873,
                    "velocity": 0.6299212598425197,
                    "duration": 0.7508068895833331
                },
                {
                    "name": "A3",
                    "midi": 57,
                    "time": 3.483873,
                    "velocity": 0.5354330708661418,
                    "duration": 0.7508068895833331
                },
                {
                    "name": "E4",
                    "midi": 64,
                    "time": 3.483873,
                    "velocity": 0.5354330708661418,
                    "duration": 0.7508068895833331
                },
                {
                    "name": "A3",
                    "midi": 57,
                    "time": 4.258067,
                    "velocity": 0.5354330708661418,
                    "duration": 0.657258447916667
                },
                {
                    "name": "A4",
                    "midi": 69,
                    "time": 4.258067,
                    "velocity": 0.6299212598425197,
                    "duration": 0.657258447916667
                },
                {
                    "name": "E4",
                    "midi": 64,
                    "time": 4.258067,
                    "velocity": 0.5354330708661418,
                    "duration": 0.657258447916667
                },
                {
                    "name": "A4",
                    "midi": 69,
                    "time": 4.93548675,
                    "velocity": 0.5275590551181102,
                    "duration": 0.09677425000000017
                },
                {
                    "name": "B4",
                    "midi": 71,
                    "time": 5.032261,
                    "velocity": 0.5905511811023622,
                    "duration": 0.09677425000000017
                },
                {
                    "name": "E4",
                    "midi": 64,
                    "time": 5.032261,
                    "velocity": 0.5196850393700787,
                    "duration": 0.37580667083333363
                },
                {
                    "name": "C#5",
                    "midi": 73,
                    "time": 5.12903525,
                    "velocity": 0.5196850393700787,
                    "duration": 0.09677425000000017
                },
                {
                    "name": "B4",
                    "midi": 71,
                    "time": 5.2258095,
                    "velocity": 0.5354330708661418,
                    "duration": 0.09677425000000017
                },
                {
                    "name": "A4",
                    "midi": 69,
                    "time": 5.322583750000001,
                    "velocity": 0.5511811023622047,
                    "duration": 0.09677425000000017
                },
                {
                    "name": "E4",
                    "midi": 64,
                    "time": 5.419358000000001,
                    "velocity": 0.5196850393700787,
                    "duration": 0.3870969999999998
                },
                {
                    "name": "B4",
                    "midi": 71,
                    "time": 5.419358000000001,
                    "velocity": 0.5826771653543307,
                    "duration": 0.29032274999999963
                },
                {
                    "name": "C#5",
                    "midi": 73,
                    "time": 5.70968075,
                    "velocity": 0.5511811023622047,
                    "duration": 0.09677425000000017
                },
                {
                    "name": "F#4",
                    "midi": 66,
                    "time": 5.806455000000001,
                    "velocity": 0.5354330708661418,
                    "duration": 0.7508068895833331
                },
                {
                    "name": "B4",
                    "midi": 71,
                    "time": 5.806455000000001,
                    "velocity": 0.5354330708661418,
                    "duration": 0.7508068895833331
                },
                {
                    "name": "D4",
                    "midi": 62,
                    "time": 5.806455000000001,
                    "velocity": 0.5354330708661418,
                    "duration": 0.7508068895833331
                },
                {
                    "name": "D5",
                    "midi": 74,
                    "time": 5.806455000000001,
                    "velocity": 0.6299212598425197,
                    "duration": 0.7508068895833331
                },
                {
                    "name": "D4",
                    "midi": 62,
                    "time": 6.580649,
                    "velocity": 0.5354330708661418,
                    "duration": 0.5725809791666663
                },
                {
                    "name": "F#4",
                    "midi": 66,
                    "time": 6.580649,
                    "velocity": 0.5354330708661418,
                    "duration": 0.5725809791666663
                },
                {
                    "name": "D5",
                    "midi": 74,
                    "time": 6.580649,
                    "velocity": 0.6299212598425197,
                    "duration": 0.5725809791666663
                },
                {
                    "name": "B4",
                    "midi": 71,
                    "time": 6.580649,
                    "velocity": 0.5354330708661418,
                    "duration": 0.5725809791666663
                },
                {
                    "name": "G#4",
                    "midi": 68,
                    "time": 7.1612944999999995,
                    "velocity": 0.49606299212598426,
                    "duration": 0.09677425000000017
                },
                {
                    "name": "D5",
                    "midi": 74,
                    "time": 7.1612944999999995,
                    "velocity": 0.5905511811023622,
                    "duration": 0.09677425000000017
                },
                {
                    "name": "G#4",
                    "midi": 68,
                    "time": 7.354843,
                    "velocity": 0.5354330708661418,
                    "duration": 0.09677425000000017
                },
                {
                    "name": "D5",
                    "midi": 74,
                    "time": 7.354843,
                    "velocity": 0.6299212598425197,
                    "duration": 0.09677425000000017
                },
                {
                    "name": "D5",
                    "midi": 74,
                    "time": 7.5483915,
                    "velocity": 0.6220472440944882,
                    "duration": 0.09677425000000017
                },
                {
                    "name": "G#4",
                    "midi": 68,
                    "time": 7.5483915,
                    "velocity": 0.5275590551181102,
                    "duration": 0.09677425000000017
                },
                {
                    "name": "E5",
                    "midi": 76,
                    "time": 7.5483915,
                    "velocity": 0.6220472440944882,
                    "duration": 0.09677425000000017
                },
                {
                    "name": "G#4",
                    "midi": 68,
                    "time": 7.7419400000000005,
                    "velocity": 0.5511811023622047,
                    "duration": 0.09677425000000017
                },
                {
                    "name": "D5",
                    "midi": 74,
                    "time": 7.7419400000000005,
                    "velocity": 0.5511811023622047,
                    "duration": 0.09677425000000017
                },
                {
                    "name": "F#5",
                    "midi": 78,
                    "time": 7.7419400000000005,
                    "velocity": 0.6535433070866141,
                    "duration": 0.09677425000000017
                },
                {
                    "name": "G#4",
                    "midi": 68,
                    "time": 7.935488500000001,
                    "velocity": 0.5748031496062992,
                    "duration": 0.09677425000000017
                },
                {
                    "name": "D5",
                    "midi": 74,
                    "time": 7.935488500000001,
                    "velocity": 0.5748031496062992,
                    "duration": 0.09677425000000017
                },
                {
                    "name": "G#5",
                    "midi": 80,
                    "time": 7.935488500000001,
                    "velocity": 0.6771653543307087,
                    "duration": 0.09677425000000017
                },
                {
                    "name": "A4",
                    "midi": 69,
                    "time": 8.129037,
                    "velocity": 0.5984251968503937,
                    "duration": 0.750806889583334
                },
                {
                    "name": "C#5",
                    "midi": 73,
                    "time": 8.129037,
                    "velocity": 0.5984251968503937,
                    "duration": 0.750806889583334
                },
                {
                    "name": "A5",
                    "midi": 81,
                    "time": 8.129037,
                    "velocity": 0.7086614173228346,
                    "duration": 0.750806889583334
                },
                {
                    "name": "A3",
                    "midi": 57,
                    "time": 8.903231000000002,
                    "velocity": 0.5748031496062992,
                    "duration": 0.7741939999999996
                },
                {
                    "name": "C#4",
                    "midi": 61,
                    "time": 8.903231000000002,
                    "velocity": 0.5748031496062992,
                    "duration": 0.7741939999999996
                },
                {
                    "name": "A4",
                    "midi": 69,
                    "time": 8.903231000000002,
                    "velocity": 0.6850393700787402,
                    "duration": 0.7741939999999996
                },
                {
                    "name": "A5",
                    "midi": 81,
                    "time": 9.677425000000001,
                    "velocity": 0.48031496062992124,
                    "duration": 0.3870970000000007
                },
                {
                    "name": "A#5",
                    "midi": 82,
                    "time": 10.064522000000002,
                    "velocity": 0.4566929133858268,
                    "duration": 0.3870970000000007
                },
                {
                    "name": "B5",
                    "midi": 83,
                    "time": 10.451619000000003,
                    "velocity": 0.4881889763779528,
                    "duration": 0.12903233333333297
                },
                {
                    "name": "A#5",
                    "midi": 82,
                    "time": 10.580651333333336,
                    "velocity": 0.44881889763779526,
                    "duration": 0.12903233333333297
                },
                {
                    "name": "B5",
                    "midi": 83,
                    "time": 10.709683666666669,
                    "velocity": 0.44881889763779526,
                    "duration": 0.12903233333333297
                },
                {
                    "name": "E6",
                    "midi": 88,
                    "time": 10.838716000000002,
                    "velocity": 0.49606299212598426,
                    "duration": 0.12903233333333297
                },
                {
                    "name": "D#6",
                    "midi": 87,
                    "time": 10.967748333333335,
                    "velocity": 0.48031496062992124,
                    "duration": 0.12903233333333297
                },
                {
                    "name": "E6",
                    "midi": 88,
                    "time": 11.096780666666668,
                    "velocity": 0.5118110236220472,
                    "duration": 0.12903233333333297
                },
                {
                    "name": "G6",
                    "midi": 91,
                    "time": 11.225813,
                    "velocity": 0.5511811023622047,
                    "duration": 0.6774197500000003
                },
                {
                    "name": "F#6",
                    "midi": 90,
                    "time": 11.90323275,
                    "velocity": 0.48031496062992124,
                    "duration": 0.09677424999999928
                },
                {
                    "name": "E6",
                    "midi": 88,
                    "time": 12.000007,
                    "velocity": 0.5433070866141733,
                    "duration": 0.29032274999999963
                },
                {
                    "name": "D6",
                    "midi": 86,
                    "time": 12.29032975,
                    "velocity": 0.4881889763779528,
                    "duration": 0.09677424999999928
                },
                {
                    "name": "C#6",
                    "midi": 85,
                    "time": 12.387103999999999,
                    "velocity": 0.5511811023622047,
                    "duration": 0.29032274999999963
                },
                {
                    "name": "B5",
                    "midi": 83,
                    "time": 12.677426749999999,
                    "velocity": 0.4881889763779528,
                    "duration": 0.09677424999999928
                },
                {
                    "name": "A5",
                    "midi": 81,
                    "time": 12.774200999999998,
                    "velocity": 0.5433070866141733,
                    "duration": 0.12903233333333297
                },
                {
                    "name": "G#5",
                    "midi": 80,
                    "time": 12.903233333333331,
                    "velocity": 0.47244094488188976,
                    "duration": 0.12903233333333297
                },
                {
                    "name": "A5",
                    "midi": 81,
                    "time": 13.032265666666664,
                    "velocity": 0.4330708661417323,
                    "duration": 0.12903233333333297
                },
                {
                    "name": "D6",
                    "midi": 86,
                    "time": 13.161297999999997,
                    "velocity": 0.5354330708661418,
                    "duration": 0.12903233333333297
                },
                {
                    "name": "C#6",
                    "midi": 85,
                    "time": 13.29033033333333,
                    "velocity": 0.5118110236220472,
                    "duration": 0.12903233333333297
                },
                {
                    "name": "D6",
                    "midi": 86,
                    "time": 13.419362666666663,
                    "velocity": 0.5433070866141733,
                    "duration": 0.12903233333333297
                },
                {
                    "name": "F#6",
                    "midi": 90,
                    "time": 13.548394999999996,
                    "velocity": 0.5669291338582677,
                    "duration": 0.6774197500000003
                },
                {
                    "name": "E6",
                    "midi": 88,
                    "time": 14.225814749999996,
                    "velocity": 0.48031496062992124,
                    "duration": 0.09677424999999928
                },
                {
                    "name": "D6",
                    "midi": 86,
                    "time": 14.322588999999995,
                    "velocity": 0.5433070866141733,
                    "duration": 0.29032274999999963
                },
                {
                    "name": "C#6",
                    "midi": 85,
                    "time": 14.612911749999995,
                    "velocity": 0.4881889763779528,
                    "duration": 0.09677424999999928
                },
                {
                    "name": "B5",
                    "midi": 83,
                    "time": 14.709685999999994,
                    "velocity": 0.5511811023622047,
                    "duration": 0.29032274999999963
                },
                {
                    "name": "A5",
                    "midi": 81,
                    "time": 15.000008749999994,
                    "velocity": 0.4881889763779528,
                    "duration": 0.09677424999999928
                },
                {
                    "name": "G5",
                    "midi": 79,
                    "time": 15.096782999999993,
                    "velocity": 0.5275590551181102,
                    "duration": 0.12903233333333297
                },
                {
                    "name": "F#5",
                    "midi": 78,
                    "time": 15.225815333333326,
                    "velocity": 0.4566929133858268,
                    "duration": 0.12903233333333297
                },
                {
                    "name": "G5",
                    "midi": 79,
                    "time": 15.35484766666666,
                    "velocity": 0.4566929133858268,
                    "duration": 0.12903233333333297
                },
                {
                    "name": "C#6",
                    "midi": 85,
                    "time": 15.483879999999992,
                    "velocity": 0.49606299212598426,
                    "duration": 0.12903233333333297
                },
                {
                    "name": "C6",
                    "midi": 84,
                    "time": 15.612912333333325,
                    "velocity": 0.48031496062992124,
                    "duration": 0.12903233333333297
                },
                {
                    "name": "C#6",
                    "midi": 85,
                    "time": 15.741944666666658,
                    "velocity": 0.5118110236220472,
                    "duration": 0.12903233333333297
                },
                {
                    "name": "E6",
                    "midi": 88,
                    "time": 15.870976999999991,
                    "velocity": 0.5511811023622047,
                    "duration": 0.6774197500000003
                },
                {
                    "name": "D6",
                    "midi": 86,
                    "time": 16.54839674999999,
                    "velocity": 0.4645669291338583,
                    "duration": 0.09677424999999928
                },
                {
                    "name": "C#6",
                    "midi": 85,
                    "time": 16.64517099999999,
                    "velocity": 0.5354330708661418,
                    "duration": 0.2903227500000014
                },
                {
                    "name": "D6",
                    "midi": 86,
                    "time": 16.935493749999992,
                    "velocity": 0.44881889763779526,
                    "duration": 0.09677424999999928
                },
                {
                    "name": "C#6",
                    "midi": 85,
                    "time": 17.03226799999999,
                    "velocity": 0.5275590551181102,
                    "duration": 0.2903227500000014
                },
                {
                    "name": "B5",
                    "midi": 83,
                    "time": 17.322590749999993,
                    "velocity": 0.4566929133858268,
                    "duration": 0.09677424999999928
                },
                {
                    "name": "F#5",
                    "midi": 78,
                    "time": 17.419364999999992,
                    "velocity": 0.41732283464566927,
                    "duration": 0.750806889583334
                },
                {
                    "name": "A#5",
                    "midi": 82,
                    "time": 17.419364999999992,
                    "velocity": 0.49606299212598426,
                    "duration": 0.750806889583334
                },
                {
                    "name": "F#5",
                    "midi": 78,
                    "time": 18.193558999999993,
                    "velocity": 0.3700787401574803,
                    "duration": 0.6693552291666691
                },
                {
                    "name": "A#5",
                    "midi": 82,
                    "time": 18.193558999999993,
                    "velocity": 0.4409448818897638,
                    "duration": 0.6572584479166679
                },
                {
                    "name": "A#5",
                    "midi": 82,
                    "time": 18.870978749999995,
                    "velocity": 0.36220472440944884,
                    "duration": 0.09677424999999928
                },
                {
                    "name": "F#5",
                    "midi": 78,
                    "time": 18.967752999999995,
                    "velocity": 0.36220472440944884,
                    "duration": 0.3758066708333345
                },
                {
                    "name": "B5",
                    "midi": 83,
                    "time": 18.967752999999995,
                    "velocity": 0.4094488188976378,
                    "duration": 0.2903227500000014
                },
                {
                    "name": "A#5",
                    "midi": 82,
                    "time": 19.258075749999996,
                    "velocity": 0.3858267716535433,
                    "duration": 0.09677424999999928
                },
                {
                    "name": "F#5",
                    "midi": 78,
                    "time": 19.354849999999995,
                    "velocity": 0.36220472440944884,
                    "duration": 0.3758066708333345
                },
                {
                    "name": "B5",
                    "midi": 83,
                    "time": 19.354849999999995,
                    "velocity": 0.4015748031496063,
                    "duration": 0.2903227500000014
                },
                {
                    "name": "A#5",
                    "midi": 82,
                    "time": 19.645172749999997,
                    "velocity": 0.3858267716535433,
                    "duration": 0.09677424999999928
                },
                {
                    "name": "F5",
                    "midi": 77,
                    "time": 19.741946999999996,
                    "velocity": 0.3700787401574803,
                    "duration": 0.750806889583334
                },
                {
                    "name": "G#5",
                    "midi": 80,
                    "time": 19.741946999999996,
                    "velocity": 0.4409448818897638,
                    "duration": 0.750806889583334
                },
                {
                    "name": "G#5",
                    "midi": 80,
                    "time": 20.516140999999998,
                    "velocity": 0.4409448818897638,
                    "duration": 0.6572584479166679
                },
                {
                    "name": "F5",
                    "midi": 77,
                    "time": 20.516140999999998,
                    "velocity": 0.3700787401574803,
                    "duration": 0.6693552291666691
                },
                {
                    "name": "G#5",
                    "midi": 80,
                    "time": 21.19356075,
                    "velocity": 0.36220472440944884,
                    "duration": 0.09677424999999928
                },
                {
                    "name": "A#5",
                    "midi": 82,
                    "time": 21.290335,
                    "velocity": 0.4094488188976378,
                    "duration": 0.2903227500000014
                },
                {
                    "name": "F5",
                    "midi": 77,
                    "time": 21.290335,
                    "velocity": 0.36220472440944884,
                    "duration": 0.375000218750003
                },
                {
                    "name": "G#5",
                    "midi": 80,
                    "time": 21.58065775,
                    "velocity": 0.3858267716535433,
                    "duration": 0.09677425000000284
                },
                {
                    "name": "A#5",
                    "midi": 82,
                    "time": 21.677432000000003,
                    "velocity": 0.4015748031496063,
                    "duration": 0.2903227500000014
                },
                {
                    "name": "F5",
                    "midi": 77,
                    "time": 21.677432000000003,
                    "velocity": 0.36220472440944884,
                    "duration": 0.375000218750003
                },
                {
                    "name": "G#5",
                    "midi": 80,
                    "time": 21.967754750000005,
                    "velocity": 0.3858267716535433,
                    "duration": 0.09677425000000284
                },
                {
                    "name": "F#5",
                    "midi": 78,
                    "time": 22.064529000000007,
                    "velocity": 0.4409448818897638,
                    "duration": 0.750806889583334
                },
                {
                    "name": "F#5",
                    "midi": 78,
                    "time": 22.83872300000001,
                    "velocity": 0.4409448818897638,
                    "duration": 0.6693552291666656
                },
                {
                    "name": "C#3",
                    "midi": 49,
                    "time": 23.516142750000007,
                    "velocity": 0.4645669291338583,
                    "duration": 0.04838712500000142
                },
                {
                    "name": "G3",
                    "midi": 55,
                    "time": 23.516142750000007,
                    "velocity": 0.4645669291338583,
                    "duration": 0.04838712500000142
                },
                {
                    "name": "A3",
                    "midi": 57,
                    "time": 23.516142750000007,
                    "velocity": 0.5511811023622047,
                    "duration": 0.04838712500000142
                },
                {
                    "name": "G3",
                    "midi": 55,
                    "time": 23.61291700000001,
                    "velocity": 0.5039370078740157,
                    "duration": 0.2903227500000014
                },
                {
                    "name": "C#3",
                    "midi": 49,
                    "time": 23.61291700000001,
                    "velocity": 0.5039370078740157,
                    "duration": 0.2903227500000014
                },
                {
                    "name": "A3",
                    "midi": 57,
                    "time": 23.61291700000001,
                    "velocity": 0.5984251968503937,
                    "duration": 0.2903227500000014
                },
                {
                    "name": "G3",
                    "midi": 55,
                    "time": 23.90323975000001,
                    "velocity": 0.4645669291338583,
                    "duration": 0.04838712500000142
                },
                {
                    "name": "C#3",
                    "midi": 49,
                    "time": 23.90323975000001,
                    "velocity": 0.4645669291338583,
                    "duration": 0.04838712500000142
                },
                {
                    "name": "A3",
                    "midi": 57,
                    "time": 23.90323975000001,
                    "velocity": 0.5511811023622047,
                    "duration": 0.04838712500000142
                },
                {
                    "name": "B3",
                    "midi": 59,
                    "time": 24.000014000000014,
                    "velocity": 0.5905511811023622,
                    "duration": 0.2903227500000014
                },
                {
                    "name": "C#3",
                    "midi": 49,
                    "time": 24.000014000000014,
                    "velocity": 0.49606299212598426,
                    "duration": 0.2903227500000014
                },
                {
                    "name": "G3",
                    "midi": 55,
                    "time": 24.000014000000014,
                    "velocity": 0.49606299212598426,
                    "duration": 0.2903227500000014
                },
                {
                    "name": "C#3",
                    "midi": 49,
                    "time": 24.290336750000016,
                    "velocity": 0.4645669291338583,
                    "duration": 0.04838712500000142
                },
                {
                    "name": "G3",
                    "midi": 55,
                    "time": 24.290336750000016,
                    "velocity": 0.4645669291338583,
                    "duration": 0.04838712500000142
                },
                {
                    "name": "C#4",
                    "midi": 61,
                    "time": 24.290336750000016,
                    "velocity": 0.5511811023622047,
                    "duration": 0.04838712500000142
                },
                {
                    "name": "D3",
                    "midi": 50,
                    "time": 24.38711100000002,
                    "velocity": 0.5354330708661418,
                    "duration": 0.750806889583334
                },
                {
                    "name": "F#3",
                    "midi": 54,
                    "time": 24.38711100000002,
                    "velocity": 0.5354330708661418,
                    "duration": 0.750806889583334
                },
                {
                    "name": "D4",
                    "midi": 62,
                    "time": 24.38711100000002,
                    "velocity": 0.6299212598425197,
                    "duration": 0.750806889583334
                },
                {
                    "name": "D3",
                    "midi": 50,
                    "time": 25.16130500000002,
                    "velocity": 0.5354330708661418,
                    "duration": 0.750806889583334
                },
                {
                    "name": "B3",
                    "midi": 59,
                    "time": 25.16130500000002,
                    "velocity": 0.5354330708661418,
                    "duration": 0.750806889583334
                },
                {
                    "name": "F#3",
                    "midi": 54,
                    "time": 25.16130500000002,
                    "velocity": 0.5354330708661418,
                    "duration": 0.750806889583334
                },
                {
                    "name": "D4",
                    "midi": 62,
                    "time": 25.16130500000002,
                    "velocity": 0.6299212598425197,
                    "duration": 0.6572584479166679
                },
                {
                    "name": "D4",
                    "midi": 62,
                    "time": 25.838724750000022,
                    "velocity": 0.5275590551181102,
                    "duration": 0.09677424999999928
                },
                {
                    "name": "F#3",
                    "midi": 54,
                    "time": 25.93549900000002,
                    "velocity": 0.5196850393700787,
                    "duration": 0.3758066708333345
                },
                {
                    "name": "D4",
                    "midi": 62,
                    "time": 25.93549900000002,
                    "velocity": 0.5905511811023622,
                    "duration": 0.2903227500000014
                },
                {
                    "name": "E4",
                    "midi": 64,
                    "time": 26.225821750000023,
                    "velocity": 0.5511811023622047,
                    "duration": 0.09677424999999928
                },
                {
                    "name": "F#3",
                    "midi": 54,
                    "time": 26.322596000000022,
                    "velocity": 0.5196850393700787,
                    "duration": 0.3758066708333345
                },
                {
                    "name": "F#4",
                    "midi": 66,
                    "time": 26.322596000000022,
                    "velocity": 0.5826771653543307,
                    "duration": 0.2903227500000014
                },
                {
                    "name": "D4",
                    "midi": 62,
                    "time": 26.612918750000023,
                    "velocity": 0.5511811023622047,
                    "duration": 0.09677424999999928
                },
                {
                    "name": "G4",
                    "midi": 67,
                    "time": 26.709693000000023,
                    "velocity": 0.5354330708661418,
                    "duration": 0.7741940000000014
                },
                {
                    "name": "A4",
                    "midi": 69,
                    "time": 26.709693000000023,
                    "velocity": 0.6299212598425197,
                    "duration": 0.750806889583334
                },
                {
                    "name": "A3",
                    "midi": 57,
                    "time": 26.709693000000023,
                    "velocity": 0.5354330708661418,
                    "duration": 0.750806889583334
                },
                {
                    "name": "E4",
                    "midi": 64,
                    "time": 26.709693000000023,
                    "velocity": 0.5354330708661418,
                    "duration": 0.750806889583334
                },
                {
                    "name": "G4",
                    "midi": 67,
                    "time": 27.483887000000024,
                    "velocity": 0.5354330708661418,
                    "duration": 0.6572584479166679
                },
                {
                    "name": "A4",
                    "midi": 69,
                    "time": 27.483887000000024,
                    "velocity": 0.6299212598425197,
                    "duration": 0.6572584479166679
                },
                {
                    "name": "A3",
                    "midi": 57,
                    "time": 27.483887000000024,
                    "velocity": 0.5354330708661418,
                    "duration": 0.6572584479166679
                },
                {
                    "name": "E4",
                    "midi": 64,
                    "time": 27.483887000000024,
                    "velocity": 0.5354330708661418,
                    "duration": 0.6572584479166679
                },
                {
                    "name": "A4",
                    "midi": 69,
                    "time": 28.161306750000026,
                    "velocity": 0.5275590551181102,
                    "duration": 0.0919355374999995
                },
                {
                    "name": "E4",
                    "midi": 64,
                    "time": 28.161306750000026,
                    "velocity": 0.41732283464566927,
                    "duration": 0.0919355374999995
                },
                {
                    "name": "G4",
                    "midi": 67,
                    "time": 28.161306750000026,
                    "velocity": 0.41732283464566927,
                    "duration": 0.0919355374999995
                },
                {
                    "name": "A4",
                    "midi": 69,
                    "time": 28.258081000000026,
                    "velocity": 0.5905511811023622,
                    "duration": 0.2685485437500006
                },
                {
                    "name": "E4",
                    "midi": 64,
                    "time": 28.258081000000026,
                    "velocity": 0.47244094488188976,
                    "duration": 0.27580661250000205
                },
                {
                    "name": "G4",
                    "midi": 67,
                    "time": 28.258081000000026,
                    "velocity": 0.47244094488188976,
                    "duration": 0.27580661250000205
                },
                {
                    "name": "E4",
                    "midi": 64,
                    "time": 28.548403750000027,
                    "velocity": 0.4409448818897638,
                    "duration": 0.0919355374999995
                },
                {
                    "name": "G4",
                    "midi": 67,
                    "time": 28.548403750000027,
                    "velocity": 0.4409448818897638,
                    "duration": 0.0919355374999995
                },
                {
                    "name": "A4",
                    "midi": 69,
                    "time": 28.548403750000027,
                    "velocity": 0.5511811023622047,
                    "duration": 0.0919355374999995
                },
                {
                    "name": "E4",
                    "midi": 64,
                    "time": 28.645178000000026,
                    "velocity": 0.4645669291338583,
                    "duration": 0.2758066124999985
                },
                {
                    "name": "G4",
                    "midi": 67,
                    "time": 28.645178000000026,
                    "velocity": 0.4645669291338583,
                    "duration": 0.2758066124999985
                },
                {
                    "name": "B4",
                    "midi": 71,
                    "time": 28.645178000000026,
                    "velocity": 0.5826771653543307,
                    "duration": 0.2758066124999985
                },
                {
                    "name": "E4",
                    "midi": 64,
                    "time": 28.935500750000024,
                    "velocity": 0.4409448818897638,
                    "duration": 0.09677424999999928
                },
                {
                    "name": "G4",
                    "midi": 67,
                    "time": 28.935500750000024,
                    "velocity": 0.4409448818897638,
                    "duration": 0.09677424999999928
                },
                {
                    "name": "C#5",
                    "midi": 73,
                    "time": 28.935500750000024,
                    "velocity": 0.5511811023622047,
                    "duration": 0.09677424999999928
                },
                {
                    "name": "D4",
                    "midi": 62,
                    "time": 29.032275000000023,
                    "velocity": 0.5354330708661418,
                    "duration": 0.750806889583334
                },
                {
                    "name": "F#4",
                    "midi": 66,
                    "time": 29.032275000000023,
                    "velocity": 0.5354330708661418,
                    "duration": 0.750806889583334
                },
                {
                    "name": "A4",
                    "midi": 69,
                    "time": 29.032275000000023,
                    "velocity": 0.5354330708661418,
                    "duration": 0.750806889583334
                },
                {
                    "name": "D5",
                    "midi": 74,
                    "time": 29.032275000000023,
                    "velocity": 0.6299212598425197,
                    "duration": 0.750806889583334
                },
                {
                    "name": "D4",
                    "midi": 62,
                    "time": 29.806469000000025,
                    "velocity": 0.5354330708661418,
                    "duration": 0.5725809791666663
                },
                {
                    "name": "G4",
                    "midi": 67,
                    "time": 29.806469000000025,
                    "velocity": 0.5354330708661418,
                    "duration": 0.5725809791666663
                },
                {
                    "name": "D5",
                    "midi": 74,
                    "time": 29.806469000000025,
                    "velocity": 0.6299212598425197,
                    "duration": 0.5725809791666663
                },
                {
                    "name": "G#4",
                    "midi": 68,
                    "time": 30.387114500000024,
                    "velocity": 0.49606299212598426,
                    "duration": 0.09677424999999928
                },
                {
                    "name": "D5",
                    "midi": 74,
                    "time": 30.387114500000024,
                    "velocity": 0.5905511811023622,
                    "duration": 0.09677424999999928
                },
                {
                    "name": "G#4",
                    "midi": 68,
                    "time": 30.580663000000023,
                    "velocity": 0.5354330708661418,
                    "duration": 0.09677424999999928
                },
                {
                    "name": "D5",
                    "midi": 74,
                    "time": 30.580663000000023,
                    "velocity": 0.6299212598425197,
                    "duration": 0.09677424999999928
                },
                {
                    "name": "G#4",
                    "midi": 68,
                    "time": 30.77421150000002,
                    "velocity": 0.5275590551181102,
                    "duration": 0.09677424999999928
                },
                {
                    "name": "D5",
                    "midi": 74,
                    "time": 30.77421150000002,
                    "velocity": 0.6220472440944882,
                    "duration": 0.09677424999999928
                },
                {
                    "name": "E5",
                    "midi": 76,
                    "time": 30.77421150000002,
                    "velocity": 0.6220472440944882,
                    "duration": 0.09677424999999928
                },
                {
                    "name": "G#4",
                    "midi": 68,
                    "time": 30.96776000000002,
                    "velocity": 0.5511811023622047,
                    "duration": 0.09677424999999928
                },
                {
                    "name": "D5",
                    "midi": 74,
                    "time": 30.96776000000002,
                    "velocity": 0.5511811023622047,
                    "duration": 0.09677424999999928
                },
                {
                    "name": "F#5",
                    "midi": 78,
                    "time": 30.96776000000002,
                    "velocity": 0.6535433070866141,
                    "duration": 0.09677424999999928
                },
                {
                    "name": "G#4",
                    "midi": 68,
                    "time": 31.16130850000002,
                    "velocity": 0.5748031496062992,
                    "duration": 0.09677424999999928
                },
                {
                    "name": "D5",
                    "midi": 74,
                    "time": 31.16130850000002,
                    "velocity": 0.5748031496062992,
                    "duration": 0.09677424999999928
                },
                {
                    "name": "G#5",
                    "midi": 80,
                    "time": 31.16130850000002,
                    "velocity": 0.6771653543307087,
                    "duration": 0.09677424999999928
                },
                {
                    "name": "A4",
                    "midi": 69,
                    "time": 31.354857000000017,
                    "velocity": 0.5984251968503937,
                    "duration": 0.7508068895833304
                },
                {
                    "name": "C#5",
                    "midi": 73,
                    "time": 31.354857000000017,
                    "velocity": 0.5984251968503937,
                    "duration": 0.7508068895833304
                },
                {
                    "name": "A5",
                    "midi": 81,
                    "time": 31.354857000000017,
                    "velocity": 0.7086614173228346,
                    "duration": 0.7508068895833304
                },
                {
                    "name": "A3",
                    "midi": 57,
                    "time": 32.12905100000001,
                    "velocity": 0.5748031496062992,
                    "duration": 0.7741940000000014
                },
                {
                    "name": "C#4",
                    "midi": 61,
                    "time": 32.12905100000001,
                    "velocity": 0.5748031496062992,
                    "duration": 0.7741940000000014
                },
                {
                    "name": "A4",
                    "midi": 69,
                    "time": 32.12905100000001,
                    "velocity": 0.6850393700787402,
                    "duration": 0.7741940000000014
                },
                {
                    "name": "E5",
                    "midi": 76,
                    "time": 32.90324500000001,
                    "velocity": 0.48031496062992124,
                    "duration": 0.38709699999999714
                },
                {
                    "name": "F5",
                    "midi": 77,
                    "time": 33.29034200000001,
                    "velocity": 0.4566929133858268,
                    "duration": 0.38709699999999714
                },
                {
                    "name": "F#5",
                    "midi": 78,
                    "time": 33.67743900000001,
                    "velocity": 0.4881889763779528,
                    "duration": 0.12903233333333475
                },
                {
                    "name": "F5",
                    "midi": 77,
                    "time": 33.80647133333334,
                    "velocity": 0.44881889763779526,
                    "duration": 0.12903233333333475
                },
                {
                    "name": "F#5",
                    "midi": 78,
                    "time": 33.935503666666676,
                    "velocity": 0.44881889763779526,
                    "duration": 0.12903233333333475
                },
                {
                    "name": "B5",
                    "midi": 83,
                    "time": 34.06453600000001,
                    "velocity": 0.49606299212598426,
                    "duration": 0.12903233333333475
                },
                {
                    "name": "A#5",
                    "midi": 82,
                    "time": 34.193568333333346,
                    "velocity": 0.48031496062992124,
                    "duration": 0.12903233333333475
                },
                {
                    "name": "B5",
                    "midi": 83,
                    "time": 34.32260066666668,
                    "velocity": 0.5118110236220472,
                    "duration": 0.12903233333333475
                },
                {
                    "name": "D6",
                    "midi": 86,
                    "time": 34.451633000000015,
                    "velocity": 0.5511811023622047,
                    "duration": 0.6774197499999985
                },
                {
                    "name": "C#6",
                    "midi": 85,
                    "time": 35.129052750000014,
                    "velocity": 0.48031496062992124,
                    "duration": 0.09677425000000284
                },
                {
                    "name": "B5",
                    "midi": 83,
                    "time": 35.22582700000002,
                    "velocity": 0.5433070866141733,
                    "duration": 0.09677425000000284
                },
                {
                    "name": "C#6",
                    "midi": 85,
                    "time": 35.32260125000002,
                    "velocity": 0.49606299212598426,
                    "duration": 0.09677425000000284
                },
                {
                    "name": "B5",
                    "midi": 83,
                    "time": 35.41937550000002,
                    "velocity": 0.49606299212598426,
                    "duration": 0.09677425000000284
                },
                {
                    "name": "A5",
                    "midi": 81,
                    "time": 35.516149750000025,
                    "velocity": 0.4881889763779528,
                    "duration": 0.09677425000000284
                },
                {
                    "name": "G#5",
                    "midi": 80,
                    "time": 35.61292400000003,
                    "velocity": 0.5511811023622047,
                    "duration": 0.09677425000000284
                },
                {
                    "name": "A5",
                    "midi": 81,
                    "time": 35.70969825000003,
                    "velocity": 0.5118110236220472,
                    "duration": 0.09677425000000284
                },
                {
                    "name": "G#5",
                    "midi": 80,
                    "time": 35.806472500000034,
                    "velocity": 0.5196850393700787,
                    "duration": 0.09677425000000284
                },
                {
                    "name": "F#5",
                    "midi": 78,
                    "time": 35.90324675000004,
                    "velocity": 0.4881889763779528,
                    "duration": 0.09677425000000284
                },
                {
                    "name": "E5",
                    "midi": 76,
                    "time": 36.00002100000004,
                    "velocity": 0.5433070866141733,
                    "duration": 0.12903233333333475
                },
                {
                    "name": "D#5",
                    "midi": 75,
                    "time": 36.129053333333374,
                    "velocity": 0.47244094488188976,
                    "duration": 0.12903233333333475
                },
                {
                    "name": "E5",
                    "midi": 76,
                    "time": 36.25808566666671,
                    "velocity": 0.4330708661417323,
                    "duration": 0.12903233333333475
                },
                {
                    "name": "A5",
                    "midi": 81,
                    "time": 36.387118000000044,
                    "velocity": 0.5354330708661418,
                    "duration": 0.12903233333333475
                },
                {
                    "name": "G#5",
                    "midi": 80,
                    "time": 36.51615033333338,
                    "velocity": 0.5118110236220472,
                    "duration": 0.12903233333333475
                },
                {
                    "name": "A5",
                    "midi": 81,
                    "time": 36.64518266666671,
                    "velocity": 0.5433070866141733,
                    "duration": 0.12903233333333475
                },
                {
                    "name": "C#6",
                    "midi": 85,
                    "time": 36.77421500000005,
                    "velocity": 0.5669291338582677,
                    "duration": 0.6774197499999985
                },
                {
                    "name": "B5",
                    "midi": 83,
                    "time": 37.451634750000046,
                    "velocity": 0.48031496062992124,
                    "duration": 0.09677425000000284
                },
                {
                    "name": "A5",
                    "midi": 81,
                    "time": 37.54840900000005,
                    "velocity": 0.5433070866141733,
                    "duration": 0.09677425000000284
                },
                {
                    "name": "B5",
                    "midi": 83,
                    "time": 37.64518325000005,
                    "velocity": 0.49606299212598426,
                    "duration": 0.09677425000000284
                },
                {
                    "name": "A5",
                    "midi": 81,
                    "time": 37.741957500000055,
                    "velocity": 0.49606299212598426,
                    "duration": 0.09677425000000284
                },
                {
                    "name": "G#5",
                    "midi": 80,
                    "time": 37.83873175000006,
                    "velocity": 0.4881889763779528,
                    "duration": 0.09677425000000284
                },
                {
                    "name": "F#5",
                    "midi": 78,
                    "time": 37.93550600000006,
                    "velocity": 0.5511811023622047,
                    "duration": 0.09677425000000284
                },
                {
                    "name": "G#5",
                    "midi": 80,
                    "time": 38.03228025000006,
                    "velocity": 0.5118110236220472,
                    "duration": 0.09677425000000284
                },
                {
                    "name": "F#5",
                    "midi": 78,
                    "time": 38.129054500000066,
                    "velocity": 0.5118110236220472,
                    "duration": 0.09677425000000284
                },
                {
                    "name": "E5",
                    "midi": 76,
                    "time": 38.22582875000007,
                    "velocity": 0.4881889763779528,
                    "duration": 0.09677425000000284
                },
                {
                    "name": "D5",
                    "midi": 74,
                    "time": 38.32260300000007,
                    "velocity": 0.5275590551181102,
                    "duration": 0.12903233333333475
                },
                {
                    "name": "C#5",
                    "midi": 73,
                    "time": 38.45163533333341,
                    "velocity": 0.4566929133858268,
                    "duration": 0.12903233333333475
                },
                {
                    "name": "D5",
                    "midi": 74,
                    "time": 38.58066766666674,
                    "velocity": 0.4566929133858268,
                    "duration": 0.12903233333333475
                },
                {
                    "name": "G#5",
                    "midi": 80,
                    "time": 38.709700000000076,
                    "velocity": 0.49606299212598426,
                    "duration": 0.12903233333333475
                },
                {
                    "name": "G5",
                    "midi": 79,
                    "time": 38.83873233333341,
                    "velocity": 0.48031496062992124,
                    "duration": 0.12903233333333475
                },
                {
                    "name": "G#5",
                    "midi": 80,
                    "time": 38.967764666666746,
                    "velocity": 0.5118110236220472,
                    "duration": 0.12903233333333475
                },
                {
                    "name": "B5",
                    "midi": 83,
                    "time": 39.09679700000008,
                    "velocity": 0.5511811023622047,
                    "duration": 0.6774197499999985
                },
                {
                    "name": "A5",
                    "midi": 81,
                    "time": 39.77421675000008,
                    "velocity": 0.4645669291338583,
                    "duration": 0.09677425000000284
                },
                {
                    "name": "G#5",
                    "midi": 80,
                    "time": 39.87099100000008,
                    "velocity": 0.5354330708661418,
                    "duration": 0.2903227500000014
                },
                {
                    "name": "A5",
                    "midi": 81,
                    "time": 40.16131375000008,
                    "velocity": 0.44881889763779526,
                    "duration": 0.09677425000000284
                },
                {
                    "name": "G#5",
                    "midi": 80,
                    "time": 40.258088000000086,
                    "velocity": 0.5275590551181102,
                    "duration": 0.2903227500000014
                },
                {
                    "name": "F#5",
                    "midi": 78,
                    "time": 40.54841075000009,
                    "velocity": 0.4566929133858268,
                    "duration": 0.09677425000000284
                },
                {
                    "name": "F5",
                    "midi": 77,
                    "time": 40.64518500000009,
                    "velocity": 0.49606299212598426,
                    "duration": 0.7508068895833304
                },
                {
                    "name": "C#5",
                    "midi": 73,
                    "time": 40.64518500000009,
                    "velocity": 0.41732283464566927,
                    "duration": 0.7508068895833304
                },
                {
                    "name": "C#5",
                    "midi": 73,
                    "time": 41.419379000000085,
                    "velocity": 0.3700787401574803,
                    "duration": 0.7661294791666649
                },
                {
                    "name": "F5",
                    "midi": 77,
                    "time": 41.419379000000085,
                    "velocity": 0.4409448818897638,
                    "duration": 0.6572584479166679
                },
                {
                    "name": "F5",
                    "midi": 77,
                    "time": 42.09679875000008,
                    "velocity": 0.36220472440944884,
                    "duration": 0.09677425000000284
                },
                {
                    "name": "C#5",
                    "midi": 73,
                    "time": 42.193573000000086,
                    "velocity": 0.36220472440944884,
                    "duration": 0.3758066708333345
                },
                {
                    "name": "F#5",
                    "midi": 78,
                    "time": 42.193573000000086,
                    "velocity": 0.4094488188976378,
                    "duration": 0.2903227500000014
                },
                {
                    "name": "F5",
                    "midi": 77,
                    "time": 42.48389575000009,
                    "velocity": 0.3858267716535433,
                    "duration": 0.09677425000000284
                },
                {
                    "name": "F#5",
                    "midi": 78,
                    "time": 42.58067000000009,
                    "velocity": 0.4015748031496063,
                    "duration": 0.2903227500000014
                },
                {
                    "name": "C#5",
                    "midi": 73,
                    "time": 42.58067000000009,
                    "velocity": 0.36220472440944884,
                    "duration": 0.3758066708333345
                },
                {
                    "name": "F5",
                    "midi": 77,
                    "time": 42.87099275000009,
                    "velocity": 0.3858267716535433,
                    "duration": 0.09677425000000284
                },
                {
                    "name": "G#5",
                    "midi": 80,
                    "time": 42.967767000000094,
                    "velocity": 0.48031496062992124,
                    "duration": 0.7508068895833304
                },
                {
                    "name": "D5",
                    "midi": 74,
                    "time": 42.967767000000094,
                    "velocity": 0.4015748031496063,
                    "duration": 0.7508068895833304
                },
                {
                    "name": "E5",
                    "midi": 76,
                    "time": 42.967767000000094,
                    "velocity": 0.4015748031496063,
                    "duration": 0.7508068895833304
                },
                {
                    "name": "D5",
                    "midi": 74,
                    "time": 43.74196100000009,
                    "velocity": 0.4015748031496063,
                    "duration": 0.6693552291666691
                },
                {
                    "name": "G#5",
                    "midi": 80,
                    "time": 43.74196100000009,
                    "velocity": 0.48031496062992124,
                    "duration": 0.6693552291666691
                },
                {
                    "name": "E5",
                    "midi": 76,
                    "time": 43.74196100000009,
                    "velocity": 0.4015748031496063,
                    "duration": 0.6693552291666691
                },
                {
                    "name": "E5",
                    "midi": 76,
                    "time": 44.419380750000094,
                    "velocity": 0.3937007874015748,
                    "duration": 0.09677425000000284
                },
                {
                    "name": "F#5",
                    "midi": 78,
                    "time": 44.5161550000001,
                    "velocity": 0.44881889763779526,
                    "duration": 0.2903227500000014
                },
                {
                    "name": "D5",
                    "midi": 74,
                    "time": 44.5161550000001,
                    "velocity": 0.3937007874015748,
                    "duration": 0.375000218750003
                },
                {
                    "name": "E5",
                    "midi": 76,
                    "time": 44.8064777500001,
                    "velocity": 0.41732283464566927,
                    "duration": 0.09677425000000284
                },
                {
                    "name": "D5",
                    "midi": 74,
                    "time": 44.9032520000001,
                    "velocity": 0.3937007874015748,
                    "duration": 0.375000218750003
                },
                {
                    "name": "F#5",
                    "midi": 78,
                    "time": 44.9032520000001,
                    "velocity": 0.4409448818897638,
                    "duration": 0.2903227500000014
                },
                {
                    "name": "G#5",
                    "midi": 80,
                    "time": 45.1935747500001,
                    "velocity": 0.41732283464566927,
                    "duration": 0.09677425000000284
                },
                {
                    "name": "A4",
                    "midi": 69,
                    "time": 45.290349000000106,
                    "velocity": 0.4015748031496063,
                    "duration": 0.7508068895833304
                },
                {
                    "name": "A5",
                    "midi": 81,
                    "time": 45.290349000000106,
                    "velocity": 0.48031496062992124,
                    "duration": 0.7508068895833304
                },
                {
                    "name": "C#5",
                    "midi": 73,
                    "time": 45.290349000000106,
                    "velocity": 0.4015748031496063,
                    "duration": 0.7508068895833304
                },
                {
                    "name": "C#5",
                    "midi": 73,
                    "time": 46.0645430000001,
                    "velocity": 0.4015748031496063,
                    "duration": 0.6693552291666691
                },
                {
                    "name": "A4",
                    "midi": 69,
                    "time": 46.0645430000001,
                    "velocity": 0.4015748031496063,
                    "duration": 0.6693552291666691
                },
                {
                    "name": "A5",
                    "midi": 81,
                    "time": 46.0645430000001,
                    "velocity": 0.48031496062992124,
                    "duration": 0.6693552291666691
                },
                {
                    "name": "A3",
                    "midi": 57,
                    "time": 46.741962750000106,
                    "velocity": 0.5511811023622047,
                    "duration": 0.048387124999997866
                },
                {
                    "name": "A3",
                    "midi": 57,
                    "time": 46.8387370000001,
                    "velocity": 0.5984251968503937,
                    "duration": 0.09677425000000284
                },
                {
                    "name": "A3",
                    "midi": 57,
                    "time": 47.1290597500001,
                    "velocity": 0.5511811023622047,
                    "duration": 0.048387124999997866
                },
                {
                    "name": "G3",
                    "midi": 55,
                    "time": 47.2258340000001,
                    "velocity": 0.5905511811023622,
                    "duration": 0.09677425000000284
                },
                {
                    "name": "A3",
                    "midi": 57,
                    "time": 47.5161567500001,
                    "velocity": 0.5511811023622047,
                    "duration": 0.048387124999997866
                },
                {
                    "name": "G3",
                    "midi": 55,
                    "time": 47.612931000000096,
                    "velocity": 0.5354330708661418,
                    "duration": 0.7508068895833304
                },
                {
                    "name": "C#4",
                    "midi": 61,
                    "time": 47.612931000000096,
                    "velocity": 0.6299212598425197,
                    "duration": 0.7508068895833304
                },
                {
                    "name": "A#3",
                    "midi": 58,
                    "time": 47.612931000000096,
                    "velocity": 0.5354330708661418,
                    "duration": 0.7741939999999943
                },
                {
                    "name": "E3",
                    "midi": 52,
                    "time": 47.612931000000096,
                    "velocity": 0.5354330708661418,
                    "duration": 0.7508068895833304
                },
                {
                    "name": "E3",
                    "midi": 52,
                    "time": 48.38712500000009,
                    "velocity": 0.5354330708661418,
                    "duration": 0.6572584479166679
                },
                {
                    "name": "G3",
                    "midi": 55,
                    "time": 48.38712500000009,
                    "velocity": 0.5354330708661418,
                    "duration": 0.6572584479166679
                },
                {
                    "name": "C#4",
                    "midi": 61,
                    "time": 48.38712500000009,
                    "velocity": 0.6299212598425197,
                    "duration": 0.6572584479166679
                },
                {
                    "name": "A#3",
                    "midi": 58,
                    "time": 48.38712500000009,
                    "velocity": 0.5354330708661418,
                    "duration": 0.6572584479166679
                },
                {
                    "name": "A4",
                    "midi": 69,
                    "time": 49.06454475000009,
                    "velocity": 0.5511811023622047,
                    "duration": 0.048387124999997866
                },
                {
                    "name": "A4",
                    "midi": 69,
                    "time": 49.161319000000084,
                    "velocity": 0.5984251968503937,
                    "duration": 0.09677425000000284
                },
                {
                    "name": "A4",
                    "midi": 69,
                    "time": 49.451641750000086,
                    "velocity": 0.5511811023622047,
                    "duration": 0.048387124999997866
                },
                {
                    "name": "G4",
                    "midi": 67,
                    "time": 49.54841600000008,
                    "velocity": 0.5905511811023622,
                    "duration": 0.09677425000000284
                },
                {
                    "name": "A4",
                    "midi": 69,
                    "time": 49.83873875000008,
                    "velocity": 0.5511811023622047,
                    "duration": 0.048387124999997866
                },
                {
                    "name": "A#4",
                    "midi": 70,
                    "time": 49.93551300000008,
                    "velocity": 0.5354330708661418,
                    "duration": 0.7741939999999943
                },
                {
                    "name": "D4",
                    "midi": 62,
                    "time": 49.93551300000008,
                    "velocity": 0.5354330708661418,
                    "duration": 0.7508068895833304
                },
                {
                    "name": "D5",
                    "midi": 74,
                    "time": 49.93551300000008,
                    "velocity": 0.6299212598425197,
                    "duration": 0.7508068895833304
                },
                {
                    "name": "F4",
                    "midi": 65,
                    "time": 49.93551300000008,
                    "velocity": 0.5354330708661418,
                    "duration": 0.7508068895833304
                },
                {
                    "name": "A#4",
                    "midi": 70,
                    "time": 50.70970700000007,
                    "velocity": 0.5354330708661418,
                    "duration": 0.6572584479166679
                },
                {
                    "name": "D4",
                    "midi": 62,
                    "time": 50.70970700000007,
                    "velocity": 0.5354330708661418,
                    "duration": 0.6572584479166679
                },
                {
                    "name": "D5",
                    "midi": 74,
                    "time": 50.70970700000007,
                    "velocity": 0.6299212598425197,
                    "duration": 0.6572584479166679
                },
                {
                    "name": "F4",
                    "midi": 65,
                    "time": 50.70970700000007,
                    "velocity": 0.5354330708661418,
                    "duration": 0.6572584479166679
                },
                {
                    "name": "D5",
                    "midi": 74,
                    "time": 51.38712675000007,
                    "velocity": 0.4645669291338583,
                    "duration": 0.048387124999997866
                },
                {
                    "name": "F5",
                    "midi": 77,
                    "time": 51.38712675000007,
                    "velocity": 0.5511811023622047,
                    "duration": 0.048387124999997866
                },
                {
                    "name": "F5",
                    "midi": 77,
                    "time": 51.48390100000007,
                    "velocity": 0.5984251968503937,
                    "duration": 0.09677425000000284
                },
                {
                    "name": "D5",
                    "midi": 74,
                    "time": 51.48390100000007,
                    "velocity": 0.5039370078740157,
                    "duration": 0.09677425000000284
                },
                {
                    "name": "D5",
                    "midi": 74,
                    "time": 51.77422375000007,
                    "velocity": 0.4645669291338583,
                    "duration": 0.048387124999997866
                },
                {
                    "name": "F5",
                    "midi": 77,
                    "time": 51.77422375000007,
                    "velocity": 0.5511811023622047,
                    "duration": 0.048387124999997866
                },
                {
                    "name": "C#5",
                    "midi": 73,
                    "time": 51.870998000000064,
                    "velocity": 0.49606299212598426,
                    "duration": 0.09677425000000284
                },
                {
                    "name": "E5",
                    "midi": 76,
                    "time": 51.870998000000064,
                    "velocity": 0.5905511811023622,
                    "duration": 0.09677425000000284
                },
                {
                    "name": "F5",
                    "midi": 77,
                    "time": 52.161320750000066,
                    "velocity": 0.5511811023622047,
                    "duration": 0.048387124999997866
                },
                {
                    "name": "D5",
                    "midi": 74,
                    "time": 52.161320750000066,
                    "velocity": 0.4645669291338583,
                    "duration": 0.048387124999997866
                },
                {
                    "name": "A#4",
                    "midi": 70,
                    "time": 52.25809500000006,
                    "velocity": 0.5039370078740157,
                    "duration": 0.09677425000000284
                },
                {
                    "name": "D5",
                    "midi": 74,
                    "time": 52.25809500000006,
                    "velocity": 0.5984251968503937,
                    "duration": 0.09677425000000284
                },
                {
                    "name": "D5",
                    "midi": 74,
                    "time": 52.54841775000006,
                    "velocity": 0.5511811023622047,
                    "duration": 0.048387124999997866
                },
                {
                    "name": "A#4",
                    "midi": 70,
                    "time": 52.54841775000006,
                    "velocity": 0.4645669291338583,
                    "duration": 0.048387124999997866
                },
                {
                    "name": "A4",
                    "midi": 69,
                    "time": 52.64519200000006,
                    "velocity": 0.49606299212598426,
                    "duration": 0.09677425000000284
                },
                {
                    "name": "C#5",
                    "midi": 73,
                    "time": 52.64519200000006,
                    "velocity": 0.5905511811023622,
                    "duration": 0.09677425000000284
                },
                {
                    "name": "D5",
                    "midi": 74,
                    "time": 52.93551475000006,
                    "velocity": 0.5511811023622047,
                    "duration": 0.048387124999997866
                },
                {
                    "name": "A#4",
                    "midi": 70,
                    "time": 52.93551475000006,
                    "velocity": 0.4645669291338583,
                    "duration": 0.048387124999997866
                },
                {
                    "name": "A#4",
                    "midi": 70,
                    "time": 53.032289000000056,
                    "velocity": 0.5984251968503937,
                    "duration": 0.09677425000000284
                },
                {
                    "name": "G4",
                    "midi": 67,
                    "time": 53.032289000000056,
                    "velocity": 0.5039370078740157,
                    "duration": 0.09677425000000284
                },
                {
                    "name": "G4",
                    "midi": 67,
                    "time": 53.32261175000006,
                    "velocity": 0.4645669291338583,
                    "duration": 0.048387124999997866
                },
                {
                    "name": "A#4",
                    "midi": 70,
                    "time": 53.32261175000006,
                    "velocity": 0.5511811023622047,
                    "duration": 0.048387124999997866
                },
                {
                    "name": "A4",
                    "midi": 69,
                    "time": 53.41938600000005,
                    "velocity": 0.5905511811023622,
                    "duration": 0.09677425000000284
                },
                {
                    "name": "F#4",
                    "midi": 66,
                    "time": 53.41938600000005,
                    "velocity": 0.49606299212598426,
                    "duration": 0.09677425000000284
                },
                {
                    "name": "G4",
                    "midi": 67,
                    "time": 53.709708750000054,
                    "velocity": 0.4645669291338583,
                    "duration": 0.048387124999997866
                },
                {
                    "name": "A#4",
                    "midi": 70,
                    "time": 53.709708750000054,
                    "velocity": 0.5511811023622047,
                    "duration": 0.048387124999997866
                },
                {
                    "name": "D#4",
                    "midi": 63,
                    "time": 53.80648300000005,
                    "velocity": 0.5354330708661418,
                    "duration": 0.7741939999999943
                },
                {
                    "name": "G4",
                    "midi": 67,
                    "time": 53.80648300000005,
                    "velocity": 0.6299212598425197,
                    "duration": 0.7508068895833304
                },
                {
                    "name": "D#5",
                    "midi": 75,
                    "time": 54.580677000000044,
                    "velocity": 0.5826771653543307,
                    "duration": 0.7661294791666649
                },
                {
                    "name": "G4",
                    "midi": 67,
                    "time": 54.580677000000044,
                    "velocity": 0.5826771653543307,
                    "duration": 0.7661294791666649
                },
                {
                    "name": "G5",
                    "midi": 79,
                    "time": 54.580677000000044,
                    "velocity": 0.6929133858267716,
                    "duration": 0.7661294791666649
                },
                {
                    "name": "B4",
                    "midi": 71,
                    "time": 54.580677000000044,
                    "velocity": 0.5826771653543307,
                    "duration": 0.7661294791666649
                },
                {
                    "name": "D#5",
                    "midi": 75,
                    "time": 55.354871000000045,
                    "velocity": 0.5826771653543307,
                    "duration": 0.7661294791666649
                },
                {
                    "name": "G4",
                    "midi": 67,
                    "time": 55.354871000000045,
                    "velocity": 0.5826771653543307,
                    "duration": 0.7661294791666649
                },
                {
                    "name": "G5",
                    "midi": 79,
                    "time": 55.354871000000045,
                    "velocity": 0.6929133858267716,
                    "duration": 0.7661294791666649
                },
                {
                    "name": "C5",
                    "midi": 72,
                    "time": 55.354871000000045,
                    "velocity": 0.5826771653543307,
                    "duration": 0.7661294791666649
                },
                {
                    "name": "F4",
                    "midi": 65,
                    "time": 56.12906500000005,
                    "velocity": 0.5826771653543307,
                    "duration": 0.09677425000000284
                },
                {
                    "name": "F5",
                    "midi": 77,
                    "time": 56.12906500000005,
                    "velocity": 0.6929133858267716,
                    "duration": 0.09677425000000284
                },
                {
                    "name": "D5",
                    "midi": 74,
                    "time": 56.12906500000005,
                    "velocity": 0.5826771653543307,
                    "duration": 0.09677425000000284
                },
                {
                    "name": "A4",
                    "midi": 69,
                    "time": 56.51616200000005,
                    "velocity": 0.5826771653543307,
                    "duration": 0.09677425000000284
                },
                {
                    "name": "C5",
                    "midi": 72,
                    "time": 56.51616200000005,
                    "velocity": 0.5826771653543307,
                    "duration": 0.09677425000000284
                },
                {
                    "name": "A5",
                    "midi": 81,
                    "time": 56.51616200000005,
                    "velocity": 0.6929133858267716,
                    "duration": 0.09677425000000284
                },
                {
                    "name": "D#5",
                    "midi": 75,
                    "time": 56.51616200000005,
                    "velocity": 0.5826771653543307,
                    "duration": 0.09677425000000284
                },
                {
                    "name": "D5",
                    "midi": 74,
                    "time": 56.903259000000055,
                    "velocity": 0.6692913385826772,
                    "duration": 0.7661294791666649
                },
                {
                    "name": "A#4",
                    "midi": 70,
                    "time": 56.903259000000055,
                    "velocity": 0.6692913385826772,
                    "duration": 0.7661294791666649
                },
                {
                    "name": "A#5",
                    "midi": 82,
                    "time": 56.903259000000055,
                    "velocity": 0.7952755905511811,
                    "duration": 0.7661294791666649
                },
                {
                    "name": "A#3",
                    "midi": 58,
                    "time": 57.67745300000006,
                    "velocity": 0.5826771653543307,
                    "duration": 0.6572584479166679
                },
                {
                    "name": "D4",
                    "midi": 62,
                    "time": 57.67745300000006,
                    "velocity": 0.5826771653543307,
                    "duration": 0.6572584479166679
                },
                {
                    "name": "A#4",
                    "midi": 70,
                    "time": 57.67745300000006,
                    "velocity": 0.6929133858267716,
                    "duration": 0.6572584479166679
                },
                {
                    "name": "D5",
                    "midi": 74,
                    "time": 58.354872750000055,
                    "velocity": 0.3700787401574803,
                    "duration": 0.048387124999997866
                },
                {
                    "name": "F5",
                    "midi": 77,
                    "time": 58.354872750000055,
                    "velocity": 0.4409448818897638,
                    "duration": 0.048387124999997866
                },
                {
                    "name": "D5",
                    "midi": 74,
                    "time": 58.45164700000005,
                    "velocity": 0.4015748031496063,
                    "duration": 0.09677425000000284
                },
                {
                    "name": "F5",
                    "midi": 77,
                    "time": 58.45164700000005,
                    "velocity": 0.47244094488188976,
                    "duration": 0.09677425000000284
                },
                {
                    "name": "D5",
                    "midi": 74,
                    "time": 58.74196975000005,
                    "velocity": 0.3700787401574803,
                    "duration": 0.048387124999997866
                },
                {
                    "name": "F5",
                    "midi": 77,
                    "time": 58.74196975000005,
                    "velocity": 0.4409448818897638,
                    "duration": 0.048387124999997866
                },
                {
                    "name": "C#5",
                    "midi": 73,
                    "time": 58.83874400000005,
                    "velocity": 0.3937007874015748,
                    "duration": 0.09677425000000284
                },
                {
                    "name": "E5",
                    "midi": 76,
                    "time": 58.83874400000005,
                    "velocity": 0.47244094488188976,
                    "duration": 0.09677425000000284
                },
                {
                    "name": "D5",
                    "midi": 74,
                    "time": 59.12906675000005,
                    "velocity": 0.3700787401574803,
                    "duration": 0.048387124999997866
                },
                {
                    "name": "F5",
                    "midi": 77,
                    "time": 59.12906675000005,
                    "velocity": 0.4409448818897638,
                    "duration": 0.048387124999997866
                },
                {
                    "name": "A#4",
                    "midi": 70,
                    "time": 59.225841000000045,
                    "velocity": 0.4015748031496063,
                    "duration": 0.7741940000000014
                },
                {
                    "name": "D5",
                    "midi": 74,
                    "time": 59.225841000000045,
                    "velocity": 0.47244094488188976,
                    "duration": 0.7741940000000014
                },
                {
                    "name": "A#4",
                    "midi": 70,
                    "time": 60.00003500000005,
                    "velocity": 0.4015748031496063,
                    "duration": 0.6572584479166679
                },
                {
                    "name": "D5",
                    "midi": 74,
                    "time": 60.00003500000005,
                    "velocity": 0.47244094488188976,
                    "duration": 0.6572584479166679
                },
                {
                    "name": "A#4",
                    "midi": 70,
                    "time": 60.677454750000045,
                    "velocity": 0.3700787401574803,
                    "duration": 0.048387124999997866
                },
                {
                    "name": "D5",
                    "midi": 74,
                    "time": 60.677454750000045,
                    "velocity": 0.4409448818897638,
                    "duration": 0.048387124999997866
                },
                {
                    "name": "A#4",
                    "midi": 70,
                    "time": 60.77422900000004,
                    "velocity": 0.4015748031496063,
                    "duration": 0.09677425000000284
                },
                {
                    "name": "D5",
                    "midi": 74,
                    "time": 60.77422900000004,
                    "velocity": 0.47244094488188976,
                    "duration": 0.09677425000000284
                },
                {
                    "name": "A#4",
                    "midi": 70,
                    "time": 61.06455175000004,
                    "velocity": 0.3700787401574803,
                    "duration": 0.048387124999997866
                },
                {
                    "name": "D5",
                    "midi": 74,
                    "time": 61.06455175000004,
                    "velocity": 0.4409448818897638,
                    "duration": 0.048387124999997866
                },
                {
                    "name": "A4",
                    "midi": 69,
                    "time": 61.16132600000004,
                    "velocity": 0.3937007874015748,
                    "duration": 0.09677425000000284
                },
                {
                    "name": "C#5",
                    "midi": 73,
                    "time": 61.16132600000004,
                    "velocity": 0.47244094488188976,
                    "duration": 0.09677425000000284
                },
                {
                    "name": "A#4",
                    "midi": 70,
                    "time": 61.45164875000004,
                    "velocity": 0.3700787401574803,
                    "duration": 0.048387124999997866
                },
                {
                    "name": "D5",
                    "midi": 74,
                    "time": 61.45164875000004,
                    "velocity": 0.4409448818897638,
                    "duration": 0.048387124999997866
                },
                {
                    "name": "D5",
                    "midi": 74,
                    "time": 61.548423000000035,
                    "velocity": 0.4015748031496063,
                    "duration": 0.7741940000000014
                },
                {
                    "name": "F5",
                    "midi": 77,
                    "time": 61.548423000000035,
                    "velocity": 0.47244094488188976,
                    "duration": 0.7741940000000014
                },
                {
                    "name": "C5",
                    "midi": 72,
                    "time": 62.32261700000004,
                    "velocity": 0.4015748031496063,
                    "duration": 0.6572584479166679
                },
                {
                    "name": "D#5",
                    "midi": 75,
                    "time": 62.32261700000004,
                    "velocity": 0.47244094488188976,
                    "duration": 0.6572584479166679
                },
                {
                    "name": "F5",
                    "midi": 77,
                    "time": 63.000036750000035,
                    "velocity": 0.3700787401574803,
                    "duration": 0.048387124999997866
                },
                {
                    "name": "C5",
                    "midi": 72,
                    "time": 63.000036750000035,
                    "velocity": 0.3700787401574803,
                    "duration": 0.048387124999997866
                },
                {
                    "name": "D#5",
                    "midi": 75,
                    "time": 63.000036750000035,
                    "velocity": 0.4409448818897638,
                    "duration": 0.048387124999997866
                },
                {
                    "name": "F5",
                    "midi": 77,
                    "time": 63.09681100000003,
                    "velocity": 0.4015748031496063,
                    "duration": 0.09677425000000284
                },
                {
                    "name": "C5",
                    "midi": 72,
                    "time": 63.09681100000003,
                    "velocity": 0.4015748031496063,
                    "duration": 0.09677425000000284
                },
                {
                    "name": "D#5",
                    "midi": 75,
                    "time": 63.09681100000003,
                    "velocity": 0.47244094488188976,
                    "duration": 0.09677425000000284
                },
                {
                    "name": "F5",
                    "midi": 77,
                    "time": 63.38713375000003,
                    "velocity": 0.3700787401574803,
                    "duration": 0.048387124999997866
                },
                {
                    "name": "C5",
                    "midi": 72,
                    "time": 63.38713375000003,
                    "velocity": 0.3700787401574803,
                    "duration": 0.048387124999997866
                },
                {
                    "name": "D#5",
                    "midi": 75,
                    "time": 63.38713375000003,
                    "velocity": 0.4409448818897638,
                    "duration": 0.048387124999997866
                },
                {
                    "name": "F5",
                    "midi": 77,
                    "time": 63.48390800000003,
                    "velocity": 0.3937007874015748,
                    "duration": 0.09677425000000284
                },
                {
                    "name": "B4",
                    "midi": 71,
                    "time": 63.48390800000003,
                    "velocity": 0.3937007874015748,
                    "duration": 0.09677425000000284
                },
                {
                    "name": "D5",
                    "midi": 74,
                    "time": 63.48390800000003,
                    "velocity": 0.47244094488188976,
                    "duration": 0.09677425000000284
                },
                {
                    "name": "F5",
                    "midi": 77,
                    "time": 63.77423075000003,
                    "velocity": 0.4409448818897638,
                    "duration": 0.048387124999997866
                },
                {
                    "name": "C5",
                    "midi": 72,
                    "time": 63.77423075000003,
                    "velocity": 0.3700787401574803,
                    "duration": 0.048387124999997866
                },
                {
                    "name": "D#5",
                    "midi": 75,
                    "time": 63.77423075000003,
                    "velocity": 0.4409448818897638,
                    "duration": 0.048387124999997866
                },
                {
                    "name": "A4",
                    "midi": 69,
                    "time": 63.871005000000025,
                    "velocity": 0.4015748031496063,
                    "duration": 0.7669359312500035
                },
                {
                    "name": "C5",
                    "midi": 72,
                    "time": 63.871005000000025,
                    "velocity": 0.4015748031496063,
                    "duration": 0.7669359312500035
                },
                {
                    "name": "F5",
                    "midi": 77,
                    "time": 63.871005000000025,
                    "velocity": 0.47244094488188976,
                    "duration": 0.7669359312500035
                },
                {
                    "name": "A4",
                    "midi": 69,
                    "time": 64.64519900000003,
                    "velocity": 0.4015748031496063,
                    "duration": 0.6572584479166608
                },
                {
                    "name": "C5",
                    "midi": 72,
                    "time": 64.64519900000003,
                    "velocity": 0.4015748031496063,
                    "duration": 0.6572584479166608
                },
                {
                    "name": "F5",
                    "midi": 77,
                    "time": 64.64519900000003,
                    "velocity": 0.47244094488188976,
                    "duration": 0.6572584479166608
                },
                {
                    "name": "F5",
                    "midi": 77,
                    "time": 65.32261875000003,
                    "velocity": 0.3700787401574803,
                    "duration": 0.04838712500000497
                },
                {
                    "name": "A4",
                    "midi": 69,
                    "time": 65.32261875000003,
                    "velocity": 0.3700787401574803,
                    "duration": 0.04838712500000497
                },
                {
                    "name": "C5",
                    "midi": 72,
                    "time": 65.32261875000003,
                    "velocity": 0.4409448818897638,
                    "duration": 0.04838712500000497
                },
                {
                    "name": "F5",
                    "midi": 77,
                    "time": 65.41939300000004,
                    "velocity": 0.4015748031496063,
                    "duration": 0.09677424999999573
                },
                {
                    "name": "A4",
                    "midi": 69,
                    "time": 65.41939300000004,
                    "velocity": 0.4015748031496063,
                    "duration": 0.09677424999999573
                },
                {
                    "name": "C5",
                    "midi": 72,
                    "time": 65.41939300000004,
                    "velocity": 0.47244094488188976,
                    "duration": 0.09677424999999573
                },
                {
                    "name": "A4",
                    "midi": 69,
                    "time": 65.70971575000004,
                    "velocity": 0.3700787401574803,
                    "duration": 0.04838712500000497
                },
                {
                    "name": "C5",
                    "midi": 72,
                    "time": 65.70971575000004,
                    "velocity": 0.4409448818897638,
                    "duration": 0.04838712500000497
                },
                {
                    "name": "F5",
                    "midi": 77,
                    "time": 65.70971575000004,
                    "velocity": 0.3700787401574803,
                    "duration": 0.04838712500000497
                },
                {
                    "name": "G#4",
                    "midi": 68,
                    "time": 65.80649000000005,
                    "velocity": 0.3937007874015748,
                    "duration": 0.09677424999999573
                },
                {
                    "name": "B4",
                    "midi": 71,
                    "time": 65.80649000000005,
                    "velocity": 0.47244094488188976,
                    "duration": 0.09677424999999573
                },
                {
                    "name": "F5",
                    "midi": 77,
                    "time": 65.80649000000005,
                    "velocity": 0.3937007874015748,
                    "duration": 0.09677424999999573
                },
                {
                    "name": "A4",
                    "midi": 69,
                    "time": 66.09681275000005,
                    "velocity": 0.3700787401574803,
                    "duration": 0.04838712500000497
                },
                {
                    "name": "C5",
                    "midi": 72,
                    "time": 66.09681275000005,
                    "velocity": 0.4409448818897638,
                    "duration": 0.04838712500000497
                },
                {
                    "name": "F5",
                    "midi": 77,
                    "time": 66.09681275000005,
                    "velocity": 0.4409448818897638,
                    "duration": 0.04838712500000497
                },
                {
                    "name": "C#5",
                    "midi": 73,
                    "time": 66.19358700000006,
                    "velocity": 0.3543307086614173,
                    "duration": 0.7661294791666649
                },
                {
                    "name": "F5",
                    "midi": 77,
                    "time": 66.19358700000006,
                    "velocity": 0.4251968503937008,
                    "duration": 0.7669359312500035
                },
                {
                    "name": "A4",
                    "midi": 69,
                    "time": 66.19358700000006,
                    "velocity": 0.3543307086614173,
                    "duration": 0.7669359312500035
                },
                {
                    "name": "A#4",
                    "midi": 70,
                    "time": 66.96778100000007,
                    "velocity": 0.3543307086614173,
                    "duration": 0.6572584479166608
                },
                {
                    "name": "F5",
                    "midi": 77,
                    "time": 66.96778100000007,
                    "velocity": 0.4251968503937008,
                    "duration": 0.6572584479166608
                },
                {
                    "name": "D5",
                    "midi": 74,
                    "time": 66.96778100000007,
                    "velocity": 0.3543307086614173,
                    "duration": 0.6572584479166608
                },
                {
                    "name": "A#4",
                    "midi": 70,
                    "time": 67.64520075000007,
                    "velocity": 0.3700787401574803,
                    "duration": 0.04838712500000497
                },
                {
                    "name": "F5",
                    "midi": 77,
                    "time": 67.64520075000007,
                    "velocity": 0.4409448818897638,
                    "duration": 0.04838712500000497
                },
                {
                    "name": "D5",
                    "midi": 74,
                    "time": 67.64520075000007,
                    "velocity": 0.3700787401574803,
                    "duration": 0.04838712500000497
                },
                {
                    "name": "A#4",
                    "midi": 70,
                    "time": 67.74197500000008,
                    "velocity": 0.4015748031496063,
                    "duration": 0.09677424999999573
                },
                {
                    "name": "D5",
                    "midi": 74,
                    "time": 67.74197500000008,
                    "velocity": 0.4015748031496063,
                    "duration": 0.09677424999999573
                },
                {
                    "name": "F5",
                    "midi": 77,
                    "time": 67.74197500000008,
                    "velocity": 0.47244094488188976,
                    "duration": 0.09677424999999573
                },
                {
                    "name": "A#4",
                    "midi": 70,
                    "time": 68.03229775000008,
                    "velocity": 0.3779527559055118,
                    "duration": 0.04838712500000497
                },
                {
                    "name": "D5",
                    "midi": 74,
                    "time": 68.03229775000008,
                    "velocity": 0.3779527559055118,
                    "duration": 0.04838712500000497
                },
                {
                    "name": "F5",
                    "midi": 77,
                    "time": 68.03229775000008,
                    "velocity": 0.44881889763779526,
                    "duration": 0.04838712500000497
                },
                {
                    "name": "D5",
                    "midi": 74,
                    "time": 68.1290720000001,
                    "velocity": 0.4094488188976378,
                    "duration": 0.09677424999999573
                },
                {
                    "name": "E5",
                    "midi": 76,
                    "time": 68.1290720000001,
                    "velocity": 0.49606299212598426,
                    "duration": 0.09677424999999573
                },
                {
                    "name": "A#4",
                    "midi": 70,
                    "time": 68.1290720000001,
                    "velocity": 0.4094488188976378,
                    "duration": 0.09677424999999573
                },
                {
                    "name": "D5",
                    "midi": 74,
                    "time": 68.4193947500001,
                    "velocity": 0.3937007874015748,
                    "duration": 0.04838712500000497
                },
                {
                    "name": "F5",
                    "midi": 77,
                    "time": 68.4193947500001,
                    "velocity": 0.47244094488188976,
                    "duration": 0.04838712500000497
                },
                {
                    "name": "A#4",
                    "midi": 70,
                    "time": 68.4193947500001,
                    "velocity": 0.3937007874015748,
                    "duration": 0.04838712500000497
                },
                {
                    "name": "A#4",
                    "midi": 70,
                    "time": 68.5161690000001,
                    "velocity": 0.4409448818897638,
                    "duration": 0.7669359312500035
                },
                {
                    "name": "G5",
                    "midi": 79,
                    "time": 68.5161690000001,
                    "velocity": 0.5196850393700787,
                    "duration": 0.7669359312500035
                },
                {
                    "name": "D5",
                    "midi": 74,
                    "time": 68.5161690000001,
                    "velocity": 0.4409448818897638,
                    "duration": 0.7669359312500035
                },
                {
                    "name": "D5",
                    "midi": 74,
                    "time": 69.29036300000011,
                    "velocity": 0.4409448818897638,
                    "duration": 0.6572584479166608
                },
                {
                    "name": "A#4",
                    "midi": 70,
                    "time": 69.29036300000011,
                    "velocity": 0.4409448818897638,
                    "duration": 0.6572584479166608
                },
                {
                    "name": "G5",
                    "midi": 79,
                    "time": 69.29036300000011,
                    "velocity": 0.5196850393700787,
                    "duration": 0.6572584479166608
                },
                {
                    "name": "D5",
                    "midi": 74,
                    "time": 69.96778275000011,
                    "velocity": 0.4015748031496063,
                    "duration": 0.04838712500000497
                },
                {
                    "name": "A#4",
                    "midi": 70,
                    "time": 69.96778275000011,
                    "velocity": 0.4015748031496063,
                    "duration": 0.04838712500000497
                },
                {
                    "name": "G5",
                    "midi": 79,
                    "time": 69.96778275000011,
                    "velocity": 0.48031496062992124,
                    "duration": 0.04838712500000497
                },
                {
                    "name": "A#4",
                    "midi": 70,
                    "time": 70.06455700000012,
                    "velocity": 0.4409448818897638,
                    "duration": 0.09677424999999573
                },
                {
                    "name": "G5",
                    "midi": 79,
                    "time": 70.06455700000012,
                    "velocity": 0.5196850393700787,
                    "duration": 0.09677424999999573
                },
                {
                    "name": "D5",
                    "midi": 74,
                    "time": 70.06455700000012,
                    "velocity": 0.4409448818897638,
                    "duration": 0.09677424999999573
                },
                {
                    "name": "A#4",
                    "midi": 70,
                    "time": 70.35487975000012,
                    "velocity": 0.3937007874015748,
                    "duration": 0.04838712500000497
                },
                {
                    "name": "A#5",
                    "midi": 82,
                    "time": 70.35487975000012,
                    "velocity": 0.47244094488188976,
                    "duration": 0.04838712500000497
                },
                {
                    "name": "D5",
                    "midi": 74,
                    "time": 70.35487975000012,
                    "velocity": 0.3937007874015748,
                    "duration": 0.04838712500000497
                },
                {
                    "name": "A#4",
                    "midi": 70,
                    "time": 70.45165400000013,
                    "velocity": 0.4251968503937008,
                    "duration": 0.09677424999999573
                },
                {
                    "name": "A5",
                    "midi": 81,
                    "time": 70.45165400000013,
                    "velocity": 0.5039370078740157,
                    "duration": 0.09677424999999573
                },
                {
                    "name": "D5",
                    "midi": 74,
                    "time": 70.45165400000013,
                    "velocity": 0.4251968503937008,
                    "duration": 0.09677424999999573
                },
                {
                    "name": "D5",
                    "midi": 74,
                    "time": 70.74197675000013,
                    "velocity": 0.3858267716535433,
                    "duration": 0.04838712500000497
                },
                {
                    "name": "G5",
                    "midi": 79,
                    "time": 70.74197675000013,
                    "velocity": 0.4645669291338583,
                    "duration": 0.04838712500000497
                },
                {
                    "name": "A#4",
                    "midi": 70,
                    "time": 70.74197675000013,
                    "velocity": 0.3858267716535433,
                    "duration": 0.04838712500000497
                },
                {
                    "name": "A#4",
                    "midi": 70,
                    "time": 70.83875100000014,
                    "velocity": 0.4015748031496063,
                    "duration": 0.7669359312500035
                },
                {
                    "name": "F5",
                    "midi": 77,
                    "time": 70.83875100000014,
                    "velocity": 0.47244094488188976,
                    "duration": 0.7669359312500035
                },
                {
                    "name": "D5",
                    "midi": 74,
                    "time": 70.83875100000014,
                    "velocity": 0.4015748031496063,
                    "duration": 0.7669359312500035
                },
                {
                    "name": "A#4",
                    "midi": 70,
                    "time": 71.61294500000015,
                    "velocity": 0.47244094488188976,
                    "duration": 0.6572584479166608
                },
                {
                    "name": "D5",
                    "midi": 74,
                    "time": 71.61294500000015,
                    "velocity": 0.4015748031496063,
                    "duration": 0.6572584479166608
                },
                {
                    "name": "F5",
                    "midi": 77,
                    "time": 71.61294500000015,
                    "velocity": 0.47244094488188976,
                    "duration": 0.6572584479166608
                },
                {
                    "name": "F5",
                    "midi": 77,
                    "time": 72.29036475000015,
                    "velocity": 0.3700787401574803,
                    "duration": 0.04838712500000497
                },
                {
                    "name": "A#4",
                    "midi": 70,
                    "time": 72.29036475000015,
                    "velocity": 0.3700787401574803,
                    "duration": 0.04838712500000497
                },
                {
                    "name": "D5",
                    "midi": 74,
                    "time": 72.29036475000015,
                    "velocity": 0.4409448818897638,
                    "duration": 0.04838712500000497
                },
                {
                    "name": "F5",
                    "midi": 77,
                    "time": 72.38713900000016,
                    "velocity": 0.4015748031496063,
                    "duration": 0.09677424999999573
                },
                {
                    "name": "A#4",
                    "midi": 70,
                    "time": 72.38713900000016,
                    "velocity": 0.4015748031496063,
                    "duration": 0.09677424999999573
                },
                {
                    "name": "D5",
                    "midi": 74,
                    "time": 72.38713900000016,
                    "velocity": 0.47244094488188976,
                    "duration": 0.09677424999999573
                },
                {
                    "name": "A#4",
                    "midi": 70,
                    "time": 72.67746175000016,
                    "velocity": 0.3700787401574803,
                    "duration": 0.04838712500000497
                },
                {
                    "name": "D5",
                    "midi": 74,
                    "time": 72.67746175000016,
                    "velocity": 0.4409448818897638,
                    "duration": 0.04838712500000497
                },
                {
                    "name": "F5",
                    "midi": 77,
                    "time": 72.67746175000016,
                    "velocity": 0.3700787401574803,
                    "duration": 0.04838712500000497
                },
                {
                    "name": "A#4",
                    "midi": 70,
                    "time": 72.77423600000017,
                    "velocity": 0.3937007874015748,
                    "duration": 0.09677424999999573
                },
                {
                    "name": "D#5",
                    "midi": 75,
                    "time": 72.77423600000017,
                    "velocity": 0.47244094488188976,
                    "duration": 0.09677424999999573
                },
                {
                    "name": "G5",
                    "midi": 79,
                    "time": 72.77423600000017,
                    "velocity": 0.3937007874015748,
                    "duration": 0.09677424999999573
                },
                {
                    "name": "D5",
                    "midi": 74,
                    "time": 73.06455875000017,
                    "velocity": 0.4409448818897638,
                    "duration": 0.04838712500000497
                },
                {
                    "name": "F5",
                    "midi": 77,
                    "time": 73.06455875000017,
                    "velocity": 0.4409448818897638,
                    "duration": 0.04838712500000497
                },
                {
                    "name": "A#4",
                    "midi": 70,
                    "time": 73.06455875000017,
                    "velocity": 0.3700787401574803,
                    "duration": 0.04838712500000497
                },
                {
                    "name": "A4",
                    "midi": 69,
                    "time": 73.16133300000018,
                    "velocity": 0.4015748031496063,
                    "duration": 0.7741939999999943
                },
                {
                    "name": "F5",
                    "midi": 77,
                    "time": 73.16133300000018,
                    "velocity": 0.47244094488188976,
                    "duration": 0.7741939999999943
                },
                {
                    "name": "C5",
                    "midi": 72,
                    "time": 73.16133300000018,
                    "velocity": 0.4015748031496063,
                    "duration": 0.7741939999999943
                },
                {
                    "name": "A4",
                    "midi": 69,
                    "time": 73.93552700000018,
                    "velocity": 0.3779527559055118,
                    "duration": 0.6572584479166608
                },
                {
                    "name": "D#5",
                    "midi": 75,
                    "time": 73.93552700000018,
                    "velocity": 0.44881889763779526,
                    "duration": 0.6572584479166608
                },
                {
                    "name": "C5",
                    "midi": 72,
                    "time": 73.93552700000018,
                    "velocity": 0.3779527559055118,
                    "duration": 0.6572584479166608
                },
                {
                    "name": "F4",
                    "midi": 65,
                    "time": 74.61294675000018,
                    "velocity": 0.3464566929133858,
                    "duration": 0.04838712500000497
                },
                {
                    "name": "D#5",
                    "midi": 75,
                    "time": 74.61294675000018,
                    "velocity": 0.3464566929133858,
                    "duration": 0.04838712500000497
                },
                {
                    "name": "C5",
                    "midi": 72,
                    "time": 74.61294675000018,
                    "velocity": 0.41732283464566927,
                    "duration": 0.04838712500000497
                },
                {
                    "name": "D#5",
                    "midi": 75,
                    "time": 74.70972100000019,
                    "velocity": 0.3779527559055118,
                    "duration": 0.09677424999999573
                },
                {
                    "name": "F4",
                    "midi": 65,
                    "time": 74.70972100000019,
                    "velocity": 0.3779527559055118,
                    "duration": 0.09677424999999573
                },
                {
                    "name": "C5",
                    "midi": 72,
                    "time": 74.70972100000019,
                    "velocity": 0.44881889763779526,
                    "duration": 0.09677424999999573
                },
                {
                    "name": "C5",
                    "midi": 72,
                    "time": 75.00004375000019,
                    "velocity": 0.41732283464566927,
                    "duration": 0.04838712500000497
                },
                {
                    "name": "F4",
                    "midi": 65,
                    "time": 75.00004375000019,
                    "velocity": 0.3464566929133858,
                    "duration": 0.04838712500000497
                },
                {
                    "name": "D#5",
                    "midi": 75,
                    "time": 75.00004375000019,
                    "velocity": 0.3464566929133858,
                    "duration": 0.04838712500000497
                },
                {
                    "name": "D5",
                    "midi": 74,
                    "time": 75.0968180000002,
                    "velocity": 0.3700787401574803,
                    "duration": 0.09677424999999573
                },
                {
                    "name": "B4",
                    "midi": 71,
                    "time": 75.0968180000002,
                    "velocity": 0.44881889763779526,
                    "duration": 0.09677424999999573
                },
                {
                    "name": "F4",
                    "midi": 65,
                    "time": 75.0968180000002,
                    "velocity": 0.3700787401574803,
                    "duration": 0.09677424999999573
                },
                {
                    "name": "C5",
                    "midi": 72,
                    "time": 75.3871407500002,
                    "velocity": 0.41732283464566927,
                    "duration": 0.04838712500000497
                },
                {
                    "name": "A4",
                    "midi": 69,
                    "time": 75.3871407500002,
                    "velocity": 0.41732283464566927,
                    "duration": 0.04838712500000497
                },
                {
                    "name": "F4",
                    "midi": 65,
                    "time": 75.3871407500002,
                    "velocity": 0.3464566929133858,
                    "duration": 0.04838712500000497
                },
                {
                    "name": "F4",
                    "midi": 65,
                    "time": 75.48391500000021,
                    "velocity": 0.31496062992125984,
                    "duration": 0.7741939999999943
                },
                {
                    "name": "D4",
                    "midi": 62,
                    "time": 75.48391500000021,
                    "velocity": 0.31496062992125984,
                    "duration": 0.7741939999999943
                },
                {
                    "name": "A#4",
                    "midi": 70,
                    "time": 75.48391500000021,
                    "velocity": 0.3779527559055118,
                    "duration": 0.7741939999999943
                },
                {
                    "name": "D4",
                    "midi": 62,
                    "time": 76.2581090000002,
                    "velocity": 0.31496062992125984,
                    "duration": 0.6572584479166608
                },
                {
                    "name": "F4",
                    "midi": 65,
                    "time": 76.2581090000002,
                    "velocity": 0.31496062992125984,
                    "duration": 0.6572584479166608
                },
                {
                    "name": "A#4",
                    "midi": 70,
                    "time": 76.2581090000002,
                    "velocity": 0.3779527559055118,
                    "duration": 0.6572584479166608
                },
                {
                    "name": "F4",
                    "midi": 65,
                    "time": 76.9355287500002,
                    "velocity": 0.30708661417322836,
                    "duration": 0.04838712500000497
                },
                {
                    "name": "C5",
                    "midi": 72,
                    "time": 76.9355287500002,
                    "velocity": 0.3700787401574803,
                    "duration": 0.04838712500000497
                },
                {
                    "name": "D#5",
                    "midi": 75,
                    "time": 76.9355287500002,
                    "velocity": 0.30708661417322836,
                    "duration": 0.04838712500000497
                },
                {
                    "name": "F4",
                    "midi": 65,
                    "time": 77.03230300000021,
                    "velocity": 0.33858267716535434,
                    "duration": 0.09677424999999573
                },
                {
                    "name": "C5",
                    "midi": 72,
                    "time": 77.03230300000021,
                    "velocity": 0.4015748031496063,
                    "duration": 0.09677424999999573
                },
                {
                    "name": "D#5",
                    "midi": 75,
                    "time": 77.03230300000021,
                    "velocity": 0.33858267716535434,
                    "duration": 0.09677424999999573
                },
                {
                    "name": "C5",
                    "midi": 72,
                    "time": 77.32262575000021,
                    "velocity": 0.3700787401574803,
                    "duration": 0.04838712500000497
                },
                {
                    "name": "D#5",
                    "midi": 75,
                    "time": 77.32262575000021,
                    "velocity": 0.30708661417322836,
                    "duration": 0.04838712500000497
                },
                {
                    "name": "F4",
                    "midi": 65,
                    "time": 77.32262575000021,
                    "velocity": 0.30708661417322836,
                    "duration": 0.04838712500000497
                },
                {
                    "name": "D5",
                    "midi": 74,
                    "time": 77.41940000000022,
                    "velocity": 0.33070866141732286,
                    "duration": 0.09677424999999573
                },
                {
                    "name": "A#4",
                    "midi": 70,
                    "time": 77.41940000000022,
                    "velocity": 0.4015748031496063,
                    "duration": 0.09677424999999573
                },
                {
                    "name": "F4",
                    "midi": 65,
                    "time": 77.41940000000022,
                    "velocity": 0.33070866141732286,
                    "duration": 0.09677424999999573
                },
                {
                    "name": "C5",
                    "midi": 72,
                    "time": 77.70972275000022,
                    "velocity": 0.3700787401574803,
                    "duration": 0.04838712500000497
                },
                {
                    "name": "A4",
                    "midi": 69,
                    "time": 77.70972275000022,
                    "velocity": 0.3700787401574803,
                    "duration": 0.04838712500000497
                },
                {
                    "name": "F4",
                    "midi": 65,
                    "time": 77.70972275000022,
                    "velocity": 0.30708661417322836,
                    "duration": 0.04838712500000497
                },
                {
                    "name": "F4",
                    "midi": 65,
                    "time": 77.80649700000023,
                    "velocity": 0.2992125984251969,
                    "duration": 0.7741939999999943
                },
                {
                    "name": "A#4",
                    "midi": 70,
                    "time": 77.80649700000023,
                    "velocity": 0.3543307086614173,
                    "duration": 0.7741939999999943
                },
                {
                    "name": "D4",
                    "midi": 62,
                    "time": 77.80649700000023,
                    "velocity": 0.2992125984251969,
                    "duration": 0.7741939999999943
                },
                {
                    "name": "A#4",
                    "midi": 70,
                    "time": 78.58069100000023,
                    "velocity": 0.3543307086614173,
                    "duration": 0.6572584479166608
                },
                {
                    "name": "F4",
                    "midi": 65,
                    "time": 78.58069100000023,
                    "velocity": 0.2992125984251969,
                    "duration": 0.6572584479166608
                },
                {
                    "name": "D4",
                    "midi": 62,
                    "time": 78.58069100000023,
                    "velocity": 0.2992125984251969,
                    "duration": 0.6572584479166608
                },
                {
                    "name": "D#5",
                    "midi": 75,
                    "time": 79.25811075000023,
                    "velocity": 0.2755905511811024,
                    "duration": 0.04838712500000497
                },
                {
                    "name": "F4",
                    "midi": 65,
                    "time": 79.25811075000023,
                    "velocity": 0.2755905511811024,
                    "duration": 0.04838712500000497
                },
                {
                    "name": "C5",
                    "midi": 72,
                    "time": 79.25811075000023,
                    "velocity": 0.33070866141732286,
                    "duration": 0.04838712500000497
                },
                {
                    "name": "D#5",
                    "midi": 75,
                    "time": 79.35488500000024,
                    "velocity": 0.2992125984251969,
                    "duration": 0.09677424999999573
                },
                {
                    "name": "F4",
                    "midi": 65,
                    "time": 79.35488500000024,
                    "velocity": 0.2992125984251969,
                    "duration": 0.09677424999999573
                },
                {
                    "name": "C5",
                    "midi": 72,
                    "time": 79.35488500000024,
                    "velocity": 0.3543307086614173,
                    "duration": 0.09677424999999573
                },
                {
                    "name": "D#5",
                    "midi": 75,
                    "time": 79.64520775000024,
                    "velocity": 0.2677165354330709,
                    "duration": 0.04838712500000497
                },
                {
                    "name": "F4",
                    "midi": 65,
                    "time": 79.64520775000024,
                    "velocity": 0.2677165354330709,
                    "duration": 0.04838712500000497
                },
                {
                    "name": "C5",
                    "midi": 72,
                    "time": 79.64520775000024,
                    "velocity": 0.3228346456692913,
                    "duration": 0.04838712500000497
                },
                {
                    "name": "D5",
                    "midi": 74,
                    "time": 79.74198200000025,
                    "velocity": 0.28346456692913385,
                    "duration": 0.09677424999999573
                },
                {
                    "name": "F4",
                    "midi": 65,
                    "time": 79.74198200000025,
                    "velocity": 0.28346456692913385,
                    "duration": 0.09677424999999573
                },
                {
                    "name": "A#4",
                    "midi": 70,
                    "time": 79.74198200000025,
                    "velocity": 0.3464566929133858,
                    "duration": 0.09677424999999573
                },
                {
                    "name": "C5",
                    "midi": 72,
                    "time": 80.03230475000025,
                    "velocity": 0.30708661417322836,
                    "duration": 0.04838712500000497
                },
                {
                    "name": "F4",
                    "midi": 65,
                    "time": 80.03230475000025,
                    "velocity": 0.25984251968503935,
                    "duration": 0.04838712500000497
                },
                {
                    "name": "A4",
                    "midi": 69,
                    "time": 80.03230475000025,
                    "velocity": 0.30708661417322836,
                    "duration": 0.04838712500000497
                },
                {
                    "name": "D4",
                    "midi": 62,
                    "time": 80.12907900000026,
                    "velocity": 0.2440944881889764,
                    "duration": 0.282258229166672
                },
                {
                    "name": "F4",
                    "midi": 65,
                    "time": 80.12907900000026,
                    "velocity": 0.2440944881889764,
                    "duration": 0.282258229166672
                },
                {
                    "name": "A#4",
                    "midi": 70,
                    "time": 80.12907900000026,
                    "velocity": 0.29133858267716534,
                    "duration": 0.282258229166672
                },
                {
                    "name": "A#2",
                    "midi": 46,
                    "time": 80.41940175000026,
                    "velocity": 0.5511811023622047,
                    "duration": 0.04838712500000497
                },
                {
                    "name": "A#2",
                    "midi": 46,
                    "time": 80.51617600000027,
                    "velocity": 0.5984251968503937,
                    "duration": 0.09677424999999573
                },
                {
                    "name": "A#2",
                    "midi": 46,
                    "time": 80.80649875000027,
                    "velocity": 0.5511811023622047,
                    "duration": 0.04838712500000497
                },
                {
                    "name": "A#2",
                    "midi": 46,
                    "time": 80.90327300000028,
                    "velocity": 0.5905511811023622,
                    "duration": 0.09677424999999573
                },
                {
                    "name": "C3",
                    "midi": 48,
                    "time": 81.19359575000028,
                    "velocity": 0.5511811023622047,
                    "duration": 0.04838712500000497
                },
                {
                    "name": "D3",
                    "midi": 50,
                    "time": 81.2903700000003,
                    "velocity": 0.5905511811023622,
                    "duration": 0.282258229166672
                },
                {
                    "name": "D3",
                    "midi": 50,
                    "time": 81.5806927500003,
                    "velocity": 0.4645669291338583,
                    "duration": 0.04838712500000497
                },
                {
                    "name": "D4",
                    "midi": 62,
                    "time": 81.5806927500003,
                    "velocity": 0.5511811023622047,
                    "duration": 0.04838712500000497
                },
                {
                    "name": "D3",
                    "midi": 50,
                    "time": 81.6774670000003,
                    "velocity": 0.5039370078740157,
                    "duration": 0.09677424999999573
                },
                {
                    "name": "D4",
                    "midi": 62,
                    "time": 81.6774670000003,
                    "velocity": 0.5984251968503937,
                    "duration": 0.09677424999999573
                },
                {
                    "name": "D3",
                    "midi": 50,
                    "time": 81.9677897500003,
                    "velocity": 0.4645669291338583,
                    "duration": 0.04838712500000497
                },
                {
                    "name": "D4",
                    "midi": 62,
                    "time": 81.9677897500003,
                    "velocity": 0.5511811023622047,
                    "duration": 0.04838712500000497
                },
                {
                    "name": "D3",
                    "midi": 50,
                    "time": 82.06456400000032,
                    "velocity": 0.49606299212598426,
                    "duration": 0.09677424999999573
                },
                {
                    "name": "D4",
                    "midi": 62,
                    "time": 82.06456400000032,
                    "velocity": 0.5905511811023622,
                    "duration": 0.09677424999999573
                },
                {
                    "name": "E3",
                    "midi": 52,
                    "time": 82.35488675000032,
                    "velocity": 0.4645669291338583,
                    "duration": 0.04838712500000497
                },
                {
                    "name": "E4",
                    "midi": 64,
                    "time": 82.35488675000032,
                    "velocity": 0.5511811023622047,
                    "duration": 0.04838712500000497
                },
                {
                    "name": "F3",
                    "midi": 53,
                    "time": 82.45166100000033,
                    "velocity": 0.5433070866141733,
                    "duration": 0.2903227500000014
                },
                {
                    "name": "F4",
                    "midi": 65,
                    "time": 82.45166100000033,
                    "velocity": 0.6456692913385826,
                    "duration": 0.282258229166672
                },
                {
                    "name": "F3",
                    "midi": 53,
                    "time": 82.74198375000033,
                    "velocity": 0.6062992125984252,
                    "duration": 0.04838712500000497
                },
                {
                    "name": "F3",
                    "midi": 53,
                    "time": 82.83875800000034,
                    "velocity": 0.6535433070866141,
                    "duration": 0.09677424999999573
                },
                {
                    "name": "F3",
                    "midi": 53,
                    "time": 83.12908075000034,
                    "velocity": 0.6062992125984252,
                    "duration": 0.04838712500000497
                },
                {
                    "name": "F3",
                    "midi": 53,
                    "time": 83.22585500000035,
                    "velocity": 0.6456692913385826,
                    "duration": 0.09677424999999573
                },
                {
                    "name": "G3",
                    "midi": 55,
                    "time": 83.51617775000035,
                    "velocity": 0.6062992125984252,
                    "duration": 0.04838712500000497
                },
                {
                    "name": "A3",
                    "midi": 57,
                    "time": 83.61295200000036,
                    "velocity": 0.7086614173228346,
                    "duration": 0.282258229166672
                },
                {
                    "name": "A3",
                    "midi": 57,
                    "time": 83.90327475000036,
                    "velocity": 0.47244094488188976,
                    "duration": 0.04838712500000497
                },
                {
                    "name": "A4",
                    "midi": 69,
                    "time": 83.90327475000036,
                    "velocity": 0.5590551181102362,
                    "duration": 0.04838712500000497
                },
                {
                    "name": "A3",
                    "midi": 57,
                    "time": 84.00004900000037,
                    "velocity": 0.5118110236220472,
                    "duration": 0.09677424999999573
                },
                {
                    "name": "A4",
                    "midi": 69,
                    "time": 84.00004900000037,
                    "velocity": 0.6141732283464567,
                    "duration": 0.09677424999999573
                },
                {
                    "name": "B3",
                    "midi": 59,
                    "time": 84.29037175000038,
                    "velocity": 0.48031496062992124,
                    "duration": 0.04838712500000497
                },
                {
                    "name": "B4",
                    "midi": 71,
                    "time": 84.29037175000038,
                    "velocity": 0.5748031496062992,
                    "duration": 0.04838712500000497
                },
                {
                    "name": "C#4",
                    "midi": 61,
                    "time": 84.38714600000039,
                    "velocity": 0.5196850393700787,
                    "duration": 0.09677424999999573
                },
                {
                    "name": "C#5",
                    "midi": 73,
                    "time": 84.38714600000039,
                    "velocity": 0.6220472440944882,
                    "duration": 0.09677424999999573
                },
                {
                    "name": "D4",
                    "midi": 62,
                    "time": 84.67746875000039,
                    "velocity": 0.5039370078740157,
                    "duration": 0.04838712500000497
                },
                {
                    "name": "D5",
                    "midi": 74,
                    "time": 84.67746875000039,
                    "velocity": 0.5984251968503937,
                    "duration": 0.04838712500000497
                },
                {
                    "name": "C#5",
                    "midi": 73,
                    "time": 84.7742430000004,
                    "velocity": 0.5511811023622047,
                    "duration": 0.7741939999999943
                },
                {
                    "name": "E4",
                    "midi": 64,
                    "time": 84.7742430000004,
                    "velocity": 0.5511811023622047,
                    "duration": 0.7508068895833304
                },
                {
                    "name": "A4",
                    "midi": 69,
                    "time": 84.7742430000004,
                    "velocity": 0.5511811023622047,
                    "duration": 0.7508068895833304
                },
                {
                    "name": "E5",
                    "midi": 76,
                    "time": 84.7742430000004,
                    "velocity": 0.6535433070866141,
                    "duration": 0.7508068895833304
                },
                {
                    "name": "E5",
                    "midi": 76,
                    "time": 85.54843700000039,
                    "velocity": 0.6535433070866141,
                    "duration": 0.6572584479166608
                },
                {
                    "name": "C#5",
                    "midi": 73,
                    "time": 85.54843700000039,
                    "velocity": 0.5511811023622047,
                    "duration": 0.6572584479166608
                },
                {
                    "name": "E4",
                    "midi": 64,
                    "time": 85.54843700000039,
                    "velocity": 0.5511811023622047,
                    "duration": 0.6572584479166608
                },
                {
                    "name": "A4",
                    "midi": 69,
                    "time": 85.54843700000039,
                    "velocity": 0.5511811023622047,
                    "duration": 0.6572584479166608
                },
                {
                    "name": "D5",
                    "midi": 74,
                    "time": 86.22585675000039,
                    "velocity": 0.4566929133858268,
                    "duration": 0.0919355375000066
                },
                {
                    "name": "G#4",
                    "midi": 68,
                    "time": 86.22585675000039,
                    "velocity": 0.4566929133858268,
                    "duration": 0.0919355375000066
                },
                {
                    "name": "E5",
                    "midi": 76,
                    "time": 86.22585675000039,
                    "velocity": 0.5748031496062992,
                    "duration": 0.0919355375000066
                },
                {
                    "name": "E5",
                    "midi": 76,
                    "time": 86.3226310000004,
                    "velocity": 0.6456692913385826,
                    "duration": 0.2685485437500006
                },
                {
                    "name": "G#4",
                    "midi": 68,
                    "time": 86.3226310000004,
                    "velocity": 0.5196850393700787,
                    "duration": 0.2758066125000056
                },
                {
                    "name": "D5",
                    "midi": 74,
                    "time": 86.3226310000004,
                    "velocity": 0.5196850393700787,
                    "duration": 0.2758066125000056
                },
                {
                    "name": "E5",
                    "midi": 76,
                    "time": 86.6129537500004,
                    "velocity": 0.6299212598425197,
                    "duration": 0.0919355375000066
                },
                {
                    "name": "G#4",
                    "midi": 68,
                    "time": 86.6129537500004,
                    "velocity": 0.49606299212598426,
                    "duration": 0.0919355375000066
                },
                {
                    "name": "D5",
                    "midi": 74,
                    "time": 86.6129537500004,
                    "velocity": 0.49606299212598426,
                    "duration": 0.0919355375000066
                },
                {
                    "name": "F#5",
                    "midi": 78,
                    "time": 86.70972800000041,
                    "velocity": 0.6692913385826772,
                    "duration": 0.2758066125000056
                },
                {
                    "name": "G#4",
                    "midi": 68,
                    "time": 86.70972800000041,
                    "velocity": 0.5275590551181102,
                    "duration": 0.2758066125000056
                },
                {
                    "name": "D5",
                    "midi": 74,
                    "time": 86.70972800000041,
                    "velocity": 0.5275590551181102,
                    "duration": 0.2758066125000056
                },
                {
                    "name": "G#4",
                    "midi": 68,
                    "time": 87.00005075000041,
                    "velocity": 0.5118110236220472,
                    "duration": 0.09677424999999573
                },
                {
                    "name": "D5",
                    "midi": 74,
                    "time": 87.00005075000041,
                    "velocity": 0.5118110236220472,
                    "duration": 0.09677424999999573
                },
                {
                    "name": "G#5",
                    "midi": 80,
                    "time": 87.00005075000041,
                    "velocity": 0.6535433070866141,
                    "duration": 0.09677424999999573
                },
                {
                    "name": "A4",
                    "midi": 69,
                    "time": 87.09682500000041,
                    "velocity": 0.6141732283464567,
                    "duration": 0.7508068895833304
                },
                {
                    "name": "C#5",
                    "midi": 73,
                    "time": 87.09682500000041,
                    "velocity": 0.6141732283464567,
                    "duration": 0.7508068895833304
                },
                {
                    "name": "A5",
                    "midi": 81,
                    "time": 87.09682500000041,
                    "velocity": 0.7322834645669292,
                    "duration": 0.7508068895833304
                },
                {
                    "name": "C#5",
                    "midi": 73,
                    "time": 87.8710190000004,
                    "velocity": 0.6141732283464567,
                    "duration": 0.6612907083333397
                },
                {
                    "name": "A4",
                    "midi": 69,
                    "time": 87.8710190000004,
                    "velocity": 0.6141732283464567,
                    "duration": 0.6612907083333397
                },
                {
                    "name": "A5",
                    "midi": 81,
                    "time": 87.8710190000004,
                    "velocity": 0.7322834645669292,
                    "duration": 0.6612907083333397
                },
                {
                    "name": "A3",
                    "midi": 57,
                    "time": 88.54843875000041,
                    "velocity": 0.3700787401574803,
                    "duration": 0.04838712500000497
                },
                {
                    "name": "G3",
                    "midi": 55,
                    "time": 88.54843875000041,
                    "velocity": 0.3700787401574803,
                    "duration": 0.04838712500000497
                },
                {
                    "name": "C#4",
                    "midi": 61,
                    "time": 88.54843875000041,
                    "velocity": 0.4409448818897638,
                    "duration": 0.04838712500000497
                },
                {
                    "name": "D4",
                    "midi": 62,
                    "time": 88.64521300000042,
                    "velocity": 0.47244094488188976,
                    "duration": 0.09677424999999573
                },
                {
                    "name": "G3",
                    "midi": 55,
                    "time": 88.64521300000042,
                    "velocity": 0.4015748031496063,
                    "duration": 0.09677424999999573
                },
                {
                    "name": "A3",
                    "midi": 57,
                    "time": 88.64521300000042,
                    "velocity": 0.4015748031496063,
                    "duration": 0.09677424999999573
                },
                {
                    "name": "G3",
                    "midi": 55,
                    "time": 88.93553575000043,
                    "velocity": 0.3700787401574803,
                    "duration": 0.04838712500000497
                },
                {
                    "name": "A3",
                    "midi": 57,
                    "time": 88.93553575000043,
                    "velocity": 0.3700787401574803,
                    "duration": 0.04838712500000497
                },
                {
                    "name": "C#4",
                    "midi": 61,
                    "time": 88.93553575000043,
                    "velocity": 0.4409448818897638,
                    "duration": 0.04838712500000497
                },
                {
                    "name": "G3",
                    "midi": 55,
                    "time": 89.03231000000044,
                    "velocity": 0.3937007874015748,
                    "duration": 0.09677424999999573
                },
                {
                    "name": "A3",
                    "midi": 57,
                    "time": 89.03231000000044,
                    "velocity": 0.3937007874015748,
                    "duration": 0.09677424999999573
                },
                {
                    "name": "D4",
                    "midi": 62,
                    "time": 89.03231000000044,
                    "velocity": 0.47244094488188976,
                    "duration": 0.09677424999999573
                },
                {
                    "name": "A3",
                    "midi": 57,
                    "time": 89.32263275000044,
                    "velocity": 0.3700787401574803,
                    "duration": 0.04838712500000497
                },
                {
                    "name": "G3",
                    "midi": 55,
                    "time": 89.32263275000044,
                    "velocity": 0.3700787401574803,
                    "duration": 0.04838712500000497
                },
                {
                    "name": "E4",
                    "midi": 64,
                    "time": 89.32263275000044,
                    "velocity": 0.4409448818897638,
                    "duration": 0.04838712500000497
                },
                {
                    "name": "A3",
                    "midi": 57,
                    "time": 89.41940700000045,
                    "velocity": 0.5039370078740157,
                    "duration": 0.7508068895833304
                },
                {
                    "name": "F#3",
                    "midi": 54,
                    "time": 89.41940700000045,
                    "velocity": 0.4251968503937008,
                    "duration": 0.7508068895833304
                },
                {
                    "name": "A3",
                    "midi": 57,
                    "time": 90.19360100000044,
                    "velocity": 0.4251968503937008,
                    "duration": 0.6572584479166608
                },
                {
                    "name": "F#4",
                    "midi": 66,
                    "time": 90.19360100000044,
                    "velocity": 0.5039370078740157,
                    "duration": 0.6572584479166608
                },
                {
                    "name": "F#4",
                    "midi": 66,
                    "time": 90.87102075000044,
                    "velocity": 0.41732283464566927,
                    "duration": 0.09677424999999573
                },
                {
                    "name": "A3",
                    "midi": 57,
                    "time": 90.87102075000044,
                    "velocity": 0.41732283464566927,
                    "duration": 0.09677424999999573
                },
                {
                    "name": "G3",
                    "midi": 55,
                    "time": 90.96779500000044,
                    "velocity": 0.47244094488188976,
                    "duration": 0.09677424999999573
                },
                {
                    "name": "G4",
                    "midi": 67,
                    "time": 90.96779500000044,
                    "velocity": 0.47244094488188976,
                    "duration": 0.09677424999999573
                },
                {
                    "name": "G3",
                    "midi": 55,
                    "time": 91.25811775000044,
                    "velocity": 0.4409448818897638,
                    "duration": 0.09677424999999573
                },
                {
                    "name": "F#4",
                    "midi": 66,
                    "time": 91.25811775000044,
                    "velocity": 0.4409448818897638,
                    "duration": 0.09677424999999573
                },
                {
                    "name": "E4",
                    "midi": 64,
                    "time": 91.35489200000043,
                    "velocity": 0.4645669291338583,
                    "duration": 0.09677424999999573
                },
                {
                    "name": "G#3",
                    "midi": 56,
                    "time": 91.35489200000043,
                    "velocity": 0.4645669291338583,
                    "duration": 0.09677424999999573
                },
                {
                    "name": "G#3",
                    "midi": 56,
                    "time": 91.64521475000043,
                    "velocity": 0.4409448818897638,
                    "duration": 0.09677424999999573
                },
                {
                    "name": "D4",
                    "midi": 62,
                    "time": 91.64521475000043,
                    "velocity": 0.4409448818897638,
                    "duration": 0.09677424999999573
                },
                {
                    "name": "C#4",
                    "midi": 61,
                    "time": 91.74198900000043,
                    "velocity": 0.4251968503937008,
                    "duration": 0.7508068895833304
                },
                {
                    "name": "A3",
                    "midi": 57,
                    "time": 91.74198900000043,
                    "velocity": 0.4251968503937008,
                    "duration": 0.7508068895833304
                },
                {
                    "name": "A4",
                    "midi": 69,
                    "time": 91.74198900000043,
                    "velocity": 0.5039370078740157,
                    "duration": 0.7508068895833304
                },
                {
                    "name": "C#4",
                    "midi": 61,
                    "time": 92.51618300000042,
                    "velocity": 0.4251968503937008,
                    "duration": 0.6572584479166608
                },
                {
                    "name": "E4",
                    "midi": 64,
                    "time": 92.51618300000042,
                    "velocity": 0.5039370078740157,
                    "duration": 0.6572584479166608
                },
                {
                    "name": "A4",
                    "midi": 69,
                    "time": 93.19360275000042,
                    "velocity": 0.41732283464566927,
                    "duration": 0.04838712500000497
                },
                {
                    "name": "E4",
                    "midi": 64,
                    "time": 93.19360275000042,
                    "velocity": 0.41732283464566927,
                    "duration": 0.09677425000000994
                },
                {
                    "name": "C#5",
                    "midi": 73,
                    "time": 93.24198987500043,
                    "velocity": 0.41732283464566927,
                    "duration": 0.04838712500000497
                },
                {
                    "name": "E4",
                    "midi": 64,
                    "time": 93.29037700000043,
                    "velocity": 0.47244094488188976,
                    "duration": 0.09677424999999573
                },
                {
                    "name": "B4",
                    "midi": 71,
                    "time": 93.29037700000043,
                    "velocity": 0.47244094488188976,
                    "duration": 0.09677424999999573
                },
                {
                    "name": "E4",
                    "midi": 64,
                    "time": 93.58069975000043,
                    "velocity": 0.4409448818897638,
                    "duration": 0.09677424999999573
                },
                {
                    "name": "A4",
                    "midi": 69,
                    "time": 93.58069975000043,
                    "velocity": 0.4409448818897638,
                    "duration": 0.09677424999999573
                },
                {
                    "name": "E4",
                    "midi": 64,
                    "time": 93.67747400000043,
                    "velocity": 0.4645669291338583,
                    "duration": 0.09677424999999573
                },
                {
                    "name": "B4",
                    "midi": 71,
                    "time": 93.67747400000043,
                    "velocity": 0.4645669291338583,
                    "duration": 0.09677424999999573
                },
                {
                    "name": "E4",
                    "midi": 64,
                    "time": 93.96779675000043,
                    "velocity": 0.4409448818897638,
                    "duration": 0.09677424999999573
                },
                {
                    "name": "C#5",
                    "midi": 73,
                    "time": 93.96779675000043,
                    "velocity": 0.4409448818897638,
                    "duration": 0.09677424999999573
                },
                {
                    "name": "D4",
                    "midi": 62,
                    "time": 94.06457100000043,
                    "velocity": 0.4251968503937008,
                    "duration": 0.7508068895833304
                },
                {
                    "name": "F#4",
                    "midi": 66,
                    "time": 94.06457100000043,
                    "velocity": 0.4251968503937008,
                    "duration": 0.7508068895833304
                },
                {
                    "name": "D5",
                    "midi": 74,
                    "time": 94.06457100000043,
                    "velocity": 0.5039370078740157,
                    "duration": 0.7508068895833304
                },
                {
                    "name": "F#4",
                    "midi": 66,
                    "time": 94.83876500000042,
                    "velocity": 0.5039370078740157,
                    "duration": 0.6572584479166608
                },
                {
                    "name": "D4",
                    "midi": 62,
                    "time": 94.83876500000042,
                    "velocity": 0.4251968503937008,
                    "duration": 0.6572584479166608
                },
                {
                    "name": "D4",
                    "midi": 62,
                    "time": 95.51618475000042,
                    "velocity": 0.41732283464566927,
                    "duration": 0.09677425000000994
                },
                {
                    "name": "F#4",
                    "midi": 66,
                    "time": 95.51618475000042,
                    "velocity": 0.41732283464566927,
                    "duration": 0.04838712500000497
                },
                {
                    "name": "A4",
                    "midi": 69,
                    "time": 95.56457187500042,
                    "velocity": 0.41732283464566927,
                    "duration": 0.04838712500000497
                },
                {
                    "name": "D4",
                    "midi": 62,
                    "time": 95.61295900000043,
                    "velocity": 0.47244094488188976,
                    "duration": 0.09677424999999573
                },
                {
                    "name": "G#4",
                    "midi": 68,
                    "time": 95.61295900000043,
                    "velocity": 0.47244094488188976,
                    "duration": 0.09677424999999573
                },
                {
                    "name": "D4",
                    "midi": 62,
                    "time": 95.90328175000043,
                    "velocity": 0.4409448818897638,
                    "duration": 0.09677424999999573
                },
                {
                    "name": "F#4",
                    "midi": 66,
                    "time": 95.90328175000043,
                    "velocity": 0.4409448818897638,
                    "duration": 0.09677424999999573
                },
                {
                    "name": "D4",
                    "midi": 62,
                    "time": 96.00005600000043,
                    "velocity": 0.4645669291338583,
                    "duration": 0.09677424999999573
                },
                {
                    "name": "G#4",
                    "midi": 68,
                    "time": 96.00005600000043,
                    "velocity": 0.4645669291338583,
                    "duration": 0.09677424999999573
                },
                {
                    "name": "D4",
                    "midi": 62,
                    "time": 96.29037875000043,
                    "velocity": 0.4409448818897638,
                    "duration": 0.09677424999999573
                },
                {
                    "name": "E4",
                    "midi": 64,
                    "time": 96.29037875000043,
                    "velocity": 0.4409448818897638,
                    "duration": 0.09677424999999573
                },
                {
                    "name": "C#4",
                    "midi": 61,
                    "time": 96.38715300000042,
                    "velocity": 0.4251968503937008,
                    "duration": 0.7508068895833304
                },
                {
                    "name": "B4",
                    "midi": 71,
                    "time": 96.38715300000042,
                    "velocity": 0.5039370078740157,
                    "duration": 0.7508068895833304
                },
                {
                    "name": "A4",
                    "midi": 69,
                    "time": 97.16134700000042,
                    "velocity": 0.5039370078740157,
                    "duration": 0.7661294791666649
                },
                {
                    "name": "C#4",
                    "midi": 61,
                    "time": 97.16134700000042,
                    "velocity": 0.4251968503937008,
                    "duration": 0.7661294791666649
                },
                {
                    "name": "D4",
                    "midi": 62,
                    "time": 97.93554100000041,
                    "velocity": 0.4409448818897638,
                    "duration": 0.3758066708333274
                },
                {
                    "name": "F#4",
                    "midi": 66,
                    "time": 97.93554100000041,
                    "velocity": 0.4409448818897638,
                    "duration": 0.3758066708333274
                },
                {
                    "name": "A4",
                    "midi": 69,
                    "time": 97.93554100000041,
                    "velocity": 0.5275590551181102,
                    "duration": 0.3758066708333274
                },
                {
                    "name": "D4",
                    "midi": 62,
                    "time": 98.32263800000041,
                    "velocity": 0.41732283464566927,
                    "duration": 0.3758066708333274
                },
                {
                    "name": "F#4",
                    "midi": 66,
                    "time": 98.32263800000041,
                    "velocity": 0.41732283464566927,
                    "duration": 0.3758066708333274
                },
                {
                    "name": "A#4",
                    "midi": 70,
                    "time": 98.32263800000041,
                    "velocity": 0.49606299212598426,
                    "duration": 0.3758066708333274
                },
                {
                    "name": "D4",
                    "midi": 62,
                    "time": 98.7097350000004,
                    "velocity": 0.4015748031496063,
                    "duration": 0.7741939999999943
                },
                {
                    "name": "G4",
                    "midi": 67,
                    "time": 98.7097350000004,
                    "velocity": 0.4015748031496063,
                    "duration": 0.7741939999999943
                },
                {
                    "name": "B4",
                    "midi": 71,
                    "time": 98.7097350000004,
                    "velocity": 0.47244094488188976,
                    "duration": 0.7741939999999943
                },
                {
                    "name": "G4",
                    "midi": 67,
                    "time": 99.4839290000004,
                    "velocity": 0.4409448818897638,
                    "duration": 0.3758066708333274
                },
                {
                    "name": "B4",
                    "midi": 71,
                    "time": 99.4839290000004,
                    "velocity": 0.4409448818897638,
                    "duration": 0.3758066708333274
                },
                {
                    "name": "E5",
                    "midi": 76,
                    "time": 99.4839290000004,
                    "velocity": 0.5275590551181102,
                    "duration": 0.3758066708333274
                },
                {
                    "name": "B4",
                    "midi": 71,
                    "time": 99.8710260000004,
                    "velocity": 0.4881889763779528,
                    "duration": 0.19354850000000567
                },
                {
                    "name": "E5",
                    "midi": 76,
                    "time": 99.8710260000004,
                    "velocity": 0.4881889763779528,
                    "duration": 0.19354850000000567
                },
                {
                    "name": "G5",
                    "midi": 79,
                    "time": 99.8710260000004,
                    "velocity": 0.5826771653543307,
                    "duration": 0.19354850000000567
                },
                {
                    "name": "G4",
                    "midi": 67,
                    "time": 100.25812300000041,
                    "velocity": 0.41732283464566927,
                    "duration": 0.19354850000000567
                },
                {
                    "name": "B4",
                    "midi": 71,
                    "time": 100.25812300000041,
                    "velocity": 0.41732283464566927,
                    "duration": 0.19354850000000567
                },
                {
                    "name": "E5",
                    "midi": 76,
                    "time": 100.25812300000041,
                    "velocity": 0.49606299212598426,
                    "duration": 0.2016130208333351
                },
                {
                    "name": "C#4",
                    "midi": 61,
                    "time": 100.6452200000004,
                    "velocity": 0.3858267716535433,
                    "duration": 0.19354850000000567
                },
                {
                    "name": "E4",
                    "midi": 64,
                    "time": 100.6452200000004,
                    "velocity": 0.3858267716535433,
                    "duration": 0.19354850000000567
                },
                {
                    "name": "G4",
                    "midi": 67,
                    "time": 100.6452200000004,
                    "velocity": 0.4566929133858268,
                    "duration": 0.19354850000000567
                },
                {
                    "name": "C#4",
                    "midi": 61,
                    "time": 101.03231700000042,
                    "velocity": 0.4330708661417323,
                    "duration": 0.7741939999999943
                },
                {
                    "name": "F#4",
                    "midi": 66,
                    "time": 101.03231700000042,
                    "velocity": 0.4330708661417323,
                    "duration": 0.7741939999999943
                },
                {
                    "name": "A4",
                    "midi": 69,
                    "time": 101.03231700000042,
                    "velocity": 0.5118110236220472,
                    "duration": 0.7741939999999943
                },
                {
                    "name": "F#4",
                    "midi": 66,
                    "time": 101.80651100000041,
                    "velocity": 0.4645669291338583,
                    "duration": 0.3758066708333274
                },
                {
                    "name": "A4",
                    "midi": 69,
                    "time": 101.80651100000041,
                    "velocity": 0.4645669291338583,
                    "duration": 0.3758066708333274
                },
                {
                    "name": "D5",
                    "midi": 74,
                    "time": 101.80651100000041,
                    "velocity": 0.5511811023622047,
                    "duration": 0.3758066708333274
                },
                {
                    "name": "A4",
                    "midi": 69,
                    "time": 102.19360800000041,
                    "velocity": 0.4645669291338583,
                    "duration": 0.19354850000000567
                },
                {
                    "name": "D5",
                    "midi": 74,
                    "time": 102.19360800000041,
                    "velocity": 0.4645669291338583,
                    "duration": 0.19354850000000567
                },
                {
                    "name": "F#5",
                    "midi": 78,
                    "time": 102.19360800000041,
                    "velocity": 0.5590551181102362,
                    "duration": 0.19354850000000567
                },
                {
                    "name": "F#4",
                    "midi": 66,
                    "time": 102.58070500000042,
                    "velocity": 0.4015748031496063,
                    "duration": 0.19354850000000567
                },
                {
                    "name": "A4",
                    "midi": 69,
                    "time": 102.58070500000042,
                    "velocity": 0.4015748031496063,
                    "duration": 0.19354850000000567
                },
                {
                    "name": "D5",
                    "midi": 74,
                    "time": 102.58070500000042,
                    "velocity": 0.47244094488188976,
                    "duration": 0.19354850000000567
                },
                {
                    "name": "B3",
                    "midi": 59,
                    "time": 102.96780200000043,
                    "velocity": 0.3700787401574803,
                    "duration": 0.19354850000000567
                },
                {
                    "name": "D4",
                    "midi": 62,
                    "time": 102.96780200000043,
                    "velocity": 0.3700787401574803,
                    "duration": 0.19354850000000567
                },
                {
                    "name": "F#4",
                    "midi": 66,
                    "time": 102.96780200000043,
                    "velocity": 0.4409448818897638,
                    "duration": 0.19354850000000567
                },
                {
                    "name": "E4",
                    "midi": 64,
                    "time": 103.35489900000044,
                    "velocity": 0.4409448818897638,
                    "duration": 0.7741939999999943
                },
                {
                    "name": "G4",
                    "midi": 67,
                    "time": 103.35489900000044,
                    "velocity": 0.5275590551181102,
                    "duration": 0.7741939999999943
                },
                {
                    "name": "B3",
                    "midi": 59,
                    "time": 103.35489900000044,
                    "velocity": 0.4409448818897638,
                    "duration": 0.7741939999999943
                },
                {
                    "name": "G4",
                    "midi": 67,
                    "time": 104.12909300000044,
                    "velocity": 0.44881889763779526,
                    "duration": 0.3758066708333274
                },
                {
                    "name": "C#5",
                    "midi": 73,
                    "time": 104.12909300000044,
                    "velocity": 0.5354330708661418,
                    "duration": 0.3758066708333274
                },
                {
                    "name": "E4",
                    "midi": 64,
                    "time": 104.12909300000044,
                    "velocity": 0.44881889763779526,
                    "duration": 0.3758066708333274
                },
                {
                    "name": "E5",
                    "midi": 76,
                    "time": 104.51619000000044,
                    "velocity": 0.5511811023622047,
                    "duration": 0.19354850000000567
                },
                {
                    "name": "G4",
                    "midi": 67,
                    "time": 104.51619000000044,
                    "velocity": 0.4645669291338583,
                    "duration": 0.19354850000000567
                },
                {
                    "name": "C#5",
                    "midi": 73,
                    "time": 104.51619000000044,
                    "velocity": 0.5511811023622047,
                    "duration": 0.19354850000000567
                },
                {
                    "name": "E4",
                    "midi": 64,
                    "time": 104.90328700000045,
                    "velocity": 0.4330708661417323,
                    "duration": 0.19354850000000567
                },
                {
                    "name": "C#5",
                    "midi": 73,
                    "time": 104.90328700000045,
                    "velocity": 0.5118110236220472,
                    "duration": 0.19354850000000567
                },
                {
                    "name": "G4",
                    "midi": 67,
                    "time": 104.90328700000045,
                    "velocity": 0.4330708661417323,
                    "duration": 0.19354850000000567
                },
                {
                    "name": "C#4",
                    "midi": 61,
                    "time": 105.29038400000046,
                    "velocity": 0.3937007874015748,
                    "duration": 0.19354850000000567
                },
                {
                    "name": "B4",
                    "midi": 71,
                    "time": 105.29038400000046,
                    "velocity": 0.4645669291338583,
                    "duration": 0.19354850000000567
                },
                {
                    "name": "G#4",
                    "midi": 68,
                    "time": 105.29038400000046,
                    "velocity": 0.4645669291338583,
                    "duration": 0.19354850000000567
                },
                {
                    "name": "C#4",
                    "midi": 61,
                    "time": 105.67748100000047,
                    "velocity": 0.4330708661417323,
                    "duration": 0.7508068895833304
                },
                {
                    "name": "F#4",
                    "midi": 66,
                    "time": 105.67748100000047,
                    "velocity": 0.4330708661417323,
                    "duration": 0.7741939999999943
                },
                {
                    "name": "A#4",
                    "midi": 70,
                    "time": 105.67748100000047,
                    "velocity": 0.5118110236220472,
                    "duration": 0.7508068895833304
                },
                {
                    "name": "F#4",
                    "midi": 66,
                    "time": 106.45167500000046,
                    "velocity": 0.4015748031496063,
                    "duration": 0.6572584479166608
                },
                {
                    "name": "C#4",
                    "midi": 61,
                    "time": 106.45167500000046,
                    "velocity": 0.4015748031496063,
                    "duration": 0.6572584479166608
                },
                {
                    "name": "A#4",
                    "midi": 70,
                    "time": 106.45167500000046,
                    "velocity": 0.47244094488188976,
                    "duration": 0.6572584479166608
                },
                {
                    "name": "C#5",
                    "midi": 73,
                    "time": 107.12909475000046,
                    "velocity": 0.5590551181102362,
                    "duration": 0.04838712500000497
                },
                {
                    "name": "F#4",
                    "midi": 66,
                    "time": 107.12909475000046,
                    "velocity": 0.47244094488188976,
                    "duration": 0.04838712500000497
                },
                {
                    "name": "D#5",
                    "midi": 75,
                    "time": 107.22586900000047,
                    "velocity": 0.6141732283464567,
                    "duration": 0.09677424999999573
                },
                {
                    "name": "F#4",
                    "midi": 66,
                    "time": 107.22586900000047,
                    "velocity": 0.5118110236220472,
                    "duration": 0.09677424999999573
                },
                {
                    "name": "C#5",
                    "midi": 73,
                    "time": 107.51619175000047,
                    "velocity": 0.5748031496062992,
                    "duration": 0.04838712500000497
                },
                {
                    "name": "F#4",
                    "midi": 66,
                    "time": 107.51619175000047,
                    "velocity": 0.48031496062992124,
                    "duration": 0.04838712500000497
                },
                {
                    "name": "F#4",
                    "midi": 66,
                    "time": 107.61296600000048,
                    "velocity": 0.5196850393700787,
                    "duration": 0.09677424999999573
                },
                {
                    "name": "D#5",
                    "midi": 75,
                    "time": 107.61296600000048,
                    "velocity": 0.6220472440944882,
                    "duration": 0.09677424999999573
                },
                {
                    "name": "C#5",
                    "midi": 73,
                    "time": 107.90328875000048,
                    "velocity": 0.5984251968503937,
                    "duration": 0.04838712500000497
                },
                {
                    "name": "F#4",
                    "midi": 66,
                    "time": 107.90328875000048,
                    "velocity": 0.5039370078740157,
                    "duration": 0.04838712500000497
                },
                {
                    "name": "B4",
                    "midi": 71,
                    "time": 108.0000630000005,
                    "velocity": 0.5511811023622047,
                    "duration": 0.7741939999999943
                },
                {
                    "name": "F5",
                    "midi": 77,
                    "time": 108.0000630000005,
                    "velocity": 0.6535433070866141,
                    "duration": 0.7508068895833304
                },
                {
                    "name": "F4",
                    "midi": 65,
                    "time": 108.0000630000005,
                    "velocity": 0.5511811023622047,
                    "duration": 0.7508068895833304
                },
                {
                    "name": "F5",
                    "midi": 77,
                    "time": 108.77425700000049,
                    "velocity": 0.6535433070866141,
                    "duration": 0.6572584479166608
                },
                {
                    "name": "F4",
                    "midi": 65,
                    "time": 108.77425700000049,
                    "velocity": 0.5511811023622047,
                    "duration": 0.6572584479166608
                },
                {
                    "name": "B4",
                    "midi": 71,
                    "time": 108.77425700000049,
                    "velocity": 0.5511811023622047,
                    "duration": 0.6572584479166608
                },
                {
                    "name": "C#5",
                    "midi": 73,
                    "time": 109.45167675000049,
                    "velocity": 0.4566929133858268,
                    "duration": 0.0919355375000066
                },
                {
                    "name": "F4",
                    "midi": 65,
                    "time": 109.45167675000049,
                    "velocity": 0.4566929133858268,
                    "duration": 0.0919355375000066
                },
                {
                    "name": "F5",
                    "midi": 77,
                    "time": 109.45167675000049,
                    "velocity": 0.5748031496062992,
                    "duration": 0.0919355375000066
                },
                {
                    "name": "F4",
                    "midi": 65,
                    "time": 109.5484510000005,
                    "velocity": 0.5196850393700787,
                    "duration": 0.2758066124999914
                },
                {
                    "name": "C#5",
                    "midi": 73,
                    "time": 109.5484510000005,
                    "velocity": 0.5196850393700787,
                    "duration": 0.2758066124999914
                },
                {
                    "name": "F5",
                    "midi": 77,
                    "time": 109.5484510000005,
                    "velocity": 0.6456692913385826,
                    "duration": 0.26774209166666196
                },
                {
                    "name": "C#5",
                    "midi": 73,
                    "time": 109.83877375000048,
                    "velocity": 0.49606299212598426,
                    "duration": 0.0919355375000066
                },
                {
                    "name": "F5",
                    "midi": 77,
                    "time": 109.83877375000048,
                    "velocity": 0.6299212598425197,
                    "duration": 0.0919355375000066
                },
                {
                    "name": "F4",
                    "midi": 65,
                    "time": 109.83877375000048,
                    "velocity": 0.49606299212598426,
                    "duration": 0.0919355375000066
                },
                {
                    "name": "C#5",
                    "midi": 73,
                    "time": 109.9355480000005,
                    "velocity": 0.5275590551181102,
                    "duration": 0.2758066125000056
                },
                {
                    "name": "F5",
                    "midi": 77,
                    "time": 109.9355480000005,
                    "velocity": 0.6692913385826772,
                    "duration": 0.2758066125000056
                },
                {
                    "name": "F4",
                    "midi": 65,
                    "time": 109.9355480000005,
                    "velocity": 0.5275590551181102,
                    "duration": 0.2758066125000056
                },
                {
                    "name": "F5",
                    "midi": 77,
                    "time": 110.2258707500005,
                    "velocity": 0.6535433070866141,
                    "duration": 0.09677424999999573
                },
                {
                    "name": "F4",
                    "midi": 65,
                    "time": 110.2258707500005,
                    "velocity": 0.5118110236220472,
                    "duration": 0.09677424999999573
                },
                {
                    "name": "C#5",
                    "midi": 73,
                    "time": 110.2258707500005,
                    "velocity": 0.5118110236220472,
                    "duration": 0.09677424999999573
                },
                {
                    "name": "A#4",
                    "midi": 70,
                    "time": 110.32264500000049,
                    "velocity": 0.6141732283464567,
                    "duration": 0.7508068895833304
                },
                {
                    "name": "F#5",
                    "midi": 78,
                    "time": 110.32264500000049,
                    "velocity": 0.7322834645669292,
                    "duration": 0.7508068895833304
                },
                {
                    "name": "F#4",
                    "midi": 66,
                    "time": 110.32264500000049,
                    "velocity": 0.6141732283464567,
                    "duration": 0.7508068895833304
                },
                {
                    "name": "A#4",
                    "midi": 70,
                    "time": 111.09683900000049,
                    "velocity": 0.6141732283464567,
                    "duration": 0.6612907083333397
                },
                {
                    "name": "F#5",
                    "midi": 78,
                    "time": 111.09683900000049,
                    "velocity": 0.7322834645669292,
                    "duration": 0.6612907083333397
                },
                {
                    "name": "F#4",
                    "midi": 66,
                    "time": 111.09683900000049,
                    "velocity": 0.6141732283464567,
                    "duration": 0.6612907083333397
                },
                {
                    "name": "C#5",
                    "midi": 73,
                    "time": 111.7742587500005,
                    "velocity": 0.4409448818897638,
                    "duration": 0.04838712500000497
                },
                {
                    "name": "G4",
                    "midi": 67,
                    "time": 111.7742587500005,
                    "velocity": 0.3700787401574803,
                    "duration": 0.04838712500000497
                },
                {
                    "name": "A4",
                    "midi": 69,
                    "time": 111.7742587500005,
                    "velocity": 0.3700787401574803,
                    "duration": 0.04838712500000497
                },
                {
                    "name": "C#5",
                    "midi": 73,
                    "time": 111.87103300000051,
                    "velocity": 0.47244094488188976,
                    "duration": 0.28145177708333335
                },
                {
                    "name": "A4",
                    "midi": 69,
                    "time": 111.87103300000051,
                    "velocity": 0.4015748031496063,
                    "duration": 0.28145177708333335
                },
                {
                    "name": "G4",
                    "midi": 67,
                    "time": 111.87103300000051,
                    "velocity": 0.4015748031496063,
                    "duration": 0.28145177708333335
                },
                {
                    "name": "G4",
                    "midi": 67,
                    "time": 112.16135575000051,
                    "velocity": 0.3700787401574803,
                    "duration": 0.04838712500000497
                },
                {
                    "name": "A4",
                    "midi": 69,
                    "time": 112.16135575000051,
                    "velocity": 0.3700787401574803,
                    "duration": 0.04838712500000497
                },
                {
                    "name": "C#5",
                    "midi": 73,
                    "time": 112.16135575000051,
                    "velocity": 0.4409448818897638,
                    "duration": 0.04838712500000497
                },
                {
                    "name": "G4",
                    "midi": 67,
                    "time": 112.24683967083385,
                    "velocity": 0.3937007874015748,
                    "duration": 0.28145177708333335
                },
                {
                    "name": "D5",
                    "midi": 74,
                    "time": 112.24683967083385,
                    "velocity": 0.47244094488188976,
                    "duration": 0.28145177708333335
                },
                {
                    "name": "A4",
                    "midi": 69,
                    "time": 112.24683967083385,
                    "velocity": 0.3937007874015748,
                    "duration": 0.28145177708333335
                },
                {
                    "name": "A4",
                    "midi": 69,
                    "time": 112.54845275000052,
                    "velocity": 0.3700787401574803,
                    "duration": 0.04838712500000497
                },
                {
                    "name": "G4",
                    "midi": 67,
                    "time": 112.54845275000052,
                    "velocity": 0.3700787401574803,
                    "duration": 0.04838712500000497
                },
                {
                    "name": "E5",
                    "midi": 76,
                    "time": 112.54845275000052,
                    "velocity": 0.4409448818897638,
                    "duration": 0.04838712500000497
                },
                {
                    "name": "A4",
                    "midi": 69,
                    "time": 112.64522700000053,
                    "velocity": 0.5039370078740157,
                    "duration": 0.7508068895833304
                },
                {
                    "name": "F#4",
                    "midi": 66,
                    "time": 112.64522700000053,
                    "velocity": 0.4251968503937008,
                    "duration": 0.7508068895833304
                },
                {
                    "name": "F#5",
                    "midi": 78,
                    "time": 113.41942100000053,
                    "velocity": 0.5039370078740157,
                    "duration": 0.6572584479166608
                },
                {
                    "name": "F#4",
                    "midi": 66,
                    "time": 113.41942100000053,
                    "velocity": 0.4251968503937008,
                    "duration": 0.6572584479166608
                },
                {
                    "name": "A4",
                    "midi": 69,
                    "time": 113.41942100000053,
                    "velocity": 0.4251968503937008,
                    "duration": 0.6572584479166608
                },
                {
                    "name": "F#4",
                    "midi": 66,
                    "time": 114.09684075000052,
                    "velocity": 0.41732283464566927,
                    "duration": 0.09435489375000827
                },
                {
                    "name": "F#5",
                    "midi": 78,
                    "time": 114.09684075000052,
                    "velocity": 0.41732283464566927,
                    "duration": 0.09354844166666965
                },
                {
                    "name": "F#5",
                    "midi": 78,
                    "time": 114.19361500000053,
                    "velocity": 0.47244094488188976,
                    "duration": 0.09677424999999573
                },
                {
                    "name": "F#4",
                    "midi": 66,
                    "time": 114.19361500000053,
                    "velocity": 0.47244094488188976,
                    "duration": 0.09677424999999573
                },
                {
                    "name": "F#5",
                    "midi": 78,
                    "time": 114.47264742083387,
                    "velocity": 0.4409448818897638,
                    "duration": 0.09354844166666965
                },
                {
                    "name": "F#4",
                    "midi": 66,
                    "time": 114.47264742083387,
                    "velocity": 0.4409448818897638,
                    "duration": 0.09354844166666965
                },
                {
                    "name": "E5",
                    "midi": 76,
                    "time": 114.58071200000053,
                    "velocity": 0.4645669291338583,
                    "duration": 0.09677424999999573
                },
                {
                    "name": "G#4",
                    "midi": 68,
                    "time": 114.58071200000053,
                    "velocity": 0.4645669291338583,
                    "duration": 0.09677424999999573
                },
                {
                    "name": "G#4",
                    "midi": 68,
                    "time": 114.87103475000053,
                    "velocity": 0.4409448818897638,
                    "duration": 0.09677424999999573
                },
                {
                    "name": "D5",
                    "midi": 74,
                    "time": 114.87103475000053,
                    "velocity": 0.4409448818897638,
                    "duration": 0.09677424999999573
                },
                {
                    "name": "A4",
                    "midi": 69,
                    "time": 114.96780900000053,
                    "velocity": 0.4251968503937008,
                    "duration": 0.7508068895833304
                },
                {
                    "name": "C#5",
                    "midi": 73,
                    "time": 114.96780900000053,
                    "velocity": 0.5039370078740157,
                    "duration": 0.7508068895833304
                },
                {
                    "name": "E5",
                    "midi": 76,
                    "time": 115.74200300000052,
                    "velocity": 0.5039370078740157,
                    "duration": 0.6572584479166608
                },
                {
                    "name": "A4",
                    "midi": 69,
                    "time": 115.74200300000052,
                    "velocity": 0.4251968503937008,
                    "duration": 0.6572584479166608
                },
                {
                    "name": "E5",
                    "midi": 76,
                    "time": 116.41942275000052,
                    "velocity": 0.41732283464566927,
                    "duration": 0.09435489374999406
                },
                {
                    "name": "A#4",
                    "midi": 70,
                    "time": 116.41942275000052,
                    "velocity": 0.41732283464566927,
                    "duration": 0.09435489374999406
                },
                {
                    "name": "A#4",
                    "midi": 70,
                    "time": 116.51619700000052,
                    "velocity": 0.47244094488188976,
                    "duration": 0.09677424999999573
                },
                {
                    "name": "E5",
                    "midi": 76,
                    "time": 116.51619700000052,
                    "velocity": 0.47244094488188976,
                    "duration": 0.09677424999999573
                },
                {
                    "name": "A#4",
                    "midi": 70,
                    "time": 116.79522942083385,
                    "velocity": 0.4409448818897638,
                    "duration": 0.09354844166666965
                },
                {
                    "name": "E5",
                    "midi": 76,
                    "time": 116.79522942083385,
                    "velocity": 0.4409448818897638,
                    "duration": 0.09354844166666965
                },
                {
                    "name": "D5",
                    "midi": 74,
                    "time": 116.90329400000051,
                    "velocity": 0.4645669291338583,
                    "duration": 0.09677424999999573
                },
                {
                    "name": "A#4",
                    "midi": 70,
                    "time": 116.90329400000051,
                    "velocity": 0.4645669291338583,
                    "duration": 0.09677424999999573
                },
                {
                    "name": "A#4",
                    "midi": 70,
                    "time": 117.19361675000052,
                    "velocity": 0.4409448818897638,
                    "duration": 0.09677424999999573
                },
                {
                    "name": "C#5",
                    "midi": 73,
                    "time": 117.19361675000052,
                    "velocity": 0.4409448818897638,
                    "duration": 0.09677424999999573
                },
                {
                    "name": "B4",
                    "midi": 71,
                    "time": 117.29039100000051,
                    "velocity": 0.5039370078740157,
                    "duration": 0.7508068895833304
                },
                {
                    "name": "D5",
                    "midi": 74,
                    "time": 118.0645850000005,
                    "velocity": 0.5039370078740157,
                    "duration": 0.6572584479166608
                },
                {
                    "name": "G4",
                    "midi": 67,
                    "time": 118.0645850000005,
                    "velocity": 0.4251968503937008,
                    "duration": 0.6572584479166608
                },
                {
                    "name": "G4",
                    "midi": 67,
                    "time": 118.7420047500005,
                    "velocity": 0.41732283464566927,
                    "duration": 0.09677424999999573
                },
                {
                    "name": "B4",
                    "midi": 71,
                    "time": 118.7420047500005,
                    "velocity": 0.41732283464566927,
                    "duration": 0.09677424999999573
                },
                {
                    "name": "C#4",
                    "midi": 61,
                    "time": 118.7420047500005,
                    "velocity": 0.41732283464566927,
                    "duration": 0.09677424999999573
                },
                {
                    "name": "B4",
                    "midi": 71,
                    "time": 118.8387790000005,
                    "velocity": 0.47244094488188976,
                    "duration": 0.09677424999999573
                },
                {
                    "name": "C#4",
                    "midi": 61,
                    "time": 118.8387790000005,
                    "velocity": 0.47244094488188976,
                    "duration": 0.09677424999999573
                },
                {
                    "name": "G4",
                    "midi": 67,
                    "time": 118.8387790000005,
                    "velocity": 0.47244094488188976,
                    "duration": 0.09677424999999573
                },
                {
                    "name": "B4",
                    "midi": 71,
                    "time": 119.1291017500005,
                    "velocity": 0.4409448818897638,
                    "duration": 0.09677424999999573
                },
                {
                    "name": "C#4",
                    "midi": 61,
                    "time": 119.1291017500005,
                    "velocity": 0.4409448818897638,
                    "duration": 0.09677424999999573
                },
                {
                    "name": "G4",
                    "midi": 67,
                    "time": 119.1291017500005,
                    "velocity": 0.4409448818897638,
                    "duration": 0.09677424999999573
                },
                {
                    "name": "C#4",
                    "midi": 61,
                    "time": 119.2258760000005,
                    "velocity": 0.4645669291338583,
                    "duration": 0.09677424999999573
                },
                {
                    "name": "F#4",
                    "midi": 66,
                    "time": 119.2258760000005,
                    "velocity": 0.4645669291338583,
                    "duration": 0.09677424999999573
                },
                {
                    "name": "A4",
                    "midi": 69,
                    "time": 119.2258760000005,
                    "velocity": 0.4645669291338583,
                    "duration": 0.09677424999999573
                },
                {
                    "name": "C#4",
                    "midi": 61,
                    "time": 119.5161987500005,
                    "velocity": 0.4409448818897638,
                    "duration": 0.09677424999999573
                },
                {
                    "name": "G4",
                    "midi": 67,
                    "time": 119.5161987500005,
                    "velocity": 0.4409448818897638,
                    "duration": 0.09677424999999573
                },
                {
                    "name": "E4",
                    "midi": 64,
                    "time": 119.5161987500005,
                    "velocity": 0.4409448818897638,
                    "duration": 0.09677424999999573
                },
                {
                    "name": "A3",
                    "midi": 57,
                    "time": 119.6129730000005,
                    "velocity": 0.4251968503937008,
                    "duration": 0.7508068895833304
                },
                {
                    "name": "G4",
                    "midi": 67,
                    "time": 119.6129730000005,
                    "velocity": 0.5039370078740157,
                    "duration": 0.7508068895833304
                },
                {
                    "name": "E4",
                    "midi": 64,
                    "time": 119.6129730000005,
                    "velocity": 0.4251968503937008,
                    "duration": 0.7741939999999943
                },
                {
                    "name": "A3",
                    "midi": 57,
                    "time": 120.38716700000049,
                    "velocity": 0.4251968503937008,
                    "duration": 0.7661294791666649
                },
                {
                    "name": "D4",
                    "midi": 62,
                    "time": 120.38716700000049,
                    "velocity": 0.4251968503937008,
                    "duration": 0.7661294791666649
                },
                {
                    "name": "F#4",
                    "midi": 66,
                    "time": 120.38716700000049,
                    "velocity": 0.5039370078740157,
                    "duration": 0.7661294791666649
                },
                {
                    "name": "D4",
                    "midi": 62,
                    "time": 121.16136100000048,
                    "velocity": 0.4409448818897638,
                    "duration": 0.367742149999998
                },
                {
                    "name": "A4",
                    "midi": 69,
                    "time": 121.16136100000048,
                    "velocity": 0.5275590551181102,
                    "duration": 0.367742149999998
                },
                {
                    "name": "F#4",
                    "midi": 66,
                    "time": 121.16136100000048,
                    "velocity": 0.4409448818897638,
                    "duration": 0.367742149999998
                },
                {
                    "name": "D4",
                    "midi": 62,
                    "time": 121.54845800000048,
                    "velocity": 0.41732283464566927,
                    "duration": 0.38709699999999714
                },
                {
                    "name": "F#4",
                    "midi": 66,
                    "time": 121.54845800000048,
                    "velocity": 0.41732283464566927,
                    "duration": 0.38709699999999714
                },
                {
                    "name": "A#4",
                    "midi": 70,
                    "time": 121.54845800000048,
                    "velocity": 0.49606299212598426,
                    "duration": 0.38709699999999714
                },
                {
                    "name": "D4",
                    "midi": 62,
                    "time": 121.93555500000048,
                    "velocity": 0.4015748031496063,
                    "duration": 0.7741939999999943
                },
                {
                    "name": "G4",
                    "midi": 67,
                    "time": 121.93555500000048,
                    "velocity": 0.4015748031496063,
                    "duration": 0.7741939999999943
                },
                {
                    "name": "B4",
                    "midi": 71,
                    "time": 121.93555500000048,
                    "velocity": 0.47244094488188976,
                    "duration": 0.7741939999999943
                },
                {
                    "name": "B4",
                    "midi": 71,
                    "time": 122.70974900000047,
                    "velocity": 0.4409448818897638,
                    "duration": 0.3758066708333274
                },
                {
                    "name": "E5",
                    "midi": 76,
                    "time": 122.70974900000047,
                    "velocity": 0.5275590551181102,
                    "duration": 0.3758066708333274
                },
                {
                    "name": "G4",
                    "midi": 67,
                    "time": 122.70974900000047,
                    "velocity": 0.4409448818897638,
                    "duration": 0.3758066708333274
                },
                {
                    "name": "E5",
                    "midi": 76,
                    "time": 123.09684600000047,
                    "velocity": 0.4566929133858268,
                    "duration": 0.19354850000000567
                },
                {
                    "name": "G5",
                    "midi": 79,
                    "time": 123.09684600000047,
                    "velocity": 0.5511811023622047,
                    "duration": 0.19354850000000567
                },
                {
                    "name": "B4",
                    "midi": 71,
                    "time": 123.09684600000047,
                    "velocity": 0.4566929133858268,
                    "duration": 0.19354850000000567
                },
                {
                    "name": "B4",
                    "midi": 71,
                    "time": 123.48394300000048,
                    "velocity": 0.41732283464566927,
                    "duration": 0.19354850000000567
                },
                {
                    "name": "E5",
                    "midi": 76,
                    "time": 123.48394300000048,
                    "velocity": 0.49606299212598426,
                    "duration": 0.2016130208333351
                },
                {
                    "name": "G4",
                    "midi": 67,
                    "time": 123.48394300000048,
                    "velocity": 0.41732283464566927,
                    "duration": 0.19354850000000567
                },
                {
                    "name": "E4",
                    "midi": 64,
                    "time": 123.87104000000048,
                    "velocity": 0.3858267716535433,
                    "duration": 0.19354850000000567
                },
                {
                    "name": "G4",
                    "midi": 67,
                    "time": 123.87104000000048,
                    "velocity": 0.4566929133858268,
                    "duration": 0.19354850000000567
                },
                {
                    "name": "E4",
                    "midi": 64,
                    "time": 124.25813700000049,
                    "velocity": 0.4330708661417323,
                    "duration": 0.7741939999999943
                },
                {
                    "name": "A4",
                    "midi": 69,
                    "time": 124.25813700000049,
                    "velocity": 0.4330708661417323,
                    "duration": 0.7741939999999943
                },
                {
                    "name": "C#5",
                    "midi": 73,
                    "time": 124.25813700000049,
                    "velocity": 0.5118110236220472,
                    "duration": 0.7741939999999943
                },
                {
                    "name": "C#5",
                    "midi": 73,
                    "time": 125.03233100000048,
                    "velocity": 0.4645669291338583,
                    "duration": 0.3758066708333274
                },
                {
                    "name": "F#5",
                    "midi": 78,
                    "time": 125.03233100000048,
                    "velocity": 0.5511811023622047,
                    "duration": 0.3758066708333274
                },
                {
                    "name": "A4",
                    "midi": 69,
                    "time": 125.03233100000048,
                    "velocity": 0.4645669291338583,
                    "duration": 0.3758066708333274
                },
                {
                    "name": "C#5",
                    "midi": 73,
                    "time": 125.41942800000048,
                    "velocity": 0.4645669291338583,
                    "duration": 0.19354850000000567
                },
                {
                    "name": "A5",
                    "midi": 81,
                    "time": 125.41942800000048,
                    "velocity": 0.5590551181102362,
                    "duration": 0.19354850000000567
                },
                {
                    "name": "F#5",
                    "midi": 78,
                    "time": 125.41942800000048,
                    "velocity": 0.4645669291338583,
                    "duration": 0.19354850000000567
                },
                {
                    "name": "A4",
                    "midi": 69,
                    "time": 125.80652500000049,
                    "velocity": 0.4015748031496063,
                    "duration": 0.19354850000000567
                },
                {
                    "name": "F#5",
                    "midi": 78,
                    "time": 125.80652500000049,
                    "velocity": 0.47244094488188976,
                    "duration": 0.19354850000000567
                },
                {
                    "name": "C#5",
                    "midi": 73,
                    "time": 125.80652500000049,
                    "velocity": 0.4015748031496063,
                    "duration": 0.19354850000000567
                },
                {
                    "name": "F#4",
                    "midi": 66,
                    "time": 126.1936220000005,
                    "velocity": 0.3700787401574803,
                    "duration": 0.19354850000000567
                },
                {
                    "name": "A4",
                    "midi": 69,
                    "time": 126.1936220000005,
                    "velocity": 0.4409448818897638,
                    "duration": 0.19354850000000567
                },
                {
                    "name": "B4",
                    "midi": 71,
                    "time": 126.58071900000051,
                    "velocity": 0.4409448818897638,
                    "duration": 0.7741939999999943
                },
                {
                    "name": "D5",
                    "midi": 74,
                    "time": 126.58071900000051,
                    "velocity": 0.5275590551181102,
                    "duration": 0.7741939999999943
                },
                {
                    "name": "F#4",
                    "midi": 66,
                    "time": 126.58071900000051,
                    "velocity": 0.4409448818897638,
                    "duration": 0.7741939999999943
                },
                {
                    "name": "D5",
                    "midi": 74,
                    "time": 127.35491300000051,
                    "velocity": 0.49606299212598426,
                    "duration": 0.3758066708333274
                },
                {
                    "name": "G5",
                    "midi": 79,
                    "time": 127.35491300000051,
                    "velocity": 0.5826771653543307,
                    "duration": 0.3758066708333274
                },
                {
                    "name": "B4",
                    "midi": 71,
                    "time": 127.35491300000051,
                    "velocity": 0.49606299212598426,
                    "duration": 0.3758066708333274
                },
                {
                    "name": "D5",
                    "midi": 74,
                    "time": 127.7420100000005,
                    "velocity": 0.49606299212598426,
                    "duration": 0.19354850000000567
                },
                {
                    "name": "B5",
                    "midi": 83,
                    "time": 127.7420100000005,
                    "velocity": 0.5826771653543307,
                    "duration": 0.19354850000000567
                },
                {
                    "name": "G5",
                    "midi": 79,
                    "time": 127.7420100000005,
                    "velocity": 0.5826771653543307,
                    "duration": 0.19354850000000567
                },
                {
                    "name": "B4",
                    "midi": 71,
                    "time": 128.12910700000052,
                    "velocity": 0.47244094488188976,
                    "duration": 0.19354849999999146
                },
                {
                    "name": "G5",
                    "midi": 79,
                    "time": 128.12910700000052,
                    "velocity": 0.5590551181102362,
                    "duration": 0.19354849999999146
                },
                {
                    "name": "D5",
                    "midi": 74,
                    "time": 128.12910700000052,
                    "velocity": 0.47244094488188976,
                    "duration": 0.19354849999999146
                },
                {
                    "name": "G4",
                    "midi": 67,
                    "time": 128.5162040000005,
                    "velocity": 0.5354330708661418,
                    "duration": 0.19354849999999146
                },
                {
                    "name": "B4",
                    "midi": 71,
                    "time": 128.5162040000005,
                    "velocity": 0.5905511811023622,
                    "duration": 0.19354849999999146
                },
                {
                    "name": "G5",
                    "midi": 79,
                    "time": 128.90330100000048,
                    "velocity": 0.5196850393700787,
                    "duration": 0.7741940000000227
                },
                {
                    "name": "C#5",
                    "midi": 73,
                    "time": 128.90330100000048,
                    "velocity": 0.5196850393700787,
                    "duration": 0.7508068895833446
                },
                {
                    "name": "A4",
                    "midi": 69,
                    "time": 128.90330100000048,
                    "velocity": 0.5196850393700787,
                    "duration": 0.7508068895833446
                },
                {
                    "name": "A5",
                    "midi": 81,
                    "time": 128.90330100000048,
                    "velocity": 0.6141732283464567,
                    "duration": 0.7508068895833446
                },
                {
                    "name": "C#5",
                    "midi": 73,
                    "time": 129.6774950000005,
                    "velocity": 0.48031496062992124,
                    "duration": 0.6572584479166608
                },
                {
                    "name": "A5",
                    "midi": 81,
                    "time": 129.6774950000005,
                    "velocity": 0.5669291338582677,
                    "duration": 0.6572584479166608
                },
                {
                    "name": "A4",
                    "midi": 69,
                    "time": 129.6774950000005,
                    "velocity": 0.48031496062992124,
                    "duration": 0.6572584479166608
                },
                {
                    "name": "G5",
                    "midi": 79,
                    "time": 129.6774950000005,
                    "velocity": 0.48031496062992124,
                    "duration": 0.6572584479166608
                },
                {
                    "name": "G5",
                    "midi": 79,
                    "time": 130.3549147500005,
                    "velocity": 0.4566929133858268,
                    "duration": 0.0919355375000066
                },
                {
                    "name": "C#5",
                    "midi": 73,
                    "time": 130.3549147500005,
                    "velocity": 0.4566929133858268,
                    "duration": 0.0919355375000066
                },
                {
                    "name": "A5",
                    "midi": 81,
                    "time": 130.3549147500005,
                    "velocity": 0.5748031496062992,
                    "duration": 0.0919355375000066
                },
                {
                    "name": "G5",
                    "midi": 79,
                    "time": 130.4516890000005,
                    "velocity": 0.5196850393700787,
                    "duration": 0.2758066124999914
                },
                {
                    "name": "C#5",
                    "midi": 73,
                    "time": 130.4516890000005,
                    "velocity": 0.5196850393700787,
                    "duration": 0.2758066124999914
                },
                {
                    "name": "A5",
                    "midi": 81,
                    "time": 130.4516890000005,
                    "velocity": 0.6456692913385826,
                    "duration": 0.2685485437500006
                },
                {
                    "name": "G5",
                    "midi": 79,
                    "time": 130.7420117500005,
                    "velocity": 0.49606299212598426,
                    "duration": 0.0919355375000066
                },
                {
                    "name": "A5",
                    "midi": 81,
                    "time": 130.7420117500005,
                    "velocity": 0.6299212598425197,
                    "duration": 0.0919355375000066
                },
                {
                    "name": "C#5",
                    "midi": 73,
                    "time": 130.7420117500005,
                    "velocity": 0.49606299212598426,
                    "duration": 0.0919355375000066
                },
                {
                    "name": "B5",
                    "midi": 83,
                    "time": 130.8387860000005,
                    "velocity": 0.6692913385826772,
                    "duration": 0.2758066124999914
                },
                {
                    "name": "C#5",
                    "midi": 73,
                    "time": 130.8387860000005,
                    "velocity": 0.5275590551181102,
                    "duration": 0.2758066124999914
                },
                {
                    "name": "G5",
                    "midi": 79,
                    "time": 130.8387860000005,
                    "velocity": 0.5275590551181102,
                    "duration": 0.2758066124999914
                },
                {
                    "name": "C#6",
                    "midi": 85,
                    "time": 131.1291087500005,
                    "velocity": 0.6535433070866141,
                    "duration": 0.09677425000000994
                },
                {
                    "name": "C#5",
                    "midi": 73,
                    "time": 131.1291087500005,
                    "velocity": 0.5118110236220472,
                    "duration": 0.09677425000000994
                },
                {
                    "name": "G5",
                    "midi": 79,
                    "time": 131.1291087500005,
                    "velocity": 0.5118110236220472,
                    "duration": 0.09677425000000994
                },
                {
                    "name": "D5",
                    "midi": 74,
                    "time": 131.22588300000052,
                    "velocity": 0.6141732283464567,
                    "duration": 0.7508068895833446
                },
                {
                    "name": "F#5",
                    "midi": 78,
                    "time": 131.22588300000052,
                    "velocity": 0.6141732283464567,
                    "duration": 0.7508068895833446
                },
                {
                    "name": "D6",
                    "midi": 86,
                    "time": 131.22588300000052,
                    "velocity": 0.7322834645669292,
                    "duration": 0.7508068895833446
                },
                {
                    "name": "D5",
                    "midi": 74,
                    "time": 132.00007700000054,
                    "velocity": 0.6141732283464567,
                    "duration": 0.6612907083333255
                },
                {
                    "name": "D6",
                    "midi": 86,
                    "time": 132.00007700000054,
                    "velocity": 0.7322834645669292,
                    "duration": 0.6612907083333255
                },
                {
                    "name": "F#5",
                    "midi": 78,
                    "time": 132.00007700000054,
                    "velocity": 0.6141732283464567,
                    "duration": 0.6612907083333255
                },
                {
                    "name": "A4",
                    "midi": 69,
                    "time": 132.67749675000053,
                    "velocity": 0.4409448818897638,
                    "duration": 0.04838712500000497
                },
                {
                    "name": "F#4",
                    "midi": 66,
                    "time": 132.67749675000053,
                    "velocity": 0.3700787401574803,
                    "duration": 0.04838712500000497
                },
                {
                    "name": "F#4",
                    "midi": 66,
                    "time": 132.77427100000054,
                    "velocity": 0.4015748031496063,
                    "duration": 0.28145177708333335
                },
                {
                    "name": "A4",
                    "midi": 69,
                    "time": 132.77427100000054,
                    "velocity": 0.47244094488188976,
                    "duration": 0.28145177708333335
                },
                {
                    "name": "F#4",
                    "midi": 66,
                    "time": 133.06459375000054,
                    "velocity": 0.3700787401574803,
                    "duration": 0.04838712500000497
                },
                {
                    "name": "A4",
                    "midi": 69,
                    "time": 133.06459375000054,
                    "velocity": 0.4409448818897638,
                    "duration": 0.04838712500000497
                },
                {
                    "name": "G4",
                    "midi": 67,
                    "time": 133.16136800000055,
                    "velocity": 0.47244094488188976,
                    "duration": 0.28145177708333335
                },
                {
                    "name": "E4",
                    "midi": 64,
                    "time": 133.16136800000055,
                    "velocity": 0.3937007874015748,
                    "duration": 0.28145177708333335
                },
                {
                    "name": "F#4",
                    "midi": 66,
                    "time": 133.45169075000055,
                    "velocity": 0.4409448818897638,
                    "duration": 0.04838712500000497
                },
                {
                    "name": "D4",
                    "midi": 62,
                    "time": 133.45169075000055,
                    "velocity": 0.3700787401574803,
                    "duration": 0.04838712500000497
                },
                {
                    "name": "A3",
                    "midi": 57,
                    "time": 133.54846500000056,
                    "velocity": 0.4251968503937008,
                    "duration": 0.7508068895833446
                },
                {
                    "name": "E4",
                    "midi": 64,
                    "time": 133.54846500000056,
                    "velocity": 0.5039370078740157,
                    "duration": 0.7508068895833446
                },
                {
                    "name": "A3",
                    "midi": 57,
                    "time": 134.32265900000058,
                    "velocity": 0.4251968503937008,
                    "duration": 0.6572584479166608
                },
                {
                    "name": "E4",
                    "midi": 64,
                    "time": 134.32265900000058,
                    "velocity": 0.5039370078740157,
                    "duration": 0.6572584479166608
                },
                {
                    "name": "B4",
                    "midi": 71,
                    "time": 135.00007875000057,
                    "velocity": 0.3937007874015748,
                    "duration": 0.04838712500000497
                },
                {
                    "name": "G4",
                    "midi": 67,
                    "time": 135.00007875000057,
                    "velocity": 0.3228346456692913,
                    "duration": 0.04838712500000497
                },
                {
                    "name": "F#4",
                    "midi": 66,
                    "time": 135.09685300000058,
                    "velocity": 0.3464566929133858,
                    "duration": 0.28145177708333335
                },
                {
                    "name": "A4",
                    "midi": 69,
                    "time": 135.09685300000058,
                    "velocity": 0.41732283464566927,
                    "duration": 0.28145177708333335
                },
                {
                    "name": "G4",
                    "midi": 67,
                    "time": 135.38717575000058,
                    "velocity": 0.3700787401574803,
                    "duration": 0.04838712500000497
                },
                {
                    "name": "E4",
                    "midi": 64,
                    "time": 135.38717575000058,
                    "velocity": 0.30708661417322836,
                    "duration": 0.04838712500000497
                },
                {
                    "name": "D4",
                    "midi": 62,
                    "time": 135.4839500000006,
                    "velocity": 0.3228346456692913,
                    "duration": 0.28145177708333335
                },
                {
                    "name": "F#4",
                    "midi": 66,
                    "time": 135.4839500000006,
                    "velocity": 0.3937007874015748,
                    "duration": 0.28145177708333335
                },
                {
                    "name": "E4",
                    "midi": 64,
                    "time": 135.7742727500006,
                    "velocity": 0.3464566929133858,
                    "duration": 0.04838712500000497
                },
                {
                    "name": "A3",
                    "midi": 57,
                    "time": 135.7742727500006,
                    "velocity": 0.28346456692913385,
                    "duration": 0.04838712500000497
                },
                {
                    "name": "F#3",
                    "midi": 54,
                    "time": 135.8710470000006,
                    "velocity": 0.30708661417322836,
                    "duration": 0.7508068895833446
                },
                {
                    "name": "D4",
                    "midi": 62,
                    "time": 135.8710470000006,
                    "velocity": 0.36220472440944884,
                    "duration": 0.7508068895833446
                },
                {
                    "name": "F#3",
                    "midi": 54,
                    "time": 136.64524100000062,
                    "velocity": 0.29133858267716534,
                    "duration": 0.6572584479166608
                },
                {
                    "name": "D4",
                    "midi": 62,
                    "time": 136.64524100000062,
                    "velocity": 0.3464566929133858,
                    "duration": 0.6572584479166608
                },
                {
                    "name": "A3",
                    "midi": 57,
                    "time": 137.3226607500006,
                    "velocity": 0.5511811023622047,
                    "duration": 0.04838712500000497
                },
                {
                    "name": "A3",
                    "midi": 57,
                    "time": 137.41943500000062,
                    "velocity": 0.5984251968503937,
                    "duration": 0.09677425000000994
                },
                {
                    "name": "A3",
                    "midi": 57,
                    "time": 137.70975775000062,
                    "velocity": 0.5511811023622047,
                    "duration": 0.04838712500000497
                },
                {
                    "name": "G3",
                    "midi": 55,
                    "time": 137.80653200000063,
                    "velocity": 0.5905511811023622,
                    "duration": 0.09677425000000994
                },
                {
                    "name": "A3",
                    "midi": 57,
                    "time": 138.09685475000063,
                    "velocity": 0.5511811023622047,
                    "duration": 0.04838712500000497
                },
                {
                    "name": "A#3",
                    "midi": 58,
                    "time": 138.19362900000064,
                    "velocity": 0.5354330708661418,
                    "duration": 0.7741940000000227
                },
                {
                    "name": "G3",
                    "midi": 55,
                    "time": 138.19362900000064,
                    "velocity": 0.5354330708661418,
                    "duration": 0.7508068895833446
                },
                {
                    "name": "C#4",
                    "midi": 61,
                    "time": 138.19362900000064,
                    "velocity": 0.6299212598425197,
                    "duration": 0.7508068895833446
                },
                {
                    "name": "E3",
                    "midi": 52,
                    "time": 138.19362900000064,
                    "velocity": 0.5354330708661418,
                    "duration": 0.7508068895833446
                },
                {
                    "name": "G3",
                    "midi": 55,
                    "time": 138.96782300000066,
                    "velocity": 0.5354330708661418,
                    "duration": 0.6572584479166608
                },
                {
                    "name": "C#4",
                    "midi": 61,
                    "time": 138.96782300000066,
                    "velocity": 0.6299212598425197,
                    "duration": 0.6572584479166608
                },
                {
                    "name": "A#3",
                    "midi": 58,
                    "time": 138.96782300000066,
                    "velocity": 0.5354330708661418,
                    "duration": 0.6572584479166608
                },
                {
                    "name": "E3",
                    "midi": 52,
                    "time": 138.96782300000066,
                    "velocity": 0.5354330708661418,
                    "duration": 0.6572584479166608
                },
                {
                    "name": "A4",
                    "midi": 69,
                    "time": 139.64524275000065,
                    "velocity": 0.5511811023622047,
                    "duration": 0.04838712500000497
                },
                {
                    "name": "A4",
                    "midi": 69,
                    "time": 139.74201700000066,
                    "velocity": 0.5984251968503937,
                    "duration": 0.09677425000000994
                },
                {
                    "name": "A4",
                    "midi": 69,
                    "time": 140.03233975000066,
                    "velocity": 0.5511811023622047,
                    "duration": 0.04838712500000497
                },
                {
                    "name": "G4",
                    "midi": 67,
                    "time": 140.12911400000067,
                    "velocity": 0.5905511811023622,
                    "duration": 0.09677425000000994
                },
                {
                    "name": "A4",
                    "midi": 69,
                    "time": 140.41943675000067,
                    "velocity": 0.5511811023622047,
                    "duration": 0.04838712500000497
                },
                {
                    "name": "D4",
                    "midi": 62,
                    "time": 140.51621100000068,
                    "velocity": 0.5354330708661418,
                    "duration": 0.7508068895833446
                },
                {
                    "name": "A#4",
                    "midi": 70,
                    "time": 140.51621100000068,
                    "velocity": 0.5354330708661418,
                    "duration": 0.7741940000000227
                },
                {
                    "name": "D5",
                    "midi": 74,
                    "time": 140.51621100000068,
                    "velocity": 0.6299212598425197,
                    "duration": 0.7508068895833446
                },
                {
                    "name": "F4",
                    "midi": 65,
                    "time": 140.51621100000068,
                    "velocity": 0.5354330708661418,
                    "duration": 0.7508068895833446
                },
                {
                    "name": "A#4",
                    "midi": 70,
                    "time": 141.2904050000007,
                    "velocity": 0.5354330708661418,
                    "duration": 0.6572584479166608
                },
                {
                    "name": "D5",
                    "midi": 74,
                    "time": 141.2904050000007,
                    "velocity": 0.6299212598425197,
                    "duration": 0.6572584479166608
                },
                {
                    "name": "D4",
                    "midi": 62,
                    "time": 141.2904050000007,
                    "velocity": 0.5354330708661418,
                    "duration": 0.6572584479166608
                },
                {
                    "name": "F4",
                    "midi": 65,
                    "time": 141.2904050000007,
                    "velocity": 0.5354330708661418,
                    "duration": 0.6572584479166608
                },
                {
                    "name": "D5",
                    "midi": 74,
                    "time": 141.9678247500007,
                    "velocity": 0.4645669291338583,
                    "duration": 0.04838712500000497
                },
                {
                    "name": "F5",
                    "midi": 77,
                    "time": 141.9678247500007,
                    "velocity": 0.5511811023622047,
                    "duration": 0.04838712500000497
                },
                {
                    "name": "D5",
                    "midi": 74,
                    "time": 142.0645990000007,
                    "velocity": 0.5039370078740157,
                    "duration": 0.09677425000000994
                },
                {
                    "name": "F5",
                    "midi": 77,
                    "time": 142.0645990000007,
                    "velocity": 0.5984251968503937,
                    "duration": 0.09677425000000994
                },
                {
                    "name": "F5",
                    "midi": 77,
                    "time": 142.3549217500007,
                    "velocity": 0.5511811023622047,
                    "duration": 0.04838712500000497
                },
                {
                    "name": "D5",
                    "midi": 74,
                    "time": 142.3549217500007,
                    "velocity": 0.4645669291338583,
                    "duration": 0.04838712500000497
                },
                {
                    "name": "C#5",
                    "midi": 73,
                    "time": 142.4516960000007,
                    "velocity": 0.49606299212598426,
                    "duration": 0.09677425000000994
                },
                {
                    "name": "E5",
                    "midi": 76,
                    "time": 142.4516960000007,
                    "velocity": 0.5905511811023622,
                    "duration": 0.09677425000000994
                },
                {
                    "name": "D5",
                    "midi": 74,
                    "time": 142.7420187500007,
                    "velocity": 0.4645669291338583,
                    "duration": 0.04838712500000497
                },
                {
                    "name": "F5",
                    "midi": 77,
                    "time": 142.7420187500007,
                    "velocity": 0.5511811023622047,
                    "duration": 0.04838712500000497
                },
                {
                    "name": "A#4",
                    "midi": 70,
                    "time": 142.83879300000072,
                    "velocity": 0.5039370078740157,
                    "duration": 0.09677425000000994
                },
                {
                    "name": "D5",
                    "midi": 74,
                    "time": 142.83879300000072,
                    "velocity": 0.5984251968503937,
                    "duration": 0.09677425000000994
                },
                {
                    "name": "D5",
                    "midi": 74,
                    "time": 143.12911575000072,
                    "velocity": 0.5511811023622047,
                    "duration": 0.04838712500000497
                },
                {
                    "name": "A#4",
                    "midi": 70,
                    "time": 143.12911575000072,
                    "velocity": 0.4645669291338583,
                    "duration": 0.04838712500000497
                },
                {
                    "name": "C#5",
                    "midi": 73,
                    "time": 143.22589000000073,
                    "velocity": 0.5905511811023622,
                    "duration": 0.09677425000000994
                },
                {
                    "name": "A4",
                    "midi": 69,
                    "time": 143.22589000000073,
                    "velocity": 0.49606299212598426,
                    "duration": 0.09677425000000994
                },
                {
                    "name": "D5",
                    "midi": 74,
                    "time": 143.51621275000073,
                    "velocity": 0.5511811023622047,
                    "duration": 0.04838712500000497
                },
                {
                    "name": "A#4",
                    "midi": 70,
                    "time": 143.51621275000073,
                    "velocity": 0.4645669291338583,
                    "duration": 0.04838712500000497
                },
                {
                    "name": "A#4",
                    "midi": 70,
                    "time": 143.61298700000074,
                    "velocity": 0.5984251968503937,
                    "duration": 0.09677425000000994
                },
                {
                    "name": "G4",
                    "midi": 67,
                    "time": 143.61298700000074,
                    "velocity": 0.5039370078740157,
                    "duration": 0.09677425000000994
                },
                {
                    "name": "G4",
                    "midi": 67,
                    "time": 143.90330975000074,
                    "velocity": 0.4645669291338583,
                    "duration": 0.04838712500000497
                },
                {
                    "name": "A#4",
                    "midi": 70,
                    "time": 143.90330975000074,
                    "velocity": 0.5511811023622047,
                    "duration": 0.04838712500000497
                },
                {
                    "name": "A4",
                    "midi": 69,
                    "time": 144.00008400000075,
                    "velocity": 0.5905511811023622,
                    "duration": 0.09677425000000994
                },
                {
                    "name": "F#4",
                    "midi": 66,
                    "time": 144.00008400000075,
                    "velocity": 0.49606299212598426,
                    "duration": 0.09677425000000994
                },
                {
                    "name": "A#4",
                    "midi": 70,
                    "time": 144.29040675000076,
                    "velocity": 0.5511811023622047,
                    "duration": 0.04838712500000497
                },
                {
                    "name": "G4",
                    "midi": 67,
                    "time": 144.29040675000076,
                    "velocity": 0.4645669291338583,
                    "duration": 0.04838712500000497
                },
                {
                    "name": "G4",
                    "midi": 67,
                    "time": 144.38718100000077,
                    "velocity": 0.6299212598425197,
                    "duration": 0.7508068895833446
                },
                {
                    "name": "D#4",
                    "midi": 63,
                    "time": 144.38718100000077,
                    "velocity": 0.5354330708661418,
                    "duration": 0.7741940000000227
                },
                {
                    "name": "G4",
                    "midi": 67,
                    "time": 145.1613750000008,
                    "velocity": 0.5826771653543307,
                    "duration": 0.7661294791666649
                },
                {
                    "name": "D#5",
                    "midi": 75,
                    "time": 145.1613750000008,
                    "velocity": 0.5826771653543307,
                    "duration": 0.7661294791666649
                },
                {
                    "name": "G5",
                    "midi": 79,
                    "time": 145.1613750000008,
                    "velocity": 0.6929133858267716,
                    "duration": 0.7661294791666649
                },
                {
                    "name": "B4",
                    "midi": 71,
                    "time": 145.1613750000008,
                    "velocity": 0.5826771653543307,
                    "duration": 0.7661294791666649
                },
                {
                    "name": "D#5",
                    "midi": 75,
                    "time": 145.93556900000078,
                    "velocity": 0.5826771653543307,
                    "duration": 0.7661294791666649
                },
                {
                    "name": "G5",
                    "midi": 79,
                    "time": 145.93556900000078,
                    "velocity": 0.6929133858267716,
                    "duration": 0.7661294791666649
                },
                {
                    "name": "G4",
                    "midi": 67,
                    "time": 145.93556900000078,
                    "velocity": 0.5826771653543307,
                    "duration": 0.7661294791666649
                },
                {
                    "name": "C5",
                    "midi": 72,
                    "time": 145.93556900000078,
                    "velocity": 0.5826771653543307,
                    "duration": 0.7661294791666649
                },
                {
                    "name": "D5",
                    "midi": 74,
                    "time": 146.70976300000078,
                    "velocity": 0.5826771653543307,
                    "duration": 0.09677425000000994
                },
                {
                    "name": "F5",
                    "midi": 77,
                    "time": 146.70976300000078,
                    "velocity": 0.6929133858267716,
                    "duration": 0.09677425000000994
                },
                {
                    "name": "F4",
                    "midi": 65,
                    "time": 146.70976300000078,
                    "velocity": 0.5826771653543307,
                    "duration": 0.09677425000000994
                },
                {
                    "name": "C5",
                    "midi": 72,
                    "time": 147.0968600000008,
                    "velocity": 0.5826771653543307,
                    "duration": 0.09677425000000994
                },
                {
                    "name": "A4",
                    "midi": 69,
                    "time": 147.0968600000008,
                    "velocity": 0.5826771653543307,
                    "duration": 0.09677425000000994
                },
                {
                    "name": "D#5",
                    "midi": 75,
                    "time": 147.0968600000008,
                    "velocity": 0.5826771653543307,
                    "duration": 0.09677425000000994
                },
                {
                    "name": "A5",
                    "midi": 81,
                    "time": 147.0968600000008,
                    "velocity": 0.6929133858267716,
                    "duration": 0.09677425000000994
                },
                {
                    "name": "D5",
                    "midi": 74,
                    "time": 147.4839570000008,
                    "velocity": 0.6692913385826772,
                    "duration": 0.7661294791666649
                },
                {
                    "name": "A#4",
                    "midi": 70,
                    "time": 147.4839570000008,
                    "velocity": 0.6692913385826772,
                    "duration": 0.7661294791666649
                },
                {
                    "name": "A#5",
                    "midi": 82,
                    "time": 147.4839570000008,
                    "velocity": 0.7952755905511811,
                    "duration": 0.7661294791666649
                },
                {
                    "name": "A#3",
                    "midi": 58,
                    "time": 148.2581510000008,
                    "velocity": 0.5826771653543307,
                    "duration": 0.6572584479166608
                },
                {
                    "name": "D4",
                    "midi": 62,
                    "time": 148.2581510000008,
                    "velocity": 0.5826771653543307,
                    "duration": 0.6572584479166608
                },
                {
                    "name": "A#4",
                    "midi": 70,
                    "time": 148.2581510000008,
                    "velocity": 0.6929133858267716,
                    "duration": 0.6572584479166608
                },
                {
                    "name": "D5",
                    "midi": 74,
                    "time": 148.93557075000078,
                    "velocity": 0.3700787401574803,
                    "duration": 0.04838712500000497
                },
                {
                    "name": "F5",
                    "midi": 77,
                    "time": 148.93557075000078,
                    "velocity": 0.4409448818897638,
                    "duration": 0.04838712500000497
                },
                {
                    "name": "D5",
                    "midi": 74,
                    "time": 149.0323450000008,
                    "velocity": 0.4015748031496063,
                    "duration": 0.09677425000000994
                },
                {
                    "name": "F5",
                    "midi": 77,
                    "time": 149.0323450000008,
                    "velocity": 0.47244094488188976,
                    "duration": 0.09677425000000994
                },
                {
                    "name": "D5",
                    "midi": 74,
                    "time": 149.3226677500008,
                    "velocity": 0.3700787401574803,
                    "duration": 0.04838712500000497
                },
                {
                    "name": "F5",
                    "midi": 77,
                    "time": 149.3226677500008,
                    "velocity": 0.4409448818897638,
                    "duration": 0.04838712500000497
                },
                {
                    "name": "C#5",
                    "midi": 73,
                    "time": 149.4194420000008,
                    "velocity": 0.3937007874015748,
                    "duration": 0.09677425000000994
                },
                {
                    "name": "E5",
                    "midi": 76,
                    "time": 149.4194420000008,
                    "velocity": 0.47244094488188976,
                    "duration": 0.09677425000000994
                },
                {
                    "name": "D5",
                    "midi": 74,
                    "time": 149.7097647500008,
                    "velocity": 0.3700787401574803,
                    "duration": 0.04838712500000497
                },
                {
                    "name": "F5",
                    "midi": 77,
                    "time": 149.7097647500008,
                    "velocity": 0.4409448818897638,
                    "duration": 0.04838712500000497
                },
                {
                    "name": "A#4",
                    "midi": 70,
                    "time": 149.8065390000008,
                    "velocity": 0.4015748031496063,
                    "duration": 0.7741939999999943
                },
                {
                    "name": "D5",
                    "midi": 74,
                    "time": 149.8065390000008,
                    "velocity": 0.47244094488188976,
                    "duration": 0.7741939999999943
                },
                {
                    "name": "A#4",
                    "midi": 70,
                    "time": 150.5807330000008,
                    "velocity": 0.4015748031496063,
                    "duration": 0.6572584479166608
                },
                {
                    "name": "D5",
                    "midi": 74,
                    "time": 150.5807330000008,
                    "velocity": 0.47244094488188976,
                    "duration": 0.6572584479166608
                },
                {
                    "name": "A#4",
                    "midi": 70,
                    "time": 151.2581527500008,
                    "velocity": 0.3700787401574803,
                    "duration": 0.04838712500000497
                },
                {
                    "name": "D5",
                    "midi": 74,
                    "time": 151.2581527500008,
                    "velocity": 0.4409448818897638,
                    "duration": 0.04838712500000497
                },
                {
                    "name": "A#4",
                    "midi": 70,
                    "time": 151.3549270000008,
                    "velocity": 0.4015748031496063,
                    "duration": 0.09677425000000994
                },
                {
                    "name": "D5",
                    "midi": 74,
                    "time": 151.3549270000008,
                    "velocity": 0.47244094488188976,
                    "duration": 0.09677425000000994
                },
                {
                    "name": "A#4",
                    "midi": 70,
                    "time": 151.6452497500008,
                    "velocity": 0.3700787401574803,
                    "duration": 0.04838712500000497
                },
                {
                    "name": "D5",
                    "midi": 74,
                    "time": 151.6452497500008,
                    "velocity": 0.4409448818897638,
                    "duration": 0.04838712500000497
                },
                {
                    "name": "A4",
                    "midi": 69,
                    "time": 151.7420240000008,
                    "velocity": 0.3937007874015748,
                    "duration": 0.09677425000000994
                },
                {
                    "name": "C#5",
                    "midi": 73,
                    "time": 151.7420240000008,
                    "velocity": 0.47244094488188976,
                    "duration": 0.09677425000000994
                },
                {
                    "name": "A#4",
                    "midi": 70,
                    "time": 152.0323467500008,
                    "velocity": 0.3700787401574803,
                    "duration": 0.04838712500000497
                },
                {
                    "name": "D5",
                    "midi": 74,
                    "time": 152.0323467500008,
                    "velocity": 0.4409448818897638,
                    "duration": 0.04838712500000497
                },
                {
                    "name": "D5",
                    "midi": 74,
                    "time": 152.12912100000082,
                    "velocity": 0.4015748031496063,
                    "duration": 0.7741939999999943
                },
                {
                    "name": "F5",
                    "midi": 77,
                    "time": 152.12912100000082,
                    "velocity": 0.47244094488188976,
                    "duration": 0.7741939999999943
                },
                {
                    "name": "C5",
                    "midi": 72,
                    "time": 152.90331500000082,
                    "velocity": 0.4015748031496063,
                    "duration": 0.6572584479166608
                },
                {
                    "name": "D#5",
                    "midi": 75,
                    "time": 152.90331500000082,
                    "velocity": 0.47244094488188976,
                    "duration": 0.6572584479166608
                },
                {
                    "name": "F5",
                    "midi": 77,
                    "time": 153.5807347500008,
                    "velocity": 0.3700787401574803,
                    "duration": 0.04838712500000497
                },
                {
                    "name": "C5",
                    "midi": 72,
                    "time": 153.5807347500008,
                    "velocity": 0.3700787401574803,
                    "duration": 0.04838712500000497
                },
                {
                    "name": "D#5",
                    "midi": 75,
                    "time": 153.5807347500008,
                    "velocity": 0.4409448818897638,
                    "duration": 0.04838712500000497
                },
                {
                    "name": "F5",
                    "midi": 77,
                    "time": 153.6775090000008,
                    "velocity": 0.4015748031496063,
                    "duration": 0.09677425000000994
                },
                {
                    "name": "C5",
                    "midi": 72,
                    "time": 153.6775090000008,
                    "velocity": 0.4015748031496063,
                    "duration": 0.09677425000000994
                },
                {
                    "name": "D#5",
                    "midi": 75,
                    "time": 153.6775090000008,
                    "velocity": 0.47244094488188976,
                    "duration": 0.09677425000000994
                },
                {
                    "name": "F5",
                    "midi": 77,
                    "time": 153.9678317500008,
                    "velocity": 0.3700787401574803,
                    "duration": 0.04838712500000497
                },
                {
                    "name": "C5",
                    "midi": 72,
                    "time": 153.9678317500008,
                    "velocity": 0.3700787401574803,
                    "duration": 0.04838712500000497
                },
                {
                    "name": "D#5",
                    "midi": 75,
                    "time": 153.9678317500008,
                    "velocity": 0.4409448818897638,
                    "duration": 0.04838712500000497
                },
                {
                    "name": "F5",
                    "midi": 77,
                    "time": 154.06460600000082,
                    "velocity": 0.3937007874015748,
                    "duration": 0.09677425000000994
                },
                {
                    "name": "B4",
                    "midi": 71,
                    "time": 154.06460600000082,
                    "velocity": 0.3937007874015748,
                    "duration": 0.09677425000000994
                },
                {
                    "name": "D5",
                    "midi": 74,
                    "time": 154.06460600000082,
                    "velocity": 0.47244094488188976,
                    "duration": 0.09677425000000994
                },
                {
                    "name": "F5",
                    "midi": 77,
                    "time": 154.35492875000082,
                    "velocity": 0.4409448818897638,
                    "duration": 0.04838712500000497
                },
                {
                    "name": "C5",
                    "midi": 72,
                    "time": 154.35492875000082,
                    "velocity": 0.3700787401574803,
                    "duration": 0.04838712500000497
                },
                {
                    "name": "D#5",
                    "midi": 75,
                    "time": 154.35492875000082,
                    "velocity": 0.4409448818897638,
                    "duration": 0.04838712500000497
                },
                {
                    "name": "A4",
                    "midi": 69,
                    "time": 154.45170300000083,
                    "velocity": 0.4015748031496063,
                    "duration": 0.7669359312500035
                },
                {
                    "name": "C5",
                    "midi": 72,
                    "time": 154.45170300000083,
                    "velocity": 0.4015748031496063,
                    "duration": 0.7669359312500035
                },
                {
                    "name": "F5",
                    "midi": 77,
                    "time": 154.45170300000083,
                    "velocity": 0.47244094488188976,
                    "duration": 0.7669359312500035
                },
                {
                    "name": "A4",
                    "midi": 69,
                    "time": 155.22589700000083,
                    "velocity": 0.4015748031496063,
                    "duration": 0.6572584479166608
                },
                {
                    "name": "C5",
                    "midi": 72,
                    "time": 155.22589700000083,
                    "velocity": 0.4015748031496063,
                    "duration": 0.6572584479166608
                },
                {
                    "name": "F5",
                    "midi": 77,
                    "time": 155.22589700000083,
                    "velocity": 0.47244094488188976,
                    "duration": 0.6572584479166608
                },
                {
                    "name": "F5",
                    "midi": 77,
                    "time": 155.9033167500008,
                    "velocity": 0.3700787401574803,
                    "duration": 0.04838712500000497
                },
                {
                    "name": "A4",
                    "midi": 69,
                    "time": 155.9033167500008,
                    "velocity": 0.3700787401574803,
                    "duration": 0.04838712500000497
                },
                {
                    "name": "C5",
                    "midi": 72,
                    "time": 155.9033167500008,
                    "velocity": 0.4409448818897638,
                    "duration": 0.04838712500000497
                },
                {
                    "name": "A4",
                    "midi": 69,
                    "time": 156.00009100000082,
                    "velocity": 0.4015748031496063,
                    "duration": 0.09677425000000994
                },
                {
                    "name": "F5",
                    "midi": 77,
                    "time": 156.00009100000082,
                    "velocity": 0.4015748031496063,
                    "duration": 0.09677425000000994
                },
                {
                    "name": "C5",
                    "midi": 72,
                    "time": 156.00009100000082,
                    "velocity": 0.47244094488188976,
                    "duration": 0.09677425000000994
                },
                {
                    "name": "C5",
                    "midi": 72,
                    "time": 156.29041375000082,
                    "velocity": 0.4409448818897638,
                    "duration": 0.04838712500000497
                },
                {
                    "name": "F5",
                    "midi": 77,
                    "time": 156.29041375000082,
                    "velocity": 0.3700787401574803,
                    "duration": 0.04838712500000497
                },
                {
                    "name": "A4",
                    "midi": 69,
                    "time": 156.29041375000082,
                    "velocity": 0.3700787401574803,
                    "duration": 0.04838712500000497
                },
                {
                    "name": "B4",
                    "midi": 71,
                    "time": 156.38718800000083,
                    "velocity": 0.47244094488188976,
                    "duration": 0.09677425000000994
                },
                {
                    "name": "F5",
                    "midi": 77,
                    "time": 156.38718800000083,
                    "velocity": 0.3937007874015748,
                    "duration": 0.09677425000000994
                },
                {
                    "name": "G#4",
                    "midi": 68,
                    "time": 156.38718800000083,
                    "velocity": 0.3937007874015748,
                    "duration": 0.09677425000000994
                },
                {
                    "name": "C5",
                    "midi": 72,
                    "time": 156.67751075000083,
                    "velocity": 0.4409448818897638,
                    "duration": 0.04838712500000497
                },
                {
                    "name": "F5",
                    "midi": 77,
                    "time": 156.67751075000083,
                    "velocity": 0.4409448818897638,
                    "duration": 0.04838712500000497
                },
                {
                    "name": "A4",
                    "midi": 69,
                    "time": 156.67751075000083,
                    "velocity": 0.3700787401574803,
                    "duration": 0.04838712500000497
                },
                {
                    "name": "A4",
                    "midi": 69,
                    "time": 156.77428500000084,
                    "velocity": 0.3543307086614173,
                    "duration": 0.7669359312500035
                },
                {
                    "name": "C#5",
                    "midi": 73,
                    "time": 156.77428500000084,
                    "velocity": 0.3543307086614173,
                    "duration": 0.7661294791666649
                },
                {
                    "name": "F5",
                    "midi": 77,
                    "time": 156.77428500000084,
                    "velocity": 0.4251968503937008,
                    "duration": 0.7669359312500035
                },
                {
                    "name": "A#4",
                    "midi": 70,
                    "time": 157.54847900000084,
                    "velocity": 0.3543307086614173,
                    "duration": 0.6572584479166608
                },
                {
                    "name": "D5",
                    "midi": 74,
                    "time": 157.54847900000084,
                    "velocity": 0.3543307086614173,
                    "duration": 0.6572584479166608
                },
                {
                    "name": "F5",
                    "midi": 77,
                    "time": 157.54847900000084,
                    "velocity": 0.4251968503937008,
                    "duration": 0.6572584479166608
                },
                {
                    "name": "D5",
                    "midi": 74,
                    "time": 158.22589875000082,
                    "velocity": 0.3700787401574803,
                    "duration": 0.04838712500000497
                },
                {
                    "name": "A#4",
                    "midi": 70,
                    "time": 158.22589875000082,
                    "velocity": 0.3700787401574803,
                    "duration": 0.04838712500000497
                },
                {
                    "name": "F5",
                    "midi": 77,
                    "time": 158.22589875000082,
                    "velocity": 0.4409448818897638,
                    "duration": 0.04838712500000497
                },
                {
                    "name": "D5",
                    "midi": 74,
                    "time": 158.32267300000083,
                    "velocity": 0.4015748031496063,
                    "duration": 0.09677425000000994
                },
                {
                    "name": "A#4",
                    "midi": 70,
                    "time": 158.32267300000083,
                    "velocity": 0.4015748031496063,
                    "duration": 0.09677425000000994
                },
                {
                    "name": "F5",
                    "midi": 77,
                    "time": 158.32267300000083,
                    "velocity": 0.47244094488188976,
                    "duration": 0.09677425000000994
                },
                {
                    "name": "F5",
                    "midi": 77,
                    "time": 158.61299575000083,
                    "velocity": 0.44881889763779526,
                    "duration": 0.04838712500000497
                },
                {
                    "name": "A#4",
                    "midi": 70,
                    "time": 158.61299575000083,
                    "velocity": 0.3779527559055118,
                    "duration": 0.04838712500000497
                },
                {
                    "name": "D5",
                    "midi": 74,
                    "time": 158.61299575000083,
                    "velocity": 0.3779527559055118,
                    "duration": 0.04838712500000497
                },
                {
                    "name": "A#4",
                    "midi": 70,
                    "time": 158.70977000000084,
                    "velocity": 0.4094488188976378,
                    "duration": 0.09677425000000994
                },
                {
                    "name": "D5",
                    "midi": 74,
                    "time": 158.70977000000084,
                    "velocity": 0.4094488188976378,
                    "duration": 0.09677425000000994
                },
                {
                    "name": "E5",
                    "midi": 76,
                    "time": 158.70977000000084,
                    "velocity": 0.49606299212598426,
                    "duration": 0.09677425000000994
                },
                {
                    "name": "A#4",
                    "midi": 70,
                    "time": 159.00009275000085,
                    "velocity": 0.3937007874015748,
                    "duration": 0.04838712500000497
                },
                {
                    "name": "D5",
                    "midi": 74,
                    "time": 159.00009275000085,
                    "velocity": 0.3937007874015748,
                    "duration": 0.04838712500000497
                },
                {
                    "name": "F5",
                    "midi": 77,
                    "time": 159.00009275000085,
                    "velocity": 0.47244094488188976,
                    "duration": 0.04838712500000497
                },
                {
                    "name": "A#4",
                    "midi": 70,
                    "time": 159.09686700000086,
                    "velocity": 0.4409448818897638,
                    "duration": 0.7669359312500035
                },
                {
                    "name": "D5",
                    "midi": 74,
                    "time": 159.09686700000086,
                    "velocity": 0.4409448818897638,
                    "duration": 0.7669359312500035
                },
                {
                    "name": "G5",
                    "midi": 79,
                    "time": 159.09686700000086,
                    "velocity": 0.5196850393700787,
                    "duration": 0.7669359312500035
                },
                {
                    "name": "A#4",
                    "midi": 70,
                    "time": 159.87106100000085,
                    "velocity": 0.4409448818897638,
                    "duration": 0.6572584479166608
                },
                {
                    "name": "D5",
                    "midi": 74,
                    "time": 159.87106100000085,
                    "velocity": 0.4409448818897638,
                    "duration": 0.6572584479166608
                },
                {
                    "name": "G5",
                    "midi": 79,
                    "time": 159.87106100000085,
                    "velocity": 0.5196850393700787,
                    "duration": 0.6572584479166608
                },
                {
                    "name": "G5",
                    "midi": 79,
                    "time": 160.54848075000083,
                    "velocity": 0.48031496062992124,
                    "duration": 0.04838712500000497
                },
                {
                    "name": "D5",
                    "midi": 74,
                    "time": 160.54848075000083,
                    "velocity": 0.4015748031496063,
                    "duration": 0.04838712500000497
                },
                {
                    "name": "A#4",
                    "midi": 70,
                    "time": 160.54848075000083,
                    "velocity": 0.4015748031496063,
                    "duration": 0.04838712500000497
                },
                {
                    "name": "G5",
                    "midi": 79,
                    "time": 160.64525500000084,
                    "velocity": 0.5196850393700787,
                    "duration": 0.09677425000000994
                },
                {
                    "name": "D5",
                    "midi": 74,
                    "time": 160.64525500000084,
                    "velocity": 0.4409448818897638,
                    "duration": 0.09677425000000994
                },
                {
                    "name": "A#4",
                    "midi": 70,
                    "time": 160.64525500000084,
                    "velocity": 0.4409448818897638,
                    "duration": 0.09677425000000994
                },
                {
                    "name": "A#5",
                    "midi": 82,
                    "time": 160.93557775000085,
                    "velocity": 0.47244094488188976,
                    "duration": 0.04838712500000497
                },
                {
                    "name": "D5",
                    "midi": 74,
                    "time": 160.93557775000085,
                    "velocity": 0.3937007874015748,
                    "duration": 0.04838712500000497
                },
                {
                    "name": "A#4",
                    "midi": 70,
                    "time": 160.93557775000085,
                    "velocity": 0.3937007874015748,
                    "duration": 0.04838712500000497
                },
                {
                    "name": "D5",
                    "midi": 74,
                    "time": 161.03235200000086,
                    "velocity": 0.4251968503937008,
                    "duration": 0.09677425000000994
                },
                {
                    "name": "A#4",
                    "midi": 70,
                    "time": 161.03235200000086,
                    "velocity": 0.4251968503937008,
                    "duration": 0.09677425000000994
                },
                {
                    "name": "A5",
                    "midi": 81,
                    "time": 161.03235200000086,
                    "velocity": 0.5039370078740157,
                    "duration": 0.09677425000000994
                },
                {
                    "name": "D5",
                    "midi": 74,
                    "time": 161.32267475000086,
                    "velocity": 0.3858267716535433,
                    "duration": 0.04838712500000497
                },
                {
                    "name": "A#4",
                    "midi": 70,
                    "time": 161.32267475000086,
                    "velocity": 0.3858267716535433,
                    "duration": 0.04838712500000497
                },
                {
                    "name": "G5",
                    "midi": 79,
                    "time": 161.32267475000086,
                    "velocity": 0.4645669291338583,
                    "duration": 0.04838712500000497
                },
                {
                    "name": "F5",
                    "midi": 77,
                    "time": 161.41944900000087,
                    "velocity": 0.47244094488188976,
                    "duration": 0.7669359312500035
                },
                {
                    "name": "A#4",
                    "midi": 70,
                    "time": 161.41944900000087,
                    "velocity": 0.4015748031496063,
                    "duration": 0.7669359312500035
                },
                {
                    "name": "D5",
                    "midi": 74,
                    "time": 161.41944900000087,
                    "velocity": 0.4015748031496063,
                    "duration": 0.7669359312500035
                },
                {
                    "name": "D5",
                    "midi": 74,
                    "time": 162.19364300000086,
                    "velocity": 0.4015748031496063,
                    "duration": 0.6572584479166608
                },
                {
                    "name": "A#4",
                    "midi": 70,
                    "time": 162.19364300000086,
                    "velocity": 0.47244094488188976,
                    "duration": 0.6572584479166608
                },
                {
                    "name": "F5",
                    "midi": 77,
                    "time": 162.19364300000086,
                    "velocity": 0.47244094488188976,
                    "duration": 0.6572584479166608
                },
                {
                    "name": "F5",
                    "midi": 77,
                    "time": 162.87106275000085,
                    "velocity": 0.3700787401574803,
                    "duration": 0.04838712500000497
                },
                {
                    "name": "A#4",
                    "midi": 70,
                    "time": 162.87106275000085,
                    "velocity": 0.3700787401574803,
                    "duration": 0.04838712500000497
                },
                {
                    "name": "D5",
                    "midi": 74,
                    "time": 162.87106275000085,
                    "velocity": 0.4409448818897638,
                    "duration": 0.04838712500000497
                },
                {
                    "name": "F5",
                    "midi": 77,
                    "time": 162.96783700000086,
                    "velocity": 0.4015748031496063,
                    "duration": 0.09677425000000994
                },
                {
                    "name": "A#4",
                    "midi": 70,
                    "time": 162.96783700000086,
                    "velocity": 0.4015748031496063,
                    "duration": 0.09677425000000994
                },
                {
                    "name": "D5",
                    "midi": 74,
                    "time": 162.96783700000086,
                    "velocity": 0.47244094488188976,
                    "duration": 0.09677425000000994
                },
                {
                    "name": "F5",
                    "midi": 77,
                    "time": 163.25815975000086,
                    "velocity": 0.3700787401574803,
                    "duration": 0.04838712500000497
                },
                {
                    "name": "A#4",
                    "midi": 70,
                    "time": 163.25815975000086,
                    "velocity": 0.3700787401574803,
                    "duration": 0.04838712500000497
                },
                {
                    "name": "D5",
                    "midi": 74,
                    "time": 163.25815975000086,
                    "velocity": 0.4409448818897638,
                    "duration": 0.04838712500000497
                },
                {
                    "name": "G5",
                    "midi": 79,
                    "time": 163.35493400000087,
                    "velocity": 0.3937007874015748,
                    "duration": 0.09677425000000994
                },
                {
                    "name": "A#4",
                    "midi": 70,
                    "time": 163.35493400000087,
                    "velocity": 0.3937007874015748,
                    "duration": 0.09677425000000994
                },
                {
                    "name": "D#5",
                    "midi": 75,
                    "time": 163.35493400000087,
                    "velocity": 0.47244094488188976,
                    "duration": 0.09677425000000994
                },
                {
                    "name": "F5",
                    "midi": 77,
                    "time": 163.64525675000087,
                    "velocity": 0.4409448818897638,
                    "duration": 0.04838712500000497
                },
                {
                    "name": "A#4",
                    "midi": 70,
                    "time": 163.64525675000087,
                    "velocity": 0.3700787401574803,
                    "duration": 0.04838712500000497
                },
                {
                    "name": "D5",
                    "midi": 74,
                    "time": 163.64525675000087,
                    "velocity": 0.4409448818897638,
                    "duration": 0.04838712500000497
                },
                {
                    "name": "A4",
                    "midi": 69,
                    "time": 163.74203100000088,
                    "velocity": 0.4015748031496063,
                    "duration": 0.7741939999999943
                },
                {
                    "name": "C5",
                    "midi": 72,
                    "time": 163.74203100000088,
                    "velocity": 0.4015748031496063,
                    "duration": 0.7741939999999943
                },
                {
                    "name": "F5",
                    "midi": 77,
                    "time": 163.74203100000088,
                    "velocity": 0.47244094488188976,
                    "duration": 0.7741939999999943
                },
                {
                    "name": "A4",
                    "midi": 69,
                    "time": 164.51622500000087,
                    "velocity": 0.3779527559055118,
                    "duration": 0.6572584479166608
                },
                {
                    "name": "C5",
                    "midi": 72,
                    "time": 164.51622500000087,
                    "velocity": 0.3779527559055118,
                    "duration": 0.6572584479166608
                },
                {
                    "name": "D#5",
                    "midi": 75,
                    "time": 164.51622500000087,
                    "velocity": 0.44881889763779526,
                    "duration": 0.6572584479166608
                },
                {
                    "name": "D#5",
                    "midi": 75,
                    "time": 165.19364475000086,
                    "velocity": 0.3464566929133858,
                    "duration": 0.04838712500000497
                },
                {
                    "name": "F4",
                    "midi": 65,
                    "time": 165.19364475000086,
                    "velocity": 0.3464566929133858,
                    "duration": 0.04838712500000497
                },
                {
                    "name": "C5",
                    "midi": 72,
                    "time": 165.19364475000086,
                    "velocity": 0.41732283464566927,
                    "duration": 0.04838712500000497
                },
                {
                    "name": "D#5",
                    "midi": 75,
                    "time": 165.29041900000087,
                    "velocity": 0.3779527559055118,
                    "duration": 0.09677425000000994
                },
                {
                    "name": "F4",
                    "midi": 65,
                    "time": 165.29041900000087,
                    "velocity": 0.3779527559055118,
                    "duration": 0.09677425000000994
                },
                {
                    "name": "C5",
                    "midi": 72,
                    "time": 165.29041900000087,
                    "velocity": 0.44881889763779526,
                    "duration": 0.09677425000000994
                },
                {
                    "name": "D#5",
                    "midi": 75,
                    "time": 165.58074175000087,
                    "velocity": 0.3464566929133858,
                    "duration": 0.04838712500000497
                },
                {
                    "name": "F4",
                    "midi": 65,
                    "time": 165.58074175000087,
                    "velocity": 0.3464566929133858,
                    "duration": 0.04838712500000497
                },
                {
                    "name": "C5",
                    "midi": 72,
                    "time": 165.58074175000087,
                    "velocity": 0.41732283464566927,
                    "duration": 0.04838712500000497
                },
                {
                    "name": "D5",
                    "midi": 74,
                    "time": 165.67751600000088,
                    "velocity": 0.3700787401574803,
                    "duration": 0.09677425000000994
                },
                {
                    "name": "F4",
                    "midi": 65,
                    "time": 165.67751600000088,
                    "velocity": 0.3700787401574803,
                    "duration": 0.09677425000000994
                },
                {
                    "name": "B4",
                    "midi": 71,
                    "time": 165.67751600000088,
                    "velocity": 0.44881889763779526,
                    "duration": 0.09677425000000994
                },
                {
                    "name": "C5",
                    "midi": 72,
                    "time": 165.96783875000088,
                    "velocity": 0.41732283464566927,
                    "duration": 0.04838712500000497
                },
                {
                    "name": "F4",
                    "midi": 65,
                    "time": 165.96783875000088,
                    "velocity": 0.3464566929133858,
                    "duration": 0.04838712500000497
                },
                {
                    "name": "A4",
                    "midi": 69,
                    "time": 165.96783875000088,
                    "velocity": 0.41732283464566927,
                    "duration": 0.04838712500000497
                },
                {
                    "name": "D4",
                    "midi": 62,
                    "time": 166.0646130000009,
                    "velocity": 0.31496062992125984,
                    "duration": 0.7741939999999943
                },
                {
                    "name": "F4",
                    "midi": 65,
                    "time": 166.0646130000009,
                    "velocity": 0.31496062992125984,
                    "duration": 0.7741939999999943
                },
                {
                    "name": "A#4",
                    "midi": 70,
                    "time": 166.0646130000009,
                    "velocity": 0.3779527559055118,
                    "duration": 0.7741939999999943
                },
                {
                    "name": "D4",
                    "midi": 62,
                    "time": 166.83880700000088,
                    "velocity": 0.31496062992125984,
                    "duration": 0.6572584479166608
                },
                {
                    "name": "F4",
                    "midi": 65,
                    "time": 166.83880700000088,
                    "velocity": 0.31496062992125984,
                    "duration": 0.6572584479166608
                },
                {
                    "name": "A#4",
                    "midi": 70,
                    "time": 166.83880700000088,
                    "velocity": 0.3779527559055118,
                    "duration": 0.6572584479166608
                },
                {
                    "name": "D#5",
                    "midi": 75,
                    "time": 167.51622675000087,
                    "velocity": 0.30708661417322836,
                    "duration": 0.04838712500000497
                },
                {
                    "name": "F4",
                    "midi": 65,
                    "time": 167.51622675000087,
                    "velocity": 0.30708661417322836,
                    "duration": 0.04838712500000497
                },
                {
                    "name": "C5",
                    "midi": 72,
                    "time": 167.51622675000087,
                    "velocity": 0.3700787401574803,
                    "duration": 0.04838712500000497
                },
                {
                    "name": "D#5",
                    "midi": 75,
                    "time": 167.61300100000088,
                    "velocity": 0.33858267716535434,
                    "duration": 0.09677425000000994
                },
                {
                    "name": "F4",
                    "midi": 65,
                    "time": 167.61300100000088,
                    "velocity": 0.33858267716535434,
                    "duration": 0.09677425000000994
                },
                {
                    "name": "C5",
                    "midi": 72,
                    "time": 167.61300100000088,
                    "velocity": 0.4015748031496063,
                    "duration": 0.09677425000000994
                },
                {
                    "name": "D#5",
                    "midi": 75,
                    "time": 167.90332375000088,
                    "velocity": 0.30708661417322836,
                    "duration": 0.04838712500000497
                },
                {
                    "name": "F4",
                    "midi": 65,
                    "time": 167.90332375000088,
                    "velocity": 0.30708661417322836,
                    "duration": 0.04838712500000497
                },
                {
                    "name": "C5",
                    "midi": 72,
                    "time": 167.90332375000088,
                    "velocity": 0.3700787401574803,
                    "duration": 0.04838712500000497
                },
                {
                    "name": "D5",
                    "midi": 74,
                    "time": 168.0000980000009,
                    "velocity": 0.33070866141732286,
                    "duration": 0.09677425000000994
                },
                {
                    "name": "F4",
                    "midi": 65,
                    "time": 168.0000980000009,
                    "velocity": 0.33070866141732286,
                    "duration": 0.09677425000000994
                },
                {
                    "name": "A#4",
                    "midi": 70,
                    "time": 168.0000980000009,
                    "velocity": 0.4015748031496063,
                    "duration": 0.09677425000000994
                },
                {
                    "name": "C5",
                    "midi": 72,
                    "time": 168.2904207500009,
                    "velocity": 0.3700787401574803,
                    "duration": 0.04838712500000497
                },
                {
                    "name": "F4",
                    "midi": 65,
                    "time": 168.2904207500009,
                    "velocity": 0.30708661417322836,
                    "duration": 0.04838712500000497
                },
                {
                    "name": "A4",
                    "midi": 69,
                    "time": 168.2904207500009,
                    "velocity": 0.3700787401574803,
                    "duration": 0.04838712500000497
                },
                {
                    "name": "D4",
                    "midi": 62,
                    "time": 168.3871950000009,
                    "velocity": 0.2992125984251969,
                    "duration": 0.7741939999999943
                },
                {
                    "name": "A#4",
                    "midi": 70,
                    "time": 168.3871950000009,
                    "velocity": 0.3543307086614173,
                    "duration": 0.7741939999999943
                },
                {
                    "name": "F4",
                    "midi": 65,
                    "time": 168.3871950000009,
                    "velocity": 0.2992125984251969,
                    "duration": 0.7741939999999943
                },
                {
                    "name": "D4",
                    "midi": 62,
                    "time": 169.1613890000009,
                    "velocity": 0.2992125984251969,
                    "duration": 0.6572584479166608
                },
                {
                    "name": "A#4",
                    "midi": 70,
                    "time": 169.1613890000009,
                    "velocity": 0.3543307086614173,
                    "duration": 0.6572584479166608
                },
                {
                    "name": "F4",
                    "midi": 65,
                    "time": 169.1613890000009,
                    "velocity": 0.2992125984251969,
                    "duration": 0.6572584479166608
                },
                {
                    "name": "F4",
                    "midi": 65,
                    "time": 169.83880875000088,
                    "velocity": 0.2755905511811024,
                    "duration": 0.04838712500000497
                },
                {
                    "name": "D#5",
                    "midi": 75,
                    "time": 169.83880875000088,
                    "velocity": 0.2755905511811024,
                    "duration": 0.04838712500000497
                },
                {
                    "name": "C5",
                    "midi": 72,
                    "time": 169.83880875000088,
                    "velocity": 0.33070866141732286,
                    "duration": 0.04838712500000497
                },
                {
                    "name": "D#5",
                    "midi": 75,
                    "time": 169.9355830000009,
                    "velocity": 0.2992125984251969,
                    "duration": 0.09677425000000994
                },
                {
                    "name": "F4",
                    "midi": 65,
                    "time": 169.9355830000009,
                    "velocity": 0.2992125984251969,
                    "duration": 0.09677425000000994
                },
                {
                    "name": "C5",
                    "midi": 72,
                    "time": 169.9355830000009,
                    "velocity": 0.3543307086614173,
                    "duration": 0.09677425000000994
                },
                {
                    "name": "F4",
                    "midi": 65,
                    "time": 170.2259057500009,
                    "velocity": 0.2677165354330709,
                    "duration": 0.04838712500000497
                },
                {
                    "name": "C5",
                    "midi": 72,
                    "time": 170.2259057500009,
                    "velocity": 0.3228346456692913,
                    "duration": 0.04838712500000497
                },
                {
                    "name": "D#5",
                    "midi": 75,
                    "time": 170.2259057500009,
                    "velocity": 0.2677165354330709,
                    "duration": 0.04838712500000497
                },
                {
                    "name": "F4",
                    "midi": 65,
                    "time": 170.3226800000009,
                    "velocity": 0.28346456692913385,
                    "duration": 0.09677425000000994
                },
                {
                    "name": "A#4",
                    "midi": 70,
                    "time": 170.3226800000009,
                    "velocity": 0.3464566929133858,
                    "duration": 0.09677425000000994
                },
                {
                    "name": "D5",
                    "midi": 74,
                    "time": 170.3226800000009,
                    "velocity": 0.28346456692913385,
                    "duration": 0.09677425000000994
                },
                {
                    "name": "A4",
                    "midi": 69,
                    "time": 170.6130027500009,
                    "velocity": 0.30708661417322836,
                    "duration": 0.04838712500000497
                },
                {
                    "name": "C5",
                    "midi": 72,
                    "time": 170.6130027500009,
                    "velocity": 0.30708661417322836,
                    "duration": 0.04838712500000497
                },
                {
                    "name": "F4",
                    "midi": 65,
                    "time": 170.6130027500009,
                    "velocity": 0.25984251968503935,
                    "duration": 0.04838712500000497
                },
                {
                    "name": "D4",
                    "midi": 62,
                    "time": 170.7097770000009,
                    "velocity": 0.2440944881889764,
                    "duration": 0.282258229166672
                },
                {
                    "name": "A#4",
                    "midi": 70,
                    "time": 170.7097770000009,
                    "velocity": 0.29133858267716534,
                    "duration": 0.282258229166672
                },
                {
                    "name": "F4",
                    "midi": 65,
                    "time": 170.7097770000009,
                    "velocity": 0.2440944881889764,
                    "duration": 0.282258229166672
                },
                {
                    "name": "A#2",
                    "midi": 46,
                    "time": 171.0000997500009,
                    "velocity": 0.5511811023622047,
                    "duration": 0.04838712500000497
                },
                {
                    "name": "A#2",
                    "midi": 46,
                    "time": 171.09687400000092,
                    "velocity": 0.5984251968503937,
                    "duration": 0.09677425000000994
                },
                {
                    "name": "A#2",
                    "midi": 46,
                    "time": 171.38719675000092,
                    "velocity": 0.5511811023622047,
                    "duration": 0.04838712500000497
                },
                {
                    "name": "A#2",
                    "midi": 46,
                    "time": 171.48397100000093,
                    "velocity": 0.5905511811023622,
                    "duration": 0.09677425000000994
                },
                {
                    "name": "C3",
                    "midi": 48,
                    "time": 171.77429375000094,
                    "velocity": 0.5511811023622047,
                    "duration": 0.04838712500000497
                },
                {
                    "name": "D3",
                    "midi": 50,
                    "time": 171.87106800000095,
                    "velocity": 0.5905511811023622,
                    "duration": 0.282258229166672
                },
                {
                    "name": "D4",
                    "midi": 62,
                    "time": 172.16139075000095,
                    "velocity": 0.5511811023622047,
                    "duration": 0.04838712500000497
                },
                {
                    "name": "D3",
                    "midi": 50,
                    "time": 172.16139075000095,
                    "velocity": 0.4645669291338583,
                    "duration": 0.04838712500000497
                },
                {
                    "name": "D3",
                    "midi": 50,
                    "time": 172.25816500000096,
                    "velocity": 0.5039370078740157,
                    "duration": 0.09677425000000994
                },
                {
                    "name": "D4",
                    "midi": 62,
                    "time": 172.25816500000096,
                    "velocity": 0.5984251968503937,
                    "duration": 0.09677425000000994
                },
                {
                    "name": "D4",
                    "midi": 62,
                    "time": 172.54848775000096,
                    "velocity": 0.5511811023622047,
                    "duration": 0.04838712500000497
                },
                {
                    "name": "D3",
                    "midi": 50,
                    "time": 172.54848775000096,
                    "velocity": 0.4645669291338583,
                    "duration": 0.04838712500000497
                },
                {
                    "name": "D3",
                    "midi": 50,
                    "time": 172.64526200000097,
                    "velocity": 0.49606299212598426,
                    "duration": 0.09677425000000994
                },
                {
                    "name": "D4",
                    "midi": 62,
                    "time": 172.64526200000097,
                    "velocity": 0.5905511811023622,
                    "duration": 0.09677425000000994
                },
                {
                    "name": "E3",
                    "midi": 52,
                    "time": 172.93558475000097,
                    "velocity": 0.4645669291338583,
                    "duration": 0.04838712500000497
                },
                {
                    "name": "E4",
                    "midi": 64,
                    "time": 172.93558475000097,
                    "velocity": 0.5511811023622047,
                    "duration": 0.04838712500000497
                },
                {
                    "name": "F4",
                    "midi": 65,
                    "time": 173.03235900000098,
                    "velocity": 0.6456692913385826,
                    "duration": 0.282258229166672
                },
                {
                    "name": "F3",
                    "midi": 53,
                    "time": 173.03235900000098,
                    "velocity": 0.5433070866141733,
                    "duration": 0.2903227500000014
                },
                {
                    "name": "F3",
                    "midi": 53,
                    "time": 173.32268175000098,
                    "velocity": 0.6062992125984252,
                    "duration": 0.04838712500000497
                },
                {
                    "name": "F3",
                    "midi": 53,
                    "time": 173.419456000001,
                    "velocity": 0.6535433070866141,
                    "duration": 0.09677425000000994
                },
                {
                    "name": "F3",
                    "midi": 53,
                    "time": 173.709778750001,
                    "velocity": 0.6062992125984252,
                    "duration": 0.04838712500000497
                },
                {
                    "name": "F3",
                    "midi": 53,
                    "time": 173.806553000001,
                    "velocity": 0.6456692913385826,
                    "duration": 0.09677425000000994
                },
                {
                    "name": "G3",
                    "midi": 55,
                    "time": 174.096875750001,
                    "velocity": 0.6062992125984252,
                    "duration": 0.04838712500000497
                },
                {
                    "name": "A3",
                    "midi": 57,
                    "time": 174.193650000001,
                    "velocity": 0.7086614173228346,
                    "duration": 0.282258229166672
                },
                {
                    "name": "A4",
                    "midi": 69,
                    "time": 174.48397275000102,
                    "velocity": 0.5590551181102362,
                    "duration": 0.04838712500000497
                },
                {
                    "name": "A3",
                    "midi": 57,
                    "time": 174.48397275000102,
                    "velocity": 0.47244094488188976,
                    "duration": 0.04838712500000497
                },
                {
                    "name": "A3",
                    "midi": 57,
                    "time": 174.58074700000103,
                    "velocity": 0.5118110236220472,
                    "duration": 0.09677425000000994
                },
                {
                    "name": "A4",
                    "midi": 69,
                    "time": 174.58074700000103,
                    "velocity": 0.6141732283464567,
                    "duration": 0.09677425000000994
                },
                {
                    "name": "B3",
                    "midi": 59,
                    "time": 174.87106975000103,
                    "velocity": 0.48031496062992124,
                    "duration": 0.04838712500000497
                },
                {
                    "name": "B4",
                    "midi": 71,
                    "time": 174.87106975000103,
                    "velocity": 0.5748031496062992,
                    "duration": 0.04838712500000497
                },
                {
                    "name": "C#5",
                    "midi": 73,
                    "time": 174.96784400000104,
                    "velocity": 0.6220472440944882,
                    "duration": 0.09677425000000994
                },
                {
                    "name": "C#4",
                    "midi": 61,
                    "time": 174.96784400000104,
                    "velocity": 0.5196850393700787,
                    "duration": 0.09677425000000994
                },
                {
                    "name": "D4",
                    "midi": 62,
                    "time": 175.25816675000104,
                    "velocity": 0.5039370078740157,
                    "duration": 0.04838712500000497
                },
                {
                    "name": "D5",
                    "midi": 74,
                    "time": 175.25816675000104,
                    "velocity": 0.5984251968503937,
                    "duration": 0.04838712500000497
                },
                {
                    "name": "A4",
                    "midi": 69,
                    "time": 175.35494100000105,
                    "velocity": 0.5511811023622047,
                    "duration": 0.7508068895833446
                },
                {
                    "name": "E5",
                    "midi": 76,
                    "time": 175.35494100000105,
                    "velocity": 0.6535433070866141,
                    "duration": 0.7508068895833446
                },
                {
                    "name": "C#5",
                    "midi": 73,
                    "time": 175.35494100000105,
                    "velocity": 0.5511811023622047,
                    "duration": 0.7741940000000227
                },
                {
                    "name": "E4",
                    "midi": 64,
                    "time": 175.35494100000105,
                    "velocity": 0.5511811023622047,
                    "duration": 0.7508068895833446
                },
                {
                    "name": "C#5",
                    "midi": 73,
                    "time": 176.12913500000107,
                    "velocity": 0.5511811023622047,
                    "duration": 0.6572584479166608
                },
                {
                    "name": "E4",
                    "midi": 64,
                    "time": 176.12913500000107,
                    "velocity": 0.5511811023622047,
                    "duration": 0.6572584479166608
                },
                {
                    "name": "A4",
                    "midi": 69,
                    "time": 176.12913500000107,
                    "velocity": 0.5511811023622047,
                    "duration": 0.6572584479166608
                },
                {
                    "name": "E5",
                    "midi": 76,
                    "time": 176.12913500000107,
                    "velocity": 0.6535433070866141,
                    "duration": 0.6572584479166608
                },
                {
                    "name": "D5",
                    "midi": 74,
                    "time": 176.80655475000106,
                    "velocity": 0.4566929133858268,
                    "duration": 0.0919355375000066
                },
                {
                    "name": "E5",
                    "midi": 76,
                    "time": 176.80655475000106,
                    "velocity": 0.5748031496062992,
                    "duration": 0.0919355375000066
                },
                {
                    "name": "G#4",
                    "midi": 68,
                    "time": 176.80655475000106,
                    "velocity": 0.4566929133858268,
                    "duration": 0.0919355375000066
                },
                {
                    "name": "D5",
                    "midi": 74,
                    "time": 176.90332900000107,
                    "velocity": 0.5196850393700787,
                    "duration": 0.2758066124999914
                },
                {
                    "name": "E5",
                    "midi": 76,
                    "time": 176.90332900000107,
                    "velocity": 0.6456692913385826,
                    "duration": 0.2685485437500006
                },
                {
                    "name": "G#4",
                    "midi": 68,
                    "time": 176.90332900000107,
                    "velocity": 0.5196850393700787,
                    "duration": 0.2758066124999914
                },
                {
                    "name": "D5",
                    "midi": 74,
                    "time": 177.19365175000107,
                    "velocity": 0.49606299212598426,
                    "duration": 0.0919355375000066
                },
                {
                    "name": "E5",
                    "midi": 76,
                    "time": 177.19365175000107,
                    "velocity": 0.6299212598425197,
                    "duration": 0.0919355375000066
                },
                {
                    "name": "G#4",
                    "midi": 68,
                    "time": 177.19365175000107,
                    "velocity": 0.49606299212598426,
                    "duration": 0.0919355375000066
                },
                {
                    "name": "G#4",
                    "midi": 68,
                    "time": 177.29042600000108,
                    "velocity": 0.5275590551181102,
                    "duration": 0.2758066124999914
                },
                {
                    "name": "F#5",
                    "midi": 78,
                    "time": 177.29042600000108,
                    "velocity": 0.6692913385826772,
                    "duration": 0.2758066124999914
                },
                {
                    "name": "D5",
                    "midi": 74,
                    "time": 177.29042600000108,
                    "velocity": 0.5275590551181102,
                    "duration": 0.2758066124999914
                },
                {
                    "name": "G#4",
                    "midi": 68,
                    "time": 177.58074875000108,
                    "velocity": 0.5118110236220472,
                    "duration": 0.09677425000000994
                },
                {
                    "name": "G#5",
                    "midi": 80,
                    "time": 177.58074875000108,
                    "velocity": 0.6535433070866141,
                    "duration": 0.09677425000000994
                },
                {
                    "name": "D5",
                    "midi": 74,
                    "time": 177.58074875000108,
                    "velocity": 0.5118110236220472,
                    "duration": 0.09677425000000994
                },
                {
                    "name": "A4",
                    "midi": 69,
                    "time": 177.6775230000011,
                    "velocity": 0.6141732283464567,
                    "duration": 0.7508068895833446
                },
                {
                    "name": "C#5",
                    "midi": 73,
                    "time": 177.6775230000011,
                    "velocity": 0.6141732283464567,
                    "duration": 0.7508068895833446
                },
                {
                    "name": "A5",
                    "midi": 81,
                    "time": 177.6775230000011,
                    "velocity": 0.7322834645669292,
                    "duration": 0.7508068895833446
                },
                {
                    "name": "A4",
                    "midi": 69,
                    "time": 178.4517170000011,
                    "velocity": 0.6141732283464567,
                    "duration": 0.6612907083333255
                },
                {
                    "name": "C#5",
                    "midi": 73,
                    "time": 178.4517170000011,
                    "velocity": 0.6141732283464567,
                    "duration": 0.6612907083333255
                },
                {
                    "name": "A5",
                    "midi": 81,
                    "time": 178.4517170000011,
                    "velocity": 0.7322834645669292,
                    "duration": 0.6612907083333255
                },
                {
                    "name": "A3",
                    "midi": 57,
                    "time": 179.1291367500011,
                    "velocity": 0.3700787401574803,
                    "duration": 0.04838712500000497
                },
                {
                    "name": "C#4",
                    "midi": 61,
                    "time": 179.1291367500011,
                    "velocity": 0.4409448818897638,
                    "duration": 0.04838712500000497
                },
                {
                    "name": "G3",
                    "midi": 55,
                    "time": 179.1291367500011,
                    "velocity": 0.3700787401574803,
                    "duration": 0.04838712500000497
                },
                {
                    "name": "A3",
                    "midi": 57,
                    "time": 179.2259110000011,
                    "velocity": 0.4015748031496063,
                    "duration": 0.09677425000000994
                },
                {
                    "name": "D4",
                    "midi": 62,
                    "time": 179.2259110000011,
                    "velocity": 0.47244094488188976,
                    "duration": 0.09677425000000994
                },
                {
                    "name": "G3",
                    "midi": 55,
                    "time": 179.2259110000011,
                    "velocity": 0.4015748031496063,
                    "duration": 0.09677425000000994
                },
                {
                    "name": "A3",
                    "midi": 57,
                    "time": 179.5162337500011,
                    "velocity": 0.3700787401574803,
                    "duration": 0.04838712500000497
                },
                {
                    "name": "C#4",
                    "midi": 61,
                    "time": 179.5162337500011,
                    "velocity": 0.4409448818897638,
                    "duration": 0.04838712500000497
                },
                {
                    "name": "G3",
                    "midi": 55,
                    "time": 179.5162337500011,
                    "velocity": 0.3700787401574803,
                    "duration": 0.04838712500000497
                },
                {
                    "name": "G3",
                    "midi": 55,
                    "time": 179.61300800000112,
                    "velocity": 0.3937007874015748,
                    "duration": 0.09677425000000994
                },
                {
                    "name": "A3",
                    "midi": 57,
                    "time": 179.61300800000112,
                    "velocity": 0.3937007874015748,
                    "duration": 0.09677425000000994
                },
                {
                    "name": "D4",
                    "midi": 62,
                    "time": 179.61300800000112,
                    "velocity": 0.47244094488188976,
                    "duration": 0.09677425000000994
                },
                {
                    "name": "G3",
                    "midi": 55,
                    "time": 179.90333075000112,
                    "velocity": 0.3700787401574803,
                    "duration": 0.04838712500000497
                },
                {
                    "name": "A3",
                    "midi": 57,
                    "time": 179.90333075000112,
                    "velocity": 0.3700787401574803,
                    "duration": 0.04838712500000497
                },
                {
                    "name": "E4",
                    "midi": 64,
                    "time": 179.90333075000112,
                    "velocity": 0.4409448818897638,
                    "duration": 0.04838712500000497
                },
                {
                    "name": "A3",
                    "midi": 57,
                    "time": 180.00010500000113,
                    "velocity": 0.5039370078740157,
                    "duration": 0.7508068895833446
                },
                {
                    "name": "F#3",
                    "midi": 54,
                    "time": 180.00010500000113,
                    "velocity": 0.4251968503937008,
                    "duration": 0.7508068895833446
                },
                {
                    "name": "A3",
                    "midi": 57,
                    "time": 180.77429900000115,
                    "velocity": 0.4251968503937008,
                    "duration": 0.6572584479166608
                },
                {
                    "name": "F#4",
                    "midi": 66,
                    "time": 180.77429900000115,
                    "velocity": 0.5039370078740157,
                    "duration": 0.6572584479166608
                },
                {
                    "name": "A3",
                    "midi": 57,
                    "time": 181.45171875000113,
                    "velocity": 0.41732283464566927,
                    "duration": 0.09677425000000994
                },
                {
                    "name": "F#4",
                    "midi": 66,
                    "time": 181.45171875000113,
                    "velocity": 0.41732283464566927,
                    "duration": 0.09677425000000994
                },
                {
                    "name": "G4",
                    "midi": 67,
                    "time": 181.54849300000114,
                    "velocity": 0.47244094488188976,
                    "duration": 0.09677425000000994
                },
                {
                    "name": "G3",
                    "midi": 55,
                    "time": 181.54849300000114,
                    "velocity": 0.47244094488188976,
                    "duration": 0.09677425000000994
                },
                {
                    "name": "G3",
                    "midi": 55,
                    "time": 181.83881575000115,
                    "velocity": 0.4409448818897638,
                    "duration": 0.09677425000000994
                },
                {
                    "name": "F#4",
                    "midi": 66,
                    "time": 181.83881575000115,
                    "velocity": 0.4409448818897638,
                    "duration": 0.09677425000000994
                },
                {
                    "name": "E4",
                    "midi": 64,
                    "time": 181.93559000000116,
                    "velocity": 0.4645669291338583,
                    "duration": 0.09677425000000994
                },
                {
                    "name": "G#3",
                    "midi": 56,
                    "time": 181.93559000000116,
                    "velocity": 0.4645669291338583,
                    "duration": 0.09677425000000994
                },
                {
                    "name": "G#3",
                    "midi": 56,
                    "time": 182.22591275000116,
                    "velocity": 0.4409448818897638,
                    "duration": 0.09677425000000994
                },
                {
                    "name": "D4",
                    "midi": 62,
                    "time": 182.22591275000116,
                    "velocity": 0.4409448818897638,
                    "duration": 0.09677425000000994
                },
                {
                    "name": "C#4",
                    "midi": 61,
                    "time": 182.32268700000117,
                    "velocity": 0.4251968503937008,
                    "duration": 0.7508068895833446
                },
                {
                    "name": "A4",
                    "midi": 69,
                    "time": 182.32268700000117,
                    "velocity": 0.5039370078740157,
                    "duration": 0.7508068895833446
                },
                {
                    "name": "A3",
                    "midi": 57,
                    "time": 182.32268700000117,
                    "velocity": 0.4251968503937008,
                    "duration": 0.7508068895833446
                },
                {
                    "name": "C#4",
                    "midi": 61,
                    "time": 183.0968810000012,
                    "velocity": 0.4251968503937008,
                    "duration": 0.6572584479166608
                },
                {
                    "name": "E4",
                    "midi": 64,
                    "time": 183.0968810000012,
                    "velocity": 0.5039370078740157,
                    "duration": 0.6572584479166608
                },
                {
                    "name": "E4",
                    "midi": 64,
                    "time": 183.77430075000117,
                    "velocity": 0.41732283464566927,
                    "duration": 0.09677425000000994
                },
                {
                    "name": "A4",
                    "midi": 69,
                    "time": 183.77430075000117,
                    "velocity": 0.41732283464566927,
                    "duration": 0.04838712500000497
                },
                {
                    "name": "C#5",
                    "midi": 73,
                    "time": 183.82268787500118,
                    "velocity": 0.41732283464566927,
                    "duration": 0.04838712500000497
                },
                {
                    "name": "E4",
                    "midi": 64,
                    "time": 183.87107500000118,
                    "velocity": 0.47244094488188976,
                    "duration": 0.09677425000000994
                },
                {
                    "name": "B4",
                    "midi": 71,
                    "time": 183.87107500000118,
                    "velocity": 0.47244094488188976,
                    "duration": 0.09677425000000994
                },
                {
                    "name": "E4",
                    "midi": 64,
                    "time": 184.16139775000119,
                    "velocity": 0.4409448818897638,
                    "duration": 0.09677425000000994
                },
                {
                    "name": "A4",
                    "midi": 69,
                    "time": 184.16139775000119,
                    "velocity": 0.4409448818897638,
                    "duration": 0.09677425000000994
                },
                {
                    "name": "E4",
                    "midi": 64,
                    "time": 184.2581720000012,
                    "velocity": 0.4645669291338583,
                    "duration": 0.09677425000000994
                },
                {
                    "name": "B4",
                    "midi": 71,
                    "time": 184.2581720000012,
                    "velocity": 0.4645669291338583,
                    "duration": 0.09677425000000994
                },
                {
                    "name": "E4",
                    "midi": 64,
                    "time": 184.5484947500012,
                    "velocity": 0.4409448818897638,
                    "duration": 0.09677425000000994
                },
                {
                    "name": "C#5",
                    "midi": 73,
                    "time": 184.5484947500012,
                    "velocity": 0.4409448818897638,
                    "duration": 0.09677425000000994
                },
                {
                    "name": "D4",
                    "midi": 62,
                    "time": 184.6452690000012,
                    "velocity": 0.4251968503937008,
                    "duration": 0.7508068895833446
                },
                {
                    "name": "F#4",
                    "midi": 66,
                    "time": 184.6452690000012,
                    "velocity": 0.4251968503937008,
                    "duration": 0.7508068895833446
                },
                {
                    "name": "D5",
                    "midi": 74,
                    "time": 184.6452690000012,
                    "velocity": 0.5039370078740157,
                    "duration": 0.7508068895833446
                },
                {
                    "name": "F#4",
                    "midi": 66,
                    "time": 185.41946300000123,
                    "velocity": 0.5039370078740157,
                    "duration": 0.6572584479166608
                },
                {
                    "name": "D4",
                    "midi": 62,
                    "time": 185.41946300000123,
                    "velocity": 0.4251968503937008,
                    "duration": 0.6572584479166608
                },
                {
                    "name": "D4",
                    "midi": 62,
                    "time": 186.0968827500012,
                    "velocity": 0.41732283464566927,
                    "duration": 0.09677425000000994
                },
                {
                    "name": "F#4",
                    "midi": 66,
                    "time": 186.0968827500012,
                    "velocity": 0.41732283464566927,
                    "duration": 0.04838712500000497
                },
                {
                    "name": "A4",
                    "midi": 69,
                    "time": 186.14526987500122,
                    "velocity": 0.41732283464566927,
                    "duration": 0.04838712500000497
                },
                {
                    "name": "D4",
                    "midi": 62,
                    "time": 186.19365700000122,
                    "velocity": 0.47244094488188976,
                    "duration": 0.09677425000000994
                },
                {
                    "name": "G#4",
                    "midi": 68,
                    "time": 186.19365700000122,
                    "velocity": 0.47244094488188976,
                    "duration": 0.09677425000000994
                },
                {
                    "name": "D4",
                    "midi": 62,
                    "time": 186.48397975000123,
                    "velocity": 0.4409448818897638,
                    "duration": 0.09677425000000994
                },
                {
                    "name": "F#4",
                    "midi": 66,
                    "time": 186.48397975000123,
                    "velocity": 0.4409448818897638,
                    "duration": 0.09677425000000994
                },
                {
                    "name": "D4",
                    "midi": 62,
                    "time": 186.58075400000124,
                    "velocity": 0.4645669291338583,
                    "duration": 0.09677425000000994
                },
                {
                    "name": "G#4",
                    "midi": 68,
                    "time": 186.58075400000124,
                    "velocity": 0.4645669291338583,
                    "duration": 0.09677425000000994
                },
                {
                    "name": "D4",
                    "midi": 62,
                    "time": 186.87107675000124,
                    "velocity": 0.4409448818897638,
                    "duration": 0.09677425000000994
                },
                {
                    "name": "E4",
                    "midi": 64,
                    "time": 186.87107675000124,
                    "velocity": 0.4409448818897638,
                    "duration": 0.09677425000000994
                },
                {
                    "name": "C#4",
                    "midi": 61,
                    "time": 186.96785100000125,
                    "velocity": 0.4251968503937008,
                    "duration": 0.7508068895833446
                },
                {
                    "name": "B4",
                    "midi": 71,
                    "time": 186.96785100000125,
                    "velocity": 0.5039370078740157,
                    "duration": 0.7508068895833446
                },
                {
                    "name": "A4",
                    "midi": 69,
                    "time": 187.74204500000127,
                    "velocity": 0.5039370078740157,
                    "duration": 0.7661294791666649
                },
                {
                    "name": "C#4",
                    "midi": 61,
                    "time": 187.74204500000127,
                    "velocity": 0.4251968503937008,
                    "duration": 0.7661294791666649
                },
                {
                    "name": "D4",
                    "midi": 62,
                    "time": 188.51623900000126,
                    "velocity": 0.4409448818897638,
                    "duration": 0.367742149999998
                },
                {
                    "name": "F#4",
                    "midi": 66,
                    "time": 188.51623900000126,
                    "velocity": 0.4409448818897638,
                    "duration": 0.367742149999998
                },
                {
                    "name": "A4",
                    "midi": 69,
                    "time": 188.51623900000126,
                    "velocity": 0.5275590551181102,
                    "duration": 0.367742149999998
                },
                {
                    "name": "D4",
                    "midi": 62,
                    "time": 188.90333600000127,
                    "velocity": 0.41732283464566927,
                    "duration": 0.3758066708333274
                },
                {
                    "name": "F#4",
                    "midi": 66,
                    "time": 188.90333600000127,
                    "velocity": 0.41732283464566927,
                    "duration": 0.3758066708333274
                },
                {
                    "name": "A#4",
                    "midi": 70,
                    "time": 188.90333600000127,
                    "velocity": 0.49606299212598426,
                    "duration": 0.3758066708333274
                },
                {
                    "name": "D4",
                    "midi": 62,
                    "time": 189.29043300000126,
                    "velocity": 0.4015748031496063,
                    "duration": 0.7741939999999943
                },
                {
                    "name": "G4",
                    "midi": 67,
                    "time": 189.29043300000126,
                    "velocity": 0.4015748031496063,
                    "duration": 0.7741939999999943
                },
                {
                    "name": "B4",
                    "midi": 71,
                    "time": 189.29043300000126,
                    "velocity": 0.47244094488188976,
                    "duration": 0.7741939999999943
                },
                {
                    "name": "G4",
                    "midi": 67,
                    "time": 190.06462700000125,
                    "velocity": 0.4409448818897638,
                    "duration": 0.3758066708333274
                },
                {
                    "name": "B4",
                    "midi": 71,
                    "time": 190.06462700000125,
                    "velocity": 0.4409448818897638,
                    "duration": 0.3758066708333274
                },
                {
                    "name": "E5",
                    "midi": 76,
                    "time": 190.06462700000125,
                    "velocity": 0.5275590551181102,
                    "duration": 0.3758066708333274
                },
                {
                    "name": "B4",
                    "midi": 71,
                    "time": 190.45172400000124,
                    "velocity": 0.44881889763779526,
                    "duration": 0.19354849999999146
                },
                {
                    "name": "E5",
                    "midi": 76,
                    "time": 190.45172400000124,
                    "velocity": 0.44881889763779526,
                    "duration": 0.19354849999999146
                },
                {
                    "name": "G5",
                    "midi": 79,
                    "time": 190.45172400000124,
                    "velocity": 0.5354330708661418,
                    "duration": 0.19354849999999146
                },
                {
                    "name": "G4",
                    "midi": 67,
                    "time": 190.83882100000122,
                    "velocity": 0.41732283464566927,
                    "duration": 0.19354849999999146
                },
                {
                    "name": "B4",
                    "midi": 71,
                    "time": 190.83882100000122,
                    "velocity": 0.41732283464566927,
                    "duration": 0.19354849999999146
                },
                {
                    "name": "E5",
                    "midi": 76,
                    "time": 190.83882100000122,
                    "velocity": 0.49606299212598426,
                    "duration": 0.2016130208333209
                },
                {
                    "name": "C#4",
                    "midi": 61,
                    "time": 191.2259180000012,
                    "velocity": 0.3858267716535433,
                    "duration": 0.19354849999999146
                },
                {
                    "name": "E4",
                    "midi": 64,
                    "time": 191.2259180000012,
                    "velocity": 0.3858267716535433,
                    "duration": 0.19354849999999146
                },
                {
                    "name": "G4",
                    "midi": 67,
                    "time": 191.2259180000012,
                    "velocity": 0.4566929133858268,
                    "duration": 0.19354849999999146
                },
                {
                    "name": "C#4",
                    "midi": 61,
                    "time": 191.61301500000118,
                    "velocity": 0.4330708661417323,
                    "duration": 0.7741939999999943
                },
                {
                    "name": "F#4",
                    "midi": 66,
                    "time": 191.61301500000118,
                    "velocity": 0.4330708661417323,
                    "duration": 0.7741939999999943
                },
                {
                    "name": "A4",
                    "midi": 69,
                    "time": 191.61301500000118,
                    "velocity": 0.5118110236220472,
                    "duration": 0.7741939999999943
                },
                {
                    "name": "F#4",
                    "midi": 66,
                    "time": 192.38720900000118,
                    "velocity": 0.4645669291338583,
                    "duration": 0.3758066708333274
                },
                {
                    "name": "A4",
                    "midi": 69,
                    "time": 192.38720900000118,
                    "velocity": 0.4645669291338583,
                    "duration": 0.3758066708333274
                },
                {
                    "name": "D5",
                    "midi": 74,
                    "time": 192.38720900000118,
                    "velocity": 0.5511811023622047,
                    "duration": 0.3758066708333274
                },
                {
                    "name": "A4",
                    "midi": 69,
                    "time": 192.77430600000116,
                    "velocity": 0.4566929133858268,
                    "duration": 0.19354849999999146
                },
                {
                    "name": "D5",
                    "midi": 74,
                    "time": 192.77430600000116,
                    "velocity": 0.4566929133858268,
                    "duration": 0.19354849999999146
                },
                {
                    "name": "F#5",
                    "midi": 78,
                    "time": 192.77430600000116,
                    "velocity": 0.5433070866141733,
                    "duration": 0.19354849999999146
                },
                {
                    "name": "A4",
                    "midi": 69,
                    "time": 193.16140300000114,
                    "velocity": 0.4015748031496063,
                    "duration": 0.19354849999999146
                },
                {
                    "name": "D5",
                    "midi": 74,
                    "time": 193.16140300000114,
                    "velocity": 0.47244094488188976,
                    "duration": 0.19354849999999146
                },
                {
                    "name": "F#4",
                    "midi": 66,
                    "time": 193.16140300000114,
                    "velocity": 0.4015748031496063,
                    "duration": 0.19354849999999146
                },
                {
                    "name": "D4",
                    "midi": 62,
                    "time": 193.54850000000113,
                    "velocity": 0.3700787401574803,
                    "duration": 0.19354849999999146
                },
                {
                    "name": "F#4",
                    "midi": 66,
                    "time": 193.54850000000113,
                    "velocity": 0.4409448818897638,
                    "duration": 0.19354849999999146
                },
                {
                    "name": "B3",
                    "midi": 59,
                    "time": 193.54850000000113,
                    "velocity": 0.3700787401574803,
                    "duration": 0.19354849999999146
                },
                {
                    "name": "E4",
                    "midi": 64,
                    "time": 193.9355970000011,
                    "velocity": 0.4409448818897638,
                    "duration": 0.7741939999999943
                },
                {
                    "name": "G4",
                    "midi": 67,
                    "time": 193.9355970000011,
                    "velocity": 0.5275590551181102,
                    "duration": 0.7741939999999943
                },
                {
                    "name": "B3",
                    "midi": 59,
                    "time": 193.9355970000011,
                    "velocity": 0.4409448818897638,
                    "duration": 0.7741939999999943
                },
                {
                    "name": "G4",
                    "midi": 67,
                    "time": 194.7097910000011,
                    "velocity": 0.47244094488188976,
                    "duration": 0.3758066708333274
                },
                {
                    "name": "C#5",
                    "midi": 73,
                    "time": 194.7097910000011,
                    "velocity": 0.5590551181102362,
                    "duration": 0.3758066708333274
                },
                {
                    "name": "E4",
                    "midi": 64,
                    "time": 194.7097910000011,
                    "velocity": 0.47244094488188976,
                    "duration": 0.3758066708333274
                },
                {
                    "name": "G4",
                    "midi": 67,
                    "time": 195.0968880000011,
                    "velocity": 0.47244094488188976,
                    "duration": 0.19354849999999146
                },
                {
                    "name": "E5",
                    "midi": 76,
                    "time": 195.0968880000011,
                    "velocity": 0.5590551181102362,
                    "duration": 0.19354849999999146
                },
                {
                    "name": "C#5",
                    "midi": 73,
                    "time": 195.0968880000011,
                    "velocity": 0.5590551181102362,
                    "duration": 0.19354849999999146
                },
                {
                    "name": "E4",
                    "midi": 64,
                    "time": 195.48398500000107,
                    "velocity": 0.4330708661417323,
                    "duration": 0.19354849999999146
                },
                {
                    "name": "C#5",
                    "midi": 73,
                    "time": 195.48398500000107,
                    "velocity": 0.5118110236220472,
                    "duration": 0.19354849999999146
                },
                {
                    "name": "G4",
                    "midi": 67,
                    "time": 195.48398500000107,
                    "velocity": 0.4330708661417323,
                    "duration": 0.19354849999999146
                },
                {
                    "name": "C#4",
                    "midi": 61,
                    "time": 195.87108200000105,
                    "velocity": 0.3937007874015748,
                    "duration": 0.19354849999999146
                },
                {
                    "name": "G#4",
                    "midi": 68,
                    "time": 195.87108200000105,
                    "velocity": 0.4645669291338583,
                    "duration": 0.19354849999999146
                },
                {
                    "name": "B4",
                    "midi": 71,
                    "time": 195.87108200000105,
                    "velocity": 0.4645669291338583,
                    "duration": 0.19354849999999146
                },
                {
                    "name": "F#4",
                    "midi": 66,
                    "time": 196.25817900000104,
                    "velocity": 0.4330708661417323,
                    "duration": 0.7741940000000227
                },
                {
                    "name": "C#4",
                    "midi": 61,
                    "time": 196.25817900000104,
                    "velocity": 0.4330708661417323,
                    "duration": 0.7508068895833446
                },
                {
                    "name": "A#4",
                    "midi": 70,
                    "time": 196.25817900000104,
                    "velocity": 0.5118110236220472,
                    "duration": 0.7508068895833446
                },
                {
                    "name": "C#4",
                    "midi": 61,
                    "time": 197.03237300000106,
                    "velocity": 0.4015748031496063,
                    "duration": 0.6572584479166608
                },
                {
                    "name": "A#4",
                    "midi": 70,
                    "time": 197.03237300000106,
                    "velocity": 0.47244094488188976,
                    "duration": 0.6572584479166608
                },
                {
                    "name": "F#4",
                    "midi": 66,
                    "time": 197.03237300000106,
                    "velocity": 0.4015748031496063,
                    "duration": 0.6572584479166608
                },
                {
                    "name": "C#5",
                    "midi": 73,
                    "time": 197.70979275000104,
                    "velocity": 0.5590551181102362,
                    "duration": 0.04838712500000497
                },
                {
                    "name": "F#4",
                    "midi": 66,
                    "time": 197.70979275000104,
                    "velocity": 0.47244094488188976,
                    "duration": 0.04838712500000497
                },
                {
                    "name": "F#4",
                    "midi": 66,
                    "time": 197.80656700000105,
                    "velocity": 0.5118110236220472,
                    "duration": 0.09677425000000994
                },
                {
                    "name": "D#5",
                    "midi": 75,
                    "time": 197.80656700000105,
                    "velocity": 0.6141732283464567,
                    "duration": 0.09677425000000994
                },
                {
                    "name": "C#5",
                    "midi": 73,
                    "time": 198.09688975000105,
                    "velocity": 0.5748031496062992,
                    "duration": 0.04838712500000497
                },
                {
                    "name": "F#4",
                    "midi": 66,
                    "time": 198.09688975000105,
                    "velocity": 0.48031496062992124,
                    "duration": 0.04838712500000497
                },
                {
                    "name": "F#4",
                    "midi": 66,
                    "time": 198.19366400000106,
                    "velocity": 0.5196850393700787,
                    "duration": 0.09677425000000994
                },
                {
                    "name": "D#5",
                    "midi": 75,
                    "time": 198.19366400000106,
                    "velocity": 0.6220472440944882,
                    "duration": 0.09677425000000994
                },
                {
                    "name": "C#5",
                    "midi": 73,
                    "time": 198.48398675000107,
                    "velocity": 0.5984251968503937,
                    "duration": 0.04838712500000497
                },
                {
                    "name": "F#4",
                    "midi": 66,
                    "time": 198.48398675000107,
                    "velocity": 0.5039370078740157,
                    "duration": 0.04838712500000497
                },
                {
                    "name": "B4",
                    "midi": 71,
                    "time": 198.58076100000108,
                    "velocity": 0.5511811023622047,
                    "duration": 0.7741940000000227
                },
                {
                    "name": "F5",
                    "midi": 77,
                    "time": 198.58076100000108,
                    "velocity": 0.6535433070866141,
                    "duration": 0.7508068895833446
                },
                {
                    "name": "F4",
                    "midi": 65,
                    "time": 198.58076100000108,
                    "velocity": 0.5511811023622047,
                    "duration": 0.7508068895833446
                },
                {
                    "name": "F5",
                    "midi": 77,
                    "time": 199.3549550000011,
                    "velocity": 0.6535433070866141,
                    "duration": 0.6572584479166608
                },
                {
                    "name": "B4",
                    "midi": 71,
                    "time": 199.3549550000011,
                    "velocity": 0.5511811023622047,
                    "duration": 0.6572584479166608
                },
                {
                    "name": "F4",
                    "midi": 65,
                    "time": 199.3549550000011,
                    "velocity": 0.5511811023622047,
                    "duration": 0.6572584479166608
                },
                {
                    "name": "F4",
                    "midi": 65,
                    "time": 200.03237475000108,
                    "velocity": 0.4566929133858268,
                    "duration": 0.0919355375000066
                },
                {
                    "name": "C#5",
                    "midi": 73,
                    "time": 200.03237475000108,
                    "velocity": 0.4566929133858268,
                    "duration": 0.0919355375000066
                },
                {
                    "name": "F5",
                    "midi": 77,
                    "time": 200.03237475000108,
                    "velocity": 0.5748031496062992,
                    "duration": 0.0919355375000066
                },
                {
                    "name": "C#5",
                    "midi": 73,
                    "time": 200.1291490000011,
                    "velocity": 0.5196850393700787,
                    "duration": 0.2758066124999914
                },
                {
                    "name": "F5",
                    "midi": 77,
                    "time": 200.1291490000011,
                    "velocity": 0.6456692913385826,
                    "duration": 0.26774209166666196
                },
                {
                    "name": "F4",
                    "midi": 65,
                    "time": 200.1291490000011,
                    "velocity": 0.5196850393700787,
                    "duration": 0.2758066124999914
                },
                {
                    "name": "C#5",
                    "midi": 73,
                    "time": 200.4194717500011,
                    "velocity": 0.49606299212598426,
                    "duration": 0.0919355375000066
                },
                {
                    "name": "F5",
                    "midi": 77,
                    "time": 200.4194717500011,
                    "velocity": 0.6299212598425197,
                    "duration": 0.0919355375000066
                },
                {
                    "name": "F4",
                    "midi": 65,
                    "time": 200.4194717500011,
                    "velocity": 0.49606299212598426,
                    "duration": 0.0919355375000066
                },
                {
                    "name": "C#5",
                    "midi": 73,
                    "time": 200.5162460000011,
                    "velocity": 0.5275590551181102,
                    "duration": 0.2758066124999914
                },
                {
                    "name": "F5",
                    "midi": 77,
                    "time": 200.5162460000011,
                    "velocity": 0.6692913385826772,
                    "duration": 0.2758066124999914
                },
                {
                    "name": "F4",
                    "midi": 65,
                    "time": 200.5162460000011,
                    "velocity": 0.5275590551181102,
                    "duration": 0.2758066124999914
                },
                {
                    "name": "F4",
                    "midi": 65,
                    "time": 200.8065687500011,
                    "velocity": 0.5118110236220472,
                    "duration": 0.09677425000000994
                },
                {
                    "name": "F5",
                    "midi": 77,
                    "time": 200.8065687500011,
                    "velocity": 0.6535433070866141,
                    "duration": 0.09677425000000994
                },
                {
                    "name": "C#5",
                    "midi": 73,
                    "time": 200.8065687500011,
                    "velocity": 0.5118110236220472,
                    "duration": 0.09677425000000994
                },
                {
                    "name": "F#4",
                    "midi": 66,
                    "time": 200.90334300000112,
                    "velocity": 0.6141732283464567,
                    "duration": 0.7508068895833446
                },
                {
                    "name": "F#5",
                    "midi": 78,
                    "time": 200.90334300000112,
                    "velocity": 0.7322834645669292,
                    "duration": 0.7508068895833446
                },
                {
                    "name": "A#4",
                    "midi": 70,
                    "time": 200.90334300000112,
                    "velocity": 0.6141732283464567,
                    "duration": 0.7508068895833446
                },
                {
                    "name": "F#4",
                    "midi": 66,
                    "time": 201.67753700000114,
                    "velocity": 0.6141732283464567,
                    "duration": 0.6612907083333255
                },
                {
                    "name": "F#5",
                    "midi": 78,
                    "time": 201.67753700000114,
                    "velocity": 0.7322834645669292,
                    "duration": 0.6612907083333255
                },
                {
                    "name": "A#4",
                    "midi": 70,
                    "time": 201.67753700000114,
                    "velocity": 0.6141732283464567,
                    "duration": 0.6612907083333255
                },
                {
                    "name": "A4",
                    "midi": 69,
                    "time": 202.35495675000112,
                    "velocity": 0.3700787401574803,
                    "duration": 0.04838712500000497
                },
                {
                    "name": "G4",
                    "midi": 67,
                    "time": 202.35495675000112,
                    "velocity": 0.3700787401574803,
                    "duration": 0.04838712500000497
                },
                {
                    "name": "C#5",
                    "midi": 73,
                    "time": 202.35495675000112,
                    "velocity": 0.4409448818897638,
                    "duration": 0.04838712500000497
                },
                {
                    "name": "G4",
                    "midi": 67,
                    "time": 202.45173100000113,
                    "velocity": 0.4015748031496063,
                    "duration": 0.28145177708333335
                },
                {
                    "name": "A4",
                    "midi": 69,
                    "time": 202.45173100000113,
                    "velocity": 0.4015748031496063,
                    "duration": 0.28145177708333335
                },
                {
                    "name": "C#5",
                    "midi": 73,
                    "time": 202.45173100000113,
                    "velocity": 0.47244094488188976,
                    "duration": 0.28145177708333335
                },
                {
                    "name": "A4",
                    "midi": 69,
                    "time": 202.74205375000113,
                    "velocity": 0.3700787401574803,
                    "duration": 0.04838712500000497
                },
                {
                    "name": "C#5",
                    "midi": 73,
                    "time": 202.74205375000113,
                    "velocity": 0.4409448818897638,
                    "duration": 0.04838712500000497
                },
                {
                    "name": "G4",
                    "midi": 67,
                    "time": 202.74205375000113,
                    "velocity": 0.3700787401574803,
                    "duration": 0.04838712500000497
                },
                {
                    "name": "A4",
                    "midi": 69,
                    "time": 202.82753767083446,
                    "velocity": 0.3937007874015748,
                    "duration": 0.28145177708333335
                },
                {
                    "name": "D5",
                    "midi": 74,
                    "time": 202.82753767083446,
                    "velocity": 0.47244094488188976,
                    "duration": 0.28145177708333335
                },
                {
                    "name": "G4",
                    "midi": 67,
                    "time": 202.82753767083446,
                    "velocity": 0.3937007874015748,
                    "duration": 0.28145177708333335
                },
                {
                    "name": "E5",
                    "midi": 76,
                    "time": 203.12915075000112,
                    "velocity": 0.4409448818897638,
                    "duration": 0.04838712500000497
                },
                {
                    "name": "G4",
                    "midi": 67,
                    "time": 203.12915075000112,
                    "velocity": 0.3700787401574803,
                    "duration": 0.04838712500000497
                },
                {
                    "name": "A4",
                    "midi": 69,
                    "time": 203.12915075000112,
                    "velocity": 0.3700787401574803,
                    "duration": 0.04838712500000497
                },
                {
                    "name": "F#4",
                    "midi": 66,
                    "time": 203.22592500000113,
                    "velocity": 0.4251968503937008,
                    "duration": 0.7508068895833446
                },
                {
                    "name": "A4",
                    "midi": 69,
                    "time": 203.22592500000113,
                    "velocity": 0.5039370078740157,
                    "duration": 0.7508068895833446
                },
                {
                    "name": "F#4",
                    "midi": 66,
                    "time": 204.00011900000115,
                    "velocity": 0.4251968503937008,
                    "duration": 0.6572584479166608
                },
                {
                    "name": "A4",
                    "midi": 69,
                    "time": 204.00011900000115,
                    "velocity": 0.4251968503937008,
                    "duration": 0.6572584479166608
                },
                {
                    "name": "F#5",
                    "midi": 78,
                    "time": 204.00011900000115,
                    "velocity": 0.5039370078740157,
                    "duration": 0.6572584479166608
                },
                {
                    "name": "F#5",
                    "midi": 78,
                    "time": 204.67753875000113,
                    "velocity": 0.41732283464566927,
                    "duration": 0.09354844166665544
                },
                {
                    "name": "F#4",
                    "midi": 66,
                    "time": 204.67753875000113,
                    "velocity": 0.41732283464566927,
                    "duration": 0.09435489374999406
                },
                {
                    "name": "F#5",
                    "midi": 78,
                    "time": 204.77431300000111,
                    "velocity": 0.47244094488188976,
                    "duration": 0.09677425000000994
                },
                {
                    "name": "F#4",
                    "midi": 66,
                    "time": 204.77431300000111,
                    "velocity": 0.47244094488188976,
                    "duration": 0.09677425000000994
                },
                {
                    "name": "F#5",
                    "midi": 78,
                    "time": 205.05334542083446,
                    "velocity": 0.4409448818897638,
                    "duration": 0.09354844166665544
                },
                {
                    "name": "F#4",
                    "midi": 66,
                    "time": 205.05334542083446,
                    "velocity": 0.4409448818897638,
                    "duration": 0.09354844166665544
                },
                {
                    "name": "G#4",
                    "midi": 68,
                    "time": 205.16141000000113,
                    "velocity": 0.4645669291338583,
                    "duration": 0.09677425000000994
                },
                {
                    "name": "E5",
                    "midi": 76,
                    "time": 205.16141000000113,
                    "velocity": 0.4645669291338583,
                    "duration": 0.09677425000000994
                },
                {
                    "name": "D5",
                    "midi": 74,
                    "time": 205.45173275000113,
                    "velocity": 0.4409448818897638,
                    "duration": 0.09677425000000994
                },
                {
                    "name": "G#4",
                    "midi": 68,
                    "time": 205.45173275000113,
                    "velocity": 0.4409448818897638,
                    "duration": 0.09677425000000994
                },
                {
                    "name": "A4",
                    "midi": 69,
                    "time": 205.54850700000114,
                    "velocity": 0.4251968503937008,
                    "duration": 0.7508068895833446
                },
                {
                    "name": "C#5",
                    "midi": 73,
                    "time": 205.54850700000114,
                    "velocity": 0.5039370078740157,
                    "duration": 0.7508068895833446
                },
                {
                    "name": "E5",
                    "midi": 76,
                    "time": 206.32270100000116,
                    "velocity": 0.5039370078740157,
                    "duration": 0.6572584479166608
                },
                {
                    "name": "A4",
                    "midi": 69,
                    "time": 206.32270100000116,
                    "velocity": 0.4251968503937008,
                    "duration": 0.6572584479166608
                },
                {
                    "name": "E5",
                    "midi": 76,
                    "time": 207.00012075000114,
                    "velocity": 0.41732283464566927,
                    "duration": 0.09435489374999406
                },
                {
                    "name": "A#4",
                    "midi": 70,
                    "time": 207.00012075000114,
                    "velocity": 0.41732283464566927,
                    "duration": 0.09435489374999406
                },
                {
                    "name": "E5",
                    "midi": 76,
                    "time": 207.09689500000113,
                    "velocity": 0.47244094488188976,
                    "duration": 0.09677425000000994
                },
                {
                    "name": "A#4",
                    "midi": 70,
                    "time": 207.09689500000113,
                    "velocity": 0.47244094488188976,
                    "duration": 0.09677425000000994
                },
                {
                    "name": "E5",
                    "midi": 76,
                    "time": 207.37592742083447,
                    "velocity": 0.4409448818897638,
                    "duration": 0.09354844166665544
                },
                {
                    "name": "A#4",
                    "midi": 70,
                    "time": 207.37592742083447,
                    "velocity": 0.4409448818897638,
                    "duration": 0.09354844166665544
                },
                {
                    "name": "A#4",
                    "midi": 70,
                    "time": 207.48399200000114,
                    "velocity": 0.4645669291338583,
                    "duration": 0.09677425000000994
                },
                {
                    "name": "D5",
                    "midi": 74,
                    "time": 207.48399200000114,
                    "velocity": 0.4645669291338583,
                    "duration": 0.09677425000000994
                },
                {
                    "name": "C#5",
                    "midi": 73,
                    "time": 207.77431475000114,
                    "velocity": 0.4409448818897638,
                    "duration": 0.09677425000000994
                },
                {
                    "name": "A#4",
                    "midi": 70,
                    "time": 207.77431475000114,
                    "velocity": 0.4409448818897638,
                    "duration": 0.09677425000000994
                },
                {
                    "name": "B4",
                    "midi": 71,
                    "time": 207.87108900000115,
                    "velocity": 0.5039370078740157,
                    "duration": 0.7508068895833446
                },
                {
                    "name": "G4",
                    "midi": 67,
                    "time": 208.64528300000117,
                    "velocity": 0.4251968503937008,
                    "duration": 0.6572584479166608
                },
                {
                    "name": "D5",
                    "midi": 74,
                    "time": 208.64528300000117,
                    "velocity": 0.5039370078740157,
                    "duration": 0.6572584479166608
                },
                {
                    "name": "C#4",
                    "midi": 61,
                    "time": 209.32270275000116,
                    "velocity": 0.41732283464566927,
                    "duration": 0.09677425000000994
                },
                {
                    "name": "B4",
                    "midi": 71,
                    "time": 209.32270275000116,
                    "velocity": 0.41732283464566927,
                    "duration": 0.09677425000000994
                },
                {
                    "name": "G4",
                    "midi": 67,
                    "time": 209.32270275000116,
                    "velocity": 0.41732283464566927,
                    "duration": 0.09677425000000994
                },
                {
                    "name": "G4",
                    "midi": 67,
                    "time": 209.41947700000117,
                    "velocity": 0.47244094488188976,
                    "duration": 0.09677425000000994
                },
                {
                    "name": "B4",
                    "midi": 71,
                    "time": 209.41947700000117,
                    "velocity": 0.47244094488188976,
                    "duration": 0.09677425000000994
                },
                {
                    "name": "C#4",
                    "midi": 61,
                    "time": 209.41947700000117,
                    "velocity": 0.47244094488188976,
                    "duration": 0.09677425000000994
                },
                {
                    "name": "B4",
                    "midi": 71,
                    "time": 209.70979975000117,
                    "velocity": 0.4409448818897638,
                    "duration": 0.09677425000000994
                },
                {
                    "name": "G4",
                    "midi": 67,
                    "time": 209.70979975000117,
                    "velocity": 0.4409448818897638,
                    "duration": 0.09677425000000994
                },
                {
                    "name": "C#4",
                    "midi": 61,
                    "time": 209.70979975000117,
                    "velocity": 0.4409448818897638,
                    "duration": 0.09677425000000994
                },
                {
                    "name": "C#4",
                    "midi": 61,
                    "time": 209.80657400000118,
                    "velocity": 0.4645669291338583,
                    "duration": 0.09677425000000994
                },
                {
                    "name": "F#4",
                    "midi": 66,
                    "time": 209.80657400000118,
                    "velocity": 0.4645669291338583,
                    "duration": 0.09677425000000994
                },
                {
                    "name": "A4",
                    "midi": 69,
                    "time": 209.80657400000118,
                    "velocity": 0.4645669291338583,
                    "duration": 0.09677425000000994
                },
                {
                    "name": "C#4",
                    "midi": 61,
                    "time": 210.09689675000118,
                    "velocity": 0.4409448818897638,
                    "duration": 0.09677425000000994
                },
                {
                    "name": "E4",
                    "midi": 64,
                    "time": 210.09689675000118,
                    "velocity": 0.4409448818897638,
                    "duration": 0.09677425000000994
                },
                {
                    "name": "G4",
                    "midi": 67,
                    "time": 210.09689675000118,
                    "velocity": 0.4409448818897638,
                    "duration": 0.09677425000000994
                },
                {
                    "name": "E4",
                    "midi": 64,
                    "time": 210.1936710000012,
                    "velocity": 0.4251968503937008,
                    "duration": 0.7741940000000227
                },
                {
                    "name": "A3",
                    "midi": 57,
                    "time": 210.1936710000012,
                    "velocity": 0.4251968503937008,
                    "duration": 0.7508068895833446
                },
                {
                    "name": "G4",
                    "midi": 67,
                    "time": 210.1936710000012,
                    "velocity": 0.5039370078740157,
                    "duration": 0.7508068895833446
                },
                {
                    "name": "A3",
                    "midi": 57,
                    "time": 210.9678650000012,
                    "velocity": 0.4251968503937008,
                    "duration": 0.7661294791666649
                },
                {
                    "name": "F#4",
                    "midi": 66,
                    "time": 210.9678650000012,
                    "velocity": 0.5039370078740157,
                    "duration": 0.7661294791666649
                },
                {
                    "name": "D4",
                    "midi": 62,
                    "time": 210.9678650000012,
                    "velocity": 0.4251968503937008,
                    "duration": 0.7661294791666649
                },
                {
                    "name": "D4",
                    "midi": 62,
                    "time": 211.7420590000012,
                    "velocity": 0.4409448818897638,
                    "duration": 0.367742149999998
                },
                {
                    "name": "F#4",
                    "midi": 66,
                    "time": 211.7420590000012,
                    "velocity": 0.4409448818897638,
                    "duration": 0.367742149999998
                },
                {
                    "name": "A4",
                    "midi": 69,
                    "time": 211.7420590000012,
                    "velocity": 0.5275590551181102,
                    "duration": 0.367742149999998
                },
                {
                    "name": "D4",
                    "midi": 62,
                    "time": 212.12915600000122,
                    "velocity": 0.41732283464566927,
                    "duration": 0.3758066708333274
                },
                {
                    "name": "F#4",
                    "midi": 66,
                    "time": 212.12915600000122,
                    "velocity": 0.41732283464566927,
                    "duration": 0.3758066708333274
                },
                {
                    "name": "A#4",
                    "midi": 70,
                    "time": 212.12915600000122,
                    "velocity": 0.49606299212598426,
                    "duration": 0.3758066708333274
                },
                {
                    "name": "D4",
                    "midi": 62,
                    "time": 212.5162530000012,
                    "velocity": 0.4015748031496063,
                    "duration": 0.7741939999999943
                },
                {
                    "name": "G4",
                    "midi": 67,
                    "time": 212.5162530000012,
                    "velocity": 0.4015748031496063,
                    "duration": 0.7741939999999943
                },
                {
                    "name": "B4",
                    "midi": 71,
                    "time": 212.5162530000012,
                    "velocity": 0.47244094488188976,
                    "duration": 0.7741939999999943
                },
                {
                    "name": "G4",
                    "midi": 67,
                    "time": 213.2904470000012,
                    "velocity": 0.4409448818897638,
                    "duration": 0.38709700000001135
                },
                {
                    "name": "B4",
                    "midi": 71,
                    "time": 213.2904470000012,
                    "velocity": 0.4409448818897638,
                    "duration": 0.38709700000001135
                },
                {
                    "name": "E5",
                    "midi": 76,
                    "time": 213.2904470000012,
                    "velocity": 0.5275590551181102,
                    "duration": 0.38709700000001135
                },
                {
                    "name": "B4",
                    "midi": 71,
                    "time": 213.6775440000012,
                    "velocity": 0.44881889763779526,
                    "duration": 0.19354849999999146
                },
                {
                    "name": "E5",
                    "midi": 76,
                    "time": 213.6775440000012,
                    "velocity": 0.44881889763779526,
                    "duration": 0.19354849999999146
                },
                {
                    "name": "G5",
                    "midi": 79,
                    "time": 213.6775440000012,
                    "velocity": 0.5354330708661418,
                    "duration": 0.19354849999999146
                },
                {
                    "name": "G4",
                    "midi": 67,
                    "time": 214.0646410000012,
                    "velocity": 0.41732283464566927,
                    "duration": 0.19354849999999146
                },
                {
                    "name": "B4",
                    "midi": 71,
                    "time": 214.0646410000012,
                    "velocity": 0.41732283464566927,
                    "duration": 0.19354849999999146
                },
                {
                    "name": "E5",
                    "midi": 76,
                    "time": 214.0646410000012,
                    "velocity": 0.49606299212598426,
                    "duration": 0.2016130208333209
                },
                {
                    "name": "E4",
                    "midi": 64,
                    "time": 214.45173800000117,
                    "velocity": 0.3858267716535433,
                    "duration": 0.19354849999999146
                },
                {
                    "name": "G4",
                    "midi": 67,
                    "time": 214.45173800000117,
                    "velocity": 0.4566929133858268,
                    "duration": 0.19354849999999146
                },
                {
                    "name": "E4",
                    "midi": 64,
                    "time": 214.83883500000115,
                    "velocity": 0.4330708661417323,
                    "duration": 0.7741939999999943
                },
                {
                    "name": "A4",
                    "midi": 69,
                    "time": 214.83883500000115,
                    "velocity": 0.4330708661417323,
                    "duration": 0.7741939999999943
                },
                {
                    "name": "C#5",
                    "midi": 73,
                    "time": 214.83883500000115,
                    "velocity": 0.5118110236220472,
                    "duration": 0.7741939999999943
                },
                {
                    "name": "A4",
                    "midi": 69,
                    "time": 215.61302900000115,
                    "velocity": 0.4645669291338583,
                    "duration": 0.38709700000001135
                },
                {
                    "name": "C#5",
                    "midi": 73,
                    "time": 215.61302900000115,
                    "velocity": 0.4645669291338583,
                    "duration": 0.38709700000001135
                },
                {
                    "name": "F#5",
                    "midi": 78,
                    "time": 215.61302900000115,
                    "velocity": 0.5511811023622047,
                    "duration": 0.38709700000001135
                },
                {
                    "name": "C#5",
                    "midi": 73,
                    "time": 216.00012600000116,
                    "velocity": 0.4566929133858268,
                    "duration": 0.19354849999999146
                },
                {
                    "name": "F#5",
                    "midi": 78,
                    "time": 216.00012600000116,
                    "velocity": 0.4566929133858268,
                    "duration": 0.19354849999999146
                },
                {
                    "name": "A5",
                    "midi": 81,
                    "time": 216.00012600000116,
                    "velocity": 0.5433070866141733,
                    "duration": 0.19354849999999146
                },
                {
                    "name": "A4",
                    "midi": 69,
                    "time": 216.38722300000114,
                    "velocity": 0.4015748031496063,
                    "duration": 0.19354849999999146
                },
                {
                    "name": "C#5",
                    "midi": 73,
                    "time": 216.38722300000114,
                    "velocity": 0.4015748031496063,
                    "duration": 0.19354849999999146
                },
                {
                    "name": "F#5",
                    "midi": 78,
                    "time": 216.38722300000114,
                    "velocity": 0.47244094488188976,
                    "duration": 0.19354849999999146
                },
                {
                    "name": "F#4",
                    "midi": 66,
                    "time": 216.77432000000113,
                    "velocity": 0.3700787401574803,
                    "duration": 0.19354849999999146
                },
                {
                    "name": "A4",
                    "midi": 69,
                    "time": 216.77432000000113,
                    "velocity": 0.4409448818897638,
                    "duration": 0.19354849999999146
                },
                {
                    "name": "F#4",
                    "midi": 66,
                    "time": 217.1614170000011,
                    "velocity": 0.4409448818897638,
                    "duration": 0.7741939999999943
                },
                {
                    "name": "B4",
                    "midi": 71,
                    "time": 217.1614170000011,
                    "velocity": 0.4409448818897638,
                    "duration": 0.7741939999999943
                },
                {
                    "name": "D5",
                    "midi": 74,
                    "time": 217.1614170000011,
                    "velocity": 0.5275590551181102,
                    "duration": 0.7741939999999943
                },
                {
                    "name": "B4",
                    "midi": 71,
                    "time": 217.9356110000011,
                    "velocity": 0.47244094488188976,
                    "duration": 0.38709700000001135
                },
                {
                    "name": "D5",
                    "midi": 74,
                    "time": 217.9356110000011,
                    "velocity": 0.47244094488188976,
                    "duration": 0.38709700000001135
                },
                {
                    "name": "G5",
                    "midi": 79,
                    "time": 217.9356110000011,
                    "velocity": 0.5590551181102362,
                    "duration": 0.38709700000001135
                },
                {
                    "name": "D5",
                    "midi": 74,
                    "time": 218.32270800000111,
                    "velocity": 0.47244094488188976,
                    "duration": 0.19354849999999146
                },
                {
                    "name": "G5",
                    "midi": 79,
                    "time": 218.32270800000111,
                    "velocity": 0.5590551181102362,
                    "duration": 0.19354849999999146
                },
                {
                    "name": "B5",
                    "midi": 83,
                    "time": 218.32270800000111,
                    "velocity": 0.5590551181102362,
                    "duration": 0.19354849999999146
                },
                {
                    "name": "B4",
                    "midi": 71,
                    "time": 218.7098050000011,
                    "velocity": 0.47244094488188976,
                    "duration": 0.19354849999999146
                },
                {
                    "name": "D5",
                    "midi": 74,
                    "time": 218.7098050000011,
                    "velocity": 0.47244094488188976,
                    "duration": 0.19354849999999146
                },
                {
                    "name": "G5",
                    "midi": 79,
                    "time": 218.7098050000011,
                    "velocity": 0.5590551181102362,
                    "duration": 0.19354849999999146
                },
                {
                    "name": "G4",
                    "midi": 67,
                    "time": 219.09690200000108,
                    "velocity": 0.5354330708661418,
                    "duration": 0.19354849999999146
                },
                {
                    "name": "B4",
                    "midi": 71,
                    "time": 219.09690200000108,
                    "velocity": 0.5905511811023622,
                    "duration": 0.19354849999999146
                },
                {
                    "name": "G5",
                    "midi": 79,
                    "time": 219.48399900000106,
                    "velocity": 0.5196850393700787,
                    "duration": 0.7741940000000227
                },
                {
                    "name": "A4",
                    "midi": 69,
                    "time": 219.48399900000106,
                    "velocity": 0.5196850393700787,
                    "duration": 0.7508068895833446
                },
                {
                    "name": "C#5",
                    "midi": 73,
                    "time": 219.48399900000106,
                    "velocity": 0.5196850393700787,
                    "duration": 0.7508068895833446
                },
                {
                    "name": "A5",
                    "midi": 81,
                    "time": 219.48399900000106,
                    "velocity": 0.6141732283464567,
                    "duration": 0.7508068895833446
                },
                {
                    "name": "G5",
                    "midi": 79,
                    "time": 220.25819300000109,
                    "velocity": 0.48031496062992124,
                    "duration": 0.6572584479166608
                },
                {
                    "name": "A4",
                    "midi": 69,
                    "time": 220.25819300000109,
                    "velocity": 0.48031496062992124,
                    "duration": 0.6572584479166608
                },
                {
                    "name": "C#5",
                    "midi": 73,
                    "time": 220.25819300000109,
                    "velocity": 0.48031496062992124,
                    "duration": 0.6572584479166608
                },
                {
                    "name": "A5",
                    "midi": 81,
                    "time": 220.25819300000109,
                    "velocity": 0.5669291338582677,
                    "duration": 0.6572584479166608
                },
                {
                    "name": "C#5",
                    "midi": 73,
                    "time": 220.93561275000107,
                    "velocity": 0.4566929133858268,
                    "duration": 0.0919355375000066
                },
                {
                    "name": "G5",
                    "midi": 79,
                    "time": 220.93561275000107,
                    "velocity": 0.4566929133858268,
                    "duration": 0.0919355375000066
                },
                {
                    "name": "A5",
                    "midi": 81,
                    "time": 220.93561275000107,
                    "velocity": 0.5748031496062992,
                    "duration": 0.0919355375000066
                },
                {
                    "name": "G5",
                    "midi": 79,
                    "time": 221.03238700000108,
                    "velocity": 0.5196850393700787,
                    "duration": 0.2758066124999914
                },
                {
                    "name": "C#5",
                    "midi": 73,
                    "time": 221.03238700000108,
                    "velocity": 0.5196850393700787,
                    "duration": 0.2758066124999914
                },
                {
                    "name": "A5",
                    "midi": 81,
                    "time": 221.03238700000108,
                    "velocity": 0.6456692913385826,
                    "duration": 0.2685485437500006
                },
                {
                    "name": "G5",
                    "midi": 79,
                    "time": 221.32270975000108,
                    "velocity": 0.49606299212598426,
                    "duration": 0.0919355375000066
                },
                {
                    "name": "C#5",
                    "midi": 73,
                    "time": 221.32270975000108,
                    "velocity": 0.49606299212598426,
                    "duration": 0.0919355375000066
                },
                {
                    "name": "A5",
                    "midi": 81,
                    "time": 221.32270975000108,
                    "velocity": 0.6299212598425197,
                    "duration": 0.0919355375000066
                },
                {
                    "name": "B5",
                    "midi": 83,
                    "time": 221.4194840000011,
                    "velocity": 0.6692913385826772,
                    "duration": 0.2758066124999914
                },
                {
                    "name": "C#5",
                    "midi": 73,
                    "time": 221.4194840000011,
                    "velocity": 0.5275590551181102,
                    "duration": 0.2758066124999914
                },
                {
                    "name": "G5",
                    "midi": 79,
                    "time": 221.4194840000011,
                    "velocity": 0.5275590551181102,
                    "duration": 0.2758066124999914
                },
                {
                    "name": "C#6",
                    "midi": 85,
                    "time": 221.7098067500011,
                    "velocity": 0.6535433070866141,
                    "duration": 0.09677425000000994
                },
                {
                    "name": "C#5",
                    "midi": 73,
                    "time": 221.7098067500011,
                    "velocity": 0.5118110236220472,
                    "duration": 0.09677425000000994
                },
                {
                    "name": "G5",
                    "midi": 79,
                    "time": 221.7098067500011,
                    "velocity": 0.5118110236220472,
                    "duration": 0.09677425000000994
                },
                {
                    "name": "D6",
                    "midi": 86,
                    "time": 221.8065810000011,
                    "velocity": 0.7322834645669292,
                    "duration": 0.7508068895833446
                },
                {
                    "name": "D5",
                    "midi": 74,
                    "time": 221.8065810000011,
                    "velocity": 0.6141732283464567,
                    "duration": 0.7508068895833446
                },
                {
                    "name": "F#5",
                    "midi": 78,
                    "time": 221.8065810000011,
                    "velocity": 0.6141732283464567,
                    "duration": 0.7508068895833446
                },
                {
                    "name": "F#5",
                    "midi": 78,
                    "time": 222.58077500000113,
                    "velocity": 0.6141732283464567,
                    "duration": 0.6612907083333255
                },
                {
                    "name": "D5",
                    "midi": 74,
                    "time": 222.58077500000113,
                    "velocity": 0.6141732283464567,
                    "duration": 0.6612907083333255
                },
                {
                    "name": "D6",
                    "midi": 86,
                    "time": 222.58077500000113,
                    "velocity": 0.7322834645669292,
                    "duration": 0.6612907083333255
                },
                {
                    "name": "A4",
                    "midi": 69,
                    "time": 223.2581947500011,
                    "velocity": 0.4409448818897638,
                    "duration": 0.04838712500000497
                },
                {
                    "name": "F#4",
                    "midi": 66,
                    "time": 223.2581947500011,
                    "velocity": 0.3700787401574803,
                    "duration": 0.04838712500000497
                },
                {
                    "name": "F#4",
                    "midi": 66,
                    "time": 223.35496900000112,
                    "velocity": 0.4015748031496063,
                    "duration": 0.28145177708333335
                },
                {
                    "name": "A4",
                    "midi": 69,
                    "time": 223.35496900000112,
                    "velocity": 0.47244094488188976,
                    "duration": 0.28145177708333335
                },
                {
                    "name": "A4",
                    "midi": 69,
                    "time": 223.64529175000112,
                    "velocity": 0.4409448818897638,
                    "duration": 0.04838712500000497
                },
                {
                    "name": "F#4",
                    "midi": 66,
                    "time": 223.64529175000112,
                    "velocity": 0.3700787401574803,
                    "duration": 0.04838712500000497
                },
                {
                    "name": "G4",
                    "midi": 67,
                    "time": 223.74206600000113,
                    "velocity": 0.47244094488188976,
                    "duration": 0.28145177708333335
                },
                {
                    "name": "E4",
                    "midi": 64,
                    "time": 223.74206600000113,
                    "velocity": 0.3937007874015748,
                    "duration": 0.28145177708333335
                },
                {
                    "name": "D4",
                    "midi": 62,
                    "time": 224.03238875000113,
                    "velocity": 0.3700787401574803,
                    "duration": 0.04838712500000497
                },
                {
                    "name": "F#4",
                    "midi": 66,
                    "time": 224.03238875000113,
                    "velocity": 0.4409448818897638,
                    "duration": 0.04838712500000497
                },
                {
                    "name": "E4",
                    "midi": 64,
                    "time": 224.12916300000114,
                    "velocity": 0.5039370078740157,
                    "duration": 0.7508068895833446
                },
                {
                    "name": "A3",
                    "midi": 57,
                    "time": 224.12916300000114,
                    "velocity": 0.4251968503937008,
                    "duration": 0.7508068895833446
                },
                {
                    "name": "A3",
                    "midi": 57,
                    "time": 224.90335700000117,
                    "velocity": 0.4251968503937008,
                    "duration": 0.6572584479166608
                },
                {
                    "name": "E4",
                    "midi": 64,
                    "time": 224.90335700000117,
                    "velocity": 0.5039370078740157,
                    "duration": 0.6572584479166608
                },
                {
                    "name": "B4",
                    "midi": 71,
                    "time": 225.58077675000115,
                    "velocity": 0.3937007874015748,
                    "duration": 0.04838712500000497
                },
                {
                    "name": "G4",
                    "midi": 67,
                    "time": 225.58077675000115,
                    "velocity": 0.3228346456692913,
                    "duration": 0.04838712500000497
                },
                {
                    "name": "F#4",
                    "midi": 66,
                    "time": 225.67755100000116,
                    "velocity": 0.3464566929133858,
                    "duration": 0.28145177708333335
                },
                {
                    "name": "A4",
                    "midi": 69,
                    "time": 225.67755100000116,
                    "velocity": 0.41732283464566927,
                    "duration": 0.28145177708333335
                },
                {
                    "name": "G4",
                    "midi": 67,
                    "time": 225.96787375000116,
                    "velocity": 0.3700787401574803,
                    "duration": 0.04838712500000497
                },
                {
                    "name": "E4",
                    "midi": 64,
                    "time": 225.96787375000116,
                    "velocity": 0.30708661417322836,
                    "duration": 0.04838712500000497
                },
                {
                    "name": "F#4",
                    "midi": 66,
                    "time": 226.06464800000117,
                    "velocity": 0.3937007874015748,
                    "duration": 0.28145177708333335
                },
                {
                    "name": "D4",
                    "midi": 62,
                    "time": 226.06464800000117,
                    "velocity": 0.3228346456692913,
                    "duration": 0.28145177708333335
                },
                {
                    "name": "A3",
                    "midi": 57,
                    "time": 226.35497075000117,
                    "velocity": 0.28346456692913385,
                    "duration": 0.04838712500000497
                },
                {
                    "name": "E4",
                    "midi": 64,
                    "time": 226.35497075000117,
                    "velocity": 0.3464566929133858,
                    "duration": 0.04838712500000497
                },
                {
                    "name": "D4",
                    "midi": 62,
                    "time": 226.45174500000118,
                    "velocity": 0.36220472440944884,
                    "duration": 0.7508068895833446
                },
                {
                    "name": "F#3",
                    "midi": 54,
                    "time": 226.45174500000118,
                    "velocity": 0.30708661417322836,
                    "duration": 0.7508068895833446
                },
                {
                    "name": "D4",
                    "midi": 62,
                    "time": 227.2259390000012,
                    "velocity": 0.3464566929133858,
                    "duration": 0.7661294791666649
                },
                {
                    "name": "F#3",
                    "midi": 54,
                    "time": 227.2259390000012,
                    "velocity": 0.29133858267716534,
                    "duration": 0.7661294791666649
                },
                {
                    "name": "D4",
                    "midi": 62,
                    "time": 228.0001330000012,
                    "velocity": 0.3464566929133858,
                    "duration": 0.367742149999998
                },
                {
                    "name": "D4",
                    "midi": 62,
                    "time": 228.3872300000012,
                    "velocity": 0.3228346456692913,
                    "duration": 0.367742149999998
                },
                {
                    "name": "B3",
                    "midi": 59,
                    "time": 228.77432700000122,
                    "velocity": 0.29133858267716534,
                    "duration": 0.7669359312500035
                },
                {
                    "name": "D4",
                    "midi": 62,
                    "time": 228.77432700000122,
                    "velocity": 0.29133858267716534,
                    "duration": 0.7669359312500035
                },
                {
                    "name": "B4",
                    "midi": 71,
                    "time": 228.77432700000122,
                    "velocity": 0.3464566929133858,
                    "duration": 0.7669359312500035
                },
                {
                    "name": "B3",
                    "midi": 59,
                    "time": 229.54852100000122,
                    "velocity": 0.29133858267716534,
                    "duration": 0.367742149999998
                },
                {
                    "name": "D4",
                    "midi": 62,
                    "time": 229.54852100000122,
                    "velocity": 0.29133858267716534,
                    "duration": 0.367742149999998
                },
                {
                    "name": "B4",
                    "midi": 71,
                    "time": 229.54852100000122,
                    "velocity": 0.3464566929133858,
                    "duration": 0.367742149999998
                },
                {
                    "name": "B3",
                    "midi": 59,
                    "time": 229.93561800000123,
                    "velocity": 0.29133858267716534,
                    "duration": 0.367742149999998
                },
                {
                    "name": "D4",
                    "midi": 62,
                    "time": 229.93561800000123,
                    "velocity": 0.29133858267716534,
                    "duration": 0.367742149999998
                },
                {
                    "name": "B4",
                    "midi": 71,
                    "time": 229.93561800000123,
                    "velocity": 0.3464566929133858,
                    "duration": 0.367742149999998
                },
                {
                    "name": "B3",
                    "midi": 59,
                    "time": 230.32271500000124,
                    "velocity": 0.2755905511811024,
                    "duration": 0.367742149999998
                },
                {
                    "name": "D4",
                    "midi": 62,
                    "time": 230.32271500000124,
                    "velocity": 0.2755905511811024,
                    "duration": 0.367742149999998
                },
                {
                    "name": "B4",
                    "midi": 71,
                    "time": 230.32271500000124,
                    "velocity": 0.33070866141732286,
                    "duration": 0.367742149999998
                },
                {
                    "name": "B3",
                    "midi": 59,
                    "time": 230.70981200000125,
                    "velocity": 0.2755905511811024,
                    "duration": 0.367742149999998
                },
                {
                    "name": "D4",
                    "midi": 62,
                    "time": 230.70981200000125,
                    "velocity": 0.2755905511811024,
                    "duration": 0.367742149999998
                },
                {
                    "name": "B4",
                    "midi": 71,
                    "time": 230.70981200000125,
                    "velocity": 0.33070866141732286,
                    "duration": 0.367742149999998
                },
                {
                    "name": "B3",
                    "midi": 59,
                    "time": 231.09690900000126,
                    "velocity": 0.29133858267716534,
                    "duration": 0.367742149999998
                },
                {
                    "name": "D4",
                    "midi": 62,
                    "time": 231.09690900000126,
                    "velocity": 0.29133858267716534,
                    "duration": 0.367742149999998
                },
                {
                    "name": "B4",
                    "midi": 71,
                    "time": 231.09690900000126,
                    "velocity": 0.3464566929133858,
                    "duration": 0.367742149999998
                },
                {
                    "name": "E4",
                    "midi": 64,
                    "time": 231.48400600000127,
                    "velocity": 0.31496062992125984,
                    "duration": 0.3758066708333274
                },
                {
                    "name": "G4",
                    "midi": 67,
                    "time": 231.48400600000127,
                    "velocity": 0.31496062992125984,
                    "duration": 0.3758066708333274
                },
                {
                    "name": "E5",
                    "midi": 76,
                    "time": 231.48400600000127,
                    "velocity": 0.3779527559055118,
                    "duration": 0.3758066708333274
                },
                {
                    "name": "D4",
                    "midi": 62,
                    "time": 231.87110300000126,
                    "velocity": 0.29133858267716534,
                    "duration": 0.367742149999998
                },
                {
                    "name": "G4",
                    "midi": 67,
                    "time": 231.87110300000126,
                    "velocity": 0.29133858267716534,
                    "duration": 0.367742149999998
                },
                {
                    "name": "D5",
                    "midi": 74,
                    "time": 231.87110300000126,
                    "velocity": 0.3464566929133858,
                    "duration": 0.367742149999998
                },
                {
                    "name": "D4",
                    "midi": 62,
                    "time": 232.25820000000127,
                    "velocity": 0.29133858267716534,
                    "duration": 0.367742149999998
                },
                {
                    "name": "G4",
                    "midi": 67,
                    "time": 232.25820000000127,
                    "velocity": 0.29133858267716534,
                    "duration": 0.367742149999998
                },
                {
                    "name": "D5",
                    "midi": 74,
                    "time": 232.25820000000127,
                    "velocity": 0.3464566929133858,
                    "duration": 0.367742149999998
                },
                {
                    "name": "D4",
                    "midi": 62,
                    "time": 232.64529700000128,
                    "velocity": 0.2677165354330709,
                    "duration": 0.367742149999998
                },
                {
                    "name": "G4",
                    "midi": 67,
                    "time": 232.64529700000128,
                    "velocity": 0.2677165354330709,
                    "duration": 0.367742149999998
                },
                {
                    "name": "D5",
                    "midi": 74,
                    "time": 232.64529700000128,
                    "velocity": 0.31496062992125984,
                    "duration": 0.367742149999998
                },
                {
                    "name": "D4",
                    "midi": 62,
                    "time": 233.0323940000013,
                    "velocity": 0.2677165354330709,
                    "duration": 0.367742149999998
                },
                {
                    "name": "G4",
                    "midi": 67,
                    "time": 233.0323940000013,
                    "velocity": 0.2677165354330709,
                    "duration": 0.367742149999998
                },
                {
                    "name": "D5",
                    "midi": 74,
                    "time": 233.0323940000013,
                    "velocity": 0.31496062992125984,
                    "duration": 0.367742149999998
                },
                {
                    "name": "D4",
                    "midi": 62,
                    "time": 233.4194910000013,
                    "velocity": 0.29133858267716534,
                    "duration": 0.38709700000001135
                },
                {
                    "name": "G4",
                    "midi": 67,
                    "time": 233.4194910000013,
                    "velocity": 0.29133858267716534,
                    "duration": 0.38709700000001135
                },
                {
                    "name": "D5",
                    "midi": 74,
                    "time": 233.4194910000013,
                    "velocity": 0.3464566929133858,
                    "duration": 0.38709700000001135
                },
                {
                    "name": "A3",
                    "midi": 57,
                    "time": 233.8065880000013,
                    "velocity": 0.25984251968503935,
                    "duration": 0.3758066708333274
                },
                {
                    "name": "D4",
                    "midi": 62,
                    "time": 233.8065880000013,
                    "velocity": 0.25984251968503935,
                    "duration": 0.3758066708333274
                },
                {
                    "name": "A4",
                    "midi": 69,
                    "time": 233.8065880000013,
                    "velocity": 0.30708661417322836,
                    "duration": 0.3758066708333274
                },
                {
                    "name": "C4",
                    "midi": 60,
                    "time": 234.1936850000013,
                    "velocity": 0.25984251968503935,
                    "duration": 0.3750002187499888
                },
                {
                    "name": "D4",
                    "midi": 62,
                    "time": 234.1936850000013,
                    "velocity": 0.25984251968503935,
                    "duration": 0.3758066708333274
                },
                {
                    "name": "C5",
                    "midi": 72,
                    "time": 234.1936850000013,
                    "velocity": 0.30708661417322836,
                    "duration": 0.3750002187499888
                },
                {
                    "name": "C4",
                    "midi": 60,
                    "time": 234.58078200000128,
                    "velocity": 0.29133858267716534,
                    "duration": 0.3750002187499888
                },
                {
                    "name": "D4",
                    "midi": 62,
                    "time": 234.58078200000128,
                    "velocity": 0.29133858267716534,
                    "duration": 0.3758066708333274
                },
                {
                    "name": "C5",
                    "midi": 72,
                    "time": 234.58078200000128,
                    "velocity": 0.3464566929133858,
                    "duration": 0.3750002187499888
                },
                {
                    "name": "B3",
                    "midi": 59,
                    "time": 234.96787900000126,
                    "velocity": 0.2755905511811024,
                    "duration": 0.3758066708333274
                },
                {
                    "name": "D4",
                    "midi": 62,
                    "time": 234.96787900000126,
                    "velocity": 0.2755905511811024,
                    "duration": 0.3758066708333274
                },
                {
                    "name": "B4",
                    "midi": 71,
                    "time": 234.96787900000126,
                    "velocity": 0.33070866141732286,
                    "duration": 0.3758066708333274
                },
                {
                    "name": "A3",
                    "midi": 57,
                    "time": 235.35497600000124,
                    "velocity": 0.2755905511811024,
                    "duration": 0.3758066708333274
                },
                {
                    "name": "D4",
                    "midi": 62,
                    "time": 235.35497600000124,
                    "velocity": 0.2755905511811024,
                    "duration": 0.3758066708333274
                },
                {
                    "name": "A4",
                    "midi": 69,
                    "time": 235.35497600000124,
                    "velocity": 0.33070866141732286,
                    "duration": 0.3758066708333274
                },
                {
                    "name": "A3",
                    "midi": 57,
                    "time": 235.74207300000123,
                    "velocity": 0.29133858267716534,
                    "duration": 0.3758066708333274
                },
                {
                    "name": "D4",
                    "midi": 62,
                    "time": 235.74207300000123,
                    "velocity": 0.29133858267716534,
                    "duration": 0.3758066708333274
                },
                {
                    "name": "A4",
                    "midi": 69,
                    "time": 235.74207300000123,
                    "velocity": 0.3464566929133858,
                    "duration": 0.3758066708333274
                },
                {
                    "name": "B3",
                    "midi": 59,
                    "time": 236.1291700000012,
                    "velocity": 0.25984251968503935,
                    "duration": 0.3758066708333274
                },
                {
                    "name": "D4",
                    "midi": 62,
                    "time": 236.1291700000012,
                    "velocity": 0.25984251968503935,
                    "duration": 0.3758066708333274
                },
                {
                    "name": "B4",
                    "midi": 71,
                    "time": 236.1291700000012,
                    "velocity": 0.30708661417322836,
                    "duration": 0.3758066708333274
                },
                {
                    "name": "B3",
                    "midi": 59,
                    "time": 236.5162670000012,
                    "velocity": 0.25984251968503935,
                    "duration": 0.3758066708333274
                },
                {
                    "name": "D4",
                    "midi": 62,
                    "time": 236.5162670000012,
                    "velocity": 0.25984251968503935,
                    "duration": 0.3758066708333274
                },
                {
                    "name": "B4",
                    "midi": 71,
                    "time": 236.5162670000012,
                    "velocity": 0.30708661417322836,
                    "duration": 0.3758066708333274
                },
                {
                    "name": "B3",
                    "midi": 59,
                    "time": 236.90336400000118,
                    "velocity": 0.29133858267716534,
                    "duration": 0.3758066708333274
                },
                {
                    "name": "D4",
                    "midi": 62,
                    "time": 236.90336400000118,
                    "velocity": 0.29133858267716534,
                    "duration": 0.3758066708333274
                },
                {
                    "name": "B4",
                    "midi": 71,
                    "time": 236.90336400000118,
                    "velocity": 0.3464566929133858,
                    "duration": 0.3758066708333274
                },
                {
                    "name": "D4",
                    "midi": 62,
                    "time": 237.29046100000116,
                    "velocity": 0.33858267716535434,
                    "duration": 0.3758066708333274
                },
                {
                    "name": "A4",
                    "midi": 69,
                    "time": 237.29046100000116,
                    "velocity": 0.4015748031496063,
                    "duration": 0.3758066708333274
                },
                {
                    "name": "A3",
                    "midi": 57,
                    "time": 237.29046100000116,
                    "velocity": 0.33858267716535434,
                    "duration": 0.3758066708333274
                },
                {
                    "name": "D4",
                    "midi": 62,
                    "time": 237.67755800000114,
                    "velocity": 0.3937007874015748,
                    "duration": 0.3758066708333274
                },
                {
                    "name": "G4",
                    "midi": 67,
                    "time": 237.67755800000114,
                    "velocity": 0.47244094488188976,
                    "duration": 0.3758066708333274
                },
                {
                    "name": "G3",
                    "midi": 55,
                    "time": 237.67755800000114,
                    "velocity": 0.3937007874015748,
                    "duration": 0.3758066708333274
                },
                {
                    "name": "D4",
                    "midi": 62,
                    "time": 238.06465500000112,
                    "velocity": 0.4330708661417323,
                    "duration": 0.7661294791666649
                },
                {
                    "name": "A4",
                    "midi": 69,
                    "time": 238.06465500000112,
                    "velocity": 0.5196850393700787,
                    "duration": 0.7669359312500035
                },
                {
                    "name": "F#4",
                    "midi": 66,
                    "time": 238.06465500000112,
                    "velocity": 0.4330708661417323,
                    "duration": 0.7661294791666649
                },
                {
                    "name": "A3",
                    "midi": 57,
                    "time": 238.06465500000112,
                    "velocity": 0.4330708661417323,
                    "duration": 0.7669359312500035
                },
                {
                    "name": "A3",
                    "midi": 57,
                    "time": 238.83884900000112,
                    "velocity": 0.3464566929133858,
                    "duration": 0.367742149999998
                },
                {
                    "name": "D4",
                    "midi": 62,
                    "time": 238.83884900000112,
                    "velocity": 0.3464566929133858,
                    "duration": 0.367742149999998
                },
                {
                    "name": "F#4",
                    "midi": 66,
                    "time": 238.83884900000112,
                    "velocity": 0.3464566929133858,
                    "duration": 0.367742149999998
                },
                {
                    "name": "A4",
                    "midi": 69,
                    "time": 238.83884900000112,
                    "velocity": 0.4094488188976378,
                    "duration": 0.367742149999998
                },
                {
                    "name": "A3",
                    "midi": 57,
                    "time": 239.22594600000113,
                    "velocity": 0.3464566929133858,
                    "duration": 0.367742149999998
                },
                {
                    "name": "D4",
                    "midi": 62,
                    "time": 239.22594600000113,
                    "velocity": 0.3464566929133858,
                    "duration": 0.367742149999998
                },
                {
                    "name": "F#4",
                    "midi": 66,
                    "time": 239.22594600000113,
                    "velocity": 0.3464566929133858,
                    "duration": 0.367742149999998
                },
                {
                    "name": "A4",
                    "midi": 69,
                    "time": 239.22594600000113,
                    "velocity": 0.4094488188976378,
                    "duration": 0.367742149999998
                },
                {
                    "name": "F#4",
                    "midi": 66,
                    "time": 239.61304300000114,
                    "velocity": 0.33070866141732286,
                    "duration": 0.367742149999998
                },
                {
                    "name": "A3",
                    "midi": 57,
                    "time": 239.61304300000114,
                    "velocity": 0.33070866141732286,
                    "duration": 0.367742149999998
                },
                {
                    "name": "A4",
                    "midi": 69,
                    "time": 239.61304300000114,
                    "velocity": 0.3937007874015748,
                    "duration": 0.367742149999998
                },
                {
                    "name": "D4",
                    "midi": 62,
                    "time": 239.61304300000114,
                    "velocity": 0.33070866141732286,
                    "duration": 0.367742149999998
                },
                {
                    "name": "D4",
                    "midi": 62,
                    "time": 240.00014000000115,
                    "velocity": 0.33070866141732286,
                    "duration": 0.367742149999998
                },
                {
                    "name": "A3",
                    "midi": 57,
                    "time": 240.00014000000115,
                    "velocity": 0.33070866141732286,
                    "duration": 0.367742149999998
                },
                {
                    "name": "G4",
                    "midi": 67,
                    "time": 240.00014000000115,
                    "velocity": 0.33070866141732286,
                    "duration": 0.367742149999998
                },
                {
                    "name": "A4",
                    "midi": 69,
                    "time": 240.00014000000115,
                    "velocity": 0.3937007874015748,
                    "duration": 0.367742149999998
                },
                {
                    "name": "A3",
                    "midi": 57,
                    "time": 240.38723700000116,
                    "velocity": 0.3543307086614173,
                    "duration": 0.367742149999998
                },
                {
                    "name": "D4",
                    "midi": 62,
                    "time": 240.38723700000116,
                    "velocity": 0.3543307086614173,
                    "duration": 0.367742149999998
                },
                {
                    "name": "A4",
                    "midi": 69,
                    "time": 240.38723700000116,
                    "velocity": 0.4251968503937008,
                    "duration": 0.367742149999998
                },
                {
                    "name": "F#4",
                    "midi": 66,
                    "time": 240.77433400000118,
                    "velocity": 0.41732283464566927,
                    "duration": 0.3758066708333274
                },
                {
                    "name": "D5",
                    "midi": 74,
                    "time": 240.77433400000118,
                    "velocity": 0.49606299212598426,
                    "duration": 0.3758066708333274
                },
                {
                    "name": "D4",
                    "midi": 62,
                    "time": 240.77433400000118,
                    "velocity": 0.41732283464566927,
                    "duration": 0.3758066708333274
                },
                {
                    "name": "A4",
                    "midi": 69,
                    "time": 241.16143100000116,
                    "velocity": 0.4409448818897638,
                    "duration": 0.367742149999998
                },
                {
                    "name": "F#5",
                    "midi": 78,
                    "time": 241.16143100000116,
                    "velocity": 0.5196850393700787,
                    "duration": 0.367742149999998
                },
                {
                    "name": "F#4",
                    "midi": 66,
                    "time": 241.16143100000116,
                    "velocity": 0.4409448818897638,
                    "duration": 0.367742149999998
                },
                {
                    "name": "F#5",
                    "midi": 78,
                    "time": 241.54852800000117,
                    "velocity": 0.5196850393700787,
                    "duration": 0.367742149999998
                },
                {
                    "name": "F#4",
                    "midi": 66,
                    "time": 241.54852800000117,
                    "velocity": 0.4409448818897638,
                    "duration": 0.367742149999998
                },
                {
                    "name": "A4",
                    "midi": 69,
                    "time": 241.54852800000117,
                    "velocity": 0.4409448818897638,
                    "duration": 0.367742149999998
                },
                {
                    "name": "F#4",
                    "midi": 66,
                    "time": 241.93562500000118,
                    "velocity": 0.4566929133858268,
                    "duration": 0.367742149999998
                },
                {
                    "name": "F#5",
                    "midi": 78,
                    "time": 241.93562500000118,
                    "velocity": 0.5433070866141733,
                    "duration": 0.367742149999998
                },
                {
                    "name": "A4",
                    "midi": 69,
                    "time": 241.93562500000118,
                    "velocity": 0.4566929133858268,
                    "duration": 0.367742149999998
                },
                {
                    "name": "F#4",
                    "midi": 66,
                    "time": 242.3227220000012,
                    "velocity": 0.48031496062992124,
                    "duration": 0.367742149999998
                },
                {
                    "name": "F#5",
                    "midi": 78,
                    "time": 242.3227220000012,
                    "velocity": 0.5669291338582677,
                    "duration": 0.367742149999998
                },
                {
                    "name": "A4",
                    "midi": 69,
                    "time": 242.3227220000012,
                    "velocity": 0.48031496062992124,
                    "duration": 0.367742149999998
                },
                {
                    "name": "A#4",
                    "midi": 70,
                    "time": 242.7098190000012,
                    "velocity": 0.49606299212598426,
                    "duration": 0.367742149999998
                },
                {
                    "name": "F#4",
                    "midi": 66,
                    "time": 242.7098190000012,
                    "velocity": 0.49606299212598426,
                    "duration": 0.367742149999998
                },
                {
                    "name": "F#5",
                    "midi": 78,
                    "time": 242.7098190000012,
                    "velocity": 0.5905511811023622,
                    "duration": 0.367742149999998
                },
                {
                    "name": "F#4",
                    "midi": 66,
                    "time": 243.09691600000122,
                    "velocity": 0.4409448818897638,
                    "duration": 0.367742149999998
                },
                {
                    "name": "A#4",
                    "midi": 70,
                    "time": 243.09691600000122,
                    "velocity": 0.4409448818897638,
                    "duration": 0.367742149999998
                },
                {
                    "name": "F#5",
                    "midi": 78,
                    "time": 243.09691600000122,
                    "velocity": 0.5196850393700787,
                    "duration": 0.367742149999998
                },
                {
                    "name": "F#5",
                    "midi": 78,
                    "time": 243.48401300000123,
                    "velocity": 0.48031496062992124,
                    "duration": 0.367742149999998
                },
                {
                    "name": "A#4",
                    "midi": 70,
                    "time": 243.48401300000123,
                    "velocity": 0.4094488188976378,
                    "duration": 0.367742149999998
                },
                {
                    "name": "F#4",
                    "midi": 66,
                    "time": 243.48401300000123,
                    "velocity": 0.4094488188976378,
                    "duration": 0.367742149999998
                },
                {
                    "name": "A#4",
                    "midi": 70,
                    "time": 243.87111000000124,
                    "velocity": 0.3464566929133858,
                    "duration": 0.367742149999998
                },
                {
                    "name": "F#5",
                    "midi": 78,
                    "time": 243.87111000000124,
                    "velocity": 0.4094488188976378,
                    "duration": 0.367742149999998
                },
                {
                    "name": "F#4",
                    "midi": 66,
                    "time": 243.87111000000124,
                    "velocity": 0.3464566929133858,
                    "duration": 0.367742149999998
                },
                {
                    "name": "F#5",
                    "midi": 78,
                    "time": 244.25820700000125,
                    "velocity": 0.3779527559055118,
                    "duration": 0.367742149999998
                },
                {
                    "name": "F#4",
                    "midi": 66,
                    "time": 244.25820700000125,
                    "velocity": 0.31496062992125984,
                    "duration": 0.367742149999998
                },
                {
                    "name": "A#4",
                    "midi": 70,
                    "time": 244.25820700000125,
                    "velocity": 0.31496062992125984,
                    "duration": 0.367742149999998
                },
                {
                    "name": "F#5",
                    "midi": 78,
                    "time": 244.64530400000126,
                    "velocity": 0.33858267716535434,
                    "duration": 0.367742149999998
                },
                {
                    "name": "F#4",
                    "midi": 66,
                    "time": 244.64530400000126,
                    "velocity": 0.28346456692913385,
                    "duration": 0.367742149999998
                },
                {
                    "name": "A#4",
                    "midi": 70,
                    "time": 244.64530400000126,
                    "velocity": 0.28346456692913385,
                    "duration": 0.367742149999998
                },
                {
                    "name": "A4",
                    "midi": 69,
                    "time": 245.03240100000127,
                    "velocity": 0.25196850393700787,
                    "duration": 0.3758066708333274
                },
                {
                    "name": "F#5",
                    "midi": 78,
                    "time": 245.03240100000127,
                    "velocity": 0.30708661417322836,
                    "duration": 0.3758066708333274
                },
                {
                    "name": "F#4",
                    "midi": 66,
                    "time": 245.03240100000127,
                    "velocity": 0.25196850393700787,
                    "duration": 0.3758066708333274
                },
                {
                    "name": "G5",
                    "midi": 79,
                    "time": 245.41949800000125,
                    "velocity": 0.28346456692913385,
                    "duration": 0.3758066708333274
                },
                {
                    "name": "G4",
                    "midi": 67,
                    "time": 245.41949800000125,
                    "velocity": 0.2440944881889764,
                    "duration": 0.3758066708333274
                },
                {
                    "name": "A4",
                    "midi": 69,
                    "time": 245.41949800000125,
                    "velocity": 0.2440944881889764,
                    "duration": 0.3758066708333274
                },
                {
                    "name": "A5",
                    "midi": 81,
                    "time": 245.80659500000124,
                    "velocity": 0.2992125984251969,
                    "duration": 0.3758066708333274
                },
                {
                    "name": "A4",
                    "midi": 69,
                    "time": 245.80659500000124,
                    "velocity": 0.25196850393700787,
                    "duration": 0.3758066708333274
                },
                {
                    "name": "F#4",
                    "midi": 66,
                    "time": 246.19369200000122,
                    "velocity": 0.28346456692913385,
                    "duration": 0.3758066708333274
                },
                {
                    "name": "D4",
                    "midi": 62,
                    "time": 246.19369200000122,
                    "velocity": 0.28346456692913385,
                    "duration": 0.3758066708333274
                },
                {
                    "name": "D5",
                    "midi": 74,
                    "time": 246.19369200000122,
                    "velocity": 0.33858267716535434,
                    "duration": 0.3758066708333274
                },
                {
                    "name": "G4",
                    "midi": 67,
                    "time": 246.5807890000012,
                    "velocity": 0.23622047244094488,
                    "duration": 0.3758066708333274
                },
                {
                    "name": "E4",
                    "midi": 64,
                    "time": 246.5807890000012,
                    "velocity": 0.23622047244094488,
                    "duration": 0.3758066708333274
                },
                {
                    "name": "E5",
                    "midi": 76,
                    "time": 246.5807890000012,
                    "velocity": 0.28346456692913385,
                    "duration": 0.3758066708333274
                },
                {
                    "name": "C#5",
                    "midi": 73,
                    "time": 246.5807890000012,
                    "velocity": 0.23622047244094488,
                    "duration": 0.3758066708333274
                },
                {
                    "name": "A4",
                    "midi": 69,
                    "time": 246.9678860000012,
                    "velocity": 0.23622047244094488,
                    "duration": 0.3758066708333274
                },
                {
                    "name": "F#4",
                    "midi": 66,
                    "time": 246.9678860000012,
                    "velocity": 0.23622047244094488,
                    "duration": 0.3758066708333274
                },
                {
                    "name": "D5",
                    "midi": 74,
                    "time": 246.9678860000012,
                    "velocity": 0.23622047244094488,
                    "duration": 0.3758066708333274
                },
                {
                    "name": "F#5",
                    "midi": 78,
                    "time": 246.9678860000012,
                    "velocity": 0.28346456692913385,
                    "duration": 0.3758066708333274
                },
                {
                    "name": "G4",
                    "midi": 67,
                    "time": 247.35498300000117,
                    "velocity": 0.2677165354330709,
                    "duration": 0.7669359312500035
                },
                {
                    "name": "E5",
                    "midi": 76,
                    "time": 247.35498300000117,
                    "velocity": 0.3228346456692913,
                    "duration": 0.7669359312500035
                },
                {
                    "name": "A4",
                    "midi": 69,
                    "time": 247.35498300000117,
                    "velocity": 0.2677165354330709,
                    "duration": 0.7669359312500035
                },
                {
                    "name": "C#5",
                    "midi": 73,
                    "time": 247.35498300000117,
                    "velocity": 0.2677165354330709,
                    "duration": 0.7669359312500035
                },
                {
                    "name": "F#4",
                    "midi": 66,
                    "time": 248.12917700000116,
                    "velocity": 0.25196850393700787,
                    "duration": 0.3758066708333274
                },
                {
                    "name": "A4",
                    "midi": 69,
                    "time": 248.12917700000116,
                    "velocity": 0.25196850393700787,
                    "duration": 0.3758066708333274
                },
                {
                    "name": "D5",
                    "midi": 74,
                    "time": 248.12917700000116,
                    "velocity": 0.2992125984251969,
                    "duration": 0.3758066708333274
                },
                {
                    "name": "F#4",
                    "midi": 66,
                    "time": 248.51627400000115,
                    "velocity": 0.28346456692913385,
                    "duration": 0.3758066708333274
                },
                {
                    "name": "D5",
                    "midi": 74,
                    "time": 248.51627400000115,
                    "velocity": 0.33858267716535434,
                    "duration": 0.3758066708333274
                },
                {
                    "name": "A4",
                    "midi": 69,
                    "time": 248.51627400000115,
                    "velocity": 0.28346456692913385,
                    "duration": 0.3758066708333274
                },
                {
                    "name": "D4",
                    "midi": 62,
                    "time": 248.90337100000113,
                    "velocity": 0.3464566929133858,
                    "duration": 0.367742149999998
                },
                {
                    "name": "D4",
                    "midi": 62,
                    "time": 249.29046800000114,
                    "velocity": 0.3228346456692913,
                    "duration": 0.367742149999998
                },
                {
                    "name": "B3",
                    "midi": 59,
                    "time": 249.67756500000115,
                    "velocity": 0.29133858267716534,
                    "duration": 0.7669359312500035
                },
                {
                    "name": "D4",
                    "midi": 62,
                    "time": 249.67756500000115,
                    "velocity": 0.29133858267716534,
                    "duration": 0.7669359312500035
                },
                {
                    "name": "B4",
                    "midi": 71,
                    "time": 249.67756500000115,
                    "velocity": 0.3464566929133858,
                    "duration": 0.7669359312500035
                },
                {
                    "name": "B3",
                    "midi": 59,
                    "time": 250.45175900000115,
                    "velocity": 0.29133858267716534,
                    "duration": 0.367742149999998
                },
                {
                    "name": "B4",
                    "midi": 71,
                    "time": 250.45175900000115,
                    "velocity": 0.3464566929133858,
                    "duration": 0.367742149999998
                },
                {
                    "name": "D4",
                    "midi": 62,
                    "time": 250.45175900000115,
                    "velocity": 0.29133858267716534,
                    "duration": 0.367742149999998
                },
                {
                    "name": "D4",
                    "midi": 62,
                    "time": 250.83885600000116,
                    "velocity": 0.29133858267716534,
                    "duration": 0.367742149999998
                },
                {
                    "name": "B3",
                    "midi": 59,
                    "time": 250.83885600000116,
                    "velocity": 0.29133858267716534,
                    "duration": 0.367742149999998
                },
                {
                    "name": "B4",
                    "midi": 71,
                    "time": 250.83885600000116,
                    "velocity": 0.3464566929133858,
                    "duration": 0.367742149999998
                },
                {
                    "name": "D4",
                    "midi": 62,
                    "time": 251.22595300000117,
                    "velocity": 0.2755905511811024,
                    "duration": 0.367742149999998
                },
                {
                    "name": "B3",
                    "midi": 59,
                    "time": 251.22595300000117,
                    "velocity": 0.2755905511811024,
                    "duration": 0.367742149999998
                },
                {
                    "name": "B4",
                    "midi": 71,
                    "time": 251.22595300000117,
                    "velocity": 0.33070866141732286,
                    "duration": 0.367742149999998
                },
                {
                    "name": "D4",
                    "midi": 62,
                    "time": 251.61305000000118,
                    "velocity": 0.2755905511811024,
                    "duration": 0.367742149999998
                },
                {
                    "name": "B4",
                    "midi": 71,
                    "time": 251.61305000000118,
                    "velocity": 0.33070866141732286,
                    "duration": 0.367742149999998
                },
                {
                    "name": "B3",
                    "midi": 59,
                    "time": 251.61305000000118,
                    "velocity": 0.2755905511811024,
                    "duration": 0.367742149999998
                },
                {
                    "name": "B4",
                    "midi": 71,
                    "time": 252.0001470000012,
                    "velocity": 0.3464566929133858,
                    "duration": 0.367742149999998
                },
                {
                    "name": "B3",
                    "midi": 59,
                    "time": 252.0001470000012,
                    "velocity": 0.29133858267716534,
                    "duration": 0.367742149999998
                },
                {
                    "name": "D4",
                    "midi": 62,
                    "time": 252.0001470000012,
                    "velocity": 0.29133858267716534,
                    "duration": 0.367742149999998
                },
                {
                    "name": "E5",
                    "midi": 76,
                    "time": 252.3872440000012,
                    "velocity": 0.3779527559055118,
                    "duration": 0.3758066708333274
                },
                {
                    "name": "E4",
                    "midi": 64,
                    "time": 252.3872440000012,
                    "velocity": 0.31496062992125984,
                    "duration": 0.3758066708333274
                },
                {
                    "name": "G4",
                    "midi": 67,
                    "time": 252.3872440000012,
                    "velocity": 0.31496062992125984,
                    "duration": 0.3758066708333274
                },
                {
                    "name": "D4",
                    "midi": 62,
                    "time": 252.7743410000012,
                    "velocity": 0.29133858267716534,
                    "duration": 0.367742149999998
                },
                {
                    "name": "G4",
                    "midi": 67,
                    "time": 252.7743410000012,
                    "velocity": 0.29133858267716534,
                    "duration": 0.367742149999998
                },
                {
                    "name": "D5",
                    "midi": 74,
                    "time": 252.7743410000012,
                    "velocity": 0.3464566929133858,
                    "duration": 0.367742149999998
                },
                {
                    "name": "D4",
                    "midi": 62,
                    "time": 253.1614380000012,
                    "velocity": 0.29133858267716534,
                    "duration": 0.367742149999998
                },
                {
                    "name": "D5",
                    "midi": 74,
                    "time": 253.1614380000012,
                    "velocity": 0.3464566929133858,
                    "duration": 0.367742149999998
                },
                {
                    "name": "G4",
                    "midi": 67,
                    "time": 253.1614380000012,
                    "velocity": 0.29133858267716534,
                    "duration": 0.367742149999998
                },
                {
                    "name": "G4",
                    "midi": 67,
                    "time": 253.5485350000012,
                    "velocity": 0.2677165354330709,
                    "duration": 0.367742149999998
                },
                {
                    "name": "D5",
                    "midi": 74,
                    "time": 253.5485350000012,
                    "velocity": 0.31496062992125984,
                    "duration": 0.367742149999998
                },
                {
                    "name": "D4",
                    "midi": 62,
                    "time": 253.5485350000012,
                    "velocity": 0.2677165354330709,
                    "duration": 0.367742149999998
                },
                {
                    "name": "D4",
                    "midi": 62,
                    "time": 253.93563200000122,
                    "velocity": 0.2677165354330709,
                    "duration": 0.367742149999998
                },
                {
                    "name": "D5",
                    "midi": 74,
                    "time": 253.93563200000122,
                    "velocity": 0.31496062992125984,
                    "duration": 0.367742149999998
                },
                {
                    "name": "G4",
                    "midi": 67,
                    "time": 253.93563200000122,
                    "velocity": 0.2677165354330709,
                    "duration": 0.367742149999998
                },
                {
                    "name": "D4",
                    "midi": 62,
                    "time": 254.32272900000123,
                    "velocity": 0.29133858267716534,
                    "duration": 0.38709700000001135
                },
                {
                    "name": "D5",
                    "midi": 74,
                    "time": 254.32272900000123,
                    "velocity": 0.3464566929133858,
                    "duration": 0.38709700000001135
                },
                {
                    "name": "G4",
                    "midi": 67,
                    "time": 254.32272900000123,
                    "velocity": 0.29133858267716534,
                    "duration": 0.38709700000001135
                },
                {
                    "name": "A3",
                    "midi": 57,
                    "time": 254.70982600000124,
                    "velocity": 0.25984251968503935,
                    "duration": 0.3758066708333274
                },
                {
                    "name": "D4",
                    "midi": 62,
                    "time": 254.70982600000124,
                    "velocity": 0.25984251968503935,
                    "duration": 0.3758066708333274
                },
                {
                    "name": "A4",
                    "midi": 69,
                    "time": 254.70982600000124,
                    "velocity": 0.30708661417322836,
                    "duration": 0.3758066708333274
                },
                {
                    "name": "C4",
                    "midi": 60,
                    "time": 255.09692300000123,
                    "velocity": 0.25984251968503935,
                    "duration": 0.3750002187499888
                },
                {
                    "name": "D4",
                    "midi": 62,
                    "time": 255.09692300000123,
                    "velocity": 0.25984251968503935,
                    "duration": 0.3758066708333274
                },
                {
                    "name": "C5",
                    "midi": 72,
                    "time": 255.09692300000123,
                    "velocity": 0.30708661417322836,
                    "duration": 0.3750002187499888
                },
                {
                    "name": "D4",
                    "midi": 62,
                    "time": 255.4840200000012,
                    "velocity": 0.29133858267716534,
                    "duration": 0.3758066708333274
                },
                {
                    "name": "C5",
                    "midi": 72,
                    "time": 255.4840200000012,
                    "velocity": 0.3464566929133858,
                    "duration": 0.3750002187499888
                },
                {
                    "name": "C4",
                    "midi": 60,
                    "time": 255.4840200000012,
                    "velocity": 0.29133858267716534,
                    "duration": 0.3750002187499888
                },
                {
                    "name": "D4",
                    "midi": 62,
                    "time": 255.8711170000012,
                    "velocity": 0.2755905511811024,
                    "duration": 0.3758066708333274
                },
                {
                    "name": "B4",
                    "midi": 71,
                    "time": 255.8711170000012,
                    "velocity": 0.33070866141732286,
                    "duration": 0.3758066708333274
                },
                {
                    "name": "B3",
                    "midi": 59,
                    "time": 255.8711170000012,
                    "velocity": 0.2755905511811024,
                    "duration": 0.3758066708333274
                },
                {
                    "name": "D4",
                    "midi": 62,
                    "time": 256.2582140000012,
                    "velocity": 0.2755905511811024,
                    "duration": 0.37580667083335584
                },
                {
                    "name": "A4",
                    "midi": 69,
                    "time": 256.2582140000012,
                    "velocity": 0.33070866141732286,
                    "duration": 0.37580667083335584
                },
                {
                    "name": "A3",
                    "midi": 57,
                    "time": 256.2582140000012,
                    "velocity": 0.2755905511811024,
                    "duration": 0.37580667083335584
                },
                {
                    "name": "A3",
                    "midi": 57,
                    "time": 256.64531100000124,
                    "velocity": 0.29133858267716534,
                    "duration": 0.37580667083335584
                },
                {
                    "name": "A4",
                    "midi": 69,
                    "time": 256.64531100000124,
                    "velocity": 0.3464566929133858,
                    "duration": 0.37580667083335584
                },
                {
                    "name": "D4",
                    "midi": 62,
                    "time": 256.64531100000124,
                    "velocity": 0.29133858267716534,
                    "duration": 0.37580667083335584
                },
                {
                    "name": "B3",
                    "midi": 59,
                    "time": 257.0324080000013,
                    "velocity": 0.25984251968503935,
                    "duration": 0.37580667083335584
                },
                {
                    "name": "B4",
                    "midi": 71,
                    "time": 257.0324080000013,
                    "velocity": 0.30708661417322836,
                    "duration": 0.37580667083335584
                },
                {
                    "name": "D4",
                    "midi": 62,
                    "time": 257.0324080000013,
                    "velocity": 0.25984251968503935,
                    "duration": 0.37580667083335584
                },
                {
                    "name": "D4",
                    "midi": 62,
                    "time": 257.4195050000013,
                    "velocity": 0.25984251968503935,
                    "duration": 0.37580667083335584
                },
                {
                    "name": "B4",
                    "midi": 71,
                    "time": 257.4195050000013,
                    "velocity": 0.30708661417322836,
                    "duration": 0.37580667083335584
                },
                {
                    "name": "B3",
                    "midi": 59,
                    "time": 257.4195050000013,
                    "velocity": 0.25984251968503935,
                    "duration": 0.37580667083335584
                },
                {
                    "name": "D4",
                    "midi": 62,
                    "time": 257.80660200000136,
                    "velocity": 0.29133858267716534,
                    "duration": 0.37580667083335584
                },
                {
                    "name": "B4",
                    "midi": 71,
                    "time": 257.80660200000136,
                    "velocity": 0.3464566929133858,
                    "duration": 0.37580667083335584
                },
                {
                    "name": "B3",
                    "midi": 59,
                    "time": 257.80660200000136,
                    "velocity": 0.29133858267716534,
                    "duration": 0.37580667083335584
                },
                {
                    "name": "D4",
                    "midi": 62,
                    "time": 258.1936990000014,
                    "velocity": 0.33858267716535434,
                    "duration": 0.37580667083335584
                },
                {
                    "name": "A4",
                    "midi": 69,
                    "time": 258.1936990000014,
                    "velocity": 0.4015748031496063,
                    "duration": 0.37580667083335584
                },
                {
                    "name": "A3",
                    "midi": 57,
                    "time": 258.1936990000014,
                    "velocity": 0.33858267716535434,
                    "duration": 0.37580667083335584
                },
                {
                    "name": "G3",
                    "midi": 55,
                    "time": 258.58079600000144,
                    "velocity": 0.3937007874015748,
                    "duration": 0.37580667083335584
                },
                {
                    "name": "G4",
                    "midi": 67,
                    "time": 258.58079600000144,
                    "velocity": 0.47244094488188976,
                    "duration": 0.37580667083335584
                },
                {
                    "name": "D4",
                    "midi": 62,
                    "time": 258.58079600000144,
                    "velocity": 0.3937007874015748,
                    "duration": 0.37580667083335584
                },
                {
                    "name": "F#4",
                    "midi": 66,
                    "time": 258.9678930000015,
                    "velocity": 0.4330708661417323,
                    "duration": 0.7661294791666933
                },
                {
                    "name": "D4",
                    "midi": 62,
                    "time": 258.9678930000015,
                    "velocity": 0.4330708661417323,
                    "duration": 0.7661294791666933
                },
                {
                    "name": "A4",
                    "midi": 69,
                    "time": 258.9678930000015,
                    "velocity": 0.5196850393700787,
                    "duration": 0.7669359312500319
                },
                {
                    "name": "A3",
                    "midi": 57,
                    "time": 258.9678930000015,
                    "velocity": 0.4330708661417323,
                    "duration": 0.7669359312500319
                },
                {
                    "name": "F#4",
                    "midi": 66,
                    "time": 259.7420870000015,
                    "velocity": 0.3464566929133858,
                    "duration": 0.3677421500000264
                },
                {
                    "name": "D4",
                    "midi": 62,
                    "time": 259.7420870000015,
                    "velocity": 0.3464566929133858,
                    "duration": 0.3677421500000264
                },
                {
                    "name": "A4",
                    "midi": 69,
                    "time": 259.7420870000015,
                    "velocity": 0.4094488188976378,
                    "duration": 0.3677421500000264
                },
                {
                    "name": "A3",
                    "midi": 57,
                    "time": 259.7420870000015,
                    "velocity": 0.3464566929133858,
                    "duration": 0.3677421500000264
                },
                {
                    "name": "A3",
                    "midi": 57,
                    "time": 260.12918400000154,
                    "velocity": 0.3464566929133858,
                    "duration": 0.3677421500000264
                },
                {
                    "name": "D4",
                    "midi": 62,
                    "time": 260.12918400000154,
                    "velocity": 0.3464566929133858,
                    "duration": 0.3677421500000264
                },
                {
                    "name": "A4",
                    "midi": 69,
                    "time": 260.12918400000154,
                    "velocity": 0.4094488188976378,
                    "duration": 0.3677421500000264
                },
                {
                    "name": "F#4",
                    "midi": 66,
                    "time": 260.12918400000154,
                    "velocity": 0.3464566929133858,
                    "duration": 0.3677421500000264
                },
                {
                    "name": "A3",
                    "midi": 57,
                    "time": 260.5162810000016,
                    "velocity": 0.33070866141732286,
                    "duration": 0.3677421500000264
                },
                {
                    "name": "D4",
                    "midi": 62,
                    "time": 260.5162810000016,
                    "velocity": 0.33070866141732286,
                    "duration": 0.3677421500000264
                },
                {
                    "name": "F#4",
                    "midi": 66,
                    "time": 260.5162810000016,
                    "velocity": 0.33070866141732286,
                    "duration": 0.3677421500000264
                },
                {
                    "name": "A4",
                    "midi": 69,
                    "time": 260.5162810000016,
                    "velocity": 0.3937007874015748,
                    "duration": 0.3677421500000264
                },
                {
                    "name": "D4",
                    "midi": 62,
                    "time": 260.9033780000016,
                    "velocity": 0.33070866141732286,
                    "duration": 0.3677421500000264
                },
                {
                    "name": "A4",
                    "midi": 69,
                    "time": 260.9033780000016,
                    "velocity": 0.3937007874015748,
                    "duration": 0.3677421500000264
                },
                {
                    "name": "G4",
                    "midi": 67,
                    "time": 260.9033780000016,
                    "velocity": 0.33070866141732286,
                    "duration": 0.3677421500000264
                },
                {
                    "name": "A3",
                    "midi": 57,
                    "time": 260.9033780000016,
                    "velocity": 0.33070866141732286,
                    "duration": 0.3677421500000264
                },
                {
                    "name": "D4",
                    "midi": 62,
                    "time": 261.29047500000166,
                    "velocity": 0.3858267716535433,
                    "duration": 0.3677421500000264
                },
                {
                    "name": "A3",
                    "midi": 57,
                    "time": 261.29047500000166,
                    "velocity": 0.3858267716535433,
                    "duration": 0.3677421500000264
                },
                {
                    "name": "A4",
                    "midi": 69,
                    "time": 261.29047500000166,
                    "velocity": 0.4645669291338583,
                    "duration": 0.3677421500000264
                },
                {
                    "name": "F#4",
                    "midi": 66,
                    "time": 261.6775720000017,
                    "velocity": 0.4566929133858268,
                    "duration": 0.37580667083335584
                },
                {
                    "name": "D4",
                    "midi": 62,
                    "time": 261.6775720000017,
                    "velocity": 0.4566929133858268,
                    "duration": 0.37580667083335584
                },
                {
                    "name": "D5",
                    "midi": 74,
                    "time": 261.6775720000017,
                    "velocity": 0.5433070866141733,
                    "duration": 0.37580667083335584
                },
                {
                    "name": "A4",
                    "midi": 69,
                    "time": 262.06466900000174,
                    "velocity": 0.49606299212598426,
                    "duration": 0.3677421500000264
                },
                {
                    "name": "F#5",
                    "midi": 78,
                    "time": 262.06466900000174,
                    "velocity": 0.5826771653543307,
                    "duration": 0.3677421500000264
                },
                {
                    "name": "F#4",
                    "midi": 66,
                    "time": 262.06466900000174,
                    "velocity": 0.49606299212598426,
                    "duration": 0.3677421500000264
                },
                {
                    "name": "F#5",
                    "midi": 78,
                    "time": 262.4517660000018,
                    "velocity": 0.5905511811023622,
                    "duration": 0.3677421500000264
                },
                {
                    "name": "F#4",
                    "midi": 66,
                    "time": 262.4517660000018,
                    "velocity": 0.49606299212598426,
                    "duration": 0.3677421500000264
                },
                {
                    "name": "A4",
                    "midi": 69,
                    "time": 262.4517660000018,
                    "velocity": 0.49606299212598426,
                    "duration": 0.3677421500000264
                },
                {
                    "name": "F#5",
                    "midi": 78,
                    "time": 262.8388630000018,
                    "velocity": 0.6299212598425197,
                    "duration": 0.3677421500000264
                },
                {
                    "name": "F#4",
                    "midi": 66,
                    "time": 262.8388630000018,
                    "velocity": 0.5275590551181102,
                    "duration": 0.3677421500000264
                },
                {
                    "name": "A4",
                    "midi": 69,
                    "time": 262.8388630000018,
                    "velocity": 0.5275590551181102,
                    "duration": 0.3677421500000264
                },
                {
                    "name": "F#4",
                    "midi": 66,
                    "time": 263.22596000000186,
                    "velocity": 0.5590551181102362,
                    "duration": 0.3677421500000264
                },
                {
                    "name": "A4",
                    "midi": 69,
                    "time": 263.22596000000186,
                    "velocity": 0.5590551181102362,
                    "duration": 0.3677421500000264
                },
                {
                    "name": "F#5",
                    "midi": 78,
                    "time": 263.22596000000186,
                    "velocity": 0.6614173228346457,
                    "duration": 0.3677421500000264
                },
                {
                    "name": "F#4",
                    "midi": 66,
                    "time": 263.6130570000019,
                    "velocity": 0.5511811023622047,
                    "duration": 0.3677421500000264
                },
                {
                    "name": "F#5",
                    "midi": 78,
                    "time": 263.6130570000019,
                    "velocity": 0.6614173228346457,
                    "duration": 0.3677421500000264
                },
                {
                    "name": "A#4",
                    "midi": 70,
                    "time": 263.6130570000019,
                    "velocity": 0.5511811023622047,
                    "duration": 0.3677421500000264
                },
                {
                    "name": "A#4",
                    "midi": 70,
                    "time": 264.00015400000194,
                    "velocity": 0.48031496062992124,
                    "duration": 0.3677421500000264
                },
                {
                    "name": "F#4",
                    "midi": 66,
                    "time": 264.00015400000194,
                    "velocity": 0.48031496062992124,
                    "duration": 0.3677421500000264
                },
                {
                    "name": "F#5",
                    "midi": 78,
                    "time": 264.00015400000194,
                    "velocity": 0.5669291338582677,
                    "duration": 0.3677421500000264
                },
                {
                    "name": "A#4",
                    "midi": 70,
                    "time": 264.387251000002,
                    "velocity": 0.4409448818897638,
                    "duration": 0.3677421500000264
                },
                {
                    "name": "F#4",
                    "midi": 66,
                    "time": 264.387251000002,
                    "velocity": 0.4409448818897638,
                    "duration": 0.3677421500000264
                },
                {
                    "name": "F#5",
                    "midi": 78,
                    "time": 264.387251000002,
                    "velocity": 0.5118110236220472,
                    "duration": 0.3677421500000264
                },
                {
                    "name": "F#5",
                    "midi": 78,
                    "time": 264.774348000002,
                    "velocity": 0.4330708661417323,
                    "duration": 0.3677421500000264
                },
                {
                    "name": "A#4",
                    "midi": 70,
                    "time": 264.774348000002,
                    "velocity": 0.36220472440944884,
                    "duration": 0.3677421500000264
                },
                {
                    "name": "F#4",
                    "midi": 66,
                    "time": 264.774348000002,
                    "velocity": 0.36220472440944884,
                    "duration": 0.3677421500000264
                },
                {
                    "name": "F#4",
                    "midi": 66,
                    "time": 265.16144500000206,
                    "velocity": 0.3228346456692913,
                    "duration": 0.3677421500000264
                },
                {
                    "name": "A#4",
                    "midi": 70,
                    "time": 265.16144500000206,
                    "velocity": 0.3228346456692913,
                    "duration": 0.3677421500000264
                },
                {
                    "name": "F#5",
                    "midi": 78,
                    "time": 265.16144500000206,
                    "velocity": 0.3858267716535433,
                    "duration": 0.3677421500000264
                },
                {
                    "name": "F#4",
                    "midi": 66,
                    "time": 265.5485420000021,
                    "velocity": 0.28346456692913385,
                    "duration": 0.3677421500000264
                },
                {
                    "name": "F#5",
                    "midi": 78,
                    "time": 265.5485420000021,
                    "velocity": 0.33858267716535434,
                    "duration": 0.3677421500000264
                },
                {
                    "name": "A#4",
                    "midi": 70,
                    "time": 265.5485420000021,
                    "velocity": 0.28346456692913385,
                    "duration": 0.3677421500000264
                },
                {
                    "name": "A4",
                    "midi": 69,
                    "time": 265.93563900000214,
                    "velocity": 0.25196850393700787,
                    "duration": 0.37580667083335584
                },
                {
                    "name": "F#4",
                    "midi": 66,
                    "time": 265.93563900000214,
                    "velocity": 0.25196850393700787,
                    "duration": 0.37580667083335584
                },
                {
                    "name": "F#5",
                    "midi": 78,
                    "time": 265.93563900000214,
                    "velocity": 0.30708661417322836,
                    "duration": 0.37580667083335584
                },
                {
                    "name": "A4",
                    "midi": 69,
                    "time": 266.3227360000022,
                    "velocity": 0.2440944881889764,
                    "duration": 0.37580667083335584
                },
                {
                    "name": "G4",
                    "midi": 67,
                    "time": 266.3227360000022,
                    "velocity": 0.2440944881889764,
                    "duration": 0.37580667083335584
                },
                {
                    "name": "G5",
                    "midi": 79,
                    "time": 266.3227360000022,
                    "velocity": 0.28346456692913385,
                    "duration": 0.37580667083335584
                },
                {
                    "name": "A5",
                    "midi": 81,
                    "time": 266.7098330000022,
                    "velocity": 0.2992125984251969,
                    "duration": 0.37580667083335584
                },
                {
                    "name": "A4",
                    "midi": 69,
                    "time": 266.7098330000022,
                    "velocity": 0.25196850393700787,
                    "duration": 0.37580667083335584
                },
                {
                    "name": "D4",
                    "midi": 62,
                    "time": 267.09693000000226,
                    "velocity": 0.28346456692913385,
                    "duration": 0.37580667083335584
                },
                {
                    "name": "F#4",
                    "midi": 66,
                    "time": 267.09693000000226,
                    "velocity": 0.28346456692913385,
                    "duration": 0.37580667083335584
                },
                {
                    "name": "D5",
                    "midi": 74,
                    "time": 267.09693000000226,
                    "velocity": 0.33858267716535434,
                    "duration": 0.37580667083335584
                },
                {
                    "name": "E4",
                    "midi": 64,
                    "time": 267.4840270000023,
                    "velocity": 0.23622047244094488,
                    "duration": 0.37580667083335584
                },
                {
                    "name": "E5",
                    "midi": 76,
                    "time": 267.4840270000023,
                    "velocity": 0.28346456692913385,
                    "duration": 0.37580667083335584
                },
                {
                    "name": "G4",
                    "midi": 67,
                    "time": 267.4840270000023,
                    "velocity": 0.23622047244094488,
                    "duration": 0.37580667083335584
                },
                {
                    "name": "C#5",
                    "midi": 73,
                    "time": 267.4840270000023,
                    "velocity": 0.23622047244094488,
                    "duration": 0.37580667083335584
                },
                {
                    "name": "F#4",
                    "midi": 66,
                    "time": 267.87112400000234,
                    "velocity": 0.23622047244094488,
                    "duration": 0.37580667083335584
                },
                {
                    "name": "F#5",
                    "midi": 78,
                    "time": 267.87112400000234,
                    "velocity": 0.28346456692913385,
                    "duration": 0.37580667083335584
                },
                {
                    "name": "A4",
                    "midi": 69,
                    "time": 267.87112400000234,
                    "velocity": 0.23622047244094488,
                    "duration": 0.37580667083335584
                },
                {
                    "name": "D5",
                    "midi": 74,
                    "time": 267.87112400000234,
                    "velocity": 0.23622047244094488,
                    "duration": 0.37580667083335584
                },
                {
                    "name": "A4",
                    "midi": 69,
                    "time": 268.2582210000024,
                    "velocity": 0.2677165354330709,
                    "duration": 0.7669359312499751
                },
                {
                    "name": "C#5",
                    "midi": 73,
                    "time": 268.2582210000024,
                    "velocity": 0.2677165354330709,
                    "duration": 0.7669359312499751
                },
                {
                    "name": "G4",
                    "midi": 67,
                    "time": 268.2582210000024,
                    "velocity": 0.2677165354330709,
                    "duration": 0.7669359312499751
                },
                {
                    "name": "E5",
                    "midi": 76,
                    "time": 268.2582210000024,
                    "velocity": 0.3228346456692913,
                    "duration": 0.7669359312499751
                },
                {
                    "name": "A4",
                    "midi": 69,
                    "time": 269.03241500000235,
                    "velocity": 0.25196850393700787,
                    "duration": 0.37580667083335584
                },
                {
                    "name": "D5",
                    "midi": 74,
                    "time": 269.03241500000235,
                    "velocity": 0.2992125984251969,
                    "duration": 0.37580667083335584
                },
                {
                    "name": "F#4",
                    "midi": 66,
                    "time": 269.03241500000235,
                    "velocity": 0.25196850393700787,
                    "duration": 0.37580667083335584
                },
                {
                    "name": "A4",
                    "midi": 69,
                    "time": 269.4195120000024,
                    "velocity": 0.28346456692913385,
                    "duration": 0.37580667083335584
                },
                {
                    "name": "D5",
                    "midi": 74,
                    "time": 269.4195120000024,
                    "velocity": 0.33858267716535434,
                    "duration": 0.37580667083335584
                },
                {
                    "name": "F#4",
                    "midi": 66,
                    "time": 269.4195120000024,
                    "velocity": 0.28346456692913385,
                    "duration": 0.37580667083335584
                },
                {
                    "name": "D5",
                    "midi": 74,
                    "time": 269.8066090000024,
                    "velocity": 0.3464566929133858,
                    "duration": 0.3677421500000264
                },
                {
                    "name": "D5",
                    "midi": 74,
                    "time": 270.19370600000246,
                    "velocity": 0.36220472440944884,
                    "duration": 0.3677421500000264
                },
                {
                    "name": "E4",
                    "midi": 64,
                    "time": 270.5808030000025,
                    "velocity": 0.3779527559055118,
                    "duration": 0.7661294791666933
                },
                {
                    "name": "G4",
                    "midi": 67,
                    "time": 270.5808030000025,
                    "velocity": 0.3779527559055118,
                    "duration": 0.7661294791666933
                },
                {
                    "name": "E5",
                    "midi": 76,
                    "time": 270.5808030000025,
                    "velocity": 0.44881889763779526,
                    "duration": 0.7669359312500319
                },
                {
                    "name": "C5",
                    "midi": 72,
                    "time": 270.5808030000025,
                    "velocity": 0.3779527559055118,
                    "duration": 0.7669359312500319
                },
                {
                    "name": "G4",
                    "midi": 67,
                    "time": 271.3549970000025,
                    "velocity": 0.29133858267716534,
                    "duration": 0.3677421500000264
                },
                {
                    "name": "E5",
                    "midi": 76,
                    "time": 271.3549970000025,
                    "velocity": 0.3464566929133858,
                    "duration": 0.3677421500000264
                },
                {
                    "name": "E4",
                    "midi": 64,
                    "time": 271.3549970000025,
                    "velocity": 0.29133858267716534,
                    "duration": 0.3677421500000264
                },
                {
                    "name": "C5",
                    "midi": 72,
                    "time": 271.3549970000025,
                    "velocity": 0.29133858267716534,
                    "duration": 0.3677421500000264
                },
                {
                    "name": "E4",
                    "midi": 64,
                    "time": 271.74209400000257,
                    "velocity": 0.29133858267716534,
                    "duration": 0.3677421500000264
                },
                {
                    "name": "C5",
                    "midi": 72,
                    "time": 271.74209400000257,
                    "velocity": 0.29133858267716534,
                    "duration": 0.3677421500000264
                },
                {
                    "name": "E5",
                    "midi": 76,
                    "time": 271.74209400000257,
                    "velocity": 0.3464566929133858,
                    "duration": 0.3677421500000264
                },
                {
                    "name": "G4",
                    "midi": 67,
                    "time": 271.74209400000257,
                    "velocity": 0.29133858267716534,
                    "duration": 0.3677421500000264
                },
                {
                    "name": "E5",
                    "midi": 76,
                    "time": 272.1291910000026,
                    "velocity": 0.33070866141732286,
                    "duration": 0.3677421500000264
                },
                {
                    "name": "G4",
                    "midi": 67,
                    "time": 272.1291910000026,
                    "velocity": 0.2755905511811024,
                    "duration": 0.3677421500000264
                },
                {
                    "name": "C5",
                    "midi": 72,
                    "time": 272.1291910000026,
                    "velocity": 0.2755905511811024,
                    "duration": 0.3677421500000264
                },
                {
                    "name": "E4",
                    "midi": 64,
                    "time": 272.1291910000026,
                    "velocity": 0.2755905511811024,
                    "duration": 0.3677421500000264
                },
                {
                    "name": "E4",
                    "midi": 64,
                    "time": 272.51628800000265,
                    "velocity": 0.2755905511811024,
                    "duration": 0.3677421500000264
                },
                {
                    "name": "C5",
                    "midi": 72,
                    "time": 272.51628800000265,
                    "velocity": 0.2755905511811024,
                    "duration": 0.3677421500000264
                },
                {
                    "name": "E5",
                    "midi": 76,
                    "time": 272.51628800000265,
                    "velocity": 0.33070866141732286,
                    "duration": 0.3677421500000264
                },
                {
                    "name": "G4",
                    "midi": 67,
                    "time": 272.51628800000265,
                    "velocity": 0.2755905511811024,
                    "duration": 0.3677421500000264
                },
                {
                    "name": "E5",
                    "midi": 76,
                    "time": 272.9033850000027,
                    "velocity": 0.3464566929133858,
                    "duration": 0.3677421500000264
                },
                {
                    "name": "E4",
                    "midi": 64,
                    "time": 272.9033850000027,
                    "velocity": 0.29133858267716534,
                    "duration": 0.3677421500000264
                },
                {
                    "name": "G4",
                    "midi": 67,
                    "time": 272.9033850000027,
                    "velocity": 0.29133858267716534,
                    "duration": 0.3677421500000264
                },
                {
                    "name": "D4",
                    "midi": 62,
                    "time": 273.2904820000027,
                    "velocity": 0.31496062992125984,
                    "duration": 0.37580667083335584
                },
                {
                    "name": "D5",
                    "midi": 74,
                    "time": 273.2904820000027,
                    "velocity": 0.3779527559055118,
                    "duration": 0.37580667083335584
                },
                {
                    "name": "G4",
                    "midi": 67,
                    "time": 273.2904820000027,
                    "velocity": 0.31496062992125984,
                    "duration": 0.37580667083335584
                },
                {
                    "name": "C4",
                    "midi": 60,
                    "time": 273.67757900000277,
                    "velocity": 0.29133858267716534,
                    "duration": 0.3677421500000264
                },
                {
                    "name": "C5",
                    "midi": 72,
                    "time": 273.67757900000277,
                    "velocity": 0.3464566929133858,
                    "duration": 0.3677421500000264
                },
                {
                    "name": "G4",
                    "midi": 67,
                    "time": 273.67757900000277,
                    "velocity": 0.29133858267716534,
                    "duration": 0.3677421500000264
                },
                {
                    "name": "G4",
                    "midi": 67,
                    "time": 274.0646760000028,
                    "velocity": 0.29133858267716534,
                    "duration": 0.3677421500000264
                },
                {
                    "name": "C4",
                    "midi": 60,
                    "time": 274.0646760000028,
                    "velocity": 0.29133858267716534,
                    "duration": 0.3677421500000264
                },
                {
                    "name": "C5",
                    "midi": 72,
                    "time": 274.0646760000028,
                    "velocity": 0.3464566929133858,
                    "duration": 0.3677421500000264
                },
                {
                    "name": "D4",
                    "midi": 62,
                    "time": 274.45177300000285,
                    "velocity": 0.31496062992125984,
                    "duration": 0.3677421500000264
                },
                {
                    "name": "G4",
                    "midi": 67,
                    "time": 274.45177300000285,
                    "velocity": 0.31496062992125984,
                    "duration": 0.3677421500000264
                },
                {
                    "name": "D5",
                    "midi": 74,
                    "time": 274.45177300000285,
                    "velocity": 0.3779527559055118,
                    "duration": 0.3677421500000264
                },
                {
                    "name": "G4",
                    "midi": 67,
                    "time": 274.8388700000029,
                    "velocity": 0.36220472440944884,
                    "duration": 0.3677421500000264
                },
                {
                    "name": "E5",
                    "midi": 76,
                    "time": 274.8388700000029,
                    "velocity": 0.4251968503937008,
                    "duration": 0.3677421500000264
                },
                {
                    "name": "E4",
                    "midi": 64,
                    "time": 274.8388700000029,
                    "velocity": 0.36220472440944884,
                    "duration": 0.3677421500000264
                },
                {
                    "name": "A#4",
                    "midi": 70,
                    "time": 275.2259670000029,
                    "velocity": 0.4409448818897638,
                    "duration": 0.7661294791666933
                },
                {
                    "name": "G5",
                    "midi": 79,
                    "time": 275.2259670000029,
                    "velocity": 0.5275590551181102,
                    "duration": 0.7669359312500319
                },
                {
                    "name": "G4",
                    "midi": 67,
                    "time": 275.2259670000029,
                    "velocity": 0.4409448818897638,
                    "duration": 0.7661294791666933
                },
                {
                    "name": "G5",
                    "midi": 79,
                    "time": 276.00016100000295,
                    "velocity": 0.47244094488188976,
                    "duration": 0.3677421500000264
                },
                {
                    "name": "G4",
                    "midi": 67,
                    "time": 276.00016100000295,
                    "velocity": 0.3937007874015748,
                    "duration": 0.3677421500000264
                },
                {
                    "name": "A#4",
                    "midi": 70,
                    "time": 276.00016100000295,
                    "velocity": 0.3937007874015748,
                    "duration": 0.3677421500000264
                },
                {
                    "name": "A#4",
                    "midi": 70,
                    "time": 276.387258000003,
                    "velocity": 0.3937007874015748,
                    "duration": 0.3677421500000264
                },
                {
                    "name": "G5",
                    "midi": 79,
                    "time": 276.387258000003,
                    "velocity": 0.47244094488188976,
                    "duration": 0.3677421500000264
                },
                {
                    "name": "G4",
                    "midi": 67,
                    "time": 276.387258000003,
                    "velocity": 0.3937007874015748,
                    "duration": 0.3677421500000264
                },
                {
                    "name": "G4",
                    "midi": 67,
                    "time": 276.774355000003,
                    "velocity": 0.3700787401574803,
                    "duration": 0.3677421500000264
                },
                {
                    "name": "A#4",
                    "midi": 70,
                    "time": 276.774355000003,
                    "velocity": 0.3700787401574803,
                    "duration": 0.3677421500000264
                },
                {
                    "name": "G5",
                    "midi": 79,
                    "time": 276.774355000003,
                    "velocity": 0.44881889763779526,
                    "duration": 0.3677421500000264
                },
                {
                    "name": "G4",
                    "midi": 67,
                    "time": 277.16145200000307,
                    "velocity": 0.3700787401574803,
                    "duration": 0.3677421500000264
                },
                {
                    "name": "A#4",
                    "midi": 70,
                    "time": 277.16145200000307,
                    "velocity": 0.3700787401574803,
                    "duration": 0.3677421500000264
                },
                {
                    "name": "G5",
                    "midi": 79,
                    "time": 277.16145200000307,
                    "velocity": 0.44881889763779526,
                    "duration": 0.3677421500000264
                },
                {
                    "name": "G4",
                    "midi": 67,
                    "time": 277.5485490000031,
                    "velocity": 0.3937007874015748,
                    "duration": 0.3677421500000264
                },
                {
                    "name": "A#4",
                    "midi": 70,
                    "time": 277.5485490000031,
                    "velocity": 0.3937007874015748,
                    "duration": 0.3677421500000264
                },
                {
                    "name": "G5",
                    "midi": 79,
                    "time": 277.5485490000031,
                    "velocity": 0.47244094488188976,
                    "duration": 0.3677421500000264
                },
                {
                    "name": "F4",
                    "midi": 65,
                    "time": 277.93564600000315,
                    "velocity": 0.4330708661417323,
                    "duration": 0.3750002187500172
                },
                {
                    "name": "A#4",
                    "midi": 70,
                    "time": 277.93564600000315,
                    "velocity": 0.4330708661417323,
                    "duration": 0.3750002187500172
                },
                {
                    "name": "F5",
                    "midi": 77,
                    "time": 277.93564600000315,
                    "velocity": 0.5196850393700787,
                    "duration": 0.3750002187500172
                },
                {
                    "name": "D#4",
                    "midi": 63,
                    "time": 278.3227430000032,
                    "velocity": 0.3937007874015748,
                    "duration": 0.3677421500000264
                },
                {
                    "name": "A#4",
                    "midi": 70,
                    "time": 278.3227430000032,
                    "velocity": 0.3937007874015748,
                    "duration": 0.3677421500000264
                },
                {
                    "name": "D#5",
                    "midi": 75,
                    "time": 278.3227430000032,
                    "velocity": 0.47244094488188976,
                    "duration": 0.3677421500000264
                },
                {
                    "name": "D#4",
                    "midi": 63,
                    "time": 278.7098400000032,
                    "velocity": 0.3937007874015748,
                    "duration": 0.3677421500000264
                },
                {
                    "name": "A#4",
                    "midi": 70,
                    "time": 278.7098400000032,
                    "velocity": 0.3937007874015748,
                    "duration": 0.3677421500000264
                },
                {
                    "name": "D#5",
                    "midi": 75,
                    "time": 278.7098400000032,
                    "velocity": 0.47244094488188976,
                    "duration": 0.3677421500000264
                },
                {
                    "name": "F4",
                    "midi": 65,
                    "time": 279.09693700000327,
                    "velocity": 0.4330708661417323,
                    "duration": 0.3677421500000264
                },
                {
                    "name": "A#4",
                    "midi": 70,
                    "time": 279.09693700000327,
                    "velocity": 0.4330708661417323,
                    "duration": 0.3677421500000264
                },
                {
                    "name": "F5",
                    "midi": 77,
                    "time": 279.09693700000327,
                    "velocity": 0.5196850393700787,
                    "duration": 0.3677421500000264
                },
                {
                    "name": "G4",
                    "midi": 67,
                    "time": 279.4840340000033,
                    "velocity": 0.4645669291338583,
                    "duration": 0.3677421500000264
                },
                {
                    "name": "A#4",
                    "midi": 70,
                    "time": 279.4840340000033,
                    "velocity": 0.4645669291338583,
                    "duration": 0.3677421500000264
                },
                {
                    "name": "G5",
                    "midi": 79,
                    "time": 279.4840340000033,
                    "velocity": 0.5590551181102362,
                    "duration": 0.3677421500000264
                },
                {
                    "name": "C#5",
                    "midi": 73,
                    "time": 279.87113100000334,
                    "velocity": 0.49606299212598426,
                    "duration": 0.7661294791666933
                },
                {
                    "name": "A#4",
                    "midi": 70,
                    "time": 279.87113100000334,
                    "velocity": 0.49606299212598426,
                    "duration": 0.7661294791666933
                },
                {
                    "name": "A#5",
                    "midi": 82,
                    "time": 279.87113100000334,
                    "velocity": 0.5984251968503937,
                    "duration": 0.7661294791666933
                },
                {
                    "name": "C#5",
                    "midi": 73,
                    "time": 280.64532500000337,
                    "velocity": 0.44881889763779526,
                    "duration": 0.3677421500000264
                },
                {
                    "name": "A#4",
                    "midi": 70,
                    "time": 280.64532500000337,
                    "velocity": 0.44881889763779526,
                    "duration": 0.3677421500000264
                },
                {
                    "name": "A#5",
                    "midi": 82,
                    "time": 280.64532500000337,
                    "velocity": 0.5354330708661418,
                    "duration": 0.3677421500000264
                },
                {
                    "name": "C#5",
                    "midi": 73,
                    "time": 281.0324220000034,
                    "velocity": 0.44881889763779526,
                    "duration": 0.3677421500000264
                },
                {
                    "name": "A#4",
                    "midi": 70,
                    "time": 281.0324220000034,
                    "velocity": 0.44881889763779526,
                    "duration": 0.3677421500000264
                },
                {
                    "name": "A#5",
                    "midi": 82,
                    "time": 281.0324220000034,
                    "velocity": 0.5354330708661418,
                    "duration": 0.3677421500000264
                },
                {
                    "name": "A#4",
                    "midi": 70,
                    "time": 281.41951900000345,
                    "velocity": 0.41732283464566927,
                    "duration": 0.3677421500000264
                },
                {
                    "name": "C#5",
                    "midi": 73,
                    "time": 281.41951900000345,
                    "velocity": 0.41732283464566927,
                    "duration": 0.3677421500000264
                },
                {
                    "name": "A#5",
                    "midi": 82,
                    "time": 281.41951900000345,
                    "velocity": 0.5118110236220472,
                    "duration": 0.3677421500000264
                },
                {
                    "name": "C#5",
                    "midi": 73,
                    "time": 281.8066160000035,
                    "velocity": 0.41732283464566927,
                    "duration": 0.3677421500000264
                },
                {
                    "name": "A#4",
                    "midi": 70,
                    "time": 281.8066160000035,
                    "velocity": 0.41732283464566927,
                    "duration": 0.3677421500000264
                },
                {
                    "name": "A#5",
                    "midi": 82,
                    "time": 281.8066160000035,
                    "velocity": 0.5118110236220472,
                    "duration": 0.3677421500000264
                },
                {
                    "name": "C#5",
                    "midi": 73,
                    "time": 282.1937130000035,
                    "velocity": 0.44881889763779526,
                    "duration": 0.3677421500000264
                },
                {
                    "name": "A#4",
                    "midi": 70,
                    "time": 282.1937130000035,
                    "velocity": 0.44881889763779526,
                    "duration": 0.3677421500000264
                },
                {
                    "name": "A#5",
                    "midi": 82,
                    "time": 282.1937130000035,
                    "velocity": 0.5354330708661418,
                    "duration": 0.3677421500000264
                },
                {
                    "name": "G#4",
                    "midi": 68,
                    "time": 282.58081000000357,
                    "velocity": 0.4409448818897638,
                    "duration": 0.3750002187500172
                },
                {
                    "name": "C#5",
                    "midi": 73,
                    "time": 282.58081000000357,
                    "velocity": 0.4409448818897638,
                    "duration": 0.3750002187500172
                },
                {
                    "name": "G#5",
                    "midi": 80,
                    "time": 282.58081000000357,
                    "velocity": 0.5275590551181102,
                    "duration": 0.3750002187500172
                },
                {
                    "name": "F#4",
                    "midi": 66,
                    "time": 282.9679070000036,
                    "velocity": 0.44881889763779526,
                    "duration": 0.3677421500000264
                },
                {
                    "name": "C#5",
                    "midi": 73,
                    "time": 282.9679070000036,
                    "velocity": 0.44881889763779526,
                    "duration": 0.3677421500000264
                },
                {
                    "name": "F#5",
                    "midi": 78,
                    "time": 282.9679070000036,
                    "velocity": 0.5354330708661418,
                    "duration": 0.3677421500000264
                },
                {
                    "name": "A#4",
                    "midi": 70,
                    "time": 283.35500400000365,
                    "velocity": 0.44881889763779526,
                    "duration": 0.3677421500000264
                },
                {
                    "name": "F#5",
                    "midi": 78,
                    "time": 283.35500400000365,
                    "velocity": 0.44881889763779526,
                    "duration": 0.3677421500000264
                },
                {
                    "name": "A#5",
                    "midi": 82,
                    "time": 283.35500400000365,
                    "velocity": 0.5354330708661418,
                    "duration": 0.3677421500000264
                },
                {
                    "name": "B4",
                    "midi": 71,
                    "time": 283.7421010000037,
                    "velocity": 0.5118110236220472,
                    "duration": 0.3677421500000264
                },
                {
                    "name": "F#5",
                    "midi": 78,
                    "time": 283.7421010000037,
                    "velocity": 0.5118110236220472,
                    "duration": 0.3677421500000264
                },
                {
                    "name": "B5",
                    "midi": 83,
                    "time": 283.7421010000037,
                    "velocity": 0.6141732283464567,
                    "duration": 0.3677421500000264
                },
                {
                    "name": "C#5",
                    "midi": 73,
                    "time": 284.1291980000037,
                    "velocity": 0.5748031496062992,
                    "duration": 0.3677421500000264
                },
                {
                    "name": "F#5",
                    "midi": 78,
                    "time": 284.1291980000037,
                    "velocity": 0.5748031496062992,
                    "duration": 0.3677421500000264
                },
                {
                    "name": "C#6",
                    "midi": 85,
                    "time": 284.1291980000037,
                    "velocity": 0.7007874015748031,
                    "duration": 0.3677421500000264
                },
                {
                    "name": "F#5",
                    "midi": 78,
                    "time": 284.51629500000377,
                    "velocity": 0.6456692913385826,
                    "duration": 0.7661294791666933
                },
                {
                    "name": "D5",
                    "midi": 74,
                    "time": 284.51629500000377,
                    "velocity": 0.6456692913385826,
                    "duration": 0.7661294791666933
                },
                {
                    "name": "D6",
                    "midi": 86,
                    "time": 284.51629500000377,
                    "velocity": 0.7874015748031497,
                    "duration": 0.7661294791666933
                },
                {
                    "name": "F#5",
                    "midi": 78,
                    "time": 285.2904890000038,
                    "velocity": 0.5826771653543307,
                    "duration": 0.3677421500000264
                },
                {
                    "name": "D5",
                    "midi": 74,
                    "time": 285.2904890000038,
                    "velocity": 0.5826771653543307,
                    "duration": 0.3677421500000264
                },
                {
                    "name": "D6",
                    "midi": 86,
                    "time": 285.2904890000038,
                    "velocity": 0.7007874015748031,
                    "duration": 0.3677421500000264
                },
                {
                    "name": "F#5",
                    "midi": 78,
                    "time": 285.6775860000038,
                    "velocity": 0.5826771653543307,
                    "duration": 0.3677421500000264
                },
                {
                    "name": "D5",
                    "midi": 74,
                    "time": 285.6775860000038,
                    "velocity": 0.5826771653543307,
                    "duration": 0.3677421500000264
                },
                {
                    "name": "D6",
                    "midi": 86,
                    "time": 285.6775860000038,
                    "velocity": 0.7007874015748031,
                    "duration": 0.3677421500000264
                },
                {
                    "name": "F#5",
                    "midi": 78,
                    "time": 286.06468300000387,
                    "velocity": 0.5433070866141733,
                    "duration": 0.3677421500000264
                },
                {
                    "name": "D5",
                    "midi": 74,
                    "time": 286.06468300000387,
                    "velocity": 0.5433070866141733,
                    "duration": 0.3677421500000264
                },
                {
                    "name": "D6",
                    "midi": 86,
                    "time": 286.06468300000387,
                    "velocity": 0.6692913385826772,
                    "duration": 0.3677421500000264
                },
                {
                    "name": "D5",
                    "midi": 74,
                    "time": 286.4517800000039,
                    "velocity": 0.5433070866141733,
                    "duration": 0.3677421500000264
                },
                {
                    "name": "F#5",
                    "midi": 78,
                    "time": 286.4517800000039,
                    "velocity": 0.5433070866141733,
                    "duration": 0.3677421500000264
                },
                {
                    "name": "D6",
                    "midi": 86,
                    "time": 286.4517800000039,
                    "velocity": 0.6692913385826772,
                    "duration": 0.3677421500000264
                },
                {
                    "name": "D6",
                    "midi": 86,
                    "time": 286.83887700000395,
                    "velocity": 0.6456692913385826,
                    "duration": 0.7661294791666933
                },
                {
                    "name": "F5",
                    "midi": 77,
                    "time": 286.83887700000395,
                    "velocity": 0.6456692913385826,
                    "duration": 0.7661294791666933
                },
                {
                    "name": "G5",
                    "midi": 79,
                    "time": 286.83887700000395,
                    "velocity": 0.6456692913385826,
                    "duration": 0.7661294791666933
                },
                {
                    "name": "B5",
                    "midi": 83,
                    "time": 286.83887700000395,
                    "velocity": 0.6456692913385826,
                    "duration": 0.7661294791666933
                },
                {
                    "name": "G6",
                    "midi": 91,
                    "time": 286.83887700000395,
                    "velocity": 0.7874015748031497,
                    "duration": 0.7661294791666933
                },
                {
                    "name": "G6",
                    "midi": 91,
                    "time": 287.61307100000397,
                    "velocity": 0.7007874015748031,
                    "duration": 0.3677421500000264
                },
                {
                    "name": "F5",
                    "midi": 77,
                    "time": 287.61307100000397,
                    "velocity": 0.5826771653543307,
                    "duration": 0.3677421500000264
                },
                {
                    "name": "G5",
                    "midi": 79,
                    "time": 287.61307100000397,
                    "velocity": 0.5826771653543307,
                    "duration": 0.3677421500000264
                },
                {
                    "name": "D6",
                    "midi": 86,
                    "time": 287.61307100000397,
                    "velocity": 0.5826771653543307,
                    "duration": 0.3677421500000264
                },
                {
                    "name": "B5",
                    "midi": 83,
                    "time": 287.61307100000397,
                    "velocity": 0.5826771653543307,
                    "duration": 0.3677421500000264
                },
                {
                    "name": "D6",
                    "midi": 86,
                    "time": 288.000168000004,
                    "velocity": 0.5826771653543307,
                    "duration": 0.3677421500000264
                },
                {
                    "name": "F5",
                    "midi": 77,
                    "time": 288.000168000004,
                    "velocity": 0.5826771653543307,
                    "duration": 0.3677421500000264
                },
                {
                    "name": "G5",
                    "midi": 79,
                    "time": 288.000168000004,
                    "velocity": 0.5826771653543307,
                    "duration": 0.3677421500000264
                },
                {
                    "name": "B5",
                    "midi": 83,
                    "time": 288.000168000004,
                    "velocity": 0.5826771653543307,
                    "duration": 0.3677421500000264
                },
                {
                    "name": "G6",
                    "midi": 91,
                    "time": 288.000168000004,
                    "velocity": 0.7007874015748031,
                    "duration": 0.3677421500000264
                },
                {
                    "name": "B5",
                    "midi": 83,
                    "time": 288.38726500000405,
                    "velocity": 0.5039370078740157,
                    "duration": 0.3677421500000264
                },
                {
                    "name": "F5",
                    "midi": 77,
                    "time": 288.38726500000405,
                    "velocity": 0.5039370078740157,
                    "duration": 0.3677421500000264
                },
                {
                    "name": "G5",
                    "midi": 79,
                    "time": 288.38726500000405,
                    "velocity": 0.5039370078740157,
                    "duration": 0.3677421500000264
                },
                {
                    "name": "D6",
                    "midi": 86,
                    "time": 288.38726500000405,
                    "velocity": 0.5039370078740157,
                    "duration": 0.3677421500000264
                },
                {
                    "name": "G6",
                    "midi": 91,
                    "time": 288.38726500000405,
                    "velocity": 0.6220472440944882,
                    "duration": 0.3677421500000264
                },
                {
                    "name": "G6",
                    "midi": 91,
                    "time": 288.7743620000041,
                    "velocity": 0.5748031496062992,
                    "duration": 0.3677421500000264
                },
                {
                    "name": "F5",
                    "midi": 77,
                    "time": 288.7743620000041,
                    "velocity": 0.47244094488188976,
                    "duration": 0.3677421500000264
                },
                {
                    "name": "G5",
                    "midi": 79,
                    "time": 288.7743620000041,
                    "velocity": 0.47244094488188976,
                    "duration": 0.3677421500000264
                },
                {
                    "name": "D6",
                    "midi": 86,
                    "time": 288.7743620000041,
                    "velocity": 0.47244094488188976,
                    "duration": 0.3677421500000264
                },
                {
                    "name": "B5",
                    "midi": 83,
                    "time": 288.7743620000041,
                    "velocity": 0.47244094488188976,
                    "duration": 0.3677421500000264
                },
                {
                    "name": "C6",
                    "midi": 84,
                    "time": 289.16145900000413,
                    "velocity": 0.4566929133858268,
                    "duration": 0.7508068895833162
                },
                {
                    "name": "E5",
                    "midi": 76,
                    "time": 289.16145900000413,
                    "velocity": 0.4566929133858268,
                    "duration": 0.7508068895833162
                },
                {
                    "name": "G5",
                    "midi": 79,
                    "time": 289.16145900000413,
                    "velocity": 0.4566929133858268,
                    "duration": 0.7508068895833162
                },
                {
                    "name": "E6",
                    "midi": 88,
                    "time": 289.16145900000413,
                    "velocity": 0.5433070866141733,
                    "duration": 0.7508068895833162
                },
                {
                    "name": "E5",
                    "midi": 76,
                    "time": 289.9356530000041,
                    "velocity": 0.2992125984251969,
                    "duration": 0.3677421500000264
                },
                {
                    "name": "E4",
                    "midi": 64,
                    "time": 289.9356530000041,
                    "velocity": 0.25196850393700787,
                    "duration": 0.3677421500000264
                },
                {
                    "name": "C5",
                    "midi": 72,
                    "time": 289.9356530000041,
                    "velocity": 0.25196850393700787,
                    "duration": 0.3677421500000264
                },
                {
                    "name": "E5",
                    "midi": 76,
                    "time": 290.32275000000413,
                    "velocity": 0.33858267716535434,
                    "duration": 0.3677421500000264
                },
                {
                    "name": "E4",
                    "midi": 64,
                    "time": 290.32275000000413,
                    "velocity": 0.28346456692913385,
                    "duration": 0.3677421500000264
                },
                {
                    "name": "C5",
                    "midi": 72,
                    "time": 290.32275000000413,
                    "velocity": 0.28346456692913385,
                    "duration": 0.3677421500000264
                },
                {
                    "name": "E5",
                    "midi": 76,
                    "time": 290.7098470000042,
                    "velocity": 0.2992125984251969,
                    "duration": 0.3677421500000264
                },
                {
                    "name": "E4",
                    "midi": 64,
                    "time": 290.7098470000042,
                    "velocity": 0.25196850393700787,
                    "duration": 0.3677421500000264
                },
                {
                    "name": "C5",
                    "midi": 72,
                    "time": 290.7098470000042,
                    "velocity": 0.25196850393700787,
                    "duration": 0.3677421500000264
                },
                {
                    "name": "E4",
                    "midi": 64,
                    "time": 291.0969440000042,
                    "velocity": 0.25196850393700787,
                    "duration": 0.3677421500000264
                },
                {
                    "name": "C5",
                    "midi": 72,
                    "time": 291.0969440000042,
                    "velocity": 0.25196850393700787,
                    "duration": 0.3677421500000264
                },
                {
                    "name": "E5",
                    "midi": 76,
                    "time": 291.0969440000042,
                    "velocity": 0.2992125984251969,
                    "duration": 0.3677421500000264
                },
                {
                    "name": "E4",
                    "midi": 64,
                    "time": 291.48404100000425,
                    "velocity": 0.28346456692913385,
                    "duration": 1.1612910000000056
                },
                {
                    "name": "C5",
                    "midi": 72,
                    "time": 291.48404100000425,
                    "velocity": 0.28346456692913385,
                    "duration": 0.7508068895833162
                },
                {
                    "name": "E5",
                    "midi": 76,
                    "time": 291.48404100000425,
                    "velocity": 0.33858267716535434,
                    "duration": 0.7508068895833162
                },
                {
                    "name": "D5",
                    "midi": 74,
                    "time": 292.2582350000042,
                    "velocity": 0.2992125984251969,
                    "duration": 0.3677421500000264
                },
                {
                    "name": "B4",
                    "midi": 71,
                    "time": 292.2582350000042,
                    "velocity": 0.25196850393700787,
                    "duration": 0.3677421500000264
                },
                {
                    "name": "E4",
                    "midi": 64,
                    "time": 292.64533200000426,
                    "velocity": 0.29133858267716534,
                    "duration": 1.1612910000000056
                },
                {
                    "name": "B4",
                    "midi": 71,
                    "time": 292.64533200000426,
                    "velocity": 0.29133858267716534,
                    "duration": 0.7508068895833162
                },
                {
                    "name": "D5",
                    "midi": 74,
                    "time": 292.64533200000426,
                    "velocity": 0.3464566929133858,
                    "duration": 0.7508068895833162
                },
                {
                    "name": "A4",
                    "midi": 69,
                    "time": 293.4195260000042,
                    "velocity": 0.2440944881889764,
                    "duration": 0.3677421500000264
                },
                {
                    "name": "C5",
                    "midi": 72,
                    "time": 293.4195260000042,
                    "velocity": 0.28346456692913385,
                    "duration": 0.3677421500000264
                },
                {
                    "name": "E4",
                    "midi": 64,
                    "time": 293.80662300000427,
                    "velocity": 0.2755905511811024,
                    "duration": 0.7508068895833162
                },
                {
                    "name": "A4",
                    "midi": 69,
                    "time": 293.80662300000427,
                    "velocity": 0.2755905511811024,
                    "duration": 0.7508068895833162
                },
                {
                    "name": "C5",
                    "midi": 72,
                    "time": 293.80662300000427,
                    "velocity": 0.3228346456692913,
                    "duration": 0.7508068895833162
                },
                {
                    "name": "G4",
                    "midi": 67,
                    "time": 294.58081700000423,
                    "velocity": 0.2125984251968504,
                    "duration": 0.3677421500000264
                },
                {
                    "name": "B4",
                    "midi": 71,
                    "time": 294.58081700000423,
                    "velocity": 0.25196850393700787,
                    "duration": 0.3677421500000264
                },
                {
                    "name": "G4",
                    "midi": 67,
                    "time": 294.96791400000427,
                    "velocity": 0.25196850393700787,
                    "duration": 0.7508068895833162
                },
                {
                    "name": "B4",
                    "midi": 71,
                    "time": 294.96791400000427,
                    "velocity": 0.2992125984251969,
                    "duration": 0.7508068895833162
                },
                {
                    "name": "D4",
                    "midi": 62,
                    "time": 295.74210800000424,
                    "velocity": 0.2047244094488189,
                    "duration": 0.3677421500000264
                },
                {
                    "name": "F#4",
                    "midi": 66,
                    "time": 295.74210800000424,
                    "velocity": 0.2047244094488189,
                    "duration": 0.3677421500000264
                },
                {
                    "name": "A4",
                    "midi": 69,
                    "time": 295.74210800000424,
                    "velocity": 0.23622047244094488,
                    "duration": 0.3677421500000264
                },
                {
                    "name": "F#4",
                    "midi": 66,
                    "time": 296.1292050000043,
                    "velocity": 0.2283464566929134,
                    "duration": 0.7508068895833162
                },
                {
                    "name": "D4",
                    "midi": 62,
                    "time": 296.1292050000043,
                    "velocity": 0.2283464566929134,
                    "duration": 0.7508068895833162
                },
                {
                    "name": "A4",
                    "midi": 69,
                    "time": 296.1292050000043,
                    "velocity": 0.2755905511811024,
                    "duration": 0.7508068895833162
                },
                {
                    "name": "D4",
                    "midi": 62,
                    "time": 296.90339900000424,
                    "velocity": 0.1968503937007874,
                    "duration": 0.3677421500000264
                },
                {
                    "name": "F#4",
                    "midi": 66,
                    "time": 296.90339900000424,
                    "velocity": 0.1968503937007874,
                    "duration": 0.3677421500000264
                },
                {
                    "name": "A4",
                    "midi": 69,
                    "time": 296.90339900000424,
                    "velocity": 0.2283464566929134,
                    "duration": 0.3677421500000264
                },
                {
                    "name": "D4",
                    "midi": 62,
                    "time": 297.2904960000043,
                    "velocity": 0.2125984251968504,
                    "duration": 0.3677421500000264
                },
                {
                    "name": "F#4",
                    "midi": 66,
                    "time": 297.2904960000043,
                    "velocity": 0.2125984251968504,
                    "duration": 0.3677421500000264
                },
                {
                    "name": "A4",
                    "midi": 69,
                    "time": 297.2904960000043,
                    "velocity": 0.2440944881889764,
                    "duration": 0.3677421500000264
                },
                {
                    "name": "D4",
                    "midi": 62,
                    "time": 297.6775930000043,
                    "velocity": 0.1968503937007874,
                    "duration": 0.3677421500000264
                },
                {
                    "name": "F#4",
                    "midi": 66,
                    "time": 297.6775930000043,
                    "velocity": 0.1968503937007874,
                    "duration": 0.3677421500000264
                },
                {
                    "name": "A4",
                    "midi": 69,
                    "time": 297.6775930000043,
                    "velocity": 0.2283464566929134,
                    "duration": 0.3677421500000264
                },
                {
                    "name": "D4",
                    "midi": 62,
                    "time": 298.06469000000436,
                    "velocity": 0.1968503937007874,
                    "duration": 0.3677421500000264
                },
                {
                    "name": "F#4",
                    "midi": 66,
                    "time": 298.06469000000436,
                    "velocity": 0.1968503937007874,
                    "duration": 0.3677421500000264
                },
                {
                    "name": "A4",
                    "midi": 69,
                    "time": 298.06469000000436,
                    "velocity": 0.2283464566929134,
                    "duration": 0.3677421500000264
                },
                {
                    "name": "F#4",
                    "midi": 66,
                    "time": 298.4517870000044,
                    "velocity": 0.2283464566929134,
                    "duration": 0.7508068895833162
                },
                {
                    "name": "D4",
                    "midi": 62,
                    "time": 298.4517870000044,
                    "velocity": 0.2283464566929134,
                    "duration": 0.7508068895833162
                },
                {
                    "name": "A4",
                    "midi": 69,
                    "time": 298.4517870000044,
                    "velocity": 0.2755905511811024,
                    "duration": 0.7508068895833162
                },
                {
                    "name": "D4",
                    "midi": 62,
                    "time": 299.22598100000437,
                    "velocity": 0.1968503937007874,
                    "duration": 0.3677421500000264
                },
                {
                    "name": "F#4",
                    "midi": 66,
                    "time": 299.22598100000437,
                    "velocity": 0.1968503937007874,
                    "duration": 0.3677421500000264
                },
                {
                    "name": "A4",
                    "midi": 69,
                    "time": 299.22598100000437,
                    "velocity": 0.2283464566929134,
                    "duration": 0.3677421500000264
                },
                {
                    "name": "D4",
                    "midi": 62,
                    "time": 299.6130780000044,
                    "velocity": 0.2125984251968504,
                    "duration": 0.3677421500000264
                },
                {
                    "name": "F#4",
                    "midi": 66,
                    "time": 299.6130780000044,
                    "velocity": 0.2125984251968504,
                    "duration": 0.3677421500000264
                },
                {
                    "name": "A4",
                    "midi": 69,
                    "time": 299.6130780000044,
                    "velocity": 0.2440944881889764,
                    "duration": 0.3677421500000264
                },
                {
                    "name": "D4",
                    "midi": 62,
                    "time": 300.00017500000445,
                    "velocity": 0.1968503937007874,
                    "duration": 0.3677421500000264
                },
                {
                    "name": "F#4",
                    "midi": 66,
                    "time": 300.00017500000445,
                    "velocity": 0.1968503937007874,
                    "duration": 0.3677421500000264
                },
                {
                    "name": "A4",
                    "midi": 69,
                    "time": 300.00017500000445,
                    "velocity": 0.2283464566929134,
                    "duration": 0.3677421500000264
                },
                {
                    "name": "D4",
                    "midi": 62,
                    "time": 300.3872720000045,
                    "velocity": 0.1968503937007874,
                    "duration": 0.3677421500000264
                },
                {
                    "name": "F#4",
                    "midi": 66,
                    "time": 300.3872720000045,
                    "velocity": 0.1968503937007874,
                    "duration": 0.3677421500000264
                },
                {
                    "name": "A4",
                    "midi": 69,
                    "time": 300.3872720000045,
                    "velocity": 0.2283464566929134,
                    "duration": 0.3677421500000264
                },
                {
                    "name": "D#4",
                    "midi": 63,
                    "time": 300.7743690000045,
                    "velocity": 0.2283464566929134,
                    "duration": 0.7661294791666933
                },
                {
                    "name": "F#4",
                    "midi": 66,
                    "time": 300.7743690000045,
                    "velocity": 0.2283464566929134,
                    "duration": 0.7669359312500319
                },
                {
                    "name": "B4",
                    "midi": 71,
                    "time": 300.7743690000045,
                    "velocity": 0.2755905511811024,
                    "duration": 0.7669359312500319
                },
                {
                    "name": "D#4",
                    "midi": 63,
                    "time": 301.54856300000455,
                    "velocity": 0.2283464566929134,
                    "duration": 0.3677421500000264
                },
                {
                    "name": "F#4",
                    "midi": 66,
                    "time": 301.54856300000455,
                    "velocity": 0.2283464566929134,
                    "duration": 0.3677421500000264
                },
                {
                    "name": "B4",
                    "midi": 71,
                    "time": 301.54856300000455,
                    "velocity": 0.2755905511811024,
                    "duration": 0.3677421500000264
                },
                {
                    "name": "F#4",
                    "midi": 66,
                    "time": 301.9356600000046,
                    "velocity": 0.2283464566929134,
                    "duration": 0.3677421500000264
                },
                {
                    "name": "D#4",
                    "midi": 63,
                    "time": 301.9356600000046,
                    "velocity": 0.2283464566929134,
                    "duration": 0.3677421500000264
                },
                {
                    "name": "B4",
                    "midi": 71,
                    "time": 301.9356600000046,
                    "velocity": 0.2755905511811024,
                    "duration": 0.3677421500000264
                },
                {
                    "name": "D#4",
                    "midi": 63,
                    "time": 302.32275700000463,
                    "velocity": 0.2204724409448819,
                    "duration": 0.3677421500000264
                },
                {
                    "name": "F#4",
                    "midi": 66,
                    "time": 302.32275700000463,
                    "velocity": 0.2204724409448819,
                    "duration": 0.3677421500000264
                },
                {
                    "name": "B4",
                    "midi": 71,
                    "time": 302.32275700000463,
                    "velocity": 0.25984251968503935,
                    "duration": 0.3677421500000264
                },
                {
                    "name": "D#4",
                    "midi": 63,
                    "time": 302.70985400000467,
                    "velocity": 0.2204724409448819,
                    "duration": 0.3677421500000264
                },
                {
                    "name": "F#4",
                    "midi": 66,
                    "time": 302.70985400000467,
                    "velocity": 0.2204724409448819,
                    "duration": 0.3677421500000264
                },
                {
                    "name": "B4",
                    "midi": 71,
                    "time": 302.70985400000467,
                    "velocity": 0.25984251968503935,
                    "duration": 0.3677421500000264
                },
                {
                    "name": "D4",
                    "midi": 62,
                    "time": 303.0969510000047,
                    "velocity": 0.25984251968503935,
                    "duration": 0.3677421500000264
                },
                {
                    "name": "G4",
                    "midi": 67,
                    "time": 303.0969510000047,
                    "velocity": 0.25984251968503935,
                    "duration": 0.3677421500000264
                },
                {
                    "name": "B4",
                    "midi": 71,
                    "time": 303.0969510000047,
                    "velocity": 0.30708661417322836,
                    "duration": 0.3677421500000264
                },
                {
                    "name": "E4",
                    "midi": 64,
                    "time": 303.48404800000475,
                    "velocity": 0.28346456692913385,
                    "duration": 0.37580667083335584
                },
                {
                    "name": "G4",
                    "midi": 67,
                    "time": 303.48404800000475,
                    "velocity": 0.28346456692913385,
                    "duration": 0.37580667083335584
                },
                {
                    "name": "E5",
                    "midi": 76,
                    "time": 303.48404800000475,
                    "velocity": 0.33858267716535434,
                    "duration": 0.37580667083335584
                },
                {
                    "name": "G4",
                    "midi": 67,
                    "time": 303.8711450000048,
                    "velocity": 0.25984251968503935,
                    "duration": 0.3677421500000264
                },
                {
                    "name": "D5",
                    "midi": 74,
                    "time": 303.8711450000048,
                    "velocity": 0.30708661417322836,
                    "duration": 0.3677421500000264
                },
                {
                    "name": "D4",
                    "midi": 62,
                    "time": 303.8711450000048,
                    "velocity": 0.25984251968503935,
                    "duration": 0.3677421500000264
                },
                {
                    "name": "G4",
                    "midi": 67,
                    "time": 304.2582420000048,
                    "velocity": 0.25984251968503935,
                    "duration": 0.3677421500000264
                },
                {
                    "name": "D5",
                    "midi": 74,
                    "time": 304.2582420000048,
                    "velocity": 0.30708661417322836,
                    "duration": 0.3677421500000264
                },
                {
                    "name": "D4",
                    "midi": 62,
                    "time": 304.2582420000048,
                    "velocity": 0.25984251968503935,
                    "duration": 0.3677421500000264
                },
                {
                    "name": "D5",
                    "midi": 74,
                    "time": 304.64533900000487,
                    "velocity": 0.28346456692913385,
                    "duration": 0.3677421500000264
                },
                {
                    "name": "D4",
                    "midi": 62,
                    "time": 304.64533900000487,
                    "velocity": 0.23622047244094488,
                    "duration": 0.3677421500000264
                },
                {
                    "name": "G4",
                    "midi": 67,
                    "time": 304.64533900000487,
                    "velocity": 0.23622047244094488,
                    "duration": 0.3677421500000264
                },
                {
                    "name": "D4",
                    "midi": 62,
                    "time": 305.0324360000049,
                    "velocity": 0.23622047244094488,
                    "duration": 0.3677421500000264
                },
                {
                    "name": "D5",
                    "midi": 74,
                    "time": 305.0324360000049,
                    "velocity": 0.28346456692913385,
                    "duration": 0.3677421500000264
                },
                {
                    "name": "G4",
                    "midi": 67,
                    "time": 305.0324360000049,
                    "velocity": 0.23622047244094488,
                    "duration": 0.3677421500000264
                },
                {
                    "name": "D4",
                    "midi": 62,
                    "time": 305.41953300000495,
                    "velocity": 0.25984251968503935,
                    "duration": 0.3870969999999829
                },
                {
                    "name": "D5",
                    "midi": 74,
                    "time": 305.41953300000495,
                    "velocity": 0.30708661417322836,
                    "duration": 0.3870969999999829
                },
                {
                    "name": "G4",
                    "midi": 67,
                    "time": 305.41953300000495,
                    "velocity": 0.25984251968503935,
                    "duration": 0.3870969999999829
                },
                {
                    "name": "D4",
                    "midi": 62,
                    "time": 305.80663000000493,
                    "velocity": 0.2283464566929134,
                    "duration": 0.37580667083335584
                },
                {
                    "name": "A3",
                    "midi": 57,
                    "time": 305.80663000000493,
                    "velocity": 0.2283464566929134,
                    "duration": 0.37580667083335584
                },
                {
                    "name": "A4",
                    "midi": 69,
                    "time": 305.80663000000493,
                    "velocity": 0.2755905511811024,
                    "duration": 0.37580667083335584
                },
                {
                    "name": "C4",
                    "midi": 60,
                    "time": 306.19372700000497,
                    "velocity": 0.2283464566929134,
                    "duration": 0.3750002187500172
                },
                {
                    "name": "D4",
                    "midi": 62,
                    "time": 306.19372700000497,
                    "velocity": 0.2283464566929134,
                    "duration": 0.37580667083335584
                },
                {
                    "name": "C5",
                    "midi": 72,
                    "time": 306.19372700000497,
                    "velocity": 0.2755905511811024,
                    "duration": 0.3750002187500172
                },
                {
                    "name": "C5",
                    "midi": 72,
                    "time": 306.580824000005,
                    "velocity": 0.30708661417322836,
                    "duration": 0.3750002187500172
                },
                {
                    "name": "D4",
                    "midi": 62,
                    "time": 306.580824000005,
                    "velocity": 0.25984251968503935,
                    "duration": 0.37580667083335584
                },
                {
                    "name": "C4",
                    "midi": 60,
                    "time": 306.580824000005,
                    "velocity": 0.25984251968503935,
                    "duration": 0.3750002187500172
                },
                {
                    "name": "B3",
                    "midi": 59,
                    "time": 306.96792100000505,
                    "velocity": 0.2440944881889764,
                    "duration": 0.37580667083335584
                },
                {
                    "name": "B4",
                    "midi": 71,
                    "time": 306.96792100000505,
                    "velocity": 0.29133858267716534,
                    "duration": 0.37580667083335584
                },
                {
                    "name": "D4",
                    "midi": 62,
                    "time": 306.96792100000505,
                    "velocity": 0.2440944881889764,
                    "duration": 0.37580667083335584
                },
                {
                    "name": "A3",
                    "midi": 57,
                    "time": 307.3550180000051,
                    "velocity": 0.2440944881889764,
                    "duration": 0.37580667083335584
                },
                {
                    "name": "A4",
                    "midi": 69,
                    "time": 307.3550180000051,
                    "velocity": 0.29133858267716534,
                    "duration": 0.37580667083335584
                },
                {
                    "name": "D4",
                    "midi": 62,
                    "time": 307.3550180000051,
                    "velocity": 0.2440944881889764,
                    "duration": 0.37580667083335584
                },
                {
                    "name": "D4",
                    "midi": 62,
                    "time": 307.74211500000513,
                    "velocity": 0.25984251968503935,
                    "duration": 0.37580667083335584
                },
                {
                    "name": "A3",
                    "midi": 57,
                    "time": 307.74211500000513,
                    "velocity": 0.25984251968503935,
                    "duration": 0.37580667083335584
                },
                {
                    "name": "A4",
                    "midi": 69,
                    "time": 307.74211500000513,
                    "velocity": 0.30708661417322836,
                    "duration": 0.37580667083335584
                },
                {
                    "name": "B3",
                    "midi": 59,
                    "time": 308.12921200000517,
                    "velocity": 0.25984251968503935,
                    "duration": 0.37580667083335584
                },
                {
                    "name": "D4",
                    "midi": 62,
                    "time": 308.12921200000517,
                    "velocity": 0.25984251968503935,
                    "duration": 0.37580667083335584
                },
                {
                    "name": "B4",
                    "midi": 71,
                    "time": 308.12921200000517,
                    "velocity": 0.30708661417322836,
                    "duration": 0.37580667083335584
                },
                {
                    "name": "D4",
                    "midi": 62,
                    "time": 308.5163090000052,
                    "velocity": 0.25984251968503935,
                    "duration": 0.37580667083335584
                },
                {
                    "name": "B4",
                    "midi": 71,
                    "time": 308.5163090000052,
                    "velocity": 0.30708661417322836,
                    "duration": 0.37580667083335584
                },
                {
                    "name": "B3",
                    "midi": 59,
                    "time": 308.5163090000052,
                    "velocity": 0.25984251968503935,
                    "duration": 0.37580667083335584
                },
                {
                    "name": "D4",
                    "midi": 62,
                    "time": 308.90340600000525,
                    "velocity": 0.29133858267716534,
                    "duration": 0.37580667083335584
                },
                {
                    "name": "B4",
                    "midi": 71,
                    "time": 308.90340600000525,
                    "velocity": 0.3464566929133858,
                    "duration": 0.37580667083335584
                },
                {
                    "name": "B3",
                    "midi": 59,
                    "time": 308.90340600000525,
                    "velocity": 0.29133858267716534,
                    "duration": 0.37580667083335584
                },
                {
                    "name": "B4",
                    "midi": 71,
                    "time": 309.2905030000053,
                    "velocity": 0.4015748031496063,
                    "duration": 0.37580667083335584
                },
                {
                    "name": "B3",
                    "midi": 59,
                    "time": 309.2905030000053,
                    "velocity": 0.33858267716535434,
                    "duration": 0.37580667083335584
                },
                {
                    "name": "G4",
                    "midi": 67,
                    "time": 309.2905030000053,
                    "velocity": 0.33858267716535434,
                    "duration": 0.37580667083335584
                },
                {
                    "name": "C4",
                    "midi": 60,
                    "time": 309.6776000000053,
                    "velocity": 0.3937007874015748,
                    "duration": 0.37580667083335584
                },
                {
                    "name": "C5",
                    "midi": 72,
                    "time": 309.6776000000053,
                    "velocity": 0.47244094488188976,
                    "duration": 0.37580667083335584
                },
                {
                    "name": "G4",
                    "midi": 67,
                    "time": 309.6776000000053,
                    "velocity": 0.3937007874015748,
                    "duration": 0.37580667083335584
                },
                {
                    "name": "G4",
                    "midi": 67,
                    "time": 310.06469700000537,
                    "velocity": 0.4330708661417323,
                    "duration": 0.7661294791666933
                },
                {
                    "name": "D5",
                    "midi": 74,
                    "time": 310.06469700000537,
                    "velocity": 0.5196850393700787,
                    "duration": 0.7669359312500319
                },
                {
                    "name": "D4",
                    "midi": 62,
                    "time": 310.06469700000537,
                    "velocity": 0.4330708661417323,
                    "duration": 0.7661294791666933
                },
                {
                    "name": "D4",
                    "midi": 62,
                    "time": 310.8388910000054,
                    "velocity": 0.3464566929133858,
                    "duration": 0.3677421500000264
                },
                {
                    "name": "D5",
                    "midi": 74,
                    "time": 310.8388910000054,
                    "velocity": 0.4094488188976378,
                    "duration": 0.3677421500000264
                },
                {
                    "name": "G4",
                    "midi": 67,
                    "time": 310.8388910000054,
                    "velocity": 0.3464566929133858,
                    "duration": 0.3677421500000264
                },
                {
                    "name": "D4",
                    "midi": 62,
                    "time": 311.22598800000543,
                    "velocity": 0.3464566929133858,
                    "duration": 0.3677421500000264
                },
                {
                    "name": "D5",
                    "midi": 74,
                    "time": 311.22598800000543,
                    "velocity": 0.4094488188976378,
                    "duration": 0.3677421500000264
                },
                {
                    "name": "G4",
                    "midi": 67,
                    "time": 311.22598800000543,
                    "velocity": 0.3464566929133858,
                    "duration": 0.3677421500000264
                },
                {
                    "name": "C4",
                    "midi": 60,
                    "time": 311.61308500000547,
                    "velocity": 0.33070866141732286,
                    "duration": 0.3677421500000264
                },
                {
                    "name": "C5",
                    "midi": 72,
                    "time": 311.61308500000547,
                    "velocity": 0.3937007874015748,
                    "duration": 0.3677421500000264
                },
                {
                    "name": "G4",
                    "midi": 67,
                    "time": 311.61308500000547,
                    "velocity": 0.33070866141732286,
                    "duration": 0.3677421500000264
                },
                {
                    "name": "B3",
                    "midi": 59,
                    "time": 312.0001820000055,
                    "velocity": 0.33070866141732286,
                    "duration": 0.3677421500000264
                },
                {
                    "name": "B4",
                    "midi": 71,
                    "time": 312.0001820000055,
                    "velocity": 0.3937007874015748,
                    "duration": 0.3677421500000264
                },
                {
                    "name": "G4",
                    "midi": 67,
                    "time": 312.0001820000055,
                    "velocity": 0.33070866141732286,
                    "duration": 0.3677421500000264
                },
                {
                    "name": "D4",
                    "midi": 62,
                    "time": 312.38727900000555,
                    "velocity": 0.3543307086614173,
                    "duration": 0.3677421500000264
                },
                {
                    "name": "D5",
                    "midi": 74,
                    "time": 312.38727900000555,
                    "velocity": 0.4251968503937008,
                    "duration": 0.3677421500000264
                },
                {
                    "name": "G4",
                    "midi": 67,
                    "time": 312.38727900000555,
                    "velocity": 0.3543307086614173,
                    "duration": 0.3677421500000264
                },
                {
                    "name": "G4",
                    "midi": 67,
                    "time": 312.7743760000056,
                    "velocity": 0.41732283464566927,
                    "duration": 0.37580667083335584
                },
                {
                    "name": "G5",
                    "midi": 79,
                    "time": 312.7743760000056,
                    "velocity": 0.49606299212598426,
                    "duration": 0.37580667083335584
                },
                {
                    "name": "B4",
                    "midi": 71,
                    "time": 312.7743760000056,
                    "velocity": 0.41732283464566927,
                    "duration": 0.37580667083335584
                },
                {
                    "name": "B4",
                    "midi": 71,
                    "time": 313.1614730000056,
                    "velocity": 0.4409448818897638,
                    "duration": 0.3677421500000264
                },
                {
                    "name": "D5",
                    "midi": 74,
                    "time": 313.1614730000056,
                    "velocity": 0.4409448818897638,
                    "duration": 0.3677421500000264
                },
                {
                    "name": "B5",
                    "midi": 83,
                    "time": 313.1614730000056,
                    "velocity": 0.5196850393700787,
                    "duration": 0.3677421500000264
                },
                {
                    "name": "B4",
                    "midi": 71,
                    "time": 313.54857000000567,
                    "velocity": 0.4409448818897638,
                    "duration": 0.3677421500000264
                },
                {
                    "name": "D5",
                    "midi": 74,
                    "time": 313.54857000000567,
                    "velocity": 0.4409448818897638,
                    "duration": 0.3677421500000264
                },
                {
                    "name": "B5",
                    "midi": 83,
                    "time": 313.54857000000567,
                    "velocity": 0.5196850393700787,
                    "duration": 0.3677421500000264
                },
                {
                    "name": "D5",
                    "midi": 74,
                    "time": 313.9356670000057,
                    "velocity": 0.4566929133858268,
                    "duration": 0.3677421500000264
                },
                {
                    "name": "B5",
                    "midi": 83,
                    "time": 313.9356670000057,
                    "velocity": 0.5433070866141733,
                    "duration": 0.3677421500000264
                },
                {
                    "name": "B4",
                    "midi": 71,
                    "time": 313.9356670000057,
                    "velocity": 0.4566929133858268,
                    "duration": 0.3677421500000264
                },
                {
                    "name": "D5",
                    "midi": 74,
                    "time": 314.32276400000575,
                    "velocity": 0.48031496062992124,
                    "duration": 0.3677421500000264
                },
                {
                    "name": "B5",
                    "midi": 83,
                    "time": 314.32276400000575,
                    "velocity": 0.5669291338582677,
                    "duration": 0.3677421500000264
                },
                {
                    "name": "B4",
                    "midi": 71,
                    "time": 314.32276400000575,
                    "velocity": 0.48031496062992124,
                    "duration": 0.3677421500000264
                },
                {
                    "name": "D#5",
                    "midi": 75,
                    "time": 314.7098610000058,
                    "velocity": 0.49606299212598426,
                    "duration": 0.3677421500000264
                },
                {
                    "name": "B5",
                    "midi": 83,
                    "time": 314.7098610000058,
                    "velocity": 0.5905511811023622,
                    "duration": 0.3677421500000264
                },
                {
                    "name": "B4",
                    "midi": 71,
                    "time": 314.7098610000058,
                    "velocity": 0.49606299212598426,
                    "duration": 0.3677421500000264
                },
                {
                    "name": "B4",
                    "midi": 71,
                    "time": 315.0969580000058,
                    "velocity": 0.4409448818897638,
                    "duration": 0.3677421500000264
                },
                {
                    "name": "B5",
                    "midi": 83,
                    "time": 315.0969580000058,
                    "velocity": 0.5196850393700787,
                    "duration": 0.3677421500000264
                },
                {
                    "name": "D#5",
                    "midi": 75,
                    "time": 315.0969580000058,
                    "velocity": 0.4409448818897638,
                    "duration": 0.3677421500000264
                },
                {
                    "name": "B4",
                    "midi": 71,
                    "time": 315.48405500000587,
                    "velocity": 0.4094488188976378,
                    "duration": 0.3677421500000264
                },
                {
                    "name": "B5",
                    "midi": 83,
                    "time": 315.48405500000587,
                    "velocity": 0.48031496062992124,
                    "duration": 0.3677421500000264
                },
                {
                    "name": "D#5",
                    "midi": 75,
                    "time": 315.48405500000587,
                    "velocity": 0.4094488188976378,
                    "duration": 0.3677421500000264
                },
                {
                    "name": "D#5",
                    "midi": 75,
                    "time": 315.8711520000059,
                    "velocity": 0.3464566929133858,
                    "duration": 0.3677421500000264
                },
                {
                    "name": "B5",
                    "midi": 83,
                    "time": 315.8711520000059,
                    "velocity": 0.4094488188976378,
                    "duration": 0.3677421500000264
                },
                {
                    "name": "B4",
                    "midi": 71,
                    "time": 315.8711520000059,
                    "velocity": 0.3464566929133858,
                    "duration": 0.3677421500000264
                },
                {
                    "name": "D#5",
                    "midi": 75,
                    "time": 316.25824900000595,
                    "velocity": 0.31496062992125984,
                    "duration": 0.3677421500000264
                },
                {
                    "name": "B5",
                    "midi": 83,
                    "time": 316.25824900000595,
                    "velocity": 0.3779527559055118,
                    "duration": 0.3677421500000264
                },
                {
                    "name": "B4",
                    "midi": 71,
                    "time": 316.25824900000595,
                    "velocity": 0.31496062992125984,
                    "duration": 0.3677421500000264
                },
                {
                    "name": "D#5",
                    "midi": 75,
                    "time": 316.645346000006,
                    "velocity": 0.28346456692913385,
                    "duration": 0.3677421500000264
                },
                {
                    "name": "B5",
                    "midi": 83,
                    "time": 316.645346000006,
                    "velocity": 0.33858267716535434,
                    "duration": 0.3677421500000264
                },
                {
                    "name": "B4",
                    "midi": 71,
                    "time": 316.645346000006,
                    "velocity": 0.28346456692913385,
                    "duration": 0.3677421500000264
                },
                {
                    "name": "B4",
                    "midi": 71,
                    "time": 317.032443000006,
                    "velocity": 0.25196850393700787,
                    "duration": 0.37580667083335584
                },
                {
                    "name": "B5",
                    "midi": 83,
                    "time": 317.032443000006,
                    "velocity": 0.30708661417322836,
                    "duration": 0.37580667083335584
                },
                {
                    "name": "D5",
                    "midi": 74,
                    "time": 317.032443000006,
                    "velocity": 0.25196850393700787,
                    "duration": 0.37580667083335584
                },
                {
                    "name": "C5",
                    "midi": 72,
                    "time": 317.41954000000607,
                    "velocity": 0.2440944881889764,
                    "duration": 0.37580667083335584
                },
                {
                    "name": "C6",
                    "midi": 84,
                    "time": 317.41954000000607,
                    "velocity": 0.28346456692913385,
                    "duration": 0.37580667083335584
                },
                {
                    "name": "D5",
                    "midi": 74,
                    "time": 317.41954000000607,
                    "velocity": 0.2440944881889764,
                    "duration": 0.37580667083335584
                },
                {
                    "name": "D5",
                    "midi": 74,
                    "time": 317.8066370000061,
                    "velocity": 0.25196850393700787,
                    "duration": 0.37580667083335584
                },
                {
                    "name": "D6",
                    "midi": 86,
                    "time": 317.8066370000061,
                    "velocity": 0.2992125984251969,
                    "duration": 0.37580667083335584
                },
                {
                    "name": "B4",
                    "midi": 71,
                    "time": 318.19373400000615,
                    "velocity": 0.28346456692913385,
                    "duration": 0.37580667083335584
                },
                {
                    "name": "G5",
                    "midi": 79,
                    "time": 318.19373400000615,
                    "velocity": 0.33858267716535434,
                    "duration": 0.37580667083335584
                },
                {
                    "name": "G4",
                    "midi": 67,
                    "time": 318.19373400000615,
                    "velocity": 0.28346456692913385,
                    "duration": 0.37580667083335584
                },
                {
                    "name": "D5",
                    "midi": 74,
                    "time": 318.5808310000062,
                    "velocity": 0.23622047244094488,
                    "duration": 0.37580667083335584
                },
                {
                    "name": "F#5",
                    "midi": 78,
                    "time": 318.5808310000062,
                    "velocity": 0.23622047244094488,
                    "duration": 0.37580667083335584
                },
                {
                    "name": "A5",
                    "midi": 81,
                    "time": 318.5808310000062,
                    "velocity": 0.28346456692913385,
                    "duration": 0.37580667083335584
                },
                {
                    "name": "A4",
                    "midi": 69,
                    "time": 318.5808310000062,
                    "velocity": 0.23622047244094488,
                    "duration": 0.37580667083335584
                },
                {
                    "name": "D5",
                    "midi": 74,
                    "time": 318.9679280000062,
                    "velocity": 0.23622047244094488,
                    "duration": 0.37580667083335584
                },
                {
                    "name": "G5",
                    "midi": 79,
                    "time": 318.9679280000062,
                    "velocity": 0.23622047244094488,
                    "duration": 0.37580667083335584
                },
                {
                    "name": "B4",
                    "midi": 71,
                    "time": 318.9679280000062,
                    "velocity": 0.23622047244094488,
                    "duration": 0.37580667083335584
                },
                {
                    "name": "B5",
                    "midi": 83,
                    "time": 318.9679280000062,
                    "velocity": 0.28346456692913385,
                    "duration": 0.37580667083335584
                },
                {
                    "name": "C5",
                    "midi": 72,
                    "time": 319.35502500000626,
                    "velocity": 0.2677165354330709,
                    "duration": 0.7669359312499751
                },
                {
                    "name": "D5",
                    "midi": 74,
                    "time": 319.35502500000626,
                    "velocity": 0.2677165354330709,
                    "duration": 0.7669359312499751
                },
                {
                    "name": "F#5",
                    "midi": 78,
                    "time": 319.35502500000626,
                    "velocity": 0.2677165354330709,
                    "duration": 0.7669359312499751
                },
                {
                    "name": "A5",
                    "midi": 81,
                    "time": 319.35502500000626,
                    "velocity": 0.3228346456692913,
                    "duration": 0.7669359312499751
                },
                {
                    "name": "B4",
                    "midi": 71,
                    "time": 320.12921900000623,
                    "velocity": 0.25196850393700787,
                    "duration": 0.37580667083335584
                },
                {
                    "name": "D5",
                    "midi": 74,
                    "time": 320.12921900000623,
                    "velocity": 0.25196850393700787,
                    "duration": 0.37580667083335584
                },
                {
                    "name": "G5",
                    "midi": 79,
                    "time": 320.12921900000623,
                    "velocity": 0.2992125984251969,
                    "duration": 0.37580667083335584
                },
                {
                    "name": "B4",
                    "midi": 71,
                    "time": 320.51631600000627,
                    "velocity": 0.28346456692913385,
                    "duration": 0.37580667083335584
                },
                {
                    "name": "D5",
                    "midi": 74,
                    "time": 320.51631600000627,
                    "velocity": 0.28346456692913385,
                    "duration": 0.37580667083335584
                },
                {
                    "name": "G5",
                    "midi": 79,
                    "time": 320.51631600000627,
                    "velocity": 0.33858267716535434,
                    "duration": 0.37580667083335584
                },
                {
                    "name": "D5",
                    "midi": 74,
                    "time": 320.9034130000063,
                    "velocity": 0.3464566929133858,
                    "duration": 0.3677421500000264
                },
                {
                    "name": "D5",
                    "midi": 74,
                    "time": 321.29051000000635,
                    "velocity": 0.36220472440944884,
                    "duration": 0.3677421500000264
                },
                {
                    "name": "G4",
                    "midi": 67,
                    "time": 321.6776070000064,
                    "velocity": 0.36220472440944884,
                    "duration": 0.7661294791666933
                },
                {
                    "name": "E4",
                    "midi": 64,
                    "time": 321.6776070000064,
                    "velocity": 0.36220472440944884,
                    "duration": 0.7661294791666933
                },
                {
                    "name": "C5",
                    "midi": 72,
                    "time": 321.6776070000064,
                    "velocity": 0.36220472440944884,
                    "duration": 0.7669359312500319
                },
                {
                    "name": "E5",
                    "midi": 76,
                    "time": 321.6776070000064,
                    "velocity": 0.4330708661417323,
                    "duration": 0.7669359312500319
                },
                {
                    "name": "G4",
                    "midi": 67,
                    "time": 322.4518010000064,
                    "velocity": 0.29133858267716534,
                    "duration": 0.3677421500000264
                },
                {
                    "name": "E4",
                    "midi": 64,
                    "time": 322.4518010000064,
                    "velocity": 0.29133858267716534,
                    "duration": 0.3677421500000264
                },
                {
                    "name": "C5",
                    "midi": 72,
                    "time": 322.4518010000064,
                    "velocity": 0.29133858267716534,
                    "duration": 0.3677421500000264
                },
                {
                    "name": "E5",
                    "midi": 76,
                    "time": 322.4518010000064,
                    "velocity": 0.3464566929133858,
                    "duration": 0.3677421500000264
                },
                {
                    "name": "E4",
                    "midi": 64,
                    "time": 322.83889800000645,
                    "velocity": 0.29133858267716534,
                    "duration": 0.3677421500000264
                },
                {
                    "name": "G4",
                    "midi": 67,
                    "time": 322.83889800000645,
                    "velocity": 0.29133858267716534,
                    "duration": 0.3677421500000264
                },
                {
                    "name": "C5",
                    "midi": 72,
                    "time": 322.83889800000645,
                    "velocity": 0.29133858267716534,
                    "duration": 0.3677421500000264
                },
                {
                    "name": "E5",
                    "midi": 76,
                    "time": 322.83889800000645,
                    "velocity": 0.3464566929133858,
                    "duration": 0.3677421500000264
                },
                {
                    "name": "C5",
                    "midi": 72,
                    "time": 323.2259950000065,
                    "velocity": 0.2755905511811024,
                    "duration": 0.3677421500000264
                },
                {
                    "name": "E4",
                    "midi": 64,
                    "time": 323.2259950000065,
                    "velocity": 0.2755905511811024,
                    "duration": 0.3677421500000264
                },
                {
                    "name": "G4",
                    "midi": 67,
                    "time": 323.2259950000065,
                    "velocity": 0.2755905511811024,
                    "duration": 0.3677421500000264
                },
                {
                    "name": "E5",
                    "midi": 76,
                    "time": 323.2259950000065,
                    "velocity": 0.33070866141732286,
                    "duration": 0.3677421500000264
                },
                {
                    "name": "E4",
                    "midi": 64,
                    "time": 323.61309200000653,
                    "velocity": 0.2755905511811024,
                    "duration": 0.3677421500000264
                },
                {
                    "name": "G4",
                    "midi": 67,
                    "time": 323.61309200000653,
                    "velocity": 0.2755905511811024,
                    "duration": 0.3677421500000264
                },
                {
                    "name": "C5",
                    "midi": 72,
                    "time": 323.61309200000653,
                    "velocity": 0.2755905511811024,
                    "duration": 0.3677421500000264
                },
                {
                    "name": "E5",
                    "midi": 76,
                    "time": 323.61309200000653,
                    "velocity": 0.33070866141732286,
                    "duration": 0.3677421500000264
                },
                {
                    "name": "E4",
                    "midi": 64,
                    "time": 324.00018900000657,
                    "velocity": 0.29133858267716534,
                    "duration": 0.3677421500000264
                },
                {
                    "name": "G4",
                    "midi": 67,
                    "time": 324.00018900000657,
                    "velocity": 0.29133858267716534,
                    "duration": 0.3677421500000264
                },
                {
                    "name": "E5",
                    "midi": 76,
                    "time": 324.00018900000657,
                    "velocity": 0.3464566929133858,
                    "duration": 0.3677421500000264
                },
                {
                    "name": "D4",
                    "midi": 62,
                    "time": 324.3872860000066,
                    "velocity": 0.31496062992125984,
                    "duration": 0.37580667083335584
                },
                {
                    "name": "G4",
                    "midi": 67,
                    "time": 324.3872860000066,
                    "velocity": 0.31496062992125984,
                    "duration": 0.37580667083335584
                },
                {
                    "name": "D5",
                    "midi": 74,
                    "time": 324.3872860000066,
                    "velocity": 0.3779527559055118,
                    "duration": 0.37580667083335584
                },
                {
                    "name": "C4",
                    "midi": 60,
                    "time": 324.77438300000665,
                    "velocity": 0.29133858267716534,
                    "duration": 0.3677421500000264
                },
                {
                    "name": "G4",
                    "midi": 67,
                    "time": 324.77438300000665,
                    "velocity": 0.29133858267716534,
                    "duration": 0.3677421500000264
                },
                {
                    "name": "C5",
                    "midi": 72,
                    "time": 324.77438300000665,
                    "velocity": 0.3464566929133858,
                    "duration": 0.3677421500000264
                },
                {
                    "name": "C4",
                    "midi": 60,
                    "time": 325.1614800000067,
                    "velocity": 0.29133858267716534,
                    "duration": 0.3677421500000264
                },
                {
                    "name": "G4",
                    "midi": 67,
                    "time": 325.1614800000067,
                    "velocity": 0.29133858267716534,
                    "duration": 0.3677421500000264
                },
                {
                    "name": "C5",
                    "midi": 72,
                    "time": 325.1614800000067,
                    "velocity": 0.3464566929133858,
                    "duration": 0.3677421500000264
                },
                {
                    "name": "D4",
                    "midi": 62,
                    "time": 325.54857700000673,
                    "velocity": 0.31496062992125984,
                    "duration": 0.3677421500000264
                },
                {
                    "name": "G4",
                    "midi": 67,
                    "time": 325.54857700000673,
                    "velocity": 0.31496062992125984,
                    "duration": 0.3677421500000264
                },
                {
                    "name": "D5",
                    "midi": 74,
                    "time": 325.54857700000673,
                    "velocity": 0.3779527559055118,
                    "duration": 0.3677421500000264
                },
                {
                    "name": "E4",
                    "midi": 64,
                    "time": 325.93567400000677,
                    "velocity": 0.36220472440944884,
                    "duration": 0.3677421500000264
                },
                {
                    "name": "G4",
                    "midi": 67,
                    "time": 325.93567400000677,
                    "velocity": 0.36220472440944884,
                    "duration": 0.3677421500000264
                },
                {
                    "name": "E5",
                    "midi": 76,
                    "time": 325.93567400000677,
                    "velocity": 0.4251968503937008,
                    "duration": 0.3677421500000264
                },
                {
                    "name": "G4",
                    "midi": 67,
                    "time": 326.3227710000068,
                    "velocity": 0.4409448818897638,
                    "duration": 0.7661294791666933
                },
                {
                    "name": "A#4",
                    "midi": 70,
                    "time": 326.3227710000068,
                    "velocity": 0.4409448818897638,
                    "duration": 0.7661294791666933
                },
                {
                    "name": "G5",
                    "midi": 79,
                    "time": 326.3227710000068,
                    "velocity": 0.5275590551181102,
                    "duration": 0.7669359312500319
                },
                {
                    "name": "G4",
                    "midi": 67,
                    "time": 327.09696500000683,
                    "velocity": 0.3937007874015748,
                    "duration": 0.3677421500000264
                },
                {
                    "name": "A#4",
                    "midi": 70,
                    "time": 327.09696500000683,
                    "velocity": 0.3937007874015748,
                    "duration": 0.3677421500000264
                },
                {
                    "name": "G5",
                    "midi": 79,
                    "time": 327.09696500000683,
                    "velocity": 0.47244094488188976,
                    "duration": 0.3677421500000264
                },
                {
                    "name": "G4",
                    "midi": 67,
                    "time": 327.4840620000069,
                    "velocity": 0.3937007874015748,
                    "duration": 0.3677421500000264
                },
                {
                    "name": "A#4",
                    "midi": 70,
                    "time": 327.4840620000069,
                    "velocity": 0.3937007874015748,
                    "duration": 0.3677421500000264
                },
                {
                    "name": "G5",
                    "midi": 79,
                    "time": 327.4840620000069,
                    "velocity": 0.47244094488188976,
                    "duration": 0.3677421500000264
                },
                {
                    "name": "G4",
                    "midi": 67,
                    "time": 327.8711590000069,
                    "velocity": 0.3700787401574803,
                    "duration": 0.3677421500000264
                },
                {
                    "name": "G5",
                    "midi": 79,
                    "time": 327.8711590000069,
                    "velocity": 0.44881889763779526,
                    "duration": 0.3677421500000264
                },
                {
                    "name": "A#4",
                    "midi": 70,
                    "time": 327.8711590000069,
                    "velocity": 0.3700787401574803,
                    "duration": 0.3677421500000264
                },
                {
                    "name": "A#4",
                    "midi": 70,
                    "time": 328.25825600000695,
                    "velocity": 0.3700787401574803,
                    "duration": 0.3677421500000264
                },
                {
                    "name": "G5",
                    "midi": 79,
                    "time": 328.25825600000695,
                    "velocity": 0.44881889763779526,
                    "duration": 0.3677421500000264
                },
                {
                    "name": "G4",
                    "midi": 67,
                    "time": 328.25825600000695,
                    "velocity": 0.3700787401574803,
                    "duration": 0.3677421500000264
                },
                {
                    "name": "A#4",
                    "midi": 70,
                    "time": 328.645353000007,
                    "velocity": 0.3937007874015748,
                    "duration": 0.3677421500000264
                },
                {
                    "name": "G5",
                    "midi": 79,
                    "time": 328.645353000007,
                    "velocity": 0.47244094488188976,
                    "duration": 0.3677421500000264
                },
                {
                    "name": "G4",
                    "midi": 67,
                    "time": 328.645353000007,
                    "velocity": 0.3937007874015748,
                    "duration": 0.3677421500000264
                },
                {
                    "name": "A#4",
                    "midi": 70,
                    "time": 329.03245000000703,
                    "velocity": 0.4330708661417323,
                    "duration": 0.3750002187500172
                },
                {
                    "name": "F5",
                    "midi": 77,
                    "time": 329.03245000000703,
                    "velocity": 0.5196850393700787,
                    "duration": 0.3750002187500172
                },
                {
                    "name": "F4",
                    "midi": 65,
                    "time": 329.03245000000703,
                    "velocity": 0.4330708661417323,
                    "duration": 0.3750002187500172
                },
                {
                    "name": "D#4",
                    "midi": 63,
                    "time": 329.41954700000707,
                    "velocity": 0.3937007874015748,
                    "duration": 0.3677421500000264
                },
                {
                    "name": "D#5",
                    "midi": 75,
                    "time": 329.41954700000707,
                    "velocity": 0.47244094488188976,
                    "duration": 0.3677421500000264
                },
                {
                    "name": "A#4",
                    "midi": 70,
                    "time": 329.41954700000707,
                    "velocity": 0.3937007874015748,
                    "duration": 0.3677421500000264
                },
                {
                    "name": "D#4",
                    "midi": 63,
                    "time": 329.8066440000071,
                    "velocity": 0.3937007874015748,
                    "duration": 0.3677421500000264
                },
                {
                    "name": "D#5",
                    "midi": 75,
                    "time": 329.8066440000071,
                    "velocity": 0.47244094488188976,
                    "duration": 0.3677421500000264
                },
                {
                    "name": "A#4",
                    "midi": 70,
                    "time": 329.8066440000071,
                    "velocity": 0.3937007874015748,
                    "duration": 0.3677421500000264
                },
                {
                    "name": "F4",
                    "midi": 65,
                    "time": 330.19374100000715,
                    "velocity": 0.4330708661417323,
                    "duration": 0.3677421500000264
                },
                {
                    "name": "A#4",
                    "midi": 70,
                    "time": 330.19374100000715,
                    "velocity": 0.4330708661417323,
                    "duration": 0.3677421500000264
                },
                {
                    "name": "F5",
                    "midi": 77,
                    "time": 330.19374100000715,
                    "velocity": 0.5196850393700787,
                    "duration": 0.3677421500000264
                },
                {
                    "name": "G4",
                    "midi": 67,
                    "time": 330.5808380000072,
                    "velocity": 0.4645669291338583,
                    "duration": 0.3677421500000264
                },
                {
                    "name": "A#4",
                    "midi": 70,
                    "time": 330.5808380000072,
                    "velocity": 0.4645669291338583,
                    "duration": 0.3677421500000264
                },
                {
                    "name": "G5",
                    "midi": 79,
                    "time": 330.5808380000072,
                    "velocity": 0.5590551181102362,
                    "duration": 0.3677421500000264
                },
                {
                    "name": "A#4",
                    "midi": 70,
                    "time": 330.96793500000723,
                    "velocity": 0.49606299212598426,
                    "duration": 0.7661294791666933
                },
                {
                    "name": "A#5",
                    "midi": 82,
                    "time": 330.96793500000723,
                    "velocity": 0.5984251968503937,
                    "duration": 0.7661294791666933
                },
                {
                    "name": "C#5",
                    "midi": 73,
                    "time": 330.96793500000723,
                    "velocity": 0.49606299212598426,
                    "duration": 0.7661294791666933
                },
                {
                    "name": "A#4",
                    "midi": 70,
                    "time": 331.74212900000725,
                    "velocity": 0.44881889763779526,
                    "duration": 0.3677421500000264
                },
                {
                    "name": "A#5",
                    "midi": 82,
                    "time": 331.74212900000725,
                    "velocity": 0.5354330708661418,
                    "duration": 0.3677421500000264
                },
                {
                    "name": "C#5",
                    "midi": 73,
                    "time": 331.74212900000725,
                    "velocity": 0.44881889763779526,
                    "duration": 0.3677421500000264
                },
                {
                    "name": "A#4",
                    "midi": 70,
                    "time": 332.1292260000073,
                    "velocity": 0.44881889763779526,
                    "duration": 0.3677421500000264
                },
                {
                    "name": "A#5",
                    "midi": 82,
                    "time": 332.1292260000073,
                    "velocity": 0.5354330708661418,
                    "duration": 0.3677421500000264
                },
                {
                    "name": "C#5",
                    "midi": 73,
                    "time": 332.1292260000073,
                    "velocity": 0.44881889763779526,
                    "duration": 0.3677421500000264
                },
                {
                    "name": "A#4",
                    "midi": 70,
                    "time": 332.51632300000733,
                    "velocity": 0.41732283464566927,
                    "duration": 0.3677421500000264
                },
                {
                    "name": "C#5",
                    "midi": 73,
                    "time": 332.51632300000733,
                    "velocity": 0.41732283464566927,
                    "duration": 0.3677421500000264
                },
                {
                    "name": "A#5",
                    "midi": 82,
                    "time": 332.51632300000733,
                    "velocity": 0.5118110236220472,
                    "duration": 0.3677421500000264
                },
                {
                    "name": "C#5",
                    "midi": 73,
                    "time": 332.9034200000074,
                    "velocity": 0.41732283464566927,
                    "duration": 0.3677421500000264
                },
                {
                    "name": "A#4",
                    "midi": 70,
                    "time": 332.9034200000074,
                    "velocity": 0.41732283464566927,
                    "duration": 0.3677421500000264
                },
                {
                    "name": "A#5",
                    "midi": 82,
                    "time": 332.9034200000074,
                    "velocity": 0.5118110236220472,
                    "duration": 0.3677421500000264
                },
                {
                    "name": "A#4",
                    "midi": 70,
                    "time": 333.2905170000074,
                    "velocity": 0.44881889763779526,
                    "duration": 0.3677421500000264
                },
                {
                    "name": "A#5",
                    "midi": 82,
                    "time": 333.2905170000074,
                    "velocity": 0.5354330708661418,
                    "duration": 0.3677421500000264
                },
                {
                    "name": "C#5",
                    "midi": 73,
                    "time": 333.2905170000074,
                    "velocity": 0.44881889763779526,
                    "duration": 0.3677421500000264
                },
                {
                    "name": "C#5",
                    "midi": 73,
                    "time": 333.67761400000745,
                    "velocity": 0.4409448818897638,
                    "duration": 0.3750002187500172
                },
                {
                    "name": "G#5",
                    "midi": 80,
                    "time": 333.67761400000745,
                    "velocity": 0.5275590551181102,
                    "duration": 0.3750002187500172
                },
                {
                    "name": "G#4",
                    "midi": 68,
                    "time": 333.67761400000745,
                    "velocity": 0.4409448818897638,
                    "duration": 0.3750002187500172
                },
                {
                    "name": "C#5",
                    "midi": 73,
                    "time": 334.0647110000075,
                    "velocity": 0.44881889763779526,
                    "duration": 0.3677421500000264
                },
                {
                    "name": "F#5",
                    "midi": 78,
                    "time": 334.0647110000075,
                    "velocity": 0.5354330708661418,
                    "duration": 0.3677421500000264
                },
                {
                    "name": "F#4",
                    "midi": 66,
                    "time": 334.0647110000075,
                    "velocity": 0.44881889763779526,
                    "duration": 0.3677421500000264
                },
                {
                    "name": "A#4",
                    "midi": 70,
                    "time": 334.45180800000753,
                    "velocity": 0.44881889763779526,
                    "duration": 0.3677421500000264
                },
                {
                    "name": "A#5",
                    "midi": 82,
                    "time": 334.45180800000753,
                    "velocity": 0.5354330708661418,
                    "duration": 0.3677421500000264
                },
                {
                    "name": "F#5",
                    "midi": 78,
                    "time": 334.45180800000753,
                    "velocity": 0.44881889763779526,
                    "duration": 0.3677421500000264
                },
                {
                    "name": "B4",
                    "midi": 71,
                    "time": 334.83890500000757,
                    "velocity": 0.5118110236220472,
                    "duration": 0.3677421500000264
                },
                {
                    "name": "B5",
                    "midi": 83,
                    "time": 334.83890500000757,
                    "velocity": 0.6141732283464567,
                    "duration": 0.3677421500000264
                },
                {
                    "name": "F#5",
                    "midi": 78,
                    "time": 334.83890500000757,
                    "velocity": 0.5118110236220472,
                    "duration": 0.3677421500000264
                },
                {
                    "name": "C#5",
                    "midi": 73,
                    "time": 335.2260020000076,
                    "velocity": 0.5748031496062992,
                    "duration": 0.3677421500000264
                },
                {
                    "name": "F#5",
                    "midi": 78,
                    "time": 335.2260020000076,
                    "velocity": 0.5748031496062992,
                    "duration": 0.3677421500000264
                },
                {
                    "name": "C#6",
                    "midi": 85,
                    "time": 335.2260020000076,
                    "velocity": 0.7007874015748031,
                    "duration": 0.3677421500000264
                },
                {
                    "name": "F#5",
                    "midi": 78,
                    "time": 335.61309900000765,
                    "velocity": 0.6456692913385826,
                    "duration": 0.7661294791666933
                },
                {
                    "name": "D5",
                    "midi": 74,
                    "time": 335.61309900000765,
                    "velocity": 0.6456692913385826,
                    "duration": 0.7661294791666933
                },
                {
                    "name": "D6",
                    "midi": 86,
                    "time": 335.61309900000765,
                    "velocity": 0.7874015748031497,
                    "duration": 0.7661294791666933
                },
                {
                    "name": "F#5",
                    "midi": 78,
                    "time": 336.3872930000077,
                    "velocity": 0.5826771653543307,
                    "duration": 0.3677421500000264
                },
                {
                    "name": "D5",
                    "midi": 74,
                    "time": 336.3872930000077,
                    "velocity": 0.5826771653543307,
                    "duration": 0.3677421500000264
                },
                {
                    "name": "D6",
                    "midi": 86,
                    "time": 336.3872930000077,
                    "velocity": 0.7007874015748031,
                    "duration": 0.3677421500000264
                },
                {
                    "name": "D5",
                    "midi": 74,
                    "time": 336.7743900000077,
                    "velocity": 0.5826771653543307,
                    "duration": 0.3677421500000264
                },
                {
                    "name": "D6",
                    "midi": 86,
                    "time": 336.7743900000077,
                    "velocity": 0.7007874015748031,
                    "duration": 0.3677421500000264
                },
                {
                    "name": "F#5",
                    "midi": 78,
                    "time": 336.7743900000077,
                    "velocity": 0.5826771653543307,
                    "duration": 0.3677421500000264
                },
                {
                    "name": "F#5",
                    "midi": 78,
                    "time": 337.16148700000775,
                    "velocity": 0.5433070866141733,
                    "duration": 0.3677421500000264
                },
                {
                    "name": "D6",
                    "midi": 86,
                    "time": 337.16148700000775,
                    "velocity": 0.6692913385826772,
                    "duration": 0.3677421500000264
                },
                {
                    "name": "D5",
                    "midi": 74,
                    "time": 337.16148700000775,
                    "velocity": 0.5433070866141733,
                    "duration": 0.3677421500000264
                },
                {
                    "name": "D6",
                    "midi": 86,
                    "time": 337.5485840000078,
                    "velocity": 0.6692913385826772,
                    "duration": 0.3677421500000264
                },
                {
                    "name": "F#5",
                    "midi": 78,
                    "time": 337.5485840000078,
                    "velocity": 0.5433070866141733,
                    "duration": 0.3677421500000264
                },
                {
                    "name": "D5",
                    "midi": 74,
                    "time": 337.5485840000078,
                    "velocity": 0.5433070866141733,
                    "duration": 0.3677421500000264
                },
                {
                    "name": "F5",
                    "midi": 77,
                    "time": 337.93568100000783,
                    "velocity": 0.6456692913385826,
                    "duration": 0.7661294791666933
                },
                {
                    "name": "D6",
                    "midi": 86,
                    "time": 337.93568100000783,
                    "velocity": 0.6456692913385826,
                    "duration": 0.7661294791666933
                },
                {
                    "name": "B5",
                    "midi": 83,
                    "time": 337.93568100000783,
                    "velocity": 0.6456692913385826,
                    "duration": 0.7661294791666933
                },
                {
                    "name": "G5",
                    "midi": 79,
                    "time": 337.93568100000783,
                    "velocity": 0.6456692913385826,
                    "duration": 0.7661294791666933
                },
                {
                    "name": "G6",
                    "midi": 91,
                    "time": 337.93568100000783,
                    "velocity": 0.7874015748031497,
                    "duration": 0.7661294791666933
                },
                {
                    "name": "G5",
                    "midi": 79,
                    "time": 338.70987500000786,
                    "velocity": 0.5826771653543307,
                    "duration": 0.3677421500000264
                },
                {
                    "name": "D6",
                    "midi": 86,
                    "time": 338.70987500000786,
                    "velocity": 0.5826771653543307,
                    "duration": 0.3677421500000264
                },
                {
                    "name": "F5",
                    "midi": 77,
                    "time": 338.70987500000786,
                    "velocity": 0.5826771653543307,
                    "duration": 0.3677421500000264
                },
                {
                    "name": "G6",
                    "midi": 91,
                    "time": 338.70987500000786,
                    "velocity": 0.7007874015748031,
                    "duration": 0.3677421500000264
                },
                {
                    "name": "B5",
                    "midi": 83,
                    "time": 338.70987500000786,
                    "velocity": 0.5826771653543307,
                    "duration": 0.3677421500000264
                },
                {
                    "name": "F5",
                    "midi": 77,
                    "time": 339.0969720000079,
                    "velocity": 0.5826771653543307,
                    "duration": 0.3677421500000264
                },
                {
                    "name": "G6",
                    "midi": 91,
                    "time": 339.0969720000079,
                    "velocity": 0.7007874015748031,
                    "duration": 0.3677421500000264
                },
                {
                    "name": "B5",
                    "midi": 83,
                    "time": 339.0969720000079,
                    "velocity": 0.5826771653543307,
                    "duration": 0.3677421500000264
                },
                {
                    "name": "G5",
                    "midi": 79,
                    "time": 339.0969720000079,
                    "velocity": 0.5826771653543307,
                    "duration": 0.3677421500000264
                },
                {
                    "name": "D6",
                    "midi": 86,
                    "time": 339.0969720000079,
                    "velocity": 0.5826771653543307,
                    "duration": 0.3677421500000264
                },
                {
                    "name": "F5",
                    "midi": 77,
                    "time": 339.48406900000793,
                    "velocity": 0.5039370078740157,
                    "duration": 0.3677421500000264
                },
                {
                    "name": "B5",
                    "midi": 83,
                    "time": 339.48406900000793,
                    "velocity": 0.5039370078740157,
                    "duration": 0.3677421500000264
                },
                {
                    "name": "D6",
                    "midi": 86,
                    "time": 339.48406900000793,
                    "velocity": 0.5039370078740157,
                    "duration": 0.3677421500000264
                },
                {
                    "name": "G5",
                    "midi": 79,
                    "time": 339.48406900000793,
                    "velocity": 0.5039370078740157,
                    "duration": 0.3677421500000264
                },
                {
                    "name": "G6",
                    "midi": 91,
                    "time": 339.48406900000793,
                    "velocity": 0.6220472440944882,
                    "duration": 0.3677421500000264
                },
                {
                    "name": "G5",
                    "midi": 79,
                    "time": 339.871166000008,
                    "velocity": 0.47244094488188976,
                    "duration": 0.3677421500000264
                },
                {
                    "name": "D6",
                    "midi": 86,
                    "time": 339.871166000008,
                    "velocity": 0.47244094488188976,
                    "duration": 0.3677421500000264
                },
                {
                    "name": "F5",
                    "midi": 77,
                    "time": 339.871166000008,
                    "velocity": 0.47244094488188976,
                    "duration": 0.3677421500000264
                },
                {
                    "name": "G6",
                    "midi": 91,
                    "time": 339.871166000008,
                    "velocity": 0.5748031496062992,
                    "duration": 0.3677421500000264
                },
                {
                    "name": "B5",
                    "midi": 83,
                    "time": 339.871166000008,
                    "velocity": 0.47244094488188976,
                    "duration": 0.3677421500000264
                },
                {
                    "name": "E5",
                    "midi": 76,
                    "time": 340.258263000008,
                    "velocity": 0.4566929133858268,
                    "duration": 0.7508068895833162
                },
                {
                    "name": "E6",
                    "midi": 88,
                    "time": 340.258263000008,
                    "velocity": 0.5433070866141733,
                    "duration": 0.7508068895833162
                },
                {
                    "name": "G5",
                    "midi": 79,
                    "time": 340.258263000008,
                    "velocity": 0.4566929133858268,
                    "duration": 0.7508068895833162
                },
                {
                    "name": "C6",
                    "midi": 84,
                    "time": 340.258263000008,
                    "velocity": 0.4566929133858268,
                    "duration": 0.7508068895833162
                },
                {
                    "name": "E4",
                    "midi": 64,
                    "time": 341.032457000008,
                    "velocity": 0.25196850393700787,
                    "duration": 0.3677421500000264
                },
                {
                    "name": "E5",
                    "midi": 76,
                    "time": 341.032457000008,
                    "velocity": 0.2992125984251969,
                    "duration": 0.3677421500000264
                },
                {
                    "name": "C5",
                    "midi": 72,
                    "time": 341.032457000008,
                    "velocity": 0.25196850393700787,
                    "duration": 0.3677421500000264
                },
                {
                    "name": "E4",
                    "midi": 64,
                    "time": 341.419554000008,
                    "velocity": 0.28346456692913385,
                    "duration": 0.3677421500000264
                },
                {
                    "name": "E5",
                    "midi": 76,
                    "time": 341.419554000008,
                    "velocity": 0.33858267716535434,
                    "duration": 0.3677421500000264
                },
                {
                    "name": "C5",
                    "midi": 72,
                    "time": 341.419554000008,
                    "velocity": 0.28346456692913385,
                    "duration": 0.3677421500000264
                },
                {
                    "name": "C5",
                    "midi": 72,
                    "time": 341.80665100000806,
                    "velocity": 0.25196850393700787,
                    "duration": 0.3677421500000264
                },
                {
                    "name": "E4",
                    "midi": 64,
                    "time": 341.80665100000806,
                    "velocity": 0.25196850393700787,
                    "duration": 0.3677421500000264
                },
                {
                    "name": "E5",
                    "midi": 76,
                    "time": 341.80665100000806,
                    "velocity": 0.2992125984251969,
                    "duration": 0.3677421500000264
                },
                {
                    "name": "E4",
                    "midi": 64,
                    "time": 342.1937480000081,
                    "velocity": 0.25196850393700787,
                    "duration": 0.3677421500000264
                },
                {
                    "name": "C5",
                    "midi": 72,
                    "time": 342.1937480000081,
                    "velocity": 0.25196850393700787,
                    "duration": 0.3677421500000264
                },
                {
                    "name": "E5",
                    "midi": 76,
                    "time": 342.1937480000081,
                    "velocity": 0.2992125984251969,
                    "duration": 0.3677421500000264
                },
                {
                    "name": "E5",
                    "midi": 76,
                    "time": 342.58084500000814,
                    "velocity": 0.33858267716535434,
                    "duration": 0.7508068895833162
                },
                {
                    "name": "C5",
                    "midi": 72,
                    "time": 342.58084500000814,
                    "velocity": 0.28346456692913385,
                    "duration": 0.7508068895833162
                },
                {
                    "name": "E4",
                    "midi": 64,
                    "time": 342.58084500000814,
                    "velocity": 0.28346456692913385,
                    "duration": 1.1612910000000056
                },
                {
                    "name": "B4",
                    "midi": 71,
                    "time": 343.3550390000081,
                    "velocity": 0.25196850393700787,
                    "duration": 0.3677421500000264
                },
                {
                    "name": "D5",
                    "midi": 74,
                    "time": 343.3550390000081,
                    "velocity": 0.2992125984251969,
                    "duration": 0.3677421500000264
                },
                {
                    "name": "D5",
                    "midi": 74,
                    "time": 343.74213600000814,
                    "velocity": 0.3464566929133858,
                    "duration": 0.7508068895833162
                },
                {
                    "name": "B4",
                    "midi": 71,
                    "time": 343.74213600000814,
                    "velocity": 0.29133858267716534,
                    "duration": 0.7508068895833162
                },
                {
                    "name": "E4",
                    "midi": 64,
                    "time": 343.74213600000814,
                    "velocity": 0.29133858267716534,
                    "duration": 1.1612910000000056
                },
                {
                    "name": "A4",
                    "midi": 69,
                    "time": 344.5163300000081,
                    "velocity": 0.2440944881889764,
                    "duration": 0.3677421500000264
                },
                {
                    "name": "C5",
                    "midi": 72,
                    "time": 344.5163300000081,
                    "velocity": 0.28346456692913385,
                    "duration": 0.3677421500000264
                },
                {
                    "name": "E4",
                    "midi": 64,
                    "time": 344.90342700000815,
                    "velocity": 0.2755905511811024,
                    "duration": 0.7508068895833162
                },
                {
                    "name": "A4",
                    "midi": 69,
                    "time": 344.90342700000815,
                    "velocity": 0.2755905511811024,
                    "duration": 0.7508068895833162
                },
                {
                    "name": "C5",
                    "midi": 72,
                    "time": 344.90342700000815,
                    "velocity": 0.3228346456692913,
                    "duration": 0.7508068895833162
                },
                {
                    "name": "G4",
                    "midi": 67,
                    "time": 345.6776210000081,
                    "velocity": 0.2125984251968504,
                    "duration": 0.3677421500000264
                },
                {
                    "name": "B4",
                    "midi": 71,
                    "time": 345.6776210000081,
                    "velocity": 0.25196850393700787,
                    "duration": 0.3677421500000264
                },
                {
                    "name": "G4",
                    "midi": 67,
                    "time": 346.06471800000816,
                    "velocity": 0.25196850393700787,
                    "duration": 0.7508068895833162
                },
                {
                    "name": "B4",
                    "midi": 71,
                    "time": 346.06471800000816,
                    "velocity": 0.2992125984251969,
                    "duration": 0.7508068895833162
                },
                {
                    "name": "D4",
                    "midi": 62,
                    "time": 346.8389120000081,
                    "velocity": 0.2047244094488189,
                    "duration": 0.3677421500000264
                },
                {
                    "name": "F#4",
                    "midi": 66,
                    "time": 346.8389120000081,
                    "velocity": 0.2047244094488189,
                    "duration": 0.3677421500000264
                },
                {
                    "name": "A4",
                    "midi": 69,
                    "time": 346.8389120000081,
                    "velocity": 0.23622047244094488,
                    "duration": 0.3677421500000264
                },
                {
                    "name": "F#4",
                    "midi": 66,
                    "time": 347.22600900000816,
                    "velocity": 0.2283464566929134,
                    "duration": 0.7508068895833162
                },
                {
                    "name": "D4",
                    "midi": 62,
                    "time": 347.22600900000816,
                    "velocity": 0.2283464566929134,
                    "duration": 0.7508068895833162
                },
                {
                    "name": "A4",
                    "midi": 69,
                    "time": 347.22600900000816,
                    "velocity": 0.2755905511811024,
                    "duration": 0.7508068895833162
                },
                {
                    "name": "D4",
                    "midi": 62,
                    "time": 348.0002030000081,
                    "velocity": 0.1968503937007874,
                    "duration": 0.3677421500000264
                },
                {
                    "name": "F#4",
                    "midi": 66,
                    "time": 348.0002030000081,
                    "velocity": 0.1968503937007874,
                    "duration": 0.3677421500000264
                },
                {
                    "name": "A4",
                    "midi": 69,
                    "time": 348.0002030000081,
                    "velocity": 0.2283464566929134,
                    "duration": 0.3677421500000264
                },
                {
                    "name": "D4",
                    "midi": 62,
                    "time": 348.38730000000817,
                    "velocity": 0.2125984251968504,
                    "duration": 0.3677421500000264
                },
                {
                    "name": "F#4",
                    "midi": 66,
                    "time": 348.38730000000817,
                    "velocity": 0.2125984251968504,
                    "duration": 0.3677421500000264
                },
                {
                    "name": "A4",
                    "midi": 69,
                    "time": 348.38730000000817,
                    "velocity": 0.2440944881889764,
                    "duration": 0.3677421500000264
                },
                {
                    "name": "D4",
                    "midi": 62,
                    "time": 348.7743970000082,
                    "velocity": 0.1968503937007874,
                    "duration": 0.3677421500000264
                },
                {
                    "name": "F#4",
                    "midi": 66,
                    "time": 348.7743970000082,
                    "velocity": 0.1968503937007874,
                    "duration": 0.3677421500000264
                },
                {
                    "name": "A4",
                    "midi": 69,
                    "time": 348.7743970000082,
                    "velocity": 0.2283464566929134,
                    "duration": 0.3677421500000264
                },
                {
                    "name": "D4",
                    "midi": 62,
                    "time": 349.16149400000825,
                    "velocity": 0.1968503937007874,
                    "duration": 0.3677421500000264
                },
                {
                    "name": "F#4",
                    "midi": 66,
                    "time": 349.16149400000825,
                    "velocity": 0.1968503937007874,
                    "duration": 0.3677421500000264
                },
                {
                    "name": "A4",
                    "midi": 69,
                    "time": 349.16149400000825,
                    "velocity": 0.2283464566929134,
                    "duration": 0.3677421500000264
                },
                {
                    "name": "F#4",
                    "midi": 66,
                    "time": 349.5485910000083,
                    "velocity": 0.2283464566929134,
                    "duration": 0.7508068895833162
                },
                {
                    "name": "D4",
                    "midi": 62,
                    "time": 349.5485910000083,
                    "velocity": 0.2283464566929134,
                    "duration": 0.7508068895833162
                },
                {
                    "name": "A4",
                    "midi": 69,
                    "time": 349.5485910000083,
                    "velocity": 0.2755905511811024,
                    "duration": 0.7508068895833162
                },
                {
                    "name": "D4",
                    "midi": 62,
                    "time": 350.32278500000825,
                    "velocity": 0.1968503937007874,
                    "duration": 0.3677421500000264
                },
                {
                    "name": "F#4",
                    "midi": 66,
                    "time": 350.32278500000825,
                    "velocity": 0.1968503937007874,
                    "duration": 0.3677421500000264
                },
                {
                    "name": "A4",
                    "midi": 69,
                    "time": 350.32278500000825,
                    "velocity": 0.2283464566929134,
                    "duration": 0.3677421500000264
                },
                {
                    "name": "D4",
                    "midi": 62,
                    "time": 350.7098820000083,
                    "velocity": 0.2125984251968504,
                    "duration": 0.3677421500000264
                },
                {
                    "name": "F#4",
                    "midi": 66,
                    "time": 350.7098820000083,
                    "velocity": 0.2125984251968504,
                    "duration": 0.3677421500000264
                },
                {
                    "name": "A4",
                    "midi": 69,
                    "time": 350.7098820000083,
                    "velocity": 0.2440944881889764,
                    "duration": 0.3677421500000264
                },
                {
                    "name": "D4",
                    "midi": 62,
                    "time": 351.09697900000833,
                    "velocity": 0.1968503937007874,
                    "duration": 0.3677421500000264
                },
                {
                    "name": "F#4",
                    "midi": 66,
                    "time": 351.09697900000833,
                    "velocity": 0.1968503937007874,
                    "duration": 0.3677421500000264
                },
                {
                    "name": "A4",
                    "midi": 69,
                    "time": 351.09697900000833,
                    "velocity": 0.2283464566929134,
                    "duration": 0.3677421500000264
                },
                {
                    "name": "D4",
                    "midi": 62,
                    "time": 351.4840760000084,
                    "velocity": 0.1968503937007874,
                    "duration": 0.3677421500000264
                },
                {
                    "name": "F#4",
                    "midi": 66,
                    "time": 351.4840760000084,
                    "velocity": 0.1968503937007874,
                    "duration": 0.3677421500000264
                },
                {
                    "name": "A4",
                    "midi": 69,
                    "time": 351.4840760000084,
                    "velocity": 0.2283464566929134,
                    "duration": 0.3677421500000264
                },
                {
                    "name": "D#4",
                    "midi": 63,
                    "time": 351.8711730000084,
                    "velocity": 0.2283464566929134,
                    "duration": 0.7661294791666933
                },
                {
                    "name": "F#4",
                    "midi": 66,
                    "time": 351.8711730000084,
                    "velocity": 0.2283464566929134,
                    "duration": 0.7669359312500319
                },
                {
                    "name": "B4",
                    "midi": 71,
                    "time": 351.8711730000084,
                    "velocity": 0.2755905511811024,
                    "duration": 0.7669359312500319
                },
                {
                    "name": "D#4",
                    "midi": 63,
                    "time": 352.64536700000843,
                    "velocity": 0.2283464566929134,
                    "duration": 0.3677421500000264
                },
                {
                    "name": "F#4",
                    "midi": 66,
                    "time": 352.64536700000843,
                    "velocity": 0.2283464566929134,
                    "duration": 0.3677421500000264
                },
                {
                    "name": "B4",
                    "midi": 71,
                    "time": 352.64536700000843,
                    "velocity": 0.2755905511811024,
                    "duration": 0.3677421500000264
                },
                {
                    "name": "F#4",
                    "midi": 66,
                    "time": 353.0324640000085,
                    "velocity": 0.2283464566929134,
                    "duration": 0.3677421500000264
                },
                {
                    "name": "D#4",
                    "midi": 63,
                    "time": 353.0324640000085,
                    "velocity": 0.2283464566929134,
                    "duration": 0.3677421500000264
                },
                {
                    "name": "B4",
                    "midi": 71,
                    "time": 353.0324640000085,
                    "velocity": 0.2755905511811024,
                    "duration": 0.3677421500000264
                },
                {
                    "name": "D#4",
                    "midi": 63,
                    "time": 353.4195610000085,
                    "velocity": 0.2204724409448819,
                    "duration": 0.3677421500000264
                },
                {
                    "name": "F#4",
                    "midi": 66,
                    "time": 353.4195610000085,
                    "velocity": 0.2204724409448819,
                    "duration": 0.3677421500000264
                },
                {
                    "name": "B4",
                    "midi": 71,
                    "time": 353.4195610000085,
                    "velocity": 0.25984251968503935,
                    "duration": 0.3677421500000264
                },
                {
                    "name": "D#4",
                    "midi": 63,
                    "time": 353.80665800000855,
                    "velocity": 0.2204724409448819,
                    "duration": 0.3677421500000264
                },
                {
                    "name": "F#4",
                    "midi": 66,
                    "time": 353.80665800000855,
                    "velocity": 0.2204724409448819,
                    "duration": 0.3677421500000264
                },
                {
                    "name": "B4",
                    "midi": 71,
                    "time": 353.80665800000855,
                    "velocity": 0.25984251968503935,
                    "duration": 0.3677421500000264
                },
                {
                    "name": "D4",
                    "midi": 62,
                    "time": 354.1937550000086,
                    "velocity": 0.25984251968503935,
                    "duration": 0.3677421500000264
                },
                {
                    "name": "G4",
                    "midi": 67,
                    "time": 354.1937550000086,
                    "velocity": 0.25984251968503935,
                    "duration": 0.3677421500000264
                },
                {
                    "name": "B4",
                    "midi": 71,
                    "time": 354.1937550000086,
                    "velocity": 0.30708661417322836,
                    "duration": 0.3677421500000264
                },
                {
                    "name": "E4",
                    "midi": 64,
                    "time": 354.58085200000863,
                    "velocity": 0.28346456692913385,
                    "duration": 0.37580667083335584
                },
                {
                    "name": "G4",
                    "midi": 67,
                    "time": 354.58085200000863,
                    "velocity": 0.28346456692913385,
                    "duration": 0.37580667083335584
                },
                {
                    "name": "E5",
                    "midi": 76,
                    "time": 354.58085200000863,
                    "velocity": 0.33858267716535434,
                    "duration": 0.37580667083335584
                },
                {
                    "name": "G4",
                    "midi": 67,
                    "time": 354.9679490000087,
                    "velocity": 0.25984251968503935,
                    "duration": 0.3677421500000264
                },
                {
                    "name": "D4",
                    "midi": 62,
                    "time": 354.9679490000087,
                    "velocity": 0.25984251968503935,
                    "duration": 0.3677421500000264
                },
                {
                    "name": "D5",
                    "midi": 74,
                    "time": 354.9679490000087,
                    "velocity": 0.30708661417322836,
                    "duration": 0.3677421500000264
                },
                {
                    "name": "G4",
                    "midi": 67,
                    "time": 355.3550460000087,
                    "velocity": 0.25984251968503935,
                    "duration": 0.3677421500000264
                },
                {
                    "name": "D4",
                    "midi": 62,
                    "time": 355.3550460000087,
                    "velocity": 0.25984251968503935,
                    "duration": 0.3677421500000264
                },
                {
                    "name": "D5",
                    "midi": 74,
                    "time": 355.3550460000087,
                    "velocity": 0.30708661417322836,
                    "duration": 0.3677421500000264
                },
                {
                    "name": "D5",
                    "midi": 74,
                    "time": 355.74214300000875,
                    "velocity": 0.28346456692913385,
                    "duration": 0.3677421500000264
                },
                {
                    "name": "D4",
                    "midi": 62,
                    "time": 355.74214300000875,
                    "velocity": 0.23622047244094488,
                    "duration": 0.3677421500000264
                },
                {
                    "name": "G4",
                    "midi": 67,
                    "time": 355.74214300000875,
                    "velocity": 0.23622047244094488,
                    "duration": 0.3677421500000264
                },
                {
                    "name": "D5",
                    "midi": 74,
                    "time": 356.1292400000088,
                    "velocity": 0.28346456692913385,
                    "duration": 0.3677421500000264
                },
                {
                    "name": "D4",
                    "midi": 62,
                    "time": 356.1292400000088,
                    "velocity": 0.23622047244094488,
                    "duration": 0.3677421500000264
                },
                {
                    "name": "G4",
                    "midi": 67,
                    "time": 356.1292400000088,
                    "velocity": 0.23622047244094488,
                    "duration": 0.3677421500000264
                },
                {
                    "name": "D5",
                    "midi": 74,
                    "time": 356.51633700000883,
                    "velocity": 0.30708661417322836,
                    "duration": 0.3870969999999829
                },
                {
                    "name": "D4",
                    "midi": 62,
                    "time": 356.51633700000883,
                    "velocity": 0.25984251968503935,
                    "duration": 0.3870969999999829
                },
                {
                    "name": "G4",
                    "midi": 67,
                    "time": 356.51633700000883,
                    "velocity": 0.25984251968503935,
                    "duration": 0.3870969999999829
                },
                {
                    "name": "A3",
                    "midi": 57,
                    "time": 356.9034340000088,
                    "velocity": 0.2283464566929134,
                    "duration": 0.37580667083335584
                },
                {
                    "name": "D4",
                    "midi": 62,
                    "time": 356.9034340000088,
                    "velocity": 0.2283464566929134,
                    "duration": 0.37580667083335584
                },
                {
                    "name": "A4",
                    "midi": 69,
                    "time": 356.9034340000088,
                    "velocity": 0.2755905511811024,
                    "duration": 0.37580667083335584
                },
                {
                    "name": "C4",
                    "midi": 60,
                    "time": 357.29053100000885,
                    "velocity": 0.2283464566929134,
                    "duration": 0.3750002187500172
                },
                {
                    "name": "D4",
                    "midi": 62,
                    "time": 357.29053100000885,
                    "velocity": 0.2283464566929134,
                    "duration": 0.37580667083335584
                },
                {
                    "name": "C5",
                    "midi": 72,
                    "time": 357.29053100000885,
                    "velocity": 0.2755905511811024,
                    "duration": 0.3750002187500172
                },
                {
                    "name": "C5",
                    "midi": 72,
                    "time": 357.6776280000089,
                    "velocity": 0.30708661417322836,
                    "duration": 0.3750002187500172
                },
                {
                    "name": "C4",
                    "midi": 60,
                    "time": 357.6776280000089,
                    "velocity": 0.25984251968503935,
                    "duration": 0.3750002187500172
                },
                {
                    "name": "D4",
                    "midi": 62,
                    "time": 357.6776280000089,
                    "velocity": 0.25984251968503935,
                    "duration": 0.37580667083335584
                },
                {
                    "name": "B4",
                    "midi": 71,
                    "time": 358.06472500000893,
                    "velocity": 0.29133858267716534,
                    "duration": 0.37580667083335584
                },
                {
                    "name": "B3",
                    "midi": 59,
                    "time": 358.06472500000893,
                    "velocity": 0.2440944881889764,
                    "duration": 0.37580667083335584
                },
                {
                    "name": "D4",
                    "midi": 62,
                    "time": 358.06472500000893,
                    "velocity": 0.2440944881889764,
                    "duration": 0.37580667083335584
                },
                {
                    "name": "A4",
                    "midi": 69,
                    "time": 358.451822000009,
                    "velocity": 0.29133858267716534,
                    "duration": 0.37580667083335584
                },
                {
                    "name": "A3",
                    "midi": 57,
                    "time": 358.451822000009,
                    "velocity": 0.2440944881889764,
                    "duration": 0.37580667083335584
                },
                {
                    "name": "D4",
                    "midi": 62,
                    "time": 358.451822000009,
                    "velocity": 0.2440944881889764,
                    "duration": 0.37580667083335584
                },
                {
                    "name": "A3",
                    "midi": 57,
                    "time": 358.838919000009,
                    "velocity": 0.25984251968503935,
                    "duration": 0.37580667083335584
                },
                {
                    "name": "D4",
                    "midi": 62,
                    "time": 358.838919000009,
                    "velocity": 0.25984251968503935,
                    "duration": 0.37580667083335584
                },
                {
                    "name": "A4",
                    "midi": 69,
                    "time": 358.838919000009,
                    "velocity": 0.30708661417322836,
                    "duration": 0.37580667083335584
                },
                {
                    "name": "B3",
                    "midi": 59,
                    "time": 359.22601600000905,
                    "velocity": 0.25984251968503935,
                    "duration": 0.37580667083335584
                },
                {
                    "name": "D4",
                    "midi": 62,
                    "time": 359.22601600000905,
                    "velocity": 0.25984251968503935,
                    "duration": 0.37580667083335584
                },
                {
                    "name": "B4",
                    "midi": 71,
                    "time": 359.22601600000905,
                    "velocity": 0.30708661417322836,
                    "duration": 0.37580667083335584
                },
                {
                    "name": "D4",
                    "midi": 62,
                    "time": 359.6131130000091,
                    "velocity": 0.25984251968503935,
                    "duration": 0.37580667083335584
                },
                {
                    "name": "B3",
                    "midi": 59,
                    "time": 359.6131130000091,
                    "velocity": 0.25984251968503935,
                    "duration": 0.37580667083335584
                },
                {
                    "name": "B4",
                    "midi": 71,
                    "time": 359.6131130000091,
                    "velocity": 0.30708661417322836,
                    "duration": 0.37580667083335584
                },
                {
                    "name": "D4",
                    "midi": 62,
                    "time": 360.00021000000913,
                    "velocity": 0.29133858267716534,
                    "duration": 0.37580667083335584
                },
                {
                    "name": "B3",
                    "midi": 59,
                    "time": 360.00021000000913,
                    "velocity": 0.29133858267716534,
                    "duration": 0.37580667083335584
                },
                {
                    "name": "B4",
                    "midi": 71,
                    "time": 360.00021000000913,
                    "velocity": 0.3464566929133858,
                    "duration": 0.37580667083335584
                },
                {
                    "name": "B4",
                    "midi": 71,
                    "time": 360.3873070000092,
                    "velocity": 0.4015748031496063,
                    "duration": 0.37580667083335584
                },
                {
                    "name": "B3",
                    "midi": 59,
                    "time": 360.3873070000092,
                    "velocity": 0.33858267716535434,
                    "duration": 0.37580667083335584
                },
                {
                    "name": "G4",
                    "midi": 67,
                    "time": 360.3873070000092,
                    "velocity": 0.33858267716535434,
                    "duration": 0.37580667083335584
                },
                {
                    "name": "C5",
                    "midi": 72,
                    "time": 360.7744040000092,
                    "velocity": 0.47244094488188976,
                    "duration": 0.37580667083335584
                },
                {
                    "name": "C4",
                    "midi": 60,
                    "time": 360.7744040000092,
                    "velocity": 0.3937007874015748,
                    "duration": 0.37580667083335584
                },
                {
                    "name": "G4",
                    "midi": 67,
                    "time": 360.7744040000092,
                    "velocity": 0.3937007874015748,
                    "duration": 0.37580667083335584
                },
                {
                    "name": "D5",
                    "midi": 74,
                    "time": 361.16150100000925,
                    "velocity": 0.5196850393700787,
                    "duration": 0.7669359312500319
                },
                {
                    "name": "G4",
                    "midi": 67,
                    "time": 361.16150100000925,
                    "velocity": 0.4330708661417323,
                    "duration": 0.7661294791666933
                },
                {
                    "name": "D4",
                    "midi": 62,
                    "time": 361.16150100000925,
                    "velocity": 0.4330708661417323,
                    "duration": 0.7661294791666933
                },
                {
                    "name": "D5",
                    "midi": 74,
                    "time": 361.9356950000093,
                    "velocity": 0.4094488188976378,
                    "duration": 0.3677421500000264
                },
                {
                    "name": "G4",
                    "midi": 67,
                    "time": 361.9356950000093,
                    "velocity": 0.3464566929133858,
                    "duration": 0.3677421500000264
                },
                {
                    "name": "D4",
                    "midi": 62,
                    "time": 361.9356950000093,
                    "velocity": 0.3464566929133858,
                    "duration": 0.3677421500000264
                },
                {
                    "name": "G4",
                    "midi": 67,
                    "time": 362.3227920000093,
                    "velocity": 0.3464566929133858,
                    "duration": 0.3677421500000264
                },
                {
                    "name": "D4",
                    "midi": 62,
                    "time": 362.3227920000093,
                    "velocity": 0.3464566929133858,
                    "duration": 0.3677421500000264
                },
                {
                    "name": "D5",
                    "midi": 74,
                    "time": 362.3227920000093,
                    "velocity": 0.4094488188976378,
                    "duration": 0.3677421500000264
                },
                {
                    "name": "G4",
                    "midi": 67,
                    "time": 362.70988900000935,
                    "velocity": 0.33070866141732286,
                    "duration": 0.3677421500000264
                },
                {
                    "name": "C4",
                    "midi": 60,
                    "time": 362.70988900000935,
                    "velocity": 0.33070866141732286,
                    "duration": 0.3677421500000264
                },
                {
                    "name": "C5",
                    "midi": 72,
                    "time": 362.70988900000935,
                    "velocity": 0.3937007874015748,
                    "duration": 0.3677421500000264
                },
                {
                    "name": "G4",
                    "midi": 67,
                    "time": 363.0969860000094,
                    "velocity": 0.33070866141732286,
                    "duration": 0.3677421500000264
                },
                {
                    "name": "B3",
                    "midi": 59,
                    "time": 363.0969860000094,
                    "velocity": 0.33070866141732286,
                    "duration": 0.3677421500000264
                },
                {
                    "name": "B4",
                    "midi": 71,
                    "time": 363.0969860000094,
                    "velocity": 0.3937007874015748,
                    "duration": 0.3677421500000264
                },
                {
                    "name": "D4",
                    "midi": 62,
                    "time": 363.48408300000943,
                    "velocity": 0.3543307086614173,
                    "duration": 0.3677421500000264
                },
                {
                    "name": "G4",
                    "midi": 67,
                    "time": 363.48408300000943,
                    "velocity": 0.3543307086614173,
                    "duration": 0.3677421500000264
                },
                {
                    "name": "D5",
                    "midi": 74,
                    "time": 363.48408300000943,
                    "velocity": 0.4251968503937008,
                    "duration": 0.3677421500000264
                },
                {
                    "name": "G4",
                    "midi": 67,
                    "time": 363.8711800000095,
                    "velocity": 0.41732283464566927,
                    "duration": 0.37580667083335584
                },
                {
                    "name": "B4",
                    "midi": 71,
                    "time": 363.8711800000095,
                    "velocity": 0.41732283464566927,
                    "duration": 0.37580667083335584
                },
                {
                    "name": "G5",
                    "midi": 79,
                    "time": 363.8711800000095,
                    "velocity": 0.49606299212598426,
                    "duration": 0.37580667083335584
                },
                {
                    "name": "B4",
                    "midi": 71,
                    "time": 364.2582770000095,
                    "velocity": 0.4409448818897638,
                    "duration": 0.3677421500000264
                },
                {
                    "name": "D5",
                    "midi": 74,
                    "time": 364.2582770000095,
                    "velocity": 0.4409448818897638,
                    "duration": 0.3677421500000264
                },
                {
                    "name": "B5",
                    "midi": 83,
                    "time": 364.2582770000095,
                    "velocity": 0.5196850393700787,
                    "duration": 0.3677421500000264
                },
                {
                    "name": "B4",
                    "midi": 71,
                    "time": 364.64537400000955,
                    "velocity": 0.4409448818897638,
                    "duration": 0.3677421500000264
                },
                {
                    "name": "D5",
                    "midi": 74,
                    "time": 364.64537400000955,
                    "velocity": 0.4409448818897638,
                    "duration": 0.3677421500000264
                },
                {
                    "name": "B5",
                    "midi": 83,
                    "time": 364.64537400000955,
                    "velocity": 0.5196850393700787,
                    "duration": 0.3677421500000264
                },
                {
                    "name": "B4",
                    "midi": 71,
                    "time": 365.0324710000096,
                    "velocity": 0.4566929133858268,
                    "duration": 0.3677421500000264
                },
                {
                    "name": "D5",
                    "midi": 74,
                    "time": 365.0324710000096,
                    "velocity": 0.4566929133858268,
                    "duration": 0.3677421500000264
                },
                {
                    "name": "B5",
                    "midi": 83,
                    "time": 365.0324710000096,
                    "velocity": 0.5433070866141733,
                    "duration": 0.3677421500000264
                },
                {
                    "name": "B4",
                    "midi": 71,
                    "time": 365.41956800000963,
                    "velocity": 0.48031496062992124,
                    "duration": 0.3677421500000264
                },
                {
                    "name": "D5",
                    "midi": 74,
                    "time": 365.41956800000963,
                    "velocity": 0.48031496062992124,
                    "duration": 0.3677421500000264
                },
                {
                    "name": "B5",
                    "midi": 83,
                    "time": 365.41956800000963,
                    "velocity": 0.5669291338582677,
                    "duration": 0.3677421500000264
                },
                {
                    "name": "B4",
                    "midi": 71,
                    "time": 365.8066650000097,
                    "velocity": 0.49606299212598426,
                    "duration": 0.3677421500000264
                },
                {
                    "name": "D#5",
                    "midi": 75,
                    "time": 365.8066650000097,
                    "velocity": 0.49606299212598426,
                    "duration": 0.3677421500000264
                },
                {
                    "name": "B5",
                    "midi": 83,
                    "time": 365.8066650000097,
                    "velocity": 0.5905511811023622,
                    "duration": 0.3677421500000264
                },
                {
                    "name": "B4",
                    "midi": 71,
                    "time": 366.1937620000097,
                    "velocity": 0.4409448818897638,
                    "duration": 0.3677421500000264
                },
                {
                    "name": "D#5",
                    "midi": 75,
                    "time": 366.1937620000097,
                    "velocity": 0.4409448818897638,
                    "duration": 0.3677421500000264
                },
                {
                    "name": "B5",
                    "midi": 83,
                    "time": 366.1937620000097,
                    "velocity": 0.5196850393700787,
                    "duration": 0.3677421500000264
                },
                {
                    "name": "B4",
                    "midi": 71,
                    "time": 366.58085900000975,
                    "velocity": 0.4094488188976378,
                    "duration": 0.3677421500000264
                },
                {
                    "name": "D#5",
                    "midi": 75,
                    "time": 366.58085900000975,
                    "velocity": 0.4094488188976378,
                    "duration": 0.3677421500000264
                },
                {
                    "name": "B5",
                    "midi": 83,
                    "time": 366.58085900000975,
                    "velocity": 0.48031496062992124,
                    "duration": 0.3677421500000264
                },
                {
                    "name": "B4",
                    "midi": 71,
                    "time": 366.9679560000098,
                    "velocity": 0.3464566929133858,
                    "duration": 0.3677421500000264
                },
                {
                    "name": "D#5",
                    "midi": 75,
                    "time": 366.9679560000098,
                    "velocity": 0.3464566929133858,
                    "duration": 0.3677421500000264
                },
                {
                    "name": "B5",
                    "midi": 83,
                    "time": 366.9679560000098,
                    "velocity": 0.4094488188976378,
                    "duration": 0.3677421500000264
                },
                {
                    "name": "B4",
                    "midi": 71,
                    "time": 367.35505300000983,
                    "velocity": 0.31496062992125984,
                    "duration": 0.3677421500000264
                },
                {
                    "name": "D#5",
                    "midi": 75,
                    "time": 367.35505300000983,
                    "velocity": 0.31496062992125984,
                    "duration": 0.3677421500000264
                },
                {
                    "name": "B5",
                    "midi": 83,
                    "time": 367.35505300000983,
                    "velocity": 0.3779527559055118,
                    "duration": 0.3677421500000264
                },
                {
                    "name": "B4",
                    "midi": 71,
                    "time": 367.7421500000099,
                    "velocity": 0.28346456692913385,
                    "duration": 0.3677421500000264
                },
                {
                    "name": "D#5",
                    "midi": 75,
                    "time": 367.7421500000099,
                    "velocity": 0.28346456692913385,
                    "duration": 0.3677421500000264
                },
                {
                    "name": "B5",
                    "midi": 83,
                    "time": 367.7421500000099,
                    "velocity": 0.33858267716535434,
                    "duration": 0.3677421500000264
                },
                {
                    "name": "B4",
                    "midi": 71,
                    "time": 368.1292470000099,
                    "velocity": 0.25196850393700787,
                    "duration": 0.37580667083335584
                },
                {
                    "name": "D5",
                    "midi": 74,
                    "time": 368.1292470000099,
                    "velocity": 0.25196850393700787,
                    "duration": 0.37580667083335584
                },
                {
                    "name": "B5",
                    "midi": 83,
                    "time": 368.1292470000099,
                    "velocity": 0.30708661417322836,
                    "duration": 0.37580667083335584
                },
                {
                    "name": "C5",
                    "midi": 72,
                    "time": 368.51634400000995,
                    "velocity": 0.2440944881889764,
                    "duration": 0.37580667083335584
                },
                {
                    "name": "D5",
                    "midi": 74,
                    "time": 368.51634400000995,
                    "velocity": 0.2440944881889764,
                    "duration": 0.37580667083335584
                },
                {
                    "name": "C6",
                    "midi": 84,
                    "time": 368.51634400000995,
                    "velocity": 0.28346456692913385,
                    "duration": 0.37580667083335584
                },
                {
                    "name": "D5",
                    "midi": 74,
                    "time": 368.90344100001,
                    "velocity": 0.25196850393700787,
                    "duration": 0.37580667083335584
                },
                {
                    "name": "D6",
                    "midi": 86,
                    "time": 368.90344100001,
                    "velocity": 0.2992125984251969,
                    "duration": 0.37580667083335584
                },
                {
                    "name": "G4",
                    "midi": 67,
                    "time": 369.29053800001003,
                    "velocity": 0.28346456692913385,
                    "duration": 0.37580667083335584
                },
                {
                    "name": "B4",
                    "midi": 71,
                    "time": 369.29053800001003,
                    "velocity": 0.28346456692913385,
                    "duration": 0.37580667083335584
                },
                {
                    "name": "G5",
                    "midi": 79,
                    "time": 369.29053800001003,
                    "velocity": 0.33858267716535434,
                    "duration": 0.37580667083335584
                },
                {
                    "name": "A4",
                    "midi": 69,
                    "time": 369.67763500001007,
                    "velocity": 0.23622047244094488,
                    "duration": 0.37580667083335584
                },
                {
                    "name": "D5",
                    "midi": 74,
                    "time": 369.67763500001007,
                    "velocity": 0.23622047244094488,
                    "duration": 0.37580667083335584
                },
                {
                    "name": "F#5",
                    "midi": 78,
                    "time": 369.67763500001007,
                    "velocity": 0.23622047244094488,
                    "duration": 0.37580667083335584
                },
                {
                    "name": "A5",
                    "midi": 81,
                    "time": 369.67763500001007,
                    "velocity": 0.28346456692913385,
                    "duration": 0.37580667083335584
                },
                {
                    "name": "D5",
                    "midi": 74,
                    "time": 370.0647320000101,
                    "velocity": 0.23622047244094488,
                    "duration": 0.37580667083335584
                },
                {
                    "name": "G5",
                    "midi": 79,
                    "time": 370.0647320000101,
                    "velocity": 0.23622047244094488,
                    "duration": 0.37580667083335584
                },
                {
                    "name": "B4",
                    "midi": 71,
                    "time": 370.0647320000101,
                    "velocity": 0.23622047244094488,
                    "duration": 0.37580667083335584
                },
                {
                    "name": "B5",
                    "midi": 83,
                    "time": 370.0647320000101,
                    "velocity": 0.28346456692913385,
                    "duration": 0.37580667083335584
                },
                {
                    "name": "D5",
                    "midi": 74,
                    "time": 370.45182900001015,
                    "velocity": 0.2677165354330709,
                    "duration": 0.7669359312499751
                },
                {
                    "name": "F#5",
                    "midi": 78,
                    "time": 370.45182900001015,
                    "velocity": 0.2677165354330709,
                    "duration": 0.7669359312499751
                },
                {
                    "name": "C5",
                    "midi": 72,
                    "time": 370.45182900001015,
                    "velocity": 0.2677165354330709,
                    "duration": 0.7669359312499751
                },
                {
                    "name": "A5",
                    "midi": 81,
                    "time": 370.45182900001015,
                    "velocity": 0.3228346456692913,
                    "duration": 0.7669359312499751
                },
                {
                    "name": "B4",
                    "midi": 71,
                    "time": 371.2260230000101,
                    "velocity": 0.25196850393700787,
                    "duration": 0.37580667083335584
                },
                {
                    "name": "D5",
                    "midi": 74,
                    "time": 371.2260230000101,
                    "velocity": 0.25196850393700787,
                    "duration": 0.37580667083335584
                },
                {
                    "name": "G5",
                    "midi": 79,
                    "time": 371.2260230000101,
                    "velocity": 0.2992125984251969,
                    "duration": 0.37580667083335584
                },
                {
                    "name": "D5",
                    "midi": 74,
                    "time": 371.61312000001016,
                    "velocity": 0.23622047244094488,
                    "duration": 0.37580667083335584
                },
                {
                    "name": "G5",
                    "midi": 79,
                    "time": 371.61312000001016,
                    "velocity": 0.28346456692913385,
                    "duration": 0.37580667083335584
                },
                {
                    "name": "B4",
                    "midi": 71,
                    "time": 371.61312000001016,
                    "velocity": 0.23622047244094488,
                    "duration": 0.37580667083335584
                },
                {
                    "name": "D5",
                    "midi": 74,
                    "time": 372.0002170000102,
                    "velocity": 0.16535433070866143,
                    "duration": 0.3677421500000264
                },
                {
                    "name": "G5",
                    "midi": 79,
                    "time": 372.0002170000102,
                    "velocity": 0.2283464566929134,
                    "duration": 0.3677421500000264
                },
                {
                    "name": "B4",
                    "midi": 71,
                    "time": 372.0002170000102,
                    "velocity": 0.16535433070866143,
                    "duration": 0.3677421500000264
                },
                {
                    "name": "G5",
                    "midi": 79,
                    "time": 372.38731400001024,
                    "velocity": 0.2283464566929134,
                    "duration": 0.3677421500000264
                },
                {
                    "name": "B4",
                    "midi": 71,
                    "time": 372.38731400001024,
                    "velocity": 0.16535433070866143,
                    "duration": 0.3677421500000264
                },
                {
                    "name": "D5",
                    "midi": 74,
                    "time": 372.38731400001024,
                    "velocity": 0.16535433070866143,
                    "duration": 0.3677421500000264
                },
                {
                    "name": "B4",
                    "midi": 71,
                    "time": 372.7744110000103,
                    "velocity": 0.2440944881889764,
                    "duration": 0.7661294791666933
                },
                {
                    "name": "G5",
                    "midi": 79,
                    "time": 372.7744110000103,
                    "velocity": 0.29133858267716534,
                    "duration": 0.7669359312500319
                },
                {
                    "name": "D5",
                    "midi": 74,
                    "time": 372.7744110000103,
                    "velocity": 0.2440944881889764,
                    "duration": 0.7669359312500319
                },
                {
                    "name": "G4",
                    "midi": 67,
                    "time": 373.5486050000103,
                    "velocity": 0.2125984251968504,
                    "duration": 0.3677421500000264
                },
                {
                    "name": "E5",
                    "midi": 76,
                    "time": 373.5486050000103,
                    "velocity": 0.25196850393700787,
                    "duration": 0.3677421500000264
                },
                {
                    "name": "B4",
                    "midi": 71,
                    "time": 373.5486050000103,
                    "velocity": 0.2125984251968504,
                    "duration": 0.3677421500000264
                },
                {
                    "name": "E5",
                    "midi": 76,
                    "time": 373.93570200001034,
                    "velocity": 0.28346456692913385,
                    "duration": 0.3677421500000264
                },
                {
                    "name": "G4",
                    "midi": 67,
                    "time": 373.93570200001034,
                    "velocity": 0.23622047244094488,
                    "duration": 0.3677421500000264
                },
                {
                    "name": "B4",
                    "midi": 71,
                    "time": 373.93570200001034,
                    "velocity": 0.23622047244094488,
                    "duration": 0.3677421500000264
                },
                {
                    "name": "G4",
                    "midi": 67,
                    "time": 374.3227990000104,
                    "velocity": 0.2204724409448819,
                    "duration": 0.3677421500000264
                },
                {
                    "name": "C#5",
                    "midi": 73,
                    "time": 374.3227990000104,
                    "velocity": 0.25984251968503935,
                    "duration": 0.3677421500000264
                },
                {
                    "name": "E4",
                    "midi": 64,
                    "time": 374.3227990000104,
                    "velocity": 0.2204724409448819,
                    "duration": 0.3677421500000264
                },
                {
                    "name": "B4",
                    "midi": 71,
                    "time": 374.7098960000104,
                    "velocity": 0.25984251968503935,
                    "duration": 0.3677421500000264
                },
                {
                    "name": "D4",
                    "midi": 62,
                    "time": 374.7098960000104,
                    "velocity": 0.2204724409448819,
                    "duration": 0.3677421500000264
                },
                {
                    "name": "G4",
                    "midi": 67,
                    "time": 374.7098960000104,
                    "velocity": 0.2204724409448819,
                    "duration": 0.3677421500000264
                },
                {
                    "name": "C#4",
                    "midi": 61,
                    "time": 375.09699300001046,
                    "velocity": 0.2440944881889764,
                    "duration": 0.7661294791666933
                },
                {
                    "name": "B4",
                    "midi": 71,
                    "time": 375.09699300001046,
                    "velocity": 0.29133858267716534,
                    "duration": 0.7669359312500319
                },
                {
                    "name": "G4",
                    "midi": 67,
                    "time": 375.09699300001046,
                    "velocity": 0.2440944881889764,
                    "duration": 0.7669359312500319
                },
                {
                    "name": "C#4",
                    "midi": 61,
                    "time": 375.8711870000105,
                    "velocity": 0.2125984251968504,
                    "duration": 0.3677421500000264
                },
                {
                    "name": "A4",
                    "midi": 69,
                    "time": 375.8711870000105,
                    "velocity": 0.25196850393700787,
                    "duration": 0.3677421500000264
                },
                {
                    "name": "G4",
                    "midi": 67,
                    "time": 375.8711870000105,
                    "velocity": 0.2125984251968504,
                    "duration": 0.3677421500000264
                },
                {
                    "name": "C#4",
                    "midi": 61,
                    "time": 376.2582840000105,
                    "velocity": 0.23622047244094488,
                    "duration": 0.3677421500000264
                },
                {
                    "name": "G4",
                    "midi": 67,
                    "time": 376.2582840000105,
                    "velocity": 0.23622047244094488,
                    "duration": 0.3677421500000264
                },
                {
                    "name": "A4",
                    "midi": 69,
                    "time": 376.2582840000105,
                    "velocity": 0.28346456692913385,
                    "duration": 0.3677421500000264
                },
                {
                    "name": "D4",
                    "midi": 62,
                    "time": 376.64538100001056,
                    "velocity": 0.2204724409448819,
                    "duration": 0.3677421500000264
                },
                {
                    "name": "G4",
                    "midi": 67,
                    "time": 376.64538100001056,
                    "velocity": 0.2204724409448819,
                    "duration": 0.3677421500000264
                },
                {
                    "name": "B4",
                    "midi": 71,
                    "time": 376.64538100001056,
                    "velocity": 0.25984251968503935,
                    "duration": 0.3677421500000264
                },
                {
                    "name": "G4",
                    "midi": 67,
                    "time": 377.0324780000106,
                    "velocity": 0.2204724409448819,
                    "duration": 0.3677421500000264
                },
                {
                    "name": "B4",
                    "midi": 71,
                    "time": 377.0324780000106,
                    "velocity": 0.25984251968503935,
                    "duration": 0.3677421500000264
                },
                {
                    "name": "D4",
                    "midi": 62,
                    "time": 377.0324780000106,
                    "velocity": 0.2204724409448819,
                    "duration": 0.3677421500000264
                },
                {
                    "name": "G4",
                    "midi": 67,
                    "time": 377.41957500001064,
                    "velocity": 0.2440944881889764,
                    "duration": 0.7669359312500319
                },
                {
                    "name": "B4",
                    "midi": 71,
                    "time": 377.41957500001064,
                    "velocity": 0.29133858267716534,
                    "duration": 0.7669359312500319
                },
                {
                    "name": "C#4",
                    "midi": 61,
                    "time": 377.41957500001064,
                    "velocity": 0.2440944881889764,
                    "duration": 0.7661294791666933
                },
                {
                    "name": "A4",
                    "midi": 69,
                    "time": 378.19376900001066,
                    "velocity": 0.2440944881889764,
                    "duration": 0.3677421500000264
                },
                {
                    "name": "C#4",
                    "midi": 61,
                    "time": 378.19376900001066,
                    "velocity": 0.2047244094488189,
                    "duration": 0.3677421500000264
                },
                {
                    "name": "G4",
                    "midi": 67,
                    "time": 378.19376900001066,
                    "velocity": 0.2047244094488189,
                    "duration": 0.3677421500000264
                },
                {
                    "name": "C#4",
                    "midi": 61,
                    "time": 378.5808660000107,
                    "velocity": 0.2283464566929134,
                    "duration": 0.3677421500000264
                },
                {
                    "name": "A4",
                    "midi": 69,
                    "time": 378.5808660000107,
                    "velocity": 0.2677165354330709,
                    "duration": 0.3677421500000264
                },
                {
                    "name": "G4",
                    "midi": 67,
                    "time": 378.5808660000107,
                    "velocity": 0.2283464566929134,
                    "duration": 0.3677421500000264
                },
                {
                    "name": "G4",
                    "midi": 67,
                    "time": 378.96796300001074,
                    "velocity": 0.2047244094488189,
                    "duration": 0.3677421500000264
                },
                {
                    "name": "A#4",
                    "midi": 70,
                    "time": 378.96796300001074,
                    "velocity": 0.2440944881889764,
                    "duration": 0.3677421500000264
                },
                {
                    "name": "D4",
                    "midi": 62,
                    "time": 378.96796300001074,
                    "velocity": 0.2047244094488189,
                    "duration": 0.3677421500000264
                },
                {
                    "name": "A#4",
                    "midi": 70,
                    "time": 379.3550600000108,
                    "velocity": 0.2440944881889764,
                    "duration": 0.3677421500000264
                },
                {
                    "name": "D4",
                    "midi": 62,
                    "time": 379.3550600000108,
                    "velocity": 0.2047244094488189,
                    "duration": 0.3677421500000264
                },
                {
                    "name": "G4",
                    "midi": 67,
                    "time": 379.3550600000108,
                    "velocity": 0.2047244094488189,
                    "duration": 0.3677421500000264
                },
                {
                    "name": "A#4",
                    "midi": 70,
                    "time": 379.7421570000108,
                    "velocity": 0.2677165354330709,
                    "duration": 0.7661294791666933
                },
                {
                    "name": "G4",
                    "midi": 67,
                    "time": 379.7421570000108,
                    "velocity": 0.2204724409448819,
                    "duration": 0.7669359312500319
                },
                {
                    "name": "C#4",
                    "midi": 61,
                    "time": 379.7421570000108,
                    "velocity": 0.2204724409448819,
                    "duration": 0.7661294791666933
                },
                {
                    "name": "C#4",
                    "midi": 61,
                    "time": 380.51635100001084,
                    "velocity": 0.1889763779527559,
                    "duration": 0.3677421500000264
                },
                {
                    "name": "G4",
                    "midi": 67,
                    "time": 380.51635100001084,
                    "velocity": 0.1889763779527559,
                    "duration": 0.3677421500000264
                },
                {
                    "name": "A4",
                    "midi": 69,
                    "time": 380.51635100001084,
                    "velocity": 0.2204724409448819,
                    "duration": 0.3677421500000264
                },
                {
                    "name": "C#4",
                    "midi": 61,
                    "time": 380.9034480000109,
                    "velocity": 0.2125984251968504,
                    "duration": 0.7661294791666933
                },
                {
                    "name": "A4",
                    "midi": 69,
                    "time": 380.9034480000109,
                    "velocity": 0.25196850393700787,
                    "duration": 0.7661294791666933
                },
                {
                    "name": "G4",
                    "midi": 67,
                    "time": 380.9034480000109,
                    "velocity": 0.2125984251968504,
                    "duration": 0.7669359312500319
                },
                {
                    "name": "G4",
                    "midi": 67,
                    "time": 381.6776420000109,
                    "velocity": 0.18110236220472442,
                    "duration": 0.3677421500000264
                },
                {
                    "name": "C#4",
                    "midi": 61,
                    "time": 381.6776420000109,
                    "velocity": 0.18110236220472442,
                    "duration": 0.3677421500000264
                },
                {
                    "name": "A4",
                    "midi": 69,
                    "time": 381.6776420000109,
                    "velocity": 0.2125984251968504,
                    "duration": 0.3677421500000264
                },
                {
                    "name": "G4",
                    "midi": 67,
                    "time": 382.06473900001095,
                    "velocity": 0.2047244094488189,
                    "duration": 0.7669359312500319
                },
                {
                    "name": "C#4",
                    "midi": 61,
                    "time": 382.06473900001095,
                    "velocity": 0.2047244094488189,
                    "duration": 0.7661294791666933
                },
                {
                    "name": "A4",
                    "midi": 69,
                    "time": 382.06473900001095,
                    "velocity": 0.2440944881889764,
                    "duration": 0.7661294791666933
                },
                {
                    "name": "G4",
                    "midi": 67,
                    "time": 382.83893300001097,
                    "velocity": 0.1732283464566929,
                    "duration": 0.3677421500000264
                },
                {
                    "name": "A4",
                    "midi": 69,
                    "time": 382.83893300001097,
                    "velocity": 0.2047244094488189,
                    "duration": 0.3677421500000264
                },
                {
                    "name": "C#4",
                    "midi": 61,
                    "time": 382.83893300001097,
                    "velocity": 0.1732283464566929,
                    "duration": 0.3677421500000264
                },
                {
                    "name": "A4",
                    "midi": 69,
                    "time": 383.226030000011,
                    "velocity": 0.2283464566929134,
                    "duration": 0.28225822916664356
                },
                {
                    "name": "C#4",
                    "midi": 61,
                    "time": 383.226030000011,
                    "velocity": 0.1968503937007874,
                    "duration": 0.28225822916664356
                },
                {
                    "name": "G4",
                    "midi": 67,
                    "time": 383.226030000011,
                    "velocity": 0.1968503937007874,
                    "duration": 0.28225822916664356
                },
                {
                    "name": "C#4",
                    "midi": 61,
                    "time": 383.516352750011,
                    "velocity": 0.5511811023622047,
                    "duration": 0.04838712499997655
                },
                {
                    "name": "G3",
                    "midi": 55,
                    "time": 383.516352750011,
                    "velocity": 0.4645669291338583,
                    "duration": 0.04838712499997655
                },
                {
                    "name": "A3",
                    "midi": 57,
                    "time": 383.516352750011,
                    "velocity": 0.4645669291338583,
                    "duration": 0.04838712499997655
                },
                {
                    "name": "G3",
                    "midi": 55,
                    "time": 383.61312700001093,
                    "velocity": 0.5039370078740157,
                    "duration": 0.290322749999973
                },
                {
                    "name": "A3",
                    "midi": 57,
                    "time": 383.61312700001093,
                    "velocity": 0.5039370078740157,
                    "duration": 0.290322749999973
                },
                {
                    "name": "C#4",
                    "midi": 61,
                    "time": 383.61312700001093,
                    "velocity": 0.5984251968503937,
                    "duration": 0.290322749999973
                },
                {
                    "name": "G3",
                    "midi": 55,
                    "time": 383.9034497500109,
                    "velocity": 0.4645669291338583,
                    "duration": 0.04838712499997655
                },
                {
                    "name": "C#4",
                    "midi": 61,
                    "time": 383.9034497500109,
                    "velocity": 0.5511811023622047,
                    "duration": 0.04838712499997655
                },
                {
                    "name": "A3",
                    "midi": 57,
                    "time": 383.9034497500109,
                    "velocity": 0.4645669291338583,
                    "duration": 0.04838712499997655
                },
                {
                    "name": "A3",
                    "midi": 57,
                    "time": 384.00022400001086,
                    "velocity": 0.49606299212598426,
                    "duration": 0.290322749999973
                },
                {
                    "name": "D4",
                    "midi": 62,
                    "time": 384.00022400001086,
                    "velocity": 0.5905511811023622,
                    "duration": 0.290322749999973
                },
                {
                    "name": "G3",
                    "midi": 55,
                    "time": 384.00022400001086,
                    "velocity": 0.49606299212598426,
                    "duration": 0.290322749999973
                },
                {
                    "name": "E4",
                    "midi": 64,
                    "time": 384.29054675001083,
                    "velocity": 0.5511811023622047,
                    "duration": 0.04838712499997655
                },
                {
                    "name": "G3",
                    "midi": 55,
                    "time": 384.29054675001083,
                    "velocity": 0.4645669291338583,
                    "duration": 0.04838712499997655
                },
                {
                    "name": "A3",
                    "midi": 57,
                    "time": 384.29054675001083,
                    "velocity": 0.4645669291338583,
                    "duration": 0.04838712499997655
                },
                {
                    "name": "D4",
                    "midi": 62,
                    "time": 384.3873210000108,
                    "velocity": 0.5354330708661418,
                    "duration": 0.7508068895833162
                },
                {
                    "name": "F#4",
                    "midi": 66,
                    "time": 384.3873210000108,
                    "velocity": 0.6299212598425197,
                    "duration": 0.7508068895833162
                },
                {
                    "name": "F#3",
                    "midi": 54,
                    "time": 384.3873210000108,
                    "velocity": 0.5354330708661418,
                    "duration": 0.7508068895833162
                },
                {
                    "name": "A3",
                    "midi": 57,
                    "time": 384.3873210000108,
                    "velocity": 0.5354330708661418,
                    "duration": 0.7508068895833162
                },
                {
                    "name": "D4",
                    "midi": 62,
                    "time": 385.16151500001075,
                    "velocity": 0.5354330708661418,
                    "duration": 0.6572584479166608
                },
                {
                    "name": "F#3",
                    "midi": 54,
                    "time": 385.16151500001075,
                    "velocity": 0.5354330708661418,
                    "duration": 0.6572584479166608
                },
                {
                    "name": "A3",
                    "midi": 57,
                    "time": 385.16151500001075,
                    "velocity": 0.5354330708661418,
                    "duration": 0.6572584479166608
                },
                {
                    "name": "F#4",
                    "midi": 66,
                    "time": 385.16151500001075,
                    "velocity": 0.6299212598425197,
                    "duration": 0.6572584479166608
                },
                {
                    "name": "F#4",
                    "midi": 66,
                    "time": 385.83893475001076,
                    "velocity": 0.5275590551181102,
                    "duration": 0.09677425000000994
                },
                {
                    "name": "G4",
                    "midi": 67,
                    "time": 385.9357090000108,
                    "velocity": 0.5905511811023622,
                    "duration": 0.290322749999973
                },
                {
                    "name": "A3",
                    "midi": 57,
                    "time": 385.9357090000108,
                    "velocity": 0.5196850393700787,
                    "duration": 0.375806670833299
                },
                {
                    "name": "F#4",
                    "midi": 66,
                    "time": 386.22603175001075,
                    "velocity": 0.5511811023622047,
                    "duration": 0.09677425000000994
                },
                {
                    "name": "E4",
                    "midi": 64,
                    "time": 386.32280600001076,
                    "velocity": 0.5826771653543307,
                    "duration": 0.09677425000000994
                },
                {
                    "name": "A3",
                    "midi": 57,
                    "time": 386.32280600001076,
                    "velocity": 0.5196850393700787,
                    "duration": 0.37580667083335584
                },
                {
                    "name": "F#4",
                    "midi": 66,
                    "time": 386.41958025001077,
                    "velocity": 0.5196850393700787,
                    "duration": 0.09677425000000994
                },
                {
                    "name": "E4",
                    "midi": 64,
                    "time": 386.5163545000108,
                    "velocity": 0.5196850393700787,
                    "duration": 0.09677425000000994
                },
                {
                    "name": "D4",
                    "midi": 62,
                    "time": 386.6131287500108,
                    "velocity": 0.5511811023622047,
                    "duration": 0.09677425000000994
                },
                {
                    "name": "A3",
                    "midi": 57,
                    "time": 386.7099030000108,
                    "velocity": 0.5354330708661418,
                    "duration": 0.7508068895833162
                },
                {
                    "name": "E4",
                    "midi": 64,
                    "time": 386.7099030000108,
                    "velocity": 0.5354330708661418,
                    "duration": 0.7508068895833162
                },
                {
                    "name": "A4",
                    "midi": 69,
                    "time": 386.7099030000108,
                    "velocity": 0.6299212598425197,
                    "duration": 0.7508068895833162
                },
                {
                    "name": "A3",
                    "midi": 57,
                    "time": 387.48409700001076,
                    "velocity": 0.5354330708661418,
                    "duration": 0.6572584479166608
                },
                {
                    "name": "A4",
                    "midi": 69,
                    "time": 387.48409700001076,
                    "velocity": 0.6299212598425197,
                    "duration": 0.6572584479166608
                },
                {
                    "name": "E4",
                    "midi": 64,
                    "time": 387.48409700001076,
                    "velocity": 0.5354330708661418,
                    "duration": 0.6572584479166608
                },
                {
                    "name": "A4",
                    "midi": 69,
                    "time": 388.1615167500108,
                    "velocity": 0.5275590551181102,
                    "duration": 0.09677425000000994
                },
                {
                    "name": "B4",
                    "midi": 71,
                    "time": 388.2582910000108,
                    "velocity": 0.5905511811023622,
                    "duration": 0.09677425000000994
                },
                {
                    "name": "E4",
                    "midi": 64,
                    "time": 388.2582910000108,
                    "velocity": 0.5196850393700787,
                    "duration": 0.37580667083335584
                },
                {
                    "name": "C#5",
                    "midi": 73,
                    "time": 388.3550652500108,
                    "velocity": 0.5196850393700787,
                    "duration": 0.09677425000000994
                },
                {
                    "name": "B4",
                    "midi": 71,
                    "time": 388.4518395000108,
                    "velocity": 0.5354330708661418,
                    "duration": 0.09677425000000994
                },
                {
                    "name": "A4",
                    "midi": 69,
                    "time": 388.5486137500108,
                    "velocity": 0.5511811023622047,
                    "duration": 0.09677425000000994
                },
                {
                    "name": "E4",
                    "midi": 64,
                    "time": 388.6453880000108,
                    "velocity": 0.5196850393700787,
                    "duration": 0.3870969999999829
                },
                {
                    "name": "B4",
                    "midi": 71,
                    "time": 388.6453880000108,
                    "velocity": 0.5826771653543307,
                    "duration": 0.290322749999973
                },
                {
                    "name": "C#5",
                    "midi": 73,
                    "time": 388.9357107500108,
                    "velocity": 0.5511811023622047,
                    "duration": 0.09677425000000994
                },
                {
                    "name": "D4",
                    "midi": 62,
                    "time": 389.0324850000108,
                    "velocity": 0.5354330708661418,
                    "duration": 0.7508068895833162
                },
                {
                    "name": "F#4",
                    "midi": 66,
                    "time": 389.0324850000108,
                    "velocity": 0.5354330708661418,
                    "duration": 0.7508068895833162
                },
                {
                    "name": "D5",
                    "midi": 74,
                    "time": 389.0324850000108,
                    "velocity": 0.6299212598425197,
                    "duration": 0.7508068895833162
                },
                {
                    "name": "B4",
                    "midi": 71,
                    "time": 389.0324850000108,
                    "velocity": 0.5354330708661418,
                    "duration": 0.7508068895833162
                },
                {
                    "name": "D4",
                    "midi": 62,
                    "time": 389.8066790000108,
                    "velocity": 0.5354330708661418,
                    "duration": 0.5725809791666734
                },
                {
                    "name": "B4",
                    "midi": 71,
                    "time": 389.8066790000108,
                    "velocity": 0.5354330708661418,
                    "duration": 0.5725809791666734
                },
                {
                    "name": "D5",
                    "midi": 74,
                    "time": 389.8066790000108,
                    "velocity": 0.6299212598425197,
                    "duration": 0.5725809791666734
                },
                {
                    "name": "F#4",
                    "midi": 66,
                    "time": 389.8066790000108,
                    "velocity": 0.5354330708661418,
                    "duration": 0.5725809791666734
                },
                {
                    "name": "G#4",
                    "midi": 68,
                    "time": 390.3873245000108,
                    "velocity": 0.49606299212598426,
                    "duration": 0.09677425000000994
                },
                {
                    "name": "D5",
                    "midi": 74,
                    "time": 390.3873245000108,
                    "velocity": 0.5905511811023622,
                    "duration": 0.09677425000000994
                },
                {
                    "name": "G#4",
                    "midi": 68,
                    "time": 390.5808730000108,
                    "velocity": 0.5354330708661418,
                    "duration": 0.09677425000000994
                },
                {
                    "name": "D5",
                    "midi": 74,
                    "time": 390.5808730000108,
                    "velocity": 0.6299212598425197,
                    "duration": 0.09677425000000994
                },
                {
                    "name": "D5",
                    "midi": 74,
                    "time": 390.7744215000108,
                    "velocity": 0.6220472440944882,
                    "duration": 0.09677425000000994
                },
                {
                    "name": "E5",
                    "midi": 76,
                    "time": 390.7744215000108,
                    "velocity": 0.6220472440944882,
                    "duration": 0.09677425000000994
                },
                {
                    "name": "G#4",
                    "midi": 68,
                    "time": 390.7744215000108,
                    "velocity": 0.5275590551181102,
                    "duration": 0.09677425000000994
                },
                {
                    "name": "G#4",
                    "midi": 68,
                    "time": 390.96797000001084,
                    "velocity": 0.5511811023622047,
                    "duration": 0.09677425000000994
                },
                {
                    "name": "F#5",
                    "midi": 78,
                    "time": 390.96797000001084,
                    "velocity": 0.6535433070866141,
                    "duration": 0.09677425000000994
                },
                {
                    "name": "D5",
                    "midi": 74,
                    "time": 390.96797000001084,
                    "velocity": 0.5511811023622047,
                    "duration": 0.09677425000000994
                },
                {
                    "name": "G#4",
                    "midi": 68,
                    "time": 391.16151850001086,
                    "velocity": 0.5748031496062992,
                    "duration": 0.09677425000000994
                },
                {
                    "name": "G#5",
                    "midi": 80,
                    "time": 391.16151850001086,
                    "velocity": 0.6771653543307087,
                    "duration": 0.09677425000000994
                },
                {
                    "name": "D5",
                    "midi": 74,
                    "time": 391.16151850001086,
                    "velocity": 0.5748031496062992,
                    "duration": 0.09677425000000994
                },
                {
                    "name": "C#5",
                    "midi": 73,
                    "time": 391.3550670000109,
                    "velocity": 0.5984251968503937,
                    "duration": 0.7508068895833162
                },
                {
                    "name": "A5",
                    "midi": 81,
                    "time": 391.3550670000109,
                    "velocity": 0.7086614173228346,
                    "duration": 0.7508068895833162
                },
                {
                    "name": "A4",
                    "midi": 69,
                    "time": 391.3550670000109,
                    "velocity": 0.5984251968503937,
                    "duration": 0.7508068895833162
                },
                {
                    "name": "C#4",
                    "midi": 61,
                    "time": 392.12926100001084,
                    "velocity": 0.5748031496062992,
                    "duration": 0.7741940000000227
                },
                {
                    "name": "A4",
                    "midi": 69,
                    "time": 392.12926100001084,
                    "velocity": 0.6850393700787402,
                    "duration": 0.7741940000000227
                },
                {
                    "name": "A3",
                    "midi": 57,
                    "time": 392.12926100001084,
                    "velocity": 0.5748031496062992,
                    "duration": 0.7741940000000227
                },
                {
                    "name": "A5",
                    "midi": 81,
                    "time": 392.90345500001087,
                    "velocity": 0.48031496062992124,
                    "duration": 0.3870969999999829
                },
                {
                    "name": "A#5",
                    "midi": 82,
                    "time": 393.29055200001085,
                    "velocity": 0.4566929133858268,
                    "duration": 0.3870969999999829
                },
                {
                    "name": "B5",
                    "midi": 83,
                    "time": 393.67764900001083,
                    "velocity": 0.4881889763779528,
                    "duration": 0.12903233333332764
                },
                {
                    "name": "A#5",
                    "midi": 82,
                    "time": 393.80668133334416,
                    "velocity": 0.44881889763779526,
                    "duration": 0.12903233333332764
                },
                {
                    "name": "B5",
                    "midi": 83,
                    "time": 393.9357136666775,
                    "velocity": 0.44881889763779526,
                    "duration": 0.12903233333332764
                },
                {
                    "name": "E6",
                    "midi": 88,
                    "time": 394.0647460000108,
                    "velocity": 0.49606299212598426,
                    "duration": 0.12903233333332764
                },
                {
                    "name": "D#6",
                    "midi": 87,
                    "time": 394.19377833334414,
                    "velocity": 0.48031496062992124,
                    "duration": 0.12903233333332764
                },
                {
                    "name": "E6",
                    "midi": 88,
                    "time": 394.32281066667747,
                    "velocity": 0.5118110236220472,
                    "duration": 0.12903233333332764
                },
                {
                    "name": "G6",
                    "midi": 91,
                    "time": 394.4518430000108,
                    "velocity": 0.5511811023622047,
                    "duration": 0.6774197500000128
                },
                {
                    "name": "F#6",
                    "midi": 90,
                    "time": 395.1292627500108,
                    "velocity": 0.48031496062992124,
                    "duration": 0.09677425000000994
                },
                {
                    "name": "E6",
                    "midi": 88,
                    "time": 395.2260370000108,
                    "velocity": 0.5433070866141733,
                    "duration": 0.290322749999973
                },
                {
                    "name": "D6",
                    "midi": 86,
                    "time": 395.5163597500108,
                    "velocity": 0.4881889763779528,
                    "duration": 0.09677425000000994
                },
                {
                    "name": "C#6",
                    "midi": 85,
                    "time": 395.6131340000108,
                    "velocity": 0.5511811023622047,
                    "duration": 0.290322749999973
                },
                {
                    "name": "B5",
                    "midi": 83,
                    "time": 395.9034567500108,
                    "velocity": 0.4881889763779528,
                    "duration": 0.09677425000000994
                },
                {
                    "name": "A5",
                    "midi": 81,
                    "time": 396.0002310000108,
                    "velocity": 0.5433070866141733,
                    "duration": 0.12903233333332764
                },
                {
                    "name": "G#5",
                    "midi": 80,
                    "time": 396.1292633333441,
                    "velocity": 0.47244094488188976,
                    "duration": 0.12903233333332764
                },
                {
                    "name": "A5",
                    "midi": 81,
                    "time": 396.25829566667744,
                    "velocity": 0.4330708661417323,
                    "duration": 0.12903233333332764
                },
                {
                    "name": "D6",
                    "midi": 86,
                    "time": 396.38732800001077,
                    "velocity": 0.5354330708661418,
                    "duration": 0.12903233333332764
                },
                {
                    "name": "C#6",
                    "midi": 85,
                    "time": 396.5163603333441,
                    "velocity": 0.5118110236220472,
                    "duration": 0.12903233333332764
                },
                {
                    "name": "D6",
                    "midi": 86,
                    "time": 396.6453926666774,
                    "velocity": 0.5433070866141733,
                    "duration": 0.12903233333332764
                },
                {
                    "name": "F#6",
                    "midi": 90,
                    "time": 396.77442500001075,
                    "velocity": 0.5669291338582677,
                    "duration": 0.6774197500000128
                },
                {
                    "name": "E6",
                    "midi": 88,
                    "time": 397.45184475001076,
                    "velocity": 0.48031496062992124,
                    "duration": 0.09677425000000994
                },
                {
                    "name": "D6",
                    "midi": 86,
                    "time": 397.5486190000108,
                    "velocity": 0.5433070866141733,
                    "duration": 0.290322749999973
                },
                {
                    "name": "C#6",
                    "midi": 85,
                    "time": 397.83894175001075,
                    "velocity": 0.4881889763779528,
                    "duration": 0.09677425000000994
                },
                {
                    "name": "B5",
                    "midi": 83,
                    "time": 397.93571600001076,
                    "velocity": 0.5511811023622047,
                    "duration": 0.290322749999973
                },
                {
                    "name": "A5",
                    "midi": 81,
                    "time": 398.22603875001073,
                    "velocity": 0.4881889763779528,
                    "duration": 0.09677425000000994
                },
                {
                    "name": "G5",
                    "midi": 79,
                    "time": 398.32281300001074,
                    "velocity": 0.5275590551181102,
                    "duration": 0.12903233333332764
                },
                {
                    "name": "F#5",
                    "midi": 78,
                    "time": 398.45184533334407,
                    "velocity": 0.4566929133858268,
                    "duration": 0.12903233333332764
                },
                {
                    "name": "G5",
                    "midi": 79,
                    "time": 398.5808776666774,
                    "velocity": 0.4566929133858268,
                    "duration": 0.12903233333332764
                },
                {
                    "name": "C#6",
                    "midi": 85,
                    "time": 398.7099100000107,
                    "velocity": 0.49606299212598426,
                    "duration": 0.12903233333332764
                },
                {
                    "name": "C6",
                    "midi": 84,
                    "time": 398.83894233334405,
                    "velocity": 0.48031496062992124,
                    "duration": 0.12903233333332764
                },
                {
                    "name": "C#6",
                    "midi": 85,
                    "time": 398.9679746666774,
                    "velocity": 0.5118110236220472,
                    "duration": 0.12903233333332764
                },
                {
                    "name": "E6",
                    "midi": 88,
                    "time": 399.0970070000107,
                    "velocity": 0.5511811023622047,
                    "duration": 0.6774197500000128
                },
                {
                    "name": "D6",
                    "midi": 86,
                    "time": 399.7744267500107,
                    "velocity": 0.4645669291338583,
                    "duration": 0.09677425000000994
                },
                {
                    "name": "C#6",
                    "midi": 85,
                    "time": 399.8712010000107,
                    "velocity": 0.5354330708661418,
                    "duration": 0.290322749999973
                },
                {
                    "name": "D6",
                    "midi": 86,
                    "time": 400.1615237500107,
                    "velocity": 0.44881889763779526,
                    "duration": 0.09677425000000994
                },
                {
                    "name": "C#6",
                    "midi": 85,
                    "time": 400.2582980000107,
                    "velocity": 0.5275590551181102,
                    "duration": 0.290322749999973
                },
                {
                    "name": "B5",
                    "midi": 83,
                    "time": 400.5486207500107,
                    "velocity": 0.4566929133858268,
                    "duration": 0.09677425000000994
                },
                {
                    "name": "A#5",
                    "midi": 82,
                    "time": 400.6453950000107,
                    "velocity": 0.49606299212598426,
                    "duration": 0.7508068895833162
                },
                {
                    "name": "F#5",
                    "midi": 78,
                    "time": 400.6453950000107,
                    "velocity": 0.41732283464566927,
                    "duration": 0.7508068895833162
                },
                {
                    "name": "A#5",
                    "midi": 82,
                    "time": 401.41958900001066,
                    "velocity": 0.4409448818897638,
                    "duration": 0.6572584479166608
                },
                {
                    "name": "F#5",
                    "midi": 78,
                    "time": 401.41958900001066,
                    "velocity": 0.3700787401574803,
                    "duration": 0.7661294791666933
                },
                {
                    "name": "A#5",
                    "midi": 82,
                    "time": 402.0970087500107,
                    "velocity": 0.36220472440944884,
                    "duration": 0.09677425000000994
                },
                {
                    "name": "B5",
                    "midi": 83,
                    "time": 402.1937830000107,
                    "velocity": 0.4094488188976378,
                    "duration": 0.290322749999973
                },
                {
                    "name": "F#5",
                    "midi": 78,
                    "time": 402.1937830000107,
                    "velocity": 0.36220472440944884,
                    "duration": 0.375806670833299
                },
                {
                    "name": "A#5",
                    "midi": 82,
                    "time": 402.48410575001066,
                    "velocity": 0.3858267716535433,
                    "duration": 0.09677425000000994
                },
                {
                    "name": "B5",
                    "midi": 83,
                    "time": 402.58088000001067,
                    "velocity": 0.4015748031496063,
                    "duration": 0.290322749999973
                },
                {
                    "name": "F#5",
                    "midi": 78,
                    "time": 402.58088000001067,
                    "velocity": 0.36220472440944884,
                    "duration": 0.375806670833299
                },
                {
                    "name": "A#5",
                    "midi": 82,
                    "time": 402.87120275001064,
                    "velocity": 0.3858267716535433,
                    "duration": 0.09677425000000994
                },
                {
                    "name": "F5",
                    "midi": 77,
                    "time": 402.96797700001065,
                    "velocity": 0.3700787401574803,
                    "duration": 0.7508068895833162
                },
                {
                    "name": "G#5",
                    "midi": 80,
                    "time": 402.96797700001065,
                    "velocity": 0.4409448818897638,
                    "duration": 0.7508068895833162
                },
                {
                    "name": "F5",
                    "midi": 77,
                    "time": 403.7421710000106,
                    "velocity": 0.3700787401574803,
                    "duration": 0.7661294791666933
                },
                {
                    "name": "G#5",
                    "midi": 80,
                    "time": 403.7421710000106,
                    "velocity": 0.4409448818897638,
                    "duration": 0.6572584479166608
                },
                {
                    "name": "G#5",
                    "midi": 80,
                    "time": 404.4195907500106,
                    "velocity": 0.36220472440944884,
                    "duration": 0.09677425000000994
                },
                {
                    "name": "A#5",
                    "midi": 82,
                    "time": 404.51636500001064,
                    "velocity": 0.4094488188976378,
                    "duration": 0.290322749999973
                },
                {
                    "name": "F5",
                    "midi": 77,
                    "time": 404.51636500001064,
                    "velocity": 0.36220472440944884,
                    "duration": 0.37500021874996037
                },
                {
                    "name": "G#5",
                    "midi": 80,
                    "time": 404.8066877500106,
                    "velocity": 0.3858267716535433,
                    "duration": 0.09677425000000994
                },
                {
                    "name": "F5",
                    "midi": 77,
                    "time": 404.9034620000106,
                    "velocity": 0.36220472440944884,
                    "duration": 0.37500021874996037
                },
                {
                    "name": "A#5",
                    "midi": 82,
                    "time": 404.9034620000106,
                    "velocity": 0.4015748031496063,
                    "duration": 0.290322749999973
                },
                {
                    "name": "G#5",
                    "midi": 80,
                    "time": 405.1937847500106,
                    "velocity": 0.3858267716535433,
                    "duration": 0.09677425000000994
                },
                {
                    "name": "F#5",
                    "midi": 78,
                    "time": 405.2905590000106,
                    "velocity": 0.4409448818897638,
                    "duration": 0.7508068895833162
                },
                {
                    "name": "F#5",
                    "midi": 78,
                    "time": 406.06475300001057,
                    "velocity": 0.4409448818897638,
                    "duration": 0.6693552291666833
                },
                {
                    "name": "G3",
                    "midi": 55,
                    "time": 406.7421727500106,
                    "velocity": 0.4645669291338583,
                    "duration": 0.04838712499997655
                },
                {
                    "name": "C#3",
                    "midi": 49,
                    "time": 406.7421727500106,
                    "velocity": 0.4645669291338583,
                    "duration": 0.04838712499997655
                },
                {
                    "name": "A3",
                    "midi": 57,
                    "time": 406.7421727500106,
                    "velocity": 0.5511811023622047,
                    "duration": 0.04838712499997655
                },
                {
                    "name": "G3",
                    "midi": 55,
                    "time": 406.83894700001053,
                    "velocity": 0.5039370078740157,
                    "duration": 0.290322749999973
                },
                {
                    "name": "C#3",
                    "midi": 49,
                    "time": 406.83894700001053,
                    "velocity": 0.5039370078740157,
                    "duration": 0.290322749999973
                },
                {
                    "name": "A3",
                    "midi": 57,
                    "time": 406.83894700001053,
                    "velocity": 0.5984251968503937,
                    "duration": 0.290322749999973
                },
                {
                    "name": "G3",
                    "midi": 55,
                    "time": 407.1292697500105,
                    "velocity": 0.4645669291338583,
                    "duration": 0.04838712499997655
                },
                {
                    "name": "A3",
                    "midi": 57,
                    "time": 407.1292697500105,
                    "velocity": 0.5511811023622047,
                    "duration": 0.04838712499997655
                },
                {
                    "name": "C#3",
                    "midi": 49,
                    "time": 407.1292697500105,
                    "velocity": 0.4645669291338583,
                    "duration": 0.04838712499997655
                },
                {
                    "name": "B3",
                    "midi": 59,
                    "time": 407.22604400001046,
                    "velocity": 0.5905511811023622,
                    "duration": 0.290322749999973
                },
                {
                    "name": "C#3",
                    "midi": 49,
                    "time": 407.22604400001046,
                    "velocity": 0.49606299212598426,
                    "duration": 0.290322749999973
                },
                {
                    "name": "G3",
                    "midi": 55,
                    "time": 407.22604400001046,
                    "velocity": 0.49606299212598426,
                    "duration": 0.290322749999973
                },
                {
                    "name": "C#4",
                    "midi": 61,
                    "time": 407.51636675001043,
                    "velocity": 0.5511811023622047,
                    "duration": 0.04838712499997655
                },
                {
                    "name": "C#3",
                    "midi": 49,
                    "time": 407.51636675001043,
                    "velocity": 0.4645669291338583,
                    "duration": 0.04838712499997655
                },
                {
                    "name": "G3",
                    "midi": 55,
                    "time": 407.51636675001043,
                    "velocity": 0.4645669291338583,
                    "duration": 0.04838712499997655
                },
                {
                    "name": "D3",
                    "midi": 50,
                    "time": 407.6131410000104,
                    "velocity": 0.5354330708661418,
                    "duration": 0.7508068895833162
                },
                {
                    "name": "F#3",
                    "midi": 54,
                    "time": 407.6131410000104,
                    "velocity": 0.5354330708661418,
                    "duration": 0.7508068895833162
                },
                {
                    "name": "D4",
                    "midi": 62,
                    "time": 407.6131410000104,
                    "velocity": 0.6299212598425197,
                    "duration": 0.7508068895833162
                },
                {
                    "name": "B3",
                    "midi": 59,
                    "time": 408.38733500001035,
                    "velocity": 0.5354330708661418,
                    "duration": 0.750806889583373
                },
                {
                    "name": "F#3",
                    "midi": 54,
                    "time": 408.38733500001035,
                    "velocity": 0.5354330708661418,
                    "duration": 0.750806889583373
                },
                {
                    "name": "D4",
                    "midi": 62,
                    "time": 408.38733500001035,
                    "velocity": 0.6299212598425197,
                    "duration": 0.6572584479166608
                },
                {
                    "name": "D3",
                    "midi": 50,
                    "time": 408.38733500001035,
                    "velocity": 0.5354330708661418,
                    "duration": 0.750806889583373
                },
                {
                    "name": "D4",
                    "midi": 62,
                    "time": 409.06475475001037,
                    "velocity": 0.5275590551181102,
                    "duration": 0.09677425000000994
                },
                {
                    "name": "D4",
                    "midi": 62,
                    "time": 409.1615290000104,
                    "velocity": 0.5905511811023622,
                    "duration": 0.290322749999973
                },
                {
                    "name": "F#3",
                    "midi": 54,
                    "time": 409.1615290000104,
                    "velocity": 0.5196850393700787,
                    "duration": 0.375806670833299
                },
                {
                    "name": "E4",
                    "midi": 64,
                    "time": 409.45185175001035,
                    "velocity": 0.5511811023622047,
                    "duration": 0.09677425000000994
                },
                {
                    "name": "F#4",
                    "midi": 66,
                    "time": 409.54862600001036,
                    "velocity": 0.5826771653543307,
                    "duration": 0.290322749999973
                },
                {
                    "name": "F#3",
                    "midi": 54,
                    "time": 409.54862600001036,
                    "velocity": 0.5196850393700787,
                    "duration": 0.375806670833299
                },
                {
                    "name": "D4",
                    "midi": 62,
                    "time": 409.83894875001033,
                    "velocity": 0.5511811023622047,
                    "duration": 0.09677425000000994
                },
                {
                    "name": "E4",
                    "midi": 64,
                    "time": 409.93572300001034,
                    "velocity": 0.5354330708661418,
                    "duration": 0.7508068895833162
                },
                {
                    "name": "A4",
                    "midi": 69,
                    "time": 409.93572300001034,
                    "velocity": 0.6299212598425197,
                    "duration": 0.7508068895833162
                },
                {
                    "name": "G4",
                    "midi": 67,
                    "time": 409.93572300001034,
                    "velocity": 0.5354330708661418,
                    "duration": 0.7741939999999659
                },
                {
                    "name": "A3",
                    "midi": 57,
                    "time": 409.93572300001034,
                    "velocity": 0.5354330708661418,
                    "duration": 0.7508068895833162
                },
                {
                    "name": "A3",
                    "midi": 57,
                    "time": 410.7099170000103,
                    "velocity": 0.5354330708661418,
                    "duration": 0.6572584479166608
                },
                {
                    "name": "E4",
                    "midi": 64,
                    "time": 410.7099170000103,
                    "velocity": 0.5354330708661418,
                    "duration": 0.6572584479166608
                },
                {
                    "name": "G4",
                    "midi": 67,
                    "time": 410.7099170000103,
                    "velocity": 0.5354330708661418,
                    "duration": 0.6572584479166608
                },
                {
                    "name": "A4",
                    "midi": 69,
                    "time": 410.7099170000103,
                    "velocity": 0.6299212598425197,
                    "duration": 0.6572584479166608
                },
                {
                    "name": "G4",
                    "midi": 67,
                    "time": 411.3873367500103,
                    "velocity": 0.41732283464566927,
                    "duration": 0.09193553749997818
                },
                {
                    "name": "A4",
                    "midi": 69,
                    "time": 411.3873367500103,
                    "velocity": 0.5275590551181102,
                    "duration": 0.09193553749997818
                },
                {
                    "name": "E4",
                    "midi": 64,
                    "time": 411.3873367500103,
                    "velocity": 0.41732283464566927,
                    "duration": 0.09193553749997818
                },
                {
                    "name": "G4",
                    "midi": 67,
                    "time": 411.4841110000103,
                    "velocity": 0.47244094488188976,
                    "duration": 0.2758066124999914
                },
                {
                    "name": "A4",
                    "midi": 69,
                    "time": 411.4841110000103,
                    "velocity": 0.5905511811023622,
                    "duration": 0.2685485437500006
                },
                {
                    "name": "E4",
                    "midi": 64,
                    "time": 411.4841110000103,
                    "velocity": 0.47244094488188976,
                    "duration": 0.2758066124999914
                },
                {
                    "name": "A4",
                    "midi": 69,
                    "time": 411.77443375001025,
                    "velocity": 0.5511811023622047,
                    "duration": 0.09193553749997818
                },
                {
                    "name": "E4",
                    "midi": 64,
                    "time": 411.77443375001025,
                    "velocity": 0.4409448818897638,
                    "duration": 0.09193553749997818
                },
                {
                    "name": "G4",
                    "midi": 67,
                    "time": 411.77443375001025,
                    "velocity": 0.4409448818897638,
                    "duration": 0.09193553749997818
                },
                {
                    "name": "G4",
                    "midi": 67,
                    "time": 411.8712080000102,
                    "velocity": 0.4645669291338583,
                    "duration": 0.2758066124999914
                },
                {
                    "name": "E4",
                    "midi": 64,
                    "time": 411.8712080000102,
                    "velocity": 0.4645669291338583,
                    "duration": 0.2758066124999914
                },
                {
                    "name": "B4",
                    "midi": 71,
                    "time": 411.8712080000102,
                    "velocity": 0.5826771653543307,
                    "duration": 0.2758066124999914
                },
                {
                    "name": "E4",
                    "midi": 64,
                    "time": 412.1615307500102,
                    "velocity": 0.4409448818897638,
                    "duration": 0.09677425000000994
                },
                {
                    "name": "G4",
                    "midi": 67,
                    "time": 412.1615307500102,
                    "velocity": 0.4409448818897638,
                    "duration": 0.09677425000000994
                },
                {
                    "name": "C#5",
                    "midi": 73,
                    "time": 412.1615307500102,
                    "velocity": 0.5511811023622047,
                    "duration": 0.09677425000000994
                },
                {
                    "name": "F#4",
                    "midi": 66,
                    "time": 412.2583050000102,
                    "velocity": 0.5354330708661418,
                    "duration": 0.7508068895833162
                },
                {
                    "name": "A4",
                    "midi": 69,
                    "time": 412.2583050000102,
                    "velocity": 0.5354330708661418,
                    "duration": 0.7508068895833162
                },
                {
                    "name": "D4",
                    "midi": 62,
                    "time": 412.2583050000102,
                    "velocity": 0.5354330708661418,
                    "duration": 0.7508068895833162
                },
                {
                    "name": "D5",
                    "midi": 74,
                    "time": 412.2583050000102,
                    "velocity": 0.6299212598425197,
                    "duration": 0.7508068895833162
                },
                {
                    "name": "D4",
                    "midi": 62,
                    "time": 413.03249900001015,
                    "velocity": 0.5354330708661418,
                    "duration": 0.5725809791666734
                },
                {
                    "name": "G4",
                    "midi": 67,
                    "time": 413.03249900001015,
                    "velocity": 0.5354330708661418,
                    "duration": 0.5725809791666734
                },
                {
                    "name": "D5",
                    "midi": 74,
                    "time": 413.03249900001015,
                    "velocity": 0.6299212598425197,
                    "duration": 0.5725809791666734
                },
                {
                    "name": "D5",
                    "midi": 74,
                    "time": 413.61314450001015,
                    "velocity": 0.5905511811023622,
                    "duration": 0.09677425000000994
                },
                {
                    "name": "G#4",
                    "midi": 68,
                    "time": 413.61314450001015,
                    "velocity": 0.49606299212598426,
                    "duration": 0.09677425000000994
                },
                {
                    "name": "G#4",
                    "midi": 68,
                    "time": 413.80669300001017,
                    "velocity": 0.5354330708661418,
                    "duration": 0.09677425000000994
                },
                {
                    "name": "D5",
                    "midi": 74,
                    "time": 413.80669300001017,
                    "velocity": 0.6299212598425197,
                    "duration": 0.09677425000000994
                },
                {
                    "name": "G#4",
                    "midi": 68,
                    "time": 414.0002415000102,
                    "velocity": 0.5275590551181102,
                    "duration": 0.09677425000000994
                },
                {
                    "name": "D5",
                    "midi": 74,
                    "time": 414.0002415000102,
                    "velocity": 0.6220472440944882,
                    "duration": 0.09677425000000994
                },
                {
                    "name": "E5",
                    "midi": 76,
                    "time": 414.0002415000102,
                    "velocity": 0.6220472440944882,
                    "duration": 0.09677425000000994
                },
                {
                    "name": "D5",
                    "midi": 74,
                    "time": 414.1937900000102,
                    "velocity": 0.5511811023622047,
                    "duration": 0.09677425000000994
                },
                {
                    "name": "F#5",
                    "midi": 78,
                    "time": 414.1937900000102,
                    "velocity": 0.6535433070866141,
                    "duration": 0.09677425000000994
                },
                {
                    "name": "G#4",
                    "midi": 68,
                    "time": 414.1937900000102,
                    "velocity": 0.5511811023622047,
                    "duration": 0.09677425000000994
                },
                {
                    "name": "D5",
                    "midi": 74,
                    "time": 414.38733850001023,
                    "velocity": 0.5748031496062992,
                    "duration": 0.09677425000000994
                },
                {
                    "name": "G#5",
                    "midi": 80,
                    "time": 414.38733850001023,
                    "velocity": 0.6771653543307087,
                    "duration": 0.09677425000000994
                },
                {
                    "name": "G#4",
                    "midi": 68,
                    "time": 414.38733850001023,
                    "velocity": 0.5748031496062992,
                    "duration": 0.09677425000000994
                },
                {
                    "name": "A5",
                    "midi": 81,
                    "time": 414.58088700001025,
                    "velocity": 0.7086614173228346,
                    "duration": 0.7508068895833162
                },
                {
                    "name": "A4",
                    "midi": 69,
                    "time": 414.58088700001025,
                    "velocity": 0.5984251968503937,
                    "duration": 0.7508068895833162
                },
                {
                    "name": "C#5",
                    "midi": 73,
                    "time": 414.58088700001025,
                    "velocity": 0.5984251968503937,
                    "duration": 0.7508068895833162
                },
                {
                    "name": "C#4",
                    "midi": 61,
                    "time": 415.3550810000102,
                    "velocity": 0.5748031496062992,
                    "duration": 0.7741940000000227
                },
                {
                    "name": "A4",
                    "midi": 69,
                    "time": 415.3550810000102,
                    "velocity": 0.6850393700787402,
                    "duration": 0.7741940000000227
                },
                {
                    "name": "A3",
                    "midi": 57,
                    "time": 415.3550810000102,
                    "velocity": 0.5748031496062992,
                    "duration": 0.7741940000000227
                },
                {
                    "name": "E5",
                    "midi": 76,
                    "time": 416.12927500001024,
                    "velocity": 0.48031496062992124,
                    "duration": 0.3870969999999829
                },
                {
                    "name": "F5",
                    "midi": 77,
                    "time": 416.5163720000102,
                    "velocity": 0.4566929133858268,
                    "duration": 0.3870969999999829
                },
                {
                    "name": "F#5",
                    "midi": 78,
                    "time": 416.9034690000102,
                    "velocity": 0.4881889763779528,
                    "duration": 0.12903233333332764
                },
                {
                    "name": "F5",
                    "midi": 77,
                    "time": 417.03250133334353,
                    "velocity": 0.44881889763779526,
                    "duration": 0.12903233333332764
                },
                {
                    "name": "F#5",
                    "midi": 78,
                    "time": 417.16153366667686,
                    "velocity": 0.44881889763779526,
                    "duration": 0.12903233333332764
                },
                {
                    "name": "B5",
                    "midi": 83,
                    "time": 417.2905660000102,
                    "velocity": 0.49606299212598426,
                    "duration": 0.12903233333332764
                },
                {
                    "name": "A#5",
                    "midi": 82,
                    "time": 417.4195983333435,
                    "velocity": 0.48031496062992124,
                    "duration": 0.12903233333332764
                },
                {
                    "name": "B5",
                    "midi": 83,
                    "time": 417.54863066667684,
                    "velocity": 0.5118110236220472,
                    "duration": 0.12903233333332764
                },
                {
                    "name": "D6",
                    "midi": 86,
                    "time": 417.67766300001017,
                    "velocity": 0.5511811023622047,
                    "duration": 0.6774197500000128
                },
                {
                    "name": "C#6",
                    "midi": 85,
                    "time": 418.3550827500102,
                    "velocity": 0.48031496062992124,
                    "duration": 0.09677425000000994
                },
                {
                    "name": "B5",
                    "midi": 83,
                    "time": 418.4518570000102,
                    "velocity": 0.5433070866141733,
                    "duration": 0.09677425000000994
                },
                {
                    "name": "C#6",
                    "midi": 85,
                    "time": 418.5486312500102,
                    "velocity": 0.49606299212598426,
                    "duration": 0.09677425000000994
                },
                {
                    "name": "B5",
                    "midi": 83,
                    "time": 418.6454055000102,
                    "velocity": 0.49606299212598426,
                    "duration": 0.09677425000000994
                },
                {
                    "name": "A5",
                    "midi": 81,
                    "time": 418.7421797500102,
                    "velocity": 0.4881889763779528,
                    "duration": 0.09677425000000994
                },
                {
                    "name": "G#5",
                    "midi": 80,
                    "time": 418.83895400001023,
                    "velocity": 0.5511811023622047,
                    "duration": 0.09677425000000994
                },
                {
                    "name": "A5",
                    "midi": 81,
                    "time": 418.93572825001024,
                    "velocity": 0.5118110236220472,
                    "duration": 0.09677425000000994
                },
                {
                    "name": "G#5",
                    "midi": 80,
                    "time": 419.03250250001025,
                    "velocity": 0.5196850393700787,
                    "duration": 0.09677425000000994
                },
                {
                    "name": "F#5",
                    "midi": 78,
                    "time": 419.12927675001026,
                    "velocity": 0.4881889763779528,
                    "duration": 0.09677425000000994
                },
                {
                    "name": "E5",
                    "midi": 76,
                    "time": 419.2260510000103,
                    "velocity": 0.5433070866141733,
                    "duration": 0.12903233333332764
                },
                {
                    "name": "D#5",
                    "midi": 75,
                    "time": 419.3550833333436,
                    "velocity": 0.47244094488188976,
                    "duration": 0.12903233333332764
                },
                {
                    "name": "E5",
                    "midi": 76,
                    "time": 419.4841156666769,
                    "velocity": 0.4330708661417323,
                    "duration": 0.12903233333332764
                },
                {
                    "name": "A5",
                    "midi": 81,
                    "time": 419.61314800001026,
                    "velocity": 0.5354330708661418,
                    "duration": 0.12903233333332764
                },
                {
                    "name": "G#5",
                    "midi": 80,
                    "time": 419.7421803333436,
                    "velocity": 0.5118110236220472,
                    "duration": 0.12903233333332764
                },
                {
                    "name": "A5",
                    "midi": 81,
                    "time": 419.8712126666769,
                    "velocity": 0.5433070866141733,
                    "duration": 0.12903233333332764
                },
                {
                    "name": "C#6",
                    "midi": 85,
                    "time": 420.00024500001024,
                    "velocity": 0.5669291338582677,
                    "duration": 0.6774197500000128
                },
                {
                    "name": "B5",
                    "midi": 83,
                    "time": 420.67766475001025,
                    "velocity": 0.48031496062992124,
                    "duration": 0.09677425000000994
                },
                {
                    "name": "A5",
                    "midi": 81,
                    "time": 420.77443900001026,
                    "velocity": 0.5433070866141733,
                    "duration": 0.09677425000000994
                },
                {
                    "name": "B5",
                    "midi": 83,
                    "time": 420.87121325001027,
                    "velocity": 0.49606299212598426,
                    "duration": 0.09677425000000994
                },
                {
                    "name": "A5",
                    "midi": 81,
                    "time": 420.9679875000103,
                    "velocity": 0.49606299212598426,
                    "duration": 0.09677425000000994
                },
                {
                    "name": "G#5",
                    "midi": 80,
                    "time": 421.0647617500103,
                    "velocity": 0.4881889763779528,
                    "duration": 0.09677425000000994
                },
                {
                    "name": "F#5",
                    "midi": 78,
                    "time": 421.1615360000103,
                    "velocity": 0.5511811023622047,
                    "duration": 0.09677425000000994
                },
                {
                    "name": "G#5",
                    "midi": 80,
                    "time": 421.2583102500103,
                    "velocity": 0.5118110236220472,
                    "duration": 0.09677425000000994
                },
                {
                    "name": "F#5",
                    "midi": 78,
                    "time": 421.3550845000103,
                    "velocity": 0.5118110236220472,
                    "duration": 0.09677425000000994
                },
                {
                    "name": "E5",
                    "midi": 76,
                    "time": 421.45185875001033,
                    "velocity": 0.4881889763779528,
                    "duration": 0.09677425000000994
                },
                {
                    "name": "D5",
                    "midi": 74,
                    "time": 421.54863300001034,
                    "velocity": 0.5275590551181102,
                    "duration": 0.12903233333332764
                },
                {
                    "name": "C#5",
                    "midi": 73,
                    "time": 421.67766533334367,
                    "velocity": 0.4566929133858268,
                    "duration": 0.12903233333332764
                },
                {
                    "name": "D5",
                    "midi": 74,
                    "time": 421.806697666677,
                    "velocity": 0.4566929133858268,
                    "duration": 0.12903233333332764
                },
                {
                    "name": "G#5",
                    "midi": 80,
                    "time": 421.9357300000103,
                    "velocity": 0.49606299212598426,
                    "duration": 0.12903233333332764
                },
                {
                    "name": "G5",
                    "midi": 79,
                    "time": 422.06476233334365,
                    "velocity": 0.48031496062992124,
                    "duration": 0.12903233333332764
                },
                {
                    "name": "G#5",
                    "midi": 80,
                    "time": 422.193794666677,
                    "velocity": 0.5118110236220472,
                    "duration": 0.12903233333332764
                },
                {
                    "name": "B5",
                    "midi": 83,
                    "time": 422.3228270000103,
                    "velocity": 0.5511811023622047,
                    "duration": 0.6774197500000128
                },
                {
                    "name": "A5",
                    "midi": 81,
                    "time": 423.0002467500103,
                    "velocity": 0.4645669291338583,
                    "duration": 0.09677425000000994
                },
                {
                    "name": "G#5",
                    "midi": 80,
                    "time": 423.09702100001033,
                    "velocity": 0.5354330708661418,
                    "duration": 0.290322749999973
                },
                {
                    "name": "A5",
                    "midi": 81,
                    "time": 423.3873437500103,
                    "velocity": 0.44881889763779526,
                    "duration": 0.09677425000000994
                },
                {
                    "name": "G#5",
                    "midi": 80,
                    "time": 423.4841180000103,
                    "velocity": 0.5275590551181102,
                    "duration": 0.290322749999973
                },
                {
                    "name": "F#5",
                    "midi": 78,
                    "time": 423.7744407500103,
                    "velocity": 0.4566929133858268,
                    "duration": 0.09677425000000994
                },
                {
                    "name": "C#5",
                    "midi": 73,
                    "time": 423.8712150000103,
                    "velocity": 0.41732283464566927,
                    "duration": 0.7508068895833162
                },
                {
                    "name": "F5",
                    "midi": 77,
                    "time": 423.8712150000103,
                    "velocity": 0.49606299212598426,
                    "duration": 0.7508068895833162
                },
                {
                    "name": "C#5",
                    "midi": 73,
                    "time": 424.64540900001026,
                    "velocity": 0.3700787401574803,
                    "duration": 0.7661294791666933
                },
                {
                    "name": "F5",
                    "midi": 77,
                    "time": 424.64540900001026,
                    "velocity": 0.4409448818897638,
                    "duration": 0.6572584479166608
                },
                {
                    "name": "F5",
                    "midi": 77,
                    "time": 425.3228287500103,
                    "velocity": 0.36220472440944884,
                    "duration": 0.09677425000000994
                },
                {
                    "name": "C#5",
                    "midi": 73,
                    "time": 425.4196030000103,
                    "velocity": 0.36220472440944884,
                    "duration": 0.375806670833299
                },
                {
                    "name": "F#5",
                    "midi": 78,
                    "time": 425.4196030000103,
                    "velocity": 0.4094488188976378,
                    "duration": 0.290322749999973
                },
                {
                    "name": "F5",
                    "midi": 77,
                    "time": 425.70992575001026,
                    "velocity": 0.3858267716535433,
                    "duration": 0.09677425000000994
                },
                {
                    "name": "C#5",
                    "midi": 73,
                    "time": 425.80670000001027,
                    "velocity": 0.36220472440944884,
                    "duration": 0.375806670833299
                },
                {
                    "name": "F#5",
                    "midi": 78,
                    "time": 425.80670000001027,
                    "velocity": 0.4015748031496063,
                    "duration": 0.290322749999973
                },
                {
                    "name": "F5",
                    "midi": 77,
                    "time": 426.09702275001024,
                    "velocity": 0.3858267716535433,
                    "duration": 0.09677425000000994
                },
                {
                    "name": "D5",
                    "midi": 74,
                    "time": 426.19379700001025,
                    "velocity": 0.4015748031496063,
                    "duration": 0.7508068895833162
                },
                {
                    "name": "E5",
                    "midi": 76,
                    "time": 426.19379700001025,
                    "velocity": 0.4015748031496063,
                    "duration": 0.7508068895833162
                },
                {
                    "name": "G#5",
                    "midi": 80,
                    "time": 426.19379700001025,
                    "velocity": 0.48031496062992124,
                    "duration": 0.7508068895833162
                },
                {
                    "name": "D5",
                    "midi": 74,
                    "time": 426.9679910000102,
                    "velocity": 0.4015748031496063,
                    "duration": 0.7661294791666933
                },
                {
                    "name": "E5",
                    "midi": 76,
                    "time": 426.9679910000102,
                    "velocity": 0.4015748031496063,
                    "duration": 0.6693552291666833
                },
                {
                    "name": "G#5",
                    "midi": 80,
                    "time": 426.9679910000102,
                    "velocity": 0.48031496062992124,
                    "duration": 0.6693552291666833
                },
                {
                    "name": "E5",
                    "midi": 76,
                    "time": 427.6454107500102,
                    "velocity": 0.3937007874015748,
                    "duration": 0.09677425000000994
                },
                {
                    "name": "D5",
                    "midi": 74,
                    "time": 427.74218500001024,
                    "velocity": 0.3937007874015748,
                    "duration": 0.37500021874996037
                },
                {
                    "name": "F#5",
                    "midi": 78,
                    "time": 427.74218500001024,
                    "velocity": 0.44881889763779526,
                    "duration": 0.290322749999973
                },
                {
                    "name": "E5",
                    "midi": 76,
                    "time": 428.0325077500102,
                    "velocity": 0.41732283464566927,
                    "duration": 0.09677425000000994
                },
                {
                    "name": "D5",
                    "midi": 74,
                    "time": 428.1292820000102,
                    "velocity": 0.3937007874015748,
                    "duration": 0.37500021874996037
                },
                {
                    "name": "F#5",
                    "midi": 78,
                    "time": 428.1292820000102,
                    "velocity": 0.4409448818897638,
                    "duration": 0.290322749999973
                },
                {
                    "name": "G#5",
                    "midi": 80,
                    "time": 428.4196047500102,
                    "velocity": 0.41732283464566927,
                    "duration": 0.09677425000000994
                },
                {
                    "name": "A4",
                    "midi": 69,
                    "time": 428.5163790000102,
                    "velocity": 0.4015748031496063,
                    "duration": 0.7508068895833162
                },
                {
                    "name": "C#5",
                    "midi": 73,
                    "time": 428.5163790000102,
                    "velocity": 0.4015748031496063,
                    "duration": 0.7508068895833162
                },
                {
                    "name": "A5",
                    "midi": 81,
                    "time": 428.5163790000102,
                    "velocity": 0.48031496062992124,
                    "duration": 0.7508068895833162
                },
                {
                    "name": "C#5",
                    "midi": 73,
                    "time": 429.29057300001017,
                    "velocity": 0.4015748031496063,
                    "duration": 0.6693552291666833
                },
                {
                    "name": "A4",
                    "midi": 69,
                    "time": 429.29057300001017,
                    "velocity": 0.4015748031496063,
                    "duration": 0.6693552291666833
                },
                {
                    "name": "A5",
                    "midi": 81,
                    "time": 429.29057300001017,
                    "velocity": 0.48031496062992124,
                    "duration": 0.6693552291666833
                },
                {
                    "name": "A3",
                    "midi": 57,
                    "time": 429.9679927500102,
                    "velocity": 0.5511811023622047,
                    "duration": 0.04838712499997655
                },
                {
                    "name": "A3",
                    "midi": 57,
                    "time": 430.06476700001014,
                    "velocity": 0.5984251968503937,
                    "duration": 0.09677425000000994
                },
                {
                    "name": "A3",
                    "midi": 57,
                    "time": 430.35508975001017,
                    "velocity": 0.5511811023622047,
                    "duration": 0.04838712499997655
                },
                {
                    "name": "G3",
                    "midi": 55,
                    "time": 430.4518640000101,
                    "velocity": 0.5905511811023622,
                    "duration": 0.09677425000000994
                },
                {
                    "name": "A3",
                    "midi": 57,
                    "time": 430.74218675001015,
                    "velocity": 0.5511811023622047,
                    "duration": 0.04838712499997655
                },
                {
                    "name": "A#3",
                    "midi": 58,
                    "time": 430.8389610000101,
                    "velocity": 0.5354330708661418,
                    "duration": 0.7741939999999659
                },
                {
                    "name": "C#4",
                    "midi": 61,
                    "time": 430.8389610000101,
                    "velocity": 0.6299212598425197,
                    "duration": 0.7508068895833162
                },
                {
                    "name": "E3",
                    "midi": 52,
                    "time": 430.8389610000101,
                    "velocity": 0.5354330708661418,
                    "duration": 0.7508068895833162
                },
                {
                    "name": "G3",
                    "midi": 55,
                    "time": 430.8389610000101,
                    "velocity": 0.5354330708661418,
                    "duration": 0.7508068895833162
                },
                {
                    "name": "C#4",
                    "midi": 61,
                    "time": 431.61315500001007,
                    "velocity": 0.6299212598425197,
                    "duration": 0.6572584479166608
                },
                {
                    "name": "A#3",
                    "midi": 58,
                    "time": 431.61315500001007,
                    "velocity": 0.5354330708661418,
                    "duration": 0.6572584479166608
                },
                {
                    "name": "E3",
                    "midi": 52,
                    "time": 431.61315500001007,
                    "velocity": 0.5354330708661418,
                    "duration": 0.6572584479166608
                },
                {
                    "name": "G3",
                    "midi": 55,
                    "time": 431.61315500001007,
                    "velocity": 0.5354330708661418,
                    "duration": 0.6572584479166608
                },
                {
                    "name": "A4",
                    "midi": 69,
                    "time": 432.2905747500101,
                    "velocity": 0.5511811023622047,
                    "duration": 0.04838712499997655
                },
                {
                    "name": "A4",
                    "midi": 69,
                    "time": 432.38734900001003,
                    "velocity": 0.5984251968503937,
                    "duration": 0.09677425000000994
                },
                {
                    "name": "A4",
                    "midi": 69,
                    "time": 432.67767175001006,
                    "velocity": 0.5511811023622047,
                    "duration": 0.04838712499997655
                },
                {
                    "name": "G4",
                    "midi": 67,
                    "time": 432.77444600001,
                    "velocity": 0.5905511811023622,
                    "duration": 0.09677425000000994
                },
                {
                    "name": "A4",
                    "midi": 69,
                    "time": 433.06476875001005,
                    "velocity": 0.5511811023622047,
                    "duration": 0.04838712499997655
                },
                {
                    "name": "F4",
                    "midi": 65,
                    "time": 433.16154300001,
                    "velocity": 0.5354330708661418,
                    "duration": 0.7508068895833162
                },
                {
                    "name": "A#4",
                    "midi": 70,
                    "time": 433.16154300001,
                    "velocity": 0.5354330708661418,
                    "duration": 0.7741939999999659
                },
                {
                    "name": "D4",
                    "midi": 62,
                    "time": 433.16154300001,
                    "velocity": 0.5354330708661418,
                    "duration": 0.7508068895833162
                },
                {
                    "name": "D5",
                    "midi": 74,
                    "time": 433.16154300001,
                    "velocity": 0.6299212598425197,
                    "duration": 0.7508068895833162
                },
                {
                    "name": "D4",
                    "midi": 62,
                    "time": 433.93573700000996,
                    "velocity": 0.5354330708661418,
                    "duration": 0.6572584479166608
                },
                {
                    "name": "A#4",
                    "midi": 70,
                    "time": 433.93573700000996,
                    "velocity": 0.5354330708661418,
                    "duration": 0.6572584479166608
                },
                {
                    "name": "F4",
                    "midi": 65,
                    "time": 433.93573700000996,
                    "velocity": 0.5354330708661418,
                    "duration": 0.6572584479166608
                },
                {
                    "name": "D5",
                    "midi": 74,
                    "time": 433.93573700000996,
                    "velocity": 0.6299212598425197,
                    "duration": 0.6572584479166608
                },
                {
                    "name": "F5",
                    "midi": 77,
                    "time": 434.61315675001,
                    "velocity": 0.5511811023622047,
                    "duration": 0.04838712499997655
                },
                {
                    "name": "D5",
                    "midi": 74,
                    "time": 434.61315675001,
                    "velocity": 0.4645669291338583,
                    "duration": 0.04838712499997655
                },
                {
                    "name": "D5",
                    "midi": 74,
                    "time": 434.70993100000993,
                    "velocity": 0.5039370078740157,
                    "duration": 0.09677425000000994
                },
                {
                    "name": "F5",
                    "midi": 77,
                    "time": 434.70993100000993,
                    "velocity": 0.5984251968503937,
                    "duration": 0.09677425000000994
                },
                {
                    "name": "D5",
                    "midi": 74,
                    "time": 435.00025375000996,
                    "velocity": 0.4645669291338583,
                    "duration": 0.04838712499997655
                },
                {
                    "name": "F5",
                    "midi": 77,
                    "time": 435.00025375000996,
                    "velocity": 0.5511811023622047,
                    "duration": 0.04838712499997655
                },
                {
                    "name": "E5",
                    "midi": 76,
                    "time": 435.0970280000099,
                    "velocity": 0.5905511811023622,
                    "duration": 0.09677425000000994
                },
                {
                    "name": "C#5",
                    "midi": 73,
                    "time": 435.0970280000099,
                    "velocity": 0.49606299212598426,
                    "duration": 0.09677425000000994
                },
                {
                    "name": "D5",
                    "midi": 74,
                    "time": 435.38735075000994,
                    "velocity": 0.4645669291338583,
                    "duration": 0.04838712499997655
                },
                {
                    "name": "F5",
                    "midi": 77,
                    "time": 435.38735075000994,
                    "velocity": 0.5511811023622047,
                    "duration": 0.04838712499997655
                },
                {
                    "name": "D5",
                    "midi": 74,
                    "time": 435.4841250000099,
                    "velocity": 0.5984251968503937,
                    "duration": 0.09677425000000994
                },
                {
                    "name": "A#4",
                    "midi": 70,
                    "time": 435.4841250000099,
                    "velocity": 0.5039370078740157,
                    "duration": 0.09677425000000994
                },
                {
                    "name": "A#4",
                    "midi": 70,
                    "time": 435.7744477500099,
                    "velocity": 0.4645669291338583,
                    "duration": 0.04838712499997655
                },
                {
                    "name": "D5",
                    "midi": 74,
                    "time": 435.7744477500099,
                    "velocity": 0.5511811023622047,
                    "duration": 0.04838712499997655
                },
                {
                    "name": "C#5",
                    "midi": 73,
                    "time": 435.8712220000099,
                    "velocity": 0.5905511811023622,
                    "duration": 0.09677425000000994
                },
                {
                    "name": "A4",
                    "midi": 69,
                    "time": 435.8712220000099,
                    "velocity": 0.49606299212598426,
                    "duration": 0.09677425000000994
                },
                {
                    "name": "D5",
                    "midi": 74,
                    "time": 436.1615447500099,
                    "velocity": 0.5511811023622047,
                    "duration": 0.04838712499997655
                },
                {
                    "name": "A#4",
                    "midi": 70,
                    "time": 436.1615447500099,
                    "velocity": 0.4645669291338583,
                    "duration": 0.04838712499997655
                },
                {
                    "name": "A#4",
                    "midi": 70,
                    "time": 436.25831900000986,
                    "velocity": 0.5984251968503937,
                    "duration": 0.09677425000000994
                },
                {
                    "name": "G4",
                    "midi": 67,
                    "time": 436.25831900000986,
                    "velocity": 0.5039370078740157,
                    "duration": 0.09677425000000994
                },
                {
                    "name": "A#4",
                    "midi": 70,
                    "time": 436.5486417500099,
                    "velocity": 0.5511811023622047,
                    "duration": 0.04838712499997655
                },
                {
                    "name": "G4",
                    "midi": 67,
                    "time": 436.5486417500099,
                    "velocity": 0.4645669291338583,
                    "duration": 0.04838712499997655
                },
                {
                    "name": "A4",
                    "midi": 69,
                    "time": 436.64541600000985,
                    "velocity": 0.5905511811023622,
                    "duration": 0.09677425000000994
                },
                {
                    "name": "F#4",
                    "midi": 66,
                    "time": 436.64541600000985,
                    "velocity": 0.49606299212598426,
                    "duration": 0.09677425000000994
                },
                {
                    "name": "A#4",
                    "midi": 70,
                    "time": 436.9357387500099,
                    "velocity": 0.5511811023622047,
                    "duration": 0.04838712499997655
                },
                {
                    "name": "G4",
                    "midi": 67,
                    "time": 436.9357387500099,
                    "velocity": 0.4645669291338583,
                    "duration": 0.04838712499997655
                },
                {
                    "name": "D#4",
                    "midi": 63,
                    "time": 437.0325130000098,
                    "velocity": 0.5354330708661418,
                    "duration": 0.7741939999999659
                },
                {
                    "name": "G4",
                    "midi": 67,
                    "time": 437.0325130000098,
                    "velocity": 0.6299212598425197,
                    "duration": 0.7508068895833162
                },
                {
                    "name": "D#5",
                    "midi": 75,
                    "time": 437.8067070000098,
                    "velocity": 0.5826771653543307,
                    "duration": 0.7661294791666933
                },
                {
                    "name": "G4",
                    "midi": 67,
                    "time": 437.8067070000098,
                    "velocity": 0.5826771653543307,
                    "duration": 0.7661294791666933
                },
                {
                    "name": "B4",
                    "midi": 71,
                    "time": 437.8067070000098,
                    "velocity": 0.5826771653543307,
                    "duration": 0.7661294791666933
                },
                {
                    "name": "G5",
                    "midi": 79,
                    "time": 437.8067070000098,
                    "velocity": 0.6929133858267716,
                    "duration": 0.7661294791666933
                },
                {
                    "name": "D#5",
                    "midi": 75,
                    "time": 438.5809010000098,
                    "velocity": 0.5826771653543307,
                    "duration": 0.7661294791666933
                },
                {
                    "name": "G4",
                    "midi": 67,
                    "time": 438.5809010000098,
                    "velocity": 0.5826771653543307,
                    "duration": 0.7661294791666933
                },
                {
                    "name": "C5",
                    "midi": 72,
                    "time": 438.5809010000098,
                    "velocity": 0.5826771653543307,
                    "duration": 0.7661294791666933
                },
                {
                    "name": "G5",
                    "midi": 79,
                    "time": 438.5809010000098,
                    "velocity": 0.6929133858267716,
                    "duration": 0.7661294791666933
                },
                {
                    "name": "F4",
                    "midi": 65,
                    "time": 439.35509500000984,
                    "velocity": 0.5826771653543307,
                    "duration": 0.09677425000000994
                },
                {
                    "name": "D5",
                    "midi": 74,
                    "time": 439.35509500000984,
                    "velocity": 0.5826771653543307,
                    "duration": 0.09677425000000994
                },
                {
                    "name": "F5",
                    "midi": 77,
                    "time": 439.35509500000984,
                    "velocity": 0.6929133858267716,
                    "duration": 0.09677425000000994
                },
                {
                    "name": "A4",
                    "midi": 69,
                    "time": 439.7421920000098,
                    "velocity": 0.5826771653543307,
                    "duration": 0.09677425000000994
                },
                {
                    "name": "C5",
                    "midi": 72,
                    "time": 439.7421920000098,
                    "velocity": 0.5826771653543307,
                    "duration": 0.09677425000000994
                },
                {
                    "name": "D#5",
                    "midi": 75,
                    "time": 439.7421920000098,
                    "velocity": 0.5826771653543307,
                    "duration": 0.09677425000000994
                },
                {
                    "name": "A5",
                    "midi": 81,
                    "time": 439.7421920000098,
                    "velocity": 0.6929133858267716,
                    "duration": 0.09677425000000994
                },
                {
                    "name": "D5",
                    "midi": 74,
                    "time": 440.1292890000098,
                    "velocity": 0.6692913385826772,
                    "duration": 0.7661294791666933
                },
                {
                    "name": "A#4",
                    "midi": 70,
                    "time": 440.1292890000098,
                    "velocity": 0.6692913385826772,
                    "duration": 0.7661294791666933
                },
                {
                    "name": "A#5",
                    "midi": 82,
                    "time": 440.1292890000098,
                    "velocity": 0.7952755905511811,
                    "duration": 0.7661294791666933
                },
                {
                    "name": "A#3",
                    "midi": 58,
                    "time": 440.9034830000098,
                    "velocity": 0.5826771653543307,
                    "duration": 0.6572584479166608
                },
                {
                    "name": "D4",
                    "midi": 62,
                    "time": 440.9034830000098,
                    "velocity": 0.5826771653543307,
                    "duration": 0.6572584479166608
                },
                {
                    "name": "A#4",
                    "midi": 70,
                    "time": 440.9034830000098,
                    "velocity": 0.6929133858267716,
                    "duration": 0.6572584479166608
                },
                {
                    "name": "D5",
                    "midi": 74,
                    "time": 441.58090275000984,
                    "velocity": 0.3700787401574803,
                    "duration": 0.04838712499997655
                },
                {
                    "name": "F5",
                    "midi": 77,
                    "time": 441.58090275000984,
                    "velocity": 0.4409448818897638,
                    "duration": 0.04838712499997655
                },
                {
                    "name": "D5",
                    "midi": 74,
                    "time": 441.6776770000098,
                    "velocity": 0.4015748031496063,
                    "duration": 0.09677425000000994
                },
                {
                    "name": "F5",
                    "midi": 77,
                    "time": 441.6776770000098,
                    "velocity": 0.47244094488188976,
                    "duration": 0.09677425000000994
                },
                {
                    "name": "D5",
                    "midi": 74,
                    "time": 441.9679997500098,
                    "velocity": 0.3700787401574803,
                    "duration": 0.04838712499997655
                },
                {
                    "name": "F5",
                    "midi": 77,
                    "time": 441.9679997500098,
                    "velocity": 0.4409448818897638,
                    "duration": 0.04838712499997655
                },
                {
                    "name": "C#5",
                    "midi": 73,
                    "time": 442.0647740000098,
                    "velocity": 0.3937007874015748,
                    "duration": 0.09677425000000994
                },
                {
                    "name": "E5",
                    "midi": 76,
                    "time": 442.0647740000098,
                    "velocity": 0.47244094488188976,
                    "duration": 0.09677425000000994
                },
                {
                    "name": "D5",
                    "midi": 74,
                    "time": 442.3550967500098,
                    "velocity": 0.3700787401574803,
                    "duration": 0.04838712499997655
                },
                {
                    "name": "F5",
                    "midi": 77,
                    "time": 442.3550967500098,
                    "velocity": 0.4409448818897638,
                    "duration": 0.04838712499997655
                },
                {
                    "name": "A#4",
                    "midi": 70,
                    "time": 442.45187100000976,
                    "velocity": 0.4015748031496063,
                    "duration": 0.7741940000000227
                },
                {
                    "name": "D5",
                    "midi": 74,
                    "time": 442.45187100000976,
                    "velocity": 0.47244094488188976,
                    "duration": 0.7741940000000227
                },
                {
                    "name": "A#4",
                    "midi": 70,
                    "time": 443.2260650000098,
                    "velocity": 0.4015748031496063,
                    "duration": 0.6572584479166608
                },
                {
                    "name": "D5",
                    "midi": 74,
                    "time": 443.2260650000098,
                    "velocity": 0.47244094488188976,
                    "duration": 0.6572584479166608
                },
                {
                    "name": "A#4",
                    "midi": 70,
                    "time": 443.9034847500098,
                    "velocity": 0.3700787401574803,
                    "duration": 0.04838712499997655
                },
                {
                    "name": "D5",
                    "midi": 74,
                    "time": 443.9034847500098,
                    "velocity": 0.4409448818897638,
                    "duration": 0.04838712499997655
                },
                {
                    "name": "A#4",
                    "midi": 70,
                    "time": 444.00025900000975,
                    "velocity": 0.4015748031496063,
                    "duration": 0.09677425000000994
                },
                {
                    "name": "D5",
                    "midi": 74,
                    "time": 444.00025900000975,
                    "velocity": 0.47244094488188976,
                    "duration": 0.09677425000000994
                },
                {
                    "name": "A#4",
                    "midi": 70,
                    "time": 444.2905817500098,
                    "velocity": 0.3700787401574803,
                    "duration": 0.04838712499997655
                },
                {
                    "name": "D5",
                    "midi": 74,
                    "time": 444.2905817500098,
                    "velocity": 0.4409448818897638,
                    "duration": 0.04838712499997655
                },
                {
                    "name": "A4",
                    "midi": 69,
                    "time": 444.38735600000973,
                    "velocity": 0.3937007874015748,
                    "duration": 0.09677425000000994
                },
                {
                    "name": "C#5",
                    "midi": 73,
                    "time": 444.38735600000973,
                    "velocity": 0.47244094488188976,
                    "duration": 0.09677425000000994
                },
                {
                    "name": "A#4",
                    "midi": 70,
                    "time": 444.67767875000976,
                    "velocity": 0.3700787401574803,
                    "duration": 0.04838712499997655
                },
                {
                    "name": "D5",
                    "midi": 74,
                    "time": 444.67767875000976,
                    "velocity": 0.4409448818897638,
                    "duration": 0.04838712499997655
                },
                {
                    "name": "D5",
                    "midi": 74,
                    "time": 444.7744530000097,
                    "velocity": 0.4015748031496063,
                    "duration": 0.7741940000000227
                },
                {
                    "name": "F5",
                    "midi": 77,
                    "time": 444.7744530000097,
                    "velocity": 0.47244094488188976,
                    "duration": 0.7741940000000227
                },
                {
                    "name": "C5",
                    "midi": 72,
                    "time": 445.54864700000974,
                    "velocity": 0.4015748031496063,
                    "duration": 0.6572584479166608
                },
                {
                    "name": "D#5",
                    "midi": 75,
                    "time": 445.54864700000974,
                    "velocity": 0.47244094488188976,
                    "duration": 0.6572584479166608
                },
                {
                    "name": "F5",
                    "midi": 77,
                    "time": 446.22606675000975,
                    "velocity": 0.3700787401574803,
                    "duration": 0.04838712499997655
                },
                {
                    "name": "D#5",
                    "midi": 75,
                    "time": 446.22606675000975,
                    "velocity": 0.4409448818897638,
                    "duration": 0.04838712499997655
                },
                {
                    "name": "C5",
                    "midi": 72,
                    "time": 446.22606675000975,
                    "velocity": 0.3700787401574803,
                    "duration": 0.04838712499997655
                },
                {
                    "name": "F5",
                    "midi": 77,
                    "time": 446.3228410000097,
                    "velocity": 0.4015748031496063,
                    "duration": 0.09677425000000994
                },
                {
                    "name": "D#5",
                    "midi": 75,
                    "time": 446.3228410000097,
                    "velocity": 0.47244094488188976,
                    "duration": 0.09677425000000994
                },
                {
                    "name": "C5",
                    "midi": 72,
                    "time": 446.3228410000097,
                    "velocity": 0.4015748031496063,
                    "duration": 0.09677425000000994
                },
                {
                    "name": "C5",
                    "midi": 72,
                    "time": 446.61316375000973,
                    "velocity": 0.3700787401574803,
                    "duration": 0.04838712499997655
                },
                {
                    "name": "F5",
                    "midi": 77,
                    "time": 446.61316375000973,
                    "velocity": 0.3700787401574803,
                    "duration": 0.04838712499997655
                },
                {
                    "name": "D#5",
                    "midi": 75,
                    "time": 446.61316375000973,
                    "velocity": 0.4409448818897638,
                    "duration": 0.04838712499997655
                },
                {
                    "name": "F5",
                    "midi": 77,
                    "time": 446.7099380000097,
                    "velocity": 0.3937007874015748,
                    "duration": 0.09677425000000994
                },
                {
                    "name": "B4",
                    "midi": 71,
                    "time": 446.7099380000097,
                    "velocity": 0.3937007874015748,
                    "duration": 0.09677425000000994
                },
                {
                    "name": "D5",
                    "midi": 74,
                    "time": 446.7099380000097,
                    "velocity": 0.47244094488188976,
                    "duration": 0.09677425000000994
                },
                {
                    "name": "C5",
                    "midi": 72,
                    "time": 447.0002607500097,
                    "velocity": 0.3700787401574803,
                    "duration": 0.04838712499997655
                },
                {
                    "name": "D#5",
                    "midi": 75,
                    "time": 447.0002607500097,
                    "velocity": 0.4409448818897638,
                    "duration": 0.04838712499997655
                },
                {
                    "name": "F5",
                    "midi": 77,
                    "time": 447.0002607500097,
                    "velocity": 0.4409448818897638,
                    "duration": 0.04838712499997655
                },
                {
                    "name": "C5",
                    "midi": 72,
                    "time": 447.09703500000967,
                    "velocity": 0.4015748031496063,
                    "duration": 0.7669359312499751
                },
                {
                    "name": "F5",
                    "midi": 77,
                    "time": 447.09703500000967,
                    "velocity": 0.47244094488188976,
                    "duration": 0.7669359312499751
                },
                {
                    "name": "A4",
                    "midi": 69,
                    "time": 447.09703500000967,
                    "velocity": 0.4015748031496063,
                    "duration": 0.7669359312499751
                },
                {
                    "name": "F5",
                    "midi": 77,
                    "time": 447.87122900000963,
                    "velocity": 0.47244094488188976,
                    "duration": 0.6572584479166608
                },
                {
                    "name": "A4",
                    "midi": 69,
                    "time": 447.87122900000963,
                    "velocity": 0.4015748031496063,
                    "duration": 0.6572584479166608
                },
                {
                    "name": "C5",
                    "midi": 72,
                    "time": 447.87122900000963,
                    "velocity": 0.4015748031496063,
                    "duration": 0.6572584479166608
                },
                {
                    "name": "F5",
                    "midi": 77,
                    "time": 448.54864875000965,
                    "velocity": 0.3700787401574803,
                    "duration": 0.04838712499997655
                },
                {
                    "name": "C5",
                    "midi": 72,
                    "time": 448.54864875000965,
                    "velocity": 0.4409448818897638,
                    "duration": 0.04838712499997655
                },
                {
                    "name": "A4",
                    "midi": 69,
                    "time": 448.54864875000965,
                    "velocity": 0.3700787401574803,
                    "duration": 0.04838712499997655
                },
                {
                    "name": "F5",
                    "midi": 77,
                    "time": 448.6454230000096,
                    "velocity": 0.4015748031496063,
                    "duration": 0.09677425000000994
                },
                {
                    "name": "C5",
                    "midi": 72,
                    "time": 448.6454230000096,
                    "velocity": 0.47244094488188976,
                    "duration": 0.09677425000000994
                },
                {
                    "name": "A4",
                    "midi": 69,
                    "time": 448.6454230000096,
                    "velocity": 0.4015748031496063,
                    "duration": 0.09677425000000994
                },
                {
                    "name": "C5",
                    "midi": 72,
                    "time": 448.93574575000963,
                    "velocity": 0.4409448818897638,
                    "duration": 0.04838712499997655
                },
                {
                    "name": "A4",
                    "midi": 69,
                    "time": 448.93574575000963,
                    "velocity": 0.3700787401574803,
                    "duration": 0.04838712499997655
                },
                {
                    "name": "F5",
                    "midi": 77,
                    "time": 448.93574575000963,
                    "velocity": 0.3700787401574803,
                    "duration": 0.04838712499997655
                },
                {
                    "name": "G#4",
                    "midi": 68,
                    "time": 449.0325200000096,
                    "velocity": 0.3937007874015748,
                    "duration": 0.09677425000000994
                },
                {
                    "name": "B4",
                    "midi": 71,
                    "time": 449.0325200000096,
                    "velocity": 0.47244094488188976,
                    "duration": 0.09677425000000994
                },
                {
                    "name": "F5",
                    "midi": 77,
                    "time": 449.0325200000096,
                    "velocity": 0.3937007874015748,
                    "duration": 0.09677425000000994
                },
                {
                    "name": "C5",
                    "midi": 72,
                    "time": 449.3228427500096,
                    "velocity": 0.4409448818897638,
                    "duration": 0.04838712499997655
                },
                {
                    "name": "F5",
                    "midi": 77,
                    "time": 449.3228427500096,
                    "velocity": 0.4409448818897638,
                    "duration": 0.04838712499997655
                },
                {
                    "name": "A4",
                    "midi": 69,
                    "time": 449.3228427500096,
                    "velocity": 0.3700787401574803,
                    "duration": 0.04838712499997655
                },
                {
                    "name": "A4",
                    "midi": 69,
                    "time": 449.41961700000957,
                    "velocity": 0.3543307086614173,
                    "duration": 0.7669359312500319
                },
                {
                    "name": "F5",
                    "midi": 77,
                    "time": 449.41961700000957,
                    "velocity": 0.4251968503937008,
                    "duration": 0.7669359312500319
                },
                {
                    "name": "C#5",
                    "midi": 73,
                    "time": 449.41961700000957,
                    "velocity": 0.3543307086614173,
                    "duration": 0.7661294791666933
                },
                {
                    "name": "A#4",
                    "midi": 70,
                    "time": 450.1938110000096,
                    "velocity": 0.3543307086614173,
                    "duration": 0.6572584479166608
                },
                {
                    "name": "F5",
                    "midi": 77,
                    "time": 450.1938110000096,
                    "velocity": 0.4251968503937008,
                    "duration": 0.6572584479166608
                },
                {
                    "name": "D5",
                    "midi": 74,
                    "time": 450.1938110000096,
                    "velocity": 0.3543307086614173,
                    "duration": 0.6572584479166608
                },
                {
                    "name": "D5",
                    "midi": 74,
                    "time": 450.8712307500096,
                    "velocity": 0.3700787401574803,
                    "duration": 0.04838712499997655
                },
                {
                    "name": "A#4",
                    "midi": 70,
                    "time": 450.8712307500096,
                    "velocity": 0.3700787401574803,
                    "duration": 0.04838712499997655
                },
                {
                    "name": "F5",
                    "midi": 77,
                    "time": 450.8712307500096,
                    "velocity": 0.4409448818897638,
                    "duration": 0.04838712499997655
                },
                {
                    "name": "A#4",
                    "midi": 70,
                    "time": 450.96800500000955,
                    "velocity": 0.4015748031496063,
                    "duration": 0.09677425000000994
                },
                {
                    "name": "D5",
                    "midi": 74,
                    "time": 450.96800500000955,
                    "velocity": 0.4015748031496063,
                    "duration": 0.09677425000000994
                },
                {
                    "name": "F5",
                    "midi": 77,
                    "time": 450.96800500000955,
                    "velocity": 0.47244094488188976,
                    "duration": 0.09677425000000994
                },
                {
                    "name": "D5",
                    "midi": 74,
                    "time": 451.2583277500096,
                    "velocity": 0.3779527559055118,
                    "duration": 0.04838712499997655
                },
                {
                    "name": "F5",
                    "midi": 77,
                    "time": 451.2583277500096,
                    "velocity": 0.44881889763779526,
                    "duration": 0.04838712499997655
                },
                {
                    "name": "A#4",
                    "midi": 70,
                    "time": 451.2583277500096,
                    "velocity": 0.3779527559055118,
                    "duration": 0.04838712499997655
                },
                {
                    "name": "D5",
                    "midi": 74,
                    "time": 451.35510200000954,
                    "velocity": 0.4094488188976378,
                    "duration": 0.09677425000000994
                },
                {
                    "name": "E5",
                    "midi": 76,
                    "time": 451.35510200000954,
                    "velocity": 0.49606299212598426,
                    "duration": 0.09677425000000994
                },
                {
                    "name": "A#4",
                    "midi": 70,
                    "time": 451.35510200000954,
                    "velocity": 0.4094488188976378,
                    "duration": 0.09677425000000994
                },
                {
                    "name": "F5",
                    "midi": 77,
                    "time": 451.64542475000957,
                    "velocity": 0.47244094488188976,
                    "duration": 0.04838712499997655
                },
                {
                    "name": "A#4",
                    "midi": 70,
                    "time": 451.64542475000957,
                    "velocity": 0.3937007874015748,
                    "duration": 0.04838712499997655
                },
                {
                    "name": "D5",
                    "midi": 74,
                    "time": 451.64542475000957,
                    "velocity": 0.3937007874015748,
                    "duration": 0.04838712499997655
                },
                {
                    "name": "A#4",
                    "midi": 70,
                    "time": 451.7421990000095,
                    "velocity": 0.4409448818897638,
                    "duration": 0.7669359312499751
                },
                {
                    "name": "G5",
                    "midi": 79,
                    "time": 451.7421990000095,
                    "velocity": 0.5196850393700787,
                    "duration": 0.7669359312499751
                },
                {
                    "name": "D5",
                    "midi": 74,
                    "time": 451.7421990000095,
                    "velocity": 0.4409448818897638,
                    "duration": 0.7669359312499751
                },
                {
                    "name": "G5",
                    "midi": 79,
                    "time": 452.5163930000095,
                    "velocity": 0.5196850393700787,
                    "duration": 0.6572584479166608
                },
                {
                    "name": "A#4",
                    "midi": 70,
                    "time": 452.5163930000095,
                    "velocity": 0.4409448818897638,
                    "duration": 0.6572584479166608
                },
                {
                    "name": "D5",
                    "midi": 74,
                    "time": 452.5163930000095,
                    "velocity": 0.4409448818897638,
                    "duration": 0.6572584479166608
                },
                {
                    "name": "A#4",
                    "midi": 70,
                    "time": 453.1938127500095,
                    "velocity": 0.4015748031496063,
                    "duration": 0.04838712499997655
                },
                {
                    "name": "G5",
                    "midi": 79,
                    "time": 453.1938127500095,
                    "velocity": 0.48031496062992124,
                    "duration": 0.04838712499997655
                },
                {
                    "name": "D5",
                    "midi": 74,
                    "time": 453.1938127500095,
                    "velocity": 0.4015748031496063,
                    "duration": 0.04838712499997655
                },
                {
                    "name": "A#4",
                    "midi": 70,
                    "time": 453.29058700000945,
                    "velocity": 0.4409448818897638,
                    "duration": 0.09677425000000994
                },
                {
                    "name": "G5",
                    "midi": 79,
                    "time": 453.29058700000945,
                    "velocity": 0.5196850393700787,
                    "duration": 0.09677425000000994
                },
                {
                    "name": "D5",
                    "midi": 74,
                    "time": 453.29058700000945,
                    "velocity": 0.4409448818897638,
                    "duration": 0.09677425000000994
                },
                {
                    "name": "A#4",
                    "midi": 70,
                    "time": 453.5809097500095,
                    "velocity": 0.3937007874015748,
                    "duration": 0.04838712499997655
                },
                {
                    "name": "A#5",
                    "midi": 82,
                    "time": 453.5809097500095,
                    "velocity": 0.47244094488188976,
                    "duration": 0.04838712499997655
                },
                {
                    "name": "D5",
                    "midi": 74,
                    "time": 453.5809097500095,
                    "velocity": 0.3937007874015748,
                    "duration": 0.04838712499997655
                },
                {
                    "name": "A#4",
                    "midi": 70,
                    "time": 453.67768400000944,
                    "velocity": 0.4251968503937008,
                    "duration": 0.09677425000000994
                },
                {
                    "name": "A5",
                    "midi": 81,
                    "time": 453.67768400000944,
                    "velocity": 0.5039370078740157,
                    "duration": 0.09677425000000994
                },
                {
                    "name": "D5",
                    "midi": 74,
                    "time": 453.67768400000944,
                    "velocity": 0.4251968503937008,
                    "duration": 0.09677425000000994
                },
                {
                    "name": "D5",
                    "midi": 74,
                    "time": 453.96800675000947,
                    "velocity": 0.3858267716535433,
                    "duration": 0.04838712499997655
                },
                {
                    "name": "G5",
                    "midi": 79,
                    "time": 453.96800675000947,
                    "velocity": 0.4645669291338583,
                    "duration": 0.04838712499997655
                },
                {
                    "name": "A#4",
                    "midi": 70,
                    "time": 453.96800675000947,
                    "velocity": 0.3858267716535433,
                    "duration": 0.04838712499997655
                },
                {
                    "name": "A#4",
                    "midi": 70,
                    "time": 454.0647810000094,
                    "velocity": 0.4015748031496063,
                    "duration": 0.7669359312499751
                },
                {
                    "name": "F5",
                    "midi": 77,
                    "time": 454.0647810000094,
                    "velocity": 0.47244094488188976,
                    "duration": 0.7669359312499751
                },
                {
                    "name": "D5",
                    "midi": 74,
                    "time": 454.0647810000094,
                    "velocity": 0.4015748031496063,
                    "duration": 0.7669359312499751
                },
                {
                    "name": "A#4",
                    "midi": 70,
                    "time": 454.8389750000094,
                    "velocity": 0.47244094488188976,
                    "duration": 0.6572584479166608
                },
                {
                    "name": "D5",
                    "midi": 74,
                    "time": 454.8389750000094,
                    "velocity": 0.4015748031496063,
                    "duration": 0.6572584479166608
                },
                {
                    "name": "F5",
                    "midi": 77,
                    "time": 454.8389750000094,
                    "velocity": 0.47244094488188976,
                    "duration": 0.6572584479166608
                },
                {
                    "name": "F5",
                    "midi": 77,
                    "time": 455.5163947500094,
                    "velocity": 0.3700787401574803,
                    "duration": 0.04838712499997655
                },
                {
                    "name": "A#4",
                    "midi": 70,
                    "time": 455.5163947500094,
                    "velocity": 0.3700787401574803,
                    "duration": 0.04838712499997655
                },
                {
                    "name": "D5",
                    "midi": 74,
                    "time": 455.5163947500094,
                    "velocity": 0.4409448818897638,
                    "duration": 0.04838712499997655
                },
                {
                    "name": "A#4",
                    "midi": 70,
                    "time": 455.61316900000935,
                    "velocity": 0.4015748031496063,
                    "duration": 0.09677425000000994
                },
                {
                    "name": "D5",
                    "midi": 74,
                    "time": 455.61316900000935,
                    "velocity": 0.47244094488188976,
                    "duration": 0.09677425000000994
                },
                {
                    "name": "F5",
                    "midi": 77,
                    "time": 455.61316900000935,
                    "velocity": 0.4015748031496063,
                    "duration": 0.09677425000000994
                },
                {
                    "name": "A#4",
                    "midi": 70,
                    "time": 455.9034917500094,
                    "velocity": 0.3700787401574803,
                    "duration": 0.04838712499997655
                },
                {
                    "name": "D5",
                    "midi": 74,
                    "time": 455.9034917500094,
                    "velocity": 0.4409448818897638,
                    "duration": 0.04838712499997655
                },
                {
                    "name": "F5",
                    "midi": 77,
                    "time": 455.9034917500094,
                    "velocity": 0.3700787401574803,
                    "duration": 0.04838712499997655
                },
                {
                    "name": "A#4",
                    "midi": 70,
                    "time": 456.00026600000933,
                    "velocity": 0.3937007874015748,
                    "duration": 0.09677425000000994
                },
                {
                    "name": "D#5",
                    "midi": 75,
                    "time": 456.00026600000933,
                    "velocity": 0.47244094488188976,
                    "duration": 0.09677425000000994
                },
                {
                    "name": "G5",
                    "midi": 79,
                    "time": 456.00026600000933,
                    "velocity": 0.3937007874015748,
                    "duration": 0.09677425000000994
                },
                {
                    "name": "F5",
                    "midi": 77,
                    "time": 456.29058875000936,
                    "velocity": 0.4409448818897638,
                    "duration": 0.04838712499997655
                },
                {
                    "name": "A#4",
                    "midi": 70,
                    "time": 456.29058875000936,
                    "velocity": 0.3700787401574803,
                    "duration": 0.04838712499997655
                },
                {
                    "name": "D5",
                    "midi": 74,
                    "time": 456.29058875000936,
                    "velocity": 0.4409448818897638,
                    "duration": 0.04838712499997655
                },
                {
                    "name": "A4",
                    "midi": 69,
                    "time": 456.3873630000093,
                    "velocity": 0.4015748031496063,
                    "duration": 0.7741940000000227
                },
                {
                    "name": "C5",
                    "midi": 72,
                    "time": 456.3873630000093,
                    "velocity": 0.4015748031496063,
                    "duration": 0.7741940000000227
                },
                {
                    "name": "F5",
                    "midi": 77,
                    "time": 456.3873630000093,
                    "velocity": 0.47244094488188976,
                    "duration": 0.7741940000000227
                },
                {
                    "name": "C5",
                    "midi": 72,
                    "time": 457.16155700000934,
                    "velocity": 0.3779527559055118,
                    "duration": 0.6572584479166608
                },
                {
                    "name": "D#5",
                    "midi": 75,
                    "time": 457.16155700000934,
                    "velocity": 0.44881889763779526,
                    "duration": 0.6572584479166608
                },
                {
                    "name": "A4",
                    "midi": 69,
                    "time": 457.16155700000934,
                    "velocity": 0.3779527559055118,
                    "duration": 0.6572584479166608
                },
                {
                    "name": "F4",
                    "midi": 65,
                    "time": 457.83897675000935,
                    "velocity": 0.3464566929133858,
                    "duration": 0.04838712499997655
                },
                {
                    "name": "C5",
                    "midi": 72,
                    "time": 457.83897675000935,
                    "velocity": 0.41732283464566927,
                    "duration": 0.04838712499997655
                },
                {
                    "name": "D#5",
                    "midi": 75,
                    "time": 457.83897675000935,
                    "velocity": 0.3464566929133858,
                    "duration": 0.04838712499997655
                },
                {
                    "name": "F4",
                    "midi": 65,
                    "time": 457.9357510000093,
                    "velocity": 0.3779527559055118,
                    "duration": 0.09677425000000994
                },
                {
                    "name": "C5",
                    "midi": 72,
                    "time": 457.9357510000093,
                    "velocity": 0.44881889763779526,
                    "duration": 0.09677425000000994
                },
                {
                    "name": "D#5",
                    "midi": 75,
                    "time": 457.9357510000093,
                    "velocity": 0.3779527559055118,
                    "duration": 0.09677425000000994
                },
                {
                    "name": "D#5",
                    "midi": 75,
                    "time": 458.22607375000933,
                    "velocity": 0.3464566929133858,
                    "duration": 0.04838712499997655
                },
                {
                    "name": "C5",
                    "midi": 72,
                    "time": 458.22607375000933,
                    "velocity": 0.41732283464566927,
                    "duration": 0.04838712499997655
                },
                {
                    "name": "F4",
                    "midi": 65,
                    "time": 458.22607375000933,
                    "velocity": 0.3464566929133858,
                    "duration": 0.04838712499997655
                },
                {
                    "name": "D5",
                    "midi": 74,
                    "time": 458.3228480000093,
                    "velocity": 0.3700787401574803,
                    "duration": 0.09677425000000994
                },
                {
                    "name": "B4",
                    "midi": 71,
                    "time": 458.3228480000093,
                    "velocity": 0.44881889763779526,
                    "duration": 0.09677425000000994
                },
                {
                    "name": "F4",
                    "midi": 65,
                    "time": 458.3228480000093,
                    "velocity": 0.3700787401574803,
                    "duration": 0.09677425000000994
                },
                {
                    "name": "C5",
                    "midi": 72,
                    "time": 458.6131707500093,
                    "velocity": 0.41732283464566927,
                    "duration": 0.04838712499997655
                },
                {
                    "name": "F4",
                    "midi": 65,
                    "time": 458.6131707500093,
                    "velocity": 0.3464566929133858,
                    "duration": 0.04838712499997655
                },
                {
                    "name": "A4",
                    "midi": 69,
                    "time": 458.6131707500093,
                    "velocity": 0.41732283464566927,
                    "duration": 0.04838712499997655
                },
                {
                    "name": "D4",
                    "midi": 62,
                    "time": 458.70994500000927,
                    "velocity": 0.31496062992125984,
                    "duration": 0.7741940000000227
                },
                {
                    "name": "F4",
                    "midi": 65,
                    "time": 458.70994500000927,
                    "velocity": 0.31496062992125984,
                    "duration": 0.7741940000000227
                },
                {
                    "name": "A#4",
                    "midi": 70,
                    "time": 458.70994500000927,
                    "velocity": 0.3779527559055118,
                    "duration": 0.7741940000000227
                },
                {
                    "name": "D4",
                    "midi": 62,
                    "time": 459.4841390000093,
                    "velocity": 0.31496062992125984,
                    "duration": 0.6572584479166608
                },
                {
                    "name": "F4",
                    "midi": 65,
                    "time": 459.4841390000093,
                    "velocity": 0.31496062992125984,
                    "duration": 0.6572584479166608
                },
                {
                    "name": "A#4",
                    "midi": 70,
                    "time": 459.4841390000093,
                    "velocity": 0.3779527559055118,
                    "duration": 0.6572584479166608
                },
                {
                    "name": "D#5",
                    "midi": 75,
                    "time": 460.1615587500093,
                    "velocity": 0.30708661417322836,
                    "duration": 0.04838712499997655
                },
                {
                    "name": "F4",
                    "midi": 65,
                    "time": 460.1615587500093,
                    "velocity": 0.30708661417322836,
                    "duration": 0.04838712499997655
                },
                {
                    "name": "C5",
                    "midi": 72,
                    "time": 460.1615587500093,
                    "velocity": 0.3700787401574803,
                    "duration": 0.04838712499997655
                },
                {
                    "name": "D#5",
                    "midi": 75,
                    "time": 460.25833300000926,
                    "velocity": 0.33858267716535434,
                    "duration": 0.09677425000000994
                },
                {
                    "name": "F4",
                    "midi": 65,
                    "time": 460.25833300000926,
                    "velocity": 0.33858267716535434,
                    "duration": 0.09677425000000994
                },
                {
                    "name": "C5",
                    "midi": 72,
                    "time": 460.25833300000926,
                    "velocity": 0.4015748031496063,
                    "duration": 0.09677425000000994
                },
                {
                    "name": "D#5",
                    "midi": 75,
                    "time": 460.5486557500093,
                    "velocity": 0.30708661417322836,
                    "duration": 0.04838712499997655
                },
                {
                    "name": "F4",
                    "midi": 65,
                    "time": 460.5486557500093,
                    "velocity": 0.30708661417322836,
                    "duration": 0.04838712499997655
                },
                {
                    "name": "C5",
                    "midi": 72,
                    "time": 460.5486557500093,
                    "velocity": 0.3700787401574803,
                    "duration": 0.04838712499997655
                },
                {
                    "name": "D5",
                    "midi": 74,
                    "time": 460.64543000000924,
                    "velocity": 0.33070866141732286,
                    "duration": 0.09677425000000994
                },
                {
                    "name": "F4",
                    "midi": 65,
                    "time": 460.64543000000924,
                    "velocity": 0.33070866141732286,
                    "duration": 0.09677425000000994
                },
                {
                    "name": "A#4",
                    "midi": 70,
                    "time": 460.64543000000924,
                    "velocity": 0.4015748031496063,
                    "duration": 0.09677425000000994
                },
                {
                    "name": "C5",
                    "midi": 72,
                    "time": 460.93575275000927,
                    "velocity": 0.3700787401574803,
                    "duration": 0.04838712499997655
                },
                {
                    "name": "F4",
                    "midi": 65,
                    "time": 460.93575275000927,
                    "velocity": 0.30708661417322836,
                    "duration": 0.04838712499997655
                },
                {
                    "name": "A4",
                    "midi": 69,
                    "time": 460.93575275000927,
                    "velocity": 0.3700787401574803,
                    "duration": 0.04838712499997655
                },
                {
                    "name": "D4",
                    "midi": 62,
                    "time": 461.0325270000092,
                    "velocity": 0.2992125984251969,
                    "duration": 0.7741940000000227
                },
                {
                    "name": "F4",
                    "midi": 65,
                    "time": 461.0325270000092,
                    "velocity": 0.2992125984251969,
                    "duration": 0.7741940000000227
                },
                {
                    "name": "A#4",
                    "midi": 70,
                    "time": 461.0325270000092,
                    "velocity": 0.3543307086614173,
                    "duration": 0.7741940000000227
                },
                {
                    "name": "D4",
                    "midi": 62,
                    "time": 461.80672100000925,
                    "velocity": 0.2992125984251969,
                    "duration": 0.6572584479166608
                },
                {
                    "name": "F4",
                    "midi": 65,
                    "time": 461.80672100000925,
                    "velocity": 0.2992125984251969,
                    "duration": 0.6572584479166608
                },
                {
                    "name": "A#4",
                    "midi": 70,
                    "time": 461.80672100000925,
                    "velocity": 0.3543307086614173,
                    "duration": 0.6572584479166608
                },
                {
                    "name": "D#5",
                    "midi": 75,
                    "time": 462.48414075000926,
                    "velocity": 0.2755905511811024,
                    "duration": 0.04838712499997655
                },
                {
                    "name": "F4",
                    "midi": 65,
                    "time": 462.48414075000926,
                    "velocity": 0.2755905511811024,
                    "duration": 0.04838712499997655
                },
                {
                    "name": "C5",
                    "midi": 72,
                    "time": 462.48414075000926,
                    "velocity": 0.33070866141732286,
                    "duration": 0.04838712499997655
                },
                {
                    "name": "D#5",
                    "midi": 75,
                    "time": 462.5809150000092,
                    "velocity": 0.2992125984251969,
                    "duration": 0.09677425000000994
                },
                {
                    "name": "F4",
                    "midi": 65,
                    "time": 462.5809150000092,
                    "velocity": 0.2992125984251969,
                    "duration": 0.09677425000000994
                },
                {
                    "name": "C5",
                    "midi": 72,
                    "time": 462.5809150000092,
                    "velocity": 0.3543307086614173,
                    "duration": 0.09677425000000994
                },
                {
                    "name": "D#5",
                    "midi": 75,
                    "time": 462.87123775000924,
                    "velocity": 0.2677165354330709,
                    "duration": 0.04838712499997655
                },
                {
                    "name": "F4",
                    "midi": 65,
                    "time": 462.87123775000924,
                    "velocity": 0.2677165354330709,
                    "duration": 0.04838712499997655
                },
                {
                    "name": "C5",
                    "midi": 72,
                    "time": 462.87123775000924,
                    "velocity": 0.3228346456692913,
                    "duration": 0.04838712499997655
                },
                {
                    "name": "D5",
                    "midi": 74,
                    "time": 462.9680120000092,
                    "velocity": 0.28346456692913385,
                    "duration": 0.09677425000000994
                },
                {
                    "name": "F4",
                    "midi": 65,
                    "time": 462.9680120000092,
                    "velocity": 0.28346456692913385,
                    "duration": 0.09677425000000994
                },
                {
                    "name": "A#4",
                    "midi": 70,
                    "time": 462.9680120000092,
                    "velocity": 0.3464566929133858,
                    "duration": 0.09677425000000994
                },
                {
                    "name": "C5",
                    "midi": 72,
                    "time": 463.2583347500092,
                    "velocity": 0.30708661417322836,
                    "duration": 0.04838712499997655
                },
                {
                    "name": "F4",
                    "midi": 65,
                    "time": 463.2583347500092,
                    "velocity": 0.25984251968503935,
                    "duration": 0.04838712499997655
                },
                {
                    "name": "A4",
                    "midi": 69,
                    "time": 463.2583347500092,
                    "velocity": 0.30708661417322836,
                    "duration": 0.04838712499997655
                },
                {
                    "name": "D4",
                    "midi": 62,
                    "time": 463.3551090000092,
                    "velocity": 0.2440944881889764,
                    "duration": 0.28225822916664356
                },
                {
                    "name": "F4",
                    "midi": 65,
                    "time": 463.3551090000092,
                    "velocity": 0.2440944881889764,
                    "duration": 0.28225822916664356
                },
                {
                    "name": "A#4",
                    "midi": 70,
                    "time": 463.3551090000092,
                    "velocity": 0.29133858267716534,
                    "duration": 0.28225822916664356
                },
                {
                    "name": "A#2",
                    "midi": 46,
                    "time": 463.64543175000915,
                    "velocity": 0.5511811023622047,
                    "duration": 0.04838712499997655
                },
                {
                    "name": "A#2",
                    "midi": 46,
                    "time": 463.7422060000091,
                    "velocity": 0.5984251968503937,
                    "duration": 0.09677425000000994
                },
                {
                    "name": "A#2",
                    "midi": 46,
                    "time": 464.03252875000913,
                    "velocity": 0.5511811023622047,
                    "duration": 0.04838712499997655
                },
                {
                    "name": "A#2",
                    "midi": 46,
                    "time": 464.1293030000091,
                    "velocity": 0.5905511811023622,
                    "duration": 0.09677425000000994
                },
                {
                    "name": "C3",
                    "midi": 48,
                    "time": 464.4196257500091,
                    "velocity": 0.5511811023622047,
                    "duration": 0.04838712499997655
                },
                {
                    "name": "D3",
                    "midi": 50,
                    "time": 464.51640000000907,
                    "velocity": 0.5905511811023622,
                    "duration": 0.28225822916664356
                },
                {
                    "name": "D3",
                    "midi": 50,
                    "time": 464.80672275000904,
                    "velocity": 0.4645669291338583,
                    "duration": 0.04838712499997655
                },
                {
                    "name": "D4",
                    "midi": 62,
                    "time": 464.80672275000904,
                    "velocity": 0.5511811023622047,
                    "duration": 0.04838712499997655
                },
                {
                    "name": "D3",
                    "midi": 50,
                    "time": 464.903497000009,
                    "velocity": 0.5039370078740157,
                    "duration": 0.09677425000000994
                },
                {
                    "name": "D4",
                    "midi": 62,
                    "time": 464.903497000009,
                    "velocity": 0.5984251968503937,
                    "duration": 0.09677425000000994
                },
                {
                    "name": "D3",
                    "midi": 50,
                    "time": 465.193819750009,
                    "velocity": 0.4645669291338583,
                    "duration": 0.04838712499997655
                },
                {
                    "name": "D4",
                    "midi": 62,
                    "time": 465.193819750009,
                    "velocity": 0.5511811023622047,
                    "duration": 0.04838712499997655
                },
                {
                    "name": "D3",
                    "midi": 50,
                    "time": 465.290594000009,
                    "velocity": 0.49606299212598426,
                    "duration": 0.09677425000000994
                },
                {
                    "name": "D4",
                    "midi": 62,
                    "time": 465.290594000009,
                    "velocity": 0.5905511811023622,
                    "duration": 0.09677425000000994
                },
                {
                    "name": "E3",
                    "midi": 52,
                    "time": 465.580916750009,
                    "velocity": 0.4645669291338583,
                    "duration": 0.04838712499997655
                },
                {
                    "name": "E4",
                    "midi": 64,
                    "time": 465.580916750009,
                    "velocity": 0.5511811023622047,
                    "duration": 0.04838712499997655
                },
                {
                    "name": "F4",
                    "midi": 65,
                    "time": 465.67769100000896,
                    "velocity": 0.6456692913385826,
                    "duration": 0.28225822916664356
                },
                {
                    "name": "F3",
                    "midi": 53,
                    "time": 465.67769100000896,
                    "velocity": 0.5433070866141733,
                    "duration": 0.290322749999973
                },
                {
                    "name": "F3",
                    "midi": 53,
                    "time": 465.96801375000894,
                    "velocity": 0.6062992125984252,
                    "duration": 0.04838712499997655
                },
                {
                    "name": "F3",
                    "midi": 53,
                    "time": 466.0647880000089,
                    "velocity": 0.6535433070866141,
                    "duration": 0.09677425000000994
                },
                {
                    "name": "F3",
                    "midi": 53,
                    "time": 466.3551107500089,
                    "velocity": 0.6062992125984252,
                    "duration": 0.04838712499997655
                },
                {
                    "name": "F3",
                    "midi": 53,
                    "time": 466.4518850000089,
                    "velocity": 0.6456692913385826,
                    "duration": 0.09677425000000994
                },
                {
                    "name": "G3",
                    "midi": 55,
                    "time": 466.7422077500089,
                    "velocity": 0.6062992125984252,
                    "duration": 0.04838712499997655
                },
                {
                    "name": "A3",
                    "midi": 57,
                    "time": 466.83898200000885,
                    "velocity": 0.7086614173228346,
                    "duration": 0.28225822916664356
                },
                {
                    "name": "A3",
                    "midi": 57,
                    "time": 467.1293047500088,
                    "velocity": 0.47244094488188976,
                    "duration": 0.04838712499997655
                },
                {
                    "name": "A4",
                    "midi": 69,
                    "time": 467.1293047500088,
                    "velocity": 0.5590551181102362,
                    "duration": 0.04838712499997655
                },
                {
                    "name": "A4",
                    "midi": 69,
                    "time": 467.2260790000088,
                    "velocity": 0.6141732283464567,
                    "duration": 0.09677425000000994
                },
                {
                    "name": "A3",
                    "midi": 57,
                    "time": 467.2260790000088,
                    "velocity": 0.5118110236220472,
                    "duration": 0.09677425000000994
                },
                {
                    "name": "B3",
                    "midi": 59,
                    "time": 467.5164017500088,
                    "velocity": 0.48031496062992124,
                    "duration": 0.04838712499997655
                },
                {
                    "name": "B4",
                    "midi": 71,
                    "time": 467.5164017500088,
                    "velocity": 0.5748031496062992,
                    "duration": 0.04838712499997655
                },
                {
                    "name": "C#5",
                    "midi": 73,
                    "time": 467.61317600000876,
                    "velocity": 0.6220472440944882,
                    "duration": 0.09677425000000994
                },
                {
                    "name": "C#4",
                    "midi": 61,
                    "time": 467.61317600000876,
                    "velocity": 0.5196850393700787,
                    "duration": 0.09677425000000994
                },
                {
                    "name": "D4",
                    "midi": 62,
                    "time": 467.9034987500088,
                    "velocity": 0.5039370078740157,
                    "duration": 0.04838712499997655
                },
                {
                    "name": "D5",
                    "midi": 74,
                    "time": 467.9034987500088,
                    "velocity": 0.5984251968503937,
                    "duration": 0.04838712499997655
                },
                {
                    "name": "E4",
                    "midi": 64,
                    "time": 468.00027300000875,
                    "velocity": 0.5511811023622047,
                    "duration": 0.7508068895833162
                },
                {
                    "name": "A4",
                    "midi": 69,
                    "time": 468.00027300000875,
                    "velocity": 0.5511811023622047,
                    "duration": 0.7508068895833162
                },
                {
                    "name": "C#5",
                    "midi": 73,
                    "time": 468.00027300000875,
                    "velocity": 0.5511811023622047,
                    "duration": 0.7741939999999659
                },
                {
                    "name": "E5",
                    "midi": 76,
                    "time": 468.00027300000875,
                    "velocity": 0.6535433070866141,
                    "duration": 0.7508068895833162
                },
                {
                    "name": "E5",
                    "midi": 76,
                    "time": 468.7744670000087,
                    "velocity": 0.6535433070866141,
                    "duration": 0.6572584479166608
                },
                {
                    "name": "C#5",
                    "midi": 73,
                    "time": 468.7744670000087,
                    "velocity": 0.5511811023622047,
                    "duration": 0.6572584479166608
                },
                {
                    "name": "A4",
                    "midi": 69,
                    "time": 468.7744670000087,
                    "velocity": 0.5511811023622047,
                    "duration": 0.6572584479166608
                },
                {
                    "name": "E4",
                    "midi": 64,
                    "time": 468.7744670000087,
                    "velocity": 0.5511811023622047,
                    "duration": 0.6572584479166608
                },
                {
                    "name": "G#4",
                    "midi": 68,
                    "time": 469.4518867500087,
                    "velocity": 0.4566929133858268,
                    "duration": 0.09193553749997818
                },
                {
                    "name": "D5",
                    "midi": 74,
                    "time": 469.4518867500087,
                    "velocity": 0.4566929133858268,
                    "duration": 0.09193553749997818
                },
                {
                    "name": "E5",
                    "midi": 76,
                    "time": 469.4518867500087,
                    "velocity": 0.5748031496062992,
                    "duration": 0.09193553749997818
                },
                {
                    "name": "G#4",
                    "midi": 68,
                    "time": 469.5486610000087,
                    "velocity": 0.5196850393700787,
                    "duration": 0.2758066124999914
                },
                {
                    "name": "D5",
                    "midi": 74,
                    "time": 469.5486610000087,
                    "velocity": 0.5196850393700787,
                    "duration": 0.2758066124999914
                },
                {
                    "name": "E5",
                    "midi": 76,
                    "time": 469.5486610000087,
                    "velocity": 0.6456692913385826,
                    "duration": 0.2685485437500006
                },
                {
                    "name": "D5",
                    "midi": 74,
                    "time": 469.83898375000865,
                    "velocity": 0.49606299212598426,
                    "duration": 0.09193553749997818
                },
                {
                    "name": "E5",
                    "midi": 76,
                    "time": 469.83898375000865,
                    "velocity": 0.6299212598425197,
                    "duration": 0.09193553749997818
                },
                {
                    "name": "G#4",
                    "midi": 68,
                    "time": 469.83898375000865,
                    "velocity": 0.49606299212598426,
                    "duration": 0.09193553749997818
                },
                {
                    "name": "G#4",
                    "midi": 68,
                    "time": 469.9357580000086,
                    "velocity": 0.5275590551181102,
                    "duration": 0.2758066124999914
                },
                {
                    "name": "F#5",
                    "midi": 78,
                    "time": 469.9357580000086,
                    "velocity": 0.6692913385826772,
                    "duration": 0.2758066124999914
                },
                {
                    "name": "D5",
                    "midi": 74,
                    "time": 469.9357580000086,
                    "velocity": 0.5275590551181102,
                    "duration": 0.2758066124999914
                },
                {
                    "name": "G#4",
                    "midi": 68,
                    "time": 470.2260807500086,
                    "velocity": 0.5118110236220472,
                    "duration": 0.09677425000000994
                },
                {
                    "name": "G#5",
                    "midi": 80,
                    "time": 470.2260807500086,
                    "velocity": 0.6535433070866141,
                    "duration": 0.09677425000000994
                },
                {
                    "name": "D5",
                    "midi": 74,
                    "time": 470.2260807500086,
                    "velocity": 0.5118110236220472,
                    "duration": 0.09677425000000994
                },
                {
                    "name": "A4",
                    "midi": 69,
                    "time": 470.3228550000086,
                    "velocity": 0.6141732283464567,
                    "duration": 0.7508068895833162
                },
                {
                    "name": "C#5",
                    "midi": 73,
                    "time": 470.3228550000086,
                    "velocity": 0.6141732283464567,
                    "duration": 0.7508068895833162
                },
                {
                    "name": "A5",
                    "midi": 81,
                    "time": 470.3228550000086,
                    "velocity": 0.7322834645669292,
                    "duration": 0.7508068895833162
                },
                {
                    "name": "A4",
                    "midi": 69,
                    "time": 471.09704900000855,
                    "velocity": 0.6141732283464567,
                    "duration": 0.6612907083333539
                },
                {
                    "name": "C#5",
                    "midi": 73,
                    "time": 471.09704900000855,
                    "velocity": 0.6141732283464567,
                    "duration": 0.6612907083333539
                },
                {
                    "name": "A5",
                    "midi": 81,
                    "time": 471.09704900000855,
                    "velocity": 0.7322834645669292,
                    "duration": 0.6612907083333539
                },
                {
                    "name": "A3",
                    "midi": 57,
                    "time": 471.77446875000857,
                    "velocity": 0.3700787401574803,
                    "duration": 0.04838712499997655
                },
                {
                    "name": "C#4",
                    "midi": 61,
                    "time": 471.77446875000857,
                    "velocity": 0.4409448818897638,
                    "duration": 0.04838712499997655
                },
                {
                    "name": "G3",
                    "midi": 55,
                    "time": 471.77446875000857,
                    "velocity": 0.3700787401574803,
                    "duration": 0.04838712499997655
                },
                {
                    "name": "A3",
                    "midi": 57,
                    "time": 471.8712430000085,
                    "velocity": 0.4015748031496063,
                    "duration": 0.290322749999973
                },
                {
                    "name": "D4",
                    "midi": 62,
                    "time": 471.8712430000085,
                    "velocity": 0.47244094488188976,
                    "duration": 0.290322749999973
                },
                {
                    "name": "G3",
                    "midi": 55,
                    "time": 471.8712430000085,
                    "velocity": 0.4015748031496063,
                    "duration": 0.290322749999973
                },
                {
                    "name": "A3",
                    "midi": 57,
                    "time": 472.1615657500085,
                    "velocity": 0.3700787401574803,
                    "duration": 0.04838712499997655
                },
                {
                    "name": "C#4",
                    "midi": 61,
                    "time": 472.1615657500085,
                    "velocity": 0.4409448818897638,
                    "duration": 0.04838712499997655
                },
                {
                    "name": "G3",
                    "midi": 55,
                    "time": 472.1615657500085,
                    "velocity": 0.3700787401574803,
                    "duration": 0.04838712499997655
                },
                {
                    "name": "G3",
                    "midi": 55,
                    "time": 472.25834000000845,
                    "velocity": 0.3937007874015748,
                    "duration": 0.290322749999973
                },
                {
                    "name": "D4",
                    "midi": 62,
                    "time": 472.25834000000845,
                    "velocity": 0.47244094488188976,
                    "duration": 0.290322749999973
                },
                {
                    "name": "A3",
                    "midi": 57,
                    "time": 472.25834000000845,
                    "velocity": 0.3937007874015748,
                    "duration": 0.290322749999973
                },
                {
                    "name": "G3",
                    "midi": 55,
                    "time": 472.5486627500084,
                    "velocity": 0.3700787401574803,
                    "duration": 0.04838712499997655
                },
                {
                    "name": "E4",
                    "midi": 64,
                    "time": 472.5486627500084,
                    "velocity": 0.4409448818897638,
                    "duration": 0.04838712499997655
                },
                {
                    "name": "A3",
                    "midi": 57,
                    "time": 472.5486627500084,
                    "velocity": 0.3700787401574803,
                    "duration": 0.04838712499997655
                },
                {
                    "name": "F#3",
                    "midi": 54,
                    "time": 472.64543700000837,
                    "velocity": 0.4251968503937008,
                    "duration": 0.7508068895833162
                },
                {
                    "name": "A3",
                    "midi": 57,
                    "time": 472.64543700000837,
                    "velocity": 0.5039370078740157,
                    "duration": 0.7508068895833162
                },
                {
                    "name": "F#4",
                    "midi": 66,
                    "time": 473.41963100000834,
                    "velocity": 0.5039370078740157,
                    "duration": 0.6572584479166608
                },
                {
                    "name": "A3",
                    "midi": 57,
                    "time": 473.41963100000834,
                    "velocity": 0.4251968503937008,
                    "duration": 0.6572584479166608
                },
                {
                    "name": "A3",
                    "midi": 57,
                    "time": 474.09705075000835,
                    "velocity": 0.41732283464566927,
                    "duration": 0.09677425000000994
                },
                {
                    "name": "F#4",
                    "midi": 66,
                    "time": 474.09705075000835,
                    "velocity": 0.41732283464566927,
                    "duration": 0.09677425000000994
                },
                {
                    "name": "G3",
                    "midi": 55,
                    "time": 474.19382500000836,
                    "velocity": 0.47244094488188976,
                    "duration": 0.09677425000000994
                },
                {
                    "name": "G4",
                    "midi": 67,
                    "time": 474.19382500000836,
                    "velocity": 0.47244094488188976,
                    "duration": 0.09677425000000994
                },
                {
                    "name": "F#4",
                    "midi": 66,
                    "time": 474.4841477500084,
                    "velocity": 0.4409448818897638,
                    "duration": 0.09677425000000994
                },
                {
                    "name": "G3",
                    "midi": 55,
                    "time": 474.4841477500084,
                    "velocity": 0.4409448818897638,
                    "duration": 0.09677425000000994
                },
                {
                    "name": "E4",
                    "midi": 64,
                    "time": 474.5809220000084,
                    "velocity": 0.4645669291338583,
                    "duration": 0.09677425000000994
                },
                {
                    "name": "G#3",
                    "midi": 56,
                    "time": 474.5809220000084,
                    "velocity": 0.4645669291338583,
                    "duration": 0.09677425000000994
                },
                {
                    "name": "D4",
                    "midi": 62,
                    "time": 474.87124475000843,
                    "velocity": 0.4409448818897638,
                    "duration": 0.09677425000000994
                },
                {
                    "name": "G#3",
                    "midi": 56,
                    "time": 474.87124475000843,
                    "velocity": 0.4409448818897638,
                    "duration": 0.09677425000000994
                },
                {
                    "name": "A3",
                    "midi": 57,
                    "time": 474.96801900000844,
                    "velocity": 0.4251968503937008,
                    "duration": 0.7508068895833162
                },
                {
                    "name": "A4",
                    "midi": 69,
                    "time": 474.96801900000844,
                    "velocity": 0.5039370078740157,
                    "duration": 0.7508068895833162
                },
                {
                    "name": "C#4",
                    "midi": 61,
                    "time": 474.96801900000844,
                    "velocity": 0.4251968503937008,
                    "duration": 0.7508068895833162
                },
                {
                    "name": "C#4",
                    "midi": 61,
                    "time": 475.7422130000084,
                    "velocity": 0.4251968503937008,
                    "duration": 0.6572584479166608
                },
                {
                    "name": "E4",
                    "midi": 64,
                    "time": 475.7422130000084,
                    "velocity": 0.5039370078740157,
                    "duration": 0.6572584479166608
                },
                {
                    "name": "A4",
                    "midi": 69,
                    "time": 476.4196327500084,
                    "velocity": 0.41732283464566927,
                    "duration": 0.04838712499997655
                },
                {
                    "name": "E4",
                    "midi": 64,
                    "time": 476.4196327500084,
                    "velocity": 0.41732283464566927,
                    "duration": 0.0967742499999531
                },
                {
                    "name": "C#5",
                    "midi": 73,
                    "time": 476.4680198750084,
                    "velocity": 0.41732283464566927,
                    "duration": 0.04838712499997655
                },
                {
                    "name": "B4",
                    "midi": 71,
                    "time": 476.51640700000837,
                    "velocity": 0.47244094488188976,
                    "duration": 0.09677425000000994
                },
                {
                    "name": "E4",
                    "midi": 64,
                    "time": 476.51640700000837,
                    "velocity": 0.47244094488188976,
                    "duration": 0.09677425000000994
                },
                {
                    "name": "E4",
                    "midi": 64,
                    "time": 476.8067297500084,
                    "velocity": 0.4409448818897638,
                    "duration": 0.09677425000000994
                },
                {
                    "name": "A4",
                    "midi": 69,
                    "time": 476.8067297500084,
                    "velocity": 0.4409448818897638,
                    "duration": 0.09677425000000994
                },
                {
                    "name": "E4",
                    "midi": 64,
                    "time": 476.9035040000084,
                    "velocity": 0.4645669291338583,
                    "duration": 0.09677425000000994
                },
                {
                    "name": "B4",
                    "midi": 71,
                    "time": 476.9035040000084,
                    "velocity": 0.4645669291338583,
                    "duration": 0.09677425000000994
                },
                {
                    "name": "E4",
                    "midi": 64,
                    "time": 477.19382675000844,
                    "velocity": 0.4409448818897638,
                    "duration": 0.09677425000000994
                },
                {
                    "name": "C#5",
                    "midi": 73,
                    "time": 477.19382675000844,
                    "velocity": 0.4409448818897638,
                    "duration": 0.09677425000000994
                },
                {
                    "name": "D5",
                    "midi": 74,
                    "time": 477.29060100000845,
                    "velocity": 0.5039370078740157,
                    "duration": 0.7508068895833162
                },
                {
                    "name": "D4",
                    "midi": 62,
                    "time": 477.29060100000845,
                    "velocity": 0.4251968503937008,
                    "duration": 0.7508068895833162
                },
                {
                    "name": "F#4",
                    "midi": 66,
                    "time": 477.29060100000845,
                    "velocity": 0.4251968503937008,
                    "duration": 0.7508068895833162
                },
                {
                    "name": "F#4",
                    "midi": 66,
                    "time": 478.0647950000084,
                    "velocity": 0.5039370078740157,
                    "duration": 0.6572584479166608
                },
                {
                    "name": "D4",
                    "midi": 62,
                    "time": 478.0647950000084,
                    "velocity": 0.4251968503937008,
                    "duration": 0.6572584479166608
                },
                {
                    "name": "D4",
                    "midi": 62,
                    "time": 478.74221475000843,
                    "velocity": 0.41732283464566927,
                    "duration": 0.0967742499999531
                },
                {
                    "name": "F#4",
                    "midi": 66,
                    "time": 478.74221475000843,
                    "velocity": 0.41732283464566927,
                    "duration": 0.04838712499997655
                },
                {
                    "name": "A4",
                    "midi": 69,
                    "time": 478.7906018750084,
                    "velocity": 0.41732283464566927,
                    "duration": 0.04838712499997655
                },
                {
                    "name": "G#4",
                    "midi": 68,
                    "time": 478.8389890000084,
                    "velocity": 0.47244094488188976,
                    "duration": 0.09677425000000994
                },
                {
                    "name": "D4",
                    "midi": 62,
                    "time": 478.8389890000084,
                    "velocity": 0.47244094488188976,
                    "duration": 0.09677425000000994
                },
                {
                    "name": "D4",
                    "midi": 62,
                    "time": 479.1293117500084,
                    "velocity": 0.4409448818897638,
                    "duration": 0.09677425000000994
                },
                {
                    "name": "F#4",
                    "midi": 66,
                    "time": 479.1293117500084,
                    "velocity": 0.4409448818897638,
                    "duration": 0.09677425000000994
                },
                {
                    "name": "D4",
                    "midi": 62,
                    "time": 479.2260860000084,
                    "velocity": 0.4645669291338583,
                    "duration": 0.09677425000000994
                },
                {
                    "name": "G#4",
                    "midi": 68,
                    "time": 479.2260860000084,
                    "velocity": 0.4645669291338583,
                    "duration": 0.09677425000000994
                },
                {
                    "name": "E4",
                    "midi": 64,
                    "time": 479.51640875000845,
                    "velocity": 0.4409448818897638,
                    "duration": 0.09677425000000994
                },
                {
                    "name": "D4",
                    "midi": 62,
                    "time": 479.51640875000845,
                    "velocity": 0.4409448818897638,
                    "duration": 0.09677425000000994
                },
                {
                    "name": "B4",
                    "midi": 71,
                    "time": 479.61318300000846,
                    "velocity": 0.5039370078740157,
                    "duration": 0.7508068895833162
                },
                {
                    "name": "C#4",
                    "midi": 61,
                    "time": 479.61318300000846,
                    "velocity": 0.4251968503937008,
                    "duration": 0.7508068895833162
                },
                {
                    "name": "C#4",
                    "midi": 61,
                    "time": 480.3873770000084,
                    "velocity": 0.4251968503937008,
                    "duration": 0.7661294791666933
                },
                {
                    "name": "A4",
                    "midi": 69,
                    "time": 480.3873770000084,
                    "velocity": 0.5039370078740157,
                    "duration": 0.7661294791666933
                },
                {
                    "name": "D4",
                    "midi": 62,
                    "time": 481.16157100000845,
                    "velocity": 0.4409448818897638,
                    "duration": 0.3677421500000264
                },
                {
                    "name": "A4",
                    "midi": 69,
                    "time": 481.16157100000845,
                    "velocity": 0.5275590551181102,
                    "duration": 0.3677421500000264
                },
                {
                    "name": "F#4",
                    "midi": 66,
                    "time": 481.16157100000845,
                    "velocity": 0.4409448818897638,
                    "duration": 0.3677421500000264
                },
                {
                    "name": "F#4",
                    "midi": 66,
                    "time": 481.5486680000085,
                    "velocity": 0.41732283464566927,
                    "duration": 0.37580667083335584
                },
                {
                    "name": "A#4",
                    "midi": 70,
                    "time": 481.5486680000085,
                    "velocity": 0.49606299212598426,
                    "duration": 0.37580667083335584
                },
                {
                    "name": "D4",
                    "midi": 62,
                    "time": 481.5486680000085,
                    "velocity": 0.41732283464566927,
                    "duration": 0.37580667083335584
                },
                {
                    "name": "B4",
                    "midi": 71,
                    "time": 481.93576500000853,
                    "velocity": 0.47244094488188976,
                    "duration": 0.7741940000000227
                },
                {
                    "name": "G4",
                    "midi": 67,
                    "time": 481.93576500000853,
                    "velocity": 0.4015748031496063,
                    "duration": 0.7741940000000227
                },
                {
                    "name": "D4",
                    "midi": 62,
                    "time": 481.93576500000853,
                    "velocity": 0.4015748031496063,
                    "duration": 0.7741940000000227
                },
                {
                    "name": "G4",
                    "midi": 67,
                    "time": 482.70995900000855,
                    "velocity": 0.4409448818897638,
                    "duration": 0.37580667083335584
                },
                {
                    "name": "B4",
                    "midi": 71,
                    "time": 482.70995900000855,
                    "velocity": 0.4409448818897638,
                    "duration": 0.37580667083335584
                },
                {
                    "name": "E5",
                    "midi": 76,
                    "time": 482.70995900000855,
                    "velocity": 0.5275590551181102,
                    "duration": 0.37580667083335584
                },
                {
                    "name": "B4",
                    "midi": 71,
                    "time": 483.0970560000086,
                    "velocity": 0.44881889763779526,
                    "duration": 0.19354850000001989
                },
                {
                    "name": "E5",
                    "midi": 76,
                    "time": 483.0970560000086,
                    "velocity": 0.44881889763779526,
                    "duration": 0.19354850000001989
                },
                {
                    "name": "G5",
                    "midi": 79,
                    "time": 483.0970560000086,
                    "velocity": 0.5354330708661418,
                    "duration": 0.19354850000001989
                },
                {
                    "name": "G4",
                    "midi": 67,
                    "time": 483.48415300000863,
                    "velocity": 0.41732283464566927,
                    "duration": 0.19354850000001989
                },
                {
                    "name": "B4",
                    "midi": 71,
                    "time": 483.48415300000863,
                    "velocity": 0.41732283464566927,
                    "duration": 0.19354850000001989
                },
                {
                    "name": "E5",
                    "midi": 76,
                    "time": 483.48415300000863,
                    "velocity": 0.49606299212598426,
                    "duration": 0.2016130208333493
                },
                {
                    "name": "C#4",
                    "midi": 61,
                    "time": 483.8712500000087,
                    "velocity": 0.3858267716535433,
                    "duration": 0.19354850000001989
                },
                {
                    "name": "E4",
                    "midi": 64,
                    "time": 483.8712500000087,
                    "velocity": 0.3858267716535433,
                    "duration": 0.19354850000001989
                },
                {
                    "name": "G4",
                    "midi": 67,
                    "time": 483.8712500000087,
                    "velocity": 0.4566929133858268,
                    "duration": 0.19354850000001989
                },
                {
                    "name": "C#4",
                    "midi": 61,
                    "time": 484.2583470000087,
                    "velocity": 0.4330708661417323,
                    "duration": 0.7741940000000227
                },
                {
                    "name": "F#4",
                    "midi": 66,
                    "time": 484.2583470000087,
                    "velocity": 0.4330708661417323,
                    "duration": 0.7741940000000227
                },
                {
                    "name": "A4",
                    "midi": 69,
                    "time": 484.2583470000087,
                    "velocity": 0.5118110236220472,
                    "duration": 0.7741940000000227
                },
                {
                    "name": "F#4",
                    "midi": 66,
                    "time": 485.03254100000873,
                    "velocity": 0.4645669291338583,
                    "duration": 0.37580667083335584
                },
                {
                    "name": "A4",
                    "midi": 69,
                    "time": 485.03254100000873,
                    "velocity": 0.4645669291338583,
                    "duration": 0.37580667083335584
                },
                {
                    "name": "D5",
                    "midi": 74,
                    "time": 485.03254100000873,
                    "velocity": 0.5511811023622047,
                    "duration": 0.37580667083335584
                },
                {
                    "name": "A4",
                    "midi": 69,
                    "time": 485.4196380000088,
                    "velocity": 0.4566929133858268,
                    "duration": 0.19354850000001989
                },
                {
                    "name": "D5",
                    "midi": 74,
                    "time": 485.4196380000088,
                    "velocity": 0.4566929133858268,
                    "duration": 0.19354850000001989
                },
                {
                    "name": "F#5",
                    "midi": 78,
                    "time": 485.4196380000088,
                    "velocity": 0.5433070866141733,
                    "duration": 0.19354850000001989
                },
                {
                    "name": "F#4",
                    "midi": 66,
                    "time": 485.8067350000088,
                    "velocity": 0.4015748031496063,
                    "duration": 0.19354850000001989
                },
                {
                    "name": "A4",
                    "midi": 69,
                    "time": 485.8067350000088,
                    "velocity": 0.4015748031496063,
                    "duration": 0.19354850000001989
                },
                {
                    "name": "D5",
                    "midi": 74,
                    "time": 485.8067350000088,
                    "velocity": 0.47244094488188976,
                    "duration": 0.19354850000001989
                },
                {
                    "name": "B3",
                    "midi": 59,
                    "time": 486.19383200000885,
                    "velocity": 0.3700787401574803,
                    "duration": 0.19354850000001989
                },
                {
                    "name": "D4",
                    "midi": 62,
                    "time": 486.19383200000885,
                    "velocity": 0.3700787401574803,
                    "duration": 0.19354850000001989
                },
                {
                    "name": "F#4",
                    "midi": 66,
                    "time": 486.19383200000885,
                    "velocity": 0.4409448818897638,
                    "duration": 0.19354850000001989
                },
                {
                    "name": "B3",
                    "midi": 59,
                    "time": 486.5809290000089,
                    "velocity": 0.4409448818897638,
                    "duration": 0.7741940000000227
                },
                {
                    "name": "E4",
                    "midi": 64,
                    "time": 486.5809290000089,
                    "velocity": 0.4409448818897638,
                    "duration": 0.7741940000000227
                },
                {
                    "name": "G4",
                    "midi": 67,
                    "time": 486.5809290000089,
                    "velocity": 0.5275590551181102,
                    "duration": 0.7741940000000227
                },
                {
                    "name": "E4",
                    "midi": 64,
                    "time": 487.3551230000089,
                    "velocity": 0.47244094488188976,
                    "duration": 0.37580667083335584
                },
                {
                    "name": "G4",
                    "midi": 67,
                    "time": 487.3551230000089,
                    "velocity": 0.47244094488188976,
                    "duration": 0.37580667083335584
                },
                {
                    "name": "C#5",
                    "midi": 73,
                    "time": 487.3551230000089,
                    "velocity": 0.5590551181102362,
                    "duration": 0.37580667083335584
                },
                {
                    "name": "G4",
                    "midi": 67,
                    "time": 487.74222000000896,
                    "velocity": 0.47244094488188976,
                    "duration": 0.19354850000001989
                },
                {
                    "name": "C#5",
                    "midi": 73,
                    "time": 487.74222000000896,
                    "velocity": 0.5590551181102362,
                    "duration": 0.19354850000001989
                },
                {
                    "name": "E5",
                    "midi": 76,
                    "time": 487.74222000000896,
                    "velocity": 0.5590551181102362,
                    "duration": 0.19354850000001989
                },
                {
                    "name": "E4",
                    "midi": 64,
                    "time": 488.129317000009,
                    "velocity": 0.4330708661417323,
                    "duration": 0.19354850000001989
                },
                {
                    "name": "G4",
                    "midi": 67,
                    "time": 488.129317000009,
                    "velocity": 0.4330708661417323,
                    "duration": 0.19354850000001989
                },
                {
                    "name": "C#5",
                    "midi": 73,
                    "time": 488.129317000009,
                    "velocity": 0.5118110236220472,
                    "duration": 0.19354850000001989
                },
                {
                    "name": "C#4",
                    "midi": 61,
                    "time": 488.51641400000904,
                    "velocity": 0.3937007874015748,
                    "duration": 0.19354850000001989
                },
                {
                    "name": "G#4",
                    "midi": 68,
                    "time": 488.51641400000904,
                    "velocity": 0.4645669291338583,
                    "duration": 0.19354850000001989
                },
                {
                    "name": "B4",
                    "midi": 71,
                    "time": 488.51641400000904,
                    "velocity": 0.4645669291338583,
                    "duration": 0.19354850000001989
                },
                {
                    "name": "F#4",
                    "midi": 66,
                    "time": 488.9035110000091,
                    "velocity": 0.4330708661417323,
                    "duration": 0.7741939999999659
                },
                {
                    "name": "C#4",
                    "midi": 61,
                    "time": 488.9035110000091,
                    "velocity": 0.4330708661417323,
                    "duration": 0.7508068895833162
                },
                {
                    "name": "A#4",
                    "midi": 70,
                    "time": 488.9035110000091,
                    "velocity": 0.5118110236220472,
                    "duration": 0.7508068895833162
                },
                {
                    "name": "F#4",
                    "midi": 66,
                    "time": 489.67770500000904,
                    "velocity": 0.4015748031496063,
                    "duration": 0.6572584479166608
                },
                {
                    "name": "C#4",
                    "midi": 61,
                    "time": 489.67770500000904,
                    "velocity": 0.4015748031496063,
                    "duration": 0.6572584479166608
                },
                {
                    "name": "A#4",
                    "midi": 70,
                    "time": 489.67770500000904,
                    "velocity": 0.47244094488188976,
                    "duration": 0.6572584479166608
                },
                {
                    "name": "F#4",
                    "midi": 66,
                    "time": 490.35512475000905,
                    "velocity": 0.47244094488188976,
                    "duration": 0.04838712499997655
                },
                {
                    "name": "C#5",
                    "midi": 73,
                    "time": 490.35512475000905,
                    "velocity": 0.5590551181102362,
                    "duration": 0.04838712499997655
                },
                {
                    "name": "F#4",
                    "midi": 66,
                    "time": 490.451899000009,
                    "velocity": 0.5118110236220472,
                    "duration": 0.09677425000000994
                },
                {
                    "name": "D#5",
                    "midi": 75,
                    "time": 490.451899000009,
                    "velocity": 0.6141732283464567,
                    "duration": 0.09677425000000994
                },
                {
                    "name": "F#4",
                    "midi": 66,
                    "time": 490.74222175000904,
                    "velocity": 0.48031496062992124,
                    "duration": 0.04838712499997655
                },
                {
                    "name": "C#5",
                    "midi": 73,
                    "time": 490.74222175000904,
                    "velocity": 0.5748031496062992,
                    "duration": 0.04838712499997655
                },
                {
                    "name": "F#4",
                    "midi": 66,
                    "time": 490.838996000009,
                    "velocity": 0.5196850393700787,
                    "duration": 0.09677425000000994
                },
                {
                    "name": "D#5",
                    "midi": 75,
                    "time": 490.838996000009,
                    "velocity": 0.6220472440944882,
                    "duration": 0.09677425000000994
                },
                {
                    "name": "F#4",
                    "midi": 66,
                    "time": 491.129318750009,
                    "velocity": 0.5039370078740157,
                    "duration": 0.04838712499997655
                },
                {
                    "name": "C#5",
                    "midi": 73,
                    "time": 491.129318750009,
                    "velocity": 0.5984251968503937,
                    "duration": 0.04838712499997655
                },
                {
                    "name": "B4",
                    "midi": 71,
                    "time": 491.226093000009,
                    "velocity": 0.5511811023622047,
                    "duration": 0.7741939999999659
                },
                {
                    "name": "F4",
                    "midi": 65,
                    "time": 491.226093000009,
                    "velocity": 0.5511811023622047,
                    "duration": 0.7508068895833162
                },
                {
                    "name": "F5",
                    "midi": 77,
                    "time": 491.226093000009,
                    "velocity": 0.6535433070866141,
                    "duration": 0.7508068895833162
                },
                {
                    "name": "F5",
                    "midi": 77,
                    "time": 492.00028700000894,
                    "velocity": 0.6535433070866141,
                    "duration": 0.6572584479166608
                },
                {
                    "name": "B4",
                    "midi": 71,
                    "time": 492.00028700000894,
                    "velocity": 0.5511811023622047,
                    "duration": 0.6572584479166608
                },
                {
                    "name": "F4",
                    "midi": 65,
                    "time": 492.00028700000894,
                    "velocity": 0.5511811023622047,
                    "duration": 0.6572584479166608
                },
                {
                    "name": "C#5",
                    "midi": 73,
                    "time": 492.67770675000895,
                    "velocity": 0.4566929133858268,
                    "duration": 0.09193553749997818
                },
                {
                    "name": "F4",
                    "midi": 65,
                    "time": 492.67770675000895,
                    "velocity": 0.4566929133858268,
                    "duration": 0.09193553749997818
                },
                {
                    "name": "F5",
                    "midi": 77,
                    "time": 492.67770675000895,
                    "velocity": 0.5748031496062992,
                    "duration": 0.09193553749997818
                },
                {
                    "name": "C#5",
                    "midi": 73,
                    "time": 492.7744810000089,
                    "velocity": 0.5196850393700787,
                    "duration": 0.2758066124999914
                },
                {
                    "name": "F4",
                    "midi": 65,
                    "time": 492.7744810000089,
                    "velocity": 0.5196850393700787,
                    "duration": 0.2758066124999914
                },
                {
                    "name": "F5",
                    "midi": 77,
                    "time": 492.7744810000089,
                    "velocity": 0.6456692913385826,
                    "duration": 0.26774209166666196
                },
                {
                    "name": "F5",
                    "midi": 77,
                    "time": 493.0648037500089,
                    "velocity": 0.6299212598425197,
                    "duration": 0.09193553749997818
                },
                {
                    "name": "F4",
                    "midi": 65,
                    "time": 493.0648037500089,
                    "velocity": 0.49606299212598426,
                    "duration": 0.09193553749997818
                },
                {
                    "name": "C#5",
                    "midi": 73,
                    "time": 493.0648037500089,
                    "velocity": 0.49606299212598426,
                    "duration": 0.09193553749997818
                },
                {
                    "name": "F5",
                    "midi": 77,
                    "time": 493.16157800000883,
                    "velocity": 0.6692913385826772,
                    "duration": 0.2758066124999914
                },
                {
                    "name": "F4",
                    "midi": 65,
                    "time": 493.16157800000883,
                    "velocity": 0.5275590551181102,
                    "duration": 0.2758066124999914
                },
                {
                    "name": "C#5",
                    "midi": 73,
                    "time": 493.16157800000883,
                    "velocity": 0.5275590551181102,
                    "duration": 0.2758066124999914
                },
                {
                    "name": "F5",
                    "midi": 77,
                    "time": 493.4519007500088,
                    "velocity": 0.6535433070866141,
                    "duration": 0.09677425000000994
                },
                {
                    "name": "F4",
                    "midi": 65,
                    "time": 493.4519007500088,
                    "velocity": 0.5118110236220472,
                    "duration": 0.09677425000000994
                },
                {
                    "name": "C#5",
                    "midi": 73,
                    "time": 493.4519007500088,
                    "velocity": 0.5118110236220472,
                    "duration": 0.09677425000000994
                },
                {
                    "name": "F#4",
                    "midi": 66,
                    "time": 493.5486750000088,
                    "velocity": 0.6141732283464567,
                    "duration": 0.7508068895833162
                },
                {
                    "name": "A#4",
                    "midi": 70,
                    "time": 493.5486750000088,
                    "velocity": 0.6141732283464567,
                    "duration": 0.7508068895833162
                },
                {
                    "name": "F#5",
                    "midi": 78,
                    "time": 493.5486750000088,
                    "velocity": 0.7322834645669292,
                    "duration": 0.7508068895833162
                },
                {
                    "name": "F#4",
                    "midi": 66,
                    "time": 494.3228690000088,
                    "velocity": 0.6141732283464567,
                    "duration": 0.6612907083333539
                },
                {
                    "name": "A#4",
                    "midi": 70,
                    "time": 494.3228690000088,
                    "velocity": 0.6141732283464567,
                    "duration": 0.6612907083333539
                },
                {
                    "name": "F#5",
                    "midi": 78,
                    "time": 494.3228690000088,
                    "velocity": 0.7322834645669292,
                    "duration": 0.6612907083333539
                },
                {
                    "name": "C#5",
                    "midi": 73,
                    "time": 495.0002887500088,
                    "velocity": 0.4409448818897638,
                    "duration": 0.04838712499997655
                },
                {
                    "name": "G4",
                    "midi": 67,
                    "time": 495.0002887500088,
                    "velocity": 0.3700787401574803,
                    "duration": 0.04838712499997655
                },
                {
                    "name": "A4",
                    "midi": 69,
                    "time": 495.0002887500088,
                    "velocity": 0.3700787401574803,
                    "duration": 0.04838712499997655
                },
                {
                    "name": "C#5",
                    "midi": 73,
                    "time": 495.09706300000875,
                    "velocity": 0.47244094488188976,
                    "duration": 0.28145177708330493
                },
                {
                    "name": "G4",
                    "midi": 67,
                    "time": 495.09706300000875,
                    "velocity": 0.4015748031496063,
                    "duration": 0.28145177708330493
                },
                {
                    "name": "A4",
                    "midi": 69,
                    "time": 495.09706300000875,
                    "velocity": 0.4015748031496063,
                    "duration": 0.28145177708330493
                },
                {
                    "name": "C#5",
                    "midi": 73,
                    "time": 495.3873857500087,
                    "velocity": 0.4409448818897638,
                    "duration": 0.04838712499997655
                },
                {
                    "name": "G4",
                    "midi": 67,
                    "time": 495.3873857500087,
                    "velocity": 0.3700787401574803,
                    "duration": 0.04838712499997655
                },
                {
                    "name": "A4",
                    "midi": 69,
                    "time": 495.3873857500087,
                    "velocity": 0.3700787401574803,
                    "duration": 0.04838712499997655
                },
                {
                    "name": "G4",
                    "midi": 67,
                    "time": 495.47286967084204,
                    "velocity": 0.3937007874015748,
                    "duration": 0.28145177708330493
                },
                {
                    "name": "A4",
                    "midi": 69,
                    "time": 495.47286967084204,
                    "velocity": 0.3937007874015748,
                    "duration": 0.28145177708330493
                },
                {
                    "name": "D5",
                    "midi": 74,
                    "time": 495.47286967084204,
                    "velocity": 0.47244094488188976,
                    "duration": 0.28145177708330493
                },
                {
                    "name": "G4",
                    "midi": 67,
                    "time": 495.7744827500087,
                    "velocity": 0.3700787401574803,
                    "duration": 0.04838712499997655
                },
                {
                    "name": "A4",
                    "midi": 69,
                    "time": 495.7744827500087,
                    "velocity": 0.3700787401574803,
                    "duration": 0.04838712499997655
                },
                {
                    "name": "E5",
                    "midi": 76,
                    "time": 495.7744827500087,
                    "velocity": 0.4409448818897638,
                    "duration": 0.04838712499997655
                },
                {
                    "name": "A4",
                    "midi": 69,
                    "time": 495.87125700000865,
                    "velocity": 0.5039370078740157,
                    "duration": 0.7508068895833162
                },
                {
                    "name": "F#4",
                    "midi": 66,
                    "time": 495.87125700000865,
                    "velocity": 0.4251968503937008,
                    "duration": 0.7508068895833162
                },
                {
                    "name": "F#5",
                    "midi": 78,
                    "time": 496.6454510000086,
                    "velocity": 0.5039370078740157,
                    "duration": 0.6572584479166608
                },
                {
                    "name": "F#4",
                    "midi": 66,
                    "time": 496.6454510000086,
                    "velocity": 0.4251968503937008,
                    "duration": 0.6572584479166608
                },
                {
                    "name": "A4",
                    "midi": 69,
                    "time": 496.6454510000086,
                    "velocity": 0.4251968503937008,
                    "duration": 0.6572584479166608
                },
                {
                    "name": "F#4",
                    "midi": 66,
                    "time": 497.32287075000863,
                    "velocity": 0.41732283464566927,
                    "duration": 0.09435489374999406
                },
                {
                    "name": "F#5",
                    "midi": 78,
                    "time": 497.32287075000863,
                    "velocity": 0.41732283464566927,
                    "duration": 0.09354844166665544
                },
                {
                    "name": "F#5",
                    "midi": 78,
                    "time": 497.41964500000864,
                    "velocity": 0.47244094488188976,
                    "duration": 0.09677425000000994
                },
                {
                    "name": "F#4",
                    "midi": 66,
                    "time": 497.41964500000864,
                    "velocity": 0.47244094488188976,
                    "duration": 0.09677425000000994
                },
                {
                    "name": "F#4",
                    "midi": 66,
                    "time": 497.698677420842,
                    "velocity": 0.4409448818897638,
                    "duration": 0.09354844166665544
                },
                {
                    "name": "F#5",
                    "midi": 78,
                    "time": 497.698677420842,
                    "velocity": 0.4409448818897638,
                    "duration": 0.09354844166665544
                },
                {
                    "name": "G#4",
                    "midi": 68,
                    "time": 497.8067420000086,
                    "velocity": 0.4645669291338583,
                    "duration": 0.09677425000000994
                },
                {
                    "name": "E5",
                    "midi": 76,
                    "time": 497.8067420000086,
                    "velocity": 0.4645669291338583,
                    "duration": 0.09677425000000994
                },
                {
                    "name": "D5",
                    "midi": 74,
                    "time": 498.09706475000866,
                    "velocity": 0.4409448818897638,
                    "duration": 0.09677425000000994
                },
                {
                    "name": "G#4",
                    "midi": 68,
                    "time": 498.09706475000866,
                    "velocity": 0.4409448818897638,
                    "duration": 0.09677425000000994
                },
                {
                    "name": "C#5",
                    "midi": 73,
                    "time": 498.19383900000867,
                    "velocity": 0.5039370078740157,
                    "duration": 0.7508068895833162
                },
                {
                    "name": "A4",
                    "midi": 69,
                    "time": 498.19383900000867,
                    "velocity": 0.4251968503937008,
                    "duration": 0.7508068895833162
                },
                {
                    "name": "A4",
                    "midi": 69,
                    "time": 498.96803300000863,
                    "velocity": 0.4251968503937008,
                    "duration": 0.6572584479166608
                },
                {
                    "name": "E5",
                    "midi": 76,
                    "time": 498.96803300000863,
                    "velocity": 0.5039370078740157,
                    "duration": 0.6572584479166608
                },
                {
                    "name": "A#4",
                    "midi": 70,
                    "time": 499.64545275000864,
                    "velocity": 0.41732283464566927,
                    "duration": 0.09435489374999406
                },
                {
                    "name": "E5",
                    "midi": 76,
                    "time": 499.64545275000864,
                    "velocity": 0.41732283464566927,
                    "duration": 0.09435489374999406
                },
                {
                    "name": "A#4",
                    "midi": 70,
                    "time": 499.74222700000865,
                    "velocity": 0.47244094488188976,
                    "duration": 0.09677425000000994
                },
                {
                    "name": "E5",
                    "midi": 76,
                    "time": 499.74222700000865,
                    "velocity": 0.47244094488188976,
                    "duration": 0.09677425000000994
                },
                {
                    "name": "A#4",
                    "midi": 70,
                    "time": 500.021259420842,
                    "velocity": 0.4409448818897638,
                    "duration": 0.09354844166665544
                },
                {
                    "name": "E5",
                    "midi": 76,
                    "time": 500.021259420842,
                    "velocity": 0.4409448818897638,
                    "duration": 0.09354844166665544
                },
                {
                    "name": "A#4",
                    "midi": 70,
                    "time": 500.12932400000864,
                    "velocity": 0.4645669291338583,
                    "duration": 0.09677425000000994
                },
                {
                    "name": "D5",
                    "midi": 74,
                    "time": 500.12932400000864,
                    "velocity": 0.4645669291338583,
                    "duration": 0.09677425000000994
                },
                {
                    "name": "A#4",
                    "midi": 70,
                    "time": 500.41964675000867,
                    "velocity": 0.4409448818897638,
                    "duration": 0.09677425000000994
                },
                {
                    "name": "C#5",
                    "midi": 73,
                    "time": 500.41964675000867,
                    "velocity": 0.4409448818897638,
                    "duration": 0.09677425000000994
                },
                {
                    "name": "B4",
                    "midi": 71,
                    "time": 500.5164210000087,
                    "velocity": 0.5039370078740157,
                    "duration": 0.7508068895833162
                },
                {
                    "name": "D5",
                    "midi": 74,
                    "time": 501.29061500000864,
                    "velocity": 0.5039370078740157,
                    "duration": 0.6572584479166608
                },
                {
                    "name": "G4",
                    "midi": 67,
                    "time": 501.29061500000864,
                    "velocity": 0.4251968503937008,
                    "duration": 0.6572584479166608
                },
                {
                    "name": "C#4",
                    "midi": 61,
                    "time": 501.96803475000866,
                    "velocity": 0.41732283464566927,
                    "duration": 0.09677425000000994
                },
                {
                    "name": "G4",
                    "midi": 67,
                    "time": 501.96803475000866,
                    "velocity": 0.41732283464566927,
                    "duration": 0.09677425000000994
                },
                {
                    "name": "B4",
                    "midi": 71,
                    "time": 501.96803475000866,
                    "velocity": 0.41732283464566927,
                    "duration": 0.09677425000000994
                },
                {
                    "name": "C#4",
                    "midi": 61,
                    "time": 502.06480900000867,
                    "velocity": 0.47244094488188976,
                    "duration": 0.09677425000000994
                },
                {
                    "name": "G4",
                    "midi": 67,
                    "time": 502.06480900000867,
                    "velocity": 0.47244094488188976,
                    "duration": 0.09677425000000994
                },
                {
                    "name": "B4",
                    "midi": 71,
                    "time": 502.06480900000867,
                    "velocity": 0.47244094488188976,
                    "duration": 0.09677425000000994
                },
                {
                    "name": "C#4",
                    "midi": 61,
                    "time": 502.3551317500087,
                    "velocity": 0.4409448818897638,
                    "duration": 0.09677425000000994
                },
                {
                    "name": "G4",
                    "midi": 67,
                    "time": 502.3551317500087,
                    "velocity": 0.4409448818897638,
                    "duration": 0.09677425000000994
                },
                {
                    "name": "B4",
                    "midi": 71,
                    "time": 502.3551317500087,
                    "velocity": 0.4409448818897638,
                    "duration": 0.09677425000000994
                },
                {
                    "name": "C#4",
                    "midi": 61,
                    "time": 502.4519060000087,
                    "velocity": 0.4645669291338583,
                    "duration": 0.09677425000000994
                },
                {
                    "name": "F#4",
                    "midi": 66,
                    "time": 502.4519060000087,
                    "velocity": 0.4645669291338583,
                    "duration": 0.09677425000000994
                },
                {
                    "name": "A4",
                    "midi": 69,
                    "time": 502.4519060000087,
                    "velocity": 0.4645669291338583,
                    "duration": 0.09677425000000994
                },
                {
                    "name": "C#4",
                    "midi": 61,
                    "time": 502.74222875000874,
                    "velocity": 0.4409448818897638,
                    "duration": 0.09677425000000994
                },
                {
                    "name": "E4",
                    "midi": 64,
                    "time": 502.74222875000874,
                    "velocity": 0.4409448818897638,
                    "duration": 0.09677425000000994
                },
                {
                    "name": "G4",
                    "midi": 67,
                    "time": 502.74222875000874,
                    "velocity": 0.4409448818897638,
                    "duration": 0.09677425000000994
                },
                {
                    "name": "E4",
                    "midi": 64,
                    "time": 502.83900300000874,
                    "velocity": 0.4251968503937008,
                    "duration": 0.7741939999999659
                },
                {
                    "name": "A3",
                    "midi": 57,
                    "time": 502.83900300000874,
                    "velocity": 0.4251968503937008,
                    "duration": 0.7508068895833162
                },
                {
                    "name": "G4",
                    "midi": 67,
                    "time": 502.83900300000874,
                    "velocity": 0.5039370078740157,
                    "duration": 0.7508068895833162
                },
                {
                    "name": "A3",
                    "midi": 57,
                    "time": 503.6131970000087,
                    "velocity": 0.4251968503937008,
                    "duration": 0.7661294791666933
                },
                {
                    "name": "F#4",
                    "midi": 66,
                    "time": 503.6131970000087,
                    "velocity": 0.5039370078740157,
                    "duration": 0.7661294791666933
                },
                {
                    "name": "D4",
                    "midi": 62,
                    "time": 503.6131970000087,
                    "velocity": 0.4251968503937008,
                    "duration": 0.7661294791666933
                },
                {
                    "name": "D4",
                    "midi": 62,
                    "time": 504.38739100000873,
                    "velocity": 0.4409448818897638,
                    "duration": 0.3677421500000264
                },
                {
                    "name": "F#4",
                    "midi": 66,
                    "time": 504.38739100000873,
                    "velocity": 0.4409448818897638,
                    "duration": 0.3677421500000264
                },
                {
                    "name": "A4",
                    "midi": 69,
                    "time": 504.38739100000873,
                    "velocity": 0.5275590551181102,
                    "duration": 0.3677421500000264
                },
                {
                    "name": "D4",
                    "midi": 62,
                    "time": 504.7744880000088,
                    "velocity": 0.41732283464566927,
                    "duration": 0.3677421500000264
                },
                {
                    "name": "F#4",
                    "midi": 66,
                    "time": 504.7744880000088,
                    "velocity": 0.41732283464566927,
                    "duration": 0.3677421500000264
                },
                {
                    "name": "A#4",
                    "midi": 70,
                    "time": 504.7744880000088,
                    "velocity": 0.49606299212598426,
                    "duration": 0.3677421500000264
                },
                {
                    "name": "D4",
                    "midi": 62,
                    "time": 505.1615850000088,
                    "velocity": 0.4015748031496063,
                    "duration": 0.7741940000000227
                },
                {
                    "name": "G4",
                    "midi": 67,
                    "time": 505.1615850000088,
                    "velocity": 0.4015748031496063,
                    "duration": 0.7741940000000227
                },
                {
                    "name": "B4",
                    "midi": 71,
                    "time": 505.1615850000088,
                    "velocity": 0.47244094488188976,
                    "duration": 0.7741940000000227
                },
                {
                    "name": "G4",
                    "midi": 67,
                    "time": 505.93577900000884,
                    "velocity": 0.4409448818897638,
                    "duration": 0.37580667083335584
                },
                {
                    "name": "B4",
                    "midi": 71,
                    "time": 505.93577900000884,
                    "velocity": 0.4409448818897638,
                    "duration": 0.37580667083335584
                },
                {
                    "name": "E5",
                    "midi": 76,
                    "time": 505.93577900000884,
                    "velocity": 0.5275590551181102,
                    "duration": 0.37580667083335584
                },
                {
                    "name": "B4",
                    "midi": 71,
                    "time": 506.3228760000089,
                    "velocity": 0.44881889763779526,
                    "duration": 0.19354850000001989
                },
                {
                    "name": "E5",
                    "midi": 76,
                    "time": 506.3228760000089,
                    "velocity": 0.44881889763779526,
                    "duration": 0.19354850000001989
                },
                {
                    "name": "G5",
                    "midi": 79,
                    "time": 506.3228760000089,
                    "velocity": 0.5354330708661418,
                    "duration": 0.19354850000001989
                },
                {
                    "name": "G4",
                    "midi": 67,
                    "time": 506.7099730000089,
                    "velocity": 0.41732283464566927,
                    "duration": 0.19354850000001989
                },
                {
                    "name": "B4",
                    "midi": 71,
                    "time": 506.7099730000089,
                    "velocity": 0.41732283464566927,
                    "duration": 0.19354850000001989
                },
                {
                    "name": "E5",
                    "midi": 76,
                    "time": 506.7099730000089,
                    "velocity": 0.49606299212598426,
                    "duration": 0.2016130208333493
                },
                {
                    "name": "E4",
                    "midi": 64,
                    "time": 507.09707000000896,
                    "velocity": 0.3858267716535433,
                    "duration": 0.19354850000001989
                },
                {
                    "name": "G4",
                    "midi": 67,
                    "time": 507.09707000000896,
                    "velocity": 0.4566929133858268,
                    "duration": 0.19354850000001989
                },
                {
                    "name": "E4",
                    "midi": 64,
                    "time": 507.484167000009,
                    "velocity": 0.4330708661417323,
                    "duration": 0.7741940000000227
                },
                {
                    "name": "A4",
                    "midi": 69,
                    "time": 507.484167000009,
                    "velocity": 0.4330708661417323,
                    "duration": 0.7741940000000227
                },
                {
                    "name": "C#5",
                    "midi": 73,
                    "time": 507.484167000009,
                    "velocity": 0.5118110236220472,
                    "duration": 0.7741940000000227
                },
                {
                    "name": "A4",
                    "midi": 69,
                    "time": 508.258361000009,
                    "velocity": 0.4645669291338583,
                    "duration": 0.37580667083335584
                },
                {
                    "name": "C#5",
                    "midi": 73,
                    "time": 508.258361000009,
                    "velocity": 0.4645669291338583,
                    "duration": 0.37580667083335584
                },
                {
                    "name": "F#5",
                    "midi": 78,
                    "time": 508.258361000009,
                    "velocity": 0.5511811023622047,
                    "duration": 0.37580667083335584
                },
                {
                    "name": "C#5",
                    "midi": 73,
                    "time": 508.64545800000906,
                    "velocity": 0.4566929133858268,
                    "duration": 0.19354850000001989
                },
                {
                    "name": "F#5",
                    "midi": 78,
                    "time": 508.64545800000906,
                    "velocity": 0.4566929133858268,
                    "duration": 0.19354850000001989
                },
                {
                    "name": "A5",
                    "midi": 81,
                    "time": 508.64545800000906,
                    "velocity": 0.5433070866141733,
                    "duration": 0.19354850000001989
                },
                {
                    "name": "C#5",
                    "midi": 73,
                    "time": 509.0325550000091,
                    "velocity": 0.4015748031496063,
                    "duration": 0.19354850000001989
                },
                {
                    "name": "F#5",
                    "midi": 78,
                    "time": 509.0325550000091,
                    "velocity": 0.47244094488188976,
                    "duration": 0.19354850000001989
                },
                {
                    "name": "A4",
                    "midi": 69,
                    "time": 509.0325550000091,
                    "velocity": 0.4015748031496063,
                    "duration": 0.19354850000001989
                },
                {
                    "name": "A4",
                    "midi": 69,
                    "time": 509.41965200000914,
                    "velocity": 0.4409448818897638,
                    "duration": 0.19354850000001989
                },
                {
                    "name": "F#4",
                    "midi": 66,
                    "time": 509.41965200000914,
                    "velocity": 0.3700787401574803,
                    "duration": 0.19354850000001989
                },
                {
                    "name": "F#4",
                    "midi": 66,
                    "time": 509.8067490000092,
                    "velocity": 0.4409448818897638,
                    "duration": 0.7741940000000227
                },
                {
                    "name": "D5",
                    "midi": 74,
                    "time": 509.8067490000092,
                    "velocity": 0.5275590551181102,
                    "duration": 0.7741940000000227
                },
                {
                    "name": "B4",
                    "midi": 71,
                    "time": 509.8067490000092,
                    "velocity": 0.4409448818897638,
                    "duration": 0.7741940000000227
                },
                {
                    "name": "D5",
                    "midi": 74,
                    "time": 510.5809430000092,
                    "velocity": 0.5196850393700787,
                    "duration": 0.37580667083335584
                },
                {
                    "name": "B4",
                    "midi": 71,
                    "time": 510.5809430000092,
                    "velocity": 0.5196850393700787,
                    "duration": 0.37580667083335584
                },
                {
                    "name": "G5",
                    "midi": 79,
                    "time": 510.5809430000092,
                    "velocity": 0.6141732283464567,
                    "duration": 0.37580667083335584
                },
                {
                    "name": "D5",
                    "midi": 74,
                    "time": 510.96804000000924,
                    "velocity": 0.47244094488188976,
                    "duration": 0.19354850000001989
                },
                {
                    "name": "G5",
                    "midi": 79,
                    "time": 510.96804000000924,
                    "velocity": 0.5590551181102362,
                    "duration": 0.19354850000001989
                },
                {
                    "name": "B5",
                    "midi": 83,
                    "time": 510.96804000000924,
                    "velocity": 0.5590551181102362,
                    "duration": 0.19354850000001989
                },
                {
                    "name": "D5",
                    "midi": 74,
                    "time": 511.3551370000093,
                    "velocity": 0.47244094488188976,
                    "duration": 0.19354850000001989
                },
                {
                    "name": "G5",
                    "midi": 79,
                    "time": 511.3551370000093,
                    "velocity": 0.5590551181102362,
                    "duration": 0.19354850000001989
                },
                {
                    "name": "B4",
                    "midi": 71,
                    "time": 511.3551370000093,
                    "velocity": 0.47244094488188976,
                    "duration": 0.19354850000001989
                },
                {
                    "name": "B4",
                    "midi": 71,
                    "time": 511.7422340000093,
                    "velocity": 0.5905511811023622,
                    "duration": 0.19354850000001989
                },
                {
                    "name": "G4",
                    "midi": 67,
                    "time": 511.7422340000093,
                    "velocity": 0.5354330708661418,
                    "duration": 0.19354850000001989
                },
                {
                    "name": "A4",
                    "midi": 69,
                    "time": 512.1293310000093,
                    "velocity": 0.5196850393700787,
                    "duration": 0.750806889583373
                },
                {
                    "name": "A5",
                    "midi": 81,
                    "time": 512.1293310000093,
                    "velocity": 0.6141732283464567,
                    "duration": 0.750806889583373
                },
                {
                    "name": "G5",
                    "midi": 79,
                    "time": 512.1293310000093,
                    "velocity": 0.5196850393700787,
                    "duration": 0.7741940000000795
                },
                {
                    "name": "C#5",
                    "midi": 73,
                    "time": 512.1293310000093,
                    "velocity": 0.5196850393700787,
                    "duration": 0.750806889583373
                },
                {
                    "name": "G5",
                    "midi": 79,
                    "time": 512.9035250000094,
                    "velocity": 0.48031496062992124,
                    "duration": 0.6572584479166608
                },
                {
                    "name": "A4",
                    "midi": 69,
                    "time": 512.9035250000094,
                    "velocity": 0.48031496062992124,
                    "duration": 0.6572584479166608
                },
                {
                    "name": "A5",
                    "midi": 81,
                    "time": 512.9035250000094,
                    "velocity": 0.5669291338582677,
                    "duration": 0.6572584479166608
                },
                {
                    "name": "C#5",
                    "midi": 73,
                    "time": 512.9035250000094,
                    "velocity": 0.48031496062992124,
                    "duration": 0.6572584479166608
                },
                {
                    "name": "C#5",
                    "midi": 73,
                    "time": 513.5809447500094,
                    "velocity": 0.4566929133858268,
                    "duration": 0.09193553750003503
                },
                {
                    "name": "A5",
                    "midi": 81,
                    "time": 513.5809447500094,
                    "velocity": 0.5748031496062992,
                    "duration": 0.09193553750003503
                },
                {
                    "name": "G5",
                    "midi": 79,
                    "time": 513.5809447500094,
                    "velocity": 0.4566929133858268,
                    "duration": 0.09193553750003503
                },
                {
                    "name": "G5",
                    "midi": 79,
                    "time": 513.6777190000095,
                    "velocity": 0.5196850393700787,
                    "duration": 0.2758066124999914
                },
                {
                    "name": "C#5",
                    "midi": 73,
                    "time": 513.6777190000095,
                    "velocity": 0.5196850393700787,
                    "duration": 0.2758066124999914
                },
                {
                    "name": "A5",
                    "midi": 81,
                    "time": 513.6777190000095,
                    "velocity": 0.6456692913385826,
                    "duration": 0.26854854374994375
                },
                {
                    "name": "C#5",
                    "midi": 73,
                    "time": 513.9680417500094,
                    "velocity": 0.49606299212598426,
                    "duration": 0.09193553750003503
                },
                {
                    "name": "G5",
                    "midi": 79,
                    "time": 513.9680417500094,
                    "velocity": 0.49606299212598426,
                    "duration": 0.09193553750003503
                },
                {
                    "name": "A5",
                    "midi": 81,
                    "time": 513.9680417500094,
                    "velocity": 0.6299212598425197,
                    "duration": 0.09193553750003503
                },
                {
                    "name": "G5",
                    "midi": 79,
                    "time": 514.0648160000095,
                    "velocity": 0.5275590551181102,
                    "duration": 0.2758066124999914
                },
                {
                    "name": "B5",
                    "midi": 83,
                    "time": 514.0648160000095,
                    "velocity": 0.6692913385826772,
                    "duration": 0.2758066124999914
                },
                {
                    "name": "C#5",
                    "midi": 73,
                    "time": 514.0648160000095,
                    "velocity": 0.5275590551181102,
                    "duration": 0.2758066124999914
                },
                {
                    "name": "G5",
                    "midi": 79,
                    "time": 514.3551387500095,
                    "velocity": 0.5118110236220472,
                    "duration": 0.0967742499999531
                },
                {
                    "name": "C#6",
                    "midi": 85,
                    "time": 514.3551387500095,
                    "velocity": 0.6535433070866141,
                    "duration": 0.0967742499999531
                },
                {
                    "name": "C#5",
                    "midi": 73,
                    "time": 514.3551387500095,
                    "velocity": 0.5118110236220472,
                    "duration": 0.0967742499999531
                },
                {
                    "name": "D6",
                    "midi": 86,
                    "time": 514.4519130000094,
                    "velocity": 0.7322834645669292,
                    "duration": 0.750806889583373
                },
                {
                    "name": "D5",
                    "midi": 74,
                    "time": 514.4519130000094,
                    "velocity": 0.6141732283464567,
                    "duration": 0.750806889583373
                },
                {
                    "name": "F#5",
                    "midi": 78,
                    "time": 514.4519130000094,
                    "velocity": 0.6141732283464567,
                    "duration": 0.750806889583373
                },
                {
                    "name": "D5",
                    "midi": 74,
                    "time": 515.2261070000095,
                    "velocity": 0.6141732283464567,
                    "duration": 0.6612907083333539
                },
                {
                    "name": "D6",
                    "midi": 86,
                    "time": 515.2261070000095,
                    "velocity": 0.7322834645669292,
                    "duration": 0.6612907083333539
                },
                {
                    "name": "F#5",
                    "midi": 78,
                    "time": 515.2261070000095,
                    "velocity": 0.6141732283464567,
                    "duration": 0.6612907083333539
                },
                {
                    "name": "F#5",
                    "midi": 78,
                    "time": 515.9035267500095,
                    "velocity": 0.33070866141732286,
                    "duration": 0.04838712499997655
                },
                {
                    "name": "A5",
                    "midi": 81,
                    "time": 515.9035267500095,
                    "velocity": 0.3937007874015748,
                    "duration": 0.04838712499997655
                },
                {
                    "name": "A5",
                    "midi": 81,
                    "time": 516.0003010000095,
                    "velocity": 0.4251968503937008,
                    "duration": 0.2814517770833618
                },
                {
                    "name": "F#5",
                    "midi": 78,
                    "time": 516.0003010000095,
                    "velocity": 0.3543307086614173,
                    "duration": 0.2814517770833618
                },
                {
                    "name": "F#5",
                    "midi": 78,
                    "time": 516.2906237500094,
                    "velocity": 0.33070866141732286,
                    "duration": 0.04838712499997655
                },
                {
                    "name": "A5",
                    "midi": 81,
                    "time": 516.2906237500094,
                    "velocity": 0.3937007874015748,
                    "duration": 0.04838712499997655
                },
                {
                    "name": "G#5",
                    "midi": 80,
                    "time": 516.3873980000094,
                    "velocity": 0.4251968503937008,
                    "duration": 0.2814517770833618
                },
                {
                    "name": "F5",
                    "midi": 77,
                    "time": 516.3873980000094,
                    "velocity": 0.3543307086614173,
                    "duration": 0.2814517770833618
                },
                {
                    "name": "F#5",
                    "midi": 78,
                    "time": 516.6777207500094,
                    "velocity": 0.33070866141732286,
                    "duration": 0.04838712499997655
                },
                {
                    "name": "A5",
                    "midi": 81,
                    "time": 516.6777207500094,
                    "velocity": 0.3937007874015748,
                    "duration": 0.04838712499997655
                },
                {
                    "name": "F#5",
                    "midi": 78,
                    "time": 516.7744950000093,
                    "velocity": 0.3779527559055118,
                    "duration": 0.7741939999999659
                },
                {
                    "name": "D5",
                    "midi": 74,
                    "time": 516.7744950000093,
                    "velocity": 0.31496062992125984,
                    "duration": 0.7741939999999659
                },
                {
                    "name": "F#5",
                    "midi": 78,
                    "time": 517.5486890000093,
                    "velocity": 0.3779527559055118,
                    "duration": 0.6572584479166608
                },
                {
                    "name": "D5",
                    "midi": 74,
                    "time": 517.5486890000093,
                    "velocity": 0.31496062992125984,
                    "duration": 0.6572584479166608
                },
                {
                    "name": "D5",
                    "midi": 74,
                    "time": 518.2261087500093,
                    "velocity": 0.29133858267716534,
                    "duration": 0.04838712499997655
                },
                {
                    "name": "F#5",
                    "midi": 78,
                    "time": 518.2261087500093,
                    "velocity": 0.3464566929133858,
                    "duration": 0.04838712499997655
                },
                {
                    "name": "F#5",
                    "midi": 78,
                    "time": 518.3228830000093,
                    "velocity": 0.3779527559055118,
                    "duration": 0.0967742499999531
                },
                {
                    "name": "D5",
                    "midi": 74,
                    "time": 518.3228830000093,
                    "velocity": 0.31496062992125984,
                    "duration": 0.0967742499999531
                },
                {
                    "name": "D5",
                    "midi": 74,
                    "time": 518.6132057500092,
                    "velocity": 0.29133858267716534,
                    "duration": 0.04838712499997655
                },
                {
                    "name": "F#5",
                    "midi": 78,
                    "time": 518.6132057500092,
                    "velocity": 0.3464566929133858,
                    "duration": 0.04838712499997655
                },
                {
                    "name": "C#5",
                    "midi": 73,
                    "time": 518.7099800000092,
                    "velocity": 0.31496062992125984,
                    "duration": 0.0967742499999531
                },
                {
                    "name": "F5",
                    "midi": 77,
                    "time": 518.7099800000092,
                    "velocity": 0.3779527559055118,
                    "duration": 0.0967742499999531
                },
                {
                    "name": "F#5",
                    "midi": 78,
                    "time": 519.0003027500092,
                    "velocity": 0.3464566929133858,
                    "duration": 0.04838712499997655
                },
                {
                    "name": "D5",
                    "midi": 74,
                    "time": 519.0003027500092,
                    "velocity": 0.29133858267716534,
                    "duration": 0.04838712499997655
                },
                {
                    "name": "F#5",
                    "midi": 78,
                    "time": 519.0970770000091,
                    "velocity": 0.31496062992125984,
                    "duration": 0.7741939999999659
                },
                {
                    "name": "A5",
                    "midi": 81,
                    "time": 519.0970770000091,
                    "velocity": 0.3779527559055118,
                    "duration": 0.7741939999999659
                },
                {
                    "name": "E5",
                    "midi": 76,
                    "time": 519.8712710000091,
                    "velocity": 0.31496062992125984,
                    "duration": 0.6572584479166608
                },
                {
                    "name": "G5",
                    "midi": 79,
                    "time": 519.8712710000091,
                    "velocity": 0.3779527559055118,
                    "duration": 0.6572584479166608
                },
                {
                    "name": "G5",
                    "midi": 79,
                    "time": 520.5486907500091,
                    "velocity": 0.3464566929133858,
                    "duration": 0.04838712499997655
                },
                {
                    "name": "A5",
                    "midi": 81,
                    "time": 520.5486907500091,
                    "velocity": 0.29133858267716534,
                    "duration": 0.04838712499997655
                },
                {
                    "name": "E5",
                    "midi": 76,
                    "time": 520.5486907500091,
                    "velocity": 0.29133858267716534,
                    "duration": 0.04838712499997655
                },
                {
                    "name": "A5",
                    "midi": 81,
                    "time": 520.645465000009,
                    "velocity": 0.31496062992125984,
                    "duration": 0.0967742499999531
                },
                {
                    "name": "E5",
                    "midi": 76,
                    "time": 520.645465000009,
                    "velocity": 0.31496062992125984,
                    "duration": 0.0967742499999531
                },
                {
                    "name": "G5",
                    "midi": 79,
                    "time": 520.645465000009,
                    "velocity": 0.3779527559055118,
                    "duration": 0.0967742499999531
                },
                {
                    "name": "A5",
                    "midi": 81,
                    "time": 520.935787750009,
                    "velocity": 0.29133858267716534,
                    "duration": 0.04838712499997655
                },
                {
                    "name": "E5",
                    "midi": 76,
                    "time": 520.935787750009,
                    "velocity": 0.29133858267716534,
                    "duration": 0.04838712499997655
                },
                {
                    "name": "G5",
                    "midi": 79,
                    "time": 520.935787750009,
                    "velocity": 0.3464566929133858,
                    "duration": 0.04838712499997655
                },
                {
                    "name": "D#5",
                    "midi": 75,
                    "time": 521.032562000009,
                    "velocity": 0.31496062992125984,
                    "duration": 0.0967742499999531
                },
                {
                    "name": "A5",
                    "midi": 81,
                    "time": 521.032562000009,
                    "velocity": 0.31496062992125984,
                    "duration": 0.0967742499999531
                },
                {
                    "name": "F#5",
                    "midi": 78,
                    "time": 521.032562000009,
                    "velocity": 0.3779527559055118,
                    "duration": 0.0967742499999531
                },
                {
                    "name": "A5",
                    "midi": 81,
                    "time": 521.3228847500089,
                    "velocity": 0.3464566929133858,
                    "duration": 0.04838712499997655
                },
                {
                    "name": "E5",
                    "midi": 76,
                    "time": 521.3228847500089,
                    "velocity": 0.29133858267716534,
                    "duration": 0.04838712499997655
                },
                {
                    "name": "G5",
                    "midi": 79,
                    "time": 521.3228847500089,
                    "velocity": 0.3464566929133858,
                    "duration": 0.04838712499997655
                },
                {
                    "name": "A5",
                    "midi": 81,
                    "time": 521.4196590000089,
                    "velocity": 0.3779527559055118,
                    "duration": 0.7669359312500319
                },
                {
                    "name": "E5",
                    "midi": 76,
                    "time": 521.4196590000089,
                    "velocity": 0.31496062992125984,
                    "duration": 0.7669359312500319
                },
                {
                    "name": "C#5",
                    "midi": 73,
                    "time": 521.4196590000089,
                    "velocity": 0.31496062992125984,
                    "duration": 0.7669359312500319
                },
                {
                    "name": "C#5",
                    "midi": 73,
                    "time": 522.193853000009,
                    "velocity": 0.31496062992125984,
                    "duration": 0.6572584479166608
                },
                {
                    "name": "E5",
                    "midi": 76,
                    "time": 522.193853000009,
                    "velocity": 0.31496062992125984,
                    "duration": 0.6572584479166608
                },
                {
                    "name": "A5",
                    "midi": 81,
                    "time": 522.193853000009,
                    "velocity": 0.3779527559055118,
                    "duration": 0.6572584479166608
                },
                {
                    "name": "A5",
                    "midi": 81,
                    "time": 522.871272750009,
                    "velocity": 0.29133858267716534,
                    "duration": 0.04838712499997655
                },
                {
                    "name": "C#5",
                    "midi": 73,
                    "time": 522.871272750009,
                    "velocity": 0.29133858267716534,
                    "duration": 0.04838712499997655
                },
                {
                    "name": "E5",
                    "midi": 76,
                    "time": 522.871272750009,
                    "velocity": 0.3464566929133858,
                    "duration": 0.04838712499997655
                },
                {
                    "name": "C#5",
                    "midi": 73,
                    "time": 522.9680470000089,
                    "velocity": 0.31496062992125984,
                    "duration": 0.0967742499999531
                },
                {
                    "name": "A5",
                    "midi": 81,
                    "time": 522.9680470000089,
                    "velocity": 0.31496062992125984,
                    "duration": 0.0967742499999531
                },
                {
                    "name": "E5",
                    "midi": 76,
                    "time": 522.9680470000089,
                    "velocity": 0.3779527559055118,
                    "duration": 0.0967742499999531
                },
                {
                    "name": "A5",
                    "midi": 81,
                    "time": 523.2583697500089,
                    "velocity": 0.29133858267716534,
                    "duration": 0.04838712499997655
                },
                {
                    "name": "C#5",
                    "midi": 73,
                    "time": 523.2583697500089,
                    "velocity": 0.29133858267716534,
                    "duration": 0.04838712499997655
                },
                {
                    "name": "E5",
                    "midi": 76,
                    "time": 523.2583697500089,
                    "velocity": 0.3464566929133858,
                    "duration": 0.04838712499997655
                },
                {
                    "name": "D5",
                    "midi": 74,
                    "time": 523.3551440000089,
                    "velocity": 0.3779527559055118,
                    "duration": 0.0967742499999531
                },
                {
                    "name": "A5",
                    "midi": 81,
                    "time": 523.3551440000089,
                    "velocity": 0.31496062992125984,
                    "duration": 0.0967742499999531
                },
                {
                    "name": "B4",
                    "midi": 71,
                    "time": 523.3551440000089,
                    "velocity": 0.31496062992125984,
                    "duration": 0.0967742499999531
                },
                {
                    "name": "A5",
                    "midi": 81,
                    "time": 523.6454667500088,
                    "velocity": 0.3464566929133858,
                    "duration": 0.04838712499997655
                },
                {
                    "name": "C#5",
                    "midi": 73,
                    "time": 523.6454667500088,
                    "velocity": 0.29133858267716534,
                    "duration": 0.04838712499997655
                },
                {
                    "name": "E5",
                    "midi": 76,
                    "time": 523.6454667500088,
                    "velocity": 0.3464566929133858,
                    "duration": 0.04838712499997655
                },
                {
                    "name": "A5",
                    "midi": 81,
                    "time": 523.7422410000088,
                    "velocity": 0.33858267716535434,
                    "duration": 0.7669359312500319
                },
                {
                    "name": "C#5",
                    "midi": 73,
                    "time": 523.7422410000088,
                    "velocity": 0.28346456692913385,
                    "duration": 0.7669359312500319
                },
                {
                    "name": "F5",
                    "midi": 77,
                    "time": 523.7422410000088,
                    "velocity": 0.28346456692913385,
                    "duration": 0.7661294791666933
                },
                {
                    "name": "D5",
                    "midi": 74,
                    "time": 524.5164350000089,
                    "velocity": 0.28346456692913385,
                    "duration": 0.6572584479166608
                },
                {
                    "name": "F#5",
                    "midi": 78,
                    "time": 524.5164350000089,
                    "velocity": 0.28346456692913385,
                    "duration": 0.6572584479166608
                },
                {
                    "name": "A5",
                    "midi": 81,
                    "time": 524.5164350000089,
                    "velocity": 0.33858267716535434,
                    "duration": 0.6572584479166608
                },
                {
                    "name": "D5",
                    "midi": 74,
                    "time": 525.1938547500089,
                    "velocity": 0.29133858267716534,
                    "duration": 0.04838712499997655
                },
                {
                    "name": "A5",
                    "midi": 81,
                    "time": 525.1938547500089,
                    "velocity": 0.3464566929133858,
                    "duration": 0.04838712499997655
                },
                {
                    "name": "F#5",
                    "midi": 78,
                    "time": 525.1938547500089,
                    "velocity": 0.29133858267716534,
                    "duration": 0.04838712499997655
                },
                {
                    "name": "A5",
                    "midi": 81,
                    "time": 525.2906290000088,
                    "velocity": 0.3779527559055118,
                    "duration": 0.0967742499999531
                },
                {
                    "name": "F#5",
                    "midi": 78,
                    "time": 525.2906290000088,
                    "velocity": 0.31496062992125984,
                    "duration": 0.0967742499999531
                },
                {
                    "name": "D5",
                    "midi": 74,
                    "time": 525.2906290000088,
                    "velocity": 0.31496062992125984,
                    "duration": 0.0967742499999531
                },
                {
                    "name": "D5",
                    "midi": 74,
                    "time": 525.5809517500088,
                    "velocity": 0.2992125984251969,
                    "duration": 0.04838712499997655
                },
                {
                    "name": "F#5",
                    "midi": 78,
                    "time": 525.5809517500088,
                    "velocity": 0.2992125984251969,
                    "duration": 0.04838712499997655
                },
                {
                    "name": "A5",
                    "midi": 81,
                    "time": 525.5809517500088,
                    "velocity": 0.3543307086614173,
                    "duration": 0.04838712499997655
                },
                {
                    "name": "D5",
                    "midi": 74,
                    "time": 525.6777260000088,
                    "velocity": 0.3228346456692913,
                    "duration": 0.0967742499999531
                },
                {
                    "name": "G#5",
                    "midi": 80,
                    "time": 525.6777260000088,
                    "velocity": 0.3937007874015748,
                    "duration": 0.0967742499999531
                },
                {
                    "name": "F#5",
                    "midi": 78,
                    "time": 525.6777260000088,
                    "velocity": 0.3228346456692913,
                    "duration": 0.0967742499999531
                },
                {
                    "name": "F#5",
                    "midi": 78,
                    "time": 525.9680487500087,
                    "velocity": 0.31496062992125984,
                    "duration": 0.04838712499997655
                },
                {
                    "name": "D5",
                    "midi": 74,
                    "time": 525.9680487500087,
                    "velocity": 0.31496062992125984,
                    "duration": 0.04838712499997655
                },
                {
                    "name": "A5",
                    "midi": 81,
                    "time": 525.9680487500087,
                    "velocity": 0.3779527559055118,
                    "duration": 0.04838712499997655
                },
                {
                    "name": "D5",
                    "midi": 74,
                    "time": 526.0648230000087,
                    "velocity": 0.3464566929133858,
                    "duration": 0.7669359312500319
                },
                {
                    "name": "F#5",
                    "midi": 78,
                    "time": 526.0648230000087,
                    "velocity": 0.3464566929133858,
                    "duration": 0.7669359312500319
                },
                {
                    "name": "B5",
                    "midi": 83,
                    "time": 526.0648230000087,
                    "velocity": 0.4094488188976378,
                    "duration": 0.7669359312500319
                },
                {
                    "name": "D5",
                    "midi": 74,
                    "time": 526.8390170000088,
                    "velocity": 0.3464566929133858,
                    "duration": 0.6572584479166608
                },
                {
                    "name": "B5",
                    "midi": 83,
                    "time": 526.8390170000088,
                    "velocity": 0.4094488188976378,
                    "duration": 0.6572584479166608
                },
                {
                    "name": "F#5",
                    "midi": 78,
                    "time": 526.8390170000088,
                    "velocity": 0.3464566929133858,
                    "duration": 0.6572584479166608
                },
                {
                    "name": "B5",
                    "midi": 83,
                    "time": 527.5164367500088,
                    "velocity": 0.3779527559055118,
                    "duration": 0.04838712499997655
                },
                {
                    "name": "F#5",
                    "midi": 78,
                    "time": 527.5164367500088,
                    "velocity": 0.31496062992125984,
                    "duration": 0.04838712499997655
                },
                {
                    "name": "D5",
                    "midi": 74,
                    "time": 527.5164367500088,
                    "velocity": 0.31496062992125984,
                    "duration": 0.04838712499997655
                },
                {
                    "name": "B5",
                    "midi": 83,
                    "time": 527.6132110000087,
                    "velocity": 0.4094488188976378,
                    "duration": 0.0967742499999531
                },
                {
                    "name": "F#5",
                    "midi": 78,
                    "time": 527.6132110000087,
                    "velocity": 0.3464566929133858,
                    "duration": 0.0967742499999531
                },
                {
                    "name": "D5",
                    "midi": 74,
                    "time": 527.6132110000087,
                    "velocity": 0.3464566929133858,
                    "duration": 0.0967742499999531
                },
                {
                    "name": "F#5",
                    "midi": 78,
                    "time": 527.9035337500087,
                    "velocity": 0.31496062992125984,
                    "duration": 0.04838712499997655
                },
                {
                    "name": "D5",
                    "midi": 74,
                    "time": 527.9035337500087,
                    "velocity": 0.31496062992125984,
                    "duration": 0.04838712499997655
                },
                {
                    "name": "D6",
                    "midi": 86,
                    "time": 527.9035337500087,
                    "velocity": 0.3779527559055118,
                    "duration": 0.04838712499997655
                },
                {
                    "name": "F#5",
                    "midi": 78,
                    "time": 528.0003080000087,
                    "velocity": 0.33858267716535434,
                    "duration": 0.0967742499999531
                },
                {
                    "name": "C#6",
                    "midi": 85,
                    "time": 528.0003080000087,
                    "velocity": 0.4015748031496063,
                    "duration": 0.0967742499999531
                },
                {
                    "name": "D5",
                    "midi": 74,
                    "time": 528.0003080000087,
                    "velocity": 0.33858267716535434,
                    "duration": 0.0967742499999531
                },
                {
                    "name": "D5",
                    "midi": 74,
                    "time": 528.2906307500086,
                    "velocity": 0.30708661417322836,
                    "duration": 0.04838712499997655
                },
                {
                    "name": "B5",
                    "midi": 83,
                    "time": 528.2906307500086,
                    "velocity": 0.3700787401574803,
                    "duration": 0.04838712499997655
                },
                {
                    "name": "F#5",
                    "midi": 78,
                    "time": 528.2906307500086,
                    "velocity": 0.30708661417322836,
                    "duration": 0.04838712499997655
                },
                {
                    "name": "A5",
                    "midi": 81,
                    "time": 528.3874050000086,
                    "velocity": 0.3779527559055118,
                    "duration": 0.7669359312500319
                },
                {
                    "name": "D5",
                    "midi": 74,
                    "time": 528.3874050000086,
                    "velocity": 0.31496062992125984,
                    "duration": 0.7669359312500319
                },
                {
                    "name": "F#5",
                    "midi": 78,
                    "time": 528.3874050000086,
                    "velocity": 0.31496062992125984,
                    "duration": 0.7669359312500319
                },
                {
                    "name": "A5",
                    "midi": 81,
                    "time": 529.1615990000087,
                    "velocity": 0.3779527559055118,
                    "duration": 0.6572584479166608
                },
                {
                    "name": "D5",
                    "midi": 74,
                    "time": 529.1615990000087,
                    "velocity": 0.3779527559055118,
                    "duration": 0.6572584479166608
                },
                {
                    "name": "F#5",
                    "midi": 78,
                    "time": 529.1615990000087,
                    "velocity": 0.31496062992125984,
                    "duration": 0.6572584479166608
                },
                {
                    "name": "A5",
                    "midi": 81,
                    "time": 529.8390187500087,
                    "velocity": 0.29133858267716534,
                    "duration": 0.04838712499997655
                },
                {
                    "name": "D5",
                    "midi": 74,
                    "time": 529.8390187500087,
                    "velocity": 0.29133858267716534,
                    "duration": 0.04838712499997655
                },
                {
                    "name": "F#5",
                    "midi": 78,
                    "time": 529.8390187500087,
                    "velocity": 0.3464566929133858,
                    "duration": 0.04838712499997655
                },
                {
                    "name": "A5",
                    "midi": 81,
                    "time": 529.9357930000086,
                    "velocity": 0.31496062992125984,
                    "duration": 0.0967742499999531
                },
                {
                    "name": "F#5",
                    "midi": 78,
                    "time": 529.9357930000086,
                    "velocity": 0.3779527559055118,
                    "duration": 0.0967742499999531
                },
                {
                    "name": "D5",
                    "midi": 74,
                    "time": 529.9357930000086,
                    "velocity": 0.31496062992125984,
                    "duration": 0.0967742499999531
                },
                {
                    "name": "D5",
                    "midi": 74,
                    "time": 530.2261157500086,
                    "velocity": 0.29133858267716534,
                    "duration": 0.04838712499997655
                },
                {
                    "name": "A5",
                    "midi": 81,
                    "time": 530.2261157500086,
                    "velocity": 0.29133858267716534,
                    "duration": 0.04838712499997655
                },
                {
                    "name": "F#5",
                    "midi": 78,
                    "time": 530.2261157500086,
                    "velocity": 0.3464566929133858,
                    "duration": 0.04838712499997655
                },
                {
                    "name": "D5",
                    "midi": 74,
                    "time": 530.3228900000086,
                    "velocity": 0.31496062992125984,
                    "duration": 0.0967742499999531
                },
                {
                    "name": "B5",
                    "midi": 83,
                    "time": 530.3228900000086,
                    "velocity": 0.31496062992125984,
                    "duration": 0.0967742499999531
                },
                {
                    "name": "G5",
                    "midi": 79,
                    "time": 530.3228900000086,
                    "velocity": 0.3779527559055118,
                    "duration": 0.0967742499999531
                },
                {
                    "name": "D5",
                    "midi": 74,
                    "time": 530.6132127500085,
                    "velocity": 0.29133858267716534,
                    "duration": 0.04838712499997655
                },
                {
                    "name": "F#5",
                    "midi": 78,
                    "time": 530.6132127500085,
                    "velocity": 0.3464566929133858,
                    "duration": 0.04838712499997655
                },
                {
                    "name": "A5",
                    "midi": 81,
                    "time": 530.6132127500085,
                    "velocity": 0.3464566929133858,
                    "duration": 0.04838712499997655
                },
                {
                    "name": "A5",
                    "midi": 81,
                    "time": 530.7099870000085,
                    "velocity": 0.3779527559055118,
                    "duration": 0.750806889583373
                },
                {
                    "name": "C#5",
                    "midi": 73,
                    "time": 530.7099870000085,
                    "velocity": 0.31496062992125984,
                    "duration": 0.750806889583373
                },
                {
                    "name": "F#5",
                    "midi": 78,
                    "time": 530.7099870000085,
                    "velocity": 0.31496062992125984,
                    "duration": 0.750806889583373
                },
                {
                    "name": "G5",
                    "midi": 79,
                    "time": 531.4841810000086,
                    "velocity": 0.3543307086614173,
                    "duration": 0.6572584479166608
                },
                {
                    "name": "E5",
                    "midi": 76,
                    "time": 531.4841810000086,
                    "velocity": 0.2992125984251969,
                    "duration": 0.6572584479166608
                },
                {
                    "name": "C#5",
                    "midi": 73,
                    "time": 531.4841810000086,
                    "velocity": 0.2992125984251969,
                    "duration": 0.6572584479166608
                },
                {
                    "name": "E5",
                    "midi": 76,
                    "time": 532.1616007500086,
                    "velocity": 0.33070866141732286,
                    "duration": 0.04838712499997655
                },
                {
                    "name": "G5",
                    "midi": 79,
                    "time": 532.1616007500086,
                    "velocity": 0.2755905511811024,
                    "duration": 0.04838712499997655
                },
                {
                    "name": "A4",
                    "midi": 69,
                    "time": 532.1616007500086,
                    "velocity": 0.2755905511811024,
                    "duration": 0.04838712499997655
                },
                {
                    "name": "G5",
                    "midi": 79,
                    "time": 532.2583750000085,
                    "velocity": 0.2992125984251969,
                    "duration": 0.0967742499999531
                },
                {
                    "name": "A4",
                    "midi": 69,
                    "time": 532.2583750000085,
                    "velocity": 0.2992125984251969,
                    "duration": 0.0967742499999531
                },
                {
                    "name": "E5",
                    "midi": 76,
                    "time": 532.2583750000085,
                    "velocity": 0.3543307086614173,
                    "duration": 0.0967742499999531
                },
                {
                    "name": "G5",
                    "midi": 79,
                    "time": 532.5486977500085,
                    "velocity": 0.2755905511811024,
                    "duration": 0.04838712499997655
                },
                {
                    "name": "A4",
                    "midi": 69,
                    "time": 532.5486977500085,
                    "velocity": 0.2755905511811024,
                    "duration": 0.04838712499997655
                },
                {
                    "name": "E5",
                    "midi": 76,
                    "time": 532.5486977500085,
                    "velocity": 0.33070866141732286,
                    "duration": 0.04838712499997655
                },
                {
                    "name": "A4",
                    "midi": 69,
                    "time": 532.6454720000085,
                    "velocity": 0.29133858267716534,
                    "duration": 0.0967742499999531
                },
                {
                    "name": "F#5",
                    "midi": 78,
                    "time": 532.6454720000085,
                    "velocity": 0.29133858267716534,
                    "duration": 0.0967742499999531
                },
                {
                    "name": "D5",
                    "midi": 74,
                    "time": 532.6454720000085,
                    "velocity": 0.3543307086614173,
                    "duration": 0.0967742499999531
                },
                {
                    "name": "E5",
                    "midi": 76,
                    "time": 532.9357947500084,
                    "velocity": 0.33070866141732286,
                    "duration": 0.04838712499997655
                },
                {
                    "name": "A4",
                    "midi": 69,
                    "time": 532.9357947500084,
                    "velocity": 0.2755905511811024,
                    "duration": 0.04838712499997655
                },
                {
                    "name": "C#5",
                    "midi": 73,
                    "time": 532.9357947500084,
                    "velocity": 0.33070866141732286,
                    "duration": 0.04838712499997655
                },
                {
                    "name": "D5",
                    "midi": 74,
                    "time": 533.0325690000084,
                    "velocity": 0.2992125984251969,
                    "duration": 0.750806889583373
                },
                {
                    "name": "F#4",
                    "midi": 66,
                    "time": 533.0325690000084,
                    "velocity": 0.25196850393700787,
                    "duration": 0.750806889583373
                },
                {
                    "name": "A4",
                    "midi": 69,
                    "time": 533.0325690000084,
                    "velocity": 0.25196850393700787,
                    "duration": 0.750806889583373
                },
                {
                    "name": "F#4",
                    "midi": 66,
                    "time": 533.8067630000085,
                    "velocity": 0.25196850393700787,
                    "duration": 0.38709700000003977
                },
                {
                    "name": "A4",
                    "midi": 69,
                    "time": 533.8067630000085,
                    "velocity": 0.25196850393700787,
                    "duration": 0.38709700000003977
                },
                {
                    "name": "D5",
                    "midi": 74,
                    "time": 533.8067630000085,
                    "velocity": 0.2992125984251969,
                    "duration": 0.38709700000003977
                },
                {
                    "name": "E5",
                    "midi": 76,
                    "time": 534.4841827500085,
                    "velocity": 0.28346456692913385,
                    "duration": 0.04838712499997655
                },
                {
                    "name": "G5",
                    "midi": 79,
                    "time": 534.4841827500085,
                    "velocity": 0.23622047244094488,
                    "duration": 0.04838712499997655
                },
                {
                    "name": "A4",
                    "midi": 69,
                    "time": 534.4841827500085,
                    "velocity": 0.23622047244094488,
                    "duration": 0.04838712499997655
                },
                {
                    "name": "G5",
                    "midi": 79,
                    "time": 534.5809570000084,
                    "velocity": 0.25984251968503935,
                    "duration": 0.0967742499999531
                },
                {
                    "name": "A4",
                    "midi": 69,
                    "time": 534.5809570000084,
                    "velocity": 0.25984251968503935,
                    "duration": 0.0967742499999531
                },
                {
                    "name": "E5",
                    "midi": 76,
                    "time": 534.5809570000084,
                    "velocity": 0.30708661417322836,
                    "duration": 0.0967742499999531
                },
                {
                    "name": "G5",
                    "midi": 79,
                    "time": 534.8712797500084,
                    "velocity": 0.23622047244094488,
                    "duration": 0.04838712499997655
                },
                {
                    "name": "E5",
                    "midi": 76,
                    "time": 534.8712797500084,
                    "velocity": 0.2755905511811024,
                    "duration": 0.04838712499997655
                },
                {
                    "name": "A4",
                    "midi": 69,
                    "time": 534.8712797500084,
                    "velocity": 0.23622047244094488,
                    "duration": 0.04838712499997655
                },
                {
                    "name": "D5",
                    "midi": 74,
                    "time": 534.9680540000084,
                    "velocity": 0.2992125984251969,
                    "duration": 0.0967742499999531
                },
                {
                    "name": "A4",
                    "midi": 69,
                    "time": 534.9680540000084,
                    "velocity": 0.2440944881889764,
                    "duration": 0.0967742499999531
                },
                {
                    "name": "F#5",
                    "midi": 78,
                    "time": 534.9680540000084,
                    "velocity": 0.2440944881889764,
                    "duration": 0.0967742499999531
                },
                {
                    "name": "E5",
                    "midi": 76,
                    "time": 535.2583767500083,
                    "velocity": 0.2677165354330709,
                    "duration": 0.04838712499997655
                },
                {
                    "name": "A4",
                    "midi": 69,
                    "time": 535.2583767500083,
                    "velocity": 0.2283464566929134,
                    "duration": 0.04838712499997655
                },
                {
                    "name": "C#5",
                    "midi": 73,
                    "time": 535.2583767500083,
                    "velocity": 0.2677165354330709,
                    "duration": 0.04838712499997655
                },
                {
                    "name": "D5",
                    "midi": 74,
                    "time": 535.3551510000083,
                    "velocity": 0.25984251968503935,
                    "duration": 0.750806889583373
                },
                {
                    "name": "F#4",
                    "midi": 66,
                    "time": 535.3551510000083,
                    "velocity": 0.2204724409448819,
                    "duration": 0.750806889583373
                },
                {
                    "name": "A4",
                    "midi": 69,
                    "time": 535.3551510000083,
                    "velocity": 0.2204724409448819,
                    "duration": 0.750806889583373
                },
                {
                    "name": "F#4",
                    "midi": 66,
                    "time": 536.1293450000084,
                    "velocity": 0.2047244094488189,
                    "duration": 0.38709700000003977
                },
                {
                    "name": "A4",
                    "midi": 69,
                    "time": 536.1293450000084,
                    "velocity": 0.2047244094488189,
                    "duration": 0.38709700000003977
                },
                {
                    "name": "D5",
                    "midi": 74,
                    "time": 536.1293450000084,
                    "velocity": 0.25196850393700787,
                    "duration": 0.38709700000003977
                },
                {
                    "name": "G5",
                    "midi": 79,
                    "time": 536.8067647500084,
                    "velocity": 0.18110236220472442,
                    "duration": 0.04838712499997655
                },
                {
                    "name": "A4",
                    "midi": 69,
                    "time": 536.8067647500084,
                    "velocity": 0.18110236220472442,
                    "duration": 0.04838712499997655
                },
                {
                    "name": "E5",
                    "midi": 76,
                    "time": 536.8067647500084,
                    "velocity": 0.2204724409448819,
                    "duration": 0.04838712499997655
                },
                {
                    "name": "A4",
                    "midi": 69,
                    "time": 536.9035390000083,
                    "velocity": 0.1968503937007874,
                    "duration": 0.0967742499999531
                },
                {
                    "name": "G5",
                    "midi": 79,
                    "time": 536.9035390000083,
                    "velocity": 0.1968503937007874,
                    "duration": 0.0967742499999531
                },
                {
                    "name": "E5",
                    "midi": 76,
                    "time": 536.9035390000083,
                    "velocity": 0.23622047244094488,
                    "duration": 0.0967742499999531
                },
                {
                    "name": "G5",
                    "midi": 79,
                    "time": 537.1938617500083,
                    "velocity": 0.1732283464566929,
                    "duration": 0.04838712499997655
                },
                {
                    "name": "A4",
                    "midi": 69,
                    "time": 537.1938617500083,
                    "velocity": 0.1732283464566929,
                    "duration": 0.04838712499997655
                },
                {
                    "name": "E5",
                    "midi": 76,
                    "time": 537.1938617500083,
                    "velocity": 0.2047244094488189,
                    "duration": 0.04838712499997655
                },
                {
                    "name": "D5",
                    "midi": 74,
                    "time": 537.2906360000082,
                    "velocity": 0.2283464566929134,
                    "duration": 0.0967742499999531
                },
                {
                    "name": "F#5",
                    "midi": 78,
                    "time": 537.2906360000082,
                    "velocity": 0.18110236220472442,
                    "duration": 0.0967742499999531
                },
                {
                    "name": "A4",
                    "midi": 69,
                    "time": 537.2906360000082,
                    "velocity": 0.18110236220472442,
                    "duration": 0.0967742499999531
                },
                {
                    "name": "E5",
                    "midi": 76,
                    "time": 537.5809587500082,
                    "velocity": 0.1968503937007874,
                    "duration": 0.04838712499997655
                },
                {
                    "name": "A4",
                    "midi": 69,
                    "time": 537.5809587500082,
                    "velocity": 0.16535433070866143,
                    "duration": 0.04838712499997655
                },
                {
                    "name": "C#5",
                    "midi": 73,
                    "time": 537.5809587500082,
                    "velocity": 0.1968503937007874,
                    "duration": 0.04838712499997655
                },
                {
                    "name": "A4",
                    "midi": 69,
                    "time": 537.6777330000082,
                    "velocity": 0.1889763779527559,
                    "duration": 0.750806889583373
                },
                {
                    "name": "D5",
                    "midi": 74,
                    "time": 537.6777330000082,
                    "velocity": 0.2204724409448819,
                    "duration": 0.750806889583373
                },
                {
                    "name": "F#4",
                    "midi": 66,
                    "time": 537.6777330000082,
                    "velocity": 0.1889763779527559,
                    "duration": 0.750806889583373
                },
                {
                    "name": "F#4",
                    "midi": 66,
                    "time": 538.4519270000083,
                    "velocity": 0.1889763779527559,
                    "duration": 0.19354850000001989
                },
                {
                    "name": "A4",
                    "midi": 69,
                    "time": 538.4519270000083,
                    "velocity": 0.1889763779527559,
                    "duration": 0.19354850000001989
                },
                {
                    "name": "D5",
                    "midi": 74,
                    "time": 538.4519270000083,
                    "velocity": 0.2204724409448819,
                    "duration": 0.19354850000001989
                },
                {
                    "name": "A4",
                    "midi": 69,
                    "time": 539.2261210000082,
                    "velocity": 0.1889763779527559,
                    "duration": 0.19354850000001989
                },
                {
                    "name": "D5",
                    "midi": 74,
                    "time": 539.2261210000082,
                    "velocity": 0.2204724409448819,
                    "duration": 0.19354850000001989
                },
                {
                    "name": "F#4",
                    "midi": 66,
                    "time": 539.2261210000082,
                    "velocity": 0.1889763779527559,
                    "duration": 0.19354850000001989
                },
                {
                    "name": "A4",
                    "midi": 69,
                    "time": 539.6132180000083,
                    "velocity": 0.2204724409448819,
                    "duration": 0.19354850000001989
                },
                {
                    "name": "F#4",
                    "midi": 66,
                    "time": 539.6132180000083,
                    "velocity": 0.1889763779527559,
                    "duration": 0.19354850000001989
                },
                {
                    "name": "A4",
                    "midi": 69,
                    "time": 540.0003150000083,
                    "velocity": 0.1889763779527559,
                    "duration": 0.750806889583373
                },
                {
                    "name": "F#4",
                    "midi": 66,
                    "time": 540.0003150000083,
                    "velocity": 0.1889763779527559,
                    "duration": 0.750806889583373
                },
                {
                    "name": "D5",
                    "midi": 74,
                    "time": 540.0003150000083,
                    "velocity": 0.2204724409448819,
                    "duration": 0.750806889583373
                },
                {
                    "name": "D5",
                    "midi": 74,
                    "time": 540.7745090000084,
                    "velocity": 0.2204724409448819,
                    "duration": 0.19354850000001989
                },
                {
                    "name": "A4",
                    "midi": 69,
                    "time": 540.7745090000084,
                    "velocity": 0.1889763779527559,
                    "duration": 0.19354850000001989
                },
                {
                    "name": "F#4",
                    "midi": 66,
                    "time": 540.7745090000084,
                    "velocity": 0.1889763779527559,
                    "duration": 0.19354850000001989
                },
                {
                    "name": "D5",
                    "midi": 74,
                    "time": 541.5487030000083,
                    "velocity": 0.2204724409448819,
                    "duration": 0.19354850000001989
                },
                {
                    "name": "A4",
                    "midi": 69,
                    "time": 541.5487030000083,
                    "velocity": 0.1889763779527559,
                    "duration": 0.19354850000001989
                },
                {
                    "name": "F#4",
                    "midi": 66,
                    "time": 541.5487030000083,
                    "velocity": 0.1889763779527559,
                    "duration": 0.19354850000001989
                },
                {
                    "name": "F#4",
                    "midi": 66,
                    "time": 541.9358000000084,
                    "velocity": 0.1889763779527559,
                    "duration": 0.19354850000001989
                },
                {
                    "name": "A4",
                    "midi": 69,
                    "time": 541.9358000000084,
                    "velocity": 0.2204724409448819,
                    "duration": 0.19354850000001989
                },
                {
                    "name": "D5",
                    "midi": 74,
                    "time": 542.3228970000084,
                    "velocity": 0.2204724409448819,
                    "duration": 0.19354850000001989
                },
                {
                    "name": "F#4",
                    "midi": 66,
                    "time": 542.3228970000084,
                    "velocity": 0.1889763779527559,
                    "duration": 0.19354850000001989
                },
                {
                    "name": "A4",
                    "midi": 69,
                    "time": 542.3228970000084,
                    "velocity": 0.1889763779527559,
                    "duration": 0.19354850000001989
                },
                {
                    "name": "F#4",
                    "midi": 66,
                    "time": 543.4841880000084,
                    "velocity": 0.18110236220472442,
                    "duration": 0.19354850000001989
                },
                {
                    "name": "A4",
                    "midi": 69,
                    "time": 543.4841880000084,
                    "velocity": 0.18110236220472442,
                    "duration": 0.19354850000001989
                },
                {
                    "name": "D5",
                    "midi": 74,
                    "time": 543.4841880000084,
                    "velocity": 0.2047244094488189,
                    "duration": 0.19354850000001989
                },
                {
                    "name": "A4",
                    "midi": 69,
                    "time": 544.6454790000084,
                    "velocity": 0.16535433070866143,
                    "duration": 1.5483880000000454
                },
                {
                    "name": "D5",
                    "midi": 74,
                    "time": 544.6454790000084,
                    "velocity": 0.1968503937007874,
                    "duration": 1.5483880000000454
                },
                {
                    "name": "F#4",
                    "midi": 66,
                    "time": 544.6454790000084,
                    "velocity": 0.16535433070866143,
                    "duration": 1.5483880000000454
                }
            ],
            "controlChanges": {},
            "id": 1,
            "name": "Piano right",
            "instrumentNumber": 0,
            "instrument": "acoustic grand piano",
            "instrumentFamily": "piano",
            "channelNumber": 0,
            "isPercussion": false
        },
        {
            "startTime": 0.29032274999999996,
            "duration": 546.1938670000122,
            "length": 2580,
            "notes": [
                {
                    "name": "A1",
                    "midi": 33,
                    "time": 0.29032274999999996,
                    "velocity": 0.4015748031496063,
                    "duration": 0.048387124999999975
                },
                {
                    "name": "A2",
                    "midi": 45,
                    "time": 0.29032274999999996,
                    "velocity": 0.47244094488188976,
                    "duration": 0.048387124999999975
                },
                {
                    "name": "A1",
                    "midi": 33,
                    "time": 0.3870969999999999,
                    "velocity": 0.4251968503937008,
                    "duration": 0.29032274999999996
                },
                {
                    "name": "A2",
                    "midi": 45,
                    "time": 0.3870969999999999,
                    "velocity": 0.5039370078740157,
                    "duration": 0.29032274999999996
                },
                {
                    "name": "A1",
                    "midi": 33,
                    "time": 0.6774197499999999,
                    "velocity": 0.3937007874015748,
                    "duration": 0.048387124999999975
                },
                {
                    "name": "A2",
                    "midi": 45,
                    "time": 0.6774197499999999,
                    "velocity": 0.4645669291338583,
                    "duration": 0.048387124999999975
                },
                {
                    "name": "B1",
                    "midi": 35,
                    "time": 0.7741939999999998,
                    "velocity": 0.4251968503937008,
                    "duration": 0.29032274999999985
                },
                {
                    "name": "B2",
                    "midi": 47,
                    "time": 0.7741939999999998,
                    "velocity": 0.5039370078740157,
                    "duration": 0.29032274999999985
                },
                {
                    "name": "C#2",
                    "midi": 37,
                    "time": 1.0645167499999997,
                    "velocity": 0.4015748031496063,
                    "duration": 0.048387125000000086
                },
                {
                    "name": "C#3",
                    "midi": 49,
                    "time": 1.0645167499999997,
                    "velocity": 0.47244094488188976,
                    "duration": 0.048387125000000086
                },
                {
                    "name": "D2",
                    "midi": 38,
                    "time": 1.1612909999999999,
                    "velocity": 0.44881889763779526,
                    "duration": 0.7508068895833333
                },
                {
                    "name": "A2",
                    "midi": 45,
                    "time": 1.1612909999999999,
                    "velocity": 0.44881889763779526,
                    "duration": 0.7508068895833333
                },
                {
                    "name": "D3",
                    "midi": 50,
                    "time": 1.1612909999999999,
                    "velocity": 0.5354330708661418,
                    "duration": 0.7508068895833333
                },
                {
                    "name": "D2",
                    "midi": 38,
                    "time": 1.935485,
                    "velocity": 0.44881889763779526,
                    "duration": 0.7508068895833331
                },
                {
                    "name": "A2",
                    "midi": 45,
                    "time": 1.935485,
                    "velocity": 0.44881889763779526,
                    "duration": 0.7508068895833331
                },
                {
                    "name": "D3",
                    "midi": 50,
                    "time": 1.935485,
                    "velocity": 0.5354330708661418,
                    "duration": 0.7508068895833331
                },
                {
                    "name": "D2",
                    "midi": 38,
                    "time": 2.7096789999999995,
                    "velocity": 0.41732283464566927,
                    "duration": 0.3870969999999998
                },
                {
                    "name": "D3",
                    "midi": 50,
                    "time": 2.7096789999999995,
                    "velocity": 0.49606299212598426,
                    "duration": 0.3870969999999998
                },
                {
                    "name": "F#2",
                    "midi": 42,
                    "time": 3.0967759999999993,
                    "velocity": 0.41732283464566927,
                    "duration": 0.3870969999999998
                },
                {
                    "name": "F#3",
                    "midi": 54,
                    "time": 3.0967759999999993,
                    "velocity": 0.49606299212598426,
                    "duration": 0.3870969999999998
                },
                {
                    "name": "C#2",
                    "midi": 37,
                    "time": 3.483872999999999,
                    "velocity": 0.44881889763779526,
                    "duration": 0.7508068895833331
                },
                {
                    "name": "A2",
                    "midi": 45,
                    "time": 3.483872999999999,
                    "velocity": 0.44881889763779526,
                    "duration": 0.7508068895833331
                },
                {
                    "name": "C#3",
                    "midi": 49,
                    "time": 3.483872999999999,
                    "velocity": 0.5354330708661418,
                    "duration": 0.7508068895833331
                },
                {
                    "name": "C#2",
                    "midi": 37,
                    "time": 4.258066999999999,
                    "velocity": 0.44881889763779526,
                    "duration": 0.7508068895833331
                },
                {
                    "name": "A2",
                    "midi": 45,
                    "time": 4.258066999999999,
                    "velocity": 0.44881889763779526,
                    "duration": 0.7508068895833331
                },
                {
                    "name": "C#3",
                    "midi": 49,
                    "time": 4.258066999999999,
                    "velocity": 0.5354330708661418,
                    "duration": 0.7508068895833331
                },
                {
                    "name": "C#2",
                    "midi": 37,
                    "time": 5.032260999999998,
                    "velocity": 0.41732283464566927,
                    "duration": 0.37580667083333363
                },
                {
                    "name": "C#3",
                    "midi": 49,
                    "time": 5.032260999999998,
                    "velocity": 0.49606299212598426,
                    "duration": 0.37580667083333363
                },
                {
                    "name": "C#2",
                    "midi": 37,
                    "time": 5.419357999999999,
                    "velocity": 0.41732283464566927,
                    "duration": 0.3870969999999998
                },
                {
                    "name": "C#3",
                    "midi": 49,
                    "time": 5.419357999999999,
                    "velocity": 0.49606299212598426,
                    "duration": 0.3870969999999998
                },
                {
                    "name": "B1",
                    "midi": 35,
                    "time": 5.806454999999999,
                    "velocity": 0.44881889763779526,
                    "duration": 0.7508068895833331
                },
                {
                    "name": "F#2",
                    "midi": 42,
                    "time": 5.806454999999999,
                    "velocity": 0.44881889763779526,
                    "duration": 0.7508068895833331
                },
                {
                    "name": "B2",
                    "midi": 47,
                    "time": 5.806454999999999,
                    "velocity": 0.5354330708661418,
                    "duration": 0.7508068895833331
                },
                {
                    "name": "B1",
                    "midi": 35,
                    "time": 6.580648999999998,
                    "velocity": 0.44881889763779526,
                    "duration": 0.5725809791666663
                },
                {
                    "name": "F#2",
                    "midi": 42,
                    "time": 6.580648999999998,
                    "velocity": 0.44881889763779526,
                    "duration": 0.5725809791666663
                },
                {
                    "name": "B2",
                    "midi": 47,
                    "time": 6.580648999999998,
                    "velocity": 0.5354330708661418,
                    "duration": 0.5725809791666663
                },
                {
                    "name": "E2",
                    "midi": 40,
                    "time": 7.161294499999998,
                    "velocity": 0.4094488188976378,
                    "duration": 0.09677425000000017
                },
                {
                    "name": "E3",
                    "midi": 52,
                    "time": 7.161294499999998,
                    "velocity": 0.4881889763779528,
                    "duration": 0.09677425000000017
                },
                {
                    "name": "E2",
                    "midi": 40,
                    "time": 7.354842999999998,
                    "velocity": 0.41732283464566927,
                    "duration": 0.09677425000000017
                },
                {
                    "name": "E3",
                    "midi": 52,
                    "time": 7.354842999999998,
                    "velocity": 0.49606299212598426,
                    "duration": 0.09677425000000017
                },
                {
                    "name": "E2",
                    "midi": 40,
                    "time": 7.548391499999998,
                    "velocity": 0.4409448818897638,
                    "duration": 0.09677425000000017
                },
                {
                    "name": "E3",
                    "midi": 52,
                    "time": 7.548391499999998,
                    "velocity": 0.5196850393700787,
                    "duration": 0.09677425000000017
                },
                {
                    "name": "E2",
                    "midi": 40,
                    "time": 7.741939999999999,
                    "velocity": 0.44881889763779526,
                    "duration": 0.09677425000000017
                },
                {
                    "name": "E3",
                    "midi": 52,
                    "time": 7.741939999999999,
                    "velocity": 0.5354330708661418,
                    "duration": 0.09677425000000017
                },
                {
                    "name": "E2",
                    "midi": 40,
                    "time": 7.935488499999999,
                    "velocity": 0.4645669291338583,
                    "duration": 0.09677425000000017
                },
                {
                    "name": "E3",
                    "midi": 52,
                    "time": 7.935488499999999,
                    "velocity": 0.5511811023622047,
                    "duration": 0.09677425000000017
                },
                {
                    "name": "A1",
                    "midi": 33,
                    "time": 8.129036999999999,
                    "velocity": 0.4881889763779528,
                    "duration": 0.750806889583334
                },
                {
                    "name": "A2",
                    "midi": 45,
                    "time": 8.129036999999999,
                    "velocity": 0.5748031496062992,
                    "duration": 0.750806889583334
                },
                {
                    "name": "A2",
                    "midi": 45,
                    "time": 8.903231,
                    "velocity": 0.44881889763779526,
                    "duration": 0.750806889583334
                },
                {
                    "name": "E3",
                    "midi": 52,
                    "time": 8.903231,
                    "velocity": 0.5354330708661418,
                    "duration": 0.750806889583334
                },
                {
                    "name": "F#4",
                    "midi": 66,
                    "time": 9.677425000000001,
                    "velocity": 0.3543307086614173,
                    "duration": 0.3870970000000007
                },
                {
                    "name": "D4",
                    "midi": 62,
                    "time": 10.064522000000002,
                    "velocity": 0.29133858267716534,
                    "duration": 0.3870970000000007
                },
                {
                    "name": "G4",
                    "midi": 67,
                    "time": 10.451619000000003,
                    "velocity": 0.3543307086614173,
                    "duration": 0.3870970000000007
                },
                {
                    "name": "B4",
                    "midi": 71,
                    "time": 10.838716000000003,
                    "velocity": 0.30708661417322836,
                    "duration": 0.3870970000000007
                },
                {
                    "name": "E5",
                    "midi": 76,
                    "time": 11.225813000000004,
                    "velocity": 0.30708661417322836,
                    "duration": 0.3870970000000007
                },
                {
                    "name": "C#4",
                    "midi": 61,
                    "time": 11.612910000000005,
                    "velocity": 0.3464566929133858,
                    "duration": 0.19354850000000035
                },
                {
                    "name": "C#5",
                    "midi": 73,
                    "time": 12.000007000000005,
                    "velocity": 0.28346456692913385,
                    "duration": 0.3870970000000007
                },
                {
                    "name": "G4",
                    "midi": 67,
                    "time": 12.387104000000006,
                    "velocity": 0.28346456692913385,
                    "duration": 0.3870970000000007
                },
                {
                    "name": "F#4",
                    "midi": 66,
                    "time": 12.774201000000007,
                    "velocity": 0.3543307086614173,
                    "duration": 0.3870970000000007
                },
                {
                    "name": "A4",
                    "midi": 69,
                    "time": 13.161298000000007,
                    "velocity": 0.30708661417322836,
                    "duration": 0.3870970000000007
                },
                {
                    "name": "D5",
                    "midi": 74,
                    "time": 13.548395000000008,
                    "velocity": 0.30708661417322836,
                    "duration": 0.3870970000000007
                },
                {
                    "name": "B3",
                    "midi": 59,
                    "time": 13.935492000000009,
                    "velocity": 0.3464566929133858,
                    "duration": 0.19354850000000035
                },
                {
                    "name": "B4",
                    "midi": 71,
                    "time": 14.32258900000001,
                    "velocity": 0.28346456692913385,
                    "duration": 0.3870970000000007
                },
                {
                    "name": "F#4",
                    "midi": 66,
                    "time": 14.70968600000001,
                    "velocity": 0.28346456692913385,
                    "duration": 0.3870970000000007
                },
                {
                    "name": "E4",
                    "midi": 64,
                    "time": 15.096783000000011,
                    "velocity": 0.3543307086614173,
                    "duration": 0.3870970000000007
                },
                {
                    "name": "G4",
                    "midi": 67,
                    "time": 15.483880000000012,
                    "velocity": 0.30708661417322836,
                    "duration": 0.3870970000000007
                },
                {
                    "name": "C#5",
                    "midi": 73,
                    "time": 15.870977000000012,
                    "velocity": 0.30708661417322836,
                    "duration": 0.3870969999999989
                },
                {
                    "name": "E3",
                    "midi": 52,
                    "time": 16.25807400000001,
                    "velocity": 0.3464566929133858,
                    "duration": 0.19354849999999857
                },
                {
                    "name": "E4",
                    "midi": 64,
                    "time": 16.64517100000001,
                    "velocity": 0.2677165354330709,
                    "duration": 0.3870970000000007
                },
                {
                    "name": "F4",
                    "midi": 65,
                    "time": 17.03226800000001,
                    "velocity": 0.25196850393700787,
                    "duration": 0.3870970000000007
                },
                {
                    "name": "F#4",
                    "midi": 66,
                    "time": 17.41936500000001,
                    "velocity": 0.1968503937007874,
                    "duration": 0.750806889583334
                },
                {
                    "name": "C#5",
                    "midi": 73,
                    "time": 17.41936500000001,
                    "velocity": 0.23622047244094488,
                    "duration": 0.750806889583334
                },
                {
                    "name": "F#4",
                    "midi": 66,
                    "time": 18.19355900000001,
                    "velocity": 0.30708661417322836,
                    "duration": 0.5806454999999993
                },
                {
                    "name": "C#5",
                    "midi": 73,
                    "time": 18.19355900000001,
                    "velocity": 0.3700787401574803,
                    "duration": 0.5806454999999993
                },
                {
                    "name": "F#4",
                    "midi": 66,
                    "time": 18.96775300000001,
                    "velocity": 0.29133858267716534,
                    "duration": 0.34838729999999885
                },
                {
                    "name": "C#5",
                    "midi": 73,
                    "time": 18.96775300000001,
                    "velocity": 0.3464566929133858,
                    "duration": 0.34838729999999885
                },
                {
                    "name": "F#4",
                    "midi": 66,
                    "time": 19.354850000000006,
                    "velocity": 0.29133858267716534,
                    "duration": 0.34838729999999885
                },
                {
                    "name": "C#5",
                    "midi": 73,
                    "time": 19.354850000000006,
                    "velocity": 0.3464566929133858,
                    "duration": 0.34838729999999885
                },
                {
                    "name": "C#4",
                    "midi": 61,
                    "time": 19.741947000000003,
                    "velocity": 0.30708661417322836,
                    "duration": 0.750806889583334
                },
                {
                    "name": "B4",
                    "midi": 71,
                    "time": 19.741947000000003,
                    "velocity": 0.3700787401574803,
                    "duration": 0.750806889583334
                },
                {
                    "name": "C#4",
                    "midi": 61,
                    "time": 20.516141000000005,
                    "velocity": 0.30708661417322836,
                    "duration": 0.7661294791666649
                },
                {
                    "name": "B4",
                    "midi": 71,
                    "time": 20.516141000000005,
                    "velocity": 0.3700787401574803,
                    "duration": 0.7661294791666649
                },
                {
                    "name": "C#4",
                    "midi": 61,
                    "time": 21.290335000000002,
                    "velocity": 0.29133858267716534,
                    "duration": 0.34838729999999885
                },
                {
                    "name": "B4",
                    "midi": 71,
                    "time": 21.290335000000002,
                    "velocity": 0.3464566929133858,
                    "duration": 0.34838729999999885
                },
                {
                    "name": "C#4",
                    "midi": 61,
                    "time": 21.677432,
                    "velocity": 0.29133858267716534,
                    "duration": 0.34838729999999885
                },
                {
                    "name": "B4",
                    "midi": 71,
                    "time": 21.677432,
                    "velocity": 0.3464566929133858,
                    "duration": 0.34838729999999885
                },
                {
                    "name": "F#4",
                    "midi": 66,
                    "time": 22.064528999999997,
                    "velocity": 0.30708661417322836,
                    "duration": 0.750806889583334
                },
                {
                    "name": "A#4",
                    "midi": 70,
                    "time": 22.064528999999997,
                    "velocity": 0.3700787401574803,
                    "duration": 0.750806889583334
                },
                {
                    "name": "F#4",
                    "midi": 66,
                    "time": 22.838722999999998,
                    "velocity": 0.30708661417322836,
                    "duration": 0.6693552291666656
                },
                {
                    "name": "A#4",
                    "midi": 70,
                    "time": 22.838722999999998,
                    "velocity": 0.3700787401574803,
                    "duration": 0.6693552291666656
                },
                {
                    "name": "A1",
                    "midi": 33,
                    "time": 23.516142749999997,
                    "velocity": 0.4015748031496063,
                    "duration": 0.04838712500000142
                },
                {
                    "name": "A2",
                    "midi": 45,
                    "time": 23.516142749999997,
                    "velocity": 0.47244094488188976,
                    "duration": 0.04838712500000142
                },
                {
                    "name": "A1",
                    "midi": 33,
                    "time": 23.612917,
                    "velocity": 0.4251968503937008,
                    "duration": 0.2903227500000014
                },
                {
                    "name": "A2",
                    "midi": 45,
                    "time": 23.612917,
                    "velocity": 0.5039370078740157,
                    "duration": 0.2903227500000014
                },
                {
                    "name": "A1",
                    "midi": 33,
                    "time": 23.90323975,
                    "velocity": 0.3937007874015748,
                    "duration": 0.04838712500000142
                },
                {
                    "name": "A2",
                    "midi": 45,
                    "time": 23.90323975,
                    "velocity": 0.4645669291338583,
                    "duration": 0.04838712500000142
                },
                {
                    "name": "A1",
                    "midi": 33,
                    "time": 24.000014000000004,
                    "velocity": 0.4251968503937008,
                    "duration": 0.2903227500000014
                },
                {
                    "name": "A2",
                    "midi": 45,
                    "time": 24.000014000000004,
                    "velocity": 0.5039370078740157,
                    "duration": 0.2903227500000014
                },
                {
                    "name": "A1",
                    "midi": 33,
                    "time": 24.290336750000005,
                    "velocity": 0.4015748031496063,
                    "duration": 0.04838712500000142
                },
                {
                    "name": "A2",
                    "midi": 45,
                    "time": 24.290336750000005,
                    "velocity": 0.47244094488188976,
                    "duration": 0.04838712500000142
                },
                {
                    "name": "B1",
                    "midi": 35,
                    "time": 24.387111000000008,
                    "velocity": 0.44881889763779526,
                    "duration": 0.750806889583334
                },
                {
                    "name": "B2",
                    "midi": 47,
                    "time": 24.387111000000008,
                    "velocity": 0.5354330708661418,
                    "duration": 0.750806889583334
                },
                {
                    "name": "B1",
                    "midi": 35,
                    "time": 25.16130500000001,
                    "velocity": 0.44881889763779526,
                    "duration": 0.750806889583334
                },
                {
                    "name": "B2",
                    "midi": 47,
                    "time": 25.16130500000001,
                    "velocity": 0.5354330708661418,
                    "duration": 0.750806889583334
                },
                {
                    "name": "B1",
                    "midi": 35,
                    "time": 25.93549900000001,
                    "velocity": 0.41732283464566927,
                    "duration": 0.3870970000000007
                },
                {
                    "name": "B2",
                    "midi": 47,
                    "time": 25.93549900000001,
                    "velocity": 0.49606299212598426,
                    "duration": 0.3870970000000007
                },
                {
                    "name": "B1",
                    "midi": 35,
                    "time": 26.32259600000001,
                    "velocity": 0.41732283464566927,
                    "duration": 0.3870970000000007
                },
                {
                    "name": "B2",
                    "midi": 47,
                    "time": 26.32259600000001,
                    "velocity": 0.49606299212598426,
                    "duration": 0.3870970000000007
                },
                {
                    "name": "C#2",
                    "midi": 37,
                    "time": 26.709693000000012,
                    "velocity": 0.44881889763779526,
                    "duration": 0.750806889583334
                },
                {
                    "name": "A2",
                    "midi": 45,
                    "time": 26.709693000000012,
                    "velocity": 0.44881889763779526,
                    "duration": 0.750806889583334
                },
                {
                    "name": "C#3",
                    "midi": 49,
                    "time": 26.709693000000012,
                    "velocity": 0.5354330708661418,
                    "duration": 0.750806889583334
                },
                {
                    "name": "C#2",
                    "midi": 37,
                    "time": 27.483887000000014,
                    "velocity": 0.44881889763779526,
                    "duration": 0.750806889583334
                },
                {
                    "name": "A2",
                    "midi": 45,
                    "time": 27.483887000000014,
                    "velocity": 0.44881889763779526,
                    "duration": 0.750806889583334
                },
                {
                    "name": "C#3",
                    "midi": 49,
                    "time": 27.483887000000014,
                    "velocity": 0.5354330708661418,
                    "duration": 0.750806889583334
                },
                {
                    "name": "C#2",
                    "midi": 37,
                    "time": 28.258081000000015,
                    "velocity": 0.41732283464566927,
                    "duration": 0.3758066708333345
                },
                {
                    "name": "C#3",
                    "midi": 49,
                    "time": 28.258081000000015,
                    "velocity": 0.49606299212598426,
                    "duration": 0.3758066708333345
                },
                {
                    "name": "C#2",
                    "midi": 37,
                    "time": 28.645178000000016,
                    "velocity": 0.41732283464566927,
                    "duration": 0.3870970000000007
                },
                {
                    "name": "C#3",
                    "midi": 49,
                    "time": 28.645178000000016,
                    "velocity": 0.49606299212598426,
                    "duration": 0.3870970000000007
                },
                {
                    "name": "C2",
                    "midi": 36,
                    "time": 29.032275000000016,
                    "velocity": 0.44881889763779526,
                    "duration": 0.750806889583334
                },
                {
                    "name": "C3",
                    "midi": 48,
                    "time": 29.032275000000016,
                    "velocity": 0.5354330708661418,
                    "duration": 0.750806889583334
                },
                {
                    "name": "B1",
                    "midi": 35,
                    "time": 29.806469000000018,
                    "velocity": 0.44881889763779526,
                    "duration": 0.5725809791666663
                },
                {
                    "name": "B2",
                    "midi": 47,
                    "time": 29.806469000000018,
                    "velocity": 0.5354330708661418,
                    "duration": 0.5725809791666663
                },
                {
                    "name": "A#1",
                    "midi": 34,
                    "time": 30.387114500000017,
                    "velocity": 0.4094488188976378,
                    "duration": 0.09677424999999928
                },
                {
                    "name": "A#2",
                    "midi": 46,
                    "time": 30.387114500000017,
                    "velocity": 0.4881889763779528,
                    "duration": 0.09677424999999928
                },
                {
                    "name": "A#1",
                    "midi": 34,
                    "time": 30.580663000000015,
                    "velocity": 0.41732283464566927,
                    "duration": 0.09677424999999928
                },
                {
                    "name": "A#2",
                    "midi": 46,
                    "time": 30.580663000000015,
                    "velocity": 0.49606299212598426,
                    "duration": 0.09677424999999928
                },
                {
                    "name": "A#1",
                    "midi": 34,
                    "time": 30.774211500000014,
                    "velocity": 0.4409448818897638,
                    "duration": 0.09677424999999928
                },
                {
                    "name": "A#2",
                    "midi": 46,
                    "time": 30.774211500000014,
                    "velocity": 0.5196850393700787,
                    "duration": 0.09677424999999928
                },
                {
                    "name": "A#1",
                    "midi": 34,
                    "time": 30.967760000000013,
                    "velocity": 0.44881889763779526,
                    "duration": 0.09677424999999928
                },
                {
                    "name": "A#2",
                    "midi": 46,
                    "time": 30.967760000000013,
                    "velocity": 0.5354330708661418,
                    "duration": 0.09677424999999928
                },
                {
                    "name": "A#1",
                    "midi": 34,
                    "time": 31.16130850000001,
                    "velocity": 0.4645669291338583,
                    "duration": 0.09677424999999928
                },
                {
                    "name": "A#2",
                    "midi": 46,
                    "time": 31.16130850000001,
                    "velocity": 0.5511811023622047,
                    "duration": 0.09677424999999928
                },
                {
                    "name": "A1",
                    "midi": 33,
                    "time": 31.35485700000001,
                    "velocity": 0.4881889763779528,
                    "duration": 0.7508068895833304
                },
                {
                    "name": "A2",
                    "midi": 45,
                    "time": 31.35485700000001,
                    "velocity": 0.5748031496062992,
                    "duration": 0.7508068895833304
                },
                {
                    "name": "A2",
                    "midi": 45,
                    "time": 32.129051000000004,
                    "velocity": 0.44881889763779526,
                    "duration": 0.7508068895833304
                },
                {
                    "name": "E3",
                    "midi": 52,
                    "time": 32.129051000000004,
                    "velocity": 0.5354330708661418,
                    "duration": 0.7508068895833304
                },
                {
                    "name": "C#4",
                    "midi": 61,
                    "time": 32.903245,
                    "velocity": 0.3543307086614173,
                    "duration": 0.38709699999999714
                },
                {
                    "name": "A3",
                    "midi": 57,
                    "time": 33.290341999999995,
                    "velocity": 0.29133858267716534,
                    "duration": 0.38709699999999714
                },
                {
                    "name": "D4",
                    "midi": 62,
                    "time": 33.67743899999999,
                    "velocity": 0.3543307086614173,
                    "duration": 0.38709699999999714
                },
                {
                    "name": "F#4",
                    "midi": 66,
                    "time": 34.06453599999999,
                    "velocity": 0.30708661417322836,
                    "duration": 0.38709699999999714
                },
                {
                    "name": "B4",
                    "midi": 71,
                    "time": 34.45163299999999,
                    "velocity": 0.30708661417322836,
                    "duration": 0.38709699999999714
                },
                {
                    "name": "G#3",
                    "midi": 56,
                    "time": 34.838729999999984,
                    "velocity": 0.3464566929133858,
                    "duration": 0.19354849999999857
                },
                {
                    "name": "G#4",
                    "midi": 68,
                    "time": 35.22582699999998,
                    "velocity": 0.28346456692913385,
                    "duration": 0.38709699999999714
                },
                {
                    "name": "D4",
                    "midi": 62,
                    "time": 35.61292399999998,
                    "velocity": 0.28346456692913385,
                    "duration": 0.38709699999999714
                },
                {
                    "name": "C#4",
                    "midi": 61,
                    "time": 36.000020999999975,
                    "velocity": 0.3543307086614173,
                    "duration": 0.38709699999999714
                },
                {
                    "name": "E4",
                    "midi": 64,
                    "time": 36.38711799999997,
                    "velocity": 0.30708661417322836,
                    "duration": 0.38709699999999714
                },
                {
                    "name": "A4",
                    "midi": 69,
                    "time": 36.77421499999997,
                    "velocity": 0.30708661417322836,
                    "duration": 0.38709699999999714
                },
                {
                    "name": "F#3",
                    "midi": 54,
                    "time": 37.16131199999997,
                    "velocity": 0.3464566929133858,
                    "duration": 0.19354849999999857
                },
                {
                    "name": "F#4",
                    "midi": 66,
                    "time": 37.548408999999964,
                    "velocity": 0.28346456692913385,
                    "duration": 0.38709699999999714
                },
                {
                    "name": "C#4",
                    "midi": 61,
                    "time": 37.93550599999996,
                    "velocity": 0.28346456692913385,
                    "duration": 0.38709699999999714
                },
                {
                    "name": "B3",
                    "midi": 59,
                    "time": 38.32260299999996,
                    "velocity": 0.3543307086614173,
                    "duration": 0.38709699999999714
                },
                {
                    "name": "D4",
                    "midi": 62,
                    "time": 38.709699999999955,
                    "velocity": 0.30708661417322836,
                    "duration": 0.38709699999999714
                },
                {
                    "name": "G#4",
                    "midi": 68,
                    "time": 39.09679699999995,
                    "velocity": 0.30708661417322836,
                    "duration": 0.38709699999999714
                },
                {
                    "name": "B2",
                    "midi": 47,
                    "time": 39.48389399999995,
                    "velocity": 0.3464566929133858,
                    "duration": 0.19354849999999857
                },
                {
                    "name": "B3",
                    "midi": 59,
                    "time": 39.87099099999995,
                    "velocity": 0.2677165354330709,
                    "duration": 0.38709699999999714
                },
                {
                    "name": "C4",
                    "midi": 60,
                    "time": 40.258087999999944,
                    "velocity": 0.25196850393700787,
                    "duration": 0.38709699999999714
                },
                {
                    "name": "C#4",
                    "midi": 61,
                    "time": 40.64518499999994,
                    "velocity": 0.1968503937007874,
                    "duration": 0.7508068895833304
                },
                {
                    "name": "G#4",
                    "midi": 68,
                    "time": 40.64518499999994,
                    "velocity": 0.23622047244094488,
                    "duration": 0.7508068895833304
                },
                {
                    "name": "C#4",
                    "midi": 61,
                    "time": 41.419378999999935,
                    "velocity": 0.30708661417322836,
                    "duration": 0.7661294791666649
                },
                {
                    "name": "G#4",
                    "midi": 68,
                    "time": 41.419378999999935,
                    "velocity": 0.3700787401574803,
                    "duration": 0.7661294791666649
                },
                {
                    "name": "C#4",
                    "midi": 61,
                    "time": 42.19357299999994,
                    "velocity": 0.29133858267716534,
                    "duration": 0.34838729999999885
                },
                {
                    "name": "G#4",
                    "midi": 68,
                    "time": 42.19357299999994,
                    "velocity": 0.3464566929133858,
                    "duration": 0.34838729999999885
                },
                {
                    "name": "C#4",
                    "midi": 61,
                    "time": 42.580669999999934,
                    "velocity": 0.29133858267716534,
                    "duration": 0.34838729999999885
                },
                {
                    "name": "G#4",
                    "midi": 68,
                    "time": 42.580669999999934,
                    "velocity": 0.3464566929133858,
                    "duration": 0.34838729999999885
                },
                {
                    "name": "B3",
                    "midi": 59,
                    "time": 42.96776699999993,
                    "velocity": 0.30708661417322836,
                    "duration": 0.7508068895833304
                },
                {
                    "name": "E4",
                    "midi": 64,
                    "time": 42.96776699999993,
                    "velocity": 0.30708661417322836,
                    "duration": 0.7508068895833304
                },
                {
                    "name": "G#4",
                    "midi": 68,
                    "time": 42.96776699999993,
                    "velocity": 0.3700787401574803,
                    "duration": 0.7508068895833304
                },
                {
                    "name": "B3",
                    "midi": 59,
                    "time": 43.741960999999925,
                    "velocity": 0.30708661417322836,
                    "duration": 0.6693552291666691
                },
                {
                    "name": "E4",
                    "midi": 64,
                    "time": 43.741960999999925,
                    "velocity": 0.30708661417322836,
                    "duration": 0.6693552291666691
                },
                {
                    "name": "G#4",
                    "midi": 68,
                    "time": 43.741960999999925,
                    "velocity": 0.3700787401574803,
                    "duration": 0.6693552291666691
                },
                {
                    "name": "G#4",
                    "midi": 68,
                    "time": 44.41938074999993,
                    "velocity": 0.30708661417322836,
                    "duration": 0.09677425000000284
                },
                {
                    "name": "A4",
                    "midi": 69,
                    "time": 44.516154999999934,
                    "velocity": 0.3464566929133858,
                    "duration": 0.2903227500000014
                },
                {
                    "name": "E4",
                    "midi": 64,
                    "time": 44.516154999999934,
                    "velocity": 0.30708661417322836,
                    "duration": 0.375000218750003
                },
                {
                    "name": "G#4",
                    "midi": 68,
                    "time": 44.806477749999935,
                    "velocity": 0.3228346456692913,
                    "duration": 0.09677425000000284
                },
                {
                    "name": "E4",
                    "midi": 64,
                    "time": 44.90325199999994,
                    "velocity": 0.30708661417322836,
                    "duration": 0.375000218750003
                },
                {
                    "name": "A4",
                    "midi": 69,
                    "time": 44.90325199999994,
                    "velocity": 0.33858267716535434,
                    "duration": 0.2903227500000014
                },
                {
                    "name": "B4",
                    "midi": 71,
                    "time": 45.19357474999994,
                    "velocity": 0.3228346456692913,
                    "duration": 0.09677425000000284
                },
                {
                    "name": "E4",
                    "midi": 64,
                    "time": 45.29034899999994,
                    "velocity": 0.3700787401574803,
                    "duration": 0.7508068895833304
                },
                {
                    "name": "A3",
                    "midi": 57,
                    "time": 45.29034899999994,
                    "velocity": 0.30708661417322836,
                    "duration": 0.7508068895833304
                },
                {
                    "name": "A3",
                    "midi": 57,
                    "time": 46.06454299999994,
                    "velocity": 0.30708661417322836,
                    "duration": 0.6693552291666691
                },
                {
                    "name": "E4",
                    "midi": 64,
                    "time": 46.06454299999994,
                    "velocity": 0.3700787401574803,
                    "duration": 0.6693552291666691
                },
                {
                    "name": "A2",
                    "midi": 45,
                    "time": 46.74196274999994,
                    "velocity": 0.47244094488188976,
                    "duration": 0.048387124999997866
                },
                {
                    "name": "A2",
                    "midi": 45,
                    "time": 46.83873699999994,
                    "velocity": 0.5039370078740157,
                    "duration": 0.09677425000000284
                },
                {
                    "name": "A2",
                    "midi": 45,
                    "time": 47.12905974999994,
                    "velocity": 0.4645669291338583,
                    "duration": 0.048387124999997866
                },
                {
                    "name": "G2",
                    "midi": 43,
                    "time": 47.225833999999935,
                    "velocity": 0.5039370078740157,
                    "duration": 0.09677425000000284
                },
                {
                    "name": "A2",
                    "midi": 45,
                    "time": 47.516156749999936,
                    "velocity": 0.47244094488188976,
                    "duration": 0.048387124999997866
                },
                {
                    "name": "A#1",
                    "midi": 34,
                    "time": 47.61293099999993,
                    "velocity": 0.44881889763779526,
                    "duration": 0.7508068895833304
                },
                {
                    "name": "A#2",
                    "midi": 46,
                    "time": 47.61293099999993,
                    "velocity": 0.5354330708661418,
                    "duration": 0.7508068895833304
                },
                {
                    "name": "A#1",
                    "midi": 34,
                    "time": 48.387124999999926,
                    "velocity": 0.44881889763779526,
                    "duration": 0.6572584479166679
                },
                {
                    "name": "A#2",
                    "midi": 46,
                    "time": 48.387124999999926,
                    "velocity": 0.5354330708661418,
                    "duration": 0.6572584479166679
                },
                {
                    "name": "A3",
                    "midi": 57,
                    "time": 49.064544749999925,
                    "velocity": 0.47244094488188976,
                    "duration": 0.048387124999997866
                },
                {
                    "name": "A3",
                    "midi": 57,
                    "time": 49.16131899999992,
                    "velocity": 0.5039370078740157,
                    "duration": 0.09677425000000284
                },
                {
                    "name": "A3",
                    "midi": 57,
                    "time": 49.45164174999992,
                    "velocity": 0.4645669291338583,
                    "duration": 0.048387124999997866
                },
                {
                    "name": "G3",
                    "midi": 55,
                    "time": 49.54841599999992,
                    "velocity": 0.5039370078740157,
                    "duration": 0.09677425000000284
                },
                {
                    "name": "A3",
                    "midi": 57,
                    "time": 49.83873874999992,
                    "velocity": 0.47244094488188976,
                    "duration": 0.048387124999997866
                },
                {
                    "name": "F3",
                    "midi": 53,
                    "time": 49.935512999999915,
                    "velocity": 0.44881889763779526,
                    "duration": 0.7741939999999943
                },
                {
                    "name": "A#2",
                    "midi": 46,
                    "time": 49.935512999999915,
                    "velocity": 0.44881889763779526,
                    "duration": 0.7508068895833304
                },
                {
                    "name": "A#3",
                    "midi": 58,
                    "time": 49.935512999999915,
                    "velocity": 0.5354330708661418,
                    "duration": 0.7508068895833304
                },
                {
                    "name": "F3",
                    "midi": 53,
                    "time": 50.70970699999991,
                    "velocity": 0.44881889763779526,
                    "duration": 0.6572584479166679
                },
                {
                    "name": "A#2",
                    "midi": 46,
                    "time": 50.70970699999991,
                    "velocity": 0.44881889763779526,
                    "duration": 0.6572584479166679
                },
                {
                    "name": "A#3",
                    "midi": 58,
                    "time": 50.70970699999991,
                    "velocity": 0.5354330708661418,
                    "duration": 0.6572584479166679
                },
                {
                    "name": "D4",
                    "midi": 62,
                    "time": 51.38712674999991,
                    "velocity": 0.4015748031496063,
                    "duration": 0.048387124999997866
                },
                {
                    "name": "F4",
                    "midi": 65,
                    "time": 51.38712674999991,
                    "velocity": 0.47244094488188976,
                    "duration": 0.048387124999997866
                },
                {
                    "name": "D4",
                    "midi": 62,
                    "time": 51.4839009999999,
                    "velocity": 0.4251968503937008,
                    "duration": 0.09677425000000284
                },
                {
                    "name": "F4",
                    "midi": 65,
                    "time": 51.4839009999999,
                    "velocity": 0.5039370078740157,
                    "duration": 0.09677425000000284
                },
                {
                    "name": "D4",
                    "midi": 62,
                    "time": 51.774223749999905,
                    "velocity": 0.3937007874015748,
                    "duration": 0.048387124999997866
                },
                {
                    "name": "F4",
                    "midi": 65,
                    "time": 51.774223749999905,
                    "velocity": 0.4645669291338583,
                    "duration": 0.048387124999997866
                },
                {
                    "name": "C#4",
                    "midi": 61,
                    "time": 51.8709979999999,
                    "velocity": 0.4251968503937008,
                    "duration": 0.09677425000000284
                },
                {
                    "name": "E4",
                    "midi": 64,
                    "time": 51.8709979999999,
                    "velocity": 0.5039370078740157,
                    "duration": 0.09677425000000284
                },
                {
                    "name": "D4",
                    "midi": 62,
                    "time": 52.1613207499999,
                    "velocity": 0.4015748031496063,
                    "duration": 0.048387124999997866
                },
                {
                    "name": "F4",
                    "midi": 65,
                    "time": 52.1613207499999,
                    "velocity": 0.47244094488188976,
                    "duration": 0.048387124999997866
                },
                {
                    "name": "A#3",
                    "midi": 58,
                    "time": 52.2580949999999,
                    "velocity": 0.4251968503937008,
                    "duration": 0.09677425000000284
                },
                {
                    "name": "D4",
                    "midi": 62,
                    "time": 52.2580949999999,
                    "velocity": 0.5039370078740157,
                    "duration": 0.09677425000000284
                },
                {
                    "name": "A#3",
                    "midi": 58,
                    "time": 52.5484177499999,
                    "velocity": 0.3937007874015748,
                    "duration": 0.048387124999997866
                },
                {
                    "name": "D4",
                    "midi": 62,
                    "time": 52.5484177499999,
                    "velocity": 0.4645669291338583,
                    "duration": 0.048387124999997866
                },
                {
                    "name": "A3",
                    "midi": 57,
                    "time": 52.645191999999895,
                    "velocity": 0.4251968503937008,
                    "duration": 0.09677425000000284
                },
                {
                    "name": "C#4",
                    "midi": 61,
                    "time": 52.645191999999895,
                    "velocity": 0.5039370078740157,
                    "duration": 0.09677425000000284
                },
                {
                    "name": "A#3",
                    "midi": 58,
                    "time": 52.935514749999896,
                    "velocity": 0.4015748031496063,
                    "duration": 0.048387124999997866
                },
                {
                    "name": "D4",
                    "midi": 62,
                    "time": 52.935514749999896,
                    "velocity": 0.47244094488188976,
                    "duration": 0.048387124999997866
                },
                {
                    "name": "G3",
                    "midi": 55,
                    "time": 53.03228899999989,
                    "velocity": 0.4251968503937008,
                    "duration": 0.09677425000000284
                },
                {
                    "name": "A#3",
                    "midi": 58,
                    "time": 53.03228899999989,
                    "velocity": 0.5039370078740157,
                    "duration": 0.09677425000000284
                },
                {
                    "name": "A#3",
                    "midi": 58,
                    "time": 53.32261174999989,
                    "velocity": 0.4645669291338583,
                    "duration": 0.048387124999997866
                },
                {
                    "name": "G3",
                    "midi": 55,
                    "time": 53.32261174999989,
                    "velocity": 0.3937007874015748,
                    "duration": 0.048387124999997866
                },
                {
                    "name": "A3",
                    "midi": 57,
                    "time": 53.41938599999989,
                    "velocity": 0.5039370078740157,
                    "duration": 0.09677425000000284
                },
                {
                    "name": "F#3",
                    "midi": 54,
                    "time": 53.41938599999989,
                    "velocity": 0.4251968503937008,
                    "duration": 0.09677425000000284
                },
                {
                    "name": "A#3",
                    "midi": 58,
                    "time": 53.70970874999989,
                    "velocity": 0.47244094488188976,
                    "duration": 0.048387124999997866
                },
                {
                    "name": "G3",
                    "midi": 55,
                    "time": 53.70970874999989,
                    "velocity": 0.4015748031496063,
                    "duration": 0.048387124999997866
                },
                {
                    "name": "D#3",
                    "midi": 51,
                    "time": 53.806482999999886,
                    "velocity": 0.44881889763779526,
                    "duration": 0.7741939999999943
                },
                {
                    "name": "G3",
                    "midi": 55,
                    "time": 53.806482999999886,
                    "velocity": 0.5354330708661418,
                    "duration": 0.7508068895833304
                },
                {
                    "name": "D2",
                    "midi": 38,
                    "time": 54.58067699999988,
                    "velocity": 0.44881889763779526,
                    "duration": 0.7661294791666649
                },
                {
                    "name": "D3",
                    "midi": 50,
                    "time": 54.58067699999988,
                    "velocity": 0.5354330708661418,
                    "duration": 0.7661294791666649
                },
                {
                    "name": "C2",
                    "midi": 36,
                    "time": 55.35487099999988,
                    "velocity": 0.44881889763779526,
                    "duration": 0.7661294791666649
                },
                {
                    "name": "C3",
                    "midi": 48,
                    "time": 55.35487099999988,
                    "velocity": 0.5354330708661418,
                    "duration": 0.7661294791666649
                },
                {
                    "name": "F2",
                    "midi": 41,
                    "time": 56.12906499999988,
                    "velocity": 0.44881889763779526,
                    "duration": 0.09677425000000284
                },
                {
                    "name": "F3",
                    "midi": 53,
                    "time": 56.12906499999988,
                    "velocity": 0.5354330708661418,
                    "duration": 0.09677425000000284
                },
                {
                    "name": "F2",
                    "midi": 41,
                    "time": 56.51616199999989,
                    "velocity": 0.44881889763779526,
                    "duration": 0.09677425000000284
                },
                {
                    "name": "F3",
                    "midi": 53,
                    "time": 56.51616199999989,
                    "velocity": 0.5354330708661418,
                    "duration": 0.09677425000000284
                },
                {
                    "name": "A#1",
                    "midi": 34,
                    "time": 56.90325899999989,
                    "velocity": 0.44881889763779526,
                    "duration": 0.7661294791666649
                },
                {
                    "name": "A#2",
                    "midi": 46,
                    "time": 56.90325899999989,
                    "velocity": 0.5354330708661418,
                    "duration": 0.7661294791666649
                },
                {
                    "name": "A#2",
                    "midi": 46,
                    "time": 57.67745299999989,
                    "velocity": 0.44881889763779526,
                    "duration": 0.6572584479166679
                },
                {
                    "name": "F3",
                    "midi": 53,
                    "time": 57.67745299999989,
                    "velocity": 0.5354330708661418,
                    "duration": 0.6572584479166679
                },
                {
                    "name": "A#2",
                    "midi": 46,
                    "time": 59.225840999999896,
                    "velocity": 0.4330708661417323,
                    "duration": 0.19354849999999857
                },
                {
                    "name": "F3",
                    "midi": 53,
                    "time": 59.61293799999989,
                    "velocity": 0.33070866141732286,
                    "duration": 0.19354849999999857
                },
                {
                    "name": "D4",
                    "midi": 62,
                    "time": 60.00003499999989,
                    "velocity": 0.33070866141732286,
                    "duration": 0.19354849999999857
                },
                {
                    "name": "A#3",
                    "midi": 58,
                    "time": 60.00003499999989,
                    "velocity": 0.2755905511811024,
                    "duration": 0.19354849999999857
                },
                {
                    "name": "A#2",
                    "midi": 46,
                    "time": 60.38713199999989,
                    "velocity": 0.4330708661417323,
                    "duration": 0.19354849999999857
                },
                {
                    "name": "F3",
                    "midi": 53,
                    "time": 60.774228999999885,
                    "velocity": 0.33070866141732286,
                    "duration": 0.19354849999999857
                },
                {
                    "name": "A#3",
                    "midi": 58,
                    "time": 61.16132599999988,
                    "velocity": 0.2755905511811024,
                    "duration": 0.19354849999999857
                },
                {
                    "name": "D4",
                    "midi": 62,
                    "time": 61.16132599999988,
                    "velocity": 0.33070866141732286,
                    "duration": 0.19354849999999857
                },
                {
                    "name": "A2",
                    "midi": 45,
                    "time": 61.54842299999988,
                    "velocity": 0.4330708661417323,
                    "duration": 0.19354849999999857
                },
                {
                    "name": "F3",
                    "midi": 53,
                    "time": 61.935519999999876,
                    "velocity": 0.33070866141732286,
                    "duration": 0.19354849999999857
                },
                {
                    "name": "D#4",
                    "midi": 63,
                    "time": 62.32261699999987,
                    "velocity": 0.33070866141732286,
                    "duration": 0.19354849999999857
                },
                {
                    "name": "C4",
                    "midi": 60,
                    "time": 62.32261699999987,
                    "velocity": 0.2755905511811024,
                    "duration": 0.19354849999999857
                },
                {
                    "name": "A2",
                    "midi": 45,
                    "time": 62.70971399999987,
                    "velocity": 0.4330708661417323,
                    "duration": 0.19354849999999857
                },
                {
                    "name": "F3",
                    "midi": 53,
                    "time": 63.09681099999987,
                    "velocity": 0.33070866141732286,
                    "duration": 0.19354849999999857
                },
                {
                    "name": "C4",
                    "midi": 60,
                    "time": 63.483907999999865,
                    "velocity": 0.2755905511811024,
                    "duration": 0.19354849999999857
                },
                {
                    "name": "D#4",
                    "midi": 63,
                    "time": 63.483907999999865,
                    "velocity": 0.33070866141732286,
                    "duration": 0.19354849999999857
                },
                {
                    "name": "F2",
                    "midi": 41,
                    "time": 63.87100499999986,
                    "velocity": 0.4330708661417323,
                    "duration": 0.19354849999999857
                },
                {
                    "name": "F3",
                    "midi": 53,
                    "time": 64.25810199999987,
                    "velocity": 0.33070866141732286,
                    "duration": 0.19354850000000567
                },
                {
                    "name": "D#4",
                    "midi": 63,
                    "time": 64.64519899999988,
                    "velocity": 0.33070866141732286,
                    "duration": 0.19354850000000567
                },
                {
                    "name": "C4",
                    "midi": 60,
                    "time": 64.64519899999988,
                    "velocity": 0.2755905511811024,
                    "duration": 0.19354850000000567
                },
                {
                    "name": "F2",
                    "midi": 41,
                    "time": 65.03229599999989,
                    "velocity": 0.4330708661417323,
                    "duration": 0.19354850000000567
                },
                {
                    "name": "F3",
                    "midi": 53,
                    "time": 65.4193929999999,
                    "velocity": 0.33070866141732286,
                    "duration": 0.19354850000000567
                },
                {
                    "name": "C4",
                    "midi": 60,
                    "time": 65.80648999999991,
                    "velocity": 0.2755905511811024,
                    "duration": 0.19354850000000567
                },
                {
                    "name": "D#4",
                    "midi": 63,
                    "time": 65.80648999999991,
                    "velocity": 0.33070866141732286,
                    "duration": 0.19354850000000567
                },
                {
                    "name": "A#2",
                    "midi": 46,
                    "time": 66.19358699999992,
                    "velocity": 0.3858267716535433,
                    "duration": 0.19354850000000567
                },
                {
                    "name": "F3",
                    "midi": 53,
                    "time": 66.58068399999993,
                    "velocity": 0.29133858267716534,
                    "duration": 0.19354850000000567
                },
                {
                    "name": "D4",
                    "midi": 62,
                    "time": 66.96778099999995,
                    "velocity": 0.29133858267716534,
                    "duration": 0.19354850000000567
                },
                {
                    "name": "A#3",
                    "midi": 58,
                    "time": 66.96778099999995,
                    "velocity": 0.2440944881889764,
                    "duration": 0.19354850000000567
                },
                {
                    "name": "A#2",
                    "midi": 46,
                    "time": 67.35487799999996,
                    "velocity": 0.4330708661417323,
                    "duration": 0.19354850000000567
                },
                {
                    "name": "F3",
                    "midi": 53,
                    "time": 67.74197499999997,
                    "velocity": 0.29133858267716534,
                    "duration": 0.19354850000000567
                },
                {
                    "name": "D4",
                    "midi": 62,
                    "time": 68.12907199999998,
                    "velocity": 0.2992125984251969,
                    "duration": 0.19354850000000567
                },
                {
                    "name": "A#3",
                    "midi": 58,
                    "time": 68.12907199999998,
                    "velocity": 0.25196850393700787,
                    "duration": 0.19354850000000567
                },
                {
                    "name": "G2",
                    "midi": 43,
                    "time": 68.51616899999999,
                    "velocity": 0.47244094488188976,
                    "duration": 0.19354850000000567
                },
                {
                    "name": "G3",
                    "midi": 55,
                    "time": 68.903266,
                    "velocity": 0.36220472440944884,
                    "duration": 0.19354850000000567
                },
                {
                    "name": "D4",
                    "midi": 62,
                    "time": 69.29036300000001,
                    "velocity": 0.36220472440944884,
                    "duration": 0.19354850000000567
                },
                {
                    "name": "A#3",
                    "midi": 58,
                    "time": 69.29036300000001,
                    "velocity": 0.2992125984251969,
                    "duration": 0.19354850000000567
                },
                {
                    "name": "G2",
                    "midi": 43,
                    "time": 69.67746000000002,
                    "velocity": 0.4330708661417323,
                    "duration": 0.19354850000000567
                },
                {
                    "name": "G3",
                    "midi": 55,
                    "time": 70.06455700000004,
                    "velocity": 0.36220472440944884,
                    "duration": 0.19354850000000567
                },
                {
                    "name": "A#3",
                    "midi": 58,
                    "time": 70.45165400000005,
                    "velocity": 0.29133858267716534,
                    "duration": 0.19354850000000567
                },
                {
                    "name": "D4",
                    "midi": 62,
                    "time": 70.45165400000005,
                    "velocity": 0.3543307086614173,
                    "duration": 0.19354850000000567
                },
                {
                    "name": "A#2",
                    "midi": 46,
                    "time": 70.83875100000006,
                    "velocity": 0.4330708661417323,
                    "duration": 0.19354850000000567
                },
                {
                    "name": "F3",
                    "midi": 53,
                    "time": 71.22584800000007,
                    "velocity": 0.33070866141732286,
                    "duration": 0.19354850000000567
                },
                {
                    "name": "D4",
                    "midi": 62,
                    "time": 71.61294500000008,
                    "velocity": 0.33070866141732286,
                    "duration": 0.19354850000000567
                },
                {
                    "name": "A#3",
                    "midi": 58,
                    "time": 71.61294500000008,
                    "velocity": 0.2755905511811024,
                    "duration": 0.19354850000000567
                },
                {
                    "name": "A#2",
                    "midi": 46,
                    "time": 72.0000420000001,
                    "velocity": 0.4330708661417323,
                    "duration": 0.19354850000000567
                },
                {
                    "name": "F3",
                    "midi": 53,
                    "time": 72.3871390000001,
                    "velocity": 0.33070866141732286,
                    "duration": 0.19354850000000567
                },
                {
                    "name": "D4",
                    "midi": 62,
                    "time": 72.77423600000012,
                    "velocity": 0.33070866141732286,
                    "duration": 0.19354850000000567
                },
                {
                    "name": "A#3",
                    "midi": 58,
                    "time": 72.77423600000012,
                    "velocity": 0.2755905511811024,
                    "duration": 0.19354850000000567
                },
                {
                    "name": "F2",
                    "midi": 41,
                    "time": 73.16133300000013,
                    "velocity": 0.4330708661417323,
                    "duration": 0.19354850000000567
                },
                {
                    "name": "F3",
                    "midi": 53,
                    "time": 73.54843000000014,
                    "velocity": 0.33070866141732286,
                    "duration": 0.19354850000000567
                },
                {
                    "name": "C4",
                    "midi": 60,
                    "time": 73.93552700000015,
                    "velocity": 0.25984251968503935,
                    "duration": 0.19354850000000567
                },
                {
                    "name": "D#4",
                    "midi": 63,
                    "time": 73.93552700000015,
                    "velocity": 0.30708661417322836,
                    "duration": 0.19354850000000567
                },
                {
                    "name": "F2",
                    "midi": 41,
                    "time": 74.32262400000016,
                    "velocity": 0.4094488188976378,
                    "duration": 0.19354850000000567
                },
                {
                    "name": "F3",
                    "midi": 53,
                    "time": 74.70972100000017,
                    "velocity": 0.30708661417322836,
                    "duration": 0.19354850000000567
                },
                {
                    "name": "D#4",
                    "midi": 63,
                    "time": 75.09681800000018,
                    "velocity": 0.30708661417322836,
                    "duration": 0.19354850000000567
                },
                {
                    "name": "C4",
                    "midi": 60,
                    "time": 75.09681800000018,
                    "velocity": 0.25984251968503935,
                    "duration": 0.19354850000000567
                },
                {
                    "name": "A#2",
                    "midi": 46,
                    "time": 75.4839150000002,
                    "velocity": 0.3464566929133858,
                    "duration": 0.19354850000000567
                },
                {
                    "name": "D3",
                    "midi": 50,
                    "time": 75.8710120000002,
                    "velocity": 0.25984251968503935,
                    "duration": 0.19354850000000567
                },
                {
                    "name": "A#3",
                    "midi": 58,
                    "time": 76.25810900000022,
                    "velocity": 0.25984251968503935,
                    "duration": 0.19354850000000567
                },
                {
                    "name": "F3",
                    "midi": 53,
                    "time": 76.25810900000022,
                    "velocity": 0.2125984251968504,
                    "duration": 0.19354850000000567
                },
                {
                    "name": "F2",
                    "midi": 41,
                    "time": 76.64520600000023,
                    "velocity": 0.3858267716535433,
                    "duration": 0.19354850000000567
                },
                {
                    "name": "D#3",
                    "midi": 51,
                    "time": 77.03230300000024,
                    "velocity": 0.2755905511811024,
                    "duration": 0.19354850000000567
                },
                {
                    "name": "A3",
                    "midi": 57,
                    "time": 77.41940000000025,
                    "velocity": 0.2755905511811024,
                    "duration": 0.19354850000000567
                },
                {
                    "name": "F3",
                    "midi": 53,
                    "time": 77.41940000000025,
                    "velocity": 0.2283464566929134,
                    "duration": 0.19354850000000567
                },
                {
                    "name": "A#2",
                    "midi": 46,
                    "time": 77.80649700000026,
                    "velocity": 0.3228346456692913,
                    "duration": 0.19354850000000567
                },
                {
                    "name": "D3",
                    "midi": 50,
                    "time": 78.19359400000027,
                    "velocity": 0.2440944881889764,
                    "duration": 0.19354850000000567
                },
                {
                    "name": "A#3",
                    "midi": 58,
                    "time": 78.58069100000029,
                    "velocity": 0.2440944881889764,
                    "duration": 0.19354850000000567
                },
                {
                    "name": "F3",
                    "midi": 53,
                    "time": 78.58069100000029,
                    "velocity": 0.1968503937007874,
                    "duration": 0.19354850000000567
                },
                {
                    "name": "F2",
                    "midi": 41,
                    "time": 78.9677880000003,
                    "velocity": 0.36220472440944884,
                    "duration": 0.19354850000000567
                },
                {
                    "name": "D#3",
                    "midi": 51,
                    "time": 79.35488500000031,
                    "velocity": 0.2440944881889764,
                    "duration": 0.19354850000000567
                },
                {
                    "name": "A3",
                    "midi": 57,
                    "time": 79.74198200000032,
                    "velocity": 0.23622047244094488,
                    "duration": 0.19354850000000567
                },
                {
                    "name": "F3",
                    "midi": 53,
                    "time": 79.74198200000032,
                    "velocity": 0.1968503937007874,
                    "duration": 0.19354850000000567
                },
                {
                    "name": "A#2",
                    "midi": 46,
                    "time": 80.12907900000033,
                    "velocity": 0.2677165354330709,
                    "duration": 0.282258229166672
                },
                {
                    "name": "A#1",
                    "midi": 34,
                    "time": 80.41940175000033,
                    "velocity": 0.47244094488188976,
                    "duration": 0.04838712500000497
                },
                {
                    "name": "A#1",
                    "midi": 34,
                    "time": 80.51617600000034,
                    "velocity": 0.5039370078740157,
                    "duration": 0.09677424999999573
                },
                {
                    "name": "A#1",
                    "midi": 34,
                    "time": 80.80649875000034,
                    "velocity": 0.4645669291338583,
                    "duration": 0.04838712500000497
                },
                {
                    "name": "A#1",
                    "midi": 34,
                    "time": 80.90327300000035,
                    "velocity": 0.5039370078740157,
                    "duration": 0.09677424999999573
                },
                {
                    "name": "C2",
                    "midi": 36,
                    "time": 81.19359575000036,
                    "velocity": 0.47244094488188976,
                    "duration": 0.04838712500000497
                },
                {
                    "name": "D2",
                    "midi": 38,
                    "time": 81.29037000000037,
                    "velocity": 0.5275590551181102,
                    "duration": 0.282258229166672
                },
                {
                    "name": "D2",
                    "midi": 38,
                    "time": 81.58069275000037,
                    "velocity": 0.47244094488188976,
                    "duration": 0.04838712500000497
                },
                {
                    "name": "D2",
                    "midi": 38,
                    "time": 81.67746700000038,
                    "velocity": 0.5039370078740157,
                    "duration": 0.09677424999999573
                },
                {
                    "name": "D2",
                    "midi": 38,
                    "time": 81.96778975000038,
                    "velocity": 0.4645669291338583,
                    "duration": 0.04838712500000497
                },
                {
                    "name": "D2",
                    "midi": 38,
                    "time": 82.06456400000039,
                    "velocity": 0.5039370078740157,
                    "duration": 0.09677424999999573
                },
                {
                    "name": "E2",
                    "midi": 40,
                    "time": 82.35488675000039,
                    "velocity": 0.47244094488188976,
                    "duration": 0.04838712500000497
                },
                {
                    "name": "F2",
                    "midi": 41,
                    "time": 82.4516610000004,
                    "velocity": 0.5748031496062992,
                    "duration": 0.282258229166672
                },
                {
                    "name": "F2",
                    "midi": 41,
                    "time": 82.7419837500004,
                    "velocity": 0.5196850393700787,
                    "duration": 0.04838712500000497
                },
                {
                    "name": "F2",
                    "midi": 41,
                    "time": 82.83875800000041,
                    "velocity": 0.5511811023622047,
                    "duration": 0.09677424999999573
                },
                {
                    "name": "F2",
                    "midi": 41,
                    "time": 83.12908075000041,
                    "velocity": 0.5039370078740157,
                    "duration": 0.04838712500000497
                },
                {
                    "name": "F2",
                    "midi": 41,
                    "time": 83.22585500000042,
                    "velocity": 0.5511811023622047,
                    "duration": 0.09677424999999573
                },
                {
                    "name": "G2",
                    "midi": 43,
                    "time": 83.51617775000042,
                    "velocity": 0.5196850393700787,
                    "duration": 0.04838712500000497
                },
                {
                    "name": "A2",
                    "midi": 45,
                    "time": 83.61295200000043,
                    "velocity": 0.6299212598425197,
                    "duration": 0.282258229166672
                },
                {
                    "name": "A1",
                    "midi": 33,
                    "time": 83.90327475000043,
                    "velocity": 0.4094488188976378,
                    "duration": 0.04838712500000497
                },
                {
                    "name": "A2",
                    "midi": 45,
                    "time": 83.90327475000043,
                    "velocity": 0.48031496062992124,
                    "duration": 0.04838712500000497
                },
                {
                    "name": "A1",
                    "midi": 33,
                    "time": 84.00004900000044,
                    "velocity": 0.4330708661417323,
                    "duration": 0.09677424999999573
                },
                {
                    "name": "A2",
                    "midi": 45,
                    "time": 84.00004900000044,
                    "velocity": 0.5118110236220472,
                    "duration": 0.09677424999999573
                },
                {
                    "name": "B1",
                    "midi": 35,
                    "time": 84.29037175000045,
                    "velocity": 0.4094488188976378,
                    "duration": 0.04838712500000497
                },
                {
                    "name": "B2",
                    "midi": 47,
                    "time": 84.29037175000045,
                    "velocity": 0.48031496062992124,
                    "duration": 0.04838712500000497
                },
                {
                    "name": "C#2",
                    "midi": 37,
                    "time": 84.38714600000046,
                    "velocity": 0.44881889763779526,
                    "duration": 0.09677424999999573
                },
                {
                    "name": "C#3",
                    "midi": 49,
                    "time": 84.38714600000046,
                    "velocity": 0.5275590551181102,
                    "duration": 0.09677424999999573
                },
                {
                    "name": "D2",
                    "midi": 38,
                    "time": 84.67746875000046,
                    "velocity": 0.4330708661417323,
                    "duration": 0.04838712500000497
                },
                {
                    "name": "D3",
                    "midi": 50,
                    "time": 84.67746875000046,
                    "velocity": 0.5118110236220472,
                    "duration": 0.04838712500000497
                },
                {
                    "name": "A2",
                    "midi": 45,
                    "time": 84.77424300000047,
                    "velocity": 0.4566929133858268,
                    "duration": 0.7741939999999943
                },
                {
                    "name": "E2",
                    "midi": 40,
                    "time": 84.77424300000047,
                    "velocity": 0.4566929133858268,
                    "duration": 0.7508068895833304
                },
                {
                    "name": "C#3",
                    "midi": 49,
                    "time": 84.77424300000047,
                    "velocity": 0.4566929133858268,
                    "duration": 0.7508068895833304
                },
                {
                    "name": "E3",
                    "midi": 52,
                    "time": 84.77424300000047,
                    "velocity": 0.5511811023622047,
                    "duration": 0.7508068895833304
                },
                {
                    "name": "A2",
                    "midi": 45,
                    "time": 85.54843700000046,
                    "velocity": 0.4566929133858268,
                    "duration": 0.6572584479166608
                },
                {
                    "name": "E2",
                    "midi": 40,
                    "time": 85.54843700000046,
                    "velocity": 0.4566929133858268,
                    "duration": 0.6572584479166608
                },
                {
                    "name": "C#3",
                    "midi": 49,
                    "time": 85.54843700000046,
                    "velocity": 0.4566929133858268,
                    "duration": 0.6572584479166608
                },
                {
                    "name": "E3",
                    "midi": 52,
                    "time": 85.54843700000046,
                    "velocity": 0.5511811023622047,
                    "duration": 0.6572584479166608
                },
                {
                    "name": "E2",
                    "midi": 40,
                    "time": 86.22585675000046,
                    "velocity": 0.4409448818897638,
                    "duration": 0.09677424999999573
                },
                {
                    "name": "E3",
                    "midi": 52,
                    "time": 86.22585675000046,
                    "velocity": 0.5196850393700787,
                    "duration": 0.09677424999999573
                },
                {
                    "name": "E2",
                    "midi": 40,
                    "time": 86.32263100000046,
                    "velocity": 0.4566929133858268,
                    "duration": 0.26774209166666196
                },
                {
                    "name": "E3",
                    "midi": 52,
                    "time": 86.32263100000046,
                    "velocity": 0.5433070866141733,
                    "duration": 0.26774209166666196
                },
                {
                    "name": "D2",
                    "midi": 38,
                    "time": 86.61295375000046,
                    "velocity": 0.4330708661417323,
                    "duration": 0.09677424999999573
                },
                {
                    "name": "D3",
                    "midi": 50,
                    "time": 86.61295375000046,
                    "velocity": 0.5118110236220472,
                    "duration": 0.09677424999999573
                },
                {
                    "name": "C#2",
                    "midi": 37,
                    "time": 86.70972800000045,
                    "velocity": 0.47244094488188976,
                    "duration": 0.26774209166666196
                },
                {
                    "name": "C#3",
                    "midi": 49,
                    "time": 86.70972800000045,
                    "velocity": 0.5669291338582677,
                    "duration": 0.26774209166666196
                },
                {
                    "name": "B1",
                    "midi": 35,
                    "time": 87.00005075000045,
                    "velocity": 0.4881889763779528,
                    "duration": 0.09677424999999573
                },
                {
                    "name": "B2",
                    "midi": 47,
                    "time": 87.00005075000045,
                    "velocity": 0.5826771653543307,
                    "duration": 0.09677424999999573
                },
                {
                    "name": "A1",
                    "midi": 33,
                    "time": 87.09682500000045,
                    "velocity": 0.5118110236220472,
                    "duration": 0.7508068895833304
                },
                {
                    "name": "A2",
                    "midi": 45,
                    "time": 87.09682500000045,
                    "velocity": 0.5826771653543307,
                    "duration": 0.7508068895833304
                },
                {
                    "name": "E2",
                    "midi": 40,
                    "time": 87.87101900000044,
                    "velocity": 0.5118110236220472,
                    "duration": 0.6612907083333397
                },
                {
                    "name": "A1",
                    "midi": 33,
                    "time": 87.87101900000044,
                    "velocity": 0.5118110236220472,
                    "duration": 0.6612907083333397
                },
                {
                    "name": "A2",
                    "midi": 45,
                    "time": 87.87101900000044,
                    "velocity": 0.5826771653543307,
                    "duration": 0.6612907083333397
                },
                {
                    "name": "A2",
                    "midi": 45,
                    "time": 88.54843875000046,
                    "velocity": 0.3779527559055118,
                    "duration": 0.04838712500000497
                },
                {
                    "name": "B2",
                    "midi": 47,
                    "time": 88.64521300000047,
                    "velocity": 0.4015748031496063,
                    "duration": 0.09677424999999573
                },
                {
                    "name": "A2",
                    "midi": 45,
                    "time": 88.93553575000047,
                    "velocity": 0.3700787401574803,
                    "duration": 0.04838712500000497
                },
                {
                    "name": "B2",
                    "midi": 47,
                    "time": 89.03231000000048,
                    "velocity": 0.4015748031496063,
                    "duration": 0.09677424999999573
                },
                {
                    "name": "C#3",
                    "midi": 49,
                    "time": 89.32263275000048,
                    "velocity": 0.3779527559055118,
                    "duration": 0.04838712500000497
                },
                {
                    "name": "D3",
                    "midi": 50,
                    "time": 89.41940700000049,
                    "velocity": 0.4251968503937008,
                    "duration": 0.7508068895833304
                },
                {
                    "name": "D3",
                    "midi": 50,
                    "time": 90.19360100000048,
                    "velocity": 0.3543307086614173,
                    "duration": 0.6572584479166608
                },
                {
                    "name": "F#3",
                    "midi": 54,
                    "time": 90.19360100000048,
                    "velocity": 0.4251968503937008,
                    "duration": 0.6572584479166608
                },
                {
                    "name": "D3",
                    "midi": 50,
                    "time": 90.87102075000048,
                    "velocity": 0.3464566929133858,
                    "duration": 0.0887097291666663
                },
                {
                    "name": "D3",
                    "midi": 50,
                    "time": 90.96779500000048,
                    "velocity": 0.3937007874015748,
                    "duration": 0.09677424999999573
                },
                {
                    "name": "B2",
                    "midi": 47,
                    "time": 90.96779500000048,
                    "velocity": 0.33070866141732286,
                    "duration": 0.09677424999999573
                },
                {
                    "name": "D3",
                    "midi": 50,
                    "time": 91.25811775000048,
                    "velocity": 0.3700787401574803,
                    "duration": 0.09677425000000994
                },
                {
                    "name": "B2",
                    "midi": 47,
                    "time": 91.25811775000048,
                    "velocity": 0.31496062992125984,
                    "duration": 0.09677425000000994
                },
                {
                    "name": "A#2",
                    "midi": 46,
                    "time": 91.35005328750049,
                    "velocity": 0.3228346456692913,
                    "duration": 0.09677425000000994
                },
                {
                    "name": "D3",
                    "midi": 50,
                    "time": 91.3597307125005,
                    "velocity": 0.3858267716535433,
                    "duration": 0.09677425000000994
                },
                {
                    "name": "A#2",
                    "midi": 46,
                    "time": 91.6452147500005,
                    "velocity": 0.31496062992125984,
                    "duration": 0.09677424999999573
                },
                {
                    "name": "D3",
                    "midi": 50,
                    "time": 91.6452147500005,
                    "velocity": 0.3700787401574803,
                    "duration": 0.09677424999999573
                },
                {
                    "name": "A2",
                    "midi": 45,
                    "time": 91.7419890000005,
                    "velocity": 0.3543307086614173,
                    "duration": 0.7508068895833304
                },
                {
                    "name": "E3",
                    "midi": 52,
                    "time": 91.7419890000005,
                    "velocity": 0.4251968503937008,
                    "duration": 0.7508068895833304
                },
                {
                    "name": "A2",
                    "midi": 45,
                    "time": 92.5161830000005,
                    "velocity": 0.3543307086614173,
                    "duration": 0.6572584479166608
                },
                {
                    "name": "A3",
                    "midi": 57,
                    "time": 92.5161830000005,
                    "velocity": 0.4251968503937008,
                    "duration": 0.6572584479166608
                },
                {
                    "name": "C#3",
                    "midi": 49,
                    "time": 93.1936027500005,
                    "velocity": 0.2755905511811024,
                    "duration": 0.0887097291666663
                },
                {
                    "name": "A3",
                    "midi": 57,
                    "time": 93.1936027500005,
                    "velocity": 0.3464566929133858,
                    "duration": 0.0887097291666663
                },
                {
                    "name": "A3",
                    "midi": 57,
                    "time": 93.29037700000049,
                    "velocity": 0.3937007874015748,
                    "duration": 0.09677424999999573
                },
                {
                    "name": "C#3",
                    "midi": 49,
                    "time": 93.29037700000049,
                    "velocity": 0.33070866141732286,
                    "duration": 0.09677424999999573
                },
                {
                    "name": "A3",
                    "midi": 57,
                    "time": 93.58069975000049,
                    "velocity": 0.3700787401574803,
                    "duration": 0.09677424999999573
                },
                {
                    "name": "C#3",
                    "midi": 49,
                    "time": 93.58069975000049,
                    "velocity": 0.31496062992125984,
                    "duration": 0.09677424999999573
                },
                {
                    "name": "C#3",
                    "midi": 49,
                    "time": 93.67747400000049,
                    "velocity": 0.3228346456692913,
                    "duration": 0.09677424999999573
                },
                {
                    "name": "A3",
                    "midi": 57,
                    "time": 93.67747400000049,
                    "velocity": 0.3858267716535433,
                    "duration": 0.09677424999999573
                },
                {
                    "name": "C#3",
                    "midi": 49,
                    "time": 93.96779675000049,
                    "velocity": 0.31496062992125984,
                    "duration": 0.09677424999999573
                },
                {
                    "name": "A3",
                    "midi": 57,
                    "time": 93.96779675000049,
                    "velocity": 0.3700787401574803,
                    "duration": 0.09677424999999573
                },
                {
                    "name": "F#3",
                    "midi": 54,
                    "time": 94.06457100000048,
                    "velocity": 0.3543307086614173,
                    "duration": 0.7741939999999943
                },
                {
                    "name": "B2",
                    "midi": 47,
                    "time": 94.06457100000048,
                    "velocity": 0.3543307086614173,
                    "duration": 0.7508068895833304
                },
                {
                    "name": "B3",
                    "midi": 59,
                    "time": 94.06457100000048,
                    "velocity": 0.4251968503937008,
                    "duration": 0.7508068895833304
                },
                {
                    "name": "D3",
                    "midi": 50,
                    "time": 94.83876500000048,
                    "velocity": 0.3543307086614173,
                    "duration": 0.6572584479166608
                },
                {
                    "name": "B3",
                    "midi": 59,
                    "time": 94.83876500000048,
                    "velocity": 0.4251968503937008,
                    "duration": 0.6572584479166608
                },
                {
                    "name": "E3",
                    "midi": 52,
                    "time": 95.51618475000048,
                    "velocity": 0.2755905511811024,
                    "duration": 0.0887097291666663
                },
                {
                    "name": "B3",
                    "midi": 59,
                    "time": 95.51618475000048,
                    "velocity": 0.3464566929133858,
                    "duration": 0.0887097291666663
                },
                {
                    "name": "B3",
                    "midi": 59,
                    "time": 95.61295900000047,
                    "velocity": 0.3937007874015748,
                    "duration": 0.09677424999999573
                },
                {
                    "name": "E3",
                    "midi": 52,
                    "time": 95.61295900000047,
                    "velocity": 0.33070866141732286,
                    "duration": 0.09677424999999573
                },
                {
                    "name": "B3",
                    "midi": 59,
                    "time": 95.90328175000047,
                    "velocity": 0.3700787401574803,
                    "duration": 0.09677424999999573
                },
                {
                    "name": "E3",
                    "midi": 52,
                    "time": 95.90328175000047,
                    "velocity": 0.31496062992125984,
                    "duration": 0.09677424999999573
                },
                {
                    "name": "E3",
                    "midi": 52,
                    "time": 96.00005600000047,
                    "velocity": 0.3228346456692913,
                    "duration": 0.09677424999999573
                },
                {
                    "name": "B3",
                    "midi": 59,
                    "time": 96.00005600000047,
                    "velocity": 0.3858267716535433,
                    "duration": 0.09677424999999573
                },
                {
                    "name": "E3",
                    "midi": 52,
                    "time": 96.29037875000047,
                    "velocity": 0.31496062992125984,
                    "duration": 0.09677424999999573
                },
                {
                    "name": "B3",
                    "midi": 59,
                    "time": 96.29037875000047,
                    "velocity": 0.3700787401574803,
                    "duration": 0.09677424999999573
                },
                {
                    "name": "E3",
                    "midi": 52,
                    "time": 96.38715300000047,
                    "velocity": 0.3543307086614173,
                    "duration": 0.7741939999999943
                },
                {
                    "name": "A2",
                    "midi": 45,
                    "time": 96.38715300000047,
                    "velocity": 0.3543307086614173,
                    "duration": 0.7508068895833304
                },
                {
                    "name": "A3",
                    "midi": 57,
                    "time": 96.38715300000047,
                    "velocity": 0.4251968503937008,
                    "duration": 0.7508068895833304
                },
                {
                    "name": "A2",
                    "midi": 45,
                    "time": 97.16134700000046,
                    "velocity": 0.3543307086614173,
                    "duration": 0.7661294791666649
                },
                {
                    "name": "E3",
                    "midi": 52,
                    "time": 97.16134700000046,
                    "velocity": 0.3543307086614173,
                    "duration": 0.7661294791666649
                },
                {
                    "name": "A3",
                    "midi": 57,
                    "time": 97.16134700000046,
                    "velocity": 0.4251968503937008,
                    "duration": 0.7661294791666649
                },
                {
                    "name": "D3",
                    "midi": 50,
                    "time": 97.93554100000046,
                    "velocity": 0.3543307086614173,
                    "duration": 0.3758066708333274
                },
                {
                    "name": "C#3",
                    "midi": 49,
                    "time": 98.32263800000045,
                    "velocity": 0.29133858267716534,
                    "duration": 0.3758066708333274
                },
                {
                    "name": "B2",
                    "midi": 47,
                    "time": 98.70973500000045,
                    "velocity": 0.5275590551181102,
                    "duration": 0.12903233333332764
                },
                {
                    "name": "A#2",
                    "midi": 46,
                    "time": 98.83876733333378,
                    "velocity": 0.44881889763779526,
                    "duration": 0.12903233333332764
                },
                {
                    "name": "B2",
                    "midi": 47,
                    "time": 98.9677996666671,
                    "velocity": 0.44881889763779526,
                    "duration": 0.12903233333332764
                },
                {
                    "name": "G2",
                    "midi": 43,
                    "time": 99.09683200000043,
                    "velocity": 0.5354330708661418,
                    "duration": 0.12903233333332764
                },
                {
                    "name": "F#2",
                    "midi": 42,
                    "time": 99.22586433333376,
                    "velocity": 0.48031496062992124,
                    "duration": 0.12903233333332764
                },
                {
                    "name": "G2",
                    "midi": 43,
                    "time": 99.35489666666709,
                    "velocity": 0.5118110236220472,
                    "duration": 0.12903233333332764
                },
                {
                    "name": "E2",
                    "midi": 40,
                    "time": 99.48392900000042,
                    "velocity": 0.5826771653543307,
                    "duration": 0.6774197499999985
                },
                {
                    "name": "F#2",
                    "midi": 42,
                    "time": 100.16134875000041,
                    "velocity": 0.48031496062992124,
                    "duration": 0.09677424999999573
                },
                {
                    "name": "G2",
                    "midi": 43,
                    "time": 100.25812300000041,
                    "velocity": 0.5433070866141733,
                    "duration": 0.2903227500000014
                },
                {
                    "name": "A2",
                    "midi": 45,
                    "time": 100.54844575000041,
                    "velocity": 0.4881889763779528,
                    "duration": 0.09677424999999573
                },
                {
                    "name": "B2",
                    "midi": 47,
                    "time": 100.6452200000004,
                    "velocity": 0.5511811023622047,
                    "duration": 0.2903227500000014
                },
                {
                    "name": "C#3",
                    "midi": 49,
                    "time": 100.93554275000041,
                    "velocity": 0.4881889763779528,
                    "duration": 0.09677424999999573
                },
                {
                    "name": "A2",
                    "midi": 45,
                    "time": 101.0323170000004,
                    "velocity": 0.5433070866141733,
                    "duration": 0.12903233333332764
                },
                {
                    "name": "G#2",
                    "midi": 44,
                    "time": 101.16134933333373,
                    "velocity": 0.49606299212598426,
                    "duration": 0.12903233333332764
                },
                {
                    "name": "A2",
                    "midi": 45,
                    "time": 101.29038166666706,
                    "velocity": 0.4645669291338583,
                    "duration": 0.12903233333332764
                },
                {
                    "name": "F#2",
                    "midi": 42,
                    "time": 101.41941400000039,
                    "velocity": 0.5354330708661418,
                    "duration": 0.12903233333332764
                },
                {
                    "name": "F2",
                    "midi": 41,
                    "time": 101.54844633333371,
                    "velocity": 0.5118110236220472,
                    "duration": 0.12903233333332764
                },
                {
                    "name": "F#2",
                    "midi": 42,
                    "time": 101.67747866666704,
                    "velocity": 0.5433070866141733,
                    "duration": 0.12903233333332764
                },
                {
                    "name": "D2",
                    "midi": 38,
                    "time": 101.80651100000037,
                    "velocity": 0.5826771653543307,
                    "duration": 0.6774197499999985
                },
                {
                    "name": "E2",
                    "midi": 40,
                    "time": 102.48393075000037,
                    "velocity": 0.48031496062992124,
                    "duration": 0.09677424999999573
                },
                {
                    "name": "F#2",
                    "midi": 42,
                    "time": 102.58070500000036,
                    "velocity": 0.5433070866141733,
                    "duration": 0.2903227500000014
                },
                {
                    "name": "G2",
                    "midi": 43,
                    "time": 102.87102775000037,
                    "velocity": 0.4881889763779528,
                    "duration": 0.09677424999999573
                },
                {
                    "name": "A2",
                    "midi": 45,
                    "time": 102.96780200000036,
                    "velocity": 0.5511811023622047,
                    "duration": 0.2903227500000014
                },
                {
                    "name": "B2",
                    "midi": 47,
                    "time": 103.25812475000036,
                    "velocity": 0.4881889763779528,
                    "duration": 0.09677424999999573
                },
                {
                    "name": "G2",
                    "midi": 43,
                    "time": 103.35489900000036,
                    "velocity": 0.5511811023622047,
                    "duration": 0.12903233333332764
                },
                {
                    "name": "F#2",
                    "midi": 42,
                    "time": 103.48393133333369,
                    "velocity": 0.4566929133858268,
                    "duration": 0.12903233333332764
                },
                {
                    "name": "G2",
                    "midi": 43,
                    "time": 103.61296366666701,
                    "velocity": 0.4566929133858268,
                    "duration": 0.12903233333332764
                },
                {
                    "name": "E2",
                    "midi": 40,
                    "time": 103.74199600000034,
                    "velocity": 0.49606299212598426,
                    "duration": 0.12903233333332764
                },
                {
                    "name": "D#2",
                    "midi": 39,
                    "time": 103.87102833333367,
                    "velocity": 0.5118110236220472,
                    "duration": 0.12903233333332764
                },
                {
                    "name": "E2",
                    "midi": 40,
                    "time": 104.000060666667,
                    "velocity": 0.5354330708661418,
                    "duration": 0.12903233333332764
                },
                {
                    "name": "C#2",
                    "midi": 37,
                    "time": 104.12909300000032,
                    "velocity": 0.5669291338582677,
                    "duration": 0.6774197499999985
                },
                {
                    "name": "D2",
                    "midi": 38,
                    "time": 104.80651275000032,
                    "velocity": 0.4645669291338583,
                    "duration": 0.09677424999999573
                },
                {
                    "name": "E2",
                    "midi": 40,
                    "time": 104.90328700000032,
                    "velocity": 0.5748031496062992,
                    "duration": 0.2903227500000014
                },
                {
                    "name": "C#2",
                    "midi": 37,
                    "time": 105.19360975000032,
                    "velocity": 0.44881889763779526,
                    "duration": 0.09677424999999573
                },
                {
                    "name": "F2",
                    "midi": 41,
                    "time": 105.29038400000032,
                    "velocity": 0.5590551181102362,
                    "duration": 0.2903227500000014
                },
                {
                    "name": "C#2",
                    "midi": 37,
                    "time": 105.58070675000032,
                    "velocity": 0.4566929133858268,
                    "duration": 0.09677424999999573
                },
                {
                    "name": "F#2",
                    "midi": 42,
                    "time": 105.67748100000031,
                    "velocity": 0.5590551181102362,
                    "duration": 0.7508068895833304
                },
                {
                    "name": "F#2",
                    "midi": 42,
                    "time": 106.45167500000031,
                    "velocity": 0.5354330708661418,
                    "duration": 0.6572584479166608
                },
                {
                    "name": "A#2",
                    "midi": 46,
                    "time": 107.1290947500003,
                    "velocity": 0.48031496062992124,
                    "duration": 0.04838712500000497
                },
                {
                    "name": "B2",
                    "midi": 47,
                    "time": 107.22586900000032,
                    "velocity": 0.5118110236220472,
                    "duration": 0.09677424999999573
                },
                {
                    "name": "A#2",
                    "midi": 46,
                    "time": 107.51619175000032,
                    "velocity": 0.48031496062992124,
                    "duration": 0.04838712500000497
                },
                {
                    "name": "B2",
                    "midi": 47,
                    "time": 107.61296600000033,
                    "velocity": 0.5275590551181102,
                    "duration": 0.09677424999999573
                },
                {
                    "name": "A#2",
                    "midi": 46,
                    "time": 107.90328875000033,
                    "velocity": 0.5118110236220472,
                    "duration": 0.04838712500000497
                },
                {
                    "name": "G#2",
                    "midi": 44,
                    "time": 108.00006300000034,
                    "velocity": 0.4566929133858268,
                    "duration": 0.7741939999999943
                },
                {
                    "name": "C#3",
                    "midi": 49,
                    "time": 108.00006300000034,
                    "velocity": 0.5511811023622047,
                    "duration": 0.7508068895833304
                },
                {
                    "name": "G#2",
                    "midi": 44,
                    "time": 108.77425700000033,
                    "velocity": 0.4566929133858268,
                    "duration": 0.6572584479166608
                },
                {
                    "name": "C#3",
                    "midi": 49,
                    "time": 108.77425700000033,
                    "velocity": 0.5511811023622047,
                    "duration": 0.6572584479166608
                },
                {
                    "name": "G#2",
                    "midi": 44,
                    "time": 109.45167675000033,
                    "velocity": 0.4409448818897638,
                    "duration": 0.09677424999999573
                },
                {
                    "name": "C#3",
                    "midi": 49,
                    "time": 109.45167675000033,
                    "velocity": 0.5196850393700787,
                    "duration": 0.09677424999999573
                },
                {
                    "name": "A#2",
                    "midi": 46,
                    "time": 109.54845100000033,
                    "velocity": 0.4566929133858268,
                    "duration": 0.26774209166666196
                },
                {
                    "name": "C#3",
                    "midi": 49,
                    "time": 109.54845100000033,
                    "velocity": 0.5433070866141733,
                    "duration": 0.26774209166666196
                },
                {
                    "name": "G#2",
                    "midi": 44,
                    "time": 109.83877375000033,
                    "velocity": 0.4330708661417323,
                    "duration": 0.09677424999999573
                },
                {
                    "name": "C#3",
                    "midi": 49,
                    "time": 109.83877375000033,
                    "velocity": 0.5118110236220472,
                    "duration": 0.09677424999999573
                },
                {
                    "name": "A#2",
                    "midi": 46,
                    "time": 109.93554800000032,
                    "velocity": 0.47244094488188976,
                    "duration": 0.26774209166666196
                },
                {
                    "name": "C#3",
                    "midi": 49,
                    "time": 109.93554800000032,
                    "velocity": 0.5669291338582677,
                    "duration": 0.26774209166666196
                },
                {
                    "name": "G#2",
                    "midi": 44,
                    "time": 110.22587075000033,
                    "velocity": 0.4881889763779528,
                    "duration": 0.09677424999999573
                },
                {
                    "name": "C#3",
                    "midi": 49,
                    "time": 110.22587075000033,
                    "velocity": 0.5826771653543307,
                    "duration": 0.09677424999999573
                },
                {
                    "name": "F#2",
                    "midi": 42,
                    "time": 110.32264500000032,
                    "velocity": 0.5118110236220472,
                    "duration": 0.7508068895833304
                },
                {
                    "name": "C#3",
                    "midi": 49,
                    "time": 110.32264500000032,
                    "velocity": 0.5826771653543307,
                    "duration": 0.7508068895833304
                },
                {
                    "name": "F#2",
                    "midi": 42,
                    "time": 111.09683900000032,
                    "velocity": 0.5118110236220472,
                    "duration": 0.6612907083333397
                },
                {
                    "name": "C#3",
                    "midi": 49,
                    "time": 111.09683900000032,
                    "velocity": 0.5826771653543307,
                    "duration": 0.6612907083333397
                },
                {
                    "name": "A3",
                    "midi": 57,
                    "time": 111.77425875000033,
                    "velocity": 0.3779527559055118,
                    "duration": 0.04838712500000497
                },
                {
                    "name": "A3",
                    "midi": 57,
                    "time": 111.87103300000034,
                    "velocity": 0.4015748031496063,
                    "duration": 0.28145177708333335
                },
                {
                    "name": "A3",
                    "midi": 57,
                    "time": 112.16135575000034,
                    "velocity": 0.3700787401574803,
                    "duration": 0.04838712500000497
                },
                {
                    "name": "B3",
                    "midi": 59,
                    "time": 112.24683967083368,
                    "velocity": 0.4015748031496063,
                    "duration": 0.28145177708333335
                },
                {
                    "name": "C#4",
                    "midi": 61,
                    "time": 112.54845275000035,
                    "velocity": 0.3779527559055118,
                    "duration": 0.04838712500000497
                },
                {
                    "name": "D4",
                    "midi": 62,
                    "time": 112.64522700000036,
                    "velocity": 0.4251968503937008,
                    "duration": 0.7508068895833304
                },
                {
                    "name": "D4",
                    "midi": 62,
                    "time": 113.41942100000036,
                    "velocity": 0.4251968503937008,
                    "duration": 0.6572584479166608
                },
                {
                    "name": "D4",
                    "midi": 62,
                    "time": 114.09684075000035,
                    "velocity": 0.3464566929133858,
                    "duration": 0.08629037291666464
                },
                {
                    "name": "D4",
                    "midi": 62,
                    "time": 114.19361500000035,
                    "velocity": 0.3937007874015748,
                    "duration": 0.09677424999999573
                },
                {
                    "name": "D4",
                    "midi": 62,
                    "time": 114.47264742083368,
                    "velocity": 0.3700787401574803,
                    "duration": 0.09354844166666965
                },
                {
                    "name": "B3",
                    "midi": 59,
                    "time": 114.58071200000035,
                    "velocity": 0.3228346456692913,
                    "duration": 0.09677424999999573
                },
                {
                    "name": "D4",
                    "midi": 62,
                    "time": 114.58071200000035,
                    "velocity": 0.3858267716535433,
                    "duration": 0.09677424999999573
                },
                {
                    "name": "B3",
                    "midi": 59,
                    "time": 114.87103475000035,
                    "velocity": 0.31496062992125984,
                    "duration": 0.09677424999999573
                },
                {
                    "name": "D4",
                    "midi": 62,
                    "time": 114.87103475000035,
                    "velocity": 0.3700787401574803,
                    "duration": 0.09677424999999573
                },
                {
                    "name": "A3",
                    "midi": 57,
                    "time": 114.96780900000034,
                    "velocity": 0.3543307086614173,
                    "duration": 0.7508068895833304
                },
                {
                    "name": "E4",
                    "midi": 64,
                    "time": 114.96780900000034,
                    "velocity": 0.4251968503937008,
                    "duration": 0.7508068895833304
                },
                {
                    "name": "A3",
                    "midi": 57,
                    "time": 115.74200300000034,
                    "velocity": 0.3543307086614173,
                    "duration": 0.6572584479166608
                },
                {
                    "name": "C#4",
                    "midi": 61,
                    "time": 115.74200300000034,
                    "velocity": 0.4251968503937008,
                    "duration": 0.6572584479166608
                },
                {
                    "name": "F#3",
                    "midi": 54,
                    "time": 116.41942275000034,
                    "velocity": 0.2755905511811024,
                    "duration": 0.08629037291666464
                },
                {
                    "name": "C#4",
                    "midi": 61,
                    "time": 116.41942275000034,
                    "velocity": 0.3464566929133858,
                    "duration": 0.08629037291666464
                },
                {
                    "name": "C#4",
                    "midi": 61,
                    "time": 116.51619700000033,
                    "velocity": 0.3937007874015748,
                    "duration": 0.09677424999999573
                },
                {
                    "name": "F#3",
                    "midi": 54,
                    "time": 116.51619700000033,
                    "velocity": 0.33070866141732286,
                    "duration": 0.09677424999999573
                },
                {
                    "name": "C#4",
                    "midi": 61,
                    "time": 116.79522942083366,
                    "velocity": 0.3700787401574803,
                    "duration": 0.09354844166666965
                },
                {
                    "name": "F#3",
                    "midi": 54,
                    "time": 116.79522942083366,
                    "velocity": 0.31496062992125984,
                    "duration": 0.09354844166666965
                },
                {
                    "name": "F#3",
                    "midi": 54,
                    "time": 116.90329400000033,
                    "velocity": 0.3228346456692913,
                    "duration": 0.09677424999999573
                },
                {
                    "name": "D4",
                    "midi": 62,
                    "time": 116.90329400000033,
                    "velocity": 0.3858267716535433,
                    "duration": 0.09677424999999573
                },
                {
                    "name": "F#3",
                    "midi": 54,
                    "time": 117.19361675000033,
                    "velocity": 0.31496062992125984,
                    "duration": 0.09677424999999573
                },
                {
                    "name": "E4",
                    "midi": 64,
                    "time": 117.19361675000033,
                    "velocity": 0.3700787401574803,
                    "duration": 0.09677424999999573
                },
                {
                    "name": "G3",
                    "midi": 55,
                    "time": 117.29039100000033,
                    "velocity": 0.3543307086614173,
                    "duration": 0.7741939999999943
                },
                {
                    "name": "D4",
                    "midi": 62,
                    "time": 117.29039100000033,
                    "velocity": 0.4251968503937008,
                    "duration": 0.7508068895833304
                },
                {
                    "name": "G3",
                    "midi": 55,
                    "time": 118.06458500000032,
                    "velocity": 0.3543307086614173,
                    "duration": 0.6572584479166608
                },
                {
                    "name": "B3",
                    "midi": 59,
                    "time": 118.06458500000032,
                    "velocity": 0.4251968503937008,
                    "duration": 0.6572584479166608
                },
                {
                    "name": "A2",
                    "midi": 45,
                    "time": 118.74200475000032,
                    "velocity": 0.3464566929133858,
                    "duration": 0.0887097291666663
                },
                {
                    "name": "A2",
                    "midi": 45,
                    "time": 118.83877900000032,
                    "velocity": 0.3937007874015748,
                    "duration": 0.09677424999999573
                },
                {
                    "name": "A2",
                    "midi": 45,
                    "time": 119.12910175000032,
                    "velocity": 0.3700787401574803,
                    "duration": 0.09677424999999573
                },
                {
                    "name": "A2",
                    "midi": 45,
                    "time": 119.22587600000031,
                    "velocity": 0.3858267716535433,
                    "duration": 0.09677424999999573
                },
                {
                    "name": "A2",
                    "midi": 45,
                    "time": 119.51619875000031,
                    "velocity": 0.3700787401574803,
                    "duration": 0.09677424999999573
                },
                {
                    "name": "D3",
                    "midi": 50,
                    "time": 119.61297300000031,
                    "velocity": 0.4251968503937008,
                    "duration": 0.7508068895833304
                },
                {
                    "name": "D3",
                    "midi": 50,
                    "time": 120.3871670000003,
                    "velocity": 0.4251968503937008,
                    "duration": 0.7661294791666649
                },
                {
                    "name": "D3",
                    "midi": 50,
                    "time": 121.1613610000003,
                    "velocity": 0.3543307086614173,
                    "duration": 0.367742149999998
                },
                {
                    "name": "C#3",
                    "midi": 49,
                    "time": 121.5484580000003,
                    "velocity": 0.29133858267716534,
                    "duration": 0.38709699999999714
                },
                {
                    "name": "B2",
                    "midi": 47,
                    "time": 121.93555500000029,
                    "velocity": 0.5275590551181102,
                    "duration": 0.12903233333332764
                },
                {
                    "name": "A#2",
                    "midi": 46,
                    "time": 122.06458733333362,
                    "velocity": 0.44881889763779526,
                    "duration": 0.12903233333332764
                },
                {
                    "name": "B2",
                    "midi": 47,
                    "time": 122.19361966666695,
                    "velocity": 0.44881889763779526,
                    "duration": 0.12903233333332764
                },
                {
                    "name": "G2",
                    "midi": 43,
                    "time": 122.32265200000028,
                    "velocity": 0.5354330708661418,
                    "duration": 0.12903233333332764
                },
                {
                    "name": "F#2",
                    "midi": 42,
                    "time": 122.4516843333336,
                    "velocity": 0.48031496062992124,
                    "duration": 0.12903233333332764
                },
                {
                    "name": "G2",
                    "midi": 43,
                    "time": 122.58071666666693,
                    "velocity": 0.5118110236220472,
                    "duration": 0.12903233333332764
                },
                {
                    "name": "E2",
                    "midi": 40,
                    "time": 122.70974900000026,
                    "velocity": 0.5826771653543307,
                    "duration": 0.6774197499999985
                },
                {
                    "name": "F#2",
                    "midi": 42,
                    "time": 123.38716875000026,
                    "velocity": 0.48031496062992124,
                    "duration": 0.09677424999999573
                },
                {
                    "name": "G2",
                    "midi": 43,
                    "time": 123.48394300000025,
                    "velocity": 0.5433070866141733,
                    "duration": 0.2903227500000014
                },
                {
                    "name": "A2",
                    "midi": 45,
                    "time": 123.77426575000025,
                    "velocity": 0.4881889763779528,
                    "duration": 0.09677424999999573
                },
                {
                    "name": "B2",
                    "midi": 47,
                    "time": 123.87104000000025,
                    "velocity": 0.5511811023622047,
                    "duration": 0.2903227500000014
                },
                {
                    "name": "D3",
                    "midi": 50,
                    "time": 124.16136275000025,
                    "velocity": 0.4881889763779528,
                    "duration": 0.09677424999999573
                },
                {
                    "name": "C#3",
                    "midi": 49,
                    "time": 124.25813700000025,
                    "velocity": 0.5433070866141733,
                    "duration": 0.12903233333332764
                },
                {
                    "name": "C3",
                    "midi": 48,
                    "time": 124.38716933333357,
                    "velocity": 0.49606299212598426,
                    "duration": 0.12903233333332764
                },
                {
                    "name": "C#3",
                    "midi": 49,
                    "time": 124.5162016666669,
                    "velocity": 0.4645669291338583,
                    "duration": 0.12903233333332764
                },
                {
                    "name": "A2",
                    "midi": 45,
                    "time": 124.64523400000023,
                    "velocity": 0.5354330708661418,
                    "duration": 0.12903233333332764
                },
                {
                    "name": "G#2",
                    "midi": 44,
                    "time": 124.77426633333356,
                    "velocity": 0.5118110236220472,
                    "duration": 0.12903233333332764
                },
                {
                    "name": "A2",
                    "midi": 45,
                    "time": 124.90329866666688,
                    "velocity": 0.5433070866141733,
                    "duration": 0.12903233333332764
                },
                {
                    "name": "F#2",
                    "midi": 42,
                    "time": 125.03233100000021,
                    "velocity": 0.5826771653543307,
                    "duration": 0.6774197499999985
                },
                {
                    "name": "G#2",
                    "midi": 44,
                    "time": 125.70975075000021,
                    "velocity": 0.48031496062992124,
                    "duration": 0.09677424999999573
                },
                {
                    "name": "A2",
                    "midi": 45,
                    "time": 125.8065250000002,
                    "velocity": 0.5433070866141733,
                    "duration": 0.2903227500000014
                },
                {
                    "name": "B2",
                    "midi": 47,
                    "time": 126.09684775000021,
                    "velocity": 0.4881889763779528,
                    "duration": 0.09677424999999573
                },
                {
                    "name": "C#3",
                    "midi": 49,
                    "time": 126.1936220000002,
                    "velocity": 0.5511811023622047,
                    "duration": 0.2903227500000014
                },
                {
                    "name": "E3",
                    "midi": 52,
                    "time": 126.4839447500002,
                    "velocity": 0.4881889763779528,
                    "duration": 0.09677424999999573
                },
                {
                    "name": "D3",
                    "midi": 50,
                    "time": 126.5807190000002,
                    "velocity": 0.5511811023622047,
                    "duration": 0.12903233333332764
                },
                {
                    "name": "C#3",
                    "midi": 49,
                    "time": 126.70975133333353,
                    "velocity": 0.4566929133858268,
                    "duration": 0.12903233333332764
                },
                {
                    "name": "D3",
                    "midi": 50,
                    "time": 126.83878366666686,
                    "velocity": 0.4566929133858268,
                    "duration": 0.12903233333332764
                },
                {
                    "name": "B2",
                    "midi": 47,
                    "time": 126.96781600000018,
                    "velocity": 0.49606299212598426,
                    "duration": 0.12903233333332764
                },
                {
                    "name": "A#2",
                    "midi": 46,
                    "time": 127.09684833333351,
                    "velocity": 0.5118110236220472,
                    "duration": 0.12903233333332764
                },
                {
                    "name": "B2",
                    "midi": 47,
                    "time": 127.22588066666684,
                    "velocity": 0.5354330708661418,
                    "duration": 0.12903233333332764
                },
                {
                    "name": "G2",
                    "midi": 43,
                    "time": 127.35491300000017,
                    "velocity": 0.5669291338582677,
                    "duration": 0.6774197499999985
                },
                {
                    "name": "A2",
                    "midi": 45,
                    "time": 128.03233275000017,
                    "velocity": 0.4645669291338583,
                    "duration": 0.09677425000000994
                },
                {
                    "name": "B2",
                    "midi": 47,
                    "time": 128.12910700000018,
                    "velocity": 0.5748031496062992,
                    "duration": 0.2903227500000014
                },
                {
                    "name": "C#3",
                    "midi": 49,
                    "time": 128.41942975000018,
                    "velocity": 0.44881889763779526,
                    "duration": 0.09677425000000994
                },
                {
                    "name": "D3",
                    "midi": 50,
                    "time": 128.5162040000002,
                    "velocity": 0.5590551181102362,
                    "duration": 0.2903227500000014
                },
                {
                    "name": "F#3",
                    "midi": 54,
                    "time": 128.8065267500002,
                    "velocity": 0.4566929133858268,
                    "duration": 0.09677425000000994
                },
                {
                    "name": "E3",
                    "midi": 52,
                    "time": 128.9033010000002,
                    "velocity": 0.6692913385826772,
                    "duration": 0.7508068895833446
                },
                {
                    "name": "E3",
                    "midi": 52,
                    "time": 129.67749500000022,
                    "velocity": 0.5354330708661418,
                    "duration": 0.6572584479166608
                },
                {
                    "name": "A3",
                    "midi": 57,
                    "time": 129.67749500000022,
                    "velocity": 0.6377952755905512,
                    "duration": 0.6572584479166608
                },
                {
                    "name": "A2",
                    "midi": 45,
                    "time": 130.3549147500002,
                    "velocity": 0.4409448818897638,
                    "duration": 0.09677425000000994
                },
                {
                    "name": "A3",
                    "midi": 57,
                    "time": 130.3549147500002,
                    "velocity": 0.5196850393700787,
                    "duration": 0.09677425000000994
                },
                {
                    "name": "A2",
                    "midi": 45,
                    "time": 130.45168900000021,
                    "velocity": 0.4566929133858268,
                    "duration": 0.26774209166666196
                },
                {
                    "name": "A3",
                    "midi": 57,
                    "time": 130.45168900000021,
                    "velocity": 0.5433070866141733,
                    "duration": 0.26774209166666196
                },
                {
                    "name": "G2",
                    "midi": 43,
                    "time": 130.74201175000022,
                    "velocity": 0.4330708661417323,
                    "duration": 0.09677425000000994
                },
                {
                    "name": "G3",
                    "midi": 55,
                    "time": 130.74201175000022,
                    "velocity": 0.5118110236220472,
                    "duration": 0.09677425000000994
                },
                {
                    "name": "F#2",
                    "midi": 42,
                    "time": 130.83878600000023,
                    "velocity": 0.47244094488188976,
                    "duration": 0.26774209166666196
                },
                {
                    "name": "F#3",
                    "midi": 54,
                    "time": 130.83878600000023,
                    "velocity": 0.5669291338582677,
                    "duration": 0.26774209166666196
                },
                {
                    "name": "E2",
                    "midi": 40,
                    "time": 131.12910875000023,
                    "velocity": 0.4881889763779528,
                    "duration": 0.09677425000000994
                },
                {
                    "name": "E3",
                    "midi": 52,
                    "time": 131.12910875000023,
                    "velocity": 0.5826771653543307,
                    "duration": 0.09677425000000994
                },
                {
                    "name": "D2",
                    "midi": 38,
                    "time": 131.22588300000024,
                    "velocity": 0.5118110236220472,
                    "duration": 0.7508068895833446
                },
                {
                    "name": "A2",
                    "midi": 45,
                    "time": 131.22588300000024,
                    "velocity": 0.5118110236220472,
                    "duration": 0.7508068895833446
                },
                {
                    "name": "D3",
                    "midi": 50,
                    "time": 131.22588300000024,
                    "velocity": 0.5826771653543307,
                    "duration": 0.7508068895833446
                },
                {
                    "name": "A2",
                    "midi": 45,
                    "time": 132.00007700000026,
                    "velocity": 0.5118110236220472,
                    "duration": 0.6612907083333255
                },
                {
                    "name": "D2",
                    "midi": 38,
                    "time": 132.00007700000026,
                    "velocity": 0.5118110236220472,
                    "duration": 0.6612907083333255
                },
                {
                    "name": "D3",
                    "midi": 50,
                    "time": 132.00007700000026,
                    "velocity": 0.5826771653543307,
                    "duration": 0.6612907083333255
                },
                {
                    "name": "A2",
                    "midi": 45,
                    "time": 133.54846500000025,
                    "velocity": 0.3543307086614173,
                    "duration": 0.7741940000000227
                },
                {
                    "name": "C#3",
                    "midi": 49,
                    "time": 133.54846500000025,
                    "velocity": 0.3543307086614173,
                    "duration": 0.7741940000000227
                },
                {
                    "name": "G3",
                    "midi": 55,
                    "time": 133.54846500000025,
                    "velocity": 0.4251968503937008,
                    "duration": 0.7508068895833446
                },
                {
                    "name": "A2",
                    "midi": 45,
                    "time": 134.32265900000027,
                    "velocity": 0.3543307086614173,
                    "duration": 0.7741939999999943
                },
                {
                    "name": "C#3",
                    "midi": 49,
                    "time": 134.32265900000027,
                    "velocity": 0.3543307086614173,
                    "duration": 0.7741939999999943
                },
                {
                    "name": "G3",
                    "midi": 55,
                    "time": 134.32265900000027,
                    "velocity": 0.4251968503937008,
                    "duration": 0.7741939999999943
                },
                {
                    "name": "D2",
                    "midi": 38,
                    "time": 135.87104700000026,
                    "velocity": 0.25984251968503935,
                    "duration": 0.7741940000000227
                },
                {
                    "name": "A2",
                    "midi": 45,
                    "time": 135.87104700000026,
                    "velocity": 0.25984251968503935,
                    "duration": 0.7741940000000227
                },
                {
                    "name": "D3",
                    "midi": 50,
                    "time": 135.87104700000026,
                    "velocity": 0.30708661417322836,
                    "duration": 0.7508068895833446
                },
                {
                    "name": "D2",
                    "midi": 38,
                    "time": 136.64524100000028,
                    "velocity": 0.2440944881889764,
                    "duration": 0.6572584479166608
                },
                {
                    "name": "A2",
                    "midi": 45,
                    "time": 136.64524100000028,
                    "velocity": 0.2440944881889764,
                    "duration": 0.6572584479166608
                },
                {
                    "name": "D3",
                    "midi": 50,
                    "time": 136.64524100000028,
                    "velocity": 0.29133858267716534,
                    "duration": 0.6572584479166608
                },
                {
                    "name": "A2",
                    "midi": 45,
                    "time": 137.32266075000027,
                    "velocity": 0.47244094488188976,
                    "duration": 0.04838712500000497
                },
                {
                    "name": "A2",
                    "midi": 45,
                    "time": 137.41943500000028,
                    "velocity": 0.5039370078740157,
                    "duration": 0.09677425000000994
                },
                {
                    "name": "A2",
                    "midi": 45,
                    "time": 137.70975775000028,
                    "velocity": 0.4645669291338583,
                    "duration": 0.04838712500000497
                },
                {
                    "name": "G2",
                    "midi": 43,
                    "time": 137.8065320000003,
                    "velocity": 0.5039370078740157,
                    "duration": 0.09677425000000994
                },
                {
                    "name": "A2",
                    "midi": 45,
                    "time": 138.0968547500003,
                    "velocity": 0.47244094488188976,
                    "duration": 0.04838712500000497
                },
                {
                    "name": "A#1",
                    "midi": 34,
                    "time": 138.1936290000003,
                    "velocity": 0.44881889763779526,
                    "duration": 0.7508068895833446
                },
                {
                    "name": "A#2",
                    "midi": 46,
                    "time": 138.1936290000003,
                    "velocity": 0.5354330708661418,
                    "duration": 0.7508068895833446
                },
                {
                    "name": "A#1",
                    "midi": 34,
                    "time": 138.96782300000032,
                    "velocity": 0.44881889763779526,
                    "duration": 0.6572584479166608
                },
                {
                    "name": "A#2",
                    "midi": 46,
                    "time": 138.96782300000032,
                    "velocity": 0.5354330708661418,
                    "duration": 0.6572584479166608
                },
                {
                    "name": "A3",
                    "midi": 57,
                    "time": 139.6452427500003,
                    "velocity": 0.47244094488188976,
                    "duration": 0.04838712500000497
                },
                {
                    "name": "A3",
                    "midi": 57,
                    "time": 139.74201700000032,
                    "velocity": 0.5039370078740157,
                    "duration": 0.09677425000000994
                },
                {
                    "name": "A3",
                    "midi": 57,
                    "time": 140.03233975000032,
                    "velocity": 0.4645669291338583,
                    "duration": 0.04838712500000497
                },
                {
                    "name": "G3",
                    "midi": 55,
                    "time": 140.12911400000033,
                    "velocity": 0.5039370078740157,
                    "duration": 0.09677425000000994
                },
                {
                    "name": "A3",
                    "midi": 57,
                    "time": 140.41943675000033,
                    "velocity": 0.47244094488188976,
                    "duration": 0.04838712500000497
                },
                {
                    "name": "F3",
                    "midi": 53,
                    "time": 140.51621100000034,
                    "velocity": 0.44881889763779526,
                    "duration": 0.7741940000000227
                },
                {
                    "name": "A#2",
                    "midi": 46,
                    "time": 140.51621100000034,
                    "velocity": 0.44881889763779526,
                    "duration": 0.7508068895833446
                },
                {
                    "name": "A#3",
                    "midi": 58,
                    "time": 140.51621100000034,
                    "velocity": 0.5354330708661418,
                    "duration": 0.7508068895833446
                },
                {
                    "name": "F3",
                    "midi": 53,
                    "time": 141.29040500000036,
                    "velocity": 0.44881889763779526,
                    "duration": 0.6572584479166608
                },
                {
                    "name": "A#2",
                    "midi": 46,
                    "time": 141.29040500000036,
                    "velocity": 0.44881889763779526,
                    "duration": 0.6572584479166608
                },
                {
                    "name": "A#3",
                    "midi": 58,
                    "time": 141.29040500000036,
                    "velocity": 0.5354330708661418,
                    "duration": 0.6572584479166608
                },
                {
                    "name": "D4",
                    "midi": 62,
                    "time": 141.96782475000035,
                    "velocity": 0.4015748031496063,
                    "duration": 0.04838712500000497
                },
                {
                    "name": "F4",
                    "midi": 65,
                    "time": 141.96782475000035,
                    "velocity": 0.47244094488188976,
                    "duration": 0.04838712500000497
                },
                {
                    "name": "D4",
                    "midi": 62,
                    "time": 142.06459900000036,
                    "velocity": 0.4251968503937008,
                    "duration": 0.09677425000000994
                },
                {
                    "name": "F4",
                    "midi": 65,
                    "time": 142.06459900000036,
                    "velocity": 0.5039370078740157,
                    "duration": 0.09677425000000994
                },
                {
                    "name": "D4",
                    "midi": 62,
                    "time": 142.35492175000036,
                    "velocity": 0.3937007874015748,
                    "duration": 0.04838712500000497
                },
                {
                    "name": "F4",
                    "midi": 65,
                    "time": 142.35492175000036,
                    "velocity": 0.4645669291338583,
                    "duration": 0.04838712500000497
                },
                {
                    "name": "C#4",
                    "midi": 61,
                    "time": 142.45169600000037,
                    "velocity": 0.4251968503937008,
                    "duration": 0.09677425000000994
                },
                {
                    "name": "E4",
                    "midi": 64,
                    "time": 142.45169600000037,
                    "velocity": 0.5039370078740157,
                    "duration": 0.09677425000000994
                },
                {
                    "name": "D4",
                    "midi": 62,
                    "time": 142.74201875000037,
                    "velocity": 0.4015748031496063,
                    "duration": 0.04838712500000497
                },
                {
                    "name": "F4",
                    "midi": 65,
                    "time": 142.74201875000037,
                    "velocity": 0.47244094488188976,
                    "duration": 0.04838712500000497
                },
                {
                    "name": "A#3",
                    "midi": 58,
                    "time": 142.83879300000038,
                    "velocity": 0.4251968503937008,
                    "duration": 0.09677425000000994
                },
                {
                    "name": "D4",
                    "midi": 62,
                    "time": 142.83879300000038,
                    "velocity": 0.5039370078740157,
                    "duration": 0.09677425000000994
                },
                {
                    "name": "A#3",
                    "midi": 58,
                    "time": 143.12911575000038,
                    "velocity": 0.3937007874015748,
                    "duration": 0.04838712500000497
                },
                {
                    "name": "D4",
                    "midi": 62,
                    "time": 143.12911575000038,
                    "velocity": 0.4645669291338583,
                    "duration": 0.04838712500000497
                },
                {
                    "name": "A3",
                    "midi": 57,
                    "time": 143.2258900000004,
                    "velocity": 0.4251968503937008,
                    "duration": 0.09677425000000994
                },
                {
                    "name": "C#4",
                    "midi": 61,
                    "time": 143.2258900000004,
                    "velocity": 0.5039370078740157,
                    "duration": 0.09677425000000994
                },
                {
                    "name": "A#3",
                    "midi": 58,
                    "time": 143.5162127500004,
                    "velocity": 0.4015748031496063,
                    "duration": 0.04838712500000497
                },
                {
                    "name": "D4",
                    "midi": 62,
                    "time": 143.5162127500004,
                    "velocity": 0.47244094488188976,
                    "duration": 0.04838712500000497
                },
                {
                    "name": "G3",
                    "midi": 55,
                    "time": 143.6129870000004,
                    "velocity": 0.4251968503937008,
                    "duration": 0.09677425000000994
                },
                {
                    "name": "A#3",
                    "midi": 58,
                    "time": 143.6129870000004,
                    "velocity": 0.5039370078740157,
                    "duration": 0.09677425000000994
                },
                {
                    "name": "A#3",
                    "midi": 58,
                    "time": 143.9033097500004,
                    "velocity": 0.4645669291338583,
                    "duration": 0.04838712500000497
                },
                {
                    "name": "G3",
                    "midi": 55,
                    "time": 143.9033097500004,
                    "velocity": 0.3937007874015748,
                    "duration": 0.04838712500000497
                },
                {
                    "name": "A3",
                    "midi": 57,
                    "time": 144.0000840000004,
                    "velocity": 0.5039370078740157,
                    "duration": 0.09677425000000994
                },
                {
                    "name": "F#3",
                    "midi": 54,
                    "time": 144.0000840000004,
                    "velocity": 0.4251968503937008,
                    "duration": 0.09677425000000994
                },
                {
                    "name": "A#3",
                    "midi": 58,
                    "time": 144.29040675000041,
                    "velocity": 0.47244094488188976,
                    "duration": 0.04838712500000497
                },
                {
                    "name": "G3",
                    "midi": 55,
                    "time": 144.29040675000041,
                    "velocity": 0.4015748031496063,
                    "duration": 0.04838712500000497
                },
                {
                    "name": "D#3",
                    "midi": 51,
                    "time": 144.38718100000042,
                    "velocity": 0.44881889763779526,
                    "duration": 0.7741940000000227
                },
                {
                    "name": "G3",
                    "midi": 55,
                    "time": 144.38718100000042,
                    "velocity": 0.5354330708661418,
                    "duration": 0.7508068895833446
                },
                {
                    "name": "D2",
                    "midi": 38,
                    "time": 145.16137500000045,
                    "velocity": 0.44881889763779526,
                    "duration": 0.7661294791666649
                },
                {
                    "name": "D3",
                    "midi": 50,
                    "time": 145.16137500000045,
                    "velocity": 0.5354330708661418,
                    "duration": 0.7661294791666649
                },
                {
                    "name": "C2",
                    "midi": 36,
                    "time": 145.93556900000044,
                    "velocity": 0.44881889763779526,
                    "duration": 0.7661294791666649
                },
                {
                    "name": "C3",
                    "midi": 48,
                    "time": 145.93556900000044,
                    "velocity": 0.5354330708661418,
                    "duration": 0.7661294791666649
                },
                {
                    "name": "F2",
                    "midi": 41,
                    "time": 146.70976300000044,
                    "velocity": 0.44881889763779526,
                    "duration": 0.09677425000000994
                },
                {
                    "name": "F3",
                    "midi": 53,
                    "time": 146.70976300000044,
                    "velocity": 0.5354330708661418,
                    "duration": 0.09677425000000994
                },
                {
                    "name": "F2",
                    "midi": 41,
                    "time": 147.09686000000045,
                    "velocity": 0.44881889763779526,
                    "duration": 0.09677425000000994
                },
                {
                    "name": "F3",
                    "midi": 53,
                    "time": 147.09686000000045,
                    "velocity": 0.5354330708661418,
                    "duration": 0.09677425000000994
                },
                {
                    "name": "A#1",
                    "midi": 34,
                    "time": 147.48395700000046,
                    "velocity": 0.44881889763779526,
                    "duration": 0.7661294791666649
                },
                {
                    "name": "A#2",
                    "midi": 46,
                    "time": 147.48395700000046,
                    "velocity": 0.5354330708661418,
                    "duration": 0.7661294791666649
                },
                {
                    "name": "A#2",
                    "midi": 46,
                    "time": 148.25815100000045,
                    "velocity": 0.44881889763779526,
                    "duration": 0.6572584479166608
                },
                {
                    "name": "F3",
                    "midi": 53,
                    "time": 148.25815100000045,
                    "velocity": 0.5354330708661418,
                    "duration": 0.6572584479166608
                },
                {
                    "name": "A#2",
                    "midi": 46,
                    "time": 149.80653900000044,
                    "velocity": 0.4330708661417323,
                    "duration": 0.19354849999999146
                },
                {
                    "name": "F3",
                    "midi": 53,
                    "time": 150.19363600000042,
                    "velocity": 0.33070866141732286,
                    "duration": 0.19354849999999146
                },
                {
                    "name": "D4",
                    "midi": 62,
                    "time": 150.5807330000004,
                    "velocity": 0.33070866141732286,
                    "duration": 0.19354849999999146
                },
                {
                    "name": "A#3",
                    "midi": 58,
                    "time": 150.5807330000004,
                    "velocity": 0.2755905511811024,
                    "duration": 0.19354849999999146
                },
                {
                    "name": "A#2",
                    "midi": 46,
                    "time": 150.9678300000004,
                    "velocity": 0.4330708661417323,
                    "duration": 0.19354849999999146
                },
                {
                    "name": "F3",
                    "midi": 53,
                    "time": 151.35492700000037,
                    "velocity": 0.33070866141732286,
                    "duration": 0.19354849999999146
                },
                {
                    "name": "A#3",
                    "midi": 58,
                    "time": 151.74202400000036,
                    "velocity": 0.2755905511811024,
                    "duration": 0.19354849999999146
                },
                {
                    "name": "D4",
                    "midi": 62,
                    "time": 151.74202400000036,
                    "velocity": 0.33070866141732286,
                    "duration": 0.19354849999999146
                },
                {
                    "name": "A2",
                    "midi": 45,
                    "time": 152.12912100000034,
                    "velocity": 0.4330708661417323,
                    "duration": 0.19354849999999146
                },
                {
                    "name": "F3",
                    "midi": 53,
                    "time": 152.51621800000032,
                    "velocity": 0.33070866141732286,
                    "duration": 0.19354849999999146
                },
                {
                    "name": "D#4",
                    "midi": 63,
                    "time": 152.9033150000003,
                    "velocity": 0.33070866141732286,
                    "duration": 0.19354849999999146
                },
                {
                    "name": "C4",
                    "midi": 60,
                    "time": 152.9033150000003,
                    "velocity": 0.2755905511811024,
                    "duration": 0.19354849999999146
                },
                {
                    "name": "A2",
                    "midi": 45,
                    "time": 153.2904120000003,
                    "velocity": 0.4330708661417323,
                    "duration": 0.19354849999999146
                },
                {
                    "name": "F3",
                    "midi": 53,
                    "time": 153.67750900000027,
                    "velocity": 0.33070866141732286,
                    "duration": 0.19354849999999146
                },
                {
                    "name": "C4",
                    "midi": 60,
                    "time": 154.06460600000025,
                    "velocity": 0.2755905511811024,
                    "duration": 0.19354849999999146
                },
                {
                    "name": "D#4",
                    "midi": 63,
                    "time": 154.06460600000025,
                    "velocity": 0.33070866141732286,
                    "duration": 0.19354849999999146
                },
                {
                    "name": "F2",
                    "midi": 41,
                    "time": 154.45170300000024,
                    "velocity": 0.4330708661417323,
                    "duration": 0.19354849999999146
                },
                {
                    "name": "F3",
                    "midi": 53,
                    "time": 154.83880000000022,
                    "velocity": 0.33070866141732286,
                    "duration": 0.19354849999999146
                },
                {
                    "name": "D#4",
                    "midi": 63,
                    "time": 155.2258970000002,
                    "velocity": 0.33070866141732286,
                    "duration": 0.19354849999999146
                },
                {
                    "name": "C4",
                    "midi": 60,
                    "time": 155.2258970000002,
                    "velocity": 0.2755905511811024,
                    "duration": 0.19354849999999146
                },
                {
                    "name": "F2",
                    "midi": 41,
                    "time": 155.61299400000019,
                    "velocity": 0.4330708661417323,
                    "duration": 0.19354849999999146
                },
                {
                    "name": "F3",
                    "midi": 53,
                    "time": 156.00009100000017,
                    "velocity": 0.33070866141732286,
                    "duration": 0.19354849999999146
                },
                {
                    "name": "C4",
                    "midi": 60,
                    "time": 156.38718800000015,
                    "velocity": 0.2755905511811024,
                    "duration": 0.19354849999999146
                },
                {
                    "name": "D#4",
                    "midi": 63,
                    "time": 156.38718800000015,
                    "velocity": 0.33070866141732286,
                    "duration": 0.19354849999999146
                },
                {
                    "name": "A#2",
                    "midi": 46,
                    "time": 156.77428500000013,
                    "velocity": 0.3858267716535433,
                    "duration": 0.19354849999999146
                },
                {
                    "name": "F3",
                    "midi": 53,
                    "time": 157.16138200000012,
                    "velocity": 0.29133858267716534,
                    "duration": 0.19354849999999146
                },
                {
                    "name": "D4",
                    "midi": 62,
                    "time": 157.5484790000001,
                    "velocity": 0.29133858267716534,
                    "duration": 0.19354849999999146
                },
                {
                    "name": "A#3",
                    "midi": 58,
                    "time": 157.5484790000001,
                    "velocity": 0.2440944881889764,
                    "duration": 0.19354849999999146
                },
                {
                    "name": "A#2",
                    "midi": 46,
                    "time": 157.93557600000008,
                    "velocity": 0.4330708661417323,
                    "duration": 0.19354849999999146
                },
                {
                    "name": "F3",
                    "midi": 53,
                    "time": 158.32267300000007,
                    "velocity": 0.29133858267716534,
                    "duration": 0.19354849999999146
                },
                {
                    "name": "D4",
                    "midi": 62,
                    "time": 158.70977000000005,
                    "velocity": 0.2992125984251969,
                    "duration": 0.19354849999999146
                },
                {
                    "name": "A#3",
                    "midi": 58,
                    "time": 158.70977000000005,
                    "velocity": 0.25196850393700787,
                    "duration": 0.19354849999999146
                },
                {
                    "name": "G2",
                    "midi": 43,
                    "time": 159.09686700000003,
                    "velocity": 0.47244094488188976,
                    "duration": 0.19354849999999146
                },
                {
                    "name": "G3",
                    "midi": 55,
                    "time": 159.48396400000001,
                    "velocity": 0.36220472440944884,
                    "duration": 0.19354849999999146
                },
                {
                    "name": "D4",
                    "midi": 62,
                    "time": 159.871061,
                    "velocity": 0.36220472440944884,
                    "duration": 0.19354849999999146
                },
                {
                    "name": "A#3",
                    "midi": 58,
                    "time": 159.871061,
                    "velocity": 0.2992125984251969,
                    "duration": 0.19354849999999146
                },
                {
                    "name": "G2",
                    "midi": 43,
                    "time": 160.25815799999998,
                    "velocity": 0.4330708661417323,
                    "duration": 0.19354849999999146
                },
                {
                    "name": "G3",
                    "midi": 55,
                    "time": 160.64525499999996,
                    "velocity": 0.36220472440944884,
                    "duration": 0.19354849999999146
                },
                {
                    "name": "A#3",
                    "midi": 58,
                    "time": 161.03235199999995,
                    "velocity": 0.29133858267716534,
                    "duration": 0.19354849999999146
                },
                {
                    "name": "D4",
                    "midi": 62,
                    "time": 161.03235199999995,
                    "velocity": 0.3543307086614173,
                    "duration": 0.19354849999999146
                },
                {
                    "name": "A#2",
                    "midi": 46,
                    "time": 161.41944899999993,
                    "velocity": 0.4330708661417323,
                    "duration": 0.19354849999999146
                },
                {
                    "name": "F3",
                    "midi": 53,
                    "time": 161.8065459999999,
                    "velocity": 0.33070866141732286,
                    "duration": 0.19354849999999146
                },
                {
                    "name": "D4",
                    "midi": 62,
                    "time": 162.1936429999999,
                    "velocity": 0.33070866141732286,
                    "duration": 0.19354849999999146
                },
                {
                    "name": "A#3",
                    "midi": 58,
                    "time": 162.1936429999999,
                    "velocity": 0.2755905511811024,
                    "duration": 0.19354849999999146
                },
                {
                    "name": "A#2",
                    "midi": 46,
                    "time": 162.58073999999988,
                    "velocity": 0.4330708661417323,
                    "duration": 0.19354849999999146
                },
                {
                    "name": "F3",
                    "midi": 53,
                    "time": 162.96783699999986,
                    "velocity": 0.33070866141732286,
                    "duration": 0.19354849999999146
                },
                {
                    "name": "D4",
                    "midi": 62,
                    "time": 163.35493399999984,
                    "velocity": 0.33070866141732286,
                    "duration": 0.19354849999999146
                },
                {
                    "name": "A#3",
                    "midi": 58,
                    "time": 163.35493399999984,
                    "velocity": 0.2755905511811024,
                    "duration": 0.19354849999999146
                },
                {
                    "name": "F2",
                    "midi": 41,
                    "time": 163.74203099999983,
                    "velocity": 0.4330708661417323,
                    "duration": 0.19354849999999146
                },
                {
                    "name": "F3",
                    "midi": 53,
                    "time": 164.1291279999998,
                    "velocity": 0.33070866141732286,
                    "duration": 0.19354849999999146
                },
                {
                    "name": "C4",
                    "midi": 60,
                    "time": 164.5162249999998,
                    "velocity": 0.25984251968503935,
                    "duration": 0.19354849999999146
                },
                {
                    "name": "D#4",
                    "midi": 63,
                    "time": 164.5162249999998,
                    "velocity": 0.30708661417322836,
                    "duration": 0.19354849999999146
                },
                {
                    "name": "F2",
                    "midi": 41,
                    "time": 164.90332199999978,
                    "velocity": 0.4094488188976378,
                    "duration": 0.19354849999999146
                },
                {
                    "name": "F3",
                    "midi": 53,
                    "time": 165.29041899999976,
                    "velocity": 0.30708661417322836,
                    "duration": 0.19354849999999146
                },
                {
                    "name": "D#4",
                    "midi": 63,
                    "time": 165.67751599999974,
                    "velocity": 0.30708661417322836,
                    "duration": 0.19354849999999146
                },
                {
                    "name": "C4",
                    "midi": 60,
                    "time": 165.67751599999974,
                    "velocity": 0.25984251968503935,
                    "duration": 0.19354849999999146
                },
                {
                    "name": "A#2",
                    "midi": 46,
                    "time": 166.06461299999972,
                    "velocity": 0.3464566929133858,
                    "duration": 0.19354849999999146
                },
                {
                    "name": "D3",
                    "midi": 50,
                    "time": 166.4517099999997,
                    "velocity": 0.25984251968503935,
                    "duration": 0.19354849999999146
                },
                {
                    "name": "A#3",
                    "midi": 58,
                    "time": 166.8388069999997,
                    "velocity": 0.25984251968503935,
                    "duration": 0.19354849999999146
                },
                {
                    "name": "F3",
                    "midi": 53,
                    "time": 166.8388069999997,
                    "velocity": 0.2125984251968504,
                    "duration": 0.19354849999999146
                },
                {
                    "name": "F2",
                    "midi": 41,
                    "time": 167.22590399999967,
                    "velocity": 0.3858267716535433,
                    "duration": 0.19354849999999146
                },
                {
                    "name": "D#3",
                    "midi": 51,
                    "time": 167.61300099999966,
                    "velocity": 0.2755905511811024,
                    "duration": 0.19354849999999146
                },
                {
                    "name": "A3",
                    "midi": 57,
                    "time": 168.00009799999964,
                    "velocity": 0.2755905511811024,
                    "duration": 0.19354849999999146
                },
                {
                    "name": "F3",
                    "midi": 53,
                    "time": 168.00009799999964,
                    "velocity": 0.2283464566929134,
                    "duration": 0.19354849999999146
                },
                {
                    "name": "A#2",
                    "midi": 46,
                    "time": 168.38719499999962,
                    "velocity": 0.3228346456692913,
                    "duration": 0.19354849999999146
                },
                {
                    "name": "D3",
                    "midi": 50,
                    "time": 168.7742919999996,
                    "velocity": 0.2440944881889764,
                    "duration": 0.19354849999999146
                },
                {
                    "name": "A#3",
                    "midi": 58,
                    "time": 169.1613889999996,
                    "velocity": 0.2440944881889764,
                    "duration": 0.19354849999999146
                },
                {
                    "name": "F3",
                    "midi": 53,
                    "time": 169.1613889999996,
                    "velocity": 0.1968503937007874,
                    "duration": 0.19354849999999146
                },
                {
                    "name": "F2",
                    "midi": 41,
                    "time": 169.54848599999957,
                    "velocity": 0.36220472440944884,
                    "duration": 0.19354849999999146
                },
                {
                    "name": "D#3",
                    "midi": 51,
                    "time": 169.93558299999955,
                    "velocity": 0.2440944881889764,
                    "duration": 0.19354849999999146
                },
                {
                    "name": "A3",
                    "midi": 57,
                    "time": 170.32267999999954,
                    "velocity": 0.23622047244094488,
                    "duration": 0.19354849999999146
                },
                {
                    "name": "F3",
                    "midi": 53,
                    "time": 170.32267999999954,
                    "velocity": 0.1968503937007874,
                    "duration": 0.19354849999999146
                },
                {
                    "name": "A#2",
                    "midi": 46,
                    "time": 170.70977699999952,
                    "velocity": 0.2677165354330709,
                    "duration": 0.282258229166672
                },
                {
                    "name": "A#1",
                    "midi": 34,
                    "time": 171.00009974999952,
                    "velocity": 0.47244094488188976,
                    "duration": 0.04838712500000497
                },
                {
                    "name": "A#1",
                    "midi": 34,
                    "time": 171.09687399999953,
                    "velocity": 0.5039370078740157,
                    "duration": 0.09677425000000994
                },
                {
                    "name": "A#1",
                    "midi": 34,
                    "time": 171.38719674999953,
                    "velocity": 0.4645669291338583,
                    "duration": 0.04838712500000497
                },
                {
                    "name": "A#1",
                    "midi": 34,
                    "time": 171.48397099999954,
                    "velocity": 0.5039370078740157,
                    "duration": 0.09677425000000994
                },
                {
                    "name": "C2",
                    "midi": 36,
                    "time": 171.77429374999954,
                    "velocity": 0.47244094488188976,
                    "duration": 0.04838712500000497
                },
                {
                    "name": "D2",
                    "midi": 38,
                    "time": 171.87106799999955,
                    "velocity": 0.5275590551181102,
                    "duration": 0.282258229166672
                },
                {
                    "name": "D2",
                    "midi": 38,
                    "time": 172.16139074999955,
                    "velocity": 0.47244094488188976,
                    "duration": 0.04838712500000497
                },
                {
                    "name": "D2",
                    "midi": 38,
                    "time": 172.25816499999956,
                    "velocity": 0.5039370078740157,
                    "duration": 0.09677425000000994
                },
                {
                    "name": "D2",
                    "midi": 38,
                    "time": 172.54848774999957,
                    "velocity": 0.4645669291338583,
                    "duration": 0.04838712500000497
                },
                {
                    "name": "D2",
                    "midi": 38,
                    "time": 172.64526199999958,
                    "velocity": 0.5039370078740157,
                    "duration": 0.09677425000000994
                },
                {
                    "name": "E2",
                    "midi": 40,
                    "time": 172.93558474999958,
                    "velocity": 0.47244094488188976,
                    "duration": 0.04838712500000497
                },
                {
                    "name": "F2",
                    "midi": 41,
                    "time": 173.0323589999996,
                    "velocity": 0.5748031496062992,
                    "duration": 0.282258229166672
                },
                {
                    "name": "F2",
                    "midi": 41,
                    "time": 173.3226817499996,
                    "velocity": 0.5196850393700787,
                    "duration": 0.04838712500000497
                },
                {
                    "name": "F2",
                    "midi": 41,
                    "time": 173.4194559999996,
                    "velocity": 0.5511811023622047,
                    "duration": 0.09677425000000994
                },
                {
                    "name": "F2",
                    "midi": 41,
                    "time": 173.7097787499996,
                    "velocity": 0.5039370078740157,
                    "duration": 0.04838712500000497
                },
                {
                    "name": "F2",
                    "midi": 41,
                    "time": 173.8065529999996,
                    "velocity": 0.5511811023622047,
                    "duration": 0.09677425000000994
                },
                {
                    "name": "G2",
                    "midi": 43,
                    "time": 174.0968757499996,
                    "velocity": 0.5196850393700787,
                    "duration": 0.04838712500000497
                },
                {
                    "name": "A2",
                    "midi": 45,
                    "time": 174.19364999999962,
                    "velocity": 0.6299212598425197,
                    "duration": 0.282258229166672
                },
                {
                    "name": "A1",
                    "midi": 33,
                    "time": 174.48397274999962,
                    "velocity": 0.4094488188976378,
                    "duration": 0.04838712500000497
                },
                {
                    "name": "A2",
                    "midi": 45,
                    "time": 174.48397274999962,
                    "velocity": 0.48031496062992124,
                    "duration": 0.04838712500000497
                },
                {
                    "name": "A1",
                    "midi": 33,
                    "time": 174.58074699999963,
                    "velocity": 0.4330708661417323,
                    "duration": 0.09677425000000994
                },
                {
                    "name": "A2",
                    "midi": 45,
                    "time": 174.58074699999963,
                    "velocity": 0.5118110236220472,
                    "duration": 0.09677425000000994
                },
                {
                    "name": "B1",
                    "midi": 35,
                    "time": 174.87106974999963,
                    "velocity": 0.4094488188976378,
                    "duration": 0.04838712500000497
                },
                {
                    "name": "B2",
                    "midi": 47,
                    "time": 174.87106974999963,
                    "velocity": 0.48031496062992124,
                    "duration": 0.04838712500000497
                },
                {
                    "name": "C#2",
                    "midi": 37,
                    "time": 174.96784399999964,
                    "velocity": 0.44881889763779526,
                    "duration": 0.09677425000000994
                },
                {
                    "name": "C#3",
                    "midi": 49,
                    "time": 174.96784399999964,
                    "velocity": 0.5275590551181102,
                    "duration": 0.09677425000000994
                },
                {
                    "name": "D2",
                    "midi": 38,
                    "time": 175.25816674999965,
                    "velocity": 0.4330708661417323,
                    "duration": 0.04838712500000497
                },
                {
                    "name": "D3",
                    "midi": 50,
                    "time": 175.25816674999965,
                    "velocity": 0.5118110236220472,
                    "duration": 0.04838712500000497
                },
                {
                    "name": "A2",
                    "midi": 45,
                    "time": 175.35494099999966,
                    "velocity": 0.4566929133858268,
                    "duration": 0.7741940000000227
                },
                {
                    "name": "E2",
                    "midi": 40,
                    "time": 175.35494099999966,
                    "velocity": 0.4566929133858268,
                    "duration": 0.7508068895833446
                },
                {
                    "name": "C#3",
                    "midi": 49,
                    "time": 175.35494099999966,
                    "velocity": 0.4566929133858268,
                    "duration": 0.7508068895833446
                },
                {
                    "name": "E3",
                    "midi": 52,
                    "time": 175.35494099999966,
                    "velocity": 0.5511811023622047,
                    "duration": 0.7508068895833446
                },
                {
                    "name": "A2",
                    "midi": 45,
                    "time": 176.12913499999968,
                    "velocity": 0.4566929133858268,
                    "duration": 0.6572584479166608
                },
                {
                    "name": "E2",
                    "midi": 40,
                    "time": 176.12913499999968,
                    "velocity": 0.4566929133858268,
                    "duration": 0.6572584479166608
                },
                {
                    "name": "C#3",
                    "midi": 49,
                    "time": 176.12913499999968,
                    "velocity": 0.4566929133858268,
                    "duration": 0.6572584479166608
                },
                {
                    "name": "E3",
                    "midi": 52,
                    "time": 176.12913499999968,
                    "velocity": 0.5511811023622047,
                    "duration": 0.6572584479166608
                },
                {
                    "name": "E2",
                    "midi": 40,
                    "time": 176.80655474999966,
                    "velocity": 0.4409448818897638,
                    "duration": 0.09677425000000994
                },
                {
                    "name": "E3",
                    "midi": 52,
                    "time": 176.80655474999966,
                    "velocity": 0.5196850393700787,
                    "duration": 0.09677425000000994
                },
                {
                    "name": "E2",
                    "midi": 40,
                    "time": 176.90332899999967,
                    "velocity": 0.4566929133858268,
                    "duration": 0.26774209166666196
                },
                {
                    "name": "E3",
                    "midi": 52,
                    "time": 176.90332899999967,
                    "velocity": 0.5433070866141733,
                    "duration": 0.26774209166666196
                },
                {
                    "name": "D2",
                    "midi": 38,
                    "time": 177.19365174999967,
                    "velocity": 0.4330708661417323,
                    "duration": 0.09677425000000994
                },
                {
                    "name": "D3",
                    "midi": 50,
                    "time": 177.19365174999967,
                    "velocity": 0.5118110236220472,
                    "duration": 0.09677425000000994
                },
                {
                    "name": "C#2",
                    "midi": 37,
                    "time": 177.29042599999968,
                    "velocity": 0.47244094488188976,
                    "duration": 0.26774209166666196
                },
                {
                    "name": "C#3",
                    "midi": 49,
                    "time": 177.29042599999968,
                    "velocity": 0.5669291338582677,
                    "duration": 0.26774209166666196
                },
                {
                    "name": "B1",
                    "midi": 35,
                    "time": 177.58074874999969,
                    "velocity": 0.4881889763779528,
                    "duration": 0.09677425000000994
                },
                {
                    "name": "B2",
                    "midi": 47,
                    "time": 177.58074874999969,
                    "velocity": 0.5826771653543307,
                    "duration": 0.09677425000000994
                },
                {
                    "name": "A1",
                    "midi": 33,
                    "time": 177.6775229999997,
                    "velocity": 0.5118110236220472,
                    "duration": 0.7508068895833446
                },
                {
                    "name": "A2",
                    "midi": 45,
                    "time": 177.6775229999997,
                    "velocity": 0.5826771653543307,
                    "duration": 0.7508068895833446
                },
                {
                    "name": "E2",
                    "midi": 40,
                    "time": 178.45171699999972,
                    "velocity": 0.5118110236220472,
                    "duration": 0.6612907083333255
                },
                {
                    "name": "A1",
                    "midi": 33,
                    "time": 178.45171699999972,
                    "velocity": 0.5118110236220472,
                    "duration": 0.6612907083333255
                },
                {
                    "name": "A2",
                    "midi": 45,
                    "time": 178.45171699999972,
                    "velocity": 0.5826771653543307,
                    "duration": 0.6612907083333255
                },
                {
                    "name": "A2",
                    "midi": 45,
                    "time": 179.1291367499997,
                    "velocity": 0.3779527559055118,
                    "duration": 0.04838712500000497
                },
                {
                    "name": "B2",
                    "midi": 47,
                    "time": 179.2259109999997,
                    "velocity": 0.4015748031496063,
                    "duration": 0.09677425000000994
                },
                {
                    "name": "A2",
                    "midi": 45,
                    "time": 179.5162337499997,
                    "velocity": 0.3700787401574803,
                    "duration": 0.04838712500000497
                },
                {
                    "name": "B2",
                    "midi": 47,
                    "time": 179.61300799999972,
                    "velocity": 0.4015748031496063,
                    "duration": 0.09677425000000994
                },
                {
                    "name": "C#3",
                    "midi": 49,
                    "time": 179.90333074999972,
                    "velocity": 0.3779527559055118,
                    "duration": 0.04838712500000497
                },
                {
                    "name": "D3",
                    "midi": 50,
                    "time": 180.00010499999973,
                    "velocity": 0.4251968503937008,
                    "duration": 0.7508068895833446
                },
                {
                    "name": "D3",
                    "midi": 50,
                    "time": 180.77429899999976,
                    "velocity": 0.3543307086614173,
                    "duration": 0.6572584479166608
                },
                {
                    "name": "F#3",
                    "midi": 54,
                    "time": 180.77429899999976,
                    "velocity": 0.4251968503937008,
                    "duration": 0.6572584479166608
                },
                {
                    "name": "D3",
                    "midi": 50,
                    "time": 181.45171874999974,
                    "velocity": 0.3464566929133858,
                    "duration": 0.08870972916668052
                },
                {
                    "name": "D3",
                    "midi": 50,
                    "time": 181.54849299999975,
                    "velocity": 0.3937007874015748,
                    "duration": 0.09677425000000994
                },
                {
                    "name": "B2",
                    "midi": 47,
                    "time": 181.54849299999975,
                    "velocity": 0.33070866141732286,
                    "duration": 0.09677425000000994
                },
                {
                    "name": "D3",
                    "midi": 50,
                    "time": 181.83881574999975,
                    "velocity": 0.3700787401574803,
                    "duration": 0.09677425000000994
                },
                {
                    "name": "B2",
                    "midi": 47,
                    "time": 181.83881574999975,
                    "velocity": 0.31496062992125984,
                    "duration": 0.09677425000000994
                },
                {
                    "name": "A#2",
                    "midi": 46,
                    "time": 181.93075128749976,
                    "velocity": 0.3228346456692913,
                    "duration": 0.09677425000000994
                },
                {
                    "name": "D3",
                    "midi": 50,
                    "time": 181.94042871249977,
                    "velocity": 0.3858267716535433,
                    "duration": 0.09677425000000994
                },
                {
                    "name": "A#2",
                    "midi": 46,
                    "time": 182.22591274999976,
                    "velocity": 0.31496062992125984,
                    "duration": 0.09677425000000994
                },
                {
                    "name": "D3",
                    "midi": 50,
                    "time": 182.22591274999976,
                    "velocity": 0.3700787401574803,
                    "duration": 0.09677425000000994
                },
                {
                    "name": "A2",
                    "midi": 45,
                    "time": 182.32268699999977,
                    "velocity": 0.3543307086614173,
                    "duration": 0.7508068895833446
                },
                {
                    "name": "E3",
                    "midi": 52,
                    "time": 182.32268699999977,
                    "velocity": 0.4251968503937008,
                    "duration": 0.7508068895833446
                },
                {
                    "name": "A2",
                    "midi": 45,
                    "time": 183.0968809999998,
                    "velocity": 0.3543307086614173,
                    "duration": 0.6572584479166608
                },
                {
                    "name": "A3",
                    "midi": 57,
                    "time": 183.0968809999998,
                    "velocity": 0.4251968503937008,
                    "duration": 0.6572584479166608
                },
                {
                    "name": "C#3",
                    "midi": 49,
                    "time": 183.77430074999978,
                    "velocity": 0.2755905511811024,
                    "duration": 0.08870972916668052
                },
                {
                    "name": "A3",
                    "midi": 57,
                    "time": 183.77430074999978,
                    "velocity": 0.3464566929133858,
                    "duration": 0.08870972916668052
                },
                {
                    "name": "A3",
                    "midi": 57,
                    "time": 183.8710749999998,
                    "velocity": 0.3937007874015748,
                    "duration": 0.09677425000000994
                },
                {
                    "name": "C#3",
                    "midi": 49,
                    "time": 183.8710749999998,
                    "velocity": 0.33070866141732286,
                    "duration": 0.09677425000000994
                },
                {
                    "name": "A3",
                    "midi": 57,
                    "time": 184.1613977499998,
                    "velocity": 0.3700787401574803,
                    "duration": 0.09677425000000994
                },
                {
                    "name": "C#3",
                    "midi": 49,
                    "time": 184.1613977499998,
                    "velocity": 0.31496062992125984,
                    "duration": 0.09677425000000994
                },
                {
                    "name": "C#3",
                    "midi": 49,
                    "time": 184.2581719999998,
                    "velocity": 0.3228346456692913,
                    "duration": 0.09677425000000994
                },
                {
                    "name": "A3",
                    "midi": 57,
                    "time": 184.2581719999998,
                    "velocity": 0.3858267716535433,
                    "duration": 0.09677425000000994
                },
                {
                    "name": "C#3",
                    "midi": 49,
                    "time": 184.5484947499998,
                    "velocity": 0.31496062992125984,
                    "duration": 0.09677425000000994
                },
                {
                    "name": "A3",
                    "midi": 57,
                    "time": 184.5484947499998,
                    "velocity": 0.3700787401574803,
                    "duration": 0.09677425000000994
                },
                {
                    "name": "F#3",
                    "midi": 54,
                    "time": 184.64526899999981,
                    "velocity": 0.3543307086614173,
                    "duration": 0.7741940000000227
                },
                {
                    "name": "B2",
                    "midi": 47,
                    "time": 184.64526899999981,
                    "velocity": 0.3543307086614173,
                    "duration": 0.7508068895833446
                },
                {
                    "name": "B3",
                    "midi": 59,
                    "time": 184.64526899999981,
                    "velocity": 0.4251968503937008,
                    "duration": 0.7508068895833446
                },
                {
                    "name": "D3",
                    "midi": 50,
                    "time": 185.41946299999984,
                    "velocity": 0.3543307086614173,
                    "duration": 0.6572584479166608
                },
                {
                    "name": "B3",
                    "midi": 59,
                    "time": 185.41946299999984,
                    "velocity": 0.4251968503937008,
                    "duration": 0.6572584479166608
                },
                {
                    "name": "E3",
                    "midi": 52,
                    "time": 186.09688274999982,
                    "velocity": 0.2755905511811024,
                    "duration": 0.08870972916668052
                },
                {
                    "name": "B3",
                    "midi": 59,
                    "time": 186.09688274999982,
                    "velocity": 0.3464566929133858,
                    "duration": 0.08870972916668052
                },
                {
                    "name": "B3",
                    "midi": 59,
                    "time": 186.19365699999983,
                    "velocity": 0.3937007874015748,
                    "duration": 0.09677425000000994
                },
                {
                    "name": "E3",
                    "midi": 52,
                    "time": 186.19365699999983,
                    "velocity": 0.33070866141732286,
                    "duration": 0.09677425000000994
                },
                {
                    "name": "B3",
                    "midi": 59,
                    "time": 186.48397974999983,
                    "velocity": 0.3700787401574803,
                    "duration": 0.09677425000000994
                },
                {
                    "name": "E3",
                    "midi": 52,
                    "time": 186.48397974999983,
                    "velocity": 0.31496062992125984,
                    "duration": 0.09677425000000994
                },
                {
                    "name": "E3",
                    "midi": 52,
                    "time": 186.58075399999984,
                    "velocity": 0.3228346456692913,
                    "duration": 0.09677425000000994
                },
                {
                    "name": "B3",
                    "midi": 59,
                    "time": 186.58075399999984,
                    "velocity": 0.3858267716535433,
                    "duration": 0.09677425000000994
                },
                {
                    "name": "E3",
                    "midi": 52,
                    "time": 186.87107674999984,
                    "velocity": 0.31496062992125984,
                    "duration": 0.09677425000000994
                },
                {
                    "name": "B3",
                    "midi": 59,
                    "time": 186.87107674999984,
                    "velocity": 0.3700787401574803,
                    "duration": 0.09677425000000994
                },
                {
                    "name": "E3",
                    "midi": 52,
                    "time": 186.96785099999985,
                    "velocity": 0.3543307086614173,
                    "duration": 0.7741940000000227
                },
                {
                    "name": "A2",
                    "midi": 45,
                    "time": 186.96785099999985,
                    "velocity": 0.3543307086614173,
                    "duration": 0.7508068895833446
                },
                {
                    "name": "A3",
                    "midi": 57,
                    "time": 186.96785099999985,
                    "velocity": 0.4251968503937008,
                    "duration": 0.7508068895833446
                },
                {
                    "name": "A2",
                    "midi": 45,
                    "time": 187.74204499999988,
                    "velocity": 0.3543307086614173,
                    "duration": 0.7661294791666649
                },
                {
                    "name": "E3",
                    "midi": 52,
                    "time": 187.74204499999988,
                    "velocity": 0.3543307086614173,
                    "duration": 0.7661294791666649
                },
                {
                    "name": "A3",
                    "midi": 57,
                    "time": 187.74204499999988,
                    "velocity": 0.4251968503937008,
                    "duration": 0.7661294791666649
                },
                {
                    "name": "D3",
                    "midi": 50,
                    "time": 188.51623899999987,
                    "velocity": 0.3543307086614173,
                    "duration": 0.367742149999998
                },
                {
                    "name": "C#3",
                    "midi": 49,
                    "time": 188.90333599999988,
                    "velocity": 0.29133858267716534,
                    "duration": 0.3758066708333274
                },
                {
                    "name": "B2",
                    "midi": 47,
                    "time": 189.29043299999987,
                    "velocity": 0.5275590551181102,
                    "duration": 0.12903233333332764
                },
                {
                    "name": "A#2",
                    "midi": 46,
                    "time": 189.4194653333332,
                    "velocity": 0.44881889763779526,
                    "duration": 0.12903233333332764
                },
                {
                    "name": "B2",
                    "midi": 47,
                    "time": 189.54849766666652,
                    "velocity": 0.44881889763779526,
                    "duration": 0.12903233333332764
                },
                {
                    "name": "G2",
                    "midi": 43,
                    "time": 189.67752999999985,
                    "velocity": 0.5354330708661418,
                    "duration": 0.12903233333332764
                },
                {
                    "name": "F#2",
                    "midi": 42,
                    "time": 189.80656233333318,
                    "velocity": 0.48031496062992124,
                    "duration": 0.12903233333332764
                },
                {
                    "name": "G2",
                    "midi": 43,
                    "time": 189.9355946666665,
                    "velocity": 0.5118110236220472,
                    "duration": 0.12903233333332764
                },
                {
                    "name": "E2",
                    "midi": 40,
                    "time": 190.06462699999983,
                    "velocity": 0.5826771653543307,
                    "duration": 0.6774197500000128
                },
                {
                    "name": "F#2",
                    "midi": 42,
                    "time": 190.74204674999984,
                    "velocity": 0.48031496062992124,
                    "duration": 0.09677425000000994
                },
                {
                    "name": "G2",
                    "midi": 43,
                    "time": 190.83882099999985,
                    "velocity": 0.5433070866141733,
                    "duration": 0.2903227500000014
                },
                {
                    "name": "A2",
                    "midi": 45,
                    "time": 191.12914374999986,
                    "velocity": 0.4881889763779528,
                    "duration": 0.09677425000000994
                },
                {
                    "name": "B2",
                    "midi": 47,
                    "time": 191.22591799999987,
                    "velocity": 0.5511811023622047,
                    "duration": 0.2903227500000014
                },
                {
                    "name": "C#3",
                    "midi": 49,
                    "time": 191.51624074999987,
                    "velocity": 0.4881889763779528,
                    "duration": 0.09677425000000994
                },
                {
                    "name": "A2",
                    "midi": 45,
                    "time": 191.61301499999988,
                    "velocity": 0.5433070866141733,
                    "duration": 0.12903233333332764
                },
                {
                    "name": "G#2",
                    "midi": 44,
                    "time": 191.7420473333332,
                    "velocity": 0.49606299212598426,
                    "duration": 0.12903233333332764
                },
                {
                    "name": "A2",
                    "midi": 45,
                    "time": 191.87107966666653,
                    "velocity": 0.4645669291338583,
                    "duration": 0.12903233333332764
                },
                {
                    "name": "F#2",
                    "midi": 42,
                    "time": 192.00011199999986,
                    "velocity": 0.5354330708661418,
                    "duration": 0.12903233333332764
                },
                {
                    "name": "F2",
                    "midi": 41,
                    "time": 192.1291443333332,
                    "velocity": 0.5118110236220472,
                    "duration": 0.12903233333332764
                },
                {
                    "name": "F#2",
                    "midi": 42,
                    "time": 192.25817666666651,
                    "velocity": 0.5433070866141733,
                    "duration": 0.12903233333332764
                },
                {
                    "name": "D2",
                    "midi": 38,
                    "time": 192.38720899999984,
                    "velocity": 0.5826771653543307,
                    "duration": 0.6774197500000128
                },
                {
                    "name": "E2",
                    "midi": 40,
                    "time": 193.06462874999986,
                    "velocity": 0.48031496062992124,
                    "duration": 0.09677425000000994
                },
                {
                    "name": "F#2",
                    "midi": 42,
                    "time": 193.16140299999986,
                    "velocity": 0.5433070866141733,
                    "duration": 0.2903227500000014
                },
                {
                    "name": "G2",
                    "midi": 43,
                    "time": 193.45172574999987,
                    "velocity": 0.4881889763779528,
                    "duration": 0.09677425000000994
                },
                {
                    "name": "A2",
                    "midi": 45,
                    "time": 193.54849999999988,
                    "velocity": 0.5511811023622047,
                    "duration": 0.2903227500000014
                },
                {
                    "name": "B2",
                    "midi": 47,
                    "time": 193.83882274999988,
                    "velocity": 0.4881889763779528,
                    "duration": 0.09677425000000994
                },
                {
                    "name": "G2",
                    "midi": 43,
                    "time": 193.9355969999999,
                    "velocity": 0.5511811023622047,
                    "duration": 0.12903233333332764
                },
                {
                    "name": "F#2",
                    "midi": 42,
                    "time": 194.06462933333322,
                    "velocity": 0.4566929133858268,
                    "duration": 0.12903233333332764
                },
                {
                    "name": "G2",
                    "midi": 43,
                    "time": 194.19366166666654,
                    "velocity": 0.4566929133858268,
                    "duration": 0.12903233333332764
                },
                {
                    "name": "E2",
                    "midi": 40,
                    "time": 194.32269399999987,
                    "velocity": 0.49606299212598426,
                    "duration": 0.12903233333332764
                },
                {
                    "name": "D#2",
                    "midi": 39,
                    "time": 194.4517263333332,
                    "velocity": 0.5118110236220472,
                    "duration": 0.12903233333332764
                },
                {
                    "name": "E2",
                    "midi": 40,
                    "time": 194.58075866666653,
                    "velocity": 0.5354330708661418,
                    "duration": 0.12903233333332764
                },
                {
                    "name": "C#2",
                    "midi": 37,
                    "time": 194.70979099999985,
                    "velocity": 0.5669291338582677,
                    "duration": 0.6774197500000128
                },
                {
                    "name": "D2",
                    "midi": 38,
                    "time": 195.38721074999987,
                    "velocity": 0.4645669291338583,
                    "duration": 0.09677425000000994
                },
                {
                    "name": "E2",
                    "midi": 40,
                    "time": 195.48398499999988,
                    "velocity": 0.5748031496062992,
                    "duration": 0.2903227500000014
                },
                {
                    "name": "C#2",
                    "midi": 37,
                    "time": 195.77430774999988,
                    "velocity": 0.44881889763779526,
                    "duration": 0.09677425000000994
                },
                {
                    "name": "F2",
                    "midi": 41,
                    "time": 195.8710819999999,
                    "velocity": 0.5590551181102362,
                    "duration": 0.2903227500000014
                },
                {
                    "name": "C#2",
                    "midi": 37,
                    "time": 196.1614047499999,
                    "velocity": 0.4566929133858268,
                    "duration": 0.09677425000000994
                },
                {
                    "name": "F#2",
                    "midi": 42,
                    "time": 196.2581789999999,
                    "velocity": 0.5590551181102362,
                    "duration": 0.7508068895833446
                },
                {
                    "name": "F#2",
                    "midi": 42,
                    "time": 197.03237299999992,
                    "velocity": 0.5354330708661418,
                    "duration": 0.6572584479166608
                },
                {
                    "name": "A#2",
                    "midi": 46,
                    "time": 197.7097927499999,
                    "velocity": 0.48031496062992124,
                    "duration": 0.04838712500000497
                },
                {
                    "name": "B2",
                    "midi": 47,
                    "time": 197.80656699999992,
                    "velocity": 0.5118110236220472,
                    "duration": 0.09677425000000994
                },
                {
                    "name": "A#2",
                    "midi": 46,
                    "time": 198.09688974999992,
                    "velocity": 0.48031496062992124,
                    "duration": 0.04838712500000497
                },
                {
                    "name": "B2",
                    "midi": 47,
                    "time": 198.19366399999993,
                    "velocity": 0.5275590551181102,
                    "duration": 0.09677425000000994
                },
                {
                    "name": "A#2",
                    "midi": 46,
                    "time": 198.48398674999993,
                    "velocity": 0.5118110236220472,
                    "duration": 0.04838712500000497
                },
                {
                    "name": "G#2",
                    "midi": 44,
                    "time": 198.58076099999994,
                    "velocity": 0.4566929133858268,
                    "duration": 0.7741940000000227
                },
                {
                    "name": "C#3",
                    "midi": 49,
                    "time": 198.58076099999994,
                    "velocity": 0.5511811023622047,
                    "duration": 0.7508068895833446
                },
                {
                    "name": "G#2",
                    "midi": 44,
                    "time": 199.35495499999996,
                    "velocity": 0.4566929133858268,
                    "duration": 0.6572584479166608
                },
                {
                    "name": "C#3",
                    "midi": 49,
                    "time": 199.35495499999996,
                    "velocity": 0.5511811023622047,
                    "duration": 0.6572584479166608
                },
                {
                    "name": "G#2",
                    "midi": 44,
                    "time": 200.03237474999995,
                    "velocity": 0.4409448818897638,
                    "duration": 0.09677425000000994
                },
                {
                    "name": "C#3",
                    "midi": 49,
                    "time": 200.03237474999995,
                    "velocity": 0.5196850393700787,
                    "duration": 0.09677425000000994
                },
                {
                    "name": "A#2",
                    "midi": 46,
                    "time": 200.12914899999996,
                    "velocity": 0.4566929133858268,
                    "duration": 0.26774209166666196
                },
                {
                    "name": "C#3",
                    "midi": 49,
                    "time": 200.12914899999996,
                    "velocity": 0.5433070866141733,
                    "duration": 0.26774209166666196
                },
                {
                    "name": "G#2",
                    "midi": 44,
                    "time": 200.41947174999996,
                    "velocity": 0.4330708661417323,
                    "duration": 0.09677425000000994
                },
                {
                    "name": "C#3",
                    "midi": 49,
                    "time": 200.41947174999996,
                    "velocity": 0.5118110236220472,
                    "duration": 0.09677425000000994
                },
                {
                    "name": "A#2",
                    "midi": 46,
                    "time": 200.51624599999997,
                    "velocity": 0.47244094488188976,
                    "duration": 0.26774209166666196
                },
                {
                    "name": "C#3",
                    "midi": 49,
                    "time": 200.51624599999997,
                    "velocity": 0.5669291338582677,
                    "duration": 0.26774209166666196
                },
                {
                    "name": "G#2",
                    "midi": 44,
                    "time": 200.80656874999997,
                    "velocity": 0.4881889763779528,
                    "duration": 0.09677425000000994
                },
                {
                    "name": "C#3",
                    "midi": 49,
                    "time": 200.80656874999997,
                    "velocity": 0.5826771653543307,
                    "duration": 0.09677425000000994
                },
                {
                    "name": "F#2",
                    "midi": 42,
                    "time": 200.90334299999998,
                    "velocity": 0.5118110236220472,
                    "duration": 0.7508068895833446
                },
                {
                    "name": "C#3",
                    "midi": 49,
                    "time": 200.90334299999998,
                    "velocity": 0.5826771653543307,
                    "duration": 0.7508068895833446
                },
                {
                    "name": "F#2",
                    "midi": 42,
                    "time": 201.677537,
                    "velocity": 0.5118110236220472,
                    "duration": 0.6612907083333255
                },
                {
                    "name": "C#3",
                    "midi": 49,
                    "time": 201.677537,
                    "velocity": 0.5826771653543307,
                    "duration": 0.6612907083333255
                },
                {
                    "name": "A3",
                    "midi": 57,
                    "time": 202.35495674999999,
                    "velocity": 0.3779527559055118,
                    "duration": 0.04838712500000497
                },
                {
                    "name": "A3",
                    "midi": 57,
                    "time": 202.451731,
                    "velocity": 0.4015748031496063,
                    "duration": 0.28145177708333335
                },
                {
                    "name": "A3",
                    "midi": 57,
                    "time": 202.74205375,
                    "velocity": 0.3700787401574803,
                    "duration": 0.04838712500000497
                },
                {
                    "name": "B3",
                    "midi": 59,
                    "time": 202.82753767083332,
                    "velocity": 0.4015748031496063,
                    "duration": 0.28145177708333335
                },
                {
                    "name": "C#4",
                    "midi": 61,
                    "time": 203.12915074999998,
                    "velocity": 0.3779527559055118,
                    "duration": 0.04838712500000497
                },
                {
                    "name": "D4",
                    "midi": 62,
                    "time": 203.225925,
                    "velocity": 0.4251968503937008,
                    "duration": 0.7508068895833446
                },
                {
                    "name": "D4",
                    "midi": 62,
                    "time": 204.000119,
                    "velocity": 0.4251968503937008,
                    "duration": 0.6572584479166608
                },
                {
                    "name": "D4",
                    "midi": 62,
                    "time": 204.67753875,
                    "velocity": 0.3464566929133858,
                    "duration": 0.08629037291666464
                },
                {
                    "name": "D4",
                    "midi": 62,
                    "time": 204.774313,
                    "velocity": 0.3937007874015748,
                    "duration": 0.09677425000000994
                },
                {
                    "name": "D4",
                    "midi": 62,
                    "time": 205.05334542083335,
                    "velocity": 0.3700787401574803,
                    "duration": 0.09354844166665544
                },
                {
                    "name": "B3",
                    "midi": 59,
                    "time": 205.16141000000002,
                    "velocity": 0.3228346456692913,
                    "duration": 0.09677425000000994
                },
                {
                    "name": "D4",
                    "midi": 62,
                    "time": 205.16141000000002,
                    "velocity": 0.3858267716535433,
                    "duration": 0.09677425000000994
                },
                {
                    "name": "B3",
                    "midi": 59,
                    "time": 205.45173275000002,
                    "velocity": 0.31496062992125984,
                    "duration": 0.09677425000000994
                },
                {
                    "name": "D4",
                    "midi": 62,
                    "time": 205.45173275000002,
                    "velocity": 0.3700787401574803,
                    "duration": 0.09677425000000994
                },
                {
                    "name": "A3",
                    "midi": 57,
                    "time": 205.54850700000003,
                    "velocity": 0.3543307086614173,
                    "duration": 0.7508068895833446
                },
                {
                    "name": "E4",
                    "midi": 64,
                    "time": 205.54850700000003,
                    "velocity": 0.4251968503937008,
                    "duration": 0.7508068895833446
                },
                {
                    "name": "A3",
                    "midi": 57,
                    "time": 206.32270100000005,
                    "velocity": 0.3543307086614173,
                    "duration": 0.6572584479166608
                },
                {
                    "name": "C#4",
                    "midi": 61,
                    "time": 206.32270100000005,
                    "velocity": 0.4251968503937008,
                    "duration": 0.6572584479166608
                },
                {
                    "name": "F#3",
                    "midi": 54,
                    "time": 207.00012075000004,
                    "velocity": 0.2755905511811024,
                    "duration": 0.08629037291666464
                },
                {
                    "name": "C#4",
                    "midi": 61,
                    "time": 207.00012075000004,
                    "velocity": 0.3464566929133858,
                    "duration": 0.08629037291666464
                },
                {
                    "name": "C#4",
                    "midi": 61,
                    "time": 207.09689500000005,
                    "velocity": 0.3937007874015748,
                    "duration": 0.09677425000000994
                },
                {
                    "name": "F#3",
                    "midi": 54,
                    "time": 207.09689500000005,
                    "velocity": 0.33070866141732286,
                    "duration": 0.09677425000000994
                },
                {
                    "name": "C#4",
                    "midi": 61,
                    "time": 207.3759274208334,
                    "velocity": 0.3700787401574803,
                    "duration": 0.09354844166665544
                },
                {
                    "name": "F#3",
                    "midi": 54,
                    "time": 207.3759274208334,
                    "velocity": 0.31496062992125984,
                    "duration": 0.09354844166665544
                },
                {
                    "name": "F#3",
                    "midi": 54,
                    "time": 207.48399200000006,
                    "velocity": 0.3228346456692913,
                    "duration": 0.09677425000000994
                },
                {
                    "name": "D4",
                    "midi": 62,
                    "time": 207.48399200000006,
                    "velocity": 0.3858267716535433,
                    "duration": 0.09677425000000994
                },
                {
                    "name": "F#3",
                    "midi": 54,
                    "time": 207.77431475000006,
                    "velocity": 0.31496062992125984,
                    "duration": 0.09677425000000994
                },
                {
                    "name": "E4",
                    "midi": 64,
                    "time": 207.77431475000006,
                    "velocity": 0.3700787401574803,
                    "duration": 0.09677425000000994
                },
                {
                    "name": "G3",
                    "midi": 55,
                    "time": 207.87108900000007,
                    "velocity": 0.3543307086614173,
                    "duration": 0.7741940000000227
                },
                {
                    "name": "D4",
                    "midi": 62,
                    "time": 207.87108900000007,
                    "velocity": 0.4251968503937008,
                    "duration": 0.7508068895833446
                },
                {
                    "name": "G3",
                    "midi": 55,
                    "time": 208.6452830000001,
                    "velocity": 0.3543307086614173,
                    "duration": 0.6572584479166608
                },
                {
                    "name": "B3",
                    "midi": 59,
                    "time": 208.6452830000001,
                    "velocity": 0.4251968503937008,
                    "duration": 0.6572584479166608
                },
                {
                    "name": "A2",
                    "midi": 45,
                    "time": 209.32270275000008,
                    "velocity": 0.3464566929133858,
                    "duration": 0.08870972916668052
                },
                {
                    "name": "A2",
                    "midi": 45,
                    "time": 209.4194770000001,
                    "velocity": 0.3937007874015748,
                    "duration": 0.09677425000000994
                },
                {
                    "name": "A2",
                    "midi": 45,
                    "time": 209.7097997500001,
                    "velocity": 0.3700787401574803,
                    "duration": 0.09677425000000994
                },
                {
                    "name": "A2",
                    "midi": 45,
                    "time": 209.8065740000001,
                    "velocity": 0.3858267716535433,
                    "duration": 0.09677425000000994
                },
                {
                    "name": "A2",
                    "midi": 45,
                    "time": 210.0968967500001,
                    "velocity": 0.3700787401574803,
                    "duration": 0.09677425000000994
                },
                {
                    "name": "D3",
                    "midi": 50,
                    "time": 210.1936710000001,
                    "velocity": 0.4251968503937008,
                    "duration": 0.7508068895833446
                },
                {
                    "name": "D3",
                    "midi": 50,
                    "time": 210.96786500000013,
                    "velocity": 0.4251968503937008,
                    "duration": 0.7661294791666649
                },
                {
                    "name": "D3",
                    "midi": 50,
                    "time": 211.74205900000013,
                    "velocity": 0.3543307086614173,
                    "duration": 0.367742149999998
                },
                {
                    "name": "C#3",
                    "midi": 49,
                    "time": 212.12915600000014,
                    "velocity": 0.29133858267716534,
                    "duration": 0.3758066708333274
                },
                {
                    "name": "B2",
                    "midi": 47,
                    "time": 212.51625300000012,
                    "velocity": 0.5275590551181102,
                    "duration": 0.12903233333332764
                },
                {
                    "name": "A#2",
                    "midi": 46,
                    "time": 212.64528533333345,
                    "velocity": 0.44881889763779526,
                    "duration": 0.12903233333332764
                },
                {
                    "name": "B2",
                    "midi": 47,
                    "time": 212.77431766666678,
                    "velocity": 0.44881889763779526,
                    "duration": 0.12903233333332764
                },
                {
                    "name": "G2",
                    "midi": 43,
                    "time": 212.9033500000001,
                    "velocity": 0.5354330708661418,
                    "duration": 0.12903233333332764
                },
                {
                    "name": "F#2",
                    "midi": 42,
                    "time": 213.03238233333343,
                    "velocity": 0.48031496062992124,
                    "duration": 0.12903233333332764
                },
                {
                    "name": "G2",
                    "midi": 43,
                    "time": 213.16141466666676,
                    "velocity": 0.5118110236220472,
                    "duration": 0.12903233333332764
                },
                {
                    "name": "E2",
                    "midi": 40,
                    "time": 213.29044700000009,
                    "velocity": 0.5826771653543307,
                    "duration": 0.6774197500000128
                },
                {
                    "name": "F#2",
                    "midi": 42,
                    "time": 213.9678667500001,
                    "velocity": 0.48031496062992124,
                    "duration": 0.09677425000000994
                },
                {
                    "name": "G2",
                    "midi": 43,
                    "time": 214.0646410000001,
                    "velocity": 0.5433070866141733,
                    "duration": 0.2903227500000014
                },
                {
                    "name": "A2",
                    "midi": 45,
                    "time": 214.3549637500001,
                    "velocity": 0.4881889763779528,
                    "duration": 0.09677425000000994
                },
                {
                    "name": "B2",
                    "midi": 47,
                    "time": 214.45173800000012,
                    "velocity": 0.5511811023622047,
                    "duration": 0.2903227500000014
                },
                {
                    "name": "D3",
                    "midi": 50,
                    "time": 214.74206075000012,
                    "velocity": 0.4881889763779528,
                    "duration": 0.09677425000000994
                },
                {
                    "name": "C#3",
                    "midi": 49,
                    "time": 214.83883500000013,
                    "velocity": 0.5433070866141733,
                    "duration": 0.12903233333332764
                },
                {
                    "name": "C3",
                    "midi": 48,
                    "time": 214.96786733333346,
                    "velocity": 0.49606299212598426,
                    "duration": 0.12903233333332764
                },
                {
                    "name": "C#3",
                    "midi": 49,
                    "time": 215.0968996666668,
                    "velocity": 0.4645669291338583,
                    "duration": 0.12903233333332764
                },
                {
                    "name": "A2",
                    "midi": 45,
                    "time": 215.2259320000001,
                    "velocity": 0.5354330708661418,
                    "duration": 0.12903233333332764
                },
                {
                    "name": "G#2",
                    "midi": 44,
                    "time": 215.35496433333344,
                    "velocity": 0.5118110236220472,
                    "duration": 0.12903233333332764
                },
                {
                    "name": "A2",
                    "midi": 45,
                    "time": 215.48399666666677,
                    "velocity": 0.5433070866141733,
                    "duration": 0.12903233333332764
                },
                {
                    "name": "F#2",
                    "midi": 42,
                    "time": 215.6130290000001,
                    "velocity": 0.5826771653543307,
                    "duration": 0.6774197500000128
                },
                {
                    "name": "G#2",
                    "midi": 44,
                    "time": 216.2904487500001,
                    "velocity": 0.48031496062992124,
                    "duration": 0.09677425000000994
                },
                {
                    "name": "A2",
                    "midi": 45,
                    "time": 216.38722300000012,
                    "velocity": 0.5433070866141733,
                    "duration": 0.2903227500000014
                },
                {
                    "name": "B2",
                    "midi": 47,
                    "time": 216.67754575000012,
                    "velocity": 0.4881889763779528,
                    "duration": 0.09677425000000994
                },
                {
                    "name": "C#3",
                    "midi": 49,
                    "time": 216.77432000000013,
                    "velocity": 0.5511811023622047,
                    "duration": 0.2903227500000014
                },
                {
                    "name": "E3",
                    "midi": 52,
                    "time": 217.06464275000013,
                    "velocity": 0.4881889763779528,
                    "duration": 0.09677425000000994
                },
                {
                    "name": "D3",
                    "midi": 50,
                    "time": 217.16141700000014,
                    "velocity": 0.5511811023622047,
                    "duration": 0.12903233333332764
                },
                {
                    "name": "C#3",
                    "midi": 49,
                    "time": 217.29044933333347,
                    "velocity": 0.4566929133858268,
                    "duration": 0.12903233333332764
                },
                {
                    "name": "D3",
                    "midi": 50,
                    "time": 217.4194816666668,
                    "velocity": 0.4566929133858268,
                    "duration": 0.12903233333332764
                },
                {
                    "name": "B2",
                    "midi": 47,
                    "time": 217.54851400000013,
                    "velocity": 0.49606299212598426,
                    "duration": 0.12903233333332764
                },
                {
                    "name": "A#2",
                    "midi": 46,
                    "time": 217.67754633333345,
                    "velocity": 0.5118110236220472,
                    "duration": 0.12903233333332764
                },
                {
                    "name": "B2",
                    "midi": 47,
                    "time": 217.80657866666678,
                    "velocity": 0.5354330708661418,
                    "duration": 0.12903233333332764
                },
                {
                    "name": "G2",
                    "midi": 43,
                    "time": 217.9356110000001,
                    "velocity": 0.5669291338582677,
                    "duration": 0.6774197500000128
                },
                {
                    "name": "A2",
                    "midi": 45,
                    "time": 218.61303075000012,
                    "velocity": 0.4645669291338583,
                    "duration": 0.09677425000000994
                },
                {
                    "name": "B2",
                    "midi": 47,
                    "time": 218.70980500000013,
                    "velocity": 0.5748031496062992,
                    "duration": 0.2903227500000014
                },
                {
                    "name": "C#3",
                    "midi": 49,
                    "time": 219.00012775000013,
                    "velocity": 0.44881889763779526,
                    "duration": 0.09677425000000994
                },
                {
                    "name": "D3",
                    "midi": 50,
                    "time": 219.09690200000014,
                    "velocity": 0.5590551181102362,
                    "duration": 0.2903227500000014
                },
                {
                    "name": "F#3",
                    "midi": 54,
                    "time": 219.38722475000014,
                    "velocity": 0.4566929133858268,
                    "duration": 0.09677425000000994
                },
                {
                    "name": "E3",
                    "midi": 52,
                    "time": 219.48399900000015,
                    "velocity": 0.6692913385826772,
                    "duration": 0.7508068895833446
                },
                {
                    "name": "E3",
                    "midi": 52,
                    "time": 220.25819300000018,
                    "velocity": 0.5354330708661418,
                    "duration": 0.6572584479166608
                },
                {
                    "name": "A3",
                    "midi": 57,
                    "time": 220.25819300000018,
                    "velocity": 0.6377952755905512,
                    "duration": 0.6572584479166608
                },
                {
                    "name": "A2",
                    "midi": 45,
                    "time": 220.93561275000016,
                    "velocity": 0.4409448818897638,
                    "duration": 0.09677425000000994
                },
                {
                    "name": "A3",
                    "midi": 57,
                    "time": 220.93561275000016,
                    "velocity": 0.5196850393700787,
                    "duration": 0.09677425000000994
                },
                {
                    "name": "A2",
                    "midi": 45,
                    "time": 221.03238700000017,
                    "velocity": 0.4566929133858268,
                    "duration": 0.26774209166666196
                },
                {
                    "name": "A3",
                    "midi": 57,
                    "time": 221.03238700000017,
                    "velocity": 0.5433070866141733,
                    "duration": 0.26774209166666196
                },
                {
                    "name": "G2",
                    "midi": 43,
                    "time": 221.32270975000017,
                    "velocity": 0.4330708661417323,
                    "duration": 0.09677425000000994
                },
                {
                    "name": "G3",
                    "midi": 55,
                    "time": 221.32270975000017,
                    "velocity": 0.5118110236220472,
                    "duration": 0.09677425000000994
                },
                {
                    "name": "F#2",
                    "midi": 42,
                    "time": 221.41948400000018,
                    "velocity": 0.47244094488188976,
                    "duration": 0.26774209166666196
                },
                {
                    "name": "F#3",
                    "midi": 54,
                    "time": 221.41948400000018,
                    "velocity": 0.5669291338582677,
                    "duration": 0.26774209166666196
                },
                {
                    "name": "E2",
                    "midi": 40,
                    "time": 221.70980675000018,
                    "velocity": 0.4881889763779528,
                    "duration": 0.09677425000000994
                },
                {
                    "name": "E3",
                    "midi": 52,
                    "time": 221.70980675000018,
                    "velocity": 0.5826771653543307,
                    "duration": 0.09677425000000994
                },
                {
                    "name": "D2",
                    "midi": 38,
                    "time": 221.8065810000002,
                    "velocity": 0.5118110236220472,
                    "duration": 0.7508068895833446
                },
                {
                    "name": "A2",
                    "midi": 45,
                    "time": 221.8065810000002,
                    "velocity": 0.5118110236220472,
                    "duration": 0.7508068895833446
                },
                {
                    "name": "D3",
                    "midi": 50,
                    "time": 221.8065810000002,
                    "velocity": 0.5826771653543307,
                    "duration": 0.7508068895833446
                },
                {
                    "name": "A2",
                    "midi": 45,
                    "time": 222.58077500000022,
                    "velocity": 0.5118110236220472,
                    "duration": 0.6612907083333255
                },
                {
                    "name": "D2",
                    "midi": 38,
                    "time": 222.58077500000022,
                    "velocity": 0.5118110236220472,
                    "duration": 0.6612907083333255
                },
                {
                    "name": "D3",
                    "midi": 50,
                    "time": 222.58077500000022,
                    "velocity": 0.5826771653543307,
                    "duration": 0.6612907083333255
                },
                {
                    "name": "A2",
                    "midi": 45,
                    "time": 224.1291630000002,
                    "velocity": 0.3543307086614173,
                    "duration": 0.7508068895833446
                },
                {
                    "name": "C#3",
                    "midi": 49,
                    "time": 224.1291630000002,
                    "velocity": 0.3543307086614173,
                    "duration": 0.7508068895833446
                },
                {
                    "name": "G3",
                    "midi": 55,
                    "time": 224.1291630000002,
                    "velocity": 0.4251968503937008,
                    "duration": 0.7508068895833446
                },
                {
                    "name": "A2",
                    "midi": 45,
                    "time": 224.90335700000023,
                    "velocity": 0.3543307086614173,
                    "duration": 0.7741939999999943
                },
                {
                    "name": "C#3",
                    "midi": 49,
                    "time": 224.90335700000023,
                    "velocity": 0.3543307086614173,
                    "duration": 0.7741939999999943
                },
                {
                    "name": "G3",
                    "midi": 55,
                    "time": 224.90335700000023,
                    "velocity": 0.4251968503937008,
                    "duration": 0.7741939999999943
                },
                {
                    "name": "D2",
                    "midi": 38,
                    "time": 226.45174500000022,
                    "velocity": 0.25984251968503935,
                    "duration": 0.7741940000000227
                },
                {
                    "name": "A2",
                    "midi": 45,
                    "time": 226.45174500000022,
                    "velocity": 0.25984251968503935,
                    "duration": 0.7741940000000227
                },
                {
                    "name": "D3",
                    "midi": 50,
                    "time": 226.45174500000022,
                    "velocity": 0.30708661417322836,
                    "duration": 0.7508068895833446
                },
                {
                    "name": "D2",
                    "midi": 38,
                    "time": 227.22593900000024,
                    "velocity": 0.2440944881889764,
                    "duration": 0.7661294791666649
                },
                {
                    "name": "A2",
                    "midi": 45,
                    "time": 227.22593900000024,
                    "velocity": 0.2440944881889764,
                    "duration": 0.7661294791666649
                },
                {
                    "name": "D3",
                    "midi": 50,
                    "time": 227.22593900000024,
                    "velocity": 0.29133858267716534,
                    "duration": 0.7661294791666649
                },
                {
                    "name": "D3",
                    "midi": 50,
                    "time": 228.00013300000023,
                    "velocity": 0.2755905511811024,
                    "duration": 0.367742149999998
                },
                {
                    "name": "D3",
                    "midi": 50,
                    "time": 228.38723000000024,
                    "velocity": 0.25196850393700787,
                    "duration": 0.367742149999998
                },
                {
                    "name": "G2",
                    "midi": 43,
                    "time": 228.77432700000026,
                    "velocity": 0.2283464566929134,
                    "duration": 0.7669359312500035
                },
                {
                    "name": "D3",
                    "midi": 50,
                    "time": 228.77432700000026,
                    "velocity": 0.2283464566929134,
                    "duration": 0.7669359312500035
                },
                {
                    "name": "G3",
                    "midi": 55,
                    "time": 228.77432700000026,
                    "velocity": 0.2755905511811024,
                    "duration": 0.7669359312500035
                },
                {
                    "name": "G2",
                    "midi": 43,
                    "time": 229.54852100000025,
                    "velocity": 0.2283464566929134,
                    "duration": 0.367742149999998
                },
                {
                    "name": "D3",
                    "midi": 50,
                    "time": 229.54852100000025,
                    "velocity": 0.2283464566929134,
                    "duration": 0.367742149999998
                },
                {
                    "name": "G3",
                    "midi": 55,
                    "time": 229.54852100000025,
                    "velocity": 0.2755905511811024,
                    "duration": 0.367742149999998
                },
                {
                    "name": "G2",
                    "midi": 43,
                    "time": 229.93561800000026,
                    "velocity": 0.2283464566929134,
                    "duration": 0.367742149999998
                },
                {
                    "name": "D3",
                    "midi": 50,
                    "time": 229.93561800000026,
                    "velocity": 0.2283464566929134,
                    "duration": 0.367742149999998
                },
                {
                    "name": "G3",
                    "midi": 55,
                    "time": 229.93561800000026,
                    "velocity": 0.2755905511811024,
                    "duration": 0.367742149999998
                },
                {
                    "name": "G2",
                    "midi": 43,
                    "time": 230.32271500000027,
                    "velocity": 0.2204724409448819,
                    "duration": 0.367742149999998
                },
                {
                    "name": "D3",
                    "midi": 50,
                    "time": 230.32271500000027,
                    "velocity": 0.2204724409448819,
                    "duration": 0.367742149999998
                },
                {
                    "name": "G3",
                    "midi": 55,
                    "time": 230.32271500000027,
                    "velocity": 0.25984251968503935,
                    "duration": 0.367742149999998
                },
                {
                    "name": "G2",
                    "midi": 43,
                    "time": 230.70981200000028,
                    "velocity": 0.2204724409448819,
                    "duration": 0.367742149999998
                },
                {
                    "name": "D3",
                    "midi": 50,
                    "time": 230.70981200000028,
                    "velocity": 0.2204724409448819,
                    "duration": 0.367742149999998
                },
                {
                    "name": "G3",
                    "midi": 55,
                    "time": 230.70981200000028,
                    "velocity": 0.25984251968503935,
                    "duration": 0.367742149999998
                },
                {
                    "name": "G2",
                    "midi": 43,
                    "time": 231.0969090000003,
                    "velocity": 0.2283464566929134,
                    "duration": 0.367742149999998
                },
                {
                    "name": "D3",
                    "midi": 50,
                    "time": 231.0969090000003,
                    "velocity": 0.2283464566929134,
                    "duration": 0.367742149999998
                },
                {
                    "name": "G3",
                    "midi": 55,
                    "time": 231.0969090000003,
                    "velocity": 0.2755905511811024,
                    "duration": 0.367742149999998
                },
                {
                    "name": "C3",
                    "midi": 48,
                    "time": 231.4840060000003,
                    "velocity": 0.25196850393700787,
                    "duration": 0.3750002187499888
                },
                {
                    "name": "D3",
                    "midi": 50,
                    "time": 231.4840060000003,
                    "velocity": 0.25196850393700787,
                    "duration": 0.3758066708333274
                },
                {
                    "name": "C4",
                    "midi": 60,
                    "time": 231.4840060000003,
                    "velocity": 0.2992125984251969,
                    "duration": 0.3750002187499888
                },
                {
                    "name": "D3",
                    "midi": 50,
                    "time": 231.8711030000003,
                    "velocity": 0.2283464566929134,
                    "duration": 0.367742149999998
                },
                {
                    "name": "B2",
                    "midi": 47,
                    "time": 231.8711030000003,
                    "velocity": 0.2283464566929134,
                    "duration": 0.367742149999998
                },
                {
                    "name": "B3",
                    "midi": 59,
                    "time": 231.8711030000003,
                    "velocity": 0.2755905511811024,
                    "duration": 0.367742149999998
                },
                {
                    "name": "B2",
                    "midi": 47,
                    "time": 232.2582000000003,
                    "velocity": 0.2283464566929134,
                    "duration": 0.367742149999998
                },
                {
                    "name": "D3",
                    "midi": 50,
                    "time": 232.2582000000003,
                    "velocity": 0.2283464566929134,
                    "duration": 0.367742149999998
                },
                {
                    "name": "B3",
                    "midi": 59,
                    "time": 232.2582000000003,
                    "velocity": 0.2755905511811024,
                    "duration": 0.367742149999998
                },
                {
                    "name": "B2",
                    "midi": 47,
                    "time": 232.6452970000003,
                    "velocity": 0.2125984251968504,
                    "duration": 0.367742149999998
                },
                {
                    "name": "D3",
                    "midi": 50,
                    "time": 232.6452970000003,
                    "velocity": 0.2125984251968504,
                    "duration": 0.367742149999998
                },
                {
                    "name": "B3",
                    "midi": 59,
                    "time": 232.6452970000003,
                    "velocity": 0.25196850393700787,
                    "duration": 0.367742149999998
                },
                {
                    "name": "B2",
                    "midi": 47,
                    "time": 233.03239400000032,
                    "velocity": 0.2125984251968504,
                    "duration": 0.367742149999998
                },
                {
                    "name": "D3",
                    "midi": 50,
                    "time": 233.03239400000032,
                    "velocity": 0.2125984251968504,
                    "duration": 0.367742149999998
                },
                {
                    "name": "B3",
                    "midi": 59,
                    "time": 233.03239400000032,
                    "velocity": 0.25196850393700787,
                    "duration": 0.367742149999998
                },
                {
                    "name": "B2",
                    "midi": 47,
                    "time": 233.41949100000033,
                    "velocity": 0.2283464566929134,
                    "duration": 0.38709700000001135
                },
                {
                    "name": "D3",
                    "midi": 50,
                    "time": 233.41949100000033,
                    "velocity": 0.2283464566929134,
                    "duration": 0.38709700000001135
                },
                {
                    "name": "B3",
                    "midi": 59,
                    "time": 233.41949100000033,
                    "velocity": 0.2755905511811024,
                    "duration": 0.38709700000001135
                },
                {
                    "name": "F#2",
                    "midi": 42,
                    "time": 233.80658800000035,
                    "velocity": 0.2047244094488189,
                    "duration": 0.3758066708333274
                },
                {
                    "name": "D3",
                    "midi": 50,
                    "time": 233.80658800000035,
                    "velocity": 0.2047244094488189,
                    "duration": 0.3758066708333274
                },
                {
                    "name": "F#3",
                    "midi": 54,
                    "time": 233.80658800000035,
                    "velocity": 0.2440944881889764,
                    "duration": 0.3758066708333274
                },
                {
                    "name": "A2",
                    "midi": 45,
                    "time": 234.19368500000033,
                    "velocity": 0.2047244094488189,
                    "duration": 0.3758066708333274
                },
                {
                    "name": "D3",
                    "midi": 50,
                    "time": 234.19368500000033,
                    "velocity": 0.2047244094488189,
                    "duration": 0.3758066708333274
                },
                {
                    "name": "A3",
                    "midi": 57,
                    "time": 234.19368500000033,
                    "velocity": 0.2440944881889764,
                    "duration": 0.3758066708333274
                },
                {
                    "name": "A2",
                    "midi": 45,
                    "time": 234.5807820000003,
                    "velocity": 0.2283464566929134,
                    "duration": 0.3758066708333274
                },
                {
                    "name": "D3",
                    "midi": 50,
                    "time": 234.5807820000003,
                    "velocity": 0.2283464566929134,
                    "duration": 0.3758066708333274
                },
                {
                    "name": "A3",
                    "midi": 57,
                    "time": 234.5807820000003,
                    "velocity": 0.2755905511811024,
                    "duration": 0.3758066708333274
                },
                {
                    "name": "G2",
                    "midi": 43,
                    "time": 234.9678790000003,
                    "velocity": 0.2204724409448819,
                    "duration": 0.3758066708333274
                },
                {
                    "name": "D3",
                    "midi": 50,
                    "time": 234.9678790000003,
                    "velocity": 0.2204724409448819,
                    "duration": 0.3758066708333274
                },
                {
                    "name": "G3",
                    "midi": 55,
                    "time": 234.9678790000003,
                    "velocity": 0.25984251968503935,
                    "duration": 0.3758066708333274
                },
                {
                    "name": "F#2",
                    "midi": 42,
                    "time": 235.35497600000028,
                    "velocity": 0.2204724409448819,
                    "duration": 0.3758066708333274
                },
                {
                    "name": "D3",
                    "midi": 50,
                    "time": 235.35497600000028,
                    "velocity": 0.2204724409448819,
                    "duration": 0.3758066708333274
                },
                {
                    "name": "F#3",
                    "midi": 54,
                    "time": 235.35497600000028,
                    "velocity": 0.25984251968503935,
                    "duration": 0.3758066708333274
                },
                {
                    "name": "F#2",
                    "midi": 42,
                    "time": 235.74207300000026,
                    "velocity": 0.2283464566929134,
                    "duration": 0.3758066708333274
                },
                {
                    "name": "D3",
                    "midi": 50,
                    "time": 235.74207300000026,
                    "velocity": 0.2283464566929134,
                    "duration": 0.3758066708333274
                },
                {
                    "name": "F#3",
                    "midi": 54,
                    "time": 235.74207300000026,
                    "velocity": 0.2755905511811024,
                    "duration": 0.3758066708333274
                },
                {
                    "name": "G2",
                    "midi": 43,
                    "time": 236.12917000000024,
                    "velocity": 0.2047244094488189,
                    "duration": 0.3758066708333274
                },
                {
                    "name": "D3",
                    "midi": 50,
                    "time": 236.12917000000024,
                    "velocity": 0.2047244094488189,
                    "duration": 0.3758066708333274
                },
                {
                    "name": "G3",
                    "midi": 55,
                    "time": 236.12917000000024,
                    "velocity": 0.2440944881889764,
                    "duration": 0.3758066708333274
                },
                {
                    "name": "G2",
                    "midi": 43,
                    "time": 236.51626700000023,
                    "velocity": 0.2047244094488189,
                    "duration": 0.3758066708333274
                },
                {
                    "name": "D3",
                    "midi": 50,
                    "time": 236.51626700000023,
                    "velocity": 0.2047244094488189,
                    "duration": 0.3758066708333274
                },
                {
                    "name": "G3",
                    "midi": 55,
                    "time": 236.51626700000023,
                    "velocity": 0.2440944881889764,
                    "duration": 0.3758066708333274
                },
                {
                    "name": "G2",
                    "midi": 43,
                    "time": 236.9033640000002,
                    "velocity": 0.2283464566929134,
                    "duration": 0.3758066708333274
                },
                {
                    "name": "D3",
                    "midi": 50,
                    "time": 236.9033640000002,
                    "velocity": 0.2283464566929134,
                    "duration": 0.3758066708333274
                },
                {
                    "name": "G3",
                    "midi": 55,
                    "time": 236.9033640000002,
                    "velocity": 0.2755905511811024,
                    "duration": 0.3758066708333274
                },
                {
                    "name": "F#2",
                    "midi": 42,
                    "time": 237.2904610000002,
                    "velocity": 0.25984251968503935,
                    "duration": 0.3758066708333274
                },
                {
                    "name": "D3",
                    "midi": 50,
                    "time": 237.2904610000002,
                    "velocity": 0.25984251968503935,
                    "duration": 0.3758066708333274
                },
                {
                    "name": "F#3",
                    "midi": 54,
                    "time": 237.2904610000002,
                    "velocity": 0.31496062992125984,
                    "duration": 0.3758066708333274
                },
                {
                    "name": "E2",
                    "midi": 40,
                    "time": 237.67755800000018,
                    "velocity": 0.30708661417322836,
                    "duration": 0.3758066708333274
                },
                {
                    "name": "D3",
                    "midi": 50,
                    "time": 237.67755800000018,
                    "velocity": 0.30708661417322836,
                    "duration": 0.3758066708333274
                },
                {
                    "name": "E3",
                    "midi": 52,
                    "time": 237.67755800000018,
                    "velocity": 0.3700787401574803,
                    "duration": 0.3758066708333274
                },
                {
                    "name": "D2",
                    "midi": 38,
                    "time": 238.06465500000016,
                    "velocity": 0.33858267716535434,
                    "duration": 0.7669359312500035
                },
                {
                    "name": "D3",
                    "midi": 50,
                    "time": 238.06465500000016,
                    "velocity": 0.4094488188976378,
                    "duration": 0.7669359312500035
                },
                {
                    "name": "D2",
                    "midi": 38,
                    "time": 238.83884900000015,
                    "velocity": 0.2677165354330709,
                    "duration": 0.367742149999998
                },
                {
                    "name": "D3",
                    "midi": 50,
                    "time": 238.83884900000015,
                    "velocity": 0.33070866141732286,
                    "duration": 0.367742149999998
                },
                {
                    "name": "D2",
                    "midi": 38,
                    "time": 239.22594600000016,
                    "velocity": 0.2677165354330709,
                    "duration": 0.367742149999998
                },
                {
                    "name": "D3",
                    "midi": 50,
                    "time": 239.22594600000016,
                    "velocity": 0.33070866141732286,
                    "duration": 0.367742149999998
                },
                {
                    "name": "D2",
                    "midi": 38,
                    "time": 239.61304300000018,
                    "velocity": 0.25984251968503935,
                    "duration": 0.367742149999998
                },
                {
                    "name": "D3",
                    "midi": 50,
                    "time": 239.61304300000018,
                    "velocity": 0.30708661417322836,
                    "duration": 0.367742149999998
                },
                {
                    "name": "E2",
                    "midi": 40,
                    "time": 240.0001400000002,
                    "velocity": 0.25984251968503935,
                    "duration": 0.367742149999998
                },
                {
                    "name": "D3",
                    "midi": 50,
                    "time": 240.0001400000002,
                    "velocity": 0.25984251968503935,
                    "duration": 0.367742149999998
                },
                {
                    "name": "E3",
                    "midi": 52,
                    "time": 240.0001400000002,
                    "velocity": 0.30708661417322836,
                    "duration": 0.367742149999998
                },
                {
                    "name": "F#2",
                    "midi": 42,
                    "time": 240.3872370000002,
                    "velocity": 0.2204724409448819,
                    "duration": 0.367742149999998
                },
                {
                    "name": "D3",
                    "midi": 50,
                    "time": 240.3872370000002,
                    "velocity": 0.2204724409448819,
                    "duration": 0.367742149999998
                },
                {
                    "name": "F#3",
                    "midi": 54,
                    "time": 240.3872370000002,
                    "velocity": 0.33070866141732286,
                    "duration": 0.367742149999998
                },
                {
                    "name": "A2",
                    "midi": 45,
                    "time": 240.7743340000002,
                    "velocity": 0.28346456692913385,
                    "duration": 0.3758066708333274
                },
                {
                    "name": "F#3",
                    "midi": 54,
                    "time": 240.7743340000002,
                    "velocity": 0.28346456692913385,
                    "duration": 0.3758066708333274
                },
                {
                    "name": "A3",
                    "midi": 57,
                    "time": 240.7743340000002,
                    "velocity": 0.3937007874015748,
                    "duration": 0.3758066708333274
                },
                {
                    "name": "A3",
                    "midi": 57,
                    "time": 241.1614310000002,
                    "velocity": 0.28346456692913385,
                    "duration": 0.367742149999998
                },
                {
                    "name": "D3",
                    "midi": 50,
                    "time": 241.1614310000002,
                    "velocity": 0.28346456692913385,
                    "duration": 0.367742149999998
                },
                {
                    "name": "D4",
                    "midi": 62,
                    "time": 241.1614310000002,
                    "velocity": 0.4094488188976378,
                    "duration": 0.367742149999998
                },
                {
                    "name": "D3",
                    "midi": 50,
                    "time": 241.5485280000002,
                    "velocity": 0.4015748031496063,
                    "duration": 0.367742149999998
                },
                {
                    "name": "A3",
                    "midi": 57,
                    "time": 241.5485280000002,
                    "velocity": 0.4015748031496063,
                    "duration": 0.367742149999998
                },
                {
                    "name": "D4",
                    "midi": 62,
                    "time": 241.5485280000002,
                    "velocity": 0.47244094488188976,
                    "duration": 0.367742149999998
                },
                {
                    "name": "D3",
                    "midi": 50,
                    "time": 241.93562500000021,
                    "velocity": 0.4094488188976378,
                    "duration": 0.367742149999998
                },
                {
                    "name": "A3",
                    "midi": 57,
                    "time": 241.93562500000021,
                    "velocity": 0.4094488188976378,
                    "duration": 0.367742149999998
                },
                {
                    "name": "D4",
                    "midi": 62,
                    "time": 241.93562500000021,
                    "velocity": 0.4881889763779528,
                    "duration": 0.367742149999998
                },
                {
                    "name": "D3",
                    "midi": 50,
                    "time": 242.32272200000023,
                    "velocity": 0.4251968503937008,
                    "duration": 0.367742149999998
                },
                {
                    "name": "A3",
                    "midi": 57,
                    "time": 242.32272200000023,
                    "velocity": 0.4251968503937008,
                    "duration": 0.367742149999998
                },
                {
                    "name": "D4",
                    "midi": 62,
                    "time": 242.32272200000023,
                    "velocity": 0.5039370078740157,
                    "duration": 0.367742149999998
                },
                {
                    "name": "C#3",
                    "midi": 49,
                    "time": 242.70981900000024,
                    "velocity": 0.4409448818897638,
                    "duration": 0.367742149999998
                },
                {
                    "name": "A#3",
                    "midi": 58,
                    "time": 242.70981900000024,
                    "velocity": 0.4409448818897638,
                    "duration": 0.367742149999998
                },
                {
                    "name": "C#4",
                    "midi": 61,
                    "time": 242.70981900000024,
                    "velocity": 0.5196850393700787,
                    "duration": 0.367742149999998
                },
                {
                    "name": "C#3",
                    "midi": 49,
                    "time": 243.09691600000025,
                    "velocity": 0.3700787401574803,
                    "duration": 0.367742149999998
                },
                {
                    "name": "A#3",
                    "midi": 58,
                    "time": 243.09691600000025,
                    "velocity": 0.3700787401574803,
                    "duration": 0.367742149999998
                },
                {
                    "name": "C#4",
                    "midi": 61,
                    "time": 243.09691600000025,
                    "velocity": 0.4409448818897638,
                    "duration": 0.367742149999998
                },
                {
                    "name": "C#3",
                    "midi": 49,
                    "time": 243.48401300000026,
                    "velocity": 0.3464566929133858,
                    "duration": 0.367742149999998
                },
                {
                    "name": "A#3",
                    "midi": 58,
                    "time": 243.48401300000026,
                    "velocity": 0.3464566929133858,
                    "duration": 0.367742149999998
                },
                {
                    "name": "C#4",
                    "midi": 61,
                    "time": 243.48401300000026,
                    "velocity": 0.4094488188976378,
                    "duration": 0.367742149999998
                },
                {
                    "name": "C#3",
                    "midi": 49,
                    "time": 243.87111000000027,
                    "velocity": 0.29133858267716534,
                    "duration": 0.367742149999998
                },
                {
                    "name": "A#3",
                    "midi": 58,
                    "time": 243.87111000000027,
                    "velocity": 0.29133858267716534,
                    "duration": 0.367742149999998
                },
                {
                    "name": "C#4",
                    "midi": 61,
                    "time": 243.87111000000027,
                    "velocity": 0.3464566929133858,
                    "duration": 0.367742149999998
                },
                {
                    "name": "C#3",
                    "midi": 49,
                    "time": 244.25820700000028,
                    "velocity": 0.25984251968503935,
                    "duration": 0.367742149999998
                },
                {
                    "name": "A#3",
                    "midi": 58,
                    "time": 244.25820700000028,
                    "velocity": 0.25984251968503935,
                    "duration": 0.367742149999998
                },
                {
                    "name": "C#4",
                    "midi": 61,
                    "time": 244.25820700000028,
                    "velocity": 0.31496062992125984,
                    "duration": 0.367742149999998
                },
                {
                    "name": "C#3",
                    "midi": 49,
                    "time": 244.6453040000003,
                    "velocity": 0.2283464566929134,
                    "duration": 0.367742149999998
                },
                {
                    "name": "A#3",
                    "midi": 58,
                    "time": 244.6453040000003,
                    "velocity": 0.2283464566929134,
                    "duration": 0.367742149999998
                },
                {
                    "name": "C#4",
                    "midi": 61,
                    "time": 244.6453040000003,
                    "velocity": 0.28346456692913385,
                    "duration": 0.367742149999998
                },
                {
                    "name": "D3",
                    "midi": 50,
                    "time": 245.0324010000003,
                    "velocity": 0.2204724409448819,
                    "duration": 0.3758066708333274
                },
                {
                    "name": "A3",
                    "midi": 57,
                    "time": 245.0324010000003,
                    "velocity": 0.2204724409448819,
                    "duration": 0.3758066708333274
                },
                {
                    "name": "D4",
                    "midi": 62,
                    "time": 245.0324010000003,
                    "velocity": 0.25984251968503935,
                    "duration": 0.3758066708333274
                },
                {
                    "name": "E3",
                    "midi": 52,
                    "time": 245.4194980000003,
                    "velocity": 0.1968503937007874,
                    "duration": 0.3758066708333274
                },
                {
                    "name": "A3",
                    "midi": 57,
                    "time": 245.4194980000003,
                    "velocity": 0.1968503937007874,
                    "duration": 0.3758066708333274
                },
                {
                    "name": "E4",
                    "midi": 64,
                    "time": 245.4194980000003,
                    "velocity": 0.23622047244094488,
                    "duration": 0.3758066708333274
                },
                {
                    "name": "F#3",
                    "midi": 54,
                    "time": 245.80659500000027,
                    "velocity": 0.1968503937007874,
                    "duration": 0.3758066708333274
                },
                {
                    "name": "A3",
                    "midi": 57,
                    "time": 245.80659500000027,
                    "velocity": 0.1968503937007874,
                    "duration": 0.3758066708333274
                },
                {
                    "name": "F#4",
                    "midi": 66,
                    "time": 245.80659500000027,
                    "velocity": 0.23622047244094488,
                    "duration": 0.3758066708333274
                },
                {
                    "name": "B2",
                    "midi": 47,
                    "time": 246.19369200000025,
                    "velocity": 0.2283464566929134,
                    "duration": 0.3758066708333274
                },
                {
                    "name": "B3",
                    "midi": 59,
                    "time": 246.19369200000025,
                    "velocity": 0.2755905511811024,
                    "duration": 0.3758066708333274
                },
                {
                    "name": "A2",
                    "midi": 45,
                    "time": 246.58078900000024,
                    "velocity": 0.1968503937007874,
                    "duration": 0.3758066708333274
                },
                {
                    "name": "A3",
                    "midi": 57,
                    "time": 246.58078900000024,
                    "velocity": 0.23622047244094488,
                    "duration": 0.3758066708333274
                },
                {
                    "name": "F#2",
                    "midi": 42,
                    "time": 246.96788600000022,
                    "velocity": 0.1968503937007874,
                    "duration": 0.3758066708333274
                },
                {
                    "name": "F#3",
                    "midi": 54,
                    "time": 246.96788600000022,
                    "velocity": 0.23622047244094488,
                    "duration": 0.3758066708333274
                },
                {
                    "name": "A2",
                    "midi": 45,
                    "time": 247.3549830000002,
                    "velocity": 0.2440944881889764,
                    "duration": 0.7669359312500035
                },
                {
                    "name": "A3",
                    "midi": 57,
                    "time": 247.3549830000002,
                    "velocity": 0.29133858267716534,
                    "duration": 0.7669359312500035
                },
                {
                    "name": "D3",
                    "midi": 50,
                    "time": 248.1291770000002,
                    "velocity": 0.2047244094488189,
                    "duration": 0.3758066708333274
                },
                {
                    "name": "A3",
                    "midi": 57,
                    "time": 248.1291770000002,
                    "velocity": 0.2047244094488189,
                    "duration": 0.3758066708333274
                },
                {
                    "name": "D4",
                    "midi": 62,
                    "time": 248.1291770000002,
                    "velocity": 0.2440944881889764,
                    "duration": 0.3758066708333274
                },
                {
                    "name": "D3",
                    "midi": 50,
                    "time": 248.51627400000018,
                    "velocity": 0.23622047244094488,
                    "duration": 0.3758066708333274
                },
                {
                    "name": "A3",
                    "midi": 57,
                    "time": 248.51627400000018,
                    "velocity": 0.23622047244094488,
                    "duration": 0.3758066708333274
                },
                {
                    "name": "D4",
                    "midi": 62,
                    "time": 248.51627400000018,
                    "velocity": 0.28346456692913385,
                    "duration": 0.3758066708333274
                },
                {
                    "name": "D3",
                    "midi": 50,
                    "time": 248.90337100000016,
                    "velocity": 0.2755905511811024,
                    "duration": 0.367742149999998
                },
                {
                    "name": "D3",
                    "midi": 50,
                    "time": 249.29046800000017,
                    "velocity": 0.25196850393700787,
                    "duration": 0.367742149999998
                },
                {
                    "name": "G2",
                    "midi": 43,
                    "time": 249.6775650000002,
                    "velocity": 0.2283464566929134,
                    "duration": 0.7669359312500035
                },
                {
                    "name": "D3",
                    "midi": 50,
                    "time": 249.6775650000002,
                    "velocity": 0.2283464566929134,
                    "duration": 0.7669359312500035
                },
                {
                    "name": "G3",
                    "midi": 55,
                    "time": 249.6775650000002,
                    "velocity": 0.2755905511811024,
                    "duration": 0.7669359312500035
                },
                {
                    "name": "G2",
                    "midi": 43,
                    "time": 250.45175900000018,
                    "velocity": 0.2283464566929134,
                    "duration": 0.367742149999998
                },
                {
                    "name": "D3",
                    "midi": 50,
                    "time": 250.45175900000018,
                    "velocity": 0.2283464566929134,
                    "duration": 0.367742149999998
                },
                {
                    "name": "G3",
                    "midi": 55,
                    "time": 250.45175900000018,
                    "velocity": 0.2755905511811024,
                    "duration": 0.367742149999998
                },
                {
                    "name": "G2",
                    "midi": 43,
                    "time": 250.8388560000002,
                    "velocity": 0.2283464566929134,
                    "duration": 0.367742149999998
                },
                {
                    "name": "D3",
                    "midi": 50,
                    "time": 250.8388560000002,
                    "velocity": 0.2283464566929134,
                    "duration": 0.367742149999998
                },
                {
                    "name": "G3",
                    "midi": 55,
                    "time": 250.8388560000002,
                    "velocity": 0.2755905511811024,
                    "duration": 0.367742149999998
                },
                {
                    "name": "G2",
                    "midi": 43,
                    "time": 251.2259530000002,
                    "velocity": 0.2204724409448819,
                    "duration": 0.367742149999998
                },
                {
                    "name": "D3",
                    "midi": 50,
                    "time": 251.2259530000002,
                    "velocity": 0.2204724409448819,
                    "duration": 0.367742149999998
                },
                {
                    "name": "G3",
                    "midi": 55,
                    "time": 251.2259530000002,
                    "velocity": 0.25984251968503935,
                    "duration": 0.367742149999998
                },
                {
                    "name": "G2",
                    "midi": 43,
                    "time": 251.61305000000021,
                    "velocity": 0.2204724409448819,
                    "duration": 0.367742149999998
                },
                {
                    "name": "D3",
                    "midi": 50,
                    "time": 251.61305000000021,
                    "velocity": 0.2204724409448819,
                    "duration": 0.367742149999998
                },
                {
                    "name": "G3",
                    "midi": 55,
                    "time": 251.61305000000021,
                    "velocity": 0.25984251968503935,
                    "duration": 0.367742149999998
                },
                {
                    "name": "G2",
                    "midi": 43,
                    "time": 252.00014700000023,
                    "velocity": 0.2283464566929134,
                    "duration": 0.367742149999998
                },
                {
                    "name": "D3",
                    "midi": 50,
                    "time": 252.00014700000023,
                    "velocity": 0.2283464566929134,
                    "duration": 0.367742149999998
                },
                {
                    "name": "G3",
                    "midi": 55,
                    "time": 252.00014700000023,
                    "velocity": 0.2755905511811024,
                    "duration": 0.367742149999998
                },
                {
                    "name": "C3",
                    "midi": 48,
                    "time": 252.38724400000024,
                    "velocity": 0.25196850393700787,
                    "duration": 0.3750002187499888
                },
                {
                    "name": "D3",
                    "midi": 50,
                    "time": 252.38724400000024,
                    "velocity": 0.25196850393700787,
                    "duration": 0.3758066708333274
                },
                {
                    "name": "C4",
                    "midi": 60,
                    "time": 252.38724400000024,
                    "velocity": 0.2992125984251969,
                    "duration": 0.3750002187499888
                },
                {
                    "name": "D3",
                    "midi": 50,
                    "time": 252.77434100000022,
                    "velocity": 0.2283464566929134,
                    "duration": 0.367742149999998
                },
                {
                    "name": "B2",
                    "midi": 47,
                    "time": 252.77434100000022,
                    "velocity": 0.2283464566929134,
                    "duration": 0.367742149999998
                },
                {
                    "name": "B3",
                    "midi": 59,
                    "time": 252.77434100000022,
                    "velocity": 0.2755905511811024,
                    "duration": 0.367742149999998
                },
                {
                    "name": "B2",
                    "midi": 47,
                    "time": 253.16143800000023,
                    "velocity": 0.2283464566929134,
                    "duration": 0.367742149999998
                },
                {
                    "name": "D3",
                    "midi": 50,
                    "time": 253.16143800000023,
                    "velocity": 0.2283464566929134,
                    "duration": 0.367742149999998
                },
                {
                    "name": "B3",
                    "midi": 59,
                    "time": 253.16143800000023,
                    "velocity": 0.2755905511811024,
                    "duration": 0.367742149999998
                },
                {
                    "name": "B2",
                    "midi": 47,
                    "time": 253.54853500000024,
                    "velocity": 0.2125984251968504,
                    "duration": 0.367742149999998
                },
                {
                    "name": "D3",
                    "midi": 50,
                    "time": 253.54853500000024,
                    "velocity": 0.2125984251968504,
                    "duration": 0.367742149999998
                },
                {
                    "name": "B3",
                    "midi": 59,
                    "time": 253.54853500000024,
                    "velocity": 0.25196850393700787,
                    "duration": 0.367742149999998
                },
                {
                    "name": "B2",
                    "midi": 47,
                    "time": 253.93563200000025,
                    "velocity": 0.2125984251968504,
                    "duration": 0.367742149999998
                },
                {
                    "name": "D3",
                    "midi": 50,
                    "time": 253.93563200000025,
                    "velocity": 0.2125984251968504,
                    "duration": 0.367742149999998
                },
                {
                    "name": "B3",
                    "midi": 59,
                    "time": 253.93563200000025,
                    "velocity": 0.25196850393700787,
                    "duration": 0.367742149999998
                },
                {
                    "name": "B2",
                    "midi": 47,
                    "time": 254.32272900000027,
                    "velocity": 0.2283464566929134,
                    "duration": 0.38709700000001135
                },
                {
                    "name": "D3",
                    "midi": 50,
                    "time": 254.32272900000027,
                    "velocity": 0.2283464566929134,
                    "duration": 0.38709700000001135
                },
                {
                    "name": "B3",
                    "midi": 59,
                    "time": 254.32272900000027,
                    "velocity": 0.2755905511811024,
                    "duration": 0.38709700000001135
                },
                {
                    "name": "F#2",
                    "midi": 42,
                    "time": 254.70982600000028,
                    "velocity": 0.2047244094488189,
                    "duration": 0.3758066708333274
                },
                {
                    "name": "D3",
                    "midi": 50,
                    "time": 254.70982600000028,
                    "velocity": 0.2047244094488189,
                    "duration": 0.3758066708333274
                },
                {
                    "name": "F#3",
                    "midi": 54,
                    "time": 254.70982600000028,
                    "velocity": 0.2440944881889764,
                    "duration": 0.3758066708333274
                },
                {
                    "name": "A2",
                    "midi": 45,
                    "time": 255.09692300000026,
                    "velocity": 0.2047244094488189,
                    "duration": 0.3758066708333274
                },
                {
                    "name": "D3",
                    "midi": 50,
                    "time": 255.09692300000026,
                    "velocity": 0.2047244094488189,
                    "duration": 0.3758066708333274
                },
                {
                    "name": "A3",
                    "midi": 57,
                    "time": 255.09692300000026,
                    "velocity": 0.2440944881889764,
                    "duration": 0.3758066708333274
                },
                {
                    "name": "A2",
                    "midi": 45,
                    "time": 255.48402000000024,
                    "velocity": 0.2283464566929134,
                    "duration": 0.3758066708333274
                },
                {
                    "name": "D3",
                    "midi": 50,
                    "time": 255.48402000000024,
                    "velocity": 0.2283464566929134,
                    "duration": 0.3758066708333274
                },
                {
                    "name": "A3",
                    "midi": 57,
                    "time": 255.48402000000024,
                    "velocity": 0.2755905511811024,
                    "duration": 0.3758066708333274
                },
                {
                    "name": "G2",
                    "midi": 43,
                    "time": 255.87111700000023,
                    "velocity": 0.2204724409448819,
                    "duration": 0.3758066708333274
                },
                {
                    "name": "D3",
                    "midi": 50,
                    "time": 255.87111700000023,
                    "velocity": 0.2204724409448819,
                    "duration": 0.3758066708333274
                },
                {
                    "name": "G3",
                    "midi": 55,
                    "time": 255.87111700000023,
                    "velocity": 0.25984251968503935,
                    "duration": 0.3758066708333274
                },
                {
                    "name": "F#2",
                    "midi": 42,
                    "time": 256.25821400000024,
                    "velocity": 0.2204724409448819,
                    "duration": 0.37580667083335584
                },
                {
                    "name": "D3",
                    "midi": 50,
                    "time": 256.25821400000024,
                    "velocity": 0.2204724409448819,
                    "duration": 0.37580667083335584
                },
                {
                    "name": "F#3",
                    "midi": 54,
                    "time": 256.25821400000024,
                    "velocity": 0.25984251968503935,
                    "duration": 0.37580667083335584
                },
                {
                    "name": "F#2",
                    "midi": 42,
                    "time": 256.6453110000003,
                    "velocity": 0.2283464566929134,
                    "duration": 0.37580667083335584
                },
                {
                    "name": "D3",
                    "midi": 50,
                    "time": 256.6453110000003,
                    "velocity": 0.2283464566929134,
                    "duration": 0.37580667083335584
                },
                {
                    "name": "F#3",
                    "midi": 54,
                    "time": 256.6453110000003,
                    "velocity": 0.2755905511811024,
                    "duration": 0.37580667083335584
                },
                {
                    "name": "G2",
                    "midi": 43,
                    "time": 257.0324080000003,
                    "velocity": 0.2047244094488189,
                    "duration": 0.37580667083335584
                },
                {
                    "name": "D3",
                    "midi": 50,
                    "time": 257.0324080000003,
                    "velocity": 0.2047244094488189,
                    "duration": 0.37580667083335584
                },
                {
                    "name": "G3",
                    "midi": 55,
                    "time": 257.0324080000003,
                    "velocity": 0.2440944881889764,
                    "duration": 0.37580667083335584
                },
                {
                    "name": "G2",
                    "midi": 43,
                    "time": 257.41950500000036,
                    "velocity": 0.2047244094488189,
                    "duration": 0.37580667083335584
                },
                {
                    "name": "D3",
                    "midi": 50,
                    "time": 257.41950500000036,
                    "velocity": 0.2047244094488189,
                    "duration": 0.37580667083335584
                },
                {
                    "name": "G3",
                    "midi": 55,
                    "time": 257.41950500000036,
                    "velocity": 0.2440944881889764,
                    "duration": 0.37580667083335584
                },
                {
                    "name": "G2",
                    "midi": 43,
                    "time": 257.8066020000004,
                    "velocity": 0.2283464566929134,
                    "duration": 0.37580667083335584
                },
                {
                    "name": "D3",
                    "midi": 50,
                    "time": 257.8066020000004,
                    "velocity": 0.2283464566929134,
                    "duration": 0.37580667083335584
                },
                {
                    "name": "G3",
                    "midi": 55,
                    "time": 257.8066020000004,
                    "velocity": 0.2755905511811024,
                    "duration": 0.37580667083335584
                },
                {
                    "name": "F#2",
                    "midi": 42,
                    "time": 258.19369900000044,
                    "velocity": 0.25984251968503935,
                    "duration": 0.37580667083335584
                },
                {
                    "name": "D3",
                    "midi": 50,
                    "time": 258.19369900000044,
                    "velocity": 0.25984251968503935,
                    "duration": 0.37580667083335584
                },
                {
                    "name": "F#3",
                    "midi": 54,
                    "time": 258.19369900000044,
                    "velocity": 0.31496062992125984,
                    "duration": 0.37580667083335584
                },
                {
                    "name": "E2",
                    "midi": 40,
                    "time": 258.5807960000005,
                    "velocity": 0.30708661417322836,
                    "duration": 0.37580667083335584
                },
                {
                    "name": "D3",
                    "midi": 50,
                    "time": 258.5807960000005,
                    "velocity": 0.30708661417322836,
                    "duration": 0.37580667083335584
                },
                {
                    "name": "E3",
                    "midi": 52,
                    "time": 258.5807960000005,
                    "velocity": 0.3700787401574803,
                    "duration": 0.37580667083335584
                },
                {
                    "name": "D2",
                    "midi": 38,
                    "time": 258.9678930000005,
                    "velocity": 0.33858267716535434,
                    "duration": 0.7669359312499751
                },
                {
                    "name": "D3",
                    "midi": 50,
                    "time": 258.9678930000005,
                    "velocity": 0.4094488188976378,
                    "duration": 0.7669359312499751
                },
                {
                    "name": "D2",
                    "midi": 38,
                    "time": 259.7420870000005,
                    "velocity": 0.2677165354330709,
                    "duration": 0.3677421500000264
                },
                {
                    "name": "D3",
                    "midi": 50,
                    "time": 259.7420870000005,
                    "velocity": 0.33070866141732286,
                    "duration": 0.3677421500000264
                },
                {
                    "name": "D2",
                    "midi": 38,
                    "time": 260.1291840000005,
                    "velocity": 0.2677165354330709,
                    "duration": 0.3677421500000264
                },
                {
                    "name": "D3",
                    "midi": 50,
                    "time": 260.1291840000005,
                    "velocity": 0.33070866141732286,
                    "duration": 0.3677421500000264
                },
                {
                    "name": "D2",
                    "midi": 38,
                    "time": 260.51628100000056,
                    "velocity": 0.25984251968503935,
                    "duration": 0.3677421500000264
                },
                {
                    "name": "D3",
                    "midi": 50,
                    "time": 260.51628100000056,
                    "velocity": 0.30708661417322836,
                    "duration": 0.3677421500000264
                },
                {
                    "name": "E2",
                    "midi": 40,
                    "time": 260.9033780000006,
                    "velocity": 0.25984251968503935,
                    "duration": 0.3677421500000264
                },
                {
                    "name": "D3",
                    "midi": 50,
                    "time": 260.9033780000006,
                    "velocity": 0.25984251968503935,
                    "duration": 0.3677421500000264
                },
                {
                    "name": "E3",
                    "midi": 52,
                    "time": 260.9033780000006,
                    "velocity": 0.30708661417322836,
                    "duration": 0.3677421500000264
                },
                {
                    "name": "F#2",
                    "midi": 42,
                    "time": 261.29047500000064,
                    "velocity": 0.23622047244094488,
                    "duration": 0.3677421500000264
                },
                {
                    "name": "D3",
                    "midi": 50,
                    "time": 261.29047500000064,
                    "velocity": 0.23622047244094488,
                    "duration": 0.3677421500000264
                },
                {
                    "name": "F#3",
                    "midi": 54,
                    "time": 261.29047500000064,
                    "velocity": 0.36220472440944884,
                    "duration": 0.3677421500000264
                },
                {
                    "name": "A2",
                    "midi": 45,
                    "time": 261.6775720000007,
                    "velocity": 0.30708661417322836,
                    "duration": 0.37580667083335584
                },
                {
                    "name": "F#3",
                    "midi": 54,
                    "time": 261.6775720000007,
                    "velocity": 0.30708661417322836,
                    "duration": 0.37580667083335584
                },
                {
                    "name": "A3",
                    "midi": 57,
                    "time": 261.6775720000007,
                    "velocity": 0.4330708661417323,
                    "duration": 0.37580667083335584
                },
                {
                    "name": "A3",
                    "midi": 57,
                    "time": 262.0646690000007,
                    "velocity": 0.31496062992125984,
                    "duration": 0.3677421500000264
                },
                {
                    "name": "D3",
                    "midi": 50,
                    "time": 262.0646690000007,
                    "velocity": 0.31496062992125984,
                    "duration": 0.3677421500000264
                },
                {
                    "name": "D4",
                    "midi": 62,
                    "time": 262.0646690000007,
                    "velocity": 0.4566929133858268,
                    "duration": 0.3677421500000264
                },
                {
                    "name": "D3",
                    "midi": 50,
                    "time": 262.45176600000076,
                    "velocity": 0.4566929133858268,
                    "duration": 0.3677421500000264
                },
                {
                    "name": "A3",
                    "midi": 57,
                    "time": 262.45176600000076,
                    "velocity": 0.4566929133858268,
                    "duration": 0.3677421500000264
                },
                {
                    "name": "D4",
                    "midi": 62,
                    "time": 262.45176600000076,
                    "velocity": 0.5354330708661418,
                    "duration": 0.3677421500000264
                },
                {
                    "name": "D3",
                    "midi": 50,
                    "time": 262.8388630000008,
                    "velocity": 0.47244094488188976,
                    "duration": 0.3677421500000264
                },
                {
                    "name": "A3",
                    "midi": 57,
                    "time": 262.8388630000008,
                    "velocity": 0.47244094488188976,
                    "duration": 0.3677421500000264
                },
                {
                    "name": "D4",
                    "midi": 62,
                    "time": 262.8388630000008,
                    "velocity": 0.5590551181102362,
                    "duration": 0.3677421500000264
                },
                {
                    "name": "D3",
                    "midi": 50,
                    "time": 263.22596000000084,
                    "velocity": 0.49606299212598426,
                    "duration": 0.3677421500000264
                },
                {
                    "name": "A3",
                    "midi": 57,
                    "time": 263.22596000000084,
                    "velocity": 0.49606299212598426,
                    "duration": 0.3677421500000264
                },
                {
                    "name": "D4",
                    "midi": 62,
                    "time": 263.22596000000084,
                    "velocity": 0.5826771653543307,
                    "duration": 0.3677421500000264
                },
                {
                    "name": "C#3",
                    "midi": 49,
                    "time": 263.6130570000009,
                    "velocity": 0.4881889763779528,
                    "duration": 0.3677421500000264
                },
                {
                    "name": "A#3",
                    "midi": 58,
                    "time": 263.6130570000009,
                    "velocity": 0.4881889763779528,
                    "duration": 0.3677421500000264
                },
                {
                    "name": "C#4",
                    "midi": 61,
                    "time": 263.6130570000009,
                    "velocity": 0.5826771653543307,
                    "duration": 0.3677421500000264
                },
                {
                    "name": "C#3",
                    "midi": 49,
                    "time": 264.0001540000009,
                    "velocity": 0.4015748031496063,
                    "duration": 0.3677421500000264
                },
                {
                    "name": "A#3",
                    "midi": 58,
                    "time": 264.0001540000009,
                    "velocity": 0.4015748031496063,
                    "duration": 0.3677421500000264
                },
                {
                    "name": "C#4",
                    "midi": 61,
                    "time": 264.0001540000009,
                    "velocity": 0.48031496062992124,
                    "duration": 0.3677421500000264
                },
                {
                    "name": "C#3",
                    "midi": 49,
                    "time": 264.38725100000096,
                    "velocity": 0.3700787401574803,
                    "duration": 0.3677421500000264
                },
                {
                    "name": "A#3",
                    "midi": 58,
                    "time": 264.38725100000096,
                    "velocity": 0.3700787401574803,
                    "duration": 0.3677421500000264
                },
                {
                    "name": "C#4",
                    "midi": 61,
                    "time": 264.38725100000096,
                    "velocity": 0.4409448818897638,
                    "duration": 0.3677421500000264
                },
                {
                    "name": "C#3",
                    "midi": 49,
                    "time": 264.774348000001,
                    "velocity": 0.30708661417322836,
                    "duration": 0.3677421500000264
                },
                {
                    "name": "A#3",
                    "midi": 58,
                    "time": 264.774348000001,
                    "velocity": 0.30708661417322836,
                    "duration": 0.3677421500000264
                },
                {
                    "name": "C#4",
                    "midi": 61,
                    "time": 264.774348000001,
                    "velocity": 0.36220472440944884,
                    "duration": 0.3677421500000264
                },
                {
                    "name": "C#3",
                    "midi": 49,
                    "time": 265.16144500000104,
                    "velocity": 0.2677165354330709,
                    "duration": 0.3677421500000264
                },
                {
                    "name": "A#3",
                    "midi": 58,
                    "time": 265.16144500000104,
                    "velocity": 0.2677165354330709,
                    "duration": 0.3677421500000264
                },
                {
                    "name": "C#4",
                    "midi": 61,
                    "time": 265.16144500000104,
                    "velocity": 0.3228346456692913,
                    "duration": 0.3677421500000264
                },
                {
                    "name": "C#3",
                    "midi": 49,
                    "time": 265.5485420000011,
                    "velocity": 0.2283464566929134,
                    "duration": 0.3677421500000264
                },
                {
                    "name": "A#3",
                    "midi": 58,
                    "time": 265.5485420000011,
                    "velocity": 0.2283464566929134,
                    "duration": 0.3677421500000264
                },
                {
                    "name": "C#4",
                    "midi": 61,
                    "time": 265.5485420000011,
                    "velocity": 0.28346456692913385,
                    "duration": 0.3677421500000264
                },
                {
                    "name": "D3",
                    "midi": 50,
                    "time": 265.9356390000011,
                    "velocity": 0.2204724409448819,
                    "duration": 0.37580667083335584
                },
                {
                    "name": "A3",
                    "midi": 57,
                    "time": 265.9356390000011,
                    "velocity": 0.2204724409448819,
                    "duration": 0.37580667083335584
                },
                {
                    "name": "D4",
                    "midi": 62,
                    "time": 265.9356390000011,
                    "velocity": 0.25984251968503935,
                    "duration": 0.37580667083335584
                },
                {
                    "name": "E3",
                    "midi": 52,
                    "time": 266.32273600000116,
                    "velocity": 0.1968503937007874,
                    "duration": 0.37580667083335584
                },
                {
                    "name": "A3",
                    "midi": 57,
                    "time": 266.32273600000116,
                    "velocity": 0.1968503937007874,
                    "duration": 0.37580667083335584
                },
                {
                    "name": "E4",
                    "midi": 64,
                    "time": 266.32273600000116,
                    "velocity": 0.23622047244094488,
                    "duration": 0.37580667083335584
                },
                {
                    "name": "F#3",
                    "midi": 54,
                    "time": 266.7098330000012,
                    "velocity": 0.1968503937007874,
                    "duration": 0.37580667083335584
                },
                {
                    "name": "A3",
                    "midi": 57,
                    "time": 266.7098330000012,
                    "velocity": 0.1968503937007874,
                    "duration": 0.37580667083335584
                },
                {
                    "name": "F#4",
                    "midi": 66,
                    "time": 266.7098330000012,
                    "velocity": 0.23622047244094488,
                    "duration": 0.37580667083335584
                },
                {
                    "name": "B2",
                    "midi": 47,
                    "time": 267.09693000000124,
                    "velocity": 0.2283464566929134,
                    "duration": 0.37580667083335584
                },
                {
                    "name": "B3",
                    "midi": 59,
                    "time": 267.09693000000124,
                    "velocity": 0.2755905511811024,
                    "duration": 0.37580667083335584
                },
                {
                    "name": "A2",
                    "midi": 45,
                    "time": 267.4840270000013,
                    "velocity": 0.1968503937007874,
                    "duration": 0.37580667083335584
                },
                {
                    "name": "A3",
                    "midi": 57,
                    "time": 267.4840270000013,
                    "velocity": 0.23622047244094488,
                    "duration": 0.37580667083335584
                },
                {
                    "name": "F#2",
                    "midi": 42,
                    "time": 267.8711240000013,
                    "velocity": 0.1968503937007874,
                    "duration": 0.37580667083335584
                },
                {
                    "name": "F#3",
                    "midi": 54,
                    "time": 267.8711240000013,
                    "velocity": 0.23622047244094488,
                    "duration": 0.37580667083335584
                },
                {
                    "name": "A2",
                    "midi": 45,
                    "time": 268.25822100000136,
                    "velocity": 0.2440944881889764,
                    "duration": 0.7669359312499751
                },
                {
                    "name": "A3",
                    "midi": 57,
                    "time": 268.25822100000136,
                    "velocity": 0.29133858267716534,
                    "duration": 0.7669359312499751
                },
                {
                    "name": "D3",
                    "midi": 50,
                    "time": 269.0324150000013,
                    "velocity": 0.2047244094488189,
                    "duration": 0.37580667083335584
                },
                {
                    "name": "A3",
                    "midi": 57,
                    "time": 269.0324150000013,
                    "velocity": 0.2047244094488189,
                    "duration": 0.37580667083335584
                },
                {
                    "name": "D4",
                    "midi": 62,
                    "time": 269.0324150000013,
                    "velocity": 0.2440944881889764,
                    "duration": 0.37580667083335584
                },
                {
                    "name": "D3",
                    "midi": 50,
                    "time": 269.41951200000136,
                    "velocity": 0.23622047244094488,
                    "duration": 0.37580667083335584
                },
                {
                    "name": "A3",
                    "midi": 57,
                    "time": 269.41951200000136,
                    "velocity": 0.23622047244094488,
                    "duration": 0.37580667083335584
                },
                {
                    "name": "D4",
                    "midi": 62,
                    "time": 269.41951200000136,
                    "velocity": 0.28346456692913385,
                    "duration": 0.37580667083335584
                },
                {
                    "name": "D3",
                    "midi": 50,
                    "time": 269.8066090000014,
                    "velocity": 0.2755905511811024,
                    "duration": 0.3677421500000264
                },
                {
                    "name": "D4",
                    "midi": 62,
                    "time": 269.8066090000014,
                    "velocity": 0.2755905511811024,
                    "duration": 0.3677421500000264
                },
                {
                    "name": "D3",
                    "midi": 50,
                    "time": 270.19370600000144,
                    "velocity": 0.28346456692913385,
                    "duration": 0.3677421500000264
                },
                {
                    "name": "D4",
                    "midi": 62,
                    "time": 270.19370600000144,
                    "velocity": 0.28346456692913385,
                    "duration": 0.3677421500000264
                },
                {
                    "name": "C3",
                    "midi": 48,
                    "time": 270.5808030000015,
                    "velocity": 0.29133858267716534,
                    "duration": 0.7669359312499751
                },
                {
                    "name": "G3",
                    "midi": 55,
                    "time": 270.5808030000015,
                    "velocity": 0.29133858267716534,
                    "duration": 0.7669359312499751
                },
                {
                    "name": "C4",
                    "midi": 60,
                    "time": 270.5808030000015,
                    "velocity": 0.36220472440944884,
                    "duration": 0.7669359312499751
                },
                {
                    "name": "C3",
                    "midi": 48,
                    "time": 271.35499700000145,
                    "velocity": 0.2283464566929134,
                    "duration": 0.3677421500000264
                },
                {
                    "name": "G3",
                    "midi": 55,
                    "time": 271.35499700000145,
                    "velocity": 0.2283464566929134,
                    "duration": 0.3677421500000264
                },
                {
                    "name": "C4",
                    "midi": 60,
                    "time": 271.35499700000145,
                    "velocity": 0.2755905511811024,
                    "duration": 0.3677421500000264
                },
                {
                    "name": "C3",
                    "midi": 48,
                    "time": 271.7420940000015,
                    "velocity": 0.2283464566929134,
                    "duration": 0.3677421500000264
                },
                {
                    "name": "G3",
                    "midi": 55,
                    "time": 271.7420940000015,
                    "velocity": 0.2283464566929134,
                    "duration": 0.3677421500000264
                },
                {
                    "name": "C4",
                    "midi": 60,
                    "time": 271.7420940000015,
                    "velocity": 0.2755905511811024,
                    "duration": 0.3677421500000264
                },
                {
                    "name": "C3",
                    "midi": 48,
                    "time": 272.1291910000015,
                    "velocity": 0.2204724409448819,
                    "duration": 0.3677421500000264
                },
                {
                    "name": "G3",
                    "midi": 55,
                    "time": 272.1291910000015,
                    "velocity": 0.2204724409448819,
                    "duration": 0.3677421500000264
                },
                {
                    "name": "C4",
                    "midi": 60,
                    "time": 272.1291910000015,
                    "velocity": 0.25984251968503935,
                    "duration": 0.3677421500000264
                },
                {
                    "name": "C3",
                    "midi": 48,
                    "time": 272.51628800000157,
                    "velocity": 0.2204724409448819,
                    "duration": 0.3677421500000264
                },
                {
                    "name": "G3",
                    "midi": 55,
                    "time": 272.51628800000157,
                    "velocity": 0.2204724409448819,
                    "duration": 0.3677421500000264
                },
                {
                    "name": "C4",
                    "midi": 60,
                    "time": 272.51628800000157,
                    "velocity": 0.25984251968503935,
                    "duration": 0.3677421500000264
                },
                {
                    "name": "C3",
                    "midi": 48,
                    "time": 272.9033850000016,
                    "velocity": 0.2283464566929134,
                    "duration": 0.3677421500000264
                },
                {
                    "name": "G3",
                    "midi": 55,
                    "time": 272.9033850000016,
                    "velocity": 0.2283464566929134,
                    "duration": 0.3677421500000264
                },
                {
                    "name": "C4",
                    "midi": 60,
                    "time": 272.9033850000016,
                    "velocity": 0.2755905511811024,
                    "duration": 0.3677421500000264
                },
                {
                    "name": "G2",
                    "midi": 43,
                    "time": 273.29048200000165,
                    "velocity": 0.25196850393700787,
                    "duration": 0.3750002187500172
                },
                {
                    "name": "G3",
                    "midi": 55,
                    "time": 273.29048200000165,
                    "velocity": 0.2992125984251969,
                    "duration": 0.3750002187500172
                },
                {
                    "name": "G2",
                    "midi": 43,
                    "time": 273.6775790000017,
                    "velocity": 0.2283464566929134,
                    "duration": 0.3677421500000264
                },
                {
                    "name": "E2",
                    "midi": 40,
                    "time": 273.6775790000017,
                    "velocity": 0.2283464566929134,
                    "duration": 0.3677421500000264
                },
                {
                    "name": "E3",
                    "midi": 52,
                    "time": 273.6775790000017,
                    "velocity": 0.2755905511811024,
                    "duration": 0.3677421500000264
                },
                {
                    "name": "E2",
                    "midi": 40,
                    "time": 274.0646760000017,
                    "velocity": 0.2283464566929134,
                    "duration": 0.3677421500000264
                },
                {
                    "name": "G2",
                    "midi": 43,
                    "time": 274.0646760000017,
                    "velocity": 0.2283464566929134,
                    "duration": 0.3677421500000264
                },
                {
                    "name": "E3",
                    "midi": 52,
                    "time": 274.0646760000017,
                    "velocity": 0.2755905511811024,
                    "duration": 0.3677421500000264
                },
                {
                    "name": "G2",
                    "midi": 43,
                    "time": 274.45177300000177,
                    "velocity": 0.25196850393700787,
                    "duration": 0.3677421500000264
                },
                {
                    "name": "G3",
                    "midi": 55,
                    "time": 274.45177300000177,
                    "velocity": 0.2992125984251969,
                    "duration": 0.3677421500000264
                },
                {
                    "name": "C3",
                    "midi": 48,
                    "time": 274.8388700000018,
                    "velocity": 0.28346456692913385,
                    "duration": 0.3677421500000264
                },
                {
                    "name": "G3",
                    "midi": 55,
                    "time": 274.8388700000018,
                    "velocity": 0.28346456692913385,
                    "duration": 0.3677421500000264
                },
                {
                    "name": "C4",
                    "midi": 60,
                    "time": 274.8388700000018,
                    "velocity": 0.33070866141732286,
                    "duration": 0.3677421500000264
                },
                {
                    "name": "D#3",
                    "midi": 51,
                    "time": 275.22596700000184,
                    "velocity": 0.3464566929133858,
                    "duration": 0.7661294791666933
                },
                {
                    "name": "A#3",
                    "midi": 58,
                    "time": 275.22596700000184,
                    "velocity": 0.3464566929133858,
                    "duration": 0.7661294791666933
                },
                {
                    "name": "D#4",
                    "midi": 63,
                    "time": 275.22596700000184,
                    "velocity": 0.41732283464566927,
                    "duration": 0.7661294791666933
                },
                {
                    "name": "D#3",
                    "midi": 51,
                    "time": 276.00016100000187,
                    "velocity": 0.30708661417322836,
                    "duration": 0.3677421500000264
                },
                {
                    "name": "A#3",
                    "midi": 58,
                    "time": 276.00016100000187,
                    "velocity": 0.30708661417322836,
                    "duration": 0.3677421500000264
                },
                {
                    "name": "D#4",
                    "midi": 63,
                    "time": 276.00016100000187,
                    "velocity": 0.3700787401574803,
                    "duration": 0.3677421500000264
                },
                {
                    "name": "D#3",
                    "midi": 51,
                    "time": 276.3872580000019,
                    "velocity": 0.30708661417322836,
                    "duration": 0.3677421500000264
                },
                {
                    "name": "A#3",
                    "midi": 58,
                    "time": 276.3872580000019,
                    "velocity": 0.30708661417322836,
                    "duration": 0.3677421500000264
                },
                {
                    "name": "D#4",
                    "midi": 63,
                    "time": 276.3872580000019,
                    "velocity": 0.3700787401574803,
                    "duration": 0.3677421500000264
                },
                {
                    "name": "D#3",
                    "midi": 51,
                    "time": 276.77435500000195,
                    "velocity": 0.2992125984251969,
                    "duration": 0.3677421500000264
                },
                {
                    "name": "A#3",
                    "midi": 58,
                    "time": 276.77435500000195,
                    "velocity": 0.2992125984251969,
                    "duration": 0.3677421500000264
                },
                {
                    "name": "D#4",
                    "midi": 63,
                    "time": 276.77435500000195,
                    "velocity": 0.3543307086614173,
                    "duration": 0.3677421500000264
                },
                {
                    "name": "D#3",
                    "midi": 51,
                    "time": 277.161452000002,
                    "velocity": 0.2992125984251969,
                    "duration": 0.3677421500000264
                },
                {
                    "name": "A#3",
                    "midi": 58,
                    "time": 277.161452000002,
                    "velocity": 0.2992125984251969,
                    "duration": 0.3677421500000264
                },
                {
                    "name": "D#4",
                    "midi": 63,
                    "time": 277.161452000002,
                    "velocity": 0.3543307086614173,
                    "duration": 0.3677421500000264
                },
                {
                    "name": "D#3",
                    "midi": 51,
                    "time": 277.548549000002,
                    "velocity": 0.30708661417322836,
                    "duration": 0.3677421500000264
                },
                {
                    "name": "A#3",
                    "midi": 58,
                    "time": 277.548549000002,
                    "velocity": 0.30708661417322836,
                    "duration": 0.3677421500000264
                },
                {
                    "name": "D#4",
                    "midi": 63,
                    "time": 277.548549000002,
                    "velocity": 0.3700787401574803,
                    "duration": 0.3677421500000264
                },
                {
                    "name": "A#2",
                    "midi": 46,
                    "time": 277.93564600000207,
                    "velocity": 0.3464566929133858,
                    "duration": 0.3750002187500172
                },
                {
                    "name": "A#3",
                    "midi": 58,
                    "time": 277.93564600000207,
                    "velocity": 0.4015748031496063,
                    "duration": 0.3750002187500172
                },
                {
                    "name": "G2",
                    "midi": 43,
                    "time": 278.3227430000021,
                    "velocity": 0.30708661417322836,
                    "duration": 0.3677421500000264
                },
                {
                    "name": "A#2",
                    "midi": 46,
                    "time": 278.3227430000021,
                    "velocity": 0.30708661417322836,
                    "duration": 0.3677421500000264
                },
                {
                    "name": "G3",
                    "midi": 55,
                    "time": 278.3227430000021,
                    "velocity": 0.3700787401574803,
                    "duration": 0.3677421500000264
                },
                {
                    "name": "G2",
                    "midi": 43,
                    "time": 278.70984000000215,
                    "velocity": 0.30708661417322836,
                    "duration": 0.3677421500000264
                },
                {
                    "name": "A#2",
                    "midi": 46,
                    "time": 278.70984000000215,
                    "velocity": 0.30708661417322836,
                    "duration": 0.3677421500000264
                },
                {
                    "name": "G3",
                    "midi": 55,
                    "time": 278.70984000000215,
                    "velocity": 0.3700787401574803,
                    "duration": 0.3677421500000264
                },
                {
                    "name": "A#2",
                    "midi": 46,
                    "time": 279.0969370000022,
                    "velocity": 0.33070866141732286,
                    "duration": 0.3677421500000264
                },
                {
                    "name": "A#3",
                    "midi": 58,
                    "time": 279.0969370000022,
                    "velocity": 0.4094488188976378,
                    "duration": 0.3677421500000264
                },
                {
                    "name": "D#3",
                    "midi": 51,
                    "time": 279.4840340000022,
                    "velocity": 0.36220472440944884,
                    "duration": 0.3677421500000264
                },
                {
                    "name": "A#3",
                    "midi": 58,
                    "time": 279.4840340000022,
                    "velocity": 0.36220472440944884,
                    "duration": 0.3677421500000264
                },
                {
                    "name": "D#4",
                    "midi": 63,
                    "time": 279.4840340000022,
                    "velocity": 0.44881889763779526,
                    "duration": 0.3677421500000264
                },
                {
                    "name": "F#2",
                    "midi": 42,
                    "time": 279.87113100000226,
                    "velocity": 0.3937007874015748,
                    "duration": 0.7661294791666933
                },
                {
                    "name": "C#3",
                    "midi": 49,
                    "time": 279.87113100000226,
                    "velocity": 0.3937007874015748,
                    "duration": 0.7661294791666933
                },
                {
                    "name": "F#3",
                    "midi": 54,
                    "time": 279.87113100000226,
                    "velocity": 0.48031496062992124,
                    "duration": 0.7661294791666933
                },
                {
                    "name": "F#2",
                    "midi": 42,
                    "time": 280.6453250000023,
                    "velocity": 0.3543307086614173,
                    "duration": 0.3677421500000264
                },
                {
                    "name": "C#3",
                    "midi": 49,
                    "time": 280.6453250000023,
                    "velocity": 0.3543307086614173,
                    "duration": 0.3677421500000264
                },
                {
                    "name": "F#3",
                    "midi": 54,
                    "time": 280.6453250000023,
                    "velocity": 0.41732283464566927,
                    "duration": 0.3677421500000264
                },
                {
                    "name": "F#2",
                    "midi": 42,
                    "time": 281.0324220000023,
                    "velocity": 0.3543307086614173,
                    "duration": 0.3677421500000264
                },
                {
                    "name": "C#3",
                    "midi": 49,
                    "time": 281.0324220000023,
                    "velocity": 0.3543307086614173,
                    "duration": 0.3677421500000264
                },
                {
                    "name": "F#3",
                    "midi": 54,
                    "time": 281.0324220000023,
                    "velocity": 0.41732283464566927,
                    "duration": 0.3677421500000264
                },
                {
                    "name": "F#2",
                    "midi": 42,
                    "time": 281.41951900000237,
                    "velocity": 0.33858267716535434,
                    "duration": 0.3677421500000264
                },
                {
                    "name": "C#3",
                    "midi": 49,
                    "time": 281.41951900000237,
                    "velocity": 0.33858267716535434,
                    "duration": 0.3677421500000264
                },
                {
                    "name": "F#3",
                    "midi": 54,
                    "time": 281.41951900000237,
                    "velocity": 0.4015748031496063,
                    "duration": 0.3677421500000264
                },
                {
                    "name": "F#2",
                    "midi": 42,
                    "time": 281.8066160000024,
                    "velocity": 0.33858267716535434,
                    "duration": 0.3677421500000264
                },
                {
                    "name": "C#3",
                    "midi": 49,
                    "time": 281.8066160000024,
                    "velocity": 0.33858267716535434,
                    "duration": 0.3677421500000264
                },
                {
                    "name": "F#3",
                    "midi": 54,
                    "time": 281.8066160000024,
                    "velocity": 0.4015748031496063,
                    "duration": 0.3677421500000264
                },
                {
                    "name": "F#2",
                    "midi": 42,
                    "time": 282.19371300000245,
                    "velocity": 0.3543307086614173,
                    "duration": 0.3677421500000264
                },
                {
                    "name": "C#3",
                    "midi": 49,
                    "time": 282.19371300000245,
                    "velocity": 0.3543307086614173,
                    "duration": 0.3677421500000264
                },
                {
                    "name": "F#3",
                    "midi": 54,
                    "time": 282.19371300000245,
                    "velocity": 0.41732283464566927,
                    "duration": 0.3677421500000264
                },
                {
                    "name": "C#2",
                    "midi": 37,
                    "time": 282.5808100000025,
                    "velocity": 0.3543307086614173,
                    "duration": 0.3750002187500172
                },
                {
                    "name": "C#3",
                    "midi": 49,
                    "time": 282.5808100000025,
                    "velocity": 0.41732283464566927,
                    "duration": 0.3750002187500172
                },
                {
                    "name": "A#1",
                    "midi": 34,
                    "time": 282.9679070000025,
                    "velocity": 0.3543307086614173,
                    "duration": 0.3677421500000264
                },
                {
                    "name": "A#2",
                    "midi": 46,
                    "time": 282.9679070000025,
                    "velocity": 0.41732283464566927,
                    "duration": 0.3677421500000264
                },
                {
                    "name": "F#2",
                    "midi": 42,
                    "time": 283.35500400000257,
                    "velocity": 0.3543307086614173,
                    "duration": 0.3677421500000264
                },
                {
                    "name": "F#3",
                    "midi": 54,
                    "time": 283.35500400000257,
                    "velocity": 0.41732283464566927,
                    "duration": 0.3677421500000264
                },
                {
                    "name": "F#3",
                    "midi": 54,
                    "time": 283.7421010000026,
                    "velocity": 0.3937007874015748,
                    "duration": 0.38709700000003977
                },
                {
                    "name": "G#2",
                    "midi": 44,
                    "time": 283.7421010000026,
                    "velocity": 0.3937007874015748,
                    "duration": 0.3677421500000264
                },
                {
                    "name": "G#3",
                    "midi": 56,
                    "time": 283.7421010000026,
                    "velocity": 0.49606299212598426,
                    "duration": 0.3677421500000264
                },
                {
                    "name": "A#2",
                    "midi": 46,
                    "time": 284.12919800000265,
                    "velocity": 0.44881889763779526,
                    "duration": 0.3677421500000264
                },
                {
                    "name": "F#3",
                    "midi": 54,
                    "time": 284.12919800000265,
                    "velocity": 0.44881889763779526,
                    "duration": 0.3677421500000264
                },
                {
                    "name": "A#3",
                    "midi": 58,
                    "time": 284.12919800000265,
                    "velocity": 0.5590551181102362,
                    "duration": 0.3677421500000264
                },
                {
                    "name": "B2",
                    "midi": 47,
                    "time": 284.5162950000027,
                    "velocity": 0.5118110236220472,
                    "duration": 0.7661294791666933
                },
                {
                    "name": "F#3",
                    "midi": 54,
                    "time": 284.5162950000027,
                    "velocity": 0.5118110236220472,
                    "duration": 0.7661294791666933
                },
                {
                    "name": "B3",
                    "midi": 59,
                    "time": 284.5162950000027,
                    "velocity": 0.6299212598425197,
                    "duration": 0.7661294791666933
                },
                {
                    "name": "B2",
                    "midi": 47,
                    "time": 285.2904890000027,
                    "velocity": 0.4566929133858268,
                    "duration": 0.3677421500000264
                },
                {
                    "name": "F#3",
                    "midi": 54,
                    "time": 285.2904890000027,
                    "velocity": 0.4566929133858268,
                    "duration": 0.3677421500000264
                },
                {
                    "name": "B3",
                    "midi": 59,
                    "time": 285.2904890000027,
                    "velocity": 0.5433070866141733,
                    "duration": 0.3677421500000264
                },
                {
                    "name": "B2",
                    "midi": 47,
                    "time": 285.67758600000275,
                    "velocity": 0.4566929133858268,
                    "duration": 0.3677421500000264
                },
                {
                    "name": "F#3",
                    "midi": 54,
                    "time": 285.67758600000275,
                    "velocity": 0.4566929133858268,
                    "duration": 0.3677421500000264
                },
                {
                    "name": "B3",
                    "midi": 59,
                    "time": 285.67758600000275,
                    "velocity": 0.5433070866141733,
                    "duration": 0.3677421500000264
                },
                {
                    "name": "B2",
                    "midi": 47,
                    "time": 286.0646830000028,
                    "velocity": 0.4409448818897638,
                    "duration": 0.3677421500000264
                },
                {
                    "name": "F#3",
                    "midi": 54,
                    "time": 286.0646830000028,
                    "velocity": 0.4409448818897638,
                    "duration": 0.3677421500000264
                },
                {
                    "name": "B3",
                    "midi": 59,
                    "time": 286.0646830000028,
                    "velocity": 0.5196850393700787,
                    "duration": 0.3677421500000264
                },
                {
                    "name": "B2",
                    "midi": 47,
                    "time": 286.4517800000028,
                    "velocity": 0.4409448818897638,
                    "duration": 0.3677421500000264
                },
                {
                    "name": "F#3",
                    "midi": 54,
                    "time": 286.4517800000028,
                    "velocity": 0.4409448818897638,
                    "duration": 0.3677421500000264
                },
                {
                    "name": "B3",
                    "midi": 59,
                    "time": 286.4517800000028,
                    "velocity": 0.5196850393700787,
                    "duration": 0.3677421500000264
                },
                {
                    "name": "G1",
                    "midi": 31,
                    "time": 286.83887700000287,
                    "velocity": 0.5118110236220472,
                    "duration": 0.7661294791666933
                },
                {
                    "name": "G2",
                    "midi": 43,
                    "time": 286.83887700000287,
                    "velocity": 0.6299212598425197,
                    "duration": 0.7661294791666933
                },
                {
                    "name": "G1",
                    "midi": 31,
                    "time": 287.6130710000029,
                    "velocity": 0.4566929133858268,
                    "duration": 0.3677421500000264
                },
                {
                    "name": "G2",
                    "midi": 43,
                    "time": 287.6130710000029,
                    "velocity": 0.5433070866141733,
                    "duration": 0.3677421500000264
                },
                {
                    "name": "B1",
                    "midi": 35,
                    "time": 288.00016800000293,
                    "velocity": 0.4566929133858268,
                    "duration": 0.3677421500000264
                },
                {
                    "name": "B2",
                    "midi": 47,
                    "time": 288.00016800000293,
                    "velocity": 0.5433070866141733,
                    "duration": 0.3677421500000264
                },
                {
                    "name": "D2",
                    "midi": 38,
                    "time": 288.38726500000297,
                    "velocity": 0.4094488188976378,
                    "duration": 0.3677421500000264
                },
                {
                    "name": "D3",
                    "midi": 50,
                    "time": 288.38726500000297,
                    "velocity": 0.4881889763779528,
                    "duration": 0.3677421500000264
                },
                {
                    "name": "G2",
                    "midi": 43,
                    "time": 288.774362000003,
                    "velocity": 0.3779527559055118,
                    "duration": 0.3677421500000264
                },
                {
                    "name": "G3",
                    "midi": 55,
                    "time": 288.774362000003,
                    "velocity": 0.44881889763779526,
                    "duration": 0.3677421500000264
                },
                {
                    "name": "C2",
                    "midi": 36,
                    "time": 289.16145900000305,
                    "velocity": 0.36220472440944884,
                    "duration": 0.7508068895833162
                },
                {
                    "name": "C3",
                    "midi": 48,
                    "time": 289.16145900000305,
                    "velocity": 0.4330708661417323,
                    "duration": 0.7508068895833162
                },
                {
                    "name": "C2",
                    "midi": 36,
                    "time": 289.935653000003,
                    "velocity": 0.2125984251968504,
                    "duration": 0.3677421500000264
                },
                {
                    "name": "C3",
                    "midi": 48,
                    "time": 289.935653000003,
                    "velocity": 0.25196850393700787,
                    "duration": 0.3677421500000264
                },
                {
                    "name": "C2",
                    "midi": 36,
                    "time": 290.32275000000305,
                    "velocity": 0.18110236220472442,
                    "duration": 0.3677421500000264
                },
                {
                    "name": "C3",
                    "midi": 48,
                    "time": 290.32275000000305,
                    "velocity": 0.25984251968503935,
                    "duration": 0.3677421500000264
                },
                {
                    "name": "C2",
                    "midi": 36,
                    "time": 290.7098470000031,
                    "velocity": 0.18110236220472442,
                    "duration": 0.3677421500000264
                },
                {
                    "name": "C3",
                    "midi": 48,
                    "time": 290.7098470000031,
                    "velocity": 0.2204724409448819,
                    "duration": 0.3677421500000264
                },
                {
                    "name": "C2",
                    "midi": 36,
                    "time": 291.09694400000313,
                    "velocity": 0.18110236220472442,
                    "duration": 0.3677421500000264
                },
                {
                    "name": "C3",
                    "midi": 48,
                    "time": 291.09694400000313,
                    "velocity": 0.2204724409448819,
                    "duration": 0.3677421500000264
                },
                {
                    "name": "C2",
                    "midi": 36,
                    "time": 291.4840410000032,
                    "velocity": 0.23622047244094488,
                    "duration": 0.7508068895833162
                },
                {
                    "name": "C3",
                    "midi": 48,
                    "time": 291.4840410000032,
                    "velocity": 0.28346456692913385,
                    "duration": 0.7508068895833162
                },
                {
                    "name": "C2",
                    "midi": 36,
                    "time": 292.25823500000314,
                    "velocity": 0.18110236220472442,
                    "duration": 0.3677421500000264
                },
                {
                    "name": "C3",
                    "midi": 48,
                    "time": 292.25823500000314,
                    "velocity": 0.2204724409448819,
                    "duration": 0.3677421500000264
                },
                {
                    "name": "C2",
                    "midi": 36,
                    "time": 292.6453320000032,
                    "velocity": 0.2283464566929134,
                    "duration": 0.7508068895833162
                },
                {
                    "name": "C3",
                    "midi": 48,
                    "time": 292.6453320000032,
                    "velocity": 0.2755905511811024,
                    "duration": 0.7508068895833162
                },
                {
                    "name": "C2",
                    "midi": 36,
                    "time": 293.41952600000315,
                    "velocity": 0.16535433070866143,
                    "duration": 0.3677421500000264
                },
                {
                    "name": "C3",
                    "midi": 48,
                    "time": 293.41952600000315,
                    "velocity": 0.2047244094488189,
                    "duration": 0.3677421500000264
                },
                {
                    "name": "C2",
                    "midi": 36,
                    "time": 293.8066230000032,
                    "velocity": 0.2204724409448819,
                    "duration": 0.7508068895833162
                },
                {
                    "name": "C3",
                    "midi": 48,
                    "time": 293.8066230000032,
                    "velocity": 0.2677165354330709,
                    "duration": 0.7508068895833162
                },
                {
                    "name": "C2",
                    "midi": 36,
                    "time": 294.58081700000315,
                    "velocity": 0.16535433070866143,
                    "duration": 0.3677421500000264
                },
                {
                    "name": "C3",
                    "midi": 48,
                    "time": 294.58081700000315,
                    "velocity": 0.2047244094488189,
                    "duration": 0.3677421500000264
                },
                {
                    "name": "C2",
                    "midi": 36,
                    "time": 294.9679140000032,
                    "velocity": 0.1968503937007874,
                    "duration": 0.7508068895833162
                },
                {
                    "name": "C3",
                    "midi": 48,
                    "time": 294.9679140000032,
                    "velocity": 0.23622047244094488,
                    "duration": 0.7508068895833162
                },
                {
                    "name": "C2",
                    "midi": 36,
                    "time": 295.74210800000316,
                    "velocity": 0.1732283464566929,
                    "duration": 0.3677421500000264
                },
                {
                    "name": "C3",
                    "midi": 48,
                    "time": 295.74210800000316,
                    "velocity": 0.2047244094488189,
                    "duration": 0.3677421500000264
                },
                {
                    "name": "C2",
                    "midi": 36,
                    "time": 296.1292050000032,
                    "velocity": 0.18110236220472442,
                    "duration": 0.7508068895833162
                },
                {
                    "name": "C3",
                    "midi": 48,
                    "time": 296.1292050000032,
                    "velocity": 0.2204724409448819,
                    "duration": 0.7508068895833162
                },
                {
                    "name": "C2",
                    "midi": 36,
                    "time": 296.90339900000316,
                    "velocity": 0.16535433070866143,
                    "duration": 0.3677421500000264
                },
                {
                    "name": "C3",
                    "midi": 48,
                    "time": 296.90339900000316,
                    "velocity": 0.1968503937007874,
                    "duration": 0.3677421500000264
                },
                {
                    "name": "C2",
                    "midi": 36,
                    "time": 297.2904960000032,
                    "velocity": 0.18110236220472442,
                    "duration": 0.3677421500000264
                },
                {
                    "name": "C3",
                    "midi": 48,
                    "time": 297.2904960000032,
                    "velocity": 0.2125984251968504,
                    "duration": 0.3677421500000264
                },
                {
                    "name": "C2",
                    "midi": 36,
                    "time": 297.67759300000324,
                    "velocity": 0.16535433070866143,
                    "duration": 0.3677421500000264
                },
                {
                    "name": "C3",
                    "midi": 48,
                    "time": 297.67759300000324,
                    "velocity": 0.1968503937007874,
                    "duration": 0.3677421500000264
                },
                {
                    "name": "C2",
                    "midi": 36,
                    "time": 298.0646900000033,
                    "velocity": 0.16535433070866143,
                    "duration": 0.3677421500000264
                },
                {
                    "name": "C3",
                    "midi": 48,
                    "time": 298.0646900000033,
                    "velocity": 0.1968503937007874,
                    "duration": 0.3677421500000264
                },
                {
                    "name": "C2",
                    "midi": 36,
                    "time": 298.4517870000033,
                    "velocity": 0.18110236220472442,
                    "duration": 0.7508068895833162
                },
                {
                    "name": "C3",
                    "midi": 48,
                    "time": 298.4517870000033,
                    "velocity": 0.2204724409448819,
                    "duration": 0.7508068895833162
                },
                {
                    "name": "C2",
                    "midi": 36,
                    "time": 299.2259810000033,
                    "velocity": 0.16535433070866143,
                    "duration": 0.3677421500000264
                },
                {
                    "name": "C3",
                    "midi": 48,
                    "time": 299.2259810000033,
                    "velocity": 0.1968503937007874,
                    "duration": 0.3677421500000264
                },
                {
                    "name": "C2",
                    "midi": 36,
                    "time": 299.6130780000033,
                    "velocity": 0.18110236220472442,
                    "duration": 0.3677421500000264
                },
                {
                    "name": "C3",
                    "midi": 48,
                    "time": 299.6130780000033,
                    "velocity": 0.2125984251968504,
                    "duration": 0.3677421500000264
                },
                {
                    "name": "C2",
                    "midi": 36,
                    "time": 300.00017500000337,
                    "velocity": 0.16535433070866143,
                    "duration": 0.3677421500000264
                },
                {
                    "name": "C3",
                    "midi": 48,
                    "time": 300.00017500000337,
                    "velocity": 0.1968503937007874,
                    "duration": 0.3677421500000264
                },
                {
                    "name": "C2",
                    "midi": 36,
                    "time": 300.3872720000034,
                    "velocity": 0.16535433070866143,
                    "duration": 0.3677421500000264
                },
                {
                    "name": "C3",
                    "midi": 48,
                    "time": 300.3872720000034,
                    "velocity": 0.1968503937007874,
                    "duration": 0.3677421500000264
                },
                {
                    "name": "B1",
                    "midi": 35,
                    "time": 300.77436900000345,
                    "velocity": 0.18110236220472442,
                    "duration": 0.7669359312499751
                },
                {
                    "name": "B2",
                    "midi": 47,
                    "time": 300.77436900000345,
                    "velocity": 0.2204724409448819,
                    "duration": 0.7669359312499751
                },
                {
                    "name": "B2",
                    "midi": 47,
                    "time": 301.5485630000034,
                    "velocity": 0.2204724409448819,
                    "duration": 0.3677421500000264
                },
                {
                    "name": "B2",
                    "midi": 47,
                    "time": 301.93566000000345,
                    "velocity": 0.2204724409448819,
                    "duration": 0.3677421500000264
                },
                {
                    "name": "B2",
                    "midi": 47,
                    "time": 302.3227570000035,
                    "velocity": 0.2047244094488189,
                    "duration": 0.3677421500000264
                },
                {
                    "name": "A2",
                    "midi": 45,
                    "time": 302.70985400000353,
                    "velocity": 0.1732283464566929,
                    "duration": 0.3677421500000264
                },
                {
                    "name": "B2",
                    "midi": 47,
                    "time": 302.70985400000353,
                    "velocity": 0.2047244094488189,
                    "duration": 0.3677421500000264
                },
                {
                    "name": "G2",
                    "midi": 43,
                    "time": 303.09695100000357,
                    "velocity": 0.2047244094488189,
                    "duration": 0.3677421500000264
                },
                {
                    "name": "B2",
                    "midi": 47,
                    "time": 303.09695100000357,
                    "velocity": 0.2047244094488189,
                    "duration": 0.3677421500000264
                },
                {
                    "name": "G3",
                    "midi": 55,
                    "time": 303.09695100000357,
                    "velocity": 0.2440944881889764,
                    "duration": 0.3677421500000264
                },
                {
                    "name": "C3",
                    "midi": 48,
                    "time": 303.4840480000036,
                    "velocity": 0.2204724409448819,
                    "duration": 0.3750002187500172
                },
                {
                    "name": "D3",
                    "midi": 50,
                    "time": 303.4840480000036,
                    "velocity": 0.2204724409448819,
                    "duration": 0.37580667083335584
                },
                {
                    "name": "C4",
                    "midi": 60,
                    "time": 303.4840480000036,
                    "velocity": 0.2677165354330709,
                    "duration": 0.3750002187500172
                },
                {
                    "name": "D3",
                    "midi": 50,
                    "time": 303.87114500000365,
                    "velocity": 0.2047244094488189,
                    "duration": 0.3677421500000264
                },
                {
                    "name": "B2",
                    "midi": 47,
                    "time": 303.87114500000365,
                    "velocity": 0.2047244094488189,
                    "duration": 0.3677421500000264
                },
                {
                    "name": "B3",
                    "midi": 59,
                    "time": 303.87114500000365,
                    "velocity": 0.2440944881889764,
                    "duration": 0.3677421500000264
                },
                {
                    "name": "B2",
                    "midi": 47,
                    "time": 304.2582420000037,
                    "velocity": 0.2047244094488189,
                    "duration": 0.3677421500000264
                },
                {
                    "name": "D3",
                    "midi": 50,
                    "time": 304.2582420000037,
                    "velocity": 0.2047244094488189,
                    "duration": 0.3677421500000264
                },
                {
                    "name": "B3",
                    "midi": 59,
                    "time": 304.2582420000037,
                    "velocity": 0.2440944881889764,
                    "duration": 0.3677421500000264
                },
                {
                    "name": "B2",
                    "midi": 47,
                    "time": 304.64533900000373,
                    "velocity": 0.1889763779527559,
                    "duration": 0.3677421500000264
                },
                {
                    "name": "D3",
                    "midi": 50,
                    "time": 304.64533900000373,
                    "velocity": 0.1889763779527559,
                    "duration": 0.3677421500000264
                },
                {
                    "name": "B3",
                    "midi": 59,
                    "time": 304.64533900000373,
                    "velocity": 0.2204724409448819,
                    "duration": 0.3677421500000264
                },
                {
                    "name": "B2",
                    "midi": 47,
                    "time": 305.03243600000377,
                    "velocity": 0.1889763779527559,
                    "duration": 0.3677421500000264
                },
                {
                    "name": "D3",
                    "midi": 50,
                    "time": 305.03243600000377,
                    "velocity": 0.1889763779527559,
                    "duration": 0.3677421500000264
                },
                {
                    "name": "B3",
                    "midi": 59,
                    "time": 305.03243600000377,
                    "velocity": 0.2204724409448819,
                    "duration": 0.3677421500000264
                },
                {
                    "name": "B2",
                    "midi": 47,
                    "time": 305.4195330000038,
                    "velocity": 0.2047244094488189,
                    "duration": 0.3870969999999829
                },
                {
                    "name": "D3",
                    "midi": 50,
                    "time": 305.4195330000038,
                    "velocity": 0.2047244094488189,
                    "duration": 0.3870969999999829
                },
                {
                    "name": "B3",
                    "midi": 59,
                    "time": 305.4195330000038,
                    "velocity": 0.2440944881889764,
                    "duration": 0.3870969999999829
                },
                {
                    "name": "F#2",
                    "midi": 42,
                    "time": 305.8066300000038,
                    "velocity": 0.18110236220472442,
                    "duration": 0.37580667083335584
                },
                {
                    "name": "D3",
                    "midi": 50,
                    "time": 305.8066300000038,
                    "velocity": 0.18110236220472442,
                    "duration": 0.37580667083335584
                },
                {
                    "name": "F#3",
                    "midi": 54,
                    "time": 305.8066300000038,
                    "velocity": 0.2125984251968504,
                    "duration": 0.37580667083335584
                },
                {
                    "name": "A2",
                    "midi": 45,
                    "time": 306.19372700000383,
                    "velocity": 0.18110236220472442,
                    "duration": 0.37580667083335584
                },
                {
                    "name": "D3",
                    "midi": 50,
                    "time": 306.19372700000383,
                    "velocity": 0.18110236220472442,
                    "duration": 0.37580667083335584
                },
                {
                    "name": "A3",
                    "midi": 57,
                    "time": 306.19372700000383,
                    "velocity": 0.2125984251968504,
                    "duration": 0.37580667083335584
                },
                {
                    "name": "A2",
                    "midi": 45,
                    "time": 306.5808240000039,
                    "velocity": 0.2047244094488189,
                    "duration": 0.37580667083335584
                },
                {
                    "name": "D3",
                    "midi": 50,
                    "time": 306.5808240000039,
                    "velocity": 0.2047244094488189,
                    "duration": 0.37580667083335584
                },
                {
                    "name": "A3",
                    "midi": 57,
                    "time": 306.5808240000039,
                    "velocity": 0.2440944881889764,
                    "duration": 0.37580667083335584
                },
                {
                    "name": "G2",
                    "midi": 43,
                    "time": 306.9679210000039,
                    "velocity": 0.1968503937007874,
                    "duration": 0.37580667083335584
                },
                {
                    "name": "D3",
                    "midi": 50,
                    "time": 306.9679210000039,
                    "velocity": 0.1968503937007874,
                    "duration": 0.37580667083335584
                },
                {
                    "name": "G3",
                    "midi": 55,
                    "time": 306.9679210000039,
                    "velocity": 0.2283464566929134,
                    "duration": 0.37580667083335584
                },
                {
                    "name": "F#2",
                    "midi": 42,
                    "time": 307.35501800000395,
                    "velocity": 0.1968503937007874,
                    "duration": 0.37580667083335584
                },
                {
                    "name": "D3",
                    "midi": 50,
                    "time": 307.35501800000395,
                    "velocity": 0.1968503937007874,
                    "duration": 0.37580667083335584
                },
                {
                    "name": "F#3",
                    "midi": 54,
                    "time": 307.35501800000395,
                    "velocity": 0.2283464566929134,
                    "duration": 0.37580667083335584
                },
                {
                    "name": "F#2",
                    "midi": 42,
                    "time": 307.742115000004,
                    "velocity": 0.2047244094488189,
                    "duration": 0.37580667083335584
                },
                {
                    "name": "D3",
                    "midi": 50,
                    "time": 307.742115000004,
                    "velocity": 0.2047244094488189,
                    "duration": 0.37580667083335584
                },
                {
                    "name": "F#3",
                    "midi": 54,
                    "time": 307.742115000004,
                    "velocity": 0.2440944881889764,
                    "duration": 0.37580667083335584
                },
                {
                    "name": "G2",
                    "midi": 43,
                    "time": 308.12921200000403,
                    "velocity": 0.2047244094488189,
                    "duration": 0.37580667083335584
                },
                {
                    "name": "D3",
                    "midi": 50,
                    "time": 308.12921200000403,
                    "velocity": 0.2047244094488189,
                    "duration": 0.37580667083335584
                },
                {
                    "name": "G3",
                    "midi": 55,
                    "time": 308.12921200000403,
                    "velocity": 0.2440944881889764,
                    "duration": 0.37580667083335584
                },
                {
                    "name": "G2",
                    "midi": 43,
                    "time": 308.51630900000407,
                    "velocity": 0.2047244094488189,
                    "duration": 0.37580667083335584
                },
                {
                    "name": "D3",
                    "midi": 50,
                    "time": 308.51630900000407,
                    "velocity": 0.2047244094488189,
                    "duration": 0.37580667083335584
                },
                {
                    "name": "G3",
                    "midi": 55,
                    "time": 308.51630900000407,
                    "velocity": 0.2440944881889764,
                    "duration": 0.37580667083335584
                },
                {
                    "name": "G2",
                    "midi": 43,
                    "time": 308.9034060000041,
                    "velocity": 0.2283464566929134,
                    "duration": 0.37580667083335584
                },
                {
                    "name": "D3",
                    "midi": 50,
                    "time": 308.9034060000041,
                    "velocity": 0.2283464566929134,
                    "duration": 0.37580667083335584
                },
                {
                    "name": "G3",
                    "midi": 55,
                    "time": 308.9034060000041,
                    "velocity": 0.2755905511811024,
                    "duration": 0.37580667083335584
                },
                {
                    "name": "G2",
                    "midi": 43,
                    "time": 309.29050300000415,
                    "velocity": 0.25984251968503935,
                    "duration": 0.37580667083335584
                },
                {
                    "name": "D3",
                    "midi": 50,
                    "time": 309.29050300000415,
                    "velocity": 0.25984251968503935,
                    "duration": 0.37580667083335584
                },
                {
                    "name": "G3",
                    "midi": 55,
                    "time": 309.29050300000415,
                    "velocity": 0.31496062992125984,
                    "duration": 0.37580667083335584
                },
                {
                    "name": "A2",
                    "midi": 45,
                    "time": 309.6776000000042,
                    "velocity": 0.30708661417322836,
                    "duration": 0.37580667083335584
                },
                {
                    "name": "D3",
                    "midi": 50,
                    "time": 309.6776000000042,
                    "velocity": 0.30708661417322836,
                    "duration": 0.37580667083335584
                },
                {
                    "name": "A3",
                    "midi": 57,
                    "time": 309.6776000000042,
                    "velocity": 0.3700787401574803,
                    "duration": 0.37580667083335584
                },
                {
                    "name": "D3",
                    "midi": 50,
                    "time": 310.06469700000423,
                    "velocity": 0.33858267716535434,
                    "duration": 0.7661294791666933
                },
                {
                    "name": "B2",
                    "midi": 47,
                    "time": 310.06469700000423,
                    "velocity": 0.33858267716535434,
                    "duration": 0.7661294791666933
                },
                {
                    "name": "B3",
                    "midi": 59,
                    "time": 310.06469700000423,
                    "velocity": 0.4094488188976378,
                    "duration": 0.7669359312500319
                },
                {
                    "name": "D3",
                    "midi": 50,
                    "time": 310.83889100000425,
                    "velocity": 0.2677165354330709,
                    "duration": 0.3677421500000264
                },
                {
                    "name": "B2",
                    "midi": 47,
                    "time": 310.83889100000425,
                    "velocity": 0.2677165354330709,
                    "duration": 0.3677421500000264
                },
                {
                    "name": "B3",
                    "midi": 59,
                    "time": 310.83889100000425,
                    "velocity": 0.33070866141732286,
                    "duration": 0.3677421500000264
                },
                {
                    "name": "D3",
                    "midi": 50,
                    "time": 311.2259880000043,
                    "velocity": 0.2677165354330709,
                    "duration": 0.3677421500000264
                },
                {
                    "name": "B2",
                    "midi": 47,
                    "time": 311.2259880000043,
                    "velocity": 0.2677165354330709,
                    "duration": 0.3677421500000264
                },
                {
                    "name": "B3",
                    "midi": 59,
                    "time": 311.2259880000043,
                    "velocity": 0.33070866141732286,
                    "duration": 0.3677421500000264
                },
                {
                    "name": "D3",
                    "midi": 50,
                    "time": 311.61308500000433,
                    "velocity": 0.25984251968503935,
                    "duration": 0.3677421500000264
                },
                {
                    "name": "A2",
                    "midi": 45,
                    "time": 311.61308500000433,
                    "velocity": 0.25984251968503935,
                    "duration": 0.3677421500000264
                },
                {
                    "name": "A3",
                    "midi": 57,
                    "time": 311.61308500000433,
                    "velocity": 0.30708661417322836,
                    "duration": 0.3677421500000264
                },
                {
                    "name": "G2",
                    "midi": 43,
                    "time": 312.0001820000044,
                    "velocity": 0.25984251968503935,
                    "duration": 0.3677421500000264
                },
                {
                    "name": "D3",
                    "midi": 50,
                    "time": 312.0001820000044,
                    "velocity": 0.25984251968503935,
                    "duration": 0.3677421500000264
                },
                {
                    "name": "G3",
                    "midi": 55,
                    "time": 312.0001820000044,
                    "velocity": 0.30708661417322836,
                    "duration": 0.3677421500000264
                },
                {
                    "name": "B2",
                    "midi": 47,
                    "time": 312.3872790000044,
                    "velocity": 0.2204724409448819,
                    "duration": 0.3677421500000264
                },
                {
                    "name": "G3",
                    "midi": 55,
                    "time": 312.3872790000044,
                    "velocity": 0.2204724409448819,
                    "duration": 0.3677421500000264
                },
                {
                    "name": "B3",
                    "midi": 59,
                    "time": 312.3872790000044,
                    "velocity": 0.33070866141732286,
                    "duration": 0.3677421500000264
                },
                {
                    "name": "D3",
                    "midi": 50,
                    "time": 312.77437600000445,
                    "velocity": 0.28346456692913385,
                    "duration": 0.37580667083335584
                },
                {
                    "name": "B3",
                    "midi": 59,
                    "time": 312.77437600000445,
                    "velocity": 0.28346456692913385,
                    "duration": 0.37580667083335584
                },
                {
                    "name": "D4",
                    "midi": 62,
                    "time": 312.77437600000445,
                    "velocity": 0.3937007874015748,
                    "duration": 0.37580667083335584
                },
                {
                    "name": "D4",
                    "midi": 62,
                    "time": 313.1614730000045,
                    "velocity": 0.28346456692913385,
                    "duration": 0.3677421500000264
                },
                {
                    "name": "G3",
                    "midi": 55,
                    "time": 313.1614730000045,
                    "velocity": 0.28346456692913385,
                    "duration": 0.3677421500000264
                },
                {
                    "name": "G4",
                    "midi": 67,
                    "time": 313.1614730000045,
                    "velocity": 0.4094488188976378,
                    "duration": 0.3677421500000264
                },
                {
                    "name": "G3",
                    "midi": 55,
                    "time": 313.54857000000453,
                    "velocity": 0.4015748031496063,
                    "duration": 0.3677421500000264
                },
                {
                    "name": "D4",
                    "midi": 62,
                    "time": 313.54857000000453,
                    "velocity": 0.4015748031496063,
                    "duration": 0.3677421500000264
                },
                {
                    "name": "G4",
                    "midi": 67,
                    "time": 313.54857000000453,
                    "velocity": 0.47244094488188976,
                    "duration": 0.3677421500000264
                },
                {
                    "name": "G3",
                    "midi": 55,
                    "time": 313.93566700000457,
                    "velocity": 0.4094488188976378,
                    "duration": 0.3677421500000264
                },
                {
                    "name": "D4",
                    "midi": 62,
                    "time": 313.93566700000457,
                    "velocity": 0.4094488188976378,
                    "duration": 0.3677421500000264
                },
                {
                    "name": "G4",
                    "midi": 67,
                    "time": 313.93566700000457,
                    "velocity": 0.4881889763779528,
                    "duration": 0.3677421500000264
                },
                {
                    "name": "G3",
                    "midi": 55,
                    "time": 314.3227640000046,
                    "velocity": 0.4251968503937008,
                    "duration": 0.3677421500000264
                },
                {
                    "name": "D4",
                    "midi": 62,
                    "time": 314.3227640000046,
                    "velocity": 0.4251968503937008,
                    "duration": 0.3677421500000264
                },
                {
                    "name": "G4",
                    "midi": 67,
                    "time": 314.3227640000046,
                    "velocity": 0.5039370078740157,
                    "duration": 0.3677421500000264
                },
                {
                    "name": "F#3",
                    "midi": 54,
                    "time": 314.70986100000465,
                    "velocity": 0.4409448818897638,
                    "duration": 0.3677421500000264
                },
                {
                    "name": "D#4",
                    "midi": 63,
                    "time": 314.70986100000465,
                    "velocity": 0.4409448818897638,
                    "duration": 0.3677421500000264
                },
                {
                    "name": "F#4",
                    "midi": 66,
                    "time": 314.70986100000465,
                    "velocity": 0.5196850393700787,
                    "duration": 0.3677421500000264
                },
                {
                    "name": "F#3",
                    "midi": 54,
                    "time": 315.0969580000047,
                    "velocity": 0.3700787401574803,
                    "duration": 0.3677421500000264
                },
                {
                    "name": "D#4",
                    "midi": 63,
                    "time": 315.0969580000047,
                    "velocity": 0.3700787401574803,
                    "duration": 0.3677421500000264
                },
                {
                    "name": "F#4",
                    "midi": 66,
                    "time": 315.0969580000047,
                    "velocity": 0.4409448818897638,
                    "duration": 0.3677421500000264
                },
                {
                    "name": "F#3",
                    "midi": 54,
                    "time": 315.48405500000473,
                    "velocity": 0.3464566929133858,
                    "duration": 0.3677421500000264
                },
                {
                    "name": "D#4",
                    "midi": 63,
                    "time": 315.48405500000473,
                    "velocity": 0.3464566929133858,
                    "duration": 0.3677421500000264
                },
                {
                    "name": "F#4",
                    "midi": 66,
                    "time": 315.48405500000473,
                    "velocity": 0.4094488188976378,
                    "duration": 0.3677421500000264
                },
                {
                    "name": "F#3",
                    "midi": 54,
                    "time": 315.87115200000477,
                    "velocity": 0.29133858267716534,
                    "duration": 0.3677421500000264
                },
                {
                    "name": "D#4",
                    "midi": 63,
                    "time": 315.87115200000477,
                    "velocity": 0.29133858267716534,
                    "duration": 0.3677421500000264
                },
                {
                    "name": "F#4",
                    "midi": 66,
                    "time": 315.87115200000477,
                    "velocity": 0.3464566929133858,
                    "duration": 0.3677421500000264
                },
                {
                    "name": "F#3",
                    "midi": 54,
                    "time": 316.2582490000048,
                    "velocity": 0.25984251968503935,
                    "duration": 0.3677421500000264
                },
                {
                    "name": "D#4",
                    "midi": 63,
                    "time": 316.2582490000048,
                    "velocity": 0.25984251968503935,
                    "duration": 0.3677421500000264
                },
                {
                    "name": "F#4",
                    "midi": 66,
                    "time": 316.2582490000048,
                    "velocity": 0.31496062992125984,
                    "duration": 0.3677421500000264
                },
                {
                    "name": "F#3",
                    "midi": 54,
                    "time": 316.64534600000485,
                    "velocity": 0.2283464566929134,
                    "duration": 0.3677421500000264
                },
                {
                    "name": "D#4",
                    "midi": 63,
                    "time": 316.64534600000485,
                    "velocity": 0.2283464566929134,
                    "duration": 0.3677421500000264
                },
                {
                    "name": "F#4",
                    "midi": 66,
                    "time": 316.64534600000485,
                    "velocity": 0.28346456692913385,
                    "duration": 0.3677421500000264
                },
                {
                    "name": "G3",
                    "midi": 55,
                    "time": 317.0324430000049,
                    "velocity": 0.2204724409448819,
                    "duration": 0.37580667083335584
                },
                {
                    "name": "D4",
                    "midi": 62,
                    "time": 317.0324430000049,
                    "velocity": 0.2204724409448819,
                    "duration": 0.37580667083335584
                },
                {
                    "name": "G4",
                    "midi": 67,
                    "time": 317.0324430000049,
                    "velocity": 0.25984251968503935,
                    "duration": 0.37580667083335584
                },
                {
                    "name": "A3",
                    "midi": 57,
                    "time": 317.41954000000493,
                    "velocity": 0.1968503937007874,
                    "duration": 0.37580667083335584
                },
                {
                    "name": "D4",
                    "midi": 62,
                    "time": 317.41954000000493,
                    "velocity": 0.1968503937007874,
                    "duration": 0.37580667083335584
                },
                {
                    "name": "A4",
                    "midi": 69,
                    "time": 317.41954000000493,
                    "velocity": 0.23622047244094488,
                    "duration": 0.37580667083335584
                },
                {
                    "name": "B3",
                    "midi": 59,
                    "time": 317.80663700000497,
                    "velocity": 0.1968503937007874,
                    "duration": 0.37580667083335584
                },
                {
                    "name": "D4",
                    "midi": 62,
                    "time": 317.80663700000497,
                    "velocity": 0.1968503937007874,
                    "duration": 0.37580667083335584
                },
                {
                    "name": "B4",
                    "midi": 71,
                    "time": 317.80663700000497,
                    "velocity": 0.23622047244094488,
                    "duration": 0.37580667083335584
                },
                {
                    "name": "E3",
                    "midi": 52,
                    "time": 318.193734000005,
                    "velocity": 0.2283464566929134,
                    "duration": 0.37580667083335584
                },
                {
                    "name": "E4",
                    "midi": 64,
                    "time": 318.193734000005,
                    "velocity": 0.2755905511811024,
                    "duration": 0.37580667083335584
                },
                {
                    "name": "D3",
                    "midi": 50,
                    "time": 318.58083100000505,
                    "velocity": 0.1968503937007874,
                    "duration": 0.37580667083335584
                },
                {
                    "name": "D4",
                    "midi": 62,
                    "time": 318.58083100000505,
                    "velocity": 0.23622047244094488,
                    "duration": 0.37580667083335584
                },
                {
                    "name": "D3",
                    "midi": 50,
                    "time": 318.9679280000051,
                    "velocity": 0.1968503937007874,
                    "duration": 0.3677421500000264
                },
                {
                    "name": "B2",
                    "midi": 47,
                    "time": 318.9679280000051,
                    "velocity": 0.1968503937007874,
                    "duration": 0.37580667083335584
                },
                {
                    "name": "B3",
                    "midi": 59,
                    "time": 318.9679280000051,
                    "velocity": 0.23622047244094488,
                    "duration": 0.37580667083335584
                },
                {
                    "name": "D3",
                    "midi": 50,
                    "time": 319.3550250000051,
                    "velocity": 0.2440944881889764,
                    "duration": 0.7669359312499751
                },
                {
                    "name": "D4",
                    "midi": 62,
                    "time": 319.3550250000051,
                    "velocity": 0.29133858267716534,
                    "duration": 0.7669359312499751
                },
                {
                    "name": "G3",
                    "midi": 55,
                    "time": 320.1292190000051,
                    "velocity": 0.2047244094488189,
                    "duration": 0.37580667083335584
                },
                {
                    "name": "D4",
                    "midi": 62,
                    "time": 320.1292190000051,
                    "velocity": 0.2440944881889764,
                    "duration": 0.37580667083335584
                },
                {
                    "name": "G3",
                    "midi": 55,
                    "time": 320.51631600000513,
                    "velocity": 0.23622047244094488,
                    "duration": 0.37580667083335584
                },
                {
                    "name": "D4",
                    "midi": 62,
                    "time": 320.51631600000513,
                    "velocity": 0.28346456692913385,
                    "duration": 0.37580667083335584
                },
                {
                    "name": "D3",
                    "midi": 50,
                    "time": 320.9034130000052,
                    "velocity": 0.2755905511811024,
                    "duration": 0.3677421500000264
                },
                {
                    "name": "D4",
                    "midi": 62,
                    "time": 320.9034130000052,
                    "velocity": 0.2755905511811024,
                    "duration": 0.3677421500000264
                },
                {
                    "name": "D3",
                    "midi": 50,
                    "time": 321.2905100000052,
                    "velocity": 0.28346456692913385,
                    "duration": 0.3677421500000264
                },
                {
                    "name": "D4",
                    "midi": 62,
                    "time": 321.2905100000052,
                    "velocity": 0.28346456692913385,
                    "duration": 0.3677421500000264
                },
                {
                    "name": "C3",
                    "midi": 48,
                    "time": 321.67760700000525,
                    "velocity": 0.28346456692913385,
                    "duration": 0.7669359312499751
                },
                {
                    "name": "G3",
                    "midi": 55,
                    "time": 321.67760700000525,
                    "velocity": 0.28346456692913385,
                    "duration": 0.7669359312499751
                },
                {
                    "name": "C4",
                    "midi": 60,
                    "time": 321.67760700000525,
                    "velocity": 0.3464566929133858,
                    "duration": 0.7669359312499751
                },
                {
                    "name": "C3",
                    "midi": 48,
                    "time": 322.4518010000052,
                    "velocity": 0.2283464566929134,
                    "duration": 0.3677421500000264
                },
                {
                    "name": "G3",
                    "midi": 55,
                    "time": 322.4518010000052,
                    "velocity": 0.2283464566929134,
                    "duration": 0.3677421500000264
                },
                {
                    "name": "C4",
                    "midi": 60,
                    "time": 322.4518010000052,
                    "velocity": 0.2755905511811024,
                    "duration": 0.3677421500000264
                },
                {
                    "name": "C3",
                    "midi": 48,
                    "time": 322.83889800000526,
                    "velocity": 0.2283464566929134,
                    "duration": 0.3677421500000264
                },
                {
                    "name": "G3",
                    "midi": 55,
                    "time": 322.83889800000526,
                    "velocity": 0.2283464566929134,
                    "duration": 0.3677421500000264
                },
                {
                    "name": "C4",
                    "midi": 60,
                    "time": 322.83889800000526,
                    "velocity": 0.2755905511811024,
                    "duration": 0.3677421500000264
                },
                {
                    "name": "C3",
                    "midi": 48,
                    "time": 323.2259950000053,
                    "velocity": 0.2204724409448819,
                    "duration": 0.3677421500000264
                },
                {
                    "name": "G3",
                    "midi": 55,
                    "time": 323.2259950000053,
                    "velocity": 0.2204724409448819,
                    "duration": 0.3677421500000264
                },
                {
                    "name": "C4",
                    "midi": 60,
                    "time": 323.2259950000053,
                    "velocity": 0.25984251968503935,
                    "duration": 0.3677421500000264
                },
                {
                    "name": "C3",
                    "midi": 48,
                    "time": 323.61309200000534,
                    "velocity": 0.2204724409448819,
                    "duration": 0.3677421500000264
                },
                {
                    "name": "G3",
                    "midi": 55,
                    "time": 323.61309200000534,
                    "velocity": 0.2204724409448819,
                    "duration": 0.3677421500000264
                },
                {
                    "name": "C4",
                    "midi": 60,
                    "time": 323.61309200000534,
                    "velocity": 0.25984251968503935,
                    "duration": 0.3677421500000264
                },
                {
                    "name": "C3",
                    "midi": 48,
                    "time": 324.0001890000054,
                    "velocity": 0.2283464566929134,
                    "duration": 0.3677421500000264
                },
                {
                    "name": "G3",
                    "midi": 55,
                    "time": 324.0001890000054,
                    "velocity": 0.2283464566929134,
                    "duration": 0.3677421500000264
                },
                {
                    "name": "C4",
                    "midi": 60,
                    "time": 324.0001890000054,
                    "velocity": 0.2755905511811024,
                    "duration": 0.3677421500000264
                },
                {
                    "name": "G2",
                    "midi": 43,
                    "time": 324.3872860000054,
                    "velocity": 0.25196850393700787,
                    "duration": 0.3750002187500172
                },
                {
                    "name": "G3",
                    "midi": 55,
                    "time": 324.3872860000054,
                    "velocity": 0.2992125984251969,
                    "duration": 0.3750002187500172
                },
                {
                    "name": "G2",
                    "midi": 43,
                    "time": 324.77438300000546,
                    "velocity": 0.2283464566929134,
                    "duration": 0.3677421500000264
                },
                {
                    "name": "E2",
                    "midi": 40,
                    "time": 324.77438300000546,
                    "velocity": 0.2283464566929134,
                    "duration": 0.3677421500000264
                },
                {
                    "name": "E3",
                    "midi": 52,
                    "time": 324.77438300000546,
                    "velocity": 0.2755905511811024,
                    "duration": 0.3677421500000264
                },
                {
                    "name": "E2",
                    "midi": 40,
                    "time": 325.1614800000055,
                    "velocity": 0.2283464566929134,
                    "duration": 0.3677421500000264
                },
                {
                    "name": "G2",
                    "midi": 43,
                    "time": 325.1614800000055,
                    "velocity": 0.2283464566929134,
                    "duration": 0.3677421500000264
                },
                {
                    "name": "E3",
                    "midi": 52,
                    "time": 325.1614800000055,
                    "velocity": 0.2755905511811024,
                    "duration": 0.3677421500000264
                },
                {
                    "name": "G2",
                    "midi": 43,
                    "time": 325.54857700000554,
                    "velocity": 0.25196850393700787,
                    "duration": 0.3677421500000264
                },
                {
                    "name": "G3",
                    "midi": 55,
                    "time": 325.54857700000554,
                    "velocity": 0.2992125984251969,
                    "duration": 0.3677421500000264
                },
                {
                    "name": "C3",
                    "midi": 48,
                    "time": 325.9356740000056,
                    "velocity": 0.28346456692913385,
                    "duration": 0.3677421500000264
                },
                {
                    "name": "G3",
                    "midi": 55,
                    "time": 325.9356740000056,
                    "velocity": 0.28346456692913385,
                    "duration": 0.3677421500000264
                },
                {
                    "name": "C4",
                    "midi": 60,
                    "time": 325.9356740000056,
                    "velocity": 0.33070866141732286,
                    "duration": 0.3677421500000264
                },
                {
                    "name": "D#3",
                    "midi": 51,
                    "time": 326.3227710000056,
                    "velocity": 0.3464566929133858,
                    "duration": 0.7661294791666933
                },
                {
                    "name": "A#3",
                    "midi": 58,
                    "time": 326.3227710000056,
                    "velocity": 0.3464566929133858,
                    "duration": 0.7661294791666933
                },
                {
                    "name": "D#4",
                    "midi": 63,
                    "time": 326.3227710000056,
                    "velocity": 0.41732283464566927,
                    "duration": 0.7661294791666933
                },
                {
                    "name": "D#3",
                    "midi": 51,
                    "time": 327.09696500000564,
                    "velocity": 0.30708661417322836,
                    "duration": 0.3677421500000264
                },
                {
                    "name": "A#3",
                    "midi": 58,
                    "time": 327.09696500000564,
                    "velocity": 0.30708661417322836,
                    "duration": 0.3677421500000264
                },
                {
                    "name": "D#4",
                    "midi": 63,
                    "time": 327.09696500000564,
                    "velocity": 0.3700787401574803,
                    "duration": 0.3677421500000264
                },
                {
                    "name": "D#3",
                    "midi": 51,
                    "time": 327.4840620000057,
                    "velocity": 0.30708661417322836,
                    "duration": 0.3677421500000264
                },
                {
                    "name": "A#3",
                    "midi": 58,
                    "time": 327.4840620000057,
                    "velocity": 0.30708661417322836,
                    "duration": 0.3677421500000264
                },
                {
                    "name": "D#4",
                    "midi": 63,
                    "time": 327.4840620000057,
                    "velocity": 0.3700787401574803,
                    "duration": 0.3677421500000264
                },
                {
                    "name": "D#3",
                    "midi": 51,
                    "time": 327.8711590000057,
                    "velocity": 0.2992125984251969,
                    "duration": 0.3677421500000264
                },
                {
                    "name": "A#3",
                    "midi": 58,
                    "time": 327.8711590000057,
                    "velocity": 0.2992125984251969,
                    "duration": 0.3677421500000264
                },
                {
                    "name": "D#4",
                    "midi": 63,
                    "time": 327.8711590000057,
                    "velocity": 0.3543307086614173,
                    "duration": 0.3677421500000264
                },
                {
                    "name": "D#3",
                    "midi": 51,
                    "time": 328.25825600000576,
                    "velocity": 0.2992125984251969,
                    "duration": 0.3677421500000264
                },
                {
                    "name": "A#3",
                    "midi": 58,
                    "time": 328.25825600000576,
                    "velocity": 0.2992125984251969,
                    "duration": 0.3677421500000264
                },
                {
                    "name": "D#4",
                    "midi": 63,
                    "time": 328.25825600000576,
                    "velocity": 0.3543307086614173,
                    "duration": 0.3677421500000264
                },
                {
                    "name": "D#3",
                    "midi": 51,
                    "time": 328.6453530000058,
                    "velocity": 0.30708661417322836,
                    "duration": 0.3677421500000264
                },
                {
                    "name": "A#3",
                    "midi": 58,
                    "time": 328.6453530000058,
                    "velocity": 0.30708661417322836,
                    "duration": 0.3677421500000264
                },
                {
                    "name": "D#4",
                    "midi": 63,
                    "time": 328.6453530000058,
                    "velocity": 0.3700787401574803,
                    "duration": 0.3677421500000264
                },
                {
                    "name": "A#2",
                    "midi": 46,
                    "time": 329.03245000000584,
                    "velocity": 0.3464566929133858,
                    "duration": 0.3750002187500172
                },
                {
                    "name": "A#3",
                    "midi": 58,
                    "time": 329.03245000000584,
                    "velocity": 0.4015748031496063,
                    "duration": 0.3750002187500172
                },
                {
                    "name": "G2",
                    "midi": 43,
                    "time": 329.4195470000059,
                    "velocity": 0.30708661417322836,
                    "duration": 0.3677421500000264
                },
                {
                    "name": "A#2",
                    "midi": 46,
                    "time": 329.4195470000059,
                    "velocity": 0.30708661417322836,
                    "duration": 0.3677421500000264
                },
                {
                    "name": "G3",
                    "midi": 55,
                    "time": 329.4195470000059,
                    "velocity": 0.3700787401574803,
                    "duration": 0.3677421500000264
                },
                {
                    "name": "G2",
                    "midi": 43,
                    "time": 329.8066440000059,
                    "velocity": 0.30708661417322836,
                    "duration": 0.3677421500000264
                },
                {
                    "name": "A#2",
                    "midi": 46,
                    "time": 329.8066440000059,
                    "velocity": 0.30708661417322836,
                    "duration": 0.3677421500000264
                },
                {
                    "name": "G3",
                    "midi": 55,
                    "time": 329.8066440000059,
                    "velocity": 0.3700787401574803,
                    "duration": 0.3677421500000264
                },
                {
                    "name": "A#2",
                    "midi": 46,
                    "time": 330.19374100000596,
                    "velocity": 0.33070866141732286,
                    "duration": 0.3677421500000264
                },
                {
                    "name": "A#3",
                    "midi": 58,
                    "time": 330.19374100000596,
                    "velocity": 0.4094488188976378,
                    "duration": 0.3677421500000264
                },
                {
                    "name": "D#3",
                    "midi": 51,
                    "time": 330.580838000006,
                    "velocity": 0.36220472440944884,
                    "duration": 0.3677421500000264
                },
                {
                    "name": "A#3",
                    "midi": 58,
                    "time": 330.580838000006,
                    "velocity": 0.36220472440944884,
                    "duration": 0.3677421500000264
                },
                {
                    "name": "D#4",
                    "midi": 63,
                    "time": 330.580838000006,
                    "velocity": 0.44881889763779526,
                    "duration": 0.3677421500000264
                },
                {
                    "name": "F#2",
                    "midi": 42,
                    "time": 330.96793500000604,
                    "velocity": 0.3937007874015748,
                    "duration": 0.7661294791666933
                },
                {
                    "name": "C#3",
                    "midi": 49,
                    "time": 330.96793500000604,
                    "velocity": 0.3937007874015748,
                    "duration": 0.7661294791666933
                },
                {
                    "name": "F#3",
                    "midi": 54,
                    "time": 330.96793500000604,
                    "velocity": 0.48031496062992124,
                    "duration": 0.7661294791666933
                },
                {
                    "name": "F#2",
                    "midi": 42,
                    "time": 331.74212900000606,
                    "velocity": 0.3543307086614173,
                    "duration": 0.3677421500000264
                },
                {
                    "name": "C#3",
                    "midi": 49,
                    "time": 331.74212900000606,
                    "velocity": 0.3543307086614173,
                    "duration": 0.3677421500000264
                },
                {
                    "name": "F#3",
                    "midi": 54,
                    "time": 331.74212900000606,
                    "velocity": 0.41732283464566927,
                    "duration": 0.3677421500000264
                },
                {
                    "name": "F#2",
                    "midi": 42,
                    "time": 332.1292260000061,
                    "velocity": 0.3543307086614173,
                    "duration": 0.3677421500000264
                },
                {
                    "name": "C#3",
                    "midi": 49,
                    "time": 332.1292260000061,
                    "velocity": 0.3543307086614173,
                    "duration": 0.3677421500000264
                },
                {
                    "name": "F#3",
                    "midi": 54,
                    "time": 332.1292260000061,
                    "velocity": 0.41732283464566927,
                    "duration": 0.3677421500000264
                },
                {
                    "name": "F#2",
                    "midi": 42,
                    "time": 332.51632300000614,
                    "velocity": 0.33858267716535434,
                    "duration": 0.3677421500000264
                },
                {
                    "name": "C#3",
                    "midi": 49,
                    "time": 332.51632300000614,
                    "velocity": 0.33858267716535434,
                    "duration": 0.3677421500000264
                },
                {
                    "name": "F#3",
                    "midi": 54,
                    "time": 332.51632300000614,
                    "velocity": 0.4015748031496063,
                    "duration": 0.3677421500000264
                },
                {
                    "name": "F#2",
                    "midi": 42,
                    "time": 332.9034200000062,
                    "velocity": 0.33858267716535434,
                    "duration": 0.3677421500000264
                },
                {
                    "name": "C#3",
                    "midi": 49,
                    "time": 332.9034200000062,
                    "velocity": 0.33858267716535434,
                    "duration": 0.3677421500000264
                },
                {
                    "name": "F#3",
                    "midi": 54,
                    "time": 332.9034200000062,
                    "velocity": 0.4015748031496063,
                    "duration": 0.3677421500000264
                },
                {
                    "name": "F#2",
                    "midi": 42,
                    "time": 333.2905170000062,
                    "velocity": 0.3543307086614173,
                    "duration": 0.3677421500000264
                },
                {
                    "name": "C#3",
                    "midi": 49,
                    "time": 333.2905170000062,
                    "velocity": 0.3543307086614173,
                    "duration": 0.3677421500000264
                },
                {
                    "name": "F#3",
                    "midi": 54,
                    "time": 333.2905170000062,
                    "velocity": 0.41732283464566927,
                    "duration": 0.3677421500000264
                },
                {
                    "name": "C#2",
                    "midi": 37,
                    "time": 333.67761400000626,
                    "velocity": 0.3543307086614173,
                    "duration": 0.3750002187500172
                },
                {
                    "name": "C#3",
                    "midi": 49,
                    "time": 333.67761400000626,
                    "velocity": 0.41732283464566927,
                    "duration": 0.3750002187500172
                },
                {
                    "name": "A#1",
                    "midi": 34,
                    "time": 334.0647110000063,
                    "velocity": 0.3543307086614173,
                    "duration": 0.3677421500000264
                },
                {
                    "name": "A#2",
                    "midi": 46,
                    "time": 334.0647110000063,
                    "velocity": 0.41732283464566927,
                    "duration": 0.3677421500000264
                },
                {
                    "name": "F#2",
                    "midi": 42,
                    "time": 334.45180800000634,
                    "velocity": 0.3543307086614173,
                    "duration": 0.3677421500000264
                },
                {
                    "name": "F#3",
                    "midi": 54,
                    "time": 334.45180800000634,
                    "velocity": 0.41732283464566927,
                    "duration": 0.3677421500000264
                },
                {
                    "name": "F#3",
                    "midi": 54,
                    "time": 334.8389050000064,
                    "velocity": 0.3937007874015748,
                    "duration": 0.38709700000003977
                },
                {
                    "name": "G#2",
                    "midi": 44,
                    "time": 334.8389050000064,
                    "velocity": 0.3937007874015748,
                    "duration": 0.3677421500000264
                },
                {
                    "name": "G#3",
                    "midi": 56,
                    "time": 334.8389050000064,
                    "velocity": 0.49606299212598426,
                    "duration": 0.3677421500000264
                },
                {
                    "name": "A#2",
                    "midi": 46,
                    "time": 335.2260020000064,
                    "velocity": 0.44881889763779526,
                    "duration": 0.3677421500000264
                },
                {
                    "name": "F#3",
                    "midi": 54,
                    "time": 335.2260020000064,
                    "velocity": 0.44881889763779526,
                    "duration": 0.3677421500000264
                },
                {
                    "name": "A#3",
                    "midi": 58,
                    "time": 335.2260020000064,
                    "velocity": 0.5590551181102362,
                    "duration": 0.3677421500000264
                },
                {
                    "name": "B2",
                    "midi": 47,
                    "time": 335.61309900000646,
                    "velocity": 0.5118110236220472,
                    "duration": 0.7661294791666933
                },
                {
                    "name": "F#3",
                    "midi": 54,
                    "time": 335.61309900000646,
                    "velocity": 0.5118110236220472,
                    "duration": 0.7661294791666933
                },
                {
                    "name": "B3",
                    "midi": 59,
                    "time": 335.61309900000646,
                    "velocity": 0.6299212598425197,
                    "duration": 0.7661294791666933
                },
                {
                    "name": "B2",
                    "midi": 47,
                    "time": 336.3872930000065,
                    "velocity": 0.4566929133858268,
                    "duration": 0.3677421500000264
                },
                {
                    "name": "F#3",
                    "midi": 54,
                    "time": 336.3872930000065,
                    "velocity": 0.4566929133858268,
                    "duration": 0.3677421500000264
                },
                {
                    "name": "B3",
                    "midi": 59,
                    "time": 336.3872930000065,
                    "velocity": 0.5433070866141733,
                    "duration": 0.3677421500000264
                },
                {
                    "name": "B2",
                    "midi": 47,
                    "time": 336.7743900000065,
                    "velocity": 0.4566929133858268,
                    "duration": 0.3677421500000264
                },
                {
                    "name": "F#3",
                    "midi": 54,
                    "time": 336.7743900000065,
                    "velocity": 0.4566929133858268,
                    "duration": 0.3677421500000264
                },
                {
                    "name": "B3",
                    "midi": 59,
                    "time": 336.7743900000065,
                    "velocity": 0.5433070866141733,
                    "duration": 0.3677421500000264
                },
                {
                    "name": "B2",
                    "midi": 47,
                    "time": 337.16148700000656,
                    "velocity": 0.4409448818897638,
                    "duration": 0.3677421500000264
                },
                {
                    "name": "F#3",
                    "midi": 54,
                    "time": 337.16148700000656,
                    "velocity": 0.4409448818897638,
                    "duration": 0.3677421500000264
                },
                {
                    "name": "B3",
                    "midi": 59,
                    "time": 337.16148700000656,
                    "velocity": 0.5196850393700787,
                    "duration": 0.3677421500000264
                },
                {
                    "name": "B2",
                    "midi": 47,
                    "time": 337.5485840000066,
                    "velocity": 0.4409448818897638,
                    "duration": 0.3677421500000264
                },
                {
                    "name": "F#3",
                    "midi": 54,
                    "time": 337.5485840000066,
                    "velocity": 0.4409448818897638,
                    "duration": 0.3677421500000264
                },
                {
                    "name": "B3",
                    "midi": 59,
                    "time": 337.5485840000066,
                    "velocity": 0.5196850393700787,
                    "duration": 0.3677421500000264
                },
                {
                    "name": "G1",
                    "midi": 31,
                    "time": 337.93568100000664,
                    "velocity": 0.5118110236220472,
                    "duration": 0.7661294791666933
                },
                {
                    "name": "G2",
                    "midi": 43,
                    "time": 337.93568100000664,
                    "velocity": 0.6299212598425197,
                    "duration": 0.7661294791666933
                },
                {
                    "name": "G1",
                    "midi": 31,
                    "time": 338.70987500000666,
                    "velocity": 0.4566929133858268,
                    "duration": 0.3677421500000264
                },
                {
                    "name": "G2",
                    "midi": 43,
                    "time": 338.70987500000666,
                    "velocity": 0.5433070866141733,
                    "duration": 0.3677421500000264
                },
                {
                    "name": "B1",
                    "midi": 35,
                    "time": 339.0969720000067,
                    "velocity": 0.4566929133858268,
                    "duration": 0.3677421500000264
                },
                {
                    "name": "B2",
                    "midi": 47,
                    "time": 339.0969720000067,
                    "velocity": 0.5433070866141733,
                    "duration": 0.3677421500000264
                },
                {
                    "name": "D2",
                    "midi": 38,
                    "time": 339.48406900000674,
                    "velocity": 0.4094488188976378,
                    "duration": 0.3677421500000264
                },
                {
                    "name": "D3",
                    "midi": 50,
                    "time": 339.48406900000674,
                    "velocity": 0.4881889763779528,
                    "duration": 0.3677421500000264
                },
                {
                    "name": "G2",
                    "midi": 43,
                    "time": 339.8711660000068,
                    "velocity": 0.3779527559055118,
                    "duration": 0.3677421500000264
                },
                {
                    "name": "G3",
                    "midi": 55,
                    "time": 339.8711660000068,
                    "velocity": 0.44881889763779526,
                    "duration": 0.3677421500000264
                },
                {
                    "name": "C2",
                    "midi": 36,
                    "time": 340.2582630000068,
                    "velocity": 0.36220472440944884,
                    "duration": 0.7508068895833162
                },
                {
                    "name": "C3",
                    "midi": 48,
                    "time": 340.2582630000068,
                    "velocity": 0.4330708661417323,
                    "duration": 0.7508068895833162
                },
                {
                    "name": "C2",
                    "midi": 36,
                    "time": 341.0324570000068,
                    "velocity": 0.2125984251968504,
                    "duration": 0.3677421500000264
                },
                {
                    "name": "C3",
                    "midi": 48,
                    "time": 341.0324570000068,
                    "velocity": 0.25196850393700787,
                    "duration": 0.3677421500000264
                },
                {
                    "name": "C2",
                    "midi": 36,
                    "time": 341.4195540000068,
                    "velocity": 0.18110236220472442,
                    "duration": 0.3677421500000264
                },
                {
                    "name": "C3",
                    "midi": 48,
                    "time": 341.4195540000068,
                    "velocity": 0.25984251968503935,
                    "duration": 0.3677421500000264
                },
                {
                    "name": "C2",
                    "midi": 36,
                    "time": 341.80665100000687,
                    "velocity": 0.18110236220472442,
                    "duration": 0.3677421500000264
                },
                {
                    "name": "C3",
                    "midi": 48,
                    "time": 341.80665100000687,
                    "velocity": 0.2204724409448819,
                    "duration": 0.3677421500000264
                },
                {
                    "name": "C2",
                    "midi": 36,
                    "time": 342.1937480000069,
                    "velocity": 0.18110236220472442,
                    "duration": 0.3677421500000264
                },
                {
                    "name": "C3",
                    "midi": 48,
                    "time": 342.1937480000069,
                    "velocity": 0.2204724409448819,
                    "duration": 0.3677421500000264
                },
                {
                    "name": "C2",
                    "midi": 36,
                    "time": 342.58084500000695,
                    "velocity": 0.23622047244094488,
                    "duration": 0.7508068895833162
                },
                {
                    "name": "C3",
                    "midi": 48,
                    "time": 342.58084500000695,
                    "velocity": 0.28346456692913385,
                    "duration": 0.7508068895833162
                },
                {
                    "name": "C2",
                    "midi": 36,
                    "time": 343.3550390000069,
                    "velocity": 0.18110236220472442,
                    "duration": 0.3677421500000264
                },
                {
                    "name": "C3",
                    "midi": 48,
                    "time": 343.3550390000069,
                    "velocity": 0.2204724409448819,
                    "duration": 0.3677421500000264
                },
                {
                    "name": "C2",
                    "midi": 36,
                    "time": 343.74213600000695,
                    "velocity": 0.2283464566929134,
                    "duration": 0.7508068895833162
                },
                {
                    "name": "C3",
                    "midi": 48,
                    "time": 343.74213600000695,
                    "velocity": 0.2755905511811024,
                    "duration": 0.7508068895833162
                },
                {
                    "name": "C2",
                    "midi": 36,
                    "time": 344.5163300000069,
                    "velocity": 0.16535433070866143,
                    "duration": 0.3677421500000264
                },
                {
                    "name": "C3",
                    "midi": 48,
                    "time": 344.5163300000069,
                    "velocity": 0.2047244094488189,
                    "duration": 0.3677421500000264
                },
                {
                    "name": "C2",
                    "midi": 36,
                    "time": 344.90342700000696,
                    "velocity": 0.2204724409448819,
                    "duration": 0.7508068895833162
                },
                {
                    "name": "C3",
                    "midi": 48,
                    "time": 344.90342700000696,
                    "velocity": 0.2677165354330709,
                    "duration": 0.7508068895833162
                },
                {
                    "name": "C2",
                    "midi": 36,
                    "time": 345.6776210000069,
                    "velocity": 0.16535433070866143,
                    "duration": 0.3677421500000264
                },
                {
                    "name": "C3",
                    "midi": 48,
                    "time": 345.6776210000069,
                    "velocity": 0.2047244094488189,
                    "duration": 0.3677421500000264
                },
                {
                    "name": "C2",
                    "midi": 36,
                    "time": 346.06471800000696,
                    "velocity": 0.1968503937007874,
                    "duration": 0.7508068895833162
                },
                {
                    "name": "C3",
                    "midi": 48,
                    "time": 346.06471800000696,
                    "velocity": 0.23622047244094488,
                    "duration": 0.7508068895833162
                },
                {
                    "name": "C2",
                    "midi": 36,
                    "time": 346.8389120000069,
                    "velocity": 0.1732283464566929,
                    "duration": 0.3677421500000264
                },
                {
                    "name": "C3",
                    "midi": 48,
                    "time": 346.8389120000069,
                    "velocity": 0.2047244094488189,
                    "duration": 0.3677421500000264
                },
                {
                    "name": "C2",
                    "midi": 36,
                    "time": 347.22600900000697,
                    "velocity": 0.18110236220472442,
                    "duration": 0.7508068895833162
                },
                {
                    "name": "C3",
                    "midi": 48,
                    "time": 347.22600900000697,
                    "velocity": 0.2204724409448819,
                    "duration": 0.7508068895833162
                },
                {
                    "name": "C2",
                    "midi": 36,
                    "time": 348.00020300000693,
                    "velocity": 0.16535433070866143,
                    "duration": 0.3677421500000264
                },
                {
                    "name": "C3",
                    "midi": 48,
                    "time": 348.00020300000693,
                    "velocity": 0.1968503937007874,
                    "duration": 0.3677421500000264
                },
                {
                    "name": "C2",
                    "midi": 36,
                    "time": 348.387300000007,
                    "velocity": 0.18110236220472442,
                    "duration": 0.3677421500000264
                },
                {
                    "name": "C3",
                    "midi": 48,
                    "time": 348.387300000007,
                    "velocity": 0.2125984251968504,
                    "duration": 0.3677421500000264
                },
                {
                    "name": "C2",
                    "midi": 36,
                    "time": 348.774397000007,
                    "velocity": 0.16535433070866143,
                    "duration": 0.3677421500000264
                },
                {
                    "name": "C3",
                    "midi": 48,
                    "time": 348.774397000007,
                    "velocity": 0.1968503937007874,
                    "duration": 0.3677421500000264
                },
                {
                    "name": "C2",
                    "midi": 36,
                    "time": 349.16149400000705,
                    "velocity": 0.16535433070866143,
                    "duration": 0.3677421500000264
                },
                {
                    "name": "C3",
                    "midi": 48,
                    "time": 349.16149400000705,
                    "velocity": 0.1968503937007874,
                    "duration": 0.3677421500000264
                },
                {
                    "name": "C2",
                    "midi": 36,
                    "time": 349.5485910000071,
                    "velocity": 0.18110236220472442,
                    "duration": 0.7508068895833162
                },
                {
                    "name": "C3",
                    "midi": 48,
                    "time": 349.5485910000071,
                    "velocity": 0.2204724409448819,
                    "duration": 0.7508068895833162
                },
                {
                    "name": "C2",
                    "midi": 36,
                    "time": 350.32278500000706,
                    "velocity": 0.16535433070866143,
                    "duration": 0.3677421500000264
                },
                {
                    "name": "C3",
                    "midi": 48,
                    "time": 350.32278500000706,
                    "velocity": 0.1968503937007874,
                    "duration": 0.3677421500000264
                },
                {
                    "name": "C2",
                    "midi": 36,
                    "time": 350.7098820000071,
                    "velocity": 0.18110236220472442,
                    "duration": 0.3677421500000264
                },
                {
                    "name": "C3",
                    "midi": 48,
                    "time": 350.7098820000071,
                    "velocity": 0.2125984251968504,
                    "duration": 0.3677421500000264
                },
                {
                    "name": "C2",
                    "midi": 36,
                    "time": 351.09697900000714,
                    "velocity": 0.16535433070866143,
                    "duration": 0.3677421500000264
                },
                {
                    "name": "C3",
                    "midi": 48,
                    "time": 351.09697900000714,
                    "velocity": 0.1968503937007874,
                    "duration": 0.3677421500000264
                },
                {
                    "name": "C2",
                    "midi": 36,
                    "time": 351.4840760000072,
                    "velocity": 0.16535433070866143,
                    "duration": 0.3677421500000264
                },
                {
                    "name": "C3",
                    "midi": 48,
                    "time": 351.4840760000072,
                    "velocity": 0.1968503937007874,
                    "duration": 0.3677421500000264
                },
                {
                    "name": "B1",
                    "midi": 35,
                    "time": 351.8711730000072,
                    "velocity": 0.18110236220472442,
                    "duration": 0.7669359312499751
                },
                {
                    "name": "B2",
                    "midi": 47,
                    "time": 351.8711730000072,
                    "velocity": 0.2204724409448819,
                    "duration": 0.7669359312499751
                },
                {
                    "name": "B2",
                    "midi": 47,
                    "time": 352.6453670000072,
                    "velocity": 0.2204724409448819,
                    "duration": 0.3677421500000264
                },
                {
                    "name": "B2",
                    "midi": 47,
                    "time": 353.0324640000072,
                    "velocity": 0.2204724409448819,
                    "duration": 0.3677421500000264
                },
                {
                    "name": "B2",
                    "midi": 47,
                    "time": 353.41956100000726,
                    "velocity": 0.2047244094488189,
                    "duration": 0.3677421500000264
                },
                {
                    "name": "A2",
                    "midi": 45,
                    "time": 353.8066580000073,
                    "velocity": 0.1732283464566929,
                    "duration": 0.3677421500000264
                },
                {
                    "name": "B2",
                    "midi": 47,
                    "time": 353.8066580000073,
                    "velocity": 0.2047244094488189,
                    "duration": 0.3677421500000264
                },
                {
                    "name": "G2",
                    "midi": 43,
                    "time": 354.19375500000734,
                    "velocity": 0.2047244094488189,
                    "duration": 0.3677421500000264
                },
                {
                    "name": "B2",
                    "midi": 47,
                    "time": 354.19375500000734,
                    "velocity": 0.2047244094488189,
                    "duration": 0.3677421500000264
                },
                {
                    "name": "G3",
                    "midi": 55,
                    "time": 354.19375500000734,
                    "velocity": 0.2440944881889764,
                    "duration": 0.3677421500000264
                },
                {
                    "name": "C3",
                    "midi": 48,
                    "time": 354.5808520000074,
                    "velocity": 0.2204724409448819,
                    "duration": 0.3750002187500172
                },
                {
                    "name": "D3",
                    "midi": 50,
                    "time": 354.5808520000074,
                    "velocity": 0.2204724409448819,
                    "duration": 0.37580667083335584
                },
                {
                    "name": "C4",
                    "midi": 60,
                    "time": 354.5808520000074,
                    "velocity": 0.2677165354330709,
                    "duration": 0.3750002187500172
                },
                {
                    "name": "D3",
                    "midi": 50,
                    "time": 354.9679490000074,
                    "velocity": 0.2047244094488189,
                    "duration": 0.3677421500000264
                },
                {
                    "name": "B2",
                    "midi": 47,
                    "time": 354.9679490000074,
                    "velocity": 0.2047244094488189,
                    "duration": 0.3677421500000264
                },
                {
                    "name": "B3",
                    "midi": 59,
                    "time": 354.9679490000074,
                    "velocity": 0.2440944881889764,
                    "duration": 0.3677421500000264
                },
                {
                    "name": "B2",
                    "midi": 47,
                    "time": 355.35504600000746,
                    "velocity": 0.2047244094488189,
                    "duration": 0.3677421500000264
                },
                {
                    "name": "D3",
                    "midi": 50,
                    "time": 355.35504600000746,
                    "velocity": 0.2047244094488189,
                    "duration": 0.3677421500000264
                },
                {
                    "name": "B3",
                    "midi": 59,
                    "time": 355.35504600000746,
                    "velocity": 0.2440944881889764,
                    "duration": 0.3677421500000264
                },
                {
                    "name": "B2",
                    "midi": 47,
                    "time": 355.7421430000075,
                    "velocity": 0.1889763779527559,
                    "duration": 0.3677421500000264
                },
                {
                    "name": "D3",
                    "midi": 50,
                    "time": 355.7421430000075,
                    "velocity": 0.1889763779527559,
                    "duration": 0.3677421500000264
                },
                {
                    "name": "B3",
                    "midi": 59,
                    "time": 355.7421430000075,
                    "velocity": 0.2204724409448819,
                    "duration": 0.3677421500000264
                },
                {
                    "name": "B2",
                    "midi": 47,
                    "time": 356.12924000000754,
                    "velocity": 0.1889763779527559,
                    "duration": 0.3677421500000264
                },
                {
                    "name": "D3",
                    "midi": 50,
                    "time": 356.12924000000754,
                    "velocity": 0.1889763779527559,
                    "duration": 0.3677421500000264
                },
                {
                    "name": "B3",
                    "midi": 59,
                    "time": 356.12924000000754,
                    "velocity": 0.2204724409448819,
                    "duration": 0.3677421500000264
                },
                {
                    "name": "B2",
                    "midi": 47,
                    "time": 356.5163370000076,
                    "velocity": 0.2047244094488189,
                    "duration": 0.3870969999999829
                },
                {
                    "name": "D3",
                    "midi": 50,
                    "time": 356.5163370000076,
                    "velocity": 0.2047244094488189,
                    "duration": 0.3870969999999829
                },
                {
                    "name": "B3",
                    "midi": 59,
                    "time": 356.5163370000076,
                    "velocity": 0.2440944881889764,
                    "duration": 0.3870969999999829
                },
                {
                    "name": "F#2",
                    "midi": 42,
                    "time": 356.90343400000756,
                    "velocity": 0.18110236220472442,
                    "duration": 0.37580667083335584
                },
                {
                    "name": "D3",
                    "midi": 50,
                    "time": 356.90343400000756,
                    "velocity": 0.18110236220472442,
                    "duration": 0.37580667083335584
                },
                {
                    "name": "F#3",
                    "midi": 54,
                    "time": 356.90343400000756,
                    "velocity": 0.2125984251968504,
                    "duration": 0.37580667083335584
                },
                {
                    "name": "A2",
                    "midi": 45,
                    "time": 357.2905310000076,
                    "velocity": 0.18110236220472442,
                    "duration": 0.37580667083335584
                },
                {
                    "name": "D3",
                    "midi": 50,
                    "time": 357.2905310000076,
                    "velocity": 0.18110236220472442,
                    "duration": 0.37580667083335584
                },
                {
                    "name": "A3",
                    "midi": 57,
                    "time": 357.2905310000076,
                    "velocity": 0.2125984251968504,
                    "duration": 0.37580667083335584
                },
                {
                    "name": "A2",
                    "midi": 45,
                    "time": 357.67762800000764,
                    "velocity": 0.2047244094488189,
                    "duration": 0.37580667083335584
                },
                {
                    "name": "D3",
                    "midi": 50,
                    "time": 357.67762800000764,
                    "velocity": 0.2047244094488189,
                    "duration": 0.37580667083335584
                },
                {
                    "name": "A3",
                    "midi": 57,
                    "time": 357.67762800000764,
                    "velocity": 0.2440944881889764,
                    "duration": 0.37580667083335584
                },
                {
                    "name": "G2",
                    "midi": 43,
                    "time": 358.0647250000077,
                    "velocity": 0.1968503937007874,
                    "duration": 0.37580667083335584
                },
                {
                    "name": "D3",
                    "midi": 50,
                    "time": 358.0647250000077,
                    "velocity": 0.1968503937007874,
                    "duration": 0.37580667083335584
                },
                {
                    "name": "G3",
                    "midi": 55,
                    "time": 358.0647250000077,
                    "velocity": 0.2283464566929134,
                    "duration": 0.37580667083335584
                },
                {
                    "name": "F#2",
                    "midi": 42,
                    "time": 358.4518220000077,
                    "velocity": 0.1968503937007874,
                    "duration": 0.37580667083335584
                },
                {
                    "name": "D3",
                    "midi": 50,
                    "time": 358.4518220000077,
                    "velocity": 0.1968503937007874,
                    "duration": 0.37580667083335584
                },
                {
                    "name": "F#3",
                    "midi": 54,
                    "time": 358.4518220000077,
                    "velocity": 0.2283464566929134,
                    "duration": 0.37580667083335584
                },
                {
                    "name": "F#2",
                    "midi": 42,
                    "time": 358.83891900000776,
                    "velocity": 0.2047244094488189,
                    "duration": 0.37580667083335584
                },
                {
                    "name": "D3",
                    "midi": 50,
                    "time": 358.83891900000776,
                    "velocity": 0.2047244094488189,
                    "duration": 0.37580667083335584
                },
                {
                    "name": "F#3",
                    "midi": 54,
                    "time": 358.83891900000776,
                    "velocity": 0.2440944881889764,
                    "duration": 0.37580667083335584
                },
                {
                    "name": "G2",
                    "midi": 43,
                    "time": 359.2260160000078,
                    "velocity": 0.2047244094488189,
                    "duration": 0.37580667083335584
                },
                {
                    "name": "D3",
                    "midi": 50,
                    "time": 359.2260160000078,
                    "velocity": 0.2047244094488189,
                    "duration": 0.37580667083335584
                },
                {
                    "name": "G3",
                    "midi": 55,
                    "time": 359.2260160000078,
                    "velocity": 0.2440944881889764,
                    "duration": 0.37580667083335584
                },
                {
                    "name": "G2",
                    "midi": 43,
                    "time": 359.61311300000784,
                    "velocity": 0.2047244094488189,
                    "duration": 0.37580667083335584
                },
                {
                    "name": "D3",
                    "midi": 50,
                    "time": 359.61311300000784,
                    "velocity": 0.2047244094488189,
                    "duration": 0.37580667083335584
                },
                {
                    "name": "G3",
                    "midi": 55,
                    "time": 359.61311300000784,
                    "velocity": 0.2440944881889764,
                    "duration": 0.37580667083335584
                },
                {
                    "name": "G2",
                    "midi": 43,
                    "time": 360.0002100000079,
                    "velocity": 0.2283464566929134,
                    "duration": 0.37580667083335584
                },
                {
                    "name": "D3",
                    "midi": 50,
                    "time": 360.0002100000079,
                    "velocity": 0.2283464566929134,
                    "duration": 0.37580667083335584
                },
                {
                    "name": "G3",
                    "midi": 55,
                    "time": 360.0002100000079,
                    "velocity": 0.2755905511811024,
                    "duration": 0.37580667083335584
                },
                {
                    "name": "G2",
                    "midi": 43,
                    "time": 360.3873070000079,
                    "velocity": 0.25984251968503935,
                    "duration": 0.37580667083335584
                },
                {
                    "name": "D3",
                    "midi": 50,
                    "time": 360.3873070000079,
                    "velocity": 0.25984251968503935,
                    "duration": 0.37580667083335584
                },
                {
                    "name": "G3",
                    "midi": 55,
                    "time": 360.3873070000079,
                    "velocity": 0.31496062992125984,
                    "duration": 0.37580667083335584
                },
                {
                    "name": "A2",
                    "midi": 45,
                    "time": 360.77440400000796,
                    "velocity": 0.30708661417322836,
                    "duration": 0.37580667083335584
                },
                {
                    "name": "D3",
                    "midi": 50,
                    "time": 360.77440400000796,
                    "velocity": 0.30708661417322836,
                    "duration": 0.37580667083335584
                },
                {
                    "name": "A3",
                    "midi": 57,
                    "time": 360.77440400000796,
                    "velocity": 0.3700787401574803,
                    "duration": 0.37580667083335584
                },
                {
                    "name": "D3",
                    "midi": 50,
                    "time": 361.161501000008,
                    "velocity": 0.33858267716535434,
                    "duration": 0.7661294791666933
                },
                {
                    "name": "B2",
                    "midi": 47,
                    "time": 361.161501000008,
                    "velocity": 0.33858267716535434,
                    "duration": 0.7661294791666933
                },
                {
                    "name": "B3",
                    "midi": 59,
                    "time": 361.161501000008,
                    "velocity": 0.4094488188976378,
                    "duration": 0.7669359312500319
                },
                {
                    "name": "D3",
                    "midi": 50,
                    "time": 361.935695000008,
                    "velocity": 0.2677165354330709,
                    "duration": 0.3677421500000264
                },
                {
                    "name": "B2",
                    "midi": 47,
                    "time": 361.935695000008,
                    "velocity": 0.2677165354330709,
                    "duration": 0.3677421500000264
                },
                {
                    "name": "B3",
                    "midi": 59,
                    "time": 361.935695000008,
                    "velocity": 0.33070866141732286,
                    "duration": 0.3677421500000264
                },
                {
                    "name": "D3",
                    "midi": 50,
                    "time": 362.32279200000806,
                    "velocity": 0.2677165354330709,
                    "duration": 0.3677421500000264
                },
                {
                    "name": "B2",
                    "midi": 47,
                    "time": 362.32279200000806,
                    "velocity": 0.2677165354330709,
                    "duration": 0.3677421500000264
                },
                {
                    "name": "B3",
                    "midi": 59,
                    "time": 362.32279200000806,
                    "velocity": 0.33070866141732286,
                    "duration": 0.3677421500000264
                },
                {
                    "name": "D3",
                    "midi": 50,
                    "time": 362.7098890000081,
                    "velocity": 0.25984251968503935,
                    "duration": 0.3677421500000264
                },
                {
                    "name": "A2",
                    "midi": 45,
                    "time": 362.7098890000081,
                    "velocity": 0.25984251968503935,
                    "duration": 0.3677421500000264
                },
                {
                    "name": "A3",
                    "midi": 57,
                    "time": 362.7098890000081,
                    "velocity": 0.30708661417322836,
                    "duration": 0.3677421500000264
                },
                {
                    "name": "G2",
                    "midi": 43,
                    "time": 363.09698600000814,
                    "velocity": 0.25984251968503935,
                    "duration": 0.3677421500000264
                },
                {
                    "name": "D3",
                    "midi": 50,
                    "time": 363.09698600000814,
                    "velocity": 0.25984251968503935,
                    "duration": 0.3677421500000264
                },
                {
                    "name": "G3",
                    "midi": 55,
                    "time": 363.09698600000814,
                    "velocity": 0.30708661417322836,
                    "duration": 0.3677421500000264
                },
                {
                    "name": "B2",
                    "midi": 47,
                    "time": 363.4840830000082,
                    "velocity": 0.2204724409448819,
                    "duration": 0.3677421500000264
                },
                {
                    "name": "G3",
                    "midi": 55,
                    "time": 363.4840830000082,
                    "velocity": 0.2204724409448819,
                    "duration": 0.3677421500000264
                },
                {
                    "name": "B3",
                    "midi": 59,
                    "time": 363.4840830000082,
                    "velocity": 0.33070866141732286,
                    "duration": 0.3677421500000264
                },
                {
                    "name": "D3",
                    "midi": 50,
                    "time": 363.8711800000082,
                    "velocity": 0.28346456692913385,
                    "duration": 0.37580667083335584
                },
                {
                    "name": "B3",
                    "midi": 59,
                    "time": 363.8711800000082,
                    "velocity": 0.28346456692913385,
                    "duration": 0.37580667083335584
                },
                {
                    "name": "D4",
                    "midi": 62,
                    "time": 363.8711800000082,
                    "velocity": 0.3937007874015748,
                    "duration": 0.37580667083335584
                },
                {
                    "name": "D4",
                    "midi": 62,
                    "time": 364.25827700000826,
                    "velocity": 0.28346456692913385,
                    "duration": 0.3677421500000264
                },
                {
                    "name": "G3",
                    "midi": 55,
                    "time": 364.25827700000826,
                    "velocity": 0.28346456692913385,
                    "duration": 0.3677421500000264
                },
                {
                    "name": "G4",
                    "midi": 67,
                    "time": 364.25827700000826,
                    "velocity": 0.4094488188976378,
                    "duration": 0.3677421500000264
                },
                {
                    "name": "G3",
                    "midi": 55,
                    "time": 364.6453740000083,
                    "velocity": 0.4015748031496063,
                    "duration": 0.3677421500000264
                },
                {
                    "name": "D4",
                    "midi": 62,
                    "time": 364.6453740000083,
                    "velocity": 0.4015748031496063,
                    "duration": 0.3677421500000264
                },
                {
                    "name": "G4",
                    "midi": 67,
                    "time": 364.6453740000083,
                    "velocity": 0.47244094488188976,
                    "duration": 0.3677421500000264
                },
                {
                    "name": "G3",
                    "midi": 55,
                    "time": 365.03247100000834,
                    "velocity": 0.4094488188976378,
                    "duration": 0.3677421500000264
                },
                {
                    "name": "D4",
                    "midi": 62,
                    "time": 365.03247100000834,
                    "velocity": 0.4094488188976378,
                    "duration": 0.3677421500000264
                },
                {
                    "name": "G4",
                    "midi": 67,
                    "time": 365.03247100000834,
                    "velocity": 0.4881889763779528,
                    "duration": 0.3677421500000264
                },
                {
                    "name": "G3",
                    "midi": 55,
                    "time": 365.4195680000084,
                    "velocity": 0.4251968503937008,
                    "duration": 0.3677421500000264
                },
                {
                    "name": "D4",
                    "midi": 62,
                    "time": 365.4195680000084,
                    "velocity": 0.4251968503937008,
                    "duration": 0.3677421500000264
                },
                {
                    "name": "G4",
                    "midi": 67,
                    "time": 365.4195680000084,
                    "velocity": 0.5039370078740157,
                    "duration": 0.3677421500000264
                },
                {
                    "name": "F#3",
                    "midi": 54,
                    "time": 365.8066650000084,
                    "velocity": 0.4409448818897638,
                    "duration": 0.3677421500000264
                },
                {
                    "name": "D#4",
                    "midi": 63,
                    "time": 365.8066650000084,
                    "velocity": 0.4409448818897638,
                    "duration": 0.3677421500000264
                },
                {
                    "name": "F#4",
                    "midi": 66,
                    "time": 365.8066650000084,
                    "velocity": 0.5196850393700787,
                    "duration": 0.3677421500000264
                },
                {
                    "name": "F#3",
                    "midi": 54,
                    "time": 366.19376200000846,
                    "velocity": 0.3700787401574803,
                    "duration": 0.3677421500000264
                },
                {
                    "name": "D#4",
                    "midi": 63,
                    "time": 366.19376200000846,
                    "velocity": 0.3700787401574803,
                    "duration": 0.3677421500000264
                },
                {
                    "name": "F#4",
                    "midi": 66,
                    "time": 366.19376200000846,
                    "velocity": 0.4409448818897638,
                    "duration": 0.3677421500000264
                },
                {
                    "name": "F#3",
                    "midi": 54,
                    "time": 366.5808590000085,
                    "velocity": 0.3464566929133858,
                    "duration": 0.3677421500000264
                },
                {
                    "name": "D#4",
                    "midi": 63,
                    "time": 366.5808590000085,
                    "velocity": 0.3464566929133858,
                    "duration": 0.3677421500000264
                },
                {
                    "name": "F#4",
                    "midi": 66,
                    "time": 366.5808590000085,
                    "velocity": 0.4094488188976378,
                    "duration": 0.3677421500000264
                },
                {
                    "name": "F#3",
                    "midi": 54,
                    "time": 366.96795600000854,
                    "velocity": 0.29133858267716534,
                    "duration": 0.3677421500000264
                },
                {
                    "name": "D#4",
                    "midi": 63,
                    "time": 366.96795600000854,
                    "velocity": 0.29133858267716534,
                    "duration": 0.3677421500000264
                },
                {
                    "name": "F#4",
                    "midi": 66,
                    "time": 366.96795600000854,
                    "velocity": 0.3464566929133858,
                    "duration": 0.3677421500000264
                },
                {
                    "name": "F#3",
                    "midi": 54,
                    "time": 367.3550530000086,
                    "velocity": 0.25984251968503935,
                    "duration": 0.3677421500000264
                },
                {
                    "name": "D#4",
                    "midi": 63,
                    "time": 367.3550530000086,
                    "velocity": 0.25984251968503935,
                    "duration": 0.3677421500000264
                },
                {
                    "name": "F#4",
                    "midi": 66,
                    "time": 367.3550530000086,
                    "velocity": 0.31496062992125984,
                    "duration": 0.3677421500000264
                },
                {
                    "name": "F#3",
                    "midi": 54,
                    "time": 367.7421500000086,
                    "velocity": 0.2283464566929134,
                    "duration": 0.3677421500000264
                },
                {
                    "name": "D#4",
                    "midi": 63,
                    "time": 367.7421500000086,
                    "velocity": 0.2283464566929134,
                    "duration": 0.3677421500000264
                },
                {
                    "name": "F#4",
                    "midi": 66,
                    "time": 367.7421500000086,
                    "velocity": 0.28346456692913385,
                    "duration": 0.3677421500000264
                },
                {
                    "name": "G3",
                    "midi": 55,
                    "time": 368.12924700000866,
                    "velocity": 0.2204724409448819,
                    "duration": 0.37580667083335584
                },
                {
                    "name": "D4",
                    "midi": 62,
                    "time": 368.12924700000866,
                    "velocity": 0.2204724409448819,
                    "duration": 0.37580667083335584
                },
                {
                    "name": "G4",
                    "midi": 67,
                    "time": 368.12924700000866,
                    "velocity": 0.25984251968503935,
                    "duration": 0.37580667083335584
                },
                {
                    "name": "A3",
                    "midi": 57,
                    "time": 368.5163440000087,
                    "velocity": 0.1968503937007874,
                    "duration": 0.37580667083335584
                },
                {
                    "name": "D4",
                    "midi": 62,
                    "time": 368.5163440000087,
                    "velocity": 0.1968503937007874,
                    "duration": 0.37580667083335584
                },
                {
                    "name": "A4",
                    "midi": 69,
                    "time": 368.5163440000087,
                    "velocity": 0.23622047244094488,
                    "duration": 0.37580667083335584
                },
                {
                    "name": "B3",
                    "midi": 59,
                    "time": 368.90344100000874,
                    "velocity": 0.1968503937007874,
                    "duration": 0.37580667083335584
                },
                {
                    "name": "D4",
                    "midi": 62,
                    "time": 368.90344100000874,
                    "velocity": 0.1968503937007874,
                    "duration": 0.37580667083335584
                },
                {
                    "name": "B4",
                    "midi": 71,
                    "time": 368.90344100000874,
                    "velocity": 0.23622047244094488,
                    "duration": 0.37580667083335584
                },
                {
                    "name": "E3",
                    "midi": 52,
                    "time": 369.2905380000088,
                    "velocity": 0.2283464566929134,
                    "duration": 0.37580667083335584
                },
                {
                    "name": "E4",
                    "midi": 64,
                    "time": 369.2905380000088,
                    "velocity": 0.2755905511811024,
                    "duration": 0.37580667083335584
                },
                {
                    "name": "D3",
                    "midi": 50,
                    "time": 369.6776350000088,
                    "velocity": 0.1968503937007874,
                    "duration": 0.37580667083335584
                },
                {
                    "name": "D4",
                    "midi": 62,
                    "time": 369.6776350000088,
                    "velocity": 0.23622047244094488,
                    "duration": 0.37580667083335584
                },
                {
                    "name": "D3",
                    "midi": 50,
                    "time": 370.06473200000886,
                    "velocity": 0.1968503937007874,
                    "duration": 0.3677421500000264
                },
                {
                    "name": "B2",
                    "midi": 47,
                    "time": 370.06473200000886,
                    "velocity": 0.1968503937007874,
                    "duration": 0.37580667083335584
                },
                {
                    "name": "B3",
                    "midi": 59,
                    "time": 370.06473200000886,
                    "velocity": 0.23622047244094488,
                    "duration": 0.37580667083335584
                },
                {
                    "name": "D3",
                    "midi": 50,
                    "time": 370.4518290000089,
                    "velocity": 0.2440944881889764,
                    "duration": 0.7669359312499751
                },
                {
                    "name": "D4",
                    "midi": 62,
                    "time": 370.4518290000089,
                    "velocity": 0.29133858267716534,
                    "duration": 0.7669359312499751
                },
                {
                    "name": "G3",
                    "midi": 55,
                    "time": 371.22602300000887,
                    "velocity": 0.2047244094488189,
                    "duration": 0.37580667083335584
                },
                {
                    "name": "D4",
                    "midi": 62,
                    "time": 371.22602300000887,
                    "velocity": 0.2440944881889764,
                    "duration": 0.37580667083335584
                },
                {
                    "name": "G3",
                    "midi": 55,
                    "time": 371.6131200000089,
                    "velocity": 0.1968503937007874,
                    "duration": 0.37580667083335584
                },
                {
                    "name": "D4",
                    "midi": 62,
                    "time": 371.6131200000089,
                    "velocity": 0.23622047244094488,
                    "duration": 0.37580667083335584
                },
                {
                    "name": "G2",
                    "midi": 43,
                    "time": 372.00021700000894,
                    "velocity": 0.1968503937007874,
                    "duration": 0.3677421500000264
                },
                {
                    "name": "G2",
                    "midi": 43,
                    "time": 372.387314000009,
                    "velocity": 0.1968503937007874,
                    "duration": 0.3677421500000264
                },
                {
                    "name": "G2",
                    "midi": 43,
                    "time": 372.774411000009,
                    "velocity": 0.25196850393700787,
                    "duration": 0.7669359312499751
                },
                {
                    "name": "G2",
                    "midi": 43,
                    "time": 373.548605000009,
                    "velocity": 0.1968503937007874,
                    "duration": 0.3677421500000264
                },
                {
                    "name": "G2",
                    "midi": 43,
                    "time": 373.93570200000903,
                    "velocity": 0.25984251968503935,
                    "duration": 0.3677421500000264
                },
                {
                    "name": "G2",
                    "midi": 43,
                    "time": 374.32279900000907,
                    "velocity": 0.3937007874015748,
                    "duration": 0.19354850000001989
                },
                {
                    "name": "E2",
                    "midi": 40,
                    "time": 374.5163475000091,
                    "velocity": 0.33070866141732286,
                    "duration": 0.19354850000001989
                },
                {
                    "name": "F#2",
                    "midi": 42,
                    "time": 374.7098960000091,
                    "velocity": 0.3700787401574803,
                    "duration": 0.19354850000001989
                },
                {
                    "name": "G2",
                    "midi": 43,
                    "time": 374.90344450000913,
                    "velocity": 0.4094488188976378,
                    "duration": 0.19354850000001989
                },
                {
                    "name": "A2",
                    "midi": 45,
                    "time": 375.09699300000915,
                    "velocity": 0.41732283464566927,
                    "duration": 0.7669359312499751
                },
                {
                    "name": "A2",
                    "midi": 45,
                    "time": 375.8711870000091,
                    "velocity": 0.1968503937007874,
                    "duration": 0.3677421500000264
                },
                {
                    "name": "A2",
                    "midi": 45,
                    "time": 376.25828400000916,
                    "velocity": 0.25984251968503935,
                    "duration": 0.3677421500000264
                },
                {
                    "name": "G2",
                    "midi": 43,
                    "time": 376.6453810000092,
                    "velocity": 0.4251968503937008,
                    "duration": 0.19354850000001989
                },
                {
                    "name": "E2",
                    "midi": 40,
                    "time": 376.8389295000092,
                    "velocity": 0.33858267716535434,
                    "duration": 0.19354850000001989
                },
                {
                    "name": "F#2",
                    "midi": 42,
                    "time": 377.03247800000923,
                    "velocity": 0.3700787401574803,
                    "duration": 0.19354850000001989
                },
                {
                    "name": "G2",
                    "midi": 43,
                    "time": 377.22602650000925,
                    "velocity": 0.3937007874015748,
                    "duration": 0.19354850000001989
                },
                {
                    "name": "A2",
                    "midi": 45,
                    "time": 377.4195750000093,
                    "velocity": 0.4094488188976378,
                    "duration": 0.7669359312499751
                },
                {
                    "name": "A2",
                    "midi": 45,
                    "time": 378.19376900000924,
                    "velocity": 0.1889763779527559,
                    "duration": 0.3677421500000264
                },
                {
                    "name": "A2",
                    "midi": 45,
                    "time": 378.5808660000093,
                    "velocity": 0.25196850393700787,
                    "duration": 0.3677421500000264
                },
                {
                    "name": "G2",
                    "midi": 43,
                    "time": 378.9679630000093,
                    "velocity": 0.3937007874015748,
                    "duration": 0.19354850000001989
                },
                {
                    "name": "E2",
                    "midi": 40,
                    "time": 379.16151150000934,
                    "velocity": 0.30708661417322836,
                    "duration": 0.19354850000001989
                },
                {
                    "name": "F#2",
                    "midi": 42,
                    "time": 379.35506000000936,
                    "velocity": 0.3543307086614173,
                    "duration": 0.19354850000001989
                },
                {
                    "name": "G2",
                    "midi": 43,
                    "time": 379.5486085000094,
                    "velocity": 0.2992125984251969,
                    "duration": 0.19354850000001989
                },
                {
                    "name": "A2",
                    "midi": 45,
                    "time": 379.7421570000094,
                    "velocity": 0.3228346456692913,
                    "duration": 0.7669359312499751
                },
                {
                    "name": "A2",
                    "midi": 45,
                    "time": 380.51635100000937,
                    "velocity": 0.1732283464566929,
                    "duration": 0.3677421500000264
                },
                {
                    "name": "A2",
                    "midi": 45,
                    "time": 380.9034480000094,
                    "velocity": 0.2204724409448819,
                    "duration": 0.7669359312499751
                },
                {
                    "name": "A2",
                    "midi": 45,
                    "time": 381.67764200000937,
                    "velocity": 0.16535433070866143,
                    "duration": 0.3677421500000264
                },
                {
                    "name": "A2",
                    "midi": 45,
                    "time": 382.0647390000094,
                    "velocity": 0.2125984251968504,
                    "duration": 0.7669359312499751
                },
                {
                    "name": "A2",
                    "midi": 45,
                    "time": 382.8389330000094,
                    "velocity": 0.15748031496062992,
                    "duration": 0.3677421500000264
                },
                {
                    "name": "A2",
                    "midi": 45,
                    "time": 383.2260300000094,
                    "velocity": 0.1968503937007874,
                    "duration": 0.28225822916664356
                },
                {
                    "name": "A1",
                    "midi": 33,
                    "time": 383.5163527500094,
                    "velocity": 0.4015748031496063,
                    "duration": 0.04838712499997655
                },
                {
                    "name": "A2",
                    "midi": 45,
                    "time": 383.5163527500094,
                    "velocity": 0.47244094488188976,
                    "duration": 0.04838712499997655
                },
                {
                    "name": "A1",
                    "midi": 33,
                    "time": 383.61312700000934,
                    "velocity": 0.4251968503937008,
                    "duration": 0.290322749999973
                },
                {
                    "name": "A2",
                    "midi": 45,
                    "time": 383.61312700000934,
                    "velocity": 0.5039370078740157,
                    "duration": 0.290322749999973
                },
                {
                    "name": "A1",
                    "midi": 33,
                    "time": 383.9034497500093,
                    "velocity": 0.3937007874015748,
                    "duration": 0.04838712499997655
                },
                {
                    "name": "A2",
                    "midi": 45,
                    "time": 383.9034497500093,
                    "velocity": 0.4645669291338583,
                    "duration": 0.04838712499997655
                },
                {
                    "name": "B1",
                    "midi": 35,
                    "time": 384.00022400000927,
                    "velocity": 0.4251968503937008,
                    "duration": 0.290322749999973
                },
                {
                    "name": "B2",
                    "midi": 47,
                    "time": 384.00022400000927,
                    "velocity": 0.5039370078740157,
                    "duration": 0.290322749999973
                },
                {
                    "name": "C#2",
                    "midi": 37,
                    "time": 384.29054675000924,
                    "velocity": 0.4015748031496063,
                    "duration": 0.04838712499997655
                },
                {
                    "name": "C#3",
                    "midi": 49,
                    "time": 384.29054675000924,
                    "velocity": 0.47244094488188976,
                    "duration": 0.04838712499997655
                },
                {
                    "name": "D2",
                    "midi": 38,
                    "time": 384.3873210000092,
                    "velocity": 0.44881889763779526,
                    "duration": 0.7508068895833162
                },
                {
                    "name": "A2",
                    "midi": 45,
                    "time": 384.3873210000092,
                    "velocity": 0.44881889763779526,
                    "duration": 0.7508068895833162
                },
                {
                    "name": "D3",
                    "midi": 50,
                    "time": 384.3873210000092,
                    "velocity": 0.5354330708661418,
                    "duration": 0.7508068895833162
                },
                {
                    "name": "D2",
                    "midi": 38,
                    "time": 385.16151500000916,
                    "velocity": 0.44881889763779526,
                    "duration": 0.7508068895833162
                },
                {
                    "name": "A2",
                    "midi": 45,
                    "time": 385.16151500000916,
                    "velocity": 0.44881889763779526,
                    "duration": 0.7508068895833162
                },
                {
                    "name": "D3",
                    "midi": 50,
                    "time": 385.16151500000916,
                    "velocity": 0.5354330708661418,
                    "duration": 0.7508068895833162
                },
                {
                    "name": "D2",
                    "midi": 38,
                    "time": 385.9357090000091,
                    "velocity": 0.41732283464566927,
                    "duration": 0.3870969999999829
                },
                {
                    "name": "D3",
                    "midi": 50,
                    "time": 385.9357090000091,
                    "velocity": 0.49606299212598426,
                    "duration": 0.3870969999999829
                },
                {
                    "name": "F#2",
                    "midi": 42,
                    "time": 386.3228060000091,
                    "velocity": 0.41732283464566927,
                    "duration": 0.3870969999999829
                },
                {
                    "name": "F#3",
                    "midi": 54,
                    "time": 386.3228060000091,
                    "velocity": 0.49606299212598426,
                    "duration": 0.3870969999999829
                },
                {
                    "name": "C#2",
                    "midi": 37,
                    "time": 386.7099030000091,
                    "velocity": 0.44881889763779526,
                    "duration": 0.7508068895833162
                },
                {
                    "name": "A2",
                    "midi": 45,
                    "time": 386.7099030000091,
                    "velocity": 0.44881889763779526,
                    "duration": 0.7508068895833162
                },
                {
                    "name": "C#3",
                    "midi": 49,
                    "time": 386.7099030000091,
                    "velocity": 0.5354330708661418,
                    "duration": 0.7508068895833162
                },
                {
                    "name": "C#2",
                    "midi": 37,
                    "time": 387.48409700000906,
                    "velocity": 0.44881889763779526,
                    "duration": 0.7508068895833162
                },
                {
                    "name": "A2",
                    "midi": 45,
                    "time": 387.48409700000906,
                    "velocity": 0.44881889763779526,
                    "duration": 0.7508068895833162
                },
                {
                    "name": "C#3",
                    "midi": 49,
                    "time": 387.48409700000906,
                    "velocity": 0.5354330708661418,
                    "duration": 0.7508068895833162
                },
                {
                    "name": "C#2",
                    "midi": 37,
                    "time": 388.258291000009,
                    "velocity": 0.41732283464566927,
                    "duration": 0.37580667083335584
                },
                {
                    "name": "C#3",
                    "midi": 49,
                    "time": 388.258291000009,
                    "velocity": 0.49606299212598426,
                    "duration": 0.37580667083335584
                },
                {
                    "name": "C#2",
                    "midi": 37,
                    "time": 388.64538800000906,
                    "velocity": 0.41732283464566927,
                    "duration": 0.3870969999999829
                },
                {
                    "name": "C#3",
                    "midi": 49,
                    "time": 388.64538800000906,
                    "velocity": 0.49606299212598426,
                    "duration": 0.3870969999999829
                },
                {
                    "name": "B1",
                    "midi": 35,
                    "time": 389.03248500000905,
                    "velocity": 0.44881889763779526,
                    "duration": 0.7508068895833162
                },
                {
                    "name": "F#2",
                    "midi": 42,
                    "time": 389.03248500000905,
                    "velocity": 0.44881889763779526,
                    "duration": 0.7508068895833162
                },
                {
                    "name": "B2",
                    "midi": 47,
                    "time": 389.03248500000905,
                    "velocity": 0.5354330708661418,
                    "duration": 0.7508068895833162
                },
                {
                    "name": "B1",
                    "midi": 35,
                    "time": 389.806679000009,
                    "velocity": 0.44881889763779526,
                    "duration": 0.5725809791666734
                },
                {
                    "name": "F#2",
                    "midi": 42,
                    "time": 389.806679000009,
                    "velocity": 0.44881889763779526,
                    "duration": 0.5725809791666734
                },
                {
                    "name": "B2",
                    "midi": 47,
                    "time": 389.806679000009,
                    "velocity": 0.5354330708661418,
                    "duration": 0.5725809791666734
                },
                {
                    "name": "E2",
                    "midi": 40,
                    "time": 390.387324500009,
                    "velocity": 0.4094488188976378,
                    "duration": 0.09677425000000994
                },
                {
                    "name": "E3",
                    "midi": 52,
                    "time": 390.387324500009,
                    "velocity": 0.4881889763779528,
                    "duration": 0.09677425000000994
                },
                {
                    "name": "E2",
                    "midi": 40,
                    "time": 390.58087300000903,
                    "velocity": 0.41732283464566927,
                    "duration": 0.09677425000000994
                },
                {
                    "name": "E3",
                    "midi": 52,
                    "time": 390.58087300000903,
                    "velocity": 0.49606299212598426,
                    "duration": 0.09677425000000994
                },
                {
                    "name": "E2",
                    "midi": 40,
                    "time": 390.77442150000905,
                    "velocity": 0.4409448818897638,
                    "duration": 0.09677425000000994
                },
                {
                    "name": "E3",
                    "midi": 52,
                    "time": 390.77442150000905,
                    "velocity": 0.5196850393700787,
                    "duration": 0.09677425000000994
                },
                {
                    "name": "E2",
                    "midi": 40,
                    "time": 390.9679700000091,
                    "velocity": 0.44881889763779526,
                    "duration": 0.09677425000000994
                },
                {
                    "name": "E3",
                    "midi": 52,
                    "time": 390.9679700000091,
                    "velocity": 0.5354330708661418,
                    "duration": 0.09677425000000994
                },
                {
                    "name": "E2",
                    "midi": 40,
                    "time": 391.1615185000091,
                    "velocity": 0.4645669291338583,
                    "duration": 0.09677425000000994
                },
                {
                    "name": "E3",
                    "midi": 52,
                    "time": 391.1615185000091,
                    "velocity": 0.5511811023622047,
                    "duration": 0.09677425000000994
                },
                {
                    "name": "A1",
                    "midi": 33,
                    "time": 391.3550670000091,
                    "velocity": 0.4881889763779528,
                    "duration": 0.7508068895833162
                },
                {
                    "name": "A2",
                    "midi": 45,
                    "time": 391.3550670000091,
                    "velocity": 0.5748031496062992,
                    "duration": 0.7508068895833162
                },
                {
                    "name": "A2",
                    "midi": 45,
                    "time": 392.1292610000091,
                    "velocity": 0.44881889763779526,
                    "duration": 0.7508068895833162
                },
                {
                    "name": "E3",
                    "midi": 52,
                    "time": 392.1292610000091,
                    "velocity": 0.5354330708661418,
                    "duration": 0.7508068895833162
                },
                {
                    "name": "F#4",
                    "midi": 66,
                    "time": 392.90345500000905,
                    "velocity": 0.3543307086614173,
                    "duration": 0.3870969999999829
                },
                {
                    "name": "D4",
                    "midi": 62,
                    "time": 393.29055200000903,
                    "velocity": 0.29133858267716534,
                    "duration": 0.3870969999999829
                },
                {
                    "name": "G4",
                    "midi": 67,
                    "time": 393.677649000009,
                    "velocity": 0.3543307086614173,
                    "duration": 0.3870969999999829
                },
                {
                    "name": "B4",
                    "midi": 71,
                    "time": 394.064746000009,
                    "velocity": 0.30708661417322836,
                    "duration": 0.3870969999999829
                },
                {
                    "name": "E5",
                    "midi": 76,
                    "time": 394.451843000009,
                    "velocity": 0.30708661417322836,
                    "duration": 0.3870969999999829
                },
                {
                    "name": "C#4",
                    "midi": 61,
                    "time": 394.83894000000896,
                    "velocity": 0.3464566929133858,
                    "duration": 0.19354850000001989
                },
                {
                    "name": "C#5",
                    "midi": 73,
                    "time": 395.226037000009,
                    "velocity": 0.28346456692913385,
                    "duration": 0.3870969999999829
                },
                {
                    "name": "G4",
                    "midi": 67,
                    "time": 395.613134000009,
                    "velocity": 0.28346456692913385,
                    "duration": 0.3870969999999829
                },
                {
                    "name": "F#4",
                    "midi": 66,
                    "time": 396.00023100000897,
                    "velocity": 0.3543307086614173,
                    "duration": 0.3870969999999829
                },
                {
                    "name": "A4",
                    "midi": 69,
                    "time": 396.38732800000895,
                    "velocity": 0.30708661417322836,
                    "duration": 0.3870969999999829
                },
                {
                    "name": "D5",
                    "midi": 74,
                    "time": 396.77442500000893,
                    "velocity": 0.30708661417322836,
                    "duration": 0.3870969999999829
                },
                {
                    "name": "B3",
                    "midi": 59,
                    "time": 397.1615220000089,
                    "velocity": 0.3464566929133858,
                    "duration": 0.19354850000001989
                },
                {
                    "name": "B4",
                    "midi": 71,
                    "time": 397.54861900000896,
                    "velocity": 0.28346456692913385,
                    "duration": 0.3870969999999829
                },
                {
                    "name": "F#4",
                    "midi": 66,
                    "time": 397.93571600000894,
                    "velocity": 0.28346456692913385,
                    "duration": 0.3870969999999829
                },
                {
                    "name": "E4",
                    "midi": 64,
                    "time": 398.3228130000089,
                    "velocity": 0.3543307086614173,
                    "duration": 0.3870969999999829
                },
                {
                    "name": "G4",
                    "midi": 67,
                    "time": 398.7099100000089,
                    "velocity": 0.30708661417322836,
                    "duration": 0.3870969999999829
                },
                {
                    "name": "C#5",
                    "midi": 73,
                    "time": 399.0970070000089,
                    "velocity": 0.30708661417322836,
                    "duration": 0.3870969999999829
                },
                {
                    "name": "E3",
                    "midi": 52,
                    "time": 399.48410400000887,
                    "velocity": 0.3464566929133858,
                    "duration": 0.19354850000001989
                },
                {
                    "name": "E4",
                    "midi": 64,
                    "time": 399.8712010000089,
                    "velocity": 0.2677165354330709,
                    "duration": 0.3870969999999829
                },
                {
                    "name": "F4",
                    "midi": 65,
                    "time": 400.2582980000089,
                    "velocity": 0.25196850393700787,
                    "duration": 0.3870969999999829
                },
                {
                    "name": "F#4",
                    "midi": 66,
                    "time": 400.6453950000089,
                    "velocity": 0.1968503937007874,
                    "duration": 0.7508068895833162
                },
                {
                    "name": "C#5",
                    "midi": 73,
                    "time": 400.6453950000089,
                    "velocity": 0.23622047244094488,
                    "duration": 0.7508068895833162
                },
                {
                    "name": "F#4",
                    "midi": 66,
                    "time": 401.41958900000884,
                    "velocity": 0.30708661417322836,
                    "duration": 0.5806455000000028
                },
                {
                    "name": "C#5",
                    "midi": 73,
                    "time": 401.41958900000884,
                    "velocity": 0.3700787401574803,
                    "duration": 0.5806455000000028
                },
                {
                    "name": "F#4",
                    "midi": 66,
                    "time": 402.19378300000886,
                    "velocity": 0.29133858267716534,
                    "duration": 0.34838730000001306
                },
                {
                    "name": "C#5",
                    "midi": 73,
                    "time": 402.19378300000886,
                    "velocity": 0.3464566929133858,
                    "duration": 0.34838730000001306
                },
                {
                    "name": "F#4",
                    "midi": 66,
                    "time": 402.5808800000089,
                    "velocity": 0.29133858267716534,
                    "duration": 0.34838730000001306
                },
                {
                    "name": "C#5",
                    "midi": 73,
                    "time": 402.5808800000089,
                    "velocity": 0.3464566929133858,
                    "duration": 0.34838730000001306
                },
                {
                    "name": "C#4",
                    "midi": 61,
                    "time": 402.96797700000894,
                    "velocity": 0.30708661417322836,
                    "duration": 0.7508068895833162
                },
                {
                    "name": "B4",
                    "midi": 71,
                    "time": 402.96797700000894,
                    "velocity": 0.3700787401574803,
                    "duration": 0.7508068895833162
                },
                {
                    "name": "C#4",
                    "midi": 61,
                    "time": 403.7421710000089,
                    "velocity": 0.30708661417322836,
                    "duration": 0.7661294791666933
                },
                {
                    "name": "B4",
                    "midi": 71,
                    "time": 403.7421710000089,
                    "velocity": 0.3700787401574803,
                    "duration": 0.7661294791666933
                },
                {
                    "name": "C#4",
                    "midi": 61,
                    "time": 404.51636500000893,
                    "velocity": 0.29133858267716534,
                    "duration": 0.34838730000001306
                },
                {
                    "name": "B4",
                    "midi": 71,
                    "time": 404.51636500000893,
                    "velocity": 0.3464566929133858,
                    "duration": 0.34838730000001306
                },
                {
                    "name": "C#4",
                    "midi": 61,
                    "time": 404.903462000009,
                    "velocity": 0.29133858267716534,
                    "duration": 0.34838730000001306
                },
                {
                    "name": "B4",
                    "midi": 71,
                    "time": 404.903462000009,
                    "velocity": 0.3464566929133858,
                    "duration": 0.34838730000001306
                },
                {
                    "name": "F#4",
                    "midi": 66,
                    "time": 405.290559000009,
                    "velocity": 0.30708661417322836,
                    "duration": 0.7508068895833162
                },
                {
                    "name": "A#4",
                    "midi": 70,
                    "time": 405.290559000009,
                    "velocity": 0.3700787401574803,
                    "duration": 0.7508068895833162
                },
                {
                    "name": "F#4",
                    "midi": 66,
                    "time": 406.064753000009,
                    "velocity": 0.30708661417322836,
                    "duration": 0.6693552291666833
                },
                {
                    "name": "A#4",
                    "midi": 70,
                    "time": 406.064753000009,
                    "velocity": 0.3700787401574803,
                    "duration": 0.6693552291666833
                },
                {
                    "name": "A1",
                    "midi": 33,
                    "time": 406.742172750009,
                    "velocity": 0.4015748031496063,
                    "duration": 0.04838712499997655
                },
                {
                    "name": "A2",
                    "midi": 45,
                    "time": 406.742172750009,
                    "velocity": 0.47244094488188976,
                    "duration": 0.04838712499997655
                },
                {
                    "name": "A1",
                    "midi": 33,
                    "time": 406.83894700000894,
                    "velocity": 0.4251968503937008,
                    "duration": 0.290322749999973
                },
                {
                    "name": "A2",
                    "midi": 45,
                    "time": 406.83894700000894,
                    "velocity": 0.5039370078740157,
                    "duration": 0.290322749999973
                },
                {
                    "name": "A1",
                    "midi": 33,
                    "time": 407.1292697500089,
                    "velocity": 0.3937007874015748,
                    "duration": 0.04838712499997655
                },
                {
                    "name": "A2",
                    "midi": 45,
                    "time": 407.1292697500089,
                    "velocity": 0.4645669291338583,
                    "duration": 0.04838712499997655
                },
                {
                    "name": "A1",
                    "midi": 33,
                    "time": 407.22604400000887,
                    "velocity": 0.4251968503937008,
                    "duration": 0.290322749999973
                },
                {
                    "name": "A2",
                    "midi": 45,
                    "time": 407.22604400000887,
                    "velocity": 0.5039370078740157,
                    "duration": 0.290322749999973
                },
                {
                    "name": "A1",
                    "midi": 33,
                    "time": 407.51636675000884,
                    "velocity": 0.4015748031496063,
                    "duration": 0.04838712499997655
                },
                {
                    "name": "A2",
                    "midi": 45,
                    "time": 407.51636675000884,
                    "velocity": 0.47244094488188976,
                    "duration": 0.04838712499997655
                },
                {
                    "name": "B1",
                    "midi": 35,
                    "time": 407.6131410000088,
                    "velocity": 0.44881889763779526,
                    "duration": 0.7508068895833162
                },
                {
                    "name": "B2",
                    "midi": 47,
                    "time": 407.6131410000088,
                    "velocity": 0.5354330708661418,
                    "duration": 0.7508068895833162
                },
                {
                    "name": "B1",
                    "midi": 35,
                    "time": 408.38733500000876,
                    "velocity": 0.44881889763779526,
                    "duration": 0.7508068895833162
                },
                {
                    "name": "B2",
                    "midi": 47,
                    "time": 408.38733500000876,
                    "velocity": 0.5354330708661418,
                    "duration": 0.7508068895833162
                },
                {
                    "name": "B1",
                    "midi": 35,
                    "time": 409.1615290000087,
                    "velocity": 0.41732283464566927,
                    "duration": 0.3870969999999829
                },
                {
                    "name": "B2",
                    "midi": 47,
                    "time": 409.1615290000087,
                    "velocity": 0.49606299212598426,
                    "duration": 0.3870969999999829
                },
                {
                    "name": "B1",
                    "midi": 35,
                    "time": 409.5486260000087,
                    "velocity": 0.41732283464566927,
                    "duration": 0.3870969999999829
                },
                {
                    "name": "B2",
                    "midi": 47,
                    "time": 409.5486260000087,
                    "velocity": 0.49606299212598426,
                    "duration": 0.3870969999999829
                },
                {
                    "name": "C#2",
                    "midi": 37,
                    "time": 409.9357230000087,
                    "velocity": 0.44881889763779526,
                    "duration": 0.7508068895833162
                },
                {
                    "name": "A2",
                    "midi": 45,
                    "time": 409.9357230000087,
                    "velocity": 0.44881889763779526,
                    "duration": 0.7508068895833162
                },
                {
                    "name": "C#3",
                    "midi": 49,
                    "time": 409.9357230000087,
                    "velocity": 0.5354330708661418,
                    "duration": 0.7508068895833162
                },
                {
                    "name": "C#2",
                    "midi": 37,
                    "time": 410.70991700000866,
                    "velocity": 0.44881889763779526,
                    "duration": 0.7508068895833162
                },
                {
                    "name": "A2",
                    "midi": 45,
                    "time": 410.70991700000866,
                    "velocity": 0.44881889763779526,
                    "duration": 0.7508068895833162
                },
                {
                    "name": "C#3",
                    "midi": 49,
                    "time": 410.70991700000866,
                    "velocity": 0.5354330708661418,
                    "duration": 0.7508068895833162
                },
                {
                    "name": "C#2",
                    "midi": 37,
                    "time": 411.4841110000086,
                    "velocity": 0.41732283464566927,
                    "duration": 0.37580667083335584
                },
                {
                    "name": "C#3",
                    "midi": 49,
                    "time": 411.4841110000086,
                    "velocity": 0.49606299212598426,
                    "duration": 0.37580667083335584
                },
                {
                    "name": "C#2",
                    "midi": 37,
                    "time": 411.87120800000866,
                    "velocity": 0.41732283464566927,
                    "duration": 0.3870969999999829
                },
                {
                    "name": "C#3",
                    "midi": 49,
                    "time": 411.87120800000866,
                    "velocity": 0.49606299212598426,
                    "duration": 0.3870969999999829
                },
                {
                    "name": "C2",
                    "midi": 36,
                    "time": 412.25830500000865,
                    "velocity": 0.44881889763779526,
                    "duration": 0.7508068895833162
                },
                {
                    "name": "C3",
                    "midi": 48,
                    "time": 412.25830500000865,
                    "velocity": 0.5354330708661418,
                    "duration": 0.7508068895833162
                },
                {
                    "name": "B1",
                    "midi": 35,
                    "time": 413.0324990000086,
                    "velocity": 0.44881889763779526,
                    "duration": 0.5725809791666734
                },
                {
                    "name": "B2",
                    "midi": 47,
                    "time": 413.0324990000086,
                    "velocity": 0.5354330708661418,
                    "duration": 0.5725809791666734
                },
                {
                    "name": "A#1",
                    "midi": 34,
                    "time": 413.6131445000086,
                    "velocity": 0.4094488188976378,
                    "duration": 0.09677425000000994
                },
                {
                    "name": "A#2",
                    "midi": 46,
                    "time": 413.6131445000086,
                    "velocity": 0.4881889763779528,
                    "duration": 0.09677425000000994
                },
                {
                    "name": "A#1",
                    "midi": 34,
                    "time": 413.80669300000864,
                    "velocity": 0.41732283464566927,
                    "duration": 0.09677425000000994
                },
                {
                    "name": "A#2",
                    "midi": 46,
                    "time": 413.80669300000864,
                    "velocity": 0.49606299212598426,
                    "duration": 0.09677425000000994
                },
                {
                    "name": "A#1",
                    "midi": 34,
                    "time": 414.00024150000866,
                    "velocity": 0.4409448818897638,
                    "duration": 0.09677425000000994
                },
                {
                    "name": "A#2",
                    "midi": 46,
                    "time": 414.00024150000866,
                    "velocity": 0.5196850393700787,
                    "duration": 0.09677425000000994
                },
                {
                    "name": "A#1",
                    "midi": 34,
                    "time": 414.1937900000087,
                    "velocity": 0.44881889763779526,
                    "duration": 0.09677425000000994
                },
                {
                    "name": "A#2",
                    "midi": 46,
                    "time": 414.1937900000087,
                    "velocity": 0.5354330708661418,
                    "duration": 0.09677425000000994
                },
                {
                    "name": "A#1",
                    "midi": 34,
                    "time": 414.3873385000087,
                    "velocity": 0.4645669291338583,
                    "duration": 0.09677425000000994
                },
                {
                    "name": "A#2",
                    "midi": 46,
                    "time": 414.3873385000087,
                    "velocity": 0.5511811023622047,
                    "duration": 0.09677425000000994
                },
                {
                    "name": "A1",
                    "midi": 33,
                    "time": 414.5808870000087,
                    "velocity": 0.4881889763779528,
                    "duration": 0.7508068895833162
                },
                {
                    "name": "A2",
                    "midi": 45,
                    "time": 414.5808870000087,
                    "velocity": 0.5748031496062992,
                    "duration": 0.7508068895833162
                },
                {
                    "name": "A2",
                    "midi": 45,
                    "time": 415.3550810000087,
                    "velocity": 0.44881889763779526,
                    "duration": 0.7508068895833162
                },
                {
                    "name": "E3",
                    "midi": 52,
                    "time": 415.3550810000087,
                    "velocity": 0.5354330708661418,
                    "duration": 0.7508068895833162
                },
                {
                    "name": "C#4",
                    "midi": 61,
                    "time": 416.12927500000865,
                    "velocity": 0.3543307086614173,
                    "duration": 0.3870969999999829
                },
                {
                    "name": "A3",
                    "midi": 57,
                    "time": 416.51637200000863,
                    "velocity": 0.29133858267716534,
                    "duration": 0.3870969999999829
                },
                {
                    "name": "D4",
                    "midi": 62,
                    "time": 416.9034690000086,
                    "velocity": 0.3543307086614173,
                    "duration": 0.3870969999999829
                },
                {
                    "name": "F#4",
                    "midi": 66,
                    "time": 417.2905660000086,
                    "velocity": 0.30708661417322836,
                    "duration": 0.3870969999999829
                },
                {
                    "name": "B4",
                    "midi": 71,
                    "time": 417.6776630000086,
                    "velocity": 0.30708661417322836,
                    "duration": 0.3870969999999829
                },
                {
                    "name": "G#3",
                    "midi": 56,
                    "time": 418.06476000000856,
                    "velocity": 0.3464566929133858,
                    "duration": 0.19354850000001989
                },
                {
                    "name": "G#4",
                    "midi": 68,
                    "time": 418.4518570000086,
                    "velocity": 0.28346456692913385,
                    "duration": 0.3870969999999829
                },
                {
                    "name": "D4",
                    "midi": 62,
                    "time": 418.8389540000086,
                    "velocity": 0.28346456692913385,
                    "duration": 0.3870969999999829
                },
                {
                    "name": "C#4",
                    "midi": 61,
                    "time": 419.22605100000857,
                    "velocity": 0.3543307086614173,
                    "duration": 0.3870969999999829
                },
                {
                    "name": "E4",
                    "midi": 64,
                    "time": 419.61314800000855,
                    "velocity": 0.30708661417322836,
                    "duration": 0.3870969999999829
                },
                {
                    "name": "A4",
                    "midi": 69,
                    "time": 420.00024500000853,
                    "velocity": 0.30708661417322836,
                    "duration": 0.3870969999999829
                },
                {
                    "name": "F#3",
                    "midi": 54,
                    "time": 420.3873420000085,
                    "velocity": 0.3464566929133858,
                    "duration": 0.19354850000001989
                },
                {
                    "name": "F#4",
                    "midi": 66,
                    "time": 420.77443900000856,
                    "velocity": 0.28346456692913385,
                    "duration": 0.3870969999999829
                },
                {
                    "name": "C#4",
                    "midi": 61,
                    "time": 421.16153600000854,
                    "velocity": 0.28346456692913385,
                    "duration": 0.3870969999999829
                },
                {
                    "name": "B3",
                    "midi": 59,
                    "time": 421.5486330000085,
                    "velocity": 0.3543307086614173,
                    "duration": 0.3870969999999829
                },
                {
                    "name": "D4",
                    "midi": 62,
                    "time": 421.9357300000085,
                    "velocity": 0.30708661417322836,
                    "duration": 0.3870969999999829
                },
                {
                    "name": "G#4",
                    "midi": 68,
                    "time": 422.3228270000085,
                    "velocity": 0.30708661417322836,
                    "duration": 0.3870969999999829
                },
                {
                    "name": "B2",
                    "midi": 47,
                    "time": 422.70992400000847,
                    "velocity": 0.3464566929133858,
                    "duration": 0.19354850000001989
                },
                {
                    "name": "B3",
                    "midi": 59,
                    "time": 423.0970210000085,
                    "velocity": 0.2677165354330709,
                    "duration": 0.3870969999999829
                },
                {
                    "name": "C4",
                    "midi": 60,
                    "time": 423.4841180000085,
                    "velocity": 0.25196850393700787,
                    "duration": 0.3870969999999829
                },
                {
                    "name": "C#4",
                    "midi": 61,
                    "time": 423.8712150000085,
                    "velocity": 0.1968503937007874,
                    "duration": 0.7508068895833162
                },
                {
                    "name": "G#4",
                    "midi": 68,
                    "time": 423.8712150000085,
                    "velocity": 0.23622047244094488,
                    "duration": 0.7508068895833162
                },
                {
                    "name": "C#4",
                    "midi": 61,
                    "time": 424.64540900000844,
                    "velocity": 0.30708661417322836,
                    "duration": 0.7661294791666933
                },
                {
                    "name": "G#4",
                    "midi": 68,
                    "time": 424.64540900000844,
                    "velocity": 0.3700787401574803,
                    "duration": 0.7661294791666933
                },
                {
                    "name": "C#4",
                    "midi": 61,
                    "time": 425.41960300000846,
                    "velocity": 0.29133858267716534,
                    "duration": 0.34838730000001306
                },
                {
                    "name": "G#4",
                    "midi": 68,
                    "time": 425.41960300000846,
                    "velocity": 0.3464566929133858,
                    "duration": 0.34838730000001306
                },
                {
                    "name": "C#4",
                    "midi": 61,
                    "time": 425.8067000000085,
                    "velocity": 0.29133858267716534,
                    "duration": 0.34838730000001306
                },
                {
                    "name": "G#4",
                    "midi": 68,
                    "time": 425.8067000000085,
                    "velocity": 0.3464566929133858,
                    "duration": 0.34838730000001306
                },
                {
                    "name": "B3",
                    "midi": 59,
                    "time": 426.19379700000854,
                    "velocity": 0.30708661417322836,
                    "duration": 0.7508068895833162
                },
                {
                    "name": "E4",
                    "midi": 64,
                    "time": 426.19379700000854,
                    "velocity": 0.30708661417322836,
                    "duration": 0.7508068895833162
                },
                {
                    "name": "G#4",
                    "midi": 68,
                    "time": 426.19379700000854,
                    "velocity": 0.3700787401574803,
                    "duration": 0.7508068895833162
                },
                {
                    "name": "B3",
                    "midi": 59,
                    "time": 426.9679910000085,
                    "velocity": 0.30708661417322836,
                    "duration": 0.7661294791666933
                },
                {
                    "name": "E4",
                    "midi": 64,
                    "time": 426.9679910000085,
                    "velocity": 0.30708661417322836,
                    "duration": 0.6693552291666833
                },
                {
                    "name": "G#4",
                    "midi": 68,
                    "time": 426.9679910000085,
                    "velocity": 0.3700787401574803,
                    "duration": 0.6693552291666833
                },
                {
                    "name": "G#4",
                    "midi": 68,
                    "time": 427.6454107500085,
                    "velocity": 0.30708661417322836,
                    "duration": 0.09677425000000994
                },
                {
                    "name": "A4",
                    "midi": 69,
                    "time": 427.74218500000853,
                    "velocity": 0.3464566929133858,
                    "duration": 0.290322749999973
                },
                {
                    "name": "E4",
                    "midi": 64,
                    "time": 427.74218500000853,
                    "velocity": 0.30708661417322836,
                    "duration": 0.37500021874996037
                },
                {
                    "name": "G#4",
                    "midi": 68,
                    "time": 428.0325077500085,
                    "velocity": 0.3228346456692913,
                    "duration": 0.09677425000000994
                },
                {
                    "name": "E4",
                    "midi": 64,
                    "time": 428.1292820000085,
                    "velocity": 0.30708661417322836,
                    "duration": 0.37500021874996037
                },
                {
                    "name": "A4",
                    "midi": 69,
                    "time": 428.1292820000085,
                    "velocity": 0.33858267716535434,
                    "duration": 0.290322749999973
                },
                {
                    "name": "B4",
                    "midi": 71,
                    "time": 428.4196047500085,
                    "velocity": 0.3228346456692913,
                    "duration": 0.09677425000000994
                },
                {
                    "name": "E4",
                    "midi": 64,
                    "time": 428.5163790000085,
                    "velocity": 0.3700787401574803,
                    "duration": 0.7508068895833162
                },
                {
                    "name": "A3",
                    "midi": 57,
                    "time": 428.5163790000085,
                    "velocity": 0.30708661417322836,
                    "duration": 0.7508068895833162
                },
                {
                    "name": "A3",
                    "midi": 57,
                    "time": 429.29057300000846,
                    "velocity": 0.30708661417322836,
                    "duration": 0.6693552291666833
                },
                {
                    "name": "E4",
                    "midi": 64,
                    "time": 429.29057300000846,
                    "velocity": 0.3700787401574803,
                    "duration": 0.6693552291666833
                },
                {
                    "name": "A2",
                    "midi": 45,
                    "time": 429.9679927500085,
                    "velocity": 0.47244094488188976,
                    "duration": 0.04838712499997655
                },
                {
                    "name": "A2",
                    "midi": 45,
                    "time": 430.06476700000843,
                    "velocity": 0.5039370078740157,
                    "duration": 0.09677425000000994
                },
                {
                    "name": "A2",
                    "midi": 45,
                    "time": 430.35508975000846,
                    "velocity": 0.4645669291338583,
                    "duration": 0.04838712499997655
                },
                {
                    "name": "G2",
                    "midi": 43,
                    "time": 430.4518640000084,
                    "velocity": 0.5039370078740157,
                    "duration": 0.09677425000000994
                },
                {
                    "name": "A2",
                    "midi": 45,
                    "time": 430.74218675000844,
                    "velocity": 0.47244094488188976,
                    "duration": 0.04838712499997655
                },
                {
                    "name": "A#1",
                    "midi": 34,
                    "time": 430.8389610000084,
                    "velocity": 0.44881889763779526,
                    "duration": 0.7508068895833162
                },
                {
                    "name": "A#2",
                    "midi": 46,
                    "time": 430.8389610000084,
                    "velocity": 0.5354330708661418,
                    "duration": 0.7508068895833162
                },
                {
                    "name": "A#1",
                    "midi": 34,
                    "time": 431.61315500000836,
                    "velocity": 0.44881889763779526,
                    "duration": 0.6572584479166608
                },
                {
                    "name": "A#2",
                    "midi": 46,
                    "time": 431.61315500000836,
                    "velocity": 0.5354330708661418,
                    "duration": 0.6572584479166608
                },
                {
                    "name": "A3",
                    "midi": 57,
                    "time": 432.2905747500084,
                    "velocity": 0.47244094488188976,
                    "duration": 0.04838712499997655
                },
                {
                    "name": "A3",
                    "midi": 57,
                    "time": 432.3873490000083,
                    "velocity": 0.5039370078740157,
                    "duration": 0.09677425000000994
                },
                {
                    "name": "A3",
                    "midi": 57,
                    "time": 432.67767175000836,
                    "velocity": 0.4645669291338583,
                    "duration": 0.04838712499997655
                },
                {
                    "name": "G3",
                    "midi": 55,
                    "time": 432.7744460000083,
                    "velocity": 0.5039370078740157,
                    "duration": 0.09677425000000994
                },
                {
                    "name": "A3",
                    "midi": 57,
                    "time": 433.06476875000834,
                    "velocity": 0.47244094488188976,
                    "duration": 0.04838712499997655
                },
                {
                    "name": "F3",
                    "midi": 53,
                    "time": 433.1615430000083,
                    "velocity": 0.44881889763779526,
                    "duration": 0.7741939999999659
                },
                {
                    "name": "A#2",
                    "midi": 46,
                    "time": 433.1615430000083,
                    "velocity": 0.44881889763779526,
                    "duration": 0.7508068895833162
                },
                {
                    "name": "A#3",
                    "midi": 58,
                    "time": 433.1615430000083,
                    "velocity": 0.5354330708661418,
                    "duration": 0.7508068895833162
                },
                {
                    "name": "F3",
                    "midi": 53,
                    "time": 433.93573700000826,
                    "velocity": 0.44881889763779526,
                    "duration": 0.6572584479166608
                },
                {
                    "name": "A#2",
                    "midi": 46,
                    "time": 433.93573700000826,
                    "velocity": 0.44881889763779526,
                    "duration": 0.6572584479166608
                },
                {
                    "name": "A#3",
                    "midi": 58,
                    "time": 433.93573700000826,
                    "velocity": 0.5354330708661418,
                    "duration": 0.6572584479166608
                },
                {
                    "name": "D4",
                    "midi": 62,
                    "time": 434.6131567500083,
                    "velocity": 0.4015748031496063,
                    "duration": 0.04838712499997655
                },
                {
                    "name": "F4",
                    "midi": 65,
                    "time": 434.6131567500083,
                    "velocity": 0.47244094488188976,
                    "duration": 0.04838712499997655
                },
                {
                    "name": "D4",
                    "midi": 62,
                    "time": 434.7099310000082,
                    "velocity": 0.4251968503937008,
                    "duration": 0.09677425000000994
                },
                {
                    "name": "F4",
                    "midi": 65,
                    "time": 434.7099310000082,
                    "velocity": 0.5039370078740157,
                    "duration": 0.09677425000000994
                },
                {
                    "name": "D4",
                    "midi": 62,
                    "time": 435.00025375000826,
                    "velocity": 0.3937007874015748,
                    "duration": 0.04838712499997655
                },
                {
                    "name": "F4",
                    "midi": 65,
                    "time": 435.00025375000826,
                    "velocity": 0.4645669291338583,
                    "duration": 0.04838712499997655
                },
                {
                    "name": "C#4",
                    "midi": 61,
                    "time": 435.0970280000082,
                    "velocity": 0.4251968503937008,
                    "duration": 0.09677425000000994
                },
                {
                    "name": "E4",
                    "midi": 64,
                    "time": 435.0970280000082,
                    "velocity": 0.5039370078740157,
                    "duration": 0.09677425000000994
                },
                {
                    "name": "D4",
                    "midi": 62,
                    "time": 435.38735075000824,
                    "velocity": 0.4015748031496063,
                    "duration": 0.04838712499997655
                },
                {
                    "name": "F4",
                    "midi": 65,
                    "time": 435.38735075000824,
                    "velocity": 0.47244094488188976,
                    "duration": 0.04838712499997655
                },
                {
                    "name": "A#3",
                    "midi": 58,
                    "time": 435.4841250000082,
                    "velocity": 0.4251968503937008,
                    "duration": 0.09677425000000994
                },
                {
                    "name": "D4",
                    "midi": 62,
                    "time": 435.4841250000082,
                    "velocity": 0.5039370078740157,
                    "duration": 0.09677425000000994
                },
                {
                    "name": "A#3",
                    "midi": 58,
                    "time": 435.7744477500082,
                    "velocity": 0.3937007874015748,
                    "duration": 0.04838712499997655
                },
                {
                    "name": "D4",
                    "midi": 62,
                    "time": 435.7744477500082,
                    "velocity": 0.4645669291338583,
                    "duration": 0.04838712499997655
                },
                {
                    "name": "A3",
                    "midi": 57,
                    "time": 435.8712220000082,
                    "velocity": 0.4251968503937008,
                    "duration": 0.09677425000000994
                },
                {
                    "name": "C#4",
                    "midi": 61,
                    "time": 435.8712220000082,
                    "velocity": 0.5039370078740157,
                    "duration": 0.09677425000000994
                },
                {
                    "name": "A#3",
                    "midi": 58,
                    "time": 436.1615447500082,
                    "velocity": 0.4015748031496063,
                    "duration": 0.04838712499997655
                },
                {
                    "name": "D4",
                    "midi": 62,
                    "time": 436.1615447500082,
                    "velocity": 0.47244094488188976,
                    "duration": 0.04838712499997655
                },
                {
                    "name": "G3",
                    "midi": 55,
                    "time": 436.25831900000816,
                    "velocity": 0.4251968503937008,
                    "duration": 0.09677425000000994
                },
                {
                    "name": "A#3",
                    "midi": 58,
                    "time": 436.25831900000816,
                    "velocity": 0.5039370078740157,
                    "duration": 0.09677425000000994
                },
                {
                    "name": "A#3",
                    "midi": 58,
                    "time": 436.5486417500082,
                    "velocity": 0.4645669291338583,
                    "duration": 0.04838712499997655
                },
                {
                    "name": "G3",
                    "midi": 55,
                    "time": 436.5486417500082,
                    "velocity": 0.3937007874015748,
                    "duration": 0.04838712499997655
                },
                {
                    "name": "A3",
                    "midi": 57,
                    "time": 436.64541600000814,
                    "velocity": 0.5039370078740157,
                    "duration": 0.09677425000000994
                },
                {
                    "name": "F#3",
                    "midi": 54,
                    "time": 436.64541600000814,
                    "velocity": 0.4251968503937008,
                    "duration": 0.09677425000000994
                },
                {
                    "name": "A#3",
                    "midi": 58,
                    "time": 436.93573875000817,
                    "velocity": 0.47244094488188976,
                    "duration": 0.04838712499997655
                },
                {
                    "name": "G3",
                    "midi": 55,
                    "time": 436.93573875000817,
                    "velocity": 0.4015748031496063,
                    "duration": 0.04838712499997655
                },
                {
                    "name": "D#3",
                    "midi": 51,
                    "time": 437.0325130000081,
                    "velocity": 0.44881889763779526,
                    "duration": 0.7741939999999659
                },
                {
                    "name": "G3",
                    "midi": 55,
                    "time": 437.0325130000081,
                    "velocity": 0.5354330708661418,
                    "duration": 0.7508068895833162
                },
                {
                    "name": "D2",
                    "midi": 38,
                    "time": 437.8067070000081,
                    "velocity": 0.44881889763779526,
                    "duration": 0.7661294791666933
                },
                {
                    "name": "D3",
                    "midi": 50,
                    "time": 437.8067070000081,
                    "velocity": 0.5354330708661418,
                    "duration": 0.7661294791666933
                },
                {
                    "name": "C2",
                    "midi": 36,
                    "time": 438.5809010000081,
                    "velocity": 0.44881889763779526,
                    "duration": 0.7661294791666933
                },
                {
                    "name": "C3",
                    "midi": 48,
                    "time": 438.5809010000081,
                    "velocity": 0.5354330708661418,
                    "duration": 0.7661294791666933
                },
                {
                    "name": "F2",
                    "midi": 41,
                    "time": 439.35509500000813,
                    "velocity": 0.44881889763779526,
                    "duration": 0.09677425000000994
                },
                {
                    "name": "F3",
                    "midi": 53,
                    "time": 439.35509500000813,
                    "velocity": 0.5354330708661418,
                    "duration": 0.09677425000000994
                },
                {
                    "name": "F2",
                    "midi": 41,
                    "time": 439.7421920000081,
                    "velocity": 0.44881889763779526,
                    "duration": 0.09677425000000994
                },
                {
                    "name": "F3",
                    "midi": 53,
                    "time": 439.7421920000081,
                    "velocity": 0.5354330708661418,
                    "duration": 0.09677425000000994
                },
                {
                    "name": "A#1",
                    "midi": 34,
                    "time": 440.1292890000081,
                    "velocity": 0.44881889763779526,
                    "duration": 0.7661294791666933
                },
                {
                    "name": "A#2",
                    "midi": 46,
                    "time": 440.1292890000081,
                    "velocity": 0.5354330708661418,
                    "duration": 0.7661294791666933
                },
                {
                    "name": "A#2",
                    "midi": 46,
                    "time": 440.9034830000081,
                    "velocity": 0.44881889763779526,
                    "duration": 0.6572584479166608
                },
                {
                    "name": "F3",
                    "midi": 53,
                    "time": 440.9034830000081,
                    "velocity": 0.5354330708661418,
                    "duration": 0.6572584479166608
                },
                {
                    "name": "A#2",
                    "midi": 46,
                    "time": 442.4518710000081,
                    "velocity": 0.4330708661417323,
                    "duration": 0.19354850000001989
                },
                {
                    "name": "F3",
                    "midi": 53,
                    "time": 442.83896800000815,
                    "velocity": 0.33070866141732286,
                    "duration": 0.19354850000001989
                },
                {
                    "name": "D4",
                    "midi": 62,
                    "time": 443.2260650000082,
                    "velocity": 0.33070866141732286,
                    "duration": 0.19354850000001989
                },
                {
                    "name": "A#3",
                    "midi": 58,
                    "time": 443.2260650000082,
                    "velocity": 0.2755905511811024,
                    "duration": 0.19354850000001989
                },
                {
                    "name": "A#2",
                    "midi": 46,
                    "time": 443.61316200000823,
                    "velocity": 0.4330708661417323,
                    "duration": 0.19354850000001989
                },
                {
                    "name": "F3",
                    "midi": 53,
                    "time": 444.00025900000827,
                    "velocity": 0.33070866141732286,
                    "duration": 0.19354850000001989
                },
                {
                    "name": "A#3",
                    "midi": 58,
                    "time": 444.3873560000083,
                    "velocity": 0.2755905511811024,
                    "duration": 0.19354850000001989
                },
                {
                    "name": "D4",
                    "midi": 62,
                    "time": 444.3873560000083,
                    "velocity": 0.33070866141732286,
                    "duration": 0.19354850000001989
                },
                {
                    "name": "A2",
                    "midi": 45,
                    "time": 444.77445300000835,
                    "velocity": 0.4330708661417323,
                    "duration": 0.19354850000001989
                },
                {
                    "name": "F3",
                    "midi": 53,
                    "time": 445.1615500000084,
                    "velocity": 0.33070866141732286,
                    "duration": 0.19354850000001989
                },
                {
                    "name": "D#4",
                    "midi": 63,
                    "time": 445.54864700000843,
                    "velocity": 0.33070866141732286,
                    "duration": 0.19354850000001989
                },
                {
                    "name": "C4",
                    "midi": 60,
                    "time": 445.54864700000843,
                    "velocity": 0.2755905511811024,
                    "duration": 0.19354850000001989
                },
                {
                    "name": "A2",
                    "midi": 45,
                    "time": 445.93574400000847,
                    "velocity": 0.4330708661417323,
                    "duration": 0.19354850000001989
                },
                {
                    "name": "F3",
                    "midi": 53,
                    "time": 446.3228410000085,
                    "velocity": 0.33070866141732286,
                    "duration": 0.19354850000001989
                },
                {
                    "name": "C4",
                    "midi": 60,
                    "time": 446.70993800000855,
                    "velocity": 0.2755905511811024,
                    "duration": 0.19354850000001989
                },
                {
                    "name": "D#4",
                    "midi": 63,
                    "time": 446.70993800000855,
                    "velocity": 0.33070866141732286,
                    "duration": 0.19354850000001989
                },
                {
                    "name": "F2",
                    "midi": 41,
                    "time": 447.0970350000086,
                    "velocity": 0.4330708661417323,
                    "duration": 0.19354850000001989
                },
                {
                    "name": "F3",
                    "midi": 53,
                    "time": 447.48413200000863,
                    "velocity": 0.33070866141732286,
                    "duration": 0.19354850000001989
                },
                {
                    "name": "D#4",
                    "midi": 63,
                    "time": 447.87122900000867,
                    "velocity": 0.33070866141732286,
                    "duration": 0.19354850000001989
                },
                {
                    "name": "C4",
                    "midi": 60,
                    "time": 447.87122900000867,
                    "velocity": 0.2755905511811024,
                    "duration": 0.19354850000001989
                },
                {
                    "name": "F2",
                    "midi": 41,
                    "time": 448.2583260000087,
                    "velocity": 0.4330708661417323,
                    "duration": 0.19354850000001989
                },
                {
                    "name": "F3",
                    "midi": 53,
                    "time": 448.64542300000875,
                    "velocity": 0.33070866141732286,
                    "duration": 0.19354850000001989
                },
                {
                    "name": "C4",
                    "midi": 60,
                    "time": 449.0325200000088,
                    "velocity": 0.2755905511811024,
                    "duration": 0.19354850000001989
                },
                {
                    "name": "D#4",
                    "midi": 63,
                    "time": 449.0325200000088,
                    "velocity": 0.33070866141732286,
                    "duration": 0.19354850000001989
                },
                {
                    "name": "A#2",
                    "midi": 46,
                    "time": 449.4196170000088,
                    "velocity": 0.3858267716535433,
                    "duration": 0.19354850000001989
                },
                {
                    "name": "F3",
                    "midi": 53,
                    "time": 449.80671400000887,
                    "velocity": 0.29133858267716534,
                    "duration": 0.19354850000001989
                },
                {
                    "name": "D4",
                    "midi": 62,
                    "time": 450.1938110000089,
                    "velocity": 0.29133858267716534,
                    "duration": 0.19354850000001989
                },
                {
                    "name": "A#3",
                    "midi": 58,
                    "time": 450.1938110000089,
                    "velocity": 0.2440944881889764,
                    "duration": 0.19354850000001989
                },
                {
                    "name": "A#2",
                    "midi": 46,
                    "time": 450.58090800000895,
                    "velocity": 0.4330708661417323,
                    "duration": 0.19354850000001989
                },
                {
                    "name": "F3",
                    "midi": 53,
                    "time": 450.968005000009,
                    "velocity": 0.29133858267716534,
                    "duration": 0.19354850000001989
                },
                {
                    "name": "D4",
                    "midi": 62,
                    "time": 451.355102000009,
                    "velocity": 0.2992125984251969,
                    "duration": 0.19354850000001989
                },
                {
                    "name": "A#3",
                    "midi": 58,
                    "time": 451.355102000009,
                    "velocity": 0.25196850393700787,
                    "duration": 0.19354850000001989
                },
                {
                    "name": "G2",
                    "midi": 43,
                    "time": 451.74219900000907,
                    "velocity": 0.47244094488188976,
                    "duration": 0.19354850000001989
                },
                {
                    "name": "G3",
                    "midi": 55,
                    "time": 452.1292960000091,
                    "velocity": 0.36220472440944884,
                    "duration": 0.19354850000001989
                },
                {
                    "name": "D4",
                    "midi": 62,
                    "time": 452.51639300000915,
                    "velocity": 0.36220472440944884,
                    "duration": 0.19354850000001989
                },
                {
                    "name": "A#3",
                    "midi": 58,
                    "time": 452.51639300000915,
                    "velocity": 0.2992125984251969,
                    "duration": 0.19354850000001989
                },
                {
                    "name": "G2",
                    "midi": 43,
                    "time": 452.9034900000092,
                    "velocity": 0.4330708661417323,
                    "duration": 0.19354850000001989
                },
                {
                    "name": "G3",
                    "midi": 55,
                    "time": 453.2905870000092,
                    "velocity": 0.36220472440944884,
                    "duration": 0.19354850000001989
                },
                {
                    "name": "A#3",
                    "midi": 58,
                    "time": 453.67768400000926,
                    "velocity": 0.29133858267716534,
                    "duration": 0.19354850000001989
                },
                {
                    "name": "D4",
                    "midi": 62,
                    "time": 453.67768400000926,
                    "velocity": 0.3543307086614173,
                    "duration": 0.19354850000001989
                },
                {
                    "name": "A#2",
                    "midi": 46,
                    "time": 454.0647810000093,
                    "velocity": 0.4330708661417323,
                    "duration": 0.19354850000001989
                },
                {
                    "name": "F3",
                    "midi": 53,
                    "time": 454.45187800000934,
                    "velocity": 0.33070866141732286,
                    "duration": 0.19354850000001989
                },
                {
                    "name": "D4",
                    "midi": 62,
                    "time": 454.8389750000094,
                    "velocity": 0.33070866141732286,
                    "duration": 0.19354850000001989
                },
                {
                    "name": "A#3",
                    "midi": 58,
                    "time": 454.8389750000094,
                    "velocity": 0.2755905511811024,
                    "duration": 0.19354850000001989
                },
                {
                    "name": "A#2",
                    "midi": 46,
                    "time": 455.2260720000094,
                    "velocity": 0.4330708661417323,
                    "duration": 0.19354850000001989
                },
                {
                    "name": "F3",
                    "midi": 53,
                    "time": 455.61316900000946,
                    "velocity": 0.33070866141732286,
                    "duration": 0.19354850000001989
                },
                {
                    "name": "D4",
                    "midi": 62,
                    "time": 456.0002660000095,
                    "velocity": 0.33070866141732286,
                    "duration": 0.19354850000001989
                },
                {
                    "name": "A#3",
                    "midi": 58,
                    "time": 456.0002660000095,
                    "velocity": 0.2755905511811024,
                    "duration": 0.19354850000001989
                },
                {
                    "name": "F2",
                    "midi": 41,
                    "time": 456.38736300000954,
                    "velocity": 0.4330708661417323,
                    "duration": 0.19354850000001989
                },
                {
                    "name": "F3",
                    "midi": 53,
                    "time": 456.7744600000096,
                    "velocity": 0.33070866141732286,
                    "duration": 0.19354850000001989
                },
                {
                    "name": "C4",
                    "midi": 60,
                    "time": 457.1615570000096,
                    "velocity": 0.25984251968503935,
                    "duration": 0.19354850000001989
                },
                {
                    "name": "D#4",
                    "midi": 63,
                    "time": 457.1615570000096,
                    "velocity": 0.30708661417322836,
                    "duration": 0.19354850000001989
                },
                {
                    "name": "F2",
                    "midi": 41,
                    "time": 457.54865400000966,
                    "velocity": 0.4094488188976378,
                    "duration": 0.19354850000001989
                },
                {
                    "name": "F3",
                    "midi": 53,
                    "time": 457.9357510000097,
                    "velocity": 0.30708661417322836,
                    "duration": 0.19354850000001989
                },
                {
                    "name": "D#4",
                    "midi": 63,
                    "time": 458.32284800000974,
                    "velocity": 0.30708661417322836,
                    "duration": 0.19354850000001989
                },
                {
                    "name": "C4",
                    "midi": 60,
                    "time": 458.32284800000974,
                    "velocity": 0.25984251968503935,
                    "duration": 0.19354850000001989
                },
                {
                    "name": "A#2",
                    "midi": 46,
                    "time": 458.7099450000098,
                    "velocity": 0.3464566929133858,
                    "duration": 0.19354850000001989
                },
                {
                    "name": "D3",
                    "midi": 50,
                    "time": 459.0970420000098,
                    "velocity": 0.25984251968503935,
                    "duration": 0.19354850000001989
                },
                {
                    "name": "A#3",
                    "midi": 58,
                    "time": 459.48413900000986,
                    "velocity": 0.25984251968503935,
                    "duration": 0.19354850000001989
                },
                {
                    "name": "F3",
                    "midi": 53,
                    "time": 459.48413900000986,
                    "velocity": 0.2125984251968504,
                    "duration": 0.19354850000001989
                },
                {
                    "name": "F2",
                    "midi": 41,
                    "time": 459.8712360000099,
                    "velocity": 0.3858267716535433,
                    "duration": 0.19354850000001989
                },
                {
                    "name": "D#3",
                    "midi": 51,
                    "time": 460.25833300000994,
                    "velocity": 0.2755905511811024,
                    "duration": 0.19354850000001989
                },
                {
                    "name": "A3",
                    "midi": 57,
                    "time": 460.64543000001,
                    "velocity": 0.2755905511811024,
                    "duration": 0.19354850000001989
                },
                {
                    "name": "F3",
                    "midi": 53,
                    "time": 460.64543000001,
                    "velocity": 0.2283464566929134,
                    "duration": 0.19354850000001989
                },
                {
                    "name": "A#2",
                    "midi": 46,
                    "time": 461.03252700001,
                    "velocity": 0.3228346456692913,
                    "duration": 0.19354850000001989
                },
                {
                    "name": "D3",
                    "midi": 50,
                    "time": 461.41962400001006,
                    "velocity": 0.2440944881889764,
                    "duration": 0.19354850000001989
                },
                {
                    "name": "A#3",
                    "midi": 58,
                    "time": 461.8067210000101,
                    "velocity": 0.2440944881889764,
                    "duration": 0.19354850000001989
                },
                {
                    "name": "F3",
                    "midi": 53,
                    "time": 461.8067210000101,
                    "velocity": 0.1968503937007874,
                    "duration": 0.19354850000001989
                },
                {
                    "name": "F2",
                    "midi": 41,
                    "time": 462.19381800001014,
                    "velocity": 0.36220472440944884,
                    "duration": 0.19354850000001989
                },
                {
                    "name": "D#3",
                    "midi": 51,
                    "time": 462.5809150000102,
                    "velocity": 0.2440944881889764,
                    "duration": 0.19354850000001989
                },
                {
                    "name": "A3",
                    "midi": 57,
                    "time": 462.9680120000102,
                    "velocity": 0.23622047244094488,
                    "duration": 0.19354850000001989
                },
                {
                    "name": "F3",
                    "midi": 53,
                    "time": 462.9680120000102,
                    "velocity": 0.1968503937007874,
                    "duration": 0.19354850000001989
                },
                {
                    "name": "A#2",
                    "midi": 46,
                    "time": 463.35510900001026,
                    "velocity": 0.2677165354330709,
                    "duration": 0.28225822916664356
                },
                {
                    "name": "A#1",
                    "midi": 34,
                    "time": 463.64543175001023,
                    "velocity": 0.47244094488188976,
                    "duration": 0.04838712499997655
                },
                {
                    "name": "A#1",
                    "midi": 34,
                    "time": 463.7422060000102,
                    "velocity": 0.5039370078740157,
                    "duration": 0.09677425000000994
                },
                {
                    "name": "A#1",
                    "midi": 34,
                    "time": 464.0325287500102,
                    "velocity": 0.4645669291338583,
                    "duration": 0.04838712499997655
                },
                {
                    "name": "A#1",
                    "midi": 34,
                    "time": 464.12930300001017,
                    "velocity": 0.5039370078740157,
                    "duration": 0.09677425000000994
                },
                {
                    "name": "C2",
                    "midi": 36,
                    "time": 464.4196257500102,
                    "velocity": 0.47244094488188976,
                    "duration": 0.04838712499997655
                },
                {
                    "name": "D2",
                    "midi": 38,
                    "time": 464.51640000001015,
                    "velocity": 0.5275590551181102,
                    "duration": 0.28225822916664356
                },
                {
                    "name": "D2",
                    "midi": 38,
                    "time": 464.8067227500101,
                    "velocity": 0.47244094488188976,
                    "duration": 0.04838712499997655
                },
                {
                    "name": "D2",
                    "midi": 38,
                    "time": 464.9034970000101,
                    "velocity": 0.5039370078740157,
                    "duration": 0.09677425000000994
                },
                {
                    "name": "D2",
                    "midi": 38,
                    "time": 465.1938197500101,
                    "velocity": 0.4645669291338583,
                    "duration": 0.04838712499997655
                },
                {
                    "name": "D2",
                    "midi": 38,
                    "time": 465.29059400001006,
                    "velocity": 0.5039370078740157,
                    "duration": 0.09677425000000994
                },
                {
                    "name": "E2",
                    "midi": 40,
                    "time": 465.5809167500101,
                    "velocity": 0.47244094488188976,
                    "duration": 0.04838712499997655
                },
                {
                    "name": "F2",
                    "midi": 41,
                    "time": 465.67769100001004,
                    "velocity": 0.5748031496062992,
                    "duration": 0.28225822916664356
                },
                {
                    "name": "F2",
                    "midi": 41,
                    "time": 465.96801375001,
                    "velocity": 0.5196850393700787,
                    "duration": 0.04838712499997655
                },
                {
                    "name": "F2",
                    "midi": 41,
                    "time": 466.06478800000997,
                    "velocity": 0.5511811023622047,
                    "duration": 0.09677425000000994
                },
                {
                    "name": "F2",
                    "midi": 41,
                    "time": 466.35511075001,
                    "velocity": 0.5039370078740157,
                    "duration": 0.04838712499997655
                },
                {
                    "name": "F2",
                    "midi": 41,
                    "time": 466.45188500000995,
                    "velocity": 0.5511811023622047,
                    "duration": 0.09677425000000994
                },
                {
                    "name": "G2",
                    "midi": 43,
                    "time": 466.74220775001,
                    "velocity": 0.5196850393700787,
                    "duration": 0.04838712499997655
                },
                {
                    "name": "A2",
                    "midi": 45,
                    "time": 466.83898200000993,
                    "velocity": 0.6299212598425197,
                    "duration": 0.28225822916664356
                },
                {
                    "name": "A1",
                    "midi": 33,
                    "time": 467.1293047500099,
                    "velocity": 0.4094488188976378,
                    "duration": 0.04838712499997655
                },
                {
                    "name": "A2",
                    "midi": 45,
                    "time": 467.1293047500099,
                    "velocity": 0.48031496062992124,
                    "duration": 0.04838712499997655
                },
                {
                    "name": "A1",
                    "midi": 33,
                    "time": 467.22607900000986,
                    "velocity": 0.4330708661417323,
                    "duration": 0.09677425000000994
                },
                {
                    "name": "A2",
                    "midi": 45,
                    "time": 467.22607900000986,
                    "velocity": 0.5118110236220472,
                    "duration": 0.09677425000000994
                },
                {
                    "name": "B1",
                    "midi": 35,
                    "time": 467.5164017500099,
                    "velocity": 0.4094488188976378,
                    "duration": 0.04838712499997655
                },
                {
                    "name": "B2",
                    "midi": 47,
                    "time": 467.5164017500099,
                    "velocity": 0.48031496062992124,
                    "duration": 0.04838712499997655
                },
                {
                    "name": "C#2",
                    "midi": 37,
                    "time": 467.61317600000984,
                    "velocity": 0.44881889763779526,
                    "duration": 0.09677425000000994
                },
                {
                    "name": "C#3",
                    "midi": 49,
                    "time": 467.61317600000984,
                    "velocity": 0.5275590551181102,
                    "duration": 0.09677425000000994
                },
                {
                    "name": "D2",
                    "midi": 38,
                    "time": 467.9034987500099,
                    "velocity": 0.4330708661417323,
                    "duration": 0.04838712499997655
                },
                {
                    "name": "D3",
                    "midi": 50,
                    "time": 467.9034987500099,
                    "velocity": 0.5118110236220472,
                    "duration": 0.04838712499997655
                },
                {
                    "name": "A2",
                    "midi": 45,
                    "time": 468.0002730000098,
                    "velocity": 0.4566929133858268,
                    "duration": 0.7741939999999659
                },
                {
                    "name": "E2",
                    "midi": 40,
                    "time": 468.0002730000098,
                    "velocity": 0.4566929133858268,
                    "duration": 0.7508068895833162
                },
                {
                    "name": "C#3",
                    "midi": 49,
                    "time": 468.0002730000098,
                    "velocity": 0.4566929133858268,
                    "duration": 0.7508068895833162
                },
                {
                    "name": "E3",
                    "midi": 52,
                    "time": 468.0002730000098,
                    "velocity": 0.5511811023622047,
                    "duration": 0.7508068895833162
                },
                {
                    "name": "A2",
                    "midi": 45,
                    "time": 468.7744670000098,
                    "velocity": 0.4566929133858268,
                    "duration": 0.6572584479166608
                },
                {
                    "name": "E2",
                    "midi": 40,
                    "time": 468.7744670000098,
                    "velocity": 0.4566929133858268,
                    "duration": 0.6572584479166608
                },
                {
                    "name": "C#3",
                    "midi": 49,
                    "time": 468.7744670000098,
                    "velocity": 0.4566929133858268,
                    "duration": 0.6572584479166608
                },
                {
                    "name": "E3",
                    "midi": 52,
                    "time": 468.7744670000098,
                    "velocity": 0.5511811023622047,
                    "duration": 0.6572584479166608
                },
                {
                    "name": "E2",
                    "midi": 40,
                    "time": 469.4518867500098,
                    "velocity": 0.4409448818897638,
                    "duration": 0.09677425000000994
                },
                {
                    "name": "E3",
                    "midi": 52,
                    "time": 469.4518867500098,
                    "velocity": 0.5196850393700787,
                    "duration": 0.09677425000000994
                },
                {
                    "name": "E2",
                    "midi": 40,
                    "time": 469.5486610000098,
                    "velocity": 0.4566929133858268,
                    "duration": 0.26774209166666196
                },
                {
                    "name": "E3",
                    "midi": 52,
                    "time": 469.5486610000098,
                    "velocity": 0.5433070866141733,
                    "duration": 0.26774209166666196
                },
                {
                    "name": "D2",
                    "midi": 38,
                    "time": 469.8389837500098,
                    "velocity": 0.4330708661417323,
                    "duration": 0.09677425000000994
                },
                {
                    "name": "D3",
                    "midi": 50,
                    "time": 469.8389837500098,
                    "velocity": 0.5118110236220472,
                    "duration": 0.09677425000000994
                },
                {
                    "name": "C#2",
                    "midi": 37,
                    "time": 469.9357580000098,
                    "velocity": 0.47244094488188976,
                    "duration": 0.26774209166666196
                },
                {
                    "name": "C#3",
                    "midi": 49,
                    "time": 469.9357580000098,
                    "velocity": 0.5669291338582677,
                    "duration": 0.26774209166666196
                },
                {
                    "name": "B1",
                    "midi": 35,
                    "time": 470.22608075000977,
                    "velocity": 0.4881889763779528,
                    "duration": 0.09677425000000994
                },
                {
                    "name": "B2",
                    "midi": 47,
                    "time": 470.22608075000977,
                    "velocity": 0.5826771653543307,
                    "duration": 0.09677425000000994
                },
                {
                    "name": "A1",
                    "midi": 33,
                    "time": 470.3228550000098,
                    "velocity": 0.5118110236220472,
                    "duration": 0.7508068895833162
                },
                {
                    "name": "A2",
                    "midi": 45,
                    "time": 470.3228550000098,
                    "velocity": 0.5826771653543307,
                    "duration": 0.7508068895833162
                },
                {
                    "name": "E2",
                    "midi": 40,
                    "time": 471.09704900000975,
                    "velocity": 0.5118110236220472,
                    "duration": 0.6612907083333539
                },
                {
                    "name": "A1",
                    "midi": 33,
                    "time": 471.09704900000975,
                    "velocity": 0.5118110236220472,
                    "duration": 0.6612907083333539
                },
                {
                    "name": "A2",
                    "midi": 45,
                    "time": 471.09704900000975,
                    "velocity": 0.5826771653543307,
                    "duration": 0.6612907083333539
                },
                {
                    "name": "A2",
                    "midi": 45,
                    "time": 471.77446875000976,
                    "velocity": 0.3779527559055118,
                    "duration": 0.04838712499997655
                },
                {
                    "name": "B2",
                    "midi": 47,
                    "time": 471.8712430000097,
                    "velocity": 0.4015748031496063,
                    "duration": 0.290322749999973
                },
                {
                    "name": "A2",
                    "midi": 45,
                    "time": 472.1615657500097,
                    "velocity": 0.3700787401574803,
                    "duration": 0.04838712499997655
                },
                {
                    "name": "B2",
                    "midi": 47,
                    "time": 472.25834000000964,
                    "velocity": 0.4015748031496063,
                    "duration": 0.290322749999973
                },
                {
                    "name": "C#3",
                    "midi": 49,
                    "time": 472.5486627500096,
                    "velocity": 0.3779527559055118,
                    "duration": 0.04838712499997655
                },
                {
                    "name": "D3",
                    "midi": 50,
                    "time": 472.64543700000957,
                    "velocity": 0.4251968503937008,
                    "duration": 0.7508068895833162
                },
                {
                    "name": "D3",
                    "midi": 50,
                    "time": 473.41963100000953,
                    "velocity": 0.3543307086614173,
                    "duration": 0.6572584479166608
                },
                {
                    "name": "F#3",
                    "midi": 54,
                    "time": 473.41963100000953,
                    "velocity": 0.4251968503937008,
                    "duration": 0.6572584479166608
                },
                {
                    "name": "D3",
                    "midi": 50,
                    "time": 474.09705075000954,
                    "velocity": 0.3464566929133858,
                    "duration": 0.08870972916668052
                },
                {
                    "name": "D3",
                    "midi": 50,
                    "time": 474.19382500000955,
                    "velocity": 0.3937007874015748,
                    "duration": 0.09677425000000994
                },
                {
                    "name": "B2",
                    "midi": 47,
                    "time": 474.19382500000955,
                    "velocity": 0.33070866141732286,
                    "duration": 0.09677425000000994
                },
                {
                    "name": "D3",
                    "midi": 50,
                    "time": 474.4841477500096,
                    "velocity": 0.3700787401574803,
                    "duration": 0.0967742499999531
                },
                {
                    "name": "B2",
                    "midi": 47,
                    "time": 474.4841477500096,
                    "velocity": 0.31496062992125984,
                    "duration": 0.0967742499999531
                },
                {
                    "name": "A#2",
                    "midi": 46,
                    "time": 474.57608328750956,
                    "velocity": 0.3228346456692913,
                    "duration": 0.0967742499999531
                },
                {
                    "name": "D3",
                    "midi": 50,
                    "time": 474.5857607125095,
                    "velocity": 0.3858267716535433,
                    "duration": 0.09677425000000994
                },
                {
                    "name": "A#2",
                    "midi": 46,
                    "time": 474.8712447500095,
                    "velocity": 0.31496062992125984,
                    "duration": 0.09677425000000994
                },
                {
                    "name": "D3",
                    "midi": 50,
                    "time": 474.8712447500095,
                    "velocity": 0.3700787401574803,
                    "duration": 0.09677425000000994
                },
                {
                    "name": "A2",
                    "midi": 45,
                    "time": 474.9680190000095,
                    "velocity": 0.3543307086614173,
                    "duration": 0.7508068895833162
                },
                {
                    "name": "E3",
                    "midi": 52,
                    "time": 474.9680190000095,
                    "velocity": 0.4251968503937008,
                    "duration": 0.7508068895833162
                },
                {
                    "name": "A2",
                    "midi": 45,
                    "time": 475.7422130000095,
                    "velocity": 0.3543307086614173,
                    "duration": 0.6572584479166608
                },
                {
                    "name": "A3",
                    "midi": 57,
                    "time": 475.7422130000095,
                    "velocity": 0.4251968503937008,
                    "duration": 0.6572584479166608
                },
                {
                    "name": "C#3",
                    "midi": 49,
                    "time": 476.4196327500095,
                    "velocity": 0.2755905511811024,
                    "duration": 0.08870972916668052
                },
                {
                    "name": "A3",
                    "midi": 57,
                    "time": 476.4196327500095,
                    "velocity": 0.3464566929133858,
                    "duration": 0.08870972916668052
                },
                {
                    "name": "A3",
                    "midi": 57,
                    "time": 476.5164070000095,
                    "velocity": 0.3937007874015748,
                    "duration": 0.09677425000000994
                },
                {
                    "name": "C#3",
                    "midi": 49,
                    "time": 476.5164070000095,
                    "velocity": 0.33070866141732286,
                    "duration": 0.09677425000000994
                },
                {
                    "name": "A3",
                    "midi": 57,
                    "time": 476.80672975000954,
                    "velocity": 0.3700787401574803,
                    "duration": 0.09677425000000994
                },
                {
                    "name": "C#3",
                    "midi": 49,
                    "time": 476.80672975000954,
                    "velocity": 0.31496062992125984,
                    "duration": 0.09677425000000994
                },
                {
                    "name": "C#3",
                    "midi": 49,
                    "time": 476.90350400000955,
                    "velocity": 0.3228346456692913,
                    "duration": 0.09677425000000994
                },
                {
                    "name": "A3",
                    "midi": 57,
                    "time": 476.90350400000955,
                    "velocity": 0.3858267716535433,
                    "duration": 0.09677425000000994
                },
                {
                    "name": "C#3",
                    "midi": 49,
                    "time": 477.1938267500096,
                    "velocity": 0.31496062992125984,
                    "duration": 0.09677425000000994
                },
                {
                    "name": "A3",
                    "midi": 57,
                    "time": 477.1938267500096,
                    "velocity": 0.3700787401574803,
                    "duration": 0.09677425000000994
                },
                {
                    "name": "F#3",
                    "midi": 54,
                    "time": 477.2906010000096,
                    "velocity": 0.3543307086614173,
                    "duration": 0.7741939999999659
                },
                {
                    "name": "B2",
                    "midi": 47,
                    "time": 477.2906010000096,
                    "velocity": 0.3543307086614173,
                    "duration": 0.7508068895833162
                },
                {
                    "name": "B3",
                    "midi": 59,
                    "time": 477.2906010000096,
                    "velocity": 0.4251968503937008,
                    "duration": 0.7508068895833162
                },
                {
                    "name": "D3",
                    "midi": 50,
                    "time": 478.06479500000955,
                    "velocity": 0.3543307086614173,
                    "duration": 0.6572584479166608
                },
                {
                    "name": "B3",
                    "midi": 59,
                    "time": 478.06479500000955,
                    "velocity": 0.4251968503937008,
                    "duration": 0.6572584479166608
                },
                {
                    "name": "E3",
                    "midi": 52,
                    "time": 478.74221475000957,
                    "velocity": 0.2755905511811024,
                    "duration": 0.08870972916668052
                },
                {
                    "name": "B3",
                    "midi": 59,
                    "time": 478.74221475000957,
                    "velocity": 0.3464566929133858,
                    "duration": 0.08870972916668052
                },
                {
                    "name": "B3",
                    "midi": 59,
                    "time": 478.8389890000096,
                    "velocity": 0.3937007874015748,
                    "duration": 0.09677425000000994
                },
                {
                    "name": "E3",
                    "midi": 52,
                    "time": 478.8389890000096,
                    "velocity": 0.33070866141732286,
                    "duration": 0.09677425000000994
                },
                {
                    "name": "B3",
                    "midi": 59,
                    "time": 479.1293117500096,
                    "velocity": 0.3700787401574803,
                    "duration": 0.09677425000000994
                },
                {
                    "name": "E3",
                    "midi": 52,
                    "time": 479.1293117500096,
                    "velocity": 0.31496062992125984,
                    "duration": 0.09677425000000994
                },
                {
                    "name": "E3",
                    "midi": 52,
                    "time": 479.2260860000096,
                    "velocity": 0.3228346456692913,
                    "duration": 0.09677425000000994
                },
                {
                    "name": "B3",
                    "midi": 59,
                    "time": 479.2260860000096,
                    "velocity": 0.3858267716535433,
                    "duration": 0.09677425000000994
                },
                {
                    "name": "E3",
                    "midi": 52,
                    "time": 479.51640875000965,
                    "velocity": 0.31496062992125984,
                    "duration": 0.09677425000000994
                },
                {
                    "name": "B3",
                    "midi": 59,
                    "time": 479.51640875000965,
                    "velocity": 0.3700787401574803,
                    "duration": 0.09677425000000994
                },
                {
                    "name": "E3",
                    "midi": 52,
                    "time": 479.61318300000966,
                    "velocity": 0.3543307086614173,
                    "duration": 0.7741939999999659
                },
                {
                    "name": "A2",
                    "midi": 45,
                    "time": 479.61318300000966,
                    "velocity": 0.3543307086614173,
                    "duration": 0.7508068895833162
                },
                {
                    "name": "A3",
                    "midi": 57,
                    "time": 479.61318300000966,
                    "velocity": 0.4251968503937008,
                    "duration": 0.7508068895833162
                },
                {
                    "name": "A2",
                    "midi": 45,
                    "time": 480.3873770000096,
                    "velocity": 0.3543307086614173,
                    "duration": 0.7661294791666933
                },
                {
                    "name": "E3",
                    "midi": 52,
                    "time": 480.3873770000096,
                    "velocity": 0.3543307086614173,
                    "duration": 0.7661294791666933
                },
                {
                    "name": "A3",
                    "midi": 57,
                    "time": 480.3873770000096,
                    "velocity": 0.4251968503937008,
                    "duration": 0.7661294791666933
                },
                {
                    "name": "D3",
                    "midi": 50,
                    "time": 481.16157100000964,
                    "velocity": 0.3543307086614173,
                    "duration": 0.3677421500000264
                },
                {
                    "name": "C#3",
                    "midi": 49,
                    "time": 481.5486680000097,
                    "velocity": 0.29133858267716534,
                    "duration": 0.37580667083335584
                },
                {
                    "name": "B2",
                    "midi": 47,
                    "time": 481.9357650000097,
                    "velocity": 0.5275590551181102,
                    "duration": 0.12903233333332764
                },
                {
                    "name": "A#2",
                    "midi": 46,
                    "time": 482.06479733334305,
                    "velocity": 0.44881889763779526,
                    "duration": 0.12903233333332764
                },
                {
                    "name": "B2",
                    "midi": 47,
                    "time": 482.1938296666764,
                    "velocity": 0.44881889763779526,
                    "duration": 0.12903233333332764
                },
                {
                    "name": "G2",
                    "midi": 43,
                    "time": 482.3228620000097,
                    "velocity": 0.5354330708661418,
                    "duration": 0.12903233333332764
                },
                {
                    "name": "F#2",
                    "midi": 42,
                    "time": 482.45189433334303,
                    "velocity": 0.48031496062992124,
                    "duration": 0.12903233333332764
                },
                {
                    "name": "G2",
                    "midi": 43,
                    "time": 482.58092666667636,
                    "velocity": 0.5118110236220472,
                    "duration": 0.12903233333332764
                },
                {
                    "name": "E2",
                    "midi": 40,
                    "time": 482.7099590000097,
                    "velocity": 0.5826771653543307,
                    "duration": 0.6774197500000128
                },
                {
                    "name": "F#2",
                    "midi": 42,
                    "time": 483.3873787500097,
                    "velocity": 0.48031496062992124,
                    "duration": 0.09677425000000994
                },
                {
                    "name": "G2",
                    "midi": 43,
                    "time": 483.4841530000097,
                    "velocity": 0.5433070866141733,
                    "duration": 0.290322749999973
                },
                {
                    "name": "A2",
                    "midi": 45,
                    "time": 483.7744757500097,
                    "velocity": 0.4881889763779528,
                    "duration": 0.09677425000000994
                },
                {
                    "name": "B2",
                    "midi": 47,
                    "time": 483.8712500000097,
                    "velocity": 0.5511811023622047,
                    "duration": 0.290322749999973
                },
                {
                    "name": "C#3",
                    "midi": 49,
                    "time": 484.16157275000967,
                    "velocity": 0.4881889763779528,
                    "duration": 0.09677425000000994
                },
                {
                    "name": "A2",
                    "midi": 45,
                    "time": 484.2583470000097,
                    "velocity": 0.5433070866141733,
                    "duration": 0.12903233333332764
                },
                {
                    "name": "G#2",
                    "midi": 44,
                    "time": 484.387379333343,
                    "velocity": 0.49606299212598426,
                    "duration": 0.12903233333332764
                },
                {
                    "name": "A2",
                    "midi": 45,
                    "time": 484.51641166667633,
                    "velocity": 0.4645669291338583,
                    "duration": 0.12903233333332764
                },
                {
                    "name": "F#2",
                    "midi": 42,
                    "time": 484.64544400000966,
                    "velocity": 0.5354330708661418,
                    "duration": 0.12903233333332764
                },
                {
                    "name": "F2",
                    "midi": 41,
                    "time": 484.774476333343,
                    "velocity": 0.5118110236220472,
                    "duration": 0.12903233333332764
                },
                {
                    "name": "F#2",
                    "midi": 42,
                    "time": 484.9035086666763,
                    "velocity": 0.5433070866141733,
                    "duration": 0.12903233333332764
                },
                {
                    "name": "D2",
                    "midi": 38,
                    "time": 485.03254100000964,
                    "velocity": 0.5826771653543307,
                    "duration": 0.6774197500000128
                },
                {
                    "name": "E2",
                    "midi": 40,
                    "time": 485.70996075000966,
                    "velocity": 0.48031496062992124,
                    "duration": 0.09677425000000994
                },
                {
                    "name": "F#2",
                    "midi": 42,
                    "time": 485.80673500000967,
                    "velocity": 0.5433070866141733,
                    "duration": 0.290322749999973
                },
                {
                    "name": "G2",
                    "midi": 43,
                    "time": 486.09705775000964,
                    "velocity": 0.4881889763779528,
                    "duration": 0.09677425000000994
                },
                {
                    "name": "A2",
                    "midi": 45,
                    "time": 486.19383200000965,
                    "velocity": 0.5511811023622047,
                    "duration": 0.290322749999973
                },
                {
                    "name": "B2",
                    "midi": 47,
                    "time": 486.4841547500096,
                    "velocity": 0.4881889763779528,
                    "duration": 0.09677425000000994
                },
                {
                    "name": "G2",
                    "midi": 43,
                    "time": 486.58092900000963,
                    "velocity": 0.5511811023622047,
                    "duration": 0.12903233333332764
                },
                {
                    "name": "F#2",
                    "midi": 42,
                    "time": 486.70996133334296,
                    "velocity": 0.4566929133858268,
                    "duration": 0.12903233333332764
                },
                {
                    "name": "G2",
                    "midi": 43,
                    "time": 486.8389936666763,
                    "velocity": 0.4566929133858268,
                    "duration": 0.12903233333332764
                },
                {
                    "name": "E2",
                    "midi": 40,
                    "time": 486.9680260000096,
                    "velocity": 0.49606299212598426,
                    "duration": 0.12903233333332764
                },
                {
                    "name": "D#2",
                    "midi": 39,
                    "time": 487.09705833334294,
                    "velocity": 0.5118110236220472,
                    "duration": 0.12903233333332764
                },
                {
                    "name": "E2",
                    "midi": 40,
                    "time": 487.22609066667627,
                    "velocity": 0.5354330708661418,
                    "duration": 0.12903233333332764
                },
                {
                    "name": "C#2",
                    "midi": 37,
                    "time": 487.3551230000096,
                    "velocity": 0.5669291338582677,
                    "duration": 0.6774197500000128
                },
                {
                    "name": "D2",
                    "midi": 38,
                    "time": 488.0325427500096,
                    "velocity": 0.4645669291338583,
                    "duration": 0.09677425000000994
                },
                {
                    "name": "E2",
                    "midi": 40,
                    "time": 488.1293170000096,
                    "velocity": 0.5748031496062992,
                    "duration": 0.290322749999973
                },
                {
                    "name": "C#2",
                    "midi": 37,
                    "time": 488.4196397500096,
                    "velocity": 0.44881889763779526,
                    "duration": 0.09677425000000994
                },
                {
                    "name": "F2",
                    "midi": 41,
                    "time": 488.5164140000096,
                    "velocity": 0.5590551181102362,
                    "duration": 0.290322749999973
                },
                {
                    "name": "C#2",
                    "midi": 37,
                    "time": 488.8067367500096,
                    "velocity": 0.4566929133858268,
                    "duration": 0.09677425000000994
                },
                {
                    "name": "F#2",
                    "midi": 42,
                    "time": 488.9035110000096,
                    "velocity": 0.5590551181102362,
                    "duration": 0.7508068895833162
                },
                {
                    "name": "F#2",
                    "midi": 42,
                    "time": 489.67770500000955,
                    "velocity": 0.5354330708661418,
                    "duration": 0.6572584479166608
                },
                {
                    "name": "A#2",
                    "midi": 46,
                    "time": 490.35512475000957,
                    "velocity": 0.48031496062992124,
                    "duration": 0.04838712499997655
                },
                {
                    "name": "B2",
                    "midi": 47,
                    "time": 490.4518990000095,
                    "velocity": 0.5118110236220472,
                    "duration": 0.09677425000000994
                },
                {
                    "name": "A#2",
                    "midi": 46,
                    "time": 490.74222175000955,
                    "velocity": 0.48031496062992124,
                    "duration": 0.04838712499997655
                },
                {
                    "name": "B2",
                    "midi": 47,
                    "time": 490.8389960000095,
                    "velocity": 0.5275590551181102,
                    "duration": 0.09677425000000994
                },
                {
                    "name": "A#2",
                    "midi": 46,
                    "time": 491.12931875000953,
                    "velocity": 0.5118110236220472,
                    "duration": 0.04838712499997655
                },
                {
                    "name": "G#2",
                    "midi": 44,
                    "time": 491.2260930000095,
                    "velocity": 0.4566929133858268,
                    "duration": 0.7741939999999659
                },
                {
                    "name": "C#3",
                    "midi": 49,
                    "time": 491.2260930000095,
                    "velocity": 0.5511811023622047,
                    "duration": 0.7508068895833162
                },
                {
                    "name": "G#2",
                    "midi": 44,
                    "time": 492.00028700000945,
                    "velocity": 0.4566929133858268,
                    "duration": 0.6572584479166608
                },
                {
                    "name": "C#3",
                    "midi": 49,
                    "time": 492.00028700000945,
                    "velocity": 0.5511811023622047,
                    "duration": 0.6572584479166608
                },
                {
                    "name": "G#2",
                    "midi": 44,
                    "time": 492.67770675000946,
                    "velocity": 0.4409448818897638,
                    "duration": 0.09677425000000994
                },
                {
                    "name": "C#3",
                    "midi": 49,
                    "time": 492.67770675000946,
                    "velocity": 0.5196850393700787,
                    "duration": 0.09677425000000994
                },
                {
                    "name": "A#2",
                    "midi": 46,
                    "time": 492.7744810000095,
                    "velocity": 0.4566929133858268,
                    "duration": 0.26774209166666196
                },
                {
                    "name": "C#3",
                    "midi": 49,
                    "time": 492.7744810000095,
                    "velocity": 0.5433070866141733,
                    "duration": 0.26774209166666196
                },
                {
                    "name": "G#2",
                    "midi": 44,
                    "time": 493.06480375000945,
                    "velocity": 0.4330708661417323,
                    "duration": 0.09677425000000994
                },
                {
                    "name": "C#3",
                    "midi": 49,
                    "time": 493.06480375000945,
                    "velocity": 0.5118110236220472,
                    "duration": 0.09677425000000994
                },
                {
                    "name": "A#2",
                    "midi": 46,
                    "time": 493.16157800000946,
                    "velocity": 0.47244094488188976,
                    "duration": 0.26774209166666196
                },
                {
                    "name": "C#3",
                    "midi": 49,
                    "time": 493.16157800000946,
                    "velocity": 0.5669291338582677,
                    "duration": 0.26774209166666196
                },
                {
                    "name": "G#2",
                    "midi": 44,
                    "time": 493.45190075000943,
                    "velocity": 0.4881889763779528,
                    "duration": 0.09677425000000994
                },
                {
                    "name": "C#3",
                    "midi": 49,
                    "time": 493.45190075000943,
                    "velocity": 0.5826771653543307,
                    "duration": 0.09677425000000994
                },
                {
                    "name": "F#2",
                    "midi": 42,
                    "time": 493.54867500000944,
                    "velocity": 0.5118110236220472,
                    "duration": 0.7508068895833162
                },
                {
                    "name": "C#3",
                    "midi": 49,
                    "time": 493.54867500000944,
                    "velocity": 0.5826771653543307,
                    "duration": 0.7508068895833162
                },
                {
                    "name": "F#2",
                    "midi": 42,
                    "time": 494.3228690000094,
                    "velocity": 0.5118110236220472,
                    "duration": 0.6612907083333539
                },
                {
                    "name": "C#3",
                    "midi": 49,
                    "time": 494.3228690000094,
                    "velocity": 0.5826771653543307,
                    "duration": 0.6612907083333539
                },
                {
                    "name": "A3",
                    "midi": 57,
                    "time": 495.0002887500094,
                    "velocity": 0.3779527559055118,
                    "duration": 0.04838712499997655
                },
                {
                    "name": "A3",
                    "midi": 57,
                    "time": 495.09706300000937,
                    "velocity": 0.4015748031496063,
                    "duration": 0.28145177708330493
                },
                {
                    "name": "A3",
                    "midi": 57,
                    "time": 495.38738575000934,
                    "velocity": 0.3700787401574803,
                    "duration": 0.04838712499997655
                },
                {
                    "name": "B3",
                    "midi": 59,
                    "time": 495.47286967084267,
                    "velocity": 0.4015748031496063,
                    "duration": 0.28145177708330493
                },
                {
                    "name": "C#4",
                    "midi": 61,
                    "time": 495.7744827500093,
                    "velocity": 0.3779527559055118,
                    "duration": 0.04838712499997655
                },
                {
                    "name": "D4",
                    "midi": 62,
                    "time": 495.8712570000093,
                    "velocity": 0.4251968503937008,
                    "duration": 0.7508068895833162
                },
                {
                    "name": "D4",
                    "midi": 62,
                    "time": 496.64545100000925,
                    "velocity": 0.4251968503937008,
                    "duration": 0.6572584479166608
                },
                {
                    "name": "D4",
                    "midi": 62,
                    "time": 497.32287075000926,
                    "velocity": 0.3464566929133858,
                    "duration": 0.08629037291666464
                },
                {
                    "name": "D4",
                    "midi": 62,
                    "time": 497.41964500000927,
                    "velocity": 0.3937007874015748,
                    "duration": 0.09677425000000994
                },
                {
                    "name": "D4",
                    "midi": 62,
                    "time": 497.6986774208426,
                    "velocity": 0.3700787401574803,
                    "duration": 0.09354844166665544
                },
                {
                    "name": "B3",
                    "midi": 59,
                    "time": 497.80674200000925,
                    "velocity": 0.3228346456692913,
                    "duration": 0.09677425000000994
                },
                {
                    "name": "D4",
                    "midi": 62,
                    "time": 497.80674200000925,
                    "velocity": 0.3858267716535433,
                    "duration": 0.09677425000000994
                },
                {
                    "name": "B3",
                    "midi": 59,
                    "time": 498.0970647500093,
                    "velocity": 0.31496062992125984,
                    "duration": 0.09677425000000994
                },
                {
                    "name": "D4",
                    "midi": 62,
                    "time": 498.0970647500093,
                    "velocity": 0.3700787401574803,
                    "duration": 0.09677425000000994
                },
                {
                    "name": "A3",
                    "midi": 57,
                    "time": 498.1938390000093,
                    "velocity": 0.3543307086614173,
                    "duration": 0.7508068895833162
                },
                {
                    "name": "E4",
                    "midi": 64,
                    "time": 498.1938390000093,
                    "velocity": 0.4251968503937008,
                    "duration": 0.7508068895833162
                },
                {
                    "name": "A3",
                    "midi": 57,
                    "time": 498.96803300000926,
                    "velocity": 0.3543307086614173,
                    "duration": 0.6572584479166608
                },
                {
                    "name": "C#4",
                    "midi": 61,
                    "time": 498.96803300000926,
                    "velocity": 0.4251968503937008,
                    "duration": 0.6572584479166608
                },
                {
                    "name": "F#3",
                    "midi": 54,
                    "time": 499.64545275000927,
                    "velocity": 0.2755905511811024,
                    "duration": 0.08629037291666464
                },
                {
                    "name": "C#4",
                    "midi": 61,
                    "time": 499.64545275000927,
                    "velocity": 0.3464566929133858,
                    "duration": 0.08629037291666464
                },
                {
                    "name": "C#4",
                    "midi": 61,
                    "time": 499.7422270000093,
                    "velocity": 0.3937007874015748,
                    "duration": 0.09677425000000994
                },
                {
                    "name": "F#3",
                    "midi": 54,
                    "time": 499.7422270000093,
                    "velocity": 0.33070866141732286,
                    "duration": 0.09677425000000994
                },
                {
                    "name": "C#4",
                    "midi": 61,
                    "time": 500.0212594208426,
                    "velocity": 0.3700787401574803,
                    "duration": 0.09354844166665544
                },
                {
                    "name": "F#3",
                    "midi": 54,
                    "time": 500.0212594208426,
                    "velocity": 0.31496062992125984,
                    "duration": 0.09354844166665544
                },
                {
                    "name": "F#3",
                    "midi": 54,
                    "time": 500.12932400000926,
                    "velocity": 0.3228346456692913,
                    "duration": 0.09677425000000994
                },
                {
                    "name": "D4",
                    "midi": 62,
                    "time": 500.12932400000926,
                    "velocity": 0.3858267716535433,
                    "duration": 0.09677425000000994
                },
                {
                    "name": "F#3",
                    "midi": 54,
                    "time": 500.4196467500093,
                    "velocity": 0.31496062992125984,
                    "duration": 0.09677425000000994
                },
                {
                    "name": "E4",
                    "midi": 64,
                    "time": 500.4196467500093,
                    "velocity": 0.3700787401574803,
                    "duration": 0.09677425000000994
                },
                {
                    "name": "G3",
                    "midi": 55,
                    "time": 500.5164210000093,
                    "velocity": 0.3543307086614173,
                    "duration": 0.7741939999999659
                },
                {
                    "name": "D4",
                    "midi": 62,
                    "time": 500.5164210000093,
                    "velocity": 0.4251968503937008,
                    "duration": 0.7508068895833162
                },
                {
                    "name": "G3",
                    "midi": 55,
                    "time": 501.29061500000927,
                    "velocity": 0.3543307086614173,
                    "duration": 0.6572584479166608
                },
                {
                    "name": "B3",
                    "midi": 59,
                    "time": 501.29061500000927,
                    "velocity": 0.4251968503937008,
                    "duration": 0.6572584479166608
                },
                {
                    "name": "A2",
                    "midi": 45,
                    "time": 501.9680347500093,
                    "velocity": 0.3464566929133858,
                    "duration": 0.08870972916668052
                },
                {
                    "name": "A2",
                    "midi": 45,
                    "time": 502.0648090000093,
                    "velocity": 0.3937007874015748,
                    "duration": 0.09677425000000994
                },
                {
                    "name": "A2",
                    "midi": 45,
                    "time": 502.3551317500093,
                    "velocity": 0.3700787401574803,
                    "duration": 0.09677425000000994
                },
                {
                    "name": "A2",
                    "midi": 45,
                    "time": 502.45190600000933,
                    "velocity": 0.3858267716535433,
                    "duration": 0.09677425000000994
                },
                {
                    "name": "A2",
                    "midi": 45,
                    "time": 502.74222875000936,
                    "velocity": 0.3700787401574803,
                    "duration": 0.09677425000000994
                },
                {
                    "name": "D3",
                    "midi": 50,
                    "time": 502.83900300000937,
                    "velocity": 0.4251968503937008,
                    "duration": 0.7508068895833162
                },
                {
                    "name": "D3",
                    "midi": 50,
                    "time": 503.61319700000934,
                    "velocity": 0.4251968503937008,
                    "duration": 0.7661294791666933
                },
                {
                    "name": "D3",
                    "midi": 50,
                    "time": 504.38739100000936,
                    "velocity": 0.3543307086614173,
                    "duration": 0.3677421500000264
                },
                {
                    "name": "C#3",
                    "midi": 49,
                    "time": 504.7744880000094,
                    "velocity": 0.29133858267716534,
                    "duration": 0.3677421500000264
                },
                {
                    "name": "B2",
                    "midi": 47,
                    "time": 505.16158500000944,
                    "velocity": 0.5275590551181102,
                    "duration": 0.12903233333332764
                },
                {
                    "name": "A#2",
                    "midi": 46,
                    "time": 505.29061733334277,
                    "velocity": 0.44881889763779526,
                    "duration": 0.12903233333332764
                },
                {
                    "name": "B2",
                    "midi": 47,
                    "time": 505.4196496666761,
                    "velocity": 0.44881889763779526,
                    "duration": 0.12903233333332764
                },
                {
                    "name": "G2",
                    "midi": 43,
                    "time": 505.5486820000094,
                    "velocity": 0.5354330708661418,
                    "duration": 0.12903233333332764
                },
                {
                    "name": "F#2",
                    "midi": 42,
                    "time": 505.67771433334275,
                    "velocity": 0.48031496062992124,
                    "duration": 0.12903233333332764
                },
                {
                    "name": "G2",
                    "midi": 43,
                    "time": 505.8067466666761,
                    "velocity": 0.5118110236220472,
                    "duration": 0.12903233333332764
                },
                {
                    "name": "E2",
                    "midi": 40,
                    "time": 505.9357790000094,
                    "velocity": 0.5826771653543307,
                    "duration": 0.6774197500000128
                },
                {
                    "name": "F#2",
                    "midi": 42,
                    "time": 506.6131987500094,
                    "velocity": 0.48031496062992124,
                    "duration": 0.09677425000000994
                },
                {
                    "name": "G2",
                    "midi": 43,
                    "time": 506.7099730000094,
                    "velocity": 0.5433070866141733,
                    "duration": 0.290322749999973
                },
                {
                    "name": "A2",
                    "midi": 45,
                    "time": 507.0002957500094,
                    "velocity": 0.4881889763779528,
                    "duration": 0.09677425000000994
                },
                {
                    "name": "B2",
                    "midi": 47,
                    "time": 507.0970700000094,
                    "velocity": 0.5511811023622047,
                    "duration": 0.290322749999973
                },
                {
                    "name": "D3",
                    "midi": 50,
                    "time": 507.3873927500094,
                    "velocity": 0.4881889763779528,
                    "duration": 0.09677425000000994
                },
                {
                    "name": "C#3",
                    "midi": 49,
                    "time": 507.4841670000094,
                    "velocity": 0.5433070866141733,
                    "duration": 0.12903233333332764
                },
                {
                    "name": "C3",
                    "midi": 48,
                    "time": 507.6131993333427,
                    "velocity": 0.49606299212598426,
                    "duration": 0.12903233333332764
                },
                {
                    "name": "C#3",
                    "midi": 49,
                    "time": 507.74223166667605,
                    "velocity": 0.4645669291338583,
                    "duration": 0.12903233333332764
                },
                {
                    "name": "A2",
                    "midi": 45,
                    "time": 507.8712640000094,
                    "velocity": 0.5354330708661418,
                    "duration": 0.12903233333332764
                },
                {
                    "name": "G#2",
                    "midi": 44,
                    "time": 508.0002963333427,
                    "velocity": 0.5118110236220472,
                    "duration": 0.12903233333332764
                },
                {
                    "name": "A2",
                    "midi": 45,
                    "time": 508.12932866667603,
                    "velocity": 0.5433070866141733,
                    "duration": 0.12903233333332764
                },
                {
                    "name": "F#2",
                    "midi": 42,
                    "time": 508.25836100000936,
                    "velocity": 0.5826771653543307,
                    "duration": 0.6774197500000128
                },
                {
                    "name": "G#2",
                    "midi": 44,
                    "time": 508.93578075000937,
                    "velocity": 0.48031496062992124,
                    "duration": 0.09677425000000994
                },
                {
                    "name": "A2",
                    "midi": 45,
                    "time": 509.0325550000094,
                    "velocity": 0.5433070866141733,
                    "duration": 0.290322749999973
                },
                {
                    "name": "B2",
                    "midi": 47,
                    "time": 509.32287775000935,
                    "velocity": 0.4881889763779528,
                    "duration": 0.09677425000000994
                },
                {
                    "name": "C#3",
                    "midi": 49,
                    "time": 509.41965200000936,
                    "velocity": 0.5511811023622047,
                    "duration": 0.290322749999973
                },
                {
                    "name": "E3",
                    "midi": 52,
                    "time": 509.70997475000934,
                    "velocity": 0.4881889763779528,
                    "duration": 0.09677425000000994
                },
                {
                    "name": "D3",
                    "midi": 50,
                    "time": 509.80674900000935,
                    "velocity": 0.5511811023622047,
                    "duration": 0.12903233333332764
                },
                {
                    "name": "C#3",
                    "midi": 49,
                    "time": 509.9357813333427,
                    "velocity": 0.4566929133858268,
                    "duration": 0.12903233333332764
                },
                {
                    "name": "D3",
                    "midi": 50,
                    "time": 510.064813666676,
                    "velocity": 0.4566929133858268,
                    "duration": 0.12903233333332764
                },
                {
                    "name": "B2",
                    "midi": 47,
                    "time": 510.19384600000933,
                    "velocity": 0.49606299212598426,
                    "duration": 0.12903233333332764
                },
                {
                    "name": "A#2",
                    "midi": 46,
                    "time": 510.32287833334266,
                    "velocity": 0.5118110236220472,
                    "duration": 0.12903233333332764
                },
                {
                    "name": "B2",
                    "midi": 47,
                    "time": 510.451910666676,
                    "velocity": 0.5354330708661418,
                    "duration": 0.12903233333332764
                },
                {
                    "name": "G2",
                    "midi": 43,
                    "time": 510.5809430000093,
                    "velocity": 0.5669291338582677,
                    "duration": 0.6774197500000128
                },
                {
                    "name": "A2",
                    "midi": 45,
                    "time": 511.2583627500093,
                    "velocity": 0.4645669291338583,
                    "duration": 0.09677425000000994
                },
                {
                    "name": "B2",
                    "midi": 47,
                    "time": 511.35513700000934,
                    "velocity": 0.5748031496062992,
                    "duration": 0.290322749999973
                },
                {
                    "name": "C#3",
                    "midi": 49,
                    "time": 511.6454597500093,
                    "velocity": 0.44881889763779526,
                    "duration": 0.09677425000000994
                },
                {
                    "name": "D3",
                    "midi": 50,
                    "time": 511.7422340000093,
                    "velocity": 0.5590551181102362,
                    "duration": 0.29032275000002983
                },
                {
                    "name": "F#3",
                    "midi": 54,
                    "time": 512.0325567500093,
                    "velocity": 0.4566929133858268,
                    "duration": 0.0967742499999531
                },
                {
                    "name": "E3",
                    "midi": 52,
                    "time": 512.1293310000093,
                    "velocity": 0.6692913385826772,
                    "duration": 0.750806889583373
                },
                {
                    "name": "E3",
                    "midi": 52,
                    "time": 512.9035250000094,
                    "velocity": 0.5354330708661418,
                    "duration": 0.6572584479166608
                },
                {
                    "name": "A3",
                    "midi": 57,
                    "time": 512.9035250000094,
                    "velocity": 0.6377952755905512,
                    "duration": 0.6572584479166608
                },
                {
                    "name": "A2",
                    "midi": 45,
                    "time": 513.5809447500094,
                    "velocity": 0.4409448818897638,
                    "duration": 0.0967742499999531
                },
                {
                    "name": "A3",
                    "midi": 57,
                    "time": 513.5809447500094,
                    "velocity": 0.5196850393700787,
                    "duration": 0.0967742499999531
                },
                {
                    "name": "A2",
                    "midi": 45,
                    "time": 513.6777190000093,
                    "velocity": 0.4566929133858268,
                    "duration": 0.2677420916667188
                },
                {
                    "name": "A3",
                    "midi": 57,
                    "time": 513.6777190000093,
                    "velocity": 0.5433070866141733,
                    "duration": 0.2677420916667188
                },
                {
                    "name": "G2",
                    "midi": 43,
                    "time": 513.9680417500094,
                    "velocity": 0.4330708661417323,
                    "duration": 0.0967742499999531
                },
                {
                    "name": "G3",
                    "midi": 55,
                    "time": 513.9680417500094,
                    "velocity": 0.5118110236220472,
                    "duration": 0.0967742499999531
                },
                {
                    "name": "F#2",
                    "midi": 42,
                    "time": 514.0648160000094,
                    "velocity": 0.47244094488188976,
                    "duration": 0.2677420916667188
                },
                {
                    "name": "F#3",
                    "midi": 54,
                    "time": 514.0648160000094,
                    "velocity": 0.5669291338582677,
                    "duration": 0.2677420916667188
                },
                {
                    "name": "E2",
                    "midi": 40,
                    "time": 514.3551387500095,
                    "velocity": 0.4881889763779528,
                    "duration": 0.0967742499999531
                },
                {
                    "name": "E3",
                    "midi": 52,
                    "time": 514.3551387500095,
                    "velocity": 0.5826771653543307,
                    "duration": 0.0967742499999531
                },
                {
                    "name": "D2",
                    "midi": 38,
                    "time": 514.4519130000094,
                    "velocity": 0.5118110236220472,
                    "duration": 0.750806889583373
                },
                {
                    "name": "A2",
                    "midi": 45,
                    "time": 514.4519130000094,
                    "velocity": 0.5118110236220472,
                    "duration": 0.750806889583373
                },
                {
                    "name": "D3",
                    "midi": 50,
                    "time": 514.4519130000094,
                    "velocity": 0.5826771653543307,
                    "duration": 0.750806889583373
                },
                {
                    "name": "A2",
                    "midi": 45,
                    "time": 515.2261070000095,
                    "velocity": 0.5118110236220472,
                    "duration": 0.6612907083333539
                },
                {
                    "name": "D2",
                    "midi": 38,
                    "time": 515.2261070000095,
                    "velocity": 0.5118110236220472,
                    "duration": 0.6612907083333539
                },
                {
                    "name": "D3",
                    "midi": 50,
                    "time": 515.2261070000095,
                    "velocity": 0.5826771653543307,
                    "duration": 0.6612907083333539
                },
                {
                    "name": "D3",
                    "midi": 50,
                    "time": 516.7744950000096,
                    "velocity": 0.3464566929133858,
                    "duration": 0.19354850000001989
                },
                {
                    "name": "A3",
                    "midi": 57,
                    "time": 517.1615920000096,
                    "velocity": 0.25984251968503935,
                    "duration": 0.19354850000001989
                },
                {
                    "name": "F#4",
                    "midi": 66,
                    "time": 517.5486890000096,
                    "velocity": 0.25984251968503935,
                    "duration": 0.19354850000001989
                },
                {
                    "name": "D4",
                    "midi": 62,
                    "time": 517.5486890000096,
                    "velocity": 0.2204724409448819,
                    "duration": 0.19354850000001989
                },
                {
                    "name": "D3",
                    "midi": 50,
                    "time": 517.9357860000097,
                    "velocity": 0.3464566929133858,
                    "duration": 0.19354850000001989
                },
                {
                    "name": "A3",
                    "midi": 57,
                    "time": 518.3228830000097,
                    "velocity": 0.25984251968503935,
                    "duration": 0.19354850000001989
                },
                {
                    "name": "D4",
                    "midi": 62,
                    "time": 518.7099800000098,
                    "velocity": 0.2204724409448819,
                    "duration": 0.19354850000001989
                },
                {
                    "name": "F#4",
                    "midi": 66,
                    "time": 518.7099800000098,
                    "velocity": 0.25984251968503935,
                    "duration": 0.19354850000001989
                },
                {
                    "name": "C#3",
                    "midi": 49,
                    "time": 519.0970770000098,
                    "velocity": 0.3464566929133858,
                    "duration": 0.19354850000001989
                },
                {
                    "name": "A3",
                    "midi": 57,
                    "time": 519.4841740000098,
                    "velocity": 0.25984251968503935,
                    "duration": 0.19354850000001989
                },
                {
                    "name": "G4",
                    "midi": 67,
                    "time": 519.8712710000099,
                    "velocity": 0.25984251968503935,
                    "duration": 0.19354850000001989
                },
                {
                    "name": "E4",
                    "midi": 64,
                    "time": 519.8712710000099,
                    "velocity": 0.2204724409448819,
                    "duration": 0.19354850000001989
                },
                {
                    "name": "C#3",
                    "midi": 49,
                    "time": 520.2583680000099,
                    "velocity": 0.3464566929133858,
                    "duration": 0.19354850000001989
                },
                {
                    "name": "A3",
                    "midi": 57,
                    "time": 520.64546500001,
                    "velocity": 0.25984251968503935,
                    "duration": 0.19354850000001989
                },
                {
                    "name": "E4",
                    "midi": 64,
                    "time": 521.03256200001,
                    "velocity": 0.2204724409448819,
                    "duration": 0.19354850000001989
                },
                {
                    "name": "G4",
                    "midi": 67,
                    "time": 521.03256200001,
                    "velocity": 0.25984251968503935,
                    "duration": 0.19354850000001989
                },
                {
                    "name": "A2",
                    "midi": 45,
                    "time": 521.41965900001,
                    "velocity": 0.3464566929133858,
                    "duration": 0.19354850000001989
                },
                {
                    "name": "A3",
                    "midi": 57,
                    "time": 521.8067560000101,
                    "velocity": 0.25984251968503935,
                    "duration": 0.19354850000001989
                },
                {
                    "name": "G4",
                    "midi": 67,
                    "time": 522.1938530000101,
                    "velocity": 0.25984251968503935,
                    "duration": 0.19354850000001989
                },
                {
                    "name": "E4",
                    "midi": 64,
                    "time": 522.1938530000101,
                    "velocity": 0.2204724409448819,
                    "duration": 0.19354850000001989
                },
                {
                    "name": "A2",
                    "midi": 45,
                    "time": 522.5809500000101,
                    "velocity": 0.3464566929133858,
                    "duration": 0.19354850000001989
                },
                {
                    "name": "A3",
                    "midi": 57,
                    "time": 522.9680470000102,
                    "velocity": 0.25984251968503935,
                    "duration": 0.19354850000001989
                },
                {
                    "name": "E4",
                    "midi": 64,
                    "time": 523.3551440000102,
                    "velocity": 0.2204724409448819,
                    "duration": 0.19354850000001989
                },
                {
                    "name": "G4",
                    "midi": 67,
                    "time": 523.3551440000102,
                    "velocity": 0.25984251968503935,
                    "duration": 0.19354850000001989
                },
                {
                    "name": "D3",
                    "midi": 50,
                    "time": 523.7422410000103,
                    "velocity": 0.30708661417322836,
                    "duration": 0.19354850000001989
                },
                {
                    "name": "A3",
                    "midi": 57,
                    "time": 524.1293380000103,
                    "velocity": 0.2283464566929134,
                    "duration": 0.19354850000001989
                },
                {
                    "name": "F#4",
                    "midi": 66,
                    "time": 524.5164350000103,
                    "velocity": 0.2283464566929134,
                    "duration": 0.19354850000001989
                },
                {
                    "name": "D4",
                    "midi": 62,
                    "time": 524.5164350000103,
                    "velocity": 0.1889763779527559,
                    "duration": 0.19354850000001989
                },
                {
                    "name": "D3",
                    "midi": 50,
                    "time": 524.9035320000104,
                    "velocity": 0.3464566929133858,
                    "duration": 0.19354850000001989
                },
                {
                    "name": "A3",
                    "midi": 57,
                    "time": 525.2906290000104,
                    "velocity": 0.2283464566929134,
                    "duration": 0.19354850000001989
                },
                {
                    "name": "F#4",
                    "midi": 66,
                    "time": 525.6777260000105,
                    "velocity": 0.23622047244094488,
                    "duration": 0.19354850000001989
                },
                {
                    "name": "D4",
                    "midi": 62,
                    "time": 525.6777260000105,
                    "velocity": 0.1968503937007874,
                    "duration": 0.19354850000001989
                },
                {
                    "name": "B2",
                    "midi": 47,
                    "time": 526.0648230000105,
                    "velocity": 0.3779527559055118,
                    "duration": 0.19354850000001989
                },
                {
                    "name": "B3",
                    "midi": 59,
                    "time": 526.4519200000105,
                    "velocity": 0.28346456692913385,
                    "duration": 0.19354850000001989
                },
                {
                    "name": "F#4",
                    "midi": 66,
                    "time": 526.8390170000106,
                    "velocity": 0.28346456692913385,
                    "duration": 0.19354850000001989
                },
                {
                    "name": "D4",
                    "midi": 62,
                    "time": 526.8390170000106,
                    "velocity": 0.23622047244094488,
                    "duration": 0.19354850000001989
                },
                {
                    "name": "B2",
                    "midi": 47,
                    "time": 527.2261140000106,
                    "velocity": 0.3464566929133858,
                    "duration": 0.19354850000001989
                },
                {
                    "name": "B3",
                    "midi": 59,
                    "time": 527.6132110000107,
                    "velocity": 0.28346456692913385,
                    "duration": 0.19354850000001989
                },
                {
                    "name": "D4",
                    "midi": 62,
                    "time": 528.0003080000107,
                    "velocity": 0.2283464566929134,
                    "duration": 0.19354850000001989
                },
                {
                    "name": "F#4",
                    "midi": 66,
                    "time": 528.0003080000107,
                    "velocity": 0.28346456692913385,
                    "duration": 0.19354850000001989
                },
                {
                    "name": "D3",
                    "midi": 50,
                    "time": 528.3874050000107,
                    "velocity": 0.3464566929133858,
                    "duration": 0.19354850000001989
                },
                {
                    "name": "A3",
                    "midi": 57,
                    "time": 528.7745020000108,
                    "velocity": 0.25984251968503935,
                    "duration": 0.19354850000001989
                },
                {
                    "name": "F#4",
                    "midi": 66,
                    "time": 529.1615990000108,
                    "velocity": 0.25984251968503935,
                    "duration": 0.19354850000001989
                },
                {
                    "name": "D4",
                    "midi": 62,
                    "time": 529.1615990000108,
                    "velocity": 0.2204724409448819,
                    "duration": 0.19354850000001989
                },
                {
                    "name": "D3",
                    "midi": 50,
                    "time": 529.5486960000109,
                    "velocity": 0.3464566929133858,
                    "duration": 0.19354850000001989
                },
                {
                    "name": "A3",
                    "midi": 57,
                    "time": 529.9357930000109,
                    "velocity": 0.25984251968503935,
                    "duration": 0.19354850000001989
                },
                {
                    "name": "F#4",
                    "midi": 66,
                    "time": 530.322890000011,
                    "velocity": 0.25984251968503935,
                    "duration": 0.19354850000001989
                },
                {
                    "name": "D4",
                    "midi": 62,
                    "time": 530.322890000011,
                    "velocity": 0.2204724409448819,
                    "duration": 0.19354850000001989
                },
                {
                    "name": "A2",
                    "midi": 45,
                    "time": 530.709987000011,
                    "velocity": 0.3464566929133858,
                    "duration": 0.19354850000001989
                },
                {
                    "name": "A3",
                    "midi": 57,
                    "time": 531.097084000011,
                    "velocity": 0.25984251968503935,
                    "duration": 0.19354850000001989
                },
                {
                    "name": "E4",
                    "midi": 64,
                    "time": 531.4841810000111,
                    "velocity": 0.2047244094488189,
                    "duration": 0.19354850000001989
                },
                {
                    "name": "G4",
                    "midi": 67,
                    "time": 531.4841810000111,
                    "velocity": 0.2440944881889764,
                    "duration": 0.19354850000001989
                },
                {
                    "name": "A2",
                    "midi": 45,
                    "time": 531.8712780000111,
                    "velocity": 0.3228346456692913,
                    "duration": 0.19354850000001989
                },
                {
                    "name": "A3",
                    "midi": 57,
                    "time": 532.2583750000111,
                    "velocity": 0.2440944881889764,
                    "duration": 0.19354850000001989
                },
                {
                    "name": "G4",
                    "midi": 67,
                    "time": 532.6454720000112,
                    "velocity": 0.2440944881889764,
                    "duration": 0.19354850000001989
                },
                {
                    "name": "E4",
                    "midi": 64,
                    "time": 532.6454720000112,
                    "velocity": 0.2047244094488189,
                    "duration": 0.19354850000001989
                },
                {
                    "name": "D3",
                    "midi": 50,
                    "time": 533.0325690000112,
                    "velocity": 0.2755905511811024,
                    "duration": 0.19354850000001989
                },
                {
                    "name": "F#3",
                    "midi": 54,
                    "time": 533.4196660000113,
                    "velocity": 0.2047244094488189,
                    "duration": 0.19354850000001989
                },
                {
                    "name": "D4",
                    "midi": 62,
                    "time": 533.8067630000113,
                    "velocity": 0.2047244094488189,
                    "duration": 0.19354850000001989
                },
                {
                    "name": "A3",
                    "midi": 57,
                    "time": 533.8067630000113,
                    "velocity": 0.16535433070866143,
                    "duration": 0.19354850000001989
                },
                {
                    "name": "A2",
                    "midi": 45,
                    "time": 534.1938600000113,
                    "velocity": 0.30708661417322836,
                    "duration": 0.19354850000001989
                },
                {
                    "name": "G3",
                    "midi": 55,
                    "time": 534.5809570000114,
                    "velocity": 0.2125984251968504,
                    "duration": 0.19354850000001989
                },
                {
                    "name": "C#4",
                    "midi": 61,
                    "time": 534.9680540000114,
                    "velocity": 0.2047244094488189,
                    "duration": 0.19354850000001989
                },
                {
                    "name": "A3",
                    "midi": 57,
                    "time": 534.9680540000114,
                    "velocity": 0.1732283464566929,
                    "duration": 0.19354850000001989
                },
                {
                    "name": "D3",
                    "midi": 50,
                    "time": 535.3551510000115,
                    "velocity": 0.23622047244094488,
                    "duration": 0.19354850000001989
                },
                {
                    "name": "F#3",
                    "midi": 54,
                    "time": 535.7422480000115,
                    "velocity": 0.1732283464566929,
                    "duration": 0.19354850000001989
                },
                {
                    "name": "D4",
                    "midi": 62,
                    "time": 536.1293450000115,
                    "velocity": 0.16535433070866143,
                    "duration": 0.19354850000001989
                },
                {
                    "name": "A3",
                    "midi": 57,
                    "time": 536.1293450000115,
                    "velocity": 0.13385826771653545,
                    "duration": 0.19354850000001989
                },
                {
                    "name": "A2",
                    "midi": 45,
                    "time": 536.5164420000116,
                    "velocity": 0.2440944881889764,
                    "duration": 0.19354850000001989
                },
                {
                    "name": "G3",
                    "midi": 55,
                    "time": 536.9035390000116,
                    "velocity": 0.15748031496062992,
                    "duration": 0.19354850000001989
                },
                {
                    "name": "C#4",
                    "midi": 61,
                    "time": 537.2906360000117,
                    "velocity": 0.14960629921259844,
                    "duration": 0.19354850000001989
                },
                {
                    "name": "A3",
                    "midi": 57,
                    "time": 537.2906360000117,
                    "velocity": 0.12598425196850394,
                    "duration": 0.19354850000001989
                },
                {
                    "name": "D3",
                    "midi": 50,
                    "time": 537.6777330000117,
                    "velocity": 0.1968503937007874,
                    "duration": 0.19354850000001989
                },
                {
                    "name": "F#3",
                    "midi": 54,
                    "time": 538.0648300000117,
                    "velocity": 0.14960629921259844,
                    "duration": 0.19354850000001989
                },
                {
                    "name": "D4",
                    "midi": 62,
                    "time": 538.4519270000118,
                    "velocity": 0.14960629921259844,
                    "duration": 0.19354850000001989
                },
                {
                    "name": "A3",
                    "midi": 57,
                    "time": 538.4519270000118,
                    "velocity": 0.12598425196850394,
                    "duration": 0.19354850000001989
                },
                {
                    "name": "D3",
                    "midi": 50,
                    "time": 538.8390240000118,
                    "velocity": 0.1968503937007874,
                    "duration": 0.19354850000001989
                },
                {
                    "name": "F#3",
                    "midi": 54,
                    "time": 539.2261210000119,
                    "velocity": 0.14960629921259844,
                    "duration": 0.19354850000001989
                },
                {
                    "name": "A3",
                    "midi": 57,
                    "time": 539.6132180000119,
                    "velocity": 0.12598425196850394,
                    "duration": 0.19354850000001989
                },
                {
                    "name": "D4",
                    "midi": 62,
                    "time": 539.6132180000119,
                    "velocity": 0.14960629921259844,
                    "duration": 0.19354850000001989
                },
                {
                    "name": "D3",
                    "midi": 50,
                    "time": 540.0003150000119,
                    "velocity": 0.1968503937007874,
                    "duration": 0.19354850000001989
                },
                {
                    "name": "F#3",
                    "midi": 54,
                    "time": 540.387412000012,
                    "velocity": 0.14960629921259844,
                    "duration": 0.19354850000001989
                },
                {
                    "name": "D4",
                    "midi": 62,
                    "time": 540.774509000012,
                    "velocity": 0.14960629921259844,
                    "duration": 0.19354850000001989
                },
                {
                    "name": "A3",
                    "midi": 57,
                    "time": 540.774509000012,
                    "velocity": 0.12598425196850394,
                    "duration": 0.19354850000001989
                },
                {
                    "name": "D3",
                    "midi": 50,
                    "time": 541.1616060000121,
                    "velocity": 0.1968503937007874,
                    "duration": 0.19354850000001989
                },
                {
                    "name": "F#3",
                    "midi": 54,
                    "time": 541.5487030000121,
                    "velocity": 0.14960629921259844,
                    "duration": 0.19354850000001989
                },
                {
                    "name": "A3",
                    "midi": 57,
                    "time": 541.9358000000121,
                    "velocity": 0.12598425196850394,
                    "duration": 0.19354850000001989
                },
                {
                    "name": "D4",
                    "midi": 62,
                    "time": 541.9358000000121,
                    "velocity": 0.14960629921259844,
                    "duration": 0.19354850000001989
                },
                {
                    "name": "D3",
                    "midi": 50,
                    "time": 542.3228970000122,
                    "velocity": 0.1968503937007874,
                    "duration": 0.19354850000001989
                },
                {
                    "name": "D4",
                    "midi": 62,
                    "time": 543.4841880000122,
                    "velocity": 0.1889763779527559,
                    "duration": 0.19354850000001989
                },
                {
                    "name": "D3",
                    "midi": 50,
                    "time": 543.4841880000122,
                    "velocity": 0.15748031496062992,
                    "duration": 0.19354850000001989
                },
                {
                    "name": "A3",
                    "midi": 57,
                    "time": 543.4841880000122,
                    "velocity": 0.15748031496062992,
                    "duration": 0.19354850000001989
                },
                {
                    "name": "D3",
                    "midi": 50,
                    "time": 544.6454790000122,
                    "velocity": 0.14960629921259844,
                    "duration": 1.5483880000000454
                },
                {
                    "name": "A3",
                    "midi": 57,
                    "time": 544.6454790000122,
                    "velocity": 0.14960629921259844,
                    "duration": 1.5483880000000454
                },
                {
                    "name": "D4",
                    "midi": 62,
                    "time": 544.6454790000122,
                    "velocity": 0.1732283464566929,
                    "duration": 1.5483880000000454
                }
            ],
            "controlChanges": {},
            "id": 2,
            "name": "Piano left",
            "instrumentNumber": 0,
            "instrument": "acoustic grand piano",
            "instrumentFamily": "piano",
            "channelNumber": 0,
            "isPercussion": false
        },
        {
            "startTime": 0,
            "duration": 0,
            "length": 0,
            "notes": [],
            "controlChanges": {
                "64": [
                    {
                        "number": 64,
                        "time": 0.4048389458333333,
                        "value": 1
                    },
                    {
                        "number": 64,
                        "time": 0.6854842708333333,
                        "value": 0
                    },
                    {
                        "number": 64,
                        "time": 0.8177424124999999,
                        "value": 1
                    },
                    {
                        "number": 64,
                        "time": 1.0717748187499998,
                        "value": 0
                    },
                    {
                        "number": 64,
                        "time": 1.3548394999999998,
                        "value": 1
                    },
                    {
                        "number": 64,
                        "time": 2.6250015312499997,
                        "value": 0
                    },
                    {
                        "number": 64,
                        "time": 2.7838725916666665,
                        "value": 1
                    },
                    {
                        "number": 64,
                        "time": 3.1024211645833333,
                        "value": 0
                    },
                    {
                        "number": 64,
                        "time": 3.6774215,
                        "value": 1
                    },
                    {
                        "number": 64,
                        "time": 4.943551270833333,
                        "value": 0
                    },
                    {
                        "number": 64,
                        "time": 5.499196756249999,
                        "value": 1
                    },
                    {
                        "number": 64,
                        "time": 5.8112937124999995,
                        "value": 0
                    },
                    {
                        "number": 64,
                        "time": 6.0645196666666665,
                        "value": 1
                    },
                    {
                        "number": 64,
                        "time": 7.170165472916667,
                        "value": 0
                    },
                    {
                        "number": 64,
                        "time": 8.258069333333333,
                        "value": 1
                    },
                    {
                        "number": 64,
                        "time": 9.634683039583333,
                        "value": 0
                    },
                    {
                        "number": 64,
                        "time": 17.70968775,
                        "value": 1
                    },
                    {
                        "number": 64,
                        "time": 18.88307553125,
                        "value": 0
                    },
                    {
                        "number": 64,
                        "time": 19.041946591666665,
                        "value": 1
                    },
                    {
                        "number": 64,
                        "time": 19.36049516458333,
                        "value": 0
                    },
                    {
                        "number": 64,
                        "time": 19.43307585208333,
                        "value": 1
                    },
                    {
                        "number": 64,
                        "time": 19.743559904166663,
                        "value": 0
                    },
                    {
                        "number": 64,
                        "time": 19.935495499999995,
                        "value": 1
                    },
                    {
                        "number": 64,
                        "time": 21.205657531249994,
                        "value": 0
                    },
                    {
                        "number": 64,
                        "time": 21.36452859166666,
                        "value": 1
                    },
                    {
                        "number": 64,
                        "time": 21.683077164583324,
                        "value": 0
                    },
                    {
                        "number": 64,
                        "time": 21.755657852083324,
                        "value": 1
                    },
                    {
                        "number": 64,
                        "time": 22.066141904166656,
                        "value": 0
                    },
                    {
                        "number": 64,
                        "time": 22.258077499999988,
                        "value": 1
                    },
                    {
                        "number": 64,
                        "time": 23.47017498124999,
                        "value": 0
                    },
                    {
                        "number": 64,
                        "time": 23.63065894583332,
                        "value": 1
                    },
                    {
                        "number": 64,
                        "time": 23.91130427083332,
                        "value": 0
                    },
                    {
                        "number": 64,
                        "time": 24.043562412499988,
                        "value": 1
                    },
                    {
                        "number": 64,
                        "time": 24.29759481874999,
                        "value": 0
                    },
                    {
                        "number": 64,
                        "time": 24.58065949999999,
                        "value": 1
                    },
                    {
                        "number": 64,
                        "time": 25.850821531249988,
                        "value": 0
                    },
                    {
                        "number": 64,
                        "time": 26.009692591666653,
                        "value": 1
                    },
                    {
                        "number": 64,
                        "time": 26.328241164583318,
                        "value": 0
                    },
                    {
                        "number": 64,
                        "time": 26.903241499999986,
                        "value": 1
                    },
                    {
                        "number": 64,
                        "time": 28.16937127083332,
                        "value": 0
                    },
                    {
                        "number": 64,
                        "time": 28.725016756249985,
                        "value": 1
                    },
                    {
                        "number": 64,
                        "time": 29.037113712499984,
                        "value": 0
                    },
                    {
                        "number": 64,
                        "time": 29.29033966666665,
                        "value": 1
                    },
                    {
                        "number": 64,
                        "time": 29.814533520833315,
                        "value": 0
                    },
                    {
                        "number": 64,
                        "time": 29.979049745833315,
                        "value": 1
                    },
                    {
                        "number": 64,
                        "time": 30.39598547291665,
                        "value": 0
                    },
                    {
                        "number": 64,
                        "time": 31.483889333333316,
                        "value": 1
                    },
                    {
                        "number": 64,
                        "time": 32.860503039583314,
                        "value": 0
                    },
                    {
                        "number": 64,
                        "time": 40.93550774999998,
                        "value": 1
                    },
                    {
                        "number": 64,
                        "time": 42.10889553124998,
                        "value": 0
                    },
                    {
                        "number": 64,
                        "time": 42.26776659166664,
                        "value": 1
                    },
                    {
                        "number": 64,
                        "time": 42.58631516458331,
                        "value": 0
                    },
                    {
                        "number": 64,
                        "time": 42.65889585208331,
                        "value": 1
                    },
                    {
                        "number": 64,
                        "time": 42.969379904166644,
                        "value": 0
                    },
                    {
                        "number": 64,
                        "time": 43.37583175416665,
                        "value": 1
                    },
                    {
                        "number": 64,
                        "time": 44.43147753124998,
                        "value": 0
                    },
                    {
                        "number": 64,
                        "time": 44.59034859166665,
                        "value": 1
                    },
                    {
                        "number": 64,
                        "time": 44.908897164583315,
                        "value": 0
                    },
                    {
                        "number": 64,
                        "time": 44.981477852083316,
                        "value": 1
                    },
                    {
                        "number": 64,
                        "time": 45.29196190416665,
                        "value": 0
                    },
                    {
                        "number": 64,
                        "time": 45.48389749999998,
                        "value": 1
                    },
                    {
                        "number": 64,
                        "time": 46.69599498124998,
                        "value": 0
                    },
                    {
                        "number": 64,
                        "time": 46.88147896041665,
                        "value": 1
                    },
                    {
                        "number": 64,
                        "time": 47.02422097916665,
                        "value": 0
                    },
                    {
                        "number": 64,
                        "time": 47.269382412499986,
                        "value": 1
                    },
                    {
                        "number": 64,
                        "time": 47.37986634791665,
                        "value": 0
                    },
                    {
                        "number": 64,
                        "time": 47.80647949999999,
                        "value": 1
                    },
                    {
                        "number": 64,
                        "time": 49.07664153124999,
                        "value": 0
                    },
                    {
                        "number": 64,
                        "time": 49.20970612499999,
                        "value": 1
                    },
                    {
                        "number": 64,
                        "time": 49.33793200624999,
                        "value": 0
                    },
                    {
                        "number": 64,
                        "time": 49.59196441249999,
                        "value": 1
                    },
                    {
                        "number": 64,
                        "time": 49.71051286874999,
                        "value": 0
                    },
                    {
                        "number": 64,
                        "time": 50.129061499999985,
                        "value": 1
                    },
                    {
                        "number": 64,
                        "time": 51.39922353124999,
                        "value": 0
                    },
                    {
                        "number": 64,
                        "time": 51.53228812499999,
                        "value": 1
                    },
                    {
                        "number": 64,
                        "time": 51.633901087499986,
                        "value": 0
                    },
                    {
                        "number": 64,
                        "time": 51.91454641249999,
                        "value": 1
                    },
                    {
                        "number": 64,
                        "time": 52.02825615624999,
                        "value": 0
                    },
                    {
                        "number": 64,
                        "time": 52.30648212499999,
                        "value": 1
                    },
                    {
                        "number": 64,
                        "time": 52.40809508749999,
                        "value": 0
                    },
                    {
                        "number": 64,
                        "time": 52.67986943958332,
                        "value": 1
                    },
                    {
                        "number": 64,
                        "time": 52.78148240208332,
                        "value": 0
                    },
                    {
                        "number": 64,
                        "time": 53.073418056249984,
                        "value": 1
                    },
                    {
                        "number": 64,
                        "time": 53.17503101874998,
                        "value": 0
                    },
                    {
                        "number": 64,
                        "time": 53.455676343749985,
                        "value": 1
                    },
                    {
                        "number": 64,
                        "time": 53.58712803333332,
                        "value": 0
                    },
                    {
                        "number": 64,
                        "time": 54.00003149999999,
                        "value": 1
                    },
                    {
                        "number": 64,
                        "time": 54.59358023333333,
                        "value": 0
                    },
                    {
                        "number": 64,
                        "time": 54.72906418333333,
                        "value": 1
                    },
                    {
                        "number": 64,
                        "time": 55.36777423333333,
                        "value": 0
                    },
                    {
                        "number": 64,
                        "time": 55.50325818333333,
                        "value": 1
                    },
                    {
                        "number": 64,
                        "time": 56.13954887708333,
                        "value": 0
                    },
                    {
                        "number": 64,
                        "time": 57.051646183333325,
                        "value": 1
                    },
                    {
                        "number": 64,
                        "time": 57.690356233333326,
                        "value": 0
                    },
                    {
                        "number": 64,
                        "time": 57.82584018333333,
                        "value": 1
                    },
                    {
                        "number": 64,
                        "time": 58.36696953124999,
                        "value": 0
                    },
                    {
                        "number": 64,
                        "time": 58.39680825833332,
                        "value": 1
                    },
                    {
                        "number": 64,
                        "time": 58.852453685416656,
                        "value": 0
                    },
                    {
                        "number": 64,
                        "time": 58.89438919374999,
                        "value": 1
                    },
                    {
                        "number": 64,
                        "time": 59.22584099999999,
                        "value": 0
                    },
                    {
                        "number": 64,
                        "time": 59.39197012916666,
                        "value": 1
                    },
                    {
                        "number": 64,
                        "time": 61.54842299999999,
                        "value": 0
                    },
                    {
                        "number": 64,
                        "time": 61.71455212916666,
                        "value": 1
                    },
                    {
                        "number": 64,
                        "time": 63.096810999999995,
                        "value": 0
                    },
                    {
                        "number": 64,
                        "time": 63.1403594125,
                        "value": 1
                    },
                    {
                        "number": 64,
                        "time": 63.88148887708333,
                        "value": 0
                    },
                    {
                        "number": 64,
                        "time": 64.03713412916666,
                        "value": 1
                    },
                    {
                        "number": 64,
                        "time": 66.20407087708332,
                        "value": 0
                    },
                    {
                        "number": 64,
                        "time": 66.35971612916666,
                        "value": 1
                    },
                    {
                        "number": 64,
                        "time": 66.97665197291666,
                        "value": 0
                    },
                    {
                        "number": 64,
                        "time": 67.11536173124999,
                        "value": 1
                    },
                    {
                        "number": 64,
                        "time": 67.65729753125,
                        "value": 0
                    },
                    {
                        "number": 64,
                        "time": 67.68713625833333,
                        "value": 1
                    },
                    {
                        "number": 64,
                        "time": 68.14278168541667,
                        "value": 0
                    },
                    {
                        "number": 64,
                        "time": 68.18471719375,
                        "value": 1
                    },
                    {
                        "number": 64,
                        "time": 68.516169,
                        "value": 0
                    },
                    {
                        "number": 64,
                        "time": 68.68229812916667,
                        "value": 1
                    },
                    {
                        "number": 64,
                        "time": 70.838751,
                        "value": 0
                    },
                    {
                        "number": 64,
                        "time": 71.00488012916666,
                        "value": 1
                    },
                    {
                        "number": 64,
                        "time": 72.387139,
                        "value": 0
                    },
                    {
                        "number": 64,
                        "time": 72.4306874125,
                        "value": 1
                    },
                    {
                        "number": 64,
                        "time": 73.17181687708334,
                        "value": 0
                    },
                    {
                        "number": 64,
                        "time": 73.32746212916668,
                        "value": 1
                    },
                    {
                        "number": 64,
                        "time": 75.49439887708334,
                        "value": 0
                    },
                    {
                        "number": 64,
                        "time": 75.65004412916667,
                        "value": 1
                    },
                    {
                        "number": 64,
                        "time": 76.26697997291667,
                        "value": 0
                    },
                    {
                        "number": 64,
                        "time": 76.40568973125,
                        "value": 1
                    },
                    {
                        "number": 64,
                        "time": 77.81698087708334,
                        "value": 0
                    },
                    {
                        "number": 64,
                        "time": 77.97262612916667,
                        "value": 1
                    },
                    {
                        "number": 64,
                        "time": 78.58956197291667,
                        "value": 0
                    },
                    {
                        "number": 64,
                        "time": 78.72827173125,
                        "value": 1
                    },
                    {
                        "number": 64,
                        "time": 80.13956287708334,
                        "value": 0
                    },
                    {
                        "number": 64,
                        "time": 80.20327259166667,
                        "value": 1
                    },
                    {
                        "number": 64,
                        "time": 80.42504691458335,
                        "value": 0
                    },
                    {
                        "number": 64,
                        "time": 80.55891796041668,
                        "value": 1
                    },
                    {
                        "number": 64,
                        "time": 80.70165997916668,
                        "value": 0
                    },
                    {
                        "number": 64,
                        "time": 80.94682141250001,
                        "value": 1
                    },
                    {
                        "number": 64,
                        "time": 81.05730534791668,
                        "value": 0
                    },
                    {
                        "number": 64,
                        "time": 81.36456359166668,
                        "value": 1
                    },
                    {
                        "number": 64,
                        "time": 81.58633791458335,
                        "value": 0
                    },
                    {
                        "number": 64,
                        "time": 81.72020896041668,
                        "value": 1
                    },
                    {
                        "number": 64,
                        "time": 81.86295097916668,
                        "value": 0
                    },
                    {
                        "number": 64,
                        "time": 82.10811241250002,
                        "value": 1
                    },
                    {
                        "number": 64,
                        "time": 82.21859634791669,
                        "value": 0
                    },
                    {
                        "number": 64,
                        "time": 82.52585459166669,
                        "value": 1
                    },
                    {
                        "number": 64,
                        "time": 82.74762891458336,
                        "value": 0
                    },
                    {
                        "number": 64,
                        "time": 82.88149996041669,
                        "value": 1
                    },
                    {
                        "number": 64,
                        "time": 83.02424197916669,
                        "value": 0
                    },
                    {
                        "number": 64,
                        "time": 83.26940341250003,
                        "value": 1
                    },
                    {
                        "number": 64,
                        "time": 83.37988734791669,
                        "value": 0
                    },
                    {
                        "number": 64,
                        "time": 83.68714559166669,
                        "value": 1
                    },
                    {
                        "number": 64,
                        "time": 83.90891991458336,
                        "value": 0
                    },
                    {
                        "number": 64,
                        "time": 84.0427909604167,
                        "value": 1
                    },
                    {
                        "number": 64,
                        "time": 84.1855329791667,
                        "value": 0
                    },
                    {
                        "number": 64,
                        "time": 84.43069441250003,
                        "value": 1
                    },
                    {
                        "number": 64,
                        "time": 84.5411783479167,
                        "value": 0
                    },
                    {
                        "number": 64,
                        "time": 84.96779150000003,
                        "value": 1
                    },
                    {
                        "number": 64,
                        "time": 86.23392127083336,
                        "value": 0
                    },
                    {
                        "number": 64,
                        "time": 86.39601813958336,
                        "value": 1
                    },
                    {
                        "number": 64,
                        "time": 86.71537316458335,
                        "value": 0
                    },
                    {
                        "number": 64,
                        "time": 86.78956675625003,
                        "value": 1
                    },
                    {
                        "number": 64,
                        "time": 87.10166371250003,
                        "value": 0
                    },
                    {
                        "number": 64,
                        "time": 87.3548896666667,
                        "value": 1
                    },
                    {
                        "number": 64,
                        "time": 88.5524710104167,
                        "value": 0
                    },
                    {
                        "number": 64,
                        "time": 88.69118076875003,
                        "value": 1
                    },
                    {
                        "number": 64,
                        "time": 88.79037437500003,
                        "value": 0
                    },
                    {
                        "number": 64,
                        "time": 89.07585841250003,
                        "value": 1
                    },
                    {
                        "number": 64,
                        "time": 89.18795525208336,
                        "value": 0
                    },
                    {
                        "number": 64,
                        "time": 89.61295550000003,
                        "value": 1
                    },
                    {
                        "number": 64,
                        "time": 90.88311753125002,
                        "value": 0
                    },
                    {
                        "number": 64,
                        "time": 91.0419885916667,
                        "value": 1
                    },
                    {
                        "number": 64,
                        "time": 91.1847306104167,
                        "value": 0
                    },
                    {
                        "number": 64,
                        "time": 91.41053719375003,
                        "value": 1
                    },
                    {
                        "number": 64,
                        "time": 91.50247273125004,
                        "value": 0
                    },
                    {
                        "number": 64,
                        "time": 91.93553750000004,
                        "value": 1
                    },
                    {
                        "number": 64,
                        "time": 93.20569953125003,
                        "value": 0
                    },
                    {
                        "number": 64,
                        "time": 93.3645705916667,
                        "value": 1
                    },
                    {
                        "number": 64,
                        "time": 93.46699000625004,
                        "value": 0
                    },
                    {
                        "number": 64,
                        "time": 93.73311919375004,
                        "value": 1
                    },
                    {
                        "number": 64,
                        "time": 93.82505473125005,
                        "value": 0
                    },
                    {
                        "number": 64,
                        "time": 94.25811950000005,
                        "value": 1
                    },
                    {
                        "number": 64,
                        "time": 95.52828153125004,
                        "value": 0
                    },
                    {
                        "number": 64,
                        "time": 95.68715259166672,
                        "value": 1
                    },
                    {
                        "number": 64,
                        "time": 95.79279781458338,
                        "value": 0
                    },
                    {
                        "number": 64,
                        "time": 96.05570119375005,
                        "value": 1
                    },
                    {
                        "number": 64,
                        "time": 96.14763673125006,
                        "value": 0
                    },
                    {
                        "number": 64,
                        "time": 96.58070150000006,
                        "value": 1
                    },
                    {
                        "number": 64,
                        "time": 97.16941152083339,
                        "value": 0
                    },
                    {
                        "number": 64,
                        "time": 97.37666970625006,
                        "value": 1
                    },
                    {
                        "number": 64,
                        "time": 97.93876680833338,
                        "value": 0
                    },
                    {
                        "number": 64,
                        "time": 105.93554566666671,
                        "value": 1
                    },
                    {
                        "number": 64,
                        "time": 107.13473991458338,
                        "value": 0
                    },
                    {
                        "number": 64,
                        "time": 107.26861096041671,
                        "value": 1
                    },
                    {
                        "number": 64,
                        "time": 107.41135297916671,
                        "value": 0
                    },
                    {
                        "number": 64,
                        "time": 107.65651441250004,
                        "value": 1
                    },
                    {
                        "number": 64,
                        "time": 107.76699834791671,
                        "value": 0
                    },
                    {
                        "number": 64,
                        "time": 108.19361150000005,
                        "value": 1
                    },
                    {
                        "number": 64,
                        "time": 109.45974127083338,
                        "value": 0
                    },
                    {
                        "number": 64,
                        "time": 109.62183813958337,
                        "value": 1
                    },
                    {
                        "number": 64,
                        "time": 109.94119316458337,
                        "value": 0
                    },
                    {
                        "number": 64,
                        "time": 110.01538675625004,
                        "value": 1
                    },
                    {
                        "number": 64,
                        "time": 110.32748371250004,
                        "value": 0
                    },
                    {
                        "number": 64,
                        "time": 110.5807096666667,
                        "value": 1
                    },
                    {
                        "number": 64,
                        "time": 111.77829101041671,
                        "value": 0
                    },
                    {
                        "number": 64,
                        "time": 111.88877494583338,
                        "value": 1
                    },
                    {
                        "number": 64,
                        "time": 112.16942027083337,
                        "value": 0
                    },
                    {
                        "number": 64,
                        "time": 112.30167841250004,
                        "value": 1
                    },
                    {
                        "number": 64,
                        "time": 112.55571081875004,
                        "value": 0
                    },
                    {
                        "number": 64,
                        "time": 112.83877550000004,
                        "value": 1
                    },
                    {
                        "number": 64,
                        "time": 114.10893753125004,
                        "value": 0
                    },
                    {
                        "number": 64,
                        "time": 114.26780859166671,
                        "value": 1
                    },
                    {
                        "number": 64,
                        "time": 114.4105506104167,
                        "value": 0
                    },
                    {
                        "number": 64,
                        "time": 114.63635719375004,
                        "value": 1
                    },
                    {
                        "number": 64,
                        "time": 114.72829273125005,
                        "value": 0
                    },
                    {
                        "number": 64,
                        "time": 115.16135750000005,
                        "value": 1
                    },
                    {
                        "number": 64,
                        "time": 116.43151953125005,
                        "value": 0
                    },
                    {
                        "number": 64,
                        "time": 116.59039059166672,
                        "value": 1
                    },
                    {
                        "number": 64,
                        "time": 116.69281000625006,
                        "value": 0
                    },
                    {
                        "number": 64,
                        "time": 116.95893919375006,
                        "value": 1
                    },
                    {
                        "number": 64,
                        "time": 117.05087473125006,
                        "value": 0
                    },
                    {
                        "number": 64,
                        "time": 117.48393950000006,
                        "value": 1
                    },
                    {
                        "number": 64,
                        "time": 118.75410153125006,
                        "value": 0
                    },
                    {
                        "number": 64,
                        "time": 118.91297259166673,
                        "value": 1
                    },
                    {
                        "number": 64,
                        "time": 119.0186178145834,
                        "value": 0
                    },
                    {
                        "number": 64,
                        "time": 119.28152119375007,
                        "value": 1
                    },
                    {
                        "number": 64,
                        "time": 119.37345673125007,
                        "value": 0
                    },
                    {
                        "number": 64,
                        "time": 119.80652150000007,
                        "value": 1
                    },
                    {
                        "number": 64,
                        "time": 120.3952315208334,
                        "value": 0
                    },
                    {
                        "number": 64,
                        "time": 120.60248970625007,
                        "value": 1
                    },
                    {
                        "number": 64,
                        "time": 121.1645868083334,
                        "value": 0
                    },
                    {
                        "number": 64,
                        "time": 129.0662043208334,
                        "value": 1
                    },
                    {
                        "number": 64,
                        "time": 130.36297927083342,
                        "value": 0
                    },
                    {
                        "number": 64,
                        "time": 130.52507613958343,
                        "value": 1
                    },
                    {
                        "number": 64,
                        "time": 130.84443116458343,
                        "value": 0
                    },
                    {
                        "number": 64,
                        "time": 130.9186247562501,
                        "value": 1
                    },
                    {
                        "number": 64,
                        "time": 131.2307217125001,
                        "value": 0
                    },
                    {
                        "number": 64,
                        "time": 131.48394766666678,
                        "value": 1
                    },
                    {
                        "number": 64,
                        "time": 132.68152901041677,
                        "value": 0
                    },
                    {
                        "number": 64,
                        "time": 132.79201294583342,
                        "value": 1
                    },
                    {
                        "number": 64,
                        "time": 133.07265827083341,
                        "value": 0
                    },
                    {
                        "number": 64,
                        "time": 133.20491641250007,
                        "value": 1
                    },
                    {
                        "number": 64,
                        "time": 133.45894881875006,
                        "value": 0
                    },
                    {
                        "number": 64,
                        "time": 133.74201350000007,
                        "value": 1
                    },
                    {
                        "number": 64,
                        "time": 135.00411101041675,
                        "value": 0
                    },
                    {
                        "number": 64,
                        "time": 135.1145949458334,
                        "value": 1
                    },
                    {
                        "number": 64,
                        "time": 135.3952402708334,
                        "value": 0
                    },
                    {
                        "number": 64,
                        "time": 135.52749841250005,
                        "value": 1
                    },
                    {
                        "number": 64,
                        "time": 135.78153081875004,
                        "value": 0
                    },
                    {
                        "number": 64,
                        "time": 136.06459550000005,
                        "value": 1
                    },
                    {
                        "number": 64,
                        "time": 137.32508010625006,
                        "value": 0
                    },
                    {
                        "number": 64,
                        "time": 137.44846727500007,
                        "value": 1
                    },
                    {
                        "number": 64,
                        "time": 137.60491897916674,
                        "value": 0
                    },
                    {
                        "number": 64,
                        "time": 137.85008041250006,
                        "value": 1
                    },
                    {
                        "number": 64,
                        "time": 137.96056434791672,
                        "value": 0
                    },
                    {
                        "number": 64,
                        "time": 138.38717750000004,
                        "value": 1
                    },
                    {
                        "number": 64,
                        "time": 139.65733953125005,
                        "value": 0
                    },
                    {
                        "number": 64,
                        "time": 139.79040412500004,
                        "value": 1
                    },
                    {
                        "number": 64,
                        "time": 139.91863000625003,
                        "value": 0
                    },
                    {
                        "number": 64,
                        "time": 140.17266241250002,
                        "value": 1
                    },
                    {
                        "number": 64,
                        "time": 140.29121086875003,
                        "value": 0
                    },
                    {
                        "number": 64,
                        "time": 140.70975950000002,
                        "value": 1
                    },
                    {
                        "number": 64,
                        "time": 141.97992153125003,
                        "value": 0
                    },
                    {
                        "number": 64,
                        "time": 142.11298612500002,
                        "value": 1
                    },
                    {
                        "number": 64,
                        "time": 142.21459908750003,
                        "value": 0
                    },
                    {
                        "number": 64,
                        "time": 142.49524441250003,
                        "value": 1
                    },
                    {
                        "number": 64,
                        "time": 142.60895415625004,
                        "value": 0
                    },
                    {
                        "number": 64,
                        "time": 142.88718012500004,
                        "value": 1
                    },
                    {
                        "number": 64,
                        "time": 142.98879308750006,
                        "value": 0
                    },
                    {
                        "number": 64,
                        "time": 143.26056743958338,
                        "value": 1
                    },
                    {
                        "number": 64,
                        "time": 143.3621804020834,
                        "value": 0
                    },
                    {
                        "number": 64,
                        "time": 143.65411605625007,
                        "value": 1
                    },
                    {
                        "number": 64,
                        "time": 143.7557290187501,
                        "value": 0
                    },
                    {
                        "number": 64,
                        "time": 144.03637434375008,
                        "value": 1
                    },
                    {
                        "number": 64,
                        "time": 144.16782603333343,
                        "value": 0
                    },
                    {
                        "number": 64,
                        "time": 144.5807295000001,
                        "value": 1
                    },
                    {
                        "number": 64,
                        "time": 145.17427823333344,
                        "value": 0
                    },
                    {
                        "number": 64,
                        "time": 145.30976218333345,
                        "value": 1
                    },
                    {
                        "number": 64,
                        "time": 145.94847223333343,
                        "value": 0
                    },
                    {
                        "number": 64,
                        "time": 146.08395618333344,
                        "value": 1
                    },
                    {
                        "number": 64,
                        "time": 146.72024687708344,
                        "value": 0
                    },
                    {
                        "number": 64,
                        "time": 147.63234418333343,
                        "value": 1
                    },
                    {
                        "number": 64,
                        "time": 148.9476675312501,
                        "value": 0
                    },
                    {
                        "number": 64,
                        "time": 148.97750625833342,
                        "value": 1
                    },
                    {
                        "number": 64,
                        "time": 149.43315168541676,
                        "value": 0
                    },
                    {
                        "number": 64,
                        "time": 149.47508719375008,
                        "value": 1
                    },
                    {
                        "number": 64,
                        "time": 149.80653900000007,
                        "value": 0
                    },
                    {
                        "number": 64,
                        "time": 149.97266812916675,
                        "value": 1
                    },
                    {
                        "number": 64,
                        "time": 152.12912100000008,
                        "value": 0
                    },
                    {
                        "number": 64,
                        "time": 152.29525012916676,
                        "value": 1
                    },
                    {
                        "number": 64,
                        "time": 153.6775090000001,
                        "value": 0
                    },
                    {
                        "number": 64,
                        "time": 153.7210574125001,
                        "value": 1
                    },
                    {
                        "number": 64,
                        "time": 154.46218687708344,
                        "value": 0
                    },
                    {
                        "number": 64,
                        "time": 154.61783212916677,
                        "value": 1
                    },
                    {
                        "number": 64,
                        "time": 156.78476887708345,
                        "value": 0
                    },
                    {
                        "number": 64,
                        "time": 156.94041412916678,
                        "value": 1
                    },
                    {
                        "number": 64,
                        "time": 157.5573499729168,
                        "value": 0
                    },
                    {
                        "number": 64,
                        "time": 157.69605973125013,
                        "value": 1
                    },
                    {
                        "number": 64,
                        "time": 158.23799553125014,
                        "value": 0
                    },
                    {
                        "number": 64,
                        "time": 158.26783425833347,
                        "value": 1
                    },
                    {
                        "number": 64,
                        "time": 158.7234796854168,
                        "value": 0
                    },
                    {
                        "number": 64,
                        "time": 158.76541519375013,
                        "value": 1
                    },
                    {
                        "number": 64,
                        "time": 159.09686700000012,
                        "value": 0
                    },
                    {
                        "number": 64,
                        "time": 159.2629961291668,
                        "value": 1
                    },
                    {
                        "number": 64,
                        "time": 161.41944900000013,
                        "value": 0
                    },
                    {
                        "number": 64,
                        "time": 161.5855781291668,
                        "value": 1
                    },
                    {
                        "number": 64,
                        "time": 162.96783700000015,
                        "value": 0
                    },
                    {
                        "number": 64,
                        "time": 163.01138541250015,
                        "value": 1
                    },
                    {
                        "number": 64,
                        "time": 163.75251487708348,
                        "value": 0
                    },
                    {
                        "number": 64,
                        "time": 163.90816012916682,
                        "value": 1
                    },
                    {
                        "number": 64,
                        "time": 166.0750968770835,
                        "value": 0
                    },
                    {
                        "number": 64,
                        "time": 166.23074212916683,
                        "value": 1
                    },
                    {
                        "number": 64,
                        "time": 166.84767797291684,
                        "value": 0
                    },
                    {
                        "number": 64,
                        "time": 166.98638773125018,
                        "value": 1
                    },
                    {
                        "number": 64,
                        "time": 168.3976788770835,
                        "value": 0
                    },
                    {
                        "number": 64,
                        "time": 168.55332412916684,
                        "value": 1
                    },
                    {
                        "number": 64,
                        "time": 169.17025997291685,
                        "value": 0
                    },
                    {
                        "number": 64,
                        "time": 169.3089697312502,
                        "value": 1
                    },
                    {
                        "number": 64,
                        "time": 170.72026087708352,
                        "value": 0
                    },
                    {
                        "number": 64,
                        "time": 170.78397059166684,
                        "value": 1
                    },
                    {
                        "number": 64,
                        "time": 171.00574491458352,
                        "value": 0
                    },
                    {
                        "number": 64,
                        "time": 171.13961596041685,
                        "value": 1
                    },
                    {
                        "number": 64,
                        "time": 171.28235797916685,
                        "value": 0
                    },
                    {
                        "number": 64,
                        "time": 171.52751941250017,
                        "value": 1
                    },
                    {
                        "number": 64,
                        "time": 171.63800334791682,
                        "value": 0
                    },
                    {
                        "number": 64,
                        "time": 171.94526159166682,
                        "value": 1
                    },
                    {
                        "number": 64,
                        "time": 172.1670359145835,
                        "value": 0
                    },
                    {
                        "number": 64,
                        "time": 172.30090696041682,
                        "value": 1
                    },
                    {
                        "number": 64,
                        "time": 172.44364897916682,
                        "value": 0
                    },
                    {
                        "number": 64,
                        "time": 172.68881041250015,
                        "value": 1
                    },
                    {
                        "number": 64,
                        "time": 172.7992943479168,
                        "value": 0
                    },
                    {
                        "number": 64,
                        "time": 173.1065525916668,
                        "value": 1
                    },
                    {
                        "number": 64,
                        "time": 173.32832691458347,
                        "value": 0
                    },
                    {
                        "number": 64,
                        "time": 173.4621979604168,
                        "value": 1
                    },
                    {
                        "number": 64,
                        "time": 173.6049399791668,
                        "value": 0
                    },
                    {
                        "number": 64,
                        "time": 173.85010141250012,
                        "value": 1
                    },
                    {
                        "number": 64,
                        "time": 173.96058534791678,
                        "value": 0
                    },
                    {
                        "number": 64,
                        "time": 174.26784359166678,
                        "value": 1
                    },
                    {
                        "number": 64,
                        "time": 174.48961791458345,
                        "value": 0
                    },
                    {
                        "number": 64,
                        "time": 174.62348896041678,
                        "value": 1
                    },
                    {
                        "number": 64,
                        "time": 174.76623097916678,
                        "value": 0
                    },
                    {
                        "number": 64,
                        "time": 175.0113924125001,
                        "value": 1
                    },
                    {
                        "number": 64,
                        "time": 175.12187634791675,
                        "value": 0
                    },
                    {
                        "number": 64,
                        "time": 175.54848950000007,
                        "value": 1
                    },
                    {
                        "number": 64,
                        "time": 176.81461927083342,
                        "value": 0
                    },
                    {
                        "number": 64,
                        "time": 176.97671613958343,
                        "value": 1
                    },
                    {
                        "number": 64,
                        "time": 177.29607116458342,
                        "value": 0
                    },
                    {
                        "number": 64,
                        "time": 177.3702647562501,
                        "value": 1
                    },
                    {
                        "number": 64,
                        "time": 177.6823617125001,
                        "value": 0
                    },
                    {
                        "number": 64,
                        "time": 177.93558766666678,
                        "value": 1
                    },
                    {
                        "number": 64,
                        "time": 179.13316901041676,
                        "value": 0
                    },
                    {
                        "number": 64,
                        "time": 179.2718787687501,
                        "value": 1
                    },
                    {
                        "number": 64,
                        "time": 179.38881432083343,
                        "value": 0
                    },
                    {
                        "number": 64,
                        "time": 179.6565564125001,
                        "value": 1
                    },
                    {
                        "number": 64,
                        "time": 179.76865325208342,
                        "value": 0
                    },
                    {
                        "number": 64,
                        "time": 180.1936535000001,
                        "value": 1
                    },
                    {
                        "number": 64,
                        "time": 181.4638155312501,
                        "value": 0
                    },
                    {
                        "number": 64,
                        "time": 181.62268659166676,
                        "value": 1
                    },
                    {
                        "number": 64,
                        "time": 181.76542861041676,
                        "value": 0
                    },
                    {
                        "number": 64,
                        "time": 181.9912351937501,
                        "value": 1
                    },
                    {
                        "number": 64,
                        "time": 182.0831707312501,
                        "value": 0
                    },
                    {
                        "number": 64,
                        "time": 182.5162355000001,
                        "value": 1
                    },
                    {
                        "number": 64,
                        "time": 183.78639753125012,
                        "value": 0
                    },
                    {
                        "number": 64,
                        "time": 183.94526859166677,
                        "value": 1
                    },
                    {
                        "number": 64,
                        "time": 184.0476880062501,
                        "value": 0
                    },
                    {
                        "number": 64,
                        "time": 184.3138171937501,
                        "value": 1
                    },
                    {
                        "number": 64,
                        "time": 184.40575273125012,
                        "value": 0
                    },
                    {
                        "number": 64,
                        "time": 184.83881750000012,
                        "value": 1
                    },
                    {
                        "number": 64,
                        "time": 186.10897953125013,
                        "value": 0
                    },
                    {
                        "number": 64,
                        "time": 186.2678505916668,
                        "value": 1
                    },
                    {
                        "number": 64,
                        "time": 186.37349581458346,
                        "value": 0
                    },
                    {
                        "number": 64,
                        "time": 186.63639919375012,
                        "value": 1
                    },
                    {
                        "number": 64,
                        "time": 186.72833473125013,
                        "value": 0
                    },
                    {
                        "number": 64,
                        "time": 187.16139950000013,
                        "value": 1
                    },
                    {
                        "number": 64,
                        "time": 187.75010952083346,
                        "value": 0
                    },
                    {
                        "number": 64,
                        "time": 187.95736770625012,
                        "value": 1
                    },
                    {
                        "number": 64,
                        "time": 188.51946480833345,
                        "value": 0
                    },
                    {
                        "number": 64,
                        "time": 196.51624366666678,
                        "value": 1
                    },
                    {
                        "number": 64,
                        "time": 197.71543791458345,
                        "value": 0
                    },
                    {
                        "number": 64,
                        "time": 197.84930896041678,
                        "value": 1
                    },
                    {
                        "number": 64,
                        "time": 197.99205097916678,
                        "value": 0
                    },
                    {
                        "number": 64,
                        "time": 198.2372124125001,
                        "value": 1
                    },
                    {
                        "number": 64,
                        "time": 198.34769634791675,
                        "value": 0
                    },
                    {
                        "number": 64,
                        "time": 198.77430950000007,
                        "value": 1
                    },
                    {
                        "number": 64,
                        "time": 200.04043927083342,
                        "value": 0
                    },
                    {
                        "number": 64,
                        "time": 200.20253613958343,
                        "value": 1
                    },
                    {
                        "number": 64,
                        "time": 200.52189116458342,
                        "value": 0
                    },
                    {
                        "number": 64,
                        "time": 200.5960847562501,
                        "value": 1
                    },
                    {
                        "number": 64,
                        "time": 200.9081817125001,
                        "value": 0
                    },
                    {
                        "number": 64,
                        "time": 201.16140766666678,
                        "value": 1
                    },
                    {
                        "number": 64,
                        "time": 202.35898901041676,
                        "value": 0
                    },
                    {
                        "number": 64,
                        "time": 202.46947294583342,
                        "value": 1
                    },
                    {
                        "number": 64,
                        "time": 202.7501182708334,
                        "value": 0
                    },
                    {
                        "number": 64,
                        "time": 202.88237641250007,
                        "value": 1
                    },
                    {
                        "number": 64,
                        "time": 203.13640881875006,
                        "value": 0
                    },
                    {
                        "number": 64,
                        "time": 203.41947350000007,
                        "value": 1
                    },
                    {
                        "number": 64,
                        "time": 204.68963553125008,
                        "value": 0
                    },
                    {
                        "number": 64,
                        "time": 204.84850659166673,
                        "value": 1
                    },
                    {
                        "number": 64,
                        "time": 204.99124861041673,
                        "value": 0
                    },
                    {
                        "number": 64,
                        "time": 205.21705519375007,
                        "value": 1
                    },
                    {
                        "number": 64,
                        "time": 205.30899073125008,
                        "value": 0
                    },
                    {
                        "number": 64,
                        "time": 205.74205550000008,
                        "value": 1
                    },
                    {
                        "number": 64,
                        "time": 207.0122175312501,
                        "value": 0
                    },
                    {
                        "number": 64,
                        "time": 207.17108859166675,
                        "value": 1
                    },
                    {
                        "number": 64,
                        "time": 207.27350800625007,
                        "value": 0
                    },
                    {
                        "number": 64,
                        "time": 207.53963719375008,
                        "value": 1
                    },
                    {
                        "number": 64,
                        "time": 207.6315727312501,
                        "value": 0
                    },
                    {
                        "number": 64,
                        "time": 208.0646375000001,
                        "value": 1
                    },
                    {
                        "number": 64,
                        "time": 209.3347995312501,
                        "value": 0
                    },
                    {
                        "number": 64,
                        "time": 209.49367059166676,
                        "value": 1
                    },
                    {
                        "number": 64,
                        "time": 209.59931581458343,
                        "value": 0
                    },
                    {
                        "number": 64,
                        "time": 209.8622191937501,
                        "value": 1
                    },
                    {
                        "number": 64,
                        "time": 209.9541547312501,
                        "value": 0
                    },
                    {
                        "number": 64,
                        "time": 210.3872195000001,
                        "value": 1
                    },
                    {
                        "number": 64,
                        "time": 210.97592952083343,
                        "value": 0
                    },
                    {
                        "number": 64,
                        "time": 211.1831877062501,
                        "value": 1
                    },
                    {
                        "number": 64,
                        "time": 211.74528480833342,
                        "value": 0
                    },
                    {
                        "number": 64,
                        "time": 219.64690232083342,
                        "value": 1
                    },
                    {
                        "number": 64,
                        "time": 220.94367727083343,
                        "value": 0
                    },
                    {
                        "number": 64,
                        "time": 221.10577413958345,
                        "value": 1
                    },
                    {
                        "number": 64,
                        "time": 221.42512916458344,
                        "value": 0
                    },
                    {
                        "number": 64,
                        "time": 221.4993227562501,
                        "value": 1
                    },
                    {
                        "number": 64,
                        "time": 221.8114197125001,
                        "value": 0
                    },
                    {
                        "number": 64,
                        "time": 222.0646456666668,
                        "value": 1
                    },
                    {
                        "number": 64,
                        "time": 223.26222701041678,
                        "value": 0
                    },
                    {
                        "number": 64,
                        "time": 223.37271094583343,
                        "value": 1
                    },
                    {
                        "number": 64,
                        "time": 223.65335627083343,
                        "value": 0
                    },
                    {
                        "number": 64,
                        "time": 223.78561441250008,
                        "value": 1
                    },
                    {
                        "number": 64,
                        "time": 224.03964681875007,
                        "value": 0
                    },
                    {
                        "number": 64,
                        "time": 224.32271150000008,
                        "value": 1
                    },
                    {
                        "number": 64,
                        "time": 225.58480901041676,
                        "value": 0
                    },
                    {
                        "number": 64,
                        "time": 225.69529294583342,
                        "value": 1
                    },
                    {
                        "number": 64,
                        "time": 225.9759382708334,
                        "value": 0
                    },
                    {
                        "number": 64,
                        "time": 226.10819641250006,
                        "value": 1
                    },
                    {
                        "number": 64,
                        "time": 226.36222881875005,
                        "value": 0
                    },
                    {
                        "number": 64,
                        "time": 226.64529350000007,
                        "value": 1
                    },
                    {
                        "number": 64,
                        "time": 228.00013300000006,
                        "value": 0
                    },
                    {
                        "number": 64,
                        "time": 228.19368150000005,
                        "value": 1
                    },
                    {
                        "number": 64,
                        "time": 231.49207052083338,
                        "value": 0
                    },
                    {
                        "number": 64,
                        "time": 231.72836098125003,
                        "value": 1
                    },
                    {
                        "number": 64,
                        "time": 231.88158687708338,
                        "value": 0
                    },
                    {
                        "number": 64,
                        "time": 232.03400632083338,
                        "value": 1
                    },
                    {
                        "number": 64,
                        "time": 233.81626542500004,
                        "value": 0
                    },
                    {
                        "number": 64,
                        "time": 233.9291687166667,
                        "value": 1
                    },
                    {
                        "number": 64,
                        "time": 234.20174952083337,
                        "value": 0
                    },
                    {
                        "number": 64,
                        "time": 234.33642701875004,
                        "value": 1
                    },
                    {
                        "number": 64,
                        "time": 234.97513706875003,
                        "value": 0
                    },
                    {
                        "number": 64,
                        "time": 235.17191137708338,
                        "value": 1
                    },
                    {
                        "number": 64,
                        "time": 235.36465342500003,
                        "value": 0
                    },
                    {
                        "number": 64,
                        "time": 235.53884707500004,
                        "value": 1
                    },
                    {
                        "number": 64,
                        "time": 236.13158935625003,
                        "value": 0
                    },
                    {
                        "number": 64,
                        "time": 236.36626691250004,
                        "value": 1
                    },
                    {
                        "number": 64,
                        "time": 237.30255778125004,
                        "value": 0
                    },
                    {
                        "number": 64,
                        "time": 237.47433207500004,
                        "value": 1
                    },
                    {
                        "number": 64,
                        "time": 237.6888483291667,
                        "value": 0
                    },
                    {
                        "number": 64,
                        "time": 237.86142907500002,
                        "value": 1
                    },
                    {
                        "number": 64,
                        "time": 238.10820341250002,
                        "value": 0
                    },
                    {
                        "number": 64,
                        "time": 238.36626807916667,
                        "value": 1
                    },
                    {
                        "number": 64,
                        "time": 240.00497871250002,
                        "value": 0
                    },
                    {
                        "number": 64,
                        "time": 240.20417237708335,
                        "value": 1
                    },
                    {
                        "number": 64,
                        "time": 240.40014023333336,
                        "value": 0
                    },
                    {
                        "number": 64,
                        "time": 240.60255970625002,
                        "value": 1
                    },
                    {
                        "number": 64,
                        "time": 242.7146577125,
                        "value": 0
                    },
                    {
                        "number": 64,
                        "time": 242.913044925,
                        "value": 1
                    },
                    {
                        "number": 64,
                        "time": 245.04449778125002,
                        "value": 0
                    },
                    {
                        "number": 64,
                        "time": 245.216272075,
                        "value": 1
                    },
                    {
                        "number": 64,
                        "time": 245.42998187708335,
                        "value": 0
                    },
                    {
                        "number": 64,
                        "time": 245.58240132083336,
                        "value": 1
                    },
                    {
                        "number": 64,
                        "time": 245.81949823333335,
                        "value": 0
                    },
                    {
                        "number": 64,
                        "time": 246.03078867916668,
                        "value": 1
                    },
                    {
                        "number": 64,
                        "time": 246.193692,
                        "value": 0
                    },
                    {
                        "number": 64,
                        "time": 246.34127273125,
                        "value": 1
                    },
                    {
                        "number": 64,
                        "time": 246.59127287708333,
                        "value": 0
                    },
                    {
                        "number": 64,
                        "time": 246.72836973124998,
                        "value": 1
                    },
                    {
                        "number": 64,
                        "time": 246.97917632916665,
                        "value": 0
                    },
                    {
                        "number": 64,
                        "time": 247.13401512916664,
                        "value": 1
                    },
                    {
                        "number": 64,
                        "time": 247.36143461666663,
                        "value": 0
                    },
                    {
                        "number": 64,
                        "time": 247.59207991249997,
                        "value": 1
                    },
                    {
                        "number": 64,
                        "time": 248.1372415208333,
                        "value": 0
                    },
                    {
                        "number": 64,
                        "time": 248.2799835395833,
                        "value": 1
                    },
                    {
                        "number": 64,
                        "time": 248.90337099999996,
                        "value": 0
                    },
                    {
                        "number": 64,
                        "time": 249.09691949999996,
                        "value": 1
                    },
                    {
                        "number": 64,
                        "time": 252.39530852083328,
                        "value": 0
                    },
                    {
                        "number": 64,
                        "time": 252.63159898124994,
                        "value": 1
                    },
                    {
                        "number": 64,
                        "time": 252.78482487708328,
                        "value": 0
                    },
                    {
                        "number": 64,
                        "time": 252.9372443208333,
                        "value": 1
                    },
                    {
                        "number": 64,
                        "time": 254.71950342499994,
                        "value": 0
                    },
                    {
                        "number": 64,
                        "time": 254.8324067166666,
                        "value": 1
                    },
                    {
                        "number": 64,
                        "time": 255.10498752083328,
                        "value": 0
                    },
                    {
                        "number": 64,
                        "time": 255.23966501874995,
                        "value": 1
                    },
                    {
                        "number": 64,
                        "time": 255.87837506874993,
                        "value": 0
                    },
                    {
                        "number": 64,
                        "time": 256.0751493770833,
                        "value": 1
                    },
                    {
                        "number": 64,
                        "time": 256.26789142499996,
                        "value": 0
                    },
                    {
                        "number": 64,
                        "time": 256.44208507499997,
                        "value": 1
                    },
                    {
                        "number": 64,
                        "time": 257.03482735625,
                        "value": 0
                    },
                    {
                        "number": 64,
                        "time": 257.2695049125,
                        "value": 1
                    },
                    {
                        "number": 64,
                        "time": 258.20579578125,
                        "value": 0
                    },
                    {
                        "number": 64,
                        "time": 258.377570075,
                        "value": 1
                    },
                    {
                        "number": 64,
                        "time": 258.59208632916665,
                        "value": 0
                    },
                    {
                        "number": 64,
                        "time": 258.764667075,
                        "value": 1
                    },
                    {
                        "number": 64,
                        "time": 259.0114414125,
                        "value": 0
                    },
                    {
                        "number": 64,
                        "time": 259.26950607916666,
                        "value": 1
                    },
                    {
                        "number": 64,
                        "time": 260.9082167125,
                        "value": 0
                    },
                    {
                        "number": 64,
                        "time": 261.10741037708334,
                        "value": 1
                    },
                    {
                        "number": 64,
                        "time": 261.3033782333333,
                        "value": 0
                    },
                    {
                        "number": 64,
                        "time": 261.50579770625,
                        "value": 1
                    },
                    {
                        "number": 64,
                        "time": 263.6178957125,
                        "value": 0
                    },
                    {
                        "number": 64,
                        "time": 263.816282925,
                        "value": 1
                    },
                    {
                        "number": 64,
                        "time": 265.94773578125,
                        "value": 0
                    },
                    {
                        "number": 64,
                        "time": 266.119510075,
                        "value": 1
                    },
                    {
                        "number": 64,
                        "time": 266.3332198770833,
                        "value": 0
                    },
                    {
                        "number": 64,
                        "time": 266.4856393208333,
                        "value": 1
                    },
                    {
                        "number": 64,
                        "time": 266.7227362333333,
                        "value": 0
                    },
                    {
                        "number": 64,
                        "time": 266.93402667916666,
                        "value": 1
                    },
                    {
                        "number": 64,
                        "time": 267.09693,
                        "value": 0
                    },
                    {
                        "number": 64,
                        "time": 267.24451073125,
                        "value": 1
                    },
                    {
                        "number": 64,
                        "time": 267.4945108770833,
                        "value": 0
                    },
                    {
                        "number": 64,
                        "time": 267.63160773124997,
                        "value": 1
                    },
                    {
                        "number": 64,
                        "time": 267.88241432916664,
                        "value": 0
                    },
                    {
                        "number": 64,
                        "time": 268.03725312916663,
                        "value": 1
                    },
                    {
                        "number": 64,
                        "time": 268.26467261666664,
                        "value": 0
                    },
                    {
                        "number": 64,
                        "time": 268.49531791249996,
                        "value": 1
                    },
                    {
                        "number": 64,
                        "time": 269.0404795208333,
                        "value": 0
                    },
                    {
                        "number": 64,
                        "time": 269.1832215395833,
                        "value": 1
                    },
                    {
                        "number": 64,
                        "time": 269.806609,
                        "value": 0
                    },
                    {
                        "number": 64,
                        "time": 270.0001575,
                        "value": 1
                    },
                    {
                        "number": 64,
                        "time": 270.58402880833336,
                        "value": 0
                    },
                    {
                        "number": 64,
                        "time": 270.8824160791667,
                        "value": 1
                    },
                    {
                        "number": 64,
                        "time": 273.2985465208334,
                        "value": 0
                    },
                    {
                        "number": 64,
                        "time": 273.53483698125007,
                        "value": 1
                    },
                    {
                        "number": 64,
                        "time": 273.6880628770834,
                        "value": 0
                    },
                    {
                        "number": 64,
                        "time": 273.84048232083336,
                        "value": 1
                    },
                    {
                        "number": 64,
                        "time": 275.2291928083334,
                        "value": 0
                    },
                    {
                        "number": 64,
                        "time": 275.52758007916674,
                        "value": 1
                    },
                    {
                        "number": 64,
                        "time": 277.9437105208334,
                        "value": 0
                    },
                    {
                        "number": 64,
                        "time": 278.1800009812501,
                        "value": 1
                    },
                    {
                        "number": 64,
                        "time": 278.3332268770834,
                        "value": 0
                    },
                    {
                        "number": 64,
                        "time": 278.4856463208334,
                        "value": 1
                    },
                    {
                        "number": 64,
                        "time": 279.8743568083334,
                        "value": 0
                    },
                    {
                        "number": 64,
                        "time": 280.17274407916676,
                        "value": 1
                    },
                    {
                        "number": 64,
                        "time": 282.9783908770834,
                        "value": 0
                    },
                    {
                        "number": 64,
                        "time": 283.1896813229168,
                        "value": 1
                    },
                    {
                        "number": 64,
                        "time": 284.5195208083334,
                        "value": 0
                    },
                    {
                        "number": 64,
                        "time": 284.8179080791668,
                        "value": 1
                    },
                    {
                        "number": 64,
                        "time": 286.84210280833344,
                        "value": 0
                    },
                    {
                        "number": 64,
                        "time": 287.1404900791668,
                        "value": 1
                    },
                    {
                        "number": 64,
                        "time": 289.1735557812501,
                        "value": 0
                    },
                    {
                        "number": 64,
                        "time": 289.6348463729168,
                        "value": 1
                    },
                    {
                        "number": 64,
                        "time": 291.4896861645835,
                        "value": 0
                    },
                    {
                        "number": 64,
                        "time": 291.7421056666668,
                        "value": 1
                    },
                    {
                        "number": 64,
                        "time": 292.6509771645835,
                        "value": 0
                    },
                    {
                        "number": 64,
                        "time": 292.83888050000013,
                        "value": 1
                    },
                    {
                        "number": 64,
                        "time": 293.8154939729168,
                        "value": 0
                    },
                    {
                        "number": 64,
                        "time": 294.0864618729168,
                        "value": 1
                    },
                    {
                        "number": 64,
                        "time": 294.9767849729168,
                        "value": 0
                    },
                    {
                        "number": 64,
                        "time": 295.2477528729168,
                        "value": 1
                    },
                    {
                        "number": 64,
                        "time": 296.13404371250016,
                        "value": 0
                    },
                    {
                        "number": 64,
                        "time": 296.4517858333335,
                        "value": 1
                    },
                    {
                        "number": 64,
                        "time": 300.77436900000015,
                        "value": 0
                    },
                    {
                        "number": 64,
                        "time": 301.16146600000013,
                        "value": 1
                    },
                    {
                        "number": 64,
                        "time": 303.0969510000001,
                        "value": 0
                    },
                    {
                        "number": 64,
                        "time": 303.23969301875013,
                        "value": 1
                    },
                    {
                        "number": 64,
                        "time": 303.4921125208335,
                        "value": 0
                    },
                    {
                        "number": 64,
                        "time": 303.72840298125016,
                        "value": 1
                    },
                    {
                        "number": 64,
                        "time": 303.8816288770835,
                        "value": 0
                    },
                    {
                        "number": 64,
                        "time": 304.03404832083345,
                        "value": 1
                    },
                    {
                        "number": 64,
                        "time": 305.8163074250001,
                        "value": 0
                    },
                    {
                        "number": 64,
                        "time": 305.9292107166668,
                        "value": 1
                    },
                    {
                        "number": 64,
                        "time": 306.20179152083347,
                        "value": 0
                    },
                    {
                        "number": 64,
                        "time": 306.3364690187501,
                        "value": 1
                    },
                    {
                        "number": 64,
                        "time": 306.9751790687501,
                        "value": 0
                    },
                    {
                        "number": 64,
                        "time": 307.1719533770834,
                        "value": 1
                    },
                    {
                        "number": 64,
                        "time": 307.3646954250001,
                        "value": 0
                    },
                    {
                        "number": 64,
                        "time": 307.5388890750001,
                        "value": 1
                    },
                    {
                        "number": 64,
                        "time": 308.1316313562501,
                        "value": 0
                    },
                    {
                        "number": 64,
                        "time": 308.36630891250013,
                        "value": 1
                    },
                    {
                        "number": 64,
                        "time": 309.30259978125014,
                        "value": 0
                    },
                    {
                        "number": 64,
                        "time": 309.4743740750001,
                        "value": 1
                    },
                    {
                        "number": 64,
                        "time": 309.6888903291668,
                        "value": 0
                    },
                    {
                        "number": 64,
                        "time": 309.8614710750001,
                        "value": 1
                    },
                    {
                        "number": 64,
                        "time": 310.10824541250014,
                        "value": 0
                    },
                    {
                        "number": 64,
                        "time": 310.3663100791668,
                        "value": 1
                    },
                    {
                        "number": 64,
                        "time": 312.00502071250014,
                        "value": 0
                    },
                    {
                        "number": 64,
                        "time": 312.2042143770835,
                        "value": 1
                    },
                    {
                        "number": 64,
                        "time": 312.40018223333345,
                        "value": 0
                    },
                    {
                        "number": 64,
                        "time": 312.60260170625014,
                        "value": 1
                    },
                    {
                        "number": 64,
                        "time": 314.71469971250013,
                        "value": 0
                    },
                    {
                        "number": 64,
                        "time": 314.91308692500013,
                        "value": 1
                    },
                    {
                        "number": 64,
                        "time": 317.04453978125014,
                        "value": 0
                    },
                    {
                        "number": 64,
                        "time": 317.2163140750001,
                        "value": 1
                    },
                    {
                        "number": 64,
                        "time": 317.43002387708344,
                        "value": 0
                    },
                    {
                        "number": 64,
                        "time": 317.5824433208334,
                        "value": 1
                    },
                    {
                        "number": 64,
                        "time": 317.81954023333344,
                        "value": 0
                    },
                    {
                        "number": 64,
                        "time": 318.0308306791668,
                        "value": 1
                    },
                    {
                        "number": 64,
                        "time": 318.1937340000001,
                        "value": 0
                    },
                    {
                        "number": 64,
                        "time": 318.3413147312501,
                        "value": 1
                    },
                    {
                        "number": 64,
                        "time": 318.59131487708345,
                        "value": 0
                    },
                    {
                        "number": 64,
                        "time": 318.7284117312501,
                        "value": 1
                    },
                    {
                        "number": 64,
                        "time": 318.97921832916677,
                        "value": 0
                    },
                    {
                        "number": 64,
                        "time": 319.13405712916676,
                        "value": 1
                    },
                    {
                        "number": 64,
                        "time": 319.3614766166668,
                        "value": 0
                    },
                    {
                        "number": 64,
                        "time": 319.5921219125001,
                        "value": 1
                    },
                    {
                        "number": 64,
                        "time": 320.1372835208334,
                        "value": 0
                    },
                    {
                        "number": 64,
                        "time": 320.28002553958345,
                        "value": 1
                    },
                    {
                        "number": 64,
                        "time": 320.9034130000001,
                        "value": 0
                    },
                    {
                        "number": 64,
                        "time": 321.09696150000013,
                        "value": 1
                    },
                    {
                        "number": 64,
                        "time": 321.6808328083335,
                        "value": 0
                    },
                    {
                        "number": 64,
                        "time": 321.97922007916685,
                        "value": 1
                    },
                    {
                        "number": 64,
                        "time": 324.3953505208335,
                        "value": 0
                    },
                    {
                        "number": 64,
                        "time": 324.6316409812502,
                        "value": 1
                    },
                    {
                        "number": 64,
                        "time": 324.7848668770835,
                        "value": 0
                    },
                    {
                        "number": 64,
                        "time": 324.9372863208335,
                        "value": 1
                    },
                    {
                        "number": 64,
                        "time": 326.3259968083335,
                        "value": 0
                    },
                    {
                        "number": 64,
                        "time": 326.6243840791669,
                        "value": 1
                    },
                    {
                        "number": 64,
                        "time": 329.04051452083354,
                        "value": 0
                    },
                    {
                        "number": 64,
                        "time": 329.2768049812502,
                        "value": 1
                    },
                    {
                        "number": 64,
                        "time": 329.43003087708354,
                        "value": 0
                    },
                    {
                        "number": 64,
                        "time": 329.5824503208335,
                        "value": 1
                    },
                    {
                        "number": 64,
                        "time": 330.97116080833354,
                        "value": 0
                    },
                    {
                        "number": 64,
                        "time": 331.2695480791669,
                        "value": 1
                    },
                    {
                        "number": 64,
                        "time": 334.07519487708356,
                        "value": 0
                    },
                    {
                        "number": 64,
                        "time": 334.2864853229169,
                        "value": 1
                    },
                    {
                        "number": 64,
                        "time": 335.61632480833356,
                        "value": 0
                    },
                    {
                        "number": 64,
                        "time": 335.9147120791669,
                        "value": 1
                    },
                    {
                        "number": 64,
                        "time": 337.93890680833357,
                        "value": 0
                    },
                    {
                        "number": 64,
                        "time": 338.23729407916693,
                        "value": 1
                    },
                    {
                        "number": 64,
                        "time": 340.27035978125025,
                        "value": 0
                    },
                    {
                        "number": 64,
                        "time": 340.73165037291693,
                        "value": 1
                    },
                    {
                        "number": 64,
                        "time": 342.5864901645836,
                        "value": 0
                    },
                    {
                        "number": 64,
                        "time": 342.83890966666695,
                        "value": 1
                    },
                    {
                        "number": 64,
                        "time": 343.7477811645836,
                        "value": 0
                    },
                    {
                        "number": 64,
                        "time": 343.93568450000026,
                        "value": 1
                    },
                    {
                        "number": 64,
                        "time": 344.9122979729169,
                        "value": 0
                    },
                    {
                        "number": 64,
                        "time": 345.18326587291693,
                        "value": 1
                    },
                    {
                        "number": 64,
                        "time": 346.0735889729169,
                        "value": 0
                    },
                    {
                        "number": 64,
                        "time": 346.34455687291694,
                        "value": 1
                    },
                    {
                        "number": 64,
                        "time": 347.2308477125003,
                        "value": 0
                    },
                    {
                        "number": 64,
                        "time": 347.5485898333336,
                        "value": 1
                    },
                    {
                        "number": 64,
                        "time": 351.8711730000003,
                        "value": 0
                    },
                    {
                        "number": 64,
                        "time": 352.25827000000027,
                        "value": 1
                    },
                    {
                        "number": 64,
                        "time": 354.19375500000024,
                        "value": 0
                    },
                    {
                        "number": 64,
                        "time": 354.33649701875026,
                        "value": 1
                    },
                    {
                        "number": 64,
                        "time": 354.5889165208336,
                        "value": 0
                    },
                    {
                        "number": 64,
                        "time": 354.8252069812503,
                        "value": 1
                    },
                    {
                        "number": 64,
                        "time": 354.9784328770836,
                        "value": 0
                    },
                    {
                        "number": 64,
                        "time": 355.1308523208336,
                        "value": 1
                    },
                    {
                        "number": 64,
                        "time": 356.91311142500024,
                        "value": 0
                    },
                    {
                        "number": 64,
                        "time": 357.0260147166669,
                        "value": 1
                    },
                    {
                        "number": 64,
                        "time": 357.2985955208336,
                        "value": 0
                    },
                    {
                        "number": 64,
                        "time": 357.43327301875024,
                        "value": 1
                    },
                    {
                        "number": 64,
                        "time": 358.0719830687502,
                        "value": 0
                    },
                    {
                        "number": 64,
                        "time": 358.26875737708355,
                        "value": 1
                    },
                    {
                        "number": 64,
                        "time": 358.4614994250002,
                        "value": 0
                    },
                    {
                        "number": 64,
                        "time": 358.63569307500023,
                        "value": 1
                    },
                    {
                        "number": 64,
                        "time": 359.22843535625026,
                        "value": 0
                    },
                    {
                        "number": 64,
                        "time": 359.46311291250026,
                        "value": 1
                    },
                    {
                        "number": 64,
                        "time": 360.39940378125027,
                        "value": 0
                    },
                    {
                        "number": 64,
                        "time": 360.57117807500026,
                        "value": 1
                    },
                    {
                        "number": 64,
                        "time": 360.7856943291669,
                        "value": 0
                    },
                    {
                        "number": 64,
                        "time": 360.95827507500024,
                        "value": 1
                    },
                    {
                        "number": 64,
                        "time": 361.2050494125003,
                        "value": 0
                    },
                    {
                        "number": 64,
                        "time": 361.4631140791669,
                        "value": 1
                    },
                    {
                        "number": 64,
                        "time": 363.1018247125003,
                        "value": 0
                    },
                    {
                        "number": 64,
                        "time": 363.3010183770836,
                        "value": 1
                    },
                    {
                        "number": 64,
                        "time": 363.4969862333336,
                        "value": 0
                    },
                    {
                        "number": 64,
                        "time": 363.6994057062503,
                        "value": 1
                    },
                    {
                        "number": 64,
                        "time": 365.81150371250027,
                        "value": 0
                    },
                    {
                        "number": 64,
                        "time": 366.00989092500026,
                        "value": 1
                    },
                    {
                        "number": 64,
                        "time": 368.14134378125027,
                        "value": 0
                    },
                    {
                        "number": 64,
                        "time": 368.31311807500026,
                        "value": 1
                    },
                    {
                        "number": 64,
                        "time": 368.5268278770836,
                        "value": 0
                    },
                    {
                        "number": 64,
                        "time": 368.67924732083355,
                        "value": 1
                    },
                    {
                        "number": 64,
                        "time": 368.9163442333336,
                        "value": 0
                    },
                    {
                        "number": 64,
                        "time": 369.12763467916693,
                        "value": 1
                    },
                    {
                        "number": 64,
                        "time": 369.29053800000025,
                        "value": 0
                    },
                    {
                        "number": 64,
                        "time": 369.43811873125026,
                        "value": 1
                    },
                    {
                        "number": 64,
                        "time": 369.6881188770836,
                        "value": 0
                    },
                    {
                        "number": 64,
                        "time": 369.82521573125024,
                        "value": 1
                    },
                    {
                        "number": 64,
                        "time": 370.0760223291669,
                        "value": 0
                    },
                    {
                        "number": 64,
                        "time": 370.2308611291669,
                        "value": 1
                    },
                    {
                        "number": 64,
                        "time": 370.4582806166669,
                        "value": 0
                    },
                    {
                        "number": 64,
                        "time": 370.6889259125002,
                        "value": 1
                    },
                    {
                        "number": 64,
                        "time": 371.23408752083355,
                        "value": 0
                    },
                    {
                        "number": 64,
                        "time": 371.3768295395836,
                        "value": 1
                    },
                    {
                        "number": 64,
                        "time": 373.5574759729169,
                        "value": 0
                    },
                    {
                        "number": 64,
                        "time": 373.6994115395836,
                        "value": 1
                    },
                    {
                        "number": 64,
                        "time": 374.7187669729169,
                        "value": 0
                    },
                    {
                        "number": 64,
                        "time": 374.8469928541669,
                        "value": 1
                    },
                    {
                        "number": 64,
                        "time": 375.1010252604169,
                        "value": 0
                    },
                    {
                        "number": 64,
                        "time": 375.4026383395836,
                        "value": 1
                    },
                    {
                        "number": 64,
                        "time": 376.6566713291669,
                        "value": 0
                    },
                    {
                        "number": 64,
                        "time": 376.79376818333355,
                        "value": 1
                    },
                    {
                        "number": 64,
                        "time": 377.4236072604169,
                        "value": 0
                    },
                    {
                        "number": 64,
                        "time": 377.72522033958353,
                        "value": 1
                    },
                    {
                        "number": 64,
                        "time": 378.97925332916685,
                        "value": 0
                    },
                    {
                        "number": 64,
                        "time": 379.1163501833335,
                        "value": 1
                    },
                    {
                        "number": 64,
                        "time": 379.7461892604168,
                        "value": 0
                    },
                    {
                        "number": 64,
                        "time": 380.0478023395835,
                        "value": 1
                    },
                    {
                        "number": 64,
                        "time": 380.90748026041683,
                        "value": 0
                    },
                    {
                        "number": 64,
                        "time": 381.2090933395835,
                        "value": 1
                    },
                    {
                        "number": 64,
                        "time": 383.5050624208335,
                        "value": 0
                    },
                    {
                        "number": 64,
                        "time": 383.63086894583347,
                        "value": 1
                    },
                    {
                        "number": 64,
                        "time": 383.9115142708335,
                        "value": 0
                    },
                    {
                        "number": 64,
                        "time": 384.0437724125002,
                        "value": 1
                    },
                    {
                        "number": 64,
                        "time": 384.2978048187502,
                        "value": 0
                    },
                    {
                        "number": 64,
                        "time": 384.5808695000002,
                        "value": 1
                    },
                    {
                        "number": 64,
                        "time": 385.85103153125016,
                        "value": 0
                    },
                    {
                        "number": 64,
                        "time": 386.00990259166684,
                        "value": 1
                    },
                    {
                        "number": 64,
                        "time": 386.3284511645835,
                        "value": 0
                    },
                    {
                        "number": 64,
                        "time": 386.9034515000002,
                        "value": 1
                    },
                    {
                        "number": 64,
                        "time": 388.16958127083353,
                        "value": 0
                    },
                    {
                        "number": 64,
                        "time": 388.7252267562502,
                        "value": 1
                    },
                    {
                        "number": 64,
                        "time": 389.0373237125002,
                        "value": 0
                    },
                    {
                        "number": 64,
                        "time": 389.2905496666669,
                        "value": 1
                    },
                    {
                        "number": 64,
                        "time": 390.3961954729169,
                        "value": 0
                    },
                    {
                        "number": 64,
                        "time": 391.4840993333335,
                        "value": 1
                    },
                    {
                        "number": 64,
                        "time": 392.8607130395835,
                        "value": 0
                    },
                    {
                        "number": 64,
                        "time": 400.9357177500002,
                        "value": 1
                    },
                    {
                        "number": 64,
                        "time": 402.10910553125024,
                        "value": 0
                    },
                    {
                        "number": 64,
                        "time": 402.2679765916669,
                        "value": 1
                    },
                    {
                        "number": 64,
                        "time": 402.5865251645836,
                        "value": 0
                    },
                    {
                        "number": 64,
                        "time": 402.6591058520836,
                        "value": 1
                    },
                    {
                        "number": 64,
                        "time": 402.9695899041669,
                        "value": 0
                    },
                    {
                        "number": 64,
                        "time": 403.16152550000027,
                        "value": 1
                    },
                    {
                        "number": 64,
                        "time": 404.43168753125025,
                        "value": 0
                    },
                    {
                        "number": 64,
                        "time": 404.59055859166693,
                        "value": 1
                    },
                    {
                        "number": 64,
                        "time": 404.9091071645836,
                        "value": 0
                    },
                    {
                        "number": 64,
                        "time": 404.9816878520836,
                        "value": 1
                    },
                    {
                        "number": 64,
                        "time": 405.29217190416693,
                        "value": 0
                    },
                    {
                        "number": 64,
                        "time": 405.4841075000003,
                        "value": 1
                    },
                    {
                        "number": 64,
                        "time": 406.6962049812503,
                        "value": 0
                    },
                    {
                        "number": 64,
                        "time": 406.8566889458336,
                        "value": 1
                    },
                    {
                        "number": 64,
                        "time": 407.1373342708336,
                        "value": 0
                    },
                    {
                        "number": 64,
                        "time": 407.2695924125003,
                        "value": 1
                    },
                    {
                        "number": 64,
                        "time": 407.5236248187503,
                        "value": 0
                    },
                    {
                        "number": 64,
                        "time": 407.8066895000003,
                        "value": 1
                    },
                    {
                        "number": 64,
                        "time": 409.07685153125027,
                        "value": 0
                    },
                    {
                        "number": 64,
                        "time": 409.23572259166696,
                        "value": 1
                    },
                    {
                        "number": 64,
                        "time": 409.5542711645836,
                        "value": 0
                    },
                    {
                        "number": 64,
                        "time": 410.1292715000003,
                        "value": 1
                    },
                    {
                        "number": 64,
                        "time": 411.39540127083364,
                        "value": 0
                    },
                    {
                        "number": 64,
                        "time": 411.9510467562503,
                        "value": 1
                    },
                    {
                        "number": 64,
                        "time": 412.2631437125003,
                        "value": 0
                    },
                    {
                        "number": 64,
                        "time": 412.516369666667,
                        "value": 1
                    },
                    {
                        "number": 64,
                        "time": 413.04056352083364,
                        "value": 0
                    },
                    {
                        "number": 64,
                        "time": 413.20507974583364,
                        "value": 1
                    },
                    {
                        "number": 64,
                        "time": 413.622015472917,
                        "value": 0
                    },
                    {
                        "number": 64,
                        "time": 414.70991933333363,
                        "value": 1
                    },
                    {
                        "number": 64,
                        "time": 416.0865330395836,
                        "value": 0
                    },
                    {
                        "number": 64,
                        "time": 424.1615377500003,
                        "value": 1
                    },
                    {
                        "number": 64,
                        "time": 425.33492553125035,
                        "value": 0
                    },
                    {
                        "number": 64,
                        "time": 425.49379659166704,
                        "value": 1
                    },
                    {
                        "number": 64,
                        "time": 425.8123451645837,
                        "value": 0
                    },
                    {
                        "number": 64,
                        "time": 425.8849258520837,
                        "value": 1
                    },
                    {
                        "number": 64,
                        "time": 426.19540990416704,
                        "value": 0
                    },
                    {
                        "number": 64,
                        "time": 426.3873455000004,
                        "value": 1
                    },
                    {
                        "number": 64,
                        "time": 427.65750753125036,
                        "value": 0
                    },
                    {
                        "number": 64,
                        "time": 427.81637859166705,
                        "value": 1
                    },
                    {
                        "number": 64,
                        "time": 428.1349271645837,
                        "value": 0
                    },
                    {
                        "number": 64,
                        "time": 428.2075078520837,
                        "value": 1
                    },
                    {
                        "number": 64,
                        "time": 428.51799190416705,
                        "value": 0
                    },
                    {
                        "number": 64,
                        "time": 428.7099275000004,
                        "value": 1
                    },
                    {
                        "number": 64,
                        "time": 429.9220249812504,
                        "value": 0
                    },
                    {
                        "number": 64,
                        "time": 430.1075089604171,
                        "value": 1
                    },
                    {
                        "number": 64,
                        "time": 430.2502509791671,
                        "value": 0
                    },
                    {
                        "number": 64,
                        "time": 430.49541241250046,
                        "value": 1
                    },
                    {
                        "number": 64,
                        "time": 430.6058963479171,
                        "value": 0
                    },
                    {
                        "number": 64,
                        "time": 431.03250950000046,
                        "value": 1
                    },
                    {
                        "number": 64,
                        "time": 432.30267153125044,
                        "value": 0
                    },
                    {
                        "number": 64,
                        "time": 432.43573612500046,
                        "value": 1
                    },
                    {
                        "number": 64,
                        "time": 432.56396200625045,
                        "value": 0
                    },
                    {
                        "number": 64,
                        "time": 432.81799441250047,
                        "value": 1
                    },
                    {
                        "number": 64,
                        "time": 432.93654286875045,
                        "value": 0
                    },
                    {
                        "number": 64,
                        "time": 433.35509150000047,
                        "value": 1
                    },
                    {
                        "number": 64,
                        "time": 434.62525353125045,
                        "value": 0
                    },
                    {
                        "number": 64,
                        "time": 434.75831812500047,
                        "value": 1
                    },
                    {
                        "number": 64,
                        "time": 434.85993108750046,
                        "value": 0
                    },
                    {
                        "number": 64,
                        "time": 435.1405764125005,
                        "value": 1
                    },
                    {
                        "number": 64,
                        "time": 435.2542861562505,
                        "value": 0
                    },
                    {
                        "number": 64,
                        "time": 435.5325121250005,
                        "value": 1
                    },
                    {
                        "number": 64,
                        "time": 435.6341250875005,
                        "value": 0
                    },
                    {
                        "number": 64,
                        "time": 435.90589943958383,
                        "value": 1
                    },
                    {
                        "number": 64,
                        "time": 436.0075124020838,
                        "value": 0
                    },
                    {
                        "number": 64,
                        "time": 436.29944805625047,
                        "value": 1
                    },
                    {
                        "number": 64,
                        "time": 436.40106101875045,
                        "value": 0
                    },
                    {
                        "number": 64,
                        "time": 436.6817063437505,
                        "value": 1
                    },
                    {
                        "number": 64,
                        "time": 436.8131580333338,
                        "value": 0
                    },
                    {
                        "number": 64,
                        "time": 437.22606150000047,
                        "value": 1
                    },
                    {
                        "number": 64,
                        "time": 437.8196102333338,
                        "value": 0
                    },
                    {
                        "number": 64,
                        "time": 437.95509418333376,
                        "value": 1
                    },
                    {
                        "number": 64,
                        "time": 438.59380423333374,
                        "value": 0
                    },
                    {
                        "number": 64,
                        "time": 438.7292881833337,
                        "value": 1
                    },
                    {
                        "number": 64,
                        "time": 439.36557887708375,
                        "value": 0
                    },
                    {
                        "number": 64,
                        "time": 440.27767618333377,
                        "value": 1
                    },
                    {
                        "number": 64,
                        "time": 440.91638623333375,
                        "value": 0
                    },
                    {
                        "number": 64,
                        "time": 441.05187018333373,
                        "value": 1
                    },
                    {
                        "number": 64,
                        "time": 441.5929995312504,
                        "value": 0
                    },
                    {
                        "number": 64,
                        "time": 441.6228382583338,
                        "value": 1
                    },
                    {
                        "number": 64,
                        "time": 442.0784836854171,
                        "value": 0
                    },
                    {
                        "number": 64,
                        "time": 442.1204191937504,
                        "value": 1
                    },
                    {
                        "number": 64,
                        "time": 442.45187100000044,
                        "value": 0
                    },
                    {
                        "number": 64,
                        "time": 442.6180001291671,
                        "value": 1
                    },
                    {
                        "number": 64,
                        "time": 444.77445300000045,
                        "value": 0
                    },
                    {
                        "number": 64,
                        "time": 444.9405821291671,
                        "value": 1
                    },
                    {
                        "number": 64,
                        "time": 446.32284100000044,
                        "value": 0
                    },
                    {
                        "number": 64,
                        "time": 446.36638941250044,
                        "value": 1
                    },
                    {
                        "number": 64,
                        "time": 447.10751887708375,
                        "value": 0
                    },
                    {
                        "number": 64,
                        "time": 447.2631641291671,
                        "value": 1
                    },
                    {
                        "number": 64,
                        "time": 449.43010087708376,
                        "value": 0
                    },
                    {
                        "number": 64,
                        "time": 449.5857461291671,
                        "value": 1
                    },
                    {
                        "number": 64,
                        "time": 450.2026819729171,
                        "value": 0
                    },
                    {
                        "number": 64,
                        "time": 450.34139173125044,
                        "value": 1
                    },
                    {
                        "number": 64,
                        "time": 450.8833275312504,
                        "value": 0
                    },
                    {
                        "number": 64,
                        "time": 450.9131662583338,
                        "value": 1
                    },
                    {
                        "number": 64,
                        "time": 451.3688116854171,
                        "value": 0
                    },
                    {
                        "number": 64,
                        "time": 451.4107471937504,
                        "value": 1
                    },
                    {
                        "number": 64,
                        "time": 451.7421990000004,
                        "value": 0
                    },
                    {
                        "number": 64,
                        "time": 451.9083281291671,
                        "value": 1
                    },
                    {
                        "number": 64,
                        "time": 454.06478100000044,
                        "value": 0
                    },
                    {
                        "number": 64,
                        "time": 454.2309101291671,
                        "value": 1
                    },
                    {
                        "number": 64,
                        "time": 455.6131690000004,
                        "value": 0
                    },
                    {
                        "number": 64,
                        "time": 455.6567174125004,
                        "value": 1
                    },
                    {
                        "number": 64,
                        "time": 456.39784687708374,
                        "value": 0
                    },
                    {
                        "number": 64,
                        "time": 456.55349212916707,
                        "value": 1
                    },
                    {
                        "number": 64,
                        "time": 458.72042887708375,
                        "value": 0
                    },
                    {
                        "number": 64,
                        "time": 458.8760741291671,
                        "value": 1
                    },
                    {
                        "number": 64,
                        "time": 459.4930099729171,
                        "value": 0
                    },
                    {
                        "number": 64,
                        "time": 459.6317197312504,
                        "value": 1
                    },
                    {
                        "number": 64,
                        "time": 461.04301087708376,
                        "value": 0
                    },
                    {
                        "number": 64,
                        "time": 461.1986561291671,
                        "value": 1
                    },
                    {
                        "number": 64,
                        "time": 461.8155919729171,
                        "value": 0
                    },
                    {
                        "number": 64,
                        "time": 461.95430173125044,
                        "value": 1
                    },
                    {
                        "number": 64,
                        "time": 463.36559287708377,
                        "value": 0
                    },
                    {
                        "number": 64,
                        "time": 463.4293025916671,
                        "value": 1
                    },
                    {
                        "number": 64,
                        "time": 463.65107691458377,
                        "value": 0
                    },
                    {
                        "number": 64,
                        "time": 463.7849479604171,
                        "value": 1
                    },
                    {
                        "number": 64,
                        "time": 463.92768997916716,
                        "value": 0
                    },
                    {
                        "number": 64,
                        "time": 464.1728514125005,
                        "value": 1
                    },
                    {
                        "number": 64,
                        "time": 464.28333534791716,
                        "value": 0
                    },
                    {
                        "number": 64,
                        "time": 464.5905935916672,
                        "value": 1
                    },
                    {
                        "number": 64,
                        "time": 464.81236791458383,
                        "value": 0
                    },
                    {
                        "number": 64,
                        "time": 464.9462389604172,
                        "value": 1
                    },
                    {
                        "number": 64,
                        "time": 465.0889809791672,
                        "value": 0
                    },
                    {
                        "number": 64,
                        "time": 465.33414241250057,
                        "value": 1
                    },
                    {
                        "number": 64,
                        "time": 465.4446263479172,
                        "value": 0
                    },
                    {
                        "number": 64,
                        "time": 465.75188459166725,
                        "value": 1
                    },
                    {
                        "number": 64,
                        "time": 465.9736589145839,
                        "value": 0
                    },
                    {
                        "number": 64,
                        "time": 466.10752996041725,
                        "value": 1
                    },
                    {
                        "number": 64,
                        "time": 466.2502719791673,
                        "value": 0
                    },
                    {
                        "number": 64,
                        "time": 466.49543341250063,
                        "value": 1
                    },
                    {
                        "number": 64,
                        "time": 466.6059173479173,
                        "value": 0
                    },
                    {
                        "number": 64,
                        "time": 466.9131755916673,
                        "value": 1
                    },
                    {
                        "number": 64,
                        "time": 467.13494991458396,
                        "value": 0
                    },
                    {
                        "number": 64,
                        "time": 467.2688209604173,
                        "value": 1
                    },
                    {
                        "number": 64,
                        "time": 467.41156297916734,
                        "value": 0
                    },
                    {
                        "number": 64,
                        "time": 467.6567244125007,
                        "value": 1
                    },
                    {
                        "number": 64,
                        "time": 467.76720834791735,
                        "value": 0
                    },
                    {
                        "number": 64,
                        "time": 468.1938215000007,
                        "value": 1
                    },
                    {
                        "number": 64,
                        "time": 469.45995127083404,
                        "value": 0
                    },
                    {
                        "number": 64,
                        "time": 469.622048139584,
                        "value": 1
                    },
                    {
                        "number": 64,
                        "time": 469.941403164584,
                        "value": 0
                    },
                    {
                        "number": 64,
                        "time": 470.01559675625066,
                        "value": 1
                    },
                    {
                        "number": 64,
                        "time": 470.32769371250066,
                        "value": 0
                    },
                    {
                        "number": 64,
                        "time": 470.58091966666734,
                        "value": 1
                    },
                    {
                        "number": 64,
                        "time": 471.105113520834,
                        "value": 0
                    },
                    {
                        "number": 64,
                        "time": 471.269629745834,
                        "value": 1
                    },
                    {
                        "number": 64,
                        "time": 471.7785010104173,
                        "value": 0
                    },
                    {
                        "number": 64,
                        "time": 471.88898494583395,
                        "value": 1
                    },
                    {
                        "number": 64,
                        "time": 472.169630270834,
                        "value": 0
                    },
                    {
                        "number": 64,
                        "time": 472.30188841250066,
                        "value": 1
                    },
                    {
                        "number": 64,
                        "time": 472.5559208187507,
                        "value": 0
                    },
                    {
                        "number": 64,
                        "time": 472.83898550000066,
                        "value": 1
                    },
                    {
                        "number": 64,
                        "time": 474.10914753125064,
                        "value": 0
                    },
                    {
                        "number": 64,
                        "time": 474.2680185916673,
                        "value": 1
                    },
                    {
                        "number": 64,
                        "time": 474.41076061041736,
                        "value": 0
                    },
                    {
                        "number": 64,
                        "time": 474.6365671937507,
                        "value": 1
                    },
                    {
                        "number": 64,
                        "time": 474.72850273125067,
                        "value": 0
                    },
                    {
                        "number": 64,
                        "time": 475.1615675000007,
                        "value": 1
                    },
                    {
                        "number": 64,
                        "time": 476.43172953125065,
                        "value": 0
                    },
                    {
                        "number": 64,
                        "time": 476.59060059166734,
                        "value": 1
                    },
                    {
                        "number": 64,
                        "time": 476.69302000625066,
                        "value": 0
                    },
                    {
                        "number": 64,
                        "time": 476.95914919375065,
                        "value": 1
                    },
                    {
                        "number": 64,
                        "time": 477.0510847312506,
                        "value": 0
                    },
                    {
                        "number": 64,
                        "time": 477.4841495000006,
                        "value": 1
                    },
                    {
                        "number": 64,
                        "time": 478.7543115312506,
                        "value": 0
                    },
                    {
                        "number": 64,
                        "time": 478.9131825916673,
                        "value": 1
                    },
                    {
                        "number": 64,
                        "time": 479.018827814584,
                        "value": 0
                    },
                    {
                        "number": 64,
                        "time": 479.28173119375066,
                        "value": 1
                    },
                    {
                        "number": 64,
                        "time": 479.37366673125064,
                        "value": 0
                    },
                    {
                        "number": 64,
                        "time": 479.80673150000064,
                        "value": 1
                    },
                    {
                        "number": 64,
                        "time": 480.39544152083397,
                        "value": 0
                    },
                    {
                        "number": 64,
                        "time": 480.60269970625063,
                        "value": 1
                    },
                    {
                        "number": 64,
                        "time": 481.16479680833396,
                        "value": 0
                    },
                    {
                        "number": 64,
                        "time": 489.1615756666673,
                        "value": 1
                    },
                    {
                        "number": 64,
                        "time": 490.360769914584,
                        "value": 0
                    },
                    {
                        "number": 64,
                        "time": 490.49464096041737,
                        "value": 1
                    },
                    {
                        "number": 64,
                        "time": 490.6373829791674,
                        "value": 0
                    },
                    {
                        "number": 64,
                        "time": 490.88254441250075,
                        "value": 1
                    },
                    {
                        "number": 64,
                        "time": 490.9930283479174,
                        "value": 0
                    },
                    {
                        "number": 64,
                        "time": 491.41964150000075,
                        "value": 1
                    },
                    {
                        "number": 64,
                        "time": 492.6857712708341,
                        "value": 0
                    },
                    {
                        "number": 64,
                        "time": 492.8478681395841,
                        "value": 1
                    },
                    {
                        "number": 64,
                        "time": 493.1672231645841,
                        "value": 0
                    },
                    {
                        "number": 64,
                        "time": 493.2414167562507,
                        "value": 1
                    },
                    {
                        "number": 64,
                        "time": 493.5535137125007,
                        "value": 0
                    },
                    {
                        "number": 64,
                        "time": 493.8067396666674,
                        "value": 1
                    },
                    {
                        "number": 64,
                        "time": 495.0043210104174,
                        "value": 0
                    },
                    {
                        "number": 64,
                        "time": 495.11480494583407,
                        "value": 1
                    },
                    {
                        "number": 64,
                        "time": 495.3954502708341,
                        "value": 0
                    },
                    {
                        "number": 64,
                        "time": 495.5277084125008,
                        "value": 1
                    },
                    {
                        "number": 64,
                        "time": 495.7817408187508,
                        "value": 0
                    },
                    {
                        "number": 64,
                        "time": 496.0648055000008,
                        "value": 1
                    },
                    {
                        "number": 64,
                        "time": 497.33496753125075,
                        "value": 0
                    },
                    {
                        "number": 64,
                        "time": 497.49383859166744,
                        "value": 1
                    },
                    {
                        "number": 64,
                        "time": 497.63658061041747,
                        "value": 0
                    },
                    {
                        "number": 64,
                        "time": 497.8623871937508,
                        "value": 1
                    },
                    {
                        "number": 64,
                        "time": 497.9543227312508,
                        "value": 0
                    },
                    {
                        "number": 64,
                        "time": 498.3873875000008,
                        "value": 1
                    },
                    {
                        "number": 64,
                        "time": 499.65754953125077,
                        "value": 0
                    },
                    {
                        "number": 64,
                        "time": 499.81642059166745,
                        "value": 1
                    },
                    {
                        "number": 64,
                        "time": 499.9188400062508,
                        "value": 0
                    },
                    {
                        "number": 64,
                        "time": 500.18496919375076,
                        "value": 1
                    },
                    {
                        "number": 64,
                        "time": 500.27690473125074,
                        "value": 0
                    },
                    {
                        "number": 64,
                        "time": 500.70996950000074,
                        "value": 1
                    },
                    {
                        "number": 64,
                        "time": 501.9801315312507,
                        "value": 0
                    },
                    {
                        "number": 64,
                        "time": 502.1390025916674,
                        "value": 1
                    },
                    {
                        "number": 64,
                        "time": 502.2446478145841,
                        "value": 0
                    },
                    {
                        "number": 64,
                        "time": 502.50755119375077,
                        "value": 1
                    },
                    {
                        "number": 64,
                        "time": 502.59948673125075,
                        "value": 0
                    },
                    {
                        "number": 64,
                        "time": 503.03255150000075,
                        "value": 1
                    },
                    {
                        "number": 64,
                        "time": 503.6212615208341,
                        "value": 0
                    },
                    {
                        "number": 64,
                        "time": 503.82851970625075,
                        "value": 1
                    },
                    {
                        "number": 64,
                        "time": 504.3906168083341,
                        "value": 0
                    },
                    {
                        "number": 64,
                        "time": 512.292234320834,
                        "value": 1
                    },
                    {
                        "number": 64,
                        "time": 513.589009270834,
                        "value": 0
                    },
                    {
                        "number": 64,
                        "time": 513.7511061395841,
                        "value": 1
                    },
                    {
                        "number": 64,
                        "time": 514.0704611645841,
                        "value": 0
                    },
                    {
                        "number": 64,
                        "time": 514.1446547562508,
                        "value": 1
                    },
                    {
                        "number": 64,
                        "time": 514.4567517125008,
                        "value": 0
                    },
                    {
                        "number": 64,
                        "time": 514.7099776666674,
                        "value": 1
                    },
                    {
                        "number": 64,
                        "time": 515.9075590104175,
                        "value": 0
                    },
                    {
                        "number": 64,
                        "time": 516.0180429458342,
                        "value": 1
                    },
                    {
                        "number": 64,
                        "time": 516.2986882708342,
                        "value": 0
                    },
                    {
                        "number": 64,
                        "time": 516.4309464125008,
                        "value": 1
                    },
                    {
                        "number": 64,
                        "time": 516.6849788187508,
                        "value": 0
                    },
                    {
                        "number": 64,
                        "time": 516.7744950000008,
                        "value": 0
                    },
                    {
                        "number": 64,
                        "time": 516.9406241291674,
                        "value": 1
                    },
                    {
                        "number": 64,
                        "time": 519.0970770000007,
                        "value": 0
                    },
                    {
                        "number": 64,
                        "time": 519.2632061291673,
                        "value": 1
                    },
                    {
                        "number": 64,
                        "time": 520.6454650000006,
                        "value": 0
                    },
                    {
                        "number": 64,
                        "time": 520.6890134125006,
                        "value": 1
                    },
                    {
                        "number": 64,
                        "time": 521.4301428770839,
                        "value": 0
                    },
                    {
                        "number": 64,
                        "time": 521.5857881291672,
                        "value": 1
                    },
                    {
                        "number": 64,
                        "time": 523.7527248770839,
                        "value": 0
                    },
                    {
                        "number": 64,
                        "time": 523.9083701291672,
                        "value": 1
                    },
                    {
                        "number": 64,
                        "time": 524.5253059729172,
                        "value": 0
                    },
                    {
                        "number": 64,
                        "time": 524.6640157312505,
                        "value": 1
                    },
                    {
                        "number": 64,
                        "time": 525.2059515312505,
                        "value": 0
                    },
                    {
                        "number": 64,
                        "time": 525.2357902583339,
                        "value": 1
                    },
                    {
                        "number": 64,
                        "time": 525.6914356854172,
                        "value": 0
                    },
                    {
                        "number": 64,
                        "time": 525.7333711937506,
                        "value": 1
                    },
                    {
                        "number": 64,
                        "time": 526.0648230000006,
                        "value": 0
                    },
                    {
                        "number": 64,
                        "time": 526.2309521291672,
                        "value": 1
                    },
                    {
                        "number": 64,
                        "time": 528.3874050000005,
                        "value": 0
                    },
                    {
                        "number": 64,
                        "time": 528.5535341291671,
                        "value": 1
                    },
                    {
                        "number": 64,
                        "time": 529.9357930000004,
                        "value": 0
                    },
                    {
                        "number": 64,
                        "time": 529.9793414125004,
                        "value": 1
                    },
                    {
                        "number": 64,
                        "time": 530.7204708770837,
                        "value": 0
                    },
                    {
                        "number": 64,
                        "time": 530.876116129167,
                        "value": 1
                    },
                    {
                        "number": 64,
                        "time": 531.4938584250003,
                        "value": 0
                    },
                    {
                        "number": 64,
                        "time": 531.689019829167,
                        "value": 1
                    },
                    {
                        "number": 64,
                        "time": 533.0430528770837,
                        "value": 0
                    },
                    {
                        "number": 64,
                        "time": 533.198698129167,
                        "value": 1
                    },
                    {
                        "number": 64,
                        "time": 534.205150329167,
                        "value": 0
                    },
                    {
                        "number": 64,
                        "time": 534.2422471250004,
                        "value": 1
                    },
                    {
                        "number": 64,
                        "time": 535.3656348770837,
                        "value": 0
                    },
                    {
                        "number": 64,
                        "time": 535.521280129167,
                        "value": 1
                    },
                    {
                        "number": 64,
                        "time": 536.5188613562503,
                        "value": 0
                    },
                    {
                        "number": 64,
                        "time": 536.5962807562504,
                        "value": 1
                    },
                    {
                        "number": 64,
                        "time": 537.6882168770837,
                        "value": 0
                    },
                    {
                        "number": 64,
                        "time": 537.8438621291671,
                        "value": 1
                    },
                    {
                        "number": 64,
                        "time": 542.3333808770838,
                        "value": 0
                    },
                    {
                        "number": 64,
                        "time": 542.5051551708337,
                        "value": 1
                    },
                    {
                        "number": 64,
                        "time": 546.6027382062504,
                        "value": 0
                    }
                ]
            },
            "id": 3,
            "name": "Pedale",
            "instrumentNumber": 0,
            "instrument": "acoustic grand piano",
            "instrumentFamily": "piano",
            "channelNumber": 0,
            "isPercussion": false
        },
        {
            "startTime": 0,
            "duration": 0,
            "length": 0,
            "notes": [],
            "controlChanges": {},
            "id": 4,
            "name": "Schubert: Sonata D850, 3. movement"
        },
        {
            "startTime": 0,
            "duration": 0,
            "length": 0,
            "notes": [],
            "controlChanges": {},
            "id": 5,
            "name": "Copyright  2010 by Bernd Krueger"
        },
        {
            "startTime": 0,
            "duration": 0,
            "length": 0,
            "notes": [],
            "controlChanges": {},
            "id": 6,
            "name": "http://www.piano-midi.de/"
        },
        {
            "startTime": 0,
            "duration": 0,
            "length": 0,
            "notes": [],
            "controlChanges": {},
            "id": 7,
            "name": "Edition: 2014-03-13"
        },
        {
            "startTime": 0,
            "duration": 0,
            "length": 0,
            "notes": [],
            "controlChanges": {},
            "id": 8,
            "name": "Spur 8"
        },
        {
            "startTime": 0,
            "duration": 0,
            "length": 0,
            "notes": [],
            "controlChanges": {},
            "id": 9,
            "name": "Spur 9"
        },
        {
            "startTime": 0,
            "duration": 0,
            "length": 0,
            "notes": [],
            "controlChanges": {},
            "id": 10,
            "name": "Spur 10"
        },
        {
            "startTime": 0,
            "duration": 0,
            "length": 0,
            "notes": [],
            "controlChanges": {},
            "id": 11,
            "name": "Spur 11"
        },
        {
            "startTime": 0,
            "duration": 0,
            "length": 0,
            "notes": [],
            "controlChanges": {},
            "id": 12,
            "name": "Spur 12"
        },
        {
            "startTime": 0,
            "duration": 0,
            "length": 0,
            "notes": [],
            "controlChanges": {},
            "id": 13,
            "name": "Spur 13"
        },
        {
            "startTime": 0,
            "duration": 0,
            "length": 0,
            "notes": [],
            "controlChanges": {},
            "id": 14,
            "name": "Spur 14"
        },
        {
            "startTime": 0,
            "duration": 0,
            "length": 0,
            "notes": [],
            "controlChanges": {},
            "id": 15,
            "name": "Spur 15"
        },
        {
            "startTime": 0,
            "duration": 0,
            "length": 0,
            "notes": [],
            "controlChanges": {},
            "id": 16,
            "name": "Spur 16"
        }
    ]
}