{
    "header": {
        "PPQ": 480,
        "timeSignature": [
            4,
            4
        ],
        "bpm": 145.5099274147979,
        "name": "Wandererfantasie D760, 1. Satz"
    },
    "startTime": 0,
    "duration": 310.08193599999566,
    "tracks": [
        {
            "startTime": 0,
            "duration": 0,
            "length": 0,
            "notes": [],
            "controlChanges": {},
            "id": 0,
            "name": "Wandererfantasie D760, 1. Satz"
        },
        {
            "startTime": 0,
            "duration": 310.08193599999566,
            "length": 2592,
            "notes": [
                {
                    "name": "E3",
                    "midi": 52,
                    "time": 0,
                    "velocity": 0.5826771653543307,
                    "duration": 0.41234299999999996
                },
                {
                    "name": "G3",
                    "midi": 55,
                    "time": 0,
                    "velocity": 0.5826771653543307,
                    "duration": 0.41234299999999996
                },
                {
                    "name": "C4",
                    "midi": 60,
                    "time": 0,
                    "velocity": 0.5826771653543307,
                    "duration": 0.41234299999999996
                },
                {
                    "name": "E4",
                    "midi": 64,
                    "time": 0,
                    "velocity": 0.6929133858267716,
                    "duration": 0.41234299999999996
                },
                {
                    "name": "E3",
                    "midi": 52,
                    "time": 0.41234299999999996,
                    "velocity": 0.5511811023622047,
                    "duration": 0.10308575000000003
                },
                {
                    "name": "G3",
                    "midi": 55,
                    "time": 0.41234299999999996,
                    "velocity": 0.5511811023622047,
                    "duration": 0.10308575000000003
                },
                {
                    "name": "C4",
                    "midi": 60,
                    "time": 0.41234299999999996,
                    "velocity": 0.5511811023622047,
                    "duration": 0.10308575000000003
                },
                {
                    "name": "E4",
                    "midi": 64,
                    "time": 0.41234299999999996,
                    "velocity": 0.6535433070866141,
                    "duration": 0.10308575000000003
                },
                {
                    "name": "E3",
                    "midi": 52,
                    "time": 0.6185145,
                    "velocity": 0.5511811023622047,
                    "duration": 0.10308574999999998
                },
                {
                    "name": "G3",
                    "midi": 55,
                    "time": 0.6185145,
                    "velocity": 0.5511811023622047,
                    "duration": 0.10308574999999998
                },
                {
                    "name": "C4",
                    "midi": 60,
                    "time": 0.6185145,
                    "velocity": 0.5511811023622047,
                    "duration": 0.10308574999999998
                },
                {
                    "name": "E4",
                    "midi": 64,
                    "time": 0.6185145,
                    "velocity": 0.6535433070866141,
                    "duration": 0.10308574999999998
                },
                {
                    "name": "E3",
                    "midi": 52,
                    "time": 0.8246859999999999,
                    "velocity": 0.5826771653543307,
                    "duration": 0.412343
                },
                {
                    "name": "G3",
                    "midi": 55,
                    "time": 0.8246859999999999,
                    "velocity": 0.5826771653543307,
                    "duration": 0.412343
                },
                {
                    "name": "C4",
                    "midi": 60,
                    "time": 0.8246859999999999,
                    "velocity": 0.5826771653543307,
                    "duration": 0.412343
                },
                {
                    "name": "E4",
                    "midi": 64,
                    "time": 0.8246859999999999,
                    "velocity": 0.6929133858267716,
                    "duration": 0.412343
                },
                {
                    "name": "E3",
                    "midi": 52,
                    "time": 1.237029,
                    "velocity": 0.5433070866141733,
                    "duration": 0.10308574999999998
                },
                {
                    "name": "G3",
                    "midi": 55,
                    "time": 1.237029,
                    "velocity": 0.5433070866141733,
                    "duration": 0.10308574999999998
                },
                {
                    "name": "C4",
                    "midi": 60,
                    "time": 1.237029,
                    "velocity": 0.5433070866141733,
                    "duration": 0.10308574999999998
                },
                {
                    "name": "E4",
                    "midi": 64,
                    "time": 1.237029,
                    "velocity": 0.6456692913385826,
                    "duration": 0.10308574999999998
                },
                {
                    "name": "E3",
                    "midi": 52,
                    "time": 1.4432004999999999,
                    "velocity": 0.5433070866141733,
                    "duration": 0.10308574999999998
                },
                {
                    "name": "G3",
                    "midi": 55,
                    "time": 1.4432004999999999,
                    "velocity": 0.5433070866141733,
                    "duration": 0.10308574999999998
                },
                {
                    "name": "C4",
                    "midi": 60,
                    "time": 1.4432004999999999,
                    "velocity": 0.5433070866141733,
                    "duration": 0.10308574999999998
                },
                {
                    "name": "E4",
                    "midi": 64,
                    "time": 1.4432004999999999,
                    "velocity": 0.6456692913385826,
                    "duration": 0.10308574999999998
                },
                {
                    "name": "E3",
                    "midi": 52,
                    "time": 1.6493719999999998,
                    "velocity": 0.5826771653543307,
                    "duration": 0.20617149999999995
                },
                {
                    "name": "G3",
                    "midi": 55,
                    "time": 1.6493719999999998,
                    "velocity": 0.5826771653543307,
                    "duration": 0.20617149999999995
                },
                {
                    "name": "C4",
                    "midi": 60,
                    "time": 1.6493719999999998,
                    "velocity": 0.5826771653543307,
                    "duration": 0.20617149999999995
                },
                {
                    "name": "E4",
                    "midi": 64,
                    "time": 1.6493719999999998,
                    "velocity": 0.6929133858267716,
                    "duration": 0.20617149999999995
                },
                {
                    "name": "C3",
                    "midi": 48,
                    "time": 1.8555434999999998,
                    "velocity": 0.6220472440944882,
                    "duration": 0.10308574999999998
                },
                {
                    "name": "E3",
                    "midi": 52,
                    "time": 1.9586292499999998,
                    "velocity": 0.6377952755905512,
                    "duration": 0.1030857500000002
                },
                {
                    "name": "G3",
                    "midi": 55,
                    "time": 2.061715,
                    "velocity": 0.6535433070866141,
                    "duration": 0.10308574999999998
                },
                {
                    "name": "C4",
                    "midi": 60,
                    "time": 2.16480075,
                    "velocity": 0.6692913385826772,
                    "duration": 0.10308574999999998
                },
                {
                    "name": "E4",
                    "midi": 64,
                    "time": 2.2678865,
                    "velocity": 0.7007874015748031,
                    "duration": 0.10308574999999998
                },
                {
                    "name": "G4",
                    "midi": 67,
                    "time": 2.37097225,
                    "velocity": 0.7165354330708661,
                    "duration": 0.10308574999999998
                },
                {
                    "name": "B3",
                    "midi": 59,
                    "time": 2.474058,
                    "velocity": 0.6929133858267716,
                    "duration": 0.4123429999999999
                },
                {
                    "name": "B4",
                    "midi": 71,
                    "time": 2.474058,
                    "velocity": 0.6929133858267716,
                    "duration": 0.4123429999999999
                },
                {
                    "name": "C4",
                    "midi": 60,
                    "time": 2.8864009999999998,
                    "velocity": 0.5511811023622047,
                    "duration": 0.10308574999999998
                },
                {
                    "name": "C5",
                    "midi": 72,
                    "time": 2.8864009999999998,
                    "velocity": 0.6614173228346457,
                    "duration": 0.10308574999999998
                },
                {
                    "name": "C4",
                    "midi": 60,
                    "time": 3.0925724999999997,
                    "velocity": 0.5511811023622047,
                    "duration": 0.10308574999999998
                },
                {
                    "name": "C5",
                    "midi": 72,
                    "time": 3.0925724999999997,
                    "velocity": 0.6614173228346457,
                    "duration": 0.10308574999999998
                },
                {
                    "name": "F4",
                    "midi": 65,
                    "time": 3.2987439999999997,
                    "velocity": 0.5984251968503937,
                    "duration": 0.20617149999999995
                },
                {
                    "name": "G4",
                    "midi": 67,
                    "time": 3.2987439999999997,
                    "velocity": 0.5984251968503937,
                    "duration": 0.20617149999999995
                },
                {
                    "name": "B4",
                    "midi": 71,
                    "time": 3.2987439999999997,
                    "velocity": 0.7165354330708661,
                    "duration": 0.20617149999999995
                },
                {
                    "name": "C#5",
                    "midi": 73,
                    "time": 3.2987439999999997,
                    "velocity": 0.7165354330708661,
                    "duration": 0.20617149999999995
                },
                {
                    "name": "G4",
                    "midi": 67,
                    "time": 3.7110869999999996,
                    "velocity": 0.5590551181102362,
                    "duration": 0.20617149999999995
                },
                {
                    "name": "F4",
                    "midi": 65,
                    "time": 3.7110869999999996,
                    "velocity": 0.5590551181102362,
                    "duration": 0.20617149999999995
                },
                {
                    "name": "B4",
                    "midi": 71,
                    "time": 3.7110869999999996,
                    "velocity": 0.6692913385826772,
                    "duration": 0.20617149999999995
                },
                {
                    "name": "D5",
                    "midi": 74,
                    "time": 3.7110869999999996,
                    "velocity": 0.6692913385826772,
                    "duration": 0.20617149999999995
                },
                {
                    "name": "F3",
                    "midi": 53,
                    "time": 4.948116,
                    "velocity": 0.5039370078740157,
                    "duration": 0.4123429999999999
                },
                {
                    "name": "G3",
                    "midi": 55,
                    "time": 4.948116,
                    "velocity": 0.5039370078740157,
                    "duration": 0.4123429999999999
                },
                {
                    "name": "B3",
                    "midi": 59,
                    "time": 4.948116,
                    "velocity": 0.5039370078740157,
                    "duration": 0.4123429999999999
                },
                {
                    "name": "D4",
                    "midi": 62,
                    "time": 4.948116,
                    "velocity": 0.5984251968503937,
                    "duration": 0.4123429999999999
                },
                {
                    "name": "F3",
                    "midi": 53,
                    "time": 5.360459,
                    "velocity": 0.47244094488188976,
                    "duration": 0.10308574999999998
                },
                {
                    "name": "G3",
                    "midi": 55,
                    "time": 5.360459,
                    "velocity": 0.47244094488188976,
                    "duration": 0.10308574999999998
                },
                {
                    "name": "B3",
                    "midi": 59,
                    "time": 5.360459,
                    "velocity": 0.47244094488188976,
                    "duration": 0.10308574999999998
                },
                {
                    "name": "D4",
                    "midi": 62,
                    "time": 5.360459,
                    "velocity": 0.5669291338582677,
                    "duration": 0.10308574999999998
                },
                {
                    "name": "F3",
                    "midi": 53,
                    "time": 5.5666305,
                    "velocity": 0.47244094488188976,
                    "duration": 0.10308574999999998
                },
                {
                    "name": "G3",
                    "midi": 55,
                    "time": 5.5666305,
                    "velocity": 0.47244094488188976,
                    "duration": 0.10308574999999998
                },
                {
                    "name": "B3",
                    "midi": 59,
                    "time": 5.5666305,
                    "velocity": 0.47244094488188976,
                    "duration": 0.10308574999999998
                },
                {
                    "name": "D4",
                    "midi": 62,
                    "time": 5.5666305,
                    "velocity": 0.5669291338582677,
                    "duration": 0.10308574999999998
                },
                {
                    "name": "F3",
                    "midi": 53,
                    "time": 5.7728019999999995,
                    "velocity": 0.5039370078740157,
                    "duration": 0.4123429999999999
                },
                {
                    "name": "G3",
                    "midi": 55,
                    "time": 5.7728019999999995,
                    "velocity": 0.5039370078740157,
                    "duration": 0.4123429999999999
                },
                {
                    "name": "B3",
                    "midi": 59,
                    "time": 5.7728019999999995,
                    "velocity": 0.5039370078740157,
                    "duration": 0.4123429999999999
                },
                {
                    "name": "D4",
                    "midi": 62,
                    "time": 5.7728019999999995,
                    "velocity": 0.5984251968503937,
                    "duration": 0.4123429999999999
                },
                {
                    "name": "F3",
                    "midi": 53,
                    "time": 6.1851449999999994,
                    "velocity": 0.4645669291338583,
                    "duration": 0.10308574999999998
                },
                {
                    "name": "G3",
                    "midi": 55,
                    "time": 6.1851449999999994,
                    "velocity": 0.4645669291338583,
                    "duration": 0.10308574999999998
                },
                {
                    "name": "B3",
                    "midi": 59,
                    "time": 6.1851449999999994,
                    "velocity": 0.4645669291338583,
                    "duration": 0.10308574999999998
                },
                {
                    "name": "D4",
                    "midi": 62,
                    "time": 6.1851449999999994,
                    "velocity": 0.5590551181102362,
                    "duration": 0.10308574999999998
                },
                {
                    "name": "F3",
                    "midi": 53,
                    "time": 6.391316499999999,
                    "velocity": 0.4645669291338583,
                    "duration": 0.10308574999999998
                },
                {
                    "name": "G3",
                    "midi": 55,
                    "time": 6.391316499999999,
                    "velocity": 0.4645669291338583,
                    "duration": 0.10308574999999998
                },
                {
                    "name": "B3",
                    "midi": 59,
                    "time": 6.391316499999999,
                    "velocity": 0.4645669291338583,
                    "duration": 0.10308574999999998
                },
                {
                    "name": "D4",
                    "midi": 62,
                    "time": 6.391316499999999,
                    "velocity": 0.5590551181102362,
                    "duration": 0.10308574999999998
                },
                {
                    "name": "F3",
                    "midi": 53,
                    "time": 6.597487999999999,
                    "velocity": 0.5039370078740157,
                    "duration": 0.20617149999999995
                },
                {
                    "name": "G3",
                    "midi": 55,
                    "time": 6.597487999999999,
                    "velocity": 0.5039370078740157,
                    "duration": 0.20617149999999995
                },
                {
                    "name": "B3",
                    "midi": 59,
                    "time": 6.597487999999999,
                    "velocity": 0.5039370078740157,
                    "duration": 0.20617149999999995
                },
                {
                    "name": "D4",
                    "midi": 62,
                    "time": 6.597487999999999,
                    "velocity": 0.5984251968503937,
                    "duration": 0.20617149999999995
                },
                {
                    "name": "G3",
                    "midi": 55,
                    "time": 6.803659499999999,
                    "velocity": 0.5354330708661418,
                    "duration": 0.10308574999999998
                },
                {
                    "name": "B3",
                    "midi": 59,
                    "time": 6.906745249999999,
                    "velocity": 0.5511811023622047,
                    "duration": 0.10308574999999998
                },
                {
                    "name": "D4",
                    "midi": 62,
                    "time": 7.009830999999999,
                    "velocity": 0.5669291338582677,
                    "duration": 0.10308574999999998
                },
                {
                    "name": "F4",
                    "midi": 65,
                    "time": 7.112916749999999,
                    "velocity": 0.5826771653543307,
                    "duration": 0.10308574999999998
                },
                {
                    "name": "G4",
                    "midi": 67,
                    "time": 7.216002499999999,
                    "velocity": 0.5984251968503937,
                    "duration": 0.10308574999999998
                },
                {
                    "name": "B4",
                    "midi": 71,
                    "time": 7.319088249999999,
                    "velocity": 0.6141732283464567,
                    "duration": 0.10308574999999998
                },
                {
                    "name": "C#4",
                    "midi": 61,
                    "time": 7.422173999999999,
                    "velocity": 0.6929133858267716,
                    "duration": 0.4123429999999999
                },
                {
                    "name": "C#5",
                    "midi": 73,
                    "time": 7.422173999999999,
                    "velocity": 0.6929133858267716,
                    "duration": 0.4123429999999999
                },
                {
                    "name": "D4",
                    "midi": 62,
                    "time": 7.834516999999999,
                    "velocity": 0.5511811023622047,
                    "duration": 0.10308574999999998
                },
                {
                    "name": "D5",
                    "midi": 74,
                    "time": 7.834516999999999,
                    "velocity": 0.6535433070866141,
                    "duration": 0.10308574999999998
                },
                {
                    "name": "D4",
                    "midi": 62,
                    "time": 8.0406885,
                    "velocity": 0.5511811023622047,
                    "duration": 0.10308574999999998
                },
                {
                    "name": "D5",
                    "midi": 74,
                    "time": 8.0406885,
                    "velocity": 0.6535433070866141,
                    "duration": 0.10308574999999998
                },
                {
                    "name": "D#4",
                    "midi": 63,
                    "time": 8.24686,
                    "velocity": 0.6062992125984252,
                    "duration": 0.20617149999999995
                },
                {
                    "name": "G4",
                    "midi": 67,
                    "time": 8.24686,
                    "velocity": 0.6062992125984252,
                    "duration": 0.20617149999999995
                },
                {
                    "name": "C5",
                    "midi": 72,
                    "time": 8.24686,
                    "velocity": 0.7165354330708661,
                    "duration": 0.20617149999999995
                },
                {
                    "name": "D#5",
                    "midi": 75,
                    "time": 8.24686,
                    "velocity": 0.7165354330708661,
                    "duration": 0.20617149999999995
                },
                {
                    "name": "G4",
                    "midi": 67,
                    "time": 8.659203,
                    "velocity": 0.5590551181102362,
                    "duration": 0.20617149999999995
                },
                {
                    "name": "E4",
                    "midi": 64,
                    "time": 8.659203,
                    "velocity": 0.5590551181102362,
                    "duration": 0.20617149999999995
                },
                {
                    "name": "C5",
                    "midi": 72,
                    "time": 8.659203,
                    "velocity": 0.6614173228346457,
                    "duration": 0.20617149999999995
                },
                {
                    "name": "E5",
                    "midi": 76,
                    "time": 8.659203,
                    "velocity": 0.6614173228346457,
                    "duration": 0.20617149999999995
                },
                {
                    "name": "G3",
                    "midi": 55,
                    "time": 9.2777175,
                    "velocity": 0.5039370078740157,
                    "duration": 0.10308574999999998
                },
                {
                    "name": "C4",
                    "midi": 60,
                    "time": 9.38080325,
                    "velocity": 0.5196850393700787,
                    "duration": 0.10308574999999998
                },
                {
                    "name": "E4",
                    "midi": 64,
                    "time": 9.483889,
                    "velocity": 0.5354330708661418,
                    "duration": 0.10308574999999998
                },
                {
                    "name": "G4",
                    "midi": 67,
                    "time": 9.58697475,
                    "velocity": 0.5511811023622047,
                    "duration": 0.10308574999999998
                },
                {
                    "name": "C5",
                    "midi": 72,
                    "time": 9.6900605,
                    "velocity": 0.5669291338582677,
                    "duration": 0.10308574999999998
                },
                {
                    "name": "E5",
                    "midi": 76,
                    "time": 9.79314625,
                    "velocity": 0.5826771653543307,
                    "duration": 0.10308574999999998
                },
                {
                    "name": "G4",
                    "midi": 67,
                    "time": 9.896232,
                    "velocity": 0.5196850393700787,
                    "duration": 0.4123429999999999
                },
                {
                    "name": "E5",
                    "midi": 76,
                    "time": 9.896232,
                    "velocity": 0.5196850393700787,
                    "duration": 0.4123429999999999
                },
                {
                    "name": "G5",
                    "midi": 79,
                    "time": 9.896232,
                    "velocity": 0.6141732283464567,
                    "duration": 0.4123429999999999
                },
                {
                    "name": "G4",
                    "midi": 67,
                    "time": 10.308575,
                    "velocity": 0.4566929133858268,
                    "duration": 0.19586292500000013
                },
                {
                    "name": "E5",
                    "midi": 76,
                    "time": 10.308575,
                    "velocity": 0.4566929133858268,
                    "duration": 0.19586292500000013
                },
                {
                    "name": "G5",
                    "midi": 79,
                    "time": 10.308575,
                    "velocity": 0.5511811023622047,
                    "duration": 0.19586292500000013
                },
                {
                    "name": "G4",
                    "midi": 67,
                    "time": 10.5147465,
                    "velocity": 0.4566929133858268,
                    "duration": 0.19586292500000013
                },
                {
                    "name": "E5",
                    "midi": 76,
                    "time": 10.5147465,
                    "velocity": 0.4566929133858268,
                    "duration": 0.19586292500000013
                },
                {
                    "name": "G5",
                    "midi": 79,
                    "time": 10.5147465,
                    "velocity": 0.5511811023622047,
                    "duration": 0.19586292500000013
                },
                {
                    "name": "G4",
                    "midi": 67,
                    "time": 10.720918,
                    "velocity": 0.5118110236220472,
                    "duration": 0.6185144999999999
                },
                {
                    "name": "D5",
                    "midi": 74,
                    "time": 10.720918,
                    "velocity": 0.5118110236220472,
                    "duration": 0.6185144999999999
                },
                {
                    "name": "G5",
                    "midi": 79,
                    "time": 10.720918,
                    "velocity": 0.6141732283464567,
                    "duration": 0.6185144999999999
                },
                {
                    "name": "G4",
                    "midi": 67,
                    "time": 11.3394325,
                    "velocity": 0.5275590551181102,
                    "duration": 0.20617149999999995
                },
                {
                    "name": "D5",
                    "midi": 74,
                    "time": 11.3394325,
                    "velocity": 0.5275590551181102,
                    "duration": 0.20617149999999995
                },
                {
                    "name": "G5",
                    "midi": 79,
                    "time": 11.3394325,
                    "velocity": 0.6299212598425197,
                    "duration": 0.20617149999999995
                },
                {
                    "name": "C5",
                    "midi": 72,
                    "time": 11.545603999999999,
                    "velocity": 0.5826771653543307,
                    "duration": 0.40804776041666635
                },
                {
                    "name": "G5",
                    "midi": 79,
                    "time": 11.545603999999999,
                    "velocity": 0.5826771653543307,
                    "duration": 0.40804776041666635
                },
                {
                    "name": "C6",
                    "midi": 84,
                    "time": 11.545603999999999,
                    "velocity": 0.6929133858267716,
                    "duration": 0.40804776041666635
                },
                {
                    "name": "C5",
                    "midi": 72,
                    "time": 11.957946999999999,
                    "velocity": 0.49606299212598426,
                    "duration": 0.19586292500000013
                },
                {
                    "name": "F#5",
                    "midi": 78,
                    "time": 11.957946999999999,
                    "velocity": 0.49606299212598426,
                    "duration": 0.19586292500000013
                },
                {
                    "name": "C6",
                    "midi": 84,
                    "time": 11.957946999999999,
                    "velocity": 0.5905511811023622,
                    "duration": 0.19586292500000013
                },
                {
                    "name": "C5",
                    "midi": 72,
                    "time": 12.164118499999999,
                    "velocity": 0.48031496062992124,
                    "duration": 0.19586292500000013
                },
                {
                    "name": "F#5",
                    "midi": 78,
                    "time": 12.164118499999999,
                    "velocity": 0.48031496062992124,
                    "duration": 0.19586292500000013
                },
                {
                    "name": "C6",
                    "midi": 84,
                    "time": 12.164118499999999,
                    "velocity": 0.5748031496062992,
                    "duration": 0.19586292500000013
                },
                {
                    "name": "B4",
                    "midi": 71,
                    "time": 12.370289999999999,
                    "velocity": 0.5039370078740157,
                    "duration": 0.20617149999999995
                },
                {
                    "name": "G5",
                    "midi": 79,
                    "time": 12.370289999999999,
                    "velocity": 0.5039370078740157,
                    "duration": 0.20617149999999995
                },
                {
                    "name": "B5",
                    "midi": 83,
                    "time": 12.370289999999999,
                    "velocity": 0.5984251968503937,
                    "duration": 0.20617149999999995
                },
                {
                    "name": "G3",
                    "midi": 55,
                    "time": 12.576461499999999,
                    "velocity": 0.5039370078740157,
                    "duration": 0.10308574999999998
                },
                {
                    "name": "C4",
                    "midi": 60,
                    "time": 12.679547249999999,
                    "velocity": 0.5196850393700787,
                    "duration": 0.10308574999999998
                },
                {
                    "name": "E4",
                    "midi": 64,
                    "time": 12.782632999999999,
                    "velocity": 0.5354330708661418,
                    "duration": 0.10308574999999998
                },
                {
                    "name": "G4",
                    "midi": 67,
                    "time": 12.885718749999999,
                    "velocity": 0.5511811023622047,
                    "duration": 0.10308574999999998
                },
                {
                    "name": "C5",
                    "midi": 72,
                    "time": 12.988804499999999,
                    "velocity": 0.5669291338582677,
                    "duration": 0.10308574999999998
                },
                {
                    "name": "E5",
                    "midi": 76,
                    "time": 13.091890249999999,
                    "velocity": 0.5826771653543307,
                    "duration": 0.10308574999999998
                },
                {
                    "name": "G4",
                    "midi": 67,
                    "time": 13.194975999999999,
                    "velocity": 0.5196850393700787,
                    "duration": 0.40804776041666635
                },
                {
                    "name": "E5",
                    "midi": 76,
                    "time": 13.194975999999999,
                    "velocity": 0.5196850393700787,
                    "duration": 0.40804776041666635
                },
                {
                    "name": "G5",
                    "midi": 79,
                    "time": 13.194975999999999,
                    "velocity": 0.6141732283464567,
                    "duration": 0.40804776041666635
                },
                {
                    "name": "G4",
                    "midi": 67,
                    "time": 13.607318999999999,
                    "velocity": 0.4566929133858268,
                    "duration": 0.20617149999999995
                },
                {
                    "name": "E5",
                    "midi": 76,
                    "time": 13.607318999999999,
                    "velocity": 0.4566929133858268,
                    "duration": 0.20617149999999995
                },
                {
                    "name": "G5",
                    "midi": 79,
                    "time": 13.607318999999999,
                    "velocity": 0.5511811023622047,
                    "duration": 0.20617149999999995
                },
                {
                    "name": "G4",
                    "midi": 67,
                    "time": 13.813490499999999,
                    "velocity": 0.4566929133858268,
                    "duration": 0.20617149999999995
                },
                {
                    "name": "E5",
                    "midi": 76,
                    "time": 13.813490499999999,
                    "velocity": 0.4566929133858268,
                    "duration": 0.20617149999999995
                },
                {
                    "name": "G5",
                    "midi": 79,
                    "time": 13.813490499999999,
                    "velocity": 0.5511811023622047,
                    "duration": 0.20617149999999995
                },
                {
                    "name": "G4",
                    "midi": 67,
                    "time": 14.019661999999999,
                    "velocity": 0.5118110236220472,
                    "duration": 0.6185144999999999
                },
                {
                    "name": "D5",
                    "midi": 74,
                    "time": 14.019661999999999,
                    "velocity": 0.5118110236220472,
                    "duration": 0.6185144999999999
                },
                {
                    "name": "G5",
                    "midi": 79,
                    "time": 14.019661999999999,
                    "velocity": 0.6141732283464567,
                    "duration": 0.6185144999999999
                },
                {
                    "name": "G4",
                    "midi": 67,
                    "time": 14.638176499999998,
                    "velocity": 0.5275590551181102,
                    "duration": 0.20617149999999995
                },
                {
                    "name": "D5",
                    "midi": 74,
                    "time": 14.638176499999998,
                    "velocity": 0.5275590551181102,
                    "duration": 0.20617149999999995
                },
                {
                    "name": "G5",
                    "midi": 79,
                    "time": 14.638176499999998,
                    "velocity": 0.6299212598425197,
                    "duration": 0.20617149999999995
                },
                {
                    "name": "C5",
                    "midi": 72,
                    "time": 14.844347999999998,
                    "velocity": 0.5826771653543307,
                    "duration": 0.40804776041666635
                },
                {
                    "name": "G5",
                    "midi": 79,
                    "time": 14.844347999999998,
                    "velocity": 0.5826771653543307,
                    "duration": 0.40804776041666635
                },
                {
                    "name": "C6",
                    "midi": 84,
                    "time": 14.844347999999998,
                    "velocity": 0.6929133858267716,
                    "duration": 0.40804776041666635
                },
                {
                    "name": "C5",
                    "midi": 72,
                    "time": 15.256690999999998,
                    "velocity": 0.49606299212598426,
                    "duration": 0.19586292500000013
                },
                {
                    "name": "F#5",
                    "midi": 78,
                    "time": 15.256690999999998,
                    "velocity": 0.49606299212598426,
                    "duration": 0.19586292500000013
                },
                {
                    "name": "C6",
                    "midi": 84,
                    "time": 15.256690999999998,
                    "velocity": 0.5905511811023622,
                    "duration": 0.19586292500000013
                },
                {
                    "name": "C5",
                    "midi": 72,
                    "time": 15.462862499999998,
                    "velocity": 0.48031496062992124,
                    "duration": 0.19586292500000013
                },
                {
                    "name": "F#5",
                    "midi": 78,
                    "time": 15.462862499999998,
                    "velocity": 0.48031496062992124,
                    "duration": 0.19586292500000013
                },
                {
                    "name": "C6",
                    "midi": 84,
                    "time": 15.462862499999998,
                    "velocity": 0.5748031496062992,
                    "duration": 0.19586292500000013
                },
                {
                    "name": "B4",
                    "midi": 71,
                    "time": 15.669033999999998,
                    "velocity": 0.5039370078740157,
                    "duration": 0.20617149999999995
                },
                {
                    "name": "G5",
                    "midi": 79,
                    "time": 15.669033999999998,
                    "velocity": 0.5039370078740157,
                    "duration": 0.20617149999999995
                },
                {
                    "name": "B5",
                    "midi": 83,
                    "time": 15.669033999999998,
                    "velocity": 0.5984251968503937,
                    "duration": 0.20617149999999995
                },
                {
                    "name": "C4",
                    "midi": 60,
                    "time": 15.875205499999998,
                    "velocity": 0.5039370078740157,
                    "duration": 0.10308574999999998
                },
                {
                    "name": "F4",
                    "midi": 65,
                    "time": 15.978291249999998,
                    "velocity": 0.5196850393700787,
                    "duration": 0.10308575000000175
                },
                {
                    "name": "A4",
                    "midi": 69,
                    "time": 16.081377,
                    "velocity": 0.5354330708661418,
                    "duration": 0.10308575000000175
                },
                {
                    "name": "C5",
                    "midi": 72,
                    "time": 16.18446275,
                    "velocity": 0.5511811023622047,
                    "duration": 0.10308575000000175
                },
                {
                    "name": "F5",
                    "midi": 77,
                    "time": 16.287548500000003,
                    "velocity": 0.5669291338582677,
                    "duration": 0.10308575000000175
                },
                {
                    "name": "A5",
                    "midi": 81,
                    "time": 16.390634250000005,
                    "velocity": 0.5826771653543307,
                    "duration": 0.10308575000000175
                },
                {
                    "name": "C5",
                    "midi": 72,
                    "time": 16.493720000000007,
                    "velocity": 0.5669291338582677,
                    "duration": 0.4080477604166681
                },
                {
                    "name": "A5",
                    "midi": 81,
                    "time": 16.493720000000007,
                    "velocity": 0.5669291338582677,
                    "duration": 0.4080477604166681
                },
                {
                    "name": "C6",
                    "midi": 84,
                    "time": 16.493720000000007,
                    "velocity": 0.6692913385826772,
                    "duration": 0.4080477604166681
                },
                {
                    "name": "C5",
                    "midi": 72,
                    "time": 16.906063000000007,
                    "velocity": 0.49606299212598426,
                    "duration": 0.19586292500000013
                },
                {
                    "name": "A5",
                    "midi": 81,
                    "time": 16.906063000000007,
                    "velocity": 0.49606299212598426,
                    "duration": 0.19586292500000013
                },
                {
                    "name": "C6",
                    "midi": 84,
                    "time": 16.906063000000007,
                    "velocity": 0.6062992125984252,
                    "duration": 0.19586292500000013
                },
                {
                    "name": "C5",
                    "midi": 72,
                    "time": 17.112234500000007,
                    "velocity": 0.49606299212598426,
                    "duration": 0.19586292500000013
                },
                {
                    "name": "A5",
                    "midi": 81,
                    "time": 17.112234500000007,
                    "velocity": 0.49606299212598426,
                    "duration": 0.19586292500000013
                },
                {
                    "name": "C6",
                    "midi": 84,
                    "time": 17.112234500000007,
                    "velocity": 0.6062992125984252,
                    "duration": 0.19586292500000013
                },
                {
                    "name": "C5",
                    "midi": 72,
                    "time": 17.318406000000007,
                    "velocity": 0.5590551181102362,
                    "duration": 0.6185144999999999
                },
                {
                    "name": "G5",
                    "midi": 79,
                    "time": 17.318406000000007,
                    "velocity": 0.5590551181102362,
                    "duration": 0.6185144999999999
                },
                {
                    "name": "C6",
                    "midi": 84,
                    "time": 17.318406000000007,
                    "velocity": 0.6692913385826772,
                    "duration": 0.6185144999999999
                },
                {
                    "name": "C5",
                    "midi": 72,
                    "time": 17.936920500000006,
                    "velocity": 0.5748031496062992,
                    "duration": 0.20617149999999995
                },
                {
                    "name": "G5",
                    "midi": 79,
                    "time": 17.936920500000006,
                    "velocity": 0.5748031496062992,
                    "duration": 0.20617149999999995
                },
                {
                    "name": "C6",
                    "midi": 84,
                    "time": 17.936920500000006,
                    "velocity": 0.6929133858267716,
                    "duration": 0.20617149999999995
                },
                {
                    "name": "F5",
                    "midi": 77,
                    "time": 18.143092000000006,
                    "velocity": 0.6377952755905512,
                    "duration": 0.4080477604166681
                },
                {
                    "name": "C6",
                    "midi": 84,
                    "time": 18.143092000000006,
                    "velocity": 0.6377952755905512,
                    "duration": 0.4080477604166681
                },
                {
                    "name": "F6",
                    "midi": 89,
                    "time": 18.143092000000006,
                    "velocity": 0.7559055118110236,
                    "duration": 0.4080477604166681
                },
                {
                    "name": "F5",
                    "midi": 77,
                    "time": 18.555435000000006,
                    "velocity": 0.5905511811023622,
                    "duration": 0.19586292500000013
                },
                {
                    "name": "B5",
                    "midi": 83,
                    "time": 18.555435000000006,
                    "velocity": 0.5905511811023622,
                    "duration": 0.19586292500000013
                },
                {
                    "name": "F6",
                    "midi": 89,
                    "time": 18.555435000000006,
                    "velocity": 0.7086614173228346,
                    "duration": 0.19586292500000013
                },
                {
                    "name": "F5",
                    "midi": 77,
                    "time": 18.761606500000006,
                    "velocity": 0.5748031496062992,
                    "duration": 0.19586292500000013
                },
                {
                    "name": "B5",
                    "midi": 83,
                    "time": 18.761606500000006,
                    "velocity": 0.5748031496062992,
                    "duration": 0.19586292500000013
                },
                {
                    "name": "F6",
                    "midi": 89,
                    "time": 18.761606500000006,
                    "velocity": 0.6929133858267716,
                    "duration": 0.19586292500000013
                },
                {
                    "name": "E5",
                    "midi": 76,
                    "time": 18.967778000000006,
                    "velocity": 0.5984251968503937,
                    "duration": 0.4080477604166681
                },
                {
                    "name": "B5",
                    "midi": 83,
                    "time": 18.967778000000006,
                    "velocity": 0.5984251968503937,
                    "duration": 0.4080477604166681
                },
                {
                    "name": "E6",
                    "midi": 88,
                    "time": 18.967778000000006,
                    "velocity": 0.7244094488188977,
                    "duration": 0.4080477604166681
                },
                {
                    "name": "E6",
                    "midi": 88,
                    "time": 19.380121000000006,
                    "velocity": 0.6929133858267716,
                    "duration": 0.4080477604166681
                },
                {
                    "name": "A5",
                    "midi": 81,
                    "time": 19.380121000000006,
                    "velocity": 0.5748031496062992,
                    "duration": 0.4080477604166681
                },
                {
                    "name": "E5",
                    "midi": 76,
                    "time": 19.380121000000006,
                    "velocity": 0.5748031496062992,
                    "duration": 0.4080477604166681
                },
                {
                    "name": "D5",
                    "midi": 74,
                    "time": 19.792464000000006,
                    "velocity": 0.6377952755905512,
                    "duration": 0.4123429999999999
                },
                {
                    "name": "A5",
                    "midi": 81,
                    "time": 19.792464000000006,
                    "velocity": 0.6377952755905512,
                    "duration": 0.4123429999999999
                },
                {
                    "name": "D6",
                    "midi": 86,
                    "time": 19.792464000000006,
                    "velocity": 0.7480314960629921,
                    "duration": 0.4123429999999999
                },
                {
                    "name": "D5",
                    "midi": 74,
                    "time": 20.204807000000006,
                    "velocity": 0.5826771653543307,
                    "duration": 0.19586292500000013
                },
                {
                    "name": "G#5",
                    "midi": 80,
                    "time": 20.204807000000006,
                    "velocity": 0.5826771653543307,
                    "duration": 0.19586292500000013
                },
                {
                    "name": "D6",
                    "midi": 86,
                    "time": 20.204807000000006,
                    "velocity": 0.6929133858267716,
                    "duration": 0.19586292500000013
                },
                {
                    "name": "D5",
                    "midi": 74,
                    "time": 20.410978500000006,
                    "velocity": 0.5590551181102362,
                    "duration": 0.19586292500000013
                },
                {
                    "name": "G#5",
                    "midi": 80,
                    "time": 20.410978500000006,
                    "velocity": 0.5590551181102362,
                    "duration": 0.19586292500000013
                },
                {
                    "name": "D6",
                    "midi": 86,
                    "time": 20.410978500000006,
                    "velocity": 0.6692913385826772,
                    "duration": 0.19586292500000013
                },
                {
                    "name": "C5",
                    "midi": 72,
                    "time": 20.617150000000006,
                    "velocity": 0.5826771653543307,
                    "duration": 0.4123429999999999
                },
                {
                    "name": "A5",
                    "midi": 81,
                    "time": 20.617150000000006,
                    "velocity": 0.5826771653543307,
                    "duration": 0.4123429999999999
                },
                {
                    "name": "C6",
                    "midi": 84,
                    "time": 20.617150000000006,
                    "velocity": 0.7007874015748031,
                    "duration": 0.4123429999999999
                },
                {
                    "name": "A5",
                    "midi": 81,
                    "time": 21.029493000000006,
                    "velocity": 0.5275590551181102,
                    "duration": 0.4123429999999999
                },
                {
                    "name": "C5",
                    "midi": 72,
                    "time": 21.029493000000006,
                    "velocity": 0.4409448818897638,
                    "duration": 0.4123429999999999
                },
                {
                    "name": "A4",
                    "midi": 69,
                    "time": 21.029493000000006,
                    "velocity": 0.4409448818897638,
                    "duration": 0.4123429999999999
                },
                {
                    "name": "A4",
                    "midi": 69,
                    "time": 21.441836000000006,
                    "velocity": 0.2755905511811024,
                    "duration": 0.10308575000000175
                },
                {
                    "name": "E5",
                    "midi": 76,
                    "time": 21.441836000000006,
                    "velocity": 0.33070866141732286,
                    "duration": 0.10308575000000175
                },
                {
                    "name": "A5",
                    "midi": 81,
                    "time": 21.544921750000007,
                    "velocity": 0.3464566929133858,
                    "duration": 0.10308575000000175
                },
                {
                    "name": "A4",
                    "midi": 69,
                    "time": 21.64800750000001,
                    "velocity": 0.2992125984251969,
                    "duration": 0.10308575000000175
                },
                {
                    "name": "E5",
                    "midi": 76,
                    "time": 21.64800750000001,
                    "velocity": 0.3543307086614173,
                    "duration": 0.10308575000000175
                },
                {
                    "name": "A5",
                    "midi": 81,
                    "time": 21.75109325000001,
                    "velocity": 0.3700787401574803,
                    "duration": 0.10308575000000175
                },
                {
                    "name": "A4",
                    "midi": 69,
                    "time": 21.854179000000013,
                    "velocity": 0.3228346456692913,
                    "duration": 0.10308575000000175
                },
                {
                    "name": "E5",
                    "midi": 76,
                    "time": 21.854179000000013,
                    "velocity": 0.3858267716535433,
                    "duration": 0.10308575000000175
                },
                {
                    "name": "A5",
                    "midi": 81,
                    "time": 21.957264750000014,
                    "velocity": 0.4015748031496063,
                    "duration": 0.10308575000000175
                },
                {
                    "name": "A4",
                    "midi": 69,
                    "time": 22.060350500000016,
                    "velocity": 0.3543307086614173,
                    "duration": 0.10308575000000175
                },
                {
                    "name": "E5",
                    "midi": 76,
                    "time": 22.060350500000016,
                    "velocity": 0.41732283464566927,
                    "duration": 0.10308575000000175
                },
                {
                    "name": "A5",
                    "midi": 81,
                    "time": 22.163436250000018,
                    "velocity": 0.4251968503937008,
                    "duration": 0.10308575000000175
                },
                {
                    "name": "A4",
                    "midi": 69,
                    "time": 22.26652200000002,
                    "velocity": 0.3700787401574803,
                    "duration": 0.10308575000000175
                },
                {
                    "name": "E5",
                    "midi": 76,
                    "time": 22.26652200000002,
                    "velocity": 0.4409448818897638,
                    "duration": 0.10308575000000175
                },
                {
                    "name": "A5",
                    "midi": 81,
                    "time": 22.36960775000002,
                    "velocity": 0.4566929133858268,
                    "duration": 0.10308575000000175
                },
                {
                    "name": "A4",
                    "midi": 69,
                    "time": 22.472693500000023,
                    "velocity": 0.4015748031496063,
                    "duration": 0.10308575000000175
                },
                {
                    "name": "E5",
                    "midi": 76,
                    "time": 22.472693500000023,
                    "velocity": 0.47244094488188976,
                    "duration": 0.10308575000000175
                },
                {
                    "name": "A5",
                    "midi": 81,
                    "time": 22.575779250000025,
                    "velocity": 0.4881889763779528,
                    "duration": 0.10308575000000175
                },
                {
                    "name": "A4",
                    "midi": 69,
                    "time": 22.678865000000027,
                    "velocity": 0.41732283464566927,
                    "duration": 0.10308575000000175
                },
                {
                    "name": "E5",
                    "midi": 76,
                    "time": 22.678865000000027,
                    "velocity": 0.49606299212598426,
                    "duration": 0.10308575000000175
                },
                {
                    "name": "A5",
                    "midi": 81,
                    "time": 22.78195075000003,
                    "velocity": 0.5118110236220472,
                    "duration": 0.10308575000000175
                },
                {
                    "name": "A4",
                    "midi": 69,
                    "time": 22.88503650000003,
                    "velocity": 0.4409448818897638,
                    "duration": 0.10308575000000175
                },
                {
                    "name": "E5",
                    "midi": 76,
                    "time": 22.88503650000003,
                    "velocity": 0.5275590551181102,
                    "duration": 0.10308575000000175
                },
                {
                    "name": "A5",
                    "midi": 81,
                    "time": 22.988122250000032,
                    "velocity": 0.5433070866141733,
                    "duration": 0.10308575000000175
                },
                {
                    "name": "A4",
                    "midi": 69,
                    "time": 23.091208000000034,
                    "velocity": 0.4881889763779528,
                    "duration": 0.10308575000000175
                },
                {
                    "name": "D#5",
                    "midi": 75,
                    "time": 23.091208000000034,
                    "velocity": 0.5748031496062992,
                    "duration": 0.10308575000000175
                },
                {
                    "name": "A5",
                    "midi": 81,
                    "time": 23.194293750000035,
                    "velocity": 0.5826771653543307,
                    "duration": 0.10308575000000175
                },
                {
                    "name": "A4",
                    "midi": 69,
                    "time": 23.297379500000037,
                    "velocity": 0.49606299212598426,
                    "duration": 0.10308575000000175
                },
                {
                    "name": "D#5",
                    "midi": 75,
                    "time": 23.297379500000037,
                    "velocity": 0.5905511811023622,
                    "duration": 0.10308575000000175
                },
                {
                    "name": "A5",
                    "midi": 81,
                    "time": 23.40046525000004,
                    "velocity": 0.5984251968503937,
                    "duration": 0.10308575000000175
                },
                {
                    "name": "A4",
                    "midi": 69,
                    "time": 23.50355100000004,
                    "velocity": 0.5196850393700787,
                    "duration": 0.10308575000000175
                },
                {
                    "name": "D#5",
                    "midi": 75,
                    "time": 23.50355100000004,
                    "velocity": 0.6141732283464567,
                    "duration": 0.10308575000000175
                },
                {
                    "name": "A5",
                    "midi": 81,
                    "time": 23.606636750000042,
                    "velocity": 0.6299212598425197,
                    "duration": 0.10308575000000175
                },
                {
                    "name": "A4",
                    "midi": 69,
                    "time": 23.709722500000044,
                    "velocity": 0.5433070866141733,
                    "duration": 0.10308575000000175
                },
                {
                    "name": "D#5",
                    "midi": 75,
                    "time": 23.709722500000044,
                    "velocity": 0.6377952755905512,
                    "duration": 0.10308575000000175
                },
                {
                    "name": "A5",
                    "midi": 81,
                    "time": 23.812808250000046,
                    "velocity": 0.6535433070866141,
                    "duration": 0.10308575000000175
                },
                {
                    "name": "A4",
                    "midi": 69,
                    "time": 23.915894000000048,
                    "velocity": 0.5590551181102362,
                    "duration": 0.10308575000000175
                },
                {
                    "name": "D#5",
                    "midi": 75,
                    "time": 23.915894000000048,
                    "velocity": 0.6692913385826772,
                    "duration": 0.10308575000000175
                },
                {
                    "name": "A5",
                    "midi": 81,
                    "time": 24.01897975000005,
                    "velocity": 0.6771653543307087,
                    "duration": 0.10308575000000175
                },
                {
                    "name": "A4",
                    "midi": 69,
                    "time": 24.12206550000005,
                    "velocity": 0.5826771653543307,
                    "duration": 0.10308575000000175
                },
                {
                    "name": "D#5",
                    "midi": 75,
                    "time": 24.12206550000005,
                    "velocity": 0.6850393700787402,
                    "duration": 0.10308575000000175
                },
                {
                    "name": "A5",
                    "midi": 81,
                    "time": 24.225151250000053,
                    "velocity": 0.7007874015748031,
                    "duration": 0.10308575000000175
                },
                {
                    "name": "A4",
                    "midi": 69,
                    "time": 24.328237000000055,
                    "velocity": 0.6062992125984252,
                    "duration": 0.20617149999999995
                },
                {
                    "name": "D#5",
                    "midi": 75,
                    "time": 24.328237000000055,
                    "velocity": 0.7086614173228346,
                    "duration": 0.20617149999999995
                },
                {
                    "name": "A5",
                    "midi": 81,
                    "time": 24.328237000000055,
                    "velocity": 0.7086614173228346,
                    "duration": 0.20617149999999995
                },
                {
                    "name": "A4",
                    "midi": 69,
                    "time": 24.534408500000055,
                    "velocity": 0.6141732283464567,
                    "duration": 0.20617149999999995
                },
                {
                    "name": "D#5",
                    "midi": 75,
                    "time": 24.534408500000055,
                    "velocity": 0.7322834645669292,
                    "duration": 0.20617149999999995
                },
                {
                    "name": "A5",
                    "midi": 81,
                    "time": 24.534408500000055,
                    "velocity": 0.7322834645669292,
                    "duration": 0.20617149999999995
                },
                {
                    "name": "A4",
                    "midi": 69,
                    "time": 24.740580000000055,
                    "velocity": 0.6614173228346457,
                    "duration": 0.10308575000000175
                },
                {
                    "name": "D#5",
                    "midi": 75,
                    "time": 24.740580000000055,
                    "velocity": 0.6614173228346457,
                    "duration": 0.10308575000000175
                },
                {
                    "name": "A5",
                    "midi": 81,
                    "time": 24.740580000000055,
                    "velocity": 0.7874015748031497,
                    "duration": 0.10308575000000175
                },
                {
                    "name": "B4",
                    "midi": 71,
                    "time": 24.946751500000058,
                    "velocity": 0.5905511811023622,
                    "duration": 0.10308575000000175
                },
                {
                    "name": "D#5",
                    "midi": 75,
                    "time": 24.946751500000058,
                    "velocity": 0.5905511811023622,
                    "duration": 0.10308575000000175
                },
                {
                    "name": "B5",
                    "midi": 83,
                    "time": 24.946751500000058,
                    "velocity": 0.7086614173228346,
                    "duration": 0.10308575000000175
                },
                {
                    "name": "A5",
                    "midi": 81,
                    "time": 24.946751500000058,
                    "velocity": 0.7086614173228346,
                    "duration": 0.10308575000000175
                },
                {
                    "name": "B4",
                    "midi": 71,
                    "time": 25.15292300000006,
                    "velocity": 0.5905511811023622,
                    "duration": 0.10308575000000175
                },
                {
                    "name": "D#5",
                    "midi": 75,
                    "time": 25.15292300000006,
                    "velocity": 0.5905511811023622,
                    "duration": 0.10308575000000175
                },
                {
                    "name": "A5",
                    "midi": 81,
                    "time": 25.15292300000006,
                    "velocity": 0.7086614173228346,
                    "duration": 0.10308575000000175
                },
                {
                    "name": "B5",
                    "midi": 83,
                    "time": 25.15292300000006,
                    "velocity": 0.7086614173228346,
                    "duration": 0.10308575000000175
                },
                {
                    "name": "B4",
                    "midi": 71,
                    "time": 25.359094500000065,
                    "velocity": 0.5905511811023622,
                    "duration": 0.10308575000000175
                },
                {
                    "name": "D#5",
                    "midi": 75,
                    "time": 25.359094500000065,
                    "velocity": 0.5905511811023622,
                    "duration": 0.10308575000000175
                },
                {
                    "name": "A5",
                    "midi": 81,
                    "time": 25.359094500000065,
                    "velocity": 0.7086614173228346,
                    "duration": 0.10308575000000175
                },
                {
                    "name": "B5",
                    "midi": 83,
                    "time": 25.359094500000065,
                    "velocity": 0.7086614173228346,
                    "duration": 0.10308575000000175
                },
                {
                    "name": "B4",
                    "midi": 71,
                    "time": 25.56526600000007,
                    "velocity": 0.5905511811023622,
                    "duration": 0.10308575000000175
                },
                {
                    "name": "D#5",
                    "midi": 75,
                    "time": 25.56526600000007,
                    "velocity": 0.5905511811023622,
                    "duration": 0.10308575000000175
                },
                {
                    "name": "A5",
                    "midi": 81,
                    "time": 25.56526600000007,
                    "velocity": 0.7086614173228346,
                    "duration": 0.10308575000000175
                },
                {
                    "name": "B5",
                    "midi": 83,
                    "time": 25.56526600000007,
                    "velocity": 0.7086614173228346,
                    "duration": 0.10308575000000175
                },
                {
                    "name": "B4",
                    "midi": 71,
                    "time": 25.771437500000072,
                    "velocity": 0.5905511811023622,
                    "duration": 0.10308575000000175
                },
                {
                    "name": "D#5",
                    "midi": 75,
                    "time": 25.771437500000072,
                    "velocity": 0.5905511811023622,
                    "duration": 0.10308575000000175
                },
                {
                    "name": "A5",
                    "midi": 81,
                    "time": 25.771437500000072,
                    "velocity": 0.7086614173228346,
                    "duration": 0.10308575000000175
                },
                {
                    "name": "B5",
                    "midi": 83,
                    "time": 25.771437500000072,
                    "velocity": 0.7086614173228346,
                    "duration": 0.10308575000000175
                },
                {
                    "name": "B4",
                    "midi": 71,
                    "time": 25.977609000000076,
                    "velocity": 0.5905511811023622,
                    "duration": 0.10308575000000175
                },
                {
                    "name": "D#5",
                    "midi": 75,
                    "time": 25.977609000000076,
                    "velocity": 0.5905511811023622,
                    "duration": 0.10308575000000175
                },
                {
                    "name": "A5",
                    "midi": 81,
                    "time": 25.977609000000076,
                    "velocity": 0.7086614173228346,
                    "duration": 0.10308575000000175
                },
                {
                    "name": "B5",
                    "midi": 83,
                    "time": 25.977609000000076,
                    "velocity": 0.7086614173228346,
                    "duration": 0.10308575000000175
                },
                {
                    "name": "B4",
                    "midi": 71,
                    "time": 26.18378050000008,
                    "velocity": 0.5905511811023622,
                    "duration": 0.10308575000000175
                },
                {
                    "name": "D#5",
                    "midi": 75,
                    "time": 26.18378050000008,
                    "velocity": 0.5905511811023622,
                    "duration": 0.10308575000000175
                },
                {
                    "name": "A5",
                    "midi": 81,
                    "time": 26.18378050000008,
                    "velocity": 0.7086614173228346,
                    "duration": 0.10308575000000175
                },
                {
                    "name": "B5",
                    "midi": 83,
                    "time": 26.18378050000008,
                    "velocity": 0.7086614173228346,
                    "duration": 0.10308575000000175
                },
                {
                    "name": "B4",
                    "midi": 71,
                    "time": 26.389952000000083,
                    "velocity": 0.6692913385826772,
                    "duration": 0.20617149999999995
                },
                {
                    "name": "E5",
                    "midi": 76,
                    "time": 26.389952000000083,
                    "velocity": 0.6692913385826772,
                    "duration": 0.20617149999999995
                },
                {
                    "name": "G#5",
                    "midi": 80,
                    "time": 26.389952000000083,
                    "velocity": 0.6692913385826772,
                    "duration": 0.20617149999999995
                },
                {
                    "name": "B5",
                    "midi": 83,
                    "time": 26.389952000000083,
                    "velocity": 0.7952755905511811,
                    "duration": 0.20617149999999995
                },
                {
                    "name": "E6",
                    "midi": 88,
                    "time": 26.802295000000083,
                    "velocity": 0.8031496062992126,
                    "duration": 0.20617149999999995
                },
                {
                    "name": "B5",
                    "midi": 83,
                    "time": 26.802295000000083,
                    "velocity": 0.6771653543307087,
                    "duration": 0.20617149999999995
                },
                {
                    "name": "G#5",
                    "midi": 80,
                    "time": 26.802295000000083,
                    "velocity": 0.6771653543307087,
                    "duration": 0.20617149999999995
                },
                {
                    "name": "E5",
                    "midi": 76,
                    "time": 26.802295000000083,
                    "velocity": 0.6771653543307087,
                    "duration": 0.20617149999999995
                },
                {
                    "name": "E3",
                    "midi": 52,
                    "time": 28.039324000000082,
                    "velocity": 0.2283464566929134,
                    "duration": 0.4080477604166681
                },
                {
                    "name": "G3",
                    "midi": 55,
                    "time": 28.039324000000082,
                    "velocity": 0.2283464566929134,
                    "duration": 0.4080477604166681
                },
                {
                    "name": "C4",
                    "midi": 60,
                    "time": 28.039324000000082,
                    "velocity": 0.2283464566929134,
                    "duration": 0.4080477604166681
                },
                {
                    "name": "E4",
                    "midi": 64,
                    "time": 28.039324000000082,
                    "velocity": 0.28346456692913385,
                    "duration": 0.4080477604166681
                },
                {
                    "name": "E3",
                    "midi": 52,
                    "time": 28.451667000000082,
                    "velocity": 0.2204724409448819,
                    "duration": 0.10308575000000175
                },
                {
                    "name": "G3",
                    "midi": 55,
                    "time": 28.451667000000082,
                    "velocity": 0.2204724409448819,
                    "duration": 0.10308575000000175
                },
                {
                    "name": "C4",
                    "midi": 60,
                    "time": 28.451667000000082,
                    "velocity": 0.2204724409448819,
                    "duration": 0.10308575000000175
                },
                {
                    "name": "E4",
                    "midi": 64,
                    "time": 28.451667000000082,
                    "velocity": 0.2677165354330709,
                    "duration": 0.10308575000000175
                },
                {
                    "name": "E3",
                    "midi": 52,
                    "time": 28.657838500000086,
                    "velocity": 0.2204724409448819,
                    "duration": 0.10308575000000175
                },
                {
                    "name": "G3",
                    "midi": 55,
                    "time": 28.657838500000086,
                    "velocity": 0.2204724409448819,
                    "duration": 0.10308575000000175
                },
                {
                    "name": "C4",
                    "midi": 60,
                    "time": 28.657838500000086,
                    "velocity": 0.2204724409448819,
                    "duration": 0.10308575000000175
                },
                {
                    "name": "E4",
                    "midi": 64,
                    "time": 28.657838500000086,
                    "velocity": 0.2677165354330709,
                    "duration": 0.10308575000000175
                },
                {
                    "name": "E3",
                    "midi": 52,
                    "time": 28.86401000000009,
                    "velocity": 0.2283464566929134,
                    "duration": 0.4080477604166681
                },
                {
                    "name": "G3",
                    "midi": 55,
                    "time": 28.86401000000009,
                    "velocity": 0.2283464566929134,
                    "duration": 0.4080477604166681
                },
                {
                    "name": "C4",
                    "midi": 60,
                    "time": 28.86401000000009,
                    "velocity": 0.2283464566929134,
                    "duration": 0.4080477604166681
                },
                {
                    "name": "E4",
                    "midi": 64,
                    "time": 28.86401000000009,
                    "velocity": 0.28346456692913385,
                    "duration": 0.4080477604166681
                },
                {
                    "name": "E3",
                    "midi": 52,
                    "time": 29.27635300000009,
                    "velocity": 0.2125984251968504,
                    "duration": 0.10308575000000175
                },
                {
                    "name": "G3",
                    "midi": 55,
                    "time": 29.27635300000009,
                    "velocity": 0.2125984251968504,
                    "duration": 0.10308575000000175
                },
                {
                    "name": "C4",
                    "midi": 60,
                    "time": 29.27635300000009,
                    "velocity": 0.2125984251968504,
                    "duration": 0.10308575000000175
                },
                {
                    "name": "E4",
                    "midi": 64,
                    "time": 29.27635300000009,
                    "velocity": 0.25984251968503935,
                    "duration": 0.10308575000000175
                },
                {
                    "name": "E3",
                    "midi": 52,
                    "time": 29.482524500000093,
                    "velocity": 0.2125984251968504,
                    "duration": 0.10308575000000175
                },
                {
                    "name": "G3",
                    "midi": 55,
                    "time": 29.482524500000093,
                    "velocity": 0.2125984251968504,
                    "duration": 0.10308575000000175
                },
                {
                    "name": "C4",
                    "midi": 60,
                    "time": 29.482524500000093,
                    "velocity": 0.2125984251968504,
                    "duration": 0.10308575000000175
                },
                {
                    "name": "E4",
                    "midi": 64,
                    "time": 29.482524500000093,
                    "velocity": 0.25984251968503935,
                    "duration": 0.10308575000000175
                },
                {
                    "name": "E3",
                    "midi": 52,
                    "time": 29.688696000000096,
                    "velocity": 0.2283464566929134,
                    "duration": 0.20617149999999995
                },
                {
                    "name": "G3",
                    "midi": 55,
                    "time": 29.688696000000096,
                    "velocity": 0.2283464566929134,
                    "duration": 0.20617149999999995
                },
                {
                    "name": "C4",
                    "midi": 60,
                    "time": 29.688696000000096,
                    "velocity": 0.2283464566929134,
                    "duration": 0.20617149999999995
                },
                {
                    "name": "E4",
                    "midi": 64,
                    "time": 29.688696000000096,
                    "velocity": 0.28346456692913385,
                    "duration": 0.20617149999999995
                },
                {
                    "name": "C3",
                    "midi": 48,
                    "time": 29.894867500000096,
                    "velocity": 0.25196850393700787,
                    "duration": 0.10308575000000175
                },
                {
                    "name": "E3",
                    "midi": 52,
                    "time": 29.997953250000098,
                    "velocity": 0.25984251968503935,
                    "duration": 0.10308575000000175
                },
                {
                    "name": "G3",
                    "midi": 55,
                    "time": 30.1010390000001,
                    "velocity": 0.2677165354330709,
                    "duration": 0.10308575000000175
                },
                {
                    "name": "C4",
                    "midi": 60,
                    "time": 30.2041247500001,
                    "velocity": 0.2755905511811024,
                    "duration": 0.10308575000000175
                },
                {
                    "name": "E4",
                    "midi": 64,
                    "time": 30.307210500000103,
                    "velocity": 0.28346456692913385,
                    "duration": 0.10308575000000175
                },
                {
                    "name": "G4",
                    "midi": 67,
                    "time": 30.410296250000105,
                    "velocity": 0.29133858267716534,
                    "duration": 0.10308575000000175
                },
                {
                    "name": "B3",
                    "midi": 59,
                    "time": 30.513382000000107,
                    "velocity": 0.28346456692913385,
                    "duration": 0.4123429999999999
                },
                {
                    "name": "B4",
                    "midi": 71,
                    "time": 30.513382000000107,
                    "velocity": 0.28346456692913385,
                    "duration": 0.4123429999999999
                },
                {
                    "name": "C4",
                    "midi": 60,
                    "time": 30.925725000000106,
                    "velocity": 0.2204724409448819,
                    "duration": 0.10308575000000175
                },
                {
                    "name": "C5",
                    "midi": 72,
                    "time": 30.925725000000106,
                    "velocity": 0.2677165354330709,
                    "duration": 0.10308575000000175
                },
                {
                    "name": "C4",
                    "midi": 60,
                    "time": 31.13189650000011,
                    "velocity": 0.2204724409448819,
                    "duration": 0.10308575000000175
                },
                {
                    "name": "C5",
                    "midi": 72,
                    "time": 31.13189650000011,
                    "velocity": 0.2677165354330709,
                    "duration": 0.10308575000000175
                },
                {
                    "name": "F4",
                    "midi": 65,
                    "time": 31.338068000000113,
                    "velocity": 0.2440944881889764,
                    "duration": 0.20617149999999995
                },
                {
                    "name": "G4",
                    "midi": 67,
                    "time": 31.338068000000113,
                    "velocity": 0.2440944881889764,
                    "duration": 0.20617149999999995
                },
                {
                    "name": "B4",
                    "midi": 71,
                    "time": 31.338068000000113,
                    "velocity": 0.29133858267716534,
                    "duration": 0.20617149999999995
                },
                {
                    "name": "C#5",
                    "midi": 73,
                    "time": 31.338068000000113,
                    "velocity": 0.29133858267716534,
                    "duration": 0.20617149999999995
                },
                {
                    "name": "G4",
                    "midi": 67,
                    "time": 31.750411000000113,
                    "velocity": 0.2204724409448819,
                    "duration": 0.20617149999999995
                },
                {
                    "name": "F4",
                    "midi": 65,
                    "time": 31.750411000000113,
                    "velocity": 0.2204724409448819,
                    "duration": 0.20617149999999995
                },
                {
                    "name": "B4",
                    "midi": 71,
                    "time": 31.750411000000113,
                    "velocity": 0.2755905511811024,
                    "duration": 0.20617149999999995
                },
                {
                    "name": "D5",
                    "midi": 74,
                    "time": 31.750411000000113,
                    "velocity": 0.2755905511811024,
                    "duration": 0.20617149999999995
                },
                {
                    "name": "F5",
                    "midi": 77,
                    "time": 32.16275400000011,
                    "velocity": 0.2755905511811024,
                    "duration": 0.8246859999999998
                },
                {
                    "name": "G5",
                    "midi": 79,
                    "time": 32.16275400000011,
                    "velocity": 0.2755905511811024,
                    "duration": 0.8246859999999998
                },
                {
                    "name": "D6",
                    "midi": 86,
                    "time": 32.16275400000011,
                    "velocity": 0.2755905511811024,
                    "duration": 0.8246859999999998
                },
                {
                    "name": "B5",
                    "midi": 83,
                    "time": 32.16275400000011,
                    "velocity": 0.2755905511811024,
                    "duration": 0.8246859999999998
                },
                {
                    "name": "F3",
                    "midi": 53,
                    "time": 32.98744000000011,
                    "velocity": 0.1968503937007874,
                    "duration": 0.4080477604166646
                },
                {
                    "name": "G3",
                    "midi": 55,
                    "time": 32.98744000000011,
                    "velocity": 0.1968503937007874,
                    "duration": 0.4080477604166646
                },
                {
                    "name": "B3",
                    "midi": 59,
                    "time": 32.98744000000011,
                    "velocity": 0.1968503937007874,
                    "duration": 0.4080477604166646
                },
                {
                    "name": "D4",
                    "midi": 62,
                    "time": 32.98744000000011,
                    "velocity": 0.2440944881889764,
                    "duration": 0.4080477604166646
                },
                {
                    "name": "F3",
                    "midi": 53,
                    "time": 33.39978300000011,
                    "velocity": 0.1889763779527559,
                    "duration": 0.1030857499999982
                },
                {
                    "name": "G3",
                    "midi": 55,
                    "time": 33.39978300000011,
                    "velocity": 0.1889763779527559,
                    "duration": 0.1030857499999982
                },
                {
                    "name": "B3",
                    "midi": 59,
                    "time": 33.39978300000011,
                    "velocity": 0.1889763779527559,
                    "duration": 0.1030857499999982
                },
                {
                    "name": "D4",
                    "midi": 62,
                    "time": 33.39978300000011,
                    "velocity": 0.2204724409448819,
                    "duration": 0.1030857499999982
                },
                {
                    "name": "F3",
                    "midi": 53,
                    "time": 33.60595450000011,
                    "velocity": 0.1889763779527559,
                    "duration": 0.1030857499999982
                },
                {
                    "name": "G3",
                    "midi": 55,
                    "time": 33.60595450000011,
                    "velocity": 0.1889763779527559,
                    "duration": 0.1030857499999982
                },
                {
                    "name": "B3",
                    "midi": 59,
                    "time": 33.60595450000011,
                    "velocity": 0.1889763779527559,
                    "duration": 0.1030857499999982
                },
                {
                    "name": "D4",
                    "midi": 62,
                    "time": 33.60595450000011,
                    "velocity": 0.2204724409448819,
                    "duration": 0.1030857499999982
                },
                {
                    "name": "F3",
                    "midi": 53,
                    "time": 33.812126000000106,
                    "velocity": 0.1968503937007874,
                    "duration": 0.4080477604166646
                },
                {
                    "name": "G3",
                    "midi": 55,
                    "time": 33.812126000000106,
                    "velocity": 0.1968503937007874,
                    "duration": 0.4080477604166646
                },
                {
                    "name": "B3",
                    "midi": 59,
                    "time": 33.812126000000106,
                    "velocity": 0.1968503937007874,
                    "duration": 0.4080477604166646
                },
                {
                    "name": "D4",
                    "midi": 62,
                    "time": 33.812126000000106,
                    "velocity": 0.2440944881889764,
                    "duration": 0.4080477604166646
                },
                {
                    "name": "F3",
                    "midi": 53,
                    "time": 34.224469000000106,
                    "velocity": 0.18110236220472442,
                    "duration": 0.1030857499999982
                },
                {
                    "name": "G3",
                    "midi": 55,
                    "time": 34.224469000000106,
                    "velocity": 0.18110236220472442,
                    "duration": 0.1030857499999982
                },
                {
                    "name": "B3",
                    "midi": 59,
                    "time": 34.224469000000106,
                    "velocity": 0.18110236220472442,
                    "duration": 0.1030857499999982
                },
                {
                    "name": "D4",
                    "midi": 62,
                    "time": 34.224469000000106,
                    "velocity": 0.2204724409448819,
                    "duration": 0.1030857499999982
                },
                {
                    "name": "F3",
                    "midi": 53,
                    "time": 34.4306405000001,
                    "velocity": 0.18110236220472442,
                    "duration": 0.1030857499999982
                },
                {
                    "name": "G3",
                    "midi": 55,
                    "time": 34.4306405000001,
                    "velocity": 0.18110236220472442,
                    "duration": 0.1030857499999982
                },
                {
                    "name": "B3",
                    "midi": 59,
                    "time": 34.4306405000001,
                    "velocity": 0.18110236220472442,
                    "duration": 0.1030857499999982
                },
                {
                    "name": "D4",
                    "midi": 62,
                    "time": 34.4306405000001,
                    "velocity": 0.2204724409448819,
                    "duration": 0.1030857499999982
                },
                {
                    "name": "F3",
                    "midi": 53,
                    "time": 34.6368120000001,
                    "velocity": 0.1968503937007874,
                    "duration": 0.2061715000000035
                },
                {
                    "name": "G3",
                    "midi": 55,
                    "time": 34.6368120000001,
                    "velocity": 0.1968503937007874,
                    "duration": 0.2061715000000035
                },
                {
                    "name": "B3",
                    "midi": 59,
                    "time": 34.6368120000001,
                    "velocity": 0.1968503937007874,
                    "duration": 0.2061715000000035
                },
                {
                    "name": "D4",
                    "midi": 62,
                    "time": 34.6368120000001,
                    "velocity": 0.2440944881889764,
                    "duration": 0.2061715000000035
                },
                {
                    "name": "G3",
                    "midi": 55,
                    "time": 34.8429835000001,
                    "velocity": 0.2125984251968504,
                    "duration": 0.1030857499999982
                },
                {
                    "name": "B3",
                    "midi": 59,
                    "time": 34.9460692500001,
                    "velocity": 0.2204724409448819,
                    "duration": 0.1030857499999982
                },
                {
                    "name": "D4",
                    "midi": 62,
                    "time": 35.0491550000001,
                    "velocity": 0.2204724409448819,
                    "duration": 0.1030857499999982
                },
                {
                    "name": "F4",
                    "midi": 65,
                    "time": 35.1522407500001,
                    "velocity": 0.2283464566929134,
                    "duration": 0.1030857499999982
                },
                {
                    "name": "G4",
                    "midi": 67,
                    "time": 35.255326500000095,
                    "velocity": 0.2440944881889764,
                    "duration": 0.1030857499999982
                },
                {
                    "name": "B4",
                    "midi": 71,
                    "time": 35.35841225000009,
                    "velocity": 0.25196850393700787,
                    "duration": 0.1030857499999982
                },
                {
                    "name": "C#4",
                    "midi": 61,
                    "time": 35.46149800000009,
                    "velocity": 0.28346456692913385,
                    "duration": 0.4123429999999999
                },
                {
                    "name": "C#5",
                    "midi": 73,
                    "time": 35.46149800000009,
                    "velocity": 0.28346456692913385,
                    "duration": 0.4123429999999999
                },
                {
                    "name": "D4",
                    "midi": 62,
                    "time": 35.87384100000009,
                    "velocity": 0.2204724409448819,
                    "duration": 0.1030857499999982
                },
                {
                    "name": "D5",
                    "midi": 74,
                    "time": 35.87384100000009,
                    "velocity": 0.2677165354330709,
                    "duration": 0.1030857499999982
                },
                {
                    "name": "D4",
                    "midi": 62,
                    "time": 36.08001250000009,
                    "velocity": 0.2204724409448819,
                    "duration": 0.1030857499999982
                },
                {
                    "name": "D5",
                    "midi": 74,
                    "time": 36.08001250000009,
                    "velocity": 0.2677165354330709,
                    "duration": 0.1030857499999982
                },
                {
                    "name": "D#4",
                    "midi": 63,
                    "time": 36.286184000000084,
                    "velocity": 0.2440944881889764,
                    "duration": 0.2061715000000035
                },
                {
                    "name": "G4",
                    "midi": 67,
                    "time": 36.286184000000084,
                    "velocity": 0.2440944881889764,
                    "duration": 0.2061715000000035
                },
                {
                    "name": "C5",
                    "midi": 72,
                    "time": 36.286184000000084,
                    "velocity": 0.29133858267716534,
                    "duration": 0.2061715000000035
                },
                {
                    "name": "D#5",
                    "midi": 75,
                    "time": 36.286184000000084,
                    "velocity": 0.29133858267716534,
                    "duration": 0.2061715000000035
                },
                {
                    "name": "G4",
                    "midi": 67,
                    "time": 36.69852700000009,
                    "velocity": 0.2204724409448819,
                    "duration": 0.2061715000000035
                },
                {
                    "name": "E4",
                    "midi": 64,
                    "time": 36.69852700000009,
                    "velocity": 0.2204724409448819,
                    "duration": 0.2061715000000035
                },
                {
                    "name": "C5",
                    "midi": 72,
                    "time": 36.69852700000009,
                    "velocity": 0.2677165354330709,
                    "duration": 0.2061715000000035
                },
                {
                    "name": "E5",
                    "midi": 76,
                    "time": 36.69852700000009,
                    "velocity": 0.2677165354330709,
                    "duration": 0.2061715000000035
                },
                {
                    "name": "E5",
                    "midi": 76,
                    "time": 37.1108700000001,
                    "velocity": 0.2755905511811024,
                    "duration": 0.8246859999999998
                },
                {
                    "name": "G5",
                    "midi": 79,
                    "time": 37.1108700000001,
                    "velocity": 0.2755905511811024,
                    "duration": 0.8246859999999998
                },
                {
                    "name": "E6",
                    "midi": 88,
                    "time": 37.1108700000001,
                    "velocity": 0.2755905511811024,
                    "duration": 0.8246859999999998
                },
                {
                    "name": "C6",
                    "midi": 84,
                    "time": 37.1108700000001,
                    "velocity": 0.2755905511811024,
                    "duration": 0.8246859999999998
                },
                {
                    "name": "G3",
                    "midi": 55,
                    "time": 38.1417275000001,
                    "velocity": 0.2125984251968504,
                    "duration": 0.1030857499999982
                },
                {
                    "name": "C4",
                    "midi": 60,
                    "time": 38.2448132500001,
                    "velocity": 0.2204724409448819,
                    "duration": 0.1030857499999982
                },
                {
                    "name": "E4",
                    "midi": 64,
                    "time": 38.3478990000001,
                    "velocity": 0.2204724409448819,
                    "duration": 0.1030857499999982
                },
                {
                    "name": "G4",
                    "midi": 67,
                    "time": 38.450984750000096,
                    "velocity": 0.2283464566929134,
                    "duration": 0.1030857499999982
                },
                {
                    "name": "C5",
                    "midi": 72,
                    "time": 38.554070500000094,
                    "velocity": 0.2440944881889764,
                    "duration": 0.1030857499999982
                },
                {
                    "name": "E5",
                    "midi": 76,
                    "time": 38.65715625000009,
                    "velocity": 0.25196850393700787,
                    "duration": 0.1030857499999982
                },
                {
                    "name": "C5",
                    "midi": 72,
                    "time": 38.76024200000009,
                    "velocity": 0.23622047244094488,
                    "duration": 0.3092572500000017
                },
                {
                    "name": "G4",
                    "midi": 67,
                    "time": 38.76024200000009,
                    "velocity": 0.23622047244094488,
                    "duration": 0.3092572500000017
                },
                {
                    "name": "G5",
                    "midi": 79,
                    "time": 38.76024200000009,
                    "velocity": 0.29133858267716534,
                    "duration": 0.3092572500000017
                },
                {
                    "name": "F4",
                    "midi": 65,
                    "time": 39.17258500000009,
                    "velocity": 0.2283464566929134,
                    "duration": 0.2061715000000035
                },
                {
                    "name": "C5",
                    "midi": 72,
                    "time": 39.17258500000009,
                    "velocity": 0.2283464566929134,
                    "duration": 0.2061715000000035
                },
                {
                    "name": "F5",
                    "midi": 77,
                    "time": 39.17258500000009,
                    "velocity": 0.28346456692913385,
                    "duration": 0.2061715000000035
                },
                {
                    "name": "C6",
                    "midi": 84,
                    "time": 39.5849280000001,
                    "velocity": 0.2755905511811024,
                    "duration": 0.8246859999999998
                },
                {
                    "name": "F5",
                    "midi": 77,
                    "time": 39.5849280000001,
                    "velocity": 0.2204724409448819,
                    "duration": 0.8246859999999998
                },
                {
                    "name": "A3",
                    "midi": 57,
                    "time": 40.6157855000001,
                    "velocity": 0.1889763779527559,
                    "duration": 0.1030857499999982
                },
                {
                    "name": "C4",
                    "midi": 60,
                    "time": 40.7188712500001,
                    "velocity": 0.1968503937007874,
                    "duration": 0.1030857499999982
                },
                {
                    "name": "F4",
                    "midi": 65,
                    "time": 40.8219570000001,
                    "velocity": 0.1968503937007874,
                    "duration": 0.1030857499999982
                },
                {
                    "name": "A4",
                    "midi": 69,
                    "time": 40.925042750000095,
                    "velocity": 0.2047244094488189,
                    "duration": 0.1030857499999982
                },
                {
                    "name": "C5",
                    "midi": 72,
                    "time": 41.02812850000009,
                    "velocity": 0.2125984251968504,
                    "duration": 0.1030857499999982
                },
                {
                    "name": "F5",
                    "midi": 77,
                    "time": 41.13121425000009,
                    "velocity": 0.2125984251968504,
                    "duration": 0.1030857499999982
                },
                {
                    "name": "C5",
                    "midi": 72,
                    "time": 41.23430000000009,
                    "velocity": 0.2047244094488189,
                    "duration": 0.3092572500000017
                },
                {
                    "name": "A4",
                    "midi": 69,
                    "time": 41.23430000000009,
                    "velocity": 0.2047244094488189,
                    "duration": 0.3092572500000017
                },
                {
                    "name": "A5",
                    "midi": 81,
                    "time": 41.23430000000009,
                    "velocity": 0.25196850393700787,
                    "duration": 0.3092572500000017
                },
                {
                    "name": "G4",
                    "midi": 67,
                    "time": 41.64664300000009,
                    "velocity": 0.2047244094488189,
                    "duration": 0.2061715000000035
                },
                {
                    "name": "C5",
                    "midi": 72,
                    "time": 41.64664300000009,
                    "velocity": 0.2047244094488189,
                    "duration": 0.2061715000000035
                },
                {
                    "name": "G5",
                    "midi": 79,
                    "time": 41.64664300000009,
                    "velocity": 0.25196850393700787,
                    "duration": 0.2061715000000035
                },
                {
                    "name": "C5",
                    "midi": 72,
                    "time": 42.0589860000001,
                    "velocity": 0.1968503937007874,
                    "duration": 1.6493719999999996
                },
                {
                    "name": "C6",
                    "midi": 84,
                    "time": 42.0589860000001,
                    "velocity": 0.2440944881889764,
                    "duration": 1.6493719999999996
                },
                {
                    "name": "G5",
                    "midi": 79,
                    "time": 42.0589860000001,
                    "velocity": 0.1968503937007874,
                    "duration": 1.6493719999999996
                },
                {
                    "name": "C4",
                    "midi": 60,
                    "time": 43.9145295000001,
                    "velocity": 0.5984251968503937,
                    "duration": 0.1030857499999982
                },
                {
                    "name": "E4",
                    "midi": 64,
                    "time": 44.0176152500001,
                    "velocity": 0.6141732283464567,
                    "duration": 0.1030857499999982
                },
                {
                    "name": "G4",
                    "midi": 67,
                    "time": 44.120701000000096,
                    "velocity": 0.6299212598425197,
                    "duration": 0.1030857499999982
                },
                {
                    "name": "C5",
                    "midi": 72,
                    "time": 44.223786750000095,
                    "velocity": 0.6456692913385826,
                    "duration": 0.1030857499999982
                },
                {
                    "name": "E5",
                    "midi": 76,
                    "time": 44.32687250000009,
                    "velocity": 0.6614173228346457,
                    "duration": 0.1030857499999982
                },
                {
                    "name": "G5",
                    "midi": 79,
                    "time": 44.42995825000009,
                    "velocity": 0.6771653543307087,
                    "duration": 0.1030857499999982
                },
                {
                    "name": "C5",
                    "midi": 72,
                    "time": 44.53304400000009,
                    "velocity": 0.6220472440944882,
                    "duration": 0.8246859999999998
                },
                {
                    "name": "F5",
                    "midi": 77,
                    "time": 44.53304400000009,
                    "velocity": 0.6220472440944882,
                    "duration": 0.8246859999999998
                },
                {
                    "name": "G#5",
                    "midi": 80,
                    "time": 44.53304400000009,
                    "velocity": 0.6220472440944882,
                    "duration": 0.8246859999999998
                },
                {
                    "name": "C6",
                    "midi": 84,
                    "time": 44.53304400000009,
                    "velocity": 0.7322834645669292,
                    "duration": 0.8246859999999998
                },
                {
                    "name": "B4",
                    "midi": 71,
                    "time": 45.35773000000009,
                    "velocity": 0.6062992125984252,
                    "duration": 0.8246859999999998
                },
                {
                    "name": "F5",
                    "midi": 77,
                    "time": 45.35773000000009,
                    "velocity": 0.6062992125984252,
                    "duration": 0.8246859999999998
                },
                {
                    "name": "B5",
                    "midi": 83,
                    "time": 45.35773000000009,
                    "velocity": 0.7165354330708661,
                    "duration": 0.8246859999999998
                },
                {
                    "name": "G5",
                    "midi": 79,
                    "time": 45.35773000000009,
                    "velocity": 0.6062992125984252,
                    "duration": 0.8246859999999998
                },
                {
                    "name": "C5",
                    "midi": 72,
                    "time": 46.18241600000009,
                    "velocity": 0.6141732283464567,
                    "duration": 0.4123429999999999
                },
                {
                    "name": "C6",
                    "midi": 84,
                    "time": 46.18241600000009,
                    "velocity": 0.7244094488188977,
                    "duration": 0.4123429999999999
                },
                {
                    "name": "G5",
                    "midi": 79,
                    "time": 46.18241600000009,
                    "velocity": 0.6141732283464567,
                    "duration": 0.4123429999999999
                },
                {
                    "name": "E5",
                    "midi": 76,
                    "time": 46.59475900000009,
                    "velocity": 0.5984251968503937,
                    "duration": 0.4123429999999999
                },
                {
                    "name": "E6",
                    "midi": 88,
                    "time": 46.59475900000009,
                    "velocity": 0.7086614173228346,
                    "duration": 0.4123429999999999
                },
                {
                    "name": "A5",
                    "midi": 81,
                    "time": 46.59475900000009,
                    "velocity": 0.5984251968503937,
                    "duration": 0.4123429999999999
                },
                {
                    "name": "F#5",
                    "midi": 78,
                    "time": 46.59475900000009,
                    "velocity": 0.5984251968503937,
                    "duration": 0.4123429999999999
                },
                {
                    "name": "D5",
                    "midi": 74,
                    "time": 47.00710200000009,
                    "velocity": 0.6220472440944882,
                    "duration": 0.2061715000000035
                },
                {
                    "name": "D6",
                    "midi": 86,
                    "time": 47.00710200000009,
                    "velocity": 0.7401574803149606,
                    "duration": 0.2061715000000035
                },
                {
                    "name": "B5",
                    "midi": 83,
                    "time": 47.00710200000009,
                    "velocity": 0.6220472440944882,
                    "duration": 0.2061715000000035
                },
                {
                    "name": "G5",
                    "midi": 79,
                    "time": 47.00710200000009,
                    "velocity": 0.6220472440944882,
                    "duration": 0.2061715000000035
                },
                {
                    "name": "D4",
                    "midi": 62,
                    "time": 47.21327350000009,
                    "velocity": 0.5984251968503937,
                    "duration": 0.1030857499999982
                },
                {
                    "name": "G4",
                    "midi": 67,
                    "time": 47.31635925000009,
                    "velocity": 0.6220472440944882,
                    "duration": 0.1030857499999982
                },
                {
                    "name": "B4",
                    "midi": 71,
                    "time": 47.41944500000009,
                    "velocity": 0.6456692913385826,
                    "duration": 0.1030857499999982
                },
                {
                    "name": "D5",
                    "midi": 74,
                    "time": 47.52253075000009,
                    "velocity": 0.6692913385826772,
                    "duration": 0.1030857499999982
                },
                {
                    "name": "G5",
                    "midi": 79,
                    "time": 47.625616500000085,
                    "velocity": 0.6929133858267716,
                    "duration": 0.1030857499999982
                },
                {
                    "name": "B5",
                    "midi": 83,
                    "time": 47.72870225000008,
                    "velocity": 0.7165354330708661,
                    "duration": 0.1030857499999982
                },
                {
                    "name": "C5",
                    "midi": 72,
                    "time": 47.83178800000008,
                    "velocity": 0.6220472440944882,
                    "duration": 0.8246859999999998
                },
                {
                    "name": "F5",
                    "midi": 77,
                    "time": 47.83178800000008,
                    "velocity": 0.6220472440944882,
                    "duration": 0.8246859999999998
                },
                {
                    "name": "G#5",
                    "midi": 80,
                    "time": 47.83178800000008,
                    "velocity": 0.6220472440944882,
                    "duration": 0.8246859999999998
                },
                {
                    "name": "C6",
                    "midi": 84,
                    "time": 47.83178800000008,
                    "velocity": 0.7322834645669292,
                    "duration": 0.8246859999999998
                },
                {
                    "name": "B4",
                    "midi": 71,
                    "time": 48.65647400000008,
                    "velocity": 0.6062992125984252,
                    "duration": 0.8246859999999998
                },
                {
                    "name": "F5",
                    "midi": 77,
                    "time": 48.65647400000008,
                    "velocity": 0.6062992125984252,
                    "duration": 0.8246859999999998
                },
                {
                    "name": "B5",
                    "midi": 83,
                    "time": 48.65647400000008,
                    "velocity": 0.7165354330708661,
                    "duration": 0.8246859999999998
                },
                {
                    "name": "G5",
                    "midi": 79,
                    "time": 48.65647400000008,
                    "velocity": 0.6062992125984252,
                    "duration": 0.8246859999999998
                },
                {
                    "name": "C5",
                    "midi": 72,
                    "time": 49.48116000000008,
                    "velocity": 0.6141732283464567,
                    "duration": 0.4123429999999999
                },
                {
                    "name": "C6",
                    "midi": 84,
                    "time": 49.48116000000008,
                    "velocity": 0.7244094488188977,
                    "duration": 0.4123429999999999
                },
                {
                    "name": "G5",
                    "midi": 79,
                    "time": 49.48116000000008,
                    "velocity": 0.6141732283464567,
                    "duration": 0.4123429999999999
                },
                {
                    "name": "E5",
                    "midi": 76,
                    "time": 49.89350300000008,
                    "velocity": 0.5984251968503937,
                    "duration": 0.4123429999999999
                },
                {
                    "name": "E6",
                    "midi": 88,
                    "time": 49.89350300000008,
                    "velocity": 0.7086614173228346,
                    "duration": 0.4123429999999999
                },
                {
                    "name": "A5",
                    "midi": 81,
                    "time": 49.89350300000008,
                    "velocity": 0.5984251968503937,
                    "duration": 0.4123429999999999
                },
                {
                    "name": "F#5",
                    "midi": 78,
                    "time": 49.89350300000008,
                    "velocity": 0.5984251968503937,
                    "duration": 0.4123429999999999
                },
                {
                    "name": "D5",
                    "midi": 74,
                    "time": 50.30584600000008,
                    "velocity": 0.6220472440944882,
                    "duration": 0.2061715000000035
                },
                {
                    "name": "D6",
                    "midi": 86,
                    "time": 50.30584600000008,
                    "velocity": 0.7401574803149606,
                    "duration": 0.2061715000000035
                },
                {
                    "name": "B5",
                    "midi": 83,
                    "time": 50.30584600000008,
                    "velocity": 0.6220472440944882,
                    "duration": 0.2061715000000035
                },
                {
                    "name": "G5",
                    "midi": 79,
                    "time": 50.30584600000008,
                    "velocity": 0.6220472440944882,
                    "duration": 0.2061715000000035
                },
                {
                    "name": "G4",
                    "midi": 67,
                    "time": 50.512017500000084,
                    "velocity": 0.5984251968503937,
                    "duration": 0.1030857499999982
                },
                {
                    "name": "B4",
                    "midi": 71,
                    "time": 50.61510325000008,
                    "velocity": 0.6220472440944882,
                    "duration": 0.1030857499999982
                },
                {
                    "name": "D5",
                    "midi": 74,
                    "time": 50.71818900000008,
                    "velocity": 0.6456692913385826,
                    "duration": 0.1030857499999982
                },
                {
                    "name": "G5",
                    "midi": 79,
                    "time": 50.82127475000008,
                    "velocity": 0.6692913385826772,
                    "duration": 0.1030857499999982
                },
                {
                    "name": "B5",
                    "midi": 83,
                    "time": 50.92436050000008,
                    "velocity": 0.6929133858267716,
                    "duration": 0.1030857499999982
                },
                {
                    "name": "D6",
                    "midi": 86,
                    "time": 51.027446250000075,
                    "velocity": 0.7165354330708661,
                    "duration": 0.1030857499999982
                },
                {
                    "name": "G5",
                    "midi": 79,
                    "time": 51.13053200000007,
                    "velocity": 0.6220472440944882,
                    "duration": 0.8246859999999998
                },
                {
                    "name": "A#5",
                    "midi": 82,
                    "time": 51.13053200000007,
                    "velocity": 0.6220472440944882,
                    "duration": 0.8246859999999998
                },
                {
                    "name": "C#6",
                    "midi": 85,
                    "time": 51.13053200000007,
                    "velocity": 0.6220472440944882,
                    "duration": 0.8246859999999998
                },
                {
                    "name": "G6",
                    "midi": 91,
                    "time": 51.13053200000007,
                    "velocity": 0.7322834645669292,
                    "duration": 0.8246859999999998
                },
                {
                    "name": "E6",
                    "midi": 88,
                    "time": 52.77990400000007,
                    "velocity": 0.7007874015748031,
                    "duration": 0.1030857499999982
                },
                {
                    "name": "G6",
                    "midi": 91,
                    "time": 52.88298975000007,
                    "velocity": 0.6456692913385826,
                    "duration": 0.1030857499999982
                },
                {
                    "name": "E6",
                    "midi": 88,
                    "time": 52.98607550000007,
                    "velocity": 0.6456692913385826,
                    "duration": 0.1030857499999982
                },
                {
                    "name": "C#6",
                    "midi": 85,
                    "time": 53.08916125000007,
                    "velocity": 0.6456692913385826,
                    "duration": 0.1030857499999982
                },
                {
                    "name": "A#5",
                    "midi": 82,
                    "time": 53.192247000000066,
                    "velocity": 0.6771653543307087,
                    "duration": 0.1030857499999982
                },
                {
                    "name": "G5",
                    "midi": 79,
                    "time": 53.295332750000064,
                    "velocity": 0.5905511811023622,
                    "duration": 0.1030857499999982
                },
                {
                    "name": "E5",
                    "midi": 76,
                    "time": 53.39841850000006,
                    "velocity": 0.5905511811023622,
                    "duration": 0.1030857499999982
                },
                {
                    "name": "C#5",
                    "midi": 73,
                    "time": 53.50150425000006,
                    "velocity": 0.5905511811023622,
                    "duration": 0.1030857499999982
                },
                {
                    "name": "E5",
                    "midi": 76,
                    "time": 53.60459000000006,
                    "velocity": 0.6377952755905512,
                    "duration": 0.1030857499999982
                },
                {
                    "name": "G5",
                    "midi": 79,
                    "time": 53.70767575000006,
                    "velocity": 0.5748031496062992,
                    "duration": 0.1030857499999982
                },
                {
                    "name": "E5",
                    "midi": 76,
                    "time": 53.810761500000055,
                    "velocity": 0.5748031496062992,
                    "duration": 0.1030857499999982
                },
                {
                    "name": "C#5",
                    "midi": 73,
                    "time": 53.91384725000005,
                    "velocity": 0.5748031496062992,
                    "duration": 0.1030857499999982
                },
                {
                    "name": "A#4",
                    "midi": 70,
                    "time": 54.01693300000005,
                    "velocity": 0.6299212598425197,
                    "duration": 0.1030857499999982
                },
                {
                    "name": "G4",
                    "midi": 67,
                    "time": 54.12001875000005,
                    "velocity": 0.5826771653543307,
                    "duration": 0.1030857499999982
                },
                {
                    "name": "E4",
                    "midi": 64,
                    "time": 54.22310450000005,
                    "velocity": 0.5826771653543307,
                    "duration": 0.1030857499999982
                },
                {
                    "name": "C#4",
                    "midi": 61,
                    "time": 54.326190250000046,
                    "velocity": 0.5826771653543307,
                    "duration": 0.1030857499999982
                },
                {
                    "name": "E4",
                    "midi": 64,
                    "time": 54.429276000000044,
                    "velocity": 0.6062992125984252,
                    "duration": 0.1030857499999982
                },
                {
                    "name": "G4",
                    "midi": 67,
                    "time": 54.53236175000004,
                    "velocity": 0.4566929133858268,
                    "duration": 0.1030857499999982
                },
                {
                    "name": "E4",
                    "midi": 64,
                    "time": 54.63544750000004,
                    "velocity": 0.4566929133858268,
                    "duration": 0.1030857499999982
                },
                {
                    "name": "C#4",
                    "midi": 61,
                    "time": 54.73853325000004,
                    "velocity": 0.4566929133858268,
                    "duration": 0.1030857499999982
                },
                {
                    "name": "E4",
                    "midi": 64,
                    "time": 54.84161900000004,
                    "velocity": 0.5039370078740157,
                    "duration": 0.1030857499999982
                },
                {
                    "name": "G4",
                    "midi": 67,
                    "time": 54.944704750000035,
                    "velocity": 0.41732283464566927,
                    "duration": 0.1030857499999982
                },
                {
                    "name": "E4",
                    "midi": 64,
                    "time": 55.04779050000003,
                    "velocity": 0.4094488188976378,
                    "duration": 0.1030857499999982
                },
                {
                    "name": "C#4",
                    "midi": 61,
                    "time": 55.15087625000003,
                    "velocity": 0.4094488188976378,
                    "duration": 0.1030857499999982
                },
                {
                    "name": "E4",
                    "midi": 64,
                    "time": 55.25396200000003,
                    "velocity": 0.44881889763779526,
                    "duration": 0.1030857499999982
                },
                {
                    "name": "G4",
                    "midi": 67,
                    "time": 55.35704775000003,
                    "velocity": 0.3779527559055118,
                    "duration": 0.1030857499999982
                },
                {
                    "name": "E4",
                    "midi": 64,
                    "time": 55.460133500000026,
                    "velocity": 0.3779527559055118,
                    "duration": 0.1030857499999982
                },
                {
                    "name": "C#4",
                    "midi": 61,
                    "time": 55.563219250000024,
                    "velocity": 0.3779527559055118,
                    "duration": 0.1030857499999982
                },
                {
                    "name": "E4",
                    "midi": 64,
                    "time": 55.66630500000002,
                    "velocity": 0.4251968503937008,
                    "duration": 0.1030857499999982
                },
                {
                    "name": "G4",
                    "midi": 67,
                    "time": 55.76939075000002,
                    "velocity": 0.36220472440944884,
                    "duration": 0.1030857499999982
                },
                {
                    "name": "E4",
                    "midi": 64,
                    "time": 55.87247650000002,
                    "velocity": 0.36220472440944884,
                    "duration": 0.1030857499999982
                },
                {
                    "name": "C#4",
                    "midi": 61,
                    "time": 55.97556225000002,
                    "velocity": 0.36220472440944884,
                    "duration": 0.1030857499999982
                },
                {
                    "name": "D4",
                    "midi": 62,
                    "time": 56.078648000000015,
                    "velocity": 0.3937007874015748,
                    "duration": 0.1030857499999982
                },
                {
                    "name": "G4",
                    "midi": 67,
                    "time": 56.181733750000014,
                    "velocity": 0.3228346456692913,
                    "duration": 0.1030857499999982
                },
                {
                    "name": "D4",
                    "midi": 62,
                    "time": 56.28481950000001,
                    "velocity": 0.3228346456692913,
                    "duration": 0.1030857499999982
                },
                {
                    "name": "G3",
                    "midi": 55,
                    "time": 56.38790525000001,
                    "velocity": 0.3228346456692913,
                    "duration": 0.1030857499999982
                },
                {
                    "name": "D4",
                    "midi": 62,
                    "time": 56.49099100000001,
                    "velocity": 0.3858267716535433,
                    "duration": 0.1030857499999982
                },
                {
                    "name": "G4",
                    "midi": 67,
                    "time": 56.594076750000006,
                    "velocity": 0.3228346456692913,
                    "duration": 0.1030857499999982
                },
                {
                    "name": "D4",
                    "midi": 62,
                    "time": 56.697162500000005,
                    "velocity": 0.3228346456692913,
                    "duration": 0.1030857499999982
                },
                {
                    "name": "G3",
                    "midi": 55,
                    "time": 56.80024825,
                    "velocity": 0.3228346456692913,
                    "duration": 0.1030857499999982
                },
                {
                    "name": "D4",
                    "midi": 62,
                    "time": 56.903334,
                    "velocity": 0.3779527559055118,
                    "duration": 0.1030857499999982
                },
                {
                    "name": "G4",
                    "midi": 67,
                    "time": 57.00641975,
                    "velocity": 0.3228346456692913,
                    "duration": 0.1030857499999982
                },
                {
                    "name": "D4",
                    "midi": 62,
                    "time": 57.1095055,
                    "velocity": 0.3228346456692913,
                    "duration": 0.1030857499999982
                },
                {
                    "name": "G3",
                    "midi": 55,
                    "time": 57.212591249999996,
                    "velocity": 0.3228346456692913,
                    "duration": 0.1030857499999982
                },
                {
                    "name": "D4",
                    "midi": 62,
                    "time": 57.315676999999994,
                    "velocity": 0.3779527559055118,
                    "duration": 0.1030857499999982
                },
                {
                    "name": "G4",
                    "midi": 67,
                    "time": 57.41876274999999,
                    "velocity": 0.3228346456692913,
                    "duration": 0.1030857499999982
                },
                {
                    "name": "D4",
                    "midi": 62,
                    "time": 57.52184849999999,
                    "velocity": 0.31496062992125984,
                    "duration": 0.1030857499999982
                },
                {
                    "name": "G3",
                    "midi": 55,
                    "time": 57.62493424999999,
                    "velocity": 0.31496062992125984,
                    "duration": 0.1030857499999982
                },
                {
                    "name": "B3",
                    "midi": 59,
                    "time": 57.72801999999999,
                    "velocity": 0.4330708661417323,
                    "duration": 0.4123429999999928
                },
                {
                    "name": "E4",
                    "midi": 64,
                    "time": 57.831105749999985,
                    "velocity": 0.3228346456692913,
                    "duration": 0.1030857499999982
                },
                {
                    "name": "B4",
                    "midi": 71,
                    "time": 57.93419149999998,
                    "velocity": 0.3228346456692913,
                    "duration": 0.1030857499999982
                },
                {
                    "name": "E4",
                    "midi": 64,
                    "time": 58.03727724999998,
                    "velocity": 0.3228346456692913,
                    "duration": 0.1030857499999982
                },
                {
                    "name": "B3",
                    "midi": 59,
                    "time": 58.14036299999998,
                    "velocity": 0.41732283464566927,
                    "duration": 0.4123429999999928
                },
                {
                    "name": "E4",
                    "midi": 64,
                    "time": 58.24344874999998,
                    "velocity": 0.3228346456692913,
                    "duration": 0.1030857499999982
                },
                {
                    "name": "B4",
                    "midi": 71,
                    "time": 58.346534499999976,
                    "velocity": 0.3228346456692913,
                    "duration": 0.1030857499999982
                },
                {
                    "name": "E4",
                    "midi": 64,
                    "time": 58.449620249999974,
                    "velocity": 0.3228346456692913,
                    "duration": 0.1030857499999982
                },
                {
                    "name": "B3",
                    "midi": 59,
                    "time": 58.55270599999997,
                    "velocity": 0.4094488188976378,
                    "duration": 0.4123429999999928
                },
                {
                    "name": "E4",
                    "midi": 64,
                    "time": 58.65579174999997,
                    "velocity": 0.3228346456692913,
                    "duration": 0.1030857499999982
                },
                {
                    "name": "B4",
                    "midi": 71,
                    "time": 58.75887749999997,
                    "velocity": 0.3228346456692913,
                    "duration": 0.1030857499999982
                },
                {
                    "name": "E4",
                    "midi": 64,
                    "time": 58.86196324999997,
                    "velocity": 0.3228346456692913,
                    "duration": 0.1030857499999982
                },
                {
                    "name": "A3",
                    "midi": 57,
                    "time": 58.965048999999965,
                    "velocity": 0.4094488188976378,
                    "duration": 0.4123429999999928
                },
                {
                    "name": "E4",
                    "midi": 64,
                    "time": 59.06813474999996,
                    "velocity": 0.3228346456692913,
                    "duration": 0.1030857499999982
                },
                {
                    "name": "A4",
                    "midi": 69,
                    "time": 59.17122049999996,
                    "velocity": 0.31496062992125984,
                    "duration": 0.1030857499999982
                },
                {
                    "name": "E4",
                    "midi": 64,
                    "time": 59.27430624999996,
                    "velocity": 0.31496062992125984,
                    "duration": 0.1030857499999982
                },
                {
                    "name": "B3",
                    "midi": 59,
                    "time": 59.37739199999996,
                    "velocity": 0.3937007874015748,
                    "duration": 0.1030857499999982
                },
                {
                    "name": "D4",
                    "midi": 62,
                    "time": 59.480477749999956,
                    "velocity": 0.3228346456692913,
                    "duration": 0.1030857499999982
                },
                {
                    "name": "A4",
                    "midi": 69,
                    "time": 59.583563499999954,
                    "velocity": 0.3228346456692913,
                    "duration": 0.1030857499999982
                },
                {
                    "name": "D4",
                    "midi": 62,
                    "time": 59.68664924999995,
                    "velocity": 0.3228346456692913,
                    "duration": 0.1030857499999982
                },
                {
                    "name": "B3",
                    "midi": 59,
                    "time": 59.78973499999995,
                    "velocity": 0.3858267716535433,
                    "duration": 0.1030857499999982
                },
                {
                    "name": "D4",
                    "midi": 62,
                    "time": 59.89282074999995,
                    "velocity": 0.3228346456692913,
                    "duration": 0.1030857499999982
                },
                {
                    "name": "G4",
                    "midi": 67,
                    "time": 59.99590649999995,
                    "velocity": 0.3228346456692913,
                    "duration": 0.1030857499999982
                },
                {
                    "name": "D4",
                    "midi": 62,
                    "time": 60.098992249999945,
                    "velocity": 0.3228346456692913,
                    "duration": 0.1030857499999982
                },
                {
                    "name": "C4",
                    "midi": 60,
                    "time": 60.20207799999994,
                    "velocity": 0.3779527559055118,
                    "duration": 0.1030857499999982
                },
                {
                    "name": "D4",
                    "midi": 62,
                    "time": 60.30516374999994,
                    "velocity": 0.3228346456692913,
                    "duration": 0.1030857499999982
                },
                {
                    "name": "G4",
                    "midi": 67,
                    "time": 60.40824949999994,
                    "velocity": 0.3228346456692913,
                    "duration": 0.1030857499999982
                },
                {
                    "name": "D4",
                    "midi": 62,
                    "time": 60.51133524999994,
                    "velocity": 0.3228346456692913,
                    "duration": 0.1030857499999982
                },
                {
                    "name": "C4",
                    "midi": 60,
                    "time": 60.614420999999936,
                    "velocity": 0.3779527559055118,
                    "duration": 0.1030857499999982
                },
                {
                    "name": "D4",
                    "midi": 62,
                    "time": 60.717506749999934,
                    "velocity": 0.3228346456692913,
                    "duration": 0.1030857499999982
                },
                {
                    "name": "F#4",
                    "midi": 66,
                    "time": 60.82059249999993,
                    "velocity": 0.31496062992125984,
                    "duration": 0.1030857499999982
                },
                {
                    "name": "D4",
                    "midi": 62,
                    "time": 60.92367824999993,
                    "velocity": 0.31496062992125984,
                    "duration": 0.1030857499999982
                },
                {
                    "name": "G5",
                    "midi": 79,
                    "time": 61.02676399999993,
                    "velocity": 0.6220472440944882,
                    "duration": 0.8246859999999998
                },
                {
                    "name": "A#5",
                    "midi": 82,
                    "time": 61.02676399999993,
                    "velocity": 0.6220472440944882,
                    "duration": 0.8246859999999998
                },
                {
                    "name": "C#6",
                    "midi": 85,
                    "time": 61.02676399999993,
                    "velocity": 0.6220472440944882,
                    "duration": 0.8246859999999998
                },
                {
                    "name": "G6",
                    "midi": 91,
                    "time": 61.02676399999993,
                    "velocity": 0.7322834645669292,
                    "duration": 0.8246859999999998
                },
                {
                    "name": "E6",
                    "midi": 88,
                    "time": 62.67613599999993,
                    "velocity": 0.7007874015748031,
                    "duration": 0.1030857499999982
                },
                {
                    "name": "G6",
                    "midi": 91,
                    "time": 62.77922174999993,
                    "velocity": 0.6456692913385826,
                    "duration": 0.1030857499999982
                },
                {
                    "name": "E6",
                    "midi": 88,
                    "time": 62.882307499999925,
                    "velocity": 0.6456692913385826,
                    "duration": 0.1030857499999982
                },
                {
                    "name": "C#6",
                    "midi": 85,
                    "time": 62.98539324999992,
                    "velocity": 0.6456692913385826,
                    "duration": 0.1030857499999982
                },
                {
                    "name": "A#5",
                    "midi": 82,
                    "time": 63.08847899999992,
                    "velocity": 0.6771653543307087,
                    "duration": 0.1030857499999982
                },
                {
                    "name": "G5",
                    "midi": 79,
                    "time": 63.19156474999992,
                    "velocity": 0.5905511811023622,
                    "duration": 0.1030857499999982
                },
                {
                    "name": "E5",
                    "midi": 76,
                    "time": 63.29465049999992,
                    "velocity": 0.5905511811023622,
                    "duration": 0.1030857499999982
                },
                {
                    "name": "C#5",
                    "midi": 73,
                    "time": 63.397736249999916,
                    "velocity": 0.5905511811023622,
                    "duration": 0.1030857499999982
                },
                {
                    "name": "E5",
                    "midi": 76,
                    "time": 63.500821999999914,
                    "velocity": 0.6377952755905512,
                    "duration": 0.1030857499999982
                },
                {
                    "name": "G5",
                    "midi": 79,
                    "time": 63.60390774999991,
                    "velocity": 0.5748031496062992,
                    "duration": 0.1030857499999982
                },
                {
                    "name": "E5",
                    "midi": 76,
                    "time": 63.70699349999991,
                    "velocity": 0.5748031496062992,
                    "duration": 0.1030857499999982
                },
                {
                    "name": "C#5",
                    "midi": 73,
                    "time": 63.81007924999991,
                    "velocity": 0.5748031496062992,
                    "duration": 0.1030857499999982
                },
                {
                    "name": "A#4",
                    "midi": 70,
                    "time": 63.91316499999991,
                    "velocity": 0.6299212598425197,
                    "duration": 0.1030857500000053
                },
                {
                    "name": "G4",
                    "midi": 67,
                    "time": 64.01625074999991,
                    "velocity": 0.5826771653543307,
                    "duration": 0.1030857500000053
                },
                {
                    "name": "E4",
                    "midi": 64,
                    "time": 64.11933649999992,
                    "velocity": 0.5826771653543307,
                    "duration": 0.1030857500000053
                },
                {
                    "name": "C#4",
                    "midi": 61,
                    "time": 64.22242224999992,
                    "velocity": 0.5826771653543307,
                    "duration": 0.1030857500000053
                },
                {
                    "name": "E4",
                    "midi": 64,
                    "time": 64.32550799999993,
                    "velocity": 0.6062992125984252,
                    "duration": 0.1030857500000053
                },
                {
                    "name": "G4",
                    "midi": 67,
                    "time": 64.42859374999993,
                    "velocity": 0.4566929133858268,
                    "duration": 0.1030857500000053
                },
                {
                    "name": "E4",
                    "midi": 64,
                    "time": 64.53167949999994,
                    "velocity": 0.4566929133858268,
                    "duration": 0.1030857500000053
                },
                {
                    "name": "C#4",
                    "midi": 61,
                    "time": 64.63476524999994,
                    "velocity": 0.4566929133858268,
                    "duration": 0.1030857500000053
                },
                {
                    "name": "E4",
                    "midi": 64,
                    "time": 64.73785099999995,
                    "velocity": 0.5039370078740157,
                    "duration": 0.1030857500000053
                },
                {
                    "name": "G4",
                    "midi": 67,
                    "time": 64.84093674999995,
                    "velocity": 0.41732283464566927,
                    "duration": 0.1030857500000053
                },
                {
                    "name": "E4",
                    "midi": 64,
                    "time": 64.94402249999996,
                    "velocity": 0.4094488188976378,
                    "duration": 0.1030857500000053
                },
                {
                    "name": "C#4",
                    "midi": 61,
                    "time": 65.04710824999997,
                    "velocity": 0.4094488188976378,
                    "duration": 0.1030857500000053
                },
                {
                    "name": "E4",
                    "midi": 64,
                    "time": 65.15019399999997,
                    "velocity": 0.44881889763779526,
                    "duration": 0.1030857500000053
                },
                {
                    "name": "G4",
                    "midi": 67,
                    "time": 65.25327974999998,
                    "velocity": 0.3779527559055118,
                    "duration": 0.1030857500000053
                },
                {
                    "name": "E4",
                    "midi": 64,
                    "time": 65.35636549999998,
                    "velocity": 0.3779527559055118,
                    "duration": 0.1030857500000053
                },
                {
                    "name": "C#4",
                    "midi": 61,
                    "time": 65.45945124999999,
                    "velocity": 0.3779527559055118,
                    "duration": 0.1030857500000053
                },
                {
                    "name": "E4",
                    "midi": 64,
                    "time": 65.56253699999999,
                    "velocity": 0.4251968503937008,
                    "duration": 0.1030857500000053
                },
                {
                    "name": "G4",
                    "midi": 67,
                    "time": 65.66562275,
                    "velocity": 0.36220472440944884,
                    "duration": 0.1030857500000053
                },
                {
                    "name": "E4",
                    "midi": 64,
                    "time": 65.7687085,
                    "velocity": 0.36220472440944884,
                    "duration": 0.1030857500000053
                },
                {
                    "name": "C#4",
                    "midi": 61,
                    "time": 65.87179425000001,
                    "velocity": 0.36220472440944884,
                    "duration": 0.1030857500000053
                },
                {
                    "name": "E4",
                    "midi": 64,
                    "time": 65.97488000000001,
                    "velocity": 0.3937007874015748,
                    "duration": 0.1030857500000053
                },
                {
                    "name": "G4",
                    "midi": 67,
                    "time": 66.07796575000002,
                    "velocity": 0.3228346456692913,
                    "duration": 0.1030857500000053
                },
                {
                    "name": "E4",
                    "midi": 64,
                    "time": 66.18105150000002,
                    "velocity": 0.3228346456692913,
                    "duration": 0.1030857500000053
                },
                {
                    "name": "G3",
                    "midi": 55,
                    "time": 66.28413725000003,
                    "velocity": 0.3228346456692913,
                    "duration": 0.1030857500000053
                },
                {
                    "name": "E4",
                    "midi": 64,
                    "time": 66.38722300000003,
                    "velocity": 0.3858267716535433,
                    "duration": 0.1030857500000053
                },
                {
                    "name": "G4",
                    "midi": 67,
                    "time": 66.49030875000004,
                    "velocity": 0.3228346456692913,
                    "duration": 0.1030857500000053
                },
                {
                    "name": "E4",
                    "midi": 64,
                    "time": 66.59339450000004,
                    "velocity": 0.3228346456692913,
                    "duration": 0.1030857500000053
                },
                {
                    "name": "G3",
                    "midi": 55,
                    "time": 66.69648025000005,
                    "velocity": 0.3228346456692913,
                    "duration": 0.1030857500000053
                },
                {
                    "name": "E4",
                    "midi": 64,
                    "time": 66.79956600000006,
                    "velocity": 0.3779527559055118,
                    "duration": 0.1030857500000053
                },
                {
                    "name": "G4",
                    "midi": 67,
                    "time": 66.90265175000006,
                    "velocity": 0.3228346456692913,
                    "duration": 0.1030857500000053
                },
                {
                    "name": "E4",
                    "midi": 64,
                    "time": 67.00573750000007,
                    "velocity": 0.3228346456692913,
                    "duration": 0.1030857500000053
                },
                {
                    "name": "G3",
                    "midi": 55,
                    "time": 67.10882325000007,
                    "velocity": 0.3228346456692913,
                    "duration": 0.1030857500000053
                },
                {
                    "name": "E4",
                    "midi": 64,
                    "time": 67.21190900000008,
                    "velocity": 0.3779527559055118,
                    "duration": 0.1030857500000053
                },
                {
                    "name": "G4",
                    "midi": 67,
                    "time": 67.31499475000008,
                    "velocity": 0.3228346456692913,
                    "duration": 0.1030857500000053
                },
                {
                    "name": "E4",
                    "midi": 64,
                    "time": 67.41808050000009,
                    "velocity": 0.31496062992125984,
                    "duration": 0.1030857500000053
                },
                {
                    "name": "G3",
                    "midi": 55,
                    "time": 67.52116625000009,
                    "velocity": 0.31496062992125984,
                    "duration": 0.1030857500000053
                },
                {
                    "name": "B3",
                    "midi": 59,
                    "time": 67.6242520000001,
                    "velocity": 0.4330708661417323,
                    "duration": 0.4123430000000212
                },
                {
                    "name": "E4",
                    "midi": 64,
                    "time": 67.7273377500001,
                    "velocity": 0.3228346456692913,
                    "duration": 0.1030857500000053
                },
                {
                    "name": "B4",
                    "midi": 71,
                    "time": 67.83042350000011,
                    "velocity": 0.3228346456692913,
                    "duration": 0.1030857500000053
                },
                {
                    "name": "E4",
                    "midi": 64,
                    "time": 67.93350925000011,
                    "velocity": 0.3228346456692913,
                    "duration": 0.1030857500000053
                },
                {
                    "name": "B3",
                    "midi": 59,
                    "time": 68.03659500000012,
                    "velocity": 0.41732283464566927,
                    "duration": 0.4123430000000212
                },
                {
                    "name": "E4",
                    "midi": 64,
                    "time": 68.13968075000012,
                    "velocity": 0.3228346456692913,
                    "duration": 0.1030857500000053
                },
                {
                    "name": "B4",
                    "midi": 71,
                    "time": 68.24276650000013,
                    "velocity": 0.3228346456692913,
                    "duration": 0.1030857500000053
                },
                {
                    "name": "E4",
                    "midi": 64,
                    "time": 68.34585225000014,
                    "velocity": 0.3228346456692913,
                    "duration": 0.1030857500000053
                },
                {
                    "name": "B3",
                    "midi": 59,
                    "time": 68.44893800000014,
                    "velocity": 0.4094488188976378,
                    "duration": 0.4123430000000212
                },
                {
                    "name": "E4",
                    "midi": 64,
                    "time": 68.55202375000015,
                    "velocity": 0.3228346456692913,
                    "duration": 0.1030857500000053
                },
                {
                    "name": "B4",
                    "midi": 71,
                    "time": 68.65510950000015,
                    "velocity": 0.3228346456692913,
                    "duration": 0.1030857500000053
                },
                {
                    "name": "E4",
                    "midi": 64,
                    "time": 68.75819525000016,
                    "velocity": 0.3228346456692913,
                    "duration": 0.1030857500000053
                },
                {
                    "name": "A3",
                    "midi": 57,
                    "time": 68.86128100000016,
                    "velocity": 0.4094488188976378,
                    "duration": 0.4123430000000212
                },
                {
                    "name": "E4",
                    "midi": 64,
                    "time": 68.96436675000017,
                    "velocity": 0.3228346456692913,
                    "duration": 0.1030857500000053
                },
                {
                    "name": "A4",
                    "midi": 69,
                    "time": 69.06745250000017,
                    "velocity": 0.31496062992125984,
                    "duration": 0.1030857500000053
                },
                {
                    "name": "E4",
                    "midi": 64,
                    "time": 69.17053825000018,
                    "velocity": 0.31496062992125984,
                    "duration": 0.1030857500000053
                },
                {
                    "name": "B3",
                    "midi": 59,
                    "time": 69.27362400000018,
                    "velocity": 0.2677165354330709,
                    "duration": 0.1030857500000053
                },
                {
                    "name": "D4",
                    "midi": 62,
                    "time": 69.37670975000019,
                    "velocity": 0.2677165354330709,
                    "duration": 0.1030857500000053
                },
                {
                    "name": "A4",
                    "midi": 69,
                    "time": 69.4797955000002,
                    "velocity": 0.31496062992125984,
                    "duration": 0.4123430000000212
                },
                {
                    "name": "D4",
                    "midi": 62,
                    "time": 69.5828812500002,
                    "velocity": 0.2677165354330709,
                    "duration": 0.1030857500000053
                },
                {
                    "name": "B3",
                    "midi": 59,
                    "time": 69.6859670000002,
                    "velocity": 0.25196850393700787,
                    "duration": 0.1030857500000053
                },
                {
                    "name": "D4",
                    "midi": 62,
                    "time": 69.78905275000021,
                    "velocity": 0.2677165354330709,
                    "duration": 0.1030857500000053
                },
                {
                    "name": "A4",
                    "midi": 69,
                    "time": 69.89213850000021,
                    "velocity": 0.31496062992125984,
                    "duration": 0.4123430000000212
                },
                {
                    "name": "D4",
                    "midi": 62,
                    "time": 69.99522425000022,
                    "velocity": 0.25984251968503935,
                    "duration": 0.1030857500000053
                },
                {
                    "name": "B3",
                    "midi": 59,
                    "time": 70.09831000000023,
                    "velocity": 0.25196850393700787,
                    "duration": 0.1030857500000053
                },
                {
                    "name": "D4",
                    "midi": 62,
                    "time": 70.20139575000023,
                    "velocity": 0.25984251968503935,
                    "duration": 0.1030857500000053
                },
                {
                    "name": "A4",
                    "midi": 69,
                    "time": 70.30448150000024,
                    "velocity": 0.30708661417322836,
                    "duration": 0.4123430000000212
                },
                {
                    "name": "D4",
                    "midi": 62,
                    "time": 70.40756725000024,
                    "velocity": 0.25984251968503935,
                    "duration": 0.1030857500000053
                },
                {
                    "name": "B3",
                    "midi": 59,
                    "time": 70.51065300000025,
                    "velocity": 0.25196850393700787,
                    "duration": 0.1030857500000053
                },
                {
                    "name": "D4",
                    "midi": 62,
                    "time": 70.61373875000025,
                    "velocity": 0.25984251968503935,
                    "duration": 0.1030857500000053
                },
                {
                    "name": "G4",
                    "midi": 67,
                    "time": 70.71682450000026,
                    "velocity": 0.30708661417322836,
                    "duration": 0.4123430000000212
                },
                {
                    "name": "D4",
                    "midi": 62,
                    "time": 70.81991025000026,
                    "velocity": 0.25984251968503935,
                    "duration": 0.1030857500000053
                },
                {
                    "name": "C4",
                    "midi": 60,
                    "time": 70.92299600000027,
                    "velocity": 0.25984251968503935,
                    "duration": 0.1030857500000053
                },
                {
                    "name": "D4",
                    "midi": 62,
                    "time": 71.02608175000027,
                    "velocity": 0.25984251968503935,
                    "duration": 0.1030857500000053
                },
                {
                    "name": "G4",
                    "midi": 67,
                    "time": 71.12916750000028,
                    "velocity": 0.30708661417322836,
                    "duration": 0.4123430000000212
                },
                {
                    "name": "D4",
                    "midi": 62,
                    "time": 71.23225325000028,
                    "velocity": 0.25984251968503935,
                    "duration": 0.1030857500000053
                },
                {
                    "name": "C4",
                    "midi": 60,
                    "time": 71.33533900000029,
                    "velocity": 0.2440944881889764,
                    "duration": 0.1030857500000053
                },
                {
                    "name": "D4",
                    "midi": 62,
                    "time": 71.4384247500003,
                    "velocity": 0.25984251968503935,
                    "duration": 0.1030857500000053
                },
                {
                    "name": "F#4",
                    "midi": 66,
                    "time": 71.5415105000003,
                    "velocity": 0.30708661417322836,
                    "duration": 0.4123430000000212
                },
                {
                    "name": "D4",
                    "midi": 62,
                    "time": 71.6445962500003,
                    "velocity": 0.25984251968503935,
                    "duration": 0.1030857500000053
                },
                {
                    "name": "C4",
                    "midi": 60,
                    "time": 71.74768200000031,
                    "velocity": 0.2677165354330709,
                    "duration": 0.1030857500000053
                },
                {
                    "name": "D4",
                    "midi": 62,
                    "time": 71.85076775000032,
                    "velocity": 0.2755905511811024,
                    "duration": 0.1030857500000053
                },
                {
                    "name": "E4",
                    "midi": 64,
                    "time": 71.95385350000032,
                    "velocity": 0.31496062992125984,
                    "duration": 0.4123430000000212
                },
                {
                    "name": "D4",
                    "midi": 62,
                    "time": 72.05693925000033,
                    "velocity": 0.2677165354330709,
                    "duration": 0.1030857500000053
                },
                {
                    "name": "C4",
                    "midi": 60,
                    "time": 72.16002500000033,
                    "velocity": 0.2755905511811024,
                    "duration": 0.1030857500000053
                },
                {
                    "name": "D4",
                    "midi": 62,
                    "time": 72.26311075000034,
                    "velocity": 0.2677165354330709,
                    "duration": 0.1030857500000053
                },
                {
                    "name": "F#4",
                    "midi": 66,
                    "time": 72.36619650000034,
                    "velocity": 0.31496062992125984,
                    "duration": 0.2061715000000106
                },
                {
                    "name": "D4",
                    "midi": 62,
                    "time": 72.46928225000035,
                    "velocity": 0.2677165354330709,
                    "duration": 0.1030857500000053
                },
                {
                    "name": "B3",
                    "midi": 59,
                    "time": 72.57236800000035,
                    "velocity": 0.31496062992125984,
                    "duration": 0.2061714999999964
                },
                {
                    "name": "B4",
                    "midi": 71,
                    "time": 72.57236800000035,
                    "velocity": 0.31496062992125984,
                    "duration": 0.2061714999999964
                },
                {
                    "name": "B4",
                    "midi": 71,
                    "time": 72.77853950000035,
                    "velocity": 0.3700787401574803,
                    "duration": 0.39172585000000026
                },
                {
                    "name": "B4",
                    "midi": 71,
                    "time": 73.19088250000036,
                    "velocity": 0.3700787401574803,
                    "duration": 0.39172585000000026
                },
                {
                    "name": "B4",
                    "midi": 71,
                    "time": 73.60322550000036,
                    "velocity": 0.3700787401574803,
                    "duration": 0.39172585000000026
                },
                {
                    "name": "B4",
                    "midi": 71,
                    "time": 74.01556850000037,
                    "velocity": 0.3464566929133858,
                    "duration": 0.39172585000000026
                },
                {
                    "name": "C5",
                    "midi": 72,
                    "time": 74.42791150000038,
                    "velocity": 0.3937007874015748,
                    "duration": 0.412343000000007
                },
                {
                    "name": "B4",
                    "midi": 71,
                    "time": 74.84025450000038,
                    "velocity": 0.3779527559055118,
                    "duration": 0.412343000000007
                },
                {
                    "name": "A#4",
                    "midi": 70,
                    "time": 75.25259750000039,
                    "velocity": 0.3779527559055118,
                    "duration": 0.412343000000007
                },
                {
                    "name": "A4",
                    "midi": 69,
                    "time": 75.6649405000004,
                    "velocity": 0.3543307086614173,
                    "duration": 0.2061714999999964
                },
                {
                    "name": "G#3",
                    "midi": 56,
                    "time": 75.8711120000004,
                    "velocity": 0.23622047244094488,
                    "duration": 0.4080477604166646
                },
                {
                    "name": "G#4",
                    "midi": 68,
                    "time": 75.8711120000004,
                    "velocity": 0.28346456692913385,
                    "duration": 0.4080477604166646
                },
                {
                    "name": "G#3",
                    "midi": 56,
                    "time": 76.28345500000039,
                    "velocity": 0.2125984251968504,
                    "duration": 0.19586292500000013
                },
                {
                    "name": "G#4",
                    "midi": 68,
                    "time": 76.28345500000039,
                    "velocity": 0.2677165354330709,
                    "duration": 0.19586292500000013
                },
                {
                    "name": "G#3",
                    "midi": 56,
                    "time": 76.48962650000038,
                    "velocity": 0.2125984251968504,
                    "duration": 0.19586292500000013
                },
                {
                    "name": "G#4",
                    "midi": 68,
                    "time": 76.48962650000038,
                    "velocity": 0.2677165354330709,
                    "duration": 0.19586292500000013
                },
                {
                    "name": "G#3",
                    "midi": 56,
                    "time": 76.69579800000038,
                    "velocity": 0.23622047244094488,
                    "duration": 0.4080477604166646
                },
                {
                    "name": "G#4",
                    "midi": 68,
                    "time": 76.69579800000038,
                    "velocity": 0.28346456692913385,
                    "duration": 0.4080477604166646
                },
                {
                    "name": "G#3",
                    "midi": 56,
                    "time": 77.10814100000037,
                    "velocity": 0.2125984251968504,
                    "duration": 0.19586292500000013
                },
                {
                    "name": "G#4",
                    "midi": 68,
                    "time": 77.10814100000037,
                    "velocity": 0.25984251968503935,
                    "duration": 0.19586292500000013
                },
                {
                    "name": "G#3",
                    "midi": 56,
                    "time": 77.31431250000037,
                    "velocity": 0.2125984251968504,
                    "duration": 0.19586292500000013
                },
                {
                    "name": "G#4",
                    "midi": 68,
                    "time": 77.31431250000037,
                    "velocity": 0.25984251968503935,
                    "duration": 0.19586292500000013
                },
                {
                    "name": "G#3",
                    "midi": 56,
                    "time": 77.52048400000037,
                    "velocity": 0.23622047244094488,
                    "duration": 0.2061714999999964
                },
                {
                    "name": "G#4",
                    "midi": 68,
                    "time": 77.52048400000037,
                    "velocity": 0.28346456692913385,
                    "duration": 0.2061714999999964
                },
                {
                    "name": "B3",
                    "midi": 59,
                    "time": 77.72665550000036,
                    "velocity": 0.2125984251968504,
                    "duration": 0.2061714999999964
                },
                {
                    "name": "B4",
                    "midi": 71,
                    "time": 77.72665550000036,
                    "velocity": 0.2677165354330709,
                    "duration": 0.2061714999999964
                },
                {
                    "name": "A3",
                    "midi": 57,
                    "time": 77.93282700000036,
                    "velocity": 0.2125984251968504,
                    "duration": 0.412343000000007
                },
                {
                    "name": "A4",
                    "midi": 69,
                    "time": 77.93282700000036,
                    "velocity": 0.2677165354330709,
                    "duration": 0.412343000000007
                },
                {
                    "name": "A3",
                    "midi": 57,
                    "time": 79.16985600000037,
                    "velocity": 0.23622047244094488,
                    "duration": 0.4080477604166646
                },
                {
                    "name": "A4",
                    "midi": 69,
                    "time": 79.16985600000037,
                    "velocity": 0.28346456692913385,
                    "duration": 0.4080477604166646
                },
                {
                    "name": "A3",
                    "midi": 57,
                    "time": 79.58219900000036,
                    "velocity": 0.2125984251968504,
                    "duration": 0.19586292500000013
                },
                {
                    "name": "A4",
                    "midi": 69,
                    "time": 79.58219900000036,
                    "velocity": 0.2677165354330709,
                    "duration": 0.19586292500000013
                },
                {
                    "name": "A3",
                    "midi": 57,
                    "time": 79.78837050000035,
                    "velocity": 0.2125984251968504,
                    "duration": 0.19586292500000013
                },
                {
                    "name": "A4",
                    "midi": 69,
                    "time": 79.78837050000035,
                    "velocity": 0.2677165354330709,
                    "duration": 0.19586292500000013
                },
                {
                    "name": "A3",
                    "midi": 57,
                    "time": 79.99454200000035,
                    "velocity": 0.23622047244094488,
                    "duration": 0.4080477604166646
                },
                {
                    "name": "A4",
                    "midi": 69,
                    "time": 79.99454200000035,
                    "velocity": 0.28346456692913385,
                    "duration": 0.4080477604166646
                },
                {
                    "name": "A3",
                    "midi": 57,
                    "time": 80.40688500000034,
                    "velocity": 0.2125984251968504,
                    "duration": 0.19586292500000013
                },
                {
                    "name": "A4",
                    "midi": 69,
                    "time": 80.40688500000034,
                    "velocity": 0.25984251968503935,
                    "duration": 0.19586292500000013
                },
                {
                    "name": "A3",
                    "midi": 57,
                    "time": 80.61305650000034,
                    "velocity": 0.2125984251968504,
                    "duration": 0.19586292500000013
                },
                {
                    "name": "A4",
                    "midi": 69,
                    "time": 80.61305650000034,
                    "velocity": 0.25984251968503935,
                    "duration": 0.19586292500000013
                },
                {
                    "name": "A#3",
                    "midi": 58,
                    "time": 80.81922800000034,
                    "velocity": 0.23622047244094488,
                    "duration": 0.2061714999999964
                },
                {
                    "name": "A#4",
                    "midi": 70,
                    "time": 80.81922800000034,
                    "velocity": 0.28346456692913385,
                    "duration": 0.2061714999999964
                },
                {
                    "name": "C#4",
                    "midi": 61,
                    "time": 81.02539950000033,
                    "velocity": 0.2125984251968504,
                    "duration": 0.2061714999999964
                },
                {
                    "name": "C#5",
                    "midi": 73,
                    "time": 81.02539950000033,
                    "velocity": 0.2677165354330709,
                    "duration": 0.2061714999999964
                },
                {
                    "name": "B3",
                    "midi": 59,
                    "time": 81.23157100000033,
                    "velocity": 0.2125984251968504,
                    "duration": 0.6185145000000034
                },
                {
                    "name": "B4",
                    "midi": 71,
                    "time": 81.23157100000033,
                    "velocity": 0.2677165354330709,
                    "duration": 0.6185145000000034
                },
                {
                    "name": "E4",
                    "midi": 64,
                    "time": 81.85008550000033,
                    "velocity": 0.23622047244094488,
                    "duration": 0.2061714999999964
                },
                {
                    "name": "E5",
                    "midi": 76,
                    "time": 81.85008550000033,
                    "velocity": 0.33858267716535434,
                    "duration": 0.2061714999999964
                },
                {
                    "name": "F#4",
                    "midi": 66,
                    "time": 82.05625700000033,
                    "velocity": 0.25984251968503935,
                    "duration": 0.2061714999999964
                },
                {
                    "name": "F#5",
                    "midi": 78,
                    "time": 82.05625700000033,
                    "velocity": 0.3700787401574803,
                    "duration": 0.2061714999999964
                },
                {
                    "name": "E5",
                    "midi": 76,
                    "time": 82.26242850000033,
                    "velocity": 0.4094488188976378,
                    "duration": 0.4123429999999928
                },
                {
                    "name": "G#4",
                    "midi": 68,
                    "time": 82.26242850000033,
                    "velocity": 0.28346456692913385,
                    "duration": 0.2061714999999964
                },
                {
                    "name": "G#5",
                    "midi": 80,
                    "time": 82.26242850000033,
                    "velocity": 0.4094488188976378,
                    "duration": 0.2061714999999964
                },
                {
                    "name": "A4",
                    "midi": 69,
                    "time": 82.46860000000032,
                    "velocity": 0.3228346456692913,
                    "duration": 1.030857499999982
                },
                {
                    "name": "A5",
                    "midi": 81,
                    "time": 82.46860000000032,
                    "velocity": 0.4645669291338583,
                    "duration": 1.030857499999982
                },
                {
                    "name": "D#5",
                    "midi": 75,
                    "time": 82.67477150000032,
                    "velocity": 0.4251968503937008,
                    "duration": 0.2061714999999964
                },
                {
                    "name": "C#5",
                    "midi": 73,
                    "time": 82.88094300000031,
                    "velocity": 0.4015748031496063,
                    "duration": 0.2061714999999964
                },
                {
                    "name": "B4",
                    "midi": 71,
                    "time": 83.08711450000031,
                    "velocity": 0.3937007874015748,
                    "duration": 0.2061714999999964
                },
                {
                    "name": "B4",
                    "midi": 71,
                    "time": 83.29328600000031,
                    "velocity": 0.36220472440944884,
                    "duration": 0.8246859999999856
                },
                {
                    "name": "G#4",
                    "midi": 68,
                    "time": 83.4994575000003,
                    "velocity": 0.2125984251968504,
                    "duration": 0.2061714999999964
                },
                {
                    "name": "G#5",
                    "midi": 80,
                    "time": 83.4994575000003,
                    "velocity": 0.31496062992125984,
                    "duration": 0.2061714999999964
                },
                {
                    "name": "A4",
                    "midi": 69,
                    "time": 83.7056290000003,
                    "velocity": 0.2125984251968504,
                    "duration": 0.2061714999999964
                },
                {
                    "name": "F#5",
                    "midi": 78,
                    "time": 83.7056290000003,
                    "velocity": 0.31496062992125984,
                    "duration": 0.2061714999999964
                },
                {
                    "name": "B4",
                    "midi": 71,
                    "time": 83.9118005000003,
                    "velocity": 0.2125984251968504,
                    "duration": 0.2061714999999964
                },
                {
                    "name": "E5",
                    "midi": 76,
                    "time": 83.9118005000003,
                    "velocity": 0.31496062992125984,
                    "duration": 0.2061714999999964
                },
                {
                    "name": "B4",
                    "midi": 71,
                    "time": 84.1179720000003,
                    "velocity": 0.2677165354330709,
                    "duration": 0.4123429999999928
                },
                {
                    "name": "E5",
                    "midi": 76,
                    "time": 84.1179720000003,
                    "velocity": 0.3700787401574803,
                    "duration": 0.2061714999999964
                },
                {
                    "name": "D#5",
                    "midi": 75,
                    "time": 84.32414350000029,
                    "velocity": 0.3228346456692913,
                    "duration": 0.2061714999999964
                },
                {
                    "name": "A#4",
                    "midi": 70,
                    "time": 84.53031500000029,
                    "velocity": 0.2283464566929134,
                    "duration": 0.4123429999999928
                },
                {
                    "name": "D#5",
                    "midi": 75,
                    "time": 84.53031500000029,
                    "velocity": 0.3464566929133858,
                    "duration": 0.2061714999999964
                },
                {
                    "name": "C#5",
                    "midi": 73,
                    "time": 84.73648650000028,
                    "velocity": 0.28346456692913385,
                    "duration": 0.2061714999999964
                },
                {
                    "name": "B4",
                    "midi": 71,
                    "time": 84.94265800000028,
                    "velocity": 0.28346456692913385,
                    "duration": 0.2061714999999964
                },
                {
                    "name": "B5",
                    "midi": 83,
                    "time": 85.14882950000028,
                    "velocity": 0.30708661417322836,
                    "duration": 0.2061714999999964
                },
                {
                    "name": "B4",
                    "midi": 71,
                    "time": 85.14882950000028,
                    "velocity": 0.2125984251968504,
                    "duration": 0.2061714999999964
                },
                {
                    "name": "A#4",
                    "midi": 70,
                    "time": 85.35500100000027,
                    "velocity": 0.2047244094488189,
                    "duration": 0.2061714999999964
                },
                {
                    "name": "A#5",
                    "midi": 82,
                    "time": 85.35500100000027,
                    "velocity": 0.28346456692913385,
                    "duration": 0.2061714999999964
                },
                {
                    "name": "A4",
                    "midi": 69,
                    "time": 85.56117250000027,
                    "velocity": 0.1968503937007874,
                    "duration": 0.2061714999999964
                },
                {
                    "name": "A5",
                    "midi": 81,
                    "time": 85.56117250000027,
                    "velocity": 0.28346456692913385,
                    "duration": 0.2061714999999964
                },
                {
                    "name": "G#4",
                    "midi": 68,
                    "time": 85.76734400000026,
                    "velocity": 0.23622047244094488,
                    "duration": 0.4080477604166646
                },
                {
                    "name": "G#5",
                    "midi": 80,
                    "time": 85.76734400000026,
                    "velocity": 0.28346456692913385,
                    "duration": 0.4080477604166646
                },
                {
                    "name": "G#4",
                    "midi": 68,
                    "time": 86.17968700000026,
                    "velocity": 0.2125984251968504,
                    "duration": 0.19586292500000013
                },
                {
                    "name": "G#5",
                    "midi": 80,
                    "time": 86.17968700000026,
                    "velocity": 0.2677165354330709,
                    "duration": 0.19586292500000013
                },
                {
                    "name": "G#4",
                    "midi": 68,
                    "time": 86.38585850000025,
                    "velocity": 0.2125984251968504,
                    "duration": 0.19586292500000013
                },
                {
                    "name": "G#5",
                    "midi": 80,
                    "time": 86.38585850000025,
                    "velocity": 0.2677165354330709,
                    "duration": 0.19586292500000013
                },
                {
                    "name": "G#4",
                    "midi": 68,
                    "time": 86.59203000000025,
                    "velocity": 0.23622047244094488,
                    "duration": 0.4080477604166646
                },
                {
                    "name": "G#5",
                    "midi": 80,
                    "time": 86.59203000000025,
                    "velocity": 0.28346456692913385,
                    "duration": 0.4080477604166646
                },
                {
                    "name": "G#4",
                    "midi": 68,
                    "time": 87.00437300000024,
                    "velocity": 0.2125984251968504,
                    "duration": 0.19586292500000013
                },
                {
                    "name": "G#5",
                    "midi": 80,
                    "time": 87.00437300000024,
                    "velocity": 0.25984251968503935,
                    "duration": 0.19586292500000013
                },
                {
                    "name": "G#4",
                    "midi": 68,
                    "time": 87.21054450000024,
                    "velocity": 0.2125984251968504,
                    "duration": 0.19586292500000013
                },
                {
                    "name": "G#5",
                    "midi": 80,
                    "time": 87.21054450000024,
                    "velocity": 0.25984251968503935,
                    "duration": 0.19586292500000013
                },
                {
                    "name": "G#4",
                    "midi": 68,
                    "time": 87.41671600000024,
                    "velocity": 0.23622047244094488,
                    "duration": 0.2061714999999964
                },
                {
                    "name": "G#5",
                    "midi": 80,
                    "time": 87.41671600000024,
                    "velocity": 0.28346456692913385,
                    "duration": 0.2061714999999964
                },
                {
                    "name": "B4",
                    "midi": 71,
                    "time": 87.62288750000023,
                    "velocity": 0.2125984251968504,
                    "duration": 0.2061714999999964
                },
                {
                    "name": "B5",
                    "midi": 83,
                    "time": 87.62288750000023,
                    "velocity": 0.2677165354330709,
                    "duration": 0.2061714999999964
                },
                {
                    "name": "A4",
                    "midi": 69,
                    "time": 87.82905900000023,
                    "velocity": 0.2125984251968504,
                    "duration": 0.412343000000007
                },
                {
                    "name": "A5",
                    "midi": 81,
                    "time": 87.82905900000023,
                    "velocity": 0.2677165354330709,
                    "duration": 0.412343000000007
                },
                {
                    "name": "A4",
                    "midi": 69,
                    "time": 89.06608800000024,
                    "velocity": 0.23622047244094488,
                    "duration": 0.4080477604166646
                },
                {
                    "name": "A5",
                    "midi": 81,
                    "time": 89.06608800000024,
                    "velocity": 0.28346456692913385,
                    "duration": 0.4080477604166646
                },
                {
                    "name": "A4",
                    "midi": 69,
                    "time": 89.47843100000023,
                    "velocity": 0.2125984251968504,
                    "duration": 0.19586292500000013
                },
                {
                    "name": "A5",
                    "midi": 81,
                    "time": 89.47843100000023,
                    "velocity": 0.2677165354330709,
                    "duration": 0.19586292500000013
                },
                {
                    "name": "A4",
                    "midi": 69,
                    "time": 89.68460250000022,
                    "velocity": 0.2125984251968504,
                    "duration": 0.19586292500000013
                },
                {
                    "name": "A5",
                    "midi": 81,
                    "time": 89.68460250000022,
                    "velocity": 0.2677165354330709,
                    "duration": 0.19586292500000013
                },
                {
                    "name": "A4",
                    "midi": 69,
                    "time": 89.89077400000022,
                    "velocity": 0.23622047244094488,
                    "duration": 0.4080477604166646
                },
                {
                    "name": "A5",
                    "midi": 81,
                    "time": 89.89077400000022,
                    "velocity": 0.28346456692913385,
                    "duration": 0.4080477604166646
                },
                {
                    "name": "A4",
                    "midi": 69,
                    "time": 90.30311700000021,
                    "velocity": 0.2125984251968504,
                    "duration": 0.19586292500000013
                },
                {
                    "name": "A5",
                    "midi": 81,
                    "time": 90.30311700000021,
                    "velocity": 0.25984251968503935,
                    "duration": 0.19586292500000013
                },
                {
                    "name": "A4",
                    "midi": 69,
                    "time": 90.50928850000021,
                    "velocity": 0.2125984251968504,
                    "duration": 0.19586292500000013
                },
                {
                    "name": "A5",
                    "midi": 81,
                    "time": 90.50928850000021,
                    "velocity": 0.25984251968503935,
                    "duration": 0.19586292500000013
                },
                {
                    "name": "A#4",
                    "midi": 70,
                    "time": 90.7154600000002,
                    "velocity": 0.23622047244094488,
                    "duration": 0.2061714999999964
                },
                {
                    "name": "A#5",
                    "midi": 82,
                    "time": 90.7154600000002,
                    "velocity": 0.28346456692913385,
                    "duration": 0.2061714999999964
                },
                {
                    "name": "C5",
                    "midi": 72,
                    "time": 90.9216315000002,
                    "velocity": 0.2125984251968504,
                    "duration": 0.2061714999999964
                },
                {
                    "name": "C6",
                    "midi": 84,
                    "time": 90.9216315000002,
                    "velocity": 0.2677165354330709,
                    "duration": 0.2061714999999964
                },
                {
                    "name": "B4",
                    "midi": 71,
                    "time": 91.1278030000002,
                    "velocity": 0.2125984251968504,
                    "duration": 0.6185145000000034
                },
                {
                    "name": "B5",
                    "midi": 83,
                    "time": 91.1278030000002,
                    "velocity": 0.2677165354330709,
                    "duration": 0.6185145000000034
                },
                {
                    "name": "B4",
                    "midi": 71,
                    "time": 92.3648320000002,
                    "velocity": 0.3543307086614173,
                    "duration": 0.2061714999999964
                },
                {
                    "name": "B5",
                    "midi": 83,
                    "time": 92.3648320000002,
                    "velocity": 0.3543307086614173,
                    "duration": 0.2061714999999964
                },
                {
                    "name": "D5",
                    "midi": 74,
                    "time": 92.5710035000002,
                    "velocity": 0.31496062992125984,
                    "duration": 0.2061714999999964
                },
                {
                    "name": "D6",
                    "midi": 86,
                    "time": 92.5710035000002,
                    "velocity": 0.31496062992125984,
                    "duration": 0.2061714999999964
                },
                {
                    "name": "C5",
                    "midi": 72,
                    "time": 92.7771750000002,
                    "velocity": 0.3228346456692913,
                    "duration": 0.412343000000007
                },
                {
                    "name": "C6",
                    "midi": 84,
                    "time": 92.7771750000002,
                    "velocity": 0.3228346456692913,
                    "duration": 0.412343000000007
                },
                {
                    "name": "E5",
                    "midi": 76,
                    "time": 93.1895180000002,
                    "velocity": 0.4251968503937008,
                    "duration": 0.6185145000000034
                },
                {
                    "name": "E6",
                    "midi": 88,
                    "time": 93.1895180000002,
                    "velocity": 0.4251968503937008,
                    "duration": 0.6185145000000034
                },
                {
                    "name": "C5",
                    "midi": 72,
                    "time": 93.80803250000021,
                    "velocity": 0.33858267716535434,
                    "duration": 0.2061714999999964
                },
                {
                    "name": "C6",
                    "midi": 84,
                    "time": 93.80803250000021,
                    "velocity": 0.33858267716535434,
                    "duration": 0.2061714999999964
                },
                {
                    "name": "A#4",
                    "midi": 70,
                    "time": 94.0142040000002,
                    "velocity": 0.3543307086614173,
                    "duration": 0.2061714999999964
                },
                {
                    "name": "A#5",
                    "midi": 82,
                    "time": 94.0142040000002,
                    "velocity": 0.3543307086614173,
                    "duration": 0.2061714999999964
                },
                {
                    "name": "C5",
                    "midi": 72,
                    "time": 94.2203755000002,
                    "velocity": 0.31496062992125984,
                    "duration": 0.2061714999999964
                },
                {
                    "name": "C6",
                    "midi": 84,
                    "time": 94.2203755000002,
                    "velocity": 0.31496062992125984,
                    "duration": 0.2061714999999964
                },
                {
                    "name": "B4",
                    "midi": 71,
                    "time": 94.4265470000002,
                    "velocity": 0.3228346456692913,
                    "duration": 0.412343000000007
                },
                {
                    "name": "B5",
                    "midi": 83,
                    "time": 94.4265470000002,
                    "velocity": 0.3228346456692913,
                    "duration": 0.412343000000007
                },
                {
                    "name": "E5",
                    "midi": 76,
                    "time": 94.8388900000002,
                    "velocity": 0.4251968503937008,
                    "duration": 0.6185145000000034
                },
                {
                    "name": "E6",
                    "midi": 88,
                    "time": 94.8388900000002,
                    "velocity": 0.4251968503937008,
                    "duration": 0.6185145000000034
                },
                {
                    "name": "B4",
                    "midi": 71,
                    "time": 95.45740450000021,
                    "velocity": 0.33858267716535434,
                    "duration": 0.2061714999999964
                },
                {
                    "name": "B5",
                    "midi": 83,
                    "time": 95.45740450000021,
                    "velocity": 0.33858267716535434,
                    "duration": 0.2061714999999964
                },
                {
                    "name": "A4",
                    "midi": 69,
                    "time": 95.6635760000002,
                    "velocity": 0.30708661417322836,
                    "duration": 0.2061714999999964
                },
                {
                    "name": "A5",
                    "midi": 81,
                    "time": 95.6635760000002,
                    "velocity": 0.36220472440944884,
                    "duration": 0.2061714999999964
                },
                {
                    "name": "B4",
                    "midi": 71,
                    "time": 95.8697475000002,
                    "velocity": 0.3228346456692913,
                    "duration": 0.2061714999999964
                },
                {
                    "name": "B5",
                    "midi": 83,
                    "time": 95.8697475000002,
                    "velocity": 0.3858267716535433,
                    "duration": 0.2061714999999964
                },
                {
                    "name": "C5",
                    "midi": 72,
                    "time": 96.0759190000002,
                    "velocity": 0.4015748031496063,
                    "duration": 0.2061714999999964
                },
                {
                    "name": "C6",
                    "midi": 84,
                    "time": 96.0759190000002,
                    "velocity": 0.4015748031496063,
                    "duration": 0.2061714999999964
                },
                {
                    "name": "A4",
                    "midi": 69,
                    "time": 96.2820905000002,
                    "velocity": 0.30708661417322836,
                    "duration": 0.2061714999999964
                },
                {
                    "name": "A5",
                    "midi": 81,
                    "time": 96.2820905000002,
                    "velocity": 0.36220472440944884,
                    "duration": 0.2061714999999964
                },
                {
                    "name": "G4",
                    "midi": 67,
                    "time": 96.48826200000019,
                    "velocity": 0.29133858267716534,
                    "duration": 0.2061714999999964
                },
                {
                    "name": "G5",
                    "midi": 79,
                    "time": 96.48826200000019,
                    "velocity": 0.3543307086614173,
                    "duration": 0.2061714999999964
                },
                {
                    "name": "A#4",
                    "midi": 70,
                    "time": 96.69443350000019,
                    "velocity": 0.30708661417322836,
                    "duration": 0.2061714999999964
                },
                {
                    "name": "A#5",
                    "midi": 82,
                    "time": 96.69443350000019,
                    "velocity": 0.36220472440944884,
                    "duration": 0.2061714999999964
                },
                {
                    "name": "B4",
                    "midi": 71,
                    "time": 96.90060500000018,
                    "velocity": 0.3228346456692913,
                    "duration": 0.2061714999999964
                },
                {
                    "name": "B5",
                    "midi": 83,
                    "time": 96.90060500000018,
                    "velocity": 0.3858267716535433,
                    "duration": 0.2061714999999964
                },
                {
                    "name": "G4",
                    "midi": 67,
                    "time": 97.10677650000018,
                    "velocity": 0.29133858267716534,
                    "duration": 0.2061714999999964
                },
                {
                    "name": "G5",
                    "midi": 79,
                    "time": 97.10677650000018,
                    "velocity": 0.3543307086614173,
                    "duration": 0.2061714999999964
                },
                {
                    "name": "F#4",
                    "midi": 66,
                    "time": 97.31294800000018,
                    "velocity": 0.28346456692913385,
                    "duration": 0.8246859999999998
                },
                {
                    "name": "D#5",
                    "midi": 75,
                    "time": 97.31294800000018,
                    "velocity": 0.28346456692913385,
                    "duration": 0.8246859999999998
                },
                {
                    "name": "F#5",
                    "midi": 78,
                    "time": 97.31294800000018,
                    "velocity": 0.33858267716535434,
                    "duration": 0.8246859999999998
                },
                {
                    "name": "A3",
                    "midi": 57,
                    "time": 98.96232000000018,
                    "velocity": 0.30708661417322836,
                    "duration": 0.2061714999999964
                },
                {
                    "name": "A4",
                    "midi": 69,
                    "time": 98.96232000000018,
                    "velocity": 0.36220472440944884,
                    "duration": 0.2061714999999964
                },
                {
                    "name": "B3",
                    "midi": 59,
                    "time": 99.16849150000017,
                    "velocity": 0.3228346456692913,
                    "duration": 0.2061714999999964
                },
                {
                    "name": "B4",
                    "midi": 71,
                    "time": 99.16849150000017,
                    "velocity": 0.3858267716535433,
                    "duration": 0.2061714999999964
                },
                {
                    "name": "C4",
                    "midi": 60,
                    "time": 99.37466300000017,
                    "velocity": 0.4015748031496063,
                    "duration": 0.2061714999999964
                },
                {
                    "name": "C5",
                    "midi": 72,
                    "time": 99.37466300000017,
                    "velocity": 0.4015748031496063,
                    "duration": 0.2061714999999964
                },
                {
                    "name": "A3",
                    "midi": 57,
                    "time": 99.58083450000017,
                    "velocity": 0.30708661417322836,
                    "duration": 0.2061714999999964
                },
                {
                    "name": "A4",
                    "midi": 69,
                    "time": 99.58083450000017,
                    "velocity": 0.36220472440944884,
                    "duration": 0.2061714999999964
                },
                {
                    "name": "G3",
                    "midi": 55,
                    "time": 99.78700600000016,
                    "velocity": 0.29133858267716534,
                    "duration": 0.2061714999999964
                },
                {
                    "name": "G4",
                    "midi": 67,
                    "time": 99.78700600000016,
                    "velocity": 0.3543307086614173,
                    "duration": 0.2061714999999964
                },
                {
                    "name": "A#3",
                    "midi": 58,
                    "time": 99.99317750000016,
                    "velocity": 0.30708661417322836,
                    "duration": 0.2061714999999964
                },
                {
                    "name": "A#4",
                    "midi": 70,
                    "time": 99.99317750000016,
                    "velocity": 0.36220472440944884,
                    "duration": 0.2061714999999964
                },
                {
                    "name": "B3",
                    "midi": 59,
                    "time": 100.19934900000015,
                    "velocity": 0.3228346456692913,
                    "duration": 0.2061714999999964
                },
                {
                    "name": "B4",
                    "midi": 71,
                    "time": 100.19934900000015,
                    "velocity": 0.3858267716535433,
                    "duration": 0.2061714999999964
                },
                {
                    "name": "G3",
                    "midi": 55,
                    "time": 100.40552050000015,
                    "velocity": 0.29133858267716534,
                    "duration": 0.2061714999999964
                },
                {
                    "name": "G4",
                    "midi": 67,
                    "time": 100.40552050000015,
                    "velocity": 0.3543307086614173,
                    "duration": 0.2061714999999964
                },
                {
                    "name": "F#3",
                    "midi": 54,
                    "time": 100.61169200000015,
                    "velocity": 0.28346456692913385,
                    "duration": 0.8246859999999998
                },
                {
                    "name": "D#4",
                    "midi": 63,
                    "time": 100.61169200000015,
                    "velocity": 0.28346456692913385,
                    "duration": 0.8246859999999998
                },
                {
                    "name": "F#4",
                    "midi": 66,
                    "time": 100.61169200000015,
                    "velocity": 0.33858267716535434,
                    "duration": 0.8246859999999998
                },
                {
                    "name": "D4",
                    "midi": 62,
                    "time": 101.64254950000014,
                    "velocity": 0.31496062992125984,
                    "duration": 0.2061714999999964
                },
                {
                    "name": "F#4",
                    "midi": 66,
                    "time": 101.64254950000014,
                    "velocity": 0.31496062992125984,
                    "duration": 0.2061714999999964
                },
                {
                    "name": "C#4",
                    "midi": 61,
                    "time": 101.84872100000014,
                    "velocity": 0.33070866141732286,
                    "duration": 0.2061714999999964
                },
                {
                    "name": "E4",
                    "midi": 64,
                    "time": 101.84872100000014,
                    "velocity": 0.33070866141732286,
                    "duration": 0.2061714999999964
                },
                {
                    "name": "F#4",
                    "midi": 66,
                    "time": 101.84872100000014,
                    "velocity": 0.33070866141732286,
                    "duration": 0.2061714999999964
                },
                {
                    "name": "B3",
                    "midi": 59,
                    "time": 102.05489250000014,
                    "velocity": 0.3464566929133858,
                    "duration": 0.2061714999999964
                },
                {
                    "name": "D4",
                    "midi": 62,
                    "time": 102.05489250000014,
                    "velocity": 0.3464566929133858,
                    "duration": 0.2061714999999964
                },
                {
                    "name": "F#4",
                    "midi": 66,
                    "time": 102.05489250000014,
                    "velocity": 0.3464566929133858,
                    "duration": 0.2061714999999964
                },
                {
                    "name": "G#3",
                    "midi": 56,
                    "time": 102.26106400000013,
                    "velocity": 0.3543307086614173,
                    "duration": 0.6185145000000034
                },
                {
                    "name": "F#4",
                    "midi": 66,
                    "time": 102.26106400000013,
                    "velocity": 0.3543307086614173,
                    "duration": 0.412343000000007
                },
                {
                    "name": "F4",
                    "midi": 65,
                    "time": 102.67340700000014,
                    "velocity": 0.3464566929133858,
                    "duration": 0.2061714999999964
                },
                {
                    "name": "A3",
                    "midi": 57,
                    "time": 102.87957850000014,
                    "velocity": 0.3543307086614173,
                    "duration": 0.2061714999999964
                },
                {
                    "name": "C#4",
                    "midi": 61,
                    "time": 102.87957850000014,
                    "velocity": 0.3543307086614173,
                    "duration": 0.2061714999999964
                },
                {
                    "name": "F#4",
                    "midi": 66,
                    "time": 102.87957850000014,
                    "velocity": 0.3543307086614173,
                    "duration": 0.2061714999999964
                },
                {
                    "name": "C#4",
                    "midi": 61,
                    "time": 103.08575000000013,
                    "velocity": 0.3700787401574803,
                    "duration": 0.412343000000007
                },
                {
                    "name": "F4",
                    "midi": 65,
                    "time": 103.08575000000013,
                    "velocity": 0.3700787401574803,
                    "duration": 0.412343000000007
                },
                {
                    "name": "G#4",
                    "midi": 68,
                    "time": 103.08575000000013,
                    "velocity": 0.3700787401574803,
                    "duration": 0.412343000000007
                },
                {
                    "name": "C#4",
                    "midi": 61,
                    "time": 103.49809300000014,
                    "velocity": 0.3700787401574803,
                    "duration": 0.2061714999999964
                },
                {
                    "name": "F#4",
                    "midi": 66,
                    "time": 103.49809300000014,
                    "velocity": 0.3700787401574803,
                    "duration": 0.2061714999999964
                },
                {
                    "name": "A4",
                    "midi": 69,
                    "time": 103.49809300000014,
                    "velocity": 0.3700787401574803,
                    "duration": 0.2061714999999964
                },
                {
                    "name": "C#4",
                    "midi": 61,
                    "time": 103.70426450000014,
                    "velocity": 0.3700787401574803,
                    "duration": 0.2061714999999964
                },
                {
                    "name": "F4",
                    "midi": 65,
                    "time": 103.70426450000014,
                    "velocity": 0.3700787401574803,
                    "duration": 0.2061714999999964
                },
                {
                    "name": "C#5",
                    "midi": 73,
                    "time": 103.70426450000014,
                    "velocity": 0.3700787401574803,
                    "duration": 0.2061714999999964
                },
                {
                    "name": "C#4",
                    "midi": 61,
                    "time": 103.91043600000013,
                    "velocity": 0.4015748031496063,
                    "duration": 0.6185145000000034
                },
                {
                    "name": "F#4",
                    "midi": 66,
                    "time": 103.91043600000013,
                    "velocity": 0.4015748031496063,
                    "duration": 0.6185145000000034
                },
                {
                    "name": "B4",
                    "midi": 71,
                    "time": 103.91043600000013,
                    "velocity": 0.4015748031496063,
                    "duration": 0.412343000000007
                },
                {
                    "name": "A4",
                    "midi": 69,
                    "time": 104.32277900000014,
                    "velocity": 0.3543307086614173,
                    "duration": 0.2061714999999964
                },
                {
                    "name": "B3",
                    "midi": 59,
                    "time": 104.52895050000014,
                    "velocity": 0.3543307086614173,
                    "duration": 0.2061714999999964
                },
                {
                    "name": "C#4",
                    "midi": 61,
                    "time": 104.52895050000014,
                    "velocity": 0.3543307086614173,
                    "duration": 0.2061714999999964
                },
                {
                    "name": "G#4",
                    "midi": 68,
                    "time": 104.52895050000014,
                    "velocity": 0.3543307086614173,
                    "duration": 0.2061714999999964
                },
                {
                    "name": "A3",
                    "midi": 57,
                    "time": 104.73512200000013,
                    "velocity": 0.3858267716535433,
                    "duration": 0.6185145000000034
                },
                {
                    "name": "C#4",
                    "midi": 61,
                    "time": 104.73512200000013,
                    "velocity": 0.3858267716535433,
                    "duration": 0.6185145000000034
                },
                {
                    "name": "F#4",
                    "midi": 66,
                    "time": 104.73512200000013,
                    "velocity": 0.3858267716535433,
                    "duration": 0.6185145000000034
                },
                {
                    "name": "G#3",
                    "midi": 56,
                    "time": 105.35363650000014,
                    "velocity": 0.3543307086614173,
                    "duration": 0.2061714999999964
                },
                {
                    "name": "E4",
                    "midi": 64,
                    "time": 105.35363650000014,
                    "velocity": 0.3543307086614173,
                    "duration": 0.2061714999999964
                },
                {
                    "name": "F#3",
                    "midi": 54,
                    "time": 105.55980800000013,
                    "velocity": 0.36220472440944884,
                    "duration": 0.6185145000000034
                },
                {
                    "name": "E4",
                    "midi": 64,
                    "time": 105.55980800000013,
                    "velocity": 0.36220472440944884,
                    "duration": 0.412343000000007
                },
                {
                    "name": "D#4",
                    "midi": 63,
                    "time": 105.97215100000014,
                    "velocity": 0.3543307086614173,
                    "duration": 0.2061714999999964
                },
                {
                    "name": "G#3",
                    "midi": 56,
                    "time": 106.17832250000014,
                    "velocity": 0.3543307086614173,
                    "duration": 0.2061714999999964
                },
                {
                    "name": "B3",
                    "midi": 59,
                    "time": 106.17832250000014,
                    "velocity": 0.3543307086614173,
                    "duration": 0.2061714999999964
                },
                {
                    "name": "E4",
                    "midi": 64,
                    "time": 106.17832250000014,
                    "velocity": 0.3543307086614173,
                    "duration": 0.2061714999999964
                },
                {
                    "name": "B3",
                    "midi": 59,
                    "time": 106.38449400000013,
                    "velocity": 0.3858267716535433,
                    "duration": 0.412343000000007
                },
                {
                    "name": "D#4",
                    "midi": 63,
                    "time": 106.38449400000013,
                    "velocity": 0.3858267716535433,
                    "duration": 0.412343000000007
                },
                {
                    "name": "F#4",
                    "midi": 66,
                    "time": 106.38449400000013,
                    "velocity": 0.3858267716535433,
                    "duration": 0.412343000000007
                },
                {
                    "name": "B3",
                    "midi": 59,
                    "time": 106.79683700000014,
                    "velocity": 0.33858267716535434,
                    "duration": 0.2061714999999964
                },
                {
                    "name": "E4",
                    "midi": 64,
                    "time": 106.79683700000014,
                    "velocity": 0.33858267716535434,
                    "duration": 0.2061714999999964
                },
                {
                    "name": "G#4",
                    "midi": 68,
                    "time": 106.79683700000014,
                    "velocity": 0.33858267716535434,
                    "duration": 0.2061714999999964
                },
                {
                    "name": "B3",
                    "midi": 59,
                    "time": 107.00300850000013,
                    "velocity": 0.33858267716535434,
                    "duration": 0.2061714999999964
                },
                {
                    "name": "D#4",
                    "midi": 63,
                    "time": 107.00300850000013,
                    "velocity": 0.33858267716535434,
                    "duration": 0.2061714999999964
                },
                {
                    "name": "B4",
                    "midi": 71,
                    "time": 107.00300850000013,
                    "velocity": 0.33858267716535434,
                    "duration": 0.2061714999999964
                },
                {
                    "name": "B3",
                    "midi": 59,
                    "time": 107.20918000000013,
                    "velocity": 0.3700787401574803,
                    "duration": 0.6185145000000034
                },
                {
                    "name": "E4",
                    "midi": 64,
                    "time": 107.20918000000013,
                    "velocity": 0.3700787401574803,
                    "duration": 0.6185145000000034
                },
                {
                    "name": "A4",
                    "midi": 69,
                    "time": 107.20918000000013,
                    "velocity": 0.3700787401574803,
                    "duration": 0.412343000000007
                },
                {
                    "name": "G#4",
                    "midi": 68,
                    "time": 107.62152300000014,
                    "velocity": 0.30708661417322836,
                    "duration": 0.2061714999999964
                },
                {
                    "name": "A3",
                    "midi": 57,
                    "time": 107.82769450000013,
                    "velocity": 0.29133858267716534,
                    "duration": 0.2061714999999964
                },
                {
                    "name": "B3",
                    "midi": 59,
                    "time": 107.82769450000013,
                    "velocity": 0.29133858267716534,
                    "duration": 0.2061714999999964
                },
                {
                    "name": "F#4",
                    "midi": 66,
                    "time": 107.82769450000013,
                    "velocity": 0.29133858267716534,
                    "duration": 0.2061714999999964
                },
                {
                    "name": "G#3",
                    "midi": 56,
                    "time": 108.03386600000013,
                    "velocity": 0.33858267716535434,
                    "duration": 0.412343000000007
                },
                {
                    "name": "B3",
                    "midi": 59,
                    "time": 108.03386600000013,
                    "velocity": 0.33858267716535434,
                    "duration": 0.412343000000007
                },
                {
                    "name": "E4",
                    "midi": 64,
                    "time": 108.03386600000013,
                    "velocity": 0.33858267716535434,
                    "duration": 0.412343000000007
                },
                {
                    "name": "G#3",
                    "midi": 56,
                    "time": 108.44620900000014,
                    "velocity": 0.28346456692913385,
                    "duration": 0.412343000000007
                },
                {
                    "name": "B3",
                    "midi": 59,
                    "time": 108.44620900000014,
                    "velocity": 0.28346456692913385,
                    "duration": 0.412343000000007
                },
                {
                    "name": "E4",
                    "midi": 64,
                    "time": 108.44620900000014,
                    "velocity": 0.28346456692913385,
                    "duration": 0.412343000000007
                },
                {
                    "name": "C4",
                    "midi": 60,
                    "time": 108.85855200000015,
                    "velocity": 0.23622047244094488,
                    "duration": 0.1030857500000053
                },
                {
                    "name": "E4",
                    "midi": 64,
                    "time": 108.85855200000015,
                    "velocity": 0.28346456692913385,
                    "duration": 0.1030857500000053
                },
                {
                    "name": "G3",
                    "midi": 55,
                    "time": 108.96163775000015,
                    "velocity": 0.23622047244094488,
                    "duration": 0.1030857500000053
                },
                {
                    "name": "C4",
                    "midi": 60,
                    "time": 109.06472350000016,
                    "velocity": 0.2440944881889764,
                    "duration": 0.1030857500000053
                },
                {
                    "name": "E4",
                    "midi": 64,
                    "time": 109.06472350000016,
                    "velocity": 0.28346456692913385,
                    "duration": 0.1030857500000053
                },
                {
                    "name": "G3",
                    "midi": 55,
                    "time": 109.16780925000016,
                    "velocity": 0.25196850393700787,
                    "duration": 0.1030857500000053
                },
                {
                    "name": "C4",
                    "midi": 60,
                    "time": 109.27089500000017,
                    "velocity": 0.25196850393700787,
                    "duration": 0.1030857500000053
                },
                {
                    "name": "E4",
                    "midi": 64,
                    "time": 109.27089500000017,
                    "velocity": 0.2992125984251969,
                    "duration": 0.1030857500000053
                },
                {
                    "name": "G3",
                    "midi": 55,
                    "time": 109.37398075000017,
                    "velocity": 0.25984251968503935,
                    "duration": 0.1030857500000053
                },
                {
                    "name": "C4",
                    "midi": 60,
                    "time": 109.47706650000018,
                    "velocity": 0.2677165354330709,
                    "duration": 0.1030857500000053
                },
                {
                    "name": "E4",
                    "midi": 64,
                    "time": 109.47706650000018,
                    "velocity": 0.31496062992125984,
                    "duration": 0.1030857500000053
                },
                {
                    "name": "G3",
                    "midi": 55,
                    "time": 109.58015225000018,
                    "velocity": 0.2677165354330709,
                    "duration": 0.1030857500000053
                },
                {
                    "name": "C4",
                    "midi": 60,
                    "time": 109.68323800000019,
                    "velocity": 0.2755905511811024,
                    "duration": 0.1030857500000053
                },
                {
                    "name": "E4",
                    "midi": 64,
                    "time": 109.68323800000019,
                    "velocity": 0.3228346456692913,
                    "duration": 0.1030857500000053
                },
                {
                    "name": "G3",
                    "midi": 55,
                    "time": 109.7863237500002,
                    "velocity": 0.2677165354330709,
                    "duration": 0.1030857500000053
                },
                {
                    "name": "C4",
                    "midi": 60,
                    "time": 109.8894095000002,
                    "velocity": 0.28346456692913385,
                    "duration": 0.1030857500000053
                },
                {
                    "name": "E4",
                    "midi": 64,
                    "time": 109.8894095000002,
                    "velocity": 0.3464566929133858,
                    "duration": 0.1030857500000053
                },
                {
                    "name": "G3",
                    "midi": 55,
                    "time": 109.9924952500002,
                    "velocity": 0.29133858267716534,
                    "duration": 0.1030857500000053
                },
                {
                    "name": "C4",
                    "midi": 60,
                    "time": 110.09558100000021,
                    "velocity": 0.2992125984251969,
                    "duration": 0.1030857500000053
                },
                {
                    "name": "E4",
                    "midi": 64,
                    "time": 110.09558100000021,
                    "velocity": 0.36220472440944884,
                    "duration": 0.1030857500000053
                },
                {
                    "name": "G3",
                    "midi": 55,
                    "time": 110.19866675000021,
                    "velocity": 0.29133858267716534,
                    "duration": 0.1030857500000053
                },
                {
                    "name": "C4",
                    "midi": 60,
                    "time": 110.30175250000022,
                    "velocity": 0.30708661417322836,
                    "duration": 0.1030857500000053
                },
                {
                    "name": "E4",
                    "midi": 64,
                    "time": 110.30175250000022,
                    "velocity": 0.36220472440944884,
                    "duration": 0.1030857500000053
                },
                {
                    "name": "G3",
                    "midi": 55,
                    "time": 110.40483825000022,
                    "velocity": 0.31496062992125984,
                    "duration": 0.1030857500000053
                },
                {
                    "name": "E4",
                    "midi": 64,
                    "time": 110.50792400000023,
                    "velocity": 0.3228346456692913,
                    "duration": 0.1030857500000053
                },
                {
                    "name": "G4",
                    "midi": 67,
                    "time": 110.50792400000023,
                    "velocity": 0.3858267716535433,
                    "duration": 0.1030857500000053
                },
                {
                    "name": "C4",
                    "midi": 60,
                    "time": 110.61100975000024,
                    "velocity": 0.3228346456692913,
                    "duration": 0.1030857500000053
                },
                {
                    "name": "E4",
                    "midi": 64,
                    "time": 110.71409550000024,
                    "velocity": 0.33070866141732286,
                    "duration": 0.1030857500000053
                },
                {
                    "name": "G4",
                    "midi": 67,
                    "time": 110.71409550000024,
                    "velocity": 0.3937007874015748,
                    "duration": 0.1030857500000053
                },
                {
                    "name": "C4",
                    "midi": 60,
                    "time": 110.81718125000025,
                    "velocity": 0.33858267716535434,
                    "duration": 0.1030857500000053
                },
                {
                    "name": "E4",
                    "midi": 64,
                    "time": 110.92026700000025,
                    "velocity": 0.3464566929133858,
                    "duration": 0.1030857500000053
                },
                {
                    "name": "G4",
                    "midi": 67,
                    "time": 110.92026700000025,
                    "velocity": 0.4094488188976378,
                    "duration": 0.1030857500000053
                },
                {
                    "name": "C4",
                    "midi": 60,
                    "time": 111.02335275000026,
                    "velocity": 0.3464566929133858,
                    "duration": 0.1030857500000053
                },
                {
                    "name": "E4",
                    "midi": 64,
                    "time": 111.12643850000026,
                    "velocity": 0.36220472440944884,
                    "duration": 0.1030857500000053
                },
                {
                    "name": "G4",
                    "midi": 67,
                    "time": 111.12643850000026,
                    "velocity": 0.4251968503937008,
                    "duration": 0.1030857500000053
                },
                {
                    "name": "C4",
                    "midi": 60,
                    "time": 111.22952425000027,
                    "velocity": 0.3464566929133858,
                    "duration": 0.1030857500000053
                },
                {
                    "name": "G4",
                    "midi": 67,
                    "time": 111.33261000000027,
                    "velocity": 0.3779527559055118,
                    "duration": 0.1030857500000053
                },
                {
                    "name": "C5",
                    "midi": 72,
                    "time": 111.33261000000027,
                    "velocity": 0.44881889763779526,
                    "duration": 0.1030857500000053
                },
                {
                    "name": "E4",
                    "midi": 64,
                    "time": 111.43569575000028,
                    "velocity": 0.3779527559055118,
                    "duration": 0.1030857500000053
                },
                {
                    "name": "G4",
                    "midi": 67,
                    "time": 111.53878150000028,
                    "velocity": 0.3858267716535433,
                    "duration": 0.1030857500000053
                },
                {
                    "name": "C5",
                    "midi": 72,
                    "time": 111.53878150000028,
                    "velocity": 0.44881889763779526,
                    "duration": 0.1030857500000053
                },
                {
                    "name": "E4",
                    "midi": 64,
                    "time": 111.64186725000029,
                    "velocity": 0.3779527559055118,
                    "duration": 0.1030857500000053
                },
                {
                    "name": "G4",
                    "midi": 67,
                    "time": 111.7449530000003,
                    "velocity": 0.3937007874015748,
                    "duration": 0.1030857500000053
                },
                {
                    "name": "C5",
                    "midi": 72,
                    "time": 111.7449530000003,
                    "velocity": 0.4645669291338583,
                    "duration": 0.1030857500000053
                },
                {
                    "name": "E4",
                    "midi": 64,
                    "time": 111.8480387500003,
                    "velocity": 0.3858267716535433,
                    "duration": 0.1030857500000053
                },
                {
                    "name": "G4",
                    "midi": 67,
                    "time": 111.9511245000003,
                    "velocity": 0.4094488188976378,
                    "duration": 0.1030857500000053
                },
                {
                    "name": "C5",
                    "midi": 72,
                    "time": 111.9511245000003,
                    "velocity": 0.48031496062992124,
                    "duration": 0.1030857500000053
                },
                {
                    "name": "E4",
                    "midi": 64,
                    "time": 112.05421025000031,
                    "velocity": 0.4015748031496063,
                    "duration": 0.1030857500000053
                },
                {
                    "name": "C5",
                    "midi": 72,
                    "time": 112.15729600000031,
                    "velocity": 0.41732283464566927,
                    "duration": 0.1030857500000053
                },
                {
                    "name": "E5",
                    "midi": 76,
                    "time": 112.15729600000031,
                    "velocity": 0.49606299212598426,
                    "duration": 0.1030857500000053
                },
                {
                    "name": "G4",
                    "midi": 67,
                    "time": 112.26038175000032,
                    "velocity": 0.4094488188976378,
                    "duration": 0.1030857500000053
                },
                {
                    "name": "C5",
                    "midi": 72,
                    "time": 112.36346750000033,
                    "velocity": 0.4330708661417323,
                    "duration": 0.1030857500000053
                },
                {
                    "name": "E5",
                    "midi": 76,
                    "time": 112.36346750000033,
                    "velocity": 0.5118110236220472,
                    "duration": 0.1030857500000053
                },
                {
                    "name": "G4",
                    "midi": 67,
                    "time": 112.46655325000033,
                    "velocity": 0.41732283464566927,
                    "duration": 0.1030857500000053
                },
                {
                    "name": "E5",
                    "midi": 76,
                    "time": 112.56963900000034,
                    "velocity": 0.44881889763779526,
                    "duration": 0.1030857500000053
                },
                {
                    "name": "G5",
                    "midi": 79,
                    "time": 112.56963900000034,
                    "velocity": 0.5275590551181102,
                    "duration": 0.1030857500000053
                },
                {
                    "name": "C5",
                    "midi": 72,
                    "time": 112.67272475000034,
                    "velocity": 0.4409448818897638,
                    "duration": 0.1030857500000053
                },
                {
                    "name": "E5",
                    "midi": 76,
                    "time": 112.77581050000035,
                    "velocity": 0.4566929133858268,
                    "duration": 0.1030857500000053
                },
                {
                    "name": "G5",
                    "midi": 79,
                    "time": 112.77581050000035,
                    "velocity": 0.5354330708661418,
                    "duration": 0.1030857500000053
                },
                {
                    "name": "C5",
                    "midi": 72,
                    "time": 112.87889625000035,
                    "velocity": 0.44881889763779526,
                    "duration": 0.1030857500000053
                },
                {
                    "name": "C6",
                    "midi": 84,
                    "time": 112.98198200000036,
                    "velocity": 0.5590551181102362,
                    "duration": 0.1030857500000053
                },
                {
                    "name": "G5",
                    "midi": 79,
                    "time": 112.98198200000036,
                    "velocity": 0.47244094488188976,
                    "duration": 0.1030857500000053
                },
                {
                    "name": "E5",
                    "midi": 76,
                    "time": 113.08506775000036,
                    "velocity": 0.4645669291338583,
                    "duration": 0.1030857500000053
                },
                {
                    "name": "G5",
                    "midi": 79,
                    "time": 113.18815350000037,
                    "velocity": 0.48031496062992124,
                    "duration": 0.1030857500000053
                },
                {
                    "name": "C6",
                    "midi": 84,
                    "time": 113.18815350000037,
                    "velocity": 0.5669291338582677,
                    "duration": 0.1030857500000053
                },
                {
                    "name": "E5",
                    "midi": 76,
                    "time": 113.29123925000037,
                    "velocity": 0.4881889763779528,
                    "duration": 0.1030857500000053
                },
                {
                    "name": "E6",
                    "midi": 88,
                    "time": 113.39432500000038,
                    "velocity": 0.5905511811023622,
                    "duration": 0.1030857500000053
                },
                {
                    "name": "C6",
                    "midi": 84,
                    "time": 113.39432500000038,
                    "velocity": 0.49606299212598426,
                    "duration": 0.1030857500000053
                },
                {
                    "name": "G5",
                    "midi": 79,
                    "time": 113.49741075000038,
                    "velocity": 0.4881889763779528,
                    "duration": 0.1030857500000053
                },
                {
                    "name": "E6",
                    "midi": 88,
                    "time": 113.60049650000039,
                    "velocity": 0.6062992125984252,
                    "duration": 0.1030857500000053
                },
                {
                    "name": "C6",
                    "midi": 84,
                    "time": 113.60049650000039,
                    "velocity": 0.5118110236220472,
                    "duration": 0.1030857500000053
                },
                {
                    "name": "G5",
                    "midi": 79,
                    "time": 113.7035822500004,
                    "velocity": 0.5039370078740157,
                    "duration": 0.1030857500000053
                },
                {
                    "name": "E5",
                    "midi": 76,
                    "time": 113.8066680000004,
                    "velocity": 0.5826771653543307,
                    "duration": 0.4080477604166646
                },
                {
                    "name": "G5",
                    "midi": 79,
                    "time": 113.8066680000004,
                    "velocity": 0.5826771653543307,
                    "duration": 0.4080477604166646
                },
                {
                    "name": "C6",
                    "midi": 84,
                    "time": 113.8066680000004,
                    "velocity": 0.5826771653543307,
                    "duration": 0.4080477604166646
                },
                {
                    "name": "E6",
                    "midi": 88,
                    "time": 113.8066680000004,
                    "velocity": 0.6929133858267716,
                    "duration": 0.4080477604166646
                },
                {
                    "name": "E5",
                    "midi": 76,
                    "time": 114.21901100000039,
                    "velocity": 0.5511811023622047,
                    "duration": 0.19586292500000013
                },
                {
                    "name": "G5",
                    "midi": 79,
                    "time": 114.21901100000039,
                    "velocity": 0.5511811023622047,
                    "duration": 0.19586292500000013
                },
                {
                    "name": "C6",
                    "midi": 84,
                    "time": 114.21901100000039,
                    "velocity": 0.5511811023622047,
                    "duration": 0.19586292500000013
                },
                {
                    "name": "E6",
                    "midi": 88,
                    "time": 114.21901100000039,
                    "velocity": 0.6535433070866141,
                    "duration": 0.19586292500000013
                },
                {
                    "name": "E5",
                    "midi": 76,
                    "time": 114.42518250000039,
                    "velocity": 0.5511811023622047,
                    "duration": 0.19586292500000013
                },
                {
                    "name": "G5",
                    "midi": 79,
                    "time": 114.42518250000039,
                    "velocity": 0.5511811023622047,
                    "duration": 0.19586292500000013
                },
                {
                    "name": "C6",
                    "midi": 84,
                    "time": 114.42518250000039,
                    "velocity": 0.5511811023622047,
                    "duration": 0.19586292500000013
                },
                {
                    "name": "E6",
                    "midi": 88,
                    "time": 114.42518250000039,
                    "velocity": 0.6535433070866141,
                    "duration": 0.19586292500000013
                },
                {
                    "name": "E5",
                    "midi": 76,
                    "time": 114.63135400000039,
                    "velocity": 0.5826771653543307,
                    "duration": 0.4080477604166646
                },
                {
                    "name": "G5",
                    "midi": 79,
                    "time": 114.63135400000039,
                    "velocity": 0.5826771653543307,
                    "duration": 0.4080477604166646
                },
                {
                    "name": "C6",
                    "midi": 84,
                    "time": 114.63135400000039,
                    "velocity": 0.5826771653543307,
                    "duration": 0.4080477604166646
                },
                {
                    "name": "E6",
                    "midi": 88,
                    "time": 114.63135400000039,
                    "velocity": 0.6929133858267716,
                    "duration": 0.4080477604166646
                },
                {
                    "name": "E5",
                    "midi": 76,
                    "time": 115.04369700000038,
                    "velocity": 0.5433070866141733,
                    "duration": 0.19586292500000013
                },
                {
                    "name": "G5",
                    "midi": 79,
                    "time": 115.04369700000038,
                    "velocity": 0.5433070866141733,
                    "duration": 0.19586292500000013
                },
                {
                    "name": "C6",
                    "midi": 84,
                    "time": 115.04369700000038,
                    "velocity": 0.5433070866141733,
                    "duration": 0.19586292500000013
                },
                {
                    "name": "E6",
                    "midi": 88,
                    "time": 115.04369700000038,
                    "velocity": 0.6456692913385826,
                    "duration": 0.19586292500000013
                },
                {
                    "name": "E5",
                    "midi": 76,
                    "time": 115.24986850000037,
                    "velocity": 0.5433070866141733,
                    "duration": 0.19586292500000013
                },
                {
                    "name": "G5",
                    "midi": 79,
                    "time": 115.24986850000037,
                    "velocity": 0.5433070866141733,
                    "duration": 0.19586292500000013
                },
                {
                    "name": "C6",
                    "midi": 84,
                    "time": 115.24986850000037,
                    "velocity": 0.5433070866141733,
                    "duration": 0.19586292500000013
                },
                {
                    "name": "E6",
                    "midi": 88,
                    "time": 115.24986850000037,
                    "velocity": 0.6456692913385826,
                    "duration": 0.19586292500000013
                },
                {
                    "name": "E5",
                    "midi": 76,
                    "time": 115.45604000000037,
                    "velocity": 0.5826771653543307,
                    "duration": 0.2061714999999964
                },
                {
                    "name": "G5",
                    "midi": 79,
                    "time": 115.45604000000037,
                    "velocity": 0.5826771653543307,
                    "duration": 0.2061714999999964
                },
                {
                    "name": "C6",
                    "midi": 84,
                    "time": 115.45604000000037,
                    "velocity": 0.5826771653543307,
                    "duration": 0.2061714999999964
                },
                {
                    "name": "E6",
                    "midi": 88,
                    "time": 115.45604000000037,
                    "velocity": 0.6929133858267716,
                    "duration": 0.2061714999999964
                },
                {
                    "name": "G4",
                    "midi": 67,
                    "time": 117.10541200000037,
                    "velocity": 0.5984251968503937,
                    "duration": 0.2061714999999964
                },
                {
                    "name": "B4",
                    "midi": 71,
                    "time": 117.10541200000037,
                    "velocity": 0.5984251968503937,
                    "duration": 0.2061714999999964
                },
                {
                    "name": "F5",
                    "midi": 77,
                    "time": 117.10541200000037,
                    "velocity": 0.7165354330708661,
                    "duration": 0.2061714999999964
                },
                {
                    "name": "G5",
                    "midi": 79,
                    "time": 117.10541200000037,
                    "velocity": 0.7165354330708661,
                    "duration": 0.2061714999999964
                },
                {
                    "name": "B3",
                    "midi": 59,
                    "time": 117.51775500000036,
                    "velocity": 0.5590551181102362,
                    "duration": 0.2061714999999964
                },
                {
                    "name": "G3",
                    "midi": 55,
                    "time": 117.51775500000036,
                    "velocity": 0.5590551181102362,
                    "duration": 0.2061714999999964
                },
                {
                    "name": "F4",
                    "midi": 65,
                    "time": 117.51775500000036,
                    "velocity": 0.6692913385826772,
                    "duration": 0.2061714999999964
                },
                {
                    "name": "G4",
                    "midi": 67,
                    "time": 117.51775500000036,
                    "velocity": 0.6692913385826772,
                    "duration": 0.2061714999999964
                },
                {
                    "name": "F5",
                    "midi": 77,
                    "time": 118.75478400000036,
                    "velocity": 0.5826771653543307,
                    "duration": 0.4080477604166646
                },
                {
                    "name": "G5",
                    "midi": 79,
                    "time": 118.75478400000036,
                    "velocity": 0.5826771653543307,
                    "duration": 0.4080477604166646
                },
                {
                    "name": "B5",
                    "midi": 83,
                    "time": 118.75478400000036,
                    "velocity": 0.5826771653543307,
                    "duration": 0.4080477604166646
                },
                {
                    "name": "D6",
                    "midi": 86,
                    "time": 118.75478400000036,
                    "velocity": 0.6929133858267716,
                    "duration": 0.4080477604166646
                },
                {
                    "name": "F5",
                    "midi": 77,
                    "time": 119.16712700000035,
                    "velocity": 0.5511811023622047,
                    "duration": 0.19586292500000013
                },
                {
                    "name": "G5",
                    "midi": 79,
                    "time": 119.16712700000035,
                    "velocity": 0.5511811023622047,
                    "duration": 0.19586292500000013
                },
                {
                    "name": "B5",
                    "midi": 83,
                    "time": 119.16712700000035,
                    "velocity": 0.5511811023622047,
                    "duration": 0.19586292500000013
                },
                {
                    "name": "D6",
                    "midi": 86,
                    "time": 119.16712700000035,
                    "velocity": 0.6535433070866141,
                    "duration": 0.19586292500000013
                },
                {
                    "name": "F5",
                    "midi": 77,
                    "time": 119.37329850000035,
                    "velocity": 0.5511811023622047,
                    "duration": 0.19586292500000013
                },
                {
                    "name": "G5",
                    "midi": 79,
                    "time": 119.37329850000035,
                    "velocity": 0.5511811023622047,
                    "duration": 0.19586292500000013
                },
                {
                    "name": "B5",
                    "midi": 83,
                    "time": 119.37329850000035,
                    "velocity": 0.5511811023622047,
                    "duration": 0.19586292500000013
                },
                {
                    "name": "D6",
                    "midi": 86,
                    "time": 119.37329850000035,
                    "velocity": 0.6535433070866141,
                    "duration": 0.19586292500000013
                },
                {
                    "name": "F5",
                    "midi": 77,
                    "time": 119.57947000000034,
                    "velocity": 0.5826771653543307,
                    "duration": 0.4080477604166646
                },
                {
                    "name": "G5",
                    "midi": 79,
                    "time": 119.57947000000034,
                    "velocity": 0.5826771653543307,
                    "duration": 0.4080477604166646
                },
                {
                    "name": "B5",
                    "midi": 83,
                    "time": 119.57947000000034,
                    "velocity": 0.5826771653543307,
                    "duration": 0.4080477604166646
                },
                {
                    "name": "D6",
                    "midi": 86,
                    "time": 119.57947000000034,
                    "velocity": 0.6929133858267716,
                    "duration": 0.4080477604166646
                },
                {
                    "name": "F5",
                    "midi": 77,
                    "time": 119.99181300000033,
                    "velocity": 0.5433070866141733,
                    "duration": 0.19586292500000013
                },
                {
                    "name": "G5",
                    "midi": 79,
                    "time": 119.99181300000033,
                    "velocity": 0.5433070866141733,
                    "duration": 0.19586292500000013
                },
                {
                    "name": "B5",
                    "midi": 83,
                    "time": 119.99181300000033,
                    "velocity": 0.5433070866141733,
                    "duration": 0.19586292500000013
                },
                {
                    "name": "D6",
                    "midi": 86,
                    "time": 119.99181300000033,
                    "velocity": 0.6456692913385826,
                    "duration": 0.19586292500000013
                },
                {
                    "name": "F5",
                    "midi": 77,
                    "time": 120.19798450000033,
                    "velocity": 0.5433070866141733,
                    "duration": 0.19586292500000013
                },
                {
                    "name": "G5",
                    "midi": 79,
                    "time": 120.19798450000033,
                    "velocity": 0.5433070866141733,
                    "duration": 0.19586292500000013
                },
                {
                    "name": "B5",
                    "midi": 83,
                    "time": 120.19798450000033,
                    "velocity": 0.5433070866141733,
                    "duration": 0.19586292500000013
                },
                {
                    "name": "D6",
                    "midi": 86,
                    "time": 120.19798450000033,
                    "velocity": 0.6456692913385826,
                    "duration": 0.19586292500000013
                },
                {
                    "name": "F5",
                    "midi": 77,
                    "time": 120.40415600000033,
                    "velocity": 0.5826771653543307,
                    "duration": 0.2061714999999964
                },
                {
                    "name": "G5",
                    "midi": 79,
                    "time": 120.40415600000033,
                    "velocity": 0.5826771653543307,
                    "duration": 0.2061714999999964
                },
                {
                    "name": "B5",
                    "midi": 83,
                    "time": 120.40415600000033,
                    "velocity": 0.5826771653543307,
                    "duration": 0.2061714999999964
                },
                {
                    "name": "D6",
                    "midi": 86,
                    "time": 120.40415600000033,
                    "velocity": 0.6929133858267716,
                    "duration": 0.2061714999999964
                },
                {
                    "name": "G4",
                    "midi": 67,
                    "time": 122.05352800000033,
                    "velocity": 0.6220472440944882,
                    "duration": 0.2061714999999964
                },
                {
                    "name": "C5",
                    "midi": 72,
                    "time": 122.05352800000033,
                    "velocity": 0.6220472440944882,
                    "duration": 0.2061714999999964
                },
                {
                    "name": "G5",
                    "midi": 79,
                    "time": 122.05352800000033,
                    "velocity": 0.7480314960629921,
                    "duration": 0.2061714999999964
                },
                {
                    "name": "C4",
                    "midi": 60,
                    "time": 122.46587100000032,
                    "velocity": 0.5826771653543307,
                    "duration": 0.2061714999999964
                },
                {
                    "name": "G3",
                    "midi": 55,
                    "time": 122.46587100000032,
                    "velocity": 0.5826771653543307,
                    "duration": 0.2061714999999964
                },
                {
                    "name": "G4",
                    "midi": 67,
                    "time": 122.46587100000032,
                    "velocity": 0.7007874015748031,
                    "duration": 0.2061714999999964
                },
                {
                    "name": "G3",
                    "midi": 55,
                    "time": 123.08438550000032,
                    "velocity": 0.5039370078740157,
                    "duration": 0.1030857500000053
                },
                {
                    "name": "C4",
                    "midi": 60,
                    "time": 123.18747125000033,
                    "velocity": 0.5196850393700787,
                    "duration": 0.1030857500000053
                },
                {
                    "name": "E4",
                    "midi": 64,
                    "time": 123.29055700000033,
                    "velocity": 0.5354330708661418,
                    "duration": 0.1030857500000053
                },
                {
                    "name": "G4",
                    "midi": 67,
                    "time": 123.39364275000034,
                    "velocity": 0.5511811023622047,
                    "duration": 0.1030857500000053
                },
                {
                    "name": "C5",
                    "midi": 72,
                    "time": 123.49672850000034,
                    "velocity": 0.5669291338582677,
                    "duration": 0.1030857500000053
                },
                {
                    "name": "E5",
                    "midi": 76,
                    "time": 123.59981425000035,
                    "velocity": 0.5826771653543307,
                    "duration": 0.1030857500000053
                },
                {
                    "name": "G4",
                    "midi": 67,
                    "time": 123.70290000000035,
                    "velocity": 0.5196850393700787,
                    "duration": 0.4080477604166646
                },
                {
                    "name": "E5",
                    "midi": 76,
                    "time": 123.70290000000035,
                    "velocity": 0.5196850393700787,
                    "duration": 0.4080477604166646
                },
                {
                    "name": "G5",
                    "midi": 79,
                    "time": 123.70290000000035,
                    "velocity": 0.6141732283464567,
                    "duration": 0.4080477604166646
                },
                {
                    "name": "G4",
                    "midi": 67,
                    "time": 124.11524300000035,
                    "velocity": 0.4566929133858268,
                    "duration": 0.19586292500000013
                },
                {
                    "name": "E5",
                    "midi": 76,
                    "time": 124.11524300000035,
                    "velocity": 0.4566929133858268,
                    "duration": 0.19586292500000013
                },
                {
                    "name": "G5",
                    "midi": 79,
                    "time": 124.11524300000035,
                    "velocity": 0.5511811023622047,
                    "duration": 0.19586292500000013
                },
                {
                    "name": "G4",
                    "midi": 67,
                    "time": 124.32141450000034,
                    "velocity": 0.4566929133858268,
                    "duration": 0.19586292500000013
                },
                {
                    "name": "E5",
                    "midi": 76,
                    "time": 124.32141450000034,
                    "velocity": 0.4566929133858268,
                    "duration": 0.19586292500000013
                },
                {
                    "name": "G5",
                    "midi": 79,
                    "time": 124.32141450000034,
                    "velocity": 0.5511811023622047,
                    "duration": 0.19586292500000013
                },
                {
                    "name": "G4",
                    "midi": 67,
                    "time": 124.52758600000034,
                    "velocity": 0.5118110236220472,
                    "duration": 0.6185145000000034
                },
                {
                    "name": "D5",
                    "midi": 74,
                    "time": 124.52758600000034,
                    "velocity": 0.5118110236220472,
                    "duration": 0.6185145000000034
                },
                {
                    "name": "G5",
                    "midi": 79,
                    "time": 124.52758600000034,
                    "velocity": 0.6141732283464567,
                    "duration": 0.6185145000000034
                },
                {
                    "name": "G4",
                    "midi": 67,
                    "time": 125.14610050000034,
                    "velocity": 0.5275590551181102,
                    "duration": 0.2061714999999964
                },
                {
                    "name": "D5",
                    "midi": 74,
                    "time": 125.14610050000034,
                    "velocity": 0.5275590551181102,
                    "duration": 0.2061714999999964
                },
                {
                    "name": "G5",
                    "midi": 79,
                    "time": 125.14610050000034,
                    "velocity": 0.6299212598425197,
                    "duration": 0.2061714999999964
                },
                {
                    "name": "C5",
                    "midi": 72,
                    "time": 125.35227200000034,
                    "velocity": 0.5826771653543307,
                    "duration": 0.412343000000007
                },
                {
                    "name": "G5",
                    "midi": 79,
                    "time": 125.35227200000034,
                    "velocity": 0.5826771653543307,
                    "duration": 0.412343000000007
                },
                {
                    "name": "C6",
                    "midi": 84,
                    "time": 125.35227200000034,
                    "velocity": 0.6929133858267716,
                    "duration": 0.412343000000007
                },
                {
                    "name": "C5",
                    "midi": 72,
                    "time": 125.76461500000035,
                    "velocity": 0.49606299212598426,
                    "duration": 0.2061714999999964
                },
                {
                    "name": "F#5",
                    "midi": 78,
                    "time": 125.76461500000035,
                    "velocity": 0.49606299212598426,
                    "duration": 0.2061714999999964
                },
                {
                    "name": "C6",
                    "midi": 84,
                    "time": 125.76461500000035,
                    "velocity": 0.5905511811023622,
                    "duration": 0.2061714999999964
                },
                {
                    "name": "C5",
                    "midi": 72,
                    "time": 125.97078650000034,
                    "velocity": 0.48031496062992124,
                    "duration": 0.2061714999999964
                },
                {
                    "name": "F#5",
                    "midi": 78,
                    "time": 125.97078650000034,
                    "velocity": 0.48031496062992124,
                    "duration": 0.2061714999999964
                },
                {
                    "name": "C6",
                    "midi": 84,
                    "time": 125.97078650000034,
                    "velocity": 0.5748031496062992,
                    "duration": 0.2061714999999964
                },
                {
                    "name": "B4",
                    "midi": 71,
                    "time": 126.17695800000034,
                    "velocity": 0.5039370078740157,
                    "duration": 0.2061714999999964
                },
                {
                    "name": "G5",
                    "midi": 79,
                    "time": 126.17695800000034,
                    "velocity": 0.5039370078740157,
                    "duration": 0.2061714999999964
                },
                {
                    "name": "B5",
                    "midi": 83,
                    "time": 126.17695800000034,
                    "velocity": 0.5984251968503937,
                    "duration": 0.2061714999999964
                },
                {
                    "name": "G3",
                    "midi": 55,
                    "time": 126.38312950000034,
                    "velocity": 0.5039370078740157,
                    "duration": 0.1030857500000053
                },
                {
                    "name": "C4",
                    "midi": 60,
                    "time": 126.48621525000034,
                    "velocity": 0.5196850393700787,
                    "duration": 0.1030857500000053
                },
                {
                    "name": "E4",
                    "midi": 64,
                    "time": 126.58930100000035,
                    "velocity": 0.5354330708661418,
                    "duration": 0.1030857500000053
                },
                {
                    "name": "G4",
                    "midi": 67,
                    "time": 126.69238675000035,
                    "velocity": 0.5511811023622047,
                    "duration": 0.1030857500000053
                },
                {
                    "name": "C5",
                    "midi": 72,
                    "time": 126.79547250000036,
                    "velocity": 0.5669291338582677,
                    "duration": 0.1030857500000053
                },
                {
                    "name": "E5",
                    "midi": 76,
                    "time": 126.89855825000036,
                    "velocity": 0.5826771653543307,
                    "duration": 0.1030857500000053
                },
                {
                    "name": "G4",
                    "midi": 67,
                    "time": 127.00164400000037,
                    "velocity": 0.5196850393700787,
                    "duration": 0.4080477604166646
                },
                {
                    "name": "E5",
                    "midi": 76,
                    "time": 127.00164400000037,
                    "velocity": 0.5196850393700787,
                    "duration": 0.4080477604166646
                },
                {
                    "name": "G5",
                    "midi": 79,
                    "time": 127.00164400000037,
                    "velocity": 0.6141732283464567,
                    "duration": 0.4080477604166646
                },
                {
                    "name": "G4",
                    "midi": 67,
                    "time": 127.41398700000036,
                    "velocity": 0.4566929133858268,
                    "duration": 0.19586292500000013
                },
                {
                    "name": "E5",
                    "midi": 76,
                    "time": 127.41398700000036,
                    "velocity": 0.4566929133858268,
                    "duration": 0.19586292500000013
                },
                {
                    "name": "G5",
                    "midi": 79,
                    "time": 127.41398700000036,
                    "velocity": 0.5511811023622047,
                    "duration": 0.19586292500000013
                },
                {
                    "name": "G4",
                    "midi": 67,
                    "time": 127.62015850000036,
                    "velocity": 0.4566929133858268,
                    "duration": 0.19586292500000013
                },
                {
                    "name": "E5",
                    "midi": 76,
                    "time": 127.62015850000036,
                    "velocity": 0.4566929133858268,
                    "duration": 0.19586292500000013
                },
                {
                    "name": "G5",
                    "midi": 79,
                    "time": 127.62015850000036,
                    "velocity": 0.5511811023622047,
                    "duration": 0.19586292500000013
                },
                {
                    "name": "G4",
                    "midi": 67,
                    "time": 127.82633000000035,
                    "velocity": 0.5118110236220472,
                    "duration": 0.6185145000000034
                },
                {
                    "name": "D5",
                    "midi": 74,
                    "time": 127.82633000000035,
                    "velocity": 0.5118110236220472,
                    "duration": 0.6185145000000034
                },
                {
                    "name": "G5",
                    "midi": 79,
                    "time": 127.82633000000035,
                    "velocity": 0.6141732283464567,
                    "duration": 0.6185145000000034
                },
                {
                    "name": "G4",
                    "midi": 67,
                    "time": 128.44484450000036,
                    "velocity": 0.5275590551181102,
                    "duration": 0.2061715000000106
                },
                {
                    "name": "D5",
                    "midi": 74,
                    "time": 128.44484450000036,
                    "velocity": 0.5275590551181102,
                    "duration": 0.2061715000000106
                },
                {
                    "name": "G5",
                    "midi": 79,
                    "time": 128.44484450000036,
                    "velocity": 0.6299212598425197,
                    "duration": 0.2061715000000106
                },
                {
                    "name": "C5",
                    "midi": 72,
                    "time": 128.65101600000037,
                    "velocity": 0.5826771653543307,
                    "duration": 0.4123429999999928
                },
                {
                    "name": "G5",
                    "midi": 79,
                    "time": 128.65101600000037,
                    "velocity": 0.5826771653543307,
                    "duration": 0.4123429999999928
                },
                {
                    "name": "C6",
                    "midi": 84,
                    "time": 128.65101600000037,
                    "velocity": 0.6929133858267716,
                    "duration": 0.4123429999999928
                },
                {
                    "name": "C5",
                    "midi": 72,
                    "time": 129.06335900000036,
                    "velocity": 0.49606299212598426,
                    "duration": 0.4123429999999928
                },
                {
                    "name": "F#5",
                    "midi": 78,
                    "time": 129.06335900000036,
                    "velocity": 0.49606299212598426,
                    "duration": 0.4123429999999928
                },
                {
                    "name": "C6",
                    "midi": 84,
                    "time": 129.06335900000036,
                    "velocity": 0.5905511811023622,
                    "duration": 0.4123429999999928
                },
                {
                    "name": "B4",
                    "midi": 71,
                    "time": 129.47570200000035,
                    "velocity": 0.5039370078740157,
                    "duration": 0.2061715000000106
                },
                {
                    "name": "G5",
                    "midi": 79,
                    "time": 129.47570200000035,
                    "velocity": 0.5039370078740157,
                    "duration": 0.2061715000000106
                },
                {
                    "name": "B5",
                    "midi": 83,
                    "time": 129.47570200000035,
                    "velocity": 0.5984251968503937,
                    "duration": 0.2061715000000106
                },
                {
                    "name": "C4",
                    "midi": 60,
                    "time": 129.68187350000036,
                    "velocity": 0.5039370078740157,
                    "duration": 0.1030857499999911
                },
                {
                    "name": "F4",
                    "midi": 65,
                    "time": 129.78495925000036,
                    "velocity": 0.5196850393700787,
                    "duration": 0.1030857499999911
                },
                {
                    "name": "A4",
                    "midi": 69,
                    "time": 129.88804500000035,
                    "velocity": 0.5354330708661418,
                    "duration": 0.1030857499999911
                },
                {
                    "name": "C5",
                    "midi": 72,
                    "time": 129.99113075000034,
                    "velocity": 0.5511811023622047,
                    "duration": 0.1030857499999911
                },
                {
                    "name": "F5",
                    "midi": 77,
                    "time": 130.09421650000033,
                    "velocity": 0.5669291338582677,
                    "duration": 0.1030857499999911
                },
                {
                    "name": "A5",
                    "midi": 81,
                    "time": 130.19730225000032,
                    "velocity": 0.5826771653543307,
                    "duration": 0.1030857499999911
                },
                {
                    "name": "C5",
                    "midi": 72,
                    "time": 130.3003880000003,
                    "velocity": 0.5669291338582677,
                    "duration": 0.4080477604166788
                },
                {
                    "name": "A5",
                    "midi": 81,
                    "time": 130.3003880000003,
                    "velocity": 0.5669291338582677,
                    "duration": 0.4080477604166788
                },
                {
                    "name": "C6",
                    "midi": 84,
                    "time": 130.3003880000003,
                    "velocity": 0.6692913385826772,
                    "duration": 0.4080477604166788
                },
                {
                    "name": "C5",
                    "midi": 72,
                    "time": 130.71273100000033,
                    "velocity": 0.49606299212598426,
                    "duration": 0.19586292500000013
                },
                {
                    "name": "A5",
                    "midi": 81,
                    "time": 130.71273100000033,
                    "velocity": 0.49606299212598426,
                    "duration": 0.19586292500000013
                },
                {
                    "name": "C6",
                    "midi": 84,
                    "time": 130.71273100000033,
                    "velocity": 0.6062992125984252,
                    "duration": 0.19586292500000013
                },
                {
                    "name": "C5",
                    "midi": 72,
                    "time": 130.91890250000034,
                    "velocity": 0.49606299212598426,
                    "duration": 0.19586292500000013
                },
                {
                    "name": "A5",
                    "midi": 81,
                    "time": 130.91890250000034,
                    "velocity": 0.49606299212598426,
                    "duration": 0.19586292500000013
                },
                {
                    "name": "C6",
                    "midi": 84,
                    "time": 130.91890250000034,
                    "velocity": 0.6062992125984252,
                    "duration": 0.19586292500000013
                },
                {
                    "name": "C5",
                    "midi": 72,
                    "time": 131.12507400000035,
                    "velocity": 0.5590551181102362,
                    "duration": 0.6185145000000034
                },
                {
                    "name": "G5",
                    "midi": 79,
                    "time": 131.12507400000035,
                    "velocity": 0.5590551181102362,
                    "duration": 0.6185145000000034
                },
                {
                    "name": "C6",
                    "midi": 84,
                    "time": 131.12507400000035,
                    "velocity": 0.6692913385826772,
                    "duration": 0.6185145000000034
                },
                {
                    "name": "C5",
                    "midi": 72,
                    "time": 131.74358850000036,
                    "velocity": 0.5748031496062992,
                    "duration": 0.2061715000000106
                },
                {
                    "name": "G5",
                    "midi": 79,
                    "time": 131.74358850000036,
                    "velocity": 0.5748031496062992,
                    "duration": 0.2061715000000106
                },
                {
                    "name": "C6",
                    "midi": 84,
                    "time": 131.74358850000036,
                    "velocity": 0.6929133858267716,
                    "duration": 0.2061715000000106
                },
                {
                    "name": "F5",
                    "midi": 77,
                    "time": 131.94976000000037,
                    "velocity": 0.6377952755905512,
                    "duration": 0.4080477604166788
                },
                {
                    "name": "C6",
                    "midi": 84,
                    "time": 131.94976000000037,
                    "velocity": 0.6377952755905512,
                    "duration": 0.4080477604166788
                },
                {
                    "name": "F6",
                    "midi": 89,
                    "time": 131.94976000000037,
                    "velocity": 0.7559055118110236,
                    "duration": 0.4080477604166788
                },
                {
                    "name": "F5",
                    "midi": 77,
                    "time": 132.3621030000004,
                    "velocity": 0.5905511811023622,
                    "duration": 0.19586292500000013
                },
                {
                    "name": "B5",
                    "midi": 83,
                    "time": 132.3621030000004,
                    "velocity": 0.5905511811023622,
                    "duration": 0.19586292500000013
                },
                {
                    "name": "F6",
                    "midi": 89,
                    "time": 132.3621030000004,
                    "velocity": 0.7086614173228346,
                    "duration": 0.19586292500000013
                },
                {
                    "name": "F5",
                    "midi": 77,
                    "time": 132.5682745000004,
                    "velocity": 0.5196850393700787,
                    "duration": 0.19586292500000013
                },
                {
                    "name": "B5",
                    "midi": 83,
                    "time": 132.5682745000004,
                    "velocity": 0.5196850393700787,
                    "duration": 0.19586292500000013
                },
                {
                    "name": "F6",
                    "midi": 89,
                    "time": 132.5682745000004,
                    "velocity": 0.6141732283464567,
                    "duration": 0.19586292500000013
                },
                {
                    "name": "E5",
                    "midi": 76,
                    "time": 132.7744460000004,
                    "velocity": 0.5984251968503937,
                    "duration": 0.4080477604166788
                },
                {
                    "name": "B5",
                    "midi": 83,
                    "time": 132.7744460000004,
                    "velocity": 0.5984251968503937,
                    "duration": 0.4080477604166788
                },
                {
                    "name": "E6",
                    "midi": 88,
                    "time": 132.7744460000004,
                    "velocity": 0.7244094488188977,
                    "duration": 0.4080477604166788
                },
                {
                    "name": "E6",
                    "midi": 88,
                    "time": 133.18678900000043,
                    "velocity": 0.6614173228346457,
                    "duration": 0.4123429999999928
                },
                {
                    "name": "A5",
                    "midi": 81,
                    "time": 133.18678900000043,
                    "velocity": 0.5511811023622047,
                    "duration": 0.4123429999999928
                },
                {
                    "name": "E5",
                    "midi": 76,
                    "time": 133.18678900000043,
                    "velocity": 0.5511811023622047,
                    "duration": 0.4123429999999928
                },
                {
                    "name": "D5",
                    "midi": 74,
                    "time": 133.59913200000042,
                    "velocity": 0.6141732283464567,
                    "duration": 0.2061715000000106
                },
                {
                    "name": "A5",
                    "midi": 81,
                    "time": 133.59913200000042,
                    "velocity": 0.6141732283464567,
                    "duration": 0.2061715000000106
                },
                {
                    "name": "D6",
                    "midi": 86,
                    "time": 133.59913200000042,
                    "velocity": 0.7244094488188977,
                    "duration": 0.2061715000000106
                },
                {
                    "name": "D5",
                    "midi": 74,
                    "time": 133.80530350000043,
                    "velocity": 0.6141732283464567,
                    "duration": 0.2061715000000106
                },
                {
                    "name": "G#5",
                    "midi": 80,
                    "time": 133.80530350000043,
                    "velocity": 0.6141732283464567,
                    "duration": 0.2061715000000106
                },
                {
                    "name": "D6",
                    "midi": 86,
                    "time": 133.80530350000043,
                    "velocity": 0.6141732283464567,
                    "duration": 0.2061715000000106
                },
                {
                    "name": "C5",
                    "midi": 72,
                    "time": 134.01147500000044,
                    "velocity": 0.5748031496062992,
                    "duration": 0.4123429999999928
                },
                {
                    "name": "A5",
                    "midi": 81,
                    "time": 134.01147500000044,
                    "velocity": 0.5748031496062992,
                    "duration": 0.4123429999999928
                },
                {
                    "name": "C6",
                    "midi": 84,
                    "time": 134.01147500000044,
                    "velocity": 0.6850393700787402,
                    "duration": 0.4123429999999928
                },
                {
                    "name": "A5",
                    "midi": 81,
                    "time": 134.42381800000044,
                    "velocity": 0.5984251968503937,
                    "duration": 0.4123429999999928
                },
                {
                    "name": "B4",
                    "midi": 71,
                    "time": 134.42381800000044,
                    "velocity": 0.5984251968503937,
                    "duration": 0.4123429999999928
                },
                {
                    "name": "F5",
                    "midi": 77,
                    "time": 134.42381800000044,
                    "velocity": 0.5984251968503937,
                    "duration": 0.4123429999999928
                },
                {
                    "name": "B5",
                    "midi": 83,
                    "time": 134.42381800000044,
                    "velocity": 0.7244094488188977,
                    "duration": 0.4123429999999928
                },
                {
                    "name": "G#5",
                    "midi": 80,
                    "time": 134.83616100000043,
                    "velocity": 0.5826771653543307,
                    "duration": 0.36080012499999725
                },
                {
                    "name": "B5",
                    "midi": 83,
                    "time": 134.83616100000043,
                    "velocity": 0.7007874015748031,
                    "duration": 0.36080012499999725
                },
                {
                    "name": "E5",
                    "midi": 76,
                    "time": 134.83616100000043,
                    "velocity": 0.5826771653543307,
                    "duration": 0.36080012499999725
                },
                {
                    "name": "B4",
                    "midi": 71,
                    "time": 134.83616100000043,
                    "velocity": 0.5826771653543307,
                    "duration": 0.36080012499999725
                },
                {
                    "name": "A5",
                    "midi": 81,
                    "time": 135.19696112500043,
                    "velocity": 0.6456692913385826,
                    "duration": 0.05154287499999555
                },
                {
                    "name": "A6",
                    "midi": 93,
                    "time": 135.24850400000042,
                    "velocity": 0.7244094488188977,
                    "duration": 0.2061715000000106
                },
                {
                    "name": "G6",
                    "midi": 91,
                    "time": 135.45467550000043,
                    "velocity": 0.6456692913385826,
                    "duration": 0.1030857499999911
                },
                {
                    "name": "F6",
                    "midi": 89,
                    "time": 135.55776125000042,
                    "velocity": 0.6456692913385826,
                    "duration": 0.1030857499999911
                },
                {
                    "name": "E6",
                    "midi": 88,
                    "time": 135.66084700000042,
                    "velocity": 0.6377952755905512,
                    "duration": 0.1030857499999911
                },
                {
                    "name": "D6",
                    "midi": 86,
                    "time": 135.7639327500004,
                    "velocity": 0.6377952755905512,
                    "duration": 0.1030857499999911
                },
                {
                    "name": "C6",
                    "midi": 84,
                    "time": 135.8670185000004,
                    "velocity": 0.6299212598425197,
                    "duration": 0.1030857499999911
                },
                {
                    "name": "B5",
                    "midi": 83,
                    "time": 135.9701042500004,
                    "velocity": 0.6220472440944882,
                    "duration": 0.1030857499999911
                },
                {
                    "name": "A5",
                    "midi": 81,
                    "time": 136.07319000000038,
                    "velocity": 0.6220472440944882,
                    "duration": 0.1030857499999911
                },
                {
                    "name": "G5",
                    "midi": 79,
                    "time": 136.17627575000037,
                    "velocity": 0.6141732283464567,
                    "duration": 0.1030857499999911
                },
                {
                    "name": "F5",
                    "midi": 77,
                    "time": 136.27936150000036,
                    "velocity": 0.6141732283464567,
                    "duration": 0.1030857499999911
                },
                {
                    "name": "E5",
                    "midi": 76,
                    "time": 136.38244725000035,
                    "velocity": 0.6062992125984252,
                    "duration": 0.1030857499999911
                },
                {
                    "name": "D5",
                    "midi": 74,
                    "time": 136.48553300000034,
                    "velocity": 0.6062992125984252,
                    "duration": 0.1030857499999911
                },
                {
                    "name": "C5",
                    "midi": 72,
                    "time": 136.58861875000034,
                    "velocity": 0.5905511811023622,
                    "duration": 0.1030857499999911
                },
                {
                    "name": "B4",
                    "midi": 71,
                    "time": 136.69170450000033,
                    "velocity": 0.5826771653543307,
                    "duration": 0.1030857499999911
                },
                {
                    "name": "A4",
                    "midi": 69,
                    "time": 136.79479025000032,
                    "velocity": 0.5826771653543307,
                    "duration": 0.1030857499999911
                },
                {
                    "name": "G#4",
                    "midi": 68,
                    "time": 136.8978760000003,
                    "velocity": 0.5590551181102362,
                    "duration": 0.1030857499999911
                },
                {
                    "name": "F4",
                    "midi": 65,
                    "time": 137.0009617500003,
                    "velocity": 0.5039370078740157,
                    "duration": 0.1030857499999911
                },
                {
                    "name": "E4",
                    "midi": 64,
                    "time": 137.1040475000003,
                    "velocity": 0.5039370078740157,
                    "duration": 0.1030857499999911
                },
                {
                    "name": "D4",
                    "midi": 62,
                    "time": 137.20713325000028,
                    "velocity": 0.5039370078740157,
                    "duration": 0.1030857499999911
                },
                {
                    "name": "G#4",
                    "midi": 68,
                    "time": 137.31021900000027,
                    "velocity": 0.49606299212598426,
                    "duration": 0.1030857499999911
                },
                {
                    "name": "F4",
                    "midi": 65,
                    "time": 137.41330475000026,
                    "velocity": 0.44881889763779526,
                    "duration": 0.1030857499999911
                },
                {
                    "name": "E4",
                    "midi": 64,
                    "time": 137.51639050000026,
                    "velocity": 0.44881889763779526,
                    "duration": 0.1030857499999911
                },
                {
                    "name": "D4",
                    "midi": 62,
                    "time": 137.61947625000025,
                    "velocity": 0.44881889763779526,
                    "duration": 0.1030857499999911
                },
                {
                    "name": "G#4",
                    "midi": 68,
                    "time": 137.72256200000024,
                    "velocity": 0.5275590551181102,
                    "duration": 0.1030857499999911
                },
                {
                    "name": "F4",
                    "midi": 65,
                    "time": 137.82564775000023,
                    "velocity": 0.4566929133858268,
                    "duration": 0.1030857499999911
                },
                {
                    "name": "E4",
                    "midi": 64,
                    "time": 137.92873350000022,
                    "velocity": 0.4566929133858268,
                    "duration": 0.1030857499999911
                },
                {
                    "name": "D4",
                    "midi": 62,
                    "time": 138.0318192500002,
                    "velocity": 0.4566929133858268,
                    "duration": 0.1030857499999911
                },
                {
                    "name": "G#4",
                    "midi": 68,
                    "time": 138.1349050000002,
                    "velocity": 0.5039370078740157,
                    "duration": 0.1030857499999911
                },
                {
                    "name": "F4",
                    "midi": 65,
                    "time": 138.2379907500002,
                    "velocity": 0.4645669291338583,
                    "duration": 0.1030857499999911
                },
                {
                    "name": "E4",
                    "midi": 64,
                    "time": 138.34107650000018,
                    "velocity": 0.4645669291338583,
                    "duration": 0.1030857499999911
                },
                {
                    "name": "D4",
                    "midi": 62,
                    "time": 138.44416225000018,
                    "velocity": 0.4645669291338583,
                    "duration": 0.05154287499999555
                },
                {
                    "name": "B5",
                    "midi": 83,
                    "time": 138.49570512500017,
                    "velocity": 0.6377952755905512,
                    "duration": 0.05154287499999555
                },
                {
                    "name": "B6",
                    "midi": 95,
                    "time": 138.54724800000017,
                    "velocity": 0.7244094488188977,
                    "duration": 0.2061715000000106
                },
                {
                    "name": "A6",
                    "midi": 93,
                    "time": 138.75341950000018,
                    "velocity": 0.6456692913385826,
                    "duration": 0.1030857499999911
                },
                {
                    "name": "G#6",
                    "midi": 92,
                    "time": 138.85650525000017,
                    "velocity": 0.6456692913385826,
                    "duration": 0.1030857499999911
                },
                {
                    "name": "F6",
                    "midi": 89,
                    "time": 138.95959100000016,
                    "velocity": 0.6377952755905512,
                    "duration": 0.1030857499999911
                },
                {
                    "name": "E6",
                    "midi": 88,
                    "time": 139.06267675000015,
                    "velocity": 0.6377952755905512,
                    "duration": 0.1030857499999911
                },
                {
                    "name": "D6",
                    "midi": 86,
                    "time": 139.16576250000014,
                    "velocity": 0.6299212598425197,
                    "duration": 0.1030857499999911
                },
                {
                    "name": "C6",
                    "midi": 84,
                    "time": 139.26884825000013,
                    "velocity": 0.6220472440944882,
                    "duration": 0.1030857499999911
                },
                {
                    "name": "B5",
                    "midi": 83,
                    "time": 139.37193400000012,
                    "velocity": 0.6220472440944882,
                    "duration": 0.1030857499999911
                },
                {
                    "name": "A5",
                    "midi": 81,
                    "time": 139.47501975000011,
                    "velocity": 0.6141732283464567,
                    "duration": 0.1030857499999911
                },
                {
                    "name": "G#5",
                    "midi": 80,
                    "time": 139.5781055000001,
                    "velocity": 0.6141732283464567,
                    "duration": 0.1030857499999911
                },
                {
                    "name": "F5",
                    "midi": 77,
                    "time": 139.6811912500001,
                    "velocity": 0.6062992125984252,
                    "duration": 0.1030857499999911
                },
                {
                    "name": "E5",
                    "midi": 76,
                    "time": 139.7842770000001,
                    "velocity": 0.6062992125984252,
                    "duration": 0.1030857499999911
                },
                {
                    "name": "D5",
                    "midi": 74,
                    "time": 139.88736275000008,
                    "velocity": 0.5905511811023622,
                    "duration": 0.1030857499999911
                },
                {
                    "name": "C5",
                    "midi": 72,
                    "time": 139.99044850000007,
                    "velocity": 0.5826771653543307,
                    "duration": 0.1030857499999911
                },
                {
                    "name": "B4",
                    "midi": 71,
                    "time": 140.09353425000006,
                    "velocity": 0.5826771653543307,
                    "duration": 0.1030857499999911
                },
                {
                    "name": "A4",
                    "midi": 69,
                    "time": 140.19662000000005,
                    "velocity": 0.5590551181102362,
                    "duration": 0.1030857499999911
                },
                {
                    "name": "D#4",
                    "midi": 63,
                    "time": 140.29970575000004,
                    "velocity": 0.5039370078740157,
                    "duration": 0.1030857499999911
                },
                {
                    "name": "E4",
                    "midi": 64,
                    "time": 140.40279150000003,
                    "velocity": 0.5039370078740157,
                    "duration": 0.1030857499999911
                },
                {
                    "name": "A3",
                    "midi": 57,
                    "time": 140.50587725000003,
                    "velocity": 0.5039370078740157,
                    "duration": 0.1030857499999911
                },
                {
                    "name": "A4",
                    "midi": 69,
                    "time": 140.60896300000002,
                    "velocity": 0.49606299212598426,
                    "duration": 0.1030857499999911
                },
                {
                    "name": "D#4",
                    "midi": 63,
                    "time": 140.71204875,
                    "velocity": 0.44881889763779526,
                    "duration": 0.1030857499999911
                },
                {
                    "name": "E4",
                    "midi": 64,
                    "time": 140.8151345,
                    "velocity": 0.44881889763779526,
                    "duration": 0.1030857499999911
                },
                {
                    "name": "A3",
                    "midi": 57,
                    "time": 140.91822025,
                    "velocity": 0.44881889763779526,
                    "duration": 0.1030857499999911
                },
                {
                    "name": "A4",
                    "midi": 69,
                    "time": 141.02130599999998,
                    "velocity": 0.5275590551181102,
                    "duration": 0.1030857499999911
                },
                {
                    "name": "D#4",
                    "midi": 63,
                    "time": 141.12439174999997,
                    "velocity": 0.4566929133858268,
                    "duration": 0.1030857499999911
                },
                {
                    "name": "E4",
                    "midi": 64,
                    "time": 141.22747749999996,
                    "velocity": 0.4566929133858268,
                    "duration": 0.1030857499999911
                },
                {
                    "name": "A3",
                    "midi": 57,
                    "time": 141.33056324999995,
                    "velocity": 0.4566929133858268,
                    "duration": 0.1030857499999911
                },
                {
                    "name": "A4",
                    "midi": 69,
                    "time": 141.43364899999995,
                    "velocity": 0.5039370078740157,
                    "duration": 0.1030857499999911
                },
                {
                    "name": "D#4",
                    "midi": 63,
                    "time": 141.53673474999994,
                    "velocity": 0.4645669291338583,
                    "duration": 0.1030857499999911
                },
                {
                    "name": "E4",
                    "midi": 64,
                    "time": 141.63982049999993,
                    "velocity": 0.4645669291338583,
                    "duration": 0.1030857499999911
                },
                {
                    "name": "A3",
                    "midi": 57,
                    "time": 141.74290624999992,
                    "velocity": 0.4645669291338583,
                    "duration": 0.1030857499999911
                },
                {
                    "name": "A#4",
                    "midi": 70,
                    "time": 141.8459919999999,
                    "velocity": 0.5275590551181102,
                    "duration": 0.1030857499999911
                },
                {
                    "name": "E4",
                    "midi": 64,
                    "time": 141.9490777499999,
                    "velocity": 0.48031496062992124,
                    "duration": 0.1030857499999911
                },
                {
                    "name": "F4",
                    "midi": 65,
                    "time": 142.0521634999999,
                    "velocity": 0.48031496062992124,
                    "duration": 0.1030857499999911
                },
                {
                    "name": "A#3",
                    "midi": 58,
                    "time": 142.15524924999988,
                    "velocity": 0.48031496062992124,
                    "duration": 0.1030857499999911
                },
                {
                    "name": "A#4",
                    "midi": 70,
                    "time": 142.25833499999987,
                    "velocity": 0.47244094488188976,
                    "duration": 0.1030857499999911
                },
                {
                    "name": "E4",
                    "midi": 64,
                    "time": 142.36142074999987,
                    "velocity": 0.41732283464566927,
                    "duration": 0.1030857499999911
                },
                {
                    "name": "F4",
                    "midi": 65,
                    "time": 142.46450649999986,
                    "velocity": 0.41732283464566927,
                    "duration": 0.1030857499999911
                },
                {
                    "name": "A#3",
                    "midi": 58,
                    "time": 142.56759224999985,
                    "velocity": 0.41732283464566927,
                    "duration": 0.1030857499999911
                },
                {
                    "name": "A#4",
                    "midi": 70,
                    "time": 142.67067799999984,
                    "velocity": 0.4645669291338583,
                    "duration": 0.1030857499999911
                },
                {
                    "name": "E4",
                    "midi": 64,
                    "time": 142.77376374999983,
                    "velocity": 0.4015748031496063,
                    "duration": 0.1030857499999911
                },
                {
                    "name": "F4",
                    "midi": 65,
                    "time": 142.87684949999982,
                    "velocity": 0.4015748031496063,
                    "duration": 0.1030857499999911
                },
                {
                    "name": "A#3",
                    "midi": 58,
                    "time": 142.9799352499998,
                    "velocity": 0.4015748031496063,
                    "duration": 0.1030857499999911
                },
                {
                    "name": "A#4",
                    "midi": 70,
                    "time": 143.0830209999998,
                    "velocity": 0.4566929133858268,
                    "duration": 0.1030857499999911
                },
                {
                    "name": "E4",
                    "midi": 64,
                    "time": 143.1861067499998,
                    "velocity": 0.4094488188976378,
                    "duration": 0.1030857499999911
                },
                {
                    "name": "F4",
                    "midi": 65,
                    "time": 143.28919249999979,
                    "velocity": 0.4094488188976378,
                    "duration": 0.1030857499999911
                },
                {
                    "name": "A#3",
                    "midi": 58,
                    "time": 143.39227824999978,
                    "velocity": 0.4094488188976378,
                    "duration": 0.1030857499999911
                },
                {
                    "name": "C#5",
                    "midi": 73,
                    "time": 143.49536399999977,
                    "velocity": 0.41732283464566927,
                    "duration": 0.1030857499999911
                },
                {
                    "name": "F#4",
                    "midi": 66,
                    "time": 143.59844974999976,
                    "velocity": 0.3700787401574803,
                    "duration": 0.1030857499999911
                },
                {
                    "name": "G4",
                    "midi": 67,
                    "time": 143.70153549999975,
                    "velocity": 0.3700787401574803,
                    "duration": 0.1030857499999911
                },
                {
                    "name": "C#4",
                    "midi": 61,
                    "time": 143.80462124999974,
                    "velocity": 0.3779527559055118,
                    "duration": 0.1030857499999911
                },
                {
                    "name": "D5",
                    "midi": 74,
                    "time": 143.90770699999973,
                    "velocity": 0.4251968503937008,
                    "duration": 0.1030857499999911
                },
                {
                    "name": "G#4",
                    "midi": 68,
                    "time": 144.01079274999972,
                    "velocity": 0.3779527559055118,
                    "duration": 0.1030857499999911
                },
                {
                    "name": "A4",
                    "midi": 69,
                    "time": 144.11387849999971,
                    "velocity": 0.3779527559055118,
                    "duration": 0.1030857499999911
                },
                {
                    "name": "D4",
                    "midi": 62,
                    "time": 144.2169642499997,
                    "velocity": 0.3858267716535433,
                    "duration": 0.1030857499999911
                },
                {
                    "name": "E5",
                    "midi": 76,
                    "time": 144.3200499999997,
                    "velocity": 0.4330708661417323,
                    "duration": 0.1030857499999911
                },
                {
                    "name": "A#4",
                    "midi": 70,
                    "time": 144.4231357499997,
                    "velocity": 0.3858267716535433,
                    "duration": 0.1030857499999911
                },
                {
                    "name": "B4",
                    "midi": 71,
                    "time": 144.52622149999968,
                    "velocity": 0.3858267716535433,
                    "duration": 0.1030857499999911
                },
                {
                    "name": "E4",
                    "midi": 64,
                    "time": 144.62930724999967,
                    "velocity": 0.3858267716535433,
                    "duration": 0.1030857499999911
                },
                {
                    "name": "F5",
                    "midi": 77,
                    "time": 144.73239299999966,
                    "velocity": 0.4409448818897638,
                    "duration": 0.1030857499999911
                },
                {
                    "name": "B4",
                    "midi": 71,
                    "time": 144.83547874999965,
                    "velocity": 0.3858267716535433,
                    "duration": 0.1030857499999911
                },
                {
                    "name": "C5",
                    "midi": 72,
                    "time": 144.93856449999964,
                    "velocity": 0.3858267716535433,
                    "duration": 0.1030857499999911
                },
                {
                    "name": "F4",
                    "midi": 65,
                    "time": 145.04165024999963,
                    "velocity": 0.3937007874015748,
                    "duration": 0.1030857499999911
                },
                {
                    "name": "G#5",
                    "midi": 80,
                    "time": 145.14473599999963,
                    "velocity": 0.44881889763779526,
                    "duration": 0.1030857499999911
                },
                {
                    "name": "D#5",
                    "midi": 75,
                    "time": 145.24782174999962,
                    "velocity": 0.4094488188976378,
                    "duration": 0.1030857499999911
                },
                {
                    "name": "E5",
                    "midi": 76,
                    "time": 145.3509074999996,
                    "velocity": 0.41732283464566927,
                    "duration": 0.1030857499999911
                },
                {
                    "name": "G#4",
                    "midi": 68,
                    "time": 145.4539932499996,
                    "velocity": 0.4251968503937008,
                    "duration": 0.1030857499999911
                },
                {
                    "name": "A5",
                    "midi": 81,
                    "time": 145.5570789999996,
                    "velocity": 0.4645669291338583,
                    "duration": 0.1030857499999911
                },
                {
                    "name": "D#5",
                    "midi": 75,
                    "time": 145.66016474999958,
                    "velocity": 0.4094488188976378,
                    "duration": 0.1030857499999911
                },
                {
                    "name": "E5",
                    "midi": 76,
                    "time": 145.76325049999957,
                    "velocity": 0.41732283464566927,
                    "duration": 0.1030857499999911
                },
                {
                    "name": "A4",
                    "midi": 69,
                    "time": 145.86633624999956,
                    "velocity": 0.41732283464566927,
                    "duration": 0.1030857499999911
                },
                {
                    "name": "B5",
                    "midi": 83,
                    "time": 145.96942199999955,
                    "velocity": 0.5196850393700787,
                    "duration": 0.1030857499999911
                },
                {
                    "name": "D#5",
                    "midi": 75,
                    "time": 146.07250774999955,
                    "velocity": 0.4251968503937008,
                    "duration": 0.1030857499999911
                },
                {
                    "name": "A5",
                    "midi": 81,
                    "time": 146.17559349999954,
                    "velocity": 0.41732283464566927,
                    "duration": 0.1030857499999911
                },
                {
                    "name": "B4",
                    "midi": 71,
                    "time": 146.27867924999953,
                    "velocity": 0.4094488188976378,
                    "duration": 0.1030857499999911
                },
                {
                    "name": "C6",
                    "midi": 84,
                    "time": 146.38176499999952,
                    "velocity": 0.44881889763779526,
                    "duration": 0.1030857499999911
                },
                {
                    "name": "E5",
                    "midi": 76,
                    "time": 146.4848507499995,
                    "velocity": 0.3858267716535433,
                    "duration": 0.1030857499999911
                },
                {
                    "name": "G#5",
                    "midi": 80,
                    "time": 146.5879364999995,
                    "velocity": 0.3779527559055118,
                    "duration": 0.1030857499999911
                },
                {
                    "name": "C5",
                    "midi": 72,
                    "time": 146.6910222499995,
                    "velocity": 0.3779527559055118,
                    "duration": 0.1030857499999911
                },
                {
                    "name": "A5",
                    "midi": 81,
                    "time": 146.79410799999948,
                    "velocity": 0.5196850393700787,
                    "duration": 0.4080477604166788
                },
                {
                    "name": "A6",
                    "midi": 93,
                    "time": 146.79410799999948,
                    "velocity": 0.6220472440944882,
                    "duration": 0.4080477604166788
                },
                {
                    "name": "A5",
                    "midi": 81,
                    "time": 147.2064509999995,
                    "velocity": 0.4881889763779528,
                    "duration": 0.19586292500000013
                },
                {
                    "name": "A6",
                    "midi": 93,
                    "time": 147.2064509999995,
                    "velocity": 0.5748031496062992,
                    "duration": 0.19586292500000013
                },
                {
                    "name": "A5",
                    "midi": 81,
                    "time": 147.41262249999951,
                    "velocity": 0.4881889763779528,
                    "duration": 0.19586292500000013
                },
                {
                    "name": "A6",
                    "midi": 93,
                    "time": 147.41262249999951,
                    "velocity": 0.5748031496062992,
                    "duration": 0.19586292500000013
                },
                {
                    "name": "A5",
                    "midi": 81,
                    "time": 147.61879399999953,
                    "velocity": 0.5196850393700787,
                    "duration": 0.4080477604166788
                },
                {
                    "name": "A6",
                    "midi": 93,
                    "time": 147.61879399999953,
                    "velocity": 0.6220472440944882,
                    "duration": 0.4080477604166788
                },
                {
                    "name": "A5",
                    "midi": 81,
                    "time": 148.03113699999955,
                    "velocity": 0.4881889763779528,
                    "duration": 0.19586292500000013
                },
                {
                    "name": "A6",
                    "midi": 93,
                    "time": 148.03113699999955,
                    "velocity": 0.5748031496062992,
                    "duration": 0.19586292500000013
                },
                {
                    "name": "A5",
                    "midi": 81,
                    "time": 148.23730849999956,
                    "velocity": 0.48031496062992124,
                    "duration": 0.19586292500000013
                },
                {
                    "name": "A6",
                    "midi": 93,
                    "time": 148.23730849999956,
                    "velocity": 0.5669291338582677,
                    "duration": 0.19586292500000013
                },
                {
                    "name": "A5",
                    "midi": 81,
                    "time": 148.44347999999957,
                    "velocity": 0.5196850393700787,
                    "duration": 0.2061715000000106
                },
                {
                    "name": "A6",
                    "midi": 93,
                    "time": 148.44347999999957,
                    "velocity": 0.6220472440944882,
                    "duration": 0.2061715000000106
                },
                {
                    "name": "F#5",
                    "midi": 78,
                    "time": 148.64965149999958,
                    "velocity": 0.4881889763779528,
                    "duration": 0.2061715000000106
                },
                {
                    "name": "F#6",
                    "midi": 90,
                    "time": 148.64965149999958,
                    "velocity": 0.5748031496062992,
                    "duration": 0.2061715000000106
                },
                {
                    "name": "G5",
                    "midi": 79,
                    "time": 148.8558229999996,
                    "velocity": 0.5039370078740157,
                    "duration": 0.4123429999999928
                },
                {
                    "name": "G6",
                    "midi": 91,
                    "time": 148.8558229999996,
                    "velocity": 0.5984251968503937,
                    "duration": 0.4123429999999928
                },
                {
                    "name": "A2",
                    "midi": 45,
                    "time": 149.26816599999958,
                    "velocity": 0.7637795275590551,
                    "duration": 0.824686000000014
                },
                {
                    "name": "G5",
                    "midi": 79,
                    "time": 150.0928519999996,
                    "velocity": 0.5196850393700787,
                    "duration": 0.4080477604166788
                },
                {
                    "name": "G6",
                    "midi": 91,
                    "time": 150.0928519999996,
                    "velocity": 0.6220472440944882,
                    "duration": 0.4080477604166788
                },
                {
                    "name": "G5",
                    "midi": 79,
                    "time": 150.50519499999962,
                    "velocity": 0.4881889763779528,
                    "duration": 0.19586292500000013
                },
                {
                    "name": "G6",
                    "midi": 91,
                    "time": 150.50519499999962,
                    "velocity": 0.5748031496062992,
                    "duration": 0.19586292500000013
                },
                {
                    "name": "G5",
                    "midi": 79,
                    "time": 150.71136649999963,
                    "velocity": 0.4881889763779528,
                    "duration": 0.19586292500000013
                },
                {
                    "name": "G6",
                    "midi": 91,
                    "time": 150.71136649999963,
                    "velocity": 0.5748031496062992,
                    "duration": 0.19586292500000013
                },
                {
                    "name": "G5",
                    "midi": 79,
                    "time": 150.91753799999964,
                    "velocity": 0.5196850393700787,
                    "duration": 0.4080477604166788
                },
                {
                    "name": "G6",
                    "midi": 91,
                    "time": 150.91753799999964,
                    "velocity": 0.6220472440944882,
                    "duration": 0.4080477604166788
                },
                {
                    "name": "G5",
                    "midi": 79,
                    "time": 151.32988099999966,
                    "velocity": 0.4881889763779528,
                    "duration": 0.19586292500000013
                },
                {
                    "name": "G6",
                    "midi": 91,
                    "time": 151.32988099999966,
                    "velocity": 0.5748031496062992,
                    "duration": 0.19586292500000013
                },
                {
                    "name": "G5",
                    "midi": 79,
                    "time": 151.53605249999967,
                    "velocity": 0.48031496062992124,
                    "duration": 0.19586292500000013
                },
                {
                    "name": "G6",
                    "midi": 91,
                    "time": 151.53605249999967,
                    "velocity": 0.5669291338582677,
                    "duration": 0.19586292500000013
                },
                {
                    "name": "G5",
                    "midi": 79,
                    "time": 151.74222399999968,
                    "velocity": 0.5196850393700787,
                    "duration": 0.2061715000000106
                },
                {
                    "name": "G6",
                    "midi": 91,
                    "time": 151.74222399999968,
                    "velocity": 0.6220472440944882,
                    "duration": 0.2061715000000106
                },
                {
                    "name": "E5",
                    "midi": 76,
                    "time": 151.9483954999997,
                    "velocity": 0.4881889763779528,
                    "duration": 0.2061715000000106
                },
                {
                    "name": "E6",
                    "midi": 88,
                    "time": 151.9483954999997,
                    "velocity": 0.5748031496062992,
                    "duration": 0.2061715000000106
                },
                {
                    "name": "F5",
                    "midi": 77,
                    "time": 152.1545669999997,
                    "velocity": 0.5039370078740157,
                    "duration": 0.4123429999999928
                },
                {
                    "name": "F6",
                    "midi": 89,
                    "time": 152.1545669999997,
                    "velocity": 0.5984251968503937,
                    "duration": 0.4123429999999928
                },
                {
                    "name": "A2",
                    "midi": 45,
                    "time": 152.5669099999997,
                    "velocity": 0.7637795275590551,
                    "duration": 0.824686000000014
                },
                {
                    "name": "F5",
                    "midi": 77,
                    "time": 153.3915959999997,
                    "velocity": 0.4881889763779528,
                    "duration": 0.2061715000000106
                },
                {
                    "name": "F6",
                    "midi": 89,
                    "time": 153.3915959999997,
                    "velocity": 0.5905511811023622,
                    "duration": 0.2061715000000106
                },
                {
                    "name": "D#5",
                    "midi": 75,
                    "time": 153.59776749999972,
                    "velocity": 0.4566929133858268,
                    "duration": 0.2061715000000106
                },
                {
                    "name": "D#6",
                    "midi": 87,
                    "time": 153.59776749999972,
                    "velocity": 0.5354330708661418,
                    "duration": 0.2061715000000106
                },
                {
                    "name": "E5",
                    "midi": 76,
                    "time": 153.80393899999973,
                    "velocity": 0.4566929133858268,
                    "duration": 0.4123429999999928
                },
                {
                    "name": "E6",
                    "midi": 88,
                    "time": 153.80393899999973,
                    "velocity": 0.5433070866141733,
                    "duration": 0.4123429999999928
                },
                {
                    "name": "A2",
                    "midi": 45,
                    "time": 154.21628199999972,
                    "velocity": 0.6771653543307087,
                    "duration": 0.824686000000014
                },
                {
                    "name": "E5",
                    "midi": 76,
                    "time": 155.04096799999974,
                    "velocity": 0.4251968503937008,
                    "duration": 0.2061715000000106
                },
                {
                    "name": "E6",
                    "midi": 88,
                    "time": 155.04096799999974,
                    "velocity": 0.5118110236220472,
                    "duration": 0.2061715000000106
                },
                {
                    "name": "C#5",
                    "midi": 73,
                    "time": 155.24713949999975,
                    "velocity": 0.3937007874015748,
                    "duration": 0.2061715000000106
                },
                {
                    "name": "C#6",
                    "midi": 85,
                    "time": 155.24713949999975,
                    "velocity": 0.4645669291338583,
                    "duration": 0.2061715000000106
                },
                {
                    "name": "D5",
                    "midi": 74,
                    "time": 155.45331099999976,
                    "velocity": 0.4015748031496063,
                    "duration": 0.4123429999999928
                },
                {
                    "name": "D6",
                    "midi": 86,
                    "time": 155.45331099999976,
                    "velocity": 0.47244094488188976,
                    "duration": 0.4123429999999928
                },
                {
                    "name": "A2",
                    "midi": 45,
                    "time": 155.86565399999975,
                    "velocity": 0.5826771653543307,
                    "duration": 0.824686000000014
                },
                {
                    "name": "D5",
                    "midi": 74,
                    "time": 156.69033999999976,
                    "velocity": 0.3779527559055118,
                    "duration": 0.2061715000000106
                },
                {
                    "name": "D6",
                    "midi": 86,
                    "time": 156.69033999999976,
                    "velocity": 0.4566929133858268,
                    "duration": 0.2061715000000106
                },
                {
                    "name": "B4",
                    "midi": 71,
                    "time": 156.89651149999978,
                    "velocity": 0.3543307086614173,
                    "duration": 0.2061715000000106
                },
                {
                    "name": "B5",
                    "midi": 83,
                    "time": 156.89651149999978,
                    "velocity": 0.41732283464566927,
                    "duration": 0.2061715000000106
                },
                {
                    "name": "C5",
                    "midi": 72,
                    "time": 157.1026829999998,
                    "velocity": 0.3543307086614173,
                    "duration": 0.4123429999999928
                },
                {
                    "name": "C6",
                    "midi": 84,
                    "time": 157.1026829999998,
                    "velocity": 0.4251968503937008,
                    "duration": 0.4123429999999928
                },
                {
                    "name": "A5",
                    "midi": 81,
                    "time": 157.51502599999978,
                    "velocity": 0.4409448818897638,
                    "duration": 0.2061715000000106
                },
                {
                    "name": "A4",
                    "midi": 69,
                    "time": 157.51502599999978,
                    "velocity": 0.3700787401574803,
                    "duration": 0.2061715000000106
                },
                {
                    "name": "B4",
                    "midi": 71,
                    "time": 157.7211974999998,
                    "velocity": 0.3937007874015748,
                    "duration": 0.2061715000000106
                },
                {
                    "name": "B5",
                    "midi": 83,
                    "time": 157.7211974999998,
                    "velocity": 0.4645669291338583,
                    "duration": 0.2061715000000106
                },
                {
                    "name": "C5",
                    "midi": 72,
                    "time": 157.9273689999998,
                    "velocity": 0.4094488188976378,
                    "duration": 0.2061715000000106
                },
                {
                    "name": "C6",
                    "midi": 84,
                    "time": 157.9273689999998,
                    "velocity": 0.4881889763779528,
                    "duration": 0.2061715000000106
                },
                {
                    "name": "D5",
                    "midi": 74,
                    "time": 158.1335404999998,
                    "velocity": 0.4330708661417323,
                    "duration": 0.2061715000000106
                },
                {
                    "name": "D6",
                    "midi": 86,
                    "time": 158.1335404999998,
                    "velocity": 0.5118110236220472,
                    "duration": 0.2061715000000106
                },
                {
                    "name": "E6",
                    "midi": 88,
                    "time": 158.33971199999982,
                    "velocity": 0.5354330708661418,
                    "duration": 0.4123429999999928
                },
                {
                    "name": "E5",
                    "midi": 76,
                    "time": 158.33971199999982,
                    "velocity": 0.44881889763779526,
                    "duration": 0.4123429999999928
                },
                {
                    "name": "D5",
                    "midi": 74,
                    "time": 158.7520549999998,
                    "velocity": 0.4409448818897638,
                    "duration": 0.3092572500000017
                },
                {
                    "name": "D6",
                    "midi": 86,
                    "time": 158.7520549999998,
                    "velocity": 0.5196850393700787,
                    "duration": 0.3092572500000017
                },
                {
                    "name": "C5",
                    "midi": 72,
                    "time": 159.06131224999982,
                    "velocity": 0.36220472440944884,
                    "duration": 0.1030857499999911
                },
                {
                    "name": "C6",
                    "midi": 84,
                    "time": 159.06131224999982,
                    "velocity": 0.4330708661417323,
                    "duration": 0.1030857499999911
                },
                {
                    "name": "C6",
                    "midi": 84,
                    "time": 159.1643979999998,
                    "velocity": 0.48031496062992124,
                    "duration": 0.4123429999999928
                },
                {
                    "name": "C5",
                    "midi": 72,
                    "time": 159.1643979999998,
                    "velocity": 0.4015748031496063,
                    "duration": 0.4123429999999928
                },
                {
                    "name": "B4",
                    "midi": 71,
                    "time": 159.5767409999998,
                    "velocity": 0.3700787401574803,
                    "duration": 0.4123429999999928
                },
                {
                    "name": "B5",
                    "midi": 83,
                    "time": 159.5767409999998,
                    "velocity": 0.4409448818897638,
                    "duration": 0.4123429999999928
                },
                {
                    "name": "G#4",
                    "midi": 68,
                    "time": 159.9890839999998,
                    "velocity": 0.3937007874015748,
                    "duration": 0.4123429999999928
                },
                {
                    "name": "G#5",
                    "midi": 80,
                    "time": 159.9890839999998,
                    "velocity": 0.4645669291338583,
                    "duration": 0.4123429999999928
                },
                {
                    "name": "A4",
                    "midi": 69,
                    "time": 160.40142699999979,
                    "velocity": 0.3700787401574803,
                    "duration": 0.2061715000000106
                },
                {
                    "name": "A5",
                    "midi": 81,
                    "time": 160.40142699999979,
                    "velocity": 0.4409448818897638,
                    "duration": 0.2061715000000106
                },
                {
                    "name": "A5",
                    "midi": 81,
                    "time": 160.82236047916646,
                    "velocity": 0.4409448818897638,
                    "duration": 0.2061715000000106
                },
                {
                    "name": "A4",
                    "midi": 69,
                    "time": 160.82236047916646,
                    "velocity": 0.3700787401574803,
                    "duration": 0.2061715000000106
                },
                {
                    "name": "B4",
                    "midi": 71,
                    "time": 161.02853197916647,
                    "velocity": 0.3937007874015748,
                    "duration": 0.2061715000000106
                },
                {
                    "name": "B5",
                    "midi": 83,
                    "time": 161.02853197916647,
                    "velocity": 0.4645669291338583,
                    "duration": 0.2061715000000106
                },
                {
                    "name": "C5",
                    "midi": 72,
                    "time": 161.23470347916648,
                    "velocity": 0.4094488188976378,
                    "duration": 0.2061715000000106
                },
                {
                    "name": "C6",
                    "midi": 84,
                    "time": 161.23470347916648,
                    "velocity": 0.4881889763779528,
                    "duration": 0.2061715000000106
                },
                {
                    "name": "D5",
                    "midi": 74,
                    "time": 161.4408749791665,
                    "velocity": 0.4330708661417323,
                    "duration": 0.2061715000000106
                },
                {
                    "name": "D6",
                    "midi": 86,
                    "time": 161.4408749791665,
                    "velocity": 0.5118110236220472,
                    "duration": 0.2061715000000106
                },
                {
                    "name": "E6",
                    "midi": 88,
                    "time": 161.6470464791665,
                    "velocity": 0.5354330708661418,
                    "duration": 0.4123429999999928
                },
                {
                    "name": "E5",
                    "midi": 76,
                    "time": 161.6470464791665,
                    "velocity": 0.44881889763779526,
                    "duration": 0.4123429999999928
                },
                {
                    "name": "D5",
                    "midi": 74,
                    "time": 162.0593894791665,
                    "velocity": 0.4409448818897638,
                    "duration": 0.3092572500000017
                },
                {
                    "name": "D6",
                    "midi": 86,
                    "time": 162.0593894791665,
                    "velocity": 0.5196850393700787,
                    "duration": 0.3092572500000017
                },
                {
                    "name": "C5",
                    "midi": 72,
                    "time": 162.3686467291665,
                    "velocity": 0.36220472440944884,
                    "duration": 0.1030857499999911
                },
                {
                    "name": "C6",
                    "midi": 84,
                    "time": 162.3686467291665,
                    "velocity": 0.4330708661417323,
                    "duration": 0.1030857499999911
                },
                {
                    "name": "C6",
                    "midi": 84,
                    "time": 162.4717324791665,
                    "velocity": 0.48031496062992124,
                    "duration": 0.4123429999999928
                },
                {
                    "name": "C5",
                    "midi": 72,
                    "time": 162.4717324791665,
                    "velocity": 0.4015748031496063,
                    "duration": 0.4123429999999928
                },
                {
                    "name": "B4",
                    "midi": 71,
                    "time": 162.88407547916648,
                    "velocity": 0.3700787401574803,
                    "duration": 0.4123429999999928
                },
                {
                    "name": "B5",
                    "midi": 83,
                    "time": 162.88407547916648,
                    "velocity": 0.4409448818897638,
                    "duration": 0.4123429999999928
                },
                {
                    "name": "A5",
                    "midi": 81,
                    "time": 163.28782799999982,
                    "velocity": 0.5433070866141733,
                    "duration": 0.1030857499999911
                },
                {
                    "name": "D#5",
                    "midi": 75,
                    "time": 163.3909137499998,
                    "velocity": 0.48031496062992124,
                    "duration": 0.1030857499999911
                },
                {
                    "name": "E5",
                    "midi": 76,
                    "time": 163.4939994999998,
                    "velocity": 0.48031496062992124,
                    "duration": 0.1030857499999911
                },
                {
                    "name": "A4",
                    "midi": 69,
                    "time": 163.5970852499998,
                    "velocity": 0.48031496062992124,
                    "duration": 0.1030857499999911
                },
                {
                    "name": "A4",
                    "midi": 69,
                    "time": 163.70017099999978,
                    "velocity": 0.5196850393700787,
                    "duration": 0.1030857499999911
                },
                {
                    "name": "D#4",
                    "midi": 63,
                    "time": 163.80325674999978,
                    "velocity": 0.48031496062992124,
                    "duration": 0.1030857499999911
                },
                {
                    "name": "E4",
                    "midi": 64,
                    "time": 163.90634249999977,
                    "velocity": 0.48031496062992124,
                    "duration": 0.1030857499999911
                },
                {
                    "name": "A3",
                    "midi": 57,
                    "time": 164.00942824999976,
                    "velocity": 0.48031496062992124,
                    "duration": 0.1030857499999911
                },
                {
                    "name": "A#5",
                    "midi": 82,
                    "time": 164.11251399999975,
                    "velocity": 0.5433070866141733,
                    "duration": 0.1030857499999911
                },
                {
                    "name": "E5",
                    "midi": 76,
                    "time": 164.21559974999974,
                    "velocity": 0.4881889763779528,
                    "duration": 0.1030857499999911
                },
                {
                    "name": "F5",
                    "midi": 77,
                    "time": 164.31868549999973,
                    "velocity": 0.4881889763779528,
                    "duration": 0.1030857499999911
                },
                {
                    "name": "A#4",
                    "midi": 70,
                    "time": 164.42177124999972,
                    "velocity": 0.4881889763779528,
                    "duration": 0.1030857499999911
                },
                {
                    "name": "A#4",
                    "midi": 70,
                    "time": 164.5248569999997,
                    "velocity": 0.5196850393700787,
                    "duration": 0.1030857499999911
                },
                {
                    "name": "E4",
                    "midi": 64,
                    "time": 164.6279427499997,
                    "velocity": 0.4881889763779528,
                    "duration": 0.1030857499999911
                },
                {
                    "name": "F4",
                    "midi": 65,
                    "time": 164.7310284999997,
                    "velocity": 0.4881889763779528,
                    "duration": 0.1030857499999911
                },
                {
                    "name": "A#3",
                    "midi": 58,
                    "time": 164.8341142499997,
                    "velocity": 0.49606299212598426,
                    "duration": 0.1030857499999911
                },
                {
                    "name": "C#6",
                    "midi": 85,
                    "time": 164.93719999999968,
                    "velocity": 0.5669291338582677,
                    "duration": 0.1030857499999911
                },
                {
                    "name": "F#5",
                    "midi": 78,
                    "time": 165.04028574999967,
                    "velocity": 0.49606299212598426,
                    "duration": 0.1030857499999911
                },
                {
                    "name": "G5",
                    "midi": 79,
                    "time": 165.14337149999966,
                    "velocity": 0.5039370078740157,
                    "duration": 0.1030857499999911
                },
                {
                    "name": "C#5",
                    "midi": 73,
                    "time": 165.24645724999965,
                    "velocity": 0.5039370078740157,
                    "duration": 0.1030857499999911
                },
                {
                    "name": "C#5",
                    "midi": 73,
                    "time": 165.34954299999964,
                    "velocity": 0.5511811023622047,
                    "duration": 0.1030857499999911
                },
                {
                    "name": "F#4",
                    "midi": 66,
                    "time": 165.45262874999963,
                    "velocity": 0.5039370078740157,
                    "duration": 0.1030857499999911
                },
                {
                    "name": "G4",
                    "midi": 67,
                    "time": 165.55571449999962,
                    "velocity": 0.49606299212598426,
                    "duration": 0.1030857499999911
                },
                {
                    "name": "C#4",
                    "midi": 61,
                    "time": 165.65880024999962,
                    "velocity": 0.49606299212598426,
                    "duration": 0.1030857499999911
                },
                {
                    "name": "D6",
                    "midi": 86,
                    "time": 165.7618859999996,
                    "velocity": 0.5905511811023622,
                    "duration": 0.1030857499999911
                },
                {
                    "name": "G#5",
                    "midi": 80,
                    "time": 165.8649717499996,
                    "velocity": 0.49606299212598426,
                    "duration": 0.1030857499999911
                },
                {
                    "name": "A5",
                    "midi": 81,
                    "time": 165.9680574999996,
                    "velocity": 0.5039370078740157,
                    "duration": 0.1030857499999911
                },
                {
                    "name": "D5",
                    "midi": 74,
                    "time": 166.07114324999958,
                    "velocity": 0.5039370078740157,
                    "duration": 0.1030857499999911
                },
                {
                    "name": "D5",
                    "midi": 74,
                    "time": 166.17422899999957,
                    "velocity": 0.5433070866141733,
                    "duration": 0.1030857499999911
                },
                {
                    "name": "G#4",
                    "midi": 68,
                    "time": 166.27731474999956,
                    "velocity": 0.5039370078740157,
                    "duration": 0.1030857499999911
                },
                {
                    "name": "A4",
                    "midi": 69,
                    "time": 166.38040049999955,
                    "velocity": 0.5039370078740157,
                    "duration": 0.1030857499999911
                },
                {
                    "name": "D4",
                    "midi": 62,
                    "time": 166.48348624999954,
                    "velocity": 0.5039370078740157,
                    "duration": 0.1030857499999911
                },
                {
                    "name": "F6",
                    "midi": 89,
                    "time": 166.58657199999953,
                    "velocity": 0.5984251968503937,
                    "duration": 0.1030857499999911
                },
                {
                    "name": "C#6",
                    "midi": 85,
                    "time": 166.68965774999953,
                    "velocity": 0.5118110236220472,
                    "duration": 0.1030857499999911
                },
                {
                    "name": "D6",
                    "midi": 86,
                    "time": 166.79274349999952,
                    "velocity": 0.5118110236220472,
                    "duration": 0.1030857499999911
                },
                {
                    "name": "F5",
                    "midi": 77,
                    "time": 166.8958292499995,
                    "velocity": 0.5118110236220472,
                    "duration": 0.1030857499999911
                },
                {
                    "name": "F6",
                    "midi": 89,
                    "time": 166.9989149999995,
                    "velocity": 0.5590551181102362,
                    "duration": 0.1030857499999911
                },
                {
                    "name": "C#6",
                    "midi": 85,
                    "time": 167.1020007499995,
                    "velocity": 0.5196850393700787,
                    "duration": 0.1030857499999911
                },
                {
                    "name": "D6",
                    "midi": 86,
                    "time": 167.20508649999948,
                    "velocity": 0.5196850393700787,
                    "duration": 0.1030857499999911
                },
                {
                    "name": "F5",
                    "midi": 77,
                    "time": 167.30817224999947,
                    "velocity": 0.5196850393700787,
                    "duration": 0.1030857499999911
                },
                {
                    "name": "F6",
                    "midi": 89,
                    "time": 167.41125799999946,
                    "velocity": 0.5511811023622047,
                    "duration": 0.1030857499999911
                },
                {
                    "name": "C#6",
                    "midi": 85,
                    "time": 167.51434374999945,
                    "velocity": 0.48031496062992124,
                    "duration": 0.1030857499999911
                },
                {
                    "name": "D6",
                    "midi": 86,
                    "time": 167.61742949999945,
                    "velocity": 0.48031496062992124,
                    "duration": 0.1030857499999911
                },
                {
                    "name": "F5",
                    "midi": 77,
                    "time": 167.72051524999944,
                    "velocity": 0.48031496062992124,
                    "duration": 0.1030857499999911
                },
                {
                    "name": "G#5",
                    "midi": 80,
                    "time": 167.82360099999943,
                    "velocity": 0.5039370078740157,
                    "duration": 0.1030857499999911
                },
                {
                    "name": "B5",
                    "midi": 83,
                    "time": 167.92668674999942,
                    "velocity": 0.4566929133858268,
                    "duration": 0.1030857499999911
                },
                {
                    "name": "D6",
                    "midi": 86,
                    "time": 168.0297724999994,
                    "velocity": 0.4566929133858268,
                    "duration": 0.1030857499999911
                },
                {
                    "name": "F6",
                    "midi": 89,
                    "time": 168.1328582499994,
                    "velocity": 0.4566929133858268,
                    "duration": 0.1030857499999911
                },
                {
                    "name": "E6",
                    "midi": 88,
                    "time": 168.2359439999994,
                    "velocity": 0.48031496062992124,
                    "duration": 0.4123429999999928
                },
                {
                    "name": "E5",
                    "midi": 76,
                    "time": 168.2359439999994,
                    "velocity": 0.4015748031496063,
                    "duration": 0.4123429999999928
                },
                {
                    "name": "D5",
                    "midi": 74,
                    "time": 168.64828699999939,
                    "velocity": 0.3937007874015748,
                    "duration": 0.3092572500000017
                },
                {
                    "name": "D6",
                    "midi": 86,
                    "time": 168.64828699999939,
                    "velocity": 0.4645669291338583,
                    "duration": 0.3092572500000017
                },
                {
                    "name": "C5",
                    "midi": 72,
                    "time": 168.9575442499994,
                    "velocity": 0.3228346456692913,
                    "duration": 0.1030857499999911
                },
                {
                    "name": "C6",
                    "midi": 84,
                    "time": 168.9575442499994,
                    "velocity": 0.3858267716535433,
                    "duration": 0.1030857499999911
                },
                {
                    "name": "C6",
                    "midi": 84,
                    "time": 169.06062999999938,
                    "velocity": 0.4251968503937008,
                    "duration": 0.4123429999999928
                },
                {
                    "name": "C5",
                    "midi": 72,
                    "time": 169.06062999999938,
                    "velocity": 0.3543307086614173,
                    "duration": 0.4123429999999928
                },
                {
                    "name": "B4",
                    "midi": 71,
                    "time": 169.47297299999937,
                    "velocity": 0.33070866141732286,
                    "duration": 0.4123429999999928
                },
                {
                    "name": "B5",
                    "midi": 83,
                    "time": 169.47297299999937,
                    "velocity": 0.3937007874015748,
                    "duration": 0.4123429999999928
                },
                {
                    "name": "E6",
                    "midi": 88,
                    "time": 169.88531599999936,
                    "velocity": 0.33858267716535434,
                    "duration": 0.4123429999999928
                },
                {
                    "name": "E5",
                    "midi": 76,
                    "time": 169.88531599999936,
                    "velocity": 0.28346456692913385,
                    "duration": 0.4123429999999928
                },
                {
                    "name": "D5",
                    "midi": 74,
                    "time": 170.29765899999936,
                    "velocity": 0.28346456692913385,
                    "duration": 0.3092572500000017
                },
                {
                    "name": "D6",
                    "midi": 86,
                    "time": 170.29765899999936,
                    "velocity": 0.33070866141732286,
                    "duration": 0.3092572500000017
                },
                {
                    "name": "C5",
                    "midi": 72,
                    "time": 170.60691624999936,
                    "velocity": 0.2204724409448819,
                    "duration": 0.1030857499999911
                },
                {
                    "name": "C6",
                    "midi": 84,
                    "time": 170.60691624999936,
                    "velocity": 0.2755905511811024,
                    "duration": 0.1030857499999911
                },
                {
                    "name": "C6",
                    "midi": 84,
                    "time": 170.71000199999935,
                    "velocity": 0.2992125984251969,
                    "duration": 0.4123429999999928
                },
                {
                    "name": "C5",
                    "midi": 72,
                    "time": 170.71000199999935,
                    "velocity": 0.25196850393700787,
                    "duration": 0.4123429999999928
                },
                {
                    "name": "B4",
                    "midi": 71,
                    "time": 171.12234499999934,
                    "velocity": 0.2283464566929134,
                    "duration": 0.4123429999999928
                },
                {
                    "name": "B5",
                    "midi": 83,
                    "time": 171.12234499999934,
                    "velocity": 0.28346456692913385,
                    "duration": 0.4123429999999928
                },
                {
                    "name": "A5",
                    "midi": 81,
                    "time": 171.53468799999933,
                    "velocity": 0.5433070866141733,
                    "duration": 0.1030857499999911
                },
                {
                    "name": "D#5",
                    "midi": 75,
                    "time": 171.63777374999933,
                    "velocity": 0.48031496062992124,
                    "duration": 0.1030857499999911
                },
                {
                    "name": "E5",
                    "midi": 76,
                    "time": 171.74085949999932,
                    "velocity": 0.48031496062992124,
                    "duration": 0.1030857499999911
                },
                {
                    "name": "A4",
                    "midi": 69,
                    "time": 171.8439452499993,
                    "velocity": 0.48031496062992124,
                    "duration": 0.09707241458332305
                },
                {
                    "name": "A4",
                    "midi": 69,
                    "time": 171.9470309999993,
                    "velocity": 0.5196850393700787,
                    "duration": 0.1030857499999911
                },
                {
                    "name": "D#4",
                    "midi": 63,
                    "time": 172.0501167499993,
                    "velocity": 0.48031496062992124,
                    "duration": 0.1030857499999911
                },
                {
                    "name": "E4",
                    "midi": 64,
                    "time": 172.15320249999928,
                    "velocity": 0.48031496062992124,
                    "duration": 0.1030857499999911
                },
                {
                    "name": "A3",
                    "midi": 57,
                    "time": 172.25628824999927,
                    "velocity": 0.48031496062992124,
                    "duration": 0.1030857499999911
                },
                {
                    "name": "A#5",
                    "midi": 82,
                    "time": 172.35937399999926,
                    "velocity": 0.5354330708661418,
                    "duration": 0.1030857499999911
                },
                {
                    "name": "E5",
                    "midi": 76,
                    "time": 172.46245974999925,
                    "velocity": 0.48031496062992124,
                    "duration": 0.1030857499999911
                },
                {
                    "name": "F5",
                    "midi": 77,
                    "time": 172.56554549999925,
                    "velocity": 0.4881889763779528,
                    "duration": 0.1030857499999911
                },
                {
                    "name": "A#4",
                    "midi": 70,
                    "time": 172.66863124999924,
                    "velocity": 0.4881889763779528,
                    "duration": 0.09621336666666025
                },
                {
                    "name": "A#4",
                    "midi": 70,
                    "time": 172.77171699999923,
                    "velocity": 0.5196850393700787,
                    "duration": 0.1030857499999911
                },
                {
                    "name": "E4",
                    "midi": 64,
                    "time": 172.87480274999922,
                    "velocity": 0.4881889763779528,
                    "duration": 0.1030857499999911
                },
                {
                    "name": "F4",
                    "midi": 65,
                    "time": 172.9778884999992,
                    "velocity": 0.4881889763779528,
                    "duration": 0.1030857499999911
                },
                {
                    "name": "A#3",
                    "midi": 58,
                    "time": 173.0809742499992,
                    "velocity": 0.4881889763779528,
                    "duration": 0.1030857499999911
                },
                {
                    "name": "C#6",
                    "midi": 85,
                    "time": 173.1840599999992,
                    "velocity": 0.5669291338582677,
                    "duration": 0.1030857499999911
                },
                {
                    "name": "F#5",
                    "midi": 78,
                    "time": 173.28714574999918,
                    "velocity": 0.4881889763779528,
                    "duration": 0.1030857499999911
                },
                {
                    "name": "G5",
                    "midi": 79,
                    "time": 173.39023149999917,
                    "velocity": 0.4881889763779528,
                    "duration": 0.1030857499999911
                },
                {
                    "name": "C#5",
                    "midi": 73,
                    "time": 173.49331724999917,
                    "velocity": 0.4881889763779528,
                    "duration": 0.09707241458332305
                },
                {
                    "name": "C#5",
                    "midi": 73,
                    "time": 173.59640299999916,
                    "velocity": 0.5433070866141733,
                    "duration": 0.1030857499999911
                },
                {
                    "name": "F#4",
                    "midi": 66,
                    "time": 173.69948874999915,
                    "velocity": 0.49606299212598426,
                    "duration": 0.1030857499999911
                },
                {
                    "name": "G4",
                    "midi": 67,
                    "time": 173.80257449999914,
                    "velocity": 0.4881889763779528,
                    "duration": 0.1030857499999911
                },
                {
                    "name": "C#4",
                    "midi": 61,
                    "time": 173.90566024999913,
                    "velocity": 0.4881889763779528,
                    "duration": 0.1030857499999911
                },
                {
                    "name": "D6",
                    "midi": 86,
                    "time": 174.00874599999912,
                    "velocity": 0.5826771653543307,
                    "duration": 0.1030857499999911
                },
                {
                    "name": "G#5",
                    "midi": 80,
                    "time": 174.1118317499991,
                    "velocity": 0.49606299212598426,
                    "duration": 0.1030857499999911
                },
                {
                    "name": "A5",
                    "midi": 81,
                    "time": 174.2149174999991,
                    "velocity": 0.49606299212598426,
                    "duration": 0.1030857499999911
                },
                {
                    "name": "D5",
                    "midi": 74,
                    "time": 174.3180032499991,
                    "velocity": 0.49606299212598426,
                    "duration": 0.09707241458332305
                },
                {
                    "name": "D5",
                    "midi": 74,
                    "time": 174.42108899999909,
                    "velocity": 0.5354330708661418,
                    "duration": 0.1030857499999911
                },
                {
                    "name": "G#4",
                    "midi": 68,
                    "time": 174.52417474999908,
                    "velocity": 0.49606299212598426,
                    "duration": 0.1030857499999911
                },
                {
                    "name": "A4",
                    "midi": 69,
                    "time": 174.62726049999907,
                    "velocity": 0.49606299212598426,
                    "duration": 0.1030857499999911
                },
                {
                    "name": "D4",
                    "midi": 62,
                    "time": 174.73034624999906,
                    "velocity": 0.49606299212598426,
                    "duration": 0.1030857499999911
                },
                {
                    "name": "E6",
                    "midi": 88,
                    "time": 174.83343199999905,
                    "velocity": 0.5826771653543307,
                    "duration": 0.1030857499999911
                },
                {
                    "name": "A#5",
                    "midi": 82,
                    "time": 174.93651774999904,
                    "velocity": 0.5039370078740157,
                    "duration": 0.1030857499999911
                },
                {
                    "name": "B5",
                    "midi": 83,
                    "time": 175.03960349999903,
                    "velocity": 0.5118110236220472,
                    "duration": 0.1030857499999911
                },
                {
                    "name": "E5",
                    "midi": 76,
                    "time": 175.14268924999902,
                    "velocity": 0.5118110236220472,
                    "duration": 0.09535431874999745
                },
                {
                    "name": "E5",
                    "midi": 76,
                    "time": 175.245774999999,
                    "velocity": 0.5590551181102362,
                    "duration": 0.1030857499999911
                },
                {
                    "name": "A#4",
                    "midi": 70,
                    "time": 175.348860749999,
                    "velocity": 0.5118110236220472,
                    "duration": 0.1030857499999911
                },
                {
                    "name": "B4",
                    "midi": 71,
                    "time": 175.451946499999,
                    "velocity": 0.5039370078740157,
                    "duration": 0.1030857499999911
                },
                {
                    "name": "E4",
                    "midi": 64,
                    "time": 175.555032249999,
                    "velocity": 0.5039370078740157,
                    "duration": 0.1030857499999911
                },
                {
                    "name": "F6",
                    "midi": 89,
                    "time": 175.65811799999898,
                    "velocity": 0.5984251968503937,
                    "duration": 0.1030857499999911
                },
                {
                    "name": "B5",
                    "midi": 83,
                    "time": 175.76120374999897,
                    "velocity": 0.5039370078740157,
                    "duration": 0.1030857499999911
                },
                {
                    "name": "C6",
                    "midi": 84,
                    "time": 175.86428949999896,
                    "velocity": 0.5039370078740157,
                    "duration": 0.1030857499999911
                },
                {
                    "name": "F5",
                    "midi": 77,
                    "time": 175.96737524999895,
                    "velocity": 0.5039370078740157,
                    "duration": 0.09363622291667184
                },
                {
                    "name": "F5",
                    "midi": 77,
                    "time": 176.07046099999894,
                    "velocity": 0.5511811023622047,
                    "duration": 0.1030857499999911
                },
                {
                    "name": "B4",
                    "midi": 71,
                    "time": 176.17354674999893,
                    "velocity": 0.5118110236220472,
                    "duration": 0.1030857499999911
                },
                {
                    "name": "C5",
                    "midi": 72,
                    "time": 176.27663249999893,
                    "velocity": 0.5118110236220472,
                    "duration": 0.1030857499999911
                },
                {
                    "name": "F4",
                    "midi": 65,
                    "time": 176.37971824999892,
                    "velocity": 0.5118110236220472,
                    "duration": 0.1030857499999911
                },
                {
                    "name": "G#5",
                    "midi": 80,
                    "time": 176.4828039999989,
                    "velocity": 0.6377952755905512,
                    "duration": 0.2061715000000106
                },
                {
                    "name": "G#6",
                    "midi": 92,
                    "time": 176.4828039999989,
                    "velocity": 0.6929133858267716,
                    "duration": 0.2061715000000106
                },
                {
                    "name": "G6",
                    "midi": 91,
                    "time": 176.68897549999892,
                    "velocity": 0.6377952755905512,
                    "duration": 0.1030857499999911
                },
                {
                    "name": "F6",
                    "midi": 89,
                    "time": 176.7920612499989,
                    "velocity": 0.6299212598425197,
                    "duration": 0.1030857499999911
                },
                {
                    "name": "D#6",
                    "midi": 87,
                    "time": 176.8951469999989,
                    "velocity": 0.6220472440944882,
                    "duration": 0.1030857499999911
                },
                {
                    "name": "D6",
                    "midi": 86,
                    "time": 176.9982327499989,
                    "velocity": 0.6141732283464567,
                    "duration": 0.1030857499999911
                },
                {
                    "name": "C6",
                    "midi": 84,
                    "time": 177.10131849999888,
                    "velocity": 0.6062992125984252,
                    "duration": 0.1030857499999911
                },
                {
                    "name": "A#5",
                    "midi": 82,
                    "time": 177.20440424999887,
                    "velocity": 0.5984251968503937,
                    "duration": 0.1030857499999911
                },
                {
                    "name": "G#5",
                    "midi": 80,
                    "time": 177.30748999999886,
                    "velocity": 0.5905511811023622,
                    "duration": 0.1030857499999911
                },
                {
                    "name": "G5",
                    "midi": 79,
                    "time": 177.41057574999886,
                    "velocity": 0.5826771653543307,
                    "duration": 0.1030857499999911
                },
                {
                    "name": "F5",
                    "midi": 77,
                    "time": 177.51366149999885,
                    "velocity": 0.5748031496062992,
                    "duration": 0.1030857499999911
                },
                {
                    "name": "D#5",
                    "midi": 75,
                    "time": 177.61674724999884,
                    "velocity": 0.5669291338582677,
                    "duration": 0.1030857499999911
                },
                {
                    "name": "D5",
                    "midi": 74,
                    "time": 177.71983299999883,
                    "velocity": 0.5669291338582677,
                    "duration": 0.1030857499999911
                },
                {
                    "name": "C5",
                    "midi": 72,
                    "time": 177.82291874999882,
                    "velocity": 0.5590551181102362,
                    "duration": 0.1030857499999911
                },
                {
                    "name": "A#4",
                    "midi": 70,
                    "time": 177.9260044999988,
                    "velocity": 0.5511811023622047,
                    "duration": 0.1030857499999911
                },
                {
                    "name": "A4",
                    "midi": 69,
                    "time": 178.0290902499988,
                    "velocity": 0.5433070866141733,
                    "duration": 0.1030857499999911
                },
                {
                    "name": "G#4",
                    "midi": 68,
                    "time": 178.1321759999988,
                    "velocity": 0.5354330708661418,
                    "duration": 0.1030857499999911
                },
                {
                    "name": "G4",
                    "midi": 67,
                    "time": 178.23526174999878,
                    "velocity": 0.5196850393700787,
                    "duration": 0.1030857499999911
                },
                {
                    "name": "F4",
                    "midi": 65,
                    "time": 178.33834749999878,
                    "velocity": 0.5118110236220472,
                    "duration": 0.1030857499999911
                },
                {
                    "name": "D#4",
                    "midi": 63,
                    "time": 178.44143324999877,
                    "velocity": 0.5039370078740157,
                    "duration": 0.1030857499999911
                },
                {
                    "name": "D4",
                    "midi": 62,
                    "time": 178.54451899999876,
                    "velocity": 0.49606299212598426,
                    "duration": 0.1030857499999911
                },
                {
                    "name": "C4",
                    "midi": 60,
                    "time": 178.64760474999875,
                    "velocity": 0.4881889763779528,
                    "duration": 0.1030857499999911
                },
                {
                    "name": "A#3",
                    "midi": 58,
                    "time": 178.75069049999874,
                    "velocity": 0.48031496062992124,
                    "duration": 0.1030857499999911
                },
                {
                    "name": "G#3",
                    "midi": 56,
                    "time": 178.85377624999873,
                    "velocity": 0.47244094488188976,
                    "duration": 0.1030857499999911
                },
                {
                    "name": "A3",
                    "midi": 57,
                    "time": 178.95686199999872,
                    "velocity": 0.4645669291338583,
                    "duration": 0.1030857499999911
                },
                {
                    "name": "A#3",
                    "midi": 58,
                    "time": 179.0599477499987,
                    "velocity": 0.4645669291338583,
                    "duration": 0.1030857499999911
                },
                {
                    "name": "C4",
                    "midi": 60,
                    "time": 179.1630334999987,
                    "velocity": 0.4566929133858268,
                    "duration": 0.1030857499999911
                },
                {
                    "name": "A#3",
                    "midi": 58,
                    "time": 179.2661192499987,
                    "velocity": 0.44881889763779526,
                    "duration": 0.1030857499999911
                },
                {
                    "name": "A3",
                    "midi": 57,
                    "time": 179.3692049999987,
                    "velocity": 0.4409448818897638,
                    "duration": 0.1030857499999911
                },
                {
                    "name": "A#3",
                    "midi": 58,
                    "time": 179.47229074999868,
                    "velocity": 0.4330708661417323,
                    "duration": 0.1030857499999911
                },
                {
                    "name": "C4",
                    "midi": 60,
                    "time": 179.57537649999867,
                    "velocity": 0.4251968503937008,
                    "duration": 0.1030857499999911
                },
                {
                    "name": "A#3",
                    "midi": 58,
                    "time": 179.67846224999866,
                    "velocity": 0.41732283464566927,
                    "duration": 0.1030857499999911
                },
                {
                    "name": "A3",
                    "midi": 57,
                    "time": 179.78154799999865,
                    "velocity": 0.41732283464566927,
                    "duration": 0.13744766666667374
                },
                {
                    "name": "C4",
                    "midi": 60,
                    "time": 179.91899566666532,
                    "velocity": 0.36220472440944884,
                    "duration": 0.13744766666667374
                },
                {
                    "name": "A#3",
                    "midi": 58,
                    "time": 180.056443333332,
                    "velocity": 0.36220472440944884,
                    "duration": 0.13744766666667374
                },
                {
                    "name": "A3",
                    "midi": 57,
                    "time": 180.19389099999867,
                    "velocity": 0.4015748031496063,
                    "duration": 0.13744766666667374
                },
                {
                    "name": "C4",
                    "midi": 60,
                    "time": 180.33133866666535,
                    "velocity": 0.3543307086614173,
                    "duration": 0.13744766666667374
                },
                {
                    "name": "A#3",
                    "midi": 58,
                    "time": 180.46878633333202,
                    "velocity": 0.3543307086614173,
                    "duration": 0.13744766666667374
                },
                {
                    "name": "A3",
                    "midi": 57,
                    "time": 180.6062339999987,
                    "velocity": 0.41732283464566927,
                    "duration": 0.13744766666667374
                },
                {
                    "name": "C4",
                    "midi": 60,
                    "time": 180.74368166666537,
                    "velocity": 0.33070866141732286,
                    "duration": 0.13744766666667374
                },
                {
                    "name": "A#3",
                    "midi": 58,
                    "time": 180.88112933333204,
                    "velocity": 0.33070866141732286,
                    "duration": 0.13744766666667374
                },
                {
                    "name": "A3",
                    "midi": 57,
                    "time": 181.01857699999871,
                    "velocity": 0.3858267716535433,
                    "duration": 0.13744766666667374
                },
                {
                    "name": "C4",
                    "midi": 60,
                    "time": 181.1560246666654,
                    "velocity": 0.2992125984251969,
                    "duration": 0.13744766666667374
                },
                {
                    "name": "A#3",
                    "midi": 58,
                    "time": 181.29347233333206,
                    "velocity": 0.2992125984251969,
                    "duration": 0.13744766666667374
                },
                {
                    "name": "A3",
                    "midi": 57,
                    "time": 181.43091999999874,
                    "velocity": 0.28346456692913385,
                    "duration": 0.2061715000000106
                },
                {
                    "name": "A4",
                    "midi": 69,
                    "time": 181.43091999999874,
                    "velocity": 0.3464566929133858,
                    "duration": 0.2061715000000106
                },
                {
                    "name": "C4",
                    "midi": 60,
                    "time": 181.63709149999875,
                    "velocity": 0.23622047244094488,
                    "duration": 0.2061715000000106
                },
                {
                    "name": "C5",
                    "midi": 72,
                    "time": 181.63709149999875,
                    "velocity": 0.28346456692913385,
                    "duration": 0.2061715000000106
                },
                {
                    "name": "A#3",
                    "midi": 58,
                    "time": 181.84326299999876,
                    "velocity": 0.23622047244094488,
                    "duration": 0.4123429999999928
                },
                {
                    "name": "A#4",
                    "midi": 70,
                    "time": 181.84326299999876,
                    "velocity": 0.28346456692913385,
                    "duration": 0.4123429999999928
                },
                {
                    "name": "A3",
                    "midi": 57,
                    "time": 182.25560599999875,
                    "velocity": 0.2755905511811024,
                    "duration": 0.2061715000000106
                },
                {
                    "name": "A4",
                    "midi": 69,
                    "time": 182.25560599999875,
                    "velocity": 0.33070866141732286,
                    "duration": 0.2061715000000106
                },
                {
                    "name": "C4",
                    "midi": 60,
                    "time": 182.46177749999876,
                    "velocity": 0.2283464566929134,
                    "duration": 0.2061715000000106
                },
                {
                    "name": "C5",
                    "midi": 72,
                    "time": 182.46177749999876,
                    "velocity": 0.2755905511811024,
                    "duration": 0.2061715000000106
                },
                {
                    "name": "A#3",
                    "midi": 58,
                    "time": 182.66794899999877,
                    "velocity": 0.2283464566929134,
                    "duration": 0.4123429999999928
                },
                {
                    "name": "A#4",
                    "midi": 70,
                    "time": 182.66794899999877,
                    "velocity": 0.2755905511811024,
                    "duration": 0.4123429999999928
                },
                {
                    "name": "A4",
                    "midi": 69,
                    "time": 183.08029199999876,
                    "velocity": 0.3464566929133858,
                    "duration": 0.2061715000000106
                },
                {
                    "name": "C5",
                    "midi": 72,
                    "time": 183.28646349999877,
                    "velocity": 0.30708661417322836,
                    "duration": 0.2061715000000106
                },
                {
                    "name": "A#4",
                    "midi": 70,
                    "time": 183.49263499999878,
                    "velocity": 0.3937007874015748,
                    "duration": 0.6185145000000034
                },
                {
                    "name": "C5",
                    "midi": 72,
                    "time": 184.1111494999988,
                    "velocity": 0.36220472440944884,
                    "duration": 0.2061715000000106
                },
                {
                    "name": "D5",
                    "midi": 74,
                    "time": 184.3173209999988,
                    "velocity": 0.3779527559055118,
                    "duration": 0.2061715000000106
                },
                {
                    "name": "D#5",
                    "midi": 75,
                    "time": 184.5234924999988,
                    "velocity": 0.3937007874015748,
                    "duration": 0.2061715000000106
                },
                {
                    "name": "A4",
                    "midi": 69,
                    "time": 184.72966399999882,
                    "velocity": 0.4094488188976378,
                    "duration": 0.2061715000000106
                },
                {
                    "name": "C5",
                    "midi": 72,
                    "time": 184.93583549999883,
                    "velocity": 0.3858267716535433,
                    "duration": 0.2061715000000106
                },
                {
                    "name": "A#4",
                    "midi": 70,
                    "time": 185.14200699999884,
                    "velocity": 0.41732283464566927,
                    "duration": 0.6185145000000034
                },
                {
                    "name": "C5",
                    "midi": 72,
                    "time": 185.76052149999884,
                    "velocity": 0.3700787401574803,
                    "duration": 0.2061715000000106
                },
                {
                    "name": "D5",
                    "midi": 74,
                    "time": 185.96669299999886,
                    "velocity": 0.3858267716535433,
                    "duration": 0.2061715000000106
                },
                {
                    "name": "D#5",
                    "midi": 75,
                    "time": 186.17286449999887,
                    "velocity": 0.4094488188976378,
                    "duration": 0.2061715000000106
                },
                {
                    "name": "E5",
                    "midi": 76,
                    "time": 186.37903599999888,
                    "velocity": 0.44881889763779526,
                    "duration": 0.2061715000000106
                },
                {
                    "name": "G5",
                    "midi": 79,
                    "time": 186.5852074999989,
                    "velocity": 0.4330708661417323,
                    "duration": 0.2061715000000106
                },
                {
                    "name": "F5",
                    "midi": 77,
                    "time": 186.7913789999989,
                    "velocity": 0.4566929133858268,
                    "duration": 0.6185145000000034
                },
                {
                    "name": "D5",
                    "midi": 74,
                    "time": 187.4098934999989,
                    "velocity": 0.4330708661417323,
                    "duration": 0.2061715000000106
                },
                {
                    "name": "C5",
                    "midi": 72,
                    "time": 187.6160649999989,
                    "velocity": 0.41732283464566927,
                    "duration": 0.2061715000000106
                },
                {
                    "name": "A#4",
                    "midi": 70,
                    "time": 187.82223649999892,
                    "velocity": 0.41732283464566927,
                    "duration": 0.2061715000000106
                },
                {
                    "name": "E5",
                    "midi": 76,
                    "time": 188.02840799999893,
                    "velocity": 0.44881889763779526,
                    "duration": 0.2061715000000106
                },
                {
                    "name": "G5",
                    "midi": 79,
                    "time": 188.23457949999894,
                    "velocity": 0.41732283464566927,
                    "duration": 0.2061715000000106
                },
                {
                    "name": "F5",
                    "midi": 77,
                    "time": 188.44075099999895,
                    "velocity": 0.4566929133858268,
                    "duration": 0.6185145000000034
                },
                {
                    "name": "D5",
                    "midi": 74,
                    "time": 189.05926549999896,
                    "velocity": 0.4330708661417323,
                    "duration": 0.2061715000000106
                },
                {
                    "name": "C5",
                    "midi": 72,
                    "time": 189.26543699999897,
                    "velocity": 0.41732283464566927,
                    "duration": 0.2061715000000106
                },
                {
                    "name": "A#4",
                    "midi": 70,
                    "time": 189.47160849999898,
                    "velocity": 0.41732283464566927,
                    "duration": 0.2061715000000106
                },
                {
                    "name": "A5",
                    "midi": 81,
                    "time": 189.677779999999,
                    "velocity": 0.4330708661417323,
                    "duration": 0.2061715000000106
                },
                {
                    "name": "A4",
                    "midi": 69,
                    "time": 189.677779999999,
                    "velocity": 0.36220472440944884,
                    "duration": 0.2061715000000106
                },
                {
                    "name": "C6",
                    "midi": 84,
                    "time": 189.883951499999,
                    "velocity": 0.4015748031496063,
                    "duration": 0.2061715000000106
                },
                {
                    "name": "C5",
                    "midi": 72,
                    "time": 189.883951499999,
                    "velocity": 0.33070866141732286,
                    "duration": 0.2061715000000106
                },
                {
                    "name": "A#5",
                    "midi": 82,
                    "time": 190.090122999999,
                    "velocity": 0.4566929133858268,
                    "duration": 0.6185145000000034
                },
                {
                    "name": "A#4",
                    "midi": 70,
                    "time": 190.090122999999,
                    "velocity": 0.3858267716535433,
                    "duration": 0.6185145000000034
                },
                {
                    "name": "C6",
                    "midi": 84,
                    "time": 190.708637499999,
                    "velocity": 0.3937007874015748,
                    "duration": 0.2061715000000106
                },
                {
                    "name": "C5",
                    "midi": 72,
                    "time": 190.708637499999,
                    "velocity": 0.33070866141732286,
                    "duration": 0.2061715000000106
                },
                {
                    "name": "D6",
                    "midi": 86,
                    "time": 190.91480899999902,
                    "velocity": 0.4094488188976378,
                    "duration": 0.2061715000000106
                },
                {
                    "name": "D5",
                    "midi": 74,
                    "time": 190.91480899999902,
                    "velocity": 0.3464566929133858,
                    "duration": 0.2061715000000106
                },
                {
                    "name": "D#6",
                    "midi": 87,
                    "time": 191.12098049999904,
                    "velocity": 0.4330708661417323,
                    "duration": 0.2061715000000106
                },
                {
                    "name": "D#5",
                    "midi": 75,
                    "time": 191.12098049999904,
                    "velocity": 0.36220472440944884,
                    "duration": 0.2061715000000106
                },
                {
                    "name": "A5",
                    "midi": 81,
                    "time": 191.32715199999905,
                    "velocity": 0.44881889763779526,
                    "duration": 0.2061715000000106
                },
                {
                    "name": "A4",
                    "midi": 69,
                    "time": 191.32715199999905,
                    "velocity": 0.3779527559055118,
                    "duration": 0.2061715000000106
                },
                {
                    "name": "C6",
                    "midi": 84,
                    "time": 191.53332349999906,
                    "velocity": 0.41732283464566927,
                    "duration": 0.2061715000000106
                },
                {
                    "name": "C5",
                    "midi": 72,
                    "time": 191.53332349999906,
                    "velocity": 0.3543307086614173,
                    "duration": 0.2061715000000106
                },
                {
                    "name": "A#5",
                    "midi": 82,
                    "time": 191.73949499999907,
                    "velocity": 0.4566929133858268,
                    "duration": 0.6185145000000034
                },
                {
                    "name": "A#4",
                    "midi": 70,
                    "time": 191.73949499999907,
                    "velocity": 0.3858267716535433,
                    "duration": 0.6185145000000034
                },
                {
                    "name": "C6",
                    "midi": 84,
                    "time": 192.35800949999907,
                    "velocity": 0.4015748031496063,
                    "duration": 0.2061715000000106
                },
                {
                    "name": "C5",
                    "midi": 72,
                    "time": 192.35800949999907,
                    "velocity": 0.33070866141732286,
                    "duration": 0.2061715000000106
                },
                {
                    "name": "D6",
                    "midi": 86,
                    "time": 192.56418099999908,
                    "velocity": 0.41732283464566927,
                    "duration": 0.2061715000000106
                },
                {
                    "name": "D5",
                    "midi": 74,
                    "time": 192.56418099999908,
                    "velocity": 0.3543307086614173,
                    "duration": 0.2061715000000106
                },
                {
                    "name": "D#6",
                    "midi": 87,
                    "time": 192.7703524999991,
                    "velocity": 0.44881889763779526,
                    "duration": 0.2061715000000106
                },
                {
                    "name": "D#5",
                    "midi": 75,
                    "time": 192.7703524999991,
                    "velocity": 0.3779527559055118,
                    "duration": 0.2061715000000106
                },
                {
                    "name": "E6",
                    "midi": 88,
                    "time": 192.9765239999991,
                    "velocity": 0.4881889763779528,
                    "duration": 0.2061715000000106
                },
                {
                    "name": "E5",
                    "midi": 76,
                    "time": 192.9765239999991,
                    "velocity": 0.4094488188976378,
                    "duration": 0.2061715000000106
                },
                {
                    "name": "G6",
                    "midi": 91,
                    "time": 193.1826954999991,
                    "velocity": 0.4409448818897638,
                    "duration": 0.2061715000000106
                },
                {
                    "name": "G5",
                    "midi": 79,
                    "time": 193.1826954999991,
                    "velocity": 0.3700787401574803,
                    "duration": 0.2061715000000106
                },
                {
                    "name": "F6",
                    "midi": 89,
                    "time": 193.38886699999912,
                    "velocity": 0.48031496062992124,
                    "duration": 0.6185145000000034
                },
                {
                    "name": "F5",
                    "midi": 77,
                    "time": 193.38886699999912,
                    "velocity": 0.4015748031496063,
                    "duration": 0.6185145000000034
                },
                {
                    "name": "D6",
                    "midi": 86,
                    "time": 194.00738149999913,
                    "velocity": 0.47244094488188976,
                    "duration": 0.2061715000000106
                },
                {
                    "name": "D5",
                    "midi": 74,
                    "time": 194.00738149999913,
                    "velocity": 0.3937007874015748,
                    "duration": 0.2061715000000106
                },
                {
                    "name": "C6",
                    "midi": 84,
                    "time": 194.21355299999914,
                    "velocity": 0.4566929133858268,
                    "duration": 0.2061715000000106
                },
                {
                    "name": "C5",
                    "midi": 72,
                    "time": 194.21355299999914,
                    "velocity": 0.3858267716535433,
                    "duration": 0.2061715000000106
                },
                {
                    "name": "A#5",
                    "midi": 82,
                    "time": 194.41972449999915,
                    "velocity": 0.4566929133858268,
                    "duration": 0.2061715000000106
                },
                {
                    "name": "A#4",
                    "midi": 70,
                    "time": 194.41972449999915,
                    "velocity": 0.3858267716535433,
                    "duration": 0.2061715000000106
                },
                {
                    "name": "E6",
                    "midi": 88,
                    "time": 194.62589599999916,
                    "velocity": 0.4881889763779528,
                    "duration": 0.2061715000000106
                },
                {
                    "name": "E5",
                    "midi": 76,
                    "time": 194.62589599999916,
                    "velocity": 0.4094488188976378,
                    "duration": 0.2061715000000106
                },
                {
                    "name": "G6",
                    "midi": 91,
                    "time": 194.83206749999917,
                    "velocity": 0.44881889763779526,
                    "duration": 0.2061715000000106
                },
                {
                    "name": "G5",
                    "midi": 79,
                    "time": 194.83206749999917,
                    "velocity": 0.3779527559055118,
                    "duration": 0.2061715000000106
                },
                {
                    "name": "F6",
                    "midi": 89,
                    "time": 195.03823899999918,
                    "velocity": 0.4881889763779528,
                    "duration": 0.6185145000000034
                },
                {
                    "name": "F5",
                    "midi": 77,
                    "time": 195.03823899999918,
                    "velocity": 0.4094488188976378,
                    "duration": 0.6185145000000034
                },
                {
                    "name": "D6",
                    "midi": 86,
                    "time": 195.65675349999918,
                    "velocity": 0.47244094488188976,
                    "duration": 0.2061715000000106
                },
                {
                    "name": "D5",
                    "midi": 74,
                    "time": 195.65675349999918,
                    "velocity": 0.3937007874015748,
                    "duration": 0.2061715000000106
                },
                {
                    "name": "C6",
                    "midi": 84,
                    "time": 195.8629249999992,
                    "velocity": 0.4566929133858268,
                    "duration": 0.2061715000000106
                },
                {
                    "name": "C5",
                    "midi": 72,
                    "time": 195.8629249999992,
                    "velocity": 0.3858267716535433,
                    "duration": 0.2061715000000106
                },
                {
                    "name": "A#5",
                    "midi": 82,
                    "time": 196.0690964999992,
                    "velocity": 0.4566929133858268,
                    "duration": 0.2061715000000106
                },
                {
                    "name": "A#4",
                    "midi": 70,
                    "time": 196.0690964999992,
                    "velocity": 0.3858267716535433,
                    "duration": 0.2061715000000106
                },
                {
                    "name": "A#5",
                    "midi": 82,
                    "time": 196.27526799999922,
                    "velocity": 0.4881889763779528,
                    "duration": 0.2061715000000106
                },
                {
                    "name": "A#4",
                    "midi": 70,
                    "time": 196.27526799999922,
                    "velocity": 0.4094488188976378,
                    "duration": 0.2061715000000106
                },
                {
                    "name": "G#6",
                    "midi": 92,
                    "time": 196.48143949999923,
                    "velocity": 0.44881889763779526,
                    "duration": 0.2061715000000106
                },
                {
                    "name": "G#5",
                    "midi": 80,
                    "time": 196.48143949999923,
                    "velocity": 0.3779527559055118,
                    "duration": 0.2061715000000106
                },
                {
                    "name": "G6",
                    "midi": 91,
                    "time": 196.68761099999924,
                    "velocity": 0.4881889763779528,
                    "duration": 0.6185145000000034
                },
                {
                    "name": "G5",
                    "midi": 79,
                    "time": 196.68761099999924,
                    "velocity": 0.4094488188976378,
                    "duration": 0.6185145000000034
                },
                {
                    "name": "F6",
                    "midi": 89,
                    "time": 197.30612549999924,
                    "velocity": 0.47244094488188976,
                    "duration": 0.2061715000000106
                },
                {
                    "name": "F5",
                    "midi": 77,
                    "time": 197.30612549999924,
                    "velocity": 0.3937007874015748,
                    "duration": 0.2061715000000106
                },
                {
                    "name": "D6",
                    "midi": 86,
                    "time": 197.51229699999925,
                    "velocity": 0.4566929133858268,
                    "duration": 0.2061715000000106
                },
                {
                    "name": "D5",
                    "midi": 74,
                    "time": 197.51229699999925,
                    "velocity": 0.3858267716535433,
                    "duration": 0.2061715000000106
                },
                {
                    "name": "B5",
                    "midi": 83,
                    "time": 197.71846849999926,
                    "velocity": 0.4566929133858268,
                    "duration": 0.2061715000000106
                },
                {
                    "name": "B4",
                    "midi": 71,
                    "time": 197.71846849999926,
                    "velocity": 0.3858267716535433,
                    "duration": 0.2061715000000106
                },
                {
                    "name": "G5",
                    "midi": 79,
                    "time": 197.92463999999927,
                    "velocity": 0.4881889763779528,
                    "duration": 0.2061715000000106
                },
                {
                    "name": "G4",
                    "midi": 67,
                    "time": 197.92463999999927,
                    "velocity": 0.4094488188976378,
                    "duration": 0.2061715000000106
                },
                {
                    "name": "F6",
                    "midi": 89,
                    "time": 198.13081149999928,
                    "velocity": 0.44881889763779526,
                    "duration": 0.2061715000000106
                },
                {
                    "name": "F5",
                    "midi": 77,
                    "time": 198.13081149999928,
                    "velocity": 0.3779527559055118,
                    "duration": 0.2061715000000106
                },
                {
                    "name": "D#6",
                    "midi": 87,
                    "time": 198.3369829999993,
                    "velocity": 0.4881889763779528,
                    "duration": 0.6185145000000034
                },
                {
                    "name": "D#5",
                    "midi": 75,
                    "time": 198.3369829999993,
                    "velocity": 0.4094488188976378,
                    "duration": 0.6185145000000034
                },
                {
                    "name": "C#6",
                    "midi": 85,
                    "time": 198.9554974999993,
                    "velocity": 0.47244094488188976,
                    "duration": 0.2061715000000106
                },
                {
                    "name": "C#5",
                    "midi": 73,
                    "time": 198.9554974999993,
                    "velocity": 0.3937007874015748,
                    "duration": 0.2061715000000106
                },
                {
                    "name": "A#5",
                    "midi": 82,
                    "time": 199.1616689999993,
                    "velocity": 0.4566929133858268,
                    "duration": 0.2061715000000106
                },
                {
                    "name": "A#4",
                    "midi": 70,
                    "time": 199.1616689999993,
                    "velocity": 0.3858267716535433,
                    "duration": 0.2061715000000106
                },
                {
                    "name": "G5",
                    "midi": 79,
                    "time": 199.36784049999932,
                    "velocity": 0.4566929133858268,
                    "duration": 0.2061715000000106
                },
                {
                    "name": "G4",
                    "midi": 67,
                    "time": 199.36784049999932,
                    "velocity": 0.3858267716535433,
                    "duration": 0.2061715000000106
                },
                {
                    "name": "D#5",
                    "midi": 75,
                    "time": 199.57401199999933,
                    "velocity": 0.4881889763779528,
                    "duration": 0.2061715000000106
                },
                {
                    "name": "D#4",
                    "midi": 63,
                    "time": 199.57401199999933,
                    "velocity": 0.4094488188976378,
                    "duration": 0.2061715000000106
                },
                {
                    "name": "C#6",
                    "midi": 85,
                    "time": 199.78018349999934,
                    "velocity": 0.4409448818897638,
                    "duration": 0.2061715000000106
                },
                {
                    "name": "C#5",
                    "midi": 73,
                    "time": 199.78018349999934,
                    "velocity": 0.3700787401574803,
                    "duration": 0.2061715000000106
                },
                {
                    "name": "C6",
                    "midi": 84,
                    "time": 199.98635499999935,
                    "velocity": 0.47244094488188976,
                    "duration": 0.6185145000000034
                },
                {
                    "name": "C5",
                    "midi": 72,
                    "time": 199.98635499999935,
                    "velocity": 0.3937007874015748,
                    "duration": 0.6185145000000034
                },
                {
                    "name": "A#5",
                    "midi": 82,
                    "time": 200.60486949999935,
                    "velocity": 0.4251968503937008,
                    "duration": 0.2061715000000106
                },
                {
                    "name": "A#4",
                    "midi": 70,
                    "time": 200.60486949999935,
                    "velocity": 0.3543307086614173,
                    "duration": 0.2061715000000106
                },
                {
                    "name": "C6",
                    "midi": 84,
                    "time": 200.81104099999936,
                    "velocity": 0.4015748031496063,
                    "duration": 0.2061715000000106
                },
                {
                    "name": "C5",
                    "midi": 72,
                    "time": 200.81104099999936,
                    "velocity": 0.33858267716535434,
                    "duration": 0.2061715000000106
                },
                {
                    "name": "C#6",
                    "midi": 85,
                    "time": 201.01721249999937,
                    "velocity": 0.3937007874015748,
                    "duration": 0.2061715000000106
                },
                {
                    "name": "C#5",
                    "midi": 73,
                    "time": 201.01721249999937,
                    "velocity": 0.33070866141732286,
                    "duration": 0.2061715000000106
                },
                {
                    "name": "D#5",
                    "midi": 75,
                    "time": 201.22338399999938,
                    "velocity": 0.4094488188976378,
                    "duration": 0.2061715000000106
                },
                {
                    "name": "D#4",
                    "midi": 63,
                    "time": 201.22338399999938,
                    "velocity": 0.3464566929133858,
                    "duration": 0.2061715000000106
                },
                {
                    "name": "A#5",
                    "midi": 82,
                    "time": 201.4295554999994,
                    "velocity": 0.3700787401574803,
                    "duration": 0.2061715000000106
                },
                {
                    "name": "A#4",
                    "midi": 70,
                    "time": 201.4295554999994,
                    "velocity": 0.31496062992125984,
                    "duration": 0.2061715000000106
                },
                {
                    "name": "G#5",
                    "midi": 80,
                    "time": 201.6357269999994,
                    "velocity": 0.3937007874015748,
                    "duration": 0.6185145000000034
                },
                {
                    "name": "G#4",
                    "midi": 68,
                    "time": 201.6357269999994,
                    "velocity": 0.33070866141732286,
                    "duration": 0.6185145000000034
                },
                {
                    "name": "G5",
                    "midi": 79,
                    "time": 202.2542414999994,
                    "velocity": 0.3543307086614173,
                    "duration": 0.2061715000000106
                },
                {
                    "name": "G4",
                    "midi": 67,
                    "time": 202.2542414999994,
                    "velocity": 0.2992125984251969,
                    "duration": 0.2061715000000106
                },
                {
                    "name": "G#5",
                    "midi": 80,
                    "time": 202.46041299999942,
                    "velocity": 0.33070866141732286,
                    "duration": 0.2061715000000106
                },
                {
                    "name": "G#4",
                    "midi": 68,
                    "time": 202.46041299999942,
                    "velocity": 0.28346456692913385,
                    "duration": 0.2061715000000106
                },
                {
                    "name": "A#5",
                    "midi": 82,
                    "time": 202.66658449999943,
                    "velocity": 0.3228346456692913,
                    "duration": 0.2061715000000106
                },
                {
                    "name": "A#4",
                    "midi": 70,
                    "time": 202.66658449999943,
                    "velocity": 0.2755905511811024,
                    "duration": 0.2061715000000106
                },
                {
                    "name": "D5",
                    "midi": 74,
                    "time": 202.87275599999944,
                    "velocity": 0.3464566929133858,
                    "duration": 0.2061715000000106
                },
                {
                    "name": "F5",
                    "midi": 77,
                    "time": 203.07892749999945,
                    "velocity": 0.31496062992125984,
                    "duration": 0.2061715000000106
                },
                {
                    "name": "D#5",
                    "midi": 75,
                    "time": 203.28509899999946,
                    "velocity": 0.36220472440944884,
                    "duration": 0.5669716250000079
                },
                {
                    "name": "C5",
                    "midi": 72,
                    "time": 203.85207062499947,
                    "velocity": 0.3228346456692913,
                    "duration": 0.05154287499999555
                },
                {
                    "name": "D#6",
                    "midi": 87,
                    "time": 203.90361349999947,
                    "velocity": 0.4330708661417323,
                    "duration": 0.15462862499998664
                },
                {
                    "name": "A#4",
                    "midi": 70,
                    "time": 204.05824212499945,
                    "velocity": 0.2992125984251969,
                    "duration": 0.05154287499999555
                },
                {
                    "name": "C#6",
                    "midi": 85,
                    "time": 204.10978499999945,
                    "velocity": 0.4094488188976378,
                    "duration": 0.15462862499998664
                },
                {
                    "name": "G#4",
                    "midi": 68,
                    "time": 204.26441362499943,
                    "velocity": 0.2992125984251969,
                    "duration": 0.05154287499999555
                },
                {
                    "name": "C6",
                    "midi": 84,
                    "time": 204.31595649999943,
                    "velocity": 0.4094488188976378,
                    "duration": 0.2061715000000106
                },
                {
                    "name": "D5",
                    "midi": 74,
                    "time": 204.52212799999944,
                    "velocity": 0.3464566929133858,
                    "duration": 0.2061715000000106
                },
                {
                    "name": "F5",
                    "midi": 77,
                    "time": 204.72829949999945,
                    "velocity": 0.31496062992125984,
                    "duration": 0.2061715000000106
                },
                {
                    "name": "D#5",
                    "midi": 75,
                    "time": 204.93447099999946,
                    "velocity": 0.36220472440944884,
                    "duration": 0.5669716250000079
                },
                {
                    "name": "C5",
                    "midi": 72,
                    "time": 205.50144262499947,
                    "velocity": 0.3228346456692913,
                    "duration": 0.05154287499999555
                },
                {
                    "name": "D#6",
                    "midi": 87,
                    "time": 205.55298549999947,
                    "velocity": 0.4330708661417323,
                    "duration": 0.15462862499998664
                },
                {
                    "name": "A#4",
                    "midi": 70,
                    "time": 205.70761412499945,
                    "velocity": 0.2992125984251969,
                    "duration": 0.05154287499999555
                },
                {
                    "name": "C#6",
                    "midi": 85,
                    "time": 205.75915699999945,
                    "velocity": 0.4094488188976378,
                    "duration": 0.15462862499998664
                },
                {
                    "name": "G#4",
                    "midi": 68,
                    "time": 205.91378562499943,
                    "velocity": 0.2992125984251969,
                    "duration": 0.05154287499999555
                },
                {
                    "name": "C6",
                    "midi": 84,
                    "time": 205.96532849999943,
                    "velocity": 0.4094488188976378,
                    "duration": 0.2061715000000106
                },
                {
                    "name": "A4",
                    "midi": 69,
                    "time": 206.17149999999944,
                    "velocity": 0.3464566929133858,
                    "duration": 0.2061715000000106
                },
                {
                    "name": "C5",
                    "midi": 72,
                    "time": 206.37767149999945,
                    "velocity": 0.31496062992125984,
                    "duration": 0.2061715000000106
                },
                {
                    "name": "A#4",
                    "midi": 70,
                    "time": 206.58384299999946,
                    "velocity": 0.36220472440944884,
                    "duration": 0.5669716250000079
                },
                {
                    "name": "D#4",
                    "midi": 63,
                    "time": 207.15081462499947,
                    "velocity": 0.3228346456692913,
                    "duration": 0.05154287499999555
                },
                {
                    "name": "G5",
                    "midi": 79,
                    "time": 207.20235749999947,
                    "velocity": 0.4330708661417323,
                    "duration": 0.15462862499998664
                },
                {
                    "name": "F4",
                    "midi": 65,
                    "time": 207.35698612499945,
                    "velocity": 0.2992125984251969,
                    "duration": 0.05154287499999555
                },
                {
                    "name": "G#5",
                    "midi": 80,
                    "time": 207.40852899999945,
                    "velocity": 0.4094488188976378,
                    "duration": 0.15462862499998664
                },
                {
                    "name": "G4",
                    "midi": 67,
                    "time": 207.56315762499943,
                    "velocity": 0.2992125984251969,
                    "duration": 0.05154287499999555
                },
                {
                    "name": "A#5",
                    "midi": 82,
                    "time": 207.61470049999943,
                    "velocity": 0.4094488188976378,
                    "duration": 0.2061715000000106
                },
                {
                    "name": "A4",
                    "midi": 69,
                    "time": 207.82087199999944,
                    "velocity": 0.3464566929133858,
                    "duration": 0.2061715000000106
                },
                {
                    "name": "C5",
                    "midi": 72,
                    "time": 208.02704349999945,
                    "velocity": 0.31496062992125984,
                    "duration": 0.2061715000000106
                },
                {
                    "name": "A#4",
                    "midi": 70,
                    "time": 208.23321499999946,
                    "velocity": 0.36220472440944884,
                    "duration": 0.5669716250000079
                },
                {
                    "name": "D#4",
                    "midi": 63,
                    "time": 208.80018662499947,
                    "velocity": 0.3228346456692913,
                    "duration": 0.05154287499999555
                },
                {
                    "name": "G5",
                    "midi": 79,
                    "time": 208.85172949999946,
                    "velocity": 0.4330708661417323,
                    "duration": 0.15462862499998664
                },
                {
                    "name": "F4",
                    "midi": 65,
                    "time": 209.00635812499945,
                    "velocity": 0.2992125984251969,
                    "duration": 0.05154287499999555
                },
                {
                    "name": "G#5",
                    "midi": 80,
                    "time": 209.05790099999945,
                    "velocity": 0.4094488188976378,
                    "duration": 0.15462862499998664
                },
                {
                    "name": "G4",
                    "midi": 67,
                    "time": 209.21252962499943,
                    "velocity": 0.2992125984251969,
                    "duration": 0.05154287499999555
                },
                {
                    "name": "A#5",
                    "midi": 82,
                    "time": 209.26407249999943,
                    "velocity": 0.4094488188976378,
                    "duration": 0.2061715000000106
                },
                {
                    "name": "D#5",
                    "midi": 75,
                    "time": 209.47024399999944,
                    "velocity": 0.4566929133858268,
                    "duration": 0.2061715000000106
                },
                {
                    "name": "D#4",
                    "midi": 63,
                    "time": 209.47024399999944,
                    "velocity": 0.3858267716535433,
                    "duration": 0.2061715000000106
                },
                {
                    "name": "C#6",
                    "midi": 85,
                    "time": 209.67641549999945,
                    "velocity": 0.4251968503937008,
                    "duration": 0.2061715000000106
                },
                {
                    "name": "C#5",
                    "midi": 73,
                    "time": 209.67641549999945,
                    "velocity": 0.3543307086614173,
                    "duration": 0.2061715000000106
                },
                {
                    "name": "C6",
                    "midi": 84,
                    "time": 209.88258699999946,
                    "velocity": 0.4566929133858268,
                    "duration": 0.6185145000000034
                },
                {
                    "name": "C5",
                    "midi": 72,
                    "time": 209.88258699999946,
                    "velocity": 0.3858267716535433,
                    "duration": 0.6185145000000034
                },
                {
                    "name": "A#5",
                    "midi": 82,
                    "time": 210.50110149999946,
                    "velocity": 0.44881889763779526,
                    "duration": 0.2061715000000106
                },
                {
                    "name": "A#4",
                    "midi": 70,
                    "time": 210.50110149999946,
                    "velocity": 0.3700787401574803,
                    "duration": 0.2061715000000106
                },
                {
                    "name": "G5",
                    "midi": 79,
                    "time": 210.70727299999947,
                    "velocity": 0.4330708661417323,
                    "duration": 0.2061715000000106
                },
                {
                    "name": "G4",
                    "midi": 67,
                    "time": 210.70727299999947,
                    "velocity": 0.36220472440944884,
                    "duration": 0.2061715000000106
                },
                {
                    "name": "E5",
                    "midi": 76,
                    "time": 210.91344449999949,
                    "velocity": 0.4330708661417323,
                    "duration": 0.2061715000000106
                },
                {
                    "name": "E4",
                    "midi": 64,
                    "time": 210.91344449999949,
                    "velocity": 0.36220472440944884,
                    "duration": 0.2061715000000106
                },
                {
                    "name": "C6",
                    "midi": 84,
                    "time": 211.1196159999995,
                    "velocity": 0.4566929133858268,
                    "duration": 0.2061715000000106
                },
                {
                    "name": "C5",
                    "midi": 72,
                    "time": 211.1196159999995,
                    "velocity": 0.3858267716535433,
                    "duration": 0.2061715000000106
                },
                {
                    "name": "A#6",
                    "midi": 94,
                    "time": 211.3257874999995,
                    "velocity": 0.4251968503937008,
                    "duration": 0.2061715000000106
                },
                {
                    "name": "A#5",
                    "midi": 82,
                    "time": 211.3257874999995,
                    "velocity": 0.3543307086614173,
                    "duration": 0.2061715000000106
                },
                {
                    "name": "G#6",
                    "midi": 92,
                    "time": 211.53195899999952,
                    "velocity": 0.4566929133858268,
                    "duration": 0.6185145000000034
                },
                {
                    "name": "G#5",
                    "midi": 80,
                    "time": 211.53195899999952,
                    "velocity": 0.3858267716535433,
                    "duration": 0.6185145000000034
                },
                {
                    "name": "F#6",
                    "midi": 90,
                    "time": 212.15047349999952,
                    "velocity": 0.44881889763779526,
                    "duration": 0.2061715000000106
                },
                {
                    "name": "F#5",
                    "midi": 78,
                    "time": 212.15047349999952,
                    "velocity": 0.3700787401574803,
                    "duration": 0.2061715000000106
                },
                {
                    "name": "D#6",
                    "midi": 87,
                    "time": 212.35664499999953,
                    "velocity": 0.4330708661417323,
                    "duration": 0.2061715000000106
                },
                {
                    "name": "D#5",
                    "midi": 75,
                    "time": 212.35664499999953,
                    "velocity": 0.36220472440944884,
                    "duration": 0.2061715000000106
                },
                {
                    "name": "C6",
                    "midi": 84,
                    "time": 212.56281649999954,
                    "velocity": 0.4330708661417323,
                    "duration": 0.2061715000000106
                },
                {
                    "name": "C5",
                    "midi": 72,
                    "time": 212.56281649999954,
                    "velocity": 0.36220472440944884,
                    "duration": 0.2061715000000106
                },
                {
                    "name": "G#5",
                    "midi": 80,
                    "time": 212.76898799999955,
                    "velocity": 0.4881889763779528,
                    "duration": 0.2061715000000106
                },
                {
                    "name": "G#4",
                    "midi": 68,
                    "time": 212.76898799999955,
                    "velocity": 0.4094488188976378,
                    "duration": 0.2061715000000106
                },
                {
                    "name": "F#6",
                    "midi": 90,
                    "time": 212.97515949999956,
                    "velocity": 0.4409448818897638,
                    "duration": 0.2061715000000106
                },
                {
                    "name": "F#5",
                    "midi": 78,
                    "time": 212.97515949999956,
                    "velocity": 0.3700787401574803,
                    "duration": 0.2061715000000106
                },
                {
                    "name": "F6",
                    "midi": 89,
                    "time": 213.18133099999957,
                    "velocity": 0.47244094488188976,
                    "duration": 0.6185145000000034
                },
                {
                    "name": "F5",
                    "midi": 77,
                    "time": 213.18133099999957,
                    "velocity": 0.3937007874015748,
                    "duration": 0.6185145000000034
                },
                {
                    "name": "D#6",
                    "midi": 87,
                    "time": 213.79984549999958,
                    "velocity": 0.4251968503937008,
                    "duration": 0.2061715000000106
                },
                {
                    "name": "D#5",
                    "midi": 75,
                    "time": 213.79984549999958,
                    "velocity": 0.3543307086614173,
                    "duration": 0.2061715000000106
                },
                {
                    "name": "F6",
                    "midi": 89,
                    "time": 214.0060169999996,
                    "velocity": 0.4015748031496063,
                    "duration": 0.2061715000000106
                },
                {
                    "name": "F5",
                    "midi": 77,
                    "time": 214.0060169999996,
                    "velocity": 0.33858267716535434,
                    "duration": 0.2061715000000106
                },
                {
                    "name": "F#6",
                    "midi": 90,
                    "time": 214.2121884999996,
                    "velocity": 0.3937007874015748,
                    "duration": 0.2061715000000106
                },
                {
                    "name": "F#5",
                    "midi": 78,
                    "time": 214.2121884999996,
                    "velocity": 0.33070866141732286,
                    "duration": 0.2061715000000106
                },
                {
                    "name": "G#5",
                    "midi": 80,
                    "time": 214.4183599999996,
                    "velocity": 0.4094488188976378,
                    "duration": 0.2061715000000106
                },
                {
                    "name": "G#4",
                    "midi": 68,
                    "time": 214.4183599999996,
                    "velocity": 0.3464566929133858,
                    "duration": 0.2061715000000106
                },
                {
                    "name": "D#6",
                    "midi": 87,
                    "time": 214.62453149999962,
                    "velocity": 0.3700787401574803,
                    "duration": 0.2061715000000106
                },
                {
                    "name": "D#5",
                    "midi": 75,
                    "time": 214.62453149999962,
                    "velocity": 0.31496062992125984,
                    "duration": 0.2061715000000106
                },
                {
                    "name": "C#6",
                    "midi": 85,
                    "time": 214.83070299999963,
                    "velocity": 0.3937007874015748,
                    "duration": 0.6185145000000034
                },
                {
                    "name": "C#5",
                    "midi": 73,
                    "time": 214.83070299999963,
                    "velocity": 0.33070866141732286,
                    "duration": 0.6185145000000034
                },
                {
                    "name": "C6",
                    "midi": 84,
                    "time": 215.44921749999963,
                    "velocity": 0.3543307086614173,
                    "duration": 0.2061715000000106
                },
                {
                    "name": "C5",
                    "midi": 72,
                    "time": 215.44921749999963,
                    "velocity": 0.2992125984251969,
                    "duration": 0.2061715000000106
                },
                {
                    "name": "C#6",
                    "midi": 85,
                    "time": 215.65538899999964,
                    "velocity": 0.33070866141732286,
                    "duration": 0.2061715000000106
                },
                {
                    "name": "C#5",
                    "midi": 73,
                    "time": 215.65538899999964,
                    "velocity": 0.28346456692913385,
                    "duration": 0.2061715000000106
                },
                {
                    "name": "D#6",
                    "midi": 87,
                    "time": 215.86156049999965,
                    "velocity": 0.3228346456692913,
                    "duration": 0.2061715000000106
                },
                {
                    "name": "D#5",
                    "midi": 75,
                    "time": 215.86156049999965,
                    "velocity": 0.2755905511811024,
                    "duration": 0.2061715000000106
                },
                {
                    "name": "F5",
                    "midi": 77,
                    "time": 216.06773199999967,
                    "velocity": 0.6062992125984252,
                    "duration": 0.4080477604166788
                },
                {
                    "name": "G#5",
                    "midi": 80,
                    "time": 216.06773199999967,
                    "velocity": 0.6062992125984252,
                    "duration": 0.4080477604166788
                },
                {
                    "name": "C#6",
                    "midi": 85,
                    "time": 216.06773199999967,
                    "velocity": 0.6062992125984252,
                    "duration": 0.4080477604166788
                },
                {
                    "name": "F6",
                    "midi": 89,
                    "time": 216.06773199999967,
                    "velocity": 0.7244094488188977,
                    "duration": 0.4080477604166788
                },
                {
                    "name": "F5",
                    "midi": 77,
                    "time": 216.4800749999997,
                    "velocity": 0.5748031496062992,
                    "duration": 0.1030857499999911
                },
                {
                    "name": "G#5",
                    "midi": 80,
                    "time": 216.4800749999997,
                    "velocity": 0.5748031496062992,
                    "duration": 0.1030857499999911
                },
                {
                    "name": "C#6",
                    "midi": 85,
                    "time": 216.4800749999997,
                    "velocity": 0.5748031496062992,
                    "duration": 0.1030857499999911
                },
                {
                    "name": "F6",
                    "midi": 89,
                    "time": 216.4800749999997,
                    "velocity": 0.6850393700787402,
                    "duration": 0.1030857499999911
                },
                {
                    "name": "F5",
                    "midi": 77,
                    "time": 216.68624649999967,
                    "velocity": 0.5748031496062992,
                    "duration": 0.1030857499999911
                },
                {
                    "name": "G#5",
                    "midi": 80,
                    "time": 216.68624649999967,
                    "velocity": 0.5748031496062992,
                    "duration": 0.1030857499999911
                },
                {
                    "name": "C#6",
                    "midi": 85,
                    "time": 216.68624649999967,
                    "velocity": 0.5748031496062992,
                    "duration": 0.1030857499999911
                },
                {
                    "name": "F6",
                    "midi": 89,
                    "time": 216.68624649999967,
                    "velocity": 0.6850393700787402,
                    "duration": 0.1030857499999911
                },
                {
                    "name": "F5",
                    "midi": 77,
                    "time": 216.89241799999965,
                    "velocity": 0.6062992125984252,
                    "duration": 0.4080477604166788
                },
                {
                    "name": "G#5",
                    "midi": 80,
                    "time": 216.89241799999965,
                    "velocity": 0.6062992125984252,
                    "duration": 0.4080477604166788
                },
                {
                    "name": "C#6",
                    "midi": 85,
                    "time": 216.89241799999965,
                    "velocity": 0.6062992125984252,
                    "duration": 0.4080477604166788
                },
                {
                    "name": "F6",
                    "midi": 89,
                    "time": 216.89241799999965,
                    "velocity": 0.7244094488188977,
                    "duration": 0.4080477604166788
                },
                {
                    "name": "F5",
                    "midi": 77,
                    "time": 217.30476099999967,
                    "velocity": 0.5669291338582677,
                    "duration": 0.1030857499999911
                },
                {
                    "name": "G#5",
                    "midi": 80,
                    "time": 217.30476099999967,
                    "velocity": 0.5669291338582677,
                    "duration": 0.1030857499999911
                },
                {
                    "name": "C#6",
                    "midi": 85,
                    "time": 217.30476099999967,
                    "velocity": 0.5669291338582677,
                    "duration": 0.1030857499999911
                },
                {
                    "name": "F6",
                    "midi": 89,
                    "time": 217.30476099999967,
                    "velocity": 0.6771653543307087,
                    "duration": 0.1030857499999911
                },
                {
                    "name": "F5",
                    "midi": 77,
                    "time": 217.51093249999965,
                    "velocity": 0.5669291338582677,
                    "duration": 0.1030857499999911
                },
                {
                    "name": "G#5",
                    "midi": 80,
                    "time": 217.51093249999965,
                    "velocity": 0.5669291338582677,
                    "duration": 0.1030857499999911
                },
                {
                    "name": "C#6",
                    "midi": 85,
                    "time": 217.51093249999965,
                    "velocity": 0.5669291338582677,
                    "duration": 0.1030857499999911
                },
                {
                    "name": "F6",
                    "midi": 89,
                    "time": 217.51093249999965,
                    "velocity": 0.6771653543307087,
                    "duration": 0.1030857499999911
                },
                {
                    "name": "F5",
                    "midi": 77,
                    "time": 217.71710399999964,
                    "velocity": 0.6062992125984252,
                    "duration": 0.15462862499998664
                },
                {
                    "name": "G#5",
                    "midi": 80,
                    "time": 217.71710399999964,
                    "velocity": 0.6062992125984252,
                    "duration": 0.15462862499998664
                },
                {
                    "name": "C#6",
                    "midi": 85,
                    "time": 217.71710399999964,
                    "velocity": 0.6062992125984252,
                    "duration": 0.15462862499998664
                },
                {
                    "name": "F6",
                    "midi": 89,
                    "time": 217.71710399999964,
                    "velocity": 0.7244094488188977,
                    "duration": 0.15462862499998664
                },
                {
                    "name": "F6",
                    "midi": 89,
                    "time": 217.92327549999962,
                    "velocity": 0.5511811023622047,
                    "duration": 0.1030857499999911
                },
                {
                    "name": "C#6",
                    "midi": 85,
                    "time": 218.0263612499996,
                    "velocity": 0.5669291338582677,
                    "duration": 0.1030857499999911
                },
                {
                    "name": "G#5",
                    "midi": 80,
                    "time": 218.1294469999996,
                    "velocity": 0.5748031496062992,
                    "duration": 0.1030857499999911
                },
                {
                    "name": "F5",
                    "midi": 77,
                    "time": 218.2325327499996,
                    "velocity": 0.5905511811023622,
                    "duration": 0.1030857499999911
                },
                {
                    "name": "C#5",
                    "midi": 73,
                    "time": 218.33561849999958,
                    "velocity": 0.6062992125984252,
                    "duration": 0.1030857499999911
                },
                {
                    "name": "G#4",
                    "midi": 68,
                    "time": 218.43870424999957,
                    "velocity": 0.6141732283464567,
                    "duration": 0.1030857499999911
                },
                {
                    "name": "F4",
                    "midi": 65,
                    "time": 218.54178999999957,
                    "velocity": 0.6377952755905512,
                    "duration": 0.1030857499999911
                },
                {
                    "name": "C#4",
                    "midi": 61,
                    "time": 218.64487574999956,
                    "velocity": 0.6299212598425197,
                    "duration": 0.1030857499999911
                },
                {
                    "name": "F4",
                    "midi": 65,
                    "time": 218.74796149999955,
                    "velocity": 0.6220472440944882,
                    "duration": 0.1030857499999911
                },
                {
                    "name": "G#4",
                    "midi": 68,
                    "time": 218.85104724999954,
                    "velocity": 0.6141732283464567,
                    "duration": 0.1030857499999911
                },
                {
                    "name": "C#5",
                    "midi": 73,
                    "time": 218.95413299999953,
                    "velocity": 0.6141732283464567,
                    "duration": 0.1030857499999911
                },
                {
                    "name": "F5",
                    "midi": 77,
                    "time": 219.05721874999952,
                    "velocity": 0.6062992125984252,
                    "duration": 0.1030857499999911
                },
                {
                    "name": "G#5",
                    "midi": 80,
                    "time": 219.1603044999995,
                    "velocity": 0.5984251968503937,
                    "duration": 0.1030857499999911
                },
                {
                    "name": "C#6",
                    "midi": 85,
                    "time": 219.2633902499995,
                    "velocity": 0.5905511811023622,
                    "duration": 0.1030857499999911
                },
                {
                    "name": "F5",
                    "midi": 77,
                    "time": 219.3664759999995,
                    "velocity": 0.6062992125984252,
                    "duration": 0.4080477604166788
                },
                {
                    "name": "A#5",
                    "midi": 82,
                    "time": 219.3664759999995,
                    "velocity": 0.6062992125984252,
                    "duration": 0.4080477604166788
                },
                {
                    "name": "C#6",
                    "midi": 85,
                    "time": 219.3664759999995,
                    "velocity": 0.6062992125984252,
                    "duration": 0.4080477604166788
                },
                {
                    "name": "F6",
                    "midi": 89,
                    "time": 219.3664759999995,
                    "velocity": 0.7244094488188977,
                    "duration": 0.4080477604166788
                },
                {
                    "name": "F5",
                    "midi": 77,
                    "time": 219.77881899999952,
                    "velocity": 0.5748031496062992,
                    "duration": 0.1030857499999911
                },
                {
                    "name": "A#5",
                    "midi": 82,
                    "time": 219.77881899999952,
                    "velocity": 0.5748031496062992,
                    "duration": 0.1030857499999911
                },
                {
                    "name": "C#6",
                    "midi": 85,
                    "time": 219.77881899999952,
                    "velocity": 0.5748031496062992,
                    "duration": 0.1030857499999911
                },
                {
                    "name": "F6",
                    "midi": 89,
                    "time": 219.77881899999952,
                    "velocity": 0.6850393700787402,
                    "duration": 0.1030857499999911
                },
                {
                    "name": "F5",
                    "midi": 77,
                    "time": 219.9849904999995,
                    "velocity": 0.5748031496062992,
                    "duration": 0.1030857499999911
                },
                {
                    "name": "A#5",
                    "midi": 82,
                    "time": 219.9849904999995,
                    "velocity": 0.5748031496062992,
                    "duration": 0.1030857499999911
                },
                {
                    "name": "C#6",
                    "midi": 85,
                    "time": 219.9849904999995,
                    "velocity": 0.5748031496062992,
                    "duration": 0.1030857499999911
                },
                {
                    "name": "F6",
                    "midi": 89,
                    "time": 219.9849904999995,
                    "velocity": 0.6850393700787402,
                    "duration": 0.1030857499999911
                },
                {
                    "name": "F5",
                    "midi": 77,
                    "time": 220.19116199999948,
                    "velocity": 0.6062992125984252,
                    "duration": 0.4080477604166788
                },
                {
                    "name": "A#5",
                    "midi": 82,
                    "time": 220.19116199999948,
                    "velocity": 0.6062992125984252,
                    "duration": 0.4080477604166788
                },
                {
                    "name": "C#6",
                    "midi": 85,
                    "time": 220.19116199999948,
                    "velocity": 0.6062992125984252,
                    "duration": 0.4080477604166788
                },
                {
                    "name": "F6",
                    "midi": 89,
                    "time": 220.19116199999948,
                    "velocity": 0.7244094488188977,
                    "duration": 0.4080477604166788
                },
                {
                    "name": "F5",
                    "midi": 77,
                    "time": 220.6035049999995,
                    "velocity": 0.5669291338582677,
                    "duration": 0.1030857499999911
                },
                {
                    "name": "A#5",
                    "midi": 82,
                    "time": 220.6035049999995,
                    "velocity": 0.5669291338582677,
                    "duration": 0.1030857499999911
                },
                {
                    "name": "C#6",
                    "midi": 85,
                    "time": 220.6035049999995,
                    "velocity": 0.5669291338582677,
                    "duration": 0.1030857499999911
                },
                {
                    "name": "F6",
                    "midi": 89,
                    "time": 220.6035049999995,
                    "velocity": 0.6771653543307087,
                    "duration": 0.1030857499999911
                },
                {
                    "name": "F5",
                    "midi": 77,
                    "time": 220.80967649999948,
                    "velocity": 0.5669291338582677,
                    "duration": 0.1030857499999911
                },
                {
                    "name": "A#5",
                    "midi": 82,
                    "time": 220.80967649999948,
                    "velocity": 0.5669291338582677,
                    "duration": 0.1030857499999911
                },
                {
                    "name": "C#6",
                    "midi": 85,
                    "time": 220.80967649999948,
                    "velocity": 0.5669291338582677,
                    "duration": 0.1030857499999911
                },
                {
                    "name": "F6",
                    "midi": 89,
                    "time": 220.80967649999948,
                    "velocity": 0.6771653543307087,
                    "duration": 0.1030857499999911
                },
                {
                    "name": "F5",
                    "midi": 77,
                    "time": 221.01584799999947,
                    "velocity": 0.6062992125984252,
                    "duration": 0.15462862499998664
                },
                {
                    "name": "A#5",
                    "midi": 82,
                    "time": 221.01584799999947,
                    "velocity": 0.6062992125984252,
                    "duration": 0.15462862499998664
                },
                {
                    "name": "C#6",
                    "midi": 85,
                    "time": 221.01584799999947,
                    "velocity": 0.6062992125984252,
                    "duration": 0.15462862499998664
                },
                {
                    "name": "F6",
                    "midi": 89,
                    "time": 221.01584799999947,
                    "velocity": 0.7244094488188977,
                    "duration": 0.15462862499998664
                },
                {
                    "name": "F6",
                    "midi": 89,
                    "time": 221.22201949999945,
                    "velocity": 0.5590551181102362,
                    "duration": 0.1030857499999911
                },
                {
                    "name": "C#6",
                    "midi": 85,
                    "time": 221.32510524999944,
                    "velocity": 0.5669291338582677,
                    "duration": 0.1030857499999911
                },
                {
                    "name": "A#5",
                    "midi": 82,
                    "time": 221.42819099999943,
                    "velocity": 0.5748031496062992,
                    "duration": 0.1030857499999911
                },
                {
                    "name": "F5",
                    "midi": 77,
                    "time": 221.53127674999942,
                    "velocity": 0.5826771653543307,
                    "duration": 0.1030857499999911
                },
                {
                    "name": "C#5",
                    "midi": 73,
                    "time": 221.6343624999994,
                    "velocity": 0.5905511811023622,
                    "duration": 0.1030857499999911
                },
                {
                    "name": "A#4",
                    "midi": 70,
                    "time": 221.7374482499994,
                    "velocity": 0.5905511811023622,
                    "duration": 0.1030857499999911
                },
                {
                    "name": "F4",
                    "midi": 65,
                    "time": 221.8405339999994,
                    "velocity": 0.5984251968503937,
                    "duration": 0.1030857499999911
                },
                {
                    "name": "C#4",
                    "midi": 61,
                    "time": 221.94361974999939,
                    "velocity": 0.6062992125984252,
                    "duration": 0.1030857499999911
                },
                {
                    "name": "F4",
                    "midi": 65,
                    "time": 222.04670549999938,
                    "velocity": 0.5984251968503937,
                    "duration": 0.1030857499999911
                },
                {
                    "name": "A#4",
                    "midi": 70,
                    "time": 222.14979124999937,
                    "velocity": 0.5905511811023622,
                    "duration": 0.1030857499999911
                },
                {
                    "name": "C#5",
                    "midi": 73,
                    "time": 222.25287699999936,
                    "velocity": 0.5826771653543307,
                    "duration": 0.1030857499999911
                },
                {
                    "name": "F5",
                    "midi": 77,
                    "time": 222.35596274999935,
                    "velocity": 0.5748031496062992,
                    "duration": 0.1030857499999911
                },
                {
                    "name": "A#5",
                    "midi": 82,
                    "time": 222.45904849999934,
                    "velocity": 0.5748031496062992,
                    "duration": 0.1030857499999911
                },
                {
                    "name": "C#6",
                    "midi": 85,
                    "time": 222.56213424999933,
                    "velocity": 0.5669291338582677,
                    "duration": 0.1030857499999911
                },
                {
                    "name": "F#5",
                    "midi": 78,
                    "time": 222.66521999999932,
                    "velocity": 0.5433070866141733,
                    "duration": 0.4080477604166788
                },
                {
                    "name": "A#5",
                    "midi": 82,
                    "time": 222.66521999999932,
                    "velocity": 0.5433070866141733,
                    "duration": 0.4080477604166788
                },
                {
                    "name": "C#6",
                    "midi": 85,
                    "time": 222.66521999999932,
                    "velocity": 0.5433070866141733,
                    "duration": 0.4080477604166788
                },
                {
                    "name": "F#6",
                    "midi": 90,
                    "time": 222.66521999999932,
                    "velocity": 0.6456692913385826,
                    "duration": 0.4080477604166788
                },
                {
                    "name": "F#5",
                    "midi": 78,
                    "time": 223.07756299999934,
                    "velocity": 0.5196850393700787,
                    "duration": 0.1030857499999911
                },
                {
                    "name": "A#5",
                    "midi": 82,
                    "time": 223.07756299999934,
                    "velocity": 0.5196850393700787,
                    "duration": 0.1030857499999911
                },
                {
                    "name": "C#6",
                    "midi": 85,
                    "time": 223.07756299999934,
                    "velocity": 0.5196850393700787,
                    "duration": 0.1030857499999911
                },
                {
                    "name": "F#6",
                    "midi": 90,
                    "time": 223.07756299999934,
                    "velocity": 0.6062992125984252,
                    "duration": 0.1030857499999911
                },
                {
                    "name": "F#5",
                    "midi": 78,
                    "time": 223.28373449999933,
                    "velocity": 0.5196850393700787,
                    "duration": 0.1030857499999911
                },
                {
                    "name": "A#5",
                    "midi": 82,
                    "time": 223.28373449999933,
                    "velocity": 0.5196850393700787,
                    "duration": 0.1030857499999911
                },
                {
                    "name": "C#6",
                    "midi": 85,
                    "time": 223.28373449999933,
                    "velocity": 0.5196850393700787,
                    "duration": 0.1030857499999911
                },
                {
                    "name": "F#6",
                    "midi": 90,
                    "time": 223.28373449999933,
                    "velocity": 0.6062992125984252,
                    "duration": 0.1030857499999911
                },
                {
                    "name": "F#5",
                    "midi": 78,
                    "time": 223.4899059999993,
                    "velocity": 0.5905511811023622,
                    "duration": 0.4080477604166788
                },
                {
                    "name": "A5",
                    "midi": 81,
                    "time": 223.4899059999993,
                    "velocity": 0.5905511811023622,
                    "duration": 0.4080477604166788
                },
                {
                    "name": "D6",
                    "midi": 86,
                    "time": 223.4899059999993,
                    "velocity": 0.5905511811023622,
                    "duration": 0.4080477604166788
                },
                {
                    "name": "F#6",
                    "midi": 90,
                    "time": 223.4899059999993,
                    "velocity": 0.7086614173228346,
                    "duration": 0.4080477604166788
                },
                {
                    "name": "F#5",
                    "midi": 78,
                    "time": 223.90224899999933,
                    "velocity": 0.5590551181102362,
                    "duration": 0.1030857499999911
                },
                {
                    "name": "A5",
                    "midi": 81,
                    "time": 223.90224899999933,
                    "velocity": 0.5590551181102362,
                    "duration": 0.1030857499999911
                },
                {
                    "name": "D6",
                    "midi": 86,
                    "time": 223.90224899999933,
                    "velocity": 0.5590551181102362,
                    "duration": 0.1030857499999911
                },
                {
                    "name": "F#6",
                    "midi": 90,
                    "time": 223.90224899999933,
                    "velocity": 0.6614173228346457,
                    "duration": 0.1030857499999911
                },
                {
                    "name": "F#5",
                    "midi": 78,
                    "time": 224.1084204999993,
                    "velocity": 0.5590551181102362,
                    "duration": 0.1030857499999911
                },
                {
                    "name": "A5",
                    "midi": 81,
                    "time": 224.1084204999993,
                    "velocity": 0.5590551181102362,
                    "duration": 0.1030857499999911
                },
                {
                    "name": "D6",
                    "midi": 86,
                    "time": 224.1084204999993,
                    "velocity": 0.5590551181102362,
                    "duration": 0.1030857499999911
                },
                {
                    "name": "F#6",
                    "midi": 90,
                    "time": 224.1084204999993,
                    "velocity": 0.6614173228346457,
                    "duration": 0.1030857499999911
                },
                {
                    "name": "F#5",
                    "midi": 78,
                    "time": 224.3145919999993,
                    "velocity": 0.5905511811023622,
                    "duration": 0.15462862499998664
                },
                {
                    "name": "G#5",
                    "midi": 80,
                    "time": 224.3145919999993,
                    "velocity": 0.5905511811023622,
                    "duration": 0.15462862499998664
                },
                {
                    "name": "D#6",
                    "midi": 87,
                    "time": 224.3145919999993,
                    "velocity": 0.5905511811023622,
                    "duration": 0.15462862499998664
                },
                {
                    "name": "F#6",
                    "midi": 90,
                    "time": 224.3145919999993,
                    "velocity": 0.7086614173228346,
                    "duration": 0.15462862499998664
                },
                {
                    "name": "F#5",
                    "midi": 78,
                    "time": 224.52076349999928,
                    "velocity": 0.47244094488188976,
                    "duration": 0.1030857499999911
                },
                {
                    "name": "F5",
                    "midi": 77,
                    "time": 224.62384924999927,
                    "velocity": 0.4881889763779528,
                    "duration": 0.1030857499999911
                },
                {
                    "name": "D#5",
                    "midi": 75,
                    "time": 224.72693499999926,
                    "velocity": 0.49606299212598426,
                    "duration": 0.1030857499999911
                },
                {
                    "name": "F5",
                    "midi": 77,
                    "time": 224.83002074999925,
                    "velocity": 0.5039370078740157,
                    "duration": 0.1030857499999911
                },
                {
                    "name": "D#5",
                    "midi": 75,
                    "time": 224.93310649999924,
                    "velocity": 0.5196850393700787,
                    "duration": 0.1030857499999911
                },
                {
                    "name": "C#5",
                    "midi": 73,
                    "time": 225.03619224999923,
                    "velocity": 0.5275590551181102,
                    "duration": 0.1030857499999911
                },
                {
                    "name": "C5",
                    "midi": 72,
                    "time": 225.13927799999922,
                    "velocity": 0.5511811023622047,
                    "duration": 0.1030857499999911
                },
                {
                    "name": "C#5",
                    "midi": 73,
                    "time": 225.2423637499992,
                    "velocity": 0.5511811023622047,
                    "duration": 0.1030857499999911
                },
                {
                    "name": "C5",
                    "midi": 72,
                    "time": 225.3454494999992,
                    "velocity": 0.5433070866141733,
                    "duration": 0.1030857499999911
                },
                {
                    "name": "C#5",
                    "midi": 73,
                    "time": 225.4485352499992,
                    "velocity": 0.5354330708661418,
                    "duration": 0.1030857499999911
                },
                {
                    "name": "D#5",
                    "midi": 75,
                    "time": 225.5516209999992,
                    "velocity": 0.5275590551181102,
                    "duration": 0.1030857499999911
                },
                {
                    "name": "F5",
                    "midi": 77,
                    "time": 225.65470674999918,
                    "velocity": 0.5196850393700787,
                    "duration": 0.1030857499999911
                },
                {
                    "name": "F#5",
                    "midi": 78,
                    "time": 225.75779249999917,
                    "velocity": 0.5118110236220472,
                    "duration": 0.1030857499999911
                },
                {
                    "name": "G#5",
                    "midi": 80,
                    "time": 225.86087824999916,
                    "velocity": 0.5039370078740157,
                    "duration": 0.1030857499999911
                },
                {
                    "name": "F#5",
                    "midi": 78,
                    "time": 225.96396399999915,
                    "velocity": 0.5433070866141733,
                    "duration": 0.4080477604166788
                },
                {
                    "name": "A#5",
                    "midi": 82,
                    "time": 225.96396399999915,
                    "velocity": 0.5433070866141733,
                    "duration": 0.4080477604166788
                },
                {
                    "name": "C#6",
                    "midi": 85,
                    "time": 225.96396399999915,
                    "velocity": 0.5433070866141733,
                    "duration": 0.4080477604166788
                },
                {
                    "name": "F#6",
                    "midi": 90,
                    "time": 225.96396399999915,
                    "velocity": 0.6456692913385826,
                    "duration": 0.4080477604166788
                },
                {
                    "name": "F#5",
                    "midi": 78,
                    "time": 226.37630699999917,
                    "velocity": 0.5196850393700787,
                    "duration": 0.1030857499999911
                },
                {
                    "name": "A#5",
                    "midi": 82,
                    "time": 226.37630699999917,
                    "velocity": 0.5196850393700787,
                    "duration": 0.1030857499999911
                },
                {
                    "name": "C#6",
                    "midi": 85,
                    "time": 226.37630699999917,
                    "velocity": 0.5196850393700787,
                    "duration": 0.1030857499999911
                },
                {
                    "name": "F#6",
                    "midi": 90,
                    "time": 226.37630699999917,
                    "velocity": 0.6062992125984252,
                    "duration": 0.1030857499999911
                },
                {
                    "name": "F#5",
                    "midi": 78,
                    "time": 226.58247849999916,
                    "velocity": 0.5196850393700787,
                    "duration": 0.1030857499999911
                },
                {
                    "name": "A#5",
                    "midi": 82,
                    "time": 226.58247849999916,
                    "velocity": 0.5196850393700787,
                    "duration": 0.1030857499999911
                },
                {
                    "name": "C#6",
                    "midi": 85,
                    "time": 226.58247849999916,
                    "velocity": 0.5196850393700787,
                    "duration": 0.1030857499999911
                },
                {
                    "name": "F#6",
                    "midi": 90,
                    "time": 226.58247849999916,
                    "velocity": 0.6062992125984252,
                    "duration": 0.1030857499999911
                },
                {
                    "name": "F#5",
                    "midi": 78,
                    "time": 226.78864999999914,
                    "velocity": 0.5905511811023622,
                    "duration": 0.4080477604166788
                },
                {
                    "name": "A5",
                    "midi": 81,
                    "time": 226.78864999999914,
                    "velocity": 0.5905511811023622,
                    "duration": 0.4080477604166788
                },
                {
                    "name": "D6",
                    "midi": 86,
                    "time": 226.78864999999914,
                    "velocity": 0.5905511811023622,
                    "duration": 0.4080477604166788
                },
                {
                    "name": "F#6",
                    "midi": 90,
                    "time": 226.78864999999914,
                    "velocity": 0.7086614173228346,
                    "duration": 0.4080477604166788
                },
                {
                    "name": "F#5",
                    "midi": 78,
                    "time": 227.20099299999916,
                    "velocity": 0.5590551181102362,
                    "duration": 0.1030857499999911
                },
                {
                    "name": "A5",
                    "midi": 81,
                    "time": 227.20099299999916,
                    "velocity": 0.5590551181102362,
                    "duration": 0.1030857499999911
                },
                {
                    "name": "D6",
                    "midi": 86,
                    "time": 227.20099299999916,
                    "velocity": 0.5590551181102362,
                    "duration": 0.1030857499999911
                },
                {
                    "name": "F#6",
                    "midi": 90,
                    "time": 227.20099299999916,
                    "velocity": 0.6614173228346457,
                    "duration": 0.1030857499999911
                },
                {
                    "name": "F#5",
                    "midi": 78,
                    "time": 227.40716449999914,
                    "velocity": 0.5590551181102362,
                    "duration": 0.1030857499999911
                },
                {
                    "name": "A5",
                    "midi": 81,
                    "time": 227.40716449999914,
                    "velocity": 0.5590551181102362,
                    "duration": 0.1030857499999911
                },
                {
                    "name": "D6",
                    "midi": 86,
                    "time": 227.40716449999914,
                    "velocity": 0.5590551181102362,
                    "duration": 0.1030857499999911
                },
                {
                    "name": "F#6",
                    "midi": 90,
                    "time": 227.40716449999914,
                    "velocity": 0.6614173228346457,
                    "duration": 0.1030857499999911
                },
                {
                    "name": "F#5",
                    "midi": 78,
                    "time": 227.61333599999912,
                    "velocity": 0.5905511811023622,
                    "duration": 0.15462862499998664
                },
                {
                    "name": "G#5",
                    "midi": 80,
                    "time": 227.61333599999912,
                    "velocity": 0.5905511811023622,
                    "duration": 0.15462862499998664
                },
                {
                    "name": "D#6",
                    "midi": 87,
                    "time": 227.61333599999912,
                    "velocity": 0.5905511811023622,
                    "duration": 0.15462862499998664
                },
                {
                    "name": "F#6",
                    "midi": 90,
                    "time": 227.61333599999912,
                    "velocity": 0.7086614173228346,
                    "duration": 0.15462862499998664
                },
                {
                    "name": "F#5",
                    "midi": 78,
                    "time": 227.8195074999991,
                    "velocity": 0.48031496062992124,
                    "duration": 0.1030857499999911
                },
                {
                    "name": "F5",
                    "midi": 77,
                    "time": 227.9225932499991,
                    "velocity": 0.4881889763779528,
                    "duration": 0.1030857499999911
                },
                {
                    "name": "D#5",
                    "midi": 75,
                    "time": 228.0256789999991,
                    "velocity": 0.49606299212598426,
                    "duration": 0.1030857499999911
                },
                {
                    "name": "F5",
                    "midi": 77,
                    "time": 228.12876474999908,
                    "velocity": 0.5039370078740157,
                    "duration": 0.1030857499999911
                },
                {
                    "name": "D#5",
                    "midi": 75,
                    "time": 228.23185049999907,
                    "velocity": 0.5118110236220472,
                    "duration": 0.1030857499999911
                },
                {
                    "name": "C#5",
                    "midi": 73,
                    "time": 228.33493624999906,
                    "velocity": 0.5275590551181102,
                    "duration": 0.1030857499999911
                },
                {
                    "name": "C5",
                    "midi": 72,
                    "time": 228.43802199999905,
                    "velocity": 0.5354330708661418,
                    "duration": 0.1030857499999911
                },
                {
                    "name": "C#5",
                    "midi": 73,
                    "time": 228.54110774999904,
                    "velocity": 0.5354330708661418,
                    "duration": 0.1030857499999911
                },
                {
                    "name": "C5",
                    "midi": 72,
                    "time": 228.64419349999903,
                    "velocity": 0.5354330708661418,
                    "duration": 0.1030857499999911
                },
                {
                    "name": "C#5",
                    "midi": 73,
                    "time": 228.74727924999902,
                    "velocity": 0.5275590551181102,
                    "duration": 0.1030857499999911
                },
                {
                    "name": "D#5",
                    "midi": 75,
                    "time": 228.85036499999902,
                    "velocity": 0.5196850393700787,
                    "duration": 0.1030857499999911
                },
                {
                    "name": "F5",
                    "midi": 77,
                    "time": 228.953450749999,
                    "velocity": 0.5196850393700787,
                    "duration": 0.1030857499999911
                },
                {
                    "name": "F#5",
                    "midi": 78,
                    "time": 229.056536499999,
                    "velocity": 0.5118110236220472,
                    "duration": 0.1030857499999911
                },
                {
                    "name": "G#5",
                    "midi": 80,
                    "time": 229.159622249999,
                    "velocity": 0.5118110236220472,
                    "duration": 0.1030857499999911
                },
                {
                    "name": "A4",
                    "midi": 69,
                    "time": 229.26270799999898,
                    "velocity": 0.5354330708661418,
                    "duration": 0.4080477604166788
                },
                {
                    "name": "C#5",
                    "midi": 73,
                    "time": 229.26270799999898,
                    "velocity": 0.5354330708661418,
                    "duration": 0.4080477604166788
                },
                {
                    "name": "F#5",
                    "midi": 78,
                    "time": 229.26270799999898,
                    "velocity": 0.5354330708661418,
                    "duration": 0.4080477604166788
                },
                {
                    "name": "A5",
                    "midi": 81,
                    "time": 229.26270799999898,
                    "velocity": 0.6299212598425197,
                    "duration": 0.4080477604166788
                },
                {
                    "name": "A4",
                    "midi": 69,
                    "time": 229.675050999999,
                    "velocity": 0.49606299212598426,
                    "duration": 0.1030857499999911
                },
                {
                    "name": "C#5",
                    "midi": 73,
                    "time": 229.675050999999,
                    "velocity": 0.49606299212598426,
                    "duration": 0.1030857499999911
                },
                {
                    "name": "F#5",
                    "midi": 78,
                    "time": 229.675050999999,
                    "velocity": 0.49606299212598426,
                    "duration": 0.1030857499999911
                },
                {
                    "name": "A5",
                    "midi": 81,
                    "time": 229.675050999999,
                    "velocity": 0.5826771653543307,
                    "duration": 0.1030857499999911
                },
                {
                    "name": "A4",
                    "midi": 69,
                    "time": 229.88122249999898,
                    "velocity": 0.49606299212598426,
                    "duration": 0.1030857499999911
                },
                {
                    "name": "F#5",
                    "midi": 78,
                    "time": 229.88122249999898,
                    "velocity": 0.49606299212598426,
                    "duration": 0.1030857499999911
                },
                {
                    "name": "C#5",
                    "midi": 73,
                    "time": 229.88122249999898,
                    "velocity": 0.49606299212598426,
                    "duration": 0.1030857499999911
                },
                {
                    "name": "A5",
                    "midi": 81,
                    "time": 229.88122249999898,
                    "velocity": 0.5826771653543307,
                    "duration": 0.1030857499999911
                },
                {
                    "name": "D5",
                    "midi": 74,
                    "time": 230.08739399999897,
                    "velocity": 0.5433070866141733,
                    "duration": 0.4080477604166788
                },
                {
                    "name": "F#5",
                    "midi": 78,
                    "time": 230.08739399999897,
                    "velocity": 0.5433070866141733,
                    "duration": 0.4080477604166788
                },
                {
                    "name": "A5",
                    "midi": 81,
                    "time": 230.08739399999897,
                    "velocity": 0.5433070866141733,
                    "duration": 0.4080477604166788
                },
                {
                    "name": "D6",
                    "midi": 86,
                    "time": 230.08739399999897,
                    "velocity": 0.6377952755905512,
                    "duration": 0.4080477604166788
                },
                {
                    "name": "D5",
                    "midi": 74,
                    "time": 230.499736999999,
                    "velocity": 0.5118110236220472,
                    "duration": 0.1030857499999911
                },
                {
                    "name": "F#5",
                    "midi": 78,
                    "time": 230.499736999999,
                    "velocity": 0.5118110236220472,
                    "duration": 0.1030857499999911
                },
                {
                    "name": "A5",
                    "midi": 81,
                    "time": 230.499736999999,
                    "velocity": 0.5118110236220472,
                    "duration": 0.1030857499999911
                },
                {
                    "name": "D6",
                    "midi": 86,
                    "time": 230.499736999999,
                    "velocity": 0.5984251968503937,
                    "duration": 0.1030857499999911
                },
                {
                    "name": "D5",
                    "midi": 74,
                    "time": 230.70590849999897,
                    "velocity": 0.5118110236220472,
                    "duration": 0.1030857499999911
                },
                {
                    "name": "F#5",
                    "midi": 78,
                    "time": 230.70590849999897,
                    "velocity": 0.5118110236220472,
                    "duration": 0.1030857499999911
                },
                {
                    "name": "A5",
                    "midi": 81,
                    "time": 230.70590849999897,
                    "velocity": 0.5118110236220472,
                    "duration": 0.1030857499999911
                },
                {
                    "name": "D6",
                    "midi": 86,
                    "time": 230.70590849999897,
                    "velocity": 0.6062992125984252,
                    "duration": 0.1030857499999911
                },
                {
                    "name": "B4",
                    "midi": 71,
                    "time": 230.91207999999895,
                    "velocity": 0.4566929133858268,
                    "duration": 0.4123429999999928
                },
                {
                    "name": "G5",
                    "midi": 79,
                    "time": 230.91207999999895,
                    "velocity": 0.4566929133858268,
                    "duration": 0.4123429999999928
                },
                {
                    "name": "B5",
                    "midi": 83,
                    "time": 230.91207999999895,
                    "velocity": 0.6456692913385826,
                    "duration": 0.4123429999999928
                },
                {
                    "name": "C5",
                    "midi": 72,
                    "time": 231.32442299999894,
                    "velocity": 0.5039370078740157,
                    "duration": 0.4123429999999928
                },
                {
                    "name": "E5",
                    "midi": 76,
                    "time": 231.32442299999894,
                    "velocity": 0.5039370078740157,
                    "duration": 0.4123429999999928
                },
                {
                    "name": "A5",
                    "midi": 81,
                    "time": 231.32442299999894,
                    "velocity": 0.5039370078740157,
                    "duration": 0.4123429999999928
                },
                {
                    "name": "C6",
                    "midi": 84,
                    "time": 231.32442299999894,
                    "velocity": 0.5905511811023622,
                    "duration": 0.4123429999999928
                },
                {
                    "name": "A4",
                    "midi": 69,
                    "time": 231.73676599999894,
                    "velocity": 0.5354330708661418,
                    "duration": 0.4123429999999928
                },
                {
                    "name": "D5",
                    "midi": 74,
                    "time": 231.73676599999894,
                    "velocity": 0.5354330708661418,
                    "duration": 0.4123429999999928
                },
                {
                    "name": "G5",
                    "midi": 79,
                    "time": 231.73676599999894,
                    "velocity": 0.5354330708661418,
                    "duration": 0.4123429999999928
                },
                {
                    "name": "A5",
                    "midi": 81,
                    "time": 231.73676599999894,
                    "velocity": 0.6299212598425197,
                    "duration": 0.4123429999999928
                },
                {
                    "name": "D5",
                    "midi": 74,
                    "time": 232.14910899999893,
                    "velocity": 0.5511811023622047,
                    "duration": 0.4123429999999928
                },
                {
                    "name": "F#5",
                    "midi": 78,
                    "time": 232.14910899999893,
                    "velocity": 0.5511811023622047,
                    "duration": 0.4123429999999928
                },
                {
                    "name": "A5",
                    "midi": 81,
                    "time": 232.14910899999893,
                    "velocity": 0.5511811023622047,
                    "duration": 0.4123429999999928
                },
                {
                    "name": "D6",
                    "midi": 86,
                    "time": 232.14910899999893,
                    "velocity": 0.6456692913385826,
                    "duration": 0.4123429999999928
                },
                {
                    "name": "B4",
                    "midi": 71,
                    "time": 232.56145199999892,
                    "velocity": 0.5433070866141733,
                    "duration": 0.4123429999999928
                },
                {
                    "name": "G5",
                    "midi": 79,
                    "time": 232.56145199999892,
                    "velocity": 0.5433070866141733,
                    "duration": 0.4123429999999928
                },
                {
                    "name": "B5",
                    "midi": 83,
                    "time": 232.56145199999892,
                    "velocity": 0.6377952755905512,
                    "duration": 0.4123429999999928
                },
                {
                    "name": "C5",
                    "midi": 72,
                    "time": 232.97379499999892,
                    "velocity": 0.5118110236220472,
                    "duration": 0.4123429999999928
                },
                {
                    "name": "E5",
                    "midi": 76,
                    "time": 232.97379499999892,
                    "velocity": 0.5118110236220472,
                    "duration": 0.4123429999999928
                },
                {
                    "name": "A5",
                    "midi": 81,
                    "time": 232.97379499999892,
                    "velocity": 0.6062992125984252,
                    "duration": 0.4123429999999928
                },
                {
                    "name": "C6",
                    "midi": 84,
                    "time": 232.97379499999892,
                    "velocity": 0.6062992125984252,
                    "duration": 0.4123429999999928
                },
                {
                    "name": "A4",
                    "midi": 69,
                    "time": 233.3861379999989,
                    "velocity": 0.5669291338582677,
                    "duration": 0.4123429999999928
                },
                {
                    "name": "D5",
                    "midi": 74,
                    "time": 233.3861379999989,
                    "velocity": 0.5669291338582677,
                    "duration": 0.4123429999999928
                },
                {
                    "name": "G5",
                    "midi": 79,
                    "time": 233.3861379999989,
                    "velocity": 0.5669291338582677,
                    "duration": 0.4123429999999928
                },
                {
                    "name": "A5",
                    "midi": 81,
                    "time": 233.3861379999989,
                    "velocity": 0.6692913385826772,
                    "duration": 0.4123429999999928
                },
                {
                    "name": "D5",
                    "midi": 74,
                    "time": 233.7984809999989,
                    "velocity": 0.5905511811023622,
                    "duration": 0.4123429999999928
                },
                {
                    "name": "F#5",
                    "midi": 78,
                    "time": 233.7984809999989,
                    "velocity": 0.5905511811023622,
                    "duration": 0.4123429999999928
                },
                {
                    "name": "A5",
                    "midi": 81,
                    "time": 233.7984809999989,
                    "velocity": 0.5905511811023622,
                    "duration": 0.4123429999999928
                },
                {
                    "name": "D6",
                    "midi": 86,
                    "time": 233.7984809999989,
                    "velocity": 0.6929133858267716,
                    "duration": 0.4123429999999928
                },
                {
                    "name": "G4",
                    "midi": 67,
                    "time": 234.2108239999989,
                    "velocity": 0.5826771653543307,
                    "duration": 0.4080477604166788
                },
                {
                    "name": "B4",
                    "midi": 71,
                    "time": 234.2108239999989,
                    "velocity": 0.5826771653543307,
                    "duration": 0.4080477604166788
                },
                {
                    "name": "G5",
                    "midi": 79,
                    "time": 234.2108239999989,
                    "velocity": 0.6929133858267716,
                    "duration": 0.4080477604166788
                },
                {
                    "name": "G4",
                    "midi": 67,
                    "time": 234.62316699999892,
                    "velocity": 0.5275590551181102,
                    "duration": 0.1030857499999911
                },
                {
                    "name": "B4",
                    "midi": 71,
                    "time": 234.62316699999892,
                    "velocity": 0.5275590551181102,
                    "duration": 0.1030857499999911
                },
                {
                    "name": "G5",
                    "midi": 79,
                    "time": 234.62316699999892,
                    "velocity": 0.6299212598425197,
                    "duration": 0.1030857499999911
                },
                {
                    "name": "G4",
                    "midi": 67,
                    "time": 234.8293384999989,
                    "velocity": 0.5275590551181102,
                    "duration": 0.1030857499999911
                },
                {
                    "name": "B4",
                    "midi": 71,
                    "time": 234.8293384999989,
                    "velocity": 0.5275590551181102,
                    "duration": 0.1030857499999911
                },
                {
                    "name": "G5",
                    "midi": 79,
                    "time": 234.8293384999989,
                    "velocity": 0.6299212598425197,
                    "duration": 0.1030857499999911
                },
                {
                    "name": "G4",
                    "midi": 67,
                    "time": 235.03550999999888,
                    "velocity": 0.5669291338582677,
                    "duration": 0.4080477604166788
                },
                {
                    "name": "B4",
                    "midi": 71,
                    "time": 235.03550999999888,
                    "velocity": 0.5669291338582677,
                    "duration": 0.4080477604166788
                },
                {
                    "name": "G5",
                    "midi": 79,
                    "time": 235.03550999999888,
                    "velocity": 0.6771653543307087,
                    "duration": 0.4080477604166788
                },
                {
                    "name": "G4",
                    "midi": 67,
                    "time": 235.4478529999989,
                    "velocity": 0.5275590551181102,
                    "duration": 0.1030857499999911
                },
                {
                    "name": "B4",
                    "midi": 71,
                    "time": 235.4478529999989,
                    "velocity": 0.5275590551181102,
                    "duration": 0.1030857499999911
                },
                {
                    "name": "G5",
                    "midi": 79,
                    "time": 235.4478529999989,
                    "velocity": 0.6299212598425197,
                    "duration": 0.1030857499999911
                },
                {
                    "name": "G4",
                    "midi": 67,
                    "time": 235.65402449999888,
                    "velocity": 0.5275590551181102,
                    "duration": 0.1030857499999911
                },
                {
                    "name": "B4",
                    "midi": 71,
                    "time": 235.65402449999888,
                    "velocity": 0.5275590551181102,
                    "duration": 0.1030857499999911
                },
                {
                    "name": "G5",
                    "midi": 79,
                    "time": 235.65402449999888,
                    "velocity": 0.6299212598425197,
                    "duration": 0.1030857499999911
                },
                {
                    "name": "G4",
                    "midi": 67,
                    "time": 235.86019599999887,
                    "velocity": 0.5748031496062992,
                    "duration": 0.4123429999999928
                },
                {
                    "name": "C5",
                    "midi": 72,
                    "time": 235.86019599999887,
                    "velocity": 0.5748031496062992,
                    "duration": 0.4123429999999928
                },
                {
                    "name": "G5",
                    "midi": 79,
                    "time": 235.86019599999887,
                    "velocity": 0.6850393700787402,
                    "duration": 0.4123429999999928
                },
                {
                    "name": "F4",
                    "midi": 65,
                    "time": 236.27253899999886,
                    "velocity": 0.5275590551181102,
                    "duration": 0.4123429999999928
                },
                {
                    "name": "C5",
                    "midi": 72,
                    "time": 236.27253899999886,
                    "velocity": 0.5275590551181102,
                    "duration": 0.4123429999999928
                },
                {
                    "name": "F5",
                    "midi": 77,
                    "time": 236.27253899999886,
                    "velocity": 0.6299212598425197,
                    "duration": 0.4123429999999928
                },
                {
                    "name": "F5",
                    "midi": 77,
                    "time": 236.68488199999885,
                    "velocity": 0.5511811023622047,
                    "duration": 0.2061715000000106
                },
                {
                    "name": "C6",
                    "midi": 84,
                    "time": 236.68488199999885,
                    "velocity": 0.5511811023622047,
                    "duration": 0.2061715000000106
                },
                {
                    "name": "F6",
                    "midi": 89,
                    "time": 236.68488199999885,
                    "velocity": 0.6614173228346457,
                    "duration": 0.2061715000000106
                },
                {
                    "name": "F4",
                    "midi": 65,
                    "time": 236.89105349999886,
                    "velocity": 0.4566929133858268,
                    "duration": 0.09793146249998586
                },
                {
                    "name": "C5",
                    "midi": 72,
                    "time": 236.89105349999886,
                    "velocity": 0.4566929133858268,
                    "duration": 0.09793146249998586
                },
                {
                    "name": "F5",
                    "midi": 77,
                    "time": 236.89105349999886,
                    "velocity": 0.5511811023622047,
                    "duration": 0.09793146249998586
                },
                {
                    "name": "F4",
                    "midi": 65,
                    "time": 236.99413924999885,
                    "velocity": 0.4566929133858268,
                    "duration": 0.09793146249998586
                },
                {
                    "name": "C5",
                    "midi": 72,
                    "time": 236.99413924999885,
                    "velocity": 0.4566929133858268,
                    "duration": 0.09793146249998586
                },
                {
                    "name": "F5",
                    "midi": 77,
                    "time": 236.99413924999885,
                    "velocity": 0.5511811023622047,
                    "duration": 0.09793146249998586
                },
                {
                    "name": "F4",
                    "midi": 65,
                    "time": 237.09722499999884,
                    "velocity": 0.5118110236220472,
                    "duration": 0.19586292500000013
                },
                {
                    "name": "C5",
                    "midi": 72,
                    "time": 237.09722499999884,
                    "velocity": 0.5118110236220472,
                    "duration": 0.19586292500000013
                },
                {
                    "name": "F5",
                    "midi": 77,
                    "time": 237.09722499999884,
                    "velocity": 0.6062992125984252,
                    "duration": 0.19586292500000013
                },
                {
                    "name": "F4",
                    "midi": 65,
                    "time": 237.30339649999885,
                    "velocity": 0.5039370078740157,
                    "duration": 0.19586292500000013
                },
                {
                    "name": "C5",
                    "midi": 72,
                    "time": 237.30339649999885,
                    "velocity": 0.5039370078740157,
                    "duration": 0.19586292500000013
                },
                {
                    "name": "F5",
                    "midi": 77,
                    "time": 237.30339649999885,
                    "velocity": 0.5905511811023622,
                    "duration": 0.19586292500000013
                },
                {
                    "name": "G#4",
                    "midi": 68,
                    "time": 237.50956799999886,
                    "velocity": 0.5826771653543307,
                    "duration": 0.4080477604166788
                },
                {
                    "name": "C5",
                    "midi": 72,
                    "time": 237.50956799999886,
                    "velocity": 0.5826771653543307,
                    "duration": 0.4080477604166788
                },
                {
                    "name": "F5",
                    "midi": 77,
                    "time": 237.50956799999886,
                    "velocity": 0.6929133858267716,
                    "duration": 0.4080477604166788
                },
                {
                    "name": "G#4",
                    "midi": 68,
                    "time": 237.9219109999989,
                    "velocity": 0.5275590551181102,
                    "duration": 0.1030857499999911
                },
                {
                    "name": "C5",
                    "midi": 72,
                    "time": 237.9219109999989,
                    "velocity": 0.5275590551181102,
                    "duration": 0.1030857499999911
                },
                {
                    "name": "F5",
                    "midi": 77,
                    "time": 237.9219109999989,
                    "velocity": 0.6299212598425197,
                    "duration": 0.1030857499999911
                },
                {
                    "name": "G#4",
                    "midi": 68,
                    "time": 238.12808249999887,
                    "velocity": 0.5275590551181102,
                    "duration": 0.1030857499999911
                },
                {
                    "name": "C5",
                    "midi": 72,
                    "time": 238.12808249999887,
                    "velocity": 0.5275590551181102,
                    "duration": 0.1030857499999911
                },
                {
                    "name": "F5",
                    "midi": 77,
                    "time": 238.12808249999887,
                    "velocity": 0.6299212598425197,
                    "duration": 0.1030857499999911
                },
                {
                    "name": "G#4",
                    "midi": 68,
                    "time": 238.33425399999885,
                    "velocity": 0.5669291338582677,
                    "duration": 0.4080477604166788
                },
                {
                    "name": "C5",
                    "midi": 72,
                    "time": 238.33425399999885,
                    "velocity": 0.5669291338582677,
                    "duration": 0.4080477604166788
                },
                {
                    "name": "F5",
                    "midi": 77,
                    "time": 238.33425399999885,
                    "velocity": 0.6771653543307087,
                    "duration": 0.4080477604166788
                },
                {
                    "name": "G#4",
                    "midi": 68,
                    "time": 238.74659699999887,
                    "velocity": 0.5275590551181102,
                    "duration": 0.1030857499999911
                },
                {
                    "name": "C5",
                    "midi": 72,
                    "time": 238.74659699999887,
                    "velocity": 0.5275590551181102,
                    "duration": 0.1030857499999911
                },
                {
                    "name": "F5",
                    "midi": 77,
                    "time": 238.74659699999887,
                    "velocity": 0.6299212598425197,
                    "duration": 0.1030857499999911
                },
                {
                    "name": "G#4",
                    "midi": 68,
                    "time": 238.95276849999885,
                    "velocity": 0.5275590551181102,
                    "duration": 0.1030857499999911
                },
                {
                    "name": "C5",
                    "midi": 72,
                    "time": 238.95276849999885,
                    "velocity": 0.5275590551181102,
                    "duration": 0.1030857499999911
                },
                {
                    "name": "F5",
                    "midi": 77,
                    "time": 238.95276849999885,
                    "velocity": 0.6299212598425197,
                    "duration": 0.1030857499999911
                },
                {
                    "name": "G4",
                    "midi": 67,
                    "time": 239.15893999999884,
                    "velocity": 0.5748031496062992,
                    "duration": 0.4123429999999928
                },
                {
                    "name": "A#4",
                    "midi": 70,
                    "time": 239.15893999999884,
                    "velocity": 0.5748031496062992,
                    "duration": 0.4123429999999928
                },
                {
                    "name": "F5",
                    "midi": 77,
                    "time": 239.15893999999884,
                    "velocity": 0.6850393700787402,
                    "duration": 0.4123429999999928
                },
                {
                    "name": "G4",
                    "midi": 67,
                    "time": 239.57128299999883,
                    "velocity": 0.5275590551181102,
                    "duration": 0.4123429999999928
                },
                {
                    "name": "A#4",
                    "midi": 70,
                    "time": 239.57128299999883,
                    "velocity": 0.5275590551181102,
                    "duration": 0.4123429999999928
                },
                {
                    "name": "D#5",
                    "midi": 75,
                    "time": 239.57128299999883,
                    "velocity": 0.6299212598425197,
                    "duration": 0.4123429999999928
                },
                {
                    "name": "D#5",
                    "midi": 75,
                    "time": 239.98362599999882,
                    "velocity": 0.5748031496062992,
                    "duration": 0.2061715000000106
                },
                {
                    "name": "A#5",
                    "midi": 82,
                    "time": 239.98362599999882,
                    "velocity": 0.5748031496062992,
                    "duration": 0.2061715000000106
                },
                {
                    "name": "D#6",
                    "midi": 87,
                    "time": 239.98362599999882,
                    "velocity": 0.6929133858267716,
                    "duration": 0.2061715000000106
                },
                {
                    "name": "D#4",
                    "midi": 63,
                    "time": 240.18979749999883,
                    "velocity": 0.4566929133858268,
                    "duration": 0.09793146249998586
                },
                {
                    "name": "A#4",
                    "midi": 70,
                    "time": 240.18979749999883,
                    "velocity": 0.4566929133858268,
                    "duration": 0.09793146249998586
                },
                {
                    "name": "D#5",
                    "midi": 75,
                    "time": 240.18979749999883,
                    "velocity": 0.5511811023622047,
                    "duration": 0.09793146249998586
                },
                {
                    "name": "D#4",
                    "midi": 63,
                    "time": 240.29288324999882,
                    "velocity": 0.4566929133858268,
                    "duration": 0.09793146249998586
                },
                {
                    "name": "A#4",
                    "midi": 70,
                    "time": 240.29288324999882,
                    "velocity": 0.4566929133858268,
                    "duration": 0.09793146249998586
                },
                {
                    "name": "D#5",
                    "midi": 75,
                    "time": 240.29288324999882,
                    "velocity": 0.5511811023622047,
                    "duration": 0.09793146249998586
                },
                {
                    "name": "D#4",
                    "midi": 63,
                    "time": 240.39596899999881,
                    "velocity": 0.5118110236220472,
                    "duration": 0.19586292500000013
                },
                {
                    "name": "A#4",
                    "midi": 70,
                    "time": 240.39596899999881,
                    "velocity": 0.5118110236220472,
                    "duration": 0.19586292500000013
                },
                {
                    "name": "D#5",
                    "midi": 75,
                    "time": 240.39596899999881,
                    "velocity": 0.6062992125984252,
                    "duration": 0.19586292500000013
                },
                {
                    "name": "D#4",
                    "midi": 63,
                    "time": 240.60214049999882,
                    "velocity": 0.5039370078740157,
                    "duration": 0.19586292500000013
                },
                {
                    "name": "A#4",
                    "midi": 70,
                    "time": 240.60214049999882,
                    "velocity": 0.5039370078740157,
                    "duration": 0.19586292500000013
                },
                {
                    "name": "D#5",
                    "midi": 75,
                    "time": 240.60214049999882,
                    "velocity": 0.5905511811023622,
                    "duration": 0.19586292500000013
                },
                {
                    "name": "G4",
                    "midi": 67,
                    "time": 240.80831199999884,
                    "velocity": 0.5826771653543307,
                    "duration": 0.4123429999999928
                },
                {
                    "name": "A#4",
                    "midi": 70,
                    "time": 240.80831199999884,
                    "velocity": 0.5826771653543307,
                    "duration": 0.4123429999999928
                },
                {
                    "name": "D#5",
                    "midi": 75,
                    "time": 240.80831199999884,
                    "velocity": 0.6929133858267716,
                    "duration": 0.4123429999999928
                },
                {
                    "name": "G4",
                    "midi": 67,
                    "time": 241.22065499999883,
                    "velocity": 0.5275590551181102,
                    "duration": 0.1030857499999911
                },
                {
                    "name": "A#4",
                    "midi": 70,
                    "time": 241.22065499999883,
                    "velocity": 0.5275590551181102,
                    "duration": 0.1030857499999911
                },
                {
                    "name": "D#5",
                    "midi": 75,
                    "time": 241.22065499999883,
                    "velocity": 0.6299212598425197,
                    "duration": 0.1030857499999911
                },
                {
                    "name": "G4",
                    "midi": 67,
                    "time": 241.4268264999988,
                    "velocity": 0.5275590551181102,
                    "duration": 0.1030857499999911
                },
                {
                    "name": "A#4",
                    "midi": 70,
                    "time": 241.4268264999988,
                    "velocity": 0.5275590551181102,
                    "duration": 0.1030857499999911
                },
                {
                    "name": "D#5",
                    "midi": 75,
                    "time": 241.4268264999988,
                    "velocity": 0.6299212598425197,
                    "duration": 0.1030857499999911
                },
                {
                    "name": "G4",
                    "midi": 67,
                    "time": 241.6329979999988,
                    "velocity": 0.5669291338582677,
                    "duration": 0.4123429999999928
                },
                {
                    "name": "A#4",
                    "midi": 70,
                    "time": 241.6329979999988,
                    "velocity": 0.5669291338582677,
                    "duration": 0.4123429999999928
                },
                {
                    "name": "D#5",
                    "midi": 75,
                    "time": 241.6329979999988,
                    "velocity": 0.6771653543307087,
                    "duration": 0.4123429999999928
                },
                {
                    "name": "G4",
                    "midi": 67,
                    "time": 242.04534099999879,
                    "velocity": 0.5275590551181102,
                    "duration": 0.1030857499999911
                },
                {
                    "name": "A#4",
                    "midi": 70,
                    "time": 242.04534099999879,
                    "velocity": 0.5275590551181102,
                    "duration": 0.1030857499999911
                },
                {
                    "name": "D#5",
                    "midi": 75,
                    "time": 242.04534099999879,
                    "velocity": 0.6299212598425197,
                    "duration": 0.1030857499999911
                },
                {
                    "name": "G4",
                    "midi": 67,
                    "time": 242.25151249999877,
                    "velocity": 0.5275590551181102,
                    "duration": 0.1030857499999911
                },
                {
                    "name": "A#4",
                    "midi": 70,
                    "time": 242.25151249999877,
                    "velocity": 0.5275590551181102,
                    "duration": 0.1030857499999911
                },
                {
                    "name": "D#5",
                    "midi": 75,
                    "time": 242.25151249999877,
                    "velocity": 0.6299212598425197,
                    "duration": 0.1030857499999911
                },
                {
                    "name": "F4",
                    "midi": 65,
                    "time": 242.45768399999875,
                    "velocity": 0.5748031496062992,
                    "duration": 0.4123429999999928
                },
                {
                    "name": "G#4",
                    "midi": 68,
                    "time": 242.45768399999875,
                    "velocity": 0.5748031496062992,
                    "duration": 0.4123429999999928
                },
                {
                    "name": "D#5",
                    "midi": 75,
                    "time": 242.45768399999875,
                    "velocity": 0.6850393700787402,
                    "duration": 0.4123429999999928
                },
                {
                    "name": "F4",
                    "midi": 65,
                    "time": 242.87002699999874,
                    "velocity": 0.5275590551181102,
                    "duration": 0.4123429999999928
                },
                {
                    "name": "G#4",
                    "midi": 68,
                    "time": 242.87002699999874,
                    "velocity": 0.5275590551181102,
                    "duration": 0.4123429999999928
                },
                {
                    "name": "C#5",
                    "midi": 73,
                    "time": 242.87002699999874,
                    "velocity": 0.6299212598425197,
                    "duration": 0.4123429999999928
                },
                {
                    "name": "C#5",
                    "midi": 73,
                    "time": 243.28236999999874,
                    "velocity": 0.5748031496062992,
                    "duration": 0.19586292500000013
                },
                {
                    "name": "G#5",
                    "midi": 80,
                    "time": 243.28236999999874,
                    "velocity": 0.5748031496062992,
                    "duration": 0.19586292500000013
                },
                {
                    "name": "C#6",
                    "midi": 85,
                    "time": 243.28236999999874,
                    "velocity": 0.6929133858267716,
                    "duration": 0.19586292500000013
                },
                {
                    "name": "C#4",
                    "midi": 61,
                    "time": 243.48854149999875,
                    "velocity": 0.4566929133858268,
                    "duration": 0.09793146249998586
                },
                {
                    "name": "G#4",
                    "midi": 68,
                    "time": 243.48854149999875,
                    "velocity": 0.4566929133858268,
                    "duration": 0.09793146249998586
                },
                {
                    "name": "C#5",
                    "midi": 73,
                    "time": 243.48854149999875,
                    "velocity": 0.5511811023622047,
                    "duration": 0.09793146249998586
                },
                {
                    "name": "C#4",
                    "midi": 61,
                    "time": 243.59162724999874,
                    "velocity": 0.4566929133858268,
                    "duration": 0.09793146249998586
                },
                {
                    "name": "G#4",
                    "midi": 68,
                    "time": 243.59162724999874,
                    "velocity": 0.4566929133858268,
                    "duration": 0.09793146249998586
                },
                {
                    "name": "C#5",
                    "midi": 73,
                    "time": 243.59162724999874,
                    "velocity": 0.5511811023622047,
                    "duration": 0.09793146249998586
                },
                {
                    "name": "C#4",
                    "midi": 61,
                    "time": 243.69471299999873,
                    "velocity": 0.5118110236220472,
                    "duration": 0.19586292500000013
                },
                {
                    "name": "G#4",
                    "midi": 68,
                    "time": 243.69471299999873,
                    "velocity": 0.5118110236220472,
                    "duration": 0.19586292500000013
                },
                {
                    "name": "C#5",
                    "midi": 73,
                    "time": 243.69471299999873,
                    "velocity": 0.6062992125984252,
                    "duration": 0.19586292500000013
                },
                {
                    "name": "C#4",
                    "midi": 61,
                    "time": 243.90088449999874,
                    "velocity": 0.5039370078740157,
                    "duration": 0.19586292500000013
                },
                {
                    "name": "G#4",
                    "midi": 68,
                    "time": 243.90088449999874,
                    "velocity": 0.5039370078740157,
                    "duration": 0.19586292500000013
                },
                {
                    "name": "C#5",
                    "midi": 73,
                    "time": 243.90088449999874,
                    "velocity": 0.5905511811023622,
                    "duration": 0.19586292500000013
                },
                {
                    "name": "C#4",
                    "midi": 61,
                    "time": 244.10705599999875,
                    "velocity": 0.5748031496062992,
                    "duration": 0.4123429999999928
                },
                {
                    "name": "G4",
                    "midi": 67,
                    "time": 244.10705599999875,
                    "velocity": 0.5748031496062992,
                    "duration": 0.4123429999999928
                },
                {
                    "name": "C#5",
                    "midi": 73,
                    "time": 244.10705599999875,
                    "velocity": 0.6850393700787402,
                    "duration": 0.4123429999999928
                },
                {
                    "name": "C4",
                    "midi": 60,
                    "time": 244.51939899999874,
                    "velocity": 0.5275590551181102,
                    "duration": 0.4123429999999928
                },
                {
                    "name": "G4",
                    "midi": 67,
                    "time": 244.51939899999874,
                    "velocity": 0.5275590551181102,
                    "duration": 0.4123429999999928
                },
                {
                    "name": "C5",
                    "midi": 72,
                    "time": 244.51939899999874,
                    "velocity": 0.6299212598425197,
                    "duration": 0.4123429999999928
                },
                {
                    "name": "C5",
                    "midi": 72,
                    "time": 244.93174199999874,
                    "velocity": 0.5748031496062992,
                    "duration": 0.19586292500000013
                },
                {
                    "name": "G5",
                    "midi": 79,
                    "time": 244.93174199999874,
                    "velocity": 0.5748031496062992,
                    "duration": 0.19586292500000013
                },
                {
                    "name": "C6",
                    "midi": 84,
                    "time": 244.93174199999874,
                    "velocity": 0.6929133858267716,
                    "duration": 0.19586292500000013
                },
                {
                    "name": "C4",
                    "midi": 60,
                    "time": 245.13791349999875,
                    "velocity": 0.4566929133858268,
                    "duration": 0.09793146249998586
                },
                {
                    "name": "G4",
                    "midi": 67,
                    "time": 245.13791349999875,
                    "velocity": 0.4566929133858268,
                    "duration": 0.09793146249998586
                },
                {
                    "name": "C5",
                    "midi": 72,
                    "time": 245.13791349999875,
                    "velocity": 0.5511811023622047,
                    "duration": 0.09793146249998586
                },
                {
                    "name": "C4",
                    "midi": 60,
                    "time": 245.24099924999874,
                    "velocity": 0.4566929133858268,
                    "duration": 0.09793146249998586
                },
                {
                    "name": "G4",
                    "midi": 67,
                    "time": 245.24099924999874,
                    "velocity": 0.4566929133858268,
                    "duration": 0.09793146249998586
                },
                {
                    "name": "C5",
                    "midi": 72,
                    "time": 245.24099924999874,
                    "velocity": 0.5511811023622047,
                    "duration": 0.09793146249998586
                },
                {
                    "name": "C4",
                    "midi": 60,
                    "time": 245.34408499999873,
                    "velocity": 0.5118110236220472,
                    "duration": 0.19586292500000013
                },
                {
                    "name": "G4",
                    "midi": 67,
                    "time": 245.34408499999873,
                    "velocity": 0.5118110236220472,
                    "duration": 0.19586292500000013
                },
                {
                    "name": "C5",
                    "midi": 72,
                    "time": 245.34408499999873,
                    "velocity": 0.6062992125984252,
                    "duration": 0.19586292500000013
                },
                {
                    "name": "C4",
                    "midi": 60,
                    "time": 245.55025649999874,
                    "velocity": 0.5039370078740157,
                    "duration": 0.19586292500000013
                },
                {
                    "name": "G4",
                    "midi": 67,
                    "time": 245.55025649999874,
                    "velocity": 0.5039370078740157,
                    "duration": 0.19586292500000013
                },
                {
                    "name": "C5",
                    "midi": 72,
                    "time": 245.55025649999874,
                    "velocity": 0.5905511811023622,
                    "duration": 0.19586292500000013
                },
                {
                    "name": "C4",
                    "midi": 60,
                    "time": 245.75642799999875,
                    "velocity": 0.5748031496062992,
                    "duration": 0.4123429999999928
                },
                {
                    "name": "F4",
                    "midi": 65,
                    "time": 245.75642799999875,
                    "velocity": 0.5748031496062992,
                    "duration": 0.4123429999999928
                },
                {
                    "name": "C5",
                    "midi": 72,
                    "time": 245.75642799999875,
                    "velocity": 0.6850393700787402,
                    "duration": 0.4123429999999928
                },
                {
                    "name": "A#3",
                    "midi": 58,
                    "time": 246.16877099999874,
                    "velocity": 0.5275590551181102,
                    "duration": 0.4123429999999928
                },
                {
                    "name": "F4",
                    "midi": 65,
                    "time": 246.16877099999874,
                    "velocity": 0.5275590551181102,
                    "duration": 0.4123429999999928
                },
                {
                    "name": "A#4",
                    "midi": 70,
                    "time": 246.16877099999874,
                    "velocity": 0.6299212598425197,
                    "duration": 0.4123429999999928
                },
                {
                    "name": "A#4",
                    "midi": 70,
                    "time": 246.58111399999873,
                    "velocity": 0.5984251968503937,
                    "duration": 0.4123429999999928
                },
                {
                    "name": "D#5",
                    "midi": 75,
                    "time": 246.58111399999873,
                    "velocity": 0.5984251968503937,
                    "duration": 0.4123429999999928
                },
                {
                    "name": "A#5",
                    "midi": 82,
                    "time": 246.58111399999873,
                    "velocity": 0.7086614173228346,
                    "duration": 0.4123429999999928
                },
                {
                    "name": "G#4",
                    "midi": 68,
                    "time": 246.99345699999873,
                    "velocity": 0.5511811023622047,
                    "duration": 0.4123429999999928
                },
                {
                    "name": "D#5",
                    "midi": 75,
                    "time": 246.99345699999873,
                    "velocity": 0.5511811023622047,
                    "duration": 0.4123429999999928
                },
                {
                    "name": "G#5",
                    "midi": 80,
                    "time": 246.99345699999873,
                    "velocity": 0.6614173228346457,
                    "duration": 0.4123429999999928
                },
                {
                    "name": "G#3",
                    "midi": 56,
                    "time": 247.40579999999872,
                    "velocity": 0.5984251968503937,
                    "duration": 0.4123429999999928
                },
                {
                    "name": "D4",
                    "midi": 62,
                    "time": 247.40579999999872,
                    "velocity": 0.5984251968503937,
                    "duration": 0.4123429999999928
                },
                {
                    "name": "G#4",
                    "midi": 68,
                    "time": 247.40579999999872,
                    "velocity": 0.7086614173228346,
                    "duration": 0.4123429999999928
                },
                {
                    "name": "G3",
                    "midi": 55,
                    "time": 247.8181429999987,
                    "velocity": 0.5511811023622047,
                    "duration": 0.4123429999999928
                },
                {
                    "name": "D4",
                    "midi": 62,
                    "time": 247.8181429999987,
                    "velocity": 0.5511811023622047,
                    "duration": 0.4123429999999928
                },
                {
                    "name": "G4",
                    "midi": 67,
                    "time": 247.8181429999987,
                    "velocity": 0.6614173228346457,
                    "duration": 0.4123429999999928
                },
                {
                    "name": "G4",
                    "midi": 67,
                    "time": 248.2304859999987,
                    "velocity": 0.6299212598425197,
                    "duration": 0.4123429999999928
                },
                {
                    "name": "C5",
                    "midi": 72,
                    "time": 248.2304859999987,
                    "velocity": 0.6299212598425197,
                    "duration": 0.4123429999999928
                },
                {
                    "name": "G5",
                    "midi": 79,
                    "time": 248.2304859999987,
                    "velocity": 0.7401574803149606,
                    "duration": 0.4123429999999928
                },
                {
                    "name": "F#4",
                    "midi": 66,
                    "time": 248.6428289999987,
                    "velocity": 0.5748031496062992,
                    "duration": 0.4123429999999928
                },
                {
                    "name": "C5",
                    "midi": 72,
                    "time": 248.6428289999987,
                    "velocity": 0.5748031496062992,
                    "duration": 0.4123429999999928
                },
                {
                    "name": "F#5",
                    "midi": 78,
                    "time": 248.6428289999987,
                    "velocity": 0.6850393700787402,
                    "duration": 0.4123429999999928
                },
                {
                    "name": "G4",
                    "midi": 67,
                    "time": 249.0551719999987,
                    "velocity": 0.5748031496062992,
                    "duration": 0.1030857499999911
                },
                {
                    "name": "G5",
                    "midi": 79,
                    "time": 249.0551719999987,
                    "velocity": 0.5748031496062992,
                    "duration": 0.1030857499999911
                },
                {
                    "name": "A5",
                    "midi": 81,
                    "time": 249.15825774999868,
                    "velocity": 0.5826771653543307,
                    "duration": 0.1030857499999911
                },
                {
                    "name": "G5",
                    "midi": 79,
                    "time": 249.26134349999867,
                    "velocity": 0.5905511811023622,
                    "duration": 0.1030857499999911
                },
                {
                    "name": "A5",
                    "midi": 81,
                    "time": 249.36442924999866,
                    "velocity": 0.5984251968503937,
                    "duration": 0.1030857499999911
                },
                {
                    "name": "B5",
                    "midi": 83,
                    "time": 249.46751499999866,
                    "velocity": 0.6062992125984252,
                    "duration": 0.1030857499999911
                },
                {
                    "name": "C6",
                    "midi": 84,
                    "time": 249.57060074999865,
                    "velocity": 0.6141732283464567,
                    "duration": 0.1030857499999911
                },
                {
                    "name": "B5",
                    "midi": 83,
                    "time": 249.67368649999864,
                    "velocity": 0.6220472440944882,
                    "duration": 0.1030857499999911
                },
                {
                    "name": "C6",
                    "midi": 84,
                    "time": 249.77677224999863,
                    "velocity": 0.6299212598425197,
                    "duration": 0.1030857499999911
                },
                {
                    "name": "D6",
                    "midi": 86,
                    "time": 249.87985799999862,
                    "velocity": 0.6377952755905512,
                    "duration": 0.1030857499999911
                },
                {
                    "name": "D#6",
                    "midi": 87,
                    "time": 249.9829437499986,
                    "velocity": 0.6456692913385826,
                    "duration": 0.1030857499999911
                },
                {
                    "name": "D6",
                    "midi": 86,
                    "time": 250.0860294999986,
                    "velocity": 0.6614173228346457,
                    "duration": 0.1030857499999911
                },
                {
                    "name": "D#6",
                    "midi": 87,
                    "time": 250.1891152499986,
                    "velocity": 0.6692913385826772,
                    "duration": 0.1030857499999911
                },
                {
                    "name": "F6",
                    "midi": 89,
                    "time": 250.29220099999858,
                    "velocity": 0.6771653543307087,
                    "duration": 0.1030857499999911
                },
                {
                    "name": "G6",
                    "midi": 91,
                    "time": 250.39528674999858,
                    "velocity": 0.6850393700787402,
                    "duration": 0.1030857499999911
                },
                {
                    "name": "F6",
                    "midi": 89,
                    "time": 250.49837249999857,
                    "velocity": 0.6929133858267716,
                    "duration": 0.1030857499999911
                },
                {
                    "name": "G6",
                    "midi": 91,
                    "time": 250.60145824999856,
                    "velocity": 0.7007874015748031,
                    "duration": 0.1030857499999911
                },
                {
                    "name": "G#5",
                    "midi": 80,
                    "time": 250.70454399999855,
                    "velocity": 0.7086614173228346,
                    "duration": 0.824686000000014
                },
                {
                    "name": "G#6",
                    "midi": 92,
                    "time": 250.70454399999855,
                    "velocity": 0.7086614173228346,
                    "duration": 0.824686000000014
                },
                {
                    "name": "G#4",
                    "midi": 68,
                    "time": 251.52922999999856,
                    "velocity": 0.6062992125984252,
                    "duration": 0.824686000000014
                },
                {
                    "name": "G#5",
                    "midi": 80,
                    "time": 251.52922999999856,
                    "velocity": 0.6062992125984252,
                    "duration": 0.824686000000014
                },
                {
                    "name": "F5",
                    "midi": 77,
                    "time": 252.35391599999858,
                    "velocity": 0.5748031496062992,
                    "duration": 0.1030857499999911
                },
                {
                    "name": "G5",
                    "midi": 79,
                    "time": 252.45700174999857,
                    "velocity": 0.5826771653543307,
                    "duration": 0.1030857499999911
                },
                {
                    "name": "F5",
                    "midi": 77,
                    "time": 252.56008749999856,
                    "velocity": 0.5905511811023622,
                    "duration": 0.1030857499999911
                },
                {
                    "name": "G5",
                    "midi": 79,
                    "time": 252.66317324999855,
                    "velocity": 0.5984251968503937,
                    "duration": 0.1030857499999911
                },
                {
                    "name": "G#5",
                    "midi": 80,
                    "time": 252.76625899999854,
                    "velocity": 0.6062992125984252,
                    "duration": 0.1030857499999911
                },
                {
                    "name": "A#5",
                    "midi": 82,
                    "time": 252.86934474999853,
                    "velocity": 0.6141732283464567,
                    "duration": 0.1030857499999911
                },
                {
                    "name": "G#5",
                    "midi": 80,
                    "time": 252.97243049999852,
                    "velocity": 0.6220472440944882,
                    "duration": 0.1030857499999911
                },
                {
                    "name": "A#5",
                    "midi": 82,
                    "time": 253.07551624999851,
                    "velocity": 0.6299212598425197,
                    "duration": 0.1030857499999911
                },
                {
                    "name": "C6",
                    "midi": 84,
                    "time": 253.1786019999985,
                    "velocity": 0.6377952755905512,
                    "duration": 0.1030857499999911
                },
                {
                    "name": "D6",
                    "midi": 86,
                    "time": 253.2816877499985,
                    "velocity": 0.6456692913385826,
                    "duration": 0.1030857499999911
                },
                {
                    "name": "C6",
                    "midi": 84,
                    "time": 253.3847734999985,
                    "velocity": 0.6614173228346457,
                    "duration": 0.1030857499999911
                },
                {
                    "name": "D6",
                    "midi": 86,
                    "time": 253.48785924999848,
                    "velocity": 0.6692913385826772,
                    "duration": 0.1030857499999911
                },
                {
                    "name": "D#6",
                    "midi": 87,
                    "time": 253.59094499999847,
                    "velocity": 0.6771653543307087,
                    "duration": 0.1030857499999911
                },
                {
                    "name": "F6",
                    "midi": 89,
                    "time": 253.69403074999846,
                    "velocity": 0.6850393700787402,
                    "duration": 0.1030857499999911
                },
                {
                    "name": "D#6",
                    "midi": 87,
                    "time": 253.79711649999845,
                    "velocity": 0.6929133858267716,
                    "duration": 0.1030857499999911
                },
                {
                    "name": "F6",
                    "midi": 89,
                    "time": 253.90020224999844,
                    "velocity": 0.7007874015748031,
                    "duration": 0.1030857499999911
                },
                {
                    "name": "G5",
                    "midi": 79,
                    "time": 254.00328799999843,
                    "velocity": 0.7086614173228346,
                    "duration": 0.824686000000014
                },
                {
                    "name": "G6",
                    "midi": 91,
                    "time": 254.00328799999843,
                    "velocity": 0.7086614173228346,
                    "duration": 0.824686000000014
                },
                {
                    "name": "G4",
                    "midi": 67,
                    "time": 254.82797399999845,
                    "velocity": 0.6062992125984252,
                    "duration": 0.824686000000014
                },
                {
                    "name": "G5",
                    "midi": 79,
                    "time": 254.82797399999845,
                    "velocity": 0.6062992125984252,
                    "duration": 0.824686000000014
                },
                {
                    "name": "D#5",
                    "midi": 75,
                    "time": 255.65265999999846,
                    "velocity": 0.5748031496062992,
                    "duration": 0.1030857499999911
                },
                {
                    "name": "F5",
                    "midi": 77,
                    "time": 255.75574574999845,
                    "velocity": 0.5826771653543307,
                    "duration": 0.1030857499999911
                },
                {
                    "name": "D#5",
                    "midi": 75,
                    "time": 255.85883149999844,
                    "velocity": 0.5905511811023622,
                    "duration": 0.1030857499999911
                },
                {
                    "name": "F5",
                    "midi": 77,
                    "time": 255.96191724999844,
                    "velocity": 0.5984251968503937,
                    "duration": 0.10308575000001952
                },
                {
                    "name": "G5",
                    "midi": 79,
                    "time": 256.06500299999846,
                    "velocity": 0.6062992125984252,
                    "duration": 0.1030857499999911
                },
                {
                    "name": "G#5",
                    "midi": 80,
                    "time": 256.16808874999845,
                    "velocity": 0.6141732283464567,
                    "duration": 0.1030857499999911
                },
                {
                    "name": "G5",
                    "midi": 79,
                    "time": 256.27117449999844,
                    "velocity": 0.6220472440944882,
                    "duration": 0.1030857499999911
                },
                {
                    "name": "G#5",
                    "midi": 80,
                    "time": 256.37426024999843,
                    "velocity": 0.6299212598425197,
                    "duration": 0.1030857499999911
                },
                {
                    "name": "A#5",
                    "midi": 82,
                    "time": 256.4773459999984,
                    "velocity": 0.6377952755905512,
                    "duration": 0.1030857499999911
                },
                {
                    "name": "C6",
                    "midi": 84,
                    "time": 256.5804317499984,
                    "velocity": 0.6456692913385826,
                    "duration": 0.1030857499999911
                },
                {
                    "name": "A#5",
                    "midi": 82,
                    "time": 256.6835174999984,
                    "velocity": 0.6614173228346457,
                    "duration": 0.1030857499999911
                },
                {
                    "name": "C6",
                    "midi": 84,
                    "time": 256.7866032499984,
                    "velocity": 0.6692913385826772,
                    "duration": 0.1030857499999911
                },
                {
                    "name": "D6",
                    "midi": 86,
                    "time": 256.8896889999984,
                    "velocity": 0.6771653543307087,
                    "duration": 0.1030857499999911
                },
                {
                    "name": "D#6",
                    "midi": 87,
                    "time": 256.9927747499984,
                    "velocity": 0.6850393700787402,
                    "duration": 0.1030857499999911
                },
                {
                    "name": "D6",
                    "midi": 86,
                    "time": 257.09586049999837,
                    "velocity": 0.6929133858267716,
                    "duration": 0.1030857499999911
                },
                {
                    "name": "D#6",
                    "midi": 87,
                    "time": 257.19894624999836,
                    "velocity": 0.7007874015748031,
                    "duration": 0.1030857499999911
                },
                {
                    "name": "F5",
                    "midi": 77,
                    "time": 257.30203199999835,
                    "velocity": 0.7086614173228346,
                    "duration": 0.8246859999999856
                },
                {
                    "name": "F6",
                    "midi": 89,
                    "time": 257.30203199999835,
                    "velocity": 0.7086614173228346,
                    "duration": 0.8246859999999856
                },
                {
                    "name": "F4",
                    "midi": 65,
                    "time": 258.12671799999833,
                    "velocity": 0.6062992125984252,
                    "duration": 0.8246859999999856
                },
                {
                    "name": "F5",
                    "midi": 77,
                    "time": 258.12671799999833,
                    "velocity": 0.6062992125984252,
                    "duration": 0.8246859999999856
                },
                {
                    "name": "D#5",
                    "midi": 75,
                    "time": 258.9514039999983,
                    "velocity": 0.7086614173228346,
                    "duration": 0.8246859999999856
                },
                {
                    "name": "D#6",
                    "midi": 87,
                    "time": 258.9514039999983,
                    "velocity": 0.7086614173228346,
                    "duration": 0.8246859999999856
                },
                {
                    "name": "D#4",
                    "midi": 63,
                    "time": 259.7760899999983,
                    "velocity": 0.6062992125984252,
                    "duration": 0.8246859999999856
                },
                {
                    "name": "D#5",
                    "midi": 75,
                    "time": 259.7760899999983,
                    "velocity": 0.6062992125984252,
                    "duration": 0.8246859999999856
                },
                {
                    "name": "C#5",
                    "midi": 73,
                    "time": 260.6007759999983,
                    "velocity": 0.5984251968503937,
                    "duration": 0.3092572499999733
                },
                {
                    "name": "C#6",
                    "midi": 85,
                    "time": 260.6007759999983,
                    "velocity": 0.7086614173228346,
                    "duration": 0.3092572499999733
                },
                {
                    "name": "C#4",
                    "midi": 61,
                    "time": 260.91003324999826,
                    "velocity": 0.5275590551181102,
                    "duration": 0.09793146250001428
                },
                {
                    "name": "C#5",
                    "midi": 73,
                    "time": 260.91003324999826,
                    "velocity": 0.6220472440944882,
                    "duration": 0.09793146250001428
                },
                {
                    "name": "C#4",
                    "midi": 61,
                    "time": 261.01311899999826,
                    "velocity": 0.5275590551181102,
                    "duration": 0.4123430000000212
                },
                {
                    "name": "C#5",
                    "midi": 73,
                    "time": 261.01311899999826,
                    "velocity": 0.6220472440944882,
                    "duration": 0.4123430000000212
                },
                {
                    "name": "C5",
                    "midi": 72,
                    "time": 261.4254619999983,
                    "velocity": 0.5984251968503937,
                    "duration": 0.3092572499999733
                },
                {
                    "name": "C6",
                    "midi": 84,
                    "time": 261.4254619999983,
                    "velocity": 0.7086614173228346,
                    "duration": 0.3092572499999733
                },
                {
                    "name": "C4",
                    "midi": 60,
                    "time": 261.73471924999825,
                    "velocity": 0.5275590551181102,
                    "duration": 0.09793146250001428
                },
                {
                    "name": "C5",
                    "midi": 72,
                    "time": 261.73471924999825,
                    "velocity": 0.6220472440944882,
                    "duration": 0.09793146250001428
                },
                {
                    "name": "C4",
                    "midi": 60,
                    "time": 261.83780499999824,
                    "velocity": 0.5275590551181102,
                    "duration": 0.4123430000000212
                },
                {
                    "name": "C5",
                    "midi": 72,
                    "time": 261.83780499999824,
                    "velocity": 0.6220472440944882,
                    "duration": 0.4123430000000212
                },
                {
                    "name": "A#4",
                    "midi": 70,
                    "time": 262.25014799999826,
                    "velocity": 0.5984251968503937,
                    "duration": 0.3092572499999733
                },
                {
                    "name": "A#5",
                    "midi": 82,
                    "time": 262.25014799999826,
                    "velocity": 0.7086614173228346,
                    "duration": 0.3092572499999733
                },
                {
                    "name": "A#3",
                    "midi": 58,
                    "time": 262.55940524999824,
                    "velocity": 0.5275590551181102,
                    "duration": 0.09793146250001428
                },
                {
                    "name": "A#4",
                    "midi": 70,
                    "time": 262.55940524999824,
                    "velocity": 0.6220472440944882,
                    "duration": 0.09793146250001428
                },
                {
                    "name": "A#3",
                    "midi": 58,
                    "time": 262.6624909999982,
                    "velocity": 0.5275590551181102,
                    "duration": 0.4123430000000212
                },
                {
                    "name": "A#4",
                    "midi": 70,
                    "time": 262.6624909999982,
                    "velocity": 0.6220472440944882,
                    "duration": 0.4123430000000212
                },
                {
                    "name": "D#5",
                    "midi": 75,
                    "time": 263.07483399999825,
                    "velocity": 0.5984251968503937,
                    "duration": 0.3066801062499849
                },
                {
                    "name": "C5",
                    "midi": 72,
                    "time": 263.07483399999825,
                    "velocity": 0.5984251968503937,
                    "duration": 0.3066801062499849
                },
                {
                    "name": "G#4",
                    "midi": 68,
                    "time": 263.07483399999825,
                    "velocity": 0.5984251968503937,
                    "duration": 0.3066801062499849
                },
                {
                    "name": "G#5",
                    "midi": 80,
                    "time": 263.07483399999825,
                    "velocity": 0.7086614173228346,
                    "duration": 0.3066801062499849
                },
                {
                    "name": "D#4",
                    "midi": 63,
                    "time": 263.3840912499982,
                    "velocity": 0.5275590551181102,
                    "duration": 0.09793146250001428
                },
                {
                    "name": "C4",
                    "midi": 60,
                    "time": 263.3840912499982,
                    "velocity": 0.5275590551181102,
                    "duration": 0.09793146250001428
                },
                {
                    "name": "G#3",
                    "midi": 56,
                    "time": 263.3840912499982,
                    "velocity": 0.5275590551181102,
                    "duration": 0.09793146250001428
                },
                {
                    "name": "G#4",
                    "midi": 68,
                    "time": 263.3840912499982,
                    "velocity": 0.6220472440944882,
                    "duration": 0.09793146250001428
                },
                {
                    "name": "D#4",
                    "midi": 63,
                    "time": 263.4871769999982,
                    "velocity": 0.5275590551181102,
                    "duration": 0.4123430000000212
                },
                {
                    "name": "C4",
                    "midi": 60,
                    "time": 263.4871769999982,
                    "velocity": 0.5275590551181102,
                    "duration": 0.4123430000000212
                },
                {
                    "name": "G#3",
                    "midi": 56,
                    "time": 263.4871769999982,
                    "velocity": 0.5275590551181102,
                    "duration": 0.4123430000000212
                },
                {
                    "name": "G#4",
                    "midi": 68,
                    "time": 263.4871769999982,
                    "velocity": 0.6220472440944882,
                    "duration": 0.4123430000000212
                },
                {
                    "name": "B3",
                    "midi": 59,
                    "time": 263.89951999999823,
                    "velocity": 0.5748031496062992,
                    "duration": 0.4123430000000212
                },
                {
                    "name": "D4",
                    "midi": 62,
                    "time": 263.89951999999823,
                    "velocity": 0.5748031496062992,
                    "duration": 0.4123430000000212
                },
                {
                    "name": "G4",
                    "midi": 67,
                    "time": 263.89951999999823,
                    "velocity": 0.6850393700787402,
                    "duration": 0.4123430000000212
                },
                {
                    "name": "D4",
                    "midi": 62,
                    "time": 264.31186299999825,
                    "velocity": 0.5196850393700787,
                    "duration": 0.07731431249999332
                },
                {
                    "name": "D5",
                    "midi": 74,
                    "time": 264.31186299999825,
                    "velocity": 0.6141732283464567,
                    "duration": 0.07731431249999332
                },
                {
                    "name": "D#4",
                    "midi": 63,
                    "time": 264.41494874999825,
                    "velocity": 0.5354330708661418,
                    "duration": 0.07731431249999332
                },
                {
                    "name": "D#5",
                    "midi": 75,
                    "time": 264.41494874999825,
                    "velocity": 0.6299212598425197,
                    "duration": 0.07731431249999332
                },
                {
                    "name": "F4",
                    "midi": 65,
                    "time": 264.51803449999824,
                    "velocity": 0.5511811023622047,
                    "duration": 0.07731431249999332
                },
                {
                    "name": "F5",
                    "midi": 77,
                    "time": 264.51803449999824,
                    "velocity": 0.6456692913385826,
                    "duration": 0.07731431249999332
                },
                {
                    "name": "G4",
                    "midi": 67,
                    "time": 264.6211202499982,
                    "velocity": 0.5669291338582677,
                    "duration": 0.07731431249999332
                },
                {
                    "name": "G5",
                    "midi": 79,
                    "time": 264.6211202499982,
                    "velocity": 0.6771653543307087,
                    "duration": 0.07731431249999332
                },
                {
                    "name": "G#4",
                    "midi": 68,
                    "time": 264.7242059999982,
                    "velocity": 0.5826771653543307,
                    "duration": 0.40804776041665036
                },
                {
                    "name": "G#5",
                    "midi": 80,
                    "time": 264.7242059999982,
                    "velocity": 0.6929133858267716,
                    "duration": 0.40804776041665036
                },
                {
                    "name": "C5",
                    "midi": 72,
                    "time": 265.1365489999982,
                    "velocity": 0.5354330708661418,
                    "duration": 0.2061714999999822
                },
                {
                    "name": "D#5",
                    "midi": 75,
                    "time": 265.1365489999982,
                    "velocity": 0.5354330708661418,
                    "duration": 0.2061714999999822
                },
                {
                    "name": "G#5",
                    "midi": 80,
                    "time": 265.1365489999982,
                    "velocity": 0.6299212598425197,
                    "duration": 0.2061714999999822
                },
                {
                    "name": "C5",
                    "midi": 72,
                    "time": 265.34272049999817,
                    "velocity": 0.5196850393700787,
                    "duration": 0.2061714999999822
                },
                {
                    "name": "D#5",
                    "midi": 75,
                    "time": 265.34272049999817,
                    "velocity": 0.5196850393700787,
                    "duration": 0.2061714999999822
                },
                {
                    "name": "G#5",
                    "midi": 80,
                    "time": 265.34272049999817,
                    "velocity": 0.6141732283464567,
                    "duration": 0.2061714999999822
                },
                {
                    "name": "B4",
                    "midi": 71,
                    "time": 265.54889199999815,
                    "velocity": 0.5748031496062992,
                    "duration": 0.40804776041665036
                },
                {
                    "name": "D5",
                    "midi": 74,
                    "time": 265.54889199999815,
                    "velocity": 0.5748031496062992,
                    "duration": 0.40804776041665036
                },
                {
                    "name": "G5",
                    "midi": 79,
                    "time": 265.54889199999815,
                    "velocity": 0.6850393700787402,
                    "duration": 0.40804776041665036
                },
                {
                    "name": "D5",
                    "midi": 74,
                    "time": 265.9612349999981,
                    "velocity": 0.5196850393700787,
                    "duration": 0.07731431249999332
                },
                {
                    "name": "D6",
                    "midi": 86,
                    "time": 265.9612349999981,
                    "velocity": 0.6141732283464567,
                    "duration": 0.07731431249999332
                },
                {
                    "name": "D#5",
                    "midi": 75,
                    "time": 266.0643207499981,
                    "velocity": 0.5354330708661418,
                    "duration": 0.07731431249999332
                },
                {
                    "name": "D#6",
                    "midi": 87,
                    "time": 266.0643207499981,
                    "velocity": 0.6299212598425197,
                    "duration": 0.07731431249999332
                },
                {
                    "name": "F5",
                    "midi": 77,
                    "time": 266.1674064999981,
                    "velocity": 0.5511811023622047,
                    "duration": 0.07731431249999332
                },
                {
                    "name": "F6",
                    "midi": 89,
                    "time": 266.1674064999981,
                    "velocity": 0.6456692913385826,
                    "duration": 0.07731431249999332
                },
                {
                    "name": "G5",
                    "midi": 79,
                    "time": 266.2704922499981,
                    "velocity": 0.5669291338582677,
                    "duration": 0.07731431249999332
                },
                {
                    "name": "G6",
                    "midi": 91,
                    "time": 266.2704922499981,
                    "velocity": 0.6771653543307087,
                    "duration": 0.07731431249999332
                },
                {
                    "name": "G#5",
                    "midi": 80,
                    "time": 266.3735779999981,
                    "velocity": 0.5826771653543307,
                    "duration": 0.4123430000000212
                },
                {
                    "name": "G#6",
                    "midi": 92,
                    "time": 266.3735779999981,
                    "velocity": 0.6929133858267716,
                    "duration": 0.4123430000000212
                },
                {
                    "name": "C6",
                    "midi": 84,
                    "time": 266.7859209999981,
                    "velocity": 0.5354330708661418,
                    "duration": 0.2061714999999822
                },
                {
                    "name": "D#6",
                    "midi": 87,
                    "time": 266.7859209999981,
                    "velocity": 0.5354330708661418,
                    "duration": 0.2061714999999822
                },
                {
                    "name": "G#6",
                    "midi": 92,
                    "time": 266.7859209999981,
                    "velocity": 0.6299212598425197,
                    "duration": 0.2061714999999822
                },
                {
                    "name": "C6",
                    "midi": 84,
                    "time": 266.9920924999981,
                    "velocity": 0.5196850393700787,
                    "duration": 0.2061714999999822
                },
                {
                    "name": "D#6",
                    "midi": 87,
                    "time": 266.9920924999981,
                    "velocity": 0.5196850393700787,
                    "duration": 0.2061714999999822
                },
                {
                    "name": "G#6",
                    "midi": 92,
                    "time": 266.9920924999981,
                    "velocity": 0.6141732283464567,
                    "duration": 0.2061714999999822
                },
                {
                    "name": "D5",
                    "midi": 74,
                    "time": 267.19826399999806,
                    "velocity": 0.5196850393700787,
                    "duration": 0.07731431249999332
                },
                {
                    "name": "D6",
                    "midi": 86,
                    "time": 267.19826399999806,
                    "velocity": 0.6141732283464567,
                    "duration": 0.07731431249999332
                },
                {
                    "name": "D#5",
                    "midi": 75,
                    "time": 267.30134974999805,
                    "velocity": 0.5354330708661418,
                    "duration": 0.07731431249999332
                },
                {
                    "name": "D#6",
                    "midi": 87,
                    "time": 267.30134974999805,
                    "velocity": 0.6299212598425197,
                    "duration": 0.07731431249999332
                },
                {
                    "name": "F5",
                    "midi": 77,
                    "time": 267.40443549999804,
                    "velocity": 0.5511811023622047,
                    "duration": 0.07731431249999332
                },
                {
                    "name": "F6",
                    "midi": 89,
                    "time": 267.40443549999804,
                    "velocity": 0.6456692913385826,
                    "duration": 0.07731431249999332
                },
                {
                    "name": "G5",
                    "midi": 79,
                    "time": 267.50752124999804,
                    "velocity": 0.5669291338582677,
                    "duration": 0.07731431249999332
                },
                {
                    "name": "G6",
                    "midi": 91,
                    "time": 267.50752124999804,
                    "velocity": 0.6771653543307087,
                    "duration": 0.07731431249999332
                },
                {
                    "name": "D#6",
                    "midi": 87,
                    "time": 267.610606999998,
                    "velocity": 0.5826771653543307,
                    "duration": 0.4123430000000212
                },
                {
                    "name": "C6",
                    "midi": 84,
                    "time": 267.610606999998,
                    "velocity": 0.5826771653543307,
                    "duration": 0.4123430000000212
                },
                {
                    "name": "G#5",
                    "midi": 80,
                    "time": 267.610606999998,
                    "velocity": 0.5826771653543307,
                    "duration": 0.4123430000000212
                },
                {
                    "name": "G#6",
                    "midi": 92,
                    "time": 267.610606999998,
                    "velocity": 0.6929133858267716,
                    "duration": 0.4123430000000212
                },
                {
                    "name": "D5",
                    "midi": 74,
                    "time": 268.02294999999805,
                    "velocity": 0.5196850393700787,
                    "duration": 0.07731431249999332
                },
                {
                    "name": "D6",
                    "midi": 86,
                    "time": 268.02294999999805,
                    "velocity": 0.6141732283464567,
                    "duration": 0.07731431249999332
                },
                {
                    "name": "D#5",
                    "midi": 75,
                    "time": 268.12603574999804,
                    "velocity": 0.5354330708661418,
                    "duration": 0.07731431249999332
                },
                {
                    "name": "D#6",
                    "midi": 87,
                    "time": 268.12603574999804,
                    "velocity": 0.6299212598425197,
                    "duration": 0.07731431249999332
                },
                {
                    "name": "F5",
                    "midi": 77,
                    "time": 268.22912149999803,
                    "velocity": 0.5511811023622047,
                    "duration": 0.07731431249999332
                },
                {
                    "name": "F6",
                    "midi": 89,
                    "time": 268.22912149999803,
                    "velocity": 0.6456692913385826,
                    "duration": 0.07731431249999332
                },
                {
                    "name": "G5",
                    "midi": 79,
                    "time": 268.332207249998,
                    "velocity": 0.5669291338582677,
                    "duration": 0.07731431249999332
                },
                {
                    "name": "G6",
                    "midi": 91,
                    "time": 268.332207249998,
                    "velocity": 0.6771653543307087,
                    "duration": 0.07731431249999332
                },
                {
                    "name": "D#6",
                    "midi": 87,
                    "time": 268.435292999998,
                    "velocity": 0.5826771653543307,
                    "duration": 0.4123430000000212
                },
                {
                    "name": "C6",
                    "midi": 84,
                    "time": 268.435292999998,
                    "velocity": 0.5826771653543307,
                    "duration": 0.4123430000000212
                },
                {
                    "name": "G#5",
                    "midi": 80,
                    "time": 268.435292999998,
                    "velocity": 0.5826771653543307,
                    "duration": 0.4123430000000212
                },
                {
                    "name": "G#6",
                    "midi": 92,
                    "time": 268.435292999998,
                    "velocity": 0.6929133858267716,
                    "duration": 0.4123430000000212
                },
                {
                    "name": "D5",
                    "midi": 74,
                    "time": 268.84763599999803,
                    "velocity": 0.6141732283464567,
                    "duration": 0.07731431249999332
                },
                {
                    "name": "D#5",
                    "midi": 75,
                    "time": 268.950721749998,
                    "velocity": 0.6299212598425197,
                    "duration": 0.07731431249999332
                },
                {
                    "name": "F5",
                    "midi": 77,
                    "time": 269.053807499998,
                    "velocity": 0.6456692913385826,
                    "duration": 0.07731431249999332
                },
                {
                    "name": "G5",
                    "midi": 79,
                    "time": 269.156893249998,
                    "velocity": 0.6850393700787402,
                    "duration": 0.07731431249999332
                },
                {
                    "name": "D#5",
                    "midi": 75,
                    "time": 269.259978999998,
                    "velocity": 0.5984251968503937,
                    "duration": 0.4123430000000212
                },
                {
                    "name": "C5",
                    "midi": 72,
                    "time": 269.259978999998,
                    "velocity": 0.5984251968503937,
                    "duration": 0.4123430000000212
                },
                {
                    "name": "G#4",
                    "midi": 68,
                    "time": 269.259978999998,
                    "velocity": 0.5984251968503937,
                    "duration": 0.4123430000000212
                },
                {
                    "name": "G#5",
                    "midi": 80,
                    "time": 269.259978999998,
                    "velocity": 0.7086614173228346,
                    "duration": 0.4123430000000212
                },
                {
                    "name": "D4",
                    "midi": 62,
                    "time": 269.672321999998,
                    "velocity": 0.5511811023622047,
                    "duration": 0.07731431249999332
                },
                {
                    "name": "D5",
                    "midi": 74,
                    "time": 269.672321999998,
                    "velocity": 0.6614173228346457,
                    "duration": 0.07731431249999332
                },
                {
                    "name": "D#4",
                    "midi": 63,
                    "time": 269.775407749998,
                    "velocity": 0.5748031496062992,
                    "duration": 0.07731431249999332
                },
                {
                    "name": "D#5",
                    "midi": 75,
                    "time": 269.775407749998,
                    "velocity": 0.6850393700787402,
                    "duration": 0.07731431249999332
                },
                {
                    "name": "F4",
                    "midi": 65,
                    "time": 269.878493499998,
                    "velocity": 0.5984251968503937,
                    "duration": 0.07731431249999332
                },
                {
                    "name": "F5",
                    "midi": 77,
                    "time": 269.878493499998,
                    "velocity": 0.7086614173228346,
                    "duration": 0.07731431249999332
                },
                {
                    "name": "G4",
                    "midi": 67,
                    "time": 269.981579249998,
                    "velocity": 0.6141732283464567,
                    "duration": 0.07731431249999332
                },
                {
                    "name": "G5",
                    "midi": 79,
                    "time": 269.981579249998,
                    "velocity": 0.7401574803149606,
                    "duration": 0.07731431249999332
                },
                {
                    "name": "D#5",
                    "midi": 75,
                    "time": 270.084664999998,
                    "velocity": 0.6377952755905512,
                    "duration": 0.4123430000000212
                },
                {
                    "name": "C5",
                    "midi": 72,
                    "time": 270.084664999998,
                    "velocity": 0.6377952755905512,
                    "duration": 0.4123430000000212
                },
                {
                    "name": "G#4",
                    "midi": 68,
                    "time": 270.084664999998,
                    "velocity": 0.6377952755905512,
                    "duration": 0.4123430000000212
                },
                {
                    "name": "G#5",
                    "midi": 80,
                    "time": 270.084664999998,
                    "velocity": 0.7637795275590551,
                    "duration": 0.4123430000000212
                },
                {
                    "name": "G4",
                    "midi": 67,
                    "time": 270.497007999998,
                    "velocity": 0.5984251968503937,
                    "duration": 0.40804776041665036
                },
                {
                    "name": "B4",
                    "midi": 71,
                    "time": 270.497007999998,
                    "velocity": 0.5984251968503937,
                    "duration": 0.40804776041665036
                },
                {
                    "name": "D5",
                    "midi": 74,
                    "time": 270.497007999998,
                    "velocity": 0.6692913385826772,
                    "duration": 0.40804776041665036
                },
                {
                    "name": "G5",
                    "midi": 79,
                    "time": 270.497007999998,
                    "velocity": 0.7874015748031497,
                    "duration": 0.40804776041665036
                },
                {
                    "name": "G4",
                    "midi": 67,
                    "time": 270.90935099999797,
                    "velocity": 0.3937007874015748,
                    "duration": 0.1030857499999911
                },
                {
                    "name": "G4",
                    "midi": 67,
                    "time": 271.11552249999795,
                    "velocity": 0.4015748031496063,
                    "duration": 0.1030857499999911
                },
                {
                    "name": "G4",
                    "midi": 67,
                    "time": 271.32169399999793,
                    "velocity": 0.41732283464566927,
                    "duration": 0.40804776041665036
                },
                {
                    "name": "G4",
                    "midi": 67,
                    "time": 271.7340369999979,
                    "velocity": 0.3937007874015748,
                    "duration": 0.1030857499999911
                },
                {
                    "name": "G4",
                    "midi": 67,
                    "time": 271.9402084999979,
                    "velocity": 0.3937007874015748,
                    "duration": 0.1030857499999911
                },
                {
                    "name": "G4",
                    "midi": 67,
                    "time": 272.14637999999786,
                    "velocity": 0.41732283464566927,
                    "duration": 0.40804776041665036
                },
                {
                    "name": "G4",
                    "midi": 67,
                    "time": 272.5587229999978,
                    "velocity": 0.3937007874015748,
                    "duration": 0.1030857499999911
                },
                {
                    "name": "G4",
                    "midi": 67,
                    "time": 272.7648944999978,
                    "velocity": 0.3937007874015748,
                    "duration": 0.1030857499999911
                },
                {
                    "name": "G4",
                    "midi": 67,
                    "time": 272.9710659999978,
                    "velocity": 0.41732283464566927,
                    "duration": 0.40804776041665036
                },
                {
                    "name": "G4",
                    "midi": 67,
                    "time": 273.38340899999776,
                    "velocity": 0.3858267716535433,
                    "duration": 0.1030857499999911
                },
                {
                    "name": "G4",
                    "midi": 67,
                    "time": 273.58958049999774,
                    "velocity": 0.3858267716535433,
                    "duration": 0.1030857499999911
                },
                {
                    "name": "G#4",
                    "midi": 68,
                    "time": 273.7957519999977,
                    "velocity": 0.5984251968503937,
                    "duration": 0.40804776041665036
                },
                {
                    "name": "B4",
                    "midi": 71,
                    "time": 273.7957519999977,
                    "velocity": 0.5984251968503937,
                    "duration": 0.40804776041665036
                },
                {
                    "name": "D5",
                    "midi": 74,
                    "time": 273.7957519999977,
                    "velocity": 0.6692913385826772,
                    "duration": 0.40804776041665036
                },
                {
                    "name": "G#5",
                    "midi": 80,
                    "time": 273.7957519999977,
                    "velocity": 0.7874015748031497,
                    "duration": 0.40804776041665036
                },
                {
                    "name": "G#4",
                    "midi": 68,
                    "time": 274.2080949999977,
                    "velocity": 0.4015748031496063,
                    "duration": 0.1030857499999911
                },
                {
                    "name": "G#4",
                    "midi": 68,
                    "time": 274.41426649999767,
                    "velocity": 0.4094488188976378,
                    "duration": 0.1030857499999911
                },
                {
                    "name": "G#4",
                    "midi": 68,
                    "time": 274.62043799999765,
                    "velocity": 0.41732283464566927,
                    "duration": 0.40804776041665036
                },
                {
                    "name": "G#4",
                    "midi": 68,
                    "time": 275.0327809999976,
                    "velocity": 0.3228346456692913,
                    "duration": 0.05154287499999555
                },
                {
                    "name": "B4",
                    "midi": 71,
                    "time": 275.0327809999976,
                    "velocity": 0.3858267716535433,
                    "duration": 0.05154287499999555
                },
                {
                    "name": "G#4",
                    "midi": 68,
                    "time": 275.2389524999976,
                    "velocity": 0.33070866141732286,
                    "duration": 0.05154287499999555
                },
                {
                    "name": "B4",
                    "midi": 71,
                    "time": 275.2389524999976,
                    "velocity": 0.3937007874015748,
                    "duration": 0.05154287499999555
                },
                {
                    "name": "G#4",
                    "midi": 68,
                    "time": 275.4451239999976,
                    "velocity": 0.3543307086614173,
                    "duration": 0.40804776041665036
                },
                {
                    "name": "B4",
                    "midi": 71,
                    "time": 275.4451239999976,
                    "velocity": 0.41732283464566927,
                    "duration": 0.40804776041665036
                },
                {
                    "name": "G#4",
                    "midi": 68,
                    "time": 275.85746699999754,
                    "velocity": 0.31496062992125984,
                    "duration": 0.05154287499999555
                },
                {
                    "name": "B4",
                    "midi": 71,
                    "time": 275.85746699999754,
                    "velocity": 0.3779527559055118,
                    "duration": 0.05154287499999555
                },
                {
                    "name": "G#4",
                    "midi": 68,
                    "time": 276.0636384999975,
                    "velocity": 0.31496062992125984,
                    "duration": 0.05154287499999555
                },
                {
                    "name": "B4",
                    "midi": 71,
                    "time": 276.0636384999975,
                    "velocity": 0.3779527559055118,
                    "duration": 0.05154287499999555
                },
                {
                    "name": "G#4",
                    "midi": 68,
                    "time": 276.2698099999975,
                    "velocity": 0.3543307086614173,
                    "duration": 0.40804776041665036
                },
                {
                    "name": "B4",
                    "midi": 71,
                    "time": 276.2698099999975,
                    "velocity": 0.41732283464566927,
                    "duration": 0.40804776041665036
                },
                {
                    "name": "G#4",
                    "midi": 68,
                    "time": 276.68215299999747,
                    "velocity": 0.31496062992125984,
                    "duration": 0.05154287499999555
                },
                {
                    "name": "B4",
                    "midi": 71,
                    "time": 276.68215299999747,
                    "velocity": 0.3779527559055118,
                    "duration": 0.05154287499999555
                },
                {
                    "name": "G#4",
                    "midi": 68,
                    "time": 276.88832449999745,
                    "velocity": 0.31496062992125984,
                    "duration": 0.05154287499999555
                },
                {
                    "name": "B4",
                    "midi": 71,
                    "time": 276.88832449999745,
                    "velocity": 0.3779527559055118,
                    "duration": 0.05154287499999555
                },
                {
                    "name": "G#4",
                    "midi": 68,
                    "time": 277.09449599999743,
                    "velocity": 0.5984251968503937,
                    "duration": 0.40804776041665036
                },
                {
                    "name": "B4",
                    "midi": 71,
                    "time": 277.09449599999743,
                    "velocity": 0.5984251968503937,
                    "duration": 0.40804776041665036
                },
                {
                    "name": "C#5",
                    "midi": 73,
                    "time": 277.09449599999743,
                    "velocity": 0.6692913385826772,
                    "duration": 0.40804776041665036
                },
                {
                    "name": "G#5",
                    "midi": 80,
                    "time": 277.09449599999743,
                    "velocity": 0.7874015748031497,
                    "duration": 0.40804776041665036
                },
                {
                    "name": "G#4",
                    "midi": 68,
                    "time": 277.5068389999974,
                    "velocity": 0.3228346456692913,
                    "duration": 0.05154287499999555
                },
                {
                    "name": "B4",
                    "midi": 71,
                    "time": 277.5068389999974,
                    "velocity": 0.3858267716535433,
                    "duration": 0.05154287499999555
                },
                {
                    "name": "G#4",
                    "midi": 68,
                    "time": 277.7130104999974,
                    "velocity": 0.3228346456692913,
                    "duration": 0.05154287499999555
                },
                {
                    "name": "B4",
                    "midi": 71,
                    "time": 277.7130104999974,
                    "velocity": 0.3858267716535433,
                    "duration": 0.05154287499999555
                },
                {
                    "name": "G#4",
                    "midi": 68,
                    "time": 277.91918199999736,
                    "velocity": 0.3543307086614173,
                    "duration": 0.40804776041665036
                },
                {
                    "name": "B4",
                    "midi": 71,
                    "time": 277.91918199999736,
                    "velocity": 0.3543307086614173,
                    "duration": 0.40804776041665036
                },
                {
                    "name": "C#5",
                    "midi": 73,
                    "time": 277.91918199999736,
                    "velocity": 0.41732283464566927,
                    "duration": 0.40804776041665036
                },
                {
                    "name": "G#4",
                    "midi": 68,
                    "time": 278.3315249999973,
                    "velocity": 0.31496062992125984,
                    "duration": 0.05154287499999555
                },
                {
                    "name": "B4",
                    "midi": 71,
                    "time": 278.3315249999973,
                    "velocity": 0.31496062992125984,
                    "duration": 0.05154287499999555
                },
                {
                    "name": "C#5",
                    "midi": 73,
                    "time": 278.3315249999973,
                    "velocity": 0.3779527559055118,
                    "duration": 0.05154287499999555
                },
                {
                    "name": "G#4",
                    "midi": 68,
                    "time": 278.5376964999973,
                    "velocity": 0.31496062992125984,
                    "duration": 0.05154287499999555
                },
                {
                    "name": "B4",
                    "midi": 71,
                    "time": 278.5376964999973,
                    "velocity": 0.31496062992125984,
                    "duration": 0.05154287499999555
                },
                {
                    "name": "C#5",
                    "midi": 73,
                    "time": 278.5376964999973,
                    "velocity": 0.3779527559055118,
                    "duration": 0.05154287499999555
                },
                {
                    "name": "G#4",
                    "midi": 68,
                    "time": 278.7438679999973,
                    "velocity": 0.5984251968503937,
                    "duration": 0.40804776041665036
                },
                {
                    "name": "B4",
                    "midi": 71,
                    "time": 278.7438679999973,
                    "velocity": 0.5984251968503937,
                    "duration": 0.40804776041665036
                },
                {
                    "name": "D5",
                    "midi": 74,
                    "time": 278.7438679999973,
                    "velocity": 0.6692913385826772,
                    "duration": 0.40804776041665036
                },
                {
                    "name": "G#5",
                    "midi": 80,
                    "time": 278.7438679999973,
                    "velocity": 0.7874015748031497,
                    "duration": 0.40804776041665036
                },
                {
                    "name": "G#4",
                    "midi": 68,
                    "time": 279.15621099999726,
                    "velocity": 0.3228346456692913,
                    "duration": 0.05154287499999555
                },
                {
                    "name": "B4",
                    "midi": 71,
                    "time": 279.15621099999726,
                    "velocity": 0.3858267716535433,
                    "duration": 0.05154287499999555
                },
                {
                    "name": "G#4",
                    "midi": 68,
                    "time": 279.36238249999724,
                    "velocity": 0.3228346456692913,
                    "duration": 0.05154287499999555
                },
                {
                    "name": "B4",
                    "midi": 71,
                    "time": 279.36238249999724,
                    "velocity": 0.3858267716535433,
                    "duration": 0.05154287499999555
                },
                {
                    "name": "G#4",
                    "midi": 68,
                    "time": 279.5685539999972,
                    "velocity": 0.3543307086614173,
                    "duration": 0.40804776041665036
                },
                {
                    "name": "B4",
                    "midi": 71,
                    "time": 279.5685539999972,
                    "velocity": 0.3543307086614173,
                    "duration": 0.40804776041665036
                },
                {
                    "name": "D5",
                    "midi": 74,
                    "time": 279.5685539999972,
                    "velocity": 0.41732283464566927,
                    "duration": 0.40804776041665036
                },
                {
                    "name": "G#4",
                    "midi": 68,
                    "time": 279.9808969999972,
                    "velocity": 0.3228346456692913,
                    "duration": 0.05154287499999555
                },
                {
                    "name": "B4",
                    "midi": 71,
                    "time": 279.9808969999972,
                    "velocity": 0.3228346456692913,
                    "duration": 0.05154287499999555
                },
                {
                    "name": "D5",
                    "midi": 74,
                    "time": 279.9808969999972,
                    "velocity": 0.3858267716535433,
                    "duration": 0.05154287499999555
                },
                {
                    "name": "G#4",
                    "midi": 68,
                    "time": 280.18706849999717,
                    "velocity": 0.3228346456692913,
                    "duration": 0.05154287499999555
                },
                {
                    "name": "B4",
                    "midi": 71,
                    "time": 280.18706849999717,
                    "velocity": 0.3228346456692913,
                    "duration": 0.05154287499999555
                },
                {
                    "name": "D5",
                    "midi": 74,
                    "time": 280.18706849999717,
                    "velocity": 0.3858267716535433,
                    "duration": 0.05154287499999555
                },
                {
                    "name": "G#4",
                    "midi": 68,
                    "time": 280.39323999999715,
                    "velocity": 0.5984251968503937,
                    "duration": 0.40804776041665036
                },
                {
                    "name": "B4",
                    "midi": 71,
                    "time": 280.39323999999715,
                    "velocity": 0.5984251968503937,
                    "duration": 0.40804776041665036
                },
                {
                    "name": "C#5",
                    "midi": 73,
                    "time": 280.39323999999715,
                    "velocity": 0.6692913385826772,
                    "duration": 0.40804776041665036
                },
                {
                    "name": "G#5",
                    "midi": 80,
                    "time": 280.39323999999715,
                    "velocity": 0.7874015748031497,
                    "duration": 0.40804776041665036
                },
                {
                    "name": "G#4",
                    "midi": 68,
                    "time": 280.8055829999971,
                    "velocity": 0.2755905511811024,
                    "duration": 0.05154287499999555
                },
                {
                    "name": "B4",
                    "midi": 71,
                    "time": 280.8055829999971,
                    "velocity": 0.33070866141732286,
                    "duration": 0.05154287499999555
                },
                {
                    "name": "G#4",
                    "midi": 68,
                    "time": 281.0117544999971,
                    "velocity": 0.2755905511811024,
                    "duration": 0.05154287499999555
                },
                {
                    "name": "B4",
                    "midi": 71,
                    "time": 281.0117544999971,
                    "velocity": 0.33070866141732286,
                    "duration": 0.05154287499999555
                },
                {
                    "name": "G#4",
                    "midi": 68,
                    "time": 281.2179259999971,
                    "velocity": 0.30708661417322836,
                    "duration": 0.40804776041665036
                },
                {
                    "name": "B4",
                    "midi": 71,
                    "time": 281.2179259999971,
                    "velocity": 0.30708661417322836,
                    "duration": 0.40804776041665036
                },
                {
                    "name": "C#5",
                    "midi": 73,
                    "time": 281.2179259999971,
                    "velocity": 0.3700787401574803,
                    "duration": 0.40804776041665036
                },
                {
                    "name": "G#4",
                    "midi": 68,
                    "time": 281.63026899999704,
                    "velocity": 0.2755905511811024,
                    "duration": 0.05154287499999555
                },
                {
                    "name": "B4",
                    "midi": 71,
                    "time": 281.63026899999704,
                    "velocity": 0.2755905511811024,
                    "duration": 0.05154287499999555
                },
                {
                    "name": "C#5",
                    "midi": 73,
                    "time": 281.63026899999704,
                    "velocity": 0.33070866141732286,
                    "duration": 0.05154287499999555
                },
                {
                    "name": "G#4",
                    "midi": 68,
                    "time": 281.836440499997,
                    "velocity": 0.2755905511811024,
                    "duration": 0.05154287499999555
                },
                {
                    "name": "B4",
                    "midi": 71,
                    "time": 281.836440499997,
                    "velocity": 0.2755905511811024,
                    "duration": 0.05154287499999555
                },
                {
                    "name": "C#5",
                    "midi": 73,
                    "time": 281.836440499997,
                    "velocity": 0.33070866141732286,
                    "duration": 0.05154287499999555
                },
                {
                    "name": "G#4",
                    "midi": 68,
                    "time": 282.042611999997,
                    "velocity": 0.5984251968503937,
                    "duration": 0.40804776041665036
                },
                {
                    "name": "B4",
                    "midi": 71,
                    "time": 282.042611999997,
                    "velocity": 0.5984251968503937,
                    "duration": 0.40804776041665036
                },
                {
                    "name": "D5",
                    "midi": 74,
                    "time": 282.042611999997,
                    "velocity": 0.6692913385826772,
                    "duration": 0.40804776041665036
                },
                {
                    "name": "G#5",
                    "midi": 80,
                    "time": 282.042611999997,
                    "velocity": 0.7874015748031497,
                    "duration": 0.40804776041665036
                },
                {
                    "name": "G#4",
                    "midi": 68,
                    "time": 282.45495499999697,
                    "velocity": 0.31496062992125984,
                    "duration": 0.05154287499999555
                },
                {
                    "name": "B4",
                    "midi": 71,
                    "time": 282.45495499999697,
                    "velocity": 0.31496062992125984,
                    "duration": 0.05154287499999555
                },
                {
                    "name": "G#4",
                    "midi": 68,
                    "time": 282.66112649999695,
                    "velocity": 0.31496062992125984,
                    "duration": 0.05154287499999555
                },
                {
                    "name": "B4",
                    "midi": 71,
                    "time": 282.66112649999695,
                    "velocity": 0.31496062992125984,
                    "duration": 0.05154287499999555
                },
                {
                    "name": "G#4",
                    "midi": 68,
                    "time": 282.86729799999694,
                    "velocity": 0.30708661417322836,
                    "duration": 0.40804776041665036
                },
                {
                    "name": "B4",
                    "midi": 71,
                    "time": 282.86729799999694,
                    "velocity": 0.30708661417322836,
                    "duration": 0.40804776041665036
                },
                {
                    "name": "D5",
                    "midi": 74,
                    "time": 282.86729799999694,
                    "velocity": 0.36220472440944884,
                    "duration": 0.40804776041665036
                },
                {
                    "name": "G#4",
                    "midi": 68,
                    "time": 283.2796409999969,
                    "velocity": 0.2677165354330709,
                    "duration": 0.05154287499999555
                },
                {
                    "name": "B4",
                    "midi": 71,
                    "time": 283.2796409999969,
                    "velocity": 0.2677165354330709,
                    "duration": 0.05154287499999555
                },
                {
                    "name": "D5",
                    "midi": 74,
                    "time": 283.2796409999969,
                    "velocity": 0.31496062992125984,
                    "duration": 0.05154287499999555
                },
                {
                    "name": "G#4",
                    "midi": 68,
                    "time": 283.4858124999969,
                    "velocity": 0.2677165354330709,
                    "duration": 0.05154287499999555
                },
                {
                    "name": "B4",
                    "midi": 71,
                    "time": 283.4858124999969,
                    "velocity": 0.2677165354330709,
                    "duration": 0.05154287499999555
                },
                {
                    "name": "D5",
                    "midi": 74,
                    "time": 283.4858124999969,
                    "velocity": 0.3228346456692913,
                    "duration": 0.05154287499999555
                },
                {
                    "name": "G#4",
                    "midi": 68,
                    "time": 283.69198399999686,
                    "velocity": 0.5984251968503937,
                    "duration": 0.40804776041665036
                },
                {
                    "name": "B4",
                    "midi": 71,
                    "time": 283.69198399999686,
                    "velocity": 0.5984251968503937,
                    "duration": 0.40804776041665036
                },
                {
                    "name": "D5",
                    "midi": 74,
                    "time": 283.69198399999686,
                    "velocity": 0.6692913385826772,
                    "duration": 0.40804776041665036
                },
                {
                    "name": "G#5",
                    "midi": 80,
                    "time": 283.69198399999686,
                    "velocity": 0.7874015748031497,
                    "duration": 0.40804776041665036
                },
                {
                    "name": "B4",
                    "midi": 71,
                    "time": 284.10432699999683,
                    "velocity": 0.3779527559055118,
                    "duration": 0.05154287499999555
                },
                {
                    "name": "D5",
                    "midi": 74,
                    "time": 284.10432699999683,
                    "velocity": 0.3779527559055118,
                    "duration": 0.05154287499999555
                },
                {
                    "name": "B4",
                    "midi": 71,
                    "time": 284.3104984999968,
                    "velocity": 0.3779527559055118,
                    "duration": 0.05154287499999555
                },
                {
                    "name": "D5",
                    "midi": 74,
                    "time": 284.3104984999968,
                    "velocity": 0.3779527559055118,
                    "duration": 0.05154287499999555
                },
                {
                    "name": "G#4",
                    "midi": 68,
                    "time": 284.5166699999968,
                    "velocity": 0.5984251968503937,
                    "duration": 0.40804776041665036
                },
                {
                    "name": "B4",
                    "midi": 71,
                    "time": 284.5166699999968,
                    "velocity": 0.5984251968503937,
                    "duration": 0.40804776041665036
                },
                {
                    "name": "C#5",
                    "midi": 73,
                    "time": 284.5166699999968,
                    "velocity": 0.6692913385826772,
                    "duration": 0.40804776041665036
                },
                {
                    "name": "G#5",
                    "midi": 80,
                    "time": 284.5166699999968,
                    "velocity": 0.7874015748031497,
                    "duration": 0.40804776041665036
                },
                {
                    "name": "B4",
                    "midi": 71,
                    "time": 284.92901299999676,
                    "velocity": 0.3779527559055118,
                    "duration": 0.05154287499999555
                },
                {
                    "name": "C#5",
                    "midi": 73,
                    "time": 284.92901299999676,
                    "velocity": 0.3779527559055118,
                    "duration": 0.05154287499999555
                },
                {
                    "name": "B4",
                    "midi": 71,
                    "time": 285.13518449999674,
                    "velocity": 0.3779527559055118,
                    "duration": 0.05154287499999555
                },
                {
                    "name": "C#5",
                    "midi": 73,
                    "time": 285.13518449999674,
                    "velocity": 0.3779527559055118,
                    "duration": 0.05154287499999555
                },
                {
                    "name": "G#4",
                    "midi": 68,
                    "time": 285.3413559999967,
                    "velocity": 0.5590551181102362,
                    "duration": 0.40804776041665036
                },
                {
                    "name": "B4",
                    "midi": 71,
                    "time": 285.3413559999967,
                    "velocity": 0.5590551181102362,
                    "duration": 0.40804776041665036
                },
                {
                    "name": "C#5",
                    "midi": 73,
                    "time": 285.3413559999967,
                    "velocity": 0.5590551181102362,
                    "duration": 0.40804776041665036
                },
                {
                    "name": "G#5",
                    "midi": 80,
                    "time": 285.3413559999967,
                    "velocity": 0.6692913385826772,
                    "duration": 0.40804776041665036
                },
                {
                    "name": "B4",
                    "midi": 71,
                    "time": 285.7536989999967,
                    "velocity": 0.3779527559055118,
                    "duration": 0.05154287499999555
                },
                {
                    "name": "C#5",
                    "midi": 73,
                    "time": 285.7536989999967,
                    "velocity": 0.3779527559055118,
                    "duration": 0.05154287499999555
                },
                {
                    "name": "B4",
                    "midi": 71,
                    "time": 285.95987049999667,
                    "velocity": 0.3779527559055118,
                    "duration": 0.05154287499999555
                },
                {
                    "name": "C#5",
                    "midi": 73,
                    "time": 285.95987049999667,
                    "velocity": 0.3779527559055118,
                    "duration": 0.05154287499999555
                },
                {
                    "name": "F#4",
                    "midi": 66,
                    "time": 286.16604199999665,
                    "velocity": 0.5118110236220472,
                    "duration": 0.40804776041665036
                },
                {
                    "name": "A4",
                    "midi": 69,
                    "time": 286.16604199999665,
                    "velocity": 0.5118110236220472,
                    "duration": 0.40804776041665036
                },
                {
                    "name": "C#5",
                    "midi": 73,
                    "time": 286.16604199999665,
                    "velocity": 0.5118110236220472,
                    "duration": 0.40804776041665036
                },
                {
                    "name": "F#5",
                    "midi": 78,
                    "time": 286.16604199999665,
                    "velocity": 0.6141732283464567,
                    "duration": 0.40804776041665036
                },
                {
                    "name": "A4",
                    "midi": 69,
                    "time": 286.5783849999966,
                    "velocity": 0.3779527559055118,
                    "duration": 0.05154287499999555
                },
                {
                    "name": "C#5",
                    "midi": 73,
                    "time": 286.5783849999966,
                    "velocity": 0.3779527559055118,
                    "duration": 0.05154287499999555
                },
                {
                    "name": "A4",
                    "midi": 69,
                    "time": 286.7845564999966,
                    "velocity": 0.3779527559055118,
                    "duration": 0.05154287499999555
                },
                {
                    "name": "C#5",
                    "midi": 73,
                    "time": 286.7845564999966,
                    "velocity": 0.3779527559055118,
                    "duration": 0.05154287499999555
                },
                {
                    "name": "F#4",
                    "midi": 66,
                    "time": 286.9907279999966,
                    "velocity": 0.49606299212598426,
                    "duration": 0.40804776041665036
                },
                {
                    "name": "G#4",
                    "midi": 68,
                    "time": 286.9907279999966,
                    "velocity": 0.49606299212598426,
                    "duration": 0.40804776041665036
                },
                {
                    "name": "C#5",
                    "midi": 73,
                    "time": 286.9907279999966,
                    "velocity": 0.49606299212598426,
                    "duration": 0.40804776041665036
                },
                {
                    "name": "F#5",
                    "midi": 78,
                    "time": 286.9907279999966,
                    "velocity": 0.5984251968503937,
                    "duration": 0.40804776041665036
                },
                {
                    "name": "F#4",
                    "midi": 66,
                    "time": 287.40307099999654,
                    "velocity": 0.3779527559055118,
                    "duration": 0.05154287499999555
                },
                {
                    "name": "G#4",
                    "midi": 68,
                    "time": 287.40307099999654,
                    "velocity": 0.3779527559055118,
                    "duration": 0.05154287499999555
                },
                {
                    "name": "F#4",
                    "midi": 66,
                    "time": 287.6092424999965,
                    "velocity": 0.3779527559055118,
                    "duration": 0.05154287499999555
                },
                {
                    "name": "G#4",
                    "midi": 68,
                    "time": 287.6092424999965,
                    "velocity": 0.3779527559055118,
                    "duration": 0.05154287499999555
                },
                {
                    "name": "E4",
                    "midi": 64,
                    "time": 287.8154139999965,
                    "velocity": 0.48031496062992124,
                    "duration": 0.40804776041665036
                },
                {
                    "name": "G#4",
                    "midi": 68,
                    "time": 287.8154139999965,
                    "velocity": 0.48031496062992124,
                    "duration": 0.40804776041665036
                },
                {
                    "name": "C#5",
                    "midi": 73,
                    "time": 287.8154139999965,
                    "velocity": 0.48031496062992124,
                    "duration": 0.40804776041665036
                },
                {
                    "name": "E5",
                    "midi": 76,
                    "time": 287.8154139999965,
                    "velocity": 0.5748031496062992,
                    "duration": 0.40804776041665036
                },
                {
                    "name": "E4",
                    "midi": 64,
                    "time": 288.2277569999965,
                    "velocity": 0.3779527559055118,
                    "duration": 0.05154287499999555
                },
                {
                    "name": "G#4",
                    "midi": 68,
                    "time": 288.2277569999965,
                    "velocity": 0.3779527559055118,
                    "duration": 0.05154287499999555
                },
                {
                    "name": "E4",
                    "midi": 64,
                    "time": 288.43392849999645,
                    "velocity": 0.3779527559055118,
                    "duration": 0.05154287499999555
                },
                {
                    "name": "G#4",
                    "midi": 68,
                    "time": 288.43392849999645,
                    "velocity": 0.3779527559055118,
                    "duration": 0.05154287499999555
                },
                {
                    "name": "D#4",
                    "midi": 63,
                    "time": 288.64009999999644,
                    "velocity": 0.4645669291338583,
                    "duration": 0.40804776041665036
                },
                {
                    "name": "G#4",
                    "midi": 68,
                    "time": 288.64009999999644,
                    "velocity": 0.4645669291338583,
                    "duration": 0.40804776041665036
                },
                {
                    "name": "C5",
                    "midi": 72,
                    "time": 288.64009999999644,
                    "velocity": 0.4645669291338583,
                    "duration": 0.40804776041665036
                },
                {
                    "name": "D#5",
                    "midi": 75,
                    "time": 288.64009999999644,
                    "velocity": 0.5590551181102362,
                    "duration": 0.40804776041665036
                },
                {
                    "name": "D#4",
                    "midi": 63,
                    "time": 289.0524429999964,
                    "velocity": 0.3779527559055118,
                    "duration": 0.05154287499999555
                },
                {
                    "name": "C5",
                    "midi": 72,
                    "time": 289.0524429999964,
                    "velocity": 0.3779527559055118,
                    "duration": 0.05154287499999555
                },
                {
                    "name": "D#4",
                    "midi": 63,
                    "time": 289.2586144999964,
                    "velocity": 0.3779527559055118,
                    "duration": 0.05154287499999555
                },
                {
                    "name": "C5",
                    "midi": 72,
                    "time": 289.2586144999964,
                    "velocity": 0.3779527559055118,
                    "duration": 0.05154287499999555
                },
                {
                    "name": "D#4",
                    "midi": 63,
                    "time": 289.46478599999637,
                    "velocity": 0.4881889763779528,
                    "duration": 0.40804776041665036
                },
                {
                    "name": "G4",
                    "midi": 67,
                    "time": 289.46478599999637,
                    "velocity": 0.4881889763779528,
                    "duration": 0.40804776041665036
                },
                {
                    "name": "C#5",
                    "midi": 73,
                    "time": 289.46478599999637,
                    "velocity": 0.4881889763779528,
                    "duration": 0.40804776041665036
                },
                {
                    "name": "D#5",
                    "midi": 75,
                    "time": 289.46478599999637,
                    "velocity": 0.5826771653543307,
                    "duration": 0.40804776041665036
                },
                {
                    "name": "D#4",
                    "midi": 63,
                    "time": 289.87712899999633,
                    "velocity": 0.3779527559055118,
                    "duration": 0.05154287499999555
                },
                {
                    "name": "C#5",
                    "midi": 73,
                    "time": 289.87712899999633,
                    "velocity": 0.3779527559055118,
                    "duration": 0.05154287499999555
                },
                {
                    "name": "D#4",
                    "midi": 63,
                    "time": 290.0833004999963,
                    "velocity": 0.3779527559055118,
                    "duration": 0.05154287499999555
                },
                {
                    "name": "C#5",
                    "midi": 73,
                    "time": 290.0833004999963,
                    "velocity": 0.3779527559055118,
                    "duration": 0.05154287499999555
                },
                {
                    "name": "D#4",
                    "midi": 63,
                    "time": 290.2894719999963,
                    "velocity": 0.4645669291338583,
                    "duration": 0.40804776041665036
                },
                {
                    "name": "G#4",
                    "midi": 68,
                    "time": 290.2894719999963,
                    "velocity": 0.4645669291338583,
                    "duration": 0.40804776041665036
                },
                {
                    "name": "C5",
                    "midi": 72,
                    "time": 290.2894719999963,
                    "velocity": 0.4645669291338583,
                    "duration": 0.40804776041665036
                },
                {
                    "name": "D#5",
                    "midi": 75,
                    "time": 290.2894719999963,
                    "velocity": 0.5590551181102362,
                    "duration": 0.40804776041665036
                },
                {
                    "name": "C4",
                    "midi": 60,
                    "time": 290.70181499999626,
                    "velocity": 0.25196850393700787,
                    "duration": 0.05154287499999555
                },
                {
                    "name": "D#4",
                    "midi": 63,
                    "time": 290.70181499999626,
                    "velocity": 0.2992125984251969,
                    "duration": 0.05154287499999555
                },
                {
                    "name": "C4",
                    "midi": 60,
                    "time": 290.90798649999624,
                    "velocity": 0.2440944881889764,
                    "duration": 0.05154287499999555
                },
                {
                    "name": "D#4",
                    "midi": 63,
                    "time": 290.90798649999624,
                    "velocity": 0.29133858267716534,
                    "duration": 0.05154287499999555
                },
                {
                    "name": "C4",
                    "midi": 60,
                    "time": 291.1141579999962,
                    "velocity": 0.2992125984251969,
                    "duration": 0.40804776041665036
                },
                {
                    "name": "D#4",
                    "midi": 63,
                    "time": 291.1141579999962,
                    "velocity": 0.3543307086614173,
                    "duration": 0.40804776041665036
                },
                {
                    "name": "C4",
                    "midi": 60,
                    "time": 291.5265009999962,
                    "velocity": 0.2440944881889764,
                    "duration": 0.05154287499999555
                },
                {
                    "name": "D#4",
                    "midi": 63,
                    "time": 291.5265009999962,
                    "velocity": 0.29133858267716534,
                    "duration": 0.05154287499999555
                },
                {
                    "name": "C4",
                    "midi": 60,
                    "time": 291.73267249999617,
                    "velocity": 0.2440944881889764,
                    "duration": 0.05154287499999555
                },
                {
                    "name": "D#4",
                    "midi": 63,
                    "time": 291.73267249999617,
                    "velocity": 0.29133858267716534,
                    "duration": 0.05154287499999555
                },
                {
                    "name": "C#4",
                    "midi": 61,
                    "time": 291.93884399999615,
                    "velocity": 0.2992125984251969,
                    "duration": 0.40804776041665036
                },
                {
                    "name": "D#4",
                    "midi": 63,
                    "time": 291.93884399999615,
                    "velocity": 0.3543307086614173,
                    "duration": 0.40804776041665036
                },
                {
                    "name": "C#4",
                    "midi": 61,
                    "time": 292.3511869999961,
                    "velocity": 0.2204724409448819,
                    "duration": 0.05154287499999555
                },
                {
                    "name": "D#4",
                    "midi": 63,
                    "time": 292.3511869999961,
                    "velocity": 0.2677165354330709,
                    "duration": 0.05154287499999555
                },
                {
                    "name": "C#4",
                    "midi": 61,
                    "time": 292.5573584999961,
                    "velocity": 0.2204724409448819,
                    "duration": 0.05154287499999555
                },
                {
                    "name": "D#4",
                    "midi": 63,
                    "time": 292.5573584999961,
                    "velocity": 0.25984251968503935,
                    "duration": 0.05154287499999555
                },
                {
                    "name": "C#4",
                    "midi": 61,
                    "time": 292.7635299999961,
                    "velocity": 0.25984251968503935,
                    "duration": 0.40804776041665036
                },
                {
                    "name": "D#4",
                    "midi": 63,
                    "time": 292.7635299999961,
                    "velocity": 0.30708661417322836,
                    "duration": 0.40804776041665036
                },
                {
                    "name": "C#4",
                    "midi": 61,
                    "time": 293.17587299999605,
                    "velocity": 0.2204724409448819,
                    "duration": 0.05154287499999555
                },
                {
                    "name": "D#4",
                    "midi": 63,
                    "time": 293.17587299999605,
                    "velocity": 0.25984251968503935,
                    "duration": 0.05154287499999555
                },
                {
                    "name": "C#4",
                    "midi": 61,
                    "time": 293.382044499996,
                    "velocity": 0.2125984251968504,
                    "duration": 0.05154287499999555
                },
                {
                    "name": "D#4",
                    "midi": 63,
                    "time": 293.382044499996,
                    "velocity": 0.25984251968503935,
                    "duration": 0.05154287499999555
                },
                {
                    "name": "C4",
                    "midi": 60,
                    "time": 293.588215999996,
                    "velocity": 0.2204724409448819,
                    "duration": 0.40804776041665036
                },
                {
                    "name": "D#4",
                    "midi": 63,
                    "time": 293.588215999996,
                    "velocity": 0.2677165354330709,
                    "duration": 0.40804776041665036
                },
                {
                    "name": "C4",
                    "midi": 60,
                    "time": 294.000558999996,
                    "velocity": 0.1889763779527559,
                    "duration": 0.05154287499999555
                },
                {
                    "name": "D#4",
                    "midi": 63,
                    "time": 294.000558999996,
                    "velocity": 0.2204724409448819,
                    "duration": 0.05154287499999555
                },
                {
                    "name": "C4",
                    "midi": 60,
                    "time": 294.20673049999596,
                    "velocity": 0.18110236220472442,
                    "duration": 0.05154287499999555
                },
                {
                    "name": "D#4",
                    "midi": 63,
                    "time": 294.20673049999596,
                    "velocity": 0.2125984251968504,
                    "duration": 0.05154287499999555
                },
                {
                    "name": "C4",
                    "midi": 60,
                    "time": 294.41290199999594,
                    "velocity": 0.2204724409448819,
                    "duration": 0.40804776041665036
                },
                {
                    "name": "D#4",
                    "midi": 63,
                    "time": 294.41290199999594,
                    "velocity": 0.2677165354330709,
                    "duration": 0.40804776041665036
                },
                {
                    "name": "C4",
                    "midi": 60,
                    "time": 294.8252449999959,
                    "velocity": 0.18110236220472442,
                    "duration": 0.05154287499999555
                },
                {
                    "name": "D#4",
                    "midi": 63,
                    "time": 294.8252449999959,
                    "velocity": 0.2125984251968504,
                    "duration": 0.05154287499999555
                },
                {
                    "name": "C4",
                    "midi": 60,
                    "time": 295.0314164999959,
                    "velocity": 0.18110236220472442,
                    "duration": 0.05154287499999555
                },
                {
                    "name": "D#4",
                    "midi": 63,
                    "time": 295.0314164999959,
                    "velocity": 0.2125984251968504,
                    "duration": 0.05154287499999555
                },
                {
                    "name": "C#4",
                    "midi": 61,
                    "time": 295.23758799999587,
                    "velocity": 0.2204724409448819,
                    "duration": 0.40804776041665036
                },
                {
                    "name": "D#4",
                    "midi": 63,
                    "time": 295.23758799999587,
                    "velocity": 0.2677165354330709,
                    "duration": 0.40804776041665036
                },
                {
                    "name": "C#4",
                    "midi": 61,
                    "time": 295.64993099999583,
                    "velocity": 0.1732283464566929,
                    "duration": 0.05154287499999555
                },
                {
                    "name": "D#4",
                    "midi": 63,
                    "time": 295.64993099999583,
                    "velocity": 0.2125984251968504,
                    "duration": 0.05154287499999555
                },
                {
                    "name": "C#4",
                    "midi": 61,
                    "time": 295.8561024999958,
                    "velocity": 0.1732283464566929,
                    "duration": 0.05154287499999555
                },
                {
                    "name": "D#4",
                    "midi": 63,
                    "time": 295.8561024999958,
                    "velocity": 0.2125984251968504,
                    "duration": 0.05154287499999555
                },
                {
                    "name": "C#4",
                    "midi": 61,
                    "time": 296.0622739999958,
                    "velocity": 0.2125984251968504,
                    "duration": 0.40804776041665036
                },
                {
                    "name": "D#4",
                    "midi": 63,
                    "time": 296.0622739999958,
                    "velocity": 0.25196850393700787,
                    "duration": 0.40804776041665036
                },
                {
                    "name": "C#4",
                    "midi": 61,
                    "time": 296.47461699999576,
                    "velocity": 0.1889763779527559,
                    "duration": 0.05154287499999555
                },
                {
                    "name": "D#4",
                    "midi": 63,
                    "time": 296.47461699999576,
                    "velocity": 0.2204724409448819,
                    "duration": 0.05154287499999555
                },
                {
                    "name": "C#4",
                    "midi": 61,
                    "time": 296.68078849999574,
                    "velocity": 0.1889763779527559,
                    "duration": 0.05154287499999555
                },
                {
                    "name": "D#4",
                    "midi": 63,
                    "time": 296.68078849999574,
                    "velocity": 0.2204724409448819,
                    "duration": 0.05154287499999555
                },
                {
                    "name": "C4",
                    "midi": 60,
                    "time": 296.8869599999957,
                    "velocity": 0.2204724409448819,
                    "duration": 0.40804776041665036
                },
                {
                    "name": "D#4",
                    "midi": 63,
                    "time": 296.8869599999957,
                    "velocity": 0.2677165354330709,
                    "duration": 0.40804776041665036
                },
                {
                    "name": "G#3",
                    "midi": 56,
                    "time": 297.2993029999957,
                    "velocity": 0.18110236220472442,
                    "duration": 0.1030857499999911
                },
                {
                    "name": "G#4",
                    "midi": 68,
                    "time": 297.2993029999957,
                    "velocity": 0.2204724409448819,
                    "duration": 0.1030857499999911
                },
                {
                    "name": "G#3",
                    "midi": 56,
                    "time": 297.50547449999567,
                    "velocity": 0.18110236220472442,
                    "duration": 0.1030857499999911
                },
                {
                    "name": "G#4",
                    "midi": 68,
                    "time": 297.50547449999567,
                    "velocity": 0.2204724409448819,
                    "duration": 0.1030857499999911
                },
                {
                    "name": "G#3",
                    "midi": 56,
                    "time": 297.71164599999565,
                    "velocity": 0.2047244094488189,
                    "duration": 0.4123430000000212
                },
                {
                    "name": "G#4",
                    "midi": 68,
                    "time": 297.71164599999565,
                    "velocity": 0.2440944881889764,
                    "duration": 0.4123430000000212
                },
                {
                    "name": "G#3",
                    "midi": 56,
                    "time": 298.94867499999566,
                    "velocity": 0.18110236220472442,
                    "duration": 0.1030857499999911
                },
                {
                    "name": "G#4",
                    "midi": 68,
                    "time": 298.94867499999566,
                    "velocity": 0.2204724409448819,
                    "duration": 0.1030857499999911
                },
                {
                    "name": "G#3",
                    "midi": 56,
                    "time": 299.15484649999564,
                    "velocity": 0.18110236220472442,
                    "duration": 0.1030857499999911
                },
                {
                    "name": "G#4",
                    "midi": 68,
                    "time": 299.15484649999564,
                    "velocity": 0.2204724409448819,
                    "duration": 0.1030857499999911
                },
                {
                    "name": "G#3",
                    "midi": 56,
                    "time": 299.3610179999956,
                    "velocity": 0.2047244094488189,
                    "duration": 0.4123430000000212
                },
                {
                    "name": "G#4",
                    "midi": 68,
                    "time": 299.3610179999956,
                    "velocity": 0.2440944881889764,
                    "duration": 0.4123430000000212
                },
                {
                    "name": "G#3",
                    "midi": 56,
                    "time": 300.59804699999563,
                    "velocity": 0.18110236220472442,
                    "duration": 0.1030857499999911
                },
                {
                    "name": "G#4",
                    "midi": 68,
                    "time": 300.59804699999563,
                    "velocity": 0.2204724409448819,
                    "duration": 0.1030857499999911
                },
                {
                    "name": "G#3",
                    "midi": 56,
                    "time": 300.8042184999956,
                    "velocity": 0.18110236220472442,
                    "duration": 0.1030857499999911
                },
                {
                    "name": "G#4",
                    "midi": 68,
                    "time": 300.8042184999956,
                    "velocity": 0.2204724409448819,
                    "duration": 0.1030857499999911
                },
                {
                    "name": "G#3",
                    "midi": 56,
                    "time": 301.0103899999956,
                    "velocity": 0.2047244094488189,
                    "duration": 0.4123430000000212
                },
                {
                    "name": "G#4",
                    "midi": 68,
                    "time": 301.0103899999956,
                    "velocity": 0.2440944881889764,
                    "duration": 0.4123430000000212
                },
                {
                    "name": "G#3",
                    "midi": 56,
                    "time": 302.2474189999956,
                    "velocity": 0.18110236220472442,
                    "duration": 0.1030857499999911
                },
                {
                    "name": "G#4",
                    "midi": 68,
                    "time": 302.2474189999956,
                    "velocity": 0.2204724409448819,
                    "duration": 0.1030857499999911
                },
                {
                    "name": "G#3",
                    "midi": 56,
                    "time": 302.4535904999956,
                    "velocity": 0.18110236220472442,
                    "duration": 0.1030857499999911
                },
                {
                    "name": "G#4",
                    "midi": 68,
                    "time": 302.4535904999956,
                    "velocity": 0.2204724409448819,
                    "duration": 0.1030857499999911
                },
                {
                    "name": "G#3",
                    "midi": 56,
                    "time": 302.65976199999557,
                    "velocity": 0.2047244094488189,
                    "duration": 0.4123430000000212
                },
                {
                    "name": "G#4",
                    "midi": 68,
                    "time": 302.65976199999557,
                    "velocity": 0.2440944881889764,
                    "duration": 0.4123430000000212
                },
                {
                    "name": "F#4",
                    "midi": 66,
                    "time": 303.8967909999956,
                    "velocity": 0.18110236220472442,
                    "duration": 0.1030857499999911
                },
                {
                    "name": "G#3",
                    "midi": 56,
                    "time": 303.8967909999956,
                    "velocity": 0.18110236220472442,
                    "duration": 0.1030857499999911
                },
                {
                    "name": "G#4",
                    "midi": 68,
                    "time": 303.8967909999956,
                    "velocity": 0.2204724409448819,
                    "duration": 0.1030857499999911
                },
                {
                    "name": "F#4",
                    "midi": 66,
                    "time": 304.10296249999556,
                    "velocity": 0.18110236220472442,
                    "duration": 0.1030857499999911
                },
                {
                    "name": "G#3",
                    "midi": 56,
                    "time": 304.10296249999556,
                    "velocity": 0.18110236220472442,
                    "duration": 0.1030857499999911
                },
                {
                    "name": "G#4",
                    "midi": 68,
                    "time": 304.10296249999556,
                    "velocity": 0.2204724409448819,
                    "duration": 0.1030857499999911
                },
                {
                    "name": "F#4",
                    "midi": 66,
                    "time": 304.30913399999554,
                    "velocity": 0.2047244094488189,
                    "duration": 0.4123430000000212
                },
                {
                    "name": "G#3",
                    "midi": 56,
                    "time": 304.30913399999554,
                    "velocity": 0.2047244094488189,
                    "duration": 0.4123430000000212
                },
                {
                    "name": "G#4",
                    "midi": 68,
                    "time": 304.30913399999554,
                    "velocity": 0.2440944881889764,
                    "duration": 0.4123430000000212
                },
                {
                    "name": "F#4",
                    "midi": 66,
                    "time": 305.54616299999554,
                    "velocity": 0.18110236220472442,
                    "duration": 0.1030857499999911
                },
                {
                    "name": "G#3",
                    "midi": 56,
                    "time": 305.54616299999554,
                    "velocity": 0.18110236220472442,
                    "duration": 0.1030857499999911
                },
                {
                    "name": "G#4",
                    "midi": 68,
                    "time": 305.54616299999554,
                    "velocity": 0.2204724409448819,
                    "duration": 0.1030857499999911
                },
                {
                    "name": "F#4",
                    "midi": 66,
                    "time": 305.7523344999955,
                    "velocity": 0.18110236220472442,
                    "duration": 0.1030857499999911
                },
                {
                    "name": "G#3",
                    "midi": 56,
                    "time": 305.7523344999955,
                    "velocity": 0.18110236220472442,
                    "duration": 0.1030857499999911
                },
                {
                    "name": "G#4",
                    "midi": 68,
                    "time": 305.7523344999955,
                    "velocity": 0.2204724409448819,
                    "duration": 0.1030857499999911
                },
                {
                    "name": "F#4",
                    "midi": 66,
                    "time": 306.37084899999553,
                    "velocity": 0.18110236220472442,
                    "duration": 0.1030857499999911
                },
                {
                    "name": "G#3",
                    "midi": 56,
                    "time": 306.37084899999553,
                    "velocity": 0.18110236220472442,
                    "duration": 0.1030857499999911
                },
                {
                    "name": "G#4",
                    "midi": 68,
                    "time": 306.37084899999553,
                    "velocity": 0.2204724409448819,
                    "duration": 0.1030857499999911
                },
                {
                    "name": "F#4",
                    "midi": 66,
                    "time": 306.5770204999955,
                    "velocity": 0.18110236220472442,
                    "duration": 0.1030857499999911
                },
                {
                    "name": "G#3",
                    "midi": 56,
                    "time": 306.5770204999955,
                    "velocity": 0.18110236220472442,
                    "duration": 0.1030857499999911
                },
                {
                    "name": "G#4",
                    "midi": 68,
                    "time": 306.5770204999955,
                    "velocity": 0.2204724409448819,
                    "duration": 0.1030857499999911
                },
                {
                    "name": "F#4",
                    "midi": 66,
                    "time": 307.1955349999955,
                    "velocity": 0.1732283464566929,
                    "duration": 0.4123430000000212
                },
                {
                    "name": "G#3",
                    "midi": 56,
                    "time": 307.1955349999955,
                    "velocity": 0.1732283464566929,
                    "duration": 0.4123430000000212
                },
                {
                    "name": "G#4",
                    "midi": 68,
                    "time": 307.1955349999955,
                    "velocity": 0.2125984251968504,
                    "duration": 0.4123430000000212
                },
                {
                    "name": "F#4",
                    "midi": 66,
                    "time": 308.02022099999556,
                    "velocity": 0.16535433070866143,
                    "duration": 0.4123430000000212
                },
                {
                    "name": "G#3",
                    "midi": 56,
                    "time": 308.02022099999556,
                    "velocity": 0.16535433070866143,
                    "duration": 0.4123430000000212
                },
                {
                    "name": "G#4",
                    "midi": 68,
                    "time": 308.02022099999556,
                    "velocity": 0.2047244094488189,
                    "duration": 0.4123430000000212
                },
                {
                    "name": "F#4",
                    "midi": 66,
                    "time": 308.8449069999956,
                    "velocity": 0.15748031496062992,
                    "duration": 0.4123430000000212
                },
                {
                    "name": "A3",
                    "midi": 57,
                    "time": 308.8449069999956,
                    "velocity": 0.15748031496062992,
                    "duration": 0.4123430000000212
                },
                {
                    "name": "A4",
                    "midi": 69,
                    "time": 308.8449069999956,
                    "velocity": 0.1968503937007874,
                    "duration": 0.4123430000000212
                },
                {
                    "name": "F#4",
                    "midi": 66,
                    "time": 309.66959299999564,
                    "velocity": 0.15748031496062992,
                    "duration": 0.4123430000000212
                },
                {
                    "name": "G#3",
                    "midi": 56,
                    "time": 309.66959299999564,
                    "velocity": 0.15748031496062992,
                    "duration": 0.4123430000000212
                },
                {
                    "name": "G#4",
                    "midi": 68,
                    "time": 309.66959299999564,
                    "velocity": 0.1889763779527559,
                    "duration": 0.4123430000000212
                }
            ],
            "controlChanges": {
                "7": [
                    {
                        "number": 7,
                        "time": 0,
                        "value": 0.7874015748031497
                    }
                ],
                "10": [
                    {
                        "number": 10,
                        "time": 0,
                        "value": 0.5039370078740157
                    }
                ],
                "91": [
                    {
                        "number": 91,
                        "time": 0,
                        "value": 1
                    },
                    {
                        "number": 91,
                        "time": 4.948116,
                        "value": 1
                    },
                    {
                        "number": 91,
                        "time": 28.039324000000082,
                        "value": 1
                    },
                    {
                        "number": 91,
                        "time": 32.98744000000011,
                        "value": 1
                    },
                    {
                        "number": 91,
                        "time": 113.8066680000004,
                        "value": 1
                    },
                    {
                        "number": 91,
                        "time": 118.75478400000036,
                        "value": 1
                    },
                    {
                        "number": 91,
                        "time": 216.06773199999967,
                        "value": 1
                    },
                    {
                        "number": 91,
                        "time": 219.3664759999995,
                        "value": 1
                    },
                    {
                        "number": 91,
                        "time": 222.66521999999932,
                        "value": 1
                    },
                    {
                        "number": 91,
                        "time": 225.96396399999915,
                        "value": 1
                    },
                    {
                        "number": 91,
                        "time": 229.26270799999898,
                        "value": 1
                    },
                    {
                        "number": 91,
                        "time": 230.91207999999895,
                        "value": 1
                    },
                    {
                        "number": 91,
                        "time": 232.56145199999892,
                        "value": 1
                    }
                ]
            },
            "id": 1,
            "name": "Piano right",
            "instrumentNumber": 0,
            "instrument": "acoustic grand piano",
            "instrumentFamily": "piano",
            "channelNumber": 0,
            "isPercussion": false
        },
        {
            "startTime": 0,
            "duration": 309.66959299999417,
            "length": 2073,
            "notes": [
                {
                    "name": "C2",
                    "midi": 36,
                    "time": 0,
                    "velocity": 0.4330708661417323,
                    "duration": 0.41234299999999996
                },
                {
                    "name": "G2",
                    "midi": 43,
                    "time": 0,
                    "velocity": 0.4330708661417323,
                    "duration": 0.41234299999999996
                },
                {
                    "name": "C3",
                    "midi": 48,
                    "time": 0,
                    "velocity": 0.5039370078740157,
                    "duration": 0.41234299999999996
                },
                {
                    "name": "C2",
                    "midi": 36,
                    "time": 0.41234299999999996,
                    "velocity": 0.3858267716535433,
                    "duration": 0.10308575000000003
                },
                {
                    "name": "G2",
                    "midi": 43,
                    "time": 0.41234299999999996,
                    "velocity": 0.3858267716535433,
                    "duration": 0.10308575000000003
                },
                {
                    "name": "C3",
                    "midi": 48,
                    "time": 0.41234299999999996,
                    "velocity": 0.4645669291338583,
                    "duration": 0.10308575000000003
                },
                {
                    "name": "C2",
                    "midi": 36,
                    "time": 0.6185145,
                    "velocity": 0.3858267716535433,
                    "duration": 0.10308574999999998
                },
                {
                    "name": "G2",
                    "midi": 43,
                    "time": 0.6185145,
                    "velocity": 0.3858267716535433,
                    "duration": 0.10308574999999998
                },
                {
                    "name": "C3",
                    "midi": 48,
                    "time": 0.6185145,
                    "velocity": 0.4645669291338583,
                    "duration": 0.10308574999999998
                },
                {
                    "name": "C2",
                    "midi": 36,
                    "time": 0.8246859999999999,
                    "velocity": 0.4409448818897638,
                    "duration": 0.412343
                },
                {
                    "name": "G2",
                    "midi": 43,
                    "time": 0.8246859999999999,
                    "velocity": 0.4409448818897638,
                    "duration": 0.412343
                },
                {
                    "name": "C3",
                    "midi": 48,
                    "time": 0.8246859999999999,
                    "velocity": 0.5196850393700787,
                    "duration": 0.412343
                },
                {
                    "name": "C2",
                    "midi": 36,
                    "time": 1.237029,
                    "velocity": 0.3937007874015748,
                    "duration": 0.10308574999999998
                },
                {
                    "name": "G2",
                    "midi": 43,
                    "time": 1.237029,
                    "velocity": 0.3937007874015748,
                    "duration": 0.10308574999999998
                },
                {
                    "name": "C3",
                    "midi": 48,
                    "time": 1.237029,
                    "velocity": 0.47244094488188976,
                    "duration": 0.10308574999999998
                },
                {
                    "name": "C2",
                    "midi": 36,
                    "time": 1.4432004999999999,
                    "velocity": 0.3937007874015748,
                    "duration": 0.10308574999999998
                },
                {
                    "name": "G2",
                    "midi": 43,
                    "time": 1.4432004999999999,
                    "velocity": 0.3937007874015748,
                    "duration": 0.10308574999999998
                },
                {
                    "name": "C3",
                    "midi": 48,
                    "time": 1.4432004999999999,
                    "velocity": 0.47244094488188976,
                    "duration": 0.10308574999999998
                },
                {
                    "name": "C2",
                    "midi": 36,
                    "time": 1.6493719999999998,
                    "velocity": 0.4409448818897638,
                    "duration": 0.20617149999999995
                },
                {
                    "name": "G2",
                    "midi": 43,
                    "time": 1.6493719999999998,
                    "velocity": 0.4409448818897638,
                    "duration": 0.20617149999999995
                },
                {
                    "name": "C3",
                    "midi": 48,
                    "time": 1.6493719999999998,
                    "velocity": 0.5196850393700787,
                    "duration": 0.20617149999999995
                },
                {
                    "name": "G1",
                    "midi": 31,
                    "time": 3.2987439999999997,
                    "velocity": 0.44881889763779526,
                    "duration": 0.20617149999999995
                },
                {
                    "name": "G2",
                    "midi": 43,
                    "time": 3.2987439999999997,
                    "velocity": 0.5354330708661418,
                    "duration": 0.20617149999999995
                },
                {
                    "name": "G2",
                    "midi": 43,
                    "time": 3.7110869999999996,
                    "velocity": 0.44881889763779526,
                    "duration": 0.20617149999999995
                },
                {
                    "name": "G3",
                    "midi": 55,
                    "time": 3.7110869999999996,
                    "velocity": 0.5354330708661418,
                    "duration": 0.20617149999999995
                },
                {
                    "name": "G1",
                    "midi": 31,
                    "time": 4.948116,
                    "velocity": 0.3700787401574803,
                    "duration": 0.4123429999999999
                },
                {
                    "name": "G2",
                    "midi": 43,
                    "time": 4.948116,
                    "velocity": 0.4409448818897638,
                    "duration": 0.4123429999999999
                },
                {
                    "name": "G1",
                    "midi": 31,
                    "time": 5.360459,
                    "velocity": 0.33070866141732286,
                    "duration": 0.10308574999999998
                },
                {
                    "name": "G2",
                    "midi": 43,
                    "time": 5.360459,
                    "velocity": 0.4015748031496063,
                    "duration": 0.10308574999999998
                },
                {
                    "name": "G1",
                    "midi": 31,
                    "time": 5.5666305,
                    "velocity": 0.33070866141732286,
                    "duration": 0.10308574999999998
                },
                {
                    "name": "G2",
                    "midi": 43,
                    "time": 5.5666305,
                    "velocity": 0.4015748031496063,
                    "duration": 0.10308574999999998
                },
                {
                    "name": "G1",
                    "midi": 31,
                    "time": 5.7728019999999995,
                    "velocity": 0.3779527559055118,
                    "duration": 0.4123429999999999
                },
                {
                    "name": "G2",
                    "midi": 43,
                    "time": 5.7728019999999995,
                    "velocity": 0.44881889763779526,
                    "duration": 0.4123429999999999
                },
                {
                    "name": "G1",
                    "midi": 31,
                    "time": 6.1851449999999994,
                    "velocity": 0.33858267716535434,
                    "duration": 0.10308574999999998
                },
                {
                    "name": "G2",
                    "midi": 43,
                    "time": 6.1851449999999994,
                    "velocity": 0.4094488188976378,
                    "duration": 0.10308574999999998
                },
                {
                    "name": "G1",
                    "midi": 31,
                    "time": 6.391316499999999,
                    "velocity": 0.33858267716535434,
                    "duration": 0.10308574999999998
                },
                {
                    "name": "G2",
                    "midi": 43,
                    "time": 6.391316499999999,
                    "velocity": 0.4094488188976378,
                    "duration": 0.10308574999999998
                },
                {
                    "name": "G1",
                    "midi": 31,
                    "time": 6.597487999999999,
                    "velocity": 0.3779527559055118,
                    "duration": 0.20617149999999995
                },
                {
                    "name": "G2",
                    "midi": 43,
                    "time": 6.597487999999999,
                    "velocity": 0.44881889763779526,
                    "duration": 0.20617149999999995
                },
                {
                    "name": "G2",
                    "midi": 43,
                    "time": 8.246859999999998,
                    "velocity": 0.4094488188976378,
                    "duration": 0.20617149999999995
                },
                {
                    "name": "C2",
                    "midi": 36,
                    "time": 8.246859999999998,
                    "velocity": 0.4094488188976378,
                    "duration": 0.20617149999999995
                },
                {
                    "name": "C3",
                    "midi": 48,
                    "time": 8.246859999999998,
                    "velocity": 0.4881889763779528,
                    "duration": 0.20617149999999995
                },
                {
                    "name": "G3",
                    "midi": 55,
                    "time": 8.659202999999998,
                    "velocity": 0.3937007874015748,
                    "duration": 0.20617149999999995
                },
                {
                    "name": "C3",
                    "midi": 48,
                    "time": 8.659202999999998,
                    "velocity": 0.3937007874015748,
                    "duration": 0.20617149999999995
                },
                {
                    "name": "C4",
                    "midi": 60,
                    "time": 8.659202999999998,
                    "velocity": 0.47244094488188976,
                    "duration": 0.20617149999999995
                },
                {
                    "name": "C2",
                    "midi": 36,
                    "time": 9.896231999999998,
                    "velocity": 0.3937007874015748,
                    "duration": 0.8246859999999998
                },
                {
                    "name": "C3",
                    "midi": 48,
                    "time": 9.896231999999998,
                    "velocity": 0.47244094488188976,
                    "duration": 0.8246859999999998
                },
                {
                    "name": "B1",
                    "midi": 35,
                    "time": 10.720917999999998,
                    "velocity": 0.3464566929133858,
                    "duration": 0.4123429999999999
                },
                {
                    "name": "B2",
                    "midi": 47,
                    "time": 10.720917999999998,
                    "velocity": 0.41732283464566927,
                    "duration": 0.4123429999999999
                },
                {
                    "name": "B2",
                    "midi": 47,
                    "time": 11.133260999999997,
                    "velocity": 0.44881889763779526,
                    "duration": 0.20617149999999995
                },
                {
                    "name": "B3",
                    "midi": 59,
                    "time": 11.133260999999997,
                    "velocity": 0.5511811023622047,
                    "duration": 0.20617149999999995
                },
                {
                    "name": "B2",
                    "midi": 47,
                    "time": 11.339432499999997,
                    "velocity": 0.41732283464566927,
                    "duration": 0.20617149999999995
                },
                {
                    "name": "B3",
                    "midi": 59,
                    "time": 11.339432499999997,
                    "velocity": 0.5118110236220472,
                    "duration": 0.20617149999999995
                },
                {
                    "name": "A2",
                    "midi": 45,
                    "time": 11.545603999999997,
                    "velocity": 0.49606299212598426,
                    "duration": 0.40804776041666635
                },
                {
                    "name": "A3",
                    "midi": 57,
                    "time": 11.545603999999997,
                    "velocity": 0.5669291338582677,
                    "duration": 0.40804776041666635
                },
                {
                    "name": "D2",
                    "midi": 38,
                    "time": 11.957946999999997,
                    "velocity": 0.3937007874015748,
                    "duration": 0.4123429999999999
                },
                {
                    "name": "D3",
                    "midi": 50,
                    "time": 11.957946999999997,
                    "velocity": 0.48031496062992124,
                    "duration": 0.4123429999999999
                },
                {
                    "name": "G2",
                    "midi": 43,
                    "time": 12.370289999999997,
                    "velocity": 0.3779527559055118,
                    "duration": 0.20617149999999995
                },
                {
                    "name": "G3",
                    "midi": 55,
                    "time": 12.370289999999997,
                    "velocity": 0.4645669291338583,
                    "duration": 0.20445340416666724
                },
                {
                    "name": "C2",
                    "midi": 36,
                    "time": 13.194975999999997,
                    "velocity": 0.3937007874015748,
                    "duration": 0.8246859999999998
                },
                {
                    "name": "C3",
                    "midi": 48,
                    "time": 13.194975999999997,
                    "velocity": 0.47244094488188976,
                    "duration": 0.8246859999999998
                },
                {
                    "name": "B1",
                    "midi": 35,
                    "time": 14.019661999999997,
                    "velocity": 0.3464566929133858,
                    "duration": 0.4123429999999999
                },
                {
                    "name": "B2",
                    "midi": 47,
                    "time": 14.019661999999997,
                    "velocity": 0.41732283464566927,
                    "duration": 0.4123429999999999
                },
                {
                    "name": "B2",
                    "midi": 47,
                    "time": 14.432004999999997,
                    "velocity": 0.4330708661417323,
                    "duration": 0.19586292500000013
                },
                {
                    "name": "B3",
                    "midi": 59,
                    "time": 14.432004999999997,
                    "velocity": 0.5275590551181102,
                    "duration": 0.19586292500000013
                },
                {
                    "name": "B2",
                    "midi": 47,
                    "time": 14.638176499999997,
                    "velocity": 0.41732283464566927,
                    "duration": 0.19586292500000013
                },
                {
                    "name": "B3",
                    "midi": 59,
                    "time": 14.638176499999997,
                    "velocity": 0.5118110236220472,
                    "duration": 0.19586292500000013
                },
                {
                    "name": "A2",
                    "midi": 45,
                    "time": 14.844347999999997,
                    "velocity": 0.49606299212598426,
                    "duration": 0.40804776041666635
                },
                {
                    "name": "A3",
                    "midi": 57,
                    "time": 14.844347999999997,
                    "velocity": 0.5669291338582677,
                    "duration": 0.40804776041666635
                },
                {
                    "name": "D2",
                    "midi": 38,
                    "time": 15.256690999999996,
                    "velocity": 0.3937007874015748,
                    "duration": 0.4123429999999999
                },
                {
                    "name": "D3",
                    "midi": 50,
                    "time": 15.256690999999996,
                    "velocity": 0.48031496062992124,
                    "duration": 0.4123429999999999
                },
                {
                    "name": "G2",
                    "midi": 43,
                    "time": 15.669033999999996,
                    "velocity": 0.3779527559055118,
                    "duration": 0.20617149999999995
                },
                {
                    "name": "G3",
                    "midi": 55,
                    "time": 15.669033999999996,
                    "velocity": 0.4645669291338583,
                    "duration": 0.20617149999999995
                },
                {
                    "name": "F2",
                    "midi": 41,
                    "time": 16.493719999999996,
                    "velocity": 0.3937007874015748,
                    "duration": 0.8246859999999998
                },
                {
                    "name": "F3",
                    "midi": 53,
                    "time": 16.493719999999996,
                    "velocity": 0.47244094488188976,
                    "duration": 0.8246859999999998
                },
                {
                    "name": "E2",
                    "midi": 40,
                    "time": 17.318405999999996,
                    "velocity": 0.3464566929133858,
                    "duration": 0.41234300000000346
                },
                {
                    "name": "E3",
                    "midi": 52,
                    "time": 17.318405999999996,
                    "velocity": 0.41732283464566927,
                    "duration": 0.41234300000000346
                },
                {
                    "name": "E3",
                    "midi": 52,
                    "time": 17.730749,
                    "velocity": 0.44881889763779526,
                    "duration": 0.19586292500000013
                },
                {
                    "name": "E4",
                    "midi": 64,
                    "time": 17.730749,
                    "velocity": 0.5511811023622047,
                    "duration": 0.19586292500000013
                },
                {
                    "name": "E3",
                    "midi": 52,
                    "time": 17.9369205,
                    "velocity": 0.41732283464566927,
                    "duration": 0.19586292500000013
                },
                {
                    "name": "E4",
                    "midi": 64,
                    "time": 17.9369205,
                    "velocity": 0.5118110236220472,
                    "duration": 0.19586292500000013
                },
                {
                    "name": "D3",
                    "midi": 50,
                    "time": 18.143092,
                    "velocity": 0.49606299212598426,
                    "duration": 0.4080477604166681
                },
                {
                    "name": "D4",
                    "midi": 62,
                    "time": 18.143092,
                    "velocity": 0.5669291338582677,
                    "duration": 0.4080477604166681
                },
                {
                    "name": "G2",
                    "midi": 43,
                    "time": 18.555435,
                    "velocity": 0.4251968503937008,
                    "duration": 0.4123429999999999
                },
                {
                    "name": "G3",
                    "midi": 55,
                    "time": 18.555435,
                    "velocity": 0.5275590551181102,
                    "duration": 0.4123429999999999
                },
                {
                    "name": "C3",
                    "midi": 48,
                    "time": 18.967778,
                    "velocity": 0.4094488188976378,
                    "duration": 0.4123429999999999
                },
                {
                    "name": "C4",
                    "midi": 60,
                    "time": 18.967778,
                    "velocity": 0.5118110236220472,
                    "duration": 0.4123429999999999
                },
                {
                    "name": "F2",
                    "midi": 41,
                    "time": 19.380121,
                    "velocity": 0.44881889763779526,
                    "duration": 0.19586292500000013
                },
                {
                    "name": "F3",
                    "midi": 53,
                    "time": 19.380121,
                    "velocity": 0.5511811023622047,
                    "duration": 0.19586292500000013
                },
                {
                    "name": "F2",
                    "midi": 41,
                    "time": 19.5862925,
                    "velocity": 0.41732283464566927,
                    "duration": 0.19586292500000013
                },
                {
                    "name": "F3",
                    "midi": 53,
                    "time": 19.5862925,
                    "velocity": 0.5118110236220472,
                    "duration": 0.19586292500000013
                },
                {
                    "name": "B2",
                    "midi": 47,
                    "time": 19.792464,
                    "velocity": 0.4881889763779528,
                    "duration": 0.4123429999999999
                },
                {
                    "name": "B3",
                    "midi": 59,
                    "time": 19.792464,
                    "velocity": 0.5590551181102362,
                    "duration": 0.4123429999999999
                },
                {
                    "name": "E2",
                    "midi": 40,
                    "time": 20.204807,
                    "velocity": 0.41732283464566927,
                    "duration": 0.4123429999999999
                },
                {
                    "name": "E3",
                    "midi": 52,
                    "time": 20.204807,
                    "velocity": 0.5118110236220472,
                    "duration": 0.4123429999999999
                },
                {
                    "name": "A2",
                    "midi": 45,
                    "time": 20.61715,
                    "velocity": 0.4015748031496063,
                    "duration": 0.4123429999999999
                },
                {
                    "name": "A3",
                    "midi": 57,
                    "time": 20.61715,
                    "velocity": 0.49606299212598426,
                    "duration": 0.4123429999999999
                },
                {
                    "name": "A1",
                    "midi": 33,
                    "time": 21.029493,
                    "velocity": 0.3464566929133858,
                    "duration": 0.10308575000000175
                },
                {
                    "name": "A2",
                    "midi": 45,
                    "time": 21.029493,
                    "velocity": 0.41732283464566927,
                    "duration": 0.10308575000000175
                },
                {
                    "name": "G1",
                    "midi": 31,
                    "time": 21.235664500000002,
                    "velocity": 0.31496062992125984,
                    "duration": 0.10308575000000175
                },
                {
                    "name": "G2",
                    "midi": 43,
                    "time": 21.235664500000002,
                    "velocity": 0.3858267716535433,
                    "duration": 0.10308575000000175
                },
                {
                    "name": "F1",
                    "midi": 29,
                    "time": 21.441836000000006,
                    "velocity": 0.2677165354330709,
                    "duration": 0.10308575000000175
                },
                {
                    "name": "F2",
                    "midi": 41,
                    "time": 21.544921750000007,
                    "velocity": 0.2755905511811024,
                    "duration": 0.10308575000000175
                },
                {
                    "name": "F1",
                    "midi": 29,
                    "time": 21.64800750000001,
                    "velocity": 0.29133858267716534,
                    "duration": 0.10308575000000175
                },
                {
                    "name": "F2",
                    "midi": 41,
                    "time": 21.75109325000001,
                    "velocity": 0.2992125984251969,
                    "duration": 0.10308575000000175
                },
                {
                    "name": "F1",
                    "midi": 29,
                    "time": 21.854179000000013,
                    "velocity": 0.30708661417322836,
                    "duration": 0.10308575000000175
                },
                {
                    "name": "F2",
                    "midi": 41,
                    "time": 21.957264750000014,
                    "velocity": 0.3228346456692913,
                    "duration": 0.10308575000000175
                },
                {
                    "name": "F1",
                    "midi": 29,
                    "time": 22.060350500000016,
                    "velocity": 0.33070866141732286,
                    "duration": 0.10308575000000175
                },
                {
                    "name": "F2",
                    "midi": 41,
                    "time": 22.163436250000018,
                    "velocity": 0.3464566929133858,
                    "duration": 0.10308575000000175
                },
                {
                    "name": "F1",
                    "midi": 29,
                    "time": 22.26652200000002,
                    "velocity": 0.3543307086614173,
                    "duration": 0.10308575000000175
                },
                {
                    "name": "F2",
                    "midi": 41,
                    "time": 22.36960775000002,
                    "velocity": 0.3700787401574803,
                    "duration": 0.10308575000000175
                },
                {
                    "name": "F1",
                    "midi": 29,
                    "time": 22.472693500000023,
                    "velocity": 0.3779527559055118,
                    "duration": 0.10308575000000175
                },
                {
                    "name": "F2",
                    "midi": 41,
                    "time": 22.575779250000025,
                    "velocity": 0.3937007874015748,
                    "duration": 0.10308575000000175
                },
                {
                    "name": "F1",
                    "midi": 29,
                    "time": 22.678865000000027,
                    "velocity": 0.4015748031496063,
                    "duration": 0.10308575000000175
                },
                {
                    "name": "F2",
                    "midi": 41,
                    "time": 22.78195075000003,
                    "velocity": 0.4094488188976378,
                    "duration": 0.10308575000000175
                },
                {
                    "name": "F1",
                    "midi": 29,
                    "time": 22.88503650000003,
                    "velocity": 0.4251968503937008,
                    "duration": 0.10308575000000175
                },
                {
                    "name": "F2",
                    "midi": 41,
                    "time": 22.988122250000032,
                    "velocity": 0.4330708661417323,
                    "duration": 0.10308575000000175
                },
                {
                    "name": "F#2",
                    "midi": 42,
                    "time": 23.091208000000034,
                    "velocity": 0.48031496062992124,
                    "duration": 0.1030857499999982
                },
                {
                    "name": "G2",
                    "midi": 43,
                    "time": 23.194293750000032,
                    "velocity": 0.4881889763779528,
                    "duration": 0.10308575000000175
                },
                {
                    "name": "G#2",
                    "midi": 44,
                    "time": 23.297379500000034,
                    "velocity": 0.49606299212598426,
                    "duration": 0.10308575000000175
                },
                {
                    "name": "A2",
                    "midi": 45,
                    "time": 23.400465250000035,
                    "velocity": 0.5039370078740157,
                    "duration": 0.10308575000000175
                },
                {
                    "name": "A#2",
                    "midi": 46,
                    "time": 23.503551000000037,
                    "velocity": 0.5196850393700787,
                    "duration": 0.10308575000000175
                },
                {
                    "name": "B2",
                    "midi": 47,
                    "time": 23.60663675000004,
                    "velocity": 0.5275590551181102,
                    "duration": 0.10308575000000175
                },
                {
                    "name": "C3",
                    "midi": 48,
                    "time": 23.70972250000004,
                    "velocity": 0.5433070866141733,
                    "duration": 0.10308575000000175
                },
                {
                    "name": "C#3",
                    "midi": 49,
                    "time": 23.812808250000042,
                    "velocity": 0.5511811023622047,
                    "duration": 0.10308575000000175
                },
                {
                    "name": "D3",
                    "midi": 50,
                    "time": 23.915894000000044,
                    "velocity": 0.5669291338582677,
                    "duration": 0.10308575000000175
                },
                {
                    "name": "D#3",
                    "midi": 51,
                    "time": 24.018979750000046,
                    "velocity": 0.5748031496062992,
                    "duration": 0.10308575000000175
                },
                {
                    "name": "E3",
                    "midi": 52,
                    "time": 24.122065500000048,
                    "velocity": 0.5905511811023622,
                    "duration": 0.10308575000000175
                },
                {
                    "name": "F3",
                    "midi": 53,
                    "time": 24.22515125000005,
                    "velocity": 0.5984251968503937,
                    "duration": 0.10308575000000175
                },
                {
                    "name": "F2",
                    "midi": 41,
                    "time": 24.32823700000005,
                    "velocity": 0.5196850393700787,
                    "duration": 0.20617149999999995
                },
                {
                    "name": "F3",
                    "midi": 53,
                    "time": 24.32823700000005,
                    "velocity": 0.6141732283464567,
                    "duration": 0.20617149999999995
                },
                {
                    "name": "F2",
                    "midi": 41,
                    "time": 24.53440850000005,
                    "velocity": 0.5196850393700787,
                    "duration": 0.20617149999999995
                },
                {
                    "name": "F3",
                    "midi": 53,
                    "time": 24.53440850000005,
                    "velocity": 0.6220472440944882,
                    "duration": 0.20617149999999995
                },
                {
                    "name": "F2",
                    "midi": 41,
                    "time": 24.74058000000005,
                    "velocity": 0.5826771653543307,
                    "duration": 0.10308575000000175
                },
                {
                    "name": "F3",
                    "midi": 53,
                    "time": 24.74058000000005,
                    "velocity": 0.6929133858267716,
                    "duration": 0.10308575000000175
                },
                {
                    "name": "F3",
                    "midi": 53,
                    "time": 24.946751500000055,
                    "velocity": 0.5354330708661418,
                    "duration": 0.10308575000000175
                },
                {
                    "name": "F4",
                    "midi": 65,
                    "time": 24.946751500000055,
                    "velocity": 0.6377952755905512,
                    "duration": 0.10308575000000175
                },
                {
                    "name": "F3",
                    "midi": 53,
                    "time": 25.152923000000058,
                    "velocity": 0.5354330708661418,
                    "duration": 0.10308575000000175
                },
                {
                    "name": "F4",
                    "midi": 65,
                    "time": 25.152923000000058,
                    "velocity": 0.6377952755905512,
                    "duration": 0.10308575000000175
                },
                {
                    "name": "F3",
                    "midi": 53,
                    "time": 25.35909450000006,
                    "velocity": 0.5354330708661418,
                    "duration": 0.10308575000000175
                },
                {
                    "name": "F4",
                    "midi": 65,
                    "time": 25.35909450000006,
                    "velocity": 0.6377952755905512,
                    "duration": 0.10308575000000175
                },
                {
                    "name": "F3",
                    "midi": 53,
                    "time": 25.565266000000065,
                    "velocity": 0.5354330708661418,
                    "duration": 0.10308575000000175
                },
                {
                    "name": "F4",
                    "midi": 65,
                    "time": 25.565266000000065,
                    "velocity": 0.6377952755905512,
                    "duration": 0.10308575000000175
                },
                {
                    "name": "F3",
                    "midi": 53,
                    "time": 25.77143750000007,
                    "velocity": 0.5354330708661418,
                    "duration": 0.10308575000000175
                },
                {
                    "name": "F4",
                    "midi": 65,
                    "time": 25.77143750000007,
                    "velocity": 0.6377952755905512,
                    "duration": 0.10308575000000175
                },
                {
                    "name": "F3",
                    "midi": 53,
                    "time": 25.977609000000072,
                    "velocity": 0.5354330708661418,
                    "duration": 0.10308575000000175
                },
                {
                    "name": "F4",
                    "midi": 65,
                    "time": 25.977609000000072,
                    "velocity": 0.6377952755905512,
                    "duration": 0.10308575000000175
                },
                {
                    "name": "F3",
                    "midi": 53,
                    "time": 26.183780500000076,
                    "velocity": 0.5354330708661418,
                    "duration": 0.10308575000000175
                },
                {
                    "name": "F4",
                    "midi": 65,
                    "time": 26.183780500000076,
                    "velocity": 0.6377952755905512,
                    "duration": 0.10308575000000175
                },
                {
                    "name": "E4",
                    "midi": 64,
                    "time": 26.38995200000008,
                    "velocity": 0.7165354330708661,
                    "duration": 0.20617149999999995
                },
                {
                    "name": "E3",
                    "midi": 52,
                    "time": 26.38995200000008,
                    "velocity": 0.6062992125984252,
                    "duration": 0.20617149999999995
                },
                {
                    "name": "E2",
                    "midi": 40,
                    "time": 26.80229500000008,
                    "velocity": 0.5826771653543307,
                    "duration": 0.20617149999999995
                },
                {
                    "name": "E3",
                    "midi": 52,
                    "time": 26.80229500000008,
                    "velocity": 0.6929133858267716,
                    "duration": 0.20617149999999995
                },
                {
                    "name": "C2",
                    "midi": 36,
                    "time": 28.03932400000008,
                    "velocity": 0.1732283464566929,
                    "duration": 0.4080477604166681
                },
                {
                    "name": "G2",
                    "midi": 43,
                    "time": 28.03932400000008,
                    "velocity": 0.1732283464566929,
                    "duration": 0.4080477604166681
                },
                {
                    "name": "C3",
                    "midi": 48,
                    "time": 28.03932400000008,
                    "velocity": 0.1968503937007874,
                    "duration": 0.4080477604166681
                },
                {
                    "name": "C2",
                    "midi": 36,
                    "time": 28.45166700000008,
                    "velocity": 0.14960629921259844,
                    "duration": 0.10308575000000175
                },
                {
                    "name": "G2",
                    "midi": 43,
                    "time": 28.45166700000008,
                    "velocity": 0.14960629921259844,
                    "duration": 0.10308575000000175
                },
                {
                    "name": "C3",
                    "midi": 48,
                    "time": 28.45166700000008,
                    "velocity": 0.18110236220472442,
                    "duration": 0.10308575000000175
                },
                {
                    "name": "C2",
                    "midi": 36,
                    "time": 28.657838500000082,
                    "velocity": 0.14960629921259844,
                    "duration": 0.10308575000000175
                },
                {
                    "name": "G2",
                    "midi": 43,
                    "time": 28.657838500000082,
                    "velocity": 0.14960629921259844,
                    "duration": 0.10308575000000175
                },
                {
                    "name": "C3",
                    "midi": 48,
                    "time": 28.657838500000082,
                    "velocity": 0.18110236220472442,
                    "duration": 0.10308575000000175
                },
                {
                    "name": "C2",
                    "midi": 36,
                    "time": 28.864010000000086,
                    "velocity": 0.1732283464566929,
                    "duration": 0.4080477604166681
                },
                {
                    "name": "G2",
                    "midi": 43,
                    "time": 28.864010000000086,
                    "velocity": 0.1732283464566929,
                    "duration": 0.4080477604166681
                },
                {
                    "name": "C3",
                    "midi": 48,
                    "time": 28.864010000000086,
                    "velocity": 0.2047244094488189,
                    "duration": 0.4080477604166681
                },
                {
                    "name": "C2",
                    "midi": 36,
                    "time": 29.276353000000086,
                    "velocity": 0.15748031496062992,
                    "duration": 0.10308575000000175
                },
                {
                    "name": "G2",
                    "midi": 43,
                    "time": 29.276353000000086,
                    "velocity": 0.15748031496062992,
                    "duration": 0.10308575000000175
                },
                {
                    "name": "C3",
                    "midi": 48,
                    "time": 29.276353000000086,
                    "velocity": 0.1889763779527559,
                    "duration": 0.10308575000000175
                },
                {
                    "name": "C2",
                    "midi": 36,
                    "time": 29.48252450000009,
                    "velocity": 0.15748031496062992,
                    "duration": 0.10308575000000175
                },
                {
                    "name": "G2",
                    "midi": 43,
                    "time": 29.48252450000009,
                    "velocity": 0.15748031496062992,
                    "duration": 0.10308575000000175
                },
                {
                    "name": "C3",
                    "midi": 48,
                    "time": 29.48252450000009,
                    "velocity": 0.1889763779527559,
                    "duration": 0.10308575000000175
                },
                {
                    "name": "C2",
                    "midi": 36,
                    "time": 29.688696000000093,
                    "velocity": 0.1732283464566929,
                    "duration": 0.20617149999999995
                },
                {
                    "name": "G2",
                    "midi": 43,
                    "time": 29.688696000000093,
                    "velocity": 0.1732283464566929,
                    "duration": 0.20617149999999995
                },
                {
                    "name": "C3",
                    "midi": 48,
                    "time": 29.688696000000093,
                    "velocity": 0.2047244094488189,
                    "duration": 0.20617149999999995
                },
                {
                    "name": "G1",
                    "midi": 31,
                    "time": 31.338068000000092,
                    "velocity": 0.1732283464566929,
                    "duration": 0.20617149999999995
                },
                {
                    "name": "G2",
                    "midi": 43,
                    "time": 31.338068000000092,
                    "velocity": 0.2125984251968504,
                    "duration": 0.20617149999999995
                },
                {
                    "name": "G2",
                    "midi": 43,
                    "time": 31.750411000000092,
                    "velocity": 0.1732283464566929,
                    "duration": 0.20617149999999995
                },
                {
                    "name": "G3",
                    "midi": 55,
                    "time": 31.750411000000092,
                    "velocity": 0.2125984251968504,
                    "duration": 0.20617149999999995
                },
                {
                    "name": "D5",
                    "midi": 74,
                    "time": 32.16275400000009,
                    "velocity": 0.2125984251968504,
                    "duration": 0.8246859999999998
                },
                {
                    "name": "B4",
                    "midi": 71,
                    "time": 32.16275400000009,
                    "velocity": 0.1732283464566929,
                    "duration": 0.8246859999999998
                },
                {
                    "name": "G4",
                    "midi": 67,
                    "time": 32.16275400000009,
                    "velocity": 0.1732283464566929,
                    "duration": 0.8246859999999998
                },
                {
                    "name": "G1",
                    "midi": 31,
                    "time": 32.98744000000009,
                    "velocity": 0.14173228346456693,
                    "duration": 0.4080477604166646
                },
                {
                    "name": "G2",
                    "midi": 43,
                    "time": 32.98744000000009,
                    "velocity": 0.1732283464566929,
                    "duration": 0.4080477604166646
                },
                {
                    "name": "G1",
                    "midi": 31,
                    "time": 33.39978300000009,
                    "velocity": 0.12598425196850394,
                    "duration": 0.1030857499999982
                },
                {
                    "name": "G2",
                    "midi": 43,
                    "time": 33.39978300000009,
                    "velocity": 0.15748031496062992,
                    "duration": 0.1030857499999982
                },
                {
                    "name": "G1",
                    "midi": 31,
                    "time": 33.60595450000009,
                    "velocity": 0.12598425196850394,
                    "duration": 0.1030857499999982
                },
                {
                    "name": "G2",
                    "midi": 43,
                    "time": 33.60595450000009,
                    "velocity": 0.15748031496062992,
                    "duration": 0.1030857499999982
                },
                {
                    "name": "G1",
                    "midi": 31,
                    "time": 33.812126000000085,
                    "velocity": 0.14960629921259844,
                    "duration": 0.4080477604166646
                },
                {
                    "name": "G2",
                    "midi": 43,
                    "time": 33.812126000000085,
                    "velocity": 0.1732283464566929,
                    "duration": 0.4080477604166646
                },
                {
                    "name": "G1",
                    "midi": 31,
                    "time": 34.224469000000084,
                    "velocity": 0.13385826771653545,
                    "duration": 0.1030857499999982
                },
                {
                    "name": "G2",
                    "midi": 43,
                    "time": 34.224469000000084,
                    "velocity": 0.15748031496062992,
                    "duration": 0.1030857499999982
                },
                {
                    "name": "G1",
                    "midi": 31,
                    "time": 34.43064050000008,
                    "velocity": 0.13385826771653545,
                    "duration": 0.1030857499999982
                },
                {
                    "name": "G2",
                    "midi": 43,
                    "time": 34.43064050000008,
                    "velocity": 0.15748031496062992,
                    "duration": 0.1030857499999982
                },
                {
                    "name": "G1",
                    "midi": 31,
                    "time": 34.63681200000008,
                    "velocity": 0.14960629921259844,
                    "duration": 0.2061714999999964
                },
                {
                    "name": "G2",
                    "midi": 43,
                    "time": 34.63681200000008,
                    "velocity": 0.1732283464566929,
                    "duration": 0.2061714999999964
                },
                {
                    "name": "G2",
                    "midi": 43,
                    "time": 36.28618400000008,
                    "velocity": 0.15748031496062992,
                    "duration": 0.2061715000000035
                },
                {
                    "name": "C2",
                    "midi": 36,
                    "time": 36.28618400000008,
                    "velocity": 0.15748031496062992,
                    "duration": 0.2061715000000035
                },
                {
                    "name": "C3",
                    "midi": 48,
                    "time": 36.28618400000008,
                    "velocity": 0.1889763779527559,
                    "duration": 0.2061715000000035
                },
                {
                    "name": "G3",
                    "midi": 55,
                    "time": 36.698527000000084,
                    "velocity": 0.15748031496062992,
                    "duration": 0.2061715000000035
                },
                {
                    "name": "C3",
                    "midi": 48,
                    "time": 36.698527000000084,
                    "velocity": 0.15748031496062992,
                    "duration": 0.2061715000000035
                },
                {
                    "name": "C4",
                    "midi": 60,
                    "time": 36.698527000000084,
                    "velocity": 0.1889763779527559,
                    "duration": 0.2061715000000035
                },
                {
                    "name": "C5",
                    "midi": 72,
                    "time": 37.11087000000009,
                    "velocity": 0.2125984251968504,
                    "duration": 0.8246859999999998
                },
                {
                    "name": "G4",
                    "midi": 67,
                    "time": 37.11087000000009,
                    "velocity": 0.1732283464566929,
                    "duration": 0.8246859999999998
                },
                {
                    "name": "C4",
                    "midi": 60,
                    "time": 37.11087000000009,
                    "velocity": 0.1732283464566929,
                    "duration": 0.8246859999999998
                },
                {
                    "name": "A1",
                    "midi": 33,
                    "time": 38.76024200000009,
                    "velocity": 0.2283464566929134,
                    "duration": 0.3092572500000017
                },
                {
                    "name": "A2",
                    "midi": 45,
                    "time": 38.76024200000009,
                    "velocity": 0.2755905511811024,
                    "duration": 0.3092572500000017
                },
                {
                    "name": "A3",
                    "midi": 57,
                    "time": 39.17258500000009,
                    "velocity": 0.2047244094488189,
                    "duration": 0.2061715000000035
                },
                {
                    "name": "C4",
                    "midi": 60,
                    "time": 39.17258500000009,
                    "velocity": 0.25196850393700787,
                    "duration": 0.2061715000000035
                },
                {
                    "name": "C5",
                    "midi": 72,
                    "time": 39.5849280000001,
                    "velocity": 0.2125984251968504,
                    "duration": 0.8246859999999998
                },
                {
                    "name": "A4",
                    "midi": 69,
                    "time": 39.5849280000001,
                    "velocity": 0.14173228346456693,
                    "duration": 0.8246859999999998
                },
                {
                    "name": "E2",
                    "midi": 40,
                    "time": 41.2343000000001,
                    "velocity": 0.1968503937007874,
                    "duration": 0.3092572499999946
                },
                {
                    "name": "E3",
                    "midi": 52,
                    "time": 41.2343000000001,
                    "velocity": 0.2283464566929134,
                    "duration": 0.3092572499999946
                },
                {
                    "name": "E3",
                    "midi": 52,
                    "time": 41.64664300000009,
                    "velocity": 0.18110236220472442,
                    "duration": 0.2061715000000035
                },
                {
                    "name": "G3",
                    "midi": 55,
                    "time": 41.64664300000009,
                    "velocity": 0.2125984251968504,
                    "duration": 0.2061715000000035
                },
                {
                    "name": "G4",
                    "midi": 67,
                    "time": 42.0589860000001,
                    "velocity": 0.1889763779527559,
                    "duration": 1.6493719999999996
                },
                {
                    "name": "E4",
                    "midi": 64,
                    "time": 42.0589860000001,
                    "velocity": 0.12598425196850394,
                    "duration": 1.6493719999999996
                },
                {
                    "name": "D2",
                    "midi": 38,
                    "time": 44.7392155000001,
                    "velocity": 0.5669291338582677,
                    "duration": 0.1030857500000053
                },
                {
                    "name": "F2",
                    "midi": 41,
                    "time": 44.842301250000105,
                    "velocity": 0.5826771653543307,
                    "duration": 0.1030857499999982
                },
                {
                    "name": "G#2",
                    "midi": 44,
                    "time": 44.9453870000001,
                    "velocity": 0.5984251968503937,
                    "duration": 0.1030857499999982
                },
                {
                    "name": "D3",
                    "midi": 50,
                    "time": 45.0484727500001,
                    "velocity": 0.6141732283464567,
                    "duration": 0.1030857499999982
                },
                {
                    "name": "F3",
                    "midi": 53,
                    "time": 45.1515585000001,
                    "velocity": 0.6299212598425197,
                    "duration": 0.1030857499999982
                },
                {
                    "name": "G#3",
                    "midi": 56,
                    "time": 45.2546442500001,
                    "velocity": 0.6456692913385826,
                    "duration": 0.1030857499999982
                },
                {
                    "name": "D3",
                    "midi": 50,
                    "time": 45.357730000000096,
                    "velocity": 0.5590551181102362,
                    "duration": 0.8246859999999998
                },
                {
                    "name": "D4",
                    "midi": 62,
                    "time": 45.357730000000096,
                    "velocity": 0.6614173228346457,
                    "duration": 0.8246859999999998
                },
                {
                    "name": "E3",
                    "midi": 52,
                    "time": 46.182416000000096,
                    "velocity": 0.5354330708661418,
                    "duration": 0.4123429999999999
                },
                {
                    "name": "E4",
                    "midi": 64,
                    "time": 46.182416000000096,
                    "velocity": 0.6299212598425197,
                    "duration": 0.4123429999999999
                },
                {
                    "name": "C3",
                    "midi": 48,
                    "time": 46.594759000000096,
                    "velocity": 0.5039370078740157,
                    "duration": 0.4123429999999999
                },
                {
                    "name": "C4",
                    "midi": 60,
                    "time": 46.594759000000096,
                    "velocity": 0.5984251968503937,
                    "duration": 0.4123429999999999
                },
                {
                    "name": "G2",
                    "midi": 43,
                    "time": 47.007102000000096,
                    "velocity": 0.5354330708661418,
                    "duration": 0.2061715000000035
                },
                {
                    "name": "G3",
                    "midi": 55,
                    "time": 47.007102000000096,
                    "velocity": 0.6299212598425197,
                    "duration": 0.2061715000000035
                },
                {
                    "name": "D2",
                    "midi": 38,
                    "time": 48.0379595000001,
                    "velocity": 0.5669291338582677,
                    "duration": 0.1030857500000053
                },
                {
                    "name": "F2",
                    "midi": 41,
                    "time": 48.141045250000104,
                    "velocity": 0.5826771653543307,
                    "duration": 0.1030857499999982
                },
                {
                    "name": "G#2",
                    "midi": 44,
                    "time": 48.2441310000001,
                    "velocity": 0.5984251968503937,
                    "duration": 0.1030857499999982
                },
                {
                    "name": "D3",
                    "midi": 50,
                    "time": 48.3472167500001,
                    "velocity": 0.6141732283464567,
                    "duration": 0.1030857499999982
                },
                {
                    "name": "F3",
                    "midi": 53,
                    "time": 48.4503025000001,
                    "velocity": 0.6299212598425197,
                    "duration": 0.1030857499999982
                },
                {
                    "name": "G#3",
                    "midi": 56,
                    "time": 48.5533882500001,
                    "velocity": 0.6456692913385826,
                    "duration": 0.1030857499999982
                },
                {
                    "name": "D3",
                    "midi": 50,
                    "time": 48.656474000000095,
                    "velocity": 0.5590551181102362,
                    "duration": 0.8246859999999998
                },
                {
                    "name": "D4",
                    "midi": 62,
                    "time": 48.656474000000095,
                    "velocity": 0.6614173228346457,
                    "duration": 0.8246859999999998
                },
                {
                    "name": "E3",
                    "midi": 52,
                    "time": 49.481160000000095,
                    "velocity": 0.5354330708661418,
                    "duration": 0.4123429999999999
                },
                {
                    "name": "E4",
                    "midi": 64,
                    "time": 49.481160000000095,
                    "velocity": 0.6299212598425197,
                    "duration": 0.4123429999999999
                },
                {
                    "name": "C3",
                    "midi": 48,
                    "time": 49.893503000000095,
                    "velocity": 0.5039370078740157,
                    "duration": 0.4123429999999999
                },
                {
                    "name": "C4",
                    "midi": 60,
                    "time": 49.893503000000095,
                    "velocity": 0.5984251968503937,
                    "duration": 0.4123429999999999
                },
                {
                    "name": "G2",
                    "midi": 43,
                    "time": 50.305846000000095,
                    "velocity": 0.5354330708661418,
                    "duration": 0.2061715000000035
                },
                {
                    "name": "G3",
                    "midi": 55,
                    "time": 50.305846000000095,
                    "velocity": 0.6299212598425197,
                    "duration": 0.2061715000000035
                },
                {
                    "name": "E3",
                    "midi": 52,
                    "time": 51.336703500000105,
                    "velocity": 0.5748031496062992,
                    "duration": 0.1030857500000053
                },
                {
                    "name": "G3",
                    "midi": 55,
                    "time": 51.43978925000011,
                    "velocity": 0.5905511811023622,
                    "duration": 0.1030857499999982
                },
                {
                    "name": "A#3",
                    "midi": 58,
                    "time": 51.54287500000011,
                    "velocity": 0.6062992125984252,
                    "duration": 0.1030857499999982
                },
                {
                    "name": "C#4",
                    "midi": 61,
                    "time": 51.64596075000011,
                    "velocity": 0.6220472440944882,
                    "duration": 0.1030857499999982
                },
                {
                    "name": "G4",
                    "midi": 67,
                    "time": 51.749046500000105,
                    "velocity": 0.6299212598425197,
                    "duration": 0.1030857499999982
                },
                {
                    "name": "A#4",
                    "midi": 70,
                    "time": 51.8521322500001,
                    "velocity": 0.6456692913385826,
                    "duration": 0.1030857499999982
                },
                {
                    "name": "C#5",
                    "midi": 73,
                    "time": 51.9552180000001,
                    "velocity": 0.6929133858267716,
                    "duration": 0.1030857499999982
                },
                {
                    "name": "E5",
                    "midi": 76,
                    "time": 52.0583037500001,
                    "velocity": 0.6456692913385826,
                    "duration": 0.1030857499999982
                },
                {
                    "name": "C#5",
                    "midi": 73,
                    "time": 52.1613895000001,
                    "velocity": 0.6377952755905512,
                    "duration": 0.1030857499999982
                },
                {
                    "name": "A#4",
                    "midi": 70,
                    "time": 52.264475250000096,
                    "velocity": 0.6299212598425197,
                    "duration": 0.1030857499999982
                },
                {
                    "name": "G4",
                    "midi": 67,
                    "time": 52.367561000000094,
                    "velocity": 0.5984251968503937,
                    "duration": 0.1030857499999982
                },
                {
                    "name": "E4",
                    "midi": 64,
                    "time": 52.47064675000009,
                    "velocity": 0.6141732283464567,
                    "duration": 0.1030857499999982
                },
                {
                    "name": "C#4",
                    "midi": 61,
                    "time": 52.57373250000009,
                    "velocity": 0.6141732283464567,
                    "duration": 0.1030857499999982
                },
                {
                    "name": "A#3",
                    "midi": 58,
                    "time": 52.67681825000009,
                    "velocity": 0.5984251968503937,
                    "duration": 0.1030857499999982
                },
                {
                    "name": "C#4",
                    "midi": 61,
                    "time": 52.77990400000009,
                    "velocity": 0.5984251968503937,
                    "duration": 0.1030857499999982
                },
                {
                    "name": "E4",
                    "midi": 64,
                    "time": 52.882989750000085,
                    "velocity": 0.5354330708661418,
                    "duration": 0.1030857499999982
                },
                {
                    "name": "C#4",
                    "midi": 61,
                    "time": 52.986075500000084,
                    "velocity": 0.5433070866141733,
                    "duration": 0.1030857499999982
                },
                {
                    "name": "A#3",
                    "midi": 58,
                    "time": 53.08916125000008,
                    "velocity": 0.5433070866141733,
                    "duration": 0.1030857499999982
                },
                {
                    "name": "G3",
                    "midi": 55,
                    "time": 53.19224700000008,
                    "velocity": 0.5748031496062992,
                    "duration": 0.1030857499999982
                },
                {
                    "name": "E3",
                    "midi": 52,
                    "time": 53.29533275000008,
                    "velocity": 0.5196850393700787,
                    "duration": 0.1030857499999982
                },
                {
                    "name": "C#3",
                    "midi": 49,
                    "time": 53.398418500000076,
                    "velocity": 0.5196850393700787,
                    "duration": 0.1030857499999982
                },
                {
                    "name": "A#2",
                    "midi": 46,
                    "time": 53.501504250000075,
                    "velocity": 0.5196850393700787,
                    "duration": 0.1030857499999982
                },
                {
                    "name": "C#3",
                    "midi": 49,
                    "time": 53.60459000000007,
                    "velocity": 0.5196850393700787,
                    "duration": 0.1030857499999982
                },
                {
                    "name": "E3",
                    "midi": 52,
                    "time": 53.70767575000007,
                    "velocity": 0.47244094488188976,
                    "duration": 0.1030857499999982
                },
                {
                    "name": "C#3",
                    "midi": 49,
                    "time": 53.81076150000007,
                    "velocity": 0.47244094488188976,
                    "duration": 0.1030857499999982
                },
                {
                    "name": "A#2",
                    "midi": 46,
                    "time": 53.91384725000007,
                    "velocity": 0.47244094488188976,
                    "duration": 0.1030857499999982
                },
                {
                    "name": "G2",
                    "midi": 43,
                    "time": 54.016933000000066,
                    "velocity": 0.5275590551181102,
                    "duration": 0.1030857499999982
                },
                {
                    "name": "E2",
                    "midi": 40,
                    "time": 54.120018750000064,
                    "velocity": 0.4645669291338583,
                    "duration": 0.1030857499999982
                },
                {
                    "name": "C#2",
                    "midi": 37,
                    "time": 54.22310450000006,
                    "velocity": 0.47244094488188976,
                    "duration": 0.1030857499999982
                },
                {
                    "name": "A#1",
                    "midi": 34,
                    "time": 54.32619025000006,
                    "velocity": 0.47244094488188976,
                    "duration": 0.1030857499999982
                },
                {
                    "name": "C#2",
                    "midi": 37,
                    "time": 54.42927600000006,
                    "velocity": 0.5354330708661418,
                    "duration": 0.1030857499999982
                },
                {
                    "name": "E2",
                    "midi": 40,
                    "time": 54.53236175000006,
                    "velocity": 0.3700787401574803,
                    "duration": 0.1030857499999982
                },
                {
                    "name": "C#2",
                    "midi": 37,
                    "time": 54.635447500000055,
                    "velocity": 0.3700787401574803,
                    "duration": 0.1030857499999982
                },
                {
                    "name": "A#1",
                    "midi": 34,
                    "time": 54.73853325000005,
                    "velocity": 0.3700787401574803,
                    "duration": 0.1030857499999982
                },
                {
                    "name": "C#2",
                    "midi": 37,
                    "time": 54.84161900000005,
                    "velocity": 0.4566929133858268,
                    "duration": 0.1030857499999982
                },
                {
                    "name": "E2",
                    "midi": 40,
                    "time": 54.94470475000005,
                    "velocity": 0.3543307086614173,
                    "duration": 0.1030857499999982
                },
                {
                    "name": "C#2",
                    "midi": 37,
                    "time": 55.04779050000005,
                    "velocity": 0.3543307086614173,
                    "duration": 0.1030857499999982
                },
                {
                    "name": "A#1",
                    "midi": 34,
                    "time": 55.150876250000046,
                    "velocity": 0.3543307086614173,
                    "duration": 0.1030857499999982
                },
                {
                    "name": "C#2",
                    "midi": 37,
                    "time": 55.253962000000044,
                    "velocity": 0.41732283464566927,
                    "duration": 0.1030857499999982
                },
                {
                    "name": "E2",
                    "midi": 40,
                    "time": 55.35704775000004,
                    "velocity": 0.30708661417322836,
                    "duration": 0.1030857499999982
                },
                {
                    "name": "C#2",
                    "midi": 37,
                    "time": 55.46013350000004,
                    "velocity": 0.30708661417322836,
                    "duration": 0.1030857499999982
                },
                {
                    "name": "A#1",
                    "midi": 34,
                    "time": 55.56321925000004,
                    "velocity": 0.30708661417322836,
                    "duration": 0.1030857499999982
                },
                {
                    "name": "C#2",
                    "midi": 37,
                    "time": 55.66630500000004,
                    "velocity": 0.4015748031496063,
                    "duration": 0.1030857499999982
                },
                {
                    "name": "E2",
                    "midi": 40,
                    "time": 55.769390750000035,
                    "velocity": 0.2677165354330709,
                    "duration": 0.1030857499999982
                },
                {
                    "name": "C#2",
                    "midi": 37,
                    "time": 55.87247650000003,
                    "velocity": 0.2677165354330709,
                    "duration": 0.1030857499999982
                },
                {
                    "name": "A#1",
                    "midi": 34,
                    "time": 55.97556225000003,
                    "velocity": 0.2677165354330709,
                    "duration": 0.1030857499999982
                },
                {
                    "name": "B1",
                    "midi": 35,
                    "time": 56.07864800000003,
                    "velocity": 0.29133858267716534,
                    "duration": 0.1030857500000053
                },
                {
                    "name": "D2",
                    "midi": 38,
                    "time": 56.181733750000035,
                    "velocity": 0.23622047244094488,
                    "duration": 0.1030857499999982
                },
                {
                    "name": "G2",
                    "midi": 43,
                    "time": 56.28481950000003,
                    "velocity": 0.23622047244094488,
                    "duration": 0.1030857499999982
                },
                {
                    "name": "D2",
                    "midi": 38,
                    "time": 56.38790525000003,
                    "velocity": 0.23622047244094488,
                    "duration": 0.1030857499999982
                },
                {
                    "name": "B1",
                    "midi": 35,
                    "time": 56.49099100000003,
                    "velocity": 0.2755905511811024,
                    "duration": 0.1030857499999982
                },
                {
                    "name": "D2",
                    "midi": 38,
                    "time": 56.59407675000003,
                    "velocity": 0.23622047244094488,
                    "duration": 0.1030857499999982
                },
                {
                    "name": "G2",
                    "midi": 43,
                    "time": 56.697162500000026,
                    "velocity": 0.23622047244094488,
                    "duration": 0.1030857499999982
                },
                {
                    "name": "D2",
                    "midi": 38,
                    "time": 56.800248250000024,
                    "velocity": 0.23622047244094488,
                    "duration": 0.1030857499999982
                },
                {
                    "name": "B1",
                    "midi": 35,
                    "time": 56.90333400000002,
                    "velocity": 0.2755905511811024,
                    "duration": 0.1030857499999982
                },
                {
                    "name": "D2",
                    "midi": 38,
                    "time": 57.00641975000002,
                    "velocity": 0.23622047244094488,
                    "duration": 0.1030857499999982
                },
                {
                    "name": "G2",
                    "midi": 43,
                    "time": 57.10950550000002,
                    "velocity": 0.23622047244094488,
                    "duration": 0.1030857499999982
                },
                {
                    "name": "D2",
                    "midi": 38,
                    "time": 57.21259125000002,
                    "velocity": 0.23622047244094488,
                    "duration": 0.1030857499999982
                },
                {
                    "name": "B1",
                    "midi": 35,
                    "time": 57.315677000000015,
                    "velocity": 0.2755905511811024,
                    "duration": 0.1030857499999982
                },
                {
                    "name": "D2",
                    "midi": 38,
                    "time": 57.41876275000001,
                    "velocity": 0.23622047244094488,
                    "duration": 0.1030857499999982
                },
                {
                    "name": "G2",
                    "midi": 43,
                    "time": 57.52184850000001,
                    "velocity": 0.23622047244094488,
                    "duration": 0.1030857499999982
                },
                {
                    "name": "D2",
                    "midi": 38,
                    "time": 57.62493425000001,
                    "velocity": 0.23622047244094488,
                    "duration": 0.1030857499999982
                },
                {
                    "name": "C2",
                    "midi": 36,
                    "time": 57.72802000000001,
                    "velocity": 0.29133858267716534,
                    "duration": 0.1030857500000053
                },
                {
                    "name": "E2",
                    "midi": 40,
                    "time": 57.83110575000001,
                    "velocity": 0.23622047244094488,
                    "duration": 0.1030857499999982
                },
                {
                    "name": "A2",
                    "midi": 45,
                    "time": 57.93419150000001,
                    "velocity": 0.23622047244094488,
                    "duration": 0.1030857499999982
                },
                {
                    "name": "E2",
                    "midi": 40,
                    "time": 58.03727725000001,
                    "velocity": 0.23622047244094488,
                    "duration": 0.1030857499999982
                },
                {
                    "name": "C2",
                    "midi": 36,
                    "time": 58.14036300000001,
                    "velocity": 0.2755905511811024,
                    "duration": 0.1030857499999982
                },
                {
                    "name": "E2",
                    "midi": 40,
                    "time": 58.243448750000006,
                    "velocity": 0.23622047244094488,
                    "duration": 0.1030857499999982
                },
                {
                    "name": "A2",
                    "midi": 45,
                    "time": 58.346534500000004,
                    "velocity": 0.23622047244094488,
                    "duration": 0.1030857499999982
                },
                {
                    "name": "E2",
                    "midi": 40,
                    "time": 58.44962025,
                    "velocity": 0.23622047244094488,
                    "duration": 0.1030857499999982
                },
                {
                    "name": "C2",
                    "midi": 36,
                    "time": 58.552706,
                    "velocity": 0.2755905511811024,
                    "duration": 0.1030857499999982
                },
                {
                    "name": "E2",
                    "midi": 40,
                    "time": 58.65579175,
                    "velocity": 0.23622047244094488,
                    "duration": 0.1030857499999982
                },
                {
                    "name": "A2",
                    "midi": 45,
                    "time": 58.7588775,
                    "velocity": 0.23622047244094488,
                    "duration": 0.1030857499999982
                },
                {
                    "name": "E2",
                    "midi": 40,
                    "time": 58.861963249999995,
                    "velocity": 0.23622047244094488,
                    "duration": 0.1030857499999982
                },
                {
                    "name": "C2",
                    "midi": 36,
                    "time": 58.96504899999999,
                    "velocity": 0.2755905511811024,
                    "duration": 0.1030857499999982
                },
                {
                    "name": "E2",
                    "midi": 40,
                    "time": 59.06813474999999,
                    "velocity": 0.23622047244094488,
                    "duration": 0.1030857499999982
                },
                {
                    "name": "A2",
                    "midi": 45,
                    "time": 59.17122049999999,
                    "velocity": 0.23622047244094488,
                    "duration": 0.1030857499999982
                },
                {
                    "name": "E2",
                    "midi": 40,
                    "time": 59.27430624999999,
                    "velocity": 0.23622047244094488,
                    "duration": 0.1030857499999982
                },
                {
                    "name": "D2",
                    "midi": 38,
                    "time": 59.377391999999986,
                    "velocity": 0.29133858267716534,
                    "duration": 0.1030857499999982
                },
                {
                    "name": "G2",
                    "midi": 43,
                    "time": 59.480477749999984,
                    "velocity": 0.23622047244094488,
                    "duration": 0.1030857499999982
                },
                {
                    "name": "B2",
                    "midi": 47,
                    "time": 59.58356349999998,
                    "velocity": 0.23622047244094488,
                    "duration": 0.1030857499999982
                },
                {
                    "name": "G2",
                    "midi": 43,
                    "time": 59.68664924999998,
                    "velocity": 0.23622047244094488,
                    "duration": 0.1030857499999982
                },
                {
                    "name": "D2",
                    "midi": 38,
                    "time": 59.78973499999998,
                    "velocity": 0.2755905511811024,
                    "duration": 0.1030857499999982
                },
                {
                    "name": "G2",
                    "midi": 43,
                    "time": 59.89282074999998,
                    "velocity": 0.23622047244094488,
                    "duration": 0.1030857499999982
                },
                {
                    "name": "B2",
                    "midi": 47,
                    "time": 59.995906499999975,
                    "velocity": 0.23622047244094488,
                    "duration": 0.1030857499999982
                },
                {
                    "name": "G2",
                    "midi": 43,
                    "time": 60.098992249999974,
                    "velocity": 0.23622047244094488,
                    "duration": 0.1030857499999982
                },
                {
                    "name": "D2",
                    "midi": 38,
                    "time": 60.20207799999997,
                    "velocity": 0.2755905511811024,
                    "duration": 0.1030857500000053
                },
                {
                    "name": "A2",
                    "midi": 45,
                    "time": 60.30516374999998,
                    "velocity": 0.23622047244094488,
                    "duration": 0.1030857499999982
                },
                {
                    "name": "C3",
                    "midi": 48,
                    "time": 60.408249499999975,
                    "velocity": 0.23622047244094488,
                    "duration": 0.1030857499999982
                },
                {
                    "name": "A2",
                    "midi": 45,
                    "time": 60.51133524999997,
                    "velocity": 0.23622047244094488,
                    "duration": 0.1030857499999982
                },
                {
                    "name": "D2",
                    "midi": 38,
                    "time": 60.61442099999997,
                    "velocity": 0.2755905511811024,
                    "duration": 0.1030857499999982
                },
                {
                    "name": "A2",
                    "midi": 45,
                    "time": 60.71750674999997,
                    "velocity": 0.23622047244094488,
                    "duration": 0.1030857499999982
                },
                {
                    "name": "C3",
                    "midi": 48,
                    "time": 60.82059249999997,
                    "velocity": 0.23622047244094488,
                    "duration": 0.1030857499999982
                },
                {
                    "name": "A2",
                    "midi": 45,
                    "time": 60.923678249999966,
                    "velocity": 0.23622047244094488,
                    "duration": 0.1030857499999982
                },
                {
                    "name": "E3",
                    "midi": 52,
                    "time": 61.23293549999996,
                    "velocity": 0.5748031496062992,
                    "duration": 0.1030857500000053
                },
                {
                    "name": "G3",
                    "midi": 55,
                    "time": 61.336021249999966,
                    "velocity": 0.5905511811023622,
                    "duration": 0.1030857499999982
                },
                {
                    "name": "A#3",
                    "midi": 58,
                    "time": 61.439106999999964,
                    "velocity": 0.6062992125984252,
                    "duration": 0.1030857499999982
                },
                {
                    "name": "C#4",
                    "midi": 61,
                    "time": 61.54219274999996,
                    "velocity": 0.6220472440944882,
                    "duration": 0.1030857499999982
                },
                {
                    "name": "G4",
                    "midi": 67,
                    "time": 61.64527849999996,
                    "velocity": 0.6299212598425197,
                    "duration": 0.1030857499999982
                },
                {
                    "name": "A#4",
                    "midi": 70,
                    "time": 61.74836424999996,
                    "velocity": 0.6456692913385826,
                    "duration": 0.1030857499999982
                },
                {
                    "name": "C#5",
                    "midi": 73,
                    "time": 61.85144999999996,
                    "velocity": 0.6929133858267716,
                    "duration": 0.1030857499999982
                },
                {
                    "name": "E5",
                    "midi": 76,
                    "time": 61.954535749999955,
                    "velocity": 0.6456692913385826,
                    "duration": 0.1030857499999982
                },
                {
                    "name": "C#5",
                    "midi": 73,
                    "time": 62.057621499999954,
                    "velocity": 0.6377952755905512,
                    "duration": 0.1030857499999982
                },
                {
                    "name": "A#4",
                    "midi": 70,
                    "time": 62.16070724999995,
                    "velocity": 0.6299212598425197,
                    "duration": 0.1030857499999982
                },
                {
                    "name": "G4",
                    "midi": 67,
                    "time": 62.26379299999995,
                    "velocity": 0.5984251968503937,
                    "duration": 0.1030857499999982
                },
                {
                    "name": "E4",
                    "midi": 64,
                    "time": 62.36687874999995,
                    "velocity": 0.6141732283464567,
                    "duration": 0.1030857499999982
                },
                {
                    "name": "C#4",
                    "midi": 61,
                    "time": 62.469964499999946,
                    "velocity": 0.6141732283464567,
                    "duration": 0.1030857499999982
                },
                {
                    "name": "A#3",
                    "midi": 58,
                    "time": 62.573050249999945,
                    "velocity": 0.5984251968503937,
                    "duration": 0.1030857499999982
                },
                {
                    "name": "C#4",
                    "midi": 61,
                    "time": 62.67613599999994,
                    "velocity": 0.5984251968503937,
                    "duration": 0.1030857499999982
                },
                {
                    "name": "E4",
                    "midi": 64,
                    "time": 62.77922174999994,
                    "velocity": 0.5354330708661418,
                    "duration": 0.1030857499999982
                },
                {
                    "name": "C#4",
                    "midi": 61,
                    "time": 62.88230749999994,
                    "velocity": 0.5433070866141733,
                    "duration": 0.1030857499999982
                },
                {
                    "name": "A#3",
                    "midi": 58,
                    "time": 62.98539324999994,
                    "velocity": 0.5433070866141733,
                    "duration": 0.1030857499999982
                },
                {
                    "name": "G3",
                    "midi": 55,
                    "time": 63.088478999999936,
                    "velocity": 0.5748031496062992,
                    "duration": 0.1030857499999982
                },
                {
                    "name": "E3",
                    "midi": 52,
                    "time": 63.191564749999934,
                    "velocity": 0.5196850393700787,
                    "duration": 0.1030857499999982
                },
                {
                    "name": "C#3",
                    "midi": 49,
                    "time": 63.29465049999993,
                    "velocity": 0.5196850393700787,
                    "duration": 0.1030857499999982
                },
                {
                    "name": "A#2",
                    "midi": 46,
                    "time": 63.39773624999993,
                    "velocity": 0.5196850393700787,
                    "duration": 0.1030857499999982
                },
                {
                    "name": "C#3",
                    "midi": 49,
                    "time": 63.50082199999993,
                    "velocity": 0.5196850393700787,
                    "duration": 0.1030857499999982
                },
                {
                    "name": "E3",
                    "midi": 52,
                    "time": 63.60390774999993,
                    "velocity": 0.47244094488188976,
                    "duration": 0.1030857499999982
                },
                {
                    "name": "C#3",
                    "midi": 49,
                    "time": 63.706993499999925,
                    "velocity": 0.47244094488188976,
                    "duration": 0.1030857499999982
                },
                {
                    "name": "A#2",
                    "midi": 46,
                    "time": 63.81007924999992,
                    "velocity": 0.47244094488188976,
                    "duration": 0.1030857499999982
                },
                {
                    "name": "G2",
                    "midi": 43,
                    "time": 63.91316499999992,
                    "velocity": 0.5275590551181102,
                    "duration": 0.1030857500000053
                },
                {
                    "name": "E2",
                    "midi": 40,
                    "time": 64.01625074999993,
                    "velocity": 0.4645669291338583,
                    "duration": 0.1030857500000053
                },
                {
                    "name": "C#2",
                    "midi": 37,
                    "time": 64.11933649999993,
                    "velocity": 0.47244094488188976,
                    "duration": 0.1030857500000053
                },
                {
                    "name": "A#1",
                    "midi": 34,
                    "time": 64.22242224999994,
                    "velocity": 0.47244094488188976,
                    "duration": 0.1030857500000053
                },
                {
                    "name": "C#2",
                    "midi": 37,
                    "time": 64.32550799999994,
                    "velocity": 0.5354330708661418,
                    "duration": 0.1030857500000053
                },
                {
                    "name": "E2",
                    "midi": 40,
                    "time": 64.42859374999995,
                    "velocity": 0.3700787401574803,
                    "duration": 0.1030857500000053
                },
                {
                    "name": "C#2",
                    "midi": 37,
                    "time": 64.53167949999995,
                    "velocity": 0.3700787401574803,
                    "duration": 0.1030857500000053
                },
                {
                    "name": "A#1",
                    "midi": 34,
                    "time": 64.63476524999996,
                    "velocity": 0.3700787401574803,
                    "duration": 0.1030857500000053
                },
                {
                    "name": "C#2",
                    "midi": 37,
                    "time": 64.73785099999996,
                    "velocity": 0.4566929133858268,
                    "duration": 0.1030857500000053
                },
                {
                    "name": "E2",
                    "midi": 40,
                    "time": 64.84093674999997,
                    "velocity": 0.3543307086614173,
                    "duration": 0.1030857500000053
                },
                {
                    "name": "C#2",
                    "midi": 37,
                    "time": 64.94402249999997,
                    "velocity": 0.3543307086614173,
                    "duration": 0.1030857500000053
                },
                {
                    "name": "A#1",
                    "midi": 34,
                    "time": 65.04710824999998,
                    "velocity": 0.3543307086614173,
                    "duration": 0.1030857500000053
                },
                {
                    "name": "C#2",
                    "midi": 37,
                    "time": 65.15019399999998,
                    "velocity": 0.41732283464566927,
                    "duration": 0.1030857499999911
                },
                {
                    "name": "E2",
                    "midi": 40,
                    "time": 65.25327974999998,
                    "velocity": 0.30708661417322836,
                    "duration": 0.1030857500000053
                },
                {
                    "name": "C#2",
                    "midi": 37,
                    "time": 65.35636549999998,
                    "velocity": 0.30708661417322836,
                    "duration": 0.1030857500000053
                },
                {
                    "name": "A#1",
                    "midi": 34,
                    "time": 65.45945124999999,
                    "velocity": 0.30708661417322836,
                    "duration": 0.1030857500000053
                },
                {
                    "name": "C#2",
                    "midi": 37,
                    "time": 65.56253699999999,
                    "velocity": 0.4015748031496063,
                    "duration": 0.1030857500000053
                },
                {
                    "name": "E2",
                    "midi": 40,
                    "time": 65.66562275,
                    "velocity": 0.2677165354330709,
                    "duration": 0.1030857500000053
                },
                {
                    "name": "C#2",
                    "midi": 37,
                    "time": 65.7687085,
                    "velocity": 0.2677165354330709,
                    "duration": 0.1030857500000053
                },
                {
                    "name": "A#1",
                    "midi": 34,
                    "time": 65.87179425000001,
                    "velocity": 0.2677165354330709,
                    "duration": 0.1030857500000053
                },
                {
                    "name": "B1",
                    "midi": 35,
                    "time": 65.97488000000001,
                    "velocity": 0.29133858267716534,
                    "duration": 0.1030857500000053
                },
                {
                    "name": "E2",
                    "midi": 40,
                    "time": 66.07796575000002,
                    "velocity": 0.23622047244094488,
                    "duration": 0.1030857500000053
                },
                {
                    "name": "G2",
                    "midi": 43,
                    "time": 66.18105150000002,
                    "velocity": 0.23622047244094488,
                    "duration": 0.1030857500000053
                },
                {
                    "name": "E2",
                    "midi": 40,
                    "time": 66.28413725000003,
                    "velocity": 0.23622047244094488,
                    "duration": 0.1030857500000053
                },
                {
                    "name": "B1",
                    "midi": 35,
                    "time": 66.38722300000003,
                    "velocity": 0.2755905511811024,
                    "duration": 0.1030857500000053
                },
                {
                    "name": "E2",
                    "midi": 40,
                    "time": 66.49030875000004,
                    "velocity": 0.23622047244094488,
                    "duration": 0.1030857500000053
                },
                {
                    "name": "G2",
                    "midi": 43,
                    "time": 66.59339450000004,
                    "velocity": 0.23622047244094488,
                    "duration": 0.1030857500000053
                },
                {
                    "name": "E2",
                    "midi": 40,
                    "time": 66.69648025000005,
                    "velocity": 0.23622047244094488,
                    "duration": 0.1030857500000053
                },
                {
                    "name": "B1",
                    "midi": 35,
                    "time": 66.79956600000006,
                    "velocity": 0.2755905511811024,
                    "duration": 0.1030857500000053
                },
                {
                    "name": "E2",
                    "midi": 40,
                    "time": 66.90265175000006,
                    "velocity": 0.23622047244094488,
                    "duration": 0.1030857500000053
                },
                {
                    "name": "G2",
                    "midi": 43,
                    "time": 67.00573750000007,
                    "velocity": 0.23622047244094488,
                    "duration": 0.1030857500000053
                },
                {
                    "name": "E2",
                    "midi": 40,
                    "time": 67.10882325000007,
                    "velocity": 0.23622047244094488,
                    "duration": 0.1030857500000053
                },
                {
                    "name": "B1",
                    "midi": 35,
                    "time": 67.21190900000008,
                    "velocity": 0.2755905511811024,
                    "duration": 0.1030857500000053
                },
                {
                    "name": "E2",
                    "midi": 40,
                    "time": 67.31499475000008,
                    "velocity": 0.23622047244094488,
                    "duration": 0.1030857500000053
                },
                {
                    "name": "G2",
                    "midi": 43,
                    "time": 67.41808050000009,
                    "velocity": 0.23622047244094488,
                    "duration": 0.1030857500000053
                },
                {
                    "name": "E2",
                    "midi": 40,
                    "time": 67.52116625000009,
                    "velocity": 0.23622047244094488,
                    "duration": 0.1030857500000053
                },
                {
                    "name": "C2",
                    "midi": 36,
                    "time": 67.6242520000001,
                    "velocity": 0.29133858267716534,
                    "duration": 0.1030857500000053
                },
                {
                    "name": "E2",
                    "midi": 40,
                    "time": 67.7273377500001,
                    "velocity": 0.23622047244094488,
                    "duration": 0.1030857500000053
                },
                {
                    "name": "A2",
                    "midi": 45,
                    "time": 67.83042350000011,
                    "velocity": 0.23622047244094488,
                    "duration": 0.1030857500000053
                },
                {
                    "name": "E2",
                    "midi": 40,
                    "time": 67.93350925000011,
                    "velocity": 0.23622047244094488,
                    "duration": 0.1030857500000053
                },
                {
                    "name": "C2",
                    "midi": 36,
                    "time": 68.03659500000012,
                    "velocity": 0.2755905511811024,
                    "duration": 0.1030857500000053
                },
                {
                    "name": "E2",
                    "midi": 40,
                    "time": 68.13968075000012,
                    "velocity": 0.23622047244094488,
                    "duration": 0.1030857500000053
                },
                {
                    "name": "A2",
                    "midi": 45,
                    "time": 68.24276650000013,
                    "velocity": 0.23622047244094488,
                    "duration": 0.1030857500000053
                },
                {
                    "name": "E2",
                    "midi": 40,
                    "time": 68.34585225000014,
                    "velocity": 0.23622047244094488,
                    "duration": 0.1030857500000053
                },
                {
                    "name": "C2",
                    "midi": 36,
                    "time": 68.44893800000014,
                    "velocity": 0.2755905511811024,
                    "duration": 0.1030857500000053
                },
                {
                    "name": "E2",
                    "midi": 40,
                    "time": 68.55202375000015,
                    "velocity": 0.23622047244094488,
                    "duration": 0.1030857500000053
                },
                {
                    "name": "A2",
                    "midi": 45,
                    "time": 68.65510950000015,
                    "velocity": 0.23622047244094488,
                    "duration": 0.1030857500000053
                },
                {
                    "name": "E2",
                    "midi": 40,
                    "time": 68.75819525000016,
                    "velocity": 0.23622047244094488,
                    "duration": 0.1030857500000053
                },
                {
                    "name": "C2",
                    "midi": 36,
                    "time": 68.86128100000016,
                    "velocity": 0.2755905511811024,
                    "duration": 0.1030857500000053
                },
                {
                    "name": "E2",
                    "midi": 40,
                    "time": 68.96436675000017,
                    "velocity": 0.23622047244094488,
                    "duration": 0.1030857500000053
                },
                {
                    "name": "A2",
                    "midi": 45,
                    "time": 69.06745250000017,
                    "velocity": 0.23622047244094488,
                    "duration": 0.1030857500000053
                },
                {
                    "name": "E2",
                    "midi": 40,
                    "time": 69.17053825000018,
                    "velocity": 0.23622047244094488,
                    "duration": 0.1030857500000053
                },
                {
                    "name": "D2",
                    "midi": 38,
                    "time": 69.27362400000018,
                    "velocity": 0.2125984251968504,
                    "duration": 0.1030857499999911
                },
                {
                    "name": "G2",
                    "midi": 43,
                    "time": 69.37670975000017,
                    "velocity": 0.2204724409448819,
                    "duration": 0.1030857500000053
                },
                {
                    "name": "B2",
                    "midi": 47,
                    "time": 69.47979550000018,
                    "velocity": 0.2204724409448819,
                    "duration": 0.1030857500000053
                },
                {
                    "name": "G2",
                    "midi": 43,
                    "time": 69.58288125000018,
                    "velocity": 0.2204724409448819,
                    "duration": 0.1030857500000053
                },
                {
                    "name": "D2",
                    "midi": 38,
                    "time": 69.68596700000019,
                    "velocity": 0.2204724409448819,
                    "duration": 0.1030857500000053
                },
                {
                    "name": "G2",
                    "midi": 43,
                    "time": 69.7890527500002,
                    "velocity": 0.2204724409448819,
                    "duration": 0.1030857500000053
                },
                {
                    "name": "B2",
                    "midi": 47,
                    "time": 69.8921385000002,
                    "velocity": 0.2204724409448819,
                    "duration": 0.1030857500000053
                },
                {
                    "name": "G2",
                    "midi": 43,
                    "time": 69.9952242500002,
                    "velocity": 0.2204724409448819,
                    "duration": 0.1030857500000053
                },
                {
                    "name": "D2",
                    "midi": 38,
                    "time": 70.09831000000021,
                    "velocity": 0.2204724409448819,
                    "duration": 0.1030857500000053
                },
                {
                    "name": "G2",
                    "midi": 43,
                    "time": 70.20139575000022,
                    "velocity": 0.2204724409448819,
                    "duration": 0.1030857500000053
                },
                {
                    "name": "B2",
                    "midi": 47,
                    "time": 70.30448150000022,
                    "velocity": 0.2204724409448819,
                    "duration": 0.1030857500000053
                },
                {
                    "name": "G2",
                    "midi": 43,
                    "time": 70.40756725000023,
                    "velocity": 0.2204724409448819,
                    "duration": 0.1030857500000053
                },
                {
                    "name": "D2",
                    "midi": 38,
                    "time": 70.51065300000023,
                    "velocity": 0.2283464566929134,
                    "duration": 0.1030857500000053
                },
                {
                    "name": "G2",
                    "midi": 43,
                    "time": 70.61373875000024,
                    "velocity": 0.2204724409448819,
                    "duration": 0.1030857500000053
                },
                {
                    "name": "B2",
                    "midi": 47,
                    "time": 70.71682450000024,
                    "velocity": 0.2204724409448819,
                    "duration": 0.1030857500000053
                },
                {
                    "name": "G2",
                    "midi": 43,
                    "time": 70.81991025000025,
                    "velocity": 0.2204724409448819,
                    "duration": 0.1030857500000053
                },
                {
                    "name": "D2",
                    "midi": 38,
                    "time": 70.92299600000025,
                    "velocity": 0.2283464566929134,
                    "duration": 0.1030857499999911
                },
                {
                    "name": "A2",
                    "midi": 45,
                    "time": 71.02608175000024,
                    "velocity": 0.2204724409448819,
                    "duration": 0.1030857500000053
                },
                {
                    "name": "C3",
                    "midi": 48,
                    "time": 71.12916750000025,
                    "velocity": 0.2204724409448819,
                    "duration": 0.1030857500000053
                },
                {
                    "name": "A2",
                    "midi": 45,
                    "time": 71.23225325000026,
                    "velocity": 0.2204724409448819,
                    "duration": 0.1030857500000053
                },
                {
                    "name": "D2",
                    "midi": 38,
                    "time": 71.33533900000026,
                    "velocity": 0.2283464566929134,
                    "duration": 0.1030857500000053
                },
                {
                    "name": "A2",
                    "midi": 45,
                    "time": 71.43842475000027,
                    "velocity": 0.2204724409448819,
                    "duration": 0.1030857500000053
                },
                {
                    "name": "C3",
                    "midi": 48,
                    "time": 71.54151050000027,
                    "velocity": 0.2204724409448819,
                    "duration": 0.1030857500000053
                },
                {
                    "name": "A2",
                    "midi": 45,
                    "time": 71.64459625000028,
                    "velocity": 0.2204724409448819,
                    "duration": 0.1030857500000053
                },
                {
                    "name": "D2",
                    "midi": 38,
                    "time": 71.74768200000028,
                    "velocity": 0.2283464566929134,
                    "duration": 0.1030857499999911
                },
                {
                    "name": "A2",
                    "midi": 45,
                    "time": 71.85076775000027,
                    "velocity": 0.2204724409448819,
                    "duration": 0.1030857500000053
                },
                {
                    "name": "C3",
                    "midi": 48,
                    "time": 71.95385350000028,
                    "velocity": 0.2204724409448819,
                    "duration": 0.1030857500000053
                },
                {
                    "name": "A2",
                    "midi": 45,
                    "time": 72.05693925000028,
                    "velocity": 0.2204724409448819,
                    "duration": 0.1030857500000053
                },
                {
                    "name": "D2",
                    "midi": 38,
                    "time": 72.16002500000029,
                    "velocity": 0.2204724409448819,
                    "duration": 0.1030857500000053
                },
                {
                    "name": "A2",
                    "midi": 45,
                    "time": 72.2631107500003,
                    "velocity": 0.2204724409448819,
                    "duration": 0.1030857500000053
                },
                {
                    "name": "C3",
                    "midi": 48,
                    "time": 72.3661965000003,
                    "velocity": 0.2204724409448819,
                    "duration": 0.1030857500000053
                },
                {
                    "name": "A2",
                    "midi": 45,
                    "time": 72.4692822500003,
                    "velocity": 0.2204724409448819,
                    "duration": 0.1030857500000053
                },
                {
                    "name": "G2",
                    "midi": 43,
                    "time": 72.57236800000031,
                    "velocity": 0.2204724409448819,
                    "duration": 0.2061714999999964
                },
                {
                    "name": "E2",
                    "midi": 40,
                    "time": 75.87111200000031,
                    "velocity": 0.25984251968503935,
                    "duration": 0.8246859999999998
                },
                {
                    "name": "B2",
                    "midi": 47,
                    "time": 76.0772835000003,
                    "velocity": 0.2125984251968504,
                    "duration": 0.6185145000000034
                },
                {
                    "name": "E2",
                    "midi": 40,
                    "time": 76.69579800000031,
                    "velocity": 0.2440944881889764,
                    "duration": 0.8246859999999998
                },
                {
                    "name": "B2",
                    "midi": 47,
                    "time": 76.9019695000003,
                    "velocity": 0.2125984251968504,
                    "duration": 0.6185145000000034
                },
                {
                    "name": "F#2",
                    "midi": 42,
                    "time": 77.52048400000031,
                    "velocity": 0.25196850393700787,
                    "duration": 1.6493719999999996
                },
                {
                    "name": "B2",
                    "midi": 47,
                    "time": 77.7266555000003,
                    "velocity": 0.2125984251968504,
                    "duration": 0.19586292500000013
                },
                {
                    "name": "B2",
                    "midi": 47,
                    "time": 77.9328270000003,
                    "velocity": 0.2125984251968504,
                    "duration": 0.19586292500000013
                },
                {
                    "name": "B2",
                    "midi": 47,
                    "time": 78.1389985000003,
                    "velocity": 0.2125984251968504,
                    "duration": 0.19586292500000013
                },
                {
                    "name": "B2",
                    "midi": 47,
                    "time": 78.3451700000003,
                    "velocity": 0.25196850393700787,
                    "duration": 0.2061714999999964
                },
                {
                    "name": "C#3",
                    "midi": 49,
                    "time": 78.55134150000029,
                    "velocity": 0.2755905511811024,
                    "duration": 0.2061714999999964
                },
                {
                    "name": "B2",
                    "midi": 47,
                    "time": 78.75751300000029,
                    "velocity": 0.2440944881889764,
                    "duration": 0.1030857500000053
                },
                {
                    "name": "B2",
                    "midi": 47,
                    "time": 78.9636845000003,
                    "velocity": 0.2440944881889764,
                    "duration": 0.1030857500000053
                },
                {
                    "name": "F#2",
                    "midi": 42,
                    "time": 79.16985600000031,
                    "velocity": 0.25984251968503935,
                    "duration": 0.8246859999999998
                },
                {
                    "name": "B2",
                    "midi": 47,
                    "time": 79.3760275000003,
                    "velocity": 0.2125984251968504,
                    "duration": 0.6185145000000034
                },
                {
                    "name": "F#2",
                    "midi": 42,
                    "time": 79.99454200000031,
                    "velocity": 0.2440944881889764,
                    "duration": 0.824686000000014
                },
                {
                    "name": "B2",
                    "midi": 47,
                    "time": 80.20071350000032,
                    "velocity": 0.2125984251968504,
                    "duration": 0.6185145000000034
                },
                {
                    "name": "G#2",
                    "midi": 44,
                    "time": 80.81922800000032,
                    "velocity": 0.25196850393700787,
                    "duration": 1.6493719999999996
                },
                {
                    "name": "B2",
                    "midi": 47,
                    "time": 81.02539950000032,
                    "velocity": 0.2125984251968504,
                    "duration": 0.19586292500000013
                },
                {
                    "name": "B2",
                    "midi": 47,
                    "time": 81.23157100000032,
                    "velocity": 0.2125984251968504,
                    "duration": 0.19586292500000013
                },
                {
                    "name": "B2",
                    "midi": 47,
                    "time": 81.43774250000031,
                    "velocity": 0.2125984251968504,
                    "duration": 0.19586292500000013
                },
                {
                    "name": "B2",
                    "midi": 47,
                    "time": 81.64391400000031,
                    "velocity": 0.25196850393700787,
                    "duration": 0.2061714999999964
                },
                {
                    "name": "C#3",
                    "midi": 49,
                    "time": 81.8500855000003,
                    "velocity": 0.30708661417322836,
                    "duration": 0.2061714999999964
                },
                {
                    "name": "B2",
                    "midi": 47,
                    "time": 82.0562570000003,
                    "velocity": 0.3228346456692913,
                    "duration": 0.1030857500000053
                },
                {
                    "name": "B2",
                    "midi": 47,
                    "time": 82.26242850000031,
                    "velocity": 0.36220472440944884,
                    "duration": 0.1030857500000053
                },
                {
                    "name": "F#3",
                    "midi": 54,
                    "time": 82.46860000000032,
                    "velocity": 0.4251968503937008,
                    "duration": 0.8246859999999856
                },
                {
                    "name": "B3",
                    "midi": 59,
                    "time": 82.67477150000032,
                    "velocity": 0.33858267716535434,
                    "duration": 0.2061714999999964
                },
                {
                    "name": "C#4",
                    "midi": 61,
                    "time": 82.88094300000031,
                    "velocity": 0.3228346456692913,
                    "duration": 0.2061714999999964
                },
                {
                    "name": "D#4",
                    "midi": 63,
                    "time": 83.08711450000031,
                    "velocity": 0.31496062992125984,
                    "duration": 0.2061714999999964
                },
                {
                    "name": "E3",
                    "midi": 52,
                    "time": 83.29328600000031,
                    "velocity": 0.23622047244094488,
                    "duration": 0.412343000000007
                },
                {
                    "name": "E4",
                    "midi": 64,
                    "time": 83.29328600000031,
                    "velocity": 0.3543307086614173,
                    "duration": 0.412343000000007
                },
                {
                    "name": "F#3",
                    "midi": 54,
                    "time": 83.70562900000031,
                    "velocity": 0.2125984251968504,
                    "duration": 0.2061714999999964
                },
                {
                    "name": "D#4",
                    "midi": 63,
                    "time": 83.70562900000031,
                    "velocity": 0.30708661417322836,
                    "duration": 0.2061714999999964
                },
                {
                    "name": "G#3",
                    "midi": 56,
                    "time": 83.91180050000031,
                    "velocity": 0.2047244094488189,
                    "duration": 0.2061714999999964
                },
                {
                    "name": "E4",
                    "midi": 64,
                    "time": 83.91180050000031,
                    "velocity": 0.29133858267716534,
                    "duration": 0.2061714999999964
                },
                {
                    "name": "F#4",
                    "midi": 66,
                    "time": 84.11797200000031,
                    "velocity": 0.3543307086614173,
                    "duration": 0.412343000000007
                },
                {
                    "name": "F#3",
                    "midi": 54,
                    "time": 84.11797200000031,
                    "velocity": 0.23622047244094488,
                    "duration": 0.412343000000007
                },
                {
                    "name": "E4",
                    "midi": 64,
                    "time": 84.53031500000031,
                    "velocity": 0.28346456692913385,
                    "duration": 0.412343000000007
                },
                {
                    "name": "F#3",
                    "midi": 54,
                    "time": 84.53031500000031,
                    "velocity": 0.1968503937007874,
                    "duration": 0.412343000000007
                },
                {
                    "name": "D#4",
                    "midi": 63,
                    "time": 84.94265800000032,
                    "velocity": 0.28346456692913385,
                    "duration": 0.2061714999999964
                },
                {
                    "name": "B3",
                    "midi": 59,
                    "time": 84.94265800000032,
                    "velocity": 0.1968503937007874,
                    "duration": 0.2061714999999964
                },
                {
                    "name": "E3",
                    "midi": 52,
                    "time": 85.76734400000032,
                    "velocity": 0.25984251968503935,
                    "duration": 0.824686000000014
                },
                {
                    "name": "B3",
                    "midi": 59,
                    "time": 85.97351550000033,
                    "velocity": 0.2125984251968504,
                    "duration": 0.6185145000000034
                },
                {
                    "name": "E3",
                    "midi": 52,
                    "time": 86.59203000000034,
                    "velocity": 0.2440944881889764,
                    "duration": 0.8246859999999998
                },
                {
                    "name": "B3",
                    "midi": 59,
                    "time": 86.79820150000033,
                    "velocity": 0.2125984251968504,
                    "duration": 0.6185145000000034
                },
                {
                    "name": "F#3",
                    "midi": 54,
                    "time": 87.41671600000033,
                    "velocity": 0.25196850393700787,
                    "duration": 1.649372000000028
                },
                {
                    "name": "B3",
                    "midi": 59,
                    "time": 87.62288750000033,
                    "velocity": 0.2125984251968504,
                    "duration": 0.19586292500000013
                },
                {
                    "name": "B3",
                    "midi": 59,
                    "time": 87.82905900000033,
                    "velocity": 0.2125984251968504,
                    "duration": 0.19586292500000013
                },
                {
                    "name": "B3",
                    "midi": 59,
                    "time": 88.03523050000032,
                    "velocity": 0.2125984251968504,
                    "duration": 0.19586292500000013
                },
                {
                    "name": "A#3",
                    "midi": 58,
                    "time": 88.24140200000032,
                    "velocity": 0.25196850393700787,
                    "duration": 0.1030857500000053
                },
                {
                    "name": "B3",
                    "midi": 59,
                    "time": 88.34448775000033,
                    "velocity": 0.2125984251968504,
                    "duration": 0.1030857500000053
                },
                {
                    "name": "C#4",
                    "midi": 61,
                    "time": 88.44757350000033,
                    "velocity": 0.2125984251968504,
                    "duration": 0.1030857500000053
                },
                {
                    "name": "B3",
                    "midi": 59,
                    "time": 88.55065925000034,
                    "velocity": 0.2283464566929134,
                    "duration": 0.1030857500000053
                },
                {
                    "name": "B3",
                    "midi": 59,
                    "time": 88.65374500000034,
                    "velocity": 0.2440944881889764,
                    "duration": 0.1030857500000053
                },
                {
                    "name": "B3",
                    "midi": 59,
                    "time": 88.85991650000035,
                    "velocity": 0.2440944881889764,
                    "duration": 0.1030857500000053
                },
                {
                    "name": "F#3",
                    "midi": 54,
                    "time": 89.06608800000036,
                    "velocity": 0.25984251968503935,
                    "duration": 0.8246859999999998
                },
                {
                    "name": "B3",
                    "midi": 59,
                    "time": 89.27225950000036,
                    "velocity": 0.2125984251968504,
                    "duration": 0.6185145000000034
                },
                {
                    "name": "F#3",
                    "midi": 54,
                    "time": 89.89077400000036,
                    "velocity": 0.2440944881889764,
                    "duration": 0.824686000000014
                },
                {
                    "name": "B3",
                    "midi": 59,
                    "time": 90.09694550000037,
                    "velocity": 0.2125984251968504,
                    "duration": 0.6185145000000034
                },
                {
                    "name": "G3",
                    "midi": 55,
                    "time": 90.71546000000038,
                    "velocity": 0.25196850393700787,
                    "duration": 1.6493720000000422
                },
                {
                    "name": "B3",
                    "midi": 59,
                    "time": 90.92163150000039,
                    "velocity": 0.2125984251968504,
                    "duration": 0.19586292500000013
                },
                {
                    "name": "B3",
                    "midi": 59,
                    "time": 91.12780300000038,
                    "velocity": 0.2125984251968504,
                    "duration": 0.19586292500000013
                },
                {
                    "name": "B3",
                    "midi": 59,
                    "time": 91.33397450000038,
                    "velocity": 0.2125984251968504,
                    "duration": 0.19586292500000013
                },
                {
                    "name": "A#3",
                    "midi": 58,
                    "time": 91.54014600000038,
                    "velocity": 0.25196850393700787,
                    "duration": 0.1030857500000053
                },
                {
                    "name": "B3",
                    "midi": 59,
                    "time": 91.64323175000038,
                    "velocity": 0.2125984251968504,
                    "duration": 0.1030857500000053
                },
                {
                    "name": "C4",
                    "midi": 60,
                    "time": 91.74631750000039,
                    "velocity": 0.2125984251968504,
                    "duration": 0.1030857500000053
                },
                {
                    "name": "B3",
                    "midi": 59,
                    "time": 91.84940325000039,
                    "velocity": 0.2125984251968504,
                    "duration": 0.1030857500000053
                },
                {
                    "name": "B3",
                    "midi": 59,
                    "time": 91.9524890000004,
                    "velocity": 0.2440944881889764,
                    "duration": 0.1030857500000053
                },
                {
                    "name": "B3",
                    "midi": 59,
                    "time": 92.15866050000041,
                    "velocity": 0.2440944881889764,
                    "duration": 0.1030857500000053
                },
                {
                    "name": "A3",
                    "midi": 57,
                    "time": 92.36483200000042,
                    "velocity": 0.25196850393700787,
                    "duration": 1.6493719999999996
                },
                {
                    "name": "E4",
                    "midi": 64,
                    "time": 92.57100350000042,
                    "velocity": 0.2125984251968504,
                    "duration": 0.19586292500000013
                },
                {
                    "name": "E4",
                    "midi": 64,
                    "time": 92.77717500000041,
                    "velocity": 0.2125984251968504,
                    "duration": 0.19586292500000013
                },
                {
                    "name": "E4",
                    "midi": 64,
                    "time": 92.98334650000041,
                    "velocity": 0.2125984251968504,
                    "duration": 0.19586292500000013
                },
                {
                    "name": "B3",
                    "midi": 59,
                    "time": 93.1895180000004,
                    "velocity": 0.28346456692913385,
                    "duration": 0.1030857500000053
                },
                {
                    "name": "C4",
                    "midi": 60,
                    "time": 93.29260375000041,
                    "velocity": 0.25196850393700787,
                    "duration": 0.1030857500000053
                },
                {
                    "name": "D4",
                    "midi": 62,
                    "time": 93.39568950000042,
                    "velocity": 0.2755905511811024,
                    "duration": 0.1030857500000053
                },
                {
                    "name": "C4",
                    "midi": 60,
                    "time": 93.49877525000042,
                    "velocity": 0.29133858267716534,
                    "duration": 0.1030857500000053
                },
                {
                    "name": "D4",
                    "midi": 62,
                    "time": 93.60186100000043,
                    "velocity": 0.2755905511811024,
                    "duration": 0.2061714999999964
                },
                {
                    "name": "E4",
                    "midi": 64,
                    "time": 93.80803250000042,
                    "velocity": 0.2677165354330709,
                    "duration": 0.2061714999999964
                },
                {
                    "name": "G3",
                    "midi": 55,
                    "time": 94.01420400000042,
                    "velocity": 0.25196850393700787,
                    "duration": 1.6493719999999996
                },
                {
                    "name": "E4",
                    "midi": 64,
                    "time": 94.22037550000042,
                    "velocity": 0.2125984251968504,
                    "duration": 0.19586292500000013
                },
                {
                    "name": "E4",
                    "midi": 64,
                    "time": 94.42654700000041,
                    "velocity": 0.2125984251968504,
                    "duration": 0.19586292500000013
                },
                {
                    "name": "E4",
                    "midi": 64,
                    "time": 94.63271850000041,
                    "velocity": 0.2125984251968504,
                    "duration": 0.19586292500000013
                },
                {
                    "name": "A#3",
                    "midi": 58,
                    "time": 94.8388900000004,
                    "velocity": 0.28346456692913385,
                    "duration": 0.1030857500000053
                },
                {
                    "name": "B3",
                    "midi": 59,
                    "time": 94.94197575000041,
                    "velocity": 0.25984251968503935,
                    "duration": 0.1030857500000053
                },
                {
                    "name": "C4",
                    "midi": 60,
                    "time": 95.04506150000041,
                    "velocity": 0.2755905511811024,
                    "duration": 0.1030857500000053
                },
                {
                    "name": "B3",
                    "midi": 59,
                    "time": 95.14814725000042,
                    "velocity": 0.2992125984251969,
                    "duration": 0.1030857500000053
                },
                {
                    "name": "E4",
                    "midi": 64,
                    "time": 95.25123300000043,
                    "velocity": 0.31496062992125984,
                    "duration": 0.2061714999999964
                },
                {
                    "name": "G4",
                    "midi": 67,
                    "time": 95.45740450000042,
                    "velocity": 0.2677165354330709,
                    "duration": 0.2061714999999964
                },
                {
                    "name": "F#3",
                    "midi": 54,
                    "time": 95.66357600000042,
                    "velocity": 0.25984251968503935,
                    "duration": 0.2061714999999964
                },
                {
                    "name": "G3",
                    "midi": 55,
                    "time": 95.86974750000041,
                    "velocity": 0.28346456692913385,
                    "duration": 0.2061714999999964
                },
                {
                    "name": "B3",
                    "midi": 59,
                    "time": 96.07591900000041,
                    "velocity": 0.30708661417322836,
                    "duration": 0.2061714999999964
                },
                {
                    "name": "A3",
                    "midi": 57,
                    "time": 96.07591900000041,
                    "velocity": 0.25984251968503935,
                    "duration": 0.2061714999999964
                },
                {
                    "name": "B3",
                    "midi": 59,
                    "time": 96.28209050000041,
                    "velocity": 0.2755905511811024,
                    "duration": 0.2061714999999964
                },
                {
                    "name": "F#3",
                    "midi": 54,
                    "time": 96.28209050000041,
                    "velocity": 0.2283464566929134,
                    "duration": 0.2061714999999964
                },
                {
                    "name": "E3",
                    "midi": 52,
                    "time": 96.4882620000004,
                    "velocity": 0.25984251968503935,
                    "duration": 0.2061714999999964
                },
                {
                    "name": "F#3",
                    "midi": 54,
                    "time": 96.6944335000004,
                    "velocity": 0.28346456692913385,
                    "duration": 0.2061714999999964
                },
                {
                    "name": "B3",
                    "midi": 59,
                    "time": 96.9006050000004,
                    "velocity": 0.3228346456692913,
                    "duration": 0.2061714999999964
                },
                {
                    "name": "G3",
                    "midi": 55,
                    "time": 96.9006050000004,
                    "velocity": 0.2677165354330709,
                    "duration": 0.2061714999999964
                },
                {
                    "name": "B3",
                    "midi": 59,
                    "time": 97.1067765000004,
                    "velocity": 0.28346456692913385,
                    "duration": 0.2061714999999964
                },
                {
                    "name": "E3",
                    "midi": 52,
                    "time": 97.1067765000004,
                    "velocity": 0.23622047244094488,
                    "duration": 0.2061714999999964
                },
                {
                    "name": "B3",
                    "midi": 59,
                    "time": 97.31294800000039,
                    "velocity": 0.33858267716535434,
                    "duration": 0.2061714999999964
                },
                {
                    "name": "B2",
                    "midi": 47,
                    "time": 97.31294800000039,
                    "velocity": 0.28346456692913385,
                    "duration": 0.8246859999999856
                },
                {
                    "name": "A#3",
                    "midi": 58,
                    "time": 97.51911950000039,
                    "velocity": 0.30708661417322836,
                    "duration": 0.2061714999999964
                },
                {
                    "name": "B3",
                    "midi": 59,
                    "time": 97.72529100000038,
                    "velocity": 0.33070866141732286,
                    "duration": 0.2061714999999964
                },
                {
                    "name": "C4",
                    "midi": 60,
                    "time": 97.93146250000038,
                    "velocity": 0.3464566929133858,
                    "duration": 0.2061714999999964
                },
                {
                    "name": "B3",
                    "midi": 59,
                    "time": 98.13763400000038,
                    "velocity": 0.3700787401574803,
                    "duration": 0.2061714999999964
                },
                {
                    "name": "A3",
                    "midi": 57,
                    "time": 98.34380550000037,
                    "velocity": 0.3464566929133858,
                    "duration": 0.2061714999999964
                },
                {
                    "name": "F#3",
                    "midi": 54,
                    "time": 98.54997700000037,
                    "velocity": 0.3464566929133858,
                    "duration": 0.2061714999999964
                },
                {
                    "name": "D#3",
                    "midi": 51,
                    "time": 98.75614850000036,
                    "velocity": 0.33858267716535434,
                    "duration": 0.2061714999999964
                },
                {
                    "name": "F#2",
                    "midi": 42,
                    "time": 98.96232000000036,
                    "velocity": 0.25984251968503935,
                    "duration": 0.2061714999999964
                },
                {
                    "name": "G2",
                    "midi": 43,
                    "time": 99.16849150000036,
                    "velocity": 0.28346456692913385,
                    "duration": 0.2061714999999964
                },
                {
                    "name": "B2",
                    "midi": 47,
                    "time": 99.37466300000035,
                    "velocity": 0.30708661417322836,
                    "duration": 0.2061714999999964
                },
                {
                    "name": "A2",
                    "midi": 45,
                    "time": 99.37466300000035,
                    "velocity": 0.25984251968503935,
                    "duration": 0.2061714999999964
                },
                {
                    "name": "B2",
                    "midi": 47,
                    "time": 99.58083450000035,
                    "velocity": 0.2755905511811024,
                    "duration": 0.2061714999999964
                },
                {
                    "name": "F#2",
                    "midi": 42,
                    "time": 99.58083450000035,
                    "velocity": 0.2283464566929134,
                    "duration": 0.2061714999999964
                },
                {
                    "name": "E2",
                    "midi": 40,
                    "time": 99.78700600000035,
                    "velocity": 0.25984251968503935,
                    "duration": 0.2061714999999964
                },
                {
                    "name": "F#2",
                    "midi": 42,
                    "time": 99.99317750000034,
                    "velocity": 0.28346456692913385,
                    "duration": 0.2061714999999964
                },
                {
                    "name": "B2",
                    "midi": 47,
                    "time": 100.19934900000034,
                    "velocity": 0.3228346456692913,
                    "duration": 0.2061714999999964
                },
                {
                    "name": "G2",
                    "midi": 43,
                    "time": 100.19934900000034,
                    "velocity": 0.2677165354330709,
                    "duration": 0.2061714999999964
                },
                {
                    "name": "B2",
                    "midi": 47,
                    "time": 100.40552050000034,
                    "velocity": 0.28346456692913385,
                    "duration": 0.2061714999999964
                },
                {
                    "name": "E2",
                    "midi": 40,
                    "time": 100.40552050000034,
                    "velocity": 0.23622047244094488,
                    "duration": 0.2061714999999964
                },
                {
                    "name": "B1",
                    "midi": 35,
                    "time": 100.61169200000033,
                    "velocity": 0.33858267716535434,
                    "duration": 0.4080477604166646
                },
                {
                    "name": "B2",
                    "midi": 47,
                    "time": 100.61169200000033,
                    "velocity": 0.33858267716535434,
                    "duration": 0.4080477604166646
                },
                {
                    "name": "B1",
                    "midi": 35,
                    "time": 101.02403500000032,
                    "velocity": 0.28346456692913385,
                    "duration": 0.19586292500000013
                },
                {
                    "name": "B2",
                    "midi": 47,
                    "time": 101.02403500000032,
                    "velocity": 0.28346456692913385,
                    "duration": 0.19586292500000013
                },
                {
                    "name": "B1",
                    "midi": 35,
                    "time": 101.23020650000032,
                    "velocity": 0.28346456692913385,
                    "duration": 0.19586292500000013
                },
                {
                    "name": "B2",
                    "midi": 47,
                    "time": 101.23020650000032,
                    "velocity": 0.28346456692913385,
                    "duration": 0.19586292500000013
                },
                {
                    "name": "B1",
                    "midi": 35,
                    "time": 101.43637800000032,
                    "velocity": 0.33858267716535434,
                    "duration": 0.4080477604166646
                },
                {
                    "name": "B2",
                    "midi": 47,
                    "time": 101.43637800000032,
                    "velocity": 0.33858267716535434,
                    "duration": 0.4080477604166646
                },
                {
                    "name": "B1",
                    "midi": 35,
                    "time": 101.84872100000031,
                    "velocity": 0.28346456692913385,
                    "duration": 0.19586292500000013
                },
                {
                    "name": "B2",
                    "midi": 47,
                    "time": 101.84872100000031,
                    "velocity": 0.28346456692913385,
                    "duration": 0.19586292500000013
                },
                {
                    "name": "B1",
                    "midi": 35,
                    "time": 102.0548925000003,
                    "velocity": 0.29133858267716534,
                    "duration": 0.19586292500000013
                },
                {
                    "name": "B2",
                    "midi": 47,
                    "time": 102.0548925000003,
                    "velocity": 0.29133858267716534,
                    "duration": 0.19586292500000013
                },
                {
                    "name": "B1",
                    "midi": 35,
                    "time": 102.2610640000003,
                    "velocity": 0.33858267716535434,
                    "duration": 0.2061714999999964
                },
                {
                    "name": "B2",
                    "midi": 47,
                    "time": 102.2610640000003,
                    "velocity": 0.33858267716535434,
                    "duration": 0.2061714999999964
                },
                {
                    "name": "D2",
                    "midi": 38,
                    "time": 102.4672355000003,
                    "velocity": 0.28346456692913385,
                    "duration": 0.2061714999999964
                },
                {
                    "name": "D3",
                    "midi": 50,
                    "time": 102.4672355000003,
                    "velocity": 0.28346456692913385,
                    "duration": 0.2061714999999964
                },
                {
                    "name": "C#2",
                    "midi": 37,
                    "time": 102.6734070000003,
                    "velocity": 0.28346456692913385,
                    "duration": 0.6185145000000034
                },
                {
                    "name": "C#3",
                    "midi": 49,
                    "time": 102.6734070000003,
                    "velocity": 0.28346456692913385,
                    "duration": 0.6185145000000034
                },
                {
                    "name": "B1",
                    "midi": 35,
                    "time": 103.2919215000003,
                    "velocity": 0.28346456692913385,
                    "duration": 0.2061714999999964
                },
                {
                    "name": "B2",
                    "midi": 47,
                    "time": 103.2919215000003,
                    "velocity": 0.28346456692913385,
                    "duration": 0.2061714999999964
                },
                {
                    "name": "A1",
                    "midi": 33,
                    "time": 103.4980930000003,
                    "velocity": 0.28346456692913385,
                    "duration": 0.2061714999999964
                },
                {
                    "name": "A2",
                    "midi": 45,
                    "time": 103.4980930000003,
                    "velocity": 0.28346456692913385,
                    "duration": 0.2061714999999964
                },
                {
                    "name": "G#1",
                    "midi": 32,
                    "time": 103.70426450000029,
                    "velocity": 0.28346456692913385,
                    "duration": 0.2061714999999964
                },
                {
                    "name": "G#2",
                    "midi": 44,
                    "time": 103.70426450000029,
                    "velocity": 0.28346456692913385,
                    "duration": 0.2061714999999964
                },
                {
                    "name": "F#1",
                    "midi": 30,
                    "time": 103.91043600000029,
                    "velocity": 0.31496062992125984,
                    "duration": 1.0308574999999962
                },
                {
                    "name": "F#2",
                    "midi": 42,
                    "time": 103.91043600000029,
                    "velocity": 0.31496062992125984,
                    "duration": 1.0308574999999962
                },
                {
                    "name": "G#1",
                    "midi": 32,
                    "time": 104.94129350000028,
                    "velocity": 0.28346456692913385,
                    "duration": 0.2061714999999964
                },
                {
                    "name": "G#2",
                    "midi": 44,
                    "time": 104.94129350000028,
                    "velocity": 0.28346456692913385,
                    "duration": 0.2061714999999964
                },
                {
                    "name": "A1",
                    "midi": 33,
                    "time": 105.14746500000028,
                    "velocity": 0.28346456692913385,
                    "duration": 0.2061714999999964
                },
                {
                    "name": "A2",
                    "midi": 45,
                    "time": 105.14746500000028,
                    "velocity": 0.28346456692913385,
                    "duration": 0.2061714999999964
                },
                {
                    "name": "A#1",
                    "midi": 34,
                    "time": 105.35363650000028,
                    "velocity": 0.28346456692913385,
                    "duration": 0.2061714999999964
                },
                {
                    "name": "A#2",
                    "midi": 46,
                    "time": 105.35363650000028,
                    "velocity": 0.28346456692913385,
                    "duration": 0.2061714999999964
                },
                {
                    "name": "A#1",
                    "midi": 34,
                    "time": 105.55980800000027,
                    "velocity": 0.33858267716535434,
                    "duration": 0.2061714999999964
                },
                {
                    "name": "A#2",
                    "midi": 46,
                    "time": 105.55980800000027,
                    "velocity": 0.33858267716535434,
                    "duration": 0.2061714999999964
                },
                {
                    "name": "C#2",
                    "midi": 37,
                    "time": 105.76597950000027,
                    "velocity": 0.2755905511811024,
                    "duration": 0.2061714999999964
                },
                {
                    "name": "C#3",
                    "midi": 49,
                    "time": 105.76597950000027,
                    "velocity": 0.2755905511811024,
                    "duration": 0.2061714999999964
                },
                {
                    "name": "B1",
                    "midi": 35,
                    "time": 105.97215100000027,
                    "velocity": 0.2755905511811024,
                    "duration": 0.6185145000000034
                },
                {
                    "name": "B2",
                    "midi": 47,
                    "time": 105.97215100000027,
                    "velocity": 0.2755905511811024,
                    "duration": 0.6185145000000034
                },
                {
                    "name": "A1",
                    "midi": 33,
                    "time": 106.59066550000027,
                    "velocity": 0.2755905511811024,
                    "duration": 0.2061714999999964
                },
                {
                    "name": "A2",
                    "midi": 45,
                    "time": 106.59066550000027,
                    "velocity": 0.2755905511811024,
                    "duration": 0.2061714999999964
                },
                {
                    "name": "G#1",
                    "midi": 32,
                    "time": 106.79683700000027,
                    "velocity": 0.28346456692913385,
                    "duration": 0.2061714999999964
                },
                {
                    "name": "G#2",
                    "midi": 44,
                    "time": 106.79683700000027,
                    "velocity": 0.28346456692913385,
                    "duration": 0.2061714999999964
                },
                {
                    "name": "F#1",
                    "midi": 30,
                    "time": 107.00300850000026,
                    "velocity": 0.28346456692913385,
                    "duration": 0.2061714999999964
                },
                {
                    "name": "F#2",
                    "midi": 42,
                    "time": 107.00300850000026,
                    "velocity": 0.28346456692913385,
                    "duration": 0.2061714999999964
                },
                {
                    "name": "E2",
                    "midi": 40,
                    "time": 107.20918000000026,
                    "velocity": 0.29133858267716534,
                    "duration": 1.2370290000000068
                },
                {
                    "name": "D2",
                    "midi": 38,
                    "time": 108.44620900000027,
                    "velocity": 0.2677165354330709,
                    "duration": 0.412343000000007
                },
                {
                    "name": "C2",
                    "midi": 36,
                    "time": 108.85855200000027,
                    "velocity": 0.2440944881889764,
                    "duration": 0.1030857499999911
                },
                {
                    "name": "G2",
                    "midi": 43,
                    "time": 108.96163775000026,
                    "velocity": 0.2125984251968504,
                    "duration": 0.1030857500000053
                },
                {
                    "name": "C2",
                    "midi": 36,
                    "time": 109.06472350000027,
                    "velocity": 0.25196850393700787,
                    "duration": 0.1030857500000053
                },
                {
                    "name": "G2",
                    "midi": 43,
                    "time": 109.16780925000027,
                    "velocity": 0.2283464566929134,
                    "duration": 0.1030857500000053
                },
                {
                    "name": "C2",
                    "midi": 36,
                    "time": 109.27089500000028,
                    "velocity": 0.25984251968503935,
                    "duration": 0.1030857500000053
                },
                {
                    "name": "G2",
                    "midi": 43,
                    "time": 109.37398075000029,
                    "velocity": 0.23622047244094488,
                    "duration": 0.1030857500000053
                },
                {
                    "name": "C2",
                    "midi": 36,
                    "time": 109.47706650000029,
                    "velocity": 0.2755905511811024,
                    "duration": 0.1030857500000053
                },
                {
                    "name": "G2",
                    "midi": 43,
                    "time": 109.5801522500003,
                    "velocity": 0.2440944881889764,
                    "duration": 0.1030857500000053
                },
                {
                    "name": "C2",
                    "midi": 36,
                    "time": 109.6832380000003,
                    "velocity": 0.28346456692913385,
                    "duration": 0.1030857500000053
                },
                {
                    "name": "G2",
                    "midi": 43,
                    "time": 109.7863237500003,
                    "velocity": 0.2440944881889764,
                    "duration": 0.1030857500000053
                },
                {
                    "name": "C2",
                    "midi": 36,
                    "time": 109.88940950000031,
                    "velocity": 0.2992125984251969,
                    "duration": 0.1030857500000053
                },
                {
                    "name": "G2",
                    "midi": 43,
                    "time": 109.99249525000032,
                    "velocity": 0.25196850393700787,
                    "duration": 0.1030857500000053
                },
                {
                    "name": "C2",
                    "midi": 36,
                    "time": 110.09558100000032,
                    "velocity": 0.30708661417322836,
                    "duration": 0.1030857500000053
                },
                {
                    "name": "G2",
                    "midi": 43,
                    "time": 110.19866675000033,
                    "velocity": 0.2677165354330709,
                    "duration": 0.1030857500000053
                },
                {
                    "name": "C2",
                    "midi": 36,
                    "time": 110.30175250000033,
                    "velocity": 0.3228346456692913,
                    "duration": 0.1030857500000053
                },
                {
                    "name": "G2",
                    "midi": 43,
                    "time": 110.40483825000034,
                    "velocity": 0.28346456692913385,
                    "duration": 0.1030857500000053
                },
                {
                    "name": "C2",
                    "midi": 36,
                    "time": 110.50792400000034,
                    "velocity": 0.33070866141732286,
                    "duration": 0.1030857499999911
                },
                {
                    "name": "G2",
                    "midi": 43,
                    "time": 110.61100975000033,
                    "velocity": 0.2992125984251969,
                    "duration": 0.1030857500000053
                },
                {
                    "name": "C2",
                    "midi": 36,
                    "time": 110.71409550000034,
                    "velocity": 0.33858267716535434,
                    "duration": 0.1030857500000053
                },
                {
                    "name": "G2",
                    "midi": 43,
                    "time": 110.81718125000035,
                    "velocity": 0.30708661417322836,
                    "duration": 0.1030857500000053
                },
                {
                    "name": "C2",
                    "midi": 36,
                    "time": 110.92026700000035,
                    "velocity": 0.36220472440944884,
                    "duration": 0.1030857500000053
                },
                {
                    "name": "G2",
                    "midi": 43,
                    "time": 111.02335275000036,
                    "velocity": 0.3228346456692913,
                    "duration": 0.1030857500000053
                },
                {
                    "name": "C2",
                    "midi": 36,
                    "time": 111.12643850000036,
                    "velocity": 0.3700787401574803,
                    "duration": 0.1030857500000053
                },
                {
                    "name": "G2",
                    "midi": 43,
                    "time": 111.22952425000037,
                    "velocity": 0.3228346456692913,
                    "duration": 0.1030857500000053
                },
                {
                    "name": "C2",
                    "midi": 36,
                    "time": 111.33261000000037,
                    "velocity": 0.3858267716535433,
                    "duration": 0.1030857500000053
                },
                {
                    "name": "G2",
                    "midi": 43,
                    "time": 111.43569575000038,
                    "velocity": 0.3464566929133858,
                    "duration": 0.1030857500000053
                },
                {
                    "name": "C2",
                    "midi": 36,
                    "time": 111.53878150000038,
                    "velocity": 0.3937007874015748,
                    "duration": 0.1030857500000053
                },
                {
                    "name": "G2",
                    "midi": 43,
                    "time": 111.64186725000039,
                    "velocity": 0.33858267716535434,
                    "duration": 0.1030857500000053
                },
                {
                    "name": "C2",
                    "midi": 36,
                    "time": 111.7449530000004,
                    "velocity": 0.4094488188976378,
                    "duration": 0.1030857500000053
                },
                {
                    "name": "G2",
                    "midi": 43,
                    "time": 111.8480387500004,
                    "velocity": 0.36220472440944884,
                    "duration": 0.1030857500000053
                },
                {
                    "name": "C2",
                    "midi": 36,
                    "time": 111.9511245000004,
                    "velocity": 0.41732283464566927,
                    "duration": 0.1030857500000053
                },
                {
                    "name": "G2",
                    "midi": 43,
                    "time": 112.05421025000041,
                    "velocity": 0.3543307086614173,
                    "duration": 0.1030857500000053
                },
                {
                    "name": "C2",
                    "midi": 36,
                    "time": 112.15729600000041,
                    "velocity": 0.4330708661417323,
                    "duration": 0.1030857499999911
                },
                {
                    "name": "G2",
                    "midi": 43,
                    "time": 112.2603817500004,
                    "velocity": 0.3858267716535433,
                    "duration": 0.1030857500000053
                },
                {
                    "name": "C2",
                    "midi": 36,
                    "time": 112.36346750000041,
                    "velocity": 0.44881889763779526,
                    "duration": 0.1030857500000053
                },
                {
                    "name": "G2",
                    "midi": 43,
                    "time": 112.46655325000042,
                    "velocity": 0.4015748031496063,
                    "duration": 0.1030857500000053
                },
                {
                    "name": "C2",
                    "midi": 36,
                    "time": 112.56963900000042,
                    "velocity": 0.4645669291338583,
                    "duration": 0.1030857500000053
                },
                {
                    "name": "G2",
                    "midi": 43,
                    "time": 112.67272475000043,
                    "velocity": 0.4094488188976378,
                    "duration": 0.1030857500000053
                },
                {
                    "name": "C2",
                    "midi": 36,
                    "time": 112.77581050000043,
                    "velocity": 0.47244094488188976,
                    "duration": 0.1030857500000053
                },
                {
                    "name": "G2",
                    "midi": 43,
                    "time": 112.87889625000044,
                    "velocity": 0.4094488188976378,
                    "duration": 0.1030857500000053
                },
                {
                    "name": "C2",
                    "midi": 36,
                    "time": 112.98198200000044,
                    "velocity": 0.4881889763779528,
                    "duration": 0.1030857500000053
                },
                {
                    "name": "G2",
                    "midi": 43,
                    "time": 113.08506775000045,
                    "velocity": 0.4330708661417323,
                    "duration": 0.1030857500000053
                },
                {
                    "name": "C2",
                    "midi": 36,
                    "time": 113.18815350000045,
                    "velocity": 0.49606299212598426,
                    "duration": 0.1030857500000053
                },
                {
                    "name": "G2",
                    "midi": 43,
                    "time": 113.29123925000046,
                    "velocity": 0.4409448818897638,
                    "duration": 0.1030857500000053
                },
                {
                    "name": "C2",
                    "midi": 36,
                    "time": 113.39432500000046,
                    "velocity": 0.5118110236220472,
                    "duration": 0.1030857500000053
                },
                {
                    "name": "G2",
                    "midi": 43,
                    "time": 113.49741075000047,
                    "velocity": 0.4409448818897638,
                    "duration": 0.1030857500000053
                },
                {
                    "name": "C2",
                    "midi": 36,
                    "time": 113.60049650000047,
                    "velocity": 0.5275590551181102,
                    "duration": 0.1030857500000053
                },
                {
                    "name": "G2",
                    "midi": 43,
                    "time": 113.70358225000048,
                    "velocity": 0.4566929133858268,
                    "duration": 0.1030857500000053
                },
                {
                    "name": "C4",
                    "midi": 60,
                    "time": 113.80666800000049,
                    "velocity": 0.4330708661417323,
                    "duration": 0.4080477604166646
                },
                {
                    "name": "G4",
                    "midi": 67,
                    "time": 113.80666800000049,
                    "velocity": 0.4330708661417323,
                    "duration": 0.4080477604166646
                },
                {
                    "name": "C5",
                    "midi": 72,
                    "time": 113.80666800000049,
                    "velocity": 0.5039370078740157,
                    "duration": 0.4080477604166646
                },
                {
                    "name": "C4",
                    "midi": 60,
                    "time": 114.21901100000048,
                    "velocity": 0.3858267716535433,
                    "duration": 0.19586292500000013
                },
                {
                    "name": "G4",
                    "midi": 67,
                    "time": 114.21901100000048,
                    "velocity": 0.3858267716535433,
                    "duration": 0.19586292500000013
                },
                {
                    "name": "C5",
                    "midi": 72,
                    "time": 114.21901100000048,
                    "velocity": 0.4645669291338583,
                    "duration": 0.19586292500000013
                },
                {
                    "name": "C4",
                    "midi": 60,
                    "time": 114.42518250000047,
                    "velocity": 0.3858267716535433,
                    "duration": 0.19586292500000013
                },
                {
                    "name": "G4",
                    "midi": 67,
                    "time": 114.42518250000047,
                    "velocity": 0.3858267716535433,
                    "duration": 0.19586292500000013
                },
                {
                    "name": "C5",
                    "midi": 72,
                    "time": 114.42518250000047,
                    "velocity": 0.4645669291338583,
                    "duration": 0.19586292500000013
                },
                {
                    "name": "C4",
                    "midi": 60,
                    "time": 114.63135400000047,
                    "velocity": 0.4409448818897638,
                    "duration": 0.4080477604166646
                },
                {
                    "name": "G4",
                    "midi": 67,
                    "time": 114.63135400000047,
                    "velocity": 0.4409448818897638,
                    "duration": 0.4080477604166646
                },
                {
                    "name": "C5",
                    "midi": 72,
                    "time": 114.63135400000047,
                    "velocity": 0.5196850393700787,
                    "duration": 0.4080477604166646
                },
                {
                    "name": "C4",
                    "midi": 60,
                    "time": 115.04369700000046,
                    "velocity": 0.3937007874015748,
                    "duration": 0.19586292500000013
                },
                {
                    "name": "G4",
                    "midi": 67,
                    "time": 115.04369700000046,
                    "velocity": 0.3937007874015748,
                    "duration": 0.19586292500000013
                },
                {
                    "name": "C5",
                    "midi": 72,
                    "time": 115.04369700000046,
                    "velocity": 0.47244094488188976,
                    "duration": 0.19586292500000013
                },
                {
                    "name": "C4",
                    "midi": 60,
                    "time": 115.24986850000046,
                    "velocity": 0.3937007874015748,
                    "duration": 0.19586292500000013
                },
                {
                    "name": "G4",
                    "midi": 67,
                    "time": 115.24986850000046,
                    "velocity": 0.3937007874015748,
                    "duration": 0.19586292500000013
                },
                {
                    "name": "C5",
                    "midi": 72,
                    "time": 115.24986850000046,
                    "velocity": 0.47244094488188976,
                    "duration": 0.19586292500000013
                },
                {
                    "name": "E4",
                    "midi": 64,
                    "time": 115.45604000000046,
                    "velocity": 0.4409448818897638,
                    "duration": 0.2061714999999964
                },
                {
                    "name": "C4",
                    "midi": 60,
                    "time": 115.45604000000046,
                    "velocity": 0.4409448818897638,
                    "duration": 0.2061714999999964
                },
                {
                    "name": "G4",
                    "midi": 67,
                    "time": 115.45604000000046,
                    "velocity": 0.4409448818897638,
                    "duration": 0.2061714999999964
                },
                {
                    "name": "C5",
                    "midi": 72,
                    "time": 115.45604000000046,
                    "velocity": 0.5196850393700787,
                    "duration": 0.2061714999999964
                },
                {
                    "name": "G4",
                    "midi": 67,
                    "time": 115.66221150000045,
                    "velocity": 0.6220472440944882,
                    "duration": 0.1030857500000053
                },
                {
                    "name": "E4",
                    "midi": 64,
                    "time": 115.76529725000046,
                    "velocity": 0.6377952755905512,
                    "duration": 0.1030857500000053
                },
                {
                    "name": "C4",
                    "midi": 60,
                    "time": 115.86838300000046,
                    "velocity": 0.6535433070866141,
                    "duration": 0.1030857500000053
                },
                {
                    "name": "G3",
                    "midi": 55,
                    "time": 115.97146875000047,
                    "velocity": 0.6692913385826772,
                    "duration": 0.1030857500000053
                },
                {
                    "name": "E3",
                    "midi": 52,
                    "time": 116.07455450000047,
                    "velocity": 0.7007874015748031,
                    "duration": 0.1030857500000053
                },
                {
                    "name": "C3",
                    "midi": 48,
                    "time": 116.17764025000048,
                    "velocity": 0.7165354330708661,
                    "duration": 0.1030857500000053
                },
                {
                    "name": "B2",
                    "midi": 47,
                    "time": 116.28072600000048,
                    "velocity": 0.7559055118110236,
                    "duration": 0.412343000000007
                },
                {
                    "name": "B1",
                    "midi": 35,
                    "time": 116.28072600000048,
                    "velocity": 0.7559055118110236,
                    "duration": 0.412343000000007
                },
                {
                    "name": "C3",
                    "midi": 48,
                    "time": 116.69306900000049,
                    "velocity": 0.7244094488188977,
                    "duration": 0.1030857500000053
                },
                {
                    "name": "C2",
                    "midi": 36,
                    "time": 116.69306900000049,
                    "velocity": 0.6062992125984252,
                    "duration": 0.1030857500000053
                },
                {
                    "name": "C3",
                    "midi": 48,
                    "time": 116.8992405000005,
                    "velocity": 0.7244094488188977,
                    "duration": 0.1030857500000053
                },
                {
                    "name": "C2",
                    "midi": 36,
                    "time": 116.8992405000005,
                    "velocity": 0.6062992125984252,
                    "duration": 0.1030857500000053
                },
                {
                    "name": "C#2",
                    "midi": 37,
                    "time": 117.10541200000051,
                    "velocity": 0.44881889763779526,
                    "duration": 0.2061714999999964
                },
                {
                    "name": "C#3",
                    "midi": 49,
                    "time": 117.10541200000051,
                    "velocity": 0.5354330708661418,
                    "duration": 0.2061714999999964
                },
                {
                    "name": "D2",
                    "midi": 38,
                    "time": 117.5177550000005,
                    "velocity": 0.44881889763779526,
                    "duration": 0.2061714999999964
                },
                {
                    "name": "D3",
                    "midi": 50,
                    "time": 117.5177550000005,
                    "velocity": 0.5354330708661418,
                    "duration": 0.2061714999999964
                },
                {
                    "name": "G3",
                    "midi": 55,
                    "time": 118.7547840000005,
                    "velocity": 0.4330708661417323,
                    "duration": 0.4080477604166646
                },
                {
                    "name": "G4",
                    "midi": 67,
                    "time": 118.7547840000005,
                    "velocity": 0.5039370078740157,
                    "duration": 0.4080477604166646
                },
                {
                    "name": "G3",
                    "midi": 55,
                    "time": 119.16712700000049,
                    "velocity": 0.3858267716535433,
                    "duration": 0.19586292500000013
                },
                {
                    "name": "G4",
                    "midi": 67,
                    "time": 119.16712700000049,
                    "velocity": 0.4645669291338583,
                    "duration": 0.19586292500000013
                },
                {
                    "name": "G3",
                    "midi": 55,
                    "time": 119.37329850000049,
                    "velocity": 0.3858267716535433,
                    "duration": 0.19586292500000013
                },
                {
                    "name": "G4",
                    "midi": 67,
                    "time": 119.37329850000049,
                    "velocity": 0.4645669291338583,
                    "duration": 0.19586292500000013
                },
                {
                    "name": "G3",
                    "midi": 55,
                    "time": 119.57947000000048,
                    "velocity": 0.4409448818897638,
                    "duration": 0.4080477604166646
                },
                {
                    "name": "G4",
                    "midi": 67,
                    "time": 119.57947000000048,
                    "velocity": 0.5196850393700787,
                    "duration": 0.4080477604166646
                },
                {
                    "name": "G3",
                    "midi": 55,
                    "time": 119.99181300000048,
                    "velocity": 0.3937007874015748,
                    "duration": 0.19586292500000013
                },
                {
                    "name": "G4",
                    "midi": 67,
                    "time": 119.99181300000048,
                    "velocity": 0.47244094488188976,
                    "duration": 0.19586292500000013
                },
                {
                    "name": "G3",
                    "midi": 55,
                    "time": 120.19798450000047,
                    "velocity": 0.3937007874015748,
                    "duration": 0.19586292500000013
                },
                {
                    "name": "G4",
                    "midi": 67,
                    "time": 120.19798450000047,
                    "velocity": 0.47244094488188976,
                    "duration": 0.19586292500000013
                },
                {
                    "name": "G3",
                    "midi": 55,
                    "time": 120.40415600000047,
                    "velocity": 0.4409448818897638,
                    "duration": 0.2061714999999964
                },
                {
                    "name": "G4",
                    "midi": 67,
                    "time": 120.40415600000047,
                    "velocity": 0.5196850393700787,
                    "duration": 0.2061714999999964
                },
                {
                    "name": "F4",
                    "midi": 65,
                    "time": 120.61032750000047,
                    "velocity": 0.6220472440944882,
                    "duration": 0.1030857500000053
                },
                {
                    "name": "D4",
                    "midi": 62,
                    "time": 120.71341325000047,
                    "velocity": 0.6377952755905512,
                    "duration": 0.1030857500000053
                },
                {
                    "name": "B3",
                    "midi": 59,
                    "time": 120.81649900000048,
                    "velocity": 0.6535433070866141,
                    "duration": 0.1030857500000053
                },
                {
                    "name": "G3",
                    "midi": 55,
                    "time": 120.91958475000048,
                    "velocity": 0.6692913385826772,
                    "duration": 0.1030857500000053
                },
                {
                    "name": "F3",
                    "midi": 53,
                    "time": 121.02267050000049,
                    "velocity": 0.7007874015748031,
                    "duration": 0.1030857500000053
                },
                {
                    "name": "D3",
                    "midi": 50,
                    "time": 121.12575625000049,
                    "velocity": 0.7165354330708661,
                    "duration": 0.1030857500000053
                },
                {
                    "name": "C#3",
                    "midi": 49,
                    "time": 121.2288420000005,
                    "velocity": 0.7559055118110236,
                    "duration": 0.412343000000007
                },
                {
                    "name": "C#2",
                    "midi": 37,
                    "time": 121.2288420000005,
                    "velocity": 0.7559055118110236,
                    "duration": 0.412343000000007
                },
                {
                    "name": "D3",
                    "midi": 50,
                    "time": 121.6411850000005,
                    "velocity": 0.7244094488188977,
                    "duration": 0.1030857500000053
                },
                {
                    "name": "D2",
                    "midi": 38,
                    "time": 121.6411850000005,
                    "velocity": 0.6062992125984252,
                    "duration": 0.1030857500000053
                },
                {
                    "name": "D3",
                    "midi": 50,
                    "time": 121.84735650000052,
                    "velocity": 0.7244094488188977,
                    "duration": 0.1030857500000053
                },
                {
                    "name": "D2",
                    "midi": 38,
                    "time": 121.84735650000052,
                    "velocity": 0.6062992125984252,
                    "duration": 0.1030857500000053
                },
                {
                    "name": "D#2",
                    "midi": 39,
                    "time": 122.05352800000053,
                    "velocity": 0.4645669291338583,
                    "duration": 0.2061714999999964
                },
                {
                    "name": "D#3",
                    "midi": 51,
                    "time": 122.05352800000053,
                    "velocity": 0.5590551181102362,
                    "duration": 0.2061714999999964
                },
                {
                    "name": "E2",
                    "midi": 40,
                    "time": 122.46587100000052,
                    "velocity": 0.4645669291338583,
                    "duration": 0.2061714999999964
                },
                {
                    "name": "E3",
                    "midi": 52,
                    "time": 122.46587100000052,
                    "velocity": 0.5590551181102362,
                    "duration": 0.2061714999999964
                },
                {
                    "name": "C2",
                    "midi": 36,
                    "time": 123.70290000000051,
                    "velocity": 0.3937007874015748,
                    "duration": 0.8246859999999998
                },
                {
                    "name": "C3",
                    "midi": 48,
                    "time": 123.70290000000051,
                    "velocity": 0.47244094488188976,
                    "duration": 0.8246859999999998
                },
                {
                    "name": "B1",
                    "midi": 35,
                    "time": 124.52758600000051,
                    "velocity": 0.3464566929133858,
                    "duration": 0.412343000000007
                },
                {
                    "name": "B2",
                    "midi": 47,
                    "time": 124.52758600000051,
                    "velocity": 0.41732283464566927,
                    "duration": 0.412343000000007
                },
                {
                    "name": "B2",
                    "midi": 47,
                    "time": 124.93992900000052,
                    "velocity": 0.44881889763779526,
                    "duration": 0.19586292500000013
                },
                {
                    "name": "B3",
                    "midi": 59,
                    "time": 124.93992900000052,
                    "velocity": 0.5511811023622047,
                    "duration": 0.19586292500000013
                },
                {
                    "name": "B2",
                    "midi": 47,
                    "time": 125.14610050000051,
                    "velocity": 0.41732283464566927,
                    "duration": 0.19586292500000013
                },
                {
                    "name": "B3",
                    "midi": 59,
                    "time": 125.14610050000051,
                    "velocity": 0.5118110236220472,
                    "duration": 0.19586292500000013
                },
                {
                    "name": "A2",
                    "midi": 45,
                    "time": 125.35227200000051,
                    "velocity": 0.49606299212598426,
                    "duration": 0.412343000000007
                },
                {
                    "name": "A3",
                    "midi": 57,
                    "time": 125.35227200000051,
                    "velocity": 0.5669291338582677,
                    "duration": 0.412343000000007
                },
                {
                    "name": "D2",
                    "midi": 38,
                    "time": 125.76461500000052,
                    "velocity": 0.3937007874015748,
                    "duration": 0.412343000000007
                },
                {
                    "name": "D3",
                    "midi": 50,
                    "time": 125.76461500000052,
                    "velocity": 0.48031496062992124,
                    "duration": 0.412343000000007
                },
                {
                    "name": "G2",
                    "midi": 43,
                    "time": 126.17695800000052,
                    "velocity": 0.3779527559055118,
                    "duration": 0.2061715000000106
                },
                {
                    "name": "G3",
                    "midi": 55,
                    "time": 126.17695800000052,
                    "velocity": 0.4645669291338583,
                    "duration": 0.2044534041666708
                },
                {
                    "name": "C2",
                    "midi": 36,
                    "time": 127.00164400000054,
                    "velocity": 0.3937007874015748,
                    "duration": 0.8246859999999998
                },
                {
                    "name": "C3",
                    "midi": 48,
                    "time": 127.00164400000054,
                    "velocity": 0.47244094488188976,
                    "duration": 0.8246859999999998
                },
                {
                    "name": "B1",
                    "midi": 35,
                    "time": 127.82633000000054,
                    "velocity": 0.3464566929133858,
                    "duration": 0.412343000000007
                },
                {
                    "name": "B2",
                    "midi": 47,
                    "time": 127.82633000000054,
                    "velocity": 0.41732283464566927,
                    "duration": 0.412343000000007
                },
                {
                    "name": "B2",
                    "midi": 47,
                    "time": 128.23867300000055,
                    "velocity": 0.44881889763779526,
                    "duration": 0.19586292500000013
                },
                {
                    "name": "B3",
                    "midi": 59,
                    "time": 128.23867300000055,
                    "velocity": 0.5511811023622047,
                    "duration": 0.19586292500000013
                },
                {
                    "name": "B2",
                    "midi": 47,
                    "time": 128.44484450000056,
                    "velocity": 0.41732283464566927,
                    "duration": 0.19586292500000013
                },
                {
                    "name": "B3",
                    "midi": 59,
                    "time": 128.44484450000056,
                    "velocity": 0.5118110236220472,
                    "duration": 0.19586292500000013
                },
                {
                    "name": "A2",
                    "midi": 45,
                    "time": 128.65101600000057,
                    "velocity": 0.49606299212598426,
                    "duration": 0.4123429999999928
                },
                {
                    "name": "A3",
                    "midi": 57,
                    "time": 128.65101600000057,
                    "velocity": 0.5669291338582677,
                    "duration": 0.4123429999999928
                },
                {
                    "name": "D2",
                    "midi": 38,
                    "time": 129.06335900000056,
                    "velocity": 0.3937007874015748,
                    "duration": 0.4123429999999928
                },
                {
                    "name": "D3",
                    "midi": 50,
                    "time": 129.06335900000056,
                    "velocity": 0.48031496062992124,
                    "duration": 0.4123429999999928
                },
                {
                    "name": "G2",
                    "midi": 43,
                    "time": 129.47570200000055,
                    "velocity": 0.3779527559055118,
                    "duration": 0.2061715000000106
                },
                {
                    "name": "G3",
                    "midi": 55,
                    "time": 129.47570200000055,
                    "velocity": 0.4645669291338583,
                    "duration": 0.2061715000000106
                },
                {
                    "name": "F2",
                    "midi": 41,
                    "time": 130.30038800000057,
                    "velocity": 0.3937007874015748,
                    "duration": 0.824686000000014
                },
                {
                    "name": "F3",
                    "midi": 53,
                    "time": 130.30038800000057,
                    "velocity": 0.47244094488188976,
                    "duration": 0.824686000000014
                },
                {
                    "name": "E2",
                    "midi": 40,
                    "time": 131.12507400000058,
                    "velocity": 0.3464566929133858,
                    "duration": 0.4123430000000212
                },
                {
                    "name": "E3",
                    "midi": 52,
                    "time": 131.12507400000058,
                    "velocity": 0.41732283464566927,
                    "duration": 0.4123430000000212
                },
                {
                    "name": "E3",
                    "midi": 52,
                    "time": 131.5374170000006,
                    "velocity": 0.44881889763779526,
                    "duration": 0.19586292500000013
                },
                {
                    "name": "E4",
                    "midi": 64,
                    "time": 131.5374170000006,
                    "velocity": 0.5511811023622047,
                    "duration": 0.19586292500000013
                },
                {
                    "name": "E3",
                    "midi": 52,
                    "time": 131.7435885000006,
                    "velocity": 0.41732283464566927,
                    "duration": 0.19586292500000013
                },
                {
                    "name": "E4",
                    "midi": 64,
                    "time": 131.7435885000006,
                    "velocity": 0.5118110236220472,
                    "duration": 0.19586292500000013
                },
                {
                    "name": "D3",
                    "midi": 50,
                    "time": 131.94976000000062,
                    "velocity": 0.49606299212598426,
                    "duration": 0.4080477604166788
                },
                {
                    "name": "D4",
                    "midi": 62,
                    "time": 131.94976000000062,
                    "velocity": 0.5669291338582677,
                    "duration": 0.4080477604166788
                },
                {
                    "name": "G2",
                    "midi": 43,
                    "time": 132.36210300000064,
                    "velocity": 0.4251968503937008,
                    "duration": 0.4123429999999928
                },
                {
                    "name": "G3",
                    "midi": 55,
                    "time": 132.36210300000064,
                    "velocity": 0.5275590551181102,
                    "duration": 0.4123429999999928
                },
                {
                    "name": "C3",
                    "midi": 48,
                    "time": 132.77444600000064,
                    "velocity": 0.4094488188976378,
                    "duration": 0.4080477604166788
                },
                {
                    "name": "C4",
                    "midi": 60,
                    "time": 132.77444600000064,
                    "velocity": 0.5118110236220472,
                    "duration": 0.4080477604166788
                },
                {
                    "name": "F2",
                    "midi": 41,
                    "time": 133.18678900000066,
                    "velocity": 0.4330708661417323,
                    "duration": 0.19586292500000013
                },
                {
                    "name": "F3",
                    "midi": 53,
                    "time": 133.18678900000066,
                    "velocity": 0.5275590551181102,
                    "duration": 0.19586292500000013
                },
                {
                    "name": "F2",
                    "midi": 41,
                    "time": 133.39296050000067,
                    "velocity": 0.4015748031496063,
                    "duration": 0.19586292500000013
                },
                {
                    "name": "F3",
                    "midi": 53,
                    "time": 133.39296050000067,
                    "velocity": 0.4881889763779528,
                    "duration": 0.19586292500000013
                },
                {
                    "name": "B2",
                    "midi": 47,
                    "time": 133.59913200000068,
                    "velocity": 0.47244094488188976,
                    "duration": 0.4123429999999928
                },
                {
                    "name": "B3",
                    "midi": 59,
                    "time": 133.59913200000068,
                    "velocity": 0.5433070866141733,
                    "duration": 0.4123429999999928
                },
                {
                    "name": "C3",
                    "midi": 48,
                    "time": 134.01147500000067,
                    "velocity": 0.41732283464566927,
                    "duration": 0.4123429999999928
                },
                {
                    "name": "C4",
                    "midi": 60,
                    "time": 134.01147500000067,
                    "velocity": 0.5118110236220472,
                    "duration": 0.4123429999999928
                },
                {
                    "name": "D3",
                    "midi": 50,
                    "time": 134.42381800000067,
                    "velocity": 0.4094488188976378,
                    "duration": 0.19586292500000013
                },
                {
                    "name": "D4",
                    "midi": 62,
                    "time": 134.42381800000067,
                    "velocity": 0.5118110236220472,
                    "duration": 0.19586292500000013
                },
                {
                    "name": "D3",
                    "midi": 50,
                    "time": 134.62998950000068,
                    "velocity": 0.4330708661417323,
                    "duration": 0.19586292500000013
                },
                {
                    "name": "D4",
                    "midi": 62,
                    "time": 134.62998950000068,
                    "velocity": 0.4330708661417323,
                    "duration": 0.19586292500000013
                },
                {
                    "name": "E3",
                    "midi": 52,
                    "time": 134.8361610000007,
                    "velocity": 0.4566929133858268,
                    "duration": 0.4123429999999928
                },
                {
                    "name": "E4",
                    "midi": 64,
                    "time": 134.8361610000007,
                    "velocity": 0.5590551181102362,
                    "duration": 0.4123429999999928
                },
                {
                    "name": "A1",
                    "midi": 33,
                    "time": 135.24850400000068,
                    "velocity": 0.6377952755905512,
                    "duration": 0.4080477604166788
                },
                {
                    "name": "A2",
                    "midi": 45,
                    "time": 135.24850400000068,
                    "velocity": 0.7559055118110236,
                    "duration": 0.4080477604166788
                },
                {
                    "name": "A1",
                    "midi": 33,
                    "time": 135.6608470000007,
                    "velocity": 0.5905511811023622,
                    "duration": 0.19586292500000013
                },
                {
                    "name": "A2",
                    "midi": 45,
                    "time": 135.6608470000007,
                    "velocity": 0.7086614173228346,
                    "duration": 0.19586292500000013
                },
                {
                    "name": "A1",
                    "midi": 33,
                    "time": 135.8670185000007,
                    "velocity": 0.5905511811023622,
                    "duration": 0.19586292500000013
                },
                {
                    "name": "A2",
                    "midi": 45,
                    "time": 135.8670185000007,
                    "velocity": 0.7086614173228346,
                    "duration": 0.19586292500000013
                },
                {
                    "name": "A1",
                    "midi": 33,
                    "time": 136.07319000000072,
                    "velocity": 0.6377952755905512,
                    "duration": 0.4080477604166788
                },
                {
                    "name": "A2",
                    "midi": 45,
                    "time": 136.07319000000072,
                    "velocity": 0.7559055118110236,
                    "duration": 0.4080477604166788
                },
                {
                    "name": "A1",
                    "midi": 33,
                    "time": 136.48553300000074,
                    "velocity": 0.5905511811023622,
                    "duration": 0.19586292500000013
                },
                {
                    "name": "A2",
                    "midi": 45,
                    "time": 136.48553300000074,
                    "velocity": 0.7086614173228346,
                    "duration": 0.19586292500000013
                },
                {
                    "name": "A1",
                    "midi": 33,
                    "time": 136.69170450000075,
                    "velocity": 0.5826771653543307,
                    "duration": 0.19586292500000013
                },
                {
                    "name": "A2",
                    "midi": 45,
                    "time": 136.69170450000075,
                    "velocity": 0.6929133858267716,
                    "duration": 0.19586292500000013
                },
                {
                    "name": "A1",
                    "midi": 33,
                    "time": 136.89787600000076,
                    "velocity": 0.6377952755905512,
                    "duration": 0.2061715000000106
                },
                {
                    "name": "A2",
                    "midi": 45,
                    "time": 136.89787600000076,
                    "velocity": 0.7559055118110236,
                    "duration": 0.2061715000000106
                },
                {
                    "name": "C2",
                    "midi": 36,
                    "time": 137.10404750000077,
                    "velocity": 0.5905511811023622,
                    "duration": 0.2061715000000106
                },
                {
                    "name": "C3",
                    "midi": 48,
                    "time": 137.10404750000077,
                    "velocity": 0.7086614173228346,
                    "duration": 0.2061715000000106
                },
                {
                    "name": "B1",
                    "midi": 35,
                    "time": 137.31021900000079,
                    "velocity": 0.6220472440944882,
                    "duration": 0.4123429999999928
                },
                {
                    "name": "B2",
                    "midi": 47,
                    "time": 137.31021900000079,
                    "velocity": 0.7322834645669292,
                    "duration": 0.4123429999999928
                },
                {
                    "name": "D5",
                    "midi": 74,
                    "time": 137.72256200000078,
                    "velocity": 0.6220472440944882,
                    "duration": 0.824686000000014
                },
                {
                    "name": "F5",
                    "midi": 77,
                    "time": 137.72256200000078,
                    "velocity": 0.7322834645669292,
                    "duration": 0.824686000000014
                },
                {
                    "name": "B1",
                    "midi": 35,
                    "time": 138.5472480000008,
                    "velocity": 0.6377952755905512,
                    "duration": 0.4080477604166788
                },
                {
                    "name": "B2",
                    "midi": 47,
                    "time": 138.5472480000008,
                    "velocity": 0.7559055118110236,
                    "duration": 0.4080477604166788
                },
                {
                    "name": "B1",
                    "midi": 35,
                    "time": 138.9595910000008,
                    "velocity": 0.5905511811023622,
                    "duration": 0.19586292500000013
                },
                {
                    "name": "B2",
                    "midi": 47,
                    "time": 138.9595910000008,
                    "velocity": 0.7086614173228346,
                    "duration": 0.19586292500000013
                },
                {
                    "name": "B1",
                    "midi": 35,
                    "time": 139.16576250000082,
                    "velocity": 0.5905511811023622,
                    "duration": 0.19586292500000013
                },
                {
                    "name": "B2",
                    "midi": 47,
                    "time": 139.16576250000082,
                    "velocity": 0.7086614173228346,
                    "duration": 0.19586292500000013
                },
                {
                    "name": "B1",
                    "midi": 35,
                    "time": 139.37193400000083,
                    "velocity": 0.6377952755905512,
                    "duration": 0.4080477604166788
                },
                {
                    "name": "B2",
                    "midi": 47,
                    "time": 139.37193400000083,
                    "velocity": 0.7559055118110236,
                    "duration": 0.4080477604166788
                },
                {
                    "name": "B1",
                    "midi": 35,
                    "time": 139.78427700000086,
                    "velocity": 0.5905511811023622,
                    "duration": 0.19586292500000013
                },
                {
                    "name": "B2",
                    "midi": 47,
                    "time": 139.78427700000086,
                    "velocity": 0.7086614173228346,
                    "duration": 0.19586292500000013
                },
                {
                    "name": "B1",
                    "midi": 35,
                    "time": 139.99044850000087,
                    "velocity": 0.5826771653543307,
                    "duration": 0.19586292500000013
                },
                {
                    "name": "B2",
                    "midi": 47,
                    "time": 139.99044850000087,
                    "velocity": 0.6929133858267716,
                    "duration": 0.19586292500000013
                },
                {
                    "name": "B1",
                    "midi": 35,
                    "time": 140.19662000000088,
                    "velocity": 0.6377952755905512,
                    "duration": 0.2061715000000106
                },
                {
                    "name": "B2",
                    "midi": 47,
                    "time": 140.19662000000088,
                    "velocity": 0.7559055118110236,
                    "duration": 0.2061715000000106
                },
                {
                    "name": "D2",
                    "midi": 38,
                    "time": 140.4027915000009,
                    "velocity": 0.5905511811023622,
                    "duration": 0.2061715000000106
                },
                {
                    "name": "D3",
                    "midi": 50,
                    "time": 140.4027915000009,
                    "velocity": 0.7086614173228346,
                    "duration": 0.2061715000000106
                },
                {
                    "name": "C2",
                    "midi": 36,
                    "time": 140.6089630000009,
                    "velocity": 0.6220472440944882,
                    "duration": 0.4123429999999928
                },
                {
                    "name": "C3",
                    "midi": 48,
                    "time": 140.6089630000009,
                    "velocity": 0.7322834645669292,
                    "duration": 0.4123429999999928
                },
                {
                    "name": "C5",
                    "midi": 72,
                    "time": 141.0213060000009,
                    "velocity": 0.6220472440944882,
                    "duration": 0.824686000000014
                },
                {
                    "name": "E5",
                    "midi": 76,
                    "time": 141.0213060000009,
                    "velocity": 0.6220472440944882,
                    "duration": 0.824686000000014
                },
                {
                    "name": "A5",
                    "midi": 81,
                    "time": 141.0213060000009,
                    "velocity": 0.7322834645669292,
                    "duration": 0.824686000000014
                },
                {
                    "name": "C#2",
                    "midi": 37,
                    "time": 141.8459920000009,
                    "velocity": 0.6062992125984252,
                    "duration": 0.2061715000000106
                },
                {
                    "name": "C#3",
                    "midi": 49,
                    "time": 141.8459920000009,
                    "velocity": 0.7165354330708661,
                    "duration": 0.2061715000000106
                },
                {
                    "name": "E2",
                    "midi": 40,
                    "time": 142.05216350000092,
                    "velocity": 0.5590551181102362,
                    "duration": 0.2061715000000106
                },
                {
                    "name": "E3",
                    "midi": 52,
                    "time": 142.05216350000092,
                    "velocity": 0.6614173228346457,
                    "duration": 0.2061715000000106
                },
                {
                    "name": "D2",
                    "midi": 38,
                    "time": 142.25833500000093,
                    "velocity": 0.5826771653543307,
                    "duration": 0.4123430000000212
                },
                {
                    "name": "D3",
                    "midi": 50,
                    "time": 142.25833500000093,
                    "velocity": 0.6929133858267716,
                    "duration": 0.4123430000000212
                },
                {
                    "name": "D5",
                    "midi": 74,
                    "time": 142.67067800000095,
                    "velocity": 0.5511811023622047,
                    "duration": 0.824686000000014
                },
                {
                    "name": "F5",
                    "midi": 77,
                    "time": 142.67067800000095,
                    "velocity": 0.5669291338582677,
                    "duration": 0.824686000000014
                },
                {
                    "name": "A#5",
                    "midi": 82,
                    "time": 142.67067800000095,
                    "velocity": 0.6692913385826772,
                    "duration": 0.824686000000014
                },
                {
                    "name": "E2",
                    "midi": 40,
                    "time": 143.49536400000096,
                    "velocity": 0.4094488188976378,
                    "duration": 0.4123429999999928
                },
                {
                    "name": "E3",
                    "midi": 52,
                    "time": 143.49536400000096,
                    "velocity": 0.4094488188976378,
                    "duration": 0.4123429999999928
                },
                {
                    "name": "F2",
                    "midi": 41,
                    "time": 143.90770700000095,
                    "velocity": 0.4330708661417323,
                    "duration": 0.4123429999999928
                },
                {
                    "name": "F3",
                    "midi": 53,
                    "time": 143.90770700000095,
                    "velocity": 0.4330708661417323,
                    "duration": 0.4123429999999928
                },
                {
                    "name": "G#2",
                    "midi": 44,
                    "time": 144.32005000000095,
                    "velocity": 0.4566929133858268,
                    "duration": 0.4123429999999928
                },
                {
                    "name": "G#3",
                    "midi": 56,
                    "time": 144.32005000000095,
                    "velocity": 0.4566929133858268,
                    "duration": 0.4123429999999928
                },
                {
                    "name": "A2",
                    "midi": 45,
                    "time": 144.73239300000094,
                    "velocity": 0.47244094488188976,
                    "duration": 0.4123429999999928
                },
                {
                    "name": "A3",
                    "midi": 57,
                    "time": 144.73239300000094,
                    "velocity": 0.47244094488188976,
                    "duration": 0.4123429999999928
                },
                {
                    "name": "B2",
                    "midi": 47,
                    "time": 145.14473600000093,
                    "velocity": 0.49606299212598426,
                    "duration": 0.4123429999999928
                },
                {
                    "name": "B3",
                    "midi": 59,
                    "time": 145.14473600000093,
                    "velocity": 0.49606299212598426,
                    "duration": 0.4123429999999928
                },
                {
                    "name": "C3",
                    "midi": 48,
                    "time": 145.55707900000093,
                    "velocity": 0.5196850393700787,
                    "duration": 0.4123429999999928
                },
                {
                    "name": "C4",
                    "midi": 60,
                    "time": 145.55707900000093,
                    "velocity": 0.5196850393700787,
                    "duration": 0.4123429999999928
                },
                {
                    "name": "F4",
                    "midi": 65,
                    "time": 145.96942200000092,
                    "velocity": 0.5354330708661418,
                    "duration": 0.4123429999999928
                },
                {
                    "name": "F3",
                    "midi": 53,
                    "time": 145.96942200000092,
                    "velocity": 0.5354330708661418,
                    "duration": 0.4123429999999928
                },
                {
                    "name": "E3",
                    "midi": 52,
                    "time": 146.3817650000009,
                    "velocity": 0.5118110236220472,
                    "duration": 0.4123429999999928
                },
                {
                    "name": "E4",
                    "midi": 64,
                    "time": 146.3817650000009,
                    "velocity": 0.5118110236220472,
                    "duration": 0.4123429999999928
                },
                {
                    "name": "A1",
                    "midi": 33,
                    "time": 146.7941080000009,
                    "velocity": 0.5905511811023622,
                    "duration": 0.2061715000000106
                },
                {
                    "name": "B1",
                    "midi": 35,
                    "time": 147.00027950000091,
                    "velocity": 0.5275590551181102,
                    "duration": 0.1030857499999911
                },
                {
                    "name": "C2",
                    "midi": 36,
                    "time": 147.1033652500009,
                    "velocity": 0.5275590551181102,
                    "duration": 0.1030857499999911
                },
                {
                    "name": "D2",
                    "midi": 38,
                    "time": 147.2064510000009,
                    "velocity": 0.5196850393700787,
                    "duration": 0.1030857499999911
                },
                {
                    "name": "E2",
                    "midi": 40,
                    "time": 147.3095367500009,
                    "velocity": 0.5196850393700787,
                    "duration": 0.1030857499999911
                },
                {
                    "name": "F#2",
                    "midi": 42,
                    "time": 147.41262250000088,
                    "velocity": 0.5118110236220472,
                    "duration": 0.1030857499999911
                },
                {
                    "name": "G#2",
                    "midi": 44,
                    "time": 147.51570825000087,
                    "velocity": 0.5039370078740157,
                    "duration": 0.1030857499999911
                },
                {
                    "name": "A2",
                    "midi": 45,
                    "time": 147.61879400000086,
                    "velocity": 0.5039370078740157,
                    "duration": 0.1030857499999911
                },
                {
                    "name": "B2",
                    "midi": 47,
                    "time": 147.72187975000085,
                    "velocity": 0.49606299212598426,
                    "duration": 0.1030857499999911
                },
                {
                    "name": "C3",
                    "midi": 48,
                    "time": 147.82496550000084,
                    "velocity": 0.49606299212598426,
                    "duration": 0.1030857499999911
                },
                {
                    "name": "D3",
                    "midi": 50,
                    "time": 147.92805125000083,
                    "velocity": 0.49606299212598426,
                    "duration": 0.1030857499999911
                },
                {
                    "name": "E3",
                    "midi": 52,
                    "time": 148.03113700000083,
                    "velocity": 0.49606299212598426,
                    "duration": 0.1030857499999911
                },
                {
                    "name": "F#3",
                    "midi": 54,
                    "time": 148.13422275000082,
                    "velocity": 0.4881889763779528,
                    "duration": 0.1030857499999911
                },
                {
                    "name": "G#3",
                    "midi": 56,
                    "time": 148.2373085000008,
                    "velocity": 0.48031496062992124,
                    "duration": 0.1030857499999911
                },
                {
                    "name": "A3",
                    "midi": 57,
                    "time": 148.3403942500008,
                    "velocity": 0.48031496062992124,
                    "duration": 0.1030857499999911
                },
                {
                    "name": "A#3",
                    "midi": 58,
                    "time": 148.4434800000008,
                    "velocity": 0.4566929133858268,
                    "duration": 0.1030857499999911
                },
                {
                    "name": "C#4",
                    "midi": 61,
                    "time": 148.54656575000078,
                    "velocity": 0.41732283464566927,
                    "duration": 0.1030857499999911
                },
                {
                    "name": "D4",
                    "midi": 62,
                    "time": 148.64965150000077,
                    "velocity": 0.41732283464566927,
                    "duration": 0.1030857499999911
                },
                {
                    "name": "E4",
                    "midi": 64,
                    "time": 148.75273725000076,
                    "velocity": 0.41732283464566927,
                    "duration": 0.1030857499999911
                },
                {
                    "name": "A#3",
                    "midi": 58,
                    "time": 148.85582300000075,
                    "velocity": 0.4094488188976378,
                    "duration": 0.1030857499999911
                },
                {
                    "name": "C#4",
                    "midi": 61,
                    "time": 148.95890875000075,
                    "velocity": 0.36220472440944884,
                    "duration": 0.1030857499999911
                },
                {
                    "name": "D4",
                    "midi": 62,
                    "time": 149.06199450000074,
                    "velocity": 0.36220472440944884,
                    "duration": 0.1030857499999911
                },
                {
                    "name": "E4",
                    "midi": 64,
                    "time": 149.16508025000073,
                    "velocity": 0.36220472440944884,
                    "duration": 0.1030857499999911
                },
                {
                    "name": "A#3",
                    "midi": 58,
                    "time": 149.26816600000072,
                    "velocity": 0.4251968503937008,
                    "duration": 0.10308575000001952
                },
                {
                    "name": "C#4",
                    "midi": 61,
                    "time": 149.37125175000074,
                    "velocity": 0.3700787401574803,
                    "duration": 0.1030857499999911
                },
                {
                    "name": "D4",
                    "midi": 62,
                    "time": 149.47433750000073,
                    "velocity": 0.3700787401574803,
                    "duration": 0.1030857499999911
                },
                {
                    "name": "E4",
                    "midi": 64,
                    "time": 149.57742325000072,
                    "velocity": 0.3700787401574803,
                    "duration": 0.1030857499999911
                },
                {
                    "name": "A#3",
                    "midi": 58,
                    "time": 149.6805090000007,
                    "velocity": 0.41732283464566927,
                    "duration": 0.1030857499999911
                },
                {
                    "name": "C#4",
                    "midi": 61,
                    "time": 149.7835947500007,
                    "velocity": 0.3779527559055118,
                    "duration": 0.1030857499999911
                },
                {
                    "name": "D4",
                    "midi": 62,
                    "time": 149.8866805000007,
                    "velocity": 0.3779527559055118,
                    "duration": 0.1030857499999911
                },
                {
                    "name": "E4",
                    "midi": 64,
                    "time": 149.98976625000068,
                    "velocity": 0.3779527559055118,
                    "duration": 0.1030857499999911
                },
                {
                    "name": "C#2",
                    "midi": 37,
                    "time": 150.09285200000068,
                    "velocity": 0.5905511811023622,
                    "duration": 0.2061715000000106
                },
                {
                    "name": "D2",
                    "midi": 38,
                    "time": 150.2990235000007,
                    "velocity": 0.5275590551181102,
                    "duration": 0.1030857499999911
                },
                {
                    "name": "E2",
                    "midi": 40,
                    "time": 150.40210925000068,
                    "velocity": 0.5275590551181102,
                    "duration": 0.1030857499999911
                },
                {
                    "name": "F2",
                    "midi": 41,
                    "time": 150.50519500000067,
                    "velocity": 0.5196850393700787,
                    "duration": 0.1030857499999911
                },
                {
                    "name": "G2",
                    "midi": 43,
                    "time": 150.60828075000066,
                    "velocity": 0.5196850393700787,
                    "duration": 0.1030857499999911
                },
                {
                    "name": "A2",
                    "midi": 45,
                    "time": 150.71136650000065,
                    "velocity": 0.5118110236220472,
                    "duration": 0.1030857499999911
                },
                {
                    "name": "B2",
                    "midi": 47,
                    "time": 150.81445225000064,
                    "velocity": 0.5039370078740157,
                    "duration": 0.1030857499999911
                },
                {
                    "name": "C#3",
                    "midi": 49,
                    "time": 150.91753800000063,
                    "velocity": 0.5039370078740157,
                    "duration": 0.1030857499999911
                },
                {
                    "name": "D3",
                    "midi": 50,
                    "time": 151.02062375000062,
                    "velocity": 0.49606299212598426,
                    "duration": 0.1030857499999911
                },
                {
                    "name": "E3",
                    "midi": 52,
                    "time": 151.12370950000061,
                    "velocity": 0.49606299212598426,
                    "duration": 0.1030857499999911
                },
                {
                    "name": "F3",
                    "midi": 53,
                    "time": 151.2267952500006,
                    "velocity": 0.49606299212598426,
                    "duration": 0.1030857499999911
                },
                {
                    "name": "G3",
                    "midi": 55,
                    "time": 151.3298810000006,
                    "velocity": 0.49606299212598426,
                    "duration": 0.1030857499999911
                },
                {
                    "name": "A3",
                    "midi": 57,
                    "time": 151.4329667500006,
                    "velocity": 0.4881889763779528,
                    "duration": 0.1030857499999911
                },
                {
                    "name": "B3",
                    "midi": 59,
                    "time": 151.53605250000058,
                    "velocity": 0.48031496062992124,
                    "duration": 0.1030857499999911
                },
                {
                    "name": "C#4",
                    "midi": 61,
                    "time": 151.63913825000057,
                    "velocity": 0.48031496062992124,
                    "duration": 0.1030857499999911
                },
                {
                    "name": "D4",
                    "midi": 62,
                    "time": 151.74222400000056,
                    "velocity": 0.4566929133858268,
                    "duration": 0.1030857499999911
                },
                {
                    "name": "F4",
                    "midi": 65,
                    "time": 151.84530975000055,
                    "velocity": 0.41732283464566927,
                    "duration": 0.1030857499999911
                },
                {
                    "name": "G#4",
                    "midi": 68,
                    "time": 151.94839550000054,
                    "velocity": 0.41732283464566927,
                    "duration": 0.1030857499999911
                },
                {
                    "name": "A4",
                    "midi": 69,
                    "time": 152.05148125000053,
                    "velocity": 0.41732283464566927,
                    "duration": 0.1030857499999911
                },
                {
                    "name": "D4",
                    "midi": 62,
                    "time": 152.15456700000053,
                    "velocity": 0.4094488188976378,
                    "duration": 0.1030857499999911
                },
                {
                    "name": "F4",
                    "midi": 65,
                    "time": 152.25765275000052,
                    "velocity": 0.36220472440944884,
                    "duration": 0.1030857499999911
                },
                {
                    "name": "G#4",
                    "midi": 68,
                    "time": 152.3607385000005,
                    "velocity": 0.36220472440944884,
                    "duration": 0.1030857499999911
                },
                {
                    "name": "A4",
                    "midi": 69,
                    "time": 152.4638242500005,
                    "velocity": 0.36220472440944884,
                    "duration": 0.1030857499999911
                },
                {
                    "name": "D4",
                    "midi": 62,
                    "time": 152.5669100000005,
                    "velocity": 0.4251968503937008,
                    "duration": 0.10308575000001952
                },
                {
                    "name": "F4",
                    "midi": 65,
                    "time": 152.6699957500005,
                    "velocity": 0.3700787401574803,
                    "duration": 0.1030857499999911
                },
                {
                    "name": "G#4",
                    "midi": 68,
                    "time": 152.7730815000005,
                    "velocity": 0.3700787401574803,
                    "duration": 0.1030857499999911
                },
                {
                    "name": "A4",
                    "midi": 69,
                    "time": 152.8761672500005,
                    "velocity": 0.3700787401574803,
                    "duration": 0.1030857499999911
                },
                {
                    "name": "D4",
                    "midi": 62,
                    "time": 152.97925300000048,
                    "velocity": 0.41732283464566927,
                    "duration": 0.1030857499999911
                },
                {
                    "name": "F4",
                    "midi": 65,
                    "time": 153.08233875000047,
                    "velocity": 0.3779527559055118,
                    "duration": 0.1030857499999911
                },
                {
                    "name": "G#4",
                    "midi": 68,
                    "time": 153.18542450000047,
                    "velocity": 0.3779527559055118,
                    "duration": 0.1030857499999911
                },
                {
                    "name": "A4",
                    "midi": 69,
                    "time": 153.28851025000046,
                    "velocity": 0.3779527559055118,
                    "duration": 0.1030857499999911
                },
                {
                    "name": "C4",
                    "midi": 60,
                    "time": 153.39159600000045,
                    "velocity": 0.4330708661417323,
                    "duration": 0.1030857499999911
                },
                {
                    "name": "E4",
                    "midi": 64,
                    "time": 153.49468175000044,
                    "velocity": 0.3937007874015748,
                    "duration": 0.1030857499999911
                },
                {
                    "name": "G#4",
                    "midi": 68,
                    "time": 153.59776750000043,
                    "velocity": 0.3858267716535433,
                    "duration": 0.1030857499999911
                },
                {
                    "name": "A4",
                    "midi": 69,
                    "time": 153.70085325000042,
                    "velocity": 0.3858267716535433,
                    "duration": 0.1030857499999911
                },
                {
                    "name": "C4",
                    "midi": 60,
                    "time": 153.8039390000004,
                    "velocity": 0.3700787401574803,
                    "duration": 0.1030857499999911
                },
                {
                    "name": "E4",
                    "midi": 64,
                    "time": 153.9070247500004,
                    "velocity": 0.33070866141732286,
                    "duration": 0.1030857499999911
                },
                {
                    "name": "G#4",
                    "midi": 68,
                    "time": 154.0101105000004,
                    "velocity": 0.3228346456692913,
                    "duration": 0.1030857499999911
                },
                {
                    "name": "A4",
                    "midi": 69,
                    "time": 154.11319625000039,
                    "velocity": 0.3228346456692913,
                    "duration": 0.1030857499999911
                },
                {
                    "name": "C4",
                    "midi": 60,
                    "time": 154.21628200000038,
                    "velocity": 0.3779527559055118,
                    "duration": 0.10308575000001952
                },
                {
                    "name": "E4",
                    "midi": 64,
                    "time": 154.3193677500004,
                    "velocity": 0.3228346456692913,
                    "duration": 0.1030857499999911
                },
                {
                    "name": "G#4",
                    "midi": 68,
                    "time": 154.4224535000004,
                    "velocity": 0.3228346456692913,
                    "duration": 0.1030857499999911
                },
                {
                    "name": "A4",
                    "midi": 69,
                    "time": 154.52553925000038,
                    "velocity": 0.31496062992125984,
                    "duration": 0.1030857499999911
                },
                {
                    "name": "C4",
                    "midi": 60,
                    "time": 154.62862500000037,
                    "velocity": 0.3543307086614173,
                    "duration": 0.1030857499999911
                },
                {
                    "name": "E4",
                    "midi": 64,
                    "time": 154.73171075000036,
                    "velocity": 0.31496062992125984,
                    "duration": 0.1030857499999911
                },
                {
                    "name": "G#4",
                    "midi": 68,
                    "time": 154.83479650000035,
                    "velocity": 0.31496062992125984,
                    "duration": 0.1030857499999911
                },
                {
                    "name": "A4",
                    "midi": 69,
                    "time": 154.93788225000034,
                    "velocity": 0.31496062992125984,
                    "duration": 0.1030857499999911
                },
                {
                    "name": "B3",
                    "midi": 59,
                    "time": 155.04096800000033,
                    "velocity": 0.3779527559055118,
                    "duration": 0.1030857499999911
                },
                {
                    "name": "D4",
                    "midi": 62,
                    "time": 155.14405375000032,
                    "velocity": 0.33858267716535434,
                    "duration": 0.1030857499999911
                },
                {
                    "name": "G#4",
                    "midi": 68,
                    "time": 155.24713950000032,
                    "velocity": 0.33070866141732286,
                    "duration": 0.1030857499999911
                },
                {
                    "name": "A4",
                    "midi": 69,
                    "time": 155.3502252500003,
                    "velocity": 0.33070866141732286,
                    "duration": 0.1030857499999911
                },
                {
                    "name": "B3",
                    "midi": 59,
                    "time": 155.4533110000003,
                    "velocity": 0.3228346456692913,
                    "duration": 0.1030857499999911
                },
                {
                    "name": "D4",
                    "midi": 62,
                    "time": 155.5563967500003,
                    "velocity": 0.28346456692913385,
                    "duration": 0.1030857499999911
                },
                {
                    "name": "G#4",
                    "midi": 68,
                    "time": 155.65948250000028,
                    "velocity": 0.2755905511811024,
                    "duration": 0.1030857499999911
                },
                {
                    "name": "A4",
                    "midi": 69,
                    "time": 155.76256825000027,
                    "velocity": 0.2755905511811024,
                    "duration": 0.1030857499999911
                },
                {
                    "name": "B3",
                    "midi": 59,
                    "time": 155.86565400000026,
                    "velocity": 0.3228346456692913,
                    "duration": 0.10308575000001952
                },
                {
                    "name": "D4",
                    "midi": 62,
                    "time": 155.96873975000028,
                    "velocity": 0.2755905511811024,
                    "duration": 0.1030857499999911
                },
                {
                    "name": "G#4",
                    "midi": 68,
                    "time": 156.07182550000027,
                    "velocity": 0.2755905511811024,
                    "duration": 0.1030857499999911
                },
                {
                    "name": "A4",
                    "midi": 69,
                    "time": 156.17491125000026,
                    "velocity": 0.2677165354330709,
                    "duration": 0.1030857499999911
                },
                {
                    "name": "B3",
                    "midi": 59,
                    "time": 156.27799700000025,
                    "velocity": 0.30708661417322836,
                    "duration": 0.1030857499999911
                },
                {
                    "name": "D4",
                    "midi": 62,
                    "time": 156.38108275000025,
                    "velocity": 0.2755905511811024,
                    "duration": 0.1030857499999911
                },
                {
                    "name": "G#4",
                    "midi": 68,
                    "time": 156.48416850000024,
                    "velocity": 0.2677165354330709,
                    "duration": 0.1030857499999911
                },
                {
                    "name": "A4",
                    "midi": 69,
                    "time": 156.58725425000023,
                    "velocity": 0.2677165354330709,
                    "duration": 0.1030857499999911
                },
                {
                    "name": "A3",
                    "midi": 57,
                    "time": 156.69034000000022,
                    "velocity": 0.33858267716535434,
                    "duration": 0.1030857499999911
                },
                {
                    "name": "C4",
                    "midi": 60,
                    "time": 156.7934257500002,
                    "velocity": 0.2755905511811024,
                    "duration": 0.1030857499999911
                },
                {
                    "name": "G#4",
                    "midi": 68,
                    "time": 156.8965115000002,
                    "velocity": 0.2755905511811024,
                    "duration": 0.1030857499999911
                },
                {
                    "name": "A4",
                    "midi": 69,
                    "time": 156.9995972500002,
                    "velocity": 0.2755905511811024,
                    "duration": 0.1030857499999911
                },
                {
                    "name": "A3",
                    "midi": 57,
                    "time": 157.10268300000018,
                    "velocity": 0.2755905511811024,
                    "duration": 0.1030857499999911
                },
                {
                    "name": "C4",
                    "midi": 60,
                    "time": 157.20576875000017,
                    "velocity": 0.2755905511811024,
                    "duration": 0.1030857499999911
                },
                {
                    "name": "G#4",
                    "midi": 68,
                    "time": 157.30885450000017,
                    "velocity": 0.2440944881889764,
                    "duration": 0.1030857499999911
                },
                {
                    "name": "A4",
                    "midi": 69,
                    "time": 157.41194025000016,
                    "velocity": 0.2440944881889764,
                    "duration": 0.1030857499999911
                },
                {
                    "name": "C3",
                    "midi": 48,
                    "time": 157.51502600000015,
                    "velocity": 0.31496062992125984,
                    "duration": 0.1030857499999911
                },
                {
                    "name": "A3",
                    "midi": 57,
                    "time": 157.61811175000014,
                    "velocity": 0.28346456692913385,
                    "duration": 0.1030857499999911
                },
                {
                    "name": "D3",
                    "midi": 50,
                    "time": 157.72119750000013,
                    "velocity": 0.29133858267716534,
                    "duration": 0.1030857499999911
                },
                {
                    "name": "A3",
                    "midi": 57,
                    "time": 157.82428325000012,
                    "velocity": 0.2992125984251969,
                    "duration": 0.1030857499999911
                },
                {
                    "name": "A2",
                    "midi": 45,
                    "time": 157.9273690000001,
                    "velocity": 0.36220472440944884,
                    "duration": 0.1030857499999911
                },
                {
                    "name": "A3",
                    "midi": 57,
                    "time": 158.0304547500001,
                    "velocity": 0.31496062992125984,
                    "duration": 0.1030857499999911
                },
                {
                    "name": "B2",
                    "midi": 47,
                    "time": 158.1335405000001,
                    "velocity": 0.3228346456692913,
                    "duration": 0.1030857499999911
                },
                {
                    "name": "A3",
                    "midi": 57,
                    "time": 158.23662625000009,
                    "velocity": 0.33070866141732286,
                    "duration": 0.1030857499999911
                },
                {
                    "name": "C3",
                    "midi": 48,
                    "time": 158.33971200000008,
                    "velocity": 0.3937007874015748,
                    "duration": 0.1030857499999911
                },
                {
                    "name": "A3",
                    "midi": 57,
                    "time": 158.44279775000007,
                    "velocity": 0.33858267716535434,
                    "duration": 0.1030857499999911
                },
                {
                    "name": "E3",
                    "midi": 52,
                    "time": 158.54588350000006,
                    "velocity": 0.33858267716535434,
                    "duration": 0.1030857499999911
                },
                {
                    "name": "A3",
                    "midi": 57,
                    "time": 158.64896925000005,
                    "velocity": 0.33858267716535434,
                    "duration": 0.1030857499999911
                },
                {
                    "name": "D3",
                    "midi": 50,
                    "time": 158.75205500000004,
                    "velocity": 0.3700787401574803,
                    "duration": 0.1030857499999911
                },
                {
                    "name": "A3",
                    "midi": 57,
                    "time": 158.85514075000003,
                    "velocity": 0.30708661417322836,
                    "duration": 0.1030857499999911
                },
                {
                    "name": "F3",
                    "midi": 53,
                    "time": 158.95822650000002,
                    "velocity": 0.30708661417322836,
                    "duration": 0.1030857499999911
                },
                {
                    "name": "A3",
                    "midi": 57,
                    "time": 159.06131225000001,
                    "velocity": 0.30708661417322836,
                    "duration": 0.1030857499999911
                },
                {
                    "name": "E3",
                    "midi": 52,
                    "time": 159.164398,
                    "velocity": 0.3543307086614173,
                    "duration": 0.1030857499999911
                },
                {
                    "name": "C4",
                    "midi": 60,
                    "time": 159.26748375,
                    "velocity": 0.2755905511811024,
                    "duration": 0.1030857499999911
                },
                {
                    "name": "A3",
                    "midi": 57,
                    "time": 159.3705695,
                    "velocity": 0.2755905511811024,
                    "duration": 0.1030857499999911
                },
                {
                    "name": "C4",
                    "midi": 60,
                    "time": 159.47365524999998,
                    "velocity": 0.2755905511811024,
                    "duration": 0.1030857499999911
                },
                {
                    "name": "E3",
                    "midi": 52,
                    "time": 159.57674099999997,
                    "velocity": 0.36220472440944884,
                    "duration": 0.1030857499999911
                },
                {
                    "name": "D4",
                    "midi": 62,
                    "time": 159.67982674999996,
                    "velocity": 0.2755905511811024,
                    "duration": 0.1030857499999911
                },
                {
                    "name": "G#3",
                    "midi": 56,
                    "time": 159.78291249999995,
                    "velocity": 0.2755905511811024,
                    "duration": 0.1030857499999911
                },
                {
                    "name": "D4",
                    "midi": 62,
                    "time": 159.88599824999994,
                    "velocity": 0.2755905511811024,
                    "duration": 0.1030857499999911
                },
                {
                    "name": "F3",
                    "midi": 53,
                    "time": 159.98908399999993,
                    "velocity": 0.3228346456692913,
                    "duration": 0.10308575000001952
                },
                {
                    "name": "C4",
                    "midi": 60,
                    "time": 160.09216974999995,
                    "velocity": 0.25196850393700787,
                    "duration": 0.1030857499999911
                },
                {
                    "name": "A3",
                    "midi": 57,
                    "time": 160.19525549999994,
                    "velocity": 0.25984251968503935,
                    "duration": 0.1030857499999911
                },
                {
                    "name": "C4",
                    "midi": 60,
                    "time": 160.29834124999994,
                    "velocity": 0.25984251968503935,
                    "duration": 0.1030857499999911
                },
                {
                    "name": "F3",
                    "midi": 53,
                    "time": 160.40142699999993,
                    "velocity": 0.3228346456692913,
                    "duration": 0.1030857499999911
                },
                {
                    "name": "C4",
                    "midi": 60,
                    "time": 160.50451274999992,
                    "velocity": 0.2755905511811024,
                    "duration": 0.1030857499999911
                },
                {
                    "name": "A3",
                    "midi": 57,
                    "time": 160.6075984999999,
                    "velocity": 0.2755905511811024,
                    "duration": 0.1030857499999911
                },
                {
                    "name": "C4",
                    "midi": 60,
                    "time": 160.7106842499999,
                    "velocity": 0.2755905511811024,
                    "duration": 0.1030857499999911
                },
                {
                    "name": "C3",
                    "midi": 48,
                    "time": 160.82236047916655,
                    "velocity": 0.31496062992125984,
                    "duration": 0.1030857499999911
                },
                {
                    "name": "A3",
                    "midi": 57,
                    "time": 160.92544622916654,
                    "velocity": 0.28346456692913385,
                    "duration": 0.1030857499999911
                },
                {
                    "name": "D3",
                    "midi": 50,
                    "time": 161.02853197916653,
                    "velocity": 0.29133858267716534,
                    "duration": 0.1030857499999911
                },
                {
                    "name": "A3",
                    "midi": 57,
                    "time": 161.13161772916652,
                    "velocity": 0.2992125984251969,
                    "duration": 0.1030857499999911
                },
                {
                    "name": "A2",
                    "midi": 45,
                    "time": 161.2347034791665,
                    "velocity": 0.36220472440944884,
                    "duration": 0.1030857499999911
                },
                {
                    "name": "A3",
                    "midi": 57,
                    "time": 161.3377892291665,
                    "velocity": 0.31496062992125984,
                    "duration": 0.1030857499999911
                },
                {
                    "name": "B2",
                    "midi": 47,
                    "time": 161.4408749791665,
                    "velocity": 0.3228346456692913,
                    "duration": 0.1030857499999911
                },
                {
                    "name": "A3",
                    "midi": 57,
                    "time": 161.54396072916649,
                    "velocity": 0.33070866141732286,
                    "duration": 0.1030857499999911
                },
                {
                    "name": "C3",
                    "midi": 48,
                    "time": 161.64704647916648,
                    "velocity": 0.3937007874015748,
                    "duration": 0.1030857499999911
                },
                {
                    "name": "A3",
                    "midi": 57,
                    "time": 161.75013222916647,
                    "velocity": 0.33858267716535434,
                    "duration": 0.1030857499999911
                },
                {
                    "name": "E3",
                    "midi": 52,
                    "time": 161.85321797916646,
                    "velocity": 0.33858267716535434,
                    "duration": 0.1030857499999911
                },
                {
                    "name": "A3",
                    "midi": 57,
                    "time": 161.95630372916645,
                    "velocity": 0.33858267716535434,
                    "duration": 0.1030857499999911
                },
                {
                    "name": "D3",
                    "midi": 50,
                    "time": 162.05938947916644,
                    "velocity": 0.3700787401574803,
                    "duration": 0.1030857499999911
                },
                {
                    "name": "A3",
                    "midi": 57,
                    "time": 162.16247522916643,
                    "velocity": 0.30708661417322836,
                    "duration": 0.1030857499999911
                },
                {
                    "name": "F3",
                    "midi": 53,
                    "time": 162.26556097916642,
                    "velocity": 0.30708661417322836,
                    "duration": 0.1030857499999911
                },
                {
                    "name": "A3",
                    "midi": 57,
                    "time": 162.36864672916641,
                    "velocity": 0.30708661417322836,
                    "duration": 0.1030857499999911
                },
                {
                    "name": "E3",
                    "midi": 52,
                    "time": 162.4717324791664,
                    "velocity": 0.3543307086614173,
                    "duration": 0.1030857499999911
                },
                {
                    "name": "C4",
                    "midi": 60,
                    "time": 162.5748182291664,
                    "velocity": 0.2755905511811024,
                    "duration": 0.1030857499999911
                },
                {
                    "name": "A3",
                    "midi": 57,
                    "time": 162.6779039791664,
                    "velocity": 0.2755905511811024,
                    "duration": 0.1030857499999911
                },
                {
                    "name": "C4",
                    "midi": 60,
                    "time": 162.78098972916638,
                    "velocity": 0.2755905511811024,
                    "duration": 0.1030857499999911
                },
                {
                    "name": "E3",
                    "midi": 52,
                    "time": 162.88407547916637,
                    "velocity": 0.36220472440944884,
                    "duration": 0.1030857499999911
                },
                {
                    "name": "D4",
                    "midi": 62,
                    "time": 162.98716122916636,
                    "velocity": 0.2755905511811024,
                    "duration": 0.1030857499999911
                },
                {
                    "name": "G#3",
                    "midi": 56,
                    "time": 163.09024697916635,
                    "velocity": 0.2755905511811024,
                    "duration": 0.1030857499999911
                },
                {
                    "name": "D4",
                    "midi": 62,
                    "time": 163.19333272916634,
                    "velocity": 0.2755905511811024,
                    "duration": 0.1030857499999911
                },
                {
                    "name": "B1",
                    "midi": 35,
                    "time": 163.28782799999968,
                    "velocity": 0.5354330708661418,
                    "duration": 0.1030857499999911
                },
                {
                    "name": "B2",
                    "midi": 47,
                    "time": 163.28782799999968,
                    "velocity": 0.6299212598425197,
                    "duration": 0.1030857499999911
                },
                {
                    "name": "D2",
                    "midi": 38,
                    "time": 163.49399949999966,
                    "velocity": 0.5039370078740157,
                    "duration": 0.1030857499999911
                },
                {
                    "name": "D3",
                    "midi": 50,
                    "time": 163.49399949999966,
                    "velocity": 0.5984251968503937,
                    "duration": 0.1030857499999911
                },
                {
                    "name": "C2",
                    "midi": 36,
                    "time": 163.70017099999964,
                    "velocity": 0.5433070866141733,
                    "duration": 0.4123430000000212
                },
                {
                    "name": "C3",
                    "midi": 48,
                    "time": 163.70017099999964,
                    "velocity": 0.6456692913385826,
                    "duration": 0.4123430000000212
                },
                {
                    "name": "C#2",
                    "midi": 37,
                    "time": 164.11251399999966,
                    "velocity": 0.5433070866141733,
                    "duration": 0.1030857499999911
                },
                {
                    "name": "C#3",
                    "midi": 49,
                    "time": 164.11251399999966,
                    "velocity": 0.6377952755905512,
                    "duration": 0.1030857499999911
                },
                {
                    "name": "E2",
                    "midi": 40,
                    "time": 164.31868549999965,
                    "velocity": 0.5039370078740157,
                    "duration": 0.1030857499999911
                },
                {
                    "name": "E3",
                    "midi": 52,
                    "time": 164.31868549999965,
                    "velocity": 0.5984251968503937,
                    "duration": 0.1030857499999911
                },
                {
                    "name": "D2",
                    "midi": 38,
                    "time": 164.52485699999963,
                    "velocity": 0.5511811023622047,
                    "duration": 0.4123429999999928
                },
                {
                    "name": "D3",
                    "midi": 50,
                    "time": 164.52485699999963,
                    "velocity": 0.6456692913385826,
                    "duration": 0.4123429999999928
                },
                {
                    "name": "D#2",
                    "midi": 39,
                    "time": 164.93719999999962,
                    "velocity": 0.5511811023622047,
                    "duration": 0.1030857499999911
                },
                {
                    "name": "D#3",
                    "midi": 51,
                    "time": 164.93719999999962,
                    "velocity": 0.6535433070866141,
                    "duration": 0.1030857499999911
                },
                {
                    "name": "F2",
                    "midi": 41,
                    "time": 165.1433714999996,
                    "velocity": 0.5118110236220472,
                    "duration": 0.1030857499999911
                },
                {
                    "name": "F3",
                    "midi": 53,
                    "time": 165.1433714999996,
                    "velocity": 0.6062992125984252,
                    "duration": 0.1030857499999911
                },
                {
                    "name": "E2",
                    "midi": 40,
                    "time": 165.34954299999958,
                    "velocity": 0.5590551181102362,
                    "duration": 0.4123430000000212
                },
                {
                    "name": "E3",
                    "midi": 52,
                    "time": 165.34954299999958,
                    "velocity": 0.6614173228346457,
                    "duration": 0.4123430000000212
                },
                {
                    "name": "E2",
                    "midi": 40,
                    "time": 165.7618859999996,
                    "velocity": 0.5669291338582677,
                    "duration": 0.1030857499999911
                },
                {
                    "name": "E3",
                    "midi": 52,
                    "time": 165.7618859999996,
                    "velocity": 0.6614173228346457,
                    "duration": 0.1030857499999911
                },
                {
                    "name": "G2",
                    "midi": 43,
                    "time": 165.9680574999996,
                    "velocity": 0.5196850393700787,
                    "duration": 0.1030857499999911
                },
                {
                    "name": "G3",
                    "midi": 55,
                    "time": 165.9680574999996,
                    "velocity": 0.6220472440944882,
                    "duration": 0.1030857499999911
                },
                {
                    "name": "F2",
                    "midi": 41,
                    "time": 166.17422899999957,
                    "velocity": 0.5669291338582677,
                    "duration": 0.4123429999999928
                },
                {
                    "name": "F3",
                    "midi": 53,
                    "time": 166.17422899999957,
                    "velocity": 0.6692913385826772,
                    "duration": 0.4123429999999928
                },
                {
                    "name": "G#2",
                    "midi": 44,
                    "time": 166.58657199999956,
                    "velocity": 0.5748031496062992,
                    "duration": 0.1030857499999911
                },
                {
                    "name": "G#3",
                    "midi": 56,
                    "time": 166.58657199999956,
                    "velocity": 0.6771653543307087,
                    "duration": 0.1030857499999911
                },
                {
                    "name": "D4",
                    "midi": 62,
                    "time": 166.79274349999955,
                    "velocity": 0.6299212598425197,
                    "duration": 0.1030857499999911
                },
                {
                    "name": "B3",
                    "midi": 59,
                    "time": 166.79274349999955,
                    "velocity": 0.5275590551181102,
                    "duration": 0.1030857499999911
                },
                {
                    "name": "F4",
                    "midi": 65,
                    "time": 166.99891499999953,
                    "velocity": 0.6929133858267716,
                    "duration": 0.824686000000014
                },
                {
                    "name": "D4",
                    "midi": 62,
                    "time": 166.99891499999953,
                    "velocity": 0.5826771653543307,
                    "duration": 0.824686000000014
                },
                {
                    "name": "B3",
                    "midi": 59,
                    "time": 166.99891499999953,
                    "velocity": 0.5826771653543307,
                    "duration": 0.824686000000014
                },
                {
                    "name": "G#3",
                    "midi": 56,
                    "time": 166.99891499999953,
                    "velocity": 0.5826771653543307,
                    "duration": 0.824686000000014
                },
                {
                    "name": "E3",
                    "midi": 52,
                    "time": 167.82360099999954,
                    "velocity": 0.29133858267716534,
                    "duration": 0.4123429999999928
                },
                {
                    "name": "G#3",
                    "midi": 56,
                    "time": 167.82360099999954,
                    "velocity": 0.29133858267716534,
                    "duration": 0.4123429999999928
                },
                {
                    "name": "B3",
                    "midi": 59,
                    "time": 167.82360099999954,
                    "velocity": 0.3543307086614173,
                    "duration": 0.4123429999999928
                },
                {
                    "name": "C3",
                    "midi": 48,
                    "time": 168.23594399999953,
                    "velocity": 0.3543307086614173,
                    "duration": 0.1030857499999911
                },
                {
                    "name": "A3",
                    "midi": 57,
                    "time": 168.33902974999953,
                    "velocity": 0.2992125984251969,
                    "duration": 0.1030857499999911
                },
                {
                    "name": "E3",
                    "midi": 52,
                    "time": 168.44211549999952,
                    "velocity": 0.2992125984251969,
                    "duration": 0.1030857499999911
                },
                {
                    "name": "A3",
                    "midi": 57,
                    "time": 168.5452012499995,
                    "velocity": 0.2992125984251969,
                    "duration": 0.1030857499999911
                },
                {
                    "name": "D3",
                    "midi": 50,
                    "time": 168.6482869999995,
                    "velocity": 0.33070866141732286,
                    "duration": 0.1030857499999911
                },
                {
                    "name": "A3",
                    "midi": 57,
                    "time": 168.7513727499995,
                    "velocity": 0.2755905511811024,
                    "duration": 0.1030857499999911
                },
                {
                    "name": "F3",
                    "midi": 53,
                    "time": 168.85445849999948,
                    "velocity": 0.2755905511811024,
                    "duration": 0.1030857499999911
                },
                {
                    "name": "A3",
                    "midi": 57,
                    "time": 168.95754424999947,
                    "velocity": 0.2755905511811024,
                    "duration": 0.1030857499999911
                },
                {
                    "name": "E3",
                    "midi": 52,
                    "time": 169.06062999999946,
                    "velocity": 0.31496062992125984,
                    "duration": 0.1030857499999911
                },
                {
                    "name": "C4",
                    "midi": 60,
                    "time": 169.16371574999945,
                    "velocity": 0.2440944881889764,
                    "duration": 0.1030857499999911
                },
                {
                    "name": "A3",
                    "midi": 57,
                    "time": 169.26680149999945,
                    "velocity": 0.2440944881889764,
                    "duration": 0.1030857499999911
                },
                {
                    "name": "C4",
                    "midi": 60,
                    "time": 169.36988724999944,
                    "velocity": 0.2440944881889764,
                    "duration": 0.1030857499999911
                },
                {
                    "name": "E3",
                    "midi": 52,
                    "time": 169.47297299999943,
                    "velocity": 0.3228346456692913,
                    "duration": 0.1030857499999911
                },
                {
                    "name": "D4",
                    "midi": 62,
                    "time": 169.57605874999942,
                    "velocity": 0.2440944881889764,
                    "duration": 0.1030857499999911
                },
                {
                    "name": "G#3",
                    "midi": 56,
                    "time": 169.6791444999994,
                    "velocity": 0.2440944881889764,
                    "duration": 0.1030857499999911
                },
                {
                    "name": "D4",
                    "midi": 62,
                    "time": 169.7822302499994,
                    "velocity": 0.2440944881889764,
                    "duration": 0.1030857499999911
                },
                {
                    "name": "C3",
                    "midi": 48,
                    "time": 169.8853159999994,
                    "velocity": 0.25196850393700787,
                    "duration": 0.1030857499999911
                },
                {
                    "name": "A3",
                    "midi": 57,
                    "time": 169.98840174999938,
                    "velocity": 0.2125984251968504,
                    "duration": 0.1030857499999911
                },
                {
                    "name": "E3",
                    "midi": 52,
                    "time": 170.09148749999937,
                    "velocity": 0.2125984251968504,
                    "duration": 0.1030857499999911
                },
                {
                    "name": "A3",
                    "midi": 57,
                    "time": 170.19457324999937,
                    "velocity": 0.2125984251968504,
                    "duration": 0.1030857499999911
                },
                {
                    "name": "D3",
                    "midi": 50,
                    "time": 170.29765899999936,
                    "velocity": 0.2283464566929134,
                    "duration": 0.1030857499999911
                },
                {
                    "name": "A3",
                    "midi": 57,
                    "time": 170.40074474999935,
                    "velocity": 0.1968503937007874,
                    "duration": 0.1030857499999911
                },
                {
                    "name": "F3",
                    "midi": 53,
                    "time": 170.50383049999934,
                    "velocity": 0.1968503937007874,
                    "duration": 0.1030857499999911
                },
                {
                    "name": "A3",
                    "midi": 57,
                    "time": 170.60691624999933,
                    "velocity": 0.1968503937007874,
                    "duration": 0.1030857499999911
                },
                {
                    "name": "E3",
                    "midi": 52,
                    "time": 170.71000199999932,
                    "velocity": 0.2204724409448819,
                    "duration": 0.1030857499999911
                },
                {
                    "name": "C4",
                    "midi": 60,
                    "time": 170.8130877499993,
                    "velocity": 0.16535433070866143,
                    "duration": 0.1030857499999911
                },
                {
                    "name": "A3",
                    "midi": 57,
                    "time": 170.9161734999993,
                    "velocity": 0.16535433070866143,
                    "duration": 0.1030857499999911
                },
                {
                    "name": "C4",
                    "midi": 60,
                    "time": 171.0192592499993,
                    "velocity": 0.16535433070866143,
                    "duration": 0.1030857499999911
                },
                {
                    "name": "E3",
                    "midi": 52,
                    "time": 171.12234499999929,
                    "velocity": 0.2204724409448819,
                    "duration": 0.1030857499999911
                },
                {
                    "name": "D4",
                    "midi": 62,
                    "time": 171.22543074999928,
                    "velocity": 0.16535433070866143,
                    "duration": 0.1030857499999911
                },
                {
                    "name": "G#3",
                    "midi": 56,
                    "time": 171.32851649999927,
                    "velocity": 0.16535433070866143,
                    "duration": 0.1030857499999911
                },
                {
                    "name": "D4",
                    "midi": 62,
                    "time": 171.43160224999926,
                    "velocity": 0.16535433070866143,
                    "duration": 0.1030857499999911
                },
                {
                    "name": "B1",
                    "midi": 35,
                    "time": 171.53468799999925,
                    "velocity": 0.5354330708661418,
                    "duration": 0.1030857499999911
                },
                {
                    "name": "B2",
                    "midi": 47,
                    "time": 171.53468799999925,
                    "velocity": 0.6299212598425197,
                    "duration": 0.1030857499999911
                },
                {
                    "name": "D2",
                    "midi": 38,
                    "time": 171.74085949999923,
                    "velocity": 0.5039370078740157,
                    "duration": 0.1030857499999911
                },
                {
                    "name": "D3",
                    "midi": 50,
                    "time": 171.74085949999923,
                    "velocity": 0.5984251968503937,
                    "duration": 0.1030857499999911
                },
                {
                    "name": "C2",
                    "midi": 36,
                    "time": 171.9470309999992,
                    "velocity": 0.5433070866141733,
                    "duration": 0.4123430000000212
                },
                {
                    "name": "C3",
                    "midi": 48,
                    "time": 171.9470309999992,
                    "velocity": 0.6456692913385826,
                    "duration": 0.4123430000000212
                },
                {
                    "name": "C#2",
                    "midi": 37,
                    "time": 172.35937399999924,
                    "velocity": 0.5354330708661418,
                    "duration": 0.1030857499999911
                },
                {
                    "name": "C#3",
                    "midi": 49,
                    "time": 172.35937399999924,
                    "velocity": 0.6299212598425197,
                    "duration": 0.1030857499999911
                },
                {
                    "name": "E2",
                    "midi": 40,
                    "time": 172.56554549999922,
                    "velocity": 0.5039370078740157,
                    "duration": 0.1030857499999911
                },
                {
                    "name": "E3",
                    "midi": 52,
                    "time": 172.56554549999922,
                    "velocity": 0.5984251968503937,
                    "duration": 0.1030857499999911
                },
                {
                    "name": "D2",
                    "midi": 38,
                    "time": 172.7717169999992,
                    "velocity": 0.5433070866141733,
                    "duration": 0.4123429999999928
                },
                {
                    "name": "D3",
                    "midi": 50,
                    "time": 172.7717169999992,
                    "velocity": 0.6377952755905512,
                    "duration": 0.4123429999999928
                },
                {
                    "name": "D#2",
                    "midi": 39,
                    "time": 173.1840599999992,
                    "velocity": 0.5511811023622047,
                    "duration": 0.1030857499999911
                },
                {
                    "name": "D#3",
                    "midi": 51,
                    "time": 173.1840599999992,
                    "velocity": 0.6456692913385826,
                    "duration": 0.1030857499999911
                },
                {
                    "name": "F2",
                    "midi": 41,
                    "time": 173.39023149999917,
                    "velocity": 0.49606299212598426,
                    "duration": 0.1030857499999911
                },
                {
                    "name": "F3",
                    "midi": 53,
                    "time": 173.39023149999917,
                    "velocity": 0.5984251968503937,
                    "duration": 0.1030857499999911
                },
                {
                    "name": "E2",
                    "midi": 40,
                    "time": 173.59640299999916,
                    "velocity": 0.5511811023622047,
                    "duration": 0.4123430000000212
                },
                {
                    "name": "E3",
                    "midi": 52,
                    "time": 173.59640299999916,
                    "velocity": 0.6535433070866141,
                    "duration": 0.4123430000000212
                },
                {
                    "name": "E2",
                    "midi": 40,
                    "time": 174.00874599999918,
                    "velocity": 0.5590551181102362,
                    "duration": 0.1030857499999911
                },
                {
                    "name": "E3",
                    "midi": 52,
                    "time": 174.00874599999918,
                    "velocity": 0.6614173228346457,
                    "duration": 0.1030857499999911
                },
                {
                    "name": "G2",
                    "midi": 43,
                    "time": 174.21491749999916,
                    "velocity": 0.5118110236220472,
                    "duration": 0.1030857499999911
                },
                {
                    "name": "G3",
                    "midi": 55,
                    "time": 174.21491749999916,
                    "velocity": 0.6062992125984252,
                    "duration": 0.1030857499999911
                },
                {
                    "name": "F2",
                    "midi": 41,
                    "time": 174.42108899999914,
                    "velocity": 0.5590551181102362,
                    "duration": 0.4123429999999928
                },
                {
                    "name": "F3",
                    "midi": 53,
                    "time": 174.42108899999914,
                    "velocity": 0.6614173228346457,
                    "duration": 0.4123429999999928
                },
                {
                    "name": "F#2",
                    "midi": 42,
                    "time": 174.83343199999914,
                    "velocity": 0.5669291338582677,
                    "duration": 0.1030857499999911
                },
                {
                    "name": "F#3",
                    "midi": 54,
                    "time": 174.83343199999914,
                    "velocity": 0.6614173228346457,
                    "duration": 0.1030857499999911
                },
                {
                    "name": "A2",
                    "midi": 45,
                    "time": 175.03960349999912,
                    "velocity": 0.5196850393700787,
                    "duration": 0.1030857499999911
                },
                {
                    "name": "A3",
                    "midi": 57,
                    "time": 175.03960349999912,
                    "velocity": 0.6220472440944882,
                    "duration": 0.1030857499999911
                },
                {
                    "name": "G#2",
                    "midi": 44,
                    "time": 175.2457749999991,
                    "velocity": 0.5669291338582677,
                    "duration": 0.4123430000000212
                },
                {
                    "name": "G#3",
                    "midi": 56,
                    "time": 175.2457749999991,
                    "velocity": 0.6692913385826772,
                    "duration": 0.4123430000000212
                },
                {
                    "name": "G#2",
                    "midi": 44,
                    "time": 175.65811799999912,
                    "velocity": 0.5748031496062992,
                    "duration": 0.1030857499999911
                },
                {
                    "name": "G#3",
                    "midi": 56,
                    "time": 175.65811799999912,
                    "velocity": 0.6771653543307087,
                    "duration": 0.1030857499999911
                },
                {
                    "name": "B2",
                    "midi": 47,
                    "time": 175.8642894999991,
                    "velocity": 0.5196850393700787,
                    "duration": 0.1030857499999911
                },
                {
                    "name": "B3",
                    "midi": 59,
                    "time": 175.8642894999991,
                    "velocity": 0.6220472440944882,
                    "duration": 0.1030857499999911
                },
                {
                    "name": "A2",
                    "midi": 45,
                    "time": 176.07046099999909,
                    "velocity": 0.5826771653543307,
                    "duration": 0.4123429999999928
                },
                {
                    "name": "A3",
                    "midi": 57,
                    "time": 176.07046099999909,
                    "velocity": 0.6850393700787402,
                    "duration": 0.4123429999999928
                },
                {
                    "name": "A#3",
                    "midi": 58,
                    "time": 176.48280399999908,
                    "velocity": 0.6062992125984252,
                    "duration": 0.8246859999999856
                },
                {
                    "name": "D4",
                    "midi": 62,
                    "time": 176.48280399999908,
                    "velocity": 0.6062992125984252,
                    "duration": 0.8246859999999856
                },
                {
                    "name": "F4",
                    "midi": 65,
                    "time": 176.48280399999908,
                    "velocity": 0.6062992125984252,
                    "duration": 0.8246859999999856
                },
                {
                    "name": "G#4",
                    "midi": 68,
                    "time": 176.48280399999908,
                    "velocity": 0.7244094488188977,
                    "duration": 0.8238269520833228
                },
                {
                    "name": "D#3",
                    "midi": 51,
                    "time": 183.08029199999908,
                    "velocity": 0.28346456692913385,
                    "duration": 0.1030857499999911
                },
                {
                    "name": "A#3",
                    "midi": 58,
                    "time": 183.18337774999907,
                    "velocity": 0.23622047244094488,
                    "duration": 0.1030857499999911
                },
                {
                    "name": "G3",
                    "midi": 55,
                    "time": 183.28646349999906,
                    "velocity": 0.2440944881889764,
                    "duration": 0.1030857499999911
                },
                {
                    "name": "A#3",
                    "midi": 58,
                    "time": 183.38954924999905,
                    "velocity": 0.2440944881889764,
                    "duration": 0.1030857499999911
                },
                {
                    "name": "D#4",
                    "midi": 63,
                    "time": 183.49263499999904,
                    "velocity": 0.28346456692913385,
                    "duration": 0.1030857499999911
                },
                {
                    "name": "A#3",
                    "midi": 58,
                    "time": 183.59572074999903,
                    "velocity": 0.2440944881889764,
                    "duration": 0.1030857499999911
                },
                {
                    "name": "G3",
                    "midi": 55,
                    "time": 183.69880649999902,
                    "velocity": 0.2440944881889764,
                    "duration": 0.1030857499999911
                },
                {
                    "name": "A#3",
                    "midi": 58,
                    "time": 183.801892249999,
                    "velocity": 0.2440944881889764,
                    "duration": 0.1030857499999911
                },
                {
                    "name": "D#3",
                    "midi": 51,
                    "time": 183.904977999999,
                    "velocity": 0.28346456692913385,
                    "duration": 0.10308575000001952
                },
                {
                    "name": "A#3",
                    "midi": 58,
                    "time": 184.00806374999902,
                    "velocity": 0.2440944881889764,
                    "duration": 0.1030857499999911
                },
                {
                    "name": "G3",
                    "midi": 55,
                    "time": 184.11114949999902,
                    "velocity": 0.2440944881889764,
                    "duration": 0.1030857499999911
                },
                {
                    "name": "A#3",
                    "midi": 58,
                    "time": 184.214235249999,
                    "velocity": 0.25196850393700787,
                    "duration": 0.1030857499999911
                },
                {
                    "name": "D#4",
                    "midi": 63,
                    "time": 184.317320999999,
                    "velocity": 0.28346456692913385,
                    "duration": 0.1030857499999911
                },
                {
                    "name": "A#3",
                    "midi": 58,
                    "time": 184.420406749999,
                    "velocity": 0.2440944881889764,
                    "duration": 0.1030857499999911
                },
                {
                    "name": "G3",
                    "midi": 55,
                    "time": 184.52349249999898,
                    "velocity": 0.2440944881889764,
                    "duration": 0.1030857499999911
                },
                {
                    "name": "A#3",
                    "midi": 58,
                    "time": 184.62657824999897,
                    "velocity": 0.2440944881889764,
                    "duration": 0.1030857499999911
                },
                {
                    "name": "D#3",
                    "midi": 51,
                    "time": 184.72966399999896,
                    "velocity": 0.28346456692913385,
                    "duration": 0.10308575000001952
                },
                {
                    "name": "A#3",
                    "midi": 58,
                    "time": 184.83274974999898,
                    "velocity": 0.23622047244094488,
                    "duration": 0.1030857499999911
                },
                {
                    "name": "G3",
                    "midi": 55,
                    "time": 184.93583549999897,
                    "velocity": 0.2440944881889764,
                    "duration": 0.1030857499999911
                },
                {
                    "name": "A#3",
                    "midi": 58,
                    "time": 185.03892124999896,
                    "velocity": 0.2440944881889764,
                    "duration": 0.1030857499999911
                },
                {
                    "name": "D#4",
                    "midi": 63,
                    "time": 185.14200699999896,
                    "velocity": 0.28346456692913385,
                    "duration": 0.1030857499999911
                },
                {
                    "name": "A#3",
                    "midi": 58,
                    "time": 185.24509274999895,
                    "velocity": 0.2440944881889764,
                    "duration": 0.1030857499999911
                },
                {
                    "name": "G3",
                    "midi": 55,
                    "time": 185.34817849999894,
                    "velocity": 0.2440944881889764,
                    "duration": 0.1030857499999911
                },
                {
                    "name": "A#3",
                    "midi": 58,
                    "time": 185.45126424999893,
                    "velocity": 0.2440944881889764,
                    "duration": 0.1030857499999911
                },
                {
                    "name": "D#3",
                    "midi": 51,
                    "time": 185.55434999999892,
                    "velocity": 0.28346456692913385,
                    "duration": 0.10308575000001952
                },
                {
                    "name": "A#3",
                    "midi": 58,
                    "time": 185.65743574999894,
                    "velocity": 0.2440944881889764,
                    "duration": 0.1030857499999911
                },
                {
                    "name": "G3",
                    "midi": 55,
                    "time": 185.76052149999893,
                    "velocity": 0.2440944881889764,
                    "duration": 0.1030857499999911
                },
                {
                    "name": "A#3",
                    "midi": 58,
                    "time": 185.86360724999892,
                    "velocity": 0.25196850393700787,
                    "duration": 0.1030857499999911
                },
                {
                    "name": "D#4",
                    "midi": 63,
                    "time": 185.9666929999989,
                    "velocity": 0.28346456692913385,
                    "duration": 0.1030857499999911
                },
                {
                    "name": "A#3",
                    "midi": 58,
                    "time": 186.0697787499989,
                    "velocity": 0.2440944881889764,
                    "duration": 0.1030857499999911
                },
                {
                    "name": "G3",
                    "midi": 55,
                    "time": 186.1728644999989,
                    "velocity": 0.2440944881889764,
                    "duration": 0.1030857499999911
                },
                {
                    "name": "A#3",
                    "midi": 58,
                    "time": 186.27595024999889,
                    "velocity": 0.2440944881889764,
                    "duration": 0.1030857499999911
                },
                {
                    "name": "A#2",
                    "midi": 46,
                    "time": 186.37903599999888,
                    "velocity": 0.31496062992125984,
                    "duration": 0.1030857499999911
                },
                {
                    "name": "A#3",
                    "midi": 58,
                    "time": 186.48212174999887,
                    "velocity": 0.25984251968503935,
                    "duration": 0.1030857499999911
                },
                {
                    "name": "G#3",
                    "midi": 56,
                    "time": 186.58520749999886,
                    "velocity": 0.2677165354330709,
                    "duration": 0.1030857499999911
                },
                {
                    "name": "A#3",
                    "midi": 58,
                    "time": 186.68829324999885,
                    "velocity": 0.2677165354330709,
                    "duration": 0.1030857499999911
                },
                {
                    "name": "D4",
                    "midi": 62,
                    "time": 186.79137899999884,
                    "velocity": 0.31496062992125984,
                    "duration": 0.1030857499999911
                },
                {
                    "name": "A#3",
                    "midi": 58,
                    "time": 186.89446474999883,
                    "velocity": 0.2677165354330709,
                    "duration": 0.1030857499999911
                },
                {
                    "name": "G#3",
                    "midi": 56,
                    "time": 186.99755049999882,
                    "velocity": 0.2677165354330709,
                    "duration": 0.1030857499999911
                },
                {
                    "name": "A#3",
                    "midi": 58,
                    "time": 187.10063624999881,
                    "velocity": 0.2677165354330709,
                    "duration": 0.1030857499999911
                },
                {
                    "name": "A#2",
                    "midi": 46,
                    "time": 187.2037219999988,
                    "velocity": 0.31496062992125984,
                    "duration": 0.10308575000001952
                },
                {
                    "name": "A#3",
                    "midi": 58,
                    "time": 187.30680774999882,
                    "velocity": 0.2677165354330709,
                    "duration": 0.1030857499999911
                },
                {
                    "name": "G#3",
                    "midi": 56,
                    "time": 187.40989349999882,
                    "velocity": 0.2677165354330709,
                    "duration": 0.1030857499999911
                },
                {
                    "name": "A#3",
                    "midi": 58,
                    "time": 187.5129792499988,
                    "velocity": 0.2755905511811024,
                    "duration": 0.1030857499999911
                },
                {
                    "name": "D4",
                    "midi": 62,
                    "time": 187.6160649999988,
                    "velocity": 0.31496062992125984,
                    "duration": 0.1030857499999911
                },
                {
                    "name": "A#3",
                    "midi": 58,
                    "time": 187.7191507499988,
                    "velocity": 0.2677165354330709,
                    "duration": 0.1030857499999911
                },
                {
                    "name": "G#3",
                    "midi": 56,
                    "time": 187.82223649999878,
                    "velocity": 0.2677165354330709,
                    "duration": 0.1030857499999911
                },
                {
                    "name": "A#3",
                    "midi": 58,
                    "time": 187.92532224999877,
                    "velocity": 0.2677165354330709,
                    "duration": 0.1030857499999911
                },
                {
                    "name": "A#2",
                    "midi": 46,
                    "time": 188.02840799999876,
                    "velocity": 0.31496062992125984,
                    "duration": 0.1030857499999911
                },
                {
                    "name": "A#3",
                    "midi": 58,
                    "time": 188.13149374999875,
                    "velocity": 0.25984251968503935,
                    "duration": 0.1030857499999911
                },
                {
                    "name": "G#3",
                    "midi": 56,
                    "time": 188.23457949999874,
                    "velocity": 0.2677165354330709,
                    "duration": 0.1030857499999911
                },
                {
                    "name": "A#3",
                    "midi": 58,
                    "time": 188.33766524999874,
                    "velocity": 0.2677165354330709,
                    "duration": 0.1030857499999911
                },
                {
                    "name": "D4",
                    "midi": 62,
                    "time": 188.44075099999873,
                    "velocity": 0.31496062992125984,
                    "duration": 0.1030857499999911
                },
                {
                    "name": "A#3",
                    "midi": 58,
                    "time": 188.54383674999872,
                    "velocity": 0.2677165354330709,
                    "duration": 0.1030857499999911
                },
                {
                    "name": "G#3",
                    "midi": 56,
                    "time": 188.6469224999987,
                    "velocity": 0.2677165354330709,
                    "duration": 0.1030857499999911
                },
                {
                    "name": "A#3",
                    "midi": 58,
                    "time": 188.7500082499987,
                    "velocity": 0.2677165354330709,
                    "duration": 0.1030857499999911
                },
                {
                    "name": "A#2",
                    "midi": 46,
                    "time": 188.8530939999987,
                    "velocity": 0.31496062992125984,
                    "duration": 0.1030857499999911
                },
                {
                    "name": "A#3",
                    "midi": 58,
                    "time": 188.95617974999868,
                    "velocity": 0.2677165354330709,
                    "duration": 0.1030857499999911
                },
                {
                    "name": "G#3",
                    "midi": 56,
                    "time": 189.05926549999867,
                    "velocity": 0.2677165354330709,
                    "duration": 0.1030857499999911
                },
                {
                    "name": "A#3",
                    "midi": 58,
                    "time": 189.16235124999866,
                    "velocity": 0.2755905511811024,
                    "duration": 0.1030857499999911
                },
                {
                    "name": "D4",
                    "midi": 62,
                    "time": 189.26543699999866,
                    "velocity": 0.31496062992125984,
                    "duration": 0.1030857499999911
                },
                {
                    "name": "A#3",
                    "midi": 58,
                    "time": 189.36852274999865,
                    "velocity": 0.2677165354330709,
                    "duration": 0.1030857499999911
                },
                {
                    "name": "G#3",
                    "midi": 56,
                    "time": 189.47160849999864,
                    "velocity": 0.2677165354330709,
                    "duration": 0.1030857499999911
                },
                {
                    "name": "A#3",
                    "midi": 58,
                    "time": 189.57469424999863,
                    "velocity": 0.2677165354330709,
                    "duration": 0.1030857499999911
                },
                {
                    "name": "D#3",
                    "midi": 51,
                    "time": 189.67777999999862,
                    "velocity": 0.31496062992125984,
                    "duration": 0.10308575000001952
                },
                {
                    "name": "A#3",
                    "midi": 58,
                    "time": 189.78086574999864,
                    "velocity": 0.25984251968503935,
                    "duration": 0.1030857499999911
                },
                {
                    "name": "G3",
                    "midi": 55,
                    "time": 189.88395149999863,
                    "velocity": 0.2677165354330709,
                    "duration": 0.1030857499999911
                },
                {
                    "name": "A#3",
                    "midi": 58,
                    "time": 189.98703724999862,
                    "velocity": 0.2677165354330709,
                    "duration": 0.1030857499999911
                },
                {
                    "name": "D#4",
                    "midi": 63,
                    "time": 190.0901229999986,
                    "velocity": 0.31496062992125984,
                    "duration": 0.1030857499999911
                },
                {
                    "name": "A#3",
                    "midi": 58,
                    "time": 190.1932087499986,
                    "velocity": 0.2677165354330709,
                    "duration": 0.1030857499999911
                },
                {
                    "name": "G3",
                    "midi": 55,
                    "time": 190.2962944999986,
                    "velocity": 0.2677165354330709,
                    "duration": 0.1030857499999911
                },
                {
                    "name": "A#3",
                    "midi": 58,
                    "time": 190.3993802499986,
                    "velocity": 0.2677165354330709,
                    "duration": 0.1030857499999911
                },
                {
                    "name": "D#3",
                    "midi": 51,
                    "time": 190.50246599999858,
                    "velocity": 0.31496062992125984,
                    "duration": 0.10308575000001952
                },
                {
                    "name": "A#3",
                    "midi": 58,
                    "time": 190.6055517499986,
                    "velocity": 0.2677165354330709,
                    "duration": 0.1030857499999911
                },
                {
                    "name": "G3",
                    "midi": 55,
                    "time": 190.7086374999986,
                    "velocity": 0.2677165354330709,
                    "duration": 0.1030857499999911
                },
                {
                    "name": "A#3",
                    "midi": 58,
                    "time": 190.81172324999858,
                    "velocity": 0.2755905511811024,
                    "duration": 0.1030857499999911
                },
                {
                    "name": "D#4",
                    "midi": 63,
                    "time": 190.91480899999857,
                    "velocity": 0.31496062992125984,
                    "duration": 0.1030857499999911
                },
                {
                    "name": "A#3",
                    "midi": 58,
                    "time": 191.01789474999856,
                    "velocity": 0.2677165354330709,
                    "duration": 0.1030857499999911
                },
                {
                    "name": "G3",
                    "midi": 55,
                    "time": 191.12098049999855,
                    "velocity": 0.2677165354330709,
                    "duration": 0.1030857499999911
                },
                {
                    "name": "A#3",
                    "midi": 58,
                    "time": 191.22406624999854,
                    "velocity": 0.2677165354330709,
                    "duration": 0.1030857499999911
                },
                {
                    "name": "D#3",
                    "midi": 51,
                    "time": 191.32715199999853,
                    "velocity": 0.31496062992125984,
                    "duration": 0.1030857499999911
                },
                {
                    "name": "A#3",
                    "midi": 58,
                    "time": 191.43023774999853,
                    "velocity": 0.25984251968503935,
                    "duration": 0.1030857499999911
                },
                {
                    "name": "G3",
                    "midi": 55,
                    "time": 191.53332349999852,
                    "velocity": 0.2677165354330709,
                    "duration": 0.1030857499999911
                },
                {
                    "name": "A#3",
                    "midi": 58,
                    "time": 191.6364092499985,
                    "velocity": 0.2677165354330709,
                    "duration": 0.1030857499999911
                },
                {
                    "name": "D#4",
                    "midi": 63,
                    "time": 191.7394949999985,
                    "velocity": 0.31496062992125984,
                    "duration": 0.1030857499999911
                },
                {
                    "name": "A#3",
                    "midi": 58,
                    "time": 191.8425807499985,
                    "velocity": 0.2677165354330709,
                    "duration": 0.1030857499999911
                },
                {
                    "name": "G3",
                    "midi": 55,
                    "time": 191.94566649999848,
                    "velocity": 0.2677165354330709,
                    "duration": 0.1030857499999911
                },
                {
                    "name": "A#3",
                    "midi": 58,
                    "time": 192.04875224999847,
                    "velocity": 0.2677165354330709,
                    "duration": 0.1030857499999911
                },
                {
                    "name": "D#3",
                    "midi": 51,
                    "time": 192.15183799999846,
                    "velocity": 0.31496062992125984,
                    "duration": 0.10308575000001952
                },
                {
                    "name": "A#3",
                    "midi": 58,
                    "time": 192.25492374999848,
                    "velocity": 0.2677165354330709,
                    "duration": 0.1030857499999911
                },
                {
                    "name": "G3",
                    "midi": 55,
                    "time": 192.35800949999847,
                    "velocity": 0.2677165354330709,
                    "duration": 0.1030857499999911
                },
                {
                    "name": "A#3",
                    "midi": 58,
                    "time": 192.46109524999846,
                    "velocity": 0.2755905511811024,
                    "duration": 0.1030857499999911
                },
                {
                    "name": "D#4",
                    "midi": 63,
                    "time": 192.56418099999846,
                    "velocity": 0.31496062992125984,
                    "duration": 0.1030857499999911
                },
                {
                    "name": "A#3",
                    "midi": 58,
                    "time": 192.66726674999845,
                    "velocity": 0.2677165354330709,
                    "duration": 0.1030857499999911
                },
                {
                    "name": "G3",
                    "midi": 55,
                    "time": 192.77035249999844,
                    "velocity": 0.2677165354330709,
                    "duration": 0.1030857499999911
                },
                {
                    "name": "A#3",
                    "midi": 58,
                    "time": 192.87343824999843,
                    "velocity": 0.2677165354330709,
                    "duration": 0.1030857499999911
                },
                {
                    "name": "A#2",
                    "midi": 46,
                    "time": 192.97652399999842,
                    "velocity": 0.3464566929133858,
                    "duration": 0.1030857499999911
                },
                {
                    "name": "A#3",
                    "midi": 58,
                    "time": 193.0796097499984,
                    "velocity": 0.28346456692913385,
                    "duration": 0.1030857499999911
                },
                {
                    "name": "G#3",
                    "midi": 56,
                    "time": 193.1826954999984,
                    "velocity": 0.28346456692913385,
                    "duration": 0.1030857499999911
                },
                {
                    "name": "A#3",
                    "midi": 58,
                    "time": 193.2857812499984,
                    "velocity": 0.28346456692913385,
                    "duration": 0.1030857499999911
                },
                {
                    "name": "D4",
                    "midi": 62,
                    "time": 193.38886699999838,
                    "velocity": 0.3464566929133858,
                    "duration": 0.1030857499999911
                },
                {
                    "name": "A#3",
                    "midi": 58,
                    "time": 193.49195274999838,
                    "velocity": 0.28346456692913385,
                    "duration": 0.1030857499999911
                },
                {
                    "name": "G#3",
                    "midi": 56,
                    "time": 193.59503849999837,
                    "velocity": 0.28346456692913385,
                    "duration": 0.1030857499999911
                },
                {
                    "name": "A#3",
                    "midi": 58,
                    "time": 193.69812424999836,
                    "velocity": 0.28346456692913385,
                    "duration": 0.1030857499999911
                },
                {
                    "name": "A#2",
                    "midi": 46,
                    "time": 193.80120999999835,
                    "velocity": 0.3464566929133858,
                    "duration": 0.10308575000001952
                },
                {
                    "name": "A#3",
                    "midi": 58,
                    "time": 193.90429574999837,
                    "velocity": 0.28346456692913385,
                    "duration": 0.1030857499999911
                },
                {
                    "name": "G#3",
                    "midi": 56,
                    "time": 194.00738149999836,
                    "velocity": 0.28346456692913385,
                    "duration": 0.1030857499999911
                },
                {
                    "name": "A#3",
                    "midi": 58,
                    "time": 194.11046724999835,
                    "velocity": 0.29133858267716534,
                    "duration": 0.1030857499999911
                },
                {
                    "name": "D4",
                    "midi": 62,
                    "time": 194.21355299999834,
                    "velocity": 0.3464566929133858,
                    "duration": 0.1030857499999911
                },
                {
                    "name": "A#3",
                    "midi": 58,
                    "time": 194.31663874999833,
                    "velocity": 0.28346456692913385,
                    "duration": 0.1030857499999911
                },
                {
                    "name": "G#3",
                    "midi": 56,
                    "time": 194.41972449999832,
                    "velocity": 0.28346456692913385,
                    "duration": 0.1030857499999911
                },
                {
                    "name": "A#3",
                    "midi": 58,
                    "time": 194.52281024999832,
                    "velocity": 0.28346456692913385,
                    "duration": 0.1030857499999911
                },
                {
                    "name": "A#2",
                    "midi": 46,
                    "time": 194.6258959999983,
                    "velocity": 0.3464566929133858,
                    "duration": 0.1030857499999911
                },
                {
                    "name": "A#3",
                    "midi": 58,
                    "time": 194.7289817499983,
                    "velocity": 0.28346456692913385,
                    "duration": 0.1030857499999911
                },
                {
                    "name": "G#3",
                    "midi": 56,
                    "time": 194.8320674999983,
                    "velocity": 0.28346456692913385,
                    "duration": 0.1030857499999911
                },
                {
                    "name": "A#3",
                    "midi": 58,
                    "time": 194.93515324999828,
                    "velocity": 0.28346456692913385,
                    "duration": 0.1030857499999911
                },
                {
                    "name": "D4",
                    "midi": 62,
                    "time": 195.03823899999827,
                    "velocity": 0.3464566929133858,
                    "duration": 0.1030857499999911
                },
                {
                    "name": "A#3",
                    "midi": 58,
                    "time": 195.14132474999826,
                    "velocity": 0.28346456692913385,
                    "duration": 0.1030857499999911
                },
                {
                    "name": "G#3",
                    "midi": 56,
                    "time": 195.24441049999825,
                    "velocity": 0.28346456692913385,
                    "duration": 0.1030857499999911
                },
                {
                    "name": "A#3",
                    "midi": 58,
                    "time": 195.34749624999824,
                    "velocity": 0.28346456692913385,
                    "duration": 0.1030857499999911
                },
                {
                    "name": "A#2",
                    "midi": 46,
                    "time": 195.45058199999824,
                    "velocity": 0.3464566929133858,
                    "duration": 0.1030857499999911
                },
                {
                    "name": "A#3",
                    "midi": 58,
                    "time": 195.55366774999823,
                    "velocity": 0.28346456692913385,
                    "duration": 0.1030857499999911
                },
                {
                    "name": "G#3",
                    "midi": 56,
                    "time": 195.65675349999822,
                    "velocity": 0.28346456692913385,
                    "duration": 0.1030857499999911
                },
                {
                    "name": "A#3",
                    "midi": 58,
                    "time": 195.7598392499982,
                    "velocity": 0.29133858267716534,
                    "duration": 0.1030857499999911
                },
                {
                    "name": "D4",
                    "midi": 62,
                    "time": 195.8629249999982,
                    "velocity": 0.3464566929133858,
                    "duration": 0.1030857499999911
                },
                {
                    "name": "A#3",
                    "midi": 58,
                    "time": 195.9660107499982,
                    "velocity": 0.28346456692913385,
                    "duration": 0.1030857499999911
                },
                {
                    "name": "G#3",
                    "midi": 56,
                    "time": 196.06909649999818,
                    "velocity": 0.28346456692913385,
                    "duration": 0.1030857499999911
                },
                {
                    "name": "A#3",
                    "midi": 58,
                    "time": 196.17218224999817,
                    "velocity": 0.28346456692913385,
                    "duration": 0.1030857499999911
                },
                {
                    "name": "D#3",
                    "midi": 51,
                    "time": 196.27526799999816,
                    "velocity": 0.3464566929133858,
                    "duration": 0.1030857499999911
                },
                {
                    "name": "A#3",
                    "midi": 58,
                    "time": 196.37835374999815,
                    "velocity": 0.28346456692913385,
                    "duration": 0.1030857499999911
                },
                {
                    "name": "G3",
                    "midi": 55,
                    "time": 196.48143949999815,
                    "velocity": 0.28346456692913385,
                    "duration": 0.1030857499999911
                },
                {
                    "name": "A#3",
                    "midi": 58,
                    "time": 196.58452524999814,
                    "velocity": 0.28346456692913385,
                    "duration": 0.1030857499999911
                },
                {
                    "name": "D#4",
                    "midi": 63,
                    "time": 196.68761099999813,
                    "velocity": 0.3464566929133858,
                    "duration": 0.1030857499999911
                },
                {
                    "name": "A#3",
                    "midi": 58,
                    "time": 196.79069674999812,
                    "velocity": 0.28346456692913385,
                    "duration": 0.1030857499999911
                },
                {
                    "name": "G3",
                    "midi": 55,
                    "time": 196.8937824999981,
                    "velocity": 0.28346456692913385,
                    "duration": 0.1030857499999911
                },
                {
                    "name": "A#3",
                    "midi": 58,
                    "time": 196.9968682499981,
                    "velocity": 0.28346456692913385,
                    "duration": 0.1030857499999911
                },
                {
                    "name": "G2",
                    "midi": 43,
                    "time": 197.0999539999981,
                    "velocity": 0.3464566929133858,
                    "duration": 0.10308575000001952
                },
                {
                    "name": "B3",
                    "midi": 59,
                    "time": 197.2030397499981,
                    "velocity": 0.28346456692913385,
                    "duration": 0.1030857499999911
                },
                {
                    "name": "G3",
                    "midi": 55,
                    "time": 197.3061254999981,
                    "velocity": 0.28346456692913385,
                    "duration": 0.1030857499999911
                },
                {
                    "name": "B3",
                    "midi": 59,
                    "time": 197.4092112499981,
                    "velocity": 0.29133858267716534,
                    "duration": 0.1030857499999911
                },
                {
                    "name": "F4",
                    "midi": 65,
                    "time": 197.51229699999809,
                    "velocity": 0.3464566929133858,
                    "duration": 0.1030857499999911
                },
                {
                    "name": "B3",
                    "midi": 59,
                    "time": 197.61538274999808,
                    "velocity": 0.28346456692913385,
                    "duration": 0.1030857499999911
                },
                {
                    "name": "G3",
                    "midi": 55,
                    "time": 197.71846849999807,
                    "velocity": 0.28346456692913385,
                    "duration": 0.1030857499999911
                },
                {
                    "name": "B3",
                    "midi": 59,
                    "time": 197.82155424999806,
                    "velocity": 0.28346456692913385,
                    "duration": 0.1030857499999911
                },
                {
                    "name": "C3",
                    "midi": 48,
                    "time": 197.92463999999805,
                    "velocity": 0.3464566929133858,
                    "duration": 0.1030857499999911
                },
                {
                    "name": "G3",
                    "midi": 55,
                    "time": 198.02772574999804,
                    "velocity": 0.28346456692913385,
                    "duration": 0.1030857499999911
                },
                {
                    "name": "D#3",
                    "midi": 51,
                    "time": 198.13081149999803,
                    "velocity": 0.28346456692913385,
                    "duration": 0.1030857499999911
                },
                {
                    "name": "G3",
                    "midi": 55,
                    "time": 198.23389724999802,
                    "velocity": 0.28346456692913385,
                    "duration": 0.1030857499999911
                },
                {
                    "name": "C4",
                    "midi": 60,
                    "time": 198.336982999998,
                    "velocity": 0.3464566929133858,
                    "duration": 0.1030857499999911
                },
                {
                    "name": "G3",
                    "midi": 55,
                    "time": 198.440068749998,
                    "velocity": 0.28346456692913385,
                    "duration": 0.1030857499999911
                },
                {
                    "name": "D#3",
                    "midi": 51,
                    "time": 198.543154499998,
                    "velocity": 0.28346456692913385,
                    "duration": 0.1030857499999911
                },
                {
                    "name": "G3",
                    "midi": 55,
                    "time": 198.646240249998,
                    "velocity": 0.28346456692913385,
                    "duration": 0.1030857499999911
                },
                {
                    "name": "D#2",
                    "midi": 39,
                    "time": 198.74932599999798,
                    "velocity": 0.3464566929133858,
                    "duration": 0.10308575000001952
                },
                {
                    "name": "G3",
                    "midi": 55,
                    "time": 198.852411749998,
                    "velocity": 0.28346456692913385,
                    "duration": 0.1030857499999911
                },
                {
                    "name": "D#3",
                    "midi": 51,
                    "time": 198.955497499998,
                    "velocity": 0.28346456692913385,
                    "duration": 0.1030857499999911
                },
                {
                    "name": "G3",
                    "midi": 55,
                    "time": 199.05858324999798,
                    "velocity": 0.29133858267716534,
                    "duration": 0.1030857499999911
                },
                {
                    "name": "C#4",
                    "midi": 61,
                    "time": 199.16166899999797,
                    "velocity": 0.3464566929133858,
                    "duration": 0.1030857499999911
                },
                {
                    "name": "G3",
                    "midi": 55,
                    "time": 199.26475474999796,
                    "velocity": 0.28346456692913385,
                    "duration": 0.1030857499999911
                },
                {
                    "name": "D#3",
                    "midi": 51,
                    "time": 199.36784049999795,
                    "velocity": 0.28346456692913385,
                    "duration": 0.1030857499999911
                },
                {
                    "name": "G3",
                    "midi": 55,
                    "time": 199.47092624999794,
                    "velocity": 0.28346456692913385,
                    "duration": 0.1030857499999911
                },
                {
                    "name": "G#2",
                    "midi": 44,
                    "time": 199.57401199999794,
                    "velocity": 0.3464566929133858,
                    "duration": 0.1030857499999911
                },
                {
                    "name": "D#3",
                    "midi": 51,
                    "time": 199.67709774999793,
                    "velocity": 0.28346456692913385,
                    "duration": 0.1030857499999911
                },
                {
                    "name": "C3",
                    "midi": 48,
                    "time": 199.78018349999792,
                    "velocity": 0.28346456692913385,
                    "duration": 0.1030857499999911
                },
                {
                    "name": "D#3",
                    "midi": 51,
                    "time": 199.8832692499979,
                    "velocity": 0.28346456692913385,
                    "duration": 0.1030857499999911
                },
                {
                    "name": "G#3",
                    "midi": 56,
                    "time": 199.9863549999979,
                    "velocity": 0.33070866141732286,
                    "duration": 0.1030857499999911
                },
                {
                    "name": "D#3",
                    "midi": 51,
                    "time": 200.0894407499979,
                    "velocity": 0.2755905511811024,
                    "duration": 0.1030857499999911
                },
                {
                    "name": "C3",
                    "midi": 48,
                    "time": 200.19252649999788,
                    "velocity": 0.2677165354330709,
                    "duration": 0.1030857499999911
                },
                {
                    "name": "D#3",
                    "midi": 51,
                    "time": 200.29561224999787,
                    "velocity": 0.2677165354330709,
                    "duration": 0.1030857499999911
                },
                {
                    "name": "C#2",
                    "midi": 37,
                    "time": 200.39869799999786,
                    "velocity": 0.31496062992125984,
                    "duration": 0.10308575000001952
                },
                {
                    "name": "F3",
                    "midi": 53,
                    "time": 200.50178374999788,
                    "velocity": 0.25984251968503935,
                    "duration": 0.1030857499999911
                },
                {
                    "name": "C#3",
                    "midi": 49,
                    "time": 200.60486949999787,
                    "velocity": 0.25984251968503935,
                    "duration": 0.1030857499999911
                },
                {
                    "name": "F3",
                    "midi": 53,
                    "time": 200.70795524999787,
                    "velocity": 0.25984251968503935,
                    "duration": 0.1030857499999911
                },
                {
                    "name": "A#3",
                    "midi": 58,
                    "time": 200.81104099999786,
                    "velocity": 0.2992125984251969,
                    "duration": 0.1030857499999911
                },
                {
                    "name": "F3",
                    "midi": 53,
                    "time": 200.91412674999785,
                    "velocity": 0.25196850393700787,
                    "duration": 0.1030857499999911
                },
                {
                    "name": "C#3",
                    "midi": 49,
                    "time": 201.01721249999784,
                    "velocity": 0.2440944881889764,
                    "duration": 0.1030857499999911
                },
                {
                    "name": "F3",
                    "midi": 53,
                    "time": 201.12029824999783,
                    "velocity": 0.2440944881889764,
                    "duration": 0.1030857499999911
                },
                {
                    "name": "D#2",
                    "midi": 39,
                    "time": 201.22338399999782,
                    "velocity": 0.28346456692913385,
                    "duration": 0.1030857499999911
                },
                {
                    "name": "D#3",
                    "midi": 51,
                    "time": 201.3264697499978,
                    "velocity": 0.23622047244094488,
                    "duration": 0.1030857499999911
                },
                {
                    "name": "C3",
                    "midi": 48,
                    "time": 201.4295554999978,
                    "velocity": 0.23622047244094488,
                    "duration": 0.1030857499999911
                },
                {
                    "name": "D#3",
                    "midi": 51,
                    "time": 201.5326412499978,
                    "velocity": 0.23622047244094488,
                    "duration": 0.1030857499999911
                },
                {
                    "name": "G#3",
                    "midi": 56,
                    "time": 201.6357269999978,
                    "velocity": 0.28346456692913385,
                    "duration": 0.1030857499999911
                },
                {
                    "name": "D#3",
                    "midi": 51,
                    "time": 201.73881274999778,
                    "velocity": 0.2283464566929134,
                    "duration": 0.1030857499999911
                },
                {
                    "name": "C3",
                    "midi": 48,
                    "time": 201.84189849999777,
                    "velocity": 0.2204724409448819,
                    "duration": 0.1030857499999911
                },
                {
                    "name": "D#3",
                    "midi": 51,
                    "time": 201.94498424999776,
                    "velocity": 0.2204724409448819,
                    "duration": 0.1030857499999911
                },
                {
                    "name": "D#2",
                    "midi": 39,
                    "time": 202.04806999999775,
                    "velocity": 0.2677165354330709,
                    "duration": 0.10308575000001952
                },
                {
                    "name": "D#3",
                    "midi": 51,
                    "time": 202.15115574999777,
                    "velocity": 0.2125984251968504,
                    "duration": 0.1030857499999911
                },
                {
                    "name": "C#3",
                    "midi": 49,
                    "time": 202.25424149999776,
                    "velocity": 0.2125984251968504,
                    "duration": 0.1030857499999911
                },
                {
                    "name": "D#3",
                    "midi": 51,
                    "time": 202.35732724999775,
                    "velocity": 0.2125984251968504,
                    "duration": 0.1030857499999911
                },
                {
                    "name": "A#3",
                    "midi": 58,
                    "time": 202.46041299999774,
                    "velocity": 0.25196850393700787,
                    "duration": 0.1030857499999911
                },
                {
                    "name": "D#3",
                    "midi": 51,
                    "time": 202.56349874999773,
                    "velocity": 0.2047244094488189,
                    "duration": 0.1030857499999911
                },
                {
                    "name": "C#3",
                    "midi": 49,
                    "time": 202.66658449999773,
                    "velocity": 0.2047244094488189,
                    "duration": 0.1030857499999911
                },
                {
                    "name": "D#3",
                    "midi": 51,
                    "time": 202.76967024999772,
                    "velocity": 0.2047244094488189,
                    "duration": 0.1030857499999911
                },
                {
                    "name": "G#3",
                    "midi": 56,
                    "time": 202.8727559999977,
                    "velocity": 0.2047244094488189,
                    "duration": 0.1030857499999911
                },
                {
                    "name": "D#4",
                    "midi": 63,
                    "time": 202.9758417499977,
                    "velocity": 0.1968503937007874,
                    "duration": 0.1030857499999911
                },
                {
                    "name": "C4",
                    "midi": 60,
                    "time": 203.0789274999977,
                    "velocity": 0.2047244094488189,
                    "duration": 0.1030857499999911
                },
                {
                    "name": "D#4",
                    "midi": 63,
                    "time": 203.18201324999768,
                    "velocity": 0.2047244094488189,
                    "duration": 0.1030857499999911
                },
                {
                    "name": "G#4",
                    "midi": 68,
                    "time": 203.28509899999767,
                    "velocity": 0.2283464566929134,
                    "duration": 0.1030857499999911
                },
                {
                    "name": "D#4",
                    "midi": 63,
                    "time": 203.38818474999766,
                    "velocity": 0.2047244094488189,
                    "duration": 0.1030857499999911
                },
                {
                    "name": "C4",
                    "midi": 60,
                    "time": 203.49127049999765,
                    "velocity": 0.2047244094488189,
                    "duration": 0.1030857499999911
                },
                {
                    "name": "D#4",
                    "midi": 63,
                    "time": 203.59435624999765,
                    "velocity": 0.2047244094488189,
                    "duration": 0.1030857499999911
                },
                {
                    "name": "G#3",
                    "midi": 56,
                    "time": 203.69744199999764,
                    "velocity": 0.2283464566929134,
                    "duration": 0.1030857499999911
                },
                {
                    "name": "D#4",
                    "midi": 63,
                    "time": 203.80052774999763,
                    "velocity": 0.2047244094488189,
                    "duration": 0.1030857499999911
                },
                {
                    "name": "C4",
                    "midi": 60,
                    "time": 203.90361349999762,
                    "velocity": 0.2047244094488189,
                    "duration": 0.1030857499999911
                },
                {
                    "name": "D#4",
                    "midi": 63,
                    "time": 204.0066992499976,
                    "velocity": 0.2047244094488189,
                    "duration": 0.1030857499999911
                },
                {
                    "name": "G4",
                    "midi": 67,
                    "time": 204.1097849999976,
                    "velocity": 0.2283464566929134,
                    "duration": 0.1030857499999911
                },
                {
                    "name": "D#4",
                    "midi": 63,
                    "time": 204.2128707499976,
                    "velocity": 0.2047244094488189,
                    "duration": 0.1030857499999911
                },
                {
                    "name": "G#4",
                    "midi": 68,
                    "time": 204.31595649999758,
                    "velocity": 0.2047244094488189,
                    "duration": 0.1030857499999911
                },
                {
                    "name": "D#4",
                    "midi": 63,
                    "time": 204.41904224999757,
                    "velocity": 0.2047244094488189,
                    "duration": 0.1030857499999911
                },
                {
                    "name": "G#3",
                    "midi": 56,
                    "time": 204.52212799999756,
                    "velocity": 0.2283464566929134,
                    "duration": 0.1030857499999911
                },
                {
                    "name": "D#4",
                    "midi": 63,
                    "time": 204.62521374999756,
                    "velocity": 0.1968503937007874,
                    "duration": 0.1030857499999911
                },
                {
                    "name": "C4",
                    "midi": 60,
                    "time": 204.72829949999755,
                    "velocity": 0.2047244094488189,
                    "duration": 0.1030857499999911
                },
                {
                    "name": "D#4",
                    "midi": 63,
                    "time": 204.83138524999754,
                    "velocity": 0.2047244094488189,
                    "duration": 0.1030857499999911
                },
                {
                    "name": "G#4",
                    "midi": 68,
                    "time": 204.93447099999753,
                    "velocity": 0.2283464566929134,
                    "duration": 0.1030857499999911
                },
                {
                    "name": "D#4",
                    "midi": 63,
                    "time": 205.03755674999752,
                    "velocity": 0.2047244094488189,
                    "duration": 0.1030857499999911
                },
                {
                    "name": "C4",
                    "midi": 60,
                    "time": 205.1406424999975,
                    "velocity": 0.2047244094488189,
                    "duration": 0.1030857499999911
                },
                {
                    "name": "D#4",
                    "midi": 63,
                    "time": 205.2437282499975,
                    "velocity": 0.2047244094488189,
                    "duration": 0.1030857499999911
                },
                {
                    "name": "G#3",
                    "midi": 56,
                    "time": 205.3468139999975,
                    "velocity": 0.2283464566929134,
                    "duration": 0.1030857499999911
                },
                {
                    "name": "D#4",
                    "midi": 63,
                    "time": 205.44989974999748,
                    "velocity": 0.2047244094488189,
                    "duration": 0.1030857499999911
                },
                {
                    "name": "C4",
                    "midi": 60,
                    "time": 205.55298549999748,
                    "velocity": 0.2047244094488189,
                    "duration": 0.1030857499999911
                },
                {
                    "name": "D#4",
                    "midi": 63,
                    "time": 205.65607124999747,
                    "velocity": 0.2047244094488189,
                    "duration": 0.1030857499999911
                },
                {
                    "name": "G4",
                    "midi": 67,
                    "time": 205.75915699999746,
                    "velocity": 0.2283464566929134,
                    "duration": 0.1030857499999911
                },
                {
                    "name": "D#4",
                    "midi": 63,
                    "time": 205.86224274999745,
                    "velocity": 0.2047244094488189,
                    "duration": 0.1030857499999911
                },
                {
                    "name": "G#4",
                    "midi": 68,
                    "time": 205.96532849999744,
                    "velocity": 0.2047244094488189,
                    "duration": 0.1030857499999911
                },
                {
                    "name": "D#4",
                    "midi": 63,
                    "time": 206.06841424999743,
                    "velocity": 0.2047244094488189,
                    "duration": 0.1030857499999911
                },
                {
                    "name": "D#3",
                    "midi": 51,
                    "time": 206.17149999999742,
                    "velocity": 0.2440944881889764,
                    "duration": 0.1030857499999911
                },
                {
                    "name": "D#4",
                    "midi": 63,
                    "time": 206.2745857499974,
                    "velocity": 0.2047244094488189,
                    "duration": 0.1030857499999911
                },
                {
                    "name": "C#4",
                    "midi": 61,
                    "time": 206.3776714999974,
                    "velocity": 0.2125984251968504,
                    "duration": 0.1030857499999911
                },
                {
                    "name": "D#4",
                    "midi": 63,
                    "time": 206.4807572499974,
                    "velocity": 0.2125984251968504,
                    "duration": 0.1030857499999911
                },
                {
                    "name": "G4",
                    "midi": 67,
                    "time": 206.5838429999974,
                    "velocity": 0.2440944881889764,
                    "duration": 0.1030857499999911
                },
                {
                    "name": "D#4",
                    "midi": 63,
                    "time": 206.68692874999738,
                    "velocity": 0.2125984251968504,
                    "duration": 0.1030857499999911
                },
                {
                    "name": "C#4",
                    "midi": 61,
                    "time": 206.79001449999737,
                    "velocity": 0.2125984251968504,
                    "duration": 0.1030857499999911
                },
                {
                    "name": "D#4",
                    "midi": 63,
                    "time": 206.89310024999736,
                    "velocity": 0.2125984251968504,
                    "duration": 0.1030857499999911
                },
                {
                    "name": "D#3",
                    "midi": 51,
                    "time": 206.99618599999735,
                    "velocity": 0.2440944881889764,
                    "duration": 0.1030857499999911
                },
                {
                    "name": "D#4",
                    "midi": 63,
                    "time": 207.09927174999734,
                    "velocity": 0.2125984251968504,
                    "duration": 0.1030857499999911
                },
                {
                    "name": "F4",
                    "midi": 65,
                    "time": 207.20235749999733,
                    "velocity": 0.2125984251968504,
                    "duration": 0.1030857499999911
                },
                {
                    "name": "D#4",
                    "midi": 63,
                    "time": 207.30544324999732,
                    "velocity": 0.2125984251968504,
                    "duration": 0.1030857499999911
                },
                {
                    "name": "D4",
                    "midi": 62,
                    "time": 207.40852899999732,
                    "velocity": 0.2440944881889764,
                    "duration": 0.1030857499999911
                },
                {
                    "name": "D#4",
                    "midi": 63,
                    "time": 207.5116147499973,
                    "velocity": 0.2125984251968504,
                    "duration": 0.1030857499999911
                },
                {
                    "name": "C#4",
                    "midi": 61,
                    "time": 207.6147004999973,
                    "velocity": 0.2125984251968504,
                    "duration": 0.1030857499999911
                },
                {
                    "name": "D#4",
                    "midi": 63,
                    "time": 207.7177862499973,
                    "velocity": 0.2125984251968504,
                    "duration": 0.1030857499999911
                },
                {
                    "name": "D#3",
                    "midi": 51,
                    "time": 207.82087199999728,
                    "velocity": 0.2440944881889764,
                    "duration": 0.1030857499999911
                },
                {
                    "name": "D#4",
                    "midi": 63,
                    "time": 207.92395774999727,
                    "velocity": 0.2047244094488189,
                    "duration": 0.1030857499999911
                },
                {
                    "name": "C#4",
                    "midi": 61,
                    "time": 208.02704349999726,
                    "velocity": 0.2125984251968504,
                    "duration": 0.1030857499999911
                },
                {
                    "name": "D#4",
                    "midi": 63,
                    "time": 208.13012924999725,
                    "velocity": 0.2125984251968504,
                    "duration": 0.1030857499999911
                },
                {
                    "name": "G4",
                    "midi": 67,
                    "time": 208.23321499999724,
                    "velocity": 0.2440944881889764,
                    "duration": 0.1030857499999911
                },
                {
                    "name": "D#4",
                    "midi": 63,
                    "time": 208.33630074999724,
                    "velocity": 0.2125984251968504,
                    "duration": 0.1030857499999911
                },
                {
                    "name": "C#4",
                    "midi": 61,
                    "time": 208.43938649999723,
                    "velocity": 0.2125984251968504,
                    "duration": 0.1030857499999911
                },
                {
                    "name": "D#4",
                    "midi": 63,
                    "time": 208.54247224999722,
                    "velocity": 0.2125984251968504,
                    "duration": 0.1030857499999911
                },
                {
                    "name": "D#3",
                    "midi": 51,
                    "time": 208.6455579999972,
                    "velocity": 0.2440944881889764,
                    "duration": 0.1030857499999911
                },
                {
                    "name": "D#4",
                    "midi": 63,
                    "time": 208.7486437499972,
                    "velocity": 0.2125984251968504,
                    "duration": 0.1030857499999911
                },
                {
                    "name": "F4",
                    "midi": 65,
                    "time": 208.8517294999972,
                    "velocity": 0.2125984251968504,
                    "duration": 0.1030857499999911
                },
                {
                    "name": "D#4",
                    "midi": 63,
                    "time": 208.95481524999718,
                    "velocity": 0.2125984251968504,
                    "duration": 0.1030857499999911
                },
                {
                    "name": "D4",
                    "midi": 62,
                    "time": 209.05790099999717,
                    "velocity": 0.2440944881889764,
                    "duration": 0.1030857499999911
                },
                {
                    "name": "D#4",
                    "midi": 63,
                    "time": 209.16098674999716,
                    "velocity": 0.2125984251968504,
                    "duration": 0.1030857499999911
                },
                {
                    "name": "C#4",
                    "midi": 61,
                    "time": 209.26407249999716,
                    "velocity": 0.2125984251968504,
                    "duration": 0.1030857499999911
                },
                {
                    "name": "D#4",
                    "midi": 63,
                    "time": 209.36715824999715,
                    "velocity": 0.2125984251968504,
                    "duration": 0.1030857499999911
                },
                {
                    "name": "G#3",
                    "midi": 56,
                    "time": 209.47024399999714,
                    "velocity": 0.36220472440944884,
                    "duration": 0.10308575000001952
                },
                {
                    "name": "D#4",
                    "midi": 63,
                    "time": 209.57332974999716,
                    "velocity": 0.2992125984251969,
                    "duration": 0.1030857499999911
                },
                {
                    "name": "C4",
                    "midi": 60,
                    "time": 209.67641549999715,
                    "velocity": 0.2992125984251969,
                    "duration": 0.1030857499999911
                },
                {
                    "name": "D#4",
                    "midi": 63,
                    "time": 209.77950124999714,
                    "velocity": 0.2992125984251969,
                    "duration": 0.1030857499999911
                },
                {
                    "name": "G#4",
                    "midi": 68,
                    "time": 209.88258699999713,
                    "velocity": 0.36220472440944884,
                    "duration": 0.1030857499999911
                },
                {
                    "name": "D#4",
                    "midi": 63,
                    "time": 209.98567274999712,
                    "velocity": 0.2992125984251969,
                    "duration": 0.1030857499999911
                },
                {
                    "name": "C4",
                    "midi": 60,
                    "time": 210.0887584999971,
                    "velocity": 0.2992125984251969,
                    "duration": 0.1030857499999911
                },
                {
                    "name": "D#4",
                    "midi": 63,
                    "time": 210.1918442499971,
                    "velocity": 0.2992125984251969,
                    "duration": 0.1030857499999911
                },
                {
                    "name": "C3",
                    "midi": 48,
                    "time": 210.2949299999971,
                    "velocity": 0.36220472440944884,
                    "duration": 0.10308575000001952
                },
                {
                    "name": "C4",
                    "midi": 60,
                    "time": 210.3980157499971,
                    "velocity": 0.2992125984251969,
                    "duration": 0.1030857499999911
                },
                {
                    "name": "G3",
                    "midi": 55,
                    "time": 210.5011014999971,
                    "velocity": 0.2992125984251969,
                    "duration": 0.1030857499999911
                },
                {
                    "name": "C4",
                    "midi": 60,
                    "time": 210.6041872499971,
                    "velocity": 0.30708661417322836,
                    "duration": 0.1030857499999911
                },
                {
                    "name": "E4",
                    "midi": 64,
                    "time": 210.7072729999971,
                    "velocity": 0.36220472440944884,
                    "duration": 0.1030857499999911
                },
                {
                    "name": "C4",
                    "midi": 60,
                    "time": 210.81035874999708,
                    "velocity": 0.2992125984251969,
                    "duration": 0.1030857499999911
                },
                {
                    "name": "G3",
                    "midi": 55,
                    "time": 210.91344449999707,
                    "velocity": 0.2992125984251969,
                    "duration": 0.1030857499999911
                },
                {
                    "name": "C4",
                    "midi": 60,
                    "time": 211.01653024999706,
                    "velocity": 0.2992125984251969,
                    "duration": 0.1030857499999911
                },
                {
                    "name": "F3",
                    "midi": 53,
                    "time": 211.11961599999705,
                    "velocity": 0.36220472440944884,
                    "duration": 0.1030857499999911
                },
                {
                    "name": "C4",
                    "midi": 60,
                    "time": 211.22270174999704,
                    "velocity": 0.2992125984251969,
                    "duration": 0.1030857499999911
                },
                {
                    "name": "G#3",
                    "midi": 56,
                    "time": 211.32578749999703,
                    "velocity": 0.2992125984251969,
                    "duration": 0.1030857499999911
                },
                {
                    "name": "C4",
                    "midi": 60,
                    "time": 211.42887324999703,
                    "velocity": 0.2992125984251969,
                    "duration": 0.1030857499999911
                },
                {
                    "name": "F4",
                    "midi": 65,
                    "time": 211.53195899999702,
                    "velocity": 0.36220472440944884,
                    "duration": 0.1030857499999911
                },
                {
                    "name": "C4",
                    "midi": 60,
                    "time": 211.635044749997,
                    "velocity": 0.2992125984251969,
                    "duration": 0.1030857499999911
                },
                {
                    "name": "G#3",
                    "midi": 56,
                    "time": 211.738130499997,
                    "velocity": 0.2992125984251969,
                    "duration": 0.1030857499999911
                },
                {
                    "name": "C4",
                    "midi": 60,
                    "time": 211.841216249997,
                    "velocity": 0.2992125984251969,
                    "duration": 0.1030857499999911
                },
                {
                    "name": "G#2",
                    "midi": 44,
                    "time": 211.94430199999698,
                    "velocity": 0.36220472440944884,
                    "duration": 0.10308575000001952
                },
                {
                    "name": "G#3",
                    "midi": 56,
                    "time": 212.047387749997,
                    "velocity": 0.2992125984251969,
                    "duration": 0.1030857499999911
                },
                {
                    "name": "D#3",
                    "midi": 51,
                    "time": 212.150473499997,
                    "velocity": 0.2992125984251969,
                    "duration": 0.1030857499999911
                },
                {
                    "name": "G#3",
                    "midi": 56,
                    "time": 212.25355924999698,
                    "velocity": 0.30708661417322836,
                    "duration": 0.1030857499999911
                },
                {
                    "name": "C4",
                    "midi": 60,
                    "time": 212.35664499999697,
                    "velocity": 0.36220472440944884,
                    "duration": 0.1030857499999911
                },
                {
                    "name": "G#3",
                    "midi": 56,
                    "time": 212.45973074999696,
                    "velocity": 0.2992125984251969,
                    "duration": 0.1030857499999911
                },
                {
                    "name": "D#3",
                    "midi": 51,
                    "time": 212.56281649999696,
                    "velocity": 0.2992125984251969,
                    "duration": 0.1030857499999911
                },
                {
                    "name": "G#3",
                    "midi": 56,
                    "time": 212.66590224999695,
                    "velocity": 0.2992125984251969,
                    "duration": 0.1030857499999911
                },
                {
                    "name": "C#3",
                    "midi": 49,
                    "time": 212.76898799999694,
                    "velocity": 0.3858267716535433,
                    "duration": 0.10308575000001952
                },
                {
                    "name": "G#3",
                    "midi": 56,
                    "time": 212.87207374999696,
                    "velocity": 0.31496062992125984,
                    "duration": 0.1030857499999911
                },
                {
                    "name": "F3",
                    "midi": 53,
                    "time": 212.97515949999695,
                    "velocity": 0.31496062992125984,
                    "duration": 0.1030857499999911
                },
                {
                    "name": "G#3",
                    "midi": 56,
                    "time": 213.07824524999694,
                    "velocity": 0.31496062992125984,
                    "duration": 0.1030857499999911
                },
                {
                    "name": "C#4",
                    "midi": 61,
                    "time": 213.18133099999693,
                    "velocity": 0.3700787401574803,
                    "duration": 0.1030857499999911
                },
                {
                    "name": "G#3",
                    "midi": 56,
                    "time": 213.28441674999692,
                    "velocity": 0.30708661417322836,
                    "duration": 0.1030857499999911
                },
                {
                    "name": "F3",
                    "midi": 53,
                    "time": 213.3875024999969,
                    "velocity": 0.2992125984251969,
                    "duration": 0.1030857499999911
                },
                {
                    "name": "G#3",
                    "midi": 56,
                    "time": 213.4905882499969,
                    "velocity": 0.2992125984251969,
                    "duration": 0.1030857499999911
                },
                {
                    "name": "F#2",
                    "midi": 42,
                    "time": 213.5936739999969,
                    "velocity": 0.3543307086614173,
                    "duration": 0.10308575000001952
                },
                {
                    "name": "A#3",
                    "midi": 58,
                    "time": 213.69675974999691,
                    "velocity": 0.29133858267716534,
                    "duration": 0.1030857499999911
                },
                {
                    "name": "F#3",
                    "midi": 54,
                    "time": 213.7998454999969,
                    "velocity": 0.29133858267716534,
                    "duration": 0.1030857499999911
                },
                {
                    "name": "A#3",
                    "midi": 58,
                    "time": 213.9029312499969,
                    "velocity": 0.29133858267716534,
                    "duration": 0.1030857499999911
                },
                {
                    "name": "D#4",
                    "midi": 63,
                    "time": 214.0060169999969,
                    "velocity": 0.33858267716535434,
                    "duration": 0.1030857499999911
                },
                {
                    "name": "A#3",
                    "midi": 58,
                    "time": 214.10910274999688,
                    "velocity": 0.28346456692913385,
                    "duration": 0.1030857499999911
                },
                {
                    "name": "F#3",
                    "midi": 54,
                    "time": 214.21218849999687,
                    "velocity": 0.2755905511811024,
                    "duration": 0.1030857499999911
                },
                {
                    "name": "A#3",
                    "midi": 58,
                    "time": 214.31527424999686,
                    "velocity": 0.2755905511811024,
                    "duration": 0.1030857499999911
                },
                {
                    "name": "G#2",
                    "midi": 44,
                    "time": 214.41835999999685,
                    "velocity": 0.3228346456692913,
                    "duration": 0.1030857499999911
                },
                {
                    "name": "G#3",
                    "midi": 56,
                    "time": 214.52144574999684,
                    "velocity": 0.2677165354330709,
                    "duration": 0.1030857499999911
                },
                {
                    "name": "F3",
                    "midi": 53,
                    "time": 214.62453149999683,
                    "velocity": 0.2677165354330709,
                    "duration": 0.1030857499999911
                },
                {
                    "name": "G#3",
                    "midi": 56,
                    "time": 214.72761724999683,
                    "velocity": 0.2677165354330709,
                    "duration": 0.1030857499999911
                },
                {
                    "name": "C#4",
                    "midi": 61,
                    "time": 214.83070299999682,
                    "velocity": 0.31496062992125984,
                    "duration": 0.1030857499999911
                },
                {
                    "name": "G#3",
                    "midi": 56,
                    "time": 214.9337887499968,
                    "velocity": 0.25984251968503935,
                    "duration": 0.1030857499999911
                },
                {
                    "name": "F3",
                    "midi": 53,
                    "time": 215.0368744999968,
                    "velocity": 0.25196850393700787,
                    "duration": 0.1030857499999911
                },
                {
                    "name": "G#3",
                    "midi": 56,
                    "time": 215.1399602499968,
                    "velocity": 0.25196850393700787,
                    "duration": 0.1030857499999911
                },
                {
                    "name": "G#2",
                    "midi": 44,
                    "time": 215.24304599999678,
                    "velocity": 0.2992125984251969,
                    "duration": 0.10308575000001952
                },
                {
                    "name": "G#3",
                    "midi": 56,
                    "time": 215.3461317499968,
                    "velocity": 0.2440944881889764,
                    "duration": 0.1030857499999911
                },
                {
                    "name": "F#3",
                    "midi": 54,
                    "time": 215.4492174999968,
                    "velocity": 0.2440944881889764,
                    "duration": 0.1030857499999911
                },
                {
                    "name": "G#3",
                    "midi": 56,
                    "time": 215.55230324999678,
                    "velocity": 0.2440944881889764,
                    "duration": 0.1030857499999911
                },
                {
                    "name": "D#4",
                    "midi": 63,
                    "time": 215.65538899999677,
                    "velocity": 0.28346456692913385,
                    "duration": 0.1030857499999911
                },
                {
                    "name": "G#3",
                    "midi": 56,
                    "time": 215.75847474999676,
                    "velocity": 0.2283464566929134,
                    "duration": 0.1030857499999911
                },
                {
                    "name": "F#3",
                    "midi": 54,
                    "time": 215.86156049999676,
                    "velocity": 0.2283464566929134,
                    "duration": 0.1030857499999911
                },
                {
                    "name": "G#3",
                    "midi": 56,
                    "time": 215.96464624999675,
                    "velocity": 0.2283464566929134,
                    "duration": 0.1030857499999911
                },
                {
                    "name": "F3",
                    "midi": 53,
                    "time": 216.06773199999674,
                    "velocity": 0.44881889763779526,
                    "duration": 0.4080477604166788
                },
                {
                    "name": "C#3",
                    "midi": 49,
                    "time": 216.06773199999674,
                    "velocity": 0.44881889763779526,
                    "duration": 0.4080477604166788
                },
                {
                    "name": "G#3",
                    "midi": 56,
                    "time": 216.06773199999674,
                    "velocity": 0.44881889763779526,
                    "duration": 0.4080477604166788
                },
                {
                    "name": "C#4",
                    "midi": 61,
                    "time": 216.06773199999674,
                    "velocity": 0.5275590551181102,
                    "duration": 0.4080477604166788
                },
                {
                    "name": "F3",
                    "midi": 53,
                    "time": 216.48007499999676,
                    "velocity": 0.4015748031496063,
                    "duration": 0.1030857499999911
                },
                {
                    "name": "C#3",
                    "midi": 49,
                    "time": 216.48007499999676,
                    "velocity": 0.4015748031496063,
                    "duration": 0.1030857499999911
                },
                {
                    "name": "G#3",
                    "midi": 56,
                    "time": 216.48007499999676,
                    "velocity": 0.4015748031496063,
                    "duration": 0.1030857499999911
                },
                {
                    "name": "C#4",
                    "midi": 61,
                    "time": 216.48007499999676,
                    "velocity": 0.48031496062992124,
                    "duration": 0.1030857499999911
                },
                {
                    "name": "F3",
                    "midi": 53,
                    "time": 216.68624649999674,
                    "velocity": 0.4015748031496063,
                    "duration": 0.1030857499999911
                },
                {
                    "name": "C#3",
                    "midi": 49,
                    "time": 216.68624649999674,
                    "velocity": 0.4015748031496063,
                    "duration": 0.1030857499999911
                },
                {
                    "name": "G#3",
                    "midi": 56,
                    "time": 216.68624649999674,
                    "velocity": 0.4015748031496063,
                    "duration": 0.1030857499999911
                },
                {
                    "name": "C#4",
                    "midi": 61,
                    "time": 216.68624649999674,
                    "velocity": 0.48031496062992124,
                    "duration": 0.1030857499999911
                },
                {
                    "name": "F3",
                    "midi": 53,
                    "time": 216.89241799999672,
                    "velocity": 0.4566929133858268,
                    "duration": 0.4080477604166788
                },
                {
                    "name": "C#3",
                    "midi": 49,
                    "time": 216.89241799999672,
                    "velocity": 0.4566929133858268,
                    "duration": 0.4080477604166788
                },
                {
                    "name": "G#3",
                    "midi": 56,
                    "time": 216.89241799999672,
                    "velocity": 0.4566929133858268,
                    "duration": 0.4080477604166788
                },
                {
                    "name": "C#4",
                    "midi": 61,
                    "time": 216.89241799999672,
                    "velocity": 0.5433070866141733,
                    "duration": 0.4080477604166788
                },
                {
                    "name": "C#3",
                    "midi": 49,
                    "time": 217.30476099999674,
                    "velocity": 0.4094488188976378,
                    "duration": 0.1030857499999911
                },
                {
                    "name": "G#3",
                    "midi": 56,
                    "time": 217.30476099999674,
                    "velocity": 0.4094488188976378,
                    "duration": 0.1030857499999911
                },
                {
                    "name": "C#4",
                    "midi": 61,
                    "time": 217.30476099999674,
                    "velocity": 0.49606299212598426,
                    "duration": 0.1030857499999911
                },
                {
                    "name": "F3",
                    "midi": 53,
                    "time": 217.30991528749675,
                    "velocity": 0.4094488188976378,
                    "duration": 0.1030857499999911
                },
                {
                    "name": "F3",
                    "midi": 53,
                    "time": 217.51093249999673,
                    "velocity": 0.4094488188976378,
                    "duration": 0.1030857499999911
                },
                {
                    "name": "C#3",
                    "midi": 49,
                    "time": 217.51093249999673,
                    "velocity": 0.4094488188976378,
                    "duration": 0.1030857499999911
                },
                {
                    "name": "G#3",
                    "midi": 56,
                    "time": 217.51093249999673,
                    "velocity": 0.4094488188976378,
                    "duration": 0.1030857499999911
                },
                {
                    "name": "C#4",
                    "midi": 61,
                    "time": 217.51093249999673,
                    "velocity": 0.49606299212598426,
                    "duration": 0.1030857499999911
                },
                {
                    "name": "F3",
                    "midi": 53,
                    "time": 217.7171039999967,
                    "velocity": 0.4566929133858268,
                    "duration": 0.15462862499998664
                },
                {
                    "name": "C#3",
                    "midi": 49,
                    "time": 217.7171039999967,
                    "velocity": 0.4566929133858268,
                    "duration": 0.15462862499998664
                },
                {
                    "name": "G#3",
                    "midi": 56,
                    "time": 217.7171039999967,
                    "velocity": 0.4566929133858268,
                    "duration": 0.15462862499998664
                },
                {
                    "name": "C#4",
                    "midi": 61,
                    "time": 217.7171039999967,
                    "velocity": 0.5433070866141733,
                    "duration": 0.15462862499998664
                },
                {
                    "name": "C#4",
                    "midi": 61,
                    "time": 217.9232754999967,
                    "velocity": 0.4094488188976378,
                    "duration": 0.1030857499999911
                },
                {
                    "name": "G#3",
                    "midi": 56,
                    "time": 218.02636124999668,
                    "velocity": 0.4251968503937008,
                    "duration": 0.1030857499999911
                },
                {
                    "name": "F3",
                    "midi": 53,
                    "time": 218.12944699999667,
                    "velocity": 0.4409448818897638,
                    "duration": 0.1030857499999911
                },
                {
                    "name": "C#3",
                    "midi": 49,
                    "time": 218.23253274999666,
                    "velocity": 0.4566929133858268,
                    "duration": 0.1030857499999911
                },
                {
                    "name": "G#2",
                    "midi": 44,
                    "time": 218.33561849999666,
                    "velocity": 0.4645669291338583,
                    "duration": 0.1030857499999911
                },
                {
                    "name": "F2",
                    "midi": 41,
                    "time": 218.43870424999665,
                    "velocity": 0.48031496062992124,
                    "duration": 0.1030857499999911
                },
                {
                    "name": "C#2",
                    "midi": 37,
                    "time": 218.54178999999664,
                    "velocity": 0.4881889763779528,
                    "duration": 0.1030857499999911
                },
                {
                    "name": "G#1",
                    "midi": 32,
                    "time": 218.64487574999663,
                    "velocity": 0.48031496062992124,
                    "duration": 0.1030857499999911
                },
                {
                    "name": "C#2",
                    "midi": 37,
                    "time": 218.74796149999662,
                    "velocity": 0.47244094488188976,
                    "duration": 0.1030857499999911
                },
                {
                    "name": "F2",
                    "midi": 41,
                    "time": 218.8510472499966,
                    "velocity": 0.4645669291338583,
                    "duration": 0.1030857499999911
                },
                {
                    "name": "G#2",
                    "midi": 44,
                    "time": 218.9541329999966,
                    "velocity": 0.4566929133858268,
                    "duration": 0.1030857499999911
                },
                {
                    "name": "C#3",
                    "midi": 49,
                    "time": 219.0572187499966,
                    "velocity": 0.44881889763779526,
                    "duration": 0.1030857499999911
                },
                {
                    "name": "F3",
                    "midi": 53,
                    "time": 219.16030449999658,
                    "velocity": 0.44881889763779526,
                    "duration": 0.1030857499999911
                },
                {
                    "name": "G#3",
                    "midi": 56,
                    "time": 219.26339024999658,
                    "velocity": 0.4409448818897638,
                    "duration": 0.1030857499999911
                },
                {
                    "name": "F3",
                    "midi": 53,
                    "time": 219.36647599999657,
                    "velocity": 0.44881889763779526,
                    "duration": 0.4080477604166788
                },
                {
                    "name": "C#3",
                    "midi": 49,
                    "time": 219.36647599999657,
                    "velocity": 0.44881889763779526,
                    "duration": 0.4080477604166788
                },
                {
                    "name": "A#2",
                    "midi": 46,
                    "time": 219.36647599999657,
                    "velocity": 0.44881889763779526,
                    "duration": 0.4080477604166788
                },
                {
                    "name": "A#3",
                    "midi": 58,
                    "time": 219.36647599999657,
                    "velocity": 0.5275590551181102,
                    "duration": 0.4080477604166788
                },
                {
                    "name": "F3",
                    "midi": 53,
                    "time": 219.7788189999966,
                    "velocity": 0.4015748031496063,
                    "duration": 0.1030857499999911
                },
                {
                    "name": "C#3",
                    "midi": 49,
                    "time": 219.7788189999966,
                    "velocity": 0.4015748031496063,
                    "duration": 0.1030857499999911
                },
                {
                    "name": "A#2",
                    "midi": 46,
                    "time": 219.7788189999966,
                    "velocity": 0.4015748031496063,
                    "duration": 0.1030857499999911
                },
                {
                    "name": "A#3",
                    "midi": 58,
                    "time": 219.7788189999966,
                    "velocity": 0.48031496062992124,
                    "duration": 0.1030857499999911
                },
                {
                    "name": "F3",
                    "midi": 53,
                    "time": 219.98499049999657,
                    "velocity": 0.4015748031496063,
                    "duration": 0.1030857499999911
                },
                {
                    "name": "C#3",
                    "midi": 49,
                    "time": 219.98499049999657,
                    "velocity": 0.4015748031496063,
                    "duration": 0.1030857499999911
                },
                {
                    "name": "A#2",
                    "midi": 46,
                    "time": 219.98499049999657,
                    "velocity": 0.4015748031496063,
                    "duration": 0.1030857499999911
                },
                {
                    "name": "A#3",
                    "midi": 58,
                    "time": 219.98499049999657,
                    "velocity": 0.48031496062992124,
                    "duration": 0.1030857499999911
                },
                {
                    "name": "F3",
                    "midi": 53,
                    "time": 220.19116199999655,
                    "velocity": 0.4566929133858268,
                    "duration": 0.4080477604166788
                },
                {
                    "name": "C#3",
                    "midi": 49,
                    "time": 220.19116199999655,
                    "velocity": 0.4566929133858268,
                    "duration": 0.4080477604166788
                },
                {
                    "name": "A#2",
                    "midi": 46,
                    "time": 220.19116199999655,
                    "velocity": 0.4566929133858268,
                    "duration": 0.4080477604166788
                },
                {
                    "name": "A#3",
                    "midi": 58,
                    "time": 220.19116199999655,
                    "velocity": 0.5433070866141733,
                    "duration": 0.4080477604166788
                },
                {
                    "name": "C#3",
                    "midi": 49,
                    "time": 220.60350499999657,
                    "velocity": 0.4094488188976378,
                    "duration": 0.1030857499999911
                },
                {
                    "name": "A#2",
                    "midi": 46,
                    "time": 220.60350499999657,
                    "velocity": 0.4094488188976378,
                    "duration": 0.1030857499999911
                },
                {
                    "name": "A#3",
                    "midi": 58,
                    "time": 220.60350499999657,
                    "velocity": 0.49606299212598426,
                    "duration": 0.1030857499999911
                },
                {
                    "name": "F3",
                    "midi": 53,
                    "time": 220.60865928749658,
                    "velocity": 0.4094488188976378,
                    "duration": 0.1030857499999911
                },
                {
                    "name": "F3",
                    "midi": 53,
                    "time": 220.80967649999656,
                    "velocity": 0.4094488188976378,
                    "duration": 0.1030857499999911
                },
                {
                    "name": "C#3",
                    "midi": 49,
                    "time": 220.80967649999656,
                    "velocity": 0.4094488188976378,
                    "duration": 0.1030857499999911
                },
                {
                    "name": "A#2",
                    "midi": 46,
                    "time": 220.80967649999656,
                    "velocity": 0.4094488188976378,
                    "duration": 0.1030857499999911
                },
                {
                    "name": "A#3",
                    "midi": 58,
                    "time": 220.80967649999656,
                    "velocity": 0.49606299212598426,
                    "duration": 0.1030857499999911
                },
                {
                    "name": "F3",
                    "midi": 53,
                    "time": 221.01584799999654,
                    "velocity": 0.4566929133858268,
                    "duration": 0.15462862499998664
                },
                {
                    "name": "C#3",
                    "midi": 49,
                    "time": 221.01584799999654,
                    "velocity": 0.4566929133858268,
                    "duration": 0.15462862499998664
                },
                {
                    "name": "A#2",
                    "midi": 46,
                    "time": 221.01584799999654,
                    "velocity": 0.4566929133858268,
                    "duration": 0.15462862499998664
                },
                {
                    "name": "A#3",
                    "midi": 58,
                    "time": 221.01584799999654,
                    "velocity": 0.5433070866141733,
                    "duration": 0.15462862499998664
                },
                {
                    "name": "C#4",
                    "midi": 61,
                    "time": 221.22201949999652,
                    "velocity": 0.41732283464566927,
                    "duration": 0.1030857499999911
                },
                {
                    "name": "A#3",
                    "midi": 58,
                    "time": 221.3251052499965,
                    "velocity": 0.4330708661417323,
                    "duration": 0.1030857499999911
                },
                {
                    "name": "F3",
                    "midi": 53,
                    "time": 221.4281909999965,
                    "velocity": 0.44881889763779526,
                    "duration": 0.1030857499999911
                },
                {
                    "name": "C#3",
                    "midi": 49,
                    "time": 221.5312767499965,
                    "velocity": 0.4566929133858268,
                    "duration": 0.1030857499999911
                },
                {
                    "name": "A#2",
                    "midi": 46,
                    "time": 221.63436249999648,
                    "velocity": 0.47244094488188976,
                    "duration": 0.1030857499999911
                },
                {
                    "name": "F2",
                    "midi": 41,
                    "time": 221.73744824999648,
                    "velocity": 0.4881889763779528,
                    "duration": 0.1030857499999911
                },
                {
                    "name": "C#2",
                    "midi": 37,
                    "time": 221.84053399999647,
                    "velocity": 0.5039370078740157,
                    "duration": 0.1030857499999911
                },
                {
                    "name": "A#1",
                    "midi": 34,
                    "time": 221.94361974999646,
                    "velocity": 0.5039370078740157,
                    "duration": 0.1030857499999911
                },
                {
                    "name": "C#2",
                    "midi": 37,
                    "time": 222.04670549999645,
                    "velocity": 0.49606299212598426,
                    "duration": 0.1030857499999911
                },
                {
                    "name": "F2",
                    "midi": 41,
                    "time": 222.14979124999644,
                    "velocity": 0.4881889763779528,
                    "duration": 0.1030857499999911
                },
                {
                    "name": "A#2",
                    "midi": 46,
                    "time": 222.25287699999643,
                    "velocity": 0.48031496062992124,
                    "duration": 0.1030857499999911
                },
                {
                    "name": "C#3",
                    "midi": 49,
                    "time": 222.35596274999642,
                    "velocity": 0.47244094488188976,
                    "duration": 0.1030857499999911
                },
                {
                    "name": "F3",
                    "midi": 53,
                    "time": 222.4590484999964,
                    "velocity": 0.4645669291338583,
                    "duration": 0.1030857499999911
                },
                {
                    "name": "A#3",
                    "midi": 58,
                    "time": 222.5621342499964,
                    "velocity": 0.47244094488188976,
                    "duration": 0.1030857499999911
                },
                {
                    "name": "F#3",
                    "midi": 54,
                    "time": 222.6652199999964,
                    "velocity": 0.4015748031496063,
                    "duration": 0.4080477604166788
                },
                {
                    "name": "A#3",
                    "midi": 58,
                    "time": 222.6652199999964,
                    "velocity": 0.4015748031496063,
                    "duration": 0.4080477604166788
                },
                {
                    "name": "C#4",
                    "midi": 61,
                    "time": 222.6652199999964,
                    "velocity": 0.4645669291338583,
                    "duration": 0.4080477604166788
                },
                {
                    "name": "F#3",
                    "midi": 54,
                    "time": 223.07756299999642,
                    "velocity": 0.36220472440944884,
                    "duration": 0.1030857499999911
                },
                {
                    "name": "A#3",
                    "midi": 58,
                    "time": 223.07756299999642,
                    "velocity": 0.36220472440944884,
                    "duration": 0.1030857499999911
                },
                {
                    "name": "C#4",
                    "midi": 61,
                    "time": 223.07756299999642,
                    "velocity": 0.4330708661417323,
                    "duration": 0.1030857499999911
                },
                {
                    "name": "F#3",
                    "midi": 54,
                    "time": 223.2837344999964,
                    "velocity": 0.36220472440944884,
                    "duration": 0.1030857499999911
                },
                {
                    "name": "A#3",
                    "midi": 58,
                    "time": 223.2837344999964,
                    "velocity": 0.36220472440944884,
                    "duration": 0.1030857499999911
                },
                {
                    "name": "C#4",
                    "midi": 61,
                    "time": 223.2837344999964,
                    "velocity": 0.4330708661417323,
                    "duration": 0.1030857499999911
                },
                {
                    "name": "D3",
                    "midi": 50,
                    "time": 223.48990599999638,
                    "velocity": 0.44881889763779526,
                    "duration": 0.4080477604166788
                },
                {
                    "name": "F#3",
                    "midi": 54,
                    "time": 223.48990599999638,
                    "velocity": 0.44881889763779526,
                    "duration": 0.4080477604166788
                },
                {
                    "name": "A3",
                    "midi": 57,
                    "time": 223.48990599999638,
                    "velocity": 0.44881889763779526,
                    "duration": 0.4080477604166788
                },
                {
                    "name": "D4",
                    "midi": 62,
                    "time": 223.48990599999638,
                    "velocity": 0.5275590551181102,
                    "duration": 0.4080477604166788
                },
                {
                    "name": "D3",
                    "midi": 50,
                    "time": 223.9022489999964,
                    "velocity": 0.4015748031496063,
                    "duration": 0.1030857499999911
                },
                {
                    "name": "A3",
                    "midi": 57,
                    "time": 223.9022489999964,
                    "velocity": 0.4015748031496063,
                    "duration": 0.1030857499999911
                },
                {
                    "name": "D4",
                    "midi": 62,
                    "time": 223.9022489999964,
                    "velocity": 0.48031496062992124,
                    "duration": 0.1030857499999911
                },
                {
                    "name": "F#3",
                    "midi": 54,
                    "time": 223.9074032874964,
                    "velocity": 0.4015748031496063,
                    "duration": 0.1030857499999911
                },
                {
                    "name": "D3",
                    "midi": 50,
                    "time": 224.10842049999638,
                    "velocity": 0.4015748031496063,
                    "duration": 0.1030857499999911
                },
                {
                    "name": "F#3",
                    "midi": 54,
                    "time": 224.10842049999638,
                    "velocity": 0.4015748031496063,
                    "duration": 0.1030857499999911
                },
                {
                    "name": "A3",
                    "midi": 57,
                    "time": 224.10842049999638,
                    "velocity": 0.4015748031496063,
                    "duration": 0.1030857499999911
                },
                {
                    "name": "D4",
                    "midi": 62,
                    "time": 224.10842049999638,
                    "velocity": 0.48031496062992124,
                    "duration": 0.1030857499999911
                },
                {
                    "name": "C3",
                    "midi": 48,
                    "time": 224.31459199999637,
                    "velocity": 0.44881889763779526,
                    "duration": 0.15462862499998664
                },
                {
                    "name": "D#3",
                    "midi": 51,
                    "time": 224.31459199999637,
                    "velocity": 0.44881889763779526,
                    "duration": 0.15462862499998664
                },
                {
                    "name": "G#3",
                    "midi": 56,
                    "time": 224.31459199999637,
                    "velocity": 0.44881889763779526,
                    "duration": 0.15462862499998664
                },
                {
                    "name": "C4",
                    "midi": 60,
                    "time": 224.31459199999637,
                    "velocity": 0.5275590551181102,
                    "duration": 0.15462862499998664
                },
                {
                    "name": "D#4",
                    "midi": 63,
                    "time": 224.52076349999635,
                    "velocity": 0.3700787401574803,
                    "duration": 0.1030857499999911
                },
                {
                    "name": "C#4",
                    "midi": 61,
                    "time": 224.62384924999634,
                    "velocity": 0.3779527559055118,
                    "duration": 0.1030857499999911
                },
                {
                    "name": "C4",
                    "midi": 60,
                    "time": 224.72693499999633,
                    "velocity": 0.3937007874015748,
                    "duration": 0.1030857499999911
                },
                {
                    "name": "C#4",
                    "midi": 61,
                    "time": 224.83002074999632,
                    "velocity": 0.4015748031496063,
                    "duration": 0.1030857499999911
                },
                {
                    "name": "C4",
                    "midi": 60,
                    "time": 224.9331064999963,
                    "velocity": 0.4094488188976378,
                    "duration": 0.1030857499999911
                },
                {
                    "name": "A#3",
                    "midi": 58,
                    "time": 225.0361922499963,
                    "velocity": 0.4251968503937008,
                    "duration": 0.1030857499999911
                },
                {
                    "name": "G#3",
                    "midi": 56,
                    "time": 225.1392779999963,
                    "velocity": 0.4330708661417323,
                    "duration": 0.1030857499999911
                },
                {
                    "name": "A#3",
                    "midi": 58,
                    "time": 225.2423637499963,
                    "velocity": 0.41732283464566927,
                    "duration": 0.1030857499999911
                },
                {
                    "name": "G#3",
                    "midi": 56,
                    "time": 225.34544949999628,
                    "velocity": 0.4094488188976378,
                    "duration": 0.1030857499999911
                },
                {
                    "name": "A#3",
                    "midi": 58,
                    "time": 225.44853524999627,
                    "velocity": 0.4094488188976378,
                    "duration": 0.1030857499999911
                },
                {
                    "name": "C4",
                    "midi": 60,
                    "time": 225.55162099999626,
                    "velocity": 0.4015748031496063,
                    "duration": 0.1030857499999911
                },
                {
                    "name": "C#4",
                    "midi": 61,
                    "time": 225.65470674999625,
                    "velocity": 0.4015748031496063,
                    "duration": 0.1030857499999911
                },
                {
                    "name": "D#4",
                    "midi": 63,
                    "time": 225.75779249999624,
                    "velocity": 0.3937007874015748,
                    "duration": 0.1030857499999911
                },
                {
                    "name": "F4",
                    "midi": 65,
                    "time": 225.86087824999623,
                    "velocity": 0.3937007874015748,
                    "duration": 0.1030857499999911
                },
                {
                    "name": "F#3",
                    "midi": 54,
                    "time": 225.96396399999622,
                    "velocity": 0.4015748031496063,
                    "duration": 0.4080477604166788
                },
                {
                    "name": "A#3",
                    "midi": 58,
                    "time": 225.96396399999622,
                    "velocity": 0.4015748031496063,
                    "duration": 0.4080477604166788
                },
                {
                    "name": "C#4",
                    "midi": 61,
                    "time": 225.96396399999622,
                    "velocity": 0.4645669291338583,
                    "duration": 0.4080477604166788
                },
                {
                    "name": "F#3",
                    "midi": 54,
                    "time": 226.37630699999625,
                    "velocity": 0.36220472440944884,
                    "duration": 0.1030857499999911
                },
                {
                    "name": "A#3",
                    "midi": 58,
                    "time": 226.37630699999625,
                    "velocity": 0.36220472440944884,
                    "duration": 0.1030857499999911
                },
                {
                    "name": "C#4",
                    "midi": 61,
                    "time": 226.37630699999625,
                    "velocity": 0.4330708661417323,
                    "duration": 0.1030857499999911
                },
                {
                    "name": "F#3",
                    "midi": 54,
                    "time": 226.58247849999623,
                    "velocity": 0.36220472440944884,
                    "duration": 0.1030857499999911
                },
                {
                    "name": "A#3",
                    "midi": 58,
                    "time": 226.58247849999623,
                    "velocity": 0.36220472440944884,
                    "duration": 0.1030857499999911
                },
                {
                    "name": "C#4",
                    "midi": 61,
                    "time": 226.58247849999623,
                    "velocity": 0.4330708661417323,
                    "duration": 0.1030857499999911
                },
                {
                    "name": "D3",
                    "midi": 50,
                    "time": 226.7886499999962,
                    "velocity": 0.44881889763779526,
                    "duration": 0.4080477604166788
                },
                {
                    "name": "F#3",
                    "midi": 54,
                    "time": 226.7886499999962,
                    "velocity": 0.44881889763779526,
                    "duration": 0.4080477604166788
                },
                {
                    "name": "A3",
                    "midi": 57,
                    "time": 226.7886499999962,
                    "velocity": 0.44881889763779526,
                    "duration": 0.4080477604166788
                },
                {
                    "name": "D4",
                    "midi": 62,
                    "time": 226.7886499999962,
                    "velocity": 0.5275590551181102,
                    "duration": 0.4080477604166788
                },
                {
                    "name": "D3",
                    "midi": 50,
                    "time": 227.20099299999623,
                    "velocity": 0.4015748031496063,
                    "duration": 0.1030857499999911
                },
                {
                    "name": "A3",
                    "midi": 57,
                    "time": 227.20099299999623,
                    "velocity": 0.4015748031496063,
                    "duration": 0.1030857499999911
                },
                {
                    "name": "D4",
                    "midi": 62,
                    "time": 227.20099299999623,
                    "velocity": 0.48031496062992124,
                    "duration": 0.1030857499999911
                },
                {
                    "name": "F#3",
                    "midi": 54,
                    "time": 227.20614728749624,
                    "velocity": 0.4015748031496063,
                    "duration": 0.1030857499999911
                },
                {
                    "name": "D3",
                    "midi": 50,
                    "time": 227.4071644999962,
                    "velocity": 0.4015748031496063,
                    "duration": 0.1030857499999911
                },
                {
                    "name": "F#3",
                    "midi": 54,
                    "time": 227.4071644999962,
                    "velocity": 0.4015748031496063,
                    "duration": 0.1030857499999911
                },
                {
                    "name": "A3",
                    "midi": 57,
                    "time": 227.4071644999962,
                    "velocity": 0.4015748031496063,
                    "duration": 0.1030857499999911
                },
                {
                    "name": "D4",
                    "midi": 62,
                    "time": 227.4071644999962,
                    "velocity": 0.48031496062992124,
                    "duration": 0.1030857499999911
                },
                {
                    "name": "C3",
                    "midi": 48,
                    "time": 227.6133359999962,
                    "velocity": 0.44881889763779526,
                    "duration": 0.15462862499998664
                },
                {
                    "name": "D#3",
                    "midi": 51,
                    "time": 227.6133359999962,
                    "velocity": 0.44881889763779526,
                    "duration": 0.15462862499998664
                },
                {
                    "name": "G#3",
                    "midi": 56,
                    "time": 227.6133359999962,
                    "velocity": 0.44881889763779526,
                    "duration": 0.15462862499998664
                },
                {
                    "name": "C4",
                    "midi": 60,
                    "time": 227.6133359999962,
                    "velocity": 0.5275590551181102,
                    "duration": 0.15462862499998664
                },
                {
                    "name": "D#4",
                    "midi": 63,
                    "time": 227.81950749999618,
                    "velocity": 0.3700787401574803,
                    "duration": 0.1030857499999911
                },
                {
                    "name": "C#4",
                    "midi": 61,
                    "time": 227.92259324999617,
                    "velocity": 0.3779527559055118,
                    "duration": 0.1030857499999911
                },
                {
                    "name": "C4",
                    "midi": 60,
                    "time": 228.02567899999616,
                    "velocity": 0.3937007874015748,
                    "duration": 0.1030857499999911
                },
                {
                    "name": "C#4",
                    "midi": 61,
                    "time": 228.12876474999615,
                    "velocity": 0.4015748031496063,
                    "duration": 0.1030857499999911
                },
                {
                    "name": "C4",
                    "midi": 60,
                    "time": 228.23185049999614,
                    "velocity": 0.4015748031496063,
                    "duration": 0.1030857499999911
                },
                {
                    "name": "A#3",
                    "midi": 58,
                    "time": 228.33493624999613,
                    "velocity": 0.41732283464566927,
                    "duration": 0.1030857499999911
                },
                {
                    "name": "G#3",
                    "midi": 56,
                    "time": 228.43802199999612,
                    "velocity": 0.4330708661417323,
                    "duration": 0.1030857499999911
                },
                {
                    "name": "A#3",
                    "midi": 58,
                    "time": 228.54110774999612,
                    "velocity": 0.4330708661417323,
                    "duration": 0.1030857499999911
                },
                {
                    "name": "G#3",
                    "midi": 56,
                    "time": 228.6441934999961,
                    "velocity": 0.41732283464566927,
                    "duration": 0.1030857499999911
                },
                {
                    "name": "A#3",
                    "midi": 58,
                    "time": 228.7472792499961,
                    "velocity": 0.4094488188976378,
                    "duration": 0.1030857499999911
                },
                {
                    "name": "C4",
                    "midi": 60,
                    "time": 228.8503649999961,
                    "velocity": 0.3937007874015748,
                    "duration": 0.1030857499999911
                },
                {
                    "name": "C#4",
                    "midi": 61,
                    "time": 228.95345074999608,
                    "velocity": 0.3858267716535433,
                    "duration": 0.1030857499999911
                },
                {
                    "name": "D#4",
                    "midi": 63,
                    "time": 229.05653649999607,
                    "velocity": 0.3779527559055118,
                    "duration": 0.1030857499999911
                },
                {
                    "name": "F4",
                    "midi": 65,
                    "time": 229.15962224999606,
                    "velocity": 0.3700787401574803,
                    "duration": 0.1030857499999911
                },
                {
                    "name": "F#3",
                    "midi": 54,
                    "time": 229.26270799999605,
                    "velocity": 0.4330708661417323,
                    "duration": 0.4080477604166788
                },
                {
                    "name": "A3",
                    "midi": 57,
                    "time": 229.26270799999605,
                    "velocity": 0.4330708661417323,
                    "duration": 0.4080477604166788
                },
                {
                    "name": "C#4",
                    "midi": 61,
                    "time": 229.26270799999605,
                    "velocity": 0.4330708661417323,
                    "duration": 0.4080477604166788
                },
                {
                    "name": "F#4",
                    "midi": 66,
                    "time": 229.26270799999605,
                    "velocity": 0.5196850393700787,
                    "duration": 0.4080477604166788
                },
                {
                    "name": "F#3",
                    "midi": 54,
                    "time": 229.67505099999607,
                    "velocity": 0.2992125984251969,
                    "duration": 0.1030857499999911
                },
                {
                    "name": "A3",
                    "midi": 57,
                    "time": 229.67505099999607,
                    "velocity": 0.2992125984251969,
                    "duration": 0.1030857499999911
                },
                {
                    "name": "C#4",
                    "midi": 61,
                    "time": 229.67505099999607,
                    "velocity": 0.2992125984251969,
                    "duration": 0.1030857499999911
                },
                {
                    "name": "F#4",
                    "midi": 66,
                    "time": 229.67505099999607,
                    "velocity": 0.4330708661417323,
                    "duration": 0.1030857499999911
                },
                {
                    "name": "F#3",
                    "midi": 54,
                    "time": 229.88122249999606,
                    "velocity": 0.36220472440944884,
                    "duration": 0.1030857499999911
                },
                {
                    "name": "A3",
                    "midi": 57,
                    "time": 229.88122249999606,
                    "velocity": 0.36220472440944884,
                    "duration": 0.1030857499999911
                },
                {
                    "name": "C#4",
                    "midi": 61,
                    "time": 229.88122249999606,
                    "velocity": 0.36220472440944884,
                    "duration": 0.1030857499999911
                },
                {
                    "name": "F#4",
                    "midi": 66,
                    "time": 229.88122249999606,
                    "velocity": 0.4251968503937008,
                    "duration": 0.1030857499999911
                },
                {
                    "name": "D3",
                    "midi": 50,
                    "time": 230.08739399999604,
                    "velocity": 0.4015748031496063,
                    "duration": 0.4080477604166788
                },
                {
                    "name": "F#3",
                    "midi": 54,
                    "time": 230.08739399999604,
                    "velocity": 0.4015748031496063,
                    "duration": 0.4080477604166788
                },
                {
                    "name": "A3",
                    "midi": 57,
                    "time": 230.08739399999604,
                    "velocity": 0.4015748031496063,
                    "duration": 0.4080477604166788
                },
                {
                    "name": "D4",
                    "midi": 62,
                    "time": 230.08739399999604,
                    "velocity": 0.47244094488188976,
                    "duration": 0.4080477604166788
                },
                {
                    "name": "F#3",
                    "midi": 54,
                    "time": 230.49973699999606,
                    "velocity": 0.3700787401574803,
                    "duration": 0.1030857499999911
                },
                {
                    "name": "D3",
                    "midi": 50,
                    "time": 230.49973699999606,
                    "velocity": 0.3700787401574803,
                    "duration": 0.1030857499999911
                },
                {
                    "name": "A3",
                    "midi": 57,
                    "time": 230.49973699999606,
                    "velocity": 0.3700787401574803,
                    "duration": 0.1030857499999911
                },
                {
                    "name": "D4",
                    "midi": 62,
                    "time": 230.49973699999606,
                    "velocity": 0.4409448818897638,
                    "duration": 0.1030857499999911
                },
                {
                    "name": "D3",
                    "midi": 50,
                    "time": 230.70590849999604,
                    "velocity": 0.3779527559055118,
                    "duration": 0.1030857499999911
                },
                {
                    "name": "F#3",
                    "midi": 54,
                    "time": 230.70590849999604,
                    "velocity": 0.3779527559055118,
                    "duration": 0.1030857499999911
                },
                {
                    "name": "A3",
                    "midi": 57,
                    "time": 230.70590849999604,
                    "velocity": 0.3779527559055118,
                    "duration": 0.1030857499999911
                },
                {
                    "name": "D4",
                    "midi": 62,
                    "time": 230.70590849999604,
                    "velocity": 0.44881889763779526,
                    "duration": 0.1030857499999911
                },
                {
                    "name": "E3",
                    "midi": 52,
                    "time": 230.91207999999602,
                    "velocity": 0.4251968503937008,
                    "duration": 0.4123429999999928
                },
                {
                    "name": "G3",
                    "midi": 55,
                    "time": 230.91207999999602,
                    "velocity": 0.4251968503937008,
                    "duration": 0.4123429999999928
                },
                {
                    "name": "B3",
                    "midi": 59,
                    "time": 230.91207999999602,
                    "velocity": 0.4251968503937008,
                    "duration": 0.4123429999999928
                },
                {
                    "name": "E4",
                    "midi": 64,
                    "time": 230.91207999999602,
                    "velocity": 0.5118110236220472,
                    "duration": 0.4123429999999928
                },
                {
                    "name": "C3",
                    "midi": 48,
                    "time": 231.32442299999602,
                    "velocity": 0.3700787401574803,
                    "duration": 0.4123429999999928
                },
                {
                    "name": "E3",
                    "midi": 52,
                    "time": 231.32442299999602,
                    "velocity": 0.3700787401574803,
                    "duration": 0.4123429999999928
                },
                {
                    "name": "A3",
                    "midi": 57,
                    "time": 231.32442299999602,
                    "velocity": 0.3700787401574803,
                    "duration": 0.4123429999999928
                },
                {
                    "name": "C4",
                    "midi": 60,
                    "time": 231.32442299999602,
                    "velocity": 0.4409448818897638,
                    "duration": 0.4123429999999928
                },
                {
                    "name": "D3",
                    "midi": 50,
                    "time": 231.736765999996,
                    "velocity": 0.41732283464566927,
                    "duration": 0.4123429999999928
                },
                {
                    "name": "A3",
                    "midi": 57,
                    "time": 231.736765999996,
                    "velocity": 0.41732283464566927,
                    "duration": 0.4123429999999928
                },
                {
                    "name": "D4",
                    "midi": 62,
                    "time": 231.736765999996,
                    "velocity": 0.49606299212598426,
                    "duration": 0.4123429999999928
                },
                {
                    "name": "D2",
                    "midi": 38,
                    "time": 232.149108999996,
                    "velocity": 0.4015748031496063,
                    "duration": 0.4123429999999928
                },
                {
                    "name": "D3",
                    "midi": 50,
                    "time": 232.149108999996,
                    "velocity": 0.48031496062992124,
                    "duration": 0.4123429999999928
                },
                {
                    "name": "E2",
                    "midi": 40,
                    "time": 232.561451999996,
                    "velocity": 0.4094488188976378,
                    "duration": 0.4123429999999928
                },
                {
                    "name": "E3",
                    "midi": 52,
                    "time": 232.561451999996,
                    "velocity": 0.48031496062992124,
                    "duration": 0.4123429999999928
                },
                {
                    "name": "C3",
                    "midi": 48,
                    "time": 232.973794999996,
                    "velocity": 0.3700787401574803,
                    "duration": 0.4123429999999928
                },
                {
                    "name": "E3",
                    "midi": 52,
                    "time": 232.973794999996,
                    "velocity": 0.3700787401574803,
                    "duration": 0.4123429999999928
                },
                {
                    "name": "A3",
                    "midi": 57,
                    "time": 232.973794999996,
                    "velocity": 0.3700787401574803,
                    "duration": 0.4123429999999928
                },
                {
                    "name": "C4",
                    "midi": 60,
                    "time": 232.973794999996,
                    "velocity": 0.4330708661417323,
                    "duration": 0.4123429999999928
                },
                {
                    "name": "D3",
                    "midi": 50,
                    "time": 233.38613799999598,
                    "velocity": 0.4251968503937008,
                    "duration": 0.4123429999999928
                },
                {
                    "name": "A3",
                    "midi": 57,
                    "time": 233.38613799999598,
                    "velocity": 0.4251968503937008,
                    "duration": 0.4123429999999928
                },
                {
                    "name": "D4",
                    "midi": 62,
                    "time": 233.38613799999598,
                    "velocity": 0.5118110236220472,
                    "duration": 0.4123429999999928
                },
                {
                    "name": "D2",
                    "midi": 38,
                    "time": 233.79848099999597,
                    "velocity": 0.44881889763779526,
                    "duration": 0.4123429999999928
                },
                {
                    "name": "D3",
                    "midi": 50,
                    "time": 233.79848099999597,
                    "velocity": 0.5354330708661418,
                    "duration": 0.4123429999999928
                },
                {
                    "name": "G2",
                    "midi": 43,
                    "time": 234.21082399999597,
                    "velocity": 0.48031496062992124,
                    "duration": 0.10308575000001952
                },
                {
                    "name": "A2",
                    "midi": 45,
                    "time": 234.313909749996,
                    "velocity": 0.44881889763779526,
                    "duration": 0.1030857499999911
                },
                {
                    "name": "G2",
                    "midi": 43,
                    "time": 234.41699549999598,
                    "velocity": 0.44881889763779526,
                    "duration": 0.1030857499999911
                },
                {
                    "name": "A2",
                    "midi": 45,
                    "time": 234.52008124999597,
                    "velocity": 0.44881889763779526,
                    "duration": 0.1030857499999911
                },
                {
                    "name": "B2",
                    "midi": 47,
                    "time": 234.62316699999596,
                    "velocity": 0.48031496062992124,
                    "duration": 0.1030857499999911
                },
                {
                    "name": "C3",
                    "midi": 48,
                    "time": 234.72625274999595,
                    "velocity": 0.44881889763779526,
                    "duration": 0.1030857499999911
                },
                {
                    "name": "B2",
                    "midi": 47,
                    "time": 234.82933849999594,
                    "velocity": 0.44881889763779526,
                    "duration": 0.1030857499999911
                },
                {
                    "name": "C3",
                    "midi": 48,
                    "time": 234.93242424999593,
                    "velocity": 0.44881889763779526,
                    "duration": 0.1030857499999911
                },
                {
                    "name": "D3",
                    "midi": 50,
                    "time": 235.03550999999592,
                    "velocity": 0.49606299212598426,
                    "duration": 0.1030857499999911
                },
                {
                    "name": "D#3",
                    "midi": 51,
                    "time": 235.13859574999591,
                    "velocity": 0.44881889763779526,
                    "duration": 0.1030857499999911
                },
                {
                    "name": "D3",
                    "midi": 50,
                    "time": 235.2416814999959,
                    "velocity": 0.44881889763779526,
                    "duration": 0.1030857499999911
                },
                {
                    "name": "D#3",
                    "midi": 51,
                    "time": 235.3447672499959,
                    "velocity": 0.44881889763779526,
                    "duration": 0.1030857499999911
                },
                {
                    "name": "F3",
                    "midi": 53,
                    "time": 235.4478529999959,
                    "velocity": 0.48031496062992124,
                    "duration": 0.10308575000001952
                },
                {
                    "name": "G3",
                    "midi": 55,
                    "time": 235.5509387499959,
                    "velocity": 0.44881889763779526,
                    "duration": 0.1030857499999911
                },
                {
                    "name": "F3",
                    "midi": 53,
                    "time": 235.6540244999959,
                    "velocity": 0.44881889763779526,
                    "duration": 0.1030857499999911
                },
                {
                    "name": "G3",
                    "midi": 55,
                    "time": 235.7571102499959,
                    "velocity": 0.44881889763779526,
                    "duration": 0.1030857499999911
                },
                {
                    "name": "G#2",
                    "midi": 44,
                    "time": 235.86019599999588,
                    "velocity": 0.5275590551181102,
                    "duration": 0.8246859999999856
                },
                {
                    "name": "G#3",
                    "midi": 56,
                    "time": 235.86019599999588,
                    "velocity": 0.5275590551181102,
                    "duration": 0.8246859999999856
                },
                {
                    "name": "G#1",
                    "midi": 32,
                    "time": 236.68488199999587,
                    "velocity": 0.5196850393700787,
                    "duration": 0.824686000000014
                },
                {
                    "name": "G#2",
                    "midi": 44,
                    "time": 236.68488199999587,
                    "velocity": 0.5196850393700787,
                    "duration": 0.824686000000014
                },
                {
                    "name": "F2",
                    "midi": 41,
                    "time": 237.50956799999588,
                    "velocity": 0.48031496062992124,
                    "duration": 0.1030857499999911
                },
                {
                    "name": "G2",
                    "midi": 43,
                    "time": 237.61265374999587,
                    "velocity": 0.44881889763779526,
                    "duration": 0.1030857499999911
                },
                {
                    "name": "F2",
                    "midi": 41,
                    "time": 237.71573949999586,
                    "velocity": 0.44881889763779526,
                    "duration": 0.1030857499999911
                },
                {
                    "name": "G2",
                    "midi": 43,
                    "time": 237.81882524999585,
                    "velocity": 0.44881889763779526,
                    "duration": 0.1030857499999911
                },
                {
                    "name": "G#2",
                    "midi": 44,
                    "time": 237.92191099999584,
                    "velocity": 0.48031496062992124,
                    "duration": 0.1030857499999911
                },
                {
                    "name": "A#2",
                    "midi": 46,
                    "time": 238.02499674999584,
                    "velocity": 0.44881889763779526,
                    "duration": 0.1030857499999911
                },
                {
                    "name": "G#2",
                    "midi": 44,
                    "time": 238.12808249999583,
                    "velocity": 0.44881889763779526,
                    "duration": 0.1030857499999911
                },
                {
                    "name": "A#2",
                    "midi": 46,
                    "time": 238.23116824999582,
                    "velocity": 0.44881889763779526,
                    "duration": 0.1030857499999911
                },
                {
                    "name": "C3",
                    "midi": 48,
                    "time": 238.3342539999958,
                    "velocity": 0.49606299212598426,
                    "duration": 0.1030857499999911
                },
                {
                    "name": "D3",
                    "midi": 50,
                    "time": 238.4373397499958,
                    "velocity": 0.44881889763779526,
                    "duration": 0.1030857499999911
                },
                {
                    "name": "C3",
                    "midi": 48,
                    "time": 238.5404254999958,
                    "velocity": 0.44881889763779526,
                    "duration": 0.1030857499999911
                },
                {
                    "name": "D3",
                    "midi": 50,
                    "time": 238.64351124999578,
                    "velocity": 0.44881889763779526,
                    "duration": 0.1030857499999911
                },
                {
                    "name": "D#3",
                    "midi": 51,
                    "time": 238.74659699999577,
                    "velocity": 0.48031496062992124,
                    "duration": 0.1030857499999911
                },
                {
                    "name": "F3",
                    "midi": 53,
                    "time": 238.84968274999576,
                    "velocity": 0.44881889763779526,
                    "duration": 0.1030857499999911
                },
                {
                    "name": "D#3",
                    "midi": 51,
                    "time": 238.95276849999576,
                    "velocity": 0.44881889763779526,
                    "duration": 0.1030857499999911
                },
                {
                    "name": "F3",
                    "midi": 53,
                    "time": 239.05585424999575,
                    "velocity": 0.44881889763779526,
                    "duration": 0.1030857499999911
                },
                {
                    "name": "G2",
                    "midi": 43,
                    "time": 239.15893999999574,
                    "velocity": 0.5275590551181102,
                    "duration": 0.8246859999999856
                },
                {
                    "name": "G3",
                    "midi": 55,
                    "time": 239.15893999999574,
                    "velocity": 0.5275590551181102,
                    "duration": 0.8246859999999856
                },
                {
                    "name": "G1",
                    "midi": 31,
                    "time": 239.98362599999572,
                    "velocity": 0.5196850393700787,
                    "duration": 0.8246859999999856
                },
                {
                    "name": "G2",
                    "midi": 43,
                    "time": 239.98362599999572,
                    "velocity": 0.5196850393700787,
                    "duration": 0.8246859999999856
                },
                {
                    "name": "D#2",
                    "midi": 39,
                    "time": 240.8083119999957,
                    "velocity": 0.48031496062992124,
                    "duration": 0.1030857499999911
                },
                {
                    "name": "F2",
                    "midi": 41,
                    "time": 240.9113977499957,
                    "velocity": 0.44881889763779526,
                    "duration": 0.1030857499999911
                },
                {
                    "name": "D#2",
                    "midi": 39,
                    "time": 241.0144834999957,
                    "velocity": 0.44881889763779526,
                    "duration": 0.1030857499999911
                },
                {
                    "name": "F2",
                    "midi": 41,
                    "time": 241.11756924999568,
                    "velocity": 0.44881889763779526,
                    "duration": 0.1030857499999911
                },
                {
                    "name": "G2",
                    "midi": 43,
                    "time": 241.22065499999567,
                    "velocity": 0.48031496062992124,
                    "duration": 0.1030857499999911
                },
                {
                    "name": "G#2",
                    "midi": 44,
                    "time": 241.32374074999566,
                    "velocity": 0.44881889763779526,
                    "duration": 0.1030857499999911
                },
                {
                    "name": "G2",
                    "midi": 43,
                    "time": 241.42682649999566,
                    "velocity": 0.44881889763779526,
                    "duration": 0.1030857499999911
                },
                {
                    "name": "G#2",
                    "midi": 44,
                    "time": 241.52991224999565,
                    "velocity": 0.44881889763779526,
                    "duration": 0.1030857499999911
                },
                {
                    "name": "A#2",
                    "midi": 46,
                    "time": 241.63299799999564,
                    "velocity": 0.49606299212598426,
                    "duration": 0.1030857499999911
                },
                {
                    "name": "C3",
                    "midi": 48,
                    "time": 241.73608374999563,
                    "velocity": 0.44881889763779526,
                    "duration": 0.1030857499999911
                },
                {
                    "name": "A#2",
                    "midi": 46,
                    "time": 241.83916949999562,
                    "velocity": 0.44881889763779526,
                    "duration": 0.1030857499999911
                },
                {
                    "name": "C3",
                    "midi": 48,
                    "time": 241.9422552499956,
                    "velocity": 0.44881889763779526,
                    "duration": 0.1030857499999911
                },
                {
                    "name": "D3",
                    "midi": 50,
                    "time": 242.0453409999956,
                    "velocity": 0.48031496062992124,
                    "duration": 0.10308575000001952
                },
                {
                    "name": "D#3",
                    "midi": 51,
                    "time": 242.14842674999562,
                    "velocity": 0.44881889763779526,
                    "duration": 0.1030857499999911
                },
                {
                    "name": "D3",
                    "midi": 50,
                    "time": 242.2515124999956,
                    "velocity": 0.44881889763779526,
                    "duration": 0.1030857499999911
                },
                {
                    "name": "D#3",
                    "midi": 51,
                    "time": 242.3545982499956,
                    "velocity": 0.44881889763779526,
                    "duration": 0.1030857499999911
                },
                {
                    "name": "F2",
                    "midi": 41,
                    "time": 242.4576839999956,
                    "velocity": 0.5275590551181102,
                    "duration": 0.8246859999999856
                },
                {
                    "name": "F3",
                    "midi": 53,
                    "time": 242.4576839999956,
                    "velocity": 0.5275590551181102,
                    "duration": 0.8246859999999856
                },
                {
                    "name": "F1",
                    "midi": 29,
                    "time": 243.28236999999558,
                    "velocity": 0.5196850393700787,
                    "duration": 0.8246859999999856
                },
                {
                    "name": "F2",
                    "midi": 41,
                    "time": 243.28236999999558,
                    "velocity": 0.5196850393700787,
                    "duration": 0.8246859999999856
                },
                {
                    "name": "D#2",
                    "midi": 39,
                    "time": 244.10705599999557,
                    "velocity": 0.5275590551181102,
                    "duration": 0.8246859999999856
                },
                {
                    "name": "D#3",
                    "midi": 51,
                    "time": 244.10705599999557,
                    "velocity": 0.5275590551181102,
                    "duration": 0.8246859999999856
                },
                {
                    "name": "D#1",
                    "midi": 27,
                    "time": 244.93174199999555,
                    "velocity": 0.5196850393700787,
                    "duration": 0.824686000000014
                },
                {
                    "name": "D#2",
                    "midi": 39,
                    "time": 244.93174199999555,
                    "velocity": 0.5196850393700787,
                    "duration": 0.824686000000014
                },
                {
                    "name": "C#3",
                    "midi": 49,
                    "time": 245.75642799999557,
                    "velocity": 0.5275590551181102,
                    "duration": 0.3092572500000017
                },
                {
                    "name": "C#4",
                    "midi": 61,
                    "time": 245.75642799999557,
                    "velocity": 0.5275590551181102,
                    "duration": 0.3092572500000017
                },
                {
                    "name": "C#2",
                    "midi": 37,
                    "time": 246.06568524999557,
                    "velocity": 0.47244094488188976,
                    "duration": 0.09793146249998586
                },
                {
                    "name": "C#3",
                    "midi": 49,
                    "time": 246.06568524999557,
                    "velocity": 0.47244094488188976,
                    "duration": 0.09793146249998586
                },
                {
                    "name": "C#2",
                    "midi": 37,
                    "time": 246.16877099999556,
                    "velocity": 0.5275590551181102,
                    "duration": 0.4123429999999928
                },
                {
                    "name": "C#3",
                    "midi": 49,
                    "time": 246.16877099999556,
                    "velocity": 0.5275590551181102,
                    "duration": 0.4123429999999928
                },
                {
                    "name": "C3",
                    "midi": 48,
                    "time": 246.58111399999555,
                    "velocity": 0.5511811023622047,
                    "duration": 0.3092572500000017
                },
                {
                    "name": "C4",
                    "midi": 60,
                    "time": 246.58111399999555,
                    "velocity": 0.5511811023622047,
                    "duration": 0.3092572500000017
                },
                {
                    "name": "C2",
                    "midi": 36,
                    "time": 246.89037124999555,
                    "velocity": 0.49606299212598426,
                    "duration": 0.09793146249998586
                },
                {
                    "name": "C3",
                    "midi": 48,
                    "time": 246.89037124999555,
                    "velocity": 0.49606299212598426,
                    "duration": 0.09793146249998586
                },
                {
                    "name": "C2",
                    "midi": 36,
                    "time": 246.99345699999554,
                    "velocity": 0.5511811023622047,
                    "duration": 0.4123429999999928
                },
                {
                    "name": "C3",
                    "midi": 48,
                    "time": 246.99345699999554,
                    "velocity": 0.5511811023622047,
                    "duration": 0.4123429999999928
                },
                {
                    "name": "A#2",
                    "midi": 46,
                    "time": 247.40579999999554,
                    "velocity": 0.5511811023622047,
                    "duration": 0.3092572500000017
                },
                {
                    "name": "A#3",
                    "midi": 58,
                    "time": 247.40579999999554,
                    "velocity": 0.5511811023622047,
                    "duration": 0.3092572500000017
                },
                {
                    "name": "A#1",
                    "midi": 34,
                    "time": 247.71505724999554,
                    "velocity": 0.49606299212598426,
                    "duration": 0.09793146249998586
                },
                {
                    "name": "A#2",
                    "midi": 46,
                    "time": 247.71505724999554,
                    "velocity": 0.49606299212598426,
                    "duration": 0.09793146249998586
                },
                {
                    "name": "A#1",
                    "midi": 34,
                    "time": 247.81814299999553,
                    "velocity": 0.5511811023622047,
                    "duration": 0.4123429999999928
                },
                {
                    "name": "A#2",
                    "midi": 46,
                    "time": 247.81814299999553,
                    "velocity": 0.5511811023622047,
                    "duration": 0.4123429999999928
                },
                {
                    "name": "G#2",
                    "midi": 44,
                    "time": 248.23048599999552,
                    "velocity": 0.5748031496062992,
                    "duration": 0.3092572500000017
                },
                {
                    "name": "G#3",
                    "midi": 56,
                    "time": 248.23048599999552,
                    "velocity": 0.5748031496062992,
                    "duration": 0.3092572500000017
                },
                {
                    "name": "G#1",
                    "midi": 32,
                    "time": 248.53974324999552,
                    "velocity": 0.5118110236220472,
                    "duration": 0.09793146249998586
                },
                {
                    "name": "G#2",
                    "midi": 44,
                    "time": 248.53974324999552,
                    "velocity": 0.5118110236220472,
                    "duration": 0.09793146249998586
                },
                {
                    "name": "G#1",
                    "midi": 32,
                    "time": 248.64282899999552,
                    "velocity": 0.5748031496062992,
                    "duration": 0.4123429999999928
                },
                {
                    "name": "G#2",
                    "midi": 44,
                    "time": 248.64282899999552,
                    "velocity": 0.5748031496062992,
                    "duration": 0.4123429999999928
                },
                {
                    "name": "G1",
                    "midi": 31,
                    "time": 249.0551719999955,
                    "velocity": 0.5905511811023622,
                    "duration": 0.4123429999999928
                },
                {
                    "name": "G2",
                    "midi": 43,
                    "time": 249.0551719999955,
                    "velocity": 0.5905511811023622,
                    "duration": 0.4123429999999928
                },
                {
                    "name": "G4",
                    "midi": 67,
                    "time": 249.4675149999955,
                    "velocity": 0.5511811023622047,
                    "duration": 0.1030857499999911
                },
                {
                    "name": "G3",
                    "midi": 55,
                    "time": 249.4675149999955,
                    "velocity": 0.5511811023622047,
                    "duration": 0.1030857499999911
                },
                {
                    "name": "G3",
                    "midi": 55,
                    "time": 249.67368649999548,
                    "velocity": 0.5511811023622047,
                    "duration": 0.1030857499999911
                },
                {
                    "name": "G4",
                    "midi": 67,
                    "time": 249.67368649999548,
                    "velocity": 0.5511811023622047,
                    "duration": 0.1030857499999911
                },
                {
                    "name": "G4",
                    "midi": 67,
                    "time": 249.87985799999547,
                    "velocity": 0.5748031496062992,
                    "duration": 0.4080477604166788
                },
                {
                    "name": "G3",
                    "midi": 55,
                    "time": 249.87985799999547,
                    "velocity": 0.5748031496062992,
                    "duration": 0.4080477604166788
                },
                {
                    "name": "G4",
                    "midi": 67,
                    "time": 250.2922009999955,
                    "velocity": 0.5511811023622047,
                    "duration": 0.1030857499999911
                },
                {
                    "name": "G3",
                    "midi": 55,
                    "time": 250.2922009999955,
                    "velocity": 0.5511811023622047,
                    "duration": 0.1030857499999911
                },
                {
                    "name": "G4",
                    "midi": 67,
                    "time": 250.49837249999547,
                    "velocity": 0.5511811023622047,
                    "duration": 0.4123429999999928
                },
                {
                    "name": "G3",
                    "midi": 55,
                    "time": 250.49837249999547,
                    "velocity": 0.5511811023622047,
                    "duration": 0.4123429999999928
                },
                {
                    "name": "F3",
                    "midi": 53,
                    "time": 250.91071549999546,
                    "velocity": 0.5511811023622047,
                    "duration": 0.07731431249999332
                },
                {
                    "name": "F4",
                    "midi": 65,
                    "time": 250.91071549999546,
                    "velocity": 0.5511811023622047,
                    "duration": 0.07731431249999332
                },
                {
                    "name": "E3",
                    "midi": 52,
                    "time": 251.01380124999545,
                    "velocity": 0.5511811023622047,
                    "duration": 0.07731431249999332
                },
                {
                    "name": "E4",
                    "midi": 64,
                    "time": 251.01380124999545,
                    "velocity": 0.5511811023622047,
                    "duration": 0.07731431249999332
                },
                {
                    "name": "F3",
                    "midi": 53,
                    "time": 251.11688699999544,
                    "velocity": 0.5748031496062992,
                    "duration": 0.1030857499999911
                },
                {
                    "name": "F4",
                    "midi": 65,
                    "time": 251.11688699999544,
                    "velocity": 0.5748031496062992,
                    "duration": 0.1030857499999911
                },
                {
                    "name": "F2",
                    "midi": 41,
                    "time": 251.32305849999543,
                    "velocity": 0.5275590551181102,
                    "duration": 0.15462862499998664
                },
                {
                    "name": "F3",
                    "midi": 53,
                    "time": 251.32305849999543,
                    "velocity": 0.5275590551181102,
                    "duration": 0.15462862499998664
                },
                {
                    "name": "G#2",
                    "midi": 44,
                    "time": 251.5292299999954,
                    "velocity": 0.5354330708661418,
                    "duration": 0.15462862499998664
                },
                {
                    "name": "G#3",
                    "midi": 56,
                    "time": 251.5292299999954,
                    "velocity": 0.5354330708661418,
                    "duration": 0.15462862499998664
                },
                {
                    "name": "C3",
                    "midi": 48,
                    "time": 251.7354014999954,
                    "velocity": 0.5354330708661418,
                    "duration": 0.15462862499998664
                },
                {
                    "name": "C4",
                    "midi": 60,
                    "time": 251.7354014999954,
                    "velocity": 0.5354330708661418,
                    "duration": 0.15462862499998664
                },
                {
                    "name": "D3",
                    "midi": 50,
                    "time": 251.94157299999537,
                    "velocity": 0.5354330708661418,
                    "duration": 0.15462862499998664
                },
                {
                    "name": "D4",
                    "midi": 62,
                    "time": 251.94157299999537,
                    "velocity": 0.5354330708661418,
                    "duration": 0.15462862499998664
                },
                {
                    "name": "E3",
                    "midi": 52,
                    "time": 252.14774449999535,
                    "velocity": 0.5354330708661418,
                    "duration": 0.15462862499998664
                },
                {
                    "name": "E4",
                    "midi": 64,
                    "time": 252.14774449999535,
                    "velocity": 0.5354330708661418,
                    "duration": 0.15462862499998664
                },
                {
                    "name": "F3",
                    "midi": 53,
                    "time": 252.35391599999534,
                    "velocity": 0.5905511811023622,
                    "duration": 0.4080477604166788
                },
                {
                    "name": "F4",
                    "midi": 65,
                    "time": 252.35391599999534,
                    "velocity": 0.5905511811023622,
                    "duration": 0.4080477604166788
                },
                {
                    "name": "F4",
                    "midi": 65,
                    "time": 252.76625899999536,
                    "velocity": 0.5511811023622047,
                    "duration": 0.1030857499999911
                },
                {
                    "name": "F3",
                    "midi": 53,
                    "time": 252.76625899999536,
                    "velocity": 0.5511811023622047,
                    "duration": 0.1030857499999911
                },
                {
                    "name": "F3",
                    "midi": 53,
                    "time": 252.97243049999534,
                    "velocity": 0.5511811023622047,
                    "duration": 0.1030857499999911
                },
                {
                    "name": "F4",
                    "midi": 65,
                    "time": 252.97243049999534,
                    "velocity": 0.5511811023622047,
                    "duration": 0.1030857499999911
                },
                {
                    "name": "F4",
                    "midi": 65,
                    "time": 253.17860199999532,
                    "velocity": 0.5748031496062992,
                    "duration": 0.4080477604166788
                },
                {
                    "name": "F3",
                    "midi": 53,
                    "time": 253.17860199999532,
                    "velocity": 0.5748031496062992,
                    "duration": 0.4080477604166788
                },
                {
                    "name": "F4",
                    "midi": 65,
                    "time": 253.59094499999534,
                    "velocity": 0.5511811023622047,
                    "duration": 0.1030857499999911
                },
                {
                    "name": "F3",
                    "midi": 53,
                    "time": 253.59094499999534,
                    "velocity": 0.5511811023622047,
                    "duration": 0.1030857499999911
                },
                {
                    "name": "F4",
                    "midi": 65,
                    "time": 253.79711649999533,
                    "velocity": 0.5511811023622047,
                    "duration": 0.4123429999999928
                },
                {
                    "name": "F3",
                    "midi": 53,
                    "time": 253.79711649999533,
                    "velocity": 0.5511811023622047,
                    "duration": 0.4123429999999928
                },
                {
                    "name": "D#3",
                    "midi": 51,
                    "time": 254.20945949999532,
                    "velocity": 0.5511811023622047,
                    "duration": 0.07731431249999332
                },
                {
                    "name": "D#4",
                    "midi": 63,
                    "time": 254.20945949999532,
                    "velocity": 0.5511811023622047,
                    "duration": 0.07731431249999332
                },
                {
                    "name": "D3",
                    "midi": 50,
                    "time": 254.3125452499953,
                    "velocity": 0.5511811023622047,
                    "duration": 0.07731431249999332
                },
                {
                    "name": "D4",
                    "midi": 62,
                    "time": 254.3125452499953,
                    "velocity": 0.5511811023622047,
                    "duration": 0.07731431249999332
                },
                {
                    "name": "D#3",
                    "midi": 51,
                    "time": 254.4156309999953,
                    "velocity": 0.5748031496062992,
                    "duration": 0.1030857499999911
                },
                {
                    "name": "D#4",
                    "midi": 63,
                    "time": 254.4156309999953,
                    "velocity": 0.5748031496062992,
                    "duration": 0.1030857499999911
                },
                {
                    "name": "D#2",
                    "midi": 39,
                    "time": 254.62180249999528,
                    "velocity": 0.5275590551181102,
                    "duration": 0.15462862499998664
                },
                {
                    "name": "D#3",
                    "midi": 51,
                    "time": 254.62180249999528,
                    "velocity": 0.5275590551181102,
                    "duration": 0.15462862499998664
                },
                {
                    "name": "G2",
                    "midi": 43,
                    "time": 254.82797399999527,
                    "velocity": 0.5354330708661418,
                    "duration": 0.15462862499998664
                },
                {
                    "name": "G3",
                    "midi": 55,
                    "time": 254.82797399999527,
                    "velocity": 0.5354330708661418,
                    "duration": 0.15462862499998664
                },
                {
                    "name": "A#2",
                    "midi": 46,
                    "time": 255.03414549999525,
                    "velocity": 0.5354330708661418,
                    "duration": 0.15462862499998664
                },
                {
                    "name": "A#3",
                    "midi": 58,
                    "time": 255.03414549999525,
                    "velocity": 0.5354330708661418,
                    "duration": 0.15462862499998664
                },
                {
                    "name": "C3",
                    "midi": 48,
                    "time": 255.24031699999523,
                    "velocity": 0.5354330708661418,
                    "duration": 0.15462862499998664
                },
                {
                    "name": "C4",
                    "midi": 60,
                    "time": 255.24031699999523,
                    "velocity": 0.5354330708661418,
                    "duration": 0.15462862499998664
                },
                {
                    "name": "D3",
                    "midi": 50,
                    "time": 255.4464884999952,
                    "velocity": 0.5354330708661418,
                    "duration": 0.15462862499998664
                },
                {
                    "name": "D4",
                    "midi": 62,
                    "time": 255.4464884999952,
                    "velocity": 0.5354330708661418,
                    "duration": 0.15462862499998664
                },
                {
                    "name": "D#3",
                    "midi": 51,
                    "time": 255.6526599999952,
                    "velocity": 0.5905511811023622,
                    "duration": 0.40804776041665036
                },
                {
                    "name": "D#4",
                    "midi": 63,
                    "time": 255.6526599999952,
                    "velocity": 0.5905511811023622,
                    "duration": 0.40804776041665036
                },
                {
                    "name": "D#4",
                    "midi": 63,
                    "time": 256.06500299999516,
                    "velocity": 0.5511811023622047,
                    "duration": 0.1030857499999911
                },
                {
                    "name": "D#3",
                    "midi": 51,
                    "time": 256.06500299999516,
                    "velocity": 0.5511811023622047,
                    "duration": 0.1030857499999911
                },
                {
                    "name": "D#3",
                    "midi": 51,
                    "time": 256.27117449999514,
                    "velocity": 0.5511811023622047,
                    "duration": 0.1030857499999911
                },
                {
                    "name": "D#4",
                    "midi": 63,
                    "time": 256.27117449999514,
                    "velocity": 0.5511811023622047,
                    "duration": 0.1030857499999911
                },
                {
                    "name": "D#4",
                    "midi": 63,
                    "time": 256.4773459999951,
                    "velocity": 0.5748031496062992,
                    "duration": 0.40804776041665036
                },
                {
                    "name": "D#3",
                    "midi": 51,
                    "time": 256.4773459999951,
                    "velocity": 0.5748031496062992,
                    "duration": 0.40804776041665036
                },
                {
                    "name": "D#4",
                    "midi": 63,
                    "time": 256.8896889999951,
                    "velocity": 0.5511811023622047,
                    "duration": 0.1030857499999911
                },
                {
                    "name": "D#3",
                    "midi": 51,
                    "time": 256.8896889999951,
                    "velocity": 0.5511811023622047,
                    "duration": 0.1030857499999911
                },
                {
                    "name": "D#4",
                    "midi": 63,
                    "time": 257.09586049999507,
                    "velocity": 0.5511811023622047,
                    "duration": 0.4123430000000212
                },
                {
                    "name": "D#3",
                    "midi": 51,
                    "time": 257.09586049999507,
                    "velocity": 0.5511811023622047,
                    "duration": 0.4123430000000212
                },
                {
                    "name": "C#3",
                    "midi": 49,
                    "time": 257.5082034999951,
                    "velocity": 0.5511811023622047,
                    "duration": 0.07731431249999332
                },
                {
                    "name": "C#4",
                    "midi": 61,
                    "time": 257.5082034999951,
                    "velocity": 0.5511811023622047,
                    "duration": 0.07731431249999332
                },
                {
                    "name": "C3",
                    "midi": 48,
                    "time": 257.6112892499951,
                    "velocity": 0.5511811023622047,
                    "duration": 0.07731431249999332
                },
                {
                    "name": "C4",
                    "midi": 60,
                    "time": 257.6112892499951,
                    "velocity": 0.5511811023622047,
                    "duration": 0.07731431249999332
                },
                {
                    "name": "C#3",
                    "midi": 49,
                    "time": 257.7143749999951,
                    "velocity": 0.5748031496062992,
                    "duration": 0.1030857499999911
                },
                {
                    "name": "C#4",
                    "midi": 61,
                    "time": 257.7143749999951,
                    "velocity": 0.5748031496062992,
                    "duration": 0.1030857499999911
                },
                {
                    "name": "C#3",
                    "midi": 49,
                    "time": 257.92054649999506,
                    "velocity": 0.5275590551181102,
                    "duration": 0.15462862499998664
                },
                {
                    "name": "C#4",
                    "midi": 61,
                    "time": 257.92054649999506,
                    "velocity": 0.5275590551181102,
                    "duration": 0.15462862499998664
                },
                {
                    "name": "G#2",
                    "midi": 44,
                    "time": 258.12671799999504,
                    "velocity": 0.5354330708661418,
                    "duration": 0.15462862499998664
                },
                {
                    "name": "G#3",
                    "midi": 56,
                    "time": 258.12671799999504,
                    "velocity": 0.5354330708661418,
                    "duration": 0.15462862499998664
                },
                {
                    "name": "F2",
                    "midi": 41,
                    "time": 258.332889499995,
                    "velocity": 0.5354330708661418,
                    "duration": 0.15462862499998664
                },
                {
                    "name": "F3",
                    "midi": 53,
                    "time": 258.332889499995,
                    "velocity": 0.5354330708661418,
                    "duration": 0.15462862499998664
                },
                {
                    "name": "G#2",
                    "midi": 44,
                    "time": 258.539060999995,
                    "velocity": 0.5354330708661418,
                    "duration": 0.15462862499998664
                },
                {
                    "name": "G#3",
                    "midi": 56,
                    "time": 258.539060999995,
                    "velocity": 0.5354330708661418,
                    "duration": 0.15462862499998664
                },
                {
                    "name": "C#3",
                    "midi": 49,
                    "time": 258.745232499995,
                    "velocity": 0.5354330708661418,
                    "duration": 0.4123430000000212
                },
                {
                    "name": "C#4",
                    "midi": 61,
                    "time": 258.745232499995,
                    "velocity": 0.5354330708661418,
                    "duration": 0.4123430000000212
                },
                {
                    "name": "C3",
                    "midi": 48,
                    "time": 259.157575499995,
                    "velocity": 0.5511811023622047,
                    "duration": 0.07731431249999332
                },
                {
                    "name": "C4",
                    "midi": 60,
                    "time": 259.157575499995,
                    "velocity": 0.5511811023622047,
                    "duration": 0.07731431249999332
                },
                {
                    "name": "B2",
                    "midi": 47,
                    "time": 259.260661249995,
                    "velocity": 0.5511811023622047,
                    "duration": 0.07731431249999332
                },
                {
                    "name": "B3",
                    "midi": 59,
                    "time": 259.260661249995,
                    "velocity": 0.5511811023622047,
                    "duration": 0.07731431249999332
                },
                {
                    "name": "C3",
                    "midi": 48,
                    "time": 259.363746999995,
                    "velocity": 0.5748031496062992,
                    "duration": 0.1030857499999911
                },
                {
                    "name": "C4",
                    "midi": 60,
                    "time": 259.363746999995,
                    "velocity": 0.5748031496062992,
                    "duration": 0.1030857499999911
                },
                {
                    "name": "C3",
                    "midi": 48,
                    "time": 259.56991849999497,
                    "velocity": 0.5275590551181102,
                    "duration": 0.15462862499998664
                },
                {
                    "name": "C4",
                    "midi": 60,
                    "time": 259.56991849999497,
                    "velocity": 0.5275590551181102,
                    "duration": 0.15462862499998664
                },
                {
                    "name": "G2",
                    "midi": 43,
                    "time": 259.77608999999495,
                    "velocity": 0.5354330708661418,
                    "duration": 0.15462862499998664
                },
                {
                    "name": "G3",
                    "midi": 55,
                    "time": 259.77608999999495,
                    "velocity": 0.5354330708661418,
                    "duration": 0.15462862499998664
                },
                {
                    "name": "D#2",
                    "midi": 39,
                    "time": 259.98226149999493,
                    "velocity": 0.5354330708661418,
                    "duration": 0.15462862499998664
                },
                {
                    "name": "D#3",
                    "midi": 51,
                    "time": 259.98226149999493,
                    "velocity": 0.5354330708661418,
                    "duration": 0.15462862499998664
                },
                {
                    "name": "G2",
                    "midi": 43,
                    "time": 260.1884329999949,
                    "velocity": 0.5354330708661418,
                    "duration": 0.15462862499998664
                },
                {
                    "name": "G3",
                    "midi": 55,
                    "time": 260.1884329999949,
                    "velocity": 0.5354330708661418,
                    "duration": 0.15462862499998664
                },
                {
                    "name": "C3",
                    "midi": 48,
                    "time": 260.3946044999949,
                    "velocity": 0.5354330708661418,
                    "duration": 0.4123430000000212
                },
                {
                    "name": "C4",
                    "midi": 60,
                    "time": 260.3946044999949,
                    "velocity": 0.5354330708661418,
                    "duration": 0.4123430000000212
                },
                {
                    "name": "A#2",
                    "midi": 46,
                    "time": 260.8069474999949,
                    "velocity": 0.4094488188976378,
                    "duration": 0.07731431249999332
                },
                {
                    "name": "A#3",
                    "midi": 58,
                    "time": 260.8069474999949,
                    "velocity": 0.48031496062992124,
                    "duration": 0.07731431249999332
                },
                {
                    "name": "A2",
                    "midi": 45,
                    "time": 260.9100332499949,
                    "velocity": 0.41732283464566927,
                    "duration": 0.07731431249999332
                },
                {
                    "name": "A3",
                    "midi": 57,
                    "time": 260.9100332499949,
                    "velocity": 0.49606299212598426,
                    "duration": 0.07731431249999332
                },
                {
                    "name": "A#2",
                    "midi": 46,
                    "time": 261.0131189999949,
                    "velocity": 0.4566929133858268,
                    "duration": 0.1030857499999911
                },
                {
                    "name": "A#3",
                    "midi": 58,
                    "time": 261.0131189999949,
                    "velocity": 0.5433070866141733,
                    "duration": 0.1030857499999911
                },
                {
                    "name": "A#1",
                    "midi": 34,
                    "time": 261.2192904999949,
                    "velocity": 0.4015748031496063,
                    "duration": 0.15462862499998664
                },
                {
                    "name": "A#2",
                    "midi": 46,
                    "time": 261.2192904999949,
                    "velocity": 0.47244094488188976,
                    "duration": 0.15462862499998664
                },
                {
                    "name": "A#2",
                    "midi": 46,
                    "time": 261.42546199999487,
                    "velocity": 0.5354330708661418,
                    "duration": 0.1030857499999911
                },
                {
                    "name": "A#3",
                    "midi": 58,
                    "time": 261.42546199999487,
                    "velocity": 0.5354330708661418,
                    "duration": 0.1030857499999911
                },
                {
                    "name": "G#2",
                    "midi": 44,
                    "time": 261.63163349999485,
                    "velocity": 0.4094488188976378,
                    "duration": 0.07731431249999332
                },
                {
                    "name": "G#3",
                    "midi": 56,
                    "time": 261.63163349999485,
                    "velocity": 0.48031496062992124,
                    "duration": 0.07731431249999332
                },
                {
                    "name": "G2",
                    "midi": 43,
                    "time": 261.73471924999484,
                    "velocity": 0.41732283464566927,
                    "duration": 0.07731431249999332
                },
                {
                    "name": "G3",
                    "midi": 55,
                    "time": 261.73471924999484,
                    "velocity": 0.49606299212598426,
                    "duration": 0.07731431249999332
                },
                {
                    "name": "G#2",
                    "midi": 44,
                    "time": 261.83780499999483,
                    "velocity": 0.4566929133858268,
                    "duration": 0.1030857499999911
                },
                {
                    "name": "G#3",
                    "midi": 56,
                    "time": 261.83780499999483,
                    "velocity": 0.5433070866141733,
                    "duration": 0.1030857499999911
                },
                {
                    "name": "G#1",
                    "midi": 32,
                    "time": 262.0439764999948,
                    "velocity": 0.4015748031496063,
                    "duration": 0.15462862499998664
                },
                {
                    "name": "G#2",
                    "midi": 44,
                    "time": 262.0439764999948,
                    "velocity": 0.47244094488188976,
                    "duration": 0.15462862499998664
                },
                {
                    "name": "G#2",
                    "midi": 44,
                    "time": 262.2501479999948,
                    "velocity": 0.5354330708661418,
                    "duration": 0.1030857499999911
                },
                {
                    "name": "G#3",
                    "midi": 56,
                    "time": 262.2501479999948,
                    "velocity": 0.5354330708661418,
                    "duration": 0.1030857499999911
                },
                {
                    "name": "G2",
                    "midi": 43,
                    "time": 262.4563194999948,
                    "velocity": 0.4094488188976378,
                    "duration": 0.07731431249999332
                },
                {
                    "name": "G3",
                    "midi": 55,
                    "time": 262.4563194999948,
                    "velocity": 0.48031496062992124,
                    "duration": 0.07731431249999332
                },
                {
                    "name": "F#2",
                    "midi": 42,
                    "time": 262.55940524999477,
                    "velocity": 0.41732283464566927,
                    "duration": 0.07731431249999332
                },
                {
                    "name": "F#3",
                    "midi": 54,
                    "time": 262.55940524999477,
                    "velocity": 0.49606299212598426,
                    "duration": 0.07731431249999332
                },
                {
                    "name": "G2",
                    "midi": 43,
                    "time": 262.66249099999476,
                    "velocity": 0.4566929133858268,
                    "duration": 0.1030857499999911
                },
                {
                    "name": "G3",
                    "midi": 55,
                    "time": 262.66249099999476,
                    "velocity": 0.5433070866141733,
                    "duration": 0.1030857499999911
                },
                {
                    "name": "G1",
                    "midi": 31,
                    "time": 262.86866249999474,
                    "velocity": 0.4015748031496063,
                    "duration": 0.15462862499998664
                },
                {
                    "name": "G2",
                    "midi": 43,
                    "time": 262.86866249999474,
                    "velocity": 0.47244094488188976,
                    "duration": 0.15462862499998664
                },
                {
                    "name": "G2",
                    "midi": 43,
                    "time": 263.0748339999947,
                    "velocity": 0.5354330708661418,
                    "duration": 0.1030857499999911
                },
                {
                    "name": "G3",
                    "midi": 55,
                    "time": 263.0748339999947,
                    "velocity": 0.5354330708661418,
                    "duration": 0.1030857499999911
                },
                {
                    "name": "F2",
                    "midi": 41,
                    "time": 263.2810054999947,
                    "velocity": 0.4094488188976378,
                    "duration": 0.07731431249999332
                },
                {
                    "name": "F3",
                    "midi": 53,
                    "time": 263.2810054999947,
                    "velocity": 0.48031496062992124,
                    "duration": 0.07731431249999332
                },
                {
                    "name": "E2",
                    "midi": 40,
                    "time": 263.3840912499947,
                    "velocity": 0.41732283464566927,
                    "duration": 0.07731431249999332
                },
                {
                    "name": "E3",
                    "midi": 52,
                    "time": 263.3840912499947,
                    "velocity": 0.49606299212598426,
                    "duration": 0.07731431249999332
                },
                {
                    "name": "F2",
                    "midi": 41,
                    "time": 263.4871769999947,
                    "velocity": 0.4566929133858268,
                    "duration": 0.1030857499999911
                },
                {
                    "name": "F3",
                    "midi": 53,
                    "time": 263.4871769999947,
                    "velocity": 0.5433070866141733,
                    "duration": 0.1030857499999911
                },
                {
                    "name": "F#2",
                    "midi": 42,
                    "time": 263.69334849999467,
                    "velocity": 0.5039370078740157,
                    "duration": 0.1030857499999911
                },
                {
                    "name": "F#3",
                    "midi": 54,
                    "time": 263.69334849999467,
                    "velocity": 0.5354330708661418,
                    "duration": 0.1030857499999911
                },
                {
                    "name": "G2",
                    "midi": 43,
                    "time": 263.89951999999465,
                    "velocity": 0.4566929133858268,
                    "duration": 0.40804776041665036
                },
                {
                    "name": "B2",
                    "midi": 47,
                    "time": 263.89951999999465,
                    "velocity": 0.4566929133858268,
                    "duration": 0.40804776041665036
                },
                {
                    "name": "D3",
                    "midi": 50,
                    "time": 263.89951999999465,
                    "velocity": 0.4566929133858268,
                    "duration": 0.40804776041665036
                },
                {
                    "name": "G3",
                    "midi": 55,
                    "time": 263.89951999999465,
                    "velocity": 0.5433070866141733,
                    "duration": 0.40804776041665036
                },
                {
                    "name": "G2",
                    "midi": 43,
                    "time": 264.3118629999946,
                    "velocity": 0.4330708661417323,
                    "duration": 0.1958629249999717
                },
                {
                    "name": "B2",
                    "midi": 47,
                    "time": 264.3118629999946,
                    "velocity": 0.4330708661417323,
                    "duration": 0.1958629249999717
                },
                {
                    "name": "D3",
                    "midi": 50,
                    "time": 264.3118629999946,
                    "velocity": 0.4330708661417323,
                    "duration": 0.1958629249999717
                },
                {
                    "name": "G3",
                    "midi": 55,
                    "time": 264.3118629999946,
                    "velocity": 0.5196850393700787,
                    "duration": 0.1958629249999717
                },
                {
                    "name": "G2",
                    "midi": 43,
                    "time": 264.5180344999946,
                    "velocity": 0.4330708661417323,
                    "duration": 0.19586292500002855
                },
                {
                    "name": "B2",
                    "midi": 47,
                    "time": 264.5180344999946,
                    "velocity": 0.4330708661417323,
                    "duration": 0.19586292500002855
                },
                {
                    "name": "D3",
                    "midi": 50,
                    "time": 264.5180344999946,
                    "velocity": 0.4330708661417323,
                    "duration": 0.19586292500002855
                },
                {
                    "name": "G3",
                    "midi": 55,
                    "time": 264.5180344999946,
                    "velocity": 0.5196850393700787,
                    "duration": 0.19586292500002855
                },
                {
                    "name": "C2",
                    "midi": 36,
                    "time": 264.72420599999464,
                    "velocity": 0.4566929133858268,
                    "duration": 0.4080477604167072
                },
                {
                    "name": "D#2",
                    "midi": 39,
                    "time": 264.72420599999464,
                    "velocity": 0.4566929133858268,
                    "duration": 0.4080477604167072
                },
                {
                    "name": "G#2",
                    "midi": 44,
                    "time": 264.72420599999464,
                    "velocity": 0.4566929133858268,
                    "duration": 0.4080477604167072
                },
                {
                    "name": "C3",
                    "midi": 48,
                    "time": 264.72420599999464,
                    "velocity": 0.5433070866141733,
                    "duration": 0.4080477604167072
                },
                {
                    "name": "C2",
                    "midi": 36,
                    "time": 265.13654899999466,
                    "velocity": 0.44881889763779526,
                    "duration": 0.07731431249999332
                },
                {
                    "name": "C3",
                    "midi": 48,
                    "time": 265.13654899999466,
                    "velocity": 0.5354330708661418,
                    "duration": 0.07731431249999332
                },
                {
                    "name": "D2",
                    "midi": 38,
                    "time": 265.23963474999465,
                    "velocity": 0.47244094488188976,
                    "duration": 0.07731431249999332
                },
                {
                    "name": "D3",
                    "midi": 50,
                    "time": 265.23963474999465,
                    "velocity": 0.5669291338582677,
                    "duration": 0.07731431249999332
                },
                {
                    "name": "D#2",
                    "midi": 39,
                    "time": 265.34272049999464,
                    "velocity": 0.49606299212598426,
                    "duration": 0.07731431249999332
                },
                {
                    "name": "D#3",
                    "midi": 51,
                    "time": 265.34272049999464,
                    "velocity": 0.5905511811023622,
                    "duration": 0.07731431249999332
                },
                {
                    "name": "F2",
                    "midi": 41,
                    "time": 265.44580624999463,
                    "velocity": 0.5275590551181102,
                    "duration": 0.07731431249999332
                },
                {
                    "name": "F3",
                    "midi": 53,
                    "time": 265.44580624999463,
                    "velocity": 0.6141732283464567,
                    "duration": 0.07731431249999332
                },
                {
                    "name": "G2",
                    "midi": 43,
                    "time": 265.5488919999946,
                    "velocity": 0.4566929133858268,
                    "duration": 0.40804776041665036
                },
                {
                    "name": "G3",
                    "midi": 55,
                    "time": 265.5488919999946,
                    "velocity": 0.5433070866141733,
                    "duration": 0.40804776041665036
                },
                {
                    "name": "G3",
                    "midi": 55,
                    "time": 265.9612349999946,
                    "velocity": 0.4330708661417323,
                    "duration": 0.19586292500002855
                },
                {
                    "name": "B3",
                    "midi": 59,
                    "time": 265.9612349999946,
                    "velocity": 0.4330708661417323,
                    "duration": 0.19586292500002855
                },
                {
                    "name": "D4",
                    "midi": 62,
                    "time": 265.9612349999946,
                    "velocity": 0.4330708661417323,
                    "duration": 0.19586292500002855
                },
                {
                    "name": "G4",
                    "midi": 67,
                    "time": 265.9612349999946,
                    "velocity": 0.5196850393700787,
                    "duration": 0.19586292500002855
                },
                {
                    "name": "G3",
                    "midi": 55,
                    "time": 266.1674064999946,
                    "velocity": 0.4330708661417323,
                    "duration": 0.19586292500002855
                },
                {
                    "name": "B3",
                    "midi": 59,
                    "time": 266.1674064999946,
                    "velocity": 0.4330708661417323,
                    "duration": 0.19586292500002855
                },
                {
                    "name": "D4",
                    "midi": 62,
                    "time": 266.1674064999946,
                    "velocity": 0.4330708661417323,
                    "duration": 0.19586292500002855
                },
                {
                    "name": "G4",
                    "midi": 67,
                    "time": 266.1674064999946,
                    "velocity": 0.5196850393700787,
                    "duration": 0.19586292500002855
                },
                {
                    "name": "C3",
                    "midi": 48,
                    "time": 266.37357799999467,
                    "velocity": 0.4566929133858268,
                    "duration": 0.4123430000000212
                },
                {
                    "name": "D#3",
                    "midi": 51,
                    "time": 266.37357799999467,
                    "velocity": 0.4566929133858268,
                    "duration": 0.4123430000000212
                },
                {
                    "name": "G#3",
                    "midi": 56,
                    "time": 266.37357799999467,
                    "velocity": 0.4566929133858268,
                    "duration": 0.4123430000000212
                },
                {
                    "name": "C4",
                    "midi": 60,
                    "time": 266.37357799999467,
                    "velocity": 0.5433070866141733,
                    "duration": 0.4123430000000212
                },
                {
                    "name": "C3",
                    "midi": 48,
                    "time": 266.7859209999947,
                    "velocity": 0.44881889763779526,
                    "duration": 0.07731431249999332
                },
                {
                    "name": "C4",
                    "midi": 60,
                    "time": 266.7859209999947,
                    "velocity": 0.5354330708661418,
                    "duration": 0.07731431249999332
                },
                {
                    "name": "D3",
                    "midi": 50,
                    "time": 266.8890067499947,
                    "velocity": 0.47244094488188976,
                    "duration": 0.07731431249999332
                },
                {
                    "name": "D4",
                    "midi": 62,
                    "time": 266.8890067499947,
                    "velocity": 0.5669291338582677,
                    "duration": 0.07731431249999332
                },
                {
                    "name": "D#3",
                    "midi": 51,
                    "time": 266.99209249999467,
                    "velocity": 0.49606299212598426,
                    "duration": 0.07731431249999332
                },
                {
                    "name": "D#4",
                    "midi": 63,
                    "time": 266.99209249999467,
                    "velocity": 0.5905511811023622,
                    "duration": 0.07731431249999332
                },
                {
                    "name": "F3",
                    "midi": 53,
                    "time": 267.09517824999466,
                    "velocity": 0.5275590551181102,
                    "duration": 0.07731431249999332
                },
                {
                    "name": "F4",
                    "midi": 65,
                    "time": 267.09517824999466,
                    "velocity": 0.6141732283464567,
                    "duration": 0.07731431249999332
                },
                {
                    "name": "G3",
                    "midi": 55,
                    "time": 267.19826399999465,
                    "velocity": 0.4330708661417323,
                    "duration": 0.4123430000000212
                },
                {
                    "name": "B3",
                    "midi": 59,
                    "time": 267.19826399999465,
                    "velocity": 0.4330708661417323,
                    "duration": 0.4123430000000212
                },
                {
                    "name": "D4",
                    "midi": 62,
                    "time": 267.19826399999465,
                    "velocity": 0.4330708661417323,
                    "duration": 0.4123430000000212
                },
                {
                    "name": "G4",
                    "midi": 67,
                    "time": 267.19826399999465,
                    "velocity": 0.5196850393700787,
                    "duration": 0.4123430000000212
                },
                {
                    "name": "C3",
                    "midi": 48,
                    "time": 267.6106069999947,
                    "velocity": 0.44881889763779526,
                    "duration": 0.07731431249999332
                },
                {
                    "name": "C4",
                    "midi": 60,
                    "time": 267.6106069999947,
                    "velocity": 0.5354330708661418,
                    "duration": 0.07731431249999332
                },
                {
                    "name": "D3",
                    "midi": 50,
                    "time": 267.71369274999466,
                    "velocity": 0.47244094488188976,
                    "duration": 0.07731431249999332
                },
                {
                    "name": "D4",
                    "midi": 62,
                    "time": 267.71369274999466,
                    "velocity": 0.5669291338582677,
                    "duration": 0.07731431249999332
                },
                {
                    "name": "D#3",
                    "midi": 51,
                    "time": 267.81677849999465,
                    "velocity": 0.49606299212598426,
                    "duration": 0.07731431249999332
                },
                {
                    "name": "D#4",
                    "midi": 63,
                    "time": 267.81677849999465,
                    "velocity": 0.5905511811023622,
                    "duration": 0.07731431249999332
                },
                {
                    "name": "F3",
                    "midi": 53,
                    "time": 267.91986424999465,
                    "velocity": 0.5275590551181102,
                    "duration": 0.07731431249999332
                },
                {
                    "name": "F4",
                    "midi": 65,
                    "time": 267.91986424999465,
                    "velocity": 0.6141732283464567,
                    "duration": 0.07731431249999332
                },
                {
                    "name": "G3",
                    "midi": 55,
                    "time": 268.02294999999464,
                    "velocity": 0.4330708661417323,
                    "duration": 0.4123429999999644
                },
                {
                    "name": "B3",
                    "midi": 59,
                    "time": 268.02294999999464,
                    "velocity": 0.4330708661417323,
                    "duration": 0.4123429999999644
                },
                {
                    "name": "D4",
                    "midi": 62,
                    "time": 268.02294999999464,
                    "velocity": 0.4330708661417323,
                    "duration": 0.4123429999999644
                },
                {
                    "name": "G4",
                    "midi": 67,
                    "time": 268.02294999999464,
                    "velocity": 0.5196850393700787,
                    "duration": 0.4123429999999644
                },
                {
                    "name": "C3",
                    "midi": 48,
                    "time": 268.4352929999946,
                    "velocity": 0.44881889763779526,
                    "duration": 0.07731431249999332
                },
                {
                    "name": "C4",
                    "midi": 60,
                    "time": 268.4352929999946,
                    "velocity": 0.5354330708661418,
                    "duration": 0.07731431249999332
                },
                {
                    "name": "D3",
                    "midi": 50,
                    "time": 268.5383787499946,
                    "velocity": 0.47244094488188976,
                    "duration": 0.07731431249999332
                },
                {
                    "name": "D4",
                    "midi": 62,
                    "time": 268.5383787499946,
                    "velocity": 0.5669291338582677,
                    "duration": 0.07731431249999332
                },
                {
                    "name": "D#3",
                    "midi": 51,
                    "time": 268.6414644999946,
                    "velocity": 0.49606299212598426,
                    "duration": 0.07731431249999332
                },
                {
                    "name": "D#4",
                    "midi": 63,
                    "time": 268.6414644999946,
                    "velocity": 0.5905511811023622,
                    "duration": 0.07731431249999332
                },
                {
                    "name": "F3",
                    "midi": 53,
                    "time": 268.7445502499946,
                    "velocity": 0.5275590551181102,
                    "duration": 0.07731431249999332
                },
                {
                    "name": "F4",
                    "midi": 65,
                    "time": 268.7445502499946,
                    "velocity": 0.6141732283464567,
                    "duration": 0.07731431249999332
                },
                {
                    "name": "G3",
                    "midi": 55,
                    "time": 268.84763599999457,
                    "velocity": 0.4330708661417323,
                    "duration": 0.4123429999999644
                },
                {
                    "name": "B3",
                    "midi": 59,
                    "time": 268.84763599999457,
                    "velocity": 0.4330708661417323,
                    "duration": 0.4123429999999644
                },
                {
                    "name": "D4",
                    "midi": 62,
                    "time": 268.84763599999457,
                    "velocity": 0.4330708661417323,
                    "duration": 0.4123429999999644
                },
                {
                    "name": "G4",
                    "midi": 67,
                    "time": 268.84763599999457,
                    "velocity": 0.5196850393700787,
                    "duration": 0.4123429999999644
                },
                {
                    "name": "C2",
                    "midi": 36,
                    "time": 269.25997899999453,
                    "velocity": 0.4566929133858268,
                    "duration": 0.07731431250005016
                },
                {
                    "name": "C3",
                    "midi": 48,
                    "time": 269.25997899999453,
                    "velocity": 0.5433070866141733,
                    "duration": 0.07731431250005016
                },
                {
                    "name": "D2",
                    "midi": 38,
                    "time": 269.3630647499946,
                    "velocity": 0.49606299212598426,
                    "duration": 0.07731431249999332
                },
                {
                    "name": "D3",
                    "midi": 50,
                    "time": 269.3630647499946,
                    "velocity": 0.5826771653543307,
                    "duration": 0.07731431249999332
                },
                {
                    "name": "D#2",
                    "midi": 39,
                    "time": 269.46615049999457,
                    "velocity": 0.5196850393700787,
                    "duration": 0.07731431249999332
                },
                {
                    "name": "D#3",
                    "midi": 51,
                    "time": 269.46615049999457,
                    "velocity": 0.6141732283464567,
                    "duration": 0.07731431249999332
                },
                {
                    "name": "F2",
                    "midi": 41,
                    "time": 269.56923624999456,
                    "velocity": 0.5511811023622047,
                    "duration": 0.07731431249999332
                },
                {
                    "name": "F3",
                    "midi": 53,
                    "time": 269.56923624999456,
                    "velocity": 0.6456692913385826,
                    "duration": 0.07731431249999332
                },
                {
                    "name": "G2",
                    "midi": 43,
                    "time": 269.67232199999455,
                    "velocity": 0.4566929133858268,
                    "duration": 0.4123430000000212
                },
                {
                    "name": "B2",
                    "midi": 47,
                    "time": 269.67232199999455,
                    "velocity": 0.4566929133858268,
                    "duration": 0.4123430000000212
                },
                {
                    "name": "D3",
                    "midi": 50,
                    "time": 269.67232199999455,
                    "velocity": 0.4566929133858268,
                    "duration": 0.4123430000000212
                },
                {
                    "name": "G3",
                    "midi": 55,
                    "time": 269.67232199999455,
                    "velocity": 0.5511811023622047,
                    "duration": 0.4123430000000212
                },
                {
                    "name": "C2",
                    "midi": 36,
                    "time": 270.0846649999946,
                    "velocity": 0.5039370078740157,
                    "duration": 0.07731431249999332
                },
                {
                    "name": "C3",
                    "midi": 48,
                    "time": 270.0846649999946,
                    "velocity": 0.5905511811023622,
                    "duration": 0.07731431249999332
                },
                {
                    "name": "D2",
                    "midi": 38,
                    "time": 270.18775074999456,
                    "velocity": 0.5275590551181102,
                    "duration": 0.07731431249999332
                },
                {
                    "name": "D3",
                    "midi": 50,
                    "time": 270.18775074999456,
                    "velocity": 0.6299212598425197,
                    "duration": 0.07731431249999332
                },
                {
                    "name": "D#2",
                    "midi": 39,
                    "time": 270.29083649999455,
                    "velocity": 0.5511811023622047,
                    "duration": 0.07731431249999332
                },
                {
                    "name": "D#3",
                    "midi": 51,
                    "time": 270.29083649999455,
                    "velocity": 0.6692913385826772,
                    "duration": 0.07731431249999332
                },
                {
                    "name": "F2",
                    "midi": 41,
                    "time": 270.39392224999455,
                    "velocity": 0.5905511811023622,
                    "duration": 0.07731431249999332
                },
                {
                    "name": "F3",
                    "midi": 53,
                    "time": 270.39392224999455,
                    "velocity": 0.7007874015748031,
                    "duration": 0.07731431249999332
                },
                {
                    "name": "G2",
                    "midi": 43,
                    "time": 270.49700799999454,
                    "velocity": 0.4409448818897638,
                    "duration": 0.40804776041665036
                },
                {
                    "name": "B2",
                    "midi": 47,
                    "time": 270.49700799999454,
                    "velocity": 0.4409448818897638,
                    "duration": 0.40804776041665036
                },
                {
                    "name": "D3",
                    "midi": 50,
                    "time": 270.49700799999454,
                    "velocity": 0.49606299212598426,
                    "duration": 0.40804776041665036
                },
                {
                    "name": "G3",
                    "midi": 55,
                    "time": 270.49700799999454,
                    "velocity": 0.5905511811023622,
                    "duration": 0.40804776041665036
                },
                {
                    "name": "F2",
                    "midi": 41,
                    "time": 273.79575199999454,
                    "velocity": 0.4409448818897638,
                    "duration": 0.40804776041665036
                },
                {
                    "name": "B2",
                    "midi": 47,
                    "time": 273.79575199999454,
                    "velocity": 0.4409448818897638,
                    "duration": 0.40804776041665036
                },
                {
                    "name": "D3",
                    "midi": 50,
                    "time": 273.79575199999454,
                    "velocity": 0.49606299212598426,
                    "duration": 0.40804776041665036
                },
                {
                    "name": "F3",
                    "midi": 53,
                    "time": 273.79575199999454,
                    "velocity": 0.5905511811023622,
                    "duration": 0.40804776041665036
                },
                {
                    "name": "F2",
                    "midi": 41,
                    "time": 277.09449599999454,
                    "velocity": 0.4409448818897638,
                    "duration": 0.40804776041665036
                },
                {
                    "name": "B2",
                    "midi": 47,
                    "time": 277.09449599999454,
                    "velocity": 0.4409448818897638,
                    "duration": 0.40804776041665036
                },
                {
                    "name": "C#3",
                    "midi": 49,
                    "time": 277.09449599999454,
                    "velocity": 0.49606299212598426,
                    "duration": 0.40804776041665036
                },
                {
                    "name": "F3",
                    "midi": 53,
                    "time": 277.09449599999454,
                    "velocity": 0.5905511811023622,
                    "duration": 0.40804776041665036
                },
                {
                    "name": "F#2",
                    "midi": 42,
                    "time": 278.7438679999945,
                    "velocity": 0.4409448818897638,
                    "duration": 0.40804776041665036
                },
                {
                    "name": "B2",
                    "midi": 47,
                    "time": 278.7438679999945,
                    "velocity": 0.4409448818897638,
                    "duration": 0.40804776041665036
                },
                {
                    "name": "D3",
                    "midi": 50,
                    "time": 278.7438679999945,
                    "velocity": 0.49606299212598426,
                    "duration": 0.40804776041665036
                },
                {
                    "name": "F#3",
                    "midi": 54,
                    "time": 278.7438679999945,
                    "velocity": 0.5905511811023622,
                    "duration": 0.40804776041665036
                },
                {
                    "name": "F2",
                    "midi": 41,
                    "time": 280.3932399999945,
                    "velocity": 0.4409448818897638,
                    "duration": 0.40804776041665036
                },
                {
                    "name": "G#2",
                    "midi": 44,
                    "time": 280.3932399999945,
                    "velocity": 0.4409448818897638,
                    "duration": 0.40804776041665036
                },
                {
                    "name": "C#3",
                    "midi": 49,
                    "time": 280.3932399999945,
                    "velocity": 0.49606299212598426,
                    "duration": 0.40804776041665036
                },
                {
                    "name": "F3",
                    "midi": 53,
                    "time": 280.3932399999945,
                    "velocity": 0.5905511811023622,
                    "duration": 0.40804776041665036
                },
                {
                    "name": "F#2",
                    "midi": 42,
                    "time": 282.04261199999445,
                    "velocity": 0.4409448818897638,
                    "duration": 0.40804776041665036
                },
                {
                    "name": "B2",
                    "midi": 47,
                    "time": 282.04261199999445,
                    "velocity": 0.4409448818897638,
                    "duration": 0.40804776041665036
                },
                {
                    "name": "D3",
                    "midi": 50,
                    "time": 282.04261199999445,
                    "velocity": 0.49606299212598426,
                    "duration": 0.40804776041665036
                },
                {
                    "name": "F#3",
                    "midi": 54,
                    "time": 282.04261199999445,
                    "velocity": 0.5905511811023622,
                    "duration": 0.40804776041665036
                },
                {
                    "name": "F2",
                    "midi": 41,
                    "time": 283.6919839999944,
                    "velocity": 0.4409448818897638,
                    "duration": 0.40804776041665036
                },
                {
                    "name": "B2",
                    "midi": 47,
                    "time": 283.6919839999944,
                    "velocity": 0.4409448818897638,
                    "duration": 0.40804776041665036
                },
                {
                    "name": "D3",
                    "midi": 50,
                    "time": 283.6919839999944,
                    "velocity": 0.49606299212598426,
                    "duration": 0.40804776041665036
                },
                {
                    "name": "F3",
                    "midi": 53,
                    "time": 283.6919839999944,
                    "velocity": 0.5905511811023622,
                    "duration": 0.40804776041665036
                },
                {
                    "name": "F1",
                    "midi": 29,
                    "time": 284.5166699999944,
                    "velocity": 0.4409448818897638,
                    "duration": 0.40804776041665036
                },
                {
                    "name": "F2",
                    "midi": 41,
                    "time": 284.5166699999944,
                    "velocity": 0.5905511811023622,
                    "duration": 0.40804776041665036
                },
                {
                    "name": "F#1",
                    "midi": 30,
                    "time": 285.3413559999944,
                    "velocity": 0.41732283464566927,
                    "duration": 0.40804776041665036
                },
                {
                    "name": "F#2",
                    "midi": 42,
                    "time": 285.3413559999944,
                    "velocity": 0.5039370078740157,
                    "duration": 0.40804776041665036
                },
                {
                    "name": "A1",
                    "midi": 33,
                    "time": 286.1660419999944,
                    "velocity": 0.3858267716535433,
                    "duration": 0.40804776041665036
                },
                {
                    "name": "A2",
                    "midi": 45,
                    "time": 286.1660419999944,
                    "velocity": 0.4645669291338583,
                    "duration": 0.40804776041665036
                },
                {
                    "name": "C#2",
                    "midi": 37,
                    "time": 286.99072799999436,
                    "velocity": 0.3700787401574803,
                    "duration": 0.40804776041665036
                },
                {
                    "name": "C#3",
                    "midi": 49,
                    "time": 286.99072799999436,
                    "velocity": 0.44881889763779526,
                    "duration": 0.40804776041665036
                },
                {
                    "name": "E2",
                    "midi": 40,
                    "time": 287.81541399999435,
                    "velocity": 0.36220472440944884,
                    "duration": 0.40804776041665036
                },
                {
                    "name": "E3",
                    "midi": 52,
                    "time": 287.81541399999435,
                    "velocity": 0.4330708661417323,
                    "duration": 0.40804776041665036
                },
                {
                    "name": "G#2",
                    "midi": 44,
                    "time": 288.64009999999433,
                    "velocity": 0.3464566929133858,
                    "duration": 0.40804776041665036
                },
                {
                    "name": "G#3",
                    "midi": 56,
                    "time": 288.64009999999433,
                    "velocity": 0.41732283464566927,
                    "duration": 0.40804776041665036
                },
                {
                    "name": "A2",
                    "midi": 45,
                    "time": 289.4647859999943,
                    "velocity": 0.3700787401574803,
                    "duration": 0.40804776041665036
                },
                {
                    "name": "A3",
                    "midi": 57,
                    "time": 289.4647859999943,
                    "velocity": 0.4409448818897638,
                    "duration": 0.40804776041665036
                },
                {
                    "name": "G#2",
                    "midi": 44,
                    "time": 290.2894719999943,
                    "velocity": 0.3464566929133858,
                    "duration": 0.40804776041665036
                },
                {
                    "name": "G#3",
                    "midi": 56,
                    "time": 290.2894719999943,
                    "velocity": 0.41732283464566927,
                    "duration": 0.40804776041665036
                },
                {
                    "name": "G#1",
                    "midi": 32,
                    "time": 291.5265009999943,
                    "velocity": 0.25196850393700787,
                    "duration": 0.1030857499999911
                },
                {
                    "name": "C2",
                    "midi": 36,
                    "time": 291.6295867499943,
                    "velocity": 0.2755905511811024,
                    "duration": 0.1030857499999911
                },
                {
                    "name": "D#2",
                    "midi": 39,
                    "time": 291.7326724999943,
                    "velocity": 0.2992125984251969,
                    "duration": 0.1030857499999911
                },
                {
                    "name": "G#2",
                    "midi": 44,
                    "time": 291.8357582499943,
                    "velocity": 0.3228346456692913,
                    "duration": 0.1030857499999911
                },
                {
                    "name": "A2",
                    "midi": 45,
                    "time": 291.9388439999943,
                    "velocity": 0.3464566929133858,
                    "duration": 0.2061714999999822
                },
                {
                    "name": "G1",
                    "midi": 31,
                    "time": 293.1758729999943,
                    "velocity": 0.2125984251968504,
                    "duration": 0.1030857499999911
                },
                {
                    "name": "A#1",
                    "midi": 34,
                    "time": 293.2789587499943,
                    "velocity": 0.2283464566929134,
                    "duration": 0.1030857499999911
                },
                {
                    "name": "D#2",
                    "midi": 39,
                    "time": 293.38204449999427,
                    "velocity": 0.2440944881889764,
                    "duration": 0.1030857499999911
                },
                {
                    "name": "G2",
                    "midi": 43,
                    "time": 293.48513024999426,
                    "velocity": 0.2677165354330709,
                    "duration": 0.1030857499999911
                },
                {
                    "name": "G#2",
                    "midi": 44,
                    "time": 293.58821599999425,
                    "velocity": 0.25984251968503935,
                    "duration": 0.2061714999999822
                },
                {
                    "name": "G#1",
                    "midi": 32,
                    "time": 294.82524499999425,
                    "velocity": 0.1889763779527559,
                    "duration": 0.1030857499999911
                },
                {
                    "name": "C2",
                    "midi": 36,
                    "time": 294.92833074999425,
                    "velocity": 0.2047244094488189,
                    "duration": 0.1030857499999911
                },
                {
                    "name": "D#2",
                    "midi": 39,
                    "time": 295.03141649999424,
                    "velocity": 0.2204724409448819,
                    "duration": 0.1030857499999911
                },
                {
                    "name": "G#2",
                    "midi": 44,
                    "time": 295.1345022499942,
                    "velocity": 0.23622047244094488,
                    "duration": 0.1030857499999911
                },
                {
                    "name": "A2",
                    "midi": 45,
                    "time": 295.2375879999942,
                    "velocity": 0.25984251968503935,
                    "duration": 0.20445340416665658
                },
                {
                    "name": "G1",
                    "midi": 31,
                    "time": 296.4746169999942,
                    "velocity": 0.1889763779527559,
                    "duration": 0.1030857499999911
                },
                {
                    "name": "A#1",
                    "midi": 34,
                    "time": 296.5777027499942,
                    "velocity": 0.2047244094488189,
                    "duration": 0.1030857499999911
                },
                {
                    "name": "D#2",
                    "midi": 39,
                    "time": 296.6807884999942,
                    "velocity": 0.2125984251968504,
                    "duration": 0.1030857499999911
                },
                {
                    "name": "G2",
                    "midi": 43,
                    "time": 296.7838742499942,
                    "velocity": 0.23622047244094488,
                    "duration": 0.1030857499999911
                },
                {
                    "name": "G#2",
                    "midi": 44,
                    "time": 296.8869599999942,
                    "velocity": 0.25984251968503935,
                    "duration": 0.20445340416665658
                },
                {
                    "name": "G#2",
                    "midi": 44,
                    "time": 298.12398899999414,
                    "velocity": 0.18110236220472442,
                    "duration": 0.1030857499999911
                },
                {
                    "name": "C3",
                    "midi": 48,
                    "time": 298.12398899999414,
                    "velocity": 0.2204724409448819,
                    "duration": 0.1030857499999911
                },
                {
                    "name": "G#2",
                    "midi": 44,
                    "time": 298.3301604999941,
                    "velocity": 0.18110236220472442,
                    "duration": 0.1030857499999911
                },
                {
                    "name": "C3",
                    "midi": 48,
                    "time": 298.3301604999941,
                    "velocity": 0.2204724409448819,
                    "duration": 0.1030857499999911
                },
                {
                    "name": "G#2",
                    "midi": 44,
                    "time": 298.5363319999941,
                    "velocity": 0.2204724409448819,
                    "duration": 0.4123430000000212
                },
                {
                    "name": "C3",
                    "midi": 48,
                    "time": 298.5363319999941,
                    "velocity": 0.25984251968503935,
                    "duration": 0.4123430000000212
                },
                {
                    "name": "G#2",
                    "midi": 44,
                    "time": 299.7733609999941,
                    "velocity": 0.18110236220472442,
                    "duration": 0.1030857499999911
                },
                {
                    "name": "C3",
                    "midi": 48,
                    "time": 299.7733609999941,
                    "velocity": 0.2204724409448819,
                    "duration": 0.1030857499999911
                },
                {
                    "name": "G#2",
                    "midi": 44,
                    "time": 299.9795324999941,
                    "velocity": 0.18110236220472442,
                    "duration": 0.1030857499999911
                },
                {
                    "name": "C3",
                    "midi": 48,
                    "time": 299.9795324999941,
                    "velocity": 0.2204724409448819,
                    "duration": 0.1030857499999911
                },
                {
                    "name": "G#2",
                    "midi": 44,
                    "time": 300.1857039999941,
                    "velocity": 0.2204724409448819,
                    "duration": 0.4123430000000212
                },
                {
                    "name": "C3",
                    "midi": 48,
                    "time": 300.1857039999941,
                    "velocity": 0.25984251968503935,
                    "duration": 0.4123430000000212
                },
                {
                    "name": "A2",
                    "midi": 45,
                    "time": 301.4227329999941,
                    "velocity": 0.18110236220472442,
                    "duration": 0.1030857499999911
                },
                {
                    "name": "C#3",
                    "midi": 49,
                    "time": 301.4227329999941,
                    "velocity": 0.2204724409448819,
                    "duration": 0.1030857499999911
                },
                {
                    "name": "A2",
                    "midi": 45,
                    "time": 301.62890449999406,
                    "velocity": 0.18110236220472442,
                    "duration": 0.1030857499999911
                },
                {
                    "name": "C#3",
                    "midi": 49,
                    "time": 301.62890449999406,
                    "velocity": 0.2204724409448819,
                    "duration": 0.1030857499999911
                },
                {
                    "name": "A2",
                    "midi": 45,
                    "time": 301.83507599999405,
                    "velocity": 0.2204724409448819,
                    "duration": 0.4123430000000212
                },
                {
                    "name": "C#3",
                    "midi": 49,
                    "time": 301.83507599999405,
                    "velocity": 0.25984251968503935,
                    "duration": 0.4123430000000212
                },
                {
                    "name": "A2",
                    "midi": 45,
                    "time": 303.0721049999941,
                    "velocity": 0.18110236220472442,
                    "duration": 0.1030857499999911
                },
                {
                    "name": "C#3",
                    "midi": 49,
                    "time": 303.0721049999941,
                    "velocity": 0.2204724409448819,
                    "duration": 0.1030857499999911
                },
                {
                    "name": "A2",
                    "midi": 45,
                    "time": 303.2782764999941,
                    "velocity": 0.18110236220472442,
                    "duration": 0.1030857499999911
                },
                {
                    "name": "C#3",
                    "midi": 49,
                    "time": 303.2782764999941,
                    "velocity": 0.2204724409448819,
                    "duration": 0.1030857499999911
                },
                {
                    "name": "C3",
                    "midi": 48,
                    "time": 303.4844479999941,
                    "velocity": 0.2204724409448819,
                    "duration": 0.4123430000000212
                },
                {
                    "name": "D#3",
                    "midi": 51,
                    "time": 303.4844479999941,
                    "velocity": 0.25984251968503935,
                    "duration": 0.4123430000000212
                },
                {
                    "name": "C3",
                    "midi": 48,
                    "time": 304.7214769999941,
                    "velocity": 0.18110236220472442,
                    "duration": 0.1030857499999911
                },
                {
                    "name": "D#3",
                    "midi": 51,
                    "time": 304.7214769999941,
                    "velocity": 0.2204724409448819,
                    "duration": 0.1030857499999911
                },
                {
                    "name": "C3",
                    "midi": 48,
                    "time": 304.92764849999406,
                    "velocity": 0.18110236220472442,
                    "duration": 0.1030857499999911
                },
                {
                    "name": "D#3",
                    "midi": 51,
                    "time": 304.92764849999406,
                    "velocity": 0.2204724409448819,
                    "duration": 0.1030857499999911
                },
                {
                    "name": "C3",
                    "midi": 48,
                    "time": 305.13381999999405,
                    "velocity": 0.2204724409448819,
                    "duration": 0.4123430000000212
                },
                {
                    "name": "D#3",
                    "midi": 51,
                    "time": 305.13381999999405,
                    "velocity": 0.25984251968503935,
                    "duration": 0.4123430000000212
                },
                {
                    "name": "C3",
                    "midi": 48,
                    "time": 305.9585059999941,
                    "velocity": 0.2204724409448819,
                    "duration": 0.4123430000000212
                },
                {
                    "name": "D#3",
                    "midi": 51,
                    "time": 305.9585059999941,
                    "velocity": 0.25984251968503935,
                    "duration": 0.4123430000000212
                },
                {
                    "name": "C3",
                    "midi": 48,
                    "time": 306.78319199999413,
                    "velocity": 0.2204724409448819,
                    "duration": 0.4123429999999644
                },
                {
                    "name": "D#3",
                    "midi": 51,
                    "time": 306.78319199999413,
                    "velocity": 0.25984251968503935,
                    "duration": 0.4123429999999644
                },
                {
                    "name": "C3",
                    "midi": 48,
                    "time": 307.6078779999941,
                    "velocity": 0.2125984251968504,
                    "duration": 0.4123430000000212
                },
                {
                    "name": "D#3",
                    "midi": 51,
                    "time": 307.6078779999941,
                    "velocity": 0.25196850393700787,
                    "duration": 0.4123430000000212
                },
                {
                    "name": "C3",
                    "midi": 48,
                    "time": 308.43256399999416,
                    "velocity": 0.2047244094488189,
                    "duration": 0.4123429999999644
                },
                {
                    "name": "D#3",
                    "midi": 51,
                    "time": 308.43256399999416,
                    "velocity": 0.23622047244094488,
                    "duration": 0.4123429999999644
                },
                {
                    "name": "C3",
                    "midi": 48,
                    "time": 309.25724999999414,
                    "velocity": 0.1968503937007874,
                    "duration": 0.4123430000000212
                },
                {
                    "name": "D#3",
                    "midi": 51,
                    "time": 309.25724999999414,
                    "velocity": 0.2283464566929134,
                    "duration": 0.4123430000000212
                }
            ],
            "controlChanges": {
                "7": [
                    {
                        "number": 7,
                        "time": 0,
                        "value": 0.7874015748031497
                    }
                ],
                "10": [
                    {
                        "number": 10,
                        "time": 0,
                        "value": 0.5039370078740157
                    }
                ],
                "64": [
                    {
                        "number": 64,
                        "time": 1.697478683333333,
                        "value": 1
                    },
                    {
                        "number": 64,
                        "time": 2.4826484791666665,
                        "value": 0
                    },
                    {
                        "number": 64,
                        "time": 6.645594683333333,
                        "value": 1
                    },
                    {
                        "number": 64,
                        "time": 7.430764479166665,
                        "value": 0
                    },
                    {
                        "number": 64,
                        "time": 9.380803249999998,
                        "value": 1
                    },
                    {
                        "number": 64,
                        "time": 10.73552181458333,
                        "value": 0
                    },
                    {
                        "number": 64,
                        "time": 10.951142841666664,
                        "value": 1
                    },
                    {
                        "number": 64,
                        "time": 11.549040191666665,
                        "value": 0
                    },
                    {
                        "number": 64,
                        "time": 12.679547249999997,
                        "value": 1
                    },
                    {
                        "number": 64,
                        "time": 14.036842958333331,
                        "value": 0
                    },
                    {
                        "number": 64,
                        "time": 14.249886841666664,
                        "value": 1
                    },
                    {
                        "number": 64,
                        "time": 14.84864323958333,
                        "value": 0
                    },
                    {
                        "number": 64,
                        "time": 15.978291249999996,
                        "value": 1
                    },
                    {
                        "number": 64,
                        "time": 17.326996479166663,
                        "value": 0
                    },
                    {
                        "number": 64,
                        "time": 17.548630841666665,
                        "value": 1
                    },
                    {
                        "number": 64,
                        "time": 18.143092,
                        "value": 0
                    },
                    {
                        "number": 64,
                        "time": 19.795041143749998,
                        "value": 0
                    },
                    {
                        "number": 64,
                        "time": 21.496815066666674,
                        "value": 1
                    },
                    {
                        "number": 64,
                        "time": 23.111825150000033,
                        "value": 0
                    },
                    {
                        "number": 64,
                        "time": 23.1307242041667,
                        "value": 1
                    },
                    {
                        "number": 64,
                        "time": 24.335968431250052,
                        "value": 0
                    },
                    {
                        "number": 64,
                        "time": 29.736802683333426,
                        "value": 1
                    },
                    {
                        "number": 64,
                        "time": 30.52197247916676,
                        "value": 0
                    },
                    {
                        "number": 64,
                        "time": 34.68491868333341,
                        "value": 1
                    },
                    {
                        "number": 64,
                        "time": 35.47008847916674,
                        "value": 0
                    },
                    {
                        "number": 64,
                        "time": 38.12368749375009,
                        "value": 1
                    },
                    {
                        "number": 64,
                        "time": 38.77398676666676,
                        "value": 0
                    },
                    {
                        "number": 64,
                        "time": 40.5977454937501,
                        "value": 1
                    },
                    {
                        "number": 64,
                        "time": 41.28240668333343,
                        "value": 0
                    },
                    {
                        "number": 64,
                        "time": 43.902502829166764,
                        "value": 1
                    },
                    {
                        "number": 64,
                        "time": 44.533044000000096,
                        "value": 0
                    },
                    {
                        "number": 64,
                        "time": 44.75897360208344,
                        "value": 1
                    },
                    {
                        "number": 64,
                        "time": 45.357730000000096,
                        "value": 0
                    },
                    {
                        "number": 64,
                        "time": 47.2983192437501,
                        "value": 1
                    },
                    {
                        "number": 64,
                        "time": 47.83608323958343,
                        "value": 0
                    },
                    {
                        "number": 64,
                        "time": 48.057717602083436,
                        "value": 1
                    },
                    {
                        "number": 64,
                        "time": 48.65991019166676,
                        "value": 0
                    },
                    {
                        "number": 64,
                        "time": 50.5970632437501,
                        "value": 1
                    },
                    {
                        "number": 64,
                        "time": 51.1305320000001,
                        "value": 0
                    },
                    {
                        "number": 64,
                        "time": 51.35646160208344,
                        "value": 1
                    },
                    {
                        "number": 64,
                        "time": 54.43786647916672,
                        "value": 0
                    },
                    {
                        "number": 64,
                        "time": 54.47824173125006,
                        "value": 1
                    },
                    {
                        "number": 64,
                        "time": 55.26255247916671,
                        "value": 0
                    },
                    {
                        "number": 64,
                        "time": 56.1697070791667,
                        "value": 1
                    },
                    {
                        "number": 64,
                        "time": 57.73746952708334,
                        "value": 0
                    },
                    {
                        "number": 64,
                        "time": 57.81907907916668,
                        "value": 1
                    },
                    {
                        "number": 64,
                        "time": 59.38598247916665,
                        "value": 0
                    },
                    {
                        "number": 64,
                        "time": 59.43666630624998,
                        "value": 1
                    },
                    {
                        "number": 64,
                        "time": 60.22183610208331,
                        "value": 0
                    },
                    {
                        "number": 64,
                        "time": 60.241594204166645,
                        "value": 1
                    },
                    {
                        "number": 64,
                        "time": 61.03535447916663,
                        "value": 0
                    },
                    {
                        "number": 64,
                        "time": 61.2526936020833,
                        "value": 1
                    },
                    {
                        "number": 64,
                        "time": 64.33409847916661,
                        "value": 0
                    },
                    {
                        "number": 64,
                        "time": 64.37447373124995,
                        "value": 1
                    },
                    {
                        "number": 64,
                        "time": 65.16050257499998,
                        "value": 0
                    },
                    {
                        "number": 64,
                        "time": 66.06593907916668,
                        "value": 1
                    },
                    {
                        "number": 64,
                        "time": 67.63284247916677,
                        "value": 0
                    },
                    {
                        "number": 64,
                        "time": 67.68524440208344,
                        "value": 1
                    },
                    {
                        "number": 64,
                        "time": 69.28307352708352,
                        "value": 0
                    },
                    {
                        "number": 64,
                        "time": 69.31915353958351,
                        "value": 1
                    },
                    {
                        "number": 64,
                        "time": 70.92299600000025,
                        "value": 0
                    },
                    {
                        "number": 64,
                        "time": 70.94876743750025,
                        "value": 1
                    },
                    {
                        "number": 64,
                        "time": 71.75627247916695,
                        "value": 0
                    },
                    {
                        "number": 64,
                        "time": 71.77345343750028,
                        "value": 1
                    },
                    {
                        "number": 64,
                        "time": 72.57236800000031,
                        "value": 0
                    },
                    {
                        "number": 64,
                        "time": 75.95615774375031,
                        "value": 1
                    },
                    {
                        "number": 64,
                        "time": 77.52392019166697,
                        "value": 0
                    },
                    {
                        "number": 64,
                        "time": 77.5874897375003,
                        "value": 1
                    },
                    {
                        "number": 64,
                        "time": 77.98093368333363,
                        "value": 0
                    },
                    {
                        "number": 64,
                        "time": 79.18188267083364,
                        "value": 1
                    },
                    {
                        "number": 64,
                        "time": 80.00656867083364,
                        "value": 0
                    },
                    {
                        "number": 64,
                        "time": 80.11566775625032,
                        "value": 1
                    },
                    {
                        "number": 64,
                        "time": 80.81922800000032,
                        "value": 0
                    },
                    {
                        "number": 64,
                        "time": 80.86733468333365,
                        "value": 1
                    },
                    {
                        "number": 64,
                        "time": 81.26163767708366,
                        "value": 0
                    },
                    {
                        "number": 64,
                        "time": 85.86441641458366,
                        "value": 1
                    },
                    {
                        "number": 64,
                        "time": 87.425306479167,
                        "value": 0
                    },
                    {
                        "number": 64,
                        "time": 87.48372173750033,
                        "value": 1
                    },
                    {
                        "number": 64,
                        "time": 87.87716568333366,
                        "value": 0
                    },
                    {
                        "number": 64,
                        "time": 89.0781146708337,
                        "value": 1
                    },
                    {
                        "number": 64,
                        "time": 89.9028006708337,
                        "value": 0
                    },
                    {
                        "number": 64,
                        "time": 90.01189975625037,
                        "value": 1
                    },
                    {
                        "number": 64,
                        "time": 90.71717809583372,
                        "value": 0
                    },
                    {
                        "number": 64,
                        "time": 90.76356668333372,
                        "value": 1
                    },
                    {
                        "number": 64,
                        "time": 91.15786967708372,
                        "value": 0
                    },
                    {
                        "number": 64,
                        "time": 92.36483200000042,
                        "value": 0
                    },
                    {
                        "number": 64,
                        "time": 92.41293868333375,
                        "value": 1
                    },
                    {
                        "number": 64,
                        "time": 92.80724167708375,
                        "value": 0
                    },
                    {
                        "number": 64,
                        "time": 94.01420400000042,
                        "value": 0
                    },
                    {
                        "number": 64,
                        "time": 94.06231068333375,
                        "value": 1
                    },
                    {
                        "number": 64,
                        "time": 94.45661367708375,
                        "value": 0
                    },
                    {
                        "number": 64,
                        "time": 108.89463201250027,
                        "value": 1
                    },
                    {
                        "number": 64,
                        "time": 110.50792400000034,
                        "value": 0
                    },
                    {
                        "number": 64,
                        "time": 110.550017347917,
                        "value": 1
                    },
                    {
                        "number": 64,
                        "time": 112.15729600000041,
                        "value": 0
                    },
                    {
                        "number": 64,
                        "time": 112.21828840208374,
                        "value": 1
                    },
                    {
                        "number": 64,
                        "time": 113.80666800000049,
                        "value": 0
                    },
                    {
                        "number": 64,
                        "time": 113.86766040208381,
                        "value": 1
                    },
                    {
                        "number": 64,
                        "time": 115.46291238333379,
                        "value": 0
                    },
                    {
                        "number": 64,
                        "time": 115.50414668333379,
                        "value": 1
                    },
                    {
                        "number": 64,
                        "time": 116.28931647916716,
                        "value": 0
                    },
                    {
                        "number": 64,
                        "time": 118.7547840000005,
                        "value": 0
                    },
                    {
                        "number": 64,
                        "time": 118.81577640208383,
                        "value": 1
                    },
                    {
                        "number": 64,
                        "time": 120.40415600000047,
                        "value": 0
                    },
                    {
                        "number": 64,
                        "time": 120.4522626833338,
                        "value": 1
                    },
                    {
                        "number": 64,
                        "time": 121.23743247916717,
                        "value": 0
                    },
                    {
                        "number": 64,
                        "time": 123.18747125000051,
                        "value": 1
                    },
                    {
                        "number": 64,
                        "time": 124.53617647916718,
                        "value": 0
                    },
                    {
                        "number": 64,
                        "time": 124.75781084166718,
                        "value": 1
                    },
                    {
                        "number": 64,
                        "time": 125.35227200000051,
                        "value": 0
                    },
                    {
                        "number": 64,
                        "time": 126.48621525000054,
                        "value": 1
                    },
                    {
                        "number": 64,
                        "time": 127.84179286250054,
                        "value": 0
                    },
                    {
                        "number": 64,
                        "time": 128.0565548416672,
                        "value": 1
                    },
                    {
                        "number": 64,
                        "time": 128.65101600000057,
                        "value": 0
                    },
                    {
                        "number": 64,
                        "time": 129.78495925000055,
                        "value": 1
                    },
                    {
                        "number": 64,
                        "time": 131.14225495833392,
                        "value": 0
                    },
                    {
                        "number": 64,
                        "time": 131.35529884166726,
                        "value": 1
                    },
                    {
                        "number": 64,
                        "time": 131.94976000000062,
                        "value": 0
                    },
                    {
                        "number": 64,
                        "time": 133.59913200000068,
                        "value": 0
                    },
                    {
                        "number": 64,
                        "time": 137.33942662916746,
                        "value": 1
                    },
                    {
                        "number": 64,
                        "time": 137.71311247291746,
                        "value": 0
                    },
                    {
                        "number": 64,
                        "time": 137.76637344375078,
                        "value": 1
                    },
                    {
                        "number": 64,
                        "time": 138.5652880062508,
                        "value": 0
                    },
                    {
                        "number": 64,
                        "time": 140.63817062916758,
                        "value": 1
                    },
                    {
                        "number": 64,
                        "time": 141.01185647291757,
                        "value": 0
                    },
                    {
                        "number": 64,
                        "time": 141.0651174437509,
                        "value": 1
                    },
                    {
                        "number": 64,
                        "time": 141.8459920000009,
                        "value": 0
                    },
                    {
                        "number": 64,
                        "time": 142.2875426291676,
                        "value": 1
                    },
                    {
                        "number": 64,
                        "time": 142.67669133541762,
                        "value": 0
                    },
                    {
                        "number": 64,
                        "time": 142.71448944375095,
                        "value": 1
                    },
                    {
                        "number": 64,
                        "time": 143.50309543125096,
                        "value": 0
                    },
                    {
                        "number": 64,
                        "time": 143.54948401875095,
                        "value": 1
                    },
                    {
                        "number": 64,
                        "time": 143.9162974791676,
                        "value": 0
                    },
                    {
                        "number": 64,
                        "time": 143.9712765458343,
                        "value": 1
                    },
                    {
                        "number": 64,
                        "time": 144.3286404791676,
                        "value": 0
                    },
                    {
                        "number": 64,
                        "time": 144.37932430625094,
                        "value": 1
                    },
                    {
                        "number": 64,
                        "time": 144.74012443125093,
                        "value": 0
                    },
                    {
                        "number": 64,
                        "time": 144.79166730625093,
                        "value": 1
                    },
                    {
                        "number": 64,
                        "time": 145.1533264791676,
                        "value": 0
                    },
                    {
                        "number": 64,
                        "time": 145.18854744375093,
                        "value": 1
                    },
                    {
                        "number": 64,
                        "time": 145.56566947916758,
                        "value": 0
                    },
                    {
                        "number": 64,
                        "time": 145.6060447312509,
                        "value": 1
                    },
                    {
                        "number": 64,
                        "time": 145.97801247916757,
                        "value": 0
                    },
                    {
                        "number": 64,
                        "time": 146.0183877312509,
                        "value": 1
                    },
                    {
                        "number": 64,
                        "time": 146.3894964312509,
                        "value": 0
                    },
                    {
                        "number": 64,
                        "time": 146.4384621625009,
                        "value": 1
                    },
                    {
                        "number": 64,
                        "time": 146.7941080000009,
                        "value": 0
                    },
                    {
                        "number": 64,
                        "time": 146.8430737312509,
                        "value": 1
                    },
                    {
                        "number": 64,
                        "time": 147.21504147916755,
                        "value": 0
                    },
                    {
                        "number": 64,
                        "time": 147.27002054583423,
                        "value": 1
                    },
                    {
                        "number": 64,
                        "time": 147.62738447916752,
                        "value": 0
                    },
                    {
                        "number": 64,
                        "time": 147.6823635458342,
                        "value": 1
                    },
                    {
                        "number": 64,
                        "time": 148.03629128750083,
                        "value": 0
                    },
                    {
                        "number": 64,
                        "time": 148.07494844375083,
                        "value": 1
                    },
                    {
                        "number": 64,
                        "time": 148.45121143125078,
                        "value": 0
                    },
                    {
                        "number": 64,
                        "time": 148.50275430625078,
                        "value": 1
                    },
                    {
                        "number": 64,
                        "time": 148.8644134791674,
                        "value": 0
                    },
                    {
                        "number": 64,
                        "time": 148.90478873125073,
                        "value": 1
                    },
                    {
                        "number": 64,
                        "time": 149.27332028750072,
                        "value": 0
                    },
                    {
                        "number": 64,
                        "time": 149.3025279166674,
                        "value": 1
                    },
                    {
                        "number": 64,
                        "time": 150.09285200000068,
                        "value": 0
                    },
                    {
                        "number": 64,
                        "time": 150.14181773125068,
                        "value": 1
                    },
                    {
                        "number": 64,
                        "time": 150.51378547916732,
                        "value": 0
                    },
                    {
                        "number": 64,
                        "time": 150.568764545834,
                        "value": 1
                    },
                    {
                        "number": 64,
                        "time": 150.9261284791673,
                        "value": 0
                    },
                    {
                        "number": 64,
                        "time": 150.98110754583396,
                        "value": 1
                    },
                    {
                        "number": 64,
                        "time": 151.3350352875006,
                        "value": 0
                    },
                    {
                        "number": 64,
                        "time": 151.3736924437506,
                        "value": 1
                    },
                    {
                        "number": 64,
                        "time": 151.74995543125056,
                        "value": 0
                    },
                    {
                        "number": 64,
                        "time": 151.80149830625055,
                        "value": 1
                    },
                    {
                        "number": 64,
                        "time": 152.16315747916718,
                        "value": 0
                    },
                    {
                        "number": 64,
                        "time": 152.2035327312505,
                        "value": 1
                    },
                    {
                        "number": 64,
                        "time": 152.5720642875005,
                        "value": 0
                    },
                    {
                        "number": 64,
                        "time": 152.60127191666717,
                        "value": 1
                    },
                    {
                        "number": 64,
                        "time": 153.39932743125044,
                        "value": 0
                    },
                    {
                        "number": 64,
                        "time": 153.45087030625044,
                        "value": 1
                    },
                    {
                        "number": 64,
                        "time": 153.81252947916707,
                        "value": 0
                    },
                    {
                        "number": 64,
                        "time": 153.8529047312504,
                        "value": 1
                    },
                    {
                        "number": 64,
                        "time": 154.22143628750038,
                        "value": 0
                    },
                    {
                        "number": 64,
                        "time": 154.25064391666706,
                        "value": 1
                    },
                    {
                        "number": 64,
                        "time": 155.04869943125033,
                        "value": 0
                    },
                    {
                        "number": 64,
                        "time": 155.10024230625032,
                        "value": 1
                    },
                    {
                        "number": 64,
                        "time": 155.46190147916695,
                        "value": 0
                    },
                    {
                        "number": 64,
                        "time": 155.50227673125028,
                        "value": 1
                    },
                    {
                        "number": 64,
                        "time": 155.87080828750027,
                        "value": 0
                    },
                    {
                        "number": 64,
                        "time": 155.90001591666694,
                        "value": 1
                    },
                    {
                        "number": 64,
                        "time": 156.6980714312502,
                        "value": 0
                    },
                    {
                        "number": 64,
                        "time": 156.7496143062502,
                        "value": 1
                    },
                    {
                        "number": 64,
                        "time": 157.11127347916684,
                        "value": 0
                    },
                    {
                        "number": 64,
                        "time": 157.15164873125016,
                        "value": 1
                    },
                    {
                        "number": 64,
                        "time": 157.49526789791682,
                        "value": 0
                    },
                    {
                        "number": 64,
                        "time": 157.55883744375015,
                        "value": 1
                    },
                    {
                        "number": 64,
                        "time": 158.34744343125007,
                        "value": 0
                    },
                    {
                        "number": 64,
                        "time": 158.38352344375008,
                        "value": 1
                    },
                    {
                        "number": 64,
                        "time": 159.17298847916666,
                        "value": 0
                    },
                    {
                        "number": 64,
                        "time": 159.21336373124998,
                        "value": 1
                    },
                    {
                        "number": 64,
                        "time": 159.99423828749994,
                        "value": 0
                    },
                    {
                        "number": 64,
                        "time": 160.0440630666666,
                        "value": 1
                    },
                    {
                        "number": 64,
                        "time": 160.82236047916655,
                        "value": 0
                    },
                    {
                        "number": 64,
                        "time": 160.86617192291655,
                        "value": 1
                    },
                    {
                        "number": 64,
                        "time": 161.64704647916648,
                        "value": 0
                    },
                    {
                        "number": 64,
                        "time": 161.69085792291648,
                        "value": 1
                    },
                    {
                        "number": 64,
                        "time": 162.4717324791664,
                        "value": 0
                    },
                    {
                        "number": 64,
                        "time": 162.52241630624974,
                        "value": 1
                    },
                    {
                        "number": 64,
                        "time": 163.28782799999968,
                        "value": 0
                    },
                    {
                        "number": 64,
                        "time": 163.72937862916632,
                        "value": 1
                    },
                    {
                        "number": 64,
                        "time": 164.11766828749967,
                        "value": 0
                    },
                    {
                        "number": 64,
                        "time": 164.5643732041663,
                        "value": 1
                    },
                    {
                        "number": 64,
                        "time": 164.93719999999962,
                        "value": 0
                    },
                    {
                        "number": 64,
                        "time": 165.4036630187496,
                        "value": 1
                    },
                    {
                        "number": 64,
                        "time": 165.7670402874996,
                        "value": 0
                    },
                    {
                        "number": 64,
                        "time": 166.2429528333329,
                        "value": 1
                    },
                    {
                        "number": 64,
                        "time": 166.58657199999956,
                        "value": 0
                    },
                    {
                        "number": 64,
                        "time": 167.02382738958286,
                        "value": 1
                    },
                    {
                        "number": 64,
                        "time": 167.84164100624955,
                        "value": 0
                    },
                    {
                        "number": 64,
                        "time": 168.24367543124953,
                        "value": 0
                    },
                    {
                        "number": 64,
                        "time": 168.27975544374954,
                        "value": 1
                    },
                    {
                        "number": 64,
                        "time": 169.06922047916612,
                        "value": 0
                    },
                    {
                        "number": 64,
                        "time": 169.10959573124944,
                        "value": 1
                    },
                    {
                        "number": 64,
                        "time": 169.89304743124939,
                        "value": 0
                    },
                    {
                        "number": 64,
                        "time": 169.9291274437494,
                        "value": 1
                    },
                    {
                        "number": 64,
                        "time": 170.71859247916598,
                        "value": 0
                    },
                    {
                        "number": 64,
                        "time": 170.78388012083263,
                        "value": 1
                    },
                    {
                        "number": 64,
                        "time": 171.53468799999925,
                        "value": 0
                    },
                    {
                        "number": 64,
                        "time": 171.9762386291659,
                        "value": 1
                    },
                    {
                        "number": 64,
                        "time": 172.36452828749924,
                        "value": 0
                    },
                    {
                        "number": 64,
                        "time": 172.81123320416586,
                        "value": 1
                    },
                    {
                        "number": 64,
                        "time": 173.1840599999992,
                        "value": 0
                    },
                    {
                        "number": 64,
                        "time": 173.65052301874917,
                        "value": 1
                    },
                    {
                        "number": 64,
                        "time": 174.01390028749918,
                        "value": 0
                    },
                    {
                        "number": 64,
                        "time": 174.48981283333248,
                        "value": 1
                    },
                    {
                        "number": 64,
                        "time": 174.83343199999914,
                        "value": 0
                    },
                    {
                        "number": 64,
                        "time": 175.2998950187491,
                        "value": 1
                    },
                    {
                        "number": 64,
                        "time": 175.66327228749913,
                        "value": 0
                    },
                    {
                        "number": 64,
                        "time": 176.13918483333242,
                        "value": 1
                    },
                    {
                        "number": 64,
                        "time": 176.48280399999908,
                        "value": 0
                    },
                    {
                        "number": 64,
                        "time": 183.08029199999908,
                        "value": 1
                    },
                    {
                        "number": 64,
                        "time": 183.90841419166568,
                        "value": 0
                    },
                    {
                        "number": 64,
                        "time": 183.953943731249,
                        "value": 1
                    },
                    {
                        "number": 64,
                        "time": 184.73481828749897,
                        "value": 0
                    },
                    {
                        "number": 64,
                        "time": 184.78378401874897,
                        "value": 1
                    },
                    {
                        "number": 64,
                        "time": 185.55864523958226,
                        "value": 0
                    },
                    {
                        "number": 64,
                        "time": 185.60331573124893,
                        "value": 1
                    },
                    {
                        "number": 64,
                        "time": 186.37903599999888,
                        "value": 0
                    },
                    {
                        "number": 64,
                        "time": 186.38762647916553,
                        "value": 0
                    },
                    {
                        "number": 64,
                        "time": 186.43315601874886,
                        "value": 1
                    },
                    {
                        "number": 64,
                        "time": 187.2037219999988,
                        "value": 0
                    },
                    {
                        "number": 64,
                        "time": 187.2526877312488,
                        "value": 1
                    },
                    {
                        "number": 64,
                        "time": 188.02840799999876,
                        "value": 0
                    },
                    {
                        "number": 64,
                        "time": 188.03699847916542,
                        "value": 0
                    },
                    {
                        "number": 64,
                        "time": 188.08252801874875,
                        "value": 1
                    },
                    {
                        "number": 64,
                        "time": 188.86168447916535,
                        "value": 0
                    },
                    {
                        "number": 64,
                        "time": 188.90205973124867,
                        "value": 1
                    },
                    {
                        "number": 64,
                        "time": 189.68465238333195,
                        "value": 0
                    },
                    {
                        "number": 64,
                        "time": 189.72674573124863,
                        "value": 1
                    },
                    {
                        "number": 64,
                        "time": 190.51019743124857,
                        "value": 0
                    },
                    {
                        "number": 64,
                        "time": 190.55143173124858,
                        "value": 1
                    },
                    {
                        "number": 64,
                        "time": 191.33488343124853,
                        "value": 0
                    },
                    {
                        "number": 64,
                        "time": 191.38127201874852,
                        "value": 1
                    },
                    {
                        "number": 64,
                        "time": 192.15785133541513,
                        "value": 0
                    },
                    {
                        "number": 64,
                        "time": 192.20080373124847,
                        "value": 1
                    },
                    {
                        "number": 64,
                        "time": 192.97652399999842,
                        "value": 0
                    },
                    {
                        "number": 64,
                        "time": 192.9842554312484,
                        "value": 0
                    },
                    {
                        "number": 64,
                        "time": 193.0306440187484,
                        "value": 1
                    },
                    {
                        "number": 64,
                        "time": 193.80722333541502,
                        "value": 0
                    },
                    {
                        "number": 64,
                        "time": 193.85017573124836,
                        "value": 1
                    },
                    {
                        "number": 64,
                        "time": 194.6258959999983,
                        "value": 0
                    },
                    {
                        "number": 64,
                        "time": 194.63448647916496,
                        "value": 0
                    },
                    {
                        "number": 64,
                        "time": 194.6800160187483,
                        "value": 1
                    },
                    {
                        "number": 64,
                        "time": 195.4591724791649,
                        "value": 0
                    },
                    {
                        "number": 64,
                        "time": 195.4995477312482,
                        "value": 1
                    },
                    {
                        "number": 64,
                        "time": 196.27526799999816,
                        "value": 0
                    },
                    {
                        "number": 64,
                        "time": 196.2821403833315,
                        "value": 0
                    },
                    {
                        "number": 64,
                        "time": 196.32938801874815,
                        "value": 1
                    },
                    {
                        "number": 64,
                        "time": 197.1076854312481,
                        "value": 0
                    },
                    {
                        "number": 64,
                        "time": 197.1489197312481,
                        "value": 1
                    },
                    {
                        "number": 64,
                        "time": 197.92463999999805,
                        "value": 0
                    },
                    {
                        "number": 64,
                        "time": 197.93237143124804,
                        "value": 0
                    },
                    {
                        "number": 64,
                        "time": 197.97876001874803,
                        "value": 1
                    },
                    {
                        "number": 64,
                        "time": 198.75705743124797,
                        "value": 0
                    },
                    {
                        "number": 64,
                        "time": 198.79829173124799,
                        "value": 1
                    },
                    {
                        "number": 64,
                        "time": 199.57401199999794,
                        "value": 0
                    },
                    {
                        "number": 64,
                        "time": 199.5826024791646,
                        "value": 0
                    },
                    {
                        "number": 64,
                        "time": 199.62813201874792,
                        "value": 1
                    },
                    {
                        "number": 64,
                        "time": 200.4055703833312,
                        "value": 0
                    },
                    {
                        "number": 64,
                        "time": 200.44766373124787,
                        "value": 1
                    },
                    {
                        "number": 64,
                        "time": 201.22338399999782,
                        "value": 0
                    },
                    {
                        "number": 64,
                        "time": 201.23025638333115,
                        "value": 0
                    },
                    {
                        "number": 64,
                        "time": 201.2775040187478,
                        "value": 1
                    },
                    {
                        "number": 64,
                        "time": 202.04806999999775,
                        "value": 0
                    },
                    {
                        "number": 64,
                        "time": 202.09703573124776,
                        "value": 1
                    },
                    {
                        "number": 64,
                        "time": 202.87962838333104,
                        "value": 0
                    },
                    {
                        "number": 64,
                        "time": 202.90711791666436,
                        "value": 1
                    },
                    {
                        "number": 64,
                        "time": 203.7060324791643,
                        "value": 0
                    },
                    {
                        "number": 64,
                        "time": 203.74640773124761,
                        "value": 1
                    },
                    {
                        "number": 64,
                        "time": 204.53071847916422,
                        "value": 0
                    },
                    {
                        "number": 64,
                        "time": 204.55648991666422,
                        "value": 1
                    },
                    {
                        "number": 64,
                        "time": 205.35540447916415,
                        "value": 0
                    },
                    {
                        "number": 64,
                        "time": 205.39577973124747,
                        "value": 1
                    },
                    {
                        "number": 64,
                        "time": 206.17923143124742,
                        "value": 0
                    },
                    {
                        "number": 64,
                        "time": 206.20586191666408,
                        "value": 1
                    },
                    {
                        "number": 64,
                        "time": 207.00563552708067,
                        "value": 0
                    },
                    {
                        "number": 64,
                        "time": 207.04515173124733,
                        "value": 1
                    },
                    {
                        "number": 64,
                        "time": 207.82946247916394,
                        "value": 0
                    },
                    {
                        "number": 64,
                        "time": 207.85523391666393,
                        "value": 1
                    },
                    {
                        "number": 64,
                        "time": 208.65414847916387,
                        "value": 0
                    },
                    {
                        "number": 64,
                        "time": 208.6945237312472,
                        "value": 1
                    },
                    {
                        "number": 64,
                        "time": 209.47024399999714,
                        "value": 0
                    },
                    {
                        "number": 64,
                        "time": 209.47539828749714,
                        "value": 0
                    },
                    {
                        "number": 64,
                        "time": 209.52436401874715,
                        "value": 1
                    },
                    {
                        "number": 64,
                        "time": 210.3026614312471,
                        "value": 0
                    },
                    {
                        "number": 64,
                        "time": 210.3438957312471,
                        "value": 1
                    },
                    {
                        "number": 64,
                        "time": 211.11961599999705,
                        "value": 0
                    },
                    {
                        "number": 64,
                        "time": 211.12648838333038,
                        "value": 0
                    },
                    {
                        "number": 64,
                        "time": 211.17373601874704,
                        "value": 1
                    },
                    {
                        "number": 64,
                        "time": 211.95031533541365,
                        "value": 0
                    },
                    {
                        "number": 64,
                        "time": 211.993267731247,
                        "value": 1
                    },
                    {
                        "number": 64,
                        "time": 212.7750013354136,
                        "value": 0
                    },
                    {
                        "number": 64,
                        "time": 212.7750013354136,
                        "value": 0
                    },
                    {
                        "number": 64,
                        "time": 212.82310801874695,
                        "value": 1
                    },
                    {
                        "number": 64,
                        "time": 213.60054638333023,
                        "value": 0
                    },
                    {
                        "number": 64,
                        "time": 213.6426397312469,
                        "value": 1
                    },
                    {
                        "number": 64,
                        "time": 214.41835999999685,
                        "value": 0
                    },
                    {
                        "number": 64,
                        "time": 214.42609143124685,
                        "value": 0
                    },
                    {
                        "number": 64,
                        "time": 214.47248001874684,
                        "value": 1
                    },
                    {
                        "number": 64,
                        "time": 215.2499183833301,
                        "value": 0
                    },
                    {
                        "number": 64,
                        "time": 215.2920117312468,
                        "value": 1
                    },
                    {
                        "number": 64,
                        "time": 216.06773199999674,
                        "value": 0
                    },
                    {
                        "number": 64,
                        "time": 217.75662020416337,
                        "value": 1
                    },
                    {
                        "number": 64,
                        "time": 219.36647599999657,
                        "value": 0
                    },
                    {
                        "number": 64,
                        "time": 221.0553642041632,
                        "value": 1
                    },
                    {
                        "number": 64,
                        "time": 222.6652199999964,
                        "value": 0
                    },
                    {
                        "number": 64,
                        "time": 224.35410820416303,
                        "value": 1
                    },
                    {
                        "number": 64,
                        "time": 225.1392779999963,
                        "value": 0
                    },
                    {
                        "number": 64,
                        "time": 225.96396399999622,
                        "value": 0
                    },
                    {
                        "number": 64,
                        "time": 227.65285220416285,
                        "value": 1
                    },
                    {
                        "number": 64,
                        "time": 228.43974009582945,
                        "value": 0
                    },
                    {
                        "number": 64,
                        "time": 229.26270799999605,
                        "value": 0
                    },
                    {
                        "number": 64,
                        "time": 230.91207999999602,
                        "value": 0
                    },
                    {
                        "number": 64,
                        "time": 232.561451999996,
                        "value": 0
                    },
                    {
                        "number": 64,
                        "time": 234.24003162916264,
                        "value": 1
                    },
                    {
                        "number": 64,
                        "time": 234.6429251020793,
                        "value": 0
                    },
                    {
                        "number": 64,
                        "time": 235.11368336041258,
                        "value": 1
                    },
                    {
                        "number": 64,
                        "time": 235.46417491041257,
                        "value": 0
                    },
                    {
                        "number": 64,
                        "time": 235.95125507916254,
                        "value": 1
                    },
                    {
                        "number": 64,
                        "time": 236.6969086708292,
                        "value": 0
                    },
                    {
                        "number": 64,
                        "time": 236.7639144083292,
                        "value": 1
                    },
                    {
                        "number": 64,
                        "time": 237.50956799999588,
                        "value": 0
                    },
                    {
                        "number": 64,
                        "time": 237.57829183332922,
                        "value": 1
                    },
                    {
                        "number": 64,
                        "time": 237.94166910207917,
                        "value": 0
                    },
                    {
                        "number": 64,
                        "time": 238.41242736041247,
                        "value": 1
                    },
                    {
                        "number": 64,
                        "time": 238.7586236708291,
                        "value": 0
                    },
                    {
                        "number": 64,
                        "time": 239.2499990791624,
                        "value": 1
                    },
                    {
                        "number": 64,
                        "time": 239.99221647916238,
                        "value": 0
                    },
                    {
                        "number": 64,
                        "time": 240.06265840832904,
                        "value": 1
                    },
                    {
                        "number": 64,
                        "time": 240.8083119999957,
                        "value": 0
                    },
                    {
                        "number": 64,
                        "time": 240.87703583332905,
                        "value": 1
                    },
                    {
                        "number": 64,
                        "time": 241.240413102079,
                        "value": 0
                    },
                    {
                        "number": 64,
                        "time": 241.7111713604123,
                        "value": 1
                    },
                    {
                        "number": 64,
                        "time": 242.07454862916228,
                        "value": 0
                    },
                    {
                        "number": 64,
                        "time": 242.54874307916225,
                        "value": 1
                    },
                    {
                        "number": 64,
                        "time": 243.2918195270789,
                        "value": 0
                    },
                    {
                        "number": 64,
                        "time": 243.3614024083289,
                        "value": 1
                    },
                    {
                        "number": 64,
                        "time": 244.10705599999557,
                        "value": 0
                    },
                    {
                        "number": 64,
                        "time": 244.19811507916222,
                        "value": 1
                    },
                    {
                        "number": 64,
                        "time": 244.9437686708289,
                        "value": 0
                    },
                    {
                        "number": 64,
                        "time": 245.0107744083289,
                        "value": 1
                    },
                    {
                        "number": 64,
                        "time": 245.75642799999557,
                        "value": 0
                    },
                    {
                        "number": 64,
                        "time": 264.34107062916127,
                        "value": 1
                    },
                    {
                        "number": 64,
                        "time": 264.5266249791613,
                        "value": 0
                    },
                    {
                        "number": 64,
                        "time": 264.56184594374463,
                        "value": 1
                    },
                    {
                        "number": 64,
                        "time": 264.73193743124466,
                        "value": 0
                    },
                    {
                        "number": 64,
                        "time": 265.9861473895779,
                        "value": 1
                    },
                    {
                        "number": 64,
                        "time": 266.1759969791613,
                        "value": 0
                    },
                    {
                        "number": 64,
                        "time": 266.22152651874467,
                        "value": 1
                    },
                    {
                        "number": 64,
                        "time": 266.38216847916135,
                        "value": 0
                    },
                    {
                        "number": 64,
                        "time": 267.223176389578,
                        "value": 1
                    },
                    {
                        "number": 64,
                        "time": 267.627787958328,
                        "value": 0
                    },
                    {
                        "number": 64,
                        "time": 268.04013095832795,
                        "value": 1
                    },
                    {
                        "number": 64,
                        "time": 268.4438834791613,
                        "value": 0
                    },
                    {
                        "number": 64,
                        "time": 268.8768436291612,
                        "value": 1
                    },
                    {
                        "number": 64,
                        "time": 269.26771043124455,
                        "value": 0
                    },
                    {
                        "number": 64,
                        "time": 269.75564964791124,
                        "value": 1
                    },
                    {
                        "number": 64,
                        "time": 270.09325547916126,
                        "value": 0
                    },
                    {
                        "number": 64,
                        "time": 270.1439393062446,
                        "value": 1
                    },
                    {
                        "number": 64,
                        "time": 270.49700799999454,
                        "value": 0
                    },
                    {
                        "number": 64,
                        "time": 297.28469918541083,
                        "value": 1
                    },
                    {
                        "number": 64,
                        "time": 301.43218252707743,
                        "value": 0
                    },
                    {
                        "number": 64,
                        "time": 301.4820073062441,
                        "value": 1
                    },
                    {
                        "number": 64,
                        "time": 302.2551504312441,
                        "value": 0
                    },
                    {
                        "number": 64,
                        "time": 302.3015390187441,
                        "value": 1
                    },
                    {
                        "number": 64,
                        "time": 303.49561562291075,
                        "value": 0
                    },
                    {
                        "number": 64,
                        "time": 303.5540308812441,
                        "value": 1
                    },
                    {
                        "number": 64,
                        "time": 306.78319199999413,
                        "value": 0
                    },
                    {
                        "number": 64,
                        "time": 306.9378206249941,
                        "value": 1
                    },
                    {
                        "number": 64,
                        "time": 308.4385773354108,
                        "value": 0
                    },
                    {
                        "number": 64,
                        "time": 308.6035145354108,
                        "value": 1
                    },
                    {
                        "number": 64,
                        "time": 309.26584047916083,
                        "value": 0
                    },
                    {
                        "number": 64,
                        "time": 309.4419453020775,
                        "value": 1
                    },
                    {
                        "number": 64,
                        "time": 310.0819359999942,
                        "value": 0
                    }
                ]
            },
            "id": 2,
            "name": "Piano left",
            "instrumentNumber": 0,
            "instrument": "acoustic grand piano",
            "instrumentFamily": "piano",
            "channelNumber": 0,
            "isPercussion": false
        },
        {
            "startTime": 0,
            "duration": 0,
            "length": 0,
            "notes": [],
            "controlChanges": {},
            "id": 3,
            "name": "Schubert Wandererfantasie D760  1. Satz"
        },
        {
            "startTime": 0,
            "duration": 0,
            "length": 0,
            "notes": [],
            "controlChanges": {},
            "id": 4,
            "name": "Copyright  2004 by Bernd Krger"
        },
        {
            "startTime": 0,
            "duration": 0,
            "length": 0,
            "notes": [],
            "controlChanges": {},
            "id": 5,
            "name": "http://www.piano-midi.de"
        },
        {
            "startTime": 0,
            "duration": 0,
            "length": 0,
            "notes": [],
            "controlChanges": {},
            "id": 6,
            "name": "Edition:  2014-03-15"
        },
        {
            "startTime": 0,
            "duration": 0,
            "length": 0,
            "notes": [],
            "controlChanges": {},
            "id": 7,
            "name": "Spur 7"
        }
    ]
}