{
    "header": {
        "PPQ": 480,
        "timeSignature": [
            4,
            4
        ],
        "bpm": 78.9999657666815,
        "name": "Impromptu Nr. 1 c-Moll"
    },
    "startTime": 0,
    "duration": 619.7471039999836,
    "tracks": [
        {
            "startTime": 0,
            "duration": 0,
            "length": 0,
            "notes": [],
            "controlChanges": {},
            "id": 0,
            "name": "Impromptu Nr. 1 c-Moll"
        },
        {
            "startTime": 0,
            "duration": 619.7471039999836,
            "length": 2418,
            "notes": [
                {
                    "name": "G4",
                    "midi": 67,
                    "time": 0,
                    "velocity": 0.6614173228346457,
                    "duration": 2.231013625
                },
                {
                    "name": "G5",
                    "midi": 79,
                    "time": 0,
                    "velocity": 0.7480314960629921,
                    "duration": 2.231013625
                },
                {
                    "name": "B4",
                    "midi": 71,
                    "time": 2.278482,
                    "velocity": 0.3464566929133858,
                    "duration": 0.5696205000000001
                },
                {
                    "name": "C5",
                    "midi": 72,
                    "time": 2.8481025,
                    "velocity": 0.2992125984251969,
                    "duration": 0.18987350000000003
                },
                {
                    "name": "D5",
                    "midi": 74,
                    "time": 3.037976,
                    "velocity": 0.4015748031496063,
                    "duration": 0.5348103583333335
                },
                {
                    "name": "D5",
                    "midi": 74,
                    "time": 3.79747,
                    "velocity": 0.33070866141732286,
                    "duration": 0.5348103583333335
                },
                {
                    "name": "D5",
                    "midi": 74,
                    "time": 4.556964000000001,
                    "velocity": 0.33070866141732286,
                    "duration": 0.534810358333333
                },
                {
                    "name": "C5",
                    "midi": 72,
                    "time": 5.316458000000001,
                    "velocity": 0.36220472440944884,
                    "duration": 0.5696205000000001
                },
                {
                    "name": "D5",
                    "midi": 74,
                    "time": 5.886078500000001,
                    "velocity": 0.3700787401574803,
                    "duration": 0.18987350000000003
                },
                {
                    "name": "D#5",
                    "midi": 75,
                    "time": 6.075952000000001,
                    "velocity": 0.41732283464566927,
                    "duration": 1.1392410000000002
                },
                {
                    "name": "D5",
                    "midi": 74,
                    "time": 7.215193000000001,
                    "velocity": 0.3464566929133858,
                    "duration": 0.37974700000000006
                },
                {
                    "name": "C5",
                    "midi": 72,
                    "time": 7.594940000000001,
                    "velocity": 0.30708661417322836,
                    "duration": 0.7594940000000001
                },
                {
                    "name": "D5",
                    "midi": 74,
                    "time": 8.354434000000001,
                    "velocity": 0.3858267716535433,
                    "duration": 0.5696204999999992
                },
                {
                    "name": "C5",
                    "midi": 72,
                    "time": 8.9240545,
                    "velocity": 0.33070866141732286,
                    "duration": 0.18987349999999914
                },
                {
                    "name": "B4",
                    "midi": 71,
                    "time": 9.113928,
                    "velocity": 0.36220472440944884,
                    "duration": 0.7594940000000001
                },
                {
                    "name": "A4",
                    "midi": 69,
                    "time": 9.873422,
                    "velocity": 0.3464566929133858,
                    "duration": 0.5696204999999992
                },
                {
                    "name": "B4",
                    "midi": 71,
                    "time": 10.443042499999999,
                    "velocity": 0.28346456692913385,
                    "duration": 0.18987349999999914
                },
                {
                    "name": "C5",
                    "midi": 72,
                    "time": 10.632915999999998,
                    "velocity": 0.3779527559055118,
                    "duration": 0.7594940000000001
                },
                {
                    "name": "D5",
                    "midi": 74,
                    "time": 11.392409999999998,
                    "velocity": 0.33858267716535434,
                    "duration": 0.5696204999999992
                },
                {
                    "name": "D#5",
                    "midi": 75,
                    "time": 11.962030499999997,
                    "velocity": 0.3464566929133858,
                    "duration": 0.18987349999999914
                },
                {
                    "name": "D5",
                    "midi": 74,
                    "time": 12.151903999999996,
                    "velocity": 0.4015748031496063,
                    "duration": 2.2784820000000003
                },
                {
                    "name": "D4",
                    "midi": 62,
                    "time": 14.430385999999997,
                    "velocity": 0.29133858267716534,
                    "duration": 0.3813292791666658
                },
                {
                    "name": "G4",
                    "midi": 67,
                    "time": 14.430385999999997,
                    "velocity": 0.29133858267716534,
                    "duration": 0.3813292791666658
                },
                {
                    "name": "B4",
                    "midi": 71,
                    "time": 14.430385999999997,
                    "velocity": 0.3464566929133858,
                    "duration": 0.3813292791666658
                },
                {
                    "name": "D#4",
                    "midi": 63,
                    "time": 15.000006499999996,
                    "velocity": 0.2755905511811024,
                    "duration": 0.09493675000000046
                },
                {
                    "name": "G4",
                    "midi": 67,
                    "time": 15.000006499999996,
                    "velocity": 0.2755905511811024,
                    "duration": 0.09493675000000046
                },
                {
                    "name": "C5",
                    "midi": 72,
                    "time": 15.000006499999996,
                    "velocity": 0.33070866141732286,
                    "duration": 0.09493675000000046
                },
                {
                    "name": "F4",
                    "midi": 65,
                    "time": 15.189879999999997,
                    "velocity": 0.33858267716535434,
                    "duration": 0.3813292791666658
                },
                {
                    "name": "G4",
                    "midi": 67,
                    "time": 15.189879999999997,
                    "velocity": 0.33858267716535434,
                    "duration": 0.3813292791666658
                },
                {
                    "name": "D5",
                    "midi": 74,
                    "time": 15.189879999999997,
                    "velocity": 0.4015748031496063,
                    "duration": 0.3813292791666658
                },
                {
                    "name": "F4",
                    "midi": 65,
                    "time": 15.949373999999995,
                    "velocity": 0.2755905511811024,
                    "duration": 0.3813292791666676
                },
                {
                    "name": "G4",
                    "midi": 67,
                    "time": 15.949373999999995,
                    "velocity": 0.2755905511811024,
                    "duration": 0.3813292791666676
                },
                {
                    "name": "D5",
                    "midi": 74,
                    "time": 15.949373999999995,
                    "velocity": 0.33070866141732286,
                    "duration": 0.3813292791666676
                },
                {
                    "name": "F4",
                    "midi": 65,
                    "time": 16.708867999999995,
                    "velocity": 0.2755905511811024,
                    "duration": 0.3813292791666676
                },
                {
                    "name": "G4",
                    "midi": 67,
                    "time": 16.708867999999995,
                    "velocity": 0.2755905511811024,
                    "duration": 0.3813292791666676
                },
                {
                    "name": "D5",
                    "midi": 74,
                    "time": 16.708867999999995,
                    "velocity": 0.33070866141732286,
                    "duration": 0.3813292791666676
                },
                {
                    "name": "D#4",
                    "midi": 63,
                    "time": 17.468361999999996,
                    "velocity": 0.30708661417322836,
                    "duration": 0.3813292791666676
                },
                {
                    "name": "G4",
                    "midi": 67,
                    "time": 17.468361999999996,
                    "velocity": 0.30708661417322836,
                    "duration": 0.3813292791666676
                },
                {
                    "name": "C5",
                    "midi": 72,
                    "time": 17.468361999999996,
                    "velocity": 0.30708661417322836,
                    "duration": 0.3813292791666676
                },
                {
                    "name": "F4",
                    "midi": 65,
                    "time": 18.037982499999995,
                    "velocity": 0.30708661417322836,
                    "duration": 0.09493674999999868
                },
                {
                    "name": "G4",
                    "midi": 67,
                    "time": 18.037982499999995,
                    "velocity": 0.30708661417322836,
                    "duration": 0.09493674999999868
                },
                {
                    "name": "D5",
                    "midi": 74,
                    "time": 18.037982499999995,
                    "velocity": 0.3700787401574803,
                    "duration": 0.09493674999999868
                },
                {
                    "name": "G4",
                    "midi": 67,
                    "time": 18.227855999999992,
                    "velocity": 0.3543307086614173,
                    "duration": 1.3291144999999993
                },
                {
                    "name": "D#5",
                    "midi": 75,
                    "time": 18.227855999999992,
                    "velocity": 0.41732283464566927,
                    "duration": 1.3291144999999993
                },
                {
                    "name": "F4",
                    "midi": 65,
                    "time": 19.55697049999999,
                    "velocity": 0.29133858267716534,
                    "duration": 0.09493674999999868
                },
                {
                    "name": "G4",
                    "midi": 67,
                    "time": 19.55697049999999,
                    "velocity": 0.29133858267716534,
                    "duration": 0.09493674999999868
                },
                {
                    "name": "D5",
                    "midi": 74,
                    "time": 19.55697049999999,
                    "velocity": 0.3464566929133858,
                    "duration": 0.09493674999999868
                },
                {
                    "name": "D#4",
                    "midi": 63,
                    "time": 19.74684399999999,
                    "velocity": 0.25984251968503935,
                    "duration": 0.3797469999999983
                },
                {
                    "name": "G4",
                    "midi": 67,
                    "time": 19.74684399999999,
                    "velocity": 0.25984251968503935,
                    "duration": 0.3797469999999983
                },
                {
                    "name": "C5",
                    "midi": 72,
                    "time": 19.74684399999999,
                    "velocity": 0.30708661417322836,
                    "duration": 0.3797469999999983
                },
                {
                    "name": "F4",
                    "midi": 65,
                    "time": 20.506337999999985,
                    "velocity": 0.3228346456692913,
                    "duration": 0.3813292791666676
                },
                {
                    "name": "G#4",
                    "midi": 68,
                    "time": 20.506337999999985,
                    "velocity": 0.3228346456692913,
                    "duration": 0.3813292791666676
                },
                {
                    "name": "D5",
                    "midi": 74,
                    "time": 20.506337999999985,
                    "velocity": 0.3858267716535433,
                    "duration": 0.3813292791666676
                },
                {
                    "name": "D#4",
                    "midi": 63,
                    "time": 21.075958499999984,
                    "velocity": 0.2755905511811024,
                    "duration": 0.09493674999999868
                },
                {
                    "name": "G#4",
                    "midi": 68,
                    "time": 21.075958499999984,
                    "velocity": 0.33070866141732286,
                    "duration": 0.09493674999999868
                },
                {
                    "name": "C5",
                    "midi": 72,
                    "time": 21.075958499999984,
                    "velocity": 0.33070866141732286,
                    "duration": 0.09493674999999868
                },
                {
                    "name": "D4",
                    "midi": 62,
                    "time": 21.265831999999982,
                    "velocity": 0.30708661417322836,
                    "duration": 0.3797469999999983
                },
                {
                    "name": "G4",
                    "midi": 67,
                    "time": 21.265831999999982,
                    "velocity": 0.30708661417322836,
                    "duration": 0.3797469999999983
                },
                {
                    "name": "B4",
                    "midi": 71,
                    "time": 21.265831999999982,
                    "velocity": 0.36220472440944884,
                    "duration": 0.3797469999999983
                },
                {
                    "name": "C4",
                    "midi": 60,
                    "time": 22.02532599999998,
                    "velocity": 0.29133858267716534,
                    "duration": 0.3813292791666676
                },
                {
                    "name": "G4",
                    "midi": 67,
                    "time": 22.02532599999998,
                    "velocity": 0.29133858267716534,
                    "duration": 0.3813292791666676
                },
                {
                    "name": "A4",
                    "midi": 69,
                    "time": 22.02532599999998,
                    "velocity": 0.3464566929133858,
                    "duration": 0.3813292791666676
                },
                {
                    "name": "D4",
                    "midi": 62,
                    "time": 22.594946499999978,
                    "velocity": 0.23622047244094488,
                    "duration": 0.09493674999999868
                },
                {
                    "name": "G4",
                    "midi": 67,
                    "time": 22.594946499999978,
                    "velocity": 0.23622047244094488,
                    "duration": 0.09493674999999868
                },
                {
                    "name": "B4",
                    "midi": 71,
                    "time": 22.594946499999978,
                    "velocity": 0.28346456692913385,
                    "duration": 0.09493674999999868
                },
                {
                    "name": "D#4",
                    "midi": 63,
                    "time": 22.784819999999975,
                    "velocity": 0.31496062992125984,
                    "duration": 0.3797469999999983
                },
                {
                    "name": "G4",
                    "midi": 67,
                    "time": 22.784819999999975,
                    "velocity": 0.31496062992125984,
                    "duration": 0.3797469999999983
                },
                {
                    "name": "C5",
                    "midi": 72,
                    "time": 22.784819999999975,
                    "velocity": 0.3779527559055118,
                    "duration": 0.3797469999999983
                },
                {
                    "name": "G4",
                    "midi": 67,
                    "time": 23.54431399999997,
                    "velocity": 0.3543307086614173,
                    "duration": 0.3813292791666676
                },
                {
                    "name": "D#5",
                    "midi": 75,
                    "time": 23.54431399999997,
                    "velocity": 0.41732283464566927,
                    "duration": 0.3813292791666676
                },
                {
                    "name": "F4",
                    "midi": 65,
                    "time": 24.11393449999997,
                    "velocity": 0.29133858267716534,
                    "duration": 0.09493674999999868
                },
                {
                    "name": "G4",
                    "midi": 67,
                    "time": 24.11393449999997,
                    "velocity": 0.29133858267716534,
                    "duration": 0.09493674999999868
                },
                {
                    "name": "D5",
                    "midi": 74,
                    "time": 24.11393449999997,
                    "velocity": 0.3464566929133858,
                    "duration": 0.09493674999999868
                },
                {
                    "name": "D#4",
                    "midi": 63,
                    "time": 24.303807999999968,
                    "velocity": 0.33858267716535434,
                    "duration": 2.2784820000000003
                },
                {
                    "name": "G4",
                    "midi": 67,
                    "time": 24.303807999999968,
                    "velocity": 0.33858267716535434,
                    "duration": 2.2784820000000003
                },
                {
                    "name": "C5",
                    "midi": 72,
                    "time": 24.303807999999968,
                    "velocity": 0.4015748031496063,
                    "duration": 2.2784820000000003
                },
                {
                    "name": "D5",
                    "midi": 74,
                    "time": 26.58228999999997,
                    "velocity": 0.3464566929133858,
                    "duration": 0.5696204999999992
                },
                {
                    "name": "D#5",
                    "midi": 75,
                    "time": 27.151910499999968,
                    "velocity": 0.2992125984251969,
                    "duration": 0.18987350000000092
                },
                {
                    "name": "F5",
                    "midi": 77,
                    "time": 27.34178399999997,
                    "velocity": 0.4015748031496063,
                    "duration": 0.5348103583333348
                },
                {
                    "name": "F5",
                    "midi": 77,
                    "time": 28.10127799999997,
                    "velocity": 0.33070866141732286,
                    "duration": 0.5348103583333348
                },
                {
                    "name": "F5",
                    "midi": 77,
                    "time": 28.86077199999997,
                    "velocity": 0.33070866141732286,
                    "duration": 0.5348103583333348
                },
                {
                    "name": "D#5",
                    "midi": 75,
                    "time": 29.62026599999997,
                    "velocity": 0.36220472440944884,
                    "duration": 0.5696204999999992
                },
                {
                    "name": "D5",
                    "midi": 74,
                    "time": 30.189886499999968,
                    "velocity": 0.3700787401574803,
                    "duration": 0.18987350000000092
                },
                {
                    "name": "G5",
                    "midi": 79,
                    "time": 30.37975999999997,
                    "velocity": 0.41732283464566927,
                    "duration": 1.1392409999999984
                },
                {
                    "name": "F5",
                    "midi": 77,
                    "time": 31.519000999999967,
                    "velocity": 0.3464566929133858,
                    "duration": 0.3797469999999983
                },
                {
                    "name": "D#5",
                    "midi": 75,
                    "time": 31.898747999999966,
                    "velocity": 0.30708661417322836,
                    "duration": 0.7594940000000001
                },
                {
                    "name": "D5",
                    "midi": 74,
                    "time": 32.658241999999966,
                    "velocity": 0.3858267716535433,
                    "duration": 0.5696204999999992
                },
                {
                    "name": "C5",
                    "midi": 72,
                    "time": 33.227862499999965,
                    "velocity": 0.33070866141732286,
                    "duration": 0.18987349999999736
                },
                {
                    "name": "B4",
                    "midi": 71,
                    "time": 33.41773599999996,
                    "velocity": 0.36220472440944884,
                    "duration": 0.7594939999999966
                },
                {
                    "name": "A4",
                    "midi": 69,
                    "time": 34.17722999999996,
                    "velocity": 0.3464566929133858,
                    "duration": 0.5696204999999992
                },
                {
                    "name": "B4",
                    "midi": 71,
                    "time": 34.74685049999996,
                    "velocity": 0.28346456692913385,
                    "duration": 0.18987349999999736
                },
                {
                    "name": "C5",
                    "midi": 72,
                    "time": 34.936723999999955,
                    "velocity": 0.3779527559055118,
                    "duration": 0.7594939999999966
                },
                {
                    "name": "F5",
                    "midi": 77,
                    "time": 35.69621799999995,
                    "velocity": 0.33858267716535434,
                    "duration": 0.5696204999999992
                },
                {
                    "name": "D#5",
                    "midi": 75,
                    "time": 36.26583849999995,
                    "velocity": 0.3464566929133858,
                    "duration": 0.18987349999999736
                },
                {
                    "name": "D5",
                    "midi": 74,
                    "time": 36.45571199999995,
                    "velocity": 0.4015748031496063,
                    "duration": 2.278481999999997
                },
                {
                    "name": "F4",
                    "midi": 65,
                    "time": 38.734193999999945,
                    "velocity": 0.29133858267716534,
                    "duration": 0.38132927916666404
                },
                {
                    "name": "A#4",
                    "midi": 70,
                    "time": 38.734193999999945,
                    "velocity": 0.29133858267716534,
                    "duration": 0.38132927916666404
                },
                {
                    "name": "D5",
                    "midi": 74,
                    "time": 38.734193999999945,
                    "velocity": 0.3464566929133858,
                    "duration": 0.38132927916666404
                },
                {
                    "name": "G4",
                    "midi": 67,
                    "time": 39.303814499999945,
                    "velocity": 0.2755905511811024,
                    "duration": 0.09493675000000223
                },
                {
                    "name": "A#4",
                    "midi": 70,
                    "time": 39.303814499999945,
                    "velocity": 0.2755905511811024,
                    "duration": 0.09493675000000223
                },
                {
                    "name": "D#5",
                    "midi": 75,
                    "time": 39.303814499999945,
                    "velocity": 0.33070866141732286,
                    "duration": 0.09493675000000223
                },
                {
                    "name": "G#4",
                    "midi": 68,
                    "time": 39.49368799999995,
                    "velocity": 0.33858267716535434,
                    "duration": 0.38132927916666404
                },
                {
                    "name": "A#4",
                    "midi": 70,
                    "time": 39.49368799999995,
                    "velocity": 0.33858267716535434,
                    "duration": 0.38132927916666404
                },
                {
                    "name": "F5",
                    "midi": 77,
                    "time": 39.49368799999995,
                    "velocity": 0.4015748031496063,
                    "duration": 0.38132927916666404
                },
                {
                    "name": "G#4",
                    "midi": 68,
                    "time": 40.253181999999946,
                    "velocity": 0.2755905511811024,
                    "duration": 0.38132927916666404
                },
                {
                    "name": "A#4",
                    "midi": 70,
                    "time": 40.253181999999946,
                    "velocity": 0.2755905511811024,
                    "duration": 0.38132927916666404
                },
                {
                    "name": "F5",
                    "midi": 77,
                    "time": 40.253181999999946,
                    "velocity": 0.33070866141732286,
                    "duration": 0.38132927916666404
                },
                {
                    "name": "G#4",
                    "midi": 68,
                    "time": 41.01267599999994,
                    "velocity": 0.2755905511811024,
                    "duration": 0.38132927916666404
                },
                {
                    "name": "A#4",
                    "midi": 70,
                    "time": 41.01267599999994,
                    "velocity": 0.2755905511811024,
                    "duration": 0.38132927916666404
                },
                {
                    "name": "F5",
                    "midi": 77,
                    "time": 41.01267599999994,
                    "velocity": 0.33070866141732286,
                    "duration": 0.38132927916666404
                },
                {
                    "name": "G4",
                    "midi": 67,
                    "time": 41.77216999999994,
                    "velocity": 0.30708661417322836,
                    "duration": 0.38132927916666404
                },
                {
                    "name": "A#4",
                    "midi": 70,
                    "time": 41.77216999999994,
                    "velocity": 0.30708661417322836,
                    "duration": 0.38132927916666404
                },
                {
                    "name": "D#5",
                    "midi": 75,
                    "time": 41.77216999999994,
                    "velocity": 0.36220472440944884,
                    "duration": 0.38132927916666404
                },
                {
                    "name": "F4",
                    "midi": 65,
                    "time": 42.34179049999994,
                    "velocity": 0.30708661417322836,
                    "duration": 0.09493675000000223
                },
                {
                    "name": "A#4",
                    "midi": 70,
                    "time": 42.34179049999994,
                    "velocity": 0.30708661417322836,
                    "duration": 0.09493675000000223
                },
                {
                    "name": "D5",
                    "midi": 74,
                    "time": 42.34179049999994,
                    "velocity": 0.3700787401574803,
                    "duration": 0.09493675000000223
                },
                {
                    "name": "A#4",
                    "midi": 70,
                    "time": 42.53166399999994,
                    "velocity": 0.3700787401574803,
                    "duration": 1.3291145000000029
                },
                {
                    "name": "G5",
                    "midi": 79,
                    "time": 42.53166399999994,
                    "velocity": 0.4409448818897638,
                    "duration": 1.3291145000000029
                },
                {
                    "name": "G#4",
                    "midi": 68,
                    "time": 43.860778499999945,
                    "velocity": 0.3228346456692913,
                    "duration": 0.09493675000000223
                },
                {
                    "name": "A#4",
                    "midi": 70,
                    "time": 43.860778499999945,
                    "velocity": 0.3228346456692913,
                    "duration": 0.09493675000000223
                },
                {
                    "name": "F5",
                    "midi": 77,
                    "time": 43.860778499999945,
                    "velocity": 0.3858267716535433,
                    "duration": 0.09493675000000223
                },
                {
                    "name": "G4",
                    "midi": 67,
                    "time": 44.05065199999995,
                    "velocity": 0.2755905511811024,
                    "duration": 0.37974700000000183
                },
                {
                    "name": "A#4",
                    "midi": 70,
                    "time": 44.05065199999995,
                    "velocity": 0.2755905511811024,
                    "duration": 0.37974700000000183
                },
                {
                    "name": "D#5",
                    "midi": 75,
                    "time": 44.05065199999995,
                    "velocity": 0.33070866141732286,
                    "duration": 0.37974700000000183
                },
                {
                    "name": "F4",
                    "midi": 65,
                    "time": 44.81014599999995,
                    "velocity": 0.3464566929133858,
                    "duration": 0.38132927916666404
                },
                {
                    "name": "G#4",
                    "midi": 68,
                    "time": 44.81014599999995,
                    "velocity": 0.3464566929133858,
                    "duration": 0.38132927916666404
                },
                {
                    "name": "D5",
                    "midi": 74,
                    "time": 44.81014599999995,
                    "velocity": 0.4094488188976378,
                    "duration": 0.38132927916666404
                },
                {
                    "name": "D#4",
                    "midi": 63,
                    "time": 45.37976649999995,
                    "velocity": 0.2755905511811024,
                    "duration": 0.09493675000000223
                },
                {
                    "name": "G#4",
                    "midi": 68,
                    "time": 45.37976649999995,
                    "velocity": 0.2755905511811024,
                    "duration": 0.09493675000000223
                },
                {
                    "name": "C5",
                    "midi": 72,
                    "time": 45.37976649999995,
                    "velocity": 0.33070866141732286,
                    "duration": 0.09493675000000223
                },
                {
                    "name": "D4",
                    "midi": 62,
                    "time": 45.56963999999996,
                    "velocity": 0.30708661417322836,
                    "duration": 0.37974700000000183
                },
                {
                    "name": "G4",
                    "midi": 67,
                    "time": 45.56963999999996,
                    "velocity": 0.30708661417322836,
                    "duration": 0.37974700000000183
                },
                {
                    "name": "B4",
                    "midi": 71,
                    "time": 45.56963999999996,
                    "velocity": 0.36220472440944884,
                    "duration": 0.37974700000000183
                },
                {
                    "name": "C4",
                    "midi": 60,
                    "time": 46.32913399999996,
                    "velocity": 0.29133858267716534,
                    "duration": 0.38132927916666404
                },
                {
                    "name": "G4",
                    "midi": 67,
                    "time": 46.32913399999996,
                    "velocity": 0.29133858267716534,
                    "duration": 0.38132927916666404
                },
                {
                    "name": "A4",
                    "midi": 69,
                    "time": 46.32913399999996,
                    "velocity": 0.3464566929133858,
                    "duration": 0.38132927916666404
                },
                {
                    "name": "D4",
                    "midi": 62,
                    "time": 46.89875449999996,
                    "velocity": 0.23622047244094488,
                    "duration": 0.09493675000000223
                },
                {
                    "name": "G4",
                    "midi": 67,
                    "time": 46.89875449999996,
                    "velocity": 0.23622047244094488,
                    "duration": 0.09493675000000223
                },
                {
                    "name": "B4",
                    "midi": 71,
                    "time": 46.89875449999996,
                    "velocity": 0.28346456692913385,
                    "duration": 0.09493675000000223
                },
                {
                    "name": "D#4",
                    "midi": 63,
                    "time": 47.088627999999964,
                    "velocity": 0.31496062992125984,
                    "duration": 0.37974700000000183
                },
                {
                    "name": "G4",
                    "midi": 67,
                    "time": 47.088627999999964,
                    "velocity": 0.31496062992125984,
                    "duration": 0.37974700000000183
                },
                {
                    "name": "C5",
                    "midi": 72,
                    "time": 47.088627999999964,
                    "velocity": 0.3779527559055118,
                    "duration": 0.37974700000000183
                },
                {
                    "name": "G4",
                    "midi": 67,
                    "time": 47.84812199999997,
                    "velocity": 0.3543307086614173,
                    "duration": 0.38132927916666404
                },
                {
                    "name": "D#5",
                    "midi": 75,
                    "time": 47.84812199999997,
                    "velocity": 0.41732283464566927,
                    "duration": 0.38132927916666404
                },
                {
                    "name": "F4",
                    "midi": 65,
                    "time": 48.41774249999997,
                    "velocity": 0.29133858267716534,
                    "duration": 0.09493675000000223
                },
                {
                    "name": "G4",
                    "midi": 67,
                    "time": 48.41774249999997,
                    "velocity": 0.29133858267716534,
                    "duration": 0.09493675000000223
                },
                {
                    "name": "D5",
                    "midi": 74,
                    "time": 48.41774249999997,
                    "velocity": 0.3464566929133858,
                    "duration": 0.09493675000000223
                },
                {
                    "name": "D#4",
                    "midi": 63,
                    "time": 48.60761599999997,
                    "velocity": 0.33858267716535434,
                    "duration": 2.278481999999997
                },
                {
                    "name": "G4",
                    "midi": 67,
                    "time": 48.60761599999997,
                    "velocity": 0.33858267716535434,
                    "duration": 2.278481999999997
                },
                {
                    "name": "C5",
                    "midi": 72,
                    "time": 48.60761599999997,
                    "velocity": 0.4015748031496063,
                    "duration": 2.278481999999997
                },
                {
                    "name": "B4",
                    "midi": 71,
                    "time": 50.88609799999997,
                    "velocity": 0.3779527559055118,
                    "duration": 0.5696204999999992
                },
                {
                    "name": "C5",
                    "midi": 72,
                    "time": 51.45571849999997,
                    "velocity": 0.3228346456692913,
                    "duration": 0.18987349999999736
                },
                {
                    "name": "D5",
                    "midi": 74,
                    "time": 51.645591999999965,
                    "velocity": 0.4409448818897638,
                    "duration": 0.5348103583333312
                },
                {
                    "name": "G#4",
                    "midi": 68,
                    "time": 52.40508599999996,
                    "velocity": 0.30708661417322836,
                    "duration": 0.5696204999999992
                },
                {
                    "name": "B4",
                    "midi": 71,
                    "time": 52.40508599999996,
                    "velocity": 0.36220472440944884,
                    "duration": 0.5696204999999992
                },
                {
                    "name": "D5",
                    "midi": 74,
                    "time": 52.40508599999996,
                    "velocity": 0.36220472440944884,
                    "duration": 0.5348103583333312
                },
                {
                    "name": "A4",
                    "midi": 69,
                    "time": 53.16457999999996,
                    "velocity": 0.30708661417322836,
                    "duration": 0.5696204999999992
                },
                {
                    "name": "C5",
                    "midi": 72,
                    "time": 53.16457999999996,
                    "velocity": 0.30708661417322836,
                    "duration": 0.5696204999999992
                },
                {
                    "name": "D5",
                    "midi": 74,
                    "time": 53.16457999999996,
                    "velocity": 0.36220472440944884,
                    "duration": 0.5348103583333312
                },
                {
                    "name": "A4",
                    "midi": 69,
                    "time": 53.924073999999955,
                    "velocity": 0.30708661417322836,
                    "duration": 0.7594939999999966
                },
                {
                    "name": "C5",
                    "midi": 72,
                    "time": 53.924073999999955,
                    "velocity": 0.3937007874015748,
                    "duration": 0.5696204999999992
                },
                {
                    "name": "D5",
                    "midi": 74,
                    "time": 54.493694499999954,
                    "velocity": 0.4015748031496063,
                    "duration": 0.18987349999999736
                },
                {
                    "name": "C5",
                    "midi": 72,
                    "time": 54.68356799999995,
                    "velocity": 0.3937007874015748,
                    "duration": 0.09493675000000223
                },
                {
                    "name": "A4",
                    "midi": 69,
                    "time": 54.68356799999995,
                    "velocity": 0.3858267716535433,
                    "duration": 2.278482000000004
                },
                {
                    "name": "D5",
                    "midi": 74,
                    "time": 54.778504749999954,
                    "velocity": 0.41732283464566927,
                    "duration": 0.09493675000000223
                },
                {
                    "name": "D#5",
                    "midi": 75,
                    "time": 54.873441499999956,
                    "velocity": 0.4566929133858268,
                    "duration": 0.949367500000001
                },
                {
                    "name": "D5",
                    "midi": 74,
                    "time": 55.82280899999996,
                    "velocity": 0.3779527559055118,
                    "duration": 0.37974700000000183
                },
                {
                    "name": "C5",
                    "midi": 72,
                    "time": 56.20255599999996,
                    "velocity": 0.33070866141732286,
                    "duration": 0.7594939999999966
                },
                {
                    "name": "A4",
                    "midi": 69,
                    "time": 56.962049999999955,
                    "velocity": 0.31496062992125984,
                    "duration": 0.7594939999999966
                },
                {
                    "name": "D5",
                    "midi": 74,
                    "time": 56.962049999999955,
                    "velocity": 0.4330708661417323,
                    "duration": 0.5696204999999992
                },
                {
                    "name": "C5",
                    "midi": 72,
                    "time": 57.531670499999954,
                    "velocity": 0.3779527559055118,
                    "duration": 0.18987349999999736
                },
                {
                    "name": "G4",
                    "midi": 67,
                    "time": 57.72154399999995,
                    "velocity": 0.3464566929133858,
                    "duration": 0.7594939999999966
                },
                {
                    "name": "B4",
                    "midi": 71,
                    "time": 57.72154399999995,
                    "velocity": 0.4094488188976378,
                    "duration": 0.7594939999999966
                },
                {
                    "name": "G4",
                    "midi": 67,
                    "time": 58.48103799999995,
                    "velocity": 0.36220472440944884,
                    "duration": 0.5696204999999992
                },
                {
                    "name": "A4",
                    "midi": 69,
                    "time": 58.48103799999995,
                    "velocity": 0.4251968503937008,
                    "duration": 0.5696204999999992
                },
                {
                    "name": "G4",
                    "midi": 67,
                    "time": 59.05065849999995,
                    "velocity": 0.28346456692913385,
                    "duration": 0.18987349999999736
                },
                {
                    "name": "B4",
                    "midi": 71,
                    "time": 59.05065849999995,
                    "velocity": 0.3464566929133858,
                    "duration": 0.18987349999999736
                },
                {
                    "name": "G4",
                    "midi": 67,
                    "time": 59.240531999999945,
                    "velocity": 0.3937007874015748,
                    "duration": 0.7594939999999966
                },
                {
                    "name": "C5",
                    "midi": 72,
                    "time": 59.240531999999945,
                    "velocity": 0.4645669291338583,
                    "duration": 0.7594939999999966
                },
                {
                    "name": "G4",
                    "midi": 67,
                    "time": 60.00002599999994,
                    "velocity": 0.4015748031496063,
                    "duration": 0.5696204999999992
                },
                {
                    "name": "D5",
                    "midi": 74,
                    "time": 60.00002599999994,
                    "velocity": 0.48031496062992124,
                    "duration": 0.5696204999999992
                },
                {
                    "name": "G4",
                    "midi": 67,
                    "time": 60.56964649999994,
                    "velocity": 0.4094488188976378,
                    "duration": 0.18987349999999736
                },
                {
                    "name": "D#5",
                    "midi": 75,
                    "time": 60.56964649999994,
                    "velocity": 0.4881889763779528,
                    "duration": 0.18987349999999736
                },
                {
                    "name": "G4",
                    "midi": 67,
                    "time": 60.75951999999994,
                    "velocity": 0.48031496062992124,
                    "duration": 2.278481999999997
                },
                {
                    "name": "D5",
                    "midi": 74,
                    "time": 60.75951999999994,
                    "velocity": 0.5748031496062992,
                    "duration": 2.278481999999997
                },
                {
                    "name": "D4",
                    "midi": 62,
                    "time": 63.038001999999935,
                    "velocity": 0.5039370078740157,
                    "duration": 0.38132927916666404
                },
                {
                    "name": "G4",
                    "midi": 67,
                    "time": 63.038001999999935,
                    "velocity": 0.5039370078740157,
                    "duration": 0.38132927916666404
                },
                {
                    "name": "B4",
                    "midi": 71,
                    "time": 63.038001999999935,
                    "velocity": 0.6062992125984252,
                    "duration": 0.38132927916666404
                },
                {
                    "name": "D#4",
                    "midi": 63,
                    "time": 63.607622499999934,
                    "velocity": 0.48031496062992124,
                    "duration": 0.09493675000000223
                },
                {
                    "name": "G4",
                    "midi": 67,
                    "time": 63.607622499999934,
                    "velocity": 0.48031496062992124,
                    "duration": 0.09493675000000223
                },
                {
                    "name": "C5",
                    "midi": 72,
                    "time": 63.607622499999934,
                    "velocity": 0.5748031496062992,
                    "duration": 0.09493675000000223
                },
                {
                    "name": "F4",
                    "midi": 65,
                    "time": 63.79749599999994,
                    "velocity": 0.5826771653543307,
                    "duration": 0.38132927916666404
                },
                {
                    "name": "G4",
                    "midi": 67,
                    "time": 63.79749599999994,
                    "velocity": 0.5826771653543307,
                    "duration": 0.38132927916666404
                },
                {
                    "name": "D5",
                    "midi": 74,
                    "time": 63.79749599999994,
                    "velocity": 0.7007874015748031,
                    "duration": 0.38132927916666404
                },
                {
                    "name": "F4",
                    "midi": 65,
                    "time": 64.55698999999994,
                    "velocity": 0.5354330708661418,
                    "duration": 0.38132927916666404
                },
                {
                    "name": "G4",
                    "midi": 67,
                    "time": 64.55698999999994,
                    "velocity": 0.5354330708661418,
                    "duration": 0.38132927916666404
                },
                {
                    "name": "D5",
                    "midi": 74,
                    "time": 64.55698999999994,
                    "velocity": 0.6377952755905512,
                    "duration": 0.38132927916666404
                },
                {
                    "name": "F4",
                    "midi": 65,
                    "time": 65.31648399999995,
                    "velocity": 0.5354330708661418,
                    "duration": 0.38132927916666404
                },
                {
                    "name": "G4",
                    "midi": 67,
                    "time": 65.31648399999995,
                    "velocity": 0.5354330708661418,
                    "duration": 0.38132927916666404
                },
                {
                    "name": "D5",
                    "midi": 74,
                    "time": 65.31648399999995,
                    "velocity": 0.6377952755905512,
                    "duration": 0.38132927916666404
                },
                {
                    "name": "D#4",
                    "midi": 63,
                    "time": 66.07597799999995,
                    "velocity": 0.5354330708661418,
                    "duration": 0.38132927916666404
                },
                {
                    "name": "G4",
                    "midi": 67,
                    "time": 66.07597799999995,
                    "velocity": 0.5354330708661418,
                    "duration": 0.38132927916666404
                },
                {
                    "name": "C5",
                    "midi": 72,
                    "time": 66.07597799999995,
                    "velocity": 0.6299212598425197,
                    "duration": 0.38132927916666404
                },
                {
                    "name": "F4",
                    "midi": 65,
                    "time": 66.64559849999995,
                    "velocity": 0.5433070866141733,
                    "duration": 0.09493675000000223
                },
                {
                    "name": "G4",
                    "midi": 67,
                    "time": 66.64559849999995,
                    "velocity": 0.5433070866141733,
                    "duration": 0.09493675000000223
                },
                {
                    "name": "D5",
                    "midi": 74,
                    "time": 66.64559849999995,
                    "velocity": 0.6456692913385826,
                    "duration": 0.09493675000000223
                },
                {
                    "name": "G4",
                    "midi": 67,
                    "time": 66.83547199999995,
                    "velocity": 0.6141732283464567,
                    "duration": 1.3291145000000029
                },
                {
                    "name": "D#5",
                    "midi": 75,
                    "time": 66.83547199999995,
                    "velocity": 0.7244094488188977,
                    "duration": 1.3291145000000029
                },
                {
                    "name": "F4",
                    "midi": 65,
                    "time": 68.16458649999996,
                    "velocity": 0.5039370078740157,
                    "duration": 0.18987350000000447
                },
                {
                    "name": "G4",
                    "midi": 67,
                    "time": 68.16458649999996,
                    "velocity": 0.5039370078740157,
                    "duration": 0.18987350000000447
                },
                {
                    "name": "D5",
                    "midi": 74,
                    "time": 68.16458649999996,
                    "velocity": 0.6062992125984252,
                    "duration": 0.18987350000000447
                },
                {
                    "name": "D#4",
                    "midi": 63,
                    "time": 68.35445999999996,
                    "velocity": 0.44881889763779526,
                    "duration": 0.3797469999999947
                },
                {
                    "name": "G4",
                    "midi": 67,
                    "time": 68.35445999999996,
                    "velocity": 0.44881889763779526,
                    "duration": 0.3797469999999947
                },
                {
                    "name": "C5",
                    "midi": 72,
                    "time": 68.35445999999996,
                    "velocity": 0.5354330708661418,
                    "duration": 0.3797469999999947
                },
                {
                    "name": "F4",
                    "midi": 65,
                    "time": 69.11395399999995,
                    "velocity": 0.5669291338582677,
                    "duration": 0.38132927916666404
                },
                {
                    "name": "G#4",
                    "midi": 68,
                    "time": 69.11395399999995,
                    "velocity": 0.5669291338582677,
                    "duration": 0.38132927916666404
                },
                {
                    "name": "D5",
                    "midi": 74,
                    "time": 69.11395399999995,
                    "velocity": 0.6692913385826772,
                    "duration": 0.38132927916666404
                },
                {
                    "name": "D#4",
                    "midi": 63,
                    "time": 69.68357449999995,
                    "velocity": 0.48031496062992124,
                    "duration": 0.09493675000000223
                },
                {
                    "name": "G#4",
                    "midi": 68,
                    "time": 69.68357449999995,
                    "velocity": 0.48031496062992124,
                    "duration": 0.09493675000000223
                },
                {
                    "name": "C5",
                    "midi": 72,
                    "time": 69.68357449999995,
                    "velocity": 0.5748031496062992,
                    "duration": 0.09493675000000223
                },
                {
                    "name": "D4",
                    "midi": 62,
                    "time": 69.87344799999995,
                    "velocity": 0.5354330708661418,
                    "duration": 0.3797469999999947
                },
                {
                    "name": "G4",
                    "midi": 67,
                    "time": 69.87344799999995,
                    "velocity": 0.5354330708661418,
                    "duration": 0.3797469999999947
                },
                {
                    "name": "B4",
                    "midi": 71,
                    "time": 69.87344799999995,
                    "velocity": 0.6299212598425197,
                    "duration": 0.3797469999999947
                },
                {
                    "name": "C4",
                    "midi": 60,
                    "time": 70.63294199999994,
                    "velocity": 0.5039370078740157,
                    "duration": 0.38132927916666404
                },
                {
                    "name": "G4",
                    "midi": 67,
                    "time": 70.63294199999994,
                    "velocity": 0.5039370078740157,
                    "duration": 0.38132927916666404
                },
                {
                    "name": "A4",
                    "midi": 69,
                    "time": 70.63294199999994,
                    "velocity": 0.6062992125984252,
                    "duration": 0.38132927916666404
                },
                {
                    "name": "D4",
                    "midi": 62,
                    "time": 71.20256249999994,
                    "velocity": 0.4094488188976378,
                    "duration": 0.09493675000000223
                },
                {
                    "name": "G4",
                    "midi": 67,
                    "time": 71.20256249999994,
                    "velocity": 0.4094488188976378,
                    "duration": 0.09493675000000223
                },
                {
                    "name": "B4",
                    "midi": 71,
                    "time": 71.20256249999994,
                    "velocity": 0.4881889763779528,
                    "duration": 0.09493675000000223
                },
                {
                    "name": "D#4",
                    "midi": 63,
                    "time": 71.39243599999995,
                    "velocity": 0.5511811023622047,
                    "duration": 0.3797469999999947
                },
                {
                    "name": "G4",
                    "midi": 67,
                    "time": 71.39243599999995,
                    "velocity": 0.5511811023622047,
                    "duration": 0.3797469999999947
                },
                {
                    "name": "C5",
                    "midi": 72,
                    "time": 71.39243599999995,
                    "velocity": 0.6535433070866141,
                    "duration": 0.3797469999999947
                },
                {
                    "name": "G4",
                    "midi": 67,
                    "time": 72.15192999999994,
                    "velocity": 0.6141732283464567,
                    "duration": 0.38132927916666404
                },
                {
                    "name": "D#5",
                    "midi": 75,
                    "time": 72.15192999999994,
                    "velocity": 0.7244094488188977,
                    "duration": 0.38132927916666404
                },
                {
                    "name": "F4",
                    "midi": 65,
                    "time": 72.72155049999994,
                    "velocity": 0.5039370078740157,
                    "duration": 0.09493675000000223
                },
                {
                    "name": "G4",
                    "midi": 67,
                    "time": 72.72155049999994,
                    "velocity": 0.5039370078740157,
                    "duration": 0.09493675000000223
                },
                {
                    "name": "D5",
                    "midi": 74,
                    "time": 72.72155049999994,
                    "velocity": 0.6062992125984252,
                    "duration": 0.09493675000000223
                },
                {
                    "name": "D#4",
                    "midi": 63,
                    "time": 72.91142399999994,
                    "velocity": 0.5826771653543307,
                    "duration": 2.278481999999997
                },
                {
                    "name": "G4",
                    "midi": 67,
                    "time": 72.91142399999994,
                    "velocity": 0.5826771653543307,
                    "duration": 2.278481999999997
                },
                {
                    "name": "C5",
                    "midi": 72,
                    "time": 72.91142399999994,
                    "velocity": 0.7007874015748031,
                    "duration": 2.278481999999997
                },
                {
                    "name": "D5",
                    "midi": 74,
                    "time": 75.18990599999994,
                    "velocity": 0.4330708661417323,
                    "duration": 0.5696204999999992
                },
                {
                    "name": "D#5",
                    "midi": 75,
                    "time": 75.75952649999994,
                    "velocity": 0.3700787401574803,
                    "duration": 0.18987350000000447
                },
                {
                    "name": "F5",
                    "midi": 77,
                    "time": 75.94939999999994,
                    "velocity": 0.5039370078740157,
                    "duration": 0.5348103583333312
                },
                {
                    "name": "B4",
                    "midi": 71,
                    "time": 76.70889399999994,
                    "velocity": 0.3464566929133858,
                    "duration": 0.5696204999999992
                },
                {
                    "name": "G#4",
                    "midi": 68,
                    "time": 76.70889399999994,
                    "velocity": 0.3464566929133858,
                    "duration": 0.5696204999999992
                },
                {
                    "name": "D5",
                    "midi": 74,
                    "time": 76.70889399999994,
                    "velocity": 0.3464566929133858,
                    "duration": 0.5696204999999992
                },
                {
                    "name": "F5",
                    "midi": 77,
                    "time": 76.70889399999994,
                    "velocity": 0.4094488188976378,
                    "duration": 0.5348103583333312
                },
                {
                    "name": "G#4",
                    "midi": 68,
                    "time": 77.46838799999995,
                    "velocity": 0.3464566929133858,
                    "duration": 0.5696204999999992
                },
                {
                    "name": "A#4",
                    "midi": 70,
                    "time": 77.46838799999995,
                    "velocity": 0.3464566929133858,
                    "duration": 0.5696204999999992
                },
                {
                    "name": "F5",
                    "midi": 77,
                    "time": 77.46838799999995,
                    "velocity": 0.4094488188976378,
                    "duration": 0.5348103583333312
                },
                {
                    "name": "A#4",
                    "midi": 70,
                    "time": 78.22788199999995,
                    "velocity": 0.30708661417322836,
                    "duration": 0.7594940000000037
                },
                {
                    "name": "G#4",
                    "midi": 68,
                    "time": 78.22788199999995,
                    "velocity": 0.30708661417322836,
                    "duration": 0.7594940000000037
                },
                {
                    "name": "D#5",
                    "midi": 75,
                    "time": 78.22788199999995,
                    "velocity": 0.3700787401574803,
                    "duration": 0.09493675000000223
                },
                {
                    "name": "F5",
                    "midi": 77,
                    "time": 78.32281874999995,
                    "velocity": 0.3700787401574803,
                    "duration": 0.09493675000000223
                },
                {
                    "name": "D#5",
                    "midi": 75,
                    "time": 78.41775549999996,
                    "velocity": 0.5511811023622047,
                    "duration": 0.3797469999999947
                },
                {
                    "name": "D5",
                    "midi": 74,
                    "time": 78.79750249999995,
                    "velocity": 0.4566929133858268,
                    "duration": 0.18987350000000447
                },
                {
                    "name": "A#4",
                    "midi": 70,
                    "time": 78.98737599999995,
                    "velocity": 0.4409448818897638,
                    "duration": 0.7594940000000037
                },
                {
                    "name": "G4",
                    "midi": 67,
                    "time": 78.98737599999995,
                    "velocity": 0.4409448818897638,
                    "duration": 0.7594940000000037
                },
                {
                    "name": "G5",
                    "midi": 79,
                    "time": 78.98737599999995,
                    "velocity": 0.5196850393700787,
                    "duration": 1.3291145000000029
                },
                {
                    "name": "D5",
                    "midi": 74,
                    "time": 79.74686999999996,
                    "velocity": 0.3464566929133858,
                    "duration": 0.7594940000000037
                },
                {
                    "name": "G#4",
                    "midi": 68,
                    "time": 79.74686999999996,
                    "velocity": 0.28346456692913385,
                    "duration": 0.7594940000000037
                },
                {
                    "name": "F5",
                    "midi": 77,
                    "time": 80.31649049999996,
                    "velocity": 0.4330708661417323,
                    "duration": 0.18987350000000447
                },
                {
                    "name": "G4",
                    "midi": 67,
                    "time": 80.50636399999996,
                    "velocity": 0.4409448818897638,
                    "duration": 0.7594940000000037
                },
                {
                    "name": "D#5",
                    "midi": 75,
                    "time": 80.50636399999996,
                    "velocity": 0.3779527559055118,
                    "duration": 0.7594940000000037
                },
                {
                    "name": "F4",
                    "midi": 65,
                    "time": 81.26585799999997,
                    "velocity": 0.41732283464566927,
                    "duration": 0.5696204999999992
                },
                {
                    "name": "G#4",
                    "midi": 68,
                    "time": 81.26585799999997,
                    "velocity": 0.36220472440944884,
                    "duration": 0.7594940000000037
                },
                {
                    "name": "D5",
                    "midi": 74,
                    "time": 81.26585799999997,
                    "velocity": 0.49606299212598426,
                    "duration": 0.5696204999999992
                },
                {
                    "name": "D#4",
                    "midi": 63,
                    "time": 81.83547849999997,
                    "velocity": 0.36220472440944884,
                    "duration": 0.18987350000000447
                },
                {
                    "name": "C5",
                    "midi": 72,
                    "time": 81.83547849999997,
                    "velocity": 0.4251968503937008,
                    "duration": 0.18987350000000447
                },
                {
                    "name": "D4",
                    "midi": 62,
                    "time": 82.02535199999997,
                    "velocity": 0.3937007874015748,
                    "duration": 0.7594940000000037
                },
                {
                    "name": "G4",
                    "midi": 67,
                    "time": 82.02535199999997,
                    "velocity": 0.3937007874015748,
                    "duration": 0.7594940000000037
                },
                {
                    "name": "B4",
                    "midi": 71,
                    "time": 82.02535199999997,
                    "velocity": 0.4645669291338583,
                    "duration": 0.7594940000000037
                },
                {
                    "name": "C4",
                    "midi": 60,
                    "time": 82.78484599999997,
                    "velocity": 0.4094488188976378,
                    "duration": 0.5696204999999992
                },
                {
                    "name": "G4",
                    "midi": 67,
                    "time": 82.78484599999997,
                    "velocity": 0.4094488188976378,
                    "duration": 0.5696204999999992
                },
                {
                    "name": "A4",
                    "midi": 69,
                    "time": 82.78484599999997,
                    "velocity": 0.48031496062992124,
                    "duration": 0.5696204999999992
                },
                {
                    "name": "D4",
                    "midi": 62,
                    "time": 83.35446649999997,
                    "velocity": 0.33070866141732286,
                    "duration": 0.18987350000000447
                },
                {
                    "name": "G4",
                    "midi": 67,
                    "time": 83.35446649999997,
                    "velocity": 0.33070866141732286,
                    "duration": 0.18987350000000447
                },
                {
                    "name": "B4",
                    "midi": 71,
                    "time": 83.35446649999997,
                    "velocity": 0.3937007874015748,
                    "duration": 0.18987350000000447
                },
                {
                    "name": "D#4",
                    "midi": 63,
                    "time": 83.54433999999998,
                    "velocity": 0.44881889763779526,
                    "duration": 0.7594940000000037
                },
                {
                    "name": "G4",
                    "midi": 67,
                    "time": 83.54433999999998,
                    "velocity": 0.44881889763779526,
                    "duration": 0.7594940000000037
                },
                {
                    "name": "C5",
                    "midi": 72,
                    "time": 83.54433999999998,
                    "velocity": 0.5354330708661418,
                    "duration": 0.7594940000000037
                },
                {
                    "name": "G4",
                    "midi": 67,
                    "time": 84.30383399999998,
                    "velocity": 0.4645669291338583,
                    "duration": 0.5696204999999992
                },
                {
                    "name": "F5",
                    "midi": 77,
                    "time": 84.30383399999998,
                    "velocity": 0.6141732283464567,
                    "duration": 0.5696204999999992
                },
                {
                    "name": "G4",
                    "midi": 67,
                    "time": 84.87345449999998,
                    "velocity": 0.47244094488188976,
                    "duration": 0.18987350000000447
                },
                {
                    "name": "D#5",
                    "midi": 75,
                    "time": 84.87345449999998,
                    "velocity": 0.5590551181102362,
                    "duration": 0.18987350000000447
                },
                {
                    "name": "G4",
                    "midi": 67,
                    "time": 85.06332799999998,
                    "velocity": 0.5590551181102362,
                    "duration": 2.278481999999997
                },
                {
                    "name": "D5",
                    "midi": 74,
                    "time": 85.06332799999998,
                    "velocity": 0.6614173228346457,
                    "duration": 2.278481999999997
                },
                {
                    "name": "F4",
                    "midi": 65,
                    "time": 87.34180999999998,
                    "velocity": 0.5511811023622047,
                    "duration": 0.38132927916666404
                },
                {
                    "name": "A#4",
                    "midi": 70,
                    "time": 87.34180999999998,
                    "velocity": 0.5511811023622047,
                    "duration": 0.38132927916666404
                },
                {
                    "name": "D5",
                    "midi": 74,
                    "time": 87.34180999999998,
                    "velocity": 0.6535433070866141,
                    "duration": 0.38132927916666404
                },
                {
                    "name": "G4",
                    "midi": 67,
                    "time": 87.91143049999998,
                    "velocity": 0.5275590551181102,
                    "duration": 0.09493675000000223
                },
                {
                    "name": "A#4",
                    "midi": 70,
                    "time": 87.91143049999998,
                    "velocity": 0.5275590551181102,
                    "duration": 0.09493675000000223
                },
                {
                    "name": "D#5",
                    "midi": 75,
                    "time": 87.91143049999998,
                    "velocity": 0.6220472440944882,
                    "duration": 0.09493675000000223
                },
                {
                    "name": "G#4",
                    "midi": 68,
                    "time": 88.10130399999998,
                    "velocity": 0.5039370078740157,
                    "duration": 0.38132927916666404
                },
                {
                    "name": "A#4",
                    "midi": 70,
                    "time": 88.10130399999998,
                    "velocity": 0.6377952755905512,
                    "duration": 0.38132927916666404
                },
                {
                    "name": "F5",
                    "midi": 77,
                    "time": 88.10130399999998,
                    "velocity": 0.7559055118110236,
                    "duration": 0.38132927916666404
                },
                {
                    "name": "G#4",
                    "midi": 68,
                    "time": 88.86079799999999,
                    "velocity": 0.47244094488188976,
                    "duration": 0.38132927916666404
                },
                {
                    "name": "A#4",
                    "midi": 70,
                    "time": 88.86079799999999,
                    "velocity": 0.5905511811023622,
                    "duration": 0.38132927916666404
                },
                {
                    "name": "F5",
                    "midi": 77,
                    "time": 88.86079799999999,
                    "velocity": 0.6929133858267716,
                    "duration": 0.38132927916666404
                },
                {
                    "name": "G#4",
                    "midi": 68,
                    "time": 89.62029199999999,
                    "velocity": 0.47244094488188976,
                    "duration": 0.38132927916666404
                },
                {
                    "name": "A#4",
                    "midi": 70,
                    "time": 89.62029199999999,
                    "velocity": 0.5905511811023622,
                    "duration": 0.38132927916666404
                },
                {
                    "name": "F5",
                    "midi": 77,
                    "time": 89.62029199999999,
                    "velocity": 0.6929133858267716,
                    "duration": 0.38132927916666404
                },
                {
                    "name": "G4",
                    "midi": 67,
                    "time": 90.379786,
                    "velocity": 0.4566929133858268,
                    "duration": 0.38132927916666404
                },
                {
                    "name": "A#4",
                    "midi": 70,
                    "time": 90.379786,
                    "velocity": 0.5748031496062992,
                    "duration": 0.38132927916666404
                },
                {
                    "name": "D#5",
                    "midi": 75,
                    "time": 90.379786,
                    "velocity": 0.6771653543307087,
                    "duration": 0.38132927916666404
                },
                {
                    "name": "F4",
                    "midi": 65,
                    "time": 90.9494065,
                    "velocity": 0.47244094488188976,
                    "duration": 0.09493675000000223
                },
                {
                    "name": "A#4",
                    "midi": 70,
                    "time": 90.9494065,
                    "velocity": 0.5984251968503937,
                    "duration": 0.09493675000000223
                },
                {
                    "name": "D5",
                    "midi": 74,
                    "time": 90.9494065,
                    "velocity": 0.7007874015748031,
                    "duration": 0.09493675000000223
                },
                {
                    "name": "A#4",
                    "midi": 70,
                    "time": 91.13928,
                    "velocity": 0.6614173228346457,
                    "duration": 1.3291145000000029
                },
                {
                    "name": "G5",
                    "midi": 79,
                    "time": 91.13928,
                    "velocity": 0.7795275590551181,
                    "duration": 1.3291145000000029
                },
                {
                    "name": "G#4",
                    "midi": 68,
                    "time": 92.4683945,
                    "velocity": 0.5511811023622047,
                    "duration": 0.18987350000000447
                },
                {
                    "name": "A#4",
                    "midi": 70,
                    "time": 92.4683945,
                    "velocity": 0.5511811023622047,
                    "duration": 0.18987350000000447
                },
                {
                    "name": "F5",
                    "midi": 77,
                    "time": 92.4683945,
                    "velocity": 0.6535433070866141,
                    "duration": 0.18987350000000447
                },
                {
                    "name": "G4",
                    "midi": 67,
                    "time": 92.658268,
                    "velocity": 0.4881889763779528,
                    "duration": 0.3797469999999947
                },
                {
                    "name": "A#4",
                    "midi": 70,
                    "time": 92.658268,
                    "velocity": 0.4881889763779528,
                    "duration": 0.3797469999999947
                },
                {
                    "name": "D#5",
                    "midi": 75,
                    "time": 92.658268,
                    "velocity": 0.5826771653543307,
                    "duration": 0.3797469999999947
                },
                {
                    "name": "F4",
                    "midi": 65,
                    "time": 93.417762,
                    "velocity": 0.6062992125984252,
                    "duration": 0.38132927916666404
                },
                {
                    "name": "G#4",
                    "midi": 68,
                    "time": 93.417762,
                    "velocity": 0.6062992125984252,
                    "duration": 0.38132927916666404
                },
                {
                    "name": "D5",
                    "midi": 74,
                    "time": 93.417762,
                    "velocity": 0.7244094488188977,
                    "duration": 0.38132927916666404
                },
                {
                    "name": "D#4",
                    "midi": 63,
                    "time": 93.9873825,
                    "velocity": 0.5275590551181102,
                    "duration": 0.09493675000000223
                },
                {
                    "name": "G#4",
                    "midi": 68,
                    "time": 93.9873825,
                    "velocity": 0.5275590551181102,
                    "duration": 0.09493675000000223
                },
                {
                    "name": "C5",
                    "midi": 72,
                    "time": 93.9873825,
                    "velocity": 0.6220472440944882,
                    "duration": 0.09493675000000223
                },
                {
                    "name": "D4",
                    "midi": 62,
                    "time": 94.177256,
                    "velocity": 0.5748031496062992,
                    "duration": 0.3797469999999947
                },
                {
                    "name": "G4",
                    "midi": 67,
                    "time": 94.177256,
                    "velocity": 0.5748031496062992,
                    "duration": 0.3797469999999947
                },
                {
                    "name": "B4",
                    "midi": 71,
                    "time": 94.177256,
                    "velocity": 0.6771653543307087,
                    "duration": 0.3797469999999947
                },
                {
                    "name": "C4",
                    "midi": 60,
                    "time": 94.93674999999999,
                    "velocity": 0.5511811023622047,
                    "duration": 0.38132927916666404
                },
                {
                    "name": "G4",
                    "midi": 67,
                    "time": 94.93674999999999,
                    "velocity": 0.5511811023622047,
                    "duration": 0.38132927916666404
                },
                {
                    "name": "A4",
                    "midi": 69,
                    "time": 94.93674999999999,
                    "velocity": 0.6535433070866141,
                    "duration": 0.38132927916666404
                },
                {
                    "name": "D4",
                    "midi": 62,
                    "time": 95.50637049999999,
                    "velocity": 0.44881889763779526,
                    "duration": 0.09493675000000223
                },
                {
                    "name": "G4",
                    "midi": 67,
                    "time": 95.50637049999999,
                    "velocity": 0.44881889763779526,
                    "duration": 0.09493675000000223
                },
                {
                    "name": "B4",
                    "midi": 71,
                    "time": 95.50637049999999,
                    "velocity": 0.5275590551181102,
                    "duration": 0.09493675000000223
                },
                {
                    "name": "D#4",
                    "midi": 63,
                    "time": 95.696244,
                    "velocity": 0.5984251968503937,
                    "duration": 0.3797469999999947
                },
                {
                    "name": "G4",
                    "midi": 67,
                    "time": 95.696244,
                    "velocity": 0.5984251968503937,
                    "duration": 0.3797469999999947
                },
                {
                    "name": "C5",
                    "midi": 72,
                    "time": 95.696244,
                    "velocity": 0.7086614173228346,
                    "duration": 0.3797469999999947
                },
                {
                    "name": "G4",
                    "midi": 67,
                    "time": 96.45573799999998,
                    "velocity": 0.6614173228346457,
                    "duration": 0.38132927916666404
                },
                {
                    "name": "D#5",
                    "midi": 75,
                    "time": 96.45573799999998,
                    "velocity": 0.7795275590551181,
                    "duration": 0.38132927916666404
                },
                {
                    "name": "F4",
                    "midi": 65,
                    "time": 97.02535849999998,
                    "velocity": 0.5511811023622047,
                    "duration": 0.09493675000000223
                },
                {
                    "name": "G4",
                    "midi": 67,
                    "time": 97.02535849999998,
                    "velocity": 0.5511811023622047,
                    "duration": 0.09493675000000223
                },
                {
                    "name": "D5",
                    "midi": 74,
                    "time": 97.02535849999998,
                    "velocity": 0.6535433070866141,
                    "duration": 0.09493675000000223
                },
                {
                    "name": "D#4",
                    "midi": 63,
                    "time": 97.21523199999999,
                    "velocity": 0.6377952755905512,
                    "duration": 2.278481999999997
                },
                {
                    "name": "G4",
                    "midi": 67,
                    "time": 97.21523199999999,
                    "velocity": 0.6377952755905512,
                    "duration": 2.278481999999997
                },
                {
                    "name": "C5",
                    "midi": 72,
                    "time": 97.21523199999999,
                    "velocity": 0.7559055118110236,
                    "duration": 2.278481999999997
                },
                {
                    "name": "D#5",
                    "midi": 75,
                    "time": 99.49371399999998,
                    "velocity": 0.6141732283464567,
                    "duration": 0.5696204999999992
                },
                {
                    "name": "D5",
                    "midi": 74,
                    "time": 100.06333449999998,
                    "velocity": 0.5511811023622047,
                    "duration": 0.18987350000000447
                },
                {
                    "name": "D#4",
                    "midi": 63,
                    "time": 100.25320799999999,
                    "velocity": 0.5590551181102362,
                    "duration": 2.278481999999997
                },
                {
                    "name": "G#4",
                    "midi": 68,
                    "time": 100.25320799999999,
                    "velocity": 0.5590551181102362,
                    "duration": 2.278481999999997
                },
                {
                    "name": "C5",
                    "midi": 72,
                    "time": 100.25320799999999,
                    "velocity": 0.6535433070866141,
                    "duration": 2.278481999999997
                },
                {
                    "name": "C5",
                    "midi": 72,
                    "time": 102.53168999999998,
                    "velocity": 0.5433070866141733,
                    "duration": 0.09493675000000223
                },
                {
                    "name": "D#5",
                    "midi": 75,
                    "time": 102.62662674999999,
                    "velocity": 0.6141732283464567,
                    "duration": 0.47468374999999696
                },
                {
                    "name": "D5",
                    "midi": 74,
                    "time": 103.10131049999998,
                    "velocity": 0.5511811023622047,
                    "duration": 0.18987350000000447
                },
                {
                    "name": "G4",
                    "midi": 67,
                    "time": 103.29118399999999,
                    "velocity": 0.5590551181102362,
                    "duration": 2.278481999999997
                },
                {
                    "name": "C5",
                    "midi": 72,
                    "time": 103.29118399999999,
                    "velocity": 0.6535433070866141,
                    "duration": 2.278481999999997
                },
                {
                    "name": "D5",
                    "midi": 74,
                    "time": 105.56966599999998,
                    "velocity": 0.6141732283464567,
                    "duration": 0.5696204999999992
                },
                {
                    "name": "D#5",
                    "midi": 75,
                    "time": 106.13928649999998,
                    "velocity": 0.5275590551181102,
                    "duration": 0.18987350000000447
                },
                {
                    "name": "G#4",
                    "midi": 68,
                    "time": 106.32915999999999,
                    "velocity": 0.4881889763779528,
                    "duration": 0.7594940000000037
                },
                {
                    "name": "C5",
                    "midi": 72,
                    "time": 106.32915999999999,
                    "velocity": 0.4881889763779528,
                    "duration": 0.7594940000000037
                },
                {
                    "name": "F5",
                    "midi": 77,
                    "time": 106.32915999999999,
                    "velocity": 0.5748031496062992,
                    "duration": 0.7594940000000037
                },
                {
                    "name": "G4",
                    "midi": 67,
                    "time": 107.08865399999999,
                    "velocity": 0.4645669291338583,
                    "duration": 0.38132927916666404
                },
                {
                    "name": "C5",
                    "midi": 72,
                    "time": 107.08865399999999,
                    "velocity": 0.4645669291338583,
                    "duration": 0.38132927916666404
                },
                {
                    "name": "D#5",
                    "midi": 75,
                    "time": 107.08865399999999,
                    "velocity": 0.5511811023622047,
                    "duration": 0.38132927916666404
                },
                {
                    "name": "F4",
                    "midi": 65,
                    "time": 107.65827449999999,
                    "velocity": 0.3779527559055118,
                    "duration": 0.09493675000000223
                },
                {
                    "name": "D5",
                    "midi": 74,
                    "time": 107.65827449999999,
                    "velocity": 0.44881889763779526,
                    "duration": 0.09493675000000223
                },
                {
                    "name": "D#4",
                    "midi": 63,
                    "time": 107.848148,
                    "velocity": 0.5039370078740157,
                    "duration": 0.7594940000000037
                },
                {
                    "name": "C5",
                    "midi": 72,
                    "time": 107.848148,
                    "velocity": 0.5984251968503937,
                    "duration": 0.7594940000000037
                },
                {
                    "name": "G4",
                    "midi": 67,
                    "time": 108.607642,
                    "velocity": 0.47244094488188976,
                    "duration": 0.7594940000000037
                },
                {
                    "name": "D4",
                    "midi": 62,
                    "time": 108.607642,
                    "velocity": 0.47244094488188976,
                    "duration": 0.7626585583333423
                },
                {
                    "name": "B4",
                    "midi": 71,
                    "time": 108.607642,
                    "velocity": 0.5590551181102362,
                    "duration": 0.7626585583333423
                },
                {
                    "name": "D#4",
                    "midi": 63,
                    "time": 109.367136,
                    "velocity": 0.44881889763779526,
                    "duration": 2.278482000000011
                },
                {
                    "name": "G4",
                    "midi": 67,
                    "time": 109.367136,
                    "velocity": 0.44881889763779526,
                    "duration": 2.278482000000011
                },
                {
                    "name": "C5",
                    "midi": 72,
                    "time": 109.367136,
                    "velocity": 0.5354330708661418,
                    "duration": 2.278482000000011
                },
                {
                    "name": "D#5",
                    "midi": 75,
                    "time": 111.64561800000001,
                    "velocity": 0.47244094488188976,
                    "duration": 0.5696204999999992
                },
                {
                    "name": "D5",
                    "midi": 74,
                    "time": 112.21523850000001,
                    "velocity": 0.4251968503937008,
                    "duration": 0.18987350000000447
                },
                {
                    "name": "D#4",
                    "midi": 63,
                    "time": 112.40511200000002,
                    "velocity": 0.4330708661417323,
                    "duration": 2.278481999999997
                },
                {
                    "name": "G#4",
                    "midi": 68,
                    "time": 112.40511200000002,
                    "velocity": 0.4330708661417323,
                    "duration": 2.278481999999997
                },
                {
                    "name": "C5",
                    "midi": 72,
                    "time": 112.40511200000002,
                    "velocity": 0.5118110236220472,
                    "duration": 2.278481999999997
                },
                {
                    "name": "D#5",
                    "midi": 75,
                    "time": 114.68359400000001,
                    "velocity": 0.4645669291338583,
                    "duration": 0.5696204999999992
                },
                {
                    "name": "D5",
                    "midi": 74,
                    "time": 115.25321450000001,
                    "velocity": 0.4094488188976378,
                    "duration": 0.18987350000000447
                },
                {
                    "name": "G4",
                    "midi": 67,
                    "time": 115.44308800000002,
                    "velocity": 0.4015748031496063,
                    "duration": 2.278481999999997
                },
                {
                    "name": "C5",
                    "midi": 72,
                    "time": 115.44308800000002,
                    "velocity": 0.48031496062992124,
                    "duration": 2.278481999999997
                },
                {
                    "name": "C#5",
                    "midi": 73,
                    "time": 117.72157000000001,
                    "velocity": 0.4251968503937008,
                    "duration": 0.5696204999999992
                },
                {
                    "name": "D#5",
                    "midi": 75,
                    "time": 118.29119050000001,
                    "velocity": 0.36220472440944884,
                    "duration": 0.18987350000000447
                },
                {
                    "name": "C#5",
                    "midi": 73,
                    "time": 118.48106400000002,
                    "velocity": 0.31496062992125984,
                    "duration": 0.09493675000000223
                },
                {
                    "name": "G#4",
                    "midi": 68,
                    "time": 118.48106400000002,
                    "velocity": 0.31496062992125984,
                    "duration": 0.7594940000000037
                },
                {
                    "name": "D#5",
                    "midi": 75,
                    "time": 118.57600075000002,
                    "velocity": 0.33858267716535434,
                    "duration": 0.09493675000000223
                },
                {
                    "name": "F5",
                    "midi": 77,
                    "time": 118.67093750000002,
                    "velocity": 0.4015748031496063,
                    "duration": 0.5696204999999992
                },
                {
                    "name": "G#4",
                    "midi": 68,
                    "time": 119.24055800000002,
                    "velocity": 0.3228346456692913,
                    "duration": 0.38132927916666404
                },
                {
                    "name": "D#5",
                    "midi": 75,
                    "time": 119.24055800000002,
                    "velocity": 0.3858267716535433,
                    "duration": 0.38132927916666404
                },
                {
                    "name": "G#4",
                    "midi": 68,
                    "time": 119.81017850000002,
                    "velocity": 0.25984251968503935,
                    "duration": 0.09493675000000223
                },
                {
                    "name": "C#5",
                    "midi": 73,
                    "time": 119.81017850000002,
                    "velocity": 0.30708661417322836,
                    "duration": 0.09493675000000223
                },
                {
                    "name": "G#4",
                    "midi": 68,
                    "time": 120.00005200000003,
                    "velocity": 0.3464566929133858,
                    "duration": 0.3797469999999947
                },
                {
                    "name": "C5",
                    "midi": 72,
                    "time": 120.00005200000003,
                    "velocity": 0.41732283464566927,
                    "duration": 0.3797469999999947
                },
                {
                    "name": "D#4",
                    "midi": 63,
                    "time": 120.75954600000001,
                    "velocity": 0.29133858267716534,
                    "duration": 0.3797469999999947
                },
                {
                    "name": "G4",
                    "midi": 67,
                    "time": 120.75954600000001,
                    "velocity": 0.29133858267716534,
                    "duration": 0.3797469999999947
                },
                {
                    "name": "C#4",
                    "midi": 61,
                    "time": 120.75954600000001,
                    "velocity": 0.29133858267716534,
                    "duration": 0.38132927916666404
                },
                {
                    "name": "A#4",
                    "midi": 70,
                    "time": 120.75954600000001,
                    "velocity": 0.3464566929133858,
                    "duration": 0.38132927916666404
                },
                {
                    "name": "C4",
                    "midi": 60,
                    "time": 121.51904000000002,
                    "velocity": 0.30708661417322836,
                    "duration": 1.5189879999999931
                },
                {
                    "name": "D#4",
                    "midi": 63,
                    "time": 121.51904000000002,
                    "velocity": 0.30708661417322836,
                    "duration": 1.5189879999999931
                },
                {
                    "name": "G#4",
                    "midi": 68,
                    "time": 121.51904000000002,
                    "velocity": 0.3700787401574803,
                    "duration": 1.5189879999999931
                },
                {
                    "name": "G#4",
                    "midi": 68,
                    "time": 123.79752200000001,
                    "velocity": 0.41732283464566927,
                    "duration": 0.5696204999999992
                },
                {
                    "name": "C5",
                    "midi": 72,
                    "time": 124.36714250000001,
                    "velocity": 0.3700787401574803,
                    "duration": 0.18987350000000447
                },
                {
                    "name": "D#5",
                    "midi": 75,
                    "time": 124.55701600000002,
                    "velocity": 0.44881889763779526,
                    "duration": 0.5696204999999992
                },
                {
                    "name": "D#5",
                    "midi": 75,
                    "time": 125.31651000000002,
                    "velocity": 0.4015748031496063,
                    "duration": 0.5696204999999992
                },
                {
                    "name": "D#5",
                    "midi": 75,
                    "time": 126.07600400000003,
                    "velocity": 0.41732283464566927,
                    "duration": 0.5696204999999992
                },
                {
                    "name": "D#5",
                    "midi": 75,
                    "time": 126.83549800000003,
                    "velocity": 0.4094488188976378,
                    "duration": 0.5696204999999992
                },
                {
                    "name": "F5",
                    "midi": 77,
                    "time": 127.59499200000003,
                    "velocity": 0.4566929133858268,
                    "duration": 1.5189879999999931
                },
                {
                    "name": "D#5",
                    "midi": 75,
                    "time": 129.11398000000003,
                    "velocity": 0.4330708661417323,
                    "duration": 1.5189880000000073
                },
                {
                    "name": "C#5",
                    "midi": 73,
                    "time": 130.63296800000003,
                    "velocity": 0.4566929133858268,
                    "duration": 1.5189880000000073
                },
                {
                    "name": "C5",
                    "midi": 72,
                    "time": 132.15195600000004,
                    "velocity": 0.4094488188976378,
                    "duration": 1.5189880000000073
                },
                {
                    "name": "A#4",
                    "midi": 70,
                    "time": 133.67094400000005,
                    "velocity": 0.31496062992125984,
                    "duration": 0.7594939999999895
                },
                {
                    "name": "C#5",
                    "midi": 73,
                    "time": 134.43043800000004,
                    "velocity": 0.2677165354330709,
                    "duration": 0.7594939999999895
                },
                {
                    "name": "C5",
                    "midi": 72,
                    "time": 135.18993200000003,
                    "velocity": 0.31496062992125984,
                    "duration": 0.7594939999999895
                },
                {
                    "name": "A#4",
                    "midi": 70,
                    "time": 135.94942600000002,
                    "velocity": 0.29133858267716534,
                    "duration": 0.7594939999999895
                },
                {
                    "name": "G#4",
                    "midi": 68,
                    "time": 136.70892,
                    "velocity": 0.3779527559055118,
                    "duration": 1.5189880000000073
                },
                {
                    "name": "G#4",
                    "midi": 68,
                    "time": 138.987402,
                    "velocity": 0.41732283464566927,
                    "duration": 0.5696205000000134
                },
                {
                    "name": "C5",
                    "midi": 72,
                    "time": 139.55702250000002,
                    "velocity": 0.3700787401574803,
                    "duration": 0.18987350000000447
                },
                {
                    "name": "D#5",
                    "midi": 75,
                    "time": 139.74689600000002,
                    "velocity": 0.44881889763779526,
                    "duration": 0.5348103583333454
                },
                {
                    "name": "D#4",
                    "midi": 63,
                    "time": 140.50639000000004,
                    "velocity": 0.33070866141732286,
                    "duration": 0.5696205000000134
                },
                {
                    "name": "D#5",
                    "midi": 75,
                    "time": 140.50639000000004,
                    "velocity": 0.4015748031496063,
                    "duration": 0.5696205000000134
                },
                {
                    "name": "D#4",
                    "midi": 63,
                    "time": 141.26588400000006,
                    "velocity": 0.3543307086614173,
                    "duration": 0.5696205000000134
                },
                {
                    "name": "D#5",
                    "midi": 75,
                    "time": 141.26588400000006,
                    "velocity": 0.41732283464566927,
                    "duration": 0.5696205000000134
                },
                {
                    "name": "D#4",
                    "midi": 63,
                    "time": 142.02537800000007,
                    "velocity": 0.3464566929133858,
                    "duration": 0.5696205000000134
                },
                {
                    "name": "D#5",
                    "midi": 75,
                    "time": 142.02537800000007,
                    "velocity": 0.4094488188976378,
                    "duration": 0.5696205000000134
                },
                {
                    "name": "E4",
                    "midi": 64,
                    "time": 142.7848720000001,
                    "velocity": 0.3858267716535433,
                    "duration": 1.5189880000000073
                },
                {
                    "name": "E5",
                    "midi": 76,
                    "time": 142.7848720000001,
                    "velocity": 0.4566929133858268,
                    "duration": 1.5189880000000073
                },
                {
                    "name": "D#4",
                    "midi": 63,
                    "time": 144.3038600000001,
                    "velocity": 0.36220472440944884,
                    "duration": 1.5189880000000073
                },
                {
                    "name": "D#5",
                    "midi": 75,
                    "time": 144.3038600000001,
                    "velocity": 0.4330708661417323,
                    "duration": 1.5189880000000073
                },
                {
                    "name": "C#5",
                    "midi": 73,
                    "time": 145.8228480000001,
                    "velocity": 0.4566929133858268,
                    "duration": 1.5189880000000073
                },
                {
                    "name": "B4",
                    "midi": 71,
                    "time": 147.34183600000011,
                    "velocity": 0.4094488188976378,
                    "duration": 1.1392409999999984
                },
                {
                    "name": "A#4",
                    "midi": 70,
                    "time": 148.4810770000001,
                    "velocity": 0.3543307086614173,
                    "duration": 0.37974700000000894
                },
                {
                    "name": "G#4",
                    "midi": 68,
                    "time": 148.86082400000012,
                    "velocity": 0.31496062992125984,
                    "duration": 0.7594939999999895
                },
                {
                    "name": "G#4",
                    "midi": 68,
                    "time": 149.6203180000001,
                    "velocity": 0.25984251968503935,
                    "duration": 0.09493674999998802
                },
                {
                    "name": "E5",
                    "midi": 76,
                    "time": 149.7152547500001,
                    "velocity": 0.4094488188976378,
                    "duration": 0.6645572500000014
                },
                {
                    "name": "D#5",
                    "midi": 75,
                    "time": 150.3798120000001,
                    "velocity": 0.36220472440944884,
                    "duration": 0.7594939999999895
                },
                {
                    "name": "C#5",
                    "midi": 73,
                    "time": 151.1393060000001,
                    "velocity": 0.33070866141732286,
                    "duration": 0.7594939999999895
                },
                {
                    "name": "B4",
                    "midi": 71,
                    "time": 151.89880000000008,
                    "velocity": 0.3779527559055118,
                    "duration": 2.278481999999997
                },
                {
                    "name": "B4",
                    "midi": 71,
                    "time": 154.17728200000008,
                    "velocity": 0.44881889763779526,
                    "duration": 0.5696205000000134
                },
                {
                    "name": "D#5",
                    "midi": 75,
                    "time": 154.7469025000001,
                    "velocity": 0.3937007874015748,
                    "duration": 0.18987350000000447
                },
                {
                    "name": "F#4",
                    "midi": 66,
                    "time": 154.9367760000001,
                    "velocity": 0.36220472440944884,
                    "duration": 0.7579117208333344
                },
                {
                    "name": "F#5",
                    "midi": 78,
                    "time": 154.9367760000001,
                    "velocity": 0.4881889763779528,
                    "duration": 0.7579117208333344
                },
                {
                    "name": "F#4",
                    "midi": 66,
                    "time": 155.69627000000008,
                    "velocity": 0.3779527559055118,
                    "duration": 0.7579117208333344
                },
                {
                    "name": "F#5",
                    "midi": 78,
                    "time": 155.69627000000008,
                    "velocity": 0.4645669291338583,
                    "duration": 0.7579117208333344
                },
                {
                    "name": "G4",
                    "midi": 67,
                    "time": 156.45576400000007,
                    "velocity": 0.44881889763779526,
                    "duration": 0.7579117208333344
                },
                {
                    "name": "G5",
                    "midi": 79,
                    "time": 156.45576400000007,
                    "velocity": 0.5275590551181102,
                    "duration": 0.7579117208333344
                },
                {
                    "name": "G#4",
                    "midi": 68,
                    "time": 157.21525800000006,
                    "velocity": 0.4645669291338583,
                    "duration": 0.7579117208333344
                },
                {
                    "name": "G#5",
                    "midi": 80,
                    "time": 157.21525800000006,
                    "velocity": 0.5590551181102362,
                    "duration": 0.7579117208333344
                },
                {
                    "name": "A#4",
                    "midi": 70,
                    "time": 157.97475200000005,
                    "velocity": 0.5039370078740157,
                    "duration": 0.7579117208333344
                },
                {
                    "name": "A#5",
                    "midi": 82,
                    "time": 157.97475200000005,
                    "velocity": 0.6220472440944882,
                    "duration": 0.7579117208333344
                },
                {
                    "name": "C#5",
                    "midi": 73,
                    "time": 158.73424600000004,
                    "velocity": 0.5039370078740157,
                    "duration": 0.7579117208333344
                },
                {
                    "name": "C#6",
                    "midi": 85,
                    "time": 158.73424600000004,
                    "velocity": 0.6062992125984252,
                    "duration": 0.7579117208333344
                },
                {
                    "name": "B4",
                    "midi": 71,
                    "time": 159.49374000000003,
                    "velocity": 0.4881889763779528,
                    "duration": 0.7579117208333344
                },
                {
                    "name": "B5",
                    "midi": 83,
                    "time": 159.49374000000003,
                    "velocity": 0.5826771653543307,
                    "duration": 0.7579117208333344
                },
                {
                    "name": "A#4",
                    "midi": 70,
                    "time": 160.25323400000002,
                    "velocity": 0.3858267716535433,
                    "duration": 0.5696205000000134
                },
                {
                    "name": "A#5",
                    "midi": 82,
                    "time": 160.25323400000002,
                    "velocity": 0.4566929133858268,
                    "duration": 0.5696205000000134
                },
                {
                    "name": "G#4",
                    "midi": 68,
                    "time": 160.82285450000003,
                    "velocity": 0.33070866141732286,
                    "duration": 0.18987350000000447
                },
                {
                    "name": "G#5",
                    "midi": 80,
                    "time": 160.82285450000003,
                    "velocity": 0.4015748031496063,
                    "duration": 0.18987350000000447
                },
                {
                    "name": "G4",
                    "midi": 67,
                    "time": 161.01272800000004,
                    "velocity": 0.3858267716535433,
                    "duration": 0.7594939999999895
                },
                {
                    "name": "G5",
                    "midi": 79,
                    "time": 161.01272800000004,
                    "velocity": 0.4566929133858268,
                    "duration": 0.7594939999999895
                },
                {
                    "name": "G4",
                    "midi": 67,
                    "time": 161.77222200000003,
                    "velocity": 0.36220472440944884,
                    "duration": 0.7594939999999895
                },
                {
                    "name": "G5",
                    "midi": 79,
                    "time": 161.77222200000003,
                    "velocity": 0.4330708661417323,
                    "duration": 0.7594939999999895
                },
                {
                    "name": "G#4",
                    "midi": 68,
                    "time": 162.53171600000002,
                    "velocity": 0.3543307086614173,
                    "duration": 0.37974700000000894
                },
                {
                    "name": "G#5",
                    "midi": 80,
                    "time": 162.53171600000002,
                    "velocity": 0.41732283464566927,
                    "duration": 0.37974700000000894
                },
                {
                    "name": "G4",
                    "midi": 67,
                    "time": 162.91146300000003,
                    "velocity": 0.29133858267716534,
                    "duration": 0.37974700000000894
                },
                {
                    "name": "G5",
                    "midi": 79,
                    "time": 162.91146300000003,
                    "velocity": 0.3543307086614173,
                    "duration": 0.37974700000000894
                },
                {
                    "name": "F4",
                    "midi": 65,
                    "time": 163.29121000000004,
                    "velocity": 0.2992125984251969,
                    "duration": 0.37974700000000894
                },
                {
                    "name": "F5",
                    "midi": 77,
                    "time": 163.29121000000004,
                    "velocity": 0.36220472440944884,
                    "duration": 0.37974700000000894
                },
                {
                    "name": "G4",
                    "midi": 67,
                    "time": 163.67095700000004,
                    "velocity": 0.29133858267716534,
                    "duration": 0.37974700000000894
                },
                {
                    "name": "G5",
                    "midi": 79,
                    "time": 163.67095700000004,
                    "velocity": 0.3543307086614173,
                    "duration": 0.37974700000000894
                },
                {
                    "name": "G#4",
                    "midi": 68,
                    "time": 164.05070400000005,
                    "velocity": 0.31496062992125984,
                    "duration": 2.278481999999997
                },
                {
                    "name": "G#5",
                    "midi": 80,
                    "time": 164.05070400000005,
                    "velocity": 0.3779527559055118,
                    "duration": 2.278481999999997
                },
                {
                    "name": "G#5",
                    "midi": 80,
                    "time": 166.32918600000005,
                    "velocity": 0.44881889763779526,
                    "duration": 0.5696205000000134
                },
                {
                    "name": "C6",
                    "midi": 84,
                    "time": 166.89880650000006,
                    "velocity": 0.3937007874015748,
                    "duration": 0.18987350000000447
                },
                {
                    "name": "D#5",
                    "midi": 75,
                    "time": 167.08868000000007,
                    "velocity": 0.44881889763779526,
                    "duration": 0.5696205000000134
                },
                {
                    "name": "D#6",
                    "midi": 87,
                    "time": 167.08868000000007,
                    "velocity": 0.5354330708661418,
                    "duration": 0.5696205000000134
                },
                {
                    "name": "D#5",
                    "midi": 75,
                    "time": 167.84817400000009,
                    "velocity": 0.4094488188976378,
                    "duration": 0.5696205000000134
                },
                {
                    "name": "D#6",
                    "midi": 87,
                    "time": 167.84817400000009,
                    "velocity": 0.4881889763779528,
                    "duration": 0.5696205000000134
                },
                {
                    "name": "D#5",
                    "midi": 75,
                    "time": 168.6076680000001,
                    "velocity": 0.4409448818897638,
                    "duration": 0.5696205000000134
                },
                {
                    "name": "D#6",
                    "midi": 87,
                    "time": 168.6076680000001,
                    "velocity": 0.5275590551181102,
                    "duration": 0.5696205000000134
                },
                {
                    "name": "D#5",
                    "midi": 75,
                    "time": 169.36716200000012,
                    "velocity": 0.47244094488188976,
                    "duration": 0.5696205000000134
                },
                {
                    "name": "D#6",
                    "midi": 87,
                    "time": 169.36716200000012,
                    "velocity": 0.5590551181102362,
                    "duration": 0.5696205000000134
                },
                {
                    "name": "F5",
                    "midi": 77,
                    "time": 170.12665600000014,
                    "velocity": 0.4566929133858268,
                    "duration": 0.7579117208333344
                },
                {
                    "name": "F6",
                    "midi": 89,
                    "time": 170.12665600000014,
                    "velocity": 0.5433070866141733,
                    "duration": 0.7579117208333344
                },
                {
                    "name": "G5",
                    "midi": 79,
                    "time": 170.88615000000013,
                    "velocity": 0.44881889763779526,
                    "duration": 0.7579117208333344
                },
                {
                    "name": "G6",
                    "midi": 91,
                    "time": 170.88615000000013,
                    "velocity": 0.5669291338582677,
                    "duration": 0.7579117208333344
                },
                {
                    "name": "G#5",
                    "midi": 80,
                    "time": 171.64564400000012,
                    "velocity": 0.4566929133858268,
                    "duration": 0.7579117208333344
                },
                {
                    "name": "G#6",
                    "midi": 92,
                    "time": 171.64564400000012,
                    "velocity": 0.5433070866141733,
                    "duration": 0.7579117208333344
                },
                {
                    "name": "D#5",
                    "midi": 75,
                    "time": 172.4051380000001,
                    "velocity": 0.4015748031496063,
                    "duration": 0.5696205000000134
                },
                {
                    "name": "D#6",
                    "midi": 87,
                    "time": 172.4051380000001,
                    "velocity": 0.48031496062992124,
                    "duration": 0.5696205000000134
                },
                {
                    "name": "D#5",
                    "midi": 75,
                    "time": 173.16463200000013,
                    "velocity": 0.4409448818897638,
                    "duration": 0.7594939999999895
                },
                {
                    "name": "D#6",
                    "midi": 87,
                    "time": 173.16463200000013,
                    "velocity": 0.5196850393700787,
                    "duration": 0.7594939999999895
                },
                {
                    "name": "C#5",
                    "midi": 73,
                    "time": 173.92412600000011,
                    "velocity": 0.3543307086614173,
                    "duration": 0.37974700000000894
                },
                {
                    "name": "C#6",
                    "midi": 85,
                    "time": 173.92412600000011,
                    "velocity": 0.4251968503937008,
                    "duration": 0.37974700000000894
                },
                {
                    "name": "C#5",
                    "midi": 73,
                    "time": 174.68362000000013,
                    "velocity": 0.4094488188976378,
                    "duration": 0.7594939999999895
                },
                {
                    "name": "C#6",
                    "midi": 85,
                    "time": 174.68362000000013,
                    "velocity": 0.4881889763779528,
                    "duration": 0.7594939999999895
                },
                {
                    "name": "C5",
                    "midi": 72,
                    "time": 175.44311400000012,
                    "velocity": 0.36220472440944884,
                    "duration": 0.37974700000000894
                },
                {
                    "name": "C6",
                    "midi": 84,
                    "time": 175.44311400000012,
                    "velocity": 0.4330708661417323,
                    "duration": 0.37974700000000894
                },
                {
                    "name": "A#5",
                    "midi": 82,
                    "time": 176.20260800000014,
                    "velocity": 0.4409448818897638,
                    "duration": 0.7594939999999895
                },
                {
                    "name": "C#6",
                    "midi": 85,
                    "time": 176.96210200000013,
                    "velocity": 0.3937007874015748,
                    "duration": 0.7594939999999895
                },
                {
                    "name": "C6",
                    "midi": 84,
                    "time": 177.72159600000012,
                    "velocity": 0.44881889763779526,
                    "duration": 0.7594939999999895
                },
                {
                    "name": "A#5",
                    "midi": 82,
                    "time": 178.4810900000001,
                    "velocity": 0.3858267716535433,
                    "duration": 0.7594939999999895
                },
                {
                    "name": "G#5",
                    "midi": 80,
                    "time": 179.2405840000001,
                    "velocity": 0.41732283464566927,
                    "duration": 0.25316466666666315
                },
                {
                    "name": "D#4",
                    "midi": 63,
                    "time": 179.49374866666676,
                    "velocity": 0.3779527559055118,
                    "duration": 0.25316466666666315
                },
                {
                    "name": "G#4",
                    "midi": 68,
                    "time": 179.74691333333342,
                    "velocity": 0.3779527559055118,
                    "duration": 0.25316466666666315
                },
                {
                    "name": "C5",
                    "midi": 72,
                    "time": 180.0000780000001,
                    "velocity": 0.4645669291338583,
                    "duration": 0.25316466666666315
                },
                {
                    "name": "G#4",
                    "midi": 68,
                    "time": 180.25324266666675,
                    "velocity": 0.3779527559055118,
                    "duration": 0.25316466666666315
                },
                {
                    "name": "D#4",
                    "midi": 63,
                    "time": 180.5064073333334,
                    "velocity": 0.3858267716535433,
                    "duration": 0.25316466666666315
                },
                {
                    "name": "D#5",
                    "midi": 75,
                    "time": 180.75957200000008,
                    "velocity": 0.4645669291338583,
                    "duration": 0.25316466666666315
                },
                {
                    "name": "C5",
                    "midi": 72,
                    "time": 181.01273666666674,
                    "velocity": 0.41732283464566927,
                    "duration": 0.25316466666666315
                },
                {
                    "name": "G#4",
                    "midi": 68,
                    "time": 181.2659013333334,
                    "velocity": 0.4251968503937008,
                    "duration": 0.25316466666666315
                },
                {
                    "name": "G#4",
                    "midi": 68,
                    "time": 181.51906600000007,
                    "velocity": 0.4645669291338583,
                    "duration": 0.25316466666666315
                },
                {
                    "name": "C5",
                    "midi": 72,
                    "time": 181.77223066666673,
                    "velocity": 0.41732283464566927,
                    "duration": 0.25316466666666315
                },
                {
                    "name": "D#5",
                    "midi": 75,
                    "time": 182.0253953333334,
                    "velocity": 0.41732283464566927,
                    "duration": 0.25316466666666315
                },
                {
                    "name": "D#5",
                    "midi": 75,
                    "time": 182.27856000000006,
                    "velocity": 0.4645669291338583,
                    "duration": 0.25316466666666315
                },
                {
                    "name": "A#4",
                    "midi": 70,
                    "time": 182.53172466666672,
                    "velocity": 0.41732283464566927,
                    "duration": 0.25316466666666315
                },
                {
                    "name": "G4",
                    "midi": 67,
                    "time": 182.78488933333338,
                    "velocity": 0.41732283464566927,
                    "duration": 0.25316466666666315
                },
                {
                    "name": "D#5",
                    "midi": 75,
                    "time": 183.03805400000005,
                    "velocity": 0.4645669291338583,
                    "duration": 0.25316466666666315
                },
                {
                    "name": "A#4",
                    "midi": 70,
                    "time": 183.2912186666667,
                    "velocity": 0.4094488188976378,
                    "duration": 0.25316466666666315
                },
                {
                    "name": "G4",
                    "midi": 67,
                    "time": 183.54438333333337,
                    "velocity": 0.4094488188976378,
                    "duration": 0.25316466666666315
                },
                {
                    "name": "D#5",
                    "midi": 75,
                    "time": 183.79754800000003,
                    "velocity": 0.4645669291338583,
                    "duration": 0.25316466666666315
                },
                {
                    "name": "C5",
                    "midi": 72,
                    "time": 184.0507126666667,
                    "velocity": 0.4015748031496063,
                    "duration": 0.25316466666666315
                },
                {
                    "name": "G#4",
                    "midi": 68,
                    "time": 184.30387733333336,
                    "velocity": 0.4015748031496063,
                    "duration": 0.25316466666666315
                },
                {
                    "name": "A#4",
                    "midi": 70,
                    "time": 184.55704200000002,
                    "velocity": 0.4881889763779528,
                    "duration": 0.25316466666666315
                },
                {
                    "name": "D#5",
                    "midi": 75,
                    "time": 184.8102066666667,
                    "velocity": 0.4330708661417323,
                    "duration": 0.25316466666666315
                },
                {
                    "name": "G5",
                    "midi": 79,
                    "time": 185.06337133333335,
                    "velocity": 0.44881889763779526,
                    "duration": 0.25316466666666315
                },
                {
                    "name": "G#5",
                    "midi": 80,
                    "time": 185.316536,
                    "velocity": 0.5196850393700787,
                    "duration": 0.25316466666666315
                },
                {
                    "name": "D#5",
                    "midi": 75,
                    "time": 185.56970066666668,
                    "velocity": 0.4645669291338583,
                    "duration": 0.25316466666666315
                },
                {
                    "name": "G#4",
                    "midi": 68,
                    "time": 185.82286533333334,
                    "velocity": 0.4645669291338583,
                    "duration": 0.25316466666666315
                },
                {
                    "name": "G#5",
                    "midi": 80,
                    "time": 186.07603,
                    "velocity": 0.5275590551181102,
                    "duration": 0.25316466666666315
                },
                {
                    "name": "D5",
                    "midi": 74,
                    "time": 186.32919466666667,
                    "velocity": 0.4645669291338583,
                    "duration": 0.25316466666666315
                },
                {
                    "name": "G#4",
                    "midi": 68,
                    "time": 186.58235933333333,
                    "velocity": 0.4645669291338583,
                    "duration": 0.25316466666666315
                },
                {
                    "name": "G#5",
                    "midi": 80,
                    "time": 186.835524,
                    "velocity": 0.5118110236220472,
                    "duration": 0.25316466666666315
                },
                {
                    "name": "D#5",
                    "midi": 75,
                    "time": 187.08868866666666,
                    "velocity": 0.4251968503937008,
                    "duration": 0.25316466666666315
                },
                {
                    "name": "A#4",
                    "midi": 70,
                    "time": 187.34185333333332,
                    "velocity": 0.4251968503937008,
                    "duration": 0.23734187499999848
                },
                {
                    "name": "A#4",
                    "midi": 70,
                    "time": 187.59501799999998,
                    "velocity": 0.48031496062992124,
                    "duration": 0.25316466666666315
                },
                {
                    "name": "D#5",
                    "midi": 75,
                    "time": 187.84818266666664,
                    "velocity": 0.4094488188976378,
                    "duration": 0.25316466666666315
                },
                {
                    "name": "G5",
                    "midi": 79,
                    "time": 188.1013473333333,
                    "velocity": 0.4094488188976378,
                    "duration": 0.25316466666666315
                },
                {
                    "name": "F5",
                    "midi": 77,
                    "time": 188.35451199999997,
                    "velocity": 0.4645669291338583,
                    "duration": 0.25316466666666315
                },
                {
                    "name": "A#4",
                    "midi": 70,
                    "time": 188.60767666666663,
                    "velocity": 0.4015748031496063,
                    "duration": 0.25316466666666315
                },
                {
                    "name": "G4",
                    "midi": 67,
                    "time": 188.8608413333333,
                    "velocity": 0.4094488188976378,
                    "duration": 0.25316466666666315
                },
                {
                    "name": "F5",
                    "midi": 77,
                    "time": 189.11400599999996,
                    "velocity": 0.4645669291338583,
                    "duration": 0.25316466666666315
                },
                {
                    "name": "B4",
                    "midi": 71,
                    "time": 189.36717066666662,
                    "velocity": 0.41732283464566927,
                    "duration": 0.25316466666666315
                },
                {
                    "name": "G4",
                    "midi": 67,
                    "time": 189.6203353333333,
                    "velocity": 0.41732283464566927,
                    "duration": 0.25316466666666315
                },
                {
                    "name": "F5",
                    "midi": 77,
                    "time": 189.87349999999995,
                    "velocity": 0.44881889763779526,
                    "duration": 0.25316466666666315
                },
                {
                    "name": "C5",
                    "midi": 72,
                    "time": 190.1266646666666,
                    "velocity": 0.4015748031496063,
                    "duration": 0.25316466666666315
                },
                {
                    "name": "G#4",
                    "midi": 68,
                    "time": 190.37982933333328,
                    "velocity": 0.4015748031496063,
                    "duration": 0.23734187499999848
                },
                {
                    "name": "G#4",
                    "midi": 68,
                    "time": 190.63299399999994,
                    "velocity": 0.4645669291338583,
                    "duration": 0.25316466666666315
                },
                {
                    "name": "C5",
                    "midi": 72,
                    "time": 190.8861586666666,
                    "velocity": 0.4094488188976378,
                    "duration": 0.25316466666666315
                },
                {
                    "name": "D#5",
                    "midi": 75,
                    "time": 191.13932333333327,
                    "velocity": 0.4094488188976378,
                    "duration": 0.25316466666666315
                },
                {
                    "name": "C#4",
                    "midi": 61,
                    "time": 191.39248799999993,
                    "velocity": 0.4645669291338583,
                    "duration": 0.25316466666666315
                },
                {
                    "name": "G#4",
                    "midi": 68,
                    "time": 191.6456526666666,
                    "velocity": 0.4251968503937008,
                    "duration": 0.25316466666666315
                },
                {
                    "name": "C#5",
                    "midi": 73,
                    "time": 191.89881733333326,
                    "velocity": 0.4251968503937008,
                    "duration": 0.25316466666666315
                },
                {
                    "name": "F4",
                    "midi": 65,
                    "time": 192.15198199999992,
                    "velocity": 0.4645669291338583,
                    "duration": 0.25316466666666315
                },
                {
                    "name": "G#4",
                    "midi": 68,
                    "time": 192.40514666666658,
                    "velocity": 0.4330708661417323,
                    "duration": 0.25316466666666315
                },
                {
                    "name": "A#4",
                    "midi": 70,
                    "time": 192.65831133333324,
                    "velocity": 0.4409448818897638,
                    "duration": 0.25316466666666315
                },
                {
                    "name": "D#4",
                    "midi": 63,
                    "time": 192.9114759999999,
                    "velocity": 0.4645669291338583,
                    "duration": 0.25316466666666315
                },
                {
                    "name": "G#4",
                    "midi": 68,
                    "time": 193.16464066666657,
                    "velocity": 0.4251968503937008,
                    "duration": 0.25316466666666315
                },
                {
                    "name": "C5",
                    "midi": 72,
                    "time": 193.41780533333323,
                    "velocity": 0.4251968503937008,
                    "duration": 0.25316466666666315
                },
                {
                    "name": "D#4",
                    "midi": 63,
                    "time": 193.6709699999999,
                    "velocity": 0.4645669291338583,
                    "duration": 0.7594939999999895
                },
                {
                    "name": "G4",
                    "midi": 67,
                    "time": 193.6709699999999,
                    "velocity": 0.5511811023622047,
                    "duration": 0.7594939999999895
                },
                {
                    "name": "D#5",
                    "midi": 75,
                    "time": 193.92413466666656,
                    "velocity": 0.49606299212598426,
                    "duration": 0.25316466666666315
                },
                {
                    "name": "C#5",
                    "midi": 73,
                    "time": 194.17729933333322,
                    "velocity": 0.5275590551181102,
                    "duration": 0.25316466666666315
                },
                {
                    "name": "D#4",
                    "midi": 63,
                    "time": 194.4304639999999,
                    "velocity": 0.47244094488188976,
                    "duration": 0.25316466666666315
                },
                {
                    "name": "G#4",
                    "midi": 68,
                    "time": 194.4304639999999,
                    "velocity": 0.47244094488188976,
                    "duration": 0.25316466666666315
                },
                {
                    "name": "C5",
                    "midi": 72,
                    "time": 194.4304639999999,
                    "velocity": 0.5590551181102362,
                    "duration": 0.25316466666666315
                },
                {
                    "name": "D#4",
                    "midi": 63,
                    "time": 194.68362866666655,
                    "velocity": 0.4645669291338583,
                    "duration": 0.25316466666666315
                },
                {
                    "name": "G#4",
                    "midi": 68,
                    "time": 194.9367933333332,
                    "velocity": 0.4645669291338583,
                    "duration": 0.25316466666666315
                },
                {
                    "name": "C5",
                    "midi": 72,
                    "time": 195.18995799999988,
                    "velocity": 0.5275590551181102,
                    "duration": 0.25316466666666315
                },
                {
                    "name": "G#4",
                    "midi": 68,
                    "time": 195.44312266666654,
                    "velocity": 0.4409448818897638,
                    "duration": 0.25316466666666315
                },
                {
                    "name": "D#4",
                    "midi": 63,
                    "time": 195.6962873333332,
                    "velocity": 0.4409448818897638,
                    "duration": 0.25316466666666315
                },
                {
                    "name": "D#5",
                    "midi": 75,
                    "time": 195.94945199999987,
                    "velocity": 0.5196850393700787,
                    "duration": 0.25316466666666315
                },
                {
                    "name": "C5",
                    "midi": 72,
                    "time": 196.20261666666653,
                    "velocity": 0.44881889763779526,
                    "duration": 0.25316466666666315
                },
                {
                    "name": "G#4",
                    "midi": 68,
                    "time": 196.4557813333332,
                    "velocity": 0.44881889763779526,
                    "duration": 0.23734187499999848
                },
                {
                    "name": "G#4",
                    "midi": 68,
                    "time": 196.70894599999986,
                    "velocity": 0.5354330708661418,
                    "duration": 0.25316466666666315
                },
                {
                    "name": "C5",
                    "midi": 72,
                    "time": 196.96211066666652,
                    "velocity": 0.47244094488188976,
                    "duration": 0.25316466666666315
                },
                {
                    "name": "D#5",
                    "midi": 75,
                    "time": 197.21527533333318,
                    "velocity": 0.47244094488188976,
                    "duration": 0.25316466666666315
                },
                {
                    "name": "D#5",
                    "midi": 75,
                    "time": 197.46843999999984,
                    "velocity": 0.5433070866141733,
                    "duration": 0.25316466666666315
                },
                {
                    "name": "A#4",
                    "midi": 70,
                    "time": 197.7216046666665,
                    "velocity": 0.4645669291338583,
                    "duration": 0.25316466666666315
                },
                {
                    "name": "G4",
                    "midi": 67,
                    "time": 197.97476933333317,
                    "velocity": 0.4645669291338583,
                    "duration": 0.25316466666666315
                },
                {
                    "name": "D#5",
                    "midi": 75,
                    "time": 198.22793399999983,
                    "velocity": 0.5511811023622047,
                    "duration": 0.25316466666666315
                },
                {
                    "name": "A#4",
                    "midi": 70,
                    "time": 198.4810986666665,
                    "velocity": 0.44881889763779526,
                    "duration": 0.25316466666666315
                },
                {
                    "name": "G4",
                    "midi": 67,
                    "time": 198.73426333333316,
                    "velocity": 0.44881889763779526,
                    "duration": 0.25316466666666315
                },
                {
                    "name": "D#5",
                    "midi": 75,
                    "time": 198.98742799999982,
                    "velocity": 0.5590551181102362,
                    "duration": 0.25316466666666315
                },
                {
                    "name": "B4",
                    "midi": 71,
                    "time": 199.2405926666665,
                    "velocity": 0.48031496062992124,
                    "duration": 0.25316466666666315
                },
                {
                    "name": "G#4",
                    "midi": 68,
                    "time": 199.49375733333315,
                    "velocity": 0.4645669291338583,
                    "duration": 0.25316466666666315
                },
                {
                    "name": "A#4",
                    "midi": 70,
                    "time": 199.7469219999998,
                    "velocity": 0.5354330708661418,
                    "duration": 0.25316466666666315
                },
                {
                    "name": "D#5",
                    "midi": 75,
                    "time": 200.00008666666648,
                    "velocity": 0.4881889763779528,
                    "duration": 0.25316466666666315
                },
                {
                    "name": "G5",
                    "midi": 79,
                    "time": 200.25325133333314,
                    "velocity": 0.49606299212598426,
                    "duration": 0.25316466666666315
                },
                {
                    "name": "G#5",
                    "midi": 80,
                    "time": 200.5064159999998,
                    "velocity": 0.5354330708661418,
                    "duration": 0.25316466666666315
                },
                {
                    "name": "D#5",
                    "midi": 75,
                    "time": 200.75958066666647,
                    "velocity": 0.4566929133858268,
                    "duration": 0.25316466666666315
                },
                {
                    "name": "G#4",
                    "midi": 68,
                    "time": 201.01274533333313,
                    "velocity": 0.4566929133858268,
                    "duration": 0.25316466666666315
                },
                {
                    "name": "G#5",
                    "midi": 80,
                    "time": 201.2659099999998,
                    "velocity": 0.5275590551181102,
                    "duration": 0.25316466666666315
                },
                {
                    "name": "C#5",
                    "midi": 73,
                    "time": 201.51907466666646,
                    "velocity": 0.4645669291338583,
                    "duration": 0.25316466666666315
                },
                {
                    "name": "A#4",
                    "midi": 70,
                    "time": 201.77223933333312,
                    "velocity": 0.4645669291338583,
                    "duration": 0.25316466666666315
                },
                {
                    "name": "G#5",
                    "midi": 80,
                    "time": 202.02540399999978,
                    "velocity": 0.5275590551181102,
                    "duration": 0.25316466666666315
                },
                {
                    "name": "D#5",
                    "midi": 75,
                    "time": 202.27856866666644,
                    "velocity": 0.44881889763779526,
                    "duration": 0.25316466666666315
                },
                {
                    "name": "B4",
                    "midi": 71,
                    "time": 202.5317333333331,
                    "velocity": 0.44881889763779526,
                    "duration": 0.23734187499999848
                },
                {
                    "name": "B4",
                    "midi": 71,
                    "time": 202.78489799999977,
                    "velocity": 0.5118110236220472,
                    "duration": 0.25316466666666315
                },
                {
                    "name": "D#5",
                    "midi": 75,
                    "time": 203.03806266666643,
                    "velocity": 0.44881889763779526,
                    "duration": 0.25316466666666315
                },
                {
                    "name": "F#5",
                    "midi": 78,
                    "time": 203.2912273333331,
                    "velocity": 0.44881889763779526,
                    "duration": 0.25316466666666315
                },
                {
                    "name": "E5",
                    "midi": 76,
                    "time": 203.54439199999976,
                    "velocity": 0.5118110236220472,
                    "duration": 0.25316466666666315
                },
                {
                    "name": "B4",
                    "midi": 71,
                    "time": 203.79755666666642,
                    "velocity": 0.4330708661417323,
                    "duration": 0.25316466666666315
                },
                {
                    "name": "G4",
                    "midi": 67,
                    "time": 204.0507213333331,
                    "velocity": 0.4330708661417323,
                    "duration": 0.25316466666666315
                },
                {
                    "name": "E5",
                    "midi": 76,
                    "time": 204.30388599999975,
                    "velocity": 0.4881889763779528,
                    "duration": 0.25316466666666315
                },
                {
                    "name": "A#4",
                    "midi": 70,
                    "time": 204.5570506666664,
                    "velocity": 0.41732283464566927,
                    "duration": 0.25316466666666315
                },
                {
                    "name": "G4",
                    "midi": 67,
                    "time": 204.81021533333308,
                    "velocity": 0.41732283464566927,
                    "duration": 0.25316466666666315
                },
                {
                    "name": "E5",
                    "midi": 76,
                    "time": 205.06337999999974,
                    "velocity": 0.5039370078740157,
                    "duration": 0.25316466666666315
                },
                {
                    "name": "B4",
                    "midi": 71,
                    "time": 205.3165446666664,
                    "velocity": 0.4330708661417323,
                    "duration": 0.25316466666666315
                },
                {
                    "name": "G#4",
                    "midi": 68,
                    "time": 205.56970933333307,
                    "velocity": 0.4330708661417323,
                    "duration": 0.23734187499999848
                },
                {
                    "name": "G#4",
                    "midi": 68,
                    "time": 205.82287399999973,
                    "velocity": 0.5118110236220472,
                    "duration": 0.25316466666666315
                },
                {
                    "name": "B4",
                    "midi": 71,
                    "time": 206.0760386666664,
                    "velocity": 0.4409448818897638,
                    "duration": 0.25316466666666315
                },
                {
                    "name": "D#5",
                    "midi": 75,
                    "time": 206.32920333333306,
                    "velocity": 0.4409448818897638,
                    "duration": 0.25316466666666315
                },
                {
                    "name": "G#4",
                    "midi": 68,
                    "time": 206.58236799999972,
                    "velocity": 0.5196850393700787,
                    "duration": 0.25316466666666315
                },
                {
                    "name": "B4",
                    "midi": 71,
                    "time": 206.83553266666638,
                    "velocity": 0.4645669291338583,
                    "duration": 0.25316466666666315
                },
                {
                    "name": "C#5",
                    "midi": 73,
                    "time": 207.08869733333304,
                    "velocity": 0.44881889763779526,
                    "duration": 0.25316466666666315
                },
                {
                    "name": "G#4",
                    "midi": 68,
                    "time": 207.3418619999997,
                    "velocity": 0.5275590551181102,
                    "duration": 0.25316466666666315
                },
                {
                    "name": "B4",
                    "midi": 71,
                    "time": 207.59502666666637,
                    "velocity": 0.4409448818897638,
                    "duration": 0.25316466666666315
                },
                {
                    "name": "E5",
                    "midi": 76,
                    "time": 207.84819133333303,
                    "velocity": 0.4409448818897638,
                    "duration": 0.25316466666666315
                },
                {
                    "name": "F#4",
                    "midi": 66,
                    "time": 208.1013559999997,
                    "velocity": 0.5196850393700787,
                    "duration": 0.25316466666666315
                },
                {
                    "name": "B4",
                    "midi": 71,
                    "time": 208.35452066666636,
                    "velocity": 0.4409448818897638,
                    "duration": 0.25316466666666315
                },
                {
                    "name": "D#5",
                    "midi": 75,
                    "time": 208.60768533333302,
                    "velocity": 0.4409448818897638,
                    "duration": 0.25316466666666315
                },
                {
                    "name": "F#4",
                    "midi": 66,
                    "time": 208.8608499999997,
                    "velocity": 0.4409448818897638,
                    "duration": 0.7594939999999895
                },
                {
                    "name": "A#4",
                    "midi": 70,
                    "time": 208.8608499999997,
                    "velocity": 0.5275590551181102,
                    "duration": 0.7594939999999895
                },
                {
                    "name": "F#5",
                    "midi": 78,
                    "time": 209.11401466666635,
                    "velocity": 0.44881889763779526,
                    "duration": 0.25316466666666315
                },
                {
                    "name": "E5",
                    "midi": 76,
                    "time": 209.367179333333,
                    "velocity": 0.44881889763779526,
                    "duration": 0.25316466666666315
                },
                {
                    "name": "F#4",
                    "midi": 66,
                    "time": 209.62034399999968,
                    "velocity": 0.41732283464566927,
                    "duration": 0.25316466666666315
                },
                {
                    "name": "B4",
                    "midi": 71,
                    "time": 209.62034399999968,
                    "velocity": 0.41732283464566927,
                    "duration": 0.25316466666666315
                },
                {
                    "name": "D#5",
                    "midi": 75,
                    "time": 209.62034399999968,
                    "velocity": 0.41732283464566927,
                    "duration": 0.25316466666666315
                },
                {
                    "name": "D#4",
                    "midi": 63,
                    "time": 209.87350866666634,
                    "velocity": 0.3779527559055118,
                    "duration": 0.25316466666666315
                },
                {
                    "name": "F#4",
                    "midi": 66,
                    "time": 210.126673333333,
                    "velocity": 0.3779527559055118,
                    "duration": 0.25316466666666315
                },
                {
                    "name": "B4",
                    "midi": 71,
                    "time": 210.37983799999967,
                    "velocity": 0.4645669291338583,
                    "duration": 0.25316466666666315
                },
                {
                    "name": "F#4",
                    "midi": 66,
                    "time": 210.63300266666633,
                    "velocity": 0.3779527559055118,
                    "duration": 0.25316466666666315
                },
                {
                    "name": "D#4",
                    "midi": 63,
                    "time": 210.886167333333,
                    "velocity": 0.3858267716535433,
                    "duration": 0.25316466666666315
                },
                {
                    "name": "D#5",
                    "midi": 75,
                    "time": 211.13933199999965,
                    "velocity": 0.4645669291338583,
                    "duration": 0.25316466666666315
                },
                {
                    "name": "B4",
                    "midi": 71,
                    "time": 211.39249666666632,
                    "velocity": 0.41732283464566927,
                    "duration": 0.25316466666666315
                },
                {
                    "name": "F#4",
                    "midi": 66,
                    "time": 211.64566133333298,
                    "velocity": 0.4251968503937008,
                    "duration": 0.25316466666666315
                },
                {
                    "name": "B4",
                    "midi": 71,
                    "time": 211.89882599999964,
                    "velocity": 0.4645669291338583,
                    "duration": 0.25316466666666315
                },
                {
                    "name": "D#5",
                    "midi": 75,
                    "time": 212.1519906666663,
                    "velocity": 0.41732283464566927,
                    "duration": 0.25316466666666315
                },
                {
                    "name": "F#5",
                    "midi": 78,
                    "time": 212.40515533333297,
                    "velocity": 0.41732283464566927,
                    "duration": 0.25316466666666315
                },
                {
                    "name": "F#4",
                    "midi": 66,
                    "time": 212.65831999999963,
                    "velocity": 0.36220472440944884,
                    "duration": 0.5696205000000134
                },
                {
                    "name": "F#5",
                    "midi": 78,
                    "time": 212.65831999999963,
                    "velocity": 0.4881889763779528,
                    "duration": 0.5696205000000134
                },
                {
                    "name": "F#4",
                    "midi": 66,
                    "time": 213.41781399999965,
                    "velocity": 0.3779527559055118,
                    "duration": 0.7579117208333344
                },
                {
                    "name": "F#5",
                    "midi": 78,
                    "time": 213.41781399999965,
                    "velocity": 0.4645669291338583,
                    "duration": 0.7579117208333344
                },
                {
                    "name": "G4",
                    "midi": 67,
                    "time": 214.17730799999964,
                    "velocity": 0.44881889763779526,
                    "duration": 0.7579117208333344
                },
                {
                    "name": "G5",
                    "midi": 79,
                    "time": 214.17730799999964,
                    "velocity": 0.5275590551181102,
                    "duration": 0.7579117208333344
                },
                {
                    "name": "G#4",
                    "midi": 68,
                    "time": 214.93680199999963,
                    "velocity": 0.47244094488188976,
                    "duration": 0.7579117208333344
                },
                {
                    "name": "G#5",
                    "midi": 80,
                    "time": 214.93680199999963,
                    "velocity": 0.5669291338582677,
                    "duration": 0.7579117208333344
                },
                {
                    "name": "A#4",
                    "midi": 70,
                    "time": 215.69629599999962,
                    "velocity": 0.5039370078740157,
                    "duration": 0.7579117208333344
                },
                {
                    "name": "A#5",
                    "midi": 82,
                    "time": 215.69629599999962,
                    "velocity": 0.6220472440944882,
                    "duration": 0.7579117208333344
                },
                {
                    "name": "C#5",
                    "midi": 73,
                    "time": 216.4557899999996,
                    "velocity": 0.5039370078740157,
                    "duration": 0.7579117208333344
                },
                {
                    "name": "C#6",
                    "midi": 85,
                    "time": 216.4557899999996,
                    "velocity": 0.6062992125984252,
                    "duration": 0.7579117208333344
                },
                {
                    "name": "B4",
                    "midi": 71,
                    "time": 217.2152839999996,
                    "velocity": 0.4881889763779528,
                    "duration": 0.7579117208333344
                },
                {
                    "name": "B5",
                    "midi": 83,
                    "time": 217.2152839999996,
                    "velocity": 0.5826771653543307,
                    "duration": 0.7579117208333344
                },
                {
                    "name": "A#4",
                    "midi": 70,
                    "time": 217.9747779999996,
                    "velocity": 0.3858267716535433,
                    "duration": 0.5696205000000134
                },
                {
                    "name": "A#5",
                    "midi": 82,
                    "time": 217.9747779999996,
                    "velocity": 0.4566929133858268,
                    "duration": 0.5696205000000134
                },
                {
                    "name": "G#4",
                    "midi": 68,
                    "time": 218.5443984999996,
                    "velocity": 0.33070866141732286,
                    "duration": 0.18987350000000447
                },
                {
                    "name": "G#5",
                    "midi": 80,
                    "time": 218.5443984999996,
                    "velocity": 0.4015748031496063,
                    "duration": 0.18987350000000447
                },
                {
                    "name": "G4",
                    "midi": 67,
                    "time": 218.7342719999996,
                    "velocity": 0.3858267716535433,
                    "duration": 0.7594939999999895
                },
                {
                    "name": "G5",
                    "midi": 79,
                    "time": 218.7342719999996,
                    "velocity": 0.4566929133858268,
                    "duration": 0.7594939999999895
                },
                {
                    "name": "G4",
                    "midi": 67,
                    "time": 219.4937659999996,
                    "velocity": 0.36220472440944884,
                    "duration": 0.7594939999999895
                },
                {
                    "name": "G5",
                    "midi": 79,
                    "time": 219.4937659999996,
                    "velocity": 0.4330708661417323,
                    "duration": 0.7594939999999895
                },
                {
                    "name": "G#4",
                    "midi": 68,
                    "time": 220.25325999999959,
                    "velocity": 0.3543307086614173,
                    "duration": 0.37974700000000894
                },
                {
                    "name": "G#5",
                    "midi": 80,
                    "time": 220.25325999999959,
                    "velocity": 0.41732283464566927,
                    "duration": 0.37974700000000894
                },
                {
                    "name": "G4",
                    "midi": 67,
                    "time": 220.6330069999996,
                    "velocity": 0.29133858267716534,
                    "duration": 0.37974700000000894
                },
                {
                    "name": "G5",
                    "midi": 79,
                    "time": 220.6330069999996,
                    "velocity": 0.3543307086614173,
                    "duration": 0.37974700000000894
                },
                {
                    "name": "F4",
                    "midi": 65,
                    "time": 221.0127539999996,
                    "velocity": 0.2992125984251969,
                    "duration": 0.37974700000000894
                },
                {
                    "name": "F5",
                    "midi": 77,
                    "time": 221.0127539999996,
                    "velocity": 0.36220472440944884,
                    "duration": 0.37974700000000894
                },
                {
                    "name": "G4",
                    "midi": 67,
                    "time": 221.3925009999996,
                    "velocity": 0.29133858267716534,
                    "duration": 0.37974700000000894
                },
                {
                    "name": "G5",
                    "midi": 79,
                    "time": 221.3925009999996,
                    "velocity": 0.3543307086614173,
                    "duration": 0.37974700000000894
                },
                {
                    "name": "G#4",
                    "midi": 68,
                    "time": 221.77224799999962,
                    "velocity": 0.31496062992125984,
                    "duration": 1.5189880000000073
                },
                {
                    "name": "G#5",
                    "midi": 80,
                    "time": 221.77224799999962,
                    "velocity": 0.3779527559055118,
                    "duration": 1.5189880000000073
                },
                {
                    "name": "C#5",
                    "midi": 73,
                    "time": 223.29123599999963,
                    "velocity": 0.41732283464566927,
                    "duration": 0.3987343500000122
                },
                {
                    "name": "C5",
                    "midi": 72,
                    "time": 223.67098299999964,
                    "velocity": 0.41732283464566927,
                    "duration": 0.3987343500000122
                },
                {
                    "name": "B4",
                    "midi": 71,
                    "time": 224.05072999999965,
                    "velocity": 0.41732283464566927,
                    "duration": 0.3987343500000122
                },
                {
                    "name": "C5",
                    "midi": 72,
                    "time": 224.43047699999966,
                    "velocity": 0.41732283464566927,
                    "duration": 0.37974700000000894
                },
                {
                    "name": "C5",
                    "midi": 72,
                    "time": 224.81022399999966,
                    "velocity": 0.3779527559055118,
                    "duration": 0.18987350000000447
                },
                {
                    "name": "F5",
                    "midi": 77,
                    "time": 225.00009749999967,
                    "velocity": 0.3779527559055118,
                    "duration": 1.3291145000000029
                },
                {
                    "name": "C5",
                    "midi": 72,
                    "time": 226.32921199999967,
                    "velocity": 0.41732283464566927,
                    "duration": 0.3987343500000122
                },
                {
                    "name": "A#4",
                    "midi": 70,
                    "time": 226.70895899999968,
                    "velocity": 0.41732283464566927,
                    "duration": 0.3987343500000122
                },
                {
                    "name": "A4",
                    "midi": 69,
                    "time": 227.0887059999997,
                    "velocity": 0.41732283464566927,
                    "duration": 0.3987343500000122
                },
                {
                    "name": "A#4",
                    "midi": 70,
                    "time": 227.4684529999997,
                    "velocity": 0.41732283464566927,
                    "duration": 0.37974700000000894
                },
                {
                    "name": "A#4",
                    "midi": 70,
                    "time": 227.8481999999997,
                    "velocity": 0.3779527559055118,
                    "duration": 0.18987350000000447
                },
                {
                    "name": "D#5",
                    "midi": 75,
                    "time": 228.0380734999997,
                    "velocity": 0.3779527559055118,
                    "duration": 1.3291145000000029
                },
                {
                    "name": "C#5",
                    "midi": 73,
                    "time": 229.36718799999971,
                    "velocity": 0.4566929133858268,
                    "duration": 0.3987343500000122
                },
                {
                    "name": "C5",
                    "midi": 72,
                    "time": 229.74693499999972,
                    "velocity": 0.47244094488188976,
                    "duration": 0.3987343500000122
                },
                {
                    "name": "A#4",
                    "midi": 70,
                    "time": 230.12668199999973,
                    "velocity": 0.49606299212598426,
                    "duration": 0.3987343500000122
                },
                {
                    "name": "G#4",
                    "midi": 68,
                    "time": 230.50642899999974,
                    "velocity": 0.5196850393700787,
                    "duration": 0.37974700000000894
                },
                {
                    "name": "G4",
                    "midi": 67,
                    "time": 230.88617599999975,
                    "velocity": 0.44881889763779526,
                    "duration": 0.37974700000000894
                },
                {
                    "name": "D#5",
                    "midi": 75,
                    "time": 230.88617599999975,
                    "velocity": 0.5354330708661418,
                    "duration": 0.37974700000000894
                },
                {
                    "name": "F4",
                    "midi": 65,
                    "time": 231.26592299999976,
                    "velocity": 0.4409448818897638,
                    "duration": 0.37974700000000894
                },
                {
                    "name": "C#5",
                    "midi": 73,
                    "time": 231.26592299999976,
                    "velocity": 0.5196850393700787,
                    "duration": 0.37974700000000894
                },
                {
                    "name": "D#4",
                    "midi": 63,
                    "time": 231.64566999999977,
                    "velocity": 0.41732283464566927,
                    "duration": 0.37974700000000894
                },
                {
                    "name": "C5",
                    "midi": 72,
                    "time": 231.64566999999977,
                    "velocity": 0.49606299212598426,
                    "duration": 0.37974700000000894
                },
                {
                    "name": "C#4",
                    "midi": 61,
                    "time": 232.02541699999978,
                    "velocity": 0.4015748031496063,
                    "duration": 0.37974700000000894
                },
                {
                    "name": "A#4",
                    "midi": 70,
                    "time": 232.02541699999978,
                    "velocity": 0.47244094488188976,
                    "duration": 0.37974700000000894
                },
                {
                    "name": "C4",
                    "midi": 60,
                    "time": 232.4051639999998,
                    "velocity": 0.3858267716535433,
                    "duration": 0.7594939999999895
                },
                {
                    "name": "G#4",
                    "midi": 68,
                    "time": 232.4051639999998,
                    "velocity": 0.4566929133858268,
                    "duration": 0.7594939999999895
                },
                {
                    "name": "D#4",
                    "midi": 63,
                    "time": 233.16465799999978,
                    "velocity": 0.4330708661417323,
                    "duration": 0.5696205000000134
                },
                {
                    "name": "C5",
                    "midi": 72,
                    "time": 233.16465799999978,
                    "velocity": 0.4330708661417323,
                    "duration": 0.5696205000000134
                },
                {
                    "name": "C#4",
                    "midi": 61,
                    "time": 233.7342784999998,
                    "velocity": 0.4251968503937008,
                    "duration": 0.18987350000000447
                },
                {
                    "name": "A#4",
                    "midi": 70,
                    "time": 233.7342784999998,
                    "velocity": 0.4251968503937008,
                    "duration": 0.18987350000000447
                },
                {
                    "name": "C4",
                    "midi": 60,
                    "time": 233.9241519999998,
                    "velocity": 0.31496062992125984,
                    "duration": 0.7594939999999895
                },
                {
                    "name": "G#4",
                    "midi": 68,
                    "time": 233.9241519999998,
                    "velocity": 0.3779527559055118,
                    "duration": 0.7594939999999895
                },
                {
                    "name": "C#5",
                    "midi": 73,
                    "time": 235.44313999999977,
                    "velocity": 0.41732283464566927,
                    "duration": 0.3987343500000122
                },
                {
                    "name": "C5",
                    "midi": 72,
                    "time": 235.82288699999978,
                    "velocity": 0.41732283464566927,
                    "duration": 0.3987343500000122
                },
                {
                    "name": "B4",
                    "midi": 71,
                    "time": 236.2026339999998,
                    "velocity": 0.41732283464566927,
                    "duration": 0.3987343500000122
                },
                {
                    "name": "C5",
                    "midi": 72,
                    "time": 236.5823809999998,
                    "velocity": 0.41732283464566927,
                    "duration": 0.37974700000000894
                },
                {
                    "name": "C6",
                    "midi": 84,
                    "time": 236.9621279999998,
                    "velocity": 0.41732283464566927,
                    "duration": 0.3987343500000122
                },
                {
                    "name": "F5",
                    "midi": 77,
                    "time": 236.9621279999998,
                    "velocity": 0.3779527559055118,
                    "duration": 1.5189880000000358
                },
                {
                    "name": "A#5",
                    "midi": 82,
                    "time": 237.34187499999982,
                    "velocity": 0.41732283464566927,
                    "duration": 0.3987343500000122
                },
                {
                    "name": "A5",
                    "midi": 81,
                    "time": 237.72162199999983,
                    "velocity": 0.41732283464566927,
                    "duration": 0.3987343500000122
                },
                {
                    "name": "A#5",
                    "midi": 82,
                    "time": 238.10136899999983,
                    "velocity": 0.41732283464566927,
                    "duration": 0.37974700000000894
                },
                {
                    "name": "C5",
                    "midi": 72,
                    "time": 238.48111599999984,
                    "velocity": 0.41732283464566927,
                    "duration": 0.3987343500000122
                },
                {
                    "name": "A#4",
                    "midi": 70,
                    "time": 238.86086299999985,
                    "velocity": 0.41732283464566927,
                    "duration": 0.3987343500000122
                },
                {
                    "name": "A4",
                    "midi": 69,
                    "time": 239.24060999999986,
                    "velocity": 0.41732283464566927,
                    "duration": 0.3987343500000122
                },
                {
                    "name": "A#4",
                    "midi": 70,
                    "time": 239.62035699999987,
                    "velocity": 0.41732283464566927,
                    "duration": 0.37974700000000894
                },
                {
                    "name": "A#5",
                    "midi": 82,
                    "time": 240.00010399999988,
                    "velocity": 0.4566929133858268,
                    "duration": 0.37974700000000894
                },
                {
                    "name": "D#5",
                    "midi": 75,
                    "time": 240.00010399999988,
                    "velocity": 0.3779527559055118,
                    "duration": 1.5189880000000358
                },
                {
                    "name": "G#5",
                    "midi": 80,
                    "time": 240.3798509999999,
                    "velocity": 0.47244094488188976,
                    "duration": 0.37974700000000894
                },
                {
                    "name": "G5",
                    "midi": 79,
                    "time": 240.7595979999999,
                    "velocity": 0.49606299212598426,
                    "duration": 0.37974700000000894
                },
                {
                    "name": "G#5",
                    "midi": 80,
                    "time": 241.1393449999999,
                    "velocity": 0.5196850393700787,
                    "duration": 0.37974700000000894
                },
                {
                    "name": "C#5",
                    "midi": 73,
                    "time": 241.51909199999992,
                    "velocity": 0.4566929133858268,
                    "duration": 0.3987343500000122
                },
                {
                    "name": "C5",
                    "midi": 72,
                    "time": 241.89883899999992,
                    "velocity": 0.47244094488188976,
                    "duration": 0.3987343500000122
                },
                {
                    "name": "A#4",
                    "midi": 70,
                    "time": 242.27858599999993,
                    "velocity": 0.49606299212598426,
                    "duration": 0.3987343500000122
                },
                {
                    "name": "G#4",
                    "midi": 68,
                    "time": 242.65833299999994,
                    "velocity": 0.5196850393700787,
                    "duration": 0.37974700000000894
                },
                {
                    "name": "D#5",
                    "midi": 75,
                    "time": 243.03807999999995,
                    "velocity": 0.44881889763779526,
                    "duration": 0.37974700000000894
                },
                {
                    "name": "G4",
                    "midi": 67,
                    "time": 243.03807999999995,
                    "velocity": 0.44881889763779526,
                    "duration": 0.37974700000000894
                },
                {
                    "name": "G5",
                    "midi": 79,
                    "time": 243.03807999999995,
                    "velocity": 0.5354330708661418,
                    "duration": 0.37974700000000894
                },
                {
                    "name": "C#5",
                    "midi": 73,
                    "time": 243.41782699999996,
                    "velocity": 0.4409448818897638,
                    "duration": 0.37974700000000894
                },
                {
                    "name": "F4",
                    "midi": 65,
                    "time": 243.41782699999996,
                    "velocity": 0.4409448818897638,
                    "duration": 0.37974700000000894
                },
                {
                    "name": "F5",
                    "midi": 77,
                    "time": 243.41782699999996,
                    "velocity": 0.5196850393700787,
                    "duration": 0.37974700000000894
                },
                {
                    "name": "C5",
                    "midi": 72,
                    "time": 243.79757399999997,
                    "velocity": 0.41732283464566927,
                    "duration": 0.37974700000000894
                },
                {
                    "name": "D#4",
                    "midi": 63,
                    "time": 243.79757399999997,
                    "velocity": 0.41732283464566927,
                    "duration": 0.37974700000000894
                },
                {
                    "name": "D#5",
                    "midi": 75,
                    "time": 243.79757399999997,
                    "velocity": 0.49606299212598426,
                    "duration": 0.37974700000000894
                },
                {
                    "name": "A#4",
                    "midi": 70,
                    "time": 244.17732099999998,
                    "velocity": 0.4015748031496063,
                    "duration": 0.37974700000000894
                },
                {
                    "name": "C#4",
                    "midi": 61,
                    "time": 244.17732099999998,
                    "velocity": 0.4015748031496063,
                    "duration": 0.37974700000000894
                },
                {
                    "name": "C#5",
                    "midi": 73,
                    "time": 244.17732099999998,
                    "velocity": 0.47244094488188976,
                    "duration": 0.37974700000000894
                },
                {
                    "name": "C5",
                    "midi": 72,
                    "time": 244.557068,
                    "velocity": 0.4566929133858268,
                    "duration": 0.7594939999999895
                },
                {
                    "name": "C4",
                    "midi": 60,
                    "time": 244.557068,
                    "velocity": 0.3858267716535433,
                    "duration": 0.7594939999999895
                },
                {
                    "name": "G#4",
                    "midi": 68,
                    "time": 244.557068,
                    "velocity": 0.3858267716535433,
                    "duration": 0.7594939999999895
                },
                {
                    "name": "C#4",
                    "midi": 61,
                    "time": 245.31656199999998,
                    "velocity": 0.36220472440944884,
                    "duration": 0.7594940000000179
                },
                {
                    "name": "G4",
                    "midi": 67,
                    "time": 245.31656199999998,
                    "velocity": 0.36220472440944884,
                    "duration": 0.7594940000000179
                },
                {
                    "name": "C#5",
                    "midi": 73,
                    "time": 245.31656199999998,
                    "velocity": 0.4330708661417323,
                    "duration": 0.5696205000000134
                },
                {
                    "name": "A#4",
                    "midi": 70,
                    "time": 245.8861825,
                    "velocity": 0.4251968503937008,
                    "duration": 0.18987350000000447
                },
                {
                    "name": "G#3",
                    "midi": 56,
                    "time": 246.076056,
                    "velocity": 0.31496062992125984,
                    "duration": 2.278481999999997
                },
                {
                    "name": "D#4",
                    "midi": 63,
                    "time": 246.076056,
                    "velocity": 0.31496062992125984,
                    "duration": 2.278481999999997
                },
                {
                    "name": "C4",
                    "midi": 60,
                    "time": 246.076056,
                    "velocity": 0.31496062992125984,
                    "duration": 2.278481999999997
                },
                {
                    "name": "G#4",
                    "midi": 68,
                    "time": 246.076056,
                    "velocity": 0.3779527559055118,
                    "duration": 2.278481999999997
                },
                {
                    "name": "C4",
                    "midi": 60,
                    "time": 248.354538,
                    "velocity": 0.31496062992125984,
                    "duration": 0.5696205000000134
                },
                {
                    "name": "D#4",
                    "midi": 63,
                    "time": 248.9241585,
                    "velocity": 0.29133858267716534,
                    "duration": 0.18987350000000447
                },
                {
                    "name": "G#3",
                    "midi": 56,
                    "time": 249.114032,
                    "velocity": 0.29133858267716534,
                    "duration": 0.5696205000000134
                },
                {
                    "name": "G#4",
                    "midi": 68,
                    "time": 249.114032,
                    "velocity": 0.3464566929133858,
                    "duration": 0.5696205000000134
                },
                {
                    "name": "G#3",
                    "midi": 56,
                    "time": 249.87352600000003,
                    "velocity": 0.2677165354330709,
                    "duration": 0.5696205000000134
                },
                {
                    "name": "G#4",
                    "midi": 68,
                    "time": 249.87352600000003,
                    "velocity": 0.31496062992125984,
                    "duration": 0.5696205000000134
                },
                {
                    "name": "G#3",
                    "midi": 56,
                    "time": 250.63302000000004,
                    "velocity": 0.2677165354330709,
                    "duration": 0.5696205000000134
                },
                {
                    "name": "G#4",
                    "midi": 68,
                    "time": 250.63302000000004,
                    "velocity": 0.31496062992125984,
                    "duration": 0.5696205000000134
                },
                {
                    "name": "G#3",
                    "midi": 56,
                    "time": 251.39251400000006,
                    "velocity": 0.2677165354330709,
                    "duration": 0.5696205000000134
                },
                {
                    "name": "G#4",
                    "midi": 68,
                    "time": 251.39251400000006,
                    "velocity": 0.31496062992125984,
                    "duration": 0.5696205000000134
                },
                {
                    "name": "G3",
                    "midi": 55,
                    "time": 252.15200800000008,
                    "velocity": 0.31496062992125984,
                    "duration": 2.278481999999997
                },
                {
                    "name": "G4",
                    "midi": 67,
                    "time": 252.15200800000008,
                    "velocity": 0.3779527559055118,
                    "duration": 2.278481999999997
                },
                {
                    "name": "C4",
                    "midi": 60,
                    "time": 254.43049000000008,
                    "velocity": 0.31496062992125984,
                    "duration": 0.5696205000000134
                },
                {
                    "name": "D#4",
                    "midi": 63,
                    "time": 255.0001105000001,
                    "velocity": 0.29133858267716534,
                    "duration": 0.18987350000000447
                },
                {
                    "name": "G3",
                    "midi": 55,
                    "time": 255.1899840000001,
                    "velocity": 0.29133858267716534,
                    "duration": 0.5696205000000134
                },
                {
                    "name": "G4",
                    "midi": 67,
                    "time": 255.1899840000001,
                    "velocity": 0.3464566929133858,
                    "duration": 0.5696205000000134
                },
                {
                    "name": "G4",
                    "midi": 67,
                    "time": 255.9494780000001,
                    "velocity": 0.33858267716535434,
                    "duration": 0.569620499999985
                },
                {
                    "name": "G3",
                    "midi": 55,
                    "time": 255.9494780000001,
                    "velocity": 0.29133858267716534,
                    "duration": 0.569620499999985
                },
                {
                    "name": "G3",
                    "midi": 55,
                    "time": 256.7089720000001,
                    "velocity": 0.33070866141732286,
                    "duration": 0.569620499999985
                },
                {
                    "name": "G4",
                    "midi": 67,
                    "time": 256.7089720000001,
                    "velocity": 0.3937007874015748,
                    "duration": 0.569620499999985
                },
                {
                    "name": "G3",
                    "midi": 55,
                    "time": 257.46846600000003,
                    "velocity": 0.3700787401574803,
                    "duration": 0.569620499999985
                },
                {
                    "name": "G4",
                    "midi": 67,
                    "time": 257.46846600000003,
                    "velocity": 0.4409448818897638,
                    "duration": 0.569620499999985
                },
                {
                    "name": "F3",
                    "midi": 53,
                    "time": 258.22796,
                    "velocity": 0.47244094488188976,
                    "duration": 1.518987999999979
                },
                {
                    "name": "F4",
                    "midi": 65,
                    "time": 258.22796,
                    "velocity": 0.5748031496062992,
                    "duration": 1.518987999999979
                },
                {
                    "name": "F#3",
                    "midi": 54,
                    "time": 259.746948,
                    "velocity": 0.47244094488188976,
                    "duration": 1.518987999999979
                },
                {
                    "name": "F#4",
                    "midi": 66,
                    "time": 259.746948,
                    "velocity": 0.5748031496062992,
                    "duration": 1.518987999999979
                },
                {
                    "name": "G4",
                    "midi": 67,
                    "time": 261.26593599999995,
                    "velocity": 0.30708661417322836,
                    "duration": 0.18987349999997605
                },
                {
                    "name": "G3",
                    "midi": 55,
                    "time": 261.26593599999995,
                    "velocity": 0.30708661417322836,
                    "duration": 0.18987349999997605
                },
                {
                    "name": "G3",
                    "midi": 55,
                    "time": 261.5191006666666,
                    "velocity": 0.1732283464566929,
                    "duration": 0.18987349999997605
                },
                {
                    "name": "G4",
                    "midi": 67,
                    "time": 261.5191006666666,
                    "velocity": 0.2125984251968504,
                    "duration": 0.18987349999997605
                },
                {
                    "name": "G3",
                    "midi": 55,
                    "time": 261.7722653333332,
                    "velocity": 0.1732283464566929,
                    "duration": 0.18987349999997605
                },
                {
                    "name": "G4",
                    "midi": 67,
                    "time": 261.7722653333332,
                    "velocity": 0.2125984251968504,
                    "duration": 0.18987349999997605
                },
                {
                    "name": "G3",
                    "midi": 55,
                    "time": 262.02542999999986,
                    "velocity": 0.1968503937007874,
                    "duration": 0.18987349999997605
                },
                {
                    "name": "G4",
                    "midi": 67,
                    "time": 262.02542999999986,
                    "velocity": 0.23622047244094488,
                    "duration": 0.18987349999997605
                },
                {
                    "name": "G3",
                    "midi": 55,
                    "time": 262.2785946666665,
                    "velocity": 0.1968503937007874,
                    "duration": 0.18987349999997605
                },
                {
                    "name": "G4",
                    "midi": 67,
                    "time": 262.2785946666665,
                    "velocity": 0.23622047244094488,
                    "duration": 0.18987349999997605
                },
                {
                    "name": "G3",
                    "midi": 55,
                    "time": 262.5317593333331,
                    "velocity": 0.1968503937007874,
                    "duration": 0.18987349999997605
                },
                {
                    "name": "G4",
                    "midi": 67,
                    "time": 262.5317593333331,
                    "velocity": 0.23622047244094488,
                    "duration": 0.18987349999997605
                },
                {
                    "name": "G3",
                    "midi": 55,
                    "time": 262.78492399999976,
                    "velocity": 0.25196850393700787,
                    "duration": 0.18987349999997605
                },
                {
                    "name": "G4",
                    "midi": 67,
                    "time": 262.78492399999976,
                    "velocity": 0.2992125984251969,
                    "duration": 0.18987349999997605
                },
                {
                    "name": "G3",
                    "midi": 55,
                    "time": 263.0380886666664,
                    "velocity": 0.1889763779527559,
                    "duration": 0.18987349999997605
                },
                {
                    "name": "G4",
                    "midi": 67,
                    "time": 263.0380886666664,
                    "velocity": 0.2204724409448819,
                    "duration": 0.18987349999997605
                },
                {
                    "name": "G3",
                    "midi": 55,
                    "time": 263.29125333333303,
                    "velocity": 0.1968503937007874,
                    "duration": 0.18987349999997605
                },
                {
                    "name": "G4",
                    "midi": 67,
                    "time": 263.29125333333303,
                    "velocity": 0.23622047244094488,
                    "duration": 0.18987349999997605
                },
                {
                    "name": "G3",
                    "midi": 55,
                    "time": 263.54441799999967,
                    "velocity": 0.25984251968503935,
                    "duration": 0.18987349999997605
                },
                {
                    "name": "G4",
                    "midi": 67,
                    "time": 263.54441799999967,
                    "velocity": 0.30708661417322836,
                    "duration": 0.18987349999997605
                },
                {
                    "name": "G3",
                    "midi": 55,
                    "time": 263.7975826666663,
                    "velocity": 0.1968503937007874,
                    "duration": 0.18987349999997605
                },
                {
                    "name": "G4",
                    "midi": 67,
                    "time": 263.7975826666663,
                    "velocity": 0.23622047244094488,
                    "duration": 0.18987349999997605
                },
                {
                    "name": "G3",
                    "midi": 55,
                    "time": 264.05074733333294,
                    "velocity": 0.1968503937007874,
                    "duration": 0.18987349999997605
                },
                {
                    "name": "G4",
                    "midi": 67,
                    "time": 264.05074733333294,
                    "velocity": 0.23622047244094488,
                    "duration": 0.18987349999997605
                },
                {
                    "name": "G4",
                    "midi": 67,
                    "time": 264.30391199999957,
                    "velocity": 0.30708661417322836,
                    "duration": 0.18987349999997605
                },
                {
                    "name": "G3",
                    "midi": 55,
                    "time": 264.30391199999957,
                    "velocity": 0.30708661417322836,
                    "duration": 0.18987349999997605
                },
                {
                    "name": "G3",
                    "midi": 55,
                    "time": 264.5570766666662,
                    "velocity": 0.1732283464566929,
                    "duration": 0.18987349999997605
                },
                {
                    "name": "G4",
                    "midi": 67,
                    "time": 264.5570766666662,
                    "velocity": 0.2125984251968504,
                    "duration": 0.18987349999997605
                },
                {
                    "name": "G3",
                    "midi": 55,
                    "time": 264.81024133333284,
                    "velocity": 0.1732283464566929,
                    "duration": 0.18987349999997605
                },
                {
                    "name": "G4",
                    "midi": 67,
                    "time": 264.81024133333284,
                    "velocity": 0.2125984251968504,
                    "duration": 0.18987349999997605
                },
                {
                    "name": "G3",
                    "midi": 55,
                    "time": 265.0634059999995,
                    "velocity": 0.1968503937007874,
                    "duration": 0.18987349999997605
                },
                {
                    "name": "G4",
                    "midi": 67,
                    "time": 265.0634059999995,
                    "velocity": 0.23622047244094488,
                    "duration": 0.18987349999997605
                },
                {
                    "name": "G3",
                    "midi": 55,
                    "time": 265.3165706666661,
                    "velocity": 0.1968503937007874,
                    "duration": 0.18987349999997605
                },
                {
                    "name": "G4",
                    "midi": 67,
                    "time": 265.3165706666661,
                    "velocity": 0.23622047244094488,
                    "duration": 0.18987349999997605
                },
                {
                    "name": "G3",
                    "midi": 55,
                    "time": 265.56973533333274,
                    "velocity": 0.1968503937007874,
                    "duration": 0.18987349999997605
                },
                {
                    "name": "G4",
                    "midi": 67,
                    "time": 265.56973533333274,
                    "velocity": 0.23622047244094488,
                    "duration": 0.18987349999997605
                },
                {
                    "name": "G3",
                    "midi": 55,
                    "time": 265.8228999999994,
                    "velocity": 0.25196850393700787,
                    "duration": 0.18987349999997605
                },
                {
                    "name": "G4",
                    "midi": 67,
                    "time": 265.8228999999994,
                    "velocity": 0.2992125984251969,
                    "duration": 0.18987349999997605
                },
                {
                    "name": "G3",
                    "midi": 55,
                    "time": 266.076064666666,
                    "velocity": 0.1889763779527559,
                    "duration": 0.18987349999997605
                },
                {
                    "name": "G4",
                    "midi": 67,
                    "time": 266.076064666666,
                    "velocity": 0.2204724409448819,
                    "duration": 0.18987349999997605
                },
                {
                    "name": "G3",
                    "midi": 55,
                    "time": 266.32922933333265,
                    "velocity": 0.1968503937007874,
                    "duration": 0.18987349999997605
                },
                {
                    "name": "G4",
                    "midi": 67,
                    "time": 266.32922933333265,
                    "velocity": 0.23622047244094488,
                    "duration": 0.18987349999997605
                },
                {
                    "name": "G3",
                    "midi": 55,
                    "time": 266.5823939999993,
                    "velocity": 0.25984251968503935,
                    "duration": 0.18987349999997605
                },
                {
                    "name": "G4",
                    "midi": 67,
                    "time": 266.5823939999993,
                    "velocity": 0.30708661417322836,
                    "duration": 0.18987349999997605
                },
                {
                    "name": "G3",
                    "midi": 55,
                    "time": 266.8355586666659,
                    "velocity": 0.1968503937007874,
                    "duration": 0.18987349999997605
                },
                {
                    "name": "G4",
                    "midi": 67,
                    "time": 266.8355586666659,
                    "velocity": 0.23622047244094488,
                    "duration": 0.18987349999997605
                },
                {
                    "name": "G3",
                    "midi": 55,
                    "time": 267.08872333333255,
                    "velocity": 0.1968503937007874,
                    "duration": 0.18987349999997605
                },
                {
                    "name": "G4",
                    "midi": 67,
                    "time": 267.08872333333255,
                    "velocity": 0.23622047244094488,
                    "duration": 0.18987349999997605
                },
                {
                    "name": "G4",
                    "midi": 67,
                    "time": 267.3418879999992,
                    "velocity": 0.30708661417322836,
                    "duration": 0.18987349999997605
                },
                {
                    "name": "G3",
                    "midi": 55,
                    "time": 267.3418879999992,
                    "velocity": 0.30708661417322836,
                    "duration": 0.18987349999997605
                },
                {
                    "name": "G3",
                    "midi": 55,
                    "time": 267.5950526666658,
                    "velocity": 0.1732283464566929,
                    "duration": 0.18987349999997605
                },
                {
                    "name": "G4",
                    "midi": 67,
                    "time": 267.5950526666658,
                    "velocity": 0.2125984251968504,
                    "duration": 0.18987349999997605
                },
                {
                    "name": "G3",
                    "midi": 55,
                    "time": 267.84821733333246,
                    "velocity": 0.1732283464566929,
                    "duration": 0.18987349999997605
                },
                {
                    "name": "G4",
                    "midi": 67,
                    "time": 267.84821733333246,
                    "velocity": 0.2125984251968504,
                    "duration": 0.18987349999997605
                },
                {
                    "name": "G3",
                    "midi": 55,
                    "time": 268.1013819999991,
                    "velocity": 0.1968503937007874,
                    "duration": 0.18987349999997605
                },
                {
                    "name": "G4",
                    "midi": 67,
                    "time": 268.1013819999991,
                    "velocity": 0.23622047244094488,
                    "duration": 0.18987349999997605
                },
                {
                    "name": "G3",
                    "midi": 55,
                    "time": 268.3545466666657,
                    "velocity": 0.1968503937007874,
                    "duration": 0.18987349999997605
                },
                {
                    "name": "G4",
                    "midi": 67,
                    "time": 268.3545466666657,
                    "velocity": 0.23622047244094488,
                    "duration": 0.18987349999997605
                },
                {
                    "name": "G3",
                    "midi": 55,
                    "time": 268.60771133333236,
                    "velocity": 0.1968503937007874,
                    "duration": 0.18987349999997605
                },
                {
                    "name": "G4",
                    "midi": 67,
                    "time": 268.60771133333236,
                    "velocity": 0.23622047244094488,
                    "duration": 0.18987349999997605
                },
                {
                    "name": "G3",
                    "midi": 55,
                    "time": 268.860875999999,
                    "velocity": 0.25196850393700787,
                    "duration": 0.18987349999997605
                },
                {
                    "name": "G4",
                    "midi": 67,
                    "time": 268.860875999999,
                    "velocity": 0.2992125984251969,
                    "duration": 0.18987349999997605
                },
                {
                    "name": "G3",
                    "midi": 55,
                    "time": 269.11404066666563,
                    "velocity": 0.1889763779527559,
                    "duration": 0.18987349999997605
                },
                {
                    "name": "G4",
                    "midi": 67,
                    "time": 269.11404066666563,
                    "velocity": 0.2204724409448819,
                    "duration": 0.18987349999997605
                },
                {
                    "name": "G3",
                    "midi": 55,
                    "time": 269.36720533333227,
                    "velocity": 0.1968503937007874,
                    "duration": 0.18987349999997605
                },
                {
                    "name": "G4",
                    "midi": 67,
                    "time": 269.36720533333227,
                    "velocity": 0.23622047244094488,
                    "duration": 0.18987349999997605
                },
                {
                    "name": "G3",
                    "midi": 55,
                    "time": 269.6203699999989,
                    "velocity": 0.25984251968503935,
                    "duration": 0.18987349999997605
                },
                {
                    "name": "G4",
                    "midi": 67,
                    "time": 269.6203699999989,
                    "velocity": 0.30708661417322836,
                    "duration": 0.18987349999997605
                },
                {
                    "name": "G3",
                    "midi": 55,
                    "time": 269.87353466666553,
                    "velocity": 0.1968503937007874,
                    "duration": 0.18987349999997605
                },
                {
                    "name": "G4",
                    "midi": 67,
                    "time": 269.87353466666553,
                    "velocity": 0.23622047244094488,
                    "duration": 0.18987349999997605
                },
                {
                    "name": "F3",
                    "midi": 53,
                    "time": 270.12669933333217,
                    "velocity": 0.1968503937007874,
                    "duration": 0.18987349999997605
                },
                {
                    "name": "F4",
                    "midi": 65,
                    "time": 270.12669933333217,
                    "velocity": 0.23622047244094488,
                    "duration": 0.18987349999997605
                },
                {
                    "name": "D#4",
                    "midi": 63,
                    "time": 270.3798639999988,
                    "velocity": 0.30708661417322836,
                    "duration": 0.18987349999997605
                },
                {
                    "name": "C4",
                    "midi": 60,
                    "time": 270.3798639999988,
                    "velocity": 0.30708661417322836,
                    "duration": 0.18987349999997605
                },
                {
                    "name": "G4",
                    "midi": 67,
                    "time": 270.3798639999988,
                    "velocity": 0.30708661417322836,
                    "duration": 0.18987349999997605
                },
                {
                    "name": "G3",
                    "midi": 55,
                    "time": 270.3798639999988,
                    "velocity": 0.30708661417322836,
                    "duration": 0.18987349999997605
                },
                {
                    "name": "D#4",
                    "midi": 63,
                    "time": 270.63302866666544,
                    "velocity": 0.1732283464566929,
                    "duration": 0.18987349999997605
                },
                {
                    "name": "C4",
                    "midi": 60,
                    "time": 270.63302866666544,
                    "velocity": 0.1732283464566929,
                    "duration": 0.18987349999997605
                },
                {
                    "name": "G3",
                    "midi": 55,
                    "time": 270.63302866666544,
                    "velocity": 0.1732283464566929,
                    "duration": 0.18987349999997605
                },
                {
                    "name": "G4",
                    "midi": 67,
                    "time": 270.63302866666544,
                    "velocity": 0.2125984251968504,
                    "duration": 0.18987349999997605
                },
                {
                    "name": "D#4",
                    "midi": 63,
                    "time": 270.8861933333321,
                    "velocity": 0.1732283464566929,
                    "duration": 0.18987349999997605
                },
                {
                    "name": "C4",
                    "midi": 60,
                    "time": 270.8861933333321,
                    "velocity": 0.1732283464566929,
                    "duration": 0.18987349999997605
                },
                {
                    "name": "G3",
                    "midi": 55,
                    "time": 270.8861933333321,
                    "velocity": 0.1732283464566929,
                    "duration": 0.18987349999997605
                },
                {
                    "name": "G4",
                    "midi": 67,
                    "time": 270.8861933333321,
                    "velocity": 0.2125984251968504,
                    "duration": 0.18987349999997605
                },
                {
                    "name": "D#4",
                    "midi": 63,
                    "time": 271.1393579999987,
                    "velocity": 0.1732283464566929,
                    "duration": 0.18987349999997605
                },
                {
                    "name": "C4",
                    "midi": 60,
                    "time": 271.1393579999987,
                    "velocity": 0.1732283464566929,
                    "duration": 0.18987349999997605
                },
                {
                    "name": "G3",
                    "midi": 55,
                    "time": 271.1393579999987,
                    "velocity": 0.1968503937007874,
                    "duration": 0.18987349999997605
                },
                {
                    "name": "G4",
                    "midi": 67,
                    "time": 271.1393579999987,
                    "velocity": 0.23622047244094488,
                    "duration": 0.18987349999997605
                },
                {
                    "name": "D#4",
                    "midi": 63,
                    "time": 271.39252266666534,
                    "velocity": 0.1732283464566929,
                    "duration": 0.18987349999997605
                },
                {
                    "name": "C4",
                    "midi": 60,
                    "time": 271.39252266666534,
                    "velocity": 0.1732283464566929,
                    "duration": 0.18987349999997605
                },
                {
                    "name": "G3",
                    "midi": 55,
                    "time": 271.39252266666534,
                    "velocity": 0.1968503937007874,
                    "duration": 0.18987349999997605
                },
                {
                    "name": "G4",
                    "midi": 67,
                    "time": 271.39252266666534,
                    "velocity": 0.23622047244094488,
                    "duration": 0.18987349999997605
                },
                {
                    "name": "D#4",
                    "midi": 63,
                    "time": 271.645687333332,
                    "velocity": 0.1732283464566929,
                    "duration": 0.18987349999997605
                },
                {
                    "name": "C4",
                    "midi": 60,
                    "time": 271.645687333332,
                    "velocity": 0.1732283464566929,
                    "duration": 0.18987349999997605
                },
                {
                    "name": "G3",
                    "midi": 55,
                    "time": 271.645687333332,
                    "velocity": 0.1968503937007874,
                    "duration": 0.18987349999997605
                },
                {
                    "name": "G4",
                    "midi": 67,
                    "time": 271.645687333332,
                    "velocity": 0.23622047244094488,
                    "duration": 0.18987349999997605
                },
                {
                    "name": "D4",
                    "midi": 62,
                    "time": 271.8988519999986,
                    "velocity": 0.25196850393700787,
                    "duration": 0.18987349999997605
                },
                {
                    "name": "B3",
                    "midi": 59,
                    "time": 271.8988519999986,
                    "velocity": 0.25196850393700787,
                    "duration": 0.18987349999997605
                },
                {
                    "name": "G3",
                    "midi": 55,
                    "time": 271.8988519999986,
                    "velocity": 0.25196850393700787,
                    "duration": 0.18987349999997605
                },
                {
                    "name": "G4",
                    "midi": 67,
                    "time": 271.8988519999986,
                    "velocity": 0.2992125984251969,
                    "duration": 0.18987349999997605
                },
                {
                    "name": "D4",
                    "midi": 62,
                    "time": 272.15201666666525,
                    "velocity": 0.25196850393700787,
                    "duration": 0.18987349999997605
                },
                {
                    "name": "B3",
                    "midi": 59,
                    "time": 272.15201666666525,
                    "velocity": 0.25196850393700787,
                    "duration": 0.18987349999997605
                },
                {
                    "name": "G3",
                    "midi": 55,
                    "time": 272.15201666666525,
                    "velocity": 0.1889763779527559,
                    "duration": 0.18987349999997605
                },
                {
                    "name": "G4",
                    "midi": 67,
                    "time": 272.15201666666525,
                    "velocity": 0.2204724409448819,
                    "duration": 0.18987349999997605
                },
                {
                    "name": "D4",
                    "midi": 62,
                    "time": 272.4051813333319,
                    "velocity": 0.25196850393700787,
                    "duration": 0.18987349999997605
                },
                {
                    "name": "B3",
                    "midi": 59,
                    "time": 272.4051813333319,
                    "velocity": 0.25196850393700787,
                    "duration": 0.18987349999997605
                },
                {
                    "name": "G3",
                    "midi": 55,
                    "time": 272.4051813333319,
                    "velocity": 0.1968503937007874,
                    "duration": 0.18987349999997605
                },
                {
                    "name": "G4",
                    "midi": 67,
                    "time": 272.4051813333319,
                    "velocity": 0.23622047244094488,
                    "duration": 0.18987349999997605
                },
                {
                    "name": "D4",
                    "midi": 62,
                    "time": 272.6583459999985,
                    "velocity": 0.25984251968503935,
                    "duration": 0.18987349999997605
                },
                {
                    "name": "B3",
                    "midi": 59,
                    "time": 272.6583459999985,
                    "velocity": 0.25984251968503935,
                    "duration": 0.18987349999997605
                },
                {
                    "name": "G3",
                    "midi": 55,
                    "time": 272.6583459999985,
                    "velocity": 0.25984251968503935,
                    "duration": 0.18987349999997605
                },
                {
                    "name": "G4",
                    "midi": 67,
                    "time": 272.6583459999985,
                    "velocity": 0.30708661417322836,
                    "duration": 0.18987349999997605
                },
                {
                    "name": "D4",
                    "midi": 62,
                    "time": 272.91151066666515,
                    "velocity": 0.1968503937007874,
                    "duration": 0.18987349999997605
                },
                {
                    "name": "B3",
                    "midi": 59,
                    "time": 272.91151066666515,
                    "velocity": 0.1968503937007874,
                    "duration": 0.18987349999997605
                },
                {
                    "name": "G3",
                    "midi": 55,
                    "time": 272.91151066666515,
                    "velocity": 0.1968503937007874,
                    "duration": 0.18987349999997605
                },
                {
                    "name": "G4",
                    "midi": 67,
                    "time": 272.91151066666515,
                    "velocity": 0.23622047244094488,
                    "duration": 0.18987349999997605
                },
                {
                    "name": "D4",
                    "midi": 62,
                    "time": 273.1646753333318,
                    "velocity": 0.1968503937007874,
                    "duration": 0.18987349999997605
                },
                {
                    "name": "B3",
                    "midi": 59,
                    "time": 273.1646753333318,
                    "velocity": 0.1968503937007874,
                    "duration": 0.18987349999997605
                },
                {
                    "name": "G3",
                    "midi": 55,
                    "time": 273.1646753333318,
                    "velocity": 0.1968503937007874,
                    "duration": 0.18987349999997605
                },
                {
                    "name": "G4",
                    "midi": 67,
                    "time": 273.1646753333318,
                    "velocity": 0.23622047244094488,
                    "duration": 0.18987349999997605
                },
                {
                    "name": "D#4",
                    "midi": 63,
                    "time": 273.4178399999984,
                    "velocity": 0.30708661417322836,
                    "duration": 0.18987349999997605
                },
                {
                    "name": "C4",
                    "midi": 60,
                    "time": 273.4178399999984,
                    "velocity": 0.30708661417322836,
                    "duration": 0.18987349999997605
                },
                {
                    "name": "G4",
                    "midi": 67,
                    "time": 273.4178399999984,
                    "velocity": 0.30708661417322836,
                    "duration": 0.18987349999997605
                },
                {
                    "name": "G3",
                    "midi": 55,
                    "time": 273.4178399999984,
                    "velocity": 0.30708661417322836,
                    "duration": 0.18987349999997605
                },
                {
                    "name": "G3",
                    "midi": 55,
                    "time": 273.67100466666506,
                    "velocity": 0.1732283464566929,
                    "duration": 0.18987349999997605
                },
                {
                    "name": "G4",
                    "midi": 67,
                    "time": 273.67100466666506,
                    "velocity": 0.2125984251968504,
                    "duration": 0.18987349999997605
                },
                {
                    "name": "G3",
                    "midi": 55,
                    "time": 273.9241693333317,
                    "velocity": 0.1732283464566929,
                    "duration": 0.18987349999997605
                },
                {
                    "name": "G4",
                    "midi": 67,
                    "time": 273.9241693333317,
                    "velocity": 0.2125984251968504,
                    "duration": 0.18987349999997605
                },
                {
                    "name": "G3",
                    "midi": 55,
                    "time": 274.1773339999983,
                    "velocity": 0.2204724409448819,
                    "duration": 0.18987349999997605
                },
                {
                    "name": "G4",
                    "midi": 67,
                    "time": 274.1773339999983,
                    "velocity": 0.2677165354330709,
                    "duration": 0.18987349999997605
                },
                {
                    "name": "G3",
                    "midi": 55,
                    "time": 274.43049866666496,
                    "velocity": 0.2283464566929134,
                    "duration": 0.18987349999997605
                },
                {
                    "name": "G4",
                    "midi": 67,
                    "time": 274.43049866666496,
                    "velocity": 0.2755905511811024,
                    "duration": 0.18987349999997605
                },
                {
                    "name": "G3",
                    "midi": 55,
                    "time": 274.6836633333316,
                    "velocity": 0.23622047244094488,
                    "duration": 0.18987349999997605
                },
                {
                    "name": "G4",
                    "midi": 67,
                    "time": 274.6836633333316,
                    "velocity": 0.28346456692913385,
                    "duration": 0.18987349999997605
                },
                {
                    "name": "G3",
                    "midi": 55,
                    "time": 274.93682799999823,
                    "velocity": 0.31496062992125984,
                    "duration": 0.18987349999997605
                },
                {
                    "name": "G4",
                    "midi": 67,
                    "time": 274.93682799999823,
                    "velocity": 0.3779527559055118,
                    "duration": 0.18987349999997605
                },
                {
                    "name": "G3",
                    "midi": 55,
                    "time": 275.18999266666486,
                    "velocity": 0.25196850393700787,
                    "duration": 0.18987349999997605
                },
                {
                    "name": "G4",
                    "midi": 67,
                    "time": 275.18999266666486,
                    "velocity": 0.28346456692913385,
                    "duration": 0.18987349999997605
                },
                {
                    "name": "G3",
                    "midi": 55,
                    "time": 275.4431573333315,
                    "velocity": 0.2677165354330709,
                    "duration": 0.18987349999997605
                },
                {
                    "name": "G4",
                    "midi": 67,
                    "time": 275.4431573333315,
                    "velocity": 0.3228346456692913,
                    "duration": 0.18987349999997605
                },
                {
                    "name": "G3",
                    "midi": 55,
                    "time": 275.69632199999813,
                    "velocity": 0.3700787401574803,
                    "duration": 0.18987349999997605
                },
                {
                    "name": "G4",
                    "midi": 67,
                    "time": 275.69632199999813,
                    "velocity": 0.4409448818897638,
                    "duration": 0.18987349999997605
                },
                {
                    "name": "G3",
                    "midi": 55,
                    "time": 275.94948666666477,
                    "velocity": 0.28346456692913385,
                    "duration": 0.18987349999997605
                },
                {
                    "name": "G4",
                    "midi": 67,
                    "time": 275.94948666666477,
                    "velocity": 0.33858267716535434,
                    "duration": 0.18987349999997605
                },
                {
                    "name": "G3",
                    "midi": 55,
                    "time": 276.2026513333314,
                    "velocity": 0.29133858267716534,
                    "duration": 0.18987349999997605
                },
                {
                    "name": "G4",
                    "midi": 67,
                    "time": 276.2026513333314,
                    "velocity": 0.3464566929133858,
                    "duration": 0.18987349999997605
                },
                {
                    "name": "G4",
                    "midi": 67,
                    "time": 276.45581599999804,
                    "velocity": 0.4645669291338583,
                    "duration": 0.18987349999997605
                },
                {
                    "name": "G3",
                    "midi": 55,
                    "time": 276.45581599999804,
                    "velocity": 0.4645669291338583,
                    "duration": 0.18987349999997605
                },
                {
                    "name": "G3",
                    "midi": 55,
                    "time": 276.7089806666647,
                    "velocity": 0.25984251968503935,
                    "duration": 0.18987349999997605
                },
                {
                    "name": "G4",
                    "midi": 67,
                    "time": 276.7089806666647,
                    "velocity": 0.3228346456692913,
                    "duration": 0.18987349999997605
                },
                {
                    "name": "G3",
                    "midi": 55,
                    "time": 276.9621453333313,
                    "velocity": 0.25984251968503935,
                    "duration": 0.18987349999997605
                },
                {
                    "name": "G4",
                    "midi": 67,
                    "time": 276.9621453333313,
                    "velocity": 0.3228346456692913,
                    "duration": 0.18987349999997605
                },
                {
                    "name": "G3",
                    "midi": 55,
                    "time": 277.21530999999794,
                    "velocity": 0.29133858267716534,
                    "duration": 0.18987349999997605
                },
                {
                    "name": "G4",
                    "midi": 67,
                    "time": 277.21530999999794,
                    "velocity": 0.36220472440944884,
                    "duration": 0.18987349999997605
                },
                {
                    "name": "G3",
                    "midi": 55,
                    "time": 277.4684746666646,
                    "velocity": 0.29133858267716534,
                    "duration": 0.18987349999997605
                },
                {
                    "name": "G4",
                    "midi": 67,
                    "time": 277.4684746666646,
                    "velocity": 0.36220472440944884,
                    "duration": 0.18987349999997605
                },
                {
                    "name": "G3",
                    "midi": 55,
                    "time": 277.7216393333312,
                    "velocity": 0.29133858267716534,
                    "duration": 0.18987349999997605
                },
                {
                    "name": "G4",
                    "midi": 67,
                    "time": 277.7216393333312,
                    "velocity": 0.36220472440944884,
                    "duration": 0.18987349999997605
                },
                {
                    "name": "G3",
                    "midi": 55,
                    "time": 277.97480399999785,
                    "velocity": 0.3858267716535433,
                    "duration": 0.18987349999997605
                },
                {
                    "name": "G4",
                    "midi": 67,
                    "time": 277.97480399999785,
                    "velocity": 0.4566929133858268,
                    "duration": 0.18987349999997605
                },
                {
                    "name": "G3",
                    "midi": 55,
                    "time": 278.2279686666645,
                    "velocity": 0.28346456692913385,
                    "duration": 0.18987349999997605
                },
                {
                    "name": "G4",
                    "midi": 67,
                    "time": 278.2279686666645,
                    "velocity": 0.33070866141732286,
                    "duration": 0.18987349999997605
                },
                {
                    "name": "G3",
                    "midi": 55,
                    "time": 278.4811333333311,
                    "velocity": 0.29133858267716534,
                    "duration": 0.18987349999997605
                },
                {
                    "name": "G4",
                    "midi": 67,
                    "time": 278.4811333333311,
                    "velocity": 0.36220472440944884,
                    "duration": 0.18987349999997605
                },
                {
                    "name": "G#3",
                    "midi": 56,
                    "time": 278.73429799999775,
                    "velocity": 0.4330708661417323,
                    "duration": 0.18987349999997605
                },
                {
                    "name": "G#4",
                    "midi": 68,
                    "time": 278.73429799999775,
                    "velocity": 0.5118110236220472,
                    "duration": 0.18987349999997605
                },
                {
                    "name": "G#3",
                    "midi": 56,
                    "time": 278.9874626666644,
                    "velocity": 0.33070866141732286,
                    "duration": 0.18987349999997605
                },
                {
                    "name": "G#4",
                    "midi": 68,
                    "time": 278.9874626666644,
                    "velocity": 0.4094488188976378,
                    "duration": 0.18987349999997605
                },
                {
                    "name": "G#3",
                    "midi": 56,
                    "time": 279.240627333331,
                    "velocity": 0.3464566929133858,
                    "duration": 0.18987349999997605
                },
                {
                    "name": "G#4",
                    "midi": 68,
                    "time": 279.240627333331,
                    "velocity": 0.4330708661417323,
                    "duration": 0.18987349999997605
                },
                {
                    "name": "G4",
                    "midi": 67,
                    "time": 279.49379199999765,
                    "velocity": 0.5511811023622047,
                    "duration": 0.18987349999997605
                },
                {
                    "name": "G3",
                    "midi": 55,
                    "time": 279.49379199999765,
                    "velocity": 0.5511811023622047,
                    "duration": 0.18987349999997605
                },
                {
                    "name": "G3",
                    "midi": 55,
                    "time": 279.7469566666643,
                    "velocity": 0.31496062992125984,
                    "duration": 0.18987349999997605
                },
                {
                    "name": "G4",
                    "midi": 67,
                    "time": 279.7469566666643,
                    "velocity": 0.3937007874015748,
                    "duration": 0.18987349999997605
                },
                {
                    "name": "G3",
                    "midi": 55,
                    "time": 280.0001213333309,
                    "velocity": 0.31496062992125984,
                    "duration": 0.18987349999997605
                },
                {
                    "name": "G4",
                    "midi": 67,
                    "time": 280.0001213333309,
                    "velocity": 0.3937007874015748,
                    "duration": 0.18987349999997605
                },
                {
                    "name": "G3",
                    "midi": 55,
                    "time": 280.25328599999756,
                    "velocity": 0.36220472440944884,
                    "duration": 0.18987349999997605
                },
                {
                    "name": "G4",
                    "midi": 67,
                    "time": 280.25328599999756,
                    "velocity": 0.4330708661417323,
                    "duration": 0.18987349999997605
                },
                {
                    "name": "G3",
                    "midi": 55,
                    "time": 280.5064506666642,
                    "velocity": 0.3464566929133858,
                    "duration": 0.18987349999997605
                },
                {
                    "name": "G4",
                    "midi": 67,
                    "time": 280.5064506666642,
                    "velocity": 0.4330708661417323,
                    "duration": 0.18987349999997605
                },
                {
                    "name": "G3",
                    "midi": 55,
                    "time": 280.7596153333308,
                    "velocity": 0.3464566929133858,
                    "duration": 0.18987349999997605
                },
                {
                    "name": "G4",
                    "midi": 67,
                    "time": 280.7596153333308,
                    "velocity": 0.4251968503937008,
                    "duration": 0.18987349999997605
                },
                {
                    "name": "G3",
                    "midi": 55,
                    "time": 281.01277999999746,
                    "velocity": 0.44881889763779526,
                    "duration": 0.18987349999997605
                },
                {
                    "name": "G4",
                    "midi": 67,
                    "time": 281.01277999999746,
                    "velocity": 0.5433070866141733,
                    "duration": 0.18987349999997605
                },
                {
                    "name": "G3",
                    "midi": 55,
                    "time": 281.2659446666641,
                    "velocity": 0.33070866141732286,
                    "duration": 0.18987349999997605
                },
                {
                    "name": "G4",
                    "midi": 67,
                    "time": 281.2659446666641,
                    "velocity": 0.3858267716535433,
                    "duration": 0.18987349999997605
                },
                {
                    "name": "G3",
                    "midi": 55,
                    "time": 281.51910933333073,
                    "velocity": 0.33070866141732286,
                    "duration": 0.18987349999997605
                },
                {
                    "name": "G4",
                    "midi": 67,
                    "time": 281.51910933333073,
                    "velocity": 0.4094488188976378,
                    "duration": 0.18987349999997605
                },
                {
                    "name": "G3",
                    "midi": 55,
                    "time": 281.77227399999737,
                    "velocity": 0.44881889763779526,
                    "duration": 0.18987349999997605
                },
                {
                    "name": "G4",
                    "midi": 67,
                    "time": 281.77227399999737,
                    "velocity": 0.5275590551181102,
                    "duration": 0.18987349999997605
                },
                {
                    "name": "G3",
                    "midi": 55,
                    "time": 282.025438666664,
                    "velocity": 0.33070866141732286,
                    "duration": 0.18987349999997605
                },
                {
                    "name": "G4",
                    "midi": 67,
                    "time": 282.025438666664,
                    "velocity": 0.4015748031496063,
                    "duration": 0.18987349999997605
                },
                {
                    "name": "F3",
                    "midi": 53,
                    "time": 282.27860333333064,
                    "velocity": 0.3228346456692913,
                    "duration": 0.18987349999997605
                },
                {
                    "name": "F4",
                    "midi": 65,
                    "time": 282.27860333333064,
                    "velocity": 0.3937007874015748,
                    "duration": 0.18987349999997605
                },
                {
                    "name": "D#4",
                    "midi": 63,
                    "time": 282.53176799999727,
                    "velocity": 0.4645669291338583,
                    "duration": 0.18987349999997605
                },
                {
                    "name": "C4",
                    "midi": 60,
                    "time": 282.53176799999727,
                    "velocity": 0.4645669291338583,
                    "duration": 0.18987349999997605
                },
                {
                    "name": "G4",
                    "midi": 67,
                    "time": 282.53176799999727,
                    "velocity": 0.4645669291338583,
                    "duration": 0.18987349999997605
                },
                {
                    "name": "G3",
                    "midi": 55,
                    "time": 282.53176799999727,
                    "velocity": 0.4645669291338583,
                    "duration": 0.18987349999997605
                },
                {
                    "name": "D#4",
                    "midi": 63,
                    "time": 282.7849326666639,
                    "velocity": 0.25984251968503935,
                    "duration": 0.18987349999997605
                },
                {
                    "name": "C4",
                    "midi": 60,
                    "time": 282.7849326666639,
                    "velocity": 0.25984251968503935,
                    "duration": 0.18987349999997605
                },
                {
                    "name": "G3",
                    "midi": 55,
                    "time": 282.7849326666639,
                    "velocity": 0.25984251968503935,
                    "duration": 0.18987349999997605
                },
                {
                    "name": "G4",
                    "midi": 67,
                    "time": 282.7849326666639,
                    "velocity": 0.3228346456692913,
                    "duration": 0.18987349999997605
                },
                {
                    "name": "D#4",
                    "midi": 63,
                    "time": 283.03809733333054,
                    "velocity": 0.25984251968503935,
                    "duration": 0.18987349999997605
                },
                {
                    "name": "C4",
                    "midi": 60,
                    "time": 283.03809733333054,
                    "velocity": 0.25984251968503935,
                    "duration": 0.18987349999997605
                },
                {
                    "name": "G3",
                    "midi": 55,
                    "time": 283.03809733333054,
                    "velocity": 0.25984251968503935,
                    "duration": 0.18987349999997605
                },
                {
                    "name": "G4",
                    "midi": 67,
                    "time": 283.03809733333054,
                    "velocity": 0.3228346456692913,
                    "duration": 0.18987349999997605
                },
                {
                    "name": "D#4",
                    "midi": 63,
                    "time": 283.2912619999972,
                    "velocity": 0.25984251968503935,
                    "duration": 0.18987349999997605
                },
                {
                    "name": "C4",
                    "midi": 60,
                    "time": 283.2912619999972,
                    "velocity": 0.25984251968503935,
                    "duration": 0.18987349999997605
                },
                {
                    "name": "G3",
                    "midi": 55,
                    "time": 283.2912619999972,
                    "velocity": 0.29133858267716534,
                    "duration": 0.18987349999997605
                },
                {
                    "name": "G4",
                    "midi": 67,
                    "time": 283.2912619999972,
                    "velocity": 0.36220472440944884,
                    "duration": 0.18987349999997605
                },
                {
                    "name": "D#4",
                    "midi": 63,
                    "time": 283.5444266666638,
                    "velocity": 0.25984251968503935,
                    "duration": 0.18987349999997605
                },
                {
                    "name": "C4",
                    "midi": 60,
                    "time": 283.5444266666638,
                    "velocity": 0.25984251968503935,
                    "duration": 0.18987349999997605
                },
                {
                    "name": "G3",
                    "midi": 55,
                    "time": 283.5444266666638,
                    "velocity": 0.29133858267716534,
                    "duration": 0.18987349999997605
                },
                {
                    "name": "G4",
                    "midi": 67,
                    "time": 283.5444266666638,
                    "velocity": 0.36220472440944884,
                    "duration": 0.18987349999997605
                },
                {
                    "name": "D#4",
                    "midi": 63,
                    "time": 283.79759133333044,
                    "velocity": 0.25984251968503935,
                    "duration": 0.18987349999997605
                },
                {
                    "name": "C4",
                    "midi": 60,
                    "time": 283.79759133333044,
                    "velocity": 0.25984251968503935,
                    "duration": 0.18987349999997605
                },
                {
                    "name": "G3",
                    "midi": 55,
                    "time": 283.79759133333044,
                    "velocity": 0.29133858267716534,
                    "duration": 0.18987349999997605
                },
                {
                    "name": "G4",
                    "midi": 67,
                    "time": 283.79759133333044,
                    "velocity": 0.36220472440944884,
                    "duration": 0.18987349999997605
                },
                {
                    "name": "D4",
                    "midi": 62,
                    "time": 284.0507559999971,
                    "velocity": 0.3858267716535433,
                    "duration": 0.18987349999997605
                },
                {
                    "name": "B3",
                    "midi": 59,
                    "time": 284.0507559999971,
                    "velocity": 0.3858267716535433,
                    "duration": 0.18987349999997605
                },
                {
                    "name": "G3",
                    "midi": 55,
                    "time": 284.0507559999971,
                    "velocity": 0.3858267716535433,
                    "duration": 0.18987349999997605
                },
                {
                    "name": "G4",
                    "midi": 67,
                    "time": 284.0507559999971,
                    "velocity": 0.4566929133858268,
                    "duration": 0.18987349999997605
                },
                {
                    "name": "D4",
                    "midi": 62,
                    "time": 284.3039206666637,
                    "velocity": 0.3858267716535433,
                    "duration": 0.18987349999997605
                },
                {
                    "name": "B3",
                    "midi": 59,
                    "time": 284.3039206666637,
                    "velocity": 0.3858267716535433,
                    "duration": 0.18987349999997605
                },
                {
                    "name": "G3",
                    "midi": 55,
                    "time": 284.3039206666637,
                    "velocity": 0.28346456692913385,
                    "duration": 0.18987349999997605
                },
                {
                    "name": "G4",
                    "midi": 67,
                    "time": 284.3039206666637,
                    "velocity": 0.33070866141732286,
                    "duration": 0.18987349999997605
                },
                {
                    "name": "D4",
                    "midi": 62,
                    "time": 284.55708533333035,
                    "velocity": 0.3858267716535433,
                    "duration": 0.18987349999997605
                },
                {
                    "name": "B3",
                    "midi": 59,
                    "time": 284.55708533333035,
                    "velocity": 0.3858267716535433,
                    "duration": 0.18987349999997605
                },
                {
                    "name": "G3",
                    "midi": 55,
                    "time": 284.55708533333035,
                    "velocity": 0.29133858267716534,
                    "duration": 0.18987349999997605
                },
                {
                    "name": "G4",
                    "midi": 67,
                    "time": 284.55708533333035,
                    "velocity": 0.36220472440944884,
                    "duration": 0.18987349999997605
                },
                {
                    "name": "D4",
                    "midi": 62,
                    "time": 284.810249999997,
                    "velocity": 0.3937007874015748,
                    "duration": 0.18987349999997605
                },
                {
                    "name": "B3",
                    "midi": 59,
                    "time": 284.810249999997,
                    "velocity": 0.3937007874015748,
                    "duration": 0.18987349999997605
                },
                {
                    "name": "G3",
                    "midi": 55,
                    "time": 284.810249999997,
                    "velocity": 0.3937007874015748,
                    "duration": 0.18987349999997605
                },
                {
                    "name": "G4",
                    "midi": 67,
                    "time": 284.810249999997,
                    "velocity": 0.4645669291338583,
                    "duration": 0.18987349999997605
                },
                {
                    "name": "D4",
                    "midi": 62,
                    "time": 285.0634146666636,
                    "velocity": 0.29133858267716534,
                    "duration": 0.18987349999997605
                },
                {
                    "name": "B3",
                    "midi": 59,
                    "time": 285.0634146666636,
                    "velocity": 0.29133858267716534,
                    "duration": 0.18987349999997605
                },
                {
                    "name": "G3",
                    "midi": 55,
                    "time": 285.0634146666636,
                    "velocity": 0.29133858267716534,
                    "duration": 0.18987349999997605
                },
                {
                    "name": "G4",
                    "midi": 67,
                    "time": 285.0634146666636,
                    "velocity": 0.36220472440944884,
                    "duration": 0.18987349999997605
                },
                {
                    "name": "D4",
                    "midi": 62,
                    "time": 285.31657933333025,
                    "velocity": 0.29133858267716534,
                    "duration": 0.18987349999997605
                },
                {
                    "name": "B3",
                    "midi": 59,
                    "time": 285.31657933333025,
                    "velocity": 0.29133858267716534,
                    "duration": 0.18987349999997605
                },
                {
                    "name": "G3",
                    "midi": 55,
                    "time": 285.31657933333025,
                    "velocity": 0.29133858267716534,
                    "duration": 0.18987349999997605
                },
                {
                    "name": "G4",
                    "midi": 67,
                    "time": 285.31657933333025,
                    "velocity": 0.36220472440944884,
                    "duration": 0.18987349999997605
                },
                {
                    "name": "G3",
                    "midi": 55,
                    "time": 285.5697439999969,
                    "velocity": 0.31496062992125984,
                    "duration": 1.518987999999979
                },
                {
                    "name": "C4",
                    "midi": 60,
                    "time": 285.5697439999969,
                    "velocity": 0.31496062992125984,
                    "duration": 1.518987999999979
                },
                {
                    "name": "D#4",
                    "midi": 63,
                    "time": 285.5697439999969,
                    "velocity": 0.31496062992125984,
                    "duration": 1.518987999999979
                },
                {
                    "name": "G4",
                    "midi": 67,
                    "time": 285.5697439999969,
                    "velocity": 0.3779527559055118,
                    "duration": 1.518987999999979
                },
                {
                    "name": "B4",
                    "midi": 71,
                    "time": 287.8482259999969,
                    "velocity": 0.3464566929133858,
                    "duration": 0.569620499999985
                },
                {
                    "name": "C5",
                    "midi": 72,
                    "time": 288.41784649999687,
                    "velocity": 0.2992125984251969,
                    "duration": 0.18987349999997605
                },
                {
                    "name": "D5",
                    "midi": 74,
                    "time": 288.60771999999685,
                    "velocity": 0.4015748031496063,
                    "duration": 0.5348103583333454
                },
                {
                    "name": "F4",
                    "midi": 65,
                    "time": 289.36721399999686,
                    "velocity": 0.2755905511811024,
                    "duration": 0.569620499999985
                },
                {
                    "name": "D5",
                    "midi": 74,
                    "time": 289.36721399999686,
                    "velocity": 0.33070866141732286,
                    "duration": 0.5348103583333454
                },
                {
                    "name": "G#4",
                    "midi": 68,
                    "time": 290.1267079999968,
                    "velocity": 0.2755905511811024,
                    "duration": 0.569620499999985
                },
                {
                    "name": "D5",
                    "midi": 74,
                    "time": 290.1267079999968,
                    "velocity": 0.33070866141732286,
                    "duration": 0.5348103583333454
                },
                {
                    "name": "C5",
                    "midi": 72,
                    "time": 290.8862019999968,
                    "velocity": 0.36220472440944884,
                    "duration": 0.569620499999985
                },
                {
                    "name": "D5",
                    "midi": 74,
                    "time": 291.45582249999677,
                    "velocity": 0.3700787401574803,
                    "duration": 0.18987349999997605
                },
                {
                    "name": "D#5",
                    "midi": 75,
                    "time": 291.64569599999675,
                    "velocity": 0.41732283464566927,
                    "duration": 1.1392410000000268
                },
                {
                    "name": "D#4",
                    "midi": 63,
                    "time": 292.40518999999676,
                    "velocity": 0.30708661417322836,
                    "duration": 0.7594940000000179
                },
                {
                    "name": "D5",
                    "midi": 74,
                    "time": 292.7849369999968,
                    "velocity": 0.3464566929133858,
                    "duration": 0.37974700000000894
                },
                {
                    "name": "G4",
                    "midi": 67,
                    "time": 293.1646839999968,
                    "velocity": 0.25984251968503935,
                    "duration": 0.7594940000000179
                },
                {
                    "name": "C5",
                    "midi": 72,
                    "time": 293.1646839999968,
                    "velocity": 0.30708661417322836,
                    "duration": 0.7594940000000179
                },
                {
                    "name": "D5",
                    "midi": 74,
                    "time": 293.9241779999968,
                    "velocity": 0.3858267716535433,
                    "duration": 0.569620499999985
                },
                {
                    "name": "C5",
                    "midi": 72,
                    "time": 294.4937984999968,
                    "velocity": 0.33070866141732286,
                    "duration": 0.18987349999997605
                },
                {
                    "name": "B4",
                    "midi": 71,
                    "time": 294.68367199999676,
                    "velocity": 0.36220472440944884,
                    "duration": 0.7594940000000179
                },
                {
                    "name": "F4",
                    "midi": 65,
                    "time": 295.4431659999968,
                    "velocity": 0.29133858267716534,
                    "duration": 0.759493999999961
                },
                {
                    "name": "A4",
                    "midi": 69,
                    "time": 295.4431659999968,
                    "velocity": 0.3464566929133858,
                    "duration": 0.569620499999985
                },
                {
                    "name": "B4",
                    "midi": 71,
                    "time": 296.01278649999676,
                    "velocity": 0.28346456692913385,
                    "duration": 0.18987349999997605
                },
                {
                    "name": "D#4",
                    "midi": 63,
                    "time": 296.20265999999674,
                    "velocity": 0.29133858267716534,
                    "duration": 0.7594940000000179
                },
                {
                    "name": "C5",
                    "midi": 72,
                    "time": 296.20265999999674,
                    "velocity": 0.3779527559055118,
                    "duration": 0.7594940000000179
                },
                {
                    "name": "C4",
                    "midi": 60,
                    "time": 296.96215399999676,
                    "velocity": 0.29133858267716534,
                    "duration": 0.759493999999961
                },
                {
                    "name": "D5",
                    "midi": 74,
                    "time": 296.96215399999676,
                    "velocity": 0.33858267716535434,
                    "duration": 0.569620499999985
                },
                {
                    "name": "D#5",
                    "midi": 75,
                    "time": 297.53177449999674,
                    "velocity": 0.3464566929133858,
                    "duration": 0.18987349999997605
                },
                {
                    "name": "G#4",
                    "midi": 68,
                    "time": 297.7216479999967,
                    "velocity": 0.3700787401574803,
                    "duration": 0.18987349999997605
                },
                {
                    "name": "D5",
                    "midi": 74,
                    "time": 297.7216479999967,
                    "velocity": 0.4015748031496063,
                    "duration": 2.278481999999997
                },
                {
                    "name": "G4",
                    "midi": 67,
                    "time": 297.9115214999967,
                    "velocity": 0.33858267716535434,
                    "duration": 2.0886085000000207
                },
                {
                    "name": "B3",
                    "midi": 59,
                    "time": 300.0001299999967,
                    "velocity": 0.4094488188976378,
                    "duration": 0.569620499999985
                },
                {
                    "name": "G4",
                    "midi": 67,
                    "time": 300.0001299999967,
                    "velocity": 0.4094488188976378,
                    "duration": 0.569620499999985
                },
                {
                    "name": "B4",
                    "midi": 71,
                    "time": 300.0001299999967,
                    "velocity": 0.4881889763779528,
                    "duration": 0.569620499999985
                },
                {
                    "name": "C4",
                    "midi": 60,
                    "time": 300.5697504999967,
                    "velocity": 0.3937007874015748,
                    "duration": 0.18987349999997605
                },
                {
                    "name": "A4",
                    "midi": 69,
                    "time": 300.5697504999967,
                    "velocity": 0.3937007874015748,
                    "duration": 0.18987349999997605
                },
                {
                    "name": "C5",
                    "midi": 72,
                    "time": 300.5697504999967,
                    "velocity": 0.47244094488188976,
                    "duration": 0.18987349999997605
                },
                {
                    "name": "D4",
                    "midi": 62,
                    "time": 300.7596239999967,
                    "velocity": 0.48031496062992124,
                    "duration": 0.7594940000000179
                },
                {
                    "name": "B4",
                    "midi": 71,
                    "time": 300.7596239999967,
                    "velocity": 0.48031496062992124,
                    "duration": 0.7594940000000179
                },
                {
                    "name": "D5",
                    "midi": 74,
                    "time": 300.7596239999967,
                    "velocity": 0.5748031496062992,
                    "duration": 0.7594940000000179
                },
                {
                    "name": "D4",
                    "midi": 62,
                    "time": 301.5191179999967,
                    "velocity": 0.4330708661417323,
                    "duration": 0.7594940000000179
                },
                {
                    "name": "B4",
                    "midi": 71,
                    "time": 301.5191179999967,
                    "velocity": 0.4330708661417323,
                    "duration": 0.7594940000000179
                },
                {
                    "name": "D5",
                    "midi": 74,
                    "time": 301.5191179999967,
                    "velocity": 0.5196850393700787,
                    "duration": 0.7594940000000179
                },
                {
                    "name": "D4",
                    "midi": 62,
                    "time": 302.2786119999967,
                    "velocity": 0.4330708661417323,
                    "duration": 0.7594940000000179
                },
                {
                    "name": "B4",
                    "midi": 71,
                    "time": 302.2786119999967,
                    "velocity": 0.4330708661417323,
                    "duration": 0.7594940000000179
                },
                {
                    "name": "D5",
                    "midi": 74,
                    "time": 302.2786119999967,
                    "velocity": 0.5196850393700787,
                    "duration": 0.7594940000000179
                },
                {
                    "name": "C4",
                    "midi": 60,
                    "time": 303.03810599999673,
                    "velocity": 0.49606299212598426,
                    "duration": 0.569620499999985
                },
                {
                    "name": "G4",
                    "midi": 67,
                    "time": 303.03810599999673,
                    "velocity": 0.5039370078740157,
                    "duration": 0.569620499999985
                },
                {
                    "name": "C5",
                    "midi": 72,
                    "time": 303.03810599999673,
                    "velocity": 0.5196850393700787,
                    "duration": 0.569620499999985
                },
                {
                    "name": "D4",
                    "midi": 62,
                    "time": 303.6077264999967,
                    "velocity": 0.4330708661417323,
                    "duration": 0.18987349999997605
                },
                {
                    "name": "G4",
                    "midi": 67,
                    "time": 303.6077264999967,
                    "velocity": 0.4330708661417323,
                    "duration": 0.18987349999997605
                },
                {
                    "name": "D5",
                    "midi": 74,
                    "time": 303.6077264999967,
                    "velocity": 0.5275590551181102,
                    "duration": 0.18987349999997605
                },
                {
                    "name": "G4",
                    "midi": 67,
                    "time": 303.7975999999967,
                    "velocity": 0.5039370078740157,
                    "duration": 1.518987999999979
                },
                {
                    "name": "D#4",
                    "midi": 63,
                    "time": 303.7975999999967,
                    "velocity": 0.5039370078740157,
                    "duration": 1.3291145000000029
                },
                {
                    "name": "D#5",
                    "midi": 75,
                    "time": 303.7975999999967,
                    "velocity": 0.5905511811023622,
                    "duration": 1.3291145000000029
                },
                {
                    "name": "D4",
                    "midi": 62,
                    "time": 305.1267144999967,
                    "velocity": 0.5433070866141733,
                    "duration": 0.18987349999997605
                },
                {
                    "name": "D5",
                    "midi": 74,
                    "time": 305.1267144999967,
                    "velocity": 0.5433070866141733,
                    "duration": 0.18987349999997605
                },
                {
                    "name": "C4",
                    "midi": 60,
                    "time": 305.31658799999667,
                    "velocity": 0.47244094488188976,
                    "duration": 0.7594940000000179
                },
                {
                    "name": "G4",
                    "midi": 67,
                    "time": 305.31658799999667,
                    "velocity": 0.5039370078740157,
                    "duration": 0.7594940000000179
                },
                {
                    "name": "C5",
                    "midi": 72,
                    "time": 305.31658799999667,
                    "velocity": 0.5984251968503937,
                    "duration": 0.7594940000000179
                },
                {
                    "name": "F#4",
                    "midi": 66,
                    "time": 306.0760819999967,
                    "velocity": 0.4566929133858268,
                    "duration": 0.759493999999961
                },
                {
                    "name": "D4",
                    "midi": 62,
                    "time": 306.0760819999967,
                    "velocity": 0.4566929133858268,
                    "duration": 0.759493999999961
                },
                {
                    "name": "D5",
                    "midi": 74,
                    "time": 306.0760819999967,
                    "velocity": 0.5433070866141733,
                    "duration": 0.569620499999985
                },
                {
                    "name": "C5",
                    "midi": 72,
                    "time": 306.6457024999967,
                    "velocity": 0.47244094488188976,
                    "duration": 0.18987349999997605
                },
                {
                    "name": "D4",
                    "midi": 62,
                    "time": 306.83557599999665,
                    "velocity": 0.4330708661417323,
                    "duration": 0.7594940000000179
                },
                {
                    "name": "F4",
                    "midi": 65,
                    "time": 306.83557599999665,
                    "velocity": 0.4330708661417323,
                    "duration": 0.7594940000000179
                },
                {
                    "name": "B4",
                    "midi": 71,
                    "time": 306.83557599999665,
                    "velocity": 0.5196850393700787,
                    "duration": 0.7594940000000179
                },
                {
                    "name": "D4",
                    "midi": 62,
                    "time": 307.59506999999667,
                    "velocity": 0.4094488188976378,
                    "duration": 0.759493999999961
                },
                {
                    "name": "G4",
                    "midi": 67,
                    "time": 307.59506999999667,
                    "velocity": 0.4094488188976378,
                    "duration": 0.569620499999985
                },
                {
                    "name": "B4",
                    "midi": 71,
                    "time": 307.59506999999667,
                    "velocity": 0.4881889763779528,
                    "duration": 0.759493999999961
                },
                {
                    "name": "G#4",
                    "midi": 68,
                    "time": 308.16469049999665,
                    "velocity": 0.4015748031496063,
                    "duration": 0.18987349999997605
                },
                {
                    "name": "C4",
                    "midi": 60,
                    "time": 308.3545639999966,
                    "velocity": 0.44881889763779526,
                    "duration": 0.7594940000000179
                },
                {
                    "name": "G4",
                    "midi": 67,
                    "time": 308.3545639999966,
                    "velocity": 0.4645669291338583,
                    "duration": 0.7594940000000179
                },
                {
                    "name": "C5",
                    "midi": 72,
                    "time": 308.3545639999966,
                    "velocity": 0.5748031496062992,
                    "duration": 0.7594940000000179
                },
                {
                    "name": "F4",
                    "midi": 65,
                    "time": 309.11405799999665,
                    "velocity": 0.5039370078740157,
                    "duration": 0.759493999999961
                },
                {
                    "name": "B4",
                    "midi": 71,
                    "time": 309.11405799999665,
                    "velocity": 0.5039370078740157,
                    "duration": 0.759493999999961
                },
                {
                    "name": "D#5",
                    "midi": 75,
                    "time": 309.11405799999665,
                    "velocity": 0.5905511811023622,
                    "duration": 0.569620499999985
                },
                {
                    "name": "D5",
                    "midi": 74,
                    "time": 309.68367849999663,
                    "velocity": 0.4881889763779528,
                    "duration": 0.18987349999997605
                },
                {
                    "name": "D#4",
                    "midi": 63,
                    "time": 309.8735519999966,
                    "velocity": 0.48031496062992124,
                    "duration": 2.278481999999997
                },
                {
                    "name": "C5",
                    "midi": 72,
                    "time": 309.8735519999966,
                    "velocity": 0.5748031496062992,
                    "duration": 2.278481999999997
                },
                {
                    "name": "D5",
                    "midi": 74,
                    "time": 312.1520339999966,
                    "velocity": 0.3464566929133858,
                    "duration": 0.569620499999985
                },
                {
                    "name": "D#5",
                    "midi": 75,
                    "time": 312.7216544999966,
                    "velocity": 0.2992125984251969,
                    "duration": 0.18987349999997605
                },
                {
                    "name": "F5",
                    "midi": 77,
                    "time": 312.91152799999657,
                    "velocity": 0.4015748031496063,
                    "duration": 0.7594940000000179
                },
                {
                    "name": "F4",
                    "midi": 65,
                    "time": 313.6710219999966,
                    "velocity": 0.2755905511811024,
                    "duration": 0.7594940000000179
                },
                {
                    "name": "F5",
                    "midi": 77,
                    "time": 313.6710219999966,
                    "velocity": 0.33070866141732286,
                    "duration": 0.7594940000000179
                },
                {
                    "name": "G#4",
                    "midi": 68,
                    "time": 314.4305159999966,
                    "velocity": 0.2755905511811024,
                    "duration": 0.7594940000000179
                },
                {
                    "name": "F5",
                    "midi": 77,
                    "time": 314.4305159999966,
                    "velocity": 0.33070866141732286,
                    "duration": 0.7594940000000179
                },
                {
                    "name": "D#5",
                    "midi": 75,
                    "time": 315.1900099999966,
                    "velocity": 0.36220472440944884,
                    "duration": 0.569620499999985
                },
                {
                    "name": "D5",
                    "midi": 74,
                    "time": 315.7596304999966,
                    "velocity": 0.3700787401574803,
                    "duration": 0.18987349999997605
                },
                {
                    "name": "G5",
                    "midi": 79,
                    "time": 315.9495039999966,
                    "velocity": 0.41732283464566927,
                    "duration": 1.1392410000000268
                },
                {
                    "name": "G4",
                    "midi": 67,
                    "time": 316.7089979999966,
                    "velocity": 0.3937007874015748,
                    "duration": 0.569620499999985
                },
                {
                    "name": "F5",
                    "midi": 77,
                    "time": 317.0887449999966,
                    "velocity": 0.3464566929133858,
                    "duration": 0.3797469999999521
                },
                {
                    "name": "G#4",
                    "midi": 68,
                    "time": 317.2786184999966,
                    "velocity": 0.41732283464566927,
                    "duration": 0.18987349999997605
                },
                {
                    "name": "D#5",
                    "midi": 75,
                    "time": 317.46849199999656,
                    "velocity": 0.30708661417322836,
                    "duration": 0.7594940000000179
                },
                {
                    "name": "D5",
                    "midi": 74,
                    "time": 318.2279859999966,
                    "velocity": 0.3858267716535433,
                    "duration": 0.569620499999985
                },
                {
                    "name": "C5",
                    "midi": 72,
                    "time": 318.79760649999656,
                    "velocity": 0.33070866141732286,
                    "duration": 0.18987349999997605
                },
                {
                    "name": "B4",
                    "midi": 71,
                    "time": 318.98747999999654,
                    "velocity": 0.36220472440944884,
                    "duration": 0.7594940000000179
                },
                {
                    "name": "G#4",
                    "midi": 68,
                    "time": 319.74697399999656,
                    "velocity": 0.3228346456692913,
                    "duration": 0.37974700000000894
                },
                {
                    "name": "B4",
                    "midi": 71,
                    "time": 319.74697399999656,
                    "velocity": 0.3464566929133858,
                    "duration": 0.7594940000000179
                },
                {
                    "name": "G4",
                    "midi": 67,
                    "time": 320.12672099999656,
                    "velocity": 0.31496062992125984,
                    "duration": 0.37974700000000894
                },
                {
                    "name": "F4",
                    "midi": 65,
                    "time": 320.5064679999966,
                    "velocity": 0.3228346456692913,
                    "duration": 0.37974700000000894
                },
                {
                    "name": "C5",
                    "midi": 72,
                    "time": 320.5064679999966,
                    "velocity": 0.3779527559055118,
                    "duration": 0.7594940000000179
                },
                {
                    "name": "D#4",
                    "midi": 63,
                    "time": 320.8862149999966,
                    "velocity": 0.3228346456692913,
                    "duration": 0.37974700000000894
                },
                {
                    "name": "D4",
                    "midi": 62,
                    "time": 321.2659619999966,
                    "velocity": 0.3228346456692913,
                    "duration": 0.37974700000000894
                },
                {
                    "name": "F5",
                    "midi": 77,
                    "time": 321.2659619999966,
                    "velocity": 0.33858267716535434,
                    "duration": 0.569620499999985
                },
                {
                    "name": "C4",
                    "midi": 60,
                    "time": 321.6457089999966,
                    "velocity": 0.3228346456692913,
                    "duration": 0.3797469999999521
                },
                {
                    "name": "D#5",
                    "midi": 75,
                    "time": 321.8355824999966,
                    "velocity": 0.3464566929133858,
                    "duration": 0.18987349999997605
                },
                {
                    "name": "G#4",
                    "midi": 68,
                    "time": 322.02545599999655,
                    "velocity": 0.3228346456692913,
                    "duration": 0.18987349999997605
                },
                {
                    "name": "D5",
                    "midi": 74,
                    "time": 322.02545599999655,
                    "velocity": 0.4015748031496063,
                    "duration": 2.278481999999997
                },
                {
                    "name": "G4",
                    "midi": 67,
                    "time": 322.2153294999965,
                    "velocity": 0.3700787401574803,
                    "duration": 2.0886085000000207
                },
                {
                    "name": "D5",
                    "midi": 74,
                    "time": 324.30393799999655,
                    "velocity": 0.4881889763779528,
                    "duration": 0.569620499999985
                },
                {
                    "name": "D#5",
                    "midi": 75,
                    "time": 324.87355849999653,
                    "velocity": 0.47244094488188976,
                    "duration": 0.18987349999997605
                },
                {
                    "name": "F4",
                    "midi": 65,
                    "time": 325.0634319999965,
                    "velocity": 0.48031496062992124,
                    "duration": 0.7594940000000179
                },
                {
                    "name": "D5",
                    "midi": 74,
                    "time": 325.0634319999965,
                    "velocity": 0.48031496062992124,
                    "duration": 0.7594940000000179
                },
                {
                    "name": "F5",
                    "midi": 77,
                    "time": 325.0634319999965,
                    "velocity": 0.5748031496062992,
                    "duration": 0.7594940000000179
                },
                {
                    "name": "F4",
                    "midi": 65,
                    "time": 325.8229259999965,
                    "velocity": 0.3937007874015748,
                    "duration": 0.7594940000000179
                },
                {
                    "name": "D5",
                    "midi": 74,
                    "time": 325.8229259999965,
                    "velocity": 0.3937007874015748,
                    "duration": 0.7594940000000179
                },
                {
                    "name": "F5",
                    "midi": 77,
                    "time": 325.8229259999965,
                    "velocity": 0.47244094488188976,
                    "duration": 0.7594940000000179
                },
                {
                    "name": "F4",
                    "midi": 65,
                    "time": 326.58241999999655,
                    "velocity": 0.3937007874015748,
                    "duration": 0.7594940000000179
                },
                {
                    "name": "D5",
                    "midi": 74,
                    "time": 326.58241999999655,
                    "velocity": 0.3937007874015748,
                    "duration": 0.7594940000000179
                },
                {
                    "name": "F5",
                    "midi": 77,
                    "time": 326.58241999999655,
                    "velocity": 0.47244094488188976,
                    "duration": 0.7594940000000179
                },
                {
                    "name": "G4",
                    "midi": 67,
                    "time": 327.34191399999656,
                    "velocity": 0.49606299212598426,
                    "duration": 0.569620499999985
                },
                {
                    "name": "D#5",
                    "midi": 75,
                    "time": 327.34191399999656,
                    "velocity": 0.49606299212598426,
                    "duration": 0.569620499999985
                },
                {
                    "name": "G5",
                    "midi": 79,
                    "time": 327.34191399999656,
                    "velocity": 0.49606299212598426,
                    "duration": 0.569620499999985
                },
                {
                    "name": "G#4",
                    "midi": 68,
                    "time": 327.91153449999655,
                    "velocity": 0.4330708661417323,
                    "duration": 0.18987349999997605
                },
                {
                    "name": "F5",
                    "midi": 77,
                    "time": 327.91153449999655,
                    "velocity": 0.4330708661417323,
                    "duration": 0.18987349999997605
                },
                {
                    "name": "G#5",
                    "midi": 80,
                    "time": 327.91153449999655,
                    "velocity": 0.5275590551181102,
                    "duration": 0.18987349999997605
                },
                {
                    "name": "G5",
                    "midi": 79,
                    "time": 328.1014079999965,
                    "velocity": 0.5039370078740157,
                    "duration": 0.7594940000000179
                },
                {
                    "name": "A#4",
                    "midi": 70,
                    "time": 328.1014079999965,
                    "velocity": 0.5039370078740157,
                    "duration": 0.7594940000000179
                },
                {
                    "name": "A#5",
                    "midi": 82,
                    "time": 328.1014079999965,
                    "velocity": 0.5905511811023622,
                    "duration": 0.7594940000000179
                },
                {
                    "name": "G#4",
                    "midi": 68,
                    "time": 328.86090199999654,
                    "velocity": 0.5433070866141733,
                    "duration": 0.7594940000000179
                },
                {
                    "name": "G#5",
                    "midi": 80,
                    "time": 328.86090199999654,
                    "velocity": 0.5433070866141733,
                    "duration": 0.7594940000000179
                },
                {
                    "name": "D#5",
                    "midi": 75,
                    "time": 329.62039599999656,
                    "velocity": 0.5039370078740157,
                    "duration": 0.7594940000000179
                },
                {
                    "name": "G5",
                    "midi": 79,
                    "time": 329.62039599999656,
                    "velocity": 0.5984251968503937,
                    "duration": 0.7594940000000179
                },
                {
                    "name": "F4",
                    "midi": 65,
                    "time": 330.3798899999966,
                    "velocity": 0.4566929133858268,
                    "duration": 0.759493999999961
                },
                {
                    "name": "F5",
                    "midi": 77,
                    "time": 330.3798899999966,
                    "velocity": 0.5433070866141733,
                    "duration": 0.569620499999985
                },
                {
                    "name": "D5",
                    "midi": 74,
                    "time": 330.94951049999656,
                    "velocity": 0.47244094488188976,
                    "duration": 0.18987349999997605
                },
                {
                    "name": "D4",
                    "midi": 62,
                    "time": 331.13938399999654,
                    "velocity": 0.4330708661417323,
                    "duration": 0.7594940000000179
                },
                {
                    "name": "F4",
                    "midi": 65,
                    "time": 331.13938399999654,
                    "velocity": 0.4330708661417323,
                    "duration": 0.7594940000000179
                },
                {
                    "name": "B4",
                    "midi": 71,
                    "time": 331.13938399999654,
                    "velocity": 0.5196850393700787,
                    "duration": 0.7594940000000179
                },
                {
                    "name": "D4",
                    "midi": 62,
                    "time": 331.89887799999656,
                    "velocity": 0.4094488188976378,
                    "duration": 0.759493999999961
                },
                {
                    "name": "G4",
                    "midi": 67,
                    "time": 331.89887799999656,
                    "velocity": 0.4094488188976378,
                    "duration": 0.569620499999985
                },
                {
                    "name": "B4",
                    "midi": 71,
                    "time": 331.89887799999656,
                    "velocity": 0.4881889763779528,
                    "duration": 0.759493999999961
                },
                {
                    "name": "G#4",
                    "midi": 68,
                    "time": 332.46849849999654,
                    "velocity": 0.4015748031496063,
                    "duration": 0.18987349999997605
                },
                {
                    "name": "C4",
                    "midi": 60,
                    "time": 332.6583719999965,
                    "velocity": 0.44881889763779526,
                    "duration": 0.7594940000000179
                },
                {
                    "name": "G4",
                    "midi": 67,
                    "time": 332.6583719999965,
                    "velocity": 0.4645669291338583,
                    "duration": 0.7594940000000179
                },
                {
                    "name": "C5",
                    "midi": 72,
                    "time": 332.6583719999965,
                    "velocity": 0.5748031496062992,
                    "duration": 0.7594940000000179
                },
                {
                    "name": "F4",
                    "midi": 65,
                    "time": 333.41786599999654,
                    "velocity": 0.5039370078740157,
                    "duration": 0.759493999999961
                },
                {
                    "name": "B4",
                    "midi": 71,
                    "time": 333.41786599999654,
                    "velocity": 0.5039370078740157,
                    "duration": 0.759493999999961
                },
                {
                    "name": "D#5",
                    "midi": 75,
                    "time": 333.41786599999654,
                    "velocity": 0.5905511811023622,
                    "duration": 0.569620499999985
                },
                {
                    "name": "D5",
                    "midi": 74,
                    "time": 333.9874864999965,
                    "velocity": 0.4881889763779528,
                    "duration": 0.18987349999997605
                },
                {
                    "name": "D#4",
                    "midi": 63,
                    "time": 334.1773599999965,
                    "velocity": 0.5039370078740157,
                    "duration": 2.278481999999997
                },
                {
                    "name": "C5",
                    "midi": 72,
                    "time": 334.1773599999965,
                    "velocity": 0.5984251968503937,
                    "duration": 2.278481999999997
                },
                {
                    "name": "C4",
                    "midi": 60,
                    "time": 336.4558419999965,
                    "velocity": 0.5669291338582677,
                    "duration": 0.22784819999998263
                },
                {
                    "name": "C5",
                    "midi": 72,
                    "time": 336.4558419999965,
                    "velocity": 0.6771653543307087,
                    "duration": 0.22784819999998263
                },
                {
                    "name": "C4",
                    "midi": 60,
                    "time": 336.70900666666313,
                    "velocity": 0.5669291338582677,
                    "duration": 0.22784819999998263
                },
                {
                    "name": "C5",
                    "midi": 72,
                    "time": 336.70900666666313,
                    "velocity": 0.6771653543307087,
                    "duration": 0.22784819999998263
                },
                {
                    "name": "C4",
                    "midi": 60,
                    "time": 336.96217133332976,
                    "velocity": 0.5669291338582677,
                    "duration": 0.22784819999998263
                },
                {
                    "name": "C5",
                    "midi": 72,
                    "time": 336.96217133332976,
                    "velocity": 0.6771653543307087,
                    "duration": 0.22784819999998263
                },
                {
                    "name": "C6",
                    "midi": 84,
                    "time": 337.2153359999964,
                    "velocity": 0.7401574803149606,
                    "duration": 2.278481999999997
                },
                {
                    "name": "G#5",
                    "midi": 80,
                    "time": 337.2153359999964,
                    "velocity": 0.6220472440944882,
                    "duration": 2.278481999999997
                },
                {
                    "name": "D5",
                    "midi": 74,
                    "time": 337.2153359999964,
                    "velocity": 0.6220472440944882,
                    "duration": 2.278481999999997
                },
                {
                    "name": "C5",
                    "midi": 72,
                    "time": 337.2153359999964,
                    "velocity": 0.6220472440944882,
                    "duration": 2.278481999999997
                },
                {
                    "name": "C4",
                    "midi": 60,
                    "time": 339.4938179999964,
                    "velocity": 0.5590551181102362,
                    "duration": 0.22784819999998263
                },
                {
                    "name": "C5",
                    "midi": 72,
                    "time": 339.4938179999964,
                    "velocity": 0.6535433070866141,
                    "duration": 0.22784819999998263
                },
                {
                    "name": "C4",
                    "midi": 60,
                    "time": 339.74698266666303,
                    "velocity": 0.5590551181102362,
                    "duration": 0.22784819999998263
                },
                {
                    "name": "C5",
                    "midi": 72,
                    "time": 339.74698266666303,
                    "velocity": 0.6535433070866141,
                    "duration": 0.22784819999998263
                },
                {
                    "name": "C4",
                    "midi": 60,
                    "time": 340.00014733332966,
                    "velocity": 0.5590551181102362,
                    "duration": 0.22784819999998263
                },
                {
                    "name": "C5",
                    "midi": 72,
                    "time": 340.00014733332966,
                    "velocity": 0.6535433070866141,
                    "duration": 0.22784819999998263
                },
                {
                    "name": "C6",
                    "midi": 84,
                    "time": 340.2533119999963,
                    "velocity": 0.7480314960629921,
                    "duration": 2.278481999999997
                },
                {
                    "name": "G5",
                    "midi": 79,
                    "time": 340.2533119999963,
                    "velocity": 0.6299212598425197,
                    "duration": 2.278481999999997
                },
                {
                    "name": "D#5",
                    "midi": 75,
                    "time": 340.2533119999963,
                    "velocity": 0.6299212598425197,
                    "duration": 2.278481999999997
                },
                {
                    "name": "C5",
                    "midi": 72,
                    "time": 340.2533119999963,
                    "velocity": 0.6299212598425197,
                    "duration": 2.278481999999997
                },
                {
                    "name": "C4",
                    "midi": 60,
                    "time": 342.5317939999963,
                    "velocity": 0.5590551181102362,
                    "duration": 0.22784819999998263
                },
                {
                    "name": "C5",
                    "midi": 72,
                    "time": 342.5317939999963,
                    "velocity": 0.6535433070866141,
                    "duration": 0.22784819999998263
                },
                {
                    "name": "C4",
                    "midi": 60,
                    "time": 342.78495866666293,
                    "velocity": 0.5590551181102362,
                    "duration": 0.22784819999998263
                },
                {
                    "name": "C5",
                    "midi": 72,
                    "time": 342.78495866666293,
                    "velocity": 0.6535433070866141,
                    "duration": 0.22784819999998263
                },
                {
                    "name": "C4",
                    "midi": 60,
                    "time": 343.03812333332957,
                    "velocity": 0.5590551181102362,
                    "duration": 0.22784819999998263
                },
                {
                    "name": "C5",
                    "midi": 72,
                    "time": 343.03812333332957,
                    "velocity": 0.6535433070866141,
                    "duration": 0.22784819999998263
                },
                {
                    "name": "C#5",
                    "midi": 73,
                    "time": 343.2912879999962,
                    "velocity": 0.7086614173228346,
                    "duration": 0.7594940000000179
                },
                {
                    "name": "F4",
                    "midi": 65,
                    "time": 343.2912879999962,
                    "velocity": 0.6062992125984252,
                    "duration": 0.7594940000000179
                },
                {
                    "name": "C#4",
                    "midi": 61,
                    "time": 343.2912879999962,
                    "velocity": 0.6062992125984252,
                    "duration": 0.7594940000000179
                },
                {
                    "name": "F4",
                    "midi": 65,
                    "time": 344.0507819999962,
                    "velocity": 0.5826771653543307,
                    "duration": 0.569620499999985
                },
                {
                    "name": "F5",
                    "midi": 77,
                    "time": 344.0507819999962,
                    "velocity": 0.6929133858267716,
                    "duration": 0.569620499999985
                },
                {
                    "name": "G#4",
                    "midi": 68,
                    "time": 344.6204024999962,
                    "velocity": 0.5196850393700787,
                    "duration": 0.18987349999997605
                },
                {
                    "name": "G#5",
                    "midi": 80,
                    "time": 344.6204024999962,
                    "velocity": 0.6220472440944882,
                    "duration": 0.18987349999997605
                },
                {
                    "name": "G4",
                    "midi": 67,
                    "time": 344.8102759999962,
                    "velocity": 0.5905511811023622,
                    "duration": 0.7594940000000179
                },
                {
                    "name": "C5",
                    "midi": 72,
                    "time": 344.8102759999962,
                    "velocity": 0.5905511811023622,
                    "duration": 0.7594940000000179
                },
                {
                    "name": "D#5",
                    "midi": 75,
                    "time": 344.8102759999962,
                    "velocity": 0.5905511811023622,
                    "duration": 0.7594940000000179
                },
                {
                    "name": "G5",
                    "midi": 79,
                    "time": 344.8102759999962,
                    "velocity": 0.7007874015748031,
                    "duration": 0.7594940000000179
                },
                {
                    "name": "G4",
                    "midi": 67,
                    "time": 345.5697699999962,
                    "velocity": 0.5590551181102362,
                    "duration": 0.7594940000000179
                },
                {
                    "name": "B4",
                    "midi": 71,
                    "time": 345.5697699999962,
                    "velocity": 0.5590551181102362,
                    "duration": 0.7594940000000179
                },
                {
                    "name": "D5",
                    "midi": 74,
                    "time": 345.5697699999962,
                    "velocity": 0.5590551181102362,
                    "duration": 0.7594940000000179
                },
                {
                    "name": "G5",
                    "midi": 79,
                    "time": 345.5697699999962,
                    "velocity": 0.6535433070866141,
                    "duration": 0.7594940000000179
                },
                {
                    "name": "G4",
                    "midi": 67,
                    "time": 346.3292639999962,
                    "velocity": 0.5039370078740157,
                    "duration": 2.278481999999997
                },
                {
                    "name": "C4",
                    "midi": 60,
                    "time": 346.3292639999962,
                    "velocity": 0.5039370078740157,
                    "duration": 2.278481999999997
                },
                {
                    "name": "D#4",
                    "midi": 63,
                    "time": 346.3292639999962,
                    "velocity": 0.5039370078740157,
                    "duration": 2.278481999999997
                },
                {
                    "name": "C5",
                    "midi": 72,
                    "time": 346.3292639999962,
                    "velocity": 0.5984251968503937,
                    "duration": 2.278481999999997
                },
                {
                    "name": "C4",
                    "midi": 60,
                    "time": 348.6077459999962,
                    "velocity": 0.5669291338582677,
                    "duration": 0.22784819999998263
                },
                {
                    "name": "C5",
                    "midi": 72,
                    "time": 348.6077459999962,
                    "velocity": 0.6771653543307087,
                    "duration": 0.22784819999998263
                },
                {
                    "name": "C4",
                    "midi": 60,
                    "time": 348.86091066666285,
                    "velocity": 0.5669291338582677,
                    "duration": 0.22784819999998263
                },
                {
                    "name": "C5",
                    "midi": 72,
                    "time": 348.86091066666285,
                    "velocity": 0.6771653543307087,
                    "duration": 0.22784819999998263
                },
                {
                    "name": "C4",
                    "midi": 60,
                    "time": 349.1140753333295,
                    "velocity": 0.5669291338582677,
                    "duration": 0.22784819999998263
                },
                {
                    "name": "C5",
                    "midi": 72,
                    "time": 349.1140753333295,
                    "velocity": 0.6771653543307087,
                    "duration": 0.22784819999998263
                },
                {
                    "name": "C6",
                    "midi": 84,
                    "time": 349.3672399999961,
                    "velocity": 0.7401574803149606,
                    "duration": 2.278481999999997
                },
                {
                    "name": "D5",
                    "midi": 74,
                    "time": 349.3672399999961,
                    "velocity": 0.6220472440944882,
                    "duration": 2.278481999999997
                },
                {
                    "name": "C5",
                    "midi": 72,
                    "time": 349.3672399999961,
                    "velocity": 0.6220472440944882,
                    "duration": 2.278481999999997
                },
                {
                    "name": "C4",
                    "midi": 60,
                    "time": 351.6457219999961,
                    "velocity": 0.5590551181102362,
                    "duration": 0.22784819999998263
                },
                {
                    "name": "C5",
                    "midi": 72,
                    "time": 351.6457219999961,
                    "velocity": 0.6535433070866141,
                    "duration": 0.22784819999998263
                },
                {
                    "name": "C4",
                    "midi": 60,
                    "time": 351.89888666666275,
                    "velocity": 0.5590551181102362,
                    "duration": 0.22784819999998263
                },
                {
                    "name": "C5",
                    "midi": 72,
                    "time": 351.89888666666275,
                    "velocity": 0.6535433070866141,
                    "duration": 0.22784819999998263
                },
                {
                    "name": "C4",
                    "midi": 60,
                    "time": 352.1520513333294,
                    "velocity": 0.5590551181102362,
                    "duration": 0.22784819999998263
                },
                {
                    "name": "C5",
                    "midi": 72,
                    "time": 352.1520513333294,
                    "velocity": 0.6535433070866141,
                    "duration": 0.22784819999998263
                },
                {
                    "name": "C6",
                    "midi": 84,
                    "time": 352.405215999996,
                    "velocity": 0.7480314960629921,
                    "duration": 2.278481999999997
                },
                {
                    "name": "G5",
                    "midi": 79,
                    "time": 352.405215999996,
                    "velocity": 0.6299212598425197,
                    "duration": 2.278481999999997
                },
                {
                    "name": "C5",
                    "midi": 72,
                    "time": 352.405215999996,
                    "velocity": 0.6299212598425197,
                    "duration": 2.278481999999997
                },
                {
                    "name": "C4",
                    "midi": 60,
                    "time": 354.683697999996,
                    "velocity": 0.5590551181102362,
                    "duration": 0.22784819999998263
                },
                {
                    "name": "C5",
                    "midi": 72,
                    "time": 354.683697999996,
                    "velocity": 0.6535433070866141,
                    "duration": 0.22784819999998263
                },
                {
                    "name": "C4",
                    "midi": 60,
                    "time": 354.93686266666265,
                    "velocity": 0.5590551181102362,
                    "duration": 0.22784819999998263
                },
                {
                    "name": "C5",
                    "midi": 72,
                    "time": 354.93686266666265,
                    "velocity": 0.6535433070866141,
                    "duration": 0.22784819999998263
                },
                {
                    "name": "C4",
                    "midi": 60,
                    "time": 355.1900273333293,
                    "velocity": 0.5590551181102362,
                    "duration": 0.22784819999998263
                },
                {
                    "name": "C5",
                    "midi": 72,
                    "time": 355.1900273333293,
                    "velocity": 0.6535433070866141,
                    "duration": 0.22784819999998263
                },
                {
                    "name": "C#5",
                    "midi": 73,
                    "time": 355.4431919999959,
                    "velocity": 0.7086614173228346,
                    "duration": 0.7594940000000179
                },
                {
                    "name": "F4",
                    "midi": 65,
                    "time": 355.4431919999959,
                    "velocity": 0.6062992125984252,
                    "duration": 0.7594940000000179
                },
                {
                    "name": "C#4",
                    "midi": 61,
                    "time": 355.4431919999959,
                    "velocity": 0.6062992125984252,
                    "duration": 0.7594940000000179
                },
                {
                    "name": "F4",
                    "midi": 65,
                    "time": 356.20268599999594,
                    "velocity": 0.5826771653543307,
                    "duration": 0.569620499999985
                },
                {
                    "name": "F5",
                    "midi": 77,
                    "time": 356.20268599999594,
                    "velocity": 0.6929133858267716,
                    "duration": 0.569620499999985
                },
                {
                    "name": "G#4",
                    "midi": 68,
                    "time": 356.7723064999959,
                    "velocity": 0.5196850393700787,
                    "duration": 0.18987349999997605
                },
                {
                    "name": "G#5",
                    "midi": 80,
                    "time": 356.7723064999959,
                    "velocity": 0.6220472440944882,
                    "duration": 0.18987349999997605
                },
                {
                    "name": "G4",
                    "midi": 67,
                    "time": 356.9621799999959,
                    "velocity": 0.5905511811023622,
                    "duration": 0.7594940000000179
                },
                {
                    "name": "C5",
                    "midi": 72,
                    "time": 356.9621799999959,
                    "velocity": 0.5905511811023622,
                    "duration": 0.7594940000000179
                },
                {
                    "name": "D#5",
                    "midi": 75,
                    "time": 356.9621799999959,
                    "velocity": 0.5905511811023622,
                    "duration": 0.7594940000000179
                },
                {
                    "name": "G5",
                    "midi": 79,
                    "time": 356.9621799999959,
                    "velocity": 0.7007874015748031,
                    "duration": 0.7594940000000179
                },
                {
                    "name": "G4",
                    "midi": 67,
                    "time": 357.7216739999959,
                    "velocity": 0.5590551181102362,
                    "duration": 0.7594940000000179
                },
                {
                    "name": "B4",
                    "midi": 71,
                    "time": 357.7216739999959,
                    "velocity": 0.5590551181102362,
                    "duration": 0.7594940000000179
                },
                {
                    "name": "D5",
                    "midi": 74,
                    "time": 357.7216739999959,
                    "velocity": 0.5590551181102362,
                    "duration": 0.7594940000000179
                },
                {
                    "name": "G5",
                    "midi": 79,
                    "time": 357.7216739999959,
                    "velocity": 0.6535433070866141,
                    "duration": 0.7594940000000179
                },
                {
                    "name": "G4",
                    "midi": 67,
                    "time": 358.48116799999593,
                    "velocity": 0.5039370078740157,
                    "duration": 2.278481999999997
                },
                {
                    "name": "C4",
                    "midi": 60,
                    "time": 358.48116799999593,
                    "velocity": 0.5039370078740157,
                    "duration": 2.278481999999997
                },
                {
                    "name": "D#4",
                    "midi": 63,
                    "time": 358.48116799999593,
                    "velocity": 0.5039370078740157,
                    "duration": 2.278481999999997
                },
                {
                    "name": "C5",
                    "midi": 72,
                    "time": 358.48116799999593,
                    "velocity": 0.5984251968503937,
                    "duration": 2.278481999999997
                },
                {
                    "name": "C4",
                    "midi": 60,
                    "time": 360.75964999999593,
                    "velocity": 0.5354330708661418,
                    "duration": 0.18987349999997605
                },
                {
                    "name": "C5",
                    "midi": 72,
                    "time": 360.75964999999593,
                    "velocity": 0.44881889763779526,
                    "duration": 0.18987349999997605
                },
                {
                    "name": "C4",
                    "midi": 60,
                    "time": 361.01281466666256,
                    "velocity": 0.49606299212598426,
                    "duration": 0.18987349999997605
                },
                {
                    "name": "C5",
                    "midi": 72,
                    "time": 361.01281466666256,
                    "velocity": 0.41732283464566927,
                    "duration": 0.18987349999997605
                },
                {
                    "name": "C4",
                    "midi": 60,
                    "time": 361.2659793333292,
                    "velocity": 0.49606299212598426,
                    "duration": 0.18987349999997605
                },
                {
                    "name": "C5",
                    "midi": 72,
                    "time": 361.2659793333292,
                    "velocity": 0.41732283464566927,
                    "duration": 0.18987349999997605
                },
                {
                    "name": "C#4",
                    "midi": 61,
                    "time": 361.51914399999583,
                    "velocity": 0.4881889763779528,
                    "duration": 0.18987349999997605
                },
                {
                    "name": "C5",
                    "midi": 72,
                    "time": 361.51914399999583,
                    "velocity": 0.4094488188976378,
                    "duration": 0.18987349999997605
                },
                {
                    "name": "C5",
                    "midi": 72,
                    "time": 361.77230866666247,
                    "velocity": 0.36220472440944884,
                    "duration": 0.18987349999997605
                },
                {
                    "name": "C#4",
                    "midi": 61,
                    "time": 361.77230866666247,
                    "velocity": 0.4330708661417323,
                    "duration": 0.18987349999997605
                },
                {
                    "name": "C#4",
                    "midi": 61,
                    "time": 362.0254733333291,
                    "velocity": 0.4330708661417323,
                    "duration": 0.18987349999997605
                },
                {
                    "name": "C5",
                    "midi": 72,
                    "time": 362.0254733333291,
                    "velocity": 0.36220472440944884,
                    "duration": 0.18987349999997605
                },
                {
                    "name": "D4",
                    "midi": 62,
                    "time": 362.27863799999574,
                    "velocity": 0.4566929133858268,
                    "duration": 0.18987349999997605
                },
                {
                    "name": "C5",
                    "midi": 72,
                    "time": 362.27863799999574,
                    "velocity": 0.3858267716535433,
                    "duration": 0.18987349999997605
                },
                {
                    "name": "C5",
                    "midi": 72,
                    "time": 362.5318026666624,
                    "velocity": 0.33070866141732286,
                    "duration": 0.18987349999997605
                },
                {
                    "name": "D4",
                    "midi": 62,
                    "time": 362.5318026666624,
                    "velocity": 0.3937007874015748,
                    "duration": 0.18987349999997605
                },
                {
                    "name": "D4",
                    "midi": 62,
                    "time": 362.784967333329,
                    "velocity": 0.3937007874015748,
                    "duration": 0.18987349999997605
                },
                {
                    "name": "C5",
                    "midi": 72,
                    "time": 362.784967333329,
                    "velocity": 0.33070866141732286,
                    "duration": 0.18987349999997605
                },
                {
                    "name": "C5",
                    "midi": 72,
                    "time": 363.03813199999564,
                    "velocity": 0.36220472440944884,
                    "duration": 0.18987349999997605
                },
                {
                    "name": "D#4",
                    "midi": 63,
                    "time": 363.03813199999564,
                    "velocity": 0.4330708661417323,
                    "duration": 0.18987349999997605
                },
                {
                    "name": "C5",
                    "midi": 72,
                    "time": 363.2912966666623,
                    "velocity": 0.33070866141732286,
                    "duration": 0.18987349999997605
                },
                {
                    "name": "D#4",
                    "midi": 63,
                    "time": 363.2912966666623,
                    "velocity": 0.3937007874015748,
                    "duration": 0.18987349999997605
                },
                {
                    "name": "D#4",
                    "midi": 63,
                    "time": 363.5444613333289,
                    "velocity": 0.4251968503937008,
                    "duration": 0.18987349999997605
                },
                {
                    "name": "C5",
                    "midi": 72,
                    "time": 363.5444613333289,
                    "velocity": 0.3543307086614173,
                    "duration": 0.18987349999997605
                },
                {
                    "name": "E4",
                    "midi": 64,
                    "time": 363.79762599999555,
                    "velocity": 0.4251968503937008,
                    "duration": 0.18987349999997605
                },
                {
                    "name": "C5",
                    "midi": 72,
                    "time": 363.79762599999555,
                    "velocity": 0.3858267716535433,
                    "duration": 0.18987349999997605
                },
                {
                    "name": "C5",
                    "midi": 72,
                    "time": 364.0507906666622,
                    "velocity": 0.29133858267716534,
                    "duration": 0.18987349999997605
                },
                {
                    "name": "E4",
                    "midi": 64,
                    "time": 364.0507906666622,
                    "velocity": 0.3464566929133858,
                    "duration": 0.18987349999997605
                },
                {
                    "name": "C5",
                    "midi": 72,
                    "time": 364.3039553333288,
                    "velocity": 0.29133858267716534,
                    "duration": 0.18987349999997605
                },
                {
                    "name": "E4",
                    "midi": 64,
                    "time": 364.3039553333288,
                    "velocity": 0.3464566929133858,
                    "duration": 0.18987349999997605
                },
                {
                    "name": "E4",
                    "midi": 64,
                    "time": 364.55711999999545,
                    "velocity": 0.3700787401574803,
                    "duration": 0.18987349999997605
                },
                {
                    "name": "C5",
                    "midi": 72,
                    "time": 364.55711999999545,
                    "velocity": 0.30708661417322836,
                    "duration": 0.18987349999997605
                },
                {
                    "name": "E4",
                    "midi": 64,
                    "time": 364.8102846666621,
                    "velocity": 0.29133858267716534,
                    "duration": 0.18987349999997605
                },
                {
                    "name": "C5",
                    "midi": 72,
                    "time": 364.8102846666621,
                    "velocity": 0.2440944881889764,
                    "duration": 0.18987349999997605
                },
                {
                    "name": "E4",
                    "midi": 64,
                    "time": 365.0634493333287,
                    "velocity": 0.29133858267716534,
                    "duration": 0.18987349999997605
                },
                {
                    "name": "C5",
                    "midi": 72,
                    "time": 365.0634493333287,
                    "velocity": 0.2440944881889764,
                    "duration": 0.18987349999997605
                },
                {
                    "name": "E4",
                    "midi": 64,
                    "time": 365.31661399999535,
                    "velocity": 0.36220472440944884,
                    "duration": 0.18987349999997605
                },
                {
                    "name": "C5",
                    "midi": 72,
                    "time": 365.31661399999535,
                    "velocity": 0.2992125984251969,
                    "duration": 0.18987349999997605
                },
                {
                    "name": "E4",
                    "midi": 64,
                    "time": 365.569778666662,
                    "velocity": 0.29133858267716534,
                    "duration": 0.18987349999997605
                },
                {
                    "name": "C5",
                    "midi": 72,
                    "time": 365.569778666662,
                    "velocity": 0.23622047244094488,
                    "duration": 0.18987349999997605
                },
                {
                    "name": "E4",
                    "midi": 64,
                    "time": 365.8229433333286,
                    "velocity": 0.28346456692913385,
                    "duration": 0.18987349999997605
                },
                {
                    "name": "C5",
                    "midi": 72,
                    "time": 365.8229433333286,
                    "velocity": 0.23622047244094488,
                    "duration": 0.18987349999997605
                },
                {
                    "name": "F4",
                    "midi": 65,
                    "time": 366.07610799999526,
                    "velocity": 0.3543307086614173,
                    "duration": 0.18987349999997605
                },
                {
                    "name": "C5",
                    "midi": 72,
                    "time": 366.07610799999526,
                    "velocity": 0.2992125984251969,
                    "duration": 0.18987349999997605
                },
                {
                    "name": "F4",
                    "midi": 65,
                    "time": 366.3292726666619,
                    "velocity": 0.28346456692913385,
                    "duration": 0.18987349999997605
                },
                {
                    "name": "C5",
                    "midi": 72,
                    "time": 366.3292726666619,
                    "velocity": 0.2283464566929134,
                    "duration": 0.18987349999997605
                },
                {
                    "name": "F4",
                    "midi": 65,
                    "time": 366.5824373333285,
                    "velocity": 0.2755905511811024,
                    "duration": 0.18987349999997605
                },
                {
                    "name": "C5",
                    "midi": 72,
                    "time": 366.5824373333285,
                    "velocity": 0.2283464566929134,
                    "duration": 0.18987349999997605
                },
                {
                    "name": "D#4",
                    "midi": 63,
                    "time": 366.83560199999516,
                    "velocity": 0.2440944881889764,
                    "duration": 0.18987349999997605
                },
                {
                    "name": "F#4",
                    "midi": 66,
                    "time": 366.83560199999516,
                    "velocity": 0.2440944881889764,
                    "duration": 0.18987349999997605
                },
                {
                    "name": "C5",
                    "midi": 72,
                    "time": 366.83560199999516,
                    "velocity": 0.29133858267716534,
                    "duration": 0.18987349999997605
                },
                {
                    "name": "D#4",
                    "midi": 63,
                    "time": 367.0887666666618,
                    "velocity": 0.2047244094488189,
                    "duration": 0.18987349999997605
                },
                {
                    "name": "F#4",
                    "midi": 66,
                    "time": 367.0887666666618,
                    "velocity": 0.2047244094488189,
                    "duration": 0.18987349999997605
                },
                {
                    "name": "C5",
                    "midi": 72,
                    "time": 367.0887666666618,
                    "velocity": 0.2440944881889764,
                    "duration": 0.18987349999997605
                },
                {
                    "name": "D#4",
                    "midi": 63,
                    "time": 367.34193133332843,
                    "velocity": 0.2047244094488189,
                    "duration": 0.18987349999997605
                },
                {
                    "name": "F#4",
                    "midi": 66,
                    "time": 367.34193133332843,
                    "velocity": 0.2047244094488189,
                    "duration": 0.18987349999997605
                },
                {
                    "name": "C5",
                    "midi": 72,
                    "time": 367.34193133332843,
                    "velocity": 0.2440944881889764,
                    "duration": 0.18987349999997605
                },
                {
                    "name": "D#4",
                    "midi": 63,
                    "time": 367.59509599999507,
                    "velocity": 0.2440944881889764,
                    "duration": 0.18987349999997605
                },
                {
                    "name": "F#4",
                    "midi": 66,
                    "time": 367.59509599999507,
                    "velocity": 0.2440944881889764,
                    "duration": 0.18987349999997605
                },
                {
                    "name": "C5",
                    "midi": 72,
                    "time": 367.59509599999507,
                    "velocity": 0.29133858267716534,
                    "duration": 0.18987349999997605
                },
                {
                    "name": "D4",
                    "midi": 62,
                    "time": 367.8482606666617,
                    "velocity": 0.2125984251968504,
                    "duration": 0.18987349999997605
                },
                {
                    "name": "F#4",
                    "midi": 66,
                    "time": 367.8482606666617,
                    "velocity": 0.2125984251968504,
                    "duration": 0.18987349999997605
                },
                {
                    "name": "C5",
                    "midi": 72,
                    "time": 367.8482606666617,
                    "velocity": 0.25196850393700787,
                    "duration": 0.18987349999997605
                },
                {
                    "name": "D4",
                    "midi": 62,
                    "time": 368.10142533332834,
                    "velocity": 0.2125984251968504,
                    "duration": 0.18987349999997605
                },
                {
                    "name": "F#4",
                    "midi": 66,
                    "time": 368.10142533332834,
                    "velocity": 0.2125984251968504,
                    "duration": 0.18987349999997605
                },
                {
                    "name": "C5",
                    "midi": 72,
                    "time": 368.10142533332834,
                    "velocity": 0.25196850393700787,
                    "duration": 0.18987349999997605
                },
                {
                    "name": "D4",
                    "midi": 62,
                    "time": 368.35458999999497,
                    "velocity": 0.2440944881889764,
                    "duration": 0.18987349999997605
                },
                {
                    "name": "F#4",
                    "midi": 66,
                    "time": 368.35458999999497,
                    "velocity": 0.2440944881889764,
                    "duration": 0.18987349999997605
                },
                {
                    "name": "C5",
                    "midi": 72,
                    "time": 368.35458999999497,
                    "velocity": 0.29133858267716534,
                    "duration": 0.18987349999997605
                },
                {
                    "name": "D4",
                    "midi": 62,
                    "time": 368.6077546666616,
                    "velocity": 0.2047244094488189,
                    "duration": 0.18987349999997605
                },
                {
                    "name": "F#4",
                    "midi": 66,
                    "time": 368.6077546666616,
                    "velocity": 0.2047244094488189,
                    "duration": 0.18987349999997605
                },
                {
                    "name": "C5",
                    "midi": 72,
                    "time": 368.6077546666616,
                    "velocity": 0.2440944881889764,
                    "duration": 0.18987349999997605
                },
                {
                    "name": "D4",
                    "midi": 62,
                    "time": 368.86091933332824,
                    "velocity": 0.2047244094488189,
                    "duration": 0.18987349999997605
                },
                {
                    "name": "F#4",
                    "midi": 66,
                    "time": 368.86091933332824,
                    "velocity": 0.2047244094488189,
                    "duration": 0.18987349999997605
                },
                {
                    "name": "C5",
                    "midi": 72,
                    "time": 368.86091933332824,
                    "velocity": 0.2440944881889764,
                    "duration": 0.18987349999997605
                },
                {
                    "name": "D4",
                    "midi": 62,
                    "time": 369.1140839999949,
                    "velocity": 0.2440944881889764,
                    "duration": 0.18987349999997605
                },
                {
                    "name": "G4",
                    "midi": 67,
                    "time": 369.1140839999949,
                    "velocity": 0.2440944881889764,
                    "duration": 0.18987349999997605
                },
                {
                    "name": "C5",
                    "midi": 72,
                    "time": 369.1140839999949,
                    "velocity": 0.29133858267716534,
                    "duration": 0.18987349999997605
                },
                {
                    "name": "D4",
                    "midi": 62,
                    "time": 369.3672486666615,
                    "velocity": 0.2125984251968504,
                    "duration": 0.18987349999997605
                },
                {
                    "name": "G4",
                    "midi": 67,
                    "time": 369.3672486666615,
                    "velocity": 0.2125984251968504,
                    "duration": 0.18987349999997605
                },
                {
                    "name": "C5",
                    "midi": 72,
                    "time": 369.3672486666615,
                    "velocity": 0.25196850393700787,
                    "duration": 0.18987349999997605
                },
                {
                    "name": "D4",
                    "midi": 62,
                    "time": 369.62041333332814,
                    "velocity": 0.2125984251968504,
                    "duration": 0.18987349999997605
                },
                {
                    "name": "G4",
                    "midi": 67,
                    "time": 369.62041333332814,
                    "velocity": 0.2125984251968504,
                    "duration": 0.18987349999997605
                },
                {
                    "name": "C5",
                    "midi": 72,
                    "time": 369.62041333332814,
                    "velocity": 0.25196850393700787,
                    "duration": 0.18987349999997605
                },
                {
                    "name": "D4",
                    "midi": 62,
                    "time": 369.8735779999948,
                    "velocity": 0.2440944881889764,
                    "duration": 0.18987349999997605
                },
                {
                    "name": "G4",
                    "midi": 67,
                    "time": 369.8735779999948,
                    "velocity": 0.2440944881889764,
                    "duration": 0.18987349999997605
                },
                {
                    "name": "A#4",
                    "midi": 70,
                    "time": 369.8735779999948,
                    "velocity": 0.29133858267716534,
                    "duration": 0.18987349999997605
                },
                {
                    "name": "D4",
                    "midi": 62,
                    "time": 370.1267426666614,
                    "velocity": 0.2125984251968504,
                    "duration": 0.18987349999997605
                },
                {
                    "name": "G4",
                    "midi": 67,
                    "time": 370.1267426666614,
                    "velocity": 0.2125984251968504,
                    "duration": 0.18987349999997605
                },
                {
                    "name": "A#4",
                    "midi": 70,
                    "time": 370.1267426666614,
                    "velocity": 0.25196850393700787,
                    "duration": 0.18987349999997605
                },
                {
                    "name": "D4",
                    "midi": 62,
                    "time": 370.37990733332805,
                    "velocity": 0.2125984251968504,
                    "duration": 0.18987349999997605
                },
                {
                    "name": "G4",
                    "midi": 67,
                    "time": 370.37990733332805,
                    "velocity": 0.2125984251968504,
                    "duration": 0.18987349999997605
                },
                {
                    "name": "A#4",
                    "midi": 70,
                    "time": 370.37990733332805,
                    "velocity": 0.25196850393700787,
                    "duration": 0.18987349999997605
                },
                {
                    "name": "C4",
                    "midi": 60,
                    "time": 370.6330719999947,
                    "velocity": 0.2440944881889764,
                    "duration": 0.18987349999997605
                },
                {
                    "name": "D#4",
                    "midi": 63,
                    "time": 370.6330719999947,
                    "velocity": 0.2440944881889764,
                    "duration": 0.18987349999997605
                },
                {
                    "name": "A#4",
                    "midi": 70,
                    "time": 370.6330719999947,
                    "velocity": 0.29133858267716534,
                    "duration": 0.18987349999997605
                },
                {
                    "name": "C4",
                    "midi": 60,
                    "time": 370.8862366666613,
                    "velocity": 0.2047244094488189,
                    "duration": 0.18987349999997605
                },
                {
                    "name": "D#4",
                    "midi": 63,
                    "time": 370.8862366666613,
                    "velocity": 0.2047244094488189,
                    "duration": 0.18987349999997605
                },
                {
                    "name": "A#4",
                    "midi": 70,
                    "time": 370.8862366666613,
                    "velocity": 0.2440944881889764,
                    "duration": 0.18987349999997605
                },
                {
                    "name": "C4",
                    "midi": 60,
                    "time": 371.13940133332795,
                    "velocity": 0.2047244094488189,
                    "duration": 0.18987349999997605
                },
                {
                    "name": "D#4",
                    "midi": 63,
                    "time": 371.13940133332795,
                    "velocity": 0.2047244094488189,
                    "duration": 0.18987349999997605
                },
                {
                    "name": "A#4",
                    "midi": 70,
                    "time": 371.13940133332795,
                    "velocity": 0.2440944881889764,
                    "duration": 0.18987349999997605
                },
                {
                    "name": "C4",
                    "midi": 60,
                    "time": 371.3925659999946,
                    "velocity": 0.2440944881889764,
                    "duration": 0.18987349999997605
                },
                {
                    "name": "D#4",
                    "midi": 63,
                    "time": 371.3925659999946,
                    "velocity": 0.2440944881889764,
                    "duration": 0.18987349999997605
                },
                {
                    "name": "A4",
                    "midi": 69,
                    "time": 371.3925659999946,
                    "velocity": 0.29133858267716534,
                    "duration": 0.18987349999997605
                },
                {
                    "name": "C4",
                    "midi": 60,
                    "time": 371.6457306666612,
                    "velocity": 0.2125984251968504,
                    "duration": 0.18987349999997605
                },
                {
                    "name": "D#4",
                    "midi": 63,
                    "time": 371.6457306666612,
                    "velocity": 0.2125984251968504,
                    "duration": 0.18987349999997605
                },
                {
                    "name": "A4",
                    "midi": 69,
                    "time": 371.6457306666612,
                    "velocity": 0.25196850393700787,
                    "duration": 0.18987349999997605
                },
                {
                    "name": "C4",
                    "midi": 60,
                    "time": 371.89889533332786,
                    "velocity": 0.2125984251968504,
                    "duration": 0.18987349999997605
                },
                {
                    "name": "D#4",
                    "midi": 63,
                    "time": 371.89889533332786,
                    "velocity": 0.2125984251968504,
                    "duration": 0.18987349999997605
                },
                {
                    "name": "A4",
                    "midi": 69,
                    "time": 371.89889533332786,
                    "velocity": 0.25196850393700787,
                    "duration": 0.18987349999997605
                },
                {
                    "name": "A#3",
                    "midi": 58,
                    "time": 372.1520599999945,
                    "velocity": 0.2440944881889764,
                    "duration": 0.18987349999997605
                },
                {
                    "name": "D4",
                    "midi": 62,
                    "time": 372.1520599999945,
                    "velocity": 0.2440944881889764,
                    "duration": 0.18987349999997605
                },
                {
                    "name": "G4",
                    "midi": 67,
                    "time": 372.1520599999945,
                    "velocity": 0.29133858267716534,
                    "duration": 0.18987349999997605
                },
                {
                    "name": "A#3",
                    "midi": 58,
                    "time": 372.4052246666611,
                    "velocity": 0.2047244094488189,
                    "duration": 0.18987349999997605
                },
                {
                    "name": "D4",
                    "midi": 62,
                    "time": 372.4052246666611,
                    "velocity": 0.2047244094488189,
                    "duration": 0.18987349999997605
                },
                {
                    "name": "G4",
                    "midi": 67,
                    "time": 372.4052246666611,
                    "velocity": 0.2440944881889764,
                    "duration": 0.18987349999997605
                },
                {
                    "name": "A#3",
                    "midi": 58,
                    "time": 372.65838933332776,
                    "velocity": 0.2047244094488189,
                    "duration": 0.18987349999997605
                },
                {
                    "name": "D4",
                    "midi": 62,
                    "time": 372.65838933332776,
                    "velocity": 0.2047244094488189,
                    "duration": 0.18987349999997605
                },
                {
                    "name": "G4",
                    "midi": 67,
                    "time": 372.65838933332776,
                    "velocity": 0.2440944881889764,
                    "duration": 0.18987349999997605
                },
                {
                    "name": "A3",
                    "midi": 57,
                    "time": 372.9115539999944,
                    "velocity": 0.2440944881889764,
                    "duration": 0.18987349999997605
                },
                {
                    "name": "D4",
                    "midi": 62,
                    "time": 372.9115539999944,
                    "velocity": 0.2440944881889764,
                    "duration": 0.18987349999997605
                },
                {
                    "name": "F#4",
                    "midi": 66,
                    "time": 372.9115539999944,
                    "velocity": 0.29133858267716534,
                    "duration": 0.18987349999997605
                },
                {
                    "name": "A3",
                    "midi": 57,
                    "time": 373.16471866666103,
                    "velocity": 0.2125984251968504,
                    "duration": 0.18987349999997605
                },
                {
                    "name": "D4",
                    "midi": 62,
                    "time": 373.16471866666103,
                    "velocity": 0.2125984251968504,
                    "duration": 0.18987349999997605
                },
                {
                    "name": "F#4",
                    "midi": 66,
                    "time": 373.16471866666103,
                    "velocity": 0.25196850393700787,
                    "duration": 0.18987349999997605
                },
                {
                    "name": "A3",
                    "midi": 57,
                    "time": 373.41788333332767,
                    "velocity": 0.2125984251968504,
                    "duration": 0.18987349999997605
                },
                {
                    "name": "D4",
                    "midi": 62,
                    "time": 373.41788333332767,
                    "velocity": 0.2125984251968504,
                    "duration": 0.18987349999997605
                },
                {
                    "name": "F#4",
                    "midi": 66,
                    "time": 373.41788333332767,
                    "velocity": 0.25196850393700787,
                    "duration": 0.18987349999997605
                },
                {
                    "name": "A#3",
                    "midi": 58,
                    "time": 373.6710479999943,
                    "velocity": 0.2440944881889764,
                    "duration": 1.518987999999979
                },
                {
                    "name": "D4",
                    "midi": 62,
                    "time": 373.6710479999943,
                    "velocity": 0.2440944881889764,
                    "duration": 1.518987999999979
                },
                {
                    "name": "G4",
                    "midi": 67,
                    "time": 373.6710479999943,
                    "velocity": 0.29133858267716534,
                    "duration": 1.518987999999979
                },
                {
                    "name": "G4",
                    "midi": 67,
                    "time": 375.9495299999943,
                    "velocity": 0.30708661417322836,
                    "duration": 0.569620499999985
                },
                {
                    "name": "A#4",
                    "midi": 70,
                    "time": 376.5191504999943,
                    "velocity": 0.30708661417322836,
                    "duration": 0.18987349999997605
                },
                {
                    "name": "D5",
                    "midi": 74,
                    "time": 376.70902399999426,
                    "velocity": 0.3464566929133858,
                    "duration": 0.7594939999999042
                },
                {
                    "name": "D4",
                    "midi": 62,
                    "time": 376.89889749999423,
                    "velocity": 0.2283464566929134,
                    "duration": 0.20886084999995091
                },
                {
                    "name": "G4",
                    "midi": 67,
                    "time": 377.0887709999942,
                    "velocity": 0.23622047244094488,
                    "duration": 0.20886084999995091
                },
                {
                    "name": "A#4",
                    "midi": 70,
                    "time": 377.2786444999942,
                    "velocity": 0.2204724409448819,
                    "duration": 0.18987349999997605
                },
                {
                    "name": "D5",
                    "midi": 74,
                    "time": 377.46851799999416,
                    "velocity": 0.31496062992125984,
                    "duration": 0.7594939999999042
                },
                {
                    "name": "D4",
                    "midi": 62,
                    "time": 377.65839149999414,
                    "velocity": 0.2204724409448819,
                    "duration": 0.20886084999995091
                },
                {
                    "name": "G4",
                    "midi": 67,
                    "time": 377.8482649999941,
                    "velocity": 0.23622047244094488,
                    "duration": 0.20886084999995091
                },
                {
                    "name": "A#4",
                    "midi": 70,
                    "time": 378.0381384999941,
                    "velocity": 0.2204724409448819,
                    "duration": 0.18987349999997605
                },
                {
                    "name": "D5",
                    "midi": 74,
                    "time": 378.22801199999407,
                    "velocity": 0.3543307086614173,
                    "duration": 0.7594939999999042
                },
                {
                    "name": "D4",
                    "midi": 62,
                    "time": 378.41788549999404,
                    "velocity": 0.2125984251968504,
                    "duration": 0.20886084999995091
                },
                {
                    "name": "F#4",
                    "midi": 66,
                    "time": 378.607758999994,
                    "velocity": 0.23622047244094488,
                    "duration": 0.20886084999995091
                },
                {
                    "name": "A4",
                    "midi": 69,
                    "time": 378.797632499994,
                    "velocity": 0.2204724409448819,
                    "duration": 0.18987349999997605
                },
                {
                    "name": "D5",
                    "midi": 74,
                    "time": 378.98750599999397,
                    "velocity": 0.36220472440944884,
                    "duration": 0.7594939999999042
                },
                {
                    "name": "D4",
                    "midi": 62,
                    "time": 379.17737949999395,
                    "velocity": 0.2125984251968504,
                    "duration": 0.20886084999995091
                },
                {
                    "name": "G4",
                    "midi": 67,
                    "time": 379.3672529999939,
                    "velocity": 0.23622047244094488,
                    "duration": 0.20886084999995091
                },
                {
                    "name": "A#4",
                    "midi": 70,
                    "time": 379.5571264999939,
                    "velocity": 0.2047244094488189,
                    "duration": 0.18987349999997605
                },
                {
                    "name": "D#5",
                    "midi": 75,
                    "time": 379.7469999999939,
                    "velocity": 0.4015748031496063,
                    "duration": 1.5189879999998084
                },
                {
                    "name": "D#4",
                    "midi": 63,
                    "time": 379.93687349999385,
                    "velocity": 0.2440944881889764,
                    "duration": 0.20886084999995091
                },
                {
                    "name": "G4",
                    "midi": 67,
                    "time": 380.1267469999938,
                    "velocity": 0.25984251968503935,
                    "duration": 0.20886084999995091
                },
                {
                    "name": "C5",
                    "midi": 72,
                    "time": 380.3166204999938,
                    "velocity": 0.2440944881889764,
                    "duration": 0.20886084999995091
                },
                {
                    "name": "F#4",
                    "midi": 66,
                    "time": 380.5064939999938,
                    "velocity": 0.28346456692913385,
                    "duration": 0.20886084999995091
                },
                {
                    "name": "C5",
                    "midi": 72,
                    "time": 380.69636749999376,
                    "velocity": 0.2125984251968504,
                    "duration": 0.20886084999995091
                },
                {
                    "name": "A4",
                    "midi": 69,
                    "time": 380.88624099999373,
                    "velocity": 0.23622047244094488,
                    "duration": 0.20886084999995091
                },
                {
                    "name": "F#4",
                    "midi": 66,
                    "time": 381.0761144999937,
                    "velocity": 0.2125984251968504,
                    "duration": 0.18987349999997605
                },
                {
                    "name": "D5",
                    "midi": 74,
                    "time": 381.2659879999937,
                    "velocity": 0.3228346456692913,
                    "duration": 1.5189879999998084
                },
                {
                    "name": "D4",
                    "midi": 62,
                    "time": 381.45586149999366,
                    "velocity": 0.2125984251968504,
                    "duration": 0.20886084999995091
                },
                {
                    "name": "G4",
                    "midi": 67,
                    "time": 381.64573499999364,
                    "velocity": 0.23622047244094488,
                    "duration": 0.20886084999995091
                },
                {
                    "name": "A#4",
                    "midi": 70,
                    "time": 381.8356084999936,
                    "velocity": 0.2047244094488189,
                    "duration": 0.20886084999995091
                },
                {
                    "name": "D4",
                    "midi": 62,
                    "time": 382.0254819999936,
                    "velocity": 0.23622047244094488,
                    "duration": 0.20886084999995091
                },
                {
                    "name": "A#4",
                    "midi": 70,
                    "time": 382.21535549999356,
                    "velocity": 0.2204724409448819,
                    "duration": 0.20886084999995091
                },
                {
                    "name": "G4",
                    "midi": 67,
                    "time": 382.40522899999354,
                    "velocity": 0.23622047244094488,
                    "duration": 0.20886084999995091
                },
                {
                    "name": "D4",
                    "midi": 62,
                    "time": 382.5951024999935,
                    "velocity": 0.2125984251968504,
                    "duration": 0.18987349999997605
                },
                {
                    "name": "C5",
                    "midi": 72,
                    "time": 382.7849759999935,
                    "velocity": 0.3937007874015748,
                    "duration": 1.5189879999998084
                },
                {
                    "name": "C4",
                    "midi": 60,
                    "time": 382.97484949999347,
                    "velocity": 0.2204724409448819,
                    "duration": 0.20886084999995091
                },
                {
                    "name": "D#4",
                    "midi": 63,
                    "time": 383.16472299999344,
                    "velocity": 0.23622047244094488,
                    "duration": 0.20886084999995091
                },
                {
                    "name": "F#4",
                    "midi": 66,
                    "time": 383.3545964999934,
                    "velocity": 0.2204724409448819,
                    "duration": 0.20886084999995091
                },
                {
                    "name": "C4",
                    "midi": 60,
                    "time": 383.5444699999934,
                    "velocity": 0.23622047244094488,
                    "duration": 0.20886084999995091
                },
                {
                    "name": "F#4",
                    "midi": 66,
                    "time": 383.7343434999934,
                    "velocity": 0.23622047244094488,
                    "duration": 0.20886084999995091
                },
                {
                    "name": "D#4",
                    "midi": 63,
                    "time": 383.92421699999335,
                    "velocity": 0.23622047244094488,
                    "duration": 0.20886084999995091
                },
                {
                    "name": "C4",
                    "midi": 60,
                    "time": 384.1140904999933,
                    "velocity": 0.2125984251968504,
                    "duration": 0.18987349999997605
                },
                {
                    "name": "A#4",
                    "midi": 70,
                    "time": 384.3039639999933,
                    "velocity": 0.3543307086614173,
                    "duration": 1.5189879999998084
                },
                {
                    "name": "A#3",
                    "midi": 58,
                    "time": 384.4938374999933,
                    "velocity": 0.2125984251968504,
                    "duration": 0.20886084999995091
                },
                {
                    "name": "D4",
                    "midi": 62,
                    "time": 384.68371099999325,
                    "velocity": 0.23622047244094488,
                    "duration": 0.20886084999995091
                },
                {
                    "name": "G4",
                    "midi": 67,
                    "time": 384.8735844999932,
                    "velocity": 0.2125984251968504,
                    "duration": 0.20886084999995091
                },
                {
                    "name": "A#3",
                    "midi": 58,
                    "time": 385.0634579999932,
                    "velocity": 0.23622047244094488,
                    "duration": 0.20886084999995091
                },
                {
                    "name": "G4",
                    "midi": 67,
                    "time": 385.2533314999932,
                    "velocity": 0.2204724409448819,
                    "duration": 0.20886084999995091
                },
                {
                    "name": "D4",
                    "midi": 62,
                    "time": 385.44320499999316,
                    "velocity": 0.23622047244094488,
                    "duration": 0.20886084999995091
                },
                {
                    "name": "A#3",
                    "midi": 58,
                    "time": 385.63307849999313,
                    "velocity": 0.2204724409448819,
                    "duration": 0.18987349999997605
                },
                {
                    "name": "A4",
                    "midi": 69,
                    "time": 385.8229519999931,
                    "velocity": 0.3937007874015748,
                    "duration": 0.7594939999999042
                },
                {
                    "name": "A3",
                    "midi": 57,
                    "time": 386.0128254999931,
                    "velocity": 0.2204724409448819,
                    "duration": 0.20886084999995091
                },
                {
                    "name": "C4",
                    "midi": 60,
                    "time": 386.20269899999306,
                    "velocity": 0.23622047244094488,
                    "duration": 0.20886084999995091
                },
                {
                    "name": "G4",
                    "midi": 67,
                    "time": 386.39257249999304,
                    "velocity": 0.2204724409448819,
                    "duration": 0.18987349999997605
                },
                {
                    "name": "C5",
                    "midi": 72,
                    "time": 386.582445999993,
                    "velocity": 0.36220472440944884,
                    "duration": 0.7594939999999042
                },
                {
                    "name": "D#4",
                    "midi": 63,
                    "time": 386.772319499993,
                    "velocity": 0.2283464566929134,
                    "duration": 0.20886084999995091
                },
                {
                    "name": "G4",
                    "midi": 67,
                    "time": 386.96219299999296,
                    "velocity": 0.23622047244094488,
                    "duration": 0.20886084999995091
                },
                {
                    "name": "A4",
                    "midi": 69,
                    "time": 387.15206649999294,
                    "velocity": 0.2204724409448819,
                    "duration": 0.18987349999997605
                },
                {
                    "name": "A#4",
                    "midi": 70,
                    "time": 387.3419399999929,
                    "velocity": 0.3858267716535433,
                    "duration": 0.7594939999999042
                },
                {
                    "name": "A#3",
                    "midi": 58,
                    "time": 387.5318134999929,
                    "velocity": 0.2125984251968504,
                    "duration": 0.20886084999995091
                },
                {
                    "name": "D4",
                    "midi": 62,
                    "time": 387.72168699999287,
                    "velocity": 0.23622047244094488,
                    "duration": 0.20886084999995091
                },
                {
                    "name": "G4",
                    "midi": 67,
                    "time": 387.91156049999285,
                    "velocity": 0.2125984251968504,
                    "duration": 0.18987349999997605
                },
                {
                    "name": "A4",
                    "midi": 69,
                    "time": 388.1014339999928,
                    "velocity": 0.3543307086614173,
                    "duration": 0.7594939999999042
                },
                {
                    "name": "C4",
                    "midi": 60,
                    "time": 388.2913074999928,
                    "velocity": 0.2047244094488189,
                    "duration": 0.20886084999995091
                },
                {
                    "name": "D4",
                    "midi": 62,
                    "time": 388.4811809999928,
                    "velocity": 0.23622047244094488,
                    "duration": 0.20886084999995091
                },
                {
                    "name": "F#4",
                    "midi": 66,
                    "time": 388.67105449999275,
                    "velocity": 0.2125984251968504,
                    "duration": 0.18987349999997605
                },
                {
                    "name": "G4",
                    "midi": 67,
                    "time": 388.8609279999927,
                    "velocity": 0.3937007874015748,
                    "duration": 2.2784819999997126
                },
                {
                    "name": "G3",
                    "midi": 55,
                    "time": 389.0508014999927,
                    "velocity": 0.2204724409448819,
                    "duration": 0.20886084999995091
                },
                {
                    "name": "A#3",
                    "midi": 58,
                    "time": 389.2406749999927,
                    "velocity": 0.25196850393700787,
                    "duration": 0.20886084999995091
                },
                {
                    "name": "D4",
                    "midi": 62,
                    "time": 389.43054849999265,
                    "velocity": 0.2677165354330709,
                    "duration": 0.20886084999995091
                },
                {
                    "name": "D#4",
                    "midi": 63,
                    "time": 389.62042199999263,
                    "velocity": 0.2755905511811024,
                    "duration": 0.20886084999995091
                },
                {
                    "name": "C4",
                    "midi": 60,
                    "time": 389.8102954999926,
                    "velocity": 0.29133858267716534,
                    "duration": 0.20886084999995091
                },
                {
                    "name": "A3",
                    "midi": 57,
                    "time": 390.0001689999926,
                    "velocity": 0.30708661417322836,
                    "duration": 0.20886084999995091
                },
                {
                    "name": "D#4",
                    "midi": 63,
                    "time": 390.19004249999256,
                    "velocity": 0.3464566929133858,
                    "duration": 0.20886084999995091
                },
                {
                    "name": "D4",
                    "midi": 62,
                    "time": 390.37991599999253,
                    "velocity": 0.3464566929133858,
                    "duration": 0.20886084999995091
                },
                {
                    "name": "A#3",
                    "midi": 58,
                    "time": 390.5697894999925,
                    "velocity": 0.25984251968503935,
                    "duration": 0.20886084999995091
                },
                {
                    "name": "D4",
                    "midi": 62,
                    "time": 390.7596629999925,
                    "velocity": 0.29133858267716534,
                    "duration": 0.20886084999995091
                },
                {
                    "name": "F#4",
                    "midi": 66,
                    "time": 390.94953649999246,
                    "velocity": 0.2204724409448819,
                    "duration": 0.20886084999995091
                },
                {
                    "name": "G4",
                    "midi": 67,
                    "time": 391.13940999999244,
                    "velocity": 0.2677165354330709,
                    "duration": 0.20886084999995091
                },
                {
                    "name": "D4",
                    "midi": 62,
                    "time": 391.3292834999924,
                    "velocity": 0.2047244094488189,
                    "duration": 0.20886084999995091
                },
                {
                    "name": "G4",
                    "midi": 67,
                    "time": 391.5191569999924,
                    "velocity": 0.23622047244094488,
                    "duration": 0.20886084999995091
                },
                {
                    "name": "A#4",
                    "midi": 70,
                    "time": 391.70903049999237,
                    "velocity": 0.2047244094488189,
                    "duration": 0.18987349999997605
                },
                {
                    "name": "D5",
                    "midi": 74,
                    "time": 391.89890399999234,
                    "velocity": 0.3464566929133858,
                    "duration": 0.7594939999999042
                },
                {
                    "name": "D4",
                    "midi": 62,
                    "time": 392.0887774999923,
                    "velocity": 0.2283464566929134,
                    "duration": 0.20886084999995091
                },
                {
                    "name": "G4",
                    "midi": 67,
                    "time": 392.2786509999923,
                    "velocity": 0.23622047244094488,
                    "duration": 0.20886084999995091
                },
                {
                    "name": "A#4",
                    "midi": 70,
                    "time": 392.46852449999227,
                    "velocity": 0.2204724409448819,
                    "duration": 0.18987349999997605
                },
                {
                    "name": "D5",
                    "midi": 74,
                    "time": 392.65839799999225,
                    "velocity": 0.31496062992125984,
                    "duration": 0.7594939999999042
                },
                {
                    "name": "D4",
                    "midi": 62,
                    "time": 392.8482714999922,
                    "velocity": 0.2204724409448819,
                    "duration": 0.20886084999995091
                },
                {
                    "name": "G4",
                    "midi": 67,
                    "time": 393.0381449999922,
                    "velocity": 0.23622047244094488,
                    "duration": 0.20886084999995091
                },
                {
                    "name": "A#4",
                    "midi": 70,
                    "time": 393.2280184999922,
                    "velocity": 0.2204724409448819,
                    "duration": 0.18987349999997605
                },
                {
                    "name": "D5",
                    "midi": 74,
                    "time": 393.41789199999215,
                    "velocity": 0.3543307086614173,
                    "duration": 0.7594939999999042
                },
                {
                    "name": "D4",
                    "midi": 62,
                    "time": 393.6077654999921,
                    "velocity": 0.2125984251968504,
                    "duration": 0.20886084999995091
                },
                {
                    "name": "F#4",
                    "midi": 66,
                    "time": 393.7976389999921,
                    "velocity": 0.23622047244094488,
                    "duration": 0.20886084999995091
                },
                {
                    "name": "A4",
                    "midi": 69,
                    "time": 393.9875124999921,
                    "velocity": 0.2204724409448819,
                    "duration": 0.18987349999997605
                },
                {
                    "name": "D5",
                    "midi": 74,
                    "time": 394.17738599999205,
                    "velocity": 0.36220472440944884,
                    "duration": 0.7594939999999042
                },
                {
                    "name": "D4",
                    "midi": 62,
                    "time": 394.36725949999203,
                    "velocity": 0.2125984251968504,
                    "duration": 0.20886084999995091
                },
                {
                    "name": "G4",
                    "midi": 67,
                    "time": 394.557132999992,
                    "velocity": 0.23622047244094488,
                    "duration": 0.20886084999995091
                },
                {
                    "name": "A#4",
                    "midi": 70,
                    "time": 394.747006499992,
                    "velocity": 0.2047244094488189,
                    "duration": 0.18987349999997605
                },
                {
                    "name": "D#5",
                    "midi": 75,
                    "time": 394.93687999999196,
                    "velocity": 0.4015748031496063,
                    "duration": 1.5189879999998084
                },
                {
                    "name": "D#4",
                    "midi": 63,
                    "time": 395.12675349999193,
                    "velocity": 0.2440944881889764,
                    "duration": 0.20886084999995091
                },
                {
                    "name": "G4",
                    "midi": 67,
                    "time": 395.3166269999919,
                    "velocity": 0.25984251968503935,
                    "duration": 0.20886084999995091
                },
                {
                    "name": "C5",
                    "midi": 72,
                    "time": 395.5065004999919,
                    "velocity": 0.2440944881889764,
                    "duration": 0.20886084999995091
                },
                {
                    "name": "A4",
                    "midi": 69,
                    "time": 395.69637399999186,
                    "velocity": 0.3228346456692913,
                    "duration": 0.20886084999995091
                },
                {
                    "name": "C5",
                    "midi": 72,
                    "time": 395.88624749999184,
                    "velocity": 0.25984251968503935,
                    "duration": 0.20886084999995091
                },
                {
                    "name": "A4",
                    "midi": 69,
                    "time": 396.0761209999918,
                    "velocity": 0.3228346456692913,
                    "duration": 0.20886084999995091
                },
                {
                    "name": "F4",
                    "midi": 65,
                    "time": 396.2659944999918,
                    "velocity": 0.2677165354330709,
                    "duration": 0.18987349999997605
                },
                {
                    "name": "D5",
                    "midi": 74,
                    "time": 396.45586799999177,
                    "velocity": 0.44881889763779526,
                    "duration": 1.5189879999998084
                },
                {
                    "name": "D4",
                    "midi": 62,
                    "time": 396.64574149999174,
                    "velocity": 0.2677165354330709,
                    "duration": 0.20886084999995091
                },
                {
                    "name": "F4",
                    "midi": 65,
                    "time": 396.8356149999917,
                    "velocity": 0.31496062992125984,
                    "duration": 0.20886084999995091
                },
                {
                    "name": "A#4",
                    "midi": 70,
                    "time": 397.0254884999917,
                    "velocity": 0.25984251968503935,
                    "duration": 0.20886084999995091
                },
                {
                    "name": "F4",
                    "midi": 65,
                    "time": 397.21536199999167,
                    "velocity": 0.3228346456692913,
                    "duration": 0.20886084999995091
                },
                {
                    "name": "A#4",
                    "midi": 70,
                    "time": 397.40523549999165,
                    "velocity": 0.2204724409448819,
                    "duration": 0.20886084999995091
                },
                {
                    "name": "F4",
                    "midi": 65,
                    "time": 397.5951089999916,
                    "velocity": 0.2755905511811024,
                    "duration": 0.20886084999995091
                },
                {
                    "name": "D4",
                    "midi": 62,
                    "time": 397.7849824999916,
                    "velocity": 0.2125984251968504,
                    "duration": 0.18987349999997605
                },
                {
                    "name": "C5",
                    "midi": 72,
                    "time": 397.9748559999916,
                    "velocity": 0.47244094488188976,
                    "duration": 1.5189879999998084
                },
                {
                    "name": "C4",
                    "midi": 60,
                    "time": 398.16472949999155,
                    "velocity": 0.2755905511811024,
                    "duration": 0.20886084999995091
                },
                {
                    "name": "D#4",
                    "midi": 63,
                    "time": 398.3546029999915,
                    "velocity": 0.30708661417322836,
                    "duration": 0.20886084999995091
                },
                {
                    "name": "A4",
                    "midi": 69,
                    "time": 398.5444764999915,
                    "velocity": 0.2204724409448819,
                    "duration": 0.20886084999995091
                },
                {
                    "name": "F#4",
                    "midi": 66,
                    "time": 398.7343499999915,
                    "velocity": 0.31496062992125984,
                    "duration": 0.20886084999995091
                },
                {
                    "name": "A4",
                    "midi": 69,
                    "time": 398.92422349999146,
                    "velocity": 0.2125984251968504,
                    "duration": 0.20886084999995091
                },
                {
                    "name": "F#4",
                    "midi": 66,
                    "time": 399.11409699999143,
                    "velocity": 0.23622047244094488,
                    "duration": 0.20886084999995091
                },
                {
                    "name": "D4",
                    "midi": 62,
                    "time": 399.3039704999914,
                    "velocity": 0.2125984251968504,
                    "duration": 0.18987349999997605
                },
                {
                    "name": "A#4",
                    "midi": 70,
                    "time": 399.4938439999914,
                    "velocity": 0.3543307086614173,
                    "duration": 1.5189879999998084
                },
                {
                    "name": "A#3",
                    "midi": 58,
                    "time": 399.68371749999136,
                    "velocity": 0.2125984251968504,
                    "duration": 0.20886084999995091
                },
                {
                    "name": "D4",
                    "midi": 62,
                    "time": 399.87359099999134,
                    "velocity": 0.23622047244094488,
                    "duration": 0.20886084999995091
                },
                {
                    "name": "G4",
                    "midi": 67,
                    "time": 400.0634644999913,
                    "velocity": 0.2125984251968504,
                    "duration": 0.20886084999995091
                },
                {
                    "name": "A#3",
                    "midi": 58,
                    "time": 400.2533379999913,
                    "velocity": 0.23622047244094488,
                    "duration": 0.20886084999995091
                },
                {
                    "name": "G4",
                    "midi": 67,
                    "time": 400.44321149999126,
                    "velocity": 0.2204724409448819,
                    "duration": 0.20886084999995091
                },
                {
                    "name": "D4",
                    "midi": 62,
                    "time": 400.63308499999124,
                    "velocity": 0.23622047244094488,
                    "duration": 0.20886084999995091
                },
                {
                    "name": "A#3",
                    "midi": 58,
                    "time": 400.8229584999912,
                    "velocity": 0.2204724409448819,
                    "duration": 0.18987349999997605
                },
                {
                    "name": "G4",
                    "midi": 67,
                    "time": 401.0128319999912,
                    "velocity": 0.3937007874015748,
                    "duration": 0.7594939999999042
                },
                {
                    "name": "D#4",
                    "midi": 63,
                    "time": 401.20270549999117,
                    "velocity": 0.2204724409448819,
                    "duration": 0.20886084999995091
                },
                {
                    "name": "D4",
                    "midi": 62,
                    "time": 401.39257899999114,
                    "velocity": 0.23622047244094488,
                    "duration": 0.20886084999995091
                },
                {
                    "name": "C4",
                    "midi": 60,
                    "time": 401.5824524999911,
                    "velocity": 0.2204724409448819,
                    "duration": 0.18987349999997605
                },
                {
                    "name": "D#5",
                    "midi": 75,
                    "time": 401.7723259999911,
                    "velocity": 0.36220472440944884,
                    "duration": 0.7594939999999042
                },
                {
                    "name": "D#4",
                    "midi": 63,
                    "time": 401.9621994999911,
                    "velocity": 0.2283464566929134,
                    "duration": 0.20886084999995091
                },
                {
                    "name": "G4",
                    "midi": 67,
                    "time": 402.15207299999105,
                    "velocity": 0.23622047244094488,
                    "duration": 0.20886084999995091
                },
                {
                    "name": "C5",
                    "midi": 72,
                    "time": 402.341946499991,
                    "velocity": 0.2204724409448819,
                    "duration": 0.18987349999997605
                },
                {
                    "name": "D5",
                    "midi": 74,
                    "time": 402.531819999991,
                    "velocity": 0.3858267716535433,
                    "duration": 0.7594939999999042
                },
                {
                    "name": "D4",
                    "midi": 62,
                    "time": 402.721693499991,
                    "velocity": 0.2125984251968504,
                    "duration": 0.20886084999995091
                },
                {
                    "name": "F4",
                    "midi": 65,
                    "time": 402.91156699999095,
                    "velocity": 0.23622047244094488,
                    "duration": 0.20886084999995091
                },
                {
                    "name": "A#4",
                    "midi": 70,
                    "time": 403.10144049999093,
                    "velocity": 0.2125984251968504,
                    "duration": 0.18987349999997605
                },
                {
                    "name": "C5",
                    "midi": 72,
                    "time": 403.2913139999909,
                    "velocity": 0.3543307086614173,
                    "duration": 0.7594939999999042
                },
                {
                    "name": "D#4",
                    "midi": 63,
                    "time": 403.4811874999909,
                    "velocity": 0.2047244094488189,
                    "duration": 0.20886084999995091
                },
                {
                    "name": "F4",
                    "midi": 65,
                    "time": 403.67106099999086,
                    "velocity": 0.23622047244094488,
                    "duration": 0.20886084999995091
                },
                {
                    "name": "A4",
                    "midi": 69,
                    "time": 403.86093449999083,
                    "velocity": 0.2125984251968504,
                    "duration": 0.18987349999997605
                },
                {
                    "name": "A#4",
                    "midi": 70,
                    "time": 404.0508079999908,
                    "velocity": 0.3937007874015748,
                    "duration": 2.2784819999997126
                },
                {
                    "name": "A#3",
                    "midi": 58,
                    "time": 404.2406814999908,
                    "velocity": 0.2204724409448819,
                    "duration": 0.20886084999995091
                },
                {
                    "name": "D4",
                    "midi": 62,
                    "time": 404.43055499999076,
                    "velocity": 0.25196850393700787,
                    "duration": 0.20886084999995091
                },
                {
                    "name": "F4",
                    "midi": 65,
                    "time": 404.62042849999074,
                    "velocity": 0.2677165354330709,
                    "duration": 0.20886084999995091
                },
                {
                    "name": "F#4",
                    "midi": 66,
                    "time": 404.8103019999907,
                    "velocity": 0.2755905511811024,
                    "duration": 0.20886084999995091
                },
                {
                    "name": "D#4",
                    "midi": 63,
                    "time": 405.0001754999907,
                    "velocity": 0.29133858267716534,
                    "duration": 0.20886084999995091
                },
                {
                    "name": "C4",
                    "midi": 60,
                    "time": 405.19004899999067,
                    "velocity": 0.30708661417322836,
                    "duration": 0.20886084999995091
                },
                {
                    "name": "F#4",
                    "midi": 66,
                    "time": 405.37992249999064,
                    "velocity": 0.3464566929133858,
                    "duration": 0.20886084999995091
                },
                {
                    "name": "F4",
                    "midi": 65,
                    "time": 405.5697959999906,
                    "velocity": 0.3464566929133858,
                    "duration": 0.20886084999995091
                },
                {
                    "name": "D4",
                    "midi": 62,
                    "time": 405.7596694999906,
                    "velocity": 0.25984251968503935,
                    "duration": 0.20886084999995091
                },
                {
                    "name": "F4",
                    "midi": 65,
                    "time": 405.94954299999057,
                    "velocity": 0.29133858267716534,
                    "duration": 0.20886084999995091
                },
                {
                    "name": "A4",
                    "midi": 69,
                    "time": 406.13941649999055,
                    "velocity": 0.2677165354330709,
                    "duration": 0.20886084999995091
                },
                {
                    "name": "A#4",
                    "midi": 70,
                    "time": 406.3292899999905,
                    "velocity": 0.31496062992125984,
                    "duration": 0.20886084999995091
                },
                {
                    "name": "F4",
                    "midi": 65,
                    "time": 406.5191634999905,
                    "velocity": 0.33858267716535434,
                    "duration": 0.20886084999995091
                },
                {
                    "name": "A#4",
                    "midi": 70,
                    "time": 406.7090369999905,
                    "velocity": 0.36220472440944884,
                    "duration": 0.20886084999995091
                },
                {
                    "name": "D5",
                    "midi": 74,
                    "time": 406.89891049999045,
                    "velocity": 0.3858267716535433,
                    "duration": 0.18987349999997605
                },
                {
                    "name": "F4",
                    "midi": 65,
                    "time": 407.0887839999904,
                    "velocity": 0.3228346456692913,
                    "duration": 0.569620499999985
                },
                {
                    "name": "F5",
                    "midi": 77,
                    "time": 407.0887839999904,
                    "velocity": 0.4330708661417323,
                    "duration": 0.569620499999985
                },
                {
                    "name": "F4",
                    "midi": 65,
                    "time": 407.8482779999904,
                    "velocity": 0.3464566929133858,
                    "duration": 0.7579117208333059
                },
                {
                    "name": "F5",
                    "midi": 77,
                    "time": 407.8482779999904,
                    "velocity": 0.4251968503937008,
                    "duration": 0.7579117208333059
                },
                {
                    "name": "F#4",
                    "midi": 66,
                    "time": 408.60777199999035,
                    "velocity": 0.4251968503937008,
                    "duration": 0.7579117208333059
                },
                {
                    "name": "F#5",
                    "midi": 78,
                    "time": 408.60777199999035,
                    "velocity": 0.5039370078740157,
                    "duration": 0.7579117208333059
                },
                {
                    "name": "G4",
                    "midi": 67,
                    "time": 409.3672659999903,
                    "velocity": 0.47244094488188976,
                    "duration": 0.7579117208333059
                },
                {
                    "name": "G5",
                    "midi": 79,
                    "time": 409.3672659999903,
                    "velocity": 0.5669291338582677,
                    "duration": 0.7579117208333059
                },
                {
                    "name": "A4",
                    "midi": 69,
                    "time": 410.12675999999027,
                    "velocity": 0.48031496062992124,
                    "duration": 0.7579117208333059
                },
                {
                    "name": "A5",
                    "midi": 81,
                    "time": 410.12675999999027,
                    "velocity": 0.5905511811023622,
                    "duration": 0.7579117208333059
                },
                {
                    "name": "C5",
                    "midi": 72,
                    "time": 410.88625399999023,
                    "velocity": 0.5039370078740157,
                    "duration": 0.7579117208333059
                },
                {
                    "name": "C6",
                    "midi": 84,
                    "time": 410.88625399999023,
                    "velocity": 0.6141732283464567,
                    "duration": 0.7579117208333059
                },
                {
                    "name": "A#4",
                    "midi": 70,
                    "time": 411.6457479999902,
                    "velocity": 0.49606299212598426,
                    "duration": 0.7579117208333059
                },
                {
                    "name": "A#5",
                    "midi": 82,
                    "time": 411.6457479999902,
                    "velocity": 0.6062992125984252,
                    "duration": 0.7579117208333059
                },
                {
                    "name": "A4",
                    "midi": 69,
                    "time": 412.40524199999015,
                    "velocity": 0.3858267716535433,
                    "duration": 0.569620499999985
                },
                {
                    "name": "A5",
                    "midi": 81,
                    "time": 412.40524199999015,
                    "velocity": 0.4566929133858268,
                    "duration": 0.569620499999985
                },
                {
                    "name": "G4",
                    "midi": 67,
                    "time": 412.97486249999014,
                    "velocity": 0.33070866141732286,
                    "duration": 0.18987349999997605
                },
                {
                    "name": "G5",
                    "midi": 79,
                    "time": 412.97486249999014,
                    "velocity": 0.4015748031496063,
                    "duration": 0.18987349999997605
                },
                {
                    "name": "F#4",
                    "midi": 66,
                    "time": 413.1647359999901,
                    "velocity": 0.3858267716535433,
                    "duration": 0.7594940000000179
                },
                {
                    "name": "F#5",
                    "midi": 78,
                    "time": 413.1647359999901,
                    "velocity": 0.4566929133858268,
                    "duration": 0.7594940000000179
                },
                {
                    "name": "F#4",
                    "midi": 66,
                    "time": 413.92422999999013,
                    "velocity": 0.36220472440944884,
                    "duration": 0.7594940000000179
                },
                {
                    "name": "F#5",
                    "midi": 78,
                    "time": 413.92422999999013,
                    "velocity": 0.4330708661417323,
                    "duration": 0.7594940000000179
                },
                {
                    "name": "G4",
                    "midi": 67,
                    "time": 414.68372399999015,
                    "velocity": 0.3543307086614173,
                    "duration": 0.37974700000000894
                },
                {
                    "name": "G5",
                    "midi": 79,
                    "time": 414.68372399999015,
                    "velocity": 0.41732283464566927,
                    "duration": 0.37974700000000894
                },
                {
                    "name": "F#4",
                    "midi": 66,
                    "time": 415.06347099999016,
                    "velocity": 0.29133858267716534,
                    "duration": 0.37974700000000894
                },
                {
                    "name": "F#5",
                    "midi": 78,
                    "time": 415.06347099999016,
                    "velocity": 0.3543307086614173,
                    "duration": 0.37974700000000894
                },
                {
                    "name": "E4",
                    "midi": 64,
                    "time": 415.44321799999017,
                    "velocity": 0.2992125984251969,
                    "duration": 0.37974700000000894
                },
                {
                    "name": "E5",
                    "midi": 76,
                    "time": 415.44321799999017,
                    "velocity": 0.36220472440944884,
                    "duration": 0.37974700000000894
                },
                {
                    "name": "F#4",
                    "midi": 66,
                    "time": 415.8229649999902,
                    "velocity": 0.29133858267716534,
                    "duration": 0.37974700000000894
                },
                {
                    "name": "F#5",
                    "midi": 78,
                    "time": 415.8229649999902,
                    "velocity": 0.3543307086614173,
                    "duration": 0.37974700000000894
                },
                {
                    "name": "G4",
                    "midi": 67,
                    "time": 416.2027119999902,
                    "velocity": 0.31496062992125984,
                    "duration": 1.518987999999979
                },
                {
                    "name": "G5",
                    "midi": 79,
                    "time": 416.2027119999902,
                    "velocity": 0.3779527559055118,
                    "duration": 1.518987999999979
                },
                {
                    "name": "G4",
                    "midi": 67,
                    "time": 417.91157349999014,
                    "velocity": 0.41732283464566927,
                    "duration": 0.18987349999997605
                },
                {
                    "name": "A#4",
                    "midi": 70,
                    "time": 418.1014469999901,
                    "velocity": 0.4330708661417323,
                    "duration": 0.18987349999997605
                },
                {
                    "name": "D5",
                    "midi": 74,
                    "time": 418.2913204999901,
                    "velocity": 0.44881889763779526,
                    "duration": 0.18987349999997605
                },
                {
                    "name": "G5",
                    "midi": 79,
                    "time": 418.48119399999007,
                    "velocity": 0.4645669291338583,
                    "duration": 0.18987349999997605
                },
                {
                    "name": "A#4",
                    "midi": 70,
                    "time": 418.67106749999004,
                    "velocity": 0.48031496062992124,
                    "duration": 0.18987349999997605
                },
                {
                    "name": "D5",
                    "midi": 74,
                    "time": 418.86094099999,
                    "velocity": 0.49606299212598426,
                    "duration": 0.18987349999997605
                },
                {
                    "name": "G5",
                    "midi": 79,
                    "time": 419.05081449999,
                    "velocity": 0.5118110236220472,
                    "duration": 0.18987349999997605
                },
                {
                    "name": "A4",
                    "midi": 69,
                    "time": 419.62043499999,
                    "velocity": 0.49606299212598426,
                    "duration": 0.18987349999997605
                },
                {
                    "name": "D5",
                    "midi": 74,
                    "time": 419.62043499999,
                    "velocity": 0.49606299212598426,
                    "duration": 0.18987349999997605
                },
                {
                    "name": "F#5",
                    "midi": 78,
                    "time": 419.62043499999,
                    "velocity": 0.5826771653543307,
                    "duration": 0.18987349999997605
                },
                {
                    "name": "A5",
                    "midi": 81,
                    "time": 420.37992899998994,
                    "velocity": 0.5826771653543307,
                    "duration": 0.18987349999997605
                },
                {
                    "name": "C5",
                    "midi": 72,
                    "time": 420.37992899998994,
                    "velocity": 0.49606299212598426,
                    "duration": 0.18987349999997605
                },
                {
                    "name": "D5",
                    "midi": 74,
                    "time": 420.37992899998994,
                    "velocity": 0.49606299212598426,
                    "duration": 0.18987349999997605
                },
                {
                    "name": "A#4",
                    "midi": 70,
                    "time": 421.1394229999899,
                    "velocity": 0.49606299212598426,
                    "duration": 0.18987349999997605
                },
                {
                    "name": "D5",
                    "midi": 74,
                    "time": 421.1394229999899,
                    "velocity": 0.49606299212598426,
                    "duration": 0.18987349999997605
                },
                {
                    "name": "G5",
                    "midi": 79,
                    "time": 421.1394229999899,
                    "velocity": 0.5826771653543307,
                    "duration": 0.18987349999997605
                },
                {
                    "name": "A4",
                    "midi": 69,
                    "time": 421.89891699998986,
                    "velocity": 0.49606299212598426,
                    "duration": 0.18987349999997605
                },
                {
                    "name": "D5",
                    "midi": 74,
                    "time": 421.89891699998986,
                    "velocity": 0.49606299212598426,
                    "duration": 0.18987349999997605
                },
                {
                    "name": "F#5",
                    "midi": 78,
                    "time": 421.89891699998986,
                    "velocity": 0.5826771653543307,
                    "duration": 0.18987349999997605
                },
                {
                    "name": "G4",
                    "midi": 67,
                    "time": 422.6584109999898,
                    "velocity": 0.5118110236220472,
                    "duration": 0.18987349999997605
                },
                {
                    "name": "D5",
                    "midi": 74,
                    "time": 422.6584109999898,
                    "velocity": 0.5118110236220472,
                    "duration": 0.18987349999997605
                },
                {
                    "name": "G5",
                    "midi": 79,
                    "time": 422.6584109999898,
                    "velocity": 0.6141732283464567,
                    "duration": 0.18987349999997605
                },
                {
                    "name": "G4",
                    "midi": 67,
                    "time": 423.0381579999898,
                    "velocity": 0.5196850393700787,
                    "duration": 0.18987349999997605
                },
                {
                    "name": "C5",
                    "midi": 72,
                    "time": 423.0381579999898,
                    "velocity": 0.5196850393700787,
                    "duration": 0.18987349999997605
                },
                {
                    "name": "G5",
                    "midi": 79,
                    "time": 423.0381579999898,
                    "velocity": 0.6220472440944882,
                    "duration": 0.18987349999997605
                },
                {
                    "name": "C#6",
                    "midi": 85,
                    "time": 423.41790499998973,
                    "velocity": 0.6535433070866141,
                    "duration": 0.18987349999997605
                },
                {
                    "name": "G5",
                    "midi": 79,
                    "time": 423.41790499998973,
                    "velocity": 0.5590551181102362,
                    "duration": 0.18987349999997605
                },
                {
                    "name": "C#5",
                    "midi": 73,
                    "time": 423.41790499998973,
                    "velocity": 0.5590551181102362,
                    "duration": 0.18987349999997605
                },
                {
                    "name": "D6",
                    "midi": 86,
                    "time": 424.1773989999897,
                    "velocity": 0.6535433070866141,
                    "duration": 0.18987349999997605
                },
                {
                    "name": "A5",
                    "midi": 81,
                    "time": 424.1773989999897,
                    "velocity": 0.6535433070866141,
                    "duration": 0.18987349999997605
                },
                {
                    "name": "G5",
                    "midi": 79,
                    "time": 424.1773989999897,
                    "velocity": 0.5590551181102362,
                    "duration": 0.18987349999997605
                },
                {
                    "name": "D5",
                    "midi": 74,
                    "time": 424.1773989999897,
                    "velocity": 0.5590551181102362,
                    "duration": 0.18987349999997605
                },
                {
                    "name": "D5",
                    "midi": 74,
                    "time": 424.55714599998964,
                    "velocity": 0.5433070866141733,
                    "duration": 0.18987349999997605
                },
                {
                    "name": "F#5",
                    "midi": 78,
                    "time": 424.55714599998964,
                    "velocity": 0.5433070866141733,
                    "duration": 0.18987349999997605
                },
                {
                    "name": "A5",
                    "midi": 81,
                    "time": 424.55714599998964,
                    "velocity": 0.5433070866141733,
                    "duration": 0.18987349999997605
                },
                {
                    "name": "D6",
                    "midi": 86,
                    "time": 424.55714599998964,
                    "velocity": 0.6377952755905512,
                    "duration": 0.18987349999997605
                },
                {
                    "name": "F#4",
                    "midi": 66,
                    "time": 424.9368929999896,
                    "velocity": 0.5196850393700787,
                    "duration": 0.18987349999997605
                },
                {
                    "name": "A4",
                    "midi": 69,
                    "time": 424.9368929999896,
                    "velocity": 0.5196850393700787,
                    "duration": 0.18987349999997605
                },
                {
                    "name": "D5",
                    "midi": 74,
                    "time": 424.9368929999896,
                    "velocity": 0.6220472440944882,
                    "duration": 0.18987349999997605
                },
                {
                    "name": "D#4",
                    "midi": 63,
                    "time": 425.69638699998956,
                    "velocity": 0.49606299212598426,
                    "duration": 0.18987349999997605
                },
                {
                    "name": "A#4",
                    "midi": 70,
                    "time": 425.69638699998956,
                    "velocity": 0.49606299212598426,
                    "duration": 0.18987349999997605
                },
                {
                    "name": "D#5",
                    "midi": 75,
                    "time": 425.69638699998956,
                    "velocity": 0.5826771653543307,
                    "duration": 0.18987349999997605
                },
                {
                    "name": "D#4",
                    "midi": 63,
                    "time": 426.0761339999895,
                    "velocity": 0.5433070866141733,
                    "duration": 0.18987349999997605
                },
                {
                    "name": "A4",
                    "midi": 69,
                    "time": 426.0761339999895,
                    "velocity": 0.5433070866141733,
                    "duration": 0.18987349999997605
                },
                {
                    "name": "D#5",
                    "midi": 75,
                    "time": 426.0761339999895,
                    "velocity": 0.6377952755905512,
                    "duration": 0.18987349999997605
                },
                {
                    "name": "A5",
                    "midi": 81,
                    "time": 426.45588099998946,
                    "velocity": 0.5826771653543307,
                    "duration": 0.18987349999997605
                },
                {
                    "name": "D#5",
                    "midi": 75,
                    "time": 426.45588099998946,
                    "velocity": 0.49606299212598426,
                    "duration": 0.18987349999997605
                },
                {
                    "name": "A4",
                    "midi": 69,
                    "time": 426.45588099998946,
                    "velocity": 0.49606299212598426,
                    "duration": 0.18987349999997605
                },
                {
                    "name": "A#5",
                    "midi": 82,
                    "time": 427.2153749999894,
                    "velocity": 0.5826771653543307,
                    "duration": 0.18987349999997605
                },
                {
                    "name": "F5",
                    "midi": 77,
                    "time": 427.2153749999894,
                    "velocity": 0.49606299212598426,
                    "duration": 0.18987349999997605
                },
                {
                    "name": "D#5",
                    "midi": 75,
                    "time": 427.2153749999894,
                    "velocity": 0.49606299212598426,
                    "duration": 0.18987349999997605
                },
                {
                    "name": "A#4",
                    "midi": 70,
                    "time": 427.2153749999894,
                    "velocity": 0.49606299212598426,
                    "duration": 0.18987349999997605
                },
                {
                    "name": "A#4",
                    "midi": 70,
                    "time": 427.5951219999894,
                    "velocity": 0.5196850393700787,
                    "duration": 0.18987349999997605
                },
                {
                    "name": "D5",
                    "midi": 74,
                    "time": 427.5951219999894,
                    "velocity": 0.5196850393700787,
                    "duration": 0.18987349999997605
                },
                {
                    "name": "F5",
                    "midi": 77,
                    "time": 427.5951219999894,
                    "velocity": 0.5196850393700787,
                    "duration": 0.18987349999997605
                },
                {
                    "name": "A#5",
                    "midi": 82,
                    "time": 427.5951219999894,
                    "velocity": 0.6220472440944882,
                    "duration": 0.18987349999997605
                },
                {
                    "name": "D4",
                    "midi": 62,
                    "time": 427.9748689999893,
                    "velocity": 0.49606299212598426,
                    "duration": 0.18987349999997605
                },
                {
                    "name": "F4",
                    "midi": 65,
                    "time": 427.9748689999893,
                    "velocity": 0.49606299212598426,
                    "duration": 0.18987349999997605
                },
                {
                    "name": "A#4",
                    "midi": 70,
                    "time": 427.9748689999893,
                    "velocity": 0.5826771653543307,
                    "duration": 0.18987349999997605
                },
                {
                    "name": "D#4",
                    "midi": 63,
                    "time": 428.7343629999893,
                    "velocity": 0.49606299212598426,
                    "duration": 0.18987349999997605
                },
                {
                    "name": "G4",
                    "midi": 67,
                    "time": 428.7343629999893,
                    "velocity": 0.49606299212598426,
                    "duration": 0.18987349999997605
                },
                {
                    "name": "C5",
                    "midi": 72,
                    "time": 428.7343629999893,
                    "velocity": 0.5826771653543307,
                    "duration": 0.18987349999997605
                },
                {
                    "name": "F#4",
                    "midi": 66,
                    "time": 429.49385699998925,
                    "velocity": 0.49606299212598426,
                    "duration": 0.18987349999997605
                },
                {
                    "name": "A4",
                    "midi": 69,
                    "time": 429.49385699998925,
                    "velocity": 0.49606299212598426,
                    "duration": 0.18987349999997605
                },
                {
                    "name": "D#5",
                    "midi": 75,
                    "time": 429.49385699998925,
                    "velocity": 0.5826771653543307,
                    "duration": 0.18987349999997605
                },
                {
                    "name": "G4",
                    "midi": 67,
                    "time": 430.2533509999892,
                    "velocity": 0.5118110236220472,
                    "duration": 0.18987349999997605
                },
                {
                    "name": "A#4",
                    "midi": 70,
                    "time": 430.2533509999892,
                    "velocity": 0.5118110236220472,
                    "duration": 0.18987349999997605
                },
                {
                    "name": "D5",
                    "midi": 74,
                    "time": 430.2533509999892,
                    "velocity": 0.6141732283464567,
                    "duration": 0.18987349999997605
                },
                {
                    "name": "C5",
                    "midi": 72,
                    "time": 431.01284499998917,
                    "velocity": 0.5196850393700787,
                    "duration": 0.18987349999997605
                },
                {
                    "name": "D5",
                    "midi": 74,
                    "time": 431.01284499998917,
                    "velocity": 0.5196850393700787,
                    "duration": 0.18987349999997605
                },
                {
                    "name": "F#5",
                    "midi": 78,
                    "time": 431.01284499998917,
                    "velocity": 0.6220472440944882,
                    "duration": 0.18987349999997605
                },
                {
                    "name": "A#4",
                    "midi": 70,
                    "time": 431.77233899998913,
                    "velocity": 0.5433070866141733,
                    "duration": 0.37974700000000894
                },
                {
                    "name": "D5",
                    "midi": 74,
                    "time": 431.77233899998913,
                    "velocity": 0.5433070866141733,
                    "duration": 0.37974700000000894
                },
                {
                    "name": "G5",
                    "midi": 79,
                    "time": 431.77233899998913,
                    "velocity": 0.6377952755905512,
                    "duration": 0.37974700000000894
                },
                {
                    "name": "D4",
                    "midi": 62,
                    "time": 432.15208599998914,
                    "velocity": 0.5275590551181102,
                    "duration": 0.37974700000000894
                },
                {
                    "name": "A#4",
                    "midi": 70,
                    "time": 432.15208599998914,
                    "velocity": 0.5275590551181102,
                    "duration": 0.37974700000000894
                },
                {
                    "name": "D5",
                    "midi": 74,
                    "time": 432.15208599998914,
                    "velocity": 0.6299212598425197,
                    "duration": 0.37974700000000894
                },
                {
                    "name": "D4",
                    "midi": 62,
                    "time": 432.53183299998915,
                    "velocity": 0.5118110236220472,
                    "duration": 0.37974700000000894
                },
                {
                    "name": "A4",
                    "midi": 69,
                    "time": 432.53183299998915,
                    "velocity": 0.5118110236220472,
                    "duration": 0.37974700000000894
                },
                {
                    "name": "C5",
                    "midi": 72,
                    "time": 432.53183299998915,
                    "velocity": 0.6141732283464567,
                    "duration": 0.37974700000000894
                },
                {
                    "name": "D4",
                    "midi": 62,
                    "time": 432.91157999998916,
                    "velocity": 0.5039370078740157,
                    "duration": 0.37974700000000894
                },
                {
                    "name": "G4",
                    "midi": 67,
                    "time": 432.91157999998916,
                    "velocity": 0.5039370078740157,
                    "duration": 0.37974700000000894
                },
                {
                    "name": "A#4",
                    "midi": 70,
                    "time": 432.91157999998916,
                    "velocity": 0.5039370078740157,
                    "duration": 0.37974700000000894
                },
                {
                    "name": "G4",
                    "midi": 67,
                    "time": 433.29132699998917,
                    "velocity": 0.49606299212598426,
                    "duration": 0.37974700000000894
                },
                {
                    "name": "A#4",
                    "midi": 70,
                    "time": 433.29132699998917,
                    "velocity": 0.49606299212598426,
                    "duration": 0.37974700000000894
                },
                {
                    "name": "D5",
                    "midi": 74,
                    "time": 433.29132699998917,
                    "velocity": 0.5826771653543307,
                    "duration": 0.37974700000000894
                },
                {
                    "name": "A#4",
                    "midi": 70,
                    "time": 433.6710739999892,
                    "velocity": 0.49606299212598426,
                    "duration": 0.37974700000000894
                },
                {
                    "name": "D5",
                    "midi": 74,
                    "time": 433.6710739999892,
                    "velocity": 0.49606299212598426,
                    "duration": 0.37974700000000894
                },
                {
                    "name": "G5",
                    "midi": 79,
                    "time": 433.6710739999892,
                    "velocity": 0.5826771653543307,
                    "duration": 0.37974700000000894
                },
                {
                    "name": "G4",
                    "midi": 67,
                    "time": 434.0508209999892,
                    "velocity": 0.49606299212598426,
                    "duration": 0.37974700000000894
                },
                {
                    "name": "A#4",
                    "midi": 70,
                    "time": 434.0508209999892,
                    "velocity": 0.49606299212598426,
                    "duration": 0.37974700000000894
                },
                {
                    "name": "D5",
                    "midi": 74,
                    "time": 434.0508209999892,
                    "velocity": 0.5826771653543307,
                    "duration": 0.37974700000000894
                },
                {
                    "name": "F#4",
                    "midi": 66,
                    "time": 434.8103149999892,
                    "velocity": 0.49606299212598426,
                    "duration": 0.18987349999997605
                },
                {
                    "name": "A4",
                    "midi": 69,
                    "time": 434.8103149999892,
                    "velocity": 0.49606299212598426,
                    "duration": 0.18987349999997605
                },
                {
                    "name": "D5",
                    "midi": 74,
                    "time": 434.8103149999892,
                    "velocity": 0.5826771653543307,
                    "duration": 0.18987349999997605
                },
                {
                    "name": "A5",
                    "midi": 81,
                    "time": 435.56980899998916,
                    "velocity": 0.5826771653543307,
                    "duration": 0.18987349999997605
                },
                {
                    "name": "C5",
                    "midi": 72,
                    "time": 435.56980899998916,
                    "velocity": 0.49606299212598426,
                    "duration": 0.18987349999997605
                },
                {
                    "name": "D5",
                    "midi": 74,
                    "time": 435.56980899998916,
                    "velocity": 0.49606299212598426,
                    "duration": 0.18987349999997605
                },
                {
                    "name": "A#4",
                    "midi": 70,
                    "time": 436.3293029999891,
                    "velocity": 0.49606299212598426,
                    "duration": 0.18987349999997605
                },
                {
                    "name": "D5",
                    "midi": 74,
                    "time": 436.3293029999891,
                    "velocity": 0.49606299212598426,
                    "duration": 0.18987349999997605
                },
                {
                    "name": "G5",
                    "midi": 79,
                    "time": 436.3293029999891,
                    "velocity": 0.5826771653543307,
                    "duration": 0.18987349999997605
                },
                {
                    "name": "A4",
                    "midi": 69,
                    "time": 437.0887969999891,
                    "velocity": 0.49606299212598426,
                    "duration": 0.18987349999997605
                },
                {
                    "name": "D5",
                    "midi": 74,
                    "time": 437.0887969999891,
                    "velocity": 0.49606299212598426,
                    "duration": 0.18987349999997605
                },
                {
                    "name": "F#5",
                    "midi": 78,
                    "time": 437.0887969999891,
                    "velocity": 0.5826771653543307,
                    "duration": 0.18987349999997605
                },
                {
                    "name": "G4",
                    "midi": 67,
                    "time": 437.84829099998905,
                    "velocity": 0.5118110236220472,
                    "duration": 0.18987349999997605
                },
                {
                    "name": "D5",
                    "midi": 74,
                    "time": 437.84829099998905,
                    "velocity": 0.5118110236220472,
                    "duration": 0.18987349999997605
                },
                {
                    "name": "G5",
                    "midi": 79,
                    "time": 437.84829099998905,
                    "velocity": 0.6141732283464567,
                    "duration": 0.18987349999997605
                },
                {
                    "name": "G4",
                    "midi": 67,
                    "time": 438.228037999989,
                    "velocity": 0.5196850393700787,
                    "duration": 0.18987349999997605
                },
                {
                    "name": "C5",
                    "midi": 72,
                    "time": 438.228037999989,
                    "velocity": 0.5196850393700787,
                    "duration": 0.18987349999997605
                },
                {
                    "name": "G5",
                    "midi": 79,
                    "time": 438.228037999989,
                    "velocity": 0.6220472440944882,
                    "duration": 0.18987349999997605
                },
                {
                    "name": "C#6",
                    "midi": 85,
                    "time": 438.60778499998895,
                    "velocity": 0.6535433070866141,
                    "duration": 0.18987349999997605
                },
                {
                    "name": "G5",
                    "midi": 79,
                    "time": 438.60778499998895,
                    "velocity": 0.5590551181102362,
                    "duration": 0.18987349999997605
                },
                {
                    "name": "C#5",
                    "midi": 73,
                    "time": 438.60778499998895,
                    "velocity": 0.5590551181102362,
                    "duration": 0.18987349999997605
                },
                {
                    "name": "D6",
                    "midi": 86,
                    "time": 439.3672789999889,
                    "velocity": 0.6535433070866141,
                    "duration": 0.18987349999997605
                },
                {
                    "name": "A5",
                    "midi": 81,
                    "time": 439.3672789999889,
                    "velocity": 0.6535433070866141,
                    "duration": 0.18987349999997605
                },
                {
                    "name": "G5",
                    "midi": 79,
                    "time": 439.3672789999889,
                    "velocity": 0.5590551181102362,
                    "duration": 0.18987349999997605
                },
                {
                    "name": "D5",
                    "midi": 74,
                    "time": 439.3672789999889,
                    "velocity": 0.5590551181102362,
                    "duration": 0.18987349999997605
                },
                {
                    "name": "D5",
                    "midi": 74,
                    "time": 439.74702599998886,
                    "velocity": 0.5433070866141733,
                    "duration": 0.18987349999997605
                },
                {
                    "name": "F5",
                    "midi": 77,
                    "time": 439.74702599998886,
                    "velocity": 0.5433070866141733,
                    "duration": 0.18987349999997605
                },
                {
                    "name": "A5",
                    "midi": 81,
                    "time": 439.74702599998886,
                    "velocity": 0.5433070866141733,
                    "duration": 0.18987349999997605
                },
                {
                    "name": "D6",
                    "midi": 86,
                    "time": 439.74702599998886,
                    "velocity": 0.6377952755905512,
                    "duration": 0.18987349999997605
                },
                {
                    "name": "F4",
                    "midi": 65,
                    "time": 440.1267729999888,
                    "velocity": 0.5196850393700787,
                    "duration": 0.18987349999997605
                },
                {
                    "name": "A4",
                    "midi": 69,
                    "time": 440.1267729999888,
                    "velocity": 0.5196850393700787,
                    "duration": 0.18987349999997605
                },
                {
                    "name": "D5",
                    "midi": 74,
                    "time": 440.1267729999888,
                    "velocity": 0.6220472440944882,
                    "duration": 0.18987349999997605
                },
                {
                    "name": "D#4",
                    "midi": 63,
                    "time": 440.8862669999888,
                    "velocity": 0.49606299212598426,
                    "duration": 0.18987349999997605
                },
                {
                    "name": "A#4",
                    "midi": 70,
                    "time": 440.8862669999888,
                    "velocity": 0.49606299212598426,
                    "duration": 0.18987349999997605
                },
                {
                    "name": "D#5",
                    "midi": 75,
                    "time": 440.8862669999888,
                    "velocity": 0.5826771653543307,
                    "duration": 0.18987349999997605
                },
                {
                    "name": "D#4",
                    "midi": 63,
                    "time": 441.26601399998873,
                    "velocity": 0.5433070866141733,
                    "duration": 0.18987349999997605
                },
                {
                    "name": "A4",
                    "midi": 69,
                    "time": 441.26601399998873,
                    "velocity": 0.5433070866141733,
                    "duration": 0.18987349999997605
                },
                {
                    "name": "D#5",
                    "midi": 75,
                    "time": 441.26601399998873,
                    "velocity": 0.6377952755905512,
                    "duration": 0.18987349999997605
                },
                {
                    "name": "A5",
                    "midi": 81,
                    "time": 441.6457609999887,
                    "velocity": 0.5826771653543307,
                    "duration": 0.18987349999997605
                },
                {
                    "name": "D#5",
                    "midi": 75,
                    "time": 441.6457609999887,
                    "velocity": 0.49606299212598426,
                    "duration": 0.18987349999997605
                },
                {
                    "name": "A4",
                    "midi": 69,
                    "time": 441.6457609999887,
                    "velocity": 0.49606299212598426,
                    "duration": 0.18987349999997605
                },
                {
                    "name": "A#5",
                    "midi": 82,
                    "time": 442.40525499998864,
                    "velocity": 0.5826771653543307,
                    "duration": 0.18987349999997605
                },
                {
                    "name": "F5",
                    "midi": 77,
                    "time": 442.40525499998864,
                    "velocity": 0.49606299212598426,
                    "duration": 0.18987349999997605
                },
                {
                    "name": "D#5",
                    "midi": 75,
                    "time": 442.40525499998864,
                    "velocity": 0.49606299212598426,
                    "duration": 0.18987349999997605
                },
                {
                    "name": "A#4",
                    "midi": 70,
                    "time": 442.40525499998864,
                    "velocity": 0.49606299212598426,
                    "duration": 0.18987349999997605
                },
                {
                    "name": "A#4",
                    "midi": 70,
                    "time": 442.7850019999886,
                    "velocity": 0.5196850393700787,
                    "duration": 0.18987349999997605
                },
                {
                    "name": "D5",
                    "midi": 74,
                    "time": 442.7850019999886,
                    "velocity": 0.5196850393700787,
                    "duration": 0.18987349999997605
                },
                {
                    "name": "F5",
                    "midi": 77,
                    "time": 442.7850019999886,
                    "velocity": 0.5196850393700787,
                    "duration": 0.18987349999997605
                },
                {
                    "name": "A#5",
                    "midi": 82,
                    "time": 442.7850019999886,
                    "velocity": 0.6220472440944882,
                    "duration": 0.18987349999997605
                },
                {
                    "name": "F4",
                    "midi": 65,
                    "time": 443.16474899998855,
                    "velocity": 0.49606299212598426,
                    "duration": 0.18987349999997605
                },
                {
                    "name": "C5",
                    "midi": 72,
                    "time": 443.16474899998855,
                    "velocity": 0.5826771653543307,
                    "duration": 0.18987349999997605
                },
                {
                    "name": "D#4",
                    "midi": 63,
                    "time": 443.9242429999885,
                    "velocity": 0.49606299212598426,
                    "duration": 0.18987349999997605
                },
                {
                    "name": "A#4",
                    "midi": 70,
                    "time": 443.9242429999885,
                    "velocity": 0.49606299212598426,
                    "duration": 0.18987349999997605
                },
                {
                    "name": "D#5",
                    "midi": 75,
                    "time": 443.9242429999885,
                    "velocity": 0.5826771653543307,
                    "duration": 0.18987349999997605
                },
                {
                    "name": "G4",
                    "midi": 67,
                    "time": 444.68373699998847,
                    "velocity": 0.49606299212598426,
                    "duration": 0.18987349999997605
                },
                {
                    "name": "A#4",
                    "midi": 70,
                    "time": 444.68373699998847,
                    "velocity": 0.49606299212598426,
                    "duration": 0.18987349999997605
                },
                {
                    "name": "C5",
                    "midi": 72,
                    "time": 444.68373699998847,
                    "velocity": 0.5826771653543307,
                    "duration": 0.18987349999997605
                },
                {
                    "name": "F4",
                    "midi": 65,
                    "time": 445.44323099998843,
                    "velocity": 0.5118110236220472,
                    "duration": 0.18987349999997605
                },
                {
                    "name": "A#4",
                    "midi": 70,
                    "time": 445.44323099998843,
                    "velocity": 0.5118110236220472,
                    "duration": 0.18987349999997605
                },
                {
                    "name": "F5",
                    "midi": 77,
                    "time": 445.44323099998843,
                    "velocity": 0.6141732283464567,
                    "duration": 0.18987349999997605
                },
                {
                    "name": "A4",
                    "midi": 69,
                    "time": 446.2027249999884,
                    "velocity": 0.3937007874015748,
                    "duration": 0.18987349999997605
                },
                {
                    "name": "D#5",
                    "midi": 75,
                    "time": 446.2027249999884,
                    "velocity": 0.5196850393700787,
                    "duration": 0.18987349999997605
                },
                {
                    "name": "F5",
                    "midi": 77,
                    "time": 446.2027249999884,
                    "velocity": 0.5196850393700787,
                    "duration": 0.18987349999997605
                },
                {
                    "name": "A5",
                    "midi": 81,
                    "time": 446.2027249999884,
                    "velocity": 0.6220472440944882,
                    "duration": 0.18987349999997605
                },
                {
                    "name": "D#5",
                    "midi": 75,
                    "time": 446.96221899998835,
                    "velocity": 0.5433070866141733,
                    "duration": 0.37974700000000894
                },
                {
                    "name": "A#4",
                    "midi": 70,
                    "time": 446.96221899998835,
                    "velocity": 0.5433070866141733,
                    "duration": 0.37974700000000894
                },
                {
                    "name": "F5",
                    "midi": 77,
                    "time": 446.96221899998835,
                    "velocity": 0.5433070866141733,
                    "duration": 0.37974700000000894
                },
                {
                    "name": "A#5",
                    "midi": 82,
                    "time": 446.96221899998835,
                    "velocity": 0.6377952755905512,
                    "duration": 0.37974700000000894
                },
                {
                    "name": "D5",
                    "midi": 74,
                    "time": 447.34196599998836,
                    "velocity": 0.5275590551181102,
                    "duration": 0.37974700000000894
                },
                {
                    "name": "A#4",
                    "midi": 70,
                    "time": 447.34196599998836,
                    "velocity": 0.5275590551181102,
                    "duration": 0.37974700000000894
                },
                {
                    "name": "F5",
                    "midi": 77,
                    "time": 447.34196599998836,
                    "velocity": 0.5275590551181102,
                    "duration": 0.37974700000000894
                },
                {
                    "name": "A#5",
                    "midi": 82,
                    "time": 447.34196599998836,
                    "velocity": 0.6299212598425197,
                    "duration": 0.37974700000000894
                },
                {
                    "name": "A#4",
                    "midi": 70,
                    "time": 447.72171299998837,
                    "velocity": 0.5118110236220472,
                    "duration": 0.37974700000000894
                },
                {
                    "name": "D5",
                    "midi": 74,
                    "time": 447.72171299998837,
                    "velocity": 0.5118110236220472,
                    "duration": 0.37974700000000894
                },
                {
                    "name": "F5",
                    "midi": 77,
                    "time": 447.72171299998837,
                    "velocity": 0.6141732283464567,
                    "duration": 0.37974700000000894
                },
                {
                    "name": "F4",
                    "midi": 65,
                    "time": 448.1014599999884,
                    "velocity": 0.4251968503937008,
                    "duration": 0.37974700000000894
                },
                {
                    "name": "A#4",
                    "midi": 70,
                    "time": 448.1014599999884,
                    "velocity": 0.4251968503937008,
                    "duration": 0.37974700000000894
                },
                {
                    "name": "D5",
                    "midi": 74,
                    "time": 448.1014599999884,
                    "velocity": 0.5039370078740157,
                    "duration": 0.37974700000000894
                },
                {
                    "name": "D4",
                    "midi": 62,
                    "time": 448.4812069999884,
                    "velocity": 0.41732283464566927,
                    "duration": 0.37974700000000894
                },
                {
                    "name": "F4",
                    "midi": 65,
                    "time": 448.4812069999884,
                    "velocity": 0.41732283464566927,
                    "duration": 0.37974700000000894
                },
                {
                    "name": "A#4",
                    "midi": 70,
                    "time": 448.4812069999884,
                    "velocity": 0.49606299212598426,
                    "duration": 0.37974700000000894
                },
                {
                    "name": "A#3",
                    "midi": 58,
                    "time": 448.8609539999884,
                    "velocity": 0.36220472440944884,
                    "duration": 0.569620499999985
                },
                {
                    "name": "A#4",
                    "midi": 70,
                    "time": 448.8609539999884,
                    "velocity": 0.4330708661417323,
                    "duration": 0.569620499999985
                },
                {
                    "name": "D4",
                    "midi": 62,
                    "time": 449.4305744999884,
                    "velocity": 0.36220472440944884,
                    "duration": 0.18987349999997605
                },
                {
                    "name": "D5",
                    "midi": 74,
                    "time": 449.4305744999884,
                    "velocity": 0.4330708661417323,
                    "duration": 0.18987349999997605
                },
                {
                    "name": "F4",
                    "midi": 65,
                    "time": 449.62044799998836,
                    "velocity": 0.3228346456692913,
                    "duration": 0.569620499999985
                },
                {
                    "name": "F5",
                    "midi": 77,
                    "time": 449.62044799998836,
                    "velocity": 0.4330708661417323,
                    "duration": 0.569620499999985
                },
                {
                    "name": "F4",
                    "midi": 65,
                    "time": 450.3799419999883,
                    "velocity": 0.3464566929133858,
                    "duration": 0.7579117208333059
                },
                {
                    "name": "F5",
                    "midi": 77,
                    "time": 450.3799419999883,
                    "velocity": 0.4251968503937008,
                    "duration": 0.7579117208333059
                },
                {
                    "name": "F#4",
                    "midi": 66,
                    "time": 451.1394359999883,
                    "velocity": 0.41732283464566927,
                    "duration": 0.7579117208333059
                },
                {
                    "name": "F#5",
                    "midi": 78,
                    "time": 451.1394359999883,
                    "velocity": 0.49606299212598426,
                    "duration": 0.7579117208333059
                },
                {
                    "name": "G4",
                    "midi": 67,
                    "time": 451.89892999998824,
                    "velocity": 0.44881889763779526,
                    "duration": 0.7579117208333059
                },
                {
                    "name": "G5",
                    "midi": 79,
                    "time": 451.89892999998824,
                    "velocity": 0.5354330708661418,
                    "duration": 0.7579117208333059
                },
                {
                    "name": "A4",
                    "midi": 69,
                    "time": 452.6584239999882,
                    "velocity": 0.4566929133858268,
                    "duration": 0.7579117208333059
                },
                {
                    "name": "A5",
                    "midi": 81,
                    "time": 452.6584239999882,
                    "velocity": 0.5590551181102362,
                    "duration": 0.7579117208333059
                },
                {
                    "name": "C5",
                    "midi": 72,
                    "time": 453.41791799998816,
                    "velocity": 0.47244094488188976,
                    "duration": 0.7579117208333059
                },
                {
                    "name": "C6",
                    "midi": 84,
                    "time": 453.41791799998816,
                    "velocity": 0.5669291338582677,
                    "duration": 0.7579117208333059
                },
                {
                    "name": "A#4",
                    "midi": 70,
                    "time": 454.1774119999881,
                    "velocity": 0.4566929133858268,
                    "duration": 0.7579117208333059
                },
                {
                    "name": "A#5",
                    "midi": 82,
                    "time": 454.1774119999881,
                    "velocity": 0.5511811023622047,
                    "duration": 0.7579117208333059
                },
                {
                    "name": "A4",
                    "midi": 69,
                    "time": 454.9369059999881,
                    "velocity": 0.3858267716535433,
                    "duration": 0.569620499999985
                },
                {
                    "name": "A5",
                    "midi": 81,
                    "time": 454.9369059999881,
                    "velocity": 0.4566929133858268,
                    "duration": 0.569620499999985
                },
                {
                    "name": "G4",
                    "midi": 67,
                    "time": 455.50652649998807,
                    "velocity": 0.33070866141732286,
                    "duration": 0.18987349999997605
                },
                {
                    "name": "G5",
                    "midi": 79,
                    "time": 455.50652649998807,
                    "velocity": 0.4015748031496063,
                    "duration": 0.18987349999997605
                },
                {
                    "name": "F#4",
                    "midi": 66,
                    "time": 455.69639999998805,
                    "velocity": 0.3858267716535433,
                    "duration": 0.7594940000000179
                },
                {
                    "name": "F#5",
                    "midi": 78,
                    "time": 455.69639999998805,
                    "velocity": 0.4566929133858268,
                    "duration": 0.7594940000000179
                },
                {
                    "name": "F#4",
                    "midi": 66,
                    "time": 456.45589399998806,
                    "velocity": 0.36220472440944884,
                    "duration": 0.7594940000000179
                },
                {
                    "name": "F#5",
                    "midi": 78,
                    "time": 456.45589399998806,
                    "velocity": 0.4330708661417323,
                    "duration": 0.7594940000000179
                },
                {
                    "name": "G4",
                    "midi": 67,
                    "time": 457.2153879999881,
                    "velocity": 0.3543307086614173,
                    "duration": 0.37974700000000894
                },
                {
                    "name": "G5",
                    "midi": 79,
                    "time": 457.2153879999881,
                    "velocity": 0.41732283464566927,
                    "duration": 0.37974700000000894
                },
                {
                    "name": "F#4",
                    "midi": 66,
                    "time": 457.5951349999881,
                    "velocity": 0.29133858267716534,
                    "duration": 0.37974700000000894
                },
                {
                    "name": "F#5",
                    "midi": 78,
                    "time": 457.5951349999881,
                    "velocity": 0.3543307086614173,
                    "duration": 0.37974700000000894
                },
                {
                    "name": "E4",
                    "midi": 64,
                    "time": 457.9748819999881,
                    "velocity": 0.2992125984251969,
                    "duration": 0.37974700000000894
                },
                {
                    "name": "E5",
                    "midi": 76,
                    "time": 457.9748819999881,
                    "velocity": 0.36220472440944884,
                    "duration": 0.37974700000000894
                },
                {
                    "name": "F#4",
                    "midi": 66,
                    "time": 458.3546289999881,
                    "velocity": 0.29133858267716534,
                    "duration": 0.37974700000000894
                },
                {
                    "name": "F#5",
                    "midi": 78,
                    "time": 458.3546289999881,
                    "velocity": 0.3543307086614173,
                    "duration": 0.37974700000000894
                },
                {
                    "name": "G4",
                    "midi": 67,
                    "time": 458.7343759999881,
                    "velocity": 0.31496062992125984,
                    "duration": 1.518987999999979
                },
                {
                    "name": "G5",
                    "midi": 79,
                    "time": 458.7343759999881,
                    "velocity": 0.3779527559055118,
                    "duration": 1.518987999999979
                },
                {
                    "name": "C5",
                    "midi": 72,
                    "time": 460.2533639999881,
                    "velocity": 0.41732283464566927,
                    "duration": 0.3987343499999838
                },
                {
                    "name": "B4",
                    "midi": 71,
                    "time": 460.6331109999881,
                    "velocity": 0.41732283464566927,
                    "duration": 0.39873434999992696
                },
                {
                    "name": "A#4",
                    "midi": 70,
                    "time": 461.01285799998806,
                    "velocity": 0.41732283464566927,
                    "duration": 0.39873434999992696
                },
                {
                    "name": "B4",
                    "midi": 71,
                    "time": 461.392604999988,
                    "velocity": 0.41732283464566927,
                    "duration": 0.3797469999999521
                },
                {
                    "name": "B4",
                    "midi": 71,
                    "time": 461.77235199998796,
                    "velocity": 0.3779527559055118,
                    "duration": 0.18987349999997605
                },
                {
                    "name": "E5",
                    "midi": 76,
                    "time": 461.96222549998794,
                    "velocity": 0.3779527559055118,
                    "duration": 1.3291145000000029
                },
                {
                    "name": "B4",
                    "midi": 71,
                    "time": 463.29133999998794,
                    "velocity": 0.41732283464566927,
                    "duration": 0.3987343499999838
                },
                {
                    "name": "A4",
                    "midi": 69,
                    "time": 463.67108699998795,
                    "velocity": 0.41732283464566927,
                    "duration": 0.39873434999992696
                },
                {
                    "name": "G#4",
                    "midi": 68,
                    "time": 464.0508339999879,
                    "velocity": 0.41732283464566927,
                    "duration": 0.39873434999992696
                },
                {
                    "name": "A4",
                    "midi": 69,
                    "time": 464.43058099998785,
                    "velocity": 0.41732283464566927,
                    "duration": 0.3797469999999521
                },
                {
                    "name": "A4",
                    "midi": 69,
                    "time": 464.8103279999878,
                    "velocity": 0.3779527559055118,
                    "duration": 0.18987349999997605
                },
                {
                    "name": "D5",
                    "midi": 74,
                    "time": 465.0002014999878,
                    "velocity": 0.3779527559055118,
                    "duration": 1.3291145000000029
                },
                {
                    "name": "C5",
                    "midi": 72,
                    "time": 466.3293159999878,
                    "velocity": 0.4566929133858268,
                    "duration": 0.3987343499999838
                },
                {
                    "name": "B4",
                    "midi": 71,
                    "time": 466.7090629999878,
                    "velocity": 0.47244094488188976,
                    "duration": 0.39873434999992696
                },
                {
                    "name": "A4",
                    "midi": 69,
                    "time": 467.08880999998775,
                    "velocity": 0.49606299212598426,
                    "duration": 0.39873434999992696
                },
                {
                    "name": "G4",
                    "midi": 67,
                    "time": 467.4685569999877,
                    "velocity": 0.5196850393700787,
                    "duration": 0.3797469999999521
                },
                {
                    "name": "F#4",
                    "midi": 66,
                    "time": 467.84830399998765,
                    "velocity": 0.44881889763779526,
                    "duration": 0.37974700000000894
                },
                {
                    "name": "D5",
                    "midi": 74,
                    "time": 467.84830399998765,
                    "velocity": 0.5354330708661418,
                    "duration": 0.37974700000000894
                },
                {
                    "name": "E4",
                    "midi": 64,
                    "time": 468.22805099998766,
                    "velocity": 0.4409448818897638,
                    "duration": 0.37974700000000894
                },
                {
                    "name": "C5",
                    "midi": 72,
                    "time": 468.22805099998766,
                    "velocity": 0.5196850393700787,
                    "duration": 0.37974700000000894
                },
                {
                    "name": "D4",
                    "midi": 62,
                    "time": 468.60779799998767,
                    "velocity": 0.41732283464566927,
                    "duration": 0.37974700000000894
                },
                {
                    "name": "B4",
                    "midi": 71,
                    "time": 468.60779799998767,
                    "velocity": 0.49606299212598426,
                    "duration": 0.37974700000000894
                },
                {
                    "name": "C4",
                    "midi": 60,
                    "time": 468.9875449999877,
                    "velocity": 0.4015748031496063,
                    "duration": 0.37974700000000894
                },
                {
                    "name": "A4",
                    "midi": 69,
                    "time": 468.9875449999877,
                    "velocity": 0.47244094488188976,
                    "duration": 0.37974700000000894
                },
                {
                    "name": "B3",
                    "midi": 59,
                    "time": 469.3672919999877,
                    "velocity": 0.3858267716535433,
                    "duration": 0.7594940000000179
                },
                {
                    "name": "G4",
                    "midi": 67,
                    "time": 469.3672919999877,
                    "velocity": 0.4566929133858268,
                    "duration": 0.7594940000000179
                },
                {
                    "name": "D4",
                    "midi": 62,
                    "time": 470.1267859999877,
                    "velocity": 0.4330708661417323,
                    "duration": 0.569620499999985
                },
                {
                    "name": "B4",
                    "midi": 71,
                    "time": 470.1267859999877,
                    "velocity": 0.4330708661417323,
                    "duration": 0.569620499999985
                },
                {
                    "name": "C4",
                    "midi": 60,
                    "time": 470.6964064999877,
                    "velocity": 0.4251968503937008,
                    "duration": 0.18987349999997605
                },
                {
                    "name": "A4",
                    "midi": 69,
                    "time": 470.6964064999877,
                    "velocity": 0.4251968503937008,
                    "duration": 0.18987349999997605
                },
                {
                    "name": "B3",
                    "midi": 59,
                    "time": 470.88627999998766,
                    "velocity": 0.31496062992125984,
                    "duration": 0.7594940000000179
                },
                {
                    "name": "G4",
                    "midi": 67,
                    "time": 470.88627999998766,
                    "velocity": 0.3779527559055118,
                    "duration": 0.7594940000000179
                },
                {
                    "name": "C5",
                    "midi": 72,
                    "time": 472.4052679999877,
                    "velocity": 0.41732283464566927,
                    "duration": 0.3987343499999838
                },
                {
                    "name": "B4",
                    "midi": 71,
                    "time": 472.7850149999877,
                    "velocity": 0.41732283464566927,
                    "duration": 0.39873434999992696
                },
                {
                    "name": "A#4",
                    "midi": 70,
                    "time": 473.16476199998766,
                    "velocity": 0.41732283464566927,
                    "duration": 0.39873434999992696
                },
                {
                    "name": "B4",
                    "midi": 71,
                    "time": 473.5445089999876,
                    "velocity": 0.41732283464566927,
                    "duration": 0.3797469999999521
                },
                {
                    "name": "B5",
                    "midi": 83,
                    "time": 473.92425599998757,
                    "velocity": 0.41732283464566927,
                    "duration": 0.3987343499999838
                },
                {
                    "name": "E5",
                    "midi": 76,
                    "time": 473.92425599998757,
                    "velocity": 0.3779527559055118,
                    "duration": 1.5189879999998652
                },
                {
                    "name": "A5",
                    "midi": 81,
                    "time": 474.3040029999876,
                    "velocity": 0.41732283464566927,
                    "duration": 0.39873434999992696
                },
                {
                    "name": "G#5",
                    "midi": 80,
                    "time": 474.6837499999875,
                    "velocity": 0.41732283464566927,
                    "duration": 0.39873434999992696
                },
                {
                    "name": "A5",
                    "midi": 81,
                    "time": 475.0634969999875,
                    "velocity": 0.41732283464566927,
                    "duration": 0.3797469999999521
                },
                {
                    "name": "B4",
                    "midi": 71,
                    "time": 475.44324399998743,
                    "velocity": 0.41732283464566927,
                    "duration": 0.3987343499999838
                },
                {
                    "name": "A4",
                    "midi": 69,
                    "time": 475.82299099998744,
                    "velocity": 0.41732283464566927,
                    "duration": 0.39873434999992696
                },
                {
                    "name": "G#4",
                    "midi": 68,
                    "time": 476.2027379999874,
                    "velocity": 0.41732283464566927,
                    "duration": 0.39873434999992696
                },
                {
                    "name": "A4",
                    "midi": 69,
                    "time": 476.58248499998734,
                    "velocity": 0.41732283464566927,
                    "duration": 0.3797469999999521
                },
                {
                    "name": "A5",
                    "midi": 81,
                    "time": 476.9622319999873,
                    "velocity": 0.4566929133858268,
                    "duration": 0.37974700000000894
                },
                {
                    "name": "D5",
                    "midi": 74,
                    "time": 476.9622319999873,
                    "velocity": 0.3779527559055118,
                    "duration": 1.5189880000000358
                },
                {
                    "name": "G5",
                    "midi": 79,
                    "time": 477.3419789999873,
                    "velocity": 0.47244094488188976,
                    "duration": 0.37974700000000894
                },
                {
                    "name": "F#5",
                    "midi": 78,
                    "time": 477.7217259999873,
                    "velocity": 0.49606299212598426,
                    "duration": 0.37974700000000894
                },
                {
                    "name": "G5",
                    "midi": 79,
                    "time": 478.1014729999873,
                    "velocity": 0.5196850393700787,
                    "duration": 0.37974700000000894
                },
                {
                    "name": "C5",
                    "midi": 72,
                    "time": 478.48121999998733,
                    "velocity": 0.4566929133858268,
                    "duration": 0.3987343499999838
                },
                {
                    "name": "B4",
                    "midi": 71,
                    "time": 478.86096699998734,
                    "velocity": 0.47244094488188976,
                    "duration": 0.39873434999992696
                },
                {
                    "name": "A4",
                    "midi": 69,
                    "time": 479.2407139999873,
                    "velocity": 0.49606299212598426,
                    "duration": 0.39873434999992696
                },
                {
                    "name": "G4",
                    "midi": 67,
                    "time": 479.62046099998724,
                    "velocity": 0.5196850393700787,
                    "duration": 0.3797469999999521
                },
                {
                    "name": "D5",
                    "midi": 74,
                    "time": 480.0002079999872,
                    "velocity": 0.44881889763779526,
                    "duration": 0.37974700000000894
                },
                {
                    "name": "F#4",
                    "midi": 66,
                    "time": 480.0002079999872,
                    "velocity": 0.44881889763779526,
                    "duration": 0.37974700000000894
                },
                {
                    "name": "F#5",
                    "midi": 78,
                    "time": 480.0002079999872,
                    "velocity": 0.5354330708661418,
                    "duration": 0.37974700000000894
                },
                {
                    "name": "C5",
                    "midi": 72,
                    "time": 480.3799549999872,
                    "velocity": 0.4409448818897638,
                    "duration": 0.37974700000000894
                },
                {
                    "name": "E4",
                    "midi": 64,
                    "time": 480.3799549999872,
                    "velocity": 0.4409448818897638,
                    "duration": 0.37974700000000894
                },
                {
                    "name": "E5",
                    "midi": 76,
                    "time": 480.3799549999872,
                    "velocity": 0.5196850393700787,
                    "duration": 0.37974700000000894
                },
                {
                    "name": "B4",
                    "midi": 71,
                    "time": 480.7597019999872,
                    "velocity": 0.41732283464566927,
                    "duration": 0.37974700000000894
                },
                {
                    "name": "D4",
                    "midi": 62,
                    "time": 480.7597019999872,
                    "velocity": 0.41732283464566927,
                    "duration": 0.37974700000000894
                },
                {
                    "name": "D5",
                    "midi": 74,
                    "time": 480.7597019999872,
                    "velocity": 0.49606299212598426,
                    "duration": 0.37974700000000894
                },
                {
                    "name": "A4",
                    "midi": 69,
                    "time": 481.1394489999872,
                    "velocity": 0.4015748031496063,
                    "duration": 0.37974700000000894
                },
                {
                    "name": "C4",
                    "midi": 60,
                    "time": 481.1394489999872,
                    "velocity": 0.4015748031496063,
                    "duration": 0.37974700000000894
                },
                {
                    "name": "C5",
                    "midi": 72,
                    "time": 481.1394489999872,
                    "velocity": 0.47244094488188976,
                    "duration": 0.37974700000000894
                },
                {
                    "name": "B4",
                    "midi": 71,
                    "time": 481.51919599998723,
                    "velocity": 0.4566929133858268,
                    "duration": 0.7594940000000179
                },
                {
                    "name": "B3",
                    "midi": 59,
                    "time": 481.51919599998723,
                    "velocity": 0.3858267716535433,
                    "duration": 0.7594940000000179
                },
                {
                    "name": "G4",
                    "midi": 67,
                    "time": 481.51919599998723,
                    "velocity": 0.3858267716535433,
                    "duration": 0.7594940000000179
                },
                {
                    "name": "C4",
                    "midi": 60,
                    "time": 482.27868999998725,
                    "velocity": 0.36220472440944884,
                    "duration": 0.759493999999961
                },
                {
                    "name": "F#4",
                    "midi": 66,
                    "time": 482.27868999998725,
                    "velocity": 0.36220472440944884,
                    "duration": 0.759493999999961
                },
                {
                    "name": "C5",
                    "midi": 72,
                    "time": 482.27868999998725,
                    "velocity": 0.4330708661417323,
                    "duration": 0.569620499999985
                },
                {
                    "name": "A4",
                    "midi": 69,
                    "time": 482.84831049998724,
                    "velocity": 0.4251968503937008,
                    "duration": 0.18987349999997605
                },
                {
                    "name": "G4",
                    "midi": 67,
                    "time": 483.0381839999872,
                    "velocity": 0.30708661417322836,
                    "duration": 0.18987349999997605
                },
                {
                    "name": "G3",
                    "midi": 55,
                    "time": 483.0381839999872,
                    "velocity": 0.30708661417322836,
                    "duration": 0.18987349999997605
                },
                {
                    "name": "G3",
                    "midi": 55,
                    "time": 483.29134866665385,
                    "velocity": 0.1732283464566929,
                    "duration": 0.18987349999997605
                },
                {
                    "name": "G4",
                    "midi": 67,
                    "time": 483.29134866665385,
                    "velocity": 0.2125984251968504,
                    "duration": 0.18987349999997605
                },
                {
                    "name": "G3",
                    "midi": 55,
                    "time": 483.5445133333205,
                    "velocity": 0.1732283464566929,
                    "duration": 0.18987349999997605
                },
                {
                    "name": "G4",
                    "midi": 67,
                    "time": 483.5445133333205,
                    "velocity": 0.2125984251968504,
                    "duration": 0.18987349999997605
                },
                {
                    "name": "G3",
                    "midi": 55,
                    "time": 483.7976779999871,
                    "velocity": 0.1968503937007874,
                    "duration": 0.18987349999997605
                },
                {
                    "name": "G4",
                    "midi": 67,
                    "time": 483.7976779999871,
                    "velocity": 0.23622047244094488,
                    "duration": 0.18987349999997605
                },
                {
                    "name": "G3",
                    "midi": 55,
                    "time": 484.05084266665375,
                    "velocity": 0.1968503937007874,
                    "duration": 0.18987349999997605
                },
                {
                    "name": "G4",
                    "midi": 67,
                    "time": 484.05084266665375,
                    "velocity": 0.23622047244094488,
                    "duration": 0.18987349999997605
                },
                {
                    "name": "G3",
                    "midi": 55,
                    "time": 484.3040073333204,
                    "velocity": 0.1968503937007874,
                    "duration": 0.18987349999997605
                },
                {
                    "name": "G4",
                    "midi": 67,
                    "time": 484.3040073333204,
                    "velocity": 0.23622047244094488,
                    "duration": 0.18987349999997605
                },
                {
                    "name": "G3",
                    "midi": 55,
                    "time": 484.557171999987,
                    "velocity": 0.25196850393700787,
                    "duration": 0.18987349999997605
                },
                {
                    "name": "G4",
                    "midi": 67,
                    "time": 484.557171999987,
                    "velocity": 0.2992125984251969,
                    "duration": 0.18987349999997605
                },
                {
                    "name": "G3",
                    "midi": 55,
                    "time": 484.81033666665365,
                    "velocity": 0.1889763779527559,
                    "duration": 0.18987349999997605
                },
                {
                    "name": "G4",
                    "midi": 67,
                    "time": 484.81033666665365,
                    "velocity": 0.2204724409448819,
                    "duration": 0.18987349999997605
                },
                {
                    "name": "G3",
                    "midi": 55,
                    "time": 485.0635013333203,
                    "velocity": 0.1968503937007874,
                    "duration": 0.18987349999997605
                },
                {
                    "name": "G4",
                    "midi": 67,
                    "time": 485.0635013333203,
                    "velocity": 0.23622047244094488,
                    "duration": 0.18987349999997605
                },
                {
                    "name": "G3",
                    "midi": 55,
                    "time": 485.3166659999869,
                    "velocity": 0.25984251968503935,
                    "duration": 0.18987349999997605
                },
                {
                    "name": "G4",
                    "midi": 67,
                    "time": 485.3166659999869,
                    "velocity": 0.30708661417322836,
                    "duration": 0.18987349999997605
                },
                {
                    "name": "G3",
                    "midi": 55,
                    "time": 485.56983066665356,
                    "velocity": 0.1968503937007874,
                    "duration": 0.18987349999997605
                },
                {
                    "name": "G4",
                    "midi": 67,
                    "time": 485.56983066665356,
                    "velocity": 0.23622047244094488,
                    "duration": 0.18987349999997605
                },
                {
                    "name": "G3",
                    "midi": 55,
                    "time": 485.8229953333202,
                    "velocity": 0.1968503937007874,
                    "duration": 0.18987349999997605
                },
                {
                    "name": "G4",
                    "midi": 67,
                    "time": 485.8229953333202,
                    "velocity": 0.23622047244094488,
                    "duration": 0.18987349999997605
                },
                {
                    "name": "G4",
                    "midi": 67,
                    "time": 486.0761599999868,
                    "velocity": 0.30708661417322836,
                    "duration": 0.18987349999997605
                },
                {
                    "name": "G3",
                    "midi": 55,
                    "time": 486.0761599999868,
                    "velocity": 0.30708661417322836,
                    "duration": 0.18987349999997605
                },
                {
                    "name": "G3",
                    "midi": 55,
                    "time": 486.32932466665346,
                    "velocity": 0.1732283464566929,
                    "duration": 0.18987349999997605
                },
                {
                    "name": "G4",
                    "midi": 67,
                    "time": 486.32932466665346,
                    "velocity": 0.2125984251968504,
                    "duration": 0.18987349999997605
                },
                {
                    "name": "G3",
                    "midi": 55,
                    "time": 486.5824893333201,
                    "velocity": 0.1732283464566929,
                    "duration": 0.18987349999997605
                },
                {
                    "name": "G4",
                    "midi": 67,
                    "time": 486.5824893333201,
                    "velocity": 0.2125984251968504,
                    "duration": 0.18987349999997605
                },
                {
                    "name": "G3",
                    "midi": 55,
                    "time": 486.83565399998673,
                    "velocity": 0.1968503937007874,
                    "duration": 0.18987349999997605
                },
                {
                    "name": "G4",
                    "midi": 67,
                    "time": 486.83565399998673,
                    "velocity": 0.23622047244094488,
                    "duration": 0.18987349999997605
                },
                {
                    "name": "G3",
                    "midi": 55,
                    "time": 487.08881866665337,
                    "velocity": 0.1968503937007874,
                    "duration": 0.18987349999997605
                },
                {
                    "name": "G4",
                    "midi": 67,
                    "time": 487.08881866665337,
                    "velocity": 0.23622047244094488,
                    "duration": 0.18987349999997605
                },
                {
                    "name": "G3",
                    "midi": 55,
                    "time": 487.34198333332,
                    "velocity": 0.1968503937007874,
                    "duration": 0.18987349999997605
                },
                {
                    "name": "G4",
                    "midi": 67,
                    "time": 487.34198333332,
                    "velocity": 0.23622047244094488,
                    "duration": 0.18987349999997605
                },
                {
                    "name": "G3",
                    "midi": 55,
                    "time": 487.59514799998664,
                    "velocity": 0.25196850393700787,
                    "duration": 0.18987349999997605
                },
                {
                    "name": "G4",
                    "midi": 67,
                    "time": 487.59514799998664,
                    "velocity": 0.2992125984251969,
                    "duration": 0.18987349999997605
                },
                {
                    "name": "G3",
                    "midi": 55,
                    "time": 487.84831266665327,
                    "velocity": 0.1889763779527559,
                    "duration": 0.18987349999997605
                },
                {
                    "name": "G4",
                    "midi": 67,
                    "time": 487.84831266665327,
                    "velocity": 0.2204724409448819,
                    "duration": 0.18987349999997605
                },
                {
                    "name": "G3",
                    "midi": 55,
                    "time": 488.1014773333199,
                    "velocity": 0.1968503937007874,
                    "duration": 0.18987349999997605
                },
                {
                    "name": "G4",
                    "midi": 67,
                    "time": 488.1014773333199,
                    "velocity": 0.23622047244094488,
                    "duration": 0.18987349999997605
                },
                {
                    "name": "G3",
                    "midi": 55,
                    "time": 488.35464199998654,
                    "velocity": 0.25984251968503935,
                    "duration": 0.18987349999997605
                },
                {
                    "name": "G4",
                    "midi": 67,
                    "time": 488.35464199998654,
                    "velocity": 0.30708661417322836,
                    "duration": 0.18987349999997605
                },
                {
                    "name": "G3",
                    "midi": 55,
                    "time": 488.6078066666532,
                    "velocity": 0.1968503937007874,
                    "duration": 0.18987349999997605
                },
                {
                    "name": "G4",
                    "midi": 67,
                    "time": 488.6078066666532,
                    "velocity": 0.23622047244094488,
                    "duration": 0.18987349999997605
                },
                {
                    "name": "G3",
                    "midi": 55,
                    "time": 488.8609713333198,
                    "velocity": 0.1968503937007874,
                    "duration": 0.18987349999997605
                },
                {
                    "name": "G4",
                    "midi": 67,
                    "time": 488.8609713333198,
                    "velocity": 0.23622047244094488,
                    "duration": 0.18987349999997605
                },
                {
                    "name": "G4",
                    "midi": 67,
                    "time": 489.11413599998644,
                    "velocity": 0.30708661417322836,
                    "duration": 0.18987349999997605
                },
                {
                    "name": "G3",
                    "midi": 55,
                    "time": 489.11413599998644,
                    "velocity": 0.30708661417322836,
                    "duration": 0.18987349999997605
                },
                {
                    "name": "G3",
                    "midi": 55,
                    "time": 489.3673006666531,
                    "velocity": 0.1732283464566929,
                    "duration": 0.18987349999997605
                },
                {
                    "name": "G4",
                    "midi": 67,
                    "time": 489.3673006666531,
                    "velocity": 0.2125984251968504,
                    "duration": 0.18987349999997605
                },
                {
                    "name": "G3",
                    "midi": 55,
                    "time": 489.6204653333197,
                    "velocity": 0.1732283464566929,
                    "duration": 0.18987349999997605
                },
                {
                    "name": "G4",
                    "midi": 67,
                    "time": 489.6204653333197,
                    "velocity": 0.2125984251968504,
                    "duration": 0.18987349999997605
                },
                {
                    "name": "G3",
                    "midi": 55,
                    "time": 489.87362999998635,
                    "velocity": 0.1968503937007874,
                    "duration": 0.18987349999997605
                },
                {
                    "name": "G4",
                    "midi": 67,
                    "time": 489.87362999998635,
                    "velocity": 0.23622047244094488,
                    "duration": 0.18987349999997605
                },
                {
                    "name": "G3",
                    "midi": 55,
                    "time": 490.126794666653,
                    "velocity": 0.1968503937007874,
                    "duration": 0.18987349999997605
                },
                {
                    "name": "G4",
                    "midi": 67,
                    "time": 490.126794666653,
                    "velocity": 0.23622047244094488,
                    "duration": 0.18987349999997605
                },
                {
                    "name": "G3",
                    "midi": 55,
                    "time": 490.3799593333196,
                    "velocity": 0.1968503937007874,
                    "duration": 0.18987349999997605
                },
                {
                    "name": "G4",
                    "midi": 67,
                    "time": 490.3799593333196,
                    "velocity": 0.23622047244094488,
                    "duration": 0.18987349999997605
                },
                {
                    "name": "G3",
                    "midi": 55,
                    "time": 490.63312399998625,
                    "velocity": 0.25196850393700787,
                    "duration": 0.18987349999997605
                },
                {
                    "name": "G4",
                    "midi": 67,
                    "time": 490.63312399998625,
                    "velocity": 0.2992125984251969,
                    "duration": 0.18987349999997605
                },
                {
                    "name": "G3",
                    "midi": 55,
                    "time": 490.8862886666529,
                    "velocity": 0.1889763779527559,
                    "duration": 0.18987349999997605
                },
                {
                    "name": "G4",
                    "midi": 67,
                    "time": 490.8862886666529,
                    "velocity": 0.2204724409448819,
                    "duration": 0.18987349999997605
                },
                {
                    "name": "G3",
                    "midi": 55,
                    "time": 491.1394533333195,
                    "velocity": 0.1968503937007874,
                    "duration": 0.18987349999997605
                },
                {
                    "name": "G4",
                    "midi": 67,
                    "time": 491.1394533333195,
                    "velocity": 0.23622047244094488,
                    "duration": 0.18987349999997605
                },
                {
                    "name": "G3",
                    "midi": 55,
                    "time": 491.39261799998616,
                    "velocity": 0.25984251968503935,
                    "duration": 0.18987349999997605
                },
                {
                    "name": "G4",
                    "midi": 67,
                    "time": 491.39261799998616,
                    "velocity": 0.30708661417322836,
                    "duration": 0.18987349999997605
                },
                {
                    "name": "G3",
                    "midi": 55,
                    "time": 491.6457826666528,
                    "velocity": 0.1968503937007874,
                    "duration": 0.18987349999997605
                },
                {
                    "name": "G4",
                    "midi": 67,
                    "time": 491.6457826666528,
                    "velocity": 0.23622047244094488,
                    "duration": 0.18987349999997605
                },
                {
                    "name": "F3",
                    "midi": 53,
                    "time": 491.8989473333194,
                    "velocity": 0.1968503937007874,
                    "duration": 0.18987349999997605
                },
                {
                    "name": "F4",
                    "midi": 65,
                    "time": 491.8989473333194,
                    "velocity": 0.23622047244094488,
                    "duration": 0.18987349999997605
                },
                {
                    "name": "D#4",
                    "midi": 63,
                    "time": 492.15211199998606,
                    "velocity": 0.30708661417322836,
                    "duration": 0.18987349999997605
                },
                {
                    "name": "C4",
                    "midi": 60,
                    "time": 492.15211199998606,
                    "velocity": 0.30708661417322836,
                    "duration": 0.18987349999997605
                },
                {
                    "name": "G4",
                    "midi": 67,
                    "time": 492.15211199998606,
                    "velocity": 0.30708661417322836,
                    "duration": 0.18987349999997605
                },
                {
                    "name": "G3",
                    "midi": 55,
                    "time": 492.15211199998606,
                    "velocity": 0.30708661417322836,
                    "duration": 0.18987349999997605
                },
                {
                    "name": "D#4",
                    "midi": 63,
                    "time": 492.4052766666527,
                    "velocity": 0.1732283464566929,
                    "duration": 0.18987349999997605
                },
                {
                    "name": "C4",
                    "midi": 60,
                    "time": 492.4052766666527,
                    "velocity": 0.1732283464566929,
                    "duration": 0.18987349999997605
                },
                {
                    "name": "G3",
                    "midi": 55,
                    "time": 492.4052766666527,
                    "velocity": 0.1732283464566929,
                    "duration": 0.18987349999997605
                },
                {
                    "name": "G4",
                    "midi": 67,
                    "time": 492.4052766666527,
                    "velocity": 0.2125984251968504,
                    "duration": 0.18987349999997605
                },
                {
                    "name": "D#4",
                    "midi": 63,
                    "time": 492.65844133331933,
                    "velocity": 0.1732283464566929,
                    "duration": 0.18987349999997605
                },
                {
                    "name": "C4",
                    "midi": 60,
                    "time": 492.65844133331933,
                    "velocity": 0.1732283464566929,
                    "duration": 0.18987349999997605
                },
                {
                    "name": "G3",
                    "midi": 55,
                    "time": 492.65844133331933,
                    "velocity": 0.1732283464566929,
                    "duration": 0.18987349999997605
                },
                {
                    "name": "G4",
                    "midi": 67,
                    "time": 492.65844133331933,
                    "velocity": 0.2125984251968504,
                    "duration": 0.18987349999997605
                },
                {
                    "name": "D#4",
                    "midi": 63,
                    "time": 492.91160599998597,
                    "velocity": 0.1732283464566929,
                    "duration": 0.18987349999997605
                },
                {
                    "name": "C4",
                    "midi": 60,
                    "time": 492.91160599998597,
                    "velocity": 0.1732283464566929,
                    "duration": 0.18987349999997605
                },
                {
                    "name": "G3",
                    "midi": 55,
                    "time": 492.91160599998597,
                    "velocity": 0.1968503937007874,
                    "duration": 0.18987349999997605
                },
                {
                    "name": "G4",
                    "midi": 67,
                    "time": 492.91160599998597,
                    "velocity": 0.23622047244094488,
                    "duration": 0.18987349999997605
                },
                {
                    "name": "D#4",
                    "midi": 63,
                    "time": 493.1647706666526,
                    "velocity": 0.1732283464566929,
                    "duration": 0.18987349999997605
                },
                {
                    "name": "C4",
                    "midi": 60,
                    "time": 493.1647706666526,
                    "velocity": 0.1732283464566929,
                    "duration": 0.18987349999997605
                },
                {
                    "name": "G3",
                    "midi": 55,
                    "time": 493.1647706666526,
                    "velocity": 0.1968503937007874,
                    "duration": 0.18987349999997605
                },
                {
                    "name": "G4",
                    "midi": 67,
                    "time": 493.1647706666526,
                    "velocity": 0.23622047244094488,
                    "duration": 0.18987349999997605
                },
                {
                    "name": "D#4",
                    "midi": 63,
                    "time": 493.41793533331924,
                    "velocity": 0.1732283464566929,
                    "duration": 0.18987349999997605
                },
                {
                    "name": "C4",
                    "midi": 60,
                    "time": 493.41793533331924,
                    "velocity": 0.1732283464566929,
                    "duration": 0.18987349999997605
                },
                {
                    "name": "G3",
                    "midi": 55,
                    "time": 493.41793533331924,
                    "velocity": 0.1968503937007874,
                    "duration": 0.18987349999997605
                },
                {
                    "name": "G4",
                    "midi": 67,
                    "time": 493.41793533331924,
                    "velocity": 0.23622047244094488,
                    "duration": 0.18987349999997605
                },
                {
                    "name": "D4",
                    "midi": 62,
                    "time": 493.67109999998587,
                    "velocity": 0.25196850393700787,
                    "duration": 0.18987349999997605
                },
                {
                    "name": "B3",
                    "midi": 59,
                    "time": 493.67109999998587,
                    "velocity": 0.25196850393700787,
                    "duration": 0.18987349999997605
                },
                {
                    "name": "G3",
                    "midi": 55,
                    "time": 493.67109999998587,
                    "velocity": 0.25196850393700787,
                    "duration": 0.18987349999997605
                },
                {
                    "name": "G4",
                    "midi": 67,
                    "time": 493.67109999998587,
                    "velocity": 0.2992125984251969,
                    "duration": 0.18987349999997605
                },
                {
                    "name": "D4",
                    "midi": 62,
                    "time": 493.9242646666525,
                    "velocity": 0.25196850393700787,
                    "duration": 0.18987349999997605
                },
                {
                    "name": "B3",
                    "midi": 59,
                    "time": 493.9242646666525,
                    "velocity": 0.25196850393700787,
                    "duration": 0.18987349999997605
                },
                {
                    "name": "G3",
                    "midi": 55,
                    "time": 493.9242646666525,
                    "velocity": 0.1889763779527559,
                    "duration": 0.18987349999997605
                },
                {
                    "name": "G4",
                    "midi": 67,
                    "time": 493.9242646666525,
                    "velocity": 0.2204724409448819,
                    "duration": 0.18987349999997605
                },
                {
                    "name": "D4",
                    "midi": 62,
                    "time": 494.17742933331914,
                    "velocity": 0.25196850393700787,
                    "duration": 0.18987349999997605
                },
                {
                    "name": "B3",
                    "midi": 59,
                    "time": 494.17742933331914,
                    "velocity": 0.25196850393700787,
                    "duration": 0.18987349999997605
                },
                {
                    "name": "G3",
                    "midi": 55,
                    "time": 494.17742933331914,
                    "velocity": 0.1968503937007874,
                    "duration": 0.18987349999997605
                },
                {
                    "name": "G4",
                    "midi": 67,
                    "time": 494.17742933331914,
                    "velocity": 0.23622047244094488,
                    "duration": 0.18987349999997605
                },
                {
                    "name": "D4",
                    "midi": 62,
                    "time": 494.4305939999858,
                    "velocity": 0.25984251968503935,
                    "duration": 0.18987349999997605
                },
                {
                    "name": "B3",
                    "midi": 59,
                    "time": 494.4305939999858,
                    "velocity": 0.25984251968503935,
                    "duration": 0.18987349999997605
                },
                {
                    "name": "G3",
                    "midi": 55,
                    "time": 494.4305939999858,
                    "velocity": 0.25984251968503935,
                    "duration": 0.18987349999997605
                },
                {
                    "name": "G4",
                    "midi": 67,
                    "time": 494.4305939999858,
                    "velocity": 0.30708661417322836,
                    "duration": 0.18987349999997605
                },
                {
                    "name": "D4",
                    "midi": 62,
                    "time": 494.6837586666524,
                    "velocity": 0.1968503937007874,
                    "duration": 0.18987349999997605
                },
                {
                    "name": "B3",
                    "midi": 59,
                    "time": 494.6837586666524,
                    "velocity": 0.1968503937007874,
                    "duration": 0.18987349999997605
                },
                {
                    "name": "G3",
                    "midi": 55,
                    "time": 494.6837586666524,
                    "velocity": 0.1968503937007874,
                    "duration": 0.18987349999997605
                },
                {
                    "name": "G4",
                    "midi": 67,
                    "time": 494.6837586666524,
                    "velocity": 0.23622047244094488,
                    "duration": 0.18987349999997605
                },
                {
                    "name": "D4",
                    "midi": 62,
                    "time": 494.93692333331904,
                    "velocity": 0.1968503937007874,
                    "duration": 0.18987349999997605
                },
                {
                    "name": "B3",
                    "midi": 59,
                    "time": 494.93692333331904,
                    "velocity": 0.1968503937007874,
                    "duration": 0.18987349999997605
                },
                {
                    "name": "G3",
                    "midi": 55,
                    "time": 494.93692333331904,
                    "velocity": 0.1968503937007874,
                    "duration": 0.18987349999997605
                },
                {
                    "name": "G4",
                    "midi": 67,
                    "time": 494.93692333331904,
                    "velocity": 0.23622047244094488,
                    "duration": 0.18987349999997605
                },
                {
                    "name": "D#4",
                    "midi": 63,
                    "time": 495.1900879999857,
                    "velocity": 0.30708661417322836,
                    "duration": 0.18987349999997605
                },
                {
                    "name": "C4",
                    "midi": 60,
                    "time": 495.1900879999857,
                    "velocity": 0.30708661417322836,
                    "duration": 0.18987349999997605
                },
                {
                    "name": "G4",
                    "midi": 67,
                    "time": 495.1900879999857,
                    "velocity": 0.30708661417322836,
                    "duration": 0.18987349999997605
                },
                {
                    "name": "G3",
                    "midi": 55,
                    "time": 495.1900879999857,
                    "velocity": 0.30708661417322836,
                    "duration": 0.18987349999997605
                },
                {
                    "name": "G3",
                    "midi": 55,
                    "time": 495.4432526666523,
                    "velocity": 0.1732283464566929,
                    "duration": 0.18987349999997605
                },
                {
                    "name": "G4",
                    "midi": 67,
                    "time": 495.4432526666523,
                    "velocity": 0.2125984251968504,
                    "duration": 0.18987349999997605
                },
                {
                    "name": "G3",
                    "midi": 55,
                    "time": 495.69641733331895,
                    "velocity": 0.1732283464566929,
                    "duration": 0.18987349999997605
                },
                {
                    "name": "G4",
                    "midi": 67,
                    "time": 495.69641733331895,
                    "velocity": 0.2125984251968504,
                    "duration": 0.18987349999997605
                },
                {
                    "name": "G3",
                    "midi": 55,
                    "time": 495.9495819999856,
                    "velocity": 0.2204724409448819,
                    "duration": 0.18987349999997605
                },
                {
                    "name": "G4",
                    "midi": 67,
                    "time": 495.9495819999856,
                    "velocity": 0.2677165354330709,
                    "duration": 0.18987349999997605
                },
                {
                    "name": "G3",
                    "midi": 55,
                    "time": 496.2027466666522,
                    "velocity": 0.2283464566929134,
                    "duration": 0.18987349999997605
                },
                {
                    "name": "G4",
                    "midi": 67,
                    "time": 496.2027466666522,
                    "velocity": 0.2755905511811024,
                    "duration": 0.18987349999997605
                },
                {
                    "name": "G3",
                    "midi": 55,
                    "time": 496.45591133331885,
                    "velocity": 0.23622047244094488,
                    "duration": 0.18987349999997605
                },
                {
                    "name": "G4",
                    "midi": 67,
                    "time": 496.45591133331885,
                    "velocity": 0.28346456692913385,
                    "duration": 0.18987349999997605
                },
                {
                    "name": "G3",
                    "midi": 55,
                    "time": 496.7090759999855,
                    "velocity": 0.31496062992125984,
                    "duration": 0.18987349999997605
                },
                {
                    "name": "G4",
                    "midi": 67,
                    "time": 496.7090759999855,
                    "velocity": 0.3779527559055118,
                    "duration": 0.18987349999997605
                },
                {
                    "name": "G3",
                    "midi": 55,
                    "time": 496.9622406666521,
                    "velocity": 0.25196850393700787,
                    "duration": 0.18987349999997605
                },
                {
                    "name": "G4",
                    "midi": 67,
                    "time": 496.9622406666521,
                    "velocity": 0.28346456692913385,
                    "duration": 0.18987349999997605
                },
                {
                    "name": "G3",
                    "midi": 55,
                    "time": 497.21540533331876,
                    "velocity": 0.2677165354330709,
                    "duration": 0.18987349999997605
                },
                {
                    "name": "G4",
                    "midi": 67,
                    "time": 497.21540533331876,
                    "velocity": 0.3228346456692913,
                    "duration": 0.18987349999997605
                },
                {
                    "name": "G3",
                    "midi": 55,
                    "time": 497.4685699999854,
                    "velocity": 0.3700787401574803,
                    "duration": 0.18987349999997605
                },
                {
                    "name": "G4",
                    "midi": 67,
                    "time": 497.4685699999854,
                    "velocity": 0.4409448818897638,
                    "duration": 0.18987349999997605
                },
                {
                    "name": "G3",
                    "midi": 55,
                    "time": 497.721734666652,
                    "velocity": 0.28346456692913385,
                    "duration": 0.18987349999997605
                },
                {
                    "name": "G4",
                    "midi": 67,
                    "time": 497.721734666652,
                    "velocity": 0.33858267716535434,
                    "duration": 0.18987349999997605
                },
                {
                    "name": "G3",
                    "midi": 55,
                    "time": 497.97489933331866,
                    "velocity": 0.29133858267716534,
                    "duration": 0.18987349999997605
                },
                {
                    "name": "G4",
                    "midi": 67,
                    "time": 497.97489933331866,
                    "velocity": 0.3464566929133858,
                    "duration": 0.18987349999997605
                },
                {
                    "name": "G4",
                    "midi": 67,
                    "time": 498.2280639999853,
                    "velocity": 0.4645669291338583,
                    "duration": 0.18987349999997605
                },
                {
                    "name": "G3",
                    "midi": 55,
                    "time": 498.2280639999853,
                    "velocity": 0.4645669291338583,
                    "duration": 0.18987349999997605
                },
                {
                    "name": "G3",
                    "midi": 55,
                    "time": 498.48122866665193,
                    "velocity": 0.25984251968503935,
                    "duration": 0.18987349999997605
                },
                {
                    "name": "G4",
                    "midi": 67,
                    "time": 498.48122866665193,
                    "velocity": 0.3228346456692913,
                    "duration": 0.18987349999997605
                },
                {
                    "name": "G3",
                    "midi": 55,
                    "time": 498.73439333331856,
                    "velocity": 0.25984251968503935,
                    "duration": 0.18987349999997605
                },
                {
                    "name": "G4",
                    "midi": 67,
                    "time": 498.73439333331856,
                    "velocity": 0.3228346456692913,
                    "duration": 0.18987349999997605
                },
                {
                    "name": "G3",
                    "midi": 55,
                    "time": 498.9875579999852,
                    "velocity": 0.29133858267716534,
                    "duration": 0.18987349999997605
                },
                {
                    "name": "G4",
                    "midi": 67,
                    "time": 498.9875579999852,
                    "velocity": 0.36220472440944884,
                    "duration": 0.18987349999997605
                },
                {
                    "name": "G3",
                    "midi": 55,
                    "time": 499.24072266665183,
                    "velocity": 0.29133858267716534,
                    "duration": 0.18987349999997605
                },
                {
                    "name": "G4",
                    "midi": 67,
                    "time": 499.24072266665183,
                    "velocity": 0.36220472440944884,
                    "duration": 0.18987349999997605
                },
                {
                    "name": "G3",
                    "midi": 55,
                    "time": 499.49388733331847,
                    "velocity": 0.29133858267716534,
                    "duration": 0.18987349999997605
                },
                {
                    "name": "G4",
                    "midi": 67,
                    "time": 499.49388733331847,
                    "velocity": 0.36220472440944884,
                    "duration": 0.18987349999997605
                },
                {
                    "name": "G3",
                    "midi": 55,
                    "time": 499.7470519999851,
                    "velocity": 0.3858267716535433,
                    "duration": 0.18987349999997605
                },
                {
                    "name": "G4",
                    "midi": 67,
                    "time": 499.7470519999851,
                    "velocity": 0.4566929133858268,
                    "duration": 0.18987349999997605
                },
                {
                    "name": "G3",
                    "midi": 55,
                    "time": 500.00021666665174,
                    "velocity": 0.28346456692913385,
                    "duration": 0.18987349999997605
                },
                {
                    "name": "G4",
                    "midi": 67,
                    "time": 500.00021666665174,
                    "velocity": 0.33070866141732286,
                    "duration": 0.18987349999997605
                },
                {
                    "name": "G3",
                    "midi": 55,
                    "time": 500.2533813333184,
                    "velocity": 0.29133858267716534,
                    "duration": 0.18987349999997605
                },
                {
                    "name": "G4",
                    "midi": 67,
                    "time": 500.2533813333184,
                    "velocity": 0.36220472440944884,
                    "duration": 0.18987349999997605
                },
                {
                    "name": "G#3",
                    "midi": 56,
                    "time": 500.506545999985,
                    "velocity": 0.4330708661417323,
                    "duration": 0.18987349999997605
                },
                {
                    "name": "G#4",
                    "midi": 68,
                    "time": 500.506545999985,
                    "velocity": 0.5118110236220472,
                    "duration": 0.18987349999997605
                },
                {
                    "name": "G#3",
                    "midi": 56,
                    "time": 500.75971066665164,
                    "velocity": 0.33070866141732286,
                    "duration": 0.18987349999997605
                },
                {
                    "name": "G#4",
                    "midi": 68,
                    "time": 500.75971066665164,
                    "velocity": 0.4094488188976378,
                    "duration": 0.18987349999997605
                },
                {
                    "name": "G#3",
                    "midi": 56,
                    "time": 501.0128753333183,
                    "velocity": 0.3464566929133858,
                    "duration": 0.18987349999997605
                },
                {
                    "name": "G#4",
                    "midi": 68,
                    "time": 501.0128753333183,
                    "velocity": 0.4330708661417323,
                    "duration": 0.18987349999997605
                },
                {
                    "name": "G4",
                    "midi": 67,
                    "time": 501.2660399999849,
                    "velocity": 0.5511811023622047,
                    "duration": 0.18987349999997605
                },
                {
                    "name": "G3",
                    "midi": 55,
                    "time": 501.2660399999849,
                    "velocity": 0.5511811023622047,
                    "duration": 0.18987349999997605
                },
                {
                    "name": "G3",
                    "midi": 55,
                    "time": 501.51920466665155,
                    "velocity": 0.31496062992125984,
                    "duration": 0.18987349999997605
                },
                {
                    "name": "G4",
                    "midi": 67,
                    "time": 501.51920466665155,
                    "velocity": 0.3937007874015748,
                    "duration": 0.18987349999997605
                },
                {
                    "name": "G3",
                    "midi": 55,
                    "time": 501.7723693333182,
                    "velocity": 0.31496062992125984,
                    "duration": 0.18987349999997605
                },
                {
                    "name": "G4",
                    "midi": 67,
                    "time": 501.7723693333182,
                    "velocity": 0.3937007874015748,
                    "duration": 0.18987349999997605
                },
                {
                    "name": "G3",
                    "midi": 55,
                    "time": 502.0255339999848,
                    "velocity": 0.36220472440944884,
                    "duration": 0.18987349999997605
                },
                {
                    "name": "G4",
                    "midi": 67,
                    "time": 502.0255339999848,
                    "velocity": 0.4330708661417323,
                    "duration": 0.18987349999997605
                },
                {
                    "name": "G3",
                    "midi": 55,
                    "time": 502.27869866665145,
                    "velocity": 0.3464566929133858,
                    "duration": 0.18987349999997605
                },
                {
                    "name": "G4",
                    "midi": 67,
                    "time": 502.27869866665145,
                    "velocity": 0.4330708661417323,
                    "duration": 0.18987349999997605
                },
                {
                    "name": "G3",
                    "midi": 55,
                    "time": 502.5318633333181,
                    "velocity": 0.3464566929133858,
                    "duration": 0.18987349999997605
                },
                {
                    "name": "G4",
                    "midi": 67,
                    "time": 502.5318633333181,
                    "velocity": 0.4251968503937008,
                    "duration": 0.18987349999997605
                },
                {
                    "name": "G3",
                    "midi": 55,
                    "time": 502.7850279999847,
                    "velocity": 0.44881889763779526,
                    "duration": 0.18987349999997605
                },
                {
                    "name": "G4",
                    "midi": 67,
                    "time": 502.7850279999847,
                    "velocity": 0.5433070866141733,
                    "duration": 0.18987349999997605
                },
                {
                    "name": "G3",
                    "midi": 55,
                    "time": 503.03819266665136,
                    "velocity": 0.33070866141732286,
                    "duration": 0.18987349999997605
                },
                {
                    "name": "G4",
                    "midi": 67,
                    "time": 503.03819266665136,
                    "velocity": 0.3858267716535433,
                    "duration": 0.18987349999997605
                },
                {
                    "name": "G3",
                    "midi": 55,
                    "time": 503.291357333318,
                    "velocity": 0.33070866141732286,
                    "duration": 0.18987349999997605
                },
                {
                    "name": "G4",
                    "midi": 67,
                    "time": 503.291357333318,
                    "velocity": 0.4094488188976378,
                    "duration": 0.18987349999997605
                },
                {
                    "name": "G3",
                    "midi": 55,
                    "time": 503.5445219999846,
                    "velocity": 0.44881889763779526,
                    "duration": 0.18987349999997605
                },
                {
                    "name": "G4",
                    "midi": 67,
                    "time": 503.5445219999846,
                    "velocity": 0.5275590551181102,
                    "duration": 0.18987349999997605
                },
                {
                    "name": "G3",
                    "midi": 55,
                    "time": 503.79768666665126,
                    "velocity": 0.33070866141732286,
                    "duration": 0.18987349999997605
                },
                {
                    "name": "G4",
                    "midi": 67,
                    "time": 503.79768666665126,
                    "velocity": 0.4015748031496063,
                    "duration": 0.18987349999997605
                },
                {
                    "name": "F3",
                    "midi": 53,
                    "time": 504.0508513333179,
                    "velocity": 0.3228346456692913,
                    "duration": 0.18987349999997605
                },
                {
                    "name": "F4",
                    "midi": 65,
                    "time": 504.0508513333179,
                    "velocity": 0.3937007874015748,
                    "duration": 0.18987349999997605
                },
                {
                    "name": "E4",
                    "midi": 64,
                    "time": 504.30401599998453,
                    "velocity": 0.4645669291338583,
                    "duration": 0.18987349999997605
                },
                {
                    "name": "C4",
                    "midi": 60,
                    "time": 504.30401599998453,
                    "velocity": 0.4645669291338583,
                    "duration": 0.18987349999997605
                },
                {
                    "name": "G4",
                    "midi": 67,
                    "time": 504.30401599998453,
                    "velocity": 0.4645669291338583,
                    "duration": 0.18987349999997605
                },
                {
                    "name": "G3",
                    "midi": 55,
                    "time": 504.30401599998453,
                    "velocity": 0.4645669291338583,
                    "duration": 0.18987349999997605
                },
                {
                    "name": "E4",
                    "midi": 64,
                    "time": 504.55718066665116,
                    "velocity": 0.25984251968503935,
                    "duration": 0.18987349999997605
                },
                {
                    "name": "C4",
                    "midi": 60,
                    "time": 504.55718066665116,
                    "velocity": 0.25984251968503935,
                    "duration": 0.18987349999997605
                },
                {
                    "name": "G3",
                    "midi": 55,
                    "time": 504.55718066665116,
                    "velocity": 0.25984251968503935,
                    "duration": 0.18987349999997605
                },
                {
                    "name": "G4",
                    "midi": 67,
                    "time": 504.55718066665116,
                    "velocity": 0.3228346456692913,
                    "duration": 0.18987349999997605
                },
                {
                    "name": "E4",
                    "midi": 64,
                    "time": 504.8103453333178,
                    "velocity": 0.25984251968503935,
                    "duration": 0.18987349999997605
                },
                {
                    "name": "C4",
                    "midi": 60,
                    "time": 504.8103453333178,
                    "velocity": 0.25984251968503935,
                    "duration": 0.18987349999997605
                },
                {
                    "name": "G3",
                    "midi": 55,
                    "time": 504.8103453333178,
                    "velocity": 0.25984251968503935,
                    "duration": 0.18987349999997605
                },
                {
                    "name": "G4",
                    "midi": 67,
                    "time": 504.8103453333178,
                    "velocity": 0.3228346456692913,
                    "duration": 0.18987349999997605
                },
                {
                    "name": "E4",
                    "midi": 64,
                    "time": 505.06350999998443,
                    "velocity": 0.25984251968503935,
                    "duration": 0.18987349999997605
                },
                {
                    "name": "C4",
                    "midi": 60,
                    "time": 505.06350999998443,
                    "velocity": 0.25984251968503935,
                    "duration": 0.18987349999997605
                },
                {
                    "name": "G3",
                    "midi": 55,
                    "time": 505.06350999998443,
                    "velocity": 0.29133858267716534,
                    "duration": 0.18987349999997605
                },
                {
                    "name": "G4",
                    "midi": 67,
                    "time": 505.06350999998443,
                    "velocity": 0.36220472440944884,
                    "duration": 0.18987349999997605
                },
                {
                    "name": "E4",
                    "midi": 64,
                    "time": 505.31667466665107,
                    "velocity": 0.25984251968503935,
                    "duration": 0.18987349999997605
                },
                {
                    "name": "C4",
                    "midi": 60,
                    "time": 505.31667466665107,
                    "velocity": 0.25984251968503935,
                    "duration": 0.18987349999997605
                },
                {
                    "name": "G3",
                    "midi": 55,
                    "time": 505.31667466665107,
                    "velocity": 0.29133858267716534,
                    "duration": 0.18987349999997605
                },
                {
                    "name": "G4",
                    "midi": 67,
                    "time": 505.31667466665107,
                    "velocity": 0.36220472440944884,
                    "duration": 0.18987349999997605
                },
                {
                    "name": "E4",
                    "midi": 64,
                    "time": 505.5698393333177,
                    "velocity": 0.25984251968503935,
                    "duration": 0.18987349999997605
                },
                {
                    "name": "C4",
                    "midi": 60,
                    "time": 505.5698393333177,
                    "velocity": 0.25984251968503935,
                    "duration": 0.18987349999997605
                },
                {
                    "name": "G3",
                    "midi": 55,
                    "time": 505.5698393333177,
                    "velocity": 0.29133858267716534,
                    "duration": 0.18987349999997605
                },
                {
                    "name": "G4",
                    "midi": 67,
                    "time": 505.5698393333177,
                    "velocity": 0.36220472440944884,
                    "duration": 0.18987349999997605
                },
                {
                    "name": "D4",
                    "midi": 62,
                    "time": 505.82300399998434,
                    "velocity": 0.3858267716535433,
                    "duration": 0.18987349999997605
                },
                {
                    "name": "B3",
                    "midi": 59,
                    "time": 505.82300399998434,
                    "velocity": 0.3858267716535433,
                    "duration": 0.18987349999997605
                },
                {
                    "name": "G3",
                    "midi": 55,
                    "time": 505.82300399998434,
                    "velocity": 0.3858267716535433,
                    "duration": 0.18987349999997605
                },
                {
                    "name": "G4",
                    "midi": 67,
                    "time": 505.82300399998434,
                    "velocity": 0.4566929133858268,
                    "duration": 0.18987349999997605
                },
                {
                    "name": "D4",
                    "midi": 62,
                    "time": 506.076168666651,
                    "velocity": 0.3858267716535433,
                    "duration": 0.18987349999997605
                },
                {
                    "name": "B3",
                    "midi": 59,
                    "time": 506.076168666651,
                    "velocity": 0.3858267716535433,
                    "duration": 0.18987349999997605
                },
                {
                    "name": "G3",
                    "midi": 55,
                    "time": 506.076168666651,
                    "velocity": 0.28346456692913385,
                    "duration": 0.18987349999997605
                },
                {
                    "name": "G4",
                    "midi": 67,
                    "time": 506.076168666651,
                    "velocity": 0.33070866141732286,
                    "duration": 0.18987349999997605
                },
                {
                    "name": "D4",
                    "midi": 62,
                    "time": 506.3293333333176,
                    "velocity": 0.3858267716535433,
                    "duration": 0.18987349999997605
                },
                {
                    "name": "B3",
                    "midi": 59,
                    "time": 506.3293333333176,
                    "velocity": 0.3858267716535433,
                    "duration": 0.18987349999997605
                },
                {
                    "name": "G3",
                    "midi": 55,
                    "time": 506.3293333333176,
                    "velocity": 0.29133858267716534,
                    "duration": 0.18987349999997605
                },
                {
                    "name": "G4",
                    "midi": 67,
                    "time": 506.3293333333176,
                    "velocity": 0.36220472440944884,
                    "duration": 0.18987349999997605
                },
                {
                    "name": "D4",
                    "midi": 62,
                    "time": 506.58249799998424,
                    "velocity": 0.3937007874015748,
                    "duration": 0.18987349999997605
                },
                {
                    "name": "B3",
                    "midi": 59,
                    "time": 506.58249799998424,
                    "velocity": 0.3937007874015748,
                    "duration": 0.18987349999997605
                },
                {
                    "name": "G3",
                    "midi": 55,
                    "time": 506.58249799998424,
                    "velocity": 0.3937007874015748,
                    "duration": 0.18987349999997605
                },
                {
                    "name": "G4",
                    "midi": 67,
                    "time": 506.58249799998424,
                    "velocity": 0.4645669291338583,
                    "duration": 0.18987349999997605
                },
                {
                    "name": "D4",
                    "midi": 62,
                    "time": 506.8356626666509,
                    "velocity": 0.29133858267716534,
                    "duration": 0.18987349999997605
                },
                {
                    "name": "B3",
                    "midi": 59,
                    "time": 506.8356626666509,
                    "velocity": 0.29133858267716534,
                    "duration": 0.18987349999997605
                },
                {
                    "name": "G3",
                    "midi": 55,
                    "time": 506.8356626666509,
                    "velocity": 0.29133858267716534,
                    "duration": 0.18987349999997605
                },
                {
                    "name": "G4",
                    "midi": 67,
                    "time": 506.8356626666509,
                    "velocity": 0.36220472440944884,
                    "duration": 0.18987349999997605
                },
                {
                    "name": "D4",
                    "midi": 62,
                    "time": 507.0888273333175,
                    "velocity": 0.29133858267716534,
                    "duration": 0.18987349999997605
                },
                {
                    "name": "B3",
                    "midi": 59,
                    "time": 507.0888273333175,
                    "velocity": 0.29133858267716534,
                    "duration": 0.18987349999997605
                },
                {
                    "name": "G3",
                    "midi": 55,
                    "time": 507.0888273333175,
                    "velocity": 0.29133858267716534,
                    "duration": 0.18987349999997605
                },
                {
                    "name": "G4",
                    "midi": 67,
                    "time": 507.0888273333175,
                    "velocity": 0.36220472440944884,
                    "duration": 0.18987349999997605
                },
                {
                    "name": "G3",
                    "midi": 55,
                    "time": 507.34199199998415,
                    "velocity": 0.31496062992125984,
                    "duration": 1.518987999999979
                },
                {
                    "name": "C4",
                    "midi": 60,
                    "time": 507.34199199998415,
                    "velocity": 0.31496062992125984,
                    "duration": 1.518987999999979
                },
                {
                    "name": "E4",
                    "midi": 64,
                    "time": 507.34199199998415,
                    "velocity": 0.31496062992125984,
                    "duration": 1.518987999999979
                },
                {
                    "name": "G4",
                    "midi": 67,
                    "time": 507.34199199998415,
                    "velocity": 0.3779527559055118,
                    "duration": 1.518987999999979
                },
                {
                    "name": "D4",
                    "midi": 62,
                    "time": 509.62047399998414,
                    "velocity": 0.29133858267716534,
                    "duration": 0.569620499999985
                },
                {
                    "name": "G4",
                    "midi": 67,
                    "time": 509.62047399998414,
                    "velocity": 0.29133858267716534,
                    "duration": 0.569620499999985
                },
                {
                    "name": "B4",
                    "midi": 71,
                    "time": 509.62047399998414,
                    "velocity": 0.3464566929133858,
                    "duration": 0.569620499999985
                },
                {
                    "name": "E4",
                    "midi": 64,
                    "time": 510.1900944999841,
                    "velocity": 0.25196850393700787,
                    "duration": 0.18987349999997605
                },
                {
                    "name": "G4",
                    "midi": 67,
                    "time": 510.1900944999841,
                    "velocity": 0.25196850393700787,
                    "duration": 0.18987349999997605
                },
                {
                    "name": "C5",
                    "midi": 72,
                    "time": 510.1900944999841,
                    "velocity": 0.2992125984251969,
                    "duration": 0.18987349999997605
                },
                {
                    "name": "F4",
                    "midi": 65,
                    "time": 510.3799679999841,
                    "velocity": 0.2755905511811024,
                    "duration": 0.569620499999985
                },
                {
                    "name": "G4",
                    "midi": 67,
                    "time": 510.3799679999841,
                    "velocity": 0.2755905511811024,
                    "duration": 0.569620499999985
                },
                {
                    "name": "D5",
                    "midi": 74,
                    "time": 510.3799679999841,
                    "velocity": 0.4015748031496063,
                    "duration": 0.5348103583333454
                },
                {
                    "name": "G4",
                    "midi": 67,
                    "time": 511.13946199998406,
                    "velocity": 0.2755905511811024,
                    "duration": 0.569620499999985
                },
                {
                    "name": "F4",
                    "midi": 65,
                    "time": 511.13946199998406,
                    "velocity": 0.2755905511811024,
                    "duration": 0.569620499999985
                },
                {
                    "name": "D5",
                    "midi": 74,
                    "time": 511.13946199998406,
                    "velocity": 0.33070866141732286,
                    "duration": 0.5348103583333454
                },
                {
                    "name": "F4",
                    "midi": 65,
                    "time": 511.898955999984,
                    "velocity": 0.2755905511811024,
                    "duration": 0.569620499999985
                },
                {
                    "name": "G4",
                    "midi": 67,
                    "time": 511.898955999984,
                    "velocity": 0.2755905511811024,
                    "duration": 0.569620499999985
                },
                {
                    "name": "D5",
                    "midi": 74,
                    "time": 511.898955999984,
                    "velocity": 0.33070866141732286,
                    "duration": 0.5348103583333454
                },
                {
                    "name": "E4",
                    "midi": 64,
                    "time": 512.658449999984,
                    "velocity": 0.30708661417322836,
                    "duration": 0.5696205000000418
                },
                {
                    "name": "G4",
                    "midi": 67,
                    "time": 512.658449999984,
                    "velocity": 0.30708661417322836,
                    "duration": 0.5696205000000418
                },
                {
                    "name": "C5",
                    "midi": 72,
                    "time": 512.658449999984,
                    "velocity": 0.36220472440944884,
                    "duration": 0.5696205000000418
                },
                {
                    "name": "F4",
                    "midi": 65,
                    "time": 513.228070499984,
                    "velocity": 0.30708661417322836,
                    "duration": 0.18987349999997605
                },
                {
                    "name": "G4",
                    "midi": 67,
                    "time": 513.228070499984,
                    "velocity": 0.30708661417322836,
                    "duration": 0.18987349999997605
                },
                {
                    "name": "D5",
                    "midi": 74,
                    "time": 513.228070499984,
                    "velocity": 0.3700787401574803,
                    "duration": 0.18987349999997605
                },
                {
                    "name": "G4",
                    "midi": 67,
                    "time": 513.417943999984,
                    "velocity": 0.3543307086614173,
                    "duration": 1.13924099999997
                },
                {
                    "name": "E5",
                    "midi": 76,
                    "time": 513.417943999984,
                    "velocity": 0.41732283464566927,
                    "duration": 1.13924099999997
                },
                {
                    "name": "F4",
                    "midi": 65,
                    "time": 514.557184999984,
                    "velocity": 0.29133858267716534,
                    "duration": 0.3797469999999521
                },
                {
                    "name": "G4",
                    "midi": 67,
                    "time": 514.557184999984,
                    "velocity": 0.29133858267716534,
                    "duration": 0.3797469999999521
                },
                {
                    "name": "D5",
                    "midi": 74,
                    "time": 514.557184999984,
                    "velocity": 0.3464566929133858,
                    "duration": 0.3797469999999521
                },
                {
                    "name": "E4",
                    "midi": 64,
                    "time": 514.9369319999839,
                    "velocity": 0.25984251968503935,
                    "duration": 0.7594940000000179
                },
                {
                    "name": "G4",
                    "midi": 67,
                    "time": 514.9369319999839,
                    "velocity": 0.25984251968503935,
                    "duration": 0.7594940000000179
                },
                {
                    "name": "C5",
                    "midi": 72,
                    "time": 514.9369319999839,
                    "velocity": 0.30708661417322836,
                    "duration": 0.7594940000000179
                },
                {
                    "name": "F4",
                    "midi": 65,
                    "time": 515.696425999984,
                    "velocity": 0.3228346456692913,
                    "duration": 0.5696205000000418
                },
                {
                    "name": "G4",
                    "midi": 67,
                    "time": 515.696425999984,
                    "velocity": 0.3228346456692913,
                    "duration": 0.5696205000000418
                },
                {
                    "name": "D5",
                    "midi": 74,
                    "time": 515.696425999984,
                    "velocity": 0.3858267716535433,
                    "duration": 0.5696205000000418
                },
                {
                    "name": "E4",
                    "midi": 64,
                    "time": 516.266046499984,
                    "velocity": 0.2755905511811024,
                    "duration": 0.18987349999997605
                },
                {
                    "name": "G4",
                    "midi": 67,
                    "time": 516.266046499984,
                    "velocity": 0.2755905511811024,
                    "duration": 0.18987349999997605
                },
                {
                    "name": "C5",
                    "midi": 72,
                    "time": 516.266046499984,
                    "velocity": 0.33070866141732286,
                    "duration": 0.18987349999997605
                },
                {
                    "name": "D4",
                    "midi": 62,
                    "time": 516.455919999984,
                    "velocity": 0.30708661417322836,
                    "duration": 0.7594940000000179
                },
                {
                    "name": "G4",
                    "midi": 67,
                    "time": 516.455919999984,
                    "velocity": 0.30708661417322836,
                    "duration": 0.7594940000000179
                },
                {
                    "name": "B4",
                    "midi": 71,
                    "time": 516.455919999984,
                    "velocity": 0.36220472440944884,
                    "duration": 0.7594940000000179
                },
                {
                    "name": "C4",
                    "midi": 60,
                    "time": 517.215413999984,
                    "velocity": 0.29133858267716534,
                    "duration": 0.5696205000000418
                },
                {
                    "name": "G4",
                    "midi": 67,
                    "time": 517.215413999984,
                    "velocity": 0.29133858267716534,
                    "duration": 0.5696205000000418
                },
                {
                    "name": "A4",
                    "midi": 69,
                    "time": 517.215413999984,
                    "velocity": 0.3464566929133858,
                    "duration": 0.5696205000000418
                },
                {
                    "name": "D4",
                    "midi": 62,
                    "time": 517.785034499984,
                    "velocity": 0.23622047244094488,
                    "duration": 0.18987349999997605
                },
                {
                    "name": "G4",
                    "midi": 67,
                    "time": 517.785034499984,
                    "velocity": 0.23622047244094488,
                    "duration": 0.18987349999997605
                },
                {
                    "name": "B4",
                    "midi": 71,
                    "time": 517.785034499984,
                    "velocity": 0.28346456692913385,
                    "duration": 0.18987349999997605
                },
                {
                    "name": "E4",
                    "midi": 64,
                    "time": 517.974907999984,
                    "velocity": 0.31496062992125984,
                    "duration": 0.7594940000000179
                },
                {
                    "name": "G4",
                    "midi": 67,
                    "time": 517.974907999984,
                    "velocity": 0.31496062992125984,
                    "duration": 0.7594940000000179
                },
                {
                    "name": "C5",
                    "midi": 72,
                    "time": 517.974907999984,
                    "velocity": 0.3779527559055118,
                    "duration": 0.7594940000000179
                },
                {
                    "name": "G4",
                    "midi": 67,
                    "time": 518.734401999984,
                    "velocity": 0.28346456692913385,
                    "duration": 0.5696205000000418
                },
                {
                    "name": "B4",
                    "midi": 71,
                    "time": 518.734401999984,
                    "velocity": 0.28346456692913385,
                    "duration": 0.5696205000000418
                },
                {
                    "name": "D5",
                    "midi": 74,
                    "time": 518.734401999984,
                    "velocity": 0.33858267716535434,
                    "duration": 0.5696205000000418
                },
                {
                    "name": "G4",
                    "midi": 67,
                    "time": 519.3040224999841,
                    "velocity": 0.29133858267716534,
                    "duration": 0.18987349999997605
                },
                {
                    "name": "C5",
                    "midi": 72,
                    "time": 519.3040224999841,
                    "velocity": 0.29133858267716534,
                    "duration": 0.18987349999997605
                },
                {
                    "name": "E5",
                    "midi": 76,
                    "time": 519.3040224999841,
                    "velocity": 0.3464566929133858,
                    "duration": 0.18987349999997605
                },
                {
                    "name": "B4",
                    "midi": 71,
                    "time": 519.493895999984,
                    "velocity": 0.33858267716535434,
                    "duration": 2.2784820000000536
                },
                {
                    "name": "G4",
                    "midi": 67,
                    "time": 519.493895999984,
                    "velocity": 0.33858267716535434,
                    "duration": 2.2784820000000536
                },
                {
                    "name": "D5",
                    "midi": 74,
                    "time": 519.493895999984,
                    "velocity": 0.4015748031496063,
                    "duration": 2.2784820000000536
                },
                {
                    "name": "B3",
                    "midi": 59,
                    "time": 521.7723779999841,
                    "velocity": 0.4094488188976378,
                    "duration": 0.5696205000000418
                },
                {
                    "name": "G4",
                    "midi": 67,
                    "time": 521.7723779999841,
                    "velocity": 0.4094488188976378,
                    "duration": 0.5696205000000418
                },
                {
                    "name": "B4",
                    "midi": 71,
                    "time": 521.7723779999841,
                    "velocity": 0.4881889763779528,
                    "duration": 0.5696205000000418
                },
                {
                    "name": "C4",
                    "midi": 60,
                    "time": 522.3419984999841,
                    "velocity": 0.3937007874015748,
                    "duration": 0.18987349999997605
                },
                {
                    "name": "A4",
                    "midi": 69,
                    "time": 522.3419984999841,
                    "velocity": 0.3937007874015748,
                    "duration": 0.18987349999997605
                },
                {
                    "name": "C5",
                    "midi": 72,
                    "time": 522.3419984999841,
                    "velocity": 0.47244094488188976,
                    "duration": 0.18987349999997605
                },
                {
                    "name": "D4",
                    "midi": 62,
                    "time": 522.5318719999841,
                    "velocity": 0.48031496062992124,
                    "duration": 0.7594940000000179
                },
                {
                    "name": "B4",
                    "midi": 71,
                    "time": 522.5318719999841,
                    "velocity": 0.48031496062992124,
                    "duration": 0.7594940000000179
                },
                {
                    "name": "D5",
                    "midi": 74,
                    "time": 522.5318719999841,
                    "velocity": 0.5748031496062992,
                    "duration": 0.7594940000000179
                },
                {
                    "name": "D4",
                    "midi": 62,
                    "time": 523.2913659999841,
                    "velocity": 0.3937007874015748,
                    "duration": 0.7594940000000179
                },
                {
                    "name": "B4",
                    "midi": 71,
                    "time": 523.2913659999841,
                    "velocity": 0.3937007874015748,
                    "duration": 0.7594940000000179
                },
                {
                    "name": "D5",
                    "midi": 74,
                    "time": 523.2913659999841,
                    "velocity": 0.47244094488188976,
                    "duration": 0.7594940000000179
                },
                {
                    "name": "D4",
                    "midi": 62,
                    "time": 524.0508599999841,
                    "velocity": 0.3937007874015748,
                    "duration": 0.7594940000000179
                },
                {
                    "name": "B4",
                    "midi": 71,
                    "time": 524.0508599999841,
                    "velocity": 0.3937007874015748,
                    "duration": 0.7594940000000179
                },
                {
                    "name": "D5",
                    "midi": 74,
                    "time": 524.0508599999841,
                    "velocity": 0.47244094488188976,
                    "duration": 0.7594940000000179
                },
                {
                    "name": "E4",
                    "midi": 64,
                    "time": 524.8103539999842,
                    "velocity": 0.3858267716535433,
                    "duration": 0.5696205000000418
                },
                {
                    "name": "C5",
                    "midi": 72,
                    "time": 524.8103539999842,
                    "velocity": 0.4015748031496063,
                    "duration": 0.5696205000000418
                },
                {
                    "name": "E5",
                    "midi": 76,
                    "time": 524.8103539999842,
                    "velocity": 0.48031496062992124,
                    "duration": 0.5696205000000418
                },
                {
                    "name": "F4",
                    "midi": 65,
                    "time": 525.3799744999842,
                    "velocity": 0.36220472440944884,
                    "duration": 0.18987349999997605
                },
                {
                    "name": "D5",
                    "midi": 74,
                    "time": 525.3799744999842,
                    "velocity": 0.36220472440944884,
                    "duration": 0.18987349999997605
                },
                {
                    "name": "F5",
                    "midi": 77,
                    "time": 525.3799744999842,
                    "velocity": 0.5275590551181102,
                    "duration": 0.18987349999997605
                },
                {
                    "name": "E5",
                    "midi": 76,
                    "time": 525.5698479999842,
                    "velocity": 0.4251968503937008,
                    "duration": 0.7594940000000179
                },
                {
                    "name": "G4",
                    "midi": 67,
                    "time": 525.5698479999842,
                    "velocity": 0.4251968503937008,
                    "duration": 0.7594940000000179
                },
                {
                    "name": "G5",
                    "midi": 79,
                    "time": 525.5698479999842,
                    "velocity": 0.5905511811023622,
                    "duration": 0.7594940000000179
                },
                {
                    "name": "D5",
                    "midi": 74,
                    "time": 526.3293419999842,
                    "velocity": 0.4566929133858268,
                    "duration": 0.7594940000000179
                },
                {
                    "name": "B4",
                    "midi": 71,
                    "time": 526.3293419999842,
                    "velocity": 0.4566929133858268,
                    "duration": 0.7594940000000179
                },
                {
                    "name": "F5",
                    "midi": 77,
                    "time": 526.3293419999842,
                    "velocity": 0.5433070866141733,
                    "duration": 0.7594940000000179
                },
                {
                    "name": "C5",
                    "midi": 72,
                    "time": 527.0888359999842,
                    "velocity": 0.4251968503937008,
                    "duration": 0.7594940000000179
                },
                {
                    "name": "E5",
                    "midi": 76,
                    "time": 527.0888359999842,
                    "velocity": 0.5984251968503937,
                    "duration": 0.7594940000000179
                },
                {
                    "name": "A4",
                    "midi": 69,
                    "time": 527.8483299999842,
                    "velocity": 0.4566929133858268,
                    "duration": 0.5696205000000418
                },
                {
                    "name": "F5",
                    "midi": 77,
                    "time": 527.8483299999842,
                    "velocity": 0.5433070866141733,
                    "duration": 0.5696205000000418
                },
                {
                    "name": "F4",
                    "midi": 65,
                    "time": 528.4179504999843,
                    "velocity": 0.4015748031496063,
                    "duration": 0.18987349999997605
                },
                {
                    "name": "A4",
                    "midi": 69,
                    "time": 528.4179504999843,
                    "velocity": 0.4015748031496063,
                    "duration": 0.18987349999997605
                },
                {
                    "name": "D5",
                    "midi": 74,
                    "time": 528.4179504999843,
                    "velocity": 0.47244094488188976,
                    "duration": 0.18987349999997605
                },
                {
                    "name": "D4",
                    "midi": 62,
                    "time": 528.6078239999842,
                    "velocity": 0.4330708661417323,
                    "duration": 0.7594940000000179
                },
                {
                    "name": "F4",
                    "midi": 65,
                    "time": 528.6078239999842,
                    "velocity": 0.4330708661417323,
                    "duration": 0.7594940000000179
                },
                {
                    "name": "B4",
                    "midi": 71,
                    "time": 528.6078239999842,
                    "velocity": 0.5196850393700787,
                    "duration": 0.7594940000000179
                },
                {
                    "name": "F4",
                    "midi": 65,
                    "time": 529.3673179999843,
                    "velocity": 0.4330708661417323,
                    "duration": 0.7594940000000179
                },
                {
                    "name": "B4",
                    "midi": 71,
                    "time": 529.3673179999843,
                    "velocity": 0.5196850393700787,
                    "duration": 0.7594940000000179
                },
                {
                    "name": "D4",
                    "midi": 62,
                    "time": 529.3673179999843,
                    "velocity": 0.4330708661417323,
                    "duration": 0.7594940000000179
                },
                {
                    "name": "B4",
                    "midi": 71,
                    "time": 530.1268119999843,
                    "velocity": 0.5196850393700787,
                    "duration": 0.7594940000000179
                },
                {
                    "name": "F4",
                    "midi": 65,
                    "time": 530.1268119999843,
                    "velocity": 0.4330708661417323,
                    "duration": 0.7594940000000179
                },
                {
                    "name": "D4",
                    "midi": 62,
                    "time": 530.1268119999843,
                    "velocity": 0.4330708661417323,
                    "duration": 0.7594940000000179
                },
                {
                    "name": "E5",
                    "midi": 76,
                    "time": 530.8863059999843,
                    "velocity": 0.5905511811023622,
                    "duration": 0.5696205000000418
                },
                {
                    "name": "G4",
                    "midi": 67,
                    "time": 530.8863059999843,
                    "velocity": 0.5039370078740157,
                    "duration": 0.5696205000000418
                },
                {
                    "name": "F4",
                    "midi": 65,
                    "time": 531.4559264999843,
                    "velocity": 0.4094488188976378,
                    "duration": 0.18987349999997605
                },
                {
                    "name": "G4",
                    "midi": 67,
                    "time": 531.4559264999843,
                    "velocity": 0.4094488188976378,
                    "duration": 0.18987349999997605
                },
                {
                    "name": "D5",
                    "midi": 74,
                    "time": 531.4559264999843,
                    "velocity": 0.4881889763779528,
                    "duration": 0.18987349999997605
                },
                {
                    "name": "G4",
                    "midi": 67,
                    "time": 531.6457999999843,
                    "velocity": 0.48031496062992124,
                    "duration": 1.5189880000000358
                },
                {
                    "name": "E4",
                    "midi": 64,
                    "time": 531.6457999999843,
                    "velocity": 0.48031496062992124,
                    "duration": 1.5189880000000358
                },
                {
                    "name": "C5",
                    "midi": 72,
                    "time": 531.6457999999843,
                    "velocity": 0.5748031496062992,
                    "duration": 1.5189880000000358
                },
                {
                    "name": "B5",
                    "midi": 83,
                    "time": 533.9242819999844,
                    "velocity": 0.4094488188976378,
                    "duration": 0.5696205000000418
                },
                {
                    "name": "C6",
                    "midi": 84,
                    "time": 534.4939024999844,
                    "velocity": 0.3543307086614173,
                    "duration": 0.18987349999997605
                },
                {
                    "name": "D6",
                    "midi": 86,
                    "time": 534.6837759999844,
                    "velocity": 0.48031496062992124,
                    "duration": 0.7594940000000179
                },
                {
                    "name": "F5",
                    "midi": 77,
                    "time": 535.4432699999844,
                    "velocity": 0.2755905511811024,
                    "duration": 0.7594940000000179
                },
                {
                    "name": "G#5",
                    "midi": 80,
                    "time": 535.4432699999844,
                    "velocity": 0.2755905511811024,
                    "duration": 0.7594940000000179
                },
                {
                    "name": "B5",
                    "midi": 83,
                    "time": 535.4432699999844,
                    "velocity": 0.2755905511811024,
                    "duration": 0.7594940000000179
                },
                {
                    "name": "D6",
                    "midi": 86,
                    "time": 535.4432699999844,
                    "velocity": 0.3937007874015748,
                    "duration": 0.7594940000000179
                },
                {
                    "name": "F#5",
                    "midi": 78,
                    "time": 536.2027639999844,
                    "velocity": 0.2755905511811024,
                    "duration": 0.7594940000000179
                },
                {
                    "name": "A5",
                    "midi": 81,
                    "time": 536.2027639999844,
                    "velocity": 0.2755905511811024,
                    "duration": 0.7594940000000179
                },
                {
                    "name": "C6",
                    "midi": 84,
                    "time": 536.2027639999844,
                    "velocity": 0.2755905511811024,
                    "duration": 0.7594940000000179
                },
                {
                    "name": "D6",
                    "midi": 86,
                    "time": 536.2027639999844,
                    "velocity": 0.3937007874015748,
                    "duration": 0.7594940000000179
                },
                {
                    "name": "F#5",
                    "midi": 78,
                    "time": 536.9622579999844,
                    "velocity": 0.2755905511811024,
                    "duration": 0.7594940000000179
                },
                {
                    "name": "A5",
                    "midi": 81,
                    "time": 536.9622579999844,
                    "velocity": 0.2755905511811024,
                    "duration": 0.7594940000000179
                },
                {
                    "name": "C6",
                    "midi": 84,
                    "time": 536.9622579999844,
                    "velocity": 0.4330708661417323,
                    "duration": 0.5696205000000418
                },
                {
                    "name": "D6",
                    "midi": 86,
                    "time": 537.5318784999845,
                    "velocity": 0.4409448818897638,
                    "duration": 0.18987349999997605
                },
                {
                    "name": "F#5",
                    "midi": 78,
                    "time": 537.7217519999845,
                    "velocity": 0.2755905511811024,
                    "duration": 2.27848199999994
                },
                {
                    "name": "A5",
                    "midi": 81,
                    "time": 537.7217519999845,
                    "velocity": 0.2755905511811024,
                    "duration": 2.27848199999994
                },
                {
                    "name": "D#6",
                    "midi": 87,
                    "time": 537.7217519999845,
                    "velocity": 0.49606299212598426,
                    "duration": 1.13924099999997
                },
                {
                    "name": "D6",
                    "midi": 86,
                    "time": 538.8609929999844,
                    "velocity": 0.4094488188976378,
                    "duration": 0.3797469999999521
                },
                {
                    "name": "C6",
                    "midi": 84,
                    "time": 539.2407399999844,
                    "velocity": 0.36220472440944884,
                    "duration": 0.7594940000000179
                },
                {
                    "name": "D5",
                    "midi": 74,
                    "time": 540.0002339999844,
                    "velocity": 0.2755905511811024,
                    "duration": 0.7594940000000179
                },
                {
                    "name": "A5",
                    "midi": 81,
                    "time": 540.0002339999844,
                    "velocity": 0.2755905511811024,
                    "duration": 0.7594940000000179
                },
                {
                    "name": "D6",
                    "midi": 86,
                    "time": 540.0002339999844,
                    "velocity": 0.4566929133858268,
                    "duration": 0.5696205000000418
                },
                {
                    "name": "C6",
                    "midi": 84,
                    "time": 540.5698544999844,
                    "velocity": 0.3937007874015748,
                    "duration": 0.18987349999997605
                },
                {
                    "name": "D5",
                    "midi": 74,
                    "time": 540.7597279999844,
                    "velocity": 0.2755905511811024,
                    "duration": 0.7594940000000179
                },
                {
                    "name": "G5",
                    "midi": 79,
                    "time": 540.7597279999844,
                    "velocity": 0.2755905511811024,
                    "duration": 0.7594940000000179
                },
                {
                    "name": "B5",
                    "midi": 83,
                    "time": 540.7597279999844,
                    "velocity": 0.4330708661417323,
                    "duration": 0.7594940000000179
                },
                {
                    "name": "D5",
                    "midi": 74,
                    "time": 541.5192219999844,
                    "velocity": 0.2755905511811024,
                    "duration": 0.7594940000000179
                },
                {
                    "name": "G5",
                    "midi": 79,
                    "time": 541.5192219999844,
                    "velocity": 0.2755905511811024,
                    "duration": 0.7594940000000179
                },
                {
                    "name": "A5",
                    "midi": 81,
                    "time": 541.5192219999844,
                    "velocity": 0.4094488188976378,
                    "duration": 0.5696205000000418
                },
                {
                    "name": "B5",
                    "midi": 83,
                    "time": 542.0888424999845,
                    "velocity": 0.4094488188976378,
                    "duration": 0.18987349999997605
                },
                {
                    "name": "C5",
                    "midi": 72,
                    "time": 542.2787159999845,
                    "velocity": 0.2755905511811024,
                    "duration": 0.7594940000000179
                },
                {
                    "name": "G5",
                    "midi": 79,
                    "time": 542.2787159999845,
                    "velocity": 0.2755905511811024,
                    "duration": 0.7594940000000179
                },
                {
                    "name": "C6",
                    "midi": 84,
                    "time": 542.2787159999845,
                    "velocity": 0.44881889763779526,
                    "duration": 0.7594940000000179
                },
                {
                    "name": "G5",
                    "midi": 79,
                    "time": 543.0382099999845,
                    "velocity": 0.2755905511811024,
                    "duration": 0.7594940000000179
                },
                {
                    "name": "B5",
                    "midi": 83,
                    "time": 543.0382099999845,
                    "velocity": 0.30708661417322836,
                    "duration": 0.5696205000000418
                },
                {
                    "name": "D6",
                    "midi": 86,
                    "time": 543.0382099999845,
                    "velocity": 0.4015748031496063,
                    "duration": 0.5696205000000418
                },
                {
                    "name": "C6",
                    "midi": 84,
                    "time": 543.6078304999845,
                    "velocity": 0.31496062992125984,
                    "duration": 0.18987349999997605
                },
                {
                    "name": "D#6",
                    "midi": 87,
                    "time": 543.6078304999845,
                    "velocity": 0.4094488188976378,
                    "duration": 0.18987349999997605
                },
                {
                    "name": "G5",
                    "midi": 79,
                    "time": 543.7977039999845,
                    "velocity": 0.30708661417322836,
                    "duration": 2.2784820000000536
                },
                {
                    "name": "B5",
                    "midi": 83,
                    "time": 543.7977039999845,
                    "velocity": 0.30708661417322836,
                    "duration": 2.2784820000000536
                },
                {
                    "name": "D6",
                    "midi": 86,
                    "time": 543.7977039999845,
                    "velocity": 0.4015748031496063,
                    "duration": 2.2784820000000536
                },
                {
                    "name": "D5",
                    "midi": 74,
                    "time": 546.0761859999845,
                    "velocity": 0.4330708661417323,
                    "duration": 0.5696205000000418
                },
                {
                    "name": "D#5",
                    "midi": 75,
                    "time": 546.6458064999846,
                    "velocity": 0.3700787401574803,
                    "duration": 0.18987349999997605
                },
                {
                    "name": "F5",
                    "midi": 77,
                    "time": 546.8356799999846,
                    "velocity": 0.5039370078740157,
                    "duration": 0.5348103583332886
                },
                {
                    "name": "B4",
                    "midi": 71,
                    "time": 547.5951739999845,
                    "velocity": 0.3464566929133858,
                    "duration": 0.5696204999999281
                },
                {
                    "name": "G#4",
                    "midi": 68,
                    "time": 547.5951739999845,
                    "velocity": 0.3464566929133858,
                    "duration": 0.5696204999999281
                },
                {
                    "name": "D5",
                    "midi": 74,
                    "time": 547.5951739999845,
                    "velocity": 0.3464566929133858,
                    "duration": 0.5696204999999281
                },
                {
                    "name": "F5",
                    "midi": 77,
                    "time": 547.5951739999845,
                    "velocity": 0.4094488188976378,
                    "duration": 0.5348103583332886
                },
                {
                    "name": "G#4",
                    "midi": 68,
                    "time": 548.3546679999844,
                    "velocity": 0.3464566929133858,
                    "duration": 0.5696204999999281
                },
                {
                    "name": "A#4",
                    "midi": 70,
                    "time": 548.3546679999844,
                    "velocity": 0.3464566929133858,
                    "duration": 0.5696204999999281
                },
                {
                    "name": "F5",
                    "midi": 77,
                    "time": 548.3546679999844,
                    "velocity": 0.4094488188976378,
                    "duration": 0.5348103583332886
                },
                {
                    "name": "A#4",
                    "midi": 70,
                    "time": 549.1141619999843,
                    "velocity": 0.30708661417322836,
                    "duration": 0.7594939999999042
                },
                {
                    "name": "G#4",
                    "midi": 68,
                    "time": 549.1141619999843,
                    "velocity": 0.30708661417322836,
                    "duration": 0.7594939999999042
                },
                {
                    "name": "D#5",
                    "midi": 75,
                    "time": 549.1141619999843,
                    "velocity": 0.3700787401574803,
                    "duration": 0.09493674999998802
                },
                {
                    "name": "F5",
                    "midi": 77,
                    "time": 549.2090987499843,
                    "velocity": 0.3700787401574803,
                    "duration": 0.09493674999998802
                },
                {
                    "name": "D#5",
                    "midi": 75,
                    "time": 549.3040354999843,
                    "velocity": 0.5511811023622047,
                    "duration": 0.3797469999999521
                },
                {
                    "name": "D5",
                    "midi": 74,
                    "time": 549.6837824999842,
                    "velocity": 0.4566929133858268,
                    "duration": 0.18987349999997605
                },
                {
                    "name": "A#4",
                    "midi": 70,
                    "time": 549.8736559999842,
                    "velocity": 0.4409448818897638,
                    "duration": 0.7594940000000179
                },
                {
                    "name": "G4",
                    "midi": 67,
                    "time": 549.8736559999842,
                    "velocity": 0.4409448818897638,
                    "duration": 0.7594940000000179
                },
                {
                    "name": "G5",
                    "midi": 79,
                    "time": 549.8736559999842,
                    "velocity": 0.5196850393700787,
                    "duration": 1.13924099999997
                },
                {
                    "name": "D5",
                    "midi": 74,
                    "time": 550.6331499999842,
                    "velocity": 0.3464566929133858,
                    "duration": 0.7594939999999042
                },
                {
                    "name": "G#4",
                    "midi": 68,
                    "time": 550.6331499999842,
                    "velocity": 0.28346456692913385,
                    "duration": 0.7594939999999042
                },
                {
                    "name": "F5",
                    "midi": 77,
                    "time": 551.0128969999842,
                    "velocity": 0.4330708661417323,
                    "duration": 0.3797469999999521
                },
                {
                    "name": "G4",
                    "midi": 67,
                    "time": 551.3926439999841,
                    "velocity": 0.4409448818897638,
                    "duration": 0.7594940000000179
                },
                {
                    "name": "D#5",
                    "midi": 75,
                    "time": 551.3926439999841,
                    "velocity": 0.3779527559055118,
                    "duration": 0.7594940000000179
                },
                {
                    "name": "F4",
                    "midi": 65,
                    "time": 552.1521379999841,
                    "velocity": 0.41732283464566927,
                    "duration": 0.5696205000000418
                },
                {
                    "name": "G#4",
                    "midi": 68,
                    "time": 552.1521379999841,
                    "velocity": 0.36220472440944884,
                    "duration": 0.7594940000000179
                },
                {
                    "name": "D5",
                    "midi": 74,
                    "time": 552.1521379999841,
                    "velocity": 0.49606299212598426,
                    "duration": 0.5696205000000418
                },
                {
                    "name": "D#4",
                    "midi": 63,
                    "time": 552.7217584999842,
                    "velocity": 0.36220472440944884,
                    "duration": 0.18987349999997605
                },
                {
                    "name": "C5",
                    "midi": 72,
                    "time": 552.7217584999842,
                    "velocity": 0.4251968503937008,
                    "duration": 0.18987349999997605
                },
                {
                    "name": "D4",
                    "midi": 62,
                    "time": 552.9116319999841,
                    "velocity": 0.3937007874015748,
                    "duration": 0.7594940000000179
                },
                {
                    "name": "G4",
                    "midi": 67,
                    "time": 552.9116319999841,
                    "velocity": 0.3937007874015748,
                    "duration": 0.7594940000000179
                },
                {
                    "name": "B4",
                    "midi": 71,
                    "time": 552.9116319999841,
                    "velocity": 0.4645669291338583,
                    "duration": 0.7594940000000179
                },
                {
                    "name": "D4",
                    "midi": 62,
                    "time": 553.6711259999842,
                    "velocity": 0.3858267716535433,
                    "duration": 0.7594940000000179
                },
                {
                    "name": "G4",
                    "midi": 67,
                    "time": 553.6711259999842,
                    "velocity": 0.3700787401574803,
                    "duration": 0.7594940000000179
                },
                {
                    "name": "A4",
                    "midi": 69,
                    "time": 553.6711259999842,
                    "velocity": 0.48031496062992124,
                    "duration": 0.5696205000000418
                },
                {
                    "name": "B4",
                    "midi": 71,
                    "time": 554.2407464999842,
                    "velocity": 0.3937007874015748,
                    "duration": 0.18987349999997605
                },
                {
                    "name": "C4",
                    "midi": 60,
                    "time": 554.4306199999842,
                    "velocity": 0.49606299212598426,
                    "duration": 0.7594940000000179
                },
                {
                    "name": "G4",
                    "midi": 67,
                    "time": 554.4306199999842,
                    "velocity": 0.49606299212598426,
                    "duration": 0.7594940000000179
                },
                {
                    "name": "C5",
                    "midi": 72,
                    "time": 554.4306199999842,
                    "velocity": 0.49606299212598426,
                    "duration": 0.7594940000000179
                },
                {
                    "name": "G4",
                    "midi": 67,
                    "time": 555.1901139999842,
                    "velocity": 0.41732283464566927,
                    "duration": 0.7594940000000179
                },
                {
                    "name": "F5",
                    "midi": 77,
                    "time": 555.1901139999842,
                    "velocity": 0.49606299212598426,
                    "duration": 0.5696205000000418
                },
                {
                    "name": "C5",
                    "midi": 72,
                    "time": 555.7597344999842,
                    "velocity": 0.36220472440944884,
                    "duration": 0.18987349999997605
                },
                {
                    "name": "D#5",
                    "midi": 75,
                    "time": 555.7597344999842,
                    "velocity": 0.4330708661417323,
                    "duration": 0.18987349999997605
                },
                {
                    "name": "B4",
                    "midi": 71,
                    "time": 555.9496079999842,
                    "velocity": 0.33858267716535434,
                    "duration": 2.2784820000000536
                },
                {
                    "name": "G4",
                    "midi": 67,
                    "time": 555.9496079999842,
                    "velocity": 0.33858267716535434,
                    "duration": 2.2784820000000536
                },
                {
                    "name": "D5",
                    "midi": 74,
                    "time": 555.9496079999842,
                    "velocity": 0.4015748031496063,
                    "duration": 2.2784820000000536
                },
                {
                    "name": "B3",
                    "midi": 59,
                    "time": 558.2280899999843,
                    "velocity": 0.44881889763779526,
                    "duration": 0.5696205000000418
                },
                {
                    "name": "G4",
                    "midi": 67,
                    "time": 558.2280899999843,
                    "velocity": 0.44881889763779526,
                    "duration": 0.5696205000000418
                },
                {
                    "name": "B4",
                    "midi": 71,
                    "time": 558.2280899999843,
                    "velocity": 0.5354330708661418,
                    "duration": 0.5696205000000418
                },
                {
                    "name": "C4",
                    "midi": 60,
                    "time": 558.7977104999843,
                    "velocity": 0.4330708661417323,
                    "duration": 0.18987349999997605
                },
                {
                    "name": "A4",
                    "midi": 69,
                    "time": 558.7977104999843,
                    "velocity": 0.4330708661417323,
                    "duration": 0.18987349999997605
                },
                {
                    "name": "C5",
                    "midi": 72,
                    "time": 558.7977104999843,
                    "velocity": 0.5196850393700787,
                    "duration": 0.18987349999997605
                },
                {
                    "name": "D4",
                    "midi": 62,
                    "time": 558.9875839999843,
                    "velocity": 0.5275590551181102,
                    "duration": 0.7594940000000179
                },
                {
                    "name": "B4",
                    "midi": 71,
                    "time": 558.9875839999843,
                    "velocity": 0.5275590551181102,
                    "duration": 0.7594940000000179
                },
                {
                    "name": "D5",
                    "midi": 74,
                    "time": 558.9875839999843,
                    "velocity": 0.6299212598425197,
                    "duration": 0.7594940000000179
                },
                {
                    "name": "D4",
                    "midi": 62,
                    "time": 559.7470779999843,
                    "velocity": 0.4330708661417323,
                    "duration": 0.7594940000000179
                },
                {
                    "name": "B4",
                    "midi": 71,
                    "time": 559.7470779999843,
                    "velocity": 0.4330708661417323,
                    "duration": 0.7594940000000179
                },
                {
                    "name": "D5",
                    "midi": 74,
                    "time": 559.7470779999843,
                    "velocity": 0.5196850393700787,
                    "duration": 0.7594940000000179
                },
                {
                    "name": "D4",
                    "midi": 62,
                    "time": 560.5065719999843,
                    "velocity": 0.4409448818897638,
                    "duration": 0.7594940000000179
                },
                {
                    "name": "B4",
                    "midi": 71,
                    "time": 560.5065719999843,
                    "velocity": 0.4409448818897638,
                    "duration": 0.7594940000000179
                },
                {
                    "name": "D5",
                    "midi": 74,
                    "time": 560.5065719999843,
                    "velocity": 0.5275590551181102,
                    "duration": 0.7594940000000179
                },
                {
                    "name": "E4",
                    "midi": 64,
                    "time": 561.2660659999843,
                    "velocity": 0.41732283464566927,
                    "duration": 0.5696205000000418
                },
                {
                    "name": "C5",
                    "midi": 72,
                    "time": 561.2660659999843,
                    "velocity": 0.41732283464566927,
                    "duration": 0.5696205000000418
                },
                {
                    "name": "E5",
                    "midi": 76,
                    "time": 561.2660659999843,
                    "velocity": 0.49606299212598426,
                    "duration": 0.5696205000000418
                },
                {
                    "name": "F4",
                    "midi": 65,
                    "time": 561.8356864999844,
                    "velocity": 0.4251968503937008,
                    "duration": 0.18987349999997605
                },
                {
                    "name": "D5",
                    "midi": 74,
                    "time": 561.8356864999844,
                    "velocity": 0.4251968503937008,
                    "duration": 0.18987349999997605
                },
                {
                    "name": "F5",
                    "midi": 77,
                    "time": 561.8356864999844,
                    "velocity": 0.6220472440944882,
                    "duration": 0.18987349999997605
                },
                {
                    "name": "E5",
                    "midi": 76,
                    "time": 562.0255599999844,
                    "velocity": 0.5275590551181102,
                    "duration": 1.13924099999997
                },
                {
                    "name": "G4",
                    "midi": 67,
                    "time": 562.0255599999844,
                    "velocity": 0.5275590551181102,
                    "duration": 1.13924099999997
                },
                {
                    "name": "G5",
                    "midi": 79,
                    "time": 562.0255599999844,
                    "velocity": 0.7322834645669292,
                    "duration": 1.13924099999997
                },
                {
                    "name": "D5",
                    "midi": 74,
                    "time": 563.1648009999843,
                    "velocity": 0.4881889763779528,
                    "duration": 0.3797469999999521
                },
                {
                    "name": "F4",
                    "midi": 65,
                    "time": 563.1648009999843,
                    "velocity": 0.4881889763779528,
                    "duration": 0.3797469999999521
                },
                {
                    "name": "F5",
                    "midi": 77,
                    "time": 563.1648009999843,
                    "velocity": 0.5826771653543307,
                    "duration": 0.3797469999999521
                },
                {
                    "name": "E4",
                    "midi": 64,
                    "time": 563.5445479999843,
                    "velocity": 0.4330708661417323,
                    "duration": 0.7594940000000179
                },
                {
                    "name": "C#5",
                    "midi": 73,
                    "time": 563.5445479999843,
                    "velocity": 0.4330708661417323,
                    "duration": 0.7594940000000179
                },
                {
                    "name": "E5",
                    "midi": 76,
                    "time": 563.5445479999843,
                    "velocity": 0.6062992125984252,
                    "duration": 0.7594940000000179
                },
                {
                    "name": "G3",
                    "midi": 55,
                    "time": 565.0635359999843,
                    "velocity": 0.4015748031496063,
                    "duration": 2.27848199999994
                },
                {
                    "name": "C#4",
                    "midi": 61,
                    "time": 565.0635359999843,
                    "velocity": 0.4015748031496063,
                    "duration": 2.27848199999994
                },
                {
                    "name": "E4",
                    "midi": 64,
                    "time": 565.0635359999843,
                    "velocity": 0.47244094488188976,
                    "duration": 1.13924099999997
                },
                {
                    "name": "F4",
                    "midi": 65,
                    "time": 566.2027769999843,
                    "velocity": 0.4251968503937008,
                    "duration": 0.3797469999999521
                },
                {
                    "name": "E4",
                    "midi": 64,
                    "time": 566.5825239999842,
                    "velocity": 0.3937007874015748,
                    "duration": 0.7594940000000179
                },
                {
                    "name": "D5",
                    "midi": 74,
                    "time": 568.1015119999843,
                    "velocity": 0.5275590551181102,
                    "duration": 1.13924099999997
                },
                {
                    "name": "F4",
                    "midi": 65,
                    "time": 568.1015119999843,
                    "velocity": 0.5275590551181102,
                    "duration": 1.13924099999997
                },
                {
                    "name": "F5",
                    "midi": 77,
                    "time": 568.1015119999843,
                    "velocity": 0.7322834645669292,
                    "duration": 1.13924099999997
                },
                {
                    "name": "C5",
                    "midi": 72,
                    "time": 569.2407529999842,
                    "velocity": 0.4881889763779528,
                    "duration": 0.3797469999999521
                },
                {
                    "name": "D#4",
                    "midi": 63,
                    "time": 569.2407529999842,
                    "velocity": 0.4881889763779528,
                    "duration": 0.3797469999999521
                },
                {
                    "name": "D#5",
                    "midi": 75,
                    "time": 569.2407529999842,
                    "velocity": 0.5826771653543307,
                    "duration": 0.3797469999999521
                },
                {
                    "name": "D4",
                    "midi": 62,
                    "time": 569.6204999999842,
                    "velocity": 0.4330708661417323,
                    "duration": 0.7594940000000179
                },
                {
                    "name": "B4",
                    "midi": 71,
                    "time": 569.6204999999842,
                    "velocity": 0.4330708661417323,
                    "duration": 0.7594940000000179
                },
                {
                    "name": "D5",
                    "midi": 74,
                    "time": 569.6204999999842,
                    "velocity": 0.6062992125984252,
                    "duration": 0.7594940000000179
                },
                {
                    "name": "F3",
                    "midi": 53,
                    "time": 571.1394879999842,
                    "velocity": 0.4015748031496063,
                    "duration": 2.27848199999994
                },
                {
                    "name": "B3",
                    "midi": 59,
                    "time": 571.1394879999842,
                    "velocity": 0.4015748031496063,
                    "duration": 2.27848199999994
                },
                {
                    "name": "D4",
                    "midi": 62,
                    "time": 571.1394879999842,
                    "velocity": 0.47244094488188976,
                    "duration": 1.13924099999997
                },
                {
                    "name": "D#4",
                    "midi": 63,
                    "time": 572.2787289999842,
                    "velocity": 0.4251968503937008,
                    "duration": 0.3797469999999521
                },
                {
                    "name": "D4",
                    "midi": 62,
                    "time": 572.6584759999841,
                    "velocity": 0.3937007874015748,
                    "duration": 0.7594940000000179
                },
                {
                    "name": "A4",
                    "midi": 69,
                    "time": 574.1774639999842,
                    "velocity": 0.33858267716535434,
                    "duration": 3.0379760000000715
                },
                {
                    "name": "D#5",
                    "midi": 75,
                    "time": 574.1774639999842,
                    "velocity": 0.47244094488188976,
                    "duration": 1.5189880000000358
                },
                {
                    "name": "D5",
                    "midi": 74,
                    "time": 575.6964519999842,
                    "velocity": 0.41732283464566927,
                    "duration": 0.7594940000000179
                },
                {
                    "name": "C5",
                    "midi": 72,
                    "time": 576.4559459999842,
                    "velocity": 0.3937007874015748,
                    "duration": 0.7594940000000179
                },
                {
                    "name": "G4",
                    "midi": 67,
                    "time": 577.2154399999843,
                    "velocity": 0.4015748031496063,
                    "duration": 1.5189880000000358
                },
                {
                    "name": "C5",
                    "midi": 72,
                    "time": 578.7344279999843,
                    "velocity": 0.4015748031496063,
                    "duration": 0.3797469999999521
                },
                {
                    "name": "F4",
                    "midi": 65,
                    "time": 578.7344279999843,
                    "velocity": 0.28346456692913385,
                    "duration": 1.5189879999998084
                },
                {
                    "name": "B4",
                    "midi": 71,
                    "time": 579.1141749999842,
                    "velocity": 0.36220472440944884,
                    "duration": 0.3797469999999521
                },
                {
                    "name": "A4",
                    "midi": 69,
                    "time": 579.4939219999842,
                    "velocity": 0.3858267716535433,
                    "duration": 0.3797469999999521
                },
                {
                    "name": "B4",
                    "midi": 71,
                    "time": 579.8736689999841,
                    "velocity": 0.3228346456692913,
                    "duration": 0.3797469999999521
                },
                {
                    "name": "E4",
                    "midi": 64,
                    "time": 580.2534159999841,
                    "velocity": 0.2677165354330709,
                    "duration": 4.556963999999994
                },
                {
                    "name": "C5",
                    "midi": 72,
                    "time": 580.2534159999841,
                    "velocity": 0.3779527559055118,
                    "duration": 5.3164580000000115
                },
                {
                    "name": "B4",
                    "midi": 71,
                    "time": 585.5698739999841,
                    "velocity": 0.29133858267716534,
                    "duration": 0.5696205000000418
                },
                {
                    "name": "C5",
                    "midi": 72,
                    "time": 586.1394944999842,
                    "velocity": 0.25196850393700787,
                    "duration": 0.18987349999997605
                },
                {
                    "name": "D5",
                    "midi": 74,
                    "time": 586.3293679999841,
                    "velocity": 0.33858267716535434,
                    "duration": 0.5348103583332886
                },
                {
                    "name": "D5",
                    "midi": 74,
                    "time": 587.088861999984,
                    "velocity": 0.2755905511811024,
                    "duration": 0.5348103583332886
                },
                {
                    "name": "D5",
                    "midi": 74,
                    "time": 587.8483559999839,
                    "velocity": 0.2755905511811024,
                    "duration": 0.5348103583332886
                },
                {
                    "name": "C5",
                    "midi": 72,
                    "time": 588.6078499999838,
                    "velocity": 0.30708661417322836,
                    "duration": 0.3797469999999521
                },
                {
                    "name": "B4",
                    "midi": 71,
                    "time": 588.9875969999838,
                    "velocity": 0.30708661417322836,
                    "duration": 0.3797469999999521
                },
                {
                    "name": "D#5",
                    "midi": 75,
                    "time": 589.3673439999837,
                    "velocity": 0.3543307086614173,
                    "duration": 1.13924099999997
                },
                {
                    "name": "D5",
                    "midi": 74,
                    "time": 590.5065849999837,
                    "velocity": 0.29133858267716534,
                    "duration": 0.3797469999999521
                },
                {
                    "name": "C5",
                    "midi": 72,
                    "time": 590.8863319999837,
                    "velocity": 0.25984251968503935,
                    "duration": 0.3797469999999521
                },
                {
                    "name": "G4",
                    "midi": 67,
                    "time": 591.2660789999836,
                    "velocity": 0.25984251968503935,
                    "duration": 0.3797469999999521
                },
                {
                    "name": "C5",
                    "midi": 72,
                    "time": 591.6458259999836,
                    "velocity": 0.2755905511811024,
                    "duration": 0.3797469999999521
                },
                {
                    "name": "D5",
                    "midi": 74,
                    "time": 592.0255729999835,
                    "velocity": 0.31496062992125984,
                    "duration": 0.3797469999999521
                },
                {
                    "name": "D#5",
                    "midi": 75,
                    "time": 592.4053199999835,
                    "velocity": 0.3543307086614173,
                    "duration": 0.7594940000000179
                },
                {
                    "name": "D5",
                    "midi": 74,
                    "time": 593.1648139999835,
                    "velocity": 0.3543307086614173,
                    "duration": 0.3797469999999521
                },
                {
                    "name": "C5",
                    "midi": 72,
                    "time": 593.5445609999834,
                    "velocity": 0.33070866141732286,
                    "duration": 0.3797469999999521
                },
                {
                    "name": "G4",
                    "midi": 67,
                    "time": 593.9243079999834,
                    "velocity": 0.36220472440944884,
                    "duration": 0.5696205000000418
                },
                {
                    "name": "B4",
                    "midi": 71,
                    "time": 594.6838019999834,
                    "velocity": 0.2992125984251969,
                    "duration": 0.5696205000000418
                },
                {
                    "name": "F4",
                    "midi": 65,
                    "time": 594.6838019999834,
                    "velocity": 0.25196850393700787,
                    "duration": 0.5696205000000418
                },
                {
                    "name": "E4",
                    "midi": 64,
                    "time": 595.4432959999834,
                    "velocity": 0.28346456692913385,
                    "duration": 2.2784820000000536
                },
                {
                    "name": "C5",
                    "midi": 72,
                    "time": 595.4432959999834,
                    "velocity": 0.33858267716535434,
                    "duration": 2.2784820000000536
                },
                {
                    "name": "G4",
                    "midi": 67,
                    "time": 599.2407659999835,
                    "velocity": 0.2283464566929134,
                    "duration": 1.5189880000000358
                },
                {
                    "name": "G5",
                    "midi": 79,
                    "time": 599.2407659999835,
                    "velocity": 0.29133858267716534,
                    "duration": 1.5189880000000358
                },
                {
                    "name": "G4",
                    "midi": 67,
                    "time": 602.2787419999836,
                    "velocity": 0.2283464566929134,
                    "duration": 1.5189880000000358
                },
                {
                    "name": "G5",
                    "midi": 79,
                    "time": 602.2787419999836,
                    "velocity": 0.28346456692913385,
                    "duration": 1.5189880000000358
                },
                {
                    "name": "D#5",
                    "midi": 75,
                    "time": 603.7977299999836,
                    "velocity": 0.2755905511811024,
                    "duration": 0.3797469999999521
                },
                {
                    "name": "F5",
                    "midi": 77,
                    "time": 604.1774769999836,
                    "velocity": 0.31496062992125984,
                    "duration": 0.3797469999999521
                },
                {
                    "name": "G5",
                    "midi": 79,
                    "time": 604.5572239999835,
                    "velocity": 0.3543307086614173,
                    "duration": 0.3797469999999521
                },
                {
                    "name": "D#5",
                    "midi": 75,
                    "time": 604.9369709999835,
                    "velocity": 0.31496062992125984,
                    "duration": 0.3797469999999521
                },
                {
                    "name": "B4",
                    "midi": 71,
                    "time": 605.3167179999834,
                    "velocity": 0.3543307086614173,
                    "duration": 0.3797469999999521
                },
                {
                    "name": "C5",
                    "midi": 72,
                    "time": 605.6964649999834,
                    "velocity": 0.33070866141732286,
                    "duration": 0.3797469999999521
                },
                {
                    "name": "G4",
                    "midi": 67,
                    "time": 606.0762119999833,
                    "velocity": 0.36220472440944884,
                    "duration": 0.5696205000000418
                },
                {
                    "name": "B4",
                    "midi": 71,
                    "time": 606.8357059999834,
                    "velocity": 0.2992125984251969,
                    "duration": 0.5696205000000418
                },
                {
                    "name": "F4",
                    "midi": 65,
                    "time": 606.8357059999834,
                    "velocity": 0.25196850393700787,
                    "duration": 0.5696205000000418
                },
                {
                    "name": "E4",
                    "midi": 64,
                    "time": 607.5951999999834,
                    "velocity": 0.28346456692913385,
                    "duration": 1.5189880000000358
                },
                {
                    "name": "C5",
                    "midi": 72,
                    "time": 607.5951999999834,
                    "velocity": 0.33858267716535434,
                    "duration": 1.5189880000000358
                },
                {
                    "name": "G4",
                    "midi": 67,
                    "time": 609.1141879999834,
                    "velocity": 0.36220472440944884,
                    "duration": 0.5696205000000418
                },
                {
                    "name": "B4",
                    "midi": 71,
                    "time": 609.8736819999834,
                    "velocity": 0.2992125984251969,
                    "duration": 0.5696205000000418
                },
                {
                    "name": "F4",
                    "midi": 65,
                    "time": 609.8736819999834,
                    "velocity": 0.25196850393700787,
                    "duration": 0.5696205000000418
                },
                {
                    "name": "E4",
                    "midi": 64,
                    "time": 610.6331759999835,
                    "velocity": 0.28346456692913385,
                    "duration": 1.5189880000000358
                },
                {
                    "name": "C5",
                    "midi": 72,
                    "time": 610.6331759999835,
                    "velocity": 0.33858267716535434,
                    "duration": 1.5189880000000358
                },
                {
                    "name": "G3",
                    "midi": 55,
                    "time": 612.1521639999835,
                    "velocity": 0.3779527559055118,
                    "duration": 0.7594940000000179
                },
                {
                    "name": "B3",
                    "midi": 59,
                    "time": 612.9116579999835,
                    "velocity": 0.3228346456692913,
                    "duration": 0.7594940000000179
                },
                {
                    "name": "F3",
                    "midi": 53,
                    "time": 612.9116579999835,
                    "velocity": 0.2677165354330709,
                    "duration": 0.7594940000000179
                },
                {
                    "name": "E3",
                    "midi": 52,
                    "time": 613.6711519999835,
                    "velocity": 0.31496062992125984,
                    "duration": 1.5189880000000358
                },
                {
                    "name": "C4",
                    "midi": 60,
                    "time": 613.6711519999835,
                    "velocity": 0.3779527559055118,
                    "duration": 1.5189880000000358
                },
                {
                    "name": "G3",
                    "midi": 55,
                    "time": 615.1901399999836,
                    "velocity": 0.2992125984251969,
                    "duration": 1.5189880000000358
                },
                {
                    "name": "E3",
                    "midi": 52,
                    "time": 615.1901399999836,
                    "velocity": 0.2992125984251969,
                    "duration": 1.5189880000000358
                },
                {
                    "name": "C4",
                    "midi": 60,
                    "time": 615.1901399999836,
                    "velocity": 0.36220472440944884,
                    "duration": 1.5189880000000358
                },
                {
                    "name": "G3",
                    "midi": 55,
                    "time": 616.7091279999836,
                    "velocity": 0.2992125984251969,
                    "duration": 3.037975999999958
                },
                {
                    "name": "E3",
                    "midi": 52,
                    "time": 616.7091279999836,
                    "velocity": 0.2992125984251969,
                    "duration": 3.037975999999958
                },
                {
                    "name": "C4",
                    "midi": 60,
                    "time": 616.7091279999836,
                    "velocity": 0.36220472440944884,
                    "duration": 3.037975999999958
                }
            ],
            "controlChanges": {
                "7": [
                    {
                        "number": 7,
                        "time": 0,
                        "value": 0.7874015748031497
                    }
                ],
                "10": [
                    {
                        "number": 10,
                        "time": 0,
                        "value": 0.5039370078740157
                    }
                ]
            },
            "id": 1,
            "name": "Piano right",
            "instrumentNumber": 0,
            "instrument": "acoustic grand piano",
            "instrumentFamily": "piano",
            "channelNumber": 0,
            "isPercussion": false
        },
        {
            "startTime": 0,
            "duration": 619.7471039999702,
            "length": 2555,
            "notes": [
                {
                    "name": "G2",
                    "midi": 43,
                    "time": 0,
                    "velocity": 0.5511811023622047,
                    "duration": 2.231013625
                },
                {
                    "name": "G1",
                    "midi": 31,
                    "time": 0,
                    "velocity": 0.47244094488188976,
                    "duration": 2.231013625
                },
                {
                    "name": "G3",
                    "midi": 55,
                    "time": 14.430385999999999,
                    "velocity": 0.2755905511811024,
                    "duration": 0.37974700000000006
                },
                {
                    "name": "G3",
                    "midi": 55,
                    "time": 15.000006499999998,
                    "velocity": 0.25984251968503935,
                    "duration": 0.09493675000000046
                },
                {
                    "name": "G3",
                    "midi": 55,
                    "time": 15.189879999999999,
                    "velocity": 0.31496062992125984,
                    "duration": 0.37974700000000006
                },
                {
                    "name": "G3",
                    "midi": 55,
                    "time": 15.949373999999999,
                    "velocity": 0.25984251968503935,
                    "duration": 0.3797469999999983
                },
                {
                    "name": "G3",
                    "midi": 55,
                    "time": 16.708867999999995,
                    "velocity": 0.25984251968503935,
                    "duration": 0.3797469999999983
                },
                {
                    "name": "G3",
                    "midi": 55,
                    "time": 17.468361999999992,
                    "velocity": 0.36220472440944884,
                    "duration": 0.3797469999999983
                },
                {
                    "name": "G3",
                    "midi": 55,
                    "time": 18.03798249999999,
                    "velocity": 0.3700787401574803,
                    "duration": 0.09493674999999868
                },
                {
                    "name": "G3",
                    "midi": 55,
                    "time": 18.22785599999999,
                    "velocity": 0.41732283464566927,
                    "duration": 0.18987350000000092
                },
                {
                    "name": "A3",
                    "midi": 57,
                    "time": 18.98734999999999,
                    "velocity": 0.41732283464566927,
                    "duration": 0.18987350000000092
                },
                {
                    "name": "B3",
                    "midi": 59,
                    "time": 19.556970499999988,
                    "velocity": 0.33858267716535434,
                    "duration": 0.09493674999999868
                },
                {
                    "name": "C4",
                    "midi": 60,
                    "time": 19.746843999999985,
                    "velocity": 0.3858267716535433,
                    "duration": 0.3797469999999983
                },
                {
                    "name": "F3",
                    "midi": 53,
                    "time": 20.50633799999998,
                    "velocity": 0.3543307086614173,
                    "duration": 0.3797469999999983
                },
                {
                    "name": "F3",
                    "midi": 53,
                    "time": 21.07595849999998,
                    "velocity": 0.28346456692913385,
                    "duration": 0.09493674999999868
                },
                {
                    "name": "G3",
                    "midi": 55,
                    "time": 21.26583199999998,
                    "velocity": 0.3464566929133858,
                    "duration": 1.3291144999999993
                },
                {
                    "name": "G3",
                    "midi": 55,
                    "time": 22.594946499999978,
                    "velocity": 0.28346456692913385,
                    "duration": 0.09493674999999868
                },
                {
                    "name": "F3",
                    "midi": 53,
                    "time": 22.594946499999978,
                    "velocity": 0.23622047244094488,
                    "duration": 0.09493674999999868
                },
                {
                    "name": "D#3",
                    "midi": 51,
                    "time": 22.784819999999975,
                    "velocity": 0.31496062992125984,
                    "duration": 0.3797469999999983
                },
                {
                    "name": "G3",
                    "midi": 55,
                    "time": 22.784819999999975,
                    "velocity": 0.3779527559055118,
                    "duration": 0.3797469999999983
                },
                {
                    "name": "G2",
                    "midi": 43,
                    "time": 23.54431399999997,
                    "velocity": 0.3543307086614173,
                    "duration": 0.3797469999999983
                },
                {
                    "name": "G3",
                    "midi": 55,
                    "time": 23.54431399999997,
                    "velocity": 0.41732283464566927,
                    "duration": 0.3797469999999983
                },
                {
                    "name": "G3",
                    "midi": 55,
                    "time": 24.11393449999997,
                    "velocity": 0.3464566929133858,
                    "duration": 0.09493674999999868
                },
                {
                    "name": "G2",
                    "midi": 43,
                    "time": 24.11393449999997,
                    "velocity": 0.29133858267716534,
                    "duration": 0.09493674999999868
                },
                {
                    "name": "C3",
                    "midi": 48,
                    "time": 24.303807999999968,
                    "velocity": 0.36220472440944884,
                    "duration": 2.2784820000000003
                },
                {
                    "name": "G3",
                    "midi": 55,
                    "time": 24.303807999999968,
                    "velocity": 0.4330708661417323,
                    "duration": 2.2784820000000003
                },
                {
                    "name": "A#3",
                    "midi": 58,
                    "time": 38.73419399999997,
                    "velocity": 0.2755905511811024,
                    "duration": 0.37974700000000183
                },
                {
                    "name": "A#3",
                    "midi": 58,
                    "time": 39.303814499999966,
                    "velocity": 0.25984251968503935,
                    "duration": 0.09493675000000223
                },
                {
                    "name": "A#3",
                    "midi": 58,
                    "time": 39.49368799999997,
                    "velocity": 0.31496062992125984,
                    "duration": 0.37974700000000183
                },
                {
                    "name": "A#3",
                    "midi": 58,
                    "time": 40.253181999999974,
                    "velocity": 0.25984251968503935,
                    "duration": 0.37974700000000183
                },
                {
                    "name": "A#3",
                    "midi": 58,
                    "time": 41.01267599999998,
                    "velocity": 0.25984251968503935,
                    "duration": 0.37974700000000183
                },
                {
                    "name": "A#3",
                    "midi": 58,
                    "time": 41.77216999999998,
                    "velocity": 0.36220472440944884,
                    "duration": 0.37974700000000183
                },
                {
                    "name": "A#3",
                    "midi": 58,
                    "time": 42.34179049999998,
                    "velocity": 0.3700787401574803,
                    "duration": 0.09493675000000223
                },
                {
                    "name": "A#3",
                    "midi": 58,
                    "time": 42.531663999999985,
                    "velocity": 0.41732283464566927,
                    "duration": 0.18987349999999736
                },
                {
                    "name": "C4",
                    "midi": 60,
                    "time": 43.29115799999998,
                    "velocity": 0.41732283464566927,
                    "duration": 0.18987349999999736
                },
                {
                    "name": "D4",
                    "midi": 62,
                    "time": 43.86077849999998,
                    "velocity": 0.33858267716535434,
                    "duration": 0.09493675000000223
                },
                {
                    "name": "D#4",
                    "midi": 63,
                    "time": 44.050651999999985,
                    "velocity": 0.3858267716535433,
                    "duration": 0.37974700000000183
                },
                {
                    "name": "F3",
                    "midi": 53,
                    "time": 44.81014599999999,
                    "velocity": 0.3543307086614173,
                    "duration": 0.37974700000000183
                },
                {
                    "name": "F3",
                    "midi": 53,
                    "time": 45.37976649999999,
                    "velocity": 0.28346456692913385,
                    "duration": 0.09493675000000223
                },
                {
                    "name": "G3",
                    "midi": 55,
                    "time": 45.56963999999999,
                    "velocity": 0.3464566929133858,
                    "duration": 1.3291145000000029
                },
                {
                    "name": "F3",
                    "midi": 53,
                    "time": 46.898754499999995,
                    "velocity": 0.23622047244094488,
                    "duration": 0.09493675000000223
                },
                {
                    "name": "G3",
                    "midi": 55,
                    "time": 46.898754499999995,
                    "velocity": 0.28346456692913385,
                    "duration": 0.09493675000000223
                },
                {
                    "name": "D#3",
                    "midi": 51,
                    "time": 47.088628,
                    "velocity": 0.31496062992125984,
                    "duration": 0.37974700000000183
                },
                {
                    "name": "G3",
                    "midi": 55,
                    "time": 47.088628,
                    "velocity": 0.3779527559055118,
                    "duration": 0.37974700000000183
                },
                {
                    "name": "G3",
                    "midi": 55,
                    "time": 47.848122000000004,
                    "velocity": 0.41732283464566927,
                    "duration": 0.37974700000000183
                },
                {
                    "name": "G2",
                    "midi": 43,
                    "time": 47.848122000000004,
                    "velocity": 0.3543307086614173,
                    "duration": 0.37974700000000183
                },
                {
                    "name": "G3",
                    "midi": 55,
                    "time": 48.4177425,
                    "velocity": 0.3464566929133858,
                    "duration": 0.09493675000000223
                },
                {
                    "name": "G2",
                    "midi": 43,
                    "time": 48.4177425,
                    "velocity": 0.29133858267716534,
                    "duration": 0.09493675000000223
                },
                {
                    "name": "C3",
                    "midi": 48,
                    "time": 48.60761600000001,
                    "velocity": 0.36220472440944884,
                    "duration": 2.278481999999997
                },
                {
                    "name": "G3",
                    "midi": 55,
                    "time": 48.60761600000001,
                    "velocity": 0.4330708661417323,
                    "duration": 2.278481999999997
                },
                {
                    "name": "F4",
                    "midi": 65,
                    "time": 52.405086000000004,
                    "velocity": 0.28346456692913385,
                    "duration": 0.5696204999999992
                },
                {
                    "name": "F#4",
                    "midi": 66,
                    "time": 53.16458,
                    "velocity": 0.28346456692913385,
                    "duration": 0.5696204999999992
                },
                {
                    "name": "F#4",
                    "midi": 66,
                    "time": 53.924074,
                    "velocity": 0.28346456692913385,
                    "duration": 0.7594939999999966
                },
                {
                    "name": "D4",
                    "midi": 62,
                    "time": 53.924074,
                    "velocity": 0.23622047244094488,
                    "duration": 0.7594939999999966
                },
                {
                    "name": "F#4",
                    "midi": 66,
                    "time": 54.683567999999994,
                    "velocity": 0.30708661417322836,
                    "duration": 2.278481999999997
                },
                {
                    "name": "C4",
                    "midi": 60,
                    "time": 54.683567999999994,
                    "velocity": 0.36220472440944884,
                    "duration": 1.1392409999999984
                },
                {
                    "name": "D4",
                    "midi": 62,
                    "time": 55.82280899999999,
                    "velocity": 0.36220472440944884,
                    "duration": 0.37974700000000183
                },
                {
                    "name": "D#4",
                    "midi": 63,
                    "time": 56.202555999999994,
                    "velocity": 0.36220472440944884,
                    "duration": 0.7594939999999966
                },
                {
                    "name": "F#3",
                    "midi": 54,
                    "time": 56.96204999999999,
                    "velocity": 0.2440944881889764,
                    "duration": 0.7594939999999966
                },
                {
                    "name": "D4",
                    "midi": 62,
                    "time": 56.96204999999999,
                    "velocity": 0.29133858267716534,
                    "duration": 0.7594939999999966
                },
                {
                    "name": "G3",
                    "midi": 55,
                    "time": 57.72154399999999,
                    "velocity": 0.2755905511811024,
                    "duration": 0.7594939999999966
                },
                {
                    "name": "D4",
                    "midi": 62,
                    "time": 57.72154399999999,
                    "velocity": 0.33070866141732286,
                    "duration": 0.7594939999999966
                },
                {
                    "name": "F3",
                    "midi": 53,
                    "time": 58.481037999999984,
                    "velocity": 0.2755905511811024,
                    "duration": 0.5696204999999992
                },
                {
                    "name": "D4",
                    "midi": 62,
                    "time": 58.481037999999984,
                    "velocity": 0.33858267716535434,
                    "duration": 0.5696204999999992
                },
                {
                    "name": "G3",
                    "midi": 55,
                    "time": 58.481037999999984,
                    "velocity": 0.2755905511811024,
                    "duration": 0.5696204999999992
                },
                {
                    "name": "G3",
                    "midi": 55,
                    "time": 59.05065849999998,
                    "velocity": 0.2283464566929134,
                    "duration": 0.18987349999999736
                },
                {
                    "name": "F3",
                    "midi": 53,
                    "time": 59.05065849999998,
                    "velocity": 0.2283464566929134,
                    "duration": 0.18987349999999736
                },
                {
                    "name": "D4",
                    "midi": 62,
                    "time": 59.05065849999998,
                    "velocity": 0.2755905511811024,
                    "duration": 0.18987349999999736
                },
                {
                    "name": "G3",
                    "midi": 55,
                    "time": 59.24053199999998,
                    "velocity": 0.30708661417322836,
                    "duration": 0.7594939999999966
                },
                {
                    "name": "D#3",
                    "midi": 51,
                    "time": 59.24053199999998,
                    "velocity": 0.30708661417322836,
                    "duration": 0.7594939999999966
                },
                {
                    "name": "C4",
                    "midi": 60,
                    "time": 59.24053199999998,
                    "velocity": 0.3700787401574803,
                    "duration": 0.7594939999999966
                },
                {
                    "name": "B3",
                    "midi": 59,
                    "time": 60.00002599999998,
                    "velocity": 0.3779527559055118,
                    "duration": 0.5696204999999992
                },
                {
                    "name": "G3",
                    "midi": 55,
                    "time": 60.00002599999998,
                    "velocity": 0.31496062992125984,
                    "duration": 0.5696204999999992
                },
                {
                    "name": "D3",
                    "midi": 50,
                    "time": 60.00002599999998,
                    "velocity": 0.31496062992125984,
                    "duration": 0.5696204999999992
                },
                {
                    "name": "C3",
                    "midi": 48,
                    "time": 60.569646499999976,
                    "velocity": 0.3228346456692913,
                    "duration": 0.18987349999999736
                },
                {
                    "name": "C4",
                    "midi": 60,
                    "time": 60.569646499999976,
                    "velocity": 0.3858267716535433,
                    "duration": 0.18987349999999736
                },
                {
                    "name": "G3",
                    "midi": 55,
                    "time": 60.569646499999976,
                    "velocity": 0.3228346456692913,
                    "duration": 0.18987349999999736
                },
                {
                    "name": "B3",
                    "midi": 59,
                    "time": 60.75951999999997,
                    "velocity": 0.44881889763779526,
                    "duration": 2.278481999999997
                },
                {
                    "name": "G3",
                    "midi": 55,
                    "time": 60.75951999999997,
                    "velocity": 0.3779527559055118,
                    "duration": 2.278481999999997
                },
                {
                    "name": "G3",
                    "midi": 55,
                    "time": 63.03800199999997,
                    "velocity": 0.48031496062992124,
                    "duration": 0.37974700000000183
                },
                {
                    "name": "G2",
                    "midi": 43,
                    "time": 63.03800199999997,
                    "velocity": 0.4015748031496063,
                    "duration": 0.37974700000000183
                },
                {
                    "name": "G3",
                    "midi": 55,
                    "time": 63.60762249999997,
                    "velocity": 0.44881889763779526,
                    "duration": 0.09493675000000223
                },
                {
                    "name": "G2",
                    "midi": 43,
                    "time": 63.60762249999997,
                    "velocity": 0.3779527559055118,
                    "duration": 0.09493675000000223
                },
                {
                    "name": "G3",
                    "midi": 55,
                    "time": 63.797495999999974,
                    "velocity": 0.5511811023622047,
                    "duration": 0.37974700000000183
                },
                {
                    "name": "G2",
                    "midi": 43,
                    "time": 63.797495999999974,
                    "velocity": 0.4645669291338583,
                    "duration": 0.37974700000000183
                },
                {
                    "name": "G3",
                    "midi": 55,
                    "time": 64.55698999999997,
                    "velocity": 0.5039370078740157,
                    "duration": 0.3797469999999947
                },
                {
                    "name": "G2",
                    "midi": 43,
                    "time": 64.55698999999997,
                    "velocity": 0.4330708661417323,
                    "duration": 0.3797469999999947
                },
                {
                    "name": "G3",
                    "midi": 55,
                    "time": 65.31648399999996,
                    "velocity": 0.5196850393700787,
                    "duration": 0.3797469999999947
                },
                {
                    "name": "G2",
                    "midi": 43,
                    "time": 65.31648399999996,
                    "velocity": 0.4409448818897638,
                    "duration": 0.3797469999999947
                },
                {
                    "name": "G3",
                    "midi": 55,
                    "time": 66.07597799999995,
                    "velocity": 0.6299212598425197,
                    "duration": 0.3797469999999947
                },
                {
                    "name": "G2",
                    "midi": 43,
                    "time": 66.07597799999995,
                    "velocity": 0.5354330708661418,
                    "duration": 0.3797469999999947
                },
                {
                    "name": "G2",
                    "midi": 43,
                    "time": 66.64559849999995,
                    "velocity": 0.4409448818897638,
                    "duration": 0.09493675000000223
                },
                {
                    "name": "G3",
                    "midi": 55,
                    "time": 66.64559849999995,
                    "velocity": 0.5196850393700787,
                    "duration": 0.09493675000000223
                },
                {
                    "name": "G3",
                    "midi": 55,
                    "time": 66.83547199999995,
                    "velocity": 0.5748031496062992,
                    "duration": 0.18987350000000447
                },
                {
                    "name": "G2",
                    "midi": 43,
                    "time": 66.83547199999995,
                    "velocity": 0.48031496062992124,
                    "duration": 0.18987350000000447
                },
                {
                    "name": "A3",
                    "midi": 57,
                    "time": 67.59496599999996,
                    "velocity": 0.6614173228346457,
                    "duration": 0.18987350000000447
                },
                {
                    "name": "A2",
                    "midi": 45,
                    "time": 67.59496599999996,
                    "velocity": 0.5511811023622047,
                    "duration": 0.18987350000000447
                },
                {
                    "name": "B2",
                    "midi": 47,
                    "time": 68.16458649999996,
                    "velocity": 0.4409448818897638,
                    "duration": 0.18987350000000447
                },
                {
                    "name": "B3",
                    "midi": 59,
                    "time": 68.16458649999996,
                    "velocity": 0.5354330708661418,
                    "duration": 0.18987350000000447
                },
                {
                    "name": "C3",
                    "midi": 48,
                    "time": 68.35445999999996,
                    "velocity": 0.5039370078740157,
                    "duration": 0.3797469999999947
                },
                {
                    "name": "C4",
                    "midi": 60,
                    "time": 68.35445999999996,
                    "velocity": 0.6141732283464567,
                    "duration": 0.3797469999999947
                },
                {
                    "name": "F3",
                    "midi": 53,
                    "time": 69.11395399999995,
                    "velocity": 0.4881889763779528,
                    "duration": 0.3797469999999947
                },
                {
                    "name": "F2",
                    "midi": 41,
                    "time": 69.11395399999995,
                    "velocity": 0.4094488188976378,
                    "duration": 0.3797469999999947
                },
                {
                    "name": "F3",
                    "midi": 53,
                    "time": 69.68357449999995,
                    "velocity": 0.3858267716535433,
                    "duration": 0.09493675000000223
                },
                {
                    "name": "F2",
                    "midi": 41,
                    "time": 69.68357449999995,
                    "velocity": 0.3228346456692913,
                    "duration": 0.09493675000000223
                },
                {
                    "name": "G2",
                    "midi": 43,
                    "time": 69.87344799999995,
                    "velocity": 0.4015748031496063,
                    "duration": 0.3797469999999947
                },
                {
                    "name": "G3",
                    "midi": 55,
                    "time": 69.87344799999995,
                    "velocity": 0.48031496062992124,
                    "duration": 0.3797469999999947
                },
                {
                    "name": "G3",
                    "midi": 55,
                    "time": 70.63294199999994,
                    "velocity": 0.48031496062992124,
                    "duration": 0.3797469999999947
                },
                {
                    "name": "G3",
                    "midi": 55,
                    "time": 71.20256249999994,
                    "velocity": 0.3858267716535433,
                    "duration": 0.09493675000000223
                },
                {
                    "name": "F3",
                    "midi": 53,
                    "time": 71.20256249999994,
                    "velocity": 0.3228346456692913,
                    "duration": 0.09493675000000223
                },
                {
                    "name": "D#3",
                    "midi": 51,
                    "time": 71.39243599999995,
                    "velocity": 0.4409448818897638,
                    "duration": 0.3797469999999947
                },
                {
                    "name": "G3",
                    "midi": 55,
                    "time": 71.39243599999995,
                    "velocity": 0.5196850393700787,
                    "duration": 0.3797469999999947
                },
                {
                    "name": "G1",
                    "midi": 31,
                    "time": 72.15192999999994,
                    "velocity": 0.48031496062992124,
                    "duration": 0.3797469999999947
                },
                {
                    "name": "G2",
                    "midi": 43,
                    "time": 72.15192999999994,
                    "velocity": 0.5748031496062992,
                    "duration": 0.3797469999999947
                },
                {
                    "name": "G2",
                    "midi": 43,
                    "time": 72.72155049999994,
                    "velocity": 0.48031496062992124,
                    "duration": 0.09493675000000223
                },
                {
                    "name": "G1",
                    "midi": 31,
                    "time": 72.72155049999994,
                    "velocity": 0.4015748031496063,
                    "duration": 0.09493675000000223
                },
                {
                    "name": "G2",
                    "midi": 43,
                    "time": 72.91142399999994,
                    "velocity": 0.6062992125984252,
                    "duration": 2.278481999999997
                },
                {
                    "name": "C2",
                    "midi": 36,
                    "time": 72.91142399999994,
                    "velocity": 0.5039370078740157,
                    "duration": 2.278481999999997
                },
                {
                    "name": "F4",
                    "midi": 65,
                    "time": 76.70889399999993,
                    "velocity": 0.3228346456692913,
                    "duration": 0.5696204999999992
                },
                {
                    "name": "D4",
                    "midi": 62,
                    "time": 77.46838799999993,
                    "velocity": 0.2677165354330709,
                    "duration": 0.5696204999999992
                },
                {
                    "name": "F4",
                    "midi": 65,
                    "time": 77.46838799999993,
                    "velocity": 0.3228346456692913,
                    "duration": 0.5696204999999992
                },
                {
                    "name": "A#3",
                    "midi": 58,
                    "time": 78.22788199999994,
                    "velocity": 0.2677165354330709,
                    "duration": 0.7594940000000037
                },
                {
                    "name": "F4",
                    "midi": 65,
                    "time": 78.22788199999994,
                    "velocity": 0.3228346456692913,
                    "duration": 0.7594940000000037
                },
                {
                    "name": "D#4",
                    "midi": 63,
                    "time": 78.98737599999994,
                    "velocity": 0.4094488188976378,
                    "duration": 0.7594940000000037
                },
                {
                    "name": "B3",
                    "midi": 59,
                    "time": 79.74686999999994,
                    "velocity": 0.23622047244094488,
                    "duration": 0.7594940000000037
                },
                {
                    "name": "F4",
                    "midi": 65,
                    "time": 79.74686999999994,
                    "velocity": 0.28346456692913385,
                    "duration": 0.7594940000000037
                },
                {
                    "name": "D4",
                    "midi": 62,
                    "time": 79.74686999999994,
                    "velocity": 0.23622047244094488,
                    "duration": 0.7594940000000037
                },
                {
                    "name": "C4",
                    "midi": 60,
                    "time": 80.50636399999995,
                    "velocity": 0.3464566929133858,
                    "duration": 0.7594940000000037
                },
                {
                    "name": "D#4",
                    "midi": 63,
                    "time": 80.50636399999995,
                    "velocity": 0.4094488188976378,
                    "duration": 0.7594940000000037
                },
                {
                    "name": "F3",
                    "midi": 53,
                    "time": 81.26585799999995,
                    "velocity": 0.33858267716535434,
                    "duration": 0.7594940000000037
                },
                {
                    "name": "G3",
                    "midi": 55,
                    "time": 82.02535199999996,
                    "velocity": 0.3779527559055118,
                    "duration": 0.7594940000000037
                },
                {
                    "name": "G3",
                    "midi": 55,
                    "time": 82.78484599999996,
                    "velocity": 0.3858267716535433,
                    "duration": 0.5696204999999992
                },
                {
                    "name": "F3",
                    "midi": 53,
                    "time": 83.35446649999996,
                    "velocity": 0.2677165354330709,
                    "duration": 0.18987350000000447
                },
                {
                    "name": "G3",
                    "midi": 55,
                    "time": 83.35446649999996,
                    "velocity": 0.31496062992125984,
                    "duration": 0.18987350000000447
                },
                {
                    "name": "D#3",
                    "midi": 51,
                    "time": 83.54433999999996,
                    "velocity": 0.3543307086614173,
                    "duration": 0.7594940000000037
                },
                {
                    "name": "G3",
                    "midi": 55,
                    "time": 83.54433999999996,
                    "velocity": 0.41732283464566927,
                    "duration": 0.7594940000000037
                },
                {
                    "name": "D3",
                    "midi": 50,
                    "time": 84.30383399999997,
                    "velocity": 0.36220472440944884,
                    "duration": 0.5696204999999992
                },
                {
                    "name": "G3",
                    "midi": 55,
                    "time": 84.30383399999997,
                    "velocity": 0.36220472440944884,
                    "duration": 0.5696204999999992
                },
                {
                    "name": "B3",
                    "midi": 59,
                    "time": 84.30383399999997,
                    "velocity": 0.4330708661417323,
                    "duration": 0.5696204999999992
                },
                {
                    "name": "C4",
                    "midi": 60,
                    "time": 84.87345449999997,
                    "velocity": 0.4409448818897638,
                    "duration": 0.18987350000000447
                },
                {
                    "name": "G3",
                    "midi": 55,
                    "time": 84.87345449999997,
                    "velocity": 0.3700787401574803,
                    "duration": 0.18987350000000447
                },
                {
                    "name": "C3",
                    "midi": 48,
                    "time": 84.87345449999997,
                    "velocity": 0.3700787401574803,
                    "duration": 0.18987350000000447
                },
                {
                    "name": "G3",
                    "midi": 55,
                    "time": 85.06332799999997,
                    "velocity": 0.4330708661417323,
                    "duration": 2.278481999999997
                },
                {
                    "name": "B3",
                    "midi": 59,
                    "time": 85.06332799999997,
                    "velocity": 0.5039370078740157,
                    "duration": 2.278481999999997
                },
                {
                    "name": "A#1",
                    "midi": 34,
                    "time": 87.34180999999997,
                    "velocity": 0.4409448818897638,
                    "duration": 0.3797469999999947
                },
                {
                    "name": "A#2",
                    "midi": 46,
                    "time": 87.34180999999997,
                    "velocity": 0.5196850393700787,
                    "duration": 0.3797469999999947
                },
                {
                    "name": "A#2",
                    "midi": 46,
                    "time": 87.91143049999997,
                    "velocity": 0.47244094488188976,
                    "duration": 0.09493675000000223
                },
                {
                    "name": "A#1",
                    "midi": 34,
                    "time": 87.91143049999997,
                    "velocity": 0.4094488188976378,
                    "duration": 0.09493675000000223
                },
                {
                    "name": "A#2",
                    "midi": 46,
                    "time": 88.10130399999997,
                    "velocity": 0.5984251968503937,
                    "duration": 0.3797469999999947
                },
                {
                    "name": "A#1",
                    "midi": 34,
                    "time": 88.10130399999997,
                    "velocity": 0.5039370078740157,
                    "duration": 0.3797469999999947
                },
                {
                    "name": "A#1",
                    "midi": 34,
                    "time": 88.86079799999996,
                    "velocity": 0.44881889763779526,
                    "duration": 0.3797469999999947
                },
                {
                    "name": "A#2",
                    "midi": 46,
                    "time": 88.86079799999996,
                    "velocity": 0.5433070866141733,
                    "duration": 0.3797469999999947
                },
                {
                    "name": "A#2",
                    "midi": 46,
                    "time": 89.62029199999995,
                    "velocity": 0.5590551181102362,
                    "duration": 0.3797469999999947
                },
                {
                    "name": "A#1",
                    "midi": 34,
                    "time": 89.62029199999995,
                    "velocity": 0.4645669291338583,
                    "duration": 0.3797469999999947
                },
                {
                    "name": "A#2",
                    "midi": 46,
                    "time": 90.37978599999994,
                    "velocity": 0.6771653543307087,
                    "duration": 0.3797469999999947
                },
                {
                    "name": "A#1",
                    "midi": 34,
                    "time": 90.37978599999994,
                    "velocity": 0.5748031496062992,
                    "duration": 0.3797469999999947
                },
                {
                    "name": "A#1",
                    "midi": 34,
                    "time": 90.94940649999994,
                    "velocity": 0.4645669291338583,
                    "duration": 0.09493675000000223
                },
                {
                    "name": "A#2",
                    "midi": 46,
                    "time": 90.94940649999994,
                    "velocity": 0.5590551181102362,
                    "duration": 0.09493675000000223
                },
                {
                    "name": "A#1",
                    "midi": 34,
                    "time": 91.13927999999994,
                    "velocity": 0.5275590551181102,
                    "duration": 0.18987350000000447
                },
                {
                    "name": "A#2",
                    "midi": 46,
                    "time": 91.13927999999994,
                    "velocity": 0.6220472440944882,
                    "duration": 0.18987350000000447
                },
                {
                    "name": "C2",
                    "midi": 36,
                    "time": 91.89877399999995,
                    "velocity": 0.5984251968503937,
                    "duration": 0.18987350000000447
                },
                {
                    "name": "C3",
                    "midi": 48,
                    "time": 91.89877399999995,
                    "velocity": 0.7165354330708661,
                    "duration": 0.18987350000000447
                },
                {
                    "name": "D2",
                    "midi": 38,
                    "time": 92.46839449999995,
                    "velocity": 0.47244094488188976,
                    "duration": 0.18987350000000447
                },
                {
                    "name": "D3",
                    "midi": 50,
                    "time": 92.46839449999995,
                    "velocity": 0.5826771653543307,
                    "duration": 0.18987350000000447
                },
                {
                    "name": "D#2",
                    "midi": 39,
                    "time": 92.65826799999995,
                    "velocity": 0.5590551181102362,
                    "duration": 0.3797469999999947
                },
                {
                    "name": "D#3",
                    "midi": 51,
                    "time": 92.65826799999995,
                    "velocity": 0.6614173228346457,
                    "duration": 0.3797469999999947
                },
                {
                    "name": "F2",
                    "midi": 41,
                    "time": 93.41776199999994,
                    "velocity": 0.44881889763779526,
                    "duration": 0.3797469999999947
                },
                {
                    "name": "F3",
                    "midi": 53,
                    "time": 93.41776199999994,
                    "velocity": 0.5275590551181102,
                    "duration": 0.3797469999999947
                },
                {
                    "name": "F2",
                    "midi": 41,
                    "time": 93.98738249999994,
                    "velocity": 0.3464566929133858,
                    "duration": 0.09493675000000223
                },
                {
                    "name": "F3",
                    "midi": 53,
                    "time": 93.98738249999994,
                    "velocity": 0.41732283464566927,
                    "duration": 0.09493675000000223
                },
                {
                    "name": "G3",
                    "midi": 55,
                    "time": 94.17725599999994,
                    "velocity": 0.5196850393700787,
                    "duration": 0.3797469999999947
                },
                {
                    "name": "G2",
                    "midi": 43,
                    "time": 94.17725599999994,
                    "velocity": 0.4409448818897638,
                    "duration": 0.3797469999999947
                },
                {
                    "name": "G3",
                    "midi": 55,
                    "time": 94.93674999999993,
                    "velocity": 0.5196850393700787,
                    "duration": 0.3797469999999947
                },
                {
                    "name": "G3",
                    "midi": 55,
                    "time": 95.50637049999993,
                    "velocity": 0.41732283464566927,
                    "duration": 0.09493675000000223
                },
                {
                    "name": "F3",
                    "midi": 53,
                    "time": 95.50637049999993,
                    "velocity": 0.3464566929133858,
                    "duration": 0.09493675000000223
                },
                {
                    "name": "D#3",
                    "midi": 51,
                    "time": 95.69624399999994,
                    "velocity": 0.4645669291338583,
                    "duration": 0.3797469999999947
                },
                {
                    "name": "G3",
                    "midi": 55,
                    "time": 95.69624399999994,
                    "velocity": 0.5590551181102362,
                    "duration": 0.3797469999999947
                },
                {
                    "name": "G2",
                    "midi": 43,
                    "time": 96.45573799999993,
                    "velocity": 0.6220472440944882,
                    "duration": 0.3797469999999947
                },
                {
                    "name": "G1",
                    "midi": 31,
                    "time": 96.45573799999993,
                    "velocity": 0.5275590551181102,
                    "duration": 0.3797469999999947
                },
                {
                    "name": "G2",
                    "midi": 43,
                    "time": 97.02535849999992,
                    "velocity": 0.5196850393700787,
                    "duration": 0.09493675000000223
                },
                {
                    "name": "G1",
                    "midi": 31,
                    "time": 97.02535849999992,
                    "velocity": 0.4409448818897638,
                    "duration": 0.09493675000000223
                },
                {
                    "name": "G2",
                    "midi": 43,
                    "time": 97.21523199999993,
                    "velocity": 0.6535433070866141,
                    "duration": 2.278481999999997
                },
                {
                    "name": "C2",
                    "midi": 36,
                    "time": 97.21523199999993,
                    "velocity": 0.5511811023622047,
                    "duration": 2.278481999999997
                },
                {
                    "name": "G#2",
                    "midi": 44,
                    "time": 100.25320799999993,
                    "velocity": 0.48031496062992124,
                    "duration": 2.278481999999997
                },
                {
                    "name": "D#3",
                    "midi": 51,
                    "time": 100.25320799999993,
                    "velocity": 0.48031496062992124,
                    "duration": 2.278481999999997
                },
                {
                    "name": "G#3",
                    "midi": 56,
                    "time": 100.25320799999993,
                    "velocity": 0.5669291338582677,
                    "duration": 2.278481999999997
                },
                {
                    "name": "C3",
                    "midi": 48,
                    "time": 103.29118399999993,
                    "velocity": 0.48031496062992124,
                    "duration": 2.278481999999997
                },
                {
                    "name": "D#2",
                    "midi": 39,
                    "time": 103.29118399999993,
                    "velocity": 0.48031496062992124,
                    "duration": 2.278481999999997
                },
                {
                    "name": "D#3",
                    "midi": 51,
                    "time": 103.29118399999993,
                    "velocity": 0.5669291338582677,
                    "duration": 2.278481999999997
                },
                {
                    "name": "C3",
                    "midi": 48,
                    "time": 105.56966599999993,
                    "velocity": 0.3779527559055118,
                    "duration": 0.7594940000000037
                },
                {
                    "name": "C4",
                    "midi": 60,
                    "time": 105.56966599999993,
                    "velocity": 0.44881889763779526,
                    "duration": 0.7594940000000037
                },
                {
                    "name": "F3",
                    "midi": 53,
                    "time": 106.32915999999993,
                    "velocity": 0.4409448818897638,
                    "duration": 0.7594940000000037
                },
                {
                    "name": "F2",
                    "midi": 41,
                    "time": 106.32915999999993,
                    "velocity": 0.3700787401574803,
                    "duration": 0.7594940000000037
                },
                {
                    "name": "G2",
                    "midi": 43,
                    "time": 107.08865399999993,
                    "velocity": 0.3700787401574803,
                    "duration": 0.3797469999999947
                },
                {
                    "name": "G3",
                    "midi": 55,
                    "time": 107.08865399999993,
                    "velocity": 0.4409448818897638,
                    "duration": 0.3797469999999947
                },
                {
                    "name": "G#2",
                    "midi": 44,
                    "time": 107.65827449999993,
                    "velocity": 0.2992125984251969,
                    "duration": 0.09493675000000223
                },
                {
                    "name": "G#3",
                    "midi": 56,
                    "time": 107.65827449999993,
                    "velocity": 0.3543307086614173,
                    "duration": 0.09493675000000223
                },
                {
                    "name": "G3",
                    "midi": 55,
                    "time": 107.84814799999994,
                    "velocity": 0.47244094488188976,
                    "duration": 0.7594940000000037
                },
                {
                    "name": "G2",
                    "midi": 43,
                    "time": 107.84814799999994,
                    "velocity": 0.4015748031496063,
                    "duration": 0.7594940000000037
                },
                {
                    "name": "G2",
                    "midi": 43,
                    "time": 108.60764199999994,
                    "velocity": 0.4409448818897638,
                    "duration": 0.7594940000000037
                },
                {
                    "name": "G1",
                    "midi": 31,
                    "time": 108.60764199999994,
                    "velocity": 0.3700787401574803,
                    "duration": 0.7594940000000037
                },
                {
                    "name": "C3",
                    "midi": 48,
                    "time": 109.36713599999995,
                    "velocity": 0.4645669291338583,
                    "duration": 2.278481999999997
                },
                {
                    "name": "G2",
                    "midi": 43,
                    "time": 109.36713599999995,
                    "velocity": 0.3937007874015748,
                    "duration": 2.278481999999997
                },
                {
                    "name": "C2",
                    "midi": 36,
                    "time": 109.36713599999995,
                    "velocity": 0.3937007874015748,
                    "duration": 2.278481999999997
                },
                {
                    "name": "G#2",
                    "midi": 44,
                    "time": 112.40511199999995,
                    "velocity": 0.3700787401574803,
                    "duration": 2.278481999999997
                },
                {
                    "name": "D#3",
                    "midi": 51,
                    "time": 112.40511199999995,
                    "velocity": 0.3700787401574803,
                    "duration": 2.278481999999997
                },
                {
                    "name": "G#3",
                    "midi": 56,
                    "time": 112.40511199999995,
                    "velocity": 0.4409448818897638,
                    "duration": 2.278481999999997
                },
                {
                    "name": "D#2",
                    "midi": 39,
                    "time": 115.44308799999995,
                    "velocity": 0.3937007874015748,
                    "duration": 2.278481999999997
                },
                {
                    "name": "C3",
                    "midi": 48,
                    "time": 115.44308799999995,
                    "velocity": 0.3937007874015748,
                    "duration": 2.278481999999997
                },
                {
                    "name": "D#3",
                    "midi": 51,
                    "time": 115.44308799999995,
                    "velocity": 0.4645669291338583,
                    "duration": 2.278481999999997
                },
                {
                    "name": "C#3",
                    "midi": 49,
                    "time": 118.48106399999995,
                    "velocity": 0.30708661417322836,
                    "duration": 0.7594940000000037
                },
                {
                    "name": "D#3",
                    "midi": 51,
                    "time": 119.24055799999995,
                    "velocity": 0.30708661417322836,
                    "duration": 0.3797469999999947
                },
                {
                    "name": "F3",
                    "midi": 53,
                    "time": 119.81017849999995,
                    "velocity": 0.2440944881889764,
                    "duration": 0.09493675000000223
                },
                {
                    "name": "D#3",
                    "midi": 51,
                    "time": 120.00005199999995,
                    "velocity": 0.33070866141732286,
                    "duration": 0.3797469999999947
                },
                {
                    "name": "D#3",
                    "midi": 51,
                    "time": 120.75954599999994,
                    "velocity": 0.2755905511811024,
                    "duration": 0.3797469999999947
                },
                {
                    "name": "D#2",
                    "midi": 39,
                    "time": 120.75954599999994,
                    "velocity": 0.2204724409448819,
                    "duration": 0.3797469999999947
                },
                {
                    "name": "G#2",
                    "midi": 44,
                    "time": 121.51903999999993,
                    "velocity": 0.31496062992125984,
                    "duration": 0.25316466666666315
                },
                {
                    "name": "C3",
                    "midi": 48,
                    "time": 121.7722046666666,
                    "velocity": 0.25984251968503935,
                    "duration": 0.25316466666666315
                },
                {
                    "name": "D#3",
                    "midi": 51,
                    "time": 122.02536933333326,
                    "velocity": 0.25984251968503935,
                    "duration": 0.25316466666666315
                },
                {
                    "name": "C3",
                    "midi": 48,
                    "time": 122.27853399999992,
                    "velocity": 0.31496062992125984,
                    "duration": 0.25316466666666315
                },
                {
                    "name": "D#3",
                    "midi": 51,
                    "time": 122.53169866666659,
                    "velocity": 0.2283464566929134,
                    "duration": 0.25316466666666315
                },
                {
                    "name": "G#3",
                    "midi": 56,
                    "time": 122.78486333333325,
                    "velocity": 0.23622047244094488,
                    "duration": 0.25316466666666315
                },
                {
                    "name": "B2",
                    "midi": 47,
                    "time": 123.03802799999991,
                    "velocity": 0.31496062992125984,
                    "duration": 0.25316466666666315
                },
                {
                    "name": "D3",
                    "midi": 50,
                    "time": 123.29119266666657,
                    "velocity": 0.25984251968503935,
                    "duration": 0.25316466666666315
                },
                {
                    "name": "G#3",
                    "midi": 56,
                    "time": 123.54435733333324,
                    "velocity": 0.25984251968503935,
                    "duration": 0.25316466666666315
                },
                {
                    "name": "C3",
                    "midi": 48,
                    "time": 123.7975219999999,
                    "velocity": 0.31496062992125984,
                    "duration": 0.25316466666666315
                },
                {
                    "name": "D#3",
                    "midi": 51,
                    "time": 124.05068666666656,
                    "velocity": 0.2755905511811024,
                    "duration": 0.25316466666666315
                },
                {
                    "name": "G#3",
                    "midi": 56,
                    "time": 124.30385133333323,
                    "velocity": 0.2755905511811024,
                    "duration": 0.25316466666666315
                },
                {
                    "name": "G#2",
                    "midi": 44,
                    "time": 124.55701599999989,
                    "velocity": 0.31496062992125984,
                    "duration": 0.25316466666666315
                },
                {
                    "name": "C3",
                    "midi": 48,
                    "time": 124.81018066666655,
                    "velocity": 0.25984251968503935,
                    "duration": 0.25316466666666315
                },
                {
                    "name": "G#3",
                    "midi": 56,
                    "time": 125.06334533333322,
                    "velocity": 0.25984251968503935,
                    "duration": 0.25316466666666315
                },
                {
                    "name": "C3",
                    "midi": 48,
                    "time": 125.31650999999988,
                    "velocity": 0.31496062992125984,
                    "duration": 0.25316466666666315
                },
                {
                    "name": "D#3",
                    "midi": 51,
                    "time": 125.56967466666654,
                    "velocity": 0.2283464566929134,
                    "duration": 0.25316466666666315
                },
                {
                    "name": "G#3",
                    "midi": 56,
                    "time": 125.8228393333332,
                    "velocity": 0.23622047244094488,
                    "duration": 0.25316466666666315
                },
                {
                    "name": "B2",
                    "midi": 47,
                    "time": 126.07600399999987,
                    "velocity": 0.31496062992125984,
                    "duration": 0.25316466666666315
                },
                {
                    "name": "D3",
                    "midi": 50,
                    "time": 126.32916866666653,
                    "velocity": 0.25984251968503935,
                    "duration": 0.25316466666666315
                },
                {
                    "name": "G#3",
                    "midi": 56,
                    "time": 126.5823333333332,
                    "velocity": 0.25984251968503935,
                    "duration": 0.25316466666666315
                },
                {
                    "name": "C3",
                    "midi": 48,
                    "time": 126.83549799999986,
                    "velocity": 0.31496062992125984,
                    "duration": 0.25316466666666315
                },
                {
                    "name": "D#3",
                    "midi": 51,
                    "time": 127.08866266666652,
                    "velocity": 0.2755905511811024,
                    "duration": 0.25316466666666315
                },
                {
                    "name": "G#3",
                    "midi": 56,
                    "time": 127.34182733333319,
                    "velocity": 0.2755905511811024,
                    "duration": 0.25316466666666315
                },
                {
                    "name": "C#3",
                    "midi": 49,
                    "time": 127.59499199999985,
                    "velocity": 0.31496062992125984,
                    "duration": 0.25316466666666315
                },
                {
                    "name": "F3",
                    "midi": 53,
                    "time": 127.84815666666651,
                    "velocity": 0.25984251968503935,
                    "duration": 0.25316466666666315
                },
                {
                    "name": "G#3",
                    "midi": 56,
                    "time": 128.10132133333317,
                    "velocity": 0.25984251968503935,
                    "duration": 0.25316466666666315
                },
                {
                    "name": "C#3",
                    "midi": 49,
                    "time": 128.35448599999984,
                    "velocity": 0.31496062992125984,
                    "duration": 0.25316466666666315
                },
                {
                    "name": "G3",
                    "midi": 55,
                    "time": 128.6076506666665,
                    "velocity": 0.2283464566929134,
                    "duration": 0.25316466666666315
                },
                {
                    "name": "A#3",
                    "midi": 58,
                    "time": 128.86081533333316,
                    "velocity": 0.23622047244094488,
                    "duration": 0.25316466666666315
                },
                {
                    "name": "C3",
                    "midi": 48,
                    "time": 129.11397999999983,
                    "velocity": 0.31496062992125984,
                    "duration": 0.25316466666666315
                },
                {
                    "name": "G#3",
                    "midi": 56,
                    "time": 129.3671446666665,
                    "velocity": 0.25984251968503935,
                    "duration": 0.25316466666666315
                },
                {
                    "name": "C4",
                    "midi": 60,
                    "time": 129.62030933333315,
                    "velocity": 0.25984251968503935,
                    "duration": 0.25316466666666315
                },
                {
                    "name": "C3",
                    "midi": 48,
                    "time": 129.87347399999982,
                    "velocity": 0.31496062992125984,
                    "duration": 0.25316466666666315
                },
                {
                    "name": "D#3",
                    "midi": 51,
                    "time": 130.12663866666648,
                    "velocity": 0.2755905511811024,
                    "duration": 0.25316466666666315
                },
                {
                    "name": "G#3",
                    "midi": 56,
                    "time": 130.37980333333314,
                    "velocity": 0.2755905511811024,
                    "duration": 0.25316466666666315
                },
                {
                    "name": "A#2",
                    "midi": 46,
                    "time": 130.6329679999998,
                    "velocity": 0.31496062992125984,
                    "duration": 0.25316466666666315
                },
                {
                    "name": "D#3",
                    "midi": 51,
                    "time": 130.88613266666647,
                    "velocity": 0.25984251968503935,
                    "duration": 0.25316466666666315
                },
                {
                    "name": "G#3",
                    "midi": 56,
                    "time": 131.13929733333313,
                    "velocity": 0.25984251968503935,
                    "duration": 0.25316466666666315
                },
                {
                    "name": "A#2",
                    "midi": 46,
                    "time": 131.3924619999998,
                    "velocity": 0.31496062992125984,
                    "duration": 0.25316466666666315
                },
                {
                    "name": "D#3",
                    "midi": 51,
                    "time": 131.64562666666646,
                    "velocity": 0.2283464566929134,
                    "duration": 0.25316466666666315
                },
                {
                    "name": "G3",
                    "midi": 55,
                    "time": 131.89879133333312,
                    "velocity": 0.23622047244094488,
                    "duration": 0.25316466666666315
                },
                {
                    "name": "G#2",
                    "midi": 44,
                    "time": 132.15195599999979,
                    "velocity": 0.2755905511811024,
                    "duration": 0.25316466666666315
                },
                {
                    "name": "D#3",
                    "midi": 51,
                    "time": 132.40512066666645,
                    "velocity": 0.2204724409448819,
                    "duration": 0.25316466666666315
                },
                {
                    "name": "A#3",
                    "midi": 58,
                    "time": 132.6582853333331,
                    "velocity": 0.2204724409448819,
                    "duration": 0.25316466666666315
                },
                {
                    "name": "G#2",
                    "midi": 44,
                    "time": 132.91144999999977,
                    "velocity": 0.2755905511811024,
                    "duration": 0.25316466666666315
                },
                {
                    "name": "D#3",
                    "midi": 51,
                    "time": 133.16461466666644,
                    "velocity": 0.2125984251968504,
                    "duration": 0.25316466666666315
                },
                {
                    "name": "G#3",
                    "midi": 56,
                    "time": 133.4177793333331,
                    "velocity": 0.2755905511811024,
                    "duration": 0.25316466666666315
                },
                {
                    "name": "C#3",
                    "midi": 49,
                    "time": 133.67094399999976,
                    "velocity": 0.23622047244094488,
                    "duration": 0.25316466666666315
                },
                {
                    "name": "G#3",
                    "midi": 56,
                    "time": 133.92410866666643,
                    "velocity": 0.1889763779527559,
                    "duration": 0.25316466666666315
                },
                {
                    "name": "A#3",
                    "midi": 58,
                    "time": 134.1772733333331,
                    "velocity": 0.1889763779527559,
                    "duration": 0.25316466666666315
                },
                {
                    "name": "F3",
                    "midi": 53,
                    "time": 134.43043799999975,
                    "velocity": 0.25196850393700787,
                    "duration": 0.25316466666666315
                },
                {
                    "name": "G#3",
                    "midi": 56,
                    "time": 134.68360266666642,
                    "velocity": 0.18110236220472442,
                    "duration": 0.25316466666666315
                },
                {
                    "name": "C#4",
                    "midi": 61,
                    "time": 134.93676733333308,
                    "velocity": 0.1889763779527559,
                    "duration": 0.25316466666666315
                },
                {
                    "name": "D#3",
                    "midi": 51,
                    "time": 135.18993199999974,
                    "velocity": 0.23622047244094488,
                    "duration": 0.25316466666666315
                },
                {
                    "name": "G#3",
                    "midi": 56,
                    "time": 135.4430966666664,
                    "velocity": 0.18110236220472442,
                    "duration": 0.25316466666666315
                },
                {
                    "name": "C4",
                    "midi": 60,
                    "time": 135.69626133333307,
                    "velocity": 0.18110236220472442,
                    "duration": 0.25316466666666315
                },
                {
                    "name": "D#3",
                    "midi": 51,
                    "time": 135.94942599999973,
                    "velocity": 0.2283464566929134,
                    "duration": 0.25316466666666315
                },
                {
                    "name": "G3",
                    "midi": 55,
                    "time": 136.2025906666664,
                    "velocity": 0.18110236220472442,
                    "duration": 0.25316466666666315
                },
                {
                    "name": "A#3",
                    "midi": 58,
                    "time": 136.45575533333306,
                    "velocity": 0.18110236220472442,
                    "duration": 0.25316466666666315
                },
                {
                    "name": "G#2",
                    "midi": 44,
                    "time": 136.70891999999972,
                    "velocity": 0.25984251968503935,
                    "duration": 0.25316466666666315
                },
                {
                    "name": "C3",
                    "midi": 48,
                    "time": 136.96208466666639,
                    "velocity": 0.18110236220472442,
                    "duration": 0.25316466666666315
                },
                {
                    "name": "G#3",
                    "midi": 56,
                    "time": 137.21524933333305,
                    "velocity": 0.18110236220472442,
                    "duration": 0.25316466666666315
                },
                {
                    "name": "C3",
                    "midi": 48,
                    "time": 137.4684139999997,
                    "velocity": 0.2440944881889764,
                    "duration": 0.25316466666666315
                },
                {
                    "name": "D#3",
                    "midi": 51,
                    "time": 137.72157866666637,
                    "velocity": 0.1968503937007874,
                    "duration": 0.25316466666666315
                },
                {
                    "name": "G#3",
                    "midi": 56,
                    "time": 137.97474333333304,
                    "velocity": 0.2047244094488189,
                    "duration": 0.25316466666666315
                },
                {
                    "name": "B2",
                    "midi": 47,
                    "time": 138.2279079999997,
                    "velocity": 0.31496062992125984,
                    "duration": 0.25316466666666315
                },
                {
                    "name": "D3",
                    "midi": 50,
                    "time": 138.48107266666636,
                    "velocity": 0.2440944881889764,
                    "duration": 0.25316466666666315
                },
                {
                    "name": "G#3",
                    "midi": 56,
                    "time": 138.73423733333303,
                    "velocity": 0.2440944881889764,
                    "duration": 0.25316466666666315
                },
                {
                    "name": "C3",
                    "midi": 48,
                    "time": 138.9874019999997,
                    "velocity": 0.31496062992125984,
                    "duration": 0.25316466666666315
                },
                {
                    "name": "D#3",
                    "midi": 51,
                    "time": 139.24056666666635,
                    "velocity": 0.2755905511811024,
                    "duration": 0.25316466666666315
                },
                {
                    "name": "G#3",
                    "midi": 56,
                    "time": 139.49373133333302,
                    "velocity": 0.2755905511811024,
                    "duration": 0.25316466666666315
                },
                {
                    "name": "G#2",
                    "midi": 44,
                    "time": 139.74689599999968,
                    "velocity": 0.31496062992125984,
                    "duration": 0.25316466666666315
                },
                {
                    "name": "C3",
                    "midi": 48,
                    "time": 140.00006066666634,
                    "velocity": 0.25984251968503935,
                    "duration": 0.25316466666666315
                },
                {
                    "name": "G#3",
                    "midi": 56,
                    "time": 140.253225333333,
                    "velocity": 0.25984251968503935,
                    "duration": 0.25316466666666315
                },
                {
                    "name": "C3",
                    "midi": 48,
                    "time": 140.50638999999967,
                    "velocity": 0.31496062992125984,
                    "duration": 0.25316466666666315
                },
                {
                    "name": "D#3",
                    "midi": 51,
                    "time": 140.75955466666633,
                    "velocity": 0.2283464566929134,
                    "duration": 0.25316466666666315
                },
                {
                    "name": "G#3",
                    "midi": 56,
                    "time": 141.012719333333,
                    "velocity": 0.23622047244094488,
                    "duration": 0.25316466666666315
                },
                {
                    "name": "B2",
                    "midi": 47,
                    "time": 141.26588399999966,
                    "velocity": 0.31496062992125984,
                    "duration": 0.25316466666666315
                },
                {
                    "name": "D3",
                    "midi": 50,
                    "time": 141.51904866666632,
                    "velocity": 0.25984251968503935,
                    "duration": 0.25316466666666315
                },
                {
                    "name": "G#3",
                    "midi": 56,
                    "time": 141.77221333333299,
                    "velocity": 0.25984251968503935,
                    "duration": 0.25316466666666315
                },
                {
                    "name": "C3",
                    "midi": 48,
                    "time": 142.02537799999965,
                    "velocity": 0.31496062992125984,
                    "duration": 0.25316466666666315
                },
                {
                    "name": "D#3",
                    "midi": 51,
                    "time": 142.2785426666663,
                    "velocity": 0.2755905511811024,
                    "duration": 0.25316466666666315
                },
                {
                    "name": "G#3",
                    "midi": 56,
                    "time": 142.53170733333297,
                    "velocity": 0.2755905511811024,
                    "duration": 0.25316466666666315
                },
                {
                    "name": "C#3",
                    "midi": 49,
                    "time": 142.78487199999964,
                    "velocity": 0.31496062992125984,
                    "duration": 0.25316466666666315
                },
                {
                    "name": "E3",
                    "midi": 52,
                    "time": 143.0380366666663,
                    "velocity": 0.25984251968503935,
                    "duration": 0.25316466666666315
                },
                {
                    "name": "G#3",
                    "midi": 56,
                    "time": 143.29120133333296,
                    "velocity": 0.25984251968503935,
                    "duration": 0.25316466666666315
                },
                {
                    "name": "C#3",
                    "midi": 49,
                    "time": 143.54436599999963,
                    "velocity": 0.31496062992125984,
                    "duration": 0.25316466666666315
                },
                {
                    "name": "E3",
                    "midi": 52,
                    "time": 143.7975306666663,
                    "velocity": 0.2283464566929134,
                    "duration": 0.25316466666666315
                },
                {
                    "name": "A#3",
                    "midi": 58,
                    "time": 144.05069533333295,
                    "velocity": 0.23622047244094488,
                    "duration": 0.25316466666666315
                },
                {
                    "name": "B2",
                    "midi": 47,
                    "time": 144.30385999999962,
                    "velocity": 0.31496062992125984,
                    "duration": 0.25316466666666315
                },
                {
                    "name": "F#3",
                    "midi": 54,
                    "time": 144.55702466666628,
                    "velocity": 0.25984251968503935,
                    "duration": 0.25316466666666315
                },
                {
                    "name": "B3",
                    "midi": 59,
                    "time": 144.81018933333294,
                    "velocity": 0.25984251968503935,
                    "duration": 0.25316466666666315
                },
                {
                    "name": "B2",
                    "midi": 47,
                    "time": 145.0633539999996,
                    "velocity": 0.31496062992125984,
                    "duration": 0.25316466666666315
                },
                {
                    "name": "F#3",
                    "midi": 54,
                    "time": 145.31651866666627,
                    "velocity": 0.2755905511811024,
                    "duration": 0.25316466666666315
                },
                {
                    "name": "B3",
                    "midi": 59,
                    "time": 145.56968333333293,
                    "velocity": 0.2755905511811024,
                    "duration": 0.25316466666666315
                },
                {
                    "name": "E3",
                    "midi": 52,
                    "time": 145.8228479999996,
                    "velocity": 0.31496062992125984,
                    "duration": 0.25316466666666315
                },
                {
                    "name": "G#3",
                    "midi": 56,
                    "time": 146.07601266666626,
                    "velocity": 0.25984251968503935,
                    "duration": 0.25316466666666315
                },
                {
                    "name": "C#4",
                    "midi": 61,
                    "time": 146.32917733333292,
                    "velocity": 0.25984251968503935,
                    "duration": 0.25316466666666315
                },
                {
                    "name": "E3",
                    "midi": 52,
                    "time": 146.58234199999958,
                    "velocity": 0.31496062992125984,
                    "duration": 0.25316466666666315
                },
                {
                    "name": "F#3",
                    "midi": 54,
                    "time": 146.83550666666625,
                    "velocity": 0.2283464566929134,
                    "duration": 0.25316466666666315
                },
                {
                    "name": "A#3",
                    "midi": 58,
                    "time": 147.0886713333329,
                    "velocity": 0.23622047244094488,
                    "duration": 0.25316466666666315
                },
                {
                    "name": "D#3",
                    "midi": 51,
                    "time": 147.34183599999957,
                    "velocity": 0.2755905511811024,
                    "duration": 0.25316466666666315
                },
                {
                    "name": "F#3",
                    "midi": 54,
                    "time": 147.59500066666624,
                    "velocity": 0.2204724409448819,
                    "duration": 0.25316466666666315
                },
                {
                    "name": "B3",
                    "midi": 59,
                    "time": 147.8481653333329,
                    "velocity": 0.2204724409448819,
                    "duration": 0.25316466666666315
                },
                {
                    "name": "D#3",
                    "midi": 51,
                    "time": 148.10132999999956,
                    "velocity": 0.2755905511811024,
                    "duration": 0.25316466666666315
                },
                {
                    "name": "G3",
                    "midi": 55,
                    "time": 148.35449466666623,
                    "velocity": 0.2125984251968504,
                    "duration": 0.25316466666666315
                },
                {
                    "name": "C#4",
                    "midi": 61,
                    "time": 148.6076593333329,
                    "velocity": 0.2755905511811024,
                    "duration": 0.25316466666666315
                },
                {
                    "name": "E3",
                    "midi": 52,
                    "time": 148.86082399999955,
                    "velocity": 0.23622047244094488,
                    "duration": 0.25316466666666315
                },
                {
                    "name": "G#3",
                    "midi": 56,
                    "time": 149.11398866666622,
                    "velocity": 0.1889763779527559,
                    "duration": 0.25316466666666315
                },
                {
                    "name": "B3",
                    "midi": 59,
                    "time": 149.36715333333288,
                    "velocity": 0.1889763779527559,
                    "duration": 0.25316466666666315
                },
                {
                    "name": "G#3",
                    "midi": 56,
                    "time": 149.62031799999954,
                    "velocity": 0.25196850393700787,
                    "duration": 0.25316466666666315
                },
                {
                    "name": "B3",
                    "midi": 59,
                    "time": 149.8734826666662,
                    "velocity": 0.18110236220472442,
                    "duration": 0.25316466666666315
                },
                {
                    "name": "E4",
                    "midi": 64,
                    "time": 150.12664733333287,
                    "velocity": 0.1889763779527559,
                    "duration": 0.25316466666666315
                },
                {
                    "name": "F#3",
                    "midi": 54,
                    "time": 150.37981199999953,
                    "velocity": 0.23622047244094488,
                    "duration": 0.25316466666666315
                },
                {
                    "name": "B3",
                    "midi": 59,
                    "time": 150.6329766666662,
                    "velocity": 0.18110236220472442,
                    "duration": 0.25316466666666315
                },
                {
                    "name": "D#4",
                    "midi": 63,
                    "time": 150.88614133333286,
                    "velocity": 0.18110236220472442,
                    "duration": 0.25316466666666315
                },
                {
                    "name": "F#3",
                    "midi": 54,
                    "time": 151.13930599999952,
                    "velocity": 0.2283464566929134,
                    "duration": 0.25316466666666315
                },
                {
                    "name": "A#3",
                    "midi": 58,
                    "time": 151.39247066666618,
                    "velocity": 0.18110236220472442,
                    "duration": 0.25316466666666315
                },
                {
                    "name": "C#4",
                    "midi": 61,
                    "time": 151.64563533333285,
                    "velocity": 0.18110236220472442,
                    "duration": 0.25316466666666315
                },
                {
                    "name": "B2",
                    "midi": 47,
                    "time": 151.8987999999995,
                    "velocity": 0.25984251968503935,
                    "duration": 0.25316466666666315
                },
                {
                    "name": "D#3",
                    "midi": 51,
                    "time": 152.15196466666617,
                    "velocity": 0.18110236220472442,
                    "duration": 0.25316466666666315
                },
                {
                    "name": "B3",
                    "midi": 59,
                    "time": 152.40512933333284,
                    "velocity": 0.18110236220472442,
                    "duration": 0.25316466666666315
                },
                {
                    "name": "D#3",
                    "midi": 51,
                    "time": 152.6582939999995,
                    "velocity": 0.2440944881889764,
                    "duration": 0.25316466666666315
                },
                {
                    "name": "F#3",
                    "midi": 54,
                    "time": 152.91145866666616,
                    "velocity": 0.1968503937007874,
                    "duration": 0.25316466666666315
                },
                {
                    "name": "B3",
                    "midi": 59,
                    "time": 153.16462333333283,
                    "velocity": 0.2125984251968504,
                    "duration": 0.25316466666666315
                },
                {
                    "name": "D3",
                    "midi": 50,
                    "time": 153.4177879999995,
                    "velocity": 0.33070866141732286,
                    "duration": 0.25316466666666315
                },
                {
                    "name": "F3",
                    "midi": 53,
                    "time": 153.67095266666615,
                    "velocity": 0.25196850393700787,
                    "duration": 0.25316466666666315
                },
                {
                    "name": "B3",
                    "midi": 59,
                    "time": 153.92411733333282,
                    "velocity": 0.25196850393700787,
                    "duration": 0.25316466666666315
                },
                {
                    "name": "D#3",
                    "midi": 51,
                    "time": 154.17728199999948,
                    "velocity": 0.33070866141732286,
                    "duration": 0.25316466666666315
                },
                {
                    "name": "F#3",
                    "midi": 54,
                    "time": 154.43044666666614,
                    "velocity": 0.29133858267716534,
                    "duration": 0.25316466666666315
                },
                {
                    "name": "B3",
                    "midi": 59,
                    "time": 154.6836113333328,
                    "velocity": 0.2992125984251969,
                    "duration": 0.25316466666666315
                },
                {
                    "name": "B2",
                    "midi": 47,
                    "time": 154.93677599999947,
                    "velocity": 0.3464566929133858,
                    "duration": 0.25316466666666315
                },
                {
                    "name": "D#3",
                    "midi": 51,
                    "time": 155.18994066666613,
                    "velocity": 0.28346456692913385,
                    "duration": 0.25316466666666315
                },
                {
                    "name": "F#3",
                    "midi": 54,
                    "time": 155.4431053333328,
                    "velocity": 0.29133858267716534,
                    "duration": 0.25316466666666315
                },
                {
                    "name": "B2",
                    "midi": 47,
                    "time": 155.69626999999946,
                    "velocity": 0.3700787401574803,
                    "duration": 0.25316466666666315
                },
                {
                    "name": "D#3",
                    "midi": 51,
                    "time": 155.94943466666612,
                    "velocity": 0.2677165354330709,
                    "duration": 0.25316466666666315
                },
                {
                    "name": "F#3",
                    "midi": 54,
                    "time": 156.20259933333278,
                    "velocity": 0.28346456692913385,
                    "duration": 0.25316466666666315
                },
                {
                    "name": "A#2",
                    "midi": 46,
                    "time": 156.45576399999945,
                    "velocity": 0.4015748031496063,
                    "duration": 0.25316466666666315
                },
                {
                    "name": "C#3",
                    "midi": 49,
                    "time": 156.7089286666661,
                    "velocity": 0.3779527559055118,
                    "duration": 0.25316466666666315
                },
                {
                    "name": "D#3",
                    "midi": 51,
                    "time": 156.96209333333277,
                    "velocity": 0.3858267716535433,
                    "duration": 0.25316466666666315
                },
                {
                    "name": "G#2",
                    "midi": 44,
                    "time": 157.21525799999944,
                    "velocity": 0.4881889763779528,
                    "duration": 0.25316466666666315
                },
                {
                    "name": "C#3",
                    "midi": 49,
                    "time": 157.4684226666661,
                    "velocity": 0.4330708661417323,
                    "duration": 0.25316466666666315
                },
                {
                    "name": "D#3",
                    "midi": 51,
                    "time": 157.72158733333276,
                    "velocity": 0.4409448818897638,
                    "duration": 0.25316466666666315
                },
                {
                    "name": "G2",
                    "midi": 43,
                    "time": 157.97475199999943,
                    "velocity": 0.5669291338582677,
                    "duration": 0.25316466666666315
                },
                {
                    "name": "C#3",
                    "midi": 49,
                    "time": 158.2279166666661,
                    "velocity": 0.4566929133858268,
                    "duration": 0.25316466666666315
                },
                {
                    "name": "D#3",
                    "midi": 51,
                    "time": 158.48108133333275,
                    "velocity": 0.4881889763779528,
                    "duration": 0.25316466666666315
                },
                {
                    "name": "G2",
                    "midi": 43,
                    "time": 158.73424599999942,
                    "velocity": 0.5433070866141733,
                    "duration": 0.25316466666666315
                },
                {
                    "name": "A#2",
                    "midi": 46,
                    "time": 158.98741066666608,
                    "velocity": 0.3779527559055118,
                    "duration": 0.25316466666666315
                },
                {
                    "name": "D#3",
                    "midi": 51,
                    "time": 159.24057533333274,
                    "velocity": 0.4330708661417323,
                    "duration": 0.25316466666666315
                },
                {
                    "name": "G#2",
                    "midi": 44,
                    "time": 159.4937399999994,
                    "velocity": 0.4881889763779528,
                    "duration": 0.25316466666666315
                },
                {
                    "name": "B2",
                    "midi": 47,
                    "time": 159.74690466666607,
                    "velocity": 0.3858267716535433,
                    "duration": 0.25316466666666315
                },
                {
                    "name": "D#3",
                    "midi": 51,
                    "time": 160.00006933333273,
                    "velocity": 0.3779527559055118,
                    "duration": 0.25316466666666315
                },
                {
                    "name": "C#3",
                    "midi": 49,
                    "time": 160.2532339999994,
                    "velocity": 0.3464566929133858,
                    "duration": 0.25316466666666315
                },
                {
                    "name": "E3",
                    "midi": 52,
                    "time": 160.50639866666606,
                    "velocity": 0.2992125984251969,
                    "duration": 0.25316466666666315
                },
                {
                    "name": "A#3",
                    "midi": 58,
                    "time": 160.75956333333272,
                    "velocity": 0.2992125984251969,
                    "duration": 0.25316466666666315
                },
                {
                    "name": "D#3",
                    "midi": 51,
                    "time": 161.01272799999938,
                    "velocity": 0.25984251968503935,
                    "duration": 0.25316466666666315
                },
                {
                    "name": "A#3",
                    "midi": 58,
                    "time": 161.26589266666605,
                    "velocity": 0.2125984251968504,
                    "duration": 0.25316466666666315
                },
                {
                    "name": "C#4",
                    "midi": 61,
                    "time": 161.5190573333327,
                    "velocity": 0.2125984251968504,
                    "duration": 0.25316466666666315
                },
                {
                    "name": "D#3",
                    "midi": 51,
                    "time": 161.77222199999937,
                    "velocity": 0.2677165354330709,
                    "duration": 0.25316466666666315
                },
                {
                    "name": "A#3",
                    "midi": 58,
                    "time": 162.02538666666604,
                    "velocity": 0.1968503937007874,
                    "duration": 0.25316466666666315
                },
                {
                    "name": "C#4",
                    "midi": 61,
                    "time": 162.2785513333327,
                    "velocity": 0.2047244094488189,
                    "duration": 0.25316466666666315
                },
                {
                    "name": "D#3",
                    "midi": 51,
                    "time": 162.53171599999936,
                    "velocity": 0.28346456692913385,
                    "duration": 0.25316466666666315
                },
                {
                    "name": "A#3",
                    "midi": 58,
                    "time": 162.78488066666603,
                    "velocity": 0.2283464566929134,
                    "duration": 0.25316466666666315
                },
                {
                    "name": "C#4",
                    "midi": 61,
                    "time": 163.0380453333327,
                    "velocity": 0.2283464566929134,
                    "duration": 0.25316466666666315
                },
                {
                    "name": "D#3",
                    "midi": 51,
                    "time": 163.29120999999935,
                    "velocity": 0.2755905511811024,
                    "duration": 0.25316466666666315
                },
                {
                    "name": "A#3",
                    "midi": 58,
                    "time": 163.54437466666602,
                    "velocity": 0.2204724409448819,
                    "duration": 0.25316466666666315
                },
                {
                    "name": "C#4",
                    "midi": 61,
                    "time": 163.79753933333268,
                    "velocity": 0.2204724409448819,
                    "duration": 0.25316466666666315
                },
                {
                    "name": "G#3",
                    "midi": 56,
                    "time": 164.05070399999934,
                    "velocity": 0.25984251968503935,
                    "duration": 0.25316466666666315
                },
                {
                    "name": "C4",
                    "midi": 60,
                    "time": 164.303868666666,
                    "velocity": 0.18110236220472442,
                    "duration": 0.25316466666666315
                },
                {
                    "name": "D#4",
                    "midi": 63,
                    "time": 164.55703333333267,
                    "velocity": 0.18110236220472442,
                    "duration": 0.25316466666666315
                },
                {
                    "name": "C4",
                    "midi": 60,
                    "time": 164.81019799999933,
                    "velocity": 0.2440944881889764,
                    "duration": 0.25316466666666315
                },
                {
                    "name": "D#4",
                    "midi": 63,
                    "time": 165.063362666666,
                    "velocity": 0.1968503937007874,
                    "duration": 0.25316466666666315
                },
                {
                    "name": "G#4",
                    "midi": 68,
                    "time": 165.31652733333266,
                    "velocity": 0.2125984251968504,
                    "duration": 0.25316466666666315
                },
                {
                    "name": "B3",
                    "midi": 59,
                    "time": 165.56969199999932,
                    "velocity": 0.2992125984251969,
                    "duration": 0.25316466666666315
                },
                {
                    "name": "D4",
                    "midi": 62,
                    "time": 165.82285666666598,
                    "velocity": 0.25196850393700787,
                    "duration": 0.25316466666666315
                },
                {
                    "name": "G#4",
                    "midi": 68,
                    "time": 166.07602133333265,
                    "velocity": 0.25196850393700787,
                    "duration": 0.25316466666666315
                },
                {
                    "name": "C4",
                    "midi": 60,
                    "time": 166.3291859999993,
                    "velocity": 0.33070866141732286,
                    "duration": 0.25316466666666315
                },
                {
                    "name": "D#4",
                    "midi": 63,
                    "time": 166.58235066666597,
                    "velocity": 0.29133858267716534,
                    "duration": 0.25316466666666315
                },
                {
                    "name": "G#4",
                    "midi": 68,
                    "time": 166.83551533333264,
                    "velocity": 0.2992125984251969,
                    "duration": 0.25316466666666315
                },
                {
                    "name": "G#3",
                    "midi": 56,
                    "time": 167.0886799999993,
                    "velocity": 0.3464566929133858,
                    "duration": 0.25316466666666315
                },
                {
                    "name": "C4",
                    "midi": 60,
                    "time": 167.34184466666596,
                    "velocity": 0.28346456692913385,
                    "duration": 0.25316466666666315
                },
                {
                    "name": "G#4",
                    "midi": 68,
                    "time": 167.59500933333263,
                    "velocity": 0.29133858267716534,
                    "duration": 0.25316466666666315
                },
                {
                    "name": "C4",
                    "midi": 60,
                    "time": 167.8481739999993,
                    "velocity": 0.3700787401574803,
                    "duration": 0.25316466666666315
                },
                {
                    "name": "D#4",
                    "midi": 63,
                    "time": 168.10133866666595,
                    "velocity": 0.2677165354330709,
                    "duration": 0.25316466666666315
                },
                {
                    "name": "G#4",
                    "midi": 68,
                    "time": 168.35450333333262,
                    "velocity": 0.28346456692913385,
                    "duration": 0.25316466666666315
                },
                {
                    "name": "B3",
                    "midi": 59,
                    "time": 168.60766799999928,
                    "velocity": 0.3937007874015748,
                    "duration": 0.25316466666666315
                },
                {
                    "name": "D4",
                    "midi": 62,
                    "time": 168.86083266666594,
                    "velocity": 0.33070866141732286,
                    "duration": 0.25316466666666315
                },
                {
                    "name": "G#4",
                    "midi": 68,
                    "time": 169.1139973333326,
                    "velocity": 0.33858267716535434,
                    "duration": 0.25316466666666315
                },
                {
                    "name": "C4",
                    "midi": 60,
                    "time": 169.36716199999927,
                    "velocity": 0.4330708661417323,
                    "duration": 0.25316466666666315
                },
                {
                    "name": "D#4",
                    "midi": 63,
                    "time": 169.62032666666593,
                    "velocity": 0.3700787401574803,
                    "duration": 0.25316466666666315
                },
                {
                    "name": "G#4",
                    "midi": 68,
                    "time": 169.8734913333326,
                    "velocity": 0.3543307086614173,
                    "duration": 0.25316466666666315
                },
                {
                    "name": "C#4",
                    "midi": 61,
                    "time": 170.12665599999926,
                    "velocity": 0.48031496062992124,
                    "duration": 0.25316466666666315
                },
                {
                    "name": "F4",
                    "midi": 65,
                    "time": 170.37982066666592,
                    "velocity": 0.36220472440944884,
                    "duration": 0.25316466666666315
                },
                {
                    "name": "G#4",
                    "midi": 68,
                    "time": 170.63298533333258,
                    "velocity": 0.4015748031496063,
                    "duration": 0.25316466666666315
                },
                {
                    "name": "C#4",
                    "midi": 61,
                    "time": 170.88614999999925,
                    "velocity": 0.48031496062992124,
                    "duration": 0.25316466666666315
                },
                {
                    "name": "D#4",
                    "midi": 63,
                    "time": 171.1393146666659,
                    "velocity": 0.3858267716535433,
                    "duration": 0.25316466666666315
                },
                {
                    "name": "A#4",
                    "midi": 70,
                    "time": 171.39247933333257,
                    "velocity": 0.3858267716535433,
                    "duration": 0.25316466666666315
                },
                {
                    "name": "C4",
                    "midi": 60,
                    "time": 171.64564399999924,
                    "velocity": 0.44881889763779526,
                    "duration": 0.25316466666666315
                },
                {
                    "name": "D#4",
                    "midi": 63,
                    "time": 171.8988086666659,
                    "velocity": 0.3543307086614173,
                    "duration": 0.25316466666666315
                },
                {
                    "name": "G#4",
                    "midi": 68,
                    "time": 172.15197333333256,
                    "velocity": 0.3464566929133858,
                    "duration": 0.25316466666666315
                },
                {
                    "name": "C4",
                    "midi": 60,
                    "time": 172.40513799999923,
                    "velocity": 0.3464566929133858,
                    "duration": 0.25316466666666315
                },
                {
                    "name": "D#4",
                    "midi": 63,
                    "time": 172.6583026666659,
                    "velocity": 0.2992125984251969,
                    "duration": 0.25316466666666315
                },
                {
                    "name": "G#4",
                    "midi": 68,
                    "time": 172.91146733333255,
                    "velocity": 0.2992125984251969,
                    "duration": 0.25316466666666315
                },
                {
                    "name": "A#3",
                    "midi": 58,
                    "time": 173.16463199999922,
                    "velocity": 0.3464566929133858,
                    "duration": 0.25316466666666315
                },
                {
                    "name": "D#4",
                    "midi": 63,
                    "time": 173.41779666666588,
                    "velocity": 0.28346456692913385,
                    "duration": 0.25316466666666315
                },
                {
                    "name": "A#4",
                    "midi": 70,
                    "time": 173.67096133333254,
                    "velocity": 0.29133858267716534,
                    "duration": 0.25316466666666315
                },
                {
                    "name": "A#3",
                    "midi": 58,
                    "time": 173.9241259999992,
                    "velocity": 0.3700787401574803,
                    "duration": 0.25316466666666315
                },
                {
                    "name": "D#4",
                    "midi": 63,
                    "time": 174.17729066666587,
                    "velocity": 0.2677165354330709,
                    "duration": 0.25316466666666315
                },
                {
                    "name": "G4",
                    "midi": 67,
                    "time": 174.43045533333253,
                    "velocity": 0.28346456692913385,
                    "duration": 0.25316466666666315
                },
                {
                    "name": "G#3",
                    "midi": 56,
                    "time": 174.6836199999992,
                    "velocity": 0.3543307086614173,
                    "duration": 0.25316466666666315
                },
                {
                    "name": "D#4",
                    "midi": 63,
                    "time": 174.93678466666586,
                    "velocity": 0.28346456692913385,
                    "duration": 0.25316466666666315
                },
                {
                    "name": "G#4",
                    "midi": 68,
                    "time": 175.18994933333252,
                    "velocity": 0.28346456692913385,
                    "duration": 0.25316466666666315
                },
                {
                    "name": "G#3",
                    "midi": 56,
                    "time": 175.44311399999918,
                    "velocity": 0.36220472440944884,
                    "duration": 0.25316466666666315
                },
                {
                    "name": "D#4",
                    "midi": 63,
                    "time": 175.69627866666585,
                    "velocity": 0.29133858267716534,
                    "duration": 0.25316466666666315
                },
                {
                    "name": "G#4",
                    "midi": 68,
                    "time": 175.9494433333325,
                    "velocity": 0.28346456692913385,
                    "duration": 0.25316466666666315
                },
                {
                    "name": "C#4",
                    "midi": 61,
                    "time": 176.20260799999917,
                    "velocity": 0.23622047244094488,
                    "duration": 0.25316466666666315
                },
                {
                    "name": "G#4",
                    "midi": 68,
                    "time": 176.45577266666584,
                    "velocity": 0.1889763779527559,
                    "duration": 0.25316466666666315
                },
                {
                    "name": "A#4",
                    "midi": 70,
                    "time": 176.7089373333325,
                    "velocity": 0.1889763779527559,
                    "duration": 0.25316466666666315
                },
                {
                    "name": "F4",
                    "midi": 65,
                    "time": 176.96210199999916,
                    "velocity": 0.25196850393700787,
                    "duration": 0.25316466666666315
                },
                {
                    "name": "G#4",
                    "midi": 68,
                    "time": 177.21526666666583,
                    "velocity": 0.18110236220472442,
                    "duration": 0.25316466666666315
                },
                {
                    "name": "C#5",
                    "midi": 73,
                    "time": 177.4684313333325,
                    "velocity": 0.1889763779527559,
                    "duration": 0.25316466666666315
                },
                {
                    "name": "D#4",
                    "midi": 63,
                    "time": 177.72159599999915,
                    "velocity": 0.23622047244094488,
                    "duration": 0.25316466666666315
                },
                {
                    "name": "G#4",
                    "midi": 68,
                    "time": 177.97476066666582,
                    "velocity": 0.18110236220472442,
                    "duration": 0.25316466666666315
                },
                {
                    "name": "C5",
                    "midi": 72,
                    "time": 178.22792533333248,
                    "velocity": 0.18110236220472442,
                    "duration": 0.25316466666666315
                },
                {
                    "name": "D#4",
                    "midi": 63,
                    "time": 178.48108999999914,
                    "velocity": 0.2283464566929134,
                    "duration": 0.25316466666666315
                },
                {
                    "name": "G4",
                    "midi": 67,
                    "time": 178.7342546666658,
                    "velocity": 0.18110236220472442,
                    "duration": 0.25316466666666315
                },
                {
                    "name": "A#4",
                    "midi": 70,
                    "time": 178.98741933333247,
                    "velocity": 0.18110236220472442,
                    "duration": 0.25316466666666315
                },
                {
                    "name": "C4",
                    "midi": 60,
                    "time": 179.24058399999913,
                    "velocity": 0.1968503937007874,
                    "duration": 0.37974700000000894
                },
                {
                    "name": "G#3",
                    "midi": 56,
                    "time": 179.24058399999913,
                    "velocity": 0.1968503937007874,
                    "duration": 0.37974700000000894
                },
                {
                    "name": "G#4",
                    "midi": 68,
                    "time": 179.24058399999913,
                    "velocity": 0.23622047244094488,
                    "duration": 0.37974700000000894
                },
                {
                    "name": "G#3",
                    "midi": 56,
                    "time": 181.51906599999913,
                    "velocity": 0.4566929133858268,
                    "duration": 0.5696205000000134
                },
                {
                    "name": "C4",
                    "midi": 60,
                    "time": 182.08868649999914,
                    "velocity": 0.4015748031496063,
                    "duration": 0.18987350000000447
                },
                {
                    "name": "D#4",
                    "midi": 63,
                    "time": 182.27855999999915,
                    "velocity": 0.4881889763779528,
                    "duration": 0.5696205000000134
                },
                {
                    "name": "D#4",
                    "midi": 63,
                    "time": 183.03805399999916,
                    "velocity": 0.4409448818897638,
                    "duration": 0.5696205000000134
                },
                {
                    "name": "D#4",
                    "midi": 63,
                    "time": 183.79754799999918,
                    "velocity": 0.4566929133858268,
                    "duration": 0.5696205000000134
                },
                {
                    "name": "D#4",
                    "midi": 63,
                    "time": 184.5570419999992,
                    "velocity": 0.44881889763779526,
                    "duration": 0.5696205000000134
                },
                {
                    "name": "F4",
                    "midi": 65,
                    "time": 185.31653599999922,
                    "velocity": 0.49606299212598426,
                    "duration": 1.5189880000000073
                },
                {
                    "name": "D#4",
                    "midi": 63,
                    "time": 186.83552399999922,
                    "velocity": 0.47244094488188976,
                    "duration": 1.5189880000000073
                },
                {
                    "name": "C#4",
                    "midi": 61,
                    "time": 188.35451199999923,
                    "velocity": 0.49606299212598426,
                    "duration": 1.5189880000000073
                },
                {
                    "name": "C4",
                    "midi": 60,
                    "time": 189.87349999999924,
                    "velocity": 0.44881889763779526,
                    "duration": 1.5189880000000073
                },
                {
                    "name": "A#3",
                    "midi": 58,
                    "time": 191.39248799999925,
                    "velocity": 0.44881889763779526,
                    "duration": 0.7594939999999895
                },
                {
                    "name": "C#4",
                    "midi": 61,
                    "time": 192.15198199999924,
                    "velocity": 0.4330708661417323,
                    "duration": 0.7594939999999895
                },
                {
                    "name": "C4",
                    "midi": 60,
                    "time": 192.91147599999923,
                    "velocity": 0.48031496062992124,
                    "duration": 0.7594939999999895
                },
                {
                    "name": "D#3",
                    "midi": 51,
                    "time": 193.67096999999922,
                    "velocity": 0.3543307086614173,
                    "duration": 0.7594939999999895
                },
                {
                    "name": "A#3",
                    "midi": 58,
                    "time": 193.67096999999922,
                    "velocity": 0.4251968503937008,
                    "duration": 0.7594939999999895
                },
                {
                    "name": "G#3",
                    "midi": 56,
                    "time": 194.4304639999992,
                    "velocity": 0.47244094488188976,
                    "duration": 0.7594939999999895
                },
                {
                    "name": "D#3",
                    "midi": 51,
                    "time": 194.4304639999992,
                    "velocity": 0.4015748031496063,
                    "duration": 0.7594939999999895
                },
                {
                    "name": "G#2",
                    "midi": 44,
                    "time": 194.4304639999992,
                    "velocity": 0.4015748031496063,
                    "duration": 0.7594939999999895
                },
                {
                    "name": "G#3",
                    "midi": 56,
                    "time": 196.7089459999992,
                    "velocity": 0.49606299212598426,
                    "duration": 0.5696205000000134
                },
                {
                    "name": "G#2",
                    "midi": 44,
                    "time": 196.7089459999992,
                    "velocity": 0.49606299212598426,
                    "duration": 0.5696205000000134
                },
                {
                    "name": "C3",
                    "midi": 48,
                    "time": 197.27856649999922,
                    "velocity": 0.4409448818897638,
                    "duration": 0.18987350000000447
                },
                {
                    "name": "C4",
                    "midi": 60,
                    "time": 197.27856649999922,
                    "velocity": 0.4409448818897638,
                    "duration": 0.18987350000000447
                },
                {
                    "name": "D#3",
                    "midi": 51,
                    "time": 197.46843999999922,
                    "velocity": 0.5354330708661418,
                    "duration": 0.5696205000000134
                },
                {
                    "name": "D#4",
                    "midi": 63,
                    "time": 197.46843999999922,
                    "velocity": 0.5354330708661418,
                    "duration": 0.5348103583333454
                },
                {
                    "name": "D#4",
                    "midi": 63,
                    "time": 198.22793399999924,
                    "velocity": 0.48031496062992124,
                    "duration": 0.5696205000000134
                },
                {
                    "name": "D#3",
                    "midi": 51,
                    "time": 198.22793399999924,
                    "velocity": 0.3937007874015748,
                    "duration": 0.5696205000000134
                },
                {
                    "name": "D#3",
                    "midi": 51,
                    "time": 198.98742799999926,
                    "velocity": 0.41732283464566927,
                    "duration": 0.5696205000000134
                },
                {
                    "name": "D#4",
                    "midi": 63,
                    "time": 198.98742799999926,
                    "velocity": 0.49606299212598426,
                    "duration": 0.5696205000000134
                },
                {
                    "name": "D#3",
                    "midi": 51,
                    "time": 199.74692199999927,
                    "velocity": 0.4094488188976378,
                    "duration": 0.5696205000000134
                },
                {
                    "name": "D#4",
                    "midi": 63,
                    "time": 199.74692199999927,
                    "velocity": 0.4881889763779528,
                    "duration": 0.5696205000000134
                },
                {
                    "name": "E3",
                    "midi": 52,
                    "time": 200.5064159999993,
                    "velocity": 0.4566929133858268,
                    "duration": 1.5189880000000073
                },
                {
                    "name": "E4",
                    "midi": 64,
                    "time": 200.5064159999993,
                    "velocity": 0.5433070866141733,
                    "duration": 1.5189880000000073
                },
                {
                    "name": "D#3",
                    "midi": 51,
                    "time": 202.0254039999993,
                    "velocity": 0.4330708661417323,
                    "duration": 1.5189880000000073
                },
                {
                    "name": "D#4",
                    "midi": 63,
                    "time": 202.0254039999993,
                    "velocity": 0.5196850393700787,
                    "duration": 1.5189880000000073
                },
                {
                    "name": "C#3",
                    "midi": 49,
                    "time": 203.5443919999993,
                    "velocity": 0.4566929133858268,
                    "duration": 1.5189880000000073
                },
                {
                    "name": "C#4",
                    "midi": 61,
                    "time": 203.5443919999993,
                    "velocity": 0.5433070866141733,
                    "duration": 1.5189880000000073
                },
                {
                    "name": "B3",
                    "midi": 59,
                    "time": 205.0633799999993,
                    "velocity": 0.4881889763779528,
                    "duration": 1.1392409999999984
                },
                {
                    "name": "B2",
                    "midi": 47,
                    "time": 205.0633799999993,
                    "velocity": 0.4094488188976378,
                    "duration": 1.5189880000000073
                },
                {
                    "name": "A#3",
                    "midi": 58,
                    "time": 206.2026209999993,
                    "velocity": 0.5354330708661418,
                    "duration": 0.37974700000000894
                },
                {
                    "name": "G#3",
                    "midi": 56,
                    "time": 206.58236799999932,
                    "velocity": 0.48031496062992124,
                    "duration": 0.7594939999999895
                },
                {
                    "name": "E3",
                    "midi": 52,
                    "time": 206.58236799999932,
                    "velocity": 0.4094488188976378,
                    "duration": 0.7594939999999895
                },
                {
                    "name": "C#3",
                    "midi": 49,
                    "time": 207.3418619999993,
                    "velocity": 0.36220472440944884,
                    "duration": 0.7594939999999895
                },
                {
                    "name": "G#3",
                    "midi": 56,
                    "time": 207.3418619999993,
                    "velocity": 0.36220472440944884,
                    "duration": 0.7594939999999895
                },
                {
                    "name": "E4",
                    "midi": 64,
                    "time": 207.3418619999993,
                    "velocity": 0.4330708661417323,
                    "duration": 0.7594939999999895
                },
                {
                    "name": "D#4",
                    "midi": 63,
                    "time": 208.1013559999993,
                    "velocity": 0.4409448818897638,
                    "duration": 0.7594939999999895
                },
                {
                    "name": "F#3",
                    "midi": 54,
                    "time": 208.1013559999993,
                    "velocity": 0.3700787401574803,
                    "duration": 0.7594939999999895
                },
                {
                    "name": "F#3",
                    "midi": 54,
                    "time": 208.8608499999993,
                    "velocity": 0.33070866141732286,
                    "duration": 0.7594939999999895
                },
                {
                    "name": "C#4",
                    "midi": 61,
                    "time": 208.8608499999993,
                    "velocity": 0.3937007874015748,
                    "duration": 0.7594939999999895
                },
                {
                    "name": "B2",
                    "midi": 47,
                    "time": 209.62034399999928,
                    "velocity": 0.3937007874015748,
                    "duration": 0.7594939999999895
                },
                {
                    "name": "F#3",
                    "midi": 54,
                    "time": 209.62034399999928,
                    "velocity": 0.3937007874015748,
                    "duration": 0.7594939999999895
                },
                {
                    "name": "B3",
                    "midi": 59,
                    "time": 209.62034399999928,
                    "velocity": 0.4645669291338583,
                    "duration": 0.7594939999999895
                },
                {
                    "name": "B2",
                    "midi": 47,
                    "time": 212.65831999999926,
                    "velocity": 0.3464566929133858,
                    "duration": 0.25316466666666315
                },
                {
                    "name": "D#3",
                    "midi": 51,
                    "time": 212.91148466666593,
                    "velocity": 0.28346456692913385,
                    "duration": 0.25316466666666315
                },
                {
                    "name": "F#3",
                    "midi": 54,
                    "time": 213.1646493333326,
                    "velocity": 0.29133858267716534,
                    "duration": 0.25316466666666315
                },
                {
                    "name": "B2",
                    "midi": 47,
                    "time": 213.41781399999925,
                    "velocity": 0.3700787401574803,
                    "duration": 0.25316466666666315
                },
                {
                    "name": "D#3",
                    "midi": 51,
                    "time": 213.67097866666592,
                    "velocity": 0.2677165354330709,
                    "duration": 0.25316466666666315
                },
                {
                    "name": "F#3",
                    "midi": 54,
                    "time": 213.92414333333258,
                    "velocity": 0.28346456692913385,
                    "duration": 0.25316466666666315
                },
                {
                    "name": "A#2",
                    "midi": 46,
                    "time": 214.17730799999924,
                    "velocity": 0.4015748031496063,
                    "duration": 0.25316466666666315
                },
                {
                    "name": "C#3",
                    "midi": 49,
                    "time": 214.4304726666659,
                    "velocity": 0.3779527559055118,
                    "duration": 0.25316466666666315
                },
                {
                    "name": "D#3",
                    "midi": 51,
                    "time": 214.68363733333257,
                    "velocity": 0.3858267716535433,
                    "duration": 0.25316466666666315
                },
                {
                    "name": "G#2",
                    "midi": 44,
                    "time": 214.93680199999923,
                    "velocity": 0.4881889763779528,
                    "duration": 0.25316466666666315
                },
                {
                    "name": "C#3",
                    "midi": 49,
                    "time": 215.1899666666659,
                    "velocity": 0.4330708661417323,
                    "duration": 0.25316466666666315
                },
                {
                    "name": "D#3",
                    "midi": 51,
                    "time": 215.44313133333256,
                    "velocity": 0.4409448818897638,
                    "duration": 0.25316466666666315
                },
                {
                    "name": "G2",
                    "midi": 43,
                    "time": 215.69629599999922,
                    "velocity": 0.5669291338582677,
                    "duration": 0.25316466666666315
                },
                {
                    "name": "C#3",
                    "midi": 49,
                    "time": 215.94946066666589,
                    "velocity": 0.4566929133858268,
                    "duration": 0.25316466666666315
                },
                {
                    "name": "D#3",
                    "midi": 51,
                    "time": 216.20262533333255,
                    "velocity": 0.4881889763779528,
                    "duration": 0.25316466666666315
                },
                {
                    "name": "G2",
                    "midi": 43,
                    "time": 216.4557899999992,
                    "velocity": 0.5433070866141733,
                    "duration": 0.25316466666666315
                },
                {
                    "name": "A#2",
                    "midi": 46,
                    "time": 216.70895466666587,
                    "velocity": 0.3779527559055118,
                    "duration": 0.25316466666666315
                },
                {
                    "name": "D#3",
                    "midi": 51,
                    "time": 216.96211933333254,
                    "velocity": 0.4330708661417323,
                    "duration": 0.25316466666666315
                },
                {
                    "name": "G#2",
                    "midi": 44,
                    "time": 217.2152839999992,
                    "velocity": 0.4881889763779528,
                    "duration": 0.25316466666666315
                },
                {
                    "name": "B2",
                    "midi": 47,
                    "time": 217.46844866666586,
                    "velocity": 0.3858267716535433,
                    "duration": 0.25316466666666315
                },
                {
                    "name": "D#3",
                    "midi": 51,
                    "time": 217.72161333333253,
                    "velocity": 0.3779527559055118,
                    "duration": 0.25316466666666315
                },
                {
                    "name": "C#3",
                    "midi": 49,
                    "time": 217.9747779999992,
                    "velocity": 0.3464566929133858,
                    "duration": 0.25316466666666315
                },
                {
                    "name": "E3",
                    "midi": 52,
                    "time": 218.22794266666585,
                    "velocity": 0.2992125984251969,
                    "duration": 0.25316466666666315
                },
                {
                    "name": "A#3",
                    "midi": 58,
                    "time": 218.48110733333252,
                    "velocity": 0.2992125984251969,
                    "duration": 0.25316466666666315
                },
                {
                    "name": "D#3",
                    "midi": 51,
                    "time": 218.73427199999918,
                    "velocity": 0.25984251968503935,
                    "duration": 0.25316466666666315
                },
                {
                    "name": "A#3",
                    "midi": 58,
                    "time": 218.98743666666584,
                    "velocity": 0.2125984251968504,
                    "duration": 0.25316466666666315
                },
                {
                    "name": "C#4",
                    "midi": 61,
                    "time": 219.2406013333325,
                    "velocity": 0.2125984251968504,
                    "duration": 0.25316466666666315
                },
                {
                    "name": "D#3",
                    "midi": 51,
                    "time": 219.49376599999917,
                    "velocity": 0.2677165354330709,
                    "duration": 0.25316466666666315
                },
                {
                    "name": "A#3",
                    "midi": 58,
                    "time": 219.74693066666583,
                    "velocity": 0.1968503937007874,
                    "duration": 0.25316466666666315
                },
                {
                    "name": "C#4",
                    "midi": 61,
                    "time": 220.0000953333325,
                    "velocity": 0.2047244094488189,
                    "duration": 0.25316466666666315
                },
                {
                    "name": "D#3",
                    "midi": 51,
                    "time": 220.25325999999916,
                    "velocity": 0.28346456692913385,
                    "duration": 0.25316466666666315
                },
                {
                    "name": "A#3",
                    "midi": 58,
                    "time": 220.50642466666582,
                    "velocity": 0.2283464566929134,
                    "duration": 0.25316466666666315
                },
                {
                    "name": "C#4",
                    "midi": 61,
                    "time": 220.75958933333249,
                    "velocity": 0.2283464566929134,
                    "duration": 0.25316466666666315
                },
                {
                    "name": "D#3",
                    "midi": 51,
                    "time": 221.01275399999915,
                    "velocity": 0.2755905511811024,
                    "duration": 0.25316466666666315
                },
                {
                    "name": "A#3",
                    "midi": 58,
                    "time": 221.2659186666658,
                    "velocity": 0.2204724409448819,
                    "duration": 0.25316466666666315
                },
                {
                    "name": "C#4",
                    "midi": 61,
                    "time": 221.51908333333247,
                    "velocity": 0.2204724409448819,
                    "duration": 0.25316466666666315
                },
                {
                    "name": "G#2",
                    "midi": 44,
                    "time": 221.77224799999914,
                    "velocity": 0.25984251968503935,
                    "duration": 0.18987350000000447
                },
                {
                    "name": "D#3",
                    "midi": 51,
                    "time": 222.0254126666658,
                    "velocity": 0.14960629921259844,
                    "duration": 0.18987350000000447
                },
                {
                    "name": "G#3",
                    "midi": 56,
                    "time": 222.0254126666658,
                    "velocity": 0.14960629921259844,
                    "duration": 0.18987350000000447
                },
                {
                    "name": "C4",
                    "midi": 60,
                    "time": 222.0254126666658,
                    "velocity": 0.18110236220472442,
                    "duration": 0.18987350000000447
                },
                {
                    "name": "D#3",
                    "midi": 51,
                    "time": 222.27857733333246,
                    "velocity": 0.14960629921259844,
                    "duration": 0.18987350000000447
                },
                {
                    "name": "G#3",
                    "midi": 56,
                    "time": 222.27857733333246,
                    "velocity": 0.14960629921259844,
                    "duration": 0.18987350000000447
                },
                {
                    "name": "C4",
                    "midi": 60,
                    "time": 222.27857733333246,
                    "velocity": 0.18110236220472442,
                    "duration": 0.18987350000000447
                },
                {
                    "name": "D#3",
                    "midi": 51,
                    "time": 222.53174199999913,
                    "velocity": 0.16535433070866143,
                    "duration": 0.18987350000000447
                },
                {
                    "name": "G#3",
                    "midi": 56,
                    "time": 222.53174199999913,
                    "velocity": 0.16535433070866143,
                    "duration": 0.18987350000000447
                },
                {
                    "name": "C4",
                    "midi": 60,
                    "time": 222.53174199999913,
                    "velocity": 0.1968503937007874,
                    "duration": 0.18987350000000447
                },
                {
                    "name": "D#3",
                    "midi": 51,
                    "time": 222.7849066666658,
                    "velocity": 0.16535433070866143,
                    "duration": 0.18987350000000447
                },
                {
                    "name": "C4",
                    "midi": 60,
                    "time": 222.7849066666658,
                    "velocity": 0.1968503937007874,
                    "duration": 0.18987350000000447
                },
                {
                    "name": "G#3",
                    "midi": 56,
                    "time": 222.7849066666658,
                    "velocity": 0.16535433070866143,
                    "duration": 0.18987350000000447
                },
                {
                    "name": "C4",
                    "midi": 60,
                    "time": 223.03807133333245,
                    "velocity": 0.1968503937007874,
                    "duration": 0.18987350000000447
                },
                {
                    "name": "G#3",
                    "midi": 56,
                    "time": 223.03807133333245,
                    "velocity": 0.16535433070866143,
                    "duration": 0.18987350000000447
                },
                {
                    "name": "D#3",
                    "midi": 51,
                    "time": 223.03807133333245,
                    "velocity": 0.16535433070866143,
                    "duration": 0.18987350000000447
                },
                {
                    "name": "C4",
                    "midi": 60,
                    "time": 223.29123599999912,
                    "velocity": 0.25196850393700787,
                    "duration": 0.18987350000000447
                },
                {
                    "name": "D#3",
                    "midi": 51,
                    "time": 223.29123599999912,
                    "velocity": 0.2125984251968504,
                    "duration": 0.18987350000000447
                },
                {
                    "name": "G#3",
                    "midi": 56,
                    "time": 223.29123599999912,
                    "velocity": 0.2125984251968504,
                    "duration": 0.18987350000000447
                },
                {
                    "name": "C4",
                    "midi": 60,
                    "time": 223.54440066666578,
                    "velocity": 0.1889763779527559,
                    "duration": 0.18987350000000447
                },
                {
                    "name": "D#3",
                    "midi": 51,
                    "time": 223.54440066666578,
                    "velocity": 0.15748031496062992,
                    "duration": 0.18987350000000447
                },
                {
                    "name": "G#3",
                    "midi": 56,
                    "time": 223.54440066666578,
                    "velocity": 0.15748031496062992,
                    "duration": 0.18987350000000447
                },
                {
                    "name": "D#3",
                    "midi": 51,
                    "time": 223.79756533333244,
                    "velocity": 0.16535433070866143,
                    "duration": 0.18987350000000447
                },
                {
                    "name": "C4",
                    "midi": 60,
                    "time": 223.79756533333244,
                    "velocity": 0.1968503937007874,
                    "duration": 0.18987350000000447
                },
                {
                    "name": "G#3",
                    "midi": 56,
                    "time": 223.79756533333244,
                    "velocity": 0.16535433070866143,
                    "duration": 0.18987350000000447
                },
                {
                    "name": "C4",
                    "midi": 60,
                    "time": 224.0507299999991,
                    "velocity": 0.25984251968503935,
                    "duration": 0.18987350000000447
                },
                {
                    "name": "G#3",
                    "midi": 56,
                    "time": 224.0507299999991,
                    "velocity": 0.2204724409448819,
                    "duration": 0.18987350000000447
                },
                {
                    "name": "D#3",
                    "midi": 51,
                    "time": 224.0507299999991,
                    "velocity": 0.2204724409448819,
                    "duration": 0.18987350000000447
                },
                {
                    "name": "G#3",
                    "midi": 56,
                    "time": 224.30389466666577,
                    "velocity": 0.16535433070866143,
                    "duration": 0.18987350000000447
                },
                {
                    "name": "C4",
                    "midi": 60,
                    "time": 224.30389466666577,
                    "velocity": 0.1968503937007874,
                    "duration": 0.18987350000000447
                },
                {
                    "name": "D#3",
                    "midi": 51,
                    "time": 224.30389466666577,
                    "velocity": 0.16535433070866143,
                    "duration": 0.18987350000000447
                },
                {
                    "name": "C4",
                    "midi": 60,
                    "time": 224.55705933333243,
                    "velocity": 0.1968503937007874,
                    "duration": 0.18987350000000447
                },
                {
                    "name": "G#3",
                    "midi": 56,
                    "time": 224.55705933333243,
                    "velocity": 0.16535433070866143,
                    "duration": 0.18987350000000447
                },
                {
                    "name": "D#3",
                    "midi": 51,
                    "time": 224.55705933333243,
                    "velocity": 0.16535433070866143,
                    "duration": 0.18987350000000447
                },
                {
                    "name": "C#2",
                    "midi": 37,
                    "time": 224.8102239999991,
                    "velocity": 0.25984251968503935,
                    "duration": 0.18987350000000447
                },
                {
                    "name": "F3",
                    "midi": 53,
                    "time": 225.06338866666576,
                    "velocity": 0.14960629921259844,
                    "duration": 0.18987350000000447
                },
                {
                    "name": "C4",
                    "midi": 60,
                    "time": 225.06338866666576,
                    "velocity": 0.18110236220472442,
                    "duration": 0.18987350000000447
                },
                {
                    "name": "C#3",
                    "midi": 49,
                    "time": 225.06338866666576,
                    "velocity": 0.14960629921259844,
                    "duration": 0.18987350000000447
                },
                {
                    "name": "C4",
                    "midi": 60,
                    "time": 225.31655333333242,
                    "velocity": 0.18110236220472442,
                    "duration": 0.18987350000000447
                },
                {
                    "name": "F3",
                    "midi": 53,
                    "time": 225.31655333333242,
                    "velocity": 0.14960629921259844,
                    "duration": 0.18987350000000447
                },
                {
                    "name": "C#3",
                    "midi": 49,
                    "time": 225.31655333333242,
                    "velocity": 0.14960629921259844,
                    "duration": 0.18987350000000447
                },
                {
                    "name": "A3",
                    "midi": 57,
                    "time": 225.56971799999909,
                    "velocity": 0.23622047244094488,
                    "duration": 0.18987350000000447
                },
                {
                    "name": "C#3",
                    "midi": 49,
                    "time": 225.56971799999909,
                    "velocity": 0.1968503937007874,
                    "duration": 0.18987350000000447
                },
                {
                    "name": "F3",
                    "midi": 53,
                    "time": 225.56971799999909,
                    "velocity": 0.1968503937007874,
                    "duration": 0.18987350000000447
                },
                {
                    "name": "F3",
                    "midi": 53,
                    "time": 225.82288266666575,
                    "velocity": 0.16535433070866143,
                    "duration": 0.18987350000000447
                },
                {
                    "name": "C#3",
                    "midi": 49,
                    "time": 225.82288266666575,
                    "velocity": 0.16535433070866143,
                    "duration": 0.18987350000000447
                },
                {
                    "name": "A3",
                    "midi": 57,
                    "time": 225.82288266666575,
                    "velocity": 0.1968503937007874,
                    "duration": 0.18987350000000447
                },
                {
                    "name": "C#3",
                    "midi": 49,
                    "time": 226.0760473333324,
                    "velocity": 0.16535433070866143,
                    "duration": 0.18987350000000447
                },
                {
                    "name": "A3",
                    "midi": 57,
                    "time": 226.0760473333324,
                    "velocity": 0.1968503937007874,
                    "duration": 0.18987350000000447
                },
                {
                    "name": "F3",
                    "midi": 53,
                    "time": 226.0760473333324,
                    "velocity": 0.16535433070866143,
                    "duration": 0.18987350000000447
                },
                {
                    "name": "C#3",
                    "midi": 49,
                    "time": 226.32921199999907,
                    "velocity": 0.2125984251968504,
                    "duration": 0.18987350000000447
                },
                {
                    "name": "A#3",
                    "midi": 58,
                    "time": 226.32921199999907,
                    "velocity": 0.25196850393700787,
                    "duration": 0.18987350000000447
                },
                {
                    "name": "F3",
                    "midi": 53,
                    "time": 226.32921199999907,
                    "velocity": 0.2125984251968504,
                    "duration": 0.18987350000000447
                },
                {
                    "name": "C#3",
                    "midi": 49,
                    "time": 226.58237666666574,
                    "velocity": 0.15748031496062992,
                    "duration": 0.18987350000000447
                },
                {
                    "name": "F3",
                    "midi": 53,
                    "time": 226.58237666666574,
                    "velocity": 0.15748031496062992,
                    "duration": 0.18987350000000447
                },
                {
                    "name": "A#3",
                    "midi": 58,
                    "time": 226.58237666666574,
                    "velocity": 0.1889763779527559,
                    "duration": 0.18987350000000447
                },
                {
                    "name": "A#3",
                    "midi": 58,
                    "time": 226.8355413333324,
                    "velocity": 0.1968503937007874,
                    "duration": 0.18987350000000447
                },
                {
                    "name": "C#3",
                    "midi": 49,
                    "time": 226.8355413333324,
                    "velocity": 0.16535433070866143,
                    "duration": 0.18987350000000447
                },
                {
                    "name": "F3",
                    "midi": 53,
                    "time": 226.8355413333324,
                    "velocity": 0.16535433070866143,
                    "duration": 0.18987350000000447
                },
                {
                    "name": "C#3",
                    "midi": 49,
                    "time": 227.08870599999906,
                    "velocity": 0.2204724409448819,
                    "duration": 0.18987350000000447
                },
                {
                    "name": "A#3",
                    "midi": 58,
                    "time": 227.08870599999906,
                    "velocity": 0.25984251968503935,
                    "duration": 0.18987350000000447
                },
                {
                    "name": "F3",
                    "midi": 53,
                    "time": 227.08870599999906,
                    "velocity": 0.2204724409448819,
                    "duration": 0.18987350000000447
                },
                {
                    "name": "C#3",
                    "midi": 49,
                    "time": 227.34187066666573,
                    "velocity": 0.16535433070866143,
                    "duration": 0.18987350000000447
                },
                {
                    "name": "F3",
                    "midi": 53,
                    "time": 227.34187066666573,
                    "velocity": 0.16535433070866143,
                    "duration": 0.18987350000000447
                },
                {
                    "name": "A#3",
                    "midi": 58,
                    "time": 227.34187066666573,
                    "velocity": 0.1968503937007874,
                    "duration": 0.18987350000000447
                },
                {
                    "name": "F3",
                    "midi": 53,
                    "time": 227.5950353333324,
                    "velocity": 0.16535433070866143,
                    "duration": 0.18987350000000447
                },
                {
                    "name": "C#3",
                    "midi": 49,
                    "time": 227.5950353333324,
                    "velocity": 0.16535433070866143,
                    "duration": 0.18987350000000447
                },
                {
                    "name": "A#3",
                    "midi": 58,
                    "time": 227.5950353333324,
                    "velocity": 0.1968503937007874,
                    "duration": 0.18987350000000447
                },
                {
                    "name": "C2",
                    "midi": 36,
                    "time": 227.84819999999905,
                    "velocity": 0.25984251968503935,
                    "duration": 0.18987350000000447
                },
                {
                    "name": "C3",
                    "midi": 48,
                    "time": 228.10136466666572,
                    "velocity": 0.14960629921259844,
                    "duration": 0.18987350000000447
                },
                {
                    "name": "D#3",
                    "midi": 51,
                    "time": 228.10136466666572,
                    "velocity": 0.14960629921259844,
                    "duration": 0.18987350000000447
                },
                {
                    "name": "A#3",
                    "midi": 58,
                    "time": 228.10136466666572,
                    "velocity": 0.18110236220472442,
                    "duration": 0.18987350000000447
                },
                {
                    "name": "D#3",
                    "midi": 51,
                    "time": 228.35452933333238,
                    "velocity": 0.14960629921259844,
                    "duration": 0.18987350000000447
                },
                {
                    "name": "C3",
                    "midi": 48,
                    "time": 228.35452933333238,
                    "velocity": 0.14960629921259844,
                    "duration": 0.18987350000000447
                },
                {
                    "name": "A#3",
                    "midi": 58,
                    "time": 228.35452933333238,
                    "velocity": 0.18110236220472442,
                    "duration": 0.18987350000000447
                },
                {
                    "name": "C3",
                    "midi": 48,
                    "time": 228.60769399999904,
                    "velocity": 0.1968503937007874,
                    "duration": 0.18987350000000447
                },
                {
                    "name": "G3",
                    "midi": 55,
                    "time": 228.60769399999904,
                    "velocity": 0.23622047244094488,
                    "duration": 0.18987350000000447
                },
                {
                    "name": "D#3",
                    "midi": 51,
                    "time": 228.60769399999904,
                    "velocity": 0.1968503937007874,
                    "duration": 0.18987350000000447
                },
                {
                    "name": "G3",
                    "midi": 55,
                    "time": 228.8608586666657,
                    "velocity": 0.1968503937007874,
                    "duration": 0.18987350000000447
                },
                {
                    "name": "D#3",
                    "midi": 51,
                    "time": 228.8608586666657,
                    "velocity": 0.16535433070866143,
                    "duration": 0.18987350000000447
                },
                {
                    "name": "C3",
                    "midi": 48,
                    "time": 228.8608586666657,
                    "velocity": 0.16535433070866143,
                    "duration": 0.18987350000000447
                },
                {
                    "name": "C3",
                    "midi": 48,
                    "time": 229.11402333333237,
                    "velocity": 0.16535433070866143,
                    "duration": 0.18987350000000447
                },
                {
                    "name": "D#3",
                    "midi": 51,
                    "time": 229.11402333333237,
                    "velocity": 0.16535433070866143,
                    "duration": 0.18987350000000447
                },
                {
                    "name": "G3",
                    "midi": 55,
                    "time": 229.11402333333237,
                    "velocity": 0.1968503937007874,
                    "duration": 0.18987350000000447
                },
                {
                    "name": "G#3",
                    "midi": 56,
                    "time": 229.36718799999903,
                    "velocity": 0.2755905511811024,
                    "duration": 0.18987350000000447
                },
                {
                    "name": "D#3",
                    "midi": 51,
                    "time": 229.36718799999903,
                    "velocity": 0.2283464566929134,
                    "duration": 0.18987350000000447
                },
                {
                    "name": "C3",
                    "midi": 48,
                    "time": 229.36718799999903,
                    "velocity": 0.2283464566929134,
                    "duration": 0.18987350000000447
                },
                {
                    "name": "D#3",
                    "midi": 51,
                    "time": 229.6203526666657,
                    "velocity": 0.1732283464566929,
                    "duration": 0.18987350000000447
                },
                {
                    "name": "C3",
                    "midi": 48,
                    "time": 229.6203526666657,
                    "velocity": 0.1732283464566929,
                    "duration": 0.18987350000000447
                },
                {
                    "name": "G#3",
                    "midi": 56,
                    "time": 229.6203526666657,
                    "velocity": 0.2125984251968504,
                    "duration": 0.18987350000000447
                },
                {
                    "name": "D#3",
                    "midi": 51,
                    "time": 229.87351733333236,
                    "velocity": 0.1889763779527559,
                    "duration": 0.18987350000000447
                },
                {
                    "name": "G#3",
                    "midi": 56,
                    "time": 229.87351733333236,
                    "velocity": 0.2283464566929134,
                    "duration": 0.18987350000000447
                },
                {
                    "name": "C3",
                    "midi": 48,
                    "time": 229.87351733333236,
                    "velocity": 0.1889763779527559,
                    "duration": 0.18987350000000447
                },
                {
                    "name": "C3",
                    "midi": 48,
                    "time": 230.12668199999902,
                    "velocity": 0.25984251968503935,
                    "duration": 0.18987350000000447
                },
                {
                    "name": "G#3",
                    "midi": 56,
                    "time": 230.12668199999902,
                    "velocity": 0.30708661417322836,
                    "duration": 0.18987350000000447
                },
                {
                    "name": "D#3",
                    "midi": 51,
                    "time": 230.12668199999902,
                    "velocity": 0.25984251968503935,
                    "duration": 0.18987350000000447
                },
                {
                    "name": "C3",
                    "midi": 48,
                    "time": 230.37984666666569,
                    "velocity": 0.1968503937007874,
                    "duration": 0.18987350000000447
                },
                {
                    "name": "G#3",
                    "midi": 56,
                    "time": 230.37984666666569,
                    "velocity": 0.23622047244094488,
                    "duration": 0.18987350000000447
                },
                {
                    "name": "D#3",
                    "midi": 51,
                    "time": 230.37984666666569,
                    "velocity": 0.1968503937007874,
                    "duration": 0.18987350000000447
                },
                {
                    "name": "D#3",
                    "midi": 51,
                    "time": 230.63301133333235,
                    "velocity": 0.2047244094488189,
                    "duration": 0.18987350000000447
                },
                {
                    "name": "C3",
                    "midi": 48,
                    "time": 230.63301133333235,
                    "velocity": 0.2047244094488189,
                    "duration": 0.18987350000000447
                },
                {
                    "name": "G#3",
                    "midi": 56,
                    "time": 230.63301133333235,
                    "velocity": 0.2440944881889764,
                    "duration": 0.18987350000000447
                },
                {
                    "name": "C#2",
                    "midi": 37,
                    "time": 230.886175999999,
                    "velocity": 0.33070866141732286,
                    "duration": 0.18987350000000447
                },
                {
                    "name": "F3",
                    "midi": 53,
                    "time": 231.13934066666567,
                    "velocity": 0.23622047244094488,
                    "duration": 0.18987350000000447
                },
                {
                    "name": "C#3",
                    "midi": 49,
                    "time": 231.13934066666567,
                    "velocity": 0.1968503937007874,
                    "duration": 0.18987350000000447
                },
                {
                    "name": "F3",
                    "midi": 53,
                    "time": 231.39250533333234,
                    "velocity": 0.2440944881889764,
                    "duration": 0.18987350000000447
                },
                {
                    "name": "C#3",
                    "midi": 49,
                    "time": 231.39250533333234,
                    "velocity": 0.2047244094488189,
                    "duration": 0.18987350000000447
                },
                {
                    "name": "C#3",
                    "midi": 49,
                    "time": 231.645669999999,
                    "velocity": 0.25984251968503935,
                    "duration": 0.18987350000000447
                },
                {
                    "name": "F3",
                    "midi": 53,
                    "time": 231.645669999999,
                    "velocity": 0.30708661417322836,
                    "duration": 0.18987350000000447
                },
                {
                    "name": "C#3",
                    "midi": 49,
                    "time": 231.89883466666566,
                    "velocity": 0.1889763779527559,
                    "duration": 0.18987350000000447
                },
                {
                    "name": "F3",
                    "midi": 53,
                    "time": 231.89883466666566,
                    "velocity": 0.2283464566929134,
                    "duration": 0.18987350000000447
                },
                {
                    "name": "F3",
                    "midi": 53,
                    "time": 232.15199933333233,
                    "velocity": 0.2204724409448819,
                    "duration": 0.18987350000000447
                },
                {
                    "name": "C#3",
                    "midi": 49,
                    "time": 232.15199933333233,
                    "velocity": 0.18110236220472442,
                    "duration": 0.18987350000000447
                },
                {
                    "name": "D#2",
                    "midi": 39,
                    "time": 232.405163999999,
                    "velocity": 0.28346456692913385,
                    "duration": 0.18987350000000447
                },
                {
                    "name": "D#3",
                    "midi": 51,
                    "time": 232.65832866666565,
                    "velocity": 0.16535433070866143,
                    "duration": 0.18987350000000447
                },
                {
                    "name": "G#3",
                    "midi": 56,
                    "time": 232.65832866666565,
                    "velocity": 0.2047244094488189,
                    "duration": 0.18987350000000447
                },
                {
                    "name": "G#3",
                    "midi": 56,
                    "time": 232.91149333333232,
                    "velocity": 0.2047244094488189,
                    "duration": 0.18987350000000447
                },
                {
                    "name": "D#3",
                    "midi": 51,
                    "time": 232.91149333333232,
                    "velocity": 0.1732283464566929,
                    "duration": 0.18987350000000447
                },
                {
                    "name": "D#2",
                    "midi": 39,
                    "time": 233.16465799999898,
                    "velocity": 0.2677165354330709,
                    "duration": 0.18987350000000447
                },
                {
                    "name": "D#3",
                    "midi": 51,
                    "time": 233.41782266666564,
                    "velocity": 0.16535433070866143,
                    "duration": 0.18987350000000447
                },
                {
                    "name": "G3",
                    "midi": 55,
                    "time": 233.41782266666564,
                    "velocity": 0.2047244094488189,
                    "duration": 0.18987350000000447
                },
                {
                    "name": "D#3",
                    "midi": 51,
                    "time": 233.6709873333323,
                    "velocity": 0.16535433070866143,
                    "duration": 0.18987350000000447
                },
                {
                    "name": "G3",
                    "midi": 55,
                    "time": 233.6709873333323,
                    "velocity": 0.1968503937007874,
                    "duration": 0.18987350000000447
                },
                {
                    "name": "G#2",
                    "midi": 44,
                    "time": 233.92415199999897,
                    "velocity": 0.25984251968503935,
                    "duration": 0.18987350000000447
                },
                {
                    "name": "C4",
                    "midi": 60,
                    "time": 234.17731666666563,
                    "velocity": 0.18110236220472442,
                    "duration": 0.18987350000000447
                },
                {
                    "name": "D#3",
                    "midi": 51,
                    "time": 234.17731666666563,
                    "velocity": 0.14960629921259844,
                    "duration": 0.18987350000000447
                },
                {
                    "name": "G#3",
                    "midi": 56,
                    "time": 234.17731666666563,
                    "velocity": 0.14960629921259844,
                    "duration": 0.18987350000000447
                },
                {
                    "name": "G#3",
                    "midi": 56,
                    "time": 234.4304813333323,
                    "velocity": 0.14960629921259844,
                    "duration": 0.18987350000000447
                },
                {
                    "name": "C4",
                    "midi": 60,
                    "time": 234.4304813333323,
                    "velocity": 0.18110236220472442,
                    "duration": 0.18987350000000447
                },
                {
                    "name": "D#3",
                    "midi": 51,
                    "time": 234.4304813333323,
                    "velocity": 0.14960629921259844,
                    "duration": 0.18987350000000447
                },
                {
                    "name": "C4",
                    "midi": 60,
                    "time": 234.68364599999896,
                    "velocity": 0.1968503937007874,
                    "duration": 0.18987350000000447
                },
                {
                    "name": "D#3",
                    "midi": 51,
                    "time": 234.68364599999896,
                    "velocity": 0.16535433070866143,
                    "duration": 0.18987350000000447
                },
                {
                    "name": "G#3",
                    "midi": 56,
                    "time": 234.68364599999896,
                    "velocity": 0.16535433070866143,
                    "duration": 0.18987350000000447
                },
                {
                    "name": "C4",
                    "midi": 60,
                    "time": 234.93681066666562,
                    "velocity": 0.1968503937007874,
                    "duration": 0.18987350000000447
                },
                {
                    "name": "G#3",
                    "midi": 56,
                    "time": 234.93681066666562,
                    "velocity": 0.16535433070866143,
                    "duration": 0.18987350000000447
                },
                {
                    "name": "D#3",
                    "midi": 51,
                    "time": 234.93681066666562,
                    "velocity": 0.16535433070866143,
                    "duration": 0.18987350000000447
                },
                {
                    "name": "C4",
                    "midi": 60,
                    "time": 235.18997533333228,
                    "velocity": 0.1968503937007874,
                    "duration": 0.18987350000000447
                },
                {
                    "name": "D#3",
                    "midi": 51,
                    "time": 235.18997533333228,
                    "velocity": 0.16535433070866143,
                    "duration": 0.18987350000000447
                },
                {
                    "name": "G#3",
                    "midi": 56,
                    "time": 235.18997533333228,
                    "velocity": 0.16535433070866143,
                    "duration": 0.18987350000000447
                },
                {
                    "name": "C4",
                    "midi": 60,
                    "time": 235.44313999999895,
                    "velocity": 0.25196850393700787,
                    "duration": 0.18987350000000447
                },
                {
                    "name": "D#3",
                    "midi": 51,
                    "time": 235.44313999999895,
                    "velocity": 0.2125984251968504,
                    "duration": 0.18987350000000447
                },
                {
                    "name": "G#3",
                    "midi": 56,
                    "time": 235.44313999999895,
                    "velocity": 0.2125984251968504,
                    "duration": 0.18987350000000447
                },
                {
                    "name": "G#3",
                    "midi": 56,
                    "time": 235.6963046666656,
                    "velocity": 0.15748031496062992,
                    "duration": 0.18987350000000447
                },
                {
                    "name": "C4",
                    "midi": 60,
                    "time": 235.6963046666656,
                    "velocity": 0.1889763779527559,
                    "duration": 0.18987350000000447
                },
                {
                    "name": "D#3",
                    "midi": 51,
                    "time": 235.6963046666656,
                    "velocity": 0.15748031496062992,
                    "duration": 0.18987350000000447
                },
                {
                    "name": "D#3",
                    "midi": 51,
                    "time": 235.94946933333227,
                    "velocity": 0.16535433070866143,
                    "duration": 0.18987350000000447
                },
                {
                    "name": "G#3",
                    "midi": 56,
                    "time": 235.94946933333227,
                    "velocity": 0.16535433070866143,
                    "duration": 0.18987350000000447
                },
                {
                    "name": "C4",
                    "midi": 60,
                    "time": 235.94946933333227,
                    "velocity": 0.1968503937007874,
                    "duration": 0.18987350000000447
                },
                {
                    "name": "C4",
                    "midi": 60,
                    "time": 236.20263399999894,
                    "velocity": 0.25984251968503935,
                    "duration": 0.18987350000000447
                },
                {
                    "name": "G#3",
                    "midi": 56,
                    "time": 236.20263399999894,
                    "velocity": 0.2204724409448819,
                    "duration": 0.18987350000000447
                },
                {
                    "name": "D#3",
                    "midi": 51,
                    "time": 236.20263399999894,
                    "velocity": 0.2204724409448819,
                    "duration": 0.18987350000000447
                },
                {
                    "name": "D#3",
                    "midi": 51,
                    "time": 236.4557986666656,
                    "velocity": 0.16535433070866143,
                    "duration": 0.18987350000000447
                },
                {
                    "name": "G#3",
                    "midi": 56,
                    "time": 236.4557986666656,
                    "velocity": 0.16535433070866143,
                    "duration": 0.18987350000000447
                },
                {
                    "name": "C4",
                    "midi": 60,
                    "time": 236.4557986666656,
                    "velocity": 0.1968503937007874,
                    "duration": 0.18987350000000447
                },
                {
                    "name": "D#3",
                    "midi": 51,
                    "time": 236.70896333333226,
                    "velocity": 0.16535433070866143,
                    "duration": 0.18987350000000447
                },
                {
                    "name": "C4",
                    "midi": 60,
                    "time": 236.70896333333226,
                    "velocity": 0.1968503937007874,
                    "duration": 0.18987350000000447
                },
                {
                    "name": "G#3",
                    "midi": 56,
                    "time": 236.70896333333226,
                    "velocity": 0.16535433070866143,
                    "duration": 0.18987350000000447
                },
                {
                    "name": "C#2",
                    "midi": 37,
                    "time": 236.96212799999893,
                    "velocity": 0.25984251968503935,
                    "duration": 0.18987350000000447
                },
                {
                    "name": "C#3",
                    "midi": 49,
                    "time": 237.2152926666656,
                    "velocity": 0.14960629921259844,
                    "duration": 0.18987350000000447
                },
                {
                    "name": "F3",
                    "midi": 53,
                    "time": 237.2152926666656,
                    "velocity": 0.14960629921259844,
                    "duration": 0.18987350000000447
                },
                {
                    "name": "C4",
                    "midi": 60,
                    "time": 237.2152926666656,
                    "velocity": 0.18110236220472442,
                    "duration": 0.18987350000000447
                },
                {
                    "name": "C4",
                    "midi": 60,
                    "time": 237.46845733333225,
                    "velocity": 0.18110236220472442,
                    "duration": 0.18987350000000447
                },
                {
                    "name": "F3",
                    "midi": 53,
                    "time": 237.46845733333225,
                    "velocity": 0.14960629921259844,
                    "duration": 0.18987350000000447
                },
                {
                    "name": "C#3",
                    "midi": 49,
                    "time": 237.46845733333225,
                    "velocity": 0.14960629921259844,
                    "duration": 0.18987350000000447
                },
                {
                    "name": "C#3",
                    "midi": 49,
                    "time": 237.72162199999892,
                    "velocity": 0.1968503937007874,
                    "duration": 0.18987350000000447
                },
                {
                    "name": "C4",
                    "midi": 60,
                    "time": 237.72162199999892,
                    "velocity": 0.23622047244094488,
                    "duration": 0.18987350000000447
                },
                {
                    "name": "F3",
                    "midi": 53,
                    "time": 237.72162199999892,
                    "velocity": 0.1968503937007874,
                    "duration": 0.18987350000000447
                },
                {
                    "name": "F3",
                    "midi": 53,
                    "time": 237.97478666666558,
                    "velocity": 0.16535433070866143,
                    "duration": 0.18987350000000447
                },
                {
                    "name": "C4",
                    "midi": 60,
                    "time": 237.97478666666558,
                    "velocity": 0.1968503937007874,
                    "duration": 0.18987350000000447
                },
                {
                    "name": "C#3",
                    "midi": 49,
                    "time": 237.97478666666558,
                    "velocity": 0.16535433070866143,
                    "duration": 0.18987350000000447
                },
                {
                    "name": "F3",
                    "midi": 53,
                    "time": 238.22795133333224,
                    "velocity": 0.16535433070866143,
                    "duration": 0.18987350000000447
                },
                {
                    "name": "C#3",
                    "midi": 49,
                    "time": 238.22795133333224,
                    "velocity": 0.16535433070866143,
                    "duration": 0.18987350000000447
                },
                {
                    "name": "C4",
                    "midi": 60,
                    "time": 238.22795133333224,
                    "velocity": 0.1968503937007874,
                    "duration": 0.18987350000000447
                },
                {
                    "name": "A#3",
                    "midi": 58,
                    "time": 238.4811159999989,
                    "velocity": 0.25196850393700787,
                    "duration": 0.18987350000000447
                },
                {
                    "name": "F3",
                    "midi": 53,
                    "time": 238.4811159999989,
                    "velocity": 0.2125984251968504,
                    "duration": 0.18987350000000447
                },
                {
                    "name": "C#3",
                    "midi": 49,
                    "time": 238.4811159999989,
                    "velocity": 0.2125984251968504,
                    "duration": 0.18987350000000447
                },
                {
                    "name": "F3",
                    "midi": 53,
                    "time": 238.73428066666557,
                    "velocity": 0.15748031496062992,
                    "duration": 0.18987350000000447
                },
                {
                    "name": "A#3",
                    "midi": 58,
                    "time": 238.73428066666557,
                    "velocity": 0.1889763779527559,
                    "duration": 0.18987350000000447
                },
                {
                    "name": "C#3",
                    "midi": 49,
                    "time": 238.73428066666557,
                    "velocity": 0.15748031496062992,
                    "duration": 0.18987350000000447
                },
                {
                    "name": "F3",
                    "midi": 53,
                    "time": 238.98744533333223,
                    "velocity": 0.16535433070866143,
                    "duration": 0.18987350000000447
                },
                {
                    "name": "A#3",
                    "midi": 58,
                    "time": 238.98744533333223,
                    "velocity": 0.1968503937007874,
                    "duration": 0.18987350000000447
                },
                {
                    "name": "C#3",
                    "midi": 49,
                    "time": 238.98744533333223,
                    "velocity": 0.16535433070866143,
                    "duration": 0.18987350000000447
                },
                {
                    "name": "F3",
                    "midi": 53,
                    "time": 239.2406099999989,
                    "velocity": 0.2204724409448819,
                    "duration": 0.18987350000000447
                },
                {
                    "name": "A#3",
                    "midi": 58,
                    "time": 239.2406099999989,
                    "velocity": 0.25984251968503935,
                    "duration": 0.18987350000000447
                },
                {
                    "name": "C#3",
                    "midi": 49,
                    "time": 239.2406099999989,
                    "velocity": 0.2204724409448819,
                    "duration": 0.18987350000000447
                },
                {
                    "name": "F3",
                    "midi": 53,
                    "time": 239.49377466666556,
                    "velocity": 0.16535433070866143,
                    "duration": 0.18987350000000447
                },
                {
                    "name": "C#3",
                    "midi": 49,
                    "time": 239.49377466666556,
                    "velocity": 0.16535433070866143,
                    "duration": 0.18987350000000447
                },
                {
                    "name": "A#3",
                    "midi": 58,
                    "time": 239.49377466666556,
                    "velocity": 0.1968503937007874,
                    "duration": 0.18987350000000447
                },
                {
                    "name": "C#3",
                    "midi": 49,
                    "time": 239.74693933333222,
                    "velocity": 0.16535433070866143,
                    "duration": 0.18987350000000447
                },
                {
                    "name": "A#3",
                    "midi": 58,
                    "time": 239.74693933333222,
                    "velocity": 0.1968503937007874,
                    "duration": 0.18987350000000447
                },
                {
                    "name": "F3",
                    "midi": 53,
                    "time": 239.74693933333222,
                    "velocity": 0.16535433070866143,
                    "duration": 0.18987350000000447
                },
                {
                    "name": "C2",
                    "midi": 36,
                    "time": 240.00010399999888,
                    "velocity": 0.25984251968503935,
                    "duration": 0.18987350000000447
                },
                {
                    "name": "A#3",
                    "midi": 58,
                    "time": 240.25326866666555,
                    "velocity": 0.18110236220472442,
                    "duration": 0.18987350000000447
                },
                {
                    "name": "D#3",
                    "midi": 51,
                    "time": 240.25326866666555,
                    "velocity": 0.14960629921259844,
                    "duration": 0.18987350000000447
                },
                {
                    "name": "C3",
                    "midi": 48,
                    "time": 240.25326866666555,
                    "velocity": 0.14960629921259844,
                    "duration": 0.18987350000000447
                },
                {
                    "name": "A#3",
                    "midi": 58,
                    "time": 240.5064333333322,
                    "velocity": 0.18110236220472442,
                    "duration": 0.18987350000000447
                },
                {
                    "name": "C3",
                    "midi": 48,
                    "time": 240.5064333333322,
                    "velocity": 0.14960629921259844,
                    "duration": 0.18987350000000447
                },
                {
                    "name": "D#3",
                    "midi": 51,
                    "time": 240.5064333333322,
                    "velocity": 0.14960629921259844,
                    "duration": 0.18987350000000447
                },
                {
                    "name": "D#3",
                    "midi": 51,
                    "time": 240.75959799999887,
                    "velocity": 0.1968503937007874,
                    "duration": 0.18987350000000447
                },
                {
                    "name": "A#3",
                    "midi": 58,
                    "time": 240.75959799999887,
                    "velocity": 0.23622047244094488,
                    "duration": 0.18987350000000447
                },
                {
                    "name": "C3",
                    "midi": 48,
                    "time": 240.75959799999887,
                    "velocity": 0.1968503937007874,
                    "duration": 0.18987350000000447
                },
                {
                    "name": "D#3",
                    "midi": 51,
                    "time": 241.01276266666554,
                    "velocity": 0.16535433070866143,
                    "duration": 0.18987350000000447
                },
                {
                    "name": "C3",
                    "midi": 48,
                    "time": 241.01276266666554,
                    "velocity": 0.16535433070866143,
                    "duration": 0.18987350000000447
                },
                {
                    "name": "A#3",
                    "midi": 58,
                    "time": 241.01276266666554,
                    "velocity": 0.1968503937007874,
                    "duration": 0.18987350000000447
                },
                {
                    "name": "A#3",
                    "midi": 58,
                    "time": 241.2659273333322,
                    "velocity": 0.1968503937007874,
                    "duration": 0.18987350000000447
                },
                {
                    "name": "C3",
                    "midi": 48,
                    "time": 241.2659273333322,
                    "velocity": 0.16535433070866143,
                    "duration": 0.18987350000000447
                },
                {
                    "name": "D#3",
                    "midi": 51,
                    "time": 241.2659273333322,
                    "velocity": 0.16535433070866143,
                    "duration": 0.18987350000000447
                },
                {
                    "name": "D#3",
                    "midi": 51,
                    "time": 241.51909199999886,
                    "velocity": 0.2283464566929134,
                    "duration": 0.18987350000000447
                },
                {
                    "name": "C3",
                    "midi": 48,
                    "time": 241.51909199999886,
                    "velocity": 0.2283464566929134,
                    "duration": 0.18987350000000447
                },
                {
                    "name": "G#3",
                    "midi": 56,
                    "time": 241.51909199999886,
                    "velocity": 0.2755905511811024,
                    "duration": 0.18987350000000447
                },
                {
                    "name": "G#3",
                    "midi": 56,
                    "time": 241.77225666666553,
                    "velocity": 0.2125984251968504,
                    "duration": 0.18987350000000447
                },
                {
                    "name": "C3",
                    "midi": 48,
                    "time": 241.77225666666553,
                    "velocity": 0.1732283464566929,
                    "duration": 0.18987350000000447
                },
                {
                    "name": "D#3",
                    "midi": 51,
                    "time": 241.77225666666553,
                    "velocity": 0.1732283464566929,
                    "duration": 0.18987350000000447
                },
                {
                    "name": "D#3",
                    "midi": 51,
                    "time": 242.0254213333322,
                    "velocity": 0.1889763779527559,
                    "duration": 0.18987350000000447
                },
                {
                    "name": "C3",
                    "midi": 48,
                    "time": 242.0254213333322,
                    "velocity": 0.1889763779527559,
                    "duration": 0.18987350000000447
                },
                {
                    "name": "G#3",
                    "midi": 56,
                    "time": 242.0254213333322,
                    "velocity": 0.2283464566929134,
                    "duration": 0.18987350000000447
                },
                {
                    "name": "D#3",
                    "midi": 51,
                    "time": 242.27858599999885,
                    "velocity": 0.25984251968503935,
                    "duration": 0.18987350000000447
                },
                {
                    "name": "G#3",
                    "midi": 56,
                    "time": 242.27858599999885,
                    "velocity": 0.30708661417322836,
                    "duration": 0.18987350000000447
                },
                {
                    "name": "C3",
                    "midi": 48,
                    "time": 242.27858599999885,
                    "velocity": 0.25984251968503935,
                    "duration": 0.18987350000000447
                },
                {
                    "name": "D#3",
                    "midi": 51,
                    "time": 242.53175066666552,
                    "velocity": 0.1968503937007874,
                    "duration": 0.18987350000000447
                },
                {
                    "name": "C3",
                    "midi": 48,
                    "time": 242.53175066666552,
                    "velocity": 0.1968503937007874,
                    "duration": 0.18987350000000447
                },
                {
                    "name": "G#3",
                    "midi": 56,
                    "time": 242.53175066666552,
                    "velocity": 0.23622047244094488,
                    "duration": 0.18987350000000447
                },
                {
                    "name": "D#3",
                    "midi": 51,
                    "time": 242.78491533333218,
                    "velocity": 0.2047244094488189,
                    "duration": 0.18987350000000447
                },
                {
                    "name": "G#3",
                    "midi": 56,
                    "time": 242.78491533333218,
                    "velocity": 0.2440944881889764,
                    "duration": 0.18987350000000447
                },
                {
                    "name": "C3",
                    "midi": 48,
                    "time": 242.78491533333218,
                    "velocity": 0.2047244094488189,
                    "duration": 0.18987350000000447
                },
                {
                    "name": "C#2",
                    "midi": 37,
                    "time": 243.03807999999884,
                    "velocity": 0.33070866141732286,
                    "duration": 0.18987350000000447
                },
                {
                    "name": "G#3",
                    "midi": 56,
                    "time": 243.2912446666655,
                    "velocity": 0.23622047244094488,
                    "duration": 0.18987350000000447
                },
                {
                    "name": "C#3",
                    "midi": 49,
                    "time": 243.2912446666655,
                    "velocity": 0.1968503937007874,
                    "duration": 0.18987350000000447
                },
                {
                    "name": "F3",
                    "midi": 53,
                    "time": 243.2912446666655,
                    "velocity": 0.1968503937007874,
                    "duration": 0.18987350000000447
                },
                {
                    "name": "F3",
                    "midi": 53,
                    "time": 243.54440933333217,
                    "velocity": 0.2047244094488189,
                    "duration": 0.18987350000000447
                },
                {
                    "name": "G#3",
                    "midi": 56,
                    "time": 243.54440933333217,
                    "velocity": 0.2440944881889764,
                    "duration": 0.18987350000000447
                },
                {
                    "name": "C#3",
                    "midi": 49,
                    "time": 243.54440933333217,
                    "velocity": 0.2047244094488189,
                    "duration": 0.18987350000000447
                },
                {
                    "name": "F3",
                    "midi": 53,
                    "time": 243.79757399999883,
                    "velocity": 0.25984251968503935,
                    "duration": 0.18987350000000447
                },
                {
                    "name": "A3",
                    "midi": 57,
                    "time": 243.79757399999883,
                    "velocity": 0.30708661417322836,
                    "duration": 0.18987350000000447
                },
                {
                    "name": "C#3",
                    "midi": 49,
                    "time": 243.79757399999883,
                    "velocity": 0.25984251968503935,
                    "duration": 0.18987350000000447
                },
                {
                    "name": "F3",
                    "midi": 53,
                    "time": 244.0507386666655,
                    "velocity": 0.1889763779527559,
                    "duration": 0.18987350000000447
                },
                {
                    "name": "C#3",
                    "midi": 49,
                    "time": 244.0507386666655,
                    "velocity": 0.1889763779527559,
                    "duration": 0.18987350000000447
                },
                {
                    "name": "A3",
                    "midi": 57,
                    "time": 244.0507386666655,
                    "velocity": 0.2283464566929134,
                    "duration": 0.18987350000000447
                },
                {
                    "name": "A#3",
                    "midi": 58,
                    "time": 244.30390333333216,
                    "velocity": 0.2204724409448819,
                    "duration": 0.18987350000000447
                },
                {
                    "name": "C#3",
                    "midi": 49,
                    "time": 244.30390333333216,
                    "velocity": 0.18110236220472442,
                    "duration": 0.18987350000000447
                },
                {
                    "name": "F3",
                    "midi": 53,
                    "time": 244.30390333333216,
                    "velocity": 0.18110236220472442,
                    "duration": 0.18987350000000447
                },
                {
                    "name": "D#2",
                    "midi": 39,
                    "time": 244.55706799999882,
                    "velocity": 0.28346456692913385,
                    "duration": 0.18987350000000447
                },
                {
                    "name": "D#3",
                    "midi": 51,
                    "time": 244.81023266666548,
                    "velocity": 0.16535433070866143,
                    "duration": 0.18987350000000447
                },
                {
                    "name": "G#3",
                    "midi": 56,
                    "time": 244.81023266666548,
                    "velocity": 0.2047244094488189,
                    "duration": 0.18987350000000447
                },
                {
                    "name": "D#3",
                    "midi": 51,
                    "time": 245.06339733333215,
                    "velocity": 0.1732283464566929,
                    "duration": 0.18987350000000447
                },
                {
                    "name": "G#3",
                    "midi": 56,
                    "time": 245.06339733333215,
                    "velocity": 0.2047244094488189,
                    "duration": 0.18987350000000447
                },
                {
                    "name": "D#2",
                    "midi": 39,
                    "time": 245.3165619999988,
                    "velocity": 0.2677165354330709,
                    "duration": 0.18987350000000447
                },
                {
                    "name": "A#3",
                    "midi": 58,
                    "time": 245.56972666666547,
                    "velocity": 0.2047244094488189,
                    "duration": 0.18987350000000447
                },
                {
                    "name": "G3",
                    "midi": 55,
                    "time": 245.56972666666547,
                    "velocity": 0.16535433070866143,
                    "duration": 0.18987350000000447
                },
                {
                    "name": "D#3",
                    "midi": 51,
                    "time": 245.56972666666547,
                    "velocity": 0.16535433070866143,
                    "duration": 0.18987350000000447
                },
                {
                    "name": "A#3",
                    "midi": 58,
                    "time": 245.82289133333214,
                    "velocity": 0.1968503937007874,
                    "duration": 0.18987350000000447
                },
                {
                    "name": "G3",
                    "midi": 55,
                    "time": 245.82289133333214,
                    "velocity": 0.16535433070866143,
                    "duration": 0.18987350000000447
                },
                {
                    "name": "D#3",
                    "midi": 51,
                    "time": 245.82289133333214,
                    "velocity": 0.16535433070866143,
                    "duration": 0.18987350000000447
                },
                {
                    "name": "G#1",
                    "midi": 32,
                    "time": 246.0760559999988,
                    "velocity": 0.25984251968503935,
                    "duration": 2.2784819999999684
                },
                {
                    "name": "G#2",
                    "midi": 44,
                    "time": 246.0760559999988,
                    "velocity": 0.25984251968503935,
                    "duration": 0.18987350000000447
                },
                {
                    "name": "D#3",
                    "midi": 51,
                    "time": 246.32922066666546,
                    "velocity": 0.18110236220472442,
                    "duration": 0.18987350000000447
                },
                {
                    "name": "G#2",
                    "midi": 44,
                    "time": 246.32922066666546,
                    "velocity": 0.14960629921259844,
                    "duration": 0.18987350000000447
                },
                {
                    "name": "C3",
                    "midi": 48,
                    "time": 246.32922066666546,
                    "velocity": 0.16535433070866143,
                    "duration": 0.18987350000000447
                },
                {
                    "name": "C3",
                    "midi": 48,
                    "time": 246.58238533333213,
                    "velocity": 0.14960629921259844,
                    "duration": 0.18987350000000447
                },
                {
                    "name": "G#2",
                    "midi": 44,
                    "time": 246.58238533333213,
                    "velocity": 0.14960629921259844,
                    "duration": 0.18987350000000447
                },
                {
                    "name": "D#3",
                    "midi": 51,
                    "time": 246.58238533333213,
                    "velocity": 0.18110236220472442,
                    "duration": 0.18987350000000447
                },
                {
                    "name": "G#2",
                    "midi": 44,
                    "time": 246.8355499999988,
                    "velocity": 0.16535433070866143,
                    "duration": 0.18987350000000447
                },
                {
                    "name": "C3",
                    "midi": 48,
                    "time": 246.8355499999988,
                    "velocity": 0.16535433070866143,
                    "duration": 0.18987350000000447
                },
                {
                    "name": "D#3",
                    "midi": 51,
                    "time": 246.8355499999988,
                    "velocity": 0.1968503937007874,
                    "duration": 0.18987350000000447
                },
                {
                    "name": "C3",
                    "midi": 48,
                    "time": 247.08871466666545,
                    "velocity": 0.16535433070866143,
                    "duration": 0.18987350000000447
                },
                {
                    "name": "D#3",
                    "midi": 51,
                    "time": 247.08871466666545,
                    "velocity": 0.1968503937007874,
                    "duration": 0.18987350000000447
                },
                {
                    "name": "G#2",
                    "midi": 44,
                    "time": 247.08871466666545,
                    "velocity": 0.16535433070866143,
                    "duration": 0.18987350000000447
                },
                {
                    "name": "D#3",
                    "midi": 51,
                    "time": 247.34187933333212,
                    "velocity": 0.1968503937007874,
                    "duration": 0.18987350000000447
                },
                {
                    "name": "C3",
                    "midi": 48,
                    "time": 247.34187933333212,
                    "velocity": 0.16535433070866143,
                    "duration": 0.18987350000000447
                },
                {
                    "name": "G#2",
                    "midi": 44,
                    "time": 247.34187933333212,
                    "velocity": 0.16535433070866143,
                    "duration": 0.18987350000000447
                },
                {
                    "name": "G#2",
                    "midi": 44,
                    "time": 247.59504399999878,
                    "velocity": 0.2125984251968504,
                    "duration": 0.18987350000000447
                },
                {
                    "name": "D#3",
                    "midi": 51,
                    "time": 247.59504399999878,
                    "velocity": 0.25196850393700787,
                    "duration": 0.18987350000000447
                },
                {
                    "name": "C3",
                    "midi": 48,
                    "time": 247.59504399999878,
                    "velocity": 0.2125984251968504,
                    "duration": 0.18987350000000447
                },
                {
                    "name": "G#2",
                    "midi": 44,
                    "time": 247.84820866666544,
                    "velocity": 0.15748031496062992,
                    "duration": 0.18987350000000447
                },
                {
                    "name": "D#3",
                    "midi": 51,
                    "time": 247.84820866666544,
                    "velocity": 0.1889763779527559,
                    "duration": 0.18987350000000447
                },
                {
                    "name": "C3",
                    "midi": 48,
                    "time": 247.84820866666544,
                    "velocity": 0.2125984251968504,
                    "duration": 0.18987350000000447
                },
                {
                    "name": "G#2",
                    "midi": 44,
                    "time": 248.1013733333321,
                    "velocity": 0.16535433070866143,
                    "duration": 0.18987350000000447
                },
                {
                    "name": "C3",
                    "midi": 48,
                    "time": 248.1013733333321,
                    "velocity": 0.16535433070866143,
                    "duration": 0.18987350000000447
                },
                {
                    "name": "D#3",
                    "midi": 51,
                    "time": 248.1013733333321,
                    "velocity": 0.1968503937007874,
                    "duration": 0.18987350000000447
                },
                {
                    "name": "D#3",
                    "midi": 51,
                    "time": 248.35453799999877,
                    "velocity": 0.25984251968503935,
                    "duration": 0.18987350000000447
                },
                {
                    "name": "C3",
                    "midi": 48,
                    "time": 248.35453799999877,
                    "velocity": 0.2204724409448819,
                    "duration": 0.18987350000000447
                },
                {
                    "name": "G#2",
                    "midi": 44,
                    "time": 248.35453799999877,
                    "velocity": 0.2204724409448819,
                    "duration": 0.18987350000000447
                },
                {
                    "name": "G#2",
                    "midi": 44,
                    "time": 248.60770266666543,
                    "velocity": 0.16535433070866143,
                    "duration": 0.18987350000000447
                },
                {
                    "name": "C3",
                    "midi": 48,
                    "time": 248.60770266666543,
                    "velocity": 0.16535433070866143,
                    "duration": 0.18987350000000447
                },
                {
                    "name": "D#3",
                    "midi": 51,
                    "time": 248.60770266666543,
                    "velocity": 0.1968503937007874,
                    "duration": 0.18987350000000447
                },
                {
                    "name": "G#2",
                    "midi": 44,
                    "time": 248.8608673333321,
                    "velocity": 0.16535433070866143,
                    "duration": 0.18987350000000447
                },
                {
                    "name": "C3",
                    "midi": 48,
                    "time": 248.8608673333321,
                    "velocity": 0.16535433070866143,
                    "duration": 0.18987350000000447
                },
                {
                    "name": "D#3",
                    "midi": 51,
                    "time": 248.8608673333321,
                    "velocity": 0.1968503937007874,
                    "duration": 0.18987350000000447
                },
                {
                    "name": "G#2",
                    "midi": 44,
                    "time": 249.11403199999876,
                    "velocity": 0.25984251968503935,
                    "duration": 0.18987350000000447
                },
                {
                    "name": "G#1",
                    "midi": 32,
                    "time": 249.11403199999876,
                    "velocity": 0.25984251968503935,
                    "duration": 1.518987999999979
                },
                {
                    "name": "D#3",
                    "midi": 51,
                    "time": 249.36719666666542,
                    "velocity": 0.18110236220472442,
                    "duration": 0.18987350000000447
                },
                {
                    "name": "G#2",
                    "midi": 44,
                    "time": 249.36719666666542,
                    "velocity": 0.14960629921259844,
                    "duration": 0.18987350000000447
                },
                {
                    "name": "C3",
                    "midi": 48,
                    "time": 249.36719666666542,
                    "velocity": 0.16535433070866143,
                    "duration": 0.18987350000000447
                },
                {
                    "name": "C3",
                    "midi": 48,
                    "time": 249.62036133333208,
                    "velocity": 0.14960629921259844,
                    "duration": 0.18987350000000447
                },
                {
                    "name": "G#2",
                    "midi": 44,
                    "time": 249.62036133333208,
                    "velocity": 0.14960629921259844,
                    "duration": 0.18987350000000447
                },
                {
                    "name": "D#3",
                    "midi": 51,
                    "time": 249.62036133333208,
                    "velocity": 0.18110236220472442,
                    "duration": 0.18987350000000447
                },
                {
                    "name": "G#2",
                    "midi": 44,
                    "time": 249.87352599999875,
                    "velocity": 0.16535433070866143,
                    "duration": 0.18987350000000447
                },
                {
                    "name": "C3",
                    "midi": 48,
                    "time": 249.87352599999875,
                    "velocity": 0.16535433070866143,
                    "duration": 0.18987350000000447
                },
                {
                    "name": "D#3",
                    "midi": 51,
                    "time": 249.87352599999875,
                    "velocity": 0.1968503937007874,
                    "duration": 0.18987350000000447
                },
                {
                    "name": "C3",
                    "midi": 48,
                    "time": 250.1266906666654,
                    "velocity": 0.16535433070866143,
                    "duration": 0.18987350000000447
                },
                {
                    "name": "D#3",
                    "midi": 51,
                    "time": 250.1266906666654,
                    "velocity": 0.1968503937007874,
                    "duration": 0.18987350000000447
                },
                {
                    "name": "G#2",
                    "midi": 44,
                    "time": 250.1266906666654,
                    "velocity": 0.16535433070866143,
                    "duration": 0.18987350000000447
                },
                {
                    "name": "C3",
                    "midi": 48,
                    "time": 250.37985533333207,
                    "velocity": 0.16535433070866143,
                    "duration": 0.18987350000000447
                },
                {
                    "name": "G#2",
                    "midi": 44,
                    "time": 250.37985533333207,
                    "velocity": 0.16535433070866143,
                    "duration": 0.18987350000000447
                },
                {
                    "name": "D#3",
                    "midi": 51,
                    "time": 250.37985533333207,
                    "velocity": 0.1968503937007874,
                    "duration": 0.18987350000000447
                },
                {
                    "name": "D#3",
                    "midi": 51,
                    "time": 250.63301999999874,
                    "velocity": 0.25196850393700787,
                    "duration": 0.18987350000000447
                },
                {
                    "name": "C3",
                    "midi": 48,
                    "time": 250.63301999999874,
                    "velocity": 0.2125984251968504,
                    "duration": 0.18987350000000447
                },
                {
                    "name": "G#2",
                    "midi": 44,
                    "time": 250.63301999999874,
                    "velocity": 0.2125984251968504,
                    "duration": 0.18987350000000447
                },
                {
                    "name": "C3",
                    "midi": 48,
                    "time": 250.8861846666654,
                    "velocity": 0.2125984251968504,
                    "duration": 0.18987350000000447
                },
                {
                    "name": "G#2",
                    "midi": 44,
                    "time": 250.8861846666654,
                    "velocity": 0.15748031496062992,
                    "duration": 0.18987350000000447
                },
                {
                    "name": "D#3",
                    "midi": 51,
                    "time": 250.8861846666654,
                    "velocity": 0.1889763779527559,
                    "duration": 0.18987350000000447
                },
                {
                    "name": "D#3",
                    "midi": 51,
                    "time": 251.13934933333206,
                    "velocity": 0.1968503937007874,
                    "duration": 0.18987350000000447
                },
                {
                    "name": "G#2",
                    "midi": 44,
                    "time": 251.13934933333206,
                    "velocity": 0.16535433070866143,
                    "duration": 0.18987350000000447
                },
                {
                    "name": "C3",
                    "midi": 48,
                    "time": 251.13934933333206,
                    "velocity": 0.16535433070866143,
                    "duration": 0.18987350000000447
                },
                {
                    "name": "G#2",
                    "midi": 44,
                    "time": 251.39251399999873,
                    "velocity": 0.2204724409448819,
                    "duration": 0.18987350000000447
                },
                {
                    "name": "D#3",
                    "midi": 51,
                    "time": 251.39251399999873,
                    "velocity": 0.25984251968503935,
                    "duration": 0.18987350000000447
                },
                {
                    "name": "C3",
                    "midi": 48,
                    "time": 251.39251399999873,
                    "velocity": 0.2204724409448819,
                    "duration": 0.18987350000000447
                },
                {
                    "name": "D#3",
                    "midi": 51,
                    "time": 251.6456786666654,
                    "velocity": 0.1968503937007874,
                    "duration": 0.18987350000000447
                },
                {
                    "name": "C3",
                    "midi": 48,
                    "time": 251.6456786666654,
                    "velocity": 0.16535433070866143,
                    "duration": 0.18987350000000447
                },
                {
                    "name": "G#2",
                    "midi": 44,
                    "time": 251.6456786666654,
                    "velocity": 0.16535433070866143,
                    "duration": 0.18987350000000447
                },
                {
                    "name": "G#2",
                    "midi": 44,
                    "time": 251.89884333333205,
                    "velocity": 0.16535433070866143,
                    "duration": 0.18987350000000447
                },
                {
                    "name": "D#3",
                    "midi": 51,
                    "time": 251.89884333333205,
                    "velocity": 0.1968503937007874,
                    "duration": 0.18987350000000447
                },
                {
                    "name": "C3",
                    "midi": 48,
                    "time": 251.89884333333205,
                    "velocity": 0.16535433070866143,
                    "duration": 0.18987350000000447
                },
                {
                    "name": "G1",
                    "midi": 31,
                    "time": 252.15200799999872,
                    "velocity": 0.25984251968503935,
                    "duration": 1.518987999999979
                },
                {
                    "name": "G2",
                    "midi": 43,
                    "time": 252.15200799999872,
                    "velocity": 0.25984251968503935,
                    "duration": 0.18987350000000447
                },
                {
                    "name": "G2",
                    "midi": 43,
                    "time": 252.40517266666538,
                    "velocity": 0.14960629921259844,
                    "duration": 0.18987350000000447
                },
                {
                    "name": "D#3",
                    "midi": 51,
                    "time": 252.40517266666538,
                    "velocity": 0.18110236220472442,
                    "duration": 0.18987350000000447
                },
                {
                    "name": "C3",
                    "midi": 48,
                    "time": 252.40517266666538,
                    "velocity": 0.16535433070866143,
                    "duration": 0.18987350000000447
                },
                {
                    "name": "C3",
                    "midi": 48,
                    "time": 252.65833733333204,
                    "velocity": 0.14960629921259844,
                    "duration": 0.18987350000000447
                },
                {
                    "name": "D#3",
                    "midi": 51,
                    "time": 252.65833733333204,
                    "velocity": 0.18110236220472442,
                    "duration": 0.18987350000000447
                },
                {
                    "name": "G2",
                    "midi": 43,
                    "time": 252.65833733333204,
                    "velocity": 0.14960629921259844,
                    "duration": 0.18987350000000447
                },
                {
                    "name": "C3",
                    "midi": 48,
                    "time": 252.9115019999987,
                    "velocity": 0.16535433070866143,
                    "duration": 0.18987350000000447
                },
                {
                    "name": "D#3",
                    "midi": 51,
                    "time": 252.9115019999987,
                    "velocity": 0.1968503937007874,
                    "duration": 0.18987350000000447
                },
                {
                    "name": "G2",
                    "midi": 43,
                    "time": 252.9115019999987,
                    "velocity": 0.16535433070866143,
                    "duration": 0.18987350000000447
                },
                {
                    "name": "G2",
                    "midi": 43,
                    "time": 253.16466666666537,
                    "velocity": 0.16535433070866143,
                    "duration": 0.18987350000000447
                },
                {
                    "name": "C3",
                    "midi": 48,
                    "time": 253.16466666666537,
                    "velocity": 0.16535433070866143,
                    "duration": 0.18987350000000447
                },
                {
                    "name": "D#3",
                    "midi": 51,
                    "time": 253.16466666666537,
                    "velocity": 0.1968503937007874,
                    "duration": 0.18987350000000447
                },
                {
                    "name": "C3",
                    "midi": 48,
                    "time": 253.41783133333203,
                    "velocity": 0.16535433070866143,
                    "duration": 0.18987350000000447
                },
                {
                    "name": "G2",
                    "midi": 43,
                    "time": 253.41783133333203,
                    "velocity": 0.16535433070866143,
                    "duration": 0.18987350000000447
                },
                {
                    "name": "D#3",
                    "midi": 51,
                    "time": 253.41783133333203,
                    "velocity": 0.1968503937007874,
                    "duration": 0.18987350000000447
                },
                {
                    "name": "G2",
                    "midi": 43,
                    "time": 253.6709959999987,
                    "velocity": 0.2125984251968504,
                    "duration": 0.18987350000000447
                },
                {
                    "name": "D#3",
                    "midi": 51,
                    "time": 253.6709959999987,
                    "velocity": 0.25196850393700787,
                    "duration": 0.18987350000000447
                },
                {
                    "name": "C3",
                    "midi": 48,
                    "time": 253.6709959999987,
                    "velocity": 0.2125984251968504,
                    "duration": 0.18987350000000447
                },
                {
                    "name": "D#3",
                    "midi": 51,
                    "time": 253.92416066666536,
                    "velocity": 0.1889763779527559,
                    "duration": 0.18987350000000447
                },
                {
                    "name": "C3",
                    "midi": 48,
                    "time": 253.92416066666536,
                    "velocity": 0.2125984251968504,
                    "duration": 0.18987350000000447
                },
                {
                    "name": "G2",
                    "midi": 43,
                    "time": 253.92416066666536,
                    "velocity": 0.15748031496062992,
                    "duration": 0.18987350000000447
                },
                {
                    "name": "C3",
                    "midi": 48,
                    "time": 254.17732533333202,
                    "velocity": 0.16535433070866143,
                    "duration": 0.18987350000000447
                },
                {
                    "name": "D#3",
                    "midi": 51,
                    "time": 254.17732533333202,
                    "velocity": 0.1968503937007874,
                    "duration": 0.18987350000000447
                },
                {
                    "name": "G2",
                    "midi": 43,
                    "time": 254.17732533333202,
                    "velocity": 0.16535433070866143,
                    "duration": 0.18987350000000447
                },
                {
                    "name": "G2",
                    "midi": 43,
                    "time": 254.43048999999868,
                    "velocity": 0.2204724409448819,
                    "duration": 0.18987350000000447
                },
                {
                    "name": "D#3",
                    "midi": 51,
                    "time": 254.43048999999868,
                    "velocity": 0.25984251968503935,
                    "duration": 0.18987350000000447
                },
                {
                    "name": "C3",
                    "midi": 48,
                    "time": 254.43048999999868,
                    "velocity": 0.2204724409448819,
                    "duration": 0.18987350000000447
                },
                {
                    "name": "D#3",
                    "midi": 51,
                    "time": 254.68365466666535,
                    "velocity": 0.1968503937007874,
                    "duration": 0.18987350000000447
                },
                {
                    "name": "G2",
                    "midi": 43,
                    "time": 254.68365466666535,
                    "velocity": 0.16535433070866143,
                    "duration": 0.18987350000000447
                },
                {
                    "name": "C3",
                    "midi": 48,
                    "time": 254.68365466666535,
                    "velocity": 0.16535433070866143,
                    "duration": 0.18987350000000447
                },
                {
                    "name": "C3",
                    "midi": 48,
                    "time": 254.936819333332,
                    "velocity": 0.16535433070866143,
                    "duration": 0.18987350000000447
                },
                {
                    "name": "G2",
                    "midi": 43,
                    "time": 254.936819333332,
                    "velocity": 0.16535433070866143,
                    "duration": 0.18987350000000447
                },
                {
                    "name": "D#3",
                    "midi": 51,
                    "time": 254.936819333332,
                    "velocity": 0.1968503937007874,
                    "duration": 0.18987350000000447
                },
                {
                    "name": "G1",
                    "midi": 31,
                    "time": 255.18998399999867,
                    "velocity": 0.25984251968503935,
                    "duration": 1.518987999999922
                },
                {
                    "name": "G2",
                    "midi": 43,
                    "time": 255.18998399999867,
                    "velocity": 0.25984251968503935,
                    "duration": 0.18987350000000447
                },
                {
                    "name": "D#3",
                    "midi": 51,
                    "time": 255.44314866666534,
                    "velocity": 0.18110236220472442,
                    "duration": 0.18987350000000447
                },
                {
                    "name": "G2",
                    "midi": 43,
                    "time": 255.44314866666534,
                    "velocity": 0.14960629921259844,
                    "duration": 0.18987350000000447
                },
                {
                    "name": "C3",
                    "midi": 48,
                    "time": 255.44314866666534,
                    "velocity": 0.16535433070866143,
                    "duration": 0.18987350000000447
                },
                {
                    "name": "D#3",
                    "midi": 51,
                    "time": 255.696313333332,
                    "velocity": 0.1889763779527559,
                    "duration": 0.18987350000000447
                },
                {
                    "name": "C3",
                    "midi": 48,
                    "time": 255.696313333332,
                    "velocity": 0.14960629921259844,
                    "duration": 0.18987350000000447
                },
                {
                    "name": "G2",
                    "midi": 43,
                    "time": 255.696313333332,
                    "velocity": 0.14960629921259844,
                    "duration": 0.18987350000000447
                },
                {
                    "name": "G2",
                    "midi": 43,
                    "time": 255.94947799999866,
                    "velocity": 0.1732283464566929,
                    "duration": 0.18987350000000447
                },
                {
                    "name": "C3",
                    "midi": 48,
                    "time": 255.94947799999866,
                    "velocity": 0.1732283464566929,
                    "duration": 0.18987350000000447
                },
                {
                    "name": "D#3",
                    "midi": 51,
                    "time": 255.94947799999866,
                    "velocity": 0.2047244094488189,
                    "duration": 0.18987350000000447
                },
                {
                    "name": "C3",
                    "midi": 48,
                    "time": 256.2026426666653,
                    "velocity": 0.1889763779527559,
                    "duration": 0.18987349999997605
                },
                {
                    "name": "G2",
                    "midi": 43,
                    "time": 256.2026426666653,
                    "velocity": 0.1889763779527559,
                    "duration": 0.18987349999997605
                },
                {
                    "name": "D#3",
                    "midi": 51,
                    "time": 256.2026426666653,
                    "velocity": 0.2204724409448819,
                    "duration": 0.18987349999997605
                },
                {
                    "name": "D#3",
                    "midi": 51,
                    "time": 256.45580733333196,
                    "velocity": 0.2283464566929134,
                    "duration": 0.18987349999997605
                },
                {
                    "name": "C3",
                    "midi": 48,
                    "time": 256.45580733333196,
                    "velocity": 0.1889763779527559,
                    "duration": 0.18987349999997605
                },
                {
                    "name": "G2",
                    "midi": 43,
                    "time": 256.45580733333196,
                    "velocity": 0.1889763779527559,
                    "duration": 0.18987349999997605
                },
                {
                    "name": "D#3",
                    "midi": 51,
                    "time": 256.7089719999986,
                    "velocity": 0.30708661417322836,
                    "duration": 0.18987349999997605
                },
                {
                    "name": "C3",
                    "midi": 48,
                    "time": 256.7089719999986,
                    "velocity": 0.25984251968503935,
                    "duration": 0.18987349999997605
                },
                {
                    "name": "G2",
                    "midi": 43,
                    "time": 256.7089719999986,
                    "velocity": 0.25984251968503935,
                    "duration": 0.18987349999997605
                },
                {
                    "name": "D#3",
                    "midi": 51,
                    "time": 256.96213666666523,
                    "velocity": 0.2440944881889764,
                    "duration": 0.18987349999997605
                },
                {
                    "name": "G2",
                    "midi": 43,
                    "time": 256.96213666666523,
                    "velocity": 0.1889763779527559,
                    "duration": 0.18987349999997605
                },
                {
                    "name": "C3",
                    "midi": 48,
                    "time": 256.96213666666523,
                    "velocity": 0.2677165354330709,
                    "duration": 0.18987349999997605
                },
                {
                    "name": "D#3",
                    "midi": 51,
                    "time": 257.21530133333187,
                    "velocity": 0.2677165354330709,
                    "duration": 0.18987349999997605
                },
                {
                    "name": "C3",
                    "midi": 48,
                    "time": 257.21530133333187,
                    "velocity": 0.2204724409448819,
                    "duration": 0.18987349999997605
                },
                {
                    "name": "G2",
                    "midi": 43,
                    "time": 257.21530133333187,
                    "velocity": 0.2204724409448819,
                    "duration": 0.18987349999997605
                },
                {
                    "name": "G2",
                    "midi": 43,
                    "time": 257.4684659999985,
                    "velocity": 0.30708661417322836,
                    "duration": 0.18987349999997605
                },
                {
                    "name": "C3",
                    "midi": 48,
                    "time": 257.4684659999985,
                    "velocity": 0.30708661417322836,
                    "duration": 0.18987349999997605
                },
                {
                    "name": "D#3",
                    "midi": 51,
                    "time": 257.4684659999985,
                    "velocity": 0.36220472440944884,
                    "duration": 0.18987349999997605
                },
                {
                    "name": "G2",
                    "midi": 43,
                    "time": 257.72163066666513,
                    "velocity": 0.2440944881889764,
                    "duration": 0.18987349999997605
                },
                {
                    "name": "D#3",
                    "midi": 51,
                    "time": 257.72163066666513,
                    "velocity": 0.28346456692913385,
                    "duration": 0.18987349999997605
                },
                {
                    "name": "C3",
                    "midi": 48,
                    "time": 257.72163066666513,
                    "velocity": 0.2440944881889764,
                    "duration": 0.18987349999997605
                },
                {
                    "name": "D#3",
                    "midi": 51,
                    "time": 257.97479533333177,
                    "velocity": 0.29133858267716534,
                    "duration": 0.18987349999997605
                },
                {
                    "name": "C3",
                    "midi": 48,
                    "time": 257.97479533333177,
                    "velocity": 0.2440944881889764,
                    "duration": 0.18987349999997605
                },
                {
                    "name": "G2",
                    "midi": 43,
                    "time": 257.97479533333177,
                    "velocity": 0.2440944881889764,
                    "duration": 0.18987349999997605
                },
                {
                    "name": "F1",
                    "midi": 29,
                    "time": 258.2279599999984,
                    "velocity": 0.4330708661417323,
                    "duration": 1.5189879999998084
                },
                {
                    "name": "F2",
                    "midi": 41,
                    "time": 258.2279599999984,
                    "velocity": 0.4330708661417323,
                    "duration": 0.18987349999997605
                },
                {
                    "name": "F2",
                    "midi": 41,
                    "time": 258.48112466666504,
                    "velocity": 0.2204724409448819,
                    "duration": 0.18987349999997605
                },
                {
                    "name": "D#3",
                    "midi": 51,
                    "time": 258.48112466666504,
                    "velocity": 0.2755905511811024,
                    "duration": 0.18987349999997605
                },
                {
                    "name": "C3",
                    "midi": 48,
                    "time": 258.48112466666504,
                    "velocity": 0.25196850393700787,
                    "duration": 0.18987349999997605
                },
                {
                    "name": "F2",
                    "midi": 41,
                    "time": 258.7342893333317,
                    "velocity": 0.2204724409448819,
                    "duration": 0.18987349999997605
                },
                {
                    "name": "D#3",
                    "midi": 51,
                    "time": 258.7342893333317,
                    "velocity": 0.2755905511811024,
                    "duration": 0.18987349999997605
                },
                {
                    "name": "C3",
                    "midi": 48,
                    "time": 258.7342893333317,
                    "velocity": 0.2204724409448819,
                    "duration": 0.18987349999997605
                },
                {
                    "name": "F2",
                    "midi": 41,
                    "time": 258.9874539999983,
                    "velocity": 0.25196850393700787,
                    "duration": 0.18987349999997605
                },
                {
                    "name": "C3",
                    "midi": 48,
                    "time": 258.9874539999983,
                    "velocity": 0.25196850393700787,
                    "duration": 0.18987349999997605
                },
                {
                    "name": "D#3",
                    "midi": 51,
                    "time": 258.9874539999983,
                    "velocity": 0.29133858267716534,
                    "duration": 0.18987349999997605
                },
                {
                    "name": "C3",
                    "midi": 48,
                    "time": 259.24061866666494,
                    "velocity": 0.25196850393700787,
                    "duration": 0.18987349999997605
                },
                {
                    "name": "F2",
                    "midi": 41,
                    "time": 259.24061866666494,
                    "velocity": 0.25196850393700787,
                    "duration": 0.18987349999997605
                },
                {
                    "name": "D#3",
                    "midi": 51,
                    "time": 259.24061866666494,
                    "velocity": 0.29133858267716534,
                    "duration": 0.18987349999997605
                },
                {
                    "name": "D#3",
                    "midi": 51,
                    "time": 259.4937833333316,
                    "velocity": 0.29133858267716534,
                    "duration": 0.18987349999997605
                },
                {
                    "name": "C3",
                    "midi": 48,
                    "time": 259.4937833333316,
                    "velocity": 0.25196850393700787,
                    "duration": 0.18987349999997605
                },
                {
                    "name": "F2",
                    "midi": 41,
                    "time": 259.4937833333316,
                    "velocity": 0.25196850393700787,
                    "duration": 0.18987349999997605
                },
                {
                    "name": "F#1",
                    "midi": 30,
                    "time": 259.7469479999982,
                    "velocity": 0.4330708661417323,
                    "duration": 1.5189879999998084
                },
                {
                    "name": "F#2",
                    "midi": 42,
                    "time": 259.7469479999982,
                    "velocity": 0.4330708661417323,
                    "duration": 0.18987349999997605
                },
                {
                    "name": "C3",
                    "midi": 48,
                    "time": 260.00011266666485,
                    "velocity": 0.25196850393700787,
                    "duration": 0.18987349999997605
                },
                {
                    "name": "F#2",
                    "midi": 42,
                    "time": 260.00011266666485,
                    "velocity": 0.2204724409448819,
                    "duration": 0.18987349999997605
                },
                {
                    "name": "D#3",
                    "midi": 51,
                    "time": 260.00011266666485,
                    "velocity": 0.2755905511811024,
                    "duration": 0.18987349999997605
                },
                {
                    "name": "D#3",
                    "midi": 51,
                    "time": 260.2532773333315,
                    "velocity": 0.2755905511811024,
                    "duration": 0.18987349999997605
                },
                {
                    "name": "F#2",
                    "midi": 42,
                    "time": 260.2532773333315,
                    "velocity": 0.2204724409448819,
                    "duration": 0.18987349999997605
                },
                {
                    "name": "C3",
                    "midi": 48,
                    "time": 260.2532773333315,
                    "velocity": 0.2204724409448819,
                    "duration": 0.18987349999997605
                },
                {
                    "name": "D#3",
                    "midi": 51,
                    "time": 260.5064419999981,
                    "velocity": 0.29133858267716534,
                    "duration": 0.18987349999997605
                },
                {
                    "name": "C3",
                    "midi": 48,
                    "time": 260.5064419999981,
                    "velocity": 0.25196850393700787,
                    "duration": 0.18987349999997605
                },
                {
                    "name": "F#2",
                    "midi": 42,
                    "time": 260.5064419999981,
                    "velocity": 0.25196850393700787,
                    "duration": 0.18987349999997605
                },
                {
                    "name": "D#3",
                    "midi": 51,
                    "time": 260.75960666666475,
                    "velocity": 0.29133858267716534,
                    "duration": 0.18987349999997605
                },
                {
                    "name": "C3",
                    "midi": 48,
                    "time": 260.75960666666475,
                    "velocity": 0.25196850393700787,
                    "duration": 0.18987349999997605
                },
                {
                    "name": "F#2",
                    "midi": 42,
                    "time": 260.75960666666475,
                    "velocity": 0.25196850393700787,
                    "duration": 0.18987349999997605
                },
                {
                    "name": "F#2",
                    "midi": 42,
                    "time": 261.0127713333314,
                    "velocity": 0.25196850393700787,
                    "duration": 0.18987349999997605
                },
                {
                    "name": "C3",
                    "midi": 48,
                    "time": 261.0127713333314,
                    "velocity": 0.25196850393700787,
                    "duration": 0.18987349999997605
                },
                {
                    "name": "D#3",
                    "midi": 51,
                    "time": 261.0127713333314,
                    "velocity": 0.29133858267716534,
                    "duration": 0.18987349999997605
                },
                {
                    "name": "G2",
                    "midi": 43,
                    "time": 261.265935999998,
                    "velocity": 0.3779527559055118,
                    "duration": 2.278481999999997
                },
                {
                    "name": "B2",
                    "midi": 47,
                    "time": 261.265935999998,
                    "velocity": 0.3779527559055118,
                    "duration": 2.278481999999997
                },
                {
                    "name": "D3",
                    "midi": 50,
                    "time": 261.265935999998,
                    "velocity": 0.3779527559055118,
                    "duration": 2.278481999999997
                },
                {
                    "name": "B2",
                    "midi": 47,
                    "time": 263.544417999998,
                    "velocity": 0.2755905511811024,
                    "duration": 0.569620499999985
                },
                {
                    "name": "C3",
                    "midi": 48,
                    "time": 264.114038499998,
                    "velocity": 0.23622047244094488,
                    "duration": 0.18987349999997605
                },
                {
                    "name": "D3",
                    "midi": 50,
                    "time": 264.303911999998,
                    "velocity": 0.31496062992125984,
                    "duration": 0.5348103583333454
                },
                {
                    "name": "D3",
                    "midi": 50,
                    "time": 265.063405999998,
                    "velocity": 0.25984251968503935,
                    "duration": 0.5348103583333454
                },
                {
                    "name": "D3",
                    "midi": 50,
                    "time": 265.822899999998,
                    "velocity": 0.25984251968503935,
                    "duration": 0.5348103583333454
                },
                {
                    "name": "C3",
                    "midi": 48,
                    "time": 266.58239399999803,
                    "velocity": 0.28346456692913385,
                    "duration": 0.569620499999985
                },
                {
                    "name": "D3",
                    "midi": 50,
                    "time": 267.152014499998,
                    "velocity": 0.29133858267716534,
                    "duration": 0.18987349999997605
                },
                {
                    "name": "D#3",
                    "midi": 51,
                    "time": 267.341887999998,
                    "velocity": 0.33070866141732286,
                    "duration": 1.1392410000000268
                },
                {
                    "name": "D3",
                    "midi": 50,
                    "time": 268.481128999998,
                    "velocity": 0.2755905511811024,
                    "duration": 0.37974700000000894
                },
                {
                    "name": "C3",
                    "midi": 48,
                    "time": 268.86087599999803,
                    "velocity": 0.2440944881889764,
                    "duration": 0.7594940000000179
                },
                {
                    "name": "A#2",
                    "midi": 46,
                    "time": 269.62036999999805,
                    "velocity": 0.30708661417322836,
                    "duration": 0.569620499999985
                },
                {
                    "name": "G#2",
                    "midi": 44,
                    "time": 270.18999049999803,
                    "velocity": 0.25984251968503935,
                    "duration": 0.18987349999997605
                },
                {
                    "name": "G2",
                    "midi": 43,
                    "time": 270.379863999998,
                    "velocity": 0.28346456692913385,
                    "duration": 0.7594940000000179
                },
                {
                    "name": "G2",
                    "midi": 43,
                    "time": 271.139357999998,
                    "velocity": 0.28346456692913385,
                    "duration": 0.7594940000000179
                },
                {
                    "name": "G2",
                    "midi": 43,
                    "time": 271.89885199999804,
                    "velocity": 0.28346456692913385,
                    "duration": 0.7594940000000179
                },
                {
                    "name": "G2",
                    "midi": 43,
                    "time": 272.65834599999806,
                    "velocity": 0.28346456692913385,
                    "duration": 0.7594940000000179
                },
                {
                    "name": "C3",
                    "midi": 48,
                    "time": 273.4178399999981,
                    "velocity": 0.3779527559055118,
                    "duration": 1.518987999999979
                },
                {
                    "name": "B1",
                    "midi": 35,
                    "time": 275.6963219999981,
                    "velocity": 0.33070866141732286,
                    "duration": 0.569620499999985
                },
                {
                    "name": "B2",
                    "midi": 47,
                    "time": 275.6963219999981,
                    "velocity": 0.3937007874015748,
                    "duration": 0.569620499999985
                },
                {
                    "name": "C2",
                    "midi": 36,
                    "time": 276.26594249999806,
                    "velocity": 0.29133858267716534,
                    "duration": 0.18987349999997605
                },
                {
                    "name": "C3",
                    "midi": 48,
                    "time": 276.26594249999806,
                    "velocity": 0.3464566929133858,
                    "duration": 0.18987349999997605
                },
                {
                    "name": "D3",
                    "midi": 50,
                    "time": 276.45581599999804,
                    "velocity": 0.4881889763779528,
                    "duration": 0.5348103583333454
                },
                {
                    "name": "D2",
                    "midi": 38,
                    "time": 276.45581599999804,
                    "velocity": 0.4015748031496063,
                    "duration": 0.569620499999985
                },
                {
                    "name": "D2",
                    "midi": 38,
                    "time": 277.215309999998,
                    "velocity": 0.33070866141732286,
                    "duration": 0.569620499999985
                },
                {
                    "name": "D3",
                    "midi": 50,
                    "time": 277.215309999998,
                    "velocity": 0.3937007874015748,
                    "duration": 0.5348103583333454
                },
                {
                    "name": "D2",
                    "midi": 38,
                    "time": 277.97480399999796,
                    "velocity": 0.33070866141732286,
                    "duration": 0.569620499999985
                },
                {
                    "name": "D3",
                    "midi": 50,
                    "time": 277.97480399999796,
                    "velocity": 0.3937007874015748,
                    "duration": 0.5348103583333454
                },
                {
                    "name": "C2",
                    "midi": 36,
                    "time": 278.7342979999979,
                    "velocity": 0.3937007874015748,
                    "duration": 0.569620499999985
                },
                {
                    "name": "C3",
                    "midi": 48,
                    "time": 278.7342979999979,
                    "velocity": 0.4645669291338583,
                    "duration": 0.569620499999985
                },
                {
                    "name": "D2",
                    "midi": 38,
                    "time": 279.3039184999979,
                    "velocity": 0.44881889763779526,
                    "duration": 0.18987349999997605
                },
                {
                    "name": "D3",
                    "midi": 50,
                    "time": 279.3039184999979,
                    "velocity": 0.5275590551181102,
                    "duration": 0.18987349999997605
                },
                {
                    "name": "D#2",
                    "midi": 39,
                    "time": 279.4937919999979,
                    "velocity": 0.49606299212598426,
                    "duration": 1.1392410000000268
                },
                {
                    "name": "D#3",
                    "midi": 51,
                    "time": 279.4937919999979,
                    "velocity": 0.5984251968503937,
                    "duration": 1.1392410000000268
                },
                {
                    "name": "D2",
                    "midi": 38,
                    "time": 280.6330329999979,
                    "velocity": 0.4251968503937008,
                    "duration": 0.37974700000000894
                },
                {
                    "name": "D3",
                    "midi": 50,
                    "time": 280.6330329999979,
                    "velocity": 0.5039370078740157,
                    "duration": 0.37974700000000894
                },
                {
                    "name": "C2",
                    "midi": 36,
                    "time": 281.0127799999979,
                    "velocity": 0.36220472440944884,
                    "duration": 0.7594940000000179
                },
                {
                    "name": "C3",
                    "midi": 48,
                    "time": 281.0127799999979,
                    "velocity": 0.4330708661417323,
                    "duration": 0.7594940000000179
                },
                {
                    "name": "A#1",
                    "midi": 34,
                    "time": 281.77227399999794,
                    "velocity": 0.44881889763779526,
                    "duration": 0.569620499999985
                },
                {
                    "name": "A#2",
                    "midi": 46,
                    "time": 281.77227399999794,
                    "velocity": 0.5275590551181102,
                    "duration": 0.569620499999985
                },
                {
                    "name": "G#2",
                    "midi": 44,
                    "time": 282.3418944999979,
                    "velocity": 0.4330708661417323,
                    "duration": 0.18987349999997605
                },
                {
                    "name": "G#1",
                    "midi": 32,
                    "time": 282.3418944999979,
                    "velocity": 0.36220472440944884,
                    "duration": 0.18987349999997605
                },
                {
                    "name": "G1",
                    "midi": 31,
                    "time": 282.5317679999979,
                    "velocity": 0.36220472440944884,
                    "duration": 0.7594940000000179
                },
                {
                    "name": "G2",
                    "midi": 43,
                    "time": 282.5317679999979,
                    "velocity": 0.4330708661417323,
                    "duration": 0.7594940000000179
                },
                {
                    "name": "G1",
                    "midi": 31,
                    "time": 283.2912619999979,
                    "velocity": 0.36220472440944884,
                    "duration": 0.7594940000000179
                },
                {
                    "name": "G2",
                    "midi": 43,
                    "time": 283.2912619999979,
                    "velocity": 0.4330708661417323,
                    "duration": 0.7594940000000179
                },
                {
                    "name": "G2",
                    "midi": 43,
                    "time": 284.05075599999793,
                    "velocity": 0.4330708661417323,
                    "duration": 0.7594940000000179
                },
                {
                    "name": "G1",
                    "midi": 31,
                    "time": 284.05075599999793,
                    "velocity": 0.36220472440944884,
                    "duration": 0.7594940000000179
                },
                {
                    "name": "G2",
                    "midi": 43,
                    "time": 284.81024999999795,
                    "velocity": 0.4330708661417323,
                    "duration": 0.7594940000000179
                },
                {
                    "name": "G1",
                    "midi": 31,
                    "time": 284.81024999999795,
                    "velocity": 0.36220472440944884,
                    "duration": 0.7594940000000179
                },
                {
                    "name": "C2",
                    "midi": 36,
                    "time": 285.56974399999797,
                    "velocity": 0.31496062992125984,
                    "duration": 0.2531646666666916
                },
                {
                    "name": "C3",
                    "midi": 48,
                    "time": 285.56974399999797,
                    "velocity": 0.31496062992125984,
                    "duration": 0.2531646666666916
                },
                {
                    "name": "G3",
                    "midi": 55,
                    "time": 285.82290866666466,
                    "velocity": 0.2440944881889764,
                    "duration": 0.18987349999997605
                },
                {
                    "name": "G3",
                    "midi": 55,
                    "time": 286.0760733333313,
                    "velocity": 0.2440944881889764,
                    "duration": 0.18987349999997605
                },
                {
                    "name": "G3",
                    "midi": 55,
                    "time": 286.32923799999793,
                    "velocity": 0.2440944881889764,
                    "duration": 0.18987349999997605
                },
                {
                    "name": "G3",
                    "midi": 55,
                    "time": 286.58240266666456,
                    "velocity": 0.2283464566929134,
                    "duration": 0.18987349999997605
                },
                {
                    "name": "G3",
                    "midi": 55,
                    "time": 286.8355673333312,
                    "velocity": 0.2283464566929134,
                    "duration": 0.18987349999997605
                },
                {
                    "name": "G3",
                    "midi": 55,
                    "time": 287.08873199999783,
                    "velocity": 0.2283464566929134,
                    "duration": 0.18987349999997605
                },
                {
                    "name": "G3",
                    "midi": 55,
                    "time": 287.34189666666447,
                    "velocity": 0.2204724409448819,
                    "duration": 0.18987349999997605
                },
                {
                    "name": "G3",
                    "midi": 55,
                    "time": 287.5950613333311,
                    "velocity": 0.2204724409448819,
                    "duration": 0.18987349999997605
                },
                {
                    "name": "G3",
                    "midi": 55,
                    "time": 287.84822599999774,
                    "velocity": 0.2440944881889764,
                    "duration": 0.18987349999997605
                },
                {
                    "name": "G3",
                    "midi": 55,
                    "time": 288.1013906666644,
                    "velocity": 0.23622047244094488,
                    "duration": 0.18987349999997605
                },
                {
                    "name": "G3",
                    "midi": 55,
                    "time": 288.354555333331,
                    "velocity": 0.23622047244094488,
                    "duration": 0.18987349999997605
                },
                {
                    "name": "G3",
                    "midi": 55,
                    "time": 288.60771999999764,
                    "velocity": 0.2440944881889764,
                    "duration": 0.18987349999997605
                },
                {
                    "name": "G3",
                    "midi": 55,
                    "time": 288.8608846666643,
                    "velocity": 0.2125984251968504,
                    "duration": 0.18987349999997605
                },
                {
                    "name": "G3",
                    "midi": 55,
                    "time": 289.1140493333309,
                    "velocity": 0.2125984251968504,
                    "duration": 0.18987349999997605
                },
                {
                    "name": "G3",
                    "midi": 55,
                    "time": 289.36721399999755,
                    "velocity": 0.2440944881889764,
                    "duration": 0.18987349999997605
                },
                {
                    "name": "G3",
                    "midi": 55,
                    "time": 289.6203786666642,
                    "velocity": 0.2204724409448819,
                    "duration": 0.18987349999997605
                },
                {
                    "name": "G3",
                    "midi": 55,
                    "time": 289.8735433333308,
                    "velocity": 0.2204724409448819,
                    "duration": 0.18987349999997605
                },
                {
                    "name": "G3",
                    "midi": 55,
                    "time": 290.12670799999745,
                    "velocity": 0.2440944881889764,
                    "duration": 0.18987349999997605
                },
                {
                    "name": "G3",
                    "midi": 55,
                    "time": 290.3798726666641,
                    "velocity": 0.2440944881889764,
                    "duration": 0.18987349999997605
                },
                {
                    "name": "G3",
                    "midi": 55,
                    "time": 290.6330373333307,
                    "velocity": 0.2440944881889764,
                    "duration": 0.18987349999997605
                },
                {
                    "name": "G3",
                    "midi": 55,
                    "time": 290.88620199999735,
                    "velocity": 0.2440944881889764,
                    "duration": 0.18987349999997605
                },
                {
                    "name": "G3",
                    "midi": 55,
                    "time": 291.139366666664,
                    "velocity": 0.2440944881889764,
                    "duration": 0.18987349999997605
                },
                {
                    "name": "G3",
                    "midi": 55,
                    "time": 291.3925313333306,
                    "velocity": 0.25196850393700787,
                    "duration": 0.18987349999997605
                },
                {
                    "name": "G3",
                    "midi": 55,
                    "time": 291.64569599999726,
                    "velocity": 0.31496062992125984,
                    "duration": 0.18987349999997605
                },
                {
                    "name": "G3",
                    "midi": 55,
                    "time": 291.8988606666639,
                    "velocity": 0.2440944881889764,
                    "duration": 0.18987349999997605
                },
                {
                    "name": "G3",
                    "midi": 55,
                    "time": 292.1520253333305,
                    "velocity": 0.2047244094488189,
                    "duration": 0.18987349999997605
                },
                {
                    "name": "G3",
                    "midi": 55,
                    "time": 292.40518999999716,
                    "velocity": 0.25984251968503935,
                    "duration": 0.18987349999997605
                },
                {
                    "name": "G3",
                    "midi": 55,
                    "time": 292.6583546666638,
                    "velocity": 0.2283464566929134,
                    "duration": 0.18987349999997605
                },
                {
                    "name": "G3",
                    "midi": 55,
                    "time": 292.91151933333043,
                    "velocity": 0.2047244094488189,
                    "duration": 0.18987349999997605
                },
                {
                    "name": "G3",
                    "midi": 55,
                    "time": 293.16468399999707,
                    "velocity": 0.25984251968503935,
                    "duration": 0.18987349999997605
                },
                {
                    "name": "G3",
                    "midi": 55,
                    "time": 293.4178486666637,
                    "velocity": 0.23622047244094488,
                    "duration": 0.18987349999997605
                },
                {
                    "name": "G3",
                    "midi": 55,
                    "time": 293.67101333333034,
                    "velocity": 0.2283464566929134,
                    "duration": 0.18987349999997605
                },
                {
                    "name": "G3",
                    "midi": 55,
                    "time": 293.92417799999697,
                    "velocity": 0.25984251968503935,
                    "duration": 0.18987349999997605
                },
                {
                    "name": "G3",
                    "midi": 55,
                    "time": 294.1773426666636,
                    "velocity": 0.23622047244094488,
                    "duration": 0.18987349999997605
                },
                {
                    "name": "G3",
                    "midi": 55,
                    "time": 294.43050733333024,
                    "velocity": 0.23622047244094488,
                    "duration": 0.18987349999997605
                },
                {
                    "name": "G3",
                    "midi": 55,
                    "time": 294.6836719999969,
                    "velocity": 0.2440944881889764,
                    "duration": 0.18987349999997605
                },
                {
                    "name": "G3",
                    "midi": 55,
                    "time": 294.9368366666635,
                    "velocity": 0.2204724409448819,
                    "duration": 0.18987349999997605
                },
                {
                    "name": "G3",
                    "midi": 55,
                    "time": 295.19000133333014,
                    "velocity": 0.2204724409448819,
                    "duration": 0.18987349999997605
                },
                {
                    "name": "G3",
                    "midi": 55,
                    "time": 295.4431659999968,
                    "velocity": 0.2440944881889764,
                    "duration": 0.18987349999997605
                },
                {
                    "name": "G3",
                    "midi": 55,
                    "time": 295.6963306666634,
                    "velocity": 0.2204724409448819,
                    "duration": 0.18987349999997605
                },
                {
                    "name": "G3",
                    "midi": 55,
                    "time": 295.94949533333005,
                    "velocity": 0.2440944881889764,
                    "duration": 0.18987349999997605
                },
                {
                    "name": "G3",
                    "midi": 55,
                    "time": 296.2026599999967,
                    "velocity": 0.28346456692913385,
                    "duration": 0.18987349999997605
                },
                {
                    "name": "G3",
                    "midi": 55,
                    "time": 296.4558246666633,
                    "velocity": 0.2283464566929134,
                    "duration": 0.18987349999997605
                },
                {
                    "name": "G3",
                    "midi": 55,
                    "time": 296.70898933332995,
                    "velocity": 0.2283464566929134,
                    "duration": 0.18987349999997605
                },
                {
                    "name": "G3",
                    "midi": 55,
                    "time": 296.9621539999966,
                    "velocity": 0.28346456692913385,
                    "duration": 0.18987349999997605
                },
                {
                    "name": "G3",
                    "midi": 55,
                    "time": 297.2153186666632,
                    "velocity": 0.2440944881889764,
                    "duration": 0.18987349999997605
                },
                {
                    "name": "G3",
                    "midi": 55,
                    "time": 297.46848333332986,
                    "velocity": 0.2440944881889764,
                    "duration": 0.18987349999997605
                },
                {
                    "name": "G3",
                    "midi": 55,
                    "time": 297.7216479999965,
                    "velocity": 0.29133858267716534,
                    "duration": 0.18987349999997605
                },
                {
                    "name": "G3",
                    "midi": 55,
                    "time": 297.9748126666631,
                    "velocity": 0.2283464566929134,
                    "duration": 0.18987349999997605
                },
                {
                    "name": "G3",
                    "midi": 55,
                    "time": 298.22797733332976,
                    "velocity": 0.2283464566929134,
                    "duration": 0.18987349999997605
                },
                {
                    "name": "G3",
                    "midi": 55,
                    "time": 298.4811419999964,
                    "velocity": 0.3464566929133858,
                    "duration": 0.18987349999997605
                },
                {
                    "name": "G3",
                    "midi": 55,
                    "time": 298.73430666666303,
                    "velocity": 0.29133858267716534,
                    "duration": 0.18987349999997605
                },
                {
                    "name": "G3",
                    "midi": 55,
                    "time": 298.98747133332967,
                    "velocity": 0.30708661417322836,
                    "duration": 0.18987349999997605
                },
                {
                    "name": "G3",
                    "midi": 55,
                    "time": 299.2406359999963,
                    "velocity": 0.41732283464566927,
                    "duration": 0.18987349999997605
                },
                {
                    "name": "G3",
                    "midi": 55,
                    "time": 299.49380066666293,
                    "velocity": 0.30708661417322836,
                    "duration": 0.18987349999997605
                },
                {
                    "name": "G3",
                    "midi": 55,
                    "time": 299.74696533332957,
                    "velocity": 0.31496062992125984,
                    "duration": 0.18987349999997605
                },
                {
                    "name": "G3",
                    "midi": 55,
                    "time": 300.0001299999962,
                    "velocity": 0.4094488188976378,
                    "duration": 0.18987349999997605
                },
                {
                    "name": "G3",
                    "midi": 55,
                    "time": 300.25329466666284,
                    "velocity": 0.3543307086614173,
                    "duration": 0.18987349999997605
                },
                {
                    "name": "G3",
                    "midi": 55,
                    "time": 300.5064593333295,
                    "velocity": 0.4094488188976378,
                    "duration": 0.18987349999997605
                },
                {
                    "name": "G3",
                    "midi": 55,
                    "time": 300.7596239999961,
                    "velocity": 0.4645669291338583,
                    "duration": 0.18987349999997605
                },
                {
                    "name": "G3",
                    "midi": 55,
                    "time": 301.01278866666274,
                    "velocity": 0.3700787401574803,
                    "duration": 0.18987349999997605
                },
                {
                    "name": "G3",
                    "midi": 55,
                    "time": 301.2659533333294,
                    "velocity": 0.3700787401574803,
                    "duration": 0.18987349999997605
                },
                {
                    "name": "G3",
                    "midi": 55,
                    "time": 301.519117999996,
                    "velocity": 0.4094488188976378,
                    "duration": 0.18987349999997605
                },
                {
                    "name": "F#3",
                    "midi": 54,
                    "time": 301.519117999996,
                    "velocity": 0.4094488188976378,
                    "duration": 0.18987349999997605
                },
                {
                    "name": "G3",
                    "midi": 55,
                    "time": 301.77228266666265,
                    "velocity": 0.33858267716535434,
                    "duration": 0.18987349999997605
                },
                {
                    "name": "F#3",
                    "midi": 54,
                    "time": 301.77228266666265,
                    "velocity": 0.33858267716535434,
                    "duration": 0.18987349999997605
                },
                {
                    "name": "G3",
                    "midi": 55,
                    "time": 302.0254473333293,
                    "velocity": 0.33858267716535434,
                    "duration": 0.18987349999997605
                },
                {
                    "name": "F#3",
                    "midi": 54,
                    "time": 302.0254473333293,
                    "velocity": 0.33858267716535434,
                    "duration": 0.18987349999997605
                },
                {
                    "name": "F3",
                    "midi": 53,
                    "time": 302.2786119999959,
                    "velocity": 0.4251968503937008,
                    "duration": 0.18987349999997605
                },
                {
                    "name": "G3",
                    "midi": 55,
                    "time": 302.2786119999959,
                    "velocity": 0.4251968503937008,
                    "duration": 0.18987349999997605
                },
                {
                    "name": "G3",
                    "midi": 55,
                    "time": 302.53177666666255,
                    "velocity": 0.3543307086614173,
                    "duration": 0.18987349999997605
                },
                {
                    "name": "F3",
                    "midi": 53,
                    "time": 302.53177666666255,
                    "velocity": 0.3543307086614173,
                    "duration": 0.18987349999997605
                },
                {
                    "name": "G3",
                    "midi": 55,
                    "time": 302.7849413333292,
                    "velocity": 0.3543307086614173,
                    "duration": 0.18987349999997605
                },
                {
                    "name": "F3",
                    "midi": 53,
                    "time": 302.7849413333292,
                    "velocity": 0.3543307086614173,
                    "duration": 0.18987349999997605
                },
                {
                    "name": "G3",
                    "midi": 55,
                    "time": 303.0381059999958,
                    "velocity": 0.41732283464566927,
                    "duration": 0.18987349999997605
                },
                {
                    "name": "D#3",
                    "midi": 51,
                    "time": 303.0381059999958,
                    "velocity": 0.41732283464566927,
                    "duration": 0.18987349999997605
                },
                {
                    "name": "D3",
                    "midi": 50,
                    "time": 303.29127066666246,
                    "velocity": 0.33858267716535434,
                    "duration": 0.18987349999997605
                },
                {
                    "name": "G3",
                    "midi": 55,
                    "time": 303.29127066666246,
                    "velocity": 0.33858267716535434,
                    "duration": 0.18987349999997605
                },
                {
                    "name": "C3",
                    "midi": 48,
                    "time": 303.5444353333291,
                    "velocity": 0.3464566929133858,
                    "duration": 0.18987349999997605
                },
                {
                    "name": "G3",
                    "midi": 55,
                    "time": 303.5444353333291,
                    "velocity": 0.3464566929133858,
                    "duration": 0.18987349999997605
                },
                {
                    "name": "C3",
                    "midi": 48,
                    "time": 303.7975999999957,
                    "velocity": 0.44881889763779526,
                    "duration": 0.18987349999997605
                },
                {
                    "name": "G3",
                    "midi": 55,
                    "time": 303.7975999999957,
                    "velocity": 0.44881889763779526,
                    "duration": 0.18987349999997605
                },
                {
                    "name": "C3",
                    "midi": 48,
                    "time": 304.05076466666236,
                    "velocity": 0.3543307086614173,
                    "duration": 0.18987349999997605
                },
                {
                    "name": "G3",
                    "midi": 55,
                    "time": 304.05076466666236,
                    "velocity": 0.3543307086614173,
                    "duration": 0.18987349999997605
                },
                {
                    "name": "G3",
                    "midi": 55,
                    "time": 304.303929333329,
                    "velocity": 0.3543307086614173,
                    "duration": 0.18987349999997605
                },
                {
                    "name": "C3",
                    "midi": 48,
                    "time": 304.303929333329,
                    "velocity": 0.3543307086614173,
                    "duration": 0.18987349999997605
                },
                {
                    "name": "G3",
                    "midi": 55,
                    "time": 304.55709399999563,
                    "velocity": 0.4251968503937008,
                    "duration": 0.18987349999997605
                },
                {
                    "name": "A#2",
                    "midi": 46,
                    "time": 304.55709399999563,
                    "velocity": 0.4251968503937008,
                    "duration": 0.18987349999997605
                },
                {
                    "name": "G3",
                    "midi": 55,
                    "time": 304.81025866666226,
                    "velocity": 0.3543307086614173,
                    "duration": 0.18987349999997605
                },
                {
                    "name": "A#2",
                    "midi": 46,
                    "time": 304.81025866666226,
                    "velocity": 0.3543307086614173,
                    "duration": 0.18987349999997605
                },
                {
                    "name": "A#2",
                    "midi": 46,
                    "time": 305.0634233333289,
                    "velocity": 0.3543307086614173,
                    "duration": 0.18987349999997605
                },
                {
                    "name": "G3",
                    "midi": 55,
                    "time": 305.0634233333289,
                    "velocity": 0.3543307086614173,
                    "duration": 0.18987349999997605
                },
                {
                    "name": "A2",
                    "midi": 45,
                    "time": 305.31658799999553,
                    "velocity": 0.4330708661417323,
                    "duration": 0.18987349999997605
                },
                {
                    "name": "G3",
                    "midi": 55,
                    "time": 305.31658799999553,
                    "velocity": 0.4330708661417323,
                    "duration": 0.18987349999997605
                },
                {
                    "name": "A2",
                    "midi": 45,
                    "time": 305.56975266666217,
                    "velocity": 0.33858267716535434,
                    "duration": 0.18987349999997605
                },
                {
                    "name": "G3",
                    "midi": 55,
                    "time": 305.56975266666217,
                    "velocity": 0.33858267716535434,
                    "duration": 0.18987349999997605
                },
                {
                    "name": "A2",
                    "midi": 45,
                    "time": 305.8229173333288,
                    "velocity": 0.33858267716535434,
                    "duration": 0.18987349999997605
                },
                {
                    "name": "G3",
                    "midi": 55,
                    "time": 305.8229173333288,
                    "velocity": 0.33858267716535434,
                    "duration": 0.18987349999997605
                },
                {
                    "name": "G#2",
                    "midi": 44,
                    "time": 306.07608199999544,
                    "velocity": 0.4094488188976378,
                    "duration": 0.18987349999997605
                },
                {
                    "name": "F#3",
                    "midi": 54,
                    "time": 306.07608199999544,
                    "velocity": 0.4094488188976378,
                    "duration": 0.18987349999997605
                },
                {
                    "name": "G#2",
                    "midi": 44,
                    "time": 306.3292466666621,
                    "velocity": 0.33858267716535434,
                    "duration": 0.18987349999997605
                },
                {
                    "name": "F#3",
                    "midi": 54,
                    "time": 306.3292466666621,
                    "velocity": 0.33858267716535434,
                    "duration": 0.18987349999997605
                },
                {
                    "name": "F#3",
                    "midi": 54,
                    "time": 306.5824113333287,
                    "velocity": 0.33070866141732286,
                    "duration": 0.18987349999997605
                },
                {
                    "name": "G#2",
                    "midi": 44,
                    "time": 306.5824113333287,
                    "velocity": 0.33070866141732286,
                    "duration": 0.18987349999997605
                },
                {
                    "name": "G2",
                    "midi": 43,
                    "time": 306.83557599999534,
                    "velocity": 0.4251968503937008,
                    "duration": 0.18987349999997605
                },
                {
                    "name": "F3",
                    "midi": 53,
                    "time": 306.83557599999534,
                    "velocity": 0.4251968503937008,
                    "duration": 0.18987349999997605
                },
                {
                    "name": "G2",
                    "midi": 43,
                    "time": 307.088740666662,
                    "velocity": 0.3543307086614173,
                    "duration": 0.18987349999997605
                },
                {
                    "name": "F3",
                    "midi": 53,
                    "time": 307.088740666662,
                    "velocity": 0.3543307086614173,
                    "duration": 0.18987349999997605
                },
                {
                    "name": "G2",
                    "midi": 43,
                    "time": 307.3419053333286,
                    "velocity": 0.3543307086614173,
                    "duration": 0.18987349999997605
                },
                {
                    "name": "F3",
                    "midi": 53,
                    "time": 307.3419053333286,
                    "velocity": 0.3543307086614173,
                    "duration": 0.18987349999997605
                },
                {
                    "name": "G2",
                    "midi": 43,
                    "time": 307.59506999999525,
                    "velocity": 0.4251968503937008,
                    "duration": 0.18987349999997605
                },
                {
                    "name": "F2",
                    "midi": 41,
                    "time": 307.59506999999525,
                    "velocity": 0.4251968503937008,
                    "duration": 0.18987349999997605
                },
                {
                    "name": "F2",
                    "midi": 41,
                    "time": 307.8482346666619,
                    "velocity": 0.33858267716535434,
                    "duration": 0.18987349999997605
                },
                {
                    "name": "G2",
                    "midi": 43,
                    "time": 307.8482346666619,
                    "velocity": 0.33858267716535434,
                    "duration": 0.18987349999997605
                },
                {
                    "name": "G2",
                    "midi": 43,
                    "time": 308.1013993333285,
                    "velocity": 0.33858267716535434,
                    "duration": 0.18987349999997605
                },
                {
                    "name": "F2",
                    "midi": 41,
                    "time": 308.1013993333285,
                    "velocity": 0.33858267716535434,
                    "duration": 0.18987349999997605
                },
                {
                    "name": "D#2",
                    "midi": 39,
                    "time": 308.35456399999515,
                    "velocity": 0.4330708661417323,
                    "duration": 0.18987349999997605
                },
                {
                    "name": "G2",
                    "midi": 43,
                    "time": 308.35456399999515,
                    "velocity": 0.4330708661417323,
                    "duration": 0.18987349999997605
                },
                {
                    "name": "G2",
                    "midi": 43,
                    "time": 308.6077286666618,
                    "velocity": 0.33858267716535434,
                    "duration": 0.18987349999997605
                },
                {
                    "name": "D#2",
                    "midi": 39,
                    "time": 308.6077286666618,
                    "velocity": 0.33858267716535434,
                    "duration": 0.18987349999997605
                },
                {
                    "name": "D#2",
                    "midi": 39,
                    "time": 308.8608933333284,
                    "velocity": 0.33858267716535434,
                    "duration": 0.18987349999997605
                },
                {
                    "name": "G2",
                    "midi": 43,
                    "time": 308.8608933333284,
                    "velocity": 0.33858267716535434,
                    "duration": 0.18987349999997605
                },
                {
                    "name": "G1",
                    "midi": 31,
                    "time": 309.11405799999505,
                    "velocity": 0.44881889763779526,
                    "duration": 0.18987349999997605
                },
                {
                    "name": "G2",
                    "midi": 43,
                    "time": 309.11405799999505,
                    "velocity": 0.44881889763779526,
                    "duration": 0.18987349999997605
                },
                {
                    "name": "G2",
                    "midi": 43,
                    "time": 309.3672226666617,
                    "velocity": 0.33858267716535434,
                    "duration": 0.18987349999997605
                },
                {
                    "name": "G1",
                    "midi": 31,
                    "time": 309.3672226666617,
                    "velocity": 0.33858267716535434,
                    "duration": 0.18987349999997605
                },
                {
                    "name": "G2",
                    "midi": 43,
                    "time": 309.6203873333283,
                    "velocity": 0.33858267716535434,
                    "duration": 0.18987349999997605
                },
                {
                    "name": "G1",
                    "midi": 31,
                    "time": 309.6203873333283,
                    "velocity": 0.33858267716535434,
                    "duration": 0.18987349999997605
                },
                {
                    "name": "C2",
                    "midi": 36,
                    "time": 309.87355199999496,
                    "velocity": 0.31496062992125984,
                    "duration": 0.2531646666666916
                },
                {
                    "name": "C3",
                    "midi": 48,
                    "time": 309.87355199999496,
                    "velocity": 0.31496062992125984,
                    "duration": 0.2531646666666916
                },
                {
                    "name": "G3",
                    "midi": 55,
                    "time": 310.12671666666165,
                    "velocity": 0.2440944881889764,
                    "duration": 0.18987349999997605
                },
                {
                    "name": "G3",
                    "midi": 55,
                    "time": 310.3798813333283,
                    "velocity": 0.2440944881889764,
                    "duration": 0.18987349999997605
                },
                {
                    "name": "G3",
                    "midi": 55,
                    "time": 310.6330459999949,
                    "velocity": 0.2440944881889764,
                    "duration": 0.18987349999997605
                },
                {
                    "name": "G3",
                    "midi": 55,
                    "time": 310.88621066666155,
                    "velocity": 0.2283464566929134,
                    "duration": 0.18987349999997605
                },
                {
                    "name": "G3",
                    "midi": 55,
                    "time": 311.1393753333282,
                    "velocity": 0.2283464566929134,
                    "duration": 0.18987349999997605
                },
                {
                    "name": "G3",
                    "midi": 55,
                    "time": 311.3925399999948,
                    "velocity": 0.2283464566929134,
                    "duration": 0.18987349999997605
                },
                {
                    "name": "G3",
                    "midi": 55,
                    "time": 311.64570466666146,
                    "velocity": 0.2204724409448819,
                    "duration": 0.18987349999997605
                },
                {
                    "name": "G3",
                    "midi": 55,
                    "time": 311.8988693333281,
                    "velocity": 0.2204724409448819,
                    "duration": 0.18987349999997605
                },
                {
                    "name": "G3",
                    "midi": 55,
                    "time": 312.1520339999947,
                    "velocity": 0.2440944881889764,
                    "duration": 0.18987349999997605
                },
                {
                    "name": "G3",
                    "midi": 55,
                    "time": 312.40519866666136,
                    "velocity": 0.23622047244094488,
                    "duration": 0.18987349999997605
                },
                {
                    "name": "G3",
                    "midi": 55,
                    "time": 312.658363333328,
                    "velocity": 0.23622047244094488,
                    "duration": 0.18987349999997605
                },
                {
                    "name": "G#3",
                    "midi": 56,
                    "time": 312.91152799999463,
                    "velocity": 0.2440944881889764,
                    "duration": 0.18987349999997605
                },
                {
                    "name": "G#3",
                    "midi": 56,
                    "time": 313.16469266666127,
                    "velocity": 0.2125984251968504,
                    "duration": 0.18987349999997605
                },
                {
                    "name": "G#3",
                    "midi": 56,
                    "time": 313.4178573333279,
                    "velocity": 0.2125984251968504,
                    "duration": 0.18987349999997605
                },
                {
                    "name": "A3",
                    "midi": 57,
                    "time": 313.67102199999454,
                    "velocity": 0.2440944881889764,
                    "duration": 0.18987349999997605
                },
                {
                    "name": "A3",
                    "midi": 57,
                    "time": 313.92418666666117,
                    "velocity": 0.2204724409448819,
                    "duration": 0.18987349999997605
                },
                {
                    "name": "A3",
                    "midi": 57,
                    "time": 314.1773513333278,
                    "velocity": 0.2204724409448819,
                    "duration": 0.18987349999997605
                },
                {
                    "name": "A#3",
                    "midi": 58,
                    "time": 314.43051599999444,
                    "velocity": 0.2440944881889764,
                    "duration": 0.18987349999997605
                },
                {
                    "name": "A#3",
                    "midi": 58,
                    "time": 314.6836806666611,
                    "velocity": 0.2440944881889764,
                    "duration": 0.18987349999997605
                },
                {
                    "name": "A#3",
                    "midi": 58,
                    "time": 314.9368453333277,
                    "velocity": 0.2440944881889764,
                    "duration": 0.18987349999997605
                },
                {
                    "name": "A#3",
                    "midi": 58,
                    "time": 315.19000999999434,
                    "velocity": 0.2440944881889764,
                    "duration": 0.18987349999997605
                },
                {
                    "name": "A#3",
                    "midi": 58,
                    "time": 315.443174666661,
                    "velocity": 0.2440944881889764,
                    "duration": 0.18987349999997605
                },
                {
                    "name": "A#3",
                    "midi": 58,
                    "time": 315.6963393333276,
                    "velocity": 0.25196850393700787,
                    "duration": 0.18987349999997605
                },
                {
                    "name": "A#3",
                    "midi": 58,
                    "time": 315.94950399999425,
                    "velocity": 0.31496062992125984,
                    "duration": 0.18987349999997605
                },
                {
                    "name": "A#3",
                    "midi": 58,
                    "time": 316.2026686666609,
                    "velocity": 0.2440944881889764,
                    "duration": 0.18987349999997605
                },
                {
                    "name": "A#3",
                    "midi": 58,
                    "time": 316.4558333333275,
                    "velocity": 0.2047244094488189,
                    "duration": 0.18987349999997605
                },
                {
                    "name": "B3",
                    "midi": 59,
                    "time": 316.70899799999415,
                    "velocity": 0.25984251968503935,
                    "duration": 0.18987349999997605
                },
                {
                    "name": "B3",
                    "midi": 59,
                    "time": 316.9621626666608,
                    "velocity": 0.2283464566929134,
                    "duration": 0.18987349999997605
                },
                {
                    "name": "B3",
                    "midi": 59,
                    "time": 317.2153273333274,
                    "velocity": 0.2047244094488189,
                    "duration": 0.18987349999997605
                },
                {
                    "name": "C4",
                    "midi": 60,
                    "time": 317.46849199999406,
                    "velocity": 0.25984251968503935,
                    "duration": 0.18987349999997605
                },
                {
                    "name": "G3",
                    "midi": 55,
                    "time": 317.7216566666607,
                    "velocity": 0.23622047244094488,
                    "duration": 0.18987349999997605
                },
                {
                    "name": "G3",
                    "midi": 55,
                    "time": 317.9748213333273,
                    "velocity": 0.2283464566929134,
                    "duration": 0.18987349999997605
                },
                {
                    "name": "G3",
                    "midi": 55,
                    "time": 318.22798599999396,
                    "velocity": 0.25984251968503935,
                    "duration": 0.18987349999997605
                },
                {
                    "name": "G3",
                    "midi": 55,
                    "time": 318.4811506666606,
                    "velocity": 0.23622047244094488,
                    "duration": 0.18987349999997605
                },
                {
                    "name": "G3",
                    "midi": 55,
                    "time": 318.73431533332723,
                    "velocity": 0.23622047244094488,
                    "duration": 0.18987349999997605
                },
                {
                    "name": "G3",
                    "midi": 55,
                    "time": 318.98747999999387,
                    "velocity": 0.2440944881889764,
                    "duration": 0.18987349999997605
                },
                {
                    "name": "G3",
                    "midi": 55,
                    "time": 319.2406446666605,
                    "velocity": 0.2204724409448819,
                    "duration": 0.18987349999997605
                },
                {
                    "name": "G3",
                    "midi": 55,
                    "time": 319.49380933332714,
                    "velocity": 0.2204724409448819,
                    "duration": 0.18987349999997605
                },
                {
                    "name": "G3",
                    "midi": 55,
                    "time": 319.74697399999377,
                    "velocity": 0.2440944881889764,
                    "duration": 0.18987349999997605
                },
                {
                    "name": "G3",
                    "midi": 55,
                    "time": 320.0001386666604,
                    "velocity": 0.2204724409448819,
                    "duration": 0.18987349999997605
                },
                {
                    "name": "G3",
                    "midi": 55,
                    "time": 320.25330333332704,
                    "velocity": 0.2440944881889764,
                    "duration": 0.18987349999997605
                },
                {
                    "name": "G3",
                    "midi": 55,
                    "time": 320.5064679999937,
                    "velocity": 0.28346456692913385,
                    "duration": 0.18987349999997605
                },
                {
                    "name": "G3",
                    "midi": 55,
                    "time": 320.7596326666603,
                    "velocity": 0.2283464566929134,
                    "duration": 0.18987349999997605
                },
                {
                    "name": "G3",
                    "midi": 55,
                    "time": 321.01279733332694,
                    "velocity": 0.2283464566929134,
                    "duration": 0.18987349999997605
                },
                {
                    "name": "G3",
                    "midi": 55,
                    "time": 321.2659619999936,
                    "velocity": 0.28346456692913385,
                    "duration": 0.18987349999997605
                },
                {
                    "name": "G3",
                    "midi": 55,
                    "time": 321.5191266666602,
                    "velocity": 0.2440944881889764,
                    "duration": 0.18987349999997605
                },
                {
                    "name": "G3",
                    "midi": 55,
                    "time": 321.77229133332685,
                    "velocity": 0.2440944881889764,
                    "duration": 0.18987349999997605
                },
                {
                    "name": "G3",
                    "midi": 55,
                    "time": 322.0254559999935,
                    "velocity": 0.29133858267716534,
                    "duration": 0.18987349999997605
                },
                {
                    "name": "G3",
                    "midi": 55,
                    "time": 322.2786206666601,
                    "velocity": 0.2283464566929134,
                    "duration": 0.18987349999997605
                },
                {
                    "name": "G3",
                    "midi": 55,
                    "time": 322.53178533332675,
                    "velocity": 0.2283464566929134,
                    "duration": 0.18987349999997605
                },
                {
                    "name": "G3",
                    "midi": 55,
                    "time": 322.7849499999934,
                    "velocity": 0.33070866141732286,
                    "duration": 0.18987349999997605
                },
                {
                    "name": "G3",
                    "midi": 55,
                    "time": 323.03811466666,
                    "velocity": 0.2755905511811024,
                    "duration": 0.18987349999997605
                },
                {
                    "name": "G3",
                    "midi": 55,
                    "time": 323.29127933332666,
                    "velocity": 0.29133858267716534,
                    "duration": 0.18987349999997605
                },
                {
                    "name": "G3",
                    "midi": 55,
                    "time": 323.5444439999933,
                    "velocity": 0.3858267716535433,
                    "duration": 0.2531646666666916
                },
                {
                    "name": "G#3",
                    "midi": 56,
                    "time": 323.79760866666,
                    "velocity": 0.28346456692913385,
                    "duration": 0.2531646666666916
                },
                {
                    "name": "A3",
                    "midi": 57,
                    "time": 324.0507733333267,
                    "velocity": 0.28346456692913385,
                    "duration": 0.2531646666666916
                },
                {
                    "name": "A#3",
                    "midi": 58,
                    "time": 324.30393799999337,
                    "velocity": 0.4094488188976378,
                    "duration": 0.18987349999997605
                },
                {
                    "name": "A#3",
                    "midi": 58,
                    "time": 324.55710266666,
                    "velocity": 0.3543307086614173,
                    "duration": 0.18987349999997605
                },
                {
                    "name": "A#3",
                    "midi": 58,
                    "time": 324.81026733332664,
                    "velocity": 0.4094488188976378,
                    "duration": 0.18987349999997605
                },
                {
                    "name": "A#3",
                    "midi": 58,
                    "time": 325.06343199999327,
                    "velocity": 0.4645669291338583,
                    "duration": 0.18987349999997605
                },
                {
                    "name": "A#3",
                    "midi": 58,
                    "time": 325.3165966666599,
                    "velocity": 0.3700787401574803,
                    "duration": 0.18987349999997605
                },
                {
                    "name": "A#3",
                    "midi": 58,
                    "time": 325.56976133332654,
                    "velocity": 0.3700787401574803,
                    "duration": 0.18987349999997605
                },
                {
                    "name": "A3",
                    "midi": 57,
                    "time": 325.8229259999932,
                    "velocity": 0.3464566929133858,
                    "duration": 0.18987349999997605
                },
                {
                    "name": "A#3",
                    "midi": 58,
                    "time": 325.8229259999932,
                    "velocity": 0.4094488188976378,
                    "duration": 0.18987349999997605
                },
                {
                    "name": "A#3",
                    "midi": 58,
                    "time": 326.0760906666598,
                    "velocity": 0.33858267716535434,
                    "duration": 0.18987349999997605
                },
                {
                    "name": "A3",
                    "midi": 57,
                    "time": 326.0760906666598,
                    "velocity": 0.28346456692913385,
                    "duration": 0.18987349999997605
                },
                {
                    "name": "A#3",
                    "midi": 58,
                    "time": 326.32925533332644,
                    "velocity": 0.33858267716535434,
                    "duration": 0.18987349999997605
                },
                {
                    "name": "A3",
                    "midi": 57,
                    "time": 326.32925533332644,
                    "velocity": 0.28346456692913385,
                    "duration": 0.18987349999997605
                },
                {
                    "name": "A#3",
                    "midi": 58,
                    "time": 326.5824199999931,
                    "velocity": 0.4251968503937008,
                    "duration": 0.18987349999997605
                },
                {
                    "name": "G#3",
                    "midi": 56,
                    "time": 326.5824199999931,
                    "velocity": 0.3543307086614173,
                    "duration": 0.18987349999997605
                },
                {
                    "name": "G#3",
                    "midi": 56,
                    "time": 326.8355846666597,
                    "velocity": 0.2992125984251969,
                    "duration": 0.18987349999997605
                },
                {
                    "name": "A#3",
                    "midi": 58,
                    "time": 326.8355846666597,
                    "velocity": 0.3543307086614173,
                    "duration": 0.18987349999997605
                },
                {
                    "name": "G#3",
                    "midi": 56,
                    "time": 327.08874933332635,
                    "velocity": 0.2992125984251969,
                    "duration": 0.18987349999997605
                },
                {
                    "name": "A#3",
                    "midi": 58,
                    "time": 327.08874933332635,
                    "velocity": 0.3543307086614173,
                    "duration": 0.18987349999997605
                },
                {
                    "name": "A#3",
                    "midi": 58,
                    "time": 327.341913999993,
                    "velocity": 0.41732283464566927,
                    "duration": 0.18987349999997605
                },
                {
                    "name": "G3",
                    "midi": 55,
                    "time": 327.341913999993,
                    "velocity": 0.3543307086614173,
                    "duration": 0.18987349999997605
                },
                {
                    "name": "A#3",
                    "midi": 58,
                    "time": 327.5950786666596,
                    "velocity": 0.33858267716535434,
                    "duration": 0.18987349999997605
                },
                {
                    "name": "G3",
                    "midi": 55,
                    "time": 327.5950786666596,
                    "velocity": 0.28346456692913385,
                    "duration": 0.18987349999997605
                },
                {
                    "name": "F3",
                    "midi": 53,
                    "time": 327.84824333332625,
                    "velocity": 0.29133858267716534,
                    "duration": 0.18987349999997605
                },
                {
                    "name": "A#3",
                    "midi": 58,
                    "time": 327.84824333332625,
                    "velocity": 0.3464566929133858,
                    "duration": 0.18987349999997605
                },
                {
                    "name": "G#3",
                    "midi": 56,
                    "time": 327.84824333332625,
                    "velocity": 0.29133858267716534,
                    "duration": 0.18987349999997605
                },
                {
                    "name": "D#3",
                    "midi": 51,
                    "time": 328.1014079999929,
                    "velocity": 0.3779527559055118,
                    "duration": 0.18987349999997605
                },
                {
                    "name": "A#3",
                    "midi": 58,
                    "time": 328.1014079999929,
                    "velocity": 0.44881889763779526,
                    "duration": 0.18987349999997605
                },
                {
                    "name": "G3",
                    "midi": 55,
                    "time": 328.1014079999929,
                    "velocity": 0.44881889763779526,
                    "duration": 0.18987349999997605
                },
                {
                    "name": "D#3",
                    "midi": 51,
                    "time": 328.3545726666595,
                    "velocity": 0.2992125984251969,
                    "duration": 0.18987349999997605
                },
                {
                    "name": "G3",
                    "midi": 55,
                    "time": 328.3545726666595,
                    "velocity": 0.3543307086614173,
                    "duration": 0.18987349999997605
                },
                {
                    "name": "A#3",
                    "midi": 58,
                    "time": 328.3545726666595,
                    "velocity": 0.3543307086614173,
                    "duration": 0.18987349999997605
                },
                {
                    "name": "D#3",
                    "midi": 51,
                    "time": 328.60773733332616,
                    "velocity": 0.2992125984251969,
                    "duration": 0.18987349999997605
                },
                {
                    "name": "A#3",
                    "midi": 58,
                    "time": 328.60773733332616,
                    "velocity": 0.3543307086614173,
                    "duration": 0.18987349999997605
                },
                {
                    "name": "G3",
                    "midi": 55,
                    "time": 328.60773733332616,
                    "velocity": 0.3543307086614173,
                    "duration": 0.18987349999997605
                },
                {
                    "name": "B2",
                    "midi": 47,
                    "time": 328.8609019999928,
                    "velocity": 0.3543307086614173,
                    "duration": 0.18987349999997605
                },
                {
                    "name": "F3",
                    "midi": 53,
                    "time": 328.8609019999928,
                    "velocity": 0.3543307086614173,
                    "duration": 0.18987349999997605
                },
                {
                    "name": "G#3",
                    "midi": 56,
                    "time": 328.8609019999928,
                    "velocity": 0.4251968503937008,
                    "duration": 0.18987349999997605
                },
                {
                    "name": "B2",
                    "midi": 47,
                    "time": 329.1140666666594,
                    "velocity": 0.2992125984251969,
                    "duration": 0.18987349999997605
                },
                {
                    "name": "F3",
                    "midi": 53,
                    "time": 329.1140666666594,
                    "velocity": 0.3543307086614173,
                    "duration": 0.18987349999997605
                },
                {
                    "name": "G#3",
                    "midi": 56,
                    "time": 329.1140666666594,
                    "velocity": 0.3543307086614173,
                    "duration": 0.18987349999997605
                },
                {
                    "name": "B2",
                    "midi": 47,
                    "time": 329.36723133332606,
                    "velocity": 0.2992125984251969,
                    "duration": 0.18987349999997605
                },
                {
                    "name": "F3",
                    "midi": 53,
                    "time": 329.36723133332606,
                    "velocity": 0.3543307086614173,
                    "duration": 0.18987349999997605
                },
                {
                    "name": "G#3",
                    "midi": 56,
                    "time": 329.36723133332606,
                    "velocity": 0.3543307086614173,
                    "duration": 0.18987349999997605
                },
                {
                    "name": "C3",
                    "midi": 48,
                    "time": 329.6203959999927,
                    "velocity": 0.36220472440944884,
                    "duration": 0.18987349999997605
                },
                {
                    "name": "G3",
                    "midi": 55,
                    "time": 329.6203959999927,
                    "velocity": 0.4330708661417323,
                    "duration": 0.18987349999997605
                },
                {
                    "name": "D#3",
                    "midi": 51,
                    "time": 329.6203959999927,
                    "velocity": 0.36220472440944884,
                    "duration": 0.18987349999997605
                },
                {
                    "name": "C3",
                    "midi": 48,
                    "time": 329.87356066665933,
                    "velocity": 0.28346456692913385,
                    "duration": 0.18987349999997605
                },
                {
                    "name": "D#3",
                    "midi": 51,
                    "time": 329.87356066665933,
                    "velocity": 0.28346456692913385,
                    "duration": 0.18987349999997605
                },
                {
                    "name": "G3",
                    "midi": 55,
                    "time": 329.87356066665933,
                    "velocity": 0.33858267716535434,
                    "duration": 0.18987349999997605
                },
                {
                    "name": "C3",
                    "midi": 48,
                    "time": 330.12672533332596,
                    "velocity": 0.28346456692913385,
                    "duration": 0.18987349999997605
                },
                {
                    "name": "D#3",
                    "midi": 51,
                    "time": 330.12672533332596,
                    "velocity": 0.28346456692913385,
                    "duration": 0.18987349999997605
                },
                {
                    "name": "G3",
                    "midi": 55,
                    "time": 330.12672533332596,
                    "velocity": 0.33858267716535434,
                    "duration": 0.18987349999997605
                },
                {
                    "name": "G#2",
                    "midi": 44,
                    "time": 330.3798899999926,
                    "velocity": 0.3464566929133858,
                    "duration": 0.18987349999997605
                },
                {
                    "name": "F3",
                    "midi": 53,
                    "time": 330.3798899999926,
                    "velocity": 0.4094488188976378,
                    "duration": 0.18987349999997605
                },
                {
                    "name": "F3",
                    "midi": 53,
                    "time": 330.63305466665923,
                    "velocity": 0.33858267716535434,
                    "duration": 0.18987349999997605
                },
                {
                    "name": "A#2",
                    "midi": 46,
                    "time": 330.63305466665923,
                    "velocity": 0.28346456692913385,
                    "duration": 0.18987349999997605
                },
                {
                    "name": "F3",
                    "midi": 53,
                    "time": 330.88621933332587,
                    "velocity": 0.33070866141732286,
                    "duration": 0.18987349999997605
                },
                {
                    "name": "G#2",
                    "midi": 44,
                    "time": 330.88621933332587,
                    "velocity": 0.2755905511811024,
                    "duration": 0.18987349999997605
                },
                {
                    "name": "G2",
                    "midi": 43,
                    "time": 331.1393839999925,
                    "velocity": 0.3700787401574803,
                    "duration": 0.18987349999997605
                },
                {
                    "name": "F3",
                    "midi": 53,
                    "time": 331.1393839999925,
                    "velocity": 0.4409448818897638,
                    "duration": 0.18987349999997605
                },
                {
                    "name": "G#2",
                    "midi": 44,
                    "time": 331.39254866665914,
                    "velocity": 0.31496062992125984,
                    "duration": 0.18987349999997605
                },
                {
                    "name": "F3",
                    "midi": 53,
                    "time": 331.39254866665914,
                    "velocity": 0.3700787401574803,
                    "duration": 0.18987349999997605
                },
                {
                    "name": "G2",
                    "midi": 43,
                    "time": 331.6457133333258,
                    "velocity": 0.31496062992125984,
                    "duration": 0.18987349999997605
                },
                {
                    "name": "F3",
                    "midi": 53,
                    "time": 331.6457133333258,
                    "velocity": 0.3779527559055118,
                    "duration": 0.18987349999997605
                },
                {
                    "name": "G2",
                    "midi": 43,
                    "time": 331.8988779999924,
                    "velocity": 0.4566929133858268,
                    "duration": 0.18987349999997605
                },
                {
                    "name": "F2",
                    "midi": 41,
                    "time": 331.8988779999924,
                    "velocity": 0.3779527559055118,
                    "duration": 0.18987349999997605
                },
                {
                    "name": "G2",
                    "midi": 43,
                    "time": 332.15204266665904,
                    "velocity": 0.3700787401574803,
                    "duration": 0.18987349999997605
                },
                {
                    "name": "G2",
                    "midi": 43,
                    "time": 332.4052073333257,
                    "velocity": 0.3700787401574803,
                    "duration": 0.18987349999997605
                },
                {
                    "name": "F2",
                    "midi": 41,
                    "time": 332.4052073333257,
                    "velocity": 0.30708661417322836,
                    "duration": 0.18987349999997605
                },
                {
                    "name": "D#2",
                    "midi": 39,
                    "time": 332.6583719999923,
                    "velocity": 0.4015748031496063,
                    "duration": 0.18987349999997605
                },
                {
                    "name": "G2",
                    "midi": 43,
                    "time": 332.6583719999923,
                    "velocity": 0.48031496062992124,
                    "duration": 0.18987349999997605
                },
                {
                    "name": "F2",
                    "midi": 41,
                    "time": 332.91153666665895,
                    "velocity": 0.3228346456692913,
                    "duration": 0.18987349999997605
                },
                {
                    "name": "G2",
                    "midi": 43,
                    "time": 332.91153666665895,
                    "velocity": 0.3858267716535433,
                    "duration": 0.18987349999997605
                },
                {
                    "name": "G2",
                    "midi": 43,
                    "time": 333.1647013333256,
                    "velocity": 0.3858267716535433,
                    "duration": 0.18987349999997605
                },
                {
                    "name": "D#2",
                    "midi": 39,
                    "time": 333.1647013333256,
                    "velocity": 0.3228346456692913,
                    "duration": 0.18987349999997605
                },
                {
                    "name": "G1",
                    "midi": 31,
                    "time": 333.4178659999922,
                    "velocity": 0.4330708661417323,
                    "duration": 0.18987349999997605
                },
                {
                    "name": "G2",
                    "midi": 43,
                    "time": 333.4178659999922,
                    "velocity": 0.5196850393700787,
                    "duration": 0.18987349999997605
                },
                {
                    "name": "G2",
                    "midi": 43,
                    "time": 333.67103066665885,
                    "velocity": 0.3937007874015748,
                    "duration": 0.18987349999997605
                },
                {
                    "name": "G#1",
                    "midi": 32,
                    "time": 333.67103066665885,
                    "velocity": 0.33070866141732286,
                    "duration": 0.18987349999997605
                },
                {
                    "name": "G2",
                    "midi": 43,
                    "time": 333.9241953333255,
                    "velocity": 0.4015748031496063,
                    "duration": 0.18987349999997605
                },
                {
                    "name": "G1",
                    "midi": 31,
                    "time": 333.9241953333255,
                    "velocity": 0.33070866141732286,
                    "duration": 0.18987349999997605
                },
                {
                    "name": "C2",
                    "midi": 36,
                    "time": 334.1773599999921,
                    "velocity": 0.41732283464566927,
                    "duration": 0.2531646666666916
                },
                {
                    "name": "G2",
                    "midi": 43,
                    "time": 334.1773599999921,
                    "velocity": 0.41732283464566927,
                    "duration": 0.2531646666666916
                },
                {
                    "name": "C3",
                    "midi": 48,
                    "time": 334.1773599999921,
                    "velocity": 0.49606299212598426,
                    "duration": 0.2531646666666916
                },
                {
                    "name": "D3",
                    "midi": 50,
                    "time": 334.4305246666588,
                    "velocity": 0.47244094488188976,
                    "duration": 0.2531646666666916
                },
                {
                    "name": "C3",
                    "midi": 48,
                    "time": 334.6836893333255,
                    "velocity": 0.47244094488188976,
                    "duration": 0.2531646666666916
                },
                {
                    "name": "A#2",
                    "midi": 46,
                    "time": 334.9368539999922,
                    "velocity": 0.5354330708661418,
                    "duration": 0.2531646666666916
                },
                {
                    "name": "C3",
                    "midi": 48,
                    "time": 335.1900186666589,
                    "velocity": 0.4881889763779528,
                    "duration": 0.2531646666666916
                },
                {
                    "name": "A#2",
                    "midi": 46,
                    "time": 335.4431833333256,
                    "velocity": 0.4881889763779528,
                    "duration": 0.2531646666666916
                },
                {
                    "name": "G#2",
                    "midi": 44,
                    "time": 335.69634799999227,
                    "velocity": 0.5748031496062992,
                    "duration": 0.22784819999998263
                },
                {
                    "name": "C3",
                    "midi": 48,
                    "time": 335.69634799999227,
                    "velocity": 0.4881889763779528,
                    "duration": 0.22784819999998263
                },
                {
                    "name": "A#2",
                    "midi": 46,
                    "time": 335.9495126666589,
                    "velocity": 0.49606299212598426,
                    "duration": 0.22784819999998263
                },
                {
                    "name": "C3",
                    "midi": 48,
                    "time": 335.9495126666589,
                    "velocity": 0.41732283464566927,
                    "duration": 0.22784819999998263
                },
                {
                    "name": "G#2",
                    "midi": 44,
                    "time": 336.20267733332554,
                    "velocity": 0.5039370078740157,
                    "duration": 0.22784819999998263
                },
                {
                    "name": "C3",
                    "midi": 48,
                    "time": 336.20267733332554,
                    "velocity": 0.4251968503937008,
                    "duration": 0.22784819999998263
                },
                {
                    "name": "G2",
                    "midi": 43,
                    "time": 336.4558419999922,
                    "velocity": 0.6141732283464567,
                    "duration": 0.22784819999998263
                },
                {
                    "name": "C3",
                    "midi": 48,
                    "time": 336.4558419999922,
                    "velocity": 0.5118110236220472,
                    "duration": 0.22784819999998263
                },
                {
                    "name": "G#2",
                    "midi": 44,
                    "time": 336.7090066666588,
                    "velocity": 0.5118110236220472,
                    "duration": 0.22784819999998263
                },
                {
                    "name": "C3",
                    "midi": 48,
                    "time": 336.7090066666588,
                    "velocity": 0.4330708661417323,
                    "duration": 0.22784819999998263
                },
                {
                    "name": "G2",
                    "midi": 43,
                    "time": 336.96217133332544,
                    "velocity": 0.5118110236220472,
                    "duration": 0.22784819999998263
                },
                {
                    "name": "C3",
                    "midi": 48,
                    "time": 336.96217133332544,
                    "velocity": 0.4330708661417323,
                    "duration": 0.22784819999998263
                },
                {
                    "name": "F2",
                    "midi": 41,
                    "time": 337.2153359999921,
                    "velocity": 0.6220472440944882,
                    "duration": 0.2531646666666916
                },
                {
                    "name": "C3",
                    "midi": 48,
                    "time": 337.2153359999921,
                    "velocity": 0.5196850393700787,
                    "duration": 0.2531646666666916
                },
                {
                    "name": "G2",
                    "midi": 43,
                    "time": 337.46850066665877,
                    "velocity": 0.5118110236220472,
                    "duration": 0.2531646666666916
                },
                {
                    "name": "C3",
                    "midi": 48,
                    "time": 337.46850066665877,
                    "velocity": 0.4330708661417323,
                    "duration": 0.2531646666666916
                },
                {
                    "name": "F2",
                    "midi": 41,
                    "time": 337.72166533332546,
                    "velocity": 0.5118110236220472,
                    "duration": 0.2531646666666916
                },
                {
                    "name": "C3",
                    "midi": 48,
                    "time": 337.72166533332546,
                    "velocity": 0.4330708661417323,
                    "duration": 0.2531646666666916
                },
                {
                    "name": "G#2",
                    "midi": 44,
                    "time": 337.97482999999215,
                    "velocity": 0.6141732283464567,
                    "duration": 0.2531646666666916
                },
                {
                    "name": "C3",
                    "midi": 48,
                    "time": 337.97482999999215,
                    "velocity": 0.5118110236220472,
                    "duration": 0.2531646666666916
                },
                {
                    "name": "A#2",
                    "midi": 46,
                    "time": 338.22799466665884,
                    "velocity": 0.5118110236220472,
                    "duration": 0.2531646666666916
                },
                {
                    "name": "C3",
                    "midi": 48,
                    "time": 338.22799466665884,
                    "velocity": 0.4330708661417323,
                    "duration": 0.2531646666666916
                },
                {
                    "name": "G#2",
                    "midi": 44,
                    "time": 338.48115933332554,
                    "velocity": 0.5118110236220472,
                    "duration": 0.2531646666666916
                },
                {
                    "name": "C3",
                    "midi": 48,
                    "time": 338.48115933332554,
                    "velocity": 0.4330708661417323,
                    "duration": 0.2531646666666916
                },
                {
                    "name": "G2",
                    "midi": 43,
                    "time": 338.7343239999922,
                    "velocity": 0.5748031496062992,
                    "duration": 0.22784819999998263
                },
                {
                    "name": "C3",
                    "midi": 48,
                    "time": 338.7343239999922,
                    "velocity": 0.4881889763779528,
                    "duration": 0.22784819999998263
                },
                {
                    "name": "G#2",
                    "midi": 44,
                    "time": 338.98748866665886,
                    "velocity": 0.5118110236220472,
                    "duration": 0.22784819999998263
                },
                {
                    "name": "C3",
                    "midi": 48,
                    "time": 338.98748866665886,
                    "velocity": 0.4330708661417323,
                    "duration": 0.22784819999998263
                },
                {
                    "name": "G2",
                    "midi": 43,
                    "time": 339.2406533333255,
                    "velocity": 0.5118110236220472,
                    "duration": 0.22784819999998263
                },
                {
                    "name": "C3",
                    "midi": 48,
                    "time": 339.2406533333255,
                    "velocity": 0.4330708661417323,
                    "duration": 0.22784819999998263
                },
                {
                    "name": "F2",
                    "midi": 41,
                    "time": 339.49381799999213,
                    "velocity": 0.5826771653543307,
                    "duration": 0.22784819999998263
                },
                {
                    "name": "C3",
                    "midi": 48,
                    "time": 339.49381799999213,
                    "velocity": 0.49606299212598426,
                    "duration": 0.22784819999998263
                },
                {
                    "name": "G2",
                    "midi": 43,
                    "time": 339.74698266665877,
                    "velocity": 0.5118110236220472,
                    "duration": 0.22784819999998263
                },
                {
                    "name": "C3",
                    "midi": 48,
                    "time": 339.74698266665877,
                    "velocity": 0.4330708661417323,
                    "duration": 0.22784819999998263
                },
                {
                    "name": "F2",
                    "midi": 41,
                    "time": 340.0001473333254,
                    "velocity": 0.5118110236220472,
                    "duration": 0.22784819999998263
                },
                {
                    "name": "C3",
                    "midi": 48,
                    "time": 340.0001473333254,
                    "velocity": 0.4330708661417323,
                    "duration": 0.22784819999998263
                },
                {
                    "name": "D#2",
                    "midi": 39,
                    "time": 340.25331199999204,
                    "velocity": 0.6220472440944882,
                    "duration": 0.22784819999998263
                },
                {
                    "name": "C3",
                    "midi": 48,
                    "time": 340.25331199999204,
                    "velocity": 0.5196850393700787,
                    "duration": 0.22784819999998263
                },
                {
                    "name": "F2",
                    "midi": 41,
                    "time": 340.50647666665867,
                    "velocity": 0.5118110236220472,
                    "duration": 0.22784819999998263
                },
                {
                    "name": "C3",
                    "midi": 48,
                    "time": 340.50647666665867,
                    "velocity": 0.4330708661417323,
                    "duration": 0.22784819999998263
                },
                {
                    "name": "D#2",
                    "midi": 39,
                    "time": 340.7596413333253,
                    "velocity": 0.5118110236220472,
                    "duration": 0.22784819999998263
                },
                {
                    "name": "C3",
                    "midi": 48,
                    "time": 340.7596413333253,
                    "velocity": 0.4330708661417323,
                    "duration": 0.22784819999998263
                },
                {
                    "name": "G2",
                    "midi": 43,
                    "time": 341.01280599999194,
                    "velocity": 0.6062992125984252,
                    "duration": 0.22784819999998263
                },
                {
                    "name": "C3",
                    "midi": 48,
                    "time": 341.01280599999194,
                    "velocity": 0.5039370078740157,
                    "duration": 0.22784819999998263
                },
                {
                    "name": "G#2",
                    "midi": 44,
                    "time": 341.2659706666586,
                    "velocity": 0.5118110236220472,
                    "duration": 0.22784819999998263
                },
                {
                    "name": "C3",
                    "midi": 48,
                    "time": 341.2659706666586,
                    "velocity": 0.4330708661417323,
                    "duration": 0.22784819999998263
                },
                {
                    "name": "G2",
                    "midi": 43,
                    "time": 341.5191353333252,
                    "velocity": 0.5118110236220472,
                    "duration": 0.22784819999998263
                },
                {
                    "name": "C3",
                    "midi": 48,
                    "time": 341.5191353333252,
                    "velocity": 0.4330708661417323,
                    "duration": 0.22784819999998263
                },
                {
                    "name": "F2",
                    "midi": 41,
                    "time": 341.77229999999184,
                    "velocity": 0.5905511811023622,
                    "duration": 0.22784819999998263
                },
                {
                    "name": "C3",
                    "midi": 48,
                    "time": 341.77229999999184,
                    "velocity": 0.5039370078740157,
                    "duration": 0.22784819999998263
                },
                {
                    "name": "G2",
                    "midi": 43,
                    "time": 342.0254646666585,
                    "velocity": 0.5118110236220472,
                    "duration": 0.22784819999998263
                },
                {
                    "name": "C3",
                    "midi": 48,
                    "time": 342.0254646666585,
                    "velocity": 0.4330708661417323,
                    "duration": 0.22784819999998263
                },
                {
                    "name": "F2",
                    "midi": 41,
                    "time": 342.2786293333251,
                    "velocity": 0.5118110236220472,
                    "duration": 0.22784819999998263
                },
                {
                    "name": "C3",
                    "midi": 48,
                    "time": 342.2786293333251,
                    "velocity": 0.4330708661417323,
                    "duration": 0.22784819999998263
                },
                {
                    "name": "D#2",
                    "midi": 39,
                    "time": 342.53179399999175,
                    "velocity": 0.5826771653543307,
                    "duration": 0.22784819999998263
                },
                {
                    "name": "C3",
                    "midi": 48,
                    "time": 342.53179399999175,
                    "velocity": 0.49606299212598426,
                    "duration": 0.22784819999998263
                },
                {
                    "name": "F2",
                    "midi": 41,
                    "time": 342.7849586666584,
                    "velocity": 0.5196850393700787,
                    "duration": 0.22784819999998263
                },
                {
                    "name": "C3",
                    "midi": 48,
                    "time": 342.7849586666584,
                    "velocity": 0.4409448818897638,
                    "duration": 0.22784819999998263
                },
                {
                    "name": "D#2",
                    "midi": 39,
                    "time": 343.038123333325,
                    "velocity": 0.5196850393700787,
                    "duration": 0.22784819999998263
                },
                {
                    "name": "C3",
                    "midi": 48,
                    "time": 343.038123333325,
                    "velocity": 0.4409448818897638,
                    "duration": 0.22784819999998263
                },
                {
                    "name": "C#2",
                    "midi": 37,
                    "time": 343.29128799999165,
                    "velocity": 0.5905511811023622,
                    "duration": 0.22784819999998263
                },
                {
                    "name": "G#2",
                    "midi": 44,
                    "time": 343.29128799999165,
                    "velocity": 0.5039370078740157,
                    "duration": 0.22784819999998263
                },
                {
                    "name": "D#2",
                    "midi": 39,
                    "time": 343.5444526666583,
                    "velocity": 0.5039370078740157,
                    "duration": 0.22784819999998263
                },
                {
                    "name": "G#2",
                    "midi": 44,
                    "time": 343.5444526666583,
                    "velocity": 0.4251968503937008,
                    "duration": 0.22784819999998263
                },
                {
                    "name": "C2",
                    "midi": 36,
                    "time": 343.7976173333249,
                    "velocity": 0.5039370078740157,
                    "duration": 0.22784819999998263
                },
                {
                    "name": "G#2",
                    "midi": 44,
                    "time": 343.7976173333249,
                    "velocity": 0.4251968503937008,
                    "duration": 0.22784819999998263
                },
                {
                    "name": "C#2",
                    "midi": 37,
                    "time": 344.05078199999156,
                    "velocity": 0.5669291338582677,
                    "duration": 0.22784819999998263
                },
                {
                    "name": "G#2",
                    "midi": 44,
                    "time": 344.05078199999156,
                    "velocity": 0.47244094488188976,
                    "duration": 0.22784819999998263
                },
                {
                    "name": "D#2",
                    "midi": 39,
                    "time": 344.3039466666582,
                    "velocity": 0.49606299212598426,
                    "duration": 0.22784819999998263
                },
                {
                    "name": "G#2",
                    "midi": 44,
                    "time": 344.3039466666582,
                    "velocity": 0.4094488188976378,
                    "duration": 0.22784819999998263
                },
                {
                    "name": "F2",
                    "midi": 41,
                    "time": 344.5571113333248,
                    "velocity": 0.49606299212598426,
                    "duration": 0.22784819999998263
                },
                {
                    "name": "G#2",
                    "midi": 44,
                    "time": 344.5571113333248,
                    "velocity": 0.4094488188976378,
                    "duration": 0.22784819999998263
                },
                {
                    "name": "G1",
                    "midi": 31,
                    "time": 344.81027599999146,
                    "velocity": 0.4881889763779528,
                    "duration": 0.22784819999998263
                },
                {
                    "name": "G2",
                    "midi": 43,
                    "time": 344.81027599999146,
                    "velocity": 0.5748031496062992,
                    "duration": 0.22784819999998263
                },
                {
                    "name": "G2",
                    "midi": 43,
                    "time": 345.0634406666581,
                    "velocity": 0.5118110236220472,
                    "duration": 0.22784819999998263
                },
                {
                    "name": "G2",
                    "midi": 43,
                    "time": 345.31660533332473,
                    "velocity": 0.47244094488188976,
                    "duration": 0.22784819999998263
                },
                {
                    "name": "G1",
                    "midi": 31,
                    "time": 345.56976999999137,
                    "velocity": 0.4645669291338583,
                    "duration": 0.22784819999998263
                },
                {
                    "name": "G2",
                    "midi": 43,
                    "time": 345.56976999999137,
                    "velocity": 0.5590551181102362,
                    "duration": 0.22784819999998263
                },
                {
                    "name": "G2",
                    "midi": 43,
                    "time": 345.822934666658,
                    "velocity": 0.49606299212598426,
                    "duration": 0.22784819999998263
                },
                {
                    "name": "G2",
                    "midi": 43,
                    "time": 346.07609933332463,
                    "velocity": 0.49606299212598426,
                    "duration": 0.22784819999998263
                },
                {
                    "name": "C2",
                    "midi": 36,
                    "time": 346.32926399999127,
                    "velocity": 0.41732283464566927,
                    "duration": 0.2531646666666916
                },
                {
                    "name": "G2",
                    "midi": 43,
                    "time": 346.32926399999127,
                    "velocity": 0.41732283464566927,
                    "duration": 0.2531646666666916
                },
                {
                    "name": "C3",
                    "midi": 48,
                    "time": 346.32926399999127,
                    "velocity": 0.49606299212598426,
                    "duration": 0.2531646666666916
                },
                {
                    "name": "D#3",
                    "midi": 51,
                    "time": 346.58242866665796,
                    "velocity": 0.47244094488188976,
                    "duration": 0.2531646666666916
                },
                {
                    "name": "D3",
                    "midi": 50,
                    "time": 346.83559333332465,
                    "velocity": 0.47244094488188976,
                    "duration": 0.2531646666666916
                },
                {
                    "name": "C3",
                    "midi": 48,
                    "time": 347.08875799999134,
                    "velocity": 0.5354330708661418,
                    "duration": 0.2531646666666916
                },
                {
                    "name": "D3",
                    "midi": 50,
                    "time": 347.34192266665804,
                    "velocity": 0.4881889763779528,
                    "duration": 0.2531646666666916
                },
                {
                    "name": "C3",
                    "midi": 48,
                    "time": 347.5950873333247,
                    "velocity": 0.4881889763779528,
                    "duration": 0.2531646666666916
                },
                {
                    "name": "B2",
                    "midi": 47,
                    "time": 347.8482519999914,
                    "velocity": 0.5748031496062992,
                    "duration": 0.2531646666666916
                },
                {
                    "name": "C3",
                    "midi": 48,
                    "time": 348.1014166666581,
                    "velocity": 0.49606299212598426,
                    "duration": 0.2531646666666916
                },
                {
                    "name": "B2",
                    "midi": 47,
                    "time": 348.3545813333248,
                    "velocity": 0.5039370078740157,
                    "duration": 0.2531646666666916
                },
                {
                    "name": "A#2",
                    "midi": 46,
                    "time": 348.6077459999915,
                    "velocity": 0.6141732283464567,
                    "duration": 0.2531646666666916
                },
                {
                    "name": "C3",
                    "midi": 48,
                    "time": 348.8609106666582,
                    "velocity": 0.5118110236220472,
                    "duration": 0.2531646666666916
                },
                {
                    "name": "A#2",
                    "midi": 46,
                    "time": 349.1140753333249,
                    "velocity": 0.5118110236220472,
                    "duration": 0.2531646666666916
                },
                {
                    "name": "A2",
                    "midi": 45,
                    "time": 349.36723999999157,
                    "velocity": 0.6220472440944882,
                    "duration": 0.22784819999998263
                },
                {
                    "name": "C3",
                    "midi": 48,
                    "time": 349.36723999999157,
                    "velocity": 0.5196850393700787,
                    "duration": 0.22784819999998263
                },
                {
                    "name": "A#2",
                    "midi": 46,
                    "time": 349.6204046666582,
                    "velocity": 0.5118110236220472,
                    "duration": 0.22784819999998263
                },
                {
                    "name": "C3",
                    "midi": 48,
                    "time": 349.6204046666582,
                    "velocity": 0.4330708661417323,
                    "duration": 0.22784819999998263
                },
                {
                    "name": "A2",
                    "midi": 45,
                    "time": 349.87356933332484,
                    "velocity": 0.5118110236220472,
                    "duration": 0.22784819999998263
                },
                {
                    "name": "C3",
                    "midi": 48,
                    "time": 349.87356933332484,
                    "velocity": 0.4330708661417323,
                    "duration": 0.22784819999998263
                },
                {
                    "name": "G#2",
                    "midi": 44,
                    "time": 350.1267339999915,
                    "velocity": 0.6141732283464567,
                    "duration": 0.22784819999998263
                },
                {
                    "name": "C3",
                    "midi": 48,
                    "time": 350.1267339999915,
                    "velocity": 0.5118110236220472,
                    "duration": 0.22784819999998263
                },
                {
                    "name": "A#2",
                    "midi": 46,
                    "time": 350.3798986666581,
                    "velocity": 0.5118110236220472,
                    "duration": 0.22784819999998263
                },
                {
                    "name": "C3",
                    "midi": 48,
                    "time": 350.3798986666581,
                    "velocity": 0.4330708661417323,
                    "duration": 0.22784819999998263
                },
                {
                    "name": "G#2",
                    "midi": 44,
                    "time": 350.63306333332474,
                    "velocity": 0.5118110236220472,
                    "duration": 0.22784819999998263
                },
                {
                    "name": "C3",
                    "midi": 48,
                    "time": 350.63306333332474,
                    "velocity": 0.4330708661417323,
                    "duration": 0.22784819999998263
                },
                {
                    "name": "G2",
                    "midi": 43,
                    "time": 350.8862279999914,
                    "velocity": 0.5748031496062992,
                    "duration": 0.22784819999998263
                },
                {
                    "name": "C3",
                    "midi": 48,
                    "time": 350.8862279999914,
                    "velocity": 0.4881889763779528,
                    "duration": 0.22784819999998263
                },
                {
                    "name": "G#2",
                    "midi": 44,
                    "time": 351.139392666658,
                    "velocity": 0.5118110236220472,
                    "duration": 0.22784819999998263
                },
                {
                    "name": "C3",
                    "midi": 48,
                    "time": 351.139392666658,
                    "velocity": 0.4330708661417323,
                    "duration": 0.22784819999998263
                },
                {
                    "name": "G2",
                    "midi": 43,
                    "time": 351.39255733332465,
                    "velocity": 0.5118110236220472,
                    "duration": 0.22784819999998263
                },
                {
                    "name": "C3",
                    "midi": 48,
                    "time": 351.39255733332465,
                    "velocity": 0.4330708661417323,
                    "duration": 0.22784819999998263
                },
                {
                    "name": "F2",
                    "midi": 41,
                    "time": 351.6457219999913,
                    "velocity": 0.5826771653543307,
                    "duration": 0.22784819999998263
                },
                {
                    "name": "C3",
                    "midi": 48,
                    "time": 351.6457219999913,
                    "velocity": 0.49606299212598426,
                    "duration": 0.22784819999998263
                },
                {
                    "name": "G2",
                    "midi": 43,
                    "time": 351.8988866666579,
                    "velocity": 0.5118110236220472,
                    "duration": 0.22784819999998263
                },
                {
                    "name": "C3",
                    "midi": 48,
                    "time": 351.8988866666579,
                    "velocity": 0.4330708661417323,
                    "duration": 0.22784819999998263
                },
                {
                    "name": "F2",
                    "midi": 41,
                    "time": 352.15205133332455,
                    "velocity": 0.5118110236220472,
                    "duration": 0.22784819999998263
                },
                {
                    "name": "C3",
                    "midi": 48,
                    "time": 352.15205133332455,
                    "velocity": 0.4330708661417323,
                    "duration": 0.22784819999998263
                },
                {
                    "name": "E2",
                    "midi": 40,
                    "time": 352.4052159999912,
                    "velocity": 0.6220472440944882,
                    "duration": 0.22784819999998263
                },
                {
                    "name": "C3",
                    "midi": 48,
                    "time": 352.4052159999912,
                    "velocity": 0.5196850393700787,
                    "duration": 0.22784819999998263
                },
                {
                    "name": "F2",
                    "midi": 41,
                    "time": 352.6583806666578,
                    "velocity": 0.5118110236220472,
                    "duration": 0.22784819999998263
                },
                {
                    "name": "C3",
                    "midi": 48,
                    "time": 352.6583806666578,
                    "velocity": 0.4330708661417323,
                    "duration": 0.22784819999998263
                },
                {
                    "name": "E2",
                    "midi": 40,
                    "time": 352.91154533332445,
                    "velocity": 0.5118110236220472,
                    "duration": 0.22784819999998263
                },
                {
                    "name": "C3",
                    "midi": 48,
                    "time": 352.91154533332445,
                    "velocity": 0.4330708661417323,
                    "duration": 0.22784819999998263
                },
                {
                    "name": "D#2",
                    "midi": 39,
                    "time": 353.1647099999911,
                    "velocity": 0.6062992125984252,
                    "duration": 0.22784819999998263
                },
                {
                    "name": "C3",
                    "midi": 48,
                    "time": 353.1647099999911,
                    "velocity": 0.5039370078740157,
                    "duration": 0.22784819999998263
                },
                {
                    "name": "F2",
                    "midi": 41,
                    "time": 353.4178746666577,
                    "velocity": 0.5118110236220472,
                    "duration": 0.22784819999998263
                },
                {
                    "name": "C3",
                    "midi": 48,
                    "time": 353.4178746666577,
                    "velocity": 0.4330708661417323,
                    "duration": 0.22784819999998263
                },
                {
                    "name": "D#2",
                    "midi": 39,
                    "time": 353.67103933332436,
                    "velocity": 0.5118110236220472,
                    "duration": 0.22784819999998263
                },
                {
                    "name": "C3",
                    "midi": 48,
                    "time": 353.67103933332436,
                    "velocity": 0.4330708661417323,
                    "duration": 0.22784819999998263
                },
                {
                    "name": "D2",
                    "midi": 38,
                    "time": 353.924203999991,
                    "velocity": 0.5905511811023622,
                    "duration": 0.22784819999998263
                },
                {
                    "name": "C3",
                    "midi": 48,
                    "time": 353.924203999991,
                    "velocity": 0.5039370078740157,
                    "duration": 0.22784819999998263
                },
                {
                    "name": "D#2",
                    "midi": 39,
                    "time": 354.1773686666576,
                    "velocity": 0.5118110236220472,
                    "duration": 0.22784819999998263
                },
                {
                    "name": "C3",
                    "midi": 48,
                    "time": 354.1773686666576,
                    "velocity": 0.4330708661417323,
                    "duration": 0.22784819999998263
                },
                {
                    "name": "D2",
                    "midi": 38,
                    "time": 354.43053333332426,
                    "velocity": 0.5118110236220472,
                    "duration": 0.22784819999998263
                },
                {
                    "name": "C3",
                    "midi": 48,
                    "time": 354.43053333332426,
                    "velocity": 0.4330708661417323,
                    "duration": 0.22784819999998263
                },
                {
                    "name": "C2",
                    "midi": 36,
                    "time": 354.6836979999909,
                    "velocity": 0.5826771653543307,
                    "duration": 0.22784819999998263
                },
                {
                    "name": "C3",
                    "midi": 48,
                    "time": 354.6836979999909,
                    "velocity": 0.49606299212598426,
                    "duration": 0.22784819999998263
                },
                {
                    "name": "D2",
                    "midi": 38,
                    "time": 354.93686266665753,
                    "velocity": 0.5196850393700787,
                    "duration": 0.22784819999998263
                },
                {
                    "name": "C3",
                    "midi": 48,
                    "time": 354.93686266665753,
                    "velocity": 0.4409448818897638,
                    "duration": 0.22784819999998263
                },
                {
                    "name": "D#2",
                    "midi": 39,
                    "time": 355.19002733332417,
                    "velocity": 0.5196850393700787,
                    "duration": 0.22784819999998263
                },
                {
                    "name": "C3",
                    "midi": 48,
                    "time": 355.19002733332417,
                    "velocity": 0.4409448818897638,
                    "duration": 0.22784819999998263
                },
                {
                    "name": "F2",
                    "midi": 41,
                    "time": 355.4431919999908,
                    "velocity": 0.5905511811023622,
                    "duration": 0.22784819999998263
                },
                {
                    "name": "G#2",
                    "midi": 44,
                    "time": 355.4431919999908,
                    "velocity": 0.5039370078740157,
                    "duration": 0.22784819999998263
                },
                {
                    "name": "D#2",
                    "midi": 39,
                    "time": 355.69635666665744,
                    "velocity": 0.5039370078740157,
                    "duration": 0.22784819999998263
                },
                {
                    "name": "G#2",
                    "midi": 44,
                    "time": 355.69635666665744,
                    "velocity": 0.4251968503937008,
                    "duration": 0.22784819999998263
                },
                {
                    "name": "C#2",
                    "midi": 37,
                    "time": 355.94952133332407,
                    "velocity": 0.5039370078740157,
                    "duration": 0.21360768749997305
                },
                {
                    "name": "G#2",
                    "midi": 44,
                    "time": 355.94952133332407,
                    "velocity": 0.4251968503937008,
                    "duration": 0.21360768749997305
                },
                {
                    "name": "C#2",
                    "midi": 37,
                    "time": 356.2026859999907,
                    "velocity": 0.5669291338582677,
                    "duration": 0.22784819999998263
                },
                {
                    "name": "G#2",
                    "midi": 44,
                    "time": 356.2026859999907,
                    "velocity": 0.47244094488188976,
                    "duration": 0.22784819999998263
                },
                {
                    "name": "D#2",
                    "midi": 39,
                    "time": 356.45585066665734,
                    "velocity": 0.49606299212598426,
                    "duration": 0.22784819999998263
                },
                {
                    "name": "G#2",
                    "midi": 44,
                    "time": 356.45585066665734,
                    "velocity": 0.4094488188976378,
                    "duration": 0.22784819999998263
                },
                {
                    "name": "F2",
                    "midi": 41,
                    "time": 356.709015333324,
                    "velocity": 0.49606299212598426,
                    "duration": 0.22784819999998263
                },
                {
                    "name": "G#2",
                    "midi": 44,
                    "time": 356.709015333324,
                    "velocity": 0.4094488188976378,
                    "duration": 0.22784819999998263
                },
                {
                    "name": "G1",
                    "midi": 31,
                    "time": 356.9621799999906,
                    "velocity": 0.4881889763779528,
                    "duration": 0.22784819999998263
                },
                {
                    "name": "G2",
                    "midi": 43,
                    "time": 356.9621799999906,
                    "velocity": 0.5748031496062992,
                    "duration": 0.22784819999998263
                },
                {
                    "name": "G2",
                    "midi": 43,
                    "time": 357.21534466665724,
                    "velocity": 0.5118110236220472,
                    "duration": 0.22784819999998263
                },
                {
                    "name": "G2",
                    "midi": 43,
                    "time": 357.4685093333239,
                    "velocity": 0.47244094488188976,
                    "duration": 0.22784819999998263
                },
                {
                    "name": "G1",
                    "midi": 31,
                    "time": 357.7216739999905,
                    "velocity": 0.4645669291338583,
                    "duration": 0.22784819999998263
                },
                {
                    "name": "G2",
                    "midi": 43,
                    "time": 357.7216739999905,
                    "velocity": 0.5590551181102362,
                    "duration": 0.22784819999998263
                },
                {
                    "name": "G2",
                    "midi": 43,
                    "time": 357.97483866665715,
                    "velocity": 0.49606299212598426,
                    "duration": 0.22784819999998263
                },
                {
                    "name": "G2",
                    "midi": 43,
                    "time": 358.2280033333238,
                    "velocity": 0.49606299212598426,
                    "duration": 0.22784819999998263
                },
                {
                    "name": "C2",
                    "midi": 36,
                    "time": 358.4811679999904,
                    "velocity": 0.5826771653543307,
                    "duration": 0.18987349999997605
                },
                {
                    "name": "C3",
                    "midi": 48,
                    "time": 358.4811679999904,
                    "velocity": 0.4881889763779528,
                    "duration": 0.18987349999997605
                },
                {
                    "name": "C2",
                    "midi": 36,
                    "time": 358.73433266665705,
                    "velocity": 0.5275590551181102,
                    "duration": 0.18987349999997605
                },
                {
                    "name": "C3",
                    "midi": 48,
                    "time": 358.73433266665705,
                    "velocity": 0.4409448818897638,
                    "duration": 0.18987349999997605
                },
                {
                    "name": "C2",
                    "midi": 36,
                    "time": 358.9874973333237,
                    "velocity": 0.5275590551181102,
                    "duration": 0.18987349999997605
                },
                {
                    "name": "C3",
                    "midi": 48,
                    "time": 358.9874973333237,
                    "velocity": 0.4409448818897638,
                    "duration": 0.18987349999997605
                },
                {
                    "name": "D2",
                    "midi": 38,
                    "time": 359.2406619999903,
                    "velocity": 0.5826771653543307,
                    "duration": 0.18987349999997605
                },
                {
                    "name": "C3",
                    "midi": 48,
                    "time": 359.2406619999903,
                    "velocity": 0.4881889763779528,
                    "duration": 0.18987349999997605
                },
                {
                    "name": "D2",
                    "midi": 38,
                    "time": 359.49382666665696,
                    "velocity": 0.5433070866141733,
                    "duration": 0.18987349999997605
                },
                {
                    "name": "C3",
                    "midi": 48,
                    "time": 359.49382666665696,
                    "velocity": 0.4566929133858268,
                    "duration": 0.18987349999997605
                },
                {
                    "name": "D2",
                    "midi": 38,
                    "time": 359.7469913333236,
                    "velocity": 0.5118110236220472,
                    "duration": 0.18987349999997605
                },
                {
                    "name": "C3",
                    "midi": 48,
                    "time": 359.7469913333236,
                    "velocity": 0.4330708661417323,
                    "duration": 0.18987349999997605
                },
                {
                    "name": "D#2",
                    "midi": 39,
                    "time": 360.0001559999902,
                    "velocity": 0.5826771653543307,
                    "duration": 0.18987349999997605
                },
                {
                    "name": "C3",
                    "midi": 48,
                    "time": 360.0001559999902,
                    "velocity": 0.4881889763779528,
                    "duration": 0.18987349999997605
                },
                {
                    "name": "D#2",
                    "midi": 39,
                    "time": 360.25332066665686,
                    "velocity": 0.5275590551181102,
                    "duration": 0.18987349999997605
                },
                {
                    "name": "C3",
                    "midi": 48,
                    "time": 360.25332066665686,
                    "velocity": 0.4409448818897638,
                    "duration": 0.18987349999997605
                },
                {
                    "name": "D#2",
                    "midi": 39,
                    "time": 360.5064853333235,
                    "velocity": 0.5275590551181102,
                    "duration": 0.18987349999997605
                },
                {
                    "name": "C3",
                    "midi": 48,
                    "time": 360.5064853333235,
                    "velocity": 0.4409448818897638,
                    "duration": 0.18987349999997605
                },
                {
                    "name": "E2",
                    "midi": 40,
                    "time": 360.75964999999013,
                    "velocity": 0.5748031496062992,
                    "duration": 0.18987349999997605
                },
                {
                    "name": "C3",
                    "midi": 48,
                    "time": 360.75964999999013,
                    "velocity": 0.4881889763779528,
                    "duration": 0.18987349999997605
                },
                {
                    "name": "E2",
                    "midi": 40,
                    "time": 361.01281466665677,
                    "velocity": 0.5196850393700787,
                    "duration": 0.18987349999997605
                },
                {
                    "name": "C3",
                    "midi": 48,
                    "time": 361.01281466665677,
                    "velocity": 0.4409448818897638,
                    "duration": 0.18987349999997605
                },
                {
                    "name": "E2",
                    "midi": 40,
                    "time": 361.2659793333234,
                    "velocity": 0.5196850393700787,
                    "duration": 0.18987349999997605
                },
                {
                    "name": "C3",
                    "midi": 48,
                    "time": 361.2659793333234,
                    "velocity": 0.4409448818897638,
                    "duration": 0.18987349999997605
                },
                {
                    "name": "F2",
                    "midi": 41,
                    "time": 361.51914399999004,
                    "velocity": 0.5669291338582677,
                    "duration": 0.18987349999997605
                },
                {
                    "name": "C3",
                    "midi": 48,
                    "time": 361.51914399999004,
                    "velocity": 0.48031496062992124,
                    "duration": 0.18987349999997605
                },
                {
                    "name": "F2",
                    "midi": 41,
                    "time": 361.77230866665667,
                    "velocity": 0.5354330708661418,
                    "duration": 0.18987349999997605
                },
                {
                    "name": "C3",
                    "midi": 48,
                    "time": 361.77230866665667,
                    "velocity": 0.44881889763779526,
                    "duration": 0.18987349999997605
                },
                {
                    "name": "F2",
                    "midi": 41,
                    "time": 362.0254733333233,
                    "velocity": 0.5354330708661418,
                    "duration": 0.18987349999997605
                },
                {
                    "name": "C3",
                    "midi": 48,
                    "time": 362.0254733333233,
                    "velocity": 0.44881889763779526,
                    "duration": 0.18987349999997605
                },
                {
                    "name": "F#2",
                    "midi": 42,
                    "time": 362.27863799998994,
                    "velocity": 0.5433070866141733,
                    "duration": 0.18987349999997605
                },
                {
                    "name": "A#2",
                    "midi": 46,
                    "time": 362.27863799998994,
                    "velocity": 0.4566929133858268,
                    "duration": 0.18987349999997605
                },
                {
                    "name": "F#2",
                    "midi": 42,
                    "time": 362.5318026666566,
                    "velocity": 0.49606299212598426,
                    "duration": 0.18987349999997605
                },
                {
                    "name": "A#2",
                    "midi": 46,
                    "time": 362.5318026666566,
                    "velocity": 0.41732283464566927,
                    "duration": 0.18987349999997605
                },
                {
                    "name": "F#2",
                    "midi": 42,
                    "time": 362.7849673333232,
                    "velocity": 0.49606299212598426,
                    "duration": 0.18987349999997605
                },
                {
                    "name": "A#2",
                    "midi": 46,
                    "time": 362.7849673333232,
                    "velocity": 0.41732283464566927,
                    "duration": 0.18987349999997605
                },
                {
                    "name": "G2",
                    "midi": 43,
                    "time": 363.03813199998984,
                    "velocity": 0.5196850393700787,
                    "duration": 0.18987349999997605
                },
                {
                    "name": "C3",
                    "midi": 48,
                    "time": 363.03813199998984,
                    "velocity": 0.4409448818897638,
                    "duration": 0.18987349999997605
                },
                {
                    "name": "G2",
                    "midi": 43,
                    "time": 363.2912966666565,
                    "velocity": 0.47244094488188976,
                    "duration": 0.18987349999997605
                },
                {
                    "name": "C3",
                    "midi": 48,
                    "time": 363.2912966666565,
                    "velocity": 0.4015748031496063,
                    "duration": 0.18987349999997605
                },
                {
                    "name": "G2",
                    "midi": 43,
                    "time": 363.5444613333231,
                    "velocity": 0.5196850393700787,
                    "duration": 0.18987349999997605
                },
                {
                    "name": "C3",
                    "midi": 48,
                    "time": 363.5444613333231,
                    "velocity": 0.4409448818897638,
                    "duration": 0.18987349999997605
                },
                {
                    "name": "G#2",
                    "midi": 44,
                    "time": 363.79762599998975,
                    "velocity": 0.5433070866141733,
                    "duration": 0.18987349999997605
                },
                {
                    "name": "C3",
                    "midi": 48,
                    "time": 363.79762599998975,
                    "velocity": 0.48031496062992124,
                    "duration": 0.18987349999997605
                },
                {
                    "name": "G#2",
                    "midi": 44,
                    "time": 364.0507906666564,
                    "velocity": 0.44881889763779526,
                    "duration": 0.18987349999997605
                },
                {
                    "name": "C3",
                    "midi": 48,
                    "time": 364.0507906666564,
                    "velocity": 0.3779527559055118,
                    "duration": 0.18987349999997605
                },
                {
                    "name": "G#2",
                    "midi": 44,
                    "time": 364.303955333323,
                    "velocity": 0.44881889763779526,
                    "duration": 0.18987349999997605
                },
                {
                    "name": "C3",
                    "midi": 48,
                    "time": 364.303955333323,
                    "velocity": 0.3779527559055118,
                    "duration": 0.18987349999997605
                },
                {
                    "name": "G#2",
                    "midi": 44,
                    "time": 364.55711999998965,
                    "velocity": 0.4330708661417323,
                    "duration": 0.18987349999997605
                },
                {
                    "name": "C3",
                    "midi": 48,
                    "time": 364.55711999998965,
                    "velocity": 0.36220472440944884,
                    "duration": 0.18987349999997605
                },
                {
                    "name": "G#2",
                    "midi": 44,
                    "time": 364.8102846666563,
                    "velocity": 0.4251968503937008,
                    "duration": 0.18987349999997605
                },
                {
                    "name": "C3",
                    "midi": 48,
                    "time": 364.8102846666563,
                    "velocity": 0.33070866141732286,
                    "duration": 0.18987349999997605
                },
                {
                    "name": "G#2",
                    "midi": 44,
                    "time": 365.0634493333229,
                    "velocity": 0.41732283464566927,
                    "duration": 0.18987349999997605
                },
                {
                    "name": "C3",
                    "midi": 48,
                    "time": 365.0634493333229,
                    "velocity": 0.3228346456692913,
                    "duration": 0.18987349999997605
                },
                {
                    "name": "G#2",
                    "midi": 44,
                    "time": 365.31661399998956,
                    "velocity": 0.41732283464566927,
                    "duration": 0.18987349999997605
                },
                {
                    "name": "C3",
                    "midi": 48,
                    "time": 365.31661399998956,
                    "velocity": 0.3543307086614173,
                    "duration": 0.18987349999997605
                },
                {
                    "name": "G#2",
                    "midi": 44,
                    "time": 365.5697786666562,
                    "velocity": 0.3700787401574803,
                    "duration": 0.18987349999997605
                },
                {
                    "name": "C3",
                    "midi": 48,
                    "time": 365.5697786666562,
                    "velocity": 0.31496062992125984,
                    "duration": 0.18987349999997605
                },
                {
                    "name": "G#2",
                    "midi": 44,
                    "time": 365.8229433333228,
                    "velocity": 0.36220472440944884,
                    "duration": 0.18987349999997605
                },
                {
                    "name": "C3",
                    "midi": 48,
                    "time": 365.8229433333228,
                    "velocity": 0.30708661417322836,
                    "duration": 0.18987349999997605
                },
                {
                    "name": "G#2",
                    "midi": 44,
                    "time": 366.07610799998946,
                    "velocity": 0.4015748031496063,
                    "duration": 0.18987349999997605
                },
                {
                    "name": "C3",
                    "midi": 48,
                    "time": 366.07610799998946,
                    "velocity": 0.33858267716535434,
                    "duration": 0.18987349999997605
                },
                {
                    "name": "G#2",
                    "midi": 44,
                    "time": 366.3292726666561,
                    "velocity": 0.36220472440944884,
                    "duration": 0.18987349999997605
                },
                {
                    "name": "C3",
                    "midi": 48,
                    "time": 366.3292726666561,
                    "velocity": 0.30708661417322836,
                    "duration": 0.18987349999997605
                },
                {
                    "name": "G#2",
                    "midi": 44,
                    "time": 366.58243733332273,
                    "velocity": 0.36220472440944884,
                    "duration": 0.18987349999997605
                },
                {
                    "name": "C3",
                    "midi": 48,
                    "time": 366.58243733332273,
                    "velocity": 0.30708661417322836,
                    "duration": 0.18987349999997605
                },
                {
                    "name": "A2",
                    "midi": 45,
                    "time": 366.83560199998936,
                    "velocity": 0.2440944881889764,
                    "duration": 0.18987349999997605
                },
                {
                    "name": "C3",
                    "midi": 48,
                    "time": 366.83560199998936,
                    "velocity": 0.29133858267716534,
                    "duration": 0.18987349999997605
                },
                {
                    "name": "A2",
                    "midi": 45,
                    "time": 367.088766666656,
                    "velocity": 0.2047244094488189,
                    "duration": 0.18987349999997605
                },
                {
                    "name": "C3",
                    "midi": 48,
                    "time": 367.088766666656,
                    "velocity": 0.2440944881889764,
                    "duration": 0.18987349999997605
                },
                {
                    "name": "A2",
                    "midi": 45,
                    "time": 367.34193133332263,
                    "velocity": 0.2047244094488189,
                    "duration": 0.18987349999997605
                },
                {
                    "name": "C3",
                    "midi": 48,
                    "time": 367.34193133332263,
                    "velocity": 0.2440944881889764,
                    "duration": 0.18987349999997605
                },
                {
                    "name": "A2",
                    "midi": 45,
                    "time": 367.59509599998927,
                    "velocity": 0.2677165354330709,
                    "duration": 0.18987349999997605
                },
                {
                    "name": "C3",
                    "midi": 48,
                    "time": 367.59509599998927,
                    "velocity": 0.31496062992125984,
                    "duration": 0.18987349999997605
                },
                {
                    "name": "A2",
                    "midi": 45,
                    "time": 367.8482606666559,
                    "velocity": 0.2125984251968504,
                    "duration": 0.18987349999997605
                },
                {
                    "name": "D3",
                    "midi": 50,
                    "time": 367.8482606666559,
                    "velocity": 0.25196850393700787,
                    "duration": 0.18987349999997605
                },
                {
                    "name": "A2",
                    "midi": 45,
                    "time": 368.10142533332254,
                    "velocity": 0.2204724409448819,
                    "duration": 0.18987349999997605
                },
                {
                    "name": "D3",
                    "midi": 50,
                    "time": 368.10142533332254,
                    "velocity": 0.25984251968503935,
                    "duration": 0.18987349999997605
                },
                {
                    "name": "A2",
                    "midi": 45,
                    "time": 368.3545899999892,
                    "velocity": 0.2440944881889764,
                    "duration": 0.18987349999997605
                },
                {
                    "name": "D3",
                    "midi": 50,
                    "time": 368.3545899999892,
                    "velocity": 0.29133858267716534,
                    "duration": 0.18987349999997605
                },
                {
                    "name": "A2",
                    "midi": 45,
                    "time": 368.6077546666558,
                    "velocity": 0.2204724409448819,
                    "duration": 0.18987349999997605
                },
                {
                    "name": "D3",
                    "midi": 50,
                    "time": 368.6077546666558,
                    "velocity": 0.25984251968503935,
                    "duration": 0.18987349999997605
                },
                {
                    "name": "A2",
                    "midi": 45,
                    "time": 368.86091933332244,
                    "velocity": 0.2204724409448819,
                    "duration": 0.18987349999997605
                },
                {
                    "name": "D3",
                    "midi": 50,
                    "time": 368.86091933332244,
                    "velocity": 0.25984251968503935,
                    "duration": 0.18987349999997605
                },
                {
                    "name": "A#2",
                    "midi": 46,
                    "time": 369.1140839999891,
                    "velocity": 0.25196850393700787,
                    "duration": 0.18987349999997605
                },
                {
                    "name": "D3",
                    "midi": 50,
                    "time": 369.1140839999891,
                    "velocity": 0.2992125984251969,
                    "duration": 0.18987349999997605
                },
                {
                    "name": "A#2",
                    "midi": 46,
                    "time": 369.3672486666557,
                    "velocity": 0.2204724409448819,
                    "duration": 0.18987349999997605
                },
                {
                    "name": "D3",
                    "midi": 50,
                    "time": 369.3672486666557,
                    "velocity": 0.2677165354330709,
                    "duration": 0.18987349999997605
                },
                {
                    "name": "A#2",
                    "midi": 46,
                    "time": 369.62041333332235,
                    "velocity": 0.2204724409448819,
                    "duration": 0.18987349999997605
                },
                {
                    "name": "D3",
                    "midi": 50,
                    "time": 369.62041333332235,
                    "velocity": 0.2677165354330709,
                    "duration": 0.18987349999997605
                },
                {
                    "name": "A#2",
                    "midi": 46,
                    "time": 369.873577999989,
                    "velocity": 0.2440944881889764,
                    "duration": 0.18987349999997605
                },
                {
                    "name": "D3",
                    "midi": 50,
                    "time": 369.873577999989,
                    "velocity": 0.29133858267716534,
                    "duration": 0.18987349999997605
                },
                {
                    "name": "A#2",
                    "midi": 46,
                    "time": 370.1267426666556,
                    "velocity": 0.2204724409448819,
                    "duration": 0.18987349999997605
                },
                {
                    "name": "D3",
                    "midi": 50,
                    "time": 370.1267426666556,
                    "velocity": 0.25984251968503935,
                    "duration": 0.18987349999997605
                },
                {
                    "name": "A#2",
                    "midi": 46,
                    "time": 370.37990733332225,
                    "velocity": 0.2204724409448819,
                    "duration": 0.18987349999997605
                },
                {
                    "name": "D3",
                    "midi": 50,
                    "time": 370.37990733332225,
                    "velocity": 0.25984251968503935,
                    "duration": 0.18987349999997605
                },
                {
                    "name": "C3",
                    "midi": 48,
                    "time": 370.6330719999889,
                    "velocity": 0.2440944881889764,
                    "duration": 0.18987349999997605
                },
                {
                    "name": "D#3",
                    "midi": 51,
                    "time": 370.6330719999889,
                    "velocity": 0.29133858267716534,
                    "duration": 0.18987349999997605
                },
                {
                    "name": "C3",
                    "midi": 48,
                    "time": 370.8862366666555,
                    "velocity": 0.2125984251968504,
                    "duration": 0.18987349999997605
                },
                {
                    "name": "D#3",
                    "midi": 51,
                    "time": 370.8862366666555,
                    "velocity": 0.25196850393700787,
                    "duration": 0.18987349999997605
                },
                {
                    "name": "C3",
                    "midi": 48,
                    "time": 371.13940133332216,
                    "velocity": 0.2125984251968504,
                    "duration": 0.18987349999997605
                },
                {
                    "name": "D#3",
                    "midi": 51,
                    "time": 371.13940133332216,
                    "velocity": 0.25196850393700787,
                    "duration": 0.18987349999997605
                },
                {
                    "name": "C3",
                    "midi": 48,
                    "time": 371.3925659999888,
                    "velocity": 0.2440944881889764,
                    "duration": 0.18987349999997605
                },
                {
                    "name": "D#3",
                    "midi": 51,
                    "time": 371.3925659999888,
                    "velocity": 0.29133858267716534,
                    "duration": 0.18987349999997605
                },
                {
                    "name": "C3",
                    "midi": 48,
                    "time": 371.6457306666554,
                    "velocity": 0.2047244094488189,
                    "duration": 0.18987349999997605
                },
                {
                    "name": "D#3",
                    "midi": 51,
                    "time": 371.6457306666554,
                    "velocity": 0.2440944881889764,
                    "duration": 0.18987349999997605
                },
                {
                    "name": "C3",
                    "midi": 48,
                    "time": 371.89889533332206,
                    "velocity": 0.2047244094488189,
                    "duration": 0.18987349999997605
                },
                {
                    "name": "D#3",
                    "midi": 51,
                    "time": 371.89889533332206,
                    "velocity": 0.2440944881889764,
                    "duration": 0.18987349999997605
                },
                {
                    "name": "D3",
                    "midi": 50,
                    "time": 372.1520599999887,
                    "velocity": 0.29133858267716534,
                    "duration": 0.18987349999997605
                },
                {
                    "name": "D3",
                    "midi": 50,
                    "time": 372.40522466665533,
                    "velocity": 0.25196850393700787,
                    "duration": 0.18987349999997605
                },
                {
                    "name": "D3",
                    "midi": 50,
                    "time": 372.65838933332196,
                    "velocity": 0.25196850393700787,
                    "duration": 0.18987349999997605
                },
                {
                    "name": "D3",
                    "midi": 50,
                    "time": 372.9115539999886,
                    "velocity": 0.29133858267716534,
                    "duration": 0.18987349999997605
                },
                {
                    "name": "D3",
                    "midi": 50,
                    "time": 373.16471866665523,
                    "velocity": 0.25196850393700787,
                    "duration": 0.18987349999997605
                },
                {
                    "name": "D3",
                    "midi": 50,
                    "time": 373.41788333332187,
                    "velocity": 0.25196850393700787,
                    "duration": 0.18987349999997605
                },
                {
                    "name": "D3",
                    "midi": 50,
                    "time": 373.6710479999885,
                    "velocity": 0.29133858267716534,
                    "duration": 0.18987349999997605
                },
                {
                    "name": "G2",
                    "midi": 43,
                    "time": 373.6710479999885,
                    "velocity": 0.2440944881889764,
                    "duration": 1.5189879999998084
                },
                {
                    "name": "D3",
                    "midi": 50,
                    "time": 373.92421266665514,
                    "velocity": 0.2283464566929134,
                    "duration": 0.18987349999997605
                },
                {
                    "name": "D3",
                    "midi": 50,
                    "time": 374.1773773333218,
                    "velocity": 0.2283464566929134,
                    "duration": 0.18987349999997605
                },
                {
                    "name": "D3",
                    "midi": 50,
                    "time": 374.4305419999884,
                    "velocity": 0.25196850393700787,
                    "duration": 0.18987349999997605
                },
                {
                    "name": "D3",
                    "midi": 50,
                    "time": 374.68370666665504,
                    "velocity": 0.2283464566929134,
                    "duration": 0.18987349999997605
                },
                {
                    "name": "D3",
                    "midi": 50,
                    "time": 374.9368713333217,
                    "velocity": 0.2283464566929134,
                    "duration": 0.18987349999997605
                },
                {
                    "name": "D3",
                    "midi": 50,
                    "time": 375.1900359999883,
                    "velocity": 0.2440944881889764,
                    "duration": 0.18987349999997605
                },
                {
                    "name": "D3",
                    "midi": 50,
                    "time": 375.44320066665495,
                    "velocity": 0.2283464566929134,
                    "duration": 0.18987349999997605
                },
                {
                    "name": "D3",
                    "midi": 50,
                    "time": 375.6963653333216,
                    "velocity": 0.2283464566929134,
                    "duration": 0.18987349999997605
                },
                {
                    "name": "D3",
                    "midi": 50,
                    "time": 375.9495299999882,
                    "velocity": 0.25196850393700787,
                    "duration": 0.18987349999997605
                },
                {
                    "name": "D3",
                    "midi": 50,
                    "time": 376.20269466665485,
                    "velocity": 0.2283464566929134,
                    "duration": 0.18987349999997605
                },
                {
                    "name": "D3",
                    "midi": 50,
                    "time": 376.4558593333215,
                    "velocity": 0.2283464566929134,
                    "duration": 0.18987349999997605
                },
                {
                    "name": "G2",
                    "midi": 43,
                    "time": 377.0887709999881,
                    "velocity": 0.25196850393700787,
                    "duration": 0.18987349999997605
                },
                {
                    "name": "G2",
                    "midi": 43,
                    "time": 377.8482649999881,
                    "velocity": 0.25196850393700787,
                    "duration": 0.18987349999997605
                },
                {
                    "name": "D2",
                    "midi": 38,
                    "time": 378.60775899998805,
                    "velocity": 0.28346456692913385,
                    "duration": 0.18987349999997605
                },
                {
                    "name": "G2",
                    "midi": 43,
                    "time": 379.367252999988,
                    "velocity": 0.25196850393700787,
                    "duration": 0.18987349999997605
                },
                {
                    "name": "C2",
                    "midi": 36,
                    "time": 380.126746999988,
                    "velocity": 0.2992125984251969,
                    "duration": 0.18987349999997605
                },
                {
                    "name": "C2",
                    "midi": 36,
                    "time": 380.88624099998793,
                    "velocity": 0.2755905511811024,
                    "duration": 0.18987349999997605
                },
                {
                    "name": "G2",
                    "midi": 43,
                    "time": 381.6457349999879,
                    "velocity": 0.29133858267716534,
                    "duration": 0.18987349999997605
                },
                {
                    "name": "G2",
                    "midi": 43,
                    "time": 382.40522899998786,
                    "velocity": 0.25196850393700787,
                    "duration": 0.18987349999997605
                },
                {
                    "name": "G#2",
                    "midi": 44,
                    "time": 383.1647229999878,
                    "velocity": 0.28346456692913385,
                    "duration": 0.18987349999997605
                },
                {
                    "name": "A2",
                    "midi": 45,
                    "time": 383.9242169999878,
                    "velocity": 0.25196850393700787,
                    "duration": 0.18987349999997605
                },
                {
                    "name": "A#2",
                    "midi": 46,
                    "time": 384.68371099998774,
                    "velocity": 0.25196850393700787,
                    "duration": 0.18987349999997605
                },
                {
                    "name": "D3",
                    "midi": 50,
                    "time": 385.4432049999877,
                    "velocity": 0.25196850393700787,
                    "duration": 0.18987349999997605
                },
                {
                    "name": "D#3",
                    "midi": 51,
                    "time": 386.20269899998766,
                    "velocity": 0.30708661417322836,
                    "duration": 0.18987349999997605
                },
                {
                    "name": "C3",
                    "midi": 48,
                    "time": 386.9621929999876,
                    "velocity": 0.25196850393700787,
                    "duration": 0.18987349999997605
                },
                {
                    "name": "D3",
                    "midi": 50,
                    "time": 387.7216869999876,
                    "velocity": 0.25196850393700787,
                    "duration": 0.18987349999997605
                },
                {
                    "name": "D2",
                    "midi": 38,
                    "time": 388.48118099998754,
                    "velocity": 0.25196850393700787,
                    "duration": 0.18987349999997605
                },
                {
                    "name": "G2",
                    "midi": 43,
                    "time": 389.2406749999875,
                    "velocity": 0.23622047244094488,
                    "duration": 0.18987349999997605
                },
                {
                    "name": "A2",
                    "midi": 45,
                    "time": 389.62042199998746,
                    "velocity": 0.29133858267716534,
                    "duration": 0.18987349999997605
                },
                {
                    "name": "C3",
                    "midi": 48,
                    "time": 390.0001689999874,
                    "velocity": 0.31496062992125984,
                    "duration": 0.18987349999997605
                },
                {
                    "name": "D3",
                    "midi": 50,
                    "time": 390.37991599998736,
                    "velocity": 0.3464566929133858,
                    "duration": 0.18987349999997605
                },
                {
                    "name": "G3",
                    "midi": 55,
                    "time": 390.7596629999873,
                    "velocity": 0.2755905511811024,
                    "duration": 0.18987349999997605
                },
                {
                    "name": "D3",
                    "midi": 50,
                    "time": 391.13940999998727,
                    "velocity": 0.30708661417322836,
                    "duration": 0.18987349999997605
                },
                {
                    "name": "A#2",
                    "midi": 46,
                    "time": 391.5191569999872,
                    "velocity": 0.25196850393700787,
                    "duration": 0.18987349999997605
                },
                {
                    "name": "G2",
                    "midi": 43,
                    "time": 392.2786509999872,
                    "velocity": 0.25196850393700787,
                    "duration": 0.18987349999997605
                },
                {
                    "name": "G2",
                    "midi": 43,
                    "time": 393.03814499998714,
                    "velocity": 0.25196850393700787,
                    "duration": 0.18987349999997605
                },
                {
                    "name": "D2",
                    "midi": 38,
                    "time": 393.7976389999871,
                    "velocity": 0.28346456692913385,
                    "duration": 0.18987349999997605
                },
                {
                    "name": "G2",
                    "midi": 43,
                    "time": 394.55713299998706,
                    "velocity": 0.25196850393700787,
                    "duration": 0.18987349999997605
                },
                {
                    "name": "C2",
                    "midi": 36,
                    "time": 395.316626999987,
                    "velocity": 0.2992125984251969,
                    "duration": 0.18987349999997605
                },
                {
                    "name": "F2",
                    "midi": 41,
                    "time": 396.076120999987,
                    "velocity": 0.33858267716535434,
                    "duration": 0.18987349999997605
                },
                {
                    "name": "A#1",
                    "midi": 34,
                    "time": 396.83561499998694,
                    "velocity": 0.3543307086614173,
                    "duration": 0.18987349999997605
                },
                {
                    "name": "A#2",
                    "midi": 46,
                    "time": 397.5951089999869,
                    "velocity": 0.33858267716535434,
                    "duration": 0.18987349999997605
                },
                {
                    "name": "A2",
                    "midi": 45,
                    "time": 398.35460299998687,
                    "velocity": 0.3937007874015748,
                    "duration": 0.18987349999997605
                },
                {
                    "name": "D2",
                    "midi": 38,
                    "time": 399.1140969999868,
                    "velocity": 0.33070866141732286,
                    "duration": 0.18987349999997605
                },
                {
                    "name": "G2",
                    "midi": 43,
                    "time": 399.8735909999868,
                    "velocity": 0.33070866141732286,
                    "duration": 0.18987349999997605
                },
                {
                    "name": "G1",
                    "midi": 31,
                    "time": 400.63308499998675,
                    "velocity": 0.3228346456692913,
                    "duration": 0.18987349999997605
                },
                {
                    "name": "D#2",
                    "midi": 39,
                    "time": 401.3925789999867,
                    "velocity": 0.30708661417322836,
                    "duration": 0.18987349999997605
                },
                {
                    "name": "C2",
                    "midi": 36,
                    "time": 402.1520729999867,
                    "velocity": 0.25196850393700787,
                    "duration": 0.18987349999997605
                },
                {
                    "name": "F2",
                    "midi": 41,
                    "time": 402.91156699998663,
                    "velocity": 0.25196850393700787,
                    "duration": 0.18987349999997605
                },
                {
                    "name": "F1",
                    "midi": 29,
                    "time": 403.6710609999866,
                    "velocity": 0.25196850393700787,
                    "duration": 0.18987349999997605
                },
                {
                    "name": "A#2",
                    "midi": 46,
                    "time": 404.43055499998655,
                    "velocity": 0.23622047244094488,
                    "duration": 0.18987349999997605
                },
                {
                    "name": "C3",
                    "midi": 48,
                    "time": 404.8103019999865,
                    "velocity": 0.29133858267716534,
                    "duration": 0.18987349999997605
                },
                {
                    "name": "D#3",
                    "midi": 51,
                    "time": 405.19004899998646,
                    "velocity": 0.31496062992125984,
                    "duration": 0.18987349999997605
                },
                {
                    "name": "D3",
                    "midi": 50,
                    "time": 405.5697959999864,
                    "velocity": 0.3464566929133858,
                    "duration": 0.18987349999997605
                },
                {
                    "name": "A#3",
                    "midi": 58,
                    "time": 405.94954299998636,
                    "velocity": 0.2755905511811024,
                    "duration": 0.18987349999997605
                },
                {
                    "name": "F3",
                    "midi": 53,
                    "time": 406.3292899999863,
                    "velocity": 0.30708661417322836,
                    "duration": 0.18987349999997605
                },
                {
                    "name": "D3",
                    "midi": 50,
                    "time": 406.70903699998627,
                    "velocity": 0.25196850393700787,
                    "duration": 0.18987349999997605
                },
                {
                    "name": "A#2",
                    "midi": 46,
                    "time": 407.0887839999862,
                    "velocity": 0.3464566929133858,
                    "duration": 0.18987349999997605
                },
                {
                    "name": "D3",
                    "midi": 50,
                    "time": 407.2786574999862,
                    "velocity": 0.28346456692913385,
                    "duration": 0.18987349999997605
                },
                {
                    "name": "F3",
                    "midi": 53,
                    "time": 407.46853099998617,
                    "velocity": 0.28346456692913385,
                    "duration": 0.18987349999997605
                },
                {
                    "name": "D3",
                    "midi": 50,
                    "time": 407.65840449998615,
                    "velocity": 0.28346456692913385,
                    "duration": 0.18987349999997605
                },
                {
                    "name": "A#2",
                    "midi": 46,
                    "time": 407.8482779999861,
                    "velocity": 0.3543307086614173,
                    "duration": 0.18987349999997605
                },
                {
                    "name": "D3",
                    "midi": 50,
                    "time": 408.0381514999861,
                    "velocity": 0.2992125984251969,
                    "duration": 0.18987349999997605
                },
                {
                    "name": "F3",
                    "midi": 53,
                    "time": 408.2280249999861,
                    "velocity": 0.2992125984251969,
                    "duration": 0.18987349999997605
                },
                {
                    "name": "D3",
                    "midi": 50,
                    "time": 408.41789849998605,
                    "velocity": 0.36220472440944884,
                    "duration": 0.18987349999997605
                },
                {
                    "name": "A2",
                    "midi": 45,
                    "time": 408.607771999986,
                    "velocity": 0.4330708661417323,
                    "duration": 0.18987349999997605
                },
                {
                    "name": "C3",
                    "midi": 48,
                    "time": 408.797645499986,
                    "velocity": 0.36220472440944884,
                    "duration": 0.18987349999997605
                },
                {
                    "name": "D3",
                    "midi": 50,
                    "time": 408.987518999986,
                    "velocity": 0.3700787401574803,
                    "duration": 0.18987349999997605
                },
                {
                    "name": "C3",
                    "midi": 48,
                    "time": 409.17739249998596,
                    "velocity": 0.3937007874015748,
                    "duration": 0.18987349999997605
                },
                {
                    "name": "G2",
                    "midi": 43,
                    "time": 409.36726599998593,
                    "velocity": 0.47244094488188976,
                    "duration": 0.18987349999997605
                },
                {
                    "name": "C3",
                    "midi": 48,
                    "time": 409.5571394999859,
                    "velocity": 0.4094488188976378,
                    "duration": 0.18987349999997605
                },
                {
                    "name": "D3",
                    "midi": 50,
                    "time": 409.7470129999859,
                    "velocity": 0.3858267716535433,
                    "duration": 0.18987349999997605
                },
                {
                    "name": "C3",
                    "midi": 48,
                    "time": 409.93688649998586,
                    "velocity": 0.3937007874015748,
                    "duration": 0.18987349999997605
                },
                {
                    "name": "F#2",
                    "midi": 42,
                    "time": 410.12675999998584,
                    "velocity": 0.5669291338582677,
                    "duration": 0.18987349999997605
                },
                {
                    "name": "C3",
                    "midi": 48,
                    "time": 410.3166334999858,
                    "velocity": 0.4330708661417323,
                    "duration": 0.18987349999997605
                },
                {
                    "name": "D3",
                    "midi": 50,
                    "time": 410.5065069999858,
                    "velocity": 0.4645669291338583,
                    "duration": 0.18987349999997605
                },
                {
                    "name": "C3",
                    "midi": 48,
                    "time": 410.69638049998576,
                    "velocity": 0.4645669291338583,
                    "duration": 0.18987349999997605
                },
                {
                    "name": "F#2",
                    "midi": 42,
                    "time": 410.88625399998574,
                    "velocity": 0.5354330708661418,
                    "duration": 0.18987349999997605
                },
                {
                    "name": "A2",
                    "midi": 45,
                    "time": 411.0761274999857,
                    "velocity": 0.41732283464566927,
                    "duration": 0.18987349999997605
                },
                {
                    "name": "D3",
                    "midi": 50,
                    "time": 411.2660009999857,
                    "velocity": 0.41732283464566927,
                    "duration": 0.18987349999997605
                },
                {
                    "name": "A2",
                    "midi": 45,
                    "time": 411.45587449998567,
                    "velocity": 0.41732283464566927,
                    "duration": 0.18987349999997605
                },
                {
                    "name": "G2",
                    "midi": 43,
                    "time": 411.64574799998564,
                    "velocity": 0.49606299212598426,
                    "duration": 0.18987349999997605
                },
                {
                    "name": "A#2",
                    "midi": 46,
                    "time": 411.8356214999856,
                    "velocity": 0.3779527559055118,
                    "duration": 0.18987349999997605
                },
                {
                    "name": "D3",
                    "midi": 50,
                    "time": 412.0254949999856,
                    "velocity": 0.3779527559055118,
                    "duration": 0.18987349999997605
                },
                {
                    "name": "A#2",
                    "midi": 46,
                    "time": 412.2153684999856,
                    "velocity": 0.3779527559055118,
                    "duration": 0.18987349999997605
                },
                {
                    "name": "C3",
                    "midi": 48,
                    "time": 412.40524199998555,
                    "velocity": 0.3779527559055118,
                    "duration": 0.18987349999997605
                },
                {
                    "name": "D#3",
                    "midi": 51,
                    "time": 412.5951154999855,
                    "velocity": 0.2755905511811024,
                    "duration": 0.18987349999997605
                },
                {
                    "name": "A3",
                    "midi": 57,
                    "time": 412.7849889999855,
                    "velocity": 0.2755905511811024,
                    "duration": 0.18987349999997605
                },
                {
                    "name": "D#3",
                    "midi": 51,
                    "time": 412.9748624999855,
                    "velocity": 0.28346456692913385,
                    "duration": 0.18987349999997605
                },
                {
                    "name": "D3",
                    "midi": 50,
                    "time": 413.16473599998545,
                    "velocity": 0.3937007874015748,
                    "duration": 0.18987349999997605
                },
                {
                    "name": "A3",
                    "midi": 57,
                    "time": 413.35460949998543,
                    "velocity": 0.30708661417322836,
                    "duration": 0.18987349999997605
                },
                {
                    "name": "C4",
                    "midi": 60,
                    "time": 413.5444829999854,
                    "velocity": 0.30708661417322836,
                    "duration": 0.18987349999997605
                },
                {
                    "name": "A3",
                    "midi": 57,
                    "time": 413.7343564999854,
                    "velocity": 0.30708661417322836,
                    "duration": 0.18987349999997605
                },
                {
                    "name": "D3",
                    "midi": 50,
                    "time": 413.92422999998536,
                    "velocity": 0.3700787401574803,
                    "duration": 0.18987349999997605
                },
                {
                    "name": "A3",
                    "midi": 57,
                    "time": 414.11410349998533,
                    "velocity": 0.30708661417322836,
                    "duration": 0.18987349999997605
                },
                {
                    "name": "C4",
                    "midi": 60,
                    "time": 414.3039769999853,
                    "velocity": 0.30708661417322836,
                    "duration": 0.18987349999997605
                },
                {
                    "name": "A3",
                    "midi": 57,
                    "time": 414.4938504999853,
                    "velocity": 0.30708661417322836,
                    "duration": 0.18987349999997605
                },
                {
                    "name": "D3",
                    "midi": 50,
                    "time": 414.68372399998526,
                    "velocity": 0.3700787401574803,
                    "duration": 0.18987349999997605
                },
                {
                    "name": "A3",
                    "midi": 57,
                    "time": 414.87359749998524,
                    "velocity": 0.31496062992125984,
                    "duration": 0.18987349999997605
                },
                {
                    "name": "C4",
                    "midi": 60,
                    "time": 415.0634709999852,
                    "velocity": 0.31496062992125984,
                    "duration": 0.18987349999997605
                },
                {
                    "name": "A3",
                    "midi": 57,
                    "time": 415.2533444999852,
                    "velocity": 0.31496062992125984,
                    "duration": 0.18987349999997605
                },
                {
                    "name": "D3",
                    "midi": 50,
                    "time": 415.44321799998517,
                    "velocity": 0.3464566929133858,
                    "duration": 0.18987349999997605
                },
                {
                    "name": "A3",
                    "midi": 57,
                    "time": 415.63309149998514,
                    "velocity": 0.28346456692913385,
                    "duration": 0.18987349999997605
                },
                {
                    "name": "C4",
                    "midi": 60,
                    "time": 415.8229649999851,
                    "velocity": 0.28346456692913385,
                    "duration": 0.18987349999997605
                },
                {
                    "name": "A3",
                    "midi": 57,
                    "time": 416.0128384999851,
                    "velocity": 0.28346456692913385,
                    "duration": 0.18987349999997605
                },
                {
                    "name": "G3",
                    "midi": 55,
                    "time": 416.20271199998507,
                    "velocity": 0.3464566929133858,
                    "duration": 0.18987349999997605
                },
                {
                    "name": "A#3",
                    "midi": 58,
                    "time": 416.39258549998505,
                    "velocity": 0.29133858267716534,
                    "duration": 0.18987349999997605
                },
                {
                    "name": "G3",
                    "midi": 55,
                    "time": 416.582458999985,
                    "velocity": 0.29133858267716534,
                    "duration": 0.18987349999997605
                },
                {
                    "name": "D3",
                    "midi": 50,
                    "time": 416.772332499985,
                    "velocity": 0.29133858267716534,
                    "duration": 0.18987349999997605
                },
                {
                    "name": "A#2",
                    "midi": 46,
                    "time": 416.962205999985,
                    "velocity": 0.3464566929133858,
                    "duration": 0.18987349999997605
                },
                {
                    "name": "G3",
                    "midi": 55,
                    "time": 417.15207949998495,
                    "velocity": 0.2992125984251969,
                    "duration": 0.18987349999997605
                },
                {
                    "name": "D3",
                    "midi": 50,
                    "time": 417.3419529999849,
                    "velocity": 0.2992125984251969,
                    "duration": 0.18987349999997605
                },
                {
                    "name": "A#2",
                    "midi": 46,
                    "time": 417.5318264999849,
                    "velocity": 0.2992125984251969,
                    "duration": 0.18987349999997605
                },
                {
                    "name": "G2",
                    "midi": 43,
                    "time": 417.7216999999849,
                    "velocity": 0.3464566929133858,
                    "duration": 0.18987349999997605
                },
                {
                    "name": "G2",
                    "midi": 43,
                    "time": 418.48119399998484,
                    "velocity": 0.4566929133858268,
                    "duration": 0.569620499999985
                },
                {
                    "name": "G3",
                    "midi": 55,
                    "time": 418.48119399998484,
                    "velocity": 0.5433070866141733,
                    "duration": 0.569620499999985
                },
                {
                    "name": "A#2",
                    "midi": 46,
                    "time": 419.0508144999848,
                    "velocity": 0.4015748031496063,
                    "duration": 0.18987349999997605
                },
                {
                    "name": "A#3",
                    "midi": 58,
                    "time": 419.0508144999848,
                    "velocity": 0.48031496062992124,
                    "duration": 0.18987349999997605
                },
                {
                    "name": "D3",
                    "midi": 50,
                    "time": 419.2406879999848,
                    "velocity": 0.4881889763779528,
                    "duration": 0.569620499999985
                },
                {
                    "name": "D4",
                    "midi": 62,
                    "time": 419.2406879999848,
                    "velocity": 0.5826771653543307,
                    "duration": 0.569620499999985
                },
                {
                    "name": "D3",
                    "midi": 50,
                    "time": 420.00018199998476,
                    "velocity": 0.4409448818897638,
                    "duration": 0.569620499999985
                },
                {
                    "name": "D4",
                    "midi": 62,
                    "time": 420.00018199998476,
                    "velocity": 0.5275590551181102,
                    "duration": 0.569620499999985
                },
                {
                    "name": "D3",
                    "midi": 50,
                    "time": 420.7596759999847,
                    "velocity": 0.4566929133858268,
                    "duration": 0.569620499999985
                },
                {
                    "name": "D4",
                    "midi": 62,
                    "time": 420.7596759999847,
                    "velocity": 0.5433070866141733,
                    "duration": 0.569620499999985
                },
                {
                    "name": "D3",
                    "midi": 50,
                    "time": 421.5191699999847,
                    "velocity": 0.44881889763779526,
                    "duration": 0.569620499999985
                },
                {
                    "name": "D4",
                    "midi": 62,
                    "time": 421.5191699999847,
                    "velocity": 0.5354330708661418,
                    "duration": 0.569620499999985
                },
                {
                    "name": "D#3",
                    "midi": 51,
                    "time": 422.27866399998464,
                    "velocity": 0.49606299212598426,
                    "duration": 1.518987999999979
                },
                {
                    "name": "D#4",
                    "midi": 63,
                    "time": 422.27866399998464,
                    "velocity": 0.5905511811023622,
                    "duration": 1.518987999999979
                },
                {
                    "name": "D3",
                    "midi": 50,
                    "time": 423.7976519999846,
                    "velocity": 0.48031496062992124,
                    "duration": 1.518987999999979
                },
                {
                    "name": "D4",
                    "midi": 62,
                    "time": 423.7976519999846,
                    "velocity": 0.5669291338582677,
                    "duration": 1.518987999999979
                },
                {
                    "name": "C3",
                    "midi": 48,
                    "time": 425.3166399999846,
                    "velocity": 0.49606299212598426,
                    "duration": 1.518987999999979
                },
                {
                    "name": "C4",
                    "midi": 60,
                    "time": 425.3166399999846,
                    "velocity": 0.5905511811023622,
                    "duration": 1.518987999999979
                },
                {
                    "name": "A#2",
                    "midi": 46,
                    "time": 426.8356279999846,
                    "velocity": 0.44881889763779526,
                    "duration": 1.518987999999979
                },
                {
                    "name": "A#3",
                    "midi": 58,
                    "time": 426.8356279999846,
                    "velocity": 0.5354330708661418,
                    "duration": 1.518987999999979
                },
                {
                    "name": "A2",
                    "midi": 45,
                    "time": 428.35461599998456,
                    "velocity": 0.44881889763779526,
                    "duration": 0.7594940000000179
                },
                {
                    "name": "A3",
                    "midi": 57,
                    "time": 428.35461599998456,
                    "velocity": 0.5354330708661418,
                    "duration": 0.7594940000000179
                },
                {
                    "name": "C3",
                    "midi": 48,
                    "time": 429.1141099999846,
                    "velocity": 0.4409448818897638,
                    "duration": 0.7594940000000179
                },
                {
                    "name": "C4",
                    "midi": 60,
                    "time": 429.1141099999846,
                    "velocity": 0.5196850393700787,
                    "duration": 0.7594940000000179
                },
                {
                    "name": "A#2",
                    "midi": 46,
                    "time": 429.8736039999846,
                    "velocity": 0.4881889763779528,
                    "duration": 0.7594940000000179
                },
                {
                    "name": "A#3",
                    "midi": 58,
                    "time": 429.8736039999846,
                    "velocity": 0.5748031496062992,
                    "duration": 0.7594940000000179
                },
                {
                    "name": "A2",
                    "midi": 45,
                    "time": 430.6330979999846,
                    "velocity": 0.3543307086614173,
                    "duration": 0.7594940000000179
                },
                {
                    "name": "A3",
                    "midi": 57,
                    "time": 430.6330979999846,
                    "velocity": 0.5039370078740157,
                    "duration": 0.7594940000000179
                },
                {
                    "name": "G3",
                    "midi": 55,
                    "time": 431.39259199998463,
                    "velocity": 0.5669291338582677,
                    "duration": 2.278481999999997
                },
                {
                    "name": "G2",
                    "midi": 43,
                    "time": 431.39259199998463,
                    "velocity": 0.4015748031496063,
                    "duration": 2.278481999999997
                },
                {
                    "name": "G3",
                    "midi": 55,
                    "time": 433.6710739999846,
                    "velocity": 0.5433070866141733,
                    "duration": 0.569620499999985
                },
                {
                    "name": "G2",
                    "midi": 43,
                    "time": 433.6710739999846,
                    "velocity": 0.5433070866141733,
                    "duration": 0.569620499999985
                },
                {
                    "name": "A#2",
                    "midi": 46,
                    "time": 434.2406944999846,
                    "velocity": 0.48031496062992124,
                    "duration": 0.18987349999997605
                },
                {
                    "name": "A#3",
                    "midi": 58,
                    "time": 434.2406944999846,
                    "velocity": 0.48031496062992124,
                    "duration": 0.18987349999997605
                },
                {
                    "name": "D3",
                    "midi": 50,
                    "time": 434.4305679999846,
                    "velocity": 0.5826771653543307,
                    "duration": 0.569620499999985
                },
                {
                    "name": "D4",
                    "midi": 62,
                    "time": 434.4305679999846,
                    "velocity": 0.5826771653543307,
                    "duration": 0.5348103583333454
                },
                {
                    "name": "D4",
                    "midi": 62,
                    "time": 435.19006199998455,
                    "velocity": 0.5275590551181102,
                    "duration": 0.569620499999985
                },
                {
                    "name": "D3",
                    "midi": 50,
                    "time": 435.19006199998455,
                    "velocity": 0.4330708661417323,
                    "duration": 0.569620499999985
                },
                {
                    "name": "D3",
                    "midi": 50,
                    "time": 435.9495559999845,
                    "velocity": 0.4566929133858268,
                    "duration": 0.569620499999985
                },
                {
                    "name": "D4",
                    "midi": 62,
                    "time": 435.9495559999845,
                    "velocity": 0.5433070866141733,
                    "duration": 0.569620499999985
                },
                {
                    "name": "D3",
                    "midi": 50,
                    "time": 436.7090499999845,
                    "velocity": 0.44881889763779526,
                    "duration": 0.569620499999985
                },
                {
                    "name": "D4",
                    "midi": 62,
                    "time": 436.7090499999845,
                    "velocity": 0.5354330708661418,
                    "duration": 0.569620499999985
                },
                {
                    "name": "D#3",
                    "midi": 51,
                    "time": 437.46854399998443,
                    "velocity": 0.49606299212598426,
                    "duration": 1.518987999999979
                },
                {
                    "name": "D#4",
                    "midi": 63,
                    "time": 437.46854399998443,
                    "velocity": 0.5905511811023622,
                    "duration": 1.518987999999979
                },
                {
                    "name": "D3",
                    "midi": 50,
                    "time": 438.9875319999844,
                    "velocity": 0.47244094488188976,
                    "duration": 1.518987999999979
                },
                {
                    "name": "D4",
                    "midi": 62,
                    "time": 438.9875319999844,
                    "velocity": 0.5669291338582677,
                    "duration": 1.518987999999979
                },
                {
                    "name": "C3",
                    "midi": 48,
                    "time": 440.5065199999844,
                    "velocity": 0.49606299212598426,
                    "duration": 1.518987999999979
                },
                {
                    "name": "C4",
                    "midi": 60,
                    "time": 440.5065199999844,
                    "velocity": 0.5905511811023622,
                    "duration": 1.518987999999979
                },
                {
                    "name": "A#3",
                    "midi": 58,
                    "time": 442.02550799998437,
                    "velocity": 0.5354330708661418,
                    "duration": 1.1392410000000268
                },
                {
                    "name": "A#2",
                    "midi": 46,
                    "time": 442.02550799998437,
                    "velocity": 0.44881889763779526,
                    "duration": 1.1392410000000268
                },
                {
                    "name": "A2",
                    "midi": 45,
                    "time": 443.1647489999844,
                    "velocity": 0.47244094488188976,
                    "duration": 0.37974700000000894
                },
                {
                    "name": "A3",
                    "midi": 57,
                    "time": 443.1647489999844,
                    "velocity": 0.5196850393700787,
                    "duration": 0.37974700000000894
                },
                {
                    "name": "G3",
                    "midi": 55,
                    "time": 443.5444959999844,
                    "velocity": 0.5511811023622047,
                    "duration": 0.7594940000000179
                },
                {
                    "name": "G2",
                    "midi": 43,
                    "time": 443.5444959999844,
                    "velocity": 0.47244094488188976,
                    "duration": 0.7594940000000179
                },
                {
                    "name": "D#3",
                    "midi": 51,
                    "time": 444.3039899999844,
                    "velocity": 0.4330708661417323,
                    "duration": 0.7594940000000179
                },
                {
                    "name": "D#4",
                    "midi": 63,
                    "time": 444.3039899999844,
                    "velocity": 0.5196850393700787,
                    "duration": 0.7594940000000179
                },
                {
                    "name": "D4",
                    "midi": 62,
                    "time": 445.06348399998444,
                    "velocity": 0.5275590551181102,
                    "duration": 0.7594940000000179
                },
                {
                    "name": "D3",
                    "midi": 50,
                    "time": 445.06348399998444,
                    "velocity": 0.4409448818897638,
                    "duration": 0.7594940000000179
                },
                {
                    "name": "C3",
                    "midi": 48,
                    "time": 445.82297799998446,
                    "velocity": 0.3937007874015748,
                    "duration": 0.7594940000000179
                },
                {
                    "name": "C4",
                    "midi": 60,
                    "time": 445.82297799998446,
                    "velocity": 0.47244094488188976,
                    "duration": 0.7594940000000179
                },
                {
                    "name": "A#2",
                    "midi": 46,
                    "time": 446.5824719999845,
                    "velocity": 0.47244094488188976,
                    "duration": 2.278481999999997
                },
                {
                    "name": "A#3",
                    "midi": 58,
                    "time": 446.5824719999845,
                    "velocity": 0.5511811023622047,
                    "duration": 2.278481999999997
                },
                {
                    "name": "A#2",
                    "midi": 46,
                    "time": 449.6204479999845,
                    "velocity": 0.3464566929133858,
                    "duration": 0.18987349999997605
                },
                {
                    "name": "D3",
                    "midi": 50,
                    "time": 449.81032149998447,
                    "velocity": 0.28346456692913385,
                    "duration": 0.18987349999997605
                },
                {
                    "name": "F3",
                    "midi": 53,
                    "time": 450.00019499998444,
                    "velocity": 0.28346456692913385,
                    "duration": 0.18987349999997605
                },
                {
                    "name": "D3",
                    "midi": 50,
                    "time": 450.1900684999844,
                    "velocity": 0.28346456692913385,
                    "duration": 0.18987349999997605
                },
                {
                    "name": "A#2",
                    "midi": 46,
                    "time": 450.3799419999844,
                    "velocity": 0.3543307086614173,
                    "duration": 0.18987349999997605
                },
                {
                    "name": "D3",
                    "midi": 50,
                    "time": 450.5698154999844,
                    "velocity": 0.2992125984251969,
                    "duration": 0.18987349999997605
                },
                {
                    "name": "F3",
                    "midi": 53,
                    "time": 450.75968899998435,
                    "velocity": 0.2992125984251969,
                    "duration": 0.18987349999997605
                },
                {
                    "name": "D3",
                    "midi": 50,
                    "time": 450.9495624999843,
                    "velocity": 0.36220472440944884,
                    "duration": 0.18987349999997605
                },
                {
                    "name": "A2",
                    "midi": 45,
                    "time": 451.1394359999843,
                    "velocity": 0.4251968503937008,
                    "duration": 0.18987349999997605
                },
                {
                    "name": "C3",
                    "midi": 48,
                    "time": 451.3293094999843,
                    "velocity": 0.3543307086614173,
                    "duration": 0.18987349999997605
                },
                {
                    "name": "D3",
                    "midi": 50,
                    "time": 451.51918299998425,
                    "velocity": 0.3543307086614173,
                    "duration": 0.18987349999997605
                },
                {
                    "name": "C3",
                    "midi": 48,
                    "time": 451.70905649998423,
                    "velocity": 0.3779527559055118,
                    "duration": 0.18987349999997605
                },
                {
                    "name": "G2",
                    "midi": 43,
                    "time": 451.8989299999842,
                    "velocity": 0.44881889763779526,
                    "duration": 0.18987349999997605
                },
                {
                    "name": "C3",
                    "midi": 48,
                    "time": 452.0888034999842,
                    "velocity": 0.3858267716535433,
                    "duration": 0.18987349999997605
                },
                {
                    "name": "D3",
                    "midi": 50,
                    "time": 452.27867699998416,
                    "velocity": 0.36220472440944884,
                    "duration": 0.18987349999997605
                },
                {
                    "name": "C3",
                    "midi": 48,
                    "time": 452.46855049998413,
                    "velocity": 0.36220472440944884,
                    "duration": 0.18987349999997605
                },
                {
                    "name": "F#2",
                    "midi": 42,
                    "time": 452.6584239999841,
                    "velocity": 0.5196850393700787,
                    "duration": 0.18987349999997605
                },
                {
                    "name": "C3",
                    "midi": 48,
                    "time": 452.8482974999841,
                    "velocity": 0.3937007874015748,
                    "duration": 0.18987349999997605
                },
                {
                    "name": "D3",
                    "midi": 50,
                    "time": 453.03817099998406,
                    "velocity": 0.4251968503937008,
                    "duration": 0.18987349999997605
                },
                {
                    "name": "C3",
                    "midi": 48,
                    "time": 453.22804449998404,
                    "velocity": 0.4251968503937008,
                    "duration": 0.18987349999997605
                },
                {
                    "name": "F#2",
                    "midi": 42,
                    "time": 453.417917999984,
                    "velocity": 0.4881889763779528,
                    "duration": 0.18987349999997605
                },
                {
                    "name": "A2",
                    "midi": 45,
                    "time": 453.607791499984,
                    "velocity": 0.3858267716535433,
                    "duration": 0.18987349999997605
                },
                {
                    "name": "D3",
                    "midi": 50,
                    "time": 453.79766499998397,
                    "velocity": 0.3858267716535433,
                    "duration": 0.18987349999997605
                },
                {
                    "name": "A2",
                    "midi": 45,
                    "time": 453.98753849998394,
                    "velocity": 0.3858267716535433,
                    "duration": 0.18987349999997605
                },
                {
                    "name": "G2",
                    "midi": 43,
                    "time": 454.1774119999839,
                    "velocity": 0.4566929133858268,
                    "duration": 0.18987349999997605
                },
                {
                    "name": "A#2",
                    "midi": 46,
                    "time": 454.3672854999839,
                    "velocity": 0.3464566929133858,
                    "duration": 0.18987349999997605
                },
                {
                    "name": "D3",
                    "midi": 50,
                    "time": 454.55715899998387,
                    "velocity": 0.3464566929133858,
                    "duration": 0.18987349999997605
                },
                {
                    "name": "A#2",
                    "midi": 46,
                    "time": 454.74703249998385,
                    "velocity": 0.3464566929133858,
                    "duration": 0.18987349999997605
                },
                {
                    "name": "C3",
                    "midi": 48,
                    "time": 454.9369059999838,
                    "velocity": 0.3779527559055118,
                    "duration": 0.18987349999997605
                },
                {
                    "name": "D#3",
                    "midi": 51,
                    "time": 455.1267794999838,
                    "velocity": 0.2755905511811024,
                    "duration": 0.18987349999997605
                },
                {
                    "name": "A3",
                    "midi": 57,
                    "time": 455.3166529999838,
                    "velocity": 0.2755905511811024,
                    "duration": 0.18987349999997605
                },
                {
                    "name": "D#3",
                    "midi": 51,
                    "time": 455.50652649998375,
                    "velocity": 0.28346456692913385,
                    "duration": 0.18987349999997605
                },
                {
                    "name": "D3",
                    "midi": 50,
                    "time": 455.6963999999837,
                    "velocity": 0.3937007874015748,
                    "duration": 0.18987349999997605
                },
                {
                    "name": "A3",
                    "midi": 57,
                    "time": 455.8862734999837,
                    "velocity": 0.30708661417322836,
                    "duration": 0.18987349999997605
                },
                {
                    "name": "C4",
                    "midi": 60,
                    "time": 456.0761469999837,
                    "velocity": 0.30708661417322836,
                    "duration": 0.18987349999997605
                },
                {
                    "name": "A3",
                    "midi": 57,
                    "time": 456.26602049998365,
                    "velocity": 0.30708661417322836,
                    "duration": 0.18987349999997605
                },
                {
                    "name": "D3",
                    "midi": 50,
                    "time": 456.45589399998363,
                    "velocity": 0.3700787401574803,
                    "duration": 0.18987349999997605
                },
                {
                    "name": "A3",
                    "midi": 57,
                    "time": 456.6457674999836,
                    "velocity": 0.30708661417322836,
                    "duration": 0.18987349999997605
                },
                {
                    "name": "C4",
                    "midi": 60,
                    "time": 456.8356409999836,
                    "velocity": 0.30708661417322836,
                    "duration": 0.18987349999997605
                },
                {
                    "name": "A3",
                    "midi": 57,
                    "time": 457.02551449998356,
                    "velocity": 0.30708661417322836,
                    "duration": 0.18987349999997605
                },
                {
                    "name": "D3",
                    "midi": 50,
                    "time": 457.21538799998353,
                    "velocity": 0.3700787401574803,
                    "duration": 0.18987349999997605
                },
                {
                    "name": "A3",
                    "midi": 57,
                    "time": 457.4052614999835,
                    "velocity": 0.31496062992125984,
                    "duration": 0.18987349999997605
                },
                {
                    "name": "C4",
                    "midi": 60,
                    "time": 457.5951349999835,
                    "velocity": 0.31496062992125984,
                    "duration": 0.18987349999997605
                },
                {
                    "name": "A3",
                    "midi": 57,
                    "time": 457.78500849998346,
                    "velocity": 0.31496062992125984,
                    "duration": 0.18987349999997605
                },
                {
                    "name": "D3",
                    "midi": 50,
                    "time": 457.97488199998344,
                    "velocity": 0.3464566929133858,
                    "duration": 0.18987349999997605
                },
                {
                    "name": "A3",
                    "midi": 57,
                    "time": 458.1647554999834,
                    "velocity": 0.28346456692913385,
                    "duration": 0.18987349999997605
                },
                {
                    "name": "C4",
                    "midi": 60,
                    "time": 458.3546289999834,
                    "velocity": 0.28346456692913385,
                    "duration": 0.18987349999997605
                },
                {
                    "name": "A3",
                    "midi": 57,
                    "time": 458.54450249998337,
                    "velocity": 0.28346456692913385,
                    "duration": 0.18987349999997605
                },
                {
                    "name": "G2",
                    "midi": 43,
                    "time": 458.73437599998334,
                    "velocity": 0.25984251968503935,
                    "duration": 0.18987349999997605
                },
                {
                    "name": "D3",
                    "midi": 50,
                    "time": 458.98754066665,
                    "velocity": 0.14960629921259844,
                    "duration": 0.18987349999997605
                },
                {
                    "name": "G3",
                    "midi": 55,
                    "time": 458.98754066665,
                    "velocity": 0.14960629921259844,
                    "duration": 0.18987349999997605
                },
                {
                    "name": "B3",
                    "midi": 59,
                    "time": 458.98754066665,
                    "velocity": 0.18110236220472442,
                    "duration": 0.18987349999997605
                },
                {
                    "name": "D3",
                    "midi": 50,
                    "time": 459.2407053333166,
                    "velocity": 0.14960629921259844,
                    "duration": 0.18987349999997605
                },
                {
                    "name": "G3",
                    "midi": 55,
                    "time": 459.2407053333166,
                    "velocity": 0.14960629921259844,
                    "duration": 0.18987349999997605
                },
                {
                    "name": "B3",
                    "midi": 59,
                    "time": 459.2407053333166,
                    "velocity": 0.18110236220472442,
                    "duration": 0.18987349999997605
                },
                {
                    "name": "D3",
                    "midi": 50,
                    "time": 459.49386999998325,
                    "velocity": 0.16535433070866143,
                    "duration": 0.18987349999997605
                },
                {
                    "name": "G3",
                    "midi": 55,
                    "time": 459.49386999998325,
                    "velocity": 0.16535433070866143,
                    "duration": 0.18987349999997605
                },
                {
                    "name": "B3",
                    "midi": 59,
                    "time": 459.49386999998325,
                    "velocity": 0.1968503937007874,
                    "duration": 0.18987349999997605
                },
                {
                    "name": "D3",
                    "midi": 50,
                    "time": 459.7470346666499,
                    "velocity": 0.16535433070866143,
                    "duration": 0.18987349999997605
                },
                {
                    "name": "B3",
                    "midi": 59,
                    "time": 459.7470346666499,
                    "velocity": 0.1968503937007874,
                    "duration": 0.18987349999997605
                },
                {
                    "name": "G3",
                    "midi": 55,
                    "time": 459.7470346666499,
                    "velocity": 0.16535433070866143,
                    "duration": 0.18987349999997605
                },
                {
                    "name": "B3",
                    "midi": 59,
                    "time": 460.0001993333165,
                    "velocity": 0.1968503937007874,
                    "duration": 0.18987349999997605
                },
                {
                    "name": "G3",
                    "midi": 55,
                    "time": 460.0001993333165,
                    "velocity": 0.16535433070866143,
                    "duration": 0.18987349999997605
                },
                {
                    "name": "D3",
                    "midi": 50,
                    "time": 460.0001993333165,
                    "velocity": 0.16535433070866143,
                    "duration": 0.18987349999997605
                },
                {
                    "name": "B3",
                    "midi": 59,
                    "time": 460.25336399998315,
                    "velocity": 0.25196850393700787,
                    "duration": 0.18987349999997605
                },
                {
                    "name": "D3",
                    "midi": 50,
                    "time": 460.25336399998315,
                    "velocity": 0.2125984251968504,
                    "duration": 0.18987349999997605
                },
                {
                    "name": "G3",
                    "midi": 55,
                    "time": 460.25336399998315,
                    "velocity": 0.2125984251968504,
                    "duration": 0.18987349999997605
                },
                {
                    "name": "B3",
                    "midi": 59,
                    "time": 460.5065286666498,
                    "velocity": 0.1889763779527559,
                    "duration": 0.18987349999997605
                },
                {
                    "name": "D3",
                    "midi": 50,
                    "time": 460.5065286666498,
                    "velocity": 0.15748031496062992,
                    "duration": 0.18987349999997605
                },
                {
                    "name": "G3",
                    "midi": 55,
                    "time": 460.5065286666498,
                    "velocity": 0.15748031496062992,
                    "duration": 0.18987349999997605
                },
                {
                    "name": "D3",
                    "midi": 50,
                    "time": 460.7596933333164,
                    "velocity": 0.16535433070866143,
                    "duration": 0.18987349999997605
                },
                {
                    "name": "B3",
                    "midi": 59,
                    "time": 460.7596933333164,
                    "velocity": 0.1968503937007874,
                    "duration": 0.18987349999997605
                },
                {
                    "name": "G3",
                    "midi": 55,
                    "time": 460.7596933333164,
                    "velocity": 0.16535433070866143,
                    "duration": 0.18987349999997605
                },
                {
                    "name": "B3",
                    "midi": 59,
                    "time": 461.01285799998305,
                    "velocity": 0.25984251968503935,
                    "duration": 0.18987349999997605
                },
                {
                    "name": "G3",
                    "midi": 55,
                    "time": 461.01285799998305,
                    "velocity": 0.2204724409448819,
                    "duration": 0.18987349999997605
                },
                {
                    "name": "D3",
                    "midi": 50,
                    "time": 461.01285799998305,
                    "velocity": 0.2204724409448819,
                    "duration": 0.18987349999997605
                },
                {
                    "name": "G3",
                    "midi": 55,
                    "time": 461.2660226666497,
                    "velocity": 0.16535433070866143,
                    "duration": 0.18987349999997605
                },
                {
                    "name": "B3",
                    "midi": 59,
                    "time": 461.2660226666497,
                    "velocity": 0.1968503937007874,
                    "duration": 0.18987349999997605
                },
                {
                    "name": "D3",
                    "midi": 50,
                    "time": 461.2660226666497,
                    "velocity": 0.16535433070866143,
                    "duration": 0.18987349999997605
                },
                {
                    "name": "B3",
                    "midi": 59,
                    "time": 461.5191873333163,
                    "velocity": 0.1968503937007874,
                    "duration": 0.18987349999997605
                },
                {
                    "name": "G3",
                    "midi": 55,
                    "time": 461.5191873333163,
                    "velocity": 0.16535433070866143,
                    "duration": 0.18987349999997605
                },
                {
                    "name": "D3",
                    "midi": 50,
                    "time": 461.5191873333163,
                    "velocity": 0.16535433070866143,
                    "duration": 0.18987349999997605
                },
                {
                    "name": "C2",
                    "midi": 36,
                    "time": 461.77235199998296,
                    "velocity": 0.25984251968503935,
                    "duration": 0.18987349999997605
                },
                {
                    "name": "E3",
                    "midi": 52,
                    "time": 462.0255166666496,
                    "velocity": 0.14960629921259844,
                    "duration": 0.18987349999997605
                },
                {
                    "name": "B3",
                    "midi": 59,
                    "time": 462.0255166666496,
                    "velocity": 0.18110236220472442,
                    "duration": 0.18987349999997605
                },
                {
                    "name": "C3",
                    "midi": 48,
                    "time": 462.0255166666496,
                    "velocity": 0.14960629921259844,
                    "duration": 0.18987349999997605
                },
                {
                    "name": "B3",
                    "midi": 59,
                    "time": 462.27868133331623,
                    "velocity": 0.18110236220472442,
                    "duration": 0.18987349999997605
                },
                {
                    "name": "E3",
                    "midi": 52,
                    "time": 462.27868133331623,
                    "velocity": 0.14960629921259844,
                    "duration": 0.18987349999997605
                },
                {
                    "name": "C3",
                    "midi": 48,
                    "time": 462.27868133331623,
                    "velocity": 0.14960629921259844,
                    "duration": 0.18987349999997605
                },
                {
                    "name": "G#3",
                    "midi": 56,
                    "time": 462.53184599998286,
                    "velocity": 0.23622047244094488,
                    "duration": 0.18987349999997605
                },
                {
                    "name": "C3",
                    "midi": 48,
                    "time": 462.53184599998286,
                    "velocity": 0.1968503937007874,
                    "duration": 0.18987349999997605
                },
                {
                    "name": "E3",
                    "midi": 52,
                    "time": 462.53184599998286,
                    "velocity": 0.1968503937007874,
                    "duration": 0.18987349999997605
                },
                {
                    "name": "E3",
                    "midi": 52,
                    "time": 462.7850106666495,
                    "velocity": 0.16535433070866143,
                    "duration": 0.18987349999997605
                },
                {
                    "name": "C3",
                    "midi": 48,
                    "time": 462.7850106666495,
                    "velocity": 0.16535433070866143,
                    "duration": 0.18987349999997605
                },
                {
                    "name": "G#3",
                    "midi": 56,
                    "time": 462.7850106666495,
                    "velocity": 0.1968503937007874,
                    "duration": 0.18987349999997605
                },
                {
                    "name": "C3",
                    "midi": 48,
                    "time": 463.03817533331613,
                    "velocity": 0.16535433070866143,
                    "duration": 0.18987349999997605
                },
                {
                    "name": "G#3",
                    "midi": 56,
                    "time": 463.03817533331613,
                    "velocity": 0.1968503937007874,
                    "duration": 0.18987349999997605
                },
                {
                    "name": "E3",
                    "midi": 52,
                    "time": 463.03817533331613,
                    "velocity": 0.16535433070866143,
                    "duration": 0.18987349999997605
                },
                {
                    "name": "C3",
                    "midi": 48,
                    "time": 463.29133999998277,
                    "velocity": 0.2125984251968504,
                    "duration": 0.18987349999997605
                },
                {
                    "name": "A3",
                    "midi": 57,
                    "time": 463.29133999998277,
                    "velocity": 0.25196850393700787,
                    "duration": 0.18987349999997605
                },
                {
                    "name": "E3",
                    "midi": 52,
                    "time": 463.29133999998277,
                    "velocity": 0.2125984251968504,
                    "duration": 0.18987349999997605
                },
                {
                    "name": "C3",
                    "midi": 48,
                    "time": 463.5445046666494,
                    "velocity": 0.15748031496062992,
                    "duration": 0.18987349999997605
                },
                {
                    "name": "E3",
                    "midi": 52,
                    "time": 463.5445046666494,
                    "velocity": 0.15748031496062992,
                    "duration": 0.18987349999997605
                },
                {
                    "name": "A3",
                    "midi": 57,
                    "time": 463.5445046666494,
                    "velocity": 0.1889763779527559,
                    "duration": 0.18987349999997605
                },
                {
                    "name": "A3",
                    "midi": 57,
                    "time": 463.79766933331604,
                    "velocity": 0.1968503937007874,
                    "duration": 0.18987349999997605
                },
                {
                    "name": "C3",
                    "midi": 48,
                    "time": 463.79766933331604,
                    "velocity": 0.16535433070866143,
                    "duration": 0.18987349999997605
                },
                {
                    "name": "E3",
                    "midi": 52,
                    "time": 463.79766933331604,
                    "velocity": 0.16535433070866143,
                    "duration": 0.18987349999997605
                },
                {
                    "name": "C3",
                    "midi": 48,
                    "time": 464.0508339999827,
                    "velocity": 0.2204724409448819,
                    "duration": 0.18987349999997605
                },
                {
                    "name": "A3",
                    "midi": 57,
                    "time": 464.0508339999827,
                    "velocity": 0.25984251968503935,
                    "duration": 0.18987349999997605
                },
                {
                    "name": "E3",
                    "midi": 52,
                    "time": 464.0508339999827,
                    "velocity": 0.2204724409448819,
                    "duration": 0.18987349999997605
                },
                {
                    "name": "C3",
                    "midi": 48,
                    "time": 464.3039986666493,
                    "velocity": 0.16535433070866143,
                    "duration": 0.18987349999997605
                },
                {
                    "name": "E3",
                    "midi": 52,
                    "time": 464.3039986666493,
                    "velocity": 0.16535433070866143,
                    "duration": 0.18987349999997605
                },
                {
                    "name": "A3",
                    "midi": 57,
                    "time": 464.3039986666493,
                    "velocity": 0.1968503937007874,
                    "duration": 0.18987349999997605
                },
                {
                    "name": "E3",
                    "midi": 52,
                    "time": 464.55716333331594,
                    "velocity": 0.16535433070866143,
                    "duration": 0.18987349999997605
                },
                {
                    "name": "C3",
                    "midi": 48,
                    "time": 464.55716333331594,
                    "velocity": 0.16535433070866143,
                    "duration": 0.18987349999997605
                },
                {
                    "name": "A3",
                    "midi": 57,
                    "time": 464.55716333331594,
                    "velocity": 0.1968503937007874,
                    "duration": 0.18987349999997605
                },
                {
                    "name": "B1",
                    "midi": 35,
                    "time": 464.8103279999826,
                    "velocity": 0.25984251968503935,
                    "duration": 0.18987349999997605
                },
                {
                    "name": "B2",
                    "midi": 47,
                    "time": 465.0634926666492,
                    "velocity": 0.14960629921259844,
                    "duration": 0.18987349999997605
                },
                {
                    "name": "D3",
                    "midi": 50,
                    "time": 465.0634926666492,
                    "velocity": 0.14960629921259844,
                    "duration": 0.18987349999997605
                },
                {
                    "name": "A3",
                    "midi": 57,
                    "time": 465.0634926666492,
                    "velocity": 0.18110236220472442,
                    "duration": 0.18987349999997605
                },
                {
                    "name": "D3",
                    "midi": 50,
                    "time": 465.31665733331585,
                    "velocity": 0.14960629921259844,
                    "duration": 0.18987349999997605
                },
                {
                    "name": "B2",
                    "midi": 47,
                    "time": 465.31665733331585,
                    "velocity": 0.14960629921259844,
                    "duration": 0.18987349999997605
                },
                {
                    "name": "A3",
                    "midi": 57,
                    "time": 465.31665733331585,
                    "velocity": 0.18110236220472442,
                    "duration": 0.18987349999997605
                },
                {
                    "name": "B2",
                    "midi": 47,
                    "time": 465.5698219999825,
                    "velocity": 0.1968503937007874,
                    "duration": 0.18987349999997605
                },
                {
                    "name": "F#3",
                    "midi": 54,
                    "time": 465.5698219999825,
                    "velocity": 0.23622047244094488,
                    "duration": 0.18987349999997605
                },
                {
                    "name": "D3",
                    "midi": 50,
                    "time": 465.5698219999825,
                    "velocity": 0.1968503937007874,
                    "duration": 0.18987349999997605
                },
                {
                    "name": "F#3",
                    "midi": 54,
                    "time": 465.8229866666491,
                    "velocity": 0.1968503937007874,
                    "duration": 0.18987349999997605
                },
                {
                    "name": "D3",
                    "midi": 50,
                    "time": 465.8229866666491,
                    "velocity": 0.16535433070866143,
                    "duration": 0.18987349999997605
                },
                {
                    "name": "B2",
                    "midi": 47,
                    "time": 465.8229866666491,
                    "velocity": 0.16535433070866143,
                    "duration": 0.18987349999997605
                },
                {
                    "name": "B2",
                    "midi": 47,
                    "time": 466.07615133331575,
                    "velocity": 0.16535433070866143,
                    "duration": 0.18987349999997605
                },
                {
                    "name": "D3",
                    "midi": 50,
                    "time": 466.07615133331575,
                    "velocity": 0.16535433070866143,
                    "duration": 0.18987349999997605
                },
                {
                    "name": "F#3",
                    "midi": 54,
                    "time": 466.07615133331575,
                    "velocity": 0.1968503937007874,
                    "duration": 0.18987349999997605
                },
                {
                    "name": "G3",
                    "midi": 55,
                    "time": 466.3293159999824,
                    "velocity": 0.2755905511811024,
                    "duration": 0.18987349999997605
                },
                {
                    "name": "D3",
                    "midi": 50,
                    "time": 466.3293159999824,
                    "velocity": 0.2283464566929134,
                    "duration": 0.18987349999997605
                },
                {
                    "name": "B2",
                    "midi": 47,
                    "time": 466.3293159999824,
                    "velocity": 0.2283464566929134,
                    "duration": 0.18987349999997605
                },
                {
                    "name": "D3",
                    "midi": 50,
                    "time": 466.582480666649,
                    "velocity": 0.1732283464566929,
                    "duration": 0.18987349999997605
                },
                {
                    "name": "B2",
                    "midi": 47,
                    "time": 466.582480666649,
                    "velocity": 0.1732283464566929,
                    "duration": 0.18987349999997605
                },
                {
                    "name": "G3",
                    "midi": 55,
                    "time": 466.582480666649,
                    "velocity": 0.2125984251968504,
                    "duration": 0.18987349999997605
                },
                {
                    "name": "D3",
                    "midi": 50,
                    "time": 466.83564533331565,
                    "velocity": 0.1889763779527559,
                    "duration": 0.18987349999997605
                },
                {
                    "name": "G3",
                    "midi": 55,
                    "time": 466.83564533331565,
                    "velocity": 0.2283464566929134,
                    "duration": 0.18987349999997605
                },
                {
                    "name": "B2",
                    "midi": 47,
                    "time": 466.83564533331565,
                    "velocity": 0.1889763779527559,
                    "duration": 0.18987349999997605
                },
                {
                    "name": "B2",
                    "midi": 47,
                    "time": 467.0888099999823,
                    "velocity": 0.25984251968503935,
                    "duration": 0.18987349999997605
                },
                {
                    "name": "G3",
                    "midi": 55,
                    "time": 467.0888099999823,
                    "velocity": 0.30708661417322836,
                    "duration": 0.18987349999997605
                },
                {
                    "name": "D3",
                    "midi": 50,
                    "time": 467.0888099999823,
                    "velocity": 0.25984251968503935,
                    "duration": 0.18987349999997605
                },
                {
                    "name": "B2",
                    "midi": 47,
                    "time": 467.3419746666489,
                    "velocity": 0.1968503937007874,
                    "duration": 0.18987349999997605
                },
                {
                    "name": "G3",
                    "midi": 55,
                    "time": 467.3419746666489,
                    "velocity": 0.23622047244094488,
                    "duration": 0.18987349999997605
                },
                {
                    "name": "D3",
                    "midi": 50,
                    "time": 467.3419746666489,
                    "velocity": 0.1968503937007874,
                    "duration": 0.18987349999997605
                },
                {
                    "name": "D3",
                    "midi": 50,
                    "time": 467.59513933331556,
                    "velocity": 0.2047244094488189,
                    "duration": 0.18987349999997605
                },
                {
                    "name": "B2",
                    "midi": 47,
                    "time": 467.59513933331556,
                    "velocity": 0.2047244094488189,
                    "duration": 0.18987349999997605
                },
                {
                    "name": "G3",
                    "midi": 55,
                    "time": 467.59513933331556,
                    "velocity": 0.2440944881889764,
                    "duration": 0.18987349999997605
                },
                {
                    "name": "C2",
                    "midi": 36,
                    "time": 467.8483039999822,
                    "velocity": 0.33070866141732286,
                    "duration": 0.18987349999997605
                },
                {
                    "name": "E3",
                    "midi": 52,
                    "time": 468.1014686666488,
                    "velocity": 0.23622047244094488,
                    "duration": 0.18987349999997605
                },
                {
                    "name": "C3",
                    "midi": 48,
                    "time": 468.1014686666488,
                    "velocity": 0.1968503937007874,
                    "duration": 0.18987349999997605
                },
                {
                    "name": "E3",
                    "midi": 52,
                    "time": 468.35463333331546,
                    "velocity": 0.2440944881889764,
                    "duration": 0.18987349999997605
                },
                {
                    "name": "C3",
                    "midi": 48,
                    "time": 468.35463333331546,
                    "velocity": 0.2047244094488189,
                    "duration": 0.18987349999997605
                },
                {
                    "name": "C3",
                    "midi": 48,
                    "time": 468.6077979999821,
                    "velocity": 0.25984251968503935,
                    "duration": 0.18987349999997605
                },
                {
                    "name": "E3",
                    "midi": 52,
                    "time": 468.6077979999821,
                    "velocity": 0.30708661417322836,
                    "duration": 0.18987349999997605
                },
                {
                    "name": "C3",
                    "midi": 48,
                    "time": 468.86096266664873,
                    "velocity": 0.1889763779527559,
                    "duration": 0.18987349999997605
                },
                {
                    "name": "E3",
                    "midi": 52,
                    "time": 468.86096266664873,
                    "velocity": 0.2283464566929134,
                    "duration": 0.18987349999997605
                },
                {
                    "name": "E3",
                    "midi": 52,
                    "time": 469.11412733331537,
                    "velocity": 0.2204724409448819,
                    "duration": 0.18987349999997605
                },
                {
                    "name": "C3",
                    "midi": 48,
                    "time": 469.11412733331537,
                    "velocity": 0.18110236220472442,
                    "duration": 0.18987349999997605
                },
                {
                    "name": "D2",
                    "midi": 38,
                    "time": 469.367291999982,
                    "velocity": 0.28346456692913385,
                    "duration": 0.18987349999997605
                },
                {
                    "name": "D3",
                    "midi": 50,
                    "time": 469.62045666664864,
                    "velocity": 0.16535433070866143,
                    "duration": 0.18987349999997605
                },
                {
                    "name": "G3",
                    "midi": 55,
                    "time": 469.62045666664864,
                    "velocity": 0.2047244094488189,
                    "duration": 0.18987349999997605
                },
                {
                    "name": "G3",
                    "midi": 55,
                    "time": 469.87362133331527,
                    "velocity": 0.2047244094488189,
                    "duration": 0.18987349999997605
                },
                {
                    "name": "D3",
                    "midi": 50,
                    "time": 469.87362133331527,
                    "velocity": 0.1732283464566929,
                    "duration": 0.18987349999997605
                },
                {
                    "name": "D2",
                    "midi": 38,
                    "time": 470.1267859999819,
                    "velocity": 0.2677165354330709,
                    "duration": 0.18987349999997605
                },
                {
                    "name": "D3",
                    "midi": 50,
                    "time": 470.37995066664854,
                    "velocity": 0.16535433070866143,
                    "duration": 0.18987349999997605
                },
                {
                    "name": "F#3",
                    "midi": 54,
                    "time": 470.37995066664854,
                    "velocity": 0.2047244094488189,
                    "duration": 0.18987349999997605
                },
                {
                    "name": "D3",
                    "midi": 50,
                    "time": 470.6331153333152,
                    "velocity": 0.16535433070866143,
                    "duration": 0.18987349999997605
                },
                {
                    "name": "F#3",
                    "midi": 54,
                    "time": 470.6331153333152,
                    "velocity": 0.1968503937007874,
                    "duration": 0.18987349999997605
                },
                {
                    "name": "G2",
                    "midi": 43,
                    "time": 470.8862799999818,
                    "velocity": 0.25984251968503935,
                    "duration": 0.18987349999997605
                },
                {
                    "name": "B3",
                    "midi": 59,
                    "time": 471.13944466664844,
                    "velocity": 0.18110236220472442,
                    "duration": 0.18987349999997605
                },
                {
                    "name": "D3",
                    "midi": 50,
                    "time": 471.13944466664844,
                    "velocity": 0.14960629921259844,
                    "duration": 0.18987349999997605
                },
                {
                    "name": "G3",
                    "midi": 55,
                    "time": 471.13944466664844,
                    "velocity": 0.14960629921259844,
                    "duration": 0.18987349999997605
                },
                {
                    "name": "G3",
                    "midi": 55,
                    "time": 471.3926093333151,
                    "velocity": 0.14960629921259844,
                    "duration": 0.18987349999997605
                },
                {
                    "name": "B3",
                    "midi": 59,
                    "time": 471.3926093333151,
                    "velocity": 0.18110236220472442,
                    "duration": 0.18987349999997605
                },
                {
                    "name": "D3",
                    "midi": 50,
                    "time": 471.3926093333151,
                    "velocity": 0.14960629921259844,
                    "duration": 0.18987349999997605
                },
                {
                    "name": "B3",
                    "midi": 59,
                    "time": 471.6457739999817,
                    "velocity": 0.1968503937007874,
                    "duration": 0.18987349999997605
                },
                {
                    "name": "D3",
                    "midi": 50,
                    "time": 471.6457739999817,
                    "velocity": 0.16535433070866143,
                    "duration": 0.18987349999997605
                },
                {
                    "name": "G3",
                    "midi": 55,
                    "time": 471.6457739999817,
                    "velocity": 0.16535433070866143,
                    "duration": 0.18987349999997605
                },
                {
                    "name": "B3",
                    "midi": 59,
                    "time": 471.89893866664835,
                    "velocity": 0.1968503937007874,
                    "duration": 0.18987349999997605
                },
                {
                    "name": "G3",
                    "midi": 55,
                    "time": 471.89893866664835,
                    "velocity": 0.16535433070866143,
                    "duration": 0.18987349999997605
                },
                {
                    "name": "D3",
                    "midi": 50,
                    "time": 471.89893866664835,
                    "velocity": 0.16535433070866143,
                    "duration": 0.18987349999997605
                },
                {
                    "name": "B3",
                    "midi": 59,
                    "time": 472.152103333315,
                    "velocity": 0.1968503937007874,
                    "duration": 0.18987349999997605
                },
                {
                    "name": "D3",
                    "midi": 50,
                    "time": 472.152103333315,
                    "velocity": 0.16535433070866143,
                    "duration": 0.18987349999997605
                },
                {
                    "name": "G3",
                    "midi": 55,
                    "time": 472.152103333315,
                    "velocity": 0.16535433070866143,
                    "duration": 0.18987349999997605
                },
                {
                    "name": "B3",
                    "midi": 59,
                    "time": 472.4052679999816,
                    "velocity": 0.25196850393700787,
                    "duration": 0.18987349999997605
                },
                {
                    "name": "D3",
                    "midi": 50,
                    "time": 472.4052679999816,
                    "velocity": 0.2125984251968504,
                    "duration": 0.18987349999997605
                },
                {
                    "name": "G3",
                    "midi": 55,
                    "time": 472.4052679999816,
                    "velocity": 0.2125984251968504,
                    "duration": 0.18987349999997605
                },
                {
                    "name": "G3",
                    "midi": 55,
                    "time": 472.65843266664825,
                    "velocity": 0.15748031496062992,
                    "duration": 0.18987349999997605
                },
                {
                    "name": "B3",
                    "midi": 59,
                    "time": 472.65843266664825,
                    "velocity": 0.1889763779527559,
                    "duration": 0.18987349999997605
                },
                {
                    "name": "D3",
                    "midi": 50,
                    "time": 472.65843266664825,
                    "velocity": 0.15748031496062992,
                    "duration": 0.18987349999997605
                },
                {
                    "name": "D3",
                    "midi": 50,
                    "time": 472.9115973333149,
                    "velocity": 0.16535433070866143,
                    "duration": 0.18987349999997605
                },
                {
                    "name": "G3",
                    "midi": 55,
                    "time": 472.9115973333149,
                    "velocity": 0.16535433070866143,
                    "duration": 0.18987349999997605
                },
                {
                    "name": "B3",
                    "midi": 59,
                    "time": 472.9115973333149,
                    "velocity": 0.1968503937007874,
                    "duration": 0.18987349999997605
                },
                {
                    "name": "B3",
                    "midi": 59,
                    "time": 473.1647619999815,
                    "velocity": 0.25984251968503935,
                    "duration": 0.18987349999997605
                },
                {
                    "name": "G3",
                    "midi": 55,
                    "time": 473.1647619999815,
                    "velocity": 0.2204724409448819,
                    "duration": 0.18987349999997605
                },
                {
                    "name": "D3",
                    "midi": 50,
                    "time": 473.1647619999815,
                    "velocity": 0.2204724409448819,
                    "duration": 0.18987349999997605
                },
                {
                    "name": "D3",
                    "midi": 50,
                    "time": 473.41792666664816,
                    "velocity": 0.16535433070866143,
                    "duration": 0.18987349999997605
                },
                {
                    "name": "G3",
                    "midi": 55,
                    "time": 473.41792666664816,
                    "velocity": 0.16535433070866143,
                    "duration": 0.18987349999997605
                },
                {
                    "name": "B3",
                    "midi": 59,
                    "time": 473.41792666664816,
                    "velocity": 0.1968503937007874,
                    "duration": 0.18987349999997605
                },
                {
                    "name": "D3",
                    "midi": 50,
                    "time": 473.6710913333148,
                    "velocity": 0.16535433070866143,
                    "duration": 0.18987349999997605
                },
                {
                    "name": "B3",
                    "midi": 59,
                    "time": 473.6710913333148,
                    "velocity": 0.1968503937007874,
                    "duration": 0.18987349999997605
                },
                {
                    "name": "G3",
                    "midi": 55,
                    "time": 473.6710913333148,
                    "velocity": 0.16535433070866143,
                    "duration": 0.18987349999997605
                },
                {
                    "name": "C2",
                    "midi": 36,
                    "time": 473.9242559999814,
                    "velocity": 0.25984251968503935,
                    "duration": 0.18987349999997605
                },
                {
                    "name": "C3",
                    "midi": 48,
                    "time": 474.17742066664806,
                    "velocity": 0.14960629921259844,
                    "duration": 0.18987349999997605
                },
                {
                    "name": "E3",
                    "midi": 52,
                    "time": 474.17742066664806,
                    "velocity": 0.14960629921259844,
                    "duration": 0.18987349999997605
                },
                {
                    "name": "B3",
                    "midi": 59,
                    "time": 474.17742066664806,
                    "velocity": 0.18110236220472442,
                    "duration": 0.18987349999997605
                },
                {
                    "name": "B3",
                    "midi": 59,
                    "time": 474.4305853333147,
                    "velocity": 0.18110236220472442,
                    "duration": 0.18987349999997605
                },
                {
                    "name": "E3",
                    "midi": 52,
                    "time": 474.4305853333147,
                    "velocity": 0.14960629921259844,
                    "duration": 0.18987349999997605
                },
                {
                    "name": "C3",
                    "midi": 48,
                    "time": 474.4305853333147,
                    "velocity": 0.14960629921259844,
                    "duration": 0.18987349999997605
                },
                {
                    "name": "C3",
                    "midi": 48,
                    "time": 474.68374999998133,
                    "velocity": 0.1968503937007874,
                    "duration": 0.18987349999997605
                },
                {
                    "name": "B3",
                    "midi": 59,
                    "time": 474.68374999998133,
                    "velocity": 0.23622047244094488,
                    "duration": 0.18987349999997605
                },
                {
                    "name": "E3",
                    "midi": 52,
                    "time": 474.68374999998133,
                    "velocity": 0.1968503937007874,
                    "duration": 0.18987349999997605
                },
                {
                    "name": "E3",
                    "midi": 52,
                    "time": 474.93691466664797,
                    "velocity": 0.16535433070866143,
                    "duration": 0.18987349999997605
                },
                {
                    "name": "B3",
                    "midi": 59,
                    "time": 474.93691466664797,
                    "velocity": 0.1968503937007874,
                    "duration": 0.18987349999997605
                },
                {
                    "name": "C3",
                    "midi": 48,
                    "time": 474.93691466664797,
                    "velocity": 0.16535433070866143,
                    "duration": 0.18987349999997605
                },
                {
                    "name": "E3",
                    "midi": 52,
                    "time": 475.1900793333146,
                    "velocity": 0.16535433070866143,
                    "duration": 0.18987349999997605
                },
                {
                    "name": "C3",
                    "midi": 48,
                    "time": 475.1900793333146,
                    "velocity": 0.16535433070866143,
                    "duration": 0.18987349999997605
                },
                {
                    "name": "B3",
                    "midi": 59,
                    "time": 475.1900793333146,
                    "velocity": 0.1968503937007874,
                    "duration": 0.18987349999997605
                },
                {
                    "name": "A3",
                    "midi": 57,
                    "time": 475.44324399998123,
                    "velocity": 0.25196850393700787,
                    "duration": 0.18987349999997605
                },
                {
                    "name": "E3",
                    "midi": 52,
                    "time": 475.44324399998123,
                    "velocity": 0.2125984251968504,
                    "duration": 0.18987349999997605
                },
                {
                    "name": "C3",
                    "midi": 48,
                    "time": 475.44324399998123,
                    "velocity": 0.2125984251968504,
                    "duration": 0.18987349999997605
                },
                {
                    "name": "E3",
                    "midi": 52,
                    "time": 475.69640866664787,
                    "velocity": 0.15748031496062992,
                    "duration": 0.18987349999997605
                },
                {
                    "name": "A3",
                    "midi": 57,
                    "time": 475.69640866664787,
                    "velocity": 0.1889763779527559,
                    "duration": 0.18987349999997605
                },
                {
                    "name": "C3",
                    "midi": 48,
                    "time": 475.69640866664787,
                    "velocity": 0.15748031496062992,
                    "duration": 0.18987349999997605
                },
                {
                    "name": "E3",
                    "midi": 52,
                    "time": 475.9495733333145,
                    "velocity": 0.16535433070866143,
                    "duration": 0.18987349999997605
                },
                {
                    "name": "A3",
                    "midi": 57,
                    "time": 475.9495733333145,
                    "velocity": 0.1968503937007874,
                    "duration": 0.18987349999997605
                },
                {
                    "name": "C3",
                    "midi": 48,
                    "time": 475.9495733333145,
                    "velocity": 0.16535433070866143,
                    "duration": 0.18987349999997605
                },
                {
                    "name": "E3",
                    "midi": 52,
                    "time": 476.20273799998114,
                    "velocity": 0.2204724409448819,
                    "duration": 0.18987349999997605
                },
                {
                    "name": "A3",
                    "midi": 57,
                    "time": 476.20273799998114,
                    "velocity": 0.25984251968503935,
                    "duration": 0.18987349999997605
                },
                {
                    "name": "C3",
                    "midi": 48,
                    "time": 476.20273799998114,
                    "velocity": 0.2204724409448819,
                    "duration": 0.18987349999997605
                },
                {
                    "name": "E3",
                    "midi": 52,
                    "time": 476.4559026666478,
                    "velocity": 0.16535433070866143,
                    "duration": 0.18987349999997605
                },
                {
                    "name": "C3",
                    "midi": 48,
                    "time": 476.4559026666478,
                    "velocity": 0.16535433070866143,
                    "duration": 0.18987349999997605
                },
                {
                    "name": "A3",
                    "midi": 57,
                    "time": 476.4559026666478,
                    "velocity": 0.1968503937007874,
                    "duration": 0.18987349999997605
                },
                {
                    "name": "C3",
                    "midi": 48,
                    "time": 476.7090673333144,
                    "velocity": 0.16535433070866143,
                    "duration": 0.18987349999997605
                },
                {
                    "name": "A3",
                    "midi": 57,
                    "time": 476.7090673333144,
                    "velocity": 0.1968503937007874,
                    "duration": 0.18987349999997605
                },
                {
                    "name": "E3",
                    "midi": 52,
                    "time": 476.7090673333144,
                    "velocity": 0.16535433070866143,
                    "duration": 0.18987349999997605
                },
                {
                    "name": "B1",
                    "midi": 35,
                    "time": 476.96223199998104,
                    "velocity": 0.25984251968503935,
                    "duration": 0.18987349999997605
                },
                {
                    "name": "A3",
                    "midi": 57,
                    "time": 477.2153966666477,
                    "velocity": 0.18110236220472442,
                    "duration": 0.18987349999997605
                },
                {
                    "name": "D3",
                    "midi": 50,
                    "time": 477.2153966666477,
                    "velocity": 0.14960629921259844,
                    "duration": 0.18987349999997605
                },
                {
                    "name": "B2",
                    "midi": 47,
                    "time": 477.2153966666477,
                    "velocity": 0.14960629921259844,
                    "duration": 0.18987349999997605
                },
                {
                    "name": "A3",
                    "midi": 57,
                    "time": 477.4685613333143,
                    "velocity": 0.18110236220472442,
                    "duration": 0.18987349999997605
                },
                {
                    "name": "B2",
                    "midi": 47,
                    "time": 477.4685613333143,
                    "velocity": 0.14960629921259844,
                    "duration": 0.18987349999997605
                },
                {
                    "name": "D3",
                    "midi": 50,
                    "time": 477.4685613333143,
                    "velocity": 0.14960629921259844,
                    "duration": 0.18987349999997605
                },
                {
                    "name": "D3",
                    "midi": 50,
                    "time": 477.72172599998095,
                    "velocity": 0.1968503937007874,
                    "duration": 0.18987349999997605
                },
                {
                    "name": "A3",
                    "midi": 57,
                    "time": 477.72172599998095,
                    "velocity": 0.23622047244094488,
                    "duration": 0.18987349999997605
                },
                {
                    "name": "B2",
                    "midi": 47,
                    "time": 477.72172599998095,
                    "velocity": 0.1968503937007874,
                    "duration": 0.18987349999997605
                },
                {
                    "name": "D3",
                    "midi": 50,
                    "time": 477.9748906666476,
                    "velocity": 0.16535433070866143,
                    "duration": 0.18987349999997605
                },
                {
                    "name": "B2",
                    "midi": 47,
                    "time": 477.9748906666476,
                    "velocity": 0.16535433070866143,
                    "duration": 0.18987349999997605
                },
                {
                    "name": "A3",
                    "midi": 57,
                    "time": 477.9748906666476,
                    "velocity": 0.1968503937007874,
                    "duration": 0.18987349999997605
                },
                {
                    "name": "A3",
                    "midi": 57,
                    "time": 478.2280553333142,
                    "velocity": 0.1968503937007874,
                    "duration": 0.18987349999997605
                },
                {
                    "name": "B2",
                    "midi": 47,
                    "time": 478.2280553333142,
                    "velocity": 0.16535433070866143,
                    "duration": 0.18987349999997605
                },
                {
                    "name": "D3",
                    "midi": 50,
                    "time": 478.2280553333142,
                    "velocity": 0.16535433070866143,
                    "duration": 0.18987349999997605
                },
                {
                    "name": "D3",
                    "midi": 50,
                    "time": 478.48121999998085,
                    "velocity": 0.2283464566929134,
                    "duration": 0.18987349999997605
                },
                {
                    "name": "B2",
                    "midi": 47,
                    "time": 478.48121999998085,
                    "velocity": 0.2283464566929134,
                    "duration": 0.18987349999997605
                },
                {
                    "name": "G3",
                    "midi": 55,
                    "time": 478.48121999998085,
                    "velocity": 0.2755905511811024,
                    "duration": 0.18987349999997605
                },
                {
                    "name": "G3",
                    "midi": 55,
                    "time": 478.7343846666475,
                    "velocity": 0.2125984251968504,
                    "duration": 0.18987349999997605
                },
                {
                    "name": "B2",
                    "midi": 47,
                    "time": 478.7343846666475,
                    "velocity": 0.1732283464566929,
                    "duration": 0.18987349999997605
                },
                {
                    "name": "D3",
                    "midi": 50,
                    "time": 478.7343846666475,
                    "velocity": 0.1732283464566929,
                    "duration": 0.18987349999997605
                },
                {
                    "name": "D3",
                    "midi": 50,
                    "time": 478.9875493333141,
                    "velocity": 0.1889763779527559,
                    "duration": 0.18987349999997605
                },
                {
                    "name": "B2",
                    "midi": 47,
                    "time": 478.9875493333141,
                    "velocity": 0.1889763779527559,
                    "duration": 0.18987349999997605
                },
                {
                    "name": "G3",
                    "midi": 55,
                    "time": 478.9875493333141,
                    "velocity": 0.2283464566929134,
                    "duration": 0.18987349999997605
                },
                {
                    "name": "D3",
                    "midi": 50,
                    "time": 479.24071399998076,
                    "velocity": 0.25984251968503935,
                    "duration": 0.18987349999997605
                },
                {
                    "name": "G3",
                    "midi": 55,
                    "time": 479.24071399998076,
                    "velocity": 0.30708661417322836,
                    "duration": 0.18987349999997605
                },
                {
                    "name": "B2",
                    "midi": 47,
                    "time": 479.24071399998076,
                    "velocity": 0.25984251968503935,
                    "duration": 0.18987349999997605
                },
                {
                    "name": "D3",
                    "midi": 50,
                    "time": 479.4938786666474,
                    "velocity": 0.1968503937007874,
                    "duration": 0.18987349999997605
                },
                {
                    "name": "B2",
                    "midi": 47,
                    "time": 479.4938786666474,
                    "velocity": 0.1968503937007874,
                    "duration": 0.18987349999997605
                },
                {
                    "name": "G3",
                    "midi": 55,
                    "time": 479.4938786666474,
                    "velocity": 0.23622047244094488,
                    "duration": 0.18987349999997605
                },
                {
                    "name": "D3",
                    "midi": 50,
                    "time": 479.747043333314,
                    "velocity": 0.2047244094488189,
                    "duration": 0.18987349999997605
                },
                {
                    "name": "G3",
                    "midi": 55,
                    "time": 479.747043333314,
                    "velocity": 0.2440944881889764,
                    "duration": 0.18987349999997605
                },
                {
                    "name": "B2",
                    "midi": 47,
                    "time": 479.747043333314,
                    "velocity": 0.2047244094488189,
                    "duration": 0.18987349999997605
                },
                {
                    "name": "C2",
                    "midi": 36,
                    "time": 480.00020799998066,
                    "velocity": 0.33070866141732286,
                    "duration": 0.18987349999997605
                },
                {
                    "name": "G3",
                    "midi": 55,
                    "time": 480.2533726666473,
                    "velocity": 0.23622047244094488,
                    "duration": 0.18987349999997605
                },
                {
                    "name": "C3",
                    "midi": 48,
                    "time": 480.2533726666473,
                    "velocity": 0.1968503937007874,
                    "duration": 0.18987349999997605
                },
                {
                    "name": "E3",
                    "midi": 52,
                    "time": 480.2533726666473,
                    "velocity": 0.1968503937007874,
                    "duration": 0.18987349999997605
                },
                {
                    "name": "E3",
                    "midi": 52,
                    "time": 480.50653733331393,
                    "velocity": 0.2047244094488189,
                    "duration": 0.18987349999997605
                },
                {
                    "name": "G3",
                    "midi": 55,
                    "time": 480.50653733331393,
                    "velocity": 0.2440944881889764,
                    "duration": 0.18987349999997605
                },
                {
                    "name": "C3",
                    "midi": 48,
                    "time": 480.50653733331393,
                    "velocity": 0.2047244094488189,
                    "duration": 0.18987349999997605
                },
                {
                    "name": "E3",
                    "midi": 52,
                    "time": 480.75970199998056,
                    "velocity": 0.25984251968503935,
                    "duration": 0.18987349999997605
                },
                {
                    "name": "G#3",
                    "midi": 56,
                    "time": 480.75970199998056,
                    "velocity": 0.30708661417322836,
                    "duration": 0.18987349999997605
                },
                {
                    "name": "C3",
                    "midi": 48,
                    "time": 480.75970199998056,
                    "velocity": 0.25984251968503935,
                    "duration": 0.18987349999997605
                },
                {
                    "name": "E3",
                    "midi": 52,
                    "time": 481.0128666666472,
                    "velocity": 0.1889763779527559,
                    "duration": 0.18987349999997605
                },
                {
                    "name": "C3",
                    "midi": 48,
                    "time": 481.0128666666472,
                    "velocity": 0.1889763779527559,
                    "duration": 0.18987349999997605
                },
                {
                    "name": "G#3",
                    "midi": 56,
                    "time": 481.0128666666472,
                    "velocity": 0.2283464566929134,
                    "duration": 0.18987349999997605
                },
                {
                    "name": "A3",
                    "midi": 57,
                    "time": 481.26603133331383,
                    "velocity": 0.2204724409448819,
                    "duration": 0.18987349999997605
                },
                {
                    "name": "C3",
                    "midi": 48,
                    "time": 481.26603133331383,
                    "velocity": 0.18110236220472442,
                    "duration": 0.18987349999997605
                },
                {
                    "name": "E3",
                    "midi": 52,
                    "time": 481.26603133331383,
                    "velocity": 0.18110236220472442,
                    "duration": 0.18987349999997605
                },
                {
                    "name": "D2",
                    "midi": 38,
                    "time": 481.51919599998047,
                    "velocity": 0.28346456692913385,
                    "duration": 0.18987349999997605
                },
                {
                    "name": "D3",
                    "midi": 50,
                    "time": 481.7723606666471,
                    "velocity": 0.16535433070866143,
                    "duration": 0.18987349999997605
                },
                {
                    "name": "G3",
                    "midi": 55,
                    "time": 481.7723606666471,
                    "velocity": 0.2047244094488189,
                    "duration": 0.18987349999997605
                },
                {
                    "name": "D3",
                    "midi": 50,
                    "time": 482.02552533331374,
                    "velocity": 0.1732283464566929,
                    "duration": 0.18987349999997605
                },
                {
                    "name": "G3",
                    "midi": 55,
                    "time": 482.02552533331374,
                    "velocity": 0.2047244094488189,
                    "duration": 0.18987349999997605
                },
                {
                    "name": "D2",
                    "midi": 38,
                    "time": 482.2786899999804,
                    "velocity": 0.2677165354330709,
                    "duration": 0.18987349999997605
                },
                {
                    "name": "F#3",
                    "midi": 54,
                    "time": 482.531854666647,
                    "velocity": 0.16535433070866143,
                    "duration": 0.18987349999997605
                },
                {
                    "name": "A3",
                    "midi": 57,
                    "time": 482.531854666647,
                    "velocity": 0.2047244094488189,
                    "duration": 0.18987349999997605
                },
                {
                    "name": "D3",
                    "midi": 50,
                    "time": 482.531854666647,
                    "velocity": 0.16535433070866143,
                    "duration": 0.18987349999997605
                },
                {
                    "name": "F#3",
                    "midi": 54,
                    "time": 482.78501933331364,
                    "velocity": 0.16535433070866143,
                    "duration": 0.18987349999997605
                },
                {
                    "name": "A3",
                    "midi": 57,
                    "time": 482.78501933331364,
                    "velocity": 0.1968503937007874,
                    "duration": 0.18987349999997605
                },
                {
                    "name": "D3",
                    "midi": 50,
                    "time": 482.78501933331364,
                    "velocity": 0.16535433070866143,
                    "duration": 0.18987349999997605
                },
                {
                    "name": "G2",
                    "midi": 43,
                    "time": 483.0381839999803,
                    "velocity": 0.3779527559055118,
                    "duration": 0.7594940000000179
                },
                {
                    "name": "D3",
                    "midi": 50,
                    "time": 483.0381839999803,
                    "velocity": 0.3779527559055118,
                    "duration": 0.7594940000000179
                },
                {
                    "name": "G3",
                    "midi": 55,
                    "time": 483.0381839999803,
                    "velocity": 0.3779527559055118,
                    "duration": 0.7594940000000179
                },
                {
                    "name": "B2",
                    "midi": 47,
                    "time": 485.3166659999803,
                    "velocity": 0.2755905511811024,
                    "duration": 0.569620499999985
                },
                {
                    "name": "C3",
                    "midi": 48,
                    "time": 485.88628649998026,
                    "velocity": 0.23622047244094488,
                    "duration": 0.18987349999997605
                },
                {
                    "name": "D3",
                    "midi": 50,
                    "time": 486.07615999998023,
                    "velocity": 0.31496062992125984,
                    "duration": 0.5348103583333454
                },
                {
                    "name": "D3",
                    "midi": 50,
                    "time": 486.83565399998025,
                    "velocity": 0.25984251968503935,
                    "duration": 0.5348103583333454
                },
                {
                    "name": "D3",
                    "midi": 50,
                    "time": 487.59514799998027,
                    "velocity": 0.25984251968503935,
                    "duration": 0.5348103583333454
                },
                {
                    "name": "C3",
                    "midi": 48,
                    "time": 488.3546419999803,
                    "velocity": 0.28346456692913385,
                    "duration": 0.569620499999985
                },
                {
                    "name": "D3",
                    "midi": 50,
                    "time": 488.9242624999803,
                    "velocity": 0.29133858267716534,
                    "duration": 0.18987349999997605
                },
                {
                    "name": "D#3",
                    "midi": 51,
                    "time": 489.11413599998025,
                    "velocity": 0.33070866141732286,
                    "duration": 1.1392410000000268
                },
                {
                    "name": "D3",
                    "midi": 50,
                    "time": 490.2533769999803,
                    "velocity": 0.2755905511811024,
                    "duration": 0.37974700000000894
                },
                {
                    "name": "C3",
                    "midi": 48,
                    "time": 490.6331239999803,
                    "velocity": 0.2440944881889764,
                    "duration": 0.7594940000000179
                },
                {
                    "name": "A#2",
                    "midi": 46,
                    "time": 491.3926179999803,
                    "velocity": 0.30708661417322836,
                    "duration": 0.569620499999985
                },
                {
                    "name": "G#2",
                    "midi": 44,
                    "time": 491.9622384999803,
                    "velocity": 0.25984251968503935,
                    "duration": 0.18987349999997605
                },
                {
                    "name": "G2",
                    "midi": 43,
                    "time": 492.15211199998026,
                    "velocity": 0.28346456692913385,
                    "duration": 0.7594940000000179
                },
                {
                    "name": "G2",
                    "midi": 43,
                    "time": 492.9116059999803,
                    "velocity": 0.28346456692913385,
                    "duration": 0.7594940000000179
                },
                {
                    "name": "G2",
                    "midi": 43,
                    "time": 493.6710999999803,
                    "velocity": 0.28346456692913385,
                    "duration": 0.7594940000000179
                },
                {
                    "name": "G2",
                    "midi": 43,
                    "time": 494.4305939999803,
                    "velocity": 0.28346456692913385,
                    "duration": 0.7594940000000179
                },
                {
                    "name": "C3",
                    "midi": 48,
                    "time": 495.19008799998034,
                    "velocity": 0.3779527559055118,
                    "duration": 1.518987999999979
                },
                {
                    "name": "B1",
                    "midi": 35,
                    "time": 497.46856999998033,
                    "velocity": 0.33070866141732286,
                    "duration": 0.569620499999985
                },
                {
                    "name": "B2",
                    "midi": 47,
                    "time": 497.46856999998033,
                    "velocity": 0.3937007874015748,
                    "duration": 0.569620499999985
                },
                {
                    "name": "C2",
                    "midi": 36,
                    "time": 498.0381904999803,
                    "velocity": 0.29133858267716534,
                    "duration": 0.18987349999997605
                },
                {
                    "name": "C3",
                    "midi": 48,
                    "time": 498.0381904999803,
                    "velocity": 0.3464566929133858,
                    "duration": 0.18987349999997605
                },
                {
                    "name": "D3",
                    "midi": 50,
                    "time": 498.2280639999803,
                    "velocity": 0.4881889763779528,
                    "duration": 0.5348103583333454
                },
                {
                    "name": "D2",
                    "midi": 38,
                    "time": 498.2280639999803,
                    "velocity": 0.4015748031496063,
                    "duration": 0.569620499999985
                },
                {
                    "name": "D2",
                    "midi": 38,
                    "time": 498.98755799998025,
                    "velocity": 0.33070866141732286,
                    "duration": 0.569620499999985
                },
                {
                    "name": "D3",
                    "midi": 50,
                    "time": 498.98755799998025,
                    "velocity": 0.3937007874015748,
                    "duration": 0.5348103583333454
                },
                {
                    "name": "D2",
                    "midi": 38,
                    "time": 499.7470519999802,
                    "velocity": 0.33070866141732286,
                    "duration": 0.569620499999985
                },
                {
                    "name": "D3",
                    "midi": 50,
                    "time": 499.7470519999802,
                    "velocity": 0.3937007874015748,
                    "duration": 0.5348103583333454
                },
                {
                    "name": "C2",
                    "midi": 36,
                    "time": 500.5065459999802,
                    "velocity": 0.3937007874015748,
                    "duration": 0.569620499999985
                },
                {
                    "name": "C3",
                    "midi": 48,
                    "time": 500.5065459999802,
                    "velocity": 0.4645669291338583,
                    "duration": 0.569620499999985
                },
                {
                    "name": "D2",
                    "midi": 38,
                    "time": 501.07616649998016,
                    "velocity": 0.44881889763779526,
                    "duration": 0.18987349999997605
                },
                {
                    "name": "D3",
                    "midi": 50,
                    "time": 501.07616649998016,
                    "velocity": 0.5275590551181102,
                    "duration": 0.18987349999997605
                },
                {
                    "name": "D#2",
                    "midi": 39,
                    "time": 501.26603999998014,
                    "velocity": 0.49606299212598426,
                    "duration": 1.1392410000000268
                },
                {
                    "name": "D#3",
                    "midi": 51,
                    "time": 501.26603999998014,
                    "velocity": 0.5984251968503937,
                    "duration": 1.1392410000000268
                },
                {
                    "name": "D2",
                    "midi": 38,
                    "time": 502.40528099998016,
                    "velocity": 0.4251968503937008,
                    "duration": 0.37974700000000894
                },
                {
                    "name": "D3",
                    "midi": 50,
                    "time": 502.40528099998016,
                    "velocity": 0.5039370078740157,
                    "duration": 0.37974700000000894
                },
                {
                    "name": "C2",
                    "midi": 36,
                    "time": 502.7850279999802,
                    "velocity": 0.36220472440944884,
                    "duration": 0.7594940000000179
                },
                {
                    "name": "C3",
                    "midi": 48,
                    "time": 502.7850279999802,
                    "velocity": 0.4330708661417323,
                    "duration": 0.7594940000000179
                },
                {
                    "name": "A#1",
                    "midi": 34,
                    "time": 503.5445219999802,
                    "velocity": 0.44881889763779526,
                    "duration": 0.569620499999985
                },
                {
                    "name": "A#2",
                    "midi": 46,
                    "time": 503.5445219999802,
                    "velocity": 0.5275590551181102,
                    "duration": 0.569620499999985
                },
                {
                    "name": "G#2",
                    "midi": 44,
                    "time": 504.1141424999802,
                    "velocity": 0.4330708661417323,
                    "duration": 0.18987349999997605
                },
                {
                    "name": "G#1",
                    "midi": 32,
                    "time": 504.1141424999802,
                    "velocity": 0.36220472440944884,
                    "duration": 0.18987349999997605
                },
                {
                    "name": "G1",
                    "midi": 31,
                    "time": 504.30401599998015,
                    "velocity": 0.36220472440944884,
                    "duration": 0.7594940000000179
                },
                {
                    "name": "G2",
                    "midi": 43,
                    "time": 504.30401599998015,
                    "velocity": 0.4330708661417323,
                    "duration": 0.7594940000000179
                },
                {
                    "name": "G1",
                    "midi": 31,
                    "time": 505.06350999998017,
                    "velocity": 0.36220472440944884,
                    "duration": 0.7594940000000179
                },
                {
                    "name": "G2",
                    "midi": 43,
                    "time": 505.06350999998017,
                    "velocity": 0.4330708661417323,
                    "duration": 0.7594940000000179
                },
                {
                    "name": "G2",
                    "midi": 43,
                    "time": 505.8230039999802,
                    "velocity": 0.4330708661417323,
                    "duration": 0.7594940000000179
                },
                {
                    "name": "G1",
                    "midi": 31,
                    "time": 505.8230039999802,
                    "velocity": 0.36220472440944884,
                    "duration": 0.7594940000000179
                },
                {
                    "name": "G2",
                    "midi": 43,
                    "time": 506.5824979999802,
                    "velocity": 0.4330708661417323,
                    "duration": 0.7594940000000179
                },
                {
                    "name": "G1",
                    "midi": 31,
                    "time": 506.5824979999802,
                    "velocity": 0.36220472440944884,
                    "duration": 0.7594940000000179
                },
                {
                    "name": "C2",
                    "midi": 36,
                    "time": 507.3419919999802,
                    "velocity": 0.31496062992125984,
                    "duration": 0.2531646666666916
                },
                {
                    "name": "C3",
                    "midi": 48,
                    "time": 507.3419919999802,
                    "velocity": 0.31496062992125984,
                    "duration": 0.2531646666666916
                },
                {
                    "name": "G3",
                    "midi": 55,
                    "time": 507.5951566666469,
                    "velocity": 0.2440944881889764,
                    "duration": 0.18987349999997605
                },
                {
                    "name": "G3",
                    "midi": 55,
                    "time": 507.84832133331355,
                    "velocity": 0.2440944881889764,
                    "duration": 0.18987349999997605
                },
                {
                    "name": "G3",
                    "midi": 55,
                    "time": 508.1014859999802,
                    "velocity": 0.2440944881889764,
                    "duration": 0.18987349999997605
                },
                {
                    "name": "G3",
                    "midi": 55,
                    "time": 508.3546506666468,
                    "velocity": 0.2283464566929134,
                    "duration": 0.18987349999997605
                },
                {
                    "name": "G3",
                    "midi": 55,
                    "time": 508.60781533331345,
                    "velocity": 0.2283464566929134,
                    "duration": 0.18987349999997605
                },
                {
                    "name": "G3",
                    "midi": 55,
                    "time": 508.8609799999801,
                    "velocity": 0.2283464566929134,
                    "duration": 0.18987349999997605
                },
                {
                    "name": "G3",
                    "midi": 55,
                    "time": 509.1141446666467,
                    "velocity": 0.2204724409448819,
                    "duration": 0.18987349999997605
                },
                {
                    "name": "G3",
                    "midi": 55,
                    "time": 509.36730933331336,
                    "velocity": 0.2204724409448819,
                    "duration": 0.18987349999997605
                },
                {
                    "name": "G3",
                    "midi": 55,
                    "time": 509.62047399998,
                    "velocity": 0.2440944881889764,
                    "duration": 0.18987349999997605
                },
                {
                    "name": "G3",
                    "midi": 55,
                    "time": 509.8736386666466,
                    "velocity": 0.23622047244094488,
                    "duration": 0.18987349999997605
                },
                {
                    "name": "G3",
                    "midi": 55,
                    "time": 510.12680333331326,
                    "velocity": 0.23622047244094488,
                    "duration": 0.18987349999997605
                },
                {
                    "name": "G3",
                    "midi": 55,
                    "time": 510.3799679999799,
                    "velocity": 0.2440944881889764,
                    "duration": 0.18987349999997605
                },
                {
                    "name": "G3",
                    "midi": 55,
                    "time": 510.63313266664653,
                    "velocity": 0.2125984251968504,
                    "duration": 0.18987349999997605
                },
                {
                    "name": "G3",
                    "midi": 55,
                    "time": 510.88629733331317,
                    "velocity": 0.2125984251968504,
                    "duration": 0.18987349999997605
                },
                {
                    "name": "G3",
                    "midi": 55,
                    "time": 511.1394619999798,
                    "velocity": 0.2440944881889764,
                    "duration": 0.18987349999997605
                },
                {
                    "name": "G3",
                    "midi": 55,
                    "time": 511.39262666664644,
                    "velocity": 0.2204724409448819,
                    "duration": 0.18987349999997605
                },
                {
                    "name": "G3",
                    "midi": 55,
                    "time": 511.64579133331307,
                    "velocity": 0.2204724409448819,
                    "duration": 0.18987349999997605
                },
                {
                    "name": "G3",
                    "midi": 55,
                    "time": 511.8989559999797,
                    "velocity": 0.2440944881889764,
                    "duration": 0.1898735000000329
                },
                {
                    "name": "G3",
                    "midi": 55,
                    "time": 512.1521206666464,
                    "velocity": 0.2440944881889764,
                    "duration": 0.18987349999997605
                },
                {
                    "name": "G3",
                    "midi": 55,
                    "time": 512.405285333313,
                    "velocity": 0.2440944881889764,
                    "duration": 0.18987349999997605
                },
                {
                    "name": "G3",
                    "midi": 55,
                    "time": 512.6584499999797,
                    "velocity": 0.2440944881889764,
                    "duration": 0.18987349999997605
                },
                {
                    "name": "G3",
                    "midi": 55,
                    "time": 512.9116146666463,
                    "velocity": 0.2440944881889764,
                    "duration": 0.18987349999997605
                },
                {
                    "name": "G3",
                    "midi": 55,
                    "time": 513.1647793333129,
                    "velocity": 0.25196850393700787,
                    "duration": 0.18987349999997605
                },
                {
                    "name": "G3",
                    "midi": 55,
                    "time": 513.4179439999796,
                    "velocity": 0.31496062992125984,
                    "duration": 0.18987349999997605
                },
                {
                    "name": "G3",
                    "midi": 55,
                    "time": 513.6711086666462,
                    "velocity": 0.2440944881889764,
                    "duration": 0.18987349999997605
                },
                {
                    "name": "G3",
                    "midi": 55,
                    "time": 513.9242733333128,
                    "velocity": 0.2047244094488189,
                    "duration": 0.18987349999997605
                },
                {
                    "name": "G3",
                    "midi": 55,
                    "time": 514.1774379999795,
                    "velocity": 0.25984251968503935,
                    "duration": 0.18987349999997605
                },
                {
                    "name": "G3",
                    "midi": 55,
                    "time": 514.4306026666461,
                    "velocity": 0.2283464566929134,
                    "duration": 0.18987349999997605
                },
                {
                    "name": "G3",
                    "midi": 55,
                    "time": 514.6837673333127,
                    "velocity": 0.2047244094488189,
                    "duration": 0.18987349999997605
                },
                {
                    "name": "G3",
                    "midi": 55,
                    "time": 514.9369319999794,
                    "velocity": 0.25984251968503935,
                    "duration": 0.18987349999997605
                },
                {
                    "name": "G3",
                    "midi": 55,
                    "time": 515.190096666646,
                    "velocity": 0.23622047244094488,
                    "duration": 0.18987349999997605
                },
                {
                    "name": "G3",
                    "midi": 55,
                    "time": 515.4432613333126,
                    "velocity": 0.2283464566929134,
                    "duration": 0.18987349999997605
                },
                {
                    "name": "G3",
                    "midi": 55,
                    "time": 515.6964259999793,
                    "velocity": 0.25984251968503935,
                    "duration": 0.18987349999997605
                },
                {
                    "name": "G3",
                    "midi": 55,
                    "time": 515.9495906666459,
                    "velocity": 0.23622047244094488,
                    "duration": 0.18987349999997605
                },
                {
                    "name": "G3",
                    "midi": 55,
                    "time": 516.2027553333126,
                    "velocity": 0.23622047244094488,
                    "duration": 0.18987349999997605
                },
                {
                    "name": "G3",
                    "midi": 55,
                    "time": 516.4559199999792,
                    "velocity": 0.2440944881889764,
                    "duration": 0.18987349999997605
                },
                {
                    "name": "G3",
                    "midi": 55,
                    "time": 516.7090846666458,
                    "velocity": 0.2204724409448819,
                    "duration": 0.18987349999997605
                },
                {
                    "name": "G3",
                    "midi": 55,
                    "time": 516.9622493333125,
                    "velocity": 0.2204724409448819,
                    "duration": 0.18987349999997605
                },
                {
                    "name": "G3",
                    "midi": 55,
                    "time": 517.2154139999791,
                    "velocity": 0.2440944881889764,
                    "duration": 0.18987349999997605
                },
                {
                    "name": "G3",
                    "midi": 55,
                    "time": 517.4685786666457,
                    "velocity": 0.2204724409448819,
                    "duration": 0.18987349999997605
                },
                {
                    "name": "F3",
                    "midi": 53,
                    "time": 517.7217433333124,
                    "velocity": 0.2047244094488189,
                    "duration": 0.18987349999997605
                },
                {
                    "name": "G3",
                    "midi": 55,
                    "time": 517.7217433333124,
                    "velocity": 0.2440944881889764,
                    "duration": 0.18987349999997605
                },
                {
                    "name": "E3",
                    "midi": 52,
                    "time": 517.974907999979,
                    "velocity": 0.23622047244094488,
                    "duration": 0.18987349999997605
                },
                {
                    "name": "G3",
                    "midi": 55,
                    "time": 517.974907999979,
                    "velocity": 0.28346456692913385,
                    "duration": 0.18987349999997605
                },
                {
                    "name": "G3",
                    "midi": 55,
                    "time": 518.2280726666456,
                    "velocity": 0.2283464566929134,
                    "duration": 0.18987349999997605
                },
                {
                    "name": "G3",
                    "midi": 55,
                    "time": 518.4812373333123,
                    "velocity": 0.2283464566929134,
                    "duration": 0.18987349999997605
                },
                {
                    "name": "C3",
                    "midi": 48,
                    "time": 518.7344019999789,
                    "velocity": 0.23622047244094488,
                    "duration": 0.18987349999997605
                },
                {
                    "name": "G3",
                    "midi": 55,
                    "time": 518.7344019999789,
                    "velocity": 0.28346456692913385,
                    "duration": 0.18987349999997605
                },
                {
                    "name": "G3",
                    "midi": 55,
                    "time": 518.9875666666455,
                    "velocity": 0.2440944881889764,
                    "duration": 0.18987349999997605
                },
                {
                    "name": "G3",
                    "midi": 55,
                    "time": 519.2407313333122,
                    "velocity": 0.2440944881889764,
                    "duration": 0.18987349999997605
                },
                {
                    "name": "G2",
                    "midi": 43,
                    "time": 519.4938959999788,
                    "velocity": 0.2755905511811024,
                    "duration": 0.18987349999997605
                },
                {
                    "name": "G3",
                    "midi": 55,
                    "time": 519.4938959999788,
                    "velocity": 0.29133858267716534,
                    "duration": 0.18987349999997605
                },
                {
                    "name": "G3",
                    "midi": 55,
                    "time": 519.7470606666454,
                    "velocity": 0.2283464566929134,
                    "duration": 0.18987349999997605
                },
                {
                    "name": "G3",
                    "midi": 55,
                    "time": 520.0002253333121,
                    "velocity": 0.2283464566929134,
                    "duration": 0.18987349999997605
                },
                {
                    "name": "G3",
                    "midi": 55,
                    "time": 520.2533899999787,
                    "velocity": 0.3464566929133858,
                    "duration": 0.18987349999997605
                },
                {
                    "name": "G3",
                    "midi": 55,
                    "time": 520.5065546666453,
                    "velocity": 0.29133858267716534,
                    "duration": 0.18987349999997605
                },
                {
                    "name": "G3",
                    "midi": 55,
                    "time": 520.759719333312,
                    "velocity": 0.30708661417322836,
                    "duration": 0.18987349999997605
                },
                {
                    "name": "G3",
                    "midi": 55,
                    "time": 521.0128839999786,
                    "velocity": 0.41732283464566927,
                    "duration": 0.18987349999997605
                },
                {
                    "name": "G3",
                    "midi": 55,
                    "time": 521.2660486666452,
                    "velocity": 0.30708661417322836,
                    "duration": 0.18987349999997605
                },
                {
                    "name": "G3",
                    "midi": 55,
                    "time": 521.5192133333119,
                    "velocity": 0.31496062992125984,
                    "duration": 0.18987349999997605
                },
                {
                    "name": "G3",
                    "midi": 55,
                    "time": 521.7723779999785,
                    "velocity": 0.4094488188976378,
                    "duration": 0.18987349999997605
                },
                {
                    "name": "G3",
                    "midi": 55,
                    "time": 522.0255426666452,
                    "velocity": 0.3543307086614173,
                    "duration": 0.18987349999997605
                },
                {
                    "name": "G3",
                    "midi": 55,
                    "time": 522.2787073333118,
                    "velocity": 0.4094488188976378,
                    "duration": 0.18987349999997605
                },
                {
                    "name": "G3",
                    "midi": 55,
                    "time": 522.5318719999784,
                    "velocity": 0.4645669291338583,
                    "duration": 0.18987349999997605
                },
                {
                    "name": "G3",
                    "midi": 55,
                    "time": 522.785036666645,
                    "velocity": 0.3700787401574803,
                    "duration": 0.18987349999997605
                },
                {
                    "name": "G3",
                    "midi": 55,
                    "time": 523.0382013333117,
                    "velocity": 0.3700787401574803,
                    "duration": 0.18987349999997605
                },
                {
                    "name": "G3",
                    "midi": 55,
                    "time": 523.2913659999783,
                    "velocity": 0.4094488188976378,
                    "duration": 0.18987349999997605
                },
                {
                    "name": "F#3",
                    "midi": 54,
                    "time": 523.2913659999783,
                    "velocity": 0.4094488188976378,
                    "duration": 0.18987349999997605
                },
                {
                    "name": "G3",
                    "midi": 55,
                    "time": 523.544530666645,
                    "velocity": 0.33858267716535434,
                    "duration": 0.18987349999997605
                },
                {
                    "name": "F#3",
                    "midi": 54,
                    "time": 523.544530666645,
                    "velocity": 0.33858267716535434,
                    "duration": 0.18987349999997605
                },
                {
                    "name": "G3",
                    "midi": 55,
                    "time": 523.7976953333116,
                    "velocity": 0.33858267716535434,
                    "duration": 0.18987349999997605
                },
                {
                    "name": "F#3",
                    "midi": 54,
                    "time": 523.7976953333116,
                    "velocity": 0.33858267716535434,
                    "duration": 0.18987349999997605
                },
                {
                    "name": "F3",
                    "midi": 53,
                    "time": 524.0508599999782,
                    "velocity": 0.4251968503937008,
                    "duration": 0.18987349999997605
                },
                {
                    "name": "G3",
                    "midi": 55,
                    "time": 524.0508599999782,
                    "velocity": 0.4251968503937008,
                    "duration": 0.18987349999997605
                },
                {
                    "name": "G3",
                    "midi": 55,
                    "time": 524.3040246666449,
                    "velocity": 0.3543307086614173,
                    "duration": 0.18987349999997605
                },
                {
                    "name": "F3",
                    "midi": 53,
                    "time": 524.3040246666449,
                    "velocity": 0.3543307086614173,
                    "duration": 0.18987349999997605
                },
                {
                    "name": "G3",
                    "midi": 55,
                    "time": 524.5571893333115,
                    "velocity": 0.3543307086614173,
                    "duration": 0.18987349999997605
                },
                {
                    "name": "F3",
                    "midi": 53,
                    "time": 524.5571893333115,
                    "velocity": 0.3543307086614173,
                    "duration": 0.18987349999997605
                },
                {
                    "name": "G3",
                    "midi": 55,
                    "time": 524.8103539999781,
                    "velocity": 0.41732283464566927,
                    "duration": 0.18987349999997605
                },
                {
                    "name": "E3",
                    "midi": 52,
                    "time": 524.8103539999781,
                    "velocity": 0.41732283464566927,
                    "duration": 0.18987349999997605
                },
                {
                    "name": "E3",
                    "midi": 52,
                    "time": 525.0635186666448,
                    "velocity": 0.33858267716535434,
                    "duration": 0.18987349999997605
                },
                {
                    "name": "G3",
                    "midi": 55,
                    "time": 525.0635186666448,
                    "velocity": 0.33858267716535434,
                    "duration": 0.18987349999997605
                },
                {
                    "name": "F3",
                    "midi": 53,
                    "time": 525.3166833333114,
                    "velocity": 0.3464566929133858,
                    "duration": 0.18987349999997605
                },
                {
                    "name": "D3",
                    "midi": 50,
                    "time": 525.3166833333114,
                    "velocity": 0.3464566929133858,
                    "duration": 0.18987349999997605
                },
                {
                    "name": "G3",
                    "midi": 55,
                    "time": 525.3166833333114,
                    "velocity": 0.3464566929133858,
                    "duration": 0.18987349999997605
                },
                {
                    "name": "E3",
                    "midi": 52,
                    "time": 525.569847999978,
                    "velocity": 0.44881889763779526,
                    "duration": 0.18987349999997605
                },
                {
                    "name": "C3",
                    "midi": 48,
                    "time": 525.569847999978,
                    "velocity": 0.44881889763779526,
                    "duration": 0.18987349999997605
                },
                {
                    "name": "G3",
                    "midi": 55,
                    "time": 525.569847999978,
                    "velocity": 0.44881889763779526,
                    "duration": 0.18987349999997605
                },
                {
                    "name": "E3",
                    "midi": 52,
                    "time": 525.8230126666447,
                    "velocity": 0.3543307086614173,
                    "duration": 0.18987349999997605
                },
                {
                    "name": "C3",
                    "midi": 48,
                    "time": 525.8230126666447,
                    "velocity": 0.3543307086614173,
                    "duration": 0.18987349999997605
                },
                {
                    "name": "G3",
                    "midi": 55,
                    "time": 525.8230126666447,
                    "velocity": 0.3543307086614173,
                    "duration": 0.18987349999997605
                },
                {
                    "name": "E3",
                    "midi": 52,
                    "time": 526.0761773333113,
                    "velocity": 0.3543307086614173,
                    "duration": 0.18987349999997605
                },
                {
                    "name": "G3",
                    "midi": 55,
                    "time": 526.0761773333113,
                    "velocity": 0.3543307086614173,
                    "duration": 0.18987349999997605
                },
                {
                    "name": "C3",
                    "midi": 48,
                    "time": 526.0761773333113,
                    "velocity": 0.3543307086614173,
                    "duration": 0.18987349999997605
                },
                {
                    "name": "G#2",
                    "midi": 44,
                    "time": 526.3293419999779,
                    "velocity": 0.4251968503937008,
                    "duration": 0.18987349999997605
                },
                {
                    "name": "F3",
                    "midi": 53,
                    "time": 526.3293419999779,
                    "velocity": 0.4251968503937008,
                    "duration": 0.18987349999997605
                },
                {
                    "name": "D3",
                    "midi": 50,
                    "time": 526.3293419999779,
                    "velocity": 0.4251968503937008,
                    "duration": 0.18987349999997605
                },
                {
                    "name": "G#2",
                    "midi": 44,
                    "time": 526.5825066666446,
                    "velocity": 0.3543307086614173,
                    "duration": 0.18987349999997605
                },
                {
                    "name": "F3",
                    "midi": 53,
                    "time": 526.5825066666446,
                    "velocity": 0.3543307086614173,
                    "duration": 0.18987349999997605
                },
                {
                    "name": "D3",
                    "midi": 50,
                    "time": 526.5825066666446,
                    "velocity": 0.3543307086614173,
                    "duration": 0.18987349999997605
                },
                {
                    "name": "G#2",
                    "midi": 44,
                    "time": 526.8356713333112,
                    "velocity": 0.3543307086614173,
                    "duration": 0.18987349999997605
                },
                {
                    "name": "D3",
                    "midi": 50,
                    "time": 526.8356713333112,
                    "velocity": 0.3543307086614173,
                    "duration": 0.18987349999997605
                },
                {
                    "name": "F3",
                    "midi": 53,
                    "time": 526.8356713333112,
                    "velocity": 0.3543307086614173,
                    "duration": 0.18987349999997605
                },
                {
                    "name": "C3",
                    "midi": 48,
                    "time": 527.0888359999778,
                    "velocity": 0.4330708661417323,
                    "duration": 0.18987349999997605
                },
                {
                    "name": "A2",
                    "midi": 45,
                    "time": 527.0888359999778,
                    "velocity": 0.4330708661417323,
                    "duration": 0.18987349999997605
                },
                {
                    "name": "E3",
                    "midi": 52,
                    "time": 527.0888359999778,
                    "velocity": 0.4330708661417323,
                    "duration": 0.18987349999997605
                },
                {
                    "name": "C3",
                    "midi": 48,
                    "time": 527.3420006666445,
                    "velocity": 0.33858267716535434,
                    "duration": 0.18987349999997605
                },
                {
                    "name": "A2",
                    "midi": 45,
                    "time": 527.3420006666445,
                    "velocity": 0.33858267716535434,
                    "duration": 0.18987349999997605
                },
                {
                    "name": "E3",
                    "midi": 52,
                    "time": 527.3420006666445,
                    "velocity": 0.33858267716535434,
                    "duration": 0.18987349999997605
                },
                {
                    "name": "C3",
                    "midi": 48,
                    "time": 527.5951653333111,
                    "velocity": 0.33858267716535434,
                    "duration": 0.18987349999997605
                },
                {
                    "name": "A2",
                    "midi": 45,
                    "time": 527.5951653333111,
                    "velocity": 0.33858267716535434,
                    "duration": 0.18987349999997605
                },
                {
                    "name": "E3",
                    "midi": 52,
                    "time": 527.5951653333111,
                    "velocity": 0.33858267716535434,
                    "duration": 0.18987349999997605
                },
                {
                    "name": "F2",
                    "midi": 41,
                    "time": 527.8483299999778,
                    "velocity": 0.4094488188976378,
                    "duration": 0.25316466666663473
                },
                {
                    "name": "F3",
                    "midi": 53,
                    "time": 528.1014946666444,
                    "velocity": 0.33858267716535434,
                    "duration": 0.18987349999997605
                },
                {
                    "name": "A3",
                    "midi": 57,
                    "time": 528.1014946666444,
                    "velocity": 0.33858267716535434,
                    "duration": 0.18987349999997605
                },
                {
                    "name": "A3",
                    "midi": 57,
                    "time": 528.354659333311,
                    "velocity": 0.33070866141732286,
                    "duration": 0.18987349999997605
                },
                {
                    "name": "F3",
                    "midi": 53,
                    "time": 528.354659333311,
                    "velocity": 0.33070866141732286,
                    "duration": 0.18987349999997605
                },
                {
                    "name": "G2",
                    "midi": 43,
                    "time": 528.6078239999777,
                    "velocity": 0.4251968503937008,
                    "duration": 0.25316466666663473
                },
                {
                    "name": "G3",
                    "midi": 55,
                    "time": 528.8609886666443,
                    "velocity": 0.3543307086614173,
                    "duration": 0.18987349999997605
                },
                {
                    "name": "G3",
                    "midi": 55,
                    "time": 529.1141533333109,
                    "velocity": 0.3543307086614173,
                    "duration": 0.18987349999997605
                },
                {
                    "name": "G2",
                    "midi": 43,
                    "time": 529.3673179999776,
                    "velocity": 0.4251968503937008,
                    "duration": 0.25316466666663473
                },
                {
                    "name": "G3",
                    "midi": 55,
                    "time": 529.6204826666442,
                    "velocity": 0.3543307086614173,
                    "duration": 0.18987349999997605
                },
                {
                    "name": "G3",
                    "midi": 55,
                    "time": 529.8736473333108,
                    "velocity": 0.3543307086614173,
                    "duration": 0.18987349999997605
                },
                {
                    "name": "G2",
                    "midi": 43,
                    "time": 530.1268119999775,
                    "velocity": 0.4251968503937008,
                    "duration": 0.25316466666663473
                },
                {
                    "name": "G3",
                    "midi": 55,
                    "time": 530.3799766666441,
                    "velocity": 0.3543307086614173,
                    "duration": 0.18987349999997605
                },
                {
                    "name": "G3",
                    "midi": 55,
                    "time": 530.6331413333107,
                    "velocity": 0.3543307086614173,
                    "duration": 0.18987349999997605
                },
                {
                    "name": "G3",
                    "midi": 55,
                    "time": 530.8863059999774,
                    "velocity": 0.44881889763779526,
                    "duration": 0.18987349999997605
                },
                {
                    "name": "A3",
                    "midi": 57,
                    "time": 531.139470666644,
                    "velocity": 0.33858267716535434,
                    "duration": 0.18987349999997605
                },
                {
                    "name": "G3",
                    "midi": 55,
                    "time": 531.139470666644,
                    "velocity": 0.33858267716535434,
                    "duration": 0.18987349999997605
                },
                {
                    "name": "B3",
                    "midi": 59,
                    "time": 531.3926353333106,
                    "velocity": 0.33858267716535434,
                    "duration": 0.18987349999997605
                },
                {
                    "name": "G3",
                    "midi": 55,
                    "time": 531.3926353333106,
                    "velocity": 0.33858267716535434,
                    "duration": 0.18987349999997605
                },
                {
                    "name": "G3",
                    "midi": 55,
                    "time": 531.6457999999773,
                    "velocity": 0.31496062992125984,
                    "duration": 0.28481024999996407
                },
                {
                    "name": "C3",
                    "midi": 48,
                    "time": 531.6457999999773,
                    "velocity": 0.31496062992125984,
                    "duration": 0.25316466666663473
                },
                {
                    "name": "C4",
                    "midi": 60,
                    "time": 531.6457999999773,
                    "velocity": 0.31496062992125984,
                    "duration": 0.25316466666663473
                },
                {
                    "name": "G3",
                    "midi": 55,
                    "time": 531.8989646666439,
                    "velocity": 0.2440944881889764,
                    "duration": 0.18987349999997605
                },
                {
                    "name": "G3",
                    "midi": 55,
                    "time": 532.1521293333105,
                    "velocity": 0.2440944881889764,
                    "duration": 0.18987349999997605
                },
                {
                    "name": "G3",
                    "midi": 55,
                    "time": 532.4052939999772,
                    "velocity": 0.2440944881889764,
                    "duration": 0.18987349999997605
                },
                {
                    "name": "G3",
                    "midi": 55,
                    "time": 532.6584586666438,
                    "velocity": 0.2283464566929134,
                    "duration": 0.18987349999997605
                },
                {
                    "name": "G3",
                    "midi": 55,
                    "time": 532.9116233333104,
                    "velocity": 0.2283464566929134,
                    "duration": 0.18987349999997605
                },
                {
                    "name": "G3",
                    "midi": 55,
                    "time": 533.1647879999771,
                    "velocity": 0.2283464566929134,
                    "duration": 0.18987349999997605
                },
                {
                    "name": "G3",
                    "midi": 55,
                    "time": 533.4179526666437,
                    "velocity": 0.2204724409448819,
                    "duration": 0.18987349999997605
                },
                {
                    "name": "G3",
                    "midi": 55,
                    "time": 533.6711173333103,
                    "velocity": 0.2204724409448819,
                    "duration": 0.18987349999997605
                },
                {
                    "name": "G3",
                    "midi": 55,
                    "time": 533.924281999977,
                    "velocity": 0.2440944881889764,
                    "duration": 0.18987349999997605
                },
                {
                    "name": "G3",
                    "midi": 55,
                    "time": 534.1774466666436,
                    "velocity": 0.23622047244094488,
                    "duration": 0.18987349999997605
                },
                {
                    "name": "G3",
                    "midi": 55,
                    "time": 534.4306113333103,
                    "velocity": 0.23622047244094488,
                    "duration": 0.18987349999997605
                },
                {
                    "name": "G3",
                    "midi": 55,
                    "time": 534.6837759999769,
                    "velocity": 0.2440944881889764,
                    "duration": 0.18987349999997605
                },
                {
                    "name": "G3",
                    "midi": 55,
                    "time": 534.9369406666435,
                    "velocity": 0.2125984251968504,
                    "duration": 0.18987349999997605
                },
                {
                    "name": "G3",
                    "midi": 55,
                    "time": 535.1901053333102,
                    "velocity": 0.2125984251968504,
                    "duration": 0.18987349999997605
                },
                {
                    "name": "G3",
                    "midi": 55,
                    "time": 535.4432699999768,
                    "velocity": 0.2440944881889764,
                    "duration": 0.18987349999997605
                },
                {
                    "name": "G3",
                    "midi": 55,
                    "time": 535.6964346666434,
                    "velocity": 0.2204724409448819,
                    "duration": 0.18987349999997605
                },
                {
                    "name": "G3",
                    "midi": 55,
                    "time": 535.9495993333101,
                    "velocity": 0.2204724409448819,
                    "duration": 0.18987349999997605
                },
                {
                    "name": "G3",
                    "midi": 55,
                    "time": 536.2027639999767,
                    "velocity": 0.2440944881889764,
                    "duration": 0.18987349999997605
                },
                {
                    "name": "G3",
                    "midi": 55,
                    "time": 536.4559286666433,
                    "velocity": 0.2440944881889764,
                    "duration": 0.18987349999997605
                },
                {
                    "name": "G3",
                    "midi": 55,
                    "time": 536.70909333331,
                    "velocity": 0.2440944881889764,
                    "duration": 0.18987349999997605
                },
                {
                    "name": "G3",
                    "midi": 55,
                    "time": 536.9622579999766,
                    "velocity": 0.2440944881889764,
                    "duration": 0.18987349999997605
                },
                {
                    "name": "G3",
                    "midi": 55,
                    "time": 537.2154226666432,
                    "velocity": 0.2440944881889764,
                    "duration": 0.18987349999997605
                },
                {
                    "name": "G3",
                    "midi": 55,
                    "time": 537.4685873333099,
                    "velocity": 0.25196850393700787,
                    "duration": 0.18987349999997605
                },
                {
                    "name": "C4",
                    "midi": 60,
                    "time": 537.7217519999765,
                    "velocity": 0.41732283464566927,
                    "duration": 1.1392409999998563
                },
                {
                    "name": "G3",
                    "midi": 55,
                    "time": 537.7217519999765,
                    "velocity": 0.31496062992125984,
                    "duration": 0.18987349999997605
                },
                {
                    "name": "G3",
                    "midi": 55,
                    "time": 537.9749166666431,
                    "velocity": 0.2440944881889764,
                    "duration": 0.18987349999997605
                },
                {
                    "name": "G3",
                    "midi": 55,
                    "time": 538.2280813333098,
                    "velocity": 0.2047244094488189,
                    "duration": 0.18987349999997605
                },
                {
                    "name": "G3",
                    "midi": 55,
                    "time": 538.4812459999764,
                    "velocity": 0.25984251968503935,
                    "duration": 0.18987349999997605
                },
                {
                    "name": "G3",
                    "midi": 55,
                    "time": 538.734410666643,
                    "velocity": 0.2283464566929134,
                    "duration": 0.18987349999997605
                },
                {
                    "name": "D4",
                    "midi": 62,
                    "time": 538.8609929999764,
                    "velocity": 0.3464566929133858,
                    "duration": 0.3797469999999521
                },
                {
                    "name": "G3",
                    "midi": 55,
                    "time": 538.9875753333097,
                    "velocity": 0.2047244094488189,
                    "duration": 0.18987349999997605
                },
                {
                    "name": "D#4",
                    "midi": 63,
                    "time": 539.2407399999763,
                    "velocity": 0.30708661417322836,
                    "duration": 0.7594939999999042
                },
                {
                    "name": "G3",
                    "midi": 55,
                    "time": 539.2407399999763,
                    "velocity": 0.25984251968503935,
                    "duration": 0.18987349999997605
                },
                {
                    "name": "G3",
                    "midi": 55,
                    "time": 539.493904666643,
                    "velocity": 0.23622047244094488,
                    "duration": 0.18987349999997605
                },
                {
                    "name": "G3",
                    "midi": 55,
                    "time": 539.7470693333096,
                    "velocity": 0.2283464566929134,
                    "duration": 0.18987349999997605
                },
                {
                    "name": "F#4",
                    "midi": 66,
                    "time": 540.0002339999762,
                    "velocity": 0.30708661417322836,
                    "duration": 0.7594939999999042
                },
                {
                    "name": "G3",
                    "midi": 55,
                    "time": 540.0002339999762,
                    "velocity": 0.25984251968503935,
                    "duration": 0.18987349999997605
                },
                {
                    "name": "G3",
                    "midi": 55,
                    "time": 540.2533986666429,
                    "velocity": 0.23622047244094488,
                    "duration": 0.18987349999997605
                },
                {
                    "name": "G3",
                    "midi": 55,
                    "time": 540.5065633333095,
                    "velocity": 0.23622047244094488,
                    "duration": 0.18987349999997605
                },
                {
                    "name": "G4",
                    "midi": 67,
                    "time": 540.7597279999761,
                    "velocity": 0.30708661417322836,
                    "duration": 0.7594939999999042
                },
                {
                    "name": "G3",
                    "midi": 55,
                    "time": 540.7597279999761,
                    "velocity": 0.2440944881889764,
                    "duration": 0.18987349999997605
                },
                {
                    "name": "G3",
                    "midi": 55,
                    "time": 541.0128926666428,
                    "velocity": 0.2204724409448819,
                    "duration": 0.18987349999997605
                },
                {
                    "name": "G3",
                    "midi": 55,
                    "time": 541.2660573333094,
                    "velocity": 0.2204724409448819,
                    "duration": 0.18987349999997605
                },
                {
                    "name": "F4",
                    "midi": 65,
                    "time": 541.519221999976,
                    "velocity": 0.30708661417322836,
                    "duration": 0.7594939999999042
                },
                {
                    "name": "G3",
                    "midi": 55,
                    "time": 541.519221999976,
                    "velocity": 0.2440944881889764,
                    "duration": 0.18987349999997605
                },
                {
                    "name": "G3",
                    "midi": 55,
                    "time": 541.7723866666427,
                    "velocity": 0.2204724409448819,
                    "duration": 0.18987349999997605
                },
                {
                    "name": "G3",
                    "midi": 55,
                    "time": 542.0255513333093,
                    "velocity": 0.2440944881889764,
                    "duration": 0.18987349999997605
                },
                {
                    "name": "D#4",
                    "midi": 63,
                    "time": 542.2787159999759,
                    "velocity": 0.29133858267716534,
                    "duration": 0.7594939999999042
                },
                {
                    "name": "G3",
                    "midi": 55,
                    "time": 542.2787159999759,
                    "velocity": 0.28346456692913385,
                    "duration": 0.18987349999997605
                },
                {
                    "name": "G3",
                    "midi": 55,
                    "time": 542.5318806666426,
                    "velocity": 0.2283464566929134,
                    "duration": 0.18987349999997605
                },
                {
                    "name": "G3",
                    "midi": 55,
                    "time": 542.7850453333092,
                    "velocity": 0.2283464566929134,
                    "duration": 0.18987349999997605
                },
                {
                    "name": "C4",
                    "midi": 60,
                    "time": 543.0382099999758,
                    "velocity": 0.2755905511811024,
                    "duration": 0.7594939999999042
                },
                {
                    "name": "G3",
                    "midi": 55,
                    "time": 543.0382099999758,
                    "velocity": 0.28346456692913385,
                    "duration": 0.18987349999997605
                },
                {
                    "name": "G3",
                    "midi": 55,
                    "time": 543.2913746666425,
                    "velocity": 0.2440944881889764,
                    "duration": 0.18987349999997605
                },
                {
                    "name": "G3",
                    "midi": 55,
                    "time": 543.5445393333091,
                    "velocity": 0.2440944881889764,
                    "duration": 0.18987349999997605
                },
                {
                    "name": "G4",
                    "midi": 67,
                    "time": 543.7977039999757,
                    "velocity": 0.2755905511811024,
                    "duration": 1.5189879999998084
                },
                {
                    "name": "G3",
                    "midi": 55,
                    "time": 543.7977039999757,
                    "velocity": 0.29133858267716534,
                    "duration": 0.18987349999997605
                },
                {
                    "name": "G3",
                    "midi": 55,
                    "time": 544.0508686666424,
                    "velocity": 0.2283464566929134,
                    "duration": 0.18987349999997605
                },
                {
                    "name": "G3",
                    "midi": 55,
                    "time": 544.304033333309,
                    "velocity": 0.2283464566929134,
                    "duration": 0.18987349999997605
                },
                {
                    "name": "G3",
                    "midi": 55,
                    "time": 544.5571979999756,
                    "velocity": 0.33070866141732286,
                    "duration": 0.18987349999997605
                },
                {
                    "name": "G3",
                    "midi": 55,
                    "time": 544.8103626666423,
                    "velocity": 0.2755905511811024,
                    "duration": 0.18987349999997605
                },
                {
                    "name": "G3",
                    "midi": 55,
                    "time": 545.0635273333089,
                    "velocity": 0.29133858267716534,
                    "duration": 0.18987349999997605
                },
                {
                    "name": "G3",
                    "midi": 55,
                    "time": 545.3166919999755,
                    "velocity": 0.3858267716535433,
                    "duration": 0.25316466666663473
                },
                {
                    "name": "G#3",
                    "midi": 56,
                    "time": 545.5698566666422,
                    "velocity": 0.28346456692913385,
                    "duration": 0.25316466666663473
                },
                {
                    "name": "A3",
                    "midi": 57,
                    "time": 545.8230213333088,
                    "velocity": 0.28346456692913385,
                    "duration": 0.25316466666663473
                },
                {
                    "name": "A#3",
                    "midi": 58,
                    "time": 546.0761859999755,
                    "velocity": 0.4094488188976378,
                    "duration": 0.18987349999997605
                },
                {
                    "name": "A#3",
                    "midi": 58,
                    "time": 546.3293506666421,
                    "velocity": 0.3543307086614173,
                    "duration": 0.18987349999997605
                },
                {
                    "name": "A#3",
                    "midi": 58,
                    "time": 546.5825153333087,
                    "velocity": 0.4094488188976378,
                    "duration": 0.18987349999997605
                },
                {
                    "name": "A#3",
                    "midi": 58,
                    "time": 546.8356799999754,
                    "velocity": 0.4094488188976378,
                    "duration": 0.18987349999997605
                },
                {
                    "name": "A#3",
                    "midi": 58,
                    "time": 547.088844666642,
                    "velocity": 0.36220472440944884,
                    "duration": 0.18987349999997605
                },
                {
                    "name": "A#3",
                    "midi": 58,
                    "time": 547.3420093333086,
                    "velocity": 0.36220472440944884,
                    "duration": 0.18987349999997605
                },
                {
                    "name": "A#3",
                    "midi": 58,
                    "time": 547.5951739999753,
                    "velocity": 0.3464566929133858,
                    "duration": 0.18987349999997605
                },
                {
                    "name": "F4",
                    "midi": 65,
                    "time": 547.5951739999753,
                    "velocity": 0.4094488188976378,
                    "duration": 0.18987349999997605
                },
                {
                    "name": "A#3",
                    "midi": 58,
                    "time": 547.8483386666419,
                    "velocity": 0.30708661417322836,
                    "duration": 0.18987349999997605
                },
                {
                    "name": "F4",
                    "midi": 65,
                    "time": 547.8483386666419,
                    "velocity": 0.36220472440944884,
                    "duration": 0.18987349999997605
                },
                {
                    "name": "A#3",
                    "midi": 58,
                    "time": 548.1015033333085,
                    "velocity": 0.30708661417322836,
                    "duration": 0.18987349999997605
                },
                {
                    "name": "F4",
                    "midi": 65,
                    "time": 548.1015033333085,
                    "velocity": 0.36220472440944884,
                    "duration": 0.18987349999997605
                },
                {
                    "name": "A#3",
                    "midi": 58,
                    "time": 548.3546679999752,
                    "velocity": 0.3464566929133858,
                    "duration": 0.18987349999997605
                },
                {
                    "name": "D4",
                    "midi": 62,
                    "time": 548.3546679999752,
                    "velocity": 0.4094488188976378,
                    "duration": 0.18987349999997605
                },
                {
                    "name": "A#3",
                    "midi": 58,
                    "time": 548.6078326666418,
                    "velocity": 0.2992125984251969,
                    "duration": 0.18987349999997605
                },
                {
                    "name": "D4",
                    "midi": 62,
                    "time": 548.6078326666418,
                    "velocity": 0.3543307086614173,
                    "duration": 0.18987349999997605
                },
                {
                    "name": "A#3",
                    "midi": 58,
                    "time": 548.8609973333084,
                    "velocity": 0.3543307086614173,
                    "duration": 0.18987349999997605
                },
                {
                    "name": "D4",
                    "midi": 62,
                    "time": 548.8609973333084,
                    "velocity": 0.3543307086614173,
                    "duration": 0.18987349999997605
                },
                {
                    "name": "A#3",
                    "midi": 58,
                    "time": 549.1141619999751,
                    "velocity": 0.4094488188976378,
                    "duration": 0.18987349999997605
                },
                {
                    "name": "A#3",
                    "midi": 58,
                    "time": 549.3673266666417,
                    "velocity": 0.3700787401574803,
                    "duration": 0.18987349999997605
                },
                {
                    "name": "A#3",
                    "midi": 58,
                    "time": 549.6204913333083,
                    "velocity": 0.3700787401574803,
                    "duration": 0.18987349999997605
                },
                {
                    "name": "D#4",
                    "midi": 63,
                    "time": 549.873655999975,
                    "velocity": 0.4409448818897638,
                    "duration": 0.18987349999997605
                },
                {
                    "name": "D#4",
                    "midi": 63,
                    "time": 550.1268206666416,
                    "velocity": 0.30708661417322836,
                    "duration": 0.18987349999997605
                },
                {
                    "name": "D#4",
                    "midi": 63,
                    "time": 550.3799853333082,
                    "velocity": 0.30708661417322836,
                    "duration": 0.18987349999997605
                },
                {
                    "name": "B3",
                    "midi": 59,
                    "time": 550.6331499999749,
                    "velocity": 0.2992125984251969,
                    "duration": 0.18987349999997605
                },
                {
                    "name": "D4",
                    "midi": 62,
                    "time": 550.6331499999749,
                    "velocity": 0.2992125984251969,
                    "duration": 0.18987349999997605
                },
                {
                    "name": "F4",
                    "midi": 65,
                    "time": 550.6331499999749,
                    "velocity": 0.3543307086614173,
                    "duration": 0.18987349999997605
                },
                {
                    "name": "B3",
                    "midi": 59,
                    "time": 550.8863146666415,
                    "velocity": 0.25196850393700787,
                    "duration": 0.18987349999997605
                },
                {
                    "name": "D4",
                    "midi": 62,
                    "time": 550.8863146666415,
                    "velocity": 0.25196850393700787,
                    "duration": 0.18987349999997605
                },
                {
                    "name": "F4",
                    "midi": 65,
                    "time": 550.8863146666415,
                    "velocity": 0.2992125984251969,
                    "duration": 0.18987349999997605
                },
                {
                    "name": "B3",
                    "midi": 59,
                    "time": 551.1394793333081,
                    "velocity": 0.25196850393700787,
                    "duration": 0.18987349999997605
                },
                {
                    "name": "D4",
                    "midi": 62,
                    "time": 551.1394793333081,
                    "velocity": 0.25196850393700787,
                    "duration": 0.18987349999997605
                },
                {
                    "name": "F4",
                    "midi": 65,
                    "time": 551.1394793333081,
                    "velocity": 0.2992125984251969,
                    "duration": 0.18987349999997605
                },
                {
                    "name": "D#4",
                    "midi": 63,
                    "time": 551.3926439999748,
                    "velocity": 0.3700787401574803,
                    "duration": 0.18987349999997605
                },
                {
                    "name": "C4",
                    "midi": 60,
                    "time": 551.3926439999748,
                    "velocity": 0.30708661417322836,
                    "duration": 0.18987349999997605
                },
                {
                    "name": "D#4",
                    "midi": 63,
                    "time": 551.6458086666414,
                    "velocity": 0.33070866141732286,
                    "duration": 0.18987349999997605
                },
                {
                    "name": "C4",
                    "midi": 60,
                    "time": 551.6458086666414,
                    "velocity": 0.2755905511811024,
                    "duration": 0.18987349999997605
                },
                {
                    "name": "D#4",
                    "midi": 63,
                    "time": 551.898973333308,
                    "velocity": 0.33070866141732286,
                    "duration": 0.18987349999997605
                },
                {
                    "name": "C4",
                    "midi": 60,
                    "time": 551.898973333308,
                    "velocity": 0.2755905511811024,
                    "duration": 0.18987349999997605
                },
                {
                    "name": "F3",
                    "midi": 53,
                    "time": 552.1521379999747,
                    "velocity": 0.3464566929133858,
                    "duration": 0.18987349999997605
                },
                {
                    "name": "G#3",
                    "midi": 56,
                    "time": 552.1521379999747,
                    "velocity": 0.4094488188976378,
                    "duration": 0.18987349999997605
                },
                {
                    "name": "F3",
                    "midi": 53,
                    "time": 552.4053026666413,
                    "velocity": 0.2992125984251969,
                    "duration": 0.18987349999997605
                },
                {
                    "name": "G#3",
                    "midi": 56,
                    "time": 552.4053026666413,
                    "velocity": 0.3543307086614173,
                    "duration": 0.18987349999997605
                },
                {
                    "name": "F3",
                    "midi": 53,
                    "time": 552.658467333308,
                    "velocity": 0.2992125984251969,
                    "duration": 0.18987349999997605
                },
                {
                    "name": "G#3",
                    "midi": 56,
                    "time": 552.658467333308,
                    "velocity": 0.3543307086614173,
                    "duration": 0.18987349999997605
                },
                {
                    "name": "G3",
                    "midi": 55,
                    "time": 552.9116319999746,
                    "velocity": 0.3937007874015748,
                    "duration": 0.18987349999997605
                },
                {
                    "name": "G3",
                    "midi": 55,
                    "time": 553.1647966666412,
                    "velocity": 0.31496062992125984,
                    "duration": 0.18987349999997605
                },
                {
                    "name": "G3",
                    "midi": 55,
                    "time": 553.4179613333079,
                    "velocity": 0.31496062992125984,
                    "duration": 0.18987349999997605
                },
                {
                    "name": "F3",
                    "midi": 53,
                    "time": 553.6711259999745,
                    "velocity": 0.33070866141732286,
                    "duration": 0.18987349999997605
                },
                {
                    "name": "G3",
                    "midi": 55,
                    "time": 553.6711259999745,
                    "velocity": 0.3937007874015748,
                    "duration": 0.18987349999997605
                },
                {
                    "name": "G3",
                    "midi": 55,
                    "time": 553.9242906666411,
                    "velocity": 0.30708661417322836,
                    "duration": 0.18987349999997605
                },
                {
                    "name": "G3",
                    "midi": 55,
                    "time": 554.1774553333078,
                    "velocity": 0.30708661417322836,
                    "duration": 0.18987349999997605
                },
                {
                    "name": "D#3",
                    "midi": 51,
                    "time": 554.4306199999744,
                    "velocity": 0.30708661417322836,
                    "duration": 0.18987349999997605
                },
                {
                    "name": "G3",
                    "midi": 55,
                    "time": 554.4306199999744,
                    "velocity": 0.3700787401574803,
                    "duration": 0.18987349999997605
                },
                {
                    "name": "G3",
                    "midi": 55,
                    "time": 554.683784666641,
                    "velocity": 0.2992125984251969,
                    "duration": 0.18987349999997605
                },
                {
                    "name": "G3",
                    "midi": 55,
                    "time": 554.9369493333077,
                    "velocity": 0.2992125984251969,
                    "duration": 0.18987349999997605
                },
                {
                    "name": "C3",
                    "midi": 48,
                    "time": 555.1901139999743,
                    "velocity": 0.31496062992125984,
                    "duration": 0.18987349999997605
                },
                {
                    "name": "G3",
                    "midi": 55,
                    "time": 555.1901139999743,
                    "velocity": 0.3779527559055118,
                    "duration": 0.18987349999997605
                },
                {
                    "name": "G3",
                    "midi": 55,
                    "time": 555.4432786666409,
                    "velocity": 0.2992125984251969,
                    "duration": 0.18987349999997605
                },
                {
                    "name": "G3",
                    "midi": 55,
                    "time": 555.6964433333076,
                    "velocity": 0.2992125984251969,
                    "duration": 0.18987349999997605
                },
                {
                    "name": "G2",
                    "midi": 43,
                    "time": 555.9496079999742,
                    "velocity": 0.3543307086614173,
                    "duration": 0.18987349999997605
                },
                {
                    "name": "G3",
                    "midi": 55,
                    "time": 555.9496079999742,
                    "velocity": 0.3543307086614173,
                    "duration": 0.18987349999997605
                },
                {
                    "name": "G3",
                    "midi": 55,
                    "time": 556.2027726666408,
                    "velocity": 0.28346456692913385,
                    "duration": 0.18987349999997605
                },
                {
                    "name": "G3",
                    "midi": 55,
                    "time": 556.4559373333075,
                    "velocity": 0.28346456692913385,
                    "duration": 0.18987349999997605
                },
                {
                    "name": "G3",
                    "midi": 55,
                    "time": 556.7091019999741,
                    "velocity": 0.33070866141732286,
                    "duration": 0.18987349999997605
                },
                {
                    "name": "G3",
                    "midi": 55,
                    "time": 556.9622666666407,
                    "velocity": 0.2755905511811024,
                    "duration": 0.18987349999997605
                },
                {
                    "name": "G3",
                    "midi": 55,
                    "time": 557.2154313333074,
                    "velocity": 0.29133858267716534,
                    "duration": 0.18987349999997605
                },
                {
                    "name": "G3",
                    "midi": 55,
                    "time": 557.468595999974,
                    "velocity": 0.3858267716535433,
                    "duration": 0.18987349999997605
                },
                {
                    "name": "G3",
                    "midi": 55,
                    "time": 557.7217606666406,
                    "velocity": 0.28346456692913385,
                    "duration": 0.18987349999997605
                },
                {
                    "name": "G3",
                    "midi": 55,
                    "time": 557.9749253333073,
                    "velocity": 0.28346456692913385,
                    "duration": 0.18987349999997605
                },
                {
                    "name": "G3",
                    "midi": 55,
                    "time": 558.2280899999739,
                    "velocity": 0.44881889763779526,
                    "duration": 0.18987349999997605
                },
                {
                    "name": "G3",
                    "midi": 55,
                    "time": 558.4812546666406,
                    "velocity": 0.3858267716535433,
                    "duration": 0.18987349999997605
                },
                {
                    "name": "G3",
                    "midi": 55,
                    "time": 558.7344193333072,
                    "velocity": 0.44881889763779526,
                    "duration": 0.18987349999997605
                },
                {
                    "name": "G3",
                    "midi": 55,
                    "time": 558.9875839999738,
                    "velocity": 0.5039370078740157,
                    "duration": 0.18987349999997605
                },
                {
                    "name": "G3",
                    "midi": 55,
                    "time": 559.2407486666405,
                    "velocity": 0.4015748031496063,
                    "duration": 0.18987349999997605
                },
                {
                    "name": "G3",
                    "midi": 55,
                    "time": 559.4939133333071,
                    "velocity": 0.4015748031496063,
                    "duration": 0.18987349999997605
                },
                {
                    "name": "G3",
                    "midi": 55,
                    "time": 559.7470779999737,
                    "velocity": 0.44881889763779526,
                    "duration": 0.18987349999997605
                },
                {
                    "name": "F#3",
                    "midi": 54,
                    "time": 559.7470779999737,
                    "velocity": 0.44881889763779526,
                    "duration": 0.18987349999997605
                },
                {
                    "name": "G3",
                    "midi": 55,
                    "time": 560.0002426666404,
                    "velocity": 0.3700787401574803,
                    "duration": 0.18987349999997605
                },
                {
                    "name": "F#3",
                    "midi": 54,
                    "time": 560.0002426666404,
                    "velocity": 0.3700787401574803,
                    "duration": 0.18987349999997605
                },
                {
                    "name": "G3",
                    "midi": 55,
                    "time": 560.253407333307,
                    "velocity": 0.3700787401574803,
                    "duration": 0.18987349999997605
                },
                {
                    "name": "F#3",
                    "midi": 54,
                    "time": 560.253407333307,
                    "velocity": 0.3700787401574803,
                    "duration": 0.18987349999997605
                },
                {
                    "name": "F3",
                    "midi": 53,
                    "time": 560.5065719999736,
                    "velocity": 0.47244094488188976,
                    "duration": 0.18987349999997605
                },
                {
                    "name": "G3",
                    "midi": 55,
                    "time": 560.5065719999736,
                    "velocity": 0.47244094488188976,
                    "duration": 0.18987349999997605
                },
                {
                    "name": "G3",
                    "midi": 55,
                    "time": 560.7597366666403,
                    "velocity": 0.3937007874015748,
                    "duration": 0.18987349999997605
                },
                {
                    "name": "E3",
                    "midi": 52,
                    "time": 560.7597366666403,
                    "velocity": 0.3937007874015748,
                    "duration": 0.18987349999997605
                },
                {
                    "name": "G3",
                    "midi": 55,
                    "time": 561.0129013333069,
                    "velocity": 0.4015748031496063,
                    "duration": 0.18987349999997605
                },
                {
                    "name": "D3",
                    "midi": 50,
                    "time": 561.0129013333069,
                    "velocity": 0.4015748031496063,
                    "duration": 0.18987349999997605
                },
                {
                    "name": "G3",
                    "midi": 55,
                    "time": 561.2660659999735,
                    "velocity": 0.48031496062992124,
                    "duration": 0.18987349999997605
                },
                {
                    "name": "C3",
                    "midi": 48,
                    "time": 561.2660659999735,
                    "velocity": 0.48031496062992124,
                    "duration": 0.18987349999997605
                },
                {
                    "name": "B2",
                    "midi": 47,
                    "time": 561.5192306666402,
                    "velocity": 0.3937007874015748,
                    "duration": 0.18987349999997605
                },
                {
                    "name": "G3",
                    "midi": 55,
                    "time": 561.5192306666402,
                    "velocity": 0.3937007874015748,
                    "duration": 0.18987349999997605
                },
                {
                    "name": "G3",
                    "midi": 55,
                    "time": 561.7723953333068,
                    "velocity": 0.4015748031496063,
                    "duration": 0.18987349999997605
                },
                {
                    "name": "A#2",
                    "midi": 46,
                    "time": 561.7723953333068,
                    "velocity": 0.4094488188976378,
                    "duration": 0.18987349999997605
                },
                {
                    "name": "A2",
                    "midi": 45,
                    "time": 562.0255599999734,
                    "velocity": 0.5590551181102362,
                    "duration": 0.18987349999997605
                },
                {
                    "name": "G3",
                    "midi": 55,
                    "time": 562.0255599999734,
                    "velocity": 0.5590551181102362,
                    "duration": 0.18987349999997605
                },
                {
                    "name": "A2",
                    "midi": 45,
                    "time": 562.2787246666401,
                    "velocity": 0.4251968503937008,
                    "duration": 0.18987349999997605
                },
                {
                    "name": "G3",
                    "midi": 55,
                    "time": 562.2787246666401,
                    "velocity": 0.4251968503937008,
                    "duration": 0.18987349999997605
                },
                {
                    "name": "G3",
                    "midi": 55,
                    "time": 562.5318893333067,
                    "velocity": 0.41732283464566927,
                    "duration": 0.18987349999997605
                },
                {
                    "name": "A2",
                    "midi": 45,
                    "time": 562.5318893333067,
                    "velocity": 0.41732283464566927,
                    "duration": 0.18987349999997605
                },
                {
                    "name": "A2",
                    "midi": 45,
                    "time": 562.7850539999733,
                    "velocity": 0.48031496062992124,
                    "duration": 0.18987349999997605
                },
                {
                    "name": "G3",
                    "midi": 55,
                    "time": 562.7850539999733,
                    "velocity": 0.48031496062992124,
                    "duration": 0.18987349999997605
                },
                {
                    "name": "A2",
                    "midi": 45,
                    "time": 563.03821866664,
                    "velocity": 0.3858267716535433,
                    "duration": 0.18987349999997605
                },
                {
                    "name": "G3",
                    "midi": 55,
                    "time": 563.03821866664,
                    "velocity": 0.3858267716535433,
                    "duration": 0.18987349999997605
                },
                {
                    "name": "A2",
                    "midi": 45,
                    "time": 563.2913833333066,
                    "velocity": 0.3700787401574803,
                    "duration": 0.18987349999997605
                },
                {
                    "name": "G3",
                    "midi": 55,
                    "time": 563.2913833333066,
                    "velocity": 0.3700787401574803,
                    "duration": 0.18987349999997605
                },
                {
                    "name": "A2",
                    "midi": 45,
                    "time": 563.5445479999732,
                    "velocity": 0.4409448818897638,
                    "duration": 0.18987349999997605
                },
                {
                    "name": "G3",
                    "midi": 55,
                    "time": 563.5445479999732,
                    "velocity": 0.4409448818897638,
                    "duration": 0.18987349999997605
                },
                {
                    "name": "A2",
                    "midi": 45,
                    "time": 563.7977126666399,
                    "velocity": 0.33858267716535434,
                    "duration": 0.18987349999997605
                },
                {
                    "name": "A2",
                    "midi": 45,
                    "time": 564.0508773333065,
                    "velocity": 0.33858267716535434,
                    "duration": 0.18987349999997605
                },
                {
                    "name": "A2",
                    "midi": 45,
                    "time": 564.3040419999732,
                    "velocity": 0.4251968503937008,
                    "duration": 0.18987349999997605
                },
                {
                    "name": "A2",
                    "midi": 45,
                    "time": 564.5572066666398,
                    "velocity": 0.36220472440944884,
                    "duration": 0.18987349999997605
                },
                {
                    "name": "A2",
                    "midi": 45,
                    "time": 564.8103713333064,
                    "velocity": 0.36220472440944884,
                    "duration": 0.18987349999997605
                },
                {
                    "name": "A#2",
                    "midi": 46,
                    "time": 565.063535999973,
                    "velocity": 0.3937007874015748,
                    "duration": 0.18987349999997605
                },
                {
                    "name": "A2",
                    "midi": 45,
                    "time": 565.3167006666397,
                    "velocity": 0.3228346456692913,
                    "duration": 0.18987349999997605
                },
                {
                    "name": "A2",
                    "midi": 45,
                    "time": 565.5698653333063,
                    "velocity": 0.3228346456692913,
                    "duration": 0.18987349999997605
                },
                {
                    "name": "A2",
                    "midi": 45,
                    "time": 565.823029999973,
                    "velocity": 0.3779527559055118,
                    "duration": 0.18987349999997605
                },
                {
                    "name": "A2",
                    "midi": 45,
                    "time": 566.0761946666396,
                    "velocity": 0.3228346456692913,
                    "duration": 0.18987349999997605
                },
                {
                    "name": "A2",
                    "midi": 45,
                    "time": 566.3293593333062,
                    "velocity": 0.3228346456692913,
                    "duration": 0.18987349999997605
                },
                {
                    "name": "A2",
                    "midi": 45,
                    "time": 566.5825239999729,
                    "velocity": 0.3858267716535433,
                    "duration": 0.18987349999997605
                },
                {
                    "name": "A2",
                    "midi": 45,
                    "time": 566.8356886666395,
                    "velocity": 0.3228346456692913,
                    "duration": 0.18987349999997605
                },
                {
                    "name": "A2",
                    "midi": 45,
                    "time": 567.0888533333061,
                    "velocity": 0.3228346456692913,
                    "duration": 0.18987349999997605
                },
                {
                    "name": "A2",
                    "midi": 45,
                    "time": 567.3420179999728,
                    "velocity": 0.3228346456692913,
                    "duration": 0.18987349999997605
                },
                {
                    "name": "A2",
                    "midi": 45,
                    "time": 567.5951826666394,
                    "velocity": 0.3228346456692913,
                    "duration": 0.18987349999997605
                },
                {
                    "name": "A2",
                    "midi": 45,
                    "time": 567.848347333306,
                    "velocity": 0.3228346456692913,
                    "duration": 0.18987349999997605
                },
                {
                    "name": "G#2",
                    "midi": 44,
                    "time": 568.1015119999727,
                    "velocity": 0.5590551181102362,
                    "duration": 0.18987349999997605
                },
                {
                    "name": "G#2",
                    "midi": 44,
                    "time": 568.3546766666393,
                    "velocity": 0.4251968503937008,
                    "duration": 0.18987349999997605
                },
                {
                    "name": "G#2",
                    "midi": 44,
                    "time": 568.6078413333059,
                    "velocity": 0.41732283464566927,
                    "duration": 0.18987349999997605
                },
                {
                    "name": "G#2",
                    "midi": 44,
                    "time": 568.8610059999726,
                    "velocity": 0.48031496062992124,
                    "duration": 0.18987349999997605
                },
                {
                    "name": "G#2",
                    "midi": 44,
                    "time": 569.1141706666392,
                    "velocity": 0.3858267716535433,
                    "duration": 0.18987349999997605
                },
                {
                    "name": "G#2",
                    "midi": 44,
                    "time": 569.3673353333058,
                    "velocity": 0.3700787401574803,
                    "duration": 0.18987349999997605
                },
                {
                    "name": "G#2",
                    "midi": 44,
                    "time": 569.6204999999725,
                    "velocity": 0.4409448818897638,
                    "duration": 0.18987349999997605
                },
                {
                    "name": "G#2",
                    "midi": 44,
                    "time": 569.8736646666391,
                    "velocity": 0.33858267716535434,
                    "duration": 0.18987349999997605
                },
                {
                    "name": "G#2",
                    "midi": 44,
                    "time": 570.1268293333057,
                    "velocity": 0.33858267716535434,
                    "duration": 0.18987349999997605
                },
                {
                    "name": "G#2",
                    "midi": 44,
                    "time": 570.3799939999724,
                    "velocity": 0.4251968503937008,
                    "duration": 0.18987349999997605
                },
                {
                    "name": "G#2",
                    "midi": 44,
                    "time": 570.633158666639,
                    "velocity": 0.36220472440944884,
                    "duration": 0.18987349999997605
                },
                {
                    "name": "G#2",
                    "midi": 44,
                    "time": 570.8863233333057,
                    "velocity": 0.36220472440944884,
                    "duration": 0.18987349999997605
                },
                {
                    "name": "G2",
                    "midi": 43,
                    "time": 571.1394879999723,
                    "velocity": 0.3937007874015748,
                    "duration": 0.18987349999997605
                },
                {
                    "name": "G#2",
                    "midi": 44,
                    "time": 571.3926526666389,
                    "velocity": 0.3228346456692913,
                    "duration": 0.18987349999997605
                },
                {
                    "name": "G#2",
                    "midi": 44,
                    "time": 571.6458173333056,
                    "velocity": 0.3228346456692913,
                    "duration": 0.18987349999997605
                },
                {
                    "name": "G#2",
                    "midi": 44,
                    "time": 571.8989819999722,
                    "velocity": 0.3779527559055118,
                    "duration": 0.18987349999997605
                },
                {
                    "name": "G#2",
                    "midi": 44,
                    "time": 572.1521466666388,
                    "velocity": 0.3228346456692913,
                    "duration": 0.18987349999997605
                },
                {
                    "name": "G#2",
                    "midi": 44,
                    "time": 572.4053113333055,
                    "velocity": 0.3228346456692913,
                    "duration": 0.18987349999997605
                },
                {
                    "name": "G#2",
                    "midi": 44,
                    "time": 572.6584759999721,
                    "velocity": 0.3858267716535433,
                    "duration": 0.18987349999997605
                },
                {
                    "name": "G#2",
                    "midi": 44,
                    "time": 572.9116406666387,
                    "velocity": 0.3228346456692913,
                    "duration": 0.18987349999997605
                },
                {
                    "name": "G#2",
                    "midi": 44,
                    "time": 573.1648053333054,
                    "velocity": 0.3228346456692913,
                    "duration": 0.18987349999997605
                },
                {
                    "name": "G2",
                    "midi": 43,
                    "time": 573.417969999972,
                    "velocity": 0.3228346456692913,
                    "duration": 0.18987349999997605
                },
                {
                    "name": "G2",
                    "midi": 43,
                    "time": 573.6711346666386,
                    "velocity": 0.3228346456692913,
                    "duration": 0.18987349999997605
                },
                {
                    "name": "G2",
                    "midi": 43,
                    "time": 573.9242993333053,
                    "velocity": 0.3228346456692913,
                    "duration": 0.18987349999997605
                },
                {
                    "name": "F#2",
                    "midi": 42,
                    "time": 574.1774639999719,
                    "velocity": 0.2677165354330709,
                    "duration": 0.18987349999997605
                },
                {
                    "name": "C3",
                    "midi": 48,
                    "time": 574.1774639999719,
                    "velocity": 0.41732283464566927,
                    "duration": 1.5189879999998084
                },
                {
                    "name": "F#2",
                    "midi": 42,
                    "time": 574.4306286666385,
                    "velocity": 0.2677165354330709,
                    "duration": 0.18987349999997605
                },
                {
                    "name": "F#2",
                    "midi": 42,
                    "time": 574.6837933333052,
                    "velocity": 0.2677165354330709,
                    "duration": 0.18987349999997605
                },
                {
                    "name": "F#2",
                    "midi": 42,
                    "time": 574.9369579999718,
                    "velocity": 0.3228346456692913,
                    "duration": 0.18987349999997605
                },
                {
                    "name": "F#2",
                    "midi": 42,
                    "time": 575.1901226666384,
                    "velocity": 0.25984251968503935,
                    "duration": 0.18987349999997605
                },
                {
                    "name": "F#2",
                    "midi": 42,
                    "time": 575.4432873333051,
                    "velocity": 0.25984251968503935,
                    "duration": 0.18987349999997605
                },
                {
                    "name": "F#2",
                    "midi": 42,
                    "time": 575.6964519999717,
                    "velocity": 0.2677165354330709,
                    "duration": 0.18987349999997605
                },
                {
                    "name": "D3",
                    "midi": 50,
                    "time": 575.6964519999717,
                    "velocity": 0.33858267716535434,
                    "duration": 0.7594939999999042
                },
                {
                    "name": "F#2",
                    "midi": 42,
                    "time": 575.9496166666383,
                    "velocity": 0.25196850393700787,
                    "duration": 0.18987349999997605
                },
                {
                    "name": "F#2",
                    "midi": 42,
                    "time": 576.202781333305,
                    "velocity": 0.25196850393700787,
                    "duration": 0.18987349999997605
                },
                {
                    "name": "F#2",
                    "midi": 42,
                    "time": 576.4559459999716,
                    "velocity": 0.2677165354330709,
                    "duration": 0.18987349999997605
                },
                {
                    "name": "D#3",
                    "midi": 51,
                    "time": 576.4559459999716,
                    "velocity": 0.3464566929133858,
                    "duration": 0.7594939999999042
                },
                {
                    "name": "F#2",
                    "midi": 42,
                    "time": 576.7091106666383,
                    "velocity": 0.25984251968503935,
                    "duration": 0.18987349999997605
                },
                {
                    "name": "F#2",
                    "midi": 42,
                    "time": 576.9622753333049,
                    "velocity": 0.25984251968503935,
                    "duration": 0.18987349999997605
                },
                {
                    "name": "G2",
                    "midi": 43,
                    "time": 577.2154399999715,
                    "velocity": 0.2677165354330709,
                    "duration": 0.18987349999997605
                },
                {
                    "name": "E3",
                    "midi": 52,
                    "time": 577.2154399999715,
                    "velocity": 0.36220472440944884,
                    "duration": 1.5189879999998084
                },
                {
                    "name": "G2",
                    "midi": 43,
                    "time": 577.4686046666382,
                    "velocity": 0.2677165354330709,
                    "duration": 0.18987349999997605
                },
                {
                    "name": "G2",
                    "midi": 43,
                    "time": 577.7217693333048,
                    "velocity": 0.2677165354330709,
                    "duration": 0.18987349999997605
                },
                {
                    "name": "G2",
                    "midi": 43,
                    "time": 577.9749339999714,
                    "velocity": 0.2677165354330709,
                    "duration": 0.18987349999997605
                },
                {
                    "name": "G2",
                    "midi": 43,
                    "time": 578.2280986666381,
                    "velocity": 0.2677165354330709,
                    "duration": 0.18987349999997605
                },
                {
                    "name": "G2",
                    "midi": 43,
                    "time": 578.4812633333047,
                    "velocity": 0.2677165354330709,
                    "duration": 0.18987349999997605
                },
                {
                    "name": "G2",
                    "midi": 43,
                    "time": 578.7344279999713,
                    "velocity": 0.2677165354330709,
                    "duration": 0.18987349999997605
                },
                {
                    "name": "D3",
                    "midi": 50,
                    "time": 578.7344279999713,
                    "velocity": 0.3543307086614173,
                    "duration": 1.5189879999998084
                },
                {
                    "name": "G2",
                    "midi": 43,
                    "time": 578.987592666638,
                    "velocity": 0.2677165354330709,
                    "duration": 0.18987349999997605
                },
                {
                    "name": "G2",
                    "midi": 43,
                    "time": 579.2407573333046,
                    "velocity": 0.2755905511811024,
                    "duration": 0.18987349999997605
                },
                {
                    "name": "G2",
                    "midi": 43,
                    "time": 579.4939219999712,
                    "velocity": 0.2755905511811024,
                    "duration": 0.18987349999997605
                },
                {
                    "name": "G2",
                    "midi": 43,
                    "time": 579.7470866666379,
                    "velocity": 0.23622047244094488,
                    "duration": 0.18987349999997605
                },
                {
                    "name": "G2",
                    "midi": 43,
                    "time": 580.0002513333045,
                    "velocity": 0.23622047244094488,
                    "duration": 0.18987349999997605
                },
                {
                    "name": "C2",
                    "midi": 36,
                    "time": 580.2534159999711,
                    "velocity": 0.25196850393700787,
                    "duration": 0.18987349999997605
                },
                {
                    "name": "C3",
                    "midi": 48,
                    "time": 580.2534159999711,
                    "velocity": 0.2992125984251969,
                    "duration": 4.556963999999425
                },
                {
                    "name": "C2",
                    "midi": 36,
                    "time": 580.5065806666378,
                    "velocity": 0.2992125984251969,
                    "duration": 0.18987349999997605
                },
                {
                    "name": "C2",
                    "midi": 36,
                    "time": 580.7597453333044,
                    "velocity": 0.29133858267716534,
                    "duration": 0.18987349999997605
                },
                {
                    "name": "C2",
                    "midi": 36,
                    "time": 581.012909999971,
                    "velocity": 0.29133858267716534,
                    "duration": 0.18987349999997605
                },
                {
                    "name": "C2",
                    "midi": 36,
                    "time": 581.2660746666377,
                    "velocity": 0.28346456692913385,
                    "duration": 0.18987349999997605
                },
                {
                    "name": "C2",
                    "midi": 36,
                    "time": 581.5192393333043,
                    "velocity": 0.2755905511811024,
                    "duration": 0.18987349999997605
                },
                {
                    "name": "C2",
                    "midi": 36,
                    "time": 581.772403999971,
                    "velocity": 0.2755905511811024,
                    "duration": 0.18987349999997605
                },
                {
                    "name": "C2",
                    "midi": 36,
                    "time": 582.0255686666376,
                    "velocity": 0.2677165354330709,
                    "duration": 0.18987349999997605
                },
                {
                    "name": "C2",
                    "midi": 36,
                    "time": 582.2787333333042,
                    "velocity": 0.2677165354330709,
                    "duration": 0.18987349999997605
                },
                {
                    "name": "C2",
                    "midi": 36,
                    "time": 582.5318979999709,
                    "velocity": 0.25984251968503935,
                    "duration": 0.18987349999997605
                },
                {
                    "name": "C2",
                    "midi": 36,
                    "time": 582.7850626666375,
                    "velocity": 0.25984251968503935,
                    "duration": 0.18987349999997605
                },
                {
                    "name": "C2",
                    "midi": 36,
                    "time": 583.0382273333041,
                    "velocity": 0.25196850393700787,
                    "duration": 0.18987349999997605
                },
                {
                    "name": "C2",
                    "midi": 36,
                    "time": 583.2913919999708,
                    "velocity": 0.2440944881889764,
                    "duration": 0.18987349999997605
                },
                {
                    "name": "C2",
                    "midi": 36,
                    "time": 583.5445566666374,
                    "velocity": 0.2440944881889764,
                    "duration": 0.18987349999997605
                },
                {
                    "name": "C2",
                    "midi": 36,
                    "time": 583.797721333304,
                    "velocity": 0.23622047244094488,
                    "duration": 0.18987349999997605
                },
                {
                    "name": "C2",
                    "midi": 36,
                    "time": 584.0508859999707,
                    "velocity": 0.23622047244094488,
                    "duration": 0.18987349999997605
                },
                {
                    "name": "C2",
                    "midi": 36,
                    "time": 584.3040506666373,
                    "velocity": 0.2283464566929134,
                    "duration": 0.18987349999997605
                },
                {
                    "name": "C2",
                    "midi": 36,
                    "time": 584.5572153333039,
                    "velocity": 0.2204724409448819,
                    "duration": 0.18987349999997605
                },
                {
                    "name": "C2",
                    "midi": 36,
                    "time": 584.8103799999706,
                    "velocity": 0.2677165354330709,
                    "duration": 0.7594940000000179
                },
                {
                    "name": "G4",
                    "midi": 67,
                    "time": 587.0888619999706,
                    "velocity": 0.2283464566929134,
                    "duration": 1.5189880000000358
                },
                {
                    "name": "G3",
                    "midi": 55,
                    "time": 587.0888619999706,
                    "velocity": 0.1889763779527559,
                    "duration": 1.5189880000000358
                },
                {
                    "name": "G3",
                    "midi": 55,
                    "time": 590.1268379999707,
                    "velocity": 0.1889763779527559,
                    "duration": 1.5189880000000358
                },
                {
                    "name": "G4",
                    "midi": 67,
                    "time": 590.1268379999707,
                    "velocity": 0.2283464566929134,
                    "duration": 1.5189880000000358
                },
                {
                    "name": "C4",
                    "midi": 60,
                    "time": 591.6458259999707,
                    "velocity": 0.2283464566929134,
                    "duration": 0.3797469999999521
                },
                {
                    "name": "D4",
                    "midi": 62,
                    "time": 592.0255729999707,
                    "velocity": 0.2755905511811024,
                    "duration": 0.3797469999999521
                },
                {
                    "name": "D#4",
                    "midi": 63,
                    "time": 592.4053199999706,
                    "velocity": 0.31496062992125984,
                    "duration": 0.7594940000000179
                },
                {
                    "name": "D4",
                    "midi": 62,
                    "time": 593.1648139999706,
                    "velocity": 0.25984251968503935,
                    "duration": 0.3797469999999521
                },
                {
                    "name": "C4",
                    "midi": 60,
                    "time": 593.5445609999706,
                    "velocity": 0.23622047244094488,
                    "duration": 0.3797469999999521
                },
                {
                    "name": "E4",
                    "midi": 64,
                    "time": 593.9243079999706,
                    "velocity": 0.25984251968503935,
                    "duration": 0.5696205000000418
                },
                {
                    "name": "G3",
                    "midi": 55,
                    "time": 593.9243079999706,
                    "velocity": 0.2204724409448819,
                    "duration": 0.5696205000000418
                },
                {
                    "name": "D4",
                    "midi": 62,
                    "time": 594.6838019999706,
                    "velocity": 0.23622047244094488,
                    "duration": 0.5696205000000418
                },
                {
                    "name": "G3",
                    "midi": 55,
                    "time": 594.6838019999706,
                    "velocity": 0.1968503937007874,
                    "duration": 0.5696205000000418
                },
                {
                    "name": "C3",
                    "midi": 48,
                    "time": 595.4432959999706,
                    "velocity": 0.1889763779527559,
                    "duration": 2.2784820000000536
                },
                {
                    "name": "G3",
                    "midi": 55,
                    "time": 595.4432959999706,
                    "velocity": 0.2125984251968504,
                    "duration": 2.2784820000000536
                },
                {
                    "name": "C4",
                    "midi": 60,
                    "time": 595.4432959999706,
                    "velocity": 0.25984251968503935,
                    "duration": 2.2784820000000536
                },
                {
                    "name": "B3",
                    "midi": 59,
                    "time": 597.7217779999706,
                    "velocity": 0.25984251968503935,
                    "duration": 0.5696205000000418
                },
                {
                    "name": "C4",
                    "midi": 60,
                    "time": 598.2913984999707,
                    "velocity": 0.2204724409448819,
                    "duration": 0.18987349999997605
                },
                {
                    "name": "D4",
                    "midi": 62,
                    "time": 598.4812719999707,
                    "velocity": 0.2992125984251969,
                    "duration": 0.5348103583332886
                },
                {
                    "name": "D4",
                    "midi": 62,
                    "time": 599.2407659999706,
                    "velocity": 0.2440944881889764,
                    "duration": 0.5348103583332886
                },
                {
                    "name": "D4",
                    "midi": 62,
                    "time": 600.0002599999705,
                    "velocity": 0.2440944881889764,
                    "duration": 0.5348103583332886
                },
                {
                    "name": "C4",
                    "midi": 60,
                    "time": 600.7597539999704,
                    "velocity": 0.2755905511811024,
                    "duration": 0.5696205000000418
                },
                {
                    "name": "D4",
                    "midi": 62,
                    "time": 601.3293744999704,
                    "velocity": 0.2755905511811024,
                    "duration": 0.18987349999997605
                },
                {
                    "name": "D#4",
                    "midi": 63,
                    "time": 601.5192479999704,
                    "velocity": 0.31496062992125984,
                    "duration": 1.13924099999997
                },
                {
                    "name": "D4",
                    "midi": 62,
                    "time": 602.6584889999704,
                    "velocity": 0.25984251968503935,
                    "duration": 0.3797469999999521
                },
                {
                    "name": "C4",
                    "midi": 60,
                    "time": 603.0382359999703,
                    "velocity": 0.2283464566929134,
                    "duration": 0.3797469999999521
                },
                {
                    "name": "G3",
                    "midi": 55,
                    "time": 603.4179829999703,
                    "velocity": 0.2283464566929134,
                    "duration": 0.3797469999999521
                },
                {
                    "name": "C4",
                    "midi": 60,
                    "time": 603.7977299999702,
                    "velocity": 0.2283464566929134,
                    "duration": 0.3797469999999521
                },
                {
                    "name": "D4",
                    "midi": 62,
                    "time": 604.1774769999702,
                    "velocity": 0.2755905511811024,
                    "duration": 0.3797469999999521
                },
                {
                    "name": "D#4",
                    "midi": 63,
                    "time": 604.5572239999701,
                    "velocity": 0.31496062992125984,
                    "duration": 0.7594940000000179
                },
                {
                    "name": "D4",
                    "midi": 62,
                    "time": 605.3167179999701,
                    "velocity": 0.25984251968503935,
                    "duration": 0.3797469999999521
                },
                {
                    "name": "C4",
                    "midi": 60,
                    "time": 605.6964649999701,
                    "velocity": 0.23622047244094488,
                    "duration": 0.3797469999999521
                },
                {
                    "name": "E4",
                    "midi": 64,
                    "time": 606.07621199997,
                    "velocity": 0.25984251968503935,
                    "duration": 0.5696205000000418
                },
                {
                    "name": "G3",
                    "midi": 55,
                    "time": 606.07621199997,
                    "velocity": 0.2204724409448819,
                    "duration": 0.5696205000000418
                },
                {
                    "name": "D4",
                    "midi": 62,
                    "time": 606.8357059999701,
                    "velocity": 0.23622047244094488,
                    "duration": 0.5696205000000418
                },
                {
                    "name": "G3",
                    "midi": 55,
                    "time": 606.8357059999701,
                    "velocity": 0.1968503937007874,
                    "duration": 0.5696205000000418
                },
                {
                    "name": "C3",
                    "midi": 48,
                    "time": 607.5951999999701,
                    "velocity": 0.1968503937007874,
                    "duration": 1.5189880000000358
                },
                {
                    "name": "G3",
                    "midi": 55,
                    "time": 607.5951999999701,
                    "velocity": 0.1968503937007874,
                    "duration": 1.5189880000000358
                },
                {
                    "name": "C4",
                    "midi": 60,
                    "time": 607.5951999999701,
                    "velocity": 0.23622047244094488,
                    "duration": 1.5189880000000358
                },
                {
                    "name": "E4",
                    "midi": 64,
                    "time": 609.1141879999701,
                    "velocity": 0.25984251968503935,
                    "duration": 0.5696205000000418
                },
                {
                    "name": "G3",
                    "midi": 55,
                    "time": 609.1141879999701,
                    "velocity": 0.2204724409448819,
                    "duration": 0.5696205000000418
                },
                {
                    "name": "D4",
                    "midi": 62,
                    "time": 609.8736819999701,
                    "velocity": 0.23622047244094488,
                    "duration": 0.5696205000000418
                },
                {
                    "name": "G3",
                    "midi": 55,
                    "time": 609.8736819999701,
                    "velocity": 0.1968503937007874,
                    "duration": 0.5696205000000418
                },
                {
                    "name": "C3",
                    "midi": 48,
                    "time": 610.6331759999701,
                    "velocity": 0.1968503937007874,
                    "duration": 1.5189880000000358
                },
                {
                    "name": "G3",
                    "midi": 55,
                    "time": 610.6331759999701,
                    "velocity": 0.1968503937007874,
                    "duration": 1.5189880000000358
                },
                {
                    "name": "C4",
                    "midi": 60,
                    "time": 610.6331759999701,
                    "velocity": 0.23622047244094488,
                    "duration": 1.5189880000000358
                },
                {
                    "name": "E3",
                    "midi": 52,
                    "time": 612.1521639999702,
                    "velocity": 0.2677165354330709,
                    "duration": 0.7594940000000179
                },
                {
                    "name": "G2",
                    "midi": 43,
                    "time": 612.1521639999702,
                    "velocity": 0.2283464566929134,
                    "duration": 0.7594940000000179
                },
                {
                    "name": "D3",
                    "midi": 50,
                    "time": 612.9116579999702,
                    "velocity": 0.25196850393700787,
                    "duration": 0.7594940000000179
                },
                {
                    "name": "G2",
                    "midi": 43,
                    "time": 612.9116579999702,
                    "velocity": 0.2125984251968504,
                    "duration": 0.7594940000000179
                },
                {
                    "name": "C2",
                    "midi": 36,
                    "time": 613.6711519999702,
                    "velocity": 0.2283464566929134,
                    "duration": 1.5189880000000358
                },
                {
                    "name": "G2",
                    "midi": 43,
                    "time": 613.6711519999702,
                    "velocity": 0.2283464566929134,
                    "duration": 1.5189880000000358
                },
                {
                    "name": "C3",
                    "midi": 48,
                    "time": 613.6711519999702,
                    "velocity": 0.28346456692913385,
                    "duration": 1.5189880000000358
                },
                {
                    "name": "C2",
                    "midi": 36,
                    "time": 615.1901399999703,
                    "velocity": 0.2204724409448819,
                    "duration": 1.5189880000000358
                },
                {
                    "name": "G2",
                    "midi": 43,
                    "time": 615.1901399999703,
                    "velocity": 0.2204724409448819,
                    "duration": 1.5189880000000358
                },
                {
                    "name": "C3",
                    "midi": 48,
                    "time": 615.1901399999703,
                    "velocity": 0.2677165354330709,
                    "duration": 1.5189880000000358
                },
                {
                    "name": "C2",
                    "midi": 36,
                    "time": 616.7091279999703,
                    "velocity": 0.2204724409448819,
                    "duration": 3.037975999999958
                },
                {
                    "name": "G2",
                    "midi": 43,
                    "time": 616.7091279999703,
                    "velocity": 0.2204724409448819,
                    "duration": 3.037975999999958
                },
                {
                    "name": "C3",
                    "midi": 48,
                    "time": 616.7091279999703,
                    "velocity": 0.2677165354330709,
                    "duration": 3.037975999999958
                }
            ],
            "controlChanges": {
                "7": [
                    {
                        "number": 7,
                        "time": 0,
                        "value": 0.7874015748031497
                    }
                ],
                "10": [
                    {
                        "number": 10,
                        "time": 0,
                        "value": 0.5039370078740157
                    }
                ]
            },
            "id": 2,
            "name": "Piano left",
            "instrumentNumber": 0,
            "instrument": "acoustic grand piano",
            "instrumentFamily": "piano",
            "channelNumber": 0,
            "isPercussion": false
        },
        {
            "startTime": 0,
            "duration": 0,
            "length": 0,
            "notes": [],
            "controlChanges": {
                "64": [
                    {
                        "number": 64,
                        "time": 0.04430381666666667,
                        "value": 1
                    },
                    {
                        "number": 64,
                        "time": 2.212026275,
                        "value": 0
                    },
                    {
                        "number": 64,
                        "time": 63.161419775,
                        "value": 1
                    },
                    {
                        "number": 64,
                        "time": 63.797495999999995,
                        "value": 0
                    },
                    {
                        "number": 64,
                        "time": 63.922496054166665,
                        "value": 1
                    },
                    {
                        "number": 64,
                        "time": 66.09812990833333,
                        "value": 0
                    },
                    {
                        "number": 64,
                        "time": 66.22629452083333,
                        "value": 1
                    },
                    {
                        "number": 64,
                        "time": 66.835472,
                        "value": 0
                    },
                    {
                        "number": 64,
                        "time": 67.02059866249999,
                        "value": 1
                    },
                    {
                        "number": 64,
                        "time": 67.61711790833333,
                        "value": 0
                    },
                    {
                        "number": 64,
                        "time": 68.5395866625,
                        "value": 1
                    },
                    {
                        "number": 64,
                        "time": 69.13452362916667,
                        "value": 0
                    },
                    {
                        "number": 64,
                        "time": 69.2421186125,
                        "value": 1
                    },
                    {
                        "number": 64,
                        "time": 69.873448,
                        "value": 0
                    },
                    {
                        "number": 64,
                        "time": 70.04908098749999,
                        "value": 1
                    },
                    {
                        "number": 64,
                        "time": 70.6471825125,
                        "value": 0
                    },
                    {
                        "number": 64,
                        "time": 70.7326255875,
                        "value": 1
                    },
                    {
                        "number": 64,
                        "time": 71.41933474583332,
                        "value": 0
                    },
                    {
                        "number": 64,
                        "time": 71.53325884583333,
                        "value": 1
                    },
                    {
                        "number": 64,
                        "time": 72.16933507083333,
                        "value": 0
                    },
                    {
                        "number": 64,
                        "time": 72.25794270416667,
                        "value": 1
                    },
                    {
                        "number": 64,
                        "time": 72.911424,
                        "value": 0
                    },
                    {
                        "number": 64,
                        "time": 73.62977874166667,
                        "value": 1
                    },
                    {
                        "number": 64,
                        "time": 74.76901974166667,
                        "value": 0
                    },
                    {
                        "number": 64,
                        "time": 78.27851493333334,
                        "value": 1
                    },
                    {
                        "number": 64,
                        "time": 78.43357829166668,
                        "value": 0
                    },
                    {
                        "number": 64,
                        "time": 87.46522777500002,
                        "value": 1
                    },
                    {
                        "number": 64,
                        "time": 88.10130400000001,
                        "value": 0
                    },
                    {
                        "number": 64,
                        "time": 88.22630405416668,
                        "value": 1
                    },
                    {
                        "number": 64,
                        "time": 90.40193790833334,
                        "value": 0
                    },
                    {
                        "number": 64,
                        "time": 90.53010252083334,
                        "value": 1
                    },
                    {
                        "number": 64,
                        "time": 91.13928,
                        "value": 0
                    },
                    {
                        "number": 64,
                        "time": 91.3244066625,
                        "value": 1
                    },
                    {
                        "number": 64,
                        "time": 91.92092590833333,
                        "value": 0
                    },
                    {
                        "number": 64,
                        "time": 92.8433946625,
                        "value": 1
                    },
                    {
                        "number": 64,
                        "time": 93.43833162916667,
                        "value": 0
                    },
                    {
                        "number": 64,
                        "time": 93.5459266125,
                        "value": 1
                    },
                    {
                        "number": 64,
                        "time": 94.177256,
                        "value": 0
                    },
                    {
                        "number": 64,
                        "time": 94.3528889875,
                        "value": 1
                    },
                    {
                        "number": 64,
                        "time": 94.9509905125,
                        "value": 0
                    },
                    {
                        "number": 64,
                        "time": 95.0364335875,
                        "value": 1
                    },
                    {
                        "number": 64,
                        "time": 95.72314274583333,
                        "value": 0
                    },
                    {
                        "number": 64,
                        "time": 95.83706684583333,
                        "value": 1
                    },
                    {
                        "number": 64,
                        "time": 96.47314307083333,
                        "value": 0
                    },
                    {
                        "number": 64,
                        "time": 96.56175070416667,
                        "value": 1
                    },
                    {
                        "number": 64,
                        "time": 97.215232,
                        "value": 0
                    },
                    {
                        "number": 64,
                        "time": 97.93358674166667,
                        "value": 1
                    },
                    {
                        "number": 64,
                        "time": 99.51111907083335,
                        "value": 0
                    },
                    {
                        "number": 64,
                        "time": 99.59972670416668,
                        "value": 1
                    },
                    {
                        "number": 64,
                        "time": 100.25320800000001,
                        "value": 0
                    },
                    {
                        "number": 64,
                        "time": 100.97156274166669,
                        "value": 1
                    },
                    {
                        "number": 64,
                        "time": 102.11080374166669,
                        "value": 0
                    },
                    {
                        "number": 64,
                        "time": 102.54909507083335,
                        "value": 0
                    },
                    {
                        "number": 64,
                        "time": 102.63770270416668,
                        "value": 1
                    },
                    {
                        "number": 64,
                        "time": 103.29118400000002,
                        "value": 0
                    },
                    {
                        "number": 64,
                        "time": 104.00953874166669,
                        "value": 1
                    },
                    {
                        "number": 64,
                        "time": 105.59023562916668,
                        "value": 0
                    },
                    {
                        "number": 64,
                        "time": 105.69783061250001,
                        "value": 1
                    },
                    {
                        "number": 64,
                        "time": 106.32916000000002,
                        "value": 0
                    },
                    {
                        "number": 64,
                        "time": 106.50479298750001,
                        "value": 1
                    },
                    {
                        "number": 64,
                        "time": 107.10289451250001,
                        "value": 0
                    },
                    {
                        "number": 64,
                        "time": 107.24529963750001,
                        "value": 1
                    },
                    {
                        "number": 64,
                        "time": 107.87504674583334,
                        "value": 0
                    },
                    {
                        "number": 64,
                        "time": 108.07757847916668,
                        "value": 1
                    },
                    {
                        "number": 64,
                        "time": 108.62504707083335,
                        "value": 0
                    },
                    {
                        "number": 64,
                        "time": 108.77536359166668,
                        "value": 1
                    },
                    {
                        "number": 64,
                        "time": 109.367136,
                        "value": 0
                    },
                    {
                        "number": 64,
                        "time": 110.08549074166667,
                        "value": 1
                    },
                    {
                        "number": 64,
                        "time": 111.66302307083335,
                        "value": 0
                    },
                    {
                        "number": 64,
                        "time": 111.75163070416669,
                        "value": 1
                    },
                    {
                        "number": 64,
                        "time": 112.40511200000002,
                        "value": 0
                    },
                    {
                        "number": 64,
                        "time": 113.12346674166669,
                        "value": 1
                    },
                    {
                        "number": 64,
                        "time": 114.70099907083336,
                        "value": 0
                    },
                    {
                        "number": 64,
                        "time": 114.7896067041667,
                        "value": 1
                    },
                    {
                        "number": 64,
                        "time": 115.44308800000003,
                        "value": 0
                    },
                    {
                        "number": 64,
                        "time": 116.1614427416667,
                        "value": 1
                    },
                    {
                        "number": 64,
                        "time": 117.75005102500003,
                        "value": 0
                    },
                    {
                        "number": 64,
                        "time": 118.52220325833336,
                        "value": 1
                    },
                    {
                        "number": 64,
                        "time": 118.6772666166667,
                        "value": 0
                    },
                    {
                        "number": 64,
                        "time": 121.76587555000003,
                        "value": 1
                    },
                    {
                        "number": 64,
                        "time": 123.0585976291667,
                        "value": 0
                    },
                    {
                        "number": 64,
                        "time": 123.1772685666667,
                        "value": 1
                    },
                    {
                        "number": 64,
                        "time": 123.81176251250002,
                        "value": 0
                    },
                    {
                        "number": 64,
                        "time": 123.91461065833336,
                        "value": 1
                    },
                    {
                        "number": 64,
                        "time": 124.55701600000003,
                        "value": 0
                    },
                    {
                        "number": 64,
                        "time": 124.76587685000003,
                        "value": 1
                    },
                    {
                        "number": 64,
                        "time": 126.09024451250002,
                        "value": 0
                    },
                    {
                        "number": 64,
                        "time": 126.2389787541667,
                        "value": 1
                    },
                    {
                        "number": 64,
                        "time": 126.84499167500003,
                        "value": 0
                    },
                    {
                        "number": 64,
                        "time": 126.97157400833336,
                        "value": 1
                    },
                    {
                        "number": 64,
                        "time": 127.59499200000003,
                        "value": 0
                    },
                    {
                        "number": 64,
                        "time": 127.74056168333337,
                        "value": 1
                    },
                    {
                        "number": 64,
                        "time": 128.36397967500002,
                        "value": 0
                    },
                    {
                        "number": 64,
                        "time": 128.50005568333336,
                        "value": 1
                    },
                    {
                        "number": 64,
                        "time": 129.14087874583336,
                        "value": 0
                    },
                    {
                        "number": 64,
                        "time": 129.33075224583337,
                        "value": 1
                    },
                    {
                        "number": 64,
                        "time": 130.63296800000003,
                        "value": 0
                    },
                    {
                        "number": 64,
                        "time": 130.77853768333335,
                        "value": 1
                    },
                    {
                        "number": 64,
                        "time": 131.401955675,
                        "value": 0
                    },
                    {
                        "number": 64,
                        "time": 131.53803168333334,
                        "value": 1
                    },
                    {
                        "number": 64,
                        "time": 132.17885474583335,
                        "value": 0
                    },
                    {
                        "number": 64,
                        "time": 132.36872824583335,
                        "value": 1
                    },
                    {
                        "number": 64,
                        "time": 132.9320196291667,
                        "value": 0
                    },
                    {
                        "number": 64,
                        "time": 133.10132350000003,
                        "value": 1
                    },
                    {
                        "number": 64,
                        "time": 133.67094400000005,
                        "value": 0
                    },
                    {
                        "number": 64,
                        "time": 133.81651368333337,
                        "value": 1
                    },
                    {
                        "number": 64,
                        "time": 134.43993167500003,
                        "value": 0
                    },
                    {
                        "number": 64,
                        "time": 134.57600768333336,
                        "value": 1
                    },
                    {
                        "number": 64,
                        "time": 135.21683074583336,
                        "value": 0
                    },
                    {
                        "number": 64,
                        "time": 135.40670424583337,
                        "value": 1
                    },
                    {
                        "number": 64,
                        "time": 135.9699956291667,
                        "value": 0
                    },
                    {
                        "number": 64,
                        "time": 136.13929950000005,
                        "value": 1
                    },
                    {
                        "number": 64,
                        "time": 136.7199959541667,
                        "value": 0
                    },
                    {
                        "number": 64,
                        "time": 136.95575555000005,
                        "value": 1
                    },
                    {
                        "number": 64,
                        "time": 138.24847762916673,
                        "value": 0
                    },
                    {
                        "number": 64,
                        "time": 138.36714856666674,
                        "value": 1
                    },
                    {
                        "number": 64,
                        "time": 139.00164251250007,
                        "value": 0
                    },
                    {
                        "number": 64,
                        "time": 139.1044906583334,
                        "value": 1
                    },
                    {
                        "number": 64,
                        "time": 139.74689600000005,
                        "value": 0
                    },
                    {
                        "number": 64,
                        "time": 139.95575685000006,
                        "value": 1
                    },
                    {
                        "number": 64,
                        "time": 141.28012451250007,
                        "value": 0
                    },
                    {
                        "number": 64,
                        "time": 141.42885875416673,
                        "value": 1
                    },
                    {
                        "number": 64,
                        "time": 142.03487167500006,
                        "value": 0
                    },
                    {
                        "number": 64,
                        "time": 142.1614540083334,
                        "value": 1
                    },
                    {
                        "number": 64,
                        "time": 142.78487200000006,
                        "value": 0
                    },
                    {
                        "number": 64,
                        "time": 142.93044168333338,
                        "value": 1
                    },
                    {
                        "number": 64,
                        "time": 143.55385967500004,
                        "value": 0
                    },
                    {
                        "number": 64,
                        "time": 143.68993568333337,
                        "value": 1
                    },
                    {
                        "number": 64,
                        "time": 144.33075874583338,
                        "value": 0
                    },
                    {
                        "number": 64,
                        "time": 144.52063224583338,
                        "value": 1
                    },
                    {
                        "number": 64,
                        "time": 145.82284800000005,
                        "value": 0
                    },
                    {
                        "number": 64,
                        "time": 145.96841768333337,
                        "value": 1
                    },
                    {
                        "number": 64,
                        "time": 146.59183567500003,
                        "value": 0
                    },
                    {
                        "number": 64,
                        "time": 146.72791168333336,
                        "value": 1
                    },
                    {
                        "number": 64,
                        "time": 147.36873474583336,
                        "value": 0
                    },
                    {
                        "number": 64,
                        "time": 147.55860824583337,
                        "value": 1
                    },
                    {
                        "number": 64,
                        "time": 148.1218996291667,
                        "value": 0
                    },
                    {
                        "number": 64,
                        "time": 148.29120350000005,
                        "value": 1
                    },
                    {
                        "number": 64,
                        "time": 148.86082400000006,
                        "value": 0
                    },
                    {
                        "number": 64,
                        "time": 149.00639368333339,
                        "value": 1
                    },
                    {
                        "number": 64,
                        "time": 149.62981167500004,
                        "value": 0
                    },
                    {
                        "number": 64,
                        "time": 149.76588768333337,
                        "value": 1
                    },
                    {
                        "number": 64,
                        "time": 150.40671074583338,
                        "value": 0
                    },
                    {
                        "number": 64,
                        "time": 150.5253816833334,
                        "value": 1
                    },
                    {
                        "number": 64,
                        "time": 151.15987562916672,
                        "value": 0
                    },
                    {
                        "number": 64,
                        "time": 151.26272377500004,
                        "value": 1
                    },
                    {
                        "number": 64,
                        "time": 151.9098759541667,
                        "value": 0
                    },
                    {
                        "number": 64,
                        "time": 152.14563555000004,
                        "value": 1
                    },
                    {
                        "number": 64,
                        "time": 153.43835762916672,
                        "value": 0
                    },
                    {
                        "number": 64,
                        "time": 153.55702856666673,
                        "value": 1
                    },
                    {
                        "number": 64,
                        "time": 154.19152251250006,
                        "value": 0
                    },
                    {
                        "number": 64,
                        "time": 154.29437065833338,
                        "value": 1
                    },
                    {
                        "number": 64,
                        "time": 154.93677600000004,
                        "value": 0
                    },
                    {
                        "number": 64,
                        "time": 155.14563685000005,
                        "value": 1
                    },
                    {
                        "number": 64,
                        "time": 156.47000451250005,
                        "value": 0
                    },
                    {
                        "number": 64,
                        "time": 156.6187387541667,
                        "value": 1
                    },
                    {
                        "number": 64,
                        "time": 157.22475167500005,
                        "value": 0
                    },
                    {
                        "number": 64,
                        "time": 157.3513340083334,
                        "value": 1
                    },
                    {
                        "number": 64,
                        "time": 157.98582795416672,
                        "value": 0
                    },
                    {
                        "number": 64,
                        "time": 158.11082800833339,
                        "value": 1
                    },
                    {
                        "number": 64,
                        "time": 158.74848651250005,
                        "value": 0
                    },
                    {
                        "number": 64,
                        "time": 158.8972207541667,
                        "value": 1
                    },
                    {
                        "number": 64,
                        "time": 159.50323367500005,
                        "value": 0
                    },
                    {
                        "number": 64,
                        "time": 159.6298160083334,
                        "value": 1
                    },
                    {
                        "number": 64,
                        "time": 160.26747451250006,
                        "value": 0
                    },
                    {
                        "number": 64,
                        "time": 160.37032265833338,
                        "value": 1
                    },
                    {
                        "number": 64,
                        "time": 161.0238039541667,
                        "value": 0
                    },
                    {
                        "number": 64,
                        "time": 161.25956355000005,
                        "value": 1
                    },
                    {
                        "number": 64,
                        "time": 162.55228562916673,
                        "value": 0
                    },
                    {
                        "number": 64,
                        "time": 162.67095656666675,
                        "value": 1
                    },
                    {
                        "number": 64,
                        "time": 164.06177995416675,
                        "value": 0
                    },
                    {
                        "number": 64,
                        "time": 164.2975395500001,
                        "value": 1
                    },
                    {
                        "number": 64,
                        "time": 165.59026162916678,
                        "value": 0
                    },
                    {
                        "number": 64,
                        "time": 165.7089325666668,
                        "value": 1
                    },
                    {
                        "number": 64,
                        "time": 166.34342651250012,
                        "value": 0
                    },
                    {
                        "number": 64,
                        "time": 166.44627465833344,
                        "value": 1
                    },
                    {
                        "number": 64,
                        "time": 167.0886800000001,
                        "value": 0
                    },
                    {
                        "number": 64,
                        "time": 167.2975408500001,
                        "value": 1
                    },
                    {
                        "number": 64,
                        "time": 168.6219085125001,
                        "value": 0
                    },
                    {
                        "number": 64,
                        "time": 168.77064275416677,
                        "value": 1
                    },
                    {
                        "number": 64,
                        "time": 169.3766556750001,
                        "value": 0
                    },
                    {
                        "number": 64,
                        "time": 169.50323800833345,
                        "value": 1
                    },
                    {
                        "number": 64,
                        "time": 170.13773195416678,
                        "value": 0
                    },
                    {
                        "number": 64,
                        "time": 170.26273200833344,
                        "value": 1
                    },
                    {
                        "number": 64,
                        "time": 170.9003905125001,
                        "value": 0
                    },
                    {
                        "number": 64,
                        "time": 171.04912475416677,
                        "value": 1
                    },
                    {
                        "number": 64,
                        "time": 171.6551376750001,
                        "value": 0
                    },
                    {
                        "number": 64,
                        "time": 171.78172000833345,
                        "value": 1
                    },
                    {
                        "number": 64,
                        "time": 172.41937851250012,
                        "value": 0
                    },
                    {
                        "number": 64,
                        "time": 172.52222665833344,
                        "value": 1
                    },
                    {
                        "number": 64,
                        "time": 173.1646320000001,
                        "value": 0
                    },
                    {
                        "number": 64,
                        "time": 173.3734928500001,
                        "value": 1
                    },
                    {
                        "number": 64,
                        "time": 174.67570860416677,
                        "value": 0
                    },
                    {
                        "number": 64,
                        "time": 174.84659475416677,
                        "value": 1
                    },
                    {
                        "number": 64,
                        "time": 175.4526076750001,
                        "value": 0
                    },
                    {
                        "number": 64,
                        "time": 175.57919000833346,
                        "value": 1
                    },
                    {
                        "number": 64,
                        "time": 176.06811427083346,
                        "value": 0
                    },
                    {
                        "number": 64,
                        "time": 176.25798777083347,
                        "value": 1
                    },
                    {
                        "number": 64,
                        "time": 176.97159567500015,
                        "value": 0
                    },
                    {
                        "number": 64,
                        "time": 177.10767168333348,
                        "value": 1
                    },
                    {
                        "number": 64,
                        "time": 177.74849474583348,
                        "value": 0
                    },
                    {
                        "number": 64,
                        "time": 177.9383682458335,
                        "value": 1
                    },
                    {
                        "number": 64,
                        "time": 178.50165962916682,
                        "value": 0
                    },
                    {
                        "number": 64,
                        "time": 178.67096350000017,
                        "value": 1
                    },
                    {
                        "number": 64,
                        "time": 179.25957135000016,
                        "value": 0
                    },
                    {
                        "number": 64,
                        "time": 179.57602718333348,
                        "value": 1
                    },
                    {
                        "number": 64,
                        "time": 182.27856000000014,
                        "value": 0
                    },
                    {
                        "number": 64,
                        "time": 182.4905854083335,
                        "value": 1
                    },
                    {
                        "number": 64,
                        "time": 183.82128218750015,
                        "value": 0
                    },
                    {
                        "number": 64,
                        "time": 183.99849745416682,
                        "value": 1
                    },
                    {
                        "number": 64,
                        "time": 184.57919390833348,
                        "value": 0
                    },
                    {
                        "number": 64,
                        "time": 184.71368763750016,
                        "value": 1
                    },
                    {
                        "number": 64,
                        "time": 185.32761195416683,
                        "value": 0
                    },
                    {
                        "number": 64,
                        "time": 185.48425759166682,
                        "value": 1
                    },
                    {
                        "number": 64,
                        "time": 186.0981819083335,
                        "value": 0
                    },
                    {
                        "number": 64,
                        "time": 186.2437515916668,
                        "value": 1
                    },
                    {
                        "number": 64,
                        "time": 186.8465999541668,
                        "value": 0
                    },
                    {
                        "number": 64,
                        "time": 187.0032455916668,
                        "value": 1
                    },
                    {
                        "number": 64,
                        "time": 187.61875218750012,
                        "value": 0
                    },
                    {
                        "number": 64,
                        "time": 187.82919531666678,
                        "value": 1
                    },
                    {
                        "number": 64,
                        "time": 188.36875251250012,
                        "value": 0
                    },
                    {
                        "number": 64,
                        "time": 188.5554614541668,
                        "value": 1
                    },
                    {
                        "number": 64,
                        "time": 189.13141107083345,
                        "value": 0
                    },
                    {
                        "number": 64,
                        "time": 189.25008200833346,
                        "value": 1
                    },
                    {
                        "number": 64,
                        "time": 189.89565190833346,
                        "value": 0
                    },
                    {
                        "number": 64,
                        "time": 190.0269810791668,
                        "value": 1
                    },
                    {
                        "number": 64,
                        "time": 190.6535636291668,
                        "value": 0
                    },
                    {
                        "number": 64,
                        "time": 190.7959687541668,
                        "value": 1
                    },
                    {
                        "number": 64,
                        "time": 191.40514623333348,
                        "value": 0
                    },
                    {
                        "number": 64,
                        "time": 191.51907033333347,
                        "value": 1
                    },
                    {
                        "number": 64,
                        "time": 192.15989339583348,
                        "value": 0
                    },
                    {
                        "number": 64,
                        "time": 192.35134917500014,
                        "value": 1
                    },
                    {
                        "number": 64,
                        "time": 192.93837474583347,
                        "value": 0
                    },
                    {
                        "number": 64,
                        "time": 193.12033685000014,
                        "value": 1
                    },
                    {
                        "number": 64,
                        "time": 193.68046367500014,
                        "value": 0
                    },
                    {
                        "number": 64,
                        "time": 193.81653968333347,
                        "value": 1
                    },
                    {
                        "number": 64,
                        "time": 194.43837539583348,
                        "value": 0
                    },
                    {
                        "number": 64,
                        "time": 194.65356536250013,
                        "value": 1
                    },
                    {
                        "number": 64,
                        "time": 197.46844000000013,
                        "value": 0
                    },
                    {
                        "number": 64,
                        "time": 197.6314147541668,
                        "value": 1
                    },
                    {
                        "number": 64,
                        "time": 199.0032507916668,
                        "value": 0
                    },
                    {
                        "number": 64,
                        "time": 199.1409090791668,
                        "value": 1
                    },
                    {
                        "number": 64,
                        "time": 199.75958023333345,
                        "value": 0
                    },
                    {
                        "number": 64,
                        "time": 199.89249168333345,
                        "value": 1
                    },
                    {
                        "number": 64,
                        "time": 200.50641600000012,
                        "value": 0
                    },
                    {
                        "number": 64,
                        "time": 200.67888442916677,
                        "value": 1
                    },
                    {
                        "number": 64,
                        "time": 201.28331507083342,
                        "value": 0
                    },
                    {
                        "number": 64,
                        "time": 201.45578350000008,
                        "value": 1
                    },
                    {
                        "number": 64,
                        "time": 202.04597362916675,
                        "value": 0
                    },
                    {
                        "number": 64,
                        "time": 202.2152775000001,
                        "value": 1
                    },
                    {
                        "number": 64,
                        "time": 202.8086321875001,
                        "value": 0
                    },
                    {
                        "number": 64,
                        "time": 203.00167024583345,
                        "value": 1
                    },
                    {
                        "number": 64,
                        "time": 203.55388567500012,
                        "value": 0
                    },
                    {
                        "number": 64,
                        "time": 203.7342655000001,
                        "value": 1
                    },
                    {
                        "number": 64,
                        "time": 204.32445562916678,
                        "value": 0
                    },
                    {
                        "number": 64,
                        "time": 204.43046833333344,
                        "value": 1
                    },
                    {
                        "number": 64,
                        "time": 205.08553190833345,
                        "value": 0
                    },
                    {
                        "number": 64,
                        "time": 205.27224085000012,
                        "value": 1
                    },
                    {
                        "number": 64,
                        "time": 206.59027939583345,
                        "value": 0
                    },
                    {
                        "number": 64,
                        "time": 206.79122885000012,
                        "value": 1
                    },
                    {
                        "number": 64,
                        "time": 207.37192530416678,
                        "value": 0
                    },
                    {
                        "number": 64,
                        "time": 207.48743168333345,
                        "value": 1
                    },
                    {
                        "number": 64,
                        "time": 208.1108496750001,
                        "value": 0
                    },
                    {
                        "number": 64,
                        "time": 208.24692568333344,
                        "value": 1
                    },
                    {
                        "number": 64,
                        "time": 208.8845841875001,
                        "value": 0
                    },
                    {
                        "number": 64,
                        "time": 209.07762224583345,
                        "value": 1
                    },
                    {
                        "number": 64,
                        "time": 209.62034400000013,
                        "value": 0
                    },
                    {
                        "number": 64,
                        "time": 209.8735086666668,
                        "value": 1
                    },
                    {
                        "number": 64,
                        "time": 212.65832000000012,
                        "value": 0
                    },
                    {
                        "number": 64,
                        "time": 212.86718085000012,
                        "value": 1
                    },
                    {
                        "number": 64,
                        "time": 214.19154851250013,
                        "value": 0
                    },
                    {
                        "number": 64,
                        "time": 214.3402827541668,
                        "value": 1
                    },
                    {
                        "number": 64,
                        "time": 214.94629567500013,
                        "value": 0
                    },
                    {
                        "number": 64,
                        "time": 215.07287800833348,
                        "value": 1
                    },
                    {
                        "number": 64,
                        "time": 215.7073719541668,
                        "value": 0
                    },
                    {
                        "number": 64,
                        "time": 215.83237200833346,
                        "value": 1
                    },
                    {
                        "number": 64,
                        "time": 216.47003051250013,
                        "value": 0
                    },
                    {
                        "number": 64,
                        "time": 216.6187647541668,
                        "value": 1
                    },
                    {
                        "number": 64,
                        "time": 217.22477767500013,
                        "value": 0
                    },
                    {
                        "number": 64,
                        "time": 217.35136000833347,
                        "value": 1
                    },
                    {
                        "number": 64,
                        "time": 217.98901851250014,
                        "value": 0
                    },
                    {
                        "number": 64,
                        "time": 218.09186665833346,
                        "value": 1
                    },
                    {
                        "number": 64,
                        "time": 218.7453479541668,
                        "value": 0
                    },
                    {
                        "number": 64,
                        "time": 218.98110755000013,
                        "value": 1
                    },
                    {
                        "number": 64,
                        "time": 220.2738296291668,
                        "value": 0
                    },
                    {
                        "number": 64,
                        "time": 220.39250056666683,
                        "value": 1
                    },
                    {
                        "number": 64,
                        "time": 221.78332395416683,
                        "value": 0
                    },
                    {
                        "number": 64,
                        "time": 221.92414680000016,
                        "value": 1
                    },
                    {
                        "number": 64,
                        "time": 223.29123600000017,
                        "value": 0
                    },
                    {
                        "number": 64,
                        "time": 224.82129995416685,
                        "value": 0
                    },
                    {
                        "number": 64,
                        "time": 224.96212280000017,
                        "value": 1
                    },
                    {
                        "number": 64,
                        "time": 226.32921200000018,
                        "value": 0
                    },
                    {
                        "number": 64,
                        "time": 227.85927595416686,
                        "value": 0
                    },
                    {
                        "number": 64,
                        "time": 228.0000988000002,
                        "value": 1
                    },
                    {
                        "number": 64,
                        "time": 229.3909221875002,
                        "value": 0
                    },
                    {
                        "number": 64,
                        "time": 230.97003679583352,
                        "value": 1
                    },
                    {
                        "number": 64,
                        "time": 232.43364502500017,
                        "value": 0
                    },
                    {
                        "number": 64,
                        "time": 232.54440456666683,
                        "value": 1
                    },
                    {
                        "number": 64,
                        "time": 233.1868099083335,
                        "value": 0
                    },
                    {
                        "number": 64,
                        "time": 233.29282261250015,
                        "value": 1
                    },
                    {
                        "number": 64,
                        "time": 233.9352279541668,
                        "value": 0
                    },
                    {
                        "number": 64,
                        "time": 234.07605080000013,
                        "value": 1
                    },
                    {
                        "number": 64,
                        "time": 235.44314000000014,
                        "value": 0
                    },
                    {
                        "number": 64,
                        "time": 236.97320395416682,
                        "value": 0
                    },
                    {
                        "number": 64,
                        "time": 243.1219407958335,
                        "value": 1
                    },
                    {
                        "number": 64,
                        "time": 243.80390311666682,
                        "value": 0
                    },
                    {
                        "number": 64,
                        "time": 243.8766879583335,
                        "value": 1
                    },
                    {
                        "number": 64,
                        "time": 244.58554902500015,
                        "value": 0
                    },
                    {
                        "number": 64,
                        "time": 244.6963085666668,
                        "value": 1
                    },
                    {
                        "number": 64,
                        "time": 245.33871390833346,
                        "value": 0
                    },
                    {
                        "number": 64,
                        "time": 245.44472661250012,
                        "value": 1
                    },
                    {
                        "number": 64,
                        "time": 246.0760560000001,
                        "value": 0
                    },
                    {
                        "number": 64,
                        "time": 249.1140320000001,
                        "value": 0
                    },
                    {
                        "number": 64,
                        "time": 258.2279600000001,
                        "value": 0
                    },
                    {
                        "number": 64,
                        "time": 258.34504865833344,
                        "value": 1
                    },
                    {
                        "number": 64,
                        "time": 259.7469480000001,
                        "value": 0
                    },
                    {
                        "number": 64,
                        "time": 259.8640366583334,
                        "value": 1
                    },
                    {
                        "number": 64,
                        "time": 261.26593600000007,
                        "value": 0
                    },
                    {
                        "number": 64,
                        "time": 270.4637247958334,
                        "value": 1
                    },
                    {
                        "number": 64,
                        "time": 271.9162570708334,
                        "value": 0
                    },
                    {
                        "number": 64,
                        "time": 272.00011786666676,
                        "value": 1
                    },
                    {
                        "number": 64,
                        "time": 273.41784000000007,
                        "value": 0
                    },
                    {
                        "number": 64,
                        "time": 276.6298667083334,
                        "value": 1
                    },
                    {
                        "number": 64,
                        "time": 277.2311327916667,
                        "value": 0
                    },
                    {
                        "number": 64,
                        "time": 277.3323986583334,
                        "value": 1
                    },
                    {
                        "number": 64,
                        "time": 278.03651288750007,
                        "value": 0
                    },
                    {
                        "number": 64,
                        "time": 278.1710066166667,
                        "value": 1
                    },
                    {
                        "number": 64,
                        "time": 278.7643613041667,
                        "value": 0
                    },
                    {
                        "number": 64,
                        "time": 278.8403107041667,
                        "value": 1
                    },
                    {
                        "number": 64,
                        "time": 279.5048679541667,
                        "value": 0
                    },
                    {
                        "number": 64,
                        "time": 279.6567667541667,
                        "value": 1
                    },
                    {
                        "number": 64,
                        "time": 281.04600786250006,
                        "value": 0
                    },
                    {
                        "number": 64,
                        "time": 281.1361977750001,
                        "value": 1
                    },
                    {
                        "number": 64,
                        "time": 282.5586667458334,
                        "value": 0
                    },
                    {
                        "number": 64,
                        "time": 282.69948959166675,
                        "value": 1
                    },
                    {
                        "number": 64,
                        "time": 284.0681610708334,
                        "value": 0
                    },
                    {
                        "number": 64,
                        "time": 284.15202186666676,
                        "value": 1
                    },
                    {
                        "number": 64,
                        "time": 285.6551870750001,
                        "value": 0
                    },
                    {
                        "number": 64,
                        "time": 300.0618388875001,
                        "value": 1
                    },
                    {
                        "number": 64,
                        "time": 300.77069995416673,
                        "value": 0
                    },
                    {
                        "number": 64,
                        "time": 300.84664935416674,
                        "value": 1
                    },
                    {
                        "number": 64,
                        "time": 301.53019395416675,
                        "value": 0
                    },
                    {
                        "number": 64,
                        "time": 301.61247247083344,
                        "value": 1
                    },
                    {
                        "number": 64,
                        "time": 302.3039284666668,
                        "value": 0
                    },
                    {
                        "number": 64,
                        "time": 302.3972829375001,
                        "value": 1
                    },
                    {
                        "number": 64,
                        "time": 303.05551107083346,
                        "value": 0
                    },
                    {
                        "number": 64,
                        "time": 303.1520301000001,
                        "value": 1
                    },
                    {
                        "number": 64,
                        "time": 303.7976000000001,
                        "value": 0
                    },
                    {
                        "number": 64,
                        "time": 303.9036127041668,
                        "value": 1
                    },
                    {
                        "number": 64,
                        "time": 304.5808281875001,
                        "value": 0
                    },
                    {
                        "number": 64,
                        "time": 304.6963345666668,
                        "value": 1
                    },
                    {
                        "number": 64,
                        "time": 305.33715762916677,
                        "value": 0
                    },
                    {
                        "number": 64,
                        "time": 305.4510817291668,
                        "value": 1
                    },
                    {
                        "number": 64,
                        "time": 306.10298074583346,
                        "value": 0
                    },
                    {
                        "number": 64,
                        "time": 306.21532256666677,
                        "value": 1
                    },
                    {
                        "number": 64,
                        "time": 306.8688038625001,
                        "value": 0
                    },
                    {
                        "number": 64,
                        "time": 306.94158870416675,
                        "value": 1
                    },
                    {
                        "number": 64,
                        "time": 307.6124750708334,
                        "value": 0
                    },
                    {
                        "number": 64,
                        "time": 307.74063968333337,
                        "value": 1
                    },
                    {
                        "number": 64,
                        "time": 308.37355135,
                        "value": 0
                    },
                    {
                        "number": 64,
                        "time": 308.5333615458334,
                        "value": 1
                    },
                    {
                        "number": 64,
                        "time": 309.12829851250007,
                        "value": 0
                    },
                    {
                        "number": 64,
                        "time": 309.2042479125001,
                        "value": 1
                    },
                    {
                        "number": 64,
                        "time": 309.8814633958334,
                        "value": 0
                    },
                    {
                        "number": 64,
                        "time": 324.39887475000006,
                        "value": 1
                    },
                    {
                        "number": 64,
                        "time": 325.06343200000003,
                        "value": 0
                    },
                    {
                        "number": 64,
                        "time": 325.1615333083334,
                        "value": 1
                    },
                    {
                        "number": 64,
                        "time": 325.8340019541667,
                        "value": 0
                    },
                    {
                        "number": 64,
                        "time": 325.92102730833335,
                        "value": 1
                    },
                    {
                        "number": 64,
                        "time": 326.60140735000004,
                        "value": 0
                    },
                    {
                        "number": 64,
                        "time": 326.7264074041667,
                        "value": 1
                    },
                    {
                        "number": 64,
                        "time": 327.3688127458334,
                        "value": 0
                    },
                    {
                        "number": 64,
                        "time": 327.4859014041667,
                        "value": 1
                    },
                    {
                        "number": 64,
                        "time": 328.10140800000005,
                        "value": 0
                    },
                    {
                        "number": 64,
                        "time": 328.2026738666667,
                        "value": 1
                    },
                    {
                        "number": 64,
                        "time": 328.8751425125,
                        "value": 0
                    },
                    {
                        "number": 64,
                        "time": 328.99539572916666,
                        "value": 1
                    },
                    {
                        "number": 64,
                        "time": 329.63780107083335,
                        "value": 0
                    },
                    {
                        "number": 64,
                        "time": 329.73748465833336,
                        "value": 1
                    },
                    {
                        "number": 64,
                        "time": 330.39887735,
                        "value": 0
                    },
                    {
                        "number": 64,
                        "time": 330.5080546125,
                        "value": 1
                    },
                    {
                        "number": 64,
                        "time": 331.19001693333337,
                        "value": 0
                    },
                    {
                        "number": 64,
                        "time": 331.3071055916667,
                        "value": 1
                    },
                    {
                        "number": 64,
                        "time": 331.9289413041667,
                        "value": 0
                    },
                    {
                        "number": 64,
                        "time": 332.0444476833334,
                        "value": 1
                    },
                    {
                        "number": 64,
                        "time": 332.67735935,
                        "value": 0
                    },
                    {
                        "number": 64,
                        "time": 332.77071382083335,
                        "value": 1
                    },
                    {
                        "number": 64,
                        "time": 333.4384356291667,
                        "value": 0
                    },
                    {
                        "number": 64,
                        "time": 333.56976480000003,
                        "value": 1
                    },
                    {
                        "number": 64,
                        "time": 334.17736,
                        "value": 0
                    },
                    {
                        "number": 64,
                        "time": 336.56660154166667,
                        "value": 1
                    },
                    {
                        "number": 64,
                        "time": 337.215336,
                        "value": 0
                    },
                    {
                        "number": 64,
                        "time": 339.5634382833333,
                        "value": 1
                    },
                    {
                        "number": 64,
                        "time": 340.253312,
                        "value": 0
                    },
                    {
                        "number": 64,
                        "time": 342.67736368333334,
                        "value": 1
                    },
                    {
                        "number": 64,
                        "time": 343.291288,
                        "value": 0
                    },
                    {
                        "number": 64,
                        "time": 344.9194532625,
                        "value": 1
                    },
                    {
                        "number": 64,
                        "time": 345.60141558333333,
                        "value": 0
                    },
                    {
                        "number": 64,
                        "time": 345.78654224583335,
                        "value": 1
                    },
                    {
                        "number": 64,
                        "time": 346.329264,
                        "value": 0
                    },
                    {
                        "number": 64,
                        "time": 348.7185055416667,
                        "value": 1
                    },
                    {
                        "number": 64,
                        "time": 349.36724,
                        "value": 0
                    },
                    {
                        "number": 64,
                        "time": 351.7153422833333,
                        "value": 1
                    },
                    {
                        "number": 64,
                        "time": 352.405216,
                        "value": 0
                    },
                    {
                        "number": 64,
                        "time": 354.82926768333334,
                        "value": 1
                    },
                    {
                        "number": 64,
                        "time": 355.443192,
                        "value": 0
                    },
                    {
                        "number": 64,
                        "time": 357.0713572625,
                        "value": 1
                    },
                    {
                        "number": 64,
                        "time": 357.75331958333334,
                        "value": 0
                    },
                    {
                        "number": 64,
                        "time": 357.93844624583335,
                        "value": 1
                    },
                    {
                        "number": 64,
                        "time": 358.481168,
                        "value": 0
                    },
                    {
                        "number": 64,
                        "time": 361.51914400000004,
                        "value": 0
                    },
                    {
                        "number": 64,
                        "time": 407.1251764208334,
                        "value": 1
                    },
                    {
                        "number": 64,
                        "time": 408.6330884666667,
                        "value": 0
                    },
                    {
                        "number": 64,
                        "time": 408.80713917500003,
                        "value": 1
                    },
                    {
                        "number": 64,
                        "time": 409.3910001875,
                        "value": 0
                    },
                    {
                        "number": 64,
                        "time": 409.5207470791667,
                        "value": 1
                    },
                    {
                        "number": 64,
                        "time": 410.1330891166667,
                        "value": 0
                    },
                    {
                        "number": 64,
                        "time": 410.2992284291667,
                        "value": 1
                    },
                    {
                        "number": 64,
                        "time": 410.9036590708334,
                        "value": 0
                    },
                    {
                        "number": 64,
                        "time": 411.0682161041667,
                        "value": 1
                    },
                    {
                        "number": 64,
                        "time": 411.6631530708334,
                        "value": 0
                    },
                    {
                        "number": 64,
                        "time": 411.84511517500005,
                        "value": 1
                    },
                    {
                        "number": 64,
                        "time": 412.42422935,
                        "value": 0
                    },
                    {
                        "number": 64,
                        "time": 412.6220142458333,
                        "value": 1
                    },
                    {
                        "number": 64,
                        "time": 413.1710651166667,
                        "value": 0
                    },
                    {
                        "number": 64,
                        "time": 413.33720442916666,
                        "value": 1
                    },
                    {
                        "number": 64,
                        "time": 414.70429362916667,
                        "value": 0
                    },
                    {
                        "number": 64,
                        "time": 414.84669875416665,
                        "value": 1
                    },
                    {
                        "number": 64,
                        "time": 416.2106233958333,
                        "value": 0
                    },
                    {
                        "number": 64,
                        "time": 416.4147374083333,
                        "value": 1
                    },
                    {
                        "number": 64,
                        "time": 417.7422696291666,
                        "value": 0
                    },
                    {
                        "number": 64,
                        "time": 418.0460672291666,
                        "value": 1
                    },
                    {
                        "number": 64,
                        "time": 419.240688,
                        "value": 0
                    },
                    {
                        "number": 64,
                        "time": 419.326131075,
                        "value": 1
                    },
                    {
                        "number": 64,
                        "time": 419.83087812916665,
                        "value": 0
                    },
                    {
                        "number": 64,
                        "time": 420.05872632916663,
                        "value": 1
                    },
                    {
                        "number": 64,
                        "time": 420.53815691666665,
                        "value": 0
                    },
                    {
                        "number": 64,
                        "time": 420.864106425,
                        "value": 1
                    },
                    {
                        "number": 64,
                        "time": 421.38784082916663,
                        "value": 0
                    },
                    {
                        "number": 64,
                        "time": 421.604613075,
                        "value": 1
                    },
                    {
                        "number": 64,
                        "time": 422.10936012916665,
                        "value": 0
                    },
                    {
                        "number": 64,
                        "time": 428.4527173083333,
                        "value": 1
                    },
                    {
                        "number": 64,
                        "time": 428.8656921708333,
                        "value": 0
                    },
                    {
                        "number": 64,
                        "time": 429.21854042499996,
                        "value": 1
                    },
                    {
                        "number": 64,
                        "time": 429.63784440416663,
                        "value": 0
                    },
                    {
                        "number": 64,
                        "time": 430.0049331708333,
                        "value": 1
                    },
                    {
                        "number": 64,
                        "time": 430.40366752083327,
                        "value": 0
                    },
                    {
                        "number": 64,
                        "time": 430.81664238333326,
                        "value": 1
                    },
                    {
                        "number": 64,
                        "time": 431.2486045958333,
                        "value": 0
                    },
                    {
                        "number": 64,
                        "time": 431.5603135916666,
                        "value": 1
                    },
                    {
                        "number": 64,
                        "time": 432.9368964666666,
                        "value": 0
                    },
                    {
                        "number": 64,
                        "time": 433.28025104583327,
                        "value": 1
                    },
                    {
                        "number": 64,
                        "time": 434.43056799999994,
                        "value": 0
                    },
                    {
                        "number": 64,
                        "time": 434.5555680541666,
                        "value": 1
                    },
                    {
                        "number": 64,
                        "time": 434.99385938333324,
                        "value": 0
                    },
                    {
                        "number": 64,
                        "time": 435.32139117083324,
                        "value": 1
                    },
                    {
                        "number": 64,
                        "time": 435.75335338333326,
                        "value": 0
                    },
                    {
                        "number": 64,
                        "time": 436.05398642499995,
                        "value": 1
                    },
                    {
                        "number": 64,
                        "time": 436.4875309166666,
                        "value": 0
                    },
                    {
                        "number": 64,
                        "time": 436.86727791666664,
                        "value": 1
                    },
                    {
                        "number": 64,
                        "time": 437.3245565958333,
                        "value": 0
                    },
                    {
                        "number": 64,
                        "time": 443.73436949999996,
                        "value": 1
                    },
                    {
                        "number": 64,
                        "time": 444.1014582666666,
                        "value": 0
                    },
                    {
                        "number": 64,
                        "time": 444.47487614999994,
                        "value": 1
                    },
                    {
                        "number": 64,
                        "time": 444.86728138333325,
                        "value": 0
                    },
                    {
                        "number": 64,
                        "time": 445.2406992666666,
                        "value": 1
                    },
                    {
                        "number": 64,
                        "time": 445.6204462666666,
                        "value": 0
                    },
                    {
                        "number": 64,
                        "time": 446.0128514999999,
                        "value": 1
                    },
                    {
                        "number": 64,
                        "time": 446.4258263624999,
                        "value": 0
                    },
                    {
                        "number": 64,
                        "time": 449.0397515458332,
                        "value": 1
                    },
                    {
                        "number": 64,
                        "time": 449.6204479999999,
                        "value": 0
                    },
                    {
                        "number": 64,
                        "time": 449.8198151749999,
                        "value": 1
                    },
                    {
                        "number": 64,
                        "time": 451.1647524666666,
                        "value": 0
                    },
                    {
                        "number": 64,
                        "time": 451.3388031749999,
                        "value": 1
                    },
                    {
                        "number": 64,
                        "time": 451.9226641874999,
                        "value": 0
                    },
                    {
                        "number": 64,
                        "time": 452.0524110791666,
                        "value": 1
                    },
                    {
                        "number": 64,
                        "time": 452.6647531166666,
                        "value": 0
                    },
                    {
                        "number": 64,
                        "time": 452.83089242916657,
                        "value": 1
                    },
                    {
                        "number": 64,
                        "time": 453.43532307083325,
                        "value": 0
                    },
                    {
                        "number": 64,
                        "time": 453.5998801041666,
                        "value": 1
                    },
                    {
                        "number": 64,
                        "time": 454.19481707083327,
                        "value": 0
                    },
                    {
                        "number": 64,
                        "time": 454.3767791749999,
                        "value": 1
                    },
                    {
                        "number": 64,
                        "time": 454.9558933499999,
                        "value": 0
                    },
                    {
                        "number": 64,
                        "time": 455.1536782458332,
                        "value": 1
                    },
                    {
                        "number": 64,
                        "time": 455.70272911666655,
                        "value": 0
                    },
                    {
                        "number": 64,
                        "time": 455.8688684291665,
                        "value": 1
                    },
                    {
                        "number": 64,
                        "time": 457.23595762916653,
                        "value": 0
                    },
                    {
                        "number": 64,
                        "time": 457.3783627541665,
                        "value": 1
                    },
                    {
                        "number": 64,
                        "time": 458.7454519541665,
                        "value": 0
                    },
                    {
                        "number": 64,
                        "time": 458.88627479999985,
                        "value": 1
                    },
                    {
                        "number": 64,
                        "time": 460.25336399999986,
                        "value": 0
                    },
                    {
                        "number": 64,
                        "time": 461.78342795416654,
                        "value": 0
                    },
                    {
                        "number": 64,
                        "time": 461.92425079999987,
                        "value": 1
                    },
                    {
                        "number": 64,
                        "time": 463.2913399999999,
                        "value": 0
                    },
                    {
                        "number": 64,
                        "time": 464.82140395416656,
                        "value": 0
                    },
                    {
                        "number": 64,
                        "time": 464.9622267999999,
                        "value": 1
                    },
                    {
                        "number": 64,
                        "time": 466.3530501874999,
                        "value": 0
                    },
                    {
                        "number": 64,
                        "time": 467.9321647958332,
                        "value": 1
                    },
                    {
                        "number": 64,
                        "time": 469.39577302499987,
                        "value": 0
                    },
                    {
                        "number": 64,
                        "time": 469.5065325666665,
                        "value": 1
                    },
                    {
                        "number": 64,
                        "time": 470.1489379083332,
                        "value": 0
                    },
                    {
                        "number": 64,
                        "time": 470.2549506124999,
                        "value": 1
                    },
                    {
                        "number": 64,
                        "time": 470.8973559541666,
                        "value": 0
                    },
                    {
                        "number": 64,
                        "time": 471.0381787999999,
                        "value": 1
                    },
                    {
                        "number": 64,
                        "time": 472.4052679999999,
                        "value": 0
                    },
                    {
                        "number": 64,
                        "time": 473.9353319541666,
                        "value": 0
                    },
                    {
                        "number": 64,
                        "time": 480.0840687958333,
                        "value": 1
                    },
                    {
                        "number": 64,
                        "time": 480.7660311166666,
                        "value": 0
                    },
                    {
                        "number": 64,
                        "time": 480.83881595833327,
                        "value": 1
                    },
                    {
                        "number": 64,
                        "time": 481.5476770249999,
                        "value": 0
                    },
                    {
                        "number": 64,
                        "time": 481.6584365666666,
                        "value": 1
                    },
                    {
                        "number": 64,
                        "time": 482.30084190833327,
                        "value": 0
                    },
                    {
                        "number": 64,
                        "time": 482.40685461249996,
                        "value": 1
                    },
                    {
                        "number": 64,
                        "time": 483.03818399999994,
                        "value": 0
                    },
                    {
                        "number": 64,
                        "time": 492.2359727958333,
                        "value": 1
                    },
                    {
                        "number": 64,
                        "time": 493.6885050708333,
                        "value": 0
                    },
                    {
                        "number": 64,
                        "time": 493.77236586666663,
                        "value": 1
                    },
                    {
                        "number": 64,
                        "time": 495.19008799999995,
                        "value": 0
                    },
                    {
                        "number": 64,
                        "time": 498.4021147083333,
                        "value": 1
                    },
                    {
                        "number": 64,
                        "time": 499.0033807916666,
                        "value": 0
                    },
                    {
                        "number": 64,
                        "time": 499.10464665833325,
                        "value": 1
                    },
                    {
                        "number": 64,
                        "time": 499.80876088749994,
                        "value": 0
                    },
                    {
                        "number": 64,
                        "time": 499.9432546166666,
                        "value": 1
                    },
                    {
                        "number": 64,
                        "time": 500.5366093041666,
                        "value": 0
                    },
                    {
                        "number": 64,
                        "time": 500.6125587041666,
                        "value": 1
                    },
                    {
                        "number": 64,
                        "time": 501.27711595416656,
                        "value": 0
                    },
                    {
                        "number": 64,
                        "time": 501.4290147541666,
                        "value": 1
                    },
                    {
                        "number": 64,
                        "time": 502.81825586249994,
                        "value": 0
                    },
                    {
                        "number": 64,
                        "time": 502.90844577499996,
                        "value": 1
                    },
                    {
                        "number": 64,
                        "time": 504.3309147458333,
                        "value": 0
                    },
                    {
                        "number": 64,
                        "time": 504.4717375916666,
                        "value": 1
                    },
                    {
                        "number": 64,
                        "time": 505.8404090708333,
                        "value": 0
                    },
                    {
                        "number": 64,
                        "time": 505.92426986666663,
                        "value": 1
                    },
                    {
                        "number": 64,
                        "time": 507.42743507499995,
                        "value": 0
                    },
                    {
                        "number": 64,
                        "time": 521.8340868874999,
                        "value": 1
                    },
                    {
                        "number": 64,
                        "time": 522.5429479541666,
                        "value": 0
                    },
                    {
                        "number": 64,
                        "time": 522.6188973541666,
                        "value": 1
                    },
                    {
                        "number": 64,
                        "time": 523.3024419541666,
                        "value": 0
                    },
                    {
                        "number": 64,
                        "time": 523.3847204708333,
                        "value": 1
                    },
                    {
                        "number": 64,
                        "time": 524.0761764666665,
                        "value": 0
                    },
                    {
                        "number": 64,
                        "time": 524.1695309374999,
                        "value": 1
                    },
                    {
                        "number": 64,
                        "time": 524.8277590708332,
                        "value": 0
                    },
                    {
                        "number": 64,
                        "time": 524.9242780999998,
                        "value": 1
                    },
                    {
                        "number": 64,
                        "time": 525.5698479999999,
                        "value": 0
                    },
                    {
                        "number": 64,
                        "time": 525.6758607041666,
                        "value": 1
                    },
                    {
                        "number": 64,
                        "time": 526.3530761874999,
                        "value": 0
                    },
                    {
                        "number": 64,
                        "time": 526.4685825666666,
                        "value": 1
                    },
                    {
                        "number": 64,
                        "time": 527.1094056291665,
                        "value": 0
                    },
                    {
                        "number": 64,
                        "time": 527.2233297291665,
                        "value": 1
                    },
                    {
                        "number": 64,
                        "time": 527.8752287458332,
                        "value": 0
                    },
                    {
                        "number": 64,
                        "time": 527.9875705666665,
                        "value": 1
                    },
                    {
                        "number": 64,
                        "time": 528.6410518624998,
                        "value": 0
                    },
                    {
                        "number": 64,
                        "time": 528.7138367041665,
                        "value": 1
                    },
                    {
                        "number": 64,
                        "time": 530.9005465124999,
                        "value": 0
                    },
                    {
                        "number": 64,
                        "time": 530.9764959124999,
                        "value": 1
                    },
                    {
                        "number": 64,
                        "time": 531.6537113958333,
                        "value": 0
                    },
                    {
                        "number": 64,
                        "time": 555.2961267041666,
                        "value": 1
                    },
                    {
                        "number": 64,
                        "time": 555.9828358624999,
                        "value": 0
                    },
                    {
                        "number": 64,
                        "time": 558.2897988874998,
                        "value": 1
                    },
                    {
                        "number": 64,
                        "time": 558.9986599541666,
                        "value": 0
                    },
                    {
                        "number": 64,
                        "time": 559.0746093541666,
                        "value": 1
                    },
                    {
                        "number": 64,
                        "time": 559.7581539541666,
                        "value": 0
                    },
                    {
                        "number": 64,
                        "time": 559.8404324708332,
                        "value": 1
                    },
                    {
                        "number": 64,
                        "time": 560.5318884666665,
                        "value": 0
                    },
                    {
                        "number": 64,
                        "time": 560.6252429374998,
                        "value": 1
                    },
                    {
                        "number": 64,
                        "time": 561.2834710708331,
                        "value": 0
                    },
                    {
                        "number": 64,
                        "time": 561.3799900999998,
                        "value": 1
                    },
                    {
                        "number": 64,
                        "time": 562.0255599999998,
                        "value": 0
                    },
                    {
                        "number": 64,
                        "time": 562.1315727041665,
                        "value": 1
                    },
                    {
                        "number": 64,
                        "time": 562.8087881874999,
                        "value": 0
                    },
                    {
                        "number": 64,
                        "time": 562.9242945666665,
                        "value": 1
                    },
                    {
                        "number": 64,
                        "time": 563.5651176291665,
                        "value": 0
                    },
                    {
                        "number": 64,
                        "time": 563.6790417291664,
                        "value": 1
                    },
                    {
                        "number": 64,
                        "time": 565.0635359999998,
                        "value": 0
                    },
                    {
                        "number": 64,
                        "time": 565.2597386166665,
                        "value": 1
                    },
                    {
                        "number": 64,
                        "time": 565.8435996291665,
                        "value": 0
                    },
                    {
                        "number": 64,
                        "time": 565.9353718208332,
                        "value": 1
                    },
                    {
                        "number": 64,
                        "time": 566.6062581874999,
                        "value": 0
                    },
                    {
                        "number": 64,
                        "time": 566.7217645666665,
                        "value": 1
                    },
                    {
                        "number": 64,
                        "time": 568.1015119999998,
                        "value": 0
                    },
                    {
                        "number": 64,
                        "time": 568.2075247041665,
                        "value": 1
                    },
                    {
                        "number": 64,
                        "time": 569.6410696291665,
                        "value": 0
                    },
                    {
                        "number": 64,
                        "time": 569.7549937291665,
                        "value": 1
                    },
                    {
                        "number": 64,
                        "time": 571.1394879999998,
                        "value": 0
                    },
                    {
                        "number": 64,
                        "time": 571.2850576833331,
                        "value": 1
                    },
                    {
                        "number": 64,
                        "time": 572.6822101874998,
                        "value": 0
                    },
                    {
                        "number": 64,
                        "time": 572.7977165666664,
                        "value": 1
                    },
                    {
                        "number": 64,
                        "time": 573.440121908333,
                        "value": 0
                    },
                    {
                        "number": 64,
                        "time": 573.5239827041663,
                        "value": 1
                    },
                    {
                        "number": 64,
                        "time": 574.1774639999996,
                        "value": 0
                    },
                    {
                        "number": 64,
                        "time": 614.0936205374996,
                        "value": 1
                    },
                    {
                        "number": 64,
                        "time": 621.9417252041663,
                        "value": 0
                    }
                ]
            },
            "id": 3,
            "name": "Pedal"
        },
        {
            "startTime": 0,
            "duration": 0,
            "length": 0,
            "notes": [],
            "controlChanges": {},
            "id": 4,
            "name": "Schubert: Impromptus No.1, Op. 90 - D 899"
        },
        {
            "startTime": 0,
            "duration": 0,
            "length": 0,
            "notes": [],
            "controlChanges": {},
            "id": 5,
            "name": "Copyright  2007 by Bernd Krueger"
        },
        {
            "startTime": 0,
            "duration": 0,
            "length": 0,
            "notes": [],
            "controlChanges": {},
            "id": 6,
            "name": "http://www.piano-midi.de"
        },
        {
            "startTime": 0,
            "duration": 0,
            "length": 0,
            "notes": [],
            "controlChanges": {},
            "id": 7,
            "name": "Edition: 2014-03-18"
        }
    ]
}