{
    "header": {
        "PPQ": 480,
        "timeSignature": [
            3,
            4
        ],
        "bpm": 154.88987330008365,
        "name": "Kreisleriana Teil 5"
    },
    "startTime": 0,
    "duration": 200.65869600000192,
    "tracks": [
        {
            "startTime": 0,
            "duration": 0,
            "length": 0,
            "notes": [],
            "controlChanges": {},
            "id": 0,
            "name": "Kreisleriana Teil 5"
        },
        {
            "startTime": 0.387372,
            "duration": 200.65869600000192,
            "length": 1085,
            "notes": [
                {
                    "name": "G3",
                    "midi": 55,
                    "time": 0.387372,
                    "velocity": 0.31496062992125984,
                    "duration": 0.09684300000000001
                },
                {
                    "name": "A3",
                    "midi": 57,
                    "time": 0.484215,
                    "velocity": 0.25196850393700787,
                    "duration": 0.09684299999999996
                },
                {
                    "name": "G3",
                    "midi": 55,
                    "time": 0.581058,
                    "velocity": 0.2677165354330709,
                    "duration": 0.09684300000000001
                },
                {
                    "name": "D3",
                    "midi": 50,
                    "time": 0.677901,
                    "velocity": 0.2677165354330709,
                    "duration": 0.09684300000000001
                },
                {
                    "name": "D4",
                    "midi": 62,
                    "time": 0.774744,
                    "velocity": 0.31496062992125984,
                    "duration": 0.09684300000000001
                },
                {
                    "name": "D3",
                    "midi": 50,
                    "time": 1.065273,
                    "velocity": 0.31496062992125984,
                    "duration": 0.07263225000000006
                },
                {
                    "name": "G3",
                    "midi": 55,
                    "time": 1.065273,
                    "velocity": 0.31496062992125984,
                    "duration": 0.07263225000000006
                },
                {
                    "name": "F#3",
                    "midi": 54,
                    "time": 1.162116,
                    "velocity": 0.36220472440944884,
                    "duration": 0.07263225000000006
                },
                {
                    "name": "C3",
                    "midi": 48,
                    "time": 1.162116,
                    "velocity": 0.36220472440944884,
                    "duration": 0.07263225000000006
                },
                {
                    "name": "C4",
                    "midi": 60,
                    "time": 1.549488,
                    "velocity": 0.33858267716535434,
                    "duration": 0.09684300000000001
                },
                {
                    "name": "D4",
                    "midi": 62,
                    "time": 1.646331,
                    "velocity": 0.29133858267716534,
                    "duration": 0.09684300000000001
                },
                {
                    "name": "C4",
                    "midi": 60,
                    "time": 1.743174,
                    "velocity": 0.29133858267716534,
                    "duration": 0.09684300000000001
                },
                {
                    "name": "A3",
                    "midi": 57,
                    "time": 1.840017,
                    "velocity": 0.29133858267716534,
                    "duration": 0.09684300000000001
                },
                {
                    "name": "A4",
                    "midi": 69,
                    "time": 1.93686,
                    "velocity": 0.3858267716535433,
                    "duration": 0.09684300000000001
                },
                {
                    "name": "D3",
                    "midi": 50,
                    "time": 2.227389,
                    "velocity": 0.3464566929133858,
                    "duration": 0.07263224999999984
                },
                {
                    "name": "C4",
                    "midi": 60,
                    "time": 2.227389,
                    "velocity": 0.3464566929133858,
                    "duration": 0.07263224999999984
                },
                {
                    "name": "A#3",
                    "midi": 58,
                    "time": 2.324232,
                    "velocity": 0.3779527559055118,
                    "duration": 0.07263224999999984
                },
                {
                    "name": "D3",
                    "midi": 50,
                    "time": 2.324232,
                    "velocity": 0.3779527559055118,
                    "duration": 0.07263224999999984
                },
                {
                    "name": "G3",
                    "midi": 55,
                    "time": 2.7116039999999995,
                    "velocity": 0.31496062992125984,
                    "duration": 0.09684299999999979
                },
                {
                    "name": "A3",
                    "midi": 57,
                    "time": 2.8084469999999992,
                    "velocity": 0.2677165354330709,
                    "duration": 0.09684299999999979
                },
                {
                    "name": "G3",
                    "midi": 55,
                    "time": 2.905289999999999,
                    "velocity": 0.2677165354330709,
                    "duration": 0.09684299999999979
                },
                {
                    "name": "D3",
                    "midi": 50,
                    "time": 3.002132999999999,
                    "velocity": 0.2677165354330709,
                    "duration": 0.09684299999999979
                },
                {
                    "name": "G4",
                    "midi": 67,
                    "time": 3.0989759999999986,
                    "velocity": 0.3937007874015748,
                    "duration": 0.07263224999999984
                },
                {
                    "name": "G3",
                    "midi": 55,
                    "time": 3.3895049999999984,
                    "velocity": 0.3464566929133858,
                    "duration": 0.07263224999999984
                },
                {
                    "name": "F4",
                    "midi": 65,
                    "time": 3.3895049999999984,
                    "velocity": 0.3464566929133858,
                    "duration": 0.07263224999999984
                },
                {
                    "name": "D#4",
                    "midi": 63,
                    "time": 3.4863479999999982,
                    "velocity": 0.3700787401574803,
                    "duration": 0.07263224999999984
                },
                {
                    "name": "G3",
                    "midi": 55,
                    "time": 3.4863479999999982,
                    "velocity": 0.3700787401574803,
                    "duration": 0.07263224999999984
                },
                {
                    "name": "G3",
                    "midi": 55,
                    "time": 3.776876999999998,
                    "velocity": 0.31496062992125984,
                    "duration": 0.07263224999999984
                },
                {
                    "name": "D4",
                    "midi": 62,
                    "time": 3.776876999999998,
                    "velocity": 0.31496062992125984,
                    "duration": 0.07263224999999984
                },
                {
                    "name": "C4",
                    "midi": 60,
                    "time": 3.873719999999998,
                    "velocity": 0.3464566929133858,
                    "duration": 0.07263224999999984
                },
                {
                    "name": "G3",
                    "midi": 55,
                    "time": 3.873719999999998,
                    "velocity": 0.3464566929133858,
                    "duration": 0.07263224999999984
                },
                {
                    "name": "A#3",
                    "midi": 58,
                    "time": 4.164248999999998,
                    "velocity": 0.3937007874015748,
                    "duration": 0.07263224999999984
                },
                {
                    "name": "A3",
                    "midi": 57,
                    "time": 4.261091999999998,
                    "velocity": 0.36220472440944884,
                    "duration": 0.07263224999999984
                },
                {
                    "name": "C#4",
                    "midi": 61,
                    "time": 4.261091999999998,
                    "velocity": 0.36220472440944884,
                    "duration": 0.07263224999999984
                },
                {
                    "name": "G3",
                    "midi": 55,
                    "time": 4.551620999999998,
                    "velocity": 0.31496062992125984,
                    "duration": 0.07263224999999984
                },
                {
                    "name": "F#3",
                    "midi": 54,
                    "time": 4.648463999999998,
                    "velocity": 0.3937007874015748,
                    "duration": 0.07263224999999984
                },
                {
                    "name": "D4",
                    "midi": 62,
                    "time": 4.648463999999998,
                    "velocity": 0.3937007874015748,
                    "duration": 0.07263224999999984
                },
                {
                    "name": "D5",
                    "midi": 74,
                    "time": 5.035835999999998,
                    "velocity": 0.5669291338582677,
                    "duration": 0.6779010000000003
                },
                {
                    "name": "D4",
                    "midi": 62,
                    "time": 5.423207999999998,
                    "velocity": 0.48031496062992124,
                    "duration": 0.7747440000000001
                },
                {
                    "name": "C5",
                    "midi": 72,
                    "time": 5.713736999999998,
                    "velocity": 0.4566929133858268,
                    "duration": 0.09684299999999979
                },
                {
                    "name": "A#4",
                    "midi": 70,
                    "time": 5.810579999999998,
                    "velocity": 0.5118110236220472,
                    "duration": 0.07263224999999984
                },
                {
                    "name": "A4",
                    "midi": 69,
                    "time": 6.101108999999998,
                    "velocity": 0.4330708661417323,
                    "duration": 0.07263224999999984
                },
                {
                    "name": "G4",
                    "midi": 67,
                    "time": 6.197951999999998,
                    "velocity": 0.5039370078740157,
                    "duration": 0.07263224999999984
                },
                {
                    "name": "A#4",
                    "midi": 70,
                    "time": 6.197951999999998,
                    "velocity": 0.5039370078740157,
                    "duration": 0.38737200000000005
                },
                {
                    "name": "F4",
                    "midi": 65,
                    "time": 6.488480999999998,
                    "velocity": 0.4409448818897638,
                    "duration": 0.07263224999999984
                },
                {
                    "name": "D#4",
                    "midi": 63,
                    "time": 6.585323999999998,
                    "velocity": 0.5039370078740157,
                    "duration": 0.07263224999999984
                },
                {
                    "name": "D4",
                    "midi": 62,
                    "time": 6.875852999999998,
                    "velocity": 0.4409448818897638,
                    "duration": 0.07263224999999984
                },
                {
                    "name": "C4",
                    "midi": 60,
                    "time": 6.972695999999998,
                    "velocity": 0.5039370078740157,
                    "duration": 0.07263224999999984
                },
                {
                    "name": "F5",
                    "midi": 77,
                    "time": 7.360067999999998,
                    "velocity": 0.5354330708661418,
                    "duration": 0.6779010000000003
                },
                {
                    "name": "F4",
                    "midi": 65,
                    "time": 7.747439999999998,
                    "velocity": 0.48031496062992124,
                    "duration": 0.7747439999999992
                },
                {
                    "name": "D#5",
                    "midi": 75,
                    "time": 8.037968999999999,
                    "velocity": 0.4566929133858268,
                    "duration": 0.09684299999999979
                },
                {
                    "name": "D5",
                    "midi": 74,
                    "time": 8.134811999999998,
                    "velocity": 0.5118110236220472,
                    "duration": 0.07263224999999984
                },
                {
                    "name": "C5",
                    "midi": 72,
                    "time": 8.425340999999998,
                    "velocity": 0.4330708661417323,
                    "duration": 0.07263224999999984
                },
                {
                    "name": "A#4",
                    "midi": 70,
                    "time": 8.522183999999998,
                    "velocity": 0.5039370078740157,
                    "duration": 0.07263224999999984
                },
                {
                    "name": "D5",
                    "midi": 74,
                    "time": 8.522183999999998,
                    "velocity": 0.5039370078740157,
                    "duration": 0.38737199999999916
                },
                {
                    "name": "A4",
                    "midi": 69,
                    "time": 8.812712999999997,
                    "velocity": 0.4409448818897638,
                    "duration": 0.07263224999999984
                },
                {
                    "name": "G4",
                    "midi": 67,
                    "time": 8.909555999999997,
                    "velocity": 0.5039370078740157,
                    "duration": 0.07263224999999984
                },
                {
                    "name": "F4",
                    "midi": 65,
                    "time": 9.200084999999996,
                    "velocity": 0.4409448818897638,
                    "duration": 0.07263224999999984
                },
                {
                    "name": "E4",
                    "midi": 64,
                    "time": 9.296927999999996,
                    "velocity": 0.5039370078740157,
                    "duration": 0.07263224999999984
                },
                {
                    "name": "A5",
                    "midi": 81,
                    "time": 9.684299999999995,
                    "velocity": 0.5511811023622047,
                    "duration": 0.6779009999999985
                },
                {
                    "name": "A4",
                    "midi": 69,
                    "time": 10.071671999999994,
                    "velocity": 0.48031496062992124,
                    "duration": 0.7747439999999983
                },
                {
                    "name": "G5",
                    "midi": 79,
                    "time": 10.362200999999994,
                    "velocity": 0.4566929133858268,
                    "duration": 0.09684299999999979
                },
                {
                    "name": "F#5",
                    "midi": 78,
                    "time": 10.459043999999993,
                    "velocity": 0.5118110236220472,
                    "duration": 0.07263224999999984
                },
                {
                    "name": "D#5",
                    "midi": 75,
                    "time": 10.749572999999993,
                    "velocity": 0.4330708661417323,
                    "duration": 0.07263224999999984
                },
                {
                    "name": "D5",
                    "midi": 74,
                    "time": 10.846415999999993,
                    "velocity": 0.5039370078740157,
                    "duration": 0.07263224999999984
                },
                {
                    "name": "F#5",
                    "midi": 78,
                    "time": 10.846415999999993,
                    "velocity": 0.5039370078740157,
                    "duration": 0.38737199999999916
                },
                {
                    "name": "C5",
                    "midi": 72,
                    "time": 11.136944999999992,
                    "velocity": 0.4409448818897638,
                    "duration": 0.07263224999999984
                },
                {
                    "name": "G5",
                    "midi": 79,
                    "time": 11.233787999999992,
                    "velocity": 0.5039370078740157,
                    "duration": 0.07263224999999984
                },
                {
                    "name": "A#4",
                    "midi": 70,
                    "time": 11.233787999999992,
                    "velocity": 0.5039370078740157,
                    "duration": 0.07263224999999984
                },
                {
                    "name": "A4",
                    "midi": 69,
                    "time": 11.524316999999991,
                    "velocity": 0.4409448818897638,
                    "duration": 0.07263224999999984
                },
                {
                    "name": "G4",
                    "midi": 67,
                    "time": 11.62115999999999,
                    "velocity": 0.5039370078740157,
                    "duration": 0.07263224999999984
                },
                {
                    "name": "A#4",
                    "midi": 70,
                    "time": 12.00853199999999,
                    "velocity": 0.5590551181102362,
                    "duration": 0.38737199999999916
                },
                {
                    "name": "A4",
                    "midi": 69,
                    "time": 12.39590399999999,
                    "velocity": 0.4094488188976378,
                    "duration": 0.29052899999999937
                },
                {
                    "name": "C#5",
                    "midi": 73,
                    "time": 12.39590399999999,
                    "velocity": 0.4881889763779528,
                    "duration": 0.38737199999999916
                },
                {
                    "name": "G4",
                    "midi": 67,
                    "time": 12.686432999999989,
                    "velocity": 0.4566929133858268,
                    "duration": 0.09684299999999979
                },
                {
                    "name": "F#4",
                    "midi": 66,
                    "time": 12.783275999999988,
                    "velocity": 0.4409448818897638,
                    "duration": 0.07263224999999984
                },
                {
                    "name": "D5",
                    "midi": 74,
                    "time": 12.783275999999988,
                    "velocity": 0.48031496062992124,
                    "duration": 0.07263224999999984
                },
                {
                    "name": "D#4",
                    "midi": 63,
                    "time": 13.073804999999988,
                    "velocity": 0.4015748031496063,
                    "duration": 0.07263224999999984
                },
                {
                    "name": "F#4",
                    "midi": 66,
                    "time": 13.170647999999987,
                    "velocity": 0.4645669291338583,
                    "duration": 0.38737199999999916
                },
                {
                    "name": "D4",
                    "midi": 62,
                    "time": 13.170647999999987,
                    "velocity": 0.4645669291338583,
                    "duration": 0.07263224999999984
                },
                {
                    "name": "C4",
                    "midi": 60,
                    "time": 13.461176999999987,
                    "velocity": 0.3937007874015748,
                    "duration": 0.09684299999999979
                },
                {
                    "name": "G4",
                    "midi": 67,
                    "time": 13.558019999999987,
                    "velocity": 0.44881889763779526,
                    "duration": 0.07263224999999984
                },
                {
                    "name": "A#3",
                    "midi": 58,
                    "time": 13.558019999999987,
                    "velocity": 0.44881889763779526,
                    "duration": 0.07263224999999984
                },
                {
                    "name": "A3",
                    "midi": 57,
                    "time": 13.848548999999986,
                    "velocity": 0.3858267716535433,
                    "duration": 0.07263224999999984
                },
                {
                    "name": "G3",
                    "midi": 55,
                    "time": 13.945391999999986,
                    "velocity": 0.44881889763779526,
                    "duration": 0.07263224999999984
                },
                {
                    "name": "A#3",
                    "midi": 58,
                    "time": 14.332763999999985,
                    "velocity": 0.48031496062992124,
                    "duration": 0.38737199999999916
                },
                {
                    "name": "C#4",
                    "midi": 61,
                    "time": 14.720135999999984,
                    "velocity": 0.4330708661417323,
                    "duration": 0.38737199999999916
                },
                {
                    "name": "A3",
                    "midi": 57,
                    "time": 14.720135999999984,
                    "velocity": 0.4330708661417323,
                    "duration": 0.07263224999999984
                },
                {
                    "name": "G3",
                    "midi": 55,
                    "time": 15.010664999999983,
                    "velocity": 0.3700787401574803,
                    "duration": 0.07263224999999984
                },
                {
                    "name": "F#3",
                    "midi": 54,
                    "time": 15.107507999999983,
                    "velocity": 0.4251968503937008,
                    "duration": 0.19368599999999958
                },
                {
                    "name": "D4",
                    "midi": 62,
                    "time": 15.107507999999983,
                    "velocity": 0.4251968503937008,
                    "duration": 0.19368599999999958
                },
                {
                    "name": "G3",
                    "midi": 55,
                    "time": 15.494879999999982,
                    "velocity": 0.31496062992125984,
                    "duration": 0.09684299999999979
                },
                {
                    "name": "A3",
                    "midi": 57,
                    "time": 15.591722999999982,
                    "velocity": 0.25196850393700787,
                    "duration": 0.09684299999999979
                },
                {
                    "name": "G3",
                    "midi": 55,
                    "time": 15.688565999999982,
                    "velocity": 0.2677165354330709,
                    "duration": 0.09684299999999979
                },
                {
                    "name": "D3",
                    "midi": 50,
                    "time": 15.785408999999982,
                    "velocity": 0.2677165354330709,
                    "duration": 0.09684299999999979
                },
                {
                    "name": "D4",
                    "midi": 62,
                    "time": 15.882251999999982,
                    "velocity": 0.31496062992125984,
                    "duration": 0.07263224999999984
                },
                {
                    "name": "G3",
                    "midi": 55,
                    "time": 16.172780999999983,
                    "velocity": 0.31496062992125984,
                    "duration": 0.07263225000000162
                },
                {
                    "name": "D3",
                    "midi": 50,
                    "time": 16.172780999999983,
                    "velocity": 0.31496062992125984,
                    "duration": 0.07263225000000162
                },
                {
                    "name": "C3",
                    "midi": 48,
                    "time": 16.269623999999986,
                    "velocity": 0.36220472440944884,
                    "duration": 0.07263225000000162
                },
                {
                    "name": "F#3",
                    "midi": 54,
                    "time": 16.269623999999986,
                    "velocity": 0.36220472440944884,
                    "duration": 0.07263225000000162
                },
                {
                    "name": "C4",
                    "midi": 60,
                    "time": 16.65699599999999,
                    "velocity": 0.33858267716535434,
                    "duration": 0.09684299999999979
                },
                {
                    "name": "D4",
                    "midi": 62,
                    "time": 16.75383899999999,
                    "velocity": 0.29133858267716534,
                    "duration": 0.09684299999999979
                },
                {
                    "name": "C4",
                    "midi": 60,
                    "time": 16.85068199999999,
                    "velocity": 0.29133858267716534,
                    "duration": 0.09684299999999979
                },
                {
                    "name": "A3",
                    "midi": 57,
                    "time": 16.947524999999988,
                    "velocity": 0.29133858267716534,
                    "duration": 0.09684299999999979
                },
                {
                    "name": "A4",
                    "midi": 69,
                    "time": 17.044367999999988,
                    "velocity": 0.3858267716535433,
                    "duration": 0.07263225000000162
                },
                {
                    "name": "C4",
                    "midi": 60,
                    "time": 17.33489699999999,
                    "velocity": 0.3464566929133858,
                    "duration": 0.07263225000000162
                },
                {
                    "name": "D3",
                    "midi": 50,
                    "time": 17.33489699999999,
                    "velocity": 0.3464566929133858,
                    "duration": 0.07263225000000162
                },
                {
                    "name": "D3",
                    "midi": 50,
                    "time": 17.431739999999994,
                    "velocity": 0.3779527559055118,
                    "duration": 0.07263225000000162
                },
                {
                    "name": "A#3",
                    "midi": 58,
                    "time": 17.431739999999994,
                    "velocity": 0.3779527559055118,
                    "duration": 0.07263225000000162
                },
                {
                    "name": "G3",
                    "midi": 55,
                    "time": 17.819111999999997,
                    "velocity": 0.31496062992125984,
                    "duration": 0.09684299999999979
                },
                {
                    "name": "A3",
                    "midi": 57,
                    "time": 17.915954999999997,
                    "velocity": 0.2677165354330709,
                    "duration": 0.09684299999999979
                },
                {
                    "name": "G3",
                    "midi": 55,
                    "time": 18.012797999999997,
                    "velocity": 0.2677165354330709,
                    "duration": 0.09684299999999979
                },
                {
                    "name": "D3",
                    "midi": 50,
                    "time": 18.109640999999996,
                    "velocity": 0.2677165354330709,
                    "duration": 0.09684299999999979
                },
                {
                    "name": "G4",
                    "midi": 67,
                    "time": 18.206483999999996,
                    "velocity": 0.3937007874015748,
                    "duration": 0.07263225000000162
                },
                {
                    "name": "F4",
                    "midi": 65,
                    "time": 18.497013,
                    "velocity": 0.3464566929133858,
                    "duration": 0.07263225000000162
                },
                {
                    "name": "G3",
                    "midi": 55,
                    "time": 18.497013,
                    "velocity": 0.3464566929133858,
                    "duration": 0.07263225000000162
                },
                {
                    "name": "D#4",
                    "midi": 63,
                    "time": 18.593856000000002,
                    "velocity": 0.3700787401574803,
                    "duration": 0.07263225000000162
                },
                {
                    "name": "G3",
                    "midi": 55,
                    "time": 18.593856000000002,
                    "velocity": 0.3700787401574803,
                    "duration": 0.07263225000000162
                },
                {
                    "name": "G3",
                    "midi": 55,
                    "time": 18.884385000000005,
                    "velocity": 0.31496062992125984,
                    "duration": 0.07263225000000162
                },
                {
                    "name": "D4",
                    "midi": 62,
                    "time": 18.884385000000005,
                    "velocity": 0.31496062992125984,
                    "duration": 0.07263225000000162
                },
                {
                    "name": "G3",
                    "midi": 55,
                    "time": 18.98122800000001,
                    "velocity": 0.3464566929133858,
                    "duration": 0.07263225000000162
                },
                {
                    "name": "C4",
                    "midi": 60,
                    "time": 18.98122800000001,
                    "velocity": 0.3464566929133858,
                    "duration": 0.07263225000000162
                },
                {
                    "name": "A#3",
                    "midi": 58,
                    "time": 19.27175700000001,
                    "velocity": 0.3937007874015748,
                    "duration": 0.07263225000000162
                },
                {
                    "name": "A3",
                    "midi": 57,
                    "time": 19.368600000000015,
                    "velocity": 0.36220472440944884,
                    "duration": 0.07263225000000162
                },
                {
                    "name": "C#4",
                    "midi": 61,
                    "time": 19.368600000000015,
                    "velocity": 0.36220472440944884,
                    "duration": 0.07263225000000162
                },
                {
                    "name": "G3",
                    "midi": 55,
                    "time": 19.659129000000018,
                    "velocity": 0.31496062992125984,
                    "duration": 0.07263225000000162
                },
                {
                    "name": "F#3",
                    "midi": 54,
                    "time": 19.75597200000002,
                    "velocity": 0.3937007874015748,
                    "duration": 0.09684299999999979
                },
                {
                    "name": "D4",
                    "midi": 62,
                    "time": 19.75597200000002,
                    "velocity": 0.3937007874015748,
                    "duration": 0.09684299999999979
                },
                {
                    "name": "D5",
                    "midi": 74,
                    "time": 20.14334400000002,
                    "velocity": 0.5669291338582677,
                    "duration": 0.6779009999999985
                },
                {
                    "name": "D4",
                    "midi": 62,
                    "time": 20.53071600000002,
                    "velocity": 0.48031496062992124,
                    "duration": 0.7747440000000054
                },
                {
                    "name": "C5",
                    "midi": 72,
                    "time": 20.82124500000002,
                    "velocity": 0.4566929133858268,
                    "duration": 0.09684299999999979
                },
                {
                    "name": "A#4",
                    "midi": 70,
                    "time": 20.91808800000002,
                    "velocity": 0.5118110236220472,
                    "duration": 0.07263225000000162
                },
                {
                    "name": "A4",
                    "midi": 69,
                    "time": 21.20861700000002,
                    "velocity": 0.4330708661417323,
                    "duration": 0.07263225000000162
                },
                {
                    "name": "G4",
                    "midi": 67,
                    "time": 21.305460000000025,
                    "velocity": 0.5039370078740157,
                    "duration": 0.07263225000000162
                },
                {
                    "name": "A#4",
                    "midi": 70,
                    "time": 21.305460000000025,
                    "velocity": 0.5039370078740157,
                    "duration": 0.38737200000000627
                },
                {
                    "name": "F4",
                    "midi": 65,
                    "time": 21.595989000000028,
                    "velocity": 0.4409448818897638,
                    "duration": 0.07263225000000162
                },
                {
                    "name": "D#4",
                    "midi": 63,
                    "time": 21.69283200000003,
                    "velocity": 0.5039370078740157,
                    "duration": 0.07263225000000162
                },
                {
                    "name": "D4",
                    "midi": 62,
                    "time": 21.983361000000034,
                    "velocity": 0.4409448818897638,
                    "duration": 0.07263225000000162
                },
                {
                    "name": "C4",
                    "midi": 60,
                    "time": 22.080204000000037,
                    "velocity": 0.5039370078740157,
                    "duration": 0.07263225000000162
                },
                {
                    "name": "F5",
                    "midi": 77,
                    "time": 22.46757600000004,
                    "velocity": 0.5354330708661418,
                    "duration": 0.6779009999999985
                },
                {
                    "name": "F4",
                    "midi": 65,
                    "time": 22.85494800000004,
                    "velocity": 0.48031496062992124,
                    "duration": 0.7747440000000054
                },
                {
                    "name": "D#5",
                    "midi": 75,
                    "time": 23.14547700000004,
                    "velocity": 0.4566929133858268,
                    "duration": 0.09684299999999979
                },
                {
                    "name": "D5",
                    "midi": 74,
                    "time": 23.24232000000004,
                    "velocity": 0.5118110236220472,
                    "duration": 0.07263225000000162
                },
                {
                    "name": "C5",
                    "midi": 72,
                    "time": 23.53284900000004,
                    "velocity": 0.4330708661417323,
                    "duration": 0.07263225000000162
                },
                {
                    "name": "A#4",
                    "midi": 70,
                    "time": 23.629692000000045,
                    "velocity": 0.5039370078740157,
                    "duration": 0.07263225000000162
                },
                {
                    "name": "D5",
                    "midi": 74,
                    "time": 23.629692000000045,
                    "velocity": 0.5039370078740157,
                    "duration": 0.38737200000000627
                },
                {
                    "name": "A4",
                    "midi": 69,
                    "time": 23.920221000000048,
                    "velocity": 0.4409448818897638,
                    "duration": 0.07263225000000162
                },
                {
                    "name": "G4",
                    "midi": 67,
                    "time": 24.01706400000005,
                    "velocity": 0.5039370078740157,
                    "duration": 0.07263225000000162
                },
                {
                    "name": "F4",
                    "midi": 65,
                    "time": 24.307593000000054,
                    "velocity": 0.4409448818897638,
                    "duration": 0.07263225000000162
                },
                {
                    "name": "E4",
                    "midi": 64,
                    "time": 24.404436000000057,
                    "velocity": 0.5039370078740157,
                    "duration": 0.07263225000000162
                },
                {
                    "name": "A5",
                    "midi": 81,
                    "time": 24.79180800000006,
                    "velocity": 0.5511811023622047,
                    "duration": 0.6779009999999985
                },
                {
                    "name": "A4",
                    "midi": 69,
                    "time": 25.17918000000006,
                    "velocity": 0.48031496062992124,
                    "duration": 0.7747440000000054
                },
                {
                    "name": "G5",
                    "midi": 79,
                    "time": 25.46970900000006,
                    "velocity": 0.4566929133858268,
                    "duration": 0.09684299999999979
                },
                {
                    "name": "F#5",
                    "midi": 78,
                    "time": 25.56655200000006,
                    "velocity": 0.5118110236220472,
                    "duration": 0.07263225000000162
                },
                {
                    "name": "D#5",
                    "midi": 75,
                    "time": 25.85708100000006,
                    "velocity": 0.4330708661417323,
                    "duration": 0.07263225000000162
                },
                {
                    "name": "D5",
                    "midi": 74,
                    "time": 25.953924000000065,
                    "velocity": 0.5039370078740157,
                    "duration": 0.07263225000000162
                },
                {
                    "name": "F#5",
                    "midi": 78,
                    "time": 25.953924000000065,
                    "velocity": 0.5039370078740157,
                    "duration": 0.38737200000000627
                },
                {
                    "name": "C5",
                    "midi": 72,
                    "time": 26.244453000000068,
                    "velocity": 0.4409448818897638,
                    "duration": 0.07263225000000162
                },
                {
                    "name": "G5",
                    "midi": 79,
                    "time": 26.34129600000007,
                    "velocity": 0.5039370078740157,
                    "duration": 0.07263225000000162
                },
                {
                    "name": "A#4",
                    "midi": 70,
                    "time": 26.34129600000007,
                    "velocity": 0.5039370078740157,
                    "duration": 0.07263225000000162
                },
                {
                    "name": "A4",
                    "midi": 69,
                    "time": 26.631825000000074,
                    "velocity": 0.4409448818897638,
                    "duration": 0.07263225000000162
                },
                {
                    "name": "G4",
                    "midi": 67,
                    "time": 26.728668000000077,
                    "velocity": 0.5039370078740157,
                    "duration": 0.07263225000000162
                },
                {
                    "name": "A#4",
                    "midi": 70,
                    "time": 27.11604000000008,
                    "velocity": 0.5590551181102362,
                    "duration": 0.38737199999999916
                },
                {
                    "name": "A4",
                    "midi": 69,
                    "time": 27.50341200000008,
                    "velocity": 0.4094488188976378,
                    "duration": 0.29052899999999937
                },
                {
                    "name": "C#5",
                    "midi": 73,
                    "time": 27.50341200000008,
                    "velocity": 0.4881889763779528,
                    "duration": 0.38737199999999916
                },
                {
                    "name": "G4",
                    "midi": 67,
                    "time": 27.79394100000008,
                    "velocity": 0.4566929133858268,
                    "duration": 0.09684299999999979
                },
                {
                    "name": "D5",
                    "midi": 74,
                    "time": 27.890784000000078,
                    "velocity": 0.48031496062992124,
                    "duration": 0.07263225000000162
                },
                {
                    "name": "F#4",
                    "midi": 66,
                    "time": 27.890784000000078,
                    "velocity": 0.4409448818897638,
                    "duration": 0.07263225000000162
                },
                {
                    "name": "D#4",
                    "midi": 63,
                    "time": 28.18131300000008,
                    "velocity": 0.4015748031496063,
                    "duration": 0.07263225000000162
                },
                {
                    "name": "D4",
                    "midi": 62,
                    "time": 28.278156000000084,
                    "velocity": 0.4645669291338583,
                    "duration": 0.07263225000000162
                },
                {
                    "name": "F#4",
                    "midi": 66,
                    "time": 28.278156000000084,
                    "velocity": 0.4645669291338583,
                    "duration": 0.38737200000000627
                },
                {
                    "name": "C4",
                    "midi": 60,
                    "time": 28.568685000000087,
                    "velocity": 0.3937007874015748,
                    "duration": 0.07263225000000162
                },
                {
                    "name": "G4",
                    "midi": 67,
                    "time": 28.66552800000009,
                    "velocity": 0.44881889763779526,
                    "duration": 0.07263225000000162
                },
                {
                    "name": "A#3",
                    "midi": 58,
                    "time": 28.66552800000009,
                    "velocity": 0.44881889763779526,
                    "duration": 0.07263225000000162
                },
                {
                    "name": "A3",
                    "midi": 57,
                    "time": 28.956057000000094,
                    "velocity": 0.3858267716535433,
                    "duration": 0.07263225000000162
                },
                {
                    "name": "G3",
                    "midi": 55,
                    "time": 29.052900000000097,
                    "velocity": 0.44881889763779526,
                    "duration": 0.07263225000000162
                },
                {
                    "name": "A#3",
                    "midi": 58,
                    "time": 29.4402720000001,
                    "velocity": 0.48031496062992124,
                    "duration": 0.38737199999999916
                },
                {
                    "name": "A3",
                    "midi": 57,
                    "time": 29.8276440000001,
                    "velocity": 0.4330708661417323,
                    "duration": 0.07263225000000162
                },
                {
                    "name": "C#4",
                    "midi": 61,
                    "time": 29.8276440000001,
                    "velocity": 0.4330708661417323,
                    "duration": 0.38737200000000627
                },
                {
                    "name": "G3",
                    "midi": 55,
                    "time": 30.118173000000102,
                    "velocity": 0.3700787401574803,
                    "duration": 0.07263225000000162
                },
                {
                    "name": "D4",
                    "midi": 62,
                    "time": 30.215016000000105,
                    "velocity": 0.4251968503937008,
                    "duration": 0.19368599999999958
                },
                {
                    "name": "F#3",
                    "midi": 54,
                    "time": 30.215016000000105,
                    "velocity": 0.4251968503937008,
                    "duration": 0.19368599999999958
                },
                {
                    "name": "A#4",
                    "midi": 70,
                    "time": 30.602388000000104,
                    "velocity": 0.4566929133858268,
                    "duration": 0.6779009999999985
                },
                {
                    "name": "A#3",
                    "midi": 58,
                    "time": 30.989760000000103,
                    "velocity": 0.31496062992125984,
                    "duration": 0.7747439999999983
                },
                {
                    "name": "F#4",
                    "midi": 66,
                    "time": 31.280289000000103,
                    "velocity": 0.3937007874015748,
                    "duration": 0.09684299999999979
                },
                {
                    "name": "G4",
                    "midi": 67,
                    "time": 31.377132000000103,
                    "velocity": 0.4409448818897638,
                    "duration": 0.29052899999999937
                },
                {
                    "name": "A4",
                    "midi": 69,
                    "time": 31.667661000000102,
                    "velocity": 0.4015748031496063,
                    "duration": 0.09684299999999979
                },
                {
                    "name": "A#4",
                    "midi": 70,
                    "time": 31.7645040000001,
                    "velocity": 0.44881889763779526,
                    "duration": 0.6779009999999985
                },
                {
                    "name": "A#3",
                    "midi": 58,
                    "time": 32.1518760000001,
                    "velocity": 0.31496062992125984,
                    "duration": 0.7747439999999983
                },
                {
                    "name": "F#4",
                    "midi": 66,
                    "time": 32.4424050000001,
                    "velocity": 0.4251968503937008,
                    "duration": 0.09684299999999979
                },
                {
                    "name": "G4",
                    "midi": 67,
                    "time": 32.5392480000001,
                    "velocity": 0.48031496062992124,
                    "duration": 0.29052899999999937
                },
                {
                    "name": "A4",
                    "midi": 69,
                    "time": 32.8297770000001,
                    "velocity": 0.4094488188976378,
                    "duration": 0.09684299999999979
                },
                {
                    "name": "A#4",
                    "midi": 70,
                    "time": 32.9266200000001,
                    "velocity": 0.44881889763779526,
                    "duration": 0.19368599999999958
                },
                {
                    "name": "A#3",
                    "midi": 58,
                    "time": 33.1203060000001,
                    "velocity": 0.3700787401574803,
                    "duration": 0.19368599999999958
                },
                {
                    "name": "D5",
                    "midi": 74,
                    "time": 33.3139920000001,
                    "velocity": 0.5039370078740157,
                    "duration": 0.19368599999999958
                },
                {
                    "name": "C5",
                    "midi": 72,
                    "time": 33.5076780000001,
                    "velocity": 0.44881889763779526,
                    "duration": 0.19368599999999958
                },
                {
                    "name": "D5",
                    "midi": 74,
                    "time": 33.7013640000001,
                    "velocity": 0.5196850393700787,
                    "duration": 0.19368599999999958
                },
                {
                    "name": "C5",
                    "midi": 72,
                    "time": 33.8950500000001,
                    "velocity": 0.49606299212598426,
                    "duration": 0.19368599999999958
                },
                {
                    "name": "A#4",
                    "midi": 70,
                    "time": 34.0887360000001,
                    "velocity": 0.4645669291338583,
                    "duration": 0.12912399999999735
                },
                {
                    "name": "G4",
                    "midi": 67,
                    "time": 34.217860000000094,
                    "velocity": 0.4015748031496063,
                    "duration": 0.12912399999999735
                },
                {
                    "name": "D#4",
                    "midi": 63,
                    "time": 34.34698400000009,
                    "velocity": 0.4015748031496063,
                    "duration": 0.12912399999999735
                },
                {
                    "name": "D4",
                    "midi": 62,
                    "time": 34.47610800000009,
                    "velocity": 0.44881889763779526,
                    "duration": 0.29052899999999937
                },
                {
                    "name": "A3",
                    "midi": 57,
                    "time": 34.47610800000009,
                    "velocity": 0.28346456692913385,
                    "duration": 0.38737199999999916
                },
                {
                    "name": "C4",
                    "midi": 60,
                    "time": 34.76663700000009,
                    "velocity": 0.3700787401574803,
                    "duration": 0.09684299999999979
                },
                {
                    "name": "A#3",
                    "midi": 58,
                    "time": 34.86348000000009,
                    "velocity": 0.4251968503937008,
                    "duration": 0.19368599999999958
                },
                {
                    "name": "F5",
                    "midi": 77,
                    "time": 35.25085200000009,
                    "velocity": 0.4566929133858268,
                    "duration": 0.6779009999999985
                },
                {
                    "name": "F4",
                    "midi": 65,
                    "time": 35.638224000000086,
                    "velocity": 0.31496062992125984,
                    "duration": 0.7747439999999983
                },
                {
                    "name": "C#5",
                    "midi": 73,
                    "time": 35.928753000000086,
                    "velocity": 0.3937007874015748,
                    "duration": 0.09684299999999979
                },
                {
                    "name": "D5",
                    "midi": 74,
                    "time": 36.025596000000085,
                    "velocity": 0.4409448818897638,
                    "duration": 0.29052899999999937
                },
                {
                    "name": "D#5",
                    "midi": 75,
                    "time": 36.316125000000085,
                    "velocity": 0.4015748031496063,
                    "duration": 0.09684299999999979
                },
                {
                    "name": "F5",
                    "midi": 77,
                    "time": 36.412968000000085,
                    "velocity": 0.44881889763779526,
                    "duration": 0.6779009999999985
                },
                {
                    "name": "F4",
                    "midi": 65,
                    "time": 36.800340000000084,
                    "velocity": 0.31496062992125984,
                    "duration": 0.7747439999999983
                },
                {
                    "name": "C#5",
                    "midi": 73,
                    "time": 37.09086900000008,
                    "velocity": 0.4251968503937008,
                    "duration": 0.09684299999999979
                },
                {
                    "name": "D5",
                    "midi": 74,
                    "time": 37.18771200000008,
                    "velocity": 0.48031496062992124,
                    "duration": 0.29052899999999937
                },
                {
                    "name": "D#5",
                    "midi": 75,
                    "time": 37.47824100000008,
                    "velocity": 0.4094488188976378,
                    "duration": 0.09684299999999979
                },
                {
                    "name": "F5",
                    "midi": 77,
                    "time": 37.57508400000008,
                    "velocity": 0.44881889763779526,
                    "duration": 0.19368599999999958
                },
                {
                    "name": "F4",
                    "midi": 65,
                    "time": 37.76877000000008,
                    "velocity": 0.3700787401574803,
                    "duration": 0.19368599999999958
                },
                {
                    "name": "A5",
                    "midi": 81,
                    "time": 37.96245600000008,
                    "velocity": 0.5039370078740157,
                    "duration": 0.19368599999999958
                },
                {
                    "name": "G5",
                    "midi": 79,
                    "time": 38.15614200000008,
                    "velocity": 0.44881889763779526,
                    "duration": 0.19368599999999958
                },
                {
                    "name": "A5",
                    "midi": 81,
                    "time": 38.34982800000008,
                    "velocity": 0.5196850393700787,
                    "duration": 0.19368599999999958
                },
                {
                    "name": "G5",
                    "midi": 79,
                    "time": 38.54351400000008,
                    "velocity": 0.49606299212598426,
                    "duration": 0.19368599999999958
                },
                {
                    "name": "F5",
                    "midi": 77,
                    "time": 38.73720000000008,
                    "velocity": 0.4645669291338583,
                    "duration": 0.12912399999999735
                },
                {
                    "name": "D5",
                    "midi": 74,
                    "time": 38.86632400000008,
                    "velocity": 0.4015748031496063,
                    "duration": 0.12912399999999735
                },
                {
                    "name": "A#4",
                    "midi": 70,
                    "time": 38.995448000000074,
                    "velocity": 0.4015748031496063,
                    "duration": 0.12912399999999735
                },
                {
                    "name": "E4",
                    "midi": 64,
                    "time": 39.12457200000007,
                    "velocity": 0.28346456692913385,
                    "duration": 0.38737199999999916
                },
                {
                    "name": "A4",
                    "midi": 69,
                    "time": 39.12457200000007,
                    "velocity": 0.44881889763779526,
                    "duration": 0.29052899999999937
                },
                {
                    "name": "G4",
                    "midi": 67,
                    "time": 39.41510100000007,
                    "velocity": 0.3700787401574803,
                    "duration": 0.09684299999999979
                },
                {
                    "name": "F4",
                    "midi": 65,
                    "time": 39.51194400000007,
                    "velocity": 0.4251968503937008,
                    "duration": 0.19368599999999958
                },
                {
                    "name": "A#5",
                    "midi": 82,
                    "time": 39.89931600000007,
                    "velocity": 0.4566929133858268,
                    "duration": 0.6779009999999985
                },
                {
                    "name": "A#4",
                    "midi": 70,
                    "time": 40.28668800000007,
                    "velocity": 0.31496062992125984,
                    "duration": 0.7747439999999983
                },
                {
                    "name": "F5",
                    "midi": 77,
                    "time": 40.57721700000007,
                    "velocity": 0.3937007874015748,
                    "duration": 0.09684299999999979
                },
                {
                    "name": "F#5",
                    "midi": 78,
                    "time": 40.67406000000007,
                    "velocity": 0.47244094488188976,
                    "duration": 0.29052899999999937
                },
                {
                    "name": "G#5",
                    "midi": 80,
                    "time": 40.96458900000007,
                    "velocity": 0.44881889763779526,
                    "duration": 0.09684299999999979
                },
                {
                    "name": "A#5",
                    "midi": 82,
                    "time": 41.06143200000007,
                    "velocity": 0.4881889763779528,
                    "duration": 0.6779009999999985
                },
                {
                    "name": "A#4",
                    "midi": 70,
                    "time": 41.44880400000007,
                    "velocity": 0.31496062992125984,
                    "duration": 0.7747439999999983
                },
                {
                    "name": "F5",
                    "midi": 77,
                    "time": 41.739333000000066,
                    "velocity": 0.44881889763779526,
                    "duration": 0.09684299999999979
                },
                {
                    "name": "F#5",
                    "midi": 78,
                    "time": 41.836176000000066,
                    "velocity": 0.49606299212598426,
                    "duration": 0.29052899999999937
                },
                {
                    "name": "G#5",
                    "midi": 80,
                    "time": 42.126705000000065,
                    "velocity": 0.4330708661417323,
                    "duration": 0.09684299999999979
                },
                {
                    "name": "A#5",
                    "midi": 82,
                    "time": 42.223548000000065,
                    "velocity": 0.47244094488188976,
                    "duration": 0.19368599999999958
                },
                {
                    "name": "C#5",
                    "midi": 73,
                    "time": 42.417234000000064,
                    "velocity": 0.3937007874015748,
                    "duration": 0.19368599999999958
                },
                {
                    "name": "F6",
                    "midi": 89,
                    "time": 42.610920000000064,
                    "velocity": 0.5118110236220472,
                    "duration": 0.19368599999999958
                },
                {
                    "name": "D#6",
                    "midi": 87,
                    "time": 42.804606000000064,
                    "velocity": 0.47244094488188976,
                    "duration": 0.19368599999999958
                },
                {
                    "name": "F6",
                    "midi": 89,
                    "time": 42.99829200000006,
                    "velocity": 0.5196850393700787,
                    "duration": 0.19368599999999958
                },
                {
                    "name": "D#6",
                    "midi": 87,
                    "time": 43.19197800000006,
                    "velocity": 0.49606299212598426,
                    "duration": 0.19368599999999958
                },
                {
                    "name": "C#6",
                    "midi": 85,
                    "time": 43.38566400000006,
                    "velocity": 0.4881889763779528,
                    "duration": 0.12912399999999735
                },
                {
                    "name": "A#5",
                    "midi": 82,
                    "time": 43.51478800000006,
                    "velocity": 0.44881889763779526,
                    "duration": 0.12912399999999735
                },
                {
                    "name": "F#5",
                    "midi": 78,
                    "time": 43.64391200000006,
                    "velocity": 0.4015748031496063,
                    "duration": 0.12912399999999735
                },
                {
                    "name": "C5",
                    "midi": 72,
                    "time": 43.773036000000054,
                    "velocity": 0.28346456692913385,
                    "duration": 0.38737199999999916
                },
                {
                    "name": "F5",
                    "midi": 77,
                    "time": 43.773036000000054,
                    "velocity": 0.44881889763779526,
                    "duration": 0.29052899999999937
                },
                {
                    "name": "D#5",
                    "midi": 75,
                    "time": 44.063565000000054,
                    "velocity": 0.3700787401574803,
                    "duration": 0.09684299999999979
                },
                {
                    "name": "C#5",
                    "midi": 73,
                    "time": 44.160408000000054,
                    "velocity": 0.4251968503937008,
                    "duration": 0.19368599999999958
                },
                {
                    "name": "G#5",
                    "midi": 80,
                    "time": 44.54778000000005,
                    "velocity": 0.4566929133858268,
                    "duration": 0.6779009999999985
                },
                {
                    "name": "G#4",
                    "midi": 68,
                    "time": 44.93515200000005,
                    "velocity": 0.31496062992125984,
                    "duration": 0.7747439999999983
                },
                {
                    "name": "D#5",
                    "midi": 75,
                    "time": 45.22568100000005,
                    "velocity": 0.3937007874015748,
                    "duration": 0.09684299999999979
                },
                {
                    "name": "F5",
                    "midi": 77,
                    "time": 45.32252400000005,
                    "velocity": 0.4409448818897638,
                    "duration": 0.29052899999999937
                },
                {
                    "name": "F#5",
                    "midi": 78,
                    "time": 45.61305300000005,
                    "velocity": 0.4015748031496063,
                    "duration": 0.09684299999999979
                },
                {
                    "name": "G#5",
                    "midi": 80,
                    "time": 45.70989600000005,
                    "velocity": 0.44881889763779526,
                    "duration": 0.6779009999999985
                },
                {
                    "name": "G#4",
                    "midi": 68,
                    "time": 46.09726800000005,
                    "velocity": 0.31496062992125984,
                    "duration": 0.7747439999999983
                },
                {
                    "name": "D#5",
                    "midi": 75,
                    "time": 46.38779700000005,
                    "velocity": 0.4251968503937008,
                    "duration": 0.09684299999999979
                },
                {
                    "name": "F5",
                    "midi": 77,
                    "time": 46.48464000000005,
                    "velocity": 0.48031496062992124,
                    "duration": 0.29052899999999937
                },
                {
                    "name": "F#5",
                    "midi": 78,
                    "time": 46.77516900000005,
                    "velocity": 0.4094488188976378,
                    "duration": 0.09684299999999979
                },
                {
                    "name": "G#5",
                    "midi": 80,
                    "time": 46.87201200000005,
                    "velocity": 0.44881889763779526,
                    "duration": 0.19368599999999958
                },
                {
                    "name": "A#4",
                    "midi": 70,
                    "time": 47.06569800000005,
                    "velocity": 0.3700787401574803,
                    "duration": 0.19368599999999958
                },
                {
                    "name": "C6",
                    "midi": 84,
                    "time": 47.25938400000005,
                    "velocity": 0.5039370078740157,
                    "duration": 0.19368599999999958
                },
                {
                    "name": "A#5",
                    "midi": 82,
                    "time": 47.45307000000005,
                    "velocity": 0.44881889763779526,
                    "duration": 0.19368599999999958
                },
                {
                    "name": "C6",
                    "midi": 84,
                    "time": 47.646756000000046,
                    "velocity": 0.5196850393700787,
                    "duration": 0.19368599999999958
                },
                {
                    "name": "A#5",
                    "midi": 82,
                    "time": 47.840442000000046,
                    "velocity": 0.49606299212598426,
                    "duration": 0.19368599999999958
                },
                {
                    "name": "G#5",
                    "midi": 80,
                    "time": 48.034128000000045,
                    "velocity": 0.4645669291338583,
                    "duration": 0.12912399999999735
                },
                {
                    "name": "F5",
                    "midi": 77,
                    "time": 48.16325200000004,
                    "velocity": 0.4015748031496063,
                    "duration": 0.12912399999999735
                },
                {
                    "name": "C#5",
                    "midi": 73,
                    "time": 48.29237600000004,
                    "velocity": 0.4015748031496063,
                    "duration": 0.12912399999999735
                },
                {
                    "name": "C5",
                    "midi": 72,
                    "time": 48.42150000000004,
                    "velocity": 0.44881889763779526,
                    "duration": 0.29052899999999937
                },
                {
                    "name": "G4",
                    "midi": 67,
                    "time": 48.42150000000004,
                    "velocity": 0.28346456692913385,
                    "duration": 0.38737199999999916
                },
                {
                    "name": "A#4",
                    "midi": 70,
                    "time": 48.71202900000004,
                    "velocity": 0.3700787401574803,
                    "duration": 0.09684299999999979
                },
                {
                    "name": "G#4",
                    "midi": 68,
                    "time": 48.80887200000004,
                    "velocity": 0.4251968503937008,
                    "duration": 0.19368599999999958
                },
                {
                    "name": "G#4",
                    "midi": 68,
                    "time": 49.583616000000035,
                    "velocity": 0.31496062992125984,
                    "duration": 0.7747439999999983
                },
                {
                    "name": "D#4",
                    "midi": 63,
                    "time": 49.583616000000035,
                    "velocity": 0.2677165354330709,
                    "duration": 0.7747439999999983
                },
                {
                    "name": "C4",
                    "midi": 60,
                    "time": 49.583616000000035,
                    "velocity": 0.2677165354330709,
                    "duration": 0.7747439999999983
                },
                {
                    "name": "A4",
                    "midi": 69,
                    "time": 50.35836000000003,
                    "velocity": 0.4094488188976378,
                    "duration": 0.6779009999999985
                },
                {
                    "name": "D4",
                    "midi": 62,
                    "time": 51.03626100000003,
                    "velocity": 0.3543307086614173,
                    "duration": 0.09684299999999979
                },
                {
                    "name": "D#4",
                    "midi": 63,
                    "time": 51.13310400000003,
                    "velocity": 0.3937007874015748,
                    "duration": 0.29052899999999937
                },
                {
                    "name": "F4",
                    "midi": 65,
                    "time": 51.42363300000003,
                    "velocity": 0.3543307086614173,
                    "duration": 0.09684299999999979
                },
                {
                    "name": "C4",
                    "midi": 60,
                    "time": 51.52047600000003,
                    "velocity": 0.3937007874015748,
                    "duration": 1.1621159999999975
                },
                {
                    "name": "F#4",
                    "midi": 66,
                    "time": 51.52047600000003,
                    "velocity": 0.4015748031496063,
                    "duration": 1.1621159999999975
                },
                {
                    "name": "F#4",
                    "midi": 66,
                    "time": 52.68259200000003,
                    "velocity": 0.4094488188976378,
                    "duration": 0.6779009999999985
                },
                {
                    "name": "B3",
                    "midi": 59,
                    "time": 53.36049300000003,
                    "velocity": 0.3543307086614173,
                    "duration": 0.09684299999999979
                },
                {
                    "name": "C4",
                    "midi": 60,
                    "time": 53.457336000000026,
                    "velocity": 0.3937007874015748,
                    "duration": 0.29052899999999937
                },
                {
                    "name": "C#4",
                    "midi": 61,
                    "time": 53.747865000000026,
                    "velocity": 0.3543307086614173,
                    "duration": 0.09684299999999979
                },
                {
                    "name": "D#4",
                    "midi": 63,
                    "time": 53.844708000000026,
                    "velocity": 0.4015748031496063,
                    "duration": 0.7747439999999983
                },
                {
                    "name": "F3",
                    "midi": 53,
                    "time": 54.522609000000024,
                    "velocity": 0.3543307086614173,
                    "duration": 0.09684299999999979
                },
                {
                    "name": "D#4",
                    "midi": 63,
                    "time": 54.619452000000024,
                    "velocity": 0.4015748031496063,
                    "duration": 0.38737199999999916
                },
                {
                    "name": "F#3",
                    "midi": 54,
                    "time": 54.619452000000024,
                    "velocity": 0.3937007874015748,
                    "duration": 0.29052899999999937
                },
                {
                    "name": "G#3",
                    "midi": 56,
                    "time": 54.90998100000002,
                    "velocity": 0.3543307086614173,
                    "duration": 0.09684299999999979
                },
                {
                    "name": "A3",
                    "midi": 57,
                    "time": 55.00682400000002,
                    "velocity": 0.4015748031496063,
                    "duration": 1.1621159999999975
                },
                {
                    "name": "D3",
                    "midi": 50,
                    "time": 55.68472500000002,
                    "velocity": 0.3543307086614173,
                    "duration": 0.09684299999999979
                },
                {
                    "name": "D#3",
                    "midi": 51,
                    "time": 55.78156800000002,
                    "velocity": 0.3937007874015748,
                    "duration": 0.29052899999999937
                },
                {
                    "name": "E3",
                    "midi": 52,
                    "time": 56.07209700000002,
                    "velocity": 0.3543307086614173,
                    "duration": 0.09684299999999979
                },
                {
                    "name": "F#3",
                    "midi": 54,
                    "time": 56.16894000000002,
                    "velocity": 0.4015748031496063,
                    "duration": 1.1621159999999975
                },
                {
                    "name": "C#3",
                    "midi": 49,
                    "time": 56.84684100000002,
                    "velocity": 0.3543307086614173,
                    "duration": 0.09684299999999979
                },
                {
                    "name": "D3",
                    "midi": 50,
                    "time": 56.94368400000002,
                    "velocity": 0.3937007874015748,
                    "duration": 0.29052899999999937
                },
                {
                    "name": "E3",
                    "midi": 52,
                    "time": 57.23421300000002,
                    "velocity": 0.4015748031496063,
                    "duration": 0.09684299999999979
                },
                {
                    "name": "F#3",
                    "midi": 54,
                    "time": 57.33105600000002,
                    "velocity": 0.4330708661417323,
                    "duration": 0.6779009999999985
                },
                {
                    "name": "G3",
                    "midi": 55,
                    "time": 58.493172000000015,
                    "velocity": 0.31496062992125984,
                    "duration": 0.09684299999999979
                },
                {
                    "name": "A3",
                    "midi": 57,
                    "time": 58.590015000000015,
                    "velocity": 0.25196850393700787,
                    "duration": 0.09684299999999979
                },
                {
                    "name": "G3",
                    "midi": 55,
                    "time": 58.686858000000015,
                    "velocity": 0.2677165354330709,
                    "duration": 0.09684299999999979
                },
                {
                    "name": "D3",
                    "midi": 50,
                    "time": 58.783701000000015,
                    "velocity": 0.2677165354330709,
                    "duration": 0.09684299999999979
                },
                {
                    "name": "D4",
                    "midi": 62,
                    "time": 58.880544000000015,
                    "velocity": 0.31496062992125984,
                    "duration": 0.07263224999999807
                },
                {
                    "name": "D3",
                    "midi": 50,
                    "time": 59.171073000000014,
                    "velocity": 0.31496062992125984,
                    "duration": 0.07263224999999807
                },
                {
                    "name": "G3",
                    "midi": 55,
                    "time": 59.171073000000014,
                    "velocity": 0.31496062992125984,
                    "duration": 0.07263224999999807
                },
                {
                    "name": "C3",
                    "midi": 48,
                    "time": 59.267916000000014,
                    "velocity": 0.36220472440944884,
                    "duration": 0.07263224999999807
                },
                {
                    "name": "F#3",
                    "midi": 54,
                    "time": 59.267916000000014,
                    "velocity": 0.36220472440944884,
                    "duration": 0.07263224999999807
                },
                {
                    "name": "C4",
                    "midi": 60,
                    "time": 59.65528800000001,
                    "velocity": 0.33858267716535434,
                    "duration": 0.09684299999999979
                },
                {
                    "name": "D4",
                    "midi": 62,
                    "time": 59.75213100000001,
                    "velocity": 0.29133858267716534,
                    "duration": 0.09684299999999979
                },
                {
                    "name": "C4",
                    "midi": 60,
                    "time": 59.84897400000001,
                    "velocity": 0.29133858267716534,
                    "duration": 0.09684299999999979
                },
                {
                    "name": "A3",
                    "midi": 57,
                    "time": 59.94581700000001,
                    "velocity": 0.29133858267716534,
                    "duration": 0.09684299999999979
                },
                {
                    "name": "A4",
                    "midi": 69,
                    "time": 60.04266000000001,
                    "velocity": 0.3858267716535433,
                    "duration": 0.07263224999999807
                },
                {
                    "name": "C4",
                    "midi": 60,
                    "time": 60.33318900000001,
                    "velocity": 0.3464566929133858,
                    "duration": 0.07263224999999807
                },
                {
                    "name": "D3",
                    "midi": 50,
                    "time": 60.33318900000001,
                    "velocity": 0.3464566929133858,
                    "duration": 0.07263224999999807
                },
                {
                    "name": "A#3",
                    "midi": 58,
                    "time": 60.43003200000001,
                    "velocity": 0.3779527559055118,
                    "duration": 0.07263224999999807
                },
                {
                    "name": "D3",
                    "midi": 50,
                    "time": 60.43003200000001,
                    "velocity": 0.3779527559055118,
                    "duration": 0.07263224999999807
                },
                {
                    "name": "G3",
                    "midi": 55,
                    "time": 60.81740400000001,
                    "velocity": 0.31496062992125984,
                    "duration": 0.09684299999999979
                },
                {
                    "name": "A3",
                    "midi": 57,
                    "time": 60.91424700000001,
                    "velocity": 0.2677165354330709,
                    "duration": 0.09684299999999979
                },
                {
                    "name": "G3",
                    "midi": 55,
                    "time": 61.01109000000001,
                    "velocity": 0.2677165354330709,
                    "duration": 0.09684299999999979
                },
                {
                    "name": "D3",
                    "midi": 50,
                    "time": 61.10793300000001,
                    "velocity": 0.2677165354330709,
                    "duration": 0.09684299999999979
                },
                {
                    "name": "G4",
                    "midi": 67,
                    "time": 61.20477600000001,
                    "velocity": 0.3937007874015748,
                    "duration": 0.07263224999999807
                },
                {
                    "name": "F4",
                    "midi": 65,
                    "time": 61.49530500000001,
                    "velocity": 0.3464566929133858,
                    "duration": 0.07263224999999807
                },
                {
                    "name": "G3",
                    "midi": 55,
                    "time": 61.49530500000001,
                    "velocity": 0.3464566929133858,
                    "duration": 0.07263224999999807
                },
                {
                    "name": "D#4",
                    "midi": 63,
                    "time": 61.59214800000001,
                    "velocity": 0.3700787401574803,
                    "duration": 0.07263224999999807
                },
                {
                    "name": "G3",
                    "midi": 55,
                    "time": 61.59214800000001,
                    "velocity": 0.3700787401574803,
                    "duration": 0.07263224999999807
                },
                {
                    "name": "D4",
                    "midi": 62,
                    "time": 61.88267700000001,
                    "velocity": 0.31496062992125984,
                    "duration": 0.07263224999999807
                },
                {
                    "name": "G3",
                    "midi": 55,
                    "time": 61.88267700000001,
                    "velocity": 0.31496062992125984,
                    "duration": 0.07263224999999807
                },
                {
                    "name": "C4",
                    "midi": 60,
                    "time": 61.97952000000001,
                    "velocity": 0.3464566929133858,
                    "duration": 0.07263224999999807
                },
                {
                    "name": "G3",
                    "midi": 55,
                    "time": 61.97952000000001,
                    "velocity": 0.3464566929133858,
                    "duration": 0.07263224999999807
                },
                {
                    "name": "A#3",
                    "midi": 58,
                    "time": 62.27004900000001,
                    "velocity": 0.3937007874015748,
                    "duration": 0.07263224999999807
                },
                {
                    "name": "C#4",
                    "midi": 61,
                    "time": 62.36689200000001,
                    "velocity": 0.36220472440944884,
                    "duration": 0.07263224999999807
                },
                {
                    "name": "A3",
                    "midi": 57,
                    "time": 62.36689200000001,
                    "velocity": 0.36220472440944884,
                    "duration": 0.07263224999999807
                },
                {
                    "name": "G3",
                    "midi": 55,
                    "time": 62.65742100000001,
                    "velocity": 0.31496062992125984,
                    "duration": 0.07263224999999807
                },
                {
                    "name": "D4",
                    "midi": 62,
                    "time": 62.754264000000006,
                    "velocity": 0.3937007874015748,
                    "duration": 0.07263224999999807
                },
                {
                    "name": "F#3",
                    "midi": 54,
                    "time": 62.754264000000006,
                    "velocity": 0.3937007874015748,
                    "duration": 0.07263224999999807
                },
                {
                    "name": "D5",
                    "midi": 74,
                    "time": 63.141636000000005,
                    "velocity": 0.5669291338582677,
                    "duration": 0.6779009999999985
                },
                {
                    "name": "D4",
                    "midi": 62,
                    "time": 63.529008000000005,
                    "velocity": 0.48031496062992124,
                    "duration": 0.7747439999999841
                },
                {
                    "name": "C5",
                    "midi": 72,
                    "time": 63.819537000000004,
                    "velocity": 0.4566929133858268,
                    "duration": 0.09684299999999979
                },
                {
                    "name": "A#4",
                    "midi": 70,
                    "time": 63.916380000000004,
                    "velocity": 0.5118110236220472,
                    "duration": 0.07263224999999807
                },
                {
                    "name": "A4",
                    "midi": 69,
                    "time": 64.206909,
                    "velocity": 0.4330708661417323,
                    "duration": 0.07263224999999807
                },
                {
                    "name": "A#4",
                    "midi": 70,
                    "time": 64.30375199999999,
                    "velocity": 0.5039370078740157,
                    "duration": 0.38737199999998495
                },
                {
                    "name": "G4",
                    "midi": 67,
                    "time": 64.30375199999999,
                    "velocity": 0.5039370078740157,
                    "duration": 0.07263224999999807
                },
                {
                    "name": "F4",
                    "midi": 65,
                    "time": 64.59428099999998,
                    "velocity": 0.4409448818897638,
                    "duration": 0.07263224999999807
                },
                {
                    "name": "D#4",
                    "midi": 63,
                    "time": 64.69112399999997,
                    "velocity": 0.5039370078740157,
                    "duration": 0.07263224999999807
                },
                {
                    "name": "D4",
                    "midi": 62,
                    "time": 64.98165299999997,
                    "velocity": 0.4409448818897638,
                    "duration": 0.07263224999999807
                },
                {
                    "name": "C4",
                    "midi": 60,
                    "time": 65.07849599999996,
                    "velocity": 0.5039370078740157,
                    "duration": 0.07263224999999807
                },
                {
                    "name": "F5",
                    "midi": 77,
                    "time": 65.46586799999996,
                    "velocity": 0.5354330708661418,
                    "duration": 0.6779010000000056
                },
                {
                    "name": "F4",
                    "midi": 65,
                    "time": 65.85323999999996,
                    "velocity": 0.48031496062992124,
                    "duration": 0.7747439999999983
                },
                {
                    "name": "D#5",
                    "midi": 75,
                    "time": 66.14376899999996,
                    "velocity": 0.4566929133858268,
                    "duration": 0.0968430000000069
                },
                {
                    "name": "D5",
                    "midi": 74,
                    "time": 66.24061199999997,
                    "velocity": 0.5118110236220472,
                    "duration": 0.07263224999999807
                },
                {
                    "name": "C5",
                    "midi": 72,
                    "time": 66.53114099999996,
                    "velocity": 0.4330708661417323,
                    "duration": 0.07263224999999807
                },
                {
                    "name": "A#4",
                    "midi": 70,
                    "time": 66.62798399999996,
                    "velocity": 0.5039370078740157,
                    "duration": 0.07263224999999807
                },
                {
                    "name": "D5",
                    "midi": 74,
                    "time": 66.62798399999996,
                    "velocity": 0.5039370078740157,
                    "duration": 0.38737199999998495
                },
                {
                    "name": "A4",
                    "midi": 69,
                    "time": 66.91851299999995,
                    "velocity": 0.4409448818897638,
                    "duration": 0.07263224999999807
                },
                {
                    "name": "G4",
                    "midi": 67,
                    "time": 67.01535599999994,
                    "velocity": 0.5039370078740157,
                    "duration": 0.07263224999999807
                },
                {
                    "name": "F4",
                    "midi": 65,
                    "time": 67.30588499999993,
                    "velocity": 0.4409448818897638,
                    "duration": 0.07263224999999807
                },
                {
                    "name": "E4",
                    "midi": 64,
                    "time": 67.40272799999993,
                    "velocity": 0.5039370078740157,
                    "duration": 0.07263224999999807
                },
                {
                    "name": "A5",
                    "midi": 81,
                    "time": 67.79009999999992,
                    "velocity": 0.5511811023622047,
                    "duration": 0.6779010000000056
                },
                {
                    "name": "A4",
                    "midi": 69,
                    "time": 68.17747199999992,
                    "velocity": 0.48031496062992124,
                    "duration": 0.7747439999999983
                },
                {
                    "name": "G5",
                    "midi": 79,
                    "time": 68.46800099999993,
                    "velocity": 0.4566929133858268,
                    "duration": 0.0968430000000069
                },
                {
                    "name": "F#5",
                    "midi": 78,
                    "time": 68.56484399999994,
                    "velocity": 0.5118110236220472,
                    "duration": 0.07263224999999807
                },
                {
                    "name": "D#5",
                    "midi": 75,
                    "time": 68.85537299999993,
                    "velocity": 0.4330708661417323,
                    "duration": 0.07263224999999807
                },
                {
                    "name": "D5",
                    "midi": 74,
                    "time": 68.95221599999992,
                    "velocity": 0.5039370078740157,
                    "duration": 0.07263224999999807
                },
                {
                    "name": "F#5",
                    "midi": 78,
                    "time": 68.95221599999992,
                    "velocity": 0.5039370078740157,
                    "duration": 0.38737199999998495
                },
                {
                    "name": "C5",
                    "midi": 72,
                    "time": 69.24274499999991,
                    "velocity": 0.4409448818897638,
                    "duration": 0.07263224999999807
                },
                {
                    "name": "G5",
                    "midi": 79,
                    "time": 69.3395879999999,
                    "velocity": 0.5039370078740157,
                    "duration": 0.09684299999999268
                },
                {
                    "name": "A#4",
                    "midi": 70,
                    "time": 69.3395879999999,
                    "velocity": 0.5039370078740157,
                    "duration": 0.07263224999999807
                },
                {
                    "name": "A4",
                    "midi": 69,
                    "time": 69.6301169999999,
                    "velocity": 0.4409448818897638,
                    "duration": 0.07263224999999807
                },
                {
                    "name": "G4",
                    "midi": 67,
                    "time": 69.72695999999989,
                    "velocity": 0.5039370078740157,
                    "duration": 0.07263224999999807
                },
                {
                    "name": "A#4",
                    "midi": 70,
                    "time": 70.11433199999989,
                    "velocity": 0.5590551181102362,
                    "duration": 0.38737199999999916
                },
                {
                    "name": "A4",
                    "midi": 69,
                    "time": 70.50170399999989,
                    "velocity": 0.4094488188976378,
                    "duration": 0.2905290000000065
                },
                {
                    "name": "C#5",
                    "midi": 73,
                    "time": 70.50170399999989,
                    "velocity": 0.4881889763779528,
                    "duration": 0.3873720000000134
                },
                {
                    "name": "G4",
                    "midi": 67,
                    "time": 70.7922329999999,
                    "velocity": 0.4566929133858268,
                    "duration": 0.0968430000000069
                },
                {
                    "name": "F#4",
                    "midi": 66,
                    "time": 70.8890759999999,
                    "velocity": 0.4409448818897638,
                    "duration": 0.19368599999999958
                },
                {
                    "name": "D5",
                    "midi": 74,
                    "time": 70.8890759999999,
                    "velocity": 0.48031496062992124,
                    "duration": 0.19368599999999958
                },
                {
                    "name": "G#4",
                    "midi": 68,
                    "time": 71.17960499999991,
                    "velocity": 0.4015748031496063,
                    "duration": 0.07263224999999807
                },
                {
                    "name": "G4",
                    "midi": 67,
                    "time": 71.2764479999999,
                    "velocity": 0.4645669291338583,
                    "duration": 0.19368599999999958
                },
                {
                    "name": "B4",
                    "midi": 71,
                    "time": 71.2764479999999,
                    "velocity": 0.4645669291338583,
                    "duration": 0.38737199999999916
                },
                {
                    "name": "F4",
                    "midi": 65,
                    "time": 71.56697699999991,
                    "velocity": 0.3858267716535433,
                    "duration": 0.07263224999999807
                },
                {
                    "name": "D#4",
                    "midi": 63,
                    "time": 71.6638199999999,
                    "velocity": 0.4330708661417323,
                    "duration": 0.19368599999999958
                },
                {
                    "name": "C5",
                    "midi": 72,
                    "time": 71.6638199999999,
                    "velocity": 0.4330708661417323,
                    "duration": 0.19368599999999958
                },
                {
                    "name": "D4",
                    "midi": 62,
                    "time": 71.95434899999991,
                    "velocity": 0.3700787401574803,
                    "duration": 0.0968430000000069
                },
                {
                    "name": "C4",
                    "midi": 60,
                    "time": 72.05119199999992,
                    "velocity": 0.4251968503937008,
                    "duration": 0.38737199999999916
                },
                {
                    "name": "D#4",
                    "midi": 63,
                    "time": 72.43856399999991,
                    "velocity": 0.4409448818897638,
                    "duration": 0.38737199999999916
                },
                {
                    "name": "F#4",
                    "midi": 66,
                    "time": 72.82593599999991,
                    "velocity": 0.3858267716535433,
                    "duration": 0.3873720000000134
                },
                {
                    "name": "D4",
                    "midi": 62,
                    "time": 72.82593599999991,
                    "velocity": 0.3858267716535433,
                    "duration": 0.2905290000000065
                },
                {
                    "name": "C4",
                    "midi": 60,
                    "time": 73.11646499999992,
                    "velocity": 0.3228346456692913,
                    "duration": 0.0968430000000069
                },
                {
                    "name": "A#3",
                    "midi": 58,
                    "time": 73.21330799999993,
                    "velocity": 0.30708661417322836,
                    "duration": 0.38737199999999916
                },
                {
                    "name": "G4",
                    "midi": 67,
                    "time": 73.21330799999993,
                    "velocity": 0.3700787401574803,
                    "duration": 0.38737199999999916
                },
                {
                    "name": "D#4",
                    "midi": 63,
                    "time": 73.60067999999993,
                    "velocity": 0.2992125984251969,
                    "duration": 0.38737199999999916
                },
                {
                    "name": "C4",
                    "midi": 60,
                    "time": 73.60067999999993,
                    "velocity": 0.2992125984251969,
                    "duration": 0.38737199999999916
                },
                {
                    "name": "G4",
                    "midi": 67,
                    "time": 73.60067999999993,
                    "velocity": 0.3543307086614173,
                    "duration": 0.38737199999999916
                },
                {
                    "name": "A4",
                    "midi": 69,
                    "time": 73.98805199999993,
                    "velocity": 0.3779527559055118,
                    "duration": 0.38737199999999916
                },
                {
                    "name": "F#4",
                    "midi": 66,
                    "time": 73.98805199999993,
                    "velocity": 0.31496062992125984,
                    "duration": 0.38737199999999916
                },
                {
                    "name": "C4",
                    "midi": 60,
                    "time": 73.98805199999993,
                    "velocity": 0.31496062992125984,
                    "duration": 0.38737199999999916
                },
                {
                    "name": "D#4",
                    "midi": 63,
                    "time": 73.98805199999993,
                    "velocity": 0.31496062992125984,
                    "duration": 0.38737199999999916
                },
                {
                    "name": "A#4",
                    "midi": 70,
                    "time": 74.37542399999992,
                    "velocity": 0.44881889763779526,
                    "duration": 0.19368599999999958
                },
                {
                    "name": "D4",
                    "midi": 62,
                    "time": 74.37542399999992,
                    "velocity": 0.3779527559055118,
                    "duration": 0.19368599999999958
                },
                {
                    "name": "C5",
                    "midi": 72,
                    "time": 74.56910999999992,
                    "velocity": 0.3700787401574803,
                    "duration": 0.19368599999999958
                },
                {
                    "name": "A4",
                    "midi": 69,
                    "time": 74.76279599999992,
                    "velocity": 0.4015748031496063,
                    "duration": 0.19368599999999958
                },
                {
                    "name": "A#4",
                    "midi": 70,
                    "time": 74.95648199999992,
                    "velocity": 0.3700787401574803,
                    "duration": 0.19368599999999958
                },
                {
                    "name": "G4",
                    "midi": 67,
                    "time": 75.15016799999992,
                    "velocity": 0.4566929133858268,
                    "duration": 0.19368599999999958
                },
                {
                    "name": "D5",
                    "midi": 74,
                    "time": 75.34385399999992,
                    "velocity": 0.4251968503937008,
                    "duration": 0.19368599999999958
                },
                {
                    "name": "D5",
                    "midi": 74,
                    "time": 75.53753999999992,
                    "velocity": 0.4881889763779528,
                    "duration": 0.38737199999999916
                },
                {
                    "name": "D#4",
                    "midi": 63,
                    "time": 75.92491199999992,
                    "velocity": 0.31496062992125984,
                    "duration": 0.38737199999999916
                },
                {
                    "name": "G4",
                    "midi": 67,
                    "time": 75.92491199999992,
                    "velocity": 0.3700787401574803,
                    "duration": 0.38737199999999916
                },
                {
                    "name": "C4",
                    "midi": 60,
                    "time": 75.92491199999992,
                    "velocity": 0.31496062992125984,
                    "duration": 0.38737199999999916
                },
                {
                    "name": "A4",
                    "midi": 69,
                    "time": 76.31228399999992,
                    "velocity": 0.3937007874015748,
                    "duration": 0.38737199999999916
                },
                {
                    "name": "D#4",
                    "midi": 63,
                    "time": 76.31228399999992,
                    "velocity": 0.33070866141732286,
                    "duration": 0.38737199999999916
                },
                {
                    "name": "C4",
                    "midi": 60,
                    "time": 76.31228399999992,
                    "velocity": 0.33070866141732286,
                    "duration": 0.38737199999999916
                },
                {
                    "name": "F#4",
                    "midi": 66,
                    "time": 76.31228399999992,
                    "velocity": 0.33070866141732286,
                    "duration": 0.38737199999999916
                },
                {
                    "name": "D4",
                    "midi": 62,
                    "time": 76.69965599999992,
                    "velocity": 0.3937007874015748,
                    "duration": 0.19368599999999958
                },
                {
                    "name": "A#4",
                    "midi": 70,
                    "time": 76.69965599999992,
                    "velocity": 0.4645669291338583,
                    "duration": 0.19368599999999958
                },
                {
                    "name": "C5",
                    "midi": 72,
                    "time": 76.89334199999992,
                    "velocity": 0.3858267716535433,
                    "duration": 0.19368599999999958
                },
                {
                    "name": "A4",
                    "midi": 69,
                    "time": 77.08702799999992,
                    "velocity": 0.41732283464566927,
                    "duration": 0.19368599999999958
                },
                {
                    "name": "A#4",
                    "midi": 70,
                    "time": 77.28071399999992,
                    "velocity": 0.3858267716535433,
                    "duration": 0.19368599999999958
                },
                {
                    "name": "G4",
                    "midi": 67,
                    "time": 77.47439999999992,
                    "velocity": 0.49606299212598426,
                    "duration": 0.19368599999999958
                },
                {
                    "name": "D#5",
                    "midi": 75,
                    "time": 77.66808599999992,
                    "velocity": 0.4409448818897638,
                    "duration": 0.19368599999999958
                },
                {
                    "name": "D#5",
                    "midi": 75,
                    "time": 77.86177199999992,
                    "velocity": 0.49606299212598426,
                    "duration": 0.38737199999999916
                },
                {
                    "name": "D#4",
                    "midi": 63,
                    "time": 78.24914399999992,
                    "velocity": 0.3700787401574803,
                    "duration": 0.192071949999999
                },
                {
                    "name": "G4",
                    "midi": 67,
                    "time": 78.24914399999992,
                    "velocity": 0.4409448818897638,
                    "duration": 0.192071949999999
                },
                {
                    "name": "C4",
                    "midi": 60,
                    "time": 78.24914399999992,
                    "velocity": 0.3700787401574803,
                    "duration": 0.192071949999999
                },
                {
                    "name": "C4",
                    "midi": 60,
                    "time": 78.63651599999992,
                    "velocity": 0.3858267716535433,
                    "duration": 0.38737199999999916
                },
                {
                    "name": "D#4",
                    "midi": 63,
                    "time": 78.63651599999992,
                    "velocity": 0.3858267716535433,
                    "duration": 0.38737199999999916
                },
                {
                    "name": "A4",
                    "midi": 69,
                    "time": 78.63651599999992,
                    "velocity": 0.4645669291338583,
                    "duration": 0.5810579999999987
                },
                {
                    "name": "D4",
                    "midi": 62,
                    "time": 79.02388799999991,
                    "velocity": 0.4094488188976378,
                    "duration": 0.19368599999999958
                },
                {
                    "name": "A#4",
                    "midi": 70,
                    "time": 79.21757399999991,
                    "velocity": 0.4015748031496063,
                    "duration": 0.19368599999999958
                },
                {
                    "name": "G4",
                    "midi": 67,
                    "time": 79.41125999999991,
                    "velocity": 0.4409448818897638,
                    "duration": 0.19368599999999958
                },
                {
                    "name": "A4",
                    "midi": 69,
                    "time": 79.60494599999991,
                    "velocity": 0.4015748031496063,
                    "duration": 0.19368599999999958
                },
                {
                    "name": "F4",
                    "midi": 65,
                    "time": 79.79863199999991,
                    "velocity": 0.49606299212598426,
                    "duration": 0.19368599999999958
                },
                {
                    "name": "D5",
                    "midi": 74,
                    "time": 79.99231799999991,
                    "velocity": 0.4409448818897638,
                    "duration": 0.19368599999999958
                },
                {
                    "name": "D5",
                    "midi": 74,
                    "time": 80.18600399999991,
                    "velocity": 0.5275590551181102,
                    "duration": 0.38737199999999916
                },
                {
                    "name": "A#3",
                    "midi": 58,
                    "time": 80.57337599999991,
                    "velocity": 0.3700787401574803,
                    "duration": 0.192071949999999
                },
                {
                    "name": "D4",
                    "midi": 62,
                    "time": 80.57337599999991,
                    "velocity": 0.3700787401574803,
                    "duration": 0.192071949999999
                },
                {
                    "name": "F4",
                    "midi": 65,
                    "time": 80.57337599999991,
                    "velocity": 0.4409448818897638,
                    "duration": 0.192071949999999
                },
                {
                    "name": "D4",
                    "midi": 62,
                    "time": 80.96074799999991,
                    "velocity": 0.3858267716535433,
                    "duration": 0.38737199999999916
                },
                {
                    "name": "G4",
                    "midi": 67,
                    "time": 80.96074799999991,
                    "velocity": 0.4645669291338583,
                    "duration": 0.5810579999999987
                },
                {
                    "name": "A#3",
                    "midi": 58,
                    "time": 80.96074799999991,
                    "velocity": 0.3858267716535433,
                    "duration": 0.38737199999999916
                },
                {
                    "name": "C4",
                    "midi": 60,
                    "time": 81.34811999999991,
                    "velocity": 0.4094488188976378,
                    "duration": 0.19368599999999958
                },
                {
                    "name": "A4",
                    "midi": 69,
                    "time": 81.54180599999991,
                    "velocity": 0.4015748031496063,
                    "duration": 0.19368599999999958
                },
                {
                    "name": "F4",
                    "midi": 65,
                    "time": 81.73549199999991,
                    "velocity": 0.4409448818897638,
                    "duration": 0.19368599999999958
                },
                {
                    "name": "G4",
                    "midi": 67,
                    "time": 81.92917799999991,
                    "velocity": 0.4015748031496063,
                    "duration": 0.19368599999999958
                },
                {
                    "name": "D#4",
                    "midi": 63,
                    "time": 82.12286399999991,
                    "velocity": 0.49606299212598426,
                    "duration": 0.19368599999999958
                },
                {
                    "name": "C5",
                    "midi": 72,
                    "time": 82.3165499999999,
                    "velocity": 0.4409448818897638,
                    "duration": 0.19368599999999958
                },
                {
                    "name": "C5",
                    "midi": 72,
                    "time": 82.5102359999999,
                    "velocity": 0.5275590551181102,
                    "duration": 0.38737199999999916
                },
                {
                    "name": "C4",
                    "midi": 60,
                    "time": 82.8976079999999,
                    "velocity": 0.3700787401574803,
                    "duration": 0.192071949999999
                },
                {
                    "name": "G3",
                    "midi": 55,
                    "time": 82.8976079999999,
                    "velocity": 0.3700787401574803,
                    "duration": 0.192071949999999
                },
                {
                    "name": "D#4",
                    "midi": 63,
                    "time": 82.8976079999999,
                    "velocity": 0.4409448818897638,
                    "duration": 0.192071949999999
                },
                {
                    "name": "A3",
                    "midi": 57,
                    "time": 83.2849799999999,
                    "velocity": 0.3858267716535433,
                    "duration": 0.38737199999999916
                },
                {
                    "name": "F#3",
                    "midi": 54,
                    "time": 83.2849799999999,
                    "velocity": 0.3858267716535433,
                    "duration": 0.38737199999999916
                },
                {
                    "name": "D4",
                    "midi": 62,
                    "time": 83.2849799999999,
                    "velocity": 0.4566929133858268,
                    "duration": 0.5810579999999987
                },
                {
                    "name": "G3",
                    "midi": 55,
                    "time": 83.6723519999999,
                    "velocity": 0.4094488188976378,
                    "duration": 0.19368599999999958
                },
                {
                    "name": "D#4",
                    "midi": 63,
                    "time": 83.8660379999999,
                    "velocity": 0.3937007874015748,
                    "duration": 0.19368599999999958
                },
                {
                    "name": "C4",
                    "midi": 60,
                    "time": 84.0597239999999,
                    "velocity": 0.4330708661417323,
                    "duration": 0.19368599999999958
                },
                {
                    "name": "D4",
                    "midi": 62,
                    "time": 84.2534099999999,
                    "velocity": 0.3937007874015748,
                    "duration": 0.19368599999999958
                },
                {
                    "name": "A#3",
                    "midi": 58,
                    "time": 84.4470959999999,
                    "velocity": 0.5039370078740157,
                    "duration": 0.19368599999999958
                },
                {
                    "name": "G4",
                    "midi": 67,
                    "time": 84.6407819999999,
                    "velocity": 0.4409448818897638,
                    "duration": 0.19368599999999958
                },
                {
                    "name": "G4",
                    "midi": 67,
                    "time": 84.8344679999999,
                    "velocity": 0.5039370078740157,
                    "duration": 0.38737199999999916
                },
                {
                    "name": "C4",
                    "midi": 60,
                    "time": 85.2218399999999,
                    "velocity": 0.4015748031496063,
                    "duration": 0.2905290000000065
                },
                {
                    "name": "G3",
                    "midi": 55,
                    "time": 85.2218399999999,
                    "velocity": 0.4015748031496063,
                    "duration": 0.2905290000000065
                },
                {
                    "name": "D#4",
                    "midi": 63,
                    "time": 85.2218399999999,
                    "velocity": 0.48031496062992124,
                    "duration": 0.2905290000000065
                },
                {
                    "name": "F#3",
                    "midi": 54,
                    "time": 85.60921199999991,
                    "velocity": 0.4251968503937008,
                    "duration": 0.38737199999999916
                },
                {
                    "name": "D4",
                    "midi": 62,
                    "time": 85.60921199999991,
                    "velocity": 0.5039370078740157,
                    "duration": 0.5810579999999987
                },
                {
                    "name": "A3",
                    "midi": 57,
                    "time": 85.60921199999991,
                    "velocity": 0.4251968503937008,
                    "duration": 0.38737199999999916
                },
                {
                    "name": "G3",
                    "midi": 55,
                    "time": 85.99658399999991,
                    "velocity": 0.44881889763779526,
                    "duration": 0.19368599999999958
                },
                {
                    "name": "D4",
                    "midi": 62,
                    "time": 86.19026999999991,
                    "velocity": 0.4409448818897638,
                    "duration": 0.19368599999999958
                },
                {
                    "name": "E4",
                    "midi": 64,
                    "time": 86.38395599999991,
                    "velocity": 0.4645669291338583,
                    "duration": 0.19368599999999958
                },
                {
                    "name": "F#4",
                    "midi": 66,
                    "time": 86.57764199999991,
                    "velocity": 0.49606299212598426,
                    "duration": 0.19368599999999958
                },
                {
                    "name": "G4",
                    "midi": 67,
                    "time": 86.77132799999991,
                    "velocity": 0.5196850393700787,
                    "duration": 0.19368599999999958
                },
                {
                    "name": "A4",
                    "midi": 69,
                    "time": 86.96501399999991,
                    "velocity": 0.5433070866141733,
                    "duration": 0.19368599999999958
                },
                {
                    "name": "A#4",
                    "midi": 70,
                    "time": 87.15869999999991,
                    "velocity": 0.5905511811023622,
                    "duration": 0.38737199999999916
                },
                {
                    "name": "A#4",
                    "midi": 70,
                    "time": 87.54607199999991,
                    "velocity": 0.5275590551181102,
                    "duration": 0.38737199999999916
                },
                {
                    "name": "G4",
                    "midi": 67,
                    "time": 87.54607199999991,
                    "velocity": 0.5275590551181102,
                    "duration": 0.38737199999999916
                },
                {
                    "name": "D5",
                    "midi": 74,
                    "time": 87.54607199999991,
                    "velocity": 0.6299212598425197,
                    "duration": 0.38737199999999916
                },
                {
                    "name": "A#4",
                    "midi": 70,
                    "time": 87.93344399999991,
                    "velocity": 0.5511811023622047,
                    "duration": 0.38737199999999916
                },
                {
                    "name": "G4",
                    "midi": 67,
                    "time": 87.93344399999991,
                    "velocity": 0.5511811023622047,
                    "duration": 0.38737199999999916
                },
                {
                    "name": "E5",
                    "midi": 76,
                    "time": 87.93344399999991,
                    "velocity": 0.6535433070866141,
                    "duration": 0.38737199999999916
                },
                {
                    "name": "C#5",
                    "midi": 73,
                    "time": 87.93344399999991,
                    "velocity": 0.5511811023622047,
                    "duration": 0.38737199999999916
                },
                {
                    "name": "F5",
                    "midi": 77,
                    "time": 88.32081599999991,
                    "velocity": 0.5826771653543307,
                    "duration": 0.19368599999999958
                },
                {
                    "name": "A4",
                    "midi": 69,
                    "time": 88.32081599999991,
                    "velocity": 0.4881889763779528,
                    "duration": 0.19368599999999958
                },
                {
                    "name": "D5",
                    "midi": 74,
                    "time": 88.32081599999991,
                    "velocity": 0.4881889763779528,
                    "duration": 0.19368599999999958
                },
                {
                    "name": "G5",
                    "midi": 79,
                    "time": 88.51450199999991,
                    "velocity": 0.5748031496062992,
                    "duration": 0.19368599999999958
                },
                {
                    "name": "E5",
                    "midi": 76,
                    "time": 88.70818799999991,
                    "velocity": 0.6299212598425197,
                    "duration": 0.19368599999999958
                },
                {
                    "name": "F5",
                    "midi": 77,
                    "time": 88.9018739999999,
                    "velocity": 0.5748031496062992,
                    "duration": 0.19368599999999958
                },
                {
                    "name": "D5",
                    "midi": 74,
                    "time": 89.0955599999999,
                    "velocity": 0.6929133858267716,
                    "duration": 0.19368599999999958
                },
                {
                    "name": "A#5",
                    "midi": 82,
                    "time": 89.2892459999999,
                    "velocity": 0.6299212598425197,
                    "duration": 0.19368599999999958
                },
                {
                    "name": "A#5",
                    "midi": 82,
                    "time": 89.4829319999999,
                    "velocity": 0.6929133858267716,
                    "duration": 0.38737199999999916
                },
                {
                    "name": "A#4",
                    "midi": 70,
                    "time": 89.8703039999999,
                    "velocity": 0.5275590551181102,
                    "duration": 0.38737199999999916
                },
                {
                    "name": "G4",
                    "midi": 67,
                    "time": 89.8703039999999,
                    "velocity": 0.5275590551181102,
                    "duration": 0.38737199999999916
                },
                {
                    "name": "D5",
                    "midi": 74,
                    "time": 89.8703039999999,
                    "velocity": 0.6299212598425197,
                    "duration": 0.38737199999999916
                },
                {
                    "name": "A#4",
                    "midi": 70,
                    "time": 90.2576759999999,
                    "velocity": 0.5511811023622047,
                    "duration": 0.38737199999999916
                },
                {
                    "name": "G4",
                    "midi": 67,
                    "time": 90.2576759999999,
                    "velocity": 0.5511811023622047,
                    "duration": 0.38737199999999916
                },
                {
                    "name": "E5",
                    "midi": 76,
                    "time": 90.2576759999999,
                    "velocity": 0.6535433070866141,
                    "duration": 0.38737199999999916
                },
                {
                    "name": "C#5",
                    "midi": 73,
                    "time": 90.2576759999999,
                    "velocity": 0.5511811023622047,
                    "duration": 0.38737199999999916
                },
                {
                    "name": "F5",
                    "midi": 77,
                    "time": 90.6450479999999,
                    "velocity": 0.5826771653543307,
                    "duration": 0.19368599999999958
                },
                {
                    "name": "A4",
                    "midi": 69,
                    "time": 90.6450479999999,
                    "velocity": 0.4881889763779528,
                    "duration": 0.19368599999999958
                },
                {
                    "name": "D5",
                    "midi": 74,
                    "time": 90.6450479999999,
                    "velocity": 0.4881889763779528,
                    "duration": 0.19368599999999958
                },
                {
                    "name": "G5",
                    "midi": 79,
                    "time": 90.8387339999999,
                    "velocity": 0.5748031496062992,
                    "duration": 0.19368599999999958
                },
                {
                    "name": "E5",
                    "midi": 76,
                    "time": 91.0324199999999,
                    "velocity": 0.6299212598425197,
                    "duration": 0.19368599999999958
                },
                {
                    "name": "F5",
                    "midi": 77,
                    "time": 91.2261059999999,
                    "velocity": 0.5748031496062992,
                    "duration": 0.19368599999999958
                },
                {
                    "name": "D5",
                    "midi": 74,
                    "time": 91.4197919999999,
                    "velocity": 0.6850393700787402,
                    "duration": 0.19368599999999958
                },
                {
                    "name": "A#5",
                    "midi": 82,
                    "time": 91.6134779999999,
                    "velocity": 0.6299212598425197,
                    "duration": 0.19368599999999958
                },
                {
                    "name": "A#5",
                    "midi": 82,
                    "time": 91.8071639999999,
                    "velocity": 0.7007874015748031,
                    "duration": 0.38737199999999916
                },
                {
                    "name": "D5",
                    "midi": 74,
                    "time": 92.1945359999999,
                    "velocity": 0.4881889763779528,
                    "duration": 0.2905290000000065
                },
                {
                    "name": "F4",
                    "midi": 65,
                    "time": 92.1945359999999,
                    "velocity": 0.4015748031496063,
                    "duration": 0.2905290000000065
                },
                {
                    "name": "A#4",
                    "midi": 70,
                    "time": 92.1945359999999,
                    "velocity": 0.4015748031496063,
                    "duration": 0.2905290000000065
                },
                {
                    "name": "A#4",
                    "midi": 70,
                    "time": 92.58190799999991,
                    "velocity": 0.4251968503937008,
                    "duration": 0.2905290000000065
                },
                {
                    "name": "F#4",
                    "midi": 66,
                    "time": 92.58190799999991,
                    "velocity": 0.4251968503937008,
                    "duration": 0.2905290000000065
                },
                {
                    "name": "D5",
                    "midi": 74,
                    "time": 92.58190799999991,
                    "velocity": 0.5039370078740157,
                    "duration": 0.2905290000000065
                },
                {
                    "name": "G4",
                    "midi": 67,
                    "time": 92.96927999999993,
                    "velocity": 0.4094488188976378,
                    "duration": 0.19368599999999958
                },
                {
                    "name": "C5",
                    "midi": 72,
                    "time": 92.96927999999993,
                    "velocity": 0.4881889763779528,
                    "duration": 0.19368599999999958
                },
                {
                    "name": "A#4",
                    "midi": 70,
                    "time": 92.96927999999993,
                    "velocity": 0.4094488188976378,
                    "duration": 0.19368599999999958
                },
                {
                    "name": "G5",
                    "midi": 79,
                    "time": 93.16296599999993,
                    "velocity": 0.5118110236220472,
                    "duration": 0.38737199999999916
                },
                {
                    "name": "D#5",
                    "midi": 75,
                    "time": 93.55033799999993,
                    "velocity": 0.4409448818897638,
                    "duration": 0.19368599999999958
                },
                {
                    "name": "C5",
                    "midi": 72,
                    "time": 93.74402399999992,
                    "velocity": 0.5196850393700787,
                    "duration": 0.19368599999999958
                },
                {
                    "name": "A#4",
                    "midi": 70,
                    "time": 93.93770999999992,
                    "velocity": 0.4251968503937008,
                    "duration": 0.19368599999999958
                },
                {
                    "name": "A4",
                    "midi": 69,
                    "time": 94.13139599999992,
                    "velocity": 0.48031496062992124,
                    "duration": 0.19368599999999958
                },
                {
                    "name": "D#5",
                    "midi": 75,
                    "time": 94.32508199999992,
                    "velocity": 0.5354330708661418,
                    "duration": 0.38737199999999916
                },
                {
                    "name": "C5",
                    "midi": 72,
                    "time": 94.71245399999992,
                    "velocity": 0.3700787401574803,
                    "duration": 0.19368599999999958
                },
                {
                    "name": "A4",
                    "midi": 69,
                    "time": 94.90613999999992,
                    "velocity": 0.44881889763779526,
                    "duration": 0.19368599999999958
                },
                {
                    "name": "G4",
                    "midi": 67,
                    "time": 95.09982599999992,
                    "velocity": 0.3543307086614173,
                    "duration": 0.19368599999999958
                },
                {
                    "name": "A4",
                    "midi": 69,
                    "time": 95.29351199999992,
                    "velocity": 0.4094488188976378,
                    "duration": 0.0968430000000069
                },
                {
                    "name": "D5",
                    "midi": 74,
                    "time": 95.39035499999993,
                    "velocity": 0.33858267716535434,
                    "duration": 0.19368599999999958
                },
                {
                    "name": "G4",
                    "midi": 67,
                    "time": 95.68088399999993,
                    "velocity": 0.3543307086614173,
                    "duration": 0.38737199999999916
                },
                {
                    "name": "C4",
                    "midi": 60,
                    "time": 95.68088399999993,
                    "velocity": 0.2992125984251969,
                    "duration": 0.38737199999999916
                },
                {
                    "name": "D#4",
                    "midi": 63,
                    "time": 95.68088399999993,
                    "velocity": 0.2992125984251969,
                    "duration": 0.38737199999999916
                },
                {
                    "name": "D#4",
                    "midi": 63,
                    "time": 96.06825599999993,
                    "velocity": 0.31496062992125984,
                    "duration": 0.38737199999999916
                },
                {
                    "name": "F#4",
                    "midi": 66,
                    "time": 96.06825599999993,
                    "velocity": 0.31496062992125984,
                    "duration": 0.38737199999999916
                },
                {
                    "name": "C4",
                    "midi": 60,
                    "time": 96.06825599999993,
                    "velocity": 0.31496062992125984,
                    "duration": 0.38737199999999916
                },
                {
                    "name": "A4",
                    "midi": 69,
                    "time": 96.06825599999993,
                    "velocity": 0.3779527559055118,
                    "duration": 0.38737199999999916
                },
                {
                    "name": "D4",
                    "midi": 62,
                    "time": 96.45562799999993,
                    "velocity": 0.3779527559055118,
                    "duration": 0.19368599999999958
                },
                {
                    "name": "A#4",
                    "midi": 70,
                    "time": 96.45562799999993,
                    "velocity": 0.44881889763779526,
                    "duration": 0.19368599999999958
                },
                {
                    "name": "C5",
                    "midi": 72,
                    "time": 96.64931399999993,
                    "velocity": 0.3700787401574803,
                    "duration": 0.19368599999999958
                },
                {
                    "name": "A4",
                    "midi": 69,
                    "time": 96.84299999999993,
                    "velocity": 0.4015748031496063,
                    "duration": 0.19368599999999958
                },
                {
                    "name": "A#4",
                    "midi": 70,
                    "time": 97.03668599999993,
                    "velocity": 0.3700787401574803,
                    "duration": 0.19368599999999958
                },
                {
                    "name": "G4",
                    "midi": 67,
                    "time": 97.23037199999993,
                    "velocity": 0.48031496062992124,
                    "duration": 0.19368599999999958
                },
                {
                    "name": "D5",
                    "midi": 74,
                    "time": 97.42405799999993,
                    "velocity": 0.4251968503937008,
                    "duration": 0.19368599999999958
                },
                {
                    "name": "D5",
                    "midi": 74,
                    "time": 97.61774399999993,
                    "velocity": 0.5196850393700787,
                    "duration": 0.38737199999999916
                },
                {
                    "name": "C4",
                    "midi": 60,
                    "time": 98.00511599999993,
                    "velocity": 0.31496062992125984,
                    "duration": 0.192071949999999
                },
                {
                    "name": "D#4",
                    "midi": 63,
                    "time": 98.00511599999993,
                    "velocity": 0.31496062992125984,
                    "duration": 0.192071949999999
                },
                {
                    "name": "G4",
                    "midi": 67,
                    "time": 98.00511599999993,
                    "velocity": 0.3700787401574803,
                    "duration": 0.192071949999999
                },
                {
                    "name": "D#4",
                    "midi": 63,
                    "time": 98.39248799999993,
                    "velocity": 0.33070866141732286,
                    "duration": 0.38737199999999916
                },
                {
                    "name": "F#4",
                    "midi": 66,
                    "time": 98.39248799999993,
                    "velocity": 0.33070866141732286,
                    "duration": 0.38737199999999916
                },
                {
                    "name": "C4",
                    "midi": 60,
                    "time": 98.39248799999993,
                    "velocity": 0.33070866141732286,
                    "duration": 0.38737199999999916
                },
                {
                    "name": "A4",
                    "midi": 69,
                    "time": 98.39248799999993,
                    "velocity": 0.3937007874015748,
                    "duration": 0.38737199999999916
                },
                {
                    "name": "A#4",
                    "midi": 70,
                    "time": 98.77985999999993,
                    "velocity": 0.4645669291338583,
                    "duration": 0.19368599999999958
                },
                {
                    "name": "D4",
                    "midi": 62,
                    "time": 98.77985999999993,
                    "velocity": 0.3937007874015748,
                    "duration": 0.19368599999999958
                },
                {
                    "name": "C5",
                    "midi": 72,
                    "time": 98.97354599999993,
                    "velocity": 0.3858267716535433,
                    "duration": 0.19368599999999958
                },
                {
                    "name": "A4",
                    "midi": 69,
                    "time": 99.16723199999993,
                    "velocity": 0.41732283464566927,
                    "duration": 0.19368599999999958
                },
                {
                    "name": "A#4",
                    "midi": 70,
                    "time": 99.36091799999993,
                    "velocity": 0.3858267716535433,
                    "duration": 0.19368599999999958
                },
                {
                    "name": "G4",
                    "midi": 67,
                    "time": 99.55460399999993,
                    "velocity": 0.5118110236220472,
                    "duration": 0.19368599999999958
                },
                {
                    "name": "D#5",
                    "midi": 75,
                    "time": 99.74828999999993,
                    "velocity": 0.4566929133858268,
                    "duration": 0.19368599999999958
                },
                {
                    "name": "D#5",
                    "midi": 75,
                    "time": 99.94197599999993,
                    "velocity": 0.5354330708661418,
                    "duration": 0.38737199999999916
                },
                {
                    "name": "D#4",
                    "midi": 63,
                    "time": 100.32934799999992,
                    "velocity": 0.3700787401574803,
                    "duration": 0.192071949999999
                },
                {
                    "name": "C4",
                    "midi": 60,
                    "time": 100.32934799999992,
                    "velocity": 0.3700787401574803,
                    "duration": 0.192071949999999
                },
                {
                    "name": "G4",
                    "midi": 67,
                    "time": 100.32934799999992,
                    "velocity": 0.4409448818897638,
                    "duration": 0.192071949999999
                },
                {
                    "name": "C4",
                    "midi": 60,
                    "time": 100.71671999999992,
                    "velocity": 0.3858267716535433,
                    "duration": 0.38737199999999916
                },
                {
                    "name": "A4",
                    "midi": 69,
                    "time": 100.71671999999992,
                    "velocity": 0.4645669291338583,
                    "duration": 0.5810579999999987
                },
                {
                    "name": "D#4",
                    "midi": 63,
                    "time": 100.71671999999992,
                    "velocity": 0.3858267716535433,
                    "duration": 0.38737199999999916
                },
                {
                    "name": "D4",
                    "midi": 62,
                    "time": 101.10409199999992,
                    "velocity": 0.4094488188976378,
                    "duration": 0.19368599999999958
                },
                {
                    "name": "A#4",
                    "midi": 70,
                    "time": 101.29777799999992,
                    "velocity": 0.4015748031496063,
                    "duration": 0.19368599999999958
                },
                {
                    "name": "G4",
                    "midi": 67,
                    "time": 101.49146399999992,
                    "velocity": 0.4409448818897638,
                    "duration": 0.19368599999999958
                },
                {
                    "name": "A4",
                    "midi": 69,
                    "time": 101.68514999999992,
                    "velocity": 0.4015748031496063,
                    "duration": 0.19368599999999958
                },
                {
                    "name": "F4",
                    "midi": 65,
                    "time": 101.87883599999992,
                    "velocity": 0.49606299212598426,
                    "duration": 0.19368599999999958
                },
                {
                    "name": "D5",
                    "midi": 74,
                    "time": 102.07252199999992,
                    "velocity": 0.4409448818897638,
                    "duration": 0.19368599999999958
                },
                {
                    "name": "D5",
                    "midi": 74,
                    "time": 102.26620799999992,
                    "velocity": 0.5275590551181102,
                    "duration": 0.38737199999999916
                },
                {
                    "name": "F4",
                    "midi": 65,
                    "time": 102.65357999999992,
                    "velocity": 0.4409448818897638,
                    "duration": 0.192071949999999
                },
                {
                    "name": "A#3",
                    "midi": 58,
                    "time": 102.65357999999992,
                    "velocity": 0.3700787401574803,
                    "duration": 0.192071949999999
                },
                {
                    "name": "D4",
                    "midi": 62,
                    "time": 102.65357999999992,
                    "velocity": 0.3700787401574803,
                    "duration": 0.192071949999999
                },
                {
                    "name": "D4",
                    "midi": 62,
                    "time": 103.04095199999992,
                    "velocity": 0.3858267716535433,
                    "duration": 0.38737199999999916
                },
                {
                    "name": "A#3",
                    "midi": 58,
                    "time": 103.04095199999992,
                    "velocity": 0.3858267716535433,
                    "duration": 0.38737199999999916
                },
                {
                    "name": "G4",
                    "midi": 67,
                    "time": 103.04095199999992,
                    "velocity": 0.4645669291338583,
                    "duration": 0.5810579999999987
                },
                {
                    "name": "C4",
                    "midi": 60,
                    "time": 103.42832399999992,
                    "velocity": 0.4094488188976378,
                    "duration": 0.19368599999999958
                },
                {
                    "name": "A4",
                    "midi": 69,
                    "time": 103.62200999999992,
                    "velocity": 0.4015748031496063,
                    "duration": 0.19368599999999958
                },
                {
                    "name": "F4",
                    "midi": 65,
                    "time": 103.81569599999992,
                    "velocity": 0.4409448818897638,
                    "duration": 0.19368599999999958
                },
                {
                    "name": "G4",
                    "midi": 67,
                    "time": 104.00938199999992,
                    "velocity": 0.4015748031496063,
                    "duration": 0.19368599999999958
                },
                {
                    "name": "D#4",
                    "midi": 63,
                    "time": 104.20306799999992,
                    "velocity": 0.5196850393700787,
                    "duration": 0.19368599999999958
                },
                {
                    "name": "C5",
                    "midi": 72,
                    "time": 104.39675399999992,
                    "velocity": 0.4881889763779528,
                    "duration": 0.19368599999999958
                },
                {
                    "name": "C5",
                    "midi": 72,
                    "time": 104.59043999999992,
                    "velocity": 0.5275590551181102,
                    "duration": 0.38737199999999916
                },
                {
                    "name": "C4",
                    "midi": 60,
                    "time": 104.97781199999991,
                    "velocity": 0.3700787401574803,
                    "duration": 0.192071949999999
                },
                {
                    "name": "G3",
                    "midi": 55,
                    "time": 104.97781199999991,
                    "velocity": 0.3700787401574803,
                    "duration": 0.192071949999999
                },
                {
                    "name": "D#4",
                    "midi": 63,
                    "time": 104.97781199999991,
                    "velocity": 0.4409448818897638,
                    "duration": 0.192071949999999
                },
                {
                    "name": "F#3",
                    "midi": 54,
                    "time": 105.36518399999991,
                    "velocity": 0.3858267716535433,
                    "duration": 0.38737199999999916
                },
                {
                    "name": "D4",
                    "midi": 62,
                    "time": 105.36518399999991,
                    "velocity": 0.4566929133858268,
                    "duration": 0.5810579999999987
                },
                {
                    "name": "A3",
                    "midi": 57,
                    "time": 105.36518399999991,
                    "velocity": 0.3858267716535433,
                    "duration": 0.38737199999999916
                },
                {
                    "name": "G3",
                    "midi": 55,
                    "time": 105.75255599999991,
                    "velocity": 0.4094488188976378,
                    "duration": 0.19368599999999958
                },
                {
                    "name": "D#4",
                    "midi": 63,
                    "time": 105.94624199999991,
                    "velocity": 0.3937007874015748,
                    "duration": 0.19368599999999958
                },
                {
                    "name": "C4",
                    "midi": 60,
                    "time": 106.13992799999991,
                    "velocity": 0.4330708661417323,
                    "duration": 0.19368599999999958
                },
                {
                    "name": "D4",
                    "midi": 62,
                    "time": 106.33361399999991,
                    "velocity": 0.3937007874015748,
                    "duration": 0.19368599999999958
                },
                {
                    "name": "A#3",
                    "midi": 58,
                    "time": 106.52729999999991,
                    "velocity": 0.5275590551181102,
                    "duration": 0.19368599999999958
                },
                {
                    "name": "G4",
                    "midi": 67,
                    "time": 106.72098599999991,
                    "velocity": 0.48031496062992124,
                    "duration": 0.19368599999999958
                },
                {
                    "name": "G4",
                    "midi": 67,
                    "time": 106.91467199999991,
                    "velocity": 0.5433070866141733,
                    "duration": 0.38737199999999916
                },
                {
                    "name": "G3",
                    "midi": 55,
                    "time": 107.30204399999991,
                    "velocity": 0.4015748031496063,
                    "duration": 0.192071949999999
                },
                {
                    "name": "C4",
                    "midi": 60,
                    "time": 107.30204399999991,
                    "velocity": 0.4015748031496063,
                    "duration": 0.192071949999999
                },
                {
                    "name": "D#4",
                    "midi": 63,
                    "time": 107.30204399999991,
                    "velocity": 0.48031496062992124,
                    "duration": 0.192071949999999
                },
                {
                    "name": "A3",
                    "midi": 57,
                    "time": 107.68941599999991,
                    "velocity": 0.3779527559055118,
                    "duration": 0.38737199999999916
                },
                {
                    "name": "F#3",
                    "midi": 54,
                    "time": 107.68941599999991,
                    "velocity": 0.3779527559055118,
                    "duration": 0.38737199999999916
                },
                {
                    "name": "D4",
                    "midi": 62,
                    "time": 107.68941599999991,
                    "velocity": 0.44881889763779526,
                    "duration": 0.7747439999999983
                },
                {
                    "name": "G3",
                    "midi": 55,
                    "time": 108.07678799999991,
                    "velocity": 0.3937007874015748,
                    "duration": 0.38737199999999916
                },
                {
                    "name": "F3",
                    "midi": 53,
                    "time": 108.46415999999991,
                    "velocity": 0.47244094488188976,
                    "duration": 0.19368599999999958
                },
                {
                    "name": "A#3",
                    "midi": 58,
                    "time": 108.46415999999991,
                    "velocity": 0.47244094488188976,
                    "duration": 0.19368599999999958
                },
                {
                    "name": "D4",
                    "midi": 62,
                    "time": 108.46415999999991,
                    "velocity": 0.5590551181102362,
                    "duration": 0.19368599999999958
                },
                {
                    "name": "F3",
                    "midi": 53,
                    "time": 108.8515319999999,
                    "velocity": 0.49606299212598426,
                    "duration": 0.19368599999999958
                },
                {
                    "name": "C4",
                    "midi": 60,
                    "time": 108.8515319999999,
                    "velocity": 0.49606299212598426,
                    "duration": 0.19368599999999958
                },
                {
                    "name": "F4",
                    "midi": 65,
                    "time": 108.8515319999999,
                    "velocity": 0.5905511811023622,
                    "duration": 0.19368599999999958
                },
                {
                    "name": "F4",
                    "midi": 65,
                    "time": 109.2389039999999,
                    "velocity": 0.5275590551181102,
                    "duration": 0.0968430000000069
                },
                {
                    "name": "D4",
                    "midi": 62,
                    "time": 109.2389039999999,
                    "velocity": 0.5275590551181102,
                    "duration": 0.0968430000000069
                },
                {
                    "name": "A#4",
                    "midi": 70,
                    "time": 109.2389039999999,
                    "velocity": 0.6220472440944882,
                    "duration": 0.0968430000000069
                },
                {
                    "name": "A#4",
                    "midi": 70,
                    "time": 109.43258999999992,
                    "velocity": 0.5039370078740157,
                    "duration": 0.19368599999999958
                },
                {
                    "name": "F4",
                    "midi": 65,
                    "time": 109.62627599999992,
                    "velocity": 0.5669291338582677,
                    "duration": 0.19368599999999958
                },
                {
                    "name": "G4",
                    "midi": 67,
                    "time": 109.81996199999992,
                    "velocity": 0.5275590551181102,
                    "duration": 0.19368599999999958
                },
                {
                    "name": "A#3",
                    "midi": 58,
                    "time": 110.01364799999992,
                    "velocity": 0.5984251968503937,
                    "duration": 0.2905290000000065
                },
                {
                    "name": "A#4",
                    "midi": 70,
                    "time": 110.30417699999992,
                    "velocity": 0.5196850393700787,
                    "duration": 0.0968430000000069
                },
                {
                    "name": "A#4",
                    "midi": 70,
                    "time": 110.40101999999993,
                    "velocity": 0.6141732283464567,
                    "duration": 0.38737199999999916
                },
                {
                    "name": "D4",
                    "midi": 62,
                    "time": 110.78839199999993,
                    "velocity": 0.5433070866141733,
                    "duration": 0.19368599999999958
                },
                {
                    "name": "F4",
                    "midi": 65,
                    "time": 110.78839199999993,
                    "velocity": 0.5433070866141733,
                    "duration": 0.19368599999999958
                },
                {
                    "name": "A#4",
                    "midi": 70,
                    "time": 110.78839199999993,
                    "velocity": 0.6377952755905512,
                    "duration": 0.19368599999999958
                },
                {
                    "name": "F4",
                    "midi": 65,
                    "time": 111.17576399999993,
                    "velocity": 0.5669291338582677,
                    "duration": 0.19368599999999958
                },
                {
                    "name": "A#4",
                    "midi": 70,
                    "time": 111.17576399999993,
                    "velocity": 0.5669291338582677,
                    "duration": 0.19368599999999958
                },
                {
                    "name": "D5",
                    "midi": 74,
                    "time": 111.17576399999993,
                    "velocity": 0.6771653543307087,
                    "duration": 0.19368599999999958
                },
                {
                    "name": "D5",
                    "midi": 74,
                    "time": 111.56313599999993,
                    "velocity": 0.6062992125984252,
                    "duration": 0.0968430000000069
                },
                {
                    "name": "G#4",
                    "midi": 68,
                    "time": 111.56313599999993,
                    "velocity": 0.6062992125984252,
                    "duration": 0.0968430000000069
                },
                {
                    "name": "F5",
                    "midi": 77,
                    "time": 111.56313599999993,
                    "velocity": 0.7086614173228346,
                    "duration": 0.0968430000000069
                },
                {
                    "name": "F5",
                    "midi": 77,
                    "time": 111.75682199999994,
                    "velocity": 0.5748031496062992,
                    "duration": 0.19368599999999958
                },
                {
                    "name": "C5",
                    "midi": 72,
                    "time": 111.95050799999994,
                    "velocity": 0.6456692913385826,
                    "duration": 0.19368599999999958
                },
                {
                    "name": "D5",
                    "midi": 74,
                    "time": 112.14419399999994,
                    "velocity": 0.6062992125984252,
                    "duration": 0.19368599999999958
                },
                {
                    "name": "G#4",
                    "midi": 68,
                    "time": 112.33787999999994,
                    "velocity": 0.6850393700787402,
                    "duration": 0.2905290000000065
                },
                {
                    "name": "G#5",
                    "midi": 80,
                    "time": 112.62840899999995,
                    "velocity": 0.5905511811023622,
                    "duration": 0.0968430000000069
                },
                {
                    "name": "G#5",
                    "midi": 80,
                    "time": 112.72525199999995,
                    "velocity": 0.7007874015748031,
                    "duration": 0.38737199999999916
                },
                {
                    "name": "G#4",
                    "midi": 68,
                    "time": 113.11262399999995,
                    "velocity": 0.6456692913385826,
                    "duration": 0.19368599999999958
                },
                {
                    "name": "C5",
                    "midi": 72,
                    "time": 113.11262399999995,
                    "velocity": 0.6456692913385826,
                    "duration": 0.19368599999999958
                },
                {
                    "name": "G#5",
                    "midi": 80,
                    "time": 113.11262399999995,
                    "velocity": 0.7637795275590551,
                    "duration": 0.19368599999999958
                },
                {
                    "name": "C5",
                    "midi": 72,
                    "time": 113.49999599999995,
                    "velocity": 0.7007874015748031,
                    "duration": 0.19368599999999958
                },
                {
                    "name": "F5",
                    "midi": 77,
                    "time": 113.49999599999995,
                    "velocity": 0.7007874015748031,
                    "duration": 0.19368599999999958
                },
                {
                    "name": "C6",
                    "midi": 84,
                    "time": 113.49999599999995,
                    "velocity": 0.8346456692913385,
                    "duration": 0.19368599999999958
                },
                {
                    "name": "A#5",
                    "midi": 82,
                    "time": 113.88736799999995,
                    "velocity": 0.7716535433070866,
                    "duration": 0.0968430000000069
                },
                {
                    "name": "F5",
                    "midi": 77,
                    "time": 113.88736799999995,
                    "velocity": 0.7716535433070866,
                    "duration": 0.0968430000000069
                },
                {
                    "name": "F6",
                    "midi": 89,
                    "time": 113.88736799999995,
                    "velocity": 0.905511811023622,
                    "duration": 0.0968430000000069
                },
                {
                    "name": "F6",
                    "midi": 89,
                    "time": 114.08105399999997,
                    "velocity": 0.5511811023622047,
                    "duration": 0.19368599999999958
                },
                {
                    "name": "A#5",
                    "midi": 82,
                    "time": 114.27473999999997,
                    "velocity": 0.6062992125984252,
                    "duration": 0.19368599999999958
                },
                {
                    "name": "C6",
                    "midi": 84,
                    "time": 114.46842599999997,
                    "velocity": 0.5433070866141733,
                    "duration": 0.19368599999999958
                },
                {
                    "name": "F5",
                    "midi": 77,
                    "time": 114.66211199999996,
                    "velocity": 0.5984251968503937,
                    "duration": 0.14526449999999613
                },
                {
                    "name": "F5",
                    "midi": 77,
                    "time": 114.85579799999996,
                    "velocity": 0.5196850393700787,
                    "duration": 0.19368599999999958
                },
                {
                    "name": "A#4",
                    "midi": 70,
                    "time": 115.04948399999996,
                    "velocity": 0.6220472440944882,
                    "duration": 0.19368599999999958
                },
                {
                    "name": "C5",
                    "midi": 72,
                    "time": 115.24316999999996,
                    "velocity": 0.5039370078740157,
                    "duration": 0.19368599999999958
                },
                {
                    "name": "F4",
                    "midi": 65,
                    "time": 115.43685599999996,
                    "velocity": 0.5826771653543307,
                    "duration": 0.14526449999999613
                },
                {
                    "name": "F4",
                    "midi": 65,
                    "time": 115.63054199999996,
                    "velocity": 0.5118110236220472,
                    "duration": 0.19368599999999958
                },
                {
                    "name": "A#3",
                    "midi": 58,
                    "time": 115.82422799999996,
                    "velocity": 0.5905511811023622,
                    "duration": 0.19368599999999958
                },
                {
                    "name": "C4",
                    "midi": 60,
                    "time": 116.01791399999996,
                    "velocity": 0.5354330708661418,
                    "duration": 0.19368599999999958
                },
                {
                    "name": "F3",
                    "midi": 53,
                    "time": 116.21159999999996,
                    "velocity": 0.5826771653543307,
                    "duration": 0.7747439999999983
                },
                {
                    "name": "F4",
                    "midi": 65,
                    "time": 116.40528599999996,
                    "velocity": 0.4251968503937008,
                    "duration": 0.19368599999999958
                },
                {
                    "name": "A#3",
                    "midi": 58,
                    "time": 116.59897199999996,
                    "velocity": 0.47244094488188976,
                    "duration": 0.19368599999999958
                },
                {
                    "name": "C4",
                    "midi": 60,
                    "time": 116.79265799999996,
                    "velocity": 0.4251968503937008,
                    "duration": 0.19368599999999958
                },
                {
                    "name": "F#3",
                    "midi": 54,
                    "time": 116.98634399999996,
                    "velocity": 0.5826771653543307,
                    "duration": 0.7747439999999983
                },
                {
                    "name": "F#4",
                    "midi": 66,
                    "time": 117.18002999999996,
                    "velocity": 0.4251968503937008,
                    "duration": 0.19368599999999958
                },
                {
                    "name": "A#3",
                    "midi": 58,
                    "time": 117.37371599999996,
                    "velocity": 0.47244094488188976,
                    "duration": 0.19368599999999958
                },
                {
                    "name": "C4",
                    "midi": 60,
                    "time": 117.56740199999996,
                    "velocity": 0.4330708661417323,
                    "duration": 0.19368599999999958
                },
                {
                    "name": "G3",
                    "midi": 55,
                    "time": 117.76108799999996,
                    "velocity": 0.5826771653543307,
                    "duration": 0.7747439999999983
                },
                {
                    "name": "G4",
                    "midi": 67,
                    "time": 117.95477399999996,
                    "velocity": 0.4251968503937008,
                    "duration": 0.19368599999999958
                },
                {
                    "name": "C4",
                    "midi": 60,
                    "time": 118.14845999999996,
                    "velocity": 0.47244094488188976,
                    "duration": 0.19368599999999958
                },
                {
                    "name": "C#4",
                    "midi": 61,
                    "time": 118.34214599999996,
                    "velocity": 0.4330708661417323,
                    "duration": 0.19368599999999958
                },
                {
                    "name": "G#3",
                    "midi": 56,
                    "time": 118.53583199999996,
                    "velocity": 0.5826771653543307,
                    "duration": 0.7747439999999983
                },
                {
                    "name": "G#4",
                    "midi": 68,
                    "time": 118.72951799999996,
                    "velocity": 0.4330708661417323,
                    "duration": 0.19368599999999958
                },
                {
                    "name": "D4",
                    "midi": 62,
                    "time": 118.92320399999996,
                    "velocity": 0.47244094488188976,
                    "duration": 0.19368599999999958
                },
                {
                    "name": "D#4",
                    "midi": 63,
                    "time": 119.11688999999996,
                    "velocity": 0.4330708661417323,
                    "duration": 0.19368599999999958
                },
                {
                    "name": "A3",
                    "midi": 57,
                    "time": 119.31057599999995,
                    "velocity": 0.5826771653543307,
                    "duration": 0.7747439999999983
                },
                {
                    "name": "A4",
                    "midi": 69,
                    "time": 119.50426199999995,
                    "velocity": 0.4251968503937008,
                    "duration": 0.19368599999999958
                },
                {
                    "name": "D4",
                    "midi": 62,
                    "time": 119.69794799999995,
                    "velocity": 0.47244094488188976,
                    "duration": 0.19368599999999958
                },
                {
                    "name": "D#4",
                    "midi": 63,
                    "time": 119.89163399999995,
                    "velocity": 0.4251968503937008,
                    "duration": 0.19368599999999958
                },
                {
                    "name": "A#3",
                    "midi": 58,
                    "time": 120.08531999999995,
                    "velocity": 0.5826771653543307,
                    "duration": 0.38737199999999916
                },
                {
                    "name": "A#4",
                    "midi": 70,
                    "time": 120.27900599999995,
                    "velocity": 0.4251968503937008,
                    "duration": 0.19368599999999958
                },
                {
                    "name": "B3",
                    "midi": 59,
                    "time": 120.47269199999995,
                    "velocity": 0.5511811023622047,
                    "duration": 0.38737199999999916
                },
                {
                    "name": "B4",
                    "midi": 71,
                    "time": 120.66637799999995,
                    "velocity": 0.4330708661417323,
                    "duration": 0.19368599999999958
                },
                {
                    "name": "C4",
                    "midi": 60,
                    "time": 120.86006399999995,
                    "velocity": 0.5984251968503937,
                    "duration": 0.7747439999999983
                },
                {
                    "name": "C5",
                    "midi": 72,
                    "time": 121.05374999999995,
                    "velocity": 0.4330708661417323,
                    "duration": 0.19368599999999958
                },
                {
                    "name": "F4",
                    "midi": 65,
                    "time": 121.24743599999995,
                    "velocity": 0.49606299212598426,
                    "duration": 0.19368599999999958
                },
                {
                    "name": "F#4",
                    "midi": 66,
                    "time": 121.44112199999995,
                    "velocity": 0.4409448818897638,
                    "duration": 0.19368599999999958
                },
                {
                    "name": "D4",
                    "midi": 62,
                    "time": 121.63480799999995,
                    "velocity": 0.6220472440944882,
                    "duration": 0.7747439999999983
                },
                {
                    "name": "D5",
                    "midi": 74,
                    "time": 121.82849399999995,
                    "velocity": 0.4566929133858268,
                    "duration": 0.19368599999999958
                },
                {
                    "name": "F4",
                    "midi": 65,
                    "time": 122.02217999999995,
                    "velocity": 0.5118110236220472,
                    "duration": 0.19368599999999958
                },
                {
                    "name": "F#4",
                    "midi": 66,
                    "time": 122.21586599999995,
                    "velocity": 0.4566929133858268,
                    "duration": 0.19368599999999958
                },
                {
                    "name": "D#4",
                    "midi": 63,
                    "time": 122.40955199999995,
                    "velocity": 0.6456692913385826,
                    "duration": 0.7747439999999983
                },
                {
                    "name": "D#5",
                    "midi": 75,
                    "time": 122.60323799999995,
                    "velocity": 0.4645669291338583,
                    "duration": 0.19368599999999958
                },
                {
                    "name": "B4",
                    "midi": 71,
                    "time": 122.79692399999995,
                    "velocity": 0.5275590551181102,
                    "duration": 0.19368599999999958
                },
                {
                    "name": "C5",
                    "midi": 72,
                    "time": 122.99060999999995,
                    "velocity": 0.47244094488188976,
                    "duration": 0.19368599999999958
                },
                {
                    "name": "G4",
                    "midi": 67,
                    "time": 123.18429599999995,
                    "velocity": 0.6220472440944882,
                    "duration": 0.7747439999999983
                },
                {
                    "name": "G5",
                    "midi": 79,
                    "time": 123.37798199999995,
                    "velocity": 0.4881889763779528,
                    "duration": 0.19368599999999958
                },
                {
                    "name": "D5",
                    "midi": 74,
                    "time": 123.57166799999995,
                    "velocity": 0.5433070866141733,
                    "duration": 0.19368599999999958
                },
                {
                    "name": "D#5",
                    "midi": 75,
                    "time": 123.76535399999995,
                    "velocity": 0.47244094488188976,
                    "duration": 0.19368599999999958
                },
                {
                    "name": "F4",
                    "midi": 65,
                    "time": 123.95903999999994,
                    "velocity": 0.5826771653543307,
                    "duration": 0.7747439999999983
                },
                {
                    "name": "F5",
                    "midi": 77,
                    "time": 124.15272599999994,
                    "velocity": 0.4881889763779528,
                    "duration": 0.19368599999999958
                },
                {
                    "name": "C#5",
                    "midi": 73,
                    "time": 124.34641199999994,
                    "velocity": 0.5196850393700787,
                    "duration": 0.19368599999999958
                },
                {
                    "name": "D5",
                    "midi": 74,
                    "time": 124.54009799999994,
                    "velocity": 0.47244094488188976,
                    "duration": 0.19368599999999958
                },
                {
                    "name": "D#4",
                    "midi": 63,
                    "time": 124.73378399999994,
                    "velocity": 0.5590551181102362,
                    "duration": 0.7747440000000125
                },
                {
                    "name": "D#5",
                    "midi": 75,
                    "time": 124.92746999999994,
                    "velocity": 0.44881889763779526,
                    "duration": 0.19368599999999958
                },
                {
                    "name": "D5",
                    "midi": 74,
                    "time": 125.12115599999994,
                    "velocity": 0.44881889763779526,
                    "duration": 0.04842150000000345
                },
                {
                    "name": "D#5",
                    "midi": 75,
                    "time": 125.16957749999995,
                    "velocity": 0.4409448818897638,
                    "duration": 0.04842150000000345
                },
                {
                    "name": "D5",
                    "midi": 74,
                    "time": 125.21799899999995,
                    "velocity": 0.48031496062992124,
                    "duration": 0.0968430000000069
                },
                {
                    "name": "C5",
                    "midi": 72,
                    "time": 125.31484199999996,
                    "velocity": 0.4409448818897638,
                    "duration": 0.19368599999999958
                },
                {
                    "name": "F4",
                    "midi": 65,
                    "time": 125.50852799999996,
                    "velocity": 0.5196850393700787,
                    "duration": 0.7747439999999983
                },
                {
                    "name": "F5",
                    "midi": 77,
                    "time": 125.70221399999996,
                    "velocity": 0.44881889763779526,
                    "duration": 0.19368599999999958
                },
                {
                    "name": "A#4",
                    "midi": 70,
                    "time": 125.89589999999995,
                    "velocity": 0.48031496062992124,
                    "duration": 0.19368599999999958
                },
                {
                    "name": "C5",
                    "midi": 72,
                    "time": 126.08958599999995,
                    "velocity": 0.4409448818897638,
                    "duration": 0.19368599999999958
                },
                {
                    "name": "F#4",
                    "midi": 66,
                    "time": 126.28327199999995,
                    "velocity": 0.5354330708661418,
                    "duration": 0.7747439999999983
                },
                {
                    "name": "F#5",
                    "midi": 78,
                    "time": 126.47695799999995,
                    "velocity": 0.4409448818897638,
                    "duration": 0.19368599999999958
                },
                {
                    "name": "A#4",
                    "midi": 70,
                    "time": 126.67064399999995,
                    "velocity": 0.49606299212598426,
                    "duration": 0.19368599999999958
                },
                {
                    "name": "C5",
                    "midi": 72,
                    "time": 126.86432999999995,
                    "velocity": 0.4409448818897638,
                    "duration": 0.19368599999999958
                },
                {
                    "name": "G4",
                    "midi": 67,
                    "time": 127.05801599999995,
                    "velocity": 0.5590551181102362,
                    "duration": 0.7747439999999983
                },
                {
                    "name": "G5",
                    "midi": 79,
                    "time": 127.25170199999995,
                    "velocity": 0.4645669291338583,
                    "duration": 0.19368599999999958
                },
                {
                    "name": "C5",
                    "midi": 72,
                    "time": 127.44538799999995,
                    "velocity": 0.5354330708661418,
                    "duration": 0.19368599999999958
                },
                {
                    "name": "C#5",
                    "midi": 73,
                    "time": 127.63907399999995,
                    "velocity": 0.4566929133858268,
                    "duration": 0.19368599999999958
                },
                {
                    "name": "G#4",
                    "midi": 68,
                    "time": 127.83275999999995,
                    "velocity": 0.5826771653543307,
                    "duration": 0.7747440000000552
                },
                {
                    "name": "G#5",
                    "midi": 80,
                    "time": 128.02644599999996,
                    "velocity": 0.4251968503937008,
                    "duration": 0.1936860000000138
                },
                {
                    "name": "D5",
                    "midi": 74,
                    "time": 128.22013199999998,
                    "velocity": 0.5354330708661418,
                    "duration": 0.1936860000000138
                },
                {
                    "name": "D#5",
                    "midi": 75,
                    "time": 128.413818,
                    "velocity": 0.49606299212598426,
                    "duration": 0.1936860000000138
                },
                {
                    "name": "A4",
                    "midi": 69,
                    "time": 128.607504,
                    "velocity": 0.5984251968503937,
                    "duration": 0.7747440000000552
                },
                {
                    "name": "A5",
                    "midi": 81,
                    "time": 128.80119000000002,
                    "velocity": 0.44881889763779526,
                    "duration": 0.1936860000000138
                },
                {
                    "name": "D5",
                    "midi": 74,
                    "time": 128.99487600000003,
                    "velocity": 0.5511811023622047,
                    "duration": 0.1936860000000138
                },
                {
                    "name": "D#5",
                    "midi": 75,
                    "time": 129.18856200000005,
                    "velocity": 0.5354330708661418,
                    "duration": 0.1936860000000138
                },
                {
                    "name": "A#4",
                    "midi": 70,
                    "time": 129.38224800000006,
                    "velocity": 0.6141732283464567,
                    "duration": 0.3873720000000276
                },
                {
                    "name": "A#5",
                    "midi": 82,
                    "time": 129.57593400000007,
                    "velocity": 0.5039370078740157,
                    "duration": 0.1936860000000138
                },
                {
                    "name": "B4",
                    "midi": 71,
                    "time": 129.7696200000001,
                    "velocity": 0.6220472440944882,
                    "duration": 0.3873720000000276
                },
                {
                    "name": "B5",
                    "midi": 83,
                    "time": 129.9633060000001,
                    "velocity": 0.49606299212598426,
                    "duration": 0.1936860000000138
                },
                {
                    "name": "C5",
                    "midi": 72,
                    "time": 130.15699200000012,
                    "velocity": 0.6614173228346457,
                    "duration": 0.7747440000000552
                },
                {
                    "name": "C6",
                    "midi": 84,
                    "time": 130.35067800000013,
                    "velocity": 0.47244094488188976,
                    "duration": 0.1936860000000138
                },
                {
                    "name": "F5",
                    "midi": 77,
                    "time": 130.54436400000014,
                    "velocity": 0.5196850393700787,
                    "duration": 0.1936860000000138
                },
                {
                    "name": "F#5",
                    "midi": 78,
                    "time": 130.73805000000016,
                    "velocity": 0.47244094488188976,
                    "duration": 0.1936860000000138
                },
                {
                    "name": "D5",
                    "midi": 74,
                    "time": 130.93173600000017,
                    "velocity": 0.6692913385826772,
                    "duration": 0.7747440000000552
                },
                {
                    "name": "D6",
                    "midi": 86,
                    "time": 131.12542200000019,
                    "velocity": 0.48031496062992124,
                    "duration": 0.1936860000000138
                },
                {
                    "name": "F5",
                    "midi": 77,
                    "time": 131.3191080000002,
                    "velocity": 0.5196850393700787,
                    "duration": 0.1936860000000138
                },
                {
                    "name": "F#5",
                    "midi": 78,
                    "time": 131.5127940000002,
                    "velocity": 0.41732283464566927,
                    "duration": 0.1936860000000138
                },
                {
                    "name": "D#5",
                    "midi": 75,
                    "time": 131.70648000000023,
                    "velocity": 0.6535433070866141,
                    "duration": 0.7747440000000552
                },
                {
                    "name": "D#6",
                    "midi": 87,
                    "time": 131.90016600000024,
                    "velocity": 0.4645669291338583,
                    "duration": 0.1936860000000138
                },
                {
                    "name": "B5",
                    "midi": 83,
                    "time": 132.09385200000025,
                    "velocity": 0.5433070866141733,
                    "duration": 0.1936860000000138
                },
                {
                    "name": "C6",
                    "midi": 84,
                    "time": 132.28753800000027,
                    "velocity": 0.49606299212598426,
                    "duration": 0.1936860000000138
                },
                {
                    "name": "G5",
                    "midi": 79,
                    "time": 132.48122400000028,
                    "velocity": 0.6692913385826772,
                    "duration": 0.7747440000000552
                },
                {
                    "name": "G6",
                    "midi": 91,
                    "time": 132.6749100000003,
                    "velocity": 0.5511811023622047,
                    "duration": 0.1936860000000138
                },
                {
                    "name": "D6",
                    "midi": 86,
                    "time": 132.8685960000003,
                    "velocity": 0.5905511811023622,
                    "duration": 0.1936860000000138
                },
                {
                    "name": "D#6",
                    "midi": 87,
                    "time": 133.06228200000032,
                    "velocity": 0.5275590551181102,
                    "duration": 0.1936860000000138
                },
                {
                    "name": "F5",
                    "midi": 77,
                    "time": 133.25596800000034,
                    "velocity": 0.6141732283464567,
                    "duration": 0.7747440000000552
                },
                {
                    "name": "F6",
                    "midi": 89,
                    "time": 133.44965400000035,
                    "velocity": 0.4094488188976378,
                    "duration": 0.1936860000000138
                },
                {
                    "name": "C#6",
                    "midi": 85,
                    "time": 133.64334000000036,
                    "velocity": 0.5039370078740157,
                    "duration": 0.1936860000000138
                },
                {
                    "name": "D6",
                    "midi": 86,
                    "time": 133.83702600000038,
                    "velocity": 0.4645669291338583,
                    "duration": 0.1936860000000138
                },
                {
                    "name": "D#5",
                    "midi": 75,
                    "time": 134.0307120000004,
                    "velocity": 0.5354330708661418,
                    "duration": 0.7747440000000552
                },
                {
                    "name": "D#6",
                    "midi": 87,
                    "time": 134.2243980000004,
                    "velocity": 0.4251968503937008,
                    "duration": 0.1936860000000138
                },
                {
                    "name": "B5",
                    "midi": 83,
                    "time": 134.41808400000042,
                    "velocity": 0.49606299212598426,
                    "duration": 0.1936860000000138
                },
                {
                    "name": "C6",
                    "midi": 84,
                    "time": 134.61177000000043,
                    "velocity": 0.41732283464566927,
                    "duration": 0.1936860000000138
                },
                {
                    "name": "D5",
                    "midi": 74,
                    "time": 134.80545600000045,
                    "velocity": 0.4645669291338583,
                    "duration": 0.7747440000000552
                },
                {
                    "name": "D6",
                    "midi": 86,
                    "time": 134.99914200000046,
                    "velocity": 0.3779527559055118,
                    "duration": 0.1936860000000138
                },
                {
                    "name": "A#5",
                    "midi": 82,
                    "time": 135.19282800000047,
                    "velocity": 0.4251968503937008,
                    "duration": 0.1936860000000138
                },
                {
                    "name": "C6",
                    "midi": 84,
                    "time": 135.3865140000005,
                    "velocity": 0.3700787401574803,
                    "duration": 0.1936860000000138
                },
                {
                    "name": "C5",
                    "midi": 72,
                    "time": 135.5802000000005,
                    "velocity": 0.4645669291338583,
                    "duration": 0.7747440000000552
                },
                {
                    "name": "C6",
                    "midi": 84,
                    "time": 135.77388600000052,
                    "velocity": 0.3700787401574803,
                    "duration": 0.1936860000000138
                },
                {
                    "name": "G#5",
                    "midi": 80,
                    "time": 135.96757200000053,
                    "velocity": 0.4251968503937008,
                    "duration": 0.1936860000000138
                },
                {
                    "name": "A#5",
                    "midi": 82,
                    "time": 136.16125800000054,
                    "velocity": 0.3700787401574803,
                    "duration": 0.1936860000000138
                },
                {
                    "name": "A#4",
                    "midi": 70,
                    "time": 136.35494400000056,
                    "velocity": 0.4645669291338583,
                    "duration": 0.7747440000000552
                },
                {
                    "name": "A#5",
                    "midi": 82,
                    "time": 136.54863000000057,
                    "velocity": 0.3700787401574803,
                    "duration": 0.1936860000000138
                },
                {
                    "name": "G5",
                    "midi": 79,
                    "time": 136.74231600000059,
                    "velocity": 0.4251968503937008,
                    "duration": 0.1936860000000138
                },
                {
                    "name": "G#5",
                    "midi": 80,
                    "time": 136.9360020000006,
                    "velocity": 0.36220472440944884,
                    "duration": 0.1936860000000138
                },
                {
                    "name": "A#4",
                    "midi": 70,
                    "time": 137.1296880000006,
                    "velocity": 0.4645669291338583,
                    "duration": 0.7747440000000552
                },
                {
                    "name": "A#5",
                    "midi": 82,
                    "time": 137.32337400000063,
                    "velocity": 0.36220472440944884,
                    "duration": 0.1936860000000138
                },
                {
                    "name": "G5",
                    "midi": 79,
                    "time": 137.51706000000064,
                    "velocity": 0.41732283464566927,
                    "duration": 0.1936860000000138
                },
                {
                    "name": "G#5",
                    "midi": 80,
                    "time": 137.71074600000065,
                    "velocity": 0.36220472440944884,
                    "duration": 0.1936860000000138
                },
                {
                    "name": "B4",
                    "midi": 71,
                    "time": 137.90443200000067,
                    "velocity": 0.4645669291338583,
                    "duration": 0.7747440000000552
                },
                {
                    "name": "A#5",
                    "midi": 82,
                    "time": 138.09811800000068,
                    "velocity": 0.3700787401574803,
                    "duration": 0.1936860000000138
                },
                {
                    "name": "G5",
                    "midi": 79,
                    "time": 138.2918040000007,
                    "velocity": 0.41732283464566927,
                    "duration": 0.1936860000000138
                },
                {
                    "name": "G#5",
                    "midi": 80,
                    "time": 138.4854900000007,
                    "velocity": 0.3700787401574803,
                    "duration": 0.1936860000000138
                },
                {
                    "name": "A#4",
                    "midi": 70,
                    "time": 138.67917600000072,
                    "velocity": 0.4645669291338583,
                    "duration": 0.3873720000000276
                },
                {
                    "name": "A#5",
                    "midi": 82,
                    "time": 138.87286200000074,
                    "velocity": 0.3464566929133858,
                    "duration": 0.1936860000000138
                },
                {
                    "name": "G5",
                    "midi": 79,
                    "time": 139.06654800000075,
                    "velocity": 0.4094488188976378,
                    "duration": 0.1936860000000138
                },
                {
                    "name": "B4",
                    "midi": 71,
                    "time": 139.06654800000075,
                    "velocity": 0.4094488188976378,
                    "duration": 0.3873720000000276
                },
                {
                    "name": "G#5",
                    "midi": 80,
                    "time": 139.26023400000076,
                    "velocity": 0.36220472440944884,
                    "duration": 0.1936860000000138
                },
                {
                    "name": "C5",
                    "midi": 72,
                    "time": 139.45392000000078,
                    "velocity": 0.4645669291338583,
                    "duration": 0.7747440000000552
                },
                {
                    "name": "A#5",
                    "midi": 82,
                    "time": 139.6476060000008,
                    "velocity": 0.36220472440944884,
                    "duration": 0.1936860000000138
                },
                {
                    "name": "G#5",
                    "midi": 80,
                    "time": 139.8412920000008,
                    "velocity": 0.41732283464566927,
                    "duration": 0.1936860000000138
                },
                {
                    "name": "A#5",
                    "midi": 82,
                    "time": 140.03497800000082,
                    "velocity": 0.36220472440944884,
                    "duration": 0.1936860000000138
                },
                {
                    "name": "C#5",
                    "midi": 73,
                    "time": 140.22866400000083,
                    "velocity": 0.4645669291338583,
                    "duration": 0.7747440000000552
                },
                {
                    "name": "A#5",
                    "midi": 82,
                    "time": 140.42235000000085,
                    "velocity": 0.3779527559055118,
                    "duration": 0.1936860000000138
                },
                {
                    "name": "G5",
                    "midi": 79,
                    "time": 140.61603600000086,
                    "velocity": 0.4251968503937008,
                    "duration": 0.1936860000000138
                },
                {
                    "name": "G#5",
                    "midi": 80,
                    "time": 140.80972200000087,
                    "velocity": 0.3779527559055118,
                    "duration": 0.1936860000000138
                },
                {
                    "name": "C5",
                    "midi": 72,
                    "time": 141.0034080000009,
                    "velocity": 0.4645669291338583,
                    "duration": 0.3873720000000276
                },
                {
                    "name": "A#5",
                    "midi": 82,
                    "time": 141.1970940000009,
                    "velocity": 0.3779527559055118,
                    "duration": 0.1936860000000138
                },
                {
                    "name": "G5",
                    "midi": 79,
                    "time": 141.39078000000092,
                    "velocity": 0.3779527559055118,
                    "duration": 0.1936860000000138
                },
                {
                    "name": "C#5",
                    "midi": 73,
                    "time": 141.39078000000092,
                    "velocity": 0.4645669291338583,
                    "duration": 0.3873720000000276
                },
                {
                    "name": "G#5",
                    "midi": 80,
                    "time": 141.58446600000093,
                    "velocity": 0.3779527559055118,
                    "duration": 0.1936860000000138
                },
                {
                    "name": "D5",
                    "midi": 74,
                    "time": 141.77815200000094,
                    "velocity": 0.4645669291338583,
                    "duration": 1.1621160000000543
                },
                {
                    "name": "A#5",
                    "midi": 82,
                    "time": 141.97183800000096,
                    "velocity": 0.3779527559055118,
                    "duration": 0.38737199999999916
                },
                {
                    "name": "G#5",
                    "midi": 80,
                    "time": 142.35921000000096,
                    "velocity": 0.3543307086614173,
                    "duration": 0.1936860000000138
                },
                {
                    "name": "F5",
                    "midi": 77,
                    "time": 142.55289600000097,
                    "velocity": 0.3937007874015748,
                    "duration": 0.1936860000000138
                },
                {
                    "name": "D5",
                    "midi": 74,
                    "time": 142.74658200000098,
                    "velocity": 0.3779527559055118,
                    "duration": 0.1936860000000138
                },
                {
                    "name": "B4",
                    "midi": 71,
                    "time": 142.940268000001,
                    "velocity": 0.3937007874015748,
                    "duration": 0.1936860000000138
                },
                {
                    "name": "G5",
                    "midi": 79,
                    "time": 143.133954000001,
                    "velocity": 0.36220472440944884,
                    "duration": 0.38737199999999916
                },
                {
                    "name": "F5",
                    "midi": 77,
                    "time": 143.521326000001,
                    "velocity": 0.25196850393700787,
                    "duration": 0.1936860000000138
                },
                {
                    "name": "D5",
                    "midi": 74,
                    "time": 143.71501200000102,
                    "velocity": 0.31496062992125984,
                    "duration": 0.1936860000000138
                },
                {
                    "name": "A#4",
                    "midi": 70,
                    "time": 143.90869800000104,
                    "velocity": 0.25984251968503935,
                    "duration": 0.1936860000000138
                },
                {
                    "name": "G#4",
                    "midi": 68,
                    "time": 144.10238400000105,
                    "velocity": 0.2204724409448819,
                    "duration": 0.38737199999999916
                },
                {
                    "name": "D#4",
                    "midi": 63,
                    "time": 144.48975600000105,
                    "velocity": 0.25196850393700787,
                    "duration": 0.38737199999999916
                },
                {
                    "name": "C4",
                    "midi": 60,
                    "time": 144.48975600000105,
                    "velocity": 0.1889763779527559,
                    "duration": 0.38737199999999916
                },
                {
                    "name": "G4",
                    "midi": 67,
                    "time": 144.48975600000105,
                    "velocity": 0.2992125984251969,
                    "duration": 0.38737199999999916
                },
                {
                    "name": "A4",
                    "midi": 69,
                    "time": 144.87712800000105,
                    "velocity": 0.31496062992125984,
                    "duration": 0.38737199999999916
                },
                {
                    "name": "F#4",
                    "midi": 66,
                    "time": 144.87712800000105,
                    "velocity": 0.2677165354330709,
                    "duration": 0.38737199999999916
                },
                {
                    "name": "C4",
                    "midi": 60,
                    "time": 144.87712800000105,
                    "velocity": 0.1968503937007874,
                    "duration": 0.38737199999999916
                },
                {
                    "name": "D#4",
                    "midi": 63,
                    "time": 144.87712800000105,
                    "velocity": 0.2204724409448819,
                    "duration": 0.38737199999999916
                },
                {
                    "name": "A#4",
                    "midi": 70,
                    "time": 145.26450000000105,
                    "velocity": 0.3779527559055118,
                    "duration": 0.1936860000000138
                },
                {
                    "name": "D4",
                    "midi": 62,
                    "time": 145.26450000000105,
                    "velocity": 0.31496062992125984,
                    "duration": 0.1936860000000138
                },
                {
                    "name": "C5",
                    "midi": 72,
                    "time": 145.45818600000106,
                    "velocity": 0.33070866141732286,
                    "duration": 0.1936860000000138
                },
                {
                    "name": "A4",
                    "midi": 69,
                    "time": 145.65187200000108,
                    "velocity": 0.3700787401574803,
                    "duration": 0.1936860000000138
                },
                {
                    "name": "A#4",
                    "midi": 70,
                    "time": 145.8455580000011,
                    "velocity": 0.33070866141732286,
                    "duration": 0.1936860000000138
                },
                {
                    "name": "G4",
                    "midi": 67,
                    "time": 146.0392440000011,
                    "velocity": 0.4409448818897638,
                    "duration": 0.1936860000000138
                },
                {
                    "name": "D5",
                    "midi": 74,
                    "time": 146.23293000000112,
                    "velocity": 0.3700787401574803,
                    "duration": 0.1936860000000138
                },
                {
                    "name": "D5",
                    "midi": 74,
                    "time": 146.42661600000113,
                    "velocity": 0.4409448818897638,
                    "duration": 0.38737199999999916
                },
                {
                    "name": "D#4",
                    "midi": 63,
                    "time": 146.81398800000113,
                    "velocity": 0.2677165354330709,
                    "duration": 0.38737199999999916
                },
                {
                    "name": "G4",
                    "midi": 67,
                    "time": 146.81398800000113,
                    "velocity": 0.31496062992125984,
                    "duration": 0.38737199999999916
                },
                {
                    "name": "C4",
                    "midi": 60,
                    "time": 146.81398800000113,
                    "velocity": 0.2677165354330709,
                    "duration": 0.38737199999999916
                },
                {
                    "name": "A4",
                    "midi": 69,
                    "time": 147.20136000000113,
                    "velocity": 0.33070866141732286,
                    "duration": 0.38737199999999916
                },
                {
                    "name": "D#4",
                    "midi": 63,
                    "time": 147.20136000000113,
                    "velocity": 0.2755905511811024,
                    "duration": 0.38737199999999916
                },
                {
                    "name": "C4",
                    "midi": 60,
                    "time": 147.20136000000113,
                    "velocity": 0.2755905511811024,
                    "duration": 0.38737199999999916
                },
                {
                    "name": "F#4",
                    "midi": 66,
                    "time": 147.20136000000113,
                    "velocity": 0.2755905511811024,
                    "duration": 0.38737199999999916
                },
                {
                    "name": "D4",
                    "midi": 62,
                    "time": 147.58873200000113,
                    "velocity": 0.33070866141732286,
                    "duration": 0.1936860000000138
                },
                {
                    "name": "A#4",
                    "midi": 70,
                    "time": 147.58873200000113,
                    "velocity": 0.3937007874015748,
                    "duration": 0.1936860000000138
                },
                {
                    "name": "C5",
                    "midi": 72,
                    "time": 147.78241800000114,
                    "velocity": 0.3543307086614173,
                    "duration": 0.1936860000000138
                },
                {
                    "name": "A4",
                    "midi": 69,
                    "time": 147.97610400000116,
                    "velocity": 0.3858267716535433,
                    "duration": 0.1936860000000138
                },
                {
                    "name": "A#4",
                    "midi": 70,
                    "time": 148.16979000000117,
                    "velocity": 0.3543307086614173,
                    "duration": 0.1936860000000138
                },
                {
                    "name": "G4",
                    "midi": 67,
                    "time": 148.36347600000119,
                    "velocity": 0.4566929133858268,
                    "duration": 0.1936860000000138
                },
                {
                    "name": "D#5",
                    "midi": 75,
                    "time": 148.5571620000012,
                    "velocity": 0.4094488188976378,
                    "duration": 0.1936860000000138
                },
                {
                    "name": "D#5",
                    "midi": 75,
                    "time": 148.7508480000012,
                    "velocity": 0.49606299212598426,
                    "duration": 0.38737199999999916
                },
                {
                    "name": "D#4",
                    "midi": 63,
                    "time": 149.1382200000012,
                    "velocity": 0.30708661417322836,
                    "duration": 0.1920719500000132
                },
                {
                    "name": "G4",
                    "midi": 67,
                    "time": 149.1382200000012,
                    "velocity": 0.3700787401574803,
                    "duration": 0.1920719500000132
                },
                {
                    "name": "C4",
                    "midi": 60,
                    "time": 149.1382200000012,
                    "velocity": 0.30708661417322836,
                    "duration": 0.1920719500000132
                },
                {
                    "name": "C4",
                    "midi": 60,
                    "time": 149.5255920000012,
                    "velocity": 0.3228346456692913,
                    "duration": 0.38737199999999916
                },
                {
                    "name": "D#4",
                    "midi": 63,
                    "time": 149.5255920000012,
                    "velocity": 0.3228346456692913,
                    "duration": 0.38737199999999916
                },
                {
                    "name": "A4",
                    "midi": 69,
                    "time": 149.5255920000012,
                    "velocity": 0.3937007874015748,
                    "duration": 0.581058000000013
                },
                {
                    "name": "D4",
                    "midi": 62,
                    "time": 149.9129640000012,
                    "velocity": 0.3464566929133858,
                    "duration": 0.1936860000000138
                },
                {
                    "name": "A#4",
                    "midi": 70,
                    "time": 150.10665000000122,
                    "velocity": 0.3700787401574803,
                    "duration": 0.1936860000000138
                },
                {
                    "name": "G4",
                    "midi": 67,
                    "time": 150.30033600000124,
                    "velocity": 0.4015748031496063,
                    "duration": 0.1936860000000138
                },
                {
                    "name": "A4",
                    "midi": 69,
                    "time": 150.49402200000125,
                    "velocity": 0.3700787401574803,
                    "duration": 0.1936860000000138
                },
                {
                    "name": "F4",
                    "midi": 65,
                    "time": 150.68770800000127,
                    "velocity": 0.4566929133858268,
                    "duration": 0.1936860000000138
                },
                {
                    "name": "D5",
                    "midi": 74,
                    "time": 150.88139400000128,
                    "velocity": 0.4015748031496063,
                    "duration": 0.1936860000000138
                },
                {
                    "name": "D5",
                    "midi": 74,
                    "time": 151.0750800000013,
                    "velocity": 0.48031496062992124,
                    "duration": 0.38737199999999916
                },
                {
                    "name": "A#3",
                    "midi": 58,
                    "time": 151.4624520000013,
                    "velocity": 0.30708661417322836,
                    "duration": 0.1920719500000132
                },
                {
                    "name": "D4",
                    "midi": 62,
                    "time": 151.4624520000013,
                    "velocity": 0.30708661417322836,
                    "duration": 0.1920719500000132
                },
                {
                    "name": "F4",
                    "midi": 65,
                    "time": 151.4624520000013,
                    "velocity": 0.3700787401574803,
                    "duration": 0.1920719500000132
                },
                {
                    "name": "D4",
                    "midi": 62,
                    "time": 151.8498240000013,
                    "velocity": 0.3228346456692913,
                    "duration": 0.38737199999999916
                },
                {
                    "name": "G4",
                    "midi": 67,
                    "time": 151.8498240000013,
                    "velocity": 0.3937007874015748,
                    "duration": 0.581058000000013
                },
                {
                    "name": "A#3",
                    "midi": 58,
                    "time": 151.8498240000013,
                    "velocity": 0.3228346456692913,
                    "duration": 0.38737199999999916
                },
                {
                    "name": "C4",
                    "midi": 60,
                    "time": 152.2371960000013,
                    "velocity": 0.3464566929133858,
                    "duration": 0.1936860000000138
                },
                {
                    "name": "A4",
                    "midi": 69,
                    "time": 152.4308820000013,
                    "velocity": 0.33858267716535434,
                    "duration": 0.1936860000000138
                },
                {
                    "name": "F4",
                    "midi": 65,
                    "time": 152.62456800000132,
                    "velocity": 0.4015748031496063,
                    "duration": 0.1936860000000138
                },
                {
                    "name": "G4",
                    "midi": 67,
                    "time": 152.81825400000133,
                    "velocity": 0.3700787401574803,
                    "duration": 0.1936860000000138
                },
                {
                    "name": "D#4",
                    "midi": 63,
                    "time": 153.01194000000135,
                    "velocity": 0.4566929133858268,
                    "duration": 0.1936860000000138
                },
                {
                    "name": "C5",
                    "midi": 72,
                    "time": 153.20562600000136,
                    "velocity": 0.4015748031496063,
                    "duration": 0.1936860000000138
                },
                {
                    "name": "C5",
                    "midi": 72,
                    "time": 153.39931200000137,
                    "velocity": 0.48031496062992124,
                    "duration": 0.38737199999999916
                },
                {
                    "name": "C4",
                    "midi": 60,
                    "time": 153.78668400000137,
                    "velocity": 0.30708661417322836,
                    "duration": 0.1920719500000132
                },
                {
                    "name": "G3",
                    "midi": 55,
                    "time": 153.78668400000137,
                    "velocity": 0.30708661417322836,
                    "duration": 0.1920719500000132
                },
                {
                    "name": "D#4",
                    "midi": 63,
                    "time": 153.78668400000137,
                    "velocity": 0.3700787401574803,
                    "duration": 0.1920719500000132
                },
                {
                    "name": "A3",
                    "midi": 57,
                    "time": 154.17405600000137,
                    "velocity": 0.3228346456692913,
                    "duration": 0.38737199999999916
                },
                {
                    "name": "F#3",
                    "midi": 54,
                    "time": 154.17405600000137,
                    "velocity": 0.3228346456692913,
                    "duration": 0.38737199999999916
                },
                {
                    "name": "D4",
                    "midi": 62,
                    "time": 154.17405600000137,
                    "velocity": 0.3858267716535433,
                    "duration": 0.581058000000013
                },
                {
                    "name": "G3",
                    "midi": 55,
                    "time": 154.56142800000137,
                    "velocity": 0.3464566929133858,
                    "duration": 0.1936860000000138
                },
                {
                    "name": "D#4",
                    "midi": 63,
                    "time": 154.75511400000138,
                    "velocity": 0.36220472440944884,
                    "duration": 0.1936860000000138
                },
                {
                    "name": "C4",
                    "midi": 60,
                    "time": 154.9488000000014,
                    "velocity": 0.3937007874015748,
                    "duration": 0.1936860000000138
                },
                {
                    "name": "D4",
                    "midi": 62,
                    "time": 155.1424860000014,
                    "velocity": 0.36220472440944884,
                    "duration": 0.1936860000000138
                },
                {
                    "name": "A#3",
                    "midi": 58,
                    "time": 155.33617200000143,
                    "velocity": 0.44881889763779526,
                    "duration": 0.1936860000000138
                },
                {
                    "name": "G4",
                    "midi": 67,
                    "time": 155.52985800000144,
                    "velocity": 0.3858267716535433,
                    "duration": 0.1936860000000138
                },
                {
                    "name": "G4",
                    "midi": 67,
                    "time": 155.72354400000145,
                    "velocity": 0.4645669291338583,
                    "duration": 0.38737199999999916
                },
                {
                    "name": "C4",
                    "midi": 60,
                    "time": 156.11091600000145,
                    "velocity": 0.33858267716535434,
                    "duration": 0.1920719500000132
                },
                {
                    "name": "G3",
                    "midi": 55,
                    "time": 156.11091600000145,
                    "velocity": 0.33858267716535434,
                    "duration": 0.1920719500000132
                },
                {
                    "name": "D#4",
                    "midi": 63,
                    "time": 156.11091600000145,
                    "velocity": 0.4015748031496063,
                    "duration": 0.1920719500000132
                },
                {
                    "name": "F#3",
                    "midi": 54,
                    "time": 156.49828800000145,
                    "velocity": 0.3543307086614173,
                    "duration": 0.38737199999999916
                },
                {
                    "name": "D4",
                    "midi": 62,
                    "time": 156.49828800000145,
                    "velocity": 0.4251968503937008,
                    "duration": 0.7747439999999983
                },
                {
                    "name": "A3",
                    "midi": 57,
                    "time": 156.49828800000145,
                    "velocity": 0.3543307086614173,
                    "duration": 0.38737199999999916
                },
                {
                    "name": "G3",
                    "midi": 55,
                    "time": 156.88566000000145,
                    "velocity": 0.3779527559055118,
                    "duration": 0.38737199999999916
                },
                {
                    "name": "A#4",
                    "midi": 70,
                    "time": 157.27303200000145,
                    "velocity": 0.4566929133858268,
                    "duration": 0.6779009999999914
                },
                {
                    "name": "A#3",
                    "midi": 58,
                    "time": 157.66040400000145,
                    "velocity": 0.31496062992125984,
                    "duration": 0.7747439999999983
                },
                {
                    "name": "F#4",
                    "midi": 66,
                    "time": 157.95093300000144,
                    "velocity": 0.3937007874015748,
                    "duration": 0.0968430000000069
                },
                {
                    "name": "G4",
                    "midi": 67,
                    "time": 158.04777600000145,
                    "velocity": 0.4409448818897638,
                    "duration": 0.29052899999999227
                },
                {
                    "name": "A4",
                    "midi": 69,
                    "time": 158.33830500000144,
                    "velocity": 0.4015748031496063,
                    "duration": 0.0968430000000069
                },
                {
                    "name": "A#4",
                    "midi": 70,
                    "time": 158.43514800000145,
                    "velocity": 0.44881889763779526,
                    "duration": 0.6779009999999914
                },
                {
                    "name": "A#3",
                    "midi": 58,
                    "time": 158.82252000000145,
                    "velocity": 0.31496062992125984,
                    "duration": 0.7747439999999983
                },
                {
                    "name": "F#4",
                    "midi": 66,
                    "time": 159.11304900000144,
                    "velocity": 0.4251968503937008,
                    "duration": 0.0968430000000069
                },
                {
                    "name": "G4",
                    "midi": 67,
                    "time": 159.20989200000145,
                    "velocity": 0.48031496062992124,
                    "duration": 0.29052899999999227
                },
                {
                    "name": "A4",
                    "midi": 69,
                    "time": 159.50042100000144,
                    "velocity": 0.4094488188976378,
                    "duration": 0.0968430000000069
                },
                {
                    "name": "A#4",
                    "midi": 70,
                    "time": 159.59726400000145,
                    "velocity": 0.44881889763779526,
                    "duration": 0.1936860000000138
                },
                {
                    "name": "A#3",
                    "midi": 58,
                    "time": 159.79095000000146,
                    "velocity": 0.3700787401574803,
                    "duration": 0.1936860000000138
                },
                {
                    "name": "D5",
                    "midi": 74,
                    "time": 159.98463600000147,
                    "velocity": 0.5039370078740157,
                    "duration": 0.1936860000000138
                },
                {
                    "name": "C5",
                    "midi": 72,
                    "time": 160.1783220000015,
                    "velocity": 0.44881889763779526,
                    "duration": 0.1936860000000138
                },
                {
                    "name": "D5",
                    "midi": 74,
                    "time": 160.3720080000015,
                    "velocity": 0.5196850393700787,
                    "duration": 0.1936860000000138
                },
                {
                    "name": "C5",
                    "midi": 72,
                    "time": 160.5656940000015,
                    "velocity": 0.49606299212598426,
                    "duration": 0.1936860000000138
                },
                {
                    "name": "A#4",
                    "midi": 70,
                    "time": 160.75938000000153,
                    "velocity": 0.4645669291338583,
                    "duration": 0.12912399999999025
                },
                {
                    "name": "G4",
                    "midi": 67,
                    "time": 160.88850400000152,
                    "velocity": 0.4015748031496063,
                    "duration": 0.12912399999999025
                },
                {
                    "name": "D#4",
                    "midi": 63,
                    "time": 161.0176280000015,
                    "velocity": 0.4015748031496063,
                    "duration": 0.12912399999999025
                },
                {
                    "name": "D4",
                    "midi": 62,
                    "time": 161.1467520000015,
                    "velocity": 0.44881889763779526,
                    "duration": 0.29052899999999227
                },
                {
                    "name": "A3",
                    "midi": 57,
                    "time": 161.1467520000015,
                    "velocity": 0.28346456692913385,
                    "duration": 0.38737199999999916
                },
                {
                    "name": "C4",
                    "midi": 60,
                    "time": 161.4372810000015,
                    "velocity": 0.3700787401574803,
                    "duration": 0.0968430000000069
                },
                {
                    "name": "A#3",
                    "midi": 58,
                    "time": 161.5341240000015,
                    "velocity": 0.4251968503937008,
                    "duration": 0.1936860000000138
                },
                {
                    "name": "F5",
                    "midi": 77,
                    "time": 161.92149600000153,
                    "velocity": 0.4566929133858268,
                    "duration": 0.6779009999999914
                },
                {
                    "name": "F4",
                    "midi": 65,
                    "time": 162.30886800000152,
                    "velocity": 0.31496062992125984,
                    "duration": 0.7747439999999983
                },
                {
                    "name": "C#5",
                    "midi": 73,
                    "time": 162.59939700000152,
                    "velocity": 0.3937007874015748,
                    "duration": 0.0968430000000069
                },
                {
                    "name": "D5",
                    "midi": 74,
                    "time": 162.69624000000152,
                    "velocity": 0.4409448818897638,
                    "duration": 0.29052899999999227
                },
                {
                    "name": "D#5",
                    "midi": 75,
                    "time": 162.98676900000152,
                    "velocity": 0.4015748031496063,
                    "duration": 0.0968430000000069
                },
                {
                    "name": "F5",
                    "midi": 77,
                    "time": 163.08361200000152,
                    "velocity": 0.44881889763779526,
                    "duration": 0.6779009999999914
                },
                {
                    "name": "F4",
                    "midi": 65,
                    "time": 163.47098400000152,
                    "velocity": 0.31496062992125984,
                    "duration": 0.7747439999999983
                },
                {
                    "name": "C#5",
                    "midi": 73,
                    "time": 163.76151300000151,
                    "velocity": 0.4251968503937008,
                    "duration": 0.0968430000000069
                },
                {
                    "name": "D5",
                    "midi": 74,
                    "time": 163.85835600000152,
                    "velocity": 0.48031496062992124,
                    "duration": 0.29052899999999227
                },
                {
                    "name": "D#5",
                    "midi": 75,
                    "time": 164.1488850000015,
                    "velocity": 0.4094488188976378,
                    "duration": 0.0968430000000069
                },
                {
                    "name": "F5",
                    "midi": 77,
                    "time": 164.24572800000152,
                    "velocity": 0.44881889763779526,
                    "duration": 0.1936860000000138
                },
                {
                    "name": "F4",
                    "midi": 65,
                    "time": 164.43941400000153,
                    "velocity": 0.3700787401574803,
                    "duration": 0.1936860000000138
                },
                {
                    "name": "A5",
                    "midi": 81,
                    "time": 164.63310000000155,
                    "velocity": 0.5039370078740157,
                    "duration": 0.1936860000000138
                },
                {
                    "name": "G5",
                    "midi": 79,
                    "time": 164.82678600000156,
                    "velocity": 0.44881889763779526,
                    "duration": 0.1936860000000138
                },
                {
                    "name": "A5",
                    "midi": 81,
                    "time": 165.02047200000158,
                    "velocity": 0.5196850393700787,
                    "duration": 0.1936860000000138
                },
                {
                    "name": "G5",
                    "midi": 79,
                    "time": 165.2141580000016,
                    "velocity": 0.49606299212598426,
                    "duration": 0.1936860000000138
                },
                {
                    "name": "F5",
                    "midi": 77,
                    "time": 165.4078440000016,
                    "velocity": 0.4645669291338583,
                    "duration": 0.12912399999999025
                },
                {
                    "name": "D5",
                    "midi": 74,
                    "time": 165.5369680000016,
                    "velocity": 0.4015748031496063,
                    "duration": 0.12912399999999025
                },
                {
                    "name": "A#4",
                    "midi": 70,
                    "time": 165.66609200000158,
                    "velocity": 0.4015748031496063,
                    "duration": 0.12912399999999025
                },
                {
                    "name": "E4",
                    "midi": 64,
                    "time": 165.79521600000157,
                    "velocity": 0.28346456692913385,
                    "duration": 0.38737199999999916
                },
                {
                    "name": "A4",
                    "midi": 69,
                    "time": 165.79521600000157,
                    "velocity": 0.44881889763779526,
                    "duration": 0.29052899999999227
                },
                {
                    "name": "G4",
                    "midi": 67,
                    "time": 166.08574500000157,
                    "velocity": 0.3700787401574803,
                    "duration": 0.0968430000000069
                },
                {
                    "name": "F4",
                    "midi": 65,
                    "time": 166.18258800000157,
                    "velocity": 0.4251968503937008,
                    "duration": 0.1936860000000138
                },
                {
                    "name": "A#5",
                    "midi": 82,
                    "time": 166.5699600000016,
                    "velocity": 0.4566929133858268,
                    "duration": 0.6779009999999914
                },
                {
                    "name": "A#4",
                    "midi": 70,
                    "time": 166.9573320000016,
                    "velocity": 0.31496062992125984,
                    "duration": 0.7747439999999983
                },
                {
                    "name": "F5",
                    "midi": 77,
                    "time": 167.2478610000016,
                    "velocity": 0.41732283464566927,
                    "duration": 0.0968430000000069
                },
                {
                    "name": "F#5",
                    "midi": 78,
                    "time": 167.3447040000016,
                    "velocity": 0.44881889763779526,
                    "duration": 0.29052899999999227
                },
                {
                    "name": "G#5",
                    "midi": 80,
                    "time": 167.6352330000016,
                    "velocity": 0.4330708661417323,
                    "duration": 0.0968430000000069
                },
                {
                    "name": "A#5",
                    "midi": 82,
                    "time": 167.7320760000016,
                    "velocity": 0.4566929133858268,
                    "duration": 0.6779009999999914
                },
                {
                    "name": "A#4",
                    "midi": 70,
                    "time": 168.1194480000016,
                    "velocity": 0.31496062992125984,
                    "duration": 0.7747439999999983
                },
                {
                    "name": "F5",
                    "midi": 77,
                    "time": 168.4099770000016,
                    "velocity": 0.4251968503937008,
                    "duration": 0.0968430000000069
                },
                {
                    "name": "F#5",
                    "midi": 78,
                    "time": 168.5068200000016,
                    "velocity": 0.48031496062992124,
                    "duration": 0.29052899999999227
                },
                {
                    "name": "G#5",
                    "midi": 80,
                    "time": 168.7973490000016,
                    "velocity": 0.4409448818897638,
                    "duration": 0.0968430000000069
                },
                {
                    "name": "A#5",
                    "midi": 82,
                    "time": 168.8941920000016,
                    "velocity": 0.48031496062992124,
                    "duration": 0.1936860000000138
                },
                {
                    "name": "C#5",
                    "midi": 73,
                    "time": 169.0878780000016,
                    "velocity": 0.3700787401574803,
                    "duration": 0.1936860000000138
                },
                {
                    "name": "F6",
                    "midi": 89,
                    "time": 169.28156400000162,
                    "velocity": 0.5039370078740157,
                    "duration": 0.1936860000000138
                },
                {
                    "name": "D#6",
                    "midi": 87,
                    "time": 169.47525000000164,
                    "velocity": 0.44881889763779526,
                    "duration": 0.1936860000000138
                },
                {
                    "name": "F6",
                    "midi": 89,
                    "time": 169.66893600000165,
                    "velocity": 0.5196850393700787,
                    "duration": 0.1936860000000138
                },
                {
                    "name": "D#6",
                    "midi": 87,
                    "time": 169.86262200000166,
                    "velocity": 0.49606299212598426,
                    "duration": 0.1936860000000138
                },
                {
                    "name": "C#6",
                    "midi": 85,
                    "time": 170.05630800000168,
                    "velocity": 0.4645669291338583,
                    "duration": 0.12912399999999025
                },
                {
                    "name": "A#5",
                    "midi": 82,
                    "time": 170.18543200000167,
                    "velocity": 0.4015748031496063,
                    "duration": 0.12912399999999025
                },
                {
                    "name": "F#5",
                    "midi": 78,
                    "time": 170.31455600000166,
                    "velocity": 0.4015748031496063,
                    "duration": 0.12912399999999025
                },
                {
                    "name": "C5",
                    "midi": 72,
                    "time": 170.44368000000165,
                    "velocity": 0.28346456692913385,
                    "duration": 0.38737199999999916
                },
                {
                    "name": "F5",
                    "midi": 77,
                    "time": 170.44368000000165,
                    "velocity": 0.44881889763779526,
                    "duration": 0.29052899999999227
                },
                {
                    "name": "D#5",
                    "midi": 75,
                    "time": 170.73420900000164,
                    "velocity": 0.3700787401574803,
                    "duration": 0.0968430000000069
                },
                {
                    "name": "C#5",
                    "midi": 73,
                    "time": 170.83105200000165,
                    "velocity": 0.4251968503937008,
                    "duration": 0.1936860000000138
                },
                {
                    "name": "G#5",
                    "midi": 80,
                    "time": 171.21842400000168,
                    "velocity": 0.4566929133858268,
                    "duration": 0.6779009999999914
                },
                {
                    "name": "G#4",
                    "midi": 68,
                    "time": 171.60579600000167,
                    "velocity": 0.31496062992125984,
                    "duration": 0.7747439999999983
                },
                {
                    "name": "D#5",
                    "midi": 75,
                    "time": 171.89632500000167,
                    "velocity": 0.3937007874015748,
                    "duration": 0.0968430000000069
                },
                {
                    "name": "F5",
                    "midi": 77,
                    "time": 171.99316800000167,
                    "velocity": 0.4409448818897638,
                    "duration": 0.29052899999999227
                },
                {
                    "name": "F#5",
                    "midi": 78,
                    "time": 172.28369700000167,
                    "velocity": 0.4015748031496063,
                    "duration": 0.0968430000000069
                },
                {
                    "name": "G#5",
                    "midi": 80,
                    "time": 172.38054000000167,
                    "velocity": 0.44881889763779526,
                    "duration": 0.6779009999999914
                },
                {
                    "name": "G#4",
                    "midi": 68,
                    "time": 172.76791200000167,
                    "velocity": 0.31496062992125984,
                    "duration": 0.7747439999999983
                },
                {
                    "name": "D#5",
                    "midi": 75,
                    "time": 173.05844100000166,
                    "velocity": 0.4251968503937008,
                    "duration": 0.0968430000000069
                },
                {
                    "name": "F5",
                    "midi": 77,
                    "time": 173.15528400000167,
                    "velocity": 0.48031496062992124,
                    "duration": 0.29052899999999227
                },
                {
                    "name": "F#5",
                    "midi": 78,
                    "time": 173.44581300000166,
                    "velocity": 0.4094488188976378,
                    "duration": 0.0968430000000069
                },
                {
                    "name": "G#5",
                    "midi": 80,
                    "time": 173.54265600000167,
                    "velocity": 0.44881889763779526,
                    "duration": 0.1936860000000138
                },
                {
                    "name": "A#4",
                    "midi": 70,
                    "time": 173.73634200000168,
                    "velocity": 0.3700787401574803,
                    "duration": 0.1936860000000138
                },
                {
                    "name": "C6",
                    "midi": 84,
                    "time": 173.9300280000017,
                    "velocity": 0.5039370078740157,
                    "duration": 0.1936860000000138
                },
                {
                    "name": "A#5",
                    "midi": 82,
                    "time": 174.1237140000017,
                    "velocity": 0.44881889763779526,
                    "duration": 0.1936860000000138
                },
                {
                    "name": "C6",
                    "midi": 84,
                    "time": 174.31740000000173,
                    "velocity": 0.5196850393700787,
                    "duration": 0.1936860000000138
                },
                {
                    "name": "A#5",
                    "midi": 82,
                    "time": 174.51108600000174,
                    "velocity": 0.49606299212598426,
                    "duration": 0.1936860000000138
                },
                {
                    "name": "G#5",
                    "midi": 80,
                    "time": 174.70477200000175,
                    "velocity": 0.4645669291338583,
                    "duration": 0.12912399999999025
                },
                {
                    "name": "F5",
                    "midi": 77,
                    "time": 174.83389600000174,
                    "velocity": 0.4015748031496063,
                    "duration": 0.12912399999999025
                },
                {
                    "name": "C#5",
                    "midi": 73,
                    "time": 174.96302000000173,
                    "velocity": 0.4015748031496063,
                    "duration": 0.12912399999999025
                },
                {
                    "name": "C5",
                    "midi": 72,
                    "time": 175.09214400000172,
                    "velocity": 0.44881889763779526,
                    "duration": 0.29052899999999227
                },
                {
                    "name": "G4",
                    "midi": 67,
                    "time": 175.09214400000172,
                    "velocity": 0.28346456692913385,
                    "duration": 0.38737199999999916
                },
                {
                    "name": "A#4",
                    "midi": 70,
                    "time": 175.38267300000172,
                    "velocity": 0.3700787401574803,
                    "duration": 0.0968430000000069
                },
                {
                    "name": "G#4",
                    "midi": 68,
                    "time": 175.47951600000172,
                    "velocity": 0.4251968503937008,
                    "duration": 0.1936860000000138
                },
                {
                    "name": "G#4",
                    "midi": 68,
                    "time": 176.25426000000175,
                    "velocity": 0.31496062992125984,
                    "duration": 0.7747439999999983
                },
                {
                    "name": "D#4",
                    "midi": 63,
                    "time": 176.25426000000175,
                    "velocity": 0.2677165354330709,
                    "duration": 0.7747439999999983
                },
                {
                    "name": "C4",
                    "midi": 60,
                    "time": 176.25426000000175,
                    "velocity": 0.2677165354330709,
                    "duration": 0.7747439999999983
                },
                {
                    "name": "A4",
                    "midi": 69,
                    "time": 177.02900400000175,
                    "velocity": 0.4094488188976378,
                    "duration": 0.6779009999999914
                },
                {
                    "name": "D4",
                    "midi": 62,
                    "time": 177.70690500000174,
                    "velocity": 0.3543307086614173,
                    "duration": 0.0968430000000069
                },
                {
                    "name": "D#4",
                    "midi": 63,
                    "time": 177.80374800000175,
                    "velocity": 0.3937007874015748,
                    "duration": 0.29052899999999227
                },
                {
                    "name": "F4",
                    "midi": 65,
                    "time": 178.09427700000174,
                    "velocity": 0.3543307086614173,
                    "duration": 0.0968430000000069
                },
                {
                    "name": "C4",
                    "midi": 60,
                    "time": 178.19112000000175,
                    "velocity": 0.3937007874015748,
                    "duration": 1.1621159999999975
                },
                {
                    "name": "F#4",
                    "midi": 66,
                    "time": 178.19112000000175,
                    "velocity": 0.4015748031496063,
                    "duration": 1.1621159999999975
                },
                {
                    "name": "F#4",
                    "midi": 66,
                    "time": 179.35323600000174,
                    "velocity": 0.4094488188976378,
                    "duration": 0.6779009999999914
                },
                {
                    "name": "B3",
                    "midi": 59,
                    "time": 180.03113700000173,
                    "velocity": 0.3543307086614173,
                    "duration": 0.0968430000000069
                },
                {
                    "name": "C4",
                    "midi": 60,
                    "time": 180.12798000000174,
                    "velocity": 0.3937007874015748,
                    "duration": 0.29052899999999227
                },
                {
                    "name": "C#4",
                    "midi": 61,
                    "time": 180.41850900000173,
                    "velocity": 0.3543307086614173,
                    "duration": 0.0968430000000069
                },
                {
                    "name": "D#4",
                    "midi": 63,
                    "time": 180.51535200000174,
                    "velocity": 0.4015748031496063,
                    "duration": 0.7747439999999983
                },
                {
                    "name": "F3",
                    "midi": 53,
                    "time": 181.19325300000173,
                    "velocity": 0.3543307086614173,
                    "duration": 0.0968430000000069
                },
                {
                    "name": "D#4",
                    "midi": 63,
                    "time": 181.29009600000174,
                    "velocity": 0.4015748031496063,
                    "duration": 0.38737199999999916
                },
                {
                    "name": "F#3",
                    "midi": 54,
                    "time": 181.29009600000174,
                    "velocity": 0.3937007874015748,
                    "duration": 0.29052899999999227
                },
                {
                    "name": "G#3",
                    "midi": 56,
                    "time": 181.58062500000173,
                    "velocity": 0.3543307086614173,
                    "duration": 0.0968430000000069
                },
                {
                    "name": "A3",
                    "midi": 57,
                    "time": 181.67746800000174,
                    "velocity": 0.4015748031496063,
                    "duration": 1.1621159999999975
                },
                {
                    "name": "D3",
                    "midi": 50,
                    "time": 182.35536900000173,
                    "velocity": 0.3543307086614173,
                    "duration": 0.0968430000000069
                },
                {
                    "name": "D#3",
                    "midi": 51,
                    "time": 182.45221200000174,
                    "velocity": 0.3937007874015748,
                    "duration": 0.29052899999999227
                },
                {
                    "name": "E3",
                    "midi": 52,
                    "time": 182.74274100000173,
                    "velocity": 0.3543307086614173,
                    "duration": 0.0968430000000069
                },
                {
                    "name": "F#3",
                    "midi": 54,
                    "time": 182.83958400000174,
                    "velocity": 0.4015748031496063,
                    "duration": 1.1621159999999975
                },
                {
                    "name": "C#3",
                    "midi": 49,
                    "time": 183.51748500000173,
                    "velocity": 0.3543307086614173,
                    "duration": 0.0968430000000069
                },
                {
                    "name": "D3",
                    "midi": 50,
                    "time": 183.61432800000173,
                    "velocity": 0.3937007874015748,
                    "duration": 0.29052899999999227
                },
                {
                    "name": "E3",
                    "midi": 52,
                    "time": 183.90485700000173,
                    "velocity": 0.4015748031496063,
                    "duration": 0.0968430000000069
                },
                {
                    "name": "F#3",
                    "midi": 54,
                    "time": 184.00170000000173,
                    "velocity": 0.4330708661417323,
                    "duration": 0.38737199999999916
                },
                {
                    "name": "G3",
                    "midi": 55,
                    "time": 185.16381600000173,
                    "velocity": 0.31496062992125984,
                    "duration": 0.0968430000000069
                },
                {
                    "name": "A3",
                    "midi": 57,
                    "time": 185.26065900000174,
                    "velocity": 0.25196850393700787,
                    "duration": 0.0968430000000069
                },
                {
                    "name": "G3",
                    "midi": 55,
                    "time": 185.35750200000174,
                    "velocity": 0.2677165354330709,
                    "duration": 0.0968430000000069
                },
                {
                    "name": "D3",
                    "midi": 50,
                    "time": 185.45434500000175,
                    "velocity": 0.2677165354330709,
                    "duration": 0.0968430000000069
                },
                {
                    "name": "D4",
                    "midi": 62,
                    "time": 185.55118800000176,
                    "velocity": 0.31496062992125984,
                    "duration": 0.07263224999999807
                },
                {
                    "name": "D3",
                    "midi": 50,
                    "time": 185.84171700000175,
                    "velocity": 0.31496062992125984,
                    "duration": 0.07263224999999807
                },
                {
                    "name": "G3",
                    "midi": 55,
                    "time": 185.84171700000175,
                    "velocity": 0.31496062992125984,
                    "duration": 0.07263224999999807
                },
                {
                    "name": "C3",
                    "midi": 48,
                    "time": 185.93856000000176,
                    "velocity": 0.36220472440944884,
                    "duration": 0.07263224999999807
                },
                {
                    "name": "F#3",
                    "midi": 54,
                    "time": 185.93856000000176,
                    "velocity": 0.36220472440944884,
                    "duration": 0.07263224999999807
                },
                {
                    "name": "C4",
                    "midi": 60,
                    "time": 186.32593200000176,
                    "velocity": 0.33858267716535434,
                    "duration": 0.0968430000000069
                },
                {
                    "name": "D4",
                    "midi": 62,
                    "time": 186.42277500000176,
                    "velocity": 0.29133858267716534,
                    "duration": 0.0968430000000069
                },
                {
                    "name": "C4",
                    "midi": 60,
                    "time": 186.51961800000177,
                    "velocity": 0.29133858267716534,
                    "duration": 0.0968430000000069
                },
                {
                    "name": "A3",
                    "midi": 57,
                    "time": 186.61646100000178,
                    "velocity": 0.29133858267716534,
                    "duration": 0.0968430000000069
                },
                {
                    "name": "A4",
                    "midi": 69,
                    "time": 186.71330400000178,
                    "velocity": 0.3858267716535433,
                    "duration": 0.07263224999999807
                },
                {
                    "name": "C4",
                    "midi": 60,
                    "time": 187.00383300000178,
                    "velocity": 0.3464566929133858,
                    "duration": 0.07263224999999807
                },
                {
                    "name": "D3",
                    "midi": 50,
                    "time": 187.00383300000178,
                    "velocity": 0.3464566929133858,
                    "duration": 0.07263224999999807
                },
                {
                    "name": "A#3",
                    "midi": 58,
                    "time": 187.10067600000178,
                    "velocity": 0.3779527559055118,
                    "duration": 0.07263224999999807
                },
                {
                    "name": "D3",
                    "midi": 50,
                    "time": 187.10067600000178,
                    "velocity": 0.3779527559055118,
                    "duration": 0.07263224999999807
                },
                {
                    "name": "G3",
                    "midi": 55,
                    "time": 187.48804800000178,
                    "velocity": 0.31496062992125984,
                    "duration": 0.0968430000000069
                },
                {
                    "name": "A3",
                    "midi": 57,
                    "time": 187.5848910000018,
                    "velocity": 0.2677165354330709,
                    "duration": 0.0968430000000069
                },
                {
                    "name": "G3",
                    "midi": 55,
                    "time": 187.6817340000018,
                    "velocity": 0.2677165354330709,
                    "duration": 0.0968430000000069
                },
                {
                    "name": "D3",
                    "midi": 50,
                    "time": 187.7785770000018,
                    "velocity": 0.2677165354330709,
                    "duration": 0.0968430000000069
                },
                {
                    "name": "G4",
                    "midi": 67,
                    "time": 187.8754200000018,
                    "velocity": 0.3937007874015748,
                    "duration": 0.07263224999999807
                },
                {
                    "name": "F4",
                    "midi": 65,
                    "time": 188.1659490000018,
                    "velocity": 0.3464566929133858,
                    "duration": 0.07263224999999807
                },
                {
                    "name": "G3",
                    "midi": 55,
                    "time": 188.1659490000018,
                    "velocity": 0.3464566929133858,
                    "duration": 0.07263224999999807
                },
                {
                    "name": "D#4",
                    "midi": 63,
                    "time": 188.2627920000018,
                    "velocity": 0.3700787401574803,
                    "duration": 0.07263224999999807
                },
                {
                    "name": "G3",
                    "midi": 55,
                    "time": 188.2627920000018,
                    "velocity": 0.3700787401574803,
                    "duration": 0.07263224999999807
                },
                {
                    "name": "D4",
                    "midi": 62,
                    "time": 188.5533210000018,
                    "velocity": 0.31496062992125984,
                    "duration": 0.07263224999999807
                },
                {
                    "name": "G3",
                    "midi": 55,
                    "time": 188.5533210000018,
                    "velocity": 0.31496062992125984,
                    "duration": 0.07263224999999807
                },
                {
                    "name": "C4",
                    "midi": 60,
                    "time": 188.6501640000018,
                    "velocity": 0.3464566929133858,
                    "duration": 0.07263224999999807
                },
                {
                    "name": "G3",
                    "midi": 55,
                    "time": 188.6501640000018,
                    "velocity": 0.3464566929133858,
                    "duration": 0.07263224999999807
                },
                {
                    "name": "A#3",
                    "midi": 58,
                    "time": 188.9406930000018,
                    "velocity": 0.3937007874015748,
                    "duration": 0.07263224999999807
                },
                {
                    "name": "C#4",
                    "midi": 61,
                    "time": 189.0375360000018,
                    "velocity": 0.36220472440944884,
                    "duration": 0.07263224999999807
                },
                {
                    "name": "A3",
                    "midi": 57,
                    "time": 189.0375360000018,
                    "velocity": 0.36220472440944884,
                    "duration": 0.07263224999999807
                },
                {
                    "name": "G3",
                    "midi": 55,
                    "time": 189.3280650000018,
                    "velocity": 0.31496062992125984,
                    "duration": 0.07263224999999807
                },
                {
                    "name": "D4",
                    "midi": 62,
                    "time": 189.4249080000018,
                    "velocity": 0.3937007874015748,
                    "duration": 0.07263224999999807
                },
                {
                    "name": "F#3",
                    "midi": 54,
                    "time": 189.4249080000018,
                    "velocity": 0.3937007874015748,
                    "duration": 0.07263224999999807
                },
                {
                    "name": "D5",
                    "midi": 74,
                    "time": 189.8122800000018,
                    "velocity": 0.5669291338582677,
                    "duration": 0.6779009999999914
                },
                {
                    "name": "D4",
                    "midi": 62,
                    "time": 190.1996520000018,
                    "velocity": 0.48031496062992124,
                    "duration": 0.7747439999999983
                },
                {
                    "name": "C5",
                    "midi": 72,
                    "time": 190.4901810000018,
                    "velocity": 0.4566929133858268,
                    "duration": 0.0968430000000069
                },
                {
                    "name": "A#4",
                    "midi": 70,
                    "time": 190.5870240000018,
                    "velocity": 0.5118110236220472,
                    "duration": 0.07263224999999807
                },
                {
                    "name": "A4",
                    "midi": 69,
                    "time": 190.8775530000018,
                    "velocity": 0.4330708661417323,
                    "duration": 0.07263224999999807
                },
                {
                    "name": "A#4",
                    "midi": 70,
                    "time": 190.9743960000018,
                    "velocity": 0.5039370078740157,
                    "duration": 0.38737199999999916
                },
                {
                    "name": "G4",
                    "midi": 67,
                    "time": 190.9743960000018,
                    "velocity": 0.5039370078740157,
                    "duration": 0.07263224999999807
                },
                {
                    "name": "F4",
                    "midi": 65,
                    "time": 191.2649250000018,
                    "velocity": 0.4409448818897638,
                    "duration": 0.07263224999999807
                },
                {
                    "name": "D#4",
                    "midi": 63,
                    "time": 191.3617680000018,
                    "velocity": 0.5039370078740157,
                    "duration": 0.07263224999999807
                },
                {
                    "name": "D4",
                    "midi": 62,
                    "time": 191.6522970000018,
                    "velocity": 0.4409448818897638,
                    "duration": 0.07263224999999807
                },
                {
                    "name": "C4",
                    "midi": 60,
                    "time": 191.7491400000018,
                    "velocity": 0.5039370078740157,
                    "duration": 0.07263224999999807
                },
                {
                    "name": "F5",
                    "midi": 77,
                    "time": 192.1365120000018,
                    "velocity": 0.5354330708661418,
                    "duration": 0.6779009999999914
                },
                {
                    "name": "F4",
                    "midi": 65,
                    "time": 192.5238840000018,
                    "velocity": 0.48031496062992124,
                    "duration": 0.7747439999999983
                },
                {
                    "name": "D#5",
                    "midi": 75,
                    "time": 192.8144130000018,
                    "velocity": 0.4566929133858268,
                    "duration": 0.0968430000000069
                },
                {
                    "name": "D5",
                    "midi": 74,
                    "time": 192.9112560000018,
                    "velocity": 0.5118110236220472,
                    "duration": 0.07263224999999807
                },
                {
                    "name": "C5",
                    "midi": 72,
                    "time": 193.2017850000018,
                    "velocity": 0.4330708661417323,
                    "duration": 0.07263224999999807
                },
                {
                    "name": "A#4",
                    "midi": 70,
                    "time": 193.2986280000018,
                    "velocity": 0.5039370078740157,
                    "duration": 0.07263224999999807
                },
                {
                    "name": "D5",
                    "midi": 74,
                    "time": 193.2986280000018,
                    "velocity": 0.5039370078740157,
                    "duration": 0.38737199999999916
                },
                {
                    "name": "A4",
                    "midi": 69,
                    "time": 193.5891570000018,
                    "velocity": 0.4409448818897638,
                    "duration": 0.07263224999999807
                },
                {
                    "name": "G4",
                    "midi": 67,
                    "time": 193.6860000000018,
                    "velocity": 0.5039370078740157,
                    "duration": 0.07263224999999807
                },
                {
                    "name": "F4",
                    "midi": 65,
                    "time": 193.9765290000018,
                    "velocity": 0.4409448818897638,
                    "duration": 0.07263224999999807
                },
                {
                    "name": "E4",
                    "midi": 64,
                    "time": 194.0733720000018,
                    "velocity": 0.5039370078740157,
                    "duration": 0.07263224999999807
                },
                {
                    "name": "A5",
                    "midi": 81,
                    "time": 194.4607440000018,
                    "velocity": 0.5511811023622047,
                    "duration": 0.6779009999999914
                },
                {
                    "name": "A4",
                    "midi": 69,
                    "time": 194.8481160000018,
                    "velocity": 0.48031496062992124,
                    "duration": 0.7747439999999983
                },
                {
                    "name": "G5",
                    "midi": 79,
                    "time": 195.1386450000018,
                    "velocity": 0.4566929133858268,
                    "duration": 0.0968430000000069
                },
                {
                    "name": "F#5",
                    "midi": 78,
                    "time": 195.2354880000018,
                    "velocity": 0.5118110236220472,
                    "duration": 0.07263224999999807
                },
                {
                    "name": "D#5",
                    "midi": 75,
                    "time": 195.5260170000018,
                    "velocity": 0.4330708661417323,
                    "duration": 0.07263224999999807
                },
                {
                    "name": "D5",
                    "midi": 74,
                    "time": 195.6228600000018,
                    "velocity": 0.5039370078740157,
                    "duration": 0.07263224999999807
                },
                {
                    "name": "F#5",
                    "midi": 78,
                    "time": 195.6228600000018,
                    "velocity": 0.5039370078740157,
                    "duration": 0.38737199999999916
                },
                {
                    "name": "C5",
                    "midi": 72,
                    "time": 195.91338900000179,
                    "velocity": 0.4409448818897638,
                    "duration": 0.07263224999999807
                },
                {
                    "name": "G5",
                    "midi": 79,
                    "time": 196.0102320000018,
                    "velocity": 0.5039370078740157,
                    "duration": 0.0968430000000069
                },
                {
                    "name": "A#4",
                    "midi": 70,
                    "time": 196.0102320000018,
                    "velocity": 0.5039370078740157,
                    "duration": 0.07263224999999807
                },
                {
                    "name": "A4",
                    "midi": 69,
                    "time": 196.3007610000018,
                    "velocity": 0.4409448818897638,
                    "duration": 0.07263224999999807
                },
                {
                    "name": "G4",
                    "midi": 67,
                    "time": 196.39760400000182,
                    "velocity": 0.5039370078740157,
                    "duration": 0.07263224999999807
                },
                {
                    "name": "A#4",
                    "midi": 70,
                    "time": 196.78497600000182,
                    "velocity": 0.5590551181102362,
                    "duration": 0.38737199999999916
                },
                {
                    "name": "A4",
                    "midi": 69,
                    "time": 197.17234800000182,
                    "velocity": 0.4094488188976378,
                    "duration": 0.29052899999999227
                },
                {
                    "name": "C#5",
                    "midi": 73,
                    "time": 197.17234800000182,
                    "velocity": 0.4881889763779528,
                    "duration": 0.38737199999999916
                },
                {
                    "name": "G4",
                    "midi": 67,
                    "time": 197.4628770000018,
                    "velocity": 0.4566929133858268,
                    "duration": 0.0968430000000069
                },
                {
                    "name": "F#4",
                    "midi": 66,
                    "time": 197.55972000000182,
                    "velocity": 0.4409448818897638,
                    "duration": 0.1936860000000138
                },
                {
                    "name": "D5",
                    "midi": 74,
                    "time": 197.55972000000182,
                    "velocity": 0.48031496062992124,
                    "duration": 0.1936860000000138
                },
                {
                    "name": "D#4",
                    "midi": 63,
                    "time": 197.85024900000184,
                    "velocity": 0.4015748031496063,
                    "duration": 0.07263224999999807
                },
                {
                    "name": "D4",
                    "midi": 62,
                    "time": 197.94709200000185,
                    "velocity": 0.4645669291338583,
                    "duration": 0.1936860000000138
                },
                {
                    "name": "F#4",
                    "midi": 66,
                    "time": 197.94709200000185,
                    "velocity": 0.4645669291338583,
                    "duration": 0.3873720000000276
                },
                {
                    "name": "C4",
                    "midi": 60,
                    "time": 198.23762100000187,
                    "velocity": 0.3858267716535433,
                    "duration": 0.07263224999999807
                },
                {
                    "name": "A#3",
                    "midi": 58,
                    "time": 198.33446400000187,
                    "velocity": 0.4330708661417323,
                    "duration": 0.1936860000000138
                },
                {
                    "name": "G4",
                    "midi": 67,
                    "time": 198.33446400000187,
                    "velocity": 0.4330708661417323,
                    "duration": 0.1936860000000138
                },
                {
                    "name": "A3",
                    "midi": 57,
                    "time": 198.6249930000019,
                    "velocity": 0.3700787401574803,
                    "duration": 0.07263224999999807
                },
                {
                    "name": "G3",
                    "midi": 55,
                    "time": 198.7218360000019,
                    "velocity": 0.4251968503937008,
                    "duration": 0.38737199999999916
                },
                {
                    "name": "A#3",
                    "midi": 58,
                    "time": 199.1092080000019,
                    "velocity": 0.4409448818897638,
                    "duration": 0.38737199999999916
                },
                {
                    "name": "C#4",
                    "midi": 61,
                    "time": 199.4965800000019,
                    "velocity": 0.3700787401574803,
                    "duration": 0.3873720000000276
                },
                {
                    "name": "A3",
                    "midi": 57,
                    "time": 199.4965800000019,
                    "velocity": 0.3700787401574803,
                    "duration": 0.1936860000000138
                },
                {
                    "name": "G3",
                    "midi": 55,
                    "time": 199.6902660000019,
                    "velocity": 0.2992125984251969,
                    "duration": 0.1936860000000138
                },
                {
                    "name": "F#3",
                    "midi": 54,
                    "time": 199.98079500000193,
                    "velocity": 0.2755905511811024,
                    "duration": 0.6779009999999914
                },
                {
                    "name": "D4",
                    "midi": 62,
                    "time": 199.98079500000193,
                    "velocity": 0.33070866141732286,
                    "duration": 0.6779009999999914
                }
            ],
            "controlChanges": {
                "91": [
                    {
                        "number": 91,
                        "time": 0,
                        "value": 1
                    }
                ]
            },
            "id": 1,
            "name": "Piano right",
            "instrumentNumber": 0,
            "instrument": "acoustic grand piano",
            "instrumentFamily": "piano",
            "channelNumber": 0,
            "isPercussion": false
        },
        {
            "startTime": 0,
            "duration": 200.65869600000093,
            "length": 742,
            "notes": [
                {
                    "name": "G1",
                    "midi": 31,
                    "time": 0,
                    "velocity": 0.3464566929133858,
                    "duration": 0.07263225
                },
                {
                    "name": "A#1",
                    "midi": 34,
                    "time": 1.065273,
                    "velocity": 0.2755905511811024,
                    "duration": 0.07263225000000006
                },
                {
                    "name": "A1",
                    "midi": 33,
                    "time": 1.162116,
                    "velocity": 0.31496062992125984,
                    "duration": 0.07263225000000006
                },
                {
                    "name": "F#1",
                    "midi": 30,
                    "time": 2.227389,
                    "velocity": 0.25984251968503935,
                    "duration": 0.07263224999999984
                },
                {
                    "name": "G1",
                    "midi": 31,
                    "time": 2.324232,
                    "velocity": 0.31496062992125984,
                    "duration": 0.07263224999999984
                },
                {
                    "name": "A#1",
                    "midi": 34,
                    "time": 3.3895049999999998,
                    "velocity": 0.25196850393700787,
                    "duration": 0.07263224999999984
                },
                {
                    "name": "C2",
                    "midi": 36,
                    "time": 3.4863479999999996,
                    "velocity": 0.29133858267716534,
                    "duration": 0.07263224999999984
                },
                {
                    "name": "D2",
                    "midi": 38,
                    "time": 3.7768769999999994,
                    "velocity": 0.25984251968503935,
                    "duration": 0.07263224999999984
                },
                {
                    "name": "D#2",
                    "midi": 39,
                    "time": 3.873719999999999,
                    "velocity": 0.2992125984251969,
                    "duration": 0.07263224999999984
                },
                {
                    "name": "D#3",
                    "midi": 51,
                    "time": 4.261091999999999,
                    "velocity": 0.31496062992125984,
                    "duration": 0.07263224999999984
                },
                {
                    "name": "D2",
                    "midi": 38,
                    "time": 4.648463999999999,
                    "velocity": 0.3543307086614173,
                    "duration": 0.07263224999999984
                },
                {
                    "name": "D3",
                    "midi": 50,
                    "time": 4.648463999999999,
                    "velocity": 0.3543307086614173,
                    "duration": 0.07263224999999984
                },
                {
                    "name": "F#1",
                    "midi": 30,
                    "time": 5.423207999999999,
                    "velocity": 0.31496062992125984,
                    "duration": 0.38737200000000005
                },
                {
                    "name": "G1",
                    "midi": 31,
                    "time": 5.810579999999999,
                    "velocity": 0.3464566929133858,
                    "duration": 0.19368599999999958
                },
                {
                    "name": "G3",
                    "midi": 55,
                    "time": 6.197951999999998,
                    "velocity": 0.47244094488188976,
                    "duration": 0.6779010000000003
                },
                {
                    "name": "F3",
                    "midi": 53,
                    "time": 6.875852999999998,
                    "velocity": 0.4015748031496063,
                    "duration": 0.09684299999999979
                },
                {
                    "name": "D#3",
                    "midi": 51,
                    "time": 6.972695999999998,
                    "velocity": 0.4566929133858268,
                    "duration": 0.07263224999999984
                },
                {
                    "name": "D3",
                    "midi": 50,
                    "time": 7.2632249999999985,
                    "velocity": 0.4015748031496063,
                    "duration": 0.07263224999999984
                },
                {
                    "name": "C3",
                    "midi": 48,
                    "time": 7.360067999999998,
                    "velocity": 0.44881889763779526,
                    "duration": 0.07263224999999984
                },
                {
                    "name": "A#2",
                    "midi": 46,
                    "time": 7.6505969999999985,
                    "velocity": 0.3937007874015748,
                    "duration": 0.07263224999999984
                },
                {
                    "name": "A1",
                    "midi": 33,
                    "time": 7.747439999999998,
                    "velocity": 0.31496062992125984,
                    "duration": 0.38737200000000005
                },
                {
                    "name": "A#1",
                    "midi": 34,
                    "time": 8.134811999999998,
                    "velocity": 0.3464566929133858,
                    "duration": 0.19368599999999958
                },
                {
                    "name": "A#3",
                    "midi": 58,
                    "time": 8.522183999999998,
                    "velocity": 0.47244094488188976,
                    "duration": 0.6779010000000003
                },
                {
                    "name": "A3",
                    "midi": 57,
                    "time": 9.200084999999998,
                    "velocity": 0.4015748031496063,
                    "duration": 0.09684299999999979
                },
                {
                    "name": "G3",
                    "midi": 55,
                    "time": 9.296927999999998,
                    "velocity": 0.4566929133858268,
                    "duration": 0.07263224999999984
                },
                {
                    "name": "F3",
                    "midi": 53,
                    "time": 9.587456999999997,
                    "velocity": 0.4015748031496063,
                    "duration": 0.07263224999999984
                },
                {
                    "name": "E3",
                    "midi": 52,
                    "time": 9.684299999999997,
                    "velocity": 0.44881889763779526,
                    "duration": 0.07263224999999984
                },
                {
                    "name": "D3",
                    "midi": 50,
                    "time": 9.974828999999996,
                    "velocity": 0.3937007874015748,
                    "duration": 0.07263224999999984
                },
                {
                    "name": "C#2",
                    "midi": 37,
                    "time": 10.071671999999996,
                    "velocity": 0.31496062992125984,
                    "duration": 0.38737199999999916
                },
                {
                    "name": "D2",
                    "midi": 38,
                    "time": 10.459043999999995,
                    "velocity": 0.3464566929133858,
                    "duration": 0.19368599999999958
                },
                {
                    "name": "D4",
                    "midi": 62,
                    "time": 10.846415999999994,
                    "velocity": 0.4566929133858268,
                    "duration": 0.6779010000000003
                },
                {
                    "name": "C4",
                    "midi": 60,
                    "time": 11.524316999999995,
                    "velocity": 0.4015748031496063,
                    "duration": 0.07263224999999984
                },
                {
                    "name": "A#3",
                    "midi": 58,
                    "time": 11.621159999999994,
                    "velocity": 0.4566929133858268,
                    "duration": 0.07263224999999984
                },
                {
                    "name": "A3",
                    "midi": 57,
                    "time": 11.911688999999994,
                    "velocity": 0.4015748031496063,
                    "duration": 0.07263224999999984
                },
                {
                    "name": "G3",
                    "midi": 55,
                    "time": 12.008531999999994,
                    "velocity": 0.44881889763779526,
                    "duration": 0.07263224999999984
                },
                {
                    "name": "F3",
                    "midi": 53,
                    "time": 12.299060999999993,
                    "velocity": 0.3937007874015748,
                    "duration": 0.07263224999999984
                },
                {
                    "name": "E3",
                    "midi": 52,
                    "time": 12.395903999999993,
                    "velocity": 0.44881889763779526,
                    "duration": 0.07263224999999984
                },
                {
                    "name": "D#3",
                    "midi": 51,
                    "time": 12.686432999999992,
                    "velocity": 0.3937007874015748,
                    "duration": 0.07263224999999984
                },
                {
                    "name": "D3",
                    "midi": 50,
                    "time": 12.783275999999992,
                    "velocity": 0.4566929133858268,
                    "duration": 0.07263224999999984
                },
                {
                    "name": "D3",
                    "midi": 50,
                    "time": 13.170647999999991,
                    "velocity": 0.47244094488188976,
                    "duration": 0.6779010000000003
                },
                {
                    "name": "C3",
                    "midi": 48,
                    "time": 13.848548999999991,
                    "velocity": 0.3543307086614173,
                    "duration": 0.09684299999999979
                },
                {
                    "name": "A#2",
                    "midi": 46,
                    "time": 13.945391999999991,
                    "velocity": 0.4015748031496063,
                    "duration": 0.07263224999999984
                },
                {
                    "name": "A2",
                    "midi": 45,
                    "time": 14.23592099999999,
                    "velocity": 0.3464566929133858,
                    "duration": 0.07263224999999984
                },
                {
                    "name": "G2",
                    "midi": 43,
                    "time": 14.33276399999999,
                    "velocity": 0.4094488188976378,
                    "duration": 0.07263224999999984
                },
                {
                    "name": "F2",
                    "midi": 41,
                    "time": 14.62329299999999,
                    "velocity": 0.33070866141732286,
                    "duration": 0.07263224999999984
                },
                {
                    "name": "E2",
                    "midi": 40,
                    "time": 14.72013599999999,
                    "velocity": 0.3779527559055118,
                    "duration": 0.07263224999999984
                },
                {
                    "name": "D#2",
                    "midi": 39,
                    "time": 15.010664999999989,
                    "velocity": 0.2755905511811024,
                    "duration": 0.07263224999999984
                },
                {
                    "name": "D2",
                    "midi": 38,
                    "time": 15.107507999999989,
                    "velocity": 0.3228346456692913,
                    "duration": 0.07263224999999984
                },
                {
                    "name": "C2",
                    "midi": 36,
                    "time": 15.398036999999988,
                    "velocity": 0.2283464566929134,
                    "duration": 0.07263224999999984
                },
                {
                    "name": "A#1",
                    "midi": 34,
                    "time": 15.494879999999988,
                    "velocity": 0.2755905511811024,
                    "duration": 0.07263224999999984
                },
                {
                    "name": "A1",
                    "midi": 33,
                    "time": 15.785408999999987,
                    "velocity": 0.2204724409448819,
                    "duration": 0.07263224999999984
                },
                {
                    "name": "G1",
                    "midi": 31,
                    "time": 15.882251999999987,
                    "velocity": 0.2755905511811024,
                    "duration": 0.07263224999999984
                },
                {
                    "name": "A#1",
                    "midi": 34,
                    "time": 16.172780999999986,
                    "velocity": 0.2755905511811024,
                    "duration": 0.07263225000000162
                },
                {
                    "name": "A1",
                    "midi": 33,
                    "time": 16.26962399999999,
                    "velocity": 0.31496062992125984,
                    "duration": 0.07263225000000162
                },
                {
                    "name": "F#1",
                    "midi": 30,
                    "time": 17.33489699999999,
                    "velocity": 0.25984251968503935,
                    "duration": 0.07263225000000162
                },
                {
                    "name": "G1",
                    "midi": 31,
                    "time": 17.431739999999994,
                    "velocity": 0.31496062992125984,
                    "duration": 0.07263225000000162
                },
                {
                    "name": "A#1",
                    "midi": 34,
                    "time": 18.497012999999995,
                    "velocity": 0.25196850393700787,
                    "duration": 0.07263225000000162
                },
                {
                    "name": "C2",
                    "midi": 36,
                    "time": 18.593856,
                    "velocity": 0.29133858267716534,
                    "duration": 0.07263225000000162
                },
                {
                    "name": "D2",
                    "midi": 38,
                    "time": 18.884385,
                    "velocity": 0.25984251968503935,
                    "duration": 0.07263225000000162
                },
                {
                    "name": "D#2",
                    "midi": 39,
                    "time": 18.981228000000005,
                    "velocity": 0.2992125984251969,
                    "duration": 0.07263225000000162
                },
                {
                    "name": "D#3",
                    "midi": 51,
                    "time": 19.368600000000008,
                    "velocity": 0.31496062992125984,
                    "duration": 0.07263225000000162
                },
                {
                    "name": "D2",
                    "midi": 38,
                    "time": 19.75597200000001,
                    "velocity": 0.3543307086614173,
                    "duration": 0.09684299999999979
                },
                {
                    "name": "D3",
                    "midi": 50,
                    "time": 19.75597200000001,
                    "velocity": 0.3543307086614173,
                    "duration": 0.09684299999999979
                },
                {
                    "name": "F#1",
                    "midi": 30,
                    "time": 20.53071600000001,
                    "velocity": 0.31496062992125984,
                    "duration": 0.38737199999999916
                },
                {
                    "name": "G1",
                    "midi": 31,
                    "time": 20.918088000000008,
                    "velocity": 0.3464566929133858,
                    "duration": 0.19368599999999958
                },
                {
                    "name": "G3",
                    "midi": 55,
                    "time": 21.305460000000007,
                    "velocity": 0.47244094488188976,
                    "duration": 0.6779009999999985
                },
                {
                    "name": "F3",
                    "midi": 53,
                    "time": 21.983361000000006,
                    "velocity": 0.4015748031496063,
                    "duration": 0.09684299999999979
                },
                {
                    "name": "D#3",
                    "midi": 51,
                    "time": 22.080204000000005,
                    "velocity": 0.4566929133858268,
                    "duration": 0.07263225000000162
                },
                {
                    "name": "D3",
                    "midi": 50,
                    "time": 22.37073300000001,
                    "velocity": 0.4015748031496063,
                    "duration": 0.07263225000000162
                },
                {
                    "name": "C3",
                    "midi": 48,
                    "time": 22.46757600000001,
                    "velocity": 0.44881889763779526,
                    "duration": 0.07263225000000162
                },
                {
                    "name": "A#2",
                    "midi": 46,
                    "time": 22.758105000000015,
                    "velocity": 0.3937007874015748,
                    "duration": 0.07263225000000162
                },
                {
                    "name": "A1",
                    "midi": 33,
                    "time": 22.854948000000018,
                    "velocity": 0.31496062992125984,
                    "duration": 0.38737199999999916
                },
                {
                    "name": "A#1",
                    "midi": 34,
                    "time": 23.242320000000017,
                    "velocity": 0.3464566929133858,
                    "duration": 0.19368599999999958
                },
                {
                    "name": "A#3",
                    "midi": 58,
                    "time": 23.629692000000016,
                    "velocity": 0.47244094488188976,
                    "duration": 0.6779009999999985
                },
                {
                    "name": "A3",
                    "midi": 57,
                    "time": 24.307593000000015,
                    "velocity": 0.4015748031496063,
                    "duration": 0.09684299999999979
                },
                {
                    "name": "G3",
                    "midi": 55,
                    "time": 24.404436000000015,
                    "velocity": 0.4566929133858268,
                    "duration": 0.07263225000000162
                },
                {
                    "name": "F3",
                    "midi": 53,
                    "time": 24.694965000000018,
                    "velocity": 0.4015748031496063,
                    "duration": 0.07263225000000162
                },
                {
                    "name": "E3",
                    "midi": 52,
                    "time": 24.79180800000002,
                    "velocity": 0.44881889763779526,
                    "duration": 0.07263225000000162
                },
                {
                    "name": "D3",
                    "midi": 50,
                    "time": 25.082337000000024,
                    "velocity": 0.3937007874015748,
                    "duration": 0.07263225000000162
                },
                {
                    "name": "C#2",
                    "midi": 37,
                    "time": 25.179180000000027,
                    "velocity": 0.31496062992125984,
                    "duration": 0.38737199999999916
                },
                {
                    "name": "D2",
                    "midi": 38,
                    "time": 25.566552000000026,
                    "velocity": 0.3464566929133858,
                    "duration": 0.19368599999999958
                },
                {
                    "name": "D4",
                    "midi": 62,
                    "time": 25.953924000000026,
                    "velocity": 0.4566929133858268,
                    "duration": 0.6779009999999985
                },
                {
                    "name": "C4",
                    "midi": 60,
                    "time": 26.631825000000024,
                    "velocity": 0.4015748031496063,
                    "duration": 0.09684299999999979
                },
                {
                    "name": "A#3",
                    "midi": 58,
                    "time": 26.728668000000024,
                    "velocity": 0.4566929133858268,
                    "duration": 0.07263225000000162
                },
                {
                    "name": "A3",
                    "midi": 57,
                    "time": 27.019197000000027,
                    "velocity": 0.4015748031496063,
                    "duration": 0.07263225000000162
                },
                {
                    "name": "G3",
                    "midi": 55,
                    "time": 27.11604000000003,
                    "velocity": 0.44881889763779526,
                    "duration": 0.07263225000000162
                },
                {
                    "name": "F3",
                    "midi": 53,
                    "time": 27.406569000000033,
                    "velocity": 0.3937007874015748,
                    "duration": 0.07263225000000162
                },
                {
                    "name": "E3",
                    "midi": 52,
                    "time": 27.503412000000036,
                    "velocity": 0.44881889763779526,
                    "duration": 0.07263225000000162
                },
                {
                    "name": "D#3",
                    "midi": 51,
                    "time": 27.79394100000004,
                    "velocity": 0.3937007874015748,
                    "duration": 0.07263225000000162
                },
                {
                    "name": "D3",
                    "midi": 50,
                    "time": 27.890784000000043,
                    "velocity": 0.4566929133858268,
                    "duration": 0.07263225000000162
                },
                {
                    "name": "D3",
                    "midi": 50,
                    "time": 28.278156000000045,
                    "velocity": 0.47244094488188976,
                    "duration": 0.6779009999999985
                },
                {
                    "name": "C3",
                    "midi": 48,
                    "time": 28.956057000000044,
                    "velocity": 0.3543307086614173,
                    "duration": 0.09684299999999979
                },
                {
                    "name": "A#2",
                    "midi": 46,
                    "time": 29.052900000000044,
                    "velocity": 0.4015748031496063,
                    "duration": 0.07263225000000162
                },
                {
                    "name": "A2",
                    "midi": 45,
                    "time": 29.343429000000047,
                    "velocity": 0.3464566929133858,
                    "duration": 0.07263225000000162
                },
                {
                    "name": "G2",
                    "midi": 43,
                    "time": 29.44027200000005,
                    "velocity": 0.4094488188976378,
                    "duration": 0.07263225000000162
                },
                {
                    "name": "F2",
                    "midi": 41,
                    "time": 29.730801000000053,
                    "velocity": 0.3543307086614173,
                    "duration": 0.07263225000000162
                },
                {
                    "name": "E2",
                    "midi": 40,
                    "time": 29.827644000000056,
                    "velocity": 0.3937007874015748,
                    "duration": 0.07263225000000162
                },
                {
                    "name": "D#2",
                    "midi": 39,
                    "time": 30.11817300000006,
                    "velocity": 0.3937007874015748,
                    "duration": 0.07263225000000162
                },
                {
                    "name": "D2",
                    "midi": 38,
                    "time": 30.215016000000062,
                    "velocity": 0.3937007874015748,
                    "duration": 0.19368599999999958
                },
                {
                    "name": "D2",
                    "midi": 38,
                    "time": 30.98976000000006,
                    "velocity": 0.31496062992125984,
                    "duration": 0.38737199999999916
                },
                {
                    "name": "A#2",
                    "midi": 46,
                    "time": 30.98976000000006,
                    "velocity": 0.31496062992125984,
                    "duration": 0.7747439999999983
                },
                {
                    "name": "D#2",
                    "midi": 39,
                    "time": 31.37713200000006,
                    "velocity": 0.31496062992125984,
                    "duration": 0.38737199999999916
                },
                {
                    "name": "D2",
                    "midi": 38,
                    "time": 32.15187600000006,
                    "velocity": 0.31496062992125984,
                    "duration": 0.38737199999999916
                },
                {
                    "name": "A#2",
                    "midi": 46,
                    "time": 32.15187600000006,
                    "velocity": 0.31496062992125984,
                    "duration": 0.7747439999999983
                },
                {
                    "name": "D#2",
                    "midi": 39,
                    "time": 32.53924800000006,
                    "velocity": 0.31496062992125984,
                    "duration": 0.38737199999999916
                },
                {
                    "name": "C2",
                    "midi": 36,
                    "time": 33.26557050000006,
                    "velocity": 0.25984251968503935,
                    "duration": 0.8231655000000018
                },
                {
                    "name": "D#3",
                    "midi": 51,
                    "time": 33.31399200000006,
                    "velocity": 0.31496062992125984,
                    "duration": 1.1621159999999975
                },
                {
                    "name": "C3",
                    "midi": 48,
                    "time": 34.08873600000006,
                    "velocity": 0.31496062992125984,
                    "duration": 0.38737199999999916
                },
                {
                    "name": "F3",
                    "midi": 53,
                    "time": 34.47610800000006,
                    "velocity": 0.28346456692913385,
                    "duration": 0.29052899999999937
                },
                {
                    "name": "F2",
                    "midi": 41,
                    "time": 34.47610800000006,
                    "velocity": 0.28346456692913385,
                    "duration": 0.38737199999999916
                },
                {
                    "name": "D#3",
                    "midi": 51,
                    "time": 34.76663700000006,
                    "velocity": 0.25196850393700787,
                    "duration": 0.09684299999999979
                },
                {
                    "name": "A#2",
                    "midi": 46,
                    "time": 34.86348000000006,
                    "velocity": 0.29133858267716534,
                    "duration": 0.19368599999999958
                },
                {
                    "name": "D3",
                    "midi": 50,
                    "time": 34.86348000000006,
                    "velocity": 0.29133858267716534,
                    "duration": 0.19368599999999958
                },
                {
                    "name": "F2",
                    "midi": 41,
                    "time": 35.58980250000006,
                    "velocity": 0.2204724409448819,
                    "duration": 0.4357935000000026
                },
                {
                    "name": "C#3",
                    "midi": 49,
                    "time": 35.61401325000006,
                    "velocity": 0.25196850393700787,
                    "duration": 0.4115827500000009
                },
                {
                    "name": "A3",
                    "midi": 57,
                    "time": 35.638224000000065,
                    "velocity": 0.28346456692913385,
                    "duration": 0.38737199999999916
                },
                {
                    "name": "A#3",
                    "midi": 58,
                    "time": 36.025596000000064,
                    "velocity": 0.31496062992125984,
                    "duration": 0.38737199999999916
                },
                {
                    "name": "D3",
                    "midi": 50,
                    "time": 36.025596000000064,
                    "velocity": 0.31496062992125984,
                    "duration": 0.38737199999999916
                },
                {
                    "name": "F2",
                    "midi": 41,
                    "time": 36.751918500000066,
                    "velocity": 0.2283464566929134,
                    "duration": 0.4357935000000026
                },
                {
                    "name": "C#3",
                    "midi": 49,
                    "time": 36.77612925000007,
                    "velocity": 0.25196850393700787,
                    "duration": 0.4115827500000009
                },
                {
                    "name": "A3",
                    "midi": 57,
                    "time": 36.80034000000007,
                    "velocity": 0.28346456692913385,
                    "duration": 0.38737199999999916
                },
                {
                    "name": "A#3",
                    "midi": 58,
                    "time": 37.18771200000007,
                    "velocity": 0.31496062992125984,
                    "duration": 0.38737199999999916
                },
                {
                    "name": "D3",
                    "midi": 50,
                    "time": 37.18771200000007,
                    "velocity": 0.31496062992125984,
                    "duration": 0.38737199999999916
                },
                {
                    "name": "A#2",
                    "midi": 46,
                    "time": 37.91403450000007,
                    "velocity": 0.25984251968503935,
                    "duration": 0.4357935000000026
                },
                {
                    "name": "F3",
                    "midi": 53,
                    "time": 37.93824525000007,
                    "velocity": 0.25984251968503935,
                    "duration": 0.79895475
                },
                {
                    "name": "D4",
                    "midi": 62,
                    "time": 37.962456000000074,
                    "velocity": 0.31496062992125984,
                    "duration": 0.38737199999999916
                },
                {
                    "name": "D4",
                    "midi": 62,
                    "time": 38.34982800000007,
                    "velocity": 0.31496062992125984,
                    "duration": 0.7747439999999983
                },
                {
                    "name": "G3",
                    "midi": 55,
                    "time": 38.73720000000007,
                    "velocity": 0.31496062992125984,
                    "duration": 0.38737199999999916
                },
                {
                    "name": "C4",
                    "midi": 60,
                    "time": 39.12457200000007,
                    "velocity": 0.28346456692913385,
                    "duration": 0.29052899999999937
                },
                {
                    "name": "C3",
                    "midi": 48,
                    "time": 39.12457200000007,
                    "velocity": 0.28346456692913385,
                    "duration": 0.38737199999999916
                },
                {
                    "name": "A#3",
                    "midi": 58,
                    "time": 39.41510100000007,
                    "velocity": 0.25196850393700787,
                    "duration": 0.09684299999999979
                },
                {
                    "name": "F3",
                    "midi": 53,
                    "time": 39.51194400000007,
                    "velocity": 0.29133858267716534,
                    "duration": 0.19368599999999958
                },
                {
                    "name": "A3",
                    "midi": 57,
                    "time": 39.51194400000007,
                    "velocity": 0.29133858267716534,
                    "duration": 0.19368599999999958
                },
                {
                    "name": "D3",
                    "midi": 50,
                    "time": 40.23826650000007,
                    "velocity": 0.25196850393700787,
                    "duration": 0.36316125000000454
                },
                {
                    "name": "A#3",
                    "midi": 58,
                    "time": 40.262477250000074,
                    "velocity": 0.28346456692913385,
                    "duration": 0.3389505000000028
                },
                {
                    "name": "F4",
                    "midi": 65,
                    "time": 40.286688000000076,
                    "velocity": 0.31496062992125984,
                    "duration": 0.3954422500000092
                },
                {
                    "name": "D#3",
                    "midi": 51,
                    "time": 40.60142775000008,
                    "velocity": 0.2125984251968504,
                    "duration": 0.46000425000001144
                },
                {
                    "name": "F#3",
                    "midi": 54,
                    "time": 40.62563850000008,
                    "velocity": 0.25984251968503935,
                    "duration": 0.4357935000000097
                },
                {
                    "name": "A#3",
                    "midi": 58,
                    "time": 40.64984925000008,
                    "velocity": 0.31496062992125984,
                    "duration": 0.411582750000008
                },
                {
                    "name": "F#4",
                    "midi": 66,
                    "time": 40.67406000000008,
                    "velocity": 0.31496062992125984,
                    "duration": 0.38737200000000627
                },
                {
                    "name": "D3",
                    "midi": 50,
                    "time": 41.40038250000009,
                    "velocity": 0.25984251968503935,
                    "duration": 0.2905290000000065
                },
                {
                    "name": "A#3",
                    "midi": 58,
                    "time": 41.42459325000009,
                    "velocity": 0.28346456692913385,
                    "duration": 0.3389505000000028
                },
                {
                    "name": "F4",
                    "midi": 65,
                    "time": 41.448804000000095,
                    "velocity": 0.31496062992125984,
                    "duration": 0.3147397500000011
                },
                {
                    "name": "D#3",
                    "midi": 51,
                    "time": 41.763543750000096,
                    "velocity": 0.2125984251968504,
                    "duration": 0.46000425000000433
                },
                {
                    "name": "F#3",
                    "midi": 54,
                    "time": 41.7877545000001,
                    "velocity": 0.2440944881889764,
                    "duration": 0.4357935000000026
                },
                {
                    "name": "A#3",
                    "midi": 58,
                    "time": 41.8119652500001,
                    "velocity": 0.2755905511811024,
                    "duration": 0.4115827500000009
                },
                {
                    "name": "F#4",
                    "midi": 66,
                    "time": 41.8361760000001,
                    "velocity": 0.31496062992125984,
                    "duration": 0.38737199999999916
                },
                {
                    "name": "F#3",
                    "midi": 54,
                    "time": 42.5624985000001,
                    "velocity": 0.25984251968503935,
                    "duration": 0.4357935000000026
                },
                {
                    "name": "C#4",
                    "midi": 61,
                    "time": 42.586709250000105,
                    "velocity": 0.25984251968503935,
                    "duration": 0.79895475
                },
                {
                    "name": "A#4",
                    "midi": 70,
                    "time": 42.61092000000011,
                    "velocity": 0.31496062992125984,
                    "duration": 0.38737199999999916
                },
                {
                    "name": "A#4",
                    "midi": 70,
                    "time": 42.998292000000106,
                    "velocity": 0.31496062992125984,
                    "duration": 0.7747439999999983
                },
                {
                    "name": "D#4",
                    "midi": 63,
                    "time": 43.385664000000105,
                    "velocity": 0.31496062992125984,
                    "duration": 0.38737199999999916
                },
                {
                    "name": "F#4",
                    "midi": 66,
                    "time": 43.773036000000104,
                    "velocity": 0.28346456692913385,
                    "duration": 0.38737199999999916
                },
                {
                    "name": "G#3",
                    "midi": 56,
                    "time": 43.773036000000104,
                    "velocity": 0.28346456692913385,
                    "duration": 0.38737199999999916
                },
                {
                    "name": "C#4",
                    "midi": 61,
                    "time": 44.1604080000001,
                    "velocity": 0.29133858267716534,
                    "duration": 0.19368599999999958
                },
                {
                    "name": "F4",
                    "midi": 65,
                    "time": 44.1604080000001,
                    "velocity": 0.29133858267716534,
                    "duration": 0.19368599999999958
                },
                {
                    "name": "G#2",
                    "midi": 44,
                    "time": 44.886730500000105,
                    "velocity": 0.2204724409448819,
                    "duration": 0.4357935000000026
                },
                {
                    "name": "D#3",
                    "midi": 51,
                    "time": 44.91094125000011,
                    "velocity": 0.25196850393700787,
                    "duration": 0.4115827500000009
                },
                {
                    "name": "C4",
                    "midi": 60,
                    "time": 44.93515200000011,
                    "velocity": 0.28346456692913385,
                    "duration": 0.38737199999999916
                },
                {
                    "name": "C#4",
                    "midi": 61,
                    "time": 45.32252400000011,
                    "velocity": 0.31496062992125984,
                    "duration": 0.38737199999999916
                },
                {
                    "name": "F3",
                    "midi": 53,
                    "time": 45.32252400000011,
                    "velocity": 0.31496062992125984,
                    "duration": 0.38737199999999916
                },
                {
                    "name": "G#2",
                    "midi": 44,
                    "time": 46.04884650000011,
                    "velocity": 0.2283464566929134,
                    "duration": 0.4357935000000026
                },
                {
                    "name": "D#3",
                    "midi": 51,
                    "time": 46.07305725000011,
                    "velocity": 0.25196850393700787,
                    "duration": 0.4115827500000009
                },
                {
                    "name": "C4",
                    "midi": 60,
                    "time": 46.09726800000011,
                    "velocity": 0.28346456692913385,
                    "duration": 0.38737199999999916
                },
                {
                    "name": "C#4",
                    "midi": 61,
                    "time": 46.48464000000011,
                    "velocity": 0.31496062992125984,
                    "duration": 0.38737199999999916
                },
                {
                    "name": "F3",
                    "midi": 53,
                    "time": 46.48464000000011,
                    "velocity": 0.31496062992125984,
                    "duration": 0.38737199999999916
                },
                {
                    "name": "C#3",
                    "midi": 49,
                    "time": 47.210962500000115,
                    "velocity": 0.25984251968503935,
                    "duration": 0.4357935000000026
                },
                {
                    "name": "G#3",
                    "midi": 56,
                    "time": 47.235173250000116,
                    "velocity": 0.25984251968503935,
                    "duration": 0.79895475
                },
                {
                    "name": "F4",
                    "midi": 65,
                    "time": 47.25938400000012,
                    "velocity": 0.31496062992125984,
                    "duration": 0.38737199999999916
                },
                {
                    "name": "F4",
                    "midi": 65,
                    "time": 47.64675600000012,
                    "velocity": 0.31496062992125984,
                    "duration": 0.7747439999999983
                },
                {
                    "name": "A#3",
                    "midi": 58,
                    "time": 48.034128000000116,
                    "velocity": 0.31496062992125984,
                    "duration": 0.38737199999999916
                },
                {
                    "name": "C#4",
                    "midi": 61,
                    "time": 48.421500000000115,
                    "velocity": 0.28346456692913385,
                    "duration": 0.38737199999999916
                },
                {
                    "name": "D#3",
                    "midi": 51,
                    "time": 48.421500000000115,
                    "velocity": 0.28346456692913385,
                    "duration": 0.38737199999999916
                },
                {
                    "name": "G#3",
                    "midi": 56,
                    "time": 48.808872000000115,
                    "velocity": 0.29133858267716534,
                    "duration": 0.19368599999999958
                },
                {
                    "name": "C4",
                    "midi": 60,
                    "time": 48.808872000000115,
                    "velocity": 0.29133858267716534,
                    "duration": 0.19368599999999958
                },
                {
                    "name": "F#3",
                    "midi": 54,
                    "time": 49.196244000000114,
                    "velocity": 0.3858267716535433,
                    "duration": 0.6779009999999985
                },
                {
                    "name": "G#2",
                    "midi": 44,
                    "time": 49.58361600000011,
                    "velocity": 0.25196850393700787,
                    "duration": 0.7747439999999983
                },
                {
                    "name": "D3",
                    "midi": 50,
                    "time": 49.87414500000011,
                    "velocity": 0.33070866141732286,
                    "duration": 0.09684299999999979
                },
                {
                    "name": "D#3",
                    "midi": 51,
                    "time": 49.97098800000011,
                    "velocity": 0.3700787401574803,
                    "duration": 0.29052899999999937
                },
                {
                    "name": "F3",
                    "midi": 53,
                    "time": 50.26151700000011,
                    "velocity": 0.33858267716535434,
                    "duration": 0.09684299999999979
                },
                {
                    "name": "F#3",
                    "midi": 54,
                    "time": 50.35836000000011,
                    "velocity": 0.3858267716535433,
                    "duration": 0.7747439999999983
                },
                {
                    "name": "G#2",
                    "midi": 44,
                    "time": 50.74573200000011,
                    "velocity": 0.25196850393700787,
                    "duration": 0.7747439999999983
                },
                {
                    "name": "D#3",
                    "midi": 51,
                    "time": 51.52047600000011,
                    "velocity": 0.36220472440944884,
                    "duration": 0.6779009999999985
                },
                {
                    "name": "G#2",
                    "midi": 44,
                    "time": 51.90784800000011,
                    "velocity": 0.25196850393700787,
                    "duration": 0.7747439999999983
                },
                {
                    "name": "B2",
                    "midi": 47,
                    "time": 52.19837700000011,
                    "velocity": 0.33858267716535434,
                    "duration": 0.09684299999999979
                },
                {
                    "name": "C3",
                    "midi": 48,
                    "time": 52.29522000000011,
                    "velocity": 0.3700787401574803,
                    "duration": 0.29052899999999937
                },
                {
                    "name": "C#3",
                    "midi": 49,
                    "time": 52.585749000000106,
                    "velocity": 0.33070866141732286,
                    "duration": 0.09684299999999979
                },
                {
                    "name": "D#3",
                    "midi": 51,
                    "time": 52.682592000000106,
                    "velocity": 0.3700787401574803,
                    "duration": 1.5494879999999966
                },
                {
                    "name": "G#2",
                    "midi": 44,
                    "time": 53.069964000000105,
                    "velocity": 0.25196850393700787,
                    "duration": 1.1621159999999975
                },
                {
                    "name": "A2",
                    "midi": 45,
                    "time": 54.2320800000001,
                    "velocity": 0.25196850393700787,
                    "duration": 1.1621159999999975
                },
                {
                    "name": "B2",
                    "midi": 47,
                    "time": 55.3941960000001,
                    "velocity": 0.25196850393700787,
                    "duration": 1.1621159999999975
                },
                {
                    "name": "C3",
                    "midi": 48,
                    "time": 56.5563120000001,
                    "velocity": 0.25196850393700787,
                    "duration": 0.9684299999999979
                },
                {
                    "name": "D3",
                    "midi": 50,
                    "time": 57.524742000000096,
                    "velocity": 0.3543307086614173,
                    "duration": 0.19368599999999958
                },
                {
                    "name": "E3",
                    "midi": 52,
                    "time": 57.718428000000095,
                    "velocity": 0.4015748031496063,
                    "duration": 0.19368599999999958
                },
                {
                    "name": "F#3",
                    "midi": 54,
                    "time": 57.912114000000095,
                    "velocity": 0.4251968503937008,
                    "duration": 0.5810579999999987
                },
                {
                    "name": "G1",
                    "midi": 31,
                    "time": 58.493172000000094,
                    "velocity": 0.3464566929133858,
                    "duration": 0.6779009999999985
                },
                {
                    "name": "A#1",
                    "midi": 34,
                    "time": 59.17107300000009,
                    "velocity": 0.2755905511811024,
                    "duration": 0.07263224999999807
                },
                {
                    "name": "A1",
                    "midi": 33,
                    "time": 59.26791600000009,
                    "velocity": 0.31496062992125984,
                    "duration": 0.07263224999999807
                },
                {
                    "name": "F#1",
                    "midi": 30,
                    "time": 60.33318900000009,
                    "velocity": 0.25984251968503935,
                    "duration": 0.07263224999999807
                },
                {
                    "name": "G1",
                    "midi": 31,
                    "time": 60.43003200000009,
                    "velocity": 0.31496062992125984,
                    "duration": 0.07263224999999807
                },
                {
                    "name": "A#1",
                    "midi": 34,
                    "time": 61.49530500000009,
                    "velocity": 0.25196850393700787,
                    "duration": 0.07263224999999807
                },
                {
                    "name": "C2",
                    "midi": 36,
                    "time": 61.59214800000009,
                    "velocity": 0.29133858267716534,
                    "duration": 0.07263224999999807
                },
                {
                    "name": "D2",
                    "midi": 38,
                    "time": 61.882677000000086,
                    "velocity": 0.25984251968503935,
                    "duration": 0.07263224999999807
                },
                {
                    "name": "D#2",
                    "midi": 39,
                    "time": 61.979520000000086,
                    "velocity": 0.2992125984251969,
                    "duration": 0.07263224999999807
                },
                {
                    "name": "D#3",
                    "midi": 51,
                    "time": 62.366892000000085,
                    "velocity": 0.31496062992125984,
                    "duration": 0.07263224999999807
                },
                {
                    "name": "D2",
                    "midi": 38,
                    "time": 62.754264000000084,
                    "velocity": 0.3543307086614173,
                    "duration": 0.07263224999999807
                },
                {
                    "name": "D3",
                    "midi": 50,
                    "time": 62.754264000000084,
                    "velocity": 0.3543307086614173,
                    "duration": 0.07263224999999807
                },
                {
                    "name": "F#1",
                    "midi": 30,
                    "time": 63.52900800000008,
                    "velocity": 0.31496062992125984,
                    "duration": 0.38737199999999916
                },
                {
                    "name": "G1",
                    "midi": 31,
                    "time": 63.91638000000008,
                    "velocity": 0.3464566929133858,
                    "duration": 0.1936860000000067
                },
                {
                    "name": "G3",
                    "midi": 55,
                    "time": 64.30375200000009,
                    "velocity": 0.47244094488188976,
                    "duration": 0.6779010000000056
                },
                {
                    "name": "F3",
                    "midi": 53,
                    "time": 64.9816530000001,
                    "velocity": 0.4015748031496063,
                    "duration": 0.0968430000000069
                },
                {
                    "name": "D#3",
                    "midi": 51,
                    "time": 65.0784960000001,
                    "velocity": 0.4566929133858268,
                    "duration": 0.07263224999999807
                },
                {
                    "name": "D3",
                    "midi": 50,
                    "time": 65.3690250000001,
                    "velocity": 0.4015748031496063,
                    "duration": 0.07263224999999807
                },
                {
                    "name": "C3",
                    "midi": 48,
                    "time": 65.46586800000009,
                    "velocity": 0.44881889763779526,
                    "duration": 0.07263224999999807
                },
                {
                    "name": "A#2",
                    "midi": 46,
                    "time": 65.75639700000008,
                    "velocity": 0.3937007874015748,
                    "duration": 0.07263224999999807
                },
                {
                    "name": "A1",
                    "midi": 33,
                    "time": 65.85324000000007,
                    "velocity": 0.31496062992125984,
                    "duration": 0.38737199999999916
                },
                {
                    "name": "A#1",
                    "midi": 34,
                    "time": 66.24061200000007,
                    "velocity": 0.3464566929133858,
                    "duration": 0.19368599999999958
                },
                {
                    "name": "A#3",
                    "midi": 58,
                    "time": 66.62798400000007,
                    "velocity": 0.47244094488188976,
                    "duration": 0.6779010000000056
                },
                {
                    "name": "A3",
                    "midi": 57,
                    "time": 67.30588500000007,
                    "velocity": 0.4015748031496063,
                    "duration": 0.0968430000000069
                },
                {
                    "name": "G3",
                    "midi": 55,
                    "time": 67.40272800000008,
                    "velocity": 0.4566929133858268,
                    "duration": 0.07263224999999807
                },
                {
                    "name": "F3",
                    "midi": 53,
                    "time": 67.69325700000007,
                    "velocity": 0.4015748031496063,
                    "duration": 0.07263224999999807
                },
                {
                    "name": "E3",
                    "midi": 52,
                    "time": 67.79010000000007,
                    "velocity": 0.44881889763779526,
                    "duration": 0.07263224999999807
                },
                {
                    "name": "D3",
                    "midi": 50,
                    "time": 68.08062900000006,
                    "velocity": 0.3937007874015748,
                    "duration": 0.07263224999999807
                },
                {
                    "name": "C#2",
                    "midi": 37,
                    "time": 68.17747200000005,
                    "velocity": 0.31496062992125984,
                    "duration": 0.38737199999999916
                },
                {
                    "name": "D2",
                    "midi": 38,
                    "time": 68.56484400000005,
                    "velocity": 0.3464566929133858,
                    "duration": 0.19368599999999958
                },
                {
                    "name": "D4",
                    "midi": 62,
                    "time": 68.95221600000005,
                    "velocity": 0.4566929133858268,
                    "duration": 0.6779010000000056
                },
                {
                    "name": "C4",
                    "midi": 60,
                    "time": 69.63011700000006,
                    "velocity": 0.4015748031496063,
                    "duration": 0.0968430000000069
                },
                {
                    "name": "A#3",
                    "midi": 58,
                    "time": 69.72696000000006,
                    "velocity": 0.4566929133858268,
                    "duration": 0.07263224999999807
                },
                {
                    "name": "A3",
                    "midi": 57,
                    "time": 70.01748900000005,
                    "velocity": 0.4015748031496063,
                    "duration": 0.07263224999999807
                },
                {
                    "name": "G3",
                    "midi": 55,
                    "time": 70.11433200000005,
                    "velocity": 0.44881889763779526,
                    "duration": 0.07263224999999807
                },
                {
                    "name": "F3",
                    "midi": 53,
                    "time": 70.40486100000004,
                    "velocity": 0.3937007874015748,
                    "duration": 0.07263224999999807
                },
                {
                    "name": "E3",
                    "midi": 52,
                    "time": 70.50170400000003,
                    "velocity": 0.44881889763779526,
                    "duration": 0.07263224999999807
                },
                {
                    "name": "D#3",
                    "midi": 51,
                    "time": 70.79223300000002,
                    "velocity": 0.3937007874015748,
                    "duration": 0.07263224999999807
                },
                {
                    "name": "D3",
                    "midi": 50,
                    "time": 70.88907600000002,
                    "velocity": 0.4566929133858268,
                    "duration": 0.19368599999999958
                },
                {
                    "name": "G3",
                    "midi": 55,
                    "time": 71.27644800000002,
                    "velocity": 0.47244094488188976,
                    "duration": 0.6779010000000056
                },
                {
                    "name": "F3",
                    "midi": 53,
                    "time": 71.95434900000002,
                    "velocity": 0.33858267716535434,
                    "duration": 0.0968430000000069
                },
                {
                    "name": "D#3",
                    "midi": 51,
                    "time": 72.05119200000003,
                    "velocity": 0.3779527559055118,
                    "duration": 0.19368599999999958
                },
                {
                    "name": "D3",
                    "midi": 50,
                    "time": 72.34172100000004,
                    "velocity": 0.31496062992125984,
                    "duration": 0.0968430000000069
                },
                {
                    "name": "D3",
                    "midi": 50,
                    "time": 72.43856400000004,
                    "velocity": 0.2992125984251969,
                    "duration": 1.1621160000000117
                },
                {
                    "name": "C3",
                    "midi": 48,
                    "time": 72.43856400000004,
                    "velocity": 0.3779527559055118,
                    "duration": 0.19368599999999958
                },
                {
                    "name": "A#2",
                    "midi": 46,
                    "time": 72.72909300000005,
                    "velocity": 0.2992125984251969,
                    "duration": 0.07263224999999807
                },
                {
                    "name": "A2",
                    "midi": 45,
                    "time": 72.82593600000004,
                    "velocity": 0.33858267716535434,
                    "duration": 0.2905290000000065
                },
                {
                    "name": "G#2",
                    "midi": 44,
                    "time": 73.11646500000005,
                    "velocity": 0.23622047244094488,
                    "duration": 0.0968430000000069
                },
                {
                    "name": "G2",
                    "midi": 43,
                    "time": 73.21330800000005,
                    "velocity": 0.25196850393700787,
                    "duration": 0.38737199999999916
                },
                {
                    "name": "C3",
                    "midi": 48,
                    "time": 73.60068000000005,
                    "velocity": 0.2440944881889764,
                    "duration": 0.38737199999999916
                },
                {
                    "name": "G3",
                    "midi": 55,
                    "time": 73.60068000000005,
                    "velocity": 0.29133858267716534,
                    "duration": 0.38737199999999916
                },
                {
                    "name": "C3",
                    "midi": 48,
                    "time": 73.98805200000005,
                    "velocity": 0.2992125984251969,
                    "duration": 0.3389504999999957
                },
                {
                    "name": "A3",
                    "midi": 57,
                    "time": 73.98805200000005,
                    "velocity": 0.3543307086614173,
                    "duration": 0.3389504999999957
                },
                {
                    "name": "G2",
                    "midi": 43,
                    "time": 74.32700250000005,
                    "velocity": 0.33070866141732286,
                    "duration": 0.04842150000000345
                },
                {
                    "name": "A#3",
                    "midi": 58,
                    "time": 74.37542400000005,
                    "velocity": 0.3700787401574803,
                    "duration": 0.19368599999999958
                },
                {
                    "name": "C4",
                    "midi": 60,
                    "time": 74.56911000000005,
                    "velocity": 0.28346456692913385,
                    "duration": 0.19368599999999958
                },
                {
                    "name": "A3",
                    "midi": 57,
                    "time": 74.76279600000005,
                    "velocity": 0.33070866141732286,
                    "duration": 0.19368599999999958
                },
                {
                    "name": "A#3",
                    "midi": 58,
                    "time": 74.95648200000005,
                    "velocity": 0.2992125984251969,
                    "duration": 0.19368599999999958
                },
                {
                    "name": "G3",
                    "midi": 55,
                    "time": 75.15016800000005,
                    "velocity": 0.4094488188976378,
                    "duration": 0.19368599999999958
                },
                {
                    "name": "D4",
                    "midi": 62,
                    "time": 75.34385400000005,
                    "velocity": 0.36220472440944884,
                    "duration": 0.19368599999999958
                },
                {
                    "name": "D4",
                    "midi": 62,
                    "time": 75.53754000000005,
                    "velocity": 0.4251968503937008,
                    "duration": 0.38737199999999916
                },
                {
                    "name": "C3",
                    "midi": 48,
                    "time": 75.92491200000005,
                    "velocity": 0.25196850393700787,
                    "duration": 0.38737199999999916
                },
                {
                    "name": "G3",
                    "midi": 55,
                    "time": 75.92491200000005,
                    "velocity": 0.2992125984251969,
                    "duration": 0.38737199999999916
                },
                {
                    "name": "C3",
                    "midi": 48,
                    "time": 76.31228400000005,
                    "velocity": 0.30708661417322836,
                    "duration": 0.3389504999999957
                },
                {
                    "name": "A3",
                    "midi": 57,
                    "time": 76.31228400000005,
                    "velocity": 0.3700787401574803,
                    "duration": 0.3389504999999957
                },
                {
                    "name": "G2",
                    "midi": 43,
                    "time": 76.65123450000004,
                    "velocity": 0.3464566929133858,
                    "duration": 0.04842150000000345
                },
                {
                    "name": "A#3",
                    "midi": 58,
                    "time": 76.69965600000005,
                    "velocity": 0.3858267716535433,
                    "duration": 0.19368599999999958
                },
                {
                    "name": "C4",
                    "midi": 60,
                    "time": 76.89334200000005,
                    "velocity": 0.29133858267716534,
                    "duration": 0.19368599999999958
                },
                {
                    "name": "A3",
                    "midi": 57,
                    "time": 77.08702800000005,
                    "velocity": 0.3464566929133858,
                    "duration": 0.19368599999999958
                },
                {
                    "name": "A#3",
                    "midi": 58,
                    "time": 77.28071400000005,
                    "velocity": 0.30708661417322836,
                    "duration": 0.19368599999999958
                },
                {
                    "name": "G3",
                    "midi": 55,
                    "time": 77.47440000000005,
                    "velocity": 0.4330708661417323,
                    "duration": 0.19368599999999958
                },
                {
                    "name": "D#4",
                    "midi": 63,
                    "time": 77.66808600000005,
                    "velocity": 0.3700787401574803,
                    "duration": 0.19368599999999958
                },
                {
                    "name": "D#4",
                    "midi": 63,
                    "time": 77.86177200000004,
                    "velocity": 0.4409448818897638,
                    "duration": 0.38737199999999916
                },
                {
                    "name": "C3",
                    "midi": 48,
                    "time": 78.24914400000004,
                    "velocity": 0.2677165354330709,
                    "duration": 0.192071949999999
                },
                {
                    "name": "G3",
                    "midi": 55,
                    "time": 78.24914400000004,
                    "velocity": 0.31496062992125984,
                    "duration": 0.192071949999999
                },
                {
                    "name": "F2",
                    "midi": 41,
                    "time": 78.63651600000004,
                    "velocity": 0.3228346456692913,
                    "duration": 0.38737199999999916
                },
                {
                    "name": "F3",
                    "midi": 53,
                    "time": 78.63651600000004,
                    "velocity": 0.3858267716535433,
                    "duration": 0.5810579999999987
                },
                {
                    "name": "A#2",
                    "midi": 46,
                    "time": 79.02388800000004,
                    "velocity": 0.4015748031496063,
                    "duration": 0.19368599999999958
                },
                {
                    "name": "A#3",
                    "midi": 58,
                    "time": 79.21757400000004,
                    "velocity": 0.30708661417322836,
                    "duration": 0.19368599999999958
                },
                {
                    "name": "G3",
                    "midi": 55,
                    "time": 79.41126000000004,
                    "velocity": 0.36220472440944884,
                    "duration": 0.19368599999999958
                },
                {
                    "name": "A3",
                    "midi": 57,
                    "time": 79.60494600000004,
                    "velocity": 0.3228346456692913,
                    "duration": 0.19368599999999958
                },
                {
                    "name": "F3",
                    "midi": 53,
                    "time": 79.79863200000004,
                    "velocity": 0.4330708661417323,
                    "duration": 0.19368599999999958
                },
                {
                    "name": "D4",
                    "midi": 62,
                    "time": 79.99231800000004,
                    "velocity": 0.3779527559055118,
                    "duration": 0.19368599999999958
                },
                {
                    "name": "D4",
                    "midi": 62,
                    "time": 80.18600400000004,
                    "velocity": 0.4566929133858268,
                    "duration": 0.38737199999999916
                },
                {
                    "name": "A#2",
                    "midi": 46,
                    "time": 80.57337600000004,
                    "velocity": 0.2677165354330709,
                    "duration": 0.192071949999999
                },
                {
                    "name": "F3",
                    "midi": 53,
                    "time": 80.57337600000004,
                    "velocity": 0.31496062992125984,
                    "duration": 0.192071949999999
                },
                {
                    "name": "D#2",
                    "midi": 39,
                    "time": 80.96074800000004,
                    "velocity": 0.3228346456692913,
                    "duration": 0.38737199999999916
                },
                {
                    "name": "D#3",
                    "midi": 51,
                    "time": 80.96074800000004,
                    "velocity": 0.3858267716535433,
                    "duration": 0.5810579999999987
                },
                {
                    "name": "A2",
                    "midi": 45,
                    "time": 81.34812000000004,
                    "velocity": 0.4015748031496063,
                    "duration": 0.19368599999999958
                },
                {
                    "name": "A3",
                    "midi": 57,
                    "time": 81.54180600000004,
                    "velocity": 0.30708661417322836,
                    "duration": 0.19368599999999958
                },
                {
                    "name": "F3",
                    "midi": 53,
                    "time": 81.73549200000004,
                    "velocity": 0.36220472440944884,
                    "duration": 0.19368599999999958
                },
                {
                    "name": "G3",
                    "midi": 55,
                    "time": 81.92917800000004,
                    "velocity": 0.3228346456692913,
                    "duration": 0.19368599999999958
                },
                {
                    "name": "D#3",
                    "midi": 51,
                    "time": 82.12286400000004,
                    "velocity": 0.4330708661417323,
                    "duration": 0.19368599999999958
                },
                {
                    "name": "C4",
                    "midi": 60,
                    "time": 82.31655000000003,
                    "velocity": 0.3779527559055118,
                    "duration": 0.19368599999999958
                },
                {
                    "name": "C4",
                    "midi": 60,
                    "time": 82.51023600000003,
                    "velocity": 0.4566929133858268,
                    "duration": 0.38737199999999916
                },
                {
                    "name": "C2",
                    "midi": 36,
                    "time": 82.89760800000003,
                    "velocity": 0.2677165354330709,
                    "duration": 0.192071949999999
                },
                {
                    "name": "C3",
                    "midi": 48,
                    "time": 82.89760800000003,
                    "velocity": 0.31496062992125984,
                    "duration": 0.192071949999999
                },
                {
                    "name": "D2",
                    "midi": 38,
                    "time": 83.28498000000003,
                    "velocity": 0.3228346456692913,
                    "duration": 0.38737199999999916
                },
                {
                    "name": "D3",
                    "midi": 50,
                    "time": 83.28498000000003,
                    "velocity": 0.3858267716535433,
                    "duration": 0.5810579999999987
                },
                {
                    "name": "G2",
                    "midi": 43,
                    "time": 83.67235200000003,
                    "velocity": 0.4015748031496063,
                    "duration": 0.19368599999999958
                },
                {
                    "name": "D#3",
                    "midi": 51,
                    "time": 83.86603800000003,
                    "velocity": 0.2992125984251969,
                    "duration": 0.19368599999999958
                },
                {
                    "name": "C3",
                    "midi": 48,
                    "time": 84.05972400000003,
                    "velocity": 0.3543307086614173,
                    "duration": 0.19368599999999958
                },
                {
                    "name": "D3",
                    "midi": 50,
                    "time": 84.25341000000003,
                    "velocity": 0.31496062992125984,
                    "duration": 0.19368599999999958
                },
                {
                    "name": "A#2",
                    "midi": 46,
                    "time": 84.44709600000003,
                    "velocity": 0.4409448818897638,
                    "duration": 0.19368599999999958
                },
                {
                    "name": "G3",
                    "midi": 55,
                    "time": 84.64078200000003,
                    "velocity": 0.3858267716535433,
                    "duration": 0.19368599999999958
                },
                {
                    "name": "G3",
                    "midi": 55,
                    "time": 84.83446800000003,
                    "velocity": 0.4645669291338583,
                    "duration": 0.38737199999999916
                },
                {
                    "name": "C2",
                    "midi": 36,
                    "time": 85.22184000000003,
                    "velocity": 0.29133858267716534,
                    "duration": 0.2905290000000065
                },
                {
                    "name": "C3",
                    "midi": 48,
                    "time": 85.22184000000003,
                    "velocity": 0.3464566929133858,
                    "duration": 0.2905290000000065
                },
                {
                    "name": "D2",
                    "midi": 38,
                    "time": 85.60921200000004,
                    "velocity": 0.3543307086614173,
                    "duration": 0.38737199999999916
                },
                {
                    "name": "D3",
                    "midi": 50,
                    "time": 85.60921200000004,
                    "velocity": 0.4251968503937008,
                    "duration": 0.5810579999999987
                },
                {
                    "name": "G2",
                    "midi": 43,
                    "time": 85.99658400000004,
                    "velocity": 0.4409448818897638,
                    "duration": 0.19368599999999958
                },
                {
                    "name": "D3",
                    "midi": 50,
                    "time": 86.19027000000004,
                    "velocity": 0.3858267716535433,
                    "duration": 0.19368599999999958
                },
                {
                    "name": "E3",
                    "midi": 52,
                    "time": 86.38395600000004,
                    "velocity": 0.4330708661417323,
                    "duration": 0.19368599999999958
                },
                {
                    "name": "F#3",
                    "midi": 54,
                    "time": 86.57764200000004,
                    "velocity": 0.4645669291338583,
                    "duration": 0.19368599999999958
                },
                {
                    "name": "G3",
                    "midi": 55,
                    "time": 86.77132800000004,
                    "velocity": 0.4881889763779528,
                    "duration": 0.19368599999999958
                },
                {
                    "name": "A3",
                    "midi": 57,
                    "time": 86.96501400000004,
                    "velocity": 0.5196850393700787,
                    "duration": 0.19368599999999958
                },
                {
                    "name": "A#3",
                    "midi": 58,
                    "time": 87.15870000000004,
                    "velocity": 0.5433070866141733,
                    "duration": 0.38737199999999916
                },
                {
                    "name": "G3",
                    "midi": 55,
                    "time": 87.54607200000004,
                    "velocity": 0.3779527559055118,
                    "duration": 0.38737199999999916
                },
                {
                    "name": "A#3",
                    "midi": 58,
                    "time": 87.54607200000004,
                    "velocity": 0.3779527559055118,
                    "duration": 0.38737199999999916
                },
                {
                    "name": "D4",
                    "midi": 62,
                    "time": 87.54607200000004,
                    "velocity": 0.44881889763779526,
                    "duration": 0.38737199999999916
                },
                {
                    "name": "G3",
                    "midi": 55,
                    "time": 87.93344400000004,
                    "velocity": 0.4645669291338583,
                    "duration": 0.3389504999999957
                },
                {
                    "name": "A#3",
                    "midi": 58,
                    "time": 87.93344400000004,
                    "velocity": 0.4645669291338583,
                    "duration": 0.3389504999999957
                },
                {
                    "name": "C#4",
                    "midi": 61,
                    "time": 87.93344400000004,
                    "velocity": 0.4645669291338583,
                    "duration": 0.3389504999999957
                },
                {
                    "name": "E4",
                    "midi": 64,
                    "time": 87.93344400000004,
                    "velocity": 0.5511811023622047,
                    "duration": 0.3389504999999957
                },
                {
                    "name": "D3",
                    "midi": 50,
                    "time": 88.27239450000003,
                    "velocity": 0.47244094488188976,
                    "duration": 0.24210749999998882
                },
                {
                    "name": "A3",
                    "midi": 57,
                    "time": 88.29660525000003,
                    "velocity": 0.47244094488188976,
                    "duration": 0.2178967499999942
                },
                {
                    "name": "F4",
                    "midi": 65,
                    "time": 88.32081600000002,
                    "velocity": 0.5748031496062992,
                    "duration": 0.19368599999999958
                },
                {
                    "name": "G4",
                    "midi": 67,
                    "time": 88.51450200000002,
                    "velocity": 0.4409448818897638,
                    "duration": 0.19368599999999958
                },
                {
                    "name": "E4",
                    "midi": 64,
                    "time": 88.70818800000002,
                    "velocity": 0.5196850393700787,
                    "duration": 0.19368599999999958
                },
                {
                    "name": "F4",
                    "midi": 65,
                    "time": 88.90187400000002,
                    "velocity": 0.4645669291338583,
                    "duration": 0.19368599999999958
                },
                {
                    "name": "D4",
                    "midi": 62,
                    "time": 89.09556000000002,
                    "velocity": 0.6141732283464567,
                    "duration": 0.19368599999999958
                },
                {
                    "name": "A#4",
                    "midi": 70,
                    "time": 89.28924600000002,
                    "velocity": 0.5354330708661418,
                    "duration": 0.19368599999999958
                },
                {
                    "name": "A#4",
                    "midi": 70,
                    "time": 89.48293200000002,
                    "velocity": 0.6299212598425197,
                    "duration": 0.38737199999999916
                },
                {
                    "name": "G3",
                    "midi": 55,
                    "time": 89.87030400000002,
                    "velocity": 0.3779527559055118,
                    "duration": 0.38737199999999916
                },
                {
                    "name": "A#3",
                    "midi": 58,
                    "time": 89.87030400000002,
                    "velocity": 0.3779527559055118,
                    "duration": 0.38737199999999916
                },
                {
                    "name": "D4",
                    "midi": 62,
                    "time": 89.87030400000002,
                    "velocity": 0.44881889763779526,
                    "duration": 0.38737199999999916
                },
                {
                    "name": "G3",
                    "midi": 55,
                    "time": 90.25767600000002,
                    "velocity": 0.4645669291338583,
                    "duration": 0.3389504999999957
                },
                {
                    "name": "A#3",
                    "midi": 58,
                    "time": 90.25767600000002,
                    "velocity": 0.4645669291338583,
                    "duration": 0.3389504999999957
                },
                {
                    "name": "C#4",
                    "midi": 61,
                    "time": 90.25767600000002,
                    "velocity": 0.4645669291338583,
                    "duration": 0.3389504999999957
                },
                {
                    "name": "E4",
                    "midi": 64,
                    "time": 90.25767600000002,
                    "velocity": 0.5511811023622047,
                    "duration": 0.3389504999999957
                },
                {
                    "name": "D3",
                    "midi": 50,
                    "time": 90.59662650000001,
                    "velocity": 0.47244094488188976,
                    "duration": 0.24210749999998882
                },
                {
                    "name": "A3",
                    "midi": 57,
                    "time": 90.62083725000001,
                    "velocity": 0.47244094488188976,
                    "duration": 0.2178967499999942
                },
                {
                    "name": "F4",
                    "midi": 65,
                    "time": 90.645048,
                    "velocity": 0.5748031496062992,
                    "duration": 0.19368599999999958
                },
                {
                    "name": "G4",
                    "midi": 67,
                    "time": 90.838734,
                    "velocity": 0.4409448818897638,
                    "duration": 0.19368599999999958
                },
                {
                    "name": "E4",
                    "midi": 64,
                    "time": 91.03242,
                    "velocity": 0.5196850393700787,
                    "duration": 0.19368599999999958
                },
                {
                    "name": "F4",
                    "midi": 65,
                    "time": 91.226106,
                    "velocity": 0.4645669291338583,
                    "duration": 0.19368599999999958
                },
                {
                    "name": "D4",
                    "midi": 62,
                    "time": 91.419792,
                    "velocity": 0.6062992125984252,
                    "duration": 0.19368599999999958
                },
                {
                    "name": "A#4",
                    "midi": 70,
                    "time": 91.613478,
                    "velocity": 0.5354330708661418,
                    "duration": 0.19368599999999958
                },
                {
                    "name": "A#4",
                    "midi": 70,
                    "time": 91.807164,
                    "velocity": 0.6299212598425197,
                    "duration": 0.38737199999999916
                },
                {
                    "name": "D3",
                    "midi": 50,
                    "time": 92.194536,
                    "velocity": 0.29133858267716534,
                    "duration": 0.2905290000000065
                },
                {
                    "name": "A#3",
                    "midi": 58,
                    "time": 92.194536,
                    "velocity": 0.29133858267716534,
                    "duration": 0.2905290000000065
                },
                {
                    "name": "D4",
                    "midi": 62,
                    "time": 92.194536,
                    "velocity": 0.3464566929133858,
                    "duration": 0.2905290000000065
                },
                {
                    "name": "D3",
                    "midi": 50,
                    "time": 92.58190800000001,
                    "velocity": 0.3543307086614173,
                    "duration": 0.2905290000000065
                },
                {
                    "name": "A#3",
                    "midi": 58,
                    "time": 92.58190800000001,
                    "velocity": 0.3543307086614173,
                    "duration": 0.2905290000000065
                },
                {
                    "name": "D4",
                    "midi": 62,
                    "time": 92.58190800000001,
                    "velocity": 0.4251968503937008,
                    "duration": 0.2905290000000065
                },
                {
                    "name": "D#3",
                    "midi": 51,
                    "time": 92.96928000000003,
                    "velocity": 0.3858267716535433,
                    "duration": 0.19368599999999958
                },
                {
                    "name": "A#3",
                    "midi": 58,
                    "time": 92.96928000000003,
                    "velocity": 0.3858267716535433,
                    "duration": 0.19368599999999958
                },
                {
                    "name": "C4",
                    "midi": 60,
                    "time": 92.96928000000003,
                    "velocity": 0.4566929133858268,
                    "duration": 0.19368599999999958
                },
                {
                    "name": "G4",
                    "midi": 67,
                    "time": 93.16296600000003,
                    "velocity": 0.4881889763779528,
                    "duration": 0.38737199999999916
                },
                {
                    "name": "D#4",
                    "midi": 63,
                    "time": 93.55033800000002,
                    "velocity": 0.3543307086614173,
                    "duration": 0.19368599999999958
                },
                {
                    "name": "C4",
                    "midi": 60,
                    "time": 93.74402400000002,
                    "velocity": 0.4330708661417323,
                    "duration": 0.19368599999999958
                },
                {
                    "name": "A#3",
                    "midi": 58,
                    "time": 93.93771000000002,
                    "velocity": 0.3543307086614173,
                    "duration": 0.19368599999999958
                },
                {
                    "name": "F3",
                    "midi": 53,
                    "time": 94.13139600000002,
                    "velocity": 0.33070866141732286,
                    "duration": 0.19368599999999958
                },
                {
                    "name": "A3",
                    "midi": 57,
                    "time": 94.13139600000002,
                    "velocity": 0.3937007874015748,
                    "duration": 0.19368599999999958
                },
                {
                    "name": "D#4",
                    "midi": 63,
                    "time": 94.32508200000002,
                    "velocity": 0.3700787401574803,
                    "duration": 0.38737199999999916
                },
                {
                    "name": "C4",
                    "midi": 60,
                    "time": 94.71245400000002,
                    "velocity": 0.3228346456692913,
                    "duration": 0.19368599999999958
                },
                {
                    "name": "A3",
                    "midi": 57,
                    "time": 94.90614000000002,
                    "velocity": 0.3543307086614173,
                    "duration": 0.19368599999999958
                },
                {
                    "name": "G3",
                    "midi": 55,
                    "time": 95.09982600000002,
                    "velocity": 0.3228346456692913,
                    "duration": 0.19368599999999958
                },
                {
                    "name": "F#3",
                    "midi": 54,
                    "time": 95.29351200000002,
                    "velocity": 0.2755905511811024,
                    "duration": 0.0968430000000069
                },
                {
                    "name": "A3",
                    "midi": 57,
                    "time": 95.29351200000002,
                    "velocity": 0.31496062992125984,
                    "duration": 0.0968430000000069
                },
                {
                    "name": "D4",
                    "midi": 62,
                    "time": 95.39035500000003,
                    "velocity": 0.30708661417322836,
                    "duration": 0.19368599999999958
                },
                {
                    "name": "C3",
                    "midi": 48,
                    "time": 95.68088400000003,
                    "velocity": 0.2440944881889764,
                    "duration": 0.38737199999999916
                },
                {
                    "name": "G3",
                    "midi": 55,
                    "time": 95.68088400000003,
                    "velocity": 0.29133858267716534,
                    "duration": 0.38737199999999916
                },
                {
                    "name": "C3",
                    "midi": 48,
                    "time": 96.06825600000003,
                    "velocity": 0.2992125984251969,
                    "duration": 0.3389504999999957
                },
                {
                    "name": "A3",
                    "midi": 57,
                    "time": 96.06825600000003,
                    "velocity": 0.3543307086614173,
                    "duration": 0.3389504999999957
                },
                {
                    "name": "G2",
                    "midi": 43,
                    "time": 96.40720650000003,
                    "velocity": 0.33070866141732286,
                    "duration": 0.04842150000000345
                },
                {
                    "name": "A#3",
                    "midi": 58,
                    "time": 96.45562800000003,
                    "velocity": 0.3700787401574803,
                    "duration": 0.19368599999999958
                },
                {
                    "name": "C4",
                    "midi": 60,
                    "time": 96.64931400000003,
                    "velocity": 0.28346456692913385,
                    "duration": 0.19368599999999958
                },
                {
                    "name": "A3",
                    "midi": 57,
                    "time": 96.84300000000003,
                    "velocity": 0.33070866141732286,
                    "duration": 0.19368599999999958
                },
                {
                    "name": "A#3",
                    "midi": 58,
                    "time": 97.03668600000003,
                    "velocity": 0.2992125984251969,
                    "duration": 0.19368599999999958
                },
                {
                    "name": "G3",
                    "midi": 55,
                    "time": 97.23037200000003,
                    "velocity": 0.41732283464566927,
                    "duration": 0.19368599999999958
                },
                {
                    "name": "D4",
                    "midi": 62,
                    "time": 97.42405800000003,
                    "velocity": 0.3937007874015748,
                    "duration": 0.19368599999999958
                },
                {
                    "name": "D4",
                    "midi": 62,
                    "time": 97.61774400000003,
                    "velocity": 0.4330708661417323,
                    "duration": 0.38737199999999916
                },
                {
                    "name": "C3",
                    "midi": 48,
                    "time": 98.00511600000003,
                    "velocity": 0.25196850393700787,
                    "duration": 0.192071949999999
                },
                {
                    "name": "G3",
                    "midi": 55,
                    "time": 98.00511600000003,
                    "velocity": 0.2992125984251969,
                    "duration": 0.192071949999999
                },
                {
                    "name": "C3",
                    "midi": 48,
                    "time": 98.39248800000003,
                    "velocity": 0.30708661417322836,
                    "duration": 0.3389504999999957
                },
                {
                    "name": "A3",
                    "midi": 57,
                    "time": 98.39248800000003,
                    "velocity": 0.3700787401574803,
                    "duration": 0.3389504999999957
                },
                {
                    "name": "G2",
                    "midi": 43,
                    "time": 98.73143850000002,
                    "velocity": 0.3464566929133858,
                    "duration": 0.04842150000000345
                },
                {
                    "name": "A#3",
                    "midi": 58,
                    "time": 98.77986000000003,
                    "velocity": 0.3858267716535433,
                    "duration": 0.19368599999999958
                },
                {
                    "name": "C4",
                    "midi": 60,
                    "time": 98.97354600000003,
                    "velocity": 0.29133858267716534,
                    "duration": 0.19368599999999958
                },
                {
                    "name": "A3",
                    "midi": 57,
                    "time": 99.16723200000003,
                    "velocity": 0.3464566929133858,
                    "duration": 0.19368599999999958
                },
                {
                    "name": "A#3",
                    "midi": 58,
                    "time": 99.36091800000003,
                    "velocity": 0.30708661417322836,
                    "duration": 0.19368599999999958
                },
                {
                    "name": "G3",
                    "midi": 55,
                    "time": 99.55460400000003,
                    "velocity": 0.4409448818897638,
                    "duration": 0.19368599999999958
                },
                {
                    "name": "D#4",
                    "midi": 63,
                    "time": 99.74829000000003,
                    "velocity": 0.3779527559055118,
                    "duration": 0.19368599999999958
                },
                {
                    "name": "D#4",
                    "midi": 63,
                    "time": 99.94197600000003,
                    "velocity": 0.4881889763779528,
                    "duration": 0.38737199999999916
                },
                {
                    "name": "C3",
                    "midi": 48,
                    "time": 100.32934800000002,
                    "velocity": 0.2677165354330709,
                    "duration": 0.192071949999999
                },
                {
                    "name": "G3",
                    "midi": 55,
                    "time": 100.32934800000002,
                    "velocity": 0.31496062992125984,
                    "duration": 0.192071949999999
                },
                {
                    "name": "F2",
                    "midi": 41,
                    "time": 100.71672000000002,
                    "velocity": 0.3228346456692913,
                    "duration": 0.38737199999999916
                },
                {
                    "name": "F3",
                    "midi": 53,
                    "time": 100.71672000000002,
                    "velocity": 0.3858267716535433,
                    "duration": 0.5810579999999987
                },
                {
                    "name": "A#2",
                    "midi": 46,
                    "time": 101.10409200000002,
                    "velocity": 0.4015748031496063,
                    "duration": 0.19368599999999958
                },
                {
                    "name": "A#3",
                    "midi": 58,
                    "time": 101.29777800000002,
                    "velocity": 0.30708661417322836,
                    "duration": 0.19368599999999958
                },
                {
                    "name": "G3",
                    "midi": 55,
                    "time": 101.49146400000002,
                    "velocity": 0.36220472440944884,
                    "duration": 0.19368599999999958
                },
                {
                    "name": "A3",
                    "midi": 57,
                    "time": 101.68515000000002,
                    "velocity": 0.3228346456692913,
                    "duration": 0.19368599999999958
                },
                {
                    "name": "F3",
                    "midi": 53,
                    "time": 101.87883600000002,
                    "velocity": 0.4330708661417323,
                    "duration": 0.19368599999999958
                },
                {
                    "name": "D4",
                    "midi": 62,
                    "time": 102.07252200000002,
                    "velocity": 0.3779527559055118,
                    "duration": 0.19368599999999958
                },
                {
                    "name": "D4",
                    "midi": 62,
                    "time": 102.26620800000002,
                    "velocity": 0.4566929133858268,
                    "duration": 0.38737199999999916
                },
                {
                    "name": "A#2",
                    "midi": 46,
                    "time": 102.65358000000002,
                    "velocity": 0.2677165354330709,
                    "duration": 0.192071949999999
                },
                {
                    "name": "F3",
                    "midi": 53,
                    "time": 102.65358000000002,
                    "velocity": 0.31496062992125984,
                    "duration": 0.192071949999999
                },
                {
                    "name": "D#2",
                    "midi": 39,
                    "time": 103.04095200000002,
                    "velocity": 0.3228346456692913,
                    "duration": 0.38737199999999916
                },
                {
                    "name": "D#3",
                    "midi": 51,
                    "time": 103.04095200000002,
                    "velocity": 0.3858267716535433,
                    "duration": 0.5810579999999987
                },
                {
                    "name": "A2",
                    "midi": 45,
                    "time": 103.42832400000002,
                    "velocity": 0.4015748031496063,
                    "duration": 0.19368599999999958
                },
                {
                    "name": "A3",
                    "midi": 57,
                    "time": 103.62201000000002,
                    "velocity": 0.30708661417322836,
                    "duration": 0.19368599999999958
                },
                {
                    "name": "F3",
                    "midi": 53,
                    "time": 103.81569600000002,
                    "velocity": 0.36220472440944884,
                    "duration": 0.19368599999999958
                },
                {
                    "name": "G3",
                    "midi": 55,
                    "time": 104.00938200000002,
                    "velocity": 0.3228346456692913,
                    "duration": 0.19368599999999958
                },
                {
                    "name": "D#3",
                    "midi": 51,
                    "time": 104.20306800000002,
                    "velocity": 0.4330708661417323,
                    "duration": 0.19368599999999958
                },
                {
                    "name": "C4",
                    "midi": 60,
                    "time": 104.39675400000002,
                    "velocity": 0.3779527559055118,
                    "duration": 0.19368599999999958
                },
                {
                    "name": "C4",
                    "midi": 60,
                    "time": 104.59044000000002,
                    "velocity": 0.4566929133858268,
                    "duration": 0.38737199999999916
                },
                {
                    "name": "C2",
                    "midi": 36,
                    "time": 104.97781200000001,
                    "velocity": 0.2677165354330709,
                    "duration": 0.192071949999999
                },
                {
                    "name": "C3",
                    "midi": 48,
                    "time": 104.97781200000001,
                    "velocity": 0.31496062992125984,
                    "duration": 0.192071949999999
                },
                {
                    "name": "D2",
                    "midi": 38,
                    "time": 105.36518400000001,
                    "velocity": 0.3228346456692913,
                    "duration": 0.38737199999999916
                },
                {
                    "name": "D3",
                    "midi": 50,
                    "time": 105.36518400000001,
                    "velocity": 0.3858267716535433,
                    "duration": 0.5810579999999987
                },
                {
                    "name": "G2",
                    "midi": 43,
                    "time": 105.75255600000001,
                    "velocity": 0.4015748031496063,
                    "duration": 0.19368599999999958
                },
                {
                    "name": "D#3",
                    "midi": 51,
                    "time": 105.94624200000001,
                    "velocity": 0.2992125984251969,
                    "duration": 0.19368599999999958
                },
                {
                    "name": "C3",
                    "midi": 48,
                    "time": 106.13992800000001,
                    "velocity": 0.3543307086614173,
                    "duration": 0.19368599999999958
                },
                {
                    "name": "D3",
                    "midi": 50,
                    "time": 106.33361400000001,
                    "velocity": 0.31496062992125984,
                    "duration": 0.19368599999999958
                },
                {
                    "name": "A#2",
                    "midi": 46,
                    "time": 106.52730000000001,
                    "velocity": 0.44881889763779526,
                    "duration": 0.19368599999999958
                },
                {
                    "name": "G3",
                    "midi": 55,
                    "time": 106.72098600000001,
                    "velocity": 0.4094488188976378,
                    "duration": 0.19368599999999958
                },
                {
                    "name": "G3",
                    "midi": 55,
                    "time": 106.91467200000001,
                    "velocity": 0.48031496062992124,
                    "duration": 0.38737199999999916
                },
                {
                    "name": "C2",
                    "midi": 36,
                    "time": 107.30204400000001,
                    "velocity": 0.29133858267716534,
                    "duration": 0.192071949999999
                },
                {
                    "name": "C3",
                    "midi": 48,
                    "time": 107.30204400000001,
                    "velocity": 0.3464566929133858,
                    "duration": 0.192071949999999
                },
                {
                    "name": "D2",
                    "midi": 38,
                    "time": 107.68941600000001,
                    "velocity": 0.31496062992125984,
                    "duration": 0.38737199999999916
                },
                {
                    "name": "D3",
                    "midi": 50,
                    "time": 107.68941600000001,
                    "velocity": 0.3779527559055118,
                    "duration": 0.7747439999999983
                },
                {
                    "name": "G2",
                    "midi": 43,
                    "time": 108.07678800000001,
                    "velocity": 0.33070866141732286,
                    "duration": 0.38737199999999916
                },
                {
                    "name": "A#1",
                    "midi": 34,
                    "time": 108.46416,
                    "velocity": 0.3700787401574803,
                    "duration": 0.19368599999999958
                },
                {
                    "name": "A#2",
                    "midi": 46,
                    "time": 108.46416,
                    "velocity": 0.4409448818897638,
                    "duration": 0.19368599999999958
                },
                {
                    "name": "A1",
                    "midi": 33,
                    "time": 108.851532,
                    "velocity": 0.3858267716535433,
                    "duration": 0.19368599999999958
                },
                {
                    "name": "A2",
                    "midi": 45,
                    "time": 108.851532,
                    "velocity": 0.4566929133858268,
                    "duration": 0.19368599999999958
                },
                {
                    "name": "G#1",
                    "midi": 32,
                    "time": 109.238904,
                    "velocity": 0.4409448818897638,
                    "duration": 0.0968430000000069
                },
                {
                    "name": "G#2",
                    "midi": 44,
                    "time": 109.238904,
                    "velocity": 0.5275590551181102,
                    "duration": 0.0968430000000069
                },
                {
                    "name": "A#3",
                    "midi": 58,
                    "time": 109.43259000000002,
                    "velocity": 0.4409448818897638,
                    "duration": 0.19368599999999958
                },
                {
                    "name": "F3",
                    "midi": 53,
                    "time": 109.62627600000002,
                    "velocity": 0.4881889763779528,
                    "duration": 0.19368599999999958
                },
                {
                    "name": "G3",
                    "midi": 55,
                    "time": 109.81996200000002,
                    "velocity": 0.4094488188976378,
                    "duration": 0.19368599999999958
                },
                {
                    "name": "A#2",
                    "midi": 46,
                    "time": 110.01364800000002,
                    "velocity": 0.4881889763779528,
                    "duration": 0.2905290000000065
                },
                {
                    "name": "A#3",
                    "midi": 58,
                    "time": 110.30417700000002,
                    "velocity": 0.4330708661417323,
                    "duration": 0.0968430000000069
                },
                {
                    "name": "A#3",
                    "midi": 58,
                    "time": 110.40102000000003,
                    "velocity": 0.49606299212598426,
                    "duration": 0.38737199999999916
                },
                {
                    "name": "G#1",
                    "midi": 32,
                    "time": 110.78839200000003,
                    "velocity": 0.3700787401574803,
                    "duration": 0.19368599999999958
                },
                {
                    "name": "G#2",
                    "midi": 44,
                    "time": 110.78839200000003,
                    "velocity": 0.4409448818897638,
                    "duration": 0.19368599999999958
                },
                {
                    "name": "G1",
                    "midi": 31,
                    "time": 111.17576400000003,
                    "velocity": 0.3858267716535433,
                    "duration": 0.19368599999999958
                },
                {
                    "name": "G2",
                    "midi": 43,
                    "time": 111.17576400000003,
                    "velocity": 0.4566929133858268,
                    "duration": 0.19368599999999958
                },
                {
                    "name": "F1",
                    "midi": 29,
                    "time": 111.56313600000003,
                    "velocity": 0.4409448818897638,
                    "duration": 0.0968430000000069
                },
                {
                    "name": "F2",
                    "midi": 41,
                    "time": 111.56313600000003,
                    "velocity": 0.5275590551181102,
                    "duration": 0.0968430000000069
                },
                {
                    "name": "F4",
                    "midi": 65,
                    "time": 111.75682200000004,
                    "velocity": 0.5039370078740157,
                    "duration": 0.19368599999999958
                },
                {
                    "name": "C4",
                    "midi": 60,
                    "time": 111.95050800000004,
                    "velocity": 0.5590551181102362,
                    "duration": 0.19368599999999958
                },
                {
                    "name": "D4",
                    "midi": 62,
                    "time": 112.14419400000004,
                    "velocity": 0.4645669291338583,
                    "duration": 0.19368599999999958
                },
                {
                    "name": "G#3",
                    "midi": 56,
                    "time": 112.33788000000004,
                    "velocity": 0.5590551181102362,
                    "duration": 0.2905290000000065
                },
                {
                    "name": "G#4",
                    "midi": 68,
                    "time": 112.62840900000005,
                    "velocity": 0.49606299212598426,
                    "duration": 0.0968430000000069
                },
                {
                    "name": "G#4",
                    "midi": 68,
                    "time": 112.72525200000005,
                    "velocity": 0.5669291338582677,
                    "duration": 0.38737199999999916
                },
                {
                    "name": "F1",
                    "midi": 29,
                    "time": 113.11262400000005,
                    "velocity": 0.4015748031496063,
                    "duration": 0.19368599999999958
                },
                {
                    "name": "F2",
                    "midi": 41,
                    "time": 113.11262400000005,
                    "velocity": 0.48031496062992124,
                    "duration": 0.19368599999999958
                },
                {
                    "name": "D#1",
                    "midi": 27,
                    "time": 113.49999600000005,
                    "velocity": 0.44881889763779526,
                    "duration": 0.19368599999999958
                },
                {
                    "name": "D#2",
                    "midi": 39,
                    "time": 113.49999600000005,
                    "velocity": 0.5275590551181102,
                    "duration": 0.19368599999999958
                },
                {
                    "name": "D1",
                    "midi": 26,
                    "time": 113.88736800000005,
                    "velocity": 0.5433070866141733,
                    "duration": 0.0968430000000069
                },
                {
                    "name": "D2",
                    "midi": 38,
                    "time": 113.88736800000005,
                    "velocity": 0.6535433070866141,
                    "duration": 0.0968430000000069
                },
                {
                    "name": "D2",
                    "midi": 38,
                    "time": 116.21160000000006,
                    "velocity": 0.47244094488188976,
                    "duration": 1.5494879999999966
                },
                {
                    "name": "A#2",
                    "midi": 46,
                    "time": 116.98634400000006,
                    "velocity": 0.5196850393700787,
                    "duration": 2.324231999999995
                },
                {
                    "name": "D#2",
                    "midi": 39,
                    "time": 117.76108800000006,
                    "velocity": 0.47244094488188976,
                    "duration": 0.38737199999999916
                },
                {
                    "name": "E2",
                    "midi": 40,
                    "time": 118.14846000000006,
                    "velocity": 0.47244094488188976,
                    "duration": 0.38737199999999916
                },
                {
                    "name": "F2",
                    "midi": 41,
                    "time": 118.53583200000006,
                    "velocity": 0.47244094488188976,
                    "duration": 0.7747439999999983
                },
                {
                    "name": "A#2",
                    "midi": 46,
                    "time": 119.31057600000005,
                    "velocity": 0.5433070866141733,
                    "duration": 1.1621159999999975
                },
                {
                    "name": "F#2",
                    "midi": 42,
                    "time": 119.31057600000005,
                    "velocity": 0.47244094488188976,
                    "duration": 0.7747439999999983
                },
                {
                    "name": "G2",
                    "midi": 43,
                    "time": 120.08532000000005,
                    "velocity": 0.47244094488188976,
                    "duration": 0.7747439999999983
                },
                {
                    "name": "D#3",
                    "midi": 51,
                    "time": 120.47269200000005,
                    "velocity": 0.5196850393700787,
                    "duration": 1.1621159999999975
                },
                {
                    "name": "A2",
                    "midi": 45,
                    "time": 120.86006400000005,
                    "velocity": 0.48031496062992124,
                    "duration": 1.5494879999999966
                },
                {
                    "name": "F3",
                    "midi": 53,
                    "time": 121.63480800000005,
                    "velocity": 0.5039370078740157,
                    "duration": 0.7747439999999983
                },
                {
                    "name": "F#3",
                    "midi": 54,
                    "time": 122.40955200000005,
                    "velocity": 0.5196850393700787,
                    "duration": 0.7747439999999983
                },
                {
                    "name": "A2",
                    "midi": 45,
                    "time": 122.40955200000005,
                    "velocity": 0.5196850393700787,
                    "duration": 0.7747439999999983
                },
                {
                    "name": "G3",
                    "midi": 55,
                    "time": 123.18429600000005,
                    "velocity": 0.5433070866141733,
                    "duration": 0.7747439999999983
                },
                {
                    "name": "A#2",
                    "midi": 46,
                    "time": 123.18429600000005,
                    "velocity": 0.5433070866141733,
                    "duration": 0.7747439999999983
                },
                {
                    "name": "G#3",
                    "midi": 56,
                    "time": 123.95904000000004,
                    "velocity": 0.47244094488188976,
                    "duration": 0.7747439999999983
                },
                {
                    "name": "B2",
                    "midi": 47,
                    "time": 123.95904000000004,
                    "velocity": 0.47244094488188976,
                    "duration": 0.7747439999999983
                },
                {
                    "name": "G3",
                    "midi": 55,
                    "time": 124.73378400000004,
                    "velocity": 0.4566929133858268,
                    "duration": 0.38737199999999916
                },
                {
                    "name": "C3",
                    "midi": 48,
                    "time": 124.73378400000004,
                    "velocity": 0.4566929133858268,
                    "duration": 0.7747439999999983
                },
                {
                    "name": "A3",
                    "midi": 57,
                    "time": 125.12115600000004,
                    "velocity": 0.44881889763779526,
                    "duration": 1.1621159999999975
                },
                {
                    "name": "D3",
                    "midi": 50,
                    "time": 125.50852800000004,
                    "velocity": 0.4251968503937008,
                    "duration": 1.5494879999999966
                },
                {
                    "name": "A#3",
                    "midi": 58,
                    "time": 126.28327200000004,
                    "velocity": 0.4330708661417323,
                    "duration": 2.324231999999995
                },
                {
                    "name": "D#3",
                    "midi": 51,
                    "time": 127.05801600000004,
                    "velocity": 0.44881889763779526,
                    "duration": 0.38737199999999916
                },
                {
                    "name": "E3",
                    "midi": 52,
                    "time": 127.44538800000004,
                    "velocity": 0.4566929133858268,
                    "duration": 0.38737199999999916
                },
                {
                    "name": "F3",
                    "midi": 53,
                    "time": 127.83276000000004,
                    "velocity": 0.47244094488188976,
                    "duration": 0.7747439999999983
                },
                {
                    "name": "A#3",
                    "midi": 58,
                    "time": 128.60750400000003,
                    "velocity": 0.48031496062992124,
                    "duration": 1.1621159999999975
                },
                {
                    "name": "F#3",
                    "midi": 54,
                    "time": 128.60750400000003,
                    "velocity": 0.48031496062992124,
                    "duration": 0.7747439999999983
                },
                {
                    "name": "G3",
                    "midi": 55,
                    "time": 129.38224800000003,
                    "velocity": 0.49606299212598426,
                    "duration": 0.7747439999999983
                },
                {
                    "name": "D#4",
                    "midi": 63,
                    "time": 129.76962000000003,
                    "velocity": 0.5039370078740157,
                    "duration": 1.1621159999999975
                },
                {
                    "name": "G#3",
                    "midi": 56,
                    "time": 130.15699200000003,
                    "velocity": 0.5196850393700787,
                    "duration": 1.5494879999999966
                },
                {
                    "name": "F4",
                    "midi": 65,
                    "time": 130.93173600000003,
                    "velocity": 0.5275590551181102,
                    "duration": 0.7747439999999983
                },
                {
                    "name": "A3",
                    "midi": 57,
                    "time": 131.70648000000003,
                    "velocity": 0.33070866141732286,
                    "duration": 0.7747439999999983
                },
                {
                    "name": "F#4",
                    "midi": 66,
                    "time": 131.70648000000003,
                    "velocity": 0.3937007874015748,
                    "duration": 0.7747439999999983
                },
                {
                    "name": "A#3",
                    "midi": 58,
                    "time": 132.48122400000003,
                    "velocity": 0.30708661417322836,
                    "duration": 0.7747439999999983
                },
                {
                    "name": "G4",
                    "midi": 67,
                    "time": 132.48122400000003,
                    "velocity": 0.3700787401574803,
                    "duration": 0.7747439999999983
                },
                {
                    "name": "B3",
                    "midi": 59,
                    "time": 133.25596800000002,
                    "velocity": 0.2283464566929134,
                    "duration": 0.7747439999999983
                },
                {
                    "name": "D4",
                    "midi": 62,
                    "time": 133.25596800000002,
                    "velocity": 0.2283464566929134,
                    "duration": 0.7747439999999983
                },
                {
                    "name": "F4",
                    "midi": 65,
                    "time": 133.25596800000002,
                    "velocity": 0.29133858267716534,
                    "duration": 0.7747439999999983
                },
                {
                    "name": "G#4",
                    "midi": 68,
                    "time": 133.25596800000002,
                    "velocity": 0.3464566929133858,
                    "duration": 0.7747439999999983
                },
                {
                    "name": "C4",
                    "midi": 60,
                    "time": 134.03071200000002,
                    "velocity": 0.2125984251968504,
                    "duration": 0.7747439999999983
                },
                {
                    "name": "D#4",
                    "midi": 63,
                    "time": 134.03071200000002,
                    "velocity": 0.2125984251968504,
                    "duration": 0.7747439999999983
                },
                {
                    "name": "F#4",
                    "midi": 66,
                    "time": 134.03071200000002,
                    "velocity": 0.2677165354330709,
                    "duration": 0.7747439999999983
                },
                {
                    "name": "A4",
                    "midi": 69,
                    "time": 134.03071200000002,
                    "velocity": 0.3228346456692913,
                    "duration": 0.7747439999999983
                },
                {
                    "name": "D4",
                    "midi": 62,
                    "time": 134.80545600000002,
                    "velocity": 0.1968503937007874,
                    "duration": 0.7747439999999983
                },
                {
                    "name": "F4",
                    "midi": 65,
                    "time": 134.80545600000002,
                    "velocity": 0.25196850393700787,
                    "duration": 0.7747439999999983
                },
                {
                    "name": "A#4",
                    "midi": 70,
                    "time": 134.80545600000002,
                    "velocity": 0.2992125984251969,
                    "duration": 0.7747439999999983
                },
                {
                    "name": "E4",
                    "midi": 64,
                    "time": 135.58020000000002,
                    "velocity": 0.1968503937007874,
                    "duration": 0.7747439999999983
                },
                {
                    "name": "G4",
                    "midi": 67,
                    "time": 135.58020000000002,
                    "velocity": 0.25196850393700787,
                    "duration": 0.7747439999999983
                },
                {
                    "name": "A#4",
                    "midi": 70,
                    "time": 135.58020000000002,
                    "velocity": 0.2992125984251969,
                    "duration": 0.7747439999999983
                },
                {
                    "name": "F4",
                    "midi": 65,
                    "time": 136.35494400000002,
                    "velocity": 0.25196850393700787,
                    "duration": 0.7747439999999983
                },
                {
                    "name": "G#4",
                    "midi": 68,
                    "time": 136.35494400000002,
                    "velocity": 0.2992125984251969,
                    "duration": 0.7747439999999983
                },
                {
                    "name": "D4",
                    "midi": 62,
                    "time": 137.12968800000002,
                    "velocity": 0.1968503937007874,
                    "duration": 0.7747439999999983
                },
                {
                    "name": "F4",
                    "midi": 65,
                    "time": 137.12968800000002,
                    "velocity": 0.25196850393700787,
                    "duration": 0.7747439999999983
                },
                {
                    "name": "G#4",
                    "midi": 68,
                    "time": 137.12968800000002,
                    "velocity": 0.2992125984251969,
                    "duration": 0.7747439999999983
                },
                {
                    "name": "D#4",
                    "midi": 63,
                    "time": 137.904432,
                    "velocity": 0.1968503937007874,
                    "duration": 0.7747439999999983
                },
                {
                    "name": "F4",
                    "midi": 65,
                    "time": 137.904432,
                    "velocity": 0.25196850393700787,
                    "duration": 0.7747439999999983
                },
                {
                    "name": "G#4",
                    "midi": 68,
                    "time": 137.904432,
                    "velocity": 0.2992125984251969,
                    "duration": 0.7747439999999983
                },
                {
                    "name": "D4",
                    "midi": 62,
                    "time": 138.679176,
                    "velocity": 0.1968503937007874,
                    "duration": 0.7747439999999983
                },
                {
                    "name": "F4",
                    "midi": 65,
                    "time": 138.679176,
                    "velocity": 0.25196850393700787,
                    "duration": 0.7747439999999983
                },
                {
                    "name": "G#4",
                    "midi": 68,
                    "time": 138.679176,
                    "velocity": 0.2992125984251969,
                    "duration": 0.7747439999999983
                },
                {
                    "name": "C4",
                    "midi": 60,
                    "time": 139.45392,
                    "velocity": 0.1968503937007874,
                    "duration": 0.7747439999999983
                },
                {
                    "name": "F4",
                    "midi": 65,
                    "time": 139.45392,
                    "velocity": 0.25196850393700787,
                    "duration": 0.7747439999999983
                },
                {
                    "name": "G#4",
                    "midi": 68,
                    "time": 139.45392,
                    "velocity": 0.2992125984251969,
                    "duration": 0.7747439999999983
                },
                {
                    "name": "B3",
                    "midi": 59,
                    "time": 140.228664,
                    "velocity": 0.1968503937007874,
                    "duration": 0.7747439999999983
                },
                {
                    "name": "F4",
                    "midi": 65,
                    "time": 140.228664,
                    "velocity": 0.25196850393700787,
                    "duration": 0.7747439999999983
                },
                {
                    "name": "G#4",
                    "midi": 68,
                    "time": 140.228664,
                    "velocity": 0.2992125984251969,
                    "duration": 0.7747439999999983
                },
                {
                    "name": "C4",
                    "midi": 60,
                    "time": 141.003408,
                    "velocity": 0.1968503937007874,
                    "duration": 0.7747439999999983
                },
                {
                    "name": "F4",
                    "midi": 65,
                    "time": 141.003408,
                    "velocity": 0.25196850393700787,
                    "duration": 0.7747439999999983
                },
                {
                    "name": "G#4",
                    "midi": 68,
                    "time": 141.003408,
                    "velocity": 0.2992125984251969,
                    "duration": 0.7747439999999983
                },
                {
                    "name": "B3",
                    "midi": 59,
                    "time": 141.778152,
                    "velocity": 0.1968503937007874,
                    "duration": 1.3558020000000113
                },
                {
                    "name": "F4",
                    "midi": 65,
                    "time": 141.778152,
                    "velocity": 0.25196850393700787,
                    "duration": 1.3558020000000113
                },
                {
                    "name": "G#4",
                    "midi": 68,
                    "time": 141.778152,
                    "velocity": 0.2992125984251969,
                    "duration": 1.3558020000000113
                },
                {
                    "name": "A#4",
                    "midi": 70,
                    "time": 143.13395400000002,
                    "velocity": 0.28346456692913385,
                    "duration": 0.38737199999999916
                },
                {
                    "name": "G#4",
                    "midi": 68,
                    "time": 143.52132600000002,
                    "velocity": 0.2125984251968504,
                    "duration": 0.1936860000000138
                },
                {
                    "name": "F4",
                    "midi": 65,
                    "time": 143.71501200000003,
                    "velocity": 0.29133858267716534,
                    "duration": 0.1936860000000138
                },
                {
                    "name": "D4",
                    "midi": 62,
                    "time": 143.90869800000004,
                    "velocity": 0.23622047244094488,
                    "duration": 0.1936860000000138
                },
                {
                    "name": "B3",
                    "midi": 59,
                    "time": 144.10238400000006,
                    "velocity": 0.2125984251968504,
                    "duration": 0.38737199999999916
                },
                {
                    "name": "C3",
                    "midi": 48,
                    "time": 144.48975600000006,
                    "velocity": 0.16535433070866143,
                    "duration": 0.38737199999999916
                },
                {
                    "name": "G3",
                    "midi": 55,
                    "time": 144.48975600000006,
                    "velocity": 0.2440944881889764,
                    "duration": 0.38737199999999916
                },
                {
                    "name": "C3",
                    "midi": 48,
                    "time": 144.87712800000006,
                    "velocity": 0.25196850393700787,
                    "duration": 0.3389505000000099
                },
                {
                    "name": "A3",
                    "midi": 57,
                    "time": 144.87712800000006,
                    "velocity": 0.2992125984251969,
                    "duration": 0.3389505000000099
                },
                {
                    "name": "G2",
                    "midi": 43,
                    "time": 145.21607850000007,
                    "velocity": 0.2755905511811024,
                    "duration": 0.04842149999998924
                },
                {
                    "name": "A#3",
                    "midi": 58,
                    "time": 145.26450000000006,
                    "velocity": 0.30708661417322836,
                    "duration": 0.1936860000000138
                },
                {
                    "name": "C4",
                    "midi": 60,
                    "time": 145.45818600000007,
                    "velocity": 0.25984251968503935,
                    "duration": 0.1936860000000138
                },
                {
                    "name": "A3",
                    "midi": 57,
                    "time": 145.65187200000008,
                    "velocity": 0.2992125984251969,
                    "duration": 0.1936860000000138
                },
                {
                    "name": "A#3",
                    "midi": 58,
                    "time": 145.8455580000001,
                    "velocity": 0.2755905511811024,
                    "duration": 0.1936860000000138
                },
                {
                    "name": "G3",
                    "midi": 55,
                    "time": 146.0392440000001,
                    "velocity": 0.3700787401574803,
                    "duration": 0.1936860000000138
                },
                {
                    "name": "D4",
                    "midi": 62,
                    "time": 146.23293000000012,
                    "velocity": 0.31496062992125984,
                    "duration": 0.1936860000000138
                },
                {
                    "name": "D4",
                    "midi": 62,
                    "time": 146.42661600000014,
                    "velocity": 0.3858267716535433,
                    "duration": 0.38737199999999916
                },
                {
                    "name": "C3",
                    "midi": 48,
                    "time": 146.81398800000014,
                    "velocity": 0.2125984251968504,
                    "duration": 0.38737199999999916
                },
                {
                    "name": "G3",
                    "midi": 55,
                    "time": 146.81398800000014,
                    "velocity": 0.25196850393700787,
                    "duration": 0.38737199999999916
                },
                {
                    "name": "C3",
                    "midi": 48,
                    "time": 147.20136000000014,
                    "velocity": 0.25984251968503935,
                    "duration": 0.3389505000000099
                },
                {
                    "name": "A3",
                    "midi": 57,
                    "time": 147.20136000000014,
                    "velocity": 0.30708661417322836,
                    "duration": 0.3389505000000099
                },
                {
                    "name": "G2",
                    "midi": 43,
                    "time": 147.54031050000015,
                    "velocity": 0.29133858267716534,
                    "duration": 0.04842149999998924
                },
                {
                    "name": "A#3",
                    "midi": 58,
                    "time": 147.58873200000014,
                    "velocity": 0.3228346456692913,
                    "duration": 0.1936860000000138
                },
                {
                    "name": "C4",
                    "midi": 60,
                    "time": 147.78241800000015,
                    "velocity": 0.2677165354330709,
                    "duration": 0.1936860000000138
                },
                {
                    "name": "A3",
                    "midi": 57,
                    "time": 147.97610400000016,
                    "velocity": 0.31496062992125984,
                    "duration": 0.1936860000000138
                },
                {
                    "name": "A#3",
                    "midi": 58,
                    "time": 148.16979000000018,
                    "velocity": 0.28346456692913385,
                    "duration": 0.1936860000000138
                },
                {
                    "name": "G3",
                    "midi": 55,
                    "time": 148.3634760000002,
                    "velocity": 0.4015748031496063,
                    "duration": 0.1936860000000138
                },
                {
                    "name": "D#4",
                    "midi": 63,
                    "time": 148.5571620000002,
                    "velocity": 0.3543307086614173,
                    "duration": 0.1936860000000138
                },
                {
                    "name": "D#4",
                    "midi": 63,
                    "time": 148.75084800000022,
                    "velocity": 0.4094488188976378,
                    "duration": 0.38737199999999916
                },
                {
                    "name": "C3",
                    "midi": 48,
                    "time": 149.13822000000022,
                    "velocity": 0.2204724409448819,
                    "duration": 0.1920719500000132
                },
                {
                    "name": "G3",
                    "midi": 55,
                    "time": 149.13822000000022,
                    "velocity": 0.2677165354330709,
                    "duration": 0.1920719500000132
                },
                {
                    "name": "F2",
                    "midi": 41,
                    "time": 149.52559200000022,
                    "velocity": 0.2677165354330709,
                    "duration": 0.38737199999999916
                },
                {
                    "name": "F3",
                    "midi": 53,
                    "time": 149.52559200000022,
                    "velocity": 0.3228346456692913,
                    "duration": 0.581058000000013
                },
                {
                    "name": "A#2",
                    "midi": 46,
                    "time": 149.91296400000022,
                    "velocity": 0.33858267716535434,
                    "duration": 0.1936860000000138
                },
                {
                    "name": "A#3",
                    "midi": 58,
                    "time": 150.10665000000023,
                    "velocity": 0.28346456692913385,
                    "duration": 0.1936860000000138
                },
                {
                    "name": "G3",
                    "midi": 55,
                    "time": 150.30033600000024,
                    "velocity": 0.33070866141732286,
                    "duration": 0.1936860000000138
                },
                {
                    "name": "A3",
                    "midi": 57,
                    "time": 150.49402200000026,
                    "velocity": 0.29133858267716534,
                    "duration": 0.1936860000000138
                },
                {
                    "name": "F3",
                    "midi": 53,
                    "time": 150.68770800000027,
                    "velocity": 0.3937007874015748,
                    "duration": 0.1936860000000138
                },
                {
                    "name": "D4",
                    "midi": 62,
                    "time": 150.88139400000028,
                    "velocity": 0.3464566929133858,
                    "duration": 0.1936860000000138
                },
                {
                    "name": "D4",
                    "midi": 62,
                    "time": 151.0750800000003,
                    "velocity": 0.41732283464566927,
                    "duration": 0.38737199999999916
                },
                {
                    "name": "A#2",
                    "midi": 46,
                    "time": 151.4624520000003,
                    "velocity": 0.2204724409448819,
                    "duration": 0.1920719500000132
                },
                {
                    "name": "F3",
                    "midi": 53,
                    "time": 151.4624520000003,
                    "velocity": 0.2677165354330709,
                    "duration": 0.1920719500000132
                },
                {
                    "name": "D#2",
                    "midi": 39,
                    "time": 151.8498240000003,
                    "velocity": 0.2677165354330709,
                    "duration": 0.38737199999999916
                },
                {
                    "name": "D#3",
                    "midi": 51,
                    "time": 151.8498240000003,
                    "velocity": 0.3228346456692913,
                    "duration": 0.581058000000013
                },
                {
                    "name": "A2",
                    "midi": 45,
                    "time": 152.2371960000003,
                    "velocity": 0.33858267716535434,
                    "duration": 0.1936860000000138
                },
                {
                    "name": "A3",
                    "midi": 57,
                    "time": 152.4308820000003,
                    "velocity": 0.25984251968503935,
                    "duration": 0.1936860000000138
                },
                {
                    "name": "F3",
                    "midi": 53,
                    "time": 152.62456800000032,
                    "velocity": 0.33070866141732286,
                    "duration": 0.1936860000000138
                },
                {
                    "name": "G3",
                    "midi": 55,
                    "time": 152.81825400000034,
                    "velocity": 0.29133858267716534,
                    "duration": 0.1936860000000138
                },
                {
                    "name": "D#3",
                    "midi": 51,
                    "time": 153.01194000000035,
                    "velocity": 0.3937007874015748,
                    "duration": 0.1936860000000138
                },
                {
                    "name": "C4",
                    "midi": 60,
                    "time": 153.20562600000036,
                    "velocity": 0.3464566929133858,
                    "duration": 0.1936860000000138
                },
                {
                    "name": "C4",
                    "midi": 60,
                    "time": 153.39931200000038,
                    "velocity": 0.41732283464566927,
                    "duration": 0.38737199999999916
                },
                {
                    "name": "C2",
                    "midi": 36,
                    "time": 153.78668400000038,
                    "velocity": 0.2204724409448819,
                    "duration": 0.1920719500000132
                },
                {
                    "name": "C3",
                    "midi": 48,
                    "time": 153.78668400000038,
                    "velocity": 0.2677165354330709,
                    "duration": 0.1920719500000132
                },
                {
                    "name": "D2",
                    "midi": 38,
                    "time": 154.17405600000038,
                    "velocity": 0.2677165354330709,
                    "duration": 0.38737199999999916
                },
                {
                    "name": "D3",
                    "midi": 50,
                    "time": 154.17405600000038,
                    "velocity": 0.3228346456692913,
                    "duration": 0.581058000000013
                },
                {
                    "name": "G2",
                    "midi": 43,
                    "time": 154.56142800000038,
                    "velocity": 0.33858267716535434,
                    "duration": 0.1936860000000138
                },
                {
                    "name": "D#3",
                    "midi": 51,
                    "time": 154.7551140000004,
                    "velocity": 0.2755905511811024,
                    "duration": 0.1936860000000138
                },
                {
                    "name": "C3",
                    "midi": 48,
                    "time": 154.9488000000004,
                    "velocity": 0.3228346456692913,
                    "duration": 0.1936860000000138
                },
                {
                    "name": "D3",
                    "midi": 50,
                    "time": 155.14248600000042,
                    "velocity": 0.29133858267716534,
                    "duration": 0.1936860000000138
                },
                {
                    "name": "A#2",
                    "midi": 46,
                    "time": 155.33617200000043,
                    "velocity": 0.3858267716535433,
                    "duration": 0.1936860000000138
                },
                {
                    "name": "G3",
                    "midi": 55,
                    "time": 155.52985800000044,
                    "velocity": 0.33070866141732286,
                    "duration": 0.1936860000000138
                },
                {
                    "name": "G3",
                    "midi": 55,
                    "time": 155.72354400000046,
                    "velocity": 0.4015748031496063,
                    "duration": 0.38737199999999916
                },
                {
                    "name": "C2",
                    "midi": 36,
                    "time": 156.11091600000046,
                    "velocity": 0.2440944881889764,
                    "duration": 0.1920719500000132
                },
                {
                    "name": "C3",
                    "midi": 48,
                    "time": 156.11091600000046,
                    "velocity": 0.29133858267716534,
                    "duration": 0.1920719500000132
                },
                {
                    "name": "D2",
                    "midi": 38,
                    "time": 156.49828800000046,
                    "velocity": 0.2992125984251969,
                    "duration": 0.38737199999999916
                },
                {
                    "name": "D3",
                    "midi": 50,
                    "time": 156.49828800000046,
                    "velocity": 0.3543307086614173,
                    "duration": 0.7747439999999983
                },
                {
                    "name": "G2",
                    "midi": 43,
                    "time": 156.88566000000046,
                    "velocity": 0.3700787401574803,
                    "duration": 0.38737199999999916
                },
                {
                    "name": "D2",
                    "midi": 38,
                    "time": 157.66040400000045,
                    "velocity": 0.31496062992125984,
                    "duration": 0.38737199999999916
                },
                {
                    "name": "A#2",
                    "midi": 46,
                    "time": 157.66040400000045,
                    "velocity": 0.31496062992125984,
                    "duration": 0.7747439999999983
                },
                {
                    "name": "D#2",
                    "midi": 39,
                    "time": 158.04777600000045,
                    "velocity": 0.31496062992125984,
                    "duration": 0.38737199999999916
                },
                {
                    "name": "D2",
                    "midi": 38,
                    "time": 158.82252000000045,
                    "velocity": 0.31496062992125984,
                    "duration": 0.38737199999999916
                },
                {
                    "name": "A#2",
                    "midi": 46,
                    "time": 158.82252000000045,
                    "velocity": 0.31496062992125984,
                    "duration": 0.7747439999999983
                },
                {
                    "name": "D#2",
                    "midi": 39,
                    "time": 159.20989200000045,
                    "velocity": 0.31496062992125984,
                    "duration": 0.38737199999999916
                },
                {
                    "name": "C2",
                    "midi": 36,
                    "time": 159.93621450000046,
                    "velocity": 0.25984251968503935,
                    "duration": 0.8231654999999876
                },
                {
                    "name": "D#3",
                    "midi": 51,
                    "time": 159.98463600000045,
                    "velocity": 0.31496062992125984,
                    "duration": 1.1621159999999975
                },
                {
                    "name": "C3",
                    "midi": 48,
                    "time": 160.75938000000045,
                    "velocity": 0.31496062992125984,
                    "duration": 0.38737199999999916
                },
                {
                    "name": "F3",
                    "midi": 53,
                    "time": 161.14675200000045,
                    "velocity": 0.28346456692913385,
                    "duration": 0.29052899999999227
                },
                {
                    "name": "F2",
                    "midi": 41,
                    "time": 161.14675200000045,
                    "velocity": 0.28346456692913385,
                    "duration": 0.38737199999999916
                },
                {
                    "name": "D#3",
                    "midi": 51,
                    "time": 161.43728100000044,
                    "velocity": 0.25196850393700787,
                    "duration": 0.0968430000000069
                },
                {
                    "name": "A#2",
                    "midi": 46,
                    "time": 161.53412400000045,
                    "velocity": 0.29133858267716534,
                    "duration": 0.1936860000000138
                },
                {
                    "name": "D3",
                    "midi": 50,
                    "time": 161.53412400000045,
                    "velocity": 0.29133858267716534,
                    "duration": 0.1936860000000138
                },
                {
                    "name": "F2",
                    "midi": 41,
                    "time": 162.26044650000046,
                    "velocity": 0.2204724409448819,
                    "duration": 0.4357935000000168
                },
                {
                    "name": "C#3",
                    "midi": 49,
                    "time": 162.28465725000046,
                    "velocity": 0.25196850393700787,
                    "duration": 0.411582750000008
                },
                {
                    "name": "A3",
                    "midi": 57,
                    "time": 162.30886800000047,
                    "velocity": 0.28346456692913385,
                    "duration": 0.38737199999999916
                },
                {
                    "name": "A#3",
                    "midi": 58,
                    "time": 162.69624000000047,
                    "velocity": 0.31496062992125984,
                    "duration": 0.38737199999999916
                },
                {
                    "name": "D3",
                    "midi": 50,
                    "time": 162.69624000000047,
                    "velocity": 0.31496062992125984,
                    "duration": 0.38737199999999916
                },
                {
                    "name": "F2",
                    "midi": 41,
                    "time": 163.42256250000048,
                    "velocity": 0.2283464566929134,
                    "duration": 0.4357935000000168
                },
                {
                    "name": "C#3",
                    "midi": 49,
                    "time": 163.4467732500005,
                    "velocity": 0.25196850393700787,
                    "duration": 0.411582750000008
                },
                {
                    "name": "A3",
                    "midi": 57,
                    "time": 163.4709840000005,
                    "velocity": 0.28346456692913385,
                    "duration": 0.38737199999999916
                },
                {
                    "name": "A#3",
                    "midi": 58,
                    "time": 163.8583560000005,
                    "velocity": 0.31496062992125984,
                    "duration": 0.38737199999999916
                },
                {
                    "name": "D3",
                    "midi": 50,
                    "time": 163.8583560000005,
                    "velocity": 0.31496062992125984,
                    "duration": 0.38737199999999916
                },
                {
                    "name": "A#2",
                    "midi": 46,
                    "time": 164.5846785000005,
                    "velocity": 0.25984251968503935,
                    "duration": 0.4357935000000168
                },
                {
                    "name": "F3",
                    "midi": 53,
                    "time": 164.60888925000052,
                    "velocity": 0.25984251968503935,
                    "duration": 0.7989547500000072
                },
                {
                    "name": "D4",
                    "midi": 62,
                    "time": 164.63310000000052,
                    "velocity": 0.31496062992125984,
                    "duration": 0.38737199999999916
                },
                {
                    "name": "D4",
                    "midi": 62,
                    "time": 165.02047200000052,
                    "velocity": 0.31496062992125984,
                    "duration": 0.7747439999999983
                },
                {
                    "name": "G3",
                    "midi": 55,
                    "time": 165.40784400000052,
                    "velocity": 0.31496062992125984,
                    "duration": 0.38737199999999916
                },
                {
                    "name": "C4",
                    "midi": 60,
                    "time": 165.79521600000052,
                    "velocity": 0.28346456692913385,
                    "duration": 0.29052899999999227
                },
                {
                    "name": "C3",
                    "midi": 48,
                    "time": 165.79521600000052,
                    "velocity": 0.28346456692913385,
                    "duration": 0.38737199999999916
                },
                {
                    "name": "A#3",
                    "midi": 58,
                    "time": 166.08574500000051,
                    "velocity": 0.25196850393700787,
                    "duration": 0.0968430000000069
                },
                {
                    "name": "F3",
                    "midi": 53,
                    "time": 166.18258800000052,
                    "velocity": 0.29133858267716534,
                    "duration": 0.1936860000000138
                },
                {
                    "name": "A3",
                    "midi": 57,
                    "time": 166.18258800000052,
                    "velocity": 0.29133858267716534,
                    "duration": 0.1936860000000138
                },
                {
                    "name": "D3",
                    "midi": 50,
                    "time": 166.90891050000053,
                    "velocity": 0.25196850393700787,
                    "duration": 0.36316125000001875
                },
                {
                    "name": "A#3",
                    "midi": 58,
                    "time": 166.93312125000054,
                    "velocity": 0.28346456692913385,
                    "duration": 0.3389505000000099
                },
                {
                    "name": "F4",
                    "midi": 65,
                    "time": 166.95733200000055,
                    "velocity": 0.31496062992125984,
                    "duration": 0.3954422500000305
                },
                {
                    "name": "D#3",
                    "midi": 51,
                    "time": 167.27207175000055,
                    "velocity": 0.2125984251968504,
                    "duration": 0.46000425000002565
                },
                {
                    "name": "F#3",
                    "midi": 54,
                    "time": 167.29628250000056,
                    "velocity": 0.25984251968503935,
                    "duration": 0.4357935000000168
                },
                {
                    "name": "A#3",
                    "midi": 58,
                    "time": 167.32049325000057,
                    "velocity": 0.31496062992125984,
                    "duration": 0.411582750000008
                },
                {
                    "name": "F#4",
                    "midi": 66,
                    "time": 167.34470400000058,
                    "velocity": 0.31496062992125984,
                    "duration": 0.38737199999999916
                },
                {
                    "name": "D3",
                    "midi": 50,
                    "time": 168.07102650000058,
                    "velocity": 0.25984251968503935,
                    "duration": 0.2905290000000207
                },
                {
                    "name": "A#3",
                    "midi": 58,
                    "time": 168.0952372500006,
                    "velocity": 0.28346456692913385,
                    "duration": 0.3389505000000099
                },
                {
                    "name": "F4",
                    "midi": 65,
                    "time": 168.1194480000006,
                    "velocity": 0.31496062992125984,
                    "duration": 0.3147397500000011
                },
                {
                    "name": "D#3",
                    "midi": 51,
                    "time": 168.4341877500006,
                    "velocity": 0.2125984251968504,
                    "duration": 0.46000425000002565
                },
                {
                    "name": "F#3",
                    "midi": 54,
                    "time": 168.4583985000006,
                    "velocity": 0.2440944881889764,
                    "duration": 0.4357935000000168
                },
                {
                    "name": "A#3",
                    "midi": 58,
                    "time": 168.48260925000062,
                    "velocity": 0.2755905511811024,
                    "duration": 0.411582750000008
                },
                {
                    "name": "F#4",
                    "midi": 66,
                    "time": 168.50682000000063,
                    "velocity": 0.31496062992125984,
                    "duration": 0.38737199999999916
                },
                {
                    "name": "F#3",
                    "midi": 54,
                    "time": 169.23314250000064,
                    "velocity": 0.25984251968503935,
                    "duration": 0.4357935000000168
                },
                {
                    "name": "C#4",
                    "midi": 61,
                    "time": 169.25735325000065,
                    "velocity": 0.25984251968503935,
                    "duration": 0.7989547500000072
                },
                {
                    "name": "A#4",
                    "midi": 70,
                    "time": 169.28156400000066,
                    "velocity": 0.31496062992125984,
                    "duration": 0.38737199999999916
                },
                {
                    "name": "A#4",
                    "midi": 70,
                    "time": 169.66893600000066,
                    "velocity": 0.31496062992125984,
                    "duration": 0.7747439999999983
                },
                {
                    "name": "D#4",
                    "midi": 63,
                    "time": 170.05630800000066,
                    "velocity": 0.31496062992125984,
                    "duration": 0.38737199999999916
                },
                {
                    "name": "F#4",
                    "midi": 66,
                    "time": 170.44368000000065,
                    "velocity": 0.28346456692913385,
                    "duration": 0.38737199999999916
                },
                {
                    "name": "G#3",
                    "midi": 56,
                    "time": 170.44368000000065,
                    "velocity": 0.28346456692913385,
                    "duration": 0.38737199999999916
                },
                {
                    "name": "C#4",
                    "midi": 61,
                    "time": 170.83105200000065,
                    "velocity": 0.29133858267716534,
                    "duration": 0.1936860000000138
                },
                {
                    "name": "F4",
                    "midi": 65,
                    "time": 170.83105200000065,
                    "velocity": 0.29133858267716534,
                    "duration": 0.1936860000000138
                },
                {
                    "name": "G#2",
                    "midi": 44,
                    "time": 171.55737450000066,
                    "velocity": 0.25196850393700787,
                    "duration": 0.4357935000000168
                },
                {
                    "name": "D#3",
                    "midi": 51,
                    "time": 171.58158525000067,
                    "velocity": 0.28346456692913385,
                    "duration": 0.411582750000008
                },
                {
                    "name": "C4",
                    "midi": 60,
                    "time": 171.60579600000068,
                    "velocity": 0.31496062992125984,
                    "duration": 0.38737199999999916
                },
                {
                    "name": "C#4",
                    "midi": 61,
                    "time": 171.99316800000068,
                    "velocity": 0.31496062992125984,
                    "duration": 0.38737199999999916
                },
                {
                    "name": "F3",
                    "midi": 53,
                    "time": 171.99316800000068,
                    "velocity": 0.31496062992125984,
                    "duration": 0.38737199999999916
                },
                {
                    "name": "G#2",
                    "midi": 44,
                    "time": 172.7194905000007,
                    "velocity": 0.25984251968503935,
                    "duration": 0.4357935000000168
                },
                {
                    "name": "D#3",
                    "midi": 51,
                    "time": 172.7437012500007,
                    "velocity": 0.28346456692913385,
                    "duration": 0.411582750000008
                },
                {
                    "name": "C4",
                    "midi": 60,
                    "time": 172.7679120000007,
                    "velocity": 0.31496062992125984,
                    "duration": 0.38737199999999916
                },
                {
                    "name": "C#4",
                    "midi": 61,
                    "time": 173.1552840000007,
                    "velocity": 0.31496062992125984,
                    "duration": 0.38737199999999916
                },
                {
                    "name": "F3",
                    "midi": 53,
                    "time": 173.1552840000007,
                    "velocity": 0.31496062992125984,
                    "duration": 0.38737199999999916
                },
                {
                    "name": "C#3",
                    "midi": 49,
                    "time": 173.88160650000071,
                    "velocity": 0.25984251968503935,
                    "duration": 0.4357935000000168
                },
                {
                    "name": "G#3",
                    "midi": 56,
                    "time": 173.90581725000072,
                    "velocity": 0.25984251968503935,
                    "duration": 0.7989547500000072
                },
                {
                    "name": "F4",
                    "midi": 65,
                    "time": 173.93002800000073,
                    "velocity": 0.31496062992125984,
                    "duration": 0.38737199999999916
                },
                {
                    "name": "F4",
                    "midi": 65,
                    "time": 174.31740000000073,
                    "velocity": 0.31496062992125984,
                    "duration": 0.7747439999999983
                },
                {
                    "name": "A#3",
                    "midi": 58,
                    "time": 174.70477200000073,
                    "velocity": 0.31496062992125984,
                    "duration": 0.38737199999999916
                },
                {
                    "name": "C#4",
                    "midi": 61,
                    "time": 175.09214400000073,
                    "velocity": 0.28346456692913385,
                    "duration": 0.38737199999999916
                },
                {
                    "name": "D#3",
                    "midi": 51,
                    "time": 175.09214400000073,
                    "velocity": 0.28346456692913385,
                    "duration": 0.38737199999999916
                },
                {
                    "name": "G#3",
                    "midi": 56,
                    "time": 175.47951600000073,
                    "velocity": 0.29133858267716534,
                    "duration": 0.1936860000000138
                },
                {
                    "name": "C4",
                    "midi": 60,
                    "time": 175.47951600000073,
                    "velocity": 0.29133858267716534,
                    "duration": 0.1936860000000138
                },
                {
                    "name": "F#3",
                    "midi": 54,
                    "time": 175.86688800000076,
                    "velocity": 0.36220472440944884,
                    "duration": 0.6779009999999914
                },
                {
                    "name": "G#2",
                    "midi": 44,
                    "time": 176.25426000000076,
                    "velocity": 0.25196850393700787,
                    "duration": 0.7747439999999983
                },
                {
                    "name": "D3",
                    "midi": 50,
                    "time": 176.54478900000075,
                    "velocity": 0.33858267716535434,
                    "duration": 0.0968430000000069
                },
                {
                    "name": "D#3",
                    "midi": 51,
                    "time": 176.64163200000075,
                    "velocity": 0.3858267716535433,
                    "duration": 0.29052899999999227
                },
                {
                    "name": "F3",
                    "midi": 53,
                    "time": 176.93216100000075,
                    "velocity": 0.33070866141732286,
                    "duration": 0.0968430000000069
                },
                {
                    "name": "F#3",
                    "midi": 54,
                    "time": 177.02900400000075,
                    "velocity": 0.3858267716535433,
                    "duration": 0.7747439999999983
                },
                {
                    "name": "G#2",
                    "midi": 44,
                    "time": 177.41637600000075,
                    "velocity": 0.25196850393700787,
                    "duration": 0.7747439999999983
                },
                {
                    "name": "D#3",
                    "midi": 51,
                    "time": 178.19112000000075,
                    "velocity": 0.36220472440944884,
                    "duration": 0.6779009999999914
                },
                {
                    "name": "G#2",
                    "midi": 44,
                    "time": 178.57849200000075,
                    "velocity": 0.25196850393700787,
                    "duration": 0.7747439999999983
                },
                {
                    "name": "B2",
                    "midi": 47,
                    "time": 178.86902100000074,
                    "velocity": 0.33070866141732286,
                    "duration": 0.0968430000000069
                },
                {
                    "name": "C3",
                    "midi": 48,
                    "time": 178.96586400000075,
                    "velocity": 0.3858267716535433,
                    "duration": 0.29052899999999227
                },
                {
                    "name": "C#3",
                    "midi": 49,
                    "time": 179.25639300000074,
                    "velocity": 0.3464566929133858,
                    "duration": 0.0968430000000069
                },
                {
                    "name": "D#3",
                    "midi": 51,
                    "time": 179.35323600000075,
                    "velocity": 0.3779527559055118,
                    "duration": 0.7747439999999983
                },
                {
                    "name": "G#2",
                    "midi": 44,
                    "time": 179.74060800000075,
                    "velocity": 0.25196850393700787,
                    "duration": 1.1621159999999975
                },
                {
                    "name": "A2",
                    "midi": 45,
                    "time": 180.90272400000075,
                    "velocity": 0.25196850393700787,
                    "duration": 1.1621159999999975
                },
                {
                    "name": "B2",
                    "midi": 47,
                    "time": 182.06484000000074,
                    "velocity": 0.25196850393700787,
                    "duration": 1.1621159999999975
                },
                {
                    "name": "C3",
                    "midi": 48,
                    "time": 183.22695600000074,
                    "velocity": 0.25196850393700787,
                    "duration": 0.9684300000000121
                },
                {
                    "name": "D3",
                    "midi": 50,
                    "time": 184.19538600000075,
                    "velocity": 0.33858267716535434,
                    "duration": 0.1936860000000138
                },
                {
                    "name": "E3",
                    "midi": 52,
                    "time": 184.38907200000077,
                    "velocity": 0.3858267716535433,
                    "duration": 0.1936860000000138
                },
                {
                    "name": "F#3",
                    "midi": 54,
                    "time": 184.58275800000078,
                    "velocity": 0.41732283464566927,
                    "duration": 0.581058000000013
                },
                {
                    "name": "G1",
                    "midi": 31,
                    "time": 185.1638160000008,
                    "velocity": 0.3464566929133858,
                    "duration": 0.6779009999999914
                },
                {
                    "name": "A#1",
                    "midi": 34,
                    "time": 185.84171700000078,
                    "velocity": 0.2755905511811024,
                    "duration": 0.07263224999999807
                },
                {
                    "name": "A1",
                    "midi": 33,
                    "time": 185.9385600000008,
                    "velocity": 0.31496062992125984,
                    "duration": 0.07263224999999807
                },
                {
                    "name": "F#1",
                    "midi": 30,
                    "time": 187.00383300000078,
                    "velocity": 0.25984251968503935,
                    "duration": 0.07263224999999807
                },
                {
                    "name": "G1",
                    "midi": 31,
                    "time": 187.1006760000008,
                    "velocity": 0.31496062992125984,
                    "duration": 0.07263224999999807
                },
                {
                    "name": "A#1",
                    "midi": 34,
                    "time": 188.16594900000078,
                    "velocity": 0.25196850393700787,
                    "duration": 0.07263224999999807
                },
                {
                    "name": "C2",
                    "midi": 36,
                    "time": 188.2627920000008,
                    "velocity": 0.29133858267716534,
                    "duration": 0.07263224999999807
                },
                {
                    "name": "D2",
                    "midi": 38,
                    "time": 188.55332100000078,
                    "velocity": 0.25984251968503935,
                    "duration": 0.07263224999999807
                },
                {
                    "name": "D#2",
                    "midi": 39,
                    "time": 188.65016400000079,
                    "velocity": 0.2992125984251969,
                    "duration": 0.07263224999999807
                },
                {
                    "name": "D#3",
                    "midi": 51,
                    "time": 189.03753600000078,
                    "velocity": 0.31496062992125984,
                    "duration": 0.07263224999999807
                },
                {
                    "name": "D2",
                    "midi": 38,
                    "time": 189.42490800000078,
                    "velocity": 0.3543307086614173,
                    "duration": 0.07263224999999807
                },
                {
                    "name": "D3",
                    "midi": 50,
                    "time": 189.42490800000078,
                    "velocity": 0.3543307086614173,
                    "duration": 0.07263224999999807
                },
                {
                    "name": "F#1",
                    "midi": 30,
                    "time": 190.19965200000078,
                    "velocity": 0.31496062992125984,
                    "duration": 0.38737199999999916
                },
                {
                    "name": "G1",
                    "midi": 31,
                    "time": 190.58702400000078,
                    "velocity": 0.3464566929133858,
                    "duration": 0.1936860000000138
                },
                {
                    "name": "G3",
                    "midi": 55,
                    "time": 190.9743960000008,
                    "velocity": 0.47244094488188976,
                    "duration": 0.6779009999999914
                },
                {
                    "name": "F3",
                    "midi": 53,
                    "time": 191.6522970000008,
                    "velocity": 0.4015748031496063,
                    "duration": 0.0968430000000069
                },
                {
                    "name": "D#3",
                    "midi": 51,
                    "time": 191.7491400000008,
                    "velocity": 0.4566929133858268,
                    "duration": 0.07263224999999807
                },
                {
                    "name": "D3",
                    "midi": 50,
                    "time": 192.0396690000008,
                    "velocity": 0.4015748031496063,
                    "duration": 0.07263224999999807
                },
                {
                    "name": "C3",
                    "midi": 48,
                    "time": 192.1365120000008,
                    "velocity": 0.44881889763779526,
                    "duration": 0.07263224999999807
                },
                {
                    "name": "A#2",
                    "midi": 46,
                    "time": 192.4270410000008,
                    "velocity": 0.3937007874015748,
                    "duration": 0.07263224999999807
                },
                {
                    "name": "A1",
                    "midi": 33,
                    "time": 192.5238840000008,
                    "velocity": 0.31496062992125984,
                    "duration": 0.38737199999999916
                },
                {
                    "name": "A#1",
                    "midi": 34,
                    "time": 192.9112560000008,
                    "velocity": 0.3464566929133858,
                    "duration": 0.1936860000000138
                },
                {
                    "name": "A#3",
                    "midi": 58,
                    "time": 193.29862800000083,
                    "velocity": 0.47244094488188976,
                    "duration": 0.6779009999999914
                },
                {
                    "name": "A3",
                    "midi": 57,
                    "time": 193.97652900000082,
                    "velocity": 0.4015748031496063,
                    "duration": 0.0968430000000069
                },
                {
                    "name": "G3",
                    "midi": 55,
                    "time": 194.07337200000083,
                    "velocity": 0.4566929133858268,
                    "duration": 0.07263224999999807
                },
                {
                    "name": "F3",
                    "midi": 53,
                    "time": 194.36390100000082,
                    "velocity": 0.4015748031496063,
                    "duration": 0.07263224999999807
                },
                {
                    "name": "E3",
                    "midi": 52,
                    "time": 194.46074400000083,
                    "velocity": 0.44881889763779526,
                    "duration": 0.07263224999999807
                },
                {
                    "name": "D3",
                    "midi": 50,
                    "time": 194.75127300000082,
                    "velocity": 0.3937007874015748,
                    "duration": 0.07263224999999807
                },
                {
                    "name": "C#2",
                    "midi": 37,
                    "time": 194.84811600000083,
                    "velocity": 0.31496062992125984,
                    "duration": 0.38737199999999916
                },
                {
                    "name": "D2",
                    "midi": 38,
                    "time": 195.23548800000083,
                    "velocity": 0.3464566929133858,
                    "duration": 0.1936860000000138
                },
                {
                    "name": "D4",
                    "midi": 62,
                    "time": 195.62286000000086,
                    "velocity": 0.4566929133858268,
                    "duration": 0.6779009999999914
                },
                {
                    "name": "C4",
                    "midi": 60,
                    "time": 196.30076100000085,
                    "velocity": 0.4015748031496063,
                    "duration": 0.0968430000000069
                },
                {
                    "name": "A#3",
                    "midi": 58,
                    "time": 196.39760400000085,
                    "velocity": 0.4566929133858268,
                    "duration": 0.07263224999999807
                },
                {
                    "name": "A3",
                    "midi": 57,
                    "time": 196.68813300000085,
                    "velocity": 0.4015748031496063,
                    "duration": 0.07263224999999807
                },
                {
                    "name": "G3",
                    "midi": 55,
                    "time": 196.78497600000085,
                    "velocity": 0.44881889763779526,
                    "duration": 0.07263224999999807
                },
                {
                    "name": "F3",
                    "midi": 53,
                    "time": 197.07550500000085,
                    "velocity": 0.3937007874015748,
                    "duration": 0.07263224999999807
                },
                {
                    "name": "E3",
                    "midi": 52,
                    "time": 197.17234800000085,
                    "velocity": 0.44881889763779526,
                    "duration": 0.07263224999999807
                },
                {
                    "name": "D#3",
                    "midi": 51,
                    "time": 197.46287700000084,
                    "velocity": 0.3937007874015748,
                    "duration": 0.07263224999999807
                },
                {
                    "name": "D3",
                    "midi": 50,
                    "time": 197.55972000000085,
                    "velocity": 0.4566929133858268,
                    "duration": 0.1936860000000138
                },
                {
                    "name": "D3",
                    "midi": 50,
                    "time": 197.94709200000088,
                    "velocity": 0.47244094488188976,
                    "duration": 0.6779009999999914
                },
                {
                    "name": "C3",
                    "midi": 48,
                    "time": 198.62499300000087,
                    "velocity": 0.33858267716535434,
                    "duration": 0.0968430000000069
                },
                {
                    "name": "A#2",
                    "midi": 46,
                    "time": 198.72183600000088,
                    "velocity": 0.41732283464566927,
                    "duration": 0.29052899999999227
                },
                {
                    "name": "A2",
                    "midi": 45,
                    "time": 199.01236500000087,
                    "velocity": 0.3858267716535433,
                    "duration": 0.0968430000000069
                },
                {
                    "name": "G2",
                    "midi": 43,
                    "time": 199.10920800000088,
                    "velocity": 0.3779527559055118,
                    "duration": 0.1936860000000138
                },
                {
                    "name": "F2",
                    "midi": 41,
                    "time": 199.3028940000009,
                    "velocity": 0.33070866141732286,
                    "duration": 0.1936860000000138
                },
                {
                    "name": "E2",
                    "midi": 40,
                    "time": 199.4965800000009,
                    "velocity": 0.3228346456692913,
                    "duration": 0.1936860000000138
                },
                {
                    "name": "D#2",
                    "midi": 39,
                    "time": 199.69026600000092,
                    "velocity": 0.25196850393700787,
                    "duration": 0.1936860000000138
                },
                {
                    "name": "D2",
                    "midi": 38,
                    "time": 199.88395200000093,
                    "velocity": 0.3700787401574803,
                    "duration": 0.7747439999999983
                },
                {
                    "name": "A2",
                    "midi": 45,
                    "time": 199.98079500000094,
                    "velocity": 0.2283464566929134,
                    "duration": 0.6779009999999914
                }
            ],
            "controlChanges": {
                "91": [
                    {
                        "number": 91,
                        "time": 0,
                        "value": 1
                    }
                ]
            },
            "id": 2,
            "name": "Piano left",
            "instrumentNumber": 0,
            "instrument": "acoustic grand piano",
            "instrumentFamily": "piano",
            "channelNumber": 0,
            "isPercussion": false
        },
        {
            "startTime": 0,
            "duration": 0,
            "length": 0,
            "notes": [],
            "controlChanges": {
                "64": [
                    {
                        "number": 64,
                        "time": 5.1326789999999995,
                        "value": 1
                    },
                    {
                        "number": 64,
                        "time": 5.81058,
                        "value": 0
                    },
                    {
                        "number": 64,
                        "time": 7.5085606,
                        "value": 1
                    },
                    {
                        "number": 64,
                        "time": 8.226005825,
                        "value": 0
                    },
                    {
                        "number": 64,
                        "time": 9.81826615,
                        "value": 1
                    },
                    {
                        "number": 64,
                        "time": 10.459043999999999,
                        "value": 0
                    },
                    {
                        "number": 64,
                        "time": 12.49758915,
                        "value": 1
                    },
                    {
                        "number": 64,
                        "time": 12.788925175,
                        "value": 0
                    },
                    {
                        "number": 64,
                        "time": 20.240187,
                        "value": 1
                    },
                    {
                        "number": 64,
                        "time": 20.918087999999997,
                        "value": 0
                    },
                    {
                        "number": 64,
                        "time": 22.6160686,
                        "value": 1
                    },
                    {
                        "number": 64,
                        "time": 23.333513824999997,
                        "value": 0
                    },
                    {
                        "number": 64,
                        "time": 24.92577415,
                        "value": 1
                    },
                    {
                        "number": 64,
                        "time": 25.566551999999998,
                        "value": 0
                    },
                    {
                        "number": 64,
                        "time": 27.60509715,
                        "value": 1
                    },
                    {
                        "number": 64,
                        "time": 27.896433175,
                        "value": 0
                    },
                    {
                        "number": 64,
                        "time": 30.616107425,
                        "value": 1
                    },
                    {
                        "number": 64,
                        "time": 31.384395225,
                        "value": 0
                    },
                    {
                        "number": 64,
                        "time": 31.432816725,
                        "value": 1
                    },
                    {
                        "number": 64,
                        "time": 31.7741883,
                        "value": 0
                    },
                    {
                        "number": 64,
                        "time": 31.852469725,
                        "value": 1
                    },
                    {
                        "number": 64,
                        "time": 32.565072799999996,
                        "value": 0
                    },
                    {
                        "number": 64,
                        "time": 32.61672239999999,
                        "value": 1
                    },
                    {
                        "number": 64,
                        "time": 32.94114644999999,
                        "value": 0
                    },
                    {
                        "number": 64,
                        "time": 32.989567949999994,
                        "value": 1
                    },
                    {
                        "number": 64,
                        "time": 33.76431194999999,
                        "value": 0
                    },
                    {
                        "number": 64,
                        "time": 33.84420742499999,
                        "value": 1
                    },
                    {
                        "number": 64,
                        "time": 34.098420299999994,
                        "value": 0
                    },
                    {
                        "number": 64,
                        "time": 34.16863147499999,
                        "value": 1
                    },
                    {
                        "number": 64,
                        "time": 34.48256419999999,
                        "value": 0
                    },
                    {
                        "number": 64,
                        "time": 34.55600347499999,
                        "value": 1
                    },
                    {
                        "number": 64,
                        "time": 34.86347999999999,
                        "value": 0
                    },
                    {
                        "number": 64,
                        "time": 35.264571424999986,
                        "value": 1
                    },
                    {
                        "number": 64,
                        "time": 36.03285922499999,
                        "value": 0
                    },
                    {
                        "number": 64,
                        "time": 36.08128072499999,
                        "value": 1
                    },
                    {
                        "number": 64,
                        "time": 36.42265229999999,
                        "value": 0
                    },
                    {
                        "number": 64,
                        "time": 36.50093372499999,
                        "value": 1
                    },
                    {
                        "number": 64,
                        "time": 37.213536799999986,
                        "value": 0
                    },
                    {
                        "number": 64,
                        "time": 37.26518639999998,
                        "value": 1
                    },
                    {
                        "number": 64,
                        "time": 37.58961044999998,
                        "value": 0
                    },
                    {
                        "number": 64,
                        "time": 37.638031949999984,
                        "value": 1
                    },
                    {
                        "number": 64,
                        "time": 38.41277594999998,
                        "value": 0
                    },
                    {
                        "number": 64,
                        "time": 38.49267142499998,
                        "value": 1
                    },
                    {
                        "number": 64,
                        "time": 38.746884299999984,
                        "value": 0
                    },
                    {
                        "number": 64,
                        "time": 38.81709547499998,
                        "value": 1
                    },
                    {
                        "number": 64,
                        "time": 39.13102819999998,
                        "value": 0
                    },
                    {
                        "number": 64,
                        "time": 39.20446747499998,
                        "value": 1
                    },
                    {
                        "number": 64,
                        "time": 39.51194399999998,
                        "value": 0
                    },
                    {
                        "number": 64,
                        "time": 39.913035424999975,
                        "value": 1
                    },
                    {
                        "number": 64,
                        "time": 40.68132322499998,
                        "value": 0
                    },
                    {
                        "number": 64,
                        "time": 40.72974472499998,
                        "value": 1
                    },
                    {
                        "number": 64,
                        "time": 41.07111629999998,
                        "value": 0
                    },
                    {
                        "number": 64,
                        "time": 41.14939772499998,
                        "value": 1
                    },
                    {
                        "number": 64,
                        "time": 41.862000799999976,
                        "value": 0
                    },
                    {
                        "number": 64,
                        "time": 41.91365039999997,
                        "value": 1
                    },
                    {
                        "number": 64,
                        "time": 42.23807444999997,
                        "value": 0
                    },
                    {
                        "number": 64,
                        "time": 42.286495949999974,
                        "value": 1
                    },
                    {
                        "number": 64,
                        "time": 43.06123994999997,
                        "value": 0
                    },
                    {
                        "number": 64,
                        "time": 43.14113542499997,
                        "value": 1
                    },
                    {
                        "number": 64,
                        "time": 43.395348299999974,
                        "value": 0
                    },
                    {
                        "number": 64,
                        "time": 43.46555947499997,
                        "value": 1
                    },
                    {
                        "number": 64,
                        "time": 43.77949219999997,
                        "value": 0
                    },
                    {
                        "number": 64,
                        "time": 43.85293147499997,
                        "value": 1
                    },
                    {
                        "number": 64,
                        "time": 44.16040799999997,
                        "value": 0
                    },
                    {
                        "number": 64,
                        "time": 44.561499424999965,
                        "value": 1
                    },
                    {
                        "number": 64,
                        "time": 45.32978722499997,
                        "value": 0
                    },
                    {
                        "number": 64,
                        "time": 45.37820872499997,
                        "value": 1
                    },
                    {
                        "number": 64,
                        "time": 45.71958029999997,
                        "value": 0
                    },
                    {
                        "number": 64,
                        "time": 45.79786172499997,
                        "value": 1
                    },
                    {
                        "number": 64,
                        "time": 46.510464799999966,
                        "value": 0
                    },
                    {
                        "number": 64,
                        "time": 46.56211439999996,
                        "value": 1
                    },
                    {
                        "number": 64,
                        "time": 46.88653844999996,
                        "value": 0
                    },
                    {
                        "number": 64,
                        "time": 46.934959949999964,
                        "value": 1
                    },
                    {
                        "number": 64,
                        "time": 47.70970394999996,
                        "value": 0
                    },
                    {
                        "number": 64,
                        "time": 47.78959942499996,
                        "value": 1
                    },
                    {
                        "number": 64,
                        "time": 48.04381229999996,
                        "value": 0
                    },
                    {
                        "number": 64,
                        "time": 48.11402347499996,
                        "value": 1
                    },
                    {
                        "number": 64,
                        "time": 48.42795619999996,
                        "value": 0
                    },
                    {
                        "number": 64,
                        "time": 48.50139547499996,
                        "value": 1
                    },
                    {
                        "number": 64,
                        "time": 48.80887199999996,
                        "value": 0
                    },
                    {
                        "number": 64,
                        "time": 49.19624399999996,
                        "value": 1
                    },
                    {
                        "number": 64,
                        "time": 49.97986527499996,
                        "value": 0
                    },
                    {
                        "number": 64,
                        "time": 50.067830999999956,
                        "value": 1
                    },
                    {
                        "number": 64,
                        "time": 50.36643024999996,
                        "value": 0
                    },
                    {
                        "number": 64,
                        "time": 50.455202999999955,
                        "value": 1
                    },
                    {
                        "number": 64,
                        "time": 51.137946149999955,
                        "value": 0
                    },
                    {
                        "number": 64,
                        "time": 51.20735029999995,
                        "value": 1
                    },
                    {
                        "number": 64,
                        "time": 51.53016029999995,
                        "value": 0
                    },
                    {
                        "number": 64,
                        "time": 51.58503799999995,
                        "value": 1
                    },
                    {
                        "number": 64,
                        "time": 52.30409727499995,
                        "value": 0
                    },
                    {
                        "number": 64,
                        "time": 52.396905149999945,
                        "value": 1
                    },
                    {
                        "number": 64,
                        "time": 52.672907699999946,
                        "value": 0
                    },
                    {
                        "number": 64,
                        "time": 52.747153999999945,
                        "value": 1
                    },
                    {
                        "number": 64,
                        "time": 53.45733599999995,
                        "value": 0
                    },
                    {
                        "number": 64,
                        "time": 53.54045957499995,
                        "value": 1
                    },
                    {
                        "number": 64,
                        "time": 53.85277824999995,
                        "value": 0
                    },
                    {
                        "number": 64,
                        "time": 53.93751587499995,
                        "value": 1
                    },
                    {
                        "number": 64,
                        "time": 54.625908199999955,
                        "value": 0
                    },
                    {
                        "number": 64,
                        "time": 54.69369829999996,
                        "value": 1
                    },
                    {
                        "number": 64,
                        "time": 55.01489424999996,
                        "value": 0
                    },
                    {
                        "number": 64,
                        "time": 55.09478972499996,
                        "value": 1
                    },
                    {
                        "number": 64,
                        "time": 55.78802419999996,
                        "value": 0
                    },
                    {
                        "number": 64,
                        "time": 55.85984942499996,
                        "value": 1
                    },
                    {
                        "number": 64,
                        "time": 56.17539619999996,
                        "value": 0
                    },
                    {
                        "number": 64,
                        "time": 56.24722142499996,
                        "value": 1
                    },
                    {
                        "number": 64,
                        "time": 56.943683999999955,
                        "value": 0
                    },
                    {
                        "number": 64,
                        "time": 57.004210874999956,
                        "value": 1
                    },
                    {
                        "number": 64,
                        "time": 57.336705174999956,
                        "value": 0
                    },
                    {
                        "number": 64,
                        "time": 63.238478999999955,
                        "value": 1
                    },
                    {
                        "number": 64,
                        "time": 63.916379999999954,
                        "value": 0
                    },
                    {
                        "number": 64,
                        "time": 65.61436059999996,
                        "value": 1
                    },
                    {
                        "number": 64,
                        "time": 66.33180582499996,
                        "value": 0
                    },
                    {
                        "number": 64,
                        "time": 67.92406614999996,
                        "value": 1
                    },
                    {
                        "number": 64,
                        "time": 68.56484399999997,
                        "value": 0
                    },
                    {
                        "number": 64,
                        "time": 70.60338914999997,
                        "value": 1
                    },
                    {
                        "number": 64,
                        "time": 70.89472517499998,
                        "value": 0
                    },
                    {
                        "number": 64,
                        "time": 71.34585214999997,
                        "value": 1
                    },
                    {
                        "number": 64,
                        "time": 72.06571844999998,
                        "value": 0
                    },
                    {
                        "number": 64,
                        "time": 72.86305914999998,
                        "value": 1
                    },
                    {
                        "number": 64,
                        "time": 73.22218527499999,
                        "value": 0
                    },
                    {
                        "number": 64,
                        "time": 73.65232959999999,
                        "value": 1
                    },
                    {
                        "number": 64,
                        "time": 73.99773629999999,
                        "value": 0
                    },
                    {
                        "number": 64,
                        "time": 74.07117557499998,
                        "value": 1
                    },
                    {
                        "number": 64,
                        "time": 74.38107317499998,
                        "value": 0
                    },
                    {
                        "number": 64,
                        "time": 74.44402112499998,
                        "value": 1
                    },
                    {
                        "number": 64,
                        "time": 74.76925219999998,
                        "value": 0
                    },
                    {
                        "number": 64,
                        "time": 74.84269147499998,
                        "value": 1
                    },
                    {
                        "number": 64,
                        "time": 75.15985229999998,
                        "value": 0
                    },
                    {
                        "number": 64,
                        "time": 75.35515234999998,
                        "value": 1
                    },
                    {
                        "number": 64,
                        "time": 75.53753999999998,
                        "value": 0
                    },
                    {
                        "number": 64,
                        "time": 75.98221077499998,
                        "value": 1
                    },
                    {
                        "number": 64,
                        "time": 76.32035424999998,
                        "value": 0
                    },
                    {
                        "number": 64,
                        "time": 76.36635467499998,
                        "value": 1
                    },
                    {
                        "number": 64,
                        "time": 76.70449814999998,
                        "value": 0
                    },
                    {
                        "number": 64,
                        "time": 76.83685024999998,
                        "value": 1
                    },
                    {
                        "number": 64,
                        "time": 77.09671229999998,
                        "value": 0
                    },
                    {
                        "number": 64,
                        "time": 77.22422224999998,
                        "value": 1
                    },
                    {
                        "number": 64,
                        "time": 77.48166322499998,
                        "value": 0
                    },
                    {
                        "number": 64,
                        "time": 77.60029589999998,
                        "value": 1
                    },
                    {
                        "number": 64,
                        "time": 77.86419307499997,
                        "value": 0
                    },
                    {
                        "number": 64,
                        "time": 78.31370599999997,
                        "value": 1
                    },
                    {
                        "number": 64,
                        "time": 78.48318124999997,
                        "value": 0
                    },
                    {
                        "number": 64,
                        "time": 78.80921934999998,
                        "value": 1
                    },
                    {
                        "number": 64,
                        "time": 79.06988842499997,
                        "value": 0
                    },
                    {
                        "number": 64,
                        "time": 79.20627564999998,
                        "value": 1
                    },
                    {
                        "number": 64,
                        "time": 79.42013727499999,
                        "value": 0
                    },
                    {
                        "number": 64,
                        "time": 79.58234929999999,
                        "value": 1
                    },
                    {
                        "number": 64,
                        "time": 79.80912332499999,
                        "value": 0
                    },
                    {
                        "number": 64,
                        "time": 79.867229125,
                        "value": 1
                    },
                    {
                        "number": 64,
                        "time": 80.190039125,
                        "value": 0
                    },
                    {
                        "number": 64,
                        "time": 80.466041675,
                        "value": 1
                    },
                    {
                        "number": 64,
                        "time": 80.7218686,
                        "value": 0
                    },
                    {
                        "number": 64,
                        "time": 81.089872,
                        "value": 1
                    },
                    {
                        "number": 64,
                        "time": 81.34812,
                        "value": 0
                    },
                    {
                        "number": 64,
                        "time": 81.4740159,
                        "value": 1
                    },
                    {
                        "number": 64,
                        "time": 81.7419482,
                        "value": 0
                    },
                    {
                        "number": 64,
                        "time": 81.88398459999999,
                        "value": 1
                    },
                    {
                        "number": 64,
                        "time": 82.131741275,
                        "value": 0
                    },
                    {
                        "number": 64,
                        "time": 82.26005825,
                        "value": 1
                    },
                    {
                        "number": 64,
                        "time": 82.510236,
                        "value": 0
                    },
                    {
                        "number": 64,
                        "time": 83.02350390000001,
                        "value": 1
                    },
                    {
                        "number": 64,
                        "time": 83.18248782500001,
                        "value": 0
                    },
                    {
                        "number": 64,
                        "time": 83.48835030000001,
                        "value": 1
                    },
                    {
                        "number": 64,
                        "time": 83.718352425,
                        "value": 0
                    },
                    {
                        "number": 64,
                        "time": 83.7982479,
                        "value": 1
                    },
                    {
                        "number": 64,
                        "time": 84.0661802,
                        "value": 0
                    },
                    {
                        "number": 64,
                        "time": 84.1856199,
                        "value": 1
                    },
                    {
                        "number": 64,
                        "time": 84.4567803,
                        "value": 0
                    },
                    {
                        "number": 64,
                        "time": 84.61818530000001,
                        "value": 1
                    },
                    {
                        "number": 64,
                        "time": 84.834468,
                        "value": 0
                    },
                    {
                        "number": 64,
                        "time": 85.369525575,
                        "value": 1
                    },
                    {
                        "number": 64,
                        "time": 85.495421475,
                        "value": 0
                    },
                    {
                        "number": 64,
                        "time": 85.794020725,
                        "value": 1
                    },
                    {
                        "number": 64,
                        "time": 86.0062683,
                        "value": 0
                    },
                    {
                        "number": 64,
                        "time": 86.144269575,
                        "value": 1
                    },
                    {
                        "number": 64,
                        "time": 86.389605175,
                        "value": 0
                    },
                    {
                        "number": 64,
                        "time": 86.51308,
                        "value": 1
                    },
                    {
                        "number": 64,
                        "time": 87.1587,
                        "value": 0
                    },
                    {
                        "number": 64,
                        "time": 87.56947572499999,
                        "value": 1
                    },
                    {
                        "number": 64,
                        "time": 87.94312829999998,
                        "value": 0
                    },
                    {
                        "number": 64,
                        "time": 87.96895309999998,
                        "value": 1
                    },
                    {
                        "number": 64,
                        "time": 88.32081599999998,
                        "value": 0
                    },
                    {
                        "number": 64,
                        "time": 88.37488667499998,
                        "value": 1
                    },
                    {
                        "number": 64,
                        "time": 88.71625824999998,
                        "value": 0
                    },
                    {
                        "number": 64,
                        "time": 88.76548677499999,
                        "value": 1
                    },
                    {
                        "number": 64,
                        "time": 89.49342332499998,
                        "value": 0
                    },
                    {
                        "number": 64,
                        "time": 89.53377457499998,
                        "value": 1
                    },
                    {
                        "number": 64,
                        "time": 89.87837424999998,
                        "value": 0
                    },
                    {
                        "number": 64,
                        "time": 89.91146227499998,
                        "value": 1
                    },
                    {
                        "number": 64,
                        "time": 90.26736029999998,
                        "value": 0
                    },
                    {
                        "number": 64,
                        "time": 90.34160659999998,
                        "value": 1
                    },
                    {
                        "number": 64,
                        "time": 90.66522362499998,
                        "value": 0
                    },
                    {
                        "number": 64,
                        "time": 90.70234677499998,
                        "value": 1
                    },
                    {
                        "number": 64,
                        "time": 91.03887619999998,
                        "value": 0
                    },
                    {
                        "number": 64,
                        "time": 91.09536794999998,
                        "value": 1
                    },
                    {
                        "number": 64,
                        "time": 91.80716399999999,
                        "value": 0
                    },
                    {
                        "number": 64,
                        "time": 91.99197272499998,
                        "value": 1
                    },
                    {
                        "number": 64,
                        "time": 92.20502732499999,
                        "value": 0
                    },
                    {
                        "number": 64,
                        "time": 92.379344725,
                        "value": 1
                    },
                    {
                        "number": 64,
                        "time": 92.590785275,
                        "value": 0
                    },
                    {
                        "number": 64,
                        "time": 92.766716725,
                        "value": 1
                    },
                    {
                        "number": 64,
                        "time": 92.979771325,
                        "value": 0
                    },
                    {
                        "number": 64,
                        "time": 93.081456475,
                        "value": 1
                    },
                    {
                        "number": 64,
                        "time": 93.17103625,
                        "value": 0
                    },
                    {
                        "number": 64,
                        "time": 93.336476375,
                        "value": 1
                    },
                    {
                        "number": 64,
                        "time": 94.13139600000001,
                        "value": 0
                    },
                    {
                        "number": 64,
                        "time": 94.2798886,
                        "value": 1
                    },
                    {
                        "number": 64,
                        "time": 95.293512,
                        "value": 0
                    },
                    {
                        "number": 64,
                        "time": 95.34435457500001,
                        "value": 1
                    },
                    {
                        "number": 64,
                        "time": 95.45975915000001,
                        "value": 0
                    },
                    {
                        "number": 64,
                        "time": 95.73253360000001,
                        "value": 1
                    },
                    {
                        "number": 64,
                        "time": 96.07794030000001,
                        "value": 0
                    },
                    {
                        "number": 64,
                        "time": 96.151379575,
                        "value": 1
                    },
                    {
                        "number": 64,
                        "time": 96.461277175,
                        "value": 0
                    },
                    {
                        "number": 64,
                        "time": 96.524225125,
                        "value": 1
                    },
                    {
                        "number": 64,
                        "time": 96.851877275,
                        "value": 0
                    },
                    {
                        "number": 64,
                        "time": 96.93419382500001,
                        "value": 1
                    },
                    {
                        "number": 64,
                        "time": 97.2400563,
                        "value": 0
                    },
                    {
                        "number": 64,
                        "time": 97.43535635,
                        "value": 1
                    },
                    {
                        "number": 64,
                        "time": 97.617744,
                        "value": 0
                    },
                    {
                        "number": 64,
                        "time": 98.06241477500001,
                        "value": 1
                    },
                    {
                        "number": 64,
                        "time": 98.198802,
                        "value": 0
                    },
                    {
                        "number": 64,
                        "time": 98.446558675,
                        "value": 1
                    },
                    {
                        "number": 64,
                        "time": 98.78470215,
                        "value": 0
                    },
                    {
                        "number": 64,
                        "time": 98.91705425,
                        "value": 1
                    },
                    {
                        "number": 64,
                        "time": 99.1769163,
                        "value": 0
                    },
                    {
                        "number": 64,
                        "time": 99.30442625,
                        "value": 1
                    },
                    {
                        "number": 64,
                        "time": 99.561867225,
                        "value": 0
                    },
                    {
                        "number": 64,
                        "time": 99.6804999,
                        "value": 1
                    },
                    {
                        "number": 64,
                        "time": 99.944397075,
                        "value": 0
                    },
                    {
                        "number": 64,
                        "time": 100.39390999999999,
                        "value": 1
                    },
                    {
                        "number": 64,
                        "time": 100.6424737,
                        "value": 0
                    },
                    {
                        "number": 64,
                        "time": 100.88942335,
                        "value": 1
                    },
                    {
                        "number": 64,
                        "time": 101.150092425,
                        "value": 0
                    },
                    {
                        "number": 64,
                        "time": 101.28647964999999,
                        "value": 1
                    },
                    {
                        "number": 64,
                        "time": 101.500341275,
                        "value": 0
                    },
                    {
                        "number": 64,
                        "time": 101.6625533,
                        "value": 1
                    },
                    {
                        "number": 64,
                        "time": 101.889327325,
                        "value": 0
                    },
                    {
                        "number": 64,
                        "time": 101.947433125,
                        "value": 1
                    },
                    {
                        "number": 64,
                        "time": 102.27024312500001,
                        "value": 0
                    },
                    {
                        "number": 64,
                        "time": 102.54624567500001,
                        "value": 1
                    },
                    {
                        "number": 64,
                        "time": 102.83596765000001,
                        "value": 0
                    },
                    {
                        "number": 64,
                        "time": 103.17007600000001,
                        "value": 1
                    },
                    {
                        "number": 64,
                        "time": 103.428324,
                        "value": 0
                    },
                    {
                        "number": 64,
                        "time": 103.5542199,
                        "value": 1
                    },
                    {
                        "number": 64,
                        "time": 103.8221522,
                        "value": 0
                    },
                    {
                        "number": 64,
                        "time": 103.9641886,
                        "value": 1
                    },
                    {
                        "number": 64,
                        "time": 104.211945275,
                        "value": 0
                    },
                    {
                        "number": 64,
                        "time": 104.34026225000001,
                        "value": 1
                    },
                    {
                        "number": 64,
                        "time": 104.59044000000002,
                        "value": 0
                    },
                    {
                        "number": 64,
                        "time": 105.09160252500001,
                        "value": 1
                    },
                    {
                        "number": 64,
                        "time": 105.22314760000002,
                        "value": 0
                    },
                    {
                        "number": 64,
                        "time": 105.56855430000002,
                        "value": 1
                    },
                    {
                        "number": 64,
                        "time": 105.79855642500002,
                        "value": 0
                    },
                    {
                        "number": 64,
                        "time": 105.87845190000002,
                        "value": 1
                    },
                    {
                        "number": 64,
                        "time": 106.14638420000001,
                        "value": 0
                    },
                    {
                        "number": 64,
                        "time": 106.26582390000002,
                        "value": 1
                    },
                    {
                        "number": 64,
                        "time": 106.53698430000001,
                        "value": 0
                    },
                    {
                        "number": 64,
                        "time": 106.69838930000002,
                        "value": 1
                    },
                    {
                        "number": 64,
                        "time": 106.91467200000001,
                        "value": 0
                    },
                    {
                        "number": 64,
                        "time": 107.39323782500001,
                        "value": 1
                    },
                    {
                        "number": 64,
                        "time": 107.54737960000001,
                        "value": 0
                    },
                    {
                        "number": 64,
                        "time": 107.87422472500002,
                        "value": 1
                    },
                    {
                        "number": 64,
                        "time": 108.07678800000002,
                        "value": 0
                    },
                    {
                        "number": 64,
                        "time": 108.12763057500003,
                        "value": 1
                    },
                    {
                        "number": 64,
                        "time": 108.24303515000003,
                        "value": 0
                    },
                    {
                        "number": 64,
                        "time": 108.51580960000003,
                        "value": 1
                    },
                    {
                        "number": 64,
                        "time": 108.86121630000002,
                        "value": 0
                    },
                    {
                        "number": 64,
                        "time": 108.93465557500002,
                        "value": 1
                    },
                    {
                        "number": 64,
                        "time": 109.24455317500002,
                        "value": 0
                    },
                    {
                        "number": 64,
                        "time": 109.30750112500002,
                        "value": 1
                    },
                    {
                        "number": 64,
                        "time": 109.64483757500001,
                        "value": 0
                    },
                    {
                        "number": 64,
                        "time": 109.69568015000002,
                        "value": 1
                    },
                    {
                        "number": 64,
                        "time": 110.02333230000002,
                        "value": 0
                    },
                    {
                        "number": 64,
                        "time": 110.21863235000002,
                        "value": 1
                    },
                    {
                        "number": 64,
                        "time": 110.40102000000002,
                        "value": 0
                    },
                    {
                        "number": 64,
                        "time": 110.84004160000002,
                        "value": 1
                    },
                    {
                        "number": 64,
                        "time": 111.18544830000002,
                        "value": 0
                    },
                    {
                        "number": 64,
                        "time": 111.25888757500002,
                        "value": 1
                    },
                    {
                        "number": 64,
                        "time": 111.56878517500002,
                        "value": 0
                    },
                    {
                        "number": 64,
                        "time": 111.63173312500001,
                        "value": 1
                    },
                    {
                        "number": 64,
                        "time": 111.969069575,
                        "value": 0
                    },
                    {
                        "number": 64,
                        "time": 112.01991215000001,
                        "value": 1
                    },
                    {
                        "number": 64,
                        "time": 112.34756430000002,
                        "value": 0
                    },
                    {
                        "number": 64,
                        "time": 112.54286435000002,
                        "value": 1
                    },
                    {
                        "number": 64,
                        "time": 112.72525200000001,
                        "value": 0
                    },
                    {
                        "number": 64,
                        "time": 113.16427360000002,
                        "value": 1
                    },
                    {
                        "number": 64,
                        "time": 113.50968030000001,
                        "value": 0
                    },
                    {
                        "number": 64,
                        "time": 113.58311957500001,
                        "value": 1
                    },
                    {
                        "number": 64,
                        "time": 113.89301717500001,
                        "value": 0
                    },
                    {
                        "number": 64,
                        "time": 113.955965125,
                        "value": 1
                    },
                    {
                        "number": 64,
                        "time": 116.2858463,
                        "value": 0
                    },
                    {
                        "number": 64,
                        "time": 116.41497030000001,
                        "value": 1
                    },
                    {
                        "number": 64,
                        "time": 116.996835325,
                        "value": 0
                    },
                    {
                        "number": 64,
                        "time": 117.18003,
                        "value": 1
                    },
                    {
                        "number": 64,
                        "time": 117.771579325,
                        "value": 0
                    },
                    {
                        "number": 64,
                        "time": 117.908773575,
                        "value": 1
                    },
                    {
                        "number": 64,
                        "time": 118.535832,
                        "value": 0
                    },
                    {
                        "number": 64,
                        "time": 118.720640725,
                        "value": 1
                    },
                    {
                        "number": 64,
                        "time": 119.317839225,
                        "value": 0
                    },
                    {
                        "number": 64,
                        "time": 119.4493843,
                        "value": 1
                    },
                    {
                        "number": 64,
                        "time": 120.0950043,
                        "value": 0
                    },
                    {
                        "number": 64,
                        "time": 120.178127875,
                        "value": 1
                    },
                    {
                        "number": 64,
                        "time": 120.8697483,
                        "value": 0
                    },
                    {
                        "number": 64,
                        "time": 120.989188,
                        "value": 1
                    },
                    {
                        "number": 64,
                        "time": 121.643685275,
                        "value": 0
                    },
                    {
                        "number": 64,
                        "time": 121.78249357499999,
                        "value": 1
                    },
                    {
                        "number": 64,
                        "time": 122.420043325,
                        "value": 0
                    },
                    {
                        "number": 64,
                        "time": 122.56692187499999,
                        "value": 1
                    },
                    {
                        "number": 64,
                        "time": 123.19075219999999,
                        "value": 0
                    },
                    {
                        "number": 64,
                        "time": 123.34408694999999,
                        "value": 1
                    },
                    {
                        "number": 64,
                        "time": 123.96468917499999,
                        "value": 0
                    },
                    {
                        "number": 64,
                        "time": 124.09623425,
                        "value": 1
                    },
                    {
                        "number": 64,
                        "time": 124.74266127499999,
                        "value": 0
                    },
                    {
                        "number": 64,
                        "time": 124.8725923,
                        "value": 1
                    },
                    {
                        "number": 64,
                        "time": 125.51337015,
                        "value": 0
                    },
                    {
                        "number": 64,
                        "time": 125.637652,
                        "value": 1
                    },
                    {
                        "number": 64,
                        "time": 126.288921175,
                        "value": 0
                    },
                    {
                        "number": 64,
                        "time": 126.440641875,
                        "value": 1
                    },
                    {
                        "number": 64,
                        "time": 127.06931435,
                        "value": 0
                    },
                    {
                        "number": 64,
                        "time": 127.1968243,
                        "value": 1
                    },
                    {
                        "number": 64,
                        "time": 127.83760215000001,
                        "value": 0
                    },
                    {
                        "number": 64,
                        "time": 127.96188400000001,
                        "value": 1
                    },
                    {
                        "number": 64,
                        "time": 128.614767225,
                        "value": 0
                    },
                    {
                        "number": 64,
                        "time": 128.764873875,
                        "value": 1
                    },
                    {
                        "number": 64,
                        "time": 129.3919323,
                        "value": 0
                    },
                    {
                        "number": 64,
                        "time": 129.529933575,
                        "value": 1
                    },
                    {
                        "number": 64,
                        "time": 130.162641175,
                        "value": 0
                    },
                    {
                        "number": 64,
                        "time": 130.25867715,
                        "value": 1
                    },
                    {
                        "number": 64,
                        "time": 130.947069475,
                        "value": 0
                    },
                    {
                        "number": 64,
                        "time": 131.05198272500002,
                        "value": 1
                    },
                    {
                        "number": 64,
                        "time": 131.71777835,
                        "value": 0
                    },
                    {
                        "number": 64,
                        "time": 131.82672672500001,
                        "value": 1
                    },
                    {
                        "number": 64,
                        "time": 132.48768020000003,
                        "value": 0
                    },
                    {
                        "number": 64,
                        "time": 132.64101495000003,
                        "value": 1
                    },
                    {
                        "number": 64,
                        "time": 133.26484527500003,
                        "value": 0
                    },
                    {
                        "number": 64,
                        "time": 133.47225070000002,
                        "value": 1
                    },
                    {
                        "number": 64,
                        "time": 134.04362440000003,
                        "value": 0
                    },
                    {
                        "number": 64,
                        "time": 134.15095872500004,
                        "value": 1
                    },
                    {
                        "number": 64,
                        "time": 134.81352625000005,
                        "value": 0
                    },
                    {
                        "number": 64,
                        "time": 134.96524695000005,
                        "value": 1
                    },
                    {
                        "number": 64,
                        "time": 135.58907727500005,
                        "value": 0
                    },
                    {
                        "number": 64,
                        "time": 135.75128930000005,
                        "value": 1
                    },
                    {
                        "number": 64,
                        "time": 136.36785640000005,
                        "value": 0
                    },
                    {
                        "number": 64,
                        "time": 136.48406800000006,
                        "value": 1
                    },
                    {
                        "number": 64,
                        "time": 137.13533717500007,
                        "value": 0
                    },
                    {
                        "number": 64,
                        "time": 137.2499347250001,
                        "value": 1
                    },
                    {
                        "number": 64,
                        "time": 137.91976547500008,
                        "value": 0
                    },
                    {
                        "number": 64,
                        "time": 138.05211757500007,
                        "value": 1
                    },
                    {
                        "number": 64,
                        "time": 138.68886030000007,
                        "value": 0
                    },
                    {
                        "number": 64,
                        "time": 138.86398472500008,
                        "value": 1
                    },
                    {
                        "number": 64,
                        "time": 139.46441132500007,
                        "value": 0
                    },
                    {
                        "number": 64,
                        "time": 139.61128987500007,
                        "value": 1
                    },
                    {
                        "number": 64,
                        "time": 140.23834830000007,
                        "value": 0
                    },
                    {
                        "number": 64,
                        "time": 140.37634957500006,
                        "value": 1
                    },
                    {
                        "number": 64,
                        "time": 141.01309230000007,
                        "value": 0
                    },
                    {
                        "number": 64,
                        "time": 141.12365472500008,
                        "value": 1
                    },
                    {
                        "number": 64,
                        "time": 141.78783630000007,
                        "value": 0
                    },
                    {
                        "number": 64,
                        "time": 141.89839872500008,
                        "value": 1
                    },
                    {
                        "number": 64,
                        "time": 142.9402680000001,
                        "value": 0
                    },
                    {
                        "number": 64,
                        "time": 143.30020115000008,
                        "value": 1
                    },
                    {
                        "number": 64,
                        "time": 144.1023840000001,
                        "value": 0
                    },
                    {
                        "number": 64,
                        "time": 144.54140560000008,
                        "value": 1
                    },
                    {
                        "number": 64,
                        "time": 144.8868123000001,
                        "value": 0
                    },
                    {
                        "number": 64,
                        "time": 144.9602515750001,
                        "value": 1
                    },
                    {
                        "number": 64,
                        "time": 145.27014917500009,
                        "value": 0
                    },
                    {
                        "number": 64,
                        "time": 145.33309712500008,
                        "value": 1
                    },
                    {
                        "number": 64,
                        "time": 145.65752117500008,
                        "value": 0
                    },
                    {
                        "number": 64,
                        "time": 145.72046912500008,
                        "value": 1
                    },
                    {
                        "number": 64,
                        "time": 146.04892830000009,
                        "value": 0
                    },
                    {
                        "number": 64,
                        "time": 146.24422835000007,
                        "value": 1
                    },
                    {
                        "number": 64,
                        "time": 146.42661600000008,
                        "value": 0
                    },
                    {
                        "number": 64,
                        "time": 146.87128677500007,
                        "value": 1
                    },
                    {
                        "number": 64,
                        "time": 147.20943025000008,
                        "value": 0
                    },
                    {
                        "number": 64,
                        "time": 147.25543067500007,
                        "value": 1
                    },
                    {
                        "number": 64,
                        "time": 147.59357415000008,
                        "value": 0
                    },
                    {
                        "number": 64,
                        "time": 147.72592625000007,
                        "value": 1
                    },
                    {
                        "number": 64,
                        "time": 147.98578830000008,
                        "value": 0
                    },
                    {
                        "number": 64,
                        "time": 148.11329825000007,
                        "value": 1
                    },
                    {
                        "number": 64,
                        "time": 148.37073922500008,
                        "value": 0
                    },
                    {
                        "number": 64,
                        "time": 148.48937190000007,
                        "value": 1
                    },
                    {
                        "number": 64,
                        "time": 148.75326907500008,
                        "value": 0
                    },
                    {
                        "number": 64,
                        "time": 149.20278200000007,
                        "value": 1
                    },
                    {
                        "number": 64,
                        "time": 149.36660807500007,
                        "value": 0
                    },
                    {
                        "number": 64,
                        "time": 149.69829535000008,
                        "value": 1
                    },
                    {
                        "number": 64,
                        "time": 149.9589644250001,
                        "value": 0
                    },
                    {
                        "number": 64,
                        "time": 150.09535165000008,
                        "value": 1
                    },
                    {
                        "number": 64,
                        "time": 150.30921327500008,
                        "value": 0
                    },
                    {
                        "number": 64,
                        "time": 150.47142530000008,
                        "value": 1
                    },
                    {
                        "number": 64,
                        "time": 150.69819932500008,
                        "value": 0
                    },
                    {
                        "number": 64,
                        "time": 150.75630512500007,
                        "value": 1
                    },
                    {
                        "number": 64,
                        "time": 151.07911512500007,
                        "value": 0
                    },
                    {
                        "number": 64,
                        "time": 151.35511767500006,
                        "value": 1
                    },
                    {
                        "number": 64,
                        "time": 151.70213842500007,
                        "value": 0
                    },
                    {
                        "number": 64,
                        "time": 151.97894800000006,
                        "value": 1
                    },
                    {
                        "number": 64,
                        "time": 152.23719600000007,
                        "value": 0
                    },
                    {
                        "number": 64,
                        "time": 152.36309190000006,
                        "value": 1
                    },
                    {
                        "number": 64,
                        "time": 152.63102420000007,
                        "value": 0
                    },
                    {
                        "number": 64,
                        "time": 152.77306060000006,
                        "value": 1
                    },
                    {
                        "number": 64,
                        "time": 153.02081727500007,
                        "value": 0
                    },
                    {
                        "number": 64,
                        "time": 153.14913425000006,
                        "value": 1
                    },
                    {
                        "number": 64,
                        "time": 153.39931200000007,
                        "value": 0
                    },
                    {
                        "number": 64,
                        "time": 153.90612370000005,
                        "value": 1
                    },
                    {
                        "number": 64,
                        "time": 154.00942290000006,
                        "value": 0
                    },
                    {
                        "number": 64,
                        "time": 154.37742630000005,
                        "value": 1
                    },
                    {
                        "number": 64,
                        "time": 154.60742842500005,
                        "value": 0
                    },
                    {
                        "number": 64,
                        "time": 154.68732390000005,
                        "value": 1
                    },
                    {
                        "number": 64,
                        "time": 154.95525620000006,
                        "value": 0
                    },
                    {
                        "number": 64,
                        "time": 155.07469590000005,
                        "value": 1
                    },
                    {
                        "number": 64,
                        "time": 155.34585630000007,
                        "value": 0
                    },
                    {
                        "number": 64,
                        "time": 155.50726130000007,
                        "value": 1
                    },
                    {
                        "number": 64,
                        "time": 155.72354400000006,
                        "value": 0
                    },
                    {
                        "number": 64,
                        "time": 156.19081147500006,
                        "value": 1
                    },
                    {
                        "number": 64,
                        "time": 156.32154952500005,
                        "value": 0
                    },
                    {
                        "number": 64,
                        "time": 156.68309672500004,
                        "value": 1
                    },
                    {
                        "number": 64,
                        "time": 156.88566000000003,
                        "value": 0
                    },
                    {
                        "number": 64,
                        "time": 157.36987500000004,
                        "value": 1
                    },
                    {
                        "number": 64,
                        "time": 158.05503922500003,
                        "value": 0
                    },
                    {
                        "number": 64,
                        "time": 158.10346072500002,
                        "value": 1
                    },
                    {
                        "number": 64,
                        "time": 158.44483230000003,
                        "value": 0
                    },
                    {
                        "number": 64,
                        "time": 158.52311372500003,
                        "value": 1
                    },
                    {
                        "number": 64,
                        "time": 159.23571680000003,
                        "value": 0
                    },
                    {
                        "number": 64,
                        "time": 159.28736640000002,
                        "value": 1
                    },
                    {
                        "number": 64,
                        "time": 159.61179045000003,
                        "value": 0
                    },
                    {
                        "number": 64,
                        "time": 159.66021195000002,
                        "value": 1
                    },
                    {
                        "number": 64,
                        "time": 160.43495595000002,
                        "value": 0
                    },
                    {
                        "number": 64,
                        "time": 160.51485142500002,
                        "value": 1
                    },
                    {
                        "number": 64,
                        "time": 160.76906430000003,
                        "value": 0
                    },
                    {
                        "number": 64,
                        "time": 160.83927547500002,
                        "value": 1
                    },
                    {
                        "number": 64,
                        "time": 161.15320820000002,
                        "value": 0
                    },
                    {
                        "number": 64,
                        "time": 161.22664747500002,
                        "value": 1
                    },
                    {
                        "number": 64,
                        "time": 161.53412400000002,
                        "value": 0
                    },
                    {
                        "number": 64,
                        "time": 161.93521542500002,
                        "value": 1
                    },
                    {
                        "number": 64,
                        "time": 162.70350322500002,
                        "value": 0
                    },
                    {
                        "number": 64,
                        "time": 162.751924725,
                        "value": 1
                    },
                    {
                        "number": 64,
                        "time": 163.09329630000002,
                        "value": 0
                    },
                    {
                        "number": 64,
                        "time": 163.17157772500002,
                        "value": 1
                    },
                    {
                        "number": 64,
                        "time": 163.88418080000002,
                        "value": 0
                    },
                    {
                        "number": 64,
                        "time": 163.93583040000001,
                        "value": 1
                    },
                    {
                        "number": 64,
                        "time": 164.26025445000002,
                        "value": 0
                    },
                    {
                        "number": 64,
                        "time": 164.30867595,
                        "value": 1
                    },
                    {
                        "number": 64,
                        "time": 165.08341995,
                        "value": 0
                    },
                    {
                        "number": 64,
                        "time": 165.163315425,
                        "value": 1
                    },
                    {
                        "number": 64,
                        "time": 165.41752830000001,
                        "value": 0
                    },
                    {
                        "number": 64,
                        "time": 165.487739475,
                        "value": 1
                    },
                    {
                        "number": 64,
                        "time": 165.8016722,
                        "value": 0
                    },
                    {
                        "number": 64,
                        "time": 165.875111475,
                        "value": 1
                    },
                    {
                        "number": 64,
                        "time": 166.182588,
                        "value": 0
                    },
                    {
                        "number": 64,
                        "time": 166.583679425,
                        "value": 1
                    },
                    {
                        "number": 64,
                        "time": 167.351967225,
                        "value": 0
                    },
                    {
                        "number": 64,
                        "time": 167.400388725,
                        "value": 1
                    },
                    {
                        "number": 64,
                        "time": 167.7417603,
                        "value": 0
                    },
                    {
                        "number": 64,
                        "time": 167.820041725,
                        "value": 1
                    },
                    {
                        "number": 64,
                        "time": 168.5326448,
                        "value": 0
                    },
                    {
                        "number": 64,
                        "time": 168.5842944,
                        "value": 1
                    },
                    {
                        "number": 64,
                        "time": 168.90871845,
                        "value": 0
                    },
                    {
                        "number": 64,
                        "time": 168.95713995,
                        "value": 1
                    },
                    {
                        "number": 64,
                        "time": 169.73188395,
                        "value": 0
                    },
                    {
                        "number": 64,
                        "time": 169.811779425,
                        "value": 1
                    },
                    {
                        "number": 64,
                        "time": 170.0659923,
                        "value": 0
                    },
                    {
                        "number": 64,
                        "time": 170.136203475,
                        "value": 1
                    },
                    {
                        "number": 64,
                        "time": 170.4501362,
                        "value": 0
                    },
                    {
                        "number": 64,
                        "time": 170.523575475,
                        "value": 1
                    },
                    {
                        "number": 64,
                        "time": 170.831052,
                        "value": 0
                    },
                    {
                        "number": 64,
                        "time": 171.232143425,
                        "value": 1
                    },
                    {
                        "number": 64,
                        "time": 172.000431225,
                        "value": 0
                    },
                    {
                        "number": 64,
                        "time": 172.048852725,
                        "value": 1
                    },
                    {
                        "number": 64,
                        "time": 172.3902243,
                        "value": 0
                    },
                    {
                        "number": 64,
                        "time": 172.468505725,
                        "value": 1
                    },
                    {
                        "number": 64,
                        "time": 173.1811088,
                        "value": 0
                    },
                    {
                        "number": 64,
                        "time": 173.2327584,
                        "value": 1
                    },
                    {
                        "number": 64,
                        "time": 173.55718245,
                        "value": 0
                    },
                    {
                        "number": 64,
                        "time": 173.60560395,
                        "value": 1
                    },
                    {
                        "number": 64,
                        "time": 174.38034795,
                        "value": 0
                    },
                    {
                        "number": 64,
                        "time": 174.460243425,
                        "value": 1
                    },
                    {
                        "number": 64,
                        "time": 174.7144563,
                        "value": 0
                    },
                    {
                        "number": 64,
                        "time": 174.784667475,
                        "value": 1
                    },
                    {
                        "number": 64,
                        "time": 175.0986002,
                        "value": 0
                    },
                    {
                        "number": 64,
                        "time": 175.172039475,
                        "value": 1
                    },
                    {
                        "number": 64,
                        "time": 175.479516,
                        "value": 0
                    },
                    {
                        "number": 64,
                        "time": 175.866888,
                        "value": 1
                    },
                    {
                        "number": 64,
                        "time": 176.650509275,
                        "value": 0
                    },
                    {
                        "number": 64,
                        "time": 176.738475,
                        "value": 1
                    },
                    {
                        "number": 64,
                        "time": 177.03707425,
                        "value": 0
                    },
                    {
                        "number": 64,
                        "time": 177.125847,
                        "value": 1
                    },
                    {
                        "number": 64,
                        "time": 177.80859015,
                        "value": 0
                    },
                    {
                        "number": 64,
                        "time": 177.87799429999998,
                        "value": 1
                    },
                    {
                        "number": 64,
                        "time": 178.2008043,
                        "value": 0
                    },
                    {
                        "number": 64,
                        "time": 178.25568199999998,
                        "value": 1
                    },
                    {
                        "number": 64,
                        "time": 178.97474127499999,
                        "value": 0
                    },
                    {
                        "number": 64,
                        "time": 179.06754915,
                        "value": 1
                    },
                    {
                        "number": 64,
                        "time": 179.34355169999998,
                        "value": 0
                    },
                    {
                        "number": 64,
                        "time": 179.41779799999998,
                        "value": 1
                    },
                    {
                        "number": 64,
                        "time": 180.12797999999998,
                        "value": 0
                    },
                    {
                        "number": 64,
                        "time": 180.21110357499998,
                        "value": 1
                    },
                    {
                        "number": 64,
                        "time": 180.52342224999998,
                        "value": 0
                    },
                    {
                        "number": 64,
                        "time": 180.60815987499998,
                        "value": 1
                    },
                    {
                        "number": 64,
                        "time": 181.29655219999998,
                        "value": 0
                    },
                    {
                        "number": 64,
                        "time": 181.36434229999998,
                        "value": 1
                    },
                    {
                        "number": 64,
                        "time": 181.68553824999998,
                        "value": 0
                    },
                    {
                        "number": 64,
                        "time": 181.76543372499998,
                        "value": 1
                    },
                    {
                        "number": 64,
                        "time": 182.45866819999998,
                        "value": 0
                    },
                    {
                        "number": 64,
                        "time": 182.53049342499997,
                        "value": 1
                    },
                    {
                        "number": 64,
                        "time": 182.84604019999998,
                        "value": 0
                    },
                    {
                        "number": 64,
                        "time": 182.91786542499997,
                        "value": 1
                    },
                    {
                        "number": 64,
                        "time": 183.61432799999997,
                        "value": 0
                    },
                    {
                        "number": 64,
                        "time": 183.67485487499997,
                        "value": 1
                    },
                    {
                        "number": 64,
                        "time": 184.00734917499997,
                        "value": 0
                    },
                    {
                        "number": 64,
                        "time": 189.90912299999997,
                        "value": 1
                    },
                    {
                        "number": 64,
                        "time": 190.58702399999996,
                        "value": 0
                    },
                    {
                        "number": 64,
                        "time": 192.28500459999995,
                        "value": 1
                    },
                    {
                        "number": 64,
                        "time": 193.00244982499996,
                        "value": 0
                    },
                    {
                        "number": 64,
                        "time": 194.59471014999997,
                        "value": 1
                    },
                    {
                        "number": 64,
                        "time": 195.23548799999998,
                        "value": 0
                    },
                    {
                        "number": 64,
                        "time": 197.27403314999998,
                        "value": 1
                    },
                    {
                        "number": 64,
                        "time": 197.56536917499997,
                        "value": 0
                    },
                    {
                        "number": 64,
                        "time": 198.01649614999997,
                        "value": 1
                    },
                    {
                        "number": 64,
                        "time": 198.71780087499997,
                        "value": 0
                    },
                    {
                        "number": 64,
                        "time": 198.80173147499997,
                        "value": 1
                    },
                    {
                        "number": 64,
                        "time": 199.12050634999997,
                        "value": 0
                    },
                    {
                        "number": 64,
                        "time": 199.16650677499996,
                        "value": 1
                    },
                    {
                        "number": 64,
                        "time": 199.50949239999997,
                        "value": 0
                    },
                    {
                        "number": 64,
                        "time": 199.59342299999997,
                        "value": 1
                    },
                    {
                        "number": 64,
                        "time": 199.89040819999997,
                        "value": 0
                    },
                    {
                        "number": 64,
                        "time": 199.98079499999997,
                        "value": 1
                    },
                    {
                        "number": 64,
                        "time": 200.74181957499997,
                        "value": 0
                    }
                ]
            },
            "id": 3,
            "name": "Pedale",
            "instrumentNumber": 0,
            "instrument": "acoustic grand piano",
            "instrumentFamily": "piano",
            "channelNumber": 0,
            "isPercussion": false
        },
        {
            "startTime": 0,
            "duration": 0,
            "length": 0,
            "notes": [],
            "controlChanges": {},
            "id": 4,
            "name": "Schumann: Kreisleriana Part 5"
        },
        {
            "startTime": 0,
            "duration": 0,
            "length": 0,
            "notes": [],
            "controlChanges": {},
            "id": 5,
            "name": "Copyright  2007 by Bernd Krueger"
        },
        {
            "startTime": 0,
            "duration": 0,
            "length": 0,
            "notes": [],
            "controlChanges": {},
            "id": 6,
            "name": "http://www.piano-midi.de/"
        },
        {
            "startTime": 0,
            "duration": 0,
            "length": 0,
            "notes": [],
            "controlChanges": {},
            "id": 7,
            "name": "Edition: 2014-03-27"
        },
        {
            "startTime": 0,
            "duration": 0,
            "length": 0,
            "notes": [],
            "controlChanges": {},
            "id": 8,
            "name": "Spur 8"
        },
        {
            "startTime": 0,
            "duration": 0,
            "length": 0,
            "notes": [],
            "controlChanges": {},
            "id": 9,
            "name": "Spur 9"
        },
        {
            "startTime": 0,
            "duration": 0,
            "length": 0,
            "notes": [],
            "controlChanges": {},
            "id": 10,
            "name": "Spur 10"
        },
        {
            "startTime": 0,
            "duration": 0,
            "length": 0,
            "notes": [],
            "controlChanges": {},
            "id": 11,
            "name": "Spur 11"
        },
        {
            "startTime": 0,
            "duration": 0,
            "length": 0,
            "notes": [],
            "controlChanges": {},
            "id": 12,
            "name": "Spur 12"
        },
        {
            "startTime": 0,
            "duration": 0,
            "length": 0,
            "notes": [],
            "controlChanges": {},
            "id": 13,
            "name": "Spur 13"
        },
        {
            "startTime": 0,
            "duration": 0,
            "length": 0,
            "notes": [],
            "controlChanges": {},
            "id": 14,
            "name": "Spur 14"
        },
        {
            "startTime": 0,
            "duration": 0,
            "length": 0,
            "notes": [],
            "controlChanges": {},
            "id": 15,
            "name": "Spur 15"
        },
        {
            "startTime": 0,
            "duration": 0,
            "length": 0,
            "notes": [],
            "controlChanges": {},
            "id": 16,
            "name": "Spur 16"
        }
    ]
}