{
    "header": {
        "PPQ": 480,
        "timeSignature": [
            2,
            4
        ],
        "bpm": 126.000126000126,
        "name": "Schumann: Knecht Ruprecht aus  Album für die Jugend Opus 68"
    },
    "startTime": 0,
    "duration": 106.66655999999942,
    "tracks": [
        {
            "startTime": 0,
            "duration": 0,
            "length": 0,
            "notes": [],
            "controlChanges": {},
            "id": 0,
            "name": "Schumann: Knecht Ruprecht aus  Album für die Jugend Opus 68"
        },
        {
            "startTime": 0,
            "duration": 106.66655999999877,
            "length": 805,
            "notes": [
                {
                    "name": "A2",
                    "midi": 45,
                    "time": 0,
                    "velocity": 0.6062992125984252,
                    "duration": 0.1190475
                },
                {
                    "name": "B2",
                    "midi": 47,
                    "time": 0.1190475,
                    "velocity": 0.5433070866141733,
                    "duration": 0.1190475
                },
                {
                    "name": "A2",
                    "midi": 45,
                    "time": 0.238095,
                    "velocity": 0.5826771653543307,
                    "duration": 0.11904750000000003
                },
                {
                    "name": "B2",
                    "midi": 47,
                    "time": 0.35714250000000003,
                    "velocity": 0.5433070866141733,
                    "duration": 0.11904749999999997
                },
                {
                    "name": "C3",
                    "midi": 48,
                    "time": 0.47619,
                    "velocity": 0.6141732283464567,
                    "duration": 0.11904749999999997
                },
                {
                    "name": "B2",
                    "midi": 47,
                    "time": 0.5952375,
                    "velocity": 0.5433070866141733,
                    "duration": 0.11904749999999997
                },
                {
                    "name": "C3",
                    "midi": 48,
                    "time": 0.714285,
                    "velocity": 0.6062992125984252,
                    "duration": 0.11904749999999997
                },
                {
                    "name": "B2",
                    "midi": 47,
                    "time": 0.8333324999999999,
                    "velocity": 0.5433070866141733,
                    "duration": 0.11904749999999997
                },
                {
                    "name": "A2",
                    "midi": 45,
                    "time": 0.9523799999999999,
                    "velocity": 0.6299212598425197,
                    "duration": 0.23809500000000006
                },
                {
                    "name": "B2",
                    "midi": 47,
                    "time": 1.190475,
                    "velocity": 0.5433070866141733,
                    "duration": 0.11904749999999997
                },
                {
                    "name": "C3",
                    "midi": 48,
                    "time": 1.42857,
                    "velocity": 0.6220472440944882,
                    "duration": 0.23809499999999995
                },
                {
                    "name": "E3",
                    "midi": 52,
                    "time": 1.6666649999999998,
                    "velocity": 0.5433070866141733,
                    "duration": 0.11904749999999997
                },
                {
                    "name": "A3",
                    "midi": 57,
                    "time": 1.9047599999999998,
                    "velocity": 0.6220472440944882,
                    "duration": 0.23809500000000017
                },
                {
                    "name": "B3",
                    "midi": 59,
                    "time": 2.142855,
                    "velocity": 0.5433070866141733,
                    "duration": 0.1190475000000002
                },
                {
                    "name": "C4",
                    "midi": 60,
                    "time": 2.3809500000000003,
                    "velocity": 0.6220472440944882,
                    "duration": 0.23809499999999995
                },
                {
                    "name": "E4",
                    "midi": 64,
                    "time": 2.6190450000000003,
                    "velocity": 0.5433070866141733,
                    "duration": 0.1190475000000002
                },
                {
                    "name": "E4",
                    "midi": 64,
                    "time": 2.8571400000000007,
                    "velocity": 0.4881889763779528,
                    "duration": 0.22619025000000015
                },
                {
                    "name": "G#4",
                    "midi": 68,
                    "time": 2.8571400000000007,
                    "velocity": 0.4881889763779528,
                    "duration": 0.22619025000000015
                },
                {
                    "name": "B4",
                    "midi": 71,
                    "time": 2.8571400000000007,
                    "velocity": 0.5826771653543307,
                    "duration": 0.22619025000000015
                },
                {
                    "name": "E4",
                    "midi": 64,
                    "time": 3.0952350000000006,
                    "velocity": 0.4645669291338583,
                    "duration": 0.22619025000000015
                },
                {
                    "name": "G#4",
                    "midi": 68,
                    "time": 3.0952350000000006,
                    "velocity": 0.4645669291338583,
                    "duration": 0.22619025000000015
                },
                {
                    "name": "B4",
                    "midi": 71,
                    "time": 3.0952350000000006,
                    "velocity": 0.5511811023622047,
                    "duration": 0.22619025000000015
                },
                {
                    "name": "E4",
                    "midi": 64,
                    "time": 3.3333300000000006,
                    "velocity": 0.5354330708661418,
                    "duration": 0.4761899999999999
                },
                {
                    "name": "A4",
                    "midi": 69,
                    "time": 3.3333300000000006,
                    "velocity": 0.5354330708661418,
                    "duration": 0.4761899999999999
                },
                {
                    "name": "C5",
                    "midi": 72,
                    "time": 3.3333300000000006,
                    "velocity": 0.6299212598425197,
                    "duration": 0.4761899999999999
                },
                {
                    "name": "A2",
                    "midi": 45,
                    "time": 3.8095200000000005,
                    "velocity": 0.6062992125984252,
                    "duration": 0.1190475000000002
                },
                {
                    "name": "B2",
                    "midi": 47,
                    "time": 3.9285675000000007,
                    "velocity": 0.5433070866141733,
                    "duration": 0.11904749999999975
                },
                {
                    "name": "A2",
                    "midi": 45,
                    "time": 4.047615,
                    "velocity": 0.5826771653543307,
                    "duration": 0.11904749999999975
                },
                {
                    "name": "B2",
                    "midi": 47,
                    "time": 4.1666625,
                    "velocity": 0.5433070866141733,
                    "duration": 0.11904749999999975
                },
                {
                    "name": "C3",
                    "midi": 48,
                    "time": 4.28571,
                    "velocity": 0.6141732283464567,
                    "duration": 0.11904749999999975
                },
                {
                    "name": "B2",
                    "midi": 47,
                    "time": 4.4047575,
                    "velocity": 0.5433070866141733,
                    "duration": 0.11904749999999975
                },
                {
                    "name": "C3",
                    "midi": 48,
                    "time": 4.523804999999999,
                    "velocity": 0.6062992125984252,
                    "duration": 0.11904749999999975
                },
                {
                    "name": "B2",
                    "midi": 47,
                    "time": 4.642852499999999,
                    "velocity": 0.5433070866141733,
                    "duration": 0.11904749999999975
                },
                {
                    "name": "A2",
                    "midi": 45,
                    "time": 4.761899999999999,
                    "velocity": 0.6299212598425197,
                    "duration": 0.2380950000000004
                },
                {
                    "name": "B2",
                    "midi": 47,
                    "time": 4.999994999999999,
                    "velocity": 0.5433070866141733,
                    "duration": 0.11904749999999975
                },
                {
                    "name": "C3",
                    "midi": 48,
                    "time": 5.238089999999999,
                    "velocity": 0.6220472440944882,
                    "duration": 0.2380949999999995
                },
                {
                    "name": "E3",
                    "midi": 52,
                    "time": 5.469240562499999,
                    "velocity": 0.5433070866141733,
                    "duration": 0.11904749999999975
                },
                {
                    "name": "A3",
                    "midi": 57,
                    "time": 5.714279999999999,
                    "velocity": 0.6220472440944882,
                    "duration": 0.2380950000000004
                },
                {
                    "name": "B3",
                    "midi": 59,
                    "time": 5.952374999999999,
                    "velocity": 0.5433070866141733,
                    "duration": 0.11904749999999975
                },
                {
                    "name": "C4",
                    "midi": 60,
                    "time": 6.190469999999999,
                    "velocity": 0.6220472440944882,
                    "duration": 0.2380950000000004
                },
                {
                    "name": "E4",
                    "midi": 64,
                    "time": 6.428564999999999,
                    "velocity": 0.5433070866141733,
                    "duration": 0.11904749999999975
                },
                {
                    "name": "E4",
                    "midi": 64,
                    "time": 6.6666599999999985,
                    "velocity": 0.4881889763779528,
                    "duration": 0.22619025000000015
                },
                {
                    "name": "G#4",
                    "midi": 68,
                    "time": 6.6666599999999985,
                    "velocity": 0.4881889763779528,
                    "duration": 0.22619025000000015
                },
                {
                    "name": "B4",
                    "midi": 71,
                    "time": 6.6666599999999985,
                    "velocity": 0.5826771653543307,
                    "duration": 0.22619025000000015
                },
                {
                    "name": "E4",
                    "midi": 64,
                    "time": 6.904754999999999,
                    "velocity": 0.4645669291338583,
                    "duration": 0.22619025000000015
                },
                {
                    "name": "G#4",
                    "midi": 68,
                    "time": 6.904754999999999,
                    "velocity": 0.4645669291338583,
                    "duration": 0.22619025000000015
                },
                {
                    "name": "B4",
                    "midi": 71,
                    "time": 6.904754999999999,
                    "velocity": 0.5511811023622047,
                    "duration": 0.22619025000000015
                },
                {
                    "name": "A4",
                    "midi": 69,
                    "time": 7.142849999999999,
                    "velocity": 0.6456692913385826,
                    "duration": 0.4761899999999999
                },
                {
                    "name": "A#3",
                    "midi": 58,
                    "time": 7.619039999999999,
                    "velocity": 0.6062992125984252,
                    "duration": 0.11904749999999975
                },
                {
                    "name": "A3",
                    "midi": 57,
                    "time": 7.738087499999999,
                    "velocity": 0.5433070866141733,
                    "duration": 0.11904749999999975
                },
                {
                    "name": "A#3",
                    "midi": 58,
                    "time": 7.857134999999999,
                    "velocity": 0.5826771653543307,
                    "duration": 0.11904749999999975
                },
                {
                    "name": "A3",
                    "midi": 57,
                    "time": 7.976182499999998,
                    "velocity": 0.5433070866141733,
                    "duration": 0.11904750000000064
                },
                {
                    "name": "G3",
                    "midi": 55,
                    "time": 8.095229999999999,
                    "velocity": 0.6141732283464567,
                    "duration": 0.11904750000000064
                },
                {
                    "name": "A3",
                    "midi": 57,
                    "time": 8.2142775,
                    "velocity": 0.5433070866141733,
                    "duration": 0.11904750000000064
                },
                {
                    "name": "G3",
                    "midi": 55,
                    "time": 8.333325,
                    "velocity": 0.6062992125984252,
                    "duration": 0.11904750000000064
                },
                {
                    "name": "A3",
                    "midi": 57,
                    "time": 8.452372500000001,
                    "velocity": 0.5433070866141733,
                    "duration": 0.11904750000000064
                },
                {
                    "name": "A#3",
                    "midi": 58,
                    "time": 8.571420000000002,
                    "velocity": 0.6299212598425197,
                    "duration": 0.2380949999999995
                },
                {
                    "name": "G3",
                    "midi": 55,
                    "time": 8.809515000000001,
                    "velocity": 0.5433070866141733,
                    "duration": 0.11904750000000064
                },
                {
                    "name": "G3",
                    "midi": 55,
                    "time": 9.047610000000002,
                    "velocity": 0.6220472440944882,
                    "duration": 0.2380949999999995
                },
                {
                    "name": "E3",
                    "midi": 52,
                    "time": 9.285705000000002,
                    "velocity": 0.5433070866141733,
                    "duration": 0.11904750000000064
                },
                {
                    "name": "G4",
                    "midi": 67,
                    "time": 9.523800000000003,
                    "velocity": 0.5275590551181102,
                    "duration": 0.2380949999999995
                },
                {
                    "name": "A#4",
                    "midi": 70,
                    "time": 9.523800000000003,
                    "velocity": 0.6220472440944882,
                    "duration": 0.2380949999999995
                },
                {
                    "name": "E4",
                    "midi": 64,
                    "time": 9.761895000000003,
                    "velocity": 0.4566929133858268,
                    "duration": 0.11904750000000064
                },
                {
                    "name": "G4",
                    "midi": 67,
                    "time": 9.761895000000003,
                    "velocity": 0.5433070866141733,
                    "duration": 0.11904750000000064
                },
                {
                    "name": "E4",
                    "midi": 64,
                    "time": 9.999990000000004,
                    "velocity": 0.5275590551181102,
                    "duration": 0.2380949999999995
                },
                {
                    "name": "G4",
                    "midi": 67,
                    "time": 9.999990000000004,
                    "velocity": 0.6220472440944882,
                    "duration": 0.2380949999999995
                },
                {
                    "name": "E4",
                    "midi": 64,
                    "time": 10.238085000000003,
                    "velocity": 0.5433070866141733,
                    "duration": 0.11904750000000064
                },
                {
                    "name": "C#4",
                    "midi": 61,
                    "time": 10.238085000000003,
                    "velocity": 0.4566929133858268,
                    "duration": 0.11904750000000064
                },
                {
                    "name": "E4",
                    "midi": 64,
                    "time": 10.476180000000005,
                    "velocity": 0.5826771653543307,
                    "duration": 0.22619025000000015
                },
                {
                    "name": "C#4",
                    "midi": 61,
                    "time": 10.476180000000005,
                    "velocity": 0.4881889763779528,
                    "duration": 0.22619025000000015
                },
                {
                    "name": "A3",
                    "midi": 57,
                    "time": 10.476180000000005,
                    "velocity": 0.4881889763779528,
                    "duration": 0.22619025000000015
                },
                {
                    "name": "E4",
                    "midi": 64,
                    "time": 10.714275000000004,
                    "velocity": 0.5511811023622047,
                    "duration": 0.22619025000000015
                },
                {
                    "name": "C#4",
                    "midi": 61,
                    "time": 10.714275000000004,
                    "velocity": 0.4645669291338583,
                    "duration": 0.22619025000000015
                },
                {
                    "name": "A3",
                    "midi": 57,
                    "time": 10.714275000000004,
                    "velocity": 0.4645669291338583,
                    "duration": 0.22619025000000015
                },
                {
                    "name": "F4",
                    "midi": 65,
                    "time": 10.952370000000004,
                    "velocity": 0.6299212598425197,
                    "duration": 0.4761900000000008
                },
                {
                    "name": "D4",
                    "midi": 62,
                    "time": 10.952370000000004,
                    "velocity": 0.5354330708661418,
                    "duration": 0.4761900000000008
                },
                {
                    "name": "A3",
                    "midi": 57,
                    "time": 10.952370000000004,
                    "velocity": 0.5354330708661418,
                    "duration": 0.4761900000000008
                },
                {
                    "name": "C4",
                    "midi": 60,
                    "time": 11.428560000000004,
                    "velocity": 0.6062992125984252,
                    "duration": 0.11904750000000064
                },
                {
                    "name": "B3",
                    "midi": 59,
                    "time": 11.547607500000005,
                    "velocity": 0.5433070866141733,
                    "duration": 0.11904750000000064
                },
                {
                    "name": "C4",
                    "midi": 60,
                    "time": 11.666655000000006,
                    "velocity": 0.5826771653543307,
                    "duration": 0.11904750000000064
                },
                {
                    "name": "B3",
                    "midi": 59,
                    "time": 11.785702500000006,
                    "velocity": 0.5433070866141733,
                    "duration": 0.11904750000000064
                },
                {
                    "name": "A3",
                    "midi": 57,
                    "time": 11.904750000000007,
                    "velocity": 0.6141732283464567,
                    "duration": 0.11904750000000064
                },
                {
                    "name": "B3",
                    "midi": 59,
                    "time": 12.023797500000008,
                    "velocity": 0.5433070866141733,
                    "duration": 0.11904750000000064
                },
                {
                    "name": "A3",
                    "midi": 57,
                    "time": 12.142845000000008,
                    "velocity": 0.6062992125984252,
                    "duration": 0.11904750000000064
                },
                {
                    "name": "B3",
                    "midi": 59,
                    "time": 12.261892500000009,
                    "velocity": 0.5433070866141733,
                    "duration": 0.11904750000000064
                },
                {
                    "name": "C4",
                    "midi": 60,
                    "time": 12.38094000000001,
                    "velocity": 0.6299212598425197,
                    "duration": 0.2380949999999995
                },
                {
                    "name": "A3",
                    "midi": 57,
                    "time": 12.619035000000009,
                    "velocity": 0.5433070866141733,
                    "duration": 0.11904750000000064
                },
                {
                    "name": "A3",
                    "midi": 57,
                    "time": 12.85713000000001,
                    "velocity": 0.6220472440944882,
                    "duration": 0.2380949999999995
                },
                {
                    "name": "F#3",
                    "midi": 54,
                    "time": 13.09522500000001,
                    "velocity": 0.5433070866141733,
                    "duration": 0.11904750000000064
                },
                {
                    "name": "A4",
                    "midi": 69,
                    "time": 13.333320000000011,
                    "velocity": 0.5275590551181102,
                    "duration": 0.2380949999999995
                },
                {
                    "name": "C5",
                    "midi": 72,
                    "time": 13.333320000000011,
                    "velocity": 0.6220472440944882,
                    "duration": 0.2380949999999995
                },
                {
                    "name": "F#4",
                    "midi": 66,
                    "time": 13.57141500000001,
                    "velocity": 0.4566929133858268,
                    "duration": 0.11904750000000064
                },
                {
                    "name": "A4",
                    "midi": 69,
                    "time": 13.57141500000001,
                    "velocity": 0.5433070866141733,
                    "duration": 0.11904750000000064
                },
                {
                    "name": "F#4",
                    "midi": 66,
                    "time": 13.809510000000012,
                    "velocity": 0.5275590551181102,
                    "duration": 0.2380949999999995
                },
                {
                    "name": "A4",
                    "midi": 69,
                    "time": 13.809510000000012,
                    "velocity": 0.6220472440944882,
                    "duration": 0.2380949999999995
                },
                {
                    "name": "F#4",
                    "midi": 66,
                    "time": 14.047605000000011,
                    "velocity": 0.5433070866141733,
                    "duration": 0.11904750000000064
                },
                {
                    "name": "D#4",
                    "midi": 63,
                    "time": 14.047605000000011,
                    "velocity": 0.4566929133858268,
                    "duration": 0.11904750000000064
                },
                {
                    "name": "F#4",
                    "midi": 66,
                    "time": 14.285700000000013,
                    "velocity": 0.5826771653543307,
                    "duration": 0.2380949999999995
                },
                {
                    "name": "D#4",
                    "midi": 63,
                    "time": 14.285700000000013,
                    "velocity": 0.5826771653543307,
                    "duration": 0.2380949999999995
                },
                {
                    "name": "F#4",
                    "midi": 66,
                    "time": 14.523795000000012,
                    "velocity": 0.5511811023622047,
                    "duration": 0.2380949999999995
                },
                {
                    "name": "D#4",
                    "midi": 63,
                    "time": 14.523795000000012,
                    "velocity": 0.5511811023622047,
                    "duration": 0.2380949999999995
                },
                {
                    "name": "G#4",
                    "midi": 68,
                    "time": 14.761890000000012,
                    "velocity": 0.6299212598425197,
                    "duration": 0.4761900000000008
                },
                {
                    "name": "E4",
                    "midi": 64,
                    "time": 14.761890000000012,
                    "velocity": 0.5354330708661418,
                    "duration": 0.4761900000000008
                },
                {
                    "name": "B3",
                    "midi": 59,
                    "time": 14.761890000000012,
                    "velocity": 0.5354330708661418,
                    "duration": 0.4761900000000008
                },
                {
                    "name": "A3",
                    "midi": 57,
                    "time": 15.238080000000013,
                    "velocity": 0.6614173228346457,
                    "duration": 0.11904750000000064
                },
                {
                    "name": "B3",
                    "midi": 59,
                    "time": 15.357127500000013,
                    "velocity": 0.5905511811023622,
                    "duration": 0.11904750000000064
                },
                {
                    "name": "A3",
                    "midi": 57,
                    "time": 15.476175000000014,
                    "velocity": 0.6377952755905512,
                    "duration": 0.11904750000000064
                },
                {
                    "name": "B3",
                    "midi": 59,
                    "time": 15.595222500000014,
                    "velocity": 0.5905511811023622,
                    "duration": 0.11904750000000064
                },
                {
                    "name": "C4",
                    "midi": 60,
                    "time": 15.714270000000015,
                    "velocity": 0.6692913385826772,
                    "duration": 0.11904750000000064
                },
                {
                    "name": "B3",
                    "midi": 59,
                    "time": 15.833317500000016,
                    "velocity": 0.5905511811023622,
                    "duration": 0.11904750000000064
                },
                {
                    "name": "C4",
                    "midi": 60,
                    "time": 15.952365000000016,
                    "velocity": 0.6614173228346457,
                    "duration": 0.11904749999999886
                },
                {
                    "name": "B3",
                    "midi": 59,
                    "time": 16.071412500000015,
                    "velocity": 0.5905511811023622,
                    "duration": 0.11904750000000064
                },
                {
                    "name": "A3",
                    "midi": 57,
                    "time": 16.190460000000016,
                    "velocity": 0.6929133858267716,
                    "duration": 0.23809500000000128
                },
                {
                    "name": "B3",
                    "midi": 59,
                    "time": 16.428555000000017,
                    "velocity": 0.5905511811023622,
                    "duration": 0.11904750000000064
                },
                {
                    "name": "C4",
                    "midi": 60,
                    "time": 16.66665000000002,
                    "velocity": 0.6771653543307087,
                    "duration": 0.23809500000000128
                },
                {
                    "name": "E4",
                    "midi": 64,
                    "time": 16.90474500000002,
                    "velocity": 0.5905511811023622,
                    "duration": 0.11904750000000064
                },
                {
                    "name": "A4",
                    "midi": 69,
                    "time": 17.14284000000002,
                    "velocity": 0.6771653543307087,
                    "duration": 0.23809500000000128
                },
                {
                    "name": "B4",
                    "midi": 71,
                    "time": 17.380935000000022,
                    "velocity": 0.5905511811023622,
                    "duration": 0.11904750000000064
                },
                {
                    "name": "C5",
                    "midi": 72,
                    "time": 17.619030000000024,
                    "velocity": 0.6771653543307087,
                    "duration": 0.23809500000000128
                },
                {
                    "name": "E5",
                    "midi": 76,
                    "time": 17.857125000000025,
                    "velocity": 0.5905511811023622,
                    "duration": 0.11904750000000064
                },
                {
                    "name": "E4",
                    "midi": 64,
                    "time": 18.095220000000026,
                    "velocity": 0.5748031496062992,
                    "duration": 0.22619024999999837
                },
                {
                    "name": "G#4",
                    "midi": 68,
                    "time": 18.095220000000026,
                    "velocity": 0.5748031496062992,
                    "duration": 0.22619024999999837
                },
                {
                    "name": "B4",
                    "midi": 71,
                    "time": 18.095220000000026,
                    "velocity": 0.6771653543307087,
                    "duration": 0.22619024999999837
                },
                {
                    "name": "E4",
                    "midi": 64,
                    "time": 18.333315000000024,
                    "velocity": 0.5354330708661418,
                    "duration": 0.22619024999999837
                },
                {
                    "name": "G#4",
                    "midi": 68,
                    "time": 18.333315000000024,
                    "velocity": 0.5354330708661418,
                    "duration": 0.22619024999999837
                },
                {
                    "name": "B4",
                    "midi": 71,
                    "time": 18.333315000000024,
                    "velocity": 0.6377952755905512,
                    "duration": 0.22619024999999837
                },
                {
                    "name": "E4",
                    "midi": 64,
                    "time": 18.57141000000002,
                    "velocity": 0.5354330708661418,
                    "duration": 0.22619024999999837
                },
                {
                    "name": "A4",
                    "midi": 69,
                    "time": 18.57141000000002,
                    "velocity": 0.5354330708661418,
                    "duration": 0.22619024999999837
                },
                {
                    "name": "C5",
                    "midi": 72,
                    "time": 18.57141000000002,
                    "velocity": 0.6377952755905512,
                    "duration": 0.22619024999999837
                },
                {
                    "name": "E4",
                    "midi": 64,
                    "time": 18.80950500000002,
                    "velocity": 0.5669291338582677,
                    "duration": 0.22619024999999837
                },
                {
                    "name": "G4",
                    "midi": 67,
                    "time": 18.80950500000002,
                    "velocity": 0.5669291338582677,
                    "duration": 0.22619024999999837
                },
                {
                    "name": "A4",
                    "midi": 69,
                    "time": 18.80950500000002,
                    "velocity": 0.5669291338582677,
                    "duration": 0.22619024999999837
                },
                {
                    "name": "C#5",
                    "midi": 73,
                    "time": 18.80950500000002,
                    "velocity": 0.6692913385826772,
                    "duration": 0.22619024999999837
                },
                {
                    "name": "F4",
                    "midi": 65,
                    "time": 19.047600000000017,
                    "velocity": 0.6062992125984252,
                    "duration": 0.476189999999999
                },
                {
                    "name": "A4",
                    "midi": 69,
                    "time": 19.047600000000017,
                    "velocity": 0.6062992125984252,
                    "duration": 0.476189999999999
                },
                {
                    "name": "D5",
                    "midi": 74,
                    "time": 19.047600000000017,
                    "velocity": 0.7165354330708661,
                    "duration": 0.476189999999999
                },
                {
                    "name": "F4",
                    "midi": 65,
                    "time": 19.523790000000016,
                    "velocity": 0.6377952755905512,
                    "duration": 0.11904750000000064
                },
                {
                    "name": "E4",
                    "midi": 64,
                    "time": 19.642837500000017,
                    "velocity": 0.5669291338582677,
                    "duration": 0.11904750000000064
                },
                {
                    "name": "F4",
                    "midi": 65,
                    "time": 19.761885000000017,
                    "velocity": 0.6299212598425197,
                    "duration": 0.11904750000000064
                },
                {
                    "name": "E4",
                    "midi": 64,
                    "time": 19.880932500000018,
                    "velocity": 0.5669291338582677,
                    "duration": 0.11904750000000064
                },
                {
                    "name": "D4",
                    "midi": 62,
                    "time": 19.99998000000002,
                    "velocity": 0.6614173228346457,
                    "duration": 0.23809500000000128
                },
                {
                    "name": "E4",
                    "midi": 64,
                    "time": 20.23807500000002,
                    "velocity": 0.5669291338582677,
                    "duration": 0.11904750000000064
                },
                {
                    "name": "F4",
                    "midi": 65,
                    "time": 20.47617000000002,
                    "velocity": 0.6456692913385826,
                    "duration": 0.23809500000000128
                },
                {
                    "name": "A4",
                    "midi": 69,
                    "time": 20.714265000000022,
                    "velocity": 0.5669291338582677,
                    "duration": 0.11904750000000064
                },
                {
                    "name": "D5",
                    "midi": 74,
                    "time": 20.952360000000024,
                    "velocity": 0.6456692913385826,
                    "duration": 0.23809500000000128
                },
                {
                    "name": "E5",
                    "midi": 76,
                    "time": 21.190455000000025,
                    "velocity": 0.5669291338582677,
                    "duration": 0.11904750000000064
                },
                {
                    "name": "F5",
                    "midi": 77,
                    "time": 21.428550000000026,
                    "velocity": 0.6456692913385826,
                    "duration": 0.23809500000000128
                },
                {
                    "name": "A5",
                    "midi": 81,
                    "time": 21.666645000000027,
                    "velocity": 0.5669291338582677,
                    "duration": 0.11904750000000064
                },
                {
                    "name": "B4",
                    "midi": 71,
                    "time": 21.90474000000003,
                    "velocity": 0.5590551181102362,
                    "duration": 0.22619024999999837
                },
                {
                    "name": "E5",
                    "midi": 76,
                    "time": 21.90474000000003,
                    "velocity": 0.5590551181102362,
                    "duration": 0.22619024999999837
                },
                {
                    "name": "G#5",
                    "midi": 80,
                    "time": 21.90474000000003,
                    "velocity": 0.6692913385826772,
                    "duration": 0.22619024999999837
                },
                {
                    "name": "B4",
                    "midi": 71,
                    "time": 22.142835000000026,
                    "velocity": 0.5275590551181102,
                    "duration": 0.22619024999999837
                },
                {
                    "name": "E5",
                    "midi": 76,
                    "time": 22.142835000000026,
                    "velocity": 0.5275590551181102,
                    "duration": 0.22619024999999837
                },
                {
                    "name": "G#5",
                    "midi": 80,
                    "time": 22.142835000000026,
                    "velocity": 0.6299212598425197,
                    "duration": 0.22619024999999837
                },
                {
                    "name": "C5",
                    "midi": 72,
                    "time": 22.380930000000024,
                    "velocity": 0.6062992125984252,
                    "duration": 0.476189999999999
                },
                {
                    "name": "E5",
                    "midi": 76,
                    "time": 22.380930000000024,
                    "velocity": 0.6062992125984252,
                    "duration": 0.476189999999999
                },
                {
                    "name": "A5",
                    "midi": 81,
                    "time": 22.380930000000024,
                    "velocity": 0.7244094488188977,
                    "duration": 0.476189999999999
                },
                {
                    "name": "A#3",
                    "midi": 58,
                    "time": 22.857120000000023,
                    "velocity": 0.6062992125984252,
                    "duration": 0.11904750000000064
                },
                {
                    "name": "A3",
                    "midi": 57,
                    "time": 22.976167500000024,
                    "velocity": 0.5433070866141733,
                    "duration": 0.11904750000000064
                },
                {
                    "name": "A#3",
                    "midi": 58,
                    "time": 23.095215000000024,
                    "velocity": 0.5826771653543307,
                    "duration": 0.11904750000000064
                },
                {
                    "name": "A3",
                    "midi": 57,
                    "time": 23.214262500000025,
                    "velocity": 0.5433070866141733,
                    "duration": 0.11904750000000064
                },
                {
                    "name": "G3",
                    "midi": 55,
                    "time": 23.333310000000026,
                    "velocity": 0.6141732283464567,
                    "duration": 0.11904750000000064
                },
                {
                    "name": "A3",
                    "midi": 57,
                    "time": 23.452357500000026,
                    "velocity": 0.5433070866141733,
                    "duration": 0.11904750000000064
                },
                {
                    "name": "G3",
                    "midi": 55,
                    "time": 23.571405000000027,
                    "velocity": 0.6062992125984252,
                    "duration": 0.11904750000000064
                },
                {
                    "name": "A3",
                    "midi": 57,
                    "time": 23.690452500000028,
                    "velocity": 0.5433070866141733,
                    "duration": 0.11904750000000064
                },
                {
                    "name": "A#3",
                    "midi": 58,
                    "time": 23.80950000000003,
                    "velocity": 0.6299212598425197,
                    "duration": 0.23809500000000128
                },
                {
                    "name": "G3",
                    "midi": 55,
                    "time": 24.04759500000003,
                    "velocity": 0.5433070866141733,
                    "duration": 0.11904750000000064
                },
                {
                    "name": "G3",
                    "midi": 55,
                    "time": 24.28569000000003,
                    "velocity": 0.6220472440944882,
                    "duration": 0.23809500000000128
                },
                {
                    "name": "E3",
                    "midi": 52,
                    "time": 24.523785000000032,
                    "velocity": 0.5433070866141733,
                    "duration": 0.11904750000000064
                },
                {
                    "name": "G4",
                    "midi": 67,
                    "time": 24.761880000000033,
                    "velocity": 0.5275590551181102,
                    "duration": 0.23809500000000128
                },
                {
                    "name": "A#4",
                    "midi": 70,
                    "time": 24.761880000000033,
                    "velocity": 0.6220472440944882,
                    "duration": 0.23809500000000128
                },
                {
                    "name": "E4",
                    "midi": 64,
                    "time": 24.999975000000035,
                    "velocity": 0.4566929133858268,
                    "duration": 0.11904750000000064
                },
                {
                    "name": "G4",
                    "midi": 67,
                    "time": 24.999975000000035,
                    "velocity": 0.5433070866141733,
                    "duration": 0.11904750000000064
                },
                {
                    "name": "E4",
                    "midi": 64,
                    "time": 25.238070000000036,
                    "velocity": 0.5275590551181102,
                    "duration": 0.23809500000000128
                },
                {
                    "name": "G4",
                    "midi": 67,
                    "time": 25.238070000000036,
                    "velocity": 0.6220472440944882,
                    "duration": 0.23809500000000128
                },
                {
                    "name": "E4",
                    "midi": 64,
                    "time": 25.476165000000037,
                    "velocity": 0.5433070866141733,
                    "duration": 0.11904750000000064
                },
                {
                    "name": "C#4",
                    "midi": 61,
                    "time": 25.476165000000037,
                    "velocity": 0.4566929133858268,
                    "duration": 0.11904750000000064
                },
                {
                    "name": "E4",
                    "midi": 64,
                    "time": 25.71426000000004,
                    "velocity": 0.5826771653543307,
                    "duration": 0.22619024999999837
                },
                {
                    "name": "C#4",
                    "midi": 61,
                    "time": 25.71426000000004,
                    "velocity": 0.4881889763779528,
                    "duration": 0.22619024999999837
                },
                {
                    "name": "A3",
                    "midi": 57,
                    "time": 25.71426000000004,
                    "velocity": 0.4881889763779528,
                    "duration": 0.22619024999999837
                },
                {
                    "name": "E4",
                    "midi": 64,
                    "time": 25.952355000000036,
                    "velocity": 0.5511811023622047,
                    "duration": 0.22619024999999837
                },
                {
                    "name": "C#4",
                    "midi": 61,
                    "time": 25.952355000000036,
                    "velocity": 0.4645669291338583,
                    "duration": 0.22619024999999837
                },
                {
                    "name": "A3",
                    "midi": 57,
                    "time": 25.952355000000036,
                    "velocity": 0.4645669291338583,
                    "duration": 0.22619024999999837
                },
                {
                    "name": "F4",
                    "midi": 65,
                    "time": 26.190450000000034,
                    "velocity": 0.6299212598425197,
                    "duration": 0.476189999999999
                },
                {
                    "name": "D4",
                    "midi": 62,
                    "time": 26.190450000000034,
                    "velocity": 0.5354330708661418,
                    "duration": 0.476189999999999
                },
                {
                    "name": "A3",
                    "midi": 57,
                    "time": 26.190450000000034,
                    "velocity": 0.5354330708661418,
                    "duration": 0.476189999999999
                },
                {
                    "name": "C4",
                    "midi": 60,
                    "time": 26.666640000000033,
                    "velocity": 0.6062992125984252,
                    "duration": 0.11904750000000064
                },
                {
                    "name": "B3",
                    "midi": 59,
                    "time": 26.785687500000034,
                    "velocity": 0.5433070866141733,
                    "duration": 0.11904750000000064
                },
                {
                    "name": "C4",
                    "midi": 60,
                    "time": 26.904735000000034,
                    "velocity": 0.5826771653543307,
                    "duration": 0.11904750000000064
                },
                {
                    "name": "B3",
                    "midi": 59,
                    "time": 27.023782500000035,
                    "velocity": 0.5433070866141733,
                    "duration": 0.11904750000000064
                },
                {
                    "name": "A3",
                    "midi": 57,
                    "time": 27.142830000000036,
                    "velocity": 0.6141732283464567,
                    "duration": 0.11904750000000064
                },
                {
                    "name": "B3",
                    "midi": 59,
                    "time": 27.261877500000036,
                    "velocity": 0.5433070866141733,
                    "duration": 0.11904750000000064
                },
                {
                    "name": "A3",
                    "midi": 57,
                    "time": 27.380925000000037,
                    "velocity": 0.6062992125984252,
                    "duration": 0.11904750000000064
                },
                {
                    "name": "B3",
                    "midi": 59,
                    "time": 27.499972500000037,
                    "velocity": 0.5433070866141733,
                    "duration": 0.11904750000000064
                },
                {
                    "name": "C4",
                    "midi": 60,
                    "time": 27.619020000000038,
                    "velocity": 0.6299212598425197,
                    "duration": 0.23809500000000128
                },
                {
                    "name": "A3",
                    "midi": 57,
                    "time": 27.85711500000004,
                    "velocity": 0.5433070866141733,
                    "duration": 0.11904750000000064
                },
                {
                    "name": "A3",
                    "midi": 57,
                    "time": 28.09521000000004,
                    "velocity": 0.6220472440944882,
                    "duration": 0.23809500000000128
                },
                {
                    "name": "F#3",
                    "midi": 54,
                    "time": 28.333305000000042,
                    "velocity": 0.5433070866141733,
                    "duration": 0.11904750000000064
                },
                {
                    "name": "A4",
                    "midi": 69,
                    "time": 28.571400000000043,
                    "velocity": 0.5275590551181102,
                    "duration": 0.23809500000000128
                },
                {
                    "name": "C5",
                    "midi": 72,
                    "time": 28.571400000000043,
                    "velocity": 0.6220472440944882,
                    "duration": 0.23809500000000128
                },
                {
                    "name": "F#4",
                    "midi": 66,
                    "time": 28.809495000000044,
                    "velocity": 0.4566929133858268,
                    "duration": 0.11904750000000064
                },
                {
                    "name": "A4",
                    "midi": 69,
                    "time": 28.809495000000044,
                    "velocity": 0.5433070866141733,
                    "duration": 0.11904750000000064
                },
                {
                    "name": "F#4",
                    "midi": 66,
                    "time": 29.047590000000046,
                    "velocity": 0.5275590551181102,
                    "duration": 0.23809500000000128
                },
                {
                    "name": "A4",
                    "midi": 69,
                    "time": 29.047590000000046,
                    "velocity": 0.6220472440944882,
                    "duration": 0.23809500000000128
                },
                {
                    "name": "F#4",
                    "midi": 66,
                    "time": 29.285685000000047,
                    "velocity": 0.5433070866141733,
                    "duration": 0.11904750000000064
                },
                {
                    "name": "D#4",
                    "midi": 63,
                    "time": 29.285685000000047,
                    "velocity": 0.4566929133858268,
                    "duration": 0.11904750000000064
                },
                {
                    "name": "F#4",
                    "midi": 66,
                    "time": 29.52378000000005,
                    "velocity": 0.5826771653543307,
                    "duration": 0.22619024999999837
                },
                {
                    "name": "D#4",
                    "midi": 63,
                    "time": 29.52378000000005,
                    "velocity": 0.5826771653543307,
                    "duration": 0.22619024999999837
                },
                {
                    "name": "F#4",
                    "midi": 66,
                    "time": 29.761875000000046,
                    "velocity": 0.5511811023622047,
                    "duration": 0.22619024999999837
                },
                {
                    "name": "D#4",
                    "midi": 63,
                    "time": 29.761875000000046,
                    "velocity": 0.5511811023622047,
                    "duration": 0.22619024999999837
                },
                {
                    "name": "G#4",
                    "midi": 68,
                    "time": 29.999970000000044,
                    "velocity": 0.6299212598425197,
                    "duration": 0.476189999999999
                },
                {
                    "name": "E4",
                    "midi": 64,
                    "time": 29.999970000000044,
                    "velocity": 0.5354330708661418,
                    "duration": 0.476189999999999
                },
                {
                    "name": "B3",
                    "midi": 59,
                    "time": 29.999970000000044,
                    "velocity": 0.5354330708661418,
                    "duration": 0.476189999999999
                },
                {
                    "name": "A3",
                    "midi": 57,
                    "time": 30.476160000000043,
                    "velocity": 0.6614173228346457,
                    "duration": 0.11904750000000064
                },
                {
                    "name": "B3",
                    "midi": 59,
                    "time": 30.595207500000043,
                    "velocity": 0.5905511811023622,
                    "duration": 0.11904750000000064
                },
                {
                    "name": "A3",
                    "midi": 57,
                    "time": 30.714255000000044,
                    "velocity": 0.6377952755905512,
                    "duration": 0.11904750000000064
                },
                {
                    "name": "B3",
                    "midi": 59,
                    "time": 30.833302500000045,
                    "velocity": 0.5905511811023622,
                    "duration": 0.11904750000000064
                },
                {
                    "name": "C4",
                    "midi": 60,
                    "time": 30.952350000000045,
                    "velocity": 0.6692913385826772,
                    "duration": 0.11904750000000064
                },
                {
                    "name": "B3",
                    "midi": 59,
                    "time": 31.071397500000046,
                    "velocity": 0.5905511811023622,
                    "duration": 0.11904750000000064
                },
                {
                    "name": "C4",
                    "midi": 60,
                    "time": 31.190445000000047,
                    "velocity": 0.6614173228346457,
                    "duration": 0.11904750000000064
                },
                {
                    "name": "B3",
                    "midi": 59,
                    "time": 31.309492500000047,
                    "velocity": 0.5905511811023622,
                    "duration": 0.11904750000000064
                },
                {
                    "name": "A3",
                    "midi": 57,
                    "time": 31.428540000000048,
                    "velocity": 0.6929133858267716,
                    "duration": 0.23809500000000128
                },
                {
                    "name": "B3",
                    "midi": 59,
                    "time": 31.66663500000005,
                    "velocity": 0.5905511811023622,
                    "duration": 0.11904750000000064
                },
                {
                    "name": "C4",
                    "midi": 60,
                    "time": 31.90473000000005,
                    "velocity": 0.6771653543307087,
                    "duration": 0.23809500000000128
                },
                {
                    "name": "E4",
                    "midi": 64,
                    "time": 32.14282500000005,
                    "velocity": 0.5905511811023622,
                    "duration": 0.11904750000000064
                },
                {
                    "name": "A4",
                    "midi": 69,
                    "time": 32.38092000000005,
                    "velocity": 0.6771653543307087,
                    "duration": 0.23809500000000128
                },
                {
                    "name": "B4",
                    "midi": 71,
                    "time": 32.619015000000054,
                    "velocity": 0.5905511811023622,
                    "duration": 0.11904750000000064
                },
                {
                    "name": "C5",
                    "midi": 72,
                    "time": 32.857110000000056,
                    "velocity": 0.6771653543307087,
                    "duration": 0.23809500000000128
                },
                {
                    "name": "E5",
                    "midi": 76,
                    "time": 33.09520500000006,
                    "velocity": 0.5905511811023622,
                    "duration": 0.11904750000000064
                },
                {
                    "name": "E4",
                    "midi": 64,
                    "time": 33.33330000000006,
                    "velocity": 0.5748031496062992,
                    "duration": 0.22619025000000192
                },
                {
                    "name": "G#4",
                    "midi": 68,
                    "time": 33.33330000000006,
                    "velocity": 0.5748031496062992,
                    "duration": 0.22619025000000192
                },
                {
                    "name": "B4",
                    "midi": 71,
                    "time": 33.33330000000006,
                    "velocity": 0.6771653543307087,
                    "duration": 0.22619025000000192
                },
                {
                    "name": "E4",
                    "midi": 64,
                    "time": 33.57139500000006,
                    "velocity": 0.5354330708661418,
                    "duration": 0.22619025000000192
                },
                {
                    "name": "G#4",
                    "midi": 68,
                    "time": 33.57139500000006,
                    "velocity": 0.5354330708661418,
                    "duration": 0.22619025000000192
                },
                {
                    "name": "B4",
                    "midi": 71,
                    "time": 33.57139500000006,
                    "velocity": 0.6377952755905512,
                    "duration": 0.22619025000000192
                },
                {
                    "name": "E4",
                    "midi": 64,
                    "time": 33.80949000000006,
                    "velocity": 0.5354330708661418,
                    "duration": 0.22619025000000192
                },
                {
                    "name": "A4",
                    "midi": 69,
                    "time": 33.80949000000006,
                    "velocity": 0.5354330708661418,
                    "duration": 0.22619025000000192
                },
                {
                    "name": "C5",
                    "midi": 72,
                    "time": 33.80949000000006,
                    "velocity": 0.6377952755905512,
                    "duration": 0.22619025000000192
                },
                {
                    "name": "E4",
                    "midi": 64,
                    "time": 34.04758500000006,
                    "velocity": 0.5669291338582677,
                    "duration": 0.22619025000000192
                },
                {
                    "name": "G4",
                    "midi": 67,
                    "time": 34.04758500000006,
                    "velocity": 0.5669291338582677,
                    "duration": 0.22619025000000192
                },
                {
                    "name": "A4",
                    "midi": 69,
                    "time": 34.04758500000006,
                    "velocity": 0.5669291338582677,
                    "duration": 0.22619025000000192
                },
                {
                    "name": "C#5",
                    "midi": 73,
                    "time": 34.04758500000006,
                    "velocity": 0.6692913385826772,
                    "duration": 0.22619025000000192
                },
                {
                    "name": "F4",
                    "midi": 65,
                    "time": 34.28568000000006,
                    "velocity": 0.6062992125984252,
                    "duration": 0.47619000000000256
                },
                {
                    "name": "A4",
                    "midi": 69,
                    "time": 34.28568000000006,
                    "velocity": 0.6062992125984252,
                    "duration": 0.47619000000000256
                },
                {
                    "name": "D5",
                    "midi": 74,
                    "time": 34.28568000000006,
                    "velocity": 0.7165354330708661,
                    "duration": 0.47619000000000256
                },
                {
                    "name": "F4",
                    "midi": 65,
                    "time": 34.761870000000066,
                    "velocity": 0.6377952755905512,
                    "duration": 0.11904750000000064
                },
                {
                    "name": "E4",
                    "midi": 64,
                    "time": 34.880917500000066,
                    "velocity": 0.5669291338582677,
                    "duration": 0.11904750000000064
                },
                {
                    "name": "F4",
                    "midi": 65,
                    "time": 34.99996500000007,
                    "velocity": 0.6299212598425197,
                    "duration": 0.11904750000000064
                },
                {
                    "name": "E4",
                    "midi": 64,
                    "time": 35.11901250000007,
                    "velocity": 0.5669291338582677,
                    "duration": 0.11904750000000064
                },
                {
                    "name": "D4",
                    "midi": 62,
                    "time": 35.23806000000007,
                    "velocity": 0.6614173228346457,
                    "duration": 0.23809500000000128
                },
                {
                    "name": "E4",
                    "midi": 64,
                    "time": 35.47615500000007,
                    "velocity": 0.5669291338582677,
                    "duration": 0.11904750000000064
                },
                {
                    "name": "F4",
                    "midi": 65,
                    "time": 35.71425000000007,
                    "velocity": 0.6456692913385826,
                    "duration": 0.23809500000000128
                },
                {
                    "name": "A4",
                    "midi": 69,
                    "time": 35.95234500000007,
                    "velocity": 0.5669291338582677,
                    "duration": 0.11904750000000064
                },
                {
                    "name": "D5",
                    "midi": 74,
                    "time": 36.19044000000007,
                    "velocity": 0.6456692913385826,
                    "duration": 0.23809500000000128
                },
                {
                    "name": "E5",
                    "midi": 76,
                    "time": 36.428535000000075,
                    "velocity": 0.5669291338582677,
                    "duration": 0.11904750000000064
                },
                {
                    "name": "F5",
                    "midi": 77,
                    "time": 36.666630000000076,
                    "velocity": 0.6456692913385826,
                    "duration": 0.23809500000000128
                },
                {
                    "name": "A5",
                    "midi": 81,
                    "time": 36.90472500000008,
                    "velocity": 0.5669291338582677,
                    "duration": 0.11904750000000064
                },
                {
                    "name": "B4",
                    "midi": 71,
                    "time": 37.14282000000008,
                    "velocity": 0.5590551181102362,
                    "duration": 0.22619025000000192
                },
                {
                    "name": "E5",
                    "midi": 76,
                    "time": 37.14282000000008,
                    "velocity": 0.5590551181102362,
                    "duration": 0.22619025000000192
                },
                {
                    "name": "G#5",
                    "midi": 80,
                    "time": 37.14282000000008,
                    "velocity": 0.6692913385826772,
                    "duration": 0.22619025000000192
                },
                {
                    "name": "B4",
                    "midi": 71,
                    "time": 37.38091500000008,
                    "velocity": 0.5275590551181102,
                    "duration": 0.22619025000000192
                },
                {
                    "name": "E5",
                    "midi": 76,
                    "time": 37.38091500000008,
                    "velocity": 0.5275590551181102,
                    "duration": 0.22619025000000192
                },
                {
                    "name": "G#5",
                    "midi": 80,
                    "time": 37.38091500000008,
                    "velocity": 0.6299212598425197,
                    "duration": 0.22619025000000192
                },
                {
                    "name": "C5",
                    "midi": 72,
                    "time": 37.61901000000008,
                    "velocity": 0.6062992125984252,
                    "duration": 0.47619000000000256
                },
                {
                    "name": "E5",
                    "midi": 76,
                    "time": 37.61901000000008,
                    "velocity": 0.6062992125984252,
                    "duration": 0.47619000000000256
                },
                {
                    "name": "A5",
                    "midi": 81,
                    "time": 37.61901000000008,
                    "velocity": 0.7244094488188977,
                    "duration": 0.47619000000000256
                },
                {
                    "name": "A4",
                    "midi": 69,
                    "time": 38.095200000000084,
                    "velocity": 0.29133858267716534,
                    "duration": 0.11904750000000064
                },
                {
                    "name": "F4",
                    "midi": 65,
                    "time": 38.214247500000084,
                    "velocity": 0.2283464566929134,
                    "duration": 0.11904750000000064
                },
                {
                    "name": "A4",
                    "midi": 69,
                    "time": 38.333295000000085,
                    "velocity": 0.31496062992125984,
                    "duration": 0.11904750000000064
                },
                {
                    "name": "F4",
                    "midi": 65,
                    "time": 38.452342500000086,
                    "velocity": 0.25984251968503935,
                    "duration": 0.11904750000000064
                },
                {
                    "name": "A4",
                    "midi": 69,
                    "time": 38.571390000000086,
                    "velocity": 0.3228346456692913,
                    "duration": 0.11904750000000064
                },
                {
                    "name": "F4",
                    "midi": 65,
                    "time": 38.69043750000009,
                    "velocity": 0.2755905511811024,
                    "duration": 0.11904750000000064
                },
                {
                    "name": "G4",
                    "midi": 67,
                    "time": 38.80948500000009,
                    "velocity": 0.3464566929133858,
                    "duration": 0.11904750000000064
                },
                {
                    "name": "E4",
                    "midi": 64,
                    "time": 38.92853250000009,
                    "velocity": 0.30708661417322836,
                    "duration": 0.11904750000000064
                },
                {
                    "name": "A4",
                    "midi": 69,
                    "time": 39.04758000000009,
                    "velocity": 0.3700787401574803,
                    "duration": 0.11904750000000064
                },
                {
                    "name": "F4",
                    "midi": 65,
                    "time": 39.16662750000009,
                    "velocity": 0.33070866141732286,
                    "duration": 0.11904750000000064
                },
                {
                    "name": "A#4",
                    "midi": 70,
                    "time": 39.28567500000009,
                    "velocity": 0.3543307086614173,
                    "duration": 0.11904750000000064
                },
                {
                    "name": "G4",
                    "midi": 67,
                    "time": 39.40472250000009,
                    "velocity": 0.3779527559055118,
                    "duration": 0.11904750000000064
                },
                {
                    "name": "C5",
                    "midi": 72,
                    "time": 39.52377000000009,
                    "velocity": 0.4015748031496063,
                    "duration": 0.11904750000000064
                },
                {
                    "name": "A4",
                    "midi": 69,
                    "time": 39.64281750000009,
                    "velocity": 0.3779527559055118,
                    "duration": 0.11904750000000064
                },
                {
                    "name": "G4",
                    "midi": 67,
                    "time": 39.76186500000009,
                    "velocity": 0.36220472440944884,
                    "duration": 0.11904750000000064
                },
                {
                    "name": "E4",
                    "midi": 64,
                    "time": 39.88091250000009,
                    "velocity": 0.3464566929133858,
                    "duration": 0.11904750000000064
                },
                {
                    "name": "A4",
                    "midi": 69,
                    "time": 39.999960000000094,
                    "velocity": 0.29133858267716534,
                    "duration": 0.11904750000000064
                },
                {
                    "name": "F4",
                    "midi": 65,
                    "time": 40.119007500000095,
                    "velocity": 0.23622047244094488,
                    "duration": 0.11904750000000064
                },
                {
                    "name": "A4",
                    "midi": 69,
                    "time": 40.238055000000095,
                    "velocity": 0.31496062992125984,
                    "duration": 0.11904750000000064
                },
                {
                    "name": "F4",
                    "midi": 65,
                    "time": 40.357102500000096,
                    "velocity": 0.2755905511811024,
                    "duration": 0.11904750000000064
                },
                {
                    "name": "A4",
                    "midi": 69,
                    "time": 40.476150000000096,
                    "velocity": 0.3228346456692913,
                    "duration": 0.11904750000000064
                },
                {
                    "name": "F4",
                    "midi": 65,
                    "time": 40.5951975000001,
                    "velocity": 0.29133858267716534,
                    "duration": 0.11904750000000064
                },
                {
                    "name": "G4",
                    "midi": 67,
                    "time": 40.7142450000001,
                    "velocity": 0.3464566929133858,
                    "duration": 0.11904750000000064
                },
                {
                    "name": "E4",
                    "midi": 64,
                    "time": 40.8332925000001,
                    "velocity": 0.30708661417322836,
                    "duration": 0.11904750000000064
                },
                {
                    "name": "A4",
                    "midi": 69,
                    "time": 40.9523400000001,
                    "velocity": 0.3700787401574803,
                    "duration": 0.11904750000000064
                },
                {
                    "name": "F4",
                    "midi": 65,
                    "time": 41.0713875000001,
                    "velocity": 0.33070866141732286,
                    "duration": 0.11904750000000064
                },
                {
                    "name": "A#4",
                    "midi": 70,
                    "time": 41.1904350000001,
                    "velocity": 0.3543307086614173,
                    "duration": 0.11904750000000064
                },
                {
                    "name": "G4",
                    "midi": 67,
                    "time": 41.3094825000001,
                    "velocity": 0.3779527559055118,
                    "duration": 0.11904750000000064
                },
                {
                    "name": "C5",
                    "midi": 72,
                    "time": 41.4285300000001,
                    "velocity": 0.4015748031496063,
                    "duration": 0.11904750000000064
                },
                {
                    "name": "A4",
                    "midi": 69,
                    "time": 41.5475775000001,
                    "velocity": 0.4094488188976378,
                    "duration": 0.11904750000000064
                },
                {
                    "name": "D5",
                    "midi": 74,
                    "time": 41.6666250000001,
                    "velocity": 0.44881889763779526,
                    "duration": 0.11904750000000064
                },
                {
                    "name": "B4",
                    "midi": 71,
                    "time": 41.7856725000001,
                    "velocity": 0.4015748031496063,
                    "duration": 0.11904750000000064
                },
                {
                    "name": "E5",
                    "midi": 76,
                    "time": 41.904720000000104,
                    "velocity": 0.4566929133858268,
                    "duration": 0.11904750000000064
                },
                {
                    "name": "C5",
                    "midi": 72,
                    "time": 42.023767500000105,
                    "velocity": 0.3700787401574803,
                    "duration": 0.11904750000000064
                },
                {
                    "name": "E5",
                    "midi": 76,
                    "time": 42.142815000000105,
                    "velocity": 0.4330708661417323,
                    "duration": 0.11904750000000064
                },
                {
                    "name": "C5",
                    "midi": 72,
                    "time": 42.261862500000106,
                    "velocity": 0.3700787401574803,
                    "duration": 0.11904750000000064
                },
                {
                    "name": "E5",
                    "midi": 76,
                    "time": 42.38091000000011,
                    "velocity": 0.4094488188976378,
                    "duration": 0.11904750000000064
                },
                {
                    "name": "C5",
                    "midi": 72,
                    "time": 42.49995750000011,
                    "velocity": 0.31496062992125984,
                    "duration": 0.11904750000000064
                },
                {
                    "name": "D5",
                    "midi": 74,
                    "time": 42.61900500000011,
                    "velocity": 0.36220472440944884,
                    "duration": 0.11904750000000064
                },
                {
                    "name": "B4",
                    "midi": 71,
                    "time": 42.73805250000011,
                    "velocity": 0.31496062992125984,
                    "duration": 0.11904750000000064
                },
                {
                    "name": "E5",
                    "midi": 76,
                    "time": 42.85710000000011,
                    "velocity": 0.3700787401574803,
                    "duration": 0.11904750000000064
                },
                {
                    "name": "C5",
                    "midi": 72,
                    "time": 42.97614750000011,
                    "velocity": 0.33070866141732286,
                    "duration": 0.11904750000000064
                },
                {
                    "name": "F5",
                    "midi": 77,
                    "time": 43.09519500000011,
                    "velocity": 0.3543307086614173,
                    "duration": 0.11904750000000064
                },
                {
                    "name": "D5",
                    "midi": 74,
                    "time": 43.21424250000011,
                    "velocity": 0.3779527559055118,
                    "duration": 0.11904750000000064
                },
                {
                    "name": "G5",
                    "midi": 79,
                    "time": 43.33329000000011,
                    "velocity": 0.4015748031496063,
                    "duration": 0.11904750000000064
                },
                {
                    "name": "E5",
                    "midi": 76,
                    "time": 43.45233750000011,
                    "velocity": 0.3779527559055118,
                    "duration": 0.11904750000000064
                },
                {
                    "name": "D5",
                    "midi": 74,
                    "time": 43.57138500000011,
                    "velocity": 0.36220472440944884,
                    "duration": 0.11904750000000064
                },
                {
                    "name": "B4",
                    "midi": 71,
                    "time": 43.690432500000114,
                    "velocity": 0.3464566929133858,
                    "duration": 0.11904750000000064
                },
                {
                    "name": "E5",
                    "midi": 76,
                    "time": 43.809480000000114,
                    "velocity": 0.4015748031496063,
                    "duration": 0.11904750000000064
                },
                {
                    "name": "C5",
                    "midi": 72,
                    "time": 43.928527500000115,
                    "velocity": 0.33858267716535434,
                    "duration": 0.11904750000000064
                },
                {
                    "name": "E5",
                    "midi": 76,
                    "time": 44.047575000000116,
                    "velocity": 0.3858267716535433,
                    "duration": 0.11904750000000064
                },
                {
                    "name": "C5",
                    "midi": 72,
                    "time": 44.166622500000116,
                    "velocity": 0.31496062992125984,
                    "duration": 0.11904750000000064
                },
                {
                    "name": "E5",
                    "midi": 76,
                    "time": 44.28567000000012,
                    "velocity": 0.3858267716535433,
                    "duration": 0.11904750000000064
                },
                {
                    "name": "C5",
                    "midi": 72,
                    "time": 44.40471750000012,
                    "velocity": 0.31496062992125984,
                    "duration": 0.11904750000000064
                },
                {
                    "name": "D5",
                    "midi": 74,
                    "time": 44.52376500000012,
                    "velocity": 0.36220472440944884,
                    "duration": 0.11904750000000064
                },
                {
                    "name": "B4",
                    "midi": 71,
                    "time": 44.64281250000012,
                    "velocity": 0.31496062992125984,
                    "duration": 0.11904750000000064
                },
                {
                    "name": "E5",
                    "midi": 76,
                    "time": 44.76186000000012,
                    "velocity": 0.3700787401574803,
                    "duration": 0.11904750000000064
                },
                {
                    "name": "C5",
                    "midi": 72,
                    "time": 44.88090750000012,
                    "velocity": 0.33070866141732286,
                    "duration": 0.11904750000000064
                },
                {
                    "name": "D5",
                    "midi": 74,
                    "time": 44.99995500000012,
                    "velocity": 0.3543307086614173,
                    "duration": 0.11904750000000064
                },
                {
                    "name": "B4",
                    "midi": 71,
                    "time": 45.11900250000012,
                    "velocity": 0.3228346456692913,
                    "duration": 0.11904750000000064
                },
                {
                    "name": "C5",
                    "midi": 72,
                    "time": 45.23805000000012,
                    "velocity": 0.3779527559055118,
                    "duration": 0.11904750000000064
                },
                {
                    "name": "G4",
                    "midi": 67,
                    "time": 45.35709750000012,
                    "velocity": 0.31496062992125984,
                    "duration": 0.11904750000000064
                },
                {
                    "name": "A#4",
                    "midi": 70,
                    "time": 45.47614500000012,
                    "velocity": 0.31496062992125984,
                    "duration": 0.11904750000000064
                },
                {
                    "name": "G4",
                    "midi": 67,
                    "time": 45.595192500000124,
                    "velocity": 0.28346456692913385,
                    "duration": 0.11904750000000064
                },
                {
                    "name": "A4",
                    "midi": 69,
                    "time": 45.714240000000125,
                    "velocity": 0.29133858267716534,
                    "duration": 0.11904750000000064
                },
                {
                    "name": "F4",
                    "midi": 65,
                    "time": 45.833287500000125,
                    "velocity": 0.25196850393700787,
                    "duration": 0.11904750000000064
                },
                {
                    "name": "A4",
                    "midi": 69,
                    "time": 45.952335000000126,
                    "velocity": 0.31496062992125984,
                    "duration": 0.11904750000000064
                },
                {
                    "name": "F4",
                    "midi": 65,
                    "time": 46.07138250000013,
                    "velocity": 0.2677165354330709,
                    "duration": 0.11904750000000064
                },
                {
                    "name": "A4",
                    "midi": 69,
                    "time": 46.19043000000013,
                    "velocity": 0.3228346456692913,
                    "duration": 0.11904750000000064
                },
                {
                    "name": "F4",
                    "midi": 65,
                    "time": 46.30947750000013,
                    "velocity": 0.29133858267716534,
                    "duration": 0.11904750000000064
                },
                {
                    "name": "G4",
                    "midi": 67,
                    "time": 46.42852500000013,
                    "velocity": 0.3464566929133858,
                    "duration": 0.11904750000000064
                },
                {
                    "name": "E4",
                    "midi": 64,
                    "time": 46.54757250000013,
                    "velocity": 0.30708661417322836,
                    "duration": 0.11904750000000064
                },
                {
                    "name": "A4",
                    "midi": 69,
                    "time": 46.66662000000013,
                    "velocity": 0.3700787401574803,
                    "duration": 0.11904750000000064
                },
                {
                    "name": "F4",
                    "midi": 65,
                    "time": 46.78566750000013,
                    "velocity": 0.33070866141732286,
                    "duration": 0.11904750000000064
                },
                {
                    "name": "A#4",
                    "midi": 70,
                    "time": 46.90471500000013,
                    "velocity": 0.3543307086614173,
                    "duration": 0.11904750000000064
                },
                {
                    "name": "G4",
                    "midi": 67,
                    "time": 47.02376250000013,
                    "velocity": 0.3779527559055118,
                    "duration": 0.11904750000000064
                },
                {
                    "name": "C5",
                    "midi": 72,
                    "time": 47.14281000000013,
                    "velocity": 0.4015748031496063,
                    "duration": 0.11904750000000064
                },
                {
                    "name": "A4",
                    "midi": 69,
                    "time": 47.26185750000013,
                    "velocity": 0.3779527559055118,
                    "duration": 0.11904750000000064
                },
                {
                    "name": "G4",
                    "midi": 67,
                    "time": 47.38090500000013,
                    "velocity": 0.3543307086614173,
                    "duration": 0.11904750000000064
                },
                {
                    "name": "E4",
                    "midi": 64,
                    "time": 47.499952500000134,
                    "velocity": 0.33070866141732286,
                    "duration": 0.11904750000000064
                },
                {
                    "name": "A4",
                    "midi": 69,
                    "time": 47.619000000000135,
                    "velocity": 0.29133858267716534,
                    "duration": 0.11904750000000064
                },
                {
                    "name": "F4",
                    "midi": 65,
                    "time": 47.738047500000135,
                    "velocity": 0.2677165354330709,
                    "duration": 0.11904750000000064
                },
                {
                    "name": "A4",
                    "midi": 69,
                    "time": 47.857095000000136,
                    "velocity": 0.31496062992125984,
                    "duration": 0.11904750000000064
                },
                {
                    "name": "F4",
                    "midi": 65,
                    "time": 47.97614250000014,
                    "velocity": 0.28346456692913385,
                    "duration": 0.11904750000000064
                },
                {
                    "name": "A4",
                    "midi": 69,
                    "time": 48.09519000000014,
                    "velocity": 0.3228346456692913,
                    "duration": 0.11904750000000064
                },
                {
                    "name": "F4",
                    "midi": 65,
                    "time": 48.21423750000014,
                    "velocity": 0.29133858267716534,
                    "duration": 0.11904750000000064
                },
                {
                    "name": "G4",
                    "midi": 67,
                    "time": 48.33328500000014,
                    "velocity": 0.3464566929133858,
                    "duration": 0.11904750000000064
                },
                {
                    "name": "E4",
                    "midi": 64,
                    "time": 48.45233250000014,
                    "velocity": 0.30708661417322836,
                    "duration": 0.11904750000000064
                },
                {
                    "name": "A4",
                    "midi": 69,
                    "time": 48.57138000000014,
                    "velocity": 0.3700787401574803,
                    "duration": 0.11904750000000064
                },
                {
                    "name": "F4",
                    "midi": 65,
                    "time": 48.69042750000014,
                    "velocity": 0.33070866141732286,
                    "duration": 0.11904750000000064
                },
                {
                    "name": "A#4",
                    "midi": 70,
                    "time": 48.80947500000014,
                    "velocity": 0.3543307086614173,
                    "duration": 0.11904750000000064
                },
                {
                    "name": "G4",
                    "midi": 67,
                    "time": 48.92852250000014,
                    "velocity": 0.3779527559055118,
                    "duration": 0.11904750000000064
                },
                {
                    "name": "C5",
                    "midi": 72,
                    "time": 49.04757000000014,
                    "velocity": 0.4015748031496063,
                    "duration": 0.11904750000000064
                },
                {
                    "name": "A4",
                    "midi": 69,
                    "time": 49.16661750000014,
                    "velocity": 0.4094488188976378,
                    "duration": 0.11904750000000064
                },
                {
                    "name": "D5",
                    "midi": 74,
                    "time": 49.285665000000144,
                    "velocity": 0.44881889763779526,
                    "duration": 0.11904750000000064
                },
                {
                    "name": "B4",
                    "midi": 71,
                    "time": 49.404712500000144,
                    "velocity": 0.4015748031496063,
                    "duration": 0.11904750000000064
                },
                {
                    "name": "E5",
                    "midi": 76,
                    "time": 49.523760000000145,
                    "velocity": 0.4566929133858268,
                    "duration": 0.11904750000000064
                },
                {
                    "name": "C5",
                    "midi": 72,
                    "time": 49.642807500000146,
                    "velocity": 0.3700787401574803,
                    "duration": 0.11904750000000064
                },
                {
                    "name": "E5",
                    "midi": 76,
                    "time": 49.761855000000146,
                    "velocity": 0.4330708661417323,
                    "duration": 0.11904750000000064
                },
                {
                    "name": "C5",
                    "midi": 72,
                    "time": 49.88090250000015,
                    "velocity": 0.3700787401574803,
                    "duration": 0.11904750000000064
                },
                {
                    "name": "E5",
                    "midi": 76,
                    "time": 49.99995000000015,
                    "velocity": 0.4094488188976378,
                    "duration": 0.11904750000000064
                },
                {
                    "name": "C5",
                    "midi": 72,
                    "time": 50.11899750000015,
                    "velocity": 0.31496062992125984,
                    "duration": 0.11904750000000064
                },
                {
                    "name": "D5",
                    "midi": 74,
                    "time": 50.23804500000015,
                    "velocity": 0.36220472440944884,
                    "duration": 0.11904750000000064
                },
                {
                    "name": "B4",
                    "midi": 71,
                    "time": 50.35709250000015,
                    "velocity": 0.31496062992125984,
                    "duration": 0.11904750000000064
                },
                {
                    "name": "E5",
                    "midi": 76,
                    "time": 50.47614000000015,
                    "velocity": 0.3700787401574803,
                    "duration": 0.11904750000000064
                },
                {
                    "name": "C5",
                    "midi": 72,
                    "time": 50.59518750000015,
                    "velocity": 0.33070866141732286,
                    "duration": 0.11904750000000064
                },
                {
                    "name": "F5",
                    "midi": 77,
                    "time": 50.71423500000015,
                    "velocity": 0.3543307086614173,
                    "duration": 0.11904750000000064
                },
                {
                    "name": "D5",
                    "midi": 74,
                    "time": 50.83328250000015,
                    "velocity": 0.3779527559055118,
                    "duration": 0.11904750000000064
                },
                {
                    "name": "G5",
                    "midi": 79,
                    "time": 50.95233000000015,
                    "velocity": 0.4330708661417323,
                    "duration": 0.11904750000000064
                },
                {
                    "name": "E5",
                    "midi": 76,
                    "time": 51.07137750000015,
                    "velocity": 0.3779527559055118,
                    "duration": 0.11904750000000064
                },
                {
                    "name": "D5",
                    "midi": 74,
                    "time": 51.190425000000154,
                    "velocity": 0.36220472440944884,
                    "duration": 0.11904750000000064
                },
                {
                    "name": "B4",
                    "midi": 71,
                    "time": 51.309472500000155,
                    "velocity": 0.3464566929133858,
                    "duration": 0.11904750000000064
                },
                {
                    "name": "E5",
                    "midi": 76,
                    "time": 51.428520000000155,
                    "velocity": 0.4015748031496063,
                    "duration": 0.11904750000000064
                },
                {
                    "name": "C5",
                    "midi": 72,
                    "time": 51.547567500000156,
                    "velocity": 0.33858267716535434,
                    "duration": 0.11904750000000064
                },
                {
                    "name": "E5",
                    "midi": 76,
                    "time": 51.66661500000016,
                    "velocity": 0.3858267716535433,
                    "duration": 0.11904750000000064
                },
                {
                    "name": "C5",
                    "midi": 72,
                    "time": 51.78566250000016,
                    "velocity": 0.31496062992125984,
                    "duration": 0.11904750000000064
                },
                {
                    "name": "E5",
                    "midi": 76,
                    "time": 51.90471000000016,
                    "velocity": 0.3543307086614173,
                    "duration": 0.11904750000000064
                },
                {
                    "name": "C5",
                    "midi": 72,
                    "time": 52.02375750000016,
                    "velocity": 0.33070866141732286,
                    "duration": 0.11904750000000064
                },
                {
                    "name": "D5",
                    "midi": 74,
                    "time": 52.14280500000016,
                    "velocity": 0.36220472440944884,
                    "duration": 0.11904750000000064
                },
                {
                    "name": "B4",
                    "midi": 71,
                    "time": 52.26185250000016,
                    "velocity": 0.31496062992125984,
                    "duration": 0.11904750000000064
                },
                {
                    "name": "E5",
                    "midi": 76,
                    "time": 52.38090000000016,
                    "velocity": 0.3700787401574803,
                    "duration": 0.11904750000000064
                },
                {
                    "name": "C5",
                    "midi": 72,
                    "time": 52.49994750000016,
                    "velocity": 0.33070866141732286,
                    "duration": 0.11904750000000064
                },
                {
                    "name": "D5",
                    "midi": 74,
                    "time": 52.61899500000016,
                    "velocity": 0.3543307086614173,
                    "duration": 0.11904750000000064
                },
                {
                    "name": "B4",
                    "midi": 71,
                    "time": 52.73804250000016,
                    "velocity": 0.3228346456692913,
                    "duration": 0.11904750000000064
                },
                {
                    "name": "C5",
                    "midi": 72,
                    "time": 52.85709000000016,
                    "velocity": 0.3779527559055118,
                    "duration": 0.11904750000000064
                },
                {
                    "name": "G4",
                    "midi": 67,
                    "time": 52.97613750000016,
                    "velocity": 0.31496062992125984,
                    "duration": 0.11904750000000064
                },
                {
                    "name": "A#4",
                    "midi": 70,
                    "time": 53.095185000000164,
                    "velocity": 0.31496062992125984,
                    "duration": 0.11904750000000064
                },
                {
                    "name": "G4",
                    "midi": 67,
                    "time": 53.214232500000165,
                    "velocity": 0.31496062992125984,
                    "duration": 0.11904750000000064
                },
                {
                    "name": "A#4",
                    "midi": 70,
                    "time": 53.333280000000165,
                    "velocity": 0.3700787401574803,
                    "duration": 0.11904750000000064
                },
                {
                    "name": "G4",
                    "midi": 67,
                    "time": 53.452327500000166,
                    "velocity": 0.31496062992125984,
                    "duration": 0.11904750000000064
                },
                {
                    "name": "A#4",
                    "midi": 70,
                    "time": 53.57137500000017,
                    "velocity": 0.3700787401574803,
                    "duration": 0.11904750000000064
                },
                {
                    "name": "G4",
                    "midi": 67,
                    "time": 53.69042250000017,
                    "velocity": 0.31496062992125984,
                    "duration": 0.11904750000000064
                },
                {
                    "name": "A#4",
                    "midi": 70,
                    "time": 53.80947000000017,
                    "velocity": 0.3700787401574803,
                    "duration": 0.11904750000000064
                },
                {
                    "name": "G4",
                    "midi": 67,
                    "time": 53.92851750000017,
                    "velocity": 0.3228346456692913,
                    "duration": 0.11904750000000064
                },
                {
                    "name": "A#4",
                    "midi": 70,
                    "time": 54.04756500000017,
                    "velocity": 0.3700787401574803,
                    "duration": 0.11904750000000064
                },
                {
                    "name": "G4",
                    "midi": 67,
                    "time": 54.16661250000017,
                    "velocity": 0.33070866141732286,
                    "duration": 0.11904750000000064
                },
                {
                    "name": "A#4",
                    "midi": 70,
                    "time": 54.28566000000017,
                    "velocity": 0.3700787401574803,
                    "duration": 0.11904750000000064
                },
                {
                    "name": "G4",
                    "midi": 67,
                    "time": 54.40470750000017,
                    "velocity": 0.3228346456692913,
                    "duration": 0.11904750000000064
                },
                {
                    "name": "A#4",
                    "midi": 70,
                    "time": 54.52375500000017,
                    "velocity": 0.3700787401574803,
                    "duration": 0.11904750000000064
                },
                {
                    "name": "G4",
                    "midi": 67,
                    "time": 54.64280250000017,
                    "velocity": 0.33070866141732286,
                    "duration": 0.11904750000000064
                },
                {
                    "name": "A#4",
                    "midi": 70,
                    "time": 54.76185000000017,
                    "velocity": 0.3700787401574803,
                    "duration": 0.11904750000000064
                },
                {
                    "name": "G4",
                    "midi": 67,
                    "time": 54.880897500000174,
                    "velocity": 0.3228346456692913,
                    "duration": 0.11904750000000064
                },
                {
                    "name": "A#4",
                    "midi": 70,
                    "time": 54.999945000000174,
                    "velocity": 0.3700787401574803,
                    "duration": 0.11904750000000064
                },
                {
                    "name": "G4",
                    "midi": 67,
                    "time": 55.118992500000175,
                    "velocity": 0.33070866141732286,
                    "duration": 0.11904750000000064
                },
                {
                    "name": "G#4",
                    "midi": 68,
                    "time": 55.238040000000176,
                    "velocity": 0.3700787401574803,
                    "duration": 0.11904750000000064
                },
                {
                    "name": "F4",
                    "midi": 65,
                    "time": 55.357087500000176,
                    "velocity": 0.31496062992125984,
                    "duration": 0.11904750000000064
                },
                {
                    "name": "G#4",
                    "midi": 68,
                    "time": 55.47613500000018,
                    "velocity": 0.3700787401574803,
                    "duration": 0.11904750000000064
                },
                {
                    "name": "F4",
                    "midi": 65,
                    "time": 55.59518250000018,
                    "velocity": 0.31496062992125984,
                    "duration": 0.11904750000000064
                },
                {
                    "name": "G#4",
                    "midi": 68,
                    "time": 55.71423000000018,
                    "velocity": 0.3858267716535433,
                    "duration": 0.11904750000000064
                },
                {
                    "name": "F4",
                    "midi": 65,
                    "time": 55.83327750000018,
                    "velocity": 0.33858267716535434,
                    "duration": 0.11904750000000064
                },
                {
                    "name": "G#4",
                    "midi": 68,
                    "time": 55.95232500000018,
                    "velocity": 0.4094488188976378,
                    "duration": 0.11904750000000064
                },
                {
                    "name": "F4",
                    "midi": 65,
                    "time": 56.07137250000018,
                    "velocity": 0.3779527559055118,
                    "duration": 0.11904750000000064
                },
                {
                    "name": "G#4",
                    "midi": 68,
                    "time": 56.19042000000018,
                    "velocity": 0.44881889763779526,
                    "duration": 0.11904750000000064
                },
                {
                    "name": "F4",
                    "midi": 65,
                    "time": 56.30946750000018,
                    "velocity": 0.3858267716535433,
                    "duration": 0.11904750000000064
                },
                {
                    "name": "G#4",
                    "midi": 68,
                    "time": 56.42851500000018,
                    "velocity": 0.4251968503937008,
                    "duration": 0.11904750000000064
                },
                {
                    "name": "F4",
                    "midi": 65,
                    "time": 56.54756250000018,
                    "velocity": 0.33070866141732286,
                    "duration": 0.11904750000000064
                },
                {
                    "name": "G#4",
                    "midi": 68,
                    "time": 56.66661000000018,
                    "velocity": 0.3700787401574803,
                    "duration": 0.11904750000000064
                },
                {
                    "name": "F4",
                    "midi": 65,
                    "time": 56.785657500000184,
                    "velocity": 0.3228346456692913,
                    "duration": 0.11904750000000064
                },
                {
                    "name": "G#4",
                    "midi": 68,
                    "time": 56.904705000000185,
                    "velocity": 0.3700787401574803,
                    "duration": 0.11904750000000064
                },
                {
                    "name": "F4",
                    "midi": 65,
                    "time": 57.023752500000185,
                    "velocity": 0.29133858267716534,
                    "duration": 0.11904750000000064
                },
                {
                    "name": "F4",
                    "midi": 65,
                    "time": 57.142800000000186,
                    "velocity": 0.3543307086614173,
                    "duration": 0.7142850000000038
                },
                {
                    "name": "C#4",
                    "midi": 61,
                    "time": 57.142800000000186,
                    "velocity": 0.3228346456692913,
                    "duration": 0.11904750000000064
                },
                {
                    "name": "G#3",
                    "midi": 56,
                    "time": 57.26184750000019,
                    "velocity": 0.25984251968503935,
                    "duration": 0.11904750000000064
                },
                {
                    "name": "C#4",
                    "midi": 61,
                    "time": 57.38089500000019,
                    "velocity": 0.3228346456692913,
                    "duration": 0.11904750000000064
                },
                {
                    "name": "G#3",
                    "midi": 56,
                    "time": 57.49994250000019,
                    "velocity": 0.2677165354330709,
                    "duration": 0.11904750000000064
                },
                {
                    "name": "C#4",
                    "midi": 61,
                    "time": 57.61899000000019,
                    "velocity": 0.3228346456692913,
                    "duration": 0.11904750000000064
                },
                {
                    "name": "G#3",
                    "midi": 56,
                    "time": 57.73803750000019,
                    "velocity": 0.25984251968503935,
                    "duration": 0.11904750000000064
                },
                {
                    "name": "D#4",
                    "midi": 63,
                    "time": 57.85708500000019,
                    "velocity": 0.33070866141732286,
                    "duration": 0.23809500000000128
                },
                {
                    "name": "C4",
                    "midi": 60,
                    "time": 57.85708500000019,
                    "velocity": 0.3228346456692913,
                    "duration": 0.11904750000000064
                },
                {
                    "name": "G#3",
                    "midi": 56,
                    "time": 57.97613250000019,
                    "velocity": 0.2677165354330709,
                    "duration": 0.11904750000000064
                },
                {
                    "name": "C#4",
                    "midi": 61,
                    "time": 58.09518000000019,
                    "velocity": 0.3228346456692913,
                    "duration": 0.11904750000000064
                },
                {
                    "name": "F4",
                    "midi": 65,
                    "time": 58.09518000000019,
                    "velocity": 0.33070866141732286,
                    "duration": 0.23809500000000128
                },
                {
                    "name": "G#3",
                    "midi": 56,
                    "time": 58.21422750000019,
                    "velocity": 0.2677165354330709,
                    "duration": 0.11904750000000064
                },
                {
                    "name": "F#4",
                    "midi": 66,
                    "time": 58.33327500000019,
                    "velocity": 0.33070866141732286,
                    "duration": 0.23809500000000128
                },
                {
                    "name": "G#3",
                    "midi": 56,
                    "time": 58.45232250000019,
                    "velocity": 0.2677165354330709,
                    "duration": 0.11904750000000064
                },
                {
                    "name": "G#4",
                    "midi": 68,
                    "time": 58.571370000000194,
                    "velocity": 0.33070866141732286,
                    "duration": 0.23809500000000128
                },
                {
                    "name": "G#3",
                    "midi": 56,
                    "time": 58.690417500000194,
                    "velocity": 0.2677165354330709,
                    "duration": 0.11904750000000064
                },
                {
                    "name": "C4",
                    "midi": 60,
                    "time": 58.809465000000195,
                    "velocity": 0.3228346456692913,
                    "duration": 0.11904750000000064
                },
                {
                    "name": "D#4",
                    "midi": 63,
                    "time": 58.809465000000195,
                    "velocity": 0.33070866141732286,
                    "duration": 0.23809500000000128
                },
                {
                    "name": "G#3",
                    "midi": 56,
                    "time": 58.928512500000195,
                    "velocity": 0.2677165354330709,
                    "duration": 0.11904750000000064
                },
                {
                    "name": "F4",
                    "midi": 65,
                    "time": 59.047560000000196,
                    "velocity": 0.33070866141732286,
                    "duration": 0.23809500000000128
                },
                {
                    "name": "C#4",
                    "midi": 61,
                    "time": 59.1666075000002,
                    "velocity": 0.2677165354330709,
                    "duration": 0.11904750000000064
                },
                {
                    "name": "G4",
                    "midi": 67,
                    "time": 59.2856550000002,
                    "velocity": 0.36220472440944884,
                    "duration": 0.23809500000000128
                },
                {
                    "name": "E4",
                    "midi": 64,
                    "time": 59.4047025000002,
                    "velocity": 0.2992125984251969,
                    "duration": 0.11904750000000064
                },
                {
                    "name": "G#4",
                    "midi": 68,
                    "time": 59.5237500000002,
                    "velocity": 0.3779527559055118,
                    "duration": 0.23809500000000128
                },
                {
                    "name": "F4",
                    "midi": 65,
                    "time": 59.6427975000002,
                    "velocity": 0.31496062992125984,
                    "duration": 0.11904750000000064
                },
                {
                    "name": "A#4",
                    "midi": 70,
                    "time": 59.7618450000002,
                    "velocity": 0.41732283464566927,
                    "duration": 0.23809500000000128
                },
                {
                    "name": "F4",
                    "midi": 65,
                    "time": 59.8808925000002,
                    "velocity": 0.36220472440944884,
                    "duration": 0.11904750000000064
                },
                {
                    "name": "C5",
                    "midi": 72,
                    "time": 59.9999400000002,
                    "velocity": 0.4330708661417323,
                    "duration": 0.11904750000000064
                },
                {
                    "name": "E4",
                    "midi": 64,
                    "time": 60.1189875000002,
                    "velocity": 0.3464566929133858,
                    "duration": 0.11904750000000064
                },
                {
                    "name": "A#4",
                    "midi": 70,
                    "time": 60.2380350000002,
                    "velocity": 0.3937007874015748,
                    "duration": 0.11904750000000064
                },
                {
                    "name": "G4",
                    "midi": 67,
                    "time": 60.3570825000002,
                    "velocity": 0.33070866141732286,
                    "duration": 0.11904750000000064
                },
                {
                    "name": "E4",
                    "midi": 64,
                    "time": 60.476130000000204,
                    "velocity": 0.3700787401574803,
                    "duration": 0.11904750000000064
                },
                {
                    "name": "A4",
                    "midi": 69,
                    "time": 60.952320000000206,
                    "velocity": 0.29133858267716534,
                    "duration": 0.11904750000000064
                },
                {
                    "name": "F4",
                    "midi": 65,
                    "time": 61.07136750000021,
                    "velocity": 0.2125984251968504,
                    "duration": 0.11904750000000064
                },
                {
                    "name": "A4",
                    "midi": 69,
                    "time": 61.19041500000021,
                    "velocity": 0.31496062992125984,
                    "duration": 0.11904750000000064
                },
                {
                    "name": "F4",
                    "midi": 65,
                    "time": 61.30946250000021,
                    "velocity": 0.25196850393700787,
                    "duration": 0.11904750000000064
                },
                {
                    "name": "A4",
                    "midi": 69,
                    "time": 61.42851000000021,
                    "velocity": 0.3228346456692913,
                    "duration": 0.11904750000000064
                },
                {
                    "name": "F4",
                    "midi": 65,
                    "time": 61.54755750000021,
                    "velocity": 0.29133858267716534,
                    "duration": 0.11904750000000064
                },
                {
                    "name": "G4",
                    "midi": 67,
                    "time": 61.66660500000021,
                    "velocity": 0.3464566929133858,
                    "duration": 0.11904750000000064
                },
                {
                    "name": "E4",
                    "midi": 64,
                    "time": 61.78565250000021,
                    "velocity": 0.30708661417322836,
                    "duration": 0.11904750000000064
                },
                {
                    "name": "A4",
                    "midi": 69,
                    "time": 61.90470000000021,
                    "velocity": 0.3700787401574803,
                    "duration": 0.11904750000000064
                },
                {
                    "name": "F4",
                    "midi": 65,
                    "time": 62.02374750000021,
                    "velocity": 0.33070866141732286,
                    "duration": 0.11904750000000064
                },
                {
                    "name": "A#4",
                    "midi": 70,
                    "time": 62.14279500000021,
                    "velocity": 0.3543307086614173,
                    "duration": 0.11904750000000064
                },
                {
                    "name": "G4",
                    "midi": 67,
                    "time": 62.26184250000021,
                    "velocity": 0.3779527559055118,
                    "duration": 0.11904750000000064
                },
                {
                    "name": "C5",
                    "midi": 72,
                    "time": 62.380890000000214,
                    "velocity": 0.4015748031496063,
                    "duration": 0.11904750000000064
                },
                {
                    "name": "A4",
                    "midi": 69,
                    "time": 62.499937500000215,
                    "velocity": 0.3779527559055118,
                    "duration": 0.11904750000000064
                },
                {
                    "name": "G4",
                    "midi": 67,
                    "time": 62.618985000000215,
                    "velocity": 0.3464566929133858,
                    "duration": 0.11904750000000064
                },
                {
                    "name": "E4",
                    "midi": 64,
                    "time": 62.738032500000216,
                    "velocity": 0.33070866141732286,
                    "duration": 0.11904750000000064
                },
                {
                    "name": "A4",
                    "midi": 69,
                    "time": 62.85708000000022,
                    "velocity": 0.29133858267716534,
                    "duration": 0.11904750000000064
                },
                {
                    "name": "F4",
                    "midi": 65,
                    "time": 62.97612750000022,
                    "velocity": 0.25196850393700787,
                    "duration": 0.11904750000000064
                },
                {
                    "name": "A4",
                    "midi": 69,
                    "time": 63.09517500000022,
                    "velocity": 0.31496062992125984,
                    "duration": 0.11904750000000064
                },
                {
                    "name": "F4",
                    "midi": 65,
                    "time": 63.21422250000022,
                    "velocity": 0.2677165354330709,
                    "duration": 0.11904750000000064
                },
                {
                    "name": "A4",
                    "midi": 69,
                    "time": 63.33327000000022,
                    "velocity": 0.3228346456692913,
                    "duration": 0.11904750000000064
                },
                {
                    "name": "F4",
                    "midi": 65,
                    "time": 63.45231750000022,
                    "velocity": 0.29133858267716534,
                    "duration": 0.11904750000000064
                },
                {
                    "name": "G4",
                    "midi": 67,
                    "time": 63.57136500000022,
                    "velocity": 0.3464566929133858,
                    "duration": 0.11904750000000064
                },
                {
                    "name": "E4",
                    "midi": 64,
                    "time": 63.69041250000022,
                    "velocity": 0.30708661417322836,
                    "duration": 0.11904750000000064
                },
                {
                    "name": "A4",
                    "midi": 69,
                    "time": 63.80946000000022,
                    "velocity": 0.3700787401574803,
                    "duration": 0.11904750000000064
                },
                {
                    "name": "F4",
                    "midi": 65,
                    "time": 63.92850750000022,
                    "velocity": 0.33070866141732286,
                    "duration": 0.11904749999999353
                },
                {
                    "name": "A#4",
                    "midi": 70,
                    "time": 64.04755500000022,
                    "velocity": 0.3543307086614173,
                    "duration": 0.11904749999999353
                },
                {
                    "name": "G4",
                    "midi": 67,
                    "time": 64.16660250000021,
                    "velocity": 0.3779527559055118,
                    "duration": 0.11904749999999353
                },
                {
                    "name": "C5",
                    "midi": 72,
                    "time": 64.2856500000002,
                    "velocity": 0.4015748031496063,
                    "duration": 0.11904749999999353
                },
                {
                    "name": "A4",
                    "midi": 69,
                    "time": 64.4046975000002,
                    "velocity": 0.3779527559055118,
                    "duration": 0.11904749999999353
                },
                {
                    "name": "E4",
                    "midi": 64,
                    "time": 64.52374500000019,
                    "velocity": 0.36220472440944884,
                    "duration": 0.11904749999999353
                },
                {
                    "name": "F4",
                    "midi": 65,
                    "time": 64.64279250000018,
                    "velocity": 0.3464566929133858,
                    "duration": 0.11904749999999353
                },
                {
                    "name": "D5",
                    "midi": 74,
                    "time": 64.76184000000018,
                    "velocity": 0.44881889763779526,
                    "duration": 0.7142849999999612
                },
                {
                    "name": "A#4",
                    "midi": 70,
                    "time": 64.76184000000018,
                    "velocity": 0.3228346456692913,
                    "duration": 0.11904749999999353
                },
                {
                    "name": "F4",
                    "midi": 65,
                    "time": 64.88088750000017,
                    "velocity": 0.25984251968503935,
                    "duration": 0.11904749999999353
                },
                {
                    "name": "A#4",
                    "midi": 70,
                    "time": 64.99993500000016,
                    "velocity": 0.3228346456692913,
                    "duration": 0.11904749999999353
                },
                {
                    "name": "F4",
                    "midi": 65,
                    "time": 65.11898250000016,
                    "velocity": 0.2677165354330709,
                    "duration": 0.11904749999999353
                },
                {
                    "name": "A#4",
                    "midi": 70,
                    "time": 65.23803000000015,
                    "velocity": 0.3228346456692913,
                    "duration": 0.11904749999999353
                },
                {
                    "name": "F4",
                    "midi": 65,
                    "time": 65.35707750000014,
                    "velocity": 0.25984251968503935,
                    "duration": 0.11904749999999353
                },
                {
                    "name": "C5",
                    "midi": 72,
                    "time": 65.47612500000014,
                    "velocity": 0.33070866141732286,
                    "duration": 0.23809499999998707
                },
                {
                    "name": "A4",
                    "midi": 69,
                    "time": 65.47612500000014,
                    "velocity": 0.3228346456692913,
                    "duration": 0.11904749999999353
                },
                {
                    "name": "F4",
                    "midi": 65,
                    "time": 65.59517250000013,
                    "velocity": 0.2677165354330709,
                    "duration": 0.11904749999999353
                },
                {
                    "name": "A#4",
                    "midi": 70,
                    "time": 65.71422000000013,
                    "velocity": 0.3700787401574803,
                    "duration": 0.11904749999999353
                },
                {
                    "name": "D5",
                    "midi": 74,
                    "time": 65.71422000000013,
                    "velocity": 0.3700787401574803,
                    "duration": 0.23809499999998707
                },
                {
                    "name": "F4",
                    "midi": 65,
                    "time": 65.83326750000012,
                    "velocity": 0.31496062992125984,
                    "duration": 0.11904749999999353
                },
                {
                    "name": "E5",
                    "midi": 76,
                    "time": 65.95231500000011,
                    "velocity": 0.41732283464566927,
                    "duration": 0.23809499999998707
                },
                {
                    "name": "F4",
                    "midi": 65,
                    "time": 66.0713625000001,
                    "velocity": 0.3464566929133858,
                    "duration": 0.11904749999999353
                },
                {
                    "name": "F5",
                    "midi": 77,
                    "time": 66.1904100000001,
                    "velocity": 0.4409448818897638,
                    "duration": 0.23809499999998707
                },
                {
                    "name": "F4",
                    "midi": 65,
                    "time": 66.3094575000001,
                    "velocity": 0.36220472440944884,
                    "duration": 0.11904749999999353
                },
                {
                    "name": "D5",
                    "midi": 74,
                    "time": 66.42850500000009,
                    "velocity": 0.4015748031496063,
                    "duration": 0.23809499999998707
                },
                {
                    "name": "F4",
                    "midi": 65,
                    "time": 66.54755250000008,
                    "velocity": 0.2992125984251969,
                    "duration": 0.11904749999999353
                },
                {
                    "name": "C5",
                    "midi": 72,
                    "time": 66.66660000000007,
                    "velocity": 0.3858267716535433,
                    "duration": 0.23809499999998707
                },
                {
                    "name": "F4",
                    "midi": 65,
                    "time": 66.78564750000007,
                    "velocity": 0.2677165354330709,
                    "duration": 0.11904749999999353
                },
                {
                    "name": "A4",
                    "midi": 69,
                    "time": 66.90469500000006,
                    "velocity": 0.33070866141732286,
                    "duration": 0.23809499999998707
                },
                {
                    "name": "E4",
                    "midi": 64,
                    "time": 67.02374250000005,
                    "velocity": 0.2677165354330709,
                    "duration": 0.11904749999999353
                },
                {
                    "name": "F4",
                    "midi": 65,
                    "time": 67.14279000000005,
                    "velocity": 0.3858267716535433,
                    "duration": 0.23809500000000128
                },
                {
                    "name": "D4",
                    "midi": 62,
                    "time": 67.38088500000005,
                    "velocity": 0.33070866141732286,
                    "duration": 0.11904749999999353
                },
                {
                    "name": "A#4",
                    "midi": 70,
                    "time": 67.38088500000005,
                    "velocity": 0.33070866141732286,
                    "duration": 0.11904749999999353
                },
                {
                    "name": "A#3",
                    "midi": 58,
                    "time": 67.61898000000004,
                    "velocity": 0.3858267716535433,
                    "duration": 0.47619000000000256
                },
                {
                    "name": "E4",
                    "midi": 64,
                    "time": 67.61898000000004,
                    "velocity": 0.41732283464566927,
                    "duration": 0.47619000000000256
                },
                {
                    "name": "A3",
                    "midi": 57,
                    "time": 68.09517000000004,
                    "velocity": 0.3228346456692913,
                    "duration": 0.23809500000000128
                },
                {
                    "name": "F4",
                    "midi": 65,
                    "time": 68.09517000000004,
                    "velocity": 0.3543307086614173,
                    "duration": 0.23809500000000128
                },
                {
                    "name": "A#4",
                    "midi": 70,
                    "time": 68.57136000000004,
                    "velocity": 0.3700787401574803,
                    "duration": 0.11904749999999353
                },
                {
                    "name": "G4",
                    "midi": 67,
                    "time": 68.69040750000003,
                    "velocity": 0.31496062992125984,
                    "duration": 0.11904749999999353
                },
                {
                    "name": "A#4",
                    "midi": 70,
                    "time": 68.80945500000003,
                    "velocity": 0.3700787401574803,
                    "duration": 0.11904749999999353
                },
                {
                    "name": "G4",
                    "midi": 67,
                    "time": 68.92850250000002,
                    "velocity": 0.31496062992125984,
                    "duration": 0.11904749999999353
                },
                {
                    "name": "A#4",
                    "midi": 70,
                    "time": 69.04755000000002,
                    "velocity": 0.3700787401574803,
                    "duration": 0.11904749999999353
                },
                {
                    "name": "G4",
                    "midi": 67,
                    "time": 69.16659750000001,
                    "velocity": 0.3228346456692913,
                    "duration": 0.11904749999999353
                },
                {
                    "name": "A#4",
                    "midi": 70,
                    "time": 69.285645,
                    "velocity": 0.3700787401574803,
                    "duration": 0.11904749999999353
                },
                {
                    "name": "G4",
                    "midi": 67,
                    "time": 69.4046925,
                    "velocity": 0.33070866141732286,
                    "duration": 0.11904749999999353
                },
                {
                    "name": "A#4",
                    "midi": 70,
                    "time": 69.52373999999999,
                    "velocity": 0.3700787401574803,
                    "duration": 0.11904749999999353
                },
                {
                    "name": "G4",
                    "midi": 67,
                    "time": 69.64278749999998,
                    "velocity": 0.3228346456692913,
                    "duration": 0.11904749999999353
                },
                {
                    "name": "A#4",
                    "midi": 70,
                    "time": 69.76183499999998,
                    "velocity": 0.3700787401574803,
                    "duration": 0.11904749999999353
                },
                {
                    "name": "G4",
                    "midi": 67,
                    "time": 69.88088249999997,
                    "velocity": 0.33070866141732286,
                    "duration": 0.11904749999999353
                },
                {
                    "name": "A#4",
                    "midi": 70,
                    "time": 69.99992999999996,
                    "velocity": 0.3700787401574803,
                    "duration": 0.11904749999999353
                },
                {
                    "name": "G4",
                    "midi": 67,
                    "time": 70.11897749999996,
                    "velocity": 0.3228346456692913,
                    "duration": 0.11904749999999353
                },
                {
                    "name": "A#4",
                    "midi": 70,
                    "time": 70.23802499999995,
                    "velocity": 0.3700787401574803,
                    "duration": 0.11904749999999353
                },
                {
                    "name": "G4",
                    "midi": 67,
                    "time": 70.35707249999994,
                    "velocity": 0.33070866141732286,
                    "duration": 0.11904749999999353
                },
                {
                    "name": "G#4",
                    "midi": 68,
                    "time": 70.47611999999994,
                    "velocity": 0.3700787401574803,
                    "duration": 0.11904749999999353
                },
                {
                    "name": "F4",
                    "midi": 65,
                    "time": 70.59516749999993,
                    "velocity": 0.31496062992125984,
                    "duration": 0.11904749999999353
                },
                {
                    "name": "G#4",
                    "midi": 68,
                    "time": 70.71421499999992,
                    "velocity": 0.3700787401574803,
                    "duration": 0.11904749999999353
                },
                {
                    "name": "F4",
                    "midi": 65,
                    "time": 70.83326249999992,
                    "velocity": 0.31496062992125984,
                    "duration": 0.11904749999999353
                },
                {
                    "name": "G#4",
                    "midi": 68,
                    "time": 70.95230999999991,
                    "velocity": 0.3858267716535433,
                    "duration": 0.11904749999999353
                },
                {
                    "name": "F4",
                    "midi": 65,
                    "time": 71.0713574999999,
                    "velocity": 0.33858267716535434,
                    "duration": 0.11904749999999353
                },
                {
                    "name": "G#4",
                    "midi": 68,
                    "time": 71.1904049999999,
                    "velocity": 0.4094488188976378,
                    "duration": 0.11904749999999353
                },
                {
                    "name": "F4",
                    "midi": 65,
                    "time": 71.30945249999989,
                    "velocity": 0.3779527559055118,
                    "duration": 0.11904749999999353
                },
                {
                    "name": "G#4",
                    "midi": 68,
                    "time": 71.42849999999989,
                    "velocity": 0.44881889763779526,
                    "duration": 0.11904749999999353
                },
                {
                    "name": "F4",
                    "midi": 65,
                    "time": 71.54754749999988,
                    "velocity": 0.3858267716535433,
                    "duration": 0.11904749999999353
                },
                {
                    "name": "G#4",
                    "midi": 68,
                    "time": 71.66659499999987,
                    "velocity": 0.4251968503937008,
                    "duration": 0.11904749999999353
                },
                {
                    "name": "F4",
                    "midi": 65,
                    "time": 71.78564249999987,
                    "velocity": 0.33070866141732286,
                    "duration": 0.11904749999999353
                },
                {
                    "name": "G#4",
                    "midi": 68,
                    "time": 71.90468999999986,
                    "velocity": 0.3700787401574803,
                    "duration": 0.11904749999999353
                },
                {
                    "name": "F4",
                    "midi": 65,
                    "time": 72.02373749999985,
                    "velocity": 0.3228346456692913,
                    "duration": 0.11904749999999353
                },
                {
                    "name": "G#4",
                    "midi": 68,
                    "time": 72.14278499999985,
                    "velocity": 0.3700787401574803,
                    "duration": 0.11904749999999353
                },
                {
                    "name": "F4",
                    "midi": 65,
                    "time": 72.26183249999984,
                    "velocity": 0.29133858267716534,
                    "duration": 0.11904749999999353
                },
                {
                    "name": "F4",
                    "midi": 65,
                    "time": 72.38087999999983,
                    "velocity": 0.3543307086614173,
                    "duration": 0.7142849999999612
                },
                {
                    "name": "C#4",
                    "midi": 61,
                    "time": 72.38087999999983,
                    "velocity": 0.3228346456692913,
                    "duration": 0.11904749999999353
                },
                {
                    "name": "G#3",
                    "midi": 56,
                    "time": 72.49992749999983,
                    "velocity": 0.25984251968503935,
                    "duration": 0.11904749999999353
                },
                {
                    "name": "C#4",
                    "midi": 61,
                    "time": 72.61897499999982,
                    "velocity": 0.3228346456692913,
                    "duration": 0.11904749999999353
                },
                {
                    "name": "G#3",
                    "midi": 56,
                    "time": 72.73802249999981,
                    "velocity": 0.2677165354330709,
                    "duration": 0.11904749999999353
                },
                {
                    "name": "C#4",
                    "midi": 61,
                    "time": 72.85706999999981,
                    "velocity": 0.3228346456692913,
                    "duration": 0.11904749999999353
                },
                {
                    "name": "G#3",
                    "midi": 56,
                    "time": 72.9761174999998,
                    "velocity": 0.25984251968503935,
                    "duration": 0.11904749999999353
                },
                {
                    "name": "D#4",
                    "midi": 63,
                    "time": 73.0951649999998,
                    "velocity": 0.33070866141732286,
                    "duration": 0.23809499999998707
                },
                {
                    "name": "C4",
                    "midi": 60,
                    "time": 73.0951649999998,
                    "velocity": 0.3228346456692913,
                    "duration": 0.11904749999999353
                },
                {
                    "name": "G#3",
                    "midi": 56,
                    "time": 73.21421249999979,
                    "velocity": 0.2677165354330709,
                    "duration": 0.11904749999999353
                },
                {
                    "name": "C#4",
                    "midi": 61,
                    "time": 73.33325999999978,
                    "velocity": 0.3228346456692913,
                    "duration": 0.11904749999999353
                },
                {
                    "name": "F4",
                    "midi": 65,
                    "time": 73.33325999999978,
                    "velocity": 0.33070866141732286,
                    "duration": 0.23809499999998707
                },
                {
                    "name": "G#3",
                    "midi": 56,
                    "time": 73.45230749999978,
                    "velocity": 0.2677165354330709,
                    "duration": 0.11904749999999353
                },
                {
                    "name": "F#4",
                    "midi": 66,
                    "time": 73.57135499999977,
                    "velocity": 0.33070866141732286,
                    "duration": 0.23809499999998707
                },
                {
                    "name": "G#3",
                    "midi": 56,
                    "time": 73.69040249999976,
                    "velocity": 0.2677165354330709,
                    "duration": 0.11904749999999353
                },
                {
                    "name": "G#4",
                    "midi": 68,
                    "time": 73.80944999999976,
                    "velocity": 0.33070866141732286,
                    "duration": 0.23809499999998707
                },
                {
                    "name": "G#3",
                    "midi": 56,
                    "time": 73.92849749999975,
                    "velocity": 0.2677165354330709,
                    "duration": 0.11904749999999353
                },
                {
                    "name": "C4",
                    "midi": 60,
                    "time": 74.04754499999974,
                    "velocity": 0.3228346456692913,
                    "duration": 0.11904749999999353
                },
                {
                    "name": "D#4",
                    "midi": 63,
                    "time": 74.04754499999974,
                    "velocity": 0.33070866141732286,
                    "duration": 0.23809499999998707
                },
                {
                    "name": "G#3",
                    "midi": 56,
                    "time": 74.16659249999974,
                    "velocity": 0.2677165354330709,
                    "duration": 0.11904749999999353
                },
                {
                    "name": "F4",
                    "midi": 65,
                    "time": 74.28563999999973,
                    "velocity": 0.33070866141732286,
                    "duration": 0.23809499999998707
                },
                {
                    "name": "C#4",
                    "midi": 61,
                    "time": 74.40468749999972,
                    "velocity": 0.2677165354330709,
                    "duration": 0.11904749999999353
                },
                {
                    "name": "G4",
                    "midi": 67,
                    "time": 74.52373499999972,
                    "velocity": 0.36220472440944884,
                    "duration": 0.23809499999998707
                },
                {
                    "name": "E4",
                    "midi": 64,
                    "time": 74.64278249999971,
                    "velocity": 0.2992125984251969,
                    "duration": 0.11904749999999353
                },
                {
                    "name": "G#4",
                    "midi": 68,
                    "time": 74.7618299999997,
                    "velocity": 0.3779527559055118,
                    "duration": 0.23809499999998707
                },
                {
                    "name": "F4",
                    "midi": 65,
                    "time": 74.8808774999997,
                    "velocity": 0.31496062992125984,
                    "duration": 0.11904749999999353
                },
                {
                    "name": "A#4",
                    "midi": 70,
                    "time": 74.99992499999969,
                    "velocity": 0.41732283464566927,
                    "duration": 0.23809499999998707
                },
                {
                    "name": "F4",
                    "midi": 65,
                    "time": 75.11897249999969,
                    "velocity": 0.36220472440944884,
                    "duration": 0.11904749999999353
                },
                {
                    "name": "C5",
                    "midi": 72,
                    "time": 75.23801999999968,
                    "velocity": 0.4330708661417323,
                    "duration": 0.11904749999999353
                },
                {
                    "name": "E4",
                    "midi": 64,
                    "time": 75.35706749999967,
                    "velocity": 0.3464566929133858,
                    "duration": 0.11904749999999353
                },
                {
                    "name": "A#4",
                    "midi": 70,
                    "time": 75.47611499999967,
                    "velocity": 0.3937007874015748,
                    "duration": 0.11904749999999353
                },
                {
                    "name": "G4",
                    "midi": 67,
                    "time": 75.59516249999966,
                    "velocity": 0.33070866141732286,
                    "duration": 0.11904749999999353
                },
                {
                    "name": "E4",
                    "midi": 64,
                    "time": 75.71420999999965,
                    "velocity": 0.3700787401574803,
                    "duration": 0.11904749999999353
                },
                {
                    "name": "A4",
                    "midi": 69,
                    "time": 76.19039999999964,
                    "velocity": 0.29133858267716534,
                    "duration": 0.11904749999999353
                },
                {
                    "name": "F4",
                    "midi": 65,
                    "time": 76.30944749999964,
                    "velocity": 0.2125984251968504,
                    "duration": 0.11904749999999353
                },
                {
                    "name": "A4",
                    "midi": 69,
                    "time": 76.42849499999963,
                    "velocity": 0.31496062992125984,
                    "duration": 0.11904749999999353
                },
                {
                    "name": "F4",
                    "midi": 65,
                    "time": 76.54754249999962,
                    "velocity": 0.25196850393700787,
                    "duration": 0.11904749999999353
                },
                {
                    "name": "A4",
                    "midi": 69,
                    "time": 76.66658999999962,
                    "velocity": 0.3228346456692913,
                    "duration": 0.11904749999999353
                },
                {
                    "name": "F4",
                    "midi": 65,
                    "time": 76.78563749999961,
                    "velocity": 0.29133858267716534,
                    "duration": 0.11904749999999353
                },
                {
                    "name": "G4",
                    "midi": 67,
                    "time": 76.9046849999996,
                    "velocity": 0.3464566929133858,
                    "duration": 0.11904749999999353
                },
                {
                    "name": "E4",
                    "midi": 64,
                    "time": 77.0237324999996,
                    "velocity": 0.30708661417322836,
                    "duration": 0.11904749999999353
                },
                {
                    "name": "A4",
                    "midi": 69,
                    "time": 77.14277999999959,
                    "velocity": 0.3700787401574803,
                    "duration": 0.11904749999999353
                },
                {
                    "name": "F4",
                    "midi": 65,
                    "time": 77.26182749999958,
                    "velocity": 0.33070866141732286,
                    "duration": 0.11904749999999353
                },
                {
                    "name": "A#4",
                    "midi": 70,
                    "time": 77.38087499999958,
                    "velocity": 0.3543307086614173,
                    "duration": 0.11904749999999353
                },
                {
                    "name": "G4",
                    "midi": 67,
                    "time": 77.49992249999957,
                    "velocity": 0.3779527559055118,
                    "duration": 0.11904749999999353
                },
                {
                    "name": "C5",
                    "midi": 72,
                    "time": 77.61896999999956,
                    "velocity": 0.4015748031496063,
                    "duration": 0.11904749999999353
                },
                {
                    "name": "A4",
                    "midi": 69,
                    "time": 77.73801749999956,
                    "velocity": 0.3779527559055118,
                    "duration": 0.11904749999999353
                },
                {
                    "name": "G4",
                    "midi": 67,
                    "time": 77.85706499999955,
                    "velocity": 0.3464566929133858,
                    "duration": 0.11904749999999353
                },
                {
                    "name": "E4",
                    "midi": 64,
                    "time": 77.97611249999954,
                    "velocity": 0.33070866141732286,
                    "duration": 0.11904749999999353
                },
                {
                    "name": "A4",
                    "midi": 69,
                    "time": 78.09515999999954,
                    "velocity": 0.29133858267716534,
                    "duration": 0.11904749999999353
                },
                {
                    "name": "F4",
                    "midi": 65,
                    "time": 78.21420749999953,
                    "velocity": 0.25196850393700787,
                    "duration": 0.11904749999999353
                },
                {
                    "name": "A4",
                    "midi": 69,
                    "time": 78.33325499999953,
                    "velocity": 0.31496062992125984,
                    "duration": 0.11904749999999353
                },
                {
                    "name": "F4",
                    "midi": 65,
                    "time": 78.45230249999952,
                    "velocity": 0.2677165354330709,
                    "duration": 0.11904749999999353
                },
                {
                    "name": "A4",
                    "midi": 69,
                    "time": 78.57134999999951,
                    "velocity": 0.3228346456692913,
                    "duration": 0.11904749999999353
                },
                {
                    "name": "F4",
                    "midi": 65,
                    "time": 78.6903974999995,
                    "velocity": 0.29133858267716534,
                    "duration": 0.11904749999999353
                },
                {
                    "name": "G4",
                    "midi": 67,
                    "time": 78.8094449999995,
                    "velocity": 0.3464566929133858,
                    "duration": 0.11904749999999353
                },
                {
                    "name": "E4",
                    "midi": 64,
                    "time": 78.92849249999949,
                    "velocity": 0.30708661417322836,
                    "duration": 0.11904749999999353
                },
                {
                    "name": "A4",
                    "midi": 69,
                    "time": 79.04753999999949,
                    "velocity": 0.3700787401574803,
                    "duration": 0.11904749999999353
                },
                {
                    "name": "F4",
                    "midi": 65,
                    "time": 79.16658749999948,
                    "velocity": 0.33070866141732286,
                    "duration": 0.11904749999999353
                },
                {
                    "name": "A#4",
                    "midi": 70,
                    "time": 79.28563499999947,
                    "velocity": 0.3543307086614173,
                    "duration": 0.11904749999999353
                },
                {
                    "name": "G4",
                    "midi": 67,
                    "time": 79.40468249999947,
                    "velocity": 0.3779527559055118,
                    "duration": 0.11904749999999353
                },
                {
                    "name": "C5",
                    "midi": 72,
                    "time": 79.52372999999946,
                    "velocity": 0.4015748031496063,
                    "duration": 0.11904749999999353
                },
                {
                    "name": "A4",
                    "midi": 69,
                    "time": 79.64277749999945,
                    "velocity": 0.3779527559055118,
                    "duration": 0.11904749999999353
                },
                {
                    "name": "E4",
                    "midi": 64,
                    "time": 79.76182499999945,
                    "velocity": 0.36220472440944884,
                    "duration": 0.11904749999999353
                },
                {
                    "name": "F4",
                    "midi": 65,
                    "time": 79.88087249999944,
                    "velocity": 0.3464566929133858,
                    "duration": 0.11904749999999353
                },
                {
                    "name": "D5",
                    "midi": 74,
                    "time": 79.99991999999943,
                    "velocity": 0.44881889763779526,
                    "duration": 0.7142849999999612
                },
                {
                    "name": "A#4",
                    "midi": 70,
                    "time": 79.99991999999943,
                    "velocity": 0.3228346456692913,
                    "duration": 0.11904749999999353
                },
                {
                    "name": "F4",
                    "midi": 65,
                    "time": 80.11896749999943,
                    "velocity": 0.25984251968503935,
                    "duration": 0.11904749999999353
                },
                {
                    "name": "A#4",
                    "midi": 70,
                    "time": 80.23801499999942,
                    "velocity": 0.3228346456692913,
                    "duration": 0.11904749999999353
                },
                {
                    "name": "F4",
                    "midi": 65,
                    "time": 80.35706249999942,
                    "velocity": 0.2677165354330709,
                    "duration": 0.11904749999999353
                },
                {
                    "name": "A#4",
                    "midi": 70,
                    "time": 80.47610999999941,
                    "velocity": 0.3228346456692913,
                    "duration": 0.11904749999999353
                },
                {
                    "name": "F4",
                    "midi": 65,
                    "time": 80.5951574999994,
                    "velocity": 0.25984251968503935,
                    "duration": 0.11904749999999353
                },
                {
                    "name": "C5",
                    "midi": 72,
                    "time": 80.7142049999994,
                    "velocity": 0.33070866141732286,
                    "duration": 0.23809499999998707
                },
                {
                    "name": "A4",
                    "midi": 69,
                    "time": 80.7142049999994,
                    "velocity": 0.3228346456692913,
                    "duration": 0.11904749999999353
                },
                {
                    "name": "F4",
                    "midi": 65,
                    "time": 80.83325249999939,
                    "velocity": 0.2677165354330709,
                    "duration": 0.11904749999999353
                },
                {
                    "name": "A#4",
                    "midi": 70,
                    "time": 80.95229999999938,
                    "velocity": 0.3700787401574803,
                    "duration": 0.11904749999999353
                },
                {
                    "name": "D5",
                    "midi": 74,
                    "time": 80.95229999999938,
                    "velocity": 0.3700787401574803,
                    "duration": 0.23809499999998707
                },
                {
                    "name": "F4",
                    "midi": 65,
                    "time": 81.07134749999938,
                    "velocity": 0.31496062992125984,
                    "duration": 0.11904749999999353
                },
                {
                    "name": "E5",
                    "midi": 76,
                    "time": 81.19039499999937,
                    "velocity": 0.41732283464566927,
                    "duration": 0.23809499999998707
                },
                {
                    "name": "F4",
                    "midi": 65,
                    "time": 81.30944249999936,
                    "velocity": 0.3464566929133858,
                    "duration": 0.11904749999999353
                },
                {
                    "name": "F5",
                    "midi": 77,
                    "time": 81.42848999999936,
                    "velocity": 0.4409448818897638,
                    "duration": 0.23809499999998707
                },
                {
                    "name": "F4",
                    "midi": 65,
                    "time": 81.54753749999935,
                    "velocity": 0.36220472440944884,
                    "duration": 0.11904749999999353
                },
                {
                    "name": "D5",
                    "midi": 74,
                    "time": 81.66658499999934,
                    "velocity": 0.4015748031496063,
                    "duration": 0.23809499999998707
                },
                {
                    "name": "F4",
                    "midi": 65,
                    "time": 81.78563249999934,
                    "velocity": 0.2992125984251969,
                    "duration": 0.11904749999999353
                },
                {
                    "name": "C5",
                    "midi": 72,
                    "time": 81.90467999999933,
                    "velocity": 0.3858267716535433,
                    "duration": 0.23809499999998707
                },
                {
                    "name": "F4",
                    "midi": 65,
                    "time": 82.02372749999932,
                    "velocity": 0.2677165354330709,
                    "duration": 0.11904749999999353
                },
                {
                    "name": "A4",
                    "midi": 69,
                    "time": 82.14277499999932,
                    "velocity": 0.33070866141732286,
                    "duration": 0.23809499999998707
                },
                {
                    "name": "E4",
                    "midi": 64,
                    "time": 82.26182249999931,
                    "velocity": 0.2677165354330709,
                    "duration": 0.11904749999999353
                },
                {
                    "name": "F4",
                    "midi": 65,
                    "time": 82.3808699999993,
                    "velocity": 0.3858267716535433,
                    "duration": 0.23809500000000128
                },
                {
                    "name": "D4",
                    "midi": 62,
                    "time": 82.6189649999993,
                    "velocity": 0.33070866141732286,
                    "duration": 0.11904749999999353
                },
                {
                    "name": "A#4",
                    "midi": 70,
                    "time": 82.6189649999993,
                    "velocity": 0.33070866141732286,
                    "duration": 0.11904749999999353
                },
                {
                    "name": "A#3",
                    "midi": 58,
                    "time": 82.8570599999993,
                    "velocity": 0.3858267716535433,
                    "duration": 0.47619000000000256
                },
                {
                    "name": "E4",
                    "midi": 64,
                    "time": 82.8570599999993,
                    "velocity": 0.41732283464566927,
                    "duration": 0.47619000000000256
                },
                {
                    "name": "A3",
                    "midi": 57,
                    "time": 83.3332499999993,
                    "velocity": 0.3228346456692913,
                    "duration": 0.23809500000000128
                },
                {
                    "name": "F4",
                    "midi": 65,
                    "time": 83.3332499999993,
                    "velocity": 0.3543307086614173,
                    "duration": 0.23809500000000128
                },
                {
                    "name": "A2",
                    "midi": 45,
                    "time": 83.8094399999993,
                    "velocity": 0.6062992125984252,
                    "duration": 0.11904749999999353
                },
                {
                    "name": "B2",
                    "midi": 47,
                    "time": 83.92848749999929,
                    "velocity": 0.5433070866141733,
                    "duration": 0.11904749999999353
                },
                {
                    "name": "A2",
                    "midi": 45,
                    "time": 84.04753499999929,
                    "velocity": 0.5826771653543307,
                    "duration": 0.11904749999999353
                },
                {
                    "name": "B2",
                    "midi": 47,
                    "time": 84.16658249999928,
                    "velocity": 0.5433070866141733,
                    "duration": 0.11904749999999353
                },
                {
                    "name": "C3",
                    "midi": 48,
                    "time": 84.28562999999927,
                    "velocity": 0.6141732283464567,
                    "duration": 0.11904749999999353
                },
                {
                    "name": "B2",
                    "midi": 47,
                    "time": 84.40467749999927,
                    "velocity": 0.5433070866141733,
                    "duration": 0.11904749999999353
                },
                {
                    "name": "C3",
                    "midi": 48,
                    "time": 84.52372499999926,
                    "velocity": 0.6062992125984252,
                    "duration": 0.11904749999999353
                },
                {
                    "name": "B2",
                    "midi": 47,
                    "time": 84.64277249999925,
                    "velocity": 0.5433070866141733,
                    "duration": 0.11904749999999353
                },
                {
                    "name": "A2",
                    "midi": 45,
                    "time": 84.76181999999925,
                    "velocity": 0.6299212598425197,
                    "duration": 0.23809500000000128
                },
                {
                    "name": "B2",
                    "midi": 47,
                    "time": 84.99991499999925,
                    "velocity": 0.5433070866141733,
                    "duration": 0.11904749999999353
                },
                {
                    "name": "C3",
                    "midi": 48,
                    "time": 85.23800999999924,
                    "velocity": 0.6220472440944882,
                    "duration": 0.23809500000000128
                },
                {
                    "name": "E3",
                    "midi": 52,
                    "time": 85.47610499999924,
                    "velocity": 0.5433070866141733,
                    "duration": 0.11904749999999353
                },
                {
                    "name": "A3",
                    "midi": 57,
                    "time": 85.71419999999922,
                    "velocity": 0.6220472440944882,
                    "duration": 0.23809500000000128
                },
                {
                    "name": "B3",
                    "midi": 59,
                    "time": 85.95229499999922,
                    "velocity": 0.5433070866141733,
                    "duration": 0.11904749999999353
                },
                {
                    "name": "C4",
                    "midi": 60,
                    "time": 86.19038999999921,
                    "velocity": 0.6220472440944882,
                    "duration": 0.23809500000000128
                },
                {
                    "name": "E4",
                    "midi": 64,
                    "time": 86.42848499999921,
                    "velocity": 0.5433070866141733,
                    "duration": 0.11904749999999353
                },
                {
                    "name": "E4",
                    "midi": 64,
                    "time": 86.6665799999992,
                    "velocity": 0.4881889763779528,
                    "duration": 0.23809500000000128
                },
                {
                    "name": "G#4",
                    "midi": 68,
                    "time": 86.6665799999992,
                    "velocity": 0.4881889763779528,
                    "duration": 0.23809500000000128
                },
                {
                    "name": "B4",
                    "midi": 71,
                    "time": 86.6665799999992,
                    "velocity": 0.5826771653543307,
                    "duration": 0.23809500000000128
                },
                {
                    "name": "E4",
                    "midi": 64,
                    "time": 86.9046749999992,
                    "velocity": 0.4645669291338583,
                    "duration": 0.23809500000000128
                },
                {
                    "name": "G#4",
                    "midi": 68,
                    "time": 86.9046749999992,
                    "velocity": 0.4645669291338583,
                    "duration": 0.23809500000000128
                },
                {
                    "name": "B4",
                    "midi": 71,
                    "time": 86.9046749999992,
                    "velocity": 0.5511811023622047,
                    "duration": 0.23809500000000128
                },
                {
                    "name": "E4",
                    "midi": 64,
                    "time": 87.1427699999992,
                    "velocity": 0.5354330708661418,
                    "duration": 0.47619000000000256
                },
                {
                    "name": "A4",
                    "midi": 69,
                    "time": 87.1427699999992,
                    "velocity": 0.5354330708661418,
                    "duration": 0.47619000000000256
                },
                {
                    "name": "C5",
                    "midi": 72,
                    "time": 87.1427699999992,
                    "velocity": 0.6299212598425197,
                    "duration": 0.47619000000000256
                },
                {
                    "name": "A2",
                    "midi": 45,
                    "time": 87.6189599999992,
                    "velocity": 0.6062992125984252,
                    "duration": 0.11904749999999353
                },
                {
                    "name": "B2",
                    "midi": 47,
                    "time": 87.7380074999992,
                    "velocity": 0.5433070866141733,
                    "duration": 0.11904749999999353
                },
                {
                    "name": "A2",
                    "midi": 45,
                    "time": 87.85705499999919,
                    "velocity": 0.5826771653543307,
                    "duration": 0.11904749999999353
                },
                {
                    "name": "B2",
                    "midi": 47,
                    "time": 87.97610249999919,
                    "velocity": 0.5433070866141733,
                    "duration": 0.11904749999999353
                },
                {
                    "name": "C3",
                    "midi": 48,
                    "time": 88.09514999999918,
                    "velocity": 0.6141732283464567,
                    "duration": 0.11904749999999353
                },
                {
                    "name": "B2",
                    "midi": 47,
                    "time": 88.21419749999917,
                    "velocity": 0.5433070866141733,
                    "duration": 0.11904749999999353
                },
                {
                    "name": "C3",
                    "midi": 48,
                    "time": 88.33324499999917,
                    "velocity": 0.6062992125984252,
                    "duration": 0.11904749999999353
                },
                {
                    "name": "B2",
                    "midi": 47,
                    "time": 88.45229249999916,
                    "velocity": 0.5433070866141733,
                    "duration": 0.11904749999999353
                },
                {
                    "name": "A2",
                    "midi": 45,
                    "time": 88.57133999999915,
                    "velocity": 0.6299212598425197,
                    "duration": 0.23809500000000128
                },
                {
                    "name": "B2",
                    "midi": 47,
                    "time": 88.80943499999916,
                    "velocity": 0.5433070866141733,
                    "duration": 0.11904749999999353
                },
                {
                    "name": "C3",
                    "midi": 48,
                    "time": 89.04752999999914,
                    "velocity": 0.6220472440944882,
                    "duration": 0.23809500000000128
                },
                {
                    "name": "E3",
                    "midi": 52,
                    "time": 89.28562499999914,
                    "velocity": 0.5433070866141733,
                    "duration": 0.11904749999999353
                },
                {
                    "name": "A3",
                    "midi": 57,
                    "time": 89.52371999999913,
                    "velocity": 0.6220472440944882,
                    "duration": 0.23809500000000128
                },
                {
                    "name": "B3",
                    "midi": 59,
                    "time": 89.76181499999913,
                    "velocity": 0.5433070866141733,
                    "duration": 0.11904749999999353
                },
                {
                    "name": "C4",
                    "midi": 60,
                    "time": 89.99990999999912,
                    "velocity": 0.6220472440944882,
                    "duration": 0.23809500000000128
                },
                {
                    "name": "E4",
                    "midi": 64,
                    "time": 90.23800499999912,
                    "velocity": 0.5433070866141733,
                    "duration": 0.11904749999999353
                },
                {
                    "name": "E4",
                    "midi": 64,
                    "time": 90.47609999999911,
                    "velocity": 0.4881889763779528,
                    "duration": 0.23809500000000128
                },
                {
                    "name": "G#4",
                    "midi": 68,
                    "time": 90.47609999999911,
                    "velocity": 0.4881889763779528,
                    "duration": 0.23809500000000128
                },
                {
                    "name": "B4",
                    "midi": 71,
                    "time": 90.47609999999911,
                    "velocity": 0.5826771653543307,
                    "duration": 0.23809500000000128
                },
                {
                    "name": "E4",
                    "midi": 64,
                    "time": 90.71419499999911,
                    "velocity": 0.4645669291338583,
                    "duration": 0.23809500000000128
                },
                {
                    "name": "G#4",
                    "midi": 68,
                    "time": 90.71419499999911,
                    "velocity": 0.4645669291338583,
                    "duration": 0.23809500000000128
                },
                {
                    "name": "B4",
                    "midi": 71,
                    "time": 90.71419499999911,
                    "velocity": 0.5511811023622047,
                    "duration": 0.23809500000000128
                },
                {
                    "name": "A4",
                    "midi": 69,
                    "time": 90.95228999999911,
                    "velocity": 0.6456692913385826,
                    "duration": 0.47619000000000256
                },
                {
                    "name": "A#3",
                    "midi": 58,
                    "time": 91.42847999999911,
                    "velocity": 0.6062992125984252,
                    "duration": 0.11904749999999353
                },
                {
                    "name": "A3",
                    "midi": 57,
                    "time": 91.5475274999991,
                    "velocity": 0.5433070866141733,
                    "duration": 0.11904749999999353
                },
                {
                    "name": "A#3",
                    "midi": 58,
                    "time": 91.6665749999991,
                    "velocity": 0.5826771653543307,
                    "duration": 0.11904749999999353
                },
                {
                    "name": "A3",
                    "midi": 57,
                    "time": 91.78562249999909,
                    "velocity": 0.5433070866141733,
                    "duration": 0.11904749999999353
                },
                {
                    "name": "G3",
                    "midi": 55,
                    "time": 91.90466999999909,
                    "velocity": 0.6141732283464567,
                    "duration": 0.11904749999999353
                },
                {
                    "name": "A3",
                    "midi": 57,
                    "time": 92.02371749999908,
                    "velocity": 0.5433070866141733,
                    "duration": 0.11904749999999353
                },
                {
                    "name": "G3",
                    "midi": 55,
                    "time": 92.14276499999907,
                    "velocity": 0.6062992125984252,
                    "duration": 0.11904749999999353
                },
                {
                    "name": "A3",
                    "midi": 57,
                    "time": 92.26181249999907,
                    "velocity": 0.5433070866141733,
                    "duration": 0.11904749999999353
                },
                {
                    "name": "A#3",
                    "midi": 58,
                    "time": 92.38085999999906,
                    "velocity": 0.6299212598425197,
                    "duration": 0.23809500000000128
                },
                {
                    "name": "G3",
                    "midi": 55,
                    "time": 92.61895499999906,
                    "velocity": 0.5433070866141733,
                    "duration": 0.11904749999999353
                },
                {
                    "name": "G3",
                    "midi": 55,
                    "time": 92.85704999999905,
                    "velocity": 0.6220472440944882,
                    "duration": 0.23809500000000128
                },
                {
                    "name": "E3",
                    "midi": 52,
                    "time": 93.09514499999905,
                    "velocity": 0.5433070866141733,
                    "duration": 0.11904749999999353
                },
                {
                    "name": "G4",
                    "midi": 67,
                    "time": 93.33323999999904,
                    "velocity": 0.5275590551181102,
                    "duration": 0.23809500000000128
                },
                {
                    "name": "A#4",
                    "midi": 70,
                    "time": 93.33323999999904,
                    "velocity": 0.6220472440944882,
                    "duration": 0.23809500000000128
                },
                {
                    "name": "E4",
                    "midi": 64,
                    "time": 93.57133499999904,
                    "velocity": 0.4566929133858268,
                    "duration": 0.11904749999999353
                },
                {
                    "name": "G4",
                    "midi": 67,
                    "time": 93.57133499999904,
                    "velocity": 0.5433070866141733,
                    "duration": 0.11904749999999353
                },
                {
                    "name": "E4",
                    "midi": 64,
                    "time": 93.80942999999903,
                    "velocity": 0.5275590551181102,
                    "duration": 0.23809500000000128
                },
                {
                    "name": "G4",
                    "midi": 67,
                    "time": 93.80942999999903,
                    "velocity": 0.6220472440944882,
                    "duration": 0.23809500000000128
                },
                {
                    "name": "E4",
                    "midi": 64,
                    "time": 94.04752499999903,
                    "velocity": 0.5433070866141733,
                    "duration": 0.11904749999999353
                },
                {
                    "name": "C#4",
                    "midi": 61,
                    "time": 94.04752499999903,
                    "velocity": 0.4566929133858268,
                    "duration": 0.11904749999999353
                },
                {
                    "name": "E4",
                    "midi": 64,
                    "time": 94.28561999999901,
                    "velocity": 0.5826771653543307,
                    "duration": 0.23809500000000128
                },
                {
                    "name": "C#4",
                    "midi": 61,
                    "time": 94.28561999999901,
                    "velocity": 0.4881889763779528,
                    "duration": 0.23809500000000128
                },
                {
                    "name": "A3",
                    "midi": 57,
                    "time": 94.28561999999901,
                    "velocity": 0.4881889763779528,
                    "duration": 0.23809500000000128
                },
                {
                    "name": "E4",
                    "midi": 64,
                    "time": 94.52371499999902,
                    "velocity": 0.5511811023622047,
                    "duration": 0.23809500000000128
                },
                {
                    "name": "C#4",
                    "midi": 61,
                    "time": 94.52371499999902,
                    "velocity": 0.4645669291338583,
                    "duration": 0.23809500000000128
                },
                {
                    "name": "A3",
                    "midi": 57,
                    "time": 94.52371499999902,
                    "velocity": 0.4645669291338583,
                    "duration": 0.23809500000000128
                },
                {
                    "name": "F4",
                    "midi": 65,
                    "time": 94.76180999999902,
                    "velocity": 0.6299212598425197,
                    "duration": 0.47619000000000256
                },
                {
                    "name": "D4",
                    "midi": 62,
                    "time": 94.76180999999902,
                    "velocity": 0.5354330708661418,
                    "duration": 0.47619000000000256
                },
                {
                    "name": "A3",
                    "midi": 57,
                    "time": 94.76180999999902,
                    "velocity": 0.5354330708661418,
                    "duration": 0.47619000000000256
                },
                {
                    "name": "C4",
                    "midi": 60,
                    "time": 95.23799999999902,
                    "velocity": 0.6062992125984252,
                    "duration": 0.11904749999999353
                },
                {
                    "name": "B3",
                    "midi": 59,
                    "time": 95.35704749999901,
                    "velocity": 0.5433070866141733,
                    "duration": 0.11904749999999353
                },
                {
                    "name": "C4",
                    "midi": 60,
                    "time": 95.476094999999,
                    "velocity": 0.5826771653543307,
                    "duration": 0.11904749999999353
                },
                {
                    "name": "B3",
                    "midi": 59,
                    "time": 95.595142499999,
                    "velocity": 0.5433070866141733,
                    "duration": 0.11904749999999353
                },
                {
                    "name": "A3",
                    "midi": 57,
                    "time": 95.714189999999,
                    "velocity": 0.6141732283464567,
                    "duration": 0.11904749999999353
                },
                {
                    "name": "B3",
                    "midi": 59,
                    "time": 95.83323749999899,
                    "velocity": 0.5433070866141733,
                    "duration": 0.11904749999999353
                },
                {
                    "name": "A3",
                    "midi": 57,
                    "time": 95.95228499999898,
                    "velocity": 0.6062992125984252,
                    "duration": 0.11904749999999353
                },
                {
                    "name": "B3",
                    "midi": 59,
                    "time": 96.07133249999897,
                    "velocity": 0.5433070866141733,
                    "duration": 0.11904749999999353
                },
                {
                    "name": "C4",
                    "midi": 60,
                    "time": 96.19037999999897,
                    "velocity": 0.6299212598425197,
                    "duration": 0.23809500000000128
                },
                {
                    "name": "A3",
                    "midi": 57,
                    "time": 96.42847499999897,
                    "velocity": 0.5433070866141733,
                    "duration": 0.11904749999999353
                },
                {
                    "name": "A3",
                    "midi": 57,
                    "time": 96.66656999999896,
                    "velocity": 0.6220472440944882,
                    "duration": 0.23809500000000128
                },
                {
                    "name": "F#3",
                    "midi": 54,
                    "time": 96.90466499999896,
                    "velocity": 0.5433070866141733,
                    "duration": 0.11904749999999353
                },
                {
                    "name": "A4",
                    "midi": 69,
                    "time": 97.14275999999894,
                    "velocity": 0.5275590551181102,
                    "duration": 0.23809500000000128
                },
                {
                    "name": "C5",
                    "midi": 72,
                    "time": 97.14275999999894,
                    "velocity": 0.6220472440944882,
                    "duration": 0.23809500000000128
                },
                {
                    "name": "F#4",
                    "midi": 66,
                    "time": 97.38085499999895,
                    "velocity": 0.4566929133858268,
                    "duration": 0.11904749999999353
                },
                {
                    "name": "A4",
                    "midi": 69,
                    "time": 97.38085499999895,
                    "velocity": 0.5433070866141733,
                    "duration": 0.11904749999999353
                },
                {
                    "name": "F#4",
                    "midi": 66,
                    "time": 97.61894999999893,
                    "velocity": 0.5275590551181102,
                    "duration": 0.23809500000000128
                },
                {
                    "name": "A4",
                    "midi": 69,
                    "time": 97.61894999999893,
                    "velocity": 0.6220472440944882,
                    "duration": 0.23809500000000128
                },
                {
                    "name": "F#4",
                    "midi": 66,
                    "time": 97.85704499999893,
                    "velocity": 0.5433070866141733,
                    "duration": 0.11904749999999353
                },
                {
                    "name": "D#4",
                    "midi": 63,
                    "time": 97.85704499999893,
                    "velocity": 0.4566929133858268,
                    "duration": 0.11904749999999353
                },
                {
                    "name": "F#4",
                    "midi": 66,
                    "time": 98.09513999999892,
                    "velocity": 0.5826771653543307,
                    "duration": 0.23809500000000128
                },
                {
                    "name": "D#4",
                    "midi": 63,
                    "time": 98.09513999999892,
                    "velocity": 0.5826771653543307,
                    "duration": 0.23809500000000128
                },
                {
                    "name": "F#4",
                    "midi": 66,
                    "time": 98.33323499999892,
                    "velocity": 0.5511811023622047,
                    "duration": 0.23809500000000128
                },
                {
                    "name": "D#4",
                    "midi": 63,
                    "time": 98.33323499999892,
                    "velocity": 0.5511811023622047,
                    "duration": 0.23809500000000128
                },
                {
                    "name": "G#4",
                    "midi": 68,
                    "time": 98.57132999999892,
                    "velocity": 0.6299212598425197,
                    "duration": 0.47619000000000256
                },
                {
                    "name": "E4",
                    "midi": 64,
                    "time": 98.57132999999892,
                    "velocity": 0.5354330708661418,
                    "duration": 0.47619000000000256
                },
                {
                    "name": "B3",
                    "midi": 59,
                    "time": 98.57132999999892,
                    "velocity": 0.5354330708661418,
                    "duration": 0.47619000000000256
                },
                {
                    "name": "A3",
                    "midi": 57,
                    "time": 99.04751999999893,
                    "velocity": 0.6614173228346457,
                    "duration": 0.11904749999999353
                },
                {
                    "name": "B3",
                    "midi": 59,
                    "time": 99.16656749999892,
                    "velocity": 0.5905511811023622,
                    "duration": 0.11904749999999353
                },
                {
                    "name": "A3",
                    "midi": 57,
                    "time": 99.28561499999891,
                    "velocity": 0.6377952755905512,
                    "duration": 0.11904749999999353
                },
                {
                    "name": "B3",
                    "midi": 59,
                    "time": 99.4046624999989,
                    "velocity": 0.5905511811023622,
                    "duration": 0.11904749999999353
                },
                {
                    "name": "C4",
                    "midi": 60,
                    "time": 99.5237099999989,
                    "velocity": 0.6692913385826772,
                    "duration": 0.11904749999999353
                },
                {
                    "name": "B3",
                    "midi": 59,
                    "time": 99.6427574999989,
                    "velocity": 0.5905511811023622,
                    "duration": 0.11904749999999353
                },
                {
                    "name": "C4",
                    "midi": 60,
                    "time": 99.76180499999889,
                    "velocity": 0.6614173228346457,
                    "duration": 0.11904749999999353
                },
                {
                    "name": "B3",
                    "midi": 59,
                    "time": 99.88085249999888,
                    "velocity": 0.5905511811023622,
                    "duration": 0.11904749999999353
                },
                {
                    "name": "A3",
                    "midi": 57,
                    "time": 99.99989999999887,
                    "velocity": 0.6929133858267716,
                    "duration": 0.23809500000000128
                },
                {
                    "name": "B3",
                    "midi": 59,
                    "time": 100.23799499999888,
                    "velocity": 0.5905511811023622,
                    "duration": 0.11904749999999353
                },
                {
                    "name": "C4",
                    "midi": 60,
                    "time": 100.47608999999886,
                    "velocity": 0.6771653543307087,
                    "duration": 0.23809500000000128
                },
                {
                    "name": "E4",
                    "midi": 64,
                    "time": 100.71418499999886,
                    "velocity": 0.5905511811023622,
                    "duration": 0.11904749999999353
                },
                {
                    "name": "A4",
                    "midi": 69,
                    "time": 100.95227999999885,
                    "velocity": 0.6771653543307087,
                    "duration": 0.23809500000000128
                },
                {
                    "name": "B4",
                    "midi": 71,
                    "time": 101.19037499999885,
                    "velocity": 0.5905511811023622,
                    "duration": 0.11904749999999353
                },
                {
                    "name": "C5",
                    "midi": 72,
                    "time": 101.42846999999884,
                    "velocity": 0.6771653543307087,
                    "duration": 0.23809500000000128
                },
                {
                    "name": "E5",
                    "midi": 76,
                    "time": 101.66656499999884,
                    "velocity": 0.5905511811023622,
                    "duration": 0.11904749999999353
                },
                {
                    "name": "E4",
                    "midi": 64,
                    "time": 101.90465999999883,
                    "velocity": 0.5748031496062992,
                    "duration": 0.23809500000000128
                },
                {
                    "name": "G#4",
                    "midi": 68,
                    "time": 101.90465999999883,
                    "velocity": 0.5748031496062992,
                    "duration": 0.23809500000000128
                },
                {
                    "name": "B4",
                    "midi": 71,
                    "time": 101.90465999999883,
                    "velocity": 0.6771653543307087,
                    "duration": 0.23809500000000128
                },
                {
                    "name": "E4",
                    "midi": 64,
                    "time": 102.14275499999883,
                    "velocity": 0.5354330708661418,
                    "duration": 0.23809500000000128
                },
                {
                    "name": "G#4",
                    "midi": 68,
                    "time": 102.14275499999883,
                    "velocity": 0.5354330708661418,
                    "duration": 0.23809500000000128
                },
                {
                    "name": "B4",
                    "midi": 71,
                    "time": 102.14275499999883,
                    "velocity": 0.6377952755905512,
                    "duration": 0.23809500000000128
                },
                {
                    "name": "E4",
                    "midi": 64,
                    "time": 102.38084999999883,
                    "velocity": 0.5354330708661418,
                    "duration": 0.23809500000000128
                },
                {
                    "name": "A4",
                    "midi": 69,
                    "time": 102.38084999999883,
                    "velocity": 0.5354330708661418,
                    "duration": 0.23809500000000128
                },
                {
                    "name": "C5",
                    "midi": 72,
                    "time": 102.38084999999883,
                    "velocity": 0.6377952755905512,
                    "duration": 0.23809500000000128
                },
                {
                    "name": "E4",
                    "midi": 64,
                    "time": 102.61894499999883,
                    "velocity": 0.5669291338582677,
                    "duration": 0.23809500000000128
                },
                {
                    "name": "G4",
                    "midi": 67,
                    "time": 102.61894499999883,
                    "velocity": 0.5669291338582677,
                    "duration": 0.23809500000000128
                },
                {
                    "name": "A4",
                    "midi": 69,
                    "time": 102.61894499999883,
                    "velocity": 0.5669291338582677,
                    "duration": 0.23809500000000128
                },
                {
                    "name": "C#5",
                    "midi": 73,
                    "time": 102.61894499999883,
                    "velocity": 0.6692913385826772,
                    "duration": 0.23809500000000128
                },
                {
                    "name": "F4",
                    "midi": 65,
                    "time": 102.85703999999883,
                    "velocity": 0.6062992125984252,
                    "duration": 0.47619000000000256
                },
                {
                    "name": "A4",
                    "midi": 69,
                    "time": 102.85703999999883,
                    "velocity": 0.6062992125984252,
                    "duration": 0.47619000000000256
                },
                {
                    "name": "D5",
                    "midi": 74,
                    "time": 102.85703999999883,
                    "velocity": 0.7165354330708661,
                    "duration": 0.47619000000000256
                },
                {
                    "name": "F4",
                    "midi": 65,
                    "time": 103.33322999999884,
                    "velocity": 0.6377952755905512,
                    "duration": 0.11904749999999353
                },
                {
                    "name": "E4",
                    "midi": 64,
                    "time": 103.45227749999883,
                    "velocity": 0.5669291338582677,
                    "duration": 0.11904749999999353
                },
                {
                    "name": "F4",
                    "midi": 65,
                    "time": 103.57132499999882,
                    "velocity": 0.6299212598425197,
                    "duration": 0.11904749999999353
                },
                {
                    "name": "E4",
                    "midi": 64,
                    "time": 103.69037249999882,
                    "velocity": 0.5669291338582677,
                    "duration": 0.11904749999999353
                },
                {
                    "name": "D4",
                    "midi": 62,
                    "time": 103.80941999999881,
                    "velocity": 0.6614173228346457,
                    "duration": 0.23809500000000128
                },
                {
                    "name": "E4",
                    "midi": 64,
                    "time": 104.04751499999881,
                    "velocity": 0.5669291338582677,
                    "duration": 0.11904749999999353
                },
                {
                    "name": "F4",
                    "midi": 65,
                    "time": 104.2856099999988,
                    "velocity": 0.6456692913385826,
                    "duration": 0.23809500000000128
                },
                {
                    "name": "A4",
                    "midi": 69,
                    "time": 104.5237049999988,
                    "velocity": 0.5669291338582677,
                    "duration": 0.11904749999999353
                },
                {
                    "name": "D5",
                    "midi": 74,
                    "time": 104.76179999999879,
                    "velocity": 0.6456692913385826,
                    "duration": 0.23809500000000128
                },
                {
                    "name": "E5",
                    "midi": 76,
                    "time": 104.99989499999879,
                    "velocity": 0.5669291338582677,
                    "duration": 0.11904749999999353
                },
                {
                    "name": "F5",
                    "midi": 77,
                    "time": 105.23798999999877,
                    "velocity": 0.6456692913385826,
                    "duration": 0.23809500000000128
                },
                {
                    "name": "A5",
                    "midi": 81,
                    "time": 105.47608499999878,
                    "velocity": 0.5669291338582677,
                    "duration": 0.11904749999999353
                },
                {
                    "name": "B4",
                    "midi": 71,
                    "time": 105.71417999999876,
                    "velocity": 0.5590551181102362,
                    "duration": 0.23809500000000128
                },
                {
                    "name": "E5",
                    "midi": 76,
                    "time": 105.71417999999876,
                    "velocity": 0.5590551181102362,
                    "duration": 0.23809500000000128
                },
                {
                    "name": "G#5",
                    "midi": 80,
                    "time": 105.71417999999876,
                    "velocity": 0.6692913385826772,
                    "duration": 0.23809500000000128
                },
                {
                    "name": "B4",
                    "midi": 71,
                    "time": 105.95227499999876,
                    "velocity": 0.5275590551181102,
                    "duration": 0.23809500000000128
                },
                {
                    "name": "E5",
                    "midi": 76,
                    "time": 105.95227499999876,
                    "velocity": 0.5275590551181102,
                    "duration": 0.23809500000000128
                },
                {
                    "name": "G#5",
                    "midi": 80,
                    "time": 105.95227499999876,
                    "velocity": 0.6299212598425197,
                    "duration": 0.23809500000000128
                },
                {
                    "name": "C5",
                    "midi": 72,
                    "time": 106.19036999999877,
                    "velocity": 0.6062992125984252,
                    "duration": 0.47619000000000256
                },
                {
                    "name": "E5",
                    "midi": 76,
                    "time": 106.19036999999877,
                    "velocity": 0.6062992125984252,
                    "duration": 0.47619000000000256
                },
                {
                    "name": "A5",
                    "midi": 81,
                    "time": 106.19036999999877,
                    "velocity": 0.7244094488188977,
                    "duration": 0.47619000000000256
                }
            ],
            "controlChanges": {},
            "id": 1,
            "name": "Piano right",
            "instrumentNumber": 0,
            "instrument": "acoustic grand piano",
            "instrumentFamily": "piano",
            "channelNumber": 0,
            "isPercussion": false
        },
        {
            "startTime": 0,
            "duration": 106.66655999999942,
            "length": 573,
            "notes": [
                {
                    "name": "A1",
                    "midi": 33,
                    "time": 0,
                    "velocity": 0.5275590551181102,
                    "duration": 0.1190475
                },
                {
                    "name": "B1",
                    "midi": 35,
                    "time": 0.1190475,
                    "velocity": 0.47244094488188976,
                    "duration": 0.1190475
                },
                {
                    "name": "A1",
                    "midi": 33,
                    "time": 0.238095,
                    "velocity": 0.5118110236220472,
                    "duration": 0.11904750000000003
                },
                {
                    "name": "B1",
                    "midi": 35,
                    "time": 0.35714250000000003,
                    "velocity": 0.47244094488188976,
                    "duration": 0.11904749999999997
                },
                {
                    "name": "C2",
                    "midi": 36,
                    "time": 0.47619,
                    "velocity": 0.5354330708661418,
                    "duration": 0.11904749999999997
                },
                {
                    "name": "B1",
                    "midi": 35,
                    "time": 0.5952375,
                    "velocity": 0.47244094488188976,
                    "duration": 0.11904749999999997
                },
                {
                    "name": "C2",
                    "midi": 36,
                    "time": 0.714285,
                    "velocity": 0.5275590551181102,
                    "duration": 0.11904749999999997
                },
                {
                    "name": "B1",
                    "midi": 35,
                    "time": 0.8333324999999999,
                    "velocity": 0.47244094488188976,
                    "duration": 0.11904749999999997
                },
                {
                    "name": "A1",
                    "midi": 33,
                    "time": 0.9523799999999999,
                    "velocity": 0.5511811023622047,
                    "duration": 0.23809500000000006
                },
                {
                    "name": "B1",
                    "midi": 35,
                    "time": 1.190475,
                    "velocity": 0.47244094488188976,
                    "duration": 0.11904749999999997
                },
                {
                    "name": "C2",
                    "midi": 36,
                    "time": 1.42857,
                    "velocity": 0.5433070866141733,
                    "duration": 0.23809499999999995
                },
                {
                    "name": "E2",
                    "midi": 40,
                    "time": 1.6666649999999998,
                    "velocity": 0.47244094488188976,
                    "duration": 0.11904749999999997
                },
                {
                    "name": "A2",
                    "midi": 45,
                    "time": 1.9047599999999998,
                    "velocity": 0.5433070866141733,
                    "duration": 0.23809500000000017
                },
                {
                    "name": "B2",
                    "midi": 47,
                    "time": 2.142855,
                    "velocity": 0.47244094488188976,
                    "duration": 0.1190475000000002
                },
                {
                    "name": "C3",
                    "midi": 48,
                    "time": 2.3809500000000003,
                    "velocity": 0.5433070866141733,
                    "duration": 0.23809499999999995
                },
                {
                    "name": "E3",
                    "midi": 52,
                    "time": 2.6190450000000003,
                    "velocity": 0.47244094488188976,
                    "duration": 0.1190475000000002
                },
                {
                    "name": "E3",
                    "midi": 52,
                    "time": 2.8571400000000007,
                    "velocity": 0.5275590551181102,
                    "duration": 0.22619025000000015
                },
                {
                    "name": "E3",
                    "midi": 52,
                    "time": 3.0952350000000006,
                    "velocity": 0.47244094488188976,
                    "duration": 0.22619025000000015
                },
                {
                    "name": "A3",
                    "midi": 57,
                    "time": 3.3333300000000006,
                    "velocity": 0.5511811023622047,
                    "duration": 0.4761899999999999
                },
                {
                    "name": "A1",
                    "midi": 33,
                    "time": 3.8095200000000005,
                    "velocity": 0.5275590551181102,
                    "duration": 0.1190475000000002
                },
                {
                    "name": "B1",
                    "midi": 35,
                    "time": 3.9285675000000007,
                    "velocity": 0.47244094488188976,
                    "duration": 0.11904749999999975
                },
                {
                    "name": "A1",
                    "midi": 33,
                    "time": 4.047615,
                    "velocity": 0.5118110236220472,
                    "duration": 0.11904749999999975
                },
                {
                    "name": "B1",
                    "midi": 35,
                    "time": 4.1666625,
                    "velocity": 0.47244094488188976,
                    "duration": 0.11904749999999975
                },
                {
                    "name": "C2",
                    "midi": 36,
                    "time": 4.28571,
                    "velocity": 0.5354330708661418,
                    "duration": 0.11904749999999975
                },
                {
                    "name": "B1",
                    "midi": 35,
                    "time": 4.4047575,
                    "velocity": 0.47244094488188976,
                    "duration": 0.11904749999999975
                },
                {
                    "name": "C2",
                    "midi": 36,
                    "time": 4.523804999999999,
                    "velocity": 0.5275590551181102,
                    "duration": 0.11904749999999975
                },
                {
                    "name": "B1",
                    "midi": 35,
                    "time": 4.642852499999999,
                    "velocity": 0.47244094488188976,
                    "duration": 0.11904749999999975
                },
                {
                    "name": "A1",
                    "midi": 33,
                    "time": 4.761899999999999,
                    "velocity": 0.5511811023622047,
                    "duration": 0.2380950000000004
                },
                {
                    "name": "B1",
                    "midi": 35,
                    "time": 4.999994999999999,
                    "velocity": 0.47244094488188976,
                    "duration": 0.11904749999999975
                },
                {
                    "name": "C2",
                    "midi": 36,
                    "time": 5.238089999999999,
                    "velocity": 0.5433070866141733,
                    "duration": 0.2380950000000004
                },
                {
                    "name": "E2",
                    "midi": 40,
                    "time": 5.476184999999999,
                    "velocity": 0.47244094488188976,
                    "duration": 0.11904749999999975
                },
                {
                    "name": "A2",
                    "midi": 45,
                    "time": 5.714279999999999,
                    "velocity": 0.5433070866141733,
                    "duration": 0.2380950000000004
                },
                {
                    "name": "B2",
                    "midi": 47,
                    "time": 5.952374999999999,
                    "velocity": 0.47244094488188976,
                    "duration": 0.11904749999999975
                },
                {
                    "name": "C3",
                    "midi": 48,
                    "time": 6.190469999999999,
                    "velocity": 0.5433070866141733,
                    "duration": 0.2380950000000004
                },
                {
                    "name": "E3",
                    "midi": 52,
                    "time": 6.428564999999999,
                    "velocity": 0.47244094488188976,
                    "duration": 0.11904749999999975
                },
                {
                    "name": "E3",
                    "midi": 52,
                    "time": 6.6666599999999985,
                    "velocity": 0.5275590551181102,
                    "duration": 0.22619025000000015
                },
                {
                    "name": "E3",
                    "midi": 52,
                    "time": 6.904754999999999,
                    "velocity": 0.47244094488188976,
                    "duration": 0.22619025000000015
                },
                {
                    "name": "A3",
                    "midi": 57,
                    "time": 7.142849999999999,
                    "velocity": 0.5511811023622047,
                    "duration": 0.4761899999999999
                },
                {
                    "name": "A#2",
                    "midi": 46,
                    "time": 7.619039999999999,
                    "velocity": 0.5275590551181102,
                    "duration": 0.11904749999999975
                },
                {
                    "name": "A2",
                    "midi": 45,
                    "time": 7.738087499999999,
                    "velocity": 0.47244094488188976,
                    "duration": 0.11904749999999975
                },
                {
                    "name": "A#2",
                    "midi": 46,
                    "time": 7.857134999999999,
                    "velocity": 0.5118110236220472,
                    "duration": 0.11904749999999975
                },
                {
                    "name": "A2",
                    "midi": 45,
                    "time": 7.976182499999998,
                    "velocity": 0.47244094488188976,
                    "duration": 0.11904750000000064
                },
                {
                    "name": "G2",
                    "midi": 43,
                    "time": 8.095229999999999,
                    "velocity": 0.5354330708661418,
                    "duration": 0.11904750000000064
                },
                {
                    "name": "A2",
                    "midi": 45,
                    "time": 8.2142775,
                    "velocity": 0.47244094488188976,
                    "duration": 0.11904750000000064
                },
                {
                    "name": "G2",
                    "midi": 43,
                    "time": 8.333325,
                    "velocity": 0.5275590551181102,
                    "duration": 0.11904750000000064
                },
                {
                    "name": "A2",
                    "midi": 45,
                    "time": 8.452372500000001,
                    "velocity": 0.47244094488188976,
                    "duration": 0.11904750000000064
                },
                {
                    "name": "A#2",
                    "midi": 46,
                    "time": 8.571420000000002,
                    "velocity": 0.5511811023622047,
                    "duration": 0.2380949999999995
                },
                {
                    "name": "G2",
                    "midi": 43,
                    "time": 8.809515000000001,
                    "velocity": 0.47244094488188976,
                    "duration": 0.11904750000000064
                },
                {
                    "name": "G2",
                    "midi": 43,
                    "time": 9.047610000000002,
                    "velocity": 0.5433070866141733,
                    "duration": 0.2380949999999995
                },
                {
                    "name": "E2",
                    "midi": 40,
                    "time": 9.285705000000002,
                    "velocity": 0.47244094488188976,
                    "duration": 0.11904750000000064
                },
                {
                    "name": "C#2",
                    "midi": 37,
                    "time": 9.523800000000003,
                    "velocity": 0.5433070866141733,
                    "duration": 0.2380949999999995
                },
                {
                    "name": "E2",
                    "midi": 40,
                    "time": 9.761895000000003,
                    "velocity": 0.47244094488188976,
                    "duration": 0.11904750000000064
                },
                {
                    "name": "E2",
                    "midi": 40,
                    "time": 9.999990000000004,
                    "velocity": 0.5433070866141733,
                    "duration": 0.2380949999999995
                },
                {
                    "name": "G2",
                    "midi": 43,
                    "time": 10.238085000000003,
                    "velocity": 0.47244094488188976,
                    "duration": 0.11904750000000064
                },
                {
                    "name": "A2",
                    "midi": 45,
                    "time": 10.476180000000005,
                    "velocity": 0.5275590551181102,
                    "duration": 0.22619025000000015
                },
                {
                    "name": "A2",
                    "midi": 45,
                    "time": 10.714275000000004,
                    "velocity": 0.47244094488188976,
                    "duration": 0.22619025000000015
                },
                {
                    "name": "D3",
                    "midi": 50,
                    "time": 10.952370000000004,
                    "velocity": 0.5511811023622047,
                    "duration": 0.4761900000000008
                },
                {
                    "name": "C3",
                    "midi": 48,
                    "time": 11.428560000000004,
                    "velocity": 0.5275590551181102,
                    "duration": 0.11904750000000064
                },
                {
                    "name": "B2",
                    "midi": 47,
                    "time": 11.547607500000005,
                    "velocity": 0.47244094488188976,
                    "duration": 0.11904750000000064
                },
                {
                    "name": "C3",
                    "midi": 48,
                    "time": 11.666655000000006,
                    "velocity": 0.5118110236220472,
                    "duration": 0.11904750000000064
                },
                {
                    "name": "B2",
                    "midi": 47,
                    "time": 11.785702500000006,
                    "velocity": 0.47244094488188976,
                    "duration": 0.11904750000000064
                },
                {
                    "name": "A2",
                    "midi": 45,
                    "time": 11.904750000000007,
                    "velocity": 0.5354330708661418,
                    "duration": 0.11904750000000064
                },
                {
                    "name": "B2",
                    "midi": 47,
                    "time": 12.023797500000008,
                    "velocity": 0.47244094488188976,
                    "duration": 0.11904750000000064
                },
                {
                    "name": "A2",
                    "midi": 45,
                    "time": 12.142845000000008,
                    "velocity": 0.5275590551181102,
                    "duration": 0.11904750000000064
                },
                {
                    "name": "B2",
                    "midi": 47,
                    "time": 12.261892500000009,
                    "velocity": 0.47244094488188976,
                    "duration": 0.11904750000000064
                },
                {
                    "name": "C3",
                    "midi": 48,
                    "time": 12.38094000000001,
                    "velocity": 0.5511811023622047,
                    "duration": 0.2380949999999995
                },
                {
                    "name": "A2",
                    "midi": 45,
                    "time": 12.619035000000009,
                    "velocity": 0.47244094488188976,
                    "duration": 0.11904750000000064
                },
                {
                    "name": "A2",
                    "midi": 45,
                    "time": 12.85713000000001,
                    "velocity": 0.5433070866141733,
                    "duration": 0.2380949999999995
                },
                {
                    "name": "F#2",
                    "midi": 42,
                    "time": 13.09522500000001,
                    "velocity": 0.47244094488188976,
                    "duration": 0.11904750000000064
                },
                {
                    "name": "D#2",
                    "midi": 39,
                    "time": 13.333320000000011,
                    "velocity": 0.5433070866141733,
                    "duration": 0.2380949999999995
                },
                {
                    "name": "F#2",
                    "midi": 42,
                    "time": 13.57141500000001,
                    "velocity": 0.47244094488188976,
                    "duration": 0.11904750000000064
                },
                {
                    "name": "F#2",
                    "midi": 42,
                    "time": 13.809510000000012,
                    "velocity": 0.5433070866141733,
                    "duration": 0.2380949999999995
                },
                {
                    "name": "A2",
                    "midi": 45,
                    "time": 14.047605000000011,
                    "velocity": 0.47244094488188976,
                    "duration": 0.11904750000000064
                },
                {
                    "name": "B2",
                    "midi": 47,
                    "time": 14.285700000000013,
                    "velocity": 0.5275590551181102,
                    "duration": 0.2380949999999995
                },
                {
                    "name": "B2",
                    "midi": 47,
                    "time": 14.523795000000012,
                    "velocity": 0.47244094488188976,
                    "duration": 0.2380949999999995
                },
                {
                    "name": "E3",
                    "midi": 52,
                    "time": 14.761890000000012,
                    "velocity": 0.5511811023622047,
                    "duration": 0.4761900000000008
                },
                {
                    "name": "A2",
                    "midi": 45,
                    "time": 15.238080000000013,
                    "velocity": 0.5748031496062992,
                    "duration": 0.11904750000000064
                },
                {
                    "name": "B2",
                    "midi": 47,
                    "time": 15.357127500000013,
                    "velocity": 0.5196850393700787,
                    "duration": 0.11904750000000064
                },
                {
                    "name": "A2",
                    "midi": 45,
                    "time": 15.476175000000014,
                    "velocity": 0.5590551181102362,
                    "duration": 0.11904750000000064
                },
                {
                    "name": "B2",
                    "midi": 47,
                    "time": 15.595222500000014,
                    "velocity": 0.5196850393700787,
                    "duration": 0.11904750000000064
                },
                {
                    "name": "C3",
                    "midi": 48,
                    "time": 15.714270000000015,
                    "velocity": 0.5826771653543307,
                    "duration": 0.11904750000000064
                },
                {
                    "name": "B2",
                    "midi": 47,
                    "time": 15.833317500000016,
                    "velocity": 0.5196850393700787,
                    "duration": 0.11904750000000064
                },
                {
                    "name": "C3",
                    "midi": 48,
                    "time": 15.952365000000016,
                    "velocity": 0.5748031496062992,
                    "duration": 0.11904749999999886
                },
                {
                    "name": "B2",
                    "midi": 47,
                    "time": 16.071412500000015,
                    "velocity": 0.5196850393700787,
                    "duration": 0.11904750000000064
                },
                {
                    "name": "A2",
                    "midi": 45,
                    "time": 16.190460000000016,
                    "velocity": 0.6062992125984252,
                    "duration": 0.23809500000000128
                },
                {
                    "name": "B2",
                    "midi": 47,
                    "time": 16.428555000000017,
                    "velocity": 0.5196850393700787,
                    "duration": 0.11904750000000064
                },
                {
                    "name": "C3",
                    "midi": 48,
                    "time": 16.66665000000002,
                    "velocity": 0.5905511811023622,
                    "duration": 0.23809500000000128
                },
                {
                    "name": "E3",
                    "midi": 52,
                    "time": 16.90474500000002,
                    "velocity": 0.5196850393700787,
                    "duration": 0.11904750000000064
                },
                {
                    "name": "A3",
                    "midi": 57,
                    "time": 17.14284000000002,
                    "velocity": 0.5905511811023622,
                    "duration": 0.23809500000000128
                },
                {
                    "name": "B3",
                    "midi": 59,
                    "time": 17.380935000000022,
                    "velocity": 0.5196850393700787,
                    "duration": 0.11904750000000064
                },
                {
                    "name": "C4",
                    "midi": 60,
                    "time": 17.619030000000024,
                    "velocity": 0.5905511811023622,
                    "duration": 0.23809500000000128
                },
                {
                    "name": "E4",
                    "midi": 64,
                    "time": 17.857125000000025,
                    "velocity": 0.5196850393700787,
                    "duration": 0.11904750000000064
                },
                {
                    "name": "E3",
                    "midi": 52,
                    "time": 18.095220000000026,
                    "velocity": 0.6220472440944882,
                    "duration": 0.22619024999999837
                },
                {
                    "name": "E3",
                    "midi": 52,
                    "time": 18.333315000000024,
                    "velocity": 0.5433070866141733,
                    "duration": 0.22619024999999837
                },
                {
                    "name": "A3",
                    "midi": 57,
                    "time": 18.57141000000002,
                    "velocity": 0.6299212598425197,
                    "duration": 0.22619024999999837
                },
                {
                    "name": "A2",
                    "midi": 45,
                    "time": 18.80950500000002,
                    "velocity": 0.5669291338582677,
                    "duration": 0.22619024999999837
                },
                {
                    "name": "D3",
                    "midi": 50,
                    "time": 19.047600000000017,
                    "velocity": 0.6771653543307087,
                    "duration": 0.11904750000000064
                },
                {
                    "name": "E3",
                    "midi": 52,
                    "time": 19.166647500000018,
                    "velocity": 0.5748031496062992,
                    "duration": 0.11904750000000064
                },
                {
                    "name": "D3",
                    "midi": 50,
                    "time": 19.28569500000002,
                    "velocity": 0.6141732283464567,
                    "duration": 0.11904750000000064
                },
                {
                    "name": "E3",
                    "midi": 52,
                    "time": 19.40474250000002,
                    "velocity": 0.5433070866141733,
                    "duration": 0.11904750000000064
                },
                {
                    "name": "F3",
                    "midi": 53,
                    "time": 19.52379000000002,
                    "velocity": 0.5590551181102362,
                    "duration": 0.11904750000000064
                },
                {
                    "name": "E3",
                    "midi": 52,
                    "time": 19.64283750000002,
                    "velocity": 0.49606299212598426,
                    "duration": 0.11904750000000064
                },
                {
                    "name": "F3",
                    "midi": 53,
                    "time": 19.76188500000002,
                    "velocity": 0.5511811023622047,
                    "duration": 0.11904750000000064
                },
                {
                    "name": "E3",
                    "midi": 52,
                    "time": 19.88093250000002,
                    "velocity": 0.49606299212598426,
                    "duration": 0.11904750000000064
                },
                {
                    "name": "D3",
                    "midi": 50,
                    "time": 19.999980000000022,
                    "velocity": 0.5748031496062992,
                    "duration": 0.23809500000000128
                },
                {
                    "name": "E3",
                    "midi": 52,
                    "time": 20.238075000000023,
                    "velocity": 0.49606299212598426,
                    "duration": 0.11904750000000064
                },
                {
                    "name": "F3",
                    "midi": 53,
                    "time": 20.476170000000025,
                    "velocity": 0.5669291338582677,
                    "duration": 0.23809500000000128
                },
                {
                    "name": "A3",
                    "midi": 57,
                    "time": 20.714265000000026,
                    "velocity": 0.49606299212598426,
                    "duration": 0.11904750000000064
                },
                {
                    "name": "D4",
                    "midi": 62,
                    "time": 20.952360000000027,
                    "velocity": 0.5669291338582677,
                    "duration": 0.23809500000000128
                },
                {
                    "name": "E4",
                    "midi": 64,
                    "time": 21.19045500000003,
                    "velocity": 0.49606299212598426,
                    "duration": 0.11904750000000064
                },
                {
                    "name": "F4",
                    "midi": 65,
                    "time": 21.42855000000003,
                    "velocity": 0.5669291338582677,
                    "duration": 0.23809500000000128
                },
                {
                    "name": "A4",
                    "midi": 69,
                    "time": 21.66664500000003,
                    "velocity": 0.49606299212598426,
                    "duration": 0.11904750000000064
                },
                {
                    "name": "E4",
                    "midi": 64,
                    "time": 21.904740000000032,
                    "velocity": 0.5511811023622047,
                    "duration": 0.22619024999999837
                },
                {
                    "name": "E4",
                    "midi": 64,
                    "time": 22.14283500000003,
                    "velocity": 0.49606299212598426,
                    "duration": 0.22619024999999837
                },
                {
                    "name": "A4",
                    "midi": 69,
                    "time": 22.380930000000028,
                    "velocity": 0.5748031496062992,
                    "duration": 0.476189999999999
                },
                {
                    "name": "A#2",
                    "midi": 46,
                    "time": 22.857120000000027,
                    "velocity": 0.5275590551181102,
                    "duration": 0.11904750000000064
                },
                {
                    "name": "A2",
                    "midi": 45,
                    "time": 22.976167500000027,
                    "velocity": 0.47244094488188976,
                    "duration": 0.11904750000000064
                },
                {
                    "name": "A#2",
                    "midi": 46,
                    "time": 23.095215000000028,
                    "velocity": 0.5118110236220472,
                    "duration": 0.11904750000000064
                },
                {
                    "name": "A2",
                    "midi": 45,
                    "time": 23.21426250000003,
                    "velocity": 0.47244094488188976,
                    "duration": 0.11904750000000064
                },
                {
                    "name": "G2",
                    "midi": 43,
                    "time": 23.33331000000003,
                    "velocity": 0.5354330708661418,
                    "duration": 0.11904750000000064
                },
                {
                    "name": "A2",
                    "midi": 45,
                    "time": 23.45235750000003,
                    "velocity": 0.47244094488188976,
                    "duration": 0.11904750000000064
                },
                {
                    "name": "G2",
                    "midi": 43,
                    "time": 23.57140500000003,
                    "velocity": 0.5275590551181102,
                    "duration": 0.11904750000000064
                },
                {
                    "name": "A2",
                    "midi": 45,
                    "time": 23.69045250000003,
                    "velocity": 0.47244094488188976,
                    "duration": 0.11904750000000064
                },
                {
                    "name": "A#2",
                    "midi": 46,
                    "time": 23.809500000000032,
                    "velocity": 0.5511811023622047,
                    "duration": 0.23809500000000128
                },
                {
                    "name": "G2",
                    "midi": 43,
                    "time": 24.047595000000033,
                    "velocity": 0.47244094488188976,
                    "duration": 0.11904750000000064
                },
                {
                    "name": "G2",
                    "midi": 43,
                    "time": 24.285690000000034,
                    "velocity": 0.5433070866141733,
                    "duration": 0.23809500000000128
                },
                {
                    "name": "E2",
                    "midi": 40,
                    "time": 24.523785000000036,
                    "velocity": 0.47244094488188976,
                    "duration": 0.11904750000000064
                },
                {
                    "name": "C#2",
                    "midi": 37,
                    "time": 24.761880000000037,
                    "velocity": 0.5433070866141733,
                    "duration": 0.23809500000000128
                },
                {
                    "name": "E2",
                    "midi": 40,
                    "time": 24.99997500000004,
                    "velocity": 0.47244094488188976,
                    "duration": 0.11904750000000064
                },
                {
                    "name": "E2",
                    "midi": 40,
                    "time": 25.23807000000004,
                    "velocity": 0.5433070866141733,
                    "duration": 0.23809500000000128
                },
                {
                    "name": "G2",
                    "midi": 43,
                    "time": 25.47616500000004,
                    "velocity": 0.47244094488188976,
                    "duration": 0.11904750000000064
                },
                {
                    "name": "A2",
                    "midi": 45,
                    "time": 25.714260000000042,
                    "velocity": 0.5275590551181102,
                    "duration": 0.22619024999999837
                },
                {
                    "name": "A2",
                    "midi": 45,
                    "time": 25.95235500000004,
                    "velocity": 0.47244094488188976,
                    "duration": 0.22619024999999837
                },
                {
                    "name": "D3",
                    "midi": 50,
                    "time": 26.190450000000038,
                    "velocity": 0.5511811023622047,
                    "duration": 0.476189999999999
                },
                {
                    "name": "C3",
                    "midi": 48,
                    "time": 26.666640000000037,
                    "velocity": 0.5275590551181102,
                    "duration": 0.11904750000000064
                },
                {
                    "name": "B2",
                    "midi": 47,
                    "time": 26.785687500000037,
                    "velocity": 0.47244094488188976,
                    "duration": 0.11904750000000064
                },
                {
                    "name": "C3",
                    "midi": 48,
                    "time": 26.904735000000038,
                    "velocity": 0.5118110236220472,
                    "duration": 0.11904750000000064
                },
                {
                    "name": "B2",
                    "midi": 47,
                    "time": 27.02378250000004,
                    "velocity": 0.47244094488188976,
                    "duration": 0.11904750000000064
                },
                {
                    "name": "A2",
                    "midi": 45,
                    "time": 27.14283000000004,
                    "velocity": 0.5354330708661418,
                    "duration": 0.11904750000000064
                },
                {
                    "name": "B2",
                    "midi": 47,
                    "time": 27.26187750000004,
                    "velocity": 0.47244094488188976,
                    "duration": 0.11904750000000064
                },
                {
                    "name": "A2",
                    "midi": 45,
                    "time": 27.38092500000004,
                    "velocity": 0.5275590551181102,
                    "duration": 0.11904750000000064
                },
                {
                    "name": "B2",
                    "midi": 47,
                    "time": 27.49997250000004,
                    "velocity": 0.47244094488188976,
                    "duration": 0.11904750000000064
                },
                {
                    "name": "C3",
                    "midi": 48,
                    "time": 27.61902000000004,
                    "velocity": 0.5511811023622047,
                    "duration": 0.23809500000000128
                },
                {
                    "name": "A2",
                    "midi": 45,
                    "time": 27.857115000000043,
                    "velocity": 0.47244094488188976,
                    "duration": 0.11904750000000064
                },
                {
                    "name": "A2",
                    "midi": 45,
                    "time": 28.095210000000044,
                    "velocity": 0.5433070866141733,
                    "duration": 0.23809500000000128
                },
                {
                    "name": "F#2",
                    "midi": 42,
                    "time": 28.333305000000045,
                    "velocity": 0.47244094488188976,
                    "duration": 0.11904750000000064
                },
                {
                    "name": "D#2",
                    "midi": 39,
                    "time": 28.571400000000047,
                    "velocity": 0.5433070866141733,
                    "duration": 0.23809500000000128
                },
                {
                    "name": "F#2",
                    "midi": 42,
                    "time": 28.809495000000048,
                    "velocity": 0.47244094488188976,
                    "duration": 0.11904750000000064
                },
                {
                    "name": "F#2",
                    "midi": 42,
                    "time": 29.04759000000005,
                    "velocity": 0.5433070866141733,
                    "duration": 0.23809500000000128
                },
                {
                    "name": "A2",
                    "midi": 45,
                    "time": 29.28568500000005,
                    "velocity": 0.47244094488188976,
                    "duration": 0.11904750000000064
                },
                {
                    "name": "B2",
                    "midi": 47,
                    "time": 29.523780000000052,
                    "velocity": 0.5275590551181102,
                    "duration": 0.22619024999999837
                },
                {
                    "name": "B2",
                    "midi": 47,
                    "time": 29.76187500000005,
                    "velocity": 0.47244094488188976,
                    "duration": 0.22619024999999837
                },
                {
                    "name": "E3",
                    "midi": 52,
                    "time": 29.999970000000047,
                    "velocity": 0.5511811023622047,
                    "duration": 0.476189999999999
                },
                {
                    "name": "A2",
                    "midi": 45,
                    "time": 30.476160000000046,
                    "velocity": 0.5748031496062992,
                    "duration": 0.11904750000000064
                },
                {
                    "name": "B2",
                    "midi": 47,
                    "time": 30.595207500000047,
                    "velocity": 0.5196850393700787,
                    "duration": 0.11904750000000064
                },
                {
                    "name": "A2",
                    "midi": 45,
                    "time": 30.714255000000048,
                    "velocity": 0.5590551181102362,
                    "duration": 0.11904750000000064
                },
                {
                    "name": "B2",
                    "midi": 47,
                    "time": 30.83330250000005,
                    "velocity": 0.5196850393700787,
                    "duration": 0.11904750000000064
                },
                {
                    "name": "C3",
                    "midi": 48,
                    "time": 30.95235000000005,
                    "velocity": 0.5826771653543307,
                    "duration": 0.11904750000000064
                },
                {
                    "name": "B2",
                    "midi": 47,
                    "time": 31.07139750000005,
                    "velocity": 0.5196850393700787,
                    "duration": 0.11904750000000064
                },
                {
                    "name": "C3",
                    "midi": 48,
                    "time": 31.19044500000005,
                    "velocity": 0.5748031496062992,
                    "duration": 0.11904750000000064
                },
                {
                    "name": "B2",
                    "midi": 47,
                    "time": 31.30949250000005,
                    "velocity": 0.5196850393700787,
                    "duration": 0.11904750000000064
                },
                {
                    "name": "A2",
                    "midi": 45,
                    "time": 31.42854000000005,
                    "velocity": 0.6062992125984252,
                    "duration": 0.23809500000000128
                },
                {
                    "name": "B2",
                    "midi": 47,
                    "time": 31.666635000000053,
                    "velocity": 0.5196850393700787,
                    "duration": 0.11904750000000064
                },
                {
                    "name": "C3",
                    "midi": 48,
                    "time": 31.904730000000054,
                    "velocity": 0.5905511811023622,
                    "duration": 0.23809499999999773
                },
                {
                    "name": "E3",
                    "midi": 52,
                    "time": 32.14282500000005,
                    "velocity": 0.5196850393700787,
                    "duration": 0.11904750000000064
                },
                {
                    "name": "A3",
                    "midi": 57,
                    "time": 32.38092000000005,
                    "velocity": 0.5905511811023622,
                    "duration": 0.23809500000000128
                },
                {
                    "name": "B3",
                    "midi": 59,
                    "time": 32.619015000000054,
                    "velocity": 0.5196850393700787,
                    "duration": 0.11904750000000064
                },
                {
                    "name": "C4",
                    "midi": 60,
                    "time": 32.857110000000056,
                    "velocity": 0.5905511811023622,
                    "duration": 0.23809500000000128
                },
                {
                    "name": "E4",
                    "midi": 64,
                    "time": 33.09520500000006,
                    "velocity": 0.5196850393700787,
                    "duration": 0.11904750000000064
                },
                {
                    "name": "E3",
                    "midi": 52,
                    "time": 33.33330000000006,
                    "velocity": 0.6220472440944882,
                    "duration": 0.22619025000000192
                },
                {
                    "name": "E3",
                    "midi": 52,
                    "time": 33.57139500000006,
                    "velocity": 0.5433070866141733,
                    "duration": 0.22619025000000192
                },
                {
                    "name": "A3",
                    "midi": 57,
                    "time": 33.80949000000006,
                    "velocity": 0.6299212598425197,
                    "duration": 0.22619025000000192
                },
                {
                    "name": "A2",
                    "midi": 45,
                    "time": 34.04758500000006,
                    "velocity": 0.5669291338582677,
                    "duration": 0.22619025000000192
                },
                {
                    "name": "D3",
                    "midi": 50,
                    "time": 34.28568000000006,
                    "velocity": 0.6771653543307087,
                    "duration": 0.11904750000000064
                },
                {
                    "name": "E3",
                    "midi": 52,
                    "time": 34.404727500000064,
                    "velocity": 0.5748031496062992,
                    "duration": 0.11904750000000064
                },
                {
                    "name": "D3",
                    "midi": 50,
                    "time": 34.523775000000064,
                    "velocity": 0.6141732283464567,
                    "duration": 0.11904750000000064
                },
                {
                    "name": "E3",
                    "midi": 52,
                    "time": 34.642822500000065,
                    "velocity": 0.5433070866141733,
                    "duration": 0.11904750000000064
                },
                {
                    "name": "F3",
                    "midi": 53,
                    "time": 34.761870000000066,
                    "velocity": 0.5590551181102362,
                    "duration": 0.11904750000000064
                },
                {
                    "name": "E3",
                    "midi": 52,
                    "time": 34.880917500000066,
                    "velocity": 0.49606299212598426,
                    "duration": 0.11904750000000064
                },
                {
                    "name": "F3",
                    "midi": 53,
                    "time": 34.99996500000007,
                    "velocity": 0.5511811023622047,
                    "duration": 0.11904750000000064
                },
                {
                    "name": "E3",
                    "midi": 52,
                    "time": 35.11901250000007,
                    "velocity": 0.49606299212598426,
                    "duration": 0.11904750000000064
                },
                {
                    "name": "D3",
                    "midi": 50,
                    "time": 35.23806000000007,
                    "velocity": 0.5748031496062992,
                    "duration": 0.23809500000000128
                },
                {
                    "name": "E3",
                    "midi": 52,
                    "time": 35.47615500000007,
                    "velocity": 0.49606299212598426,
                    "duration": 0.11904750000000064
                },
                {
                    "name": "F3",
                    "midi": 53,
                    "time": 35.71425000000007,
                    "velocity": 0.5669291338582677,
                    "duration": 0.23809500000000128
                },
                {
                    "name": "A3",
                    "midi": 57,
                    "time": 35.95234500000007,
                    "velocity": 0.49606299212598426,
                    "duration": 0.11904750000000064
                },
                {
                    "name": "D4",
                    "midi": 62,
                    "time": 36.19044000000007,
                    "velocity": 0.5669291338582677,
                    "duration": 0.23809500000000128
                },
                {
                    "name": "E4",
                    "midi": 64,
                    "time": 36.428535000000075,
                    "velocity": 0.49606299212598426,
                    "duration": 0.11904750000000064
                },
                {
                    "name": "F4",
                    "midi": 65,
                    "time": 36.666630000000076,
                    "velocity": 0.5669291338582677,
                    "duration": 0.23809500000000128
                },
                {
                    "name": "A4",
                    "midi": 69,
                    "time": 36.90472500000008,
                    "velocity": 0.49606299212598426,
                    "duration": 0.11904750000000064
                },
                {
                    "name": "E4",
                    "midi": 64,
                    "time": 37.14282000000008,
                    "velocity": 0.5511811023622047,
                    "duration": 0.22619025000000192
                },
                {
                    "name": "E4",
                    "midi": 64,
                    "time": 37.38091500000008,
                    "velocity": 0.49606299212598426,
                    "duration": 0.22619025000000192
                },
                {
                    "name": "A4",
                    "midi": 69,
                    "time": 37.61901000000008,
                    "velocity": 0.5748031496062992,
                    "duration": 0.47619000000000256
                },
                {
                    "name": "F3",
                    "midi": 53,
                    "time": 38.095200000000084,
                    "velocity": 0.2677165354330709,
                    "duration": 0.11904750000000064
                },
                {
                    "name": "A3",
                    "midi": 57,
                    "time": 38.214247500000084,
                    "velocity": 0.2125984251968504,
                    "duration": 0.11904750000000064
                },
                {
                    "name": "F3",
                    "midi": 53,
                    "time": 38.333295000000085,
                    "velocity": 0.2755905511811024,
                    "duration": 0.11904750000000064
                },
                {
                    "name": "A3",
                    "midi": 57,
                    "time": 38.452342500000086,
                    "velocity": 0.2125984251968504,
                    "duration": 0.11904750000000064
                },
                {
                    "name": "F3",
                    "midi": 53,
                    "time": 38.571390000000086,
                    "velocity": 0.28346456692913385,
                    "duration": 0.11904750000000064
                },
                {
                    "name": "A3",
                    "midi": 57,
                    "time": 38.69043750000009,
                    "velocity": 0.25196850393700787,
                    "duration": 0.11904750000000064
                },
                {
                    "name": "C3",
                    "midi": 48,
                    "time": 38.80948500000009,
                    "velocity": 0.2992125984251969,
                    "duration": 0.11904750000000064
                },
                {
                    "name": "G3",
                    "midi": 55,
                    "time": 38.92853250000009,
                    "velocity": 0.2440944881889764,
                    "duration": 0.11904750000000064
                },
                {
                    "name": "F3",
                    "midi": 53,
                    "time": 39.04758000000009,
                    "velocity": 0.31496062992125984,
                    "duration": 0.11904750000000064
                },
                {
                    "name": "A3",
                    "midi": 57,
                    "time": 39.16662750000009,
                    "velocity": 0.28346456692913385,
                    "duration": 0.11904750000000064
                },
                {
                    "name": "G3",
                    "midi": 55,
                    "time": 39.28567500000009,
                    "velocity": 0.31496062992125984,
                    "duration": 0.11904750000000064
                },
                {
                    "name": "A#3",
                    "midi": 58,
                    "time": 39.40472250000009,
                    "velocity": 0.2755905511811024,
                    "duration": 0.11904750000000064
                },
                {
                    "name": "A3",
                    "midi": 57,
                    "time": 39.52377000000009,
                    "velocity": 0.3464566929133858,
                    "duration": 0.11904750000000064
                },
                {
                    "name": "C4",
                    "midi": 60,
                    "time": 39.64281750000009,
                    "velocity": 0.31496062992125984,
                    "duration": 0.11904750000000064
                },
                {
                    "name": "C3",
                    "midi": 48,
                    "time": 39.76186500000009,
                    "velocity": 0.28346456692913385,
                    "duration": 0.11904750000000064
                },
                {
                    "name": "G3",
                    "midi": 55,
                    "time": 39.88091250000009,
                    "velocity": 0.28346456692913385,
                    "duration": 0.11904750000000064
                },
                {
                    "name": "F3",
                    "midi": 53,
                    "time": 39.999960000000094,
                    "velocity": 0.2677165354330709,
                    "duration": 0.11904750000000064
                },
                {
                    "name": "A3",
                    "midi": 57,
                    "time": 40.119007500000095,
                    "velocity": 0.2204724409448819,
                    "duration": 0.11904750000000064
                },
                {
                    "name": "F3",
                    "midi": 53,
                    "time": 40.238055000000095,
                    "velocity": 0.2755905511811024,
                    "duration": 0.11904750000000064
                },
                {
                    "name": "A3",
                    "midi": 57,
                    "time": 40.357102500000096,
                    "velocity": 0.2283464566929134,
                    "duration": 0.11904750000000064
                },
                {
                    "name": "F3",
                    "midi": 53,
                    "time": 40.476150000000096,
                    "velocity": 0.28346456692913385,
                    "duration": 0.11904750000000064
                },
                {
                    "name": "A3",
                    "midi": 57,
                    "time": 40.5951975000001,
                    "velocity": 0.2440944881889764,
                    "duration": 0.11904750000000064
                },
                {
                    "name": "C3",
                    "midi": 48,
                    "time": 40.7142450000001,
                    "velocity": 0.2992125984251969,
                    "duration": 0.11904750000000064
                },
                {
                    "name": "G3",
                    "midi": 55,
                    "time": 40.8332925000001,
                    "velocity": 0.2440944881889764,
                    "duration": 0.11904750000000064
                },
                {
                    "name": "F3",
                    "midi": 53,
                    "time": 40.9523400000001,
                    "velocity": 0.31496062992125984,
                    "duration": 0.11904750000000064
                },
                {
                    "name": "A3",
                    "midi": 57,
                    "time": 41.0713875000001,
                    "velocity": 0.28346456692913385,
                    "duration": 0.11904750000000064
                },
                {
                    "name": "G3",
                    "midi": 55,
                    "time": 41.1904350000001,
                    "velocity": 0.31496062992125984,
                    "duration": 0.11904750000000064
                },
                {
                    "name": "A#3",
                    "midi": 58,
                    "time": 41.3094825000001,
                    "velocity": 0.2755905511811024,
                    "duration": 0.11904750000000064
                },
                {
                    "name": "A3",
                    "midi": 57,
                    "time": 41.4285300000001,
                    "velocity": 0.3464566929133858,
                    "duration": 0.11904750000000064
                },
                {
                    "name": "C4",
                    "midi": 60,
                    "time": 41.5475775000001,
                    "velocity": 0.31496062992125984,
                    "duration": 0.11904750000000064
                },
                {
                    "name": "G3",
                    "midi": 55,
                    "time": 41.6666250000001,
                    "velocity": 0.3779527559055118,
                    "duration": 0.11904750000000064
                },
                {
                    "name": "B3",
                    "midi": 59,
                    "time": 41.7856725000001,
                    "velocity": 0.33858267716535434,
                    "duration": 0.11904750000000064
                },
                {
                    "name": "C4",
                    "midi": 60,
                    "time": 41.904720000000104,
                    "velocity": 0.3937007874015748,
                    "duration": 0.11904750000000064
                },
                {
                    "name": "E4",
                    "midi": 64,
                    "time": 42.023767500000105,
                    "velocity": 0.3228346456692913,
                    "duration": 0.11904750000000064
                },
                {
                    "name": "C4",
                    "midi": 60,
                    "time": 42.142815000000105,
                    "velocity": 0.31496062992125984,
                    "duration": 0.11904750000000064
                },
                {
                    "name": "E4",
                    "midi": 64,
                    "time": 42.261862500000106,
                    "velocity": 0.25984251968503935,
                    "duration": 0.11904750000000064
                },
                {
                    "name": "C4",
                    "midi": 60,
                    "time": 42.38091000000011,
                    "velocity": 0.31496062992125984,
                    "duration": 0.11904750000000064
                },
                {
                    "name": "E4",
                    "midi": 64,
                    "time": 42.49995750000011,
                    "velocity": 0.2755905511811024,
                    "duration": 0.11904750000000064
                },
                {
                    "name": "G3",
                    "midi": 55,
                    "time": 42.61900500000011,
                    "velocity": 0.31496062992125984,
                    "duration": 0.11904750000000064
                },
                {
                    "name": "D4",
                    "midi": 62,
                    "time": 42.73805250000011,
                    "velocity": 0.25196850393700787,
                    "duration": 0.11904750000000064
                },
                {
                    "name": "C4",
                    "midi": 60,
                    "time": 42.85710000000011,
                    "velocity": 0.31496062992125984,
                    "duration": 0.11904750000000064
                },
                {
                    "name": "E4",
                    "midi": 64,
                    "time": 42.97614750000011,
                    "velocity": 0.28346456692913385,
                    "duration": 0.11904750000000064
                },
                {
                    "name": "D4",
                    "midi": 62,
                    "time": 43.09519500000011,
                    "velocity": 0.31496062992125984,
                    "duration": 0.11904750000000064
                },
                {
                    "name": "F4",
                    "midi": 65,
                    "time": 43.21424250000011,
                    "velocity": 0.2755905511811024,
                    "duration": 0.11904750000000064
                },
                {
                    "name": "E4",
                    "midi": 64,
                    "time": 43.33329000000011,
                    "velocity": 0.3464566929133858,
                    "duration": 0.11904750000000064
                },
                {
                    "name": "G4",
                    "midi": 67,
                    "time": 43.45233750000011,
                    "velocity": 0.29133858267716534,
                    "duration": 0.11904750000000064
                },
                {
                    "name": "G3",
                    "midi": 55,
                    "time": 43.57138500000011,
                    "velocity": 0.2992125984251969,
                    "duration": 0.11904750000000064
                },
                {
                    "name": "D4",
                    "midi": 62,
                    "time": 43.690432500000114,
                    "velocity": 0.31496062992125984,
                    "duration": 0.11904750000000064
                },
                {
                    "name": "C4",
                    "midi": 60,
                    "time": 43.809480000000114,
                    "velocity": 0.3464566929133858,
                    "duration": 0.11904750000000064
                },
                {
                    "name": "E4",
                    "midi": 64,
                    "time": 43.928527500000115,
                    "velocity": 0.25984251968503935,
                    "duration": 0.11904750000000064
                },
                {
                    "name": "C4",
                    "midi": 60,
                    "time": 44.047575000000116,
                    "velocity": 0.30708661417322836,
                    "duration": 0.11904750000000064
                },
                {
                    "name": "E4",
                    "midi": 64,
                    "time": 44.166622500000116,
                    "velocity": 0.25984251968503935,
                    "duration": 0.11904750000000064
                },
                {
                    "name": "C4",
                    "midi": 60,
                    "time": 44.28567000000012,
                    "velocity": 0.31496062992125984,
                    "duration": 0.11904750000000064
                },
                {
                    "name": "E4",
                    "midi": 64,
                    "time": 44.40471750000012,
                    "velocity": 0.2755905511811024,
                    "duration": 0.11904750000000064
                },
                {
                    "name": "G3",
                    "midi": 55,
                    "time": 44.52376500000012,
                    "velocity": 0.31496062992125984,
                    "duration": 0.11904750000000064
                },
                {
                    "name": "D4",
                    "midi": 62,
                    "time": 44.64281250000012,
                    "velocity": 0.25196850393700787,
                    "duration": 0.11904750000000064
                },
                {
                    "name": "C4",
                    "midi": 60,
                    "time": 44.76186000000012,
                    "velocity": 0.31496062992125984,
                    "duration": 0.11904750000000064
                },
                {
                    "name": "E4",
                    "midi": 64,
                    "time": 44.88090750000012,
                    "velocity": 0.28346456692913385,
                    "duration": 0.11904750000000064
                },
                {
                    "name": "D4",
                    "midi": 62,
                    "time": 44.99995500000012,
                    "velocity": 0.31496062992125984,
                    "duration": 0.11904750000000064
                },
                {
                    "name": "F4",
                    "midi": 65,
                    "time": 45.11900250000012,
                    "velocity": 0.2755905511811024,
                    "duration": 0.11904750000000064
                },
                {
                    "name": "E4",
                    "midi": 64,
                    "time": 45.23805000000012,
                    "velocity": 0.3464566929133858,
                    "duration": 0.23809500000000128
                },
                {
                    "name": "F3",
                    "midi": 53,
                    "time": 45.714240000000125,
                    "velocity": 0.2677165354330709,
                    "duration": 0.11904750000000064
                },
                {
                    "name": "A3",
                    "midi": 57,
                    "time": 45.833287500000125,
                    "velocity": 0.2283464566929134,
                    "duration": 0.11904750000000064
                },
                {
                    "name": "F3",
                    "midi": 53,
                    "time": 45.952335000000126,
                    "velocity": 0.2755905511811024,
                    "duration": 0.11904750000000064
                },
                {
                    "name": "A3",
                    "midi": 57,
                    "time": 46.07138250000013,
                    "velocity": 0.2283464566929134,
                    "duration": 0.11904750000000064
                },
                {
                    "name": "F3",
                    "midi": 53,
                    "time": 46.19043000000013,
                    "velocity": 0.28346456692913385,
                    "duration": 0.11904750000000064
                },
                {
                    "name": "A3",
                    "midi": 57,
                    "time": 46.30947750000013,
                    "velocity": 0.25196850393700787,
                    "duration": 0.11904750000000064
                },
                {
                    "name": "C3",
                    "midi": 48,
                    "time": 46.42852500000013,
                    "velocity": 0.2992125984251969,
                    "duration": 0.11904750000000064
                },
                {
                    "name": "G3",
                    "midi": 55,
                    "time": 46.54757250000013,
                    "velocity": 0.2440944881889764,
                    "duration": 0.11904750000000064
                },
                {
                    "name": "F3",
                    "midi": 53,
                    "time": 46.66662000000013,
                    "velocity": 0.31496062992125984,
                    "duration": 0.11904750000000064
                },
                {
                    "name": "A3",
                    "midi": 57,
                    "time": 46.78566750000013,
                    "velocity": 0.28346456692913385,
                    "duration": 0.11904750000000064
                },
                {
                    "name": "G3",
                    "midi": 55,
                    "time": 46.90471500000013,
                    "velocity": 0.31496062992125984,
                    "duration": 0.11904750000000064
                },
                {
                    "name": "A#3",
                    "midi": 58,
                    "time": 47.02376250000013,
                    "velocity": 0.2755905511811024,
                    "duration": 0.11904750000000064
                },
                {
                    "name": "A3",
                    "midi": 57,
                    "time": 47.14281000000013,
                    "velocity": 0.3464566929133858,
                    "duration": 0.11904750000000064
                },
                {
                    "name": "C4",
                    "midi": 60,
                    "time": 47.26185750000013,
                    "velocity": 0.31496062992125984,
                    "duration": 0.11904750000000064
                },
                {
                    "name": "C3",
                    "midi": 48,
                    "time": 47.38090500000013,
                    "velocity": 0.2992125984251969,
                    "duration": 0.11904750000000064
                },
                {
                    "name": "G3",
                    "midi": 55,
                    "time": 47.499952500000134,
                    "velocity": 0.28346456692913385,
                    "duration": 0.11904750000000064
                },
                {
                    "name": "F3",
                    "midi": 53,
                    "time": 47.619000000000135,
                    "velocity": 0.2677165354330709,
                    "duration": 0.11904750000000064
                },
                {
                    "name": "A3",
                    "midi": 57,
                    "time": 47.738047500000135,
                    "velocity": 0.2283464566929134,
                    "duration": 0.11904750000000064
                },
                {
                    "name": "F3",
                    "midi": 53,
                    "time": 47.857095000000136,
                    "velocity": 0.2755905511811024,
                    "duration": 0.11904750000000064
                },
                {
                    "name": "A3",
                    "midi": 57,
                    "time": 47.97614250000014,
                    "velocity": 0.2283464566929134,
                    "duration": 0.11904750000000064
                },
                {
                    "name": "F3",
                    "midi": 53,
                    "time": 48.09519000000014,
                    "velocity": 0.28346456692913385,
                    "duration": 0.11904750000000064
                },
                {
                    "name": "A3",
                    "midi": 57,
                    "time": 48.21423750000014,
                    "velocity": 0.25196850393700787,
                    "duration": 0.11904750000000064
                },
                {
                    "name": "C3",
                    "midi": 48,
                    "time": 48.33328500000014,
                    "velocity": 0.2992125984251969,
                    "duration": 0.11904750000000064
                },
                {
                    "name": "G3",
                    "midi": 55,
                    "time": 48.45233250000014,
                    "velocity": 0.2440944881889764,
                    "duration": 0.11904750000000064
                },
                {
                    "name": "F3",
                    "midi": 53,
                    "time": 48.57138000000014,
                    "velocity": 0.31496062992125984,
                    "duration": 0.11904750000000064
                },
                {
                    "name": "A3",
                    "midi": 57,
                    "time": 48.69042750000014,
                    "velocity": 0.28346456692913385,
                    "duration": 0.11904750000000064
                },
                {
                    "name": "G3",
                    "midi": 55,
                    "time": 48.80947500000014,
                    "velocity": 0.31496062992125984,
                    "duration": 0.11904750000000064
                },
                {
                    "name": "A#3",
                    "midi": 58,
                    "time": 48.92852250000014,
                    "velocity": 0.2755905511811024,
                    "duration": 0.11904750000000064
                },
                {
                    "name": "A3",
                    "midi": 57,
                    "time": 49.04757000000014,
                    "velocity": 0.3464566929133858,
                    "duration": 0.11904750000000064
                },
                {
                    "name": "C4",
                    "midi": 60,
                    "time": 49.16661750000014,
                    "velocity": 0.31496062992125984,
                    "duration": 0.11904750000000064
                },
                {
                    "name": "G3",
                    "midi": 55,
                    "time": 49.285665000000144,
                    "velocity": 0.3779527559055118,
                    "duration": 0.11904750000000064
                },
                {
                    "name": "B3",
                    "midi": 59,
                    "time": 49.404712500000144,
                    "velocity": 0.33858267716535434,
                    "duration": 0.11904750000000064
                },
                {
                    "name": "C4",
                    "midi": 60,
                    "time": 49.523760000000145,
                    "velocity": 0.3937007874015748,
                    "duration": 0.11904750000000064
                },
                {
                    "name": "E4",
                    "midi": 64,
                    "time": 49.642807500000146,
                    "velocity": 0.3228346456692913,
                    "duration": 0.11904750000000064
                },
                {
                    "name": "C4",
                    "midi": 60,
                    "time": 49.761855000000146,
                    "velocity": 0.31496062992125984,
                    "duration": 0.11904750000000064
                },
                {
                    "name": "E4",
                    "midi": 64,
                    "time": 49.88090250000015,
                    "velocity": 0.25984251968503935,
                    "duration": 0.11904750000000064
                },
                {
                    "name": "C4",
                    "midi": 60,
                    "time": 49.99995000000015,
                    "velocity": 0.31496062992125984,
                    "duration": 0.11904750000000064
                },
                {
                    "name": "E4",
                    "midi": 64,
                    "time": 50.11899750000015,
                    "velocity": 0.2755905511811024,
                    "duration": 0.11904750000000064
                },
                {
                    "name": "G3",
                    "midi": 55,
                    "time": 50.23804500000015,
                    "velocity": 0.31496062992125984,
                    "duration": 0.11904750000000064
                },
                {
                    "name": "D4",
                    "midi": 62,
                    "time": 50.35709250000015,
                    "velocity": 0.25196850393700787,
                    "duration": 0.11904750000000064
                },
                {
                    "name": "C4",
                    "midi": 60,
                    "time": 50.47614000000015,
                    "velocity": 0.31496062992125984,
                    "duration": 0.11904750000000064
                },
                {
                    "name": "E4",
                    "midi": 64,
                    "time": 50.59518750000015,
                    "velocity": 0.28346456692913385,
                    "duration": 0.11904750000000064
                },
                {
                    "name": "D4",
                    "midi": 62,
                    "time": 50.71423500000015,
                    "velocity": 0.31496062992125984,
                    "duration": 0.11904750000000064
                },
                {
                    "name": "F4",
                    "midi": 65,
                    "time": 50.83328250000015,
                    "velocity": 0.2755905511811024,
                    "duration": 0.11904750000000064
                },
                {
                    "name": "E4",
                    "midi": 64,
                    "time": 50.95233000000015,
                    "velocity": 0.3464566929133858,
                    "duration": 0.11904750000000064
                },
                {
                    "name": "G4",
                    "midi": 67,
                    "time": 51.07137750000015,
                    "velocity": 0.29133858267716534,
                    "duration": 0.11904750000000064
                },
                {
                    "name": "G3",
                    "midi": 55,
                    "time": 51.190425000000154,
                    "velocity": 0.2992125984251969,
                    "duration": 0.11904750000000064
                },
                {
                    "name": "D4",
                    "midi": 62,
                    "time": 51.309472500000155,
                    "velocity": 0.31496062992125984,
                    "duration": 0.11904750000000064
                },
                {
                    "name": "C4",
                    "midi": 60,
                    "time": 51.428520000000155,
                    "velocity": 0.3464566929133858,
                    "duration": 0.11904750000000064
                },
                {
                    "name": "E4",
                    "midi": 64,
                    "time": 51.547567500000156,
                    "velocity": 0.25984251968503935,
                    "duration": 0.11904750000000064
                },
                {
                    "name": "C4",
                    "midi": 60,
                    "time": 51.66661500000016,
                    "velocity": 0.30708661417322836,
                    "duration": 0.11904750000000064
                },
                {
                    "name": "E4",
                    "midi": 64,
                    "time": 51.78566250000016,
                    "velocity": 0.25984251968503935,
                    "duration": 0.11904750000000064
                },
                {
                    "name": "C4",
                    "midi": 60,
                    "time": 51.90471000000016,
                    "velocity": 0.31496062992125984,
                    "duration": 0.11904750000000064
                },
                {
                    "name": "E4",
                    "midi": 64,
                    "time": 52.02375750000016,
                    "velocity": 0.2755905511811024,
                    "duration": 0.11904750000000064
                },
                {
                    "name": "G3",
                    "midi": 55,
                    "time": 52.14280500000016,
                    "velocity": 0.31496062992125984,
                    "duration": 0.11904750000000064
                },
                {
                    "name": "D4",
                    "midi": 62,
                    "time": 52.26185250000016,
                    "velocity": 0.25196850393700787,
                    "duration": 0.11904750000000064
                },
                {
                    "name": "C4",
                    "midi": 60,
                    "time": 52.38090000000016,
                    "velocity": 0.31496062992125984,
                    "duration": 0.11904750000000064
                },
                {
                    "name": "E4",
                    "midi": 64,
                    "time": 52.49994750000016,
                    "velocity": 0.28346456692913385,
                    "duration": 0.11904750000000064
                },
                {
                    "name": "D4",
                    "midi": 62,
                    "time": 52.61899500000016,
                    "velocity": 0.31496062992125984,
                    "duration": 0.11904750000000064
                },
                {
                    "name": "F4",
                    "midi": 65,
                    "time": 52.73804250000016,
                    "velocity": 0.2755905511811024,
                    "duration": 0.11904750000000064
                },
                {
                    "name": "E4",
                    "midi": 64,
                    "time": 52.85709000000016,
                    "velocity": 0.3464566929133858,
                    "duration": 0.23809500000000128
                },
                {
                    "name": "C2",
                    "midi": 36,
                    "time": 53.333280000000165,
                    "velocity": 0.6141732283464567,
                    "duration": 0.7142849999999967
                },
                {
                    "name": "C#2",
                    "midi": 37,
                    "time": 54.04756500000016,
                    "velocity": 0.4566929133858268,
                    "duration": 0.23809500000000128
                },
                {
                    "name": "C2",
                    "midi": 36,
                    "time": 54.28566000000016,
                    "velocity": 0.5511811023622047,
                    "duration": 0.23809500000000128
                },
                {
                    "name": "G#2",
                    "midi": 44,
                    "time": 54.523755000000165,
                    "velocity": 0.48031496062992124,
                    "duration": 0.23809500000000128
                },
                {
                    "name": "G2",
                    "midi": 43,
                    "time": 54.761850000000166,
                    "velocity": 0.5196850393700787,
                    "duration": 0.47619000000000256
                },
                {
                    "name": "C2",
                    "midi": 36,
                    "time": 55.23804000000017,
                    "velocity": 0.6299212598425197,
                    "duration": 0.7142849999999967
                },
                {
                    "name": "C#2",
                    "midi": 37,
                    "time": 55.952325000000165,
                    "velocity": 0.5196850393700787,
                    "duration": 0.23809500000000128
                },
                {
                    "name": "C2",
                    "midi": 36,
                    "time": 56.19042000000017,
                    "velocity": 0.6141732283464567,
                    "duration": 0.23809500000000128
                },
                {
                    "name": "A#2",
                    "midi": 46,
                    "time": 56.42851500000017,
                    "velocity": 0.5196850393700787,
                    "duration": 0.23809500000000128
                },
                {
                    "name": "G#2",
                    "midi": 44,
                    "time": 56.66661000000017,
                    "velocity": 0.5984251968503937,
                    "duration": 0.47619000000000256
                },
                {
                    "name": "C#3",
                    "midi": 49,
                    "time": 57.14280000000017,
                    "velocity": 0.36220472440944884,
                    "duration": 0.7142849999999967
                },
                {
                    "name": "G#2",
                    "midi": 44,
                    "time": 57.85708500000017,
                    "velocity": 0.33858267716535434,
                    "duration": 0.23809500000000128
                },
                {
                    "name": "C#3",
                    "midi": 49,
                    "time": 58.09518000000017,
                    "velocity": 0.36220472440944884,
                    "duration": 0.23809500000000128
                },
                {
                    "name": "D#3",
                    "midi": 51,
                    "time": 58.33327500000017,
                    "velocity": 0.33070866141732286,
                    "duration": 0.23809500000000128
                },
                {
                    "name": "F3",
                    "midi": 53,
                    "time": 58.57137000000017,
                    "velocity": 0.36220472440944884,
                    "duration": 0.23809500000000128
                },
                {
                    "name": "G#2",
                    "midi": 44,
                    "time": 58.80946500000017,
                    "velocity": 0.33858267716535434,
                    "duration": 0.23809500000000128
                },
                {
                    "name": "C#3",
                    "midi": 49,
                    "time": 59.047560000000175,
                    "velocity": 0.36220472440944884,
                    "duration": 0.23809500000000128
                },
                {
                    "name": "C#3",
                    "midi": 49,
                    "time": 59.285655000000176,
                    "velocity": 0.3700787401574803,
                    "duration": 0.23809500000000128
                },
                {
                    "name": "E3",
                    "midi": 52,
                    "time": 59.285655000000176,
                    "velocity": 0.3700787401574803,
                    "duration": 0.23809500000000128
                },
                {
                    "name": "C#3",
                    "midi": 49,
                    "time": 59.52375000000018,
                    "velocity": 0.41732283464566927,
                    "duration": 0.22619025000000192
                },
                {
                    "name": "F3",
                    "midi": 53,
                    "time": 59.52375000000018,
                    "velocity": 0.41732283464566927,
                    "duration": 0.22619025000000192
                },
                {
                    "name": "C#3",
                    "midi": 49,
                    "time": 59.76184500000018,
                    "velocity": 0.4645669291338583,
                    "duration": 0.22619025000000192
                },
                {
                    "name": "F3",
                    "midi": 53,
                    "time": 59.76184500000018,
                    "velocity": 0.4645669291338583,
                    "duration": 0.22619025000000192
                },
                {
                    "name": "C3",
                    "midi": 48,
                    "time": 59.99994000000018,
                    "velocity": 0.5118110236220472,
                    "duration": 0.23809500000000128
                },
                {
                    "name": "G3",
                    "midi": 55,
                    "time": 59.99994000000018,
                    "velocity": 0.5118110236220472,
                    "duration": 0.23809500000000128
                },
                {
                    "name": "C4",
                    "midi": 60,
                    "time": 60.59517750000018,
                    "velocity": 0.3700787401574803,
                    "duration": 0.11904750000000064
                },
                {
                    "name": "A#3",
                    "midi": 58,
                    "time": 60.714225000000184,
                    "velocity": 0.36220472440944884,
                    "duration": 0.11904750000000064
                },
                {
                    "name": "G3",
                    "midi": 55,
                    "time": 60.833272500000184,
                    "velocity": 0.3543307086614173,
                    "duration": 0.11904750000000064
                },
                {
                    "name": "F3",
                    "midi": 53,
                    "time": 60.952320000000185,
                    "velocity": 0.2677165354330709,
                    "duration": 0.11904750000000064
                },
                {
                    "name": "A3",
                    "midi": 57,
                    "time": 61.071367500000186,
                    "velocity": 0.2283464566929134,
                    "duration": 0.11904750000000064
                },
                {
                    "name": "F3",
                    "midi": 53,
                    "time": 61.190415000000186,
                    "velocity": 0.2755905511811024,
                    "duration": 0.11904750000000064
                },
                {
                    "name": "A3",
                    "midi": 57,
                    "time": 61.30946250000019,
                    "velocity": 0.2283464566929134,
                    "duration": 0.11904750000000064
                },
                {
                    "name": "F3",
                    "midi": 53,
                    "time": 61.42851000000019,
                    "velocity": 0.28346456692913385,
                    "duration": 0.11904750000000064
                },
                {
                    "name": "A3",
                    "midi": 57,
                    "time": 61.54755750000019,
                    "velocity": 0.25196850393700787,
                    "duration": 0.11904750000000064
                },
                {
                    "name": "C3",
                    "midi": 48,
                    "time": 61.66660500000019,
                    "velocity": 0.2992125984251969,
                    "duration": 0.11904750000000064
                },
                {
                    "name": "G3",
                    "midi": 55,
                    "time": 61.78565250000019,
                    "velocity": 0.2440944881889764,
                    "duration": 0.11904750000000064
                },
                {
                    "name": "F3",
                    "midi": 53,
                    "time": 61.90470000000019,
                    "velocity": 0.31496062992125984,
                    "duration": 0.11904750000000064
                },
                {
                    "name": "A3",
                    "midi": 57,
                    "time": 62.02374750000019,
                    "velocity": 0.28346456692913385,
                    "duration": 0.11904750000000064
                },
                {
                    "name": "G3",
                    "midi": 55,
                    "time": 62.14279500000019,
                    "velocity": 0.31496062992125984,
                    "duration": 0.11904750000000064
                },
                {
                    "name": "A#3",
                    "midi": 58,
                    "time": 62.26184250000019,
                    "velocity": 0.2755905511811024,
                    "duration": 0.11904750000000064
                },
                {
                    "name": "A3",
                    "midi": 57,
                    "time": 62.38089000000019,
                    "velocity": 0.3464566929133858,
                    "duration": 0.11904750000000064
                },
                {
                    "name": "C4",
                    "midi": 60,
                    "time": 62.49993750000019,
                    "velocity": 0.31496062992125984,
                    "duration": 0.11904750000000064
                },
                {
                    "name": "C3",
                    "midi": 48,
                    "time": 62.618985000000194,
                    "velocity": 0.30708661417322836,
                    "duration": 0.11904750000000064
                },
                {
                    "name": "G3",
                    "midi": 55,
                    "time": 62.738032500000195,
                    "velocity": 0.30708661417322836,
                    "duration": 0.11904750000000064
                },
                {
                    "name": "F3",
                    "midi": 53,
                    "time": 62.857080000000195,
                    "velocity": 0.2677165354330709,
                    "duration": 0.11904750000000064
                },
                {
                    "name": "A3",
                    "midi": 57,
                    "time": 62.976127500000196,
                    "velocity": 0.2283464566929134,
                    "duration": 0.11904750000000064
                },
                {
                    "name": "F3",
                    "midi": 53,
                    "time": 63.0951750000002,
                    "velocity": 0.2755905511811024,
                    "duration": 0.11904750000000064
                },
                {
                    "name": "A3",
                    "midi": 57,
                    "time": 63.2142225000002,
                    "velocity": 0.2283464566929134,
                    "duration": 0.11904750000000064
                },
                {
                    "name": "F3",
                    "midi": 53,
                    "time": 63.3332700000002,
                    "velocity": 0.28346456692913385,
                    "duration": 0.11904750000000064
                },
                {
                    "name": "A3",
                    "midi": 57,
                    "time": 63.4523175000002,
                    "velocity": 0.25196850393700787,
                    "duration": 0.11904750000000064
                },
                {
                    "name": "C3",
                    "midi": 48,
                    "time": 63.5713650000002,
                    "velocity": 0.2992125984251969,
                    "duration": 0.11904750000000064
                },
                {
                    "name": "G3",
                    "midi": 55,
                    "time": 63.6904125000002,
                    "velocity": 0.2440944881889764,
                    "duration": 0.11904750000000064
                },
                {
                    "name": "F3",
                    "midi": 53,
                    "time": 63.8094600000002,
                    "velocity": 0.31496062992125984,
                    "duration": 0.11904750000000064
                },
                {
                    "name": "A3",
                    "midi": 57,
                    "time": 63.9285075000002,
                    "velocity": 0.28346456692913385,
                    "duration": 0.11904750000000064
                },
                {
                    "name": "G3",
                    "midi": 55,
                    "time": 64.0475550000002,
                    "velocity": 0.31496062992125984,
                    "duration": 0.11904749999999353
                },
                {
                    "name": "A#3",
                    "midi": 58,
                    "time": 64.1666025000002,
                    "velocity": 0.2755905511811024,
                    "duration": 0.11904749999999353
                },
                {
                    "name": "A3",
                    "midi": 57,
                    "time": 64.28565000000019,
                    "velocity": 0.3464566929133858,
                    "duration": 0.11904749999999353
                },
                {
                    "name": "C4",
                    "midi": 60,
                    "time": 64.40469750000018,
                    "velocity": 0.31496062992125984,
                    "duration": 0.11904749999999353
                },
                {
                    "name": "F3",
                    "midi": 53,
                    "time": 64.52374500000018,
                    "velocity": 0.30708661417322836,
                    "duration": 0.11904749999999353
                },
                {
                    "name": "A3",
                    "midi": 57,
                    "time": 64.64279250000017,
                    "velocity": 0.30708661417322836,
                    "duration": 0.11904749999999353
                },
                {
                    "name": "A#3",
                    "midi": 58,
                    "time": 64.76184000000016,
                    "velocity": 0.3937007874015748,
                    "duration": 0.7142850000000038
                },
                {
                    "name": "F3",
                    "midi": 53,
                    "time": 65.47612500000017,
                    "velocity": 0.33858267716535434,
                    "duration": 0.23809500000000128
                },
                {
                    "name": "A#3",
                    "midi": 58,
                    "time": 65.71422000000017,
                    "velocity": 0.36220472440944884,
                    "duration": 0.23809500000000128
                },
                {
                    "name": "C4",
                    "midi": 60,
                    "time": 65.95231500000017,
                    "velocity": 0.3700787401574803,
                    "duration": 0.23809500000000128
                },
                {
                    "name": "D4",
                    "midi": 62,
                    "time": 66.19041000000017,
                    "velocity": 0.4015748031496063,
                    "duration": 0.23809500000000128
                },
                {
                    "name": "A#3",
                    "midi": 58,
                    "time": 66.42850500000017,
                    "velocity": 0.3700787401574803,
                    "duration": 0.23809500000000128
                },
                {
                    "name": "A3",
                    "midi": 57,
                    "time": 66.66660000000017,
                    "velocity": 0.36220472440944884,
                    "duration": 0.23809500000000128
                },
                {
                    "name": "C4",
                    "midi": 60,
                    "time": 66.90469500000017,
                    "velocity": 0.3228346456692913,
                    "duration": 0.23809500000000128
                },
                {
                    "name": "D4",
                    "midi": 62,
                    "time": 67.14279000000018,
                    "velocity": 0.3464566929133858,
                    "duration": 0.23809500000000128
                },
                {
                    "name": "G3",
                    "midi": 55,
                    "time": 67.38088500000018,
                    "velocity": 0.2992125984251969,
                    "duration": 0.11904749999999353
                },
                {
                    "name": "C3",
                    "midi": 48,
                    "time": 67.61898000000016,
                    "velocity": 0.31496062992125984,
                    "duration": 0.47619000000000256
                },
                {
                    "name": "F3",
                    "midi": 53,
                    "time": 68.09517000000017,
                    "velocity": 0.29133858267716534,
                    "duration": 0.23809500000000128
                },
                {
                    "name": "C2",
                    "midi": 36,
                    "time": 68.57136000000017,
                    "velocity": 0.6141732283464567,
                    "duration": 0.7142850000000038
                },
                {
                    "name": "C#2",
                    "midi": 37,
                    "time": 69.28564500000017,
                    "velocity": 0.4566929133858268,
                    "duration": 0.23809500000000128
                },
                {
                    "name": "C2",
                    "midi": 36,
                    "time": 69.52374000000017,
                    "velocity": 0.5511811023622047,
                    "duration": 0.23809500000000128
                },
                {
                    "name": "G#2",
                    "midi": 44,
                    "time": 69.76183500000018,
                    "velocity": 0.48031496062992124,
                    "duration": 0.23809500000000128
                },
                {
                    "name": "G2",
                    "midi": 43,
                    "time": 69.99993000000018,
                    "velocity": 0.5196850393700787,
                    "duration": 0.47619000000000256
                },
                {
                    "name": "C2",
                    "midi": 36,
                    "time": 70.47612000000018,
                    "velocity": 0.6299212598425197,
                    "duration": 0.7142850000000038
                },
                {
                    "name": "C#2",
                    "midi": 37,
                    "time": 71.19040500000018,
                    "velocity": 0.5196850393700787,
                    "duration": 0.23809500000000128
                },
                {
                    "name": "C2",
                    "midi": 36,
                    "time": 71.42850000000018,
                    "velocity": 0.6141732283464567,
                    "duration": 0.23809500000000128
                },
                {
                    "name": "A#2",
                    "midi": 46,
                    "time": 71.66659500000019,
                    "velocity": 0.5196850393700787,
                    "duration": 0.23809500000000128
                },
                {
                    "name": "G#2",
                    "midi": 44,
                    "time": 71.90469000000019,
                    "velocity": 0.5984251968503937,
                    "duration": 0.47619000000000256
                },
                {
                    "name": "C#3",
                    "midi": 49,
                    "time": 72.38088000000019,
                    "velocity": 0.36220472440944884,
                    "duration": 0.7142850000000038
                },
                {
                    "name": "G#2",
                    "midi": 44,
                    "time": 73.0951650000002,
                    "velocity": 0.33858267716535434,
                    "duration": 0.23809500000000128
                },
                {
                    "name": "C#3",
                    "midi": 49,
                    "time": 73.3332600000002,
                    "velocity": 0.36220472440944884,
                    "duration": 0.23809500000000128
                },
                {
                    "name": "D#3",
                    "midi": 51,
                    "time": 73.5713550000002,
                    "velocity": 0.33070866141732286,
                    "duration": 0.23809500000000128
                },
                {
                    "name": "F3",
                    "midi": 53,
                    "time": 73.8094500000002,
                    "velocity": 0.36220472440944884,
                    "duration": 0.23809500000000128
                },
                {
                    "name": "G#2",
                    "midi": 44,
                    "time": 74.0475450000002,
                    "velocity": 0.33858267716535434,
                    "duration": 0.23809500000000128
                },
                {
                    "name": "C#3",
                    "midi": 49,
                    "time": 74.2856400000002,
                    "velocity": 0.36220472440944884,
                    "duration": 0.23809500000000128
                },
                {
                    "name": "C#3",
                    "midi": 49,
                    "time": 74.5237350000002,
                    "velocity": 0.3700787401574803,
                    "duration": 0.23809500000000128
                },
                {
                    "name": "E3",
                    "midi": 52,
                    "time": 74.5237350000002,
                    "velocity": 0.3700787401574803,
                    "duration": 0.23809500000000128
                },
                {
                    "name": "C#3",
                    "midi": 49,
                    "time": 74.7618300000002,
                    "velocity": 0.41732283464566927,
                    "duration": 0.22619025000000192
                },
                {
                    "name": "F3",
                    "midi": 53,
                    "time": 74.7618300000002,
                    "velocity": 0.41732283464566927,
                    "duration": 0.22619025000000192
                },
                {
                    "name": "C#3",
                    "midi": 49,
                    "time": 74.9999250000002,
                    "velocity": 0.4645669291338583,
                    "duration": 0.22619025000000192
                },
                {
                    "name": "F3",
                    "midi": 53,
                    "time": 74.9999250000002,
                    "velocity": 0.4645669291338583,
                    "duration": 0.22619025000000192
                },
                {
                    "name": "C3",
                    "midi": 48,
                    "time": 75.2380200000002,
                    "velocity": 0.5118110236220472,
                    "duration": 0.23809500000000128
                },
                {
                    "name": "G3",
                    "midi": 55,
                    "time": 75.2380200000002,
                    "velocity": 0.5118110236220472,
                    "duration": 0.23809500000000128
                },
                {
                    "name": "C4",
                    "midi": 60,
                    "time": 75.8332575000002,
                    "velocity": 0.3700787401574803,
                    "duration": 0.11904749999999353
                },
                {
                    "name": "A#3",
                    "midi": 58,
                    "time": 75.9523050000002,
                    "velocity": 0.36220472440944884,
                    "duration": 0.11904749999999353
                },
                {
                    "name": "G3",
                    "midi": 55,
                    "time": 76.07135250000019,
                    "velocity": 0.3543307086614173,
                    "duration": 0.11904749999999353
                },
                {
                    "name": "F3",
                    "midi": 53,
                    "time": 76.19040000000018,
                    "velocity": 0.2677165354330709,
                    "duration": 0.11904749999999353
                },
                {
                    "name": "A3",
                    "midi": 57,
                    "time": 76.30944750000018,
                    "velocity": 0.2283464566929134,
                    "duration": 0.11904749999999353
                },
                {
                    "name": "F3",
                    "midi": 53,
                    "time": 76.42849500000017,
                    "velocity": 0.2755905511811024,
                    "duration": 0.11904749999999353
                },
                {
                    "name": "A3",
                    "midi": 57,
                    "time": 76.54754250000016,
                    "velocity": 0.2283464566929134,
                    "duration": 0.11904749999999353
                },
                {
                    "name": "F3",
                    "midi": 53,
                    "time": 76.66659000000016,
                    "velocity": 0.28346456692913385,
                    "duration": 0.11904749999999353
                },
                {
                    "name": "A3",
                    "midi": 57,
                    "time": 76.78563750000015,
                    "velocity": 0.25196850393700787,
                    "duration": 0.11904749999999353
                },
                {
                    "name": "C3",
                    "midi": 48,
                    "time": 76.90468500000014,
                    "velocity": 0.2992125984251969,
                    "duration": 0.11904749999999353
                },
                {
                    "name": "G3",
                    "midi": 55,
                    "time": 77.02373250000014,
                    "velocity": 0.2440944881889764,
                    "duration": 0.11904749999999353
                },
                {
                    "name": "F3",
                    "midi": 53,
                    "time": 77.14278000000013,
                    "velocity": 0.31496062992125984,
                    "duration": 0.11904749999999353
                },
                {
                    "name": "A3",
                    "midi": 57,
                    "time": 77.26182750000012,
                    "velocity": 0.28346456692913385,
                    "duration": 0.11904749999999353
                },
                {
                    "name": "G3",
                    "midi": 55,
                    "time": 77.38087500000012,
                    "velocity": 0.31496062992125984,
                    "duration": 0.11904749999999353
                },
                {
                    "name": "A#3",
                    "midi": 58,
                    "time": 77.49992250000011,
                    "velocity": 0.2755905511811024,
                    "duration": 0.11904749999999353
                },
                {
                    "name": "A3",
                    "midi": 57,
                    "time": 77.6189700000001,
                    "velocity": 0.3464566929133858,
                    "duration": 0.11904749999999353
                },
                {
                    "name": "C4",
                    "midi": 60,
                    "time": 77.7380175000001,
                    "velocity": 0.31496062992125984,
                    "duration": 0.11904749999999353
                },
                {
                    "name": "C3",
                    "midi": 48,
                    "time": 77.85706500000009,
                    "velocity": 0.30708661417322836,
                    "duration": 0.11904749999999353
                },
                {
                    "name": "G3",
                    "midi": 55,
                    "time": 77.97611250000008,
                    "velocity": 0.30708661417322836,
                    "duration": 0.11904749999999353
                },
                {
                    "name": "F3",
                    "midi": 53,
                    "time": 78.09516000000008,
                    "velocity": 0.2677165354330709,
                    "duration": 0.11904749999999353
                },
                {
                    "name": "A3",
                    "midi": 57,
                    "time": 78.21420750000007,
                    "velocity": 0.2283464566929134,
                    "duration": 0.11904749999999353
                },
                {
                    "name": "F3",
                    "midi": 53,
                    "time": 78.33325500000007,
                    "velocity": 0.2755905511811024,
                    "duration": 0.11904749999999353
                },
                {
                    "name": "A3",
                    "midi": 57,
                    "time": 78.45230250000006,
                    "velocity": 0.2283464566929134,
                    "duration": 0.11904749999999353
                },
                {
                    "name": "F3",
                    "midi": 53,
                    "time": 78.57135000000005,
                    "velocity": 0.28346456692913385,
                    "duration": 0.11904749999999353
                },
                {
                    "name": "A3",
                    "midi": 57,
                    "time": 78.69039750000005,
                    "velocity": 0.25196850393700787,
                    "duration": 0.11904749999999353
                },
                {
                    "name": "C3",
                    "midi": 48,
                    "time": 78.80944500000004,
                    "velocity": 0.2992125984251969,
                    "duration": 0.11904749999999353
                },
                {
                    "name": "G3",
                    "midi": 55,
                    "time": 78.92849250000003,
                    "velocity": 0.2440944881889764,
                    "duration": 0.11904749999999353
                },
                {
                    "name": "F3",
                    "midi": 53,
                    "time": 79.04754000000003,
                    "velocity": 0.31496062992125984,
                    "duration": 0.11904749999999353
                },
                {
                    "name": "A3",
                    "midi": 57,
                    "time": 79.16658750000002,
                    "velocity": 0.28346456692913385,
                    "duration": 0.11904749999999353
                },
                {
                    "name": "G3",
                    "midi": 55,
                    "time": 79.28563500000001,
                    "velocity": 0.31496062992125984,
                    "duration": 0.11904749999999353
                },
                {
                    "name": "A#3",
                    "midi": 58,
                    "time": 79.4046825,
                    "velocity": 0.2755905511811024,
                    "duration": 0.11904749999999353
                },
                {
                    "name": "A3",
                    "midi": 57,
                    "time": 79.52373,
                    "velocity": 0.3464566929133858,
                    "duration": 0.11904749999999353
                },
                {
                    "name": "C4",
                    "midi": 60,
                    "time": 79.6427775,
                    "velocity": 0.31496062992125984,
                    "duration": 0.11904749999999353
                },
                {
                    "name": "F3",
                    "midi": 53,
                    "time": 79.76182499999999,
                    "velocity": 0.30708661417322836,
                    "duration": 0.11904749999999353
                },
                {
                    "name": "A3",
                    "midi": 57,
                    "time": 79.88087249999998,
                    "velocity": 0.30708661417322836,
                    "duration": 0.11904749999999353
                },
                {
                    "name": "A#3",
                    "midi": 58,
                    "time": 79.99991999999997,
                    "velocity": 0.3937007874015748,
                    "duration": 0.7142850000000038
                },
                {
                    "name": "F3",
                    "midi": 53,
                    "time": 80.71420499999998,
                    "velocity": 0.33858267716535434,
                    "duration": 0.23809500000000128
                },
                {
                    "name": "A#3",
                    "midi": 58,
                    "time": 80.95229999999998,
                    "velocity": 0.36220472440944884,
                    "duration": 0.23809500000000128
                },
                {
                    "name": "C4",
                    "midi": 60,
                    "time": 81.19039499999998,
                    "velocity": 0.3700787401574803,
                    "duration": 0.23809500000000128
                },
                {
                    "name": "D4",
                    "midi": 62,
                    "time": 81.42848999999998,
                    "velocity": 0.4015748031496063,
                    "duration": 0.23809500000000128
                },
                {
                    "name": "A#3",
                    "midi": 58,
                    "time": 81.66658499999998,
                    "velocity": 0.3700787401574803,
                    "duration": 0.23809500000000128
                },
                {
                    "name": "A3",
                    "midi": 57,
                    "time": 81.90467999999998,
                    "velocity": 0.36220472440944884,
                    "duration": 0.23809500000000128
                },
                {
                    "name": "C4",
                    "midi": 60,
                    "time": 82.14277499999999,
                    "velocity": 0.3228346456692913,
                    "duration": 0.23809500000000128
                },
                {
                    "name": "D4",
                    "midi": 62,
                    "time": 82.38086999999999,
                    "velocity": 0.3464566929133858,
                    "duration": 0.23809500000000128
                },
                {
                    "name": "G3",
                    "midi": 55,
                    "time": 82.61896499999999,
                    "velocity": 0.2992125984251969,
                    "duration": 0.11904749999999353
                },
                {
                    "name": "C3",
                    "midi": 48,
                    "time": 82.85705999999998,
                    "velocity": 0.31496062992125984,
                    "duration": 0.47619000000000256
                },
                {
                    "name": "F3",
                    "midi": 53,
                    "time": 83.33324999999998,
                    "velocity": 0.29133858267716534,
                    "duration": 0.23809500000000128
                },
                {
                    "name": "A1",
                    "midi": 33,
                    "time": 83.80943999999998,
                    "velocity": 0.5275590551181102,
                    "duration": 0.11904749999999353
                },
                {
                    "name": "B1",
                    "midi": 35,
                    "time": 83.92848749999997,
                    "velocity": 0.47244094488188976,
                    "duration": 0.11904749999999353
                },
                {
                    "name": "A1",
                    "midi": 33,
                    "time": 84.04753499999997,
                    "velocity": 0.5118110236220472,
                    "duration": 0.11904749999999353
                },
                {
                    "name": "B1",
                    "midi": 35,
                    "time": 84.16658249999996,
                    "velocity": 0.47244094488188976,
                    "duration": 0.11904749999999353
                },
                {
                    "name": "C2",
                    "midi": 36,
                    "time": 84.28562999999995,
                    "velocity": 0.5354330708661418,
                    "duration": 0.11904749999999353
                },
                {
                    "name": "B1",
                    "midi": 35,
                    "time": 84.40467749999995,
                    "velocity": 0.47244094488188976,
                    "duration": 0.11904749999999353
                },
                {
                    "name": "C2",
                    "midi": 36,
                    "time": 84.52372499999994,
                    "velocity": 0.5275590551181102,
                    "duration": 0.11904749999999353
                },
                {
                    "name": "B1",
                    "midi": 35,
                    "time": 84.64277249999994,
                    "velocity": 0.47244094488188976,
                    "duration": 0.11904749999999353
                },
                {
                    "name": "A1",
                    "midi": 33,
                    "time": 84.76181999999993,
                    "velocity": 0.5511811023622047,
                    "duration": 0.23809500000000128
                },
                {
                    "name": "B1",
                    "midi": 35,
                    "time": 84.99991499999993,
                    "velocity": 0.47244094488188976,
                    "duration": 0.11904749999999353
                },
                {
                    "name": "C2",
                    "midi": 36,
                    "time": 85.23800999999992,
                    "velocity": 0.5433070866141733,
                    "duration": 0.23809500000000128
                },
                {
                    "name": "E2",
                    "midi": 40,
                    "time": 85.47610499999992,
                    "velocity": 0.47244094488188976,
                    "duration": 0.11904749999999353
                },
                {
                    "name": "A2",
                    "midi": 45,
                    "time": 85.7141999999999,
                    "velocity": 0.5433070866141733,
                    "duration": 0.23809500000000128
                },
                {
                    "name": "B2",
                    "midi": 47,
                    "time": 85.9522949999999,
                    "velocity": 0.47244094488188976,
                    "duration": 0.11904749999999353
                },
                {
                    "name": "C3",
                    "midi": 48,
                    "time": 86.1903899999999,
                    "velocity": 0.5433070866141733,
                    "duration": 0.23809500000000128
                },
                {
                    "name": "E3",
                    "midi": 52,
                    "time": 86.4284849999999,
                    "velocity": 0.47244094488188976,
                    "duration": 0.11904749999999353
                },
                {
                    "name": "E3",
                    "midi": 52,
                    "time": 86.66657999999988,
                    "velocity": 0.5275590551181102,
                    "duration": 0.23809500000000128
                },
                {
                    "name": "E3",
                    "midi": 52,
                    "time": 86.90467499999988,
                    "velocity": 0.47244094488188976,
                    "duration": 0.23809500000000128
                },
                {
                    "name": "A3",
                    "midi": 57,
                    "time": 87.14276999999989,
                    "velocity": 0.5511811023622047,
                    "duration": 0.47619000000000256
                },
                {
                    "name": "A1",
                    "midi": 33,
                    "time": 87.61895999999989,
                    "velocity": 0.5275590551181102,
                    "duration": 0.11904749999999353
                },
                {
                    "name": "B1",
                    "midi": 35,
                    "time": 87.73800749999988,
                    "velocity": 0.47244094488188976,
                    "duration": 0.11904749999999353
                },
                {
                    "name": "A1",
                    "midi": 33,
                    "time": 87.85705499999987,
                    "velocity": 0.5118110236220472,
                    "duration": 0.11904749999999353
                },
                {
                    "name": "B1",
                    "midi": 35,
                    "time": 87.97610249999987,
                    "velocity": 0.47244094488188976,
                    "duration": 0.11904749999999353
                },
                {
                    "name": "C2",
                    "midi": 36,
                    "time": 88.09514999999986,
                    "velocity": 0.5354330708661418,
                    "duration": 0.11904749999999353
                },
                {
                    "name": "B1",
                    "midi": 35,
                    "time": 88.21419749999986,
                    "velocity": 0.47244094488188976,
                    "duration": 0.11904749999999353
                },
                {
                    "name": "C2",
                    "midi": 36,
                    "time": 88.33324499999985,
                    "velocity": 0.5275590551181102,
                    "duration": 0.11904749999999353
                },
                {
                    "name": "B1",
                    "midi": 35,
                    "time": 88.45229249999984,
                    "velocity": 0.47244094488188976,
                    "duration": 0.11904749999999353
                },
                {
                    "name": "A1",
                    "midi": 33,
                    "time": 88.57133999999984,
                    "velocity": 0.5511811023622047,
                    "duration": 0.23809500000000128
                },
                {
                    "name": "B1",
                    "midi": 35,
                    "time": 88.80943499999984,
                    "velocity": 0.47244094488188976,
                    "duration": 0.11904749999999353
                },
                {
                    "name": "C2",
                    "midi": 36,
                    "time": 89.04752999999982,
                    "velocity": 0.5433070866141733,
                    "duration": 0.23809500000000128
                },
                {
                    "name": "E2",
                    "midi": 40,
                    "time": 89.28562499999983,
                    "velocity": 0.47244094488188976,
                    "duration": 0.11904749999999353
                },
                {
                    "name": "A2",
                    "midi": 45,
                    "time": 89.52371999999981,
                    "velocity": 0.5433070866141733,
                    "duration": 0.23809500000000128
                },
                {
                    "name": "B2",
                    "midi": 47,
                    "time": 89.76181499999981,
                    "velocity": 0.47244094488188976,
                    "duration": 0.11904749999999353
                },
                {
                    "name": "C3",
                    "midi": 48,
                    "time": 89.9999099999998,
                    "velocity": 0.5433070866141733,
                    "duration": 0.23809500000000128
                },
                {
                    "name": "E3",
                    "midi": 52,
                    "time": 90.2380049999998,
                    "velocity": 0.47244094488188976,
                    "duration": 0.11904749999999353
                },
                {
                    "name": "E3",
                    "midi": 52,
                    "time": 90.47609999999979,
                    "velocity": 0.5275590551181102,
                    "duration": 0.23809500000000128
                },
                {
                    "name": "E3",
                    "midi": 52,
                    "time": 90.71419499999979,
                    "velocity": 0.47244094488188976,
                    "duration": 0.23809500000000128
                },
                {
                    "name": "A3",
                    "midi": 57,
                    "time": 90.95228999999979,
                    "velocity": 0.5511811023622047,
                    "duration": 0.47619000000000256
                },
                {
                    "name": "A#2",
                    "midi": 46,
                    "time": 91.4284799999998,
                    "velocity": 0.5275590551181102,
                    "duration": 0.11904749999999353
                },
                {
                    "name": "A2",
                    "midi": 45,
                    "time": 91.54752749999979,
                    "velocity": 0.47244094488188976,
                    "duration": 0.11904749999999353
                },
                {
                    "name": "A#2",
                    "midi": 46,
                    "time": 91.66657499999978,
                    "velocity": 0.5118110236220472,
                    "duration": 0.11904749999999353
                },
                {
                    "name": "A2",
                    "midi": 45,
                    "time": 91.78562249999977,
                    "velocity": 0.47244094488188976,
                    "duration": 0.11904749999999353
                },
                {
                    "name": "G2",
                    "midi": 43,
                    "time": 91.90466999999977,
                    "velocity": 0.5354330708661418,
                    "duration": 0.11904749999999353
                },
                {
                    "name": "A2",
                    "midi": 45,
                    "time": 92.02371749999976,
                    "velocity": 0.47244094488188976,
                    "duration": 0.11904749999999353
                },
                {
                    "name": "G2",
                    "midi": 43,
                    "time": 92.14276499999976,
                    "velocity": 0.5275590551181102,
                    "duration": 0.11904749999999353
                },
                {
                    "name": "A2",
                    "midi": 45,
                    "time": 92.26181249999975,
                    "velocity": 0.47244094488188976,
                    "duration": 0.11904749999999353
                },
                {
                    "name": "A#2",
                    "midi": 46,
                    "time": 92.38085999999974,
                    "velocity": 0.5511811023622047,
                    "duration": 0.23809500000000128
                },
                {
                    "name": "G2",
                    "midi": 43,
                    "time": 92.61895499999974,
                    "velocity": 0.47244094488188976,
                    "duration": 0.11904749999999353
                },
                {
                    "name": "G2",
                    "midi": 43,
                    "time": 92.85704999999973,
                    "velocity": 0.5433070866141733,
                    "duration": 0.23809500000000128
                },
                {
                    "name": "E2",
                    "midi": 40,
                    "time": 93.09514499999973,
                    "velocity": 0.47244094488188976,
                    "duration": 0.11904749999999353
                },
                {
                    "name": "C#2",
                    "midi": 37,
                    "time": 93.33323999999972,
                    "velocity": 0.5433070866141733,
                    "duration": 0.23809500000000128
                },
                {
                    "name": "E2",
                    "midi": 40,
                    "time": 93.57133499999972,
                    "velocity": 0.47244094488188976,
                    "duration": 0.11904749999999353
                },
                {
                    "name": "E2",
                    "midi": 40,
                    "time": 93.80942999999971,
                    "velocity": 0.5433070866141733,
                    "duration": 0.23809500000000128
                },
                {
                    "name": "G2",
                    "midi": 43,
                    "time": 94.04752499999971,
                    "velocity": 0.47244094488188976,
                    "duration": 0.11904749999999353
                },
                {
                    "name": "A2",
                    "midi": 45,
                    "time": 94.2856199999997,
                    "velocity": 0.5275590551181102,
                    "duration": 0.23809500000000128
                },
                {
                    "name": "A2",
                    "midi": 45,
                    "time": 94.5237149999997,
                    "velocity": 0.47244094488188976,
                    "duration": 0.23809500000000128
                },
                {
                    "name": "D3",
                    "midi": 50,
                    "time": 94.7618099999997,
                    "velocity": 0.5511811023622047,
                    "duration": 0.47619000000000256
                },
                {
                    "name": "C3",
                    "midi": 48,
                    "time": 95.2379999999997,
                    "velocity": 0.5275590551181102,
                    "duration": 0.11904749999999353
                },
                {
                    "name": "B2",
                    "midi": 47,
                    "time": 95.3570474999997,
                    "velocity": 0.47244094488188976,
                    "duration": 0.11904749999999353
                },
                {
                    "name": "C3",
                    "midi": 48,
                    "time": 95.47609499999969,
                    "velocity": 0.5118110236220472,
                    "duration": 0.11904749999999353
                },
                {
                    "name": "B2",
                    "midi": 47,
                    "time": 95.59514249999968,
                    "velocity": 0.47244094488188976,
                    "duration": 0.11904749999999353
                },
                {
                    "name": "A2",
                    "midi": 45,
                    "time": 95.71418999999968,
                    "velocity": 0.5354330708661418,
                    "duration": 0.11904749999999353
                },
                {
                    "name": "B2",
                    "midi": 47,
                    "time": 95.83323749999967,
                    "velocity": 0.47244094488188976,
                    "duration": 0.11904749999999353
                },
                {
                    "name": "A2",
                    "midi": 45,
                    "time": 95.95228499999966,
                    "velocity": 0.5275590551181102,
                    "duration": 0.11904749999999353
                },
                {
                    "name": "B2",
                    "midi": 47,
                    "time": 96.07133249999966,
                    "velocity": 0.47244094488188976,
                    "duration": 0.11904749999999353
                },
                {
                    "name": "C3",
                    "midi": 48,
                    "time": 96.19037999999965,
                    "velocity": 0.5511811023622047,
                    "duration": 0.23809500000000128
                },
                {
                    "name": "A2",
                    "midi": 45,
                    "time": 96.42847499999965,
                    "velocity": 0.47244094488188976,
                    "duration": 0.11904749999999353
                },
                {
                    "name": "A2",
                    "midi": 45,
                    "time": 96.66656999999964,
                    "velocity": 0.5433070866141733,
                    "duration": 0.23809500000000128
                },
                {
                    "name": "F#2",
                    "midi": 42,
                    "time": 96.90466499999964,
                    "velocity": 0.47244094488188976,
                    "duration": 0.11904749999999353
                },
                {
                    "name": "D#2",
                    "midi": 39,
                    "time": 97.14275999999963,
                    "velocity": 0.5433070866141733,
                    "duration": 0.23809500000000128
                },
                {
                    "name": "F#2",
                    "midi": 42,
                    "time": 97.38085499999963,
                    "velocity": 0.47244094488188976,
                    "duration": 0.11904749999999353
                },
                {
                    "name": "F#2",
                    "midi": 42,
                    "time": 97.61894999999961,
                    "velocity": 0.5433070866141733,
                    "duration": 0.23809500000000128
                },
                {
                    "name": "A2",
                    "midi": 45,
                    "time": 97.85704499999962,
                    "velocity": 0.47244094488188976,
                    "duration": 0.11904749999999353
                },
                {
                    "name": "B2",
                    "midi": 47,
                    "time": 98.0951399999996,
                    "velocity": 0.5275590551181102,
                    "duration": 0.23809500000000128
                },
                {
                    "name": "B2",
                    "midi": 47,
                    "time": 98.3332349999996,
                    "velocity": 0.47244094488188976,
                    "duration": 0.23809500000000128
                },
                {
                    "name": "E3",
                    "midi": 52,
                    "time": 98.5713299999996,
                    "velocity": 0.5511811023622047,
                    "duration": 0.47619000000000256
                },
                {
                    "name": "A2",
                    "midi": 45,
                    "time": 99.04751999999961,
                    "velocity": 0.5748031496062992,
                    "duration": 0.11904749999999353
                },
                {
                    "name": "B2",
                    "midi": 47,
                    "time": 99.1665674999996,
                    "velocity": 0.5196850393700787,
                    "duration": 0.11904749999999353
                },
                {
                    "name": "A2",
                    "midi": 45,
                    "time": 99.2856149999996,
                    "velocity": 0.5590551181102362,
                    "duration": 0.11904749999999353
                },
                {
                    "name": "B2",
                    "midi": 47,
                    "time": 99.40466249999959,
                    "velocity": 0.5196850393700787,
                    "duration": 0.11904749999999353
                },
                {
                    "name": "C3",
                    "midi": 48,
                    "time": 99.52370999999958,
                    "velocity": 0.5826771653543307,
                    "duration": 0.11904749999999353
                },
                {
                    "name": "B2",
                    "midi": 47,
                    "time": 99.64275749999958,
                    "velocity": 0.5196850393700787,
                    "duration": 0.11904749999999353
                },
                {
                    "name": "C3",
                    "midi": 48,
                    "time": 99.76180499999957,
                    "velocity": 0.5748031496062992,
                    "duration": 0.11904749999999353
                },
                {
                    "name": "B2",
                    "midi": 47,
                    "time": 99.88085249999956,
                    "velocity": 0.5196850393700787,
                    "duration": 0.11904749999999353
                },
                {
                    "name": "A2",
                    "midi": 45,
                    "time": 99.99989999999956,
                    "velocity": 0.6062992125984252,
                    "duration": 0.23809500000000128
                },
                {
                    "name": "B2",
                    "midi": 47,
                    "time": 100.23799499999956,
                    "velocity": 0.5196850393700787,
                    "duration": 0.11904749999999353
                },
                {
                    "name": "C3",
                    "midi": 48,
                    "time": 100.47608999999954,
                    "velocity": 0.5905511811023622,
                    "duration": 0.23809500000000128
                },
                {
                    "name": "E3",
                    "midi": 52,
                    "time": 100.71418499999955,
                    "velocity": 0.5196850393700787,
                    "duration": 0.11904749999999353
                },
                {
                    "name": "A3",
                    "midi": 57,
                    "time": 100.95227999999953,
                    "velocity": 0.5905511811023622,
                    "duration": 0.23809500000000128
                },
                {
                    "name": "B3",
                    "midi": 59,
                    "time": 101.19037499999953,
                    "velocity": 0.5196850393700787,
                    "duration": 0.11904749999999353
                },
                {
                    "name": "C4",
                    "midi": 60,
                    "time": 101.42846999999952,
                    "velocity": 0.5905511811023622,
                    "duration": 0.23809500000000128
                },
                {
                    "name": "E4",
                    "midi": 64,
                    "time": 101.66656499999952,
                    "velocity": 0.5196850393700787,
                    "duration": 0.11904749999999353
                },
                {
                    "name": "E3",
                    "midi": 52,
                    "time": 101.90465999999951,
                    "velocity": 0.6220472440944882,
                    "duration": 0.23809500000000128
                },
                {
                    "name": "E3",
                    "midi": 52,
                    "time": 102.14275499999951,
                    "velocity": 0.5433070866141733,
                    "duration": 0.23809500000000128
                },
                {
                    "name": "A3",
                    "midi": 57,
                    "time": 102.38084999999951,
                    "velocity": 0.6299212598425197,
                    "duration": 0.23809500000000128
                },
                {
                    "name": "A2",
                    "midi": 45,
                    "time": 102.61894499999951,
                    "velocity": 0.5669291338582677,
                    "duration": 0.23809500000000128
                },
                {
                    "name": "D3",
                    "midi": 50,
                    "time": 102.85703999999951,
                    "velocity": 0.6771653543307087,
                    "duration": 0.11904749999999353
                },
                {
                    "name": "E3",
                    "midi": 52,
                    "time": 102.97608749999951,
                    "velocity": 0.5748031496062992,
                    "duration": 0.11904749999999353
                },
                {
                    "name": "D3",
                    "midi": 50,
                    "time": 103.0951349999995,
                    "velocity": 0.6141732283464567,
                    "duration": 0.11904749999999353
                },
                {
                    "name": "E3",
                    "midi": 52,
                    "time": 103.2141824999995,
                    "velocity": 0.5433070866141733,
                    "duration": 0.11904749999999353
                },
                {
                    "name": "F3",
                    "midi": 53,
                    "time": 103.33322999999949,
                    "velocity": 0.5590551181102362,
                    "duration": 0.11904749999999353
                },
                {
                    "name": "E3",
                    "midi": 52,
                    "time": 103.45227749999948,
                    "velocity": 0.49606299212598426,
                    "duration": 0.11904749999999353
                },
                {
                    "name": "F3",
                    "midi": 53,
                    "time": 103.57132499999948,
                    "velocity": 0.5511811023622047,
                    "duration": 0.11904749999999353
                },
                {
                    "name": "E3",
                    "midi": 52,
                    "time": 103.69037249999947,
                    "velocity": 0.49606299212598426,
                    "duration": 0.11904749999999353
                },
                {
                    "name": "D3",
                    "midi": 50,
                    "time": 103.80941999999946,
                    "velocity": 0.5748031496062992,
                    "duration": 0.23809500000000128
                },
                {
                    "name": "E3",
                    "midi": 52,
                    "time": 104.04751499999946,
                    "velocity": 0.49606299212598426,
                    "duration": 0.11904749999999353
                },
                {
                    "name": "F3",
                    "midi": 53,
                    "time": 104.28560999999945,
                    "velocity": 0.5669291338582677,
                    "duration": 0.23809500000000128
                },
                {
                    "name": "A3",
                    "midi": 57,
                    "time": 104.52370499999945,
                    "velocity": 0.49606299212598426,
                    "duration": 0.11904749999999353
                },
                {
                    "name": "D4",
                    "midi": 62,
                    "time": 104.76179999999944,
                    "velocity": 0.5669291338582677,
                    "duration": 0.23809500000000128
                },
                {
                    "name": "E4",
                    "midi": 64,
                    "time": 104.99989499999944,
                    "velocity": 0.49606299212598426,
                    "duration": 0.11904749999999353
                },
                {
                    "name": "F4",
                    "midi": 65,
                    "time": 105.23798999999943,
                    "velocity": 0.5669291338582677,
                    "duration": 0.23809500000000128
                },
                {
                    "name": "A4",
                    "midi": 69,
                    "time": 105.47608499999943,
                    "velocity": 0.49606299212598426,
                    "duration": 0.11904749999999353
                },
                {
                    "name": "E4",
                    "midi": 64,
                    "time": 105.71417999999942,
                    "velocity": 0.5511811023622047,
                    "duration": 0.23809500000000128
                },
                {
                    "name": "E4",
                    "midi": 64,
                    "time": 105.95227499999942,
                    "velocity": 0.49606299212598426,
                    "duration": 0.23809500000000128
                },
                {
                    "name": "A4",
                    "midi": 69,
                    "time": 106.19036999999942,
                    "velocity": 0.5748031496062992,
                    "duration": 0.47619000000000256
                }
            ],
            "controlChanges": {},
            "id": 2,
            "name": "Piano left",
            "instrumentNumber": 0,
            "instrument": "acoustic grand piano",
            "instrumentFamily": "piano",
            "channelNumber": 0,
            "isPercussion": false
        },
        {
            "startTime": 0,
            "duration": 0,
            "length": 0,
            "notes": [],
            "controlChanges": {
                "64": [
                    {
                        "number": 64,
                        "time": 1.0158719999999999,
                        "value": 1
                    },
                    {
                        "number": 64,
                        "time": 1.2003956249999999,
                        "value": 0
                    },
                    {
                        "number": 64,
                        "time": 1.4851175625,
                        "value": 1
                    },
                    {
                        "number": 64,
                        "time": 1.6795618124999998,
                        "value": 0
                    },
                    {
                        "number": 64,
                        "time": 1.9613075624999998,
                        "value": 1
                    },
                    {
                        "number": 64,
                        "time": 2.1577359375,
                        "value": 0
                    },
                    {
                        "number": 64,
                        "time": 2.4652753125,
                        "value": 1
                    },
                    {
                        "number": 64,
                        "time": 2.63094975,
                        "value": 0
                    },
                    {
                        "number": 64,
                        "time": 2.8799574375,
                        "value": 1
                    },
                    {
                        "number": 64,
                        "time": 3.3402744374999997,
                        "value": 0
                    },
                    {
                        "number": 64,
                        "time": 3.4811473124999996,
                        "value": 1
                    },
                    {
                        "number": 64,
                        "time": 3.8095199999999996,
                        "value": 0
                    },
                    {
                        "number": 64,
                        "time": 4.825391999999999,
                        "value": 1
                    },
                    {
                        "number": 64,
                        "time": 5.009915624999999,
                        "value": 0
                    },
                    {
                        "number": 64,
                        "time": 5.294637562499998,
                        "value": 1
                    },
                    {
                        "number": 64,
                        "time": 5.4890818124999985,
                        "value": 0
                    },
                    {
                        "number": 64,
                        "time": 5.770827562499998,
                        "value": 1
                    },
                    {
                        "number": 64,
                        "time": 5.967255937499998,
                        "value": 0
                    },
                    {
                        "number": 64,
                        "time": 6.2747953124999984,
                        "value": 1
                    },
                    {
                        "number": 64,
                        "time": 6.440469749999998,
                        "value": 0
                    },
                    {
                        "number": 64,
                        "time": 6.689477437499998,
                        "value": 1
                    },
                    {
                        "number": 64,
                        "time": 7.149794437499998,
                        "value": 0
                    },
                    {
                        "number": 64,
                        "time": 7.290667312499998,
                        "value": 1
                    },
                    {
                        "number": 64,
                        "time": 7.619039999999998,
                        "value": 0
                    },
                    {
                        "number": 64,
                        "time": 8.654753249999999,
                        "value": 1
                    },
                    {
                        "number": 64,
                        "time": 8.839276875,
                        "value": 0
                    },
                    {
                        "number": 64,
                        "time": 9.1239988125,
                        "value": 1
                    },
                    {
                        "number": 64,
                        "time": 9.3184430625,
                        "value": 0
                    },
                    {
                        "number": 64,
                        "time": 9.6001888125,
                        "value": 1
                    },
                    {
                        "number": 64,
                        "time": 9.7966171875,
                        "value": 0
                    },
                    {
                        "number": 64,
                        "time": 10.1041565625,
                        "value": 1
                    },
                    {
                        "number": 64,
                        "time": 10.269831,
                        "value": 0
                    },
                    {
                        "number": 64,
                        "time": 10.5188386875,
                        "value": 1
                    },
                    {
                        "number": 64,
                        "time": 10.9791556875,
                        "value": 0
                    },
                    {
                        "number": 64,
                        "time": 11.1200285625,
                        "value": 1
                    },
                    {
                        "number": 64,
                        "time": 11.42856,
                        "value": 0
                    },
                    {
                        "number": 64,
                        "time": 12.46427325,
                        "value": 1
                    },
                    {
                        "number": 64,
                        "time": 12.648796875,
                        "value": 0
                    },
                    {
                        "number": 64,
                        "time": 12.933518812500001,
                        "value": 1
                    },
                    {
                        "number": 64,
                        "time": 13.127963062500001,
                        "value": 0
                    },
                    {
                        "number": 64,
                        "time": 13.409708812500002,
                        "value": 1
                    },
                    {
                        "number": 64,
                        "time": 13.606137187500002,
                        "value": 0
                    },
                    {
                        "number": 64,
                        "time": 13.913676562500001,
                        "value": 1
                    },
                    {
                        "number": 64,
                        "time": 14.079351,
                        "value": 0
                    },
                    {
                        "number": 64,
                        "time": 14.328358687500002,
                        "value": 1
                    },
                    {
                        "number": 64,
                        "time": 14.788675687500001,
                        "value": 0
                    },
                    {
                        "number": 64,
                        "time": 14.9295485625,
                        "value": 1
                    },
                    {
                        "number": 64,
                        "time": 15.23808,
                        "value": 0
                    },
                    {
                        "number": 64,
                        "time": 16.253951999999998,
                        "value": 1
                    },
                    {
                        "number": 64,
                        "time": 16.438475625,
                        "value": 0
                    },
                    {
                        "number": 64,
                        "time": 16.723197562499998,
                        "value": 1
                    },
                    {
                        "number": 64,
                        "time": 16.917641812499998,
                        "value": 0
                    },
                    {
                        "number": 64,
                        "time": 17.199387562499997,
                        "value": 1
                    },
                    {
                        "number": 64,
                        "time": 17.395815937499997,
                        "value": 0
                    },
                    {
                        "number": 64,
                        "time": 17.703355312499998,
                        "value": 1
                    },
                    {
                        "number": 64,
                        "time": 17.86902975,
                        "value": 0
                    },
                    {
                        "number": 64,
                        "time": 18.095219999999998,
                        "value": 1
                    },
                    {
                        "number": 64,
                        "time": 18.581330624999996,
                        "value": 0
                    },
                    {
                        "number": 64,
                        "time": 18.713274937499996,
                        "value": 1
                    },
                    {
                        "number": 64,
                        "time": 18.820417687499997,
                        "value": 0
                    },
                    {
                        "number": 64,
                        "time": 18.899782687499997,
                        "value": 1
                    },
                    {
                        "number": 64,
                        "time": 19.047599999999996,
                        "value": 0
                    },
                    {
                        "number": 64,
                        "time": 20.063471999999997,
                        "value": 1
                    },
                    {
                        "number": 64,
                        "time": 20.247995624999998,
                        "value": 0
                    },
                    {
                        "number": 64,
                        "time": 20.532717562499997,
                        "value": 1
                    },
                    {
                        "number": 64,
                        "time": 20.727161812499997,
                        "value": 0
                    },
                    {
                        "number": 64,
                        "time": 21.008907562499996,
                        "value": 1
                    },
                    {
                        "number": 64,
                        "time": 21.205335937499996,
                        "value": 0
                    },
                    {
                        "number": 64,
                        "time": 21.512875312499997,
                        "value": 1
                    },
                    {
                        "number": 64,
                        "time": 21.67854975,
                        "value": 0
                    },
                    {
                        "number": 64,
                        "time": 21.9275574375,
                        "value": 1
                    },
                    {
                        "number": 64,
                        "time": 22.3878744375,
                        "value": 0
                    },
                    {
                        "number": 64,
                        "time": 22.5287473125,
                        "value": 1
                    },
                    {
                        "number": 64,
                        "time": 22.85712,
                        "value": 0
                    },
                    {
                        "number": 64,
                        "time": 22.85712,
                        "value": 0
                    },
                    {
                        "number": 64,
                        "time": 23.89283325,
                        "value": 1
                    },
                    {
                        "number": 64,
                        "time": 24.077356875,
                        "value": 0
                    },
                    {
                        "number": 64,
                        "time": 24.3620788125,
                        "value": 1
                    },
                    {
                        "number": 64,
                        "time": 24.5565230625,
                        "value": 0
                    },
                    {
                        "number": 64,
                        "time": 24.838268812499997,
                        "value": 1
                    },
                    {
                        "number": 64,
                        "time": 25.034697187499997,
                        "value": 0
                    },
                    {
                        "number": 64,
                        "time": 25.3422365625,
                        "value": 1
                    },
                    {
                        "number": 64,
                        "time": 25.507911,
                        "value": 0
                    },
                    {
                        "number": 64,
                        "time": 25.7569186875,
                        "value": 1
                    },
                    {
                        "number": 64,
                        "time": 26.2172356875,
                        "value": 0
                    },
                    {
                        "number": 64,
                        "time": 26.3581085625,
                        "value": 1
                    },
                    {
                        "number": 64,
                        "time": 26.66664,
                        "value": 0
                    },
                    {
                        "number": 64,
                        "time": 27.70235325,
                        "value": 1
                    },
                    {
                        "number": 64,
                        "time": 27.886876875000002,
                        "value": 0
                    },
                    {
                        "number": 64,
                        "time": 28.1715988125,
                        "value": 1
                    },
                    {
                        "number": 64,
                        "time": 28.3660430625,
                        "value": 0
                    },
                    {
                        "number": 64,
                        "time": 28.6477888125,
                        "value": 1
                    },
                    {
                        "number": 64,
                        "time": 28.8442171875,
                        "value": 0
                    },
                    {
                        "number": 64,
                        "time": 29.1517565625,
                        "value": 1
                    },
                    {
                        "number": 64,
                        "time": 29.317431000000003,
                        "value": 0
                    },
                    {
                        "number": 64,
                        "time": 29.566438687500003,
                        "value": 1
                    },
                    {
                        "number": 64,
                        "time": 30.026755687500003,
                        "value": 0
                    },
                    {
                        "number": 64,
                        "time": 30.167628562500003,
                        "value": 1
                    },
                    {
                        "number": 64,
                        "time": 30.476160000000004,
                        "value": 0
                    },
                    {
                        "number": 64,
                        "time": 31.492032000000002,
                        "value": 1
                    },
                    {
                        "number": 64,
                        "time": 31.676555625000002,
                        "value": 0
                    },
                    {
                        "number": 64,
                        "time": 31.9612775625,
                        "value": 1
                    },
                    {
                        "number": 64,
                        "time": 32.1557218125,
                        "value": 0
                    },
                    {
                        "number": 64,
                        "time": 32.4374675625,
                        "value": 1
                    },
                    {
                        "number": 64,
                        "time": 32.6338959375,
                        "value": 0
                    },
                    {
                        "number": 64,
                        "time": 32.9414353125,
                        "value": 1
                    },
                    {
                        "number": 64,
                        "time": 33.10710975,
                        "value": 0
                    },
                    {
                        "number": 64,
                        "time": 33.3333,
                        "value": 1
                    },
                    {
                        "number": 64,
                        "time": 33.819410625,
                        "value": 0
                    },
                    {
                        "number": 64,
                        "time": 33.95135493750001,
                        "value": 1
                    },
                    {
                        "number": 64,
                        "time": 34.05849768750001,
                        "value": 0
                    },
                    {
                        "number": 64,
                        "time": 34.13786268750001,
                        "value": 1
                    },
                    {
                        "number": 64,
                        "time": 34.28568000000001,
                        "value": 0
                    },
                    {
                        "number": 64,
                        "time": 35.301552000000015,
                        "value": 1
                    },
                    {
                        "number": 64,
                        "time": 35.48607562500001,
                        "value": 0
                    },
                    {
                        "number": 64,
                        "time": 35.770797562500015,
                        "value": 1
                    },
                    {
                        "number": 64,
                        "time": 35.96524181250001,
                        "value": 0
                    },
                    {
                        "number": 64,
                        "time": 36.24698756250001,
                        "value": 1
                    },
                    {
                        "number": 64,
                        "time": 36.443415937500006,
                        "value": 0
                    },
                    {
                        "number": 64,
                        "time": 36.750955312500004,
                        "value": 1
                    },
                    {
                        "number": 64,
                        "time": 36.916629750000006,
                        "value": 0
                    },
                    {
                        "number": 64,
                        "time": 37.1656374375,
                        "value": 1
                    },
                    {
                        "number": 64,
                        "time": 37.625954437500006,
                        "value": 0
                    },
                    {
                        "number": 64,
                        "time": 37.766827312500006,
                        "value": 1
                    },
                    {
                        "number": 64,
                        "time": 38.095200000000006,
                        "value": 0
                    },
                    {
                        "number": 64,
                        "time": 38.17258087500001,
                        "value": 1
                    },
                    {
                        "number": 64,
                        "time": 38.824365937500005,
                        "value": 0
                    },
                    {
                        "number": 64,
                        "time": 38.92158806250001,
                        "value": 1
                    },
                    {
                        "number": 64,
                        "time": 39.04758,
                        "value": 0
                    },
                    {
                        "number": 64,
                        "time": 39.124960875000006,
                        "value": 1
                    },
                    {
                        "number": 64,
                        "time": 39.291627375000004,
                        "value": 0
                    },
                    {
                        "number": 64,
                        "time": 39.37694475000001,
                        "value": 1
                    },
                    {
                        "number": 64,
                        "time": 39.537658875000005,
                        "value": 0
                    },
                    {
                        "number": 64,
                        "time": 39.61503975000001,
                        "value": 1
                    },
                    {
                        "number": 64,
                        "time": 39.76781737500001,
                        "value": 0
                    },
                    {
                        "number": 64,
                        "time": 39.83230143750001,
                        "value": 1
                    },
                    {
                        "number": 64,
                        "time": 39.99996000000001,
                        "value": 0
                    },
                    {
                        "number": 64,
                        "time": 40.07734087500001,
                        "value": 1
                    },
                    {
                        "number": 64,
                        "time": 40.72912593750001,
                        "value": 0
                    },
                    {
                        "number": 64,
                        "time": 40.82634806250001,
                        "value": 1
                    },
                    {
                        "number": 64,
                        "time": 40.95234000000001,
                        "value": 0
                    },
                    {
                        "number": 64,
                        "time": 41.02972087500001,
                        "value": 1
                    },
                    {
                        "number": 64,
                        "time": 41.19638737500001,
                        "value": 0
                    },
                    {
                        "number": 64,
                        "time": 41.28170475000001,
                        "value": 1
                    },
                    {
                        "number": 64,
                        "time": 41.44241887500001,
                        "value": 0
                    },
                    {
                        "number": 64,
                        "time": 41.51979975000001,
                        "value": 1
                    },
                    {
                        "number": 64,
                        "time": 41.67257737500001,
                        "value": 0
                    },
                    {
                        "number": 64,
                        "time": 41.73706143750001,
                        "value": 1
                    },
                    {
                        "number": 64,
                        "time": 41.90472000000001,
                        "value": 0
                    },
                    {
                        "number": 64,
                        "time": 41.982100875000015,
                        "value": 1
                    },
                    {
                        "number": 64,
                        "time": 42.63388593750001,
                        "value": 0
                    },
                    {
                        "number": 64,
                        "time": 42.73110806250001,
                        "value": 1
                    },
                    {
                        "number": 64,
                        "time": 42.85710000000001,
                        "value": 0
                    },
                    {
                        "number": 64,
                        "time": 42.93448087500001,
                        "value": 1
                    },
                    {
                        "number": 64,
                        "time": 43.10114737500001,
                        "value": 0
                    },
                    {
                        "number": 64,
                        "time": 43.18646475000001,
                        "value": 1
                    },
                    {
                        "number": 64,
                        "time": 43.34717887500001,
                        "value": 0
                    },
                    {
                        "number": 64,
                        "time": 43.424559750000014,
                        "value": 1
                    },
                    {
                        "number": 64,
                        "time": 43.57733737500001,
                        "value": 0
                    },
                    {
                        "number": 64,
                        "time": 43.64182143750001,
                        "value": 1
                    },
                    {
                        "number": 64,
                        "time": 43.809480000000015,
                        "value": 0
                    },
                    {
                        "number": 64,
                        "time": 43.88686087500002,
                        "value": 1
                    },
                    {
                        "number": 64,
                        "time": 44.538645937500014,
                        "value": 0
                    },
                    {
                        "number": 64,
                        "time": 44.635868062500016,
                        "value": 1
                    },
                    {
                        "number": 64,
                        "time": 44.76186000000001,
                        "value": 0
                    },
                    {
                        "number": 64,
                        "time": 44.839240875000016,
                        "value": 1
                    },
                    {
                        "number": 64,
                        "time": 45.005907375000014,
                        "value": 0
                    },
                    {
                        "number": 64,
                        "time": 45.091224750000016,
                        "value": 1
                    },
                    {
                        "number": 64,
                        "time": 45.251938875000015,
                        "value": 0
                    },
                    {
                        "number": 64,
                        "time": 45.32931975000002,
                        "value": 1
                    },
                    {
                        "number": 64,
                        "time": 45.482097375000016,
                        "value": 0
                    },
                    {
                        "number": 64,
                        "time": 45.546581437500016,
                        "value": 1
                    },
                    {
                        "number": 64,
                        "time": 45.71424000000002,
                        "value": 0
                    },
                    {
                        "number": 64,
                        "time": 45.79162087500002,
                        "value": 1
                    },
                    {
                        "number": 64,
                        "time": 46.44340593750002,
                        "value": 0
                    },
                    {
                        "number": 64,
                        "time": 46.54062806250002,
                        "value": 1
                    },
                    {
                        "number": 64,
                        "time": 46.666620000000016,
                        "value": 0
                    },
                    {
                        "number": 64,
                        "time": 46.74400087500002,
                        "value": 1
                    },
                    {
                        "number": 64,
                        "time": 46.91066737500002,
                        "value": 0
                    },
                    {
                        "number": 64,
                        "time": 46.99598475000002,
                        "value": 1
                    },
                    {
                        "number": 64,
                        "time": 47.15669887500002,
                        "value": 0
                    },
                    {
                        "number": 64,
                        "time": 47.23407975000002,
                        "value": 1
                    },
                    {
                        "number": 64,
                        "time": 47.38685737500002,
                        "value": 0
                    },
                    {
                        "number": 64,
                        "time": 47.45134143750002,
                        "value": 1
                    },
                    {
                        "number": 64,
                        "time": 47.61900000000002,
                        "value": 0
                    },
                    {
                        "number": 64,
                        "time": 47.696380875000024,
                        "value": 1
                    },
                    {
                        "number": 64,
                        "time": 48.34816593750002,
                        "value": 0
                    },
                    {
                        "number": 64,
                        "time": 48.44538806250002,
                        "value": 1
                    },
                    {
                        "number": 64,
                        "time": 48.57138000000002,
                        "value": 0
                    },
                    {
                        "number": 64,
                        "time": 48.64876087500002,
                        "value": 1
                    },
                    {
                        "number": 64,
                        "time": 48.81542737500002,
                        "value": 0
                    },
                    {
                        "number": 64,
                        "time": 48.90074475000002,
                        "value": 1
                    },
                    {
                        "number": 64,
                        "time": 49.06145887500002,
                        "value": 0
                    },
                    {
                        "number": 64,
                        "time": 49.138839750000024,
                        "value": 1
                    },
                    {
                        "number": 64,
                        "time": 49.29161737500002,
                        "value": 0
                    },
                    {
                        "number": 64,
                        "time": 49.35610143750002,
                        "value": 1
                    },
                    {
                        "number": 64,
                        "time": 49.523760000000024,
                        "value": 0
                    },
                    {
                        "number": 64,
                        "time": 49.60114087500003,
                        "value": 1
                    },
                    {
                        "number": 64,
                        "time": 50.252925937500024,
                        "value": 0
                    },
                    {
                        "number": 64,
                        "time": 50.350148062500026,
                        "value": 1
                    },
                    {
                        "number": 64,
                        "time": 50.47614000000002,
                        "value": 0
                    },
                    {
                        "number": 64,
                        "time": 50.553520875000025,
                        "value": 1
                    },
                    {
                        "number": 64,
                        "time": 50.72018737500002,
                        "value": 0
                    },
                    {
                        "number": 64,
                        "time": 50.805504750000026,
                        "value": 1
                    },
                    {
                        "number": 64,
                        "time": 50.966218875000024,
                        "value": 0
                    },
                    {
                        "number": 64,
                        "time": 51.04359975000003,
                        "value": 1
                    },
                    {
                        "number": 64,
                        "time": 51.196377375000026,
                        "value": 0
                    },
                    {
                        "number": 64,
                        "time": 51.260861437500026,
                        "value": 1
                    },
                    {
                        "number": 64,
                        "time": 51.42852000000003,
                        "value": 0
                    },
                    {
                        "number": 64,
                        "time": 51.50590087500003,
                        "value": 1
                    },
                    {
                        "number": 64,
                        "time": 52.15768593750003,
                        "value": 0
                    },
                    {
                        "number": 64,
                        "time": 52.25490806250003,
                        "value": 1
                    },
                    {
                        "number": 64,
                        "time": 52.380900000000025,
                        "value": 0
                    },
                    {
                        "number": 64,
                        "time": 52.45828087500003,
                        "value": 1
                    },
                    {
                        "number": 64,
                        "time": 52.624947375000026,
                        "value": 0
                    },
                    {
                        "number": 64,
                        "time": 52.71026475000003,
                        "value": 1
                    },
                    {
                        "number": 64,
                        "time": 52.87097887500003,
                        "value": 0
                    },
                    {
                        "number": 64,
                        "time": 52.94835975000003,
                        "value": 1
                    },
                    {
                        "number": 64,
                        "time": 53.10113737500003,
                        "value": 0
                    },
                    {
                        "number": 64,
                        "time": 53.16562143750003,
                        "value": 1
                    },
                    {
                        "number": 64,
                        "time": 53.33328000000003,
                        "value": 0
                    },
                    {
                        "number": 64,
                        "time": 53.42454975000003,
                        "value": 1
                    },
                    {
                        "number": 64,
                        "time": 54.05649356250003,
                        "value": 0
                    },
                    {
                        "number": 64,
                        "time": 54.11105700000003,
                        "value": 1
                    },
                    {
                        "number": 64,
                        "time": 54.28566000000003,
                        "value": 0
                    },
                    {
                        "number": 64,
                        "time": 54.36998531250003,
                        "value": 1
                    },
                    {
                        "number": 64,
                        "time": 54.77573887500003,
                        "value": 0
                    },
                    {
                        "number": 64,
                        "time": 54.83923087500003,
                        "value": 1
                    },
                    {
                        "number": 64,
                        "time": 55.23804000000003,
                        "value": 0
                    },
                    {
                        "number": 64,
                        "time": 55.31740500000003,
                        "value": 1
                    },
                    {
                        "number": 64,
                        "time": 55.96026150000003,
                        "value": 0
                    },
                    {
                        "number": 64,
                        "time": 56.02077731250003,
                        "value": 1
                    },
                    {
                        "number": 64,
                        "time": 56.19042000000003,
                        "value": 0
                    },
                    {
                        "number": 64,
                        "time": 56.25291993750003,
                        "value": 1
                    },
                    {
                        "number": 64,
                        "time": 56.68049887500003,
                        "value": 0
                    },
                    {
                        "number": 64,
                        "time": 56.741014687500034,
                        "value": 1
                    },
                    {
                        "number": 64,
                        "time": 57.14280000000004,
                        "value": 0
                    },
                    {
                        "number": 64,
                        "time": 57.22811737500004,
                        "value": 1
                    },
                    {
                        "number": 64,
                        "time": 58.09518000000004,
                        "value": 0
                    },
                    {
                        "number": 64,
                        "time": 58.180497375000044,
                        "value": 1
                    },
                    {
                        "number": 64,
                        "time": 58.585258875000044,
                        "value": 0
                    },
                    {
                        "number": 64,
                        "time": 58.66263975000005,
                        "value": 1
                    },
                    {
                        "number": 64,
                        "time": 59.04756000000005,
                        "value": 0
                    },
                    {
                        "number": 64,
                        "time": 59.13287737500005,
                        "value": 1
                    },
                    {
                        "number": 64,
                        "time": 59.53664681250005,
                        "value": 0
                    },
                    {
                        "number": 64,
                        "time": 59.59815468750005,
                        "value": 1
                    },
                    {
                        "number": 64,
                        "time": 59.99994000000005,
                        "value": 0
                    },
                    {
                        "number": 64,
                        "time": 60.11204306250005,
                        "value": 1
                    },
                    {
                        "number": 64,
                        "time": 60.95232000000005,
                        "value": 0
                    },
                    {
                        "number": 64,
                        "time": 60.95232000000005,
                        "value": 0
                    },
                    {
                        "number": 64,
                        "time": 61.02970087500005,
                        "value": 1
                    },
                    {
                        "number": 64,
                        "time": 61.68148593750005,
                        "value": 0
                    },
                    {
                        "number": 64,
                        "time": 61.77870806250005,
                        "value": 1
                    },
                    {
                        "number": 64,
                        "time": 61.90470000000005,
                        "value": 0
                    },
                    {
                        "number": 64,
                        "time": 61.98208087500005,
                        "value": 1
                    },
                    {
                        "number": 64,
                        "time": 62.14874737500005,
                        "value": 0
                    },
                    {
                        "number": 64,
                        "time": 62.23406475000005,
                        "value": 1
                    },
                    {
                        "number": 64,
                        "time": 62.39477887500005,
                        "value": 0
                    },
                    {
                        "number": 64,
                        "time": 62.47215975000005,
                        "value": 1
                    },
                    {
                        "number": 64,
                        "time": 62.62493737500005,
                        "value": 0
                    },
                    {
                        "number": 64,
                        "time": 62.68942143750005,
                        "value": 1
                    },
                    {
                        "number": 64,
                        "time": 62.85708000000005,
                        "value": 0
                    },
                    {
                        "number": 64,
                        "time": 62.934460875000056,
                        "value": 1
                    },
                    {
                        "number": 64,
                        "time": 63.58624593750005,
                        "value": 0
                    },
                    {
                        "number": 64,
                        "time": 63.683468062500054,
                        "value": 1
                    },
                    {
                        "number": 64,
                        "time": 63.80946000000005,
                        "value": 0
                    },
                    {
                        "number": 64,
                        "time": 63.886840875000054,
                        "value": 1
                    },
                    {
                        "number": 64,
                        "time": 64.05350737500005,
                        "value": 0
                    },
                    {
                        "number": 64,
                        "time": 64.13882475000005,
                        "value": 1
                    },
                    {
                        "number": 64,
                        "time": 64.29953887500005,
                        "value": 0
                    },
                    {
                        "number": 64,
                        "time": 64.37691975000006,
                        "value": 1
                    },
                    {
                        "number": 64,
                        "time": 64.52969737500005,
                        "value": 0
                    },
                    {
                        "number": 64,
                        "time": 64.59418143750005,
                        "value": 1
                    },
                    {
                        "number": 64,
                        "time": 64.76184000000005,
                        "value": 0
                    },
                    {
                        "number": 64,
                        "time": 64.84715737500005,
                        "value": 1
                    },
                    {
                        "number": 64,
                        "time": 65.71422000000005,
                        "value": 0
                    },
                    {
                        "number": 64,
                        "time": 65.79953737500006,
                        "value": 1
                    },
                    {
                        "number": 64,
                        "time": 65.95727531250006,
                        "value": 0
                    },
                    {
                        "number": 64,
                        "time": 66.03763237500006,
                        "value": 1
                    },
                    {
                        "number": 64,
                        "time": 66.20429887500006,
                        "value": 0
                    },
                    {
                        "number": 64,
                        "time": 66.28167975000007,
                        "value": 1
                    },
                    {
                        "number": 64,
                        "time": 66.66660000000006,
                        "value": 0
                    },
                    {
                        "number": 64,
                        "time": 66.74398087500006,
                        "value": 1
                    },
                    {
                        "number": 64,
                        "time": 66.90866325000006,
                        "value": 0
                    },
                    {
                        "number": 64,
                        "time": 66.99596475000006,
                        "value": 1
                    },
                    {
                        "number": 64,
                        "time": 67.15767093750006,
                        "value": 0
                    },
                    {
                        "number": 64,
                        "time": 67.25489306250006,
                        "value": 1
                    },
                    {
                        "number": 64,
                        "time": 67.39080562500006,
                        "value": 0
                    },
                    {
                        "number": 64,
                        "time": 67.64675775000005,
                        "value": 1
                    },
                    {
                        "number": 64,
                        "time": 68.10509062500005,
                        "value": 0
                    },
                    {
                        "number": 64,
                        "time": 68.23505081250005,
                        "value": 1
                    },
                    {
                        "number": 64,
                        "time": 68.38981256250005,
                        "value": 0
                    },
                    {
                        "number": 64,
                        "time": 68.57136000000006,
                        "value": 0
                    },
                    {
                        "number": 64,
                        "time": 68.66262975000005,
                        "value": 1
                    },
                    {
                        "number": 64,
                        "time": 69.29457356250005,
                        "value": 0
                    },
                    {
                        "number": 64,
                        "time": 69.34913700000004,
                        "value": 1
                    },
                    {
                        "number": 64,
                        "time": 69.52374000000005,
                        "value": 0
                    },
                    {
                        "number": 64,
                        "time": 69.60806531250005,
                        "value": 1
                    },
                    {
                        "number": 64,
                        "time": 70.01381887500004,
                        "value": 0
                    },
                    {
                        "number": 64,
                        "time": 70.07731087500004,
                        "value": 1
                    },
                    {
                        "number": 64,
                        "time": 70.47612000000004,
                        "value": 0
                    },
                    {
                        "number": 64,
                        "time": 70.55548500000003,
                        "value": 1
                    },
                    {
                        "number": 64,
                        "time": 71.19834150000003,
                        "value": 0
                    },
                    {
                        "number": 64,
                        "time": 71.25885731250003,
                        "value": 1
                    },
                    {
                        "number": 64,
                        "time": 71.42850000000003,
                        "value": 0
                    },
                    {
                        "number": 64,
                        "time": 71.49099993750002,
                        "value": 1
                    },
                    {
                        "number": 64,
                        "time": 71.91857887500002,
                        "value": 0
                    },
                    {
                        "number": 64,
                        "time": 71.97909468750002,
                        "value": 1
                    },
                    {
                        "number": 64,
                        "time": 72.38088000000002,
                        "value": 0
                    },
                    {
                        "number": 64,
                        "time": 72.46619737500002,
                        "value": 1
                    },
                    {
                        "number": 64,
                        "time": 73.33326000000002,
                        "value": 0
                    },
                    {
                        "number": 64,
                        "time": 73.41857737500003,
                        "value": 1
                    },
                    {
                        "number": 64,
                        "time": 73.82333887500003,
                        "value": 0
                    },
                    {
                        "number": 64,
                        "time": 73.90071975000004,
                        "value": 1
                    },
                    {
                        "number": 64,
                        "time": 74.28564000000003,
                        "value": 0
                    },
                    {
                        "number": 64,
                        "time": 74.37095737500003,
                        "value": 1
                    },
                    {
                        "number": 64,
                        "time": 74.77472681250003,
                        "value": 0
                    },
                    {
                        "number": 64,
                        "time": 74.83623468750004,
                        "value": 1
                    },
                    {
                        "number": 64,
                        "time": 75.23802000000003,
                        "value": 0
                    },
                    {
                        "number": 64,
                        "time": 75.35012306250003,
                        "value": 1
                    },
                    {
                        "number": 64,
                        "time": 76.19040000000003,
                        "value": 0
                    },
                    {
                        "number": 64,
                        "time": 76.26778087500003,
                        "value": 1
                    },
                    {
                        "number": 64,
                        "time": 76.91956593750002,
                        "value": 0
                    },
                    {
                        "number": 64,
                        "time": 77.01678806250003,
                        "value": 1
                    },
                    {
                        "number": 64,
                        "time": 77.14278000000003,
                        "value": 0
                    },
                    {
                        "number": 64,
                        "time": 77.22016087500003,
                        "value": 1
                    },
                    {
                        "number": 64,
                        "time": 77.38682737500004,
                        "value": 0
                    },
                    {
                        "number": 64,
                        "time": 77.47214475000004,
                        "value": 1
                    },
                    {
                        "number": 64,
                        "time": 77.63285887500004,
                        "value": 0
                    },
                    {
                        "number": 64,
                        "time": 77.71023975000004,
                        "value": 1
                    },
                    {
                        "number": 64,
                        "time": 77.86301737500004,
                        "value": 0
                    },
                    {
                        "number": 64,
                        "time": 77.92750143750004,
                        "value": 1
                    },
                    {
                        "number": 64,
                        "time": 78.09516000000004,
                        "value": 0
                    },
                    {
                        "number": 64,
                        "time": 78.17254087500004,
                        "value": 1
                    },
                    {
                        "number": 64,
                        "time": 78.82432593750003,
                        "value": 0
                    },
                    {
                        "number": 64,
                        "time": 78.92154806250004,
                        "value": 1
                    },
                    {
                        "number": 64,
                        "time": 79.04754000000004,
                        "value": 0
                    },
                    {
                        "number": 64,
                        "time": 79.12492087500004,
                        "value": 1
                    },
                    {
                        "number": 64,
                        "time": 79.29158737500005,
                        "value": 0
                    },
                    {
                        "number": 64,
                        "time": 79.37690475000005,
                        "value": 1
                    },
                    {
                        "number": 64,
                        "time": 79.53761887500005,
                        "value": 0
                    },
                    {
                        "number": 64,
                        "time": 79.61499975000005,
                        "value": 1
                    },
                    {
                        "number": 64,
                        "time": 79.76777737500005,
                        "value": 0
                    },
                    {
                        "number": 64,
                        "time": 79.83226143750005,
                        "value": 1
                    },
                    {
                        "number": 64,
                        "time": 79.99992000000005,
                        "value": 0
                    },
                    {
                        "number": 64,
                        "time": 80.08523737500005,
                        "value": 1
                    },
                    {
                        "number": 64,
                        "time": 80.95230000000005,
                        "value": 0
                    },
                    {
                        "number": 64,
                        "time": 81.03761737500005,
                        "value": 1
                    },
                    {
                        "number": 64,
                        "time": 81.19535531250006,
                        "value": 0
                    },
                    {
                        "number": 64,
                        "time": 81.27571237500005,
                        "value": 1
                    },
                    {
                        "number": 64,
                        "time": 81.44237887500006,
                        "value": 0
                    },
                    {
                        "number": 64,
                        "time": 81.51975975000006,
                        "value": 1
                    },
                    {
                        "number": 64,
                        "time": 81.90468000000006,
                        "value": 0
                    },
                    {
                        "number": 64,
                        "time": 81.98206087500006,
                        "value": 1
                    },
                    {
                        "number": 64,
                        "time": 82.14674325000006,
                        "value": 0
                    },
                    {
                        "number": 64,
                        "time": 82.23404475000005,
                        "value": 1
                    },
                    {
                        "number": 64,
                        "time": 82.39575093750005,
                        "value": 0
                    },
                    {
                        "number": 64,
                        "time": 82.49297306250006,
                        "value": 1
                    },
                    {
                        "number": 64,
                        "time": 82.62888562500005,
                        "value": 0
                    },
                    {
                        "number": 64,
                        "time": 82.88483775000005,
                        "value": 1
                    },
                    {
                        "number": 64,
                        "time": 83.34317062500004,
                        "value": 0
                    },
                    {
                        "number": 64,
                        "time": 83.47313081250005,
                        "value": 1
                    },
                    {
                        "number": 64,
                        "time": 83.62789256250005,
                        "value": 0
                    },
                    {
                        "number": 64,
                        "time": 84.82531200000005,
                        "value": 1
                    },
                    {
                        "number": 64,
                        "time": 85.00983562500005,
                        "value": 0
                    },
                    {
                        "number": 64,
                        "time": 85.29455756250005,
                        "value": 1
                    },
                    {
                        "number": 64,
                        "time": 85.48900181250005,
                        "value": 0
                    },
                    {
                        "number": 64,
                        "time": 85.77074756250005,
                        "value": 1
                    },
                    {
                        "number": 64,
                        "time": 85.96717593750004,
                        "value": 0
                    },
                    {
                        "number": 64,
                        "time": 86.27471531250005,
                        "value": 1
                    },
                    {
                        "number": 64,
                        "time": 86.44038975000005,
                        "value": 0
                    },
                    {
                        "number": 64,
                        "time": 86.68939743750005,
                        "value": 1
                    },
                    {
                        "number": 64,
                        "time": 87.14971443750005,
                        "value": 0
                    },
                    {
                        "number": 64,
                        "time": 87.29058731250005,
                        "value": 1
                    },
                    {
                        "number": 64,
                        "time": 87.61896000000006,
                        "value": 0
                    },
                    {
                        "number": 64,
                        "time": 88.63483200000006,
                        "value": 1
                    },
                    {
                        "number": 64,
                        "time": 88.81935562500006,
                        "value": 0
                    },
                    {
                        "number": 64,
                        "time": 89.10407756250005,
                        "value": 1
                    },
                    {
                        "number": 64,
                        "time": 89.29852181250006,
                        "value": 0
                    },
                    {
                        "number": 64,
                        "time": 89.58026756250005,
                        "value": 1
                    },
                    {
                        "number": 64,
                        "time": 89.77669593750005,
                        "value": 0
                    },
                    {
                        "number": 64,
                        "time": 90.08423531250006,
                        "value": 1
                    },
                    {
                        "number": 64,
                        "time": 90.24990975000006,
                        "value": 0
                    },
                    {
                        "number": 64,
                        "time": 90.49891743750005,
                        "value": 1
                    },
                    {
                        "number": 64,
                        "time": 90.95923443750006,
                        "value": 0
                    },
                    {
                        "number": 64,
                        "time": 91.10010731250006,
                        "value": 1
                    },
                    {
                        "number": 64,
                        "time": 91.42848000000006,
                        "value": 0
                    },
                    {
                        "number": 64,
                        "time": 92.46419325000006,
                        "value": 1
                    },
                    {
                        "number": 64,
                        "time": 92.64871687500006,
                        "value": 0
                    },
                    {
                        "number": 64,
                        "time": 92.93343881250006,
                        "value": 1
                    },
                    {
                        "number": 64,
                        "time": 93.12788306250006,
                        "value": 0
                    },
                    {
                        "number": 64,
                        "time": 93.40962881250006,
                        "value": 1
                    },
                    {
                        "number": 64,
                        "time": 93.60605718750006,
                        "value": 0
                    },
                    {
                        "number": 64,
                        "time": 93.91359656250006,
                        "value": 1
                    },
                    {
                        "number": 64,
                        "time": 94.07927100000006,
                        "value": 0
                    },
                    {
                        "number": 64,
                        "time": 94.32827868750006,
                        "value": 1
                    },
                    {
                        "number": 64,
                        "time": 94.78859568750006,
                        "value": 0
                    },
                    {
                        "number": 64,
                        "time": 94.92946856250006,
                        "value": 1
                    },
                    {
                        "number": 64,
                        "time": 95.23800000000006,
                        "value": 0
                    },
                    {
                        "number": 64,
                        "time": 96.27371325000006,
                        "value": 1
                    },
                    {
                        "number": 64,
                        "time": 96.45823687500005,
                        "value": 0
                    },
                    {
                        "number": 64,
                        "time": 96.74295881250005,
                        "value": 1
                    },
                    {
                        "number": 64,
                        "time": 96.93740306250005,
                        "value": 0
                    },
                    {
                        "number": 64,
                        "time": 97.21914881250005,
                        "value": 1
                    },
                    {
                        "number": 64,
                        "time": 97.41557718750005,
                        "value": 0
                    },
                    {
                        "number": 64,
                        "time": 97.72311656250005,
                        "value": 1
                    },
                    {
                        "number": 64,
                        "time": 97.88879100000005,
                        "value": 0
                    },
                    {
                        "number": 64,
                        "time": 98.13779868750005,
                        "value": 1
                    },
                    {
                        "number": 64,
                        "time": 98.59811568750006,
                        "value": 0
                    },
                    {
                        "number": 64,
                        "time": 98.73898856250005,
                        "value": 1
                    },
                    {
                        "number": 64,
                        "time": 99.04752000000005,
                        "value": 0
                    },
                    {
                        "number": 64,
                        "time": 100.06339200000005,
                        "value": 1
                    },
                    {
                        "number": 64,
                        "time": 100.24791562500005,
                        "value": 0
                    },
                    {
                        "number": 64,
                        "time": 100.53263756250004,
                        "value": 1
                    },
                    {
                        "number": 64,
                        "time": 100.72708181250005,
                        "value": 0
                    },
                    {
                        "number": 64,
                        "time": 101.00882756250004,
                        "value": 1
                    },
                    {
                        "number": 64,
                        "time": 101.20525593750004,
                        "value": 0
                    },
                    {
                        "number": 64,
                        "time": 101.51279531250005,
                        "value": 1
                    },
                    {
                        "number": 64,
                        "time": 101.67846975000005,
                        "value": 0
                    },
                    {
                        "number": 64,
                        "time": 101.90466000000005,
                        "value": 1
                    },
                    {
                        "number": 64,
                        "time": 102.39077062500004,
                        "value": 0
                    },
                    {
                        "number": 64,
                        "time": 102.52271493750004,
                        "value": 1
                    },
                    {
                        "number": 64,
                        "time": 102.62985768750004,
                        "value": 0
                    },
                    {
                        "number": 64,
                        "time": 102.70922268750003,
                        "value": 1
                    },
                    {
                        "number": 64,
                        "time": 102.85704000000003,
                        "value": 0
                    },
                    {
                        "number": 64,
                        "time": 103.87291200000003,
                        "value": 1
                    },
                    {
                        "number": 64,
                        "time": 104.05743562500002,
                        "value": 0
                    },
                    {
                        "number": 64,
                        "time": 104.34215756250002,
                        "value": 1
                    },
                    {
                        "number": 64,
                        "time": 104.53660181250002,
                        "value": 0
                    },
                    {
                        "number": 64,
                        "time": 104.81834756250002,
                        "value": 1
                    },
                    {
                        "number": 64,
                        "time": 105.01477593750002,
                        "value": 0
                    },
                    {
                        "number": 64,
                        "time": 105.32231531250002,
                        "value": 1
                    },
                    {
                        "number": 64,
                        "time": 105.48798975000003,
                        "value": 0
                    },
                    {
                        "number": 64,
                        "time": 105.73699743750002,
                        "value": 1
                    },
                    {
                        "number": 64,
                        "time": 106.19731443750003,
                        "value": 0
                    },
                    {
                        "number": 64,
                        "time": 106.33818731250003,
                        "value": 1
                    },
                    {
                        "number": 64,
                        "time": 106.66656000000003,
                        "value": 0
                    }
                ]
            },
            "id": 3,
            "name": "Pedale",
            "instrumentNumber": 0,
            "instrument": "acoustic grand piano",
            "instrumentFamily": "piano",
            "channelNumber": 0,
            "isPercussion": false
        },
        {
            "startTime": 0,
            "duration": 0,
            "length": 0,
            "notes": [],
            "controlChanges": {},
            "id": 4,
            "name": "Schumann: Knecht Ruprecht"
        },
        {
            "startTime": 0,
            "duration": 0,
            "length": 0,
            "notes": [],
            "controlChanges": {},
            "id": 5,
            "name": "Copyright © 2008 by Bernd Krueger"
        },
        {
            "startTime": 0,
            "duration": 0,
            "length": 0,
            "notes": [],
            "controlChanges": {},
            "id": 6,
            "name": "http://www.piano-midi.de/"
        },
        {
            "startTime": 0,
            "duration": 0,
            "length": 0,
            "notes": [],
            "controlChanges": {},
            "id": 7,
            "name": "Edition: 2014-03-28"
        },
        {
            "startTime": 0,
            "duration": 0,
            "length": 0,
            "notes": [],
            "controlChanges": {},
            "id": 8,
            "name": "Spur 8"
        },
        {
            "startTime": 0,
            "duration": 0,
            "length": 0,
            "notes": [],
            "controlChanges": {},
            "id": 9,
            "name": "Spur 9"
        },
        {
            "startTime": 0,
            "duration": 0,
            "length": 0,
            "notes": [],
            "controlChanges": {},
            "id": 10,
            "name": "Spur 10"
        },
        {
            "startTime": 0,
            "duration": 0,
            "length": 0,
            "notes": [],
            "controlChanges": {},
            "id": 11,
            "name": "Spur 11"
        },
        {
            "startTime": 0,
            "duration": 0,
            "length": 0,
            "notes": [],
            "controlChanges": {},
            "id": 12,
            "name": "Spur 12"
        },
        {
            "startTime": 0,
            "duration": 0,
            "length": 0,
            "notes": [],
            "controlChanges": {},
            "id": 13,
            "name": "Spur 13"
        },
        {
            "startTime": 0,
            "duration": 0,
            "length": 0,
            "notes": [],
            "controlChanges": {},
            "id": 14,
            "name": "Spur 14"
        },
        {
            "startTime": 0,
            "duration": 0,
            "length": 0,
            "notes": [],
            "controlChanges": {},
            "id": 15,
            "name": "Spur 15"
        },
        {
            "startTime": 0,
            "duration": 0,
            "length": 0,
            "notes": [],
            "controlChanges": {},
            "id": 16,
            "name": "Spur 16"
        }
    ]
}