{
    "header": {
        "PPQ": 480,
        "timeSignature": [
            3,
            8
        ],
        "bpm": 120,
        "name": "Hammerklaviersonate  2. Satz"
    },
    "startTime": 0,
    "duration": 129.37187500000027,
    "tracks": [
        {
            "startTime": 0,
            "duration": 0,
            "length": 0,
            "notes": [],
            "controlChanges": {},
            "id": 0,
            "name": "Hammerklaviersonate  2. Satz"
        },
        {
            "startTime": 0.5,
            "duration": 129.37187500000027,
            "length": 1059,
            "notes": [
                {
                    "name": "D5",
                    "midi": 74,
                    "time": 0.5,
                    "velocity": 0.3937007874015748,
                    "duration": 0.1875
                },
                {
                    "name": "A4",
                    "midi": 69,
                    "time": 0.6875,
                    "velocity": 0.33070866141732286,
                    "duration": 0.05625000000000002
                },
                {
                    "name": "F5",
                    "midi": 77,
                    "time": 0.6875,
                    "velocity": 0.3937007874015748,
                    "duration": 0.05625000000000002
                },
                {
                    "name": "C5",
                    "midi": 72,
                    "time": 0.75,
                    "velocity": 0.41732283464566927,
                    "duration": 0.25
                },
                {
                    "name": "F5",
                    "midi": 77,
                    "time": 0.75,
                    "velocity": 0.4881889763779528,
                    "duration": 0.25
                },
                {
                    "name": "F4",
                    "midi": 65,
                    "time": 1,
                    "velocity": 0.36220472440944884,
                    "duration": 0.125
                },
                {
                    "name": "D5",
                    "midi": 74,
                    "time": 1,
                    "velocity": 0.4330708661417323,
                    "duration": 0.125
                },
                {
                    "name": "A#4",
                    "midi": 70,
                    "time": 1.25,
                    "velocity": 0.3937007874015748,
                    "duration": 0.1875
                },
                {
                    "name": "F#4",
                    "midi": 66,
                    "time": 1.4375,
                    "velocity": 0.33070866141732286,
                    "duration": 0.05624999999999991
                },
                {
                    "name": "D5",
                    "midi": 74,
                    "time": 1.4375,
                    "velocity": 0.3937007874015748,
                    "duration": 0.05624999999999991
                },
                {
                    "name": "A4",
                    "midi": 69,
                    "time": 1.5,
                    "velocity": 0.41732283464566927,
                    "duration": 0.25
                },
                {
                    "name": "D5",
                    "midi": 74,
                    "time": 1.5,
                    "velocity": 0.4881889763779528,
                    "duration": 0.25
                },
                {
                    "name": "D4",
                    "midi": 62,
                    "time": 1.75,
                    "velocity": 0.36220472440944884,
                    "duration": 0.125
                },
                {
                    "name": "A#4",
                    "midi": 70,
                    "time": 1.75,
                    "velocity": 0.4330708661417323,
                    "duration": 0.125
                },
                {
                    "name": "G4",
                    "midi": 67,
                    "time": 2,
                    "velocity": 0.4094488188976378,
                    "duration": 0.1875
                },
                {
                    "name": "D4",
                    "midi": 62,
                    "time": 2.1875,
                    "velocity": 0.3464566929133858,
                    "duration": 0.05624999999999991
                },
                {
                    "name": "A#4",
                    "midi": 70,
                    "time": 2.1875,
                    "velocity": 0.41732283464566927,
                    "duration": 0.05624999999999991
                },
                {
                    "name": "F4",
                    "midi": 65,
                    "time": 2.25,
                    "velocity": 0.44881889763779526,
                    "duration": 0.25
                },
                {
                    "name": "A#4",
                    "midi": 70,
                    "time": 2.25,
                    "velocity": 0.5196850393700787,
                    "duration": 0.25
                },
                {
                    "name": "A#3",
                    "midi": 58,
                    "time": 2.5,
                    "velocity": 0.4015748031496063,
                    "duration": 0.125
                },
                {
                    "name": "G4",
                    "midi": 67,
                    "time": 2.5,
                    "velocity": 0.48031496062992124,
                    "duration": 0.125
                },
                {
                    "name": "A#3",
                    "midi": 58,
                    "time": 2.75,
                    "velocity": 0.3700787401574803,
                    "duration": 0.1875
                },
                {
                    "name": "G4",
                    "midi": 67,
                    "time": 2.75,
                    "velocity": 0.44881889763779526,
                    "duration": 0.1875
                },
                {
                    "name": "D#4",
                    "midi": 63,
                    "time": 2.9375,
                    "velocity": 0.3779527559055118,
                    "duration": 0.05624999999999991
                },
                {
                    "name": "A4",
                    "midi": 69,
                    "time": 2.9375,
                    "velocity": 0.4566929133858268,
                    "duration": 0.05624999999999991
                },
                {
                    "name": "D#4",
                    "midi": 63,
                    "time": 3,
                    "velocity": 0.4881889763779528,
                    "duration": 0.25
                },
                {
                    "name": "A4",
                    "midi": 69,
                    "time": 3,
                    "velocity": 0.5669291338582677,
                    "duration": 0.25
                },
                {
                    "name": "A#3",
                    "midi": 58,
                    "time": 3.25,
                    "velocity": 0.4330708661417323,
                    "duration": 0.125
                },
                {
                    "name": "A#4",
                    "midi": 70,
                    "time": 3.25,
                    "velocity": 0.5196850393700787,
                    "duration": 0.125
                },
                {
                    "name": "F4",
                    "midi": 65,
                    "time": 3.5,
                    "velocity": 0.4015748031496063,
                    "duration": 0.25
                },
                {
                    "name": "A#4",
                    "midi": 70,
                    "time": 3.5,
                    "velocity": 0.48031496062992124,
                    "duration": 0.1875
                },
                {
                    "name": "C5",
                    "midi": 72,
                    "time": 3.6875,
                    "velocity": 0.49606299212598426,
                    "duration": 0.05624999999999991
                },
                {
                    "name": "F4",
                    "midi": 65,
                    "time": 3.75,
                    "velocity": 0.5275590551181102,
                    "duration": 0.25
                },
                {
                    "name": "C5",
                    "midi": 72,
                    "time": 3.75,
                    "velocity": 0.6220472440944882,
                    "duration": 0.25
                },
                {
                    "name": "A#4",
                    "midi": 70,
                    "time": 4,
                    "velocity": 0.47244094488188976,
                    "duration": 0.125
                },
                {
                    "name": "F4",
                    "midi": 65,
                    "time": 4,
                    "velocity": 0.47244094488188976,
                    "duration": 0.125
                },
                {
                    "name": "D5",
                    "midi": 74,
                    "time": 4,
                    "velocity": 0.5669291338582677,
                    "duration": 0.125
                },
                {
                    "name": "A#4",
                    "midi": 70,
                    "time": 4.25,
                    "velocity": 0.4409448818897638,
                    "duration": 0.25
                },
                {
                    "name": "D5",
                    "midi": 74,
                    "time": 4.25,
                    "velocity": 0.5275590551181102,
                    "duration": 0.1875
                },
                {
                    "name": "D#5",
                    "midi": 75,
                    "time": 4.4375,
                    "velocity": 0.5511811023622047,
                    "duration": 0.056250000000000355
                },
                {
                    "name": "A#4",
                    "midi": 70,
                    "time": 4.5,
                    "velocity": 0.5905511811023622,
                    "duration": 0.25
                },
                {
                    "name": "D#5",
                    "midi": 75,
                    "time": 4.5,
                    "velocity": 0.6929133858267716,
                    "duration": 0.25
                },
                {
                    "name": "C#5",
                    "midi": 73,
                    "time": 4.75,
                    "velocity": 0.5354330708661418,
                    "duration": 0.0625
                },
                {
                    "name": "A#4",
                    "midi": 70,
                    "time": 4.75,
                    "velocity": 0.5354330708661418,
                    "duration": 0.0625
                },
                {
                    "name": "F4",
                    "midi": 65,
                    "time": 4.75,
                    "velocity": 0.5354330708661418,
                    "duration": 0.0625
                },
                {
                    "name": "F5",
                    "midi": 77,
                    "time": 4.75,
                    "velocity": 0.6456692913385826,
                    "duration": 0.0625
                },
                {
                    "name": "G4",
                    "midi": 67,
                    "time": 5,
                    "velocity": 0.6220472440944882,
                    "duration": 0.0625
                },
                {
                    "name": "A#4",
                    "midi": 70,
                    "time": 5,
                    "velocity": 0.6220472440944882,
                    "duration": 0.0625
                },
                {
                    "name": "C5",
                    "midi": 72,
                    "time": 5,
                    "velocity": 0.6220472440944882,
                    "duration": 0.0625
                },
                {
                    "name": "G5",
                    "midi": 79,
                    "time": 5,
                    "velocity": 0.7401574803149606,
                    "duration": 0.0625
                },
                {
                    "name": "C4",
                    "midi": 60,
                    "time": 5.25,
                    "velocity": 0.6220472440944882,
                    "duration": 0.125
                },
                {
                    "name": "A4",
                    "midi": 69,
                    "time": 5.25,
                    "velocity": 0.6220472440944882,
                    "duration": 0.125
                },
                {
                    "name": "C5",
                    "midi": 72,
                    "time": 5.25,
                    "velocity": 0.7401574803149606,
                    "duration": 0.125
                },
                {
                    "name": "D6",
                    "midi": 86,
                    "time": 5.75,
                    "velocity": 0.3937007874015748,
                    "duration": 0.1875
                },
                {
                    "name": "A5",
                    "midi": 81,
                    "time": 5.9375,
                    "velocity": 0.33070866141732286,
                    "duration": 0.056250000000000355
                },
                {
                    "name": "F6",
                    "midi": 89,
                    "time": 5.9375,
                    "velocity": 0.3937007874015748,
                    "duration": 0.056250000000000355
                },
                {
                    "name": "C6",
                    "midi": 84,
                    "time": 6,
                    "velocity": 0.41732283464566927,
                    "duration": 0.25
                },
                {
                    "name": "F6",
                    "midi": 89,
                    "time": 6,
                    "velocity": 0.4881889763779528,
                    "duration": 0.25
                },
                {
                    "name": "F5",
                    "midi": 77,
                    "time": 6.25,
                    "velocity": 0.36220472440944884,
                    "duration": 0.125
                },
                {
                    "name": "D6",
                    "midi": 86,
                    "time": 6.25,
                    "velocity": 0.4330708661417323,
                    "duration": 0.125
                },
                {
                    "name": "A#5",
                    "midi": 82,
                    "time": 6.5,
                    "velocity": 0.3937007874015748,
                    "duration": 0.1875
                },
                {
                    "name": "F#5",
                    "midi": 78,
                    "time": 6.6875,
                    "velocity": 0.33070866141732286,
                    "duration": 0.056250000000000355
                },
                {
                    "name": "D6",
                    "midi": 86,
                    "time": 6.6875,
                    "velocity": 0.3937007874015748,
                    "duration": 0.056250000000000355
                },
                {
                    "name": "A5",
                    "midi": 81,
                    "time": 6.75,
                    "velocity": 0.41732283464566927,
                    "duration": 0.25
                },
                {
                    "name": "D6",
                    "midi": 86,
                    "time": 6.75,
                    "velocity": 0.4881889763779528,
                    "duration": 0.25
                },
                {
                    "name": "D5",
                    "midi": 74,
                    "time": 7,
                    "velocity": 0.36220472440944884,
                    "duration": 0.125
                },
                {
                    "name": "A#5",
                    "midi": 82,
                    "time": 7,
                    "velocity": 0.4330708661417323,
                    "duration": 0.125
                },
                {
                    "name": "G5",
                    "midi": 79,
                    "time": 7.25,
                    "velocity": 0.4094488188976378,
                    "duration": 0.1875
                },
                {
                    "name": "D5",
                    "midi": 74,
                    "time": 7.4375,
                    "velocity": 0.3464566929133858,
                    "duration": 0.056250000000000355
                },
                {
                    "name": "A#5",
                    "midi": 82,
                    "time": 7.4375,
                    "velocity": 0.41732283464566927,
                    "duration": 0.056250000000000355
                },
                {
                    "name": "F5",
                    "midi": 77,
                    "time": 7.5,
                    "velocity": 0.44881889763779526,
                    "duration": 0.25
                },
                {
                    "name": "A#5",
                    "midi": 82,
                    "time": 7.5,
                    "velocity": 0.5196850393700787,
                    "duration": 0.25
                },
                {
                    "name": "A#4",
                    "midi": 70,
                    "time": 7.75,
                    "velocity": 0.4015748031496063,
                    "duration": 0.125
                },
                {
                    "name": "G5",
                    "midi": 79,
                    "time": 7.75,
                    "velocity": 0.48031496062992124,
                    "duration": 0.125
                },
                {
                    "name": "A#4",
                    "midi": 70,
                    "time": 8,
                    "velocity": 0.3700787401574803,
                    "duration": 0.1875
                },
                {
                    "name": "G5",
                    "midi": 79,
                    "time": 8,
                    "velocity": 0.44881889763779526,
                    "duration": 0.1875
                },
                {
                    "name": "D#5",
                    "midi": 75,
                    "time": 8.1875,
                    "velocity": 0.3779527559055118,
                    "duration": 0.056250000000000355
                },
                {
                    "name": "A5",
                    "midi": 81,
                    "time": 8.1875,
                    "velocity": 0.4566929133858268,
                    "duration": 0.056250000000000355
                },
                {
                    "name": "D#5",
                    "midi": 75,
                    "time": 8.25,
                    "velocity": 0.4881889763779528,
                    "duration": 0.25
                },
                {
                    "name": "A5",
                    "midi": 81,
                    "time": 8.25,
                    "velocity": 0.5669291338582677,
                    "duration": 0.25
                },
                {
                    "name": "A#4",
                    "midi": 70,
                    "time": 8.5,
                    "velocity": 0.4330708661417323,
                    "duration": 0.125
                },
                {
                    "name": "A#5",
                    "midi": 82,
                    "time": 8.5,
                    "velocity": 0.5196850393700787,
                    "duration": 0.125
                },
                {
                    "name": "F5",
                    "midi": 77,
                    "time": 8.75,
                    "velocity": 0.4015748031496063,
                    "duration": 0.25
                },
                {
                    "name": "A#5",
                    "midi": 82,
                    "time": 8.75,
                    "velocity": 0.48031496062992124,
                    "duration": 0.1875
                },
                {
                    "name": "C6",
                    "midi": 84,
                    "time": 8.9375,
                    "velocity": 0.49606299212598426,
                    "duration": 0.056250000000000355
                },
                {
                    "name": "F5",
                    "midi": 77,
                    "time": 9,
                    "velocity": 0.5275590551181102,
                    "duration": 0.25
                },
                {
                    "name": "C6",
                    "midi": 84,
                    "time": 9,
                    "velocity": 0.6220472440944882,
                    "duration": 0.25
                },
                {
                    "name": "F5",
                    "midi": 77,
                    "time": 9.25,
                    "velocity": 0.47244094488188976,
                    "duration": 0.125
                },
                {
                    "name": "D6",
                    "midi": 86,
                    "time": 9.25,
                    "velocity": 0.5669291338582677,
                    "duration": 0.125
                },
                {
                    "name": "A#5",
                    "midi": 82,
                    "time": 9.5,
                    "velocity": 0.4409448818897638,
                    "duration": 0.25
                },
                {
                    "name": "D#6",
                    "midi": 87,
                    "time": 9.5,
                    "velocity": 0.5275590551181102,
                    "duration": 0.1875
                },
                {
                    "name": "E6",
                    "midi": 88,
                    "time": 9.6875,
                    "velocity": 0.5511811023622047,
                    "duration": 0.056250000000000355
                },
                {
                    "name": "A#5",
                    "midi": 82,
                    "time": 9.75,
                    "velocity": 0.5905511811023622,
                    "duration": 0.25
                },
                {
                    "name": "E6",
                    "midi": 88,
                    "time": 9.75,
                    "velocity": 0.6929133858267716,
                    "duration": 0.25
                },
                {
                    "name": "A5",
                    "midi": 81,
                    "time": 10,
                    "velocity": 0.5354330708661418,
                    "duration": 0.0625
                },
                {
                    "name": "F5",
                    "midi": 77,
                    "time": 10,
                    "velocity": 0.5354330708661418,
                    "duration": 0.0625
                },
                {
                    "name": "F6",
                    "midi": 89,
                    "time": 10,
                    "velocity": 0.6456692913385826,
                    "duration": 0.0625
                },
                {
                    "name": "G5",
                    "midi": 79,
                    "time": 10.25,
                    "velocity": 0.6220472440944882,
                    "duration": 0.0625
                },
                {
                    "name": "A#5",
                    "midi": 82,
                    "time": 10.25,
                    "velocity": 0.6220472440944882,
                    "duration": 0.0625
                },
                {
                    "name": "E6",
                    "midi": 88,
                    "time": 10.25,
                    "velocity": 0.6220472440944882,
                    "duration": 0.0625
                },
                {
                    "name": "G6",
                    "midi": 91,
                    "time": 10.25,
                    "velocity": 0.7401574803149606,
                    "duration": 0.0625
                },
                {
                    "name": "F5",
                    "midi": 77,
                    "time": 10.5,
                    "velocity": 0.6220472440944882,
                    "duration": 0.125
                },
                {
                    "name": "A5",
                    "midi": 81,
                    "time": 10.5,
                    "velocity": 0.6220472440944882,
                    "duration": 0.125
                },
                {
                    "name": "F6",
                    "midi": 89,
                    "time": 10.5,
                    "velocity": 0.7401574803149606,
                    "duration": 0.125
                },
                {
                    "name": "B4",
                    "midi": 71,
                    "time": 11,
                    "velocity": 0.33858267716535434,
                    "duration": 0.1875
                },
                {
                    "name": "D5",
                    "midi": 74,
                    "time": 11,
                    "velocity": 0.3937007874015748,
                    "duration": 0.1875
                },
                {
                    "name": "D5",
                    "midi": 74,
                    "time": 11.1875,
                    "velocity": 0.33070866141732286,
                    "duration": 0.046875
                },
                {
                    "name": "F5",
                    "midi": 77,
                    "time": 11.1875,
                    "velocity": 0.3937007874015748,
                    "duration": 0.046875
                },
                {
                    "name": "D5",
                    "midi": 74,
                    "time": 11.25,
                    "velocity": 0.41732283464566927,
                    "duration": 0.25
                },
                {
                    "name": "F5",
                    "midi": 77,
                    "time": 11.25,
                    "velocity": 0.4881889763779528,
                    "duration": 0.25
                },
                {
                    "name": "B4",
                    "midi": 71,
                    "time": 11.5,
                    "velocity": 0.36220472440944884,
                    "duration": 0.125
                },
                {
                    "name": "D5",
                    "midi": 74,
                    "time": 11.5,
                    "velocity": 0.4330708661417323,
                    "duration": 0.125
                },
                {
                    "name": "B4",
                    "midi": 71,
                    "time": 11.75,
                    "velocity": 0.33858267716535434,
                    "duration": 0.1875
                },
                {
                    "name": "D5",
                    "midi": 74,
                    "time": 11.75,
                    "velocity": 0.3937007874015748,
                    "duration": 0.1875
                },
                {
                    "name": "D#5",
                    "midi": 75,
                    "time": 11.9375,
                    "velocity": 0.33070866141732286,
                    "duration": 0.046875
                },
                {
                    "name": "G5",
                    "midi": 79,
                    "time": 11.9375,
                    "velocity": 0.3937007874015748,
                    "duration": 0.046875
                },
                {
                    "name": "D#5",
                    "midi": 75,
                    "time": 12,
                    "velocity": 0.41732283464566927,
                    "duration": 0.25
                },
                {
                    "name": "G5",
                    "midi": 79,
                    "time": 12,
                    "velocity": 0.4881889763779528,
                    "duration": 0.25
                },
                {
                    "name": "C5",
                    "midi": 72,
                    "time": 12.25,
                    "velocity": 0.36220472440944884,
                    "duration": 0.125
                },
                {
                    "name": "D#5",
                    "midi": 75,
                    "time": 12.25,
                    "velocity": 0.4330708661417323,
                    "duration": 0.125
                },
                {
                    "name": "A4",
                    "midi": 69,
                    "time": 12.5,
                    "velocity": 0.33858267716535434,
                    "duration": 0.1875
                },
                {
                    "name": "C5",
                    "midi": 72,
                    "time": 12.5,
                    "velocity": 0.3937007874015748,
                    "duration": 0.1875
                },
                {
                    "name": "C5",
                    "midi": 72,
                    "time": 12.6875,
                    "velocity": 0.33070866141732286,
                    "duration": 0.046875
                },
                {
                    "name": "D#5",
                    "midi": 75,
                    "time": 12.6875,
                    "velocity": 0.3937007874015748,
                    "duration": 0.046875
                },
                {
                    "name": "C5",
                    "midi": 72,
                    "time": 12.75,
                    "velocity": 0.41732283464566927,
                    "duration": 0.25
                },
                {
                    "name": "D#5",
                    "midi": 75,
                    "time": 12.75,
                    "velocity": 0.4881889763779528,
                    "duration": 0.25
                },
                {
                    "name": "A4",
                    "midi": 69,
                    "time": 13,
                    "velocity": 0.36220472440944884,
                    "duration": 0.125
                },
                {
                    "name": "C5",
                    "midi": 72,
                    "time": 13,
                    "velocity": 0.4330708661417323,
                    "duration": 0.125
                },
                {
                    "name": "A4",
                    "midi": 69,
                    "time": 13.25,
                    "velocity": 0.33858267716535434,
                    "duration": 0.1875
                },
                {
                    "name": "C5",
                    "midi": 72,
                    "time": 13.25,
                    "velocity": 0.3937007874015748,
                    "duration": 0.1875
                },
                {
                    "name": "C#5",
                    "midi": 73,
                    "time": 13.4375,
                    "velocity": 0.33070866141732286,
                    "duration": 0.046875
                },
                {
                    "name": "F5",
                    "midi": 77,
                    "time": 13.4375,
                    "velocity": 0.3937007874015748,
                    "duration": 0.046875
                },
                {
                    "name": "D5",
                    "midi": 74,
                    "time": 13.5,
                    "velocity": 0.41732283464566927,
                    "duration": 0.25
                },
                {
                    "name": "F5",
                    "midi": 77,
                    "time": 13.5,
                    "velocity": 0.4881889763779528,
                    "duration": 0.25
                },
                {
                    "name": "A#4",
                    "midi": 70,
                    "time": 13.75,
                    "velocity": 0.36220472440944884,
                    "duration": 0.125
                },
                {
                    "name": "D5",
                    "midi": 74,
                    "time": 13.75,
                    "velocity": 0.4330708661417323,
                    "duration": 0.125
                },
                {
                    "name": "A3",
                    "midi": 57,
                    "time": 14,
                    "velocity": 0.2992125984251969,
                    "duration": 0.1875
                },
                {
                    "name": "C4",
                    "midi": 60,
                    "time": 14,
                    "velocity": 0.3543307086614173,
                    "duration": 0.1875
                },
                {
                    "name": "C4",
                    "midi": 60,
                    "time": 14.1875,
                    "velocity": 0.29133858267716534,
                    "duration": 0.046875
                },
                {
                    "name": "D#4",
                    "midi": 63,
                    "time": 14.1875,
                    "velocity": 0.3543307086614173,
                    "duration": 0.046875
                },
                {
                    "name": "C4",
                    "midi": 60,
                    "time": 14.25,
                    "velocity": 0.3700787401574803,
                    "duration": 0.5
                },
                {
                    "name": "D#4",
                    "midi": 63,
                    "time": 14.25,
                    "velocity": 0.4330708661417323,
                    "duration": 0.5
                },
                {
                    "name": "A#3",
                    "midi": 58,
                    "time": 14.75,
                    "velocity": 0.31496062992125984,
                    "duration": 0.25
                },
                {
                    "name": "D4",
                    "midi": 62,
                    "time": 14.75,
                    "velocity": 0.3779527559055118,
                    "duration": 0.25
                },
                {
                    "name": "A3",
                    "midi": 57,
                    "time": 15,
                    "velocity": 0.30708661417322836,
                    "duration": 0.25
                },
                {
                    "name": "C4",
                    "midi": 60,
                    "time": 15,
                    "velocity": 0.36220472440944884,
                    "duration": 0.25
                },
                {
                    "name": "G3",
                    "midi": 55,
                    "time": 15.25,
                    "velocity": 0.2992125984251969,
                    "duration": 0.25
                },
                {
                    "name": "A#3",
                    "midi": 58,
                    "time": 15.25,
                    "velocity": 0.3543307086614173,
                    "duration": 0.25
                },
                {
                    "name": "F3",
                    "midi": 53,
                    "time": 15.5,
                    "velocity": 0.28346456692913385,
                    "duration": 0.5
                },
                {
                    "name": "A3",
                    "midi": 57,
                    "time": 15.5,
                    "velocity": 0.33858267716535434,
                    "duration": 0.5
                },
                {
                    "name": "E3",
                    "midi": 52,
                    "time": 16,
                    "velocity": 0.25984251968503935,
                    "duration": 0.25
                },
                {
                    "name": "G3",
                    "midi": 55,
                    "time": 16,
                    "velocity": 0.30708661417322836,
                    "duration": 0.25
                },
                {
                    "name": "D#3",
                    "midi": 51,
                    "time": 16.25,
                    "velocity": 0.25196850393700787,
                    "duration": 0.5
                },
                {
                    "name": "G3",
                    "midi": 55,
                    "time": 16.25,
                    "velocity": 0.25196850393700787,
                    "duration": 0.75
                },
                {
                    "name": "C4",
                    "midi": 60,
                    "time": 16.25,
                    "velocity": 0.2992125984251969,
                    "duration": 0.5
                },
                {
                    "name": "D3",
                    "midi": 50,
                    "time": 16.75,
                    "velocity": 0.25196850393700787,
                    "duration": 0.25
                },
                {
                    "name": "B3",
                    "midi": 59,
                    "time": 16.75,
                    "velocity": 0.2992125984251969,
                    "duration": 0.25
                },
                {
                    "name": "B3",
                    "midi": 59,
                    "time": 17.75,
                    "velocity": 0.31496062992125984,
                    "duration": 0.1875
                },
                {
                    "name": "D4",
                    "midi": 62,
                    "time": 17.9375,
                    "velocity": 0.31496062992125984,
                    "duration": 0.05624999999999858
                },
                {
                    "name": "D4",
                    "midi": 62,
                    "time": 18,
                    "velocity": 0.3858267716535433,
                    "duration": 0.25
                },
                {
                    "name": "B3",
                    "midi": 59,
                    "time": 18.25,
                    "velocity": 0.3464566929133858,
                    "duration": 0.125
                },
                {
                    "name": "D4",
                    "midi": 62,
                    "time": 18.5,
                    "velocity": 0.25984251968503935,
                    "duration": 0.625
                },
                {
                    "name": "B4",
                    "midi": 71,
                    "time": 18.5,
                    "velocity": 0.31496062992125984,
                    "duration": 0.1875
                },
                {
                    "name": "D5",
                    "midi": 74,
                    "time": 18.6875,
                    "velocity": 0.31496062992125984,
                    "duration": 0.05624999999999858
                },
                {
                    "name": "D5",
                    "midi": 74,
                    "time": 18.75,
                    "velocity": 0.3858267716535433,
                    "duration": 0.25
                },
                {
                    "name": "B4",
                    "midi": 71,
                    "time": 19,
                    "velocity": 0.3464566929133858,
                    "duration": 0.125
                },
                {
                    "name": "C6",
                    "midi": 84,
                    "time": 19.25,
                    "velocity": 0.36220472440944884,
                    "duration": 0.1875
                },
                {
                    "name": "D#6",
                    "midi": 87,
                    "time": 19.4375,
                    "velocity": 0.36220472440944884,
                    "duration": 0.05624999999999858
                },
                {
                    "name": "D#6",
                    "midi": 87,
                    "time": 19.5,
                    "velocity": 0.4409448818897638,
                    "duration": 0.25
                },
                {
                    "name": "C6",
                    "midi": 84,
                    "time": 19.75,
                    "velocity": 0.3937007874015748,
                    "duration": 0.125
                },
                {
                    "name": "D4",
                    "midi": 62,
                    "time": 20,
                    "velocity": 0.33858267716535434,
                    "duration": 0.1875
                },
                {
                    "name": "B4",
                    "midi": 71,
                    "time": 20,
                    "velocity": 0.3937007874015748,
                    "duration": 0.1875
                },
                {
                    "name": "F4",
                    "midi": 65,
                    "time": 20.1875,
                    "velocity": 0.33070866141732286,
                    "duration": 0.046875
                },
                {
                    "name": "D5",
                    "midi": 74,
                    "time": 20.1875,
                    "velocity": 0.3937007874015748,
                    "duration": 0.046875
                },
                {
                    "name": "F4",
                    "midi": 65,
                    "time": 20.25,
                    "velocity": 0.41732283464566927,
                    "duration": 0.25
                },
                {
                    "name": "D5",
                    "midi": 74,
                    "time": 20.25,
                    "velocity": 0.4881889763779528,
                    "duration": 0.25
                },
                {
                    "name": "D4",
                    "midi": 62,
                    "time": 20.5,
                    "velocity": 0.3700787401574803,
                    "duration": 0.125
                },
                {
                    "name": "B4",
                    "midi": 71,
                    "time": 20.5,
                    "velocity": 0.4409448818897638,
                    "duration": 0.125
                },
                {
                    "name": "D4",
                    "midi": 62,
                    "time": 20.75,
                    "velocity": 0.4015748031496063,
                    "duration": 0.1875
                },
                {
                    "name": "B4",
                    "midi": 71,
                    "time": 20.75,
                    "velocity": 0.4645669291338583,
                    "duration": 0.1875
                },
                {
                    "name": "G4",
                    "midi": 67,
                    "time": 20.9375,
                    "velocity": 0.3937007874015748,
                    "duration": 0.046875
                },
                {
                    "name": "D#5",
                    "midi": 75,
                    "time": 20.9375,
                    "velocity": 0.47244094488188976,
                    "duration": 0.046875
                },
                {
                    "name": "G4",
                    "midi": 67,
                    "time": 21,
                    "velocity": 0.49606299212598426,
                    "duration": 0.25
                },
                {
                    "name": "D#5",
                    "midi": 75,
                    "time": 21,
                    "velocity": 0.5905511811023622,
                    "duration": 0.25
                },
                {
                    "name": "D#4",
                    "midi": 63,
                    "time": 21.25,
                    "velocity": 0.4409448818897638,
                    "duration": 0.125
                },
                {
                    "name": "C5",
                    "midi": 72,
                    "time": 21.25,
                    "velocity": 0.5354330708661418,
                    "duration": 0.125
                },
                {
                    "name": "A4",
                    "midi": 69,
                    "time": 21.5,
                    "velocity": 0.48031496062992124,
                    "duration": 0.1875
                },
                {
                    "name": "C5",
                    "midi": 72,
                    "time": 21.5,
                    "velocity": 0.5748031496062992,
                    "duration": 0.1875
                },
                {
                    "name": "C5",
                    "midi": 72,
                    "time": 21.6875,
                    "velocity": 0.5196850393700787,
                    "duration": 0.05624999999999858
                },
                {
                    "name": "A5",
                    "midi": 81,
                    "time": 21.6875,
                    "velocity": 0.5905511811023622,
                    "duration": 0.05624999999999858
                },
                {
                    "name": "C5",
                    "midi": 72,
                    "time": 21.75,
                    "velocity": 0.6299212598425197,
                    "duration": 0.25
                },
                {
                    "name": "A5",
                    "midi": 81,
                    "time": 21.75,
                    "velocity": 0.7401574803149606,
                    "duration": 0.25
                },
                {
                    "name": "A4",
                    "midi": 69,
                    "time": 22,
                    "velocity": 0.5590551181102362,
                    "duration": 0.0625
                },
                {
                    "name": "F5",
                    "midi": 77,
                    "time": 22,
                    "velocity": 0.6692913385826772,
                    "duration": 0.0625
                },
                {
                    "name": "A#4",
                    "midi": 70,
                    "time": 22.25,
                    "velocity": 0.6771653543307087,
                    "duration": 0.0625
                },
                {
                    "name": "A#5",
                    "midi": 82,
                    "time": 22.25,
                    "velocity": 0.8110236220472441,
                    "duration": 0.0625
                },
                {
                    "name": "A#4",
                    "midi": 70,
                    "time": 22.5,
                    "velocity": 0.6771653543307087,
                    "duration": 0.125
                },
                {
                    "name": "A#5",
                    "midi": 82,
                    "time": 22.5,
                    "velocity": 0.8110236220472441,
                    "duration": 0.125
                },
                {
                    "name": "B5",
                    "midi": 83,
                    "time": 23,
                    "velocity": 0.33858267716535434,
                    "duration": 0.1875
                },
                {
                    "name": "D6",
                    "midi": 86,
                    "time": 23,
                    "velocity": 0.3937007874015748,
                    "duration": 0.1875
                },
                {
                    "name": "D6",
                    "midi": 86,
                    "time": 23.1875,
                    "velocity": 0.33070866141732286,
                    "duration": 0.046875
                },
                {
                    "name": "F6",
                    "midi": 89,
                    "time": 23.1875,
                    "velocity": 0.3937007874015748,
                    "duration": 0.046875
                },
                {
                    "name": "D6",
                    "midi": 86,
                    "time": 23.25,
                    "velocity": 0.41732283464566927,
                    "duration": 0.25
                },
                {
                    "name": "F6",
                    "midi": 89,
                    "time": 23.25,
                    "velocity": 0.4881889763779528,
                    "duration": 0.25
                },
                {
                    "name": "B5",
                    "midi": 83,
                    "time": 23.5,
                    "velocity": 0.36220472440944884,
                    "duration": 0.125
                },
                {
                    "name": "D6",
                    "midi": 86,
                    "time": 23.5,
                    "velocity": 0.4330708661417323,
                    "duration": 0.125
                },
                {
                    "name": "B5",
                    "midi": 83,
                    "time": 23.75,
                    "velocity": 0.33858267716535434,
                    "duration": 0.1875
                },
                {
                    "name": "D6",
                    "midi": 86,
                    "time": 23.75,
                    "velocity": 0.3937007874015748,
                    "duration": 0.1875
                },
                {
                    "name": "D#6",
                    "midi": 87,
                    "time": 23.9375,
                    "velocity": 0.33070866141732286,
                    "duration": 0.046875
                },
                {
                    "name": "G6",
                    "midi": 91,
                    "time": 23.9375,
                    "velocity": 0.3937007874015748,
                    "duration": 0.046875
                },
                {
                    "name": "D#6",
                    "midi": 87,
                    "time": 24,
                    "velocity": 0.41732283464566927,
                    "duration": 0.25
                },
                {
                    "name": "G6",
                    "midi": 91,
                    "time": 24,
                    "velocity": 0.4881889763779528,
                    "duration": 0.25
                },
                {
                    "name": "C6",
                    "midi": 84,
                    "time": 24.25,
                    "velocity": 0.36220472440944884,
                    "duration": 0.125
                },
                {
                    "name": "D#6",
                    "midi": 87,
                    "time": 24.25,
                    "velocity": 0.4330708661417323,
                    "duration": 0.125
                },
                {
                    "name": "A5",
                    "midi": 81,
                    "time": 24.5,
                    "velocity": 0.33858267716535434,
                    "duration": 0.1875
                },
                {
                    "name": "C6",
                    "midi": 84,
                    "time": 24.5,
                    "velocity": 0.3937007874015748,
                    "duration": 0.1875
                },
                {
                    "name": "C6",
                    "midi": 84,
                    "time": 24.6875,
                    "velocity": 0.33070866141732286,
                    "duration": 0.046875
                },
                {
                    "name": "D#6",
                    "midi": 87,
                    "time": 24.6875,
                    "velocity": 0.3937007874015748,
                    "duration": 0.046875
                },
                {
                    "name": "C6",
                    "midi": 84,
                    "time": 24.75,
                    "velocity": 0.41732283464566927,
                    "duration": 0.25
                },
                {
                    "name": "D#6",
                    "midi": 87,
                    "time": 24.75,
                    "velocity": 0.4881889763779528,
                    "duration": 0.25
                },
                {
                    "name": "A5",
                    "midi": 81,
                    "time": 25,
                    "velocity": 0.36220472440944884,
                    "duration": 0.125
                },
                {
                    "name": "C6",
                    "midi": 84,
                    "time": 25,
                    "velocity": 0.4330708661417323,
                    "duration": 0.125
                },
                {
                    "name": "A5",
                    "midi": 81,
                    "time": 25.25,
                    "velocity": 0.33858267716535434,
                    "duration": 0.1875
                },
                {
                    "name": "C6",
                    "midi": 84,
                    "time": 25.25,
                    "velocity": 0.3937007874015748,
                    "duration": 0.1875
                },
                {
                    "name": "C#6",
                    "midi": 85,
                    "time": 25.4375,
                    "velocity": 0.33070866141732286,
                    "duration": 0.046875
                },
                {
                    "name": "F6",
                    "midi": 89,
                    "time": 25.4375,
                    "velocity": 0.3937007874015748,
                    "duration": 0.046875
                },
                {
                    "name": "D6",
                    "midi": 86,
                    "time": 25.5,
                    "velocity": 0.41732283464566927,
                    "duration": 0.25
                },
                {
                    "name": "F6",
                    "midi": 89,
                    "time": 25.5,
                    "velocity": 0.4881889763779528,
                    "duration": 0.25
                },
                {
                    "name": "A#5",
                    "midi": 82,
                    "time": 25.75,
                    "velocity": 0.36220472440944884,
                    "duration": 0.125
                },
                {
                    "name": "D6",
                    "midi": 86,
                    "time": 25.75,
                    "velocity": 0.4330708661417323,
                    "duration": 0.125
                },
                {
                    "name": "A4",
                    "midi": 69,
                    "time": 26,
                    "velocity": 0.2992125984251969,
                    "duration": 0.1875
                },
                {
                    "name": "C5",
                    "midi": 72,
                    "time": 26,
                    "velocity": 0.3543307086614173,
                    "duration": 0.1875
                },
                {
                    "name": "C5",
                    "midi": 72,
                    "time": 26.1875,
                    "velocity": 0.29133858267716534,
                    "duration": 0.046875
                },
                {
                    "name": "D#5",
                    "midi": 75,
                    "time": 26.1875,
                    "velocity": 0.3543307086614173,
                    "duration": 0.046875
                },
                {
                    "name": "C5",
                    "midi": 72,
                    "time": 26.25,
                    "velocity": 0.3700787401574803,
                    "duration": 0.5
                },
                {
                    "name": "D#5",
                    "midi": 75,
                    "time": 26.25,
                    "velocity": 0.4330708661417323,
                    "duration": 0.5
                },
                {
                    "name": "A#4",
                    "midi": 70,
                    "time": 26.75,
                    "velocity": 0.31496062992125984,
                    "duration": 0.25
                },
                {
                    "name": "D5",
                    "midi": 74,
                    "time": 26.75,
                    "velocity": 0.3779527559055118,
                    "duration": 0.25
                },
                {
                    "name": "A4",
                    "midi": 69,
                    "time": 27,
                    "velocity": 0.30708661417322836,
                    "duration": 0.25
                },
                {
                    "name": "C5",
                    "midi": 72,
                    "time": 27,
                    "velocity": 0.36220472440944884,
                    "duration": 0.25
                },
                {
                    "name": "G4",
                    "midi": 67,
                    "time": 27.25,
                    "velocity": 0.2992125984251969,
                    "duration": 0.25
                },
                {
                    "name": "A#4",
                    "midi": 70,
                    "time": 27.25,
                    "velocity": 0.3543307086614173,
                    "duration": 0.25
                },
                {
                    "name": "F4",
                    "midi": 65,
                    "time": 27.5,
                    "velocity": 0.28346456692913385,
                    "duration": 0.5
                },
                {
                    "name": "A4",
                    "midi": 69,
                    "time": 27.5,
                    "velocity": 0.33858267716535434,
                    "duration": 0.5
                },
                {
                    "name": "E4",
                    "midi": 64,
                    "time": 28,
                    "velocity": 0.25984251968503935,
                    "duration": 0.25
                },
                {
                    "name": "G4",
                    "midi": 67,
                    "time": 28,
                    "velocity": 0.30708661417322836,
                    "duration": 0.25
                },
                {
                    "name": "D#4",
                    "midi": 63,
                    "time": 28.25,
                    "velocity": 0.25196850393700787,
                    "duration": 0.5
                },
                {
                    "name": "G4",
                    "midi": 67,
                    "time": 28.25,
                    "velocity": 0.25196850393700787,
                    "duration": 0.75
                },
                {
                    "name": "C5",
                    "midi": 72,
                    "time": 28.25,
                    "velocity": 0.2992125984251969,
                    "duration": 0.5
                },
                {
                    "name": "D4",
                    "midi": 62,
                    "time": 28.75,
                    "velocity": 0.25196850393700787,
                    "duration": 0.25
                },
                {
                    "name": "B4",
                    "midi": 71,
                    "time": 28.75,
                    "velocity": 0.2992125984251969,
                    "duration": 0.25
                },
                {
                    "name": "B4",
                    "midi": 71,
                    "time": 29.75,
                    "velocity": 0.31496062992125984,
                    "duration": 0.1875
                },
                {
                    "name": "D5",
                    "midi": 74,
                    "time": 29.9375,
                    "velocity": 0.31496062992125984,
                    "duration": 0.05624999999999858
                },
                {
                    "name": "D5",
                    "midi": 74,
                    "time": 30,
                    "velocity": 0.3858267716535433,
                    "duration": 0.25
                },
                {
                    "name": "B4",
                    "midi": 71,
                    "time": 30.25,
                    "velocity": 0.3464566929133858,
                    "duration": 0.125
                },
                {
                    "name": "D5",
                    "midi": 74,
                    "time": 30.5,
                    "velocity": 0.25984251968503935,
                    "duration": 0.625
                },
                {
                    "name": "B5",
                    "midi": 83,
                    "time": 30.5,
                    "velocity": 0.31496062992125984,
                    "duration": 0.1875
                },
                {
                    "name": "D6",
                    "midi": 86,
                    "time": 30.6875,
                    "velocity": 0.31496062992125984,
                    "duration": 0.05624999999999858
                },
                {
                    "name": "D6",
                    "midi": 86,
                    "time": 30.75,
                    "velocity": 0.3858267716535433,
                    "duration": 0.25
                },
                {
                    "name": "B5",
                    "midi": 83,
                    "time": 31,
                    "velocity": 0.3464566929133858,
                    "duration": 0.125
                },
                {
                    "name": "C5",
                    "midi": 72,
                    "time": 31.25,
                    "velocity": 0.36220472440944884,
                    "duration": 0.1875
                },
                {
                    "name": "D#5",
                    "midi": 75,
                    "time": 31.4375,
                    "velocity": 0.36220472440944884,
                    "duration": 0.05624999999999858
                },
                {
                    "name": "D#5",
                    "midi": 75,
                    "time": 31.5,
                    "velocity": 0.4409448818897638,
                    "duration": 0.25
                },
                {
                    "name": "C5",
                    "midi": 72,
                    "time": 31.75,
                    "velocity": 0.3937007874015748,
                    "duration": 0.125
                },
                {
                    "name": "D5",
                    "midi": 74,
                    "time": 32,
                    "velocity": 0.33858267716535434,
                    "duration": 0.1875
                },
                {
                    "name": "B5",
                    "midi": 83,
                    "time": 32,
                    "velocity": 0.3937007874015748,
                    "duration": 0.1875
                },
                {
                    "name": "F5",
                    "midi": 77,
                    "time": 32.1875,
                    "velocity": 0.33070866141732286,
                    "duration": 0.046875
                },
                {
                    "name": "D6",
                    "midi": 86,
                    "time": 32.1875,
                    "velocity": 0.3937007874015748,
                    "duration": 0.046875
                },
                {
                    "name": "F5",
                    "midi": 77,
                    "time": 32.25,
                    "velocity": 0.4251968503937008,
                    "duration": 0.25
                },
                {
                    "name": "D6",
                    "midi": 86,
                    "time": 32.25,
                    "velocity": 0.49606299212598426,
                    "duration": 0.25
                },
                {
                    "name": "D5",
                    "midi": 74,
                    "time": 32.5,
                    "velocity": 0.3779527559055118,
                    "duration": 0.125
                },
                {
                    "name": "B5",
                    "midi": 83,
                    "time": 32.5,
                    "velocity": 0.44881889763779526,
                    "duration": 0.125
                },
                {
                    "name": "D5",
                    "midi": 74,
                    "time": 32.75,
                    "velocity": 0.4094488188976378,
                    "duration": 0.1875
                },
                {
                    "name": "B5",
                    "midi": 83,
                    "time": 32.75,
                    "velocity": 0.47244094488188976,
                    "duration": 0.1875
                },
                {
                    "name": "G5",
                    "midi": 79,
                    "time": 32.9375,
                    "velocity": 0.4094488188976378,
                    "duration": 0.046875
                },
                {
                    "name": "D#6",
                    "midi": 87,
                    "time": 32.9375,
                    "velocity": 0.4881889763779528,
                    "duration": 0.046875
                },
                {
                    "name": "G5",
                    "midi": 79,
                    "time": 33,
                    "velocity": 0.5196850393700787,
                    "duration": 0.25
                },
                {
                    "name": "D#6",
                    "midi": 87,
                    "time": 33,
                    "velocity": 0.6141732283464567,
                    "duration": 0.25
                },
                {
                    "name": "D#5",
                    "midi": 75,
                    "time": 33.25,
                    "velocity": 0.4566929133858268,
                    "duration": 0.125
                },
                {
                    "name": "C6",
                    "midi": 84,
                    "time": 33.25,
                    "velocity": 0.5511811023622047,
                    "duration": 0.125
                },
                {
                    "name": "A5",
                    "midi": 81,
                    "time": 33.5,
                    "velocity": 0.5039370078740157,
                    "duration": 0.1875
                },
                {
                    "name": "C6",
                    "midi": 84,
                    "time": 33.5,
                    "velocity": 0.6062992125984252,
                    "duration": 0.1875
                },
                {
                    "name": "C6",
                    "midi": 84,
                    "time": 33.6875,
                    "velocity": 0.5433070866141733,
                    "duration": 0.05624999999999858
                },
                {
                    "name": "A6",
                    "midi": 93,
                    "time": 33.6875,
                    "velocity": 0.6220472440944882,
                    "duration": 0.05624999999999858
                },
                {
                    "name": "C6",
                    "midi": 84,
                    "time": 33.75,
                    "velocity": 0.6535433070866141,
                    "duration": 0.25
                },
                {
                    "name": "A6",
                    "midi": 93,
                    "time": 33.75,
                    "velocity": 0.7716535433070866,
                    "duration": 0.25
                },
                {
                    "name": "A5",
                    "midi": 81,
                    "time": 34,
                    "velocity": 0.5826771653543307,
                    "duration": 0.0625
                },
                {
                    "name": "F6",
                    "midi": 89,
                    "time": 34,
                    "velocity": 0.7007874015748031,
                    "duration": 0.0625
                },
                {
                    "name": "A#5",
                    "midi": 82,
                    "time": 34.25,
                    "velocity": 0.7401574803149606,
                    "duration": 0.0625
                },
                {
                    "name": "A#6",
                    "midi": 94,
                    "time": 34.25,
                    "velocity": 0.8818897637795275,
                    "duration": 0.0625
                },
                {
                    "name": "A#5",
                    "midi": 82,
                    "time": 34.5,
                    "velocity": 0.7401574803149606,
                    "duration": 0.125
                },
                {
                    "name": "A#6",
                    "midi": 94,
                    "time": 34.5,
                    "velocity": 0.8818897637795275,
                    "duration": 0.125
                },
                {
                    "name": "C#5",
                    "midi": 73,
                    "time": 35,
                    "velocity": 0.4094488188976378,
                    "duration": 0.5
                },
                {
                    "name": "C#6",
                    "midi": 85,
                    "time": 35,
                    "velocity": 0.4881889763779528,
                    "duration": 0.5
                },
                {
                    "name": "F6",
                    "midi": 89,
                    "time": 35.5,
                    "velocity": 0.4566929133858268,
                    "duration": 0.25
                },
                {
                    "name": "F5",
                    "midi": 77,
                    "time": 35.5,
                    "velocity": 0.4566929133858268,
                    "duration": 0.25
                },
                {
                    "name": "C#5",
                    "midi": 73,
                    "time": 35.75,
                    "velocity": 0.4094488188976378,
                    "duration": 0.5
                },
                {
                    "name": "C#6",
                    "midi": 85,
                    "time": 35.75,
                    "velocity": 0.4881889763779528,
                    "duration": 0.5
                },
                {
                    "name": "A#4",
                    "midi": 70,
                    "time": 36.25,
                    "velocity": 0.4094488188976378,
                    "duration": 0.25
                },
                {
                    "name": "A#5",
                    "midi": 82,
                    "time": 36.25,
                    "velocity": 0.4881889763779528,
                    "duration": 0.25
                },
                {
                    "name": "F4",
                    "midi": 65,
                    "time": 36.5,
                    "velocity": 0.3779527559055118,
                    "duration": 0.25
                },
                {
                    "name": "F5",
                    "midi": 77,
                    "time": 36.5,
                    "velocity": 0.44881889763779526,
                    "duration": 0.25
                },
                {
                    "name": "A#4",
                    "midi": 70,
                    "time": 36.75,
                    "velocity": 0.41732283464566927,
                    "duration": 0.5
                },
                {
                    "name": "A#5",
                    "midi": 82,
                    "time": 36.75,
                    "velocity": 0.49606299212598426,
                    "duration": 0.5
                },
                {
                    "name": "C#6",
                    "midi": 85,
                    "time": 37.25,
                    "velocity": 0.5196850393700787,
                    "duration": 0.25
                },
                {
                    "name": "C#5",
                    "midi": 73,
                    "time": 37.25,
                    "velocity": 0.4330708661417323,
                    "duration": 0.25
                },
                {
                    "name": "F5",
                    "midi": 77,
                    "time": 37.5,
                    "velocity": 0.4566929133858268,
                    "duration": 0.5
                },
                {
                    "name": "F6",
                    "midi": 89,
                    "time": 37.5,
                    "velocity": 0.5433070866141733,
                    "duration": 0.5
                },
                {
                    "name": "C#6",
                    "midi": 85,
                    "time": 38,
                    "velocity": 0.6220472440944882,
                    "duration": 0.25
                },
                {
                    "name": "C#5",
                    "midi": 73,
                    "time": 38,
                    "velocity": 0.5275590551181102,
                    "duration": 0.25
                },
                {
                    "name": "A#5",
                    "midi": 82,
                    "time": 38.25,
                    "velocity": 0.6377952755905512,
                    "duration": 0.5
                },
                {
                    "name": "A#4",
                    "midi": 70,
                    "time": 38.25,
                    "velocity": 0.5354330708661418,
                    "duration": 0.5
                },
                {
                    "name": "F5",
                    "midi": 77,
                    "time": 38.75,
                    "velocity": 0.6456692913385826,
                    "duration": 0.25
                },
                {
                    "name": "F4",
                    "midi": 65,
                    "time": 38.75,
                    "velocity": 0.5354330708661418,
                    "duration": 0.25
                },
                {
                    "name": "A#4",
                    "midi": 70,
                    "time": 39,
                    "velocity": 0.5669291338582677,
                    "duration": 0.5
                },
                {
                    "name": "A#5",
                    "midi": 82,
                    "time": 39,
                    "velocity": 0.6771653543307087,
                    "duration": 0.5
                },
                {
                    "name": "C#6",
                    "midi": 85,
                    "time": 39.5,
                    "velocity": 0.6141732283464567,
                    "duration": 0.25
                },
                {
                    "name": "C#5",
                    "midi": 73,
                    "time": 39.5,
                    "velocity": 0.5196850393700787,
                    "duration": 0.25
                },
                {
                    "name": "F5",
                    "midi": 77,
                    "time": 39.75,
                    "velocity": 0.47244094488188976,
                    "duration": 0.5
                },
                {
                    "name": "F6",
                    "midi": 89,
                    "time": 39.75,
                    "velocity": 0.5669291338582677,
                    "duration": 0.5
                },
                {
                    "name": "G#6",
                    "midi": 92,
                    "time": 40.25,
                    "velocity": 0.4015748031496063,
                    "duration": 0.25
                },
                {
                    "name": "G#5",
                    "midi": 80,
                    "time": 40.25,
                    "velocity": 0.33070866141732286,
                    "duration": 0.25
                },
                {
                    "name": "C#6",
                    "midi": 85,
                    "time": 40.5,
                    "velocity": 0.3779527559055118,
                    "duration": 0.25
                },
                {
                    "name": "C#5",
                    "midi": 73,
                    "time": 40.5,
                    "velocity": 0.31496062992125984,
                    "duration": 0.25
                },
                {
                    "name": "A#4",
                    "midi": 70,
                    "time": 41,
                    "velocity": 0.2677165354330709,
                    "duration": 0.0625
                },
                {
                    "name": "A#5",
                    "midi": 82,
                    "time": 41,
                    "velocity": 0.31496062992125984,
                    "duration": 0.0625
                },
                {
                    "name": "A#4",
                    "midi": 70,
                    "time": 41.25,
                    "velocity": 0.2677165354330709,
                    "duration": 0.0625
                },
                {
                    "name": "A#5",
                    "midi": 82,
                    "time": 41.25,
                    "velocity": 0.31496062992125984,
                    "duration": 0.0625
                },
                {
                    "name": "C#5",
                    "midi": 73,
                    "time": 41.75,
                    "velocity": 0.29133858267716534,
                    "duration": 0.0833333333333357
                },
                {
                    "name": "A#4",
                    "midi": 70,
                    "time": 41.833333333333336,
                    "velocity": 0.23622047244094488,
                    "duration": 0.0833333333333357
                },
                {
                    "name": "F4",
                    "midi": 65,
                    "time": 41.91666666666667,
                    "velocity": 0.23622047244094488,
                    "duration": 0.0833333333333357
                },
                {
                    "name": "C#5",
                    "midi": 73,
                    "time": 42.00000000000001,
                    "velocity": 0.29133858267716534,
                    "duration": 0.0833333333333357
                },
                {
                    "name": "A#4",
                    "midi": 70,
                    "time": 42.08333333333334,
                    "velocity": 0.2440944881889764,
                    "duration": 0.0833333333333357
                },
                {
                    "name": "F4",
                    "midi": 65,
                    "time": 42.16666666666668,
                    "velocity": 0.2440944881889764,
                    "duration": 0.0833333333333357
                },
                {
                    "name": "F5",
                    "midi": 77,
                    "time": 42.250000000000014,
                    "velocity": 0.29133858267716534,
                    "duration": 0.0833333333333357
                },
                {
                    "name": "C#5",
                    "midi": 73,
                    "time": 42.33333333333335,
                    "velocity": 0.2440944881889764,
                    "duration": 0.0833333333333357
                },
                {
                    "name": "A#4",
                    "midi": 70,
                    "time": 42.416666666666686,
                    "velocity": 0.23622047244094488,
                    "duration": 0.0833333333333357
                },
                {
                    "name": "C#5",
                    "midi": 73,
                    "time": 42.50000000000002,
                    "velocity": 0.29133858267716534,
                    "duration": 0.0833333333333357
                },
                {
                    "name": "A#4",
                    "midi": 70,
                    "time": 42.58333333333336,
                    "velocity": 0.2440944881889764,
                    "duration": 0.0833333333333357
                },
                {
                    "name": "F4",
                    "midi": 65,
                    "time": 42.66666666666669,
                    "velocity": 0.2440944881889764,
                    "duration": 0.0833333333333357
                },
                {
                    "name": "C#5",
                    "midi": 73,
                    "time": 42.75000000000003,
                    "velocity": 0.29133858267716534,
                    "duration": 0.0833333333333357
                },
                {
                    "name": "A#4",
                    "midi": 70,
                    "time": 42.833333333333364,
                    "velocity": 0.2440944881889764,
                    "duration": 0.0833333333333357
                },
                {
                    "name": "F4",
                    "midi": 65,
                    "time": 42.9166666666667,
                    "velocity": 0.2440944881889764,
                    "duration": 0.0833333333333357
                },
                {
                    "name": "A#4",
                    "midi": 70,
                    "time": 43.000000000000036,
                    "velocity": 0.30708661417322836,
                    "duration": 0.0833333333333357
                },
                {
                    "name": "F4",
                    "midi": 65,
                    "time": 43.08333333333337,
                    "velocity": 0.25196850393700787,
                    "duration": 0.0833333333333357
                },
                {
                    "name": "C#4",
                    "midi": 61,
                    "time": 43.16666666666671,
                    "velocity": 0.25196850393700787,
                    "duration": 0.0833333333333357
                },
                {
                    "name": "F4",
                    "midi": 65,
                    "time": 43.25000000000004,
                    "velocity": 0.31496062992125984,
                    "duration": 0.0833333333333357
                },
                {
                    "name": "C#4",
                    "midi": 61,
                    "time": 43.33333333333338,
                    "velocity": 0.2677165354330709,
                    "duration": 0.0833333333333357
                },
                {
                    "name": "A#3",
                    "midi": 58,
                    "time": 43.416666666666714,
                    "velocity": 0.28346456692913385,
                    "duration": 0.0833333333333357
                },
                {
                    "name": "C#4",
                    "midi": 61,
                    "time": 43.50000000000005,
                    "velocity": 0.3858267716535433,
                    "duration": 0.0833333333333357
                },
                {
                    "name": "A#4",
                    "midi": 70,
                    "time": 43.50000000000005,
                    "velocity": 0.3858267716535433,
                    "duration": 0.0833333333333357
                },
                {
                    "name": "A#3",
                    "midi": 58,
                    "time": 43.583333333333385,
                    "velocity": 0.33070866141732286,
                    "duration": 0.0833333333333357
                },
                {
                    "name": "C#4",
                    "midi": 61,
                    "time": 43.66666666666672,
                    "velocity": 0.33070866141732286,
                    "duration": 0.0833333333333357
                },
                {
                    "name": "A#4",
                    "midi": 70,
                    "time": 43.75000000000006,
                    "velocity": 0.3937007874015748,
                    "duration": 0.0833333333333357
                },
                {
                    "name": "C#4",
                    "midi": 61,
                    "time": 43.83333333333339,
                    "velocity": 0.33858267716535434,
                    "duration": 0.0833333333333357
                },
                {
                    "name": "A#3",
                    "midi": 58,
                    "time": 43.91666666666673,
                    "velocity": 0.33858267716535434,
                    "duration": 0.0833333333333357
                },
                {
                    "name": "F4",
                    "midi": 65,
                    "time": 44.000000000000064,
                    "velocity": 0.4251968503937008,
                    "duration": 0.0833333333333357
                },
                {
                    "name": "C#5",
                    "midi": 73,
                    "time": 44.000000000000064,
                    "velocity": 0.4251968503937008,
                    "duration": 0.0833333333333357
                },
                {
                    "name": "C#4",
                    "midi": 61,
                    "time": 44.0833333333334,
                    "velocity": 0.36220472440944884,
                    "duration": 0.0833333333333357
                },
                {
                    "name": "F4",
                    "midi": 65,
                    "time": 44.166666666666735,
                    "velocity": 0.4015748031496063,
                    "duration": 0.0833333333333357
                },
                {
                    "name": "F5",
                    "midi": 77,
                    "time": 44.25000000000007,
                    "velocity": 0.49606299212598426,
                    "duration": 0.0833333333333357
                },
                {
                    "name": "C#5",
                    "midi": 73,
                    "time": 44.33333333333341,
                    "velocity": 0.4330708661417323,
                    "duration": 0.0833333333333357
                },
                {
                    "name": "A#4",
                    "midi": 70,
                    "time": 44.41666666666674,
                    "velocity": 0.4645669291338583,
                    "duration": 0.0833333333333357
                },
                {
                    "name": "F5",
                    "midi": 77,
                    "time": 44.50000000000008,
                    "velocity": 0.5590551181102362,
                    "duration": 0.0833333333333357
                },
                {
                    "name": "C#5",
                    "midi": 73,
                    "time": 44.583333333333414,
                    "velocity": 0.47244094488188976,
                    "duration": 0.0833333333333357
                },
                {
                    "name": "A#4",
                    "midi": 70,
                    "time": 44.66666666666675,
                    "velocity": 0.5039370078740157,
                    "duration": 0.0833333333333357
                },
                {
                    "name": "C#5",
                    "midi": 73,
                    "time": 44.750000000000085,
                    "velocity": 0.6062992125984252,
                    "duration": 0.0833333333333357
                },
                {
                    "name": "A#4",
                    "midi": 70,
                    "time": 44.83333333333342,
                    "velocity": 0.5275590551181102,
                    "duration": 0.0833333333333357
                },
                {
                    "name": "F4",
                    "midi": 65,
                    "time": 44.91666666666676,
                    "velocity": 0.48031496062992124,
                    "duration": 0.0833333333333357
                },
                {
                    "name": "A#4",
                    "midi": 70,
                    "time": 45.00000000000009,
                    "velocity": 0.6535433070866141,
                    "duration": 0.0833333333333357
                },
                {
                    "name": "F4",
                    "midi": 65,
                    "time": 45.08333333333343,
                    "velocity": 0.5354330708661418,
                    "duration": 0.0833333333333357
                },
                {
                    "name": "C#4",
                    "midi": 61,
                    "time": 45.166666666666764,
                    "velocity": 0.4566929133858268,
                    "duration": 0.0833333333333357
                },
                {
                    "name": "A#4",
                    "midi": 70,
                    "time": 45.2500000000001,
                    "velocity": 0.5039370078740157,
                    "duration": 0.0833333333333357
                },
                {
                    "name": "F4",
                    "midi": 65,
                    "time": 45.333333333333435,
                    "velocity": 0.4251968503937008,
                    "duration": 0.0833333333333357
                },
                {
                    "name": "C#4",
                    "midi": 61,
                    "time": 45.41666666666677,
                    "velocity": 0.36220472440944884,
                    "duration": 0.0833333333333357
                },
                {
                    "name": "F4",
                    "midi": 65,
                    "time": 45.50000000000011,
                    "velocity": 0.47244094488188976,
                    "duration": 0.0833333333333357
                },
                {
                    "name": "C#4",
                    "midi": 61,
                    "time": 45.58333333333344,
                    "velocity": 0.3543307086614173,
                    "duration": 0.0833333333333357
                },
                {
                    "name": "A#3",
                    "midi": 58,
                    "time": 45.66666666666678,
                    "velocity": 0.3464566929133858,
                    "duration": 0.0833333333333357
                },
                {
                    "name": "C#4",
                    "midi": 61,
                    "time": 45.750000000000114,
                    "velocity": 0.2440944881889764,
                    "duration": 0.0833333333333357
                },
                {
                    "name": "G#4",
                    "midi": 68,
                    "time": 45.750000000000114,
                    "velocity": 0.3464566929133858,
                    "duration": 0.0833333333333357
                },
                {
                    "name": "G#3",
                    "midi": 56,
                    "time": 45.83333333333345,
                    "velocity": 0.28346456692913385,
                    "duration": 0.0833333333333357
                },
                {
                    "name": "C#4",
                    "midi": 61,
                    "time": 45.916666666666785,
                    "velocity": 0.2755905511811024,
                    "duration": 0.0833333333333357
                },
                {
                    "name": "G#4",
                    "midi": 68,
                    "time": 46.00000000000012,
                    "velocity": 0.3228346456692913,
                    "duration": 0.0833333333333357
                },
                {
                    "name": "F4",
                    "midi": 65,
                    "time": 46.08333333333346,
                    "velocity": 0.2677165354330709,
                    "duration": 0.0833333333333357
                },
                {
                    "name": "C#4",
                    "midi": 61,
                    "time": 46.16666666666679,
                    "velocity": 0.25196850393700787,
                    "duration": 0.0833333333333357
                },
                {
                    "name": "F4",
                    "midi": 65,
                    "time": 46.25000000000013,
                    "velocity": 0.2125984251968504,
                    "duration": 0.0833333333333357
                },
                {
                    "name": "C#5",
                    "midi": 73,
                    "time": 46.25000000000013,
                    "velocity": 0.30708661417322836,
                    "duration": 0.0833333333333357
                },
                {
                    "name": "C#4",
                    "midi": 61,
                    "time": 46.333333333333464,
                    "velocity": 0.25196850393700787,
                    "duration": 0.0833333333333357
                },
                {
                    "name": "F4",
                    "midi": 65,
                    "time": 46.4166666666668,
                    "velocity": 0.2440944881889764,
                    "duration": 0.0833333333333357
                },
                {
                    "name": "F5",
                    "midi": 77,
                    "time": 46.500000000000135,
                    "velocity": 0.29133858267716534,
                    "duration": 0.0833333333333357
                },
                {
                    "name": "C#5",
                    "midi": 73,
                    "time": 46.58333333333347,
                    "velocity": 0.2047244094488189,
                    "duration": 0.0833333333333357
                },
                {
                    "name": "G#4",
                    "midi": 68,
                    "time": 46.666666666666806,
                    "velocity": 0.2047244094488189,
                    "duration": 0.0833333333333357
                },
                {
                    "name": "F5",
                    "midi": 77,
                    "time": 46.75000000000014,
                    "velocity": 0.23622047244094488,
                    "duration": 0.0833333333333357
                },
                {
                    "name": "C#5",
                    "midi": 73,
                    "time": 46.83333333333348,
                    "velocity": 0.1968503937007874,
                    "duration": 0.0833333333333357
                },
                {
                    "name": "G#4",
                    "midi": 68,
                    "time": 46.91666666666681,
                    "velocity": 0.1968503937007874,
                    "duration": 0.0833333333333357
                },
                {
                    "name": "G#5",
                    "midi": 80,
                    "time": 47.00000000000015,
                    "velocity": 0.23622047244094488,
                    "duration": 0.0833333333333357
                },
                {
                    "name": "F5",
                    "midi": 77,
                    "time": 47.083333333333485,
                    "velocity": 0.1968503937007874,
                    "duration": 0.0833333333333357
                },
                {
                    "name": "C#5",
                    "midi": 73,
                    "time": 47.16666666666682,
                    "velocity": 0.1968503937007874,
                    "duration": 0.08124999999999716
                },
                {
                    "name": "F4",
                    "midi": 65,
                    "time": 47.25000000000015,
                    "velocity": 0.25984251968503935,
                    "duration": 0.25
                },
                {
                    "name": "C#5",
                    "midi": 73,
                    "time": 47.25000000000015,
                    "velocity": 0.31496062992125984,
                    "duration": 0.25
                },
                {
                    "name": "F5",
                    "midi": 77,
                    "time": 47.75000000000015,
                    "velocity": 0.3779527559055118,
                    "duration": 0.5
                },
                {
                    "name": "F6",
                    "midi": 89,
                    "time": 47.75000000000015,
                    "velocity": 0.44881889763779526,
                    "duration": 0.5
                },
                {
                    "name": "G#6",
                    "midi": 92,
                    "time": 48.25000000000015,
                    "velocity": 0.41732283464566927,
                    "duration": 0.25
                },
                {
                    "name": "G#5",
                    "midi": 80,
                    "time": 48.25000000000015,
                    "velocity": 0.41732283464566927,
                    "duration": 0.25
                },
                {
                    "name": "F5",
                    "midi": 77,
                    "time": 48.50000000000015,
                    "velocity": 0.3779527559055118,
                    "duration": 0.5
                },
                {
                    "name": "F6",
                    "midi": 89,
                    "time": 48.50000000000015,
                    "velocity": 0.44881889763779526,
                    "duration": 0.5
                },
                {
                    "name": "C#5",
                    "midi": 73,
                    "time": 49.00000000000015,
                    "velocity": 0.3779527559055118,
                    "duration": 0.25
                },
                {
                    "name": "C#6",
                    "midi": 85,
                    "time": 49.00000000000015,
                    "velocity": 0.44881889763779526,
                    "duration": 0.25
                },
                {
                    "name": "G#4",
                    "midi": 68,
                    "time": 49.25000000000015,
                    "velocity": 0.3464566929133858,
                    "duration": 0.25
                },
                {
                    "name": "G#5",
                    "midi": 80,
                    "time": 49.25000000000015,
                    "velocity": 0.4094488188976378,
                    "duration": 0.25
                },
                {
                    "name": "C#5",
                    "midi": 73,
                    "time": 49.50000000000015,
                    "velocity": 0.3858267716535433,
                    "duration": 0.5
                },
                {
                    "name": "C#6",
                    "midi": 85,
                    "time": 49.50000000000015,
                    "velocity": 0.4566929133858268,
                    "duration": 0.5
                },
                {
                    "name": "F6",
                    "midi": 89,
                    "time": 50.00000000000015,
                    "velocity": 0.47244094488188976,
                    "duration": 0.25
                },
                {
                    "name": "F5",
                    "midi": 77,
                    "time": 50.00000000000015,
                    "velocity": 0.3937007874015748,
                    "duration": 0.25
                },
                {
                    "name": "G#5",
                    "midi": 80,
                    "time": 50.25000000000015,
                    "velocity": 0.41732283464566927,
                    "duration": 0.5
                },
                {
                    "name": "G#6",
                    "midi": 92,
                    "time": 50.25000000000015,
                    "velocity": 0.49606299212598426,
                    "duration": 0.5
                },
                {
                    "name": "F6",
                    "midi": 89,
                    "time": 50.75000000000015,
                    "velocity": 0.5669291338582677,
                    "duration": 0.25
                },
                {
                    "name": "F5",
                    "midi": 77,
                    "time": 50.75000000000015,
                    "velocity": 0.48031496062992124,
                    "duration": 0.25
                },
                {
                    "name": "C#6",
                    "midi": 85,
                    "time": 51.00000000000015,
                    "velocity": 0.6377952755905512,
                    "duration": 0.5
                },
                {
                    "name": "C#5",
                    "midi": 73,
                    "time": 51.00000000000015,
                    "velocity": 0.5354330708661418,
                    "duration": 0.5
                },
                {
                    "name": "A#5",
                    "midi": 82,
                    "time": 51.50000000000015,
                    "velocity": 0.6456692913385826,
                    "duration": 0.25
                },
                {
                    "name": "A#4",
                    "midi": 70,
                    "time": 51.50000000000015,
                    "velocity": 0.5354330708661418,
                    "duration": 0.25
                },
                {
                    "name": "F4",
                    "midi": 65,
                    "time": 51.75000000000015,
                    "velocity": 0.5669291338582677,
                    "duration": 0.5
                },
                {
                    "name": "F5",
                    "midi": 77,
                    "time": 51.75000000000015,
                    "velocity": 0.6771653543307087,
                    "duration": 0.5
                },
                {
                    "name": "A#5",
                    "midi": 82,
                    "time": 52.25000000000015,
                    "velocity": 0.6141732283464567,
                    "duration": 0.25
                },
                {
                    "name": "A#4",
                    "midi": 70,
                    "time": 52.25000000000015,
                    "velocity": 0.5196850393700787,
                    "duration": 0.25
                },
                {
                    "name": "C#5",
                    "midi": 73,
                    "time": 52.50000000000015,
                    "velocity": 0.47244094488188976,
                    "duration": 0.5
                },
                {
                    "name": "C#6",
                    "midi": 85,
                    "time": 52.50000000000015,
                    "velocity": 0.5669291338582677,
                    "duration": 0.5
                },
                {
                    "name": "F6",
                    "midi": 89,
                    "time": 53.00000000000015,
                    "velocity": 0.4015748031496063,
                    "duration": 0.25
                },
                {
                    "name": "F5",
                    "midi": 77,
                    "time": 53.00000000000015,
                    "velocity": 0.33070866141732286,
                    "duration": 0.25
                },
                {
                    "name": "A#5",
                    "midi": 82,
                    "time": 53.25000000000015,
                    "velocity": 0.3779527559055118,
                    "duration": 0.25
                },
                {
                    "name": "A#4",
                    "midi": 70,
                    "time": 53.25000000000015,
                    "velocity": 0.31496062992125984,
                    "duration": 0.25
                },
                {
                    "name": "C#4",
                    "midi": 61,
                    "time": 53.75000000000015,
                    "velocity": 0.2677165354330709,
                    "duration": 0.0625
                },
                {
                    "name": "C#5",
                    "midi": 73,
                    "time": 53.75000000000015,
                    "velocity": 0.31496062992125984,
                    "duration": 0.0625
                },
                {
                    "name": "C#4",
                    "midi": 61,
                    "time": 54.00000000000015,
                    "velocity": 0.2677165354330709,
                    "duration": 0.0625
                },
                {
                    "name": "C#5",
                    "midi": 73,
                    "time": 54.00000000000015,
                    "velocity": 0.31496062992125984,
                    "duration": 0.0625
                },
                {
                    "name": "C#4",
                    "midi": 61,
                    "time": 54.25000000000015,
                    "velocity": 0.29133858267716534,
                    "duration": 0.0833333333333357
                },
                {
                    "name": "F4",
                    "midi": 65,
                    "time": 54.333333333333485,
                    "velocity": 0.25196850393700787,
                    "duration": 0.0833333333333357
                },
                {
                    "name": "C#5",
                    "midi": 73,
                    "time": 54.41666666666682,
                    "velocity": 0.25196850393700787,
                    "duration": 0.0833333333333357
                },
                {
                    "name": "F5",
                    "midi": 77,
                    "time": 54.500000000000156,
                    "velocity": 0.29133858267716534,
                    "duration": 0.2500000000000071
                },
                {
                    "name": "C#5",
                    "midi": 73,
                    "time": 54.58333333333349,
                    "velocity": 0.23622047244094488,
                    "duration": 0.0833333333333357
                },
                {
                    "name": "G#4",
                    "midi": 68,
                    "time": 54.66666666666683,
                    "velocity": 0.23622047244094488,
                    "duration": 0.0833333333333357
                },
                {
                    "name": "F5",
                    "midi": 77,
                    "time": 54.75000000000016,
                    "velocity": 0.29133858267716534,
                    "duration": 0.2500000000000071
                },
                {
                    "name": "C#5",
                    "midi": 73,
                    "time": 54.8333333333335,
                    "velocity": 0.2440944881889764,
                    "duration": 0.0833333333333357
                },
                {
                    "name": "G#4",
                    "midi": 68,
                    "time": 54.916666666666835,
                    "velocity": 0.2440944881889764,
                    "duration": 0.0833333333333357
                },
                {
                    "name": "F5",
                    "midi": 77,
                    "time": 55.00000000000017,
                    "velocity": 0.29133858267716534,
                    "duration": 0.0833333333333357
                },
                {
                    "name": "G#5",
                    "midi": 80,
                    "time": 55.00000000000017,
                    "velocity": 0.29133858267716534,
                    "duration": 0.2500000000000071
                },
                {
                    "name": "C#5",
                    "midi": 73,
                    "time": 55.083333333333506,
                    "velocity": 0.2440944881889764,
                    "duration": 0.0833333333333357
                },
                {
                    "name": "G#4",
                    "midi": 68,
                    "time": 55.16666666666684,
                    "velocity": 0.23622047244094488,
                    "duration": 0.0833333333333357
                },
                {
                    "name": "F5",
                    "midi": 77,
                    "time": 55.25000000000018,
                    "velocity": 0.29133858267716534,
                    "duration": 0.0833333333333357
                },
                {
                    "name": "C#5",
                    "midi": 73,
                    "time": 55.33333333333351,
                    "velocity": 0.2440944881889764,
                    "duration": 0.0833333333333357
                },
                {
                    "name": "G#4",
                    "midi": 68,
                    "time": 55.41666666666685,
                    "velocity": 0.2440944881889764,
                    "duration": 0.0833333333333357
                },
                {
                    "name": "F5",
                    "midi": 77,
                    "time": 55.500000000000185,
                    "velocity": 0.29133858267716534,
                    "duration": 0.0833333333333357
                },
                {
                    "name": "C#5",
                    "midi": 73,
                    "time": 55.58333333333352,
                    "velocity": 0.2440944881889764,
                    "duration": 0.0833333333333357
                },
                {
                    "name": "G#4",
                    "midi": 68,
                    "time": 55.666666666666856,
                    "velocity": 0.2440944881889764,
                    "duration": 0.0833333333333357
                },
                {
                    "name": "C#5",
                    "midi": 73,
                    "time": 55.75000000000019,
                    "velocity": 0.2992125984251969,
                    "duration": 0.0833333333333357
                },
                {
                    "name": "G#4",
                    "midi": 68,
                    "time": 55.83333333333353,
                    "velocity": 0.25196850393700787,
                    "duration": 0.0833333333333357
                },
                {
                    "name": "F4",
                    "midi": 65,
                    "time": 55.91666666666686,
                    "velocity": 0.2440944881889764,
                    "duration": 0.0833333333333357
                },
                {
                    "name": "C#4",
                    "midi": 61,
                    "time": 56.0000000000002,
                    "velocity": 0.2677165354330709,
                    "duration": 0.0833333333333357
                },
                {
                    "name": "G#4",
                    "midi": 68,
                    "time": 56.0000000000002,
                    "velocity": 0.30708661417322836,
                    "duration": 0.0833333333333357
                },
                {
                    "name": "G#3",
                    "midi": 56,
                    "time": 56.083333333333535,
                    "velocity": 0.25984251968503935,
                    "duration": 0.0833333333333357
                },
                {
                    "name": "C#4",
                    "midi": 61,
                    "time": 56.16666666666687,
                    "velocity": 0.2677165354330709,
                    "duration": 0.0833333333333357
                },
                {
                    "name": "F4",
                    "midi": 65,
                    "time": 56.250000000000206,
                    "velocity": 0.25196850393700787,
                    "duration": 0.0833333333333357
                },
                {
                    "name": "C#5",
                    "midi": 73,
                    "time": 56.250000000000206,
                    "velocity": 0.3228346456692913,
                    "duration": 0.0833333333333357
                },
                {
                    "name": "C#4",
                    "midi": 61,
                    "time": 56.33333333333354,
                    "velocity": 0.2755905511811024,
                    "duration": 0.0833333333333357
                },
                {
                    "name": "F4",
                    "midi": 65,
                    "time": 56.41666666666688,
                    "velocity": 0.2755905511811024,
                    "duration": 0.0833333333333357
                },
                {
                    "name": "C#5",
                    "midi": 73,
                    "time": 56.50000000000021,
                    "velocity": 0.3937007874015748,
                    "duration": 0.0833333333333357
                },
                {
                    "name": "G#4",
                    "midi": 68,
                    "time": 56.58333333333355,
                    "velocity": 0.31496062992125984,
                    "duration": 0.0833333333333357
                },
                {
                    "name": "F4",
                    "midi": 65,
                    "time": 56.666666666666885,
                    "velocity": 0.33858267716535434,
                    "duration": 0.0833333333333357
                },
                {
                    "name": "F5",
                    "midi": 77,
                    "time": 56.75000000000022,
                    "velocity": 0.4251968503937008,
                    "duration": 0.0833333333333357
                },
                {
                    "name": "C#5",
                    "midi": 73,
                    "time": 56.833333333333556,
                    "velocity": 0.3700787401574803,
                    "duration": 0.0833333333333357
                },
                {
                    "name": "G#4",
                    "midi": 68,
                    "time": 56.91666666666689,
                    "velocity": 0.3937007874015748,
                    "duration": 0.0833333333333357
                },
                {
                    "name": "G#5",
                    "midi": 80,
                    "time": 57.00000000000023,
                    "velocity": 0.4881889763779528,
                    "duration": 0.0833333333333357
                },
                {
                    "name": "F5",
                    "midi": 77,
                    "time": 57.08333333333356,
                    "velocity": 0.41732283464566927,
                    "duration": 0.0833333333333357
                },
                {
                    "name": "C#5",
                    "midi": 73,
                    "time": 57.1666666666669,
                    "velocity": 0.4330708661417323,
                    "duration": 0.0833333333333357
                },
                {
                    "name": "F5",
                    "midi": 77,
                    "time": 57.250000000000234,
                    "velocity": 0.5275590551181102,
                    "duration": 0.0833333333333357
                },
                {
                    "name": "C#5",
                    "midi": 73,
                    "time": 57.33333333333357,
                    "velocity": 0.47244094488188976,
                    "duration": 0.0833333333333357
                },
                {
                    "name": "F5",
                    "midi": 77,
                    "time": 57.416666666666906,
                    "velocity": 0.4881889763779528,
                    "duration": 0.08124999999999716
                },
                {
                    "name": "F5",
                    "midi": 77,
                    "time": 57.500000000000234,
                    "velocity": 0.5669291338582677,
                    "duration": 0.0833333333333357
                },
                {
                    "name": "C#5",
                    "midi": 73,
                    "time": 57.58333333333357,
                    "velocity": 0.49606299212598426,
                    "duration": 0.0833333333333357
                },
                {
                    "name": "F4",
                    "midi": 65,
                    "time": 57.666666666666906,
                    "velocity": 0.47244094488188976,
                    "duration": 0.0833333333333357
                },
                {
                    "name": "C#5",
                    "midi": 73,
                    "time": 57.75000000000024,
                    "velocity": 0.5905511811023622,
                    "duration": 0.0833333333333357
                },
                {
                    "name": "A#4",
                    "midi": 70,
                    "time": 57.83333333333358,
                    "velocity": 0.5196850393700787,
                    "duration": 0.0833333333333357
                },
                {
                    "name": "F4",
                    "midi": 65,
                    "time": 57.91666666666691,
                    "velocity": 0.4094488188976378,
                    "duration": 0.0833333333333357
                },
                {
                    "name": "C#5",
                    "midi": 73,
                    "time": 58.00000000000025,
                    "velocity": 0.4330708661417323,
                    "duration": 0.0833333333333357
                },
                {
                    "name": "A#4",
                    "midi": 70,
                    "time": 58.083333333333584,
                    "velocity": 0.3543307086614173,
                    "duration": 0.0833333333333357
                },
                {
                    "name": "F4",
                    "midi": 65,
                    "time": 58.16666666666692,
                    "velocity": 0.33070866141732286,
                    "duration": 0.0833333333333357
                },
                {
                    "name": "A#4",
                    "midi": 70,
                    "time": 58.250000000000256,
                    "velocity": 0.47244094488188976,
                    "duration": 0.0833333333333357
                },
                {
                    "name": "F4",
                    "midi": 65,
                    "time": 58.33333333333359,
                    "velocity": 0.3543307086614173,
                    "duration": 0.0833333333333357
                },
                {
                    "name": "C#4",
                    "midi": 61,
                    "time": 58.41666666666693,
                    "velocity": 0.3464566929133858,
                    "duration": 0.0833333333333357
                },
                {
                    "name": "F4",
                    "midi": 65,
                    "time": 58.50000000000026,
                    "velocity": 0.3464566929133858,
                    "duration": 0.0833333333333357
                },
                {
                    "name": "C#4",
                    "midi": 61,
                    "time": 58.5833333333336,
                    "velocity": 0.28346456692913385,
                    "duration": 0.0833333333333357
                },
                {
                    "name": "A#3",
                    "midi": 58,
                    "time": 58.666666666666934,
                    "velocity": 0.2755905511811024,
                    "duration": 0.0833333333333357
                },
                {
                    "name": "F4",
                    "midi": 65,
                    "time": 58.75000000000027,
                    "velocity": 0.3228346456692913,
                    "duration": 0.0833333333333357
                },
                {
                    "name": "C#4",
                    "midi": 61,
                    "time": 58.833333333333606,
                    "velocity": 0.2677165354330709,
                    "duration": 0.0833333333333357
                },
                {
                    "name": "A#3",
                    "midi": 58,
                    "time": 58.91666666666694,
                    "velocity": 0.25196850393700787,
                    "duration": 0.0833333333333357
                },
                {
                    "name": "C#4",
                    "midi": 61,
                    "time": 59.00000000000028,
                    "velocity": 0.2125984251968504,
                    "duration": 0.0833333333333357
                },
                {
                    "name": "A#4",
                    "midi": 70,
                    "time": 59.00000000000028,
                    "velocity": 0.30708661417322836,
                    "duration": 0.0833333333333357
                },
                {
                    "name": "A#3",
                    "midi": 58,
                    "time": 59.08333333333361,
                    "velocity": 0.25196850393700787,
                    "duration": 0.0833333333333357
                },
                {
                    "name": "C#4",
                    "midi": 61,
                    "time": 59.16666666666695,
                    "velocity": 0.2440944881889764,
                    "duration": 0.0833333333333357
                },
                {
                    "name": "C#5",
                    "midi": 73,
                    "time": 59.250000000000284,
                    "velocity": 0.29133858267716534,
                    "duration": 0.0833333333333357
                },
                {
                    "name": "A#4",
                    "midi": 70,
                    "time": 59.33333333333362,
                    "velocity": 0.2047244094488189,
                    "duration": 0.0833333333333357
                },
                {
                    "name": "F4",
                    "midi": 65,
                    "time": 59.416666666666956,
                    "velocity": 0.2047244094488189,
                    "duration": 0.0833333333333357
                },
                {
                    "name": "C#5",
                    "midi": 73,
                    "time": 59.50000000000029,
                    "velocity": 0.23622047244094488,
                    "duration": 0.0833333333333357
                },
                {
                    "name": "A#4",
                    "midi": 70,
                    "time": 59.58333333333363,
                    "velocity": 0.1968503937007874,
                    "duration": 0.0833333333333357
                },
                {
                    "name": "F4",
                    "midi": 65,
                    "time": 59.66666666666696,
                    "velocity": 0.1968503937007874,
                    "duration": 0.0833333333333357
                },
                {
                    "name": "F5",
                    "midi": 77,
                    "time": 59.7500000000003,
                    "velocity": 0.23622047244094488,
                    "duration": 0.0833333333333357
                },
                {
                    "name": "C#5",
                    "midi": 73,
                    "time": 59.833333333333634,
                    "velocity": 0.1968503937007874,
                    "duration": 0.0833333333333357
                },
                {
                    "name": "F4",
                    "midi": 65,
                    "time": 59.91666666666697,
                    "velocity": 0.1968503937007874,
                    "duration": 0.0833333333333357
                },
                {
                    "name": "A#4",
                    "midi": 70,
                    "time": 60.000000000000306,
                    "velocity": 0.31496062992125984,
                    "duration": 0.25
                },
                {
                    "name": "A#4",
                    "midi": 70,
                    "time": 60.750000000000306,
                    "velocity": 0.3937007874015748,
                    "duration": 0.0625
                },
                {
                    "name": "C#5",
                    "midi": 73,
                    "time": 61.000000000000306,
                    "velocity": 0.3464566929133858,
                    "duration": 0.0625
                },
                {
                    "name": "C5",
                    "midi": 72,
                    "time": 61.250000000000306,
                    "velocity": 0.3937007874015748,
                    "duration": 0.0625
                },
                {
                    "name": "F4",
                    "midi": 65,
                    "time": 61.500000000000306,
                    "velocity": 0.33858267716535434,
                    "duration": 0.0625
                },
                {
                    "name": "F5",
                    "midi": 77,
                    "time": 61.750000000000306,
                    "velocity": 0.3937007874015748,
                    "duration": 0.0625
                },
                {
                    "name": "D#5",
                    "midi": 75,
                    "time": 62.000000000000306,
                    "velocity": 0.3543307086614173,
                    "duration": 0.0625
                },
                {
                    "name": "C#5",
                    "midi": 73,
                    "time": 62.250000000000306,
                    "velocity": 0.3543307086614173,
                    "duration": 0.0625
                },
                {
                    "name": "C5",
                    "midi": 72,
                    "time": 62.500000000000306,
                    "velocity": 0.3543307086614173,
                    "duration": 0.0625
                },
                {
                    "name": "A#4",
                    "midi": 70,
                    "time": 62.750000000000306,
                    "velocity": 0.3937007874015748,
                    "duration": 0.0625
                },
                {
                    "name": "C#5",
                    "midi": 73,
                    "time": 63.000000000000306,
                    "velocity": 0.33858267716535434,
                    "duration": 0.0625
                },
                {
                    "name": "C5",
                    "midi": 72,
                    "time": 63.250000000000306,
                    "velocity": 0.3937007874015748,
                    "duration": 0.0625
                },
                {
                    "name": "G#4",
                    "midi": 68,
                    "time": 63.500000000000306,
                    "velocity": 0.33070866141732286,
                    "duration": 0.0625
                },
                {
                    "name": "C5",
                    "midi": 72,
                    "time": 63.750000000000306,
                    "velocity": 0.3937007874015748,
                    "duration": 0.0625
                },
                {
                    "name": "G4",
                    "midi": 67,
                    "time": 64.00000000000031,
                    "velocity": 0.33070866141732286,
                    "duration": 0.0625
                },
                {
                    "name": "F4",
                    "midi": 65,
                    "time": 64.25000000000031,
                    "velocity": 0.36220472440944884,
                    "duration": 0.5
                },
                {
                    "name": "F4",
                    "midi": 65,
                    "time": 64.87500000000031,
                    "velocity": 0.33070866141732286,
                    "duration": 0.125
                },
                {
                    "name": "G#4",
                    "midi": 68,
                    "time": 64.87500000000031,
                    "velocity": 0.33070866141732286,
                    "duration": 0.125
                },
                {
                    "name": "C5",
                    "midi": 72,
                    "time": 64.87500000000031,
                    "velocity": 0.3937007874015748,
                    "duration": 0.125
                },
                {
                    "name": "F4",
                    "midi": 65,
                    "time": 65.12500000000031,
                    "velocity": 0.31496062992125984,
                    "duration": 0.125
                },
                {
                    "name": "G#4",
                    "midi": 68,
                    "time": 65.12500000000031,
                    "velocity": 0.31496062992125984,
                    "duration": 0.125
                },
                {
                    "name": "C5",
                    "midi": 72,
                    "time": 65.12500000000031,
                    "velocity": 0.3779527559055118,
                    "duration": 0.125
                },
                {
                    "name": "E4",
                    "midi": 64,
                    "time": 65.37500000000031,
                    "velocity": 0.3228346456692913,
                    "duration": 0.125
                },
                {
                    "name": "A#4",
                    "midi": 70,
                    "time": 65.37500000000031,
                    "velocity": 0.3228346456692913,
                    "duration": 0.125
                },
                {
                    "name": "C5",
                    "midi": 72,
                    "time": 65.37500000000031,
                    "velocity": 0.3858267716535433,
                    "duration": 0.125
                },
                {
                    "name": "E4",
                    "midi": 64,
                    "time": 65.62500000000031,
                    "velocity": 0.33070866141732286,
                    "duration": 0.125
                },
                {
                    "name": "G4",
                    "midi": 67,
                    "time": 65.62500000000031,
                    "velocity": 0.33070866141732286,
                    "duration": 0.125
                },
                {
                    "name": "A#4",
                    "midi": 70,
                    "time": 65.62500000000031,
                    "velocity": 0.33070866141732286,
                    "duration": 0.125
                },
                {
                    "name": "C5",
                    "midi": 72,
                    "time": 65.62500000000031,
                    "velocity": 0.4015748031496063,
                    "duration": 0.125
                },
                {
                    "name": "E4",
                    "midi": 64,
                    "time": 65.87500000000031,
                    "velocity": 0.36220472440944884,
                    "duration": 0.125
                },
                {
                    "name": "G4",
                    "midi": 67,
                    "time": 65.87500000000031,
                    "velocity": 0.36220472440944884,
                    "duration": 0.125
                },
                {
                    "name": "C5",
                    "midi": 72,
                    "time": 65.87500000000031,
                    "velocity": 0.44881889763779526,
                    "duration": 0.125
                },
                {
                    "name": "E4",
                    "midi": 64,
                    "time": 66.12500000000031,
                    "velocity": 0.3700787401574803,
                    "duration": 0.125
                },
                {
                    "name": "G4",
                    "midi": 67,
                    "time": 66.12500000000031,
                    "velocity": 0.3700787401574803,
                    "duration": 0.125
                },
                {
                    "name": "C5",
                    "midi": 72,
                    "time": 66.12500000000031,
                    "velocity": 0.44881889763779526,
                    "duration": 0.125
                },
                {
                    "name": "F4",
                    "midi": 65,
                    "time": 66.37500000000031,
                    "velocity": 0.3779527559055118,
                    "duration": 0.125
                },
                {
                    "name": "G#4",
                    "midi": 68,
                    "time": 66.37500000000031,
                    "velocity": 0.3779527559055118,
                    "duration": 0.125
                },
                {
                    "name": "C5",
                    "midi": 72,
                    "time": 66.37500000000031,
                    "velocity": 0.4566929133858268,
                    "duration": 0.125
                },
                {
                    "name": "E4",
                    "midi": 64,
                    "time": 66.62500000000031,
                    "velocity": 0.3858267716535433,
                    "duration": 0.125
                },
                {
                    "name": "A#4",
                    "midi": 70,
                    "time": 66.62500000000031,
                    "velocity": 0.3858267716535433,
                    "duration": 0.125
                },
                {
                    "name": "C5",
                    "midi": 72,
                    "time": 66.62500000000031,
                    "velocity": 0.4645669291338583,
                    "duration": 0.125
                },
                {
                    "name": "F4",
                    "midi": 65,
                    "time": 66.87500000000031,
                    "velocity": 0.4566929133858268,
                    "duration": 0.125
                },
                {
                    "name": "G#4",
                    "midi": 68,
                    "time": 66.87500000000031,
                    "velocity": 0.4566929133858268,
                    "duration": 0.125
                },
                {
                    "name": "C5",
                    "midi": 72,
                    "time": 66.87500000000031,
                    "velocity": 0.5511811023622047,
                    "duration": 0.125
                },
                {
                    "name": "F4",
                    "midi": 65,
                    "time": 67.12500000000031,
                    "velocity": 0.4251968503937008,
                    "duration": 0.125
                },
                {
                    "name": "G#4",
                    "midi": 68,
                    "time": 67.12500000000031,
                    "velocity": 0.4251968503937008,
                    "duration": 0.125
                },
                {
                    "name": "C5",
                    "midi": 72,
                    "time": 67.12500000000031,
                    "velocity": 0.4251968503937008,
                    "duration": 0.125
                },
                {
                    "name": "F5",
                    "midi": 77,
                    "time": 67.12500000000031,
                    "velocity": 0.5118110236220472,
                    "duration": 0.125
                },
                {
                    "name": "F4",
                    "midi": 65,
                    "time": 67.37500000000031,
                    "velocity": 0.4409448818897638,
                    "duration": 0.125
                },
                {
                    "name": "A#4",
                    "midi": 70,
                    "time": 67.37500000000031,
                    "velocity": 0.4409448818897638,
                    "duration": 0.125
                },
                {
                    "name": "C5",
                    "midi": 72,
                    "time": 67.37500000000031,
                    "velocity": 0.4409448818897638,
                    "duration": 0.125
                },
                {
                    "name": "F5",
                    "midi": 77,
                    "time": 67.37500000000031,
                    "velocity": 0.5196850393700787,
                    "duration": 0.125
                },
                {
                    "name": "E4",
                    "midi": 64,
                    "time": 67.62500000000031,
                    "velocity": 0.44881889763779526,
                    "duration": 0.125
                },
                {
                    "name": "A#4",
                    "midi": 70,
                    "time": 67.62500000000031,
                    "velocity": 0.44881889763779526,
                    "duration": 0.125
                },
                {
                    "name": "C5",
                    "midi": 72,
                    "time": 67.62500000000031,
                    "velocity": 0.44881889763779526,
                    "duration": 0.125
                },
                {
                    "name": "E5",
                    "midi": 76,
                    "time": 67.62500000000031,
                    "velocity": 0.5433070866141733,
                    "duration": 0.125
                },
                {
                    "name": "F4",
                    "midi": 65,
                    "time": 67.87500000000031,
                    "velocity": 0.5433070866141733,
                    "duration": 0.125
                },
                {
                    "name": "C5",
                    "midi": 72,
                    "time": 67.87500000000031,
                    "velocity": 0.5433070866141733,
                    "duration": 0.125
                },
                {
                    "name": "F5",
                    "midi": 77,
                    "time": 67.87500000000031,
                    "velocity": 0.6456692913385826,
                    "duration": 0.125
                },
                {
                    "name": "F4",
                    "midi": 65,
                    "time": 68.12500000000031,
                    "velocity": 0.47244094488188976,
                    "duration": 0.125
                },
                {
                    "name": "C5",
                    "midi": 72,
                    "time": 68.12500000000031,
                    "velocity": 0.47244094488188976,
                    "duration": 0.125
                },
                {
                    "name": "D#5",
                    "midi": 75,
                    "time": 68.12500000000031,
                    "velocity": 0.5748031496062992,
                    "duration": 0.125
                },
                {
                    "name": "F4",
                    "midi": 65,
                    "time": 68.37500000000031,
                    "velocity": 0.4881889763779528,
                    "duration": 0.125
                },
                {
                    "name": "A#4",
                    "midi": 70,
                    "time": 68.37500000000031,
                    "velocity": 0.4881889763779528,
                    "duration": 0.125
                },
                {
                    "name": "C#5",
                    "midi": 73,
                    "time": 68.37500000000031,
                    "velocity": 0.5905511811023622,
                    "duration": 0.125
                },
                {
                    "name": "D#4",
                    "midi": 63,
                    "time": 68.62500000000031,
                    "velocity": 0.49606299212598426,
                    "duration": 0.125
                },
                {
                    "name": "A4",
                    "midi": 69,
                    "time": 68.62500000000031,
                    "velocity": 0.49606299212598426,
                    "duration": 0.125
                },
                {
                    "name": "C5",
                    "midi": 72,
                    "time": 68.62500000000031,
                    "velocity": 0.5984251968503937,
                    "duration": 0.125
                },
                {
                    "name": "A#4",
                    "midi": 70,
                    "time": 68.75000000000031,
                    "velocity": 0.5984251968503937,
                    "duration": 0.125
                },
                {
                    "name": "F5",
                    "midi": 77,
                    "time": 68.75000000000031,
                    "velocity": 0.5984251968503937,
                    "duration": 0.125
                },
                {
                    "name": "A#5",
                    "midi": 82,
                    "time": 68.75000000000031,
                    "velocity": 0.7086614173228346,
                    "duration": 0.125
                },
                {
                    "name": "C#6",
                    "midi": 85,
                    "time": 69.00000000000031,
                    "velocity": 0.6692913385826772,
                    "duration": 0.125
                },
                {
                    "name": "A#5",
                    "midi": 82,
                    "time": 69.00000000000031,
                    "velocity": 0.5669291338582677,
                    "duration": 0.125
                },
                {
                    "name": "F5",
                    "midi": 77,
                    "time": 69.00000000000031,
                    "velocity": 0.5669291338582677,
                    "duration": 0.125
                },
                {
                    "name": "C#5",
                    "midi": 73,
                    "time": 69.00000000000031,
                    "velocity": 0.5669291338582677,
                    "duration": 0.125
                },
                {
                    "name": "C6",
                    "midi": 84,
                    "time": 69.25000000000031,
                    "velocity": 0.6692913385826772,
                    "duration": 0.125
                },
                {
                    "name": "A5",
                    "midi": 81,
                    "time": 69.25000000000031,
                    "velocity": 0.6692913385826772,
                    "duration": 0.125
                },
                {
                    "name": "F5",
                    "midi": 77,
                    "time": 69.25000000000031,
                    "velocity": 0.5669291338582677,
                    "duration": 0.125
                },
                {
                    "name": "C5",
                    "midi": 72,
                    "time": 69.25000000000031,
                    "velocity": 0.5669291338582677,
                    "duration": 0.125
                },
                {
                    "name": "F5",
                    "midi": 77,
                    "time": 69.50000000000031,
                    "velocity": 0.6692913385826772,
                    "duration": 0.125
                },
                {
                    "name": "C5",
                    "midi": 72,
                    "time": 69.50000000000031,
                    "velocity": 0.5669291338582677,
                    "duration": 0.125
                },
                {
                    "name": "A4",
                    "midi": 69,
                    "time": 69.50000000000031,
                    "velocity": 0.5669291338582677,
                    "duration": 0.125
                },
                {
                    "name": "F4",
                    "midi": 65,
                    "time": 69.50000000000031,
                    "velocity": 0.5669291338582677,
                    "duration": 0.125
                },
                {
                    "name": "F6",
                    "midi": 89,
                    "time": 69.75000000000031,
                    "velocity": 0.7795275590551181,
                    "duration": 0.125
                },
                {
                    "name": "A#5",
                    "midi": 82,
                    "time": 69.75000000000031,
                    "velocity": 0.6535433070866141,
                    "duration": 0.125
                },
                {
                    "name": "F5",
                    "midi": 77,
                    "time": 69.75000000000031,
                    "velocity": 0.6535433070866141,
                    "duration": 0.125
                },
                {
                    "name": "D#6",
                    "midi": 87,
                    "time": 70.00000000000031,
                    "velocity": 0.6614173228346457,
                    "duration": 0.125
                },
                {
                    "name": "A5",
                    "midi": 81,
                    "time": 70.00000000000031,
                    "velocity": 0.5590551181102362,
                    "duration": 0.125
                },
                {
                    "name": "F5",
                    "midi": 77,
                    "time": 70.00000000000031,
                    "velocity": 0.5590551181102362,
                    "duration": 0.125
                },
                {
                    "name": "D#5",
                    "midi": 75,
                    "time": 70.00000000000031,
                    "velocity": 0.5590551181102362,
                    "duration": 0.125
                },
                {
                    "name": "C#6",
                    "midi": 85,
                    "time": 70.25000000000031,
                    "velocity": 0.6614173228346457,
                    "duration": 0.125
                },
                {
                    "name": "A#5",
                    "midi": 82,
                    "time": 70.25000000000031,
                    "velocity": 0.5590551181102362,
                    "duration": 0.125
                },
                {
                    "name": "F5",
                    "midi": 77,
                    "time": 70.25000000000031,
                    "velocity": 0.5590551181102362,
                    "duration": 0.125
                },
                {
                    "name": "C#5",
                    "midi": 73,
                    "time": 70.25000000000031,
                    "velocity": 0.5590551181102362,
                    "duration": 0.125
                },
                {
                    "name": "C6",
                    "midi": 84,
                    "time": 70.50000000000031,
                    "velocity": 0.6614173228346457,
                    "duration": 0.125
                },
                {
                    "name": "F5",
                    "midi": 77,
                    "time": 70.50000000000031,
                    "velocity": 0.5590551181102362,
                    "duration": 0.125
                },
                {
                    "name": "C5",
                    "midi": 72,
                    "time": 70.50000000000031,
                    "velocity": 0.5590551181102362,
                    "duration": 0.125
                },
                {
                    "name": "A#5",
                    "midi": 82,
                    "time": 70.75000000000031,
                    "velocity": 0.7086614173228346,
                    "duration": 0.125
                },
                {
                    "name": "F5",
                    "midi": 77,
                    "time": 70.75000000000031,
                    "velocity": 0.5984251968503937,
                    "duration": 0.125
                },
                {
                    "name": "C#5",
                    "midi": 73,
                    "time": 70.75000000000031,
                    "velocity": 0.5984251968503937,
                    "duration": 0.125
                },
                {
                    "name": "A#4",
                    "midi": 70,
                    "time": 70.75000000000031,
                    "velocity": 0.5984251968503937,
                    "duration": 0.125
                },
                {
                    "name": "C#6",
                    "midi": 85,
                    "time": 71.00000000000031,
                    "velocity": 0.6456692913385826,
                    "duration": 0.125
                },
                {
                    "name": "A#5",
                    "midi": 82,
                    "time": 71.00000000000031,
                    "velocity": 0.5433070866141733,
                    "duration": 0.125
                },
                {
                    "name": "F5",
                    "midi": 77,
                    "time": 71.00000000000031,
                    "velocity": 0.5433070866141733,
                    "duration": 0.125
                },
                {
                    "name": "C#5",
                    "midi": 73,
                    "time": 71.00000000000031,
                    "velocity": 0.5433070866141733,
                    "duration": 0.125
                },
                {
                    "name": "C6",
                    "midi": 84,
                    "time": 71.25000000000031,
                    "velocity": 0.7086614173228346,
                    "duration": 0.125
                },
                {
                    "name": "F5",
                    "midi": 77,
                    "time": 71.25000000000031,
                    "velocity": 0.5984251968503937,
                    "duration": 0.125
                },
                {
                    "name": "C5",
                    "midi": 72,
                    "time": 71.25000000000031,
                    "velocity": 0.5984251968503937,
                    "duration": 0.125
                },
                {
                    "name": "F5",
                    "midi": 77,
                    "time": 71.50000000000031,
                    "velocity": 0.6377952755905512,
                    "duration": 0.125
                },
                {
                    "name": "C5",
                    "midi": 72,
                    "time": 71.50000000000031,
                    "velocity": 0.5354330708661418,
                    "duration": 0.125
                },
                {
                    "name": "A4",
                    "midi": 69,
                    "time": 71.50000000000031,
                    "velocity": 0.5354330708661418,
                    "duration": 0.125
                },
                {
                    "name": "F4",
                    "midi": 65,
                    "time": 71.50000000000031,
                    "velocity": 0.5354330708661418,
                    "duration": 0.125
                },
                {
                    "name": "F6",
                    "midi": 89,
                    "time": 71.75000000000031,
                    "velocity": 0.8582677165354331,
                    "duration": 0.125
                },
                {
                    "name": "F5",
                    "midi": 77,
                    "time": 71.75000000000031,
                    "velocity": 0.7244094488188977,
                    "duration": 0.125
                },
                {
                    "name": "C#6",
                    "midi": 85,
                    "time": 72.00000000000031,
                    "velocity": 0.7244094488188977,
                    "duration": 0.125
                },
                {
                    "name": "A#5",
                    "midi": 82,
                    "time": 72.00000000000031,
                    "velocity": 0.6141732283464567,
                    "duration": 0.125
                },
                {
                    "name": "C#5",
                    "midi": 73,
                    "time": 72.00000000000031,
                    "velocity": 0.6141732283464567,
                    "duration": 0.125
                },
                {
                    "name": "C6",
                    "midi": 84,
                    "time": 72.25000000000031,
                    "velocity": 0.7952755905511811,
                    "duration": 0.5
                },
                {
                    "name": "A5",
                    "midi": 81,
                    "time": 72.25000000000031,
                    "velocity": 0.6692913385826772,
                    "duration": 0.5
                },
                {
                    "name": "C5",
                    "midi": 72,
                    "time": 72.25000000000031,
                    "velocity": 0.6692913385826772,
                    "duration": 0.5
                },
                {
                    "name": "F6",
                    "midi": 89,
                    "time": 72.75000000000031,
                    "velocity": 0.8582677165354331,
                    "duration": 0.125
                },
                {
                    "name": "F5",
                    "midi": 77,
                    "time": 72.75000000000031,
                    "velocity": 0.7244094488188977,
                    "duration": 0.125
                },
                {
                    "name": "C#6",
                    "midi": 85,
                    "time": 73.00000000000031,
                    "velocity": 0.7244094488188977,
                    "duration": 0.125
                },
                {
                    "name": "A#5",
                    "midi": 82,
                    "time": 73.00000000000031,
                    "velocity": 0.6141732283464567,
                    "duration": 0.125
                },
                {
                    "name": "C6",
                    "midi": 84,
                    "time": 73.25000000000031,
                    "velocity": 0.7952755905511811,
                    "duration": 0.5
                },
                {
                    "name": "A5",
                    "midi": 81,
                    "time": 73.25000000000031,
                    "velocity": 0.6692913385826772,
                    "duration": 0.5
                },
                {
                    "name": "C5",
                    "midi": 72,
                    "time": 73.75000000000031,
                    "velocity": 0.7637795275590551,
                    "duration": 0.5
                },
                {
                    "name": "A4",
                    "midi": 69,
                    "time": 73.75000000000031,
                    "velocity": 0.6377952755905512,
                    "duration": 0.5
                },
                {
                    "name": "C4",
                    "midi": 60,
                    "time": 74.25000000000031,
                    "velocity": 0.7716535433070866,
                    "duration": 0.5
                },
                {
                    "name": "A3",
                    "midi": 57,
                    "time": 74.25000000000031,
                    "velocity": 0.6299212598425197,
                    "duration": 0.5
                },
                {
                    "name": "C3",
                    "midi": 48,
                    "time": 74.75000000000031,
                    "velocity": 0.7952755905511811,
                    "duration": 0.5
                },
                {
                    "name": "A2",
                    "midi": 45,
                    "time": 74.75000000000031,
                    "velocity": 0.6692913385826772,
                    "duration": 0.5
                },
                {
                    "name": "C2",
                    "midi": 36,
                    "time": 75.25000000000031,
                    "velocity": 0.7952755905511811,
                    "duration": 1.25
                },
                {
                    "name": "A1",
                    "midi": 33,
                    "time": 75.25000000000031,
                    "velocity": 0.6692913385826772,
                    "duration": 1.25
                },
                {
                    "name": "F4",
                    "midi": 65,
                    "time": 78.75000000000031,
                    "velocity": 0.6377952755905512,
                    "duration": 0.0833333333333286
                },
                {
                    "name": "G4",
                    "midi": 67,
                    "time": 78.83333333333364,
                    "velocity": 0.6377952755905512,
                    "duration": 0.0833333333333286
                },
                {
                    "name": "A4",
                    "midi": 69,
                    "time": 78.91666666666697,
                    "velocity": 0.6377952755905512,
                    "duration": 0.0833333333333286
                },
                {
                    "name": "A#4",
                    "midi": 70,
                    "time": 79.0000000000003,
                    "velocity": 0.6377952755905512,
                    "duration": 0.125
                },
                {
                    "name": "C5",
                    "midi": 72,
                    "time": 79.1250000000003,
                    "velocity": 0.6456692913385826,
                    "duration": 0.125
                },
                {
                    "name": "D5",
                    "midi": 74,
                    "time": 79.2500000000003,
                    "velocity": 0.6456692913385826,
                    "duration": 0.125
                },
                {
                    "name": "E5",
                    "midi": 76,
                    "time": 79.3750000000003,
                    "velocity": 0.6535433070866141,
                    "duration": 0.125
                },
                {
                    "name": "F5",
                    "midi": 77,
                    "time": 79.5000000000003,
                    "velocity": 0.6535433070866141,
                    "duration": 0.0833333333333286
                },
                {
                    "name": "G5",
                    "midi": 79,
                    "time": 79.58333333333363,
                    "velocity": 0.6535433070866141,
                    "duration": 0.0833333333333286
                },
                {
                    "name": "A5",
                    "midi": 81,
                    "time": 79.66666666666696,
                    "velocity": 0.6614173228346457,
                    "duration": 0.0833333333333286
                },
                {
                    "name": "A#5",
                    "midi": 82,
                    "time": 79.75000000000028,
                    "velocity": 0.6614173228346457,
                    "duration": 0.125
                },
                {
                    "name": "C6",
                    "midi": 84,
                    "time": 79.87500000000028,
                    "velocity": 0.6614173228346457,
                    "duration": 0.125
                },
                {
                    "name": "D6",
                    "midi": 86,
                    "time": 80.00000000000028,
                    "velocity": 0.6692913385826772,
                    "duration": 0.125
                },
                {
                    "name": "E6",
                    "midi": 88,
                    "time": 80.12500000000028,
                    "velocity": 0.6692913385826772,
                    "duration": 0.125
                },
                {
                    "name": "F6",
                    "midi": 89,
                    "time": 80.25000000000028,
                    "velocity": 0.6771653543307087,
                    "duration": 0.0833333333333286
                },
                {
                    "name": "G6",
                    "midi": 91,
                    "time": 80.33333333333361,
                    "velocity": 0.6929133858267716,
                    "duration": 0.0833333333333286
                },
                {
                    "name": "A6",
                    "midi": 93,
                    "time": 80.41666666666694,
                    "velocity": 0.7007874015748031,
                    "duration": 0.0833333333333286
                },
                {
                    "name": "A#6",
                    "midi": 94,
                    "time": 80.50000000000027,
                    "velocity": 0.7086614173228346,
                    "duration": 0.125
                },
                {
                    "name": "C7",
                    "midi": 96,
                    "time": 80.62500000000027,
                    "velocity": 0.7244094488188977,
                    "duration": 0.125
                },
                {
                    "name": "D7",
                    "midi": 98,
                    "time": 80.75000000000027,
                    "velocity": 0.7401574803149606,
                    "duration": 0.125
                },
                {
                    "name": "E7",
                    "midi": 100,
                    "time": 80.87500000000027,
                    "velocity": 0.7559055118110236,
                    "duration": 0.125
                },
                {
                    "name": "F7",
                    "midi": 101,
                    "time": 81.00000000000027,
                    "velocity": 0.7716535433070866,
                    "duration": 0.125
                },
                {
                    "name": "D#5",
                    "midi": 75,
                    "time": 81.25000000000027,
                    "velocity": 0.5354330708661418,
                    "duration": 0.0625
                },
                {
                    "name": "F#5",
                    "midi": 78,
                    "time": 81.25000000000027,
                    "velocity": 0.6377952755905512,
                    "duration": 0.0625
                },
                {
                    "name": "A4",
                    "midi": 69,
                    "time": 81.31250000000027,
                    "velocity": 0.5511811023622047,
                    "duration": 0.0625
                },
                {
                    "name": "D#5",
                    "midi": 75,
                    "time": 81.37500000000027,
                    "velocity": 0.5275590551181102,
                    "duration": 0.0625
                },
                {
                    "name": "F#5",
                    "midi": 78,
                    "time": 81.37500000000027,
                    "velocity": 0.6220472440944882,
                    "duration": 0.0625
                },
                {
                    "name": "A4",
                    "midi": 69,
                    "time": 81.43750000000027,
                    "velocity": 0.5511811023622047,
                    "duration": 0.0625
                },
                {
                    "name": "D#5",
                    "midi": 75,
                    "time": 81.50000000000027,
                    "velocity": 0.5275590551181102,
                    "duration": 0.0625
                },
                {
                    "name": "F#5",
                    "midi": 78,
                    "time": 81.50000000000027,
                    "velocity": 0.6220472440944882,
                    "duration": 0.0625
                },
                {
                    "name": "A4",
                    "midi": 69,
                    "time": 81.56250000000027,
                    "velocity": 0.5511811023622047,
                    "duration": 0.0625
                },
                {
                    "name": "D#5",
                    "midi": 75,
                    "time": 81.62500000000027,
                    "velocity": 0.5275590551181102,
                    "duration": 0.0625
                },
                {
                    "name": "F#5",
                    "midi": 78,
                    "time": 81.62500000000027,
                    "velocity": 0.6220472440944882,
                    "duration": 0.0625
                },
                {
                    "name": "A4",
                    "midi": 69,
                    "time": 81.68750000000027,
                    "velocity": 0.5511811023622047,
                    "duration": 0.0625
                },
                {
                    "name": "D#5",
                    "midi": 75,
                    "time": 81.75000000000027,
                    "velocity": 0.5354330708661418,
                    "duration": 0.0625
                },
                {
                    "name": "F#5",
                    "midi": 78,
                    "time": 81.75000000000027,
                    "velocity": 0.6299212598425197,
                    "duration": 0.0625
                },
                {
                    "name": "A4",
                    "midi": 69,
                    "time": 81.81250000000027,
                    "velocity": 0.5511811023622047,
                    "duration": 0.0625
                },
                {
                    "name": "D#5",
                    "midi": 75,
                    "time": 81.87500000000027,
                    "velocity": 0.5118110236220472,
                    "duration": 0.0625
                },
                {
                    "name": "F#5",
                    "midi": 78,
                    "time": 81.87500000000027,
                    "velocity": 0.6062992125984252,
                    "duration": 0.0625
                },
                {
                    "name": "A4",
                    "midi": 69,
                    "time": 81.93750000000027,
                    "velocity": 0.5511811023622047,
                    "duration": 0.0625
                },
                {
                    "name": "D5",
                    "midi": 74,
                    "time": 82.75000000000027,
                    "velocity": 0.3937007874015748,
                    "duration": 0.1875
                },
                {
                    "name": "A4",
                    "midi": 69,
                    "time": 82.93750000000027,
                    "velocity": 0.33070866141732286,
                    "duration": 0.056250000000005684
                },
                {
                    "name": "F5",
                    "midi": 77,
                    "time": 82.93750000000027,
                    "velocity": 0.3937007874015748,
                    "duration": 0.056250000000005684
                },
                {
                    "name": "C5",
                    "midi": 72,
                    "time": 83.00000000000027,
                    "velocity": 0.41732283464566927,
                    "duration": 0.25
                },
                {
                    "name": "F5",
                    "midi": 77,
                    "time": 83.00000000000027,
                    "velocity": 0.4881889763779528,
                    "duration": 0.25
                },
                {
                    "name": "F4",
                    "midi": 65,
                    "time": 83.25000000000027,
                    "velocity": 0.36220472440944884,
                    "duration": 0.125
                },
                {
                    "name": "D5",
                    "midi": 74,
                    "time": 83.25000000000027,
                    "velocity": 0.4330708661417323,
                    "duration": 0.125
                },
                {
                    "name": "A#4",
                    "midi": 70,
                    "time": 83.50000000000027,
                    "velocity": 0.3937007874015748,
                    "duration": 0.1875
                },
                {
                    "name": "F#4",
                    "midi": 66,
                    "time": 83.68750000000027,
                    "velocity": 0.33070866141732286,
                    "duration": 0.056250000000005684
                },
                {
                    "name": "D5",
                    "midi": 74,
                    "time": 83.68750000000027,
                    "velocity": 0.3937007874015748,
                    "duration": 0.056250000000005684
                },
                {
                    "name": "A4",
                    "midi": 69,
                    "time": 83.75000000000027,
                    "velocity": 0.41732283464566927,
                    "duration": 0.25
                },
                {
                    "name": "D5",
                    "midi": 74,
                    "time": 83.75000000000027,
                    "velocity": 0.4881889763779528,
                    "duration": 0.25
                },
                {
                    "name": "D4",
                    "midi": 62,
                    "time": 84.00000000000027,
                    "velocity": 0.36220472440944884,
                    "duration": 0.125
                },
                {
                    "name": "A#4",
                    "midi": 70,
                    "time": 84.00000000000027,
                    "velocity": 0.4330708661417323,
                    "duration": 0.125
                },
                {
                    "name": "G4",
                    "midi": 67,
                    "time": 84.25000000000027,
                    "velocity": 0.4094488188976378,
                    "duration": 0.1875
                },
                {
                    "name": "D4",
                    "midi": 62,
                    "time": 84.43750000000027,
                    "velocity": 0.3464566929133858,
                    "duration": 0.056250000000005684
                },
                {
                    "name": "A#4",
                    "midi": 70,
                    "time": 84.43750000000027,
                    "velocity": 0.41732283464566927,
                    "duration": 0.056250000000005684
                },
                {
                    "name": "F4",
                    "midi": 65,
                    "time": 84.50000000000027,
                    "velocity": 0.44881889763779526,
                    "duration": 0.25
                },
                {
                    "name": "A#4",
                    "midi": 70,
                    "time": 84.50000000000027,
                    "velocity": 0.5196850393700787,
                    "duration": 0.25
                },
                {
                    "name": "A#3",
                    "midi": 58,
                    "time": 84.75000000000027,
                    "velocity": 0.4015748031496063,
                    "duration": 0.125
                },
                {
                    "name": "G4",
                    "midi": 67,
                    "time": 84.75000000000027,
                    "velocity": 0.48031496062992124,
                    "duration": 0.125
                },
                {
                    "name": "A#3",
                    "midi": 58,
                    "time": 85.00000000000027,
                    "velocity": 0.3700787401574803,
                    "duration": 0.1875
                },
                {
                    "name": "G4",
                    "midi": 67,
                    "time": 85.00000000000027,
                    "velocity": 0.44881889763779526,
                    "duration": 0.1875
                },
                {
                    "name": "D#4",
                    "midi": 63,
                    "time": 85.18750000000027,
                    "velocity": 0.3779527559055118,
                    "duration": 0.056250000000005684
                },
                {
                    "name": "A4",
                    "midi": 69,
                    "time": 85.18750000000027,
                    "velocity": 0.4566929133858268,
                    "duration": 0.056250000000005684
                },
                {
                    "name": "D#4",
                    "midi": 63,
                    "time": 85.25000000000027,
                    "velocity": 0.4881889763779528,
                    "duration": 0.25
                },
                {
                    "name": "A4",
                    "midi": 69,
                    "time": 85.25000000000027,
                    "velocity": 0.5669291338582677,
                    "duration": 0.25
                },
                {
                    "name": "A#3",
                    "midi": 58,
                    "time": 85.50000000000027,
                    "velocity": 0.4330708661417323,
                    "duration": 0.125
                },
                {
                    "name": "A#4",
                    "midi": 70,
                    "time": 85.50000000000027,
                    "velocity": 0.5196850393700787,
                    "duration": 0.125
                },
                {
                    "name": "F4",
                    "midi": 65,
                    "time": 85.75000000000027,
                    "velocity": 0.4015748031496063,
                    "duration": 0.25
                },
                {
                    "name": "A#4",
                    "midi": 70,
                    "time": 85.75000000000027,
                    "velocity": 0.48031496062992124,
                    "duration": 0.1875
                },
                {
                    "name": "C5",
                    "midi": 72,
                    "time": 85.93750000000027,
                    "velocity": 0.49606299212598426,
                    "duration": 0.056250000000005684
                },
                {
                    "name": "F4",
                    "midi": 65,
                    "time": 86.00000000000027,
                    "velocity": 0.5275590551181102,
                    "duration": 0.25
                },
                {
                    "name": "C5",
                    "midi": 72,
                    "time": 86.00000000000027,
                    "velocity": 0.6220472440944882,
                    "duration": 0.25
                },
                {
                    "name": "A#4",
                    "midi": 70,
                    "time": 86.25000000000027,
                    "velocity": 0.47244094488188976,
                    "duration": 0.125
                },
                {
                    "name": "F4",
                    "midi": 65,
                    "time": 86.25000000000027,
                    "velocity": 0.47244094488188976,
                    "duration": 0.125
                },
                {
                    "name": "D5",
                    "midi": 74,
                    "time": 86.25000000000027,
                    "velocity": 0.5669291338582677,
                    "duration": 0.125
                },
                {
                    "name": "A#4",
                    "midi": 70,
                    "time": 86.50000000000027,
                    "velocity": 0.4409448818897638,
                    "duration": 0.25
                },
                {
                    "name": "D5",
                    "midi": 74,
                    "time": 86.50000000000027,
                    "velocity": 0.5275590551181102,
                    "duration": 0.1875
                },
                {
                    "name": "D#5",
                    "midi": 75,
                    "time": 86.68750000000027,
                    "velocity": 0.5511811023622047,
                    "duration": 0.056250000000005684
                },
                {
                    "name": "A#4",
                    "midi": 70,
                    "time": 86.75000000000027,
                    "velocity": 0.5905511811023622,
                    "duration": 0.25
                },
                {
                    "name": "D#5",
                    "midi": 75,
                    "time": 86.75000000000027,
                    "velocity": 0.6929133858267716,
                    "duration": 0.25
                },
                {
                    "name": "C#5",
                    "midi": 73,
                    "time": 87.00000000000027,
                    "velocity": 0.5354330708661418,
                    "duration": 0.0625
                },
                {
                    "name": "A#4",
                    "midi": 70,
                    "time": 87.00000000000027,
                    "velocity": 0.5354330708661418,
                    "duration": 0.0625
                },
                {
                    "name": "F4",
                    "midi": 65,
                    "time": 87.00000000000027,
                    "velocity": 0.5354330708661418,
                    "duration": 0.0625
                },
                {
                    "name": "F5",
                    "midi": 77,
                    "time": 87.00000000000027,
                    "velocity": 0.6456692913385826,
                    "duration": 0.0625
                },
                {
                    "name": "G4",
                    "midi": 67,
                    "time": 87.25000000000027,
                    "velocity": 0.6220472440944882,
                    "duration": 0.0625
                },
                {
                    "name": "A#4",
                    "midi": 70,
                    "time": 87.25000000000027,
                    "velocity": 0.6220472440944882,
                    "duration": 0.0625
                },
                {
                    "name": "C5",
                    "midi": 72,
                    "time": 87.25000000000027,
                    "velocity": 0.6220472440944882,
                    "duration": 0.0625
                },
                {
                    "name": "G5",
                    "midi": 79,
                    "time": 87.25000000000027,
                    "velocity": 0.7401574803149606,
                    "duration": 0.0625
                },
                {
                    "name": "C4",
                    "midi": 60,
                    "time": 87.50000000000027,
                    "velocity": 0.6220472440944882,
                    "duration": 0.125
                },
                {
                    "name": "A4",
                    "midi": 69,
                    "time": 87.50000000000027,
                    "velocity": 0.6220472440944882,
                    "duration": 0.125
                },
                {
                    "name": "C5",
                    "midi": 72,
                    "time": 87.50000000000027,
                    "velocity": 0.7401574803149606,
                    "duration": 0.125
                },
                {
                    "name": "D6",
                    "midi": 86,
                    "time": 88.00000000000027,
                    "velocity": 0.3937007874015748,
                    "duration": 0.1875
                },
                {
                    "name": "A5",
                    "midi": 81,
                    "time": 88.18750000000027,
                    "velocity": 0.33070866141732286,
                    "duration": 0.056250000000005684
                },
                {
                    "name": "F6",
                    "midi": 89,
                    "time": 88.18750000000027,
                    "velocity": 0.3937007874015748,
                    "duration": 0.056250000000005684
                },
                {
                    "name": "A5",
                    "midi": 81,
                    "time": 88.25000000000027,
                    "velocity": 0.41732283464566927,
                    "duration": 0.25
                },
                {
                    "name": "F6",
                    "midi": 89,
                    "time": 88.25000000000027,
                    "velocity": 0.4881889763779528,
                    "duration": 0.25
                },
                {
                    "name": "F5",
                    "midi": 77,
                    "time": 88.37500000000027,
                    "velocity": 0.36220472440944884,
                    "duration": 0.25
                },
                {
                    "name": "D6",
                    "midi": 86,
                    "time": 88.50000000000027,
                    "velocity": 0.4330708661417323,
                    "duration": 0.125
                },
                {
                    "name": "A#5",
                    "midi": 82,
                    "time": 88.75000000000027,
                    "velocity": 0.3937007874015748,
                    "duration": 0.1875
                },
                {
                    "name": "F#5",
                    "midi": 78,
                    "time": 88.93750000000027,
                    "velocity": 0.33070866141732286,
                    "duration": 0.056250000000005684
                },
                {
                    "name": "D6",
                    "midi": 86,
                    "time": 88.93750000000027,
                    "velocity": 0.3937007874015748,
                    "duration": 0.056250000000005684
                },
                {
                    "name": "D6",
                    "midi": 86,
                    "time": 89.00000000000027,
                    "velocity": 0.4881889763779528,
                    "duration": 0.25
                },
                {
                    "name": "D5",
                    "midi": 74,
                    "time": 89.12500000000027,
                    "velocity": 0.36220472440944884,
                    "duration": 0.25
                },
                {
                    "name": "A#5",
                    "midi": 82,
                    "time": 89.25000000000027,
                    "velocity": 0.4330708661417323,
                    "duration": 0.125
                },
                {
                    "name": "G5",
                    "midi": 79,
                    "time": 89.50000000000027,
                    "velocity": 0.4094488188976378,
                    "duration": 0.1875
                },
                {
                    "name": "D5",
                    "midi": 74,
                    "time": 89.68750000000027,
                    "velocity": 0.3464566929133858,
                    "duration": 0.056250000000005684
                },
                {
                    "name": "A#5",
                    "midi": 82,
                    "time": 89.68750000000027,
                    "velocity": 0.41732283464566927,
                    "duration": 0.056250000000005684
                },
                {
                    "name": "A#5",
                    "midi": 82,
                    "time": 89.75000000000027,
                    "velocity": 0.5196850393700787,
                    "duration": 0.25
                },
                {
                    "name": "A#4",
                    "midi": 70,
                    "time": 89.87500000000027,
                    "velocity": 0.4015748031496063,
                    "duration": 0.25
                },
                {
                    "name": "G5",
                    "midi": 79,
                    "time": 90.00000000000027,
                    "velocity": 0.48031496062992124,
                    "duration": 0.125
                },
                {
                    "name": "A#4",
                    "midi": 70,
                    "time": 90.25000000000027,
                    "velocity": 0.3700787401574803,
                    "duration": 0.1875
                },
                {
                    "name": "G5",
                    "midi": 79,
                    "time": 90.25000000000027,
                    "velocity": 0.44881889763779526,
                    "duration": 0.1875
                },
                {
                    "name": "D#5",
                    "midi": 75,
                    "time": 90.43750000000027,
                    "velocity": 0.3779527559055118,
                    "duration": 0.056250000000005684
                },
                {
                    "name": "A5",
                    "midi": 81,
                    "time": 90.43750000000027,
                    "velocity": 0.4566929133858268,
                    "duration": 0.056250000000005684
                },
                {
                    "name": "A5",
                    "midi": 81,
                    "time": 90.50000000000027,
                    "velocity": 0.5669291338582677,
                    "duration": 0.25
                },
                {
                    "name": "D#5",
                    "midi": 75,
                    "time": 90.63437500000028,
                    "velocity": 0.4881889763779528,
                    "duration": 0.125
                },
                {
                    "name": "A#4",
                    "midi": 70,
                    "time": 90.75000000000027,
                    "velocity": 0.4330708661417323,
                    "duration": 0.125
                },
                {
                    "name": "A#5",
                    "midi": 82,
                    "time": 90.75000000000027,
                    "velocity": 0.5196850393700787,
                    "duration": 0.125
                },
                {
                    "name": "F5",
                    "midi": 77,
                    "time": 91.00000000000027,
                    "velocity": 0.4015748031496063,
                    "duration": 0.25
                },
                {
                    "name": "A#5",
                    "midi": 82,
                    "time": 91.00000000000027,
                    "velocity": 0.48031496062992124,
                    "duration": 0.1875
                },
                {
                    "name": "C6",
                    "midi": 84,
                    "time": 91.18750000000027,
                    "velocity": 0.49606299212598426,
                    "duration": 0.056250000000005684
                },
                {
                    "name": "C6",
                    "midi": 84,
                    "time": 91.25000000000027,
                    "velocity": 0.6220472440944882,
                    "duration": 0.25
                },
                {
                    "name": "F5",
                    "midi": 77,
                    "time": 91.37500000000027,
                    "velocity": 0.5275590551181102,
                    "duration": 0.25
                },
                {
                    "name": "D6",
                    "midi": 86,
                    "time": 91.50000000000027,
                    "velocity": 0.5669291338582677,
                    "duration": 0.125
                },
                {
                    "name": "A#5",
                    "midi": 82,
                    "time": 91.75000000000027,
                    "velocity": 0.4409448818897638,
                    "duration": 0.25
                },
                {
                    "name": "D#6",
                    "midi": 87,
                    "time": 91.75000000000027,
                    "velocity": 0.5275590551181102,
                    "duration": 0.1875
                },
                {
                    "name": "E6",
                    "midi": 88,
                    "time": 91.93750000000027,
                    "velocity": 0.5511811023622047,
                    "duration": 0.056250000000005684
                },
                {
                    "name": "E6",
                    "midi": 88,
                    "time": 92.00000000000027,
                    "velocity": 0.6929133858267716,
                    "duration": 0.25
                },
                {
                    "name": "A#5",
                    "midi": 82,
                    "time": 92.12500000000027,
                    "velocity": 0.5984251968503937,
                    "duration": 0.125
                },
                {
                    "name": "A5",
                    "midi": 81,
                    "time": 92.25000000000027,
                    "velocity": 0.5354330708661418,
                    "duration": 0.0625
                },
                {
                    "name": "F6",
                    "midi": 89,
                    "time": 92.25000000000027,
                    "velocity": 0.6456692913385826,
                    "duration": 0.0625
                },
                {
                    "name": "G5",
                    "midi": 79,
                    "time": 92.50000000000027,
                    "velocity": 0.6220472440944882,
                    "duration": 0.0625
                },
                {
                    "name": "A#5",
                    "midi": 82,
                    "time": 92.50000000000027,
                    "velocity": 0.6220472440944882,
                    "duration": 0.0625
                },
                {
                    "name": "E6",
                    "midi": 88,
                    "time": 92.50000000000027,
                    "velocity": 0.6220472440944882,
                    "duration": 0.0625
                },
                {
                    "name": "G6",
                    "midi": 91,
                    "time": 92.50000000000027,
                    "velocity": 0.7401574803149606,
                    "duration": 0.0625
                },
                {
                    "name": "F5",
                    "midi": 77,
                    "time": 92.75000000000027,
                    "velocity": 0.6220472440944882,
                    "duration": 0.125
                },
                {
                    "name": "A5",
                    "midi": 81,
                    "time": 92.75000000000027,
                    "velocity": 0.6220472440944882,
                    "duration": 0.125
                },
                {
                    "name": "F6",
                    "midi": 89,
                    "time": 92.75000000000027,
                    "velocity": 0.7401574803149606,
                    "duration": 0.125
                },
                {
                    "name": "B4",
                    "midi": 71,
                    "time": 93.25000000000027,
                    "velocity": 0.33858267716535434,
                    "duration": 0.1875
                },
                {
                    "name": "D5",
                    "midi": 74,
                    "time": 93.25000000000027,
                    "velocity": 0.3937007874015748,
                    "duration": 0.1875
                },
                {
                    "name": "D5",
                    "midi": 74,
                    "time": 93.43750000000027,
                    "velocity": 0.33070866141732286,
                    "duration": 0.046875
                },
                {
                    "name": "F5",
                    "midi": 77,
                    "time": 93.43750000000027,
                    "velocity": 0.3937007874015748,
                    "duration": 0.046875
                },
                {
                    "name": "D5",
                    "midi": 74,
                    "time": 93.50000000000027,
                    "velocity": 0.41732283464566927,
                    "duration": 0.25
                },
                {
                    "name": "F5",
                    "midi": 77,
                    "time": 93.50000000000027,
                    "velocity": 0.4881889763779528,
                    "duration": 0.25
                },
                {
                    "name": "B4",
                    "midi": 71,
                    "time": 93.75000000000027,
                    "velocity": 0.36220472440944884,
                    "duration": 0.125
                },
                {
                    "name": "D5",
                    "midi": 74,
                    "time": 93.75000000000027,
                    "velocity": 0.4330708661417323,
                    "duration": 0.125
                },
                {
                    "name": "B4",
                    "midi": 71,
                    "time": 94.00000000000027,
                    "velocity": 0.33858267716535434,
                    "duration": 0.1875
                },
                {
                    "name": "D5",
                    "midi": 74,
                    "time": 94.00000000000027,
                    "velocity": 0.3937007874015748,
                    "duration": 0.1875
                },
                {
                    "name": "D#5",
                    "midi": 75,
                    "time": 94.18750000000027,
                    "velocity": 0.33070866141732286,
                    "duration": 0.046875
                },
                {
                    "name": "G5",
                    "midi": 79,
                    "time": 94.18750000000027,
                    "velocity": 0.3937007874015748,
                    "duration": 0.046875
                },
                {
                    "name": "D#5",
                    "midi": 75,
                    "time": 94.25000000000027,
                    "velocity": 0.41732283464566927,
                    "duration": 0.25
                },
                {
                    "name": "G5",
                    "midi": 79,
                    "time": 94.25000000000027,
                    "velocity": 0.4881889763779528,
                    "duration": 0.25
                },
                {
                    "name": "C5",
                    "midi": 72,
                    "time": 94.50000000000027,
                    "velocity": 0.36220472440944884,
                    "duration": 0.125
                },
                {
                    "name": "D#5",
                    "midi": 75,
                    "time": 94.50000000000027,
                    "velocity": 0.4330708661417323,
                    "duration": 0.125
                },
                {
                    "name": "A4",
                    "midi": 69,
                    "time": 94.75000000000027,
                    "velocity": 0.33858267716535434,
                    "duration": 0.1875
                },
                {
                    "name": "C5",
                    "midi": 72,
                    "time": 94.75000000000027,
                    "velocity": 0.3937007874015748,
                    "duration": 0.1875
                },
                {
                    "name": "C5",
                    "midi": 72,
                    "time": 94.93750000000027,
                    "velocity": 0.33070866141732286,
                    "duration": 0.046875
                },
                {
                    "name": "D#5",
                    "midi": 75,
                    "time": 94.93750000000027,
                    "velocity": 0.3937007874015748,
                    "duration": 0.046875
                },
                {
                    "name": "C5",
                    "midi": 72,
                    "time": 95.00000000000027,
                    "velocity": 0.41732283464566927,
                    "duration": 0.25
                },
                {
                    "name": "D#5",
                    "midi": 75,
                    "time": 95.00000000000027,
                    "velocity": 0.4881889763779528,
                    "duration": 0.25
                },
                {
                    "name": "D#4",
                    "midi": 63,
                    "time": 95.12500000000027,
                    "velocity": 0.2677165354330709,
                    "duration": 0.25
                },
                {
                    "name": "A4",
                    "midi": 69,
                    "time": 95.25000000000027,
                    "velocity": 0.36220472440944884,
                    "duration": 0.125
                },
                {
                    "name": "C5",
                    "midi": 72,
                    "time": 95.25000000000027,
                    "velocity": 0.4330708661417323,
                    "duration": 0.125
                },
                {
                    "name": "A4",
                    "midi": 69,
                    "time": 95.50000000000027,
                    "velocity": 0.33858267716535434,
                    "duration": 0.1875
                },
                {
                    "name": "C5",
                    "midi": 72,
                    "time": 95.50000000000027,
                    "velocity": 0.3937007874015748,
                    "duration": 0.1875
                },
                {
                    "name": "C#5",
                    "midi": 73,
                    "time": 95.68750000000027,
                    "velocity": 0.33070866141732286,
                    "duration": 0.046875
                },
                {
                    "name": "F5",
                    "midi": 77,
                    "time": 95.68750000000027,
                    "velocity": 0.3937007874015748,
                    "duration": 0.046875
                },
                {
                    "name": "D5",
                    "midi": 74,
                    "time": 95.75000000000027,
                    "velocity": 0.41732283464566927,
                    "duration": 0.25
                },
                {
                    "name": "F5",
                    "midi": 77,
                    "time": 95.75000000000027,
                    "velocity": 0.4881889763779528,
                    "duration": 0.25
                },
                {
                    "name": "F4",
                    "midi": 65,
                    "time": 95.87500000000027,
                    "velocity": 0.2677165354330709,
                    "duration": 0.25
                },
                {
                    "name": "A#4",
                    "midi": 70,
                    "time": 96.00000000000027,
                    "velocity": 0.36220472440944884,
                    "duration": 0.125
                },
                {
                    "name": "D5",
                    "midi": 74,
                    "time": 96.00000000000027,
                    "velocity": 0.4330708661417323,
                    "duration": 0.125
                },
                {
                    "name": "A3",
                    "midi": 57,
                    "time": 96.25000000000027,
                    "velocity": 0.2992125984251969,
                    "duration": 0.1875
                },
                {
                    "name": "C4",
                    "midi": 60,
                    "time": 96.25000000000027,
                    "velocity": 0.3543307086614173,
                    "duration": 0.1875
                },
                {
                    "name": "C4",
                    "midi": 60,
                    "time": 96.43750000000027,
                    "velocity": 0.29133858267716534,
                    "duration": 0.046875
                },
                {
                    "name": "D#4",
                    "midi": 63,
                    "time": 96.43750000000027,
                    "velocity": 0.3543307086614173,
                    "duration": 0.046875
                },
                {
                    "name": "C4",
                    "midi": 60,
                    "time": 96.50000000000027,
                    "velocity": 0.3700787401574803,
                    "duration": 0.5
                },
                {
                    "name": "D#4",
                    "midi": 63,
                    "time": 96.50000000000027,
                    "velocity": 0.4330708661417323,
                    "duration": 0.5
                },
                {
                    "name": "A#3",
                    "midi": 58,
                    "time": 97.00000000000027,
                    "velocity": 0.31496062992125984,
                    "duration": 0.25
                },
                {
                    "name": "D4",
                    "midi": 62,
                    "time": 97.00000000000027,
                    "velocity": 0.3779527559055118,
                    "duration": 0.25
                },
                {
                    "name": "A3",
                    "midi": 57,
                    "time": 97.25000000000027,
                    "velocity": 0.30708661417322836,
                    "duration": 0.25
                },
                {
                    "name": "C4",
                    "midi": 60,
                    "time": 97.25000000000027,
                    "velocity": 0.36220472440944884,
                    "duration": 0.25
                },
                {
                    "name": "G3",
                    "midi": 55,
                    "time": 97.50000000000027,
                    "velocity": 0.2992125984251969,
                    "duration": 0.25
                },
                {
                    "name": "A#3",
                    "midi": 58,
                    "time": 97.50000000000027,
                    "velocity": 0.3543307086614173,
                    "duration": 0.25
                },
                {
                    "name": "F3",
                    "midi": 53,
                    "time": 97.75000000000027,
                    "velocity": 0.28346456692913385,
                    "duration": 0.5
                },
                {
                    "name": "A3",
                    "midi": 57,
                    "time": 97.75000000000027,
                    "velocity": 0.33858267716535434,
                    "duration": 0.5
                },
                {
                    "name": "E3",
                    "midi": 52,
                    "time": 98.25000000000027,
                    "velocity": 0.25984251968503935,
                    "duration": 0.25
                },
                {
                    "name": "G3",
                    "midi": 55,
                    "time": 98.25000000000027,
                    "velocity": 0.30708661417322836,
                    "duration": 0.25
                },
                {
                    "name": "D#3",
                    "midi": 51,
                    "time": 98.50000000000027,
                    "velocity": 0.25196850393700787,
                    "duration": 0.5
                },
                {
                    "name": "G3",
                    "midi": 55,
                    "time": 98.50000000000027,
                    "velocity": 0.25196850393700787,
                    "duration": 0.75
                },
                {
                    "name": "C4",
                    "midi": 60,
                    "time": 98.50000000000027,
                    "velocity": 0.2992125984251969,
                    "duration": 0.5
                },
                {
                    "name": "D3",
                    "midi": 50,
                    "time": 99.00000000000027,
                    "velocity": 0.25196850393700787,
                    "duration": 0.25
                },
                {
                    "name": "B3",
                    "midi": 59,
                    "time": 99.00000000000027,
                    "velocity": 0.2992125984251969,
                    "duration": 0.25
                },
                {
                    "name": "B3",
                    "midi": 59,
                    "time": 100.00000000000027,
                    "velocity": 0.31496062992125984,
                    "duration": 0.1875
                },
                {
                    "name": "D4",
                    "midi": 62,
                    "time": 100.18750000000027,
                    "velocity": 0.31496062992125984,
                    "duration": 0.056250000000005684
                },
                {
                    "name": "D4",
                    "midi": 62,
                    "time": 100.25000000000027,
                    "velocity": 0.3858267716535433,
                    "duration": 0.25
                },
                {
                    "name": "B3",
                    "midi": 59,
                    "time": 100.50000000000027,
                    "velocity": 0.3464566929133858,
                    "duration": 0.125
                },
                {
                    "name": "D4",
                    "midi": 62,
                    "time": 100.75000000000027,
                    "velocity": 0.25984251968503935,
                    "duration": 0.37291666666666856
                },
                {
                    "name": "B4",
                    "midi": 71,
                    "time": 100.75000000000027,
                    "velocity": 0.31496062992125984,
                    "duration": 0.1875
                },
                {
                    "name": "D5",
                    "midi": 74,
                    "time": 100.93750000000027,
                    "velocity": 0.31496062992125984,
                    "duration": 0.056250000000005684
                },
                {
                    "name": "D5",
                    "midi": 74,
                    "time": 101.00000000000027,
                    "velocity": 0.3858267716535433,
                    "duration": 0.25
                },
                {
                    "name": "D4",
                    "midi": 62,
                    "time": 101.12500000000027,
                    "velocity": 0.25984251968503935,
                    "duration": 0.25
                },
                {
                    "name": "B4",
                    "midi": 71,
                    "time": 101.25000000000027,
                    "velocity": 0.3464566929133858,
                    "duration": 0.125
                },
                {
                    "name": "C6",
                    "midi": 84,
                    "time": 101.50000000000027,
                    "velocity": 0.36220472440944884,
                    "duration": 0.1875
                },
                {
                    "name": "D#6",
                    "midi": 87,
                    "time": 101.68750000000027,
                    "velocity": 0.36220472440944884,
                    "duration": 0.056250000000005684
                },
                {
                    "name": "D#6",
                    "midi": 87,
                    "time": 101.75000000000027,
                    "velocity": 0.4409448818897638,
                    "duration": 0.25
                },
                {
                    "name": "C6",
                    "midi": 84,
                    "time": 102.00000000000027,
                    "velocity": 0.3937007874015748,
                    "duration": 0.125
                },
                {
                    "name": "D4",
                    "midi": 62,
                    "time": 102.25000000000027,
                    "velocity": 0.33858267716535434,
                    "duration": 0.1875
                },
                {
                    "name": "B4",
                    "midi": 71,
                    "time": 102.25000000000027,
                    "velocity": 0.3937007874015748,
                    "duration": 0.1875
                },
                {
                    "name": "F4",
                    "midi": 65,
                    "time": 102.43750000000027,
                    "velocity": 0.33070866141732286,
                    "duration": 0.046875
                },
                {
                    "name": "D5",
                    "midi": 74,
                    "time": 102.43750000000027,
                    "velocity": 0.3937007874015748,
                    "duration": 0.046875
                },
                {
                    "name": "F4",
                    "midi": 65,
                    "time": 102.50000000000027,
                    "velocity": 0.41732283464566927,
                    "duration": 0.25
                },
                {
                    "name": "D5",
                    "midi": 74,
                    "time": 102.50000000000027,
                    "velocity": 0.4881889763779528,
                    "duration": 0.25
                },
                {
                    "name": "D4",
                    "midi": 62,
                    "time": 102.75000000000027,
                    "velocity": 0.36220472440944884,
                    "duration": 0.125
                },
                {
                    "name": "B4",
                    "midi": 71,
                    "time": 102.75000000000027,
                    "velocity": 0.4330708661417323,
                    "duration": 0.125
                },
                {
                    "name": "D4",
                    "midi": 62,
                    "time": 103.00000000000027,
                    "velocity": 0.3858267716535433,
                    "duration": 0.1875
                },
                {
                    "name": "B4",
                    "midi": 71,
                    "time": 103.00000000000027,
                    "velocity": 0.44881889763779526,
                    "duration": 0.1875
                },
                {
                    "name": "G4",
                    "midi": 67,
                    "time": 103.18750000000027,
                    "velocity": 0.3779527559055118,
                    "duration": 0.046875
                },
                {
                    "name": "D#5",
                    "midi": 75,
                    "time": 103.18750000000027,
                    "velocity": 0.44881889763779526,
                    "duration": 0.046875
                },
                {
                    "name": "G4",
                    "midi": 67,
                    "time": 103.25000000000027,
                    "velocity": 0.48031496062992124,
                    "duration": 0.25
                },
                {
                    "name": "D#5",
                    "midi": 75,
                    "time": 103.25000000000027,
                    "velocity": 0.5669291338582677,
                    "duration": 0.25
                },
                {
                    "name": "D#4",
                    "midi": 63,
                    "time": 103.50000000000027,
                    "velocity": 0.4251968503937008,
                    "duration": 0.125
                },
                {
                    "name": "C5",
                    "midi": 72,
                    "time": 103.50000000000027,
                    "velocity": 0.5196850393700787,
                    "duration": 0.125
                },
                {
                    "name": "A4",
                    "midi": 69,
                    "time": 103.75000000000027,
                    "velocity": 0.4645669291338583,
                    "duration": 0.1875
                },
                {
                    "name": "C5",
                    "midi": 72,
                    "time": 103.75000000000027,
                    "velocity": 0.5590551181102362,
                    "duration": 0.1875
                },
                {
                    "name": "C5",
                    "midi": 72,
                    "time": 103.93750000000027,
                    "velocity": 0.5118110236220472,
                    "duration": 0.056250000000005684
                },
                {
                    "name": "A5",
                    "midi": 81,
                    "time": 103.93750000000027,
                    "velocity": 0.5905511811023622,
                    "duration": 0.056250000000005684
                },
                {
                    "name": "C5",
                    "midi": 72,
                    "time": 104.00000000000027,
                    "velocity": 0.6299212598425197,
                    "duration": 0.25
                },
                {
                    "name": "A5",
                    "midi": 81,
                    "time": 104.00000000000027,
                    "velocity": 0.7401574803149606,
                    "duration": 0.25
                },
                {
                    "name": "A4",
                    "midi": 69,
                    "time": 104.25000000000027,
                    "velocity": 0.5669291338582677,
                    "duration": 0.0625
                },
                {
                    "name": "F5",
                    "midi": 77,
                    "time": 104.25000000000027,
                    "velocity": 0.6850393700787402,
                    "duration": 0.0625
                },
                {
                    "name": "A#4",
                    "midi": 70,
                    "time": 104.50000000000027,
                    "velocity": 0.7086614173228346,
                    "duration": 0.0625
                },
                {
                    "name": "A#5",
                    "midi": 82,
                    "time": 104.50000000000027,
                    "velocity": 0.8503937007874016,
                    "duration": 0.0625
                },
                {
                    "name": "A#4",
                    "midi": 70,
                    "time": 104.75000000000027,
                    "velocity": 0.7086614173228346,
                    "duration": 0.125
                },
                {
                    "name": "A#5",
                    "midi": 82,
                    "time": 104.75000000000027,
                    "velocity": 0.8503937007874016,
                    "duration": 0.125
                },
                {
                    "name": "B5",
                    "midi": 83,
                    "time": 105.25000000000027,
                    "velocity": 0.33858267716535434,
                    "duration": 0.1875
                },
                {
                    "name": "D6",
                    "midi": 86,
                    "time": 105.25000000000027,
                    "velocity": 0.3937007874015748,
                    "duration": 0.1875
                },
                {
                    "name": "D6",
                    "midi": 86,
                    "time": 105.43750000000027,
                    "velocity": 0.33070866141732286,
                    "duration": 0.046875
                },
                {
                    "name": "F6",
                    "midi": 89,
                    "time": 105.43750000000027,
                    "velocity": 0.3937007874015748,
                    "duration": 0.046875
                },
                {
                    "name": "D6",
                    "midi": 86,
                    "time": 105.50000000000027,
                    "velocity": 0.41732283464566927,
                    "duration": 0.25
                },
                {
                    "name": "F6",
                    "midi": 89,
                    "time": 105.50000000000027,
                    "velocity": 0.4881889763779528,
                    "duration": 0.25
                },
                {
                    "name": "B5",
                    "midi": 83,
                    "time": 105.75000000000027,
                    "velocity": 0.36220472440944884,
                    "duration": 0.125
                },
                {
                    "name": "D6",
                    "midi": 86,
                    "time": 105.75000000000027,
                    "velocity": 0.4330708661417323,
                    "duration": 0.125
                },
                {
                    "name": "B5",
                    "midi": 83,
                    "time": 106.00000000000027,
                    "velocity": 0.33858267716535434,
                    "duration": 0.1875
                },
                {
                    "name": "D6",
                    "midi": 86,
                    "time": 106.00000000000027,
                    "velocity": 0.3937007874015748,
                    "duration": 0.1875
                },
                {
                    "name": "D#6",
                    "midi": 87,
                    "time": 106.18750000000027,
                    "velocity": 0.33070866141732286,
                    "duration": 0.046875
                },
                {
                    "name": "G6",
                    "midi": 91,
                    "time": 106.18750000000027,
                    "velocity": 0.3937007874015748,
                    "duration": 0.046875
                },
                {
                    "name": "D#6",
                    "midi": 87,
                    "time": 106.25000000000027,
                    "velocity": 0.41732283464566927,
                    "duration": 0.25
                },
                {
                    "name": "G6",
                    "midi": 91,
                    "time": 106.25000000000027,
                    "velocity": 0.4881889763779528,
                    "duration": 0.25
                },
                {
                    "name": "C6",
                    "midi": 84,
                    "time": 106.50000000000027,
                    "velocity": 0.36220472440944884,
                    "duration": 0.125
                },
                {
                    "name": "D#6",
                    "midi": 87,
                    "time": 106.50000000000027,
                    "velocity": 0.4330708661417323,
                    "duration": 0.125
                },
                {
                    "name": "A5",
                    "midi": 81,
                    "time": 106.75000000000027,
                    "velocity": 0.33858267716535434,
                    "duration": 0.1875
                },
                {
                    "name": "C6",
                    "midi": 84,
                    "time": 106.75000000000027,
                    "velocity": 0.3937007874015748,
                    "duration": 0.1875
                },
                {
                    "name": "C6",
                    "midi": 84,
                    "time": 106.93750000000027,
                    "velocity": 0.33070866141732286,
                    "duration": 0.046875
                },
                {
                    "name": "D#6",
                    "midi": 87,
                    "time": 106.93750000000027,
                    "velocity": 0.3937007874015748,
                    "duration": 0.046875
                },
                {
                    "name": "C6",
                    "midi": 84,
                    "time": 107.00000000000027,
                    "velocity": 0.41732283464566927,
                    "duration": 0.25
                },
                {
                    "name": "D#6",
                    "midi": 87,
                    "time": 107.00000000000027,
                    "velocity": 0.4881889763779528,
                    "duration": 0.25
                },
                {
                    "name": "D#5",
                    "midi": 75,
                    "time": 107.12500000000027,
                    "velocity": 0.30708661417322836,
                    "duration": 0.25
                },
                {
                    "name": "A5",
                    "midi": 81,
                    "time": 107.25000000000027,
                    "velocity": 0.36220472440944884,
                    "duration": 0.125
                },
                {
                    "name": "C6",
                    "midi": 84,
                    "time": 107.25000000000027,
                    "velocity": 0.4330708661417323,
                    "duration": 0.125
                },
                {
                    "name": "A5",
                    "midi": 81,
                    "time": 107.50000000000027,
                    "velocity": 0.33858267716535434,
                    "duration": 0.1875
                },
                {
                    "name": "C6",
                    "midi": 84,
                    "time": 107.50000000000027,
                    "velocity": 0.3937007874015748,
                    "duration": 0.1875
                },
                {
                    "name": "C#6",
                    "midi": 85,
                    "time": 107.68750000000027,
                    "velocity": 0.33070866141732286,
                    "duration": 0.046875
                },
                {
                    "name": "F6",
                    "midi": 89,
                    "time": 107.68750000000027,
                    "velocity": 0.3937007874015748,
                    "duration": 0.046875
                },
                {
                    "name": "D6",
                    "midi": 86,
                    "time": 107.75000000000027,
                    "velocity": 0.41732283464566927,
                    "duration": 0.25
                },
                {
                    "name": "F6",
                    "midi": 89,
                    "time": 107.75000000000027,
                    "velocity": 0.4881889763779528,
                    "duration": 0.25
                },
                {
                    "name": "F5",
                    "midi": 77,
                    "time": 107.87500000000027,
                    "velocity": 0.30708661417322836,
                    "duration": 0.25
                },
                {
                    "name": "A#5",
                    "midi": 82,
                    "time": 108.00000000000027,
                    "velocity": 0.36220472440944884,
                    "duration": 0.125
                },
                {
                    "name": "D6",
                    "midi": 86,
                    "time": 108.00000000000027,
                    "velocity": 0.4330708661417323,
                    "duration": 0.125
                },
                {
                    "name": "A4",
                    "midi": 69,
                    "time": 108.25000000000027,
                    "velocity": 0.2992125984251969,
                    "duration": 0.1875
                },
                {
                    "name": "C5",
                    "midi": 72,
                    "time": 108.25000000000027,
                    "velocity": 0.3543307086614173,
                    "duration": 0.1875
                },
                {
                    "name": "C5",
                    "midi": 72,
                    "time": 108.43750000000027,
                    "velocity": 0.29133858267716534,
                    "duration": 0.046875
                },
                {
                    "name": "D#5",
                    "midi": 75,
                    "time": 108.43750000000027,
                    "velocity": 0.3543307086614173,
                    "duration": 0.046875
                },
                {
                    "name": "C5",
                    "midi": 72,
                    "time": 108.50000000000027,
                    "velocity": 0.3700787401574803,
                    "duration": 0.5
                },
                {
                    "name": "D#5",
                    "midi": 75,
                    "time": 108.50000000000027,
                    "velocity": 0.4330708661417323,
                    "duration": 0.5
                },
                {
                    "name": "A#4",
                    "midi": 70,
                    "time": 109.00000000000027,
                    "velocity": 0.31496062992125984,
                    "duration": 0.25
                },
                {
                    "name": "D5",
                    "midi": 74,
                    "time": 109.00000000000027,
                    "velocity": 0.3779527559055118,
                    "duration": 0.25
                },
                {
                    "name": "A4",
                    "midi": 69,
                    "time": 109.25000000000027,
                    "velocity": 0.30708661417322836,
                    "duration": 0.25
                },
                {
                    "name": "C5",
                    "midi": 72,
                    "time": 109.25000000000027,
                    "velocity": 0.36220472440944884,
                    "duration": 0.25
                },
                {
                    "name": "G4",
                    "midi": 67,
                    "time": 109.50000000000027,
                    "velocity": 0.2992125984251969,
                    "duration": 0.25
                },
                {
                    "name": "A#4",
                    "midi": 70,
                    "time": 109.50000000000027,
                    "velocity": 0.3543307086614173,
                    "duration": 0.25
                },
                {
                    "name": "F4",
                    "midi": 65,
                    "time": 109.75000000000027,
                    "velocity": 0.28346456692913385,
                    "duration": 0.5
                },
                {
                    "name": "A4",
                    "midi": 69,
                    "time": 109.75000000000027,
                    "velocity": 0.33858267716535434,
                    "duration": 0.5
                },
                {
                    "name": "E4",
                    "midi": 64,
                    "time": 110.25000000000027,
                    "velocity": 0.25984251968503935,
                    "duration": 0.25
                },
                {
                    "name": "G4",
                    "midi": 67,
                    "time": 110.25000000000027,
                    "velocity": 0.30708661417322836,
                    "duration": 0.25
                },
                {
                    "name": "D#4",
                    "midi": 63,
                    "time": 110.50000000000027,
                    "velocity": 0.25196850393700787,
                    "duration": 0.5
                },
                {
                    "name": "G4",
                    "midi": 67,
                    "time": 110.50000000000027,
                    "velocity": 0.25196850393700787,
                    "duration": 0.75
                },
                {
                    "name": "C5",
                    "midi": 72,
                    "time": 110.50000000000027,
                    "velocity": 0.2992125984251969,
                    "duration": 0.5
                },
                {
                    "name": "D4",
                    "midi": 62,
                    "time": 111.00000000000027,
                    "velocity": 0.25196850393700787,
                    "duration": 0.25
                },
                {
                    "name": "B4",
                    "midi": 71,
                    "time": 111.00000000000027,
                    "velocity": 0.2992125984251969,
                    "duration": 0.25
                },
                {
                    "name": "B4",
                    "midi": 71,
                    "time": 112.00000000000027,
                    "velocity": 0.31496062992125984,
                    "duration": 0.1875
                },
                {
                    "name": "D5",
                    "midi": 74,
                    "time": 112.18750000000027,
                    "velocity": 0.31496062992125984,
                    "duration": 0.056250000000005684
                },
                {
                    "name": "D5",
                    "midi": 74,
                    "time": 112.25000000000027,
                    "velocity": 0.3858267716535433,
                    "duration": 0.25
                },
                {
                    "name": "B4",
                    "midi": 71,
                    "time": 112.50000000000027,
                    "velocity": 0.3464566929133858,
                    "duration": 0.125
                },
                {
                    "name": "D3",
                    "midi": 50,
                    "time": 112.75000000000027,
                    "velocity": 0.25984251968503935,
                    "duration": 0.375
                },
                {
                    "name": "B3",
                    "midi": 59,
                    "time": 112.75000000000027,
                    "velocity": 0.31496062992125984,
                    "duration": 0.1875
                },
                {
                    "name": "D4",
                    "midi": 62,
                    "time": 112.93750000000027,
                    "velocity": 0.31496062992125984,
                    "duration": 0.056250000000005684
                },
                {
                    "name": "D4",
                    "midi": 62,
                    "time": 113.00000000000027,
                    "velocity": 0.3858267716535433,
                    "duration": 0.25
                },
                {
                    "name": "D3",
                    "midi": 50,
                    "time": 113.12500000000027,
                    "velocity": 0.25984251968503935,
                    "duration": 0.25
                },
                {
                    "name": "B3",
                    "midi": 59,
                    "time": 113.25000000000027,
                    "velocity": 0.3464566929133858,
                    "duration": 0.125
                },
                {
                    "name": "C6",
                    "midi": 84,
                    "time": 113.50000000000027,
                    "velocity": 0.36220472440944884,
                    "duration": 0.1875
                },
                {
                    "name": "D#6",
                    "midi": 87,
                    "time": 113.68750000000027,
                    "velocity": 0.36220472440944884,
                    "duration": 0.056250000000005684
                },
                {
                    "name": "D#6",
                    "midi": 87,
                    "time": 113.75000000000027,
                    "velocity": 0.4409448818897638,
                    "duration": 0.25
                },
                {
                    "name": "C6",
                    "midi": 84,
                    "time": 114.00000000000027,
                    "velocity": 0.3937007874015748,
                    "duration": 0.125
                },
                {
                    "name": "D5",
                    "midi": 74,
                    "time": 114.25000000000027,
                    "velocity": 0.33858267716535434,
                    "duration": 0.1875
                },
                {
                    "name": "B5",
                    "midi": 83,
                    "time": 114.25000000000027,
                    "velocity": 0.3937007874015748,
                    "duration": 0.1875
                },
                {
                    "name": "F5",
                    "midi": 77,
                    "time": 114.43750000000027,
                    "velocity": 0.33070866141732286,
                    "duration": 0.046875
                },
                {
                    "name": "D6",
                    "midi": 86,
                    "time": 114.43750000000027,
                    "velocity": 0.3937007874015748,
                    "duration": 0.046875
                },
                {
                    "name": "F5",
                    "midi": 77,
                    "time": 114.50000000000027,
                    "velocity": 0.41732283464566927,
                    "duration": 0.25
                },
                {
                    "name": "D6",
                    "midi": 86,
                    "time": 114.50000000000027,
                    "velocity": 0.4881889763779528,
                    "duration": 0.25
                },
                {
                    "name": "D5",
                    "midi": 74,
                    "time": 114.75000000000027,
                    "velocity": 0.3700787401574803,
                    "duration": 0.125
                },
                {
                    "name": "B5",
                    "midi": 83,
                    "time": 114.75000000000027,
                    "velocity": 0.4409448818897638,
                    "duration": 0.125
                },
                {
                    "name": "D5",
                    "midi": 74,
                    "time": 115.00000000000027,
                    "velocity": 0.4015748031496063,
                    "duration": 0.1875
                },
                {
                    "name": "B5",
                    "midi": 83,
                    "time": 115.00000000000027,
                    "velocity": 0.4645669291338583,
                    "duration": 0.1875
                },
                {
                    "name": "G5",
                    "midi": 79,
                    "time": 115.18750000000027,
                    "velocity": 0.3937007874015748,
                    "duration": 0.046875
                },
                {
                    "name": "D#6",
                    "midi": 87,
                    "time": 115.18750000000027,
                    "velocity": 0.47244094488188976,
                    "duration": 0.046875
                },
                {
                    "name": "G5",
                    "midi": 79,
                    "time": 115.25000000000027,
                    "velocity": 0.49606299212598426,
                    "duration": 0.25
                },
                {
                    "name": "D#6",
                    "midi": 87,
                    "time": 115.25000000000027,
                    "velocity": 0.5905511811023622,
                    "duration": 0.25
                },
                {
                    "name": "D#5",
                    "midi": 75,
                    "time": 115.50000000000027,
                    "velocity": 0.4409448818897638,
                    "duration": 0.125
                },
                {
                    "name": "C6",
                    "midi": 84,
                    "time": 115.50000000000027,
                    "velocity": 0.5354330708661418,
                    "duration": 0.125
                },
                {
                    "name": "A5",
                    "midi": 81,
                    "time": 115.75000000000027,
                    "velocity": 0.49606299212598426,
                    "duration": 0.1875
                },
                {
                    "name": "C6",
                    "midi": 84,
                    "time": 115.75000000000027,
                    "velocity": 0.6062992125984252,
                    "duration": 0.1875
                },
                {
                    "name": "C6",
                    "midi": 84,
                    "time": 115.93750000000027,
                    "velocity": 0.5433070866141733,
                    "duration": 0.056250000000005684
                },
                {
                    "name": "A6",
                    "midi": 93,
                    "time": 115.93750000000027,
                    "velocity": 0.6299212598425197,
                    "duration": 0.056250000000005684
                },
                {
                    "name": "C6",
                    "midi": 84,
                    "time": 116.00000000000027,
                    "velocity": 0.6692913385826772,
                    "duration": 0.25
                },
                {
                    "name": "A6",
                    "midi": 93,
                    "time": 116.00000000000027,
                    "velocity": 0.7952755905511811,
                    "duration": 0.25
                },
                {
                    "name": "A5",
                    "midi": 81,
                    "time": 116.25000000000027,
                    "velocity": 0.6062992125984252,
                    "duration": 0.0625
                },
                {
                    "name": "F6",
                    "midi": 89,
                    "time": 116.25000000000027,
                    "velocity": 0.7322834645669292,
                    "duration": 0.0625
                },
                {
                    "name": "A#5",
                    "midi": 82,
                    "time": 116.50000000000027,
                    "velocity": 0.7795275590551181,
                    "duration": 0.0625
                },
                {
                    "name": "A#6",
                    "midi": 94,
                    "time": 116.50000000000027,
                    "velocity": 0.9212598425196851,
                    "duration": 0.0625
                },
                {
                    "name": "A#5",
                    "midi": 82,
                    "time": 116.75000000000027,
                    "velocity": 0.7795275590551181,
                    "duration": 0.125
                },
                {
                    "name": "A#6",
                    "midi": 94,
                    "time": 116.75000000000027,
                    "velocity": 0.9212598425196851,
                    "duration": 0.125
                },
                {
                    "name": "B3",
                    "midi": 59,
                    "time": 117.25000000000027,
                    "velocity": 0.2204724409448819,
                    "duration": 0.0625
                },
                {
                    "name": "B4",
                    "midi": 71,
                    "time": 117.25000000000027,
                    "velocity": 0.2755905511811024,
                    "duration": 0.0625
                },
                {
                    "name": "B3",
                    "midi": 59,
                    "time": 117.50000000000027,
                    "velocity": 0.2204724409448819,
                    "duration": 0.125
                },
                {
                    "name": "B4",
                    "midi": 71,
                    "time": 117.50000000000027,
                    "velocity": 0.2755905511811024,
                    "duration": 0.125
                },
                {
                    "name": "A#5",
                    "midi": 82,
                    "time": 118.00000000000027,
                    "velocity": 0.7795275590551181,
                    "duration": 0.0625
                },
                {
                    "name": "A#6",
                    "midi": 94,
                    "time": 118.00000000000027,
                    "velocity": 0.9212598425196851,
                    "duration": 0.0625
                },
                {
                    "name": "A#5",
                    "midi": 82,
                    "time": 118.25000000000027,
                    "velocity": 0.7795275590551181,
                    "duration": 0.125
                },
                {
                    "name": "A#6",
                    "midi": 94,
                    "time": 118.25000000000027,
                    "velocity": 0.9212598425196851,
                    "duration": 0.125
                },
                {
                    "name": "B3",
                    "midi": 59,
                    "time": 118.75000000000027,
                    "velocity": 0.1968503937007874,
                    "duration": 0.0625
                },
                {
                    "name": "B4",
                    "midi": 71,
                    "time": 118.75000000000027,
                    "velocity": 0.2440944881889764,
                    "duration": 0.0625
                },
                {
                    "name": "B3",
                    "midi": 59,
                    "time": 119.00000000000027,
                    "velocity": 0.1968503937007874,
                    "duration": 0.125
                },
                {
                    "name": "B4",
                    "midi": 71,
                    "time": 119.00000000000027,
                    "velocity": 0.23622047244094488,
                    "duration": 0.125
                },
                {
                    "name": "A#3",
                    "midi": 58,
                    "time": 119.50000000000027,
                    "velocity": 0.18110236220472442,
                    "duration": 0.0625
                },
                {
                    "name": "A#4",
                    "midi": 70,
                    "time": 119.50000000000027,
                    "velocity": 0.2204724409448819,
                    "duration": 0.0625
                },
                {
                    "name": "A#3",
                    "midi": 58,
                    "time": 119.75000000000027,
                    "velocity": 0.1732283464566929,
                    "duration": 0.125
                },
                {
                    "name": "A#4",
                    "midi": 70,
                    "time": 119.75000000000027,
                    "velocity": 0.2125984251968504,
                    "duration": 0.125
                },
                {
                    "name": "D4",
                    "midi": 62,
                    "time": 120.25000000000027,
                    "velocity": 0.2440944881889764,
                    "duration": 0.1875
                },
                {
                    "name": "F#4",
                    "midi": 66,
                    "time": 120.43750000000027,
                    "velocity": 0.2204724409448819,
                    "duration": 0.05937500000000284
                },
                {
                    "name": "F#4",
                    "midi": 66,
                    "time": 120.50000000000027,
                    "velocity": 0.25984251968503935,
                    "duration": 0.25
                },
                {
                    "name": "D4",
                    "midi": 62,
                    "time": 120.75000000000027,
                    "velocity": 0.2204724409448819,
                    "duration": 0.125
                },
                {
                    "name": "B3",
                    "midi": 59,
                    "time": 121.00000000000027,
                    "velocity": 0.1732283464566929,
                    "duration": 0.0625
                },
                {
                    "name": "B4",
                    "midi": 71,
                    "time": 121.00000000000027,
                    "velocity": 0.2204724409448819,
                    "duration": 0.0625
                },
                {
                    "name": "B3",
                    "midi": 59,
                    "time": 121.25000000000027,
                    "velocity": 0.1732283464566929,
                    "duration": 0.125
                },
                {
                    "name": "B4",
                    "midi": 71,
                    "time": 121.25000000000027,
                    "velocity": 0.2125984251968504,
                    "duration": 0.125
                },
                {
                    "name": "B3",
                    "midi": 59,
                    "time": 121.75000000000027,
                    "velocity": 0.1732283464566929,
                    "duration": 0.0625
                },
                {
                    "name": "B4",
                    "midi": 71,
                    "time": 121.75000000000027,
                    "velocity": 0.2204724409448819,
                    "duration": 0.0625
                },
                {
                    "name": "B3",
                    "midi": 59,
                    "time": 122.00000000000027,
                    "velocity": 0.1732283464566929,
                    "duration": 0.125
                },
                {
                    "name": "B4",
                    "midi": 71,
                    "time": 122.00000000000027,
                    "velocity": 0.2125984251968504,
                    "duration": 0.125
                },
                {
                    "name": "B3",
                    "midi": 59,
                    "time": 122.50000000000027,
                    "velocity": 0.30708661417322836,
                    "duration": 0.12395833333333428
                },
                {
                    "name": "B4",
                    "midi": 71,
                    "time": 122.50000000000027,
                    "velocity": 0.36220472440944884,
                    "duration": 0.12395833333333428
                },
                {
                    "name": "B3",
                    "midi": 59,
                    "time": 122.75000000000027,
                    "velocity": 0.30708661417322836,
                    "duration": 0.24791666666666856
                },
                {
                    "name": "B4",
                    "midi": 71,
                    "time": 122.75000000000027,
                    "velocity": 0.3700787401574803,
                    "duration": 0.24791666666666856
                },
                {
                    "name": "B3",
                    "midi": 59,
                    "time": 123.00000000000027,
                    "velocity": 0.33858267716535434,
                    "duration": 0.24791666666666856
                },
                {
                    "name": "B4",
                    "midi": 71,
                    "time": 123.00000000000027,
                    "velocity": 0.4015748031496063,
                    "duration": 0.24791666666666856
                },
                {
                    "name": "B3",
                    "midi": 59,
                    "time": 123.25000000000027,
                    "velocity": 0.3543307086614173,
                    "duration": 0.24791666666666856
                },
                {
                    "name": "B4",
                    "midi": 71,
                    "time": 123.25000000000027,
                    "velocity": 0.4330708661417323,
                    "duration": 0.24791666666666856
                },
                {
                    "name": "B3",
                    "midi": 59,
                    "time": 123.50000000000027,
                    "velocity": 0.3937007874015748,
                    "duration": 0.24791666666666856
                },
                {
                    "name": "B4",
                    "midi": 71,
                    "time": 123.50000000000027,
                    "velocity": 0.4645669291338583,
                    "duration": 0.24791666666666856
                },
                {
                    "name": "B3",
                    "midi": 59,
                    "time": 123.75000000000027,
                    "velocity": 0.4330708661417323,
                    "duration": 0.24791666666666856
                },
                {
                    "name": "B4",
                    "midi": 71,
                    "time": 123.75000000000027,
                    "velocity": 0.5118110236220472,
                    "duration": 0.24791666666666856
                },
                {
                    "name": "B4",
                    "midi": 71,
                    "time": 124.00000000000027,
                    "velocity": 0.47244094488188976,
                    "duration": 0.24791666666666856
                },
                {
                    "name": "B5",
                    "midi": 83,
                    "time": 124.00000000000027,
                    "velocity": 0.5669291338582677,
                    "duration": 0.24791666666666856
                },
                {
                    "name": "B4",
                    "midi": 71,
                    "time": 124.25000000000027,
                    "velocity": 0.5196850393700787,
                    "duration": 0.24791666666666856
                },
                {
                    "name": "B5",
                    "midi": 83,
                    "time": 124.25000000000027,
                    "velocity": 0.6220472440944882,
                    "duration": 0.24791666666666856
                },
                {
                    "name": "B4",
                    "midi": 71,
                    "time": 124.50000000000027,
                    "velocity": 0.5748031496062992,
                    "duration": 0.24791666666666856
                },
                {
                    "name": "B5",
                    "midi": 83,
                    "time": 124.50000000000027,
                    "velocity": 0.6850393700787402,
                    "duration": 0.24791666666666856
                },
                {
                    "name": "B4",
                    "midi": 71,
                    "time": 124.75000000000027,
                    "velocity": 0.7559055118110236,
                    "duration": 0.24791666666666856
                },
                {
                    "name": "B5",
                    "midi": 83,
                    "time": 124.75000000000027,
                    "velocity": 0.6377952755905512,
                    "duration": 0.24791666666666856
                },
                {
                    "name": "B5",
                    "midi": 83,
                    "time": 125.00000000000027,
                    "velocity": 0.6377952755905512,
                    "duration": 0.24791666666666856
                },
                {
                    "name": "B6",
                    "midi": 95,
                    "time": 125.00000000000027,
                    "velocity": 0.7637795275590551,
                    "duration": 0.24791666666666856
                },
                {
                    "name": "B5",
                    "midi": 83,
                    "time": 125.25000000000027,
                    "velocity": 0.6456692913385826,
                    "duration": 0.24791666666666856
                },
                {
                    "name": "B6",
                    "midi": 95,
                    "time": 125.25000000000027,
                    "velocity": 0.7637795275590551,
                    "duration": 0.24791666666666856
                },
                {
                    "name": "B5",
                    "midi": 83,
                    "time": 125.50000000000027,
                    "velocity": 0.6535433070866141,
                    "duration": 0.24791666666666856
                },
                {
                    "name": "B6",
                    "midi": 95,
                    "time": 125.50000000000027,
                    "velocity": 0.7716535433070866,
                    "duration": 0.24791666666666856
                },
                {
                    "name": "B6",
                    "midi": 95,
                    "time": 125.75000000000027,
                    "velocity": 0.8267716535433071,
                    "duration": 0.24791666666666856
                },
                {
                    "name": "B5",
                    "midi": 83,
                    "time": 125.75000000000027,
                    "velocity": 0.6929133858267716,
                    "duration": 0.24791666666666856
                },
                {
                    "name": "B6",
                    "midi": 95,
                    "time": 126.00000000000027,
                    "velocity": 0.7795275590551181,
                    "duration": 0.24791666666666856
                },
                {
                    "name": "B5",
                    "midi": 83,
                    "time": 126.00000000000027,
                    "velocity": 0.6535433070866141,
                    "duration": 0.24791666666666856
                },
                {
                    "name": "B6",
                    "midi": 95,
                    "time": 126.25000000000027,
                    "velocity": 0.7874015748031497,
                    "duration": 0.25
                },
                {
                    "name": "B5",
                    "midi": 83,
                    "time": 126.25000000000027,
                    "velocity": 0.6614173228346457,
                    "duration": 0.25
                },
                {
                    "name": "A#5",
                    "midi": 82,
                    "time": 126.50000000000027,
                    "velocity": 0.7244094488188977,
                    "duration": 0.125
                },
                {
                    "name": "A#6",
                    "midi": 94,
                    "time": 126.50000000000027,
                    "velocity": 0.8582677165354331,
                    "duration": 0.125
                },
                {
                    "name": "A#5",
                    "midi": 82,
                    "time": 126.75000000000027,
                    "velocity": 0.7244094488188977,
                    "duration": 0.125
                },
                {
                    "name": "A#6",
                    "midi": 94,
                    "time": 126.75000000000027,
                    "velocity": 0.8582677165354331,
                    "duration": 0.125
                },
                {
                    "name": "D4",
                    "midi": 62,
                    "time": 127.25000000000027,
                    "velocity": 0.31496062992125984,
                    "duration": 0.1875
                },
                {
                    "name": "F4",
                    "midi": 65,
                    "time": 127.43750000000027,
                    "velocity": 0.31496062992125984,
                    "duration": 0.056250000000005684
                },
                {
                    "name": "F4",
                    "midi": 65,
                    "time": 127.50000000000027,
                    "velocity": 0.3858267716535433,
                    "duration": 0.25
                },
                {
                    "name": "C4",
                    "midi": 60,
                    "time": 127.62500000000027,
                    "velocity": 0.36220472440944884,
                    "duration": 0.25
                },
                {
                    "name": "F3",
                    "midi": 53,
                    "time": 127.75000000000027,
                    "velocity": 0.25984251968503935,
                    "duration": 0.125
                },
                {
                    "name": "D4",
                    "midi": 62,
                    "time": 127.75000000000027,
                    "velocity": 0.3464566929133858,
                    "duration": 0.125
                },
                {
                    "name": "D5",
                    "midi": 74,
                    "time": 127.9895833333336,
                    "velocity": 0.31496062992125984,
                    "duration": 0.1875
                },
                {
                    "name": "F5",
                    "midi": 77,
                    "time": 128.1770833333336,
                    "velocity": 0.31496062992125984,
                    "duration": 0.056250000000005684
                },
                {
                    "name": "F5",
                    "midi": 77,
                    "time": 128.2395833333336,
                    "velocity": 0.3858267716535433,
                    "duration": 0.25
                },
                {
                    "name": "C5",
                    "midi": 72,
                    "time": 128.3645833333336,
                    "velocity": 0.25984251968503935,
                    "duration": 0.25
                },
                {
                    "name": "F4",
                    "midi": 65,
                    "time": 128.4895833333336,
                    "velocity": 0.25984251968503935,
                    "duration": 0.125
                },
                {
                    "name": "D5",
                    "midi": 74,
                    "time": 128.4895833333336,
                    "velocity": 0.3464566929133858,
                    "duration": 0.125
                },
                {
                    "name": "D6",
                    "midi": 86,
                    "time": 128.74687500000027,
                    "velocity": 0.2677165354330709,
                    "duration": 0.1875
                },
                {
                    "name": "F6",
                    "midi": 89,
                    "time": 128.93437500000027,
                    "velocity": 0.2677165354330709,
                    "duration": 0.056250000000005684
                },
                {
                    "name": "F6",
                    "midi": 89,
                    "time": 128.99687500000027,
                    "velocity": 0.3228346456692913,
                    "duration": 0.25
                },
                {
                    "name": "C6",
                    "midi": 84,
                    "time": 129.12187500000027,
                    "velocity": 0.2755905511811024,
                    "duration": 0.25
                },
                {
                    "name": "F5",
                    "midi": 77,
                    "time": 129.24687500000027,
                    "velocity": 0.2204724409448819,
                    "duration": 0.125
                },
                {
                    "name": "D6",
                    "midi": 86,
                    "time": 129.24687500000027,
                    "velocity": 0.29133858267716534,
                    "duration": 0.125
                }
            ],
            "controlChanges": {},
            "id": 1,
            "name": "Piano right",
            "instrumentNumber": 0,
            "instrument": "acoustic grand piano",
            "instrumentFamily": "piano",
            "channelNumber": 0,
            "isPercussion": false
        },
        {
            "startTime": 0.5,
            "duration": 129.37187500000027,
            "length": 828,
            "notes": [
                {
                    "name": "D4",
                    "midi": 62,
                    "time": 0.5,
                    "velocity": 0.31496062992125984,
                    "duration": 0.1875
                },
                {
                    "name": "A#3",
                    "midi": 58,
                    "time": 0.5,
                    "velocity": 0.2677165354330709,
                    "duration": 0.1875
                },
                {
                    "name": "F3",
                    "midi": 53,
                    "time": 0.6875,
                    "velocity": 0.2677165354330709,
                    "duration": 0.05625000000000002
                },
                {
                    "name": "C4",
                    "midi": 60,
                    "time": 0.6875,
                    "velocity": 0.31496062992125984,
                    "duration": 0.05625000000000002
                },
                {
                    "name": "C4",
                    "midi": 60,
                    "time": 0.75,
                    "velocity": 0.3937007874015748,
                    "duration": 0.25
                },
                {
                    "name": "A3",
                    "midi": 57,
                    "time": 0.75,
                    "velocity": 0.33070866141732286,
                    "duration": 0.25
                },
                {
                    "name": "D4",
                    "midi": 62,
                    "time": 1,
                    "velocity": 0.3464566929133858,
                    "duration": 0.125
                },
                {
                    "name": "A#3",
                    "midi": 58,
                    "time": 1,
                    "velocity": 0.29133858267716534,
                    "duration": 0.125
                },
                {
                    "name": "A#3",
                    "midi": 58,
                    "time": 1.25,
                    "velocity": 0.31496062992125984,
                    "duration": 0.1875
                },
                {
                    "name": "G3",
                    "midi": 55,
                    "time": 1.25,
                    "velocity": 0.2677165354330709,
                    "duration": 0.1875
                },
                {
                    "name": "D3",
                    "midi": 50,
                    "time": 1.4375,
                    "velocity": 0.2677165354330709,
                    "duration": 0.05624999999999991
                },
                {
                    "name": "A3",
                    "midi": 57,
                    "time": 1.4375,
                    "velocity": 0.31496062992125984,
                    "duration": 0.05624999999999991
                },
                {
                    "name": "A3",
                    "midi": 57,
                    "time": 1.5,
                    "velocity": 0.3937007874015748,
                    "duration": 0.25
                },
                {
                    "name": "F#3",
                    "midi": 54,
                    "time": 1.5,
                    "velocity": 0.33070866141732286,
                    "duration": 0.25
                },
                {
                    "name": "A#3",
                    "midi": 58,
                    "time": 1.75,
                    "velocity": 0.3464566929133858,
                    "duration": 0.125
                },
                {
                    "name": "G3",
                    "midi": 55,
                    "time": 1.75,
                    "velocity": 0.29133858267716534,
                    "duration": 0.125
                },
                {
                    "name": "G3",
                    "midi": 55,
                    "time": 2,
                    "velocity": 0.33070866141732286,
                    "duration": 0.1875
                },
                {
                    "name": "D#3",
                    "midi": 51,
                    "time": 2,
                    "velocity": 0.2755905511811024,
                    "duration": 0.1875
                },
                {
                    "name": "A#2",
                    "midi": 46,
                    "time": 2.1875,
                    "velocity": 0.28346456692913385,
                    "duration": 0.05624999999999991
                },
                {
                    "name": "F3",
                    "midi": 53,
                    "time": 2.1875,
                    "velocity": 0.33070866141732286,
                    "duration": 0.05624999999999991
                },
                {
                    "name": "F3",
                    "midi": 53,
                    "time": 2.25,
                    "velocity": 0.4251968503937008,
                    "duration": 0.25
                },
                {
                    "name": "D3",
                    "midi": 50,
                    "time": 2.25,
                    "velocity": 0.3543307086614173,
                    "duration": 0.25
                },
                {
                    "name": "G3",
                    "midi": 55,
                    "time": 2.5,
                    "velocity": 0.3779527559055118,
                    "duration": 0.125
                },
                {
                    "name": "D#3",
                    "midi": 51,
                    "time": 2.5,
                    "velocity": 0.3228346456692913,
                    "duration": 0.125
                },
                {
                    "name": "G3",
                    "midi": 55,
                    "time": 2.75,
                    "velocity": 0.3543307086614173,
                    "duration": 0.1875
                },
                {
                    "name": "D#3",
                    "midi": 51,
                    "time": 2.75,
                    "velocity": 0.2992125984251969,
                    "duration": 0.1875
                },
                {
                    "name": "C3",
                    "midi": 48,
                    "time": 2.9375,
                    "velocity": 0.30708661417322836,
                    "duration": 0.05624999999999991
                },
                {
                    "name": "F3",
                    "midi": 53,
                    "time": 2.9375,
                    "velocity": 0.36220472440944884,
                    "duration": 0.05624999999999991
                },
                {
                    "name": "F3",
                    "midi": 53,
                    "time": 3,
                    "velocity": 0.4566929133858268,
                    "duration": 0.375
                },
                {
                    "name": "C3",
                    "midi": 48,
                    "time": 3,
                    "velocity": 0.3858267716535433,
                    "duration": 0.25
                },
                {
                    "name": "D3",
                    "midi": 50,
                    "time": 3.25,
                    "velocity": 0.3464566929133858,
                    "duration": 0.125
                },
                {
                    "name": "F3",
                    "midi": 53,
                    "time": 3.5,
                    "velocity": 0.3228346456692913,
                    "duration": 0.25
                },
                {
                    "name": "D3",
                    "midi": 50,
                    "time": 3.5,
                    "velocity": 0.3858267716535433,
                    "duration": 0.1875
                },
                {
                    "name": "A2",
                    "midi": 45,
                    "time": 3.6875,
                    "velocity": 0.33070866141732286,
                    "duration": 0.05624999999999991
                },
                {
                    "name": "F3",
                    "midi": 53,
                    "time": 3.75,
                    "velocity": 0.5039370078740157,
                    "duration": 0.375
                },
                {
                    "name": "A2",
                    "midi": 45,
                    "time": 3.75,
                    "velocity": 0.41732283464566927,
                    "duration": 0.25
                },
                {
                    "name": "G#2",
                    "midi": 44,
                    "time": 4,
                    "velocity": 0.3779527559055118,
                    "duration": 0.125
                },
                {
                    "name": "G#2",
                    "midi": 44,
                    "time": 4.25,
                    "velocity": 0.3543307086614173,
                    "duration": 0.1875
                },
                {
                    "name": "F3",
                    "midi": 53,
                    "time": 4.25,
                    "velocity": 0.41732283464566927,
                    "duration": 0.1875
                },
                {
                    "name": "G2",
                    "midi": 43,
                    "time": 4.4375,
                    "velocity": 0.36220472440944884,
                    "duration": 0.056250000000000355
                },
                {
                    "name": "D#3",
                    "midi": 51,
                    "time": 4.4375,
                    "velocity": 0.36220472440944884,
                    "duration": 0.056250000000000355
                },
                {
                    "name": "D#3",
                    "midi": 51,
                    "time": 4.5,
                    "velocity": 0.5590551181102362,
                    "duration": 0.25
                },
                {
                    "name": "G2",
                    "midi": 43,
                    "time": 4.5,
                    "velocity": 0.4645669291338583,
                    "duration": 0.25
                },
                {
                    "name": "C#3",
                    "midi": 49,
                    "time": 4.75,
                    "velocity": 0.4409448818897638,
                    "duration": 0.0625
                },
                {
                    "name": "F2",
                    "midi": 41,
                    "time": 4.75,
                    "velocity": 0.3858267716535433,
                    "duration": 0.0625
                },
                {
                    "name": "E2",
                    "midi": 40,
                    "time": 5,
                    "velocity": 0.4566929133858268,
                    "duration": 0.0625
                },
                {
                    "name": "C3",
                    "midi": 48,
                    "time": 5,
                    "velocity": 0.4881889763779528,
                    "duration": 0.0625
                },
                {
                    "name": "F2",
                    "midi": 41,
                    "time": 5.25,
                    "velocity": 0.4566929133858268,
                    "duration": 0.125
                },
                {
                    "name": "F3",
                    "midi": 53,
                    "time": 5.25,
                    "velocity": 0.4881889763779528,
                    "duration": 0.125
                },
                {
                    "name": "D5",
                    "midi": 74,
                    "time": 5.75,
                    "velocity": 0.31496062992125984,
                    "duration": 0.1875
                },
                {
                    "name": "A#4",
                    "midi": 70,
                    "time": 5.75,
                    "velocity": 0.2677165354330709,
                    "duration": 0.1875
                },
                {
                    "name": "F4",
                    "midi": 65,
                    "time": 5.9375,
                    "velocity": 0.2677165354330709,
                    "duration": 0.056250000000000355
                },
                {
                    "name": "C5",
                    "midi": 72,
                    "time": 5.9375,
                    "velocity": 0.31496062992125984,
                    "duration": 0.056250000000000355
                },
                {
                    "name": "C5",
                    "midi": 72,
                    "time": 6,
                    "velocity": 0.3937007874015748,
                    "duration": 0.25
                },
                {
                    "name": "A4",
                    "midi": 69,
                    "time": 6,
                    "velocity": 0.33070866141732286,
                    "duration": 0.25
                },
                {
                    "name": "D5",
                    "midi": 74,
                    "time": 6.25,
                    "velocity": 0.3464566929133858,
                    "duration": 0.125
                },
                {
                    "name": "A#4",
                    "midi": 70,
                    "time": 6.25,
                    "velocity": 0.29133858267716534,
                    "duration": 0.125
                },
                {
                    "name": "A#4",
                    "midi": 70,
                    "time": 6.5,
                    "velocity": 0.31496062992125984,
                    "duration": 0.1875
                },
                {
                    "name": "G4",
                    "midi": 67,
                    "time": 6.5,
                    "velocity": 0.2677165354330709,
                    "duration": 0.1875
                },
                {
                    "name": "D4",
                    "midi": 62,
                    "time": 6.6875,
                    "velocity": 0.2677165354330709,
                    "duration": 0.056250000000000355
                },
                {
                    "name": "A4",
                    "midi": 69,
                    "time": 6.6875,
                    "velocity": 0.31496062992125984,
                    "duration": 0.056250000000000355
                },
                {
                    "name": "A4",
                    "midi": 69,
                    "time": 6.75,
                    "velocity": 0.3937007874015748,
                    "duration": 0.25
                },
                {
                    "name": "F#4",
                    "midi": 66,
                    "time": 6.75,
                    "velocity": 0.33070866141732286,
                    "duration": 0.25
                },
                {
                    "name": "A#4",
                    "midi": 70,
                    "time": 7,
                    "velocity": 0.3464566929133858,
                    "duration": 0.125
                },
                {
                    "name": "G4",
                    "midi": 67,
                    "time": 7,
                    "velocity": 0.29133858267716534,
                    "duration": 0.125
                },
                {
                    "name": "G4",
                    "midi": 67,
                    "time": 7.25,
                    "velocity": 0.33070866141732286,
                    "duration": 0.1875
                },
                {
                    "name": "D#4",
                    "midi": 63,
                    "time": 7.25,
                    "velocity": 0.2755905511811024,
                    "duration": 0.1875
                },
                {
                    "name": "A#3",
                    "midi": 58,
                    "time": 7.4375,
                    "velocity": 0.28346456692913385,
                    "duration": 0.056250000000000355
                },
                {
                    "name": "F4",
                    "midi": 65,
                    "time": 7.4375,
                    "velocity": 0.33070866141732286,
                    "duration": 0.056250000000000355
                },
                {
                    "name": "F4",
                    "midi": 65,
                    "time": 7.5,
                    "velocity": 0.4251968503937008,
                    "duration": 0.25
                },
                {
                    "name": "D4",
                    "midi": 62,
                    "time": 7.5,
                    "velocity": 0.3543307086614173,
                    "duration": 0.25
                },
                {
                    "name": "G4",
                    "midi": 67,
                    "time": 7.75,
                    "velocity": 0.3779527559055118,
                    "duration": 0.125
                },
                {
                    "name": "D#4",
                    "midi": 63,
                    "time": 7.75,
                    "velocity": 0.3228346456692913,
                    "duration": 0.125
                },
                {
                    "name": "G4",
                    "midi": 67,
                    "time": 8,
                    "velocity": 0.3543307086614173,
                    "duration": 0.1875
                },
                {
                    "name": "D#4",
                    "midi": 63,
                    "time": 8,
                    "velocity": 0.2992125984251969,
                    "duration": 0.1875
                },
                {
                    "name": "C4",
                    "midi": 60,
                    "time": 8.1875,
                    "velocity": 0.30708661417322836,
                    "duration": 0.056250000000000355
                },
                {
                    "name": "F4",
                    "midi": 65,
                    "time": 8.1875,
                    "velocity": 0.36220472440944884,
                    "duration": 0.056250000000000355
                },
                {
                    "name": "F4",
                    "midi": 65,
                    "time": 8.25,
                    "velocity": 0.4566929133858268,
                    "duration": 0.375
                },
                {
                    "name": "C4",
                    "midi": 60,
                    "time": 8.25,
                    "velocity": 0.3858267716535433,
                    "duration": 0.25
                },
                {
                    "name": "D4",
                    "midi": 62,
                    "time": 8.5,
                    "velocity": 0.3464566929133858,
                    "duration": 0.125
                },
                {
                    "name": "D5",
                    "midi": 74,
                    "time": 8.75,
                    "velocity": 0.3858267716535433,
                    "duration": 0.1875
                },
                {
                    "name": "C5",
                    "midi": 72,
                    "time": 8.9375,
                    "velocity": 0.33070866141732286,
                    "duration": 0.056250000000000355
                },
                {
                    "name": "A4",
                    "midi": 69,
                    "time": 8.9375,
                    "velocity": 0.33070866141732286,
                    "duration": 0.056250000000000355
                },
                {
                    "name": "C5",
                    "midi": 72,
                    "time": 9,
                    "velocity": 0.5039370078740157,
                    "duration": 0.25
                },
                {
                    "name": "A4",
                    "midi": 69,
                    "time": 9,
                    "velocity": 0.41732283464566927,
                    "duration": 0.25
                },
                {
                    "name": "A#4",
                    "midi": 70,
                    "time": 9.25,
                    "velocity": 0.4094488188976378,
                    "duration": 0.125
                },
                {
                    "name": "G#4",
                    "midi": 68,
                    "time": 9.25,
                    "velocity": 0.3779527559055118,
                    "duration": 0.125
                },
                {
                    "name": "G4",
                    "midi": 67,
                    "time": 9.5,
                    "velocity": 0.3543307086614173,
                    "duration": 0.1875
                },
                {
                    "name": "A#4",
                    "midi": 70,
                    "time": 9.5,
                    "velocity": 0.41732283464566927,
                    "duration": 0.25
                },
                {
                    "name": "F#4",
                    "midi": 66,
                    "time": 9.6875,
                    "velocity": 0.36220472440944884,
                    "duration": 0.056250000000000355
                },
                {
                    "name": "A#4",
                    "midi": 70,
                    "time": 9.75,
                    "velocity": 0.5590551181102362,
                    "duration": 0.25
                },
                {
                    "name": "F#4",
                    "midi": 66,
                    "time": 9.75,
                    "velocity": 0.4645669291338583,
                    "duration": 0.25
                },
                {
                    "name": "C5",
                    "midi": 72,
                    "time": 10,
                    "velocity": 0.4409448818897638,
                    "duration": 0.0625
                },
                {
                    "name": "F4",
                    "midi": 65,
                    "time": 10,
                    "velocity": 0.3858267716535433,
                    "duration": 0.0625
                },
                {
                    "name": "C3",
                    "midi": 48,
                    "time": 10.25,
                    "velocity": 0.4566929133858268,
                    "duration": 0.0625
                },
                {
                    "name": "C4",
                    "midi": 60,
                    "time": 10.25,
                    "velocity": 0.4881889763779528,
                    "duration": 0.0625
                },
                {
                    "name": "F3",
                    "midi": 53,
                    "time": 10.5,
                    "velocity": 0.4566929133858268,
                    "duration": 0.125
                },
                {
                    "name": "F4",
                    "midi": 65,
                    "time": 10.5,
                    "velocity": 0.4881889763779528,
                    "duration": 0.125
                },
                {
                    "name": "F4",
                    "midi": 65,
                    "time": 11,
                    "velocity": 0.31496062992125984,
                    "duration": 0.75
                },
                {
                    "name": "F3",
                    "midi": 53,
                    "time": 11,
                    "velocity": 0.2677165354330709,
                    "duration": 0.75
                },
                {
                    "name": "F3",
                    "midi": 53,
                    "time": 11.75,
                    "velocity": 0.31496062992125984,
                    "duration": 0.75
                },
                {
                    "name": "F2",
                    "midi": 41,
                    "time": 11.75,
                    "velocity": 0.2677165354330709,
                    "duration": 0.75
                },
                {
                    "name": "F3",
                    "midi": 53,
                    "time": 12.5,
                    "velocity": 0.31496062992125984,
                    "duration": 0.75
                },
                {
                    "name": "F2",
                    "midi": 41,
                    "time": 12.5,
                    "velocity": 0.2677165354330709,
                    "duration": 0.75
                },
                {
                    "name": "F2",
                    "midi": 41,
                    "time": 13.25,
                    "velocity": 0.28346456692913385,
                    "duration": 0.75
                },
                {
                    "name": "F1",
                    "midi": 29,
                    "time": 13.25,
                    "velocity": 0.23622047244094488,
                    "duration": 0.75
                },
                {
                    "name": "F#2",
                    "midi": 42,
                    "time": 14,
                    "velocity": 0.28346456692913385,
                    "duration": 0.5
                },
                {
                    "name": "F#1",
                    "midi": 30,
                    "time": 14,
                    "velocity": 0.23622047244094488,
                    "duration": 0.5
                },
                {
                    "name": "G1",
                    "midi": 31,
                    "time": 14.5,
                    "velocity": 0.2204724409448819,
                    "duration": 0.5
                },
                {
                    "name": "G2",
                    "midi": 43,
                    "time": 14.5,
                    "velocity": 0.2677165354330709,
                    "duration": 0.5
                },
                {
                    "name": "A1",
                    "midi": 33,
                    "time": 15,
                    "velocity": 0.2204724409448819,
                    "duration": 0.25
                },
                {
                    "name": "A2",
                    "midi": 45,
                    "time": 15,
                    "velocity": 0.2677165354330709,
                    "duration": 0.25
                },
                {
                    "name": "A#1",
                    "midi": 34,
                    "time": 15.25,
                    "velocity": 0.2204724409448819,
                    "duration": 0.25
                },
                {
                    "name": "A#2",
                    "midi": 46,
                    "time": 15.25,
                    "velocity": 0.25984251968503935,
                    "duration": 0.25
                },
                {
                    "name": "B1",
                    "midi": 35,
                    "time": 15.5,
                    "velocity": 0.2204724409448819,
                    "duration": 0.25
                },
                {
                    "name": "B2",
                    "midi": 47,
                    "time": 15.5,
                    "velocity": 0.25984251968503935,
                    "duration": 0.25
                },
                {
                    "name": "C2",
                    "midi": 36,
                    "time": 15.75,
                    "velocity": 0.2204724409448819,
                    "duration": 0.5
                },
                {
                    "name": "C3",
                    "midi": 48,
                    "time": 15.75,
                    "velocity": 0.25984251968503935,
                    "duration": 0.5
                },
                {
                    "name": "C2",
                    "midi": 36,
                    "time": 16.25,
                    "velocity": 0.25196850393700787,
                    "duration": 0.25
                },
                {
                    "name": "G2",
                    "midi": 43,
                    "time": 16.5,
                    "velocity": 0.25196850393700787,
                    "duration": 0.5
                },
                {
                    "name": "G2",
                    "midi": 43,
                    "time": 18.5,
                    "velocity": 0.25196850393700787,
                    "duration": 0.1875
                },
                {
                    "name": "G3",
                    "midi": 55,
                    "time": 18.5,
                    "velocity": 0.2125984251968504,
                    "duration": 0.625
                },
                {
                    "name": "B2",
                    "midi": 47,
                    "time": 18.6875,
                    "velocity": 0.25196850393700787,
                    "duration": 0.05624999999999858
                },
                {
                    "name": "B2",
                    "midi": 47,
                    "time": 18.75,
                    "velocity": 0.31496062992125984,
                    "duration": 0.25
                },
                {
                    "name": "G2",
                    "midi": 43,
                    "time": 19,
                    "velocity": 0.2755905511811024,
                    "duration": 0.125
                },
                {
                    "name": "C5",
                    "midi": 72,
                    "time": 19.25,
                    "velocity": 0.28346456692913385,
                    "duration": 0.1875
                },
                {
                    "name": "D#5",
                    "midi": 75,
                    "time": 19.4375,
                    "velocity": 0.28346456692913385,
                    "duration": 0.05624999999999858
                },
                {
                    "name": "D#5",
                    "midi": 75,
                    "time": 19.5,
                    "velocity": 0.36220472440944884,
                    "duration": 0.25
                },
                {
                    "name": "C5",
                    "midi": 72,
                    "time": 19.75,
                    "velocity": 0.31496062992125984,
                    "duration": 0.125
                },
                {
                    "name": "G3",
                    "midi": 55,
                    "time": 20,
                    "velocity": 0.31496062992125984,
                    "duration": 0.75
                },
                {
                    "name": "G2",
                    "midi": 43,
                    "time": 20,
                    "velocity": 0.2677165354330709,
                    "duration": 0.75
                },
                {
                    "name": "C3",
                    "midi": 48,
                    "time": 20.75,
                    "velocity": 0.3779527559055118,
                    "duration": 0.75
                },
                {
                    "name": "C2",
                    "midi": 36,
                    "time": 20.75,
                    "velocity": 0.31496062992125984,
                    "duration": 0.75
                },
                {
                    "name": "F1",
                    "midi": 29,
                    "time": 21.5,
                    "velocity": 0.44881889763779526,
                    "duration": 0.5
                },
                {
                    "name": "F2",
                    "midi": 41,
                    "time": 21.5,
                    "velocity": 0.5590551181102362,
                    "duration": 0.5
                },
                {
                    "name": "F2",
                    "midi": 41,
                    "time": 22,
                    "velocity": 0.44881889763779526,
                    "duration": 0.0625
                },
                {
                    "name": "F3",
                    "midi": 53,
                    "time": 22,
                    "velocity": 0.47244094488188976,
                    "duration": 0.0625
                },
                {
                    "name": "A#1",
                    "midi": 34,
                    "time": 22.25,
                    "velocity": 0.49606299212598426,
                    "duration": 0.0625
                },
                {
                    "name": "A#2",
                    "midi": 46,
                    "time": 22.25,
                    "velocity": 0.5354330708661418,
                    "duration": 0.0625
                },
                {
                    "name": "A#1",
                    "midi": 34,
                    "time": 22.5,
                    "velocity": 0.49606299212598426,
                    "duration": 0.125
                },
                {
                    "name": "A#2",
                    "midi": 46,
                    "time": 22.5,
                    "velocity": 0.5354330708661418,
                    "duration": 0.125
                },
                {
                    "name": "F5",
                    "midi": 77,
                    "time": 23,
                    "velocity": 0.31496062992125984,
                    "duration": 0.75
                },
                {
                    "name": "F4",
                    "midi": 65,
                    "time": 23,
                    "velocity": 0.2677165354330709,
                    "duration": 0.75
                },
                {
                    "name": "F4",
                    "midi": 65,
                    "time": 23.75,
                    "velocity": 0.31496062992125984,
                    "duration": 0.75
                },
                {
                    "name": "F3",
                    "midi": 53,
                    "time": 23.75,
                    "velocity": 0.2677165354330709,
                    "duration": 0.75
                },
                {
                    "name": "F4",
                    "midi": 65,
                    "time": 24.5,
                    "velocity": 0.31496062992125984,
                    "duration": 0.75
                },
                {
                    "name": "F3",
                    "midi": 53,
                    "time": 24.5,
                    "velocity": 0.2677165354330709,
                    "duration": 0.75
                },
                {
                    "name": "F3",
                    "midi": 53,
                    "time": 25.25,
                    "velocity": 0.28346456692913385,
                    "duration": 0.75
                },
                {
                    "name": "F2",
                    "midi": 41,
                    "time": 25.25,
                    "velocity": 0.23622047244094488,
                    "duration": 0.75
                },
                {
                    "name": "F#3",
                    "midi": 54,
                    "time": 26,
                    "velocity": 0.28346456692913385,
                    "duration": 0.5
                },
                {
                    "name": "F#2",
                    "midi": 42,
                    "time": 26,
                    "velocity": 0.23622047244094488,
                    "duration": 0.5
                },
                {
                    "name": "F#3",
                    "midi": 54,
                    "time": 26.5,
                    "velocity": 0.2204724409448819,
                    "duration": 0.25
                },
                {
                    "name": "C4",
                    "midi": 60,
                    "time": 26.5,
                    "velocity": 0.2204724409448819,
                    "duration": 0.25
                },
                {
                    "name": "D#4",
                    "midi": 63,
                    "time": 26.5,
                    "velocity": 0.2677165354330709,
                    "duration": 0.25
                },
                {
                    "name": "G3",
                    "midi": 55,
                    "time": 26.75,
                    "velocity": 0.2204724409448819,
                    "duration": 0.25
                },
                {
                    "name": "A#3",
                    "midi": 58,
                    "time": 26.75,
                    "velocity": 0.2204724409448819,
                    "duration": 0.25
                },
                {
                    "name": "D4",
                    "midi": 62,
                    "time": 26.75,
                    "velocity": 0.2677165354330709,
                    "duration": 0.25
                },
                {
                    "name": "A3",
                    "midi": 57,
                    "time": 27,
                    "velocity": 0.2204724409448819,
                    "duration": 0.25
                },
                {
                    "name": "C4",
                    "midi": 60,
                    "time": 27,
                    "velocity": 0.2677165354330709,
                    "duration": 0.25
                },
                {
                    "name": "A#2",
                    "midi": 46,
                    "time": 27.25,
                    "velocity": 0.2204724409448819,
                    "duration": 0.25
                },
                {
                    "name": "G3",
                    "midi": 55,
                    "time": 27.25,
                    "velocity": 0.2204724409448819,
                    "duration": 0.25
                },
                {
                    "name": "A#3",
                    "midi": 58,
                    "time": 27.25,
                    "velocity": 0.25984251968503935,
                    "duration": 0.25
                },
                {
                    "name": "F3",
                    "midi": 53,
                    "time": 27.5,
                    "velocity": 0.2204724409448819,
                    "duration": 0.5
                },
                {
                    "name": "B2",
                    "midi": 47,
                    "time": 27.5,
                    "velocity": 0.2204724409448819,
                    "duration": 0.25
                },
                {
                    "name": "A3",
                    "midi": 57,
                    "time": 27.5,
                    "velocity": 0.25984251968503935,
                    "duration": 0.5
                },
                {
                    "name": "C3",
                    "midi": 48,
                    "time": 27.75,
                    "velocity": 0.2204724409448819,
                    "duration": 0.5
                },
                {
                    "name": "E3",
                    "midi": 52,
                    "time": 28,
                    "velocity": 0.2125984251968504,
                    "duration": 0.25
                },
                {
                    "name": "G3",
                    "midi": 55,
                    "time": 28,
                    "velocity": 0.25984251968503935,
                    "duration": 0.25
                },
                {
                    "name": "D#3",
                    "midi": 51,
                    "time": 28.25,
                    "velocity": 0.2125984251968504,
                    "duration": 0.25
                },
                {
                    "name": "G3",
                    "midi": 55,
                    "time": 28.25,
                    "velocity": 0.25984251968503935,
                    "duration": 0.25
                },
                {
                    "name": "C4",
                    "midi": 60,
                    "time": 28.25,
                    "velocity": 0.25196850393700787,
                    "duration": 0.5
                },
                {
                    "name": "G3",
                    "midi": 55,
                    "time": 28.5,
                    "velocity": 0.25196850393700787,
                    "duration": 0.5
                },
                {
                    "name": "B3",
                    "midi": 59,
                    "time": 28.75,
                    "velocity": 0.23622047244094488,
                    "duration": 0.25
                },
                {
                    "name": "G3",
                    "midi": 55,
                    "time": 30.5,
                    "velocity": 0.25196850393700787,
                    "duration": 0.1875
                },
                {
                    "name": "G4",
                    "midi": 67,
                    "time": 30.5,
                    "velocity": 0.2125984251968504,
                    "duration": 0.625
                },
                {
                    "name": "B3",
                    "midi": 59,
                    "time": 30.6875,
                    "velocity": 0.25196850393700787,
                    "duration": 0.05624999999999858
                },
                {
                    "name": "B3",
                    "midi": 59,
                    "time": 30.75,
                    "velocity": 0.31496062992125984,
                    "duration": 0.25
                },
                {
                    "name": "G3",
                    "midi": 55,
                    "time": 31,
                    "velocity": 0.2755905511811024,
                    "duration": 0.125
                },
                {
                    "name": "C4",
                    "midi": 60,
                    "time": 31.25,
                    "velocity": 0.28346456692913385,
                    "duration": 0.1875
                },
                {
                    "name": "D#4",
                    "midi": 63,
                    "time": 31.4375,
                    "velocity": 0.28346456692913385,
                    "duration": 0.05624999999999858
                },
                {
                    "name": "D#4",
                    "midi": 63,
                    "time": 31.5,
                    "velocity": 0.36220472440944884,
                    "duration": 0.25
                },
                {
                    "name": "C4",
                    "midi": 60,
                    "time": 31.75,
                    "velocity": 0.31496062992125984,
                    "duration": 0.125
                },
                {
                    "name": "G4",
                    "midi": 67,
                    "time": 32,
                    "velocity": 0.31496062992125984,
                    "duration": 0.75
                },
                {
                    "name": "G3",
                    "midi": 55,
                    "time": 32,
                    "velocity": 0.2677165354330709,
                    "duration": 0.75
                },
                {
                    "name": "C4",
                    "midi": 60,
                    "time": 32.75,
                    "velocity": 0.3858267716535433,
                    "duration": 0.75
                },
                {
                    "name": "C3",
                    "midi": 48,
                    "time": 32.75,
                    "velocity": 0.3228346456692913,
                    "duration": 0.75
                },
                {
                    "name": "F2",
                    "midi": 41,
                    "time": 33.5,
                    "velocity": 0.4645669291338583,
                    "duration": 0.75
                },
                {
                    "name": "F3",
                    "midi": 53,
                    "time": 33.5,
                    "velocity": 0.5826771653543307,
                    "duration": 0.75
                },
                {
                    "name": "A#1",
                    "midi": 34,
                    "time": 34.25,
                    "velocity": 0.5433070866141733,
                    "duration": 0.0625
                },
                {
                    "name": "A#2",
                    "midi": 46,
                    "time": 34.25,
                    "velocity": 0.5826771653543307,
                    "duration": 0.0625
                },
                {
                    "name": "A#1",
                    "midi": 34,
                    "time": 34.5,
                    "velocity": 0.5433070866141733,
                    "duration": 0.125
                },
                {
                    "name": "A#2",
                    "midi": 46,
                    "time": 34.5,
                    "velocity": 0.5826771653543307,
                    "duration": 0.125
                },
                {
                    "name": "A#1",
                    "midi": 34,
                    "time": 35,
                    "velocity": 0.2440944881889764,
                    "duration": 0.125
                },
                {
                    "name": "A#2",
                    "midi": 46,
                    "time": 35,
                    "velocity": 0.29133858267716534,
                    "duration": 0.125
                },
                {
                    "name": "A#1",
                    "midi": 34,
                    "time": 35.25,
                    "velocity": 0.2440944881889764,
                    "duration": 0.125
                },
                {
                    "name": "A#2",
                    "midi": 46,
                    "time": 35.25,
                    "velocity": 0.29133858267716534,
                    "duration": 0.125
                },
                {
                    "name": "A#1",
                    "midi": 34,
                    "time": 35.75,
                    "velocity": 0.29133858267716534,
                    "duration": 0.0833333333333357
                },
                {
                    "name": "F2",
                    "midi": 41,
                    "time": 35.833333333333336,
                    "velocity": 0.23622047244094488,
                    "duration": 0.0833333333333357
                },
                {
                    "name": "C#3",
                    "midi": 49,
                    "time": 35.91666666666667,
                    "velocity": 0.23622047244094488,
                    "duration": 0.0833333333333357
                },
                {
                    "name": "A#1",
                    "midi": 34,
                    "time": 36.00000000000001,
                    "velocity": 0.29133858267716534,
                    "duration": 0.0833333333333357
                },
                {
                    "name": "F2",
                    "midi": 41,
                    "time": 36.08333333333334,
                    "velocity": 0.2440944881889764,
                    "duration": 0.0833333333333357
                },
                {
                    "name": "C#3",
                    "midi": 49,
                    "time": 36.16666666666668,
                    "velocity": 0.2440944881889764,
                    "duration": 0.0833333333333357
                },
                {
                    "name": "A#1",
                    "midi": 34,
                    "time": 36.250000000000014,
                    "velocity": 0.29133858267716534,
                    "duration": 0.0833333333333357
                },
                {
                    "name": "F2",
                    "midi": 41,
                    "time": 36.33333333333335,
                    "velocity": 0.2440944881889764,
                    "duration": 0.0833333333333357
                },
                {
                    "name": "C#3",
                    "midi": 49,
                    "time": 36.416666666666686,
                    "velocity": 0.23622047244094488,
                    "duration": 0.0833333333333357
                },
                {
                    "name": "A#1",
                    "midi": 34,
                    "time": 36.50000000000002,
                    "velocity": 0.29133858267716534,
                    "duration": 0.0833333333333357
                },
                {
                    "name": "F2",
                    "midi": 41,
                    "time": 36.58333333333336,
                    "velocity": 0.2440944881889764,
                    "duration": 0.0833333333333357
                },
                {
                    "name": "C#3",
                    "midi": 49,
                    "time": 36.66666666666669,
                    "velocity": 0.2440944881889764,
                    "duration": 0.0833333333333357
                },
                {
                    "name": "A#1",
                    "midi": 34,
                    "time": 36.75000000000003,
                    "velocity": 0.29133858267716534,
                    "duration": 0.0833333333333357
                },
                {
                    "name": "F2",
                    "midi": 41,
                    "time": 36.833333333333364,
                    "velocity": 0.2440944881889764,
                    "duration": 0.0833333333333357
                },
                {
                    "name": "C#3",
                    "midi": 49,
                    "time": 36.9166666666667,
                    "velocity": 0.2440944881889764,
                    "duration": 0.0833333333333357
                },
                {
                    "name": "A#1",
                    "midi": 34,
                    "time": 37.000000000000036,
                    "velocity": 0.2992125984251969,
                    "duration": 0.0833333333333357
                },
                {
                    "name": "F2",
                    "midi": 41,
                    "time": 37.08333333333337,
                    "velocity": 0.25196850393700787,
                    "duration": 0.0833333333333357
                },
                {
                    "name": "C#3",
                    "midi": 49,
                    "time": 37.16666666666671,
                    "velocity": 0.2440944881889764,
                    "duration": 0.0833333333333357
                },
                {
                    "name": "A#1",
                    "midi": 34,
                    "time": 37.25000000000004,
                    "velocity": 0.30708661417322836,
                    "duration": 0.0833333333333357
                },
                {
                    "name": "F2",
                    "midi": 41,
                    "time": 37.33333333333338,
                    "velocity": 0.25984251968503935,
                    "duration": 0.0833333333333357
                },
                {
                    "name": "C#3",
                    "midi": 49,
                    "time": 37.416666666666714,
                    "velocity": 0.2677165354330709,
                    "duration": 0.0833333333333357
                },
                {
                    "name": "A#1",
                    "midi": 34,
                    "time": 37.50000000000005,
                    "velocity": 0.3228346456692913,
                    "duration": 0.0833333333333357
                },
                {
                    "name": "F2",
                    "midi": 41,
                    "time": 37.583333333333385,
                    "velocity": 0.2755905511811024,
                    "duration": 0.0833333333333357
                },
                {
                    "name": "C#3",
                    "midi": 49,
                    "time": 37.66666666666672,
                    "velocity": 0.2755905511811024,
                    "duration": 0.0833333333333357
                },
                {
                    "name": "A#1",
                    "midi": 34,
                    "time": 37.75000000000006,
                    "velocity": 0.33070866141732286,
                    "duration": 0.0833333333333357
                },
                {
                    "name": "F2",
                    "midi": 41,
                    "time": 37.83333333333339,
                    "velocity": 0.28346456692913385,
                    "duration": 0.0833333333333357
                },
                {
                    "name": "C#3",
                    "midi": 49,
                    "time": 37.91666666666673,
                    "velocity": 0.2755905511811024,
                    "duration": 0.0833333333333357
                },
                {
                    "name": "A#1",
                    "midi": 34,
                    "time": 38.000000000000064,
                    "velocity": 0.3464566929133858,
                    "duration": 0.0833333333333357
                },
                {
                    "name": "F2",
                    "midi": 41,
                    "time": 38.0833333333334,
                    "velocity": 0.29133858267716534,
                    "duration": 0.0833333333333357
                },
                {
                    "name": "C#3",
                    "midi": 49,
                    "time": 38.166666666666735,
                    "velocity": 0.2992125984251969,
                    "duration": 0.0833333333333357
                },
                {
                    "name": "A#1",
                    "midi": 34,
                    "time": 38.25000000000007,
                    "velocity": 0.3858267716535433,
                    "duration": 0.0833333333333357
                },
                {
                    "name": "F2",
                    "midi": 41,
                    "time": 38.33333333333341,
                    "velocity": 0.33070866141732286,
                    "duration": 0.0833333333333357
                },
                {
                    "name": "C#3",
                    "midi": 49,
                    "time": 38.41666666666674,
                    "velocity": 0.33070866141732286,
                    "duration": 0.0833333333333357
                },
                {
                    "name": "A#1",
                    "midi": 34,
                    "time": 38.50000000000008,
                    "velocity": 0.4251968503937008,
                    "duration": 0.0833333333333357
                },
                {
                    "name": "F2",
                    "midi": 41,
                    "time": 38.583333333333414,
                    "velocity": 0.3858267716535433,
                    "duration": 0.0833333333333357
                },
                {
                    "name": "C#3",
                    "midi": 49,
                    "time": 38.66666666666675,
                    "velocity": 0.3858267716535433,
                    "duration": 0.0833333333333357
                },
                {
                    "name": "A#1",
                    "midi": 34,
                    "time": 38.750000000000085,
                    "velocity": 0.48031496062992124,
                    "duration": 0.0833333333333357
                },
                {
                    "name": "F2",
                    "midi": 41,
                    "time": 38.83333333333342,
                    "velocity": 0.4409448818897638,
                    "duration": 0.0833333333333357
                },
                {
                    "name": "C#3",
                    "midi": 49,
                    "time": 38.91666666666676,
                    "velocity": 0.4566929133858268,
                    "duration": 0.0833333333333357
                },
                {
                    "name": "A#1",
                    "midi": 34,
                    "time": 39.00000000000009,
                    "velocity": 0.5433070866141733,
                    "duration": 0.0833333333333357
                },
                {
                    "name": "F2",
                    "midi": 41,
                    "time": 39.08333333333343,
                    "velocity": 0.44881889763779526,
                    "duration": 0.0833333333333357
                },
                {
                    "name": "C#3",
                    "midi": 49,
                    "time": 39.166666666666764,
                    "velocity": 0.4094488188976378,
                    "duration": 0.0833333333333357
                },
                {
                    "name": "A#1",
                    "midi": 34,
                    "time": 39.2500000000001,
                    "velocity": 0.48031496062992124,
                    "duration": 0.0833333333333357
                },
                {
                    "name": "F2",
                    "midi": 41,
                    "time": 39.333333333333435,
                    "velocity": 0.4015748031496063,
                    "duration": 0.0833333333333357
                },
                {
                    "name": "C#3",
                    "midi": 49,
                    "time": 39.41666666666677,
                    "velocity": 0.4015748031496063,
                    "duration": 0.0833333333333357
                },
                {
                    "name": "G#1",
                    "midi": 32,
                    "time": 39.50000000000011,
                    "velocity": 0.47244094488188976,
                    "duration": 0.0833333333333357
                },
                {
                    "name": "F2",
                    "midi": 41,
                    "time": 39.58333333333344,
                    "velocity": 0.3937007874015748,
                    "duration": 0.0833333333333357
                },
                {
                    "name": "C#3",
                    "midi": 49,
                    "time": 39.66666666666678,
                    "velocity": 0.36220472440944884,
                    "duration": 0.0833333333333357
                },
                {
                    "name": "G#1",
                    "midi": 32,
                    "time": 39.750000000000114,
                    "velocity": 0.3464566929133858,
                    "duration": 0.0833333333333357
                },
                {
                    "name": "F2",
                    "midi": 41,
                    "time": 39.83333333333345,
                    "velocity": 0.28346456692913385,
                    "duration": 0.0833333333333357
                },
                {
                    "name": "C#3",
                    "midi": 49,
                    "time": 39.916666666666785,
                    "velocity": 0.2755905511811024,
                    "duration": 0.0833333333333357
                },
                {
                    "name": "G#1",
                    "midi": 32,
                    "time": 40.00000000000012,
                    "velocity": 0.3228346456692913,
                    "duration": 0.0833333333333357
                },
                {
                    "name": "F2",
                    "midi": 41,
                    "time": 40.08333333333346,
                    "velocity": 0.2677165354330709,
                    "duration": 0.0833333333333357
                },
                {
                    "name": "C#3",
                    "midi": 49,
                    "time": 40.16666666666679,
                    "velocity": 0.25196850393700787,
                    "duration": 0.0833333333333357
                },
                {
                    "name": "C#2",
                    "midi": 37,
                    "time": 40.25000000000013,
                    "velocity": 0.30708661417322836,
                    "duration": 0.0833333333333357
                },
                {
                    "name": "F2",
                    "midi": 41,
                    "time": 40.333333333333464,
                    "velocity": 0.25196850393700787,
                    "duration": 0.0833333333333357
                },
                {
                    "name": "C#3",
                    "midi": 49,
                    "time": 40.4166666666668,
                    "velocity": 0.2440944881889764,
                    "duration": 0.0833333333333357
                },
                {
                    "name": "C#2",
                    "midi": 37,
                    "time": 40.500000000000135,
                    "velocity": 0.29133858267716534,
                    "duration": 0.0833333333333357
                },
                {
                    "name": "F2",
                    "midi": 41,
                    "time": 40.58333333333347,
                    "velocity": 0.2047244094488189,
                    "duration": 0.0833333333333357
                },
                {
                    "name": "C#3",
                    "midi": 49,
                    "time": 40.666666666666806,
                    "velocity": 0.2047244094488189,
                    "duration": 0.0833333333333357
                },
                {
                    "name": "C#2",
                    "midi": 37,
                    "time": 40.75000000000014,
                    "velocity": 0.23622047244094488,
                    "duration": 0.0833333333333357
                },
                {
                    "name": "F2",
                    "midi": 41,
                    "time": 40.83333333333348,
                    "velocity": 0.1968503937007874,
                    "duration": 0.0833333333333357
                },
                {
                    "name": "C#3",
                    "midi": 49,
                    "time": 40.91666666666681,
                    "velocity": 0.1968503937007874,
                    "duration": 0.0833333333333357
                },
                {
                    "name": "C#2",
                    "midi": 37,
                    "time": 41.00000000000015,
                    "velocity": 0.31496062992125984,
                    "duration": 0.5
                },
                {
                    "name": "C#3",
                    "midi": 49,
                    "time": 41.00000000000015,
                    "velocity": 0.3779527559055118,
                    "duration": 0.5
                },
                {
                    "name": "F3",
                    "midi": 53,
                    "time": 41.50000000000015,
                    "velocity": 0.3937007874015748,
                    "duration": 0.25
                },
                {
                    "name": "F2",
                    "midi": 41,
                    "time": 41.50000000000015,
                    "velocity": 0.3937007874015748,
                    "duration": 0.25
                },
                {
                    "name": "C#2",
                    "midi": 37,
                    "time": 41.75000000000015,
                    "velocity": 0.3464566929133858,
                    "duration": 0.5
                },
                {
                    "name": "C#3",
                    "midi": 49,
                    "time": 41.75000000000015,
                    "velocity": 0.4094488188976378,
                    "duration": 0.5
                },
                {
                    "name": "A#1",
                    "midi": 34,
                    "time": 42.25000000000015,
                    "velocity": 0.3464566929133858,
                    "duration": 0.25
                },
                {
                    "name": "A#2",
                    "midi": 46,
                    "time": 42.25000000000015,
                    "velocity": 0.4094488188976378,
                    "duration": 0.25
                },
                {
                    "name": "F1",
                    "midi": 29,
                    "time": 42.50000000000015,
                    "velocity": 0.31496062992125984,
                    "duration": 0.25
                },
                {
                    "name": "F2",
                    "midi": 41,
                    "time": 42.50000000000015,
                    "velocity": 0.3858267716535433,
                    "duration": 0.25
                },
                {
                    "name": "A#1",
                    "midi": 34,
                    "time": 42.75000000000015,
                    "velocity": 0.36220472440944884,
                    "duration": 0.5
                },
                {
                    "name": "A#2",
                    "midi": 46,
                    "time": 42.75000000000015,
                    "velocity": 0.41732283464566927,
                    "duration": 0.5
                },
                {
                    "name": "C#3",
                    "midi": 49,
                    "time": 43.25000000000015,
                    "velocity": 0.48031496062992124,
                    "duration": 0.25
                },
                {
                    "name": "C#2",
                    "midi": 37,
                    "time": 43.25000000000015,
                    "velocity": 0.4015748031496063,
                    "duration": 0.25
                },
                {
                    "name": "F2",
                    "midi": 41,
                    "time": 43.50000000000015,
                    "velocity": 0.4015748031496063,
                    "duration": 0.5
                },
                {
                    "name": "F3",
                    "midi": 53,
                    "time": 43.50000000000015,
                    "velocity": 0.48031496062992124,
                    "duration": 0.5
                },
                {
                    "name": "C#3",
                    "midi": 49,
                    "time": 44.00000000000015,
                    "velocity": 0.5511811023622047,
                    "duration": 0.25
                },
                {
                    "name": "C#2",
                    "midi": 37,
                    "time": 44.00000000000015,
                    "velocity": 0.4645669291338583,
                    "duration": 0.25
                },
                {
                    "name": "A#2",
                    "midi": 46,
                    "time": 44.25000000000015,
                    "velocity": 0.6220472440944882,
                    "duration": 0.5
                },
                {
                    "name": "A#1",
                    "midi": 34,
                    "time": 44.25000000000015,
                    "velocity": 0.5275590551181102,
                    "duration": 0.5
                },
                {
                    "name": "F2",
                    "midi": 41,
                    "time": 44.75000000000015,
                    "velocity": 0.5748031496062992,
                    "duration": 0.25
                },
                {
                    "name": "F1",
                    "midi": 29,
                    "time": 44.75000000000015,
                    "velocity": 0.48031496062992124,
                    "duration": 0.25
                },
                {
                    "name": "A#1",
                    "midi": 34,
                    "time": 45.00000000000015,
                    "velocity": 0.5039370078740157,
                    "duration": 0.5
                },
                {
                    "name": "A#2",
                    "midi": 46,
                    "time": 45.00000000000015,
                    "velocity": 0.6062992125984252,
                    "duration": 0.5
                },
                {
                    "name": "C#3",
                    "midi": 49,
                    "time": 45.50000000000015,
                    "velocity": 0.5433070866141733,
                    "duration": 0.25
                },
                {
                    "name": "C#2",
                    "midi": 37,
                    "time": 45.50000000000015,
                    "velocity": 0.4566929133858268,
                    "duration": 0.25
                },
                {
                    "name": "F2",
                    "midi": 41,
                    "time": 45.75000000000015,
                    "velocity": 0.4251968503937008,
                    "duration": 0.5
                },
                {
                    "name": "F3",
                    "midi": 53,
                    "time": 45.75000000000015,
                    "velocity": 0.5039370078740157,
                    "duration": 0.5
                },
                {
                    "name": "G#3",
                    "midi": 56,
                    "time": 46.25000000000015,
                    "velocity": 0.3543307086614173,
                    "duration": 0.25
                },
                {
                    "name": "G#2",
                    "midi": 44,
                    "time": 46.25000000000015,
                    "velocity": 0.29133858267716534,
                    "duration": 0.25
                },
                {
                    "name": "C#3",
                    "midi": 49,
                    "time": 46.50000000000015,
                    "velocity": 0.33858267716535434,
                    "duration": 0.25
                },
                {
                    "name": "C#2",
                    "midi": 37,
                    "time": 46.50000000000015,
                    "velocity": 0.28346456692913385,
                    "duration": 0.25
                },
                {
                    "name": "C#2",
                    "midi": 37,
                    "time": 47.00000000000015,
                    "velocity": 0.29133858267716534,
                    "duration": 0.125
                },
                {
                    "name": "C#3",
                    "midi": 49,
                    "time": 47.00000000000015,
                    "velocity": 0.29133858267716534,
                    "duration": 0.125
                },
                {
                    "name": "C#2",
                    "midi": 37,
                    "time": 47.25000000000015,
                    "velocity": 0.2677165354330709,
                    "duration": 0.125
                },
                {
                    "name": "C#3",
                    "midi": 49,
                    "time": 47.25000000000015,
                    "velocity": 0.2677165354330709,
                    "duration": 0.125
                },
                {
                    "name": "C#2",
                    "midi": 37,
                    "time": 47.50000000000015,
                    "velocity": 0.29133858267716534,
                    "duration": 0.0833333333333357
                },
                {
                    "name": "F2",
                    "midi": 41,
                    "time": 47.583333333333485,
                    "velocity": 0.2440944881889764,
                    "duration": 0.0833333333333357
                },
                {
                    "name": "C#3",
                    "midi": 49,
                    "time": 47.66666666666682,
                    "velocity": 0.23622047244094488,
                    "duration": 0.0833333333333357
                },
                {
                    "name": "C#2",
                    "midi": 37,
                    "time": 47.750000000000156,
                    "velocity": 0.29133858267716534,
                    "duration": 0.0833333333333357
                },
                {
                    "name": "F2",
                    "midi": 41,
                    "time": 47.83333333333349,
                    "velocity": 0.23622047244094488,
                    "duration": 0.0833333333333357
                },
                {
                    "name": "C#3",
                    "midi": 49,
                    "time": 47.91666666666683,
                    "velocity": 0.23622047244094488,
                    "duration": 0.0833333333333357
                },
                {
                    "name": "C#2",
                    "midi": 37,
                    "time": 48.00000000000016,
                    "velocity": 0.29133858267716534,
                    "duration": 0.0833333333333357
                },
                {
                    "name": "F2",
                    "midi": 41,
                    "time": 48.0833333333335,
                    "velocity": 0.2440944881889764,
                    "duration": 0.0833333333333357
                },
                {
                    "name": "C#3",
                    "midi": 49,
                    "time": 48.166666666666835,
                    "velocity": 0.2440944881889764,
                    "duration": 0.0833333333333357
                },
                {
                    "name": "C#2",
                    "midi": 37,
                    "time": 48.25000000000017,
                    "velocity": 0.29133858267716534,
                    "duration": 0.0833333333333357
                },
                {
                    "name": "F2",
                    "midi": 41,
                    "time": 48.333333333333506,
                    "velocity": 0.2440944881889764,
                    "duration": 0.0833333333333357
                },
                {
                    "name": "C#3",
                    "midi": 49,
                    "time": 48.41666666666684,
                    "velocity": 0.23622047244094488,
                    "duration": 0.0833333333333357
                },
                {
                    "name": "C#2",
                    "midi": 37,
                    "time": 48.50000000000018,
                    "velocity": 0.29133858267716534,
                    "duration": 0.0833333333333357
                },
                {
                    "name": "F2",
                    "midi": 41,
                    "time": 48.58333333333351,
                    "velocity": 0.23622047244094488,
                    "duration": 0.0833333333333357
                },
                {
                    "name": "C#3",
                    "midi": 49,
                    "time": 48.66666666666685,
                    "velocity": 0.23622047244094488,
                    "duration": 0.0833333333333357
                },
                {
                    "name": "C#2",
                    "midi": 37,
                    "time": 48.750000000000185,
                    "velocity": 0.29133858267716534,
                    "duration": 0.0833333333333357
                },
                {
                    "name": "F2",
                    "midi": 41,
                    "time": 48.83333333333352,
                    "velocity": 0.2440944881889764,
                    "duration": 0.0833333333333357
                },
                {
                    "name": "C#3",
                    "midi": 49,
                    "time": 48.916666666666856,
                    "velocity": 0.2440944881889764,
                    "duration": 0.0833333333333357
                },
                {
                    "name": "C#2",
                    "midi": 37,
                    "time": 49.00000000000019,
                    "velocity": 0.29133858267716534,
                    "duration": 0.0833333333333357
                },
                {
                    "name": "F2",
                    "midi": 41,
                    "time": 49.08333333333353,
                    "velocity": 0.2440944881889764,
                    "duration": 0.0833333333333357
                },
                {
                    "name": "C#3",
                    "midi": 49,
                    "time": 49.16666666666686,
                    "velocity": 0.23622047244094488,
                    "duration": 0.0833333333333357
                },
                {
                    "name": "C#2",
                    "midi": 37,
                    "time": 49.2500000000002,
                    "velocity": 0.29133858267716534,
                    "duration": 0.0833333333333357
                },
                {
                    "name": "F2",
                    "midi": 41,
                    "time": 49.333333333333535,
                    "velocity": 0.2440944881889764,
                    "duration": 0.0833333333333357
                },
                {
                    "name": "C#3",
                    "midi": 49,
                    "time": 49.41666666666687,
                    "velocity": 0.2440944881889764,
                    "duration": 0.0833333333333357
                },
                {
                    "name": "C#2",
                    "midi": 37,
                    "time": 49.500000000000206,
                    "velocity": 0.29133858267716534,
                    "duration": 0.0833333333333357
                },
                {
                    "name": "F2",
                    "midi": 41,
                    "time": 49.58333333333354,
                    "velocity": 0.2440944881889764,
                    "duration": 0.0833333333333357
                },
                {
                    "name": "C#3",
                    "midi": 49,
                    "time": 49.66666666666688,
                    "velocity": 0.2440944881889764,
                    "duration": 0.0833333333333357
                },
                {
                    "name": "C#2",
                    "midi": 37,
                    "time": 49.75000000000021,
                    "velocity": 0.2992125984251969,
                    "duration": 0.0833333333333357
                },
                {
                    "name": "F2",
                    "midi": 41,
                    "time": 49.83333333333355,
                    "velocity": 0.25196850393700787,
                    "duration": 0.0833333333333357
                },
                {
                    "name": "C#3",
                    "midi": 49,
                    "time": 49.916666666666885,
                    "velocity": 0.2440944881889764,
                    "duration": 0.0833333333333357
                },
                {
                    "name": "G#1",
                    "midi": 32,
                    "time": 50.00000000000022,
                    "velocity": 0.30708661417322836,
                    "duration": 0.0833333333333357
                },
                {
                    "name": "F2",
                    "midi": 41,
                    "time": 50.083333333333556,
                    "velocity": 0.25984251968503935,
                    "duration": 0.0833333333333357
                },
                {
                    "name": "C#3",
                    "midi": 49,
                    "time": 50.16666666666689,
                    "velocity": 0.2677165354330709,
                    "duration": 0.0833333333333357
                },
                {
                    "name": "G#1",
                    "midi": 32,
                    "time": 50.25000000000023,
                    "velocity": 0.3228346456692913,
                    "duration": 0.0833333333333357
                },
                {
                    "name": "F2",
                    "midi": 41,
                    "time": 50.33333333333356,
                    "velocity": 0.2755905511811024,
                    "duration": 0.0833333333333357
                },
                {
                    "name": "C#3",
                    "midi": 49,
                    "time": 50.4166666666669,
                    "velocity": 0.2755905511811024,
                    "duration": 0.0833333333333357
                },
                {
                    "name": "G#1",
                    "midi": 32,
                    "time": 50.500000000000234,
                    "velocity": 0.33070866141732286,
                    "duration": 0.0833333333333357
                },
                {
                    "name": "F2",
                    "midi": 41,
                    "time": 50.58333333333357,
                    "velocity": 0.28346456692913385,
                    "duration": 0.0833333333333357
                },
                {
                    "name": "C#3",
                    "midi": 49,
                    "time": 50.666666666666906,
                    "velocity": 0.2755905511811024,
                    "duration": 0.0833333333333357
                },
                {
                    "name": "G#1",
                    "midi": 32,
                    "time": 50.75000000000024,
                    "velocity": 0.36220472440944884,
                    "duration": 0.0833333333333357
                },
                {
                    "name": "F2",
                    "midi": 41,
                    "time": 50.83333333333358,
                    "velocity": 0.29133858267716534,
                    "duration": 0.0833333333333357
                },
                {
                    "name": "C#3",
                    "midi": 49,
                    "time": 50.91666666666691,
                    "velocity": 0.31496062992125984,
                    "duration": 0.0833333333333357
                },
                {
                    "name": "A#1",
                    "midi": 34,
                    "time": 51.00000000000025,
                    "velocity": 0.4015748031496063,
                    "duration": 0.0833333333333357
                },
                {
                    "name": "F2",
                    "midi": 41,
                    "time": 51.083333333333584,
                    "velocity": 0.33858267716535434,
                    "duration": 0.0833333333333357
                },
                {
                    "name": "C#3",
                    "midi": 49,
                    "time": 51.16666666666692,
                    "velocity": 0.33858267716535434,
                    "duration": 0.0833333333333357
                },
                {
                    "name": "A#1",
                    "midi": 34,
                    "time": 51.250000000000256,
                    "velocity": 0.4330708661417323,
                    "duration": 0.0833333333333357
                },
                {
                    "name": "F2",
                    "midi": 41,
                    "time": 51.33333333333359,
                    "velocity": 0.3779527559055118,
                    "duration": 0.0833333333333357
                },
                {
                    "name": "C#3",
                    "midi": 49,
                    "time": 51.41666666666693,
                    "velocity": 0.4015748031496063,
                    "duration": 0.0833333333333357
                },
                {
                    "name": "A#1",
                    "midi": 34,
                    "time": 51.50000000000026,
                    "velocity": 0.48031496062992124,
                    "duration": 0.0833333333333357
                },
                {
                    "name": "F2",
                    "midi": 41,
                    "time": 51.5833333333336,
                    "velocity": 0.41732283464566927,
                    "duration": 0.0833333333333357
                },
                {
                    "name": "C#3",
                    "midi": 49,
                    "time": 51.666666666666934,
                    "velocity": 0.4330708661417323,
                    "duration": 0.0833333333333357
                },
                {
                    "name": "A#1",
                    "midi": 34,
                    "time": 51.75000000000027,
                    "velocity": 0.5196850393700787,
                    "duration": 0.0833333333333357
                },
                {
                    "name": "F2",
                    "midi": 41,
                    "time": 51.833333333333606,
                    "velocity": 0.44881889763779526,
                    "duration": 0.0833333333333357
                },
                {
                    "name": "C#3",
                    "midi": 49,
                    "time": 51.91666666666694,
                    "velocity": 0.4094488188976378,
                    "duration": 0.0833333333333357
                },
                {
                    "name": "A#1",
                    "midi": 34,
                    "time": 52.00000000000028,
                    "velocity": 0.4330708661417323,
                    "duration": 0.0833333333333357
                },
                {
                    "name": "F2",
                    "midi": 41,
                    "time": 52.08333333333361,
                    "velocity": 0.3543307086614173,
                    "duration": 0.0833333333333357
                },
                {
                    "name": "C#3",
                    "midi": 49,
                    "time": 52.16666666666695,
                    "velocity": 0.33070866141732286,
                    "duration": 0.0833333333333357
                },
                {
                    "name": "A#1",
                    "midi": 34,
                    "time": 52.250000000000284,
                    "velocity": 0.3937007874015748,
                    "duration": 0.0833333333333357
                },
                {
                    "name": "F2",
                    "midi": 41,
                    "time": 52.33333333333362,
                    "velocity": 0.3543307086614173,
                    "duration": 0.0833333333333357
                },
                {
                    "name": "C#3",
                    "midi": 49,
                    "time": 52.416666666666956,
                    "velocity": 0.3464566929133858,
                    "duration": 0.0833333333333357
                },
                {
                    "name": "F1",
                    "midi": 29,
                    "time": 52.50000000000029,
                    "velocity": 0.3464566929133858,
                    "duration": 0.0833333333333357
                },
                {
                    "name": "F2",
                    "midi": 41,
                    "time": 52.58333333333363,
                    "velocity": 0.28346456692913385,
                    "duration": 0.0833333333333357
                },
                {
                    "name": "C#3",
                    "midi": 49,
                    "time": 52.66666666666696,
                    "velocity": 0.2755905511811024,
                    "duration": 0.0833333333333357
                },
                {
                    "name": "F1",
                    "midi": 29,
                    "time": 52.7500000000003,
                    "velocity": 0.3228346456692913,
                    "duration": 0.0833333333333357
                },
                {
                    "name": "F2",
                    "midi": 41,
                    "time": 52.833333333333634,
                    "velocity": 0.2125984251968504,
                    "duration": 0.0833333333333357
                },
                {
                    "name": "C#3",
                    "midi": 49,
                    "time": 52.91666666666697,
                    "velocity": 0.2125984251968504,
                    "duration": 0.0833333333333357
                },
                {
                    "name": "F1",
                    "midi": 29,
                    "time": 53.000000000000306,
                    "velocity": 0.25984251968503935,
                    "duration": 0.0833333333333357
                },
                {
                    "name": "F2",
                    "midi": 41,
                    "time": 53.08333333333364,
                    "velocity": 0.25196850393700787,
                    "duration": 0.0833333333333357
                },
                {
                    "name": "C#3",
                    "midi": 49,
                    "time": 53.16666666666698,
                    "velocity": 0.2204724409448819,
                    "duration": 0.0833333333333357
                },
                {
                    "name": "A#1",
                    "midi": 34,
                    "time": 53.25000000000031,
                    "velocity": 0.29133858267716534,
                    "duration": 0.0833333333333357
                },
                {
                    "name": "F2",
                    "midi": 41,
                    "time": 53.33333333333365,
                    "velocity": 0.2047244094488189,
                    "duration": 0.0833333333333357
                },
                {
                    "name": "C#3",
                    "midi": 49,
                    "time": 53.416666666666984,
                    "velocity": 0.2047244094488189,
                    "duration": 0.0833333333333357
                },
                {
                    "name": "A#1",
                    "midi": 34,
                    "time": 53.50000000000032,
                    "velocity": 0.23622047244094488,
                    "duration": 0.25
                },
                {
                    "name": "F2",
                    "midi": 41,
                    "time": 53.75000000000032,
                    "velocity": 0.30708661417322836,
                    "duration": 0.5
                },
                {
                    "name": "F3",
                    "midi": 53,
                    "time": 53.75000000000032,
                    "velocity": 0.36220472440944884,
                    "duration": 0.5
                },
                {
                    "name": "G#3",
                    "midi": 56,
                    "time": 54.25000000000032,
                    "velocity": 0.3779527559055118,
                    "duration": 0.25
                },
                {
                    "name": "G#2",
                    "midi": 44,
                    "time": 54.25000000000032,
                    "velocity": 0.3779527559055118,
                    "duration": 0.25
                },
                {
                    "name": "F2",
                    "midi": 41,
                    "time": 54.50000000000032,
                    "velocity": 0.33070866141732286,
                    "duration": 0.5
                },
                {
                    "name": "F3",
                    "midi": 53,
                    "time": 54.50000000000032,
                    "velocity": 0.3937007874015748,
                    "duration": 0.5
                },
                {
                    "name": "C#2",
                    "midi": 37,
                    "time": 55.00000000000032,
                    "velocity": 0.33070866141732286,
                    "duration": 0.25
                },
                {
                    "name": "C#3",
                    "midi": 49,
                    "time": 55.00000000000032,
                    "velocity": 0.3937007874015748,
                    "duration": 0.25
                },
                {
                    "name": "G#1",
                    "midi": 32,
                    "time": 55.25000000000032,
                    "velocity": 0.30708661417322836,
                    "duration": 0.25
                },
                {
                    "name": "G#2",
                    "midi": 44,
                    "time": 55.25000000000032,
                    "velocity": 0.3700787401574803,
                    "duration": 0.25
                },
                {
                    "name": "C#2",
                    "midi": 37,
                    "time": 55.50000000000032,
                    "velocity": 0.3464566929133858,
                    "duration": 0.5
                },
                {
                    "name": "C#3",
                    "midi": 49,
                    "time": 55.50000000000032,
                    "velocity": 0.4015748031496063,
                    "duration": 0.5
                },
                {
                    "name": "F3",
                    "midi": 53,
                    "time": 56.00000000000032,
                    "velocity": 0.4645669291338583,
                    "duration": 0.25
                },
                {
                    "name": "F2",
                    "midi": 41,
                    "time": 56.00000000000032,
                    "velocity": 0.3858267716535433,
                    "duration": 0.25
                },
                {
                    "name": "G#2",
                    "midi": 44,
                    "time": 56.25000000000032,
                    "velocity": 0.4015748031496063,
                    "duration": 0.5
                },
                {
                    "name": "G#3",
                    "midi": 56,
                    "time": 56.25000000000032,
                    "velocity": 0.48031496062992124,
                    "duration": 0.5
                },
                {
                    "name": "F3",
                    "midi": 53,
                    "time": 56.75000000000032,
                    "velocity": 0.5511811023622047,
                    "duration": 0.25
                },
                {
                    "name": "F2",
                    "midi": 41,
                    "time": 56.75000000000032,
                    "velocity": 0.4645669291338583,
                    "duration": 0.25
                },
                {
                    "name": "C#3",
                    "midi": 49,
                    "time": 57.00000000000032,
                    "velocity": 0.6220472440944882,
                    "duration": 0.5
                },
                {
                    "name": "C#2",
                    "midi": 37,
                    "time": 57.00000000000032,
                    "velocity": 0.5275590551181102,
                    "duration": 0.5
                },
                {
                    "name": "A#1",
                    "midi": 34,
                    "time": 57.50000000000032,
                    "velocity": 0.48031496062992124,
                    "duration": 0.25
                },
                {
                    "name": "A#2",
                    "midi": 46,
                    "time": 57.50000000000032,
                    "velocity": 0.5748031496062992,
                    "duration": 0.25
                },
                {
                    "name": "F1",
                    "midi": 29,
                    "time": 57.75000000000032,
                    "velocity": 0.5039370078740157,
                    "duration": 0.5
                },
                {
                    "name": "F2",
                    "midi": 41,
                    "time": 57.75000000000032,
                    "velocity": 0.6062992125984252,
                    "duration": 0.5
                },
                {
                    "name": "A#1",
                    "midi": 34,
                    "time": 58.25000000000032,
                    "velocity": 0.4566929133858268,
                    "duration": 0.25
                },
                {
                    "name": "A#2",
                    "midi": 46,
                    "time": 58.25000000000032,
                    "velocity": 0.5433070866141733,
                    "duration": 0.25
                },
                {
                    "name": "C#2",
                    "midi": 37,
                    "time": 58.50000000000032,
                    "velocity": 0.4251968503937008,
                    "duration": 0.5
                },
                {
                    "name": "C#3",
                    "midi": 49,
                    "time": 58.50000000000032,
                    "velocity": 0.5039370078740157,
                    "duration": 0.5
                },
                {
                    "name": "F2",
                    "midi": 41,
                    "time": 59.00000000000032,
                    "velocity": 0.29133858267716534,
                    "duration": 0.25
                },
                {
                    "name": "F3",
                    "midi": 53,
                    "time": 59.00000000000032,
                    "velocity": 0.3543307086614173,
                    "duration": 0.25
                },
                {
                    "name": "A#1",
                    "midi": 34,
                    "time": 59.25000000000032,
                    "velocity": 0.28346456692913385,
                    "duration": 0.25
                },
                {
                    "name": "A#2",
                    "midi": 46,
                    "time": 59.25000000000032,
                    "velocity": 0.33858267716535434,
                    "duration": 0.25
                },
                {
                    "name": "C#4",
                    "midi": 61,
                    "time": 60.00000000000032,
                    "velocity": 0.2283464566929134,
                    "duration": 0.0833333333333357
                },
                {
                    "name": "A#3",
                    "midi": 58,
                    "time": 60.083333333333655,
                    "velocity": 0.15748031496062992,
                    "duration": 0.0833333333333357
                },
                {
                    "name": "F3",
                    "midi": 53,
                    "time": 60.16666666666699,
                    "velocity": 0.15748031496062992,
                    "duration": 0.0833333333333357
                },
                {
                    "name": "C#4",
                    "midi": 61,
                    "time": 60.25000000000033,
                    "velocity": 0.1889763779527559,
                    "duration": 0.0833333333333357
                },
                {
                    "name": "A#3",
                    "midi": 58,
                    "time": 60.33333333333366,
                    "velocity": 0.15748031496062992,
                    "duration": 0.0833333333333357
                },
                {
                    "name": "F3",
                    "midi": 53,
                    "time": 60.416666666667,
                    "velocity": 0.15748031496062992,
                    "duration": 0.0833333333333357
                },
                {
                    "name": "F4",
                    "midi": 65,
                    "time": 60.500000000000334,
                    "velocity": 0.1889763779527559,
                    "duration": 0.0833333333333357
                },
                {
                    "name": "C#4",
                    "midi": 61,
                    "time": 60.58333333333367,
                    "velocity": 0.15748031496062992,
                    "duration": 0.0833333333333357
                },
                {
                    "name": "F3",
                    "midi": 53,
                    "time": 60.666666666667005,
                    "velocity": 0.15748031496062992,
                    "duration": 0.0833333333333357
                },
                {
                    "name": "A#3",
                    "midi": 58,
                    "time": 60.75000000000034,
                    "velocity": 0.33070866141732286,
                    "duration": 0.0625
                },
                {
                    "name": "C#4",
                    "midi": 61,
                    "time": 61.00000000000034,
                    "velocity": 0.29133858267716534,
                    "duration": 0.0625
                },
                {
                    "name": "C4",
                    "midi": 60,
                    "time": 61.25000000000034,
                    "velocity": 0.33070866141732286,
                    "duration": 0.0625
                },
                {
                    "name": "F3",
                    "midi": 53,
                    "time": 61.50000000000034,
                    "velocity": 0.28346456692913385,
                    "duration": 0.0625
                },
                {
                    "name": "F4",
                    "midi": 65,
                    "time": 61.75000000000034,
                    "velocity": 0.33070866141732286,
                    "duration": 0.0625
                },
                {
                    "name": "D#4",
                    "midi": 63,
                    "time": 62.00000000000034,
                    "velocity": 0.2992125984251969,
                    "duration": 0.0625
                },
                {
                    "name": "C#4",
                    "midi": 61,
                    "time": 62.25000000000034,
                    "velocity": 0.2992125984251969,
                    "duration": 0.0625
                },
                {
                    "name": "C4",
                    "midi": 60,
                    "time": 62.50000000000034,
                    "velocity": 0.2992125984251969,
                    "duration": 0.0625
                },
                {
                    "name": "A#3",
                    "midi": 58,
                    "time": 62.75000000000034,
                    "velocity": 0.33070866141732286,
                    "duration": 0.0625
                },
                {
                    "name": "C#4",
                    "midi": 61,
                    "time": 63.00000000000034,
                    "velocity": 0.28346456692913385,
                    "duration": 0.0625
                },
                {
                    "name": "C4",
                    "midi": 60,
                    "time": 63.25000000000034,
                    "velocity": 0.33070866141732286,
                    "duration": 0.0625
                },
                {
                    "name": "G#3",
                    "midi": 56,
                    "time": 63.50000000000034,
                    "velocity": 0.2755905511811024,
                    "duration": 0.0625
                },
                {
                    "name": "C4",
                    "midi": 60,
                    "time": 63.75000000000034,
                    "velocity": 0.33070866141732286,
                    "duration": 0.0625
                },
                {
                    "name": "G3",
                    "midi": 55,
                    "time": 64.00000000000034,
                    "velocity": 0.2755905511811024,
                    "duration": 0.0625
                },
                {
                    "name": "F3",
                    "midi": 53,
                    "time": 64.25000000000034,
                    "velocity": 0.30708661417322836,
                    "duration": 0.5
                },
                {
                    "name": "F2",
                    "midi": 41,
                    "time": 64.75000000000034,
                    "velocity": 0.36220472440944884,
                    "duration": 0.1875
                },
                {
                    "name": "F3",
                    "midi": 53,
                    "time": 64.75000000000034,
                    "velocity": 0.4330708661417323,
                    "duration": 0.1875
                },
                {
                    "name": "G#2",
                    "midi": 44,
                    "time": 65.00000000000034,
                    "velocity": 0.3228346456692913,
                    "duration": 0.1875
                },
                {
                    "name": "G#3",
                    "midi": 56,
                    "time": 65.00000000000034,
                    "velocity": 0.3858267716535433,
                    "duration": 0.1875
                },
                {
                    "name": "G2",
                    "midi": 43,
                    "time": 65.25000000000034,
                    "velocity": 0.3779527559055118,
                    "duration": 0.1875
                },
                {
                    "name": "G3",
                    "midi": 55,
                    "time": 65.25000000000034,
                    "velocity": 0.44881889763779526,
                    "duration": 0.1875
                },
                {
                    "name": "C2",
                    "midi": 36,
                    "time": 65.50000000000034,
                    "velocity": 0.3228346456692913,
                    "duration": 0.1875
                },
                {
                    "name": "C3",
                    "midi": 48,
                    "time": 65.50000000000034,
                    "velocity": 0.3937007874015748,
                    "duration": 0.1875
                },
                {
                    "name": "C3",
                    "midi": 48,
                    "time": 65.75000000000034,
                    "velocity": 0.4015748031496063,
                    "duration": 0.1875
                },
                {
                    "name": "C4",
                    "midi": 60,
                    "time": 65.75000000000034,
                    "velocity": 0.48031496062992124,
                    "duration": 0.1875
                },
                {
                    "name": "A#2",
                    "midi": 46,
                    "time": 66.00000000000034,
                    "velocity": 0.3779527559055118,
                    "duration": 0.1875
                },
                {
                    "name": "A#3",
                    "midi": 58,
                    "time": 66.00000000000034,
                    "velocity": 0.44881889763779526,
                    "duration": 0.1875
                },
                {
                    "name": "G#2",
                    "midi": 44,
                    "time": 66.25000000000034,
                    "velocity": 0.3858267716535433,
                    "duration": 0.1875
                },
                {
                    "name": "G#3",
                    "midi": 56,
                    "time": 66.25000000000034,
                    "velocity": 0.4566929133858268,
                    "duration": 0.1875
                },
                {
                    "name": "G2",
                    "midi": 43,
                    "time": 66.50000000000034,
                    "velocity": 0.3937007874015748,
                    "duration": 0.1875
                },
                {
                    "name": "G3",
                    "midi": 55,
                    "time": 66.50000000000034,
                    "velocity": 0.47244094488188976,
                    "duration": 0.1875
                },
                {
                    "name": "F2",
                    "midi": 41,
                    "time": 66.75000000000034,
                    "velocity": 0.44881889763779526,
                    "duration": 0.1875
                },
                {
                    "name": "F3",
                    "midi": 53,
                    "time": 66.75000000000034,
                    "velocity": 0.5433070866141733,
                    "duration": 0.1875
                },
                {
                    "name": "G#2",
                    "midi": 44,
                    "time": 67.00000000000034,
                    "velocity": 0.3937007874015748,
                    "duration": 0.1875
                },
                {
                    "name": "G#3",
                    "midi": 56,
                    "time": 67.00000000000034,
                    "velocity": 0.47244094488188976,
                    "duration": 0.1875
                },
                {
                    "name": "G2",
                    "midi": 43,
                    "time": 67.25000000000034,
                    "velocity": 0.47244094488188976,
                    "duration": 0.1875
                },
                {
                    "name": "G3",
                    "midi": 55,
                    "time": 67.25000000000034,
                    "velocity": 0.5748031496062992,
                    "duration": 0.1875
                },
                {
                    "name": "C3",
                    "midi": 48,
                    "time": 67.50000000000034,
                    "velocity": 0.3937007874015748,
                    "duration": 0.1875
                },
                {
                    "name": "C4",
                    "midi": 60,
                    "time": 67.50000000000034,
                    "velocity": 0.48031496062992124,
                    "duration": 0.1875
                },
                {
                    "name": "A2",
                    "midi": 45,
                    "time": 67.75000000000034,
                    "velocity": 0.49606299212598426,
                    "duration": 0.1875
                },
                {
                    "name": "A3",
                    "midi": 57,
                    "time": 67.75000000000034,
                    "velocity": 0.5905511811023622,
                    "duration": 0.1875
                },
                {
                    "name": "F2",
                    "midi": 41,
                    "time": 68.00000000000034,
                    "velocity": 0.4251968503937008,
                    "duration": 0.1875
                },
                {
                    "name": "F3",
                    "midi": 53,
                    "time": 68.00000000000034,
                    "velocity": 0.5118110236220472,
                    "duration": 0.1875
                },
                {
                    "name": "A#2",
                    "midi": 46,
                    "time": 68.25000000000034,
                    "velocity": 0.5196850393700787,
                    "duration": 0.1875
                },
                {
                    "name": "A#3",
                    "midi": 58,
                    "time": 68.25000000000034,
                    "velocity": 0.6220472440944882,
                    "duration": 0.1875
                },
                {
                    "name": "C3",
                    "midi": 48,
                    "time": 68.50000000000034,
                    "velocity": 0.4409448818897638,
                    "duration": 0.1875
                },
                {
                    "name": "C4",
                    "midi": 60,
                    "time": 68.50000000000034,
                    "velocity": 0.5354330708661418,
                    "duration": 0.1875
                },
                {
                    "name": "C#3",
                    "midi": 49,
                    "time": 68.75000000000034,
                    "velocity": 0.6141732283464567,
                    "duration": 0.125
                },
                {
                    "name": "C#4",
                    "midi": 61,
                    "time": 68.87500000000034,
                    "velocity": 0.5433070866141733,
                    "duration": 0.125
                },
                {
                    "name": "A#2",
                    "midi": 46,
                    "time": 69.00000000000034,
                    "velocity": 0.6141732283464567,
                    "duration": 0.125
                },
                {
                    "name": "A#3",
                    "midi": 58,
                    "time": 69.12500000000034,
                    "velocity": 0.5354330708661418,
                    "duration": 0.125
                },
                {
                    "name": "F2",
                    "midi": 41,
                    "time": 69.25000000000034,
                    "velocity": 0.6141732283464567,
                    "duration": 0.125
                },
                {
                    "name": "F3",
                    "midi": 53,
                    "time": 69.37500000000034,
                    "velocity": 0.5275590551181102,
                    "duration": 0.125
                },
                {
                    "name": "D#2",
                    "midi": 39,
                    "time": 69.50000000000034,
                    "velocity": 0.6141732283464567,
                    "duration": 0.125
                },
                {
                    "name": "D#3",
                    "midi": 51,
                    "time": 69.62500000000034,
                    "velocity": 0.5196850393700787,
                    "duration": 0.125
                },
                {
                    "name": "C#2",
                    "midi": 37,
                    "time": 69.75000000000034,
                    "velocity": 0.6141732283464567,
                    "duration": 0.125
                },
                {
                    "name": "C#3",
                    "midi": 49,
                    "time": 69.87500000000034,
                    "velocity": 0.5275590551181102,
                    "duration": 0.125
                },
                {
                    "name": "C2",
                    "midi": 36,
                    "time": 70.00000000000034,
                    "velocity": 0.6141732283464567,
                    "duration": 0.125
                },
                {
                    "name": "C3",
                    "midi": 48,
                    "time": 70.12500000000034,
                    "velocity": 0.5275590551181102,
                    "duration": 0.125
                },
                {
                    "name": "A#1",
                    "midi": 34,
                    "time": 70.25000000000034,
                    "velocity": 0.5748031496062992,
                    "duration": 0.125
                },
                {
                    "name": "A#2",
                    "midi": 46,
                    "time": 70.37500000000034,
                    "velocity": 0.4881889763779528,
                    "duration": 0.125
                },
                {
                    "name": "A1",
                    "midi": 33,
                    "time": 70.50000000000034,
                    "velocity": 0.5748031496062992,
                    "duration": 0.125
                },
                {
                    "name": "A2",
                    "midi": 45,
                    "time": 70.62500000000034,
                    "velocity": 0.48031496062992124,
                    "duration": 0.125
                },
                {
                    "name": "A#1",
                    "midi": 34,
                    "time": 70.75000000000034,
                    "velocity": 0.5905511811023622,
                    "duration": 0.125
                },
                {
                    "name": "A#2",
                    "midi": 46,
                    "time": 70.87500000000034,
                    "velocity": 0.49606299212598426,
                    "duration": 0.125
                },
                {
                    "name": "A#1",
                    "midi": 34,
                    "time": 71.00000000000034,
                    "velocity": 0.5748031496062992,
                    "duration": 0.125
                },
                {
                    "name": "A#2",
                    "midi": 46,
                    "time": 71.12500000000034,
                    "velocity": 0.5118110236220472,
                    "duration": 0.125
                },
                {
                    "name": "A1",
                    "midi": 33,
                    "time": 71.25000000000034,
                    "velocity": 0.5826771653543307,
                    "duration": 0.125
                },
                {
                    "name": "A2",
                    "midi": 45,
                    "time": 71.37500000000034,
                    "velocity": 0.4881889763779528,
                    "duration": 0.125
                },
                {
                    "name": "D#2",
                    "midi": 39,
                    "time": 71.50000000000034,
                    "velocity": 0.5748031496062992,
                    "duration": 0.125
                },
                {
                    "name": "D#3",
                    "midi": 51,
                    "time": 71.62500000000034,
                    "velocity": 0.47244094488188976,
                    "duration": 0.125
                },
                {
                    "name": "C#2",
                    "midi": 37,
                    "time": 71.75000000000034,
                    "velocity": 0.5590551181102362,
                    "duration": 0.125
                },
                {
                    "name": "C#3",
                    "midi": 49,
                    "time": 71.87500000000034,
                    "velocity": 0.48031496062992124,
                    "duration": 0.125
                },
                {
                    "name": "A#1",
                    "midi": 34,
                    "time": 72.00000000000034,
                    "velocity": 0.5511811023622047,
                    "duration": 0.125
                },
                {
                    "name": "A#2",
                    "midi": 46,
                    "time": 72.12500000000034,
                    "velocity": 0.49606299212598426,
                    "duration": 0.125
                },
                {
                    "name": "F2",
                    "midi": 41,
                    "time": 72.25000000000034,
                    "velocity": 0.5905511811023622,
                    "duration": 0.5
                },
                {
                    "name": "F3",
                    "midi": 53,
                    "time": 72.25000000000034,
                    "velocity": 0.5905511811023622,
                    "duration": 0.5
                },
                {
                    "name": "C#4",
                    "midi": 61,
                    "time": 72.75000000000034,
                    "velocity": 0.5590551181102362,
                    "duration": 0.125
                },
                {
                    "name": "C#5",
                    "midi": 73,
                    "time": 72.87500000000034,
                    "velocity": 0.48031496062992124,
                    "duration": 0.125
                },
                {
                    "name": "A#3",
                    "midi": 58,
                    "time": 73.00000000000034,
                    "velocity": 0.5511811023622047,
                    "duration": 0.125
                },
                {
                    "name": "A#4",
                    "midi": 70,
                    "time": 73.12500000000034,
                    "velocity": 0.49606299212598426,
                    "duration": 0.125
                },
                {
                    "name": "F5",
                    "midi": 77,
                    "time": 73.50000000000034,
                    "velocity": 0.6299212598425197,
                    "duration": 0.25
                },
                {
                    "name": "F4",
                    "midi": 65,
                    "time": 74.00000000000034,
                    "velocity": 0.6299212598425197,
                    "duration": 0.25
                },
                {
                    "name": "F3",
                    "midi": 53,
                    "time": 74.50000000000034,
                    "velocity": 0.6299212598425197,
                    "duration": 0.25
                },
                {
                    "name": "F2",
                    "midi": 41,
                    "time": 75.00000000000034,
                    "velocity": 0.6299212598425197,
                    "duration": 0.25
                },
                {
                    "name": "F1",
                    "midi": 29,
                    "time": 75.50000000000034,
                    "velocity": 0.7007874015748031,
                    "duration": 1
                },
                {
                    "name": "F1",
                    "midi": 29,
                    "time": 76.50000000000034,
                    "velocity": 0.5118110236220472,
                    "duration": 0.0833333333333286
                },
                {
                    "name": "G1",
                    "midi": 31,
                    "time": 76.58333333333367,
                    "velocity": 0.5118110236220472,
                    "duration": 0.0833333333333286
                },
                {
                    "name": "A1",
                    "midi": 33,
                    "time": 76.666666666667,
                    "velocity": 0.5196850393700787,
                    "duration": 0.0833333333333286
                },
                {
                    "name": "A#1",
                    "midi": 34,
                    "time": 76.75000000000033,
                    "velocity": 0.5196850393700787,
                    "duration": 0.125
                },
                {
                    "name": "C2",
                    "midi": 36,
                    "time": 76.87500000000033,
                    "velocity": 0.5275590551181102,
                    "duration": 0.125
                },
                {
                    "name": "D2",
                    "midi": 38,
                    "time": 77.00000000000033,
                    "velocity": 0.5354330708661418,
                    "duration": 0.125
                },
                {
                    "name": "E2",
                    "midi": 40,
                    "time": 77.12500000000033,
                    "velocity": 0.5433070866141733,
                    "duration": 0.125
                },
                {
                    "name": "F2",
                    "midi": 41,
                    "time": 77.25000000000033,
                    "velocity": 0.5433070866141733,
                    "duration": 0.0833333333333286
                },
                {
                    "name": "G2",
                    "midi": 43,
                    "time": 77.33333333333366,
                    "velocity": 0.5511811023622047,
                    "duration": 0.0833333333333286
                },
                {
                    "name": "A2",
                    "midi": 45,
                    "time": 77.41666666666698,
                    "velocity": 0.5511811023622047,
                    "duration": 0.0833333333333286
                },
                {
                    "name": "A#2",
                    "midi": 46,
                    "time": 77.50000000000031,
                    "velocity": 0.5590551181102362,
                    "duration": 0.125
                },
                {
                    "name": "C3",
                    "midi": 48,
                    "time": 77.62500000000031,
                    "velocity": 0.5669291338582677,
                    "duration": 0.125
                },
                {
                    "name": "D3",
                    "midi": 50,
                    "time": 77.75000000000031,
                    "velocity": 0.5748031496062992,
                    "duration": 0.125
                },
                {
                    "name": "E3",
                    "midi": 52,
                    "time": 77.87500000000031,
                    "velocity": 0.5748031496062992,
                    "duration": 0.125
                },
                {
                    "name": "F3",
                    "midi": 53,
                    "time": 78.00000000000031,
                    "velocity": 0.5826771653543307,
                    "duration": 0.0833333333333286
                },
                {
                    "name": "G3",
                    "midi": 55,
                    "time": 78.08333333333364,
                    "velocity": 0.5905511811023622,
                    "duration": 0.0833333333333286
                },
                {
                    "name": "A3",
                    "midi": 57,
                    "time": 78.16666666666697,
                    "velocity": 0.5905511811023622,
                    "duration": 0.0833333333333286
                },
                {
                    "name": "A#3",
                    "midi": 58,
                    "time": 78.2500000000003,
                    "velocity": 0.5984251968503937,
                    "duration": 0.125
                },
                {
                    "name": "C4",
                    "midi": 60,
                    "time": 78.3750000000003,
                    "velocity": 0.6062992125984252,
                    "duration": 0.125
                },
                {
                    "name": "D4",
                    "midi": 62,
                    "time": 78.5000000000003,
                    "velocity": 0.6062992125984252,
                    "duration": 0.125
                },
                {
                    "name": "E4",
                    "midi": 64,
                    "time": 78.6250000000003,
                    "velocity": 0.6141732283464567,
                    "duration": 0.125
                },
                {
                    "name": "F4",
                    "midi": 65,
                    "time": 80.2500000000003,
                    "velocity": 0.47244094488188976,
                    "duration": 0.0833333333333286
                },
                {
                    "name": "G4",
                    "midi": 67,
                    "time": 80.33333333333363,
                    "velocity": 0.48031496062992124,
                    "duration": 0.0833333333333286
                },
                {
                    "name": "A4",
                    "midi": 69,
                    "time": 80.41666666666696,
                    "velocity": 0.4881889763779528,
                    "duration": 0.0833333333333286
                },
                {
                    "name": "A#4",
                    "midi": 70,
                    "time": 80.50000000000028,
                    "velocity": 0.49606299212598426,
                    "duration": 0.125
                },
                {
                    "name": "C5",
                    "midi": 72,
                    "time": 80.62500000000028,
                    "velocity": 0.5039370078740157,
                    "duration": 0.125
                },
                {
                    "name": "D5",
                    "midi": 74,
                    "time": 80.75000000000028,
                    "velocity": 0.5118110236220472,
                    "duration": 0.125
                },
                {
                    "name": "E5",
                    "midi": 76,
                    "time": 80.87500000000028,
                    "velocity": 0.5275590551181102,
                    "duration": 0.125
                },
                {
                    "name": "F5",
                    "midi": 77,
                    "time": 81.00000000000028,
                    "velocity": 0.5354330708661418,
                    "duration": 0.125
                },
                {
                    "name": "F3",
                    "midi": 53,
                    "time": 81.25000000000028,
                    "velocity": 0.5196850393700787,
                    "duration": 0.0625
                },
                {
                    "name": "D#4",
                    "midi": 63,
                    "time": 81.31250000000028,
                    "velocity": 0.4566929133858268,
                    "duration": 0.0625
                },
                {
                    "name": "F3",
                    "midi": 53,
                    "time": 81.37500000000028,
                    "velocity": 0.5196850393700787,
                    "duration": 0.0625
                },
                {
                    "name": "D#4",
                    "midi": 63,
                    "time": 81.43750000000028,
                    "velocity": 0.4566929133858268,
                    "duration": 0.0625
                },
                {
                    "name": "F3",
                    "midi": 53,
                    "time": 81.50000000000028,
                    "velocity": 0.5196850393700787,
                    "duration": 0.0625
                },
                {
                    "name": "D#4",
                    "midi": 63,
                    "time": 81.56250000000028,
                    "velocity": 0.4566929133858268,
                    "duration": 0.0625
                },
                {
                    "name": "F3",
                    "midi": 53,
                    "time": 81.62500000000028,
                    "velocity": 0.5196850393700787,
                    "duration": 0.0625
                },
                {
                    "name": "D#4",
                    "midi": 63,
                    "time": 81.68750000000028,
                    "velocity": 0.4566929133858268,
                    "duration": 0.0625
                },
                {
                    "name": "F3",
                    "midi": 53,
                    "time": 81.75000000000028,
                    "velocity": 0.5196850393700787,
                    "duration": 0.0625
                },
                {
                    "name": "D#4",
                    "midi": 63,
                    "time": 81.81250000000028,
                    "velocity": 0.44881889763779526,
                    "duration": 0.0625
                },
                {
                    "name": "F3",
                    "midi": 53,
                    "time": 81.87500000000028,
                    "velocity": 0.5118110236220472,
                    "duration": 0.0625
                },
                {
                    "name": "D#4",
                    "midi": 63,
                    "time": 81.93750000000028,
                    "velocity": 0.4566929133858268,
                    "duration": 0.0625
                },
                {
                    "name": "D4",
                    "midi": 62,
                    "time": 82.75000000000028,
                    "velocity": 0.31496062992125984,
                    "duration": 0.1875
                },
                {
                    "name": "A#3",
                    "midi": 58,
                    "time": 82.75000000000028,
                    "velocity": 0.2677165354330709,
                    "duration": 0.1875
                },
                {
                    "name": "F3",
                    "midi": 53,
                    "time": 82.93750000000028,
                    "velocity": 0.2677165354330709,
                    "duration": 0.056250000000005684
                },
                {
                    "name": "C4",
                    "midi": 60,
                    "time": 82.93750000000028,
                    "velocity": 0.31496062992125984,
                    "duration": 0.056250000000005684
                },
                {
                    "name": "C4",
                    "midi": 60,
                    "time": 83.00000000000028,
                    "velocity": 0.3937007874015748,
                    "duration": 0.25
                },
                {
                    "name": "A3",
                    "midi": 57,
                    "time": 83.00000000000028,
                    "velocity": 0.33070866141732286,
                    "duration": 0.25
                },
                {
                    "name": "D4",
                    "midi": 62,
                    "time": 83.25000000000028,
                    "velocity": 0.3464566929133858,
                    "duration": 0.125
                },
                {
                    "name": "A#3",
                    "midi": 58,
                    "time": 83.25000000000028,
                    "velocity": 0.29133858267716534,
                    "duration": 0.125
                },
                {
                    "name": "A#3",
                    "midi": 58,
                    "time": 83.50000000000028,
                    "velocity": 0.31496062992125984,
                    "duration": 0.1875
                },
                {
                    "name": "G3",
                    "midi": 55,
                    "time": 83.50000000000028,
                    "velocity": 0.2677165354330709,
                    "duration": 0.1875
                },
                {
                    "name": "D3",
                    "midi": 50,
                    "time": 83.68750000000028,
                    "velocity": 0.2677165354330709,
                    "duration": 0.056250000000005684
                },
                {
                    "name": "A3",
                    "midi": 57,
                    "time": 83.68750000000028,
                    "velocity": 0.31496062992125984,
                    "duration": 0.056250000000005684
                },
                {
                    "name": "A3",
                    "midi": 57,
                    "time": 83.75000000000028,
                    "velocity": 0.3937007874015748,
                    "duration": 0.25
                },
                {
                    "name": "F#3",
                    "midi": 54,
                    "time": 83.75000000000028,
                    "velocity": 0.33070866141732286,
                    "duration": 0.25
                },
                {
                    "name": "A#3",
                    "midi": 58,
                    "time": 84.00000000000028,
                    "velocity": 0.3464566929133858,
                    "duration": 0.125
                },
                {
                    "name": "G3",
                    "midi": 55,
                    "time": 84.00000000000028,
                    "velocity": 0.29133858267716534,
                    "duration": 0.125
                },
                {
                    "name": "G3",
                    "midi": 55,
                    "time": 84.25000000000028,
                    "velocity": 0.33070866141732286,
                    "duration": 0.1875
                },
                {
                    "name": "D#3",
                    "midi": 51,
                    "time": 84.25000000000028,
                    "velocity": 0.2755905511811024,
                    "duration": 0.1875
                },
                {
                    "name": "A#2",
                    "midi": 46,
                    "time": 84.43750000000028,
                    "velocity": 0.28346456692913385,
                    "duration": 0.056250000000005684
                },
                {
                    "name": "F3",
                    "midi": 53,
                    "time": 84.43750000000028,
                    "velocity": 0.33070866141732286,
                    "duration": 0.056250000000005684
                },
                {
                    "name": "F3",
                    "midi": 53,
                    "time": 84.50000000000028,
                    "velocity": 0.4251968503937008,
                    "duration": 0.25
                },
                {
                    "name": "D3",
                    "midi": 50,
                    "time": 84.50000000000028,
                    "velocity": 0.3543307086614173,
                    "duration": 0.25
                },
                {
                    "name": "G3",
                    "midi": 55,
                    "time": 84.75000000000028,
                    "velocity": 0.3779527559055118,
                    "duration": 0.125
                },
                {
                    "name": "D#3",
                    "midi": 51,
                    "time": 84.75000000000028,
                    "velocity": 0.3228346456692913,
                    "duration": 0.125
                },
                {
                    "name": "G3",
                    "midi": 55,
                    "time": 85.00000000000028,
                    "velocity": 0.3543307086614173,
                    "duration": 0.1875
                },
                {
                    "name": "D#3",
                    "midi": 51,
                    "time": 85.00000000000028,
                    "velocity": 0.2992125984251969,
                    "duration": 0.1875
                },
                {
                    "name": "C3",
                    "midi": 48,
                    "time": 85.18750000000028,
                    "velocity": 0.30708661417322836,
                    "duration": 0.056250000000005684
                },
                {
                    "name": "F3",
                    "midi": 53,
                    "time": 85.18750000000028,
                    "velocity": 0.36220472440944884,
                    "duration": 0.056250000000005684
                },
                {
                    "name": "F3",
                    "midi": 53,
                    "time": 85.25000000000028,
                    "velocity": 0.4566929133858268,
                    "duration": 0.375
                },
                {
                    "name": "C3",
                    "midi": 48,
                    "time": 85.25000000000028,
                    "velocity": 0.3858267716535433,
                    "duration": 0.25
                },
                {
                    "name": "D3",
                    "midi": 50,
                    "time": 85.50000000000028,
                    "velocity": 0.3464566929133858,
                    "duration": 0.125
                },
                {
                    "name": "F3",
                    "midi": 53,
                    "time": 85.75000000000028,
                    "velocity": 0.3228346456692913,
                    "duration": 0.25
                },
                {
                    "name": "D3",
                    "midi": 50,
                    "time": 85.75000000000028,
                    "velocity": 0.3858267716535433,
                    "duration": 0.1875
                },
                {
                    "name": "A2",
                    "midi": 45,
                    "time": 85.93750000000028,
                    "velocity": 0.33070866141732286,
                    "duration": 0.056250000000005684
                },
                {
                    "name": "F3",
                    "midi": 53,
                    "time": 86.00000000000028,
                    "velocity": 0.5039370078740157,
                    "duration": 0.375
                },
                {
                    "name": "A2",
                    "midi": 45,
                    "time": 86.00000000000028,
                    "velocity": 0.41732283464566927,
                    "duration": 0.25
                },
                {
                    "name": "G#2",
                    "midi": 44,
                    "time": 86.25000000000028,
                    "velocity": 0.3779527559055118,
                    "duration": 0.125
                },
                {
                    "name": "G#2",
                    "midi": 44,
                    "time": 86.50000000000028,
                    "velocity": 0.3543307086614173,
                    "duration": 0.1875
                },
                {
                    "name": "F3",
                    "midi": 53,
                    "time": 86.50000000000028,
                    "velocity": 0.41732283464566927,
                    "duration": 0.1875
                },
                {
                    "name": "G2",
                    "midi": 43,
                    "time": 86.68750000000028,
                    "velocity": 0.36220472440944884,
                    "duration": 0.056250000000005684
                },
                {
                    "name": "D#3",
                    "midi": 51,
                    "time": 86.68750000000028,
                    "velocity": 0.36220472440944884,
                    "duration": 0.056250000000005684
                },
                {
                    "name": "D#3",
                    "midi": 51,
                    "time": 86.75000000000028,
                    "velocity": 0.5590551181102362,
                    "duration": 0.25
                },
                {
                    "name": "G2",
                    "midi": 43,
                    "time": 86.75000000000028,
                    "velocity": 0.4645669291338583,
                    "duration": 0.25
                },
                {
                    "name": "C#3",
                    "midi": 49,
                    "time": 87.00000000000028,
                    "velocity": 0.4409448818897638,
                    "duration": 0.0625
                },
                {
                    "name": "F2",
                    "midi": 41,
                    "time": 87.00000000000028,
                    "velocity": 0.3858267716535433,
                    "duration": 0.0625
                },
                {
                    "name": "E2",
                    "midi": 40,
                    "time": 87.25000000000028,
                    "velocity": 0.4566929133858268,
                    "duration": 0.0625
                },
                {
                    "name": "C3",
                    "midi": 48,
                    "time": 87.25000000000028,
                    "velocity": 0.4881889763779528,
                    "duration": 0.0625
                },
                {
                    "name": "F2",
                    "midi": 41,
                    "time": 87.50000000000028,
                    "velocity": 0.4566929133858268,
                    "duration": 0.125
                },
                {
                    "name": "F3",
                    "midi": 53,
                    "time": 87.50000000000028,
                    "velocity": 0.4881889763779528,
                    "duration": 0.125
                },
                {
                    "name": "D5",
                    "midi": 74,
                    "time": 88.00000000000028,
                    "velocity": 0.31496062992125984,
                    "duration": 0.1875
                },
                {
                    "name": "A#4",
                    "midi": 70,
                    "time": 88.00000000000028,
                    "velocity": 0.2677165354330709,
                    "duration": 0.1875
                },
                {
                    "name": "F4",
                    "midi": 65,
                    "time": 88.18750000000028,
                    "velocity": 0.2677165354330709,
                    "duration": 0.056250000000005684
                },
                {
                    "name": "C5",
                    "midi": 72,
                    "time": 88.18750000000028,
                    "velocity": 0.31496062992125984,
                    "duration": 0.056250000000005684
                },
                {
                    "name": "C5",
                    "midi": 72,
                    "time": 88.25000000000028,
                    "velocity": 0.3937007874015748,
                    "duration": 0.25
                },
                {
                    "name": "A4",
                    "midi": 69,
                    "time": 88.25000000000028,
                    "velocity": 0.33070866141732286,
                    "duration": 0.25
                },
                {
                    "name": "D5",
                    "midi": 74,
                    "time": 88.50000000000028,
                    "velocity": 0.3464566929133858,
                    "duration": 0.125
                },
                {
                    "name": "A#4",
                    "midi": 70,
                    "time": 88.50000000000028,
                    "velocity": 0.29133858267716534,
                    "duration": 0.125
                },
                {
                    "name": "A#4",
                    "midi": 70,
                    "time": 88.75000000000028,
                    "velocity": 0.31496062992125984,
                    "duration": 0.1875
                },
                {
                    "name": "G4",
                    "midi": 67,
                    "time": 88.75000000000028,
                    "velocity": 0.2677165354330709,
                    "duration": 0.1875
                },
                {
                    "name": "D4",
                    "midi": 62,
                    "time": 88.93750000000028,
                    "velocity": 0.2677165354330709,
                    "duration": 0.056250000000005684
                },
                {
                    "name": "A4",
                    "midi": 69,
                    "time": 88.93750000000028,
                    "velocity": 0.31496062992125984,
                    "duration": 0.056250000000005684
                },
                {
                    "name": "A4",
                    "midi": 69,
                    "time": 89.00000000000028,
                    "velocity": 0.3937007874015748,
                    "duration": 0.25
                },
                {
                    "name": "F#4",
                    "midi": 66,
                    "time": 89.00000000000028,
                    "velocity": 0.33070866141732286,
                    "duration": 0.25
                },
                {
                    "name": "A#4",
                    "midi": 70,
                    "time": 89.25000000000028,
                    "velocity": 0.3464566929133858,
                    "duration": 0.125
                },
                {
                    "name": "G4",
                    "midi": 67,
                    "time": 89.25000000000028,
                    "velocity": 0.29133858267716534,
                    "duration": 0.125
                },
                {
                    "name": "G4",
                    "midi": 67,
                    "time": 89.50000000000028,
                    "velocity": 0.33070866141732286,
                    "duration": 0.1875
                },
                {
                    "name": "D#4",
                    "midi": 63,
                    "time": 89.50000000000028,
                    "velocity": 0.2755905511811024,
                    "duration": 0.1875
                },
                {
                    "name": "A#3",
                    "midi": 58,
                    "time": 89.68750000000028,
                    "velocity": 0.28346456692913385,
                    "duration": 0.056250000000005684
                },
                {
                    "name": "F4",
                    "midi": 65,
                    "time": 89.68750000000028,
                    "velocity": 0.33070866141732286,
                    "duration": 0.056250000000005684
                },
                {
                    "name": "F4",
                    "midi": 65,
                    "time": 89.75000000000028,
                    "velocity": 0.4251968503937008,
                    "duration": 0.25
                },
                {
                    "name": "D4",
                    "midi": 62,
                    "time": 89.75000000000028,
                    "velocity": 0.3543307086614173,
                    "duration": 0.25
                },
                {
                    "name": "G4",
                    "midi": 67,
                    "time": 90.00000000000028,
                    "velocity": 0.3779527559055118,
                    "duration": 0.125
                },
                {
                    "name": "D#4",
                    "midi": 63,
                    "time": 90.00000000000028,
                    "velocity": 0.3228346456692913,
                    "duration": 0.125
                },
                {
                    "name": "G4",
                    "midi": 67,
                    "time": 90.25000000000028,
                    "velocity": 0.3543307086614173,
                    "duration": 0.1875
                },
                {
                    "name": "D#4",
                    "midi": 63,
                    "time": 90.25000000000028,
                    "velocity": 0.2992125984251969,
                    "duration": 0.1875
                },
                {
                    "name": "C4",
                    "midi": 60,
                    "time": 90.43750000000028,
                    "velocity": 0.30708661417322836,
                    "duration": 0.056250000000005684
                },
                {
                    "name": "F4",
                    "midi": 65,
                    "time": 90.43750000000028,
                    "velocity": 0.36220472440944884,
                    "duration": 0.056250000000005684
                },
                {
                    "name": "F4",
                    "midi": 65,
                    "time": 90.50000000000028,
                    "velocity": 0.4566929133858268,
                    "duration": 0.375
                },
                {
                    "name": "C4",
                    "midi": 60,
                    "time": 90.50000000000028,
                    "velocity": 0.3858267716535433,
                    "duration": 0.25
                },
                {
                    "name": "D4",
                    "midi": 62,
                    "time": 90.75000000000028,
                    "velocity": 0.3464566929133858,
                    "duration": 0.125
                },
                {
                    "name": "D5",
                    "midi": 74,
                    "time": 91.00000000000028,
                    "velocity": 0.3858267716535433,
                    "duration": 0.1875
                },
                {
                    "name": "C5",
                    "midi": 72,
                    "time": 91.18750000000028,
                    "velocity": 0.33070866141732286,
                    "duration": 0.056250000000005684
                },
                {
                    "name": "A4",
                    "midi": 69,
                    "time": 91.18750000000028,
                    "velocity": 0.33070866141732286,
                    "duration": 0.056250000000005684
                },
                {
                    "name": "C5",
                    "midi": 72,
                    "time": 91.25000000000028,
                    "velocity": 0.5039370078740157,
                    "duration": 0.25
                },
                {
                    "name": "A4",
                    "midi": 69,
                    "time": 91.25000000000028,
                    "velocity": 0.41732283464566927,
                    "duration": 0.25
                },
                {
                    "name": "A#4",
                    "midi": 70,
                    "time": 91.50000000000028,
                    "velocity": 0.4094488188976378,
                    "duration": 0.125
                },
                {
                    "name": "G#4",
                    "midi": 68,
                    "time": 91.50000000000028,
                    "velocity": 0.3779527559055118,
                    "duration": 0.125
                },
                {
                    "name": "G4",
                    "midi": 67,
                    "time": 91.75000000000028,
                    "velocity": 0.3543307086614173,
                    "duration": 0.1875
                },
                {
                    "name": "A#4",
                    "midi": 70,
                    "time": 91.75000000000028,
                    "velocity": 0.41732283464566927,
                    "duration": 0.25
                },
                {
                    "name": "F#4",
                    "midi": 66,
                    "time": 91.93750000000028,
                    "velocity": 0.36220472440944884,
                    "duration": 0.056250000000005684
                },
                {
                    "name": "A#4",
                    "midi": 70,
                    "time": 92.00000000000028,
                    "velocity": 0.5590551181102362,
                    "duration": 0.25
                },
                {
                    "name": "F#4",
                    "midi": 66,
                    "time": 92.00000000000028,
                    "velocity": 0.4645669291338583,
                    "duration": 0.25
                },
                {
                    "name": "C5",
                    "midi": 72,
                    "time": 92.25000000000028,
                    "velocity": 0.4409448818897638,
                    "duration": 0.0625
                },
                {
                    "name": "F4",
                    "midi": 65,
                    "time": 92.25000000000028,
                    "velocity": 0.3858267716535433,
                    "duration": 0.0625
                },
                {
                    "name": "C3",
                    "midi": 48,
                    "time": 92.50000000000028,
                    "velocity": 0.4566929133858268,
                    "duration": 0.0625
                },
                {
                    "name": "C4",
                    "midi": 60,
                    "time": 92.50000000000028,
                    "velocity": 0.4881889763779528,
                    "duration": 0.0625
                },
                {
                    "name": "F3",
                    "midi": 53,
                    "time": 92.75000000000028,
                    "velocity": 0.4566929133858268,
                    "duration": 0.125
                },
                {
                    "name": "F4",
                    "midi": 65,
                    "time": 92.75000000000028,
                    "velocity": 0.4881889763779528,
                    "duration": 0.125
                },
                {
                    "name": "F4",
                    "midi": 65,
                    "time": 93.25000000000028,
                    "velocity": 0.31496062992125984,
                    "duration": 0.375
                },
                {
                    "name": "F3",
                    "midi": 53,
                    "time": 93.25000000000028,
                    "velocity": 0.2677165354330709,
                    "duration": 0.375
                },
                {
                    "name": "F3",
                    "midi": 53,
                    "time": 93.62500000000028,
                    "velocity": 0.2677165354330709,
                    "duration": 0.125
                },
                {
                    "name": "F4",
                    "midi": 65,
                    "time": 93.75000000000028,
                    "velocity": 0.30708661417322836,
                    "duration": 0.125
                },
                {
                    "name": "F3",
                    "midi": 53,
                    "time": 94.00000000000028,
                    "velocity": 0.31496062992125984,
                    "duration": 0.375
                },
                {
                    "name": "F2",
                    "midi": 41,
                    "time": 94.00000000000028,
                    "velocity": 0.2677165354330709,
                    "duration": 0.375
                },
                {
                    "name": "F2",
                    "midi": 41,
                    "time": 94.37500000000028,
                    "velocity": 0.2677165354330709,
                    "duration": 0.125
                },
                {
                    "name": "F3",
                    "midi": 53,
                    "time": 94.50000000000028,
                    "velocity": 0.30708661417322836,
                    "duration": 0.125
                },
                {
                    "name": "F3",
                    "midi": 53,
                    "time": 94.75000000000028,
                    "velocity": 0.31496062992125984,
                    "duration": 0.375
                },
                {
                    "name": "F2",
                    "midi": 41,
                    "time": 94.75000000000028,
                    "velocity": 0.2677165354330709,
                    "duration": 0.375
                },
                {
                    "name": "F2",
                    "midi": 41,
                    "time": 95.12500000000028,
                    "velocity": 0.2677165354330709,
                    "duration": 0.125
                },
                {
                    "name": "F3",
                    "midi": 53,
                    "time": 95.25000000000028,
                    "velocity": 0.30708661417322836,
                    "duration": 0.125
                },
                {
                    "name": "F2",
                    "midi": 41,
                    "time": 95.50000000000028,
                    "velocity": 0.28346456692913385,
                    "duration": 0.375
                },
                {
                    "name": "F1",
                    "midi": 29,
                    "time": 95.50000000000028,
                    "velocity": 0.23622047244094488,
                    "duration": 0.375
                },
                {
                    "name": "F1",
                    "midi": 29,
                    "time": 95.87500000000028,
                    "velocity": 0.2677165354330709,
                    "duration": 0.125
                },
                {
                    "name": "F2",
                    "midi": 41,
                    "time": 96.00000000000028,
                    "velocity": 0.30708661417322836,
                    "duration": 0.125
                },
                {
                    "name": "F#2",
                    "midi": 42,
                    "time": 96.25000000000028,
                    "velocity": 0.28346456692913385,
                    "duration": 0.5
                },
                {
                    "name": "F#1",
                    "midi": 30,
                    "time": 96.25000000000028,
                    "velocity": 0.23622047244094488,
                    "duration": 0.5
                },
                {
                    "name": "G1",
                    "midi": 31,
                    "time": 96.75000000000028,
                    "velocity": 0.2204724409448819,
                    "duration": 0.75
                },
                {
                    "name": "G2",
                    "midi": 43,
                    "time": 96.75000000000028,
                    "velocity": 0.2677165354330709,
                    "duration": 0.75
                },
                {
                    "name": "A1",
                    "midi": 33,
                    "time": 97.50000000000028,
                    "velocity": 0.2204724409448819,
                    "duration": 0.25
                },
                {
                    "name": "A2",
                    "midi": 45,
                    "time": 97.50000000000028,
                    "velocity": 0.25984251968503935,
                    "duration": 0.25
                },
                {
                    "name": "A#1",
                    "midi": 34,
                    "time": 97.75000000000028,
                    "velocity": 0.2204724409448819,
                    "duration": 0.25
                },
                {
                    "name": "A#2",
                    "midi": 46,
                    "time": 97.75000000000028,
                    "velocity": 0.25984251968503935,
                    "duration": 0.25
                },
                {
                    "name": "B1",
                    "midi": 35,
                    "time": 98.00000000000028,
                    "velocity": 0.2204724409448819,
                    "duration": 0.25
                },
                {
                    "name": "B2",
                    "midi": 47,
                    "time": 98.00000000000028,
                    "velocity": 0.25984251968503935,
                    "duration": 0.25
                },
                {
                    "name": "C2",
                    "midi": 36,
                    "time": 98.25000000000028,
                    "velocity": 0.2204724409448819,
                    "duration": 0.25
                },
                {
                    "name": "C3",
                    "midi": 48,
                    "time": 98.25000000000028,
                    "velocity": 0.25984251968503935,
                    "duration": 0.25
                },
                {
                    "name": "C2",
                    "midi": 36,
                    "time": 98.50000000000028,
                    "velocity": 0.25196850393700787,
                    "duration": 0.25
                },
                {
                    "name": "G2",
                    "midi": 43,
                    "time": 98.75000000000028,
                    "velocity": 0.25196850393700787,
                    "duration": 0.5
                },
                {
                    "name": "G2",
                    "midi": 43,
                    "time": 100.75000000000028,
                    "velocity": 0.25196850393700787,
                    "duration": 0.1875
                },
                {
                    "name": "G3",
                    "midi": 55,
                    "time": 100.75000000000028,
                    "velocity": 0.2125984251968504,
                    "duration": 0.75
                },
                {
                    "name": "B2",
                    "midi": 47,
                    "time": 100.93750000000028,
                    "velocity": 0.25196850393700787,
                    "duration": 0.056250000000005684
                },
                {
                    "name": "B2",
                    "midi": 47,
                    "time": 101.00000000000028,
                    "velocity": 0.31496062992125984,
                    "duration": 0.25
                },
                {
                    "name": "G2",
                    "midi": 43,
                    "time": 101.25000000000028,
                    "velocity": 0.2755905511811024,
                    "duration": 0.125
                },
                {
                    "name": "C5",
                    "midi": 72,
                    "time": 101.50000000000028,
                    "velocity": 0.28346456692913385,
                    "duration": 0.1875
                },
                {
                    "name": "D#5",
                    "midi": 75,
                    "time": 101.68750000000028,
                    "velocity": 0.28346456692913385,
                    "duration": 0.056250000000005684
                },
                {
                    "name": "D#5",
                    "midi": 75,
                    "time": 101.75000000000028,
                    "velocity": 0.36220472440944884,
                    "duration": 0.25
                },
                {
                    "name": "C5",
                    "midi": 72,
                    "time": 102.00000000000028,
                    "velocity": 0.31496062992125984,
                    "duration": 0.125
                },
                {
                    "name": "G3",
                    "midi": 55,
                    "time": 102.25000000000028,
                    "velocity": 0.31496062992125984,
                    "duration": 0.37291666666666856
                },
                {
                    "name": "G2",
                    "midi": 43,
                    "time": 102.25000000000028,
                    "velocity": 0.2677165354330709,
                    "duration": 0.37291666666666856
                },
                {
                    "name": "G2",
                    "midi": 43,
                    "time": 102.62500000000028,
                    "velocity": 0.2677165354330709,
                    "duration": 0.125
                },
                {
                    "name": "G3",
                    "midi": 55,
                    "time": 102.75000000000028,
                    "velocity": 0.30708661417322836,
                    "duration": 0.125
                },
                {
                    "name": "C3",
                    "midi": 48,
                    "time": 103.00000000000028,
                    "velocity": 0.36220472440944884,
                    "duration": 0.375
                },
                {
                    "name": "C2",
                    "midi": 36,
                    "time": 103.00000000000028,
                    "velocity": 0.30708661417322836,
                    "duration": 0.375
                },
                {
                    "name": "C2",
                    "midi": 36,
                    "time": 103.37500000000028,
                    "velocity": 0.4251968503937008,
                    "duration": 0.125
                },
                {
                    "name": "C3",
                    "midi": 48,
                    "time": 103.50000000000028,
                    "velocity": 0.5039370078740157,
                    "duration": 0.125
                },
                {
                    "name": "F1",
                    "midi": 29,
                    "time": 103.75000000000028,
                    "velocity": 0.4330708661417323,
                    "duration": 0.37291666666666856
                },
                {
                    "name": "F2",
                    "midi": 41,
                    "time": 103.75000000000028,
                    "velocity": 0.5433070866141733,
                    "duration": 0.37291666666666856
                },
                {
                    "name": "F2",
                    "midi": 41,
                    "time": 104.12500000000028,
                    "velocity": 0.5905511811023622,
                    "duration": 0.125
                },
                {
                    "name": "F3",
                    "midi": 53,
                    "time": 104.25000000000028,
                    "velocity": 0.6771653543307087,
                    "duration": 0.0625
                },
                {
                    "name": "A#1",
                    "midi": 34,
                    "time": 104.50000000000028,
                    "velocity": 0.5196850393700787,
                    "duration": 0.0625
                },
                {
                    "name": "A#2",
                    "midi": 46,
                    "time": 104.50000000000028,
                    "velocity": 0.5590551181102362,
                    "duration": 0.0625
                },
                {
                    "name": "A#1",
                    "midi": 34,
                    "time": 104.75000000000028,
                    "velocity": 0.5196850393700787,
                    "duration": 0.125
                },
                {
                    "name": "A#2",
                    "midi": 46,
                    "time": 104.75000000000028,
                    "velocity": 0.5590551181102362,
                    "duration": 0.125
                },
                {
                    "name": "F5",
                    "midi": 77,
                    "time": 105.25000000000028,
                    "velocity": 0.31496062992125984,
                    "duration": 0.37291666666666856
                },
                {
                    "name": "F4",
                    "midi": 65,
                    "time": 105.25000000000028,
                    "velocity": 0.2677165354330709,
                    "duration": 0.37291666666666856
                },
                {
                    "name": "F4",
                    "midi": 65,
                    "time": 105.62500000000028,
                    "velocity": 0.2677165354330709,
                    "duration": 0.125
                },
                {
                    "name": "F5",
                    "midi": 77,
                    "time": 105.75000000000028,
                    "velocity": 0.30708661417322836,
                    "duration": 0.125
                },
                {
                    "name": "F3",
                    "midi": 53,
                    "time": 106.00000000000028,
                    "velocity": 0.2677165354330709,
                    "duration": 0.37291666666666856
                },
                {
                    "name": "F4",
                    "midi": 65,
                    "time": 106.00000000000028,
                    "velocity": 0.31496062992125984,
                    "duration": 0.37291666666666856
                },
                {
                    "name": "F3",
                    "midi": 53,
                    "time": 106.37500000000028,
                    "velocity": 0.2677165354330709,
                    "duration": 0.125
                },
                {
                    "name": "F4",
                    "midi": 65,
                    "time": 106.50000000000028,
                    "velocity": 0.30708661417322836,
                    "duration": 0.125
                },
                {
                    "name": "F4",
                    "midi": 65,
                    "time": 106.75000000000028,
                    "velocity": 0.31496062992125984,
                    "duration": 0.37291666666666856
                },
                {
                    "name": "F3",
                    "midi": 53,
                    "time": 106.75000000000028,
                    "velocity": 0.2677165354330709,
                    "duration": 0.37291666666666856
                },
                {
                    "name": "F3",
                    "midi": 53,
                    "time": 107.12500000000028,
                    "velocity": 0.2677165354330709,
                    "duration": 0.125
                },
                {
                    "name": "F4",
                    "midi": 65,
                    "time": 107.25000000000028,
                    "velocity": 0.30708661417322836,
                    "duration": 0.125
                },
                {
                    "name": "F2",
                    "midi": 41,
                    "time": 107.50000000000028,
                    "velocity": 0.23622047244094488,
                    "duration": 0.37291666666666856
                },
                {
                    "name": "F3",
                    "midi": 53,
                    "time": 107.50000000000028,
                    "velocity": 0.28346456692913385,
                    "duration": 0.37291666666666856
                },
                {
                    "name": "F2",
                    "midi": 41,
                    "time": 107.87500000000028,
                    "velocity": 0.2677165354330709,
                    "duration": 0.125
                },
                {
                    "name": "F3",
                    "midi": 53,
                    "time": 108.00000000000028,
                    "velocity": 0.30708661417322836,
                    "duration": 0.125
                },
                {
                    "name": "C4",
                    "midi": 60,
                    "time": 108.25000000000028,
                    "velocity": 0.23622047244094488,
                    "duration": 0.4947916666666714
                },
                {
                    "name": "D#4",
                    "midi": 63,
                    "time": 108.25000000000028,
                    "velocity": 0.28346456692913385,
                    "duration": 0.4947916666666714
                },
                {
                    "name": "F#3",
                    "midi": 54,
                    "time": 108.25000000000028,
                    "velocity": 0.23622047244094488,
                    "duration": 0.4947916666666714
                },
                {
                    "name": "F#3",
                    "midi": 54,
                    "time": 108.75000000000028,
                    "velocity": 0.2204724409448819,
                    "duration": 0.25
                },
                {
                    "name": "C4",
                    "midi": 60,
                    "time": 108.75000000000028,
                    "velocity": 0.2204724409448819,
                    "duration": 0.25
                },
                {
                    "name": "D#4",
                    "midi": 63,
                    "time": 108.75000000000028,
                    "velocity": 0.2677165354330709,
                    "duration": 0.25
                },
                {
                    "name": "D4",
                    "midi": 62,
                    "time": 109.00000000000028,
                    "velocity": 0.2677165354330709,
                    "duration": 0.25
                },
                {
                    "name": "G3",
                    "midi": 55,
                    "time": 109.00000000000028,
                    "velocity": 0.2204724409448819,
                    "duration": 0.25
                },
                {
                    "name": "A#3",
                    "midi": 58,
                    "time": 109.00000000000028,
                    "velocity": 0.2204724409448819,
                    "duration": 0.25
                },
                {
                    "name": "A3",
                    "midi": 57,
                    "time": 109.25000000000028,
                    "velocity": 0.2204724409448819,
                    "duration": 0.125
                },
                {
                    "name": "C4",
                    "midi": 60,
                    "time": 109.25000000000028,
                    "velocity": 0.2677165354330709,
                    "duration": 0.125
                },
                {
                    "name": "A2",
                    "midi": 45,
                    "time": 109.37500000000028,
                    "velocity": 0.2204724409448819,
                    "duration": 0.125
                },
                {
                    "name": "A#3",
                    "midi": 58,
                    "time": 109.50000000000028,
                    "velocity": 0.25984251968503935,
                    "duration": 0.25
                },
                {
                    "name": "G3",
                    "midi": 55,
                    "time": 109.50000000000028,
                    "velocity": 0.2204724409448819,
                    "duration": 0.25
                },
                {
                    "name": "A#2",
                    "midi": 46,
                    "time": 109.50000000000028,
                    "velocity": 0.2204724409448819,
                    "duration": 0.25
                },
                {
                    "name": "F3",
                    "midi": 53,
                    "time": 109.75000000000028,
                    "velocity": 0.2204724409448819,
                    "duration": 0.5
                },
                {
                    "name": "B2",
                    "midi": 47,
                    "time": 109.75000000000028,
                    "velocity": 0.2204724409448819,
                    "duration": 0.25
                },
                {
                    "name": "A3",
                    "midi": 57,
                    "time": 109.75000000000028,
                    "velocity": 0.25984251968503935,
                    "duration": 0.5
                },
                {
                    "name": "C3",
                    "midi": 48,
                    "time": 110.00000000000028,
                    "velocity": 0.2204724409448819,
                    "duration": 0.5
                },
                {
                    "name": "G3",
                    "midi": 55,
                    "time": 110.25000000000028,
                    "velocity": 0.25984251968503935,
                    "duration": 0.25
                },
                {
                    "name": "E3",
                    "midi": 52,
                    "time": 110.25000000000028,
                    "velocity": 0.2125984251968504,
                    "duration": 0.25
                },
                {
                    "name": "D#3",
                    "midi": 51,
                    "time": 110.50000000000028,
                    "velocity": 0.2125984251968504,
                    "duration": 0.25
                },
                {
                    "name": "G3",
                    "midi": 55,
                    "time": 110.50000000000028,
                    "velocity": 0.25984251968503935,
                    "duration": 0.25
                },
                {
                    "name": "C4",
                    "midi": 60,
                    "time": 110.50000000000028,
                    "velocity": 0.25196850393700787,
                    "duration": 0.5
                },
                {
                    "name": "G3",
                    "midi": 55,
                    "time": 110.75000000000028,
                    "velocity": 0.25196850393700787,
                    "duration": 0.5
                },
                {
                    "name": "B3",
                    "midi": 59,
                    "time": 111.00000000000028,
                    "velocity": 0.23622047244094488,
                    "duration": 0.25
                },
                {
                    "name": "G1",
                    "midi": 31,
                    "time": 112.75000000000028,
                    "velocity": 0.25196850393700787,
                    "duration": 0.1875
                },
                {
                    "name": "G2",
                    "midi": 43,
                    "time": 112.75000000000028,
                    "velocity": 0.2125984251968504,
                    "duration": 0.75
                },
                {
                    "name": "B1",
                    "midi": 35,
                    "time": 112.93750000000028,
                    "velocity": 0.25196850393700787,
                    "duration": 0.056250000000005684
                },
                {
                    "name": "B1",
                    "midi": 35,
                    "time": 113.00000000000028,
                    "velocity": 0.31496062992125984,
                    "duration": 0.25
                },
                {
                    "name": "G1",
                    "midi": 31,
                    "time": 113.25000000000028,
                    "velocity": 0.2755905511811024,
                    "duration": 0.125
                },
                {
                    "name": "C5",
                    "midi": 72,
                    "time": 113.50000000000028,
                    "velocity": 0.28346456692913385,
                    "duration": 0.1875
                },
                {
                    "name": "D#5",
                    "midi": 75,
                    "time": 113.68750000000028,
                    "velocity": 0.28346456692913385,
                    "duration": 0.056250000000005684
                },
                {
                    "name": "D#5",
                    "midi": 75,
                    "time": 113.75000000000028,
                    "velocity": 0.36220472440944884,
                    "duration": 0.25
                },
                {
                    "name": "C5",
                    "midi": 72,
                    "time": 114.00000000000028,
                    "velocity": 0.31496062992125984,
                    "duration": 0.125
                },
                {
                    "name": "G4",
                    "midi": 67,
                    "time": 114.25000000000028,
                    "velocity": 0.31496062992125984,
                    "duration": 0.375
                },
                {
                    "name": "G3",
                    "midi": 55,
                    "time": 114.25000000000028,
                    "velocity": 0.2677165354330709,
                    "duration": 0.375
                },
                {
                    "name": "G3",
                    "midi": 55,
                    "time": 114.62500000000028,
                    "velocity": 0.2677165354330709,
                    "duration": 0.125
                },
                {
                    "name": "G4",
                    "midi": 67,
                    "time": 114.75000000000028,
                    "velocity": 0.31496062992125984,
                    "duration": 0.125
                },
                {
                    "name": "C4",
                    "midi": 60,
                    "time": 115.00000000000028,
                    "velocity": 0.3779527559055118,
                    "duration": 0.375
                },
                {
                    "name": "C3",
                    "midi": 48,
                    "time": 115.00000000000028,
                    "velocity": 0.31496062992125984,
                    "duration": 0.375
                },
                {
                    "name": "C3",
                    "midi": 48,
                    "time": 115.37500000000028,
                    "velocity": 0.4330708661417323,
                    "duration": 0.125
                },
                {
                    "name": "C4",
                    "midi": 60,
                    "time": 115.50000000000028,
                    "velocity": 0.5039370078740157,
                    "duration": 0.125
                },
                {
                    "name": "F2",
                    "midi": 41,
                    "time": 115.75000000000028,
                    "velocity": 0.4645669291338583,
                    "duration": 0.375
                },
                {
                    "name": "F3",
                    "midi": 53,
                    "time": 115.75000000000028,
                    "velocity": 0.5826771653543307,
                    "duration": 0.375
                },
                {
                    "name": "F2",
                    "midi": 41,
                    "time": 116.12500000000028,
                    "velocity": 0.5511811023622047,
                    "duration": 0.125
                },
                {
                    "name": "F3",
                    "midi": 53,
                    "time": 116.25000000000028,
                    "velocity": 0.6141732283464567,
                    "duration": 0.0625
                },
                {
                    "name": "A#1",
                    "midi": 34,
                    "time": 116.50000000000028,
                    "velocity": 0.5669291338582677,
                    "duration": 0.0625
                },
                {
                    "name": "A#2",
                    "midi": 46,
                    "time": 116.50000000000028,
                    "velocity": 0.6141732283464567,
                    "duration": 0.0625
                },
                {
                    "name": "A#1",
                    "midi": 34,
                    "time": 116.75000000000028,
                    "velocity": 0.5669291338582677,
                    "duration": 0.125
                },
                {
                    "name": "A#2",
                    "midi": 46,
                    "time": 116.75000000000028,
                    "velocity": 0.6141732283464567,
                    "duration": 0.125
                },
                {
                    "name": "B1",
                    "midi": 35,
                    "time": 117.25000000000028,
                    "velocity": 0.16535433070866143,
                    "duration": 0.0625
                },
                {
                    "name": "B2",
                    "midi": 47,
                    "time": 117.25000000000028,
                    "velocity": 0.18110236220472442,
                    "duration": 0.0625
                },
                {
                    "name": "B1",
                    "midi": 35,
                    "time": 117.50000000000028,
                    "velocity": 0.16535433070866143,
                    "duration": 0.125
                },
                {
                    "name": "B2",
                    "midi": 47,
                    "time": 117.50000000000028,
                    "velocity": 0.18110236220472442,
                    "duration": 0.125
                },
                {
                    "name": "A#1",
                    "midi": 34,
                    "time": 118.00000000000028,
                    "velocity": 0.5669291338582677,
                    "duration": 0.0625
                },
                {
                    "name": "A#2",
                    "midi": 46,
                    "time": 118.00000000000028,
                    "velocity": 0.6141732283464567,
                    "duration": 0.0625
                },
                {
                    "name": "A#1",
                    "midi": 34,
                    "time": 118.25000000000028,
                    "velocity": 0.5669291338582677,
                    "duration": 0.125
                },
                {
                    "name": "A#2",
                    "midi": 46,
                    "time": 118.25000000000028,
                    "velocity": 0.6141732283464567,
                    "duration": 0.125
                },
                {
                    "name": "B1",
                    "midi": 35,
                    "time": 118.75000000000028,
                    "velocity": 0.14173228346456693,
                    "duration": 0.0625
                },
                {
                    "name": "B2",
                    "midi": 47,
                    "time": 118.75000000000028,
                    "velocity": 0.15748031496062992,
                    "duration": 0.0625
                },
                {
                    "name": "B1",
                    "midi": 35,
                    "time": 119.00000000000028,
                    "velocity": 0.14173228346456693,
                    "duration": 0.125
                },
                {
                    "name": "B2",
                    "midi": 47,
                    "time": 119.00000000000028,
                    "velocity": 0.14960629921259844,
                    "duration": 0.125
                },
                {
                    "name": "A#1",
                    "midi": 34,
                    "time": 119.50000000000028,
                    "velocity": 0.13385826771653545,
                    "duration": 0.0625
                },
                {
                    "name": "A#2",
                    "midi": 46,
                    "time": 119.50000000000028,
                    "velocity": 0.14173228346456693,
                    "duration": 0.0625
                },
                {
                    "name": "A#1",
                    "midi": 34,
                    "time": 119.75000000000028,
                    "velocity": 0.13385826771653545,
                    "duration": 0.125
                },
                {
                    "name": "A#2",
                    "midi": 46,
                    "time": 119.75000000000028,
                    "velocity": 0.14173228346456693,
                    "duration": 0.125
                },
                {
                    "name": "B1",
                    "midi": 35,
                    "time": 121.00000000000028,
                    "velocity": 0.12598425196850394,
                    "duration": 0.0625
                },
                {
                    "name": "B2",
                    "midi": 47,
                    "time": 121.00000000000028,
                    "velocity": 0.14173228346456693,
                    "duration": 0.0625
                },
                {
                    "name": "B1",
                    "midi": 35,
                    "time": 121.25000000000028,
                    "velocity": 0.12598425196850394,
                    "duration": 0.125
                },
                {
                    "name": "B2",
                    "midi": 47,
                    "time": 121.25000000000028,
                    "velocity": 0.13385826771653545,
                    "duration": 0.125
                },
                {
                    "name": "B1",
                    "midi": 35,
                    "time": 121.75000000000028,
                    "velocity": 0.12598425196850394,
                    "duration": 0.0625
                },
                {
                    "name": "B2",
                    "midi": 47,
                    "time": 121.75000000000028,
                    "velocity": 0.14173228346456693,
                    "duration": 0.0625
                },
                {
                    "name": "B1",
                    "midi": 35,
                    "time": 122.00000000000028,
                    "velocity": 0.12598425196850394,
                    "duration": 0.125
                },
                {
                    "name": "B2",
                    "midi": 47,
                    "time": 122.00000000000028,
                    "velocity": 0.13385826771653545,
                    "duration": 0.125
                },
                {
                    "name": "B1",
                    "midi": 35,
                    "time": 122.50000000000028,
                    "velocity": 0.1968503937007874,
                    "duration": 0.12395833333333428
                },
                {
                    "name": "B2",
                    "midi": 47,
                    "time": 122.50000000000028,
                    "velocity": 0.23622047244094488,
                    "duration": 0.12395833333333428
                },
                {
                    "name": "B1",
                    "midi": 35,
                    "time": 122.75000000000028,
                    "velocity": 0.2677165354330709,
                    "duration": 0.24791666666666856
                },
                {
                    "name": "B2",
                    "midi": 47,
                    "time": 122.75000000000028,
                    "velocity": 0.3228346456692913,
                    "duration": 0.24791666666666856
                },
                {
                    "name": "B1",
                    "midi": 35,
                    "time": 123.00000000000028,
                    "velocity": 0.2992125984251969,
                    "duration": 0.24791666666666856
                },
                {
                    "name": "B2",
                    "midi": 47,
                    "time": 123.00000000000028,
                    "velocity": 0.3543307086614173,
                    "duration": 0.24791666666666856
                },
                {
                    "name": "B1",
                    "midi": 35,
                    "time": 123.25000000000028,
                    "velocity": 0.33070866141732286,
                    "duration": 0.24791666666666856
                },
                {
                    "name": "B2",
                    "midi": 47,
                    "time": 123.25000000000028,
                    "velocity": 0.4015748031496063,
                    "duration": 0.24791666666666856
                },
                {
                    "name": "B1",
                    "midi": 35,
                    "time": 123.50000000000028,
                    "velocity": 0.36220472440944884,
                    "duration": 0.24791666666666856
                },
                {
                    "name": "B2",
                    "midi": 47,
                    "time": 123.50000000000028,
                    "velocity": 0.4330708661417323,
                    "duration": 0.24791666666666856
                },
                {
                    "name": "B1",
                    "midi": 35,
                    "time": 123.75000000000028,
                    "velocity": 0.4094488188976378,
                    "duration": 0.24791666666666856
                },
                {
                    "name": "B2",
                    "midi": 47,
                    "time": 123.75000000000028,
                    "velocity": 0.48031496062992124,
                    "duration": 0.24791666666666856
                },
                {
                    "name": "B1",
                    "midi": 35,
                    "time": 124.00000000000028,
                    "velocity": 0.4330708661417323,
                    "duration": 0.24791666666666856
                },
                {
                    "name": "B2",
                    "midi": 47,
                    "time": 124.00000000000028,
                    "velocity": 0.5196850393700787,
                    "duration": 0.24791666666666856
                },
                {
                    "name": "B1",
                    "midi": 35,
                    "time": 124.25000000000028,
                    "velocity": 0.47244094488188976,
                    "duration": 0.24791666666666856
                },
                {
                    "name": "B2",
                    "midi": 47,
                    "time": 124.25000000000028,
                    "velocity": 0.5669291338582677,
                    "duration": 0.24791666666666856
                },
                {
                    "name": "B1",
                    "midi": 35,
                    "time": 124.50000000000028,
                    "velocity": 0.5118110236220472,
                    "duration": 0.24791666666666856
                },
                {
                    "name": "B2",
                    "midi": 47,
                    "time": 124.50000000000028,
                    "velocity": 0.6062992125984252,
                    "duration": 0.24791666666666856
                },
                {
                    "name": "B1",
                    "midi": 35,
                    "time": 124.75000000000028,
                    "velocity": 0.5511811023622047,
                    "duration": 0.24791666666666856
                },
                {
                    "name": "B2",
                    "midi": 47,
                    "time": 124.75000000000028,
                    "velocity": 0.6535433070866141,
                    "duration": 0.24791666666666856
                },
                {
                    "name": "B1",
                    "midi": 35,
                    "time": 125.00000000000028,
                    "velocity": 0.5275590551181102,
                    "duration": 0.24791666666666856
                },
                {
                    "name": "B2",
                    "midi": 47,
                    "time": 125.00000000000028,
                    "velocity": 0.6299212598425197,
                    "duration": 0.24791666666666856
                },
                {
                    "name": "B1",
                    "midi": 35,
                    "time": 125.25000000000028,
                    "velocity": 0.5511811023622047,
                    "duration": 0.24791666666666856
                },
                {
                    "name": "B2",
                    "midi": 47,
                    "time": 125.25000000000028,
                    "velocity": 0.6535433070866141,
                    "duration": 0.24791666666666856
                },
                {
                    "name": "B1",
                    "midi": 35,
                    "time": 125.50000000000028,
                    "velocity": 0.5590551181102362,
                    "duration": 0.24791666666666856
                },
                {
                    "name": "B2",
                    "midi": 47,
                    "time": 125.50000000000028,
                    "velocity": 0.6614173228346457,
                    "duration": 0.24791666666666856
                },
                {
                    "name": "B1",
                    "midi": 35,
                    "time": 125.75000000000028,
                    "velocity": 0.5669291338582677,
                    "duration": 0.24791666666666856
                },
                {
                    "name": "B2",
                    "midi": 47,
                    "time": 125.75000000000028,
                    "velocity": 0.6771653543307087,
                    "duration": 0.24791666666666856
                },
                {
                    "name": "B1",
                    "midi": 35,
                    "time": 126.00000000000028,
                    "velocity": 0.5511811023622047,
                    "duration": 0.24791666666666856
                },
                {
                    "name": "B2",
                    "midi": 47,
                    "time": 126.00000000000028,
                    "velocity": 0.6456692913385826,
                    "duration": 0.24791666666666856
                },
                {
                    "name": "B1",
                    "midi": 35,
                    "time": 126.25000000000028,
                    "velocity": 0.5511811023622047,
                    "duration": 0.25
                },
                {
                    "name": "B2",
                    "midi": 47,
                    "time": 126.25000000000028,
                    "velocity": 0.6535433070866141,
                    "duration": 0.25
                },
                {
                    "name": "A#1",
                    "midi": 34,
                    "time": 126.50000000000028,
                    "velocity": 0.6614173228346457,
                    "duration": 0.125
                },
                {
                    "name": "A#2",
                    "midi": 46,
                    "time": 126.50000000000028,
                    "velocity": 0.7795275590551181,
                    "duration": 0.125
                },
                {
                    "name": "A#1",
                    "midi": 34,
                    "time": 126.75000000000028,
                    "velocity": 0.6614173228346457,
                    "duration": 0.125
                },
                {
                    "name": "A#2",
                    "midi": 46,
                    "time": 126.75000000000028,
                    "velocity": 0.7795275590551181,
                    "duration": 0.125
                },
                {
                    "name": "A#3",
                    "midi": 58,
                    "time": 127.25000000000028,
                    "velocity": 0.25196850393700787,
                    "duration": 0.1875
                },
                {
                    "name": "F3",
                    "midi": 53,
                    "time": 127.43750000000028,
                    "velocity": 0.25196850393700787,
                    "duration": 0.056250000000005684
                },
                {
                    "name": "A3",
                    "midi": 57,
                    "time": 127.50000000000028,
                    "velocity": 0.31496062992125984,
                    "duration": 0.25
                },
                {
                    "name": "A#3",
                    "midi": 58,
                    "time": 127.75000000000028,
                    "velocity": 0.2755905511811024,
                    "duration": 0.125
                },
                {
                    "name": "A#4",
                    "midi": 70,
                    "time": 127.98958333333361,
                    "velocity": 0.25196850393700787,
                    "duration": 0.1874999999999858
                },
                {
                    "name": "F4",
                    "midi": 65,
                    "time": 128.1770833333336,
                    "velocity": 0.25196850393700787,
                    "duration": 0.056250000000005684
                },
                {
                    "name": "A4",
                    "midi": 69,
                    "time": 128.2395833333336,
                    "velocity": 0.31496062992125984,
                    "duration": 0.25
                },
                {
                    "name": "A#4",
                    "midi": 70,
                    "time": 128.4895833333336,
                    "velocity": 0.2755905511811024,
                    "duration": 0.125
                },
                {
                    "name": "A#5",
                    "midi": 82,
                    "time": 128.74687500000027,
                    "velocity": 0.2125984251968504,
                    "duration": 0.1875
                },
                {
                    "name": "F5",
                    "midi": 77,
                    "time": 128.93437500000027,
                    "velocity": 0.2125984251968504,
                    "duration": 0.056250000000005684
                },
                {
                    "name": "A5",
                    "midi": 81,
                    "time": 128.99687500000027,
                    "velocity": 0.2677165354330709,
                    "duration": 0.25
                },
                {
                    "name": "A#5",
                    "midi": 82,
                    "time": 129.24687500000027,
                    "velocity": 0.2283464566929134,
                    "duration": 0.125
                }
            ],
            "controlChanges": {},
            "id": 2,
            "name": "Piano left",
            "instrumentNumber": 0,
            "instrument": "acoustic grand piano",
            "instrumentFamily": "piano",
            "channelNumber": 0,
            "isPercussion": false
        },
        {
            "startTime": 0,
            "duration": 0,
            "length": 0,
            "notes": [],
            "controlChanges": {
                "64": [
                    {
                        "number": 64,
                        "time": 0.5916666666666667,
                        "value": 1
                    },
                    {
                        "number": 64,
                        "time": 0.690625,
                        "value": 0
                    },
                    {
                        "number": 64,
                        "time": 0.8041666666666667,
                        "value": 1
                    },
                    {
                        "number": 64,
                        "time": 1.009375,
                        "value": 0
                    },
                    {
                        "number": 64,
                        "time": 1.3125,
                        "value": 1
                    },
                    {
                        "number": 64,
                        "time": 1.4427083333333333,
                        "value": 0
                    },
                    {
                        "number": 64,
                        "time": 1.5416666666666665,
                        "value": 1
                    },
                    {
                        "number": 64,
                        "time": 1.7552083333333333,
                        "value": 0
                    },
                    {
                        "number": 64,
                        "time": 2.0593749999999997,
                        "value": 1
                    },
                    {
                        "number": 64,
                        "time": 2.192708333333333,
                        "value": 0
                    },
                    {
                        "number": 64,
                        "time": 2.3197916666666663,
                        "value": 1
                    },
                    {
                        "number": 64,
                        "time": 2.5093749999999995,
                        "value": 0
                    },
                    {
                        "number": 64,
                        "time": 2.8197916666666663,
                        "value": 1
                    },
                    {
                        "number": 64,
                        "time": 2.9447916666666663,
                        "value": 0
                    },
                    {
                        "number": 64,
                        "time": 3.088541666666666,
                        "value": 1
                    },
                    {
                        "number": 64,
                        "time": 3.2593749999999995,
                        "value": 0
                    },
                    {
                        "number": 64,
                        "time": 3.5697916666666663,
                        "value": 1
                    },
                    {
                        "number": 64,
                        "time": 3.6937499999999996,
                        "value": 0
                    },
                    {
                        "number": 64,
                        "time": 3.805208333333333,
                        "value": 1
                    },
                    {
                        "number": 64,
                        "time": 4.008333333333333,
                        "value": 0
                    },
                    {
                        "number": 64,
                        "time": 4.2906249999999995,
                        "value": 1
                    },
                    {
                        "number": 64,
                        "time": 4.442708333333333,
                        "value": 0
                    },
                    {
                        "number": 64,
                        "time": 4.533333333333333,
                        "value": 1
                    },
                    {
                        "number": 64,
                        "time": 4.760416666666667,
                        "value": 0
                    },
                    {
                        "number": 64,
                        "time": 5.841666666666667,
                        "value": 1
                    },
                    {
                        "number": 64,
                        "time": 5.940625,
                        "value": 0
                    },
                    {
                        "number": 64,
                        "time": 6.054166666666666,
                        "value": 1
                    },
                    {
                        "number": 64,
                        "time": 6.2593749999999995,
                        "value": 0
                    },
                    {
                        "number": 64,
                        "time": 6.562499999999999,
                        "value": 1
                    },
                    {
                        "number": 64,
                        "time": 6.692708333333332,
                        "value": 0
                    },
                    {
                        "number": 64,
                        "time": 6.791666666666665,
                        "value": 1
                    },
                    {
                        "number": 64,
                        "time": 7.005208333333332,
                        "value": 0
                    },
                    {
                        "number": 64,
                        "time": 7.309374999999998,
                        "value": 1
                    },
                    {
                        "number": 64,
                        "time": 7.442708333333332,
                        "value": 0
                    },
                    {
                        "number": 64,
                        "time": 7.569791666666665,
                        "value": 1
                    },
                    {
                        "number": 64,
                        "time": 7.759374999999999,
                        "value": 0
                    },
                    {
                        "number": 64,
                        "time": 8.069791666666665,
                        "value": 1
                    },
                    {
                        "number": 64,
                        "time": 8.194791666666665,
                        "value": 0
                    },
                    {
                        "number": 64,
                        "time": 8.338541666666666,
                        "value": 1
                    },
                    {
                        "number": 64,
                        "time": 8.509374999999999,
                        "value": 0
                    },
                    {
                        "number": 64,
                        "time": 8.819791666666665,
                        "value": 1
                    },
                    {
                        "number": 64,
                        "time": 8.943749999999998,
                        "value": 0
                    },
                    {
                        "number": 64,
                        "time": 9.055208333333331,
                        "value": 1
                    },
                    {
                        "number": 64,
                        "time": 9.258333333333331,
                        "value": 0
                    },
                    {
                        "number": 64,
                        "time": 9.540624999999999,
                        "value": 1
                    },
                    {
                        "number": 64,
                        "time": 9.692708333333332,
                        "value": 0
                    },
                    {
                        "number": 64,
                        "time": 9.783333333333331,
                        "value": 1
                    },
                    {
                        "number": 64,
                        "time": 10.010416666666664,
                        "value": 0
                    },
                    {
                        "number": 64,
                        "time": 11.091666666666665,
                        "value": 1
                    },
                    {
                        "number": 64,
                        "time": 11.190624999999999,
                        "value": 0
                    },
                    {
                        "number": 64,
                        "time": 11.304166666666665,
                        "value": 1
                    },
                    {
                        "number": 64,
                        "time": 11.509374999999999,
                        "value": 0
                    },
                    {
                        "number": 64,
                        "time": 11.841666666666665,
                        "value": 1
                    },
                    {
                        "number": 64,
                        "time": 11.940624999999999,
                        "value": 0
                    },
                    {
                        "number": 64,
                        "time": 12.054166666666665,
                        "value": 1
                    },
                    {
                        "number": 64,
                        "time": 12.259374999999999,
                        "value": 0
                    },
                    {
                        "number": 64,
                        "time": 12.591666666666665,
                        "value": 1
                    },
                    {
                        "number": 64,
                        "time": 12.690624999999999,
                        "value": 0
                    },
                    {
                        "number": 64,
                        "time": 12.804166666666665,
                        "value": 1
                    },
                    {
                        "number": 64,
                        "time": 13.009374999999999,
                        "value": 0
                    },
                    {
                        "number": 64,
                        "time": 13.341666666666665,
                        "value": 1
                    },
                    {
                        "number": 64,
                        "time": 13.440624999999999,
                        "value": 0
                    },
                    {
                        "number": 64,
                        "time": 13.554166666666665,
                        "value": 1
                    },
                    {
                        "number": 64,
                        "time": 13.759374999999999,
                        "value": 0
                    },
                    {
                        "number": 64,
                        "time": 14.091666666666665,
                        "value": 1
                    },
                    {
                        "number": 64,
                        "time": 14.190624999999999,
                        "value": 0
                    },
                    {
                        "number": 64,
                        "time": 14.304166666666665,
                        "value": 1
                    },
                    {
                        "number": 64,
                        "time": 14.509374999999999,
                        "value": 0
                    },
                    {
                        "number": 64,
                        "time": 17.841666666666665,
                        "value": 1
                    },
                    {
                        "number": 64,
                        "time": 17.940624999999997,
                        "value": 0
                    },
                    {
                        "number": 64,
                        "time": 18.054166666666664,
                        "value": 1
                    },
                    {
                        "number": 64,
                        "time": 18.259375,
                        "value": 0
                    },
                    {
                        "number": 64,
                        "time": 18.591666666666665,
                        "value": 1
                    },
                    {
                        "number": 64,
                        "time": 18.690624999999997,
                        "value": 0
                    },
                    {
                        "number": 64,
                        "time": 18.804166666666664,
                        "value": 1
                    },
                    {
                        "number": 64,
                        "time": 19.009375,
                        "value": 0
                    },
                    {
                        "number": 64,
                        "time": 19.341666666666665,
                        "value": 1
                    },
                    {
                        "number": 64,
                        "time": 19.440624999999997,
                        "value": 0
                    },
                    {
                        "number": 64,
                        "time": 19.554166666666664,
                        "value": 1
                    },
                    {
                        "number": 64,
                        "time": 19.759375,
                        "value": 0
                    },
                    {
                        "number": 64,
                        "time": 20.091666666666665,
                        "value": 1
                    },
                    {
                        "number": 64,
                        "time": 20.190624999999997,
                        "value": 0
                    },
                    {
                        "number": 64,
                        "time": 20.304166666666664,
                        "value": 1
                    },
                    {
                        "number": 64,
                        "time": 20.509375,
                        "value": 0
                    },
                    {
                        "number": 64,
                        "time": 20.841666666666665,
                        "value": 1
                    },
                    {
                        "number": 64,
                        "time": 20.940624999999997,
                        "value": 0
                    },
                    {
                        "number": 64,
                        "time": 21.054166666666664,
                        "value": 1
                    },
                    {
                        "number": 64,
                        "time": 21.259375,
                        "value": 0
                    },
                    {
                        "number": 64,
                        "time": 21.540625,
                        "value": 1
                    },
                    {
                        "number": 64,
                        "time": 21.692708333333332,
                        "value": 0
                    },
                    {
                        "number": 64,
                        "time": 21.78333333333333,
                        "value": 1
                    },
                    {
                        "number": 64,
                        "time": 22.010416666666664,
                        "value": 0
                    },
                    {
                        "number": 64,
                        "time": 23.091666666666665,
                        "value": 1
                    },
                    {
                        "number": 64,
                        "time": 23.190624999999997,
                        "value": 0
                    },
                    {
                        "number": 64,
                        "time": 23.304166666666664,
                        "value": 1
                    },
                    {
                        "number": 64,
                        "time": 23.509375,
                        "value": 0
                    },
                    {
                        "number": 64,
                        "time": 23.841666666666665,
                        "value": 1
                    },
                    {
                        "number": 64,
                        "time": 23.940624999999997,
                        "value": 0
                    },
                    {
                        "number": 64,
                        "time": 24.054166666666664,
                        "value": 1
                    },
                    {
                        "number": 64,
                        "time": 24.259375,
                        "value": 0
                    },
                    {
                        "number": 64,
                        "time": 24.591666666666665,
                        "value": 1
                    },
                    {
                        "number": 64,
                        "time": 24.690624999999997,
                        "value": 0
                    },
                    {
                        "number": 64,
                        "time": 24.804166666666664,
                        "value": 1
                    },
                    {
                        "number": 64,
                        "time": 25.009375,
                        "value": 0
                    },
                    {
                        "number": 64,
                        "time": 25.341666666666665,
                        "value": 1
                    },
                    {
                        "number": 64,
                        "time": 25.440624999999997,
                        "value": 0
                    },
                    {
                        "number": 64,
                        "time": 25.554166666666664,
                        "value": 1
                    },
                    {
                        "number": 64,
                        "time": 25.759375,
                        "value": 0
                    },
                    {
                        "number": 64,
                        "time": 26.091666666666665,
                        "value": 1
                    },
                    {
                        "number": 64,
                        "time": 26.190624999999997,
                        "value": 0
                    },
                    {
                        "number": 64,
                        "time": 26.304166666666664,
                        "value": 1
                    },
                    {
                        "number": 64,
                        "time": 26.509375,
                        "value": 0
                    },
                    {
                        "number": 64,
                        "time": 29.841666666666665,
                        "value": 1
                    },
                    {
                        "number": 64,
                        "time": 29.940624999999997,
                        "value": 0
                    },
                    {
                        "number": 64,
                        "time": 30.054166666666664,
                        "value": 1
                    },
                    {
                        "number": 64,
                        "time": 30.259375,
                        "value": 0
                    },
                    {
                        "number": 64,
                        "time": 30.591666666666665,
                        "value": 1
                    },
                    {
                        "number": 64,
                        "time": 30.690624999999997,
                        "value": 0
                    },
                    {
                        "number": 64,
                        "time": 30.804166666666664,
                        "value": 1
                    },
                    {
                        "number": 64,
                        "time": 31.009375,
                        "value": 0
                    },
                    {
                        "number": 64,
                        "time": 31.341666666666665,
                        "value": 1
                    },
                    {
                        "number": 64,
                        "time": 31.440624999999997,
                        "value": 0
                    },
                    {
                        "number": 64,
                        "time": 31.554166666666664,
                        "value": 1
                    },
                    {
                        "number": 64,
                        "time": 31.759375,
                        "value": 0
                    },
                    {
                        "number": 64,
                        "time": 32.09166666666667,
                        "value": 1
                    },
                    {
                        "number": 64,
                        "time": 32.190625000000004,
                        "value": 0
                    },
                    {
                        "number": 64,
                        "time": 32.304166666666674,
                        "value": 1
                    },
                    {
                        "number": 64,
                        "time": 32.509375000000006,
                        "value": 0
                    },
                    {
                        "number": 64,
                        "time": 32.841666666666676,
                        "value": 1
                    },
                    {
                        "number": 64,
                        "time": 32.94062500000001,
                        "value": 0
                    },
                    {
                        "number": 64,
                        "time": 33.05416666666668,
                        "value": 1
                    },
                    {
                        "number": 64,
                        "time": 33.25937500000001,
                        "value": 0
                    },
                    {
                        "number": 64,
                        "time": 33.54062500000001,
                        "value": 1
                    },
                    {
                        "number": 64,
                        "time": 33.69270833333334,
                        "value": 0
                    },
                    {
                        "number": 64,
                        "time": 33.783333333333346,
                        "value": 1
                    },
                    {
                        "number": 64,
                        "time": 34.01041666666668,
                        "value": 0
                    },
                    {
                        "number": 64,
                        "time": 35.794791666666676,
                        "value": 1
                    },
                    {
                        "number": 64,
                        "time": 39.51875000000001,
                        "value": 0
                    },
                    {
                        "number": 64,
                        "time": 39.56666666666668,
                        "value": 1
                    },
                    {
                        "number": 64,
                        "time": 41.08333333333334,
                        "value": 0
                    },
                    {
                        "number": 64,
                        "time": 41.76875000000001,
                        "value": 1
                    },
                    {
                        "number": 64,
                        "time": 46.52187500000001,
                        "value": 0
                    },
                    {
                        "number": 64,
                        "time": 46.569791666666674,
                        "value": 1
                    },
                    {
                        "number": 64,
                        "time": 51.00000000000001,
                        "value": 0
                    },
                    {
                        "number": 64,
                        "time": 51.10000000000001,
                        "value": 1
                    },
                    {
                        "number": 64,
                        "time": 53.83333333333334,
                        "value": 0
                    },
                    {
                        "number": 64,
                        "time": 54.51875000000001,
                        "value": 1
                    },
                    {
                        "number": 64,
                        "time": 57.51041666666668,
                        "value": 0
                    },
                    {
                        "number": 64,
                        "time": 57.61770833333335,
                        "value": 1
                    },
                    {
                        "number": 64,
                        "time": 59.271875000000016,
                        "value": 0
                    },
                    {
                        "number": 64,
                        "time": 59.31979166666668,
                        "value": 1
                    },
                    {
                        "number": 64,
                        "time": 60.750000000000014,
                        "value": 0
                    },
                    {
                        "number": 64,
                        "time": 64.77916666666668,
                        "value": 1
                    },
                    {
                        "number": 64,
                        "time": 65.00416666666668,
                        "value": 0
                    },
                    {
                        "number": 64,
                        "time": 65.11770833333334,
                        "value": 1
                    },
                    {
                        "number": 64,
                        "time": 65.25729166666667,
                        "value": 0
                    },
                    {
                        "number": 64,
                        "time": 65.30625,
                        "value": 1
                    },
                    {
                        "number": 64,
                        "time": 65.50729166666667,
                        "value": 0
                    },
                    {
                        "number": 64,
                        "time": 65.57395833333334,
                        "value": 1
                    },
                    {
                        "number": 64,
                        "time": 65.76041666666667,
                        "value": 0
                    },
                    {
                        "number": 64,
                        "time": 65.83958333333334,
                        "value": 1
                    },
                    {
                        "number": 64,
                        "time": 66.0125,
                        "value": 0
                    },
                    {
                        "number": 64,
                        "time": 66.06979166666667,
                        "value": 1
                    },
                    {
                        "number": 64,
                        "time": 66.25729166666667,
                        "value": 0
                    },
                    {
                        "number": 64,
                        "time": 66.32812500000001,
                        "value": 1
                    },
                    {
                        "number": 64,
                        "time": 66.51041666666669,
                        "value": 0
                    },
                    {
                        "number": 64,
                        "time": 66.56458333333335,
                        "value": 1
                    },
                    {
                        "number": 64,
                        "time": 66.75625000000001,
                        "value": 0
                    },
                    {
                        "number": 64,
                        "time": 66.83125000000001,
                        "value": 1
                    },
                    {
                        "number": 64,
                        "time": 67.25729166666667,
                        "value": 0
                    },
                    {
                        "number": 64,
                        "time": 67.32812500000001,
                        "value": 1
                    },
                    {
                        "number": 64,
                        "time": 67.51250000000002,
                        "value": 0
                    },
                    {
                        "number": 64,
                        "time": 67.59479166666668,
                        "value": 1
                    },
                    {
                        "number": 64,
                        "time": 67.75729166666667,
                        "value": 0
                    },
                    {
                        "number": 64,
                        "time": 67.85104166666667,
                        "value": 1
                    },
                    {
                        "number": 64,
                        "time": 68.25625000000001,
                        "value": 0
                    },
                    {
                        "number": 64,
                        "time": 68.33333333333334,
                        "value": 1
                    },
                    {
                        "number": 64,
                        "time": 68.50833333333334,
                        "value": 0
                    },
                    {
                        "number": 64,
                        "time": 68.61979166666667,
                        "value": 1
                    },
                    {
                        "number": 64,
                        "time": 68.75,
                        "value": 0
                    },
                    {
                        "number": 64,
                        "time": 68.75520833333333,
                        "value": 0
                    },
                    {
                        "number": 64,
                        "time": 68.83854166666666,
                        "value": 1
                    },
                    {
                        "number": 64,
                        "time": 69.24999999999999,
                        "value": 0
                    },
                    {
                        "number": 64,
                        "time": 69.36354166666665,
                        "value": 1
                    },
                    {
                        "number": 64,
                        "time": 69.74999999999999,
                        "value": 0
                    },
                    {
                        "number": 64,
                        "time": 69.83645833333333,
                        "value": 1
                    },
                    {
                        "number": 64,
                        "time": 70.01041666666666,
                        "value": 0
                    },
                    {
                        "number": 64,
                        "time": 70.05624999999999,
                        "value": 1
                    },
                    {
                        "number": 64,
                        "time": 70.25416666666666,
                        "value": 0
                    },
                    {
                        "number": 64,
                        "time": 70.328125,
                        "value": 1
                    },
                    {
                        "number": 64,
                        "time": 70.5125,
                        "value": 0
                    },
                    {
                        "number": 64,
                        "time": 70.58333333333334,
                        "value": 1
                    },
                    {
                        "number": 64,
                        "time": 70.76458333333335,
                        "value": 0
                    },
                    {
                        "number": 64,
                        "time": 70.84583333333335,
                        "value": 1
                    },
                    {
                        "number": 64,
                        "time": 71.25312500000001,
                        "value": 0
                    },
                    {
                        "number": 64,
                        "time": 71.33958333333335,
                        "value": 1
                    },
                    {
                        "number": 64,
                        "time": 71.75000000000001,
                        "value": 0
                    },
                    {
                        "number": 64,
                        "time": 71.83854166666669,
                        "value": 1
                    },
                    {
                        "number": 64,
                        "time": 72.25000000000001,
                        "value": 0
                    },
                    {
                        "number": 64,
                        "time": 72.41666666666669,
                        "value": 1
                    },
                    {
                        "number": 64,
                        "time": 72.75000000000001,
                        "value": 0
                    },
                    {
                        "number": 64,
                        "time": 72.83854166666669,
                        "value": 1
                    },
                    {
                        "number": 64,
                        "time": 73.25000000000001,
                        "value": 0
                    },
                    {
                        "number": 64,
                        "time": 73.41666666666669,
                        "value": 1
                    },
                    {
                        "number": 64,
                        "time": 73.75000000000001,
                        "value": 0
                    },
                    {
                        "number": 64,
                        "time": 73.91666666666669,
                        "value": 1
                    },
                    {
                        "number": 64,
                        "time": 74.25000000000001,
                        "value": 0
                    },
                    {
                        "number": 64,
                        "time": 74.41666666666669,
                        "value": 1
                    },
                    {
                        "number": 64,
                        "time": 74.75000000000001,
                        "value": 0
                    },
                    {
                        "number": 64,
                        "time": 74.91666666666669,
                        "value": 1
                    },
                    {
                        "number": 64,
                        "time": 75.25000000000001,
                        "value": 0
                    },
                    {
                        "number": 64,
                        "time": 75.41666666666669,
                        "value": 1
                    },
                    {
                        "number": 64,
                        "time": 76.43125000000002,
                        "value": 0
                    },
                    {
                        "number": 64,
                        "time": 76.50000000000001,
                        "value": 1
                    },
                    {
                        "number": 64,
                        "time": 77.27604166666669,
                        "value": 0
                    },
                    {
                        "number": 64,
                        "time": 77.32395833333335,
                        "value": 1
                    },
                    {
                        "number": 64,
                        "time": 78.25000000000001,
                        "value": 0
                    },
                    {
                        "number": 64,
                        "time": 78.31666666666668,
                        "value": 1
                    },
                    {
                        "number": 64,
                        "time": 80.25000000000001,
                        "value": 0
                    },
                    {
                        "number": 64,
                        "time": 80.32708333333335,
                        "value": 1
                    },
                    {
                        "number": 64,
                        "time": 81.02187500000001,
                        "value": 0
                    },
                    {
                        "number": 64,
                        "time": 81.06666666666668,
                        "value": 1
                    },
                    {
                        "number": 64,
                        "time": 81.15520833333335,
                        "value": 0
                    },
                    {
                        "number": 64,
                        "time": 81.28645833333334,
                        "value": 1
                    },
                    {
                        "number": 64,
                        "time": 82.10729166666668,
                        "value": 0
                    },
                    {
                        "number": 64,
                        "time": 82.84166666666668,
                        "value": 1
                    },
                    {
                        "number": 64,
                        "time": 82.94062500000001,
                        "value": 0
                    },
                    {
                        "number": 64,
                        "time": 83.05416666666667,
                        "value": 1
                    },
                    {
                        "number": 64,
                        "time": 83.259375,
                        "value": 0
                    },
                    {
                        "number": 64,
                        "time": 83.5625,
                        "value": 1
                    },
                    {
                        "number": 64,
                        "time": 83.69270833333333,
                        "value": 0
                    },
                    {
                        "number": 64,
                        "time": 83.79166666666666,
                        "value": 1
                    },
                    {
                        "number": 64,
                        "time": 84.00520833333333,
                        "value": 0
                    },
                    {
                        "number": 64,
                        "time": 84.30937499999999,
                        "value": 1
                    },
                    {
                        "number": 64,
                        "time": 84.44270833333333,
                        "value": 0
                    },
                    {
                        "number": 64,
                        "time": 84.56979166666666,
                        "value": 1
                    },
                    {
                        "number": 64,
                        "time": 84.75937499999999,
                        "value": 0
                    },
                    {
                        "number": 64,
                        "time": 85.06979166666666,
                        "value": 1
                    },
                    {
                        "number": 64,
                        "time": 85.19479166666666,
                        "value": 0
                    },
                    {
                        "number": 64,
                        "time": 85.33854166666666,
                        "value": 1
                    },
                    {
                        "number": 64,
                        "time": 85.50937499999999,
                        "value": 0
                    },
                    {
                        "number": 64,
                        "time": 85.81979166666666,
                        "value": 1
                    },
                    {
                        "number": 64,
                        "time": 85.94375,
                        "value": 0
                    },
                    {
                        "number": 64,
                        "time": 86.05520833333333,
                        "value": 1
                    },
                    {
                        "number": 64,
                        "time": 86.25833333333333,
                        "value": 0
                    },
                    {
                        "number": 64,
                        "time": 86.54062499999999,
                        "value": 1
                    },
                    {
                        "number": 64,
                        "time": 86.69270833333333,
                        "value": 0
                    },
                    {
                        "number": 64,
                        "time": 86.78333333333333,
                        "value": 1
                    },
                    {
                        "number": 64,
                        "time": 87.01041666666667,
                        "value": 0
                    },
                    {
                        "number": 64,
                        "time": 88.09166666666667,
                        "value": 1
                    },
                    {
                        "number": 64,
                        "time": 88.190625,
                        "value": 0
                    },
                    {
                        "number": 64,
                        "time": 88.30416666666666,
                        "value": 1
                    },
                    {
                        "number": 64,
                        "time": 88.50937499999999,
                        "value": 0
                    },
                    {
                        "number": 64,
                        "time": 88.81249999999999,
                        "value": 1
                    },
                    {
                        "number": 64,
                        "time": 88.94270833333331,
                        "value": 0
                    },
                    {
                        "number": 64,
                        "time": 89.04166666666664,
                        "value": 1
                    },
                    {
                        "number": 64,
                        "time": 89.25520833333331,
                        "value": 0
                    },
                    {
                        "number": 64,
                        "time": 89.55937499999997,
                        "value": 1
                    },
                    {
                        "number": 64,
                        "time": 89.69270833333331,
                        "value": 0
                    },
                    {
                        "number": 64,
                        "time": 89.81979166666665,
                        "value": 1
                    },
                    {
                        "number": 64,
                        "time": 90.00937499999998,
                        "value": 0
                    },
                    {
                        "number": 64,
                        "time": 90.31979166666665,
                        "value": 1
                    },
                    {
                        "number": 64,
                        "time": 90.44479166666665,
                        "value": 0
                    },
                    {
                        "number": 64,
                        "time": 90.58854166666664,
                        "value": 1
                    },
                    {
                        "number": 64,
                        "time": 90.75937499999998,
                        "value": 0
                    },
                    {
                        "number": 64,
                        "time": 91.06979166666665,
                        "value": 1
                    },
                    {
                        "number": 64,
                        "time": 91.19374999999998,
                        "value": 0
                    },
                    {
                        "number": 64,
                        "time": 91.30520833333331,
                        "value": 1
                    },
                    {
                        "number": 64,
                        "time": 91.50833333333331,
                        "value": 0
                    },
                    {
                        "number": 64,
                        "time": 91.79062499999998,
                        "value": 1
                    },
                    {
                        "number": 64,
                        "time": 91.94270833333331,
                        "value": 0
                    },
                    {
                        "number": 64,
                        "time": 92.03333333333332,
                        "value": 1
                    },
                    {
                        "number": 64,
                        "time": 92.26041666666666,
                        "value": 0
                    },
                    {
                        "number": 64,
                        "time": 93.34166666666665,
                        "value": 1
                    },
                    {
                        "number": 64,
                        "time": 93.44062499999998,
                        "value": 0
                    },
                    {
                        "number": 64,
                        "time": 93.55416666666665,
                        "value": 1
                    },
                    {
                        "number": 64,
                        "time": 93.75937499999998,
                        "value": 0
                    },
                    {
                        "number": 64,
                        "time": 94.09166666666664,
                        "value": 1
                    },
                    {
                        "number": 64,
                        "time": 94.19062499999997,
                        "value": 0
                    },
                    {
                        "number": 64,
                        "time": 94.30416666666663,
                        "value": 1
                    },
                    {
                        "number": 64,
                        "time": 94.50937499999996,
                        "value": 0
                    },
                    {
                        "number": 64,
                        "time": 94.84166666666663,
                        "value": 1
                    },
                    {
                        "number": 64,
                        "time": 94.94062499999995,
                        "value": 0
                    },
                    {
                        "number": 64,
                        "time": 95.05416666666662,
                        "value": 1
                    },
                    {
                        "number": 64,
                        "time": 95.25937499999995,
                        "value": 0
                    },
                    {
                        "number": 64,
                        "time": 95.59166666666661,
                        "value": 1
                    },
                    {
                        "number": 64,
                        "time": 95.69062499999994,
                        "value": 0
                    },
                    {
                        "number": 64,
                        "time": 95.8041666666666,
                        "value": 1
                    },
                    {
                        "number": 64,
                        "time": 96.00937499999993,
                        "value": 0
                    },
                    {
                        "number": 64,
                        "time": 96.3416666666666,
                        "value": 1
                    },
                    {
                        "number": 64,
                        "time": 96.44062499999993,
                        "value": 0
                    },
                    {
                        "number": 64,
                        "time": 96.55416666666659,
                        "value": 1
                    },
                    {
                        "number": 64,
                        "time": 96.75937499999992,
                        "value": 0
                    },
                    {
                        "number": 64,
                        "time": 100.09166666666658,
                        "value": 1
                    },
                    {
                        "number": 64,
                        "time": 100.19062499999991,
                        "value": 0
                    },
                    {
                        "number": 64,
                        "time": 100.30416666666657,
                        "value": 1
                    },
                    {
                        "number": 64,
                        "time": 100.5093749999999,
                        "value": 0
                    },
                    {
                        "number": 64,
                        "time": 100.84166666666657,
                        "value": 1
                    },
                    {
                        "number": 64,
                        "time": 100.9406249999999,
                        "value": 0
                    },
                    {
                        "number": 64,
                        "time": 101.05416666666656,
                        "value": 1
                    },
                    {
                        "number": 64,
                        "time": 101.25937499999989,
                        "value": 0
                    },
                    {
                        "number": 64,
                        "time": 101.59166666666655,
                        "value": 1
                    },
                    {
                        "number": 64,
                        "time": 101.69062499999988,
                        "value": 0
                    },
                    {
                        "number": 64,
                        "time": 101.80416666666655,
                        "value": 1
                    },
                    {
                        "number": 64,
                        "time": 102.00937499999988,
                        "value": 0
                    },
                    {
                        "number": 64,
                        "time": 102.34166666666654,
                        "value": 1
                    },
                    {
                        "number": 64,
                        "time": 102.44062499999987,
                        "value": 0
                    },
                    {
                        "number": 64,
                        "time": 102.55416666666653,
                        "value": 1
                    },
                    {
                        "number": 64,
                        "time": 102.75937499999986,
                        "value": 0
                    },
                    {
                        "number": 64,
                        "time": 103.09166666666653,
                        "value": 1
                    },
                    {
                        "number": 64,
                        "time": 103.19062499999986,
                        "value": 0
                    },
                    {
                        "number": 64,
                        "time": 103.30416666666652,
                        "value": 1
                    },
                    {
                        "number": 64,
                        "time": 103.50937499999985,
                        "value": 0
                    },
                    {
                        "number": 64,
                        "time": 103.79062499999985,
                        "value": 1
                    },
                    {
                        "number": 64,
                        "time": 103.94270833333319,
                        "value": 0
                    },
                    {
                        "number": 64,
                        "time": 104.03333333333319,
                        "value": 1
                    },
                    {
                        "number": 64,
                        "time": 104.26041666666653,
                        "value": 0
                    },
                    {
                        "number": 64,
                        "time": 105.34166666666653,
                        "value": 1
                    },
                    {
                        "number": 64,
                        "time": 105.44062499999986,
                        "value": 0
                    },
                    {
                        "number": 64,
                        "time": 105.55416666666652,
                        "value": 1
                    },
                    {
                        "number": 64,
                        "time": 105.75937499999985,
                        "value": 0
                    },
                    {
                        "number": 64,
                        "time": 106.09166666666651,
                        "value": 1
                    },
                    {
                        "number": 64,
                        "time": 106.19062499999984,
                        "value": 0
                    },
                    {
                        "number": 64,
                        "time": 106.3041666666665,
                        "value": 1
                    },
                    {
                        "number": 64,
                        "time": 106.50937499999984,
                        "value": 0
                    },
                    {
                        "number": 64,
                        "time": 106.8416666666665,
                        "value": 1
                    },
                    {
                        "number": 64,
                        "time": 106.94062499999983,
                        "value": 0
                    },
                    {
                        "number": 64,
                        "time": 107.05416666666649,
                        "value": 1
                    },
                    {
                        "number": 64,
                        "time": 107.25937499999982,
                        "value": 0
                    },
                    {
                        "number": 64,
                        "time": 107.59166666666648,
                        "value": 1
                    },
                    {
                        "number": 64,
                        "time": 107.69062499999981,
                        "value": 0
                    },
                    {
                        "number": 64,
                        "time": 107.80416666666648,
                        "value": 1
                    },
                    {
                        "number": 64,
                        "time": 108.0093749999998,
                        "value": 0
                    },
                    {
                        "number": 64,
                        "time": 108.34166666666647,
                        "value": 1
                    },
                    {
                        "number": 64,
                        "time": 108.4406249999998,
                        "value": 0
                    },
                    {
                        "number": 64,
                        "time": 108.55416666666646,
                        "value": 1
                    },
                    {
                        "number": 64,
                        "time": 108.75937499999979,
                        "value": 0
                    },
                    {
                        "number": 64,
                        "time": 112.09166666666646,
                        "value": 1
                    },
                    {
                        "number": 64,
                        "time": 112.19062499999978,
                        "value": 0
                    },
                    {
                        "number": 64,
                        "time": 112.30416666666645,
                        "value": 1
                    },
                    {
                        "number": 64,
                        "time": 112.50937499999978,
                        "value": 0
                    },
                    {
                        "number": 64,
                        "time": 112.84166666666644,
                        "value": 1
                    },
                    {
                        "number": 64,
                        "time": 112.94062499999977,
                        "value": 0
                    },
                    {
                        "number": 64,
                        "time": 113.05416666666643,
                        "value": 1
                    },
                    {
                        "number": 64,
                        "time": 113.25937499999976,
                        "value": 0
                    },
                    {
                        "number": 64,
                        "time": 113.59166666666643,
                        "value": 1
                    },
                    {
                        "number": 64,
                        "time": 113.69062499999976,
                        "value": 0
                    },
                    {
                        "number": 64,
                        "time": 113.80416666666642,
                        "value": 1
                    },
                    {
                        "number": 64,
                        "time": 114.00937499999975,
                        "value": 0
                    },
                    {
                        "number": 64,
                        "time": 114.34166666666641,
                        "value": 1
                    },
                    {
                        "number": 64,
                        "time": 114.44062499999974,
                        "value": 0
                    },
                    {
                        "number": 64,
                        "time": 114.5541666666664,
                        "value": 1
                    },
                    {
                        "number": 64,
                        "time": 114.75937499999974,
                        "value": 0
                    },
                    {
                        "number": 64,
                        "time": 115.0916666666664,
                        "value": 1
                    },
                    {
                        "number": 64,
                        "time": 115.19062499999973,
                        "value": 0
                    },
                    {
                        "number": 64,
                        "time": 115.30416666666639,
                        "value": 1
                    },
                    {
                        "number": 64,
                        "time": 115.50937499999972,
                        "value": 0
                    },
                    {
                        "number": 64,
                        "time": 115.79062499999972,
                        "value": 1
                    },
                    {
                        "number": 64,
                        "time": 115.94270833333306,
                        "value": 0
                    },
                    {
                        "number": 64,
                        "time": 116.03333333333306,
                        "value": 1
                    },
                    {
                        "number": 64,
                        "time": 116.2604166666664,
                        "value": 0
                    },
                    {
                        "number": 64,
                        "time": 122.6010416666664,
                        "value": 1
                    },
                    {
                        "number": 64,
                        "time": 126.51145833333307,
                        "value": 0
                    },
                    {
                        "number": 64,
                        "time": 126.64270833333306,
                        "value": 1
                    },
                    {
                        "number": 64,
                        "time": 126.93749999999973,
                        "value": 0
                    },
                    {
                        "number": 64,
                        "time": 127.34687499999973,
                        "value": 1
                    },
                    {
                        "number": 64,
                        "time": 127.44583333333306,
                        "value": 0
                    },
                    {
                        "number": 64,
                        "time": 127.55833333333305,
                        "value": 1
                    },
                    {
                        "number": 64,
                        "time": 127.76458333333305,
                        "value": 0
                    },
                    {
                        "number": 64,
                        "time": 128.0854166666664,
                        "value": 1
                    },
                    {
                        "number": 64,
                        "time": 128.18437499999973,
                        "value": 0
                    },
                    {
                        "number": 64,
                        "time": 128.2979166666664,
                        "value": 1
                    },
                    {
                        "number": 64,
                        "time": 128.50312499999973,
                        "value": 0
                    },
                    {
                        "number": 64,
                        "time": 128.84270833333306,
                        "value": 1
                    },
                    {
                        "number": 64,
                        "time": 128.9416666666664,
                        "value": 0
                    },
                    {
                        "number": 64,
                        "time": 129.05520833333307,
                        "value": 1
                    },
                    {
                        "number": 64,
                        "time": 129.2604166666664,
                        "value": 0
                    }
                ]
            },
            "id": 3,
            "name": "Pedale",
            "instrumentNumber": 0,
            "instrument": "acoustic grand piano",
            "instrumentFamily": "piano",
            "channelNumber": 0,
            "isPercussion": false
        },
        {
            "startTime": 0,
            "duration": 0,
            "length": 0,
            "notes": [],
            "controlChanges": {},
            "id": 4,
            "name": "Beethoven: Hammerklaviersonate 2. Satz"
        },
        {
            "startTime": 0,
            "duration": 0,
            "length": 0,
            "notes": [],
            "controlChanges": {},
            "id": 5,
            "name": "Copyright  2008 by Bernd Krueger"
        },
        {
            "startTime": 0,
            "duration": 0,
            "length": 0,
            "notes": [],
            "controlChanges": {},
            "id": 6,
            "name": "http://www.piano-midi.de/"
        },
        {
            "startTime": 0,
            "duration": 0,
            "length": 0,
            "notes": [],
            "controlChanges": {},
            "id": 7,
            "name": "Edition: 2012-08-16"
        },
        {
            "startTime": 0,
            "duration": 0,
            "length": 0,
            "notes": [],
            "controlChanges": {},
            "id": 8,
            "name": "Spur 8"
        },
        {
            "startTime": 0,
            "duration": 0,
            "length": 0,
            "notes": [],
            "controlChanges": {},
            "id": 9,
            "name": "Spur 9"
        },
        {
            "startTime": 0,
            "duration": 0,
            "length": 0,
            "notes": [],
            "controlChanges": {},
            "id": 10,
            "name": "Spur 10"
        },
        {
            "startTime": 0,
            "duration": 0,
            "length": 0,
            "notes": [],
            "controlChanges": {},
            "id": 11,
            "name": "Spur 11"
        },
        {
            "startTime": 0,
            "duration": 0,
            "length": 0,
            "notes": [],
            "controlChanges": {},
            "id": 12,
            "name": "Spur 12"
        },
        {
            "startTime": 0,
            "duration": 0,
            "length": 0,
            "notes": [],
            "controlChanges": {},
            "id": 13,
            "name": "Spur 13"
        },
        {
            "startTime": 0,
            "duration": 0,
            "length": 0,
            "notes": [],
            "controlChanges": {},
            "id": 14,
            "name": "Spur 14"
        },
        {
            "startTime": 0,
            "duration": 0,
            "length": 0,
            "notes": [],
            "controlChanges": {},
            "id": 15,
            "name": "Spur 15"
        },
        {
            "startTime": 0,
            "duration": 0,
            "length": 0,
            "notes": [],
            "controlChanges": {},
            "id": 16,
            "name": "Spur 16"
        }
    ]
}